<?xml version="1.0" encoding="utf-8"?>
<!-- Generator: Adobe Illustrator 25.2.1, SVG Export Plug-In . SVG Version: 6.00 Build 0)  -->
<svg version="1.1" id="Layer_1" xmlns="http://www.w3.org/2000/svg" xmlns:xlink="http://www.w3.org/1999/xlink" x="0px" y="0px"
	 viewBox="0 0 283 100" style="enable-background:new 0 0 283 100;" xml:space="preserve">
<style type="text/css">
	.st0{fill:#FFFFFF;}
	.st1{fill-rule:evenodd;clip-rule:evenodd;fill:#D6D6D6;}
</style>
<desc>Created with Sketch.</desc>
<g id="页面-1">
	<g id="导航栏下拉最小宽度备份-4" transform="translate(-46.000000, -26.000000)">
		<g id="编组-27备份-2">
			<g id="kucoin-logo" transform="translate(32.000000, 12.000000)">
				<g id="KUCOIN-logo-3.0" transform="translate(14.000000, 14.000000)">
					<path id="形状" class="st0" d="M222.7,50c0-1.7,0-3.2-0.1-4.7c0-1.4-0.2-2.7-0.4-4.1c-0.2-1.2-0.6-2.4-1.1-3.6
						c-0.6-1.2-1.3-2.2-2.3-3.1c-1.3-1.3-2.9-2.4-4.6-3.2c-1.9-0.8-3.9-1.1-5.9-1.1s-4,0.3-5.9,1.1c-1.7,0.7-3.3,1.8-4.6,3.1
						c-0.9,0.9-1.7,2-2.2,3.1s-0.9,2.3-1.1,3.6c-0.2,1.3-0.4,2.7-0.4,4.1c0,1.4-0.1,3,0,4.7c0,1.7,0,3.2,0,4.7
						c0,1.4,0.2,2.7,0.4,4.1c0.2,1.2,0.6,2.4,1.1,3.6c0.6,1.2,1.3,2.2,2.2,3.1c1.3,1.3,2.9,2.4,4.6,3.1c1.9,0.8,3.9,1.1,5.9,1.1
						s4-0.3,5.9-1.1c1.7-0.7,3.3-1.8,4.6-3.1c0.9-0.9,1.7-2,2.3-3.1c0.5-1.1,0.9-2.3,1.1-3.6c0.2-1.3,0.4-2.7,0.4-4.1
						C222.7,53.2,222.7,51.7,222.7,50L222.7,50z M215.2,50c0,1.8,0,3.4-0.1,4.6c0,1-0.1,2-0.3,3c-0.1,0.7-0.3,1.3-0.6,1.9
						c-0.2,0.5-0.5,0.9-0.9,1.3c-0.6,0.6-1.3,1.2-2,1.5c-0.9,0.4-1.8,0.6-2.8,0.6s-1.9-0.2-2.8-0.6c-0.8-0.3-1.5-0.8-2.1-1.5
						c-0.4-0.4-0.7-0.9-0.9-1.3c-0.3-0.6-0.5-1.3-0.6-1.9c-0.2-1-0.3-2-0.3-3c-0.1-1.2-0.1-2.8-0.1-4.6s0-3.4,0.1-4.6
						c0-1,0.1-2,0.3-3c0.1-0.7,0.3-1.3,0.6-1.9c0.2-0.5,0.5-0.9,0.9-1.3c0.6-0.6,1.3-1.2,2.1-1.5c0.9-0.4,1.8-0.6,2.8-0.6
						s1.9,0.2,2.8,0.6c0.8,0.3,1.5,0.9,2,1.5c0.4,0.4,0.7,0.9,0.9,1.3c0.3,0.6,0.5,1.3,0.6,1.9c0.2,1,0.3,2,0.3,3
						C215.2,46.6,215.2,48.2,215.2,50z"/>
					<path id="路径" class="st0" d="M283,31.3c0-0.4-0.3-0.7-0.7-0.7h-6.2c-0.4,0-0.7,0.3-0.7,0.7v23l-15.2-23.5
						c-0.1-0.2-0.2-0.2-0.4-0.2H254c-0.4,0-0.7,0.3-0.7,0.7v37.4c0,0.4,0.3,0.7,0.7,0.7h6.2c0.4,0,0.7-0.3,0.7-0.7V45.6l15.2,23.6
						c0.1,0.2,0.2,0.2,0.4,0.2h5.8c0.4,0,0.7-0.3,0.7-0.7L283,31.3z"/>
					<path id="路径_1_" class="st0" d="M241.2,31.3c0-0.4-0.3-0.7-0.7-0.7h-6.2c-0.4,0-0.7,0.3-0.7,0.7v37.4
						c0,0.4,0.3,0.7,0.7,0.7h6.2c0.4,0,0.7-0.3,0.7-0.7V31.3z"/>
					<path id="路径_2_" class="st0" d="M166.6,50c0-1.9,0-3.4,0.1-4.6c0-1,0.1-2,0.3-3c0.6-3.3,3.1-5.3,6.4-5.3
						c2.1,0,4.1,0.8,5.3,2.6c0.6,0.8,1,1.8,1.2,2.7c0,0.1,0.1,0.2,0.2,0.2h7.3c0.1,0,0.1-0.1,0.1-0.2c-0.8-4.5-3.2-8.6-7.5-10.6
						c-2.1-1-4.4-1.5-6.7-1.4c-4.1,0-7.6,1.4-10.4,4.2c-1.6,1.6-2.7,3.6-3.2,5.8c-0.4,2.2-0.7,5.4-0.7,9.6s0.2,7.4,0.7,9.6
						c0.4,2.2,1.5,4.2,3.2,5.8c2.8,2.8,6.3,4.2,10.4,4.2c2.3,0,4.6-0.5,6.7-1.4c4.3-2,6.7-6.1,7.5-10.6c0-0.1,0-0.2-0.1-0.2H180
						c-0.1,0-0.2,0.1-0.2,0.2c-0.2,1-0.6,1.9-1.2,2.7c-1.2,1.8-3.2,2.6-5.3,2.6c-3.3,0-5.8-2-6.4-5.3c-0.2-1-0.3-2-0.3-3
						C166.6,53.4,166.6,51.9,166.6,50z"/>
					<path id="路径_3_" class="st0" d="M89.1,31.3c0-0.4-0.3-0.7-0.7-0.7h-6.2c-0.4,0-0.7,0.3-0.7,0.7v37.4c0,0.4,0.3,0.7,0.7,0.7
						h6.2c0.4,0,0.7-0.3,0.7-0.7v-11l5-6l10.3,17.4c0.1,0.1,0.2,0.2,0.4,0.2h7.6c0.3,0,0.4-0.2,0.2-0.5L99.1,46l12.3-14.8
						c0.2-0.3,0.1-0.6-0.2-0.6h-8.3c-0.1,0-0.2,0-0.3,0.1L89.1,47V31.3z"/>
					<path id="路径_4_" class="st0" d="M134.5,62.9c-3.5,0-6.7-3.2-6.7-7.1V31.3c0-0.4-0.3-0.7-0.7-0.7h-6.2
						c-0.4,0-0.7,0.3-0.7,0.7v24.4c0,8.5,6.4,14,14.2,14c7.9,0,14.2-5.4,14.2-14V31.3c0-0.4-0.3-0.7-0.7-0.7h-6.2
						c-0.4,0-0.7,0.3-0.7,0.7v24.5C141.2,59.7,138,62.9,134.5,62.9z"/>
					<path id="形状_1_" class="st1" d="M18.9,50l19.3,19.4l12.2-12.2c2.2-2,5.5-1.9,7.6,0.2c2.1,2.1,2.2,5.4,0.2,7.6L42.1,81.1
						c-2.2,2.1-5.6,2.1-7.8,0L11,57.8v13.8c0,3.1-2.5,5.5-5.5,5.5S0,74.7,0,71.6V28.4c0-3.1,2.5-5.5,5.5-5.5s5.5,2.5,5.5,5.5v13.8
						l23.3-23.3c2.2-2.1,5.6-2.1,7.8,0L58.2,35c2,2.2,1.9,5.5-0.2,7.6c-2.1,2.1-5.4,2.2-7.6,0.2L38.2,30.6L18.9,50z M38.2,44.5
						L38.2,44.5c-2.2,0-4.3,1.3-5.1,3.4s-0.4,4.4,1.2,6c1.6,1.6,4,2.1,6,1.2s3.4-2.9,3.4-5.1c0-1.5-0.6-2.9-1.6-3.9
						C41.1,45.1,39.7,44.5,38.2,44.5L38.2,44.5z"/>
				</g>
			</g>
		</g>
	</g>
</g>
</svg>
