<?xml version="1.0" encoding="utf-8"?>
<!-- Generator: Adobe Illustrator 25.2.1, SVG Export Plug-In . SVG Version: 6.00 Build 0)  -->
<svg version="1.1" id="Layer_1" xmlns="http://www.w3.org/2000/svg" xmlns:xlink="http://www.w3.org/1999/xlink" x="0px" y="0px"
	 viewBox="0 0 263 93" style="enable-background:new 0 0 263 93;" xml:space="preserve">
<style type="text/css">
	.st0{fill:#FFFFFF;}
</style>
<g>
	<path class="st0" d="M263,52.9c-0.2,0.8-0.4,1.6-0.7,2.5c-2,7.8-11,10.9-17.4,6c-0.4-0.3-0.7-0.6-1.5-1.2c0,4.2,0,8.1,0,12.1
		c-1.5,0-2.7,0-4,0c0-10.7,0-21.3,0-32c1.3,0,2.4,0,3.7,0c0.1,0.8,0.2,1.5,0.3,2.2c0.2,0,0.5,0,0.6-0.1c7.5-5.9,16.5-2.7,18.5,6.6
		c0.1,0.4,0.3,0.7,0.5,1C263,51,263,52,263,52.9z M250.7,43.1c-4.7,0.1-7.8,3.4-7.7,8.5c0,5.1,3.1,8.4,7.8,8.4c4.8,0,8.1-3.6,8-8.7
		C258.6,46.4,255.4,43.1,250.7,43.1z"/>
	<path class="st0" d="M201.4,57.3c2-5,3.7-9.5,5.4-13.9c1.3-3.4,1.3-3.4,5.6-2.9c-1,2.4-1.9,4.8-2.8,7.1c-1.9,4.6-3.8,9.2-5.8,13.8
		c-0.3,0.8-1.4,1.8-2.1,1.7c-0.9-0.1-2-0.9-2.4-1.7c-2.2-4.7-4.1-9.4-6.4-14.8c-2.2,5.1-4.1,9.6-6,14c-0.5,1.2-0.8,3.2-2.8,2.5
		c-1-0.3-2-1.5-2.5-2.6c-2.8-6.6-5.5-13.3-8.3-19.9c4.1-0.9,4.3-0.8,5.7,2.9c1.7,4.4,3.3,8.7,5.3,13.8c2.3-5.5,4.2-10.3,6.4-15.1
		c0.4-0.8,1.5-1.9,2.2-1.9c0.8,0,1.9,1.1,2.3,1.9C197.2,47,199.1,51.8,201.4,57.3z"/>
	<path class="st0" d="M81.3,31c1.5,0,2.6,0,4,0c0,1.1,0.1,2.1,0.1,3.1c0,4.9-0.1,9.8,0,14.7c0.2,6.1,5,10.5,10.9,10.4
		c6-0.1,10.6-4.6,10.7-10.7c0.1-5.7,0.1-11.3,0.1-17c0-0.1,0.1-0.2,0.3-0.4c1.1,0,2.2,0,3.6,0c0,6.7,0.6,13.5-0.1,20.1
		c-0.8,7.6-7.9,12.6-15.5,12c-8-0.6-13.7-6.3-13.9-14.2C81.2,43.1,81.3,37.1,81.3,31z"/>
	<path class="st0" d="M218,47c-1-0.6-2-1.1-2.9-1.7c1-5.1,6.2-6.2,11.5-5.6c4.3,0.5,6.7,3,6.8,7.5c0.2,5.2,0,10.5,0,15.9
		c-1.2,0-2.3,0-3.5,0c-0.2-0.7-0.4-1.5-0.6-2.4c-0.3,0.2-0.6,0.2-0.8,0.4c-2.7,2.5-5.9,3.1-9.4,2.2c-3.1-0.8-4.9-3.1-5.1-6.2
		c-0.2-3.6,1.3-6.1,4.6-7c2.6-0.7,5.3-0.7,8-1.2c1.1-0.2,2-1.1,2.9-1.6c-0.8-1.2-1.3-2.9-2.4-3.5C224.1,41.8,220.4,43.3,218,47z
		 M229.5,52.1c-3,0.4-5.7,0.6-8.5,1.1c-1.9,0.4-3.4,1.8-2.7,3.7c0.4,1.2,2.1,2.6,3.3,2.8C226.6,60.5,229.7,57.6,229.5,52.1z"/>
	<path class="st0" d="M118,40.3c1.1,0,2.1,0,3.3,0c0.1,0.6,0.3,1.4,0.4,2.1c0.3-0.1,0.6-0.2,0.8-0.4c3.1-2.7,6.7-3.3,10.5-1.9
		c3.7,1.4,4.9,4.5,5,8.1c0.2,4.9,0,9.7,0,14.8c-1.2,0-2.3,0-3.9,0c0-4.6,0.1-9.2,0-13.7c-0.1-5.1-4.6-7.9-8.7-5.4
		c-1.5,0.9-2.8,2.8-3.1,4.5c-0.6,3.1-0.5,6.3-0.6,9.4c-0.1,1.6,0,3.2,0,5.1c-1.3,0-2.4,0-3.7,0C118,55.5,118,48,118,40.3z"/>
	<path class="st0" d="M152.9,58.3c1-0.6,1.9-1.2,3-1.9c2.3,3.2,5.6,4.2,9.2,3.3c1.1-0.3,2.6-1.7,2.7-2.7c0.1-0.9-1.3-2.5-2.3-2.9
		c-2-0.9-4.3-1.1-6.4-1.8c-3.6-1.2-5.2-3.4-5-6.5c0.2-3,2.3-5.4,5.7-6.1c3.9-0.8,9.8-0.4,12,4.8c-0.9,0.6-1.9,1.2-2.9,1.8
		c-2.2-2.9-5.1-4-8.4-2.8c-1,0.4-2.1,1.6-2.2,2.5c-0.1,0.7,1,2.1,1.9,2.4c2.4,0.9,5,1.3,7.5,2.2c4,1.4,5.6,5.3,3.7,9.1
		c-0.5,0.9-1.2,1.8-2,2.3C163.8,65.6,154.8,63.3,152.9,58.3z"/>
	<path class="st0" d="M6.1,32.5c5.3,5.9,5.3,5.9,8.3,3.8C10.3,31.2,6.1,26.2,2,21.1c0.2-0.1,0.3-0.3,0.5-0.4C4.7,23.1,7,25.6,9.3,28
		c1.8,1.9,3.5,3.8,5.2,5.8c2.2,2.4,1.6,5.1-1.6,5.7c-3,0.6-4,1.9-4.2,4.7c-0.1,1.6-0.9,3.1-1.6,4.6c-1.2,2.6-0.7,4.6,1.6,6.3
		c4.2,3.2,3.8,6-1,8.1c-1.3,0.6-2.7,0.9-4.2,1.4c-1-1.6-1.9-3.1-2.6-4.6c-1.4-3-1.2-6,1-8.6c2.5-2.9,3.7-6.3,5-9.9
		C8.2,38.1,8.3,35.4,6.1,32.5z"/>
	<path class="st0" d="M28.2,38.7c3.7,0.7,7.2,1.4,10.6,2.2c6,1.3,9.1,5.2,8.5,10.7c-0.1,0.9-0.4,1.8-0.5,1.9c-2.4-1.7-4.7-3.5-7.2-5
		c-2.3-1.3-4.9-2.1-7.3-3.4C29.8,43.6,28,41.6,28.2,38.7z"/>
	<path class="st0" d="M34.6,47.6c3.3,2.2,6.2,3.6,8.5,5.8c4.2,3.9,2.7,11.4-2.8,14c1.5-3.8-0.5-6.7-2.3-9.6c-1.3-2-2.4-4.1-3.3-6.3
		C34.3,50.6,34.6,49.4,34.6,47.6z"/>
	<path class="st0" d="M37.4,38.1C31.3,38.5,27,36,23.8,31.2c-1.7-2.5-3.7-4.8-5.6-7.3c-0.2,0.2-0.5,0.3-0.7,0.5
		c1.7,1.1,3.6,2.1,5,3.5c1.2,1.2,2.4,1.4,4,1.5c2.7,0,5.4,0.4,7.9,1.1c3.8,1.1,4.1,2,3.2,5.9C37.5,37,37.5,37.5,37.4,38.1z"/>
	<path class="st0" d="M23.9,65.9c-0.5,3.4-2.8,4.3-5.5,2.4c-2.4-1.7-4.7-3.4-7.1-5.1c2.3-2,5.3-3.5,8.9-3.8c4.9-0.3,7.6,2,8.5,7
		c0.8,4.5,1.3,5.1,4.9,5.4c-2.2,1.2-4.1,0.6-5.6-1.7c-0.8-1.3-1.2-2.9-2.2-4c-1.1-1.2-2.5-2.3-4-2.7c-0.8-0.2-2.3,1-2.9,1.9
		c-0.3,0.4,0.7,2.3,1.4,2.5c0.9,0.2,2-0.7,3-1.2C23.6,66.5,23.7,66.2,23.9,65.9z"/>
	<path class="st0" d="M145.2,40.3c1.3,0,2.3,0,3.6,0c0,7.6,0,15.1,0,22.8c-1.2,0-2.3,0-3.6,0C145.2,55.5,145.2,48,145.2,40.3z"/>
	<path class="st0" d="M20.1,35.8c-4.3-0.9-6.6-4.5-6.3-9.6C16.8,26.4,16.8,26.4,20.1,35.8z"/>
	<path class="st0" d="M147.6,29.7c0.8,1.2,2.1,2.2,2.4,3.5c0.4,1.9-0.9,3-2.9,3.1c-2,0.1-3.3-1-3-2.9c0.2-1.3,1.4-2.4,2.2-3.6
		C146.7,29.8,147.1,29.7,147.6,29.7z"/>
	<path class="st0" d="M32.4,48c2.7,5-1,9.2-12,8.7C25,54.4,32.6,56.6,32.4,48z"/>
	<path class="st0" d="M17.5,45.4c-1-1.1-1.9-1.8-1.9-2.5c0-0.6,1-1.9,1.4-1.8c1.2,0.2,2.4,0.9,3.5,1.4
		C19.6,43.3,18.8,44.1,17.5,45.4z"/>
	<path class="st0" d="M44.3,40.5c-2.1-1-3.6-1.7-5.1-2.5c0.4-0.9,0.9-1.9,1.6-3.5C42,36.6,43,38.3,44.3,40.5z"/>
</g>
</svg>
