<?xml version="1.0" encoding="utf-8"?>
<!-- Generator: Adobe Illustrator 25.2.1, SVG Export Plug-In . SVG Version: 6.00 Build 0)  -->
<svg version="1.1" id="Layer_1" xmlns="http://www.w3.org/2000/svg" xmlns:xlink="http://www.w3.org/1999/xlink" x="0px" y="0px"
	 viewBox="0 0 150 86.3" style="enable-background:new 0 0 150 86.3;" xml:space="preserve">
<style type="text/css">
	.st0{clip-path:url(#SVGID_2_);fill:#EC1E24;}
	.st1{clip-path:url(#SVGID_4_);}
	.st2{fill:#FFFFFF;}
	.st3{clip-path:url(#SVGID_6_);}
</style>
<g>
	<g>
		<g>
			<defs>
				<path id="SVGID_1_" d="M140.4,86.3H9.6C4.3,86.3,0,82,0,76.7V9.6C0,4.3,4.3,0,9.6,0h130.8c5.3,0,9.6,4.3,9.6,9.6v67.1
					C150,82,145.7,86.3,140.4,86.3z"/>
			</defs>
			<clipPath id="SVGID_2_">
				<use xlink:href="#SVGID_1_"  style="overflow:visible;"/>
			</clipPath>
			<path class="st0" d="M174.8,44.3c0.1,0.1,0.2,0.1,0.3,0.1C176.5,43.6,176.4,43.6,174.8,44.3 M150.6,53.1c0.1,0,0.2,0,0.3-0.1
				C152.2,52.4,152.1,52.4,150.6,53.1 M154.4,60.5c0.1,0.1,0.2,0.1,0.4,0.1C156.1,59.8,156,59.8,154.4,60.5 M150,55
				c0.1,0,0.2,0,0.2,0C151.2,53.9,151.1,53.9,150,55 M168.7,39.8c1.3-0.8,1.2-0.8-0.3,0C168.5,40,168.6,40,168.7,39.8 M166.5,38.1
				c0.5,0.4,0.8,0.4,0.9,0l0.2-0.9C165.8,35.5,165.4,35.8,166.5,38.1 M168.9,45.1l0.6,0.2c-0.1-1.8-0.5-2-1.3-0.7
				C168.4,44.9,168.6,45,168.9,45.1 M167.4,46c1.7-0.4,1.6-0.4-0.3,0C167.2,46,167.3,46,167.4,46 M212.9,3c-0.1,0.1-0.1,0.2-0.2,0.3
				l0.2,0.1c0-0.2,0.1-0.3,0.1-0.4L212.9,3 M180.3,32.7c-1.2-1-2.1-1.1-2.6-0.2c0.5,0.2,1,0.4,1.6,0.7l0.1-0.2
				c2.9,1.4,3.3,1.5,1.3,0.2c-0.1,0-0.2-0.1-0.3-0.2C180.3,32.8,180.4,32.8,180.3,32.7 M174.5,28.8c1.4-0.7,1.3-0.7-0.3,0
				C174.3,28.8,174.4,28.8,174.5,28.8 M173.5,31.3c0.9-1.4,0.4-1.5-1.5-0.3C172.8,31.5,173.4,31.6,173.5,31.3 M161.8,32.4
				c0.5,0.2,0.8,0.2,0.8,0.2C163.8,31.2,163.6,31.1,161.8,32.4 M194.4,4.8c0.1,0.1,0.2,0.1,0.2,0C196,4.2,196,4.2,194.4,4.8
				 M197.4,5.1c1,0,1.8-0.1,2.6-0.3l0.5-0.1C200.5,2.7,199.4,2.8,197.4,5.1 M202.2,6.6c0.1,0,0.2,0,0.3,0
				C204.1,5.6,204,5.6,202.2,6.6 M102.8,7c0,0.1,0,0.2,0,0.2c1.1,1.6,1.8,3.3,2.3,5c0.1,0.1,0.2,0.1,0.3,0.2c-0.1,0.1-0.1,0.2,0,0.3
				c0.1,0.4,0.3,0.9,0.5,1.2c0.1,0.1,0.2,0.1,0.3,0.2c0.1,0.1,0.2,0.1,0.1,0.2c0,0.5,0.1,1,0.4,1.4c1.5,0.7,1.6,0.2,0.2-1.5
				c0-0.1-0.1-0.1-0.2-0.2c-0.3-0.5-0.5-1-0.8-1.4c0-0.1-0.1-0.1-0.2-0.2c0.1-0.1,0.1-0.2,0.1-0.3C105.1,10.2,104.1,8.6,102.8,7
				 M102.1,6.6c0.9-0.2,0.9-1.3,0.1-3c-0.2-0.3-0.5-0.4-1-0.3C100.1,3.5,100.4,4.6,102.1,6.6 M97.7-15.1c0.8,0.7,1.3,0.8,1.8,0.5
				C99.6-16.3,99-16.5,97.7-15.1 M142.3,48.2c0.2-1.4,0.1-1.5-0.2-0.1L142.3,48.2 M137.9,48.1l0.8,0.3
				C136.9,45.8,136.6,45.7,137.9,48.1 M130.1,48.8c0.1-0.1,0.1-0.1,0.1-0.2c-2.2-3-2.4-2.9-0.6,0.3c0.1,0.1,0.2,0.1,0.3,0.2
				c0,0.1,0,0.2,0,0.2c0.3,0.4,0.5,0.9,0.5,1.3c0.6-0.2,0.6-0.9-0.1-1.6C130.4,49,130.3,49,130.1,48.8 M129.4,44.5l0.8,1.9
				c0.6,0.2,1.2,0.1,1.5-0.4c0.1-0.1,0.2-0.2,0.2-0.3c0.1,0.1,0.1,0.1,0.1,0c1.1-1.1,0.9-1.2-0.5-0.2
				C130.8,44.8,130.1,44.5,129.4,44.5 M121.2,60.9L121.2,60.9C121.6,58.9,121.6,58.9,121.2,60.9 M122.5,66.7
				C122.8,64.3,122.7,64.3,122.5,66.7L122.5,66.7 M105.4,64.5c2.3-0.5,2.2-0.5-0.4-0.1C105.2,64.4,105.3,64.5,105.4,64.5 M98.8,49.1
				L98.8,49.1C99.2,46.5,99.1,46.5,98.8,49.1 M108.3,31.7l0.1,0.1C108.5,30.4,108.5,30.4,108.3,31.7 M73.1,31.3l0.6,0.2
				c0.4-0.9-0.1-1.2-1.7-0.8C72.4,30.9,72.8,31.1,73.1,31.3 M63,42.7c0.1,0.1,0.2,0.1,0.4,0.1C65,42.2,64.9,42,63,42.7 M188.2,23.9
				c-0.9-0.5-1.8-0.2-2.8,1c0.8,0.3,1.4,0.7,2.1,0.7c0.5,0,1.1-0.1,1.5-0.3c0.2-0.1,0.3-0.2,0.3-0.4
				C188.9,24.5,188.6,24.2,188.2,23.9 M166.3,21.3c0.2-0.1,0.3-0.2,0.5-0.2c1.7-0.9,1.7-0.9-0.1,0c-0.1,0.1-0.3,0.2-0.5,0.3
				L166.3,21.3 M127.7-8.9c0.2-0.4,0.4-0.7,0.5-0.9v-0.1c-0.1,0.2-0.3,0.5-0.8,1l0.1,0.1h0.1C127.7-8.8,127.7-8.8,127.7-8.9
				 M148.3,20.9c1.4-0.7,1.3-0.8-0.2-0.1C148.2,20.9,148.2,20.9,148.3,20.9 M147,22.1c0.1,0,0.2,0.1,0.3,0.1c2.5,0.5,5,0.5,7.2,0.2
				c-0.1,0-0.2,0-0.3,0C151.6,21.9,149.3,21.9,147,22.1 M120.7-14.2c-0.1,0.1-0.1,0.2,0,0.3c0.1,0.8,0.1,1.5,0,2.3
				c0.4-0.2,0.9-0.9,1.2-2c0-0.1,0-0.3,0.1-0.3c0.6-0.9,0.5-1.4-0.4-1.6c0,0-0.1,0-0.1,0.1c-0.2-0.3-0.2-0.8,0-1.2
				c0.1-0.2,0.2-0.4,0.1-0.5c0.1-0.4,0-0.7-0.3-0.5c-0.1,0-0.2,0-0.3,0.1l0,0l-0.1,0.1c-0.3,0.3-0.5,1.3-0.3,3
				c0.1,0.1,0.2,0.1,0.3,0.2C120.7-14.6,120.7-14.5,120.7-14.2 M173.5,19.4c0.1,0.1,0.2,0.1,0.3,0C176.7,18.7,176.6,18.7,173.5,19.4
				 M152.5,10.4c0.1,0,0.2,0,0.2,0.1C155,8.7,154.9,8.7,152.5,10.4 M147.9,4.3c-1-0.7-1.8-0.9-2.6-0.4c-1.4,0.9-1.5,1.8-0.3,2.6
				c1.4,1,1.6,2.1,0.6,3c0.1,0,0.2,0,0.2,0C149.3,8.2,149.9,6.5,147.9,4.3 M148.1,1.4c1-1.8,0.8-1.9-0.5-0.2L148.1,1.4 M142.5-2.3
				c0.1,0.1,0.2,0.1,0.2,0.1C144.1-2.9,144-2.9,142.5-2.3 M140.3,8.1l0.6,0.2C141.1,6.8,140.8,6.7,140.3,8.1 M120.7-7.4l0.2,0.1
				C121.4-10.8,121.3-10.8,120.7-7.4 M116.9-6.8c0.1,0.1,0.2,0.1,0.3,0C118.5-7.6,118.4-7.6,116.9-6.8 M122.7,0.6
				c0-0.1,0-0.2,0.1-0.3c0.1,0.1,0.2,0.1,0.3,0.2c0.1,0.1,0.2,0.2,0.2,0.3c0,0,0,0.1-0.1,0.2c3.3,1.5,4.8,0.7,4-2.6
				c0-0.2-0.3-0.5-0.9-0.8c-1.2-0.4-2.2-0.1-2.8,1c-0.1,0-0.3-0.1-0.4,0c-0.2,0-0.4,0-0.5,0.1c-0.1-0.1-0.2-0.1-0.3-0.2
				c0-0.5-0.1-1.1-0.2-1.6c0,0-0.1-0.1-0.2-0.1c0.2-1,0.1-1.9-0.4-2.5l-0.3-0.4c-0.8,0.5-0.8,1.4-0.1,3c0.1,0,0.3,0.1,0.3,0.2
				c-0.1,0.1-0.1,0.2-0.1,0.3c0.2,1.8,0.5,3.4,0.9,5C123.2,2.3,123.3,1.8,122.7,0.6 M110.7-3.2l0.2,0.1
				C112.2-5.6,112.1-5.7,110.7-3.2 M109.8-9.1c-0.1-0.1-0.2-0.1-0.4-0.1c-5-1.9-6.7-0.7-5.2,3.7c0.1,0,0.2,0.1,0.3,0.2
				C108.1-4.1,109.8-5.5,109.8-9.1 M111.5-6.6C112.3-8.1,112.3-8.1,111.5-6.6L111.5-6.6 M135.4,52.8c0.5,0.2,1,0.4,1.6,0.5
				c1.3,0.3,1.7-0.1,1.2-1.2c-0.3-0.8-0.6-1.2-1-1.5c-0.5-0.7-1.1-0.4-1.4,0.5C135.7,51.5,135.5,52,135.4,52.8 M131.9,51.8l-0.3-0.3
				c0,0.8,0.2,1.9,0.5,3.2c0.1,0.4,0.2,0.8,0.3,1.2c0.1,0,0.2,0,0.2,0c0.5-0.4,0.5-1.2,0.1-2.3C132.6,53.1,132.3,52.5,131.9,51.8
				 M105.4,33.7c0.3,0.2,0.5,0.2,0.6,0.2c0.2-0.2,0.4-0.5,0.5-0.7c1-1.2,0.8-1.2-0.4-0.1C105.9,33.3,105.6,33.5,105.4,33.7
				 M84.8,41.7c-0.1-0.1-0.3-0.1-0.4-0.2c-1.5-0.4-2.8-0.2-3.9,0.5c1.6,0.4,3.1,0.4,4.4,0c0.1,0,0.2-0.1,0.3-0.1
				c1.3,0,2.6,0.1,3.9,0.3c0.1,0,0.2,0.1,0.3,0.1c0,0.1-0.1,0.1-0.1,0.2c-4.6,0.1-8.5,2.4-11.7,6.7c1.7,0.9,3.1,1.1,4.2,0.7
				c0.1,0,0.2-0.1,0.3-0.1s0.2-0.1,0.2-0.2c-0.2-1.2,0-2.2,0.6-3.2c0.5-0.9,1.5-1.5,2.8-2.2c0.1,0,0.2,0,0.3,0
				c1.3,0.1,2.6,0,3.8-0.1c0.1,0,0.2,0.1,0.3,0.1c0.9-0.1,1.6-0.2,2.4-0.2c0.1,0,0.1-0.1,0.1-0.2c0.4,0.2,0.8,0.3,1.2,0.4
				c0.1,0,0.1-0.1,0.1-0.2c0.8,0.4,1.3,0.7,1.7,0.3c0.1-0.1,0.1-0.1,0.2-0.2c0.1,0,0.1,0,0.2,0.1c0.1,0,0.3,0.1,0.3,0.2
				c0.1,0,0.2,0.1,0.3,0.1H97c0.4,0.1,0.4,0.4,0,0.9l-0.1-0.1c-0.4,0.7-1.1,1.2-1.9,1.6c-0.1-0.1-0.2-0.1-0.4-0.2
				c-0.6-0.2-1.1,0.1-1.4,1c0.9,0.8,1.5,0.8,1.8,0.1c0-0.1,0.1-0.2,0.2-0.3c0.4-0.3,0.9-0.4,1.4-0.3c0,0,0.1,0,0.1-0.1
				c1.2,0,2.4-0.1,3.5-0.5c0.1-0.1,0.2-0.1,0.2-0.2c0.5,0,1.1-0.2,1.5-0.4c0.3-0.2,0.8-0.5,1-0.9c0.1-0.1,0.2-0.2,0.2-0.3
				c2.2,0.1,4.1-0.5,5.8-1.9c0.2-0.1,0.3-0.3,0.5-0.4c0.1,0,0.2,0,0.3,0.1c1.9,1.2,3.6,1.8,5,1.8c0.2,0,0.3,0,0.4,0
				c1.7,2.6,4,3.4,6.6,2.6c0.1-0.1,0.2-0.1,0.3,0c0,0.1-0.1,0.2-0.1,0.2c-1.6,0.2-1.7,1-0.3,2.5c-0.1-0.1-0.2-0.1-0.4-0.1
				c-0.8-0.2-1.1,0.1-0.9,0.8c0.5,0.4,1,0.5,1.3,0.2c0-0.1,0.1-0.2,0.2-0.3c0-0.1,0.1-0.2,0.2-0.2c1.4-0.8,2.1,0,1.8,2.5
				c0.1,0.1,0.2,0.1,0.3,0.2c-0.2,0.4-0.4,0.7-0.5,0.7c-3-1-4.4,0.1-4.2,3.1c4.4,1.5,6.2,0.2,5.1-3.8c0-0.1-0.1-0.1-0.2-0.2
				c0.2-1.6,0.1-3.2-0.2-4.7c0-0.1,0-0.2,0-0.3c0.1-0.1,0.1-0.2,0.2-0.3c0.9-0.1,1.6-0.5,2.2-1.4c0.1-0.1,0.1-0.2,0.2-0.3l0.1-0.2
				c0.4,0.1,0.5,0.4,0.4,0.9c0.8,0.2,1-0.3,0.4-1.5c0,0,0-0.1,0.1-0.2c1.9-0.3,3.2-0.8,3.9-1.5c0.1-0.1,0.2-0.2,0.2-0.3
				c1.8,1.1,2.8,1.2,2.9,0.7c0-0.1,0.1-0.2,0.2-0.3c0.1,0.1,0.2,0.1,0.3,0.2c1.1,0.7,1.8,1.3,2.5,2.1c0.1,0,0.3,0.1,0.3,0.2
				c0.1,0,0.3,0.1,0.4,0.1c0.5,0.1,0.8,0.4,0.5,0.8c2.2,0.9,2.1,0.5-0.3-1.1c-0.1-0.1-0.2-0.1-0.3-0.2c0.1-1.3,1.7-1.1,4.8,0.8
				c0,0,0.2,0,0.5-0.1c0.5-0.1,0.5-0.3,0.1-0.5c0.1-0.1,0.1-0.2,0.2-0.3c0.1-0.1,0.1-0.2,0.2-0.3c0.8-0.1,0.8-0.4,0.1-1.1
				c-0.1-0.1-0.2-0.1-0.3-0.2c0.1-0.1,0.1-0.1,0.2-0.1c2.4,0.1,3.8,1.1,4.4,2.9c0.1,0,0.3,0.1,0.3,0.2c0,0.1-0.1,0.2-0.1,0.3
				c0,1-0.9,2.1-2.7,3.4c0.6,0.3,1.4,0.4,1.9,0.4c0.1,0,0.1-0.1,0.2-0.2c0.1,0,0.2,0.1,0.2,0.2c0,0.1,0,0.2,0,0.3
				c1.5,0.4,1.7,0.2,0.8-0.8c-0.1-0.1-0.2-0.2-0.2-0.2c1.3,0.3,1.9-0.1,1.8-1.3c-0.2-1.3,0.2-2.7,1.2-4.4c0.2-1.6,1-2.7,2.3-3.3
				l-0.1-0.1c-0.9-0.5-1.5-0.3-2.2,0.8c-0.1-0.1-0.2-0.1-0.3,0c-0.2,0-0.5,0.1-0.8,0.3c-0.1,0-0.2-0.1-0.3-0.1c-0.8,0-1.4,0-2.1,0.2
				c-0.1,0-0.2-0.1-0.3-0.2c-0.5-0.3-1.2-0.5-1.8-0.9c0-0.2,0-0.5-0.1-0.8c0-0.1-0.1-0.1-0.2-0.2c-0.1-2,1.3-3.3,4.3-3.9
				c2.3-0.4,4.5-1,6.8-1.5c1.3,0.4,2.6,1,3.9,1.5c0.1,0,0.2,0.1,0.4,0.1v0.1c0.9,0.4,1.2,1,1,1.6c3,0.5,2.9,0-0.2-1.4
				c-0.1,0-0.3-0.1-0.3-0.2c-0.9-1.5-2.4-2.6-4.6-3.4v-0.1c1.5-0.1,2.7-0.3,3.8-0.7H161c-0.2-0.7-0.1-1,0.5-1c0.1,0,0.2,0,0.4,0.1
				c-0.1,0.1-0.1,0.2-0.2,0.3c0.8,0.4,1.4,0.7,1.9,0.4c0.1-0.1,0.2-0.1,0.3-0.2c0.6,0.1,1.4,0.2,2.1,0.3c0.1,0,0.3,0.1,0.4,0.1
				c2.4,0.7,4,0.7,4.9-0.2l-0.2-0.1c-1.4-1.8-2.8-1.9-4.3-0.4c0,0.1-0.1,0.2-0.1,0.3c-0.1,0-0.3-0.1-0.4-0.1
				c-0.5-0.1-1.2-0.3-1.9-0.7c-0.1,0-0.2-0.1-0.3-0.1c-0.3-0.8-0.8-1-1.5-0.7c-0.1-0.1-0.2-0.1-0.3-0.2s-0.2-0.1-0.3-0.2
				c0-0.1,0.1-0.2,0.2-0.3c1.3-1.1,2.4-1.3,3.2-0.8c0.5,0.3,1.2,0.3,1.9,0.1c3-1.3,6.3-2.1,9.6-2.2c0.1-0.2,0.2-0.5,0.3-0.8
				c1-1.5,2.3-2.7,4.1-3.5c0.1,0,0.1-0.1,0.1-0.2c2.8,0.3,5.4,0.4,7.9,0.3c0.6-0.1,1.4-0.1,2.1-0.2c0.4,0,0.8-0.1,1.2-0.2
				c0-0.9-0.6-1.6-2.1-2.3h-0.1c-0.5-0.2-1.1-0.5-1.7-0.9c-2.9-0.3-5.3-0.1-7.2,0.8V19c-0.2,0.7-0.8,1.2-1.5,1.8
				c-0.1-0.1-0.2-0.1-0.3-0.2c-0.5-0.2-1,0-1.3,0.7c-0.1-0.1-0.2-0.1-0.2-0.1c-0.1,0-0.2,0.1-0.3,0.2c-0.1-0.1-0.2-0.1-0.3-0.1
				c-1.5,0.1-3,0.3-4.4,0.7c-0.1,0-0.3-0.1-0.4-0.1c-1,0.1-1.9,0.4-2.8,1c-0.1,0-0.2,0-0.2,0h-0.1c-2.4,1.2-4.9,2-7.5,2.5
				c-0.1-0.1-0.2-0.1-0.3-0.1c-5.7,0.4-11.5,1-17.1,1.6c0.3-2,0.1-3.8-0.6-5.3c0-0.1-0.1-0.1-0.2-0.2c0.3-2.3,0-4.4-1-6.4
				c-0.1-0.1-0.2-0.1-0.3-0.1c-0.1-0.2-0.1-0.3-0.1-0.5c0-0.1,0.1-0.2,0.1-0.3c0.1,0,0.2,0,0.2,0c0.3-0.3,0.6-0.5,1.1-0.9
				c1.1-0.7,2.4-1.1,4-1.3c0-0.2-0.1-0.4-0.1-0.3c-1.4-0.2-2.9,0.2-4.6,1.5c-0.3,0.2-0.5,0.4-0.9,0.8c-0.1-0.1-0.2-0.2-0.2-0.2
				c-0.6-1.3-1.3-1.6-1.9-0.9c-0.1-0.1-0.2-0.1-0.3-0.2c-0.1-0.1-0.1-0.1-0.2-0.2c-0.1-0.9-0.9-1-2.2-0.5c-0.1,0-0.2-0.1-0.3-0.1
				c-1.6,0-3.2-0.2-5-0.4c0.4-0.7,0.9-1.3,1.3-2c0.6-0.9,1.4-1.5,2.3-2.2c0.1-0.1,0.2-0.2,0.2-0.3c-1-2.2-2.7-2.4-5.2-1
				c-0.1,0-0.1,0-0.2,0c-0.1-0.1-0.2-0.1-0.3-0.2c0-1.2-0.1-1.5-0.3-1.1c-0.1,0.1-0.1,0.2-0.2,0.3c-0.1-0.1-0.2-0.1-0.4-0.1
				c-1-0.3-1.2,0-0.5,1c0.1,0,0.2,0.1,0.3,0.2c0.1,0,0.2,0.1,0.3,0.2c0,0.1-0.1,0.2-0.2,0.3c-0.3,0.3-0.6,0.8-1,1.1
				c-1.1,1.3-2.2,2.7-3.1,4.5c-0.1-1.1-0.4-2.2-0.9-3.3c0-0.1-0.1-0.1-0.2-0.2C124,8.2,124,8.1,124,8c0.1-0.7,0.1-1.4,0-2.1
				c-0.1-1-0.2-2-0.5-2.9c0,0.1-0.1,0.3-0.1,0.4c0,0.8,0,1.5,0,2.2c0,1,0,2.1,0,3.2c0.1,0.1,0.2,0.1,0.3,0.2
				c-0.1,0.1-0.1,0.2-0.1,0.2c0.4,0.8,0.5,1.6,0.4,2.5c0.1,0.1,0.2,0.1,0.3,0.2c0.4,1.5,0,2-1.3,1.5h-0.1c-1.2-0.7-2.4-0.8-3.3-0.4
				c-0.6-3.5-2.8-6.1-6.5-7.9c-0.1,0-0.2-0.1-0.3-0.2c0-0.1,0-0.2,0-0.3c-1.2-2.9-1.4-2.9-0.8-0.1c0.1,0.1,0.2,0.1,0.3,0.2
				c-0.1,0.1-0.1,0.2-0.2,0.3c-0.1,0.1-0.1,0.2-0.2,0.3c-0.4,0.8-1.1,1-1.8,0.8c-0.3-0.5-0.4-0.5-0.4-0.5c-0.6,0.1-1.3-0.1-2.2-0.7
				c-0.8-1.8-1.7-3.4-2.8-4.9l0,0c0-0.1,0-0.1,0.1-0.2c-1.6-0.9-2.7-1.9-3.1-3c0-0.1,0-0.2,0-0.3c-0.3-0.3-0.8-0.7-1.2-1
				c-0.2-0.1-0.5-0.3-0.8-0.4c-0.1,0-0.3-0.1-0.3-0.2c-0.8-2-1.9-3.7-3.6-5.5c-0.1-0.1-0.2-0.2-0.3-0.2l0.1-0.1
				c-1.2-0.9-2.2-1.3-3-1.3C92.2-11,92.8-9.9,94-8.8c1,0.7,1.7,1.5,2.5,2.6c1.3,1.9,2.7,3.5,4.3,5.3c2.4,2.4,3.8,4.6,4.3,6.5
				c0,0.1-0.1,0.1-0.1,0.2c2.7,3.4,4.6,6.9,5.9,10.6c0.1,0,0.3,0.1,0.3,0.2c2.4,1.2,2.6,2.2,0.8,3l-0.1,0.1
				c-2.9-1.1-5.6-0.9-8.2,0.8c0,0.1,0,0.2,0,0.2c1,1.3,1.9,1.4,3.1,0c0.1,1.5,1,2.7,2.4,3.6c0.9,0.7,1.2,1.1,1,1.5
				C109.7,27,109,28,108,29c0.1,0.1,0.2,0.1,0.3,0.2c-0.1,0.1-0.1,0.1-0.2,0.2c-0.6,0.1-1.3,0.4-1.8,1c0.8,0,1.4-0.1,1.9-0.4
				c0.1-0.1,0.1-0.1,0.2-0.2c0.5,0.2,0.9,0.3,1.2,0.1c0.4-0.2,0.8-0.2,1,0c2.2,1.4,2.9,4.1,2.2,7.6c-0.1-0.1-0.2-0.2-0.3-0.2
				c-1-0.9-2.1-1.4-3.2-1.5c-1.4-0.2-2.8,0.2-4.4,1.1c-0.1,0-0.3-0.1-0.4-0.1c-1.5-0.2-3.1-0.4-4.6-0.7C99.8,36,99.7,36,99.5,36
				c-1.1-0.2-2.1-0.3-3-0.3c-0.1,0-0.2-0.1-0.3-0.2c-1-0.7-2.1-0.3-3.2,0.9c-0.1,0-0.2,0-0.2,0c-0.6,0.3-1.2,0.7-1.7,1.1
				c1.1,0.5,1.8,0.3,2.3-0.5c0-0.1,0-0.2,0.1-0.3c1-0.1,1.8-0.3,2.8-0.7c0.1,0,0.2,0,0.3,0c1.4,0.5,2.7,0.9,4,1c0,0,0.1,0,0.2-0.2
				c1.5,0.7,2.8,0.9,4.1,0.9c0.1,0,0.2,0,0.4,0c0.1,0.1,0.2,0.1,0.3,0.2c0.8,0.3,0.9,1,0.1,1.8c-0.1,0.1-0.2,0.2-0.2,0.3
				c-0.8,0.3-1.4,0.5-2.1,0.7c-0.1,0-0.3,0-0.3,0c-0.9,0.1-1.7,0.1-2.6,0.2c-0.1-0.1-0.2-0.1-0.2-0.1c-0.5,0.4-1.2,0.3-1.9-0.2
				c-0.1-0.1-0.2-0.1-0.3-0.1c-1.4,0-2.8,0.1-4.1,0.4c-0.1,0-0.2-0.1-0.3-0.2c-0.4-0.1-0.8,0-1.1,0.3c-0.1,0-0.2-0.1-0.3-0.1
				c-0.8,0-1.5,0.2-2.3,0.5c-0.1,0-0.2-0.1-0.3-0.1C87.6,41.2,86.1,41.4,84.8,41.7 M153.3,64.4c1.5-0.1,1.4-0.1-0.4-0.1
				C153,64.4,153.2,64.4,153.3,64.4 M138.4,57.1c0.9,0.1,0.8-0.3-0.3-1.4C136.7,54.6,136.8,55,138.4,57.1 M140.2,55.1
				c0.1,0.1,0.2,0.1,0.3,0.1C141.8,54.6,141.7,54.4,140.2,55.1 M147.1,60.7h0.1C146.8,58.6,146.8,58.5,147.1,60.7 M146.8,57.5
				c0.1,0,0.2,0,0.3,0C148.3,56.9,148.2,56.9,146.8,57.5 M144.9,67.2c0.1,0.1,0.2,0.1,0.2,0.1C146.6,66.5,146.6,66.5,144.9,67.2
				 M137.7,64.9c1.3-0.8,1.2-0.8-0.2-0.1C137.6,64.9,137.7,65,137.7,64.9 M133.6,59l0.2,0.1C134.1,57.1,134,57.1,133.6,59
				 M78.8,61.7l0.6-0.1C80,60.1,79.8,60.3,78.8,61.7 M77.2,51.9c0.8,0.3,1.3,0.2,1.5-0.4C79.6,49.7,79,49.8,77.2,51.9 M78.9,54.4
				c0.8-1.5,0.3-1.4-1.4,0.2C78.3,55,78.7,54.9,78.9,54.4 M76.1,53.1c0.8-1.8,0.2-1.8-1.5,0.1C75.4,53.7,75.9,53.7,76.1,53.1
				 M99.4,32.8c0.1,0,0.2,0,0.3,0C102.9,31.2,102.8,31.2,99.4,32.8 M78.4,36c0.1,0.1,0.2,0.1,0.3,0.1C80.1,35.5,80.1,35.4,78.4,36z"
				/>
		</g>
	</g>
	<g>
		<g>
			<defs>
				<path id="SVGID_3_" d="M140.4,86.3H9.6C4.3,86.3,0,82,0,76.7V9.6C0,4.3,4.3,0,9.6,0h130.8c5.3,0,9.6,4.3,9.6,9.6v67.1
					C150,82,145.7,86.3,140.4,86.3z"/>
			</defs>
			<clipPath id="SVGID_4_">
				<use xlink:href="#SVGID_3_"  style="overflow:visible;"/>
			</clipPath>
			<g class="st1">
				<path class="st2" d="M137.9,32L137.9,32L137.9,32L137.9,32L137.9,32z M137.2,32.1L137.2,32.1L137.2,32.1z M137.7,35.2
					L137.7,35.2c-0.1,0-0.1,0-0.2-0.1l0,0l0,0c0,0,0,0-0.1-0.1l0,0c0,0,0-0.1-0.1-0.1l0,0l-0.1-0.1h-0.1c-0.1,0-0.2,0.2-0.4,0.4l0,0
					c0,0.1,0,0.2,0,0.2s0.2,0.2,0.5,0.5c0.1,0-0.1,0.2-0.4,0.6l0,0l0,0l0,0c-0.1,0.1-0.1,0.1-0.3,0.1c0,0-0.2,0-0.4-0.2
					c0-0.1-0.1-0.1,0-0.1c-0.1-0.1-0.2-0.3-0.2-0.5c0,0,0-0.2,0.1-0.4l0,0c0-0.1,0.1-0.1,0.1-0.1l0,0c0,0,0,0,0-0.1
					c0.1-0.1,0.2-0.2,0.2-0.2l0,0l0,0l0,0l0,0v-0.1l0,0v-0.1l0,0l0,0l0,0l0,0c0.1-0.1,0.1-0.2,0.2-0.2l0,0l0,0l0,0l0.3-0.3v-0.1l0,0
					l0.1-0.2l0,0l0,0l0,0c0,0,0,0,0.1-0.1l0,0c0.1-0.1,0.1-0.2,0.2-0.2c0.1-0.1,0.3-0.3,0.6-0.5c0.1-0.1,0.3-0.1,0.7-0.1
					c0.1,0,0.1,0.1,0.2,0.2c0,0,0,0.2,0,0.4c0,0.1-0.1,0.2-0.3,0.5l0,0c0,0-0.1,0-0.1,0.1l-0.1,0.1c0,0,0,0.1,0,0.2
					c0,0,0.1,0.1,0.2,0.3c0.1,0.1,0.3,0.1,0.3,0.1c0.1,0,0.2,0,0.2-0.1l0,0l0,0l0,0l0,0l0,0l0,0l0,0c0,0,0.1,0,0.2-0.1l0,0l0,0l0,0
					l0.1-0.1l0,0l0,0l0.1-0.1l0,0c0.1-0.1,0.2-0.3,0.3-0.6c0-0.1,0.1-0.1,0-0.2c0-0.2,0-0.3-0.1-0.5c-0.1-0.1-0.1-0.1-0.1-0.1
					c0-0.1-0.2-0.3-0.5-0.5c0,0-0.1-0.1-0.3-0.1s-0.3-0.1-0.5-0.1h-0.3h-0.1l-0.6,0.2l0,0c-0.1,0-0.2,0.1-0.2,0.1l0,0
					c-0.1,0.1-0.3,0.1-0.4,0.3l0,0c-0.1,0-0.1,0.1-0.2,0.2l0,0c0,0-0.1,0-0.1,0.1v0.1l0,0l-0.1,0.1v0.1c-0.1,0-0.2,0.1-0.3,0.2
					l-0.1,0.1l0,0c0,0,0,0-0.1,0l0,0c0,0-0.1,0.1-0.2,0.2l0,0l0,0l-0.1,0.1c0,0,0,0-0.1,0c0,0.1,0,0.1,0,0.1l0,0l0,0l0,0
					c0,0,0,0.1-0.1,0.1c0,0,0,0-0.1,0.1l0,0l0,0l0,0c0,0.1-0.1,0.1-0.1,0.1v0.1l0,0l0,0c-0.2,0.3-0.3,0.4-0.3,0.4
					c0.3,0.2,0.2,0.2,0.2,0.2s0,0.1,0,0.2l-0.1,0.1c0,0,0,0.1-0.1,0.2c-0.1,0.1-0.1,0.3,0,0.6c0,0.2,0.2,0.5,0.4,0.8l0,0l0,0
					c0,0,0.1,0.1,0.3,0.2c0,0,0,0,0.1,0l0.1,0.1c0.1,0.1,0.2,0.1,0.2,0.1c0.2,0.1,0.4,0.2,0.4,0.2s0.1,0,0.3,0s0.3-0.1,0.3-0.1
					c0.1,0,0.1-0.1,0.3-0.1l0,0c0,0,0,0,0.1,0l0,0l0,0v-0.1c0-0.1,0.1-0.1,0.2-0.2v-0.1h0.1l0,0l0,0l0,0l0,0l0,0l0.1-0.1
					c0,0,0,0,0.1-0.1l0,0l0,0c0,0,0,0,0-0.1l0,0l0,0l0,0l0,0l0.1-0.1v-0.1l0,0v-0.1c0,0,0,0,0.1,0l0,0l0,0v-0.1l0,0l0,0l0,0
					c0,0,0,0,0.1,0l0,0l0,0c0-0.1,0-0.2-0.1-0.3l0,0c0-0.1-0.1-0.1-0.1-0.1l0,0l0,0l0,0l0,0l0,0c0,0,0,0,0-0.1L137.7,35.2
					L137.7,35.2L137.7,35.2L137.7,35.2z M130.8,33.2L130.8,33.2L130.8,33.2L130.8,33.2L130.8,33.2z M134.4,28.5
					c-0.1-0.1-0.3,0-0.6,0.4l0,0l0,0c0,0,0,0,0,0.1l-0.3,0.3l-0.3,0.4c0,0,0,0-0.1,0c0,0,0,0,0,0.1c-0.2,0.3-0.4,0.5-0.5,0.6l0,0
					l0,0l-0.1,0.1l0,0c0,0-0.1,0-0.1,0.1l0,0c0,0,0,0-0.1,0.1c0,0.1-0.1,0.1-0.1,0.1l-0.1,0.1L132,31l0,0c0,0,0,0-0.1,0l-0.1,0.2
					c-0.1,0.2-0.2,0.3-0.3,0.3l0,0l0,0l-0.1,0.1l0,0l-0.1,0.1l0,0l-0.1,0.1l0,0c-0.1,0-0.1,0.1-0.1,0.1l-0.2,0.3
					c-0.1,0.1-0.1,0.2-0.1,0.2c-0.3,0.4-0.4,0.6-0.4,0.7c0,0.1,0,0.2,0.1,0.3c0,0,0,0,0.1,0c0,0,0,0,0,0.1c0.3,0.1,0.4,0.2,0.5,0.2
					l0,0c0.1,0,0.1,0,0.1,0l0,0l0,0l0.2-0.2l0,0c0,0,0,0,0.1-0.1c0.1-0.2,0.2-0.3,0.3-0.4l0,0c0.1-0.1,0.2-0.2,0.2-0.3l0.1-0.1
					c0,0,0,0,0-0.1h0.1l0.1-0.1l0.1-0.1c0-0.1,0.1-0.1,0.1-0.2l0.1-0.1l0,0l0.1-0.1c0.1-0.1,0.1-0.1,0.1-0.1l0,0
					c-0.1,0.3-0.1,0.5-0.2,0.7c-0.1,0.5-0.2,1-0.3,1.5c0,0.4,0.1,0.7,0.1,0.8c0.1,0.1,0.2,0.2,0.2,0.3l0,0l0,0l0,0c0,0,0,0,0.1,0
					l0.1,0.1h0.1l0,0h0.1c0.1,0,0.2,0,0.3-0.1l0.1-0.1c0,0,0,0,0-0.1l0,0c0.1-0.1,0.1-0.2,0.2-0.2l0.2-0.3l0,0c0,0,0,0,0.1,0l0,0
					l0.2-0.2v-0.1l0,0c0-0.1,0.1-0.1,0.1-0.1l0.2-0.2l0,0c0,0,0.1,0,0.2-0.1l0.1-0.1h0.1l0,0l0,0c0,0,0.1-0.1,0.2-0.3l0,0l0,0v-0.1
					l0.1-0.1c0,0,0.1-0.1,0.2-0.1v-0.1c0,0,0,0,0.1-0.1l0,0c0,0,0,0,0.1,0l0.1-0.2l0,0l0,0l0.2-0.3l0,0l0.1-0.1l0.1-0.1l0.1-0.1
					v-0.1l0.2-0.2c0,0,0,0,0-0.1l0.1-0.1l0.1-0.1l0.1-0.1l0,0l0,0l0.1-0.1c0-0.1,0.1-0.1,0.1-0.1c0.1-0.1,0-0.2-0.1-0.3l0,0
					c0,0-0.1-0.1-0.2-0.1l-0.1-0.1l0,0l0,0l0,0c-0.1-0.1-0.2-0.1-0.2-0.1c-0.1-0.1-0.3,0.1-0.6,0.4c-0.2,0.3-0.3,0.5-0.3,0.5
					c-0.5,0.7-0.8,1.1-0.8,1.1l0,0v0.1l-0.1,0.1c0,0.1-0.1,0.2-0.1,0.2l-0.3,0.3l-0.1,0.1c0,0,0,0,0,0.1v0.1l-0.1,0.1l0,0
					c0,0,0-0.1,0-0.2c0.3-0.6,0.5-1,0.5-1.3c0.3-0.7,0.4-1.2,0.5-1.6c0-0.1,0.1-0.4,0.2-1c-0.1-0.2-0.2-0.4-0.3-0.5
					C134.6,28.5,134.5,28.5,134.4,28.5z M130.4,31.5L130.4,31.5L130.4,31.5L130.4,31.5L130.4,31.5z M132.5,27.2
					c-0.1,0-0.1,0.1-0.2,0.1l0,0c0,0-0.1,0.1-0.1,0.2l-0.1,0.2l-0.1,0.1l0,0l0,0l0,0l0,0c-0.1,0.1-0.1,0.2-0.2,0.3l0,0
					c0,0-0.1,0.1-0.2,0.2v0.1c0,0-0.1,0.1-0.2,0.3l0,0c0,0,0,0-0.1,0.1l0,0v0.1l0,0l0,0l0,0c0,0,0,0,0,0.1l0,0l-0.1,0.1l0,0
					l-0.4,0.4l0,0h-0.1l0,0l0,0c0,0,0,0-0.1,0.1c0,0,0,0.1-0.1,0.1l-0.1,0.1v0.1c-0.1,0.1-0.2,0.1-0.2,0.1c0,0.1-0.1,0.1-0.1,0.2
					l0,0v0.1l-0.1,0.1l0,0l0,0v0.1l-0.1,0.1l-0.1,0.1c-0.1,0.1-0.1,0.1-0.1,0.2l0,0c0,0,0,0,0,0.1l0,0l0,0l0,0c0,0,0,0-0.1,0
					c0,0,0,0.1-0.1,0.1l-0.1,0.1c0,0,0,0,0,0.1l-0.1,0.1l0,0l0,0c-0.2,0.2-0.3,0.3-0.3,0.5l0,0c0,0,0,0.1,0.1,0.1s0.1,0.1,0.1,0.1
					l0.1,0.1l0,0c0,0,0,0,0.1,0l0,0l0,0c0,0,0.1,0,0.1,0.1c0,0.1,0.1,0.1,0.2,0.2l0,0l0,0l0,0c0,0,0.1,0,0.2-0.1l0,0
					c0,0,0.1-0.1,0.3-0.4l0,0c0,0,0.1-0.1,0.2-0.2l0,0c0.1,0,0.1-0.1,0.2-0.2l0,0l0,0l0,0l0.2-0.3l0,0l0,0l0,0c0,0,0.1-0.1,0.2-0.3
					l0.1-0.1v-0.1l0,0l0.1-0.1h0.1l0,0l0,0c0,0,0,0,0-0.1l0.1-0.1l0,0c0,0,0,0,0.1-0.1l0,0l0,0c0,0,0,0,0-0.1h0.1v-0.1
					c0,0,0,0,0.1,0l0,0l0,0l0,0c0,0,0,0,0-0.1l0,0c0-0.1,0.1-0.1,0.1-0.1l0,0l0.1-0.1l0,0l0,0l0.1-0.1l0,0l0,0c0,0,0,0,0-0.1l0,0
					l0.1-0.1l0,0c0,0,0.2-0.1,0.4-0.5l0,0l0,0V29l0,0l0,0c0.1-0.2,0.2-0.3,0.3-0.4l0,0c0,0,0.1,0,0.1-0.1l0.1-0.1
					c0.1-0.1,0.2-0.3,0.1-0.4l-0.1-0.2c-0.1-0.1-0.2-0.2-0.3-0.2l0,0C132.7,27.1,132.6,27.1,132.5,27.2z M128,30.6L128,30.6
					L128,30.6v0.1V30.6L128,30.6z M128.3,30.3L128.3,30.3L128.3,30.3L128.3,30.3L128.3,30.3c-0.1,0.1-0.1,0.2-0.2,0.3l0,0
					c0,0,0,0-0.1,0.1l0,0v-0.1l0,0v-0.1l0.1-0.1L128.3,30.3L128.3,30.3z M127.9,23.3c-0.1,0-0.3,0.1-0.6,0.4l0,0l0,0l0,0l-0.1,0.1
					l-0.1,0.1c0,0-0.1,0-0.1,0.1l-0.2,0.2v0.1l0,0l-0.1,0.1c0,0-0.1,0-0.1,0.1v0.1l-0.1,0.1l-0.2,0.2l-0.1,0.1l0,0
					c-0.1,0.1-0.2,0.2-0.3,0.4c-0.2,0.2-0.3,0.3-0.4,0.4l0,0c-0.1,0-0.1,0.1-0.2,0.2l0,0l0,0l0,0l-0.5,0.7c-0.1,0.1-0.1,0.1-0.1,0.1
					l0,0c0,0,0,0-0.1,0l-0.1,0.1l-0.1,0.1c0,0,0,0-0.1,0.1l0,0c0,0,0,0,0,0.1c0,0,0,0-0.1,0l-0.3,0.3c-0.1,0.2-0.1,0.3,0.1,0.5
					c0.1,0,0.1,0.1,0.1,0.1l0,0l0,0l0,0l0,0c0,0,0.2,0.1,0.4,0.2c0.2-0.1,0.4-0.3,0.6-0.5l0,0l0.1-0.1l0,0l0.1-0.1l0,0v-0.1l0,0
					c0,0,0-0.1,0.1-0.1l0,0c0,0,0,0,0-0.1l0.1-0.1l0.1-0.1c0,0,0.1-0.1,0.2-0.3c0,0,0,0,0.1-0.1v-0.1c0,0,0,0,0.1,0v-0.1
					c0,0,0,0,0.1-0.1c0,0,0,0,0-0.1l0,0c0,0,0,0.1-0.1,0.3l0,0l-0.2,0.5l0,0c-0.2,0.4-0.3,0.7-0.3,0.9c-0.1,0.4-0.2,0.6-0.1,0.7
					c-0.1,0.1,0,0.2,0.3,0.3c0.1,0.1,0.2,0.2,0.2,0.1c0.1,0.1,0.3,0.1,0.6-0.1c0.1-0.1,0.3-0.2,0.5-0.2c0.1-0.1,0.3-0.2,0.6-0.3
					v-0.1l0,0l0.1-0.1c0.1-0.1,0.2-0.2,0.4-0.3l0,0l0,0c0,0,0,0.1,0,0.2c-0.1,0.1-0.2,0.2-0.2,0.2l-0.2,0.3l-0.1,0.1l0,0
					c-0.1,0-0.1,0.1-0.1,0.1l0,0V29c0,0,0,0-0.1,0.1c-0.2,0.3-0.3,0.5-0.4,0.6c0,0.2,0,0.4,0.2,0.5l0.1,0.1c0.1,0.1,0.3,0.2,0.3,0.2
					c0.2,0.1,0.4,0,0.5-0.1l0,0c0.1-0.1,0.1-0.1,0.1-0.1l0.1-0.1c0.1-0.1,0.1-0.2,0.2-0.3c0,0,0,0,0.1,0c0.1-0.1,0.1-0.2,0.2-0.3
					l0,0l0.1-0.1l0.1-0.1l0,0l0,0l0.1-0.1l0,0c0.1-0.1,0.1-0.2,0.1-0.2l0,0l0,0l0.1-0.1l0.1-0.1l0,0c0,0,0-0.1,0.1-0.1
					c0.1-0.1,0.1-0.1,0.1-0.1s0-0.1,0.1-0.1c0,0,0.1-0.1,0.2-0.2l0.2-0.2l0,0l0.1-0.2h0.1c0,0,0,0,0-0.1l0,0c0,0,0.1-0.1,0.1-0.2
					l0,0l0.1-0.2l0,0c0,0,0.1-0.1,0.1-0.2l0,0l0.2-0.3c0,0,0.1-0.1,0.3-0.3c0.2-0.3,0.3-0.4,0.3-0.4c0.2-0.1,0.2-0.3-0.1-0.5h-0.1
					l0,0l-0.2-0.1l0,0h-0.1c-0.2,0-0.3,0.1-0.5,0.2c-0.6,0.4-1.1,0.6-1.2,0.7c-0.3,0.2-0.4,0.3-0.4,0.3s-0.3,0.1-0.8,0.4
					c-0.5,0.3-0.8,0.5-1,0.6l-0.1-0.1l0.4-0.8c0.1-0.3,0.2-0.5,0.2-0.5s0,0,0.1,0c0-0.1,0.1-0.2,0-0.2l0,0c0.2-0.4,0.3-0.6,0.3-0.8
					l0,0l0.1-0.1c0,0,0-0.1,0.1-0.2l0,0c0.2-0.5,0.3-0.8,0.3-0.9s0.1-0.2,0-0.4l-0.4-0.4c0,0,0,0-0.1,0l0,0l0,0
					C128.1,23.3,128,23.3,127.9,23.3z M124.4,22c0.1,0,0.3,0,0.4,0.2l0.1,0.1v0.1l0,0l0,0c0.1,0.1,0.2,0.2,0.1,0.4l0,0
					c-0.1,0.2-0.2,0.3-0.2,0.4l0,0v0.1l0,0l0,0l0,0l0,0c-0.1,0.1-0.1,0.2-0.1,0.2l0,0l0,0c0,0,0,0,0,0.1c0,0,0,0-0.1,0l0,0v0.1l0,0
					l0,0l-0.1,0.1l-0.1,0.1l0,0l0,0l0,0c0,0-0.1,0-0.1,0.1l0,0l0,0l-0.2,0.2l0,0l0,0l0,0l0,0l-0.3,0.3l0,0l0,0l0,0l0,0
					c-0.3,0.3-0.4,0.4-0.5,0.4c-0.2,0.2-0.4,0.1-0.7-0.1c-0.1-0.2-0.1-0.4-0.1-0.6c0.1-0.3,0.3-0.6,0.4-0.8l0,0l0,0l0,0
					c0-0.1,0.1-0.2,0.2-0.3l0,0c0.1-0.2,0.2-0.3,0.2-0.3l0,0c0,0,0,0,0-0.1l0.1-0.1h0.1l0,0l0,0l0,0c0,0,0,0,0-0.1
					c0,0,0.1-0.1,0.2-0.2v-0.1c0.2-0.2,0.3-0.3,0.3-0.3l0,0C124.2,22.1,124.3,22,124.4,22z M125.1,20.9L125.1,20.9L125.1,20.9
					c-0.1-0.1-0.2-0.1-0.5-0.1c-0.2,0-0.3,0-0.4,0c-0.3,0.1-0.5,0.3-0.7,0.4l0,0v0.1l0,0l0,0c0,0,0,0-0.1,0l0,0
					c-0.1,0.1-0.2,0.2-0.4,0.4l0,0l0,0l0,0l0,0c-0.1,0.1-0.1,0.2-0.1,0.2l-0.3,0.3c-0.1,0.1-0.2,0.2-0.3,0.4c0,0,0,0-0.1,0.1l0,0
					l0,0l0,0c-0.1,0.1-0.1,0.2-0.2,0.2c0,0-0.1,0.1-0.2,0.2l0,0c-0.1,0.1-0.2,0.3-0.3,0.4l-0.1,0.1c0,0.1-0.1,0.2-0.1,0.3
					c-0.3,0.4-0.4,0.7-0.3,0.7c0,0.1,0,0.2,0,0.3c0.2,0.4,0.4,0.8,0.7,1l0,0c0.1,0.1,0.2,0.2,0.2,0.2l0,0c0.2,0.1,0.3,0.2,0.4,0.2
					c0.1,0.1,0.4,0.1,0.8,0.1c0.1,0,0.3-0.1,0.6-0.4l0,0l0,0c0,0,0.1-0.2,0.4-0.4v-0.1c0,0,0,0,0.1-0.1c0-0.1,0.1-0.1,0.1-0.1
					c0.1-0.1,0.2-0.2,0.3-0.4c0.1-0.1,0.3-0.4,0.5-0.7c0.1-0.1,0.1-0.1,0.2-0.2c0,0,0-0.1,0.1-0.1l0,0c0,0,0,0,0-0.1l0,0
					c0.2-0.2,0.2-0.3,0.2-0.4l0,0c0,0,0.1-0.1,0.1-0.3c0.2-0.2,0.3-0.5,0.3-0.8c0-0.2-0.1-0.4-0.2-0.6l-0.4-0.5
					C125.4,21.1,125.2,21,125.1,20.9z M119.2,22.8L119.2,22.8L119.2,22.8L119.2,22.8L119.2,22.8z M122.1,18.5L122.1,18.5L122.1,18.5
					c0,0-0.1,0-0.2-0.1l0,0c-0.1,0-0.2-0.1-0.4-0.1c-0.4,0-0.7,0-0.9,0.1l-0.5,0.3l-0.6,0.4l0,0l-0.3,0.3l0,0
					c-0.1,0.1-0.2,0.1-0.2,0.2l-0.1,0.1v0.1l0,0l-0.1,0.1V20l0,0l0,0l0,0l0,0l0,0l0,0l0,0l0,0c-0.1,0.2-0.2,0.3-0.3,0.4l0,0
					c0,0-0.1,0.1-0.1,0.2l0,0l0,0h0.1l0,0c0,0,0,0-0.1,0c-0.1,0.1-0.2,0.3-0.3,0.7c-0.1,0.1-0.1,0.2,0,0.2l0,0v0.2
					c-0.1,0.1,0,0.3,0,0.7l0,0v-0.1l0,0c0.1,0.1,0.1,0.2,0.1,0.2c0.1,0.2,0.3,0.5,0.6,0.7l0.2,0.1c0.1,0,0.2,0,0.2,0l0,0
					c0.1,0.1,0.4,0,0.9-0.1c0.3-0.1,0.4-0.2,0.5-0.4l0,0l0,0c0,0,0.1-0.1,0.2-0.3l0,0v-0.1c0,0,0,0,0.1,0l0,0c0-0.2-0.1-0.3-0.3-0.5
					c0,0-0.1-0.1-0.2-0.1c0,0,0,0-0.1,0h-0.1c0,0-0.1,0.1-0.2,0.2s-0.1,0.1-0.1,0.1v0.1l0,0c0,0-0.1,0.1-0.2,0.1l0,0
					c-0.1,0.1-0.2,0.1-0.3,0.1l0,0l0,0c0,0,0,0-0.1,0.1l0,0c-0.1,0-0.1,0-0.1,0l0,0h-0.1l0,0l0,0l0,0l0,0l0,0l0,0
					c-0.1,0-0.1-0.1-0.1-0.1c-0.1-0.1-0.1-0.2-0.1-0.3l0,0l0,0c0.1-0.3,0.1-0.4,0-0.4v-0.1c0.1-0.1,0.2-0.2,0.1-0.2l0.1-0.1
					c0,0,0-0.1,0.1-0.1l0,0l0,0l0,0l0,0c0.1-0.2,0.2-0.3,0.2-0.3l0,0l0.1-0.1l0,0c0,0,0,0,0.1-0.1l0,0l0.1-0.1l0,0v-0.1
					c0.1,0,0.2-0.1,0.3-0.3l0,0c0.2-0.2,0.3-0.3,0.4-0.3c0.1-0.1,0.1-0.1,0.2-0.1c0.2-0.2,0.3-0.2,0.4-0.3l0,0l0,0l0,0l0,0l0,0l0,0
					c0.1,0,0.1,0,0.1-0.1l0,0c0,0,0,0,0.1,0l0,0l0,0c0.1,0,0.2,0,0.3,0h0.1c0,0,0.1,0,0.1,0.1l0,0l0.1,0.1l0,0v0.1
					c0.1,0.1,0.1,0.2,0,0.3c0,0.1,0,0.2,0,0.3c-0.1,0.2-0.2,0.4-0.2,0.4l0,0l0,0l0,0l0,0c0,0.1,0,0.2,0,0.2l0,0v0.2l0,0l0,0v0.1
					c0.1,0,0.2,0,0.2,0l0,0l0,0c0,0,0,0,0.1,0s0.2,0,0.2-0.1l0,0l0.1-0.1c0-0.1,0-0.1,0-0.1c0.1,0,0.1-0.1,0.2-0.2l0.1-0.1l0,0
					c0,0,0,0,0-0.1l0.1-0.1c0-0.1,0-0.1,0-0.1l0.1-0.1l0,0l0,0l0,0v-0.1l0,0c0-0.1,0-0.2,0-0.2c0-0.1,0-0.2-0.1-0.4
					c-0.2-0.3-0.3-0.4-0.4-0.5l0,0l-0.1-0.1C122.3,18.6,122.2,18.6,122.1,18.5z"/>
			</g>
		</g>
		<g>
			<defs>
				<path id="SVGID_5_" d="M140.4,86.3H9.6C4.3,86.3,0,82,0,76.7V9.6C0,4.3,4.3,0,9.6,0h130.8c5.3,0,9.6,4.3,9.6,9.6v67.1
					C150,82,145.7,86.3,140.4,86.3z"/>
			</defs>
			<clipPath id="SVGID_6_">
				<use xlink:href="#SVGID_5_"  style="overflow:visible;"/>
			</clipPath>
			<g class="st3">
				<path class="st2" d="M119.6,33.8L119.6,33.8L119.6,33.8c0,0.1,0,0.2,0.1,0.4l0,0l0.1,0.1l0,0l0,0l0,0l0,0l0.1,0.1l0,0l0,0h0.1
					l0,0l0,0h0.1l0.1-0.2l0,0l0,0l0,0l0.1-0.1l0,0c0,0,0-0.1,0.1-0.2l0,0c0,0,0-0.1,0-0.2l0,0l0,0l0.1-0.1l0,0l0,0
					c0,0,0.1-0.1,0.3-0.4v-0.1l0.1-0.1l0.1-0.1c0.1-0.1,0.2-0.2,0.3-0.3c0.1-0.1,0.2-0.3,0.5-0.6l0.2-0.2l0.1-0.1l0,0v-0.1l0,0
					c0.1-0.2,0.2-0.3,0.2-0.3l0,0c0,0,0.1-0.1,0.1-0.3c0.2-0.2,0.2-0.4,0.3-0.7c0-0.1-0.1-0.3-0.2-0.6l-0.4-0.5
					c-0.2-0.2-0.4-0.3-0.5-0.3l0,0l0,0c-0.1,0-0.2-0.1-0.4-0.1c-0.2,0-0.3,0-0.3,0c-0.2,0.1-0.4,0.2-0.6,0.4l0,0v0.1l0,0l0,0l0,0
					l0,0c-0.1,0.1-0.2,0.2-0.3,0.3l0,0l0,0l0,0l0,0l-0.1,0.2l-0.2,0.3c-0.1,0.1-0.2,0.2-0.3,0.3h-0.1l0,0l0,0l0,0l-0.2,0.2l-0.2,0.2
					l0,0c-0.1,0.1-0.2,0.2-0.2,0.3l-0.1,0.1c0,0.1-0.1,0.2-0.1,0.3c-0.2,0.4-0.3,0.6-0.3,0.6c0,0.1,0,0.2,0,0.3
					c0.1,0.4,0.3,0.7,0.6,0.9l0,0c0.1,0.1,0.2,0.2,0.2,0.2l0,0c0.2,0.1,0.3,0.2,0.4,0.2C119.3,33.7,119.4,33.8,119.6,33.8
					L119.6,33.8z M120.4,34.3L120.4,34.3L120.4,34.3L120.4,34.3L120.4,34.3z M121.2,29.7c0.1,0,0.2,0,0.4,0.1l0.1,0.1V30l0,0l0,0
					c0.1,0.1,0.1,0.2,0.1,0.4l0,0c-0.1,0.2-0.1,0.3-0.2,0.3l0,0v0.1l0,0l0,0l0,0l0,0c-0.1,0.1-0.1,0.2-0.1,0.2l0,0l0,0v0.1l0,0l0,0
					v0.1l0,0l0,0l-0.1,0.1v0.1l0,0l0,0l0,0l-0.1,0.1l0,0l0,0l-0.2,0.2l0,0l0,0l0,0l0,0l-0.3,0.3l0,0l0,0l0,0l0,0
					c-0.2,0.2-0.4,0.4-0.4,0.4c-0.2,0.1-0.4,0.1-0.6-0.1c-0.1-0.2-0.1-0.3-0.1-0.5c0.1-0.3,0.2-0.5,0.4-0.7l0,0l0,0l0,0l0.2-0.2l0,0
					c0.1-0.1,0.2-0.2,0.2-0.3l0,0v-0.1l0.1-0.1h0.1l0,0l0,0l0,0v-0.1c0,0,0.1-0.1,0.2-0.2V30C121.1,29.8,121.2,29.7,121.2,29.7
					L121.2,29.7C121,29.8,121.1,29.7,121.2,29.7z"/>
				<path class="st2" d="M125.3,33.3l-1.5,1.7l-1.3-1.1L125.3,33.3z M122.6,36.7c0,0.1,0.1,0.2,0.2,0.3c0.1,0.1,0.2,0.1,0.4,0.1
					c0.1,0,0.3-0.1,0.4-0.3l0.5-0.6l0.2,0.2c0.2,0.1,0.3,0.2,0.4,0.2s0.2,0,0.3-0.2c0.1-0.1,0.2-0.3,0.1-0.4
					c-0.1-0.1-0.2-0.2-0.3-0.4l-0.1-0.1l2-2.3c0.3-0.3,0.3-0.6,0-0.9c-0.1-0.1-0.2-0.1-0.3-0.1c-0.1,0-0.3,0-0.5,0.1l-3.4,0.8
					c-0.1,0-0.2,0-0.2,0.1h-0.2l-0.3,0.2l-0.1,0.1c-0.1,0.1-0.2,0.3-0.2,0.5s0.1,0.3,0.3,0.5l1.5,1.3l-0.5,0.6
					C122.7,36.4,122.6,36.5,122.6,36.7z"/>
			</g>
		</g>
	</g>
</g>
</svg>
