<?xml version="1.0" encoding="utf-8"?>
<!-- Generator: Adobe Illustrator 25.2.1, SVG Export Plug-In . SVG Version: 6.00 Build 0)  -->
<svg version="1.1" id="Layer_1" xmlns="http://www.w3.org/2000/svg" xmlns:xlink="http://www.w3.org/1999/xlink" x="0px" y="0px"
	 viewBox="0 0 150 86.3" style="enable-background:new 0 0 150 86.3;" xml:space="preserve">
<style type="text/css">
	.st0{clip-path:url(#SVGID_4_);fill:#EC1E24;}
	.st1{clip-path:url(#SVGID_4_);}
	.st2{fill:#FFFFFF;}
</style>
<g>
	<defs>
		<path id="SVGID_1_" d="M-769.9-208.1c13,0,353.7,367.4,353.7,367.4v-463.4l-353.7-9.8V-208.1z"/>
	</defs>
	<clipPath id="SVGID_2_">
		<use xlink:href="#SVGID_1_"  style="overflow:visible;"/>
	</clipPath>
</g>
<g>
	<defs>
		<path id="SVGID_3_" d="M140.4,86.3H9.6C4.3,86.3,0,82,0,76.7L0,9.6C0,4.3,4.3,0,9.6,0l130.8,0c5.3,0,9.6,4.3,9.6,9.6v67.1
			C150,82,145.7,86.3,140.4,86.3z"/>
	</defs>
	<clipPath id="SVGID_4_">
		<use xlink:href="#SVGID_3_"  style="overflow:visible;"/>
	</clipPath>
	<path class="st0" d="M173.3,42.2c0.1,0.1,0.2,0.1,0.3,0.1C174.9,41.5,174.8,41.5,173.3,42.2 M150.9,50.2c0.1,0,0.2,0,0.3-0.1
		C152.4,49.5,152.3,49.5,150.9,50.2 M154.5,56.9c0.1,0.1,0.2,0.1,0.4,0.1C156,56.3,155.9,56.3,154.5,56.9 M150.4,51.9
		c0.1,0,0.2,0,0.2,0C151.5,50.9,151.4,50.9,150.4,51.9 M167.7,38.1c1.2-0.7,1.1-0.7-0.3,0C167.5,38.2,167.6,38.2,167.7,38.1
		 M165.7,36.5c0.5,0.4,0.7,0.4,0.8,0l0.2-0.8C165,34.1,164.6,34.4,165.7,36.5 M167.9,42.9l0.6,0.2c-0.1-1.6-0.5-1.8-1.2-0.6
		C167.4,42.7,167.6,42.8,167.9,42.9 M166.5,43.7c1.6-0.4,1.5-0.4-0.3,0C166.3,43.7,166.4,43.7,166.5,43.7 M208.6,4.5
		c-0.1,0.1-0.1,0.2-0.2,0.3l0.2,0.1c0-0.2,0.1-0.3,0.1-0.4L208.6,4.5 M178.4,31.6c-1.1-0.9-1.9-1-2.4-0.2c0.5,0.2,0.9,0.4,1.5,0.6
		l0.1-0.2c2.7,1.3,3.1,1.4,1.2,0.2c-0.1,0-0.2-0.1-0.3-0.2C178.4,31.7,178.5,31.7,178.4,31.6 M173.1,28c1.3-0.6,1.2-0.6-0.3,0
		C172.9,28,173,28,173.1,28 M172.1,30.3c0.8-1.3,0.4-1.4-1.4-0.3C171.5,30.5,172,30.6,172.1,30.3 M161.3,31.3
		c0.5,0.2,0.7,0.2,0.7,0.2C163.2,30.2,163,30.1,161.3,31.3 M191.5,6.2c0.1,0.1,0.2,0.1,0.2,0C193,5.6,193,5.6,191.5,6.2 M194.3,6.4
		c0.9,0,1.7-0.1,2.4-0.3l0.5-0.1C197.1,4.2,196.1,4.3,194.3,6.4 M198.7,7.8c0.1,0,0.2,0,0.3,0C200.5,6.9,200.4,6.9,198.7,7.8
		 M106.7,8.2c0,0.1,0,0.2,0,0.2c1,1.5,1.7,3,2.1,4.6c0.1,0.1,0.2,0.1,0.3,0.2c-0.1,0.1-0.1,0.2,0,0.3c0.1,0.4,0.3,0.8,0.5,1.1
		c0.1,0.1,0.2,0.1,0.3,0.2c0.1,0.1,0.2,0.1,0.1,0.2c0,0.5,0.1,0.9,0.4,1.3c1.4,0.6,1.5,0.2,0.2-1.4c0-0.1-0.1-0.1-0.2-0.2
		c-0.3-0.5-0.5-0.9-0.7-1.3c0-0.1-0.1-0.1-0.2-0.2c0.1-0.1,0.1-0.2,0.1-0.3C108.8,11.1,107.9,9.6,106.7,8.2 M106,7.8
		c0.8-0.2,0.8-1.2,0.1-2.7c-0.2-0.3-0.5-0.4-0.9-0.3C104.2,5,104.5,6,106,7.8 M102-12c0.7,0.6,1.2,0.7,1.7,0.5
		C103.7-13.1,103.2-13.3,102-12 M143.3,45.7c0.2-1.3,0.1-1.4-0.2-0.1L143.3,45.7 M139.2,45.6l0.7,0.3
		C138.3,43.5,138,43.4,139.2,45.6 M132,46.3c0.1-0.1,0.1-0.1,0.1-0.2c-2-2.7-2.2-2.6-0.6,0.3c0.1,0.1,0.2,0.1,0.3,0.2
		c0,0.1,0,0.2,0,0.2c0.3,0.4,0.5,0.8,0.5,1.2c0.6-0.2,0.6-0.8-0.1-1.5C132.2,46.4,132.1,46.4,132,46.3 M131.3,42.3L132,44
		c0.6,0.2,1.1,0.1,1.4-0.4c0.1-0.1,0.2-0.2,0.2-0.3c0.1,0.1,0.1,0.1,0.1,0c1-1,0.8-1.1-0.5-0.2C132.6,42.6,132,42.3,131.3,42.3
		 M123.7,57.3l0.1,0.1C124.1,55.5,124.1,55.5,123.7,57.3 M124.9,62.6c0.3-2.2,0.2-2.2-0.1-0.1L124.9,62.6 M109.1,60.6
		c2.1-0.5,2-0.5-0.4-0.1C108.9,60.5,109,60.6,109.1,60.6 M103,46.5l0.1,0.1C103.4,44.2,103.3,44.2,103,46.5 M111.8,30.7l0.1,0.1
		C112,29.5,112,29.5,111.8,30.7 M79.2,30.3l0.6,0.2c0.4-0.8-0.1-1.1-1.6-0.7C78.5,29.9,78.9,30.1,79.2,30.3 M69.8,40.7
		c0.1,0.1,0.2,0.1,0.4,0.1C71.7,40.2,71.6,40.1,69.8,40.7 M185.7,23.6c-0.8-0.5-1.7-0.2-2.6,0.9c0.7,0.3,1.3,0.6,1.9,0.6
		c0.5,0,1-0.1,1.4-0.3c0.2-0.1,0.3-0.2,0.3-0.4C186.4,24.1,186.1,23.8,185.7,23.6 M165.5,21.2c0.2-0.1,0.3-0.2,0.5-0.2
		c1.6-0.8,1.6-0.8-0.1,0c-0.1,0.1-0.3,0.2-0.5,0.3C165.4,21.3,165.5,21.2,165.5,21.2 M129.7-6.3c0.2-0.4,0.4-0.6,0.5-0.8l0-0.1
		c-0.1,0.2-0.3,0.5-0.7,0.9l0.1,0.1l0.1,0C129.7-6.2,129.7-6.2,129.7-6.3 M148.8,20.8c1.3-0.6,1.2-0.7-0.2-0.1
		C148.7,20.8,148.7,20.8,148.8,20.8 M147.6,21.9c0.1,0,0.2,0.1,0.3,0.1c2.3,0.5,4.6,0.5,6.7,0.2c-0.1,0-0.2,0-0.3,0
		C151.9,21.7,149.7,21.7,147.6,21.9 M123.3-11.2c-0.1,0.1-0.1,0.2,0,0.3c0.1,0.7,0.1,1.4,0,2.1c0.4-0.2,0.8-0.8,1.1-1.8
		c0-0.1,0-0.3,0.1-0.3c0.6-0.8,0.5-1.3-0.4-1.5c0,0-0.1,0-0.1,0.1c-0.2-0.3-0.2-0.7,0-1.1c0.1-0.2,0.2-0.4,0.1-0.5
		c0.1-0.4,0-0.6-0.3-0.5c-0.1,0-0.2,0-0.3,0.1l0,0c0,0-0.1,0.1-0.1,0.1c-0.3,0.3-0.5,1.2-0.3,2.7c0.1,0.1,0.2,0.1,0.3,0.2
		C123.3-11.5,123.3-11.4,123.3-11.2 M172.1,19.5c0.1,0.1,0.2,0.1,0.3,0C175.1,18.8,175,18.8,172.1,19.5 M152.7,11.3
		c0.1,0,0.2,0,0.2,0.1C155,9.7,154.9,9.7,152.7,11.3 M148.4,5.7c-0.9-0.6-1.7-0.8-2.4-0.4c-1.3,0.8-1.4,1.6-0.3,2.4
		c1.3,0.9,1.5,1.9,0.6,2.7c0.1,0,0.2,0,0.2,0C149.7,9.3,150.3,7.7,148.4,5.7 M148.6,3.1c0.9-1.6,0.7-1.7-0.5-0.2L148.6,3.1
		 M143.4-0.3c0.1,0.1,0.2,0.1,0.2,0.1C144.9-0.9,144.8-0.9,143.4-0.3 M141.4,9.2l0.6,0.2C142.1,8,141.9,7.9,141.4,9.2 M123.3-5
		l0.2,0.1C123.9-8.1,123.8-8.1,123.3-5 M119.7-4.4c0.1,0.1,0.2,0.1,0.3,0C121.2-5.1,121.1-5.1,119.7-4.4 M125.1,2.3
		c0-0.1,0-0.2,0.1-0.3c0.1,0.1,0.2,0.1,0.3,0.2c0.1,0.1,0.2,0.2,0.2,0.3c0,0,0,0.1-0.1,0.2c3.1,1.4,4.4,0.6,3.7-2.4
		c0-0.2-0.3-0.5-0.8-0.7c-1.1-0.4-2-0.1-2.6,0.9c-0.1,0-0.3-0.1-0.4,0c-0.2,0-0.4,0-0.5,0.1c-0.1-0.1-0.2-0.1-0.3-0.2
		c0-0.5-0.1-1-0.2-1.5c0,0-0.1-0.1-0.2-0.1c0.2-0.9,0.1-1.7-0.4-2.3l-0.3-0.4c-0.7,0.5-0.7,1.3-0.1,2.7c0.1,0,0.3,0.1,0.3,0.2
		c-0.1,0.1-0.1,0.2-0.1,0.3c0.2,1.6,0.5,3.1,0.8,4.6C125.6,3.9,125.7,3.4,125.1,2.3 M114-1.1l0.2,0.1C115.4-3.3,115.3-3.4,114-1.1
		 M113.2-6.5c-0.1-0.1-0.2-0.1-0.4-0.1c-4.6-1.7-6.2-0.6-4.8,3.4c0.1,0,0.2,0.1,0.3,0.2C111.6-2,113.2-3.2,113.2-6.5 M114.7-4.2
		c0.7-1.4,0.7-1.4-0.1,0L114.7-4.2 M136.9,49.9c0.5,0.2,0.9,0.4,1.5,0.5c1.2,0.3,1.6-0.1,1.1-1.1c-0.3-0.7-0.6-1.1-0.9-1.4
		c-0.5-0.6-1-0.4-1.3,0.5C137.1,48.7,137,49.2,136.9,49.9 M133.6,49l-0.3-0.3c0,0.7,0.2,1.7,0.5,2.9c0.1,0.4,0.2,0.7,0.3,1.1
		c0.1,0,0.2,0,0.2,0c0.5-0.4,0.5-1.1,0.1-2.1C134.3,50.2,134,49.6,133.6,49 M109.1,32.5c0.3,0.2,0.5,0.2,0.6,0.2
		c0.2-0.2,0.4-0.5,0.5-0.6c0.9-1.1,0.7-1.1-0.4-0.1C109.6,32.1,109.3,32.3,109.1,32.5 M90,39.8c-0.1-0.1-0.3-0.1-0.4-0.2
		c-1.4-0.4-2.6-0.2-3.6,0.5c1.5,0.4,2.9,0.4,4.1,0c0.1,0,0.2-0.1,0.3-0.1c1.2,0,2.4,0.1,3.6,0.3c0.1,0,0.2,0.1,0.3,0.1
		c0,0.1-0.1,0.1-0.1,0.2c-4.3,0.1-7.9,2.2-10.8,6.1c1.6,0.8,2.9,1,3.9,0.6c0.1,0,0.2-0.1,0.3-0.1c0.1,0,0.2-0.1,0.2-0.2
		c-0.2-1.1,0-2,0.6-2.9c0.5-0.8,1.4-1.4,2.6-2c0.1,0,0.2,0,0.3,0c1.2,0.1,2.4,0,3.5-0.1c0.1,0,0.2,0.1,0.3,0.1
		c0.8-0.1,1.5-0.2,2.2-0.2c0.1,0,0.1-0.1,0.1-0.2c0.4,0.2,0.7,0.3,1.1,0.4c0.1,0,0.1-0.1,0.1-0.2c0.7,0.4,1.2,0.6,1.6,0.3
		c0.1-0.1,0.1-0.1,0.2-0.2c0.1,0,0.1,0,0.2,0.1c0.1,0,0.3,0.1,0.3,0.2c0.1,0,0.2,0.1,0.3,0.1l0.1,0c0.4,0.1,0.4,0.4,0,0.8l-0.1-0.1
		c-0.4,0.6-1,1.1-1.8,1.5c-0.1-0.1-0.2-0.1-0.4-0.2c-0.6-0.2-1,0.1-1.3,0.9c0.8,0.7,1.4,0.7,1.7,0.1c0-0.1,0.1-0.2,0.2-0.3
		c0.4-0.3,0.8-0.4,1.3-0.3c0,0,0.1,0,0.1-0.1c1.1,0,2.2-0.1,3.2-0.5c0.1-0.1,0.2-0.1,0.2-0.2c0.5,0,1-0.2,1.4-0.4
		c0.3-0.2,0.7-0.5,0.9-0.8c0.1-0.1,0.2-0.2,0.2-0.3c2,0.1,3.8-0.5,5.4-1.7c0.2-0.1,0.3-0.3,0.5-0.4c0.1,0,0.2,0,0.3,0.1
		c1.8,1.1,3.3,1.6,4.6,1.6c0.2,0,0.3,0,0.4,0c1.6,2.4,3.7,3.1,6.1,2.4c0.1-0.1,0.2-0.1,0.3,0c0,0.1-0.1,0.2-0.1,0.2
		c-1.5,0.2-1.6,0.9-0.3,2.3c-0.1-0.1-0.2-0.1-0.4-0.1c-0.7-0.2-1,0.1-0.8,0.7c0.5,0.4,0.9,0.5,1.2,0.2c0-0.1,0.1-0.2,0.2-0.3
		c0-0.1,0.1-0.2,0.2-0.2c1.3-0.7,1.9,0,1.7,2.3c0.1,0.1,0.2,0.1,0.3,0.2c-0.2,0.4-0.4,0.6-0.5,0.6c-2.8-0.9-4.1,0.1-3.9,2.8
		c4.1,1.4,5.7,0.2,4.7-3.5c0-0.1-0.1-0.1-0.2-0.2c0.2-1.5,0.1-2.9-0.2-4.3c0-0.1,0-0.2,0-0.3c0.1-0.1,0.1-0.2,0.2-0.3
		c0.8-0.1,1.5-0.5,2-1.3c0.1-0.1,0.1-0.2,0.2-0.3l0.1-0.2c0.4,0.1,0.5,0.4,0.4,0.8c0.7,0.2,0.9-0.3,0.4-1.4c0,0,0-0.1,0.1-0.2
		c1.8-0.3,3-0.7,3.6-1.4c0.1-0.1,0.2-0.2,0.2-0.3c1.7,1,2.6,1.1,2.7,0.6c0-0.1,0.1-0.2,0.2-0.3c0.1,0.1,0.2,0.1,0.3,0.2
		c1,0.6,1.7,1.2,2.3,1.9c0.1,0,0.3,0.1,0.3,0.2c0.1,0,0.3,0.1,0.4,0.1c0.5,0.1,0.7,0.4,0.5,0.7c2,0.8,1.9,0.5-0.3-1
		c-0.1-0.1-0.2-0.1-0.3-0.2c0.1-1.2,1.6-1,4.4,0.7c0,0,0.2,0,0.5-0.1c0.5-0.1,0.5-0.3,0.1-0.5c0.1-0.1,0.1-0.2,0.2-0.3
		c0.1-0.1,0.1-0.2,0.2-0.3c0.7-0.1,0.7-0.4,0.1-1c-0.1-0.1-0.2-0.1-0.3-0.2c0.1-0.1,0.1-0.1,0.2-0.1c2.2,0.1,3.5,1,4.1,2.6
		c0.1,0,0.3,0.1,0.3,0.2c0,0.1-0.1,0.2-0.1,0.3c0,0.9-0.8,1.9-2.5,3.1c0.6,0.3,1.3,0.4,1.8,0.4c0.1,0,0.1-0.1,0.2-0.2
		c0.1,0,0.2,0.1,0.2,0.2c0,0.1,0,0.2,0,0.3c1.4,0.4,1.6,0.2,0.7-0.7c-0.1-0.1-0.2-0.2-0.2-0.2c1.2,0.3,1.8-0.1,1.7-1.2
		c-0.2-1.2,0.2-2.5,1.1-4c0.2-1.5,0.9-2.5,2.1-3l-0.1-0.1c-0.8-0.5-1.4-0.3-2,0.7c-0.1-0.1-0.2-0.1-0.3,0c-0.2,0-0.5,0.1-0.7,0.3
		c-0.1,0-0.2-0.1-0.3-0.1c-0.7,0-1.3,0-1.9,0.2c-0.1,0-0.2-0.1-0.3-0.2c-0.5-0.3-1.1-0.5-1.7-0.8c0-0.2,0-0.5-0.1-0.7
		c0-0.1-0.1-0.1-0.2-0.2c-0.1-1.8,1.2-3,4-3.6c2.1-0.4,4.2-0.9,6.3-1.4c1.2,0.4,2.4,0.9,3.6,1.4c0.1,0,0.2,0.1,0.4,0.1l0,0.1
		c0.8,0.4,1.1,0.9,0.9,1.5c2.8,0.5,2.7,0-0.2-1.3c-0.1,0-0.3-0.1-0.3-0.2c-0.8-1.4-2.2-2.4-4.3-3.1l0-0.1c1.4-0.1,2.5-0.3,3.5-0.6
		l-0.1,0c-0.2-0.6-0.1-0.9,0.5-0.9c0.1,0,0.2,0,0.4,0.1c-0.1,0.1-0.1,0.2-0.2,0.3c0.7,0.4,1.3,0.6,1.8,0.4c0.1-0.1,0.2-0.1,0.3-0.2
		c0.6,0.1,1.3,0.2,1.9,0.3c0.1,0,0.3,0.1,0.4,0.1c2.2,0.6,3.7,0.6,4.5-0.2l-0.2-0.1c-1.3-1.6-2.6-1.7-4-0.4c0,0.1-0.1,0.2-0.1,0.3
		c-0.1,0-0.3-0.1-0.4-0.1c-0.5-0.1-1.1-0.3-1.8-0.6c-0.1,0-0.2-0.1-0.3-0.1c-0.3-0.7-0.7-0.9-1.4-0.6c-0.1-0.1-0.2-0.1-0.3-0.2
		c-0.1-0.1-0.2-0.1-0.3-0.2c0-0.1,0.1-0.2,0.2-0.3c1.2-1,2.2-1.2,3-0.7c0.5,0.3,1.1,0.3,1.8,0.1c2.8-1.2,5.8-1.9,8.9-2
		c0.1-0.2,0.2-0.5,0.3-0.7c0.9-1.4,2.1-2.5,3.8-3.2c0.1,0,0.1-0.1,0.1-0.2c2.6,0.3,5,0.4,7.3,0.3c0.6-0.1,1.3-0.1,1.9-0.2
		c0.4,0,0.7-0.1,1.1-0.2c0-0.8-0.6-1.5-1.9-2.1c0,0-0.1,0-0.1,0c-0.5-0.2-1-0.5-1.6-0.8c-2.7-0.3-4.9-0.1-6.7,0.7l0,0.1
		c-0.2,0.6-0.7,1.1-1.4,1.6c-0.1-0.1-0.2-0.1-0.3-0.2c-0.5-0.2-0.9,0-1.2,0.6c-0.1-0.1-0.2-0.1-0.2-0.1c-0.1,0-0.2,0.1-0.3,0.2
		c-0.1-0.1-0.2-0.1-0.3-0.1c-1.4,0.1-2.8,0.3-4.1,0.6c-0.1,0-0.3-0.1-0.4-0.1c-0.9,0.1-1.8,0.4-2.6,0.9c-0.1,0-0.2,0-0.2,0
		c0,0-0.1,0-0.1,0c-2.2,1.1-4.5,1.8-6.9,2.3c-0.1-0.1-0.2-0.1-0.3-0.1c-5.3,0.4-10.6,0.9-15.8,1.5c0.3-1.8,0.1-3.5-0.6-4.8
		c0-0.1-0.1-0.1-0.2-0.2c0.3-2.1,0-4-0.9-5.8c-0.1-0.1-0.2-0.1-0.3-0.1c-0.1-0.2-0.1-0.3-0.1-0.5c0-0.1,0.1-0.2,0.1-0.3
		c0.1,0,0.2,0,0.2,0c0.3-0.3,0.6-0.5,1-0.8c1-0.6,2.2-1,3.7-1.2c0-0.2-0.1-0.4-0.1-0.3c-1.3-0.2-2.7,0.2-4.3,1.4
		c-0.3,0.2-0.5,0.4-0.8,0.7c-0.1-0.1-0.2-0.2-0.2-0.2c-0.6-1.2-1.2-1.5-1.8-0.8c-0.1-0.1-0.2-0.1-0.3-0.2c-0.1-0.1-0.1-0.1-0.2-0.2
		c-0.1-0.8-0.8-0.9-2-0.5c-0.1,0-0.2-0.1-0.3-0.1c-1.5,0-3-0.2-4.6-0.4c0.4-0.6,0.8-1.2,1.2-1.8c0.6-0.8,1.3-1.4,2.1-2
		c0.1-0.1,0.2-0.2,0.2-0.3c-0.9-2-2.5-2.2-4.8-0.9c-0.1,0-0.1,0-0.2,0c-0.1-0.1-0.2-0.1-0.3-0.2c0-1.1-0.1-1.4-0.3-1
		c-0.1,0.1-0.1,0.2-0.2,0.3c-0.1-0.1-0.2-0.1-0.4-0.1c-0.9-0.3-1.1,0-0.5,0.9c0.1,0,0.2,0.1,0.3,0.2c0.1,0,0.2,0.1,0.3,0.2
		c0,0.1-0.1,0.2-0.2,0.3c-0.3,0.3-0.6,0.7-0.9,1c-1,1.2-2,2.5-2.9,4.1c-0.1-1-0.4-2-0.8-3c0-0.1-0.1-0.1-0.2-0.2
		c0.1-0.1,0.1-0.2,0.1-0.3c0.1-0.6,0.1-1.3,0-1.9c-0.1-0.9-0.2-1.8-0.5-2.6c0,0.1-0.1,0.3-0.1,0.4c0,0.7,0,1.4,0,2
		c0,0.9,0,1.9,0,2.9c0.1,0.1,0.2,0.1,0.3,0.2c-0.1,0.1-0.1,0.2-0.1,0.2c0.4,0.7,0.5,1.5,0.4,2.3c0.1,0.1,0.2,0.1,0.3,0.2
		c0.4,1.4,0,1.8-1.2,1.4l-0.1,0c-1.1-0.6-2.2-0.7-3.1-0.4c-0.6-3.2-2.6-5.6-6-7.2c-0.1,0-0.2-0.1-0.3-0.2c0-0.1,0-0.2,0-0.3
		c-1.1-2.6-1.3-2.6-0.7-0.1c0.1,0.1,0.2,0.1,0.3,0.2c-0.1,0.1-0.1,0.2-0.2,0.3c-0.1,0.1-0.1,0.2-0.2,0.3c-0.4,0.7-1,0.9-1.7,0.7
		C113.1,7,113,7,113,7c-0.6,0.1-1.2-0.1-2-0.6c-0.7-1.6-1.6-3.1-2.6-4.5l0,0c0-0.1,0-0.1,0.1-0.2C107,0.9,106,0,105.6-1
		c0-0.1,0-0.2,0-0.3c-0.3-0.3-0.7-0.6-1.1-0.9c-0.2-0.1-0.5-0.3-0.7-0.4c-0.1,0-0.3-0.1-0.3-0.2c-0.7-1.8-1.8-3.4-3.3-5
		c-0.1-0.1-0.2-0.2-0.3-0.2l0.1-0.1c-1.1-0.8-2-1.2-2.8-1.2c-0.3,1.1,0.2,2.1,1.3,3.1c0.9,0.6,1.6,1.4,2.3,2.4
		c1.2,1.7,2.5,3.2,4,4.8c2.2,2.2,3.5,4.2,4,5.9c0,0.1-0.1,0.1-0.1,0.2c2.5,3.1,4.3,6.3,5.5,9.7c0.1,0,0.3,0.1,0.3,0.2
		c2.2,1.1,2.4,2,0.7,2.7l-0.1,0.1c-2.7-1-5.2-0.8-7.6,0.7c0,0.1,0,0.2,0,0.2c0.9,1.2,1.8,1.3,2.9,0c0.1,1.4,0.9,2.5,2.2,3.3
		c0.8,0.6,1.1,1,0.9,1.4c-0.4,1-1.1,1.9-2,2.8c0.1,0.1,0.2,0.1,0.3,0.2c-0.1,0.1-0.1,0.1-0.2,0.2c-0.6,0.1-1.2,0.4-1.7,0.9
		c0.7,0,1.3-0.1,1.8-0.4c0.1-0.1,0.1-0.1,0.2-0.2c0.5,0.2,0.8,0.3,1.1,0.1c0.4-0.2,0.7-0.2,0.9,0c2,1.3,2.7,3.7,2,6.9
		c-0.1-0.1-0.2-0.2-0.3-0.2c-0.9-0.8-1.9-1.3-3-1.4c-1.3-0.2-2.6,0.2-4.1,1c-0.1,0-0.3-0.1-0.4-0.1c-1.4-0.2-2.9-0.4-4.3-0.6
		c-0.1-0.1-0.2-0.1-0.4-0.1c-1-0.2-1.9-0.3-2.8-0.3c-0.1,0-0.2-0.1-0.3-0.2c-0.9-0.6-1.9-0.3-3,0.8c-0.1,0-0.2,0-0.2,0
		c-0.6,0.3-1.1,0.6-1.6,1c1,0.5,1.7,0.3,2.1-0.5c0-0.1,0-0.2,0.1-0.3c0.9-0.1,1.7-0.3,2.6-0.6c0.1,0,0.2,0,0.3,0
		c1.3,0.5,2.5,0.8,3.7,0.9c0,0,0.1,0,0.2-0.2c1.4,0.6,2.6,0.8,3.8,0.8c0.1,0,0.2,0,0.4,0c0.1,0.1,0.2,0.1,0.3,0.2
		c0.7,0.3,0.8,0.9,0.1,1.6c-0.1,0.1-0.2,0.2-0.2,0.3c-0.7,0.3-1.3,0.5-1.9,0.6c-0.1,0-0.3,0-0.3,0c-0.8,0.1-1.6,0.1-2.4,0.2
		c-0.1-0.1-0.2-0.1-0.2-0.1c-0.5,0.4-1.1,0.3-1.8-0.2c-0.1-0.1-0.2-0.1-0.3-0.1c-1.3,0-2.6,0.1-3.8,0.4c-0.1,0-0.2-0.1-0.3-0.2
		c-0.4-0.1-0.7,0-1,0.3c-0.1,0-0.2-0.1-0.3-0.1c-0.7,0-1.4,0.2-2.1,0.5c-0.1,0-0.2-0.1-0.3-0.1C92.6,39.3,91.2,39.5,90,39.8
		 M153.4,60.5c1.4-0.1,1.3-0.1-0.4-0.1C153.2,60.5,153.3,60.5,153.4,60.5 M139.6,53.8c0.8,0.1,0.7-0.3-0.3-1.3
		C138.1,51.5,138.2,51.9,139.6,53.8 M141.3,52c0.1,0.1,0.2,0.1,0.3,0.1C142.8,51.5,142.7,51.4,141.3,52 M147.7,57.1l0.1,0
		C147.4,55.2,147.4,55.1,147.7,57.1 M147.4,54.2c0.1,0,0.2,0,0.3,0C148.8,53.6,148.7,53.6,147.4,54.2 M145.7,63
		c0.1,0.1,0.2,0.1,0.2,0.1C147.2,62.4,147.2,62.4,145.7,63 M139,60.9c1.2-0.7,1.1-0.7-0.2-0.1C138.9,60.9,139,61,139,60.9
		 M135.2,55.6l0.2,0.1C135.7,53.8,135.6,53.8,135.2,55.6 M84.5,58l0.6-0.1C85.6,56.6,85.4,56.7,84.5,58 M83,49.1
		c0.7,0.3,1.2,0.2,1.4-0.4C85.2,47.1,84.7,47.2,83,49.1 M84.6,51.4c0.7-1.4,0.3-1.3-1.3,0.2C84,51.9,84.4,51.8,84.6,51.4 M82,50.2
		c0.7-1.6,0.2-1.6-1.4,0.1C81.3,50.7,81.8,50.7,82,50.2 M103.5,31.7c0.1,0,0.2,0,0.3,0C106.8,30.2,106.7,30.2,103.5,31.7 M84.1,34.6
		c0.1,0.1,0.2,0.1,0.3,0.1C85.7,34.1,85.7,34,84.1,34.6z"/>
	<g class="st1">
		<path class="st2" d="M141.1,28.6L141.1,28.6L141.1,28.6L141.1,28.6L141.1,28.6z M140.4,28.7L140.4,28.7L140.4,28.7z M140.9,31.8
			L140.9,31.8c-0.1,0-0.1,0-0.2-0.1l0,0l0,0c0,0,0,0-0.1-0.1l0,0c0,0,0-0.1-0.1-0.1l0,0l-0.1-0.1l-0.1,0c-0.1,0-0.2,0.2-0.4,0.4l0,0
			c0,0.1,0,0.2,0,0.2c0,0,0.2,0.2,0.5,0.5c0.1,0-0.1,0.2-0.4,0.6l0,0l0,0l0,0c-0.1,0.1-0.1,0.1-0.3,0.1c0,0-0.2,0-0.4-0.2
			c0-0.1-0.1-0.1,0-0.1c-0.1-0.1-0.2-0.3-0.2-0.5c0,0,0-0.2,0.1-0.4l0,0c0-0.1,0.1-0.1,0.1-0.1l0,0c0,0,0,0,0-0.1
			c0.1-0.1,0.2-0.2,0.2-0.2l0,0l0,0l0,0l0,0l0-0.1c0,0,0,0,0,0l0-0.1l0,0l0,0c0,0,0,0,0,0l0,0c0.1-0.1,0.1-0.2,0.2-0.2l0,0l0,0l0,0
			l0.3-0.3l0-0.1l0,0l0.1-0.2l0,0l0,0l0,0c0,0,0,0,0.1-0.1l0,0c0.1-0.1,0.1-0.2,0.2-0.2c0.1-0.1,0.3-0.3,0.6-0.5
			c0.1-0.1,0.3-0.1,0.7-0.1c0.1,0,0.1,0.1,0.2,0.2c0,0,0,0.2,0,0.4c0,0.1-0.1,0.2-0.3,0.5l0,0c0,0-0.1,0-0.1,0.1l-0.1,0.1
			c0,0,0,0.1,0,0.2c0,0,0.1,0.1,0.2,0.3c0.1,0.1,0.3,0.1,0.3,0.1c0.1,0,0.2,0,0.2-0.1l0,0l0,0l0,0l0,0l0,0l0,0l0,0
			c0,0,0.1,0,0.2-0.1c0,0,0,0,0,0l0,0l0,0l0.1-0.1l0,0l0,0c0,0,0.1-0.1,0.1-0.1l0,0c0.1-0.1,0.2-0.3,0.3-0.6c0-0.1,0.1-0.1,0-0.2
			c0-0.2,0-0.3-0.1-0.5c-0.1-0.1-0.1-0.1-0.1-0.1c0-0.1-0.2-0.3-0.5-0.5c0,0-0.1-0.1-0.3-0.1c-0.2,0-0.3-0.1-0.5-0.1l-0.3,0l-0.1,0
			l-0.6,0.2l0,0c-0.1,0-0.2,0.1-0.2,0.1l0,0c-0.1,0.1-0.3,0.1-0.4,0.3l0,0c-0.1,0-0.1,0.1-0.2,0.2l0,0c0,0-0.1,0-0.1,0.1
			c0,0,0,0.1,0,0.1l0,0l-0.1,0.1l0,0.1c-0.1,0-0.2,0.1-0.3,0.2l-0.1,0.1l0,0c0,0,0,0-0.1,0l0,0c0,0-0.1,0.1-0.2,0.2l0,0l0,0
			l-0.1,0.1c0,0,0,0-0.1,0c0,0.1,0,0.1,0,0.1l0,0l0,0l0,0c0,0,0,0.1-0.1,0.1c0,0,0,0-0.1,0.1c0,0,0,0,0,0l0,0l0,0
			c0,0.1-0.1,0.1-0.1,0.1l0,0.1l0,0l0,0c-0.2,0.3-0.3,0.4-0.3,0.4C138.1,32,138,32,138,32c0,0,0,0.1,0,0.2l-0.1,0.1
			c0,0,0,0.1-0.1,0.2c-0.1,0.1-0.1,0.3,0,0.6c0,0.2,0.2,0.5,0.4,0.8l0,0l0,0c0,0,0.1,0.1,0.3,0.2c0,0,0,0,0.1,0l0.1,0.1
			c0.1,0.1,0.2,0.1,0.2,0.1c0.2,0.1,0.4,0.2,0.4,0.2c0,0,0.1,0,0.3,0c0.2,0,0.3-0.1,0.3-0.1c0.1,0,0.1-0.1,0.3-0.1l0,0
			c0,0,0,0,0.1,0l0,0l0,0l0-0.1c0-0.1,0.1-0.1,0.2-0.2l0-0.1l0.1,0l0,0l0,0c0,0,0,0,0,0l0,0l0,0l0.1-0.1c0,0,0,0,0.1-0.1
			c0,0,0,0,0,0c0,0,0,0,0,0c0,0,0,0,0-0.1l0,0l0,0l0,0l0,0c0,0,0.1-0.1,0.1-0.1l0-0.1c0,0,0,0,0,0l0-0.1c0,0,0,0,0.1,0l0,0l0,0
			c0,0,0-0.1,0-0.1l0,0l0,0l0,0c0,0,0,0,0.1,0l0,0l0,0c0-0.1,0-0.2-0.1-0.3l0,0c0-0.1-0.1-0.1-0.1-0.1l0,0l0,0l0,0l0,0l0,0
			c0,0,0,0,0-0.1L140.9,31.8L140.9,31.8L140.9,31.8L140.9,31.8z M134,29.8L134,29.8L134,29.8L134,29.8C134,29.8,134,29.8,134,29.8z
			 M137.6,25.1c-0.1-0.1-0.3,0-0.6,0.4c0,0,0,0,0,0l0,0c0,0,0,0,0,0.1l-0.3,0.3l-0.3,0.4c0,0,0,0-0.1,0c0,0,0,0,0,0.1
			c-0.2,0.3-0.4,0.5-0.5,0.6l0,0l0,0l-0.1,0.1l0,0c0,0-0.1,0-0.1,0.1l0,0c0,0,0,0-0.1,0.1c0,0.1-0.1,0.1-0.1,0.1l-0.1,0.1l-0.1,0.1
			l0,0c0,0,0,0-0.1,0l-0.1,0.2c-0.1,0.2-0.2,0.3-0.3,0.3l0,0l0,0l-0.1,0.1l0,0l-0.1,0.1l0,0l-0.1,0.1l0,0c-0.1,0-0.1,0.1-0.1,0.1
			l-0.2,0.3C134,28.9,134,29,134,29c-0.3,0.4-0.4,0.6-0.4,0.7c0,0.1,0,0.2,0.1,0.3c0,0,0,0,0.1,0c0,0,0,0,0,0.1
			c0.3,0.1,0.4,0.2,0.5,0.2c0,0,0,0,0,0c0.1,0,0.1,0,0.1,0l0,0l0,0l0.2-0.2l0,0c0,0,0,0,0.1-0.1c0.1-0.2,0.2-0.3,0.3-0.4l0,0
			c0.1-0.1,0.2-0.2,0.2-0.3l0.1-0.1c0,0,0,0,0-0.1l0.1,0l0.1-0.1l0.1-0.1c0-0.1,0.1-0.1,0.1-0.2c0,0,0.1-0.1,0.1-0.1l0,0
			c0,0,0.1-0.1,0.1-0.1c0.1-0.1,0.1-0.1,0.1-0.1l0,0c-0.1,0.3-0.1,0.5-0.2,0.7c-0.1,0.5-0.2,1-0.3,1.5c0,0.4,0.1,0.7,0.1,0.8
			c0.1,0.1,0.2,0.2,0.2,0.3l0,0l0,0l0,0c0,0,0,0,0.1,0l0.1,0.1l0.1,0l0,0c0,0,0.1,0,0.1,0c0.1,0,0.2,0,0.3-0.1l0.1-0.1
			c0,0,0,0,0-0.1l0,0c0.1-0.1,0.1-0.2,0.2-0.2l0.2-0.3c0,0,0,0,0,0c0,0,0,0,0.1,0l0,0l0.2-0.2l0-0.1l0,0c0-0.1,0.1-0.1,0.1-0.1
			l0.2-0.2l0,0c0,0,0.1,0,0.2-0.1l0.1-0.1l0.1,0c0,0,0,0,0,0l0,0c0,0,0.1-0.1,0.2-0.3l0,0l0,0l0-0.1l0.1-0.1c0,0,0.1-0.1,0.2-0.1
			c0,0,0-0.1,0-0.1c0,0,0,0,0.1-0.1c0,0,0,0,0,0c0,0,0,0,0.1,0l0.1-0.2l0,0l0,0l0.2-0.3l0,0l0.1-0.1l0.1-0.1l0.1-0.1
			c0,0,0-0.1,0-0.1l0.2-0.2c0,0,0,0,0-0.1c0,0,0.1-0.1,0.1-0.1l0.1-0.1l0.1-0.1l0,0l0,0l0.1-0.1c0-0.1,0.1-0.1,0.1-0.1
			c0.1-0.1,0-0.2-0.1-0.3l0,0c0,0-0.1-0.1-0.2-0.1c0,0-0.1-0.1-0.1-0.1l0,0l0,0l0,0c-0.1-0.1-0.2-0.1-0.2-0.1
			c-0.1-0.1-0.3,0.1-0.6,0.4c-0.2,0.3-0.3,0.5-0.3,0.5c-0.5,0.7-0.8,1.1-0.8,1.1l0,0l0,0.1c0,0-0.1,0.1-0.1,0.1
			c0,0.1-0.1,0.2-0.1,0.2l-0.3,0.3l-0.1,0.1c0,0,0,0,0,0.1l0,0.1l-0.1,0.1l0,0c0,0,0-0.1,0-0.2c0.3-0.6,0.5-1,0.5-1.3
			c0.3-0.7,0.4-1.2,0.5-1.6c0-0.1,0.1-0.4,0.2-1c-0.1-0.2-0.2-0.4-0.3-0.5C137.8,25.1,137.7,25.1,137.6,25.1z M133.6,28.1
			L133.6,28.1L133.6,28.1L133.6,28.1L133.6,28.1z M135.7,23.8c-0.1,0-0.1,0.1-0.2,0.1l0,0c0,0-0.1,0.1-0.1,0.2l-0.1,0.2
			c0,0-0.1,0.1-0.1,0.1l0,0l0,0l0,0l0,0c-0.1,0.1-0.1,0.2-0.2,0.3c0,0,0,0,0,0c0,0-0.1,0.1-0.2,0.2c0,0,0,0.1,0,0.1
			c0,0-0.1,0.1-0.2,0.3c0,0,0,0,0,0c0,0,0,0-0.1,0.1l0,0l0,0.1l0,0l0,0c0,0,0,0,0,0c0,0,0,0,0,0.1l0,0l-0.1,0.1l0,0l-0.4,0.4
			c0,0,0,0,0,0l-0.1,0l0,0l0,0c0,0,0,0-0.1,0.1c0,0,0,0.1-0.1,0.1l-0.1,0.1l0,0.1c-0.1,0.1-0.2,0.1-0.2,0.1c0,0.1-0.1,0.1-0.1,0.2
			c0,0,0,0,0,0l0,0.1c0,0-0.1,0.1-0.1,0.1l0,0c0,0,0,0,0,0l0,0.1c0,0-0.1,0.1-0.1,0.1l-0.1,0.1c-0.1,0.1-0.1,0.1-0.1,0.2
			c0,0,0,0,0,0c0,0,0,0,0,0.1c0,0,0,0,0,0l0,0l0,0c0,0,0,0-0.1,0c0,0,0,0.1-0.1,0.1c0,0-0.1,0.1-0.1,0.1c0,0,0,0,0,0.1
			c0,0-0.1,0.1-0.1,0.1l0,0l0,0c-0.2,0.2-0.3,0.3-0.3,0.5l0,0c0,0,0,0.1,0.1,0.1c0.1,0,0.1,0.1,0.1,0.1l0.1,0.1l0,0c0,0,0,0,0.1,0
			l0,0l0,0c0,0,0.1,0,0.1,0.1c0,0.1,0.1,0.1,0.2,0.2l0,0l0,0l0,0c0,0,0.1,0,0.2-0.1c0,0,0,0,0,0c0,0,0.1-0.1,0.3-0.4l0,0
			c0,0,0.1-0.1,0.2-0.2l0,0c0.1,0,0.1-0.1,0.2-0.2l0,0l0,0l0,0l0.2-0.3l0,0l0,0l0,0c0,0,0.1-0.1,0.2-0.3l0.1-0.1l0-0.1c0,0,0,0,0,0
			l0.1-0.1l0.1,0l0,0l0,0c0,0,0,0,0-0.1l0.1-0.1l0,0c0,0,0,0,0.1-0.1l0,0l0,0c0,0,0,0,0-0.1l0.1,0l0-0.1c0,0,0,0,0.1,0l0,0l0,0l0,0
			c0,0,0,0,0-0.1l0,0c0-0.1,0.1-0.1,0.1-0.1l0,0l0.1-0.1l0,0l0,0l0.1-0.1l0,0l0,0c0,0,0,0,0-0.1c0,0,0,0,0,0l0.1-0.1l0,0
			c0,0,0.2-0.1,0.4-0.5l0,0l0,0l0-0.1l0,0l0,0c0.1-0.2,0.2-0.3,0.3-0.4c0,0,0,0,0,0c0,0,0.1,0,0.1-0.1l0.1-0.1
			c0.1-0.1,0.2-0.3,0.1-0.4l-0.1-0.2c-0.1-0.1-0.2-0.2-0.3-0.2l0,0C135.9,23.7,135.8,23.7,135.7,23.8z M131.2,27.2L131.2,27.2
			L131.2,27.2l0,0.1L131.2,27.2L131.2,27.2z M131.5,26.9L131.5,26.9L131.5,26.9L131.5,26.9L131.5,26.9c-0.1,0.1-0.1,0.2-0.2,0.3l0,0
			c0,0,0,0-0.1,0.1l0,0c0,0,0-0.1,0-0.1l0,0c0,0,0-0.1,0-0.1l0.1-0.1L131.5,26.9L131.5,26.9z M131.1,19.9c-0.1,0-0.3,0.1-0.6,0.4
			c0,0,0,0,0,0l0,0l0,0l-0.1,0.1l-0.1,0.1c0,0-0.1,0-0.1,0.1l-0.2,0.2l0,0.1c0,0,0,0,0,0c0,0-0.1,0.1-0.1,0.1c0,0-0.1,0-0.1,0.1
			c0,0,0,0.1,0,0.1l-0.1,0.1l-0.2,0.2l-0.1,0.1l0,0c-0.1,0.1-0.2,0.2-0.3,0.4c-0.2,0.2-0.3,0.3-0.4,0.4c0,0,0,0,0,0
			c-0.1,0-0.1,0.1-0.2,0.2l0,0l0,0l0,0l-0.5,0.7c-0.1,0.1-0.1,0.1-0.1,0.1l0,0c0,0,0,0-0.1,0l-0.1,0.1l-0.1,0.1c0,0,0,0-0.1,0.1l0,0
			c0,0,0,0,0,0.1c0,0,0,0-0.1,0l-0.3,0.3c-0.1,0.2-0.1,0.3,0.1,0.5c0.1,0,0.1,0.1,0.1,0.1l0,0l0,0c0,0,0,0,0,0l0,0
			c0,0,0.2,0.1,0.4,0.2c0.2-0.1,0.4-0.3,0.6-0.5l0,0l0.1-0.1l0,0l0.1-0.1l0,0l0-0.1l0,0c0,0,0-0.1,0.1-0.1l0,0c0,0,0,0,0-0.1
			l0.1-0.1c0,0,0.1-0.1,0.1-0.1c0,0,0.1-0.1,0.2-0.3c0,0,0,0,0.1-0.1l0-0.1c0,0,0,0,0.1,0l0-0.1c0,0,0,0,0.1-0.1c0,0,0,0,0-0.1
			c0,0,0,0,0,0c0,0,0,0.1-0.1,0.3l0,0l-0.2,0.5l0,0c-0.2,0.4-0.3,0.7-0.3,0.9c-0.1,0.4-0.2,0.6-0.1,0.7c-0.1,0.1,0,0.2,0.3,0.3
			c0.1,0.1,0.2,0.2,0.2,0.1c0.1,0.1,0.3,0.1,0.6-0.1c0.1-0.1,0.3-0.2,0.5-0.2c0.1-0.1,0.3-0.2,0.6-0.3l0-0.1l0,0l0.1-0.1
			c0.1-0.1,0.2-0.2,0.4-0.3l0,0l0,0c0,0,0,0.1,0,0.2c-0.1,0.1-0.2,0.2-0.2,0.2l-0.2,0.3l-0.1,0.1l0,0c-0.1,0-0.1,0.1-0.1,0.1l0,0
			c0,0,0,0.1,0,0.1c0,0,0,0-0.1,0.1c-0.2,0.3-0.3,0.5-0.4,0.6c0,0.2,0,0.4,0.2,0.5l0.1,0.1c0.1,0.1,0.3,0.2,0.3,0.2
			c0.2,0.1,0.4,0,0.5-0.1l0,0c0.1-0.1,0.1-0.1,0.1-0.1l0.1-0.1c0.1-0.1,0.1-0.2,0.2-0.3c0,0,0,0,0.1,0c0.1-0.1,0.1-0.2,0.2-0.3l0,0
			l0.1-0.1l0.1-0.1l0,0l0,0c0,0,0.1-0.1,0.1-0.1l0,0c0.1-0.1,0.1-0.2,0.1-0.2l0,0l0,0l0.1-0.1l0.1-0.1l0,0c0,0,0-0.1,0.1-0.1
			c0.1-0.1,0.1-0.1,0.1-0.1c0,0,0-0.1,0.1-0.1c0,0,0.1-0.1,0.2-0.2l0.2-0.2l0,0l0.1-0.2l0.1,0c0,0,0,0,0-0.1l0,0
			c0,0,0.1-0.1,0.1-0.2l0,0l0.1-0.2c0,0,0,0,0,0c0,0,0.1-0.1,0.1-0.2l0,0l0.2-0.3c0,0,0.1-0.1,0.3-0.3c0.2-0.3,0.3-0.4,0.3-0.4
			c0.2-0.1,0.2-0.3-0.1-0.5c0,0-0.1,0-0.1,0l0,0l-0.2-0.1l0,0c0,0-0.1,0-0.1,0c-0.2,0-0.3,0.1-0.5,0.2c-0.6,0.4-1.1,0.6-1.2,0.7
			c-0.3,0.2-0.4,0.3-0.4,0.3c0,0-0.3,0.1-0.8,0.4c-0.5,0.3-0.8,0.5-1,0.6l-0.1-0.1l0.4-0.8c0.1-0.3,0.2-0.5,0.2-0.5c0,0,0,0,0.1,0
			c0-0.1,0.1-0.2,0-0.2c0,0,0,0,0,0c0.2-0.4,0.3-0.6,0.3-0.8l0,0l0.1-0.1c0,0,0-0.1,0.1-0.2l0,0c0.2-0.5,0.3-0.8,0.3-0.9
			c0-0.1,0.1-0.2,0-0.4l-0.4-0.4c0,0,0,0-0.1,0l0,0l0,0C131.3,19.9,131.2,19.9,131.1,19.9z M127.6,18.6c0.1,0,0.3,0,0.4,0.2l0.1,0.1
			l0,0.1l0,0l0,0c0.1,0.1,0.2,0.2,0.1,0.4l0,0c-0.1,0.2-0.2,0.3-0.2,0.4l0,0c0,0,0,0.1,0,0.1l0,0l0,0l0,0l0,0
			c-0.1,0.1-0.1,0.2-0.1,0.2l0,0l0,0c0,0,0,0,0,0.1c0,0,0,0-0.1,0l0,0l0,0.1l0,0l0,0l-0.1,0.1l-0.1,0.1l0,0l0,0l0,0
			c0,0-0.1,0-0.1,0.1l0,0l0,0l-0.2,0.2l0,0l0,0c0,0,0,0,0,0l0,0l-0.3,0.3l0,0l0,0l0,0l0,0c-0.3,0.3-0.4,0.4-0.5,0.4
			c-0.2,0.2-0.4,0.1-0.7-0.1c-0.1-0.2-0.1-0.4-0.1-0.6c0.1-0.3,0.3-0.6,0.4-0.8l0,0c0,0,0,0,0,0l0,0c0-0.1,0.1-0.2,0.2-0.3l0,0
			c0.1-0.2,0.2-0.3,0.2-0.3c0,0,0,0,0,0c0,0,0,0,0-0.1l0.1-0.1l0.1,0l0,0l0,0l0,0c0,0,0,0,0-0.1c0,0,0.1-0.1,0.2-0.2l0-0.1
			c0.2-0.2,0.3-0.3,0.3-0.3l0,0C127.4,18.7,127.5,18.6,127.6,18.6z M128.3,17.5L128.3,17.5L128.3,17.5c-0.1-0.1-0.2-0.1-0.5-0.1
			c-0.2,0-0.3,0-0.4,0c-0.3,0.1-0.5,0.3-0.7,0.4l0,0l0,0.1l0,0l0,0c0,0,0,0-0.1,0c0,0,0,0,0,0c-0.1,0.1-0.2,0.2-0.4,0.4c0,0,0,0,0,0
			l0,0l0,0l0,0c-0.1,0.1-0.1,0.2-0.1,0.2l-0.3,0.3c-0.1,0.1-0.2,0.2-0.3,0.4c0,0,0,0-0.1,0.1l0,0l0,0c0,0,0,0,0,0
			c-0.1,0.1-0.1,0.2-0.2,0.2c0,0-0.1,0.1-0.2,0.2l0,0c-0.1,0.1-0.2,0.3-0.3,0.4l-0.1,0.1c0,0.1-0.1,0.2-0.1,0.3
			c-0.3,0.4-0.4,0.7-0.3,0.7c0,0.1,0,0.2,0,0.3c0.2,0.4,0.4,0.8,0.7,1l0,0c0.1,0.1,0.2,0.2,0.2,0.2l0,0c0.2,0.1,0.3,0.2,0.4,0.2
			c0.1,0.1,0.4,0.1,0.8,0.1c0.1,0,0.3-0.1,0.6-0.4l0,0l0,0c0,0,0.1-0.2,0.4-0.4l0-0.1c0,0,0,0,0.1-0.1c0-0.1,0.1-0.1,0.1-0.1
			c0.1-0.1,0.2-0.2,0.3-0.4c0.1-0.1,0.3-0.4,0.5-0.7c0.1-0.1,0.1-0.1,0.2-0.2c0,0,0-0.1,0.1-0.1l0,0c0,0,0,0,0-0.1l0,0
			c0.2-0.2,0.2-0.3,0.2-0.4l0,0c0,0,0.1-0.1,0.1-0.3c0.2-0.2,0.3-0.5,0.3-0.8c0-0.2-0.1-0.4-0.2-0.6l-0.4-0.5
			C128.6,17.7,128.4,17.6,128.3,17.5z M122.4,19.4L122.4,19.4L122.4,19.4L122.4,19.4L122.4,19.4z M125.3,15.1L125.3,15.1L125.3,15.1
			c0,0-0.1,0-0.2-0.1l0,0c-0.1,0-0.2-0.1-0.4-0.1c-0.4,0-0.7,0-0.9,0.1l-0.5,0.3l-0.6,0.4l0,0l-0.3,0.3l0,0
			c-0.1,0.1-0.2,0.1-0.2,0.2l-0.1,0.1l0,0.1c0,0,0,0,0,0l-0.1,0.1l0,0.1l0,0l0,0l0,0l0,0l0,0l0,0l0,0l0,0c-0.1,0.2-0.2,0.3-0.3,0.4
			l0,0c0,0-0.1,0.1-0.1,0.2c0,0,0,0,0,0l0,0l0.1,0l0,0c0,0,0,0-0.1,0c-0.1,0.1-0.2,0.3-0.3,0.7c-0.1,0.1-0.1,0.2,0,0.2l0,0l0,0.2
			c-0.1,0.1,0,0.3,0,0.7l0,0l0-0.1l0,0c0.1,0.1,0.1,0.2,0.1,0.2c0.1,0.2,0.3,0.5,0.6,0.7l0.2,0.1c0.1,0,0.2,0,0.2,0l0,0
			c0.1,0.1,0.4,0,0.9-0.1c0.3-0.1,0.4-0.2,0.5-0.4l0,0l0,0c0,0,0.1-0.1,0.2-0.3l0,0c0,0,0-0.1,0-0.1c0,0,0,0,0.1,0l0,0
			c0-0.2-0.1-0.3-0.3-0.5c0,0-0.1-0.1-0.2-0.1c0,0,0,0-0.1,0c0,0-0.1,0-0.1,0c0,0-0.1,0.1-0.2,0.2c-0.1,0.1-0.1,0.1-0.1,0.1l0,0.1
			l0,0c0,0-0.1,0.1-0.2,0.1l0,0c-0.1,0.1-0.2,0.1-0.3,0.1l0,0l0,0c0,0,0,0-0.1,0.1c0,0,0,0,0,0c-0.1,0-0.1,0-0.1,0c0,0,0,0,0,0
			l-0.1,0l0,0l0,0l0,0l0,0l0,0l0,0c-0.1,0-0.1-0.1-0.1-0.1c-0.1-0.1-0.1-0.2-0.1-0.3l0,0l0,0c0.1-0.3,0.1-0.4,0-0.4c0,0,0-0.1,0-0.1
			c0.1-0.1,0.2-0.2,0.1-0.2c0,0,0.1-0.1,0.1-0.1c0,0,0-0.1,0.1-0.1l0,0l0,0l0,0l0,0c0.1-0.2,0.2-0.3,0.2-0.3l0,0l0.1-0.1l0,0
			c0,0,0,0,0.1-0.1l0,0l0.1-0.1l0,0c0,0,0-0.1,0-0.1c0.1,0,0.2-0.1,0.3-0.3l0,0c0.2-0.2,0.3-0.3,0.4-0.3c0.1-0.1,0.1-0.1,0.2-0.1
			c0.2-0.2,0.3-0.2,0.4-0.3l0,0l0,0l0,0l0,0l0,0l0,0c0.1,0,0.1,0,0.1-0.1l0,0c0,0,0,0,0.1,0l0,0l0,0c0.1,0,0.2,0,0.3,0l0.1,0
			c0,0,0.1,0,0.1,0.1l0,0l0.1,0.1l0,0l0,0.1c0.1,0.1,0.1,0.2,0,0.3c0,0.1,0,0.2,0,0.3c-0.1,0.2-0.2,0.4-0.2,0.4l0,0c0,0,0,0,0,0l0,0
			l0,0c0,0.1,0,0.2,0,0.2l0,0l0,0.2l0,0l0,0l0,0.1c0.1,0,0.2,0,0.2,0l0,0l0,0c0,0,0,0,0.1,0c0.1,0,0.2,0,0.2-0.1l0,0l0.1-0.1
			c0-0.1,0-0.1,0-0.1c0.1,0,0.1-0.1,0.2-0.2l0.1-0.1l0,0c0,0,0,0,0-0.1l0.1-0.1c0-0.1,0-0.1,0-0.1l0.1-0.1l0,0l0,0l0,0
			c0,0,0-0.1,0-0.1l0,0c0-0.1,0-0.2,0-0.2c0-0.1,0-0.2-0.1-0.4c-0.2-0.3-0.3-0.4-0.4-0.5c0,0,0,0,0,0l-0.1-0.1
			C125.5,15.2,125.4,15.2,125.3,15.1z"/>
		<path class="st2" d="M121.9,33.9L121.9,33.9L121.9,33.9c0,0.1,0.1,0.3,0.1,0.4l0,0c0,0,0.1,0.1,0.1,0.1c0,0,0,0,0,0l0,0l0,0l0,0
			c0,0,0.1,0.1,0.1,0.1l0,0l0,0c0,0,0,0,0.1,0l0,0l0,0c0,0,0.1,0,0.1,0c0.1-0.1,0.1-0.1,0.2-0.2l0,0l0,0l0,0c0,0,0.1-0.1,0.1-0.2
			l0,0c0,0,0-0.1,0.1-0.3l0,0c0,0,0-0.1,0-0.2l0,0l0,0c0,0,0.1-0.1,0.1-0.1l0,0l0,0c0,0,0.1-0.2,0.4-0.4l0-0.1c0,0,0,0,0.1-0.1
			c0-0.1,0.1-0.1,0.1-0.1c0.1-0.1,0.2-0.2,0.3-0.4c0.1-0.1,0.3-0.4,0.5-0.7c0.1-0.1,0.1-0.1,0.2-0.2c0,0,0-0.1,0.1-0.1l0,0
			c0,0,0,0,0-0.1l0,0c0.2-0.2,0.2-0.3,0.2-0.4l0,0c0,0,0.1-0.1,0.1-0.3c0.2-0.2,0.3-0.5,0.3-0.8c0-0.2-0.1-0.4-0.2-0.6l-0.4-0.5
			c-0.3-0.2-0.5-0.3-0.6-0.4l0,0l0,0c-0.1-0.1-0.2-0.1-0.4-0.1c-0.2,0-0.3,0-0.4,0c-0.3,0.1-0.5,0.3-0.7,0.4l0,0l0,0.1l0,0l0,0
			c0,0,0,0-0.1,0c0,0,0,0,0,0c-0.1,0.1-0.2,0.2-0.4,0.4c0,0,0,0,0,0l0,0l0,0l0,0c-0.1,0.1-0.1,0.2-0.1,0.2l-0.3,0.3
			c-0.1,0.1-0.2,0.2-0.3,0.4c0,0,0,0-0.1,0.1l0,0l0,0c0,0,0,0,0,0c-0.1,0.1-0.1,0.2-0.2,0.2c0,0-0.1,0.1-0.2,0.2l0,0
			c-0.1,0.1-0.2,0.3-0.3,0.4l-0.1,0.1c0,0.1-0.1,0.2-0.1,0.3c-0.3,0.4-0.4,0.7-0.3,0.7c0,0.1,0,0.2,0,0.3c0.2,0.4,0.4,0.8,0.7,1l0,0
			c0.1,0.1,0.2,0.2,0.2,0.2l0,0c0.2,0.1,0.3,0.2,0.4,0.2C121.6,33.8,121.7,33.9,121.9,33.9C121.9,33.9,121.9,33.9,121.9,33.9z
			 M122.8,34.4L122.8,34.4L122.8,34.4L122.8,34.4L122.8,34.4z M123.6,29.3c0.1,0,0.3,0,0.4,0.2l0.1,0.1l0,0.1l0,0l0,0
			c0.1,0.1,0.2,0.2,0.1,0.4l0,0c-0.1,0.2-0.2,0.3-0.2,0.4l0,0c0,0,0,0.1,0,0.1l0,0l0,0l0,0l0,0c-0.1,0.1-0.1,0.2-0.1,0.2l0,0l0,0
			c0,0,0,0,0,0.1c0,0,0,0-0.1,0l0,0l0,0.1l0,0l0,0l-0.1,0.1l-0.1,0.1l0,0l0,0l0,0c0,0-0.1,0-0.1,0.1l0,0l0,0l-0.2,0.2l0,0l0,0
			c0,0,0,0,0,0l0,0l-0.3,0.3l0,0l0,0l0,0l0,0c-0.3,0.3-0.4,0.4-0.5,0.4c-0.2,0.2-0.4,0.1-0.7-0.1c-0.1-0.2-0.1-0.4-0.1-0.6
			c0.1-0.3,0.3-0.6,0.4-0.8l0,0c0,0,0,0,0,0l0,0c0-0.1,0.1-0.2,0.2-0.3l0,0c0.1-0.2,0.2-0.3,0.2-0.3c0,0,0,0,0,0c0,0,0,0,0-0.1
			l0.1-0.1l0.1,0l0,0l0,0l0,0c0,0,0,0,0-0.1c0,0,0.1-0.1,0.2-0.2l0-0.1c0.2-0.2,0.3-0.3,0.3-0.3l0,0
			C123.4,29.3,123.5,29.3,123.6,29.3z"/>
		<path class="st2" d="M127,33.5c-0.2-0.1-0.3-0.2-0.4-0.2c-0.1,0-0.2,0.1-0.3,0.2c-0.1,0.1-0.1,0.2-0.1,0.3c0,0.1,0.1,0.2,0.2,0.3
			c0,0,0.1,0.1,0.2,0.1c0.1,0.1,0.2,0.1,0.2,0.2c0.3,0.2,0.4,0.5,0.4,0.7c0,0.3-0.1,0.5-0.3,0.8c-0.1,0.2-0.3,0.3-0.5,0.4
			c-0.2,0.1-0.4,0.1-0.6,0c-0.2,0-0.3-0.1-0.5-0.2c-0.2-0.2-0.4-0.4-0.4-0.7c0-0.3,0.1-0.6,0.2-1c0-0.1,0-0.1,0-0.2
			c0-0.1-0.1-0.2-0.1-0.2c-0.1-0.1-0.3-0.2-0.4-0.1c-0.2,0-0.3,0.1-0.4,0.2c-0.1,0.1-0.2,0.3-0.2,0.5c-0.1,0.2-0.1,0.5-0.1,0.7
			c0,0.3,0.1,0.5,0.2,0.8c0.1,0.3,0.3,0.5,0.6,0.7c0.3,0.2,0.5,0.4,0.8,0.5c0.3,0.1,0.6,0.1,0.9,0.1c0.3,0,0.5-0.1,0.8-0.2
			c0.2-0.1,0.4-0.3,0.6-0.5c0.1-0.2,0.2-0.4,0.3-0.6c0.1-0.2,0.1-0.4,0.1-0.6c0-0.2-0.1-0.5-0.2-0.7c0.3,0,0.6,0,0.8-0.1
			c0.2-0.1,0.4-0.2,0.6-0.5c0.1-0.2,0.2-0.4,0.3-0.6c0.1-0.2,0.1-0.4,0-0.6c0-0.2-0.1-0.4-0.3-0.6c-0.1-0.2-0.3-0.4-0.5-0.6
			c-0.3-0.2-0.5-0.4-0.8-0.5c-0.3-0.1-0.5-0.1-0.7-0.1c-0.2,0-0.4,0-0.6,0.1c-0.2,0.1-0.3,0.2-0.4,0.3c-0.1,0.1-0.1,0.3-0.1,0.4
			c0,0.1,0.1,0.2,0.2,0.3c0.1,0.1,0.2,0.1,0.2,0.1c0.1,0,0.2,0,0.2,0c0.1-0.1,0.2-0.1,0.4-0.2c0.1-0.1,0.2-0.1,0.3-0.1
			c0.1,0,0.2,0,0.3,0c0.1,0,0.3,0.1,0.4,0.2c0.2,0.2,0.3,0.4,0.3,0.6c0,0.2,0,0.4-0.2,0.6c-0.2,0.2-0.4,0.3-0.7,0.3
			c-0.3,0-0.5-0.1-0.7-0.3L127,33.5z"/>
	</g>
</g>
</svg>
