<?xml version="1.0" encoding="utf-8"?>
<!-- Generator: Adobe Illustrator 25.4.1, SVG Export Plug-In . SVG Version: 6.00 Build 0)  -->
<svg version="1.1" id="Layer_1" xmlns="http://www.w3.org/2000/svg" xmlns:xlink="http://www.w3.org/1999/xlink" x="0px" y="0px"
	 viewBox="0 0 139.7 39.3" style="enable-background:new 0 0 139.7 39.3;" xml:space="preserve">
<style type="text/css">
	.st0{fill:#FFFFFF;}
	.st1{fill:none;}
</style>
<g>
	<path class="st0" d="M48.2,35.6c-0.1-0.5-0.2-1.1-0.4-1.6c-3-7.8-6-15.6-9-23.4c-1-2.7-2-5.4-3.2-8.1c-1.2-2.8-4.5-3.3-6.4-1
		c-0.6,0.8-0.9,1.8-1.3,2.8c-2,5.2-4,10.5-6,15.7c-0.3,0.7-0.7,1.2-1.5,1.4c-1,0.2-2-0.2-2.4-1.3c-0.8-2.1-1.6-4.2-2.4-6.2
		c-0.7-1.8-2-2.8-3.8-2.8c-1.7,0-3.1,1-3.8,2.9c-1.5,3.9-3,7.9-4.5,11.8c-1,2.7-2.1,5.4-3.1,8.1c-0.8,2.1,0.1,4.2,2.2,5
		c1.8,0.7,3.9-0.2,4.7-2.2c0.9-2.2,1.7-4.4,2.7-6.6c0.2-0.5,0.6-1.1,1.1-1.4c1.1-0.6,2.2,0,2.6,1.1c0.9,2.3,1.8,4.7,2.8,7
		c0.3,0.7,0.9,1.5,1.6,1.9c2.1,1.3,4.5,0.3,5.5-2.2c2.2-5.6,4.4-11.3,6.5-16.9c0.4-0.9,0.9-1.5,1.9-1.5c1,0,1.6,0.5,2.1,1.6
		c1.3,3.3,2.6,6.7,4,10c1,2.5,1.9,5,3,7.4c0.7,1.6,2.6,2.5,4.2,2.1C47,38.7,48.1,37.3,48.2,35.6z M11.8,0.2c-2,0-3.7,1.7-3.8,3.7
		c0,2,1.7,3.8,3.8,3.8c2,0,3.7-1.7,3.8-3.7C15.6,1.9,13.9,0.2,11.8,0.2z"/>
	<path class="st0" d="M48.2,35.6c-0.1,1.7-1.3,3.2-3,3.6c-1.6,0.4-3.5-0.5-4.2-2.1c-1-2.4-2-4.9-3-7.4c-1.3-3.3-2.6-6.7-4-10
		c-0.4-1.1-1.1-1.6-2.1-1.6c-1,0-1.6,0.6-1.9,1.5c-2.2,5.6-4.3,11.3-6.5,16.9c-1,2.5-3.4,3.5-5.5,2.2c-0.7-0.4-1.3-1.2-1.6-1.9
		c-1-2.3-1.8-4.6-2.8-7c-0.5-1.2-1.6-1.7-2.6-1.1c-0.5,0.3-0.9,0.8-1.1,1.4c-0.9,2.2-1.8,4.4-2.7,6.6c-0.8,2-2.8,3-4.7,2.2
		c-2.1-0.8-3-2.9-2.2-5c1-2.7,2.1-5.4,3.1-8.1c1.5-3.9,3-7.9,4.5-11.8c0.7-1.8,2.1-2.9,3.8-2.9s3.1,1,3.8,2.8
		c0.8,2.1,1.6,4.2,2.4,6.2c0.4,1.1,1.4,1.5,2.4,1.3c0.8-0.2,1.2-0.7,1.5-1.4c2-5.2,4-10.5,6-15.7c0.4-0.9,0.7-2,1.3-2.8
		c1.9-2.4,5.2-1.8,6.4,1c1.1,2.7,2.1,5.4,3.2,8.1c3,7.8,6,15.6,9,23.4C48,34.5,48.1,35,48.2,35.6z"/>
	<path class="st0" d="M11.8,0.2c2.1,0,3.8,1.8,3.8,3.8s-1.8,3.7-3.8,3.7C9.7,7.7,8,5.9,8,3.9C8.1,1.8,9.8,0.2,11.8,0.2z"/>
</g>
<path class="st0" d="M136,10.5c0.3-0.3,0.5-0.5,0.8-0.5c1.9-1.1,2.9-2.7,2.7-4.8c-0.3-2.4-1.6-3.7-4.2-4.2c-2.7-0.3-5.3-0.3-8-0.5
	c0,5.3,0,10.3,0,15.4c0.8,0,1.6,0,2.4,0c0-1.9,0-3.4,0-5c2.4-0.8,4,0,5,2.1c0.3,0.5,0.8,0.8,1.1,1.3c0.8,1.6,2.1,2.4,4,1.6
	C138.7,14.2,137.3,12.4,136,10.5z"/>
<path class="st0" d="M92,8.4c0,0.5,0,1.1,0,1.6c-0.5,5.8,1.3,6.6,7.2,5.6c0.3,0,0.5,0,0.8,0c3.7-0.8,5.6-3.7,5.6-7.7
	c0-3.4-2.4-6.1-5.8-6.9c-1.3-0.3-2.9-0.3-4.5-0.3C93,0.7,92,2,92,4.1C91.7,5.7,92,7.1,92,8.4z"/>
<path class="st0" d="M63.1,8.1C62.5,7.3,62,6.8,61.8,6c-1.1-1.3-1.9-2.9-2.9-4.2C58.3,1.2,57.5,1,57,1c-0.3,0-1.1,0.8-1.1,1.3
	c0,1.9,0,4,0,5.8c0,0.5,0.5,0.8,1.1,1.1c0.5-0.3,1.1-0.8,1.3-1.1c0.3-0.5,0.3-1.3,0.3-2.7c1.9,2.7,3.2,4.5,4.8,6.9
	c1.6-2.4,2.9-4.5,4.5-6.4c0.3,2.9,0.3,5.6,0.5,8.2c0,0.8,0.8,1.3,1.3,2.1c0.5-0.8,1.1-1.3,1.1-2.1c0-3.4,0-7.2,0-10.6
	c0-0.8-0.8-1.6-1.1-2.4c-0.8,0.5-1.9,0.8-2.4,1.6C65.7,4.1,64.7,6,63.1,8.1z"/>
<path class="st0" d="M109.7,1c2.1,4.8,4,9.5,5.8,14.3c0.5,1.1,2.4,1.1,2.9,0c2.1-4.8,4-9.5,5.8-14.3c-1.9-0.8-2.9,0-3.4,1.6
	c-0.3,0.8-0.5,1.9-1.1,2.7c-0.8,2.1-1.9,4.5-2.9,7.4c-1.3-3.7-2.7-6.6-3.7-9.8C112.7,1.2,111.9,0.2,109.7,1z"/>
<path class="st0" d="M81.1,3.9c0.8,1.6,1.3,2.7,1.6,3.7c1.1,2.7,2.1,5,3.4,7.7c0.3,0.5,1.3,0.5,2.1,0.8c0-0.5,0.3-1.3,0-1.9
	c-1.6-4-3.4-8-5.3-12.2c-0.8-1.6-2.4-1.9-3.2-0.5c-2.1,4.2-4,8.8-5.8,13c-0.3,0.3,0,1.3,0.3,1.3c0.5,0.3,1.1,0,1.6-0.3
	c0.5-0.5,0.8-1.1,1.1-1.9C78.2,10.8,79.5,7.6,81.1,3.9z"/>
<path class="st0" d="M56.7,13.2c-0.5,0.8-0.8,0.2-0.8,1c-0.1,0.7-0.2,2,1.3,2c1.3,0,1.1-1.9,1.1-2.1C58.3,13.4,57.5,14,56.7,13.2z"
	/>
<path class="st0" d="M136,10.5c1.3,1.9,2.7,3.7,3.7,5.6c-1.9,0.8-3.2,0-4-1.6c-0.3-0.5-0.8-0.8-1.1-1.3c-1.1-2.1-2.4-2.7-5-2.1
	c0,1.6,0,3.4,0,5c-1.1,0-1.6,0-2.4,0c0-5,0-10.1,0-15.4c2.7,0,5.3,0,8,0.5c2.7,0.3,4,1.9,4.2,4.2c0.3,2.1-0.8,3.7-2.7,4.8
	C136.8,10,136.5,10.2,136,10.5z M129.9,8.4c1.6,0,3.2,0,4.5,0c1.6-0.3,2.7-1.1,2.4-2.7c0-1.6-1.1-2.4-2.7-2.4c-1.6,0-2.9,0-4.5,0
	C129.9,5.2,129.9,6.5,129.9,8.4z"/>
<path class="st1" d="M92,8.4c0-1.3,0-2.9,0-4.2C92,2,93,0.7,95.2,0.7c1.6,0,2.9,0,4.5,0.3c3.4,0.5,5.8,3.4,5.8,6.9
	c0,4-1.9,6.9-5.6,7.7c-0.3,0-0.5,0-0.8,0C93,16.3,91.5,15.8,92,10C92,9.7,92,9.2,92,8.4z M94.4,8.4c0,1.1,0,2.1,0,3.2
	c0,0.8,0.5,1.6,1.1,1.9c2.9,1.3,6.4-0.5,7.2-3.4c0.5-2.1,0.3-4-1.3-5.6s-4-1.6-5.8-1.1c-1.9,0.5-0.8,2.9-1.1,4.2
	C94.4,8.1,94.4,8.4,94.4,8.4z"/>
<path class="st0" d="M109.7,1c2.1-0.8,2.9,0.3,3.4,1.9c1.1,3.2,2.4,6.1,3.7,9.8c1.1-2.9,2.1-5,2.9-7.4c0.3-0.8,0.8-1.6,1.1-2.7
	c0.5-1.9,1.6-2.4,3.4-1.6c-1.9,4.8-4,9.5-5.8,14.3c-0.5,1.1-2.4,1.1-2.9,0C113.7,10.8,111.6,6,109.7,1z"/>
<path class="st0" d="M81.1,3.9c-1.6,3.7-2.9,6.9-4.2,10.1c-0.3,0.5-0.5,1.3-1.1,1.9c-0.3,0.3-1.1,0.3-1.6,0.3
	c-0.3,0-0.5-0.8-0.3-1.3c1.9-4.2,3.7-8.8,5.8-13c0.8-1.6,2.4-1.1,3.2,0.5c1.9,4,3.4,8,5.3,12.2c0.3,0.5,0,1.3,0,1.9
	c-0.8-0.3-1.9-0.5-2.1-0.8c-1.3-2.4-2.1-5-3.4-7.7C82.4,6.5,81.9,5.5,81.1,3.9z"/>
<g>
	<path class="st0" d="M84.9,24.6c-0.3,0-0.8,0-1.1,0c0.3,3.7,0.3,7.4,0.8,10.9c0.3,2.1,2.9,3.4,5.3,3.4c2.4,0,5-1.3,5.3-3.7
		c0.5-3.4,0.3-7.2,0.3-10.6c0,0-0.3,0-0.5,0c0,2.7,0,5.3,0,8c0,3.4-1.9,5.6-5,5.6c-2.9,0-4.8-2.1-4.8-5.6
		C84.9,29.9,84.9,27.2,84.9,24.6z"/>
	<path class="st0" d="M84.9,24.6c0,2.7,0,5.3,0,8c0,3.4,1.9,5.6,4.8,5.6s4.8-2.1,5-5.6c0-2.7,0-5.3,0-8c0.3,0,0.5,0,0.5,0
		c0,3.4,0.3,7.2-0.3,10.6c-0.3,2.4-2.9,3.7-5.3,3.7c-2.4,0-4.8-1.3-5.3-3.4c-0.5-3.7-0.5-7.4-0.8-10.9
		C84.1,24.6,84.7,24.6,84.9,24.6z"/>
</g>
<g>
	<path class="st0" d="M64.9,25.9c-1.6-1.9-5.6-2.1-7.4-0.8c-2.1,1.6-1.6,4.8,0.8,5.8c1.6,0.8,3.4,0.8,5,1.6c2.1,0.8,2.1,3.4,0.3,4.5
		c-1.1,0.5-2.7,0.8-3.7,0.5c-1.3-0.3-2.7-1.1-4-1.6c1.6,2.1,3.4,2.9,5.8,2.7c2.7-0.3,4-1.6,4-3.7c0-2.1-1.1-3.2-3.7-4
		c-1.1-0.3-2.1-0.5-3.2-0.8c-1.3-0.5-2.4-1.3-1.9-2.7c0.3-1.1,1.3-2.1,2.1-2.4C61.2,25.1,63.1,25.6,64.9,25.9z"/>
	<path class="st0" d="M64.9,25.9c-1.9-0.3-3.7-0.8-5.6-0.5c-0.8,0-1.9,1.3-2.1,2.4c-0.5,1.3,0.5,2.4,1.9,2.7
		c1.1,0.3,2.1,0.5,3.2,0.8c2.7,0.8,3.7,1.9,3.7,4c0,2.1-1.3,3.2-4,3.7c-2.4,0.3-4.5-0.5-5.8-2.7c1.3,0.5,2.7,1.3,4,1.6
		c1.3,0.3,2.7,0,3.7-0.5c1.9-1.1,1.9-3.7-0.3-4.5c-1.6-0.8-3.4-0.8-5-1.6c-2.7-1.1-2.9-4.2-0.8-5.8C59.4,23.5,63.3,24,64.9,25.9z"/>
</g>
<g>
	<path class="st0" d="M79.6,25.1c0-0.3,0-0.3,0-0.5c-3.4,0-6.9,0-10.6,0c0,0.3,0,0.3,0,0.5c1.6,0,3.2,0.3,5,0.3c0,4.5,0,8.8,0,13
		c0.3,0,0.5,0,0.8,0c0-4.2,0-8.8,0-13.3C76.7,25.1,78,25.1,79.6,25.1z"/>
	<path class="st0" d="M79.6,25.1c-1.3,0-2.9,0-4.8,0c0,4.5,0,9,0,13.3c-0.3,0-0.5,0-0.8,0c0-4.2,0-8.8,0-13c-1.9,0-3.4-0.3-5-0.3
		c0-0.3,0-0.3,0-0.5c3.4,0,6.9,0,10.6,0C79.6,24.8,79.6,24.8,79.6,25.1z"/>
</g>
<g>
	<path class="st0" d="M118,38.4c0.3,0,0.3,0,0.5,0c0-4.5,0-9.3,0-13.8c-0.3,0-0.3,0-0.5,0C118,29.1,118,33.6,118,38.4z"/>
	<path class="st0" d="M118,38.4c0-4.5,0-9.3,0-13.8c0.3,0,0.3,0,0.5,0c0,4.5,0,9.3,0,13.8C118.2,38.4,118.2,38.4,118,38.4z"/>
</g>
<path d="M129.9,8.4c0-1.9,0-3.4,0-5c1.6,0,2.9,0,4.5,0s2.7,1.1,2.7,2.4c0,1.6-1.1,2.4-2.4,2.7C133.1,8.7,131.5,8.4,129.9,8.4z"/>
<g>
	<path class="st0" d="M139.7,31.5c0-4.2-2.9-7.4-6.9-7.4s-7.2,3.2-7.2,7.4s3.2,7.4,7.2,7.4C136.5,38.9,139.7,35.4,139.7,31.5z"/>
	<path class="st0" d="M139.7,31.5c0,4.2-3.2,7.4-7.2,7.4c-4,0-7.2-3.2-7.2-7.4c0-4,3.2-7.4,7.2-7.4C136.5,24,139.7,27.2,139.7,31.5z
		 M138.9,31.5c0-3.7-2.9-6.9-6.4-6.6c-3.2,0-6.1,2.9-6.1,6.4c0,3.4,2.7,6.6,6.1,6.6C136,38.1,138.7,35.2,138.9,31.5z"/>
	<path d="M138.9,31.5c0,3.7-2.9,6.6-6.4,6.4c-3.4,0-6.1-3.2-6.1-6.6s2.7-6.4,6.1-6.4C135.7,24.8,138.9,28,138.9,31.5z"/>
</g>
<path d="M94.4,8.7c0,1.1,0,2.1,0,3.2c0,0.8,0.5,1.6,1.1,1.9c2.9,1.3,6.4-0.5,7.2-3.4c0.5-2.1,0.3-4-1.3-5.6s-4-1.6-5.8-1.1
	s-0.8,2.9-1.1,4.2C94.4,8.1,94.4,8.4,94.4,8.7z"/>
<g>
	<path class="st0" d="M100.9,38.4c0-4.8,0-9.3,0-14.3c2.7,0.3,5.3,0.3,7.7,0.8c3.2,1.1,4.8,4,4.2,7.7c-0.3,2.9-2.9,5.3-6.1,5.6
		C104.9,38.6,102.8,38.4,100.9,38.4z M101.7,37.6c3.7,0.3,7.4,0.8,9.5-3.2c1.3-2.1,1.1-4.5-0.5-6.6c-2.4-3.2-5.6-2.7-9-2.4
		C101.7,29.3,101.7,33.3,101.7,37.6z"/>
</g>
<path class="st0" d="M63.1,8.1c-1.3-2.1-2.4-4-3.7-5.6C58.8,1.8,57.8,1.5,57,1c-0.5,0.8-1.1,1.6-1.1,2.4c0,3.4,0,7.2,0,10.6
	c0,0.8,0.8,1.3,1.1,2.1c0.5-0.8,1.3-1.3,1.3-2.1c0.3-2.7,0-5.3,0.5-8.2c1.3,2.1,2.9,4.2,4.5,6.4c1.6-2.1,2.9-4.2,4.8-6.9
	c0.3,1.3,0,2.1,0.3,2.7s0.8,0.8,1.3,1.1c0.3-0.3,1.1-0.8,1.1-1.1c0-1.9,0-4,0-5.8c0-0.5-0.8-1.3-1.1-1.3c-0.8,0-1.6,0.3-1.9,0.8
	c-1.1,1.3-1.9,2.9-2.9,4.2C64.1,6.8,63.6,7.3,63.1,8.1z"/>
<path class="st0" d="M69.2,13.4c-0.5,0.8-0.8,0.2-0.8,1c-0.1,0.7-0.2,2,1.3,2c1.3,0,1.1-1.9,1.1-2.1C70.8,13.7,70,14.2,69.2,13.4z"
	/>
</svg>
