<?xml version="1.0" encoding="utf-8"?>
<!-- Generator: Adobe Illustrator 25.4.1, SVG Export Plug-In . SVG Version: 6.00 Build 0)  -->
<svg version="1.1" id="Layer_1" xmlns="http://www.w3.org/2000/svg" xmlns:xlink="http://www.w3.org/1999/xlink" x="0px" y="0px"
	 viewBox="0 0 948.9 331.4" style="enable-background:new 0 0 948.9 331.4;" xml:space="preserve">
<style type="text/css">
	.st0{fill:#FFFFFF;stroke:#757576;stroke-width:5;stroke-miterlimit:10;}
</style>
<g>
	<g>
		<path class="st0" d="M380,19.6c3.2,0,5.7,2.6,5.7,5.7c0,3.2-2.6,5.7-5.7,5.7s-5.7-2.6-5.7-5.7C374.3,22.1,376.8,19.6,380,19.6z
			 M382.9,94.5c0,4.9-4,8.9-8.9,8.9s-8.9-4-8.9-8.9s4-8.9,8.9-8.9S382.9,89.6,382.9,94.5z M339.8,160c0,6.4-5.2,11.6-11.6,11.6
			c-6.4,0-11.6-5.2-11.6-11.6c0-6.4,5.2-11.6,11.6-11.6C334.6,148.4,339.8,153.6,339.8,160z M320.3,94.4c0-7.7,6.2-13.9,13.9-13.9
			c7.7,0,13.9,6.2,13.9,13.9c0,7.7-6.2,13.9-13.9,13.9C326.6,108.3,320.3,102.1,320.3,94.4z M344.9,182.8c7.3,0,13.3,5.9,13.3,13.3
			c0,7.3-5.9,13.3-13.3,13.3c-7.3,0-13.3-5.9-13.3-13.3C331.7,188.8,337.6,182.8,344.9,182.8z M350.9,141c-7.7,0-14-6.3-14-14
			s6.3-14,14-14c7.7,0,14,6.3,14,14S358.6,141,350.9,141z M368.2,153.6c5.4,0,9.9,4.4,9.9,9.9c0,5.4-4.4,9.9-9.9,9.9
			c-5.5,0-9.9-4.4-9.9-9.9C358.3,158,362.7,153.6,368.2,153.6z M371.7,58c0,8.1-6.6,14.7-14.7,14.7c-8.1,0-14.7-6.6-14.7-14.7
			c0-8.1,6.6-14.7,14.7-14.7C365.1,43.4,371.7,49.9,371.7,58z M340.2,4.4c9,0,16.2,7.3,16.2,16.2c0,9-7.3,16.2-16.2,16.2
			c-9,0-16.2-7.3-16.2-16.2C324,11.7,331.3,4.4,340.2,4.4z M317.1,42.1c8.2,0,14.8,6.6,14.8,14.8c0,8.2-6.6,14.8-14.8,14.8
			c-8.2,0-14.8-6.6-14.8-14.8C302.2,48.7,308.9,42.1,317.1,42.1z M294.2,72.8c8.1,0,14.7,6.6,14.7,14.7c0,8.1-6.6,14.7-14.7,14.7
			c-8.1,0-14.7-6.6-14.7-14.7C279.6,79.4,286.1,72.8,294.2,72.8z M271.2,108.6c6.4,0,11.6,5.2,11.6,11.6c0,6.4-5.2,11.6-11.6,11.6
			c-6.4,0-11.6-5.2-11.6-11.6C259.5,113.8,264.7,108.6,271.2,108.6z M248.2,143.1c5.4,0,9.9,4.4,9.9,9.9c0,5.5-4.4,9.9-9.9,9.9
			c-5.5,0-9.9-4.4-9.9-9.9C238.3,147.5,242.7,143.1,248.2,143.1z M230.1,171.6c4.1,0,7.4,3.3,7.4,7.4c0,4.1-3.3,7.4-7.4,7.4
			c-4.1,0-7.4-3.3-7.4-7.4C222.7,174.9,226.1,171.6,230.1,171.6z M214.4,195.8c3.2,0,5.7,2.6,5.7,5.7c0,3.2-2.6,5.7-5.7,5.7
			s-5.7-2.6-5.7-5.7C208.6,198.4,211.2,195.8,214.4,195.8z M196.4,213.4c6.4,0,11.6,5.2,11.6,11.6c0,6.4-5.2,11.6-11.6,11.6
			c-6.4,0-11.6-5.2-11.6-11.6C184.7,218.6,189.9,213.4,196.4,213.4z M178.5,195.8c3.2,0,5.7,2.6,5.7,5.7c0,3.2-2.6,5.7-5.7,5.7
			s-5.7-2.6-5.7-5.7C172.8,198.4,175.3,195.8,178.5,195.8z M162.7,171.6c4.1,0,7.4,3.3,7.4,7.4c0,4.1-3.3,7.4-7.4,7.4
			c-4.1,0-7.4-3.3-7.4-7.4C155.3,174.9,158.6,171.6,162.7,171.6z M144.6,143.1c5.5,0,9.9,4.4,9.9,9.9c0,5.5-4.4,9.9-9.9,9.9
			c-5.5,0-9.9-4.4-9.9-9.9C134.8,147.5,139.2,143.1,144.6,143.1z M121.7,108.6c6.4,0,11.6,5.2,11.6,11.6c0,6.4-5.2,11.6-11.6,11.6
			c-6.4,0-11.6-5.2-11.6-11.6C110,113.8,115.2,108.6,121.7,108.6z M113.3,87.5c0,8.1-6.6,14.7-14.7,14.7s-14.7-6.6-14.7-14.7
			c0-8.1,6.6-14.7,14.7-14.7S113.3,79.4,113.3,87.5z M90.5,56.9c0,8.2-6.6,14.8-14.8,14.8c-8.2,0-14.8-6.6-14.8-14.8
			c0-8.2,6.6-14.8,14.8-14.8C83.8,42.1,90.5,48.7,90.5,56.9z M27.9,127c0-7.7,6.3-14,14-14c7.7,0,14,6.3,14,14s-6.3,14-14,14
			C34.1,141,27.9,134.8,27.9,127z M34.4,163.5c0,5.4-4.4,9.9-9.9,9.9s-9.9-4.4-9.9-9.9c0-5.5,4.4-9.9,9.9-9.9S34.4,158,34.4,163.5z
			 M47.8,182.8c7.3,0,13.3,5.9,13.3,13.3c0,7.3-5.9,13.3-13.3,13.3s-13.3-5.9-13.3-13.3C34.5,188.8,40.5,182.8,47.8,182.8z M53,160
			c0-6.4,5.2-11.6,11.6-11.6c6.4,0,11.6,5.2,11.6,11.6c0,6.4-5.2,11.6-11.6,11.6C58.2,171.7,53,166.5,53,160z M58.5,108.3
			c-7.7,0-13.9-6.2-13.9-13.9c0-7.7,6.2-13.9,13.9-13.9c7.7,0,13.9,6.2,13.9,13.9C72.4,102.1,66.2,108.3,58.5,108.3z M52.5,4.4
			c9,0,16.2,7.3,16.2,16.2c0,9-7.3,16.2-16.2,16.2c-9,0-16.2-7.3-16.2-16.2C36.3,11.7,43.5,4.4,52.5,4.4z M35.8,43.4
			c8.1,0,14.7,6.6,14.7,14.7c0,8.1-6.6,14.7-14.7,14.7c-8.1,0-14.7-6.6-14.7-14.7C21.1,49.9,27.7,43.4,35.8,43.4z M27.7,94.5
			c0,4.9-4,8.9-8.9,8.9c-4.9,0-8.9-4-8.9-8.9s4-8.9,8.9-8.9C23.7,85.6,27.7,89.6,27.7,94.5z M12.8,19.6c3.2,0,5.7,2.6,5.7,5.7
			c0,3.2-2.6,5.7-5.7,5.7c-3.2,0-5.7-2.6-5.7-5.7C7.1,22.1,9.7,19.6,12.8,19.6z M2.5,199.7c0-3.2,2.6-5.7,5.7-5.7
			c3.2,0,5.7,2.6,5.7,5.7s-2.6,5.7-5.7,5.7C5.1,205.4,2.5,202.9,2.5,199.7z M13.9,276.2c-4.1,0-7.4-3.3-7.4-7.4
			c0-4.1,3.3-7.4,7.4-7.4s7.4,3.3,7.4,7.4C21.3,272.9,18,276.2,13.9,276.2z M19.1,232.3c0-6.5,5.3-11.8,11.8-11.8
			s11.8,5.3,11.8,11.8c0,6.5-5.3,11.8-11.8,11.8S19.1,238.9,19.1,232.3z M37,311.5c-5.3,0-9.7-4.3-9.7-9.7c0-5.3,4.3-9.7,9.7-9.7
			s9.7,4.3,9.7,9.7C46.7,307.1,42.3,311.5,37,311.5z M53.8,278.6c-7.3,0-13.3-5.9-13.3-13.3c0-7.3,5.9-13.3,13.3-13.3
			c7.3,0,13.3,5.9,13.3,13.3C67.1,272.7,61.1,278.6,53.8,278.6z M70.7,237c-4.5,0-8.1-3.6-8.1-8.1c0-4.5,3.6-8.1,8.1-8.1
			c4.5,0,8.1,3.6,8.1,8.1C78.9,233.4,75.2,237,70.7,237z M68.3,123.7c0-7.4,6-13.4,13.4-13.4c7.4,0,13.4,6,13.4,13.4
			c0,7.4-6,13.4-13.4,13.4C74.2,137.1,68.3,131.1,68.3,123.7z M87.7,198.5c-3.2,0-5.7-2.6-5.7-5.7c0-3.2,2.6-5.7,5.7-5.7
			s5.7,2.6,5.7,5.7C93.4,195.9,90.9,198.5,87.7,198.5z M93.1,156.5c0-6.4,5.2-11.6,11.6-11.6c6.4,0,11.6,5.2,11.6,11.6
			c0,6.4-5.2,11.6-11.6,11.6C98.3,168.2,93.1,163,93.1,156.5z M110.7,231.2c-3.2,0-5.7-2.6-5.7-5.7c0-3.2,2.6-5.7,5.7-5.7
			c3.2,0,5.7,2.6,5.7,5.7C116.4,228.7,113.8,231.2,110.7,231.2z M114.1,189.3c0-7.3,5.9-13.3,13.3-13.3c7.3,0,13.3,5.9,13.3,13.3
			c0,7.3-5.9,13.3-13.3,13.3C120,202.6,114.1,196.6,114.1,189.3z M133.6,264.7c-3.6,0-6.5-2.9-6.5-6.5c0-3.6,2.9-6.5,6.5-6.5
			c3.6,0,6.5,2.9,6.5,6.5C140,261.8,137.1,264.7,133.6,264.7z M137.3,221.8c0-7.3,5.9-13.2,13.2-13.2c7.3,0,13.2,5.9,13.2,13.2
			c0,7.3-5.9,13.2-13.2,13.2C143.2,235,137.3,229.1,137.3,221.8z M156.6,299.1c-4.5,0-8.1-3.6-8.1-8.1c0-4.5,3.6-8.1,8.1-8.1
			c4.5,0,8.1,3.6,8.1,8.1C164.7,295.5,161.1,299.1,156.6,299.1z M161.8,254.8c0-6.4,5.2-11.6,11.6-11.6c6.4,0,11.6,5.2,11.6,11.6
			c0,6.4-5.2,11.6-11.6,11.6C167,266.4,161.8,261.2,161.8,254.8z M179.5,328.9c-2.8,0-5-2.2-5-5c0-2.8,2.2-5,5-5c2.8,0,5,2.2,5,5
			C184.5,326.7,182.2,328.9,179.5,328.9z M196.4,300c-6.4,0-11.6-5.2-11.6-11.6c0-6.4,5.2-11.6,11.6-11.6c6.4,0,11.6,5.2,11.6,11.6
			C208,294.8,202.8,300,196.4,300z M213.3,328.9c-2.8,0-5-2.2-5-5c0-2.8,2.2-5,5-5s5,2.2,5,5C218.3,326.7,216.1,328.9,213.3,328.9z
			 M219.3,266.4c-6.4,0-11.6-5.2-11.6-11.6c0-6.4,5.2-11.6,11.6-11.6c6.4,0,11.6,5.2,11.6,11.6C231,261.2,225.7,266.4,219.3,266.4z
			 M236.2,299.1c-4.5,0-8.1-3.6-8.1-8.1c0-4.5,3.6-8.1,8.1-8.1c4.5,0,8.1,3.6,8.1,8.1C244.3,295.5,240.7,299.1,236.2,299.1z
			 M242.2,235c-7.3,0-13.2-5.9-13.2-13.2c0-7.3,5.9-13.2,13.2-13.2c7.3,0,13.2,5.9,13.2,13.2C255.4,229.1,249.5,235,242.2,235z
			 M259.2,264.7c-3.6,0-6.5-2.9-6.5-6.5c0-3.6,2.9-6.5,6.5-6.5c3.6,0,6.5,2.9,6.5,6.5C265.6,261.8,262.7,264.7,259.2,264.7z
			 M265.4,202.6c-7.3,0-13.3-5.9-13.3-13.3c0-7.3,5.9-13.3,13.3-13.3c7.3,0,13.3,5.9,13.3,13.3C278.6,196.6,272.7,202.6,265.4,202.6
			z M282.1,231.2c-3.2,0-5.7-2.6-5.7-5.7c0-3.2,2.6-5.7,5.7-5.7c3.2,0,5.7,2.6,5.7,5.7C287.9,228.7,285.3,231.2,282.1,231.2z
			 M288,168.2c-6.4,0-11.6-5.2-11.6-11.6c0-6.4,5.2-11.6,11.6-11.6c6.4,0,11.6,5.2,11.6,11.6C299.7,163,294.5,168.2,288,168.2z
			 M305,198.5c-3.2,0-5.7-2.6-5.7-5.7c0-3.2,2.6-5.7,5.7-5.7s5.7,2.6,5.7,5.7C310.7,195.9,308.2,198.5,305,198.5z M297.8,123.7
			c0-7.4,6-13.4,13.4-13.4c7.4,0,13.4,6,13.4,13.4c0,7.4-6,13.4-13.4,13.4C303.8,137.1,297.8,131.1,297.8,123.7z M313.9,228.9
			c0-4.5,3.6-8.1,8.1-8.1s8.1,3.6,8.1,8.1c0,4.5-3.6,8.1-8.1,8.1S313.9,233.4,313.9,228.9z M325.8,265.4c0-7.3,5.9-13.3,13.3-13.3
			c7.3,0,13.3,5.9,13.3,13.3c0,7.3-5.9,13.3-13.3,13.3C331.7,278.6,325.8,272.7,325.8,265.4z M355.7,311.5c-5.3,0-9.7-4.3-9.7-9.7
			c0-5.3,4.3-9.7,9.7-9.7c5.3,0,9.7,4.3,9.7,9.7C365.4,307.1,361.1,311.5,355.7,311.5z M361.8,244.2c-6.5,0-11.8-5.3-11.8-11.8
			c0-6.5,5.3-11.8,11.8-11.8s11.8,5.3,11.8,11.8C373.6,238.9,368.3,244.2,361.8,244.2z M378.8,276.2c-4.1,0-7.4-3.3-7.4-7.4
			c0-4.1,3.3-7.4,7.4-7.4c4.1,0,7.4,3.3,7.4,7.4C386.2,272.9,382.9,276.2,378.8,276.2z M384.6,205.4c-3.2,0-5.7-2.6-5.7-5.7
			s2.6-5.7,5.7-5.7c3.2,0,5.7,2.6,5.7,5.7S387.8,205.4,384.6,205.4z"/>
	</g>
	<g>
		<path class="st0" d="M444.5,149c-1.4,0-2.2-0.7-2.2-2V4.7c0-0.5,0.2-1.1,0.5-1.4c0.5-0.5,0.9-0.7,1.6-0.7h17.2
			c0.9,0,1.6,0.5,2.2,1.8l52.4,121.4L568.7,4.3c0.5-1.1,1.3-1.8,2.3-1.8h17.2c1.4,0,2,0.7,2,2.2V147c0,1.4-0.7,2-2,2h-14.6
			c-1.4,0-2-0.7-2-2V45.5l-45.3,101.9c-0.4,1.1-1.1,1.6-2.2,1.6h-15.5c-1.1,0-2-0.5-2.2-1.6L461.2,45.5V147c0,1.4-0.7,2-2,2H444.5z"
			/>
		<path class="st0" d="M707.8,44.4c1.4,0,2,0.7,2,2V147c0,1.4-0.7,2-2,2h-14.6c-1.4,0-2-0.7-2-2l1.3-17.7
			c-2.3,6.9-6.5,12.3-12.5,16.1c-6,3.8-13.5,5.8-22.6,5.8c-14.3,0-24.6-4.3-30.9-13.2c-6.3-8.9-9.6-22.6-9.6-41.2V46.4
			c0-1.4,0.7-2,2-2h15c1.4,0,2,0.7,2,2l-0.2,50.2c0,7.9,0.5,14.6,1.6,19.9c1.3,5.2,3.1,9.4,5.6,12.3c2.5,2.9,5.4,4.9,8.9,6
			c3.3,1.1,7.4,1.6,12.3,1.6c8.7,0,15.2-3.1,20.1-9.2c4.7-6.1,7-16.3,7.2-30.5V46.4c0-1.4,0.7-2,2-2H707.8z"/>
		<path class="st0" d="M741.7,136.9c-8.7-9.4-12.8-22.6-12.8-39.2c0-16.8,4.3-30.4,12.8-40.3c8.7-10.1,20.6-15,36-15
			c15.2,0,27.1,5.1,35.6,15c8.7,9.9,12.8,23.5,12.8,40.3c0,16.6-4.2,29.6-12.6,39.2c-8.5,9.4-20.4,14.3-36,14.3
			C762.3,151,750.4,146.3,741.7,136.9z M755.3,67.9c-5.1,7.2-7.4,17.2-7.4,29.8c0,25.8,9.9,38.7,30,38.7c19.7,0,29.6-12.8,29.6-38.7
			c0-12.6-2.5-22.6-7.4-29.8s-12.3-10.8-22.2-10.8C767.7,56.9,760.3,60.7,755.3,67.9z"/>
		<path class="st0" d="M845.4,147V46.4c0-1.4,0.7-2,2-2h14.6c1.4,0,2,0.7,2,2l-1.3,17.7c2.3-6.9,6.5-12.3,12.5-16.1
			c6-3.8,13.6-5.8,22.6-5.8c7.6,0,13.9,1.3,19.3,3.8c5.2,2.5,9.4,6.3,12.5,11.2c3.1,5.1,5.2,10.7,6.5,17c1.3,6.3,2,13.7,2.2,22.2
			V147c0,1.4-0.7,2-2,2h-15c-1.4,0-2-0.7-2-2l0.2-50.2c0-14.6-1.8-24.9-6-30.9c-4-6-10.7-8.9-20.2-8.9c-9.6,0-16.8,3.1-21.7,9.2
			c-5.1,6.1-7.4,16.3-7.6,30.5V147c0,1.4-0.7,2-2,2h-14.6C846.2,149,845.4,148.3,845.4,147z"/>
	</g>
	<g>
		<path class="st0" d="M452.6,309.7c-0.9,0-1.4-0.5-1.4-1.3v-92.2c0-0.4,0.1-0.7,0.4-0.9c0.2-0.2,0.6-0.4,0.9-0.4h11.1
			c0.7,0,1.3,0.4,1.6,0.9l46.2,71.8l-0.2-71.3c0-0.4,0.1-0.7,0.4-0.9c0.2-0.2,0.6-0.4,0.9-0.4h9.7c0.4,0,0.7,0.1,0.9,0.4
			c0.2,0.2,0.4,0.6,0.4,0.9v92c0,0.9-0.5,1.3-1.4,1.3h-11.1c-0.7,0-1.3-0.4-1.6-0.9l-46.2-71.9v71.6c0,0.9-0.5,1.3-1.3,1.3H452.6z"
			/>
		<path class="st0" d="M598.8,283.8c0.5,0,0.8,0.1,1.1,0.4c0.2,0.2,0.4,0.6,0.1,1.1c-1.4,8.1-4.7,14.4-9.9,18.9
			c-5.3,4.6-12.2,6.8-20.6,6.8c-9.9,0-17.8-3-23.3-9.1c-5.6-6.1-8.3-14.6-8.3-25.4c0-10.9,2.8-19.6,8.3-26.1
			c5.6-6.5,13.3-9.7,23.3-9.7c9.6,0,17.1,3.3,22.5,9.7c5.4,6.4,8.1,15,8.1,25.6c0,1.1-0.4,1.5-1.2,1.5H550
			c0.1,8.2,1.8,14.3,4.8,18.2c3,4,8,5.8,14.6,5.8c10.4,0,16.5-5.5,18.5-16.5c0.1-0.8,0.6-1.2,1.4-1.2h9.5V283.8z M569.4,250
			c-10.8,0-17,6-18.8,17.9h35.9c0-2.3-0.2-4.4-0.8-6.4c-0.6-2-1.4-3.9-2.6-5.6c-1.2-1.8-3-3.3-5.4-4.2
			C575.4,250.6,572.7,250,569.4,250z"/>
		<path class="st0" d="M646.2,251.4l-18.7-0.7v44.1c0,1.3,0.4,2.2,1.1,2.9c0.7,0.7,1.8,1.1,3,1.1h14.6c0.9,0,1.3,0.5,1.3,1.4v8.2
			c0,0.9-0.5,1.3-1.3,1.3h-13.3c-5.4,0-9.6-1.6-12.7-4.8s-4.8-7.5-4.8-12.9v-41.3l-9.5,0.7c-0.9,0-1.3-0.5-1.3-1.3v-6.8
			c0-0.9,0.5-1.3,1.3-1.3l9.5,0.7v-15.7c0-0.9,0.5-1.4,1.3-1.4h9.5c0.9,0,1.3,0.5,1.3,1.4v15.6l18.7-0.7c0.9,0,1.3,0.5,1.3,1.3v6.8
			C647.5,250.9,647.2,251.4,646.2,251.4z"/>
		<path class="st0" d="M675.9,309.7c-0.5,0-0.8-0.2-1.1-0.8L653.5,243c-0.2-0.7,0-1.1,0.7-1.1h10.9c0.5,0,0.8,0.2,0.9,0.8l17.3,57.4
			l17.1-57.4c0.2-0.6,0.6-0.8,0.9-0.8h11.1c0.5,0,0.8,0.2,0.9,0.8l17.2,57.4l17.1-57.5c0.2-0.6,0.6-0.8,0.9-0.8h11
			c0.7,0,0.9,0.4,0.7,1.1l-21.4,65.8c-0.2,0.6-0.6,0.8-1.2,0.8h-14.5c-0.5,0-0.8-0.2-1.1-0.8l-15.3-47.1l-15.3,47.1
			c-0.2,0.6-0.6,0.8-1.2,0.8h-14.4V309.7z"/>
		<path class="st0" d="M771.7,301.8c-5.6-6.1-8.3-14.6-8.3-25.4c0-10.9,2.8-19.6,8.3-26.1c5.6-6.5,13.3-9.7,23.3-9.7
			c9.8,0,17.5,3.3,23,9.7c5.6,6.4,8.3,15.2,8.3,26.1c0,10.8-2.7,19.2-8.2,25.4c-5.5,6.1-13.2,9.2-23.3,9.2
			C785,310.9,777.3,307.9,771.7,301.8z M780.5,257.1c-3.3,4.7-4.8,11.1-4.8,19.3c0,16.7,6.4,25,19.4,25c12.7,0,19.2-8.3,19.2-25
			c0-8.2-1.6-14.6-4.8-19.3c-3.2-4.7-8-7-14.4-7C788.6,250,783.8,252.5,780.5,257.1z"/>
		<path class="st0" d="M838.8,308.4v-65.1c0-0.9,0.5-1.3,1.3-1.3h9.5c0.9,0,1.3,0.5,1.3,1.3l-0.8,11.2c1.3-4.3,3.5-7.6,6.7-9.6
			c3.2-2,7.6-3,13.4-3h7.1c0.9,0,1.3,0.5,1.3,1.3v6.8c0,0.9-0.5,1.3-1.3,1.3h-7.1c-6.4,0-11.2,2.1-14.4,6.3
			c-3.2,4.2-4.8,10.3-4.9,18.1v32.7c0,0.9-0.5,1.3-1.3,1.3h-9.5C839.2,309.7,838.8,309.2,838.8,308.4z"/>
		<path class="st0" d="M946.1,308c0.4,0.4,0.4,0.8,0.2,1.2c-0.2,0.4-0.6,0.6-1.1,0.6h-11.9c-0.9,0-1.5-0.2-1.8-0.8l-22-29.8
			l-9.8,10.1v19.2c0,0.9-0.5,1.3-1.3,1.3H889c-0.9,0-1.3-0.5-1.3-1.3v-92.2c0-0.9,0.5-1.4,1.3-1.4h9.5c0.9,0,1.3,0.5,1.3,1.4v57.1
			l29.6-30.6c0.5-0.5,0.9-0.7,1.6-0.7h11.9c0.6,0,0.9,0.1,1.1,0.5c0.1,0.4,0.1,0.7-0.4,1.2l-25.5,26.5L946.1,308z"/>
	</g>
</g>
</svg>
