<?xml version="1.0" encoding="utf-8"?>
<!-- Generator: Adobe Illustrator 25.4.1, SVG Export Plug-In . SVG Version: 6.00 Build 0)  -->
<svg version="1.1" id="Logo" xmlns="http://www.w3.org/2000/svg" xmlns:xlink="http://www.w3.org/1999/xlink" x="0px" y="0px"
	 viewBox="0 0 436.5 183.9" style="enable-background:new 0 0 436.5 183.9;" xml:space="preserve">
<style type="text/css">
	.st0{display:none;}
	.st1{display:inline;}
	.st2{fill:#FF0000;stroke:#FF0000;stroke-width:2;stroke-miterlimit:10;}
	.st3{fill:#FF0000;}
	.st4{fill:none;}
	.st5{fill:#FFFFFF;}
</style>
<g class="st0">
	<rect x="-10.5" y="-20" class="st1" width="452.5" height="212.7"/>
</g>
<g>
	<g>
		<path class="st2" d="M63.1,106.5l3.4-0.1l0.2,1.2l-0.1,1.3H65l-0.4-0.1l-1.1-0.1h-1.1l-0.2,1.2l0.1,0.6l-0.1,2c0,0.6,0,1,0,1.1
			s0,0.2,0,0.3c0,0.2,0,0.3,0,0.3v0.5v2.1l-0.3,1.7l0,0l0.4,0.5v5.2l0.3,2l-1.1,0.4l-1,0.1l-1.9-0.2v-2.1l0.5-1.7l-0.3-0.3l0.2-3.9
			l0.2-5.6l-0.2-1.3l0.1-1.8l-0.2-1.1l-0.8-0.1l-0.2,0.1c-0.2,0.1-0.4,0.1-0.6,0.1l-2.2,0.1l-0.4-0.3l0.1-2.3l3.5,0.1l0.7,0.2
			c0.1,0,0.2,0,0.4-0.1c0.2-0.1,0.3-0.1,0.4-0.1c0.4,0,0.9,0,1.5,0L63.1,106.5z"/>
		<path class="st2" d="M69.5,122.2l0.3-3.8l-0.3-3.1l0.1-2.7l-0.3-1.7l-0.1-1.8l0.1-0.6l-0.3-1.7l0.9-0.4l3.1,0.3l-0.1,2l-0.2,1.7
			l-0.4,0.5l0.4,0.2l-0.1,1.8l0.3,2.7H73l1.5-0.4l0.6,0.2l0.4-0.4l1.5-0.5l0.7-0.2l0.4-0.1l0.1-0.7l-0.1-2.5l-0.1-2.5l-0.2-1.1
			l0.5-0.8h1.3l2.1,0.1l-0.1,1.4l-0.2,1.6l0,0v1.1l-0.4,0.4l0.3,0.8l-0.2,2.6l0.1,1.2l0.1,0.6l0.1,5l0.1,3.5l0.3,0.7l0.1,1.5
			l-1.3,0.1h-2.1l-0.5-1l0.3-3.1l0.4-0.2l-0.5-0.4l0.1-4.3l-0.1-0.4v-0.5l-2.1,0.4l0,0l-2.8,0.9l-0.2,4.8v0.1l0.2,1.5l0.1,1.2v1
			l-1.5,0.1l-2.3-0.2l0.1-1.9l0.6-0.5l-0.5-0.4L69.5,122.2z"/>
		<path class="st2" d="M95.7,109.1H94l-0.9-0.2H93l-0.5,0.1l-2-0.1h-0.3v0.3l-0.1,0.7v2.7l-0.2,0.8l-0.4,0.6l0.4,0.2l0.1,1.1
			l1.3,0.1l1.4-0.1l1.9-0.1l0.5,0.7l-0.2,0.8l-0.1,1.1l-1.8-0.1l-2.3-0.1h-0.6l-0.1,2.9l0.2,0.8l-0.1,0.2v0.1l0.1,2.7l0.3,0.1
			l0.3,0.1h2.9l0.9-0.2h1.8l-0.1,1.4l-0.1,1l-0.8,0.3H93l-2.1-0.2h-1.3l-0.3,0.1h-2.7l-0.2-1.1l0.2-1.9v-0.3v-1.3l0.4-0.7l-0.3-0.3
			v-0.6v-1.5l0.1-0.2l-0.3-2.7l0.1-1v-2v-2.2v-1.4l0.4-0.5l-0.4-0.4l-0.2-2l1.7-0.2h2.1l0.5,0.2l1.4-0.2h3.6v1.1L95.7,109.1z"/>
	</g>
</g>
<path class="st3" d="M0,161.2c0,0,35.4,0.5,41.3,0.4s6.2,2.4,9.7,2.4s6.8,0,6.8,0s1.4,1,3-0.5c1.5-1.5,1.5-1.8,1.5-1.8
	s9.8,0,13.3-0.3s11.9-0.6,14.1-0.3c2.1,0.4,23.9,0.7,26.9,0.2c3-0.6,23.1-0.6,24.8-1.3c1.7-0.8,2.4-1.2,2.4-1.2s126.1,0.8,124.3,0
	s-32.7-2.8-53.2-3.3s-70.5,0.5-73.5,0s-12.3-0.8-20,1s-28.3-1.9-39.7-0.4c-8.7,1.2-11.1-0.4-24.3,0.4s-22.6,1.2-22.6,1.2
	s-5.4,0.2-8.2,0c-2.7-0.2-4.6,0-4.6,0s2.2,1.4-2,1.7c-4.1,0.4-5.9-1.1-9.8-0.6C6.3,159.2,0,161.2,0,161.2z"/>
<path class="st3" d="M209.4,100.1c0,0.1,0,0.2,0,0.2C210.3,100.8,210.3,100.7,209.4,100.1 M196.8,89.4c0,0.1,0.1,0.1,0.1,0.1
	C197.8,90.1,197.7,90,196.8,89.4 M193.6,93.7c0,0.1,0,0.2,0.1,0.2C194.5,94.4,194.5,94.4,193.6,93.7 M195.5,89.7
	c0,0.1,0,0.1,0.1,0.1C196.5,90,196.5,90,195.5,89.7 M210.2,95.4c0.9,0.5,0.9,0.4-0.1-0.2C210.1,95.4,210.1,95.4,210.2,95.4
	 M210.6,93.7c-0.1,0.4,0,0.5,0.2,0.5l0.6-0.1C211.9,92.5,211.6,92.4,210.6,93.7 M207.1,97.1v0.4c1-0.6,1-0.9,0-0.9
	C207.1,96.8,207.1,96.9,207.1,97.1 M206.2,96.5c0.8,0.8,0.8,0.8-0.1-0.2C206.1,96.4,206.1,96.5,206.2,96.5 M245.6,108.7
	c-0.1,0-0.2,0-0.3,0v0.2C245.4,108.9,245.5,108.9,245.6,108.7L245.6,108.7 M217.9,99.7c0.2-0.9,0-1.4-0.7-1.5c0,0.3,0,0.7,0.1,1h0.1
	c0,2,0.1,2.3,0.3,0.8c0-0.1,0-0.2,0-0.3C217.9,99.7,217.9,99.7,217.9,99.7 M218.6,95.3c0.8,0.5,0.8,0.5-0.1-0.2
	C218.5,95.2,218.5,95.3,218.6,95.3 M216.7,95.6c1.1,0.1,1-0.2-0.3-0.9C216.4,95.2,216.5,95.5,216.7,95.6 M212.5,89.4
	c0,0.3,0.1,0.5,0.1,0.5C213.9,90.2,213.9,90,212.5,89.4 M238.8,99.2c0,0.1,0,0.2,0.1,0.1C239.7,99.9,239.7,99.9,238.8,99.2
	 M239.6,101c0.3,0.5,0.6,1,1,1.3l0.3,0.3C242,101.9,241.6,101.3,239.6,101 M240.1,104c0,0.1,0,0.1,0.1,0.2
	C241.3,104.8,241.3,104.7,240.1,104 M209.7,49.6c-0.1,0-0.1,0-0.1,0.1c-0.6,1.1-1.4,2-2.3,2.7c0,0.1,0,0.2,0,0.3
	c-0.1,0-0.2,0-0.2,0.1c-0.2,0.2-0.4,0.4-0.6,0.7c0,0.1,0,0.2,0,0.3c0,0.1,0,0.1-0.1,0.1c-0.3,0.1-0.5,0.4-0.7,0.7c0,1,0.4,0.9,1-0.3
	c0,0,0-0.1,0.1-0.2c0.2-0.3,0.4-0.6,0.6-0.8c0,0,0-0.1,0.1-0.2c0.1,0,0.2,0,0.2,0C208.5,51.9,209.2,50.8,209.7,49.6 M209.7,49.1
	c0.4,0.4,1,0.1,1.8-0.8c0.2-0.2,0.1-0.4-0.1-0.6C211,47.1,210.4,47.6,209.7,49.1 M221.3,40.3c-0.2,0.6-0.1,1,0.2,1.2
	C222.6,41,222.6,40.6,221.3,40.3 M197.2,83.4c0.9-0.3,0.9-0.4,0-0.2V83.4 M195.9,81v0.5C197,79.8,197,79.6,195.9,81 M193.1,77
	c0.1,0,0.1,0,0.1,0c1.1-2.1,1-2.1-0.4-0.2c0,0.1,0,0.2,0,0.3c-0.1,0-0.1,0-0.1,0.1c-0.2,0.3-0.4,0.5-0.6,0.7c0.4,0.3,0.7,0.1,1-0.6
	C193.1,77.1,193.1,77.1,193.1,77 M195.5,75.3l-0.9,1c0.1,0.4,0.3,0.7,0.8,0.7c0.1,0,0.2,0.1,0.3,0c0,0.1,0,0.1,0,0.1
	c1,0.2,1,0.1,0-0.4C195.8,76.1,195.7,75.7,195.5,75.3 M181.6,88.3c-0.1,0-0.1,0-0.2,0c-0.5,0.2-1.1,0.5-1.6,0.7
	c0.7,0.6,1.4,0.4,2-0.6c0.1-0.1,0.1-0.2,0.1-0.2l0.5-0.5c0.9-0.6,0.7-0.5-0.7,0.2C181.6,88.1,181.6,88.2,181.6,88.3 M175.1,81.8v0.4
	C175.9,82.2,175.9,82.1,175.1,81.8 M183.2,75.6L183.2,75.6C184.5,75.3,184.5,75.3,183.2,75.6 M180.1,78.1
	C181.6,77.6,181.6,77.5,180.1,78.1L180.1,78.1 M176.3,68c1,1.1,1,1-0.1-0.2C176.2,67.9,176.3,68,176.3,68 M183.5,59.9L183.5,59.9
	C185.1,59.3,185.1,59.3,183.5,59.9 M196.7,59.9L196.7,59.9C197.5,59.7,197.5,59.7,196.7,59.9 M186.3,40.5v0.4c0.7,0,0.7-0.4,0-1.2
	C186.3,40,186.3,40.3,186.3,40.5 M176.4,38.3c0,0.1,0,0.2,0.1,0.2C177.3,39.3,177.3,39.2,176.4,38.3 M225.6,101.4
	c0.1-0.6-0.4-1.1-1.4-1.3c0,0.5,0.1,1,0.2,1.3c0.2,0.3,0.4,0.5,0.7,0.7c0.2,0.1,0.3,0.1,0.3,0C225.5,102,225.6,101.7,225.6,101.4
	 M220.5,88.7c0.1,0.1,0.2,0.1,0.3,0.2c1,0.7,1,0.7,0-0.1C220.7,88.7,220.6,88.7,220.5,88.7C220.4,88.6,220.5,88.7,220.5,88.7
	 M226.7,58.6c0.3,0,0.5,0,0.7,0h0.1C227.3,58.6,227,58.5,226.7,58.6h-0.1H226.7C226.6,58.6,226.7,58.6,226.7,58.6 M215.2,78.7
	C216,79.2,216,79.2,215.2,78.7C215.2,78.6,215.2,78.6,215.2,78.7 M214.2,78.3c0,0.1,0,0.1,0,0.2c0.5,1.5,1.1,2.9,2.1,4
	c0-0.1,0-0.1-0.1-0.2C215.7,80.8,215,79.5,214.2,78.3 M227.8,53.2c-0.1,0-0.1,0-0.2,0.1c-0.4,0.3-0.9,0.5-1.3,0.7
	c0.3,0.2,0.8,0.2,1.5,0c0.1-0.1,0.2-0.1,0.2-0.1c0.7,0.1,1-0.1,0.9-0.7c0,0,0,0-0.1,0c0.2-0.2,0.4-0.4,0.7-0.4c0.2,0,0.3,0,0.4-0.1
	c0.3,0,0.4-0.2,0.2-0.4l-0.1-0.1l0,0h-0.1c-0.3-0.1-0.9,0.1-1.9,0.7c0,0.1,0,0.2,0,0.3C228,53.1,227.9,53.1,227.8,53.2 M223.8,92
	c0,0.1,0,0.1,0.1,0.2C225.2,93.6,225.2,93.5,223.8,92 M222.8,77.9C222.8,78,222.8,78,222.8,77.9C224.6,78.7,224.6,78.7,222.8,77.9
	 M225,73.5c0.1-0.7-0.1-1.2-0.5-1.5c-1-0.5-1.5-0.3-1.7,0.6c-0.2,1.1-0.7,1.5-1.6,1.2c0,0.1,0,0.1,0.1,0.1
	C223.1,75.4,224.3,75.3,225,73.5 M226.8,72.8c1.4,0,1.4-0.1,0-0.4V72.8 M227.3,68.6C227.3,68.7,227.3,68.8,227.3,68.6
	C228.2,69.3,228.2,69.2,227.3,68.6 M220.4,70.5v0.4C221.4,70.5,221.4,70.4,220.4,70.5 M223.7,55.2L223.7,55.2
	C226,54.5,226,54.5,223.7,55.2 M222.2,53.2c0,0.1,0,0.2,0.1,0.2C223.1,53.9,223.1,53.9,222.2,53.2 M219.6,58.7
	c0.1,0,0.1-0.1,0.2-0.1c0,0.1,0,0.2,0,0.3c0,0.1-0.1,0.1-0.1,0.2h-0.1c0.1,2.3,1.1,2.8,2.8,1.4c0.1-0.1,0.2-0.3,0.2-0.7
	c-0.1-0.8-0.6-1.2-1.4-1.2c0-0.1-0.1-0.2-0.1-0.2c-0.1-0.1-0.1-0.2-0.2-0.3c0-0.1,0-0.2,0-0.3c0.3-0.2,0.7-0.4,0.9-0.6
	c0,0,0-0.1,0-0.2c0.6-0.2,1.1-0.5,1.4-1l0.2-0.3c-0.5-0.3-1.1,0-1.8,0.8c0,0.1,0,0.2,0,0.3c-0.1,0-0.2,0-0.2,0.1
	c-1,0.6-1.9,1.3-2.7,2C218.7,59.4,219.1,59.4,219.6,58.7 M218.2,51v0.2C220.1,51,220.1,51,218.2,51 M221.4,48.7c0-0.1,0-0.2-0.1-0.2
	c-0.4-3.3-1.7-3.8-3.8-1.8c0,0.1,0,0.2,0,0.3C217.9,49.2,219.2,49.8,221.4,48.7 M220.4,50.4C221.6,50.3,221.6,50.3,220.4,50.4
	L220.4,50.4 M192.4,81c0,0.3,0.1,0.7,0.2,1c0.2,0.8,0.6,0.9,1.1,0.3c0.3-0.4,0.5-0.7,0.6-1c0.2-0.5,0-0.7-0.7-0.6
	C193.2,80.8,192.9,80.9,192.4,81 M191.9,78.8l0.1-0.3c-0.5,0.2-1,0.6-1.7,1.2c-0.2,0.2-0.4,0.3-0.7,0.5c0,0.1,0,0.1,0.1,0.1
	c0.4,0.1,0.9-0.1,1.4-0.6C191.3,79.6,191.6,79.2,191.9,78.8 M194.6,58.9c0,0.2,0,0.4,0.1,0.4c0.2,0,0.4,0.1,0.6,0.1
	c1,0.2,0.9,0.1-0.1-0.3C195,59.1,194.9,59,194.6,58.9 M183.6,50c0-0.1,0-0.2,0-0.3c-0.2-1-0.7-1.6-1.5-2c0.3,1,0.7,1.8,1.4,2.4
	c0,0.1,0.1,0.1,0.2,0.1c0.4,0.7,0.7,1.4,1,2.2c0,0.1,0,0.1,0,0.2c-0.1,0-0.1,0-0.2,0c-1.5-2.5-4-4-7.5-4.4c0,1.2,0.3,2,0.9,2.5
	c0.1,0.1,0.1,0.1,0.2,0.2c0,0.1,0.1,0.1,0.2,0.1c0.6-0.5,1.3-0.7,2.1-0.6c0.7,0.1,1.4,0.4,2.2,0.9c0,0.1,0.1,0.1,0.1,0.2
	c0.4,0.7,0.8,1.4,1.2,2c0,0.1,0,0.1,0,0.2c0.3,0.4,0.6,0.8,0.9,1.2c0,0,0.1,0,0.2,0c0,0.3,0.1,0.5,0.1,0.7c0,0,0.1,0,0.2,0
	c-0.1,0.6,0,0.9,0.3,1.1c0.1,0,0.1,0.1,0.2,0.1v0.1c0,0.1,0,0.2,0,0.3c0,0.1,0,0.2,0,0.2l0,0c0.1,0.3-0.1,0.3-0.5,0.3v-0.1
	c-0.5-0.1-1-0.3-1.6-0.6c0-0.1,0-0.2,0-0.3c-0.1-0.4-0.4-0.6-1-0.5c-0.2,0.7,0,1.1,0.5,1c0.1,0,0.2,0,0.3,0c0.3,0.1,0.5,0.3,0.7,0.7
	c0,0,0,0,0.1,0c0.3,0.7,0.8,1.2,1.4,1.7c0.1,0.1,0.2,0.1,0.2,0.1c0.2,0.3,0.4,0.5,0.7,0.7c0.3,0.1,0.5,0.2,0.8,0.3
	c0.1,0.1,0.2,0.1,0.3,0c0.6,1.2,1.6,2.1,2.9,2.7c0.2,0.1,0.3,0.1,0.4,0.2c0,0,0.1,0.1,0,0.2c-0.1,1.4,0,2.5,0.5,3.3
	c0.1,0.1,0.1,0.2,0.1,0.2c-1,1.7-0.9,3.2,0.4,4.4c0.1,0.1,0.1,0.1,0.1,0.2c-0.1,0-0.2,0-0.2,0c-0.6-0.8-1.1-0.6-1.6,0.6
	c0-0.1,0-0.2-0.1-0.2c-0.1-0.5-0.4-0.6-0.7-0.3c-0.1,0.4,0,0.7,0.3,0.8c0.1,0,0.2,0,0.3,0s0.1,0,0.2,0.1c0.9,0.6,0.6,1.1-0.9,1.7
	c0,0.1,0,0.2,0,0.3c-0.3,0-0.5,0-0.5-0.1c-0.4-2-1.4-2.4-3.1-1.4c0.5,2.9,1.7,3.4,3.8,1.7c0,0,0-0.1,0.1-0.2c1-0.4,2-0.9,2.8-1.5
	c0.1,0,0.1-0.1,0.2-0.1c0.1,0,0.2,0,0.3,0c0.3,0.4,0.8,0.7,1.5,0.8c0.1,0,0.2,0,0.3,0h0.2c0.1,0.3-0.1,0.4-0.4,0.5
	c0.1,0.5,0.5,0.4,1.1-0.2h0.1c0.7,1,1.4,1.5,2.1,1.7c0.1,0,0.2,0,0.3,0c-0.1,1.3,0.1,1.9,0.5,1.8c0.1,0,0.2,0,0.3,0
	c0,0.1,0,0.2,0,0.3c0,0.8-0.2,1.4-0.5,2c0,0.1,0,0.2,0,0.3c0,0.1,0,0.2,0.1,0.2c0.1,0.4,0,0.5-0.3,0.5c0.2,1.5,0.3,1.3,0.5-0.5
	c0-0.1,0-0.2,0-0.3c0.8-0.3,1.2,0.6,1,2.8c0,0,0.1,0.1,0.3,0.3c0.3,0.3,0.4,0.2,0.3-0.1c0.1,0,0.2,0,0.3,0s0.2,0,0.3,0
	c0.3,0.4,0.5,0.3,0.7-0.3c0-0.1,0-0.2,0-0.3c0.1,0,0.1,0,0.1,0.1c0.7,1.3,0.5,2.4-0.3,3.2c0,0.1,0,0.2,0,0.3c-0.1,0-0.2,0-0.2,0.1
	c-0.6,0.3-1.5,0.1-2.8-0.5c0,0.5,0.1,0.9,0.4,1.2c0,0,0.1,0,0.2,0.1c0,0.1,0,0.1-0.1,0.2c0,0-0.1,0.1-0.2,0.1c0.2,1,0.4,1,0.7,0.2
	c0.1-0.1,0.1-0.2,0.1-0.2c0.2,0.8,0.7,1,1.3,0.6c0.7-0.5,1.7-0.7,3-0.7c1-0.4,1.9-0.3,2.6,0.3v-0.1c0.1-0.6-0.3-0.9-1.1-0.9
	c0-0.1,0-0.2-0.1-0.2c-0.1-0.1-0.2-0.2-0.4-0.3c0-0.1,0-0.1,0-0.2c-0.2-0.4-0.4-0.8-0.7-1.1c0-0.1,0-0.2,0-0.3c0-0.4,0-0.8,0-1.3
	c0.2-0.1,0.3-0.2,0.4-0.3c0,0,0-0.1,0.1-0.2c1.2-0.7,2.4-0.3,3.6,1.2c1,1.1,1.9,2.2,3,3.3c0.1,0.9,0.2,1.7,0.3,2.5
	c0,0.1,0,0.1,0.1,0.2h-0.1c0,0.6-0.2,0.9-0.7,1c0.6,1.8,0.9,1.6,0.8-0.5c0-0.1,0-0.2,0-0.3c0.7-0.9,0.9-2.1,0.6-3.5h0.1
	c0.5,0.8,1.1,1.4,1.6,1.9v-0.1c0.3-0.3,0.6-0.3,0.7,0c0,0.1,0.1,0.1,0.1,0.2c-0.1,0-0.2,0-0.3,0c-0.1,0.6,0.1,0.9,0.3,1.2
	c0.1,0.1,0.2,0.1,0.2,0.1c0.2,0.4,0.3,0.8,0.5,1.2c0,0.1,0,0.2,0.1,0.3c0.3,1.5,0.8,2.4,1.6,2.6v-0.1c0.6-1.3,0.3-2.1-1-2.5
	c-0.1,0-0.2,0-0.2,0.1c0-0.1,0-0.2-0.1-0.3c-0.1-0.4-0.2-0.8-0.2-1.2c0-0.1,0-0.2,0-0.2c0.4-0.4,0.3-0.7-0.1-1.1c0-0.1,0-0.2,0-0.3
	c0-0.1,0-0.2,0-0.3c0.1,0,0.2,0,0.3,0c1,0.4,1.5,0.9,1.4,1.5c0,0.4,0.2,0.8,0.5,1.1c1.7,1.2,3.1,2.8,4.2,4.6c0.2,0,0.4,0,0.6,0
	c1.2,0.1,2.3,0.5,3.3,1.2c0,0,0.1,0,0.2,0c0.7,1.6,1.4,3.1,2.2,4.4c0.2,0.4,0.5,0.7,0.7,1.1c0.1,0.2,0.3,0.4,0.5,0.6
	c0.5-0.2,0.8-0.8,0.8-1.8v-0.1c0-0.3,0-0.7,0-1.2c-0.7-1.7-1.6-2.9-2.6-3.7l0,0c-0.5,0.1-1,0-1.5-0.3c0-0.1,0-0.2,0-0.3
	c0-0.4-0.3-0.5-0.8-0.5c0-0.1,0-0.1,0-0.1c0-0.1-0.1-0.1-0.2-0.1c0-0.1,0-0.1,0-0.2c-0.5-0.8-1.1-1.6-1.7-2.2c0-0.1,0-0.2-0.1-0.3
	c-0.4-0.5-0.8-1-1.4-1.2c0-0.1,0-0.1-0.1-0.1c0,0,0,0-0.1,0c-1.4-0.9-2.7-2-3.8-3.4c0-0.1,0-0.2,0-0.2c-2-3-4.1-6-6.2-8.8
	c1.3-0.4,2.3-1,3-1.9c0,0,0-0.1,0.1-0.2c1.5-0.5,2.6-1.3,3.5-2.4c0-0.1,0-0.1,0-0.2c0.1-0.1,0.2-0.2,0.3-0.2s0.1,0,0.2-0.1
	c0,0.1,0,0.1,0.1,0.1c0.3,0.1,0.6,0.2,0.8,0.3c0.7,0.4,1.4,1,2,1.8c0.1-0.1,0.2-0.2,0.2-0.2c-0.3-0.8-1-1.5-2.3-2.1
	c-0.2-0.1-0.5-0.2-0.7-0.3c0-0.1,0-0.2,0.1-0.2c0.6-0.7,0.6-1.2-0.1-1.3c0-0.1,0-0.2,0-0.3c0-0.1,0-0.1,0.1-0.2
	c0.4-0.3,0.3-0.8-0.3-1.4c0-0.1,0-0.1,0-0.2c-0.5-0.9-0.9-1.8-1.3-2.9c0.5,0,1.1,0.1,1.6,0.1c0.7,0.1,1.4,0.3,2,0.6
	c0.1,0,0.2,0,0.3,0c1-1.2,0.6-2.2-1-3.1l-0.1-0.1c0-0.1,0-0.2,0-0.3c0.7-0.4,0.9-0.5,0.5-0.5c-0.1,0-0.2,0-0.3,0
	c0-0.1,0-0.2-0.1-0.2c-0.1-0.7-0.3-0.7-0.7,0c0,0.1,0,0.2,0,0.3c0,0.1,0,0.2,0,0.3c-0.1,0-0.2,0-0.3,0c-0.3-0.1-0.6-0.1-1-0.2
	c-1.1-0.2-2.3-0.4-3.6-0.4c0.6-0.4,1.2-0.9,1.7-1.4c0,0,0-0.1,0.1-0.2c0.1,0,0.2,0,0.2-0.1c0.4-0.2,0.9-0.4,1.3-0.6
	c0.6-0.3,1.1-0.7,1.5-1.1c-0.1,0-0.2,0-0.3,0.1c-0.4,0.2-0.9,0.4-1.3,0.6c-0.6,0.3-1.3,0.6-1.9,0.9c0,0.1,0,0.2,0,0.3
	c-0.1,0-0.2,0-0.1,0c-0.3,0.4-0.8,0.8-1.4,1c0,0.1,0,0.2,0,0.3c-0.8,0.7-1.2,0.6-1.3-0.2l0,0c0-0.9-0.2-1.5-0.8-2
	c1.9-1.4,2.8-3.4,2.7-5.9c0-0.1,0-0.2,0-0.3c0.1,0,0.2-0.1,0.2-0.1c1.4-1.5,1.3-1.6-0.2-0.4c0,0.1,0,0.2,0,0.3c-0.1,0-0.2,0-0.3,0
	s-0.2,0-0.3,0c-0.6,0-0.9-0.3-1-0.8c0-0.1,0-0.1,0-0.1c-0.3-0.3-0.3-0.7-0.2-1.4c0.8-0.9,1.5-1.9,2.1-3l0,0h0.1c0-1.1,0.3-2,0.8-2.5
	c0,0,0.1-0.1,0.2-0.1c0.1-0.3,0.2-0.6,0.2-1c0-0.2,0-0.4,0-0.6c0-0.1,0-0.2,0-0.3c0.9-1,1.6-2.2,2.2-3.6c0.1-0.1,0.1-0.2,0-0.3h0.1
	c0.2-0.9,0.1-1.6-0.1-2.1c-0.8,0.2-1.3,0.8-1.6,1.8c-0.1,0.7-0.4,1.4-0.8,2.2c-0.7,1.2-1.3,2.5-1.8,3.9c-0.7,2-1.6,3.4-2.6,4.3
	c-0.1,0-0.1,0-0.2,0c-1.2,2.5-2.7,4.6-4.5,6.4c0,0.1,0,0.2,0,0.3c0,1.7-0.5,2.1-1.5,1.3h-0.1c-0.2-1.9-1.2-3.4-3-4.3
	c-0.1,0-0.1,0-0.1,0.1c-0.5,0.9-0.2,1.5,0.9,1.7c-0.8,0.5-1.3,1.3-1.4,2.4c-0.1,0.7-0.3,1-0.6,1c-0.8,0.1-1.6,0-2.5-0.3
	c0,0.1,0,0.2,0,0.3c-0.1,0-0.1,0-0.2-0.1c-0.3-0.4-0.7-0.6-1.2-0.7c0.2,0.4,0.5,0.7,0.9,0.9c0.1,0,0.1,0,0.2,0.1
	c0,0.3,0.1,0.6,0.3,0.7c0.2,0.2,0.3,0.4,0.3,0.5c-0.2,1.6-1.5,2.8-3.9,3.4c0-0.1,0-0.2,0-0.3c0.2-0.8,0.2-1.6-0.1-2.2
	c-0.3-0.8-1-1.5-2-2.1c0-0.1,0-0.2-0.1-0.2c-0.3-0.9-0.7-1.8-1-2.7c0-0.1,0-0.2-0.1-0.3c-0.2-0.6-0.4-1.2-0.7-1.7c0-0.1,0-0.2,0-0.3
	c0.1-0.7-0.4-1.2-1.5-1.5c0-0.1,0-0.1-0.1-0.1c-0.4-0.3-0.8-0.5-1.2-0.6c0,0.8,0.3,1.1,1,1.1c0.1,0,0.1-0.1,0.2-0.1
	c0.4,0.5,0.8,0.9,1.2,1.3c0,0.1,0.1,0.1,0.1,0.2c0.1,0.9,0.3,1.8,0.6,2.5c0,0,0.1,0.1,0.2,0.1c0.1,1,0.3,1.8,0.7,2.5
	c0,0.1,0.1,0.1,0.1,0.2s0,0.2,0,0.3c0,0.5-0.3,0.7-1,0.6c-0.1,0-0.2,0-0.3,0c-0.4-0.3-0.8-0.6-1-1c0-0.1-0.1-0.2-0.1-0.2
	c-0.3-0.4-0.6-0.9-0.9-1.3c0-0.1,0-0.2,0-0.1c-0.4-0.2-0.6-0.5-0.5-1.1c0-0.1,0-0.1,0-0.2c-0.4-0.8-0.9-1.5-1.5-2.1
	c0-0.1,0-0.2,0-0.3c-0.1-0.3-0.2-0.4-0.5-0.5c0-0.1,0-0.1,0-0.2c-0.3-0.4-0.6-0.8-1-1.1c0-0.1,0-0.1,0-0.2
	C184.7,51.4,184.2,50.6,183.6,50 M190.9,94.3c0.5,0.8,0.5,0.7-0.1-0.2C190.8,94.1,190.9,94.2,190.9,94.3 M190.7,83.9
	c0.2,0.5,0.5,0.3,0.8-0.6C191.8,82.3,191.5,82.4,190.7,83.9 M192.5,84.3c0,0.1,0,0.2,0,0.2C193.3,85,193.3,84.9,192.5,84.3
	 M191.3,89.7L191.3,89.7C192.4,89,192.4,88.9,191.3,89.7 M193,88.7c0,0.1,0,0.1,0.1,0.2C193.9,89.3,193.9,89.2,193,88.7 M186.7,90.5
	C186.7,90.6,186.7,90.6,186.7,90.5C187.6,91.2,187.6,91.2,186.7,90.5 M185.9,85.8C186.7,86.3,186.7,86.2,185.9,85.8
	C185.9,85.8,185.9,85.9,185.9,85.8 M188.1,81.9L188.1,81.9C189.4,81.6,189.4,81.6,188.1,81.9 M169.9,52.7l0.3,0.3
	C171.2,52.9,171.1,52.8,169.9,52.7 M175.2,48.8c0,0.5,0.3,0.8,0.7,0.7C177.3,49.5,177,49.3,175.2,48.8 M174.3,50.6
	c1.2,0,1-0.3-0.6-0.7C173.7,50.3,173.9,50.6,174.3,50.6 M174.2,48.6c1.3-0.1,1.1-0.4-0.5-0.8C173.6,48.4,173.8,48.7,174.2,48.6
	 M193.3,55.4c0,0.1,0.1,0.2,0.1,0.2C195.3,56.9,195.3,56.8,193.3,55.4 M185.1,44.9c0,0.1,0,0.1,0,0.2
	C185.9,45.6,185.9,45.6,185.1,44.9z"/>
<g>
	<path class="st4" d="M173.7,49.9c0,0.5,0.2,0.7,0.6,0.7C175.4,50.5,175.2,50.3,173.7,49.9z"/>
	<path class="st4" d="M175.9,49.6c1.4,0,1.1-0.3-0.7-0.7C175.3,49.4,175.5,49.6,175.9,49.6z"/>
	<path class="st4" d="M71.4,49.6l-0.1-0.2h-0.1c-0.2,0-0.3,0.2-0.4,0.6h0.1C71.2,49.8,71.4,49.7,71.4,49.6z"/>
	<path class="st4" d="M174.2,48.6c1.3-0.1,1.1-0.4-0.5-0.8C173.6,48.4,173.8,48.7,174.2,48.6z"/>
	<path class="st4" d="M193.3,55.4c0,0.1,0.1,0.2,0.1,0.2C195.3,56.9,195.3,56.8,193.3,55.4z"/>
	<path class="st4" d="M185.9,85.7C185.9,85.8,185.9,85.9,185.9,85.7C186.7,86.3,186.7,86.3,185.9,85.7z"/>
	<path class="st4" d="M169.9,52.7l0.3,0.3C171.2,52.9,171.1,52.8,169.9,52.7z"/>
	<path class="st4" d="M143.4,71l-0.2-1.1l-0.8-1.4c0.2,0,0.2-0.1,0.2-0.2v-0.1c-0.2-0.2-0.3-0.3-0.3-0.4c-0.1-0.5-0.6-1.7-1.4-3.5
		h0.1c-0.9-1.9-1.6-2.8-1.9-2.7c-0.1,0.1-0.1,1.3,0,3.9c0,1.4,0,3.1-0.2,5.1l0.1,0.2v0.1c-0.1,0.3-0.1,0.8,0,1.4l0.2,0.5
		c0.1-0.1,0.4,0,0.7,0.1c1.9-0.8,3.1-1.2,3.5-1.3c0,0.1,0.1,0.1,0.2,0.1l-0.1-0.2C143.5,71.1,143.5,71,143.4,71z"/>
	<polygon class="st4" points="180.8,92.5 181,92.6 181,92.5 180.8,92.4 	"/>
	<path class="st4" d="M221.4,48.7c0-0.1,0-0.2-0.1-0.2c-0.4-3.3-1.7-3.8-3.8-1.8c0,0.1,0,0.2,0,0.3
		C217.9,49.2,219.2,49.8,221.4,48.7z"/>
	<path class="st4" d="M114.3,87.2c-0.5,0.1-1,0.3-1.5,0.4c-0.1,0-0.2,0-0.2,0.1h-0.1c0,0.1,0,0.2,0,0.4c0.4-0.1,0.8-0.2,1.1-0.3
		c0.1,0,0.1,0,0.2-0.1c0.3-0.1,0.6-0.2,0.8-0.4c0,0,0-0.1,0-0.2C114.5,87.2,114.4,87.2,114.3,87.2z"/>
	<path class="st4" d="M101.4,85C101.4,84.9,101.4,84.9,101.4,85l-0.1-0.9c0-0.1,0.1-0.1,0.2-0.1l-0.1-0.2l-0.1-1.4
		c0-0.1,0-0.1,0.1-0.1c0-0.8-0.9-1.5-2.7-1.9c-0.1,0-0.2,0-0.2,0.1l-0.8-0.1h-2.4c-0.1,0-0.1,0-0.1,0.1l-0.6-0.1h-0.3
		c-0.8,0-1.4,0.5-1.8,1.5c0.2,1.3,0.2,2.2,0.2,2.9l0.3,5c0,0.6,0,1.1-0.1,1.5c0,0.1,0,0.1,0.1,0.1v0.7c0.1,0,0.1,0,0.1,0
		c0.4-0.1,0.9-0.2,1.3-0.3c0.1,0,0.1-0.1,0.2-0.1c-0.1-0.1-0.1-0.2-0.1-0.3c0-0.1,0-0.2-0.1-0.3c0.2,0,0.3-0.1,0.4-0.1
		s0.2,0,0.2-0.1c0.1-0.1,0.3-0.1,0.4-0.1s0.1,0,0.2,0c0.6-0.5,1.2-0.9,2-1.3c0.1,0,0.1,0,0.2,0v-0.2c-0.5,0.2-0.9,0.1-1.2-0.3
		c-0.1,0-0.1,0-0.2,0.1c-0.1,0-0.1,0-0.2,0.1c0,0.1,0,0.2,0,0.3c-0.6,0.7-1.3,0.7-2-0.1c0.4-0.3,1-0.6,1.6-0.8c0.1,0,0.2,0,0.2-0.1
		c0.4-0.1,0.7-0.2,1.1-0.3c0.1,0,0.1,0,0.2-0.1c0-0.1,0-0.2-0.1-0.3c0.5-0.1,1-0.3,1.5-0.4c0.1,0,0.1,0,0.2,0c0.6-0.4,1.4-0.8,2.2-1
		c0.1,0,0.1,0,0.2,0c0-0.1-0.1-0.2-0.1-0.3h0.1V86c0.1,0,0.1,0,0.1-0.1c-0.1,0-0.1-0.1-0.1-0.2l0.2-0.1L101.4,85z"/>
	<path class="st4" d="M113,89.4c-0.1,0-0.1,0-0.2,0s-0.1,0-0.2,0.1l0,0c0,0.3-0.1,0.6-0.1,0.8c0.1,0,0.1,0,0.1,0
		c0.1,0,0.1,0,0.2-0.1c0-0.1-0.1-0.2-0.1-0.3c0.2,0,0.3-0.1,0.4-0.1s0.1,0,0.2-0.1c-0.1-0.1-0.1-0.2-0.1-0.3
		C113.2,89.4,113.1,89.4,113,89.4z"/>
	<rect x="226.8" y="67.2" transform="matrix(0.9788 -0.205 0.205 0.9788 -8.9661 47.9539)" class="st4" width="0.3" height="0.1"/>
	<path class="st4" d="M218.2,51v0.2C220.1,51,220.1,51,218.2,51z"/>
	<path class="st4" d="M220.4,70.5v0.4C221.4,70.5,221.4,70.4,220.4,70.5z"/>
	<path class="st4" d="M226.8,72.8c1.4,0,1.4-0.1,0-0.4V72.8z"/>
	<path class="st4" d="M229.4,78.9c0.2,0,0.2-0.1,0.2-0.3v-0.1l-0.6,0.1l-0.1,0.2l0.3,0.1L229.4,78.9z"/>
	<path class="st4" d="M227.3,68.6C227.3,68.7,227.3,68.8,227.3,68.6C228.2,69.3,228.2,69.2,227.3,68.6z"/>
	<path class="st4" d="M222.3,53.4c0.8,0.5,0.8,0.4-0.1-0.2C222.2,53.4,222.2,53.4,222.3,53.4z"/>
	<path class="st4" d="M222.8,72.6c-0.2,1.1-0.7,1.5-1.6,1.2c0,0.1,0,0.1,0.1,0.1c1.7,1.5,3,1.3,3.7-0.5c0.1-0.7-0.1-1.2-0.5-1.5
		C223.5,71.5,223,71.7,222.8,72.6z"/>
	<path class="st4" d="M220.4,50.3L220.4,50.3C221.6,50.3,221.6,50.3,220.4,50.3z"/>
	<path class="st4" d="M221.3,56.9c-1,0.6-1.9,1.3-2.7,2c0.2,0.6,0.5,0.5,1-0.2c0.1,0,0.1-0.1,0.2-0.1c0,0.1,0,0.2,0,0.3
		c0,0.1-0.1,0.1-0.1,0.2h-0.1c0.1,2.3,1.1,2.8,2.8,1.4c0.1-0.1,0.2-0.3,0.2-0.7c-0.1-0.8-0.6-1.2-1.4-1.2c0-0.1-0.1-0.2-0.1-0.2
		c-0.1-0.1-0.1-0.2-0.2-0.3c0-0.1,0-0.2,0-0.3c0.3-0.2,0.7-0.4,0.9-0.6c0,0,0-0.1,0-0.2c0.6-0.2,1.1-0.5,1.4-1l0.2-0.3
		c-0.5-0.3-1.1,0-1.8,0.8c0,0.1,0,0.2,0,0.3C221.4,56.8,221.3,56.8,221.3,56.9z"/>
	<path class="st4" d="M223.7,55.2L223.7,55.2C226,54.5,226,54.5,223.7,55.2z"/>
	<path class="st4" d="M222.8,77.9C222.8,78,222.8,78,222.8,77.9C224.6,78.7,224.6,78.7,222.8,77.9z"/>
	<path class="st4" d="M223.8,92.2c1.4,1.3,1.3,1.3-0.1-0.2C223.7,92.1,223.8,92.2,223.8,92.2z"/>
	<path class="st4" d="M185.1,44.9c0,0.1,0,0.1,0,0.2C185.9,45.6,185.9,45.6,185.1,44.9z"/>
	<path class="st4" d="M193.1,88.8c0.8,0.5,0.7,0.4-0.1-0.2C193,88.7,193.1,88.8,193.1,88.8z"/>
	<path class="st4" d="M186.7,90.5C186.7,90.6,186.7,90.6,186.7,90.5C187.6,91.2,187.6,91.2,186.7,90.5z"/>
	<path class="st4" d="M264.8,90.3l5.5-7.5c-0.4-0.8-0.9-1.6-1.3-2.3C267.6,83.5,266.3,86.9,264.8,90.3z"/>
	<path class="st4" d="M274.2,70.8c0.7,1.5,1.3,3,1.9,4.3c1.8-2.1,5.5-6.3,7-7.9c1-1,1.8-2.4,2.6-3.6c-2.8,0.2-4.8,0.9-6.9,2.4
		C277,67.3,275.6,68.9,274.2,70.8z"/>
	<path class="st4" d="M338.6,66c0,0-21.5,0.4-32.1-0.7c-7.2-0.7-12.3-1.4-16.2-1.7c0.5,1.2,0.9,2.4,0.9,2.4s1.7,0.7,4.7,1.2
		s8.7,3.8,8.7,3.8s7.3,0.7,17.3,1.9c6.7,0.8,18,2,25.5,3c-3-3.7-5.4-6.7-6.5-8.1L338.6,66z"/>
	<path class="st4" d="M190.9,94.3c0.5,0.8,0.5,0.7-0.1-0.2C190.8,94.1,190.9,94.2,190.9,94.3z"/>
	<path class="st4" d="M191.3,89.8C192.4,89,192.4,88.9,191.3,89.8L191.3,89.8z"/>
	<path class="st4" d="M191.4,83.3c0.3-1.1,0.1-0.9-0.8,0.6C190.9,84.4,191.2,84.2,191.4,83.3z"/>
	<path class="st4" d="M192.5,84.3c0,0.1,0,0.2,0,0.2C193.3,85,193.3,84.9,192.5,84.3z"/>
	<path class="st4" d="M188.1,81.9L188.1,81.9C189.4,81.6,189.4,81.6,188.1,81.9z"/>
	<path class="st5" d="M356.4,82.5c6.5,1.4,72,21.5,72,21.5s-52.7-20.2-58.7-21.8s-9-1.9-9-1.9s-4.2-2.1-6.3-3.1
		c-0.3-0.1-0.9-0.3-1.8-0.5c-3.8-5.9-6.9-10.8-6.9-10.8s0-3.3-2.3-4.7c-2.3-1.3-2-4.5-2-4.5l-1.7,1.7l-1.3-2l-2,1.1c0,0,0,0-2,1
		s-24.7-0.3-31-0.1c-6.3,0.2-5-1.2-9-2s-10-1.1-10-1.1s-3.3-1.8-6.7-2.4c-2.7-0.5-5.3,3.7-8.1,8c-2-4.2-3.5-7.4-3.5-7.4l-1.3-3.1
		l-2.6-0.2l-1.9-2l-1.9,2.1l0,0c-2.5,1.5-2.3,6.6-3.3,9.7c-1.3,3.7-6.9,13.3-7.3,14.9c-0.3,1.6,0,3.7,0,7.3s5.7,11,5.7,11
		s2-10.2,2.7-14.9c0.7-4.7,5.7-15.3,5.7-15.3s0.7,3.9,2.3,8c-2.4,6-4.5,13.5-5.6,18c-1.7,6.7-12.8,17.3-12.8,17.3s6.6-1.2,16.5-6.2
		c2.1-1.1,7.6-6.4,11.8-10.6c1.5,2.8,2.5,4.8,2.5,4.8c0.3,2.1,0.9,32.5,1.3,38.1v1.3c-0.3,5-7,27.7-7,27.7s10.3-23.3,11.3-26
		c0-0.1,0.1-0.3,0.1-0.4h0.4l-0.1-1.9c0.2-2.9-0.4-4.6-0.4-13.5c0-15.4,2.3-24.1,2.3-24.1s-0.7-2-2-4.2c-0.9-1.5-1.7-3.6-3-7.3
		c0,0,2.5-3.1,10.7-4.9c2.5,2.4,7.1,6.7,8.9,7.3c2.7,0.9,7,8.5,7,8.5s4.7,2.6,7.3,4.6c2.7,1.9,11,14.7,12,17.1s2.7,1.7,2.7,1.7
		s0.7,4,2.3,7.3c1.7,3.3,4,51.3,4,51.3c1.3-5-1.3-49.3-1.3-56.3s-2.3-7.7-10.7-19.3c-6.4-9-16.8-19.1-21.2-23.2
		c4.2-0.1,9.1,0.1,14.9,0.8c12.2,1.5,27.5,2.3,36,3.3C363,95.6,377.4,113,377.4,113s-7.3-10.7-11.5-16
		C364.2,94.3,360.3,88.5,356.4,82.5z M264.8,90.3c1.5-3.4,2.9-6.7,4.3-9.9c0.4,0.8,0.8,1.6,1.3,2.3L264.8,90.3z M283.1,67.2
		c-1.5,1.6-5.2,5.9-7,7.9c-0.6-1.3-1.2-2.8-1.9-4.3c1.3-1.9,2.8-3.5,4.6-4.9c2.1-1.6,4.1-2.3,6.9-2.4
		C284.9,64.7,284.1,66.1,283.1,67.2z M321.8,72.8c-10-1.2-17.3-1.9-17.3-1.9s-5.7-3.2-8.7-3.8c-3-0.5-4.7-1.2-4.7-1.2
		s-0.3-1.2-0.9-2.4c3.9,0.3,9,1,16.2,1.7c10.6,1,32.1,0.7,32.1,0.7l2.2,1.8c1.1,1.4,3.5,4.4,6.5,8.1
		C339.8,74.8,328.4,73.6,321.8,72.8z"/>
	<path d="M35.3,22.9c1,0.7,1,0.4,0.1-0.7C35.1,22.5,35.1,22.7,35.3,22.9z"/>
	<path d="M30,24.8C30,24.7,30,24.7,30,24.8c0.3-0.3,0.5-0.2,0.9,0.2c0.6,1.8,1.3,3.6,2.1,5.3c0,0.1,0,0.1,0.1,0.2
		c0,0.5,0.2,1.1,0.6,1.5c0.1,0.1,0.1,0.1,0.1,0.2v0.1c1.1,2.1,1.2,2,0.2-0.3c0-0.1,0-0.1,0.1-0.2c-0.2-0.5-0.4-0.9-0.6-1.3
		c-0.1-0.1-0.1-0.1-0.1-0.2c-0.2-1.7-0.7-3.4-1.5-5c0.6-0.1,0.6-0.4,0.2-0.8l0,0c-0.3-0.8-1-1.3-2-1.3C29.1,25,29.1,25.6,30,24.8z"
		/>
	<path d="M31.1,29.2L31.1,29.2C31.8,30.2,31.8,30.1,31.1,29.2z"/>
	<path d="M36.2,30.7c-0.1,0-0.1,0.1-0.1,0.2C36,32,36,32,36.2,30.7z"/>
	<path d="M33.5,35c-0.3,0.2-0.3,0.3-0.1,0.3C34.4,35.1,34.5,35,33.5,35z"/>
	<path d="M33.6,39.6L33.6,39.6c0.5-0.7,0.6-1.3,0.5-1.9c-0.2,0.3-0.4,0.6-0.4,0.9c0,0.1,0,0.1-0.1,0.2c-0.1-0.1-0.1-0.1-0.2-0.2
		c-0.1-0.1-0.2-0.2-0.4-0.3c0,0-0.1,0-0.1,0.1s0,0.1-0.1,0.2c-0.1-0.1-0.1-0.1-0.2-0.1c-0.2,0.1-0.4,0.1-0.6,0
		c-0.2,0.4,0,0.6,0.6,0.6c0,0,0.1,0.1,0.2,0.1c0.1,0,0.1,0.1,0.1,0.2c0,0.4-0.1,0.9-0.3,1.5c-0.1,0-0.1,0.1-0.1,0.2
		c-0.7,1.9-0.6,2,0.2,0.3l-0.1-0.1c0.1-0.1,0.1-0.1,0.1-0.2C33.3,40.7,33.5,40.1,33.6,39.6z"/>
	<path class="st5" d="M214.5,49.1c0,0.1,0.1,0.2,0.2,0.3c-0.1,0-0.1,0.1-0.1,0.2v0.1c0,0.2,0.1,0.3,0.2,0.5c0,0.5-0.1,0.7-0.3,0.7
		c0.1,0.5,0.2,0.7,0.5,0.7l-0.1,0.3l0.1,0.2h0.3l0.2,0.7l-0.1,0.2l0.2,0.2c0,0.2,0.1,0.5,0.1,1.1l0.2,0.2l-0.2,0.4L216,55
		c0.1,1,0.1,1.6,0.1,1.6c0,0.1,0.2,0.4,0.6,1c0,0.6-0.1,1,0,1.1l0.2,1.4c0.5-0.2,0.9-0.4,1.3-0.6c0.1,0,0.2,0,0.3-0.1
		c-0.5,0.4-1,0.8-1.5,1.1l0.1,0.4l0.2,0.2c-0.1,0-0.1,0.5-0.1,1.4c0.1,0,0.2,0,0.2,0.1l-0.1,0.3c0,0.1,0,0.2,0.1,0.3
		c0.3,0.1,0.7,0.1,1,0.2c0.1,0.1,0.2,0.1,0.3,0c0-0.1,0-0.2,0-0.3c0-0.1,0-0.2,0-0.3c0.4-0.7,0.6-0.7,0.7,0c0,0.1,0.1,0.1,0.1,0.2
		c0.1,0,0.2,0,0.3,0c0.4,0,0.2,0.2-0.5,0.5c0,0.1,0,0.2,0,0.3c0,0.1,0,0.1,0.1,0.1c1.7,0.9,2,2,1,3.1c-0.1,0-0.2,0-0.3,0
		c-0.6-0.2-1.3-0.4-2-0.6l0.1,0.1c0,0.1,0,0.3,0,0.5l0.1,0.2l0.2,0.7c-0.1,0-0.1,0-0.1,0.1l0.1,0.3c-0.1,0.6-0.1,0.9-0.1,0.9
		l0.1,0.2c0,0.2,0.1,0.3,0.3,0.3c0,0.2,0,0.5-0.1,0.8l0.3,0.1l-0.2,0.3l0.1,0.4l0.2,0.3l-0.2,0.1c0,0.2,0.1,0.2,0.3,0.2
		c0,0.1,0,0.2-0.1,0.2c0,0.1,0.1,0.2,0.2,0.3c0,0.1-0.1,0.2-0.3,0.3c1.3,0.5,2.1,1.2,2.3,2.1c0,0,0,0.1-0.2,0.2
		c-0.6-0.8-1.2-1.4-2-1.8l0.3,0.8v0.3l0.3,0.4c0,0.7,0,1.2-0.1,1.5l0.2,0.2l-0.1,0.3l0.2,0.5c0,0.2,0,0.4-0.2,0.4
		c0,0.2,0.2,0.4,0.4,0.7c-0.1,1-0.2,1.5-0.3,1.5c0.2,0.2,0.4,0.5,0.4,0.7v0.1c-0.1,0.2-0.1,0.8,0,1.9c0.2,0.4,0.2,0.8,0.3,1.1v0.7
		c0.1,0,0.1,0,0.1,0.1c-0.1,0.3-0.1,0.6-0.1,0.8l0.3,0.3c-0.2,0-0.3,0.2-0.3,0.3c0,0.2,0.1,0.2,0.3,0.2c0,0.2,0,0.3-0.2,0.3
		c0,0.1,0.1,0.1,0.1,0.1c0.1,0.9,0.2,1.6,0.3,2.1c1,0.8,1,0.8,0,0.1c0,0.6,0,0.9-0.1,0.9l0.2,0.2c0,0.1,0,0.3,0,0.4l0.1,0.1
		c0.6,0.3,1.1,0.7,1.4,1.2c0,0.1,0,0.2,0.1,0.3c0.7,0.7,1.2,1.4,1.7,2.2c0,0.1,0.1,0.1,0,0.2c0.1,0,0.2,0,0.2,0.1v0.1
		c0.5,0,0.7,0.1,0.8,0.5c0,0.1,0,0.2,0,0.3c0.5,0.3,1,0.4,1.5,0.3l0,0c1.1,0.8,1.9,2.1,2.6,3.7c0,0.5,0,0.8,0,1.2
		c0.6-0.2,1.1-0.8,1.4-1.7l-0.2-0.3c0.1,0,0.2-0.3,0.3-0.8c0.1-1,0.3-1.7,0.4-2c-0.3-2-0.3-3.5-0.2-4.4c-0.1-0.2-0.3-0.7-0.5-1.4
		c0.2,0,0.2-0.2,0.1-0.6l-0.1-0.2c0.1,0,0.1-0.1,0.1-0.1l-0.1-0.9l-0.3-0.7l-0.5-4.6c-0.1-0.1-0.2-0.2-0.2-0.4l0.4-0.3h0.1
		c0.2,0,0.5,0,0.8,0.1l0.2-0.1c0.2,0.8,0.5,1.2,1.1,1.1l-0.1,0.3c0,0.2,0.2,0.3,0.4,0.3c0.4,0.8,0.9,1.7,1.6,2.6
		c-0.1,0-0.1,0.1-0.1,0.2c0,0.2,0.2,0.2,0.4,0.2v0.3c0.5,0.9,1.1,1.7,1.8,2.3l-0.1,0.3c1.5,1.8,2.2,2.9,2.3,3.2
		c1.7,2,3.1,3.5,4.1,4.8c0.5,0.6,1.7,0.6,3.6,0l1.1-0.2c0.5-0.1,1.1-0.3,2-0.4h0.1c0.5-0.2,0.9-0.5,1.3-0.8c0.3-0.5,0.4-1.1,0.1-1.8
		l-0.6-1c-0.6-0.9-1.3-1.8-2.1-2.7h0.1c-0.8-1.3-1.3-2-1.6-2.1c-0.5-1.1-1.4-2.5-2.8-4.2c-1.4-1.8-2.9-3.8-4.5-5.9
		c-0.1-0.4-0.6-1.2-1.5-2.2c-1.5-1.8-2.5-3.1-3.1-4l-0.1-0.2c-0.1-0.5,0.1-1.3,0.6-2.4c0-0.9,0.2-1.6,0.5-2.2l-0.1-0.2
		c0.2-0.3,0.7-1.8,1.5-4.7c0.5-1.9,0.8-2.8,0.9-2.9c0.1-1.6,0.2-2.7,0.4-3.1c0.5-0.8,0.9-1.7,1.2-2.7l1-4.1c0-0.1-0.1-0.2-0.2-0.3
		c0.1,0,0.1-0.2,0-0.4h0.3c0.2,0,0.3-0.4,0.3-0.9c0.3-0.6,0.6-1.6,0.9-2.9c0.6-2.3,0.6-3.7,0.2-4.2c-0.2-0.5-0.7-0.7-1.3-0.7
		c-0.7,0.1-1.8,0.3-3.3,0.5c-0.7,0.1-1.6,0.3-2.6,0.6l-0.9,0.2l-0.5,0.6l-0.6,1.1c-0.4,1-0.6,1.7-0.6,2c-0.7,1.9-1.3,3.1-1.6,3.5
		l0.1,0.2c-0.1,0-0.1,0.1-0.2,0.4c0,0.1,0.1,0.2,0.2,0.3l-0.3,0.3c-0.2,1.1-0.4,1.8-0.7,2v0.1h0.1c0.1,0,0.1,0.1,0.1,0.1
		c0.1,0.2,0.1,0.3-0.2,0.4c-0.5,2.5-0.8,3.9-0.9,4.1l-1.2,1.6l-0.4,0.2h-0.1l-0.3,0.2l-0.4-0.2h-0.1l0,0c-0.1-0.3-0.4-1.8-0.9-4.6
		c0.1,0,0-0.6-0.3-1.7l-0.7-3.4c-0.1-0.4-0.1-0.9-0.2-1.4c0-0.6-0.2-1.5-0.6-2.7l-0.4-0.6c0,0-0.1-0.1-0.4-0.3
		c-0.9-0.3-3-0.2-6.3,0.4h-0.1c-0.3,0.2-0.6,0.4-0.9,0.6c0,0.4-0.1,0.7-0.2,1c-0.1,0-0.2,0.1-0.2,0.1c-0.5,0.6-0.8,1.4-0.8,2.5
		c-0.1,0-0.1,0-0.1,0c0,0.1,0.1,0.2,0.1,0.2L214.5,49.1z M229,78.6l0.6-0.1v0.1c0,0.2,0,0.3-0.2,0.3h-0.3l-0.3-0.1L229,78.6z
		 M227.3,68.6C228.2,69.2,228.2,69.2,227.3,68.6C227.3,68.8,227.2,68.7,227.3,68.6z M226.8,72.8v-0.4
		C228.2,72.7,228.2,72.8,226.8,72.8z M227,67.2L227,67.2l-0.2,0.1v-0.1H227z M218.1,51.1v-0.2C220.1,51,220.1,51,218.1,51.1z
		 M220.5,70.9v-0.4C221.4,70.4,221.4,70.5,220.5,70.9z M222.8,77.9C224.6,78.7,224.6,78.7,222.8,77.9C222.8,78,222.8,78,222.8,77.9z
		 M223.8,92.2c-0.1-0.1-0.1-0.1-0.1-0.2C225.2,93.5,225.2,93.6,223.8,92.2z M223.8,55.4L223.8,55.4C226,54.5,226,54.5,223.8,55.4z
		 M224.5,72c0.5,0.3,0.6,0.8,0.5,1.5c-0.7,1.8-1.9,1.9-3.7,0.5l-0.1-0.1c0.9,0.3,1.4-0.2,1.6-1.2C223,71.7,223.5,71.5,224.5,72z
		 M222.3,53.4c-0.1,0-0.1-0.1-0.1-0.2C223.1,53.9,223.1,53.9,222.3,53.4z M223.3,55.8l-0.2,0.3c-0.3,0.5-0.7,0.8-1.4,1
		c0,0.1,0,0.2,0,0.2c-0.3,0.2-0.6,0.4-0.9,0.6c0,0.1,0,0.2,0,0.3c0.1,0.1,0.1,0.1,0.2,0.3c0,0.1,0.1,0.1,0.1,0.2
		c0.9,0,1.3,0.4,1.4,1.2c0,0.4,0,0.6-0.2,0.7c-1.7,1.3-2.7,0.9-2.8-1.4c0.1,0,0.1,0,0.1,0c0.1-0.1,0.1-0.2,0.1-0.2
		c0-0.1,0-0.2,0-0.3c-0.1,0-0.2,0-0.2,0.1c-0.5,0.7-0.8,0.8-1,0.2c0.9-0.7,1.8-1.4,2.7-2c0.1,0,0.1-0.1,0.2-0.1c0-0.1,0-0.2,0-0.3
		C222.2,55.8,222.8,55.5,223.3,55.8z M220.4,50.3C221.6,50.3,221.6,50.3,220.4,50.3L220.4,50.3z M221.4,48.5c0,0.1,0.1,0.1,0.1,0.2
		c-2.2,1.1-3.5,0.5-3.8-1.8c0-0.1,0-0.2,0-0.3C219.7,44.6,221,45.2,221.4,48.5z"/>
	<path d="M40.5,41.7C40.4,41.7,40.4,41.7,40.5,41.7C40.6,42.7,40.7,42.7,40.5,41.7z"/>
	<path d="M35.7,44.4c1-0.1,1.1-0.2,0.2-0.2L35.7,44.4z"/>
	<path d="M41.2,45.6c0,0.1,0,0.1-0.1,0.2l0.2,0.6C41.4,46.2,41.3,46,41.2,45.6z"/>
	<path d="M36.4,38.5c-0.2,0.3-0.2,0.4,0.2,0.4C37.6,38.8,37.5,38.7,36.4,38.5z"/>
	<path d="M27.7,29.3l0.2,0.3c1.4-0.8,1.4-1.1,0-0.9C27.6,28.9,27.6,29.1,27.7,29.3z"/>
	<path d="M17.3,13.2c1.3,0.6,1.2,0.2-0.2-1c-0.3,0.3-0.3,0.5-0.1,0.7L17.3,13.2z"/>
	<path class="st5" d="M195.3,88l-0.2-0.3l0.2-0.5c0-0.4-0.2-1.5-0.5-3.2l0.1-0.2c-0.1-0.2-0.2-0.6-0.4-1.2c0.1-0.1,0.1-0.3,0.1-0.6
		l-0.1-0.3c-0.1-0.1-0.2-0.2-0.3-0.3c-0.1,0.3-0.3,0.6-0.6,1c-0.5,0.6-0.9,0.5-1.1-0.3c-0.1-0.4-0.2-0.7-0.2-1
		c0.5-0.1,0.8-0.2,1.1-0.3c-0.7-0.4-1.5-0.7-2.4-0.9c-0.5,0.5-1,0.7-1.4,0.6c0,0-0.1,0-0.1-0.1c0.2-0.2,0.4-0.4,0.7-0.5
		c-0.4,0-0.8,0-1.2,0c-0.6,0-1.3,0.1-2.1,0.4c-0.3,0.1-0.5,0.2-0.7,0.3c-0.4,0.2-0.6,0.6-0.7,1.1c-0.2,0.5-0.2,1.2-0.2,2.2
		c-0.2,1-0.4,1.5-0.6,1.5l0.2,0.6c0,0.1-0.1,0.1-0.2,0.1c-0.1,0.6-0.4,1.1-0.9,1.6l0.1,0.2c-0.6,1.5-1.1,2.4-1.3,2.6v-0.4h-0.5
		c0,0.4-0.1,0.7-0.2,0.9c0,0.1,0,0.2,0.1,0.4c-0.4,0.4-0.6,0.6-0.6,0.7c-0.1,0-0.3,0-0.5-0.1l-1.1,1.1h-0.1l0.1-0.2v-0.2h-0.2
		l-0.3,0.3h-0.6c-0.8,0.3-1.4,0.3-1.7,0.1c-1.9-0.4-2.8-0.9-2.8-1.6H174l-0.3,0.2c-1.3-2.3-2.1-3.4-2.3-3.2
		c-0.1-0.4-0.2-0.6-0.3-0.6c0.2-1.7-0.1-2.6-0.7-2.6c0-0.3-0.1-0.8-0.1-1.5c0-0.1-0.1-0.6-0.3-1.4c0.2,0,0.3-0.1,0.3-0.3
		c0-0.2-0.1-0.3-0.3-0.3l0.2-0.6l-0.1-0.2c-0.3-2-0.6-3.1-0.8-3.5c0.1,0,0.2,0,0.2-0.1l-0.1-1.6l-0.1-0.2c0.1,0,0.2-0.4,0.2-1h-0.3
		l0.1-1.6l-0.1-0.4c0-0.2-0.1-0.6-0.5-1.3c0.2-0.6,0.3-2,0.5-4.1c-0.1,0-0.1-0.1-0.1-0.1c0.2-2.4,0.4-4,0.8-4.7c0.2-1,0.5-1.5,1-1.5
		c0.6-2.4,1.1-4.1,1.4-4.8l0.3,0.1l-0.1,0.3c0,0.2,0.1,0.2,0.3,0.2h0.1l0.1-0.6l-0.1-0.2c0.5-0.5,0.7-1,0.7-1.4
		c0.1,0,0.2,0.1,0.2,0.2c0.2,0,0.4-0.1,0.7-0.4l-0.2-0.3c0.6-0.9,1.3-1.6,2.1-2.1l0.4-0.5c0.1,0,0.5-0.1,1.1-0.2
		c-0.6-0.5-0.9-1.3-0.9-2.5c3.5,0.4,6,1.9,7.5,4.4c0,0,0.1,0,0.2,0c0-0.1,0-0.1,0-0.2c-0.3-0.8-0.6-1.5-1-2.2
		c-0.1,0-0.1-0.1-0.2-0.1c-0.7-0.6-1.1-1.4-1.4-2.4c0.8,0.3,1.3,1,1.5,2c0,0.1,0,0.2,0,0.3c0.6,0.6,1.2,1.4,1.5,2.2
		c0,0.1,0,0.1,0,0.2c0.4,0.3,0.7,0.6,1,1.1c0,0.1,0,0.1,0,0.2c0.3,0.1,0.5,0.2,0.5,0.5c0,0.1,0,0.2,0,0.3c0.6,0.6,1.1,1.3,1.5,2.1
		c0,0.1,0.1,0.1,0,0.2c-0.1,0.6,0.1,1,0.5,1.1c0,0,0,0,0,0.1c0.3,0.4,0.6,0.9,0.9,1.3c0.1,0,0.1,0.1,0.1,0.2c0.2,0.4,0.6,0.7,1,1
		c0.1,0,0.2,0,0.3,0c0.7,0.2,1,0,1-0.6c0-0.1,0-0.2,0-0.3c0-0.1-0.1-0.2-0.1-0.2c-0.4-0.7-0.7-1.5-0.7-2.5c-0.1,0-0.2,0-0.2-0.1
		c-0.3-0.7-0.5-1.5-0.6-2.5c0-0.1,0-0.1-0.1-0.2c-0.4-0.4-0.8-0.9-1.2-1.3c-0.1,0-0.2,0-0.2,0.1c-0.7,0-1.1-0.3-1-1.1
		c0.4,0.2,0.8,0.4,1.2,0.6l0.1,0.1c1.1,0.3,1.6,0.8,1.5,1.5c0,0.1,0,0.2,0,0.3c0.3,0.5,0.6,1.1,0.7,1.7c0.1,0.1,0.1,0.2,0.1,0.3
		c0.4,0.9,0.7,1.8,1,2.7c0,0.1,0,0.1,0.1,0.2c1,0.6,1.7,1.3,2,2.1c0.5-0.6,0.8-1.2,0.7-1.8l-0.1-0.3c-0.2,0-0.4,0-0.6-0.1
		c-0.1,0-0.1-0.1-0.1-0.4c0.2,0.1,0.4,0.1,0.6,0.2l0.2-1.6c-0.2-0.6-0.3-1-0.3-1.2c0.5-0.4,0.7-1.3,0.6-2.5l-0.6-1.5l0.1-0.3
		c0-0.1-0.1-0.4-0.3-0.8l0.2-0.9c-0.2-0.6-0.3-1.1-0.5-1.3l0.1-1.3l0.2-0.2c-0.2-0.1-0.3-0.1-0.4-0.1c0-0.1,0-0.1,0.1-0.1
		c0-0.2-0.2-0.6-0.6-1.1l0.1-0.2c-0.5-1-0.8-1.5-0.9-1.5c-0.1-0.7-1.2-1.6-3.5-2.5c-3.3-1.1-5.5-1.5-6.7-1.5c-0.1,0-0.3,0-0.4,0.1
		l-1.2-0.2c-3.2,0.3-5.2,0.6-6.2,0.9v-0.3h-0.3c0,0.3-0.6,0.6-1.8,0.7l-0.1-0.2c-1.1,0.2-2.3,0.9-3.5,2c-3.2,2.2-5.4,4.4-6.6,6.7
		l-2.2,5.9l-1.6,6.8l0.1,0.2l-0.6,4.2l0.2,0.3c-0.5,1.4-0.7,2.4-0.7,2.9l0.1,1.3l0.2,0.7c-0.1,0-0.1,0.1-0.1,0.4v0.9l0.2,0.9
		c-0.1,0-0.1,0.1-0.1,0.2l0.2,0.2l-0.1,0.5l0.1,0.2c-0.1,0-0.1,0.1-0.1,0.1v0.3l0.2,0.3h-0.2c0.3,1.9,0.6,3.4,0.8,4.4l-0.9-2.1v-0.3
		c-0.1-0.1-0.2-0.3-0.4-0.5l0.1-0.2l-0.5-0.7l-0.2-0.7c-0.2-0.9-0.5-1.4-0.8-1.7c-0.5-1.9-1.3-3.5-2.5-4.7c-1.6-4-3-6.9-4.1-8.8
		c0-0.1,0-0.2,0-0.4c-0.5-0.9-0.8-1.3-0.8-1.3c-1.4-3.1-2.3-5-2.7-5.6h0.1l-1-2.1c0.1,0,0.1-0.1,0.1-0.2c-0.6-1.3-1.4-2.6-2.4-4
		c-1.2-1.7-2.7-2.5-4.5-2.7c-0.3-0.4-1.8-0.2-4.6,0.6c-0.2,0-0.4,0.1-0.8,0.3c-0.1,0-0.3,0-0.4,0c-2,1.1-3.1,2.2-3.4,3.2
		c-0.2,1.9-0.4,2.9-0.8,3.1l0.1,3.1l0.2,0.2c-0.1,0-0.1,0.1-0.1,0.3c-0.3,1.7-0.4,4.1-0.4,7.1l0.2,0.2c-0.1,0-0.2,0.1-0.1,0.3
		c0.1,0.3,0.1,1.8-0.1,4.4c0.3,2.7,0.3,4.1,0.1,4.4v0.1l0.2,0.2h-0.1c0.2,1,0.2,1.5,0,1.5c0,0.4,0.1,0.8,0.1,1.2h-0.1
		c0-0.1,0-0.1-0.1-0.1c-0.8,0.1-1.6,0.2-2.4,0.4c0,0.1,0.1,0.2,0.1,0.3c-0.1,0-0.2,0-0.2,0.1c-0.1,0-0.1,0-0.2,0.1v-0.1
		c-0.7,0-1.3,0.1-2,0.3c-0.1,0-0.1,0-0.2,0.1c-0.5,0.1-1,0.3-1.5,0.4c0,0.1,0.1,0.2,0.1,0.3c-0.1,0-0.1,0-0.2,0
		c-0.1,0-0.1,0.1-0.2,0.1c-0.1,0-0.1,0-0.2,0c-0.6,0.2-1.3,0.3-1.9,0.5c0.1,0.1,0.1,0.3,0.1,0.4c-0.1,0-0.1,0.1-0.2,0.1
		c-0.3,0.1-0.5,0.1-0.8,0.2c-0.1,0-0.2,0-0.2,0.1c-0.8,0.2-1.6,0.4-2.4,0.6c-0.1,0-0.1,0-0.2,0c-0.7,0.4-1.3,0.6-1.7,0.5
		c0.6,0.8,1.2,0.7,1.8-0.1c0.1,0,0.1-0.1,0.2-0.1c0.8-0.2,1.6-0.4,2.4-0.6c0.1,0,0.1,0,0.2-0.1c0.1,0.1,0.1,0.1,0,0.1
		c-0.7,0.4-1.3,0.8-2,1.1c-0.1,0-0.1,0-0.2,0c-0.5,0.1-1,0.3-1.5,0.4c0,0.1,0.1,0.2,0.1,0.3c-0.1,0-0.2,0-0.2,0.1
		c-0.5,0.1-1,0.3-1.5,0.4c0,0.1,0.1,0.2,0.1,0.3c-0.1,0-0.1,0-0.2,0c-0.2,0-0.3,0.1-0.4,0.1s-0.1,0-0.2,0.1
		c-0.2,0.1-0.4,0.1-0.6,0.2c0-0.2,0-0.4,0-0.7l-0.1-0.2h0.1l-0.1-0.6c0.1-0.6,0.1-1.1,0.1-1.6c0-0.2,0-0.3-0.1-0.4
		c0-0.1,0.1-0.3,0.1-0.5l-0.1-1.1c0-0.6-0.1-1.1-0.3-1.5l0.2-0.1l-0.1-0.3l0.3-3.7c-0.1,0-0.1-0.1-0.1-0.3l0.2-1.6
		c0-0.5-0.2-1.1-0.3-1.6c0.1-0.2,0.1-0.3,0.1-0.4c0-0.2-0.1-0.4-0.3-0.7l0.2-0.2l-0.1-0.2h0.1l-0.2-1.1l0.2-2l-0.2-0.8
		c0.1,0,0.1-0.1,0.1-0.1l-0.2-0.8l0.1-0.5c-0.1,0-0.1,0-0.1,0c0.1-0.2,0.1-0.4,0-0.5v-0.1l-0.1-0.7c0.1-0.1,0.1-0.3,0-0.6v-0.3
		c0-0.2,0-0.3-0.1-0.4c0.1-0.2,0.1-0.3,0.1-0.5l0.1-2.1l0.1-0.7c-0.1,0-0.2-1.2-0.2-3.5c0.1-0.2,0.1-0.3,0.1-0.4l-0.2-0.5l0.2-0.5
		c0-0.1-0.1-0.2-0.3-0.3c0-0.1,0.1-0.7,0.2-1.8c-0.2,0-0.3-0.3-0.5-1c0,0-0.5-0.3-1.4-0.8c-3.9-0.1-6.3,0.1-7.2,0.7l0.2,0.4
		c-0.2,0-0.3,0-0.4,0.1c0,0.1,0,0.1,0.1,0.1l0.1,0.3h-0.1l-0.1-0.2c-0.1,0-0.2,0.1-0.2,0.2l0.1-0.4c-0.1,0.6-0.2,0.9-0.3,0.9
		l0.1,0.4l-0.1,0.6c0.1,0,0.1,0,0.1,0.1H102V52l-0.1,0.2l0.2,0.2c-0.2,0.3-0.3,0.7-0.2,1.3l0.1,0.6c-0.1,0-0.1,0-0.1,0.1l0.1,0.3
		l-0.2,0.7l0.1,0.2c-0.1,0.8-0.2,1.2-0.2,1.3l0.1,0.2c-0.1,0.2-0.1,0.3-0.1,0.5v0.1l0.1,0.2c-0.1,0-0.1,0.1-0.1,0.1v0.3l0.1,0.2
		c-0.1,0-0.2,0.4-0.1,1l0.1,0.7c0,0.2-0.1,0.3-0.2,0.2l0.1,1.2v0.6l-0.2,0.3v0.2c0,0.2,0.1,0.3,0.3,0.3c0,0.1-0.1,0.2-0.3,0.3
		l0.2,0.6v0.4h-0.1v1l0.1,0.2c-0.2,0-0.3,0.2-0.3,0.6l0.1,0.2l-0.6,2.8l0.1,0.2c-0.1,0-0.1,0.1-0.1,0.1v0.1l0.2,0.3
		c-0.1,0.3-0.4,0.5-0.9,0.5l-0.5,0.1c-1.1,0-2.3,0-3.5-0.1c-1,0-1.9-0.5-2.5-1.6c0-0.1,0.1-0.1,0.2-0.1c-0.2-1.3-0.3-2-0.3-2.1
		c0.1,0,0.1,0,0.1-0.1v-0.3l-0.2-0.5c0.1,0,0.2-0.1,0.2-0.1c-0.1-0.6-0.2-1-0.3-1.2c0.1-0.1,0.2-0.3,0.2-0.4
		c-0.1-0.3-0.1-0.6-0.2-1.1l0.2-0.2c0-0.1-0.1-0.3-0.2-0.7c0-0.2,0-0.5,0.1-0.8l-0.1-0.5c0-0.1,0-0.4,0.2-0.9v-0.4L93.4,59h0.2
		c0-0.3-0.1-0.7-0.2-1.3l0.1-0.2l-0.1-0.2c0.1-0.9,0.2-1.8,0.1-2.5c-0.1-0.6-0.2-1.7-0.3-3.2l-0.1-0.1h0.1c-0.3-2.4-0.5-3.6-0.6-3.6
		c0-1.1-1-1.8-2.9-2.3h-0.2c-0.2,0-0.3,0-0.4,0.1c-0.5-0.1-1-0.2-1.6-0.2c-0.1,0-0.2,0.1-0.3,0.2c0-0.1-0.1-0.2-0.1-0.2l-1,0.1
		c-0.3,0-0.8,0.1-1.5,0.5l-2.1,2l0.3,0.4h-0.1c-0.1,0-0.4,0.5-0.9,1.3l0.3,0.4v0.2c0,0.1,0,0.2-0.2,0.2c0,0.2,0.2,0.4,0.4,0.8
		l-0.4,0.8l0.1,0.2l0.2-0.1v0.1l-0.3,0.4L82,53l0.2,0.3v0.4h-0.1v-0.3l-0.3,0.1l0.2,0.4l-0.1,0.6c0.1,0,0.1,0,0.1,0.1
		s-0.1,0.2-0.2,0.3l0.3,0.7L82,56l0.2,0.6c-0.1,0-0.2,0.1-0.3,0.4c0,0.2,0.1,0.3,0.3,0.3l-0.1,0.2v0.4l0.1,0.2H82
		c0,0.1,0.1,0.2,0.2,0.4c-0.1,0.2-0.1,0.6-0.2,1.3l0.3,1.4c-0.1,0-0.1,0.1-0.1,0.1l0.1,0.4l0.1,0.2c-0.1,0-0.1,0.1-0.1,0.2l0.1,0.2
		c-0.1,0-0.1,0.1-0.1,0.2v0.2l0.1,0.2c-0.1,0-0.1,0-0.1,0.1v0.1l0.1,0.3c-0.1,0-0.1,0-0.1,0.1v0.1l0.1,0.2c-0.1,0-0.2,0.4-0.2,1.2
		c0,0.2,0.1,0.5,0.2,0.9c-0.1,0.9-0.2,1.3-0.4,1.3c0.2,0.3,0.4,0.6,0.4,0.7c0,0.3-0.1,0.7-0.2,1.2c0,0.1,0.1,0.3,0.2,0.4l-0.1,0.3
		c0,0.1,0.1,0.3,0.3,0.6c-0.2,0.3-0.3,0.5-0.2,0.7l0.1,0.5l-0.4,0.3c0.1,0.7,0.2,1.1,0.3,1.2h-0.2c0,0.2,0.1,0.4,0.2,0.5
		c0,0.8-0.2,1.3-0.3,1.7l0.1,0.2l-0.1,0.7l0.1,0.6c-0.1,0-0.1,0,0,0.1c0,0.1,0,0.2,0.1,0.3l-0.1,0.2l0.1,0.5c0,0.2,0,0.3-0.2,0.4
		c0,0.1,0.1,0.2,0.2,0.3c-0.1,0.2-0.1,0.9-0.1,1.9l0.2,0.8c-0.1,0.3-0.2,0.6-0.2,0.7l0.2,0.5l-0.2,1.3c0.1,0,0.1,0,0.1,0.1
		c0,0-0.1,0-0.1,0.1l0.1,0.2c0,0.2,0.1,0.3,0.2,0.3c-0.2,0.6-0.3,1-0.3,1.1l0.3,0.7l-0.1,0.2c0,0.1,0,0.2,0.1,0.3
		c-0.1,0-0.1,0.1-0.1,0.2v0.2l0.2,0.6c-0.1,0-0.1,0-0.1,0.1s0.1,0.2,0.1,0.4c-0.1,0.3-0.2,0.8-0.3,1.5c0.1,0,0.1,0.1,0.2,0.4
		c-0.1,0-0.1,0.1-0.1,0.1v0.1l0.2,0.4v0.1l-0.1,0.6c0.1,0,0.1,0,0.1,0.1c-0.1,0.6-0.2,0.9-0.3,0.9c0.2,0.4,0.3,0.7,0.3,0.9
		c-0.1,0-0.2,0.1-0.2,0.2v1.1l0.2,0.5c-0.1,0-0.1,0-0.1,0.1c0.2,0.3,0.3,0.6,0.3,0.8l-0.1,0.6c0.1,0,0.1,0,0.1,0.1h-0.1
		c0.2,1.2,0.4,1.9,0.5,2l-0.1,0.3l0.2,0.7c0,1.8,0.7,2.8,2.2,3l0.4-0.2c0.2,0.1,0.3,0.1,0.4,0.1c1.2,0.1,1.8,0,1.8-0.2
		c1.5,0,2.9-0.2,4.4-0.6C92.8,100,93,99,93.2,99v-0.1L93,99l-0.1-5.3c1.2-0.3,2.4-0.7,3.5-1c0.1,0,0.1,0,0.2,0
		c0.6-0.2,1.3-0.3,1.9-0.5c0.1,0,0.1,0,0.2-0.1c0.5-0.1,1-0.2,1.6-0.4c0.1,0,0.1-0.1,0.2-0.1c0.3-0.1,0.5-0.1,0.8-0.2v0.1
		c0,0.1-0.1,0.1-0.4,0.1v0.3c0.1,0.1,0.2,0.2,0.3,0.2c-1.3,0.4-2.5,0.9-3.7,1.3c-0.1,0-0.1,0-0.2,0.1c-0.3,0.1-0.6,0.1-0.9,0.2
		c0.4,0.7,0.9,0.8,1.6,0.2c0,0,0-0.1,0-0.2c0.9-0.2,1.7-0.5,2.6-0.7c0.1,0,0.1-0.1,0.2-0.1c0.3-0.1,0.5-0.1,0.8-0.2
		c0,0.1,0,0.2,0.1,0.3l-0.1,0.5c0.2,0.6,0.3,0.9,0.3,1l-0.1,0.4c0.2,0.1,0.3,0.1,0.4,0.1c0,0.1-0.1,0.1-0.1,0.1
		c0.1,1,0.2,1.5,0.4,1.5l-0.3,1l0.1,0.3c0,0.2,0.1,0.3,0.2,0.3c0,0.1-0.1,0.2-0.2,0.2c0,0.2,0.1,0.5,0.4,1l-0.1,0.3
		c0.2,0.2,0.3,0.4,0.3,0.7c0,0.3,0.2,0.9,0.7,1.7h0.1l0.3-0.2c0.4,0.1,1.1,0.1,1.9,0.1l0.4-0.1c0,0.1,0.2,0.2,0.5,0.3l0.2-0.2
		c0.1,0,0.2,0,0.4,0.1c2.9,0.2,4.4,0,4.7-0.6c0.6-0.1,0.8-1.9,0.6-5.3v-4.6c0.6,0.1,1.3-0.1,2-0.4c0.1,0,0.1-0.1,0.2-0.1
		c0.9-0.2,1.7-0.4,2.6-0.7c0.1,0,0.1,0,0.2,0c1-0.3,2-0.6,3-0.8c0.1,0,0.2,0,0.2-0.1c2-0.1,4.1-0.6,6.3-1.3c0.1,0,0.1,0,0.2,0
		c0.6-0.2,1.2-0.3,1.7-0.5c0.1,0,0.1-0.1,0.2-0.1h0.1c0.2,2,0.3,3.3,0.1,3.8l0.2,0.2c0,0,0,0.4,0,1l0.1,0.2h-0.1
		c0.3,2.1,0.4,3.4,0.2,3.7c0,0.1,0.1,0.2,0.2,0.3c0.1,0.6,0.1,0.9-0.1,0.9c0,0.1,0.1,0.2,0.2,0.3c0.1,0.4,0.3,1.7,0.5,3.9
		c0.3,0.9,0.5,1.3,0.6,1.3c0.8,1.4,2.5,1.8,5.1,1c3-0.9,4.4-1.5,4.3-1.9c0.2-0.5,0.4-1.3,0.7-2.4c0.2-0.9,0-3-0.7-6.2
		c-0.1,0-0.2,0-0.2,0c0.1-0.8,0.1-1.3,0-1.5c0-0.1-0.1-0.2-0.3-0.3l0.2-0.6l-0.2-0.2c0.1-0.7,0.2-1.9,0.1-3.5c-0.1,0-0.1,0-0.1-0.1
		c0.2,0,0.2-0.2,0.2-0.4c-0.2-0.7,0.3-1.4,1.5-2.1c2.2-0.6,4.3-1,6.3-1.2c0.6,0.9,1.9,3.6,3.6,7.9c-0.1,0-0.1,0.1-0.1,0.1
		c0.1,0.1,0.4,0.7,0.8,1.8c0.7,2.7,1.7,4,3,4c0.2,0.6,1.9,0.4,5.3-0.4c1.2-0.3,2-1,2.6-2.1l0.8,0.7c0.1,0.9,1.8,2.6,5.3,5.2h0.3
		l-0.4-0.6v-0.1c1.3,0.6,2.1,1,2.4,0.9c2.5,1.3,5.8,1.8,9.7,1.5l2.5-0.6c1-0.7,1.8-1.1,2.3-1.1c0.2,0,0.3,0,0.3,0.2
		c1.5-0.3,3.8-2.6,6.8-7C194.7,91.5,195.4,89.5,195.3,88z M193.4,55.6c0,0-0.1-0.1-0.1-0.2C195.3,56.8,195.3,56.9,193.4,55.6z
		 M185.1,45c0-0.1-0.1-0.1,0-0.2C185.9,45.6,185.9,45.6,185.1,45z M174.3,50.6c-0.3,0-0.5-0.2-0.6-0.7
		C175.2,50.3,175.4,50.5,174.3,50.6z M175.9,49.6c-0.4,0.1-0.7-0.2-0.7-0.7C177,49.3,177.3,49.5,175.9,49.6z M173.7,47.8
		c1.6,0.4,1.8,0.7,0.5,0.8C173.8,48.7,173.6,48.4,173.7,47.8z M170.2,53l-0.3-0.3C171.1,52.8,171.2,52.9,170.2,53z M101.4,85.5
		C101.4,85.5,101.4,85.6,101.4,85.5L101.4,85.5l-0.2,0.1c0,0.1,0,0.2,0.1,0.3c-0.1,0-0.1,0-0.2,0c-0.9,0.2-1.6,0.5-2.2,1
		c-0.1,0-0.1,0-0.2,0c-0.5,0.1-1,0.3-1.5,0.4c0,0.1,0.1,0.2,0.1,0.3c-0.1,0-0.2,0-0.2,0.1c-0.4,0.1-0.7,0.2-1.1,0.3
		c-0.1,0-0.1,0-0.2,0.1c-0.6,0.2-1.1,0.5-1.6,0.8c0.7,0.8,1.4,0.8,2,0.1c0,0,0-0.1,0-0.3c0.1,0,0.1-0.1,0.2-0.1s0.2,0,0.2-0.1
		c0.3,0.4,0.7,0.5,1.2,0.3V89c-0.1,0-0.1,0-0.2,0c-0.7,0.4-1.4,0.8-2,1.3c-0.1,0-0.1,0-0.2,0c-0.2,0-0.3,0.1-0.4,0.1s-0.1,0-0.2,0.1
		c-0.1,0-0.3,0.1-0.4,0.1c0,0.1,0.1,0.2,0.1,0.3c0,0.1,0.1,0.2,0.1,0.3c-0.1,0-0.1,0-0.2,0.1c-0.4,0.1-0.9,0.2-1.3,0.3H93v-0.7
		c-0.1,0-0.1,0-0.1-0.1c0.1-0.4,0.2-0.9,0.1-1.5l-0.3-5c0-0.6-0.1-1.6-0.2-2.9c0.4-0.9,1.1-1.4,1.8-1.5h0.3l0.6,0.1
		c0-0.1,0-0.1,0.1-0.1h2.4l0.8,0.1c0-0.1,0-0.1,0.2-0.1c1.7,0.5,2.6,1.1,2.7,1.9c-0.1,0-0.2,0-0.1,0.1l0.1,1.4l0.1,0.2
		c-0.1,0-0.2,0.1-0.2,0.1l0.2,0.8c-0.1,0-0.1,0.1-0.1,0.1l0.1,0.2l-0.2,0.1C101.3,85.4,101.3,85.5,101.4,85.5z M113.2,89.8
		c-0.1,0-0.3,0.1-0.4,0.1c0,0.1,0,0.2,0.1,0.3c-0.1,0-0.1,0.1-0.2,0.1h-0.1c0-0.2,0.1-0.5,0.1-0.8l0,0c0.1,0,0.2,0,0.2-0.1
		c0.1,0,0.1,0,0.2,0s0.1,0,0.2-0.1c0,0.1,0.1,0.2,0.1,0.3C113.3,89.7,113.2,89.8,113.2,89.8z M113.7,87.7c-0.1,0-0.1,0.1-0.2,0.1
		c-0.4,0.1-0.7,0.2-1.1,0.3c0-0.1,0-0.2,0-0.4c0.1,0,0.1,0,0.1,0c0.1,0,0.1,0,0.2-0.1c0.5-0.1,1-0.3,1.5-0.4c0.1,0,0.1,0,0.2-0.1
		c0,0.1,0,0.2,0,0.2C114.3,87.5,114,87.7,113.7,87.7z M143.5,71.4c-0.4,0.1-1.6,0.6-3.5,1.3c-0.4-0.1-0.6-0.1-0.7-0.1l-0.2-0.5
		c-0.2-0.6-0.2-1.1,0-1.4v-0.1l-0.1-0.2c0.2-2,0.3-3.7,0.2-5.1c-0.1-2.5-0.1-3.8,0-3.9c0.3-0.1,1,0.8,1.9,2.7H141
		c0.8,1.8,1.3,3,1.4,3.5c0,0.1,0.1,0.2,0.3,0.4v0.1c0.1,0.1,0,0.2-0.2,0.2l0.8,1.4l0.2,1.1c0.1,0,0.1,0.1,0.2,0.3l0.1,0.2
		C143.6,71.5,143.6,71.5,143.5,71.4z M181,92.6h-0.3v-0.1L181,92.6L181,92.6z M185.9,85.8L185.9,85.8
		C186.7,86.3,186.7,86.3,185.9,85.8z M186.7,90.7L186.7,90.7C187.6,91.2,187.6,91.2,186.7,90.7z M188.1,82L188.1,82
		C189.4,81.6,189.4,81.6,188.1,82z M191.4,83.3c-0.3,0.9-0.5,1.1-0.8,0.6C191.5,82.4,191.8,82.3,191.4,83.3z M190.9,94.3
		c0-0.1,0-0.1-0.1-0.2C191.4,95,191.4,95.1,190.9,94.3z M191.3,89.8L191.3,89.8C192.4,88.9,192.4,89,191.3,89.8z M192.5,84.3
		c0.8,0.6,0.8,0.7,0,0.2C192.5,84.5,192.5,84.4,192.5,84.3z M193.1,88.8c0-0.1-0.1-0.1-0.1-0.2C193.9,89.2,193.9,89.3,193.1,88.8z"
		/>
	<path d="M14.5,39.8c0.8,1.9,0.9,1.9,0.1-0.1C14.5,39.7,14.5,39.8,14.5,39.8z"/>
	<path d="M11.1,29.5C11.8,30.4,11.8,30.4,11.1,29.5L11.1,29.5z"/>
	<path d="M12.1,34C12.9,35.2,12.9,35.2,12.1,34C12.1,33.9,12.1,33.9,12.1,34z"/>
	<path d="M13.8,28.3c1.3-1,1.1-1.6-0.5-1.6c-0.4,0.6-0.3,1.2,0.2,1.6C13.6,28.3,13.7,28.4,13.8,28.3z"/>
	<path d="M185.7,56.9c0,0-0.1,0-0.2-0.1c0.1,0.2,0.1,0.5,0.2,0.7c0-0.1,0-0.1,0-0.2S185.7,57.1,185.7,56.9L185.7,56.9z"/>
	<path d="M187.6,60.8c-0.1,0-0.2,0-0.3,0c-0.3-0.1-0.6-0.2-0.8-0.3l-0.1,0.6c0,0.2,0.1,0.3,0.3,0.2c0.7,1,1.3,1.4,1.5,1.4l0.3-0.1
		l1.5,0.9h0.5v-0.1C189.1,62.9,188.2,62,187.6,60.8z"/>
	<path d="M182.6,51.5c0-0.1,0-0.1-0.1-0.2c-0.8-0.5-1.5-0.8-2.2-0.9l0.6,0.2C181.6,50.8,182.2,51.1,182.6,51.5z"/>
	<path d="M27.5-7.2c0,0.1-0.1,0.2-0.1,0.2C27.8-5.7,27.8-5.8,27.5-7.2z"/>
	<path class="st5" d="M173.1,67.4c0.6-1.1,1.1-2.1,1.5-2.9c0.9,0.9,1.5,1.4,1.8,1.4c0.4,0,0.6-0.1,0.5-0.3l0.1-0.5
		c-0.6-0.8-1.2-1.4-1.7-2.1c0.7-1.5,1.1-2.5,1-2.9h-1.4c-0.3,0.3-0.6,0.8-0.9,1.4c-0.2-0.2-0.4-0.5-0.5-0.7
		c-0.3-0.3-0.5-0.6-0.8-0.7h-1.1c0,0.2,0,0.4-0.1,0.7l1.7,2.2c-0.6,1.7-1,2.8-1,3.5C172.4,67,172.6,67.3,173.1,67.4z"/>
	<path class="st5" d="M174.7,81c0-0.8,0-1.6,0.3-2.2c0.5-1.2,1.9-1.8,4.1-1.9c1.4,0,2.4,0.2,3.1,0.7c0.6,0.4,1,0.6,1.2,0.6
		s0.4,0,0.5,0c0.1-0.1,0.1-0.1,0.2-0.2l0.1-0.4c-3.9-1.9-6.8-2.3-8.6-1.2c-1.3,0.8-1.9,2-1.8,3.7c0,0.4,0.2,0.8,0.7,1.2L174.7,81z"
		/>
	<path class="st5" d="M185.3,65.4c-0.5-0.9-1.2-1.9-2.1-2.9c0.7-1.2,1.1-2,1.1-2.4l0,0h-1.1c-0.4,0.2-0.7,0.6-1.1,1.1
		c-0.4-0.4-0.7-0.8-1.1-1.1h-1.8c0.4,0.6,1.1,1.3,2,2.3c-0.6,0.9-0.9,1.6-0.9,2c0,0.2,0,0.4,0,0.4s0.1,0.1,0.2,0.2l0.4,0.1
		c0.4,0,0.9-0.5,1.5-1.3c0.7,0.7,1.5,1.4,2.4,2.2C184.9,65.9,185.1,65.7,185.3,65.4z"/>
	<path d="M22.7,33.6c0.6,0.4,0.5,0.1-0.2-0.7C22.4,33.3,22.5,33.5,22.7,33.6z"/>
	<path d="M23.2,28.1c0.3,2,0.4,2,0.3,0.3c0,0,0-0.1-0.1-0.1c0-0.1,0-0.2,0.1-0.2c0.1-0.5,0-1-0.5-1.4c-0.3,0.5-0.3,0.9,0,1.3
		C23.1,28,23.1,28.1,23.2,28.1z"/>
	<path d="M22.1,29l-0.2,0.2C22.8,29.7,22.8,29.6,22.1,29z"/>
	<path d="M26.7,1.4c1,0.6,1.1,0.2,0.2-1.4c-0.4,0.3-0.5,0.6-0.4,1L26.7,1.4z"/>
	<path d="M20,26l-0.1,0.1C20.7,26.9,20.7,26.8,20,26z"/>
	<path d="M23.9,22.4L23.9,22.4C24.8,23.2,24.8,23.2,23.9,22.4z"/>
	<path d="M17.8,29.1c0.7,0.1,0.6-0.2-0.3-1c-0.1,0-0.1,0.1-0.1,0.2c-0.3,0.3-0.4,0.7-0.3,0.9c0,0.1,0.1,0.1,0.1,0.2
		c0,0.4,0,0.7,0.2,1c0,0.1,0.1,0.2,0.1,0.2c0.4,1.2,0.8,2.4,1.4,3.6c0.1,0,0.1,0.1,0.1,0.2c0.3,1.4,0.7,2.8,1.1,4.2
		c0.1,0,0.1,0.1,0.2,0.1c-0.2-1.4-0.5-2.7-1-4c0-0.1-0.1-0.2-0.1-0.2c0-0.1,0-0.1,0-0.2c-0.3-1.2-0.7-2.3-1-3.5v-0.1
		c-0.2-0.6-0.4-1.2-0.6-1.7C17.7,29.2,17.8,29.1,17.8,29.1z"/>
	<path d="M16.8,45.7l-0.1,0.1c1,0.8,1.1,0.6,0.3-0.4c0-0.1,0-0.2,0.1-0.2c-0.4-0.8-0.8-1.6-1.4-2.3c0.3,0.9,0.6,1.8,0.9,2.7
		C16.7,45.6,16.8,45.6,16.8,45.7z"/>
	<path d="M4.2,35.5C4,35.8,4,36,4,36.3c0,0.2,0.2,0.5,0.4,0.7c0.1,0.2,0.2,0.3,0.3,0.2C5.9,36.1,5.8,35.5,4.2,35.5z"/>
	<path d="M5.3-2.6c-0.1,0-0.1,0.1-0.1,0.2c0.1,0.1,0.1,0.1,0.2,0.1c1.5-0.8,2.2-2.2,2-4.4C6.7-5.3,6-4,5.3-2.6z"/>
	<path d="M9.9,25.8c0.3,1,0.4,1,0.1-0.1C9.9,25.7,9.9,25.7,9.9,25.8z"/>
	<path class="st5" d="M21.4,45c-0.1,0-0.2,0-0.2,0.1c0.5,0.5,0.5,1,0.1,1.4c-0.1,0.1-0.1,0.2-0.1,0.2c-0.7,0.2-1.4,0.6-2,1
		c0,0.1-0.1,0.1-0.1,0.1c-0.1,0.2-0.2,0.3-0.4,0.3c-0.3,0-0.7-0.5-1.1-1.6c0.1,0.7,0.2,1.4,0.4,2.1c0,0.1,0.1,0.1,0.1,0.2
		c0,0.3,0.1,0.6,0.4,0.9L18.4,50c-0.1,0.1-0.1,0.2-0.2,0.3c1.5,2.6,2.8,5.6,4,9c0.5,1.7,1.1,4.1,1.8,7.1c0.5,0.2,0.9,0.4,1.4,0.6
		v1.3c0,0.2,0.1,0.5,0.3,0.7c-0.1,0.2-0.1,0.3-0.1,0.4l2,10.8c0.6,2.7,1.2,5.2,1.6,7.5l3.9,13.4c-0.1,1.5,1.3,2.2,4.2,1.8
		c0-0.1,0-0.1,0.1-0.1c0,0.1,0.1,0.1,0.2,0.1h1.8l0.1,0.1v0.1c0,0,0.2,0,0.4-0.1c1.8,0.3,2.8,0.2,3-0.1c0.8,0.2,1.4-0.5,1.7-2
		s0.5-2.3,0.5-2.5c0.4-0.2,0.7-1.2,0.9-3c0.7-1.3,1.5-4.6,2.5-9.8l-0.2-0.2c0.6-1.1,1.2-3.5,2-7.1c0.2-1.1,0.4-2.3,0.7-3.6
		c0.4,1.3,0.7,2.6,1,3.8c0.9,3.6,1.6,6,2.2,7.1l-0.1,0.2c1.2,5.2,2,8.4,2.5,9.6c0.4,1.1,0.8,2,1.1,2.5c0.3,0.5,0.5,1.1,0.8,1.9
		c0.3,0.7,0.8,1.6,1.4,2.6c0.1,0.6,1.2,0.9,3.3,0.7c0.3,0,0.4,0.1,0.5,0.1v-0.1l0.2,0.1h1.9c0.1,0,0.1,0,0.1-0.1
		c0.1,0,0.1,0,0.1,0.1c2.8,0.2,4.4-0.3,4.8-1.4l2.9-12.3v-1.7c0.3-2.3,0.7-4.9,1.3-7.6L76.7,69c0-0.1,0-0.2-0.1-0.4
		c0.2-0.2,0.2-0.5,0.2-0.7v-1.4c0.4-0.6,0.5-1,0.5-1.4c0-0.1-0.1-0.1-0.2-0.1l0.7-4.3l-0.1-0.3c0.2-0.3,0.4-1.3,0.6-3l1.5-8.3
		c0.1-0.8,0.1-1.4,0-1.9v-0.4c-0.3-0.5-0.6-0.8-1-1.1c-0.2-0.4-1.5-0.4-3.9-0.1h-0.1c-1,0.1-1.9,0.1-2.6-0.1
		c-0.1-0.1-0.7,0.1-1.8,0.4c-0.4,0.2-0.8,0.9-1.2,2.2c-0.2,2.1-0.7,4.7-1.5,7.6c-0.2,0.9-0.3,1.7-0.4,2.5l-0.2,1
		c-0.1,0.2-0.5,3.1-1.5,8.7l0.2,0.3c-0.4,1.2-0.6,2.5-0.7,3.8c-0.1,0-0.2,0.1-0.2,0.2h0.2c-0.1,0.2-0.2,0.4-0.3,0.4l0.2,0.5
		c-0.6,1.5-1.2,5-1.7,10.8H63c-0.6-1.8-1.3-5-2.1-9.6c-0.2-0.7-0.4-1.9-0.7-3.4L60,69.8c-0.3-2.4-0.6-4-0.9-5c0-0.1,0-0.1,0.1-0.1
		l-1-6v-0.9c-0.1-0.2-0.3-1-0.6-2.5c-0.1,0-0.2-0.2-0.3-0.5c0-0.1,0-0.1,0.1-0.1c-0.3-1.5-0.7-2.8-1.1-3.9c0.1-0.2,0.1-0.4,0.2-0.5
		c0-0.2-0.1-0.5-0.3-0.9l0.1-0.5c-0.8-0.9-1.2-1.3-1.3-1.3c-0.3,0.1-0.6,0.1-0.9,0.1c-0.3-0.2-1.2-0.4-2.7-0.4c0,0-0.1,0.1-0.2,0.1
		c-0.7-0.1-1-0.2-1-0.3c-1.9,0.1-2.8,0.3-2.8,0.6c-0.1,0.1-0.3,0.1-0.4,0.2c-0.1,0-0.2-0.1-0.4-0.1s-0.6,0.5-1.3,1.4l0.2,0.5
		c-0.2,0.3-0.3,0.6-0.3,0.9c0,0.1,0,0.2,0.1,0.3c-0.4,1-0.7,2.2-0.9,3.7c0.1,0,0.1,0,0.1,0.1c-0.1,0.4-0.2,0.5-0.2,0.6
		c-0.3,1.5-0.5,2.3-0.7,2.4v0.9l-0.8,6.1c0.1,0,0.1,0,0.1,0.1c-0.2,0.9-0.5,2.6-0.8,5l0,0L41.8,71c-0.2,1.6-0.3,2.7-0.5,3.5
		c-0.7,4.6-1.3,7.8-1.9,9.6h-0.3c-1.1-5.4-1.8-8.6-2-9.8l-0.2-1.5c-0.1,0-0.1-0.1-0.2-0.4h0.1c0-0.1,0-0.2-0.1-0.2
		c-0.6-2.3-1.3-5.5-2-9.8c-0.8-4.2-1.4-8.4-1.8-12.6c0.1,0,0.3,0,0.4-0.1c0.1,0,0.1-0.1,0.1-0.2v-0.1c-0.1-0.4-0.4-0.8-0.7-1.1
		c-0.1,0-0.1,0.1-0.1,0.1c-0.4-0.8-0.9-1.4-1.5-1.7c0.1-0.3,0.1-0.6,0.2-1c0.1-0.1,0.1-0.2,0.1-0.2c0.1-0.3,0.2-0.6,0.2-1
		c0.1-0.1,0.1-0.1,0.1-0.1c0.5,0,0.6-0.5,0.3-1.2c-0.4,0.3-0.6,0.7-0.6,1c0,0.1,0,0.2,0,0.2c0,0.3-0.1,0.5-0.3,0.8
		c-0.1,0.1-0.1,0.1-0.2,0.2c-0.1,0-0.1-0.1-0.1-0.2c0,0,0-0.1,0.1-0.1c0-0.1,0-0.1,0.1-0.2c-0.1-0.5-0.2-0.9-0.3-1.4
		c0.1-0.1,0.1-0.1,0.1-0.2c0-0.6,0-1.2,0-1.8c0-0.1,0-0.1,0.1-0.2c0.1-0.6,0.1-1.1,0.2-1.7c-0.1,0.1-0.2,0.2-0.3,0.4
		c0,0.1,0,0.1-0.1,0.2c-0.1,0-0.1-0.1-0.2-0.1c0-0.1,0-0.1,0-0.1c0.1-0.5,0.1-1,0-1.4c0-0.1,0.1-0.2,0.2-0.2
		c0.3-0.4,0.5-0.8,0.4-1.1c-0.1,0-0.1-0.1-0.2-0.2L30.8,37h-0.1c-0.6,0.4-1-0.1-1.1-1.3c0.1-0.1,0.1-0.1,0.1-0.1
		c0-0.5-0.1-1-0.1-1.4c0.1-0.1,0.1-0.2,0.2-0.2c0.1-0.3,0.1-0.5-0.1-0.7c0-0.1,0-0.1,0.1-0.2c0-0.1,0-0.2,0-0.4c0,0,0.1-0.1,0.1-0.2
		c0.2-0.5,0.4-1.1,0.6-1.6c-0.3-0.2-0.4-0.5-0.4-0.8c-0.3,0.6-0.7,0.8-1.2,0.6c-0.3,0.4-0.4,0.8-0.2,1.3c0,0.1,0,0.1,0.1,0.1
		c0,0.2,0.1,0.5,0.2,0.7c0,0.1,0,0.2,0,0.2c0,0.4,0,0.8,0.1,1.2c0,0.1,0.1,0.1,0.1,0.2c0,0.5,0,1,0,1.5c0,0.1-0.1,0.2-0.1,0.2
		C29,36.7,29,37.2,29,37.7c0,0.1,0,0.1,0.1,0.2c-0.5,1-0.5,1.4,0,1.2c0,0,0.1,0,0.1,0.1s0,0.1,0,0.2c0,0.1,0,0.1,0.1,0.2
		c0.4,0.6,0.6,1.2,0.6,1.9c0,0.1,0,0.1,0.1,0.1c0,0.1-0.1,0.1-0.1,0.2c-0.1,0-0.1,0-0.1,0.1c0,0-0.1,0-0.2-0.1
		c-0.3-0.3-0.7-0.4-1-0.5c-0.5-0.1-1-0.7-1.7-1.7l0.1-0.1c0.2-0.3,0.3-0.5,0.5-0.8c0.1,0,0.1-0.1,0.1-0.2c0-0.4-0.4-0.4-1,0
		c-0.1-0.1-0.1-0.1-0.1-0.1c-0.4-1.4-0.2-2.9,0.4-4.4c0.1,0,0.1-0.1,0.1-0.2c0.4-1.1,0.2-1.4-0.4-1c0-0.1-0.1-0.1,0-0.2
		c-0.1-3,0.2-5.8,0.8-8.3v0.1c-0.4-3.2,0-6.5,1.3-9.9c-0.1-0.1-0.1-0.1-0.1-0.2c0.1-1.7,0-3.3-0.3-5c0,0,0.1-0.1,0.1-0.2
		c0.4-1.5,0.1-2-0.8-1.6c0.1,0.5,0.3,1.1,0.5,1.8c0,0.1,0.1,0.2,0.1,0.2c-1.6,5.1-2.2,10-1.8,14.7c0,0.1-0.1,0.1-0.1,0.2
		c-0.8,1-1.1,2-0.9,3.2l0.2-0.3c0.6-0.7,0.8-0.2,0.7,1.5c-0.2,2.1-0.5,4-0.9,5.6c0-0.5-0.2-0.9-0.4-1.4c0-0.1-0.1-0.1-0.1-0.1
		c0.1-0.7-0.1-1.4-0.7-2.1c0,0.8,0.2,1.6,0.5,2.3c0,0.1,0.1,0.1,0.2,0.2c0.1,0.5,0.2,0.9,0.2,1.4c0,0.1,0.1,0.1,0.1,0.2
		c0.1,0.3,0.1,0.6,0.2,0.8c0.2,0.9,0,1.4-0.5,1.6c-0.5,0.1-1.2-0.5-2.1-1.8c0,0.4,0,0.7-0.1,1c-0.1,0.1-0.1,0.1-0.1,0.2
		c-0.1,0.3-0.2,0.7-0.3,1c0,0.1,0.1,0.1,0.1,0.1c0.1,0.3,0.2,0.5,0.3,0.8c0,0.1,0,0.1,0.1,0.2c-0.2,1.4-0.2,1.7,0,0.8l0.1-0.1
		c0.2,0.6,0.4,1,0.6,1.1l0.1,0.1c0,0.7-0.1,1.3-0.4,2C23.1,43,23,43,22.9,42.9c-0.5-1.5-1.3-2.7-2.3-3.7c0.1,2.1,0.5,4.1,1.1,6.1
		L21.4,45z M71.2,49.3L71.2,49.3l0.2,0.2c0,0.1-0.2,0.2-0.4,0.3h-0.1C70.9,49.5,71.1,49.3,71.2,49.3z"/>
	<path class="st5" d="M94.4,134.1c0,0-2.4-0.6-7.4-0.9c-5-0.3-7.2,0.1-7.2,0.1l0.8,3.1l-65.9-6.5c0,0-1-0.1-1.4,3.7s0.6,3.9,0.6,3.9
		l65.6,6.4c-0.4,0.8-1.7,2.8-3.5,4.1c-2.3,1.7-7.3,2.2-7.3,2.2c1.9,4.1,5.1,6.7,8.4,7.7h15.2l0.1-0.2c0,0-0.4-0.3-0.8-0.8l0.8,0.6
		c0,0-0.7-1.8-1.3-3.9c-0.6-2.1-0.7-4.9-0.7-4.9c-0.9,0.9-0.8,4.1-0.7,5.8c-0.5-0.8-0.8-1.6-0.9-2.5c-0.3-2.5-0.3-4.6,0.3-7.1
		l9.2,0.9c0,0-2-0.2-1.6-4s2.4-3.6,2.4-3.6l-6.2-0.6L94.4,134.1z"/>
</g>
<g>
	<path class="st3" d="M229.9,147.8h0.2v0.2h-0.5C229.7,147.9,229.8,147.9,229.9,147.8z M227.2,106.6c-1,0-1.5,1.6-1.6,4.7
		c0.1,0.1,0.1,0.2,0.1,0.3l-0.1,0.2c0,0.2,0,0.3,0.1,0.5l-0.1,3.1l0.3,3.3c-0.1,0-0.2,0.2-0.2,0.6c0,0.2,0,0.3,0.1,0.5
		c-0.1,2.4-0.1,4.3,0,5.6l0.1,0.2l-0.1,0.1v0.7l0.1,0.2c-0.1,0-0.2,0.3-0.3,1l0.1,0.2c0,0.2,0,0.4-0.1,0.6c0.1,0.4,0.1,0.7,0.2,1
		v0.9l-0.1,0.6l0.1,0.1c-0.1,0.1-0.1,0.3-0.1,0.5v1.5c0,1.5,0,2.6-0.1,3.3l0.1,0.1h-0.1l0.1,0.8v0.1l-0.1,0.6l0.1,0.1l-0.1,0.5
		l0.1,0.2c-0.1,0.4-0.2,0.7-0.2,0.8l0.3,2.6c0,0.7-0.1,1-0.1,1.1c0.3,3.4,0.8,5.3,1.4,5.6c0,0.5,0.8,0.8,2.2,1
		c0.2,0,0.3-0.1,0.5-0.1c0.1,0.1,0.3,0.1,0.5,0.1c2-0.4,3.2-0.9,3.7-1.5c0-0.1,0-0.2-0.1-0.3c0.3-0.5,0.5-0.7,0.6-0.7v0.2h0.2
		l0.2-1.7l-0.1-0.2c0,0,0-0.3,0.1-0.7c-0.1-1.7-0.3-2.7-0.4-3.2h0.1c-0.1-1.1-0.2-1.9-0.2-2.2l0.1-0.6c-0.1,0-0.2-0.2-0.3-0.7
		l0.2-0.5l-0.1-0.7v-0.9c0-0.5-0.1-1-0.2-1.4c0.1-0.4,0.1-0.9,0.1-1.4v-0.4c0-0.3-0.1-0.7-0.2-1.2c0.1-0.7,0.2-1,0.3-1h0.1
		c0.7,1.7,1.5,3.2,2.2,4.6c1.8,2.7,3.6,5.9,5.3,9.5c1.9,2,3.3,3.2,4.3,3.7c1.3,0.2,2.1,0.4,2.3,0.5h0.2l0.2-0.1v0.1
		c0.2,0,0.3-0.1,0.5-0.1l1.2,0.2l0.5-0.1l0.1,0.1c0.2,0,0.3-0.2,0.3-0.5c0.7-0.4,1.2-1,1.5-1.9v-0.6c0-0.2,0-0.3-0.1-0.5l0.1-0.2
		c-0.1-0.8-0.1-1.4-0.1-1.8l-0.1-2.3c0-0.1-0.1-0.2-0.3-0.2c0-0.1,0.1-0.3,0.2-0.6l-0.1-0.2l0.2-1.8l-0.1-0.5l0.1-0.4
		c-0.2-0.6-0.2-1-0.2-1.1l-0.1-1.8l-0.1-0.2c0.2,0,0.3-0.5,0.3-1.5l-0.1-1.1l0.2-0.5c0-0.1,0-0.2-0.1-0.3l0.1-0.2
		c0-0.1-0.1-1-0.2-2.7l-0.1-0.2h0.1l-0.1-0.6v-1.1c0-0.4,0-0.9,0.2-1.4c0-0.2-0.1-0.5-0.2-0.8c0-0.1,0-0.3,0.1-0.7
		c0-0.1,0-0.2-0.1-0.4c0.1-0.1,0.1-0.3,0.1-0.5v-1.6l-0.1-0.2h0.1l-0.3-2.5l0.1-0.1l-0.1-0.7v-0.5l0.1-1.2c-0.1,0-0.3-0.3-0.4-0.9
		l0.2-2.4c-0.1,0-0.2-0.2-0.3-0.5c0.1-0.4,0.1-0.8,0.1-1v-0.8l-0.1-0.8l0.1-0.1l-0.1-0.2l0.1-0.6c-0.2-0.5-0.2-0.8-0.2-0.9
		c0-0.7-0.8-1.1-2.2-1.2h-0.2c-0.3,0-0.8,0.1-1.3,0.4c-0.3-0.1-0.7-0.2-1.3-0.2h-0.1l-0.2,0.1v-0.1c-0.9,0.1-1.4,0.3-1.3,0.6
		c-0.7,0-1.2,1.5-1.3,4.5c0.3,2.7,0.4,4.1,0.5,4.1c0.5,6.2,0.7,9.3,0.9,9.3h-0.1l0.1,0.6c0,0.3,0,0.6-0.1,0.9
		c0.2,0.6,0.3,1.2,0.3,1.9l0.1,3l-0.1,0.6c0.1,0,0.2,0.1,0.2,0.3v0.5l-0.1,1.4h-0.1c-0.1,0-0.3-0.4-0.6-1.2c-1.2-4.4-2.3-7.4-3.3-9
		c-1.6-4.6-3.2-8-4.6-10.4c-0.1-0.5-1.1-2.5-3.2-6.1c-1.4-0.8-2.7-1.3-3.9-1.2C228.2,106.3,227.4,106.4,227.2,106.6z M206.3,116.5
		c0.5-0.7,1.5-1,2.9-1.1h0.7l0.5,0.1l0.1-0.1l0.1,0.1c1,0,1.9,0.5,2.8,1.6l-0.1,0.1c0.4,1.5,0.6,2.4,0.6,2.8l-0.1,0.1
		c0,0.1,0.1,0.4,0.2,0.8l-0.1,0.1v0.1l0.1,0.2h-0.1c0.1,1,0.2,1.6,0.3,1.6l-0.1,0.1v0.1c0,0.2,0.1,0.3,0.1,0.4
		c-0.1,0.1-0.1,0.3-0.1,0.5v0.3l0.1,0.5l-0.1,0.1c0,0.1,0.1,0.2,0.2,0.2l-0.1,1.3v0.5l0.1,0.2l-0.1,0.1c0,0.1,0.1,0.2,0.2,0.2
		c-0.1,0.1-0.1,0.5-0.2,1.1l0.1,0.1h-0.1l0.3,2.1l-0.1,0.1l0.1,0.2c0,0.1,0,0.2-0.1,0.3l0.1,0.2l-0.1,3l0.1,0.1l-0.1,0.2l0.1,0.2
		h-0.1c-0.1,2.6-0.3,4.1-0.6,4.4c-0.3,1.8-1.7,2.8-4,2.9c-1.4-0.6-2.5-1.4-3.1-2.5c-0.7-2.2-1.3-4.3-1.6-6.3l0.1-0.2
		c0-0.1,0-0.2-0.1-0.3h0.1c-0.2-0.7-0.3-1.5-0.4-2.3l0.1-0.2c-0.2-1.4-0.3-2.3-0.3-2.9c0-0.1,0-0.2,0.1-0.3
		c-0.1-0.1-0.1-0.3-0.1-0.4v-0.8l0.1-0.6l-0.1-0.1l0.1-0.1v-0.1c0-0.2,0-0.3-0.1-0.4c0.1-0.1,0.1-0.7,0.2-2l-0.1-0.5
		c0.2-2,0.3-3,0.3-3.1l-0.1-0.1C205.3,117.9,205.8,117,206.3,116.5z M204.5,107.9l-0.1-0.1h-0.1c-0.6,0-1.5,0.5-2.8,1.4
		c-1.1,0.7-1.7,1.3-1.9,1.9c-0.8,2-1.3,3.7-1.5,5.4v0.3l0.1,0.5l-0.1,0.1l0.1,0.2c-0.1,0-0.1,0.1-0.2,0.3c0,0.1,0,0.2,0.1,0.3
		c-0.2,0.8-0.3,2-0.3,3.6c0.1,0.1,0.1,0.3,0.1,0.3l-0.1,0.2l0.1,0.2h-0.1c0.1,0.7,0.2,1.3,0.2,1.6l0.1,2.9c0,0.8,0.1,1.9,0.2,3.2
		c-0.1,0.1-0.1,0.3-0.1,0.5l0.1,0.1l-0.1,0.2c0,0.1,0,0.2,0.1,0.3c0,0.9,0,1.5,0,1.9s0.1,1.1,0.2,2l-0.1,0.2
		c0.2,1.1,0.4,2.2,0.4,3.3v0.7c0.3,0.8,0.5,1.6,0.5,2.2c0.5,3.4,1.1,5.1,1.6,5.1c0.4,0.7,0.8,1.2,1.2,1.6c2.7,1.5,5.5,2.2,8.4,2.1
		l0.1-0.2c1,0,1.7,0,2.2,0h0.1c1.6-0.3,2.6-0.6,3-0.9c1.3,0,2.8-1.2,4.6-3.4c0.5-0.6,1-2.1,1.4-4.8l-0.1-0.2l0.1-0.2
		c0-0.3,0-1.6,0-3.7l-0.1-0.5c0.1,0,0.1-0.4,0.2-1.1c-0.1-0.5-0.2-0.8-0.2-1c0.1-0.7,0.2-1.8,0.1-3.4c0-1-0.2-3.1-0.5-6.3
		c0.1-0.6,0.1-1.1,0.1-1.7c0-0.2-0.1-0.6-0.2-1.2l0.1-0.1c-0.1-0.1-0.1-0.3-0.1-0.5v-0.1c-0.1-1.8-0.2-2.8-0.4-3.1h0.1
		c0-0.3-0.2-1-0.6-2.2c-0.1-1.9-0.8-3.8-2.4-5.6c-0.9-0.7-2.2-1.6-3.9-2.5l-4.7-0.8C207,107.3,205.4,107.6,204.5,107.9z M193,147.2
		l0.1,0.6v0.2h0.2v-0.8H193z M192.9,144L192.9,144l0.1,0.3l-0.1,0.2h0.1c0,0.4,0,0.9,0,1.7l0.1,0.2c-0.1,0-0.1,0.2-0.1,0.5h0.2
		c0-0.2-0.1-0.4-0.1-0.5l0.1-0.2c0-0.1-0.1-0.4-0.2-0.8l0.3-0.8l-0.1-0.5C193.1,144.1,193.1,144,192.9,144z M159.1,109.7
		c-0.7,0.5-1.1,2.1-1,4.6c0.1,0.1,0.1,0.2,0.1,0.3l-0.1,0.2l0.1,0.2l-0.1,0.8l0.2,1.1c-0.2,0.3-0.2,0.6-0.2,0.9l0.1,1.7l0.1,0.5
		c-0.1,0-0.1,0.1-0.1,0.4c0,0.3,0.1,0.7,0.2,1.1c-0.1,0.3-0.1,0.6-0.1,0.8c0,0.3,0.1,0.5,0.1,0.7l-0.1,0.7l0.1,2l-0.1,0.6l0.1,0.1
		c0,1,0.1,2,0.2,3.2c0,1.8-0.1,3.2-0.2,4.2c0.1,0.2,0.1,0.3,0.1,0.3c-0.1,0.5-0.1,1-0.1,1.5v0.2l0.1,0.2h-0.1l0.4,6.1
		c0,0.5-0.1,1-0.1,1.3l0.1,0.2c-0.1,0.1-0.1,0.3-0.1,0.5v0.5l0.1,0.7c-0.1,0.1-0.1,0.3-0.1,0.6v0.2c0,0.2,0,0.3,0.1,0.5
		c-0.1,0.1-0.1,0.3-0.1,0.5l0.1,2.8c0.2,1.3,1.1,2,2.5,2c0.6-0.1,1-0.2,1.1-0.3l0.1,0.1h0.2c0.1,0,0.2-0.1,0.2-0.2l0.1,0.1
		c0.4,0,1.6-0.3,3.3-0.8c0.6-1.8,0.7-3.6,0.6-5.2v-0.1l0.1-0.6l-0.1-0.1l0.1-0.7v-0.3l-0.1-0.6c0.1,0,0.1-0.1,0.1-0.2
		c0-0.2,0-0.5-0.1-0.9l0.1-0.2c-0.1-0.1-0.1-0.3-0.1-0.5v-0.5c0-0.3,0-0.6,0.1-1c-0.1-0.1-0.1-0.9-0.1-2.5c0,0,0-0.3,0.1-0.7
		l-0.3-0.4c0-0.2,0-0.3,0.1-0.4l-0.1-0.5c0-0.1,0-0.4,0.1-0.9c0,0-0.1-0.3-0.2-0.8c0-0.1,0-0.2,0.1-0.3c0.1,0.1,0.4,0.8,0.9,2.2
		l-0.1,0.2l1.4,3.5h-0.1c0.8,2.6,1.6,4.7,2.4,6.2c1.1,2.7,1.9,4.1,2.2,4.1c0,0.7,1,0.9,2.9,0.7c1.1,0,1.7-0.1,1.8-0.2
		c1.1,0.1,2-1,2.7-3.2c0.3-1,0.8-2.1,1.4-3.3c0.2-1.1,0.6-2.5,1.4-4.2l-0.1-0.4h0.1l0.5-0.9c0-0.8,0.2-1.8,0.7-3l0.2,0.1l-0.1,0.1
		c0,0.3,0.2,0.6,0.6,1c0,0.8,0,1.6,0,2.2l0.1,2.4l-0.1,0.6l0.1,0.1c-0.1,0.5-0.1,0.9-0.1,1.2v0.2c0,0.2,0.1,0.4,0.2,0.7
		c0,0.2,0,0.4-0.1,0.6c0.3,2.2,0.4,3.9,0.3,5.1c0.9,1.4,2,2.1,3.4,2h0.7c1.1-0.2,2.1-0.3,2.9-0.3c1.4-0.6,2-1.4,2-2.6l-0.1-0.2
		c0.1-0.5,0.1-0.9,0.1-1.2v-1.2c0-0.6-0.1-1.3-0.2-2.2c0.1-0.1,0.1-0.3,0.1-0.6c-0.1-1.1-0.3-1.9-0.4-2.2h0.1l-0.1-0.8v-0.9
		l-0.1-0.2h0.1c0-0.3-0.1-0.7-0.2-1h0.1c-0.2-1.1-0.3-1.7-0.3-1.9l0.1-0.2l-0.1-0.2l0.1-1l0.1-0.8l0.1-0.1c0-0.3-0.1-0.6-0.2-0.9
		c0.1-0.7,0.2-1.2,0.2-1.3s-0.1-0.5-0.2-1.1c0-0.2,0-0.7,0.2-1.7l-0.3-2l0.1-0.1l-0.3-1.8l0.3-0.6c0-0.1-0.1-0.4-0.3-0.7l0.1-0.2
		c0-0.4-0.1-0.8-0.3-1.2h0.1l-0.3-1.4c0.1-0.1,0.1-0.3,0.1-0.3c0-0.3-0.1-0.7-0.3-1.3l0.1-0.2l-0.3-2.5c0.2,0,0.3-0.9,0.3-2.6
		c-0.1-2.3-0.2-3.5-0.4-3.5c0.4-1.4-0.5-2.2-2.7-2.3c-0.3,0.1-0.4,0.1-0.4,0.1l-0.2-0.1l-1.5,0.1l-0.2-0.1c-0.3,0.1-0.4,0.1-0.5,0.1
		c-0.8,0.7-1.5,1.8-2.1,3.3c-1.5,5.1-2.6,8.1-3.3,9c-0.6,2.2-0.9,3.3-1.1,3.3c0,0-0.7,2-2.2,5.9c-1.4,3.7-2.1,6.2-2.3,7.5h-0.6
		l-1.6-6.2c-0.7-2.2-1.1-3.3-1.2-3.3c0-0.2,0-0.3,0.1-0.5c-0.3-0.8-0.5-1.2-0.6-1.2c0-0.1,0.1-0.2,0.2-0.2c-0.8-2.7-1.4-4.7-2-5.9
		v-0.1l0.1-0.6c-0.2,0-0.4-0.5-0.7-1.6h0.1c-1.1-3.2-2.1-5.3-3-6.1c-0.1-0.6-0.7-1.4-1.7-2.4h-4c-0.1,0-0.2,0-0.4,0.1l-0.1-0.1h-0.3
		C159.9,108.7,159.4,109,159.1,109.7z M134.3,150.1v0.3h-0.1c0-0.1,0-0.2-0.1-0.3H134.3z M140,147.6v0.1h-0.2v-0.1H140z
		 M140.6,145.4c0.1,0,0.2,0.1,0.2,0.2v0.1h-0.3L140.6,145.4L140.6,145.4z M143.8,130.7L143.8,130.7l-0.2,0.1v-0.1l0.1-0.2
		C143.7,130.5,143.8,130.5,143.8,130.7z M140.6,130.2v0.2h-0.1L140.6,130.2L140.6,130.2z M141.8,114.6v0.2h-0.1L141.8,114.6
		L141.8,114.6z M142.3,111.3L142.3,111.3h-0.6v-0.1l0.1-0.2C142.1,111.1,142.3,111.2,142.3,111.3z M137.7,110.8l0.2,0.1l-0.1,0.2
		c-0.1,0-0.2-0.1-0.3-0.1c0.1-0.1,0.1-0.2,0.1-0.3L137.7,110.8z M132.1,109.6c-0.5,0.1-0.7,0.4-0.7,0.7c-0.7,0-0.8,1.7-0.4,4.9
		l0.1,0.2H131c0,0.2,0.1,1.7,0.1,4.7l0.1,0.1l-0.1,0.1c0.1,1.3,0,2.3,0,2.9l0.1,0.2c-0.1,1-0.2,2.1-0.1,3.3c0,0.1,0,0.2,0.1,0.4
		c-0.1,0.1-0.1,0.2-0.1,0.4v1.4v0.7l0.1,0.1c-0.1,0.1-0.1,0.4-0.2,0.9c0.1,0.1,0.1,0.2,0.1,0.3c0,0.4,0,0.9-0.1,1.5l0.1,0.1l0.2,2.8
		c0.1,0.7,0.1,1.2-0.1,1.3c0,0-0.1,0.1-0.1,0.2l0.1,0.2l-0.1,0.6v0.2l0.1,0.2h-0.1c0,0.7,0.1,1.4,0,2.2c0.1,2.2,0.3,3.6,0.4,4.4
		c0,0-0.1,0.1-0.1,0.2v0.3c0,0.5,0,0.8,0,0.8v0.8l0.1,0.2h-0.1c0,0.2,0,1.3,0.1,3.3s0.6,3,1.6,3s1.6,0,2,0h0.3
		c0.1,0.1,0.3,0.1,0.5,0.1l0.3-0.2h0.2v0.2c0.2,0,0.4-0.1,0.8-0.3c0.2,0.1,0.4,0.2,0.7,0.2l0.2-0.1v0.1l0.2-0.1
		c0.4,0.1,0.7,0.1,0.9,0.1s0.4,0,0.7-0.1c0.1,0,0.2,0.1,0.2,0.1l0.1-0.1l0.1,0.1h0.2c0.2,0,0.4-0.1,0.5-0.2c0,0.1,0.1,0.1,0.3,0.2
		c0.1-0.1,0.4-0.1,0.9-0.2l0.2,0.1l0.2-0.1l0.5,0.1c0.9-0.1,1.7-0.1,2.3-0.2l0.5,0.1c0-0.1,0.3-0.1,0.8-0.1c0.2,0.1,0.5,0.1,0.7,0.1
		h0.2l0.4-0.1c0,0.1,0.1,0.1,0.3,0.1s0.3-0.1,0.5-0.2c0,0.1,0.4,0.2,1.1,0.2c0.1,0,0.3-0.1,0.4-0.2h0.5l0.1-0.1
		c1.1-0.1,1.7-0.5,1.8-1.2c0.3-2,0.1-3.5-0.5-4.7c-0.1-0.7-0.2-1-0.4-1c0-0.5-0.6-0.8-1.9-0.9h-0.5L149,145l-0.1-0.1
		c0,0.1-1.1,0.1-3.3,0.1c0,0-0.3,0-0.7,0l-2.7,0.2c-0.5,0-1.3,0.1-2.4,0.1c-1.1,0.1-1.6-0.2-1.3-0.8l-0.2-4.2l0.1-0.5
		c0.1-0.9,0.1-1.4,0-1.7h0.1c-0.1-0.4-0.2-0.6-0.3-0.6l0.2-0.3v-0.1c0-0.3-0.1-0.4-0.3-0.4v-0.2h0.1c0-2.1,0.7-3.2,2.1-3.3h1.3
		c0,0,0.5,0,1.3-0.1h0.9c0.3,0,0.6,0,0.9,0.2c0.1,0,0.2-0.1,0.2-0.2l0.8,0.1c0.7-0.1,1.1-0.2,1.3-0.2c0.8-0.2,1.5-0.5,2.1-1
		c0.2-1,0.3-1.5,0.4-1.7c-0.1-0.1-0.1-0.2-0.1-0.3v-0.6c0-0.9-0.3-1.8-0.7-2.6c-0.7-0.9-2.7-1.3-6.2-1.2l-0.8,0.1l-0.1,0.1
		c0-0.1-0.1-0.1-0.4-0.2l-0.2,0.1v-0.1c-0.3,0-0.4,0.1-0.4,0.3h-0.2v-0.1h-0.5c-1.1,0-1.6-0.1-1.7-0.3v-0.1h0.2v-0.3
		c0-0.3-0.1-0.8-0.3-1.5c0.1-0.3,0.1-0.8,0.1-1.5v-0.9l-0.1-0.6c-0.2-1.1,0.4-2,1.6-2.6c0.1,0,0.1,0,0.2,0.1c1.3-0.3,1.9-0.5,2-0.5
		l0.1,0.1l1.2-0.2l3.5,0.1l0.1-0.1c0.2,0,0.3,0.1,0.3,0.3h0.2c0-0.2,0-0.3,0.1-0.3c0,0.2,0.1,0.3,0.2,0.3h0.1c0-0.1,0-0.2,0.1-0.3
		c0.6,0,0.9,0.1,0.9,0.2l0.8-0.3l0.5,0.1c0.4-0.3,0.5-0.4,0.5-0.5l0.2,0.1h0.2c0.5-0.1,1.1-0.5,1.9-1.2c0-0.1-0.1-0.2-0.2-0.4
		c0.2-0.7,0.3-1.5,0.3-2.6c-0.3-0.9-0.5-1.4-0.5-1.5c-0.4-0.3-0.7-0.5-0.7-0.6h-0.2v0.2h-0.1c0-0.3-0.2-0.5-0.7-0.7
		c-1.1-0.1-1.6-0.2-1.7-0.3h-0.1l-0.4,0.1c0-0.1-0.2-0.2-0.5-0.2l-0.1,0.1l-0.1-0.1H147l-0.1,0.1c0-0.1-0.4-0.1-1.1-0.1
		c-0.1,0.1-0.2,0.1-0.3,0.1l-0.3-0.1l-0.4,0.2c0-0.1-0.4-0.1-1.2-0.1l-0.2,0.1c0-0.1-0.1-0.2-0.2-0.2L143,110v-0.1
		c-0.1,0-0.2,0-0.3,0.1c-0.5-0.1-1.1-0.2-1.9-0.2l-0.1,0.1c0-0.1-0.2-0.1-0.7-0.2l-0.2,0.1l-0.2-0.1l-0.8,0.1c-0.1,0-0.1,0-0.2-0.1
		c-0.1,0.1-0.2,0.1-0.4,0.1h-0.1c-0.4-0.1-1-0.1-1.7-0.2C134,109.3,132.6,109.5,132.1,109.6z M116.8,144.1c-0.1,0.1-0.1,0.2-0.1,0.2
		h-0.3l-0.1-0.2l0.1-0.1L116.8,144.1z M105.8,138.5v0.6h-0.2L105.8,138.5L105.8,138.5z M111.3,120.6c0-0.6,0.4-1,1.2-1
		c1.7-0.1,3.2,0.6,4.5,2.1c0.2,0.3,0.6,1,1.3,2.2c0.7,1.5,1.1,2.7,1.1,3.7c0,0.1,0,0.2-0.1,0.3c0.1,0.4,0.1,0.7,0.1,1v0.8
		c0,0.1,0,0.2,0.1,0.3c-0.1,0.1-0.1,0.3-0.1,0.4v0.2c0,0.5,0,1,0,1.7c0.1,0.1,0.1,0.2,0.1,0.3c0,0-0.1,0.2-0.3,0.7l0.1,0.2
		c-0.2,2.3-0.4,3.9-0.6,4.9l0.1,0.4l-0.2,0.2c-0.2,0.9-0.5,2-1,3.5c0,0.2-0.3,0.7-0.9,1.3l-0.2-0.1h-0.3v0.1
		c-0.5,0.3-0.7,0.5-0.7,0.7h-0.1l-0.3-0.2c-0.4,0.3-0.6,0.5-0.6,0.6h-1.2h-0.1l-0.1,0.1l-0.1-0.2c-0.1,0.1-0.3,0.2-0.5,0.2
		c0,0.2-0.2,0.4-0.6,0.4c0-0.1-0.1-0.4-0.2-0.8c0-0.4,0-1.2,0-2.5c0.3-2.7,0.4-5.3,0.3-7.7c0-0.1-0.2-1.3-0.4-3.6l0.1-0.2l-0.2-0.7
		c0.1-0.1,0.1-0.2,0.1-0.3v-0.2l-0.1-0.5l0.1-0.2c-0.1-0.9-0.2-1.6-0.2-2.2l0.1-0.4c-0.1,0-0.1-0.1-0.1-0.3v-0.5l0.1-0.4l-0.1-0.1
		c0-1.3,0.1-2.2,0.2-2.8l-0.1-0.1C111.2,121.1,111.3,120.7,111.3,120.6z M107.8,110.6c-0.1,0-0.2,0-0.5-0.1c-1.4,0-2.3,0.8-2.9,2.3
		c-0.3,0-0.6,1.6-0.9,4.9l0.1,0.1c-0.1,0.1-0.1,0.2-0.1,0.3v0.2c0,0.5,0,1,0,1.6l0.1,0.4c0,0.6-0.1,1.2-0.2,1.9l0.1,0.1
		c-0.1,0.3-0.1,0.6-0.1,0.8v0.7l0.1,0.1l-0.3,0.3c0,0.1,0.1,0.2,0.2,0.4c0,0.4,0,0.8-0.1,1c0.1,0.5,0.1,0.9,0.1,1.3l0.1,3.4l0.1,0.6
		c-0.1,0-0.1,0.4-0.1,1.3l0.1,0.1h-0.1c0,0.9,0.1,1.8,0.3,2.7l-0.1,0.1c0.1,0.1,0.1,0.2,0.1,0.4v0.2c0,0.2,0,0.5-0.1,0.8l0.1,0.2
		c0,0.5-0.1,0.9-0.1,1.2v0.1l0.1,0.4c-0.1,0-0.1,0.1-0.1,0.3v0.2l0.1,0.2c-0.1,0-0.1,0.1-0.2,0.3l0.1,0.2c0,0.1,0,0.1-0.1,0.2
		l0.1,0.6c0,0.4-0.1,0.7-0.1,0.7c0.1,0.3,0.1,0.5,0.1,0.5c-0.1,0.2-0.2,0.4-0.2,0.5s0,0.2,0.1,0.3c-0.1,0.1-0.1,0.2-0.1,0.2
		c0,1.3,0.1,2.5,0.3,3.6c0,0,0,0.4-0.1,1.2c0.1,1,0.1,1.7,0.2,1.9c0,0.4-0.1,0.7-0.1,0.7l0.1,0.1c0,1,0.3,1.7,0.9,2.1l-0.1,0.2
		c0.3,0.5,0.8,0.7,1.4,0.7l0.5-0.1c0.4,0.1,0.8,0.1,1.2,0.3c0.1,0,0.2,0,0.3-0.1l1.6,0.2l0.1-0.1l0.5,0.1l0.2-0.1l0.1,0.1h0.2
		c0.1,0,0.3,0,0.4-0.1c0.1,0.1,0.2,0.1,0.3,0.1h0.3c0.9,0,1.6-0.1,2-0.2c2.3-0.5,3.5-0.8,3.5-1h0.6h0.1c1-0.3,2.2-1.2,3.7-2.9
		c1.2-1.2,1.8-1.9,1.8-2.3c0.5-0.9,0.8-1.5,0.8-1.8c1.3-2.9,2-5,1.9-6.2l-0.1-0.1l0.1-0.2v-1l0.1-0.5c-0.1,0-0.1-0.1-0.1-0.2v-0.2
		c0.1-1.1,0.2-1.7,0.2-2v-1.5c0.1-0.2,0.2-0.5,0.3-1c-0.2-0.2-0.4-0.5-0.4-1l0.1-0.2c-0.1-0.1-0.1-0.2-0.1-0.3v-0.3
		c0-0.9-0.1-1.5-0.2-1.8h0.1l-0.1-0.4c0-0.2,0-0.3,0.1-0.4l-0.3-1.3c-0.4-2-0.8-3.3-1.2-3.9c-0.2-0.8-0.4-1.1-0.5-1.1
		c0-0.1,0-0.4,0.1-0.7c0-0.1-0.1-0.1-0.2-0.1c-0.6-2.2-1-3.4-1.1-3.7c0-0.4-0.6-1.5-1.8-3.1c-2.4-2.6-5.6-3.8-9.4-3.7h-1.2l-0.1,0.1
		l-0.1-0.1l-1.9,0.1l-0.5-0.1C108.2,110.5,108.1,110.5,107.8,110.6z"/>
</g>
</svg>
