<?xml version="1.0" encoding="utf-8"?>
<!-- Generator: Adobe Illustrator 25.2.1, SVG Export Plug-In . SVG Version: 6.00 Build 0)  -->
<svg version="1.1" id="Layer_1" xmlns="http://www.w3.org/2000/svg" xmlns:xlink="http://www.w3.org/1999/xlink" x="0px" y="0px"
	 viewBox="0 0 600 580.1" style="enable-background:new 0 0 600 580.1;" xml:space="preserve">
<style type="text/css">
	.st0{fill:#D70000;}
	.st1{fill:#A68778;}
	.st2{clip-path:url(#SVGID_2_);fill:url(#SVGID_3_);}
	.st3{fill:#B4643D;}
	.st4{fill:#954D29;}
	.st5{fill:#CB7043;}
	.st6{clip-path:url(#SVGID_5_);fill:url(#SVGID_6_);}
	.st7{fill:#D4CFC1;}
	.st8{fill:#EEEBE1;}
	.st9{fill:#FFFFFF;}
	.st10{fill:#BBB7AB;}
</style>
<g id="circle">
</g>
<g id="blood">
	<g>
		<path class="st0" d="M587.1,269.2c3.6,3.8,7.9,3.7,12.9-0.4v-4.7c-5-2.3-9.6-1.8-13.9,1.6C586,267.2,586.3,268.3,587.1,269.2"/>
		<path class="st0" d="M474.6,110c-50.2-50.2-110.8-75.3-181.9-75.3c-39.3,0-75.4,7.7-108.4,23.1c-2.3-5.6-4.4-11.3-6.5-17l-0.7-1.4
			c-0.9-1.7-2.2-3-4.1-3.8c-2.5-1.2-5-1.2-7.6-0.2c4,8.6,8.1,17.2,12.4,25.6c-24.1,12.2-46.4,28.5-67,49.1c-2.3,2.3-4.5,4.6-6.6,6.9
			c-1.7-3.7-4.4-7-7.9-9.9c-0.6-0.3-1.3-0.7-2-1c-5.7-2.7-11.2-2.4-16.5,1v9.3l0.9,0.2c3.1,8.1,7.1,13.4,12,16
			C53.9,178,35.5,231.2,35.5,291.9c0,44.8,10,85.5,29.9,122c-6.8,4.4-13.6,8.7-20.6,12.7L31,428.1l0.1,3c14.7,2.7,27.5-0.6,38.6-9.9
			c9,15.3,19.8,29.8,32.5,43.6l0.2,0.2c2.7,3,5.5,5.9,8.4,8.7c50.3,50.3,110.9,75.4,181.9,75.4c45.8,0,87.2-10.4,124.3-31.3
			l11.3,15.4c0.2,4.3,0.4,8.5,0.7,12.6c0.5,8.8,4.4,14.4,11.7,16.9c3-15.7,0.9-30.6-6.2-44.9l-3.7-2l-4,5.1
			c-1.5-1.1-2.8-2.3-4.1-3.5c-0.5-0.6-1.1-1.2-1.6-1.9c19-11.2,36.8-25.1,53.5-41.8c22.8-22.8,40.4-47.6,52.8-74.6
			c7.4,2.9,15.2,4.5,23.5,5c1.4-0.3,2.8-0.6,4.2-0.9c-1.3-2.6-3.1-4.9-5.4-6.8c-2.1-1.7-4.5-3-7.1-3.7c-0.5-0.1-0.9-0.2-1.4-0.2
			l-0.3-0.9c-3-0.9-6.1-1.7-9.1-2.6c12.1-29.8,18.2-62.2,18.2-97.2C550,220.9,524.9,160.3,474.6,110 M249,103.5
			c-0.2-0.2-0.3-0.3-0.5-0.3c-0.7-1.2-1.6-2.1-2.6-2.8c-2.4-1.9-4.5-1.4-6.3,1.5c0.5,5.1,2.8,9.4,6.8,12.9c1.8,1.6,2.1,3.5,0.9,5.6
			c-0.6-0.2-1.2-0.2-1.7,0c-2.7,0-4.8,1.2-6.3,3.6l0.3,3l14,4.2c3.8,6.8,4.2,13.9,1.3,21.1l-15.3,11.4
			c-17.6-26.6-32.8-54.5-45.8-83.4c29.9-14.1,62.8-21.1,98.6-21.1c60.4,0,112.4,20.1,156.1,60.4c-0.5,0.2-0.9,0.5-1.3,0.9
			c-1.3,1-2,2.3-2,3.8s0.7,2.8,2,3.8c1.2,1.1,2.8,1.6,4.5,1.6s3.2-0.5,4.5-1.6c0.2-0.2,0.4-0.4,0.6-0.6
			c45,45.2,67.5,99.7,67.5,163.6c0,32.7-5.9,63-17.7,90.9c-0.4-0.2-0.8-0.3-1.2-0.3l0.5,2.1c-11.3,25.9-27.8,49.8-49.5,71.4
			c-14.8,14.8-30.6,27.2-47.3,37.2c-7.4-7.8-14.2-16-20.4-24.6c-4.1-5.7-8.7-10.9-13.6-15.6C358,436,349,416.9,347.9,394.9
			c5.4-7.4,12-13.3,19.9-17.8c1.3,0.2,2.6,0.5,3.8,0.9c3.6,1.4,6.4,3.7,8.5,6.9l-11.7-4.4l-2.2,2.8c3.2,6.7,8.2,11.5,15,14.4
			c0.5,3.1,0.7,6.4,0.6,9.8c0,5.5-1.8,10.4-5.4,14.6l0.5,5.5l4.8-0.2c0.2-0.2,0.3-0.4,0.3-0.6c1.2-14.6,3.7-28.4,7.5-41.5
			c12.3,8.5,25.6,11.8,40.1,10.1c-2.3-1.2-4.6-2.1-7-2.4c-11.6-0.9-21.8-4.7-30.8-11.3l-0.8-9.4l46.4-16.8c2.6,1.9,4.7,4.2,6.1,6.9
			c3.9,7.2,9.1,13.2,15.5,17.9l-15.4-29.4c3.3-11.6,1.8-22.9-4.7-34l2.8-3.1l3.4,1.6c-0.3,1-0.2,1.9,0.3,2.8
			c2.4,3.8,5.9,6.4,10.5,7.9c-0.3,2.6-0.2,5.2,0.2,7.8c0.7,3.7,2.7,6.2,5.9,7.7c1.2-0.1,2.1-0.5,2.8-1.4c0.5-0.6,1-1.3,1.3-2
			c1.5-2.8,2.2-5.8,2.1-9c-0.8-0.3-1.3-0.8-1.6-1.4c-2.8-6.2-6.4-11.9-10.7-17.1c-4.6,1.4-9.1,1.2-13.6-0.5c-0.5-1-1-2.1-1.4-3.1
			c-1.1-2.7-0.5-4.7,1.9-5.9c14.3-7.8,30.9-8.9,49.9-3.1c12,3.6,18.9,1.1,20.5-7.5c-5.2-1.6-9.9-0.5-14,3.1l-43.8-3.8
			c-3-1.2-4.9-3.1-5.8-5.9c-4.8-15.1-0.6-24.3,12.6-27.4c0.6-1.3,1.3-2.6,2-3.8c1.8-3.1,2.7-6.4,2.7-10
			c10.5-10.1,23.3-15.3,38.6-15.5l6.3-7.7c-0.1-1.1-0.2-2.2-0.3-3.3c-0.5-3.5-1.9-6.6-4.3-9.2l-14-1.5l-0.2,0.9L476.2,221
			c-2.6,0.5-5.1,1.1-7.6,1.7c-10.9,2.9-19.7,1-26.3-5.5l14.6-1l2.4-4c-2.7-4-6.3-4.6-10.8-2c-6.4,3.7-13.4,5.7-20.9,5.9l-9.3-9.2
			c0.2-1.1,0.4-2.2,0.7-3.4c0.5-1.4,1.4-2.4,2.9-3.1c0.5,0.2,1.1,0.5,1.6,0.7c5.1,2.5,10.3,2.9,15.6,1.3c-0.2-1.1-0.4-2.2-0.6-3.3
			c-0.2-1.2-0.7-2.2-1.6-2.9c-2.6-1.9-5.5-2-8.6-0.1l7.7-10.7l-3-9.3l-1.2-0.3c-4.9-6.8-11.7-9.3-20.5-7.3l-0.3,0.9
			c-0.5,0.2-1.1,0.5-1.6,0.7c-3.4,1.6-7.1,2.1-11,1.4c-0.2-0.5-0.2-0.9-0.2-1.4c-0.1-4.7,2.2-7.7,6.8-9.2c3.7-1.2,3.7-3.4,0.2-6.4
			l-17,10.8l-4-3c0.8-2.8,2.3-5,4.5-6.6c3.2-2.3,6.6-2.7,10.3-1.2c0.2-0.3,0.5-0.6,0.8-0.8c1.1-1.2,2.4-2.1,3.8-2.8
			c3.3-1.6,5.9-4,7.7-7.2c1.2-0.3,2.5-0.6,3.7-0.9c9.9-2.2,18.6-6.4,25.9-12.6l-0.2-3.5c-13.1,9.5-27.3,13.1-42.4,11l-5.4,3.7
			c0.2,0.9,0,1.7-0.6,2.3c-4.6,6.1-10.1,11.2-16.5,15.5c-10.2,1.4-20.2,0.9-29.9-1.6l-8.7-15.4c-20,1.2-40,2.7-60.2,4.7l-7.8-4.7
			C258,131.2,251.3,118.3,249,103.5 M200.4,102.9c6.8,11.7,13.6,23,20.4,34.1c11.1,17.8,9.7,32.9-4.3,45.2c-2.6-2.7-5.1-5.6-7.3-8.5
			c-2.6-3.7-4-7.8-4.2-12.4l-3.1,0.3c-0.5,1.9-0.7,3.8-0.5,5.7c0.9,8.2,4.9,14.1,12,17.9l1.5,7.7c-12.8-0.6-23.3-6.3-31.5-17.1
			c-12.3-16.3-26-29.7-41.1-40.1c12.7,19.8,28.6,37.8,47.9,54.1c0.1,0.2,0.1,0.5,0.1,0.8c0.2,0.7,0.5,1.3,1,1.9
			c0.6,0.6,1.1,1.3,1.4,2.1c0.8,2.3,0.5,4.3-0.9,6.1c-26.7-12.5-53-25.9-78.9-40.2c19,16.9,41.7,30.3,68.1,40.2l0.2,1l7.5,8.3
			c-0.7,5-3.3,8.6-7.8,10.8c-9.9,4.7-20.9,5.4-32.9,2.1c-1.9-0.5-3.7-1.1-5.5-1.6c9,3.7,17.7,7.8,26.1,12.2
			c-5.2,8.2-10.4,16.3-15.5,24.4c-4.9,0.2-9.6-0.5-14.2-2.1c-2.7-0.9-4.5-0.3-5.5,2c-4.5,10.6,0.5,19.5,15,26.5
			c0.2,1.3,0.6,2.5,1.4,3.5c1.2,1.7,1.2,2.7-0.2,2.9c-23.4,0.9-43.3,10.1-59.9,27.6c-7.2,2.4-13.4,6.5-18.6,12.4
			c6.8-3.1,13-7.1,18.4-12c19.7-17.6,41.4-23.4,65.1-17.4c3.1,16,0,30.4-9.3,43.2c-4.6,2.6-9.2,5.2-13.9,7.8l-1.5,6.2
			c-13.7,14.9-28.2,28.4-43.7,40.4C69,366.6,60.4,330.7,60.4,291.2c0-34.9,6.7-67,20.2-96.4c11.7,6.8,24.8,12.8,39.3,17.9
			c-13.6-6.2-25.8-14-36.6-23.3c11-22.4,26-43.2,45.1-62.3c18.7-18.7,39-33.6,60.8-44.5C192.8,89.4,196.5,96.2,200.4,102.9
			 M128.9,379.2c0.9,0.5,1.6,0.5,2.1,0c10.5-13,22.5-25,36-36.1c0.8,0.2,1.5,0.5,2.2,0.7c8.3,2.5,15.3,6.9,21,13.3
			c2.4,0.1,4.7,0.6,6.9,1.5c4.5,1.8,8.2,4.6,11,8.5l-2.3,8.5v5.8c0,5-1.6,9.2-4.7,12.7c-0.9-0.2-1.7-0.6-2.6-1
			c-2.9-1.6-5.1-3.8-6.6-6.6l-20.2-4.7l-18.5,10.8c-4.4,8.4-3.9,16.6,1.5,24.7l1,0.4c0.3,0.5,0.7,1,1,1.5
			c8.4,10.7,19.5,15.8,33.4,15.1l0.3-0.9l5.9-2.1l7.7-9.3l0.7-17.2c6.1-5.7,8-13.9,5.5-24.5l0.1-0.1c0.8-0.3,1.3-0.7,1.6-1.3
			c1.6-3.3,4-5.4,7.5-6.3c2.6,1,4.9,2.3,7.1,4c3.7,2.8,5.6,6.3,5.9,10.5l-3.7-0.6c-4.6,2.6-5.2,5.8-1.7,9.7
			c4.3,4.8,10.2,6.8,17.8,5.8l0.9,12.4l7.8,10.8c-0.5,13.6-4.3,25.7-11.5,36.2c-0.1,0.5-0.1,1-0.1,1.5c0.1,0.6,0.2,1.2,0.3,1.9
			c0.5,1.7,1.7,2.9,3.5,3.6c5.9-13.4,10.6-28.8,14-46.4l9.2-3l4.7-11l3.6-1.4l2.6,4.5c9.5-2.1,18.9-4.2,28.3-6.2
			c6.4-1.4,12.3-0.2,17.6,3.7c32.3,23.4,58.3,52.4,78,87c-33.2,18.5-70.3,27.7-111.2,27.7c-64.2,0-118.9-22.7-164.2-68.1
			c-16.4-16.4-29.8-34-40.2-52.8c16.1-16,33.1-30.1,51-42.4c3.6-5.3,8.2-9.4,14-12.4C143.8,358.5,135.7,369,128.9,379.2
			 M292.3,417.3c0,0.6,0,1.3,0,2c0,6.6,3.3,10.1,10,10.4C304.3,422.2,301,418.1,292.3,417.3 M117.6,443.6c6.2,2.3,12.4,2.3,18.5,0
			l0.3-1c5-3.7,5.9-8.2,2.7-13.5c-4.7-7.6-11.4-8.9-20-4l-4.7,6.2L117.6,443.6 M433.6,420.1c-2.9-6.1-7.2-7.6-12.9-4.3
			c0,0.6,0.1,1.2,0.2,1.9c1.7,7.7,6.3,10.2,13.6,7.5C434.6,423.3,434.3,421.7,433.6,420.1 M454.6,389.5c0.3,0.7,0.6,1.4,0.8,2.1
			c2,4.9,5.5,7.5,10.5,7.7l3.5-3.6c-0.2-0.5-0.3-1.1-0.5-1.7c-1.5-5.7-5-8.1-10.5-7L454.6,389.5 M479.5,366.4c-3,0-5.6,0.9-7.8,2.8
			c-2.2,1.8-3.3,4-3.3,6.6s1.1,4.8,3.3,6.6s4.8,2.8,7.8,2.8c3.1,0,5.7-0.9,7.8-2.8c2.2-1.9,3.3-4.1,3.3-6.6c0-2.6-1.1-4.9-3.3-6.6
			C485.2,367.3,482.6,366.4,479.5,366.4 M379.8,93.7c-2.1-5.6-5.8-6.9-11-4c0.2,0.7,0.3,1.4,0.5,2c1.3,5.4,4.8,7.9,10.4,7.3
			C380.5,97.3,380.5,95.5,379.8,93.7 M418.8,110.1c-1.3-1.2-2.9-1.7-4.7-1.7c-1.9,0-3.4,0.6-4.7,1.7c-1.3,1.2-2,2.6-2,4.2
			s0.7,3.1,2,4.3c1.2,1.1,2.8,1.6,4.7,1.6c1.8,0,3.3-0.5,4.7-1.6c1.2-1.2,1.9-2.7,1.9-4.3S420,111.3,418.8,110.1 M317.1,109.6
			c-5.1-3.4-10.3-2.9-15.5,1.6l-3.1,7.7c-4.8-2.6-10-3.7-15.5-3.1l-17,12.4v1.5c8.4-5.5,17.4-8.1,26.9-7.7c1.9,3.2,1.7,6.3-0.7,9.2
			c6.2-1.6,10.8-5.2,13.9-10.8c0.5,0,1.1,0,1.6-0.1C313.8,119,316.9,115.4,317.1,109.6"/>
		<path d="M131,379.2c-0.5,0.5-1.2,0.5-2.1,0c6.8-10.2,14.9-20.7,24.2-31.5c-5.8,3-10.4,7.1-14,12.4c-17.9,12.3-35,26.4-51,42.4
			c10.4,18.8,23.8,36.4,40.2,52.8c45.3,45.4,100,68.1,164.2,68.1c40.9,0,77.9-9.2,111.2-27.7C384,461,358,432,325.8,408.7
			c-5.3-3.9-11.1-5.1-17.6-3.7c-9.4,2-18.8,4.1-28.3,6.2l-2.6-4.5l-3.6,1.4l-4.7,11l-9.2,3c-3.4,17.6-8.1,33-14,46.4
			c-1.8-0.7-3-1.9-3.5-3.6c-0.2-0.6-0.3-1.2-0.3-1.9c0-0.5,0-1,0.1-1.5c7.2-10.6,11.1-22.6,11.5-36.2l-7.8-10.8l-0.9-12.4
			c-7.6,0.9-13.6-1-17.8-5.8c-3.4-3.9-2.8-7.1,1.7-9.7l3.7,0.6c-0.3-4.2-2.3-7.7-5.9-10.5c-2.2-1.6-4.5-3-7.1-4
			c-3.4,0.9-5.9,3-7.5,6.3c-0.3,0.5-0.9,1-1.6,1.3l-0.1,0.1c2.5,10.6,0.7,18.7-5.5,24.5l-0.7,17.2l-7.7,9.3l-5.9,2.1l-0.3,0.9
			c-13.9,0.6-25.1-4.4-33.4-15.1c-0.4-0.5-0.7-1-1-1.5l-1-0.4c-5.4-8.1-5.9-16.3-1.5-24.7l18.5-10.8l20.2,4.7
			c1.6,2.9,3.8,5.1,6.6,6.6c0.9,0.5,1.7,0.8,2.6,1c3.1-3.5,4.7-7.7,4.7-12.7v-5.8l2.3-8.5c-2.8-3.9-6.4-6.7-11-8.5
			c-2.2-0.9-4.5-1.4-6.9-1.5c-5.7-6.4-12.7-10.8-21-13.3c-0.7-0.2-1.4-0.5-2.2-0.7C153.5,354.2,141.5,366.2,131,379.2 M136.1,443.6
			c-6.1,2.3-12.3,2.3-18.5,0l-3.1-12.4l4.7-6.2c8.6-5,15.3-3.7,20,4c3.3,5.3,2.4,9.8-2.7,13.5L136.1,443.6 M292.3,419.3
			c0-0.7,0-1.4,0-2c8.7,0.8,12,4.9,10,12.4C295.6,429.3,292.3,425.9,292.3,419.3 M220.8,137.1c-6.8-11.1-13.6-22.5-20.4-34.1
			c-3.9-6.8-7.7-13.5-11.3-20.3c-21.8,11-42.1,25.8-60.8,44.5c-19.1,19.1-34.1,39.9-45.1,62.3c10.8,9.3,23,17.1,36.6,23.3
			c-14.4-5.1-27.5-11.1-39.3-17.9c-13.4,29.4-20.2,61.5-20.2,96.4c0,39.5,8.6,75.4,25.9,107.8c15.5-12,30-25.5,43.7-40.4l1.5-6.2
			c4.7-2.6,9.3-5.2,13.9-7.8c9.3-12.8,12.4-27.2,9.3-43.2c-23.8-6.1-45.5-0.3-65.1,17.4c-5.4,4.9-11.6,8.9-18.4,12
			c5.2-5.8,11.4-9.9,18.6-12.4c16.5-17.5,36.5-26.7,59.9-27.6c1.4-0.2,1.5-1.2,0.2-2.9c-0.8-1-1.2-2.2-1.4-3.5
			c-14.5-7-19.5-15.8-15-26.5c0.9-2.3,2.8-2.9,5.5-2c4.6,1.6,9.3,2.3,14.2,2.1c5.1-8.1,10.3-16.2,15.5-24.4
			c-8.4-4.4-17.1-8.5-26.1-12.2c1.8,0.5,3.6,1.1,5.5,1.6c12,3.3,22.9,2.6,32.9-2.1c4.5-2.3,7.1-5.9,7.8-10.8l-7.5-8.3l-0.2-1
			c-26.3-9.9-49-23.3-68.1-40.2c25.9,14.3,52.2,27.7,78.9,40.2c1.4-1.8,1.7-3.8,0.9-6.1c-0.3-0.8-0.8-1.5-1.4-2.1
			c-0.5-0.5-0.9-1.2-1-1.9c0-0.3,0-0.6-0.1-0.8c-19.3-16.2-35.2-34.3-47.9-54.1c15.1,10.4,28.9,23.8,41.1,40.1
			c8.2,10.8,18.6,16.5,31.5,17.1l-1.5-7.7c-7.1-3.8-11.1-9.8-12-17.9c-0.2-1.9-0.1-3.8,0.5-5.7l3.1-0.3c0.2,4.6,1.6,8.7,4.2,12.4
			c2.3,3,4.7,5.8,7.3,8.5C230.5,169.9,231.9,154.8,220.8,137.1 M248.6,103.1c0.2,0.1,0.3,0.2,0.5,0.3c2.3,14.8,8.9,27.7,20,38.6
			l7.8,4.7c20.2-1.9,40.3-3.5,60.2-4.7l8.7,15.4c9.8,2.5,19.8,3,29.9,1.6c6.4-4.3,12-9.4,16.5-15.5c0.5-0.6,0.7-1.4,0.6-2.3l5.4-3.7
			c15.1,2.2,29.3-1.5,42.4-11l0.2,3.5c-7.3,6.2-15.9,10.4-25.9,12.6c-1.2,0.3-2.5,0.6-3.7,0.9c-1.8,3.3-4.4,5.7-7.7,7.2
			c-1.5,0.7-2.8,1.6-3.8,2.8c-0.3,0.2-0.6,0.5-0.8,0.8c-3.7-1.6-7.1-1.2-10.3,1.2c-2.3,1.6-3.8,3.8-4.5,6.6l4,3l17-10.8
			c3.5,3,3.4,5.2-0.2,6.4c-4.6,1.5-6.8,4.5-6.8,9.2c0,0.5,0.1,0.9,0.2,1.4c3.9,0.7,7.5,0.2,11-1.4c0.5-0.2,1.1-0.5,1.6-0.7l0.3-0.9
			c8.8-1.9,15.6,0.5,20.5,7.3l1.2,0.3l3,9.3l-7.7,10.7c3.1-1.9,6-1.8,8.6,0.1c0.9,0.7,1.5,1.7,1.6,2.9c0.2,1.1,0.4,2.2,0.6,3.3
			c-5.3,1.6-10.5,1.2-15.6-1.3c-0.5-0.2-1.1-0.5-1.6-0.7c-1.5,0.7-2.4,1.7-2.9,3.1c-0.3,1.2-0.5,2.3-0.7,3.4l9.3,9.2
			c7.5-0.2,14.4-2.2,20.9-5.9c4.5-2.6,8.1-2,10.8,2l-2.4,4l-14.6,1c6.7,6.5,15.5,8.4,26.3,5.5c2.5-0.6,5-1.2,7.6-1.7l16.8-14.6
			l0.2-0.9l14,1.5c2.4,2.6,3.8,5.7,4.3,9.2c0.2,1.1,0.3,2.2,0.3,3.3l-6.3,7.7c-15.2,0.2-28.1,5.4-38.6,15.5c0,3.6-0.9,6.9-2.7,10
			c-0.7,1.2-1.4,2.5-2,3.8c-13.2,3.1-17.4,12.2-12.6,27.4c0.9,2.8,2.9,4.8,5.8,5.9l43.8,3.8c4.1-3.7,8.8-4.7,14-3.1
			c-1.6,8.5-8.5,11-20.5,7.5c-19-5.7-35.6-4.7-49.9,3.1c-2.3,1.2-3,3.2-1.9,5.9c0.4,1.1,0.9,2.1,1.4,3.1c4.5,1.7,9,1.9,13.6,0.5
			c4.4,5.2,7.9,10.9,10.7,17.1c0.3,0.6,0.9,1.1,1.6,1.4c0.1,3.2-0.6,6.2-2.1,9c-0.3,0.7-0.7,1.4-1.3,2c-0.7,0.9-1.6,1.3-2.8,1.4
			c-3.3-1.5-5.2-4-5.9-7.7c-0.5-2.6-0.5-5.2-0.2-7.8c-4.6-1.5-8.1-4.1-10.5-7.9c-0.5-0.9-0.7-1.8-0.3-2.8l-3.4-1.6l-2.8,3.1
			c6.4,11.1,8,22.4,4.7,34l15.4,29.4c-6.4-4.7-11.6-10.7-15.5-17.9c-1.4-2.7-3.4-5-6.1-6.9L390.9,372l0.8,9.4
			c8.9,6.6,19.2,10.4,30.8,11.3c2.4,0.4,4.7,1.2,7,2.4c-14.4,1.7-27.8-1.7-40.1-10.1c-3.8,13.1-6.3,26.9-7.5,41.5
			c-0.1,0.2-0.2,0.4-0.3,0.6l-4.8,0.2l-0.5-5.5c3.6-4.2,5.4-9,5.4-14.6c0.1-3.4-0.1-6.7-0.6-9.8c-6.8-3-11.8-7.8-15-14.4l2.2-2.8
			l11.7,4.4c-2.1-3.2-4.9-5.5-8.5-6.9c-1.2-0.5-2.5-0.8-3.8-0.9c-7.9,4.5-14.6,10.4-19.9,17.8c1,22.1,10.1,41.2,27.2,57.3
			c5,4.7,9.5,9.9,13.6,15.6c6.2,8.6,13,16.8,20.4,24.6c16.7-10,32.5-22.4,47.3-37.2c21.7-21.7,38.2-45.5,49.5-71.4l-0.5-2.1
			c0.4,0.1,0.8,0.2,1.2,0.3c11.8-27.9,17.7-58.2,17.7-90.9c0-63.9-22.5-118.4-67.5-163.6c-0.2,0.2-0.3,0.4-0.6,0.6
			c-1.3,1.1-2.8,1.6-4.5,1.6c-1.8,0-3.3-0.5-4.5-1.6c-1.3-1.1-2-2.4-2-3.8c0-1.6,0.7-2.8,2-3.8c0.4-0.4,0.8-0.7,1.3-0.9
			c-43.7-40.2-95.8-60.4-156.1-60.4c-35.8,0-68.7,7-98.6,21.1c13,29,28.2,56.8,45.8,83.4l15.3-11.4c3-7.2,2.5-14.3-1.3-21.1l-14-4.2
			l-0.3-3c1.5-2.4,3.6-3.6,6.3-3.6c0.5-0.2,1.1-0.2,1.7,0c1.2-2.1,0.9-4-0.9-5.6c-4-3.6-6.2-7.9-6.8-12.9c1.8-2.9,3.9-3.4,6.3-1.5
			C247,101,247.9,102,248.6,103.1 M301.6,111.2c5.2-4.5,10.4-5.1,15.5-1.6c-0.2,5.8-3.3,9.4-9.3,10.7c-0.5,0.1-1.1,0.1-1.6,0.1
			c-3,5.7-7.7,9.3-13.9,10.8c2.4-3,2.6-6,0.7-9.2c-9.6-0.4-18.5,2.2-26.9,7.7v-1.5l16.9-12.5c5.5-0.5,10.7,0.5,15.5,3.1L301.6,111.2
			 M414.1,108.4c1.8,0,3.3,0.6,4.7,1.7c1.2,1.2,1.9,2.6,1.9,4.2s-0.6,3.1-1.9,4.3c-1.3,1.1-2.9,1.6-4.7,1.6c-1.9,0-3.4-0.5-4.7-1.6
			c-1.3-1.2-2-2.7-2-4.3s0.7-3,2-4.2C410.7,109,412.3,108.4,414.1,108.4 M368.8,89.7c5.2-3,8.9-1.6,11,4c0.8,1.8,0.7,3.6-0.1,5.4
			c-5.6,0.5-9-1.9-10.4-7.3C369.1,91.1,369,90.4,368.8,89.7 M471.7,369.2c2.2-1.9,4.8-2.8,7.8-2.8c3.1,0,5.7,0.9,7.8,2.8
			c2.2,1.8,3.3,4,3.3,6.6s-1.1,4.8-3.3,6.6c-2.1,1.9-4.7,2.8-7.8,2.8c-3,0-5.6-0.9-7.8-2.8s-3.3-4.1-3.3-6.6
			C468.4,373.2,469.5,371,471.7,369.2 M455.4,391.6c-0.2-0.7-0.5-1.4-0.8-2.1l3.8-2.6c5.5-1.1,9,1.2,10.5,7c0.2,0.6,0.3,1.2,0.5,1.7
			l-3.5,3.6C460.9,399,457.4,396.4,455.4,391.6 M420.7,415.8c5.7-3.3,10.1-1.8,12.9,4.3c0.7,1.6,1,3.2,0.9,5
			c-7.4,2.7-11.9,0.2-13.6-7.5C420.7,417,420.7,416.4,420.7,415.8"/>
		<path class="st0" d="M98.9,84.2c0-1.4-0.6-2.6-1.9-3.6c-1.2-1-2.6-1.5-4.3-1.5c-1.7,0-3.2,0.5-4.4,1.5c-1.2,1-1.7,2.2-1.7,3.6
			s0.6,2.6,1.7,3.6c1.2,1,2.7,1.5,4.4,1.5c1.7,0,3.1-0.5,4.3-1.5C98.3,86.8,98.9,85.5,98.9,84.2"/>
		<path class="st0" d="M13.9,50.8C14,51.2,14,51.6,14,52c0.6,5.3,3.5,7.9,8.7,7.8l3.6-1.3C26.9,49,22.7,46.4,13.9,50.8"/>
		<path class="st0" d="M15.5,103.5c0.2-1.1,0.1-2.2-0.2-3.3C13,92.7,7.9,90.2,0,92.5v4.7c3.8,0.5,6.4,2.6,7.7,6.3
			c0.3,0.2,0.7,0.3,1,0.5C11.1,105.1,13.3,105,15.5,103.5"/>
		<path class="st0" d="M45.1,119.3c-0.2-8-3.8-10.7-11.1-8.2c0.9,6.1,4.5,9.2,10.8,9.2C45,120.1,45.1,119.7,45.1,119.3"/>
		<path class="st0" d="M57,133.1c3,3.7,6.6,6.1,11.1,7.5c-0.5-1.6-1.1-3.1-1.7-4.7c-2.4-6.4-7-10.5-13.8-12.4
			C53.3,127.1,54.8,130.3,57,133.1"/>
		<path class="st0" d="M221.2,579.7c0.4-0.2,0.8-0.4,1.2-0.6c6.4-3.3,7.7-8,4.1-14.1c-5-3.6-9.9-3.3-14.6,0.7
			C211.8,572.5,215,577.2,221.2,579.7"/>
		<path class="st0" d="M136.3,527c1.1-0.9,1.6-2,1.6-3.3c0-1.2-0.5-2.3-1.6-3.3c-1.1-0.9-2.4-1.3-4-1.3c-1.5,0-2.8,0.4-3.8,1.3
			c-1.1,0.9-1.6,2-1.6,3.3c0,1.2,0.5,2.3,1.6,3.3c1.1,0.9,2.4,1.4,3.8,1.4C133.9,528.4,135.2,527.9,136.3,527"/>
		<path d="M204.2,197.8c-0.5-0.4-1.1-0.5-1.7-0.3c-5.6,1.1-10.3,4.1-14.1,9.1c-2.6,3.3-4.6,7.1-5.8,11.4c-0.3,0.9-0.2,1.7,0.5,2.3
			c-4.9,16.8-11.8,32.7-20.7,47.7c-1.4,2.3-2.4,4.8-3,7.3c-2,8.8-0.7,16.8,3.8,24c0.9,1.2,1.9,2.2,3.3,2.8c3,1.6,6.1,2.1,9.3,1.6
			c2.3,7.8,4.2,15.7,5.8,23.7c0.2,1.4,0.7,2.7,1.5,4c7.7,12.2,18.2,18.5,31.6,19c2.5,0.1,4.9,0,7.3-0.4l4.5,1.6
			c1.9,2.9,4.3,5.3,7.2,7.3c3,1.9,6.2,2.8,9.6,2.7c10.7-0.1,21.5-0.3,32.3-0.7c1.1-0.1,2.2,0.2,3.3,0.7c6.9,3.5,13.8,7.1,20.5,10.8
			c2.7,1.5,5.6,2.5,8.6,3.1c1.9,0.4,3.8,0.6,5.7,0.6c5.7-0.2,11.3-0.5,17-0.9c4.8,12.3,13,19.7,24.6,22.4c6.8,1.6,12.5,0,17.4-4.7
			c0.9-0.9,1.8-2,2.6-3.1c3.2-4.8,7.6-7.4,13.2-7.8c6-0.3,12-0.7,17.9-1.3c12.6-1.2,25.1-3.1,37.4-5.8c1.7-0.3,2.8-1.3,3.4-3
			c0.5-1.8,0.8-3.6,0.8-5.5c-0.2-3-0.1-5.9,0.2-8.7c0.9-9.2,1.1-18.4,0.6-27.7c0.3-14.1-3.6-26.3-11.7-36.7c-1.9-2.4-4-4.6-6.2-6.6
			c-6.2-5.4-13-9.2-20.3-11.4c-0.5-0.1-1,0-1.5,0.2c-0.2-5.6-0.6-11.7-1-18.3c-1.1-16.1-4.1-31.6-9.1-46.6
			c-2.6-7.8-5.9-15.2-10-22.1c-0.5-1-1.2-1.9-2-2.8c-4-5.4-9.2-7.3-15.6-5.9c-6.1,1.5-11.9,4-17.4,7.6c-3,2.1-5.9,1.6-8.7-1.4
			c-0.9-0.8-1.9-1.4-2.9-1.9c-1.5-0.6-2.6-1.6-3.3-2.9L337,181c-4.5-8-11.1-11.8-19.8-11.5c-5.9,0.2-11.3,1.9-16.3,5
			c-1.2,0.9-2.4,1.9-3.5,3.1c-6.4,8-14.4,11.9-23.8,11.7c-1.1,0-2-0.5-2.7-1.6c-0.1-0.2-0.2-0.3-0.2-0.3c-1.3-0.8-2.3-2.3-2.8-4.4
			c-0.2-0.9-0.7-1.6-1.5-2c-4.1-1.5-8.3-1.6-12.5-0.4c-5.6,1.5-11,3.7-16.1,6.8c-9.4,5.4-19.3,9-29.8,10.8
			C207.1,198.7,205.9,198.7,204.2,197.8 M235,194.5c0.2-0.2,0.5-0.3,0.7-0.5c0.9-0.7,1.7-1.4,2.7-2c6.8-4.1,14.1-6.2,21.7-6.2
			c1.1,0,2,0.5,2.8,1.4c2.3,3.1,4,6.7,5,10.7c0.5,1.6,0.9,3.1,1.4,4.8l2.4,8.3c0.4,1.2,0.8,2.4,1.2,3.6l-1.9-20.2
			c6.4,1.1,12.2,0.2,17.4-2.8c2.9-1.7,5.5-4,7.9-7c4.6-5.4,10.3-8.5,17-9.1c4.9-0.5,9.7,0,14.3,1.7c1.6,0.5,2.9,1.4,4,2.7
			c0.3,0.4,0.6,0.9,0.8,1.4l1.4,4.4c0.2,3.7,0.1,7.4-0.1,11.1c-0.3,5.9-1.1,11.7-2.4,17.5l3.8-13.4l3.5-12.4c4.7,4,9.7,5.6,15,4.5
			c1-0.2,1.9-0.6,2.7-1.3c3.7-3,7.5-4.9,11.5-5.9c3.4-0.9,6.9-1,10.5-0.6c5.1,0.7,7.7,4,7.7,10c0,9.6,0.3,19.3,1,28.9l3-15.4
			l-0.1-4.5c8.6,19.8,12.9,40.6,12.8,62.3c0.1,4.7-0.4,9.4-1.4,14.1c-0.8,4-1.6,7.9-2.4,11.8c-0.5,2.6-0.9,5.1-1.4,7.7
			c-0.4,1.8-1,3.5-1.9,5.1c-0.2,0.4-0.3,0.8-0.6,1.2c-0.6,0.9-1.3,1.7-2,2.7c-10-0.2-19.8,1.9-29.2,6.4c-2.8,1.3-5.6,2.6-8.5,3.7
			c-0.4,0.2-0.8,0.2-1.2,0.2H354c-1.2-1.7-1.7-3.8-1.6-6.4c0.2-3,0.1-6-0.1-9c-0.6-12.1-1.7-24.2-3.1-36.1
			c-0.5-0.2-1.1-3.9-1.6-11.1c-0.1-1.2-0.2-2.3-0.2-3.4c-0.2-0.8-0.3-1.5-0.3-2.2c-0.8-5.5-3.3-9.2-7.7-11c-0.4-0.2-0.7-0.2-1-0.1
			c-0.3,0.2-0.6,0.3-0.8,0.5c-0.9,3.5,0,6.9,2.4,10.3c1,1.5,1.8,3,2.4,4.7c0.8,2.2,1.4,4.3,1.7,6.5c2.1,14.5,2.7,29,1.9,43.5
			c-0.3,5,0.2,9.7,1.6,14.3c0.5,1.2,0.9,2.4,1.4,3.6l0.1,2l-2.6,8.6l-3.8,14c-6.2,2.5-12.8,4-19.7,4.4c-3.2-0.1-6.4,0-9.7,0.4
			c-7.5,1.1-14.7,0.1-21.4-3c-2.5-1.2-4.3-3.1-5.4-5.8c-3.3-7.5-5.3-15.5-5.9-23.9c-1.2-15-2.1-30-2.8-45c0-0.3,0-0.7-0.1-1
			c-0.3-8-2.1-15.4-5.5-22.1c-0.9-1.9-1.9-3.9-3.1-5.8c-0.3-0.4-0.7-0.6-1.3-0.6c-0.3,1.1-0.5,2.1-0.6,3.1c-0.2,2.5,0.2,5.1,1.3,7.9
			c3.7,9.9,5.6,20,5.9,30.4c0.2,4.2,0.3,8.4,0.6,12.6c0.5,10.9,1.1,20,1.6,27.4c0.4,6.4,1.8,12.5,4.2,18.4l-2.7,0.5l-3.5,8
			c-10.1,1.2-20.2,2.2-30.2,3c-0.7,0-1.4-0.1-2-0.2c-7.8-2.1-12.2-7.2-13.3-15.4c-0.2-0.9-0.3-1.7-0.3-2.7c0-1.1,0-2.1-0.1-3.1
			c-0.2-4.4-0.3-8.7-0.5-13c-0.3-6.9-1.2-13.8-2.7-20.6c-0.8-3.7-1.3-7.3-1.5-11c-0.2-2.8-0.2-5.6,0-8.4c0.2-2.6,0.5-5.2,0.9-7.8
			c0.2-1.1,0.2-2.2-0.2-3.3h-0.1c-1.4,0.5-2.5,1.2-3.4,2.2c-1.2,1.4-2,3.3-2.2,5.8c-0.1,0.8-0.1,1.7-0.1,2.4v0.1
			c0.1,0.3,0.1,0.7,0,1c0,1,0.1,2.1,0.2,3.1c0.2,0.9,0.3,1.9,0.5,2.9c2.2,11.7,3.5,23.6,4.1,35.5c0.2,4,0.3,8,0.2,12
			c0,3.1,0.3,6.1,1,9.1l-3.7-0.8l-0.9,0.9c-6.4-0.5-12.4-2.1-17.9-4.8c-3.2-1.5-6.3-3.3-9.3-5.5c-1-0.8-1.9-1.6-2.8-2.6
			c-0.9-1.2-1.7-2.6-2.4-4.1c-2.2-4.6-3.7-9.4-4.5-14.6c-0.3-1.6-0.5-3.3-0.6-4.9c-0.3-3.4-0.9-6.8-1.7-10c-1.3-5.4-3.9-9.4-7.8-12
			l0.6,9c-4.2-1.6-7.5-4.3-9.8-8c-0.4-0.7-0.6-1.4-0.6-2.2c-0.1-2.6,0-5.2,0.3-7.8c0.8-4.6,2.3-9,4.4-13.2
			c5.1-9.3,10.1-18.6,15.1-27.7c2.6-4.9,4.1-10.2,4.4-16c0-0.8-0.1-1.5-0.3-2.2c0.3-1.5,1-3.2,2.2-5.2c3.5-6.1,8.6-9.8,15.4-11.2
			c4.2,3.5,7.8,7.9,10.7,13.3c1.4,2.5,2.6,4.9,3.5,7.2c0.1,0.2,0.3,0.4,0.6,0.7v-0.1c-0.2-7.8-2.1-15.1-5.8-21.8
			c-0.1-0.1-0.2-0.2-0.3-0.2v0.2C221.5,202.3,228.7,199.8,235,194.5 M436.7,301.8c5.3,11.7,8.2,24,8.7,36.9c0.1,2.9,0,5.7-0.3,8.4
			c-0.5,3.7-1,7.3-1.6,10.8c-0.5,2.6-1,5.1-1.6,7.7c-0.5,2-0.9,4-1.3,6.1c-7.5,0.6-15,1.2-22.5,1.9c-10.7,0.9-21.3,2.4-31.8,4.5
			c0-0.4,0-1.2-0.1-2.6c-0.5-4.7-2.1-9-4.8-12.7c-1.9-2.7-4.2-4.7-6.6-5.9c-0.5-0.2-1.1-0.5-1.6-0.7c-3.2-1.1-5.8-0.7-7.7,1
			c-2.2,2-3,5.5-2.6,10.4l0.5,3.1c0.4,2.7,0.9,5.2,1.4,7.5c1.5,6.3,3,9.8,4.4,10.5c-0.2,0.2-0.3,0.3-0.5,0.5
			c-0.5,0.9-1.1,1.7-1.7,2.4c-8.1,1.9-15.4-0.1-22-6.1c-1.2-1.2-2.5-2.5-3.8-3.8c-1.5-1.5-2.9-3.1-4.2-4.8c-4.2-5.3-4.9-10.8-2-16.5
			c0.7-1.2,0.9-2.6,0.7-4.1c1.2-1.1,3-1.9,5.2-2.6c1.7-0.4,3.3-1.1,4.8-2.1c0.1-0.1,0.2-0.2,0.2-0.3h0.1c0.6-0.5,1-1.1,1.3-1.9
			c0.1-0.3,0.2-0.6,0.2-0.9c-0.1-0.2-0.1-0.3,0-0.5c2.6-4.4,4.9-9,6.6-13.9c0.9-2.8,1.4-5.7,1.3-8.7l2.4-3c3-0.7,6.4-1,10-0.9
			c3,0,5.8-0.3,8.6-0.9c2.9-0.5,5.7-1.4,8.5-2.7c1.9-0.7,3.7-1.6,5.5-2.6c4.6,2.2,9.2,3.9,14,5.2c3.4,1,6.9,1.8,10.4,2.3
			c1.3,0.2,2.5,0.1,3.6-0.4c0.3-0.1,0.6-0.2,0.9-0.3l0.9-1.9l-25.5-8.3c2.7-2.4,5-5.1,6.9-8c2.3-3.7,3.9-7.8,5-12.5
			c0.8-3,1.3-6.1,1.6-9.3l3.1,0.6c0.6,0.5,1.3,0.9,2,1.4c3,1.9,6.3,3.7,9.8,5.1C429,291.8,433.5,296,436.7,301.8 M281.6,355.2
			c-1.3-0.5-1.3-1.8,0.1-3.8c0.4-0.6,0.9-0.9,1.4-0.9c5.9,5.8,12.9,8.7,21.1,8.5c8.9,0,17.8-0.7,26.6-2.2c-2.4,3.9-3,8.2-1.9,12.9
			c-2.1,0.7-4.7,1-7.8,0.9c-7.5,0-14.8-1.2-21.9-3.6c-1.1-0.2-2.1-0.7-2.9-1.5C291.6,361.9,286.7,358.5,281.6,355.2 M367.4,368.1
			c-0.2-1.6-0.2-2.8-0.2-3.5c-0.1-1.2,0-2.3,0.2-3.4c5.5,1,9.5,4.1,11.9,9.3c0.3,0.5,1.1,2.5,2.4,6.1c0.3,0.9,0.6,1.6,0.9,2.3
			c-1.2,0.2-2.4,0.5-3.6,1c-2.8,1.3-5.3,3.1-7.5,5.5c-0.3-2.2-1-4.9-2-8.3C368.3,372.8,367.6,369.8,367.4,368.1"/>
		<path class="st1" d="M367.2,364.6c0,0.7,0.1,1.9,0.2,3.5c0.2,1.6,0.9,4.7,2.2,9.1c1,3.3,1.7,6.1,2,8.3c2.2-2.3,4.7-4.2,7.5-5.5
			c1.2-0.5,2.4-0.9,3.6-1c-0.3-0.7-0.6-1.5-0.9-2.3c-1.3-3.6-2.1-5.6-2.4-6.1c-2.4-5.2-6.4-8.3-11.9-9.3
			C367.2,362.3,367.1,363.5,367.2,364.6"/>
		<g>
			<g>
				<g>
					<defs>
						<path id="SVGID_1_" d="M281.8,351.3c-1.4,2-1.4,3.3-0.1,3.8c5,3.3,9.9,6.7,14.7,10.3c0.9,0.8,1.8,1.3,2.9,1.5
							c7.1,2.4,14.4,3.6,21.9,3.6c3.1,0.1,5.7-0.2,7.8-0.9c-1.2-4.7-0.5-9,1.9-12.9c-8.8,1.5-17.6,2.2-26.6,2.2
							c-8.2,0.2-15.2-2.7-21.1-8.5C282.6,350.4,282.2,350.7,281.8,351.3 M411.9,289.4c-3,14.1,1.4,24.4,13.1,31.1l-4,3.1l-2.6-1
							c-1.1,0.5-2.3,0.6-3.6,0.4c-3.5-0.5-7-1.3-10.4-2.3l-19.5-2.7c-2.8,1.2-5.6,2.1-8.5,2.7c-0.7,0.4-1.4,0.8-2,1.2
							c-11,6.9-20.1,16.2-27.3,27.7c-0.2,0.8-0.7,1.4-1.3,1.9h-0.1c-0.2,0.6-0.4,1.3-0.6,1.9c-3.8,9-5.2,18.5-4.2,28.5
							c1.3,1.3,2.6,2.6,3.8,3.8c6.6,6,13.9,8,22,6.1c0.6-0.8,1.2-1.6,1.7-2.4c0.2-0.2,0.3-0.3,0.5-0.5c-1.5-0.7-3-4.2-4.4-10.5
							c-0.5-2.3-1-4.7-1.4-7.5l-0.5-3.1c-0.5-4.9,0.4-8.4,2.6-10.4c1.9-1.8,4.5-2.1,7.7-1c0.5,0.2,1.1,0.5,1.6,0.7
							c19.3-9.4,38.2-7,56.7,7.1c1.7,1.3,3.4,2.6,5.1,4c1.7-1.6,3.2-3.3,4.4-5.1c0.9-1.6,1.7-3.3,2.4-4.9c0.6-3.6,1.2-7.2,1.6-10.8
							c0.3-2.7,0.4-5.5,0.3-8.4c-0.5-13-3.5-25.3-8.7-36.9c-3.3-5.8-7.8-10-13.5-12.5c-3.5-1.5-6.8-3.2-9.8-5.1
							C412.8,285.9,412.3,287.6,411.9,289.4 M238.4,192.1c-0.9,0.6-1.8,1.3-2.7,2c-0.2,0.2-0.3,0.5-0.3,0.7
							c-0.9,1.9-1.2,3.4-1.2,4.5c0.2,2-0.3,4.8-1.4,8.4c-0.3,0.6-0.9,2.1-1.6,4.4c-0.2,0.6-0.5,1.2-0.8,1.9
							c-0.4,1.3-0.9,2.8-1.5,4.3c-1.9,4.7-3.1,8.6-3.8,11.8c-0.5,1.9-0.8,3.7-1,5.5c-0.6-2.8-2-6.6-4.2-11.3v0.1
							c-0.3-0.3-0.5-0.5-0.6-0.7c-0.9-2.3-2.1-4.7-3.5-7.2c-3-5.4-6.5-9.8-10.7-13.3c-6.8,1.4-11.9,5.1-15.4,11.2
							c-1.2,2-1.9,3.8-2.2,5.2c0.2,0.7,0.3,1.4,0.3,2.2c-0.3,5.7-1.8,11.1-4.4,16c-5,9.2-10.1,18.4-15.1,27.7
							c-2.2,4.2-3.7,8.6-4.4,13.2c1.9,3.3,4.4,5.8,7.5,7.6c0.2,0.2,0.4,0.4,0.7,0.6c-0.4-6,0.9-11.1,4-15.5c1.2,4.4,3.7,7.6,7.5,9.8
							c1.9,1.1,3.7,2,5.6,2.8l-5.6,30.8c0.9,5.1,2.4,10,4.5,14.6c0.7,1.5,1.5,2.8,2.4,4.1l26.6,1.9l-14.4,6.2
							c5.6,2.6,11.6,4.2,17.9,4.8l0.9-0.9l3.7,0.8c-0.7-3-1-6-1-9.1c0.1-4,0-8-0.2-12c-0.5-12-1.9-23.8-4.1-35.5
							c-0.2-1-0.3-2-0.5-2.9c-0.2-0.2-0.2-0.3-0.2-0.6c0-0.4-0.1-0.9-0.4-1.6c-0.2-0.9-0.4-1.5-0.5-1.9c0-0.3-0.1-0.7-0.2-1.2
							c-0.1-0.4,0.1,0.1,0.6,1.5c0.2,0.6,0.4,0.8,0.5,0.6c0.1-0.4,0.1-0.7,0-1v-0.1c0-0.3,0-0.7-0.1-1.2c-0.3-2.6-0.5-4.1-0.6-4.7
							c0-0.3,0.2-1.1,0.7-2.4c0.3-1.4,0.5-2.2,0.5-2.3c-0.1-0.4,0-0.9,0.3-1.6c0.2-0.8,0.2-1.3,0.1-1.6c0-0.4,0-1,0.1-1.7
							c0.1-0.8,0.1-1.3,0.1-1.6c-0.1-0.4,0-0.9,0.2-1.6c0.2-0.8,0.2-1.3,0.2-1.6c0-0.4,0.1-0.8,0.2-1.2c0.2-0.4,0.2-0.7,0.1-1
							c-0.1-0.9-0.4-2.2-1-3.7c-0.5-1.3-0.8-2-0.8-2.1c-0.1-0.3-0.2-0.8-0.3-1.4c-0.3-0.5-0.5-0.9-0.5-1.2c-0.1-0.5,0.2-1.1,0.9-1.7
							c0.6-0.6,1-0.9,1.3-0.9c0.2-0.1,1,0.9,2.7,2.8c1.7,1.9,2.6,3.2,2.7,3.7c0.1,0.3,0.2,0.7,0.5,1c0.2,0.2,0.4,0.5,0.5,0.9
							c0,0.3,0.1,1,0.4,2.1c0.3,1,0.5,1.7,0.5,2.1c0.4,10.6,0.6,15.9,0.6,16c0,0.3,0,0.9-0.1,1.7c-0.1,0.8-0.1,1.3-0.1,1.6
							c0.1,0.3-0.2,1.3-0.9,2.9c-0.8,1.6-1.1,2.6-1,2.9c0.1,0.9-0.3,2-1.2,3.4c-0.3,0.6-0.5,1.1-0.7,1.5c0.2,3.7,0.7,7.3,1.5,11
							c1.5,6.8,2.4,13.7,2.7,20.6c0.2,4.3,0.3,8.7,0.5,13c16,4,32.2,6,48.7,5.9c-0.9,0.2-1.9,0.3-2.9,0.3
							c-15.1,2.4-30.2,2.3-45.3-0.5c1.1,8.2,5.5,13.3,13.3,15.4c0.6,0.2,1.3,0.2,2,0.2c10-0.9,20.1-1.9,30.2-3l3.5-8l2.7-0.5
							c-2.4-5.9-3.8-12-4.2-18.4c-0.5-7.4-1.1-16.5-1.6-27.4c-0.2-4.2-0.4-8.4-0.6-12.6c-0.3-10.4-2.3-20.5-5.9-30.4
							c-1.1-2.8-1.5-5.4-1.3-7.9c-0.1-0.3-0.3-0.7-0.6-1.2c0.8,0.7,0.9,0.7,0.2-0.2c-0.5-1-0.9-1.9-1-2.7c-0.2-0.7-0.2-1.6,0.2-2.8
							c0.4-1,0.5-1.9,0.5-2.7c-0.1-0.8,0-1.6,0.1-2.6c0.2-1.2,0.6-1.8,1.2-1.9c1.4-0.1,2.6,0.7,3.7,2.3c0.2,0.2,0.3,0.5,0.6,0.9
							l-0.3-27.2l-2.4-8.3c-0.5-1.6-0.9-3.2-1.4-4.8c-1-4-2.7-7.6-5-10.7c-0.8-0.9-1.7-1.4-2.8-1.4
							C252.5,185.9,245.3,187.9,238.4,192.1 M313.3,175.6c-6.8,0.6-12.4,3.7-17,9.1c-2.4,3-5.1,5.3-7.9,7
							c-1.7,6.4-3.1,12.9-4.1,19.5c-0.1,0.5-0.2,0.9-0.2,1.3c-0.2,1.6-0.5,3.3-0.7,5c-3,19.1-4.8,38.4-5.6,57.9
							c0.7,15,1.6,30,2.8,45c0.6,8.4,2.6,16.3,5.9,23.9c1.1,2.7,2.9,4.7,5.4,5.8c6.8,3.1,13.9,4.1,21.4,3c3.3-0.3,6.5-0.4,9.7-0.4
							c6.9-0.5,13.5-1.9,19.7-4.4l3.8-14c-16.6,1.9-32.9-0.7-48.8-7.6c-0.9-0.5-1.9-0.9-2.8-1.3c15.7,5.7,31,5.3,45.9-1.4
							c2.4-1.1,4.7-2.4,6.8-4c-1.4-4.6-1.9-9.4-1.6-14.3c0.9-14.5,0.2-28.9-1.9-43.5c-0.4-2.2-1-4.4-1.7-6.5
							c-0.6-1.6-1.4-3.2-2.4-4.7c-2.5-3.3-3.3-6.8-2.4-10.3c0.2-0.2,0.5-0.3,0.8-0.5c-0.2-11.7-1-23.3-2.6-34.8
							c-0.2-1.6-0.3-3.1-0.6-4.5l-3.8,13.4c1.3-5.8,2.1-11.6,2.4-17.5c0.2-3.7,0.3-7.3,0.1-11.1l-1.4-4.4c-0.2-0.5-0.5-1-0.8-1.4
							c-1.1-1.3-2.4-2.2-4-2.7c-3.5-1.3-7.1-1.9-10.8-1.9C315.7,175.4,314.5,175.5,313.3,175.6"/>
					</defs>
					<clipPath id="SVGID_2_">
						<use xlink:href="#SVGID_1_"  style="overflow:visible;"/>
					</clipPath>
					
						<linearGradient id="SVGID_3_" gradientUnits="userSpaceOnUse" x1="-419.1835" y1="103.7792" x2="-418.1835" y2="103.7792" gradientTransform="matrix(-22.8375 -158.4064 -158.4064 22.8375 7178.6353 -68432.7578)">
						<stop  offset="0" style="stop-color:#CD6F42"/>
						<stop  offset="0.149" style="stop-color:#D29A64"/>
						<stop  offset="0.8549" style="stop-color:#D29A64"/>
						<stop  offset="1" style="stop-color:#FFE5D2"/>
					</linearGradient>
					<polygon class="st2" points="476.4,389.2 439.8,135.6 132.9,179.9 169.5,433.4 					"/>
				</g>
			</g>
		</g>
		<path class="st3" d="M355.4,325.5c0.1,3-0.3,5.9-1.3,8.7c-1.8,4.9-4,9.5-6.6,13.9c-0.1,0.2-0.1,0.3,0,0.5
			c-0.1,0.3-0.2,0.6-0.2,0.9c7.1-11.6,16.2-20.8,27.3-27.7c0.6-0.4,1.3-0.8,2-1.2c-2.8,0.6-5.7,0.9-8.6,0.9c-3.7-0.1-7,0.2-10,0.9
			L355.4,325.5 M404.5,320.6c-4.7-1.3-9.4-3.1-14-5.2c-1.8,1-3.6,1.9-5.5,2.6L404.5,320.6 M335.6,356.4c0.2,1.5,0,2.8-0.7,4.1
			c-2.9,5.8-2.2,11.3,2,16.5c1.3,1.7,2.7,3.3,4.2,4.8c-1-10,0.4-19.5,4.2-28.5c0.1-0.6,0.3-1.2,0.6-1.9c0,0.2-0.1,0.3-0.2,0.3
			c-1.5,1-3.1,1.7-4.8,2.1C338.6,354.4,336.8,355.3,335.6,356.4 M411.5,282.8l-3.1-0.6c-0.3,3.2-0.9,6.3-1.6,9.3
			c-1.1,4.7-2.8,8.8-5,12.5c-1.9,3-4.2,5.6-6.9,8l25.5,8.3l-0.9,1.9c-0.3,0.2-0.6,0.3-0.9,0.3l2.6,1l4-3.1
			c-11.7-6.7-16-17.1-13.1-31.1c0.4-1.7,0.9-3.4,1.5-5.1C412.7,283.8,412.1,283.3,411.5,282.8 M441.9,365.7c0.6-2.6,1.2-5.1,1.6-7.7
			c-0.7,1.6-1.5,3.3-2.4,4.9c-1.2,1.9-2.7,3.6-4.4,5.1c-1.7-1.3-3.4-2.6-5.1-4c-18.6-14.1-37.5-16.5-56.7-7.1
			c2.5,1.2,4.7,3.2,6.6,5.9c2.7,3.7,4.3,8,4.8,12.7c0.1,1.3,0.1,2.2,0.1,2.6c10.5-2.1,21.1-3.6,31.8-4.5c7.5-0.6,15-1.2,22.5-1.9
			C441,369.7,441.4,367.7,441.9,365.7"/>
		<path class="st4" d="M399,292.6c-0.9,0.8-1.8,1.5-2.8,2.1c-2.8,1.7-5.8,3-9,4c-0.9,0.3-1.9,0.6-2.9,0.9c-10.7,2.2-21.4,1.8-32-1.2
			c0.9,0.4,1.7,0.8,2.7,1.2c13,6,26.6,7.9,40.8,5.8c0.9-1.6,1.5-3.3,1.9-5.1C398.1,297.7,398.5,295.2,399,292.6 M294.9,325.5
			c0.9,0.4,1.9,0.8,2.8,1.3c15.9,6.9,32.2,9.4,48.8,7.6l2.6-8.6l-0.1-2c-0.5-1.2-0.9-2.4-1.4-3.6c-2.1,1.6-4.4,2.9-6.8,4
			C325.9,330.8,310.6,331.2,294.9,325.5 M228.9,338.9c0.1,0.9,0.2,1.8,0.3,2.7c15.1,2.7,30.3,2.9,45.3,0.5c1,0,2-0.1,2.9-0.3
			c-16.5,0.1-32.7-1.9-48.7-5.9C228.8,336.7,228.9,337.8,228.9,338.9 M202.4,341.3l14.4-6.2l-26.6-1.9c0.9,0.9,1.8,1.8,2.8,2.6
			C196.1,338,199.2,339.9,202.4,341.3"/>
		<path class="st5" d="M288.4,191.7c-5.1,3-10.9,3.9-17.4,2.8l1.9,20.2c-0.4-1.2-0.8-2.4-1.2-3.6l0.3,27.2c-0.2-0.4-0.4-0.7-0.6-0.9
			c-1.1-1.6-2.3-2.4-3.7-2.3c-0.5,0.1-0.9,0.7-1.2,1.9c-0.2,0.9-0.2,1.8-0.1,2.6s-0.1,1.7-0.5,2.7c-0.4,1.2-0.5,2.1-0.2,2.8
			c0.2,0.8,0.5,1.7,1,2.7c0.6,0.9,0.5,1-0.2,0.2c0.3,0.4,0.5,0.8,0.6,1.2c0.1-1,0.3-2.1,0.6-3.1c0.5,0,1,0.2,1.3,0.6
			c1.2,1.9,2.3,3.9,3.1,5.8c3.3,6.8,5.2,14.1,5.5,22.1c0.1,0.4,0.1,0.7,0.1,1c0.8-19.5,2.6-38.8,5.6-57.9c0.2-1.7,0.5-3.4,0.7-5
			c0.1-0.4,0.2-0.8,0.2-1.3C285.3,204.6,286.7,198.2,288.4,191.7 M363.4,194.2c-0.1-1.1,1-3.3,3.4-6.8c0.4-0.5,0.7-0.9,1-1.4
			c-4,1-7.9,3-11.5,5.9c-0.8,0.7-1.7,1.1-2.7,1.3c-5.3,1-10.3-0.5-15-4.5l-3.5,12.4c0.2,1.5,0.4,3,0.6,4.5
			c1.6,11.6,2.4,23.2,2.6,34.8c0.3-0.1,0.7,0,1,0.1c4.4,1.8,6.9,5.4,7.7,11c0.1,0.7,0.2,1.4,0.3,2.2c-0.7-9.5-1.1-14.6-1.2-15.4
			c-0.2-1.7-0.1-3.1,0.2-4.1c0.3-1.2,0.4-2.3,0.3-3.5c-0.2-1.9,2.6-8.5,8.2-19.9C357.7,205.1,360.6,199.5,363.4,194.2 M217.9,281.2
			c0.2,0.5,0.2,0.9,0.2,1.2c0.1,0.4,0.2,1,0.5,1.9c0.2,0.7,0.4,1.2,0.4,1.6c0,0.2,0.1,0.4,0.2,0.6c-0.2-1.1-0.2-2.1-0.2-3.1
			c-0.1,0.2-0.2,0-0.5-0.6C218,281.3,217.8,280.8,217.9,281.2 M226.3,255.9c-0.2-0.4-0.4-0.7-0.5-1c-0.1-0.5-1-1.8-2.7-3.7
			c-1.6-1.9-2.5-2.9-2.7-2.8c-0.2,0-0.7,0.3-1.3,0.9c-0.7,0.6-1,1.2-0.9,1.7c0,0.2,0.2,0.6,0.5,1.2c0.2,0.6,0.3,1.1,0.3,1.4
			c0,0.1,0.3,0.8,0.8,2.1c0.6,1.6,1,2.8,1,3.7c0.1,0.3,0,0.7-0.1,1c-0.2,0.4-0.2,0.8-0.2,1.2c0,0.3-0.1,0.9-0.2,1.6
			c-0.2,0.7-0.3,1.2-0.2,1.6c0,0.3,0,0.9-0.1,1.6c-0.1,0.8-0.1,1.4-0.1,1.7c0.1,0.3,0,0.9-0.1,1.6c-0.3,0.7-0.4,1.2-0.3,1.6
			c0,0.2-0.2,0.9-0.5,2.3c-0.5,1.3-0.7,2.1-0.7,2.4c0.1,0.5,0.3,2.1,0.6,4.7c0.1,0.5,0.1,0.9,0.1,1.2c0-0.8,0-1.6,0.1-2.4
			c0.2-2.5,1-4.4,2.2-5.8c0.9-1,2-1.7,3.4-2.2h0.1c0.4,1.1,0.5,2.2,0.2,3.3c-0.5,2.6-0.8,5.2-0.9,7.8c-0.2,2.8-0.2,5.6,0,8.4
			c0.2-0.4,0.4-0.9,0.7-1.5c0.9-1.4,1.2-2.5,1.2-3.4c-0.1-0.3,0.3-1.3,1-2.9s1-2.6,0.9-2.9c0-0.3,0-0.9,0.1-1.6
			c0.1-0.9,0.1-1.4,0.1-1.7c0-0.1-0.2-5.4-0.6-16c0-0.4-0.2-1.1-0.5-2.1c-0.2-1.1-0.4-1.8-0.4-2.1
			C226.7,256.5,226.5,256.1,226.3,255.9 M188.9,283.9c-1.9-0.8-3.7-1.7-5.6-2.8c-3.7-2.2-6.2-5.4-7.5-9.8c-3,4.4-4.4,9.5-4,15.5
			c-0.3-0.2-0.5-0.4-0.7-0.6c-3.1-1.8-5.6-4.3-7.5-7.6c-0.3,2.6-0.4,5.2-0.3,7.8c0,0.8,0.2,1.5,0.6,2.2c2.3,3.7,5.6,6.4,9.8,8
			l-0.6-9c3.9,2.6,6.5,6.6,7.8,12c0.9,3.3,1.4,6.6,1.7,10c0.1,1.6,0.3,3.3,0.6,4.9L188.9,283.9 M235.7,194c-0.2,0.2-0.5,0.3-0.7,0.5
			c-6.4,5.3-13.5,7.8-21.4,7.5v0.2c0.2,0.1,0.3,0.2,0.3,0.2c3.7,6.7,5.7,13.9,5.8,21.8c2.2,4.7,3.6,8.5,4.2,11.3
			c0.2-1.8,0.6-3.6,1-5.5c0.7-3.2,2-7.1,3.8-11.8c0.6-1.6,1.1-3,1.5-4.3c0.3-0.6,0.6-1.2,0.8-1.9c0.8-2.3,1.3-3.8,1.6-4.4
			c1.1-3.6,1.6-6.4,1.4-8.4c-0.1-1.2,0.3-2.7,1.2-4.5C235.5,194.5,235.6,194.3,235.7,194"/>
		<g>
			<g>
				<g>
					<defs>
						<path id="SVGID_4_" d="M367.9,186c-0.3,0.5-0.7,0.9-1,1.4c-2.3,3.4-3.5,5.7-3.4,6.8c-2.9,5.4-5.7,10.9-8.5,16.7
							c-5.6,11.4-8.3,18.1-8.2,19.9c0.1,1.2,0,2.3-0.3,3.5c-0.3,1-0.4,2.4-0.2,4.1c0.1,0.8,0.5,5.9,1.2,15.4
							c0.1,1.1,0.2,2.2,0.2,3.4c0.5,7.1,1.1,10.8,1.6,11.1c1.5,12,2.5,24,3.1,36.1c0.2,3,0.3,5.9,0.1,9c-0.1,2.6,0.5,4.7,1.6,6.4
							h0.1c0.4,0,0.8-0.1,1.2-0.2c2.9-1.2,5.7-2.4,8.5-3.7c9.5-4.5,19.2-6.6,29.2-6.4c0.7-0.9,1.4-1.8,2-2.7
							c0.2-0.4,0.4-0.8,0.6-1.2c-14.2,2.1-27.8,0.2-40.8-5.8c-0.9-0.4-1.8-0.8-2.7-1.2c10.6,3,21.3,3.3,32,1.2c1-0.3,2-0.6,2.9-0.9
							c3.2-0.9,6.2-2.2,9-4c1-0.6,1.9-1.3,2.8-2.1c0.9-3.9,1.7-7.8,2.4-11.8c1-4.7,1.5-9.4,1.4-14.1c0.1-21.8-4.2-42.5-12.8-62.3
							l0.1,4.5l-3,15.4c-0.7-9.6-1-19.3-1-28.9c0-6-2.6-9.3-7.7-10c-1.3-0.2-2.5-0.2-3.8-0.2C372.3,185.2,370.1,185.4,367.9,186"/>
					</defs>
					<clipPath id="SVGID_5_">
						<use xlink:href="#SVGID_4_"  style="overflow:visible;"/>
					</clipPath>
					
						<linearGradient id="SVGID_6_" gradientUnits="userSpaceOnUse" x1="-418.708" y1="103.6147" x2="-417.708" y2="103.6147" gradientTransform="matrix(18.4702 -128.6507 -128.6507 -18.4702 21429.0977 -51637.457)">
						<stop  offset="0" style="stop-color:#8C3D21"/>
						<stop  offset="0.2745" style="stop-color:#D29A64"/>
						<stop  offset="0.8549" style="stop-color:#D29A64"/>
						<stop  offset="1" style="stop-color:#FFE5D2"/>
					</linearGradient>
					<polygon class="st6" points="401.8,327.7 421.8,187.9 347.2,177.2 327.1,316.9 					"/>
				</g>
			</g>
		</g>
		<path d="M392.9,427.1v0.1c0.5,1.3,1,2.6,1.6,3.7l0.1,0.1c1.3,2.3,3,4.4,5.1,6.2c1,0.9,2.1,1.6,3.3,2.2l0.2,0.1
			c1.2,0.7,2.5,1.2,3.8,1.5v1c0,0.3,0,0.5,0.1,0.7l0.1,0.1c0.1,0.2,0.2,0.4,0.5,0.6l0.1,0.1c6.1,4.3,13.1,6.5,20.7,6.8
			c4.2,0.2,8.3,0.9,12.4,2.1v2.1c-3.5,1.9-7.3,3.1-11.4,3.5c-11.3,1.1-22.6,1.2-34.1,0.4c-0.4,0-0.7,0.1-0.9,0.3
			c-1.5,0.9-2.3,1.9-2.6,3c-0.4,1.2-0.1,2.6,0.8,4h0.1c1.1,1.6,2.4,3,4.1,4.1c3.1,1.9,6.3,3.6,9.4,4.9c-1.7,0.8-3.4,1.6-5.1,2.6
			c-3.7,1.9-6.2,4.1-7.5,6.8c-1.7,3-0.4,6.2,4,9.8c3.7,3,12.4,6.4,26.1,10.3c13.8,3.8,28.4,5.6,43.8,5.5h1.2c4.9-0.3,9-2.4,12.4-6.2
			c2-2.3,4.9-3.7,8.5-4.3c4.7-0.6,8.5-5,11.2-13c2.6-7.5,4-17.3,4.4-29.6c0.1-3.3,0.1-6.3,0-9.2c-0.3-7.8-1.5-13.9-3.6-18.3
			c-2.9-6.3-8.6-10-17.2-11.2c-8.1-1.2-18.6-1.8-31.5-1.9c-14.7,0-29.3,0.9-43.8,2.6h-0.1c-0.4,0.1-0.7,0.2-1,0.2
			c-1.7,0.4-3.4,0.9-5.1,1.5h-0.2c-0.9,0.4-1.9,0.8-2.8,1.3h-0.1c-2.3,1.1-4.4,2.4-6.3,3.8c-0.3,0.2-0.5,0.5-0.6,0.8
			C392.8,426.5,392.8,426.8,392.9,427.1 M397.7,428.6c-0.3-0.4-0.6-0.8-0.8-1.2c1.1-0.7,2.2-1.2,3.4-1.6c14.4-4.9,29.4-6.8,45-5.7
			c6-0.2,11.9-0.5,17.7-0.9c11.2-0.6,21.4,1.5,30.5,6.4c3.5,1.9,5,4.7,4.5,8.4c-0.5,7.1-0.4,14.7,0.3,22.7v0.8
			c0.3,2.6-0.2,5.2-1.6,7.6l-0.5-8.2l-1.6-0.1l-0.5,12.2l0.7,0.9l1.3-0.3c0.9,5.7,0.7,11.5-0.7,17.1c-0.4,1.6-1.3,2.9-2.8,3.7
			c-7.5,4.3-14.5,9.4-20.9,15.3c-0.7,0.7-1.5,1.1-2.4,1.2c-0.4,0.1-0.7,0.1-1,0c-23.1-2.6-45.6-7.8-67.5-15.6
			c-0.6-0.7-1.2-1.4-1.9-2.2c-0.7-0.8-0.9-1.3-0.7-1.6c4.1-6.9,11.5-10.9,22-11.9c10-0.9,19.5-3.2,28.5-6.9c7.3-3,10.6-8,9.8-15.3
			l2.2,1l1.3-0.5c-3.8-4.3-8.9-7.7-15.4-10.4c-11.7-4.7-23.8-6.8-36.4-6.3l-0.2-0.5l-0.3,0.3c-1.2-0.2-2.3-0.5-3.4-0.9
			c-1.9-0.7-3.7-1.7-5.1-3.1C399.9,431.8,398.7,430.3,397.7,428.6 M413.7,473.1c-0.2-0.1-0.3-0.1-0.5-0.1
			c-7.5-1.4-13.1-4.9-16.7-10.6c7.1,0,14.3,0.3,21.3,0.9c10.3,1,19.4-1.4,27.4-7.2c0.2,0.4,0.2,0.8,0.2,1.2c0.5,2.5,1.8,3.8,4,4.1
			c0.2-0.3,0.3-0.7,0.3-1.2c0.3-2.9-0.2-5.7-1.5-8.5c-0.9-1.7-2.3-2.4-4.2-2.1c-0.1-0.1-0.2-0.2-0.3-0.2c-2.6-1.6-5.5-2.3-8.6-2.2
			c-9.7,0.2-17.6-2.2-23.5-7.3c16.2-0.7,31.2,3.5,44.9,12.6c1.6,5.5-0.6,9.7-6.4,12.5c-11.1,5.3-23.1,8.3-36.1,9L413.7,473.1z"/>
		<path class="st7" d="M413.2,473c0.2,0,0.3,0,0.5,0.1l0.2,0.7c13-0.7,25-3.7,36.1-9c5.8-2.8,8-7,6.4-12.5
			c-13.7-9.1-28.6-13.3-44.9-12.6c6,5.1,13.8,7.6,23.5,7.3c3.1-0.1,6,0.7,8.6,2.2c0.2,0.1,0.3,0.2,0.3,0.2c1.9-0.3,3.3,0.4,4.2,2.1
			c1.3,2.8,1.8,5.6,1.5,8.5c-0.1,0.5-0.2,0.9-0.3,1.2c-2.2-0.2-3.5-1.6-4-4.1c0-0.4-0.1-0.8-0.2-1.2c-8,5.8-17.1,8.2-27.4,7.2
			c-7.1-0.6-14.2-0.9-21.3-0.9C400.1,468.1,405.7,471.6,413.2,473"/>
		<path class="st8" d="M396.9,427.4c0.2,0.4,0.5,0.8,0.8,1.2c1,1.7,2.2,3.2,3.6,4.5c1.5,1.4,3.2,2.4,5.1,3.1
			c1.1,0.4,2.2,0.7,3.4,0.9l0.3-0.3l0.2,0.5c12.6-0.5,24.7,1.6,36.4,6.3c6.4,2.6,11.6,6.1,15.4,10.4l-1.3,0.5l-2.2-1
			c0.8,7.2-2.5,12.3-9.8,15.3c-9,3.7-18.5,5.9-28.5,6.9c-10.6,1-17.9,5-22,11.9c-0.2,0.3,0,0.9,0.7,1.6c0.6,0.8,1.2,1.5,1.9,2.2
			c21.9,7.8,44.4,13,67.5,15.6c0.3,0.1,0.7,0.1,1,0c0.9-0.1,1.7-0.5,2.4-1.2c6.4-5.8,13.3-10.9,20.9-15.3c1.5-0.9,2.4-2.1,2.8-3.7
			c1.4-5.7,1.6-11.4,0.7-17.1l-1.3,0.3l-0.7-0.9l0.5-12.2l1.6,0.1l0.5,8.2c1.4-2.4,1.9-4.9,1.6-7.6v-0.8c-0.7-8-0.8-15.6-0.3-22.7
			c0.5-3.7-1-6.5-4.5-8.4c-9.2-4.9-19.3-7-30.5-6.4c-5.8,0.4-11.7,0.7-17.7,0.9c-15.6-1.1-30.6,0.8-45,5.7
			C399.1,426.2,398,426.7,396.9,427.4 M414,424.1c4-0.7,8-1.2,12-1.4c6.1-1,12.3-1.4,18.4-1c12.6,0.6,24.8,3.1,36.6,7.6
			c3.4,1.2,6,3.2,7.7,5.9c1.9,3,1.9,5.9,0.2,9c-5.6,9.9-6.1,20.1-1.6,30.4c0.1,0.2,0.2,0.5,0.3,0.7c4.3,10.6,0.9,17.7-10.3,21.2
			c-0.9,0.2-1.7,0.5-2.4,0.7c-7.5,2.1-15.1,2.8-22.8,2.1c-7.1-0.7-14.1-2-20.9-3.8c-2.2-0.5-4.3-1.2-6.4-1.9
			c-5.5-1.8-10.9-4-16.2-6.6c-0.2-0.2-0.5-0.3-0.7-0.3c1.3-0.9,2.7-1.8,4.1-2.7c8.2-4.6,17.1-6.5,26.8-5.7c9.4,0.8,18.6,0,27.5-2.4
			c10.4-2.8,11.8-8,4.2-15.6c-3.5-3.4-4.5-7.3-2.9-11.7c-7.8-5.5-16.5-9.9-26.1-13.2c-2.9-0.9-5.8-1.7-8.9-2.2
			c-2.1-0.3-4.2-0.7-6.2-1.2c-7.1-1.5-13.8-3.5-20.3-6.1c0.4-0.2,0.8-0.3,1.3-0.4c1.8-0.5,3.6-0.9,5.4-1.2
			C413.2,424.2,413.6,424.1,414,424.1"/>
		<path class="st9" d="M426,422.7c-4,0.2-8,0.7-12,1.4c-0.4,0.1-0.8,0.2-1.2,0.2c-1.8,0.3-3.6,0.7-5.4,1.2c-0.5,0.1-0.9,0.2-1.3,0.4
			c6.4,2.6,13.2,4.6,20.3,6.1c2,0.5,4.1,0.9,6.2,1.2c3,0.5,6,1.3,8.9,2.2c9.6,3.3,18.3,7.7,26.1,13.2c-1.6,4.4-0.6,8.2,2.9,11.7
			c7.6,7.6,6.2,12.8-4.2,15.6c-8.9,2.4-18.1,3.2-27.5,2.4c-9.7-0.8-18.6,1.1-26.8,5.7c-1.4,0.9-2.8,1.7-4.1,2.7
			c0.2,0.1,0.5,0.2,0.7,0.3c5.3,2.6,10.7,4.9,16.2,6.6c2.1,0.7,4.2,1.3,6.4,1.9c6.8,1.9,13.7,3.1,20.9,3.8c7.7,0.7,15.3,0,22.8-2.1
			c0.8-0.2,1.6-0.5,2.4-0.7c11.1-3.5,14.5-10.6,10.3-21.2c-0.2-0.2-0.3-0.5-0.3-0.7c-4.5-10.3-4-20.5,1.6-30.4c1.7-3,1.6-6-0.2-9
			c-1.7-2.7-4.3-4.7-7.7-5.9c-11.8-4.4-24-7-36.6-7.6C438.3,421.3,432.2,421.7,426,422.7"/>
		<path d="M41.6,453.5c-15.8,14.9-18.6,29.7-8.2,44.4v0.1c4.5,6.4,10.9,10.3,19.1,11.5c6.4,1,10.8,3.3,13.1,7
			c2.1,3.7,2.1,8.8,0,15.3v0.2c-2.8,8.9-1.2,16.2,4.7,22.1c6.1,6.7,13.8,10.1,23.1,10.3h0.1c3,0,5.9,0.3,8.5,1
			c4.3,6.3,9.9,10.7,17,13.3c1.6,0.6,4.6,1,9,1.2l0.1,0.1l0.1-0.1c6-0.3,14.3-4.3,24.9-12c10.3-7.5,21.9-18.6,34.6-33.6
			s22.8-30.3,30.3-45.8c7.9-16.2,9.6-27.7,4.9-34.7c-0.2-0.5-0.6-0.7-1-0.8c-0.5-0.1-0.9,0-1.4,0.1l-35.9,20.6
			c4.7-10.3,7.7-20.4,9-30.2c0.1,0,0.1-0.1,0.1-0.2c0.2-1.2,0-2.4-0.8-3.5c5.8-7.8,9.5-13.6,11-17.4c0.9-2.6,1.1-4.5,0.5-5.7
			c-0.5-1.7-2.1-2.4-4.8-2.1c-6.4,0.9-15.4,4-27.2,9.1c-9,3.9-20.3,9.1-33.9,15.6c8.3-6.6,16.1-11.9,23.3-16
			c11.6-6.2,16.2-12.2,13.8-17.8c-1.9-5.8-14.3-6.1-37.1-0.7c-21.8,5.1-39.5,10.9-53.3,17.4C71.4,428.8,56.8,439.3,41.6,453.5
			 M42.1,460c4.3-3.8,7.9-7.3,11-10.5c10.3-10.5,28-20.1,52.9-28.8c24.9-8.8,42.9-13.3,53.8-13.5c11,0,13.9,1.9,8.7,5.7l-2.3,2
			c-14.6,9.3-28.5,19.1-41.7,29.5c-1.1,0.9-2.4,2.1-4,3.5c-5,0.7-10.4,0-16-2.2c-3.9-1.6-7.6-3.6-11.1-5.9l-1.7-1.2l-1,1
			c15.1,16.5,34.5,17.2,58.4,2.1c15.1-9.6,30.9-16.7,47.4-21.3c-3.4,10.4-7.9,18.8-13.5,25.2c-5.7,6.4-11.5,13.8-17.4,22.3
			c-5.8,8.5-6.8,18.9-2.8,31.3c3.4,11.2,2.6,22.8-2.4,35c4-3.6,6.4-7.8,7.3-12.6c0.4-1.6,0.5-3.1,0.5-4.7c-0.7-9.2-2-18.3-4-27.3
			c-0.2-0.7-0.2-1.4-0.2-2.2c13.4-1,26.3-6.8,38.5-17.4c2.4-2.2,5.1-3.9,8-5.2l9.4-5.7c-2.4,18.6-10.1,36-23,52.3
			c-3.7,4.7-7.3,9.4-10.8,14.3c-12.8,17.4-28.3,32.1-46.5,44c-9.2,4.6-16.7,5.1-22.5,1.6s-9.5-6.2-11.1-8c-0.2-0.2-0.3-0.3-0.3-0.4
			c-0.2-0.2-0.5-0.4-0.8-0.6c-1.9-1.4-4.4-2.1-7.2-2.2c-22.8-0.6-30.8-12.1-24.2-34.5c1.9-11.1-2.3-17.7-12.5-19.7
			c-0.8-0.2-1.6-0.3-2.4-0.5c-18.6-3.2-27.1-10.6-25.3-22.1C34.9,471.6,37.9,463.8,42.1,460 M184.8,446.7c0.8-1,1.6-2.1,2.3-3.1
			l1.5-0.4c-0.2,6.7-2.3,13.5-6.1,20.4c-2.9,5.1-4.6,10.4-5.1,16l-12.8,4.3C169.4,470.7,176.1,458.3,184.8,446.7 M67.9,487
			c0.1,1.6,0.9,3,2.4,4.3c0.9,0.9,1.9,1.6,2.9,2.2c2.1,1.6,3.6,3.5,4.5,5.8l-0.3,1c8.6,12.4,15.5,22.9,20.7,31.7
			c0.6,0.8,0.9,2.3,0.7,4.5l1.6-1.5c5.6-5.6,5.1-11.5-1.4-17.6c-3.6-3.3-6.9-6.9-10-10.6c-3.2-3.8-6.4-7.5-9.8-11l12,3.7
			c7.5,4.6,7.6,3.9,0.5-2c-7.5-4.4-15.2-7.9-23.3-10.7C68.3,486.9,68.1,486.9,67.9,487"/>
		<path class="st10" d="M187.1,443.5c-0.8,1.1-1.6,2.1-2.3,3.1c-8.7,11.7-15.4,24-20.2,37.2l12.8-4.3c0.5-5.6,2.3-10.9,5.1-16
			c3.8-6.9,5.8-13.7,6.1-20.4L187.1,443.5z"/>
		<path class="st7" d="M177.2,504.1c3.9-5.1,7.8-10,11.8-14.9c3.7-4.5,7.5-9,11.4-13.4c1.2-1.4,2.5-2.8,3.7-4.1
			c1.3-1.5,2.7-3,4.1-4.4c0.8-0.8,1.5-1.6,2.2-2.6c-3,1.3-5.6,3.1-8,5.2c-12.2,10.6-25,16.4-38.5,17.4c0,0.8,0.1,1.5,0.2,2.2
			c1.9,9,3.3,18.1,4,27.3C171.1,512.5,174.1,508.3,177.2,504.1 M166.2,414.9c-2.9,1.4-5.8,2.4-8.9,3c-1,0.2-2.1,0.4-3.3,0.6
			c-7.3,0.8-14.5,2.1-21.4,4c-13.6,3.7-26.6,9.5-39.2,17.2c3.5,2.3,7.2,4.3,11.1,5.9c5.6,2.2,10.9,2.9,16,2.2c1.6-1.4,2.9-2.6,4-3.5
			C137.7,434,151.6,424.2,166.2,414.9 M73.9,485.2c-4.8-2-10.1-2.5-15.7-1.4c12.2,19.9,25.8,38.7,40.7,56.5c1.5,1.7,2,3.8,1.6,6.4
			l8.2,8.6c-4.6-8.9-2.7-18.7,5.7-29.2c0.8-1,0.9-2.1,0.4-3.4c-6.2-12.4-14.9-22.3-26-29.7c-2.6-1.6-5.2-3.2-8-4.7
			C78.5,487.3,76.3,486.2,73.9,485.2 M70.4,491.3c-1.6-1.3-2.4-2.8-2.4-4.3c0.2-0.1,0.3-0.1,0.6,0c8.1,2.8,15.8,6.4,23.3,10.7
			c7.1,5.9,7,6.6-0.5,2l-12-3.7c3.3,3.5,6.6,7.1,9.8,11c3.1,3.7,6.4,7.3,10,10.6c6.5,6.1,7,12,1.4,17.6l-1.6,1.5
			c0.2-2.3-0.1-3.8-0.7-4.5c-5.2-8.8-12.1-19.3-20.7-31.7l0.3-1c-0.9-2.3-2.4-4.3-4.5-5.8C72.3,492.9,71.3,492.2,70.4,491.3"/>
		<path class="st8" d="M168.5,412.9c5.1-3.8,2.2-5.7-8.7-5.7c-11,0.2-28.9,4.7-53.8,13.5c-25,8.7-42.6,18.3-53,28.8
			c2-0.8,4.2-1.1,6.5-0.9c0.2,0.1,0.3,0.1,0.5,0.1c-3.6,10.6-1.2,17.2,7.1,19.8c22.1,7.1,44.3,2.5,66.8-13.6
			c15.6-11.3,32.2-19.7,49.8-25.2c-9.7,22.4-21.2,44.2-34.6,65.6c-11.4,17.9-14.4,35.2-8.9,51.6c1,2.9,1.5,5.9,1.4,9
			c0,4.7-0.7,9.3-2,13.9c18.2-12,33.7-26.6,46.5-44c3.5-4.9,7.1-9.7,10.8-14.3c12.9-16.3,20.5-33.8,23-52.3l-9.4,5.7
			c-0.7,0.9-1.4,1.8-2.2,2.6c-1.4,1.5-2.8,3-4.1,4.4c-1.2,1.3-2.5,2.7-3.7,4.1c-3.9,4.4-7.7,8.9-11.4,13.4c-4,4.9-7.9,9.9-11.8,14.9
			c-3.1,4.2-6.1,8.4-9.1,12.7c0.1,1.6-0.1,3.1-0.5,4.7c-0.9,4.8-3.4,9-7.3,12.6c5.1-12.1,5.9-23.8,2.4-35c-4-12.4-3-22.9,2.8-31.3
			c5.9-8.5,11.7-15.9,17.4-22.3c5.6-6.4,10.1-14.8,13.5-25.2c-16.5,4.7-32.4,11.8-47.4,21.3c-23.8,15.1-43.3,14.4-58.4-2.1l1-1
			l1.7,1.2c12.5-7.8,25.6-13.5,39.2-17.2c7-1.9,14.1-3.2,21.4-4c1.2-0.2,2.3-0.4,3.3-0.6c3-0.6,6-1.6,8.9-3L168.5,412.9 M48.4,484.3
			c0.5,2.3,1.2,4.6,2.1,6.8c1.9,5.3,4.6,10.1,8,14.4c0.9,0.2,1.7,0.3,2.4,0.5c10.2,2,14.3,8.6,12.5,19.7
			c10.1,14.6,23.2,25.7,39.3,33.2c1.2,0.6,2.5,1.2,3.8,1.9c2.9-12,3.2-23.5,0.9-34.5c-2.1-9.5-6.1-18-12-25.5
			c-5.2-6.8-11.7-11.6-19.6-14.5c-1.4-0.5-2.9-1-4.4-1.4c-1.6-0.4-3.2-0.7-5-1C67.4,482.4,58.1,482.6,48.4,484.3 M58.1,483.8
			c5.7-1.1,10.9-0.6,15.7,1.4c2.4,1,4.7,2.1,6.8,3.1c2.8,1.5,5.5,3,8,4.7c11.1,7.5,19.8,17.4,26,29.7c0.5,1.2,0.4,2.4-0.4,3.4
			c-8.4,10.6-10.3,20.3-5.7,29.2l-8.2-8.6c0.4-2.6-0.2-4.7-1.6-6.4C83.9,522.6,70.3,503.7,58.1,483.8"/>
		<path class="st9" d="M50.5,491.1c-0.9-2.2-1.6-4.4-2.1-6.8c9.7-1.7,19.1-1.9,28.1-0.5c1.8,0.3,3.5,0.7,5,1c1.6,0.4,3,0.9,4.4,1.4
			c7.8,2.9,14.4,7.7,19.6,14.5c5.9,7.5,9.9,16,12,25.5c2.3,11,1.9,22.5-0.9,34.5c-1.3-0.6-2.6-1.2-3.8-1.9
			c-16.1-7.5-29.2-18.6-39.3-33.2c-6.6,22.4,1.5,33.9,24.2,34.5c2.9,0.1,5.3,0.8,7.2,2.2c0.3,0.2,0.6,0.4,0.8,0.6
			c0.1,0.1,0.2,0.2,0.3,0.4c1.6,1.9,5.2,4.5,11.1,8c5.8,3.5,13.3,3,22.5-1.6c1.3-4.6,2-9.2,2-13.9c0.1-3.1-0.4-6.1-1.4-9
			c-5.5-16.5-2.6-33.7,8.9-51.6c13.4-21.4,24.9-43.2,34.6-65.6c-17.6,5.5-34.1,13.9-49.8,25.2c-22.5,16.2-44.7,20.7-66.8,13.6
			c-8.3-2.6-10.7-9.2-7.1-19.8c-0.2,0-0.3,0-0.5-0.1c-2.3-0.2-4.5,0.2-6.5,0.9c-3,3.2-6.7,6.7-11,10.5c-4.2,3.9-7.1,11.7-8.9,23.4
			c-1.8,11.6,6.6,19,25.3,22.1C55.1,501.2,52.4,496.3,50.5,491.1"/>
		<path class="st9" d="M57.4,121.8c9.1-10.7,18-21.4,27.1-31.8c0.9-1,3.7-1.1,5-0.4c14,7.7,27.9,15.6,41.8,23.4
			c1.4,0.8,2.7,1.6,5.2,3.1c-3.4-10.2-6.2-19-9.2-27.9c-2.6-7.7-5.5-15.4-8-23.2c-0.4-1.4-0.1-4.1,0.8-4.8
			c9.8-7.2,19.7-14.1,30.7-21.9c0,2.8,0,4.1,0,5.4c-0.9,24.7,3.3,48.5,10.4,71.9c1,3.4,0.6,5.1-2,7.5c-8.1,7.5-15.8,15.5-23.1,22.9
			c-14.4-7.4-28.8-14.8-43.1-22.2c-0.4,0.5-0.9,1-1.3,1.6c3.7,6.9,7.2,13.9,11.1,20.6s8.2,13.1,12.2,19.2c-6,11.4-12,22.9-18.3,34.2
			c-0.6,1.1-3.1,1.9-4.3,1.6c-17.3-5.5-35-6.3-52.9-4.6c-8.1,0.8-16,2.8-24.4,4.2c0.2-0.9,0.2-2.1,0.6-3.1
			c5.1-11.8,10.4-23.5,15.5-35.3c1.1-2.6,2.6-3.4,5.4-3.1c17.4,1.8,34.4,5.3,51.6,11.8C77.9,154.5,67.9,138.5,57.4,121.8z"/>
		<path class="st9" d="M496,139.3c-9.8,9-18.8,17.2-26.8,24.5c-7.6-7.4-14.9-14.4-22.3-21.5c15-21.4,35-37.9,47-61.7
			c10.4,10.4,20.9,20.9,31.7,31.7c-9.7,8.8-18.2,16.5-26.9,24.4c12.6,1.4,24.6,2.9,36.6,3.8c7.3,0.5,12.2,3.5,15.5,10.6
			c5.2,10.8,11.2,21.2,16.9,32c-16-5.3-31.2-10.3-47.4-15.7c-5.2,21-10.1,40.5-15.1,60.5c-0.7-1.3-1.4-2.3-1.9-3.4
			c-5.1-10.2-10.4-20.3-15.2-30.7c-1.2-2.5-1.8-6-1.3-8.7c2.5-13,5.4-26,8.2-39C495.4,144.3,495.6,142.4,496,139.3z"/>
		<path class="st9" d="M227,9.4c13-2.1,26.5-4.3,40.2-6.5c2.2,26.8,4.3,52.7,6.4,78.8c-9.6,1.5-18.9,2.9-28.5,4.4
			c-2.3-10.8-4.5-21.1-6.8-32.1c-10.6,3.1-20.8,6.1-31.4,9.3c3.6,10.8,6.9,20.9,10.2,31c-9.1,4-17.7,7.9-26.4,11.7
			c-12.9-22.3-20-48-36.8-69.1c12.5-5.7,25.2-11.5,38.5-17.5c3.4,10.2,6.5,19.7,9.6,29.2c11.2-3.3,22-6.5,33.9-10
			C233,29.2,230.2,19.8,227,9.4z"/>
		<path class="st9" d="M362.2,9.5c6.1,30.1,11.8,58.8,17.8,88.3c-7.3-2.5-13.7-5.4-20.4-6.7c-7.6-1.4-10.4-5.5-11.3-13.4
			c-1.2-11.1-1.8-11-12.1-12.7c-5.7-0.9-11.5-1.5-17.3-2.4c-2.7-0.4-4.4,0.3-5.4,3.1c-0.8,2.3-2.4,4.3-2.9,6.6
			c-1.8,7.5-5.8,10.2-13.2,8.9c-5.7-1-11.6-0.2-18-0.2c0.7-1.5,1.2-3.1,1.9-4.5c8.5-15.6,17-31.2,25.5-46.9
			c3.5-6.5,6.7-13.3,10.4-19.7c0.9-1.5,3.1-3.1,4.7-3.1C335.5,7.6,349.2,8.6,362.2,9.5z M322.5,47.4c7.5,1.1,14.3,2.1,21.5,3.2
			c-2.1-9.8-4.1-18.9-6.2-28.5C332.7,30.6,327.8,38.7,322.5,47.4z"/>
		<path class="st9" d="M474.4,86.4c-6-4.9-11.4-9.5-17.1-13.7c-6.4-4.8-13.4-8.6-21.5-8.9c-12.3-0.4-20.1,10-16.9,22.7
			c2.2,8.8,7.5,15.5,14,21.2c5.3,4.5,10.7,8.8,16.6,13.6c-3.3,4.3-6.5,8.5-9.8,12.8c-18.8-13-37.7-25.2-47.9-47.3
			c-4.1-8.9-6.1-18.2-3.1-27.9c4.5-14.9,17.7-22.2,34.9-19.8c13.1,1.9,25.1,6.8,36,14.4c8.6,5.9,16.6,12.7,25.2,19.3
			C481,77.6,477.9,81.8,474.4,86.4z"/>
		<path d="M57.4,121.8l1.9,1.6c9.1-10.7,18-21.4,27.1-31.7l-0.6-0.5l0.4,0.7c0,0,0.1,0,0.2-0.2l-0.6-0.5l0.4,0.7
			c0,0,0.2-0.1,0.4-0.1c0.2,0,0.5-0.1,0.8-0.1s0.5,0,0.7,0.1c0.1,0,0.2,0,0.2,0.1h0.1l0,0c14,7.7,27.8,15.6,41.7,23.4
			c1.3,0.7,2.6,1.6,5.2,3.1l5.8,3.5l-2.1-6.4c-3.4-10.2-6.2-19-9.2-27.9c-2.6-7.8-5.5-15.4-8-23.2c0,0-0.1-0.4-0.1-0.7
			c0-0.4,0.1-1,0.2-1.3c0-0.2,0.1-0.3,0.1-0.3l-0.1-0.1l0.1,0.1l0,0l-0.1-0.1l0.1,0.1l-0.9-0.6l0.6,0.9c0.2-0.1,0.3-0.2,0.3-0.3
			l-0.9-0.6l0.6,0.9c9.7-7.2,19.7-14.1,30.7-21.8l-1.4-2h-2.5c0,1.8,0,3,0,3.9c0,0.5,0,1,0,1.4c-0.1,2.2-0.1,4.5-0.1,6.7
			c0,22.6,4.1,44.5,10.7,66c0.3,1,0.4,1.7,0.4,2.1c0,0.5-0.1,0.7-0.3,1.2c-0.2,0.4-0.6,0.9-1.4,1.6c-8.1,7.6-15.8,15.6-23.2,22.9
			l1.8,1.8l1.1-2.2c-14.4-7.4-28.8-14.8-43.1-22.2l-1.8-0.9l-1.3,1.6c-0.4,0.5-0.9,1-1.3,1.6l-1.1,1.3l0.8,1.5
			c3.7,6.8,7.2,13.9,11.1,20.7c4,6.8,8.3,13.2,12.2,19.3l2.1-1.3l-2.2-1.2c-6,11.4-12,22.9-18.3,34.2l0.7,0.4l-0.6-0.6
			c0,0-0.1,0.1-0.1,0.2l0.7,0.4l-0.6-0.6l0.2,0.2l-0.2-0.2l0,0l0.2,0.2l-0.2-0.2l0,0c-0.1,0.1-0.4,0.2-0.7,0.3
			c-0.3,0.1-0.7,0.2-0.8,0.2l0,0l0,0l-0.1,0.6l0.2-0.5h-0.1l-0.1,0.6l0.2-0.5c-12.3-3.9-24.8-5.5-37.4-5.5c-5.5,0-11,0.3-16.5,0.8
			c-8.3,0.8-16.3,2.8-24.6,4.3l0.4,2.5l2.5,0.5c0.1-0.6,0.2-1.2,0.2-1.6c0.1-0.4,0.2-0.8,0.2-0.9c5.1-11.8,10.4-23.5,15.5-35.3
			c0.2-0.4,0.4-0.8,0.5-1c0.2-0.3,0.4-0.4,0.5-0.5c0.2-0.1,0.5-0.2,1-0.2c0.2,0,0.5,0,0.8,0c17.2,1.8,34,5.3,51,11.6l6.9,2.6
			l-3.9-6.3c-10.4-17-20.4-32.9-30.9-49.6L57.4,121.8l1.9,1.6L57.4,121.8l-2.1,1.3c10.5,16.7,20.5,32.7,30.9,49.3l2.1-1.3l0.9-2.3
			c-17.4-6.5-34.7-10.1-52.3-11.9c-0.4,0-0.9-0.1-1.3-0.1c-0.7,0-1.4,0.1-2.1,0.3c-1,0.3-2.1,0.9-2.8,1.7c-0.8,0.8-1.3,1.7-1.8,2.7
			c-5.1,11.8-10.3,23.5-15.5,35.3c-0.3,0.8-0.5,1.5-0.6,2.2c-0.1,0.6-0.1,1.1-0.2,1.4l-0.7,3.6l3.6-0.6c8.5-1.5,16.4-3.5,24.2-4.2
			c5.4-0.5,10.7-0.8,16-0.8c12.1,0,24.1,1.5,35.8,5.3c0.5,0.2,1,0.2,1.4,0.2c1.1,0,2.1-0.3,3.1-0.7c0.5-0.2,0.9-0.5,1.4-0.8
			c0.4-0.3,0.9-0.8,1.3-1.4c6.3-11.4,12.3-22.9,18.3-34.3l0.7-1.3l-0.8-1.2c-3.9-6.2-8.3-12.6-12.1-19.2c-3.9-6.6-7.3-13.6-11-20.5
			l-2.2,1.2l1.9,1.6c0.4-0.5,0.9-1,1.3-1.6l-1.9-1.6l-1.1,2.2c14.4,7.4,28.8,14.8,43.1,22.2l1.6,0.8l1.3-1.3
			c7.4-7.4,15.1-15.3,23.1-22.8c1-0.9,1.8-1.8,2.4-2.9c0.6-1.1,0.9-2.3,0.9-3.6c0-1.2-0.2-2.3-0.6-3.6
			c-6.4-21.1-10.5-42.5-10.5-64.5c0-2.2,0-4.4,0.1-6.5c0-0.5,0-1,0-1.6c0-1,0-2.1,0-3.9v-4.8l-3.9,2.8c-11,7.7-20.9,14.7-30.7,21.9
			c-0.6,0.4-0.9,0.9-1.1,1.3c-0.4,0.7-0.5,1.3-0.7,2c-0.1,0.7-0.2,1.3-0.2,2s0.1,1.5,0.3,2.3c2.5,7.9,5.4,15.6,8,23.3
			c3,8.8,5.9,17.7,9.2,27.8l2.4-0.8l1.3-2.1c-2.5-1.5-3.8-2.4-5.3-3.2c-13.9-7.9-27.8-15.8-41.8-23.5c-0.6-0.3-1.1-0.5-1.7-0.6
			s-1.1-0.2-1.7-0.2c-0.8,0-1.6,0.1-2.3,0.3c-0.4,0.1-0.8,0.3-1.2,0.5c-0.4,0.2-0.8,0.5-1.2,0.9c-9.2,10.4-18.1,21.1-27.2,31.8
			l-1.2,1.4l1,1.5L57.4,121.8z"/>
		<path d="M496,139.3l-1.7-1.8c-9.8,9-18.8,17.2-26.8,24.5l1.7,1.8l1.7-1.8c-7.6-7.4-14.9-14.4-22.3-21.5l-1.7,1.8l2,1.4
			c7.4-10.5,16.1-19.9,24.5-29.8c8.4-9.8,16.6-20.1,22.7-32.3l-2.2-1.1l-1.8,1.8c10.4,10.4,20.9,20.9,31.7,31.7l1.8-1.8l-1.7-1.9
			c-9.7,8.8-18.2,16.5-26.9,24.4l-4.1,3.7l5.5,0.6c12.5,1.3,24.5,2.9,36.6,3.8c3.4,0.3,5.9,1,8,2.4s3.9,3.5,5.4,6.7
			c5.2,10.9,11.2,21.4,17,32.1l2.2-1.2l0.8-2.4c-16-5.3-31.2-10.3-47.4-15.7l-2.6-0.8l-0.7,2.6c-5.2,21-10.1,40.5-15.1,60.5l2.4,0.6
			l2.2-1.2c-0.7-1.3-1.4-2.4-1.9-3.3l-0.1-0.1l0.1,0.1c-5.1-10.2-10.4-20.3-15.2-30.6c-0.7-1.5-1.2-3.7-1.2-5.5c0-0.6,0-1.2,0.1-1.6
			c2.5-13,5.4-25.9,8.1-38.9c0.4-2.1,0.6-4,1-7l0.9-6.8l-5.1,4.7L496,139.3l-2.5-0.3c-0.4,3.2-0.6,5-0.9,6.6
			c-2.7,13-5.7,25.9-8.2,39c-0.2,0.8-0.2,1.7-0.2,2.6c0,2.7,0.6,5.4,1.7,7.7c4.9,10.4,10.1,20.6,15.2,30.8l0.1,0.1l-0.1-0.1
			c0.6,1.3,1.3,2.3,2,3.6l3.1,5.5l1.5-6.1c5-20,9.8-39.5,15.1-60.5l-2.4-0.6l-0.8,2.4c16.2,5.3,31.4,10.4,47.4,15.7l5.9,2l-2.9-5.5
			c-5.8-10.8-11.7-21.2-16.9-31.9c-1.8-3.8-4.2-6.8-7.2-8.8s-6.5-3-10.4-3.3c-11.9-0.9-23.9-2.5-36.5-3.8l-0.3,2.5l1.7,1.9
			c8.7-7.9,17.1-15.5,26.9-24.4l1.9-1.8l-1.9-1.9c-10.9-10.9-21.4-21.4-31.7-31.7l-2.4-2.4l-1.6,3.1c-5.8,11.6-13.7,21.5-22,31.3
			c-8.3,9.7-17.1,19.3-24.8,30.1l-1.2,1.7l1.5,1.5c7.4,7.2,14.6,14.1,22.3,21.5l1.7,1.6l1.7-1.6c8-7.3,17-15.5,26.8-24.5L496,139.3
			l-2.5-0.3L496,139.3z"/>
		<path d="M227,9.4l0.4,2.5c13-2.1,26.5-4.3,40.2-6.5l-0.4-2.5l-2.5,0.2c2.2,26.8,4.3,52.7,6.4,78.8l2.5-0.2l-0.4-2.5
			c-9.6,1.5-18.9,2.9-28.5,4.4l0.4,2.5l2.4-0.5c-2.3-10.8-4.5-21.1-6.8-32.1l-0.6-2.7l-2.6,0.8c-10.6,3.1-20.8,6.1-31.4,9.3
			l-2.5,0.7l0.8,2.4c3.6,10.8,6.9,20.9,10.2,31l2.4-0.8l-1-2.3c-9.1,4-17.7,7.9-26.4,11.7l1,2.3l2.2-1.3
			c-6.4-11-11.3-22.9-16.8-34.8S164.4,46,155.8,35.2l-2,1.6l1,2.3c12.5-5.7,25.2-11.5,38.5-17.5l-1-2.3l-2.4,0.8
			c3.4,10.2,6.5,19.7,9.6,29.2l0.8,2.3l2.3-0.7c11.2-3.3,22-6.5,33.9-10l2.4-0.7l-0.7-2.4c-2.9-9.5-5.7-18.9-8.9-29.4L227,9.4
			l0.4,2.5L227,9.4l-2.4,0.7c3.2,10.5,6,19.9,8.9,29.4l2.4-0.7l-0.7-2.4c-11.9,3.5-22.7,6.7-33.9,10l0.7,2.4l2.4-0.8
			c-3.1-9.5-6.2-19-9.6-29.2l-0.9-2.7l-2.5,1.2c-13.3,6.1-26,11.8-38.5,17.5l-2.9,1.3l2,2.5c8.2,10.3,14.1,21.8,19.6,33.6
			s10.5,23.8,17,35.2l1.1,1.9l2.1-0.9c8.7-3.9,17.4-7.7,26.4-11.7l2.1-0.9l-0.7-2.1c-3.3-10.2-6.6-20.2-10.2-31l-2.4,0.8l0.7,2.4
			c10.6-3.1,20.8-6.1,31.4-9.3l-0.7-2.4l-2.4,0.5c2.3,10.9,4.5,21.3,6.8,32.1l0.5,2.3l2.3-0.4c9.6-1.5,18.8-2.9,28.5-4.4l2.3-0.4
			l-0.2-2.3c-2.1-26.1-4.2-52.1-6.4-78.8L269.5,0l-2.7,0.4c-13.7,2.2-27.1,4.4-40.2,6.5l-2.8,0.5l0.8,2.7L227,9.4z"/>
		<path d="M362.2,9.5l-2.5,0.5c6.1,30.1,11.8,58.8,17.8,88.3l2.5-0.5l0.8-2.4c-7.2-2.4-13.6-5.4-20.8-6.8c-1.7-0.3-3.1-0.8-4.2-1.4
			c-0.8-0.4-1.5-0.9-2-1.5c-0.8-0.8-1.5-1.8-2-3.2c-0.5-1.4-0.9-3.1-1.1-5.2c-0.3-2.8-0.6-4.9-1-6.7c-0.3-1.4-0.8-2.6-1.5-3.6
			c-0.6-0.8-1.3-1.5-2.1-2c-1.2-0.8-2.6-1.2-4.1-1.6c-1.5-0.4-3.3-0.6-5.5-1c-5.8-0.9-11.6-1.5-17.3-2.4c-0.6-0.1-1.1-0.1-1.7-0.1
			c-0.7,0-1.4,0.1-2,0.3c-1,0.3-2,0.9-2.8,1.7s-1.3,1.8-1.7,2.9c-0.3,0.9-0.8,1.8-1.4,3c-0.6,1.1-1.2,2.4-1.6,3.9
			c-0.3,1.4-0.8,2.6-1.2,3.6c-0.7,1.4-1.5,2.3-2.4,2.8c-0.9,0.6-2.1,0.9-3.8,0.9c-0.8,0-1.8-0.1-2.8-0.3c-2.4-0.4-4.7-0.5-7.1-0.5
			c-3.8,0-7.5,0.3-11.4,0.3V81l2.3,1c0.7-1.7,1.2-3.1,1.8-4.3c8.5-15.6,17-31.2,25.5-46.9c3.6-6.6,6.7-13.3,10.4-19.7
			c0.1-0.1,0.2-0.4,0.5-0.6c0.3-0.4,0.8-0.7,1.2-0.9c0.2-0.1,0.4-0.2,0.5-0.2h0.1l0,0V9.3v0.1l0,0V9.3v0.1V9v0.5l0,0V9v0.5l0,0
			c13.7,0.7,27.4,1.7,40.4,2.5L362.2,9.5l-2.5,0.5L362.2,9.5l0.2-2.5c-13-0.9-26.7-1.9-40.5-2.5l0,0h-0.2c-0.8,0-1.5,0.2-2.2,0.4
			c-1,0.4-1.8,0.9-2.6,1.6c-0.8,0.7-1.4,1.4-2,2.3c-3.7,6.6-6.9,13.3-10.4,19.8c-8.5,15.7-17,31.3-25.5,46.9c-0.9,1.7-1.4,3.3-2,4.7
			l-1.5,3.5h3.8c4.1,0,7.9-0.3,11.4-0.3c2.2,0,4.3,0.1,6.2,0.4c1.3,0.2,2.5,0.3,3.7,0.3c1.6,0,3.1-0.2,4.4-0.7
			c2.1-0.7,3.9-2.1,5.2-3.9c1.3-1.8,2.2-4,2.8-6.6c0.2-0.8,0.6-1.7,1.2-2.7c0.5-1,1.2-2.2,1.7-3.6c0.2-0.4,0.3-0.7,0.4-1
			c0.2-0.3,0.3-0.4,0.5-0.5c0.1-0.1,0.4-0.1,0.8-0.1c0.3,0,0.6,0,0.9,0.1c5.8,0.9,11.6,1.5,17.3,2.4c2.6,0.4,4.5,0.7,5.9,1.1
			c1,0.3,1.6,0.5,2,0.8c0.3,0.2,0.4,0.4,0.6,0.7c0.3,0.4,0.6,1.2,0.8,2.6c0.3,1.3,0.5,3.1,0.7,5.4c0.2,2.1,0.6,4,1.2,5.8
			c0.4,1.3,1,2.5,1.7,3.6c1.1,1.7,2.5,3,4.3,4.1c1.8,1,3.8,1.7,6.2,2.2c6.3,1.2,12.6,4.1,20.1,6.6l4.1,1.4l-0.9-4.3
			c-5.9-29.5-11.7-58.2-17.8-88.3l-0.4-1.9L362.4,7L362.2,9.5z M322.5,47.4l-0.4,2.5c7.5,1.1,14.3,2.1,21.5,3.2l3.6,0.5l-0.8-3.5
			c-2.1-9.8-4.1-18.9-6.2-28.5l-1.3-6.1l-3.2,5.3c-5.1,8.4-10,16.5-15.3,25.2l-1.9,3.2l3.7,0.6L322.5,47.4l2.1,1.3
			c5.3-8.7,10.2-16.8,15.3-25.2l-2.1-1.3l-2.4,0.5c2.1,9.5,4.1,18.7,6.2,28.5l2.4-0.5l0.4-2.5c-7.3-1.1-14.1-2.1-21.5-3.2
			L322.5,47.4l2.1,1.3L322.5,47.4z"/>
		<path d="M474.4,86.4l1.6-1.9c-6-4.8-11.4-9.5-17.2-13.8c-3.3-2.4-6.8-4.7-10.6-6.4c-3.8-1.7-7.9-2.8-12.3-3c-0.3,0-0.6,0-0.8,0
			c-5.6,0-10.5,2.1-14,5.6c-3.4,3.5-5.4,8.5-5.4,13.9c0,2,0.3,4.1,0.8,6.2c1.2,4.7,3.2,8.9,5.8,12.6c2.6,3.7,5.7,6.9,9.1,9.9
			c5.3,4.6,10.8,8.9,16.6,13.6l1.6-1.9l-2-1.5c-3.3,4.3-6.5,8.5-9.8,12.8l2,1.5l1.4-2.1c-9.4-6.5-18.7-12.8-26.9-20.1
			c-8.2-7.3-15.2-15.6-20.1-26.3c-2.7-5.8-4.3-11.5-4.3-17.3c0-2.9,0.4-5.8,1.3-8.9c1.8-6,5.1-10.6,9.5-13.7
			c4.4-3.1,10-4.8,16.6-4.8c1.9,0,3.9,0.1,6,0.4c12.7,1.8,24.3,6.6,35,14c8.4,5.8,16.4,12.5,25.1,19.2l1.5-2l-2-1.5
			c-3.8,5.1-7,9.3-10.4,13.8L474.4,86.4l1.6-1.9L474.4,86.4l2,1.5c3.4-4.5,6.6-8.7,10.4-13.8l1.5-2l-2-1.5
			c-8.5-6.6-16.6-13.4-25.3-19.4c-11.2-7.7-23.6-12.9-37.1-14.8c-2.3-0.3-4.5-0.5-6.7-0.5c-7.4,0-14.1,1.9-19.5,5.7
			s-9.3,9.4-11.4,16.3c-1.1,3.5-1.5,6.9-1.5,10.3c0,6.8,1.9,13.2,4.8,19.4c5.3,11.4,12.8,20.3,21.3,27.9c8.5,7.6,18,14,27.4,20.5
			l2,1.4l1.4-1.9c3.3-4.3,6.5-8.5,9.8-12.8l1.5-1.9l-1.9-1.5c-5.9-4.8-11.3-9.1-16.5-13.6c-3.2-2.7-6-5.7-8.2-8.9
			c-2.3-3.3-4-6.9-5-11c-0.4-1.7-0.6-3.4-0.6-5c0-4.3,1.5-7.9,4-10.4s6-4.1,10.4-4.1c0.2,0,0.4,0,0.7,0c3.7,0.1,7.1,1.1,10.4,2.6
			s6.5,3.5,9.6,5.9c5.6,4.1,10.9,8.8,17,13.7l2,1.6l1.6-2.1L474.4,86.4z"/>
		<path class="st9" d="M313.2,456.1c10.7-4.1,21.1-8.2,32.2-12.5c1.2,8.8,2.5,17.4,3.7,26.4c6.2-1,12.1-1.9,18.5-2.9
			c0.8,6.1,1.6,12.1,2.4,18.4c-6.3,1.1-12.1,2.1-18.9,3.3c2.1,12.3,3.9,24.4,6.2,36.4c0.8,4.3,4.4,6.6,8.9,6.6
			c4.3,0,8.6-0.4,13.7-0.6c0.6,6.8,1.2,13.7,1.8,21.3c-16.8,3.7-33.4,8.2-50.1,0.8c-10.3-4.5-15.5-12.7-15.6-24
			c-0.1-12.3,0-24.6,0-38.5c-8.2,1.6-14.9,2.9-22,4.3c0.6-7,1.2-14.4,1.8-22.1c6.2,0,11.9,0,18.5,0
			C313.9,467.2,313.5,461.8,313.2,456.1z"/>
		<path class="st9" d="M244.6,469.8c11.7,0.9,22.9,1.7,34.9,2.6c-2.1,28.9-4.1,57.6-6.2,87.1c-14.8-1.8-28.9-3.6-43.5-5.4
			C234.8,525.6,239.6,498,244.6,469.8z"/>
		<path class="st9" d="M282.6,426.9c0.1,1,0.2,1.6,0.1,2.2c-0.7,9.1-1.4,18.2-2.1,28.4c-11.2-0.8-22.1-1.6-33.7-2.5
			c1.9-10.3,3.6-19.8,5.4-29.5C262.6,425.9,272.5,426.4,282.6,426.9z"/>
		<path d="M313.2,456.1l0.9,2.3c10.7-4.1,21.1-8.2,32.2-12.5l-0.9-2.3l-2.5,0.3c1.2,8.8,2.5,17.4,3.7,26.4l0.4,2.5l2.5-0.4
			c6.2-1,12.1-1.9,18.5-2.9l-0.4-2.5l-2.5,0.3c0.8,6.1,1.6,12.1,2.4,18.4l2.5-0.3l-0.4-2.5c-6.3,1.1-12.1,2.1-18.9,3.3l-2.4,0.4
			l0.4,2.4c2.1,12.3,3.9,24.4,6.2,36.5c0.3,1.4,0.7,2.6,1.4,3.7c1,1.6,2.5,2.9,4.2,3.7s3.6,1.2,5.6,1.2h0.1l0,0
			c4.4,0,8.8-0.4,13.8-0.6l-0.1-2.5l-2.5,0.2c0.6,6.8,1.2,13.7,1.8,21.3l2.5-0.2l-0.5-2.4c-10.2,2.3-20.1,4.7-29.8,4.7
			c-6.3,0-12.5-1-18.8-3.8c-4.8-2.1-8.2-5-10.5-8.5c-2.3-3.6-3.5-7.9-3.6-13.2c0-4.8-0.1-9.6-0.1-14.5c0-7.6,0-15.5,0-24v-3l-3,0.6
			c-8.2,1.6-14.9,2.9-22,4.3l0.5,2.5l2.5,0.2c0.6-7,1.2-14.4,1.8-22.1l-2.5-0.2v2.5c6.2,0,11.9,0,18.5,0h2.7l-0.2-2.7
			c-0.4-5.8-0.7-11.1-1.1-16.8L313.2,456.1l0.9,2.3L313.2,456.1l-2.5,0.2c0.4,5.7,0.7,11,1.1,16.8l2.5-0.2v-2.5
			c-6.6,0-12.4,0-18.5,0h-2.3l-0.2,2.3c-0.6,7.7-1.2,15-1.8,22.1l-0.3,3.3l3.2-0.6c7.2-1.4,13.8-2.7,22-4.3l-0.5-2.5h-2.5
			c0,8.5,0,16.3,0,24c0,4.9,0,9.8,0.1,14.6c0.1,6,1.5,11.4,4.4,15.9s7.2,8,12.7,10.4c7,3.1,13.9,4.2,20.8,4.2
			c10.5,0,20.8-2.6,30.9-4.8l2.1-0.5l-0.2-2.2c-0.7-7.6-1.3-14.4-1.8-21.3l-0.2-2.4l-2.4,0.1c-5.1,0.3-9.4,0.6-13.6,0.6l0,0h-0.1
			c-1.8,0-3.3-0.5-4.3-1.2c-0.5-0.4-0.9-0.8-1.3-1.4c-0.3-0.5-0.6-1.2-0.8-2c-2.3-11.9-4.1-24-6.2-36.4l-2.5,0.4l0.4,2.5
			c6.8-1.2,12.6-2.2,18.9-3.3l2.4-0.4l-0.3-2.4c-0.8-6.4-1.6-12.4-2.4-18.4l-0.3-2.5l-2.5,0.4c-6.4,1-12.3,1.9-18.5,2.9l0.4,2.5
			l2.5-0.3c-1.3-9-2.5-17.6-3.7-26.4l-0.4-3.1l-2.9,1.1c-11.1,4.3-21.6,8.4-32.2,12.5l-1.7,0.7l0.1,1.8L313.2,456.1z"/>
		<path d="M244.6,469.8l-0.2,2.5c11.7,0.9,22.9,1.7,34.9,2.6l0.2-2.5l-2.5-0.2c-2.1,28.9-4.1,57.6-6.2,87.1l2.5,0.2l0.3-2.5
			c-14.8-1.8-28.9-3.6-43.5-5.4l-0.3,2.5l2.5,0.4c5-28.5,9.8-56.1,14.8-84.3L244.6,469.8l-0.2,2.5L244.6,469.8l-2.5-0.4
			c-5,28.2-9.8,55.8-14.8,84.3l-0.5,2.6l2.6,0.3c14.6,1.8,28.7,3.6,43.5,5.4l2.6,0.3l0.2-2.6c2.1-29.6,4.2-58.3,6.2-87.1l0.2-2.5
			l-2.5-0.2c-12-0.9-23.2-1.7-34.9-2.6l-2.3-0.2l-0.4,2.2L244.6,469.8z"/>
		<path d="M282.6,426.9l-2.5,0.2c0.1,0.9,0.2,1.5,0.1,1.7v0.1l0,0c-0.7,9.1-1.4,18.2-2.1,28.4l2.5,0.2l0.2-2.5
			c-11.2-0.8-22.1-1.6-33.7-2.5l-0.2,2.5l2.5,0.5c1.9-10.3,3.6-19.8,5.4-29.5l-2.5-0.5l-0.1,2.5c10.3,0.5,20.2,1,30.2,1.5
			L282.6,426.9l-2.5,0.2L282.6,426.9l0.1-2.5c-10-0.5-19.9-1-30.2-1.5l-2.2-0.1l-0.4,2.2c-1.8,9.8-3.5,19.3-5.4,29.5l-0.5,2.7
			l2.8,0.2c11.5,0.9,22.5,1.7,33.7,2.5l2.5,0.2l0.2-2.5c0.8-10.2,1.5-19.3,2.1-28.4l0,0c0-0.2,0-0.3,0-0.5c0-0.8-0.1-1.4-0.2-2.1
			l-0.2-2.2l-2.2-0.1L282.6,426.9z"/>
	</g>
</g>
</svg>
