<?xml version="1.0" encoding="utf-8"?>
<!-- Generator: Adobe Illustrator 25.4.1, SVG Export Plug-In . SVG Version: 6.00 Build 0)  -->
<svg version="1.1" id="Layer_1" xmlns="http://www.w3.org/2000/svg" xmlns:xlink="http://www.w3.org/1999/xlink" x="0px" y="0px"
	 viewBox="0 0 70.8 28.6" style="enable-background:new 0 0 70.8 28.6;" xml:space="preserve">
<style type="text/css">
	.st0{display:none;}
	.st1{display:inline;}
	.st2{fill:#D51F26;}
	.st3{fill:#FFFFFF;}
</style>
<g id="Layer_2_1_" class="st0">
	<rect x="-183.1" y="-8.3" class="st1" width="306.4" height="46.2"/>
</g>
<g id="Layer_1_1_">
	<path class="st2" d="M0,25.9c0,0,9.3,0.4,10.9,0.4s1.6,1.9,2.6,1.9c1,0,1.8,0,1.8,0s0.4,1,0.7-0.4c0.4-1.3,0.4-1.5,0.4-1.5
		s2.6,0,3.5-0.1c0.9-0.1,3.1-0.5,3.7-0.1c0.6,0.4,6.3,0.5,7.1,0.1c0.8-0.5,6.1-0.5,6.6-1.1c0.4-0.5,0.7-1.1,0.7-1.1s33.3,0.8,32.9,0
		c-0.4-0.8-8.7-2.4-14-2.8s-18.6,0.4-19.4,0s-3.3-0.5-5.3,1c-2,1.5-7.5-2.3-10.4-0.8c-2.3,1.1-2.9-0.4-6.4,0.4c-3.6,0.6-6,1.1-6,1.1
		S7.8,23,7,22.9s-1.2,0-1.2,0s0.6,1.3-0.5,1.5c-1,0.1-1.6-1-2.6-0.5C1.6,24.3,0,25.9,0,25.9z"/>
</g>
<g>
	<path class="st3" d="M68.1,11.7c-0.4-0.4-0.2-0.9-0.3-1.5c0-0.4,0-0.6,0-0.9c0-0.8-0.1-1.5-0.1-2.2c0-1.4,0-2.8-0.1-4.1
		c0-0.1,0-0.3-0.1-0.4c-0.1-0.3-0.3-0.5-0.7-0.4c-0.4,0.1-0.4,0.3-0.4,0.7c0,1.8,0.1,3.6,0.1,5.4c0,1.3,0.1,2.7,0.1,4
		c0,0.4,0.1,0.8,0.6,1c0.8,0.3,1.5,0,2.2-0.3c0.5-0.2,0.4-0.8,0.7-1.2C69.3,11.7,68.6,12.2,68.1,11.7z M63.4,11.7
		c-0.4-0.4-0.2-0.9-0.3-1.5c0-0.4,0-0.6,0-0.9c0-0.8-0.1-1.5-0.1-2.2c0-1.4,0-2.8-0.1-4.1c0-0.1,0-0.3-0.1-0.4
		c-0.1-0.3-0.3-0.5-0.7-0.4c-0.4,0.1-0.4,0.3-0.4,0.7c0,1.8,0.1,3.6,0.1,5.4c0,1.3,0.1,2.7,0.1,4c0,0.4,0.1,0.8,0.6,1
		c0.8,0.3,1.5,0,2.2-0.3c0.5-0.2,0.4-0.8,0.7-1.2C64.6,11.7,63.9,12.2,63.4,11.7z M61,12.3h-2.5l0-0.1l0-0.2
		c-0.1-0.9-0.1-1.9-0.2-2.8l0-0.8l0.3-0.1c0.2-0.1,0.4-0.1,0.5-0.2c0.4-0.1,0.6-0.4,0.6-1l0-0.1h-1.4V3.6c1.1-0.1,1.7-0.5,1.8-1.3
		l0-0.1l-0.1,0l0,0l-0.1,0c-0.8,0.1-1.3,0-1.9-0.2c-0.2-0.1-0.4,0-0.6,0.1c-0.3,0.2-0.5,0.6-0.5,0.9c0,0.1,0,0.2,0,0.3
		C57,3.6,57.1,4,57.1,4.4c0,0.3,0,0.6-0.1,1c0,0.1,0,0.3,0,0.4c0,0.1,0,0.2,0,0.3c0,0.2,0,0.4-0.1,0.5c-0.2,0.9-0.2,1.5,0,2.2
		c0,0.1,0,0.2,0,0.4l0,0.1c0,1.1,0,2.1,0,3.2c0,0.4,0.2,0.8,0.5,1c0.2,0.1,0.4,0.2,0.6,0.2c0.2,0,0.4,0,0.6-0.1
		c0.3-0.1,0.6-0.1,0.8-0.2l0.1,0c0.1,0,0.2,0,0.3,0c0.1,0,0.2,0,0.3,0C60.8,13.2,61,12.9,61,12.3L61,12.3z M55.1,6.9
		c0.1-0.3,0-0.5-0.2-0.7c-0.1-0.1,0-0.3,0-0.4c0-0.3,0-0.7,0-1c0-0.8,0-1.6,0.1-2.4c0-0.4-0.1-0.7-0.5-0.8c-0.3-0.1-0.6,0.1-0.7,0.5
		c-0.1,0.4-0.1,0.8-0.1,1.2c-0.1,1.1-0.1,2.2-0.2,3.4c-0.6,0.1-1,0.2-1.6,0.3c0-0.4,0-0.8,0-1.1c0-1,0-1.9,0-2.9
		c0-0.4,0-1.1-0.5-1.1c-0.7,0-0.5,1.7-0.5,2.6c0,0.6,0.1,1.3,0.1,1.9c0,0.4,0,0.9-0.3,1.3c-0.1,0.1-0.1,0.3-0.1,0.5
		c0.2,1.2,0.3,2.7,0.2,3.9c-0.1,0.4-0.2,0.9,0.3,1c0.4,0.1,0.5-0.3,0.6-0.6c0.1-0.4,0.1-1.3,0.1-1.7c0-0.7,0.1-1.4,0.1-2.1
		c0.6-0.1,1-0.2,1.6-0.3c0.1,0.5,0.1,0.9,0.2,1.4C53.8,10.9,54,12,54,13c0,0.2,0.3,0.4,0.7,0.3c0.6-0.1,0.2-2.7,0.1-4.2
		c0-0.5,0.1-1,0.2-1.5C55.1,7.4,55,7.1,55.1,6.9z M45.7,8.6c0-0.2,0-0.3,0-0.5c0-0.3-0.2-0.4-0.4-0.4c-0.5-0.1-1.4,0.4-1.7,0.9
		c0.3,0.1,0.7,0.2,1,0.2c-0.1,1.1-0.2,2.2-0.3,3.3c-0.2,0.1-0.4,0.2-0.7,0.2c-0.3,0.1-0.5-0.1-0.6-0.4c-0.1-0.4,0-0.7-0.1-1.1
		c0-0.2,0-0.3,0-0.5c-0.1-0.3-0.1-0.7,0-1c0.1-0.3,0-0.6,0.1-0.8c0-0.3,0-0.6,0-0.9c0.1-1.1,0-2.2,0.1-3.3c0-0.2,0-0.4,0-0.6
		C43,3.3,43.3,3.1,43.8,3c0.3,0,1.1,0.1,1.4,0c0.3,0,0.4-0.2,0.3-0.5c-0.1-0.1-0.2-0.3-0.4-0.3c-0.5,0-1.6-0.2-2.1-0.1
		c-0.2,0-0.5,0.2-0.6,0.4c-0.2,0.5-0.4,1-0.5,1.5C41.8,5.1,41.8,6,41.8,7c0,0.4-0.1,0.8-0.1,1.2c0,1-0.1,1.7-0.1,2.9
		c0.1,0.6,0,1.1,0.2,1.6c0.2,0.4,0.5,0.7,1,0.7c0.9,0.1,1.7-0.2,2.5-0.8c0.3-0.3,0.5-0.6,0.5-1C45.7,10.6,45.5,9.6,45.7,8.6z
		 M39.3,2.1c-0.7,0-0.7,1.6-0.8,2.4c-0.1,0.8-0.1,1.7-0.2,2.5c0,0.7-0.1,1.5-0.1,2.2C37.6,8,37.3,6.9,37,5.7
		c-0.1-0.2-0.1-0.3-0.2-0.5c-0.2-0.6-0.5-1.3-0.7-1.9c-0.1-0.3-0.2-0.8-0.6-0.9c-0.8-0.2-0.8,1-0.9,1.5c0,0.8,0,1.4-0.1,2.3
		c-0.1,2.2-0.3,4.5-0.2,6.7c0,0.3,0,0.4,0.2,0.5c0.1,0.1,0.4,0,0.5-0.1c0.6-2.5,0.6-3.4,0.9-5.3c0.2,0.2,0.3,0.4,0.4,0.6
		c0.5,1.3,1,2.6,1.6,3.9c0.2,0.5,0.4,1.1,1.1,1c0.9-0.1,0.7-1.6,0.7-2.4c0.1-1.4,0.1-2.8,0.2-4.3c0-1.2,0.1-2.5,0.1-3.7
		C39.9,2.4,39.9,2.1,39.3,2.1z M32.4,1.7c-0.8-0.1-1.1,0.1-1.1,0.8c-0.1,1.5-0.1,3.1-0.2,4.6c0,0.4,0,0.9,0,1.3c0,0.8,0,1.6,0,2.4
		c0,0.5-0.1,1-0.1,1.6c0,0.7,0,1,0.8,1c0.6,0,0.6-2.1,0.6-3.2c0.1-1.3,0-2.6,0-4c0-0.4,0.1-0.7,0.1-1.1C32.7,4,32.6,2.8,32.4,1.7z
		 M29,10.7c-0.6-0.9-0.6-1.5-0.8-2.5C28,7.1,28.1,6,28.7,5c0.2-0.3,0.3-0.6,0.5-0.9c0.2-0.4,0.4-0.9,0.6-1.3
		c0.1-0.2,0.1-0.4,0.1-0.6c0-0.4-0.4-0.5-0.6-0.3c-0.3,0.2-0.5,0.5-0.7,0.7c-0.7,1-1.2,2.1-1.7,3.2C26.4,7,25.9,8,25.4,9.1
		c-0.1,0.3-0.3,0.5-0.5,0.8c-0.1-1.1,0-2.2,0.1-3.3C25,5.4,25,4.3,25,3.1c0-0.4-0.1-0.8-0.5-0.9C24.1,2.3,24,2.5,24,3
		c-0.1,1.7-0.2,3.5-0.3,5.2c-0.1,1.3-0.3,2.6-0.4,3.9c-0.1,0.8,0.6,1.9,1.1,1.2c0.9-1.3,1.6-2.5,2.5-3.8c0.3,1.4,2.9,3.8,3.2,3.8
		C30.8,13.3,29.4,11.3,29,10.7z M22,12.3c-0.2-0.6-0.2-1.3-0.3-2l0-0.2c0-0.3-0.1-0.6-0.5-0.7l-0.1,0l0,0c-0.8,0.9-0.6,2-0.5,2.9
		c-0.4,0.1-0.6,0.1-0.7,0c-0.1-0.1-0.1-0.1-0.1-0.3c0-0.4-0.1-0.7-0.2-1.1c-0.1-0.5-0.3-1-0.3-1.6c0-0.4,0-0.8,0-1.1
		c0-0.2,0-0.4,0-0.6c0-0.3,0-0.7,0-1c0-0.4,0-0.8,0-1.3c0-0.2,0-0.3,0-0.5c0-0.3-0.1-0.5,0-0.8c0-0.3,0.2-0.5,0.3-0.8l0.1-0.2
		c0.1-0.2,0.3-0.2,0.4-0.2c0.3,1.9,0.3,2,0.9,2.3l0.1,0l0-0.1L21,5.2c0-0.1,0.1-0.3,0.1-0.4c0-0.2,0-0.4,0-0.6c0-0.2,0-0.4,0-0.6
		c0-0.6,0.1-1-0.2-1.3C20.8,2,20.3,2,19.5,2c-0.2,0-0.4,0.1-0.6,0.1l-0.2,0.1c-0.1,0-0.2,0.1-0.2,0.2c-0.4,0.5-0.7,1.1-0.7,1.7
		c0,0.4,0,0.9,0,1.3c0,0.1,0,0.2,0,0.4c0,0.7,0,1.3,0.1,2c0,0.5,0,0.9,0,1.4c0,0.5,0,1.1,0.1,1.6c0.1,0.5,0.2,0.9,0.3,1.4l0,0.1
		c0.2,0.7,0.6,1.2,1.2,1.5c0.2,0.1,0.5,0.1,0.7,0.1c0.4,0,0.8-0.1,1.1-0.2C21.9,13.2,22.1,12.8,22,12.3z M16.1,3.9c0-0.3,0-0.6,0-1
		c0-0.4,0-0.7-0.2-0.9c-0.1-0.1-0.3-0.2-0.5-0.1c-0.1,0-0.2,0.1-0.3,0.2c-0.4,0.5-0.2,2.1-0.2,2.6c0,0.2,0,0.6,0,0.9
		c0,0.1,0,0.3,0,0.4c0.1,2.1,0.1,4,0.1,5.8c0,0.1-0.1,0.3-0.1,0.4l-0.1,0.2l-0.2-0.1c-0.2-0.1-0.4-0.1-0.6-0.2
		c-0.1-0.1-0.2-0.3-0.3-0.4c0-0.1-0.1-0.3-0.1-0.5c-0.1-0.5-0.2-1-0.2-1.5c0-2.6-0.2-4.8-0.8-7c-0.1-0.4-0.3-0.7-0.6-0.8
		c-0.2,0-0.4,0-0.7,0.3c-0.2,0.3-0.1,0.6,0,0.9l0.1,0.2c0.2,0.9,0.3,1.9,0.4,3.1c0,0.3,0,0.6,0.1,0.9c0,0.5,0.1,1,0,1.4
		c-0.1,0.9,0,1.7,0.2,2.4c0.3,1,0.9,1.7,1.9,2.2c0.3,0.1,0.5,0.2,0.8,0.2c0.2,0,0.3,0,0.5-0.1c0.3-0.1,0.5-0.4,0.6-0.8
		C16,12.5,16,12.3,16,12l0-0.2c0-0.5,0-0.9,0-1.4c0-0.4,0-0.8,0-1.1c0-0.5,0-1.1,0-1.6c0-1,0-2,0.1-3C16.1,4.5,16.1,4.2,16.1,3.9z
		 M7.9,11.7c-0.4-0.4-0.2-0.9-0.3-1.5c0-0.4,0-0.6,0-0.9c0-0.8-0.1-1.5-0.1-2.2c0-1.4,0-2.8-0.1-4.1c0-0.1,0-0.3-0.1-0.4
		C7.3,2.3,7,2.1,6.7,2.1C6.3,2.2,6.3,2.5,6.3,2.8c0,1.8,0.1,3.6,0.1,5.4c0,1.3,0.1,2.7,0.1,4c0,0.4,0.1,0.8,0.6,1
		c0.8,0.3,1.5,0,2.2-0.3c0.5-0.2,0.4-0.8,0.7-1.2C9.2,11.7,8.4,12.2,7.9,11.7z M5.2,12.3C5,11.7,5,11,5,10.3l0-0.2
		c0-0.3-0.1-0.6-0.5-0.7l-0.1,0l0,0c-0.8,0.9-0.6,2-0.5,2.9c-0.4,0.1-0.6,0.1-0.7,0c-0.1-0.1-0.1-0.1-0.1-0.3c0-0.4-0.1-0.7-0.2-1.1
		c-0.1-0.5-0.3-1-0.3-1.6c0-0.4,0-0.8,0-1.1c0-0.2,0-0.4,0-0.6c0-0.3,0-0.7,0-1c0-0.4,0-0.8,0-1.3c0-0.2,0-0.3,0-0.5
		c0-0.3-0.1-0.5,0-0.8c0-0.3,0.2-0.5,0.3-0.8l0.1-0.2c0.1-0.2,0.3-0.2,0.4-0.2c0.3,1.9,0.3,2,0.9,2.3l0.1,0l0-0.1l0.1-0.2
		c0-0.1,0.1-0.3,0.1-0.4c0-0.2,0-0.4,0-0.6c0-0.2,0-0.4,0-0.6c0-0.6,0.1-1-0.2-1.3C4,2,3.6,2,2.8,2C2.6,2,2.4,2.1,2.2,2.1L2,2.2
		c-0.1,0-0.2,0.1-0.2,0.2C1.3,2.9,1.1,3.4,1,4c0,0.4,0,0.9,0,1.3c0,0.1,0,0.2,0,0.4c0,0.7,0,1.3,0.1,2c0,0.5,0,0.9,0,1.4
		c0,0.5,0,1.1,0.1,1.6c0.1,0.5,0.2,0.9,0.3,1.4l0,0.1c0.2,0.7,0.6,1.2,1.2,1.5c0.2,0.1,0.5,0.1,0.7,0.1c0.4,0,0.8-0.1,1.1-0.2
		C5.2,13.2,5.4,12.8,5.2,12.3z"/>
</g>
</svg>
