<?xml version="1.0" encoding="utf-8"?>
<!-- Generator: Adobe Illustrator 25.2.1, SVG Export Plug-In . SVG Version: 6.00 Build 0)  -->
<svg version="1.1" id="Layer_1" xmlns="http://www.w3.org/2000/svg" xmlns:xlink="http://www.w3.org/1999/xlink" x="0px" y="0px"
	 viewBox="0 0 94.7 27.5" style="enable-background:new 0 0 94.7 27.5;" xml:space="preserve">
<style type="text/css">
	.st0{display:none;}
	.st1{display:inline;}
	.st2{fill:#D51F26;}
	.st3{fill:#FFFFFF;}
</style>
<g id="Layer_2_1_" class="st0">
	<rect x="-162.1" y="-9.4" class="st1" width="306.4" height="46.2"/>
</g>
<g id="Layer_1_1_">
	<path class="st2" d="M0,25.4c0,0,12.5,0.3,14.6,0.3s2.2,1.5,3.4,1.5c1.3,0,2.4,0,2.4,0s0.5,0.7,1-0.3c0.5-1,0.5-1.1,0.5-1.1
		s3.5,0,4.7-0.1c1.2-0.1,4.2-0.4,5-0.1c0.8,0.3,8.4,0.4,9.5,0.1c1.1-0.4,8.2-0.4,8.8-0.8c0.6-0.4,0.9-0.8,0.9-0.8s44.6,0.6,44,0
		s-11.6-1.8-18.8-2.1c-7.2-0.3-24.9,0.3-26,0c-1.1-0.3-4.4-0.4-7.1,0.7c-2.7,1.1-10-1.7-14-0.6c-3.1,0.8-3.9-0.3-8.6,0.3
		c-4.7,0.4-8,0.7-8,0.7s-1.9,0.1-2.9,0c-1-0.1-1.6,0-1.6,0s0.8,1-0.7,1.1c-1.4,0.1-2.1-0.7-3.4-0.4C2.2,24.2,0,25.4,0,25.4z"/>
</g>
<g>
	<path class="st3" d="M91.6,13.7c-0.1-0.6-0.2-1.1-0.3-1.7c-0.2-0.8-0.3-1.6-0.3-2.4c0.1-1.2-0.5-2.1-1.6-2.7
		c-0.4-0.2-0.8-0.4-1-0.7l-0.2-0.1c-0.4-0.4-0.8-0.8-0.9-1.3c-0.2-0.7-0.3-1.4-0.4-2.1c0-0.2,0-0.4-0.1-0.6c0-0.1,0-0.2,0.1-0.4V1.6
		c0.9-0.2,1.5-0.1,2.2,0.1c0.1,0,0.2,0,0.3,0.1c0,0.2,0,0.5,0,0.8c0,0.7,0,1.6,0.7,2c0.1,0.1,0.4,0.1,0.5,0c0.7-0.5,0.6-1.3,0.5-1.9
		c0-0.2-0.1-0.4-0.1-0.5c-0.1-1.9-0.6-2.1-3.2-2.1c-1,0-1.9,0.4-2.4,1C85.1,1.5,85,1.9,85,2.3v0.6c0.1,0.6,0.1,1.3,0.1,1.9
		c0,1.8,0.9,2.9,2.6,3.6c1.7,0.7,1.8,1.7,1.8,2.5c0,0.5,0,1,0.1,1.5c0,0.3,0.1,0.6,0.1,0.9c0,0.6,0,1.1,0,1.7c0,0.2,0,0.4,0,0.5
		c-1,0.2-1.5,0.3-1.7,0c-0.2-0.1-0.2-0.4-0.2-0.9c0-1.3,0-2.6,0-3.9V9.8c0-0.1,0.1-0.3,0-0.5s-0.3-0.2-0.6-0.2l0,0
		c-0.6,0-0.7,0.5-0.8,0.8V10c-0.1,0.2-0.2,0.4-0.2,0.7c-0.3,0.7-0.5,1.3-0.4,2c0.2,0.8,0.3,1.6,0.3,2.4c0,0.3,0,0.6,0.1,1
		c0,0.5,0.4,0.9,0.8,1.2c0.3,0.2,0.8,0.3,1.4,0.3c0.8,0,1.7-0.2,2.3-0.5c0.5-0.2,0.7-0.5,0.7-0.8c0-0.2,0.1-0.4,0.1-0.6
		C91.5,14.9,91.6,14.3,91.6,13.7z M84.4,0.7V0.5h-0.2c-0.1,0-0.2,0-0.4-0.1c-0.2-0.1-0.6-0.1-0.9-0.1c-1.3,0.2-2.6,0-3.9-0.2
		c-0.3,0-0.6-0.1-0.9-0.1c0,0-0.8-0.1-1.1,0.2c-0.2,0.3-0.3,0.8,0,1.1c0.3,0.3,0.8,0.6,1.3,0.9c0.3,0.1,0.6,0.2,1,0.3
		c0.1,0,0.2,0,0.4,0.1c0,0.1,0,0.3,0,0.4c0,0.4-0.1,0.8-0.1,1.2c0,0.4,0.1,0.8,0.2,1.1c0,0.2,0.1,0.4,0.1,0.7c0,0.1,0,0.2,0,0.3
		s0,0.2,0,0.3c0,0.7,0,1.1,0,1.4c0,0.2,0,0.4,0,0.7s0,0.5,0.1,0.8c0,0.3,0.1,0.5,0.1,0.8c0,0.4,0,0.8,0,1.2c0,0.6,0,1.2,0,1.9
		c0.1,0.8,0.2,1.8,0.4,2.9v0.2c0,0.4,0.1,1,0.6,1h0.1c0.2,0,0.3-0.1,0.4-0.2c0.5-0.4,0.5-1.6,0.5-3.3c0-0.3,0-0.6,0-0.9
		c0.2-4.2,0-5.4-0.3-8.6c-0.1-0.5-0.1-1.1-0.2-1.7c0.1,0,0.3,0,0.4,0c0.4,0,0.8-0.1,1.2-0.1c0.6-0.1,1-0.2,1.2-0.5
		C84.6,1.7,84.6,1.3,84.4,0.7z M74.5,0.3c-0.9-0.3-1.7,0-2.6,0.1c-0.3,0-0.7,0.1-0.9,0c-0.4-0.2-0.7-0.1-1,0.1
		c-1.3,0.7-1.3,0.8-0.3,1.7c0,1,0,2,0,3c-0.1,0.9-0.1,1.9-0.8,2.6V8c0.2,0.4,0.7,0.5,0.7,1.1c0,1.5,0.1,3,0.1,4.4
		c0,1.2,0.1,2.3,0.8,3.3c0.6-0.3,0.8-0.7,0.9-1.2c0.2-1.4,0.4-2.8,0.2-4.2c-0.1-0.9-0.1-1.7-0.2-2.7c1.1-0.2,1.8-0.3,2-1.3
		c-0.5-0.6-1.4-0.5-1.9-0.7c0-1.4,0-3,0-4.2c1.1-0.2,2-0.4,2.9-0.6c0.6-0.1,0.9-0.5,1-1.1C75.1,0.5,74.8,0.4,74.5,0.3z M65.4,0.4
		c-1,0-1,2.3-1.2,3.5S64,6.4,63.9,7.6c-0.1,1.1-0.1,2.2-0.2,3.3c-0.8-1.7-1.3-3.5-1.8-5.2c-0.1-0.3-0.2-0.5-0.3-0.7
		c-0.4-1-0.7-1.9-1.1-2.8c-0.2-0.4-0.2-1.2-0.8-1.4c-1.2-0.3-1.2,1.4-1.3,2.3c0,1.1-0.1,2-0.1,3.4c-0.2,3.3-0.4,6.6-0.4,9.8
		c0,0.4,0,0.5,0.3,0.7c0.1,0.1,0.6,0.1,0.7-0.1c0.8-3.6,0.9-5,1.4-7.8c0.3,0.3,0.4,0.6,0.5,0.9c0.8,1.9,1.5,3.8,2.3,5.6
		c0.3,0.7,0.6,1.6,1.6,1.5c1.3-0.2,1-2.3,1.1-3.6c0.1-2.1,0.2-4.2,0.3-6.3c0.1-1.8,0.1-3.6,0.2-5.4C66.4,0.9,66.3,0.4,65.4,0.4z
		 M52,0.7V0.5h-0.2c-0.1,0-0.2,0-0.4-0.1c-0.2-0.1-0.6-0.1-0.9-0.1c-1.3,0.2-2.6,0-3.9-0.2C46.3,0.1,46,0,45.7,0
		c0,0-0.8-0.1-1.1,0.2c-0.2,0.3-0.3,0.8,0,1.1c0.3,0.3,0.8,0.6,1.3,0.9c0.3,0.1,0.6,0.1,1,0.2c0.1,0,0.2,0,0.4,0.1
		c0,0.1,0,0.3,0,0.4c-0.1,0.4-0.1,0.8-0.1,1.2c0,0.4,0.1,0.8,0.2,1.1c0,0.2,0.1,0.4,0.1,0.7c0,0.1,0,0.2,0,0.3s0,0.2,0,0.3
		c0,0.7,0,1.1,0,1.4c0,0.2,0,0.4,0,0.7s0,0.5,0.1,0.8c0,0.3,0.1,0.5,0.1,0.8c0,0.4,0,0.8,0,1.2c0,0.6,0,1.2,0,1.9
		c0.1,0.8,0.2,1.8,0.4,2.9v0.2c0,0.4,0.1,1,0.6,1h0.1c0.2,0,0.3-0.1,0.4-0.2c0.5-0.4,0.5-1.6,0.5-3.3c0-0.3,0-0.6,0-0.9
		c0.1-4.2,0-5.4-0.3-8.6c-0.2-0.5-0.2-1.1-0.3-1.7c0.1,0,0.3,0,0.4,0c0.4,0,0.8-0.1,1.2-0.1c0.6-0.1,1-0.2,1.2-0.5
		C52.2,1.7,52.1,1.3,52,0.7z M42.9,13.7c-0.1-0.6-0.2-1.1-0.3-1.7c-0.2-0.8-0.3-1.6-0.3-2.4c0.1-1.2-0.5-2.1-1.6-2.7
		c-0.4-0.2-0.8-0.4-1-0.7l-0.1-0.1c-0.4-0.4-0.8-0.8-1-1.2c-0.2-0.7-0.3-1.4-0.4-2.1c0-0.2,0-0.4-0.1-0.6c0-0.1,0-0.2,0.1-0.4V1.7
		c0.9-0.2,1.5-0.1,2.2,0.1c0.1,0,0.2,0,0.3,0.1c0,0.2,0,0.5,0,0.8c0,0.7,0,1.6,0.7,2c0.1,0.1,0.4,0.1,0.5,0c0.7-0.5,0.6-1.3,0.5-1.9
		c0-0.2-0.1-0.4-0.1-0.5c-0.1-1.9-0.6-2.1-3.2-2.1c-1,0-1.9,0.4-2.4,1c-0.3,0.4-0.4,0.8-0.4,1.2V3c0.1,0.6,0.1,1.3,0.1,1.9
		c0,1.8,0.9,2.9,2.6,3.6c1.7,0.7,1.8,1.7,1.8,2.5c0,0.5,0,1,0.1,1.5c0,0.3,0.1,0.6,0.1,0.9c0,0.6,0,1.1,0,1.7c0,0.2,0,0.4,0,0.5
		c-1,0.2-1.5,0.3-1.7,0c-0.1-0.3-0.1-0.6-0.1-1.1c0-1.3,0-2.6,0-3.9V9.7c0-0.1,0.1-0.3,0-0.5S38.9,9,38.6,9l0,0
		c-0.6,0-0.7,0.5-0.8,0.8v0.1c-0.1,0.2-0.2,0.4-0.2,0.7c-0.3,0.7-0.5,1.3-0.4,2c0.2,0.8,0.3,1.6,0.3,2.4c0,0.3,0,0.6,0.1,1
		c0,0.5,0.4,0.9,0.8,1.2c0.3,0.2,0.8,0.3,1.4,0.3c0.8,0,1.7-0.2,2.3-0.5c0.5-0.2,0.7-0.5,0.7-0.8c0-0.2,0.1-0.4,0.1-0.6
		C42.9,14.9,43,14.3,42.9,13.7z M35.6,15.3H32v-0.1c0-0.1-0.1-0.2-0.1-0.3c-0.1-1.4-0.2-2.7-0.2-4.1l-0.1-1.1
		c0.1-0.1,0.3-0.1,0.4-0.1c0.3-0.1,0.5-0.2,0.8-0.3c0.6-0.2,0.9-0.6,0.9-1.4V7.8h-2.1V2.6c1.7-0.2,2.4-0.7,2.7-1.9V0.6h-0.1l0,0
		L34,0.5c-1.1,0.1-2,0-2.7-0.3C30.8,0,30.5,0,30.2,0.3c-0.4,0.3-0.7,0.8-0.7,1.3c0,0.1,0,0.3,0.1,0.4c0.1,0.6,0.2,1.2,0.2,1.8
		c0,0.5,0,0.9-0.1,1.4c0,0.2,0,0.4-0.1,0.7c0,0.1,0,0.3,0,0.4c0,0.3,0,0.5-0.1,0.8c-0.3,1.3-0.3,2.2,0,3.2c0.1,0.2,0.1,0.3,0.1,0.5
		v0.1c0,1.6,0,3.1,0.1,4.7c0,0.7,0.3,1.2,0.7,1.5c0.3,0.2,0.6,0.3,0.9,0.3s0.5-0.1,0.8-0.2c0.4-0.1,0.8-0.2,1.2-0.3h0.2
		c0.1,0,0.3,0,0.4,0c0.2,0,0.3,0,0.5,0c0.8-0.1,1.1-0.5,1-1.3L35.6,15.3z M28.1,0.7V0.5h-0.2c-0.1,0-0.2,0-0.4-0.1
		c-0.2-0.1-0.5-0.1-0.9-0.1c-1.3,0.2-2.6,0-3.9-0.2c-0.3,0-0.6-0.1-0.9-0.1c0,0-0.8-0.1-1.1,0.2c-0.2,0.3-0.3,0.8,0,1.1
		C21,1.6,21.5,1.9,22,2.2c0.3,0.1,0.6,0.2,1,0.3c0.1,0,0.2,0,0.4,0.1c0,0.1,0,0.3,0,0.4c0,0.4-0.1,0.8-0.1,1.2
		c0,0.4,0.1,0.8,0.2,1.1c0,0.2,0.1,0.4,0.1,0.7c0,0.1,0,0.2,0,0.3s0,0.2,0,0.3c0,0.7,0,1.1,0,1.4c0,0.2,0,0.4,0,0.7s0,0.5,0.1,0.8
		c0,0.3,0.1,0.5,0.1,0.8c0,0.4,0,0.8,0,1.2c0,0.6,0,1.2,0,1.9c0.1,0.8,0.2,1.8,0.4,2.9v0.2c0,0.4,0.1,1,0.6,1h0.1
		c0.2,0,0.3-0.1,0.4-0.2c0.5-0.4,0.5-1.6,0.5-3.3c0-0.3,0-0.6,0-0.9c0.1-4.2,0-5.4-0.3-8.6c-0.1-0.5-0.1-1.1-0.2-1.7
		c0.1,0,0.3,0,0.4,0c0.4,0,0.8-0.1,1.2-0.1c0.6-0.1,1-0.2,1.2-0.5C28.3,1.7,28.3,1.3,28.1,0.7z M13.7,11.1c0-0.1,0-0.3,0-0.4
		c0-0.5,0-0.9,0-1.3c0.1-1.3,0.2-2.6,0.3-4l0.1-1.8c0-0.4,0.4-0.7,0.6-0.8c0.4-0.1,0.8-0.2,1.3-0.2l0.2,0.2c0.1,0.3,0.2,0.7,0.2,1.1
		c0,1.4,0.1,2.9,0.1,4.3v2c0,0.2,0,0.3,0,0.5v0.1C15.7,11.1,14.8,11.2,13.7,11.1z M18.6,14.3c0-0.4,0-0.9,0-1.3c0-0.8,0-1.7,0-2.5
		V9.2c0-2,0-4.1-0.1-6.1c-0.1-0.8-0.4-1.2-0.9-1.6c-0.2-0.1-0.3-0.2-0.5-0.3L17,1.1c-0.9-0.6-1.8-0.6-2.6-0.1s-1.7,1.2-1.8,2.6
		c0,0.1,0,0.2-0.1,0.3l-0.1,0.2c-0.2,0.2-0.2,0.5-0.3,0.8c-0.2,0.8-0.4,1.6-0.4,2.4c0,1-0.1,2-0.1,3.1c0,0.5,0,1.1-0.1,1.6
		c0,0.1,0,0.2,0,0.3v0.1l0.1,1c0,0.7,0.1,1.4,0.2,2.2c0,0.4,0.1,0.5,0.1,0.7c0,0.1,0.1,0.2,0.1,0.4c0.1,0.3,0.4,0.6,0.6,0.6l0,0
		c0.2,0,0.4-0.2,0.6-0.4c0.1-0.2,0.2-0.4,0.2-0.5c0-0.2,0-0.3,0-0.4s0-0.2,0-0.5v-2.2c0.1,0,0.3,0,0.4,0c0.5,0,0.9,0,1.3-0.1
		c0.4-0.1,0.8-0.2,1.2-0.4c0.1,0,0.2-0.1,0.3-0.1v0.1c0,0.2,0.1,0.4,0.1,0.7c0,0.4,0,0.7,0.1,1.1c0,0.4,0,0.9,0.1,1.3V16
		c0,0.4,0.1,0.9,0.4,1.2c0.1,0.1,0.3,0.2,0.5,0.1c0.6-0.1,0.7-0.9,0.7-1.3C18.6,15.3,18.6,14.8,18.6,14.3z M6.7,14.5
		c-0.5-0.5-0.3-1.4-0.4-2.2c-0.1-0.6-0.1-0.9,0-1.4c0-1.1-0.1-2.1-0.1-3.2c0-2-0.1-4.1-0.1-6.1C6.1,1.4,6,1.2,6,1.1
		C5.8,0.7,5.5,0.4,5,0.5C4.4,0.6,4.4,1,4.4,1.5c0,2.7,0.2,5.3,0.1,8c-0.1,2,0.1,3.9,0.1,5.9c0,0.6,0.2,1.2,0.8,1.5
		c1.2,0.5,2.2,0,3.3-0.4c0.8-0.3,0.6-1.1,1-1.8C8.5,14.6,7.4,15.3,6.7,14.5z"/>
</g>
</svg>
