<?xml version="1.0" encoding="utf-8"?>
<!-- Generator: Adobe Illustrator 25.2.1, SVG Export Plug-In . SVG Version: 6.00 Build 0)  -->
<svg version="1.1" id="Layer_1" xmlns="http://www.w3.org/2000/svg" xmlns:xlink="http://www.w3.org/1999/xlink" x="0px" y="0px"
	 viewBox="0 0 115.2 27.7" style="enable-background:new 0 0 115.2 27.7;" xml:space="preserve">
<style type="text/css">
	.st0{display:none;}
	.st1{display:inline;}
	.st2{fill:#D51F26;}
	.st3{fill:#FFFFFF;}
</style>
<g id="Layer_2_1_" class="st0">
	<rect x="-141.6" y="-9.1" class="st1" width="306.4" height="46.2"/>
</g>
<g id="Layer_1_1_">
	<path class="st2" d="M0,25.2c0,0,15.2,0.3,17.7,0.3s2.6,1.9,4.2,1.9c1.6,0,2.9,0,2.9,0s0.6,0.8,1.2-0.3c0.6-1.2,0.6-1.4,0.6-1.4
		s4.2,0,5.7-0.2c1.5-0.2,5.1-0.5,6.1-0.2c0.9,0.3,10.2,0.5,11.5,0.2c1.3-0.5,9.9-0.5,10.7-1c0.7-0.5,1.1-1,1.1-1s54.2,0.7,53.4,0
		c-0.7-0.7-14-2.2-22.8-2.5s-30.3,0.3-31.6,0c-1.3-0.3-5.3-0.5-8.6,0.8s-12.2-2-17-0.7c-3.7,1-4.7-0.3-10.4,0.3
		c-5.7,0.5-9.7,0.8-9.7,0.8s-2.3,0.2-3.5,0s-2,0-2,0s0.9,1.2-0.9,1.4c-1.7,0.2-2.5-0.8-4.2-0.5C2.7,23.7,0,25.2,0,25.2z"/>
</g>
<g>
	<path class="st3" d="M112.1,14c-0.1-0.6-0.2-1.1-0.3-1.7c-0.2-0.8-0.3-1.6-0.3-2.4c0.1-1.2-0.5-2.1-1.6-2.7c-0.4-0.2-0.8-0.4-1-0.7
		l-0.2-0.1c-0.4-0.4-0.8-0.8-0.9-1.3c-0.2-0.7-0.3-1.4-0.4-2.1c0-0.2,0-0.4-0.1-0.6c0-0.1,0-0.2,0.1-0.4V1.9
		c0.9-0.2,1.5-0.1,2.2,0.1c0.1,0,0.2,0,0.3,0.1c0,0.2,0,0.5,0,0.8c0,0.7,0,1.6,0.7,2c0.1,0.1,0.4,0.1,0.5,0c0.7-0.5,0.6-1.3,0.5-1.9
		c0-0.2-0.1-0.4-0.1-0.5c-0.1-1.9-0.6-2.1-3.2-2.1c-1,0-1.9,0.4-2.4,1c-0.3,0.4-0.4,0.8-0.4,1.2v0.6c0.1,0.6,0.1,1.3,0.1,1.9
		c0,1.8,0.9,2.9,2.6,3.6c1.7,0.7,1.8,1.7,1.8,2.5c0,0.5,0,1,0.1,1.5c0,0.3,0.1,0.6,0.1,0.9c0,0.6,0,1.1,0,1.7c0,0.2,0,0.4,0,0.5
		c-1,0.2-1.5,0.3-1.7,0c-0.2-0.1-0.2-0.4-0.2-0.9c0-1.3,0-2.6,0-3.9v-0.9c0-0.1,0.1-0.3,0-0.5s-0.3-0.2-0.6-0.2l0,0
		c-0.6,0-0.7,0.5-0.8,0.8v0.1c-0.1,0.2-0.2,0.4-0.2,0.7c-0.3,0.7-0.5,1.3-0.4,2c0.2,0.8,0.3,1.6,0.3,2.4c0,0.3,0,0.6,0.1,1
		c0,0.5,0.4,0.9,0.8,1.2c0.3,0.2,0.8,0.3,1.4,0.3c0.8,0,1.7-0.2,2.3-0.5c0.5-0.2,0.7-0.5,0.7-0.8c0-0.2,0.1-0.4,0.1-0.6
		C112,15.2,112.1,14.6,112.1,14z M104.9,1V0.8h-0.2c-0.1,0-0.2,0-0.4-0.1c-0.2-0.1-0.6-0.1-0.9-0.1c-1.3,0.2-2.6,0-3.9-0.2
		c-0.3,0-0.6-0.1-0.9-0.1c0,0-0.8-0.1-1.1,0.2c-0.2,0.3-0.3,0.8,0,1.1c0.3,0.3,0.8,0.6,1.3,0.9c0.3,0.1,0.6,0.2,1,0.3
		c0.1,0,0.2,0,0.4,0.1c0,0.1,0,0.3,0,0.4c0,0.4-0.1,0.8-0.1,1.2c0,0.4,0.1,0.8,0.2,1.1c0,0.2,0.1,0.4,0.1,0.7c0,0.1,0,0.2,0,0.3
		s0,0.2,0,0.3c0,0.7,0,1.1,0,1.4c0,0.2,0,0.4,0,0.7s0,0.5,0.1,0.8c0,0.3,0.1,0.5,0.1,0.8c0,0.4,0,0.8,0,1.2c0,0.6,0,1.2,0,1.9
		c0.1,0.8,0.2,1.8,0.4,2.9v0.2c0,0.4,0.1,1,0.6,1h0.1c0.2,0,0.3-0.1,0.4-0.2c0.5-0.4,0.5-1.6,0.5-3.3c0-0.3,0-0.6,0-0.9
		c0.2-4.2,0-5.4-0.3-8.6c-0.1-0.5-0.1-1.1-0.2-1.7c0.1,0,0.3,0,0.4,0c0.4,0,0.8-0.1,1.2-0.1c0.6-0.1,1-0.2,1.2-0.5
		C105.1,2,105.1,1.6,104.9,1z M95,0.6c-0.9-0.3-1.7,0-2.6,0.1c-0.3,0-0.7,0.1-0.9,0c-0.4-0.2-0.7-0.1-1,0.1
		c-1.3,0.7-1.3,0.8-0.3,1.7c0,1,0,2,0,3c-0.1,0.9-0.1,1.9-0.8,2.6v0.2c0.2,0.4,0.7,0.5,0.7,1.1c0,1.5,0.1,3,0.1,4.4
		c0,1.2,0.1,2.3,0.8,3.3c0.6-0.3,0.8-0.7,0.9-1.2c0.2-1.4,0.4-2.8,0.2-4.2C92,10.8,92,10,91.9,9c1.1-0.2,1.8-0.3,2-1.3
		C93.4,7.1,92.5,7.2,92,7c0-1.4,0-3,0-4.2c1.1-0.2,2-0.4,2.9-0.6c0.6-0.1,0.9-0.5,1-1.1C95.6,0.8,95.3,0.7,95,0.6z M85.9,0.7
		c-1,0-1,2.3-1.2,3.5s-0.2,2.5-0.3,3.7c-0.1,1.1-0.1,2.2-0.2,3.3c-0.8-1.7-1.3-3.5-1.8-5.2c-0.1-0.3-0.2-0.5-0.3-0.7
		c-0.4-1-0.7-1.9-1.1-2.8c-0.2-0.4-0.2-1.2-0.8-1.4C79,0.8,79,2.5,78.9,3.4c0,1.1-0.1,2-0.1,3.4c-0.2,3.3-0.4,6.6-0.4,9.8
		c0,0.4,0,0.5,0.3,0.7c0.1,0.1,0.6,0.1,0.7-0.1c0.8-3.6,0.9-5,1.4-7.8c0.3,0.3,0.4,0.6,0.5,0.9c0.8,1.9,1.5,3.8,2.3,5.6
		c0.3,0.7,0.6,1.6,1.6,1.5c1.3-0.2,1-2.3,1.1-3.6c0.1-2.1,0.2-4.2,0.3-6.3c0.1-1.8,0.1-3.6,0.2-5.4C86.9,1.2,86.8,0.7,85.9,0.7z
		 M71.2,10.2c0.1-0.2,0-0.5-0.1-0.8c0-0.4-0.2-0.6-0.6-0.6c-0.8-0.1-2,0.5-2.5,1.4c0.5,0.1,1,0.2,1.4,0.4c-0.2,1.6-0.3,3.2-0.5,4.9
		c-0.3,0.1-0.6,0.2-1,0.3c-0.4,0.1-0.8-0.1-0.8-0.5C67,14.8,67,14.2,67,13.7c0-0.2,0-0.5-0.1-0.7c-0.1-0.5-0.1-1,0-1.5
		c0.1-0.4,0.1-0.8,0.1-1.2S66.9,9.4,67,9c0.2-1.6,0-3.2,0.1-4.8c0-0.3-0.1-0.6,0-0.9c0.1-0.7,0.5-1,1.2-1.1c0.4,0,1.6,0.1,2,0
		s0.6-0.3,0.4-0.7c-0.1-0.2-0.3-0.4-0.5-0.4c-0.8-0.1-2.3-0.3-3.1-0.2c-0.3,0-0.7,0.3-0.9,0.6c-0.3,0.7-0.6,1.5-0.7,2.3
		c-0.2,1.4-0.2,2.8-0.3,4.2c0,0.6-0.1,1.1-0.1,1.7c-0.1,1.4-0.2,2.4-0.1,4.2c0.1,0.8,0,1.7,0.3,2.4c0.3,0.6,0.7,1,1.4,1
		c1.3,0.1,2.5-0.3,3.6-1.1c0.5-0.4,0.7-0.8,0.7-1.5C71.2,13.1,70.9,11.7,71.2,10.2z M61.8,0.7c-1,0-1,2.3-1.2,3.5s-0.2,2.5-0.3,3.7
		c-0.1,1.1-0.1,2.2-0.2,3.3c-0.8-1.7-1.3-3.5-1.8-5.2c-0.1-0.3-0.2-0.5-0.3-0.7c-0.4-1-0.7-1.9-1.1-2.8c-0.2-0.4-0.2-1.2-0.8-1.4
		c-1.2-0.3-1.2,1.4-1.3,2.3c0,1.1-0.1,2-0.1,3.4c-0.2,3.3-0.4,6.6-0.4,9.8c0,0.4,0,0.5,0.3,0.7c0.1,0.1,0.6,0.1,0.7-0.1
		c0.8-3.6,0.9-5,1.4-7.8c0.3,0.3,0.4,0.6,0.5,0.9c0.8,1.9,1.5,3.8,2.3,5.6c0.3,0.7,0.6,1.6,1.6,1.5c1.3-0.2,1-2.3,1.1-3.6
		c0.1-2.1,0.2-4.2,0.3-6.3c0.1-1.8,0.1-3.6,0.2-5.4C62.8,1.2,62.7,0.7,61.8,0.7z M51.7,0.1c-1.2-0.2-1.6,0.1-1.7,1.2
		c-0.1,2.3-0.2,4.5-0.3,6.8c0,0.6,0,1.3,0,1.9c0,1.2,0,2.3,0,3.5c0,0.8-0.1,1.5-0.1,2.3c0,1,0.1,1.5,1.1,1.5c0.9,0,0.8-3.1,0.9-4.7
		c0.1-1.9,0-3.9,0-5.8c0-0.5,0.1-1.1,0.1-1.6C52.1,3.5,52,1.8,51.7,0.1z M47.7,2c0.1-0.9-0.1-1.5-1.1-1.7c-0.9-0.2-1.4,0.3-1.7,1.1
		c-0.2,0.4-0.3,0.8-0.4,1.2C44.2,3.8,43.2,8,42.8,8c-0.6,0-0.7-1.1-0.8-1.6c-0.5-1.6-0.9-3.2-1.5-4.8C40,0.2,39.6,0.1,38,0.5
		c-0.1,0.9-0.3,1.8-0.2,2.7c0.2,3.9,0.3,7.8-0.4,11.7c-0.2,1.1-0.1,2.3,1.2,2.2c0.4-0.1,0.7-0.6,0.7-0.9c0.4-3.6,0.6-6.4,1-10.4
		c0.7,2.4,1.8,4.3,2.4,6.5c1.3-1.8,1.4-3.1,2.6-4.5c0.1,2,0.3,3.9,0.3,5.8c0,1.8-0.6,3.7,1.2,3.4c0.6-0.1,0.8-1.3,0.8-1.5
		c0.1-2,0-1,0-3.1c0-0.5-0.1-1-0.1-1.5c0-2,0-3.9,0.1-5.9C47.6,4.1,47.6,3,47.7,2z M34.2,14.8c-0.1,0.6-0.8,0.9-1.3,0.6
		s-0.6-0.7-0.7-1.5c-0.1-2.6-0.2-5.2-0.3-7.8c-0.1-1.1-0.5-2.6-0.1-3c0.4-0.4,0.8-0.4,1.2-0.4c0.4,0,0.7,0.3,0.7,0.7
		c0.2,3.5,0.4,7,0.6,10.5C34.3,14.2,34.3,14.5,34.2,14.8z M36.2,14.3c0-1.5-0.1-3-0.2-4.5c-0.2-2.8,0.4-6.3-0.7-8.4
		c-0.5-0.9-2-0.6-3.1-0.7c-1.4-0.1-1.9,0.4-2,1.7c-0.1,1,0,2.1,0,3.1c0,1.5,0,3,0,4.5c0,1.4-0.2,2.8-0.1,4.1c0.1,1.2,0.8,2.3,1.9,3
		c1.8,1.1,3.4,0.6,4.1-1.3C36.3,15.3,36.2,14.8,36.2,14.3z M28.3,15.7c-0.3-1-0.4-1.9-0.4-2.9v-0.2c0-0.4-0.1-0.9-0.7-1.1h-0.1
		L27,11.6c-1.2,1.4-0.9,3-0.7,4.3c-0.5,0.1-0.9,0.1-1.1-0.1c-0.1-0.1-0.2-0.2-0.2-0.4c-0.1-0.5-0.2-1-0.4-1.5
		c-0.2-0.7-0.4-1.5-0.4-2.3c0-0.6,0-1.1,0-1.7c0-0.3,0-0.6,0-0.9c0-0.5,0-1,0-1.5c0-0.6,0-1.2-0.1-1.9c0-0.2,0-0.5-0.1-0.7
		c0-0.4-0.1-0.8,0-1.1c0-0.4,0.2-0.8,0.4-1.1l0.3-0.2c0.1-0.3,0.4-0.3,0.7-0.2c0.5,2.8,0.5,2.9,1.3,3.3h0.1V5.5l0.1-0.3
		C27,5,27,4.8,27.1,4.6c0-0.3,0-0.6,0-0.9s0-0.6,0-0.9c0.1-0.9,0.1-1.5-0.2-1.9c-0.3-0.3-1-0.4-2.2-0.3c-0.3,0-0.6,0.1-0.9,0.2
		l-0.3,0.1c-0.1,0-0.2,0.2-0.3,0.3c-0.6,0.8-1,1.6-1,2.5c0,0.6,0,1.3,0,1.9c0,0.2,0,0.4,0,0.5c0,1,0.1,1.9,0.1,2.9c0,0.7,0,1.3,0,2
		c0,0.8,0.1,1.6,0.2,2.4c0.1,0.7,0.3,1.3,0.4,2v0.1c0.3,1.1,0.9,1.8,1.8,2.1c0.3,0.1,0.7,0.2,1,0.2c0.6,0,1.1-0.2,1.6-0.3
		C28.2,16.9,28.6,16.4,28.3,15.7z M16.2,6.7C16.1,5.2,16,3.8,15.8,2c0.4-0.1,0.9-0.3,1.4-0.5C18.2,2.9,17.8,5.3,16.2,6.7z M19.8,1.7
		c-0.5-1.3-1.6-1.7-3.1-1.5c-0.8,0.1-1.6,0.3-2.6,0.5c0,1.8,0,3.7,0,5.5c0,1.7,0.1,3.4,0.1,5.1c0,1.6-0.1,3.1-0.1,4.7
		c0,0.5-0.1,1.2,0.3,1.6c0.1,0.1,0.6,0.1,1,0.1c0.8,0,1.2-0.2,1.2-1c0-0.6-0.1-1.3-0.1-1.9c0-1.8,0-3.6,0-5.4c0.3-0.2,0.8-0.2,1-0.5
		c1.3-1.3,2.3-2.8,2.5-4.7C20,3.3,20,2.4,19.8,1.7z M11.5,3.4c0-0.5-0.1-0.9,0-1.4c0-0.6,0-1.1-0.3-1.4c-0.2-0.2-0.4-0.2-0.8-0.2
		c-0.2,0-0.3,0.1-0.4,0.2C9.4,1.4,9.6,3.7,9.7,4.4c0,0.3,0,0.8,0,1.3c0,0.2,0,0.4,0,0.5c0.1,3.1,0.2,5.9,0.2,8.5
		c0,0.2-0.1,0.4-0.2,0.7l-0.1,0.2c-0.1,0-0.2-0.1-0.3-0.1c-0.3-0.1-0.6-0.2-0.9-0.3C8.2,15.1,8,14.8,8,14.6s-0.1-0.4-0.2-0.7
		c-0.2-0.7-0.4-1.5-0.4-2.2C7.4,7.9,7,4.6,6.3,1.4C6.1,0.8,5.8,0.3,5.4,0.2c-0.2,0-0.6,0-1,0.5C4.1,1.1,4.3,1.6,4.4,2
		c0,0.1,0.1,0.2,0.1,0.3C4.8,3.7,5,5.1,5,6.8c0,0.4,0,0.9,0.1,1.3c0.1,0.7,0.1,1.4,0.1,2.1c-0.1,1.3,0,2.5,0.4,3.6
		C6,15.3,7,16.3,8.4,17c0.4,0.2,0.8,0.3,1.2,0.3c0.2,0,0.5,0,0.7-0.1c0.4-0.2,0.8-0.6,0.9-1.1c0.1-0.3,0.1-0.7,0.1-1v-0.3
		c0-0.7,0-1.3,0-2c0-0.6,0-1.1,0-1.7c0-0.8,0-1.6,0-2.4c0-1.4,0.1-2.9,0.1-4.4C11.5,4.2,11.5,3.8,11.5,3.4z"/>
</g>
</svg>
