<?xml version="1.0" encoding="utf-8"?>
<!-- Generator: Adobe Illustrator 25.2.1, SVG Export Plug-In . SVG Version: 6.00 Build 0)  -->
<svg version="1.1" id="Layer_1" xmlns="http://www.w3.org/2000/svg" xmlns:xlink="http://www.w3.org/1999/xlink" x="0px" y="0px"
	 viewBox="0 0 104.5 29.1" style="enable-background:new 0 0 104.5 29.1;" xml:space="preserve">
<style type="text/css">
	.st0{display:none;}
	.st1{display:inline;}
	.st2{fill:#D51F26;}
	.st3{fill:#FFFFFF;}
</style>
<g id="Layer_2_1_" class="st0">
	<rect x="-158.8" y="-7.7" class="st1" width="306.4" height="46.2"/>
</g>
<g id="Layer_1_1_">
	<path class="st2" d="M0,27.3c0,0,13.8,0.3,16.1,0.3s2.4,1.3,3.7,1.3c1.4,0,2.6,0,2.6,0s0.6,0.6,1.1-0.3c0.6-0.9,0.6-1,0.6-1
		s3.9,0,5.2-0.1c1.3-0.1,4.6-0.4,5.5-0.1c0.9,0.3,9.3,0.4,10.5,0.1c1.2-0.4,9-0.4,9.7-0.7c0.7-0.4,1-0.7,1-0.7s49.1,0.5,48.5,0
		c-0.7-0.5-12.8-1.6-20.7-1.9c-7.9-0.3-27.4,0.3-28.7,0c-1.2-0.3-4.8-0.4-7.8,0.6c-3,1-11-1.5-15.4-0.5c-3.4,0.7-4.3-0.3-9.5,0.3
		c-5.2,0.4-8.8,0.6-8.8,0.6s-2.1,0.1-3.2,0s-1.8,0-1.8,0s0.9,0.9-0.8,1c-1.5,0.1-2.3-0.6-3.7-0.4C2.4,26.3,0,27.3,0,27.3z"/>
</g>
<g>
	<path class="st3" d="M102.7,2.4c-0.8,0-0.8,1.8-0.9,2.7c-0.1,1-0.2,1.9-0.2,2.9c-0.1,0.9-0.1,1.7-0.1,2.6c-0.6-1.4-1-2.7-1.4-4.1
		C100,6.4,99.9,6.2,99.8,6c-0.3-0.7-0.6-1.5-0.9-2.2c-0.2-0.4-0.2-1-0.6-1.1c-0.9-0.2-1,1.1-1,1.8c0,0.9,0,1.6-0.1,2.6
		c-0.1,2.6-0.3,5.2-0.3,7.8c0,0.3,0,0.4,0.3,0.6c0.1,0.1,0.5,0,0.5-0.1c0.7-2.8,0.7-4,1.1-6.1c0.2,0.2,0.3,0.5,0.4,0.7
		c0.6,1.5,1.2,3,1.8,4.5c0.2,0.5,0.5,1.3,1.2,1.1c1-0.2,0.8-1.8,0.9-2.8c0.1-1.6,0.1-3.3,0.2-4.9c0.1-1.4,0.1-2.9,0.1-4.3
		C103.5,2.8,103.5,2.4,102.7,2.4z M94.3,13.5c-0.1,0.5-0.6,0.7-1,0.5c-0.4-0.2-0.5-0.5-0.5-1.2c-0.1-2-0.2-4.1-0.3-6.1
		c0-0.9-0.4-2,0-2.3C92.7,4.1,93,4,93.4,4c0.3,0,0.5,0.2,0.5,0.5c0.2,2.8,0.3,5.5,0.4,8.3C94.4,13.1,94.3,13.3,94.3,13.5z
		 M95.8,13.1c0-1.2-0.1-2.4-0.2-3.5c-0.2-2.2,0.3-5-0.6-6.6c-0.4-0.7-1.6-0.4-2.5-0.5c-1.1-0.1-1.5,0.3-1.6,1.4
		c-0.1,0.8,0,1.6,0,2.4c0,1.2,0,2.4,0,3.5c0,1.1-0.2,2.2-0.1,3.2c0.1,1,0.6,1.8,1.5,2.3c1.4,0.9,2.7,0.5,3.2-1.1
		C95.9,14,95.9,13.5,95.8,13.1z M89.6,3.4c0.1-0.7-0.1-1.2-0.8-1.3C88,2,87.6,2.4,87.4,3c-0.1,0.3-0.2,0.7-0.3,1
		c-0.3,0.9-1.1,4.3-1.4,4.3c-0.5,0-0.5-0.9-0.6-1.3c-0.4-1.3-0.7-2.5-1.2-3.8c-0.4-1.1-0.7-1.2-1.9-0.9c-0.1,0.7-0.2,1.4-0.2,2.1
		c0.2,3.1,0.2,6.2-0.3,9.2c-0.2,0.8-0.1,1.8,0.9,1.7c0.3,0,0.5-0.5,0.5-0.7c0.3-2.8,0.5-5,0.8-8.2c0.6,1.9,1.4,3.4,1.9,5.1
		c1-1.4,1.1-2.4,2.1-3.5c0.1,1.6,0.2,3.1,0.3,4.6c0,1.4-0.5,2.9,0.9,2.7c0.4-0.1,0.6-1,0.6-1.2c0.1-1.6,0-0.8,0-2.4
		c0-0.4-0.1-0.8-0.1-1.2c0-1.6,0-3.1,0.1-4.7C89.5,5.1,89.5,4.3,89.6,3.4z M80.5,14.2h-2.9l0-0.1c0-0.1,0-0.2,0-0.2
		c-0.1-1.1-0.1-2.2-0.2-3.2l0-0.9c0.1,0,0.2-0.1,0.3-0.1c0.2-0.1,0.4-0.2,0.6-0.2C78.8,9.2,79,8.9,79,8.3l0-0.1h-1.7v-4
		c1.3-0.1,1.9-0.6,2.1-1.5l0-0.1l-0.1,0l0,0l-0.1,0c-0.9,0.1-1.5,0-2.1-0.3c-0.2-0.1-0.5,0-0.7,0.1c-0.3,0.2-0.6,0.6-0.5,1
		c0,0.1,0,0.2,0.1,0.3C75.9,4.2,76,4.6,76,5.1c0,0.4,0,0.7-0.1,1.1c0,0.2,0,0.3-0.1,0.5c0,0.1,0,0.2,0,0.3c0,0.2,0,0.4-0.1,0.6
		c-0.2,1-0.2,1.8,0,2.5c0,0.1,0,0.3,0,0.4l0,0.1c0,1.2,0,2.4,0.1,3.7c0,0.5,0.2,0.9,0.6,1.2c0.2,0.1,0.4,0.2,0.7,0.2
		c0.2,0,0.4,0,0.7-0.1c0.3-0.1,0.6-0.2,1-0.2l0.2,0c0.1,0,0.2,0,0.4,0c0.1,0,0.3,0,0.4,0C80.3,15.2,80.6,14.9,80.5,14.2L80.5,14.2z
		 M71.9,12c-0.1,0.7-0.2,1.4-0.4,2.2c-0.6,0-1.2,0-1.9,0c0.2-1.2,0.6-2.2,0.7-3.3c0.1-1.5,0.2-3,0.2-4.5c0-0.9,0-1.7,0-2.6
		C71.8,4,71.9,4.1,72,5c0.1,1.4,0,2.9,0,4.3c0,0.2,0.1,0.4,0,0.5C72,10.6,72,11.3,71.9,12z M73.7,4.1c-0.6-1.4-1.6-2-3.1-1.8
		c-0.3,0-0.6,0.1-0.9,0.2c-0.7,0-1.1,0.3-1.4,1c0.4,0.2,0.8,0.4,1.3,0.6c-0.1,1.6-0.2,3.3-0.3,4.9c0,1.7,0,3.4,0,5.1
		c-0.5,0.1-1.1,0.2-1,0.8c0.1,0.5,0.6,0.7,1.1,0.7c0.3,0,0.7,0.1,1,0c2-0.3,2-0.6,2.4-1.9c0.6-1.9,0.8-3.8,1.1-5.7
		C74,6.7,74.3,5.4,73.7,4.1z M63.4,14.2h-2.9l0-0.1c0-0.1,0-0.2,0-0.2c-0.1-1.1-0.1-2.2-0.2-3.2l0-0.9c0.1,0,0.2-0.1,0.3-0.1
		c0.2-0.1,0.4-0.2,0.6-0.2c0.5-0.2,0.7-0.5,0.7-1.1l0-0.1h-1.7v-4c1.3-0.1,1.9-0.6,2.1-1.5l0-0.1l-0.1,0l0,0l-0.1,0
		c-0.9,0.1-1.5,0-2.1-0.3c-0.2-0.1-0.5,0-0.7,0.1c-0.3,0.2-0.6,0.6-0.5,1c0,0.1,0,0.2,0.1,0.3c0.1,0.5,0.2,0.9,0.2,1.4
		c0,0.4,0,0.7-0.1,1.1c0,0.2,0,0.3-0.1,0.5c0,0.1,0,0.2,0,0.3c0,0.2,0,0.4-0.1,0.6c-0.2,1-0.2,1.8,0,2.5c0,0.1,0,0.3,0,0.4l0,0.1
		c0,1.2,0,2.4,0.1,3.7c0,0.5,0.2,0.9,0.6,1.2c0.2,0.1,0.4,0.2,0.7,0.2c0.2,0,0.4,0,0.7-0.1c0.3-0.1,0.6-0.2,1-0.2l0.2,0
		c0.1,0,0.2,0,0.4,0c0.1,0,0.3,0,0.4,0C63.2,15.2,63.5,14.9,63.4,14.2L63.4,14.2z M56.6,8c0.1-0.4,0-0.5-0.2-0.8
		c-0.1-0.1,0-0.3,0-0.5c0-0.4,0-0.8,0-1.2c0-0.9,0-1.8,0.1-2.7c0-0.5-0.1-0.8-0.5-0.9c-0.4-0.1-0.7,0.1-0.8,0.6C55,3,55,3.5,55,4
		c-0.1,1.3-0.2,2.6-0.2,3.9c-0.6,0.1-1.2,0.3-1.8,0.4c0-0.5,0-0.9,0-1.3c0-1.1,0-2.2,0-3.3c0-0.5,0.1-1.3-0.6-1.3
		c-0.8,0-0.5,2-0.6,3c0,0.7,0.1,1.5,0.1,2.2c0,0.5,0,1-0.3,1.5c-0.1,0.1-0.1,0.4-0.1,0.6c0.3,1.3,0.4,3.2,0.2,4.5
		c-0.1,0.4-0.2,1,0.3,1.2c0.4,0.1,0.6-0.4,0.6-0.7c0.1-0.5,0.1-1.5,0.1-2c0-0.8,0.1-1.6,0.1-2.4c0.6-0.1,1.2-0.2,1.9-0.4
		c0.1,0.6,0.1,1.1,0.2,1.6c0.1,1.2,0.4,2.5,0.4,3.7c0,0.2,0.3,0.4,0.8,0.3c0.6-0.2,0.2-3.1,0.1-4.9c0-0.6,0.1-1.2,0.2-1.7
		C56.5,8.5,56.5,8.2,56.6,8z M50.6,2.6l0-0.1l-0.1,0c-0.1,0-0.2,0-0.3-0.1c-0.2-0.1-0.5-0.1-0.7-0.1c-1,0.2-2,0-3.1-0.2
		c-0.2,0-0.5-0.1-0.7-0.1c0,0-0.6-0.1-0.8,0.2c-0.2,0.2-0.2,0.6,0,0.9c0.2,0.3,0.6,0.5,1,0.7C46,3.9,46.3,4,46.6,4
		c0.1,0,0.2,0,0.3,0.1c0,0.1,0,0.2,0,0.3c0,0.3-0.1,0.6-0.1,1c0,0.3,0.1,0.6,0.1,0.9c0,0.2,0.1,0.3,0.1,0.5L47,7l0,0.3
		c0,0.6,0,0.8,0,1.1c0,0.2,0,0.3,0,0.6c0,0.2,0,0.4,0.1,0.6c0,0.2,0,0.4,0.1,0.6c0,0.3,0,0.7,0,1c0,0.5,0,1,0,1.5
		c0,0.7,0.1,1.4,0.3,2.3l0,0.2c0,0.3,0.1,0.8,0.5,0.8l0,0c0.1,0,0.2,0,0.3-0.1c0.4-0.3,0.4-1.3,0.4-2.6c0-0.3,0-0.5,0-0.7
		c0.1-3.3,0-4.2-0.2-6.8c0-0.4-0.1-0.8-0.1-1.3c0.1,0,0.2,0,0.3,0c0.4,0,0.7,0,1-0.1c0.5-0.1,0.8-0.2,1-0.4
		C50.7,3.5,50.7,3.2,50.6,2.6z M38.7,12.4c-0.7-1-0.7-1.7-0.9-2.9c-0.3-1.3-0.1-2.6,0.6-3.7c0.2-0.3,0.4-0.7,0.5-1
		c0.3-0.5,0.5-1,0.7-1.5c0.1-0.2,0.1-0.4,0.1-0.6c0-0.4-0.4-0.6-0.7-0.3c-0.3,0.2-0.5,0.5-0.8,0.8c-0.9,1.1-1.4,2.4-2,3.7
		c-0.5,1.3-1.1,2.5-1.7,3.7c-0.1,0.3-0.4,0.6-0.6,0.9c-0.1-1.3,0-2.6,0.1-3.8c0.1-1.3,0.1-2.7,0.1-4c0-0.4-0.2-0.9-0.6-1.1
		c-0.5,0.2-0.6,0.4-0.6,0.9c-0.1,2-0.2,4-0.3,6c-0.1,1.5-0.3,3-0.4,4.6c-0.1,1,0.7,2.2,1.3,1.4c1-1.5,1.9-2.9,2.9-4.4
		c0.3,1.6,3.3,4.4,3.7,4.4C40.8,15.4,39.2,13.1,38.7,12.4z M30.6,14.3c-0.3-0.8-0.3-1.5-0.3-2.3l0-0.2c0-0.3-0.1-0.7-0.5-0.9l-0.1,0
		l0,0.1c-0.9,1.1-0.7,2.4-0.6,3.4c-0.4,0.1-0.7,0.1-0.8,0c-0.1-0.1-0.1-0.2-0.2-0.3c-0.1-0.4-0.2-0.8-0.3-1.2
		c-0.2-0.6-0.3-1.2-0.3-1.8c0-0.4,0-0.9,0-1.3c0-0.2,0-0.5,0-0.7c0-0.4,0-0.8,0-1.2c0-0.5,0-1,0-1.5c0-0.2,0-0.4,0-0.5
		c0-0.3-0.1-0.6,0-0.9c0-0.3,0.2-0.6,0.4-0.9l0.1-0.2c0.1-0.2,0.3-0.2,0.5-0.2c0.4,2.2,0.4,2.3,1,2.6l0.1,0.1l0-0.1L29.5,6
		c0.1-0.1,0.1-0.3,0.1-0.4c0-0.2,0-0.5,0-0.7c0-0.2,0-0.5,0-0.7c0.1-0.7,0.1-1.2-0.2-1.5c-0.3-0.3-0.8-0.3-1.7-0.3
		c-0.2,0-0.5,0.1-0.7,0.2l-0.2,0.1c-0.1,0-0.2,0.1-0.3,0.2c-0.5,0.6-0.8,1.2-0.8,1.9c0,0.5,0,1,0,1.5c0,0.1,0,0.3,0,0.4
		c0,0.8,0.1,1.5,0.1,2.3c0,0.5,0,1,0,1.6c0,0.6,0,1.2,0.1,1.9c0.1,0.5,0.2,1.1,0.3,1.6l0,0.1c0.2,0.8,0.7,1.4,1.4,1.7
		c0.3,0.1,0.5,0.1,0.8,0.1c0.5,0,0.9-0.1,1.3-0.3C30.5,15.2,30.8,14.8,30.6,14.3z M19.9,10.9c0-0.1,0-0.2,0-0.3c0-0.4,0-0.7,0-1.1
		c0.1-1,0.2-2.1,0.2-3.1L20.3,5c0-0.4,0.3-0.5,0.5-0.6c0.3-0.1,0.7-0.1,1-0.2l0.1,0.1c0.1,0.3,0.2,0.6,0.2,0.8
		c0,1.1,0.1,2.3,0.1,3.4l0,1.6c0,0.1,0,0.3,0,0.4l0,0.1C21.5,10.9,20.8,10.9,19.9,10.9z M23.8,13.4c0-0.4,0-0.7,0-1.1
		c0-0.7,0-1.3,0-2l0-1c0-1.6,0-3.2-0.1-4.8c-0.1-0.6-0.3-0.9-0.7-1.3c-0.1-0.1-0.3-0.2-0.4-0.3l-0.1-0.1c-0.7-0.4-1.4-0.5-2.1-0.1
		c-0.6,0.4-1.4,1-1.4,2l0,0.2l-0.1,0.2c0,0.2-0.1,0.5-0.2,0.7c-0.1,0.6-0.3,1.3-0.3,1.9c0,0.8,0,1.6-0.1,2.4c0,0.4,0,0.9,0,1.3
		l0,0.2l0,0.1l0.1,0.8c0,0.6,0.1,1.1,0.1,1.7c0,0.3,0.1,0.4,0.1,0.6c0,0.1,0,0.2,0.1,0.3c0,0.2,0.3,0.4,0.5,0.5l0,0
		c0.2,0,0.3-0.2,0.5-0.3c0.1-0.1,0.1-0.3,0.1-0.4c0-0.2,0-0.3,0-0.3c0-0.1,0-0.2,0-0.4l0-1.7c0.1,0,0.2,0,0.3,0c0.4,0,0.7,0,1-0.1
		c0.3-0.1,0.6-0.2,1-0.3l0.2-0.1l0,0c0,0.2,0.1,0.3,0.1,0.5c0,0.3,0,0.6,0.1,0.9c0,0.3,0,0.7,0.1,1l0,0c0,0.3,0.1,0.7,0.3,0.9
		c0.1,0.1,0.2,0.1,0.4,0.1c0.5-0.1,0.5-0.7,0.5-1C23.8,14.2,23.8,13.8,23.8,13.4z M16.3,8c0.1-0.4,0-0.5-0.2-0.8
		c-0.1-0.1,0-0.3,0-0.5c0-0.4,0-0.8,0-1.2c0-0.9,0-1.8,0.1-2.7c0-0.5-0.1-0.8-0.5-0.9C15.3,1.9,15,2,14.9,2.5
		c-0.1,0.5-0.1,1-0.1,1.4c-0.1,1.3-0.2,2.6-0.2,3.9c-0.6,0.1-1.2,0.3-1.8,0.4c0-0.5,0-0.9,0-1.3c0-1.1,0-2.2,0-3.3
		c0-0.5,0.1-1.3-0.6-1.3c-0.8,0-0.5,2-0.6,3c0,0.7,0.1,1.5,0.1,2.2c0,0.5,0,1-0.3,1.5c-0.1,0.1-0.1,0.4-0.1,0.6
		c0.3,1.3,0.4,3.2,0.2,4.5c-0.1,0.4-0.2,1,0.3,1.2c0.4,0.1,0.6-0.4,0.6-0.7c0.1-0.5,0.1-1.5,0.1-2c0-0.8,0.1-1.6,0.1-2.4
		c0.6-0.1,1.2-0.2,1.9-0.4c0.1,0.6,0.1,1.1,0.2,1.6c0.1,1.2,0.4,2.5,0.4,3.7c0,0.2,0.3,0.4,0.8,0.3c0.6-0.2,0.2-3.1,0.1-4.9
		c0-0.6,0.1-1.2,0.2-1.7C16.3,8.5,16.2,8.2,16.3,8z M9.2,2.6C8.5,2.2,8,2.7,7.8,3.3C7.6,4.4,7.3,5.5,7.2,6.6c0,1.9-0.8,3.5-1.1,5.5
		c-0.9-1.4-0.7-2.9-1-4.2c-0.7,0.1-1,0.5-1.1,1c-0.4,1.3-0.8,2.5-1.2,4.1c-0.1-0.5-0.1-0.8-0.1-1.1C2.5,9.1,2.3,7.2,2.3,4.9
		c0-0.6-0.1-2.6-0.9-2.4C1.1,2.5,1,3,1,3.3C0.9,3.9,1,5,1.1,5.6c0.2,3.1,0.3,6.2,0.5,9.2c0,0.3,0.2,0.7,0.7,0.7
		c0.8,0,1.2-2.2,1.9-3.7c0.2,0.4,0.2,0.5,0.3,0.6c0.3,0.7,0.6,1.8,1,2.5c0.4,0.8,1.1,0.8,1.6-0.1c0.1-0.1,0.1-0.3,0.2-0.5
		c0.3-1.5,0.5-3.2,0.8-4.7s0.7-2.9,1-4.4C9.1,4.5,9.6,2.8,9.2,2.6z"/>
</g>
</svg>
