<?xml version="1.0" encoding="utf-8"?>
<!-- Generator: Adobe Illustrator 25.2.1, SVG Export Plug-In . SVG Version: 6.00 Build 0)  -->
<svg version="1.1" id="Layer_1" xmlns="http://www.w3.org/2000/svg" xmlns:xlink="http://www.w3.org/1999/xlink" x="0px" y="0px"
	 viewBox="0 0 165.3 29.1" style="enable-background:new 0 0 165.3 29.1;" xml:space="preserve">
<style type="text/css">
	.st0{display:none;}
	.st1{display:inline;}
	.st2{fill:#D51F26;}
	.st3{fill:#FFFFFF;}
</style>
<g id="Layer_2_1_" class="st0">
	<rect x="-143.6" y="-7.8" class="st1" width="306.4" height="46.2"/>
</g>
<g id="Layer_1_1_">
	<path class="st2" d="M1.8,26.9c0,0,21.5,0.3,25.1,0.3s3.8,1.6,5.9,1.6c2.2,0,4.1,0,4.1,0s0.9,0.8,1.7-0.3c0.9-1.1,0.9-1.2,0.9-1.2
		s6,0,8.1-0.1s7.2-0.4,8.6-0.1s14.5,0.4,16.4,0.1c1.9-0.4,14.1-0.4,15.2-0.9c1-0.4,1.6-0.9,1.6-0.9s76.8,0.7,75.8,0s-20-2-32.4-2.3
		s-42.9,0.3-44.8,0c-1.9-0.3-7.6-0.4-12.2,0.8c-4.7,1.2-17.2-1.9-24.1-0.7c-5.3,0.9-6.7-0.3-14.8,0.3C28.7,24,23,24.4,23,24.4
		s-3.3,0.1-5,0s-2.8,0-2.8,0s1.4,1.1-1.2,1.2c-2.4,0.1-3.6-0.8-5.9-0.4C5.6,25.6,1.8,26.9,1.8,26.9z"/>
</g>
<g>
	<path class="st3" d="M162.9,3.7c0,0.7-0.1,1.5-0.2,2.2c0,0.2-0.2,0.3-0.3,0.5l-0.1,0.1c-0.1,0.1-0.2,0.3-0.4,0.4l-0.1,0.1
		c0-0.2,0-0.3-0.1-0.5c-0.2-1.1-0.3-2.1-0.3-3.2c0.1,0,0.2,0,0.3,0c0.2,0,0.4-0.1,0.6-0.1c0.2,0,0.3,0,0.4,0.1
		c0.1,0.1,0.1,0.1,0.1,0.3L162.9,3.7z M165,13.3l0-0.1c0-0.3-0.1-0.4-0.2-0.6c-0.1-0.1-0.1-0.3-0.2-0.5c-0.1-0.6-0.3-1.1-0.4-1.7
		c-0.2-1-0.5-2-0.7-3.1c-0.1-0.2,0-0.4,0-0.5c0.6-1.1,0.5-2.2,0.5-3.3c0-0.1,0-0.3,0-0.4c0-0.4-0.1-0.7-0.4-0.9
		c-0.3-0.2-0.7-0.3-1.3-0.2c-0.1,0-0.2,0-0.3,0.1c-0.2,0.1-0.5,0.1-0.7,0.1l-0.2-0.1c-0.2-0.1-0.4-0.1-0.5,0.1
		c-0.2,0.2-0.3,0.5-0.3,0.7c0,0.7,0,1.4,0.1,2.2c0,0.1,0,0.2,0,0.3c0,0.2,0,0.5,0,0.7c-0.1,0.8-0.1,1.5,0,2.1
		c0.2,1.3,0.4,2.7,0.2,4.1c0,0.3,0,0.6,0,0.9c0.1,0.7,0.4,0.8,1.2,0.6l0.1,0l0-0.1c0.3-2.1,0.2-4.2,0-6l0.5,0
		c0.1,0.2,0.1,0.5,0.2,0.7c0.2,0.6,0.3,1.2,0.5,1.7c0.1,0.4,0.2,0.7,0.3,1.1c0.1,0.5,0.3,1.1,0.4,1.7c0.1,0.3,0.1,0.3,0.2,0.5
		l0.1,0.1c0.1,0.1,0.3,0.3,0.5,0.3l0.2,0C165.1,13.8,165.1,13.5,165,13.3z M158.6,4.1c0-0.3,0-0.7,0-1c0-0.4,0-0.8-0.2-1
		C158.3,2,158.1,2,157.8,2c-0.1,0-0.2,0.1-0.3,0.2c-0.4,0.5-0.3,2.2-0.2,2.7c0,0.2,0,0.6,0,0.9c0,0.1,0,0.3,0,0.4
		c0.1,2.2,0.1,4.2,0.1,6c0,0.1-0.1,0.3-0.1,0.5l-0.1,0.2l-0.2-0.1c-0.2-0.1-0.4-0.1-0.6-0.2c-0.1-0.1-0.3-0.3-0.3-0.4
		c0-0.2-0.1-0.3-0.1-0.5c-0.1-0.5-0.3-1.1-0.3-1.6c0-2.7-0.3-5.1-0.8-7.3c-0.1-0.5-0.3-0.8-0.6-0.8c-0.2,0-0.4,0-0.7,0.4
		c-0.2,0.3-0.1,0.6,0,0.9l0.1,0.2c0.2,1,0.3,2,0.4,3.2c0,0.3,0,0.6,0.1,0.9c0,0.5,0.1,1,0.1,1.5c-0.1,0.9,0,1.8,0.3,2.5
		c0.3,1,1,1.8,2,2.3c0.3,0.1,0.6,0.2,0.8,0.2c0.2,0,0.3,0,0.5-0.1c0.3-0.1,0.5-0.4,0.7-0.8c0.1-0.2,0.1-0.5,0.1-0.7l0-0.2
		c0-0.5,0-1,0-1.4c0-0.4,0-0.8,0-1.2c0-0.6,0-1.1,0-1.7c0-1,0-2.1,0.1-3.1C158.7,4.7,158.6,4.4,158.6,4.1z M150.4,12.2
		c-0.1,0.4-0.6,0.6-0.9,0.4c-0.4-0.2-0.5-0.5-0.5-1.1c-0.1-1.8-0.2-3.7-0.2-5.5c0-0.8-0.3-1.8,0-2.1c0.3-0.3,0.6-0.3,0.9-0.3
		c0.3,0,0.5,0.2,0.5,0.5c0.1,2.5,0.3,5,0.4,7.5C150.5,11.8,150.5,12,150.4,12.2z M151.9,11.8c0-1.1-0.1-2.1-0.1-3.2
		c-0.1-2,0.3-4.5-0.5-6c-0.3-0.6-1.4-0.4-2.2-0.5c-1-0.1-1.4,0.3-1.5,1.2c-0.1,0.7,0,1.5,0,2.2c0,1.1,0,2.1,0,3.2c0,1-0.1,2,0,2.9
		c0.1,0.9,0.6,1.6,1.4,2.1c1.3,0.8,2.4,0.4,2.9-1C151.9,12.6,151.9,12.2,151.9,11.8z M144.4,9.1c0,0.3,0,0.5-0.1,0.8
		c-0.2,0.9-0.4,1.8-0.7,2.7l0,0c-0.1,0.3-0.3,0.3-0.5,0.2c-0.2,0-0.4-0.1-0.6-0.1l-0.1,0l-0.2-3c0-0.3,0-0.7-0.1-1
		c0-0.1,0-0.3,0.3-0.3c0.5-0.1,1-0.1,1.7,0c0.2,0,0.3,0.1,0.2,0.3C144.4,8.9,144.4,9,144.4,9.1z M142.1,6.7c0-0.3,0-0.7,0.1-1.1
		c0-0.2,0-0.4,0-0.6c0-0.3,0-0.5,0-0.8c0-0.2,0.1-0.4,0.1-0.6l0-0.3c0.1,0,0.2,0,0.3,0c0.2,0,0.5,0,0.7,0c0.3,0,0.4,0.1,0.5,0.2
		c0.1,0.1,0.1,0.2,0.1,0.4c-0.1,0.3-0.1,0.7-0.2,1c0,0.2-0.1,0.4-0.2,0.6c-0.1,0.3-0.2,0.6-0.2,0.9c0,0.2-0.1,0.3-0.4,0.3
		c-0.2,0-0.4,0.1-0.6,0.2l-0.2,0.1C142.1,7,142.1,6.8,142.1,6.7z M145.6,8c-0.2-0.2-0.5-0.4-0.7-0.6c-0.1-0.1-0.2-0.1-0.3-0.2
		l0.1-0.3c0.1-0.3,0.1-0.6,0.2-0.8c0.2-0.8,0.5-1.6,0.4-2.4c0-0.8-0.6-1.4-1.6-1.5c-0.8-0.1-1.6-0.1-2.4,0.1c-0.2,0-0.3,0.1-0.4,0.3
		c-0.1,0.1-0.1,0.3,0,0.5c0.1,0.1,0.1,0.3,0.1,0.5c0,0.1,0,0.2,0,0.3l0,0.3l0,0.2c0,0.5,0,1.1,0,1.6v0.4c0,0.8,0,1.6,0,2.4
		c0,0.8,0.1,1.6,0.2,2.4l0.1,0.6c0,0.3,0.1,0.7,0.2,1c0.1,0.4,0.4,0.7,0.9,0.9c0.4,0.1,0.9,0.3,1.4,0.3c0.2,0,0.4,0,0.6-0.1
		c0.7-0.2,0.8-1,0.9-1.7c0-0.2,0.1-0.3,0.1-0.5c0.2-0.8,0.3-1.7,0.4-2.5c0-0.3,0.1-0.5,0.1-0.8C145.7,8.3,145.7,8.1,145.6,8z
		 M139,7.2c0.1-0.3,0-0.5-0.2-0.7c-0.1-0.1,0-0.3,0-0.4c0-0.4,0-0.7,0-1.1c0-0.8,0-1.6,0.1-2.5c0-0.5-0.1-0.7-0.5-0.8
		c-0.3-0.1-0.6,0.1-0.7,0.5c-0.1,0.4-0.1,0.9-0.1,1.3c-0.1,1.2-0.1,2.3-0.2,3.6c-0.6,0.1-1.1,0.2-1.7,0.4c0-0.4,0-0.8,0-1.2
		c0-1,0-2,0-3c0-0.4,0-1.2-0.5-1.2c-0.8,0-0.5,1.8-0.5,2.7c0,0.7,0.1,1.3,0.1,2c0,0.5,0,0.9-0.3,1.3c-0.1,0.1-0.1,0.3-0.1,0.5
		c0.2,1.2,0.3,2.9,0.2,4.1c-0.1,0.4-0.2,0.9,0.3,1c0.4,0.1,0.5-0.4,0.6-0.7c0.1-0.4,0.1-1.4,0.1-1.8c0-0.7,0.1-1.5,0.1-2.2
		c0.6-0.1,1.1-0.2,1.7-0.3c0.1,0.5,0.1,1,0.2,1.4c0.1,1.1,0.3,2.2,0.3,3.4c0,0.2,0.3,0.4,0.7,0.3c0.6-0.1,0.2-2.8,0.1-4.4
		c0-0.5,0.1-1.1,0.2-1.5C139,7.7,139,7.4,139,7.2z M132.9,9c0-0.2,0-0.4,0-0.5c0-0.3-0.2-0.4-0.4-0.4c-0.6-0.1-1.4,0.4-1.8,1
		c0.4,0.1,0.7,0.2,1,0.3c-0.1,1.1-0.2,2.2-0.3,3.5c-0.2,0.1-0.4,0.2-0.7,0.2c-0.3,0.1-0.6-0.1-0.6-0.4c-0.1-0.4,0-0.8-0.1-1.1
		c0-0.2,0-0.4,0-0.5c-0.1-0.4-0.1-0.7,0-1.1c0.1-0.3,0.1-0.6,0.1-0.9c0-0.3,0-0.6,0-0.9c0.2-1.1,0-2.3,0.1-3.4c0-0.2,0-0.5,0-0.7
		c0.1-0.5,0.3-0.7,0.9-0.8c0.3,0,1.1,0.1,1.4,0c0.3,0,0.4-0.2,0.3-0.5c-0.1-0.1-0.2-0.3-0.4-0.3c-0.6,0-1.6-0.2-2.2-0.1
		c-0.2,0-0.5,0.2-0.6,0.5c-0.2,0.5-0.4,1.1-0.5,1.6c-0.1,1-0.1,2-0.2,3c0,0.4-0.1,0.8-0.1,1.2c0,1-0.1,1.7-0.1,3
		c0.1,0.6,0,1.2,0.2,1.7c0.2,0.4,0.5,0.7,1,0.7c1,0.1,1.8-0.2,2.6-0.8c0.4-0.3,0.5-0.6,0.5-1C132.9,11,132.7,10,132.9,9z M126.9,1.8
		c-0.8-0.2-1.1,0.1-1.2,0.9c-0.1,1.6-0.1,3.2-0.2,4.8c0,0.4,0,0.9,0,1.3c0,0.8,0,1.7,0,2.5c0,0.5-0.1,1.1-0.1,1.6c0,0.7,0,1,0.8,1
		c0.6,0,0.6-2.2,0.6-3.3c0.1-1.4,0-2.8,0-4.1c0-0.4,0.1-0.8,0.1-1.2C127.2,4.2,127.1,3,126.9,1.8z M124.5,12.8h-2.6l0-0.1l0-0.2
		c-0.1-1-0.1-2-0.2-2.9l0-0.8c0.1,0,0.2-0.1,0.3-0.1c0.2-0.1,0.4-0.2,0.6-0.2c0.4-0.1,0.6-0.5,0.6-1l0-0.1h-1.5V3.7
		c1.2-0.1,1.7-0.5,1.9-1.4l0-0.1l-0.1,0l0,0l-0.1,0c-0.8,0.1-1.4,0-1.9-0.2c-0.2-0.1-0.4,0-0.7,0.1c-0.3,0.2-0.5,0.6-0.5,0.9
		c0,0.1,0,0.2,0.1,0.3c0.1,0.4,0.1,0.8,0.2,1.3c0,0.3,0,0.7-0.1,1c0,0.2,0,0.3,0,0.5c0,0.1,0,0.2,0,0.3c0,0.2,0,0.4-0.1,0.6
		c-0.2,0.9-0.2,1.6,0,2.2c0,0.1,0,0.2,0,0.4l0,0.1c0,1.1,0,2.2,0,3.3c0,0.5,0.2,0.8,0.5,1.1c0.2,0.1,0.4,0.2,0.6,0.2
		c0.2,0,0.4,0,0.6-0.1c0.3-0.1,0.6-0.1,0.9-0.2l0.1,0c0.1,0,0.2,0,0.3,0c0.1,0,0.2,0,0.4,0C124.3,13.7,124.5,13.4,124.5,12.8
		L124.5,12.8z M117.9,2.2c-0.7,0-0.7,1.6-0.8,2.5c-0.1,0.9-0.1,1.7-0.2,2.6c0,0.8-0.1,1.6-0.1,2.3c-0.5-1.2-0.9-2.5-1.2-3.7
		c-0.1-0.2-0.1-0.4-0.2-0.5c-0.3-0.7-0.5-1.4-0.8-2c-0.1-0.3-0.2-0.9-0.6-1c-0.9-0.2-0.9,1-0.9,1.6c0,0.8,0,1.4-0.1,2.4
		c-0.1,2.3-0.3,4.7-0.3,7c0,0.3,0,0.4,0.2,0.5c0.1,0.1,0.5,0,0.5-0.1c0.6-2.6,0.6-3.6,1-5.5c0.2,0.2,0.3,0.4,0.4,0.6
		c0.5,1.3,1.1,2.7,1.6,4c0.2,0.5,0.4,1.1,1.1,1c0.9-0.1,0.7-1.6,0.8-2.5c0.1-1.5,0.1-3,0.2-4.5c0-1.3,0.1-2.6,0.1-3.9
		C118.6,2.5,118.5,2.2,117.9,2.2z M105.8,10.9c-0.1,0.6-0.2,1.3-0.3,2c-0.5,0-1.1,0-1.7,0c0.2-1.1,0.5-2,0.6-2.9
		c0.1-1.3,0.1-2.7,0.2-4c0-0.8,0-1.6,0-2.4c1.2,0.1,1.3,0.1,1.3,1c0.1,1.3,0,2.6,0,3.9c0,0.2,0,0.3,0,0.5
		C105.8,9.6,105.8,10.2,105.8,10.9z M107.3,3.7c-0.5-1.2-1.4-1.8-2.8-1.6c-0.3,0-0.6,0.1-0.8,0.1c-0.6,0-1,0.3-1.3,0.9
		c0.4,0.2,0.8,0.4,1.1,0.5c-0.1,1.4-0.2,2.9-0.2,4.4c0,1.5,0,3,0,4.6c-0.5,0.1-1,0.2-0.9,0.7c0.1,0.4,0.5,0.6,1,0.7
		c0.3,0,0.6,0.1,0.9,0c1.8-0.3,1.8-0.6,2.2-1.7c0.6-1.7,0.7-3.4,1-5.1C107.6,6.1,107.9,4.9,107.3,3.7z M97.3,9.8c0-0.1,0-0.2,0-0.3
		c0-0.3,0-0.6,0-1c0.1-0.9,0.1-1.9,0.2-2.8l0.1-1.3c0-0.3,0.3-0.5,0.5-0.6c0.3-0.1,0.6-0.1,0.9-0.1l0.1,0.1c0.1,0.2,0.2,0.5,0.2,0.8
		c0,1,0,2,0.1,3.1l0,1.4c0,0.1,0,0.2,0,0.4l0,0.1C98.8,9.8,98.1,9.9,97.3,9.8z M100.8,12c0-0.3,0-0.6,0-1c0-0.6,0-1.2,0-1.8l0-0.9
		c0-1.4,0-2.9-0.1-4.3c0-0.6-0.3-0.8-0.7-1.1c-0.1-0.1-0.2-0.2-0.3-0.2l-0.1-0.1c-0.6-0.4-1.3-0.4-1.9-0.1c-0.6,0.3-1.2,0.9-1.3,1.8
		l0,0.2l0,0.2c0,0.2-0.1,0.4-0.1,0.7c-0.1,0.6-0.3,1.1-0.3,1.7c0,0.7,0,1.5-0.1,2.2c0,0.4,0,0.8,0,1.2l0,0.2l0,0.1l0,0.7
		c0,0.5,0.1,1,0.1,1.5c0,0.3,0,0.4,0.1,0.5c0,0.1,0,0.2,0.1,0.3c0,0.2,0.3,0.4,0.4,0.4l0,0c0.2,0,0.3-0.2,0.4-0.3
		c0.1-0.1,0.1-0.3,0.1-0.4c0-0.2,0-0.2,0-0.3c0-0.1,0-0.2,0-0.4l0-1.6c0.1,0,0.2,0,0.3,0c0.3,0,0.6,0,0.9-0.1
		c0.3-0.1,0.6-0.1,0.9-0.3l0.2-0.1l0,0c0,0.2,0.1,0.3,0.1,0.5c0,0.3,0,0.5,0,0.8c0,0.3,0,0.6,0.1,0.9l0,0c0,0.3,0.1,0.7,0.3,0.8
		c0.1,0.1,0.2,0.1,0.4,0.1c0.5-0.1,0.5-0.6,0.5-0.9C100.8,12.8,100.8,12.4,100.8,12z M94.9,12.8h-2.6l0-0.1l0-0.2
		c-0.1-1-0.1-2-0.2-2.9l0-0.8c0.1,0,0.2-0.1,0.3-0.1c0.2-0.1,0.4-0.2,0.6-0.2c0.4-0.1,0.6-0.5,0.6-1l0-0.1H92V3.7
		c1.2-0.1,1.7-0.5,1.9-1.4l0-0.1l-0.1,0l0,0l-0.1,0c-0.8,0.1-1.4,0-1.9-0.2c-0.2-0.1-0.4,0-0.7,0.1c-0.3,0.2-0.5,0.6-0.5,0.9
		c0,0.1,0,0.2,0.1,0.3c0.1,0.4,0.1,0.8,0.2,1.3c0,0.3,0,0.7-0.1,1c0,0.2,0,0.3,0,0.5c0,0.1,0,0.2,0,0.3c0,0.2,0,0.4-0.1,0.6
		c-0.2,0.9-0.2,1.6,0,2.2c0,0.1,0,0.2,0,0.4l0,0.1c0,1.1,0,2.2,0,3.3c0,0.5,0.2,0.8,0.5,1.1c0.2,0.1,0.4,0.2,0.6,0.2
		c0.2,0,0.4,0,0.6-0.1c0.3-0.1,0.6-0.1,0.9-0.2l0.1,0c0.1,0,0.2,0,0.3,0c0.1,0,0.2,0,0.4,0C94.7,13.7,94.9,13.4,94.9,12.8L94.9,12.8
		z M87.3,10.9c-0.1,0.6-0.2,1.3-0.3,2c-0.5,0-1.1,0-1.7,0c0.2-1.1,0.5-2,0.6-2.9c0.1-1.3,0.1-2.7,0.2-4c0-0.8,0-1.6,0-2.4
		c1.2,0.1,1.3,0.1,1.3,1c0.1,1.3,0,2.6,0,3.9c0,0.2,0,0.3,0,0.5C87.3,9.6,87.3,10.2,87.3,10.9z M88.8,3.7c-0.5-1.2-1.4-1.8-2.8-1.6
		c-0.3,0-0.6,0.1-0.8,0.1c-0.6,0-1,0.3-1.3,0.9c0.4,0.2,0.8,0.4,1.1,0.5c-0.1,1.4-0.2,2.9-0.2,4.4c0,1.5,0,3,0,4.6
		c-0.5,0.1-1,0.2-0.9,0.7c0.1,0.4,0.5,0.6,1,0.7c0.3,0,0.6,0.1,0.9,0c1.8-0.3,1.8-0.6,2.2-1.7c0.6-1.7,0.7-3.4,1-5.1
		C89.1,6.1,89.4,4.9,88.8,3.7z M81.6,2.2c-0.7,0-0.7,1.6-0.8,2.5c-0.1,0.9-0.1,1.7-0.2,2.6c0,0.8-0.1,1.6-0.1,2.3
		c-0.5-1.2-0.9-2.5-1.2-3.7c-0.1-0.2-0.1-0.4-0.2-0.5c-0.3-0.7-0.5-1.4-0.8-2c-0.1-0.3-0.2-0.9-0.6-1c-0.9-0.2-0.9,1-0.9,1.6
		c0,0.8,0,1.4-0.1,2.4c-0.1,2.3-0.3,4.7-0.3,7c0,0.3,0,0.4,0.2,0.5c0.1,0.1,0.5,0,0.5-0.1c0.6-2.6,0.6-3.6,1-5.5
		c0.2,0.2,0.3,0.4,0.4,0.6c0.5,1.3,1.1,2.7,1.6,4c0.2,0.5,0.4,1.1,1.1,1c0.9-0.1,0.7-1.6,0.8-2.5c0.1-1.5,0.1-3,0.2-4.5
		c0-1.3,0.1-2.6,0.1-3.9C82.3,2.5,82.3,2.2,81.6,2.2z M74.7,4.1c0-0.3,0-0.7,0-1c0-0.4,0-0.8-0.2-1C74.3,2,74.1,2,73.9,2
		c-0.1,0-0.2,0.1-0.3,0.2c-0.4,0.5-0.3,2.2-0.2,2.7c0,0.2,0,0.6,0,0.9c0,0.1,0,0.3,0,0.4c0.1,2.2,0.1,4.2,0.1,6
		c0,0.1-0.1,0.3-0.1,0.5l-0.1,0.2l-0.2-0.1c-0.2-0.1-0.4-0.1-0.6-0.2c-0.1-0.1-0.3-0.3-0.3-0.4c0-0.2-0.1-0.3-0.1-0.5
		c-0.1-0.5-0.3-1.1-0.3-1.6c0-2.7-0.3-5.1-0.8-7.3C70.9,2.3,70.7,2,70.4,2c-0.2,0-0.4,0-0.7,0.4c-0.2,0.3-0.1,0.6,0,0.9l0.1,0.2
		c0.2,1,0.3,2,0.4,3.2c0,0.3,0,0.6,0.1,0.9c0,0.5,0.1,1,0.1,1.5c-0.1,0.9,0,1.8,0.3,2.5c0.3,1,1,1.8,2,2.3c0.3,0.1,0.6,0.2,0.8,0.2
		c0.2,0,0.3,0,0.5-0.1c0.3-0.1,0.5-0.4,0.7-0.8c0.1-0.2,0.1-0.5,0.1-0.7l0-0.2c0-0.5,0-1,0-1.4c0-0.4,0-0.8,0-1.2c0-0.6,0-1.1,0-1.7
		c0-1,0-2.1,0.1-3.1C74.7,4.7,74.7,4.4,74.7,4.1z M62.8,3.7c0,0.7-0.1,1.5-0.2,2.2c0,0.2-0.2,0.3-0.3,0.5l-0.1,0.1
		c-0.1,0.1-0.2,0.3-0.4,0.4l-0.1,0.1c0-0.2,0-0.3-0.1-0.5c-0.2-1.1-0.3-2.1-0.3-3.2c0.1,0,0.2,0,0.3,0c0.2,0,0.4-0.1,0.6-0.1
		c0.2,0,0.3,0,0.4,0.1c0.1,0.1,0.1,0.1,0.1,0.3L62.8,3.7z M65,13.3l0-0.1c0-0.3-0.1-0.4-0.2-0.6c-0.1-0.1-0.1-0.3-0.2-0.5
		c-0.1-0.6-0.3-1.1-0.4-1.7c-0.2-1-0.5-2-0.7-3.1c-0.1-0.2,0-0.4,0-0.5c0.6-1.1,0.5-2.2,0.5-3.3c0-0.1,0-0.3,0-0.4
		c0-0.4-0.1-0.7-0.4-0.9c-0.3-0.2-0.7-0.3-1.3-0.2c-0.1,0-0.2,0-0.3,0.1c-0.2,0.1-0.5,0.1-0.7,0.1l-0.2-0.1C61,2.1,60.8,2,60.6,2.2
		c-0.2,0.2-0.3,0.5-0.3,0.7c0,0.7,0,1.4,0.1,2.2c0,0.1,0,0.2,0,0.3c0,0.2,0,0.5,0,0.7c-0.1,0.8-0.1,1.5,0,2.1
		c0.2,1.3,0.4,2.7,0.2,4.1c0,0.3,0,0.6,0,0.9c0.1,0.7,0.4,0.8,1.2,0.6l0.1,0l0-0.1c0.3-2.1,0.2-4.2,0-6l0.5,0
		c0.1,0.2,0.1,0.5,0.2,0.7c0.2,0.6,0.3,1.2,0.5,1.7c0.1,0.4,0.2,0.7,0.3,1.1c0.1,0.5,0.3,1.1,0.4,1.7c0.1,0.3,0.1,0.3,0.2,0.5
		l0.1,0.1c0.1,0.1,0.3,0.3,0.5,0.3l0.2,0C65.1,13.8,65.1,13.5,65,13.3z M58.6,4.1c0-0.3,0-0.7,0-1c0-0.4,0-0.8-0.2-1
		C58.2,2,58,2,57.8,2c-0.1,0-0.2,0.1-0.3,0.2c-0.4,0.5-0.3,2.2-0.2,2.7c0,0.2,0,0.6,0,0.9c0,0.1,0,0.3,0,0.4c0.1,2.2,0.1,4.2,0.1,6
		c0,0.1-0.1,0.3-0.1,0.5l-0.1,0.2l-0.2-0.1c-0.2-0.1-0.4-0.1-0.6-0.2c-0.1-0.1-0.3-0.3-0.3-0.4c0-0.2-0.1-0.3-0.1-0.5
		c-0.1-0.5-0.3-1.1-0.3-1.6c0-2.7-0.3-5.1-0.8-7.3C54.9,2.3,54.6,2,54.4,2c-0.2,0-0.4,0-0.7,0.4c-0.2,0.3-0.1,0.6,0,0.9l0.1,0.2
		c0.2,1,0.3,2,0.4,3.2c0,0.3,0,0.6,0.1,0.9c0,0.5,0.1,1,0.1,1.5c-0.1,0.9,0,1.8,0.3,2.5c0.3,1,1,1.8,2,2.3c0.3,0.1,0.6,0.2,0.8,0.2
		c0.2,0,0.3,0,0.5-0.1c0.3-0.1,0.5-0.4,0.7-0.8c0.1-0.2,0.1-0.5,0.1-0.7l0-0.2c0-0.5,0-1,0-1.4c0-0.4,0-0.8,0-1.2c0-0.6,0-1.1,0-1.7
		c0-1,0-2.1,0.1-3.1C58.6,4.7,58.6,4.4,58.6,4.1z M50.4,12.2c-0.1,0.4-0.6,0.6-0.9,0.4c-0.4-0.2-0.5-0.5-0.5-1.1
		c-0.1-1.8-0.2-3.7-0.2-5.5c0-0.8-0.3-1.8,0-2.1c0.3-0.3,0.6-0.3,0.9-0.3c0.3,0,0.5,0.2,0.5,0.5c0.1,2.5,0.3,5,0.4,7.5
		C50.5,11.8,50.4,12,50.4,12.2z M51.8,11.8c0-1.1-0.1-2.1-0.1-3.2c-0.1-2,0.3-4.5-0.5-6C50.8,2,49.7,2.3,49,2.2
		c-1-0.1-1.4,0.3-1.5,1.2c-0.1,0.7,0,1.5,0,2.2c0,1.1,0,2.1,0,3.2c0,1-0.1,2,0,2.9c0.1,0.9,0.6,1.6,1.4,2.1c1.3,0.8,2.4,0.4,2.9-1
		C51.8,12.6,51.8,12.2,51.8,11.8z M46.1,2.3c-0.7-0.5-1.3,0.2-1.6,0.9c-0.1,0.2-0.1,0.3-0.2,0.5c-0.4,1-0.8,2.1-1.3,3.3
		c-0.2-0.3-0.6-0.9-0.7-1.1c-0.3-0.8-0.7-1.9-1-2.6c-0.2-0.6-0.6-1-1.2-0.8c-0.4,0.1-0.6,0.5-0.3,1.2c0.5,1.4,1.5,3.5,2.6,4.4
		c0.1,1.6,0.2,3,0.3,4.3c0.1,0.6-0.1,1.6,0.6,1.6c0.6,0,0.6-0.8,0.6-1.1c0.1-2.1-0.3-4.2,0.9-6.2c0.5-0.9,0.7-2,1.3-2.9
		C46.4,3.3,46.6,2.7,46.1,2.3z M34.3,11.2c-0.7-0.9-0.6-1.5-0.8-2.6c-0.2-1.2-0.1-2.3,0.5-3.4c0.2-0.3,0.3-0.6,0.5-0.9
		c0.2-0.5,0.5-0.9,0.7-1.4c0.1-0.2,0.1-0.4,0.1-0.6c0-0.4-0.4-0.5-0.7-0.3c-0.3,0.2-0.5,0.5-0.7,0.7c-0.8,1-1.3,2.2-1.8,3.3
		c-0.5,1.1-1,2.3-1.5,3.4c-0.1,0.3-0.4,0.5-0.5,0.8c-0.1-1.2,0-2.3,0.1-3.4c0.1-1.2,0.1-2.4,0.1-3.6c0-0.4-0.1-0.8-0.6-1
		C29.2,2.4,29,2.6,29,3.1c-0.1,1.8-0.2,3.6-0.3,5.4c-0.1,1.4-0.3,2.7-0.4,4.1c-0.1,0.9,0.7,2,1.2,1.3c0.9-1.4,1.7-2.6,2.6-4
		c0.3,1.5,3,4,3.3,4C36.2,13.8,34.7,11.8,34.3,11.2z M27.3,12.9C27,12.2,27,11.5,27,10.8l0-0.2c0-0.3-0.1-0.6-0.5-0.8l-0.1,0l0,0
		c-0.8,1-0.7,2.1-0.5,3.1c-0.4,0.1-0.6,0.1-0.7,0c-0.1-0.1-0.1-0.2-0.2-0.3c0-0.4-0.2-0.7-0.3-1.1c-0.1-0.5-0.3-1.1-0.3-1.6
		c0-0.4,0-0.8,0-1.2c0-0.2,0-0.4,0-0.6c0-0.4,0-0.7,0-1.1c0-0.4,0-0.9,0-1.3c0-0.2,0-0.3,0-0.5c0-0.3-0.1-0.5,0-0.8
		c0-0.3,0.2-0.5,0.3-0.8l0.1-0.2c0.1-0.2,0.3-0.2,0.5-0.2c0.4,2,0.4,2.1,0.9,2.4l0.1,0l0-0.1l0.1-0.2c0-0.1,0.1-0.3,0.1-0.4
		c0-0.2,0-0.4,0-0.7c0-0.2,0-0.4,0-0.6c0-0.6,0.1-1.1-0.2-1.3c-0.2-0.3-0.7-0.3-1.5-0.3c-0.2,0-0.4,0.1-0.7,0.1l-0.2,0.1
		c-0.1,0-0.2,0.1-0.2,0.2c-0.5,0.6-0.7,1.1-0.7,1.7c0,0.5,0,0.9,0,1.3c0,0.1,0,0.3,0,0.4c0,0.7,0,1.4,0.1,2c0,0.5,0,0.9,0,1.4
		c0,0.5,0,1.1,0.1,1.7c0.1,0.5,0.2,1,0.3,1.4l0,0.1c0.2,0.8,0.6,1.3,1.3,1.5c0.2,0.1,0.5,0.1,0.7,0.1c0.4,0,0.8-0.1,1.1-0.2
		C27.2,13.7,27.4,13.3,27.3,12.9z M17.6,9.8c0-0.1,0-0.2,0-0.3c0-0.3,0-0.6,0-1c0.1-0.9,0.1-1.9,0.2-2.8l0.1-1.3
		c0-0.3,0.3-0.5,0.5-0.6c0.3-0.1,0.6-0.1,0.9-0.1l0.1,0.1c0.1,0.2,0.2,0.5,0.2,0.8c0,1,0,2,0.1,3.1l0,1.4c0,0.1,0,0.2,0,0.4l0,0.1
		C19.1,9.8,18.4,9.9,17.6,9.8z M21.1,12c0-0.3,0-0.6,0-1c0-0.6,0-1.2,0-1.8l0-0.9c0-1.4,0-2.9-0.1-4.3c0-0.6-0.3-0.8-0.7-1.1
		c-0.1-0.1-0.2-0.2-0.3-0.2l-0.1-0.1c-0.6-0.4-1.3-0.4-1.9-0.1c-0.6,0.3-1.2,0.9-1.3,1.8l0,0.2l0,0.2c0,0.2-0.1,0.4-0.1,0.7
		c-0.1,0.6-0.3,1.1-0.3,1.7c0,0.7,0,1.5-0.1,2.2c0,0.4,0,0.8,0,1.2l0,0.2l0,0.1l0,0.7c0,0.5,0.1,1,0.1,1.5c0,0.3,0,0.4,0.1,0.5
		c0,0.1,0,0.2,0.1,0.3c0,0.2,0.3,0.4,0.4,0.4l0,0c0.2,0,0.3-0.2,0.4-0.3c0.1-0.1,0.1-0.3,0.1-0.4c0-0.2,0-0.2,0-0.3
		c0-0.1,0-0.2,0-0.4l0-1.6c0.1,0,0.2,0,0.3,0c0.3,0,0.6,0,0.9-0.1c0.3-0.1,0.6-0.1,0.9-0.3l0.2-0.1l0,0c0,0.2,0.1,0.3,0.1,0.5
		c0,0.3,0,0.5,0,0.8c0,0.3,0,0.6,0.1,0.9l0,0c0,0.3,0.1,0.7,0.3,0.8c0.1,0.1,0.2,0.1,0.4,0.1c0.5-0.1,0.5-0.6,0.5-0.9
		C21.1,12.8,21.1,12.4,21.1,12z M14.4,7.2c0.1-0.3,0-0.5-0.2-0.7c-0.1-0.1,0-0.3,0-0.4c0-0.4,0-0.7,0-1.1c0-0.8,0-1.6,0.1-2.5
		c0-0.5-0.1-0.7-0.5-0.8c-0.3-0.1-0.6,0.1-0.7,0.5C13,2.7,13,3.1,12.9,3.6c-0.1,1.2-0.1,2.3-0.2,3.6c-0.6,0.1-1.1,0.2-1.7,0.4
		c0-0.4,0-0.8,0-1.2c0-1,0-2,0-3c0-0.4,0-1.2-0.5-1.2c-0.8,0-0.5,1.8-0.5,2.7c0,0.7,0.1,1.3,0.1,2c0,0.5,0,0.9-0.3,1.3
		C9.8,8.3,9.8,8.5,9.8,8.7c0.2,1.2,0.3,2.9,0.2,4.1c-0.1,0.4-0.2,0.9,0.3,1c0.4,0.1,0.5-0.4,0.6-0.7c0.1-0.4,0.1-1.4,0.1-1.8
		c0-0.7,0.1-1.5,0.1-2.2c0.6-0.1,1.1-0.2,1.7-0.3c0.1,0.5,0.1,1,0.2,1.4c0.1,1.1,0.3,2.2,0.3,3.4c0,0.2,0.3,0.4,0.7,0.3
		c0.6-0.1,0.2-2.8,0.1-4.4C14,9,14.1,8.4,14.3,8C14.3,7.7,14.3,7.4,14.4,7.2z M8.3,2.3C7.7,2,7.2,2.5,7.1,3C6.8,4,6.5,4.9,6.5,5.9
		c0,1.7-0.7,3.2-1,5C4.7,9.6,4.9,8.3,4.7,7.1C4,7.2,3.8,7.5,3.7,8C3.3,9.1,3,10.2,2.5,11.6c-0.1-0.5-0.1-0.7-0.1-1
		C2.2,8.2,2.1,6.5,2.1,4.4c0-0.6-0.1-2.4-0.8-2.2C0.9,2.3,0.9,2.7,0.9,3C0.8,3.5,0.9,4.5,1,5c0.1,2.8,0.3,5.5,0.5,8.3
		C1.4,13.7,1.6,14,2,14c0.7,0,1.1-2,1.7-3.3C3.8,11,3.9,11.1,4,11.2c0.3,0.7,0.5,1.6,0.9,2.2c0.4,0.7,1,0.7,1.4-0.1
		c0.1-0.1,0.1-0.3,0.1-0.4c0.3-1.3,0.5-2.9,0.8-4.2c0.3-1.3,0.6-2.6,0.9-3.9C8.2,4,8.7,2.5,8.3,2.3z"/>
</g>
</svg>
