<?xml version="1.0" encoding="utf-8"?>
<!-- Generator: Adobe Illustrator 25.4.1, SVG Export Plug-In . SVG Version: 6.00 Build 0)  -->
<svg version="1.1" id="Layer_1" xmlns="http://www.w3.org/2000/svg" xmlns:xlink="http://www.w3.org/1999/xlink" x="0px" y="0px"
	 viewBox="0 0 41.2 22" style="enable-background:new 0 0 41.2 22;" xml:space="preserve">
<style type="text/css">
	.st0{fill:url(#SVGID_1_);}
	.st1{fill:url(#SVGID_00000003102065931371118210000016880795946491774121_);}
</style>
<g>
	
		<linearGradient id="SVGID_1_" gradientUnits="userSpaceOnUse" x1="20.6" y1="11.0459" x2="20.6" y2="21" gradientTransform="matrix(1 0 0 -1 0 21)">
		<stop  offset="1.039427e-08" style="stop-color:#D1D1D1"/>
		<stop  offset="0.1031" style="stop-color:#D7D7D7"/>
		<stop  offset="0.6738" style="stop-color:#F4F4F4"/>
		<stop  offset="1" style="stop-color:#FFFFFF"/>
	</linearGradient>
	<path class="st0" d="M38.4,5.5L38.4,5.5L38.4,5.5c0-0.6-0.1-0.9-0.3-0.9L38.4,5.5z M34.4,3L34.4,3v0.5h-0.1V3.3l0.1-0.1V3L34.4,3
		L34.4,3z M34.9,0.6c-0.8,2.6-1.2,4.8-1.2,6.6l0.1,0.5H34V6.8h0.1c0,0.6,0.1,1,0.2,1.3h0.2c0-0.2,0.2-0.4,0.6-0.5l0.1,0.1
		c0.2-2,0.4-3.6,0.7-4.8H36c1.3,3,2,4.7,2,5v0.7c0.3,0,0.4,0.1,0.4,0.2h0.1V8.6c0.2,0,0.5-0.1,0.7-0.3c0.3-1.3,0.5-1.9,0.6-1.9
		L39.6,8h0.2c0.4-2.9,0.9-5.1,1.4-6.6V1.3L41,1.2l0.1-0.1V1H41l-0.1,0.5h-0.1l-0.1-0.1h-0.1c0-0.3,0.1-0.4,0.3-0.4V0.9l-0.6-0.3
		L40,0.7l-0.3-0.2c-0.5,1.9-0.9,3.7-1.2,5.4h-0.1l-0.7-1.7V4h0.1L38,4.6h0.1V4.4l-1.4-3.6h-0.1c-0.1,0-0.2,0.1-0.2,0.3l-0.7-0.6
		L34.9,0.6z M31.9,8.2v0.3l-0.2,0.2V8.2H31.9z M31.8,4.2v0.6h-0.1L31.8,4.2L31.8,4.2z M32,3.3v0.6h-0.1V3.3C31.9,3.3,32,3.3,32,3.3z
		 M32.1,2.3V3H32L32.1,2.3L32.1,2.3z M32,0.6L32,0.6l0.1,0.2v0.6L32,1.5h0.1l-0.4,1.9l0.1,0.1v0.1h-0.2v0.1l0.1,0.1v0.4l-0.2,0.3
		l-0.1,1.8l-0.2,1.5l0.4,0.4l-0.1,0.7L31.8,9h0.4c0-0.2,0.2-0.6,0.6-1V7.8l-0.1-0.7L32.8,7h-0.1l0.2,0V6.9l-0.1-0.1V6.2
		c0.1-1.8,0.4-3.5,0.9-4.9h-0.1l0.1-0.1l-0.2-0.4c-0.3,0-0.4-0.1-0.4-0.3L32,0.6z M26,7.7L26,7.7l-0.5-0.2V7.4L26,7.7z M28.8,5.2
		l-0.4,0.5h-0.1L28.8,5.2L28.8,5.2z M24.1,4.9v0.8H24L24.1,4.9L24.1,4.9z M30,4.5L30,4.5L29.9,5h-0.1V4.8L30,4.5L30,4.5z M29.3,4.1
		l0.1,0.3l-0.3,0.7h-0.3L29.3,4.1L29.3,4.1z M25.4,3.5l-0.3,0.6H25L25.4,3.5L25.4,3.5z M30.4,2.9h0.2V2.4h-0.2V2.9z M27.9,1.9
		L27.9,1.9L27.9,1.9h0.2h0.1c0.7,0.1,1,0.2,1,0.4v0.8c0,0.3-0.2,0.9-0.5,1.6C27.8,6.2,27,7,26.2,7h-0.1c-0.6-0.4-0.9-0.9-0.9-1.4
		c0.5-1.9,1-2.8,1.6-2.8l0.7-0.6l-0.1-0.1V2l0.1,0.1L27.9,1.9z M28,0.4c-1.3,0.2-1.9,0.4-1.9,0.7h0.1l0.7-0.4
		c-1.5,1.5-2.4,2.7-2.7,3.7h-0.1V4.3c0.3-0.8,0.7-1.5,1.2-2.2V2c-1.1,1.4-1.6,2.3-1.6,2.9v0.2l0.1,0.7l-0.1,0.1l0.4,0.6
		c0.4,1.3,1.4,1.9,3,1.9h0.1l0.5-0.1c0.9-0.6,1.6-1.2,2.1-1.8h-0.1c0.7-1.4,1-2.2,1-2.6V3.5c-0.1,0-0.2,0.2-0.2,0.5h-0.1l-0.3-2.2
		h0.1l0.1,0.1h0.2l-0.4-0.6V1.2l0.1-0.1C29.5,0.6,28.8,0.4,28,0.4z M18,6.5l0.1,0.6v0.1H18V6.8V6.5L18,6.5z M18.6,2.2L18.6,2.2
		l0.5-0.4V1.7L18.6,2.2z M20,1c-0.4,0.1-0.6,0.3-0.6,0.4L20,1L20,1L20,1z M20.2,0.8v0.1h0.1l0.3-0.1c-1.7,1.2-2.5,2.1-2.5,2.7H18
		V3.4l0.6-1V2.3c-0.7,0.5-1,1.5-1,3.2l0.1,1.3c0.1,0.6,0.5,1.2,1.1,1.6h0.3V8.3l-0.5-0.8V7.4c0.6,0.7,1.1,1.1,1.6,1.1l1.2-0.2V8.2
		h-0.1l-0.4,0.1h-0.5V8.2c1.1,0,2.1-0.5,2.9-1.5V6.6h-0.2c0,0.3-0.6,0.6-1.7,1.2V7.6h0.1l0.1-0.1c1-0.8,1.5-1.3,1.5-1.5V5.7
		l-0.3-0.4c-1,1.2-1.9,1.8-2.6,1.8h-0.1V7c0.9-0.2,1.7-0.8,2.4-1.8V5.1h-0.1c-1,1.2-2,1.8-2.8,1.8h-0.3L19,5l0.2-0.7
		c0.8-1.6,1.9-2.4,3.5-2.4c0,0.1,0.2,0.1,0.6,0.2V2l-0.1-0.1h0.2V1.8c-0.5-0.8-1.2-1.2-2.2-1.2h-0.1L20.2,0.8z M14.7,6.1l0.1,0.4
		l-0.2,0.4V7l0.1,0.1v0.1l-0.1,0.1h0.1l-0.2,0.3v0.2l0.1,0.5h-0.2L14.7,6.1L14.7,6.1z M18.6,0.6v0.1h-0.4V0.6H18.6z M13.5,0.5
		c-0.8,0-1.2,0.2-1.2,0.5l0.1,0.1l-0.1,0.5l0.3,0.2l0.6-0.1h0.1l0.1,0.1L15,1.6v0.3h-1.5L13.4,2V1.9L12.9,2v0.1l1.4,0.1L15,2.1
		c-0.2,1.3-0.3,2-0.4,2.1v1.3c-0.2,0-0.3,0.3-0.3,0.8h0.2v0.1c0,0.1-0.1,0.2-0.3,0.2v0.1h0.2v0.5l-0.3,0.1L14.3,8h-0.1l-0.1-0.1
		c0,0.4,0.1,0.9,0.4,1.5h0.1l0.1-0.1l0.4,0.3h0.2V9.4l-0.2-1.6V7.7c0-0.1,0.1-0.2,0.3-0.2V7.3h0.1v0.1l-0.1,1c0.1,0.7,0.3,1,0.4,1
		h0.1l-0.3-1.3c0.6-3.8,1-5.9,1.2-6.4h-0.1l0.1-0.3l0.7-0.1c0.9,0,1.4-0.2,1.6-0.5l-0.2-0.3h0.3V0.4l-0.3-0.1L13.5,0.5z M8.5,0.4
		L8.5,0.4C8.4,0.7,8.3,0.8,8.2,0.8L7.8,6.1H7.7V5.6l0.1-0.4L7.7,5.1l0.2-1.3H7.7l0.1-0.7V2.7H7.7L7.3,7.2l0.3,0.4v0.3
		C7.3,7.9,7.2,8,7.2,8.2v0.1h0.1l0.4,0.5H8L10.1,8l3.3-0.8V6.9L13.3,7l-0.7-0.1h-0.1L12.4,7V6.9c1-0.1,1.5-0.3,1.5-0.5V6.3l-0.7-0.1
		h-0.4l-0.5,0.1l-0.1-0.1h-0.1L12,6.3V6.2l-1.9,0.4V6.5L9,6.8c0-0.2,1.2-0.5,3.5-0.9V5.8h-0.1C10.6,6,9.4,6.3,9,6.5l0.5-5.6L9.4,0.8
		L9.1,1H8.9c0-0.4-0.1-0.6-0.2-0.6C8.7,0.4,8.5,0.4,8.5,0.4z M5.3,7.7v0.2L5,8V7.8L5.3,7.7z M6.1,7.5l0.1,0.4v0.2H6.1L6,7.7L6.1,7.5
		L6.1,7.5z M4.7,7.4L4.7,7.4l0.1-0.6H4.6L4.7,7.4z M4.2,4.4L4.2,4.4C4.3,4.5,4,4.6,3.4,4.7H3.2V4.6L4.2,4.4z M1.7,4.3L1.5,4.7H1.4
		l0.1-0.4C1.5,4.3,1.7,4.3,1.7,4.3z M2.5,4.2v0.3L2.4,4.6H2.3L2.5,4.2L2.5,4.2z M1.9,3.8L1.8,4.1H1.7V3.9L1.9,3.8L1.9,3.8z M3,2.9
		L3,2.9l-0.3,1H2.6L2.5,3.5h0.1l0.1,0.1L3,2.9L3,2.9z M3.9,2.3l0.4,1.5C4.2,4.2,3.9,4.4,3.2,4.4H3L3.9,2.3L3.9,2.3z M4.4,0
		C4,0,3.6,0.1,3.1,0.4V0.3l0.1-0.1H2.8L2.3,1.6c0.2,0,0.3,0.1,0.3,0.2v0.1H2.5L2.4,1.8H2.3L2.1,2.2v0.1l0.1,0.1H2.1L2,2.3L1.9,2.8
		v0.4H2l0.1-0.1L2,3.6c-0.1,0-0.2-0.1-0.2-0.3H1.7L0,7.4l0.3,0.3L0.2,8.3l0.2,0.2c0-0.5,0.1-0.8,0.3-0.8h0.1L0.6,8.3l0.3,0.2V8.4H1
		l0.1,0.1h0.3V8.3C1.6,8.1,1.8,7.6,2,6.9c0-0.4,0.7-0.7,2.1-1V5.7L3.6,5.8L3.2,5.7L2.5,5.9V5.7l2.2-0.5v0.6l0.1,0.1H4.7L4.6,5.8H4.5
		v0.4l0.1-0.1h0.1L4.6,6.2v0.4h0.1V6.3h0.2v0.3L4.8,6.7C4.9,6.7,5,7,5.1,7.6v0.1L4.8,7.5L5,8.7h0.1V8.3h0.1L5.7,10
		c0.1,0,0.2-0.1,0.2-0.3H6l0.1,0.1h0.1L6.1,9.5V9.4c0.1,0,0.2,0.1,0.2,0.3h0.2L6.2,8.2h0.1l0.1,0.1V7.7L6.3,6.5l0.1-0.1H6.3l0.1-0.1
		L6.3,5.7l0.1-0.3L6.2,4.8c0.7-0.1,1-0.3,1-0.4V4.3H6.4c0-0.1-0.1-0.2-0.3-0.2V4l0.6-0.1V3.8H6L5.2,0.3C4.7,0.3,4.4,0.2,4.4,0z"/>
	
		<linearGradient id="SVGID_00000175316243229921303860000007518167890010909346_" gradientUnits="userSpaceOnUse" x1="22.85" y1="-0.9551" x2="22.85" y2="9" gradientTransform="matrix(1 0 0 -1 0 21)">
		<stop  offset="1.039427e-08" style="stop-color:#D1D1D1"/>
		<stop  offset="0.1031" style="stop-color:#D7D7D7"/>
		<stop  offset="0.6738" style="stop-color:#F4F4F4"/>
		<stop  offset="1" style="stop-color:#FFFFFF"/>
	</linearGradient>
	<path style="fill:url(#SVGID_00000175316243229921303860000007518167890010909346_);" d="M32.4,20.6V21h-0.1L32.4,20.6L32.4,20.6z
		 M35.7,13.7c-0.8,1-1.5,2.1-2,3.2h-0.2C33.4,16.6,34.2,15.5,35.7,13.7L35.7,13.7z M34,14L34,14l0.2-0.1v-0.1L34,14z M34.2,13.7
		L34.2,13.7l1.2-1.1v0.1l-2.3,3.2H33v-0.1c0-0.2,0.3-0.6,1-1.5v-0.1c-0.3,0.1-0.6,0.6-1,1.3c-0.7-1.3-1.1-2.2-1.1-2.6h-0.3l-0.3,0.2
		c0-0.3-0.1-0.5-0.3-0.5h-0.2l-0.1,0.1l0.2,0.5h-0.2v0.2l1.4,3.5V17L32,17.1l0.1,0.8h0.1v-0.3h0.1l0.1,0.3l-0.1,1.2h-0.1v-0.4
		l0.1-0.5L32,18.3l0.1,0.1v0.1L32,18.6v0.1l0.1,0.1H32l-0.1-0.1l-0.1,1.2v0.2l0.3,0.4v0.8l0.8,0.1l0.5-0.9v-0.1l-0.1-0.1l0.2-1
		c0-1.5,1.1-3.5,3.5-6.1v-0.1L36.8,13l0.1-0.1v-0.1h-0.3c0,0.2-0.1,0.4-0.4,0.5H36l0.5-0.6c0-0.1-0.2-0.2-0.7-0.4h-0.1l-0.1,0.1
		v-0.2h-0.1L34.2,13.7z M26.3,12.4L26.3,12.4c-0.1,0.3-0.2,0.4-0.3,0.4l-0.4,5.3h-0.1v-0.5l0.1-0.4l-0.1-0.1l0.2-1.3h-0.2l0.1-0.7
		v-0.4h-0.1l-0.4,4.5l0.3,0.4v0.3c-0.3,0-0.4,0.1-0.4,0.3v0.1h0.1l0.4,0.5h0.3l2.1-0.8l3.3-0.8v-0.3L31,19l-0.7-0.1h-0.1L30.1,19
		v-0.1c1-0.1,1.5-0.3,1.5-0.5v-0.1l-0.7-0.1h-0.4L30,18.3l-0.1-0.1h-0.1l-0.1,0.1v-0.1l-1.9,0.4v-0.1l-1.1,0.3
		c0-0.2,1.2-0.5,3.5-0.9v-0.1h-0.1c-1.8,0.3-3,0.5-3.4,0.7l0.5-5.6l-0.1-0.1L26.9,13h-0.2c0-0.4-0.1-0.6-0.2-0.6H26.3z M23.1,20.2
		v0.3l-0.2,0.2v-0.5H23.1z M23.1,16.2v0.6H23L23.1,16.2L23.1,16.2z M23.2,15.3v0.6h-0.1v-0.6H23.2z M23.4,14.3V15h-0.1L23.4,14.3
		L23.4,14.3z M23.3,12.6L23.3,12.6l0.1,0.2v0.6l-0.1,0.1h0.1L23,15.4l0.1,0.1v0.1h-0.2v0.1l0.1,0.1v0.4l-0.2,0.3l-0.1,1.8l-0.2,1.5
		l0.4,0.4l-0.1,0.7l0.5,0.2h0.4c0-0.2,0.2-0.6,0.6-1v-0.2L24,19.2l0.1-0.1H24l0.1-0.1v-0.1L24,18.8v-0.6c0.1-1.8,0.4-3.5,0.9-4.9
		h-0.1l0.1-0.1l-0.2-0.4c-0.3,0-0.4-0.1-0.4-0.3L23.3,12.6z M20.2,19.7v0.2L19.9,20v-0.2L20.2,19.7z M21,19.5l0.1,0.4v0.2H21
		l-0.1-0.4v-0.2H21z M19.6,19.4h0.1v-0.6h-0.2L19.6,19.4z M19.1,16.4L19.1,16.4c0.1,0.1-0.2,0.2-0.8,0.3h-0.2v-0.1L19.1,16.4z
		 M16.6,16.3l-0.2,0.4h-0.1l0.1-0.4H16.6z M17.4,16.2v0.3l-0.1,0.1h-0.1L17.4,16.2L17.4,16.2z M16.8,15.8l-0.1,0.3h-0.1v-0.2
		L16.8,15.8L16.8,15.8z M17.9,14.9V15l-0.3,0.9h-0.1l-0.1-0.4h0.1l0.1,0.1L17.9,14.9L17.9,14.9z M18.8,14.3l0.4,1.5
		c-0.1,0.4-0.4,0.6-1.1,0.6h-0.2L18.8,14.3L18.8,14.3z M19.3,12c-0.4,0-0.8,0.1-1.3,0.4v-0.1l0.1-0.1h-0.4l-0.5,1.4
		c0.2,0,0.3,0.1,0.3,0.2v0.1h-0.1l-0.1-0.1h-0.1L17,14.2v0.1l0.1,0.1H17l-0.1-0.1l-0.1,0.5v0.4h0.1l0.1-0.1l-0.1,0.5
		c-0.1,0-0.2-0.1-0.2-0.3h-0.1l-1.7,4.1l0.3,0.3l-0.1,0.6l0.2,0.2c0-0.5,0.1-0.8,0.3-0.8h0.1l-0.2,0.6l0.3,0.2v-0.1h0.1l0.1,0.1h0.3
		v-0.2c0.2-0.2,0.4-0.7,0.6-1.4c0-0.4,0.7-0.7,2.1-1v-0.2l-0.5,0.1l-0.4-0.1l-0.7,0.2v-0.2l2.2-0.5v0.6l0.1,0.1h-0.1l-0.1-0.1h-0.1
		v0.4l0.1-0.1h0.1l-0.1,0.1v0.4h0.1v-0.3h0.2v0.3l-0.1,0.1c0.1,0,0.2,0.3,0.3,0.9v0.1l-0.3-0.2l0.2,1.2H20v-0.4h0.1l0.5,1.7
		c0.1,0,0.2-0.1,0.2-0.3h0.1l0.1,0.1h0.1L21,21.5v-0.1c0.1,0,0.2,0.1,0.2,0.3h0.2l-0.3-1.5h0.1l0.1,0.1v-0.6l-0.1-1.2l0.1-0.1h-0.1
		l0.1-0.1l-0.1-0.6l0.1-0.3l-0.2-0.6c0.7-0.1,1-0.3,1-0.4v-0.1h-0.8c0-0.1-0.1-0.2-0.3-0.2V16l0.6-0.1v-0.1h-0.7l-0.8-3.5
		C19.6,12.3,19.4,12.2,19.3,12z M8.9,20.3L8.9,20.3L8.9,20.3l0.3-0.1v-0.1H9.1L8.9,20.3z M10.3,19.6l0.3-0.1h0.1v0.1l-0.2,0.2h-0.2
		L10.3,19.6L10.3,19.6z M11.8,19.2L11.8,19.2L11.8,19.2l-0.4,0.3H11v-0.1L11.8,19.2z M14,18.1v0.1c-0.3,0.4-0.5,0.6-0.7,0.6L14,18.1
		z M14,17l-0.2,0.4h-0.1L14,17L14,17z M15,16.3v0.2L14.5,18h-0.1v-0.1L15,16.3L15,16.3z M14.3,15.5l0.1,0.5l-0.1,0.4v0.3h-0.2
		L14.3,15.5L14.3,15.5z M13.4,14.1l0.3,0.2v0.1l-0.4-0.2L13.4,14.1L13.4,14.1z M12.4,14.1c1,0.1,1.5,0.6,1.5,1.3v0.3
		c0,0.6-0.3,1.2-0.8,1.7h0.2v0.1c-1.6,0.7-2.6,1-3,1c0.1-1.6,0.3-3,0.6-4.2c0.3,0,0.4-0.1,0.4-0.2C11.3,14.1,12.4,14.1,12.4,14.1z
		 M9.8,13.4v0.2l-0.5,2.8H9.2v-0.1l0.5-2.9H9.8z M9.9,12.6l-0.1-0.1H9.7c-0.5,1.4-0.8,3.6-1,6.6c0,0.2,0.2,0.4,0.6,0.7v0.1L9.2,20
		l0.1,0.1v0.6h0.3v-0.4c0.3,0,0.4,0.1,0.4,0.3l1-0.1c2.8-0.9,4.2-2.2,4.2-3.9v-0.5l-0.1-0.5l0.1-0.1l-0.5-1c-1-1.3-2-2-3.2-2
		l-0.7,0.1l-0.3-0.2h-0.4L9.9,12.6z"/>
</g>
</svg>
