<?xml version="1.0" encoding="utf-8"?>
<!-- Generator: Adobe Illustrator 25.4.1, SVG Export Plug-In . SVG Version: 6.00 Build 0)  -->
<svg version="1.1" xmlns="http://www.w3.org/2000/svg" xmlns:xlink="http://www.w3.org/1999/xlink" x="0px" y="0px"
	 viewBox="0 0 1027 261.3" style="enable-background:new 0 0 1027 261.3;" xml:space="preserve">
<style type="text/css">
	.st0{fill:#FFFFFF;}
	.st1{fill:#D85111;}
</style>
<g id="Layer_1">
</g>
<g id="Layer_2">
	<g>
		<g>
			<g>
				<g>
					<path class="st0" d="M0,261.3c0-1.7,0-2.9,0-4.1C0,182.8,0,108.4,0,34C0,13.3,15.5-0.7,36.2,0c20.1,0.7,40.2,0.4,60.3,0.3
						c12.5,0,24.2,2.8,34.9,9.3c15.8,9.5,26,23.2,30,41.2c4.2,18.6,0.9,35.9-9.9,51.7c-0.7,1-1.3,2-2,3.1c3.8,2.3,7.6,4.4,11.1,6.8
						c18.6,12.9,30.3,30.5,34.1,52.9c6.7,39-13.7,75.5-50.4,90.3c-9.2,3.7-18.8,5.6-28.7,5.7c-37.4,0.1-74.8,0-112.2,0
						C2.4,261.3,1.4,261.3,0,261.3z"/>
				</g>
			</g>
		</g>
		<path class="st1" d="M34.3,0.5c19.4,3.1,31,19.2,30.7,29.9c-0.5,18.9,0,71.2,0,100.8l0,0C206.3,138.4,175.3,1.4,104.1,0.5
			L34.3,0.5z"/>
	</g>
	<path class="st1" d="M319.7,195.8h-31.9v-120h24.6c17.8,0,25.4,1.3,32.5,5.9c8.7,5.6,13.6,14.9,13.6,26.2
		c0,11.2-3.7,17.5-13.3,22.6c15.3,6.3,20.5,15.5,20.5,29.7C365.7,182,350.6,195.8,319.7,195.8z M319.1,97.6H310v24.5h7.1
		c13.5,0,19.2-3.7,19.2-12.4C336.3,101.6,330.6,97.6,319.1,97.6z M320.5,143.9H310v30.7h11c15.6,0,22.3-4.5,22.3-14.9
		C343.3,149,336,143.9,320.5,143.9z"/>
	<path class="st1" d="M374.2,195.8v-90h21.6v90H374.2z M374.4,92.9V71.3h21.6v21.6H374.4z"/>
	<path class="st1" d="M453.2,198c-26.6,0-48-20.9-48-47.1c0-26.5,20.8-47.1,47.4-47.1c20.5,0,38.3,11.5,45.3,32.2h-24.3
		c-4.4-8.2-11.2-12.4-20.9-12.4c-14.9,0-25.7,11.3-25.7,27.1s11.2,27.4,26.2,27.4c9,0,15.1-3.6,20.5-11.9h24.3
		C490.4,186.5,474.3,198,453.2,198z"/>
	<path class="st1" d="M551.9,198c-26.3,0-47.7-21.1-47.7-47.1c0-25.9,21.4-47.1,47.6-47.1c27.1,0,48,20.9,48,47.7
		C599.7,176.9,577.9,198,551.9,198z M551.9,123.6c-14.1,0-26,12.2-26,27c0,15.5,11.5,27.6,26.2,27.6c14.3,0,26-12.2,26-27.3
		C577.9,136,566.3,123.6,551.9,123.6z"/>
	<path class="st1" d="M666.6,195.8v-44c0-24-6.5-28.2-17.2-28.2c-6.8,0-12.5,2.9-15.9,8.2c-2.8,4.4-3.6,9.6-3.6,21.6v42.4h-21.6v-90
		h20v8.7c7.9-7.6,15.1-10.7,25.4-10.7c12.5,0,22.3,4.5,28.1,13c4.8,7,6.5,14.7,6.5,30.8v48.2H666.6z"/>
	<path class="st1" d="M744.5,198c-26.3,0-47.7-21.1-47.7-47.1c0-25.9,21.4-47.1,47.6-47.1c27.1,0,48,20.9,48,47.7
		C792.3,176.9,770.5,198,744.5,198z M744.5,123.6c-14.1,0-26,12.2-26,27c0,15.5,11.5,27.6,26.2,27.6c14.3,0,26-12.2,26-27.3
		C770.5,136,758.9,123.6,744.5,123.6z"/>
	<path class="st1" d="M914.2,195.8v-49.4c0-18-6.8-22.9-16.9-22.9c-12.1,0-18.1,6.5-18.1,27.9v44.3h-21.6v-49.4
		c0-17.7-6.2-22.9-17.5-22.9c-12.5,0-17.5,6.7-17.5,27.9v44.3h-21.6v-90h19.8v8.5c6.3-7.6,12.8-10.5,23.4-10.5
		c12.4,0,20.3,4.2,26.5,14c7.3-9.8,16.3-14,28.9-14c23.7,0,36.4,13.2,36.4,40.1v51.9H914.2z"/>
	<path class="st1" d="M975.1,225.9h-23.2l16.9-38.4l-33-81.5h24.6l20,58.3l21.7-58.3h24.8L975.1,225.9z"/>
</g>
</svg>
