<?xml version="1.0" encoding="utf-8"?>
<!-- Generator: Adobe Illustrator 25.4.1, SVG Export Plug-In . SVG Version: 6.00 Build 0)  -->
<svg version="1.1" id="layer" xmlns="http://www.w3.org/2000/svg" xmlns:xlink="http://www.w3.org/1999/xlink" x="0px" y="0px"
	 viewBox="0 0 600 140.5" style="enable-background:new 0 0 600 140.5;" xml:space="preserve">
<style type="text/css">
	.st0{fill:#FFFFFF;}
	.st1{fill:#FABF2C;}
</style>
<g id="Page-1">
	<g id="CT-logo-BlackYellow-tag">
		<g id="Atoms_x2F_Icons_x2F_logos_x2F_CT-GY-icon">
			<g id="Group">
				<path id="Shape" class="st0" d="M87.1,102.2l-25,10.9V112c-4.8,1.2-10.2,1.9-15.2,2.2C23.3,114,4.7,101.6,4.4,87v-5.4
					c7.7,11.2,23.5,18.8,42.5,18.5c6.4,0.3,13-0.7,18.5-2.2l2.2-5.4c-6.5,2-13.7,3.3-20.7,3.3c-23.6,0-42.2-12.3-42.5-27.2v-4.4
					c7.7,10.4,23.5,17.9,42.5,17.4c8.6,0.5,16.9-1.3,24-4.4l1.1-5.4c-6.9,3.6-15.8,5.7-25,5.4C23.4,77.5,4.8,65.2,4.5,50v-4.4
					C12.2,56.2,28,63.8,47,64.1c10.8-0.3,21-3.2,29.4-7.6l1.1-6.5c-7.6,5.6-18.7,9.3-30.5,9.8C23.4,59.3,4.8,46.9,4.5,31.5
					C4.7,16.8,23.4,4.5,47,4.3c14,0.2,27.1,5.1,34.8,13.1l0.8,1.3h5.5l-0.8-1.3C79.6,6.9,64.1,0,47,0C20.8-0.1,0,14.2,0,31.4v1.1V88
					c0.9,16.8,21.2,30.5,46.8,30.5C63.7,118.6,79,111.9,87.1,102.2z"/>
				<path id="Shape_1_" class="st1" d="M76.9,140.5l8.8-37.4l-25.3,11l15.4-64.8H46.2l7.7-31.9h94.5l-7.7,31.9h-30.8l-6.6,17.6
					l34.1-14.3L76.9,140.5z M92.3,95.5l-4.4,22l36.3-54.9L94.5,75.8L107.7,45h29.7l5.5-23.1H57.1L51.6,45h29.7L67,106.5L92.3,95.5z"
					/>
			</g>
		</g>
		<path id="Shape_2_" class="st0" d="M211.1,38.8v0.1c0.1,3.5-1,6.2-3.2,8.2s-5.2,3-9.1,3c-3.9,0-7.1-1.3-9.5-3.8s-3.6-5.8-3.6-9.8
			V30c0-4,1.2-7.3,3.5-9.8c2.4-2.5,5.5-3.8,9.3-3.8c4,0,7.1,1,9.4,2.9c2.3,2,3.4,4.7,3.3,8.2v0.1h-6.4c0-2.1-0.5-3.7-1.5-4.7
			s-2.6-1.5-4.7-1.5c-2,0-3.5,0.8-4.6,2.4s-1.7,3.6-1.7,6.1v6.6c0,2.5,0.6,4.6,1.7,6.2c1.2,1.6,2.8,2.4,4.9,2.4c2,0,3.4-0.5,4.4-1.5
			s1.5-2.6,1.5-4.7h6.3V38.8z M247.3,36.2c0,4-1.3,7.4-3.8,10s-5.8,3.9-9.9,3.9s-7.3-1.3-9.9-3.9c-2.5-2.6-3.8-6-3.8-10v-5.9
			c0-4,1.3-7.3,3.8-10c2.5-2.6,5.8-4,9.8-4c4.1,0,7.4,1.3,9.9,4c2.6,2.6,3.8,6,3.8,10L247.3,36.2L247.3,36.2z M240.7,30.2
			c0-2.6-0.6-4.6-1.9-6.3c-1.3-1.6-3-2.5-5.3-2.5c-2.2,0-4,0.8-5.2,2.5c-1.2,1.6-1.9,3.7-1.9,6.3v5.9c0,2.6,0.6,4.7,1.9,6.4
			c1.2,1.6,3,2.5,5.2,2.5c2.3,0,4-0.8,5.3-2.5c1.3-1.6,1.9-3.8,1.9-6.4V30.2z M264.3,49.6h-6.6V16.8h6.6V49.6z M302.2,49.6h-6.6
			l-13.2-22.1h-0.1v22.1h-6.6V16.8h6.6l13.2,22.1h0.1V16.8h6.6V49.6z M335.3,21.9h-9.4v27.7h-6.6V21.9h-9.2v-5.1h25.2V21.9z
			 M362.5,35.2h-12.2v9.4h14.5v5h-21V16.8h21v5.1h-14.4v8.2h12.2v5.1H362.5z M380.8,44.6h14.7v5h-21.3V16.8h6.6L380.8,44.6
			L380.8,44.6z M423.5,35.2h-12.2v9.4h14.5v5h-21V16.8h21v5.1h-14.4v8.2h12.2v5.1H423.5z M460.4,45.2c-1,1.3-2.5,2.5-4.6,3.5
			c-2,1-4.6,1.5-7.8,1.5c-4,0-7.2-1.2-9.7-3.7s-3.8-5.7-3.8-9.7v-6.9c0-4,1.2-7.2,3.7-9.7c2.4-2.5,5.6-3.8,9.4-3.8
			c4,0,7.1,1,9.2,2.9s3.2,4.4,3.1,7.6V27h-6.2c0-1.7-0.5-3.1-1.5-4.1s-2.5-1.5-4.4-1.5c-2,0-3.6,0.8-4.9,2.3c-1.2,1.6-1.8,3.6-1.8,6
			v6.9c0,2.5,0.6,4.5,1.9,6.1s3,2.3,5.1,2.3c1.6,0,2.8-0.2,3.7-0.5c0.9-0.3,1.6-0.7,2.1-1.2v-6.4h-6.3v-4.6h12.9v12.9H460.4z
			 M477.4,36.5v13.1h-6.6V16.8h11.4c3.7,0,6.7,0.9,8.8,2.6c2.1,1.7,3.2,4.1,3.2,7.1c0,1.7-0.4,3.1-1.3,4.4c-0.9,1.2-2.2,2.2-3.9,3
			c1.9,0.6,3.3,1.5,4.2,2.9c0.8,1.3,1.3,3,1.3,5v2.4c0,0.9,0.1,1.9,0.4,2.9c0.2,1,0.7,1.7,1.3,2.2v0.5h-6.8c-0.6-0.5-1-1.3-1.2-2.4
			s-0.3-2.2-0.3-3.2v-2.3c0-1.6-0.4-2.9-1.3-3.8s-2.2-1.4-3.8-1.4h-5.4V36.5z M477.4,31.5h4.7c1.8,0,3.2-0.4,4.1-1.2
			s1.4-1.9,1.4-3.5c0-1.5-0.5-2.7-1.4-3.6s-2.2-1.3-4-1.3h-4.8L477.4,31.5L477.4,31.5z M522.1,42.6h-10.6l-2.2,7.1h-6.9l11.1-32.8
			h6.7l11,32.8h-6.9L522.1,42.6z M513.1,37.4h7.4l-3.6-11.6h-0.1L513.1,37.4z M545.8,37.7v11.9h-6.6V16.8h12.6c3.8,0,6.7,1,8.9,2.9
			s3.2,4.5,3.2,7.6s-1.1,5.7-3.2,7.6c-2.2,1.9-5.1,2.9-8.9,2.9h-6V37.7z M545.8,32.7h6c1.8,0,3.2-0.5,4.2-1.5c0.9-1,1.4-2.3,1.4-3.8
			c0-1.6-0.5-2.9-1.4-3.9s-2.3-1.5-4.2-1.5h-6V32.7z M600,49.6h-6.6V36H580v13.6h-6.6V16.8h6.6v14.1h13.4V16.8h6.6V49.6z"/>
		<g id="Tag_x2F_The-future-of-money-_x2014_-dark-grey" transform="translate(169.000000, 69.000000)">
			<path id="The-future-of-money" class="st0" d="M28.7,34.2h-4.1V12.6h-7.4V9.1h18.9v3.5h-7.4C28.7,12.6,28.7,34.2,28.7,34.2z
				 M56.2,34.2h-4.1V22.5c0-1.5-0.3-2.6-0.9-3.3c-0.6-0.7-1.5-1.1-2.8-1.1c-1.7,0-2.9,0.5-3.7,1.5c-0.8,1-1.2,2.7-1.2,5.1v9.4h-4
				V7.4h4v6.8c0,1.1-0.1,2.2-0.2,3.5h0.3c0.5-0.9,1.3-1.6,2.3-2.1s2.1-0.8,3.4-0.8c4.6,0,6.9,2.3,6.9,7V34.2z M70.1,34.5
				c-3,0-5.3-0.9-6.9-2.6c-1.7-1.7-2.5-4.1-2.5-7.1c0-3.1,0.8-5.5,2.3-7.3s3.7-2.7,6.4-2.7c2.5,0,4.5,0.8,5.9,2.3
				c1.5,1.5,2.2,3.6,2.2,6.3v2.2H64.8c0.1,1.8,0.6,3.3,1.5,4.2c0.9,1,2.3,1.5,4,1.5c1.1,0,2.2-0.1,3.1-0.3c1-0.2,2-0.6,3.1-1.1v3.3
				c-1,0.5-2,0.8-3,1C72.6,34.4,71.4,34.5,70.1,34.5z M69.4,17.9c-1.3,0-2.3,0.4-3.1,1.2c-0.8,0.8-1.2,2-1.4,3.6h8.6
				c0-1.6-0.4-2.8-1.1-3.6C71.7,18.3,70.7,17.9,69.4,17.9z M100.7,18.2h-4.6v16H92v-16h-3.1v-1.9l3.1-1.2v-1.2c0-2.2,0.5-3.9,1.6-5
				s2.7-1.6,4.8-1.6c1.4,0,2.8,0.2,4.2,0.7l-1.1,3.1c-1-0.3-1.9-0.5-2.9-0.5c-0.9,0-1.6,0.3-2,0.8C96.2,12,96,12.8,96,13.9v1.2h4.6
				L100.7,18.2L100.7,18.2z M117.4,34.2l-0.6-2.5h-0.2c-0.6,0.9-1.4,1.6-2.4,2.1s-2.2,0.8-3.5,0.8c-2.3,0-4-0.6-5.2-1.7
				c-1.2-1.1-1.7-2.9-1.7-5.2V15.2h4.1v11.7c0,1.5,0.3,2.5,0.9,3.3c0.6,0.7,1.5,1.1,2.8,1.1c1.7,0,2.9-0.5,3.7-1.5s1.2-2.7,1.2-5.1
				v-9.5h4.1v19H117.4z M133.4,31.2c1,0,2-0.2,3-0.5v3c-0.4,0.2-1,0.4-1.7,0.5s-1.4,0.2-2.2,0.2c-3.8,0-5.7-2-5.7-6V18.2h-2.6v-1.8
				l2.8-1.5l1.4-4h2.5v4.2h5.4v3.1h-5.4v10.2c0,1,0.2,1.7,0.7,2.2C131.9,31,132.6,31.2,133.4,31.2z M153.5,34.2l-0.6-2.5h-0.2
				c-0.6,0.9-1.4,1.6-2.4,2.1s-2.2,0.8-3.5,0.8c-2.3,0-4-0.6-5.2-1.7c-1.1-1.1-1.7-2.9-1.7-5.2V15.2h4.1v11.7c0,1.5,0.3,2.5,0.9,3.3
				c0.6,0.7,1.5,1.1,2.8,1.1c1.7,0,2.9-0.5,3.7-1.5s1.2-2.7,1.2-5.1v-9.5h4.1v19H153.5z M172.1,14.8c0.8,0,1.5,0.1,2,0.2l-0.4,3.8
				c-0.6-0.1-1.2-0.2-1.8-0.2c-1.6,0-2.9,0.5-3.9,1.6s-1.5,2.4-1.5,4.1v9.9h-4v-19h3.2l0.5,3.3h0.2c0.6-1.1,1.5-2,2.5-2.7
				C169.8,15.2,170.9,14.8,172.1,14.8z M185.2,34.5c-3,0-5.3-0.9-6.9-2.6c-1.7-1.7-2.5-4.1-2.5-7.1c0-3.1,0.8-5.5,2.3-7.3
				s3.7-2.7,6.4-2.7c2.5,0,4.5,0.8,5.9,2.3c1.5,1.5,2.2,3.6,2.2,6.3v2.2h-12.7c0.1,1.8,0.6,3.3,1.5,4.2c0.9,1,2.3,1.5,4,1.5
				c1.1,0,2.2-0.1,3.1-0.3c1-0.2,2-0.6,3.1-1.1v3.3c-1,0.5-2,0.8-3,1C187.6,34.4,186.5,34.5,185.2,34.5z M184.5,17.9
				c-1.3,0-2.3,0.4-3.1,1.2c-0.8,0.8-1.2,2-1.4,3.6h8.6c0-1.6-0.4-2.8-1.1-3.6C186.7,18.3,185.7,17.9,184.5,17.9z M223.1,24.6
				c0,3.1-0.8,5.5-2.4,7.3c-1.6,1.7-3.8,2.6-6.6,2.6c-1.8,0-3.3-0.4-4.7-1.2s-2.4-2-3.1-3.5c-0.7-1.5-1.1-3.2-1.1-5.2
				c0-3.1,0.8-5.5,2.4-7.2s3.8-2.6,6.7-2.6c2.7,0,4.9,0.9,6.5,2.7S223.1,21.6,223.1,24.6z M209.3,24.6c0,4.4,1.6,6.6,4.9,6.6
				c3.2,0,4.8-2.2,4.8-6.6c0-4.3-1.6-6.5-4.8-6.5c-1.7,0-2.9,0.6-3.7,1.7S209.3,22.5,209.3,24.6z M237.3,18.2h-4.6v16h-4.1v-16h-3.1
				v-1.9l3.1-1.2v-1.2c0-2.2,0.5-3.9,1.6-5s2.7-1.6,4.8-1.6c1.4,0,2.8,0.2,4.2,0.7l-1.1,3.1c-1-0.3-1.9-0.5-2.9-0.5
				c-0.9,0-1.6,0.3-2,0.8s-0.6,1.4-0.6,2.5v1.2h4.6v3.1H237.3z M265.7,34.2h-4.1V22.5c0-1.5-0.3-2.5-0.8-3.3
				c-0.5-0.7-1.4-1.1-2.6-1.1c-1.6,0-2.7,0.5-3.4,1.5c-0.7,1-1.1,2.7-1.1,5.1v9.5h-4v-19h3.2l0.6,2.5h0.2c0.5-0.9,1.3-1.6,2.3-2.1
				s2.1-0.7,3.3-0.7c2.9,0,4.9,1,5.8,3h0.3c0.6-0.9,1.4-1.7,2.4-2.2s2.2-0.8,3.5-0.8c2.3,0,3.9,0.6,5,1.7c1,1.1,1.6,2.9,1.6,5.2
				v12.4h-4V22.5c0-1.5-0.3-2.5-0.8-3.3c-0.6-0.7-1.4-1.1-2.6-1.1c-1.6,0-2.7,0.5-3.4,1.5c-0.7,1-1.1,2.5-1.1,4.5v10.1H265.7z
				 M300.1,24.6c0,3.1-0.8,5.5-2.4,7.3c-1.6,1.7-3.8,2.6-6.6,2.6c-1.8,0-3.3-0.4-4.7-1.2c-1.4-0.8-2.4-2-3.1-3.5s-1.1-3.2-1.1-5.2
				c0-3.1,0.8-5.5,2.4-7.2s3.8-2.6,6.7-2.6c2.7,0,4.9,0.9,6.5,2.7C299.3,19.3,300.1,21.6,300.1,24.6z M286.3,24.6
				c0,4.4,1.6,6.6,4.9,6.6c3.2,0,4.8-2.2,4.8-6.6c0-4.3-1.6-6.5-4.8-6.5c-1.7,0-2.9,0.6-3.7,1.7C286.7,20.9,286.3,22.5,286.3,24.6z
				 M321.5,34.2h-4.1V22.5c0-1.5-0.3-2.6-0.9-3.3c-0.6-0.7-1.5-1.1-2.8-1.1c-1.7,0-3,0.5-3.7,1.5s-1.2,2.7-1.2,5.1v9.5h-4v-19h3.2
				l0.6,2.5h0.2c0.6-0.9,1.4-1.6,2.4-2.1s2.2-0.7,3.5-0.7c4.6,0,6.8,2.3,6.8,7V34.2z M335.4,34.5c-3,0-5.3-0.9-6.9-2.6
				c-1.7-1.7-2.5-4.1-2.5-7.1c0-3.1,0.8-5.5,2.3-7.3s3.7-2.7,6.4-2.7c2.5,0,4.5,0.8,5.9,2.3c1.5,1.5,2.2,3.6,2.2,6.3v2.2h-12.7
				c0.1,1.8,0.6,3.3,1.5,4.2c0.9,1,2.3,1.5,4,1.5c1.1,0,2.2-0.1,3.1-0.3s2-0.6,3.1-1.1v3.3c-1,0.5-2,0.8-3,1
				C337.8,34.4,336.7,34.5,335.4,34.5z M334.6,17.9c-1.3,0-2.3,0.4-3.1,1.2c-0.8,0.8-1.2,2-1.4,3.6h8.6c0-1.6-0.4-2.8-1.1-3.6
				S335.9,17.9,334.6,17.9z M343.8,15.2h4.4l3.9,10.8c0.6,1.5,1,3,1.2,4.3h0.1c0.1-0.6,0.3-1.4,0.6-2.3c0.3-0.9,1.7-5.2,4.4-12.8
				h4.4l-8.1,21.5c-1.5,3.9-3.9,5.9-7.4,5.9c-0.9,0-1.8-0.1-2.6-0.3v-3.2c0.6,0.1,1.3,0.2,2.1,0.2c1.9,0,3.3-1.1,4.1-3.4l0.7-1.8
				L343.8,15.2z"/>
		</g>
	</g>
</g>
</svg>
