<?xml version="1.0" encoding="utf-8"?>
<!-- Generator: Adobe Illustrator 25.4.1, SVG Export Plug-In . SVG Version: 6.00 Build 0)  -->
<svg version="1.1" id="Layer_1" xmlns="http://www.w3.org/2000/svg" xmlns:xlink="http://www.w3.org/1999/xlink" x="0px" y="0px"
	 viewBox="0 0 145.6 46.3" style="enable-background:new 0 0 145.6 46.3;" xml:space="preserve">
<style type="text/css">
	.st0{fill:url(#SVGID_1_);}
	.st1{fill:url(#SVGID_00000067944115558919096580000003349085333313301918_);}
	.st2{fill:url(#SVGID_00000116956109403929558550000012844457909831749526_);}
	.st3{fill:#FFFFFF;}
</style>
<g id="Layer_1_00000168839822658608359110000017882743380262183840_">
</g>
<g id="Layer_2_00000022548289635776014370000002665250483533919928_">
	<g>
		
			<linearGradient id="SVGID_1_" gradientUnits="userSpaceOnUse" x1="-471.3636" y1="405.3619" x2="-432.3636" y2="405.3619" gradientTransform="matrix(1 0 0 1 471.3636 -382.2119)">
			<stop  offset="0" style="stop-color:#EC1E24"/>
			<stop  offset="1" style="stop-color:#F06A7A"/>
		</linearGradient>
		<path class="st0" d="M0,46.3L20.7,8L39,0L18.3,38.2L0,46.3z"/>
		
			<linearGradient id="SVGID_00000057834762694560370120000008807994952580368266_" gradientUnits="userSpaceOnUse" x1="-449.4341" y1="409.6119" x2="-424.7038" y2="409.6119" gradientTransform="matrix(1 0 0 1 471.3636 -382.2119)">
			<stop  offset="0" style="stop-color:#EC1E24"/>
			<stop  offset="1" style="stop-color:#F06A7A"/>
		</linearGradient>
		<path style="fill:url(#SVGID_00000057834762694560370120000008807994952580368266_);" d="M21.9,37.5l15.8-29l9,8.8l-15.6,29
			L21.9,37.5z"/>
		
			<linearGradient id="SVGID_00000134227835280693063660000002253931334897793436_" gradientUnits="userSpaceOnUse" x1="-430.0101" y1="407.9619" x2="-410.0646" y2="407.9619" gradientTransform="matrix(1 0 0 1 471.3636 -382.2119)">
			<stop  offset="0" style="stop-color:#EC1E24"/>
			<stop  offset="1" style="stop-color:#F06A7A"/>
		</linearGradient>
		<path style="fill:url(#SVGID_00000134227835280693063660000002253931334897793436_);" d="M49.7,18.1l11.6,4.2l-5.8,10.6l-14.1,0.5
			L49.7,18.1z"/>
	</g>
</g>
<g>
	<path class="st3" d="M67.8,24.1h5.4l5.7,13.8h0.2l5.7-13.8h5.4v20.5h-4.3V31.2h-0.2l-5.3,13.2h-2.9l-5.3-13.3h-0.2v13.4h-4.3V24.1
		H67.8z"/>
	<path class="st3" d="M96.5,44.8c-1.5,0-2.7-0.4-3.7-1.2s-1.5-1.9-1.5-3.4c0-1.1,0.3-2,0.8-2.7c0.5-0.6,1.3-1.1,2.2-1.4
		s1.8-0.5,2.9-0.6c1.3-0.1,2.3-0.3,2.9-0.4c0.6-0.2,0.9-0.5,0.9-1V34c0-0.6-0.2-1.1-0.6-1.5c-0.4-0.4-1-0.5-1.7-0.5
		c-0.8,0-1.4,0.2-1.9,0.5s-0.8,0.8-0.9,1.3l-4-0.3c0.3-1.4,1-2.5,2.2-3.3s2.7-1.2,4.6-1.2c1.1,0,2.2,0.2,3.2,0.5
		c1,0.4,1.8,0.9,2.4,1.7c0.6,0.8,0.9,1.8,0.9,3v10.4H101v-2.1h-0.1c-0.4,0.7-0.9,1.3-1.7,1.8C98.6,44.6,97.7,44.8,96.5,44.8z
		 M97.8,41.9c1,0,1.7-0.3,2.3-0.8s0.9-1.2,0.9-2v-1.6c-0.2,0.1-0.4,0.2-0.8,0.3c-0.4,0.1-0.7,0.2-1.1,0.2c-0.4,0.1-0.8,0.1-1.1,0.2
		c-0.8,0.1-1.4,0.3-1.8,0.6c-0.5,0.3-0.7,0.8-0.7,1.4c0,0.6,0.2,1,0.7,1.3C96.6,41.7,97.1,41.9,97.8,41.9z"/>
	<path class="st3" d="M106.9,44.5V24.1h4.3V35h0.2l5-5.8h4.9l-5.8,6.6l6.1,8.7h-5l-4.3-6.2l-1.2,1.3v4.9
		C111.1,44.5,106.9,44.5,106.9,44.5z"/>
	<path class="st3" d="M127.9,44.8c-1.6,0-2.9-0.3-4.1-1c-1.1-0.6-2-1.6-2.6-2.7c-0.6-1.2-0.9-2.6-0.9-4.2c0-1.6,0.3-3,0.9-4.2
		c0.6-1.2,1.5-2.1,2.6-2.8c1.1-0.7,2.5-1,4-1c1.4,0,2.6,0.3,3.7,0.9c1.1,0.6,2,1.4,2.6,2.6c0.7,1.2,1,2.6,1,4.3v1.2h-10.5
		c0,1.1,0.3,2,1,2.7s1.5,1,2.6,1c0.7,0,1.3-0.2,1.9-0.5c0.5-0.3,0.9-0.8,1.1-1.3l4,0.3c-0.3,1.4-1.1,2.6-2.3,3.4
		C131.4,44.4,129.8,44.8,127.9,44.8z M124.5,35.3h6.5c0-0.9-0.3-1.7-0.9-2.3c-0.6-0.6-1.3-0.9-2.3-0.9s-1.7,0.3-2.3,0.9
		C124.8,33.7,124.5,34.5,124.5,35.3z"/>
	<path class="st3" d="M136.1,44.5V29.2h4.2v2.7h0.2c0.3-0.9,0.8-1.7,1.4-2.2s1.4-0.7,2.3-0.7c0.5,0,0.9,0.1,1.4,0.2V33
		c-0.2-0.1-0.5-0.1-0.8-0.2c-0.4-0.1-0.7-0.1-1-0.1c-1,0-1.7,0.3-2.3,0.9c-0.6,0.6-0.9,1.3-0.9,2.3v8.7L136.1,44.5L136.1,44.5z"/>
</g>
<g>
	<path class="st3" d="M74.9,20.7h-7.3V0.3H75c2.1,0,3.9,0.4,5.4,1.2c1.5,0.8,2.7,2,3.5,3.5s1.2,3.3,1.2,5.5s-0.4,4-1.2,5.5
		c-0.8,1.5-2,2.7-3.5,3.5C78.8,20.3,77,20.7,74.9,20.7z M72,17h2.8c1.9,0,3.4-0.5,4.4-1.6c1-1,1.5-2.7,1.5-5s-0.5-3.9-1.5-5
		c-1-1-2.5-1.5-4.4-1.5H72V17z"/>
	<path class="st3" d="M88.3,20.7h-4.7l7.1-20.4h5.6l7.1,20.4h-4.6L97.3,16h-7.5L88.3,20.7z M90.9,12.7h5.3L93.8,5h-0.2L90.9,12.7z"
		/>
	<path class="st3" d="M121.5,10.5c0,2.2-0.4,4.1-1.3,5.7c-0.8,1.6-2,2.8-3.5,3.6s-3.1,1.2-4.9,1.2s-3.5-0.4-4.9-1.2
		c-1.5-0.8-2.6-2-3.5-3.6c-0.8-1.6-1.3-3.5-1.3-5.7s0.4-4.1,1.3-5.7c0.8-1.6,2-2.8,3.5-3.6c1.5-0.8,3.1-1.2,4.9-1.2s3.5,0.4,4.9,1.2
		c1.5,0.8,2.6,2,3.5,3.6C121,6.4,121.5,8.3,121.5,10.5z M117,10.5c0-2.2-0.5-3.8-1.4-5c-1-1.1-2.2-1.7-3.8-1.7
		c-1.6,0-2.9,0.6-3.8,1.7c-1,1.2-1.4,2.8-1.4,5s0.5,3.8,1.4,5c1,1.1,2.2,1.7,3.8,1.7c1.6,0,2.9-0.6,3.8-1.7
		C116.5,14.3,117,12.7,117,10.5z"/>
</g>
</svg>
