<?xml version="1.0" encoding="utf-8"?>
<!-- Generator: Adobe Illustrator 25.4.1, SVG Export Plug-In . SVG Version: 6.00 Build 0)  -->
<svg version="1.1" id="Layer_1" xmlns="http://www.w3.org/2000/svg" xmlns:xlink="http://www.w3.org/1999/xlink" x="0px" y="0px"
	 viewBox="0 0 2026 795.8" style="enable-background:new 0 0 2026 795.8;" xml:space="preserve">
<style type="text/css">
	.st0{fill:#FFFFFF;}
</style>
<g>
	<path class="st0" d="M0,359.7c0-67.2,0-134.3,0-201.5c0-23.8,6.6-45.7,19.8-65.6c13.6-20.4,31.9-35.2,54.7-44.3
		c36.2-14.6,73.5-25.9,111.8-33.9c18.2-3.8,36.4-6.9,54.8-9.2c16.2-2,32.4-3.4,48.7-4.3c20-1.1,40-1.1,60-0.5
		c12.6,0.4,25.2,1.4,37.8,2.5c12.3,1.1,24.5,2.5,36.7,4.2c18,2.6,35.9,6,53.7,10.1c33.7,7.8,66.7,17.8,98.7,31
		c37.7,15.6,61.7,43.4,71.7,83c2.1,8.1,2.9,16.4,3.2,24.7c0.1,2.1,0.1,4.2,0.1,6.2c0,131.9,0,263.8,0,395.8
		c0,12.5-1.4,24.9-5.1,36.9c-8.1,26-23.4,46.7-45.9,61.9c-13,8.8-26,17.4-39.1,26.1c-37.4,24.9-74.8,49.8-112.1,74.8
		c-24.5,16.4-51,27.7-79.9,33.6c-20.7,4.2-41.5,5.4-62.5,3.5c-38.3-3.3-73.2-15.9-105-37.2c-49.2-32.9-98.4-65.7-147.6-98.5
		c-11.4-7.6-21.7-16.3-30.1-27.2c-13-16.8-21-35.8-23.4-56.9c-0.6-4.9-0.8-9.9-0.8-14.8C0,493.4,0,426.6,0,359.7z M464.2,518.2
		c-5-10.1-9.7-19.8-14.6-29.3c-2.4-4.7-5.3-9.1-8.1-13.6c-2.5-3.9-5.7-7.3-9.3-10.3c-5.3-4.5-11.4-7-18.2-7.9
		c-2.1-0.3-4.1-0.1-6,1.1c-3.4,2.2-6.9,4.1-10,6.6c-6.7,5.2-13.2,10.6-19.8,16c-0.2,0.2-0.5,0.4-0.7,0.6c-2.2,2.2-2,5.1,0.5,7
		c0.6,0.5,1.3,0.9,2,1.3c3.9,2.2,7.7,4.5,11.7,6.6c7.3,3.8,14.9,6.6,23.1,7.7c2.5,0.3,4.6,1.4,6.3,3.2c1.5,1.6,3,3.3,4.2,5.2
		c6,9.7,9.3,20.3,10.1,31.6c0.2,3.4-0.5,6.6-2.1,9.7c-3.3,6.4-6,13.1-8.1,20c-2.7,9-5.3,18.1-7.7,27.2c-2.9,11-5.6,22-9.5,32.7
		c-1.3,3.7-3,7.4-4.7,11c-1.2,2.6-3,4.9-5.2,6.8c-3.9,3.3-8.3,4.8-13.3,3.5c-1.5-0.4-3.1-0.8-4.6-1.4c-3.2-1.4-6-0.7-8.5,1.3
		c-2,1.6-3.7,3.5-5.6,5.2c-2.4,2.1-4.7,4.3-7.2,6.3c-1.7,1.4-3.7,2.5-5.4,4c-7.4,6.3-15.8,10.2-25.6,10.7c-4.8,0.2-9.6,0.6-14.4,0.6
		c-5.3,0-7.5-2.5-7.5-7.8c0-2.9,0.7-5.7,1.9-8.4c5-11.6,9.9-23.2,14.9-34.8c0.8-1.9,2-3.6,3.4-5.2c2.9-3.4,6.6-5.1,11.1-3.8
		c1.7,0.5,3.2,0.2,4.6-0.6c1-0.5,2-1,3-1.6c3.2-1.8,6.4-2.8,10.1-1.4c0.4,0.2,0.9,0,1.7,0c0.8-5.5,4.3-9.1,8.6-12.1
		c5.5-3.8,9.7-8.7,13.2-14.4c5.5-8.9,9-18.7,11.8-28.7c2.3-8.2-1.8-15.8-9.6-19.2c-1.3-0.6-2.7-1.1-4.1-1.4
		c-4.4-0.7-8.8-1.6-13.3-1.9c-5.9-0.3-11.8-0.1-17.7-0.2c-5.1-0.1-10.2-0.4-15.3-0.7c-3-0.2-6-0.1-9.1,0.5c-5,0.9-10.1,1.8-15.2,2.1
		c-11.7,0.8-23.3-0.1-34.8-2.4c-5.3-1.1-10.7-2-16-2.8c-3.2-0.5-5.7,0.4-8.2,2.8c-7.5,7-15.2,13.7-23.1,20.2
		c-11.8,9.7-24.5,17.9-38.7,23.8c-3.5,1.5-7,3.2-10.5,4.7c-17.4,7.6-34.8,15.2-52.2,22.9c-1.4,0.6-3.1,0.8-4,2.5
		c1.3,0.9,2.4,1.7,3.6,2.5c40.3,26.9,80.6,53.8,120.9,80.7c21,14,44,22.5,69.2,24.9c15.1,1.5,30,0.5,44.8-2.7
		c18.5-4,35.6-11.4,51.3-21.9c42.5-28.4,85.1-56.8,127.7-85.2c8-5.3,16-10.6,23.9-16c9.3-6.3,15.2-14.9,17.7-25.8
		c1-4.2,1.1-8.5,1.1-12.9c0-139,0-277.9,0-416.9c0-1.3,0-2.6,0-3.8c-0.1-5.3-2.4-9.1-7.4-11.2c-10.6-4.5-21-9.3-31.8-13.4
		C492.1,94,443.3,82.3,393,76.7c-15.7-1.7-31.5-3-47.4-3.4c-22.2-0.7-44.5-0.3-66.7,1.5c-17.4,1.4-34.7,3.4-51.9,6.2
		c-28.4,4.7-56.4,11.4-83.8,20.1c-21.3,6.8-42.3,14.6-62.4,24.5c-0.6,0.3-1.2,0.5-1.7,0.8c-3.9,2-6,5.2-6.1,9.6
		c-0.1,1.6,0,3.2,0,4.8c0,81.7,0,163.4,0,245.1c0,1.4,0,2.9,0,4.3c0,0.4,0.2,0.8,0.5,1.7c1.1-1,2.1-1.8,2.9-2.7
		c8.8-9.7,17.7-19.3,26.3-29.2c8.7-10,17-20.4,24.1-31.7c2.9-4.6,5.5-9.4,7.8-14.3c1.4-2.8,2.2-6,2.9-9.1c1.2-5.9-0.4-9-5.5-12
		c-9.3-5.3-19-7.3-29.5-4.3c-0.8,0.2-1.8,0.8-2.5-0.4c0.3-0.4,0.5-0.8,0.8-1.1c11.7-9.8,24-18.6,37.7-25.3
		c6.7-3.2,13.5-5.7,20.9-6.6c1.1-0.1,2.2-0.5,3.2-0.9c2.5-1,3.8-3,3.6-5.6c-0.1-1.7-0.4-3.5-1-5.1c-1.3-3.3-2.8-6.5-4.4-9.6
		c-2.5-4.8-5.2-9.5-7.5-14.4c-1.9-4-3.6-8.2-4.9-12.5c-1.5-4.8-2.1-9.7-0.5-14.6c0.2-0.5,0.6-1,0.9-1.5c0.4,0.2,0.6,0.2,0.7,0.3
		c0.7,1.4,1.4,2.8,2,4.3c3.9,8.2,10.4,12.5,19.4,12.4c7.3-0.1,14.2-2,20.5-6c2-1.3,3.8-2.9,5.3-4.8c4-5.1,3.6-11.4-1.1-16.1
		c-1.3-1.3-3-2.4-4.6-3.4c-4.6-2.7-9.7-4.1-15-4.8c-0.9-0.1-1.7-0.3-3-0.5c1.4-2.2,3.3-2.6,5-3.2c7.7-2.7,15.6-3.5,23.6-2.8
		c3.3,0.3,6.7,0.9,10,1.1c2.4,0.2,4.8,0.1,7.1-0.3c4.8-0.7,8.6-3.3,12-6.6c3.7-3.6,6.5-7.9,9-12.4c2.3-4.2,4.5-8.5,6.9-12.6
		c1.7-2.9,3.4-5.8,5.4-8.5c4.5-6.2,11.3-6.9,17.1-4.7c2.4,0.9,4.6,2.2,6.8,3.4c2.4,1.3,4.7,2.7,7.1,3.9c4.9,2.4,10,3,15.4,2.2
		c9-1.4,18-2.8,27-4.1c10.5-1.4,21-2,31.6-1.2c3.8,0.3,7.6,1.1,11.3,1.9c4.1,1,7.7,3,11,5.6c4.1,3.3,8.4,6.4,12.7,9.4
		c3.8,2.6,7.9,4.8,12.4,6.3c2.4,0.8,4.9,1.3,7.4,1.7c3.9,0.5,7.3-0.6,9.9-3.6c0.5-0.5,1.2-0.8,2-1.3c0.4,2.4,0.8,4.5,1.2,6.5
		c1.1,5.8,2.5,11.5,4.8,17c2,4.8,4.8,9,8.9,12.2c3.5,2.8,6.9,5.7,10.1,8.8c4.8,4.6,9.7,9.3,14.2,14.3c10.4,11.8,14.3,25.8,12.9,41.4
		c-0.5,5.2-1.9,10.1-4.7,14.5c-1.3,2-3,3.7-4.5,5.5c-0.5,0.6-1.2,1-2.3,0.5c0-1-0.1-2,0-3.1c0.4-4.8,0.4-9.6-1-14.3
		c-0.8-2.8-1.9-5.4-4-7.6c-3.1-3.2-7.1-3.9-10.9-1.5c-2,1.3-3.8,2.9-5.4,4.7c-2.8,3.1-4.8,6.8-6.6,10.5c-3.4,7.1-6.1,14.4-7.6,22.2
		c-2.4,12.9-4.6,25.8-6.7,38.7c-2.2,13.1-4.4,26.2-7.7,39c-1.8,6.8-3.7,13.6-6.8,19.9c-1.5,3.1-3.4,6.1-5.5,9
		c-2.5,3.4-6,5.1-10.3,5.3c-4,0.2-8,0-11.9-0.7c-7.8-1.5-13.9-5.4-18-12.3c-1.3-2.2-2.3-4.5-3.3-6.9c-1.9-4.8-2.9-9.8-3.7-14.9
		c-1.3-8.4-1.9-16.8-2.2-25.3c-0.2-6.9-0.8-13.7-2.7-20.4c-1.3-4.5-3.1-8.7-5.9-12.5c-2-2.7-4.5-5.1-7.6-6.5
		c-6.7-3.1-9.2-2.2-12.6,3.8c-3.3,5.9-4.2,12.4-3.3,19c0.8,6.3,2.8,12.2,6,17.6c2.2,3.7,4.6,7.3,7.1,10.8c3.4,4.8,5.9,9.9,7.1,15.6
		c1.3,6.1,1.8,12.4,1,18.6c-0.5,4.3-0.3,8.2,2.1,12c1.1,1.7,1.7,3.8,2.5,5.7c1.6,4,3.2,8,4.9,12c1,2.3,2.2,4.6,3.6,6.7
		c0.7,1.1,2.1,2.5,3.3,2.6c3.1,0.3,5.4,1.8,7.8,3.4c1.9,1.3,4,1.8,6.4,1.4c3.8-0.7,7.6-1.1,11.4-1.8c7.1-1.4,13.9-3.5,19.7-8.2
		c2.8-2.2,6.3-3.1,9.9-3.2c11.7-0.3,21.1,4.4,28.5,13.3c1.8,2.1,3,4.5,3.7,7.2c0.5,2.1,1.5,3.8,2.9,5.5c5.7,6.9,11.5,13.7,17.3,20.6
		c4.7,5.6,9.8,10.9,15.9,15.2c2.7,1.9,5.2,4.3,7.5,6.6c2,2,3.9,4.3,5.5,6.6c5,7,6.4,14.8,4.9,23.3c-0.7,4.1-1.2,8.2-1.7,12.3
		c-1,9.1-1.7,18.1-2.9,27.2c-1.2,8.6-3.9,16.8-8.5,24.3c-1.3,2.2-2.5,4.5-3.9,6.6c-1.6,2.4-3.1,4.9-5.1,6.9c-3.9,4-8.6,4.2-12.9,0.7
		c-2-1.6-3.8-3.5-5.2-5.6c-2.5-3.7-4.7-7.6-6.8-11.6c-2.7-5.1-4.9-10.4-7.8-15.4c-1.8-3.2-1.7-6-0.4-9.1c0.6-1.3,1.3-2.6,2.1-3.8
		c3-4.5,6.3-8.9,8.3-14c1-2.5,3.1-4,5.8-4.5C462,519,462.9,518.6,464.2,518.2z"/>
</g>
<path class="st0" d="M835.1,300.1c1.9-0.6,3.8-0.4,5.7-0.4c43.6,0,87.3,0,130.9,0c6.5,0,13.1,0.1,19.6,0.8
	c25.5,2.6,47.4,12.5,64.4,32.2c9.9,11.5,16.2,24.8,19.5,39.6c4.1,18.8,3.5,37.6-2.8,55.8c-10.4,30.1-31.6,49.3-61.9,58.5
	c-10.5,3.2-21.3,4.3-32.2,4.3c-46.4,0-92.7,0-139.1,0c-1.3,0-2.5,0-4,0c-0.3-1.1-0.6-2-0.6-2.9c-0.1-1.3,0-2.6,0-3.8
	c0-59.3,0-118.6,0-177.9C834.5,304.3,834.2,302.2,835.1,300.1z M887.7,442.4c1.6,0.1,2.5,0.2,3.5,0.2c28.8,0,57.5,0,86.3,0
	c3.5,0,7-0.3,10.5-1.1c16.5-3.5,27.7-13.2,33.1-29.3c2.9-8.6,3.5-17.6,1.8-26.5c-3.3-18.1-13.4-30.3-31.3-35.6
	c-5.3-1.6-10.7-1.9-16.1-1.9c-18.4,0-36.8,0-55.1,0c-9.4,0-18.9,0-28.3,0c-1.4,0-2.8,0.2-4.1,0.3c-0.7,4.7-0.9,50.4-0.5,89.9
	C887.5,439.5,887.6,440.8,887.7,442.4z"/>
<path class="st0" d="M1462,421.5c3.3,6,6.4,11.8,9.5,17.5c3.1,5.6,6.1,11.2,9.2,16.8c3.1,5.7,6.3,11.5,9.4,17.2
	c3,5.6,6.2,11.1,8.9,16.6c-0.8,1.4-1.9,1.2-2.7,1.2c-4.2,0-8.3,0-12.5,0c-12.5,0-24.9,0-37.4,0c-1.7,0-3.5-0.1-5.5-0.1
	c-10.3-19.2-20.4-38.4-30.6-57.5c-1.7-1.2-3.5-0.8-5.2-0.8c-11.5,0-23,0-34.5,0c-13.8,0-27.5,0-41.3,0c-1.7,0-3.5-0.4-5.4,0.7
	c-0.6,4.6-0.2,9.4-0.3,14.2c-0.1,4.8,0,9.6,0,14.4c0,4.6,0,9.3,0,13.9c0,4.8,0,9.6,0,14.1c-1.6,1.5-3.3,1.1-4.8,1.1c-12,0-24,0-36,0
	c-2.9,0-5.8,0-8.6,0c-0.9,0-1.8-0.3-2.9-0.4c-0.1-0.9-0.4-1.7-0.4-2.5c0-62.2,0-124.4,0.1-186.5c0-0.4,0.3-0.9,0.6-1.5
	c1.4-0.1,2.8-0.2,4.2-0.2c48.1,0,96.3,0,144.4,0c9.5,0,18.8,1.2,27.8,4.5c25.2,9.4,39.8,27.3,43.5,54c1.2,8.8,0.7,17.6-1.6,26.1
	c-3.7,14-11.5,25.2-23.2,33.7C1465.4,419.1,1464,420.1,1462,421.5z M1324.1,387.4c1.5,1,3.2,0.6,4.7,0.6c28.2,0,56.3,0,84.5,0
	c2.1,0,4.2,0,6.2-0.3c13.2-1.9,19.7-11.6,18.3-23.1c-0.9-7.9-5.2-13.2-12.5-16.1c-3.6-1.4-7.4-1.9-11.3-1.9c-13.1,0-26.2,0-39.4,0
	c-15.4,0-30.7,0-46.1,0c-1.5,0-3.2-0.4-4.7,0.6c-0.1,0.7-0.3,1.3-0.3,1.9c0,12.3,0,24.6,0,36.9
	C1323.7,386.5,1324,386.9,1324.1,387.4z"/>
<path class="st0" d="M1625.4,354.3c1.8-3.7,3.4-7.1,5-10.6c4.3-0.6,8.4-0.2,12.6-0.3c4.2-0.1,8.3,0,12.5,0c4.1,0,8.3,0.1,12.5,0.1
	c0.2,1.1,0.5,1.9,0.5,2.6c0.5,10.5,0.1,140-0.4,144c-0.5,0.1-1.1,0.4-1.6,0.4c-12,0-24,0-36,0c-0.3,0-0.6-0.1-1.4-0.3
	c-1.3-2.9-2.7-6-4.3-9.5c-1,0.6-1.8,1.1-2.6,1.6c-9,6.5-18.9,10.8-29.8,12.4c-29.5,4.4-60.6-6.3-77.5-33.8
	c-6.2-10.1-9.8-21.1-11.2-32.8c-1.6-13.2-0.6-26.2,3.8-38.8c9.3-26.5,27.9-42.6,55.2-48.6c12.7-2.8,25.4-2.6,38,1
	c7.6,2.2,14.6,5.6,21.1,10.1C1622.8,352.6,1624,353.4,1625.4,354.3z M1587.1,383.8c-13.1-0.3-26.2,7.3-31.1,21.8
	c-1.8,5.4-2.2,10.9-1.5,16.5c1.6,13.6,11.1,24.4,24.3,27.6c4.4,1,8.8,1.3,13.3,0.6c11-1.7,19.2-7.4,24.3-17.3
	c2.7-5.2,3.7-10.8,3.6-16.7C1619.9,397.7,1605.6,383.4,1587.1,383.8z"/>
<path class="st0" d="M1142.6,429.2c1.1,11.9,9,21.4,19.9,24.4c7.5,2,14.9,1.7,22.2-1c4.9-1.8,9.1-4.7,12.3-8.9
	c0.6-0.8,1.2-1.5,1.8-2.4c4-0.8,8.2-0.3,12.3-0.3c4.2-0.1,8.3,0,12.5,0s8.3,0,12.5,0c4.1,0,8.3,0,12.3,0.1c0.9,1.6,0.1,2.8-0.3,3.9
	c-7.4,19.8-20.5,34.6-39.9,43.2c-23.2,10.2-47,10.7-70.3,0.5c-26.1-11.4-40.8-32-45-60c-1.9-12.7-0.9-25.2,3.2-37.4
	c7.7-23,23-38.9,45.7-47.2c21.7-7.9,43.7-7.6,65,1.6c25.3,10.9,40.1,30.3,44.8,57.4c1.2,7.1,1.1,14.3,0.6,21.5
	c-0.1,1.4-0.5,2.8-0.7,4.3c-4.1,0.7-8.1,0.3-12.1,0.3c-4,0.1-8,0-12,0c-4,0-8,0-12,0c-4,0-8,0-12,0c-4.2,0-8.3,0-12.5,0
	c-4,0-8,0-12,0c-4,0-8,0-12,0c-4,0-8,0-12,0C1151,429.2,1147,429.2,1142.6,429.2z M1201.9,400.8c-1.9-9.6-9.1-17.6-18.3-20.6
	c-5.7-1.8-11.5-2.3-17.5-1.2c-11.8,2.1-18.9,9.3-22.5,20.4c-0.1,0.4,0,0.9,0,1.4C1147.3,401.2,1196,401.3,1201.9,400.8z"/>
<path class="st0" d="M2024.8,428.9c-6.4,0.5-12.4,0.2-18.5,0.2c-5.9,0.1-11.8,0-17.7,0c-6.1,0-12.2,0-18.2,0c-6.1,0-12.2,0-18.2,0
	c-5.9,0-11.8,0-17.7,0c-6.1,0-12.1,0-18.5,0c0.1,1.2,0.1,2.1,0.3,3c4.8,18.8,19.5,24.1,34,22.4c9.2-1.1,16.7-5.2,21.8-13.2
	c4.2-0.7,8.3-0.3,12.5-0.3c4.2-0.1,8.3,0,12.5,0c4.2,0,8.3,0,12.5,0c4.1,0,8.3-0.2,12.8,0.2c-0.2,1.3-0.2,2.2-0.5,3
	c-7.4,20.4-20.8,35.5-40.7,44.2c-22.1,9.6-44.8,10.3-67.2,1.3c-26.8-10.7-42.5-30.9-47.2-59.3c-2.6-15.6-1.1-31,5.3-45.6
	c10.4-23.6,28.6-38.1,53.5-43.9c17.5-4.1,35-3.3,51.9,3.4c27.6,10.9,43.6,31.3,48,60.7C2026.4,412.8,2026.3,420.6,2024.8,428.9z
	 M1975.1,400.7c0-0.2,0.1-0.3,0.1-0.5c0-0.3,0.1-0.7,0-0.9c-2.8-8.4-7.9-14.9-16.3-18.3c-7.3-3-14.9-3.4-22.5-1.3
	c-9.7,2.7-15.7,9.3-19,18.6c-0.3,0.8-0.3,1.7-0.4,2.6C1923.3,401.3,1971.6,401.2,1975.1,400.7z"/>
<path class="st0" d="M1852,429.2c-0.3,1.7-0.4,3.3-0.7,4.8c-7.1,34.1-32.5,55.5-62.4,60.4c-18.3,3-36.1,1.4-52.9-6.7
	c-24.9-11.8-39.1-31.7-43.1-58.9c-1.8-12.4-0.9-24.6,2.8-36.5c6.4-20.5,19.3-35.7,38.6-44.8c23.1-10.9,47-12,70.8-2.9
	c25.9,9.9,40.7,29.4,46.1,56.3c0.2,0.9,0,1.8,0,2.7c-3.8,0.6-40.7,0.8-48.8,0.3c-0.5-1-1.1-2.1-1.7-3.2
	c-6.3-11.6-16.2-16.8-29.2-16.3c-14.9,0.6-25,11.3-27.7,24.3c-1.6,7.7-1.2,15.3,1.9,22.6c4.9,11.5,13.7,18,26.2,18.6
	c12.9,0.6,22.4-5.2,28.5-16.6c0.4-0.7,0.7-1.5,1-2.2c0.3-0.7,0.7-1.4,1.1-2.2c4.2-0.6,8.3-0.2,12.5-0.3c4.2-0.1,8.3,0,12.5,0
	c4,0,8-0.1,12,0C1843.4,428.8,1847.6,428.3,1852,429.2z"/>
</svg>
