<?xml version="1.0" encoding="utf-8"?>
<!-- Generator: Adobe Illustrator 25.4.1, SVG Export Plug-In . SVG Version: 6.00 Build 0)  -->
<svg version="1.1" id="Layer_1" xmlns="http://www.w3.org/2000/svg" xmlns:xlink="http://www.w3.org/1999/xlink" x="0px" y="0px"
	 viewBox="0 0 1954 489.6" style="enable-background:new 0 0 1954 489.6;" xml:space="preserve">
<style type="text/css">
	.st0{fill:#FFFFFF;}
</style>
<path class="st0" d="M1190.4,139.2c-31.4,0-56.1,6.7-80.8,20.2c0-71.9,0-137,2.3-159.4L961.3,26.9v13.5l15.7,2.2
	c20.2,4.5,27,15.7,31.4,42.7c4.5,53.9,2.3,341.4,0,388.5c40.4,9,83.1,15.7,125.8,15.7c119,0,190.9-74.1,190.9-190.9
	C1325.1,206.6,1266.7,139.2,1190.4,139.2L1190.4,139.2z M1138.7,464.9c-9,0-20.2,0-27-2.2c-2.3-31.4-4.5-164-2.3-280.7
	c13.5-4.5,22.5-6.7,33.7-6.7c49.4,0,76.4,58.4,76.4,130.2C1219.6,395.3,1185.9,464.9,1138.7,464.9L1138.7,464.9z M395.3,9H0v20.2
	l22.5,2.2c29.2,4.5,40.4,22.5,44.9,65.1c6.8,80.9,4.5,226.9,0,296.4c-4.5,42.7-15.7,62.9-44.9,65.1L0,462.6v18h253.8v-18l-27-4.5
	c-29.2-2.2-40.4-22.4-44.9-65.1c-2.3-29.2-4.5-76.4-4.5-134.8l53.9,2.2c33.7,0,49.4,27,56.1,65.1h20.2V166.2h-20.2
	c-6.8,38.2-22.5,65.1-56.1,65.1l-53.9,2.3c0-76.4,2.2-148.2,4.5-190.9h78.6c60.7,0,92.1,38.2,114.5,105.6l22.5-6.7L395.3,9L395.3,9z
	"/>
<path class="st0" d="M523.3,134.7c112.3,0,168.5,76.4,168.5,177.4c0,96.6-62.9,177.5-175.2,177.5c-112.3,0-168.4-76.4-168.4-177.5
	C348.1,215.6,411,134.7,523.3,134.7L523.3,134.7z M516.6,157.2c-49.4,0-62.9,67.4-62.9,155c0,85.3,22.5,155,67.4,155
	c51.6,0,65.1-67.4,65.1-155C586.2,226.8,563.8,157.2,516.6,157.2z M1354.3,314.4c0-92.1,58.4-179.7,172.9-179.7
	c94.3,0,139.2,69.6,139.2,161.7h-208.9c-2.3,83.1,38.2,143.7,119,143.7c35.9,0,53.9-9,76.4-24.7l9,11.2
	c-22.5,31.4-71.9,62.9-134.7,62.9C1426.2,489.6,1354.3,417.7,1354.3,314.4L1354.3,314.4z M1457.6,271.8l105.6-2.3
	c0-44.9-6.7-112.3-44.9-112.3C1480.1,157.2,1459.8,220.1,1457.6,271.8z M1933.8,152.7c-27-11.2-62.9-18-103.3-18
	c-83.1,0-134.8,49.4-134.8,107.8s38.1,83.1,92.1,101.1c56.1,20.2,71.9,35.9,71.9,62.9c0,27-20.2,51.6-56.2,51.6
	c-42.7,0-74.1-24.7-98.8-92.1l-15.7,4.5l2.3,98.8c27,11.2,76.4,20.2,119,20.2c87.6,0,143.8-44.9,143.8-114.5
	c0-47.2-24.7-74.1-83.1-96.6c-62.9-24.7-85.3-40.4-85.3-69.6c0-29.2,20.2-49.4,47.2-49.4c40.4,0,67.4,24.7,87.6,85.4l15.7-4.5
	L1933.8,152.7L1933.8,152.7z M983.7,143.7c-38.2-22.4-105.6-11.2-141.5,69.6l2.2-78.6L694,163.9v13.5l15.7,2.2
	c20.2,2.3,29.2,13.5,31.5,42.7c4.5,53.9,2.2,148.2,0,195.4c-2.3,26.9-11.2,40.4-31.5,42.7l-15.7,2.3v18h208.9v-18l-27-2.3
	c-22.5-2.3-29.2-15.7-31.5-42.7c-4.5-42.7-4.5-128-2.2-181.9c11.2-15.7,60.6-29.2,105.5,0L983.7,143.7L983.7,143.7z"/>
</svg>
