<?xml version="1.0" encoding="utf-8"?>
<!-- Generator: Adobe Illustrator 25.4.1, SVG Export Plug-In . SVG Version: 6.00 Build 0)  -->
<svg version="1.1" id="Layer_1" xmlns="http://www.w3.org/2000/svg" xmlns:xlink="http://www.w3.org/1999/xlink" x="0px" y="0px"
	 viewBox="0 0 512.5 204.9" style="enable-background:new 0 0 512.5 204.9;" xml:space="preserve">
<style type="text/css">
	.st0{fill:#FFFFFF;}
	.st1{fill:#4F4F4F;}
	.st2{fill:#060606;}
</style>
<g>
	<circle class="st0" cx="102.4" cy="102.4" r="102.4"/>
	<g>
		<path class="st0" d="M45.4,71.5c0.3-0.3,0.6-0.6,0.8-0.8c0.4-0.4,0.9-0.8,1.4-1.2c1.6-0.5,3-1,5-1.8c-0.5,1.2-1,2-1,2.7
			c0,1.7-0.2,3.9,0.7,4.9c0.9,0.9,3.5,1.2,4.8,0.6c3.3-1.6,6.4-3.7,9.4-5.9c1.7-1.2,2.9-2.8,5.2-1c0.5,0.4,1.6,0.2,2.8,0.2
			c-5.9-3.9-6.8-9.6-2-14c2.2-2.1,5.2-3.3,7.9-4.7c5.3-2.7,10.8-4.9,15.8-8c3.6-2.3,6.4-5.8,10-9c1,3,2.3,6.2,3.4,9.6
			c7.3-4.8,13.8-10.2,19.1-17c-0.2-0.2-0.3-0.3-0.5-0.4c-0.3-0.2-0.6-0.3-0.9-0.4c-15-4.9-30.3-5.9-45.7-2.4
			c-22.9,5.3-40.7,17.7-53.4,37.5C16.2,79,12.2,99.6,16.2,121.7c3.6,20.1,13.6,36.8,29.5,49.7c23,18.6,49,23.6,77.5,16.7
			c10.4-2.5,19.6-7.6,26.8-15.8c10.5-11.8,13.6-26,11.3-41.4c-2.1-14.3-8.6-26.3-19.2-36.1c-13.1-12.2-29.1-17-46.8-17
			c-0.8,0-1.8,0.2-3.1,0.4c5.9,3.3,10.9,6.5,14.4,12.7c-12.4-3.1-24.1-4.7-36.1-2.6c-12.1,2-22.9,6.6-32.1,15.7
			c-2.6-9.6-2.9-18.1,2.6-26.2c1.2-1.6,2.5-3.1,3.6-4.7C45.1,72.6,45.2,72,45.4,71.5z M182.3,125.9c0.2-0.4,0.3-0.6,0.3-0.8
			c0.1-0.4,0.3-0.8,0.4-1.2c2.6-11.6,2.8-23.3,0.4-34.9c-5.5-25.8-19.8-45.4-43-58.2c-2.7-1.6-3.2-2.8-2.5-5.7
			c1.1-4.6,1.6-9.4,2.3-14c-0.3-0.1-0.5-0.1-0.8-0.2c-2.6,8.6-6.9,16.4-13,23.7c2.2-0.5,3.7-0.9,5.8-1.5c-6,8.6-13.2,14.8-22.2,18.8
			c-0.7,0.3-1.7,0.7-2.1,1.5c-2,3.4-3.7,7-5.8,10.9c5-2.7,10.1-4.9,14.4-8.1c3.1-2.3,6-2.6,9.4-2c19.7,3.6,36.6,12.7,50.3,27.2
			c0.8,0.8,1.5,1.8,2.2,2.7c-7.2-5-14.2-9.9-22.8-13.7c1,1.9,1.8,3.1,2.7,4.9c-9.4-4.7-18.6-7.3-28.4-7.7
			C161.7,74.2,180.4,98.2,182.3,125.9z M99.2,51.4c-2.1,1.1-3.9,2.2-5.9,3.2c-3.5,1.7-7.3,3.2-10.8,5c-2.3,1.1-3.9,2.9-3.2,5.9
			C88.9,66,96.8,61.7,99.2,51.4z M51.9,84.5c0.3-0.1,0.5-0.2,0.8-0.3c-0.3-1.5-0.2-3.4-1.1-4.1c-1.7-1.1-3.4,0.1-4.6,1.6
			c-0.9,1.2-1.7,2.7-2.5,4.1C47.2,84.6,49,82.6,51.9,84.5z"/>
		<path class="st1" d="M94.4,29.1"/>
		<path class="st1" d="M41.1,77.7c-5.5,8.1-5.2,16.6-2.6,26.2c9.2-9,20.1-13.7,32.1-15.7s23.8-0.4,36.1,2.6
			c-3.5-6.1-8.6-9.4-14.4-12.7c1.5-0.2,2.3-0.4,3.1-0.4c17.7,0,33.7,4.9,46.8,17c10.5,9.8,17.1,21.8,19.2,36.1
			c2.2,15.4-0.8,29.5-11.3,41.4c-7.2,8.1-16.4,13.3-26.8,15.8c-28.5,6.9-54.5,1.9-77.5-16.7c-15.9-12.9-25.9-29.6-29.5-49.7
			C12.3,99.6,16.3,79,28.3,60.1c12.6-19.8,30.5-32.3,53.4-37.5c15.4-3.5,30.7-2.5,45.7,2.4c0.3,0.1,0.6,0.3,0.9,0.4
			c0.1,0.1,0.2,0.2,0.5,0.4c-5.4,6.8-11.9,12.3-19.1,17c-1.2-3.3-2.4-6.5-3.4-9.6c-3.5,3.3-6.3,6.8-10,9c-5,3.1-10.6,5.3-15.8,8
			c-2.7,1.5-5.7,2.7-7.9,4.7c-4.8,4.5-3.9,10.1,2,14c-1.2-0.1-2.3,0.2-2.8-0.2c-2.3-1.9-3.4-0.3-5.2,1c-2.9,2.2-6,4.4-9.4,5.9
			c-1.2,0.6-3.3,0.7-4.4-0.2c-0.9-0.9-4.6-2.8-5-8.6"/>
		<path d="M182.3,125.9c-2-27.8-20.7-51.7-52.4-58.4c9.8,0.4,19,3.1,28.4,7.7c-0.9-1.8-1.7-3-2.7-4.9c8.5,3.8,15.6,8.7,22.8,13.7
			c-0.7-0.9-1.4-1.9-2.2-2.7c-13.8-14.5-30.5-23.7-50.3-27.2c-3.3-0.6-6.2-0.2-9.4,2c-4.4,3.2-9.5,5.4-14.4,8.1
			c2.1-3.9,3.8-7.5,5.8-10.9c0.4-0.6,1.2-1,2.1-1.5c9-4.1,16.3-10.3,22.2-18.8c-2.1,0.5-3.7,0.9-5.8,1.5c6.1-7.3,10.4-15.1,13-23.7
			c0.3,0.1,0.5,0.1,0.8,0.2c-0.7,4.7-1.1,9.5-2.3,14c-0.7,2.9-0.2,4.2,2.5,5.7c23.2,12.8,37.5,32.4,43,58.2
			c2.5,11.5,2.2,23.3-0.4,34.9c-0.1,0.4-0.2,0.8-0.4,1.2C182.7,125.4,182.6,125.6,182.3,125.9z"/>
		<path d="M99.2,51.4c-2.4,10.3-10.3,14.6-20.1,14c-0.7-2.9,1-4.7,3.2-5.9c3.5-1.9,7.2-3.3,10.8-5C95.3,53.6,97.1,52.5,99.2,51.4z"
			/>
		<path d="M51.9,84.5c-2.8-1.9-4.8,0.1-7.3,1.2c0.8-1.4,1.6-2.8,2.5-4.1c1.1-1.5,2.9-2.7,4.6-1.6c0.8,0.6,0.7,2.7,1.1,4.1
			C52.5,84.2,52.2,84.4,51.9,84.5z"/>
		<path d="M45.4,71.5c0.3-0.3,0.6-0.6,0.8-0.8C46,71,45.7,71.3,45.4,71.5z"/>
	</g>
	<path class="st2" d="M14.6,104.5c46.8,96.8,146.2,3.9,66.2-7.3l0,0c-8,0-25.4,1.5-18,13.6l0,0c-10.3-1-14.5-3.2-19.9-10.8l0,0
		c4.4-5.7,34.5-20.6,62.5-9.8l0,0c-3.6-4.6-7.5-9.1-13.8-12.6l0,0c101.9,1,91.2,130.2-10.6,110.8l0,0C53,184,13.7,153.4,14.6,104.5
		L14.6,104.5z"/>
</g>
<g>
	<path class="st0" d="M499.4,68.3c-0.3,0.4-1,0.8-1.5,0.8c-7.6-0.1-15.1-0.4-22.7-0.6c-0.3,0-0.6-0.1-1.7-0.4c0.8-1.1,1.3-2.2,2-2.6
		c3.1-1.5,3.6-2.6,1.4-5.4c-3.8-4.6-7.8-8.9-11.8-13.4c-2.5-2.6-4.9-5.3-7.5-8.2c4.5-4.6,8.8-9.1,13.1-13.6c1.6-1.8,3.3-3.4,4.8-5.4
		c1.8-2.4,1.4-3.3-1.2-4.4c-0.6-0.3-1-1-1.5-1.5c0.7-0.3,1.4-0.8,2.1-0.8c4.5-0.1,8.9-0.1,13.5,0c0.8,0,1.4,0.7,2.1,1.1
		c-0.6,0.6-1.1,1.3-1.8,1.7c-2.4,1.6-5.2,2.7-7.3,4.6c-5.3,4.7-10.1,9.6-15.6,14.9c8.9,9.6,17.2,18.7,25.7,27.6
		c1.3,1.4,3.3,2.1,5.6,3.5"/>
	<path class="st0" d="M276.1,68.3c6.7,4,12.3,9.7,20.4,4.6c0.3,0.2,0.5,0.3,0.8,0.5c-0.4,0.9-0.6,2.2-1.4,2.7
		c-7.1,4.6-14.5,4.9-21.5,0.3c-6.2-4.1-12.3-8-19.2-11c-11.8-5.1-17-17.8-14.5-30.3c2.4-11.9,12.8-21,25.3-22
		c9.8-0.8,18.8,1.1,25.5,8.9c11.6,13.1,8.4,38.7-12.6,45.4C278.2,67.6,277.4,67.8,276.1,68.3z M249.4,39.5
		c0.3,6.1,1.1,11.8,4.4,16.9c7.5,11.6,25,12,31,0.3c5.5-10.9,5.1-22.3-1.5-32.8c-3.9-6.1-10-8.3-17.1-7.4
		C259,17.2,254,21.1,251.7,28C250.5,31.7,250.2,35.7,249.4,39.5z"/>
	<path class="st0" d="M360.3,12.9c-0.9,1.3-1.3,2.3-1.9,2.4c-4.8,0.8-5.1,4.3-5.3,7.9c-0.1,0.8,0,1.7,0,2.5c0,7.3,0.1,14.6,0,21.9
		c-0.1,12.5-7.3,20.4-19.7,21.5c-3.3,0.3-6.7,0-9.9-0.8c-9.4-2.2-15.2-9.7-15.4-19.5c-0.1-8.4,0-16.9-0.1-25.3
		c0-3.8-0.4-7.4-5.2-8.3c-0.4-0.1-0.8-0.8-1.1-1.3c0.5-0.4,1-1,1.6-1.1c6.1-0.1,12.3-0.1,18.5,0c0.5,0,0.9,0.6,1.4,0.9
		c-0.4,0.4-0.9,1.2-1.4,1.3c-3.9,0.3-4.9,2.9-4.9,6.3c0,9.5-0.3,19,0.1,28.5c0.1,3.2,1.1,6.7,2.8,9.4c4.8,8.2,17.6,7.9,22.1-0.5
		c1.4-2.7,2.4-5.9,2.4-8.9c0.3-9.4,0.2-19,0.1-28.5c0-3.3-0.9-6.1-4.9-6.3c-0.5,0-0.9-0.8-1.3-1.3c0.5-0.3,0.9-0.8,1.4-0.8
		C346.2,12.9,352.8,12.9,360.3,12.9z"/>
	<path class="st0" d="M437.7,54.1c0,5.7,0,10.3,0,15.5c-1-0.5-2.2-0.7-2.4-1.3c-1.1-2.4-2.6-2.1-4.6-1.5c-7.1,2.4-14.4,3.5-21.8,1.6
		c-14-3.6-21.9-15.6-20.4-31.2c1.3-13.5,11.9-23.5,26.3-24.2c5.1-0.3,10.4,0.6,15.6,0.9c2.1,0.2,4.2,0.6,5.2-2.1
		c0.2-0.5,1.3-0.6,2.3-1.1c0,5.4,0,10.3,0,15.8c-1-0.6-2.1-0.9-2.3-1.5c-1.6-5.1-5.7-6.7-10.2-7.6c-15.1-3-26,5.8-26.8,21.6
		c-0.1,3,0.1,6.1,0.6,9c2.6,14.8,19.4,22.1,31.5,13.6c1.9-1.3,3-3.6,4.6-5.3C435.6,55.7,436.4,55.2,437.7,54.1z"/>
	<path class="st0" d="M462.9,68.6c-7.1,0-14.1,0-21.2,0c-0.2-0.3-0.4-0.5-0.6-0.8c0.8-0.8,1.4-1.9,2.3-2.1c3-0.8,4.5-2.5,4.6-5.5
		c0.1-5.8,0.3-11.6,0.3-17.5c0.1-6.8-0.1-13.5,0-20.3c0-3.6-0.7-6.4-4.9-7.1c-0.5-0.1-0.9-0.9-1.3-1.4c0.5-0.4,1.1-1,1.6-1
		c6.1-0.1,12.1-0.1,18.1,0c0.5,0,1,0.7,1.5,1.1c-0.4,0.5-0.8,1.3-1.3,1.4c-4.3,0.4-5.1,3.4-5.1,6.9c-0.1,12.7,0,25.4-0.1,38.1
		c0,3.1,1.4,4.8,4.5,5.4c0.9,0.2,1.6,1.4,2.4,2.1C463.5,68.1,463.1,68.3,462.9,68.6z"/>
	<path class="st0" d="M363,13c6.6,0,13.3,0,19.9,0c0.2,0.3,0.4,0.4,0.6,0.7c-0.6,0.6-1.2,1.6-1.9,1.8c-2.6,0.7-3.5,2.4-3.5,4.8
		c-0.1,7.5-0.1,15-0.1,22.5c0,5.8,0.1,11.6,0.1,17.5c0,3.1,1.1,5.2,4.4,5.8c0.7,0.1,1.2,1.1,1.8,1.6c-0.1,0.3-0.3,0.4-0.4,0.7
		c-6.9,0-13.8,0-21.6,0c0.8-1,1.2-1.9,1.8-2.2c4.1-1.4,4.9-2.3,4.9-6.7c0.1-10.9,0.1-21.8,0.1-32.8c0-2,0-3.9-0.1-5.9
		c-0.1-2.7-1.4-4.4-4-5.3c-0.9-0.3-1.7-1-2.6-1.6C362.6,13.7,362.8,13.4,363,13z"/>
</g>
<g>
	<path class="st0" d="M244.1,184.9c0-5.2,0-9.2,0-13.1c0.3-0.2,0.7-0.6,1.1-0.8c1.2,1.1,2.7,1.9,3.6,3.2c5.1,7.9,12.9,11,21.4,8.4
		c4.7-1.5,7.9-4.6,8.6-9.6s-1.2-8.9-5.7-11.4c-5.9-3.2-11.8-6.6-17.7-9.9c-8-4.6-10.6-11.8-9.4-20.4c1.2-8.4,6.5-13.8,14.5-15.8
		c5.1-1.2,10.7-1,16-1c3.4,0,7,1.2,9.4-2.4c0.2-0.3,1.2-0.1,2.2-0.2c0,5.2,0,10.3,0,16.5c-1.7-1.1-3.2-1.6-4.1-2.7
		c-4.8-5.8-12.9-7.9-19.8-4.9c-4.2,1.8-7,4.9-7.5,9.6c-0.5,4.7,1.4,8.5,5.4,10.9c4.6,2.7,9.6,4.8,14.4,7.3c6.1,3.2,11.4,7,13.3,14
		c3.2,11.6-4.2,22.8-16.7,25.5c-7,1.6-13.8,0.6-20.3-1.7c-2.2-0.7-4.2-1.4-5.6,1.3c-0.3,0.6-1.3,1.1-2,1.1"/>
	<path class="st0" d="M289.8,114.6c9.4,0,17.8,0,27.4,0c-1.2,1.6-1.7,3.1-2.6,3.2c-4.1,0.9-4,3.6-3.2,6.7c0.5,2.2,1.2,4.2,1.9,6.4
		c3.8,10.9,7.6,21.9,11.5,32.8c0.4,1.2,1.1,2.5,1.9,4.5c4.4-12.2,8.8-23.6,12.7-35.2c1.5-4.4-4.1-13.3-8.5-15.2
		c-0.8-0.3-1.5-1.2-2.2-1.9c0.5-0.5,1-1.4,1.6-1.4c8.2-0.1,16.5-0.1,24.7-0.1c0.2,0.4,0.3,0.8,0.5,1.2c-0.8,0.6-1.7,1.6-2.7,1.7
		c-3.1,0.5-3.8,2.3-3.3,5.1c0.2,1.1,0.4,2.2,0.7,3.2c4.7,13.9,9.5,27.9,14.5,42.6c0.7-1.3,1.2-2.1,1.5-2.8
		c4.1-12.2,8.3-24.3,12.4-36.5c0.5-1.6,0.9-3.2,1.3-4.8c0.8-3.4,0.5-6.1-3.7-6.7c-0.7-0.1-1.2-1.1-1.9-1.6c0.7-0.5,1.3-1.4,2-1.4
		c6.1-0.1,12.1-0.1,19.2-0.1c-1.1,1.7-1.5,3.4-2.2,3.6c-4.7,1.1-6.1,4.9-7.5,8.6c-5,14.2-9.9,28.4-14.8,42.6c-2,5.7-3.9,11.5-6,17.2
		c-0.5,1.3-1.8,2.4-2.7,3.6c-1-1.2-2.5-2.3-3-3.7c-5-13.6-9.8-27.3-14.7-41c-0.4-1.2-1-2.5-1.7-4.5c-0.7,1.7-1.3,2.7-1.7,3.8
		c-4.9,13.8-9.7,27.6-14.7,41.4c-0.5,1.5-1.8,2.7-2.7,4c-1-1.2-2.4-2.4-3-3.8c-7-19.5-13.8-39.1-20.7-58.5c-1.5-4.3-3-8.7-8.2-10.1
		C291,117.2,290.7,115.9,289.8,114.6z"/>
	<path class="st0" d="M459,114.4c13.2,0,25.3-0.5,37.4,0.2c8.2,0.4,14.4,7,15.7,14.4c1.7,10-1.8,18-9.9,22.1
		c-7.2,3.7-14.9,3.6-23.5,2.7c0,2.7,0,5.1,0,7.7c0,5.4,0.1,10.8,0.2,16.2c0,3.5,1.6,5.6,5.1,6.5c1.2,0.3,2,1.9,3,2.9
		c-0.2,0.3-0.5,0.7-0.7,1c-8.6,0-17.3,0-27.4,0c1.3-1.7,1.9-3.4,3-3.8c3.2-1.2,4.6-3.4,4.8-6.5c0.2-3.6,0.3-7.1,0.4-10.8
		c0-13.3,0-26.5,0-39.8c0-4.4-0.4-8.4-5.9-9.5C460.4,117.6,460,116,459,114.4z M478.7,118.7c0,9,0,17.2,0,25.5
		c0,0.7-0.2,1.5,0.1,2.1c0.4,0.8,1.2,1.9,1.9,2.2c8,2.4,17-2.3,18.8-9.8c2.3-9.7-2.5-17.4-11.9-19.1
		C484.9,118.9,482.2,118.9,478.7,118.7z"/>
	<path class="st0" d="M459.1,188.1c-9.9,0-18.6,0-28.7,0c1.4-1.8,2.1-3.5,3.2-3.8c3-0.9,3.9-3,3.1-5.4c-1.9-5.5-4.2-10.8-6.5-16
		c-0.3-0.7-1.8-1.1-2.7-1.1c-6.9-0.1-13.8-0.2-20.7,0c-1.1,0-2.7,1-3.1,1.9c-2.1,4.6-4.1,9.4-5.8,14.2c-1,2.8-0.9,5.4,2.9,6.5
		c1,0.2,1.6,1.9,3,3.6c-8,0-14.8,0-22.6,0c1-1.6,1.5-3.5,2.4-3.7c4.3-1.2,6.2-4.3,7.8-8c7.5-16.9,14.8-33.9,22.2-50.8
		c1.2-2.8,2.3-5.6,3.7-8.3c0.6-1.2,1.8-2.1,2.8-3.1c0.8,1,2,1.8,2.5,3c5.4,11.9,10.7,24,16,35.9c3.5,7.8,7,15.7,10.4,23.5
		c1.6,3.5,3.6,6.4,7.5,7.7C457.4,184.6,457.9,186.4,459.1,188.1z M416.3,132.6c-3.5,8.3-6.5,15.6-9.5,23c7,0,13.4,0,20.2,0
		C423.4,148.1,420,140.8,416.3,132.6z"/>
</g>
</svg>
