<?xml version="1.0" encoding="utf-8"?>
<!-- Generator: Adobe Illustrator 25.4.1, SVG Export Plug-In . SVG Version: 6.00 Build 0)  -->
<svg version="1.1" id="Layer_1" xmlns="http://www.w3.org/2000/svg" xmlns:xlink="http://www.w3.org/1999/xlink" x="0px" y="0px"
	 viewBox="0 0 708 144" style="enable-background:new 0 0 708 144;" xml:space="preserve">
<style type="text/css">
	.st0{fill-rule:evenodd;clip-rule:evenodd;fill:#0364FF;}
	.st1{fill-rule:evenodd;clip-rule:evenodd;fill:#FFFFFF;}
</style>
<path class="st0" d="M79.5,106c-0.2,0.8,0.4,1.6,1.3,1.6h8.7c0.9,0,1.5-0.8,1.3-1.6l-4.3-15c-0.4-1.2-2.2-1.2-2.6,0L79.5,106z"/>
<path class="st0" d="M72.1,116.3c-0.6,2.2-2.5,3.7-4.7,3.7H55.5c-3.2,0-5.6-3.1-4.7-6.2L73.5,28c0.6-2.4,2.8-4,5.2-4h13.8
	c2.4,0,4.6,1.6,5.2,4l22.8,85.8c0.8,3.1-1.5,6.2-4.7,6.2h-11.9c-2.2,0-4.2-1.5-4.7-3.7L87.9,74c-0.6-2.4-4-2.4-4.6,0L72.1,116.3z"/>
<path class="st0" d="M126.7,100.6c-0.6,2.4-4.1,2.4-4.7,0L113.5,69c-0.1-0.5-0.1-1.1,0-1.7l10.5-39.6c0.6-2.2,2.6-3.8,4.9-3.8h11.5
	c3.3,0,5.7,3.2,4.9,6.4L126.7,100.6z M56.7,69c0.1-0.5,0.1-1.1,0-1.7L46.2,27.8c-0.6-2.2-2.6-3.8-4.9-3.8H29.8
	c-3.3,0-5.7,3.2-4.9,6.4l18.7,70.2c0.6,2.4,4.1,2.4,4.7,0L56.7,69z"/>
<path class="st1" d="M346,110c3.6,1.9,7.6,2.8,12,2.8c7.8,0,14.4-3.1,19.8-9.2c5.6-6.1,8.3-13.6,8.3-22.4c0-8.7-2.8-16.2-8.3-22.4
	c-5.4-6.1-12-9.2-19.8-9.2c-4.4,0-8.3,0.9-12,2.8c-2.1,1.1-3.8,2.4-5.4,3.8c-1,0.9-2.9,0.3-2.9-1V25.6c0-0.9-0.7-1.6-1.6-1.6h-7.8
	c-0.9,0-1.6,0.7-1.6,1.6v83.6c0,0.9,0.7,1.6,1.6,1.6h7.9c0.9,0,1.6-0.7,1.6-1.6v-2c0-1.3,1.9-2,2.9-1C342.2,107.6,344,108.9,346,110
	z M369.6,96.5c-3.6,4-8.1,6.1-13.4,6.1c-5.4,0-9.9-2-13.5-5.9c-3.5-4-5.3-9.2-5.3-15.5c0-6.2,1.8-11.4,5.3-15.4
	c3.6-4,8.1-6.1,13.5-6.1c5.3,0,9.8,2,13.4,6.1c3.6,4,5.4,9.2,5.4,15.4C375.1,87.4,373.3,92.6,369.6,96.5z M266.9,103.8
	c5.6,6,12.8,9,21.5,9c6,0,11.3-1.4,16-4.2c4.2-2.5,7.6-5.9,10.2-10.1c0.5-0.9,0.2-2-0.8-2.5l-6.6-3.3c-0.9-0.4-1.9-0.1-2.5,0.7
	c-3.9,6.1-9.2,9.2-15.8,9.2c-5.2,0-9.6-1.8-13.3-5.3c-3.3-3.1-5.2-7.2-5.7-12.1c-0.1-1.1,0.8-2,1.9-2h42.7c1.1,0,1.9-0.8,2-1.9
	c0.3-8.2-2.3-17.2-7.9-23.3c-5.2-5.7-12.1-8.6-20.9-8.6c-8.5,0-15.6,3-21.1,9.1c-5.5,6-8.2,13.5-8.2,22.6
	C258.4,90.3,261.3,97.8,266.9,103.8z M273.1,74c-1.2,0-2.2-1.2-1.8-2.3c1.1-3.3,2.9-6,5.3-8.1c3.1-2.6,6.7-3.9,10.9-3.9
	c5.1,0,9.1,1.4,12.1,4.1c2.5,2.2,4.1,4.9,4.8,8.1c0.2,1.1-0.7,2.1-1.8,2.1H273.1z M253.4,51.4c1.2,0,2,1.2,1.7,2.3l-18,55.9
	c-0.2,0.7-0.9,1.2-1.7,1.2h-8.8c-0.8,0-1.4-0.5-1.7-1.2l-12.8-39.6c-0.5-1.5-2.6-1.5-3.1,0l-12.7,39.6c-0.2,0.7-0.9,1.2-1.7,1.2
	h-8.7c-0.8,0-1.4-0.5-1.7-1.2l-18-55.9c-0.4-1.1,0.5-2.3,1.7-2.3h7.9c0.8,0,1.5,0.5,1.7,1.3l11.3,38.6c0.5,1.5,2.6,1.6,3.1,0.1
	l12.7-38.7c0.2-0.7,0.9-1.2,1.7-1.2h9c0.8,0,1.4,0.5,1.7,1.2l12.6,38.6c0.5,1.5,2.7,1.5,3.1,0L244,52.7c0.2-0.7,0.9-1.3,1.7-1.3
	H253.4z M612,111.8c-4.8,0-8.9-1.5-12.1-4.5c-3.1-3-4.8-7.2-4.8-12.5V63.2c0-0.9-0.7-1.6-1.6-1.6h-7.1c-0.9,0-1.6-0.7-1.6-1.6v-6.9
	c0-0.9,0.7-1.6,1.6-1.6h7.1c0.9,0,1.6-0.7,1.6-1.6V25.6c0-0.9,0.7-1.6,1.6-1.6h7.9c0.9,0,1.6,0.7,1.6,1.6v24.1
	c0,0.9,0.7,1.6,1.6,1.6H619c0.9,0,1.6,0.7,1.6,1.6V60c0,0.9-0.7,1.6-1.6,1.6h-11.2c-0.9,0-1.6,0.7-1.6,1.6v27.9c0,4,0.8,6.7,2.3,8.1
	c1.5,1.4,3.3,2.1,5.2,2.1c0.9,0,1.7-0.1,2.5-0.2c0.3-0.1,0.5-0.1,0.8-0.2c0.9-0.3,1.9,0.1,2.2,1l2.4,6.7c0.3,0.9-0.1,1.8-1,2
	C618,111.4,615.2,111.8,612,111.8z M449,87.3c0,7.3-2.7,13.3-8.1,18.2c-5.3,4.9-11.9,7.3-19.8,7.3c-6.2,0-11.8-1.9-16.8-5.6
	c-4.6-3.5-7.9-8.1-9.8-13.6c-0.3-0.9,0.2-1.8,1-2.2l6.7-2.8c1-0.4,2.2,0.1,2.5,1.2c1.3,3.7,3.2,6.6,5.7,8.7c3,2.4,6.5,3.6,10.6,3.6
	c4.5,0,8.4-1.4,11.7-4.2c3.2-2.9,4.8-6.4,4.8-10.6c0-4.1-1.7-7.6-5.1-10.4c-3.3-2.8-7.3-4.2-12-4.2h-5.3c-1,0-1.8-0.8-1.8-1.8v-6.7
	c0-1,0.8-1.8,1.8-1.8h4.4c4.4,0,8.1-1.2,10.9-3.6c2.8-2.5,4.2-5.7,4.2-9.7c0-3.6-1.3-6.6-4-8.9c-2.7-2.3-6.2-3.4-10.5-3.4
	c-6.4,0-11,3-13.7,9c-0.4,1-1.5,1.5-2.5,1l-6.9-2.9c-0.9-0.4-1.4-1.4-1-2.3c1.9-4.4,4.8-7.9,8.7-10.7c4.4-3.2,9.5-4.7,15.4-4.7
	c7.3,0,13.5,2.2,18.5,6.5c4.9,4.2,7.4,9.7,7.4,16.4c0,7.1-2.9,13.1-8.7,17.1c-1,0.7-0.9,2.2,0.1,2.8c4.8,2.7,6.5,4.9,7.7,6.6
	C447.8,78.9,449,82.9,449,87.3z M473.2,84.5c-3,2.2-4.5,4.9-4.5,8.1c0,2.9,1.2,5.3,3.6,7.3c2.5,1.9,5.4,2.9,8.7,2.9
	c4.7,0,8.8-1.7,12.5-5.2c3.5-3.3,5.3-7,5.5-11.4c0-0.6-0.2-1.1-0.7-1.4c-3.4-2.4-8-3.6-13.8-3.6C480.1,81.2,476.3,82.3,473.2,84.5z
	 M483.2,49.5c8.2,0,14.7,2.2,19.5,6.7c4.8,4.4,7.1,10.4,7.1,18.1v35c0,0.9-0.7,1.6-1.6,1.6h-7.9c-0.9,0-1.6-0.7-1.6-1.6v-6.6
	c-4.6,6.8-10.7,10.2-18.4,10.2c-6.5,0-12-1.9-16.5-5.8c-4.4-3.9-6.5-8.7-6.5-14.6c0-6.1,2.3-11,6.9-14.7c4.7-3.6,10.9-5.5,18.6-5.5
	c5.4,0,10,0.8,13.8,2.4c1.2,0.5,2.5-0.3,2.4-1.6c-0.3-3.6-1.4-6.9-4.5-9.6c-3.1-2.7-6.7-4.1-10.8-4.1c-5.7,0-10.3,2.2-13.8,6.6
	c-0.5,0.7-1.5,0.9-2.3,0.4l-7-4.4c-0.8-0.5-1-1.6-0.4-2.3C465.6,52.9,473.2,49.5,483.2,49.5z M572.6,110.8c1,0,1.7-0.8,1.7-1.7V53.2
	c0-1-0.8-1.7-1.7-1.7H565c-1,0-1.7,0.8-1.7,1.7v31.1c0,5-1.5,9.3-4.5,13c-3,3.6-6.7,5.3-11.1,5.3c-9.5,0-14.4-4.9-14.6-14.6V53.2
	c0-1-0.8-1.7-1.7-1.7h-7.6c-1,0-1.7,0.8-1.7,1.7v35.6c0,7.7,1.9,13.6,5.8,17.8c4,4.1,9.6,6.2,16.8,6.2c3.8,0,7.4-1,10.9-2.9
	c2-1.1,3.7-2.3,5.1-3.7c0.9-0.9,2.8-0.3,2.8,1v1.9c0,1,0.8,1.7,1.7,1.7H572.6z M633.5,24c-0.9,0-1.6,0.7-1.6,1.6v83.6
	c0,0.9,0.7,1.6,1.6,1.6h7.9c0.9,0,1.6-0.7,1.6-1.6V78.5c0-5,1.5-9.4,4.6-13.1c3.1-3.8,7-5.7,11.5-5.7c9.4,0,14.2,5.3,14.2,16v33.5
	c0,0.9,0.7,1.6,1.6,1.6h7.9c0.9,0,1.6-0.7,1.6-1.6V73.5c0-7.7-2-13.6-5.9-17.7c-3.9-4.2-9.4-6.3-16.7-6.3c-3.8,0-7.5,1-11,2.9
	c-1.9,1.1-3.6,2.3-5,3.7c-0.9,0.9-2.8,0.3-2.8-1V25.6c0-0.9-0.7-1.6-1.6-1.6H633.5z"/>
</svg>
