<?xml version="1.0" encoding="utf-8"?>
<!-- Generator: Adobe Illustrator 25.4.1, SVG Export Plug-In . SVG Version: 6.00 Build 0)  -->
<svg version="1.1" id="Layer_1" xmlns="http://www.w3.org/2000/svg" xmlns:xlink="http://www.w3.org/1999/xlink" x="0px" y="0px"
	 viewBox="0 0 245.1 81.4" style="enable-background:new 0 0 245.1 81.4;" xml:space="preserve">
<style type="text/css">
	.st0{fill:#010101;}
	.st1{fill:#BC2025;}
	.st2{fill:#D61F26;}
	.st3{fill:#FFFFFF;}
	.st4{fill:#A78878;}
	
		.st5{clip-path:url(#SVGID_00000023267941046626427500000015715378259900845963_);fill:url(#SVGID_00000065754060298353057560000017841228113180490684_);}
	.st6{fill:#B5653D;}
	.st7{fill:#964E2A;}
	.st8{fill:#CB7143;}
	
		.st9{clip-path:url(#SVGID_00000080171326254753531350000006579968247477323916_);fill:url(#SVGID_00000045601170691053547850000016136890576937192627_);}
	.st10{fill:#D5CFC2;}
	.st11{fill:#EDEAE0;}
	.st12{fill:#BBB7AB;}
	.st13{display:none;}
	.st14{display:inline;fill:none;}
</style>
<g id="Layer_1_00000173158534213040942130000001489984918945825418_">
	<g>
		<path class="st0" d="M243.2,16.6L243.2,16.6c-0.2-0.1-0.4-0.2-0.6-0.3c-0.1,0-0.2-0.1-0.3-0.1c0,0-0.2,0-0.5,0l0,0
			c-0.3,0-0.6,0-0.9,0.1h-0.1c-0.3,0.1-0.5,0.3-0.5,0.5c-0.1,0.2,0,0.5,0.2,0.7c0,0,0,0.1,0.1,0.1c0.2,0.2,0.5,0.3,1.1,0.5
			c0.2,0,0.4,0.1,0.7,0.1c0.4,0,0.6,0,0.8,0c0.1,0,0.2-0.1,0.3-0.2c0.2-0.3,0.3-0.6,0.2-0.9C243.7,17,243.5,16.8,243.2,16.6
			 M242.4,16.7c0.2,0.1,0.3,0.2,0.5,0.3c0.4,0.2,0.5,0.5,0.2,0.8c-0.1,0-0.3,0-0.6,0s-0.5-0.1-0.6-0.1c-0.5-0.1-0.8-0.3-1-0.4
			c-0.2-0.2-0.1-0.4,0.1-0.5c0.2-0.1,0.5-0.1,0.8-0.1C242.2,16.7,242.3,16.7,242.4,16.7"/>
		<path class="st1" d="M242.9,17c-0.2-0.1-0.4-0.2-0.5-0.3c0,0-0.2,0-0.5,0s-0.6,0-0.8,0.1c-0.3,0.1-0.3,0.3-0.1,0.5
			c0.1,0.1,0.4,0.2,1,0.4c0.2,0,0.4,0.1,0.6,0.1c0.3,0,0.5,0,0.6,0C243.3,17.5,243.3,17.2,242.9,17"/>
		<path class="st0" d="M230,19.3L230,19.3c0,0.9,0.2,1.7,0.7,2.5c0.1,0.1,0.1,0.1,0.2,0.2l2,1.1h0.1c0.5,0.2,1.1,0.3,1.6,0.2
			c0.6,0,1.2-0.2,1.8-0.6c0.1-0.1,0.1-0.1,0.2-0.2c0-0.1,0-0.1,0.1-0.2c0-0.3,0-0.6-0.1-0.8c-0.1-0.2-0.2-0.4-0.4-0.5l0.2-1.3
			c0.2-0.1,0.4-0.1,0.7-0.1c1,0.2,1.9,0.1,2.6-0.2c0.5-0.2,0.7-0.4,0.8-0.6c0.2-0.3,0.1-0.6-0.4-1c-0.1-0.1-0.2-0.1-0.3-0.1
			c-1.5,0-3-0.3-4.4-0.7c1-0.8,2.3-0.9,3.9-0.2c0.1,0,0.2,0,0.3,0c0.6-0.1,0.9-0.3,0.9-0.6c0.1-0.3-0.1-0.6-0.6-1h-0.1
			c-0.1-0.1-0.3-0.1-0.4-0.2c-4.5-1.3-7.6-0.1-9.3,3.7c0,0.1,0,0.1-0.1,0.2C230.1,19.1,230.1,19.2,230,19.3 M234.5,17.2v0.1
			c1.6,0.6,3.4,0.9,5.2,1c0.4,0.3,0.3,0.5-0.3,0.7c-0.7,0.3-1.5,0.3-2.4,0.1c-0.4-0.1-0.8,0-1.1,0.2c0,0-0.1,0-0.1,0.1l-0.2,1.8
			c0.1,0,0.2,0.1,0.3,0.2s0.2,0.2,0.2,0.3c0.1,0.2,0.1,0.3,0.1,0.5v0.1c-0.5,0.3-1,0.5-1.5,0.5s-1-0.1-1.5-0.2l-2-1.1
			c-0.4-0.6-0.6-1.4-0.6-2.2c0-0.1,0-0.2,0-0.3c1.6-3.5,4.5-4.7,8.7-3.4c0.1,0,0.3,0.1,0.4,0.1c0.5,0.3,0.5,0.6-0.2,0.7
			C237.4,15.6,235.7,15.9,234.5,17.2"/>
		<path class="st1" d="M234.5,17.3v-0.1c1.2-1.4,2.8-1.6,5-0.8c0.6-0.1,0.7-0.3,0.2-0.7c-0.1,0-0.3-0.1-0.4-0.1
			c-4.2-1.2-7.1-0.1-8.7,3.4c0,0.1,0,0.2,0,0.3c0,0.8,0.2,1.5,0.6,2.2l2,1.1c0.5,0.2,1,0.2,1.5,0.2s1-0.2,1.5-0.5v-0.1
			c0-0.2,0-0.4-0.1-0.5s-0.1-0.2-0.2-0.3c-0.1-0.1-0.2-0.1-0.3-0.2l0.2-1.8c0,0,0.1,0,0.1-0.1c0.3-0.2,0.7-0.3,1.1-0.2
			c0.9,0.2,1.7,0.1,2.4-0.1c0.6-0.2,0.7-0.4,0.3-0.7C237.9,18.3,236.1,17.9,234.5,17.3"/>
		<path class="st0" d="M244.9,32.5c0.1-0.1,0.1-0.2,0.1-0.3s-0.1-0.2-0.1-0.3c-0.1-0.1-0.1-0.2-0.2-0.2c-0.7-0.2-1.5-0.6-2.3-1
			l0.7-1.1c0.4-0.6,1-1.5,1.9-2.7c0.1-0.1,0.1-0.2,0.1-0.3c0-0.1-0.1-0.2-0.1-0.3c-0.1-0.1-0.2-0.1-0.3-0.2l-5.7-1.2
			c-0.1,0-0.2,0-0.3,0c-0.1,0.1-0.2,0.1-0.2,0.2c-0.3,0.8-0.7,1.5-1,2.1l-0.2,0.4l-2-1.2c-0.1-0.1-0.2-0.1-0.4-0.1
			c-0.1,0-0.2,0.1-0.3,0.2l-2.2,3.3c-0.1,0.1-0.1,0.2-0.1,0.3s0,0.2,0.1,0.3c0,0.1,0.1,0.1,0.2,0.2c0.1,0,0.5,0.2,1.1,0.4
			c0.4,0.1,0.7,0.3,0.9,0.4l0.3,0.2l-3.3,5.5c-1,1.6-1.2,3.1-0.8,4.6l0,0c0.4,1.4,1.3,2.6,2.9,3.5c0.9,0.5,1.6,0.9,2.4,1.3
			c0.1,0,0.2,0.1,0.3,0c0.1,0,0.2-0.1,0.3-0.2l2.3-3.4c0.1-0.1,0.1-0.2,0.1-0.3s0-0.2-0.1-0.3s-0.1-0.1-0.2-0.2l-1-0.5
			c-0.6-0.3-0.8-0.7-0.7-1.3c0.1-0.4,0.5-1.2,1.1-2.3l2.1-3.4l2.1,1.3c0.1,0.1,0.2,0.1,0.4,0.1c0.1,0,0.2-0.1,0.3-0.2L244.9,32.5
			 M237.7,27.5c0.4-0.6,0.7-1.3,1.1-2.1l5.7,1.2c-0.9,1.3-1.5,2.2-1.9,2.8l-0.9,1.6l0.4,0.2c0.8,0.5,1.7,0.9,2.4,1.1l-2.2,3.3
			l-2.5-1.5l-2.3,3.9c-0.7,1.2-1.1,2-1.2,2.4c-0.1,0.7,0.2,1.3,1,1.8l1.1,0.5l-2.3,3.4c-0.7-0.3-1.5-0.7-2.3-1.2
			c-1.4-0.8-2.3-1.9-2.6-3.3c-0.4-1.3-0.1-2.7,0.8-4.2l3.5-5.9l-0.7-0.5c-0.3-0.2-0.6-0.3-1-0.5c-0.5-0.2-0.9-0.3-1-0.4l2.2-3.3
			l2.4,1.5L237.7,27.5z"/>
		<path class="st1" d="M238.8,25.4c-0.4,0.8-0.7,1.5-1.1,2.1l-0.5,0.8l-2.4-1.5l-2.2,3.3c0.1,0.1,0.5,0.2,1,0.4
			c0.4,0.1,0.8,0.3,1,0.5l0.7,0.5l-3.5,5.9c-0.9,1.5-1.1,2.9-0.8,4.2s1.2,2.4,2.6,3.3c0.8,0.5,1.6,0.9,2.3,1.2l2.3-3.4l-1.1-0.5
			c-0.8-0.5-1.1-1.1-1-1.8c0.1-0.4,0.5-1.3,1.2-2.4l2.3-3.9l2.5,1.5l2.2-3.3c-0.8-0.2-1.6-0.6-2.4-1.1l-0.4-0.3l0.9-1.6
			c0.4-0.6,1-1.5,1.9-2.8L238.8,25.4z"/>
		<path class="st0" d="M229.9,31.7c1-1.6,2.2-3.6,3.8-5.7c0-0.1,0.1-0.2,0.1-0.3c0-0.1,0-0.2-0.1-0.3c0-0.1-0.1-0.1-0.2-0.2
			l-5.1-2.7c-0.1-0.1-0.2-0.1-0.4,0c-0.1,0-0.2,0.1-0.3,0.2c-1.3,2.6-2.4,4.6-3.1,5.8l-1.7,2.9c-0.8,1.3-1.7,2.8-2.9,4.5
			c-0.1,0.1-0.1,0.2-0.1,0.2c0,0.1,0,0.2,0.1,0.3c0,0.1,0.1,0.1,0.2,0.2l4.7,2.8c0.1,0,0.2,0.1,0.3,0.1s0.2,0,0.3-0.1
			s0.1-0.1,0.2-0.2c1.6-2.9,2.6-4.7,3-5.2L229.9,31.7 M229.4,31.5l-1.4,2.3c-0.3,0.6-1.3,2.3-3,5.3l-4.7-2.8
			c1.1-1.7,2.1-3.2,2.9-4.5l1.7-2.9c0.7-1.2,1.8-3.2,3.1-5.8l5.1,2.7C231.7,27.9,230.4,29.8,229.4,31.5"/>
		<path class="st1" d="M228.1,33.8l1.4-2.3c1-1.7,2.3-3.6,3.8-5.8l-5.1-2.7c-1.3,2.6-2.4,4.6-3.1,5.8l-1.7,2.9
			c-0.8,1.3-1.8,2.8-2.9,4.5l4.7,2.8C226.7,36.1,227.7,34.4,228.1,33.8"/>
		<path class="st2" d="M97.7,35c0.5,0.6,1.2,0.6,1.9-0.1v-0.7c-0.7-0.3-1.4-0.3-2.1,0.2C97.5,34.7,97.6,34.9,97.7,35"/>
		<path class="st2" d="M70.9,11.3C63.4,3.8,54.3,0,43.7,0c-5.9,0-11.3,1.1-16.2,3.4c-0.3-0.8-0.7-1.7-1-2.5l-0.1-0.2
			c-0.1-0.2-0.3-0.4-0.5-0.5c-0.4-0.2-0.7-0.2-1.1,0C25.4,1.5,26,2.8,26.6,4c-3.6,1.8-6.9,4.3-10,7.3c-0.3,0.3-0.7,0.7-1,1
			c-0.3-0.5-0.6-1-1.2-1.5c-0.1,0-0.2-0.1-0.3-0.2c-0.8-0.4-1.7-0.4-2.5,0.2v1.4h0.1c0.5,1.2,1.1,2,1.8,2.4
			c-5.4,6.8-8.2,14.8-8.2,23.8c0,6.7,1.5,12.8,4.5,18.2c-1,0.7-2,1.3-3.1,1.9l-2.1,0.2v0.5c2.2,0.4,4.1-0.1,5.8-1.5
			c1.3,2.3,3,4.5,4.9,6.5l0,0c0.4,0.4,0.8,0.9,1.3,1.3c7.5,7.6,16.5,11.4,27.1,11.4c6.8,0,13-1.6,18.6-4.7l1.7,2.3
			c0,0.6,0.1,1.3,0.1,1.9c0.1,1.3,0.7,2.2,1.7,2.5c0.4-2.3,0.1-4.6-0.9-6.7l-0.6-0.3l-0.6,0.8c-0.2-0.2-0.4-0.3-0.6-0.5
			c-0.1-0.1-0.2-0.2-0.2-0.3c2.8-1.7,5.5-3.8,8-6.2c3.4-3.4,6-7.1,7.9-11.1c1.1,0.4,2.3,0.7,3.5,0.7c0.2,0,0.4-0.1,0.6-0.1
			c-0.2-0.4-0.5-0.7-0.8-1s-0.7-0.4-1.1-0.6c-0.1,0-0.1,0-0.2,0l-0.1-0.1c-0.5-0.1-0.9-0.3-1.4-0.4c1.8-4.5,2.7-9.3,2.7-14.5
			C82.1,27.8,78.4,18.8,70.9,11.3 M37.2,10.3L37.2,10.3c-0.2-0.2-0.3-0.4-0.5-0.5C36.3,9.5,36,9.6,35.8,10c0.1,0.8,0.4,1.4,1,1.9
			c0.3,0.2,0.3,0.5,0.1,0.8c-0.1,0-0.2,0-0.3,0c-0.4,0-0.7,0.2-0.9,0.5l0.1,0.5l2.1,0.6c0.6,1,0.6,2.1,0.2,3.1l-2.3,1.7
			c-2.6-4-4.9-8.1-6.8-12.5c4.5-2.1,9.4-3.1,14.7-3.1c9,0,16.8,3,23.3,9c-0.1,0-0.1,0.1-0.2,0.1c-0.2,0.2-0.3,0.3-0.3,0.6
			c0,0.2,0.1,0.4,0.3,0.6C67,14,67.2,14,67.5,14c0.3,0,0.5-0.1,0.7-0.2l0.1-0.1c6.7,6.8,10.1,14.9,10.1,24.4c0,4.9-0.9,9.4-2.6,13.6
			c-0.1,0-0.1,0-0.2-0.1l0.1,0.3c-1.7,3.9-4.2,7.4-7.4,10.7c-2.2,2.2-4.6,4.1-7.1,5.6c-1.1-1.2-2.1-2.4-3-3.7
			c-0.6-0.8-1.3-1.6-2-2.3c-2.6-2.4-3.9-5.3-4.1-8.6c0.8-1.1,1.8-2,3-2.7c0.2,0,0.4,0.1,0.6,0.1c0.5,0.2,1,0.6,1.3,1l-1.9-0.3
			l-0.3,0.4c0.5,1,1.2,1.7,2.2,2.2c0.1,0.5,0.1,1,0.1,1.5c0,0.8-0.3,1.5-0.8,2.2l0.1,0.8h0.7c0,0,0-0.1,0.1-0.1
			c0.2-2.2,0.5-4.2,1.1-6.2c1.8,1.3,3.8,1.8,6,1.5c-0.3-0.2-0.7-0.3-1-0.4c-1.7-0.1-3.3-0.7-4.6-1.7l-0.1-1.4l6.9-2.5
			c0.4,0.3,0.7,0.6,0.9,1c0.6,1.1,1.4,2,2.3,2.7l-2.4-4.5c0.5-1.7,0.3-3.4-0.7-5.1l0.4-0.5l0.5,0.2c0,0.2,0,0.3,0.1,0.4
			c0.4,0.6,0.9,1,1.6,1.2c0,0.4,0,0.8,0,1.2c0.1,0.5,0.4,0.9,0.9,1.1c0.2,0,0.3-0.1,0.4-0.2c0.1-0.1,0.1-0.2,0.2-0.3
			c0.2-0.4,0.3-0.9,0.3-1.3c-0.1,0-0.2-0.1-0.2-0.2c-0.4-0.9-1-1.8-1.6-2.6c-0.7,0.2-1.4,0.2-2-0.1c-0.1-0.2-0.2-0.3-0.2-0.5
			c-0.2-0.4-0.1-0.7,0.3-0.9c2.1-1.2,4.6-1.3,7.4-0.5c1.8,0.5,2.8,0.2,3.1-1.1c-0.8-0.2-1.5-0.1-2.1,0.5l-6.6-0.4
			c-0.4-0.2-0.7-0.5-0.9-0.9c-0.7-2.3-0.1-3.6,1.9-4.1c0.1-0.2,0.2-0.4,0.3-0.6c0.3-0.5,0.4-1,0.4-1.5c1.6-1.5,3.5-2.3,5.8-2.3
			l0.9-1.1c0-0.2,0-0.3-0.1-0.5c-0.1-0.5-0.3-1-0.6-1.4l-2.1-0.2v0.1l-2.6,2.2c-0.4,0.1-0.8,0.2-1.1,0.3c-1.6,0.4-2.9,0.2-3.9-0.8
			l2.2-0.2l0.4-0.6c-0.4-0.6-0.9-0.7-1.6-0.3c-1,0.6-2,0.9-3.1,0.9l-1.4-1.4c0-0.2,0.1-0.3,0.1-0.5c0.1-0.2,0.2-0.4,0.4-0.5
			c0.1,0,0.2,0.1,0.2,0.1c0.8,0.4,1.5,0.4,2.3,0.2c0-0.2-0.1-0.3-0.1-0.5s-0.1-0.3-0.2-0.4c-0.4-0.3-0.8-0.3-1.3,0l1.1-1.6l-0.5-1.4
			L64.4,21c-0.7-1-1.8-1.4-3.1-1.1L61.2,20c0.1,0.2,0,0.2-0.1,0.2c-0.5,0.2-1.1,0.3-1.6,0.2c0-0.1,0-0.1,0-0.2c0-0.7,0.3-1.2,1-1.4
			c0.5-0.2,0.6-0.5,0-1L58,19.4l-0.6-0.5c0.1-0.4,0.3-0.7,0.7-1c0.5-0.3,1-0.4,1.5-0.2l0.1-0.1c0.2-0.2,0.4-0.3,0.6-0.4
			c0.5-0.2,0.9-0.6,1.1-1.1c0.2,0,0.4-0.1,0.6-0.1c1.5-0.3,2.8-1,3.9-1.9v-0.5c-2,1.4-4.1,2-6.3,1.6l-0.8,0.6c0,0.1,0,0.3-0.1,0.3
			c-0.8,1.1-1.6,1.9-2.6,2.5c-1.5,0.2-3,0.1-4.5-0.2l-1.3-2.3c-3,0.2-6,0.4-9,0.7l-1.2-0.7C38.5,14.4,37.5,12.5,37.2,10.3
			 M29.9,10.2c1,1.7,2,3.4,3,5.1c1.7,2.7,1.4,4.9-0.6,6.8c-0.4-0.4-0.8-0.8-1.1-1.3c-0.4-0.5-0.6-1.2-0.6-1.8l-0.5,0.1
			c0,0.2,0,0.5,0,0.8c0.1,1.2,0.7,2.1,1.8,2.7l0.2,1.1c-1.9-0.1-3.5-0.9-4.7-2.6c-1.8-2.4-3.9-4.4-6.1-6c1.9,3,4.3,5.6,7.2,8.1v0.1
			c0,0.1,0.1,0.2,0.2,0.3c0.1,0.1,0.2,0.2,0.2,0.3c0.1,0.3,0.1,0.6-0.1,0.9c-4-1.9-7.9-3.9-11.8-6c2.8,2.5,6.2,4.5,10.2,6V25
			l1.1,1.2c-0.1,0.7-0.5,1.3-1.2,1.6c-1.5,0.7-3.1,0.8-4.9,0.3c-0.3-0.1-0.6-0.2-0.8-0.2c1.3,0.6,2.6,1.2,3.9,1.8
			c-0.8,1.2-1.5,2.4-2.3,3.6c-0.7,0-1.4-0.1-2.1-0.3c-0.4-0.1-0.7,0-0.8,0.3c-0.7,1.6,0.1,2.9,2.2,3.9c0,0.2,0.1,0.4,0.2,0.5
			c0.2,0.3,0.2,0.4,0,0.4c-3.5,0.1-6.5,1.5-8.9,4.1c-1.1,0.4-2,1-2.8,1.8c1-0.5,1.9-1.1,2.7-1.8c2.9-2.6,6.2-3.5,9.7-2.6
			c0.5,2.4,0,4.5-1.4,6.5c-0.7,0.4-1.4,0.8-2.1,1.2l-0.2,0.9c-2,2.2-4.2,4.2-6.5,6C10.4,49.4,9.1,44,9.1,38.1c0-5.2,1-10,3-14.4
			c1.8,1,3.7,1.9,5.9,2.7c-2-0.9-3.9-2.1-5.5-3.5c1.6-3.4,3.9-6.5,6.7-9.3s5.8-5,9.1-6.6C28.8,8.2,29.4,9.2,29.9,10.2 M19.3,51.5
			c0.1,0.1,0.2,0.1,0.3,0c1.6-1.9,3.4-3.7,5.4-5.4c0.1,0,0.2,0.1,0.3,0.1c1.2,0.4,2.3,1,3.1,2c0.4,0,0.7,0.1,1,0.2
			c0.7,0.3,1.2,0.7,1.6,1.3L30.7,51v0.9c0,0.7-0.2,1.4-0.7,1.9c-0.1,0-0.3-0.1-0.4-0.2c-0.4-0.2-0.8-0.6-1-1l-3-0.7l-2.8,1.6
			c-0.7,1.3-0.6,2.5,0.2,3.7l0.2,0.1c0,0.1,0.1,0.1,0.2,0.2c1.3,1.6,2.9,2.4,5,2.3l0.1-0.1l0.9-0.3l1.1-1.4l0.1-2.6
			c0.9-0.9,1.2-2.1,0.8-3.7l0,0c0.1,0,0.2-0.1,0.2-0.2c0.2-0.5,0.6-0.8,1.1-0.9c0.4,0.2,0.7,0.3,1.1,0.6c0.5,0.4,0.8,0.9,0.9,1.6
			l-0.6-0.1c-0.7,0.4-0.8,0.9-0.3,1.4c0.6,0.7,1.5,1,2.7,0.9l0.1,1.8l1.2,1.6c-0.1,2-0.6,3.8-1.7,5.4c0,0.1,0,0.2,0,0.2
			c0,0.1,0,0.2,0.1,0.3c0.1,0.3,0.3,0.4,0.5,0.5c0.9-2,1.6-4.3,2.1-6.9l1.4-0.5l0.7-1.6l0.5-0.2l0.4,0.7c1.4-0.3,2.8-0.6,4.2-0.9
			c1-0.2,1.8,0,2.6,0.6c4.8,3.5,8.7,7.8,11.6,13c-5,2.8-10.5,4.1-16.6,4.1c-9.6,0-17.8-3.4-24.5-10.2c-2.4-2.4-4.4-5.1-6-7.9
			c2.4-2.4,4.9-4.5,7.6-6.3c0.5-0.8,1.2-1.4,2.1-1.8C21.5,48.4,20.3,49.9,19.3,51.5 M43.7,57.2c0,0.1,0,0.2,0,0.3
			c0,1,0.5,1.5,1.5,1.5C45.5,57.9,45,57.3,43.7,57.2 M17.6,61.1c0.9,0.3,1.9,0.3,2.8,0l0.1-0.2c0.8-0.6,0.9-1.2,0.4-2
			c-0.7-1.1-1.7-1.3-3-0.6l-0.8,0.9L17.6,61.1 M64.8,57.6c-0.4-0.9-1.1-1.1-1.9-0.6c0,0.1,0,0.2,0,0.3c0.3,1.1,0.9,1.5,2,1.1
			C64.9,58.1,64.9,57.8,64.8,57.6 M67.9,53c0,0.1,0.1,0.2,0.1,0.3c0.3,0.7,0.8,1.1,1.6,1.1l0.5-0.5c0-0.1,0-0.2-0.1-0.3
			c-0.2-0.9-0.7-1.2-1.6-1L67.9,53 M71.6,49.6c-0.5,0-0.8,0.1-1.2,0.4c-0.3,0.3-0.5,0.6-0.5,1s0.2,0.7,0.5,1s0.7,0.4,1.2,0.4
			s0.9-0.1,1.2-0.4c0.3-0.3,0.5-0.6,0.5-1s-0.2-0.7-0.5-1C72.5,49.7,72.1,49.6,71.6,49.6 M56.7,8.8c-0.3-0.8-0.9-1-1.6-0.6
			c0,0.1,0,0.2,0.1,0.3c0.2,0.8,0.7,1.2,1.5,1.1C56.8,9.4,56.8,9.1,56.7,8.8 M62.6,11.3c-0.2-0.2-0.4-0.3-0.7-0.3
			c-0.3,0-0.5,0.1-0.7,0.3s-0.3,0.4-0.3,0.6s0.1,0.5,0.3,0.6c0.2,0.2,0.4,0.2,0.7,0.2c0.3,0,0.5-0.1,0.7-0.2
			c0.2-0.2,0.3-0.4,0.3-0.6S62.7,11.5,62.6,11.3 M47.4,11.2c-0.8-0.5-1.5-0.4-2.3,0.2l-0.5,1.1c-0.7-0.4-1.5-0.6-2.3-0.5l-2.5,1.9
			v0.3c1.3-0.8,2.6-1.2,4-1.1c0.3,0.5,0.3,0.9-0.1,1.4c0.9-0.2,1.6-0.8,2.1-1.6c0.1,0,0.2,0,0.2,0C46.9,12.6,47.3,12.1,47.4,11.2"/>
		<path class="st0" d="M19.6,51.5c-0.1,0.1-0.2,0.1-0.3,0c1-1.5,2.2-3.1,3.6-4.7c-0.9,0.4-1.6,1.1-2.1,1.8c-2.7,1.8-5.2,3.9-7.6,6.3
			c1.6,2.8,3.6,5.4,6,7.9C26,69.6,34.1,73,43.7,73c6.1,0,11.6-1.4,16.6-4.1c-2.9-5.2-6.8-9.5-11.6-13c-0.8-0.6-1.7-0.8-2.6-0.6
			c-1.4,0.3-2.8,0.6-4.2,0.9l-0.4-0.7L41,55.7l-0.7,1.6l-1.4,0.5c-0.5,2.6-1.2,4.9-2.1,6.9c-0.3-0.1-0.4-0.3-0.5-0.5
			c0-0.1,0-0.2-0.1-0.3c0-0.1,0-0.1,0-0.2c1.1-1.6,1.7-3.4,1.7-5.4l-1.2-1.6l-0.1-1.8c-1.1,0.1-2-0.2-2.7-0.9
			c-0.5-0.6-0.4-1.1,0.3-1.4l0.6,0.1c0-0.6-0.3-1.1-0.9-1.6c-0.3-0.2-0.7-0.4-1.1-0.6c-0.5,0.1-0.9,0.5-1.1,0.9
			c0,0.1-0.1,0.1-0.2,0.2l0,0c0.4,1.6,0.1,2.8-0.8,3.7l-0.1,2.6l-1.2,1.3l-0.9,0.3l-0.1,0.1c-2.1,0.1-3.7-0.7-5-2.3
			c-0.1-0.1-0.1-0.2-0.2-0.2l-0.1,0.1c-0.8-1.2-0.9-2.4-0.2-3.7l2.8-1.6l3,0.7c0.2,0.4,0.6,0.8,1,1c0.1,0.1,0.3,0.1,0.4,0.2
			c0.5-0.5,0.7-1.2,0.7-1.9V51l0.3-1.3c-0.4-0.6-1-1-1.6-1.3c-0.4-0.2-0.7-0.2-1.1-0.2c-0.8-1-1.9-1.6-3.1-2c-0.1,0-0.2-0.1-0.3-0.1
			C22.9,47.7,21.1,49.5,19.6,51.5 M20.3,61.1c-0.9,0.3-1.8,0.3-2.8,0l-0.4-1.9l0.7-0.9c1.3-0.7,2.3-0.5,3,0.6c0.5,0.8,0.4,1.5-0.4,2
			L20.3,61.1 M43.7,57.5c0-0.1,0-0.2,0-0.3c1.3,0.1,1.8,0.7,1.5,1.8C44.2,59,43.7,58.4,43.7,57.5 M33,15.3c-1-1.7-2-3.4-3-5.1
			c-0.6-1-1.1-2-1.7-3c-3.3,1.6-6.3,3.9-9.1,6.6c-2.9,2.9-5.1,6-6.7,9.3c1.6,1.4,3.4,2.6,5.5,3.5c-2.2-0.8-4.1-1.7-5.9-2.7
			c-2,4.4-3,9.2-3,14.4c0,5.9,1.3,11.3,3.9,16.1c2.3-1.8,4.5-3.8,6.5-6l0.2-0.9c0.7-0.4,1.4-0.8,2.1-1.2c1.4-1.9,1.9-4.1,1.4-6.5
			c-3.5-0.9-6.8,0-9.7,2.6c-0.8,0.7-1.7,1.3-2.7,1.8c0.8-0.9,1.7-1.5,2.8-1.8c2.5-2.6,5.5-4,8.9-4.1c0.2,0,0.2-0.2,0-0.4
			c-0.1-0.2-0.2-0.3-0.2-0.5c-2.2-1-2.9-2.4-2.2-3.9c0.1-0.3,0.4-0.4,0.8-0.3c0.7,0.2,1.4,0.3,2.1,0.3c0.8-1.2,1.5-2.4,2.3-3.6
			c-1.3-0.7-2.6-1.3-3.9-1.8c0.3,0.1,0.5,0.2,0.8,0.2c1.8,0.5,3.4,0.4,4.9-0.3c0.7-0.3,1.1-0.9,1.2-1.6L27.1,25v-0.2
			c-3.9-1.5-7.3-3.5-10.2-6c3.9,2.1,7.8,4.1,11.8,6c0.2-0.3,0.3-0.6,0.1-0.9c0-0.1-0.1-0.2-0.2-0.3c-0.1-0.1-0.1-0.2-0.2-0.3v-0.1
			c-2.9-2.4-5.3-5.1-7.2-8.1c2.3,1.6,4.3,3.5,6.1,6c1.2,1.6,2.8,2.5,4.7,2.6l-0.2-1.1c-1.1-0.6-1.7-1.5-1.8-2.7c0-0.3,0-0.6,0.1-0.9
			l0.5-0.1c0,0.7,0.2,1.3,0.6,1.8c0.3,0.4,0.7,0.9,1.1,1.3C34.4,20.2,34.7,18,33,15.3 M37.1,10.2L37.1,10.2c0.4,2.3,1.4,4.2,3.1,5.8
			l1.2,0.7c3-0.3,6-0.5,9-0.7l1.3,2.3c1.5,0.4,3,0.5,4.5,0.2c1-0.6,1.8-1.4,2.5-2.3c0.1-0.1,0.1-0.2,0.1-0.3l0.8-0.6
			c2.3,0.3,4.4-0.2,6.3-1.6v0.5c-1.1,0.9-2.4,1.6-3.9,1.9c-0.2,0-0.4,0.1-0.6,0.1c-0.3,0.5-0.6,0.8-1.1,1.1
			c-0.2,0.1-0.4,0.2-0.6,0.4l-0.1,0.1c-0.5-0.2-1.1-0.2-1.5,0.2c-0.3,0.2-0.6,0.6-0.7,1l0.6,0.5l2.5-1.6c0.5,0.5,0.5,0.8,0,1
			c-0.7,0.2-1,0.7-1,1.4c0,0.1,0,0.1,0,0.2c0.6,0.1,1.1,0,1.6-0.2c0.1,0,0.2-0.1,0.2-0.1l0.1-0.1c1.3-0.3,2.3,0.1,3.1,1.1l0.2,0.1
			l0.5,1.4l-1.1,1.6c0.5-0.3,0.9-0.3,1.3,0c0.1,0.1,0.2,0.2,0.2,0.4c0,0.2,0.1,0.3,0.1,0.5c-0.8,0.2-1.6,0.2-2.3-0.2
			c-0.1,0-0.2-0.1-0.2-0.1c-0.2,0.1-0.4,0.3-0.4,0.5s-0.1,0.3-0.1,0.5l1.4,1.4c1.1,0,2.2-0.3,3.1-0.9c0.7-0.4,1.2-0.3,1.6,0.3
			l-0.4,0.6l-2.3,0c1,1,2.3,1.2,3.9,0.8c0.4-0.1,0.7-0.2,1.1-0.3l2.5-2.2v-0.1l2.1,0.2c0.4,0.4,0.6,0.9,0.6,1.4c0,0.2,0,0.3,0.1,0.5
			l-0.9,1.1c-2.3,0-4.2,0.8-5.8,2.3c0,0.5-0.1,1-0.4,1.5c-0.1,0.2-0.2,0.4-0.3,0.6c-2,0.5-2.6,1.8-1.9,4.1c0.1,0.4,0.4,0.7,0.9,0.9
			l6.5,0.6c0.6-0.5,1.3-0.7,2.1-0.5c-0.2,1.3-1.3,1.6-3.1,1.1c-2.8-0.9-5.3-0.7-7.4,0.5c-0.3,0.2-0.4,0.5-0.3,0.9
			c0.1,0.2,0.1,0.3,0.2,0.5c0.7,0.3,1.4,0.3,2,0.1c0.6,0.8,1.2,1.6,1.6,2.6c0,0.1,0.1,0.2,0.2,0.2c0,0.5-0.1,0.9-0.3,1.3
			c0,0.1-0.1,0.2-0.2,0.3s-0.2,0.2-0.4,0.2c-0.5-0.2-0.8-0.6-0.9-1.1c-0.1-0.4-0.1-0.8,0-1.2c-0.7-0.2-1.2-0.6-1.6-1.2
			c-0.1-0.1-0.1-0.3-0.1-0.4l-0.5-0.2l-0.2,0.4c1,1.7,1.2,3.4,0.7,5.1l2.3,4.4c-1-0.7-1.7-1.6-2.3-2.7c-0.2-0.4-0.5-0.7-0.9-1
			l-6.9,2.5l0.1,1.4c1.3,1,2.9,1.5,4.6,1.7c0.4,0.1,0.7,0.2,1,0.4c-2.2,0.3-4.2-0.2-6-1.5c-0.6,1.9-0.9,4-1.1,6.2c0,0,0,0.1-0.1,0.1
			h-0.7L56.2,58c0.5-0.6,0.8-1.4,0.8-2.2c0-0.5,0-1-0.1-1.5c-1-0.4-1.8-1.2-2.2-2.2l0.3-0.4l1.7,0.7c-0.3-0.5-0.7-0.8-1.3-1
			c0-0.2-0.2-0.2-0.4-0.2c-1.2,0.7-2.2,1.6-3,2.7c0.2,3.3,1.5,6.1,4.1,8.6c0.7,0.7,1.4,1.5,2,2.3c0.9,1.3,1.9,2.5,3,3.7
			c2.5-1.5,4.8-3.3,7.1-5.6c3.2-3.2,5.7-6.8,7.4-10.7l-0.1-0.3c0.1,0,0.1,0,0.2,0.1c1.8-4.2,2.6-8.7,2.6-13.6
			c0-9.5-3.4-17.7-10.1-24.4l-0.1,0.1c-0.2,0.2-0.4,0.2-0.7,0.2c-0.3,0-0.5-0.1-0.7-0.2c-0.2-0.2-0.3-0.4-0.3-0.6s0.1-0.4,0.3-0.6
			c0.1-0.1,0.1-0.1,0.2-0.1c-6.5-6-14.3-9-23.3-9c-5.3,0-10.3,1-14.7,3.1c1.9,4.3,4.2,8.5,6.8,12.5l2.3-1.7c0.4-1.1,0.4-2.1-0.2-3.1
			L35.7,14l-0.1-0.5c0.2-0.4,0.5-0.5,0.9-0.5c0.1,0,0.2,0,0.3,0c0.2-0.3,0.1-0.6-0.1-0.8c-0.6-0.5-0.9-1.2-1-1.9
			c0.3-0.4,0.6-0.5,0.9-0.2C36.9,9.9,37,10.1,37.1,10.2 M45,11.4c0.8-0.7,1.5-0.8,2.3-0.2c0,0.9-0.5,1.4-1.4,1.6c-0.1,0-0.2,0-0.2,0
			c-0.5,0.8-1.1,1.4-2.1,1.6C44,14,44,13.5,43.7,13c-1.4-0.1-2.8,0.3-4,1.1v-0.2l2.5-1.9c0.8-0.1,1.6,0.1,2.3,0.5L45,11.4 M61.9,11
			c0.3,0,0.5,0.1,0.7,0.3s0.3,0.4,0.3,0.6s-0.1,0.5-0.3,0.6c-0.2,0.2-0.4,0.2-0.7,0.2c-0.3,0-0.5-0.1-0.7-0.2
			c-0.2-0.2-0.3-0.4-0.3-0.6s0.1-0.5,0.3-0.6C61.3,11.1,61.6,11,61.9,11 M55.1,8.2c0.8-0.4,1.3-0.2,1.6,0.6c0.1,0.3,0.1,0.5,0,0.8
			c-0.8,0.1-1.4-0.3-1.5-1.1C55.1,8.4,55.1,8.3,55.1,8.2 M70.5,50c0.3-0.3,0.7-0.4,1.2-0.4s0.9,0.1,1.2,0.4c0.3,0.3,0.5,0.6,0.5,1
			s-0.2,0.7-0.5,1s-0.7,0.4-1.2,0.4s-0.8-0.1-1.2-0.4c-0.3-0.3-0.5-0.6-0.5-1C70,50.6,70.1,50.2,70.5,50 M68,53.3
			c0-0.1-0.1-0.2-0.1-0.3l0.6-0.4c0.8-0.2,1.3,0.2,1.6,1c0,0.1,0,0.2,0.1,0.3l-0.5,0.5C68.8,54.4,68.3,54,68,53.3 M62.8,56.9
			c0.9-0.5,1.5-0.3,1.9,0.6c0.1,0.2,0.2,0.5,0.1,0.7c-1.1,0.4-1.8,0-2-1.1C62.8,57.1,62.8,57,62.8,56.9"/>
		<path class="st2" d="M14.8,7.4c0-0.2-0.1-0.4-0.3-0.5c-0.2-0.2-0.4-0.2-0.6-0.2c-0.3,0-0.5,0.1-0.7,0.2c-0.2,0.2-0.3,0.3-0.3,0.5
			s0.1,0.4,0.3,0.5c0.2,0.2,0.4,0.2,0.7,0.2c0.3,0,0.5-0.1,0.6-0.2C14.7,7.8,14.8,7.6,14.8,7.4"/>
		<path class="st2" d="M2.1,2.4c0,0.1,0,0.1,0,0.2c0.1,0.8,0.5,1.2,1.3,1.2l0.5-0.2C4,2.2,3.4,1.8,2.1,2.4"/>
		<path class="st2" d="M2.3,10.3c0-0.2,0-0.3,0-0.5C2,8.7,1.2,8.3,0,8.7v0.7c0.6,0.1,1,0.4,1.1,0.9c0,0,0.1,0,0.2,0.1
			C1.7,10.5,2,10.5,2.3,10.3"/>
		<path class="st2" d="M6.8,12.7c0-1.2-0.6-1.6-1.7-1.2c0.1,0.9,0.7,1.4,1.6,1.4C6.7,12.8,6.8,12.7,6.8,12.7"/>
		<path class="st2" d="M8.5,14.7c0.4,0.5,1,0.9,1.7,1.1c-0.1-0.2-0.2-0.5-0.3-0.7c-0.4-1-1-1.6-2.1-1.8C8,13.8,8.2,14.3,8.5,14.7"/>
		<path class="st2" d="M33,81.4c0.1,0,0.1-0.1,0.2-0.1c1-0.5,1.2-1.2,0.6-2.1c-0.8-0.5-1.5-0.5-2.2,0.1C31.7,80.3,32.1,81,33,81.4"
			/>
		<path class="st2" d="M20.4,73.5c0.2-0.1,0.2-0.3,0.2-0.5s-0.1-0.3-0.2-0.5c-0.2-0.1-0.4-0.2-0.6-0.2s-0.4,0.1-0.6,0.2
			S19,72.8,19,73s0.1,0.3,0.2,0.5c0.2,0.1,0.4,0.2,0.6,0.2S20.2,73.7,20.4,73.5"/>
		<path class="st3" d="M210.5,34.4l2.2-4.3c1.6-3,2.9-5.2,3.8-6.7h-7L203.8,35l1.9,3.9c1.2,2.6,2.7,5.4,4.5,8.3h8.5
			c-2.6-3-4.5-5.8-5.8-8.3L210.5,34.4 M203.6,29.9c0-2.7,0.1-4.9,0.3-6.6h-7.4c0.2,1.7,0.3,3.9,0.3,6.6v10.6c0,1.8-0.1,4.1-0.2,6.6
			h7c-0.1-3.9-0.2-6.1-0.2-6.6V29.9 M188.9,28.3c0.4,0,1.7,0.2,3.7,0.5v-5.7c-1.8-0.2-3.2-0.3-4.1-0.3c-3.7,0-6.6,0.9-8.7,2.7
			c-2.4,2-3.6,5.1-3.6,9.1c0,3.5,1.1,6.5,3.2,9c2.4,2.8,5.6,4.2,9.5,4.2l3.9-0.3V42c-1,0.2-2,0.3-3,0.3c-2.2,0-3.9-0.7-5.2-2.2
			c-1.2-1.4-1.8-3.2-1.8-5.4c0-1.9,0.5-3.4,1.4-4.5C185.4,28.9,186.9,28.3,188.9,28.3 M155.4,39.1c-1.4,3.8-2.5,6.5-3.1,8h6.4
			c0.3-1.4,0.8-3.3,1.6-5.7h6.7c0.8,2.5,1.4,4.4,1.8,5.7h7.2c-1.8-3.9-2.9-6.6-3.4-8.2l-2.3-6.7c-1.3-3.9-2.1-7-2.3-9.5l-8,1.1
			c-0.3,2.5-1.2,5.6-2.5,9.3L155.4,39.1 M163.8,27.9L163.8,27.9c0.3,1.6,0.6,3.2,1,5c0.4,1.5,0.8,3,1.2,4.5h-4.6
			C162.6,33.8,163.4,30.6,163.8,27.9 M149.4,29.9c0-2.7,0.1-4.9,0.3-6.6h-7.4c0.2,1.7,0.3,3.9,0.3,6.6v2.3H136v-2.3
			c0-2.7,0.1-4.9,0.3-6.6h-7.4c0.2,1.7,0.3,3.9,0.3,6.6v10.6c0,1.8-0.1,4.1-0.2,6.6h7c-0.1-3.9-0.2-6.1-0.2-6.6V37h6.6v3.5
			c0,1.8-0.1,4.1-0.2,6.6h7c-0.1-3.9-0.2-6.1-0.2-6.6V29.9 M123,36.1l1.1-4.6c0.6-2.6,1.4-5.4,2.4-8.4l-6.7,0.3
			c-0.6,4.3-1.2,8-1.8,10.9l-1.2,6h-0.1l-2.1-9.9c-0.7-3.3-1.3-5.7-1.6-7.3l-7,0.3c-0.4,2.6-0.9,5.1-1.3,7.4l-1.8,9.5h-0.1
			c-0.3-2.3-0.9-5.4-1.7-9.2c-0.8-3.6-1.4-6.3-1.8-8l-6.7,0.3c1.2,3.4,2.1,6.3,2.7,8.7l1.5,5.6c0.4,1.5,0.8,3.3,1.1,5.2
			c0.1,0.7,0.4,2.3,0.8,4.8l8.3-1c0.1-1.8,0.4-3.8,0.8-6l1.6-8.6h0.1l1.8,8.4c0.4,2,0.9,4.4,1.3,7.2l8.1-1
			C121.3,43.7,122.1,40.2,123,36.1"/>
		<path class="st0" d="M30.5,24.4c-0.1-0.1-0.2-0.1-0.3-0.1c-0.8,0.2-1.5,0.6-2.1,1.4c-0.4,0.5-0.7,1.1-0.9,1.7c0,0.1,0,0.3,0.1,0.3
			c-0.7,2.5-1.8,4.9-3.1,7.1c-0.2,0.3-0.4,0.7-0.5,1.1c-0.3,1.3-0.1,2.5,0.6,3.6c0.1,0.2,0.3,0.3,0.5,0.4c0.4,0.2,0.9,0.3,1.4,0.2
			c0.3,1.2,0.6,2.3,0.9,3.5c0,0.2,0.1,0.4,0.2,0.6C28.4,46,30,47,32,47c0.4,0,0.7,0,1.1-0.1l0.7,0.2c0.3,0.4,0.6,0.8,1.1,1.1
			s0.9,0.4,1.4,0.4c1.6,0,3.2,0,4.8-0.1c0.2,0,0.3,0,0.5,0.1c1,0.5,2.1,1.1,3.1,1.6c0.4,0.2,0.8,0.4,1.3,0.5
			c0.3,0.1,0.6,0.1,0.9,0.1c0.8,0,1.7-0.1,2.5-0.1c0.7,1.8,1.9,2.9,3.7,3.3c1,0.2,1.9,0,2.6-0.7c0.1-0.1,0.3-0.3,0.4-0.5
			c0.5-0.7,1.1-1.1,2-1.2c0.9,0,1.8-0.1,2.7-0.2c1.9-0.2,3.7-0.5,5.6-0.9c0.3,0,0.4-0.2,0.5-0.5s0.1-0.5,0.1-0.8c0-0.5,0-0.9,0-1.3
			c0.1-1.4,0.2-2.7,0.1-4.1c0-2.1-0.5-3.9-1.7-5.5c-0.3-0.4-0.6-0.7-0.9-1c-0.9-0.8-1.9-1.4-3-1.7c-0.1,0-0.2,0-0.2,0
			c0-0.8-0.1-1.7-0.2-2.7c-0.2-2.4-0.6-4.7-1.4-7c-0.4-1.2-0.9-2.3-1.5-3.3c-0.1-0.2-0.2-0.3-0.3-0.4c-0.6-0.8-1.4-1.1-2.3-0.9
			c-0.9,0.2-1.8,0.6-2.6,1.1c-0.4,0.3-0.9,0.2-1.3-0.2c-0.1-0.1-0.3-0.2-0.4-0.3c-0.2-0.1-0.4-0.2-0.5-0.4h-0.3
			c-0.7-1.2-1.7-1.8-3-1.7c-0.9,0-1.7,0.3-2.4,0.7c-0.2,0.1-0.4,0.3-0.5,0.5c-1,1.2-2.1,1.8-3.5,1.7c-0.2,0-0.3-0.1-0.4-0.2v-0.1
			c-0.2-0.1-0.3-0.3-0.4-0.7c0-0.1-0.1-0.2-0.2-0.3c-0.6-0.2-1.2-0.2-1.9-0.1c-0.8,0.2-1.6,0.6-2.4,1c-1.4,0.8-2.9,1.4-4.5,1.6
			C30.9,24.5,30.8,24.5,30.5,24.4 M35.1,23.9c0,0,0.1,0,0.1-0.1c0.1-0.1,0.3-0.2,0.4-0.3c1-0.6,2.1-0.9,3.2-0.9
			c0.2,0,0.3,0.1,0.4,0.2c0.3,0.5,0.6,1,0.7,1.6c0.1,0.2,0.1,0.5,0.2,0.7l0.4,1.2c0.1,0.2,0.1,0.4,0.2,0.5l-0.3-3
			c1,0.2,1.8,0,2.6-0.4c0.4-0.3,0.8-0.6,1.2-1c0.7-0.8,1.5-1.3,2.5-1.4c0.7-0.1,1.4,0,2.1,0.3c0.2,0.1,0.4,0.2,0.6,0.4
			c0,0.1,0.1,0.1,0.1,0.2l0.2,0.7c0,0.6,0,1.1,0,1.7c0,0.9-0.2,1.8-0.4,2.6l0.6-2l0.5-1.8c0.7,0.6,1.5,0.8,2.2,0.7
			c0.2,0,0.3-0.1,0.4-0.2c0.5-0.4,1.1-0.7,1.7-0.9c0.5-0.1,1-0.2,1.6-0.1c0.8,0.1,1.1,0.6,1.1,1.5c0,1.4,0.1,2.9,0.2,4.3l0.5-2.3
			v-0.7c1.3,3,1.9,6.1,1.9,9.3c0,0.7-0.1,1.4-0.2,2.1c-0.1,0.6-0.2,1.2-0.4,1.8c-0.1,0.4-0.1,0.8-0.2,1.1c-0.1,0.3-0.2,0.5-0.3,0.8
			c0,0.1-0.1,0.1-0.1,0.2c-0.1,0.1-0.2,0.3-0.3,0.4c-1.5,0-3,0.3-4.4,1c-0.4,0.2-0.8,0.4-1.3,0.6c-0.1,0-0.1,0-0.2,0l0,0
			c-0.2-0.3-0.3-0.6-0.2-1c0-0.5,0-0.9,0-1.3c-0.1-1.8-0.2-3.6-0.5-5.4c-0.1,0-0.2-0.6-0.2-1.7c0-0.2,0-0.3,0-0.5
			c0-0.1,0-0.2-0.1-0.3c-0.1-0.8-0.5-1.4-1.1-1.6c-0.1,0-0.1,0-0.2,0c0,0-0.1,0-0.1,0.1c-0.1,0.5,0,1,0.4,1.5
			c0.2,0.2,0.3,0.5,0.4,0.7c0.1,0.3,0.2,0.6,0.3,1c0.3,2.2,0.4,4.3,0.3,6.5c0,0.7,0,1.5,0.2,2.1c0.1,0.2,0.1,0.4,0.2,0.5v0.3
			l-0.4,1.3L51,47c-0.9,0.4-1.9,0.6-2.9,0.7c-0.5,0-1,0-1.4,0.1c-1.1,0.2-2.2,0-3.2-0.5c-0.4-0.2-0.6-0.5-0.8-0.9
			c-0.5-1.1-0.8-2.3-0.9-3.6c-0.2-2.2-0.3-4.5-0.4-6.7c0,0,0-0.1,0-0.2c0-1.2-0.3-2.3-0.8-3.3c-0.1-0.3-0.3-0.6-0.5-0.9
			c0-0.1-0.1-0.1-0.2-0.1c0,0.2-0.1,0.3-0.1,0.5c0,0.4,0,0.8,0.2,1.2c0.5,1.5,0.8,3,0.9,4.5c0,0.6,0.1,1.3,0.1,1.9
			c0.1,1.6,0.2,3,0.2,4.1c0.1,1,0.3,1.9,0.6,2.7l-0.4,0.1l-0.5,1.2c-1.5,0.2-3,0.3-4.5,0.5c-0.1,0-0.2,0-0.3,0
			c-1.2-0.3-1.8-1.1-2-2.3c0-0.1,0-0.3-0.1-0.4c0-0.2,0-0.3,0-0.5c0-0.6,0-1.3-0.1-1.9c0-1-0.2-2.1-0.4-3.1
			c-0.1-0.5-0.2-1.1-0.2-1.6c0-0.4,0-0.8,0-1.3c0-0.4,0.1-0.8,0.1-1.2c0-0.2,0-0.3,0-0.5l0,0c-0.2,0.1-0.4,0.2-0.5,0.3
			c-0.2,0.2-0.3,0.5-0.3,0.9c0,0.1,0,0.2,0,0.4l0,0c0,0,0,0.1,0,0.2c0,0.2,0,0.3,0,0.5c0,0.1,0,0.3,0.1,0.4c0.3,1.8,0.5,3.5,0.6,5.3
			c0,0.6,0,1.2,0,1.8c0,0.5,0.1,0.9,0.2,1.4l-0.4-0.3L33,46.5c-1-0.1-1.8-0.3-2.7-0.7c-0.5-0.2-0.9-0.5-1.4-0.8
			c-0.2-0.1-0.3-0.2-0.4-0.4c-0.1-0.2-0.3-0.4-0.4-0.6c-0.3-0.7-0.6-1.4-0.7-2.2c0-0.2-0.1-0.5-0.1-0.7c0-0.5-0.1-1-0.3-1.5
			c-0.2-0.8-0.6-1.4-1.2-1.8l0.1,1.3c-0.6-0.2-1.1-0.6-1.5-1.2c-0.1-0.1-0.1-0.2-0.1-0.3c0-0.4,0-0.8,0.1-1.2c0.1-0.7,0.3-1.3,0.7-2
			c0.8-1.4,1.5-2.8,2.3-4.1c0.4-0.7,0.6-1.5,0.7-2.4c0-0.1,0-0.2-0.1-0.3c0-0.2,0.2-0.5,0.3-0.8c0.5-0.9,1.3-1.5,2.3-1.7
			c0.6,0.5,1.2,1.2,1.6,2c0.2,0.4,0.4,0.7,0.5,1.1c0,0,0,0.1,0.1,0.1l0,0c0-1.2-0.3-2.3-0.9-3.3h-0.1l0,0
			C33.1,25,34.2,24.7,35.1,23.9 M65.2,39.9c0.8,1.7,1.2,3.6,1.3,5.5c0,0.4,0,0.8-0.1,1.3s-0.2,1.1-0.2,1.6c-0.1,0.4-0.2,0.8-0.2,1.1
			c-0.1,0.3-0.1,0.6-0.2,0.9c-1.1,0.1-2.2,0.2-3.4,0.3c-1.6,0.1-3.2,0.4-4.8,0.7c0-0.1,0-0.2,0-0.4c-0.1-0.7-0.3-1.3-0.7-1.9
			c-0.3-0.4-0.6-0.7-1-0.9c-0.1,0-0.2-0.1-0.2-0.1c-0.5-0.2-0.9-0.1-1.1,0.2c-0.3,0.3-0.5,0.8-0.4,1.5l0.1,0.5
			c0.1,0.4,0.1,0.8,0.2,1.1c0.2,0.9,0.4,1.5,0.7,1.6L55.1,53c-0.1,0.1-0.2,0.2-0.3,0.4c-1.2,0.3-2.3,0-3.3-0.9
			c-0.2-0.2-0.4-0.4-0.6-0.6c-0.2-0.2-0.4-0.5-0.6-0.7c-0.6-0.8-0.7-1.6-0.3-2.5c0.1-0.2,0.1-0.4,0.1-0.6c0.2-0.2,0.4-0.3,0.8-0.4
			c0.3-0.1,0.5-0.2,0.7-0.3v-0.1l0,0c0.1-0.1,0.2-0.2,0.2-0.3v-0.1v-0.1c0.4-0.6,0.7-1.3,1-2.1c0.1-0.4,0.2-0.9,0.2-1.3l0.4-0.5
			c0.5-0.1,1-0.2,1.5-0.1c0.4,0,0.9,0,1.3-0.1c0.4-0.1,0.9-0.2,1.3-0.4c0.3-0.1,0.6-0.2,0.8-0.4c0.7,0.3,1.4,0.6,2.1,0.8
			c0.5,0.2,1,0.3,1.5,0.3c0.2,0,0.4,0,0.5-0.1c0,0,0.1,0,0.1-0.1l0.1-0.3l-3.8-1.2c0.4-0.4,0.7-0.8,1-1.2c0.3-0.5,0.6-1.2,0.7-1.9
			c0.1-0.5,0.2-0.9,0.2-1.4l0.5,0.1c0.1,0.1,0.2,0.1,0.3,0.2c0.5,0.3,0.9,0.5,1.5,0.8C64.1,38.4,64.7,39,65.2,39.9 M42.1,47.9
			c-0.2-0.1-0.2-0.3,0-0.6c0.1-0.1,0.1-0.1,0.2-0.1c0.9,0.9,1.9,1.3,3.1,1.3c1.3,0,2.7-0.1,4-0.3c-0.4,0.6-0.5,1.2-0.3,1.9
			c-0.3,0.1-0.7,0.2-1.2,0.1c-1.1,0-2.2-0.2-3.3-0.5c-0.2,0-0.3-0.1-0.4-0.2C43.6,48.9,42.8,48.4,42.1,47.9 M54.9,49.8
			c0-0.2,0-0.4,0-0.5c0-0.2,0-0.3,0-0.5c0.8,0.2,1.4,0.6,1.8,1.4c0,0.1,0.2,0.4,0.4,0.9c0,0.1,0.1,0.2,0.1,0.3
			c-0.2,0-0.4,0.1-0.5,0.2c-0.4,0.2-0.8,0.5-1.1,0.8c0-0.3-0.1-0.7-0.3-1.2C55,50.5,54.9,50.1,54.9,49.8"/>
		<path class="st4" d="M54.8,49.3c0,0.1,0,0.3,0,0.5s0.1,0.7,0.3,1.4c0.2,0.5,0.2,0.9,0.3,1.2c0.3-0.3,0.7-0.6,1.1-0.8
			c0.2-0.1,0.4-0.1,0.5-0.2c0-0.1-0.1-0.2-0.1-0.3c-0.2-0.5-0.3-0.8-0.4-0.9c-0.4-0.8-1-1.2-1.8-1.4C54.8,48.9,54.8,49.1,54.8,49.3"
			/>
		<g>
			<g>
				<defs>
					<path id="SVGID_1_" d="M42.1,47.3c-0.2,0.3-0.2,0.5,0,0.6c0.8,0.5,1.5,1,2.2,1.5c0.1,0.1,0.3,0.2,0.4,0.2
						c1.1,0.4,2.1,0.5,3.3,0.5c0.5,0,0.9,0,1.2-0.1c-0.2-0.7-0.1-1.4,0.3-1.9c-1.3,0.2-2.6,0.3-4,0.3c-1.2,0-2.3-0.4-3.1-1.3
						C42.2,47.2,42.2,47.2,42.1,47.3 M61.5,38.1c-0.4,2.1,0.2,3.6,1.9,4.6l-0.5,0.5L62.5,43c-0.2,0.1-0.3,0.1-0.5,0.1
						c-0.5-0.1-1-0.2-1.5-0.3l-2.9-0.4c-0.4,0.2-0.8,0.3-1.3,0.4c-0.1,0.1-0.2,0.1-0.3,0.2c-1.6,1-3,2.4-4.1,4.1
						c0,0.1-0.1,0.2-0.2,0.3l0,0c0,0.1-0.1,0.2-0.1,0.3C51,49,50.8,50.5,51,52c0.2,0.2,0.4,0.4,0.6,0.6c1,0.9,2.1,1.2,3.3,0.9
						c0.1-0.1,0.2-0.2,0.3-0.4l0.1-0.1c-0.2-0.1-0.4-0.6-0.7-1.6c-0.1-0.3-0.2-0.7-0.2-1.1l-0.1-0.5c-0.1-0.7,0.1-1.2,0.4-1.5
						c0.3-0.3,0.7-0.3,1.1-0.2c0.1,0,0.2,0.1,0.2,0.1c2.9-1.4,5.7-1,8.5,1.1c0.3,0.2,0.5,0.4,0.8,0.6c0.3-0.2,0.5-0.5,0.7-0.8
						c0.1-0.2,0.3-0.5,0.4-0.7c0.1-0.5,0.2-1.1,0.2-1.6c0-0.4,0.1-0.8,0.1-1.3c-0.1-1.9-0.5-3.8-1.3-5.5c-0.5-0.9-1.2-1.5-2-1.9
						c-0.5-0.2-1-0.5-1.5-0.8C61.7,37.5,61.6,37.8,61.5,38.1 M35.6,23.5c-0.1,0.1-0.3,0.2-0.4,0.3c0,0,0,0.1-0.1,0.1
						c-0.1,0.3-0.2,0.5-0.2,0.7c0,0.3,0,0.7-0.2,1.3c0,0.1-0.1,0.3-0.2,0.7c0,0.1-0.1,0.2-0.1,0.3c-0.1,0.2-0.1,0.4-0.2,0.6
						c-0.3,0.7-0.5,1.3-0.6,1.8c-0.1,0.3-0.1,0.6-0.2,0.8c-0.1-0.4-0.3-1-0.6-1.7l0,0l-0.1-0.1c-0.1-0.3-0.3-0.7-0.5-1.1
						c-0.4-0.8-1-1.5-1.6-2c-1,0.2-1.8,0.8-2.3,1.7c-0.2,0.3-0.3,0.6-0.3,0.8c0,0.1,0.1,0.2,0.1,0.3c0,0.9-0.3,1.7-0.7,2.4
						c-0.8,1.4-1.5,2.7-2.3,4.1c-0.3,0.6-0.5,1.3-0.7,2c0.3,0.5,0.6,0.9,1.1,1.1l0.1,0.1c-0.1-0.9,0.1-1.7,0.6-2.3
						c0.2,0.6,0.6,1.1,1.1,1.5c0.3,0.2,0.6,0.3,0.8,0.4l-0.8,4.6c0.1,0.8,0.4,1.5,0.7,2.2c0.1,0.2,0.2,0.4,0.4,0.6l4,0.3l-2.2,0.9
						c0.8,0.4,1.7,0.6,2.7,0.7l0.1-0.1l0.6,0.1c-0.1-0.4-0.2-0.9-0.2-1.4c0-0.6,0-1.2,0-1.8c-0.1-1.8-0.3-3.6-0.6-5.3
						c0-0.2,0-0.3-0.1-0.4v-0.1c0-0.1,0-0.1-0.1-0.2c0-0.1-0.1-0.2-0.1-0.3c0,0,0-0.1,0-0.2c0-0.1,0,0,0.1,0.2
						c0,0.1,0.1,0.1,0.1,0.1c0-0.1,0-0.1,0-0.2l0,0c0,0,0-0.1,0-0.2c0-0.4-0.1-0.6-0.1-0.7c0,0,0-0.2,0.1-0.4c0-0.2,0.1-0.3,0.1-0.3
						c0-0.1,0-0.1,0.1-0.2c0-0.1,0-0.2,0-0.2c0-0.1,0-0.1,0-0.3c0-0.1,0-0.2,0-0.2c0-0.1,0-0.1,0-0.2c0-0.1,0-0.2,0-0.2
						c0-0.1,0-0.1,0-0.2c0-0.1,0-0.1,0-0.2c0-0.1-0.1-0.3-0.2-0.6c-0.1-0.2-0.1-0.3-0.1-0.3s0-0.1-0.1-0.2c0-0.1-0.1-0.1-0.1-0.2
						c0-0.1,0-0.2,0.1-0.3s0.2-0.1,0.2-0.1s0.2,0.1,0.4,0.4c0.3,0.3,0.4,0.5,0.4,0.6c0,0,0,0.1,0.1,0.2l0.1,0.1c0,0,0,0.2,0.1,0.3
						c0,0.2,0.1,0.3,0.1,0.3c0.2,1.5,0.2,2.3,0.2,2.3s0,0.1,0,0.3c0,0.1,0,0.2,0,0.2s0,0.2-0.1,0.4s-0.2,0.4-0.2,0.4
						c0,0.1,0,0.3-0.2,0.5c0,0.1-0.1,0.2-0.1,0.2c0,0.5,0.1,1.1,0.2,1.6c0.2,1,0.4,2,0.4,3.1c0,0.6,0,1.3,0.1,1.9
						c2.4,0.6,4.8,0.9,7.3,0.9c-0.1,0-0.3,0.1-0.4,0.1c-2.3,0.4-4.5,0.3-6.8-0.1c0.2,1.2,0.8,2,2,2.3c0.1,0,0.2,0,0.3,0
						c1.5-0.1,3-0.3,4.5-0.5l0.5-1.2l0.4-0.1c-0.4-0.9-0.6-1.8-0.6-2.7c-0.1-1.1-0.2-2.5-0.2-4.1c0-0.6-0.1-1.3-0.1-1.9
						c0-1.6-0.3-3.1-0.9-4.5C40,32.6,40,32.2,40,31.8c0-0.1,0-0.1-0.1-0.2c0.1,0.1,0.1,0.1,0,0c-0.1-0.2-0.1-0.3-0.2-0.4
						c0-0.1,0-0.2,0-0.4c0.1-0.2,0.1-0.3,0.1-0.4c0-0.1,0-0.2,0-0.4s0.1-0.3,0.2-0.3c0.2,0,0.4,0.1,0.6,0.3l0.1,0.1L40.6,26
						l-0.4-1.2c-0.1-0.2-0.1-0.5-0.2-0.7c-0.2-0.6-0.4-1.1-0.7-1.6c-0.1-0.1-0.3-0.2-0.4-0.2C37.7,22.6,36.6,22.9,35.6,23.5
						 M46.8,21.1c-1,0.1-1.9,0.5-2.5,1.4c-0.4,0.4-0.8,0.8-1.2,1c-0.3,1-0.5,1.9-0.6,2.9c0,0.1,0,0.1,0,0.2c0,0.2-0.1,0.5-0.1,0.7
						c-0.4,2.9-0.7,5.7-0.8,8.6c0.1,2.2,0.2,4.5,0.4,6.7c0.1,1.3,0.4,2.4,0.9,3.6c0.2,0.4,0.4,0.7,0.8,0.9c1,0.5,2.1,0.6,3.2,0.5
						c0.5,0,1-0.1,1.4-0.1c1-0.1,2-0.3,2.9-0.7l0.6-2.1c-2.5,0.3-4.9-0.1-7.3-1.1c-0.1-0.1-0.3-0.1-0.4-0.2c2.3,0.9,4.6,0.8,6.9-0.2
						c0.4-0.2,0.7-0.4,1-0.6c-0.2-0.7-0.3-1.4-0.2-2.1c0.1-2.2,0-4.3-0.3-6.5c-0.1-0.3-0.1-0.6-0.3-1c-0.1-0.2-0.2-0.5-0.4-0.7
						c-0.4-0.5-0.5-1-0.4-1.5c0,0,0.1,0,0.1-0.1c0-1.7-0.2-3.5-0.4-5.2c0-0.2-0.1-0.5-0.1-0.7l-0.6,2c0.2-0.9,0.3-1.7,0.4-2.6
						c0-0.5,0-1.1,0-1.7l-0.2-0.7c0-0.1-0.1-0.2-0.1-0.2c-0.2-0.2-0.4-0.3-0.6-0.4c-0.5-0.2-1.1-0.3-1.6-0.3
						C47.2,21,47,21,46.8,21.1"/>
				</defs>
				<clipPath id="SVGID_00000177443359279319594480000009837093307150709666_">
					<use xlink:href="#SVGID_1_"  style="overflow:visible;"/>
				</clipPath>
				
					<linearGradient id="SVGID_00000047020583902890894600000002485134132097822117_" gradientUnits="userSpaceOnUse" x1="-230.5931" y1="586.2601" x2="-230.2451" y2="586.2601" gradientTransform="matrix(-9.7992 -67.9695 67.9695 -9.7992 -42060.7539 -9883.0039)">
					<stop  offset="0" style="stop-color:#CD7142"/>
					<stop  offset="0.149" style="stop-color:#D19964"/>
					<stop  offset="0.8549" style="stop-color:#D19964"/>
					<stop  offset="1" style="stop-color:#FEE4D2"/>
				</linearGradient>
				
					<polygon style="clip-path:url(#SVGID_00000177443359279319594480000009837093307150709666_);fill:url(#SVGID_00000047020583902890894600000002485134132097822117_);" points="
					71.2,53 65.7,15.1 19.9,21.7 25.3,59.6 				"/>
			</g>
		</g>
		<path class="st6" d="M53.1,43.4c0,0.5-0.1,0.9-0.2,1.3c-0.3,0.7-0.6,1.4-1,2.1v0.1V47c1.1-1.7,2.4-3.1,4.1-4.1
			c0.1-0.1,0.2-0.1,0.3-0.2c-0.4,0.1-0.8,0.1-1.3,0.1s-1,0-1.5,0.1L53.1,43.4 M60.4,42.7c-0.7-0.2-1.4-0.5-2.1-0.8
			c-0.3,0.2-0.5,0.3-0.8,0.4L60.4,42.7 M50.1,48.1c0,0.2,0,0.4-0.1,0.6c-0.4,0.9-0.3,1.7,0.3,2.5c0.2,0.3,0.4,0.5,0.6,0.7
			c-0.2-1.5,0.1-2.9,0.6-4.3c0-0.1,0.1-0.2,0.1-0.3v0.1c-0.2,0.2-0.5,0.3-0.7,0.3C50.6,47.8,50.3,47.9,50.1,48.1 M61.5,37.1L61,37
			c0,0.5-0.1,0.9-0.2,1.4c-0.2,0.7-0.4,1.3-0.7,1.9c-0.3,0.4-0.6,0.8-1,1.2l3.8,1.2L62.8,43c0,0-0.1,0-0.1,0.1l0.4,0.2l0.6-0.5
			c-1.7-1-2.4-2.5-1.9-4.6c0.1-0.3,0.1-0.5,0.2-0.8C61.6,37.2,61.6,37.1,61.5,37.1 M66,49.4c0.1-0.4,0.2-0.8,0.2-1.1
			c-0.1,0.2-0.2,0.5-0.4,0.7c-0.2,0.3-0.4,0.5-0.7,0.8c-0.3-0.2-0.5-0.4-0.8-0.6c-2.8-2.1-5.6-2.5-8.5-1.1c0.4,0.2,0.7,0.5,1,0.9
			c0.4,0.6,0.6,1.2,0.7,1.9c0,0.2,0,0.3,0,0.4c1.6-0.3,3.1-0.5,4.8-0.7c1.1-0.1,2.2-0.2,3.4-0.3C65.9,50.1,65.9,49.7,66,49.4"/>
		<path class="st7" d="M59.6,38.5c-0.1,0.1-0.3,0.2-0.4,0.3c-0.4,0.3-0.9,0.5-1.3,0.6c-0.1,0-0.3,0.1-0.4,0.1
			c-1.6,0.3-3.2,0.3-4.8-0.2c0.1,0.1,0.3,0.1,0.4,0.2c1.9,0.9,4,1.2,6.1,0.9c0.1-0.2,0.2-0.5,0.3-0.8C59.5,39.3,59.5,38.9,59.6,38.5
			 M44.1,43.4c0.1,0.1,0.3,0.1,0.4,0.2c2.4,1,4.8,1.4,7.3,1.1l0.4-1.3v-0.3c-0.1-0.2-0.1-0.4-0.2-0.5c-0.3,0.2-0.6,0.4-1,0.6
			C48.7,44.2,46.4,44.3,44.1,43.4 M34.2,45.4c0,0.1,0,0.3,0.1,0.4c2.3,0.4,4.5,0.4,6.8,0.1c0.2,0,0.3,0,0.4-0.1
			c-2.5,0-4.9-0.3-7.3-0.9C34.2,45.1,34.2,45.3,34.2,45.4 M30.2,45.8l2.2-0.9l-4-0.3c0.1,0.1,0.3,0.3,0.4,0.4
			C29.3,45.3,29.8,45.6,30.2,45.8"/>
		<path class="st8" d="M43.1,23.5c-0.8,0.4-1.6,0.6-2.6,0.4l0.3,3c-0.1-0.2-0.1-0.4-0.2-0.5l0.1,4.1c0-0.1-0.1-0.1-0.1-0.1
			c-0.2-0.2-0.3-0.4-0.6-0.3c-0.1,0-0.1,0.1-0.2,0.3c0,0.1,0,0.3,0,0.4c0,0.1,0,0.2-0.1,0.4s-0.1,0.3,0,0.4c0,0.1,0.1,0.2,0.2,0.4
			c0.1,0.1,0.1,0.1,0,0c0,0.1,0.1,0.1,0.1,0.2c0-0.2,0-0.3,0.1-0.5c0.1,0,0.1,0,0.2,0.1c0.2,0.3,0.3,0.6,0.5,0.9
			c0.5,1,0.8,2.1,0.8,3.3c0,0.1,0,0.1,0,0.2c0.1-2.9,0.4-5.8,0.8-8.6c0-0.3,0.1-0.5,0.1-0.7c0-0.1,0-0.1,0-0.2
			C42.6,25.4,42.8,24.4,43.1,23.5 M54.3,23.8c0-0.2,0.2-0.5,0.5-1c0.1-0.1,0.1-0.1,0.2-0.2c-0.6,0.2-1.2,0.4-1.7,0.9
			c-0.1,0.1-0.2,0.2-0.4,0.2c-0.8,0.2-1.5-0.1-2.2-0.7l-0.6,1.9c0,0.2,0.1,0.4,0.1,0.7c0.2,1.7,0.4,3.5,0.4,5.2c0,0,0.1,0,0.2,0
			c0.6,0.3,1,0.8,1.1,1.6c0,0.1,0,0.2,0.1,0.3c-0.1-1.4-0.2-2.2-0.2-2.3c0-0.3,0-0.5,0-0.6c0-0.2,0.1-0.3,0.1-0.5
			c0-0.3,0.4-1.3,1.2-3C53.4,25.5,53.9,24.6,54.3,23.8 M32.6,36.8c0,0.1,0,0.1,0,0.2c0,0.1,0,0.2,0.1,0.3c0,0.1,0.1,0.2,0.1,0.2v0.1
			c0-0.2,0-0.3,0-0.5c0,0,0,0-0.1-0.1S32.5,36.8,32.6,36.8 M33.8,33.1c0-0.1-0.1-0.1-0.1-0.2c0-0.1-0.1-0.3-0.4-0.6
			c-0.2-0.3-0.4-0.4-0.4-0.4s-0.1,0-0.2,0.1c-0.1,0.1-0.2,0.2-0.1,0.3c0,0,0,0.1,0.1,0.2c0,0.1,0,0.2,0.1,0.2c0,0,0,0.1,0.1,0.3
			s0.1,0.4,0.2,0.6c0,0,0,0.1,0,0.2c0,0.1,0,0.1,0,0.2c0,0,0,0.1,0,0.2c0,0.1,0,0.2,0,0.2s0,0.1,0,0.2c0,0.1,0,0.2,0,0.3
			c0,0,0,0.1,0,0.2c0,0.1-0.1,0.2-0.1,0.2s0,0.1-0.1,0.3s-0.1,0.3-0.1,0.4c0,0.1,0,0.3,0.1,0.7c0,0.1,0,0.1,0,0.2c0-0.1,0-0.2,0-0.4
			c0-0.4,0.1-0.7,0.3-0.9c0.1-0.2,0.3-0.3,0.5-0.3l0,0c0.1,0.2,0.1,0.3,0,0.5c-0.1,0.4-0.1,0.8-0.1,1.2s0,0.8,0,1.3
			c0-0.1,0.1-0.1,0.1-0.2c0.1-0.2,0.2-0.4,0.2-0.5c0,0,0-0.2,0.2-0.4c0.1-0.2,0.2-0.4,0.1-0.4c0,0,0-0.1,0-0.2c0-0.1,0-0.2,0-0.3
			c0,0,0-0.8-0.1-2.4c0-0.1,0-0.2-0.1-0.3c0-0.2-0.1-0.3-0.1-0.3C33.9,33.1,33.8,33.1,33.8,33.1 M28.2,37.2
			c-0.3-0.1-0.6-0.3-0.8-0.4c-0.6-0.3-0.9-0.8-1.1-1.5c-0.5,0.6-0.6,1.4-0.6,2.3l-0.1-0.1c-0.5-0.3-0.8-0.6-1.1-1.1
			c0,0.4-0.1,0.8-0.1,1.2c0,0.1,0,0.2,0.1,0.3c0.3,0.6,0.8,1,1.5,1.2l-0.1-1.3c0.6,0.4,1,1,1.2,1.8c0.1,0.5,0.2,1,0.3,1.5
			c0,0.2,0,0.5,0.1,0.7L28.2,37.2 M35.2,23.8c0,0-0.1,0-0.1,0.1c-1,0.8-2,1.2-3.2,1.1l0,0H32c0.6,1,0.8,2.1,0.9,3.3
			c0.3,0.7,0.5,1.3,0.6,1.7c0-0.3,0.1-0.5,0.2-0.8c0.1-0.5,0.3-1.1,0.6-1.8c0.1-0.2,0.2-0.4,0.2-0.6c0-0.1,0.1-0.2,0.1-0.3
			c0.1-0.3,0.2-0.6,0.2-0.7c0.2-0.5,0.2-1,0.2-1.3C35,24.3,35,24.1,35.2,23.8C35.2,23.9,35.2,23.9,35.2,23.8"/>
		<g>
			<g>
				<defs>
					<path id="SVGID_00000070096970365198454260000010464137271400520092_" d="M55,22.6c0,0.1-0.1,0.1-0.2,0.2
						c-0.3,0.5-0.5,0.8-0.5,1c-0.4,0.8-0.9,1.6-1.3,2.5c-0.8,1.7-1.2,2.7-1.2,3c0,0.2,0,0.3-0.1,0.5c0,0.2-0.1,0.4,0,0.6
						c0,0.1,0.1,0.9,0.2,2.3c0,0.2,0,0.3,0,0.5c0.1,1.1,0.2,1.6,0.2,1.7c0.2,1.8,0.4,3.6,0.5,5.4c0,0.4,0,0.9,0,1.3
						c0,0.4,0.1,0.7,0.2,1l0,0c0.1,0,0.1,0,0.2,0c0.4-0.2,0.9-0.4,1.3-0.6c1.4-0.7,2.9-1,4.4-1c0.1-0.1,0.2-0.3,0.3-0.4
						c0-0.1,0.1-0.1,0.1-0.2c-2.1,0.3-4.2,0-6.1-0.9c-0.1-0.1-0.3-0.1-0.4-0.2c1.6,0.4,3.2,0.5,4.8,0.2c0.2,0,0.3-0.1,0.4-0.1
						c0.5-0.1,0.9-0.3,1.3-0.6c0.2-0.1,0.3-0.2,0.4-0.3c0.1-0.6,0.2-1.2,0.4-1.8c0.2-0.7,0.2-1.4,0.2-2.1c0-3.2-0.6-6.4-1.9-9.3V26
						l-0.5,2.3c-0.1-1.4-0.2-2.9-0.2-4.3c0-0.9-0.4-1.4-1.1-1.5c-0.2,0-0.4,0-0.6,0C55.6,22.5,55.3,22.5,55,22.6"/>
				</defs>
				<clipPath id="SVGID_00000170971206904178381150000008594327159487779211_">
					<use xlink:href="#SVGID_00000070096970365198454260000010464137271400520092_"  style="overflow:visible;"/>
				</clipPath>
				
					<linearGradient id="SVGID_00000171696424446370389900000000484743055530564506_" gradientUnits="userSpaceOnUse" x1="-230.5493" y1="588.7443" x2="-230.2013" y2="588.7443" gradientTransform="matrix(7.9253 -55.2018 55.2018 7.9253 -30617.9805 -17350.7012)">
					<stop  offset="0" style="stop-color:#8D3E21"/>
					<stop  offset="0.2745" style="stop-color:#D19964"/>
					<stop  offset="0.8549" style="stop-color:#D19964"/>
					<stop  offset="1" style="stop-color:#FEE4D2"/>
				</linearGradient>
				
					<polygon style="clip-path:url(#SVGID_00000170971206904178381150000008594327159487779211_);fill:url(#SVGID_00000171696424446370389900000000484743055530564506_);" points="
					60,43.8 63,22.9 51.9,21.3 48.9,42.2 				"/>
			</g>
		</g>
		<path class="st0" d="M58.7,58.6L58.7,58.6c0.1,0.2,0.2,0.4,0.2,0.6l0,0c0.2,0.3,0.5,0.7,0.8,0.9c0.2,0.1,0.3,0.2,0.5,0.3l0,0
			c0.2,0.1,0.4,0.2,0.6,0.2v0.2v0.1l0,0c0,0,0,0.1,0.1,0.1l0,0c0.9,0.6,1.9,1,3.1,1c0.6,0,1.2,0.1,1.8,0.3v0.3
			c-0.5,0.3-1.1,0.5-1.7,0.5c-1.7,0.2-3.4,0.2-5.1,0.1c-0.1,0-0.1,0-0.1,0.1c-0.2,0.1-0.3,0.3-0.4,0.5c-0.1,0.2,0,0.4,0.1,0.6l0,0
			c0.2,0.2,0.4,0.4,0.6,0.6c0.5,0.3,0.9,0.5,1.4,0.7c-0.3,0.1-0.5,0.2-0.8,0.4c-0.6,0.3-0.9,0.6-1.1,1c-0.3,0.4-0.1,0.9,0.6,1.5
			c0.5,0.4,1.8,1,3.9,1.5c2.1,0.6,4.2,0.8,6.5,0.8h0.2c0.7,0,1.3-0.4,1.8-0.9c0.3-0.3,0.7-0.6,1.3-0.6c0.7-0.1,1.3-0.7,1.7-1.9
			c0.4-1.1,0.6-2.6,0.7-4.4c0-0.5,0-0.9,0-1.4c0-1.2-0.2-2.1-0.5-2.7c-0.4-0.9-1.3-1.5-2.6-1.7c-1.2-0.2-2.8-0.3-4.7-0.3
			c-2.2,0-4.4,0.1-6.5,0.4l0,0c-0.1,0-0.1,0-0.2,0c-0.3,0.1-0.5,0.1-0.8,0.2l0,0c-0.1,0.1-0.3,0.1-0.4,0.2l0,0
			c-0.3,0.2-0.6,0.4-0.9,0.6l-0.1,0.1C58.7,58.5,58.7,58.6,58.7,58.6 M59.4,58.8c0-0.1-0.1-0.1-0.1-0.2c0.2-0.1,0.3-0.2,0.5-0.2
			c2.1-0.7,4.4-1,6.7-0.9c0.9,0,1.8-0.1,2.6-0.1c1.7-0.1,3.2,0.2,4.6,1c0.5,0.3,0.7,0.7,0.7,1.3c-0.1,1.1-0.1,2.2,0.1,3.4v0.1
			c0,0.4,0,0.8-0.2,1.1l-0.2-1.2h-0.2l-0.1,1.8l0.1,0.1l0.2-0.1c0.1,0.9,0.1,1.7-0.1,2.6c-0.1,0.2-0.2,0.4-0.4,0.6
			c-1.1,0.6-2.2,1.4-3.1,2.3c-0.1,0.1-0.2,0.2-0.4,0.2c-0.1,0-0.1,0-0.2,0c-3.4-0.4-6.8-1.2-10.1-2.3c-0.1-0.1-0.2-0.2-0.3-0.3
			c-0.1-0.1-0.1-0.2-0.1-0.2c0.6-1,1.7-1.6,3.3-1.8c1.5-0.1,2.9-0.5,4.3-1c1.1-0.4,1.6-1.2,1.5-2.3l0.3,0.2l0.2-0.1
			c-0.6-0.6-1.3-1.2-2.3-1.5c-1.7-0.7-3.5-1-5.4-0.9v-0.1l-0.1,0.1c-0.2,0-0.3-0.1-0.5-0.1c-0.3-0.1-0.5-0.3-0.8-0.5
			C59.7,59.3,59.6,59.1,59.4,58.8 M61.8,65.5L61.8,65.5c-1.2-0.2-2-0.8-2.6-1.6c1.1,0,2.1,0,3.2,0.1c1.5,0.2,2.9-0.2,4.1-1.1
			c0,0.1,0,0.1,0,0.2c0.1,0.4,0.3,0.6,0.6,0.6c0,0,0-0.1,0.1-0.2c0-0.4,0-0.9-0.2-1.3c-0.1-0.3-0.3-0.4-0.6-0.3h-0.1
			c-0.4-0.2-0.8-0.3-1.3-0.3c-1.5,0-2.6-0.3-3.5-1.1c2.4-0.1,4.7,0.5,6.7,1.9c0.2,0.8-0.1,1.4-1,1.9C65.5,65.1,63.7,65.5,61.8,65.5
			L61.8,65.5z"/>
		<path class="st10" d="M61.7,65.5L61.7,65.5L61.7,65.5c2,0,3.8-0.5,5.5-1.2c0.9-0.4,1.2-1,1-1.9c-2-1.4-4.3-2-6.7-1.9
			c0.9,0.8,2.1,1.1,3.5,1.1c0.5,0,0.9,0.1,1.3,0.3h0.1c0.3,0,0.5,0.1,0.6,0.3c0.2,0.4,0.3,0.8,0.2,1.3c0,0.1,0,0.1-0.1,0.2
			c-0.3,0-0.5-0.2-0.6-0.6c0-0.1,0-0.1,0-0.2c-1.2,0.9-2.6,1.2-4.1,1.1c-1.1-0.1-2.1-0.1-3.2-0.1C59.8,64.7,60.6,65.3,61.7,65.5"/>
		<path class="st11" d="M59.3,58.7c0,0.1,0.1,0.1,0.1,0.2c0.2,0.3,0.3,0.5,0.5,0.7s0.5,0.4,0.8,0.5c0.2,0.1,0.3,0.1,0.5,0.1l0.1-0.1
			v0.1c1.9-0.1,3.7,0.2,5.4,0.9c1,0.4,1.7,0.9,2.3,1.5l-0.2,0.1l-0.3-0.2c0.1,1.1-0.4,1.8-1.5,2.3c-1.3,0.5-2.8,0.9-4.3,1
			c-1.6,0.2-2.7,0.7-3.3,1.8c0,0,0,0.1,0.1,0.2s0.2,0.2,0.3,0.3c3.3,1.2,6.6,1.9,10.1,2.3c0,0,0.1,0,0.2,0s0.3-0.1,0.4-0.2
			c1-0.9,2-1.6,3.1-2.3c0.2-0.1,0.4-0.3,0.4-0.6c0.2-0.8,0.2-1.7,0.1-2.6l-0.2,0.1l-0.1-0.1l0.1-1.8h0.2l0.1,1.2
			c0.2-0.4,0.3-0.7,0.2-1.1v-0.1c-0.1-1.2-0.1-2.3-0.1-3.4c0.1-0.6-0.2-1-0.7-1.3c-1.4-0.7-2.9-1-4.6-1c-0.9,0.1-1.8,0.1-2.6,0.1
			c-2.3-0.2-4.6,0.1-6.7,0.9C59.6,58.5,59.4,58.6,59.3,58.7 M61.8,58.2c0.6-0.1,1.2-0.2,1.8-0.2c0.9-0.2,1.8-0.2,2.7-0.2
			c1.9,0.1,3.7,0.5,5.5,1.1c0.5,0.2,0.9,0.5,1.1,0.9c0.3,0.4,0.3,0.9,0,1.3c-0.8,1.5-0.9,3-0.2,4.5c0,0,0,0.1,0.1,0.1
			c0.6,1.6,0.1,2.6-1.5,3.2c-0.1,0-0.2,0.1-0.4,0.1c-1.1,0.3-2.3,0.4-3.4,0.3s-2.1-0.3-3.1-0.6c-0.3-0.1-0.6-0.2-1-0.3
			c-0.8-0.3-1.6-0.6-2.4-1c0,0-0.1,0-0.1-0.1c0.2-0.1,0.4-0.3,0.6-0.4c1.2-0.7,2.6-1,4-0.9s2.8,0,4.1-0.4c1.6-0.4,1.8-1.2,0.6-2.3
			c-0.5-0.5-0.7-1.1-0.4-1.7c-1.2-0.8-2.5-1.5-3.9-2c-0.4-0.1-0.9-0.2-1.3-0.3c-0.3,0-0.6-0.1-0.9-0.2c-1.1-0.2-2.1-0.5-3-0.9
			c0.1,0,0.1,0,0.2-0.1c0.3-0.1,0.5-0.1,0.8-0.2C61.7,58.2,61.8,58.2,61.8,58.2"/>
		<path class="st3" d="M63.6,58c-0.6,0-1.2,0.1-1.8,0.2c-0.1,0-0.1,0-0.2,0c-0.3,0-0.5,0.1-0.8,0.2c-0.1,0-0.1,0-0.2,0.1
			c1,0.4,2,0.7,3,0.9c0.3,0.1,0.6,0.1,0.9,0.2c0.5,0.1,0.9,0.2,1.3,0.3c1.4,0.5,2.7,1.1,3.9,2c-0.2,0.6-0.1,1.2,0.4,1.7
			c1.1,1.1,0.9,1.9-0.6,2.3c-1.3,0.4-2.7,0.5-4.1,0.4c-1.5-0.1-2.8,0.2-4,0.9c-0.2,0.1-0.4,0.3-0.6,0.4c0,0,0.1,0,0.1,0.1
			c0.8,0.4,1.6,0.7,2.4,1c0.3,0.1,0.6,0.2,1,0.3c1,0.3,2,0.5,3.1,0.6s2.3,0,3.4-0.3c0.1,0,0.2-0.1,0.4-0.1c1.7-0.5,2.2-1.6,1.5-3.2
			c0,0,0-0.1-0.1-0.1c-0.5-1.7-0.4-3.3,0.4-4.7c0.3-0.5,0.2-0.9,0-1.3c-0.3-0.4-0.6-0.7-1.1-0.9c-1.8-0.7-3.6-1-5.5-1.1
			C65.5,57.8,64.5,57.8,63.6,58"/>
		<path class="st0" d="M6.2,62.6C3.8,64.8,3.4,67,5,69.2l0,0c0.7,1,1.6,1.5,2.9,1.7c1,0.2,1.6,0.5,1.9,1c0.3,0.6,0.3,1.3,0,2.3l0,0
			c-0.4,1.3-0.2,2.4,0.7,3.3c0.9,1,2.1,1.5,3.4,1.5l0,0c0.5,0,0.9,0.1,1.3,0.2c0.6,0.9,1.5,1.6,2.5,2c0.2,0.1,0.7,0.2,1.3,0.2l0,0
			l0,0c0.9,0,2.1-0.6,3.7-1.8c1.5-1.1,3.3-2.8,5.2-5c1.9-2.2,3.4-4.5,4.5-6.8c1.2-2.4,1.4-4.1,0.7-5.2c0-0.1-0.1-0.1-0.2-0.1
			c-0.1,0-0.1,0-0.2,0l-5.4,3.1c0.7-1.5,1.1-3,1.3-4.5l0,0c0-0.2,0-0.4-0.1-0.5c0.9-1.2,1.4-2,1.6-2.6c0.1-0.4,0.2-0.7,0.1-0.9
			c-0.1-0.3-0.3-0.4-0.7-0.3c-1,0.1-2.3,0.6-4.1,1.4c-1.3,0.6-3,1.4-5.1,2.3c1.2-1,2.4-1.8,3.5-2.4c1.7-0.9,2.4-1.8,2.1-2.7
			s-2.1-0.9-5.5-0.1c-3.2,0.8-5.9,1.6-8,2.6C10.7,58.9,8.5,60.4,6.2,62.6 M6.3,63.5c0.6-0.6,1.2-1.1,1.6-1.6c1.5-1.6,4.2-3,7.9-4.3
			s6.4-2,8-2s2.1,0.3,1.3,0.9l-0.3,0.3c-2.2,1.4-4.3,2.9-6.2,4.4c-0.2,0.1-0.4,0.3-0.6,0.5c-0.8,0.1-1.5,0-2.4-0.3
			c-0.6-0.2-1.1-0.5-1.7-0.9l-0.3-0.2l-0.2,0.2c2.3,2.5,5.2,2.6,8.7,0.3c2.3-1.4,4.6-2.5,7.1-3.2c-0.5,1.6-1.2,2.8-2,3.8
			s-1.7,2.1-2.6,3.3c-0.9,1.3-1,2.8-0.4,4.7c0.5,1.7,0.4,3.4-0.4,5.2c0.6-0.5,1-1.2,1.1-1.9c0.2-0.2,0.2-0.5,0.2-0.7
			c-0.1-1.4-0.3-2.7-0.6-4.1c0-0.1,0-0.2,0-0.3c2-0.2,3.9-1,5.7-2.6c0.4-0.3,0.8-0.6,1.2-0.8l1.4-0.9c-0.4,2.8-1.5,5.4-3.4,7.8
			c-0.6,0.7-1.1,1.4-1.6,2.1c-1.9,2.6-4.2,4.8-6.9,6.6c-1.4,0.7-2.5,0.8-3.4,0.2c-0.9-0.5-1.4-0.9-1.7-1.2l-0.1-0.1l-0.1-0.1
			c-0.3-0.2-0.6-0.3-1.1-0.3c-3.4-0.1-4.6-1.8-3.6-5.2c0.3-1.7-0.3-2.6-1.9-2.9c-0.1,0-0.2,0-0.4-0.1c-2.8-0.5-4-1.6-3.8-3.3
			C5.2,65.3,5.7,64.1,6.3,63.5 M27.6,61.5c0.1-0.2,0.2-0.3,0.3-0.5l0.2-0.1c0,1-0.3,2-0.9,3c-0.4,0.8-0.7,1.5-0.8,2.4l-1.9,0.6
			C25.3,65.1,26.3,63.3,27.6,61.5 M10.2,67.6c0,0.2,0.1,0.4,0.4,0.6c0.1,0.1,0.3,0.2,0.4,0.3c0.3,0.2,0.5,0.5,0.7,0.9l-0.1,0.2
			c1.3,1.8,2.3,3.4,3.1,4.7c0.1,0.1,0.1,0.3,0.1,0.7l0.2-0.2c0.8-0.8,0.8-1.7-0.2-2.6c-0.5-0.5-1-1-1.5-1.6s-1-1.1-1.5-1.6l1.8,0.6
			c1.1,0.7,1.1,0.6,0.1-0.3C12.6,68.5,11.5,68,10.2,67.6C10.2,67.5,10.2,67.5,10.2,67.6"/>
		<path class="st12" d="M28,61.1c-0.1,0.2-0.2,0.3-0.3,0.5c-1.3,1.7-2.3,3.6-3,5.6l1.9-0.6c0.1-0.8,0.3-1.6,0.8-2.4
			c0.6-1,0.9-2,0.9-3L28,61.1z"/>
		<path class="st10" d="M26.5,70.1c0.6-0.8,1.2-1.5,1.8-2.2c0.6-0.7,1.1-1.3,1.7-2c0.2-0.2,0.4-0.4,0.6-0.6c0.2-0.2,0.4-0.4,0.6-0.7
			c0.1-0.1,0.2-0.2,0.3-0.4c-0.4,0.2-0.8,0.5-1.2,0.8c-1.8,1.6-3.7,2.4-5.7,2.6c0,0.1,0,0.2,0,0.3c0.3,1.3,0.5,2.7,0.6,4.1
			C25.6,71.4,26,70.7,26.5,70.1 M24.8,56.8c-0.4,0.2-0.9,0.4-1.3,0.5c-0.2,0-0.3,0.1-0.5,0.1c-1.1,0.1-2.2,0.3-3.2,0.6
			c-2,0.6-4,1.4-5.8,2.6c0.5,0.3,1.1,0.6,1.7,0.9c0.8,0.3,1.6,0.4,2.4,0.3c0.2-0.2,0.4-0.4,0.6-0.5C20.6,59.6,22.7,58.2,24.8,56.8
			 M11.1,67.3c-0.7-0.3-1.5-0.4-2.3-0.2c1.8,3,3.8,5.8,6.1,8.4c0.2,0.3,0.3,0.6,0.2,1l1.2,1.3c-0.7-1.3-0.4-2.8,0.9-4.4
			c0.1-0.2,0.1-0.3,0.1-0.5c-0.9-1.8-2.2-3.3-3.9-4.4c-0.4-0.2-0.8-0.5-1.2-0.7C11.7,67.6,11.4,67.5,11.1,67.3 M10.5,68.2
			c-0.2-0.2-0.4-0.4-0.4-0.6h0.1c1.2,0.4,2.4,1,3.5,1.6c1.1,0.9,1,1-0.1,0.3l-1.8-0.6c0.5,0.5,1,1.1,1.5,1.6c0.5,0.6,1,1.1,1.5,1.6
			c1,0.9,1,1.8,0.2,2.6l-0.2,0.2c0-0.3,0-0.6-0.1-0.7c-0.8-1.3-1.8-2.9-3.1-4.7l0.1-0.2c-0.1-0.3-0.4-0.6-0.7-0.9
			C10.8,68.4,10.7,68.3,10.5,68.2"/>
		<path class="st11" d="M25.2,56.5c0.8-0.6,0.3-0.9-1.3-0.9c-1.6,0-4.3,0.7-8,2S9.5,60.3,8,61.9c0.3-0.1,0.6-0.2,1-0.1h0.1
			c-0.5,1.6-0.2,2.6,1.1,3c3.3,1.1,6.6,0.4,10-2c2.3-1.7,4.8-2.9,7.4-3.8c-1.5,3.3-3.2,6.6-5.2,9.8c-1.7,2.7-2.1,5.2-1.3,7.7
			c0.2,0.4,0.2,0.9,0.2,1.3c0,0.7-0.1,1.4-0.3,2.1c2.7-1.8,5-4,6.9-6.6c0.5-0.7,1.1-1.4,1.6-2.1c1.9-2.4,3.1-5,3.4-7.8l-1.5,0.8
			c-0.1,0.1-0.2,0.3-0.3,0.4c-0.2,0.2-0.4,0.4-0.6,0.7c-0.2,0.2-0.4,0.4-0.6,0.6c-0.6,0.7-1.1,1.3-1.7,2c-0.6,0.7-1.2,1.5-1.8,2.2
			c-0.5,0.6-0.9,1.3-1.4,1.9c0,0.2,0,0.5-0.1,0.7c-0.1,0.7-0.5,1.3-1.1,1.9c0.8-1.8,0.9-3.5,0.4-5.2c-0.6-1.9-0.5-3.4,0.4-4.7
			c0.9-1.3,1.7-2.4,2.6-3.3c0.8-1,1.5-2.2,2-3.8c-2.5,0.7-4.8,1.8-7.1,3.2c-3.6,2.3-6.5,2.2-8.7-0.3l0.2-0.2l0.3,0.2
			c1.9-1.2,3.8-2,5.8-2.6c1-0.3,2.1-0.5,3.2-0.6c0.2,0,0.3-0.1,0.5-0.1c0.5-0.1,0.9-0.2,1.3-0.5L25.2,56.5 M7.2,67.2
			c0.1,0.3,0.2,0.7,0.3,1c0.3,0.8,0.7,1.5,1.2,2.2c0.1,0,0.2,0,0.4,0.1c1.5,0.3,2.1,1.3,1.9,2.9c1.5,2.2,3.5,3.8,5.9,5
			c0.2,0.1,0.4,0.2,0.6,0.3c0.4-1.8,0.5-3.5,0.1-5.2c-0.3-1.4-0.9-2.7-1.8-3.8c-0.8-1-1.8-1.7-2.9-2.2c-0.2-0.1-0.4-0.2-0.7-0.2
			c-0.2-0.1-0.5-0.1-0.7-0.2C10.1,66.9,8.7,66.9,7.2,67.2 M8.7,67.1c0.8-0.2,1.6-0.1,2.3,0.2c0.4,0.2,0.7,0.3,1,0.5
			c0.4,0.2,0.8,0.5,1.2,0.7c1.7,1.1,3,2.6,3.9,4.4c0.1,0.2,0.1,0.4-0.1,0.5c-1.3,1.6-1.5,3-0.9,4.4l-1.2-1.3c0.1-0.4,0-0.7-0.2-1
			C12.5,72.9,10.5,70.1,8.7,67.1"/>
		<path class="st3" d="M7.6,68.2c-0.1-0.3-0.2-0.7-0.3-1c1.5-0.3,2.8-0.3,4.2-0.1c0.3,0,0.5,0.1,0.7,0.2s0.5,0.1,0.7,0.2
			c1.2,0.4,2.1,1.1,2.9,2.2c0.9,1.1,1.5,2.4,1.8,3.8c0.3,1.6,0.3,3.4-0.1,5.2c-0.2-0.1-0.4-0.2-0.6-0.3c-2.4-1.1-4.4-2.8-5.9-5
			c-1,3.3,0.2,5.1,3.6,5.2c0.4,0,0.8,0.1,1.1,0.3l0.1,0.1l0.1,0.1c0.2,0.3,0.8,0.7,1.7,1.2c0.9,0.5,2,0.4,3.4-0.2
			c0.2-0.7,0.3-1.4,0.3-2.1c0-0.5-0.1-0.9-0.2-1.3c-0.8-2.5-0.4-5,1.3-7.7c2-3.2,3.7-6.5,5.2-9.8C25,60,22.5,61.3,20.2,63
			c-3.4,2.4-6.7,3.1-10,2c-1.2-0.4-1.6-1.4-1.1-3H9c-0.3,0-0.7,0-1,0.1c-0.5,0.5-1,1-1.6,1.6c-0.6,0.6-1.1,1.7-1.3,3.5
			c-0.3,1.7,1,2.8,3.8,3.3C8.2,69.7,7.8,69,7.6,68.2"/>
	</g>
</g>
<g id="Layer_2_00000050647624448852186250000003046813982658875561_" class="st13">
	<rect x="-225.8" y="-91.6" class="st14" width="699.3" height="289.3"/>
</g>
</svg>
