<?xml version="1.0" encoding="utf-8"?>
<!-- Generator: Adobe Illustrator 25.4.1, SVG Export Plug-In . SVG Version: 6.00 Build 0)  -->
<svg version="1.1" id="Layer_1" xmlns="http://www.w3.org/2000/svg" xmlns:xlink="http://www.w3.org/1999/xlink" x="0px" y="0px"
	 viewBox="0 0 501.4 247" style="enable-background:new 0 0 501.4 247;" xml:space="preserve">
<style type="text/css">
	.st0{fill:#FF0000;}
</style>
<g>
	<path class="st0" d="M500,199.8c-2.4,0.7-4.5,2.2-7,0c-0.5-0.4-2.1,0.6-3.6,1c1.7,1.5,3.2,2.8,5.5,4.8c-6.5,3.1-12.5,6-18.8,9.1
		c-0.1,0.7-0.2,1.9-0.3,3.3c-0.7-0.7-1.3-1.1-2-1.7c0,0.6-0.1,1,0,1.4c0.6,3,1.1,6,1.9,8.9c0.4,1.7,1.3,4.7,1.8,4.6
		c2.5-0.3,5.2-0.7,7.2-2.2c2.8-2.1,7.6-2.4,9.8,0.1 M344.9,191c-0.8,1.1-1.5,2.2-1.6,2.4c1,2.6,2.1,4.4,2.3,6.4
		c0.6,5.9,2.3,7.4,8,6.3c0.4-0.1,0.8-0.3,1.1-0.2c4.8,2.2,6.6-0.9,8.3-4.4c-5.1-4.3-7.8-11.1-15.4-11.8c0,0.5,0,1.5,0,3.6
		C346.3,192.2,345.7,191.6,344.9,191z M385.2,190.4c1.2,1.3,2.3,2.7,3.7,3.6c1,0.7,2.6,1.2,3.8,1.1c2.5-0.2,4.9-1.2,7.4-1.3
		c1.6-0.1,3.2,0.9,4.9,1.5c0.6-0.4,1.6-1.3,2.7-2.1c1.1-1,2.1-2,3.1-3c-1.8-1.6-3-2.8-4.4-4.1c-0.2,2.4-1.4,3.5-4.1,1.8
		c-0.7-0.4-1.9-0.1-2.8-0.3c-1.7-0.4-3.6-0.5-5-1.4c-0.5-0.3,0.3-2.5,0.4-3.7c-3-0.3-6.3-0.7-9.3-1.1
		C389,186.4,389,186.4,385.2,190.4z M415.2,214.8c0.2-0.1,0.4-0.3,0.7-0.4c-2-3.1-3.9-6.2-6-9.4c1.6-1.7-0.2-7.2-4-10.6
		c-1.7,4.3-1.4,5.3,2.4,8c-1,0.5-2,1-3.1,1.6c-0.8-1-1.7-2.1-2.5-3.1c-0.4,0.2-0.7,0.3-1.1,0.5c0.5,1.2,0.9,2.5,1.5,3.7
		c1.4,2.5,2.9,5,4.4,7.5c0.5,0.8,1.1,1.5,1.7,2.3c0.5-0.8,1.1-1.6,2.1-3.2C412.6,212.6,413.9,213.7,415.2,214.8z M460.6,219.9
		c-0.3-0.3-1.6-0.3-1.7-0.2c-0.3,0.9-0.9,2.4-0.5,2.8c2.4,2.1,5,4,7.5,6c0.2-0.3,0.4-0.5,0.6-0.8
		C464.6,225.1,462.7,222.5,460.6,219.9z M452.5,230.2c4-4.4,4.1-5.9,0.6-8.5C452.9,224.5,452.7,226.9,452.5,230.2z"/>
	<path class="st0" d="M102.7,58.3c5.7,0,11.1,0,17,0c0.1-0.2,0.4-1.1,0.9-2.3c0.9,1,1.7,1.8,2.5,2.7c-0.6,0.7-1.2,1.5-1.8,2.2
		c3.9,0,7.7,0,11.4,0c0.2-0.6,0.5-1.3,0.7-1.9c-6.5,0.8-9.7-2.8-12.1-7.7c1.1-1.3,2.3-2.6,3.7-4.2c0.4,2.2,0.8,4.1,1.1,5.6
		c2.5-0.8,5.1-1.6,8.1-2.6c-1.1-1.9-2.1-3.4-2.9-5c-0.5-0.9-1-1.9-1-2.8c0.2-3-2.2-4.9-5-3.9c-1.6,0.6-3.2,1.1-5,1.7
		c0.3,0.6,0.7,1.3,1.3,2.3c-0.7,0.1-1.2,0.2-1.7,0.2c-3.6,0-6.6,1-7.9,4.8c-0.2,0.6-0.9,1.5-1.2,1.4c-6.5-1.4-7.4,7.6-13.4,7.2
		c-0.4,0-0.9,1.6-1.3,2.4c-0.1,0.2,0.7,0.8,0.6,0.9c-3.5,5.8,3.7,4.8,4.9,7.6c1.4-0.6,2.8-1.2,4.3-1.9c-0.2-0.3-0.3-0.7-0.5-1
		c-1-0.3-2.1-0.6-3.1-0.9c0.8-0.8,1.6-1.6,2.6-2.6C104.2,59.9,103.5,59.2,102.7,58.3z M106.9,79.3c-3.2-0.5-6.2-0.3-8.1-1.5
		c-3.6-2.2-6.8-1.7-10.4-0.1c0.2-2.2,0.3-4.1,0.4-6.4c-1.3-0.2-2.5-0.3-3.6-0.5c0.1-0.8,0.2-1.7,0.3-2.7c-2.1,0.7-4,1.3-6.1,1.9
		c0.3,3-1.4,5.3-4.8,6c-0.3,0.1-0.7,1.5-0.5,2.2c0.4,1.2,1.2,2.4,2.1,4.1c5.2,1.1,5.8-5.6,10.2-7.1c-1,1.4-2,2.8-3.1,4.3
		c3.8,2.1,7.5,3.5,11.1,1.3c2.7,1.1,5.1,2.1,7.7,3.1c2.3-4.1,5.8,0.3,8.8-0.8c3-1.1,5.3,1.4,8.7,2.7
		C117.2,78.4,109.5,82.5,106.9,79.3z M387.3,71.6c1,0,2.4-0.4,3,0.1c4.3,3.5,6.9,0.4,9.8-1.9c-0.1-0.4-0.1-0.8-0.2-1.1 M86.3,89.6
		c-0.6-1.3-1-2.4-1.4-3.1c-3.7,0-7.1,0-10.5,0c-0.2,0.5-0.4,1.1-0.6,1.6c5.4-0.7,6.6,3.1,8.5,6.2c0.7,1.1,2.2,1.7,3.4,2.6
		c2.1-4.6-2.9-5.1-4.7-7.7c5.1,1.6,9.6,3,14.2,4.4c0.1-0.3,0.1-0.6,0.2-0.9c1.2,1.4,2.4,2.7,3.7,4.1c2.1-2.5,4-4.8,6-7.2
		C98.2,89.6,92.3,89.6,86.3,89.6z M215.1,48.4c3.2,1.4,5.1,4.1,3.8,8.4c0.5,0.1,1,0.2,1.5,0.3c0.7-1.2,1.5-2.4,2.7-4.4
		c0.7,1.8,1.4,3.6,2.4,5.9c1.3,0.1,1.3,0.1,2-4.3c-6.8-2.9-9.5-8-7.7-15.5c0.2-0.9-1.4-2.3-2.6-4.1
		C216.4,39.8,215.8,43.9,215.1,48.4z M461.5,72.8c-0.9-3.6-3.7-3.2-6.3-3.2c-5.2,0-10.4,0-16.1,0c1.9,1.4,3.9,2.8,5.9,4.3
		C450.3,70,456,72.8,461.5,72.8z M151.1,54.4c1.4,2.6,5.6-2.6,6.3,3.2c1.2-2.3,2-3.8,2.7-5C155.7,48.1,152.9,49.5,151.1,54.4z
		 M138.5,67.8c-1.7,2-3.1,3.7-4.5,5.3c1.7,2.4,1.7,2.4,9.8-2.5C141.7,69.5,140,68.6,138.5,67.8z M141.8,59.7
		c-2.4,0.4-4.6,0.8-7.7,1.4c5,0.9,9.2,1.7,13.5,2.5c0.3-0.3,0.6-0.6,0.9-0.9c-1.1-1.2-2.1-2.4-3.3-3.4c-0.2-0.2-1.4,1-2.6,1.7
		C142.3,60.6,141.8,59.8,141.8,59.7z M160.1,36.8c3,1.8,5.2,3.2,8,4.9c-0.5-2.5-0.2-5.3-1.3-6c-1.6-1-4.1-0.5-6.8-0.7
		C160.1,35.9,160.2,36.9,160.1,36.8z M389.1,81.6c3.6,0.3,6.9,0.6,10.3,0.9c0.1-0.2,0.2-0.4,0.2-0.6c-2.8-1.5-5.6-3-9.2-4.9
		C389.8,78.9,389.4,80.4,389.1,81.6z M147,54.2c0.2-1.3,0.3-2.7,0.5-4.1c-1.1-0.4-2.4-0.9-3.6-1.4C142.4,53.6,142.8,54.2,147,54.2z
		 M437.9,71.2c0-0.4-0.1-0.8-0.1-1.3c-1.8,0-3.6,0-5.9,0c0.1,0.2-0.3-0.4-0.8-1c-0.6,1.2-1.2,2.3-2.2,4.1
		C432.2,72.4,435.1,71.8,437.9,71.2z M73.1,79.1c-1.6,0.8-2.8,1.5-4.2,2.3c0.3,0.8,0.6,1.7,0.7,2c1.5,0,2.8,0,4.3,0
		C73.6,82.2,73.4,80.8,73.1,79.1z M136.2,43.5c1.2,2.1,1.8,3.2,2.5,4.5c1.3-0.3,2.4-0.6,3.6-0.9c0.1-0.5,0.2-1,0.3-1.5
		C140.8,44.9,139,44.4,136.2,43.5z"/>
	<path class="st0" d="M493.8,179c-2.9-0.2-5.2-0.7-3.6-5.1c-6.3,1.7-9.4,10.1-17,6.4c0.6-1.3,1.2-2.5,1.9-3.9
		c-2.9-1.2-6.6-1.7-5.2-6.5c-1.3,0.4-2.4,0.7-3,0.9c0.3,2.2,0.6,3.9,0.8,5.7c-0.5,0.2-1,0.4-1.4,0.5c-1-1.8-1.9-3.6-2.9-5.4
		c-0.3,0.7-0.6,1.5-0.9,2.2c-1.7,1.1-3.4,2.3-5.3,3.2c-0.3,0.1-1.4-1.4-1.7-1.7c-2.7,0.2-5.3,0.7-7.9,0.5c-3.9-0.3-7.7-1.4-11.5-1.7
		c-5.2-0.4-10.4-0.3-15.5-0.7c-2-0.2-4.2,0.4-6.2-1.3c-1.3-1.1-4.2-1.4-4.6,2c-1.3-0.6-2.5-1-3.7-1.5c-1.8,4.3-4.2,3.9-8.4-0.2
		c-10.3,0.4-19.7,0.1-28.8,1.2c-9.3,1.1-18-0.1-26.4-4c0.5-0.5,1-0.9,1.5-1.4c-3.8,0.4-7.1,2.1-10.5,2.3c-9.7,0.6-19.5,0.6-29.2,0.7
		c-1.8,0-3.6-0.7-5.4-1c-1.5-0.3-3-0.9-4.4-0.8c-5.8,0.4-11.4,1.8-17.5,1.4c-8.5-0.6-17.3,1.4-25.9,2.2c-1.5,0.1-3.2,0-4.7-0.6
		c-5.4-2-10.9-3-16.7-2.7c-3.4,0.2-7.3,1-9.2-3.8c-0.4,0.2-0.7,0.3-1.1,0.5c-0.4,2.4-0.9,4.7-1.4,7.8c-1.4-1.6-2.2-2.4-3.4-3.8
		c-0.7,1.8-1.3,3.3-1.9,4.7c4-2.6,5.8,1.2,7.6,1.4c-1.4,1.1-3.8,2-4.1,3.4c-0.8,2.9-1.3,6.3-0.4,9.1c2.6,7.9,0.8,15.8,0.7,23.7
		c0,2.6-1.1,5.2-1.7,7.9c0.6,0.3,1.4,0.8,2.4,1.3c-1.8,1.5-3.4,2.9-5,4.2c0.3,0.1,0.6,0.3,0.9,0.4c-0.7,2-2.2,4-2.1,5.9
		c0.1,2.3,1.6,4.5,2.5,6.8c0,0.1-0.1,0.2-0.1,0.4c-1.1,2.3-2.3,4.5-3.8,7.4c-0.4-4.9-0.8-9.3-1.3-14.7c-2.7,2.1-4.4,3.5-6,4.7
		c-4.5-3.4-8.8-6.5-12.9-9.9c-2-1.7-3.5-3.9-5.4-6.2c-1.3-0.8-3.4-1.4-4.6-2.9c-2.6-3.1-4.7-6.7-7.1-10c-1.1-1.5-2.5-2.7-4.1-4.5
		c-0.3,1.5-0.9,2.7-0.6,3.4c0.4,0.8,1.7,1.1,2.9,1.9c-4.5,0.4-7.4-1.4-10.8-6.3c0.4-0.9,0.8-1.7,1.2-2.4c-1.8-0.1-3.6-0.2-5.8-0.3
		c0.6-0.9,1.1-1.7,1.5-2.4c-6.8-0.4-12.9-1.7-17.3-7.3c-0.6-0.8-1.7-1.2-2.6-1.7c-4.8-3.1-11.5-2.9-14.8-8.5
		c-0.5-0.8-1.7-1.3-2.7-1.5c-6.9-1.7-11.5-7-17.2-10.6c-3-1.9-4.2-2.2-5.6,1.6c-0.4-1.8-0.7-3.1-1.1-4.6c-1.9,1-2.9,5.6-5.8,1.7
		c1.8-1.7,3.5-3.3,5.2-4.9c-0.4-1.6-0.8-3.1-1.4-5.2c-0.8,1-1.2,1.5-1.9,2.3c-0.7-2.7-2.1-3.8-4.7-1.3c0.9,1.2,1.9,2.5,3.4,4.6
		c-1.4-0.2-2.3-0.1-3-0.4c-0.8-0.4-1.5-1.8-2-1.7c-2.7,0.6-3.2-0.9-3.7-2.9c-0.1-0.6-0.9-1.3-1.5-1.6c-7-3.1-14-6.1-21-9
		c-4.6-1.9-9.3-4.5-14-4.7c-4.6-0.2-7.3-1.6-8.6-4.4c-2.5-0.1-4.4,0.1-6-0.4c-3.8-1.1-7.8-1-10.8-4.8c-1.6-2.1-5.7-2.2-8.6-3.4
		c-3.6-1.5-7.1-3.2-10.7-4.7c0-1.1,0-2.1,0-3.2c4.6-4.7,11-3,16.6-4.2c-0.9,0.6-1.8,1.2-2.8,1.8c0.9,1.5,1.7,2.8,2,3.3
		c1.9,0,3-0.2,4.1,0c2.8,0.5,5.6,1.1,8.4,1.7c0.4-0.4,0.7-0.8,1.1-1.2c-1.7-2.9-3.4-5.8-5.3-9c2.2-1.1,4.5-2.3,6.9-3.5
		c-1.2-1.7-2.3-3.3-3.4-4.9c-0.6,1.2-1.2,2.5-1.9,3.9c-0.5-0.2-1.2-0.5-1.2-0.6c0.5-1.8,0.6-4.3,1.9-5.1c1.8-1.2,4.5-2.1,6.6-1.7
		c3,0.6,5.3,3.7,9,2.8c2.7-0.6,4.1,1,5.4,3.1c0.9,1.4,2.4,2.3,3.7,3.4c0.2-0.2,0.3-0.4,0.5-0.7c-0.9-2.4-1.8-4.7-2.7-7.1
		c0.3-0.1,0.5-0.2,0.8-0.3c0.6,0.7,1.2,1.5,1.8,2.2c0.4-0.4,1.3-0.9,1.2-1.2c-0.2-1.2-0.4-2.9-1.3-3.3c-1.4-0.8-3.3-0.8-5-1.2
		c-1.5-0.4-2.9-1-4.2-1.5c1.8-0.6,3.1-1.2,4.5-1.5c3.4-1,4.7-6.7,9.5-3.9c2.6-4.5,3.3-4.5,6.8-0.9c-2.5,1.1-5.2,2.4-8.5,3.9
		c4.3,2.2,7.4,3.8,10.3,5.2c-0.5,1-1,1.9-1,1.8c-2.9-0.6-5.4-1.1-8.1-1.7c0.3,7.5,4.3,10.6,10.1,8c3-1.3,4.6-0.9,6.1,2.1
		c1.7-1.8,3-3.3,4.8-5.3c1.3-1.1,3.2-3.8,5.3-4c3.5-0.3,4.8-2.3,5.4-3.9c1.7,0.8,3,1.7,4.3,1.9c3.2,0.3,6.5,0.1,9.7,0.3
		c2.6,0.2,5.2,1,7.8,1.4c1.3,0.2,2.7,0.5,4.1,0.4c3.1-0.2,6.2-0.8,9.3-1c0.9,0,1.8,0.9,2.6,1.4c1.1,0.7,2.2,1.5,3.7,2.6
		c-0.2-2.5-0.3-4.1-0.4-5.3c1.5,0.3,2.5,0.6,3.6,0.7c1,0.1,2.4-0.4,3,0.1c2.9,2.6,2.4-0.3,3.2-2.6c1.2,1.3,2.1,2.3,3.2,3.4
		c0.8-0.1,1.9-0.3,2.9-0.5c0.3,1.1,0.6,2.1,1.2,4c1.4-2.4,2.2-3.8,2.9-5.2c4,0.6,7.8,1.2,12.5,2c-1.9-1.3-3-2.5-4.2-2.8
		c-3.1-0.6-5.9-1.3-6.1-5.2c0,0-0.5-0.1-0.7-0.1c-1.3,4.3-1.3,4.3-4.4,2.8c0.6-0.5,1.2-1.1,2.7-2.4c-4.7,0.8-8.2,1.5-12.4,2.2
		c-0.4-1.1-0.9-2.7-1.5-4.4c-1.2-0.3-2.8-0.9-4.5-1.1c-1.2-0.2-2.8-0.2-3.5,0.4c-0.6,0.5-0.1,2.2-0.1,2.8c-1.7,1.4-3.2,2.6-4.9,4
		c-1.2-1.2-1.9-4.9-4.8-1.9c-2.1-0.5-4.5-1.1-6.8-1.7c-0.4-1.3-0.9-2.7-1.7-5.1c3.9,1.4,6.9,2.5,10.8,3.9c-0.5-1.9-0.8-3-1-3.9
		c3.2-0.9,6.3-1.9,9.3-2.7c-0.6-2-0.9-3.1-1.2-4.2c0.5-0.1,1-0.3,1.4-0.4c0.5,1.8,0.7,3.8,1.6,5.5c0.6,1,2.1,1.5,3.2,2.2
		c0.2-1.1,0.5-2.3,0.5-3.4c0.1-0.7-0.2-1.5-0.3-2.2l-0.1,0.1c1.8,3.9,4.6,3.2,7.6,1.5c0.4-5.3,0.4-5.3-7.5-5.7
		c0.8-1.1,1.8-2.6,2.9-2.7c2.7,0,5.7-0.1,8,1.1c2.1,1.1,5.3,4.8,4.9,5.4c-2.5,3.9,1.3,4.3,3.5,6.1c0-3.4,0-6.9,0-10.3
		c0.6-0.1,1.3-0.2,1.9-0.2c0.7,3.4,1.5,6.9,2.2,10.3c0.2-0.1,0.4-0.1,0.7-0.2c-0.1-1.1-0.1-2.2-0.2-3c1.7-0.5,3.1-0.8,4.6-1.2
		c0.1-0.4,0.2-0.8,0.3-1.2c-1.1-0.7-2.3-1.3-3.4-2.1c-0.7-0.5-1.7-1.4-1.5-1.8c0.2-0.8,1.1-1.9,1.9-2c1.4-0.2,2.9,0.2,4.3,0.2
		c4,0,8,0.1,11.9-0.1c2.5-0.1,4.3-0.9,2.5-4c2-0.2,3.7-0.3,5.2-0.5c0.5-1.8,0.8-3.4,1.2-4.9c0.2,0,0.4,0.1,0.6,0.1
		c0.2,1.4,0.4,2.8,0.6,4.2c0.4,0.1,0.9,0.2,1.3,0.2c0.6-2.1,2.2-4.7,1.5-6.3c-1.6-3.8-2.4-8.5-6.9-10.6c-1.3-0.6-2.9-1.6-3.3-2.8
		c-1.1-3.4-3-1.8-4.7-1c-1.1,0.5-1.9,1.6-2.9,2.6c1.9,0.3,3.3,0.5,5.3,0.8c-2.9,3.8-9.1-1.4-9.5,5.3c4.3,1.4,5.7,4.8,3.7,8.1
		c-1.6-1.9-0.9-6-5.1-5.6c-0.8,0.1-1.5,1.4-2.3,2.1c-1.6,0-3.5,0-5.6,0c0-0.7,0.1-1.8,0.2-3.3c5.1,1.8,7.6-0.8,8.3-3.1
		c-1.3-1.9-2.3-3.3-3.7-5.3c3.8-0.6,6.6-1,9.3-1.4c0-0.4,0-0.9,0.1-1.3c-5.5,1.6-8.1-7.2-14.2-3.3c-0.1,0.1-0.4,0-0.4,0
		c-1.8-4-5.3-0.9-7.8-2c-4.7-2-9.3-4-14-6c-3.9-1.7-3.9-1.7-0.9-5.3l-0.1-0.1c1.6,1.6,3.2,3.2,4.3,4.3c3.8-1.2,7.1-2.3,10.5-3.5
		c0.5-0.2,0.8-1,1.2-1.5c0,0-0.1,0.1-0.1,0.1c2.1,0,4.1,0,6.8,0c-2.5,3.9,0,4.6,2.6,5.5c1.4,0.5,2.6,1.5,3.8,2.5
		c0.6,0.5,0.8,1.8,1.3,1.9c4.6,1.1,5.7,0,6.8-7.5c5.4,0.8,10.9,1.7,16.3,2.5c0-0.2,0-0.4,0.1-0.6c-1.4-0.5-2.7-1.1-4-1.5
		c2.6-5.9-3.3-3.3-4.6-5.2c3.8-1.2,0.9-3.6,0.2-4.3c-1-1-3.1-0.8-4.7-1.1c-1.9-0.4-4.1-2.1-5.5-1.6c-3.4,1.2-5.4-0.7-7.9-2.1
		c-0.9-0.5-2.6,0.2-3.9,0.4c-1.2,0.2-2.4,0.4-3.6,0.7c-0.2-0.7-0.3-1.5-0.5-2.2c4-1.3,8-2.6,12.1-3.9c-0.8-0.3-1.4-0.5-2.1-0.8
		c6.8-5.5,13.5-10.9,20.6-16.6c0.9,0.1,2.7,0.4,4.9,0.7c-3.4,3.5-6,7.2-3.7,12.6c1.1-0.4,2-0.8,2.5-0.9c1.3,1.4,2.4,2.5,3.5,3.7
		c-1.1,1.6-2.2,3.3-3.2,4.8c2.3,0.4,4.6,0.3,6,1.4c0.7,0.5,0,3.4-0.7,4.9c-1.4,2.9-3.2,5.5-4.5,7.8c1.5,0.4,3.9,1.3,6.3,1.7
		c1.3,0.3,3,0.3,4-0.3c3.2-2,6.1-4.3,9.1-6.6c5.2-3.9,11.6-5.1,17.4-7.6c0.3-0.1,0.8,0.3,1.2,0.4c-6.7-0.5-3.7,8.3-8.8,9
		c-1,4.4-2,8.8-3,13.3c-0.3-0.1-0.5-0.1-0.8-0.2c0.3-5.2,0.7-10.4,1-15.9c-4.4,1.1-2.6,7.5-8.3,7.4c1.3-1.8,1.9-2.8,2.6-3.7
		c-0.3-0.3-0.7-0.7-1-1c-2.1,1.8-4.2,3.5-6.2,5.4c-1.3,1.3-2.5,3.8-3.7,3.9c-5.3,0.2-3.8,4.2-4.9,6.8c3.2,1.3,7.1,7.5,6.8,10.5
		c-0.5,5-1.3,10,4.6,12.6c0.4,0.2,0.6,0.8,1,1.3c2.4,3,4.9,2.6,6.7-1.2c-1.1,0-2,0-3.4,0c1.7-2.9,3-1.3,4.5-0.4
		c2.3,1.3,4.7,3.1,7.1,3.3c4.8,0.3,9.6-0.3,14.3-0.5c3.8,10.9,5.5,9.5,9.4,3.7c-2.7-0.7-5.3-1.3-7.9-1.9c1.1-2.4,1.4-3.9,2.3-4.9
		c2.7-3.2,6.1-1.6,5.6,2.3c-1.3-0.1-2.5-0.2-4.6-0.4c2.6,3.3,5.2,0.6,6.4,1.1c5.2,2.3,3.2-2,4.1-4.4c1.9,0.7,4.2,0.9,5.6,2.2
		c3,2.7,7.8,2.5,10.4-2.1c-0.2,3.2-0.4,5.3-0.6,7.4c1.3-1.1,1.6-3.1,2.5-3.4c3.1-0.9,6.3-1.8,9.5-1.8c5.6,0.1,11.1,0.9,16.7,1.4
		c0.2,0,0.4,0.3,0.8,0.6c-0.3,1-0.7,2-1,2.7c2.5,2.1,5.3-0.4,4.7-1c-2.5-2.7,0.7-2.7,0.8-3.8c3.7,1.9,4.9,7.2,10.2,6.3
		c0.5-0.1,1.2,0.6,1.8,0.7c1.4,0.1,2.9,0.2,4.4,0.1c3.7-0.3,7.5-0.5,11.2-1c3.1-0.4,6.7,0.8,8.7-3.3c1.1-2.3,3.5-4.1,5.7-6.5
		c1.4,3.2-0.7,6.9,3.3,7.5c1-1.4,1.8-2.6,3.1-4.3c0.9,1.9,1.4,3,1.8,3.9c1.5,0,3.1,0,4.6,0c-6.1,4-6.1,4-5.9,6.1
		c6.2-1.7,12.5-3.2,19-1.1c1.6,0.5,3.7,0.6,5.1-0.1c4-1.9,7.8-0.4,11.7,0c0.9,0.1,1.8,0,2.7,0c-0.4-2-0.7-3.9-1-5.8
		c0.6-0.2,1.1-0.3,1.7-0.5c1,2,2,4.1,3.3,6.4c2.1,0.6,4.9,1.3,7.8,2.1c2.3-3.8,6.3-2.3,9.7-2.5c1.3-0.1,2.7,1.3,4.2,2.1
		c0.2-0.6,0.8-1.9,1.4-3.3c0.6,1,1.2,2,1.7,2.9c4-0.4,7.7-0.8,11.9-1.2c-1.4,1.6-2.4,2.8-3.7,4.3c1.4,0.7,2.5,1.2,3,1.4
		c1.2-1.9,2.5-4.6,3.1-4.5c2.1,0.5,4.1,1.9,6.4,3.2c2.3-4,6.7-4.1,11.3-3.7c0.6,0.1,1.4,0,1.9-0.3c3.8-2.4,7.3-0.6,10.5,1.1
		c2,1.1,2.9,1.4,3.5-1c1.5,0.7,2.8,1.4,3.6,1.8c6-4,11.3-0.8,16.7,0.7c-0.1-1.3-0.2-2.1-0.3-3.1c3.9,0.8,7.6,3.4,11.1,0.2
		c0.7-0.7,1.8-1.9,1.6-2.4c-0.5-1.1-1.6-2.6-2.6-2.7c-4.6-0.4-9.2-0.4-13.8-0.4c-2.1,0-4.2,0.4-6.3,0.6c-0.1-0.4-0.2-0.8-0.3-1.2
		c-0.9,1.1-1.7,2.2-2.5,3.1c-2-1.4-3.9-2.5-5.5-4c-0.6-0.5-0.4-2.9-0.1-3c1.8-0.5,3.6-0.7,5.1-0.9c0.8,1.4,1.8,3.6,2.1,3.5
		c1.7-0.5,3.3-1.5,5.1-2.5c0.4,0.5,0.9,1.4,1.4,2c3.7-0.8,7.2-3.8,10.4,0.7c0.1,0.2,1.8-0.7,3.1-1.2c1.7,0.5,4.6,0.6,5.7,2.1
		c1,1.3-0.1,4.2-0.3,7c1.8-1,2.8-1.6,4-2.3c0.4,3.2,0.8,6,1.2,9.4 M497.1,143.9c0.5,0.3,1,0.6,1.4,0.9c0.9,1.4,1.8,2.8,2.5,3.8
		c-1.2,1.5-2.9,2.8-3,4.1c-0.4,5-1.5,10.3-0.2,14.9c1.8,6.1-0.6,10.9-1.9,16.2c-0.2,0.7-1.3,1.2-2,1.7c-0.3-0.2-0.6-0.4-0.9-0.6
		c0.4-1.8,0.7-3.6,1.2-5.8c-2.3-0.2-4.5-0.5-6.7-0.5c-5.2,0-10.4,0-15.6,0.1c-1.3,0-2.7,0.6-4,0.9c0,0.7,0.1,1.4,0.1,2.1
		c3.5,0.3,7,0.7,10.5,1c3.9,0.3,7.8,0.6,11.9,0.8c-0.8,2.7-0.8,2.8-3,2.8c-4.1-0.1-8.3-0.3-12.4-0.5c-2.3-0.1-4.7-0.9-6.9-0.5
		c-2.6,0.4-5.1,1.6-8.7,2.7c3.2,2.8,5.9,5.1,8.6,7.4c-5.4,1.1-8.4-1.7-11.3-4.9c-1.3-1.4-3.1-2.3-4.7-3.4c-0.2,0.3-0.4,0.6-0.7,0.9
		c1.8,4.2,3.6,8.5,5.7,13.3c-1.8-0.3-3.6-0.1-4.4-0.9c-1.7-1.8-2.9-4.1-4.4-6.4c-4.2,0.6-1.5,4.6-2.6,6.9c-2.5-0.7-5-1.5-6.8-2
		c0-1.7,0-2.9,0-3.2c2.7-1.9,5.1-3.2,7-5.1c0.7-0.7,0.7-3,0.1-3.9c-0.6-0.9-2.4-1.5-3.7-1.5c-5.5-0.2-11.1,0.1-16.6-0.4
		c-1.9-0.2-4.9-0.3-5.5-3.6c-0.1-0.4-3.1-0.9-3.8-0.3c-2.2,2-4.1,1.9-6.6,0.8c-0.8-0.4-1.9,0-2.9,0c-0.9,0-1.8,0.1-2.7,0.2
		c-1.4,0.1-2.8,0.2-4.1,0.3c0,0.3,0,0.7,0,1c-1.2-1-2.5-2-3.7-2.9c0,0.3,0,0.6,0,0.9 M396.4,87.7c-0.3,1.7-0.5,2.8-0.9,4.9
		c2.4-1.4,4-2.3,5.7-3.3c-0.9-1.3-1.7-2.5-2.5-3.7c1.1-0.2,2.6-0.6,3.6-0.8c0.1-1.9,0.2-3.3,0.3-4c1.4,0.6,2.4,1.2,3.4,1.5
		c1.9,0.5,3.9,0.6,5.7,1.3c2.7,1.1,4.9,1.6,5.6-0.8c2.7,0.2,4.9,0.5,7.2,0.7c0.1-0.4,0.2-0.7,0.3-1.1c-1.5-0.6-2.9-1.3-4.9-2.2
		c2.2-1.7,4.2-3.1,6.2-4.6c-0.8-1.2-1.6-2.5-2.6-3.9c-3.7,4.6-7.6-1.2-11.5,0.4c0.6,0.9,1,1.6,1.5,2.2c-0.2,0.3-0.3,0.6-0.5,0.9
		c-3.4-0.6-6.7-1.2-10.1-1.8c0.2-1.9,0.3-3.2,0.4-4.8c20.8-2.6,41.2,1.1,62.1,1.8c0.1-0.3,0.2-1.2,0.4-2.3c2.5,1,4.7,1.8,6.9,2.6
		c1.5-3.9,2.1-4.2,9.8-4c-1.5,1.3-3.1,3.5-3.9,3.2c-3.9-1.3-3.4,1.3-3.3,3.7c-3.1,0.4-5.9,0.8-8.7,1.2c3.9,5.6,5.4,5.5,10.4-0.7
		c1.8,5.3-3.3,10.7-0.9,16c0.5,0,1.1,0.1,1.6,0.1c0.7-3.6,1.3-7.3,2.1-11.1c3.5-0.3,4.6-2.4,4.3-5.8c-0.3-3.2-0.1-6.4,0-9.6
		c0-1.3,0.4-2.6,0.8-5c4.8,6.1,1.9,12.4,3,17.9c0.5,0,1,0,1.5,0c0.7-4.1,1.4-8.2,2.1-12.3c1.3,4.2,1.7,8.3,2.1,12.5
		c0.7,7.5-0.7,15.6,5.4,21.8c0.3,0.3,0.2,1,0.2,1.5c-0.3-0.1-0.6-0.3-0.9-0.4c-0.9,1.7-1.8,3.4-2.7,5.1c1.5,1.1,2.4,1.7,2.7,2
		c-0.9,2.2-2.2,4-2.2,5.8c0.2,7.1,0.6,14.3,1.5,21.4 M455.5,97.2c0.1-0.5,0.4-1.5,0.8-3c-2.4-0.3-4.6-0.7-6.7-0.7
		c-0.7,0-1.4,1.2-2.1,1.9c-1.6-0.6-3.1-1.5-4.8-1.8c-0.7-0.1-1.6,1.1-2.5,1.7c1.1,1,2.3,2.8,3.3,2.7c1.4-0.1,2.6-1.7,3.9-2.7
		C450,96,452.6,96.6,455.5,97.2z M151,161c0,0.4,0,0.9-0.1,1.3c2,1.5,3.9,3.1,5.9,4.6c0.2-0.1,0.5-0.3,0.7-0.4
		c-0.2-0.9-0.3-1.8-0.8-2.6c-1.5-2.8-1.2-3.6,1.9-4.2c0.4-0.1,0.7-1.1,1.1-1.6c0.9,0.5,1.8,0.9,3.6,1.8c-0.8-2.8-1.3-4.9-1.9-6.9
		c-0.5,0-1,0.1-1.5,0.1c0,1.7,0,3.4,0,5.1C157,159.1,154,160.1,151,161z M161.2,129.2c-1.4,1.1-2.8,2-3.8,3.3
		c-0.2,0.3,1.2,1.8,2.2,3.3c1.1-1.6,1.7-2.6,2.4-3.6c-1.2,3.3,0.1,5.4,3.1,7c2.2,1.1,4.1,3.2,6.4,3.9c2,0.7,4.5,0.2,6.7,0
		c1.8-0.2,3.6-0.8,5.3-1.1c0.3-1.2,0.3-3.2,0.8-3.3c2-0.5,4.1-0.4,6.2-0.5c1,0,2,0.1,3.7,0.2c-4.4-3-7.9-5.3-11.8-8
		c-1.8,2.1-3.8,4.4-6.3,7.5c-0.5-0.7-1.6-2.1-2.7-3.6c-1.1,0.7-2.2,1.4-3.1,2c-3.1-0.1-1.3-6.3-6-4.1c0.8-1.8,1.7-3.7,2.5-5.5
		c2.8,4.3,5,4.9,10.9,2.9c-0.6-0.9-1.1-1.8-1.6-2.6c2.7-0.2,5.3-0.2,7.9-0.6c0.3,0,0.3-1.8,0.3-2.1c-5.1-1.1-9.7-2.2-13.8-3.1
		c-1,0.9-2,1.8-3.1,2.8c-0.8,0.8-1.6,1.5-2.2,2.5c-1.1,1.9-2.1,3.9-3.2,5.8C161.7,131.3,161.5,130.5,161.2,129.2z M498.7,124.1
		c-2.8-0.2-5.6-0.2-8.4-0.4c0-0.5-0.1-0.9-0.1-1.4c1.7-1,3.4-2,5.1-3c0-0.4,0.1-0.8,0.1-1.3c-1.8-0.6-3.7-1.1-5.5-1.7
		c-0.2,0.3-0.3,0.6-0.5,0.9c-0.4-1-0.8-2-1.8-4.6c-0.6,1.5-1.2,2.2-1.1,2.9c0.4,1.8,1.4,3.5,1.6,5.3c0.1,1.1-0.8,3.2-1.3,3.2
		c-2.9,0-5.9-0.5-8.8-0.8c0-0.5-0.1-0.9-0.1-1.4c2.3-0.7,4.5-1.3,6.9-2c0.1-4.2-3.9-3.6-5.8-5.6c-0.5,3.4-2.5,4.1-5.9,1.7
		c-3.5-2.4-7.2-3.1-10.7-1.8c-1,1.1-1.9,2.7-3.1,3.3c-1.2,0.6-3.9,0.6-4.3,0c-1.2-2.1-1.7-4.6-2.5-7.3c4.1,0.3,7.3,0.5,11,0.7
		c0.3-1.5,0.6-3.2,0.9-4.9c-3.4-1.2-6.1-4.5-9.8-0.3c0.1-1.8,0.2-2.6,0.3-3.3c-1.6,0-3.1,0-5.1,0c-0.4-0.4-1.5-1.3-3-2.6
		c-0.7,2-1.2,3.5-1.6,4.9c1.1,0.1,2.2,0.3,4.1,0.5c-0.9,1.1-1.6,2-2.3,2.9c4.2,3.1,4.5,4.6,2,10.6c-0.4-1.5-0.6-2.4-1-4
		c-1.4,1.1-2.4,2-3.8,3.2c7,4,13.5,0.7,20.2,0.9c0.1-0.6,0.3-1.3,0.5-2.1c1.2,0,2.4,0,2.9,0c1.1,2.4,2.1,4.6,3.1,7
		c-6.5-0.8-12.9-1.5-19.2-2.2c-0.3,0.4-0.6,0.8-0.8,1.2c2.2,2,4.4,3.9,6.8,6.1c1.1-0.8,2.3-1.6,3.8-2.7c0.8,1.4,1.4,2.6,2.4,4.2
		c1.5-0.8,3.1-1.6,5.1-2.7c0.6,0.9,1.9,2,2.2,3.4c0.3,1.2-0.5,2.6-0.2,4.5c2.7-5.1,6.4-5.1,10.9-3.3c-4.4,0.9-4.6,1-4.3,3.6
		c4.1,0,8,0,11.9,0c0-0.3,0.1-0.6,0.1-0.9c-1.4-0.3-2.8-0.6-5.5-1.1c2.5-1.9,4.3-3.2,6.2-4.6c0.9,1.1,1.9,2.5,2.6,3.3 M498.3,111.7
		c-2.3,0.6-3.1,1.2-2,4.3 M490.7,104.7c-1.4-0.2-2.9,0.1-3.8,0.2c0.9,1.5,1.7,3,2.7,4.7c-2.8,0.6-4.7,1-6.5,1.4
		c0.1,0.4,0.1,0.8,0.2,1.1c2.5-0.2,5.1,0,7.5-0.6c1.1-0.3,1.9-1.9,2.9-2.9c0.4-0.4,0.9-1,1.2-0.9 M391.8,105.2
		c1.3-0.4,2.9-0.1,4.3-0.1c0.1-0.3,0.2-0.7,0.3-1c-2.3-0.6-4.7-1.3-7-1.9c2-1.5,5.9-1.2,7.2,0.6c1.9,2.6,3.8,5.1,5.7,7.8
		c4.2-2.4,1.9-4.8,0.6-7.3c-1.2,0.3-2.4,0.7-4.4,1.2c0.6-1.9,1.1-3.4,1.6-5c-0.1-0.1-0.7-0.1-0.8-0.3c-1.9-4-6.3-3.1-9.4-4.3
		 M392.7,114c0.4-0.8,1.3-2.3,2.2-3.9c-0.2-0.2-0.4-0.4-0.7-0.5c-1.6,0.8-3.2,1.5-4.8,2.3c-0.2-0.2-0.4-0.5-0.6-0.7
		c1-0.9,2.1-1.9,3.1-2.8 M393.4,125.4c0.3-0.5,1-1.9,1.7-3.2c1.3,1.5,2.7,3.1,4.2,4.6c0.3,0.3,1,0.3,1.5,0.1c2.6-0.9,5.1-1.8,8.4-3
		c-1.8-1-3.6-2-5.8-3.2c0.9-0.7,2.1-1.5,3.2-2.4c-1.2-3.7-3.4-4.6-6.8-3.2c-2.1,0.8-4.5,0.9-6.6,1.6c-1,0.3-1.7,1.5-3.1,3
		 M396.8,112.8c3-1.3,6.5-2.7,10-4.2c-0.4,2.1-0.9,4.8-1.5,7.7c1.5,0.6,2.8,1.1,4.1,1.6c-0.1-0.3-0.1-0.6-0.2-1
		c2.9-1.5,5.8-2.9,9.2-4.7c-2.5-0.6-4.4-1.1-6.6-1.7c0.6-0.7,0.9-1.3,1.2-1.3c4.5,0.1,9.2-0.1,12.7,3.4c2,2,3.7,4.3,5,5.9
		c4.4-0.7,7.9-1.2,11.7-1.8c-0.6-2-1.1-3.7-1.8-5.7c1-0.5,2-1,3.2-1.6c-0.4-1.7-0.8-3.4-1.3-5.7c-0.8,0.3-2.4,0.6-2.3,0.8
		c0.6,5.4-2.6,2.4-4.6,2.1c-0.5-0.1-0.9-0.4-2.5-1c1.6,2.5,2.6,4.1,3.7,5.8c-2.4,0-5.5,0-8.4,0c1.3-2.4,2.5-4.7,3.6-6.9
		c-3.9-4-3.9-4-5-3.2c-0.5-2.1-1-4-1.4-5.9c-5.6,1.3-6.5,5.7-6.6,10.8c-0.5-0.9-0.9-1.8-1.4-2.7c-0.4,0.3-0.8,0.6-1.2,1
		c0.3,0.9,0.7,1.9,1,2.8c-0.4,0.2-0.7,0.3-1.1,0.5c-0.9-2.2-1.8-4.3-3-7.1c-1.5-0.3-5-2-5.9-1.1c-3.3,3.3-7.2,0.9-10.8,2
		c0.2,0.8,0.3,1.6,0.7,3.4c-2.6-0.2-4.9-0.6-7.2-0.6c-3.7,0.1-7.4,0.8-11,0.8c-5.4-0.1-11.2,0.9-16.1-1.6c-3.6-1.8-5.7-1.5-7.8,2
		c1.8,2,3.6,4.1,5.6,6.2c-1.4,0.4-2.7,1.4-4.2-1.4c-1.3-2.3-4.3-3.7-6.6-5.4c-0.5-0.4-1-0.8-1.5-1.1c-0.9-0.5-1.9-1-2.9-1.5
		c0,1.2-0.3,2.5,0.1,3.5c0.4,1,1.2,2.1,2.2,2.6c4.2,2.3,8.4,4.4,13,6.7c-1.3,0.6-2.2,1-3.2,1.5c0,0.3,0,0.5,0,0.8
		c4.3,0,8.7,0,13.1,0c-0.7-1.7-1.6-3.9-3.1-7.4c2.1,1.3,3.2,2.1,4.6,3c1.9-0.9,4.3-1.9,7.5-3.4c0.6,0.6,1.6,1.7,2.5,3
		c1.3,1.8,2.4,3.7,4.7,0.9c1.1-1.3,2.5-1.2,4.6,0c3.3,1.9,7.4,2.1,11.2,3c0.2-0.7,0.4-1.5,0.6-2.2
		C401,113.8,398.8,113.3,396.8,112.8z M87.3,110.5c0.8,1.7,1.6,3.2,2.3,4.7c-0.8,0.6-1.4,1-1.4,1c2.4,0.8,4.9,2,7.5,2.5
		c4.2,0.8,8.4,1,12.6,1.5c2.9,0.4,5.9,0.7,8.6,1.7c2.8,1,4.9,3.3,8.5,2.2c1.7-0.5,3.9,1,5.8,1.5c-2.9,1.5-5.9,3-9.3,4.8
		c2.4,2.1,4.3,3.8,6.6,5.8c0.2-0.1,0.8-0.6,1.7-1.2c0.4,1.2,0.8,2.3,1.2,3.5c5.8-3.6,8.9,2,13,4.2c0.5-2,0.9-3.7,1.4-6.1
		c3.8,3.7,4.4,9.7,11.6,10.6c1-1.2,2.8-3.3,5.2-6.1c-2.4-1.6-4.8-3.1-7.4-4.8c0.1-0.4,0.4-1.1,0.3-1.9c-0.1-1-0.2-2.1-0.7-2.8
		c-0.2-0.3-1.9-0.1-2.3,0.3c-0.6,0.8-1.1,2.2-0.8,3c0.8,2.3,2,4.5,2.6,7.1c-2.7-3.2-5.4-6.4-8.1-9.6c2.9-2.9,6.6-6.6,10.5-10.4
		c1.7,1.6,3.2,3,4.6,4.4c0.2-0.1,0.4-0.2,0.7-0.4c-0.3-0.8-0.6-1.6-0.9-2.5c1.3-1,2.7-2,4.1-3.1c-0.1-0.3-0.2-0.7-0.4-1
		c-5.2,0.3-10.3,0.6-15.8,0.9c0,0.4,0,1.1,0,1.4c-4.2-1.3-8.3-2.5-12.5-3.8c-0.2,1.4-0.3,2.4-0.4,3.2c-3.5-0.9-6.9-1.7-10.6-2.7
		c1.2-1.1,2.3-2.2,3.5-3.2c-0.2-0.3-0.3-0.6-0.5-0.9c-2,1.5-5.2-1.9-7,2.4c-0.2,0.6-5.3-0.1-7.7-1.1c-5-2-10-1.2-14.9-1
		c-3.7,0.2-6.7,1-9.2-3.1c-2.1-3.4-6-3.9-10.2-2.8C81.4,114.8,84.5,111.7,87.3,110.5z M444.9,126.1c1.1,1.1,2.4,2.9,3.7,2.9
		c2,0,2.7-1.7,2.1-3.8c-0.1-0.2,1.7-1.5,2.2-1.2c1.7,0.7,3.1,1.9,4.2,2.6c2.8-1.2,5.2-2.2,7.8-3.3c-1.7-1.8-3-3.6-4.7-4.9
		c-0.7-0.5-2.2-0.4-3.2,0c-4.7,1.5-6.6,0-7.7-4.8c-0.5-2.2-2.6-4-4-6c1.5-1.8,3.2-3.7,4.9-5.7c-5.1,0.4-8.7-1.1-10.6-5.1
		c-0.6,1.5-1.1,3-1.6,4.5c-0.8-4.3-1.3-4.6-7.9-5.4c-0.7,2.4-1.4,4.7-2.1,7.1c-0.3-0.1-0.7-0.1-1-0.2c0-2.3,0-4.6,0-7.1
		c-1,0-1.9,0-2.8,0c-2.2-3.8,1.8-3.7,3.6-5.1c-1.3-1.3-2.4-2.5-4-4.3c0.7,4.3-1.5,5.6-4.8,6c-2.7,0.3-2.7,2.1-2.2,4.4
		c0.5,2.3,3.6,4.5,0.4,7.6c-3.4-3.2-0.8-7.8-3.3-11.6c-0.7,2.3-1.7,4.4-2,6.5c-0.3,1.9,0.3,3.9,0.1,5.8c-0.2,2.5-0.9,4.9-1.5,8.2
		c1.6-0.2,3.7-0.7,5.8-0.5c1.8,0.2,3.4,1.3,5.9,2.2c0.7-0.3,2.2-0.9,4.3-1.7c-2.3-0.8-1-5.3-5-3.5c0-1.3,0-2.5,0-4.4
		c6.2,2.6,11.9,5.1,18,7.6c-0.4-1-0.7-2-1.5-4.1c4,1.5,7.2,2.7,9.9,3.8c-0.4,5.5-3.1,7.2-7.7,7.1c-1.2,0-2.4,1.8-3.5,2.9
		c-0.7,0.7-1.3,1.4-1.9,2.2c-0.6,0.8-1,1.7-1.5,2.6c0.3,0.3,0.7,0.6,1,0.9c2.9-1.4,5.9-2.9,9-4.4
		C443.7,124.5,444.2,125.4,444.9,126.1z M285.6,161.7c0.1,0.7,2.3,1.8,2.4,1.7c2.5-2.7,4.6-0.8,7.3-0.3c6.5,1,13.2,1,19.8,0.5
		c4.9-0.3,9.8-1.9,14.7-3.1c0.9-0.2,1.7-1,2.5-1.5c-0.6-0.7-1.2-1.7-2-2.1c-2.9-1.7-5.8-3.5-8.8-4.9c-1.1-0.5-3.7-1.6-3.3,1.8
		c-1.4,0.1-2.9,0.5-4.1,0.1c-3.8-1.3-6.4-0.1-7.4,4.3c-3.8-6.1-9.6-1.9-14.3-3.2c-2.1-0.6-4.2-1.1-7.1-1.9
		C285.4,155.7,285.3,158.8,285.6,161.7z M483.5,117.8c-1.4-1.3-2.6-2.3-3.9-3.6c-0.6,1.7-1.1,3-1.6,4.3c1.2,0.4,2.1,0.8,3.1,1.1
		c4.9,1.1,7-0.7,6.5-5.6c-0.2-1.9-0.3-3.8-0.8-5.5c-0.3-0.9-1.9-2.3-2.2-2.1c-3.4,1.9-5.1-1-7.4-2.5c-2.5,1.9-5,2.9-6.9-0.2
		c-1.8,0.4-3.4,0.8-4.9,1.1c-0.1-0.4-0.2-0.8-0.4-1.1c1.3-0.7,2.5-1.4,3.8-2c0-0.3,0-0.5-0.1-0.8c-1.3,0-2.7-0.2-3.9,0
		c-2.8,0.7-5.4,2.8-8.5,0.5c-0.6-0.4-2.4,1-3.3,1.4c1.6,3.5,3,6.8,4.6,10.3c3.2-4.3,3.2-4.3,5.8-0.1c1.6-1.9,3.3-3.8,5.3-6
		c0.8,0.7,2,1.8,2.7,2.3c2.4-0.3,4.6-0.5,6.9-0.8c-1.3,5.5-0.9,5.8,5,4.3C483.3,114.5,483.4,116,483.5,117.8z M367.3,162.1
		c1-1.6,1.9-3,2.7-4.3c1.7,4,7.5,5.2,11.1,2.2c0.7-0.6,2-0.6,3.1-0.8c0.9-0.1,1.9,0,3.1-0.5c-1.7-0.9-5.3-0.6-1.9-3.6
		c-0.2-0.3-0.3-0.6-0.5-1c-1.4,0.7-2.8,1.3-4.4,2.1c-5.7-3.6-12.9-0.5-19.2-3.3c-0.1,0.3-0.2,0.6-0.3,0.9c0.5,0.6,1.1,1.2,2,2.2
		c-1,0.2-1.6,0.4-2.2,0.3c-4.2-0.8-6.7,1.3-8,4.8c-0.5,1.3,0,3,0,4.5c1.3-0.8,2.7-1.5,3.9-2.3c0.4-0.2,0.4-0.9,0.6-1.4
		c3.8,2,7.4,3.9,11.2,5.8c0.9-1.5,1.6-2.9,2.4-4.3C369.7,163.1,368.5,162.6,367.3,162.1z M208.2,215.2c0.6-0.1,1.2-0.3,1.9-0.4
		c-1.1-3.6-2.2-7.3-3.2-10.7c-1.2-0.5-2.3-1-3.7-1.7c-0.1,0.3-0.4,1-0.6,1.4c-2.5,0-4.8,0-7.5,0c0.6,1.5,0.9,2.4,1.3,3.4
		c-0.2,0.2-0.4,0.4-0.6,0.5c-2-2.4-3.9-4.8-6-7.5c-0.7,0.5-1.5,1-2.5,1.7c-0.5-1.2-1-2.3-1.6-3.9c-1.3,2.8-1.3,4.5,1.4,5.8
		c1.6,0.7,3.2,1.8,4.3,3.1c3.5,4,6.7,8.2,10.1,12.3c3.2,3.8,5.8,1.4,8.5-1C209.5,217.2,209,216.4,208.2,215.2z M188.7,161.7
		c1.5,0.1,2.7,0.3,4,0.3c0.5,0,1.2-0.3,1.5-0.6c0.2-0.2,0-1-0.3-1.3c-3.2-2.9-7-4.3-11.4-3.5c-0.9,0.2-1.6,1.1-2.1,1.4
		c-1-0.5-2.4-1.2-3.8-1.9c-0.2,0.3-0.4,0.6-0.6,0.9c1.2,2.1,2.3,4.3,3.5,6.5c-2.9,1.4-3.3,3.2-1.3,5.1c3.6,3.5,7.3,6.9,11.7,11
		C191,173.1,190.6,167.8,188.7,161.7z M449,179.5c-1-4.7-3.9-7.5-7.6-10.3c-4.7-3.7-7.5,0.8-11.3,1.3c-0.4,1.6-0.7,3.2-1,4.5
		c-1.7-0.6-3.2-1.5-4.8-1.6c-0.8-0.1-1.9,1.1-2.4,2c-0.3,0.6,0.1,1.6,0.2,2.4c0.9-0.2,1.9-0.7,2.8-0.5c2.2,0.5,4.4,1.3,7.4,2.1
		C437.4,179.5,443.1,179.5,449,179.5z M281.5,118.4c3.2-2.7,6.1-4.4,7.9-6.9c1-1.4,0.4-4.1-0.1-6.4c-3.5,3.9-7.4,3.1-11.4,2.5
		c-3.3,4.7-6.7-3.2-9.9,0.5c-0.5-1.1-0.8-1.9-1.2-2.6c-0.8,0.5-1.6,1-2.5,1.6c-1.5-5.6-4.3-2.4-7-0.9c3.5,5,9.6,2.8,13.8,5.3
		c-0.5,3.3-1,6.5-1.4,8.8c1.9-1.1,4-2.2,6.1-3.6c1.2-0.8,3.6-1.4,1.7-3.8c-0.2-0.2,1-1.4,1.5-2.2c0.3,0.2,0.7,0.3,1,0.5
		C280.5,113.1,280.9,115.1,281.5,118.4z M129.7,156.6c-2.1-2.2-4.2-4.4-6.2-6.5c-1.4,2.4-2.9,5.1-4.4,7.7c-1.7,4.5,7.7,1,5.6,7.3
		c0.8-1,1.6-1.9,2.3-2.7c6.5,2.1,13.1,4.2,19.2,6.1C143.3,162,132.9,154.3,129.7,156.6z M185.6,188.9c-2.4-1.3-6-2.2-7.3-4.4
		c-1-1.6,0.9-5,1.6-7.8c-0.7,0-1.8-0.1-3.2-0.2c0.3,1.5,0.6,2.7,0.8,3.6c-3,0-6,0-8.9,0c-1.4,6.4-1.4,6.4,4.6,9.8
		c-0.1-1.1-0.1-2.2-0.2-3.9c2.4,1.7,5.7,1.7,4,5.8c-0.2,0.6,2,2.3,3.2,3.3c0.4,0.3,1.2,0.1,1.8,0.1c1.1,0,2.2,0.1,3.3,0.1
		c-0.6-0.9-1.1-1.9-1.9-3.1C183.9,191.3,184.8,190,185.6,188.9z M489.5,165.3c2.7-1.1,5-1.6,3.2-5.7c-1.3-3-0.7-6.9-3.8-9.4
		c-0.7-0.5-1.4-1-2.6-1c0.6,0.7,1.3,1.5,2.2,2.5c-1.4,0.3-2.5,0.6-3.5,0.8c-0.3,2.2-0.6,4.4-1,7c-2.9,0.2-6,0.4-9.1,0.6
		c0,0.4-0.1,0.8-0.1,1.2C479.4,164.1,483.5,167.8,489.5,165.3z M443.9,128.7c-1.9,2.1-3.4,3.8-5.9,6.5c4,0.6,6.7,1.4,9.3,1.3
		c0.8,0,2.1-2.4,2-3.7c-0.1-1.8-1.4-3.5-3-5c0.4,1.4,0.8,2.7,1.2,4.1c-0.4,0.1-0.8,0.2-1.2,0.3c-0.4-2.3-0.9-4.5-1.4-7.5
		c2.2,0.7,3.6,1.2,5.2,1.7c0.5-2.3,0.2-3.9-2.9-3.9c-2.2,0-4.5-1.2-6.5-0.9c-1.9,0.3-5.8-1.4-5.3,3.3c0,0.5-1.8,1.1-3.1,1.8
		C436.3,129.2,440.9,124.8,443.9,128.7z M237,132.9c5.8,6.1,12.5,4.4,19.4,2.9c-2.9-6.2-5.1-7.9-10.5-7c-1.4,0.2-2.5,2.6-3.6,3.8
		c-1.4-2-7.1-2.6-9.3-0.2c-0.6,0.6-0.7,2-0.4,2.8c0.3,0.7,1.6,1.2,2.4,1.2c1.2,0,2.5-0.5,3.7-0.8C238.1,134.8,237.6,133.8,237,132.9
		z M387.5,125c-0.2-0.6-0.5-1.3-0.6-1.7c-1.4,0.1-2.9,0.7-3.8,0.2c-5.4-3.1-10.9-1.9-16.3-0.4c-1,0.3-1.8,1.4-2.7,2.1
		c1.1,0.8,2.1,1.8,3.3,2.3c1.4,0.6,3,0.6,4.7,0.9c0.7-1.6,1.5-3.5,2.4-5.7c4.6,3.6-0.5,6-0.2,9.7c1.9-1.7,3.3-3,4.4-3.9
		c4.4-0.9,8.7-1.7,13.1-2.6c-0.1-0.5-0.2-1-0.2-1.4C390.2,124.6,388.9,124.8,387.5,125z M146.1,107c0,0.2-0.1,0.5-0.1,0.7
		c-3.1-0.3-6.2-0.7-9.2-1c-0.2,0.5-0.4,1.1-0.6,1.6c1.6,0.9,3.2,1.7,5.1,2.7c-0.1,4.5,0.5,5.1,4.6,3.8c-1-0.9-2-1.9-3-2.8
		c3.5,0.1,6.3,0.2,7-4c1.2,0.5,2.2,0.9,3.3,1.3c0.3-0.7,0.7-1.5,1.1-2.5c0.8,0.4,1.9,0.5,2.1,1c0.4,0.9,0.2,2,0.3,3.5
		c3.6,0.3,3.7-2.9,4.5-5.4c-0.8,0.5-1.6,1.1-2,1.4c-1.8-2-3.4-3.9-5.3-6.1c0,1.2,0,2.2,0,3c-3.3,0.3-6.7,0.6-11.4,1
		C144.4,106.3,145.2,106.6,146.1,107z M387.8,130.3c4,4.4,8.7,3.6,12.3,2.9c2.9-0.6,8.2,0.9,8.8-5.4c-4.2-1.2-8.5-2.5-12.9-3.8
		c-0.2,0.4-0.4,0.9-0.6,1.3c1,1.3,1.9,2.7,3.3,4.5C395.1,130,391.9,130.1,387.8,130.3z M222.9,119.2c-2.5-1.4-4.9-2.7-7.4-4.1
		c-0.7,0.8-1.8,2-2.9,3.2c-0.3-0.3-0.5-0.6-0.8-0.8c0.5-1.5,1.6-3.1,1.4-4.5c-0.1-0.9-2.1-1.5-3.8-1.6c0.6,0.5,1.1,1,1.8,1.5
		c-4.5,0.9-8.8,1.8-14.2,2.9C205.6,120.8,214.2,119.7,222.9,119.2z M453.9,146.3c0.5,0.8,2,1.3,2.9,1.2c0.6-0.1,1.6-1.6,1.4-2.4
		c-0.2-1.1-0.9-2.4-1.8-3c-1.7-1.2-3.6-2.1-5.6-3.1c0,0-0.3,0.7-0.7,1.5c-3.7-2.7-7-1-10,1.2c-0.8-0.8-1.5-1.4-2.2-2.1
		c-0.2,3.6,2.4,3.4,4.5,4c2.1,0.6,4.2,1.5,6.5,2.3C450.1,142.9,451.9,143.5,453.9,146.3z M470.4,94.3c-0.2,0.2,0.8,2.6,1.8,3.3
		c1.2,1,3,1.3,4.5,1.9c2.3,1,4.5,2,6.8,3c0.4-2.8,0.7-5.2,0.9-7.5c-1.7,0-3.8,0.4-5.6-0.1c-1.5-0.4-3.9-1.6-4-2.7
		c-0.3-3.5-2.9-3-5-3.4C470.6,90.7,473.1,92,470.4,94.3z M195.2,187.3c-1.5-1.4-3-2.8-5.2-4.8c-0.9,6.2,1.3,10.2,4.3,14.5
		c1-2.2,5.3,0.4,4.5-3.7c1,0.3,2.1,0.7,3.1,1c-0.5-1-1-2-1.6-2.9c-1.2-1.7-2.5-3.3-4-5.3C196,186.4,195.6,186.9,195.2,187.3z
		 M262.2,116.4c-1.1-7-7.6-10.3-13.4-6.9c1.9,0.9,2.5,1.9,0.3,2.8c2.6,0.8,5,1.5,8.1,2.4c-2.8,0.6-4.8,1.1-6.7,1.5
		c0.1,0.3,0.2,0.6,0.2,0.9C254.5,116.8,258.3,116.6,262.2,116.4z M266.1,133.8c0.5-0.8,1.1-1.6,1.4-2.4c0.2-0.8,0.1-2.2-0.3-2.4
		c-0.8-0.3-2.7-0.3-2.8,0c-1.2,4-4.8,2-8.2,3.3c1.6,1.2,2.6,2.6,3.9,2.9c6.6,1.7,12.6,0.5,14.9-2.7c-0.5-1.3-1-2.5-1.9-4.8
		C271.6,130.8,270.9,134.8,266.1,133.8z M286.8,131.8c-1.9-0.1-3.8-0.6-6.2-1c2.3,5.2,5.7,6.2,9.6,3.3c0.6-0.4,1.6-0.2,2.5-0.3
		c1.5-0.2,2.9-0.5,4.5-0.8c-0.1,0.3-0.2,0.7-0.5,1.7c1-0.6,1.7-0.9,1.8-1c1.8,0.9,3.3,1.7,5.1,2.7c0.6-3.7-0.7-4.7-3.4-4.8
		c-3.6-0.2-7.3-0.7-10.6-1.1C288.7,130.9,287.8,131.8,286.8,131.8z M482.5,172.9c-3-3.4-11.8-5.2-16.5-3.6c1.7,1.6,3.3,3.7,5.3,4.9
		c1,0.6,3-0.6,4.6-1c0.6,0.8,1.8,2.3,3,3.9C480.4,175.2,481.4,174.1,482.5,172.9z M122.8,110c-0.6,2.7,1.2,3.8,5.7,3
		c2.2,1.2,3.5,1.9,5,2.6c0.8-1.7,1.6-2.8,1.6-3.8c0-1-0.6-2.4-1.4-3c-1.5-1-3.3-1.5-5.4-2.4C127,107.2,125.3,108.3,122.8,110z
		 M418.2,132.5c-1.1,1.4-2.1,2.7-2.8,3.7c3.2,0,6.8,0,10.5,0c-2.4-3.4-4.4-6.3-6.3-9c-0.8,0.1-2,0-3,0.5c-1.2,0.7-2,1.9-3.1,2.8
		C415.2,131.2,416.4,131.7,418.2,132.5z M449,168c1.4-0.6,2.7-1.2,3.3-1.5c-2.1-3.1-4.1-6.1-6.1-9.1c-0.3,0.2-0.6,0.5-0.9,0.7
		c0.6,0.9,1.2,1.9,1.8,2.8c-0.1,0.3-0.3,0.5-0.4,0.8c-2.4-0.8-4.7-1.7-7.3-2.6C439.4,166.8,446.8,164.4,449,168z M376.8,137.2
		c-1.4,0.7-4,2.1-6.7,3.6c5.4,0.7,10.2,5,15.8,2.5c0.7-0.3,1.2-0.9,1.8-1.3C384.3,140.5,381.1,139.1,376.8,137.2z M182.1,107.9
		c-0.2,1.5-0.3,3-0.4,3.8c2.6-0.3,5.4-0.6,8.2-0.9c0.1,0.4,0.2,0.8,0.3,1.2c-1.4,0.9-2.9,1.8-4,2.5c2.3,0.2,4.8,1.1,6.9,0.5
		c1.9-0.5,3.4-2.7,5.7-4.6C192.3,109.5,187.2,108.7,182.1,107.9z M460.9,162.7c0.7-0.6,1.3-1.1,2-1.7c-4-3.3-7.3-3-9.6,0.8
		c1,0.3,2,0.6,2.9,1c0.8,0.3,1.6,0.7,2.7,1.1c-0.9,1.3-1.6,2.4-2.6,3.8c3.4-0.3,6.4-0.6,9.4-0.8c0-0.4,0-0.8,0-1.2
		C464,164.7,462.5,163.7,460.9,162.7z M407.6,160.3c-2.2,0.5-4.2,0.9-7.2,1.5c2.6-2.1,4.3-3.4,6-4.8c-0.3-0.4-0.6-0.7-0.9-1.1
		c-1.3,0.7-4.4-1.7-3.7,2.6c0,0.1-0.8,0.5-1.2,0.6c-3.1,0.3-2.2,2.7-1.8,4.2c0.3,1,1.8,2.2,2.8,2.4c2,0.2,4.2-0.2,6.7-0.5
		C408.1,163.2,407.9,161.6,407.6,160.3z M208.1,178.1c-0.1-1.9-0.8-3.8-1.2-5.7c-2.1,0.5-4.1,1-6.4,1.5c2.6,4.9,4.7,8.7,7.1,13.2
		C207.8,183.2,208.2,180.6,208.1,178.1z M345,116.8c-0.4-0.1-1.7-0.4-2.9-0.7c-0.2,0.5-0.4,0.8-0.3,0.9c0.6,1.3,1.2,2.5,1.8,3.7
		c-1.5,0.2-3,0.4-4.5,0.5c-0.9,0.1-1.8,0-3.5,0c2.7,1.1,4.4,1.8,6.1,2.5c-0.1,0.4-0.3,0.7-0.4,1.1c-1-0.3-1.9-0.5-2.9-0.8
		c0.5,1.9,3.6,3.6,5.4,2.5c1.9-1.1,3.4-3,4.9-4.3C347.5,120.5,346.4,118.9,345,116.8z M207.4,79.3c3.4,0.8,6.8,1.6,10.8,2.5
		c0.5-0.6,1.4-1.6,1.5-1.8c3.1,0,5.4,0,7.7,0c0.1-0.4,0.3-0.7,0.4-1.1c-1.2-0.7-2.4-2-3.6-2c-2.8,0-5.6,0.8-8.4,1
		c-1.1,0.1-2.2-0.7-2.7-0.9C210.9,77.9,209.2,78.6,207.4,79.3z M402.6,161.1c-1.7,0.4-3.1,0.8-3.8,1c-2.9-1.8-5.6-3.5-7.8-4.9
		c-1.1,2-2.3,4.1-3.7,6.6c5.5-2.7,8.6,1.2,12.6,2.6C400.6,164.8,401.5,163.2,402.6,161.1z M463.3,87.9c-3.4-2.8-6.5-2.2-10.5,0.9
		c1.4,1.1,2.5,2.7,3.8,2.8c1.5,0.2,3-1,4.6-1.6c0.2,0.3,0.4,0.6,0.6,0.9c-0.3,0.7-0.7,1.5-1.3,2.8c2.6-1.5,4.8-2.7,6.8-4.2
		c0.6-0.5,0.4-1.9,0.4-1.9C465.8,87.8,464,88.5,463.3,87.9z M477.4,123.5c1.2,5.2-2.8,5.1-5.5,6.3c0.5,1.1,0.7,2.4,1.5,3.2
		c0.5,0.5,2.1,0.8,2.6,0.4c3-2.7,5.8-5.5,9.4-9C482.6,124.1,480.1,123.8,477.4,123.5z M406.9,175.3c3.4-1.8,6.9-3.5,10.1-5.6
		c0.8-0.5,0.5-2.5-0.1-4.1c-1.9,1.6-3.8,3.3-6.1,5.2c-6.6-0.8-9,0.3-9.3,4.6c1.4-1,2.8-2,4.5-3.2
		C406.5,173.9,406.8,174.7,406.9,175.3z M427.2,123.4c-0.7,2.1-3,4.9,2,5.2c-0.2-1.2-0.4-2.2-0.6-3.2c-0.2-1.4-0.5-2.8-0.7-4.2
		c-2,0.4-4.2,0.5-6,1.4c-0.7,0.4-0.9,2.4-0.8,3.7c0.1,1.7,0.8,3.3,1.4,5.4c1.4-0.9,2.3-1.4,3.1-1.9
		C423.2,123,423.3,122.8,427.2,123.4z M357.5,118.9c-0.4-0.1-0.8-0.1-1.2-0.2c-0.6,1.7-1.3,3.4-1.9,5.1c-1.8-0.9-3.9-1.6-4.8,1.2
		c-0.2,0.6,2.5,2.1,3.3,2.7c2.3-0.3,4.1-0.5,6.4-0.8C358.8,124.6,358.1,121.7,357.5,118.9z M268.3,147c-2.1-2.2-3-6.8-8.2-5.2
		c0.2,3.7,1.5,6.9,3.2,9.5C265,149.9,266.6,148.5,268.3,147z M481.5,112.3c-1.1-1.8-1.8-2.9-2.6-4.1c-3.7,0.4-8.4-2.5-11.9,2.7
		C471.8,111.3,476.2,111.8,481.5,112.3z M389.2,161.2c-0.3,0.2-0.5,0.4-0.8,0.6c0.4,0.6,0.9,1.2,0.7,0.9c-0.8,2.8-1.4,4.9-1.9,7
		c0,0.1,1.6,0.5,2.8-0.1c-0.6-0.5-1.3-0.9-1.9-1.4c0.1-0.2,0.1-0.5,0.2-0.7c3.4,0.5,6.7,1,10.3,1.5c-1.3-3.4-3.3-5.1-6.4-4.3
		C391.1,163.5,390.1,162.3,389.2,161.2z M198.7,131.9c-1.1,2.6-1.8,4.4-2.6,6.3c1.8-0.3,3.7-0.7,5.8-1.1c0,0.8-0.1,2-0.2,3.4
		c2.8-2,6.3-3.4,3.3-7.9C203.2,134.6,201.2,136,198.7,131.9z M341.5,98.7c6.5,3,11.6-2.8,17.4-2.1C355.2,94,345.7,95.2,341.5,98.7z
		 M461.2,128.5c2.6,3.1,3.6,8.6,10.4,5.2c-2.5-2.5-4.7-4.8-6.9-7C463.5,127.3,462.4,127.9,461.2,128.5z M320.1,124.9
		c-3.9,0.4-7.6,0.7-11.2,1c-0.1,0.3-0.3,0.6-0.4,0.9c1.2,0.4,2.5,1.3,3.5,1c3.3-0.9,6.4-2.3,9.6-3.3c0.9-0.3,2,0.5,3,0.5
		c1.1,0,2.2-0.3,3.1-0.7c0.3-0.1,0.2-1.8-0.1-2c-0.8-0.4-1.9-0.4-2.8-0.4c-1.7,0-3.5,0.2-5.5,0.3
		C319.5,122.7,319.7,123.4,320.1,124.9z M326.6,101.9c-0.5-1.6-0.8-2.5-1.2-3.7c0.8,0,1.6,0,3,0c-2.2-2-3.4-5.1-6-1.3
		c-0.1,0.1-0.4,0.2-0.5,0.2c-3.7-0.1-3.7-0.1-1.8,4.4c-1.5-1-2.5-1.6-3.5-2.3c-0.2,0.3-0.4,0.6-0.6,0.9c1.2,1,2.5,1.9,4,3.1
		c0.5-1.4,0.9-2.6,1.3-3.8C322.8,100,324.3,100.8,326.6,101.9z M168.9,161c1.6,0.4,3.3,0.8,6.2,1.4c-1-2.6-1.6-4.3-2.2-5.9
		c-9.1,3.5-9.5,4.2-5.3,8.3C168.1,163.4,168.4,162.3,168.9,161z M213.6,130.8c0.6,2.5,0.6,4.4,1.5,5.6c1.5,2,5.8,1,8.7-1.8
		C220.7,133.4,217.8,132.3,213.6,130.8z M465.1,74.9c-3.4-0.6-6.8-1.4-10.2-1.7c-0.8-0.1-1.8,1.7-2.6,3.1c2.4-0.2,5-1.2,4.8,3.2
		c0.9-1.5,1.4-2.4,2-3.4C461.9,78.9,463.2,78.6,465.1,74.9z M342.2,114.6c-1.2-2.2-1.9-3.5-2.7-5c1.6-0.5,3.3-1,5.1-1.5
		c0-0.3,0.1-0.7,0.1-1c-2.6-0.9-5.2-1.7-7.8-2.6c-0.3,0.2-0.6,0.5-0.9,0.7C337.5,108.3,336.2,112.7,342.2,114.6z M440.5,138.3
		c0.2-0.8,0.4-1.8,0.6-2.7c-0.2-0.2-0.5-0.4-0.7-0.4c-2,0.3-4,0.6-5.9,0.9c0.2,0.8,0.1,2.3,0.5,2.4c2.3,0.8,4.6,1.5,7,1.7
		c1.2,0.1,2.4-0.9,3.6-1.4c-0.1-0.4-0.2-0.8-0.3-1.2C443.8,137.7,442.2,138,440.5,138.3z M499.7,134.6c-0.4,2.3-0.8,4-1.2,6.5
		 M200.7,124.7c-2.6-2.3-9.4-1.9-13.1,1C196.1,127.7,196.1,127.7,200.7,124.7z M468.3,157c0.6,0,1.2,0,2.9,0c-2.4,1.9-4,3.2-6.2,4.9
		c2.8,0.2,5.4,0.4,7.6,0.5c0-2.6,0.4-4.6-0.1-6.3c-0.4-1.4-2-2.5-3.4-4.3C468.7,154.3,468.5,155.6,468.3,157z M490.1,92.8
		c0.4,0,0.9-0.1,1.3-0.1c-0.3-4.6-0.7-9.3-1-13.9c-0.4,0-0.9,0-1.3,0C486.6,83.6,489.7,88.1,490.1,92.8z M301.7,108.5
		c0,0-1-0.9-1.5-1.4c-1.4,2.4-6.1-0.2-6.3,3.9c0,0.8,1.1,1.6,2.4,3.4C298.6,112,300.2,110.3,301.7,108.5z M310.1,132.6
		c-0.6,1.3-1.1,2.5-2,4.6c1.6-0.5,2.9-1.3,4.4-1.4c1.3-0.1,2.7,0.3,4.1,0.5c1.6,0.3,3.2,0.8,4.8,1.2c0.1-0.6,0.3-1.1,0.4-1.7
		C317.8,134.8,313.9,133.7,310.1,132.6z M346.5,140.8c-1.7,0.8-3.3,1.6-5.1,2.5c1.5,1.6,2.8,3,3.7,4c1.7-1.5,3.3-2.9,4.8-4.2
		C349.1,142.5,347.8,141.7,346.5,140.8z M485.8,97.5c2.3,0.8,3.9,1.5,5.6,1.9c0.8,0.2,1.8-0.3,2.7-0.4c-0.3-0.8-0.4-1.8-0.9-2.3
		c-1.3-1.2-2.8-2.2-4.7-3.6C487.7,94.5,486.8,96,485.8,97.5z M499.3,167.7 M227.1,161.2c-4.2-3.3-6.6,1.6-10.5,2.2
		C221.9,165,224.9,164.3,227.1,161.2z M100.4,129.7c-0.1,0.3-0.3,0.6-0.4,1c3.5,4,4.2,4.2,8.4,2c-1.4-3.5-2.3-3.7-4.6-1.4
		C102.4,130.7,101.4,130.2,100.4,129.7z M496.9,162.8c-2.1,2.2-4.2,4.4-6.9,7.1C496.7,169.9,496.8,169.8,496.9,162.8z M388.9,135.6
		c0.1,0.5,0.6,0.9,0.9,1.3c0.7,0.9,1.3,1.9,2.2,2.5c0.3,0.2,1.3-0.4,2-0.7c-0.4-0.9-0.8-2-1.3-2.8c-1-1.5-2.2-2.9-3.2-4.4
		c-0.4,0-0.8-0.1-1.2-0.1C388.4,132.8,388.6,134.2,388.9,135.6z M193.4,173.4c0.3,0.3,0.6,0.7,0.8,1c1.4-1.6,2.8-3.3,4.3-5
		c0.3,0.2,1,0.8,2.4,2c-0.5-1.8-0.7-3.4-1.1-3.4c-1.8-0.3-3.7-0.1-5.5-0.1c0.3,0.5,0.6,1.1,0.9,1.6C194.6,170.7,194,172,193.4,173.4
		z M456.8,136.6c0.3-0.1,0.6-0.1,1-0.2c-0.6-2-0.8-4.2-1.9-5.8c-0.4-0.6-2.8,0.2-4.4,0.3c0.1,0.4,0.2,0.9,0.3,1.3
		C453.5,133.7,455.2,135.2,456.8,136.6z M333.2,76.7c0.1,0.4,0.3,0.7,0.4,1.1c1.3,0,3.1,0.5,3.7-0.1c1.2-1.2,1.7-3.1,2.5-4.7
		c-0.5-0.4-1.1-0.8-1.6-1.1C336.6,73.4,334.9,75.1,333.2,76.7z M92,101.9c0,0.4-0.1,0.9-0.1,1.3c3.8,0.4,7.5,0.9,11.3,1.3
		c0-0.5,0.1-0.9,0.1-1.4C99.4,104.2,96.1,98.8,92,101.9z M169.2,149.5c-2.4-1.6-4.5-3.1-6.7-4.6c-0.2,0.3-0.4,0.5-0.6,0.8
		c0.9,0.8,1.8,1.5,2.3,1.9c0,2,0,3.6,0,5.3c0.5,0.2,0.9,0.3,1.4,0.5C166.6,152.3,167.7,151.2,169.2,149.5z M430.8,119.4
		c0.2-0.7-0.8-2.3-1.5-2.6c-2.7-0.9-4.1,0.8-5,4.5C426.6,118.9,429.6,123.9,430.8,119.4z M492.3,89.8c0.2,0.1,0.5,0.4,0.5,0.3
		c1-0.7,2.5-1.2,2.9-2.1c0.5-1.3,0.4-2.9,0.1-4.3c-0.1-0.4-2.1-1-2.4-0.7c-1.2,1.1-2,2.5-3.1,4.2c1.4-0.2,2.4-0.4,4.6-0.7
		C493.5,88.2,492.9,89,492.3,89.8z M306.5,111c1.1,2,2.1,3.8,2.6,4.9c2.5-1.1,4.8-2.2,7.1-3.2C313,112.2,309.9,111.6,306.5,111z
		 M282.3,100.4c0-0.5,0.1-1,0.1-1.5c-1.7-0.5-3.6-1.7-5.2-1.3c-1.1,0.2-1.8,2.5-3,4.3C277.3,101.4,279.8,100.9,282.3,100.4z
		 M150.7,171.5c0.2,1.6,6.3,6.6,7.6,5.9c0.8-0.4,1.1-1.8,1.3-2.1C156.1,173.8,153.4,172.7,150.7,171.5z M465,137.5
		c5.1,3,8.1,2.8,9.7-1C471.4,136.8,468.3,137.1,465,137.5z M485.6,170c-1.7,3.2-0.9,5.8,1.5,5.4c1.4-0.2,2.6-1.1,4.4-1.9
		C489.4,172.2,487.5,171.1,485.6,170z M477.2,162.4c-0.6-0.2-1.6,0.6-2.4,1c0.4,0.9,0.7,2.3,1.3,2.5c1.6,0.3,3.4,0.1,5.1,0.1
		c0.1-0.3,0.1-0.6,0.2-0.9C480,164.1,478.7,163,477.2,162.4z M175.4,145.3c-1.3,0.4-4.8,1.2-2.4,4.8c0.7-1.2,1.2-2,1.8-2.8
		c1.6,0.2,3.2,0.5,4.9,0.7c0.2-0.4,0.3-0.8,0.5-1.2C178.5,146.3,176.7,144.9,175.4,145.3z M118.4,145.8c-1.1-0.1-2.2-0.1-3.3-0.2
		c0.4,1.7,0.8,3.4,1.2,5.2c0.5,0,1-0.1,1.6-0.1C118,149.1,118.2,147.4,118.4,145.8z M485.1,153.3c0.6-0.3,0.7-1.3,1.1-2
		c-0.7,0-1.3,0.1-1.9,0c-3.1-0.8-3.6,1.4-4.6,3.9C481.8,154.4,483.5,154,485.1,153.3z M73,132.9c0.3,0.9,0.5,1.9,0.8,2.8
		c1.8-0.6,3.6-1.2,5.4-1.8c-0.2-0.7-0.3-1.4-0.5-2.1C76.8,132.2,74.9,132.6,73,132.9z M331.9,146.9c-2.4-4.5-5.2-1.6-7.7-1.1
		c0.1,0.4,0.1,0.7,0.2,1.1C326.8,146.9,329.2,146.9,331.9,146.9z M291.8,141.1c0.1,1.7,0.2,2.8,0.3,4c2-0.7,3.9-1.3,5.7-1.9
		c0.1-0.5,0.2-1.1,0.3-1.6C296.2,141.4,294.2,141.3,291.8,141.1z M414.9,116.5c-2.7,2.9-1.6,4.9,0.5,6.5c0.5-0.2,1-0.3,1.5-0.5
		C416.2,120.6,415.6,118.6,414.9,116.5z M168.5,17.5c-0.1,0.4-0.3,0.8-0.4,1.2c2.8,1.1,5.5,2.2,8.3,3.2c0.3-0.7,0.5-1.4,0.8-2.1
		C174.2,19.1,171.4,18.3,168.5,17.5z M170,16.3c0.9,0,2.1,0.3,3-0.1c2-0.9,3.5-2.3,1.9-5.6C173.2,12.7,171.8,14.2,170,16.3z
		 M276.6,137.6c-0.3-0.1-0.6-0.3-0.9-0.4c-0.7,0.9-2,1.8-1.9,2.7c0,1.4,1,2.7,1.5,4.1c0.4-0.1,0.9-0.3,1.3-0.4
		C276.6,141.5,276.6,139.6,276.6,137.6z M362.6,135.5c-1.2-0.7-2.5-1.4-4-2.2c-0.7,1-1.3,2-2.2,3.4c2.6,0,4.6,0,6.9,0
		C362.9,135.9,362.8,135.6,362.6,135.5z M325.9,131.3c2.8,3,5.2,2.7,6.8-1.1C330.1,130.6,328,130.9,325.9,131.3z M117.5,112.7
		c0.3,0.9,1.5,1.5,2.2,2.2c0.3-1.1,1-2.4,0.8-3.4c-0.3-1.3-1.3-2.5-2-3.7c-0.4,0.4-0.9,0.7-1.3,1.1
		C117.3,110.2,117.1,111.6,117.5,112.7z M344,162c-0.2,0.2-0.5,0.5-0.7,0.7c0.9,0.8,1.8,2.1,2.8,2.3c1.3,0.2,2.8-0.4,4.2-0.7
		c-0.2-0.3-0.4-0.6-0.6-0.9C347.8,163,345.9,162.5,344,162z"/>
	<path class="st0" d="M500,199.8c-2.4,0.7-4.5,2.2-7,0c-0.5-0.4-2.1,0.6-3.6,1c1.7,1.5,3.2,2.8,5.5,4.8c-6.5,3.1-12.5,6-18.8,9.1
		c-0.1,0.7-0.2,1.9-0.3,3.3c-0.7-0.7-1.3-1.1-2-1.7c0,0.6-0.1,1,0,1.4c0.6,3,1.1,6,1.9,8.9c0.4,1.7,1.3,4.7,1.8,4.6
		c2.5-0.3,5.2-0.7,7.2-2.2c2.8-2.1,7.6-2.4,9.8,0.1"/>
	<path class="st0" d="M347.6,193.3c-1.3-1.1-1.9-1.7-2.7-2.3c-0.8,1.1-1.5,2.2-1.6,2.4c1,2.6,2.1,4.4,2.3,6.4c0.6,5.9,2.3,7.4,8,6.3
		c0.4-0.1,0.8-0.3,1.1-0.2c4.8,2.2,6.6-0.9,8.3-4.4c-5.1-4.3-7.8-11.1-15.4-11.8C347.6,190.2,347.6,191.2,347.6,193.3z"/>
	<path class="st0" d="M385.7,181.4c3.3,5,3.3,5-0.6,9.1c1.2,1.3,2.3,2.7,3.7,3.6c1,0.7,2.6,1.2,3.8,1.1c2.5-0.2,4.9-1.2,7.4-1.3
		c1.6-0.1,3.2,0.9,4.9,1.5c0.6-0.4,1.6-1.3,2.7-2.1c1.1-1,2.1-2,3.1-3c-1.8-1.6-3-2.8-4.4-4.1c-0.2,2.4-1.4,3.5-4.1,1.8
		c-0.7-0.4-1.9-0.1-2.8-0.3c-1.7-0.4-3.6-0.5-5-1.4c-0.5-0.3,0.3-2.5,0.4-3.7C392.1,182.1,388.7,181.7,385.7,181.4z"/>
	<path class="st0" d="M411.4,211.5c1.2,1,2.5,2.1,3.8,3.2c0.2-0.1,0.4-0.3,0.7-0.4c-2-3.1-3.9-6.2-6-9.4c1.6-1.7-0.2-7.2-4-10.6
		c-1.7,4.3-1.4,5.3,2.4,8c-1,0.5-2,1-3.1,1.6c-0.8-1-1.7-2.1-2.5-3.1c-0.4,0.2-0.7,0.3-1.1,0.5c0.5,1.2,0.9,2.5,1.5,3.7
		c1.4,2.5,2.9,5,4.4,7.5c0.5,0.8,1.1,1.5,1.7,2.3C409.9,213.9,410.4,213.1,411.4,211.5z"/>
	<path class="st0" d="M466.6,227.7c-2-2.6-3.9-5.3-6-7.8c-0.3-0.3-1.6-0.3-1.7-0.2c-0.3,0.9-0.9,2.4-0.5,2.8c2.4,2.1,5,4,7.5,6
		C466.2,228.3,466.4,228,466.6,227.7z"/>
	<path class="st0" d="M453.1,221.7c-0.2,2.8-0.4,5.2-0.6,8.5C456.5,225.8,456.6,224.3,453.1,221.7z"/>
	<path class="st0" d="M104.7,60.4c-0.5-0.6-1.2-1.3-2-2.1c5.7,0,11.1,0,17,0c0.1-0.2,0.4-1.1,0.9-2.3c0.9,1,1.7,1.8,2.5,2.7
		c-0.6,0.7-1.2,1.5-1.8,2.2c3.9,0,7.7,0,11.4,0c0.2-0.6,0.5-1.3,0.7-1.9c-6.5,0.8-9.7-2.8-12.1-7.7c1.1-1.3,2.3-2.6,3.7-4.2
		c0.4,2.2,0.8,4.1,1.1,5.6c2.5-0.8,5.1-1.6,8.1-2.6c-1.1-1.9-2.1-3.4-2.9-5c-0.5-0.9-1-1.9-1-2.8c0.2-3-2.2-4.9-5-3.9
		c-1.6,0.6-3.2,1.1-5,1.7c0.3,0.6,0.7,1.3,1.3,2.3c-0.7,0.1-1.2,0.2-1.7,0.2c-3.6,0-6.6,1-7.9,4.8c-0.2,0.6-0.9,1.5-1.2,1.4
		c-6.5-1.4-7.4,7.6-13.4,7.2c-0.4,0-0.9,1.6-1.3,2.4c-0.1,0.2,0.7,0.8,0.6,0.9c-3.5,5.8,3.7,4.8,4.9,7.6c1.4-0.6,2.8-1.2,4.3-1.9
		c-0.2-0.3-0.3-0.7-0.5-1c-1-0.3-2.1-0.6-3.1-0.9C102.9,62.2,103.7,61.4,104.7,60.4z"/>
	<path class="st0" d="M119.5,85.9c-2.2-7.5-10-3.4-12.6-6.6c-3.2-0.5-6.2-0.3-8.1-1.5c-3.6-2.2-6.8-1.7-10.4-0.1
		c0.2-2.2,0.3-4.1,0.4-6.4c-1.3-0.2-2.5-0.3-3.6-0.5c0.1-0.8,0.2-1.7,0.3-2.7c-2.1,0.7-4,1.3-6.1,1.9c0.3,3-1.4,5.3-4.8,6
		c-0.3,0.1-0.7,1.5-0.5,2.2c0.4,1.2,1.2,2.4,2.1,4.1c5.2,1.1,5.8-5.6,10.2-7.1c-1,1.4-2,2.8-3.1,4.3c3.8,2.1,7.5,3.5,11.1,1.3
		c2.7,1.1,5.1,2.1,7.7,3.1c2.3-4.1,5.8,0.3,8.8-0.8C113.7,82,116.1,84.6,119.5,85.9z"/>
	<path class="st0" d="M387.3,71.6c1,0,2.4-0.4,3,0.1c4.3,3.5,6.9,0.4,9.8-1.9c-0.1-0.4-0.1-0.8-0.2-1.1"/>
	<path class="st0" d="M105.1,89.6c-6.9,0-12.8,0-18.8,0c-0.6-1.3-1-2.4-1.4-3.1c-3.7,0-7.1,0-10.5,0c-0.2,0.5-0.4,1.1-0.6,1.6
		c5.4-0.7,6.6,3.1,8.5,6.2c0.7,1.1,2.2,1.7,3.4,2.6c2.1-4.6-2.9-5.1-4.7-7.7c5.1,1.6,9.6,3,14.2,4.4c0.1-0.3,0.1-0.6,0.2-0.9
		c1.2,1.4,2.4,2.7,3.7,4.1C101.2,94.3,103.1,92,105.1,89.6z"/>
	<path class="st0" d="M217.2,34.9c-0.8,4.9-1.4,9-2.1,13.5c3.2,1.4,5.1,4.1,3.8,8.4c0.5,0.1,1,0.2,1.5,0.3c0.7-1.2,1.5-2.4,2.7-4.4
		c0.7,1.8,1.4,3.6,2.4,5.9c1.3,0.1,1.3,0.1,2-4.3c-6.8-2.9-9.5-8-7.7-15.5C220,38.1,218.4,36.7,217.2,34.9z"/>
	<path class="st0" d="M148.6,33.9c3.3-1.4,6.6-2.8,9.6-4.1c-2.1-2.5-4.3-2.8-7.4-0.3c-1.9,1.5-3.6,1.4-4.8-0.5
		c1.5-2.6,2.9-5.1,4.4-7.6c-0.2-0.2-0.4-0.3-0.6-0.5c-2.1,1.7-4.1,3.4-6.5,5.4c3,1.8-0.5,7.7,5.4,7.5
		C148.7,33.8,148.6,33.9,148.6,33.9z"/>
	<path class="st0" d="M445,73.9c5.3-3.9,11-1.1,16.5-1.1c-0.9-3.6-3.7-3.2-6.3-3.2c-5.2,0-10.4,0-16.1,0C441,71,443,72.4,445,73.9z"
		/>
	<path class="st0" d="M132.2,83.7c-0.9-3.5-2.5-6.5-6.3-8.1c0.1,0.9,0.1,1.6,0.1,1.7c-3.6,0-7.3,0-11.1,0c0,0.5,0,0.9,0,1.4
		c2.5,1.7,4.6,3.5,8.1,1c1-0.7,3.9,1,5.9,1.8C130.2,82,131.2,82.9,132.2,83.7C132.3,83.6,132.2,83.7,132.2,83.7z"/>
	<path class="st0" d="M160.1,52.5c-4.4-4.4-7.1-3-9,1.9c1.4,2.6,5.6-2.6,6.3,3.2C158.6,55.2,159.4,53.7,160.1,52.5z"/>
	<path class="st0" d="M143.8,70.6c-2.1-1.1-3.8-2-5.3-2.8c-1.7,2-3.1,3.7-4.5,5.3C135.7,75.6,135.7,75.6,143.8,70.6z"/>
	<path class="st0" d="M142.5,61c-0.2-0.4-0.7-1.2-0.8-1.3c-2.4,0.4-4.6,0.8-7.7,1.4c5,0.9,9.2,1.7,13.5,2.5c0.3-0.3,0.6-0.6,0.9-0.9
		c-1.1-1.2-2.1-2.4-3.3-3.4C144.9,59.1,143.6,60.3,142.5,61z"/>
	<path class="st0" d="M160,35.1c0.1,0.9,0.1,1.9,0.1,1.7c3,1.8,5.2,3.2,8,4.9c-0.5-2.5-0.2-5.3-1.3-6
		C165.2,34.7,162.7,35.2,160,35.1z"/>
	<path class="st0" d="M390.4,77c-0.6,1.9-1,3.4-1.3,4.6c3.6,0.3,6.9,0.6,10.3,0.9c0.1-0.2,0.2-0.4,0.2-0.6
		C396.7,80.4,393.9,78.9,390.4,77z"/>
	<path class="st0" d="M132.8,34.5c1.8-0.9,3.6-1.9,5.4-2.9c0.2,0.3,0.7,1,1.3,2c1.1-1.8,1.8-3,2.5-4.2
		C138.8,27.5,135.4,29.4,132.8,34.5C132.8,34.6,132.8,34.5,132.8,34.5z"/>
	<path class="st0" d="M143.9,48.7c-1.5,5-1.2,5.5,3.1,5.5c0.2-1.3,0.3-2.7,0.5-4.1C146.4,49.6,145.2,49.2,143.9,48.7z"/>
	<path class="st0" d="M428.8,73.1c3.4-0.7,6.2-1.3,9.1-1.8c0-0.4-0.1-0.8-0.1-1.3c-1.8,0-3.6,0-5.9,0c0.1,0.2-0.3-0.4-0.8-1
		C430.4,70.1,429.8,71.2,428.8,73.1z"/>
	<path class="st0" d="M73.9,83.3c-0.2-1.2-0.5-2.5-0.8-4.2c-1.6,0.8-2.8,1.5-4.2,2.3c0.3,0.8,0.6,1.7,0.7,2
		C71,83.3,72.3,83.3,73.9,83.3z"/>
	<path class="st0" d="M142.5,45.5c-1.8-0.6-3.5-1.1-6.3-2c1.2,2.1,1.8,3.2,2.5,4.5c1.3-0.3,2.4-0.6,3.6-0.9
		C142.3,46.5,142.4,46,142.5,45.5z"/>
</g>
</svg>
