<?xml version="1.0" encoding="utf-8"?>
<!-- Generator: Adobe Illustrator 25.4.1, SVG Export Plug-In . SVG Version: 6.00 Build 0)  -->
<svg version="1.1" id="Layer_1" xmlns="http://www.w3.org/2000/svg" xmlns:xlink="http://www.w3.org/1999/xlink" x="0px" y="0px"
	 viewBox="0 0 652 247" style="enable-background:new 0 0 652 247;" xml:space="preserve">
<style type="text/css">
	.st0{fill:#FF0000;}
</style>
<g>
	<path class="st0" d="M175.9,214.7c-6.3-3-12.3-5.9-18.8-9.1c2.3-2,3.8-3.4,5.5-4.8c-1.5-0.4-3.1-1.4-3.6-1c-2.5,2.2-4.6,0.7-7,0
		c-1-0.3-3.1,0.8-3.5,1.7c-1.8,3.9-3.2,8-4.6,12.1c-0.4,1.1-0.9,2.9-0.3,3.6c2.2,2.7,5.3,4.7,4.3,8.9c3.2,1,6.4,1.9,9.7,2.9
		c2.2-2.5,7-2.2,9.8-0.1c1.9,1.4,4.7,1.9,7.2,2.2c0.4,0,1.4-3,1.8-4.6c0.7-2.9,1.3-5.9,1.9-8.9c0.1-0.3,0-0.7,0-1.4
		c-0.7,0.6-1.2,1.1-2,1.7C176.1,216.6,176,215.5,175.9,214.7z M304.4,193.3c0-2.1,0-3.2,0-3.6c-7.6,0.6-10.3,7.5-15.4,11.8
		c1.7,3.5,3.5,6.6,8.3,4.4c0.3-0.1,0.8,0.1,1.1,0.2c5.7,1.1,7.5-0.4,8-6.3c0.2-1.9,1.3-3.7,2.3-6.4c-0.1-0.2-0.9-1.3-1.6-2.4
		C306.3,191.6,305.7,192.2,304.4,193.3z M266.3,181.4c-3,0.3-6.3,0.7-9.3,1.1c0.2,1.2,0.9,3.4,0.4,3.7c-1.4,0.9-3.3,1.1-5,1.4
		c-0.9,0.2-2.1-0.1-2.8,0.3c-2.6,1.6-3.8,0.5-4.1-1.8c-1.4,1.3-2.6,2.5-4.4,4.1c1,1,2,2.1,3.1,3c1,0.9,2.1,1.7,2.7,2.1
		c1.8-0.6,3.4-1.5,4.9-1.5c2.5,0.1,4.9,1.1,7.4,1.3c1.2,0.1,2.8-0.4,3.8-1.1c1.4-1,2.4-2.4,3.7-3.6C263,186.4,263,186.4,266.3,181.4
		z M90.6,211.5c1,1.5,1.5,2.3,2.1,3.2c0.6-0.8,1.2-1.5,1.7-2.3c1.5-2.5,3-4.9,4.4-7.5c0.6-1.2,1-2.5,1.5-3.7
		c-0.4-0.2-0.7-0.3-1.1-0.5c-0.8,1.1-1.7,2.1-2.5,3.1c-1.1-0.6-2.1-1.1-3.1-1.6c3.8-2.7,4.1-3.7,2.4-8c-3.8,3.4-5.6,8.9-4,10.6
		c-2,3.2-4,6.3-6,9.4c0.2,0.1,0.4,0.3,0.7,0.4C88.1,213.7,89.4,212.6,90.6,211.5z M185.4,227.7c0.2,0.3,0.4,0.5,0.6,0.8
		c2.5-2,5.1-3.9,7.5-6c0.4-0.4-0.2-1.9-0.5-2.8c0-0.1-1.4-0.2-1.7,0.2C189.3,222.5,187.4,225.1,185.4,227.7z M198.9,221.7
		c-3.4,2.6-3.3,4.1,0.6,8.5C199.3,226.9,199.1,224.5,198.9,221.7z"/>
	<path class="st0" d="M547.3,60.4c1,1,1.8,1.8,2.6,2.6c-1,0.3-2.1,0.6-3.1,0.9c-0.2,0.3-0.3,0.7-0.5,1c1.4,0.6,2.8,1.2,4.3,1.9
		c1.1-2.8,8.3-1.8,4.9-7.6c-0.1-0.1,0.7-0.7,0.6-0.9c-0.3-0.9-0.9-2.5-1.3-2.4c-6,0.4-6.9-8.6-13.4-7.2c-0.3,0.1-1-0.9-1.2-1.4
		c-1.3-3.8-4.3-4.7-7.9-4.8c-0.5,0-1-0.1-1.7-0.2c0.5-0.9,0.9-1.7,1.3-2.3c-1.8-0.6-3.4-1.1-5-1.7c-2.8-1-5.1,0.9-5,3.9
		c0,0.9-0.5,1.9-1,2.8c-0.8,1.6-1.8,3.2-2.9,5c3.1,1,5.7,1.8,8.1,2.6c0.3-1.5,0.7-3.3,1.1-5.6c1.4,1.6,2.6,3,3.7,4.2
		c-2.4,4.9-5.6,8.5-12.1,7.7c0.2,0.6,0.5,1.3,0.7,1.9c3.7,0,7.5,0,11.4,0c-0.6-0.7-1.2-1.5-1.8-2.2c0.8-0.8,1.6-1.7,2.5-2.7
		c0.5,1.2,0.8,2.1,0.9,2.3c5.9,0,11.2,0,17,0C548.5,59.2,547.8,59.9,547.3,60.4z M532.5,85.9c3.4-1.3,5.7-3.9,8.7-2.7
		c3,1.1,6.5-3.3,8.8,0.8c2.5-1,5-2,7.7-3.1c3.6,2.2,7.3,0.8,11.1-1.3c-1.1-1.6-2.1-3-3.1-4.3c4.4,1.5,5,8.2,10.2,7.1
		c0.9-1.7,1.7-2.8,2.1-4.1c0.2-0.6-0.2-2.1-0.5-2.2c-3.4-0.7-5.1-3-4.8-6c-2.1-0.7-4-1.3-6.1-1.9c0.1,1,0.2,1.9,0.3,2.7
		c-1.1,0.1-2.3,0.3-3.6,0.5c0.2,2.2,0.3,4.2,0.4,6.4c-3.6-1.6-6.8-2.1-10.4,0.1c-2,1.2-4.9,1-8.1,1.5
		C542.5,82.5,534.8,78.4,532.5,85.9z M102.1,68.7c-0.1,0.4-0.1,0.8-0.2,1.1c2.9,2.3,5.5,5.3,9.8,1.9c0.6-0.5,2-0.1,3-0.1
		c0.9,0,1.8,0.3,2.6,0.2c1.1-0.2,2.2-0.7,3.2-1c-0.2,1.3-0.4,2.6-0.8,4.7c1.9-2,3.6-3.7,5.2-5.4c0.3,0.2,0.6,0.3,0.9,0.5
		c-0.4,1.2-0.8,2.3-1.2,3.7c2.6,0,2.8,5.2,6.8,2.6c2.2-1.4,4.9-2,7.4-3c-1-1.2-1.5-2-2.2-2.7c-0.9-0.8-2-1.5-3-2.3
		c-0.5,1.1-1,2.3-1.8,4c-2.4,0.7-3.8-0.6-3.5-4.1C119.4,68.7,110.8,68.7,102.1,68.7z M546.9,89.6c2,2.4,3.9,4.7,6,7.2
		c1.2-1.4,2.5-2.7,3.7-4.1c0.1,0.3,0.1,0.6,0.2,0.9c4.6-1.4,9.1-2.8,14.2-4.4c-1.8,2.6-6.8,3.1-4.7,7.7c1.2-0.9,2.7-1.5,3.4-2.6
		c2-3.1,3.2-7,8.5-6.2c-0.2-0.5-0.4-1.1-0.6-1.6c-3.4,0-6.8,0-10.5,0c-0.3,0.7-0.8,1.8-1.4,3.1C559.7,89.6,553.8,89.6,546.9,89.6z
		 M434.8,34.9c-1.2,1.8-2.8,3.2-2.6,4.1c1.9,7.5-0.8,12.6-7.7,15.5c0.6,4.4,0.6,4.4,2,4.3c0.9-2.3,1.6-4.1,2.4-5.9
		c1.2,1.9,1.9,3.2,2.7,4.4c0.5-0.1,1-0.2,1.5-0.3c-1.3-4.3,0.6-7,3.8-8.4C436.2,43.9,435.6,39.8,434.8,34.9z M207,73.9
		c2-1.5,4-3,5.9-4.3c-5.7,0-10.9,0-16.1,0c-2.6,0-5.5-0.5-6.3,3.2C196,72.8,201.7,70,207,73.9z M491.9,52.5c0.7,1.2,1.5,2.7,2.7,5
		c0.7-5.8,4.9-0.6,6.3-3.2C499.1,49.5,496.3,48.1,491.9,52.5z M508.2,70.6c8.1,5,8.1,5,9.8,2.5c-1.4-1.7-2.8-3.4-4.5-5.3
		C512,68.6,510.3,69.5,508.2,70.6z M509.5,61c-1.1-0.8-2.3-1.9-2.6-1.7c-1.2,0.9-2.2,2.2-3.3,3.4c0.3,0.3,0.6,0.6,0.9,0.9
		c4.2-0.8,8.5-1.6,13.5-2.5c-3.1-0.6-5.2-1-7.7-1.4C510.2,59.8,509.7,60.6,509.5,61z M149.2,74.8c0.2-0.4,0.4-0.9,0.6-1.3
		c-1.1-0.5-2.3-1.1-3.4-1.6c-0.6-0.3-1.2-0.4-1.8-0.7c-0.6-0.3-1.4-1.3-1.6-1.2c-1,0.5-1.9,1.2-2.5,2.1c-0.2,0.4,0.6,1.9,1.1,2
		C144.2,74.6,146.7,74.6,149.2,74.8z M492,35.1c-2.6,0.2-5.2-0.3-6.8,0.7c-1.1,0.7-0.8,3.4-1.3,6c2.8-1.7,5-3.1,8-4.9
		C491.8,36.9,491.9,35.9,492,35.1z M111.6,77c-3.5,1.9-6.3,3.4-9.2,4.9c0.1,0.2,0.2,0.4,0.2,0.6c3.3-0.3,6.7-0.6,10.3-0.9
		C112.6,80.4,112.2,78.9,111.6,77z M508.1,48.7c-1.3,0.5-2.5,1-3.6,1.4c0.2,1.5,0.4,2.8,0.5,4.1C509.2,54.2,509.6,53.6,508.1,48.7z
		 M223.2,73.1c-1-1.8-1.6-2.9-2.2-4.1c-0.5,0.6-0.9,1.2-0.8,1c-2.4,0-4.2,0-5.9,0c0,0.4-0.1,0.8-0.1,1.3
		C216.9,71.8,219.8,72.4,223.2,73.1z M578.1,83.3c1.6,0,2.9,0,4.3,0c0.1-0.3,0.4-1.2,0.7-2c-1.4-0.7-2.7-1.4-4.2-2.3
		C578.6,80.8,578.4,82.2,578.1,83.3z M509.5,45.5c0.1,0.5,0.2,1,0.3,1.5c1.1,0.3,2.3,0.6,3.6,0.9c0.7-1.3,1.3-2.4,2.5-4.5
		C513,44.4,511.2,44.9,509.5,45.5z"/>
	<path class="st0" d="M519.7,83.6c-0.1,0.7-0.3,1.5-0.3,2.2c0.1,1.1,0.4,2.3,0.5,3.4c1.1-0.7,2.7-1.2,3.2-2.2
		c0.9-1.6,1.1-3.6,1.6-5.5c0.5,0.1,1,0.3,1.4,0.4c-0.3,1.1-0.6,2.2-1.2,4.2c3,0.9,6.1,1.8,9.3,2.7c-0.2,0.8-0.5,2-1,3.9
		c3.9-1.4,6.9-2.5,10.8-3.9c-0.8,2.4-1.3,3.8-1.7,5.1c-2.4,0.6-4.7,1.2-6.8,1.7c-2.9-3-3.6,0.7-4.8,1.9c-1.7-1.4-3.3-2.7-4.9-4
		c0-0.6,0.5-2.3-0.1-2.8c-0.7-0.7-2.3-0.6-3.5-0.4c-1.7,0.2-3.3,0.8-4.5,1.1c-0.6,1.7-1.1,3.3-1.5,4.4c-4.1-0.7-7.6-1.4-12.4-2.2
		c1.5,1.3,2.1,1.9,2.7,2.4c-3.1,1.5-3.1,1.5-4.4-2.8c-0.3,0-0.7,0.1-0.7,0.1c-0.2,3.9-2.9,4.6-6.1,5.2c-1.3,0.2-2.3,1.5-4.2,2.8
		c4.8-0.7,8.5-1.3,12.5-2c0.7,1.3,1.5,2.7,2.9,5.2c0.6-2,0.8-2.9,1.2-4c1,0.2,2.1,0.4,2.9,0.5c1-1.1,1.9-2.1,3.2-3.4
		c0.8,2.3,0.3,5.1,3.2,2.6c0.6-0.5,2,0,3-0.1c1-0.1,2.1-0.4,3.6-0.7c-0.1,1.1-0.2,2.8-0.4,5.3c1.5-1.1,2.6-1.9,3.7-2.6
		c0.8-0.5,1.8-1.5,2.6-1.4c3.1,0.2,6.2,0.7,9.3,1c1.3,0.1,2.7-0.2,4.1-0.4c2.6-0.4,5.2-1.2,7.8-1.4c3.2-0.3,6.5,0,9.7-0.3
		c1.3-0.1,2.6-1.1,4.3-1.9c0.7,1.5,1.9,3.6,5.4,3.9c2.1,0.2,4,2.9,5.3,4c1.8,2,3.2,3.5,4.8,5.3c1.5-2.9,3-3.4,6.1-2.1
		c5.9,2.6,9.9-0.6,10.1-8c-2.7,0.5-5.1,1-8.1,1.7c0,0.1-0.5-0.8-1-1.8c2.9-1.5,6.1-3.1,10.3-5.2c-3.3-1.5-6-2.8-8.5-3.9
		c3.4-3.6,4.2-3.6,6.8,0.9c4.8-2.7,6.1,3,9.5,3.9c1.3,0.4,2.6,0.9,4.5,1.5c-1.4,0.5-2.8,1.1-4.2,1.5c-1.6,0.5-3.5,0.4-5,1.2
		c-0.8,0.5-1,2.1-1.3,3.3c-0.1,0.3,0.8,0.8,1.2,1.2c0.6-0.7,1.2-1.5,1.8-2.2c0.3,0.1,0.5,0.2,0.8,0.3c-0.9,2.4-1.8,4.7-2.7,7.1
		c0.2,0.2,0.3,0.4,0.5,0.7c1.3-1.1,2.8-2.1,3.7-3.4c1.3-2.1,2.7-3.7,5.4-3.1c3.7,0.9,6-2.2,9-2.8c2.1-0.4,4.8,0.4,6.6,1.7
		c1.2,0.9,1.3,3.3,1.9,5.1c0,0.1-0.6,0.3-1.2,0.6c-0.7-1.4-1.3-2.7-1.9-3.9c-1.2,1.7-2.2,3.2-3.4,4.9c2.3,1.2,4.6,2.3,6.9,3.5
		c-1.9,3.2-3.6,6.1-5.3,9c0.4,0.4,0.7,0.8,1.1,1.2c2.8-0.6,5.6-1.2,8.4-1.7c1.1-0.2,2.2,0,4.1,0c0.3-0.5,1.1-1.9,2-3.3
		c-1-0.6-1.9-1.2-2.8-1.8c5.7,1.2,12-0.4,16.6,4.2c0,1.1,0,2.1,0,3.2c-3.6,1.6-7.1,3.3-10.7,4.7c-2.9,1.2-7,1.3-8.6,3.4
		c-3,3.8-7,3.8-10.8,4.8c-1.7,0.5-3.5,0.3-6,0.4c-1.3,2.8-4,4.2-8.6,4.4c-4.7,0.2-9.4,2.8-14,4.7c-7.1,2.9-14,5.9-21,9
		c-0.6,0.3-1.3,1-1.5,1.6c-0.5,2-1,3.6-3.7,2.9c-0.5-0.1-1.2,1.3-2,1.7c-0.7,0.3-1.6,0.2-3,0.4c1.5-2.1,2.5-3.3,3.4-4.6
		c-2.6-2.5-4-1.5-4.7,1.3c-0.7-0.8-1.1-1.3-1.9-2.3c-0.5,2-0.9,3.6-1.4,5.2c1.7,1.6,3.5,3.2,5.2,4.9c-2.9,3.8-3.9-0.7-5.8-1.7
		c-0.3,1.5-0.6,2.8-1.1,4.6c-1.4-3.8-2.6-3.6-5.6-1.6c-5.7,3.6-10.3,8.9-17.2,10.6c-1,0.2-2.3,0.7-2.7,1.5c-3.4,5.6-10,5.5-14.8,8.5
		c-0.9,0.6-2,0.9-2.6,1.7c-4.4,5.6-10.5,6.9-17.3,7.3c0.4,0.7,0.9,1.5,1.5,2.4c-2.2,0.1-4,0.2-5.8,0.3c0.4,0.8,0.8,1.6,1.2,2.4
		c-3.4,4.9-6.3,6.7-10.8,6.3c1.3-0.8,2.5-1.1,2.9-1.9c0.3-0.7-0.3-1.9-0.6-3.4c-1.7,1.8-3.1,3-4.1,4.5c-2.4,3.3-4.5,6.9-7.1,10
		c-1.2,1.4-3.3,2.1-4.6,2.9c-1.9,2.3-3.4,4.6-5.4,6.2c-4.1,3.4-8.4,6.5-12.9,9.9c-1.6-1.2-3.3-2.6-6-4.7c-0.5,5.4-0.9,9.8-1.3,14.7
		c-1.5-2.9-2.6-5.1-3.8-7.4c-0.1-0.1-0.2-0.3-0.1-0.4c0.9-2.3,2.3-4.5,2.5-6.8c0.1-1.9-1.3-3.9-2.1-5.9c0.3-0.1,0.6-0.3,0.9-0.4
		c-1.6-1.3-3.2-2.6-5-4.2c0.9-0.5,1.8-1,2.4-1.3c-0.6-2.7-1.7-5.3-1.7-7.9c-0.1-7.9-1.8-15.8,0.7-23.7c0.9-2.7,0.4-6.2-0.4-9.1
		c-0.4-1.5-2.8-2.4-4.1-3.4c1.8-0.2,3.6-4,7.6-1.4c-0.6-1.4-1.2-2.9-1.9-4.7c-1.2,1.4-2,2.2-3.4,3.8c-0.6-3.1-1-5.4-1.4-7.8
		c-0.4-0.2-0.7-0.3-1.1-0.5c-1.9,4.8-5.7,4-9.2,3.8c-5.8-0.3-11.3,0.7-16.7,2.7c-1.5,0.5-3.2,0.7-4.7,0.6
		c-8.7-0.8-17.4-2.9-25.9-2.2c-6.1,0.5-11.7-0.9-17.5-1.4c-1.4-0.1-3,0.5-4.4,0.8c-1.8,0.4-3.6,1-5.4,1c-9.7-0.1-19.5-0.1-29.2-0.7
		c-3.4-0.2-6.8-2-10.5-2.3c0.5,0.5,1,0.9,1.5,1.4c-8.4,3.9-17,5.1-26.4,4c-9.2-1.1-18.5-0.8-28.8-1.2c-4.3,4.1-6.6,4.5-8.4,0.2
		c-1.2,0.5-2.4,1-3.7,1.5c-0.5-3.4-3.4-3-4.6-2c-2.1,1.8-4.2,1.2-6.2,1.3c-5.2,0.4-10.4,0.3-15.5,0.7c-3.9,0.3-7.7,1.4-11.5,1.7
		c-2.6,0.2-5.2-0.3-7.9-0.5c-0.3,0.3-1.4,1.8-1.7,1.7c-1.9-0.9-3.5-2.1-5.3-3.2c-0.3-0.7-0.6-1.5-0.9-2.2c-1,1.8-1.9,3.6-2.9,5.4
		c-0.5-0.2-1-0.4-1.4-0.5c0.3-1.7,0.5-3.5,0.8-5.7c-0.6-0.2-1.7-0.5-3-0.9c1.4,4.8-2.3,5.2-5.2,6.5c0.7,1.4,1.3,2.6,1.9,3.9
		c-7.6,3.7-10.7-4.6-17-6.4c1.6,4.4-0.7,5-3.6,5.1c-2.8,0.1-5.8-0.1-8.3,0.8c-3.1,1.1-6.1,3-8.7,5c-1,0.7-0.9,2.8-1.3,4.3
		c1.3,0.3,2.6,0.6,3.8,0.8c-0.6,1.8-1.9,4-1.6,5.9c0.3,1.7,2.3,3.1,4.3,5.6c0.3,4.5-3.2,8.2-7.1,12.4c-0.6-1.6-1-2.7-1.4-3.8
		c-1.4,0.3-2.8,0.6-4.9,1.1c2.5-3.9,4.5-7.1,6.6-10.4c-0.1-0.4-0.3-0.8-0.4-1.1c-1.6,0.5-3.6,0.6-4.8,1.5c-1.7,1.4-2.8,3.4-4.2,5.2
		c0.3,0.3,0.7,0.6,1,0.9c-1.2,0.4-2.3,0.8-4.1,1.4c0.3-1.2,0.3-2.2,0.8-2.5c4.4-3.2,3.9-8.7,6.2-12.9c1-1.9,0.8-4.5,0.9-6.8
		c0.1-2.9,0-5.7,0-8.9c-3.3-1.2-6.3-1.6-8.9,2.1c-1.4,2.1-3.7,3.6-5.6,5.3c-0.3-0.2-0.6-0.4-0.9-0.7c0.4-0.9,0.9-1.8,1.3-2.8
		c-5.2,0-10.1,0-15.1,0c0-0.3,0-0.6,0-0.9c-1.2,1-2.5,2-3.7,2.9c0-0.3,0-0.7,0-1c-1.4-0.1-2.8-0.2-4.1-0.3c-0.9-0.1-1.8-0.1-2.7-0.2
		c-1,0-2.1-0.4-2.9,0c-2.4,1.1-4.4,1.2-6.6-0.8c-0.7-0.6-3.8-0.1-3.8,0.3c-0.6,3.3-3.6,3.4-5.5,3.6c-5.5,0.5-11.1,0.2-16.6,0.4
		c-1.3,0-3.1,0.6-3.7,1.5c-0.6,0.9-0.6,3.2,0.1,3.9c1.9,1.9,4.3,3.2,7,5.1c0,0.3,0,1.5,0,3.2c-1.9,0.6-4.3,1.3-6.8,2
		c-1.1-2.2,1.7-6.2-2.6-6.9c-1.5,2.3-2.7,4.6-4.4,6.4c-0.8,0.8-2.6,0.6-4.4,0.9c2.1-4.9,3.9-9.1,5.7-13.3c-0.2-0.3-0.4-0.6-0.7-0.9
		c-1.6,1.1-3.4,2-4.7,3.4c-2.9,3.2-5.9,6-11.3,4.9c2.7-2.3,5.4-4.6,8.6-7.4c-3.6-1.2-6.1-2.4-8.7-2.7c-2.2-0.3-4.6,0.4-6.9,0.5
		c-4.1,0.2-8.3,0.4-12.4,0.5c-2.2,0-2.2-0.1-3-2.8c4-0.3,8-0.5,11.9-0.8c3.5-0.3,7-0.7,10.5-1c0-0.7,0.1-1.4,0.1-2.1
		c-1.3-0.3-2.7-0.9-4-0.9c-5.2-0.1-10.4-0.2-15.6-0.1c-2.2,0-4.4,0.3-6.7,0.5c0.4,2.2,0.8,4,1.2,5.8c-0.3,0.2-0.6,0.4-0.9,0.6
		c-0.7-0.6-1.9-1-2-1.7c-1.3-5.3-3.7-10.1-1.9-16.2c1.3-4.6,0.3-9.9-0.2-14.9c-0.1-1.4-1.8-2.6-3-4.1c0.7-1,1.6-2.4,2.5-3.8
		c0.5-0.3,1-0.6,1.4-0.9c-1.6-1.1-3.2-2.2-4.9-3.3c0-0.3,0-0.5,0-0.8c3-0.8,4.4-3.4,4.7-5.8c0.9-7.1,1.3-14.2,1.5-21.4
		c0.1-1.8-1.3-3.6-2.2-5.8c0.3-0.2,1.3-0.9,2.7-2c-0.9-1.7-1.8-3.4-2.7-5.1c-0.3,0.1-0.6,0.3-0.9,0.4c0.1-0.5-0.1-1.2,0.2-1.5
		C9.4,92.5,8,84.4,8.7,76.9c0.4-4.2,0.7-8.3,2.1-12.5c0.7,4.1,1.4,8.2,2.1,12.3c0.5,0,1,0,1.5,0c1-5.5-1.8-11.8,3-17.9
		c0.4,2.4,0.7,3.7,0.8,5c0.1,3.2,0.3,6.4,0,9.6c-0.3,3.5,0.8,5.6,4.3,5.8c0.7,3.8,1.4,7.4,2.1,11.1c0.5,0,1.1-0.1,1.6-0.1
		c2.4-5.3-2.7-10.7-0.9-16c5,6.2,6.5,6.3,10.4,0.7c-2.8-0.4-5.6-0.8-8.7-1.2c0.1-2.4,0.6-5.1-3.3-3.7c-0.8,0.3-2.4-1.9-3.9-3.2
		c7.6-0.2,8.3,0.1,9.8,4c2.2-0.8,4.4-1.7,6.9-2.6c0.2,1.1,0.4,2,0.4,2.3c20.9-0.7,41.3-4.5,62.1-1.8c0.1,1.6,0.3,2.9,0.4,4.8
		c-3.4,0.6-6.7,1.2-10.1,1.8c-0.2-0.3-0.3-0.6-0.5-0.9c0.4-0.6,0.9-1.3,1.5-2.2c-3.9-1.6-7.7,4.2-11.5-0.4c-1,1.5-1.8,2.7-2.6,3.9
		c2,1.5,4,3,6.2,4.6c-2,0.9-3.4,1.5-4.9,2.2c0.1,0.4,0.2,0.7,0.3,1.1c2.2-0.2,4.5-0.4,7.2-0.7c0.7,2.4,2.9,1.9,5.6,0.8
		c1.8-0.7,3.8-0.8,5.7-1.3c1-0.3,1.9-0.8,3.4-1.5c0.1,0.7,0.2,2.1,0.3,4c1,0.2,2.5,0.5,3.6,0.8c-0.8,1.1-1.6,2.4-2.5,3.7
		c1.6,0.9,3.2,1.9,5.7,3.3c-0.4-2.1-0.6-3.2-0.9-4.9c3.9,1.5,7.5,2.8,11.6,4.3c0.1-0.1,0.8-0.9,1.7-1.9c0.8,0.8,1.5,1.6,2.2,2.4
		c4.1-2.8,1.9-6.1,0.7-9c-0.2-0.5-2.1-0.3-4.1-0.6c0.3-0.5,1.2-2.1,1.5-2c1.9,0.6,3.7,1.6,5.6,2.3c1.9,0.7,3.8,1.1,6.5,1.8
		c-0.1-0.5,0,0.2,0.2,1.2c4.1-2.5,3.7,1.7,4.9,3.3c2-0.6,3.8-1.1,5.7-1.7c-1.4-4.7,4.4-2.2,5.5-5c1.2,1.5,2,2.6,3.1,4
		c0.4-3.4,0.8-6.3,1.2-9.4c1.2,0.7,2.2,1.2,4,2.3c-0.2-2.8-1.3-5.7-0.3-7c1.1-1.5,4.1-1.5,5.7-2.1c1.3,0.5,2.9,1.4,3.1,1.2
		c3.2-4.5,6.7-1.5,10.4-0.7c0.4-0.6,1-1.4,1.4-2c1.8,1,3.4,2,5.1,2.5c0.3,0.1,1.3-2.1,2.1-3.5c1.4,0.2,3.3,0.3,5.1,0.9
		c0.3,0.1,0.4,2.5-0.1,3c-1.6,1.5-3.5,2.6-5.5,4c-0.8-1-1.7-2.1-2.5-3.1c-0.1,0.4-0.2,0.8-0.3,1.2c-2.1-0.2-4.2-0.5-6.3-0.6
		c-4.6,0-9.2,0-13.8,0.4c-1,0.1-2.1,1.6-2.6,2.7c-0.2,0.5,0.9,1.7,1.6,2.4c3.5,3.2,7.2,0.6,11.1-0.2c-0.1,1-0.2,1.8-0.3,3.1
		c5.4-1.6,10.7-4.8,16.7-0.7c0.7-0.4,2.1-1,3.6-1.8c0.6,2.4,1.5,2.1,3.5,1c3.2-1.7,6.7-3.5,10.5-1.1c0.5,0.3,1.3,0.4,1.9,0.3
		c4.6-0.4,9-0.3,11.3,3.7c2.4-1.3,4.3-2.7,6.4-3.2c0.6-0.1,1.8,2.6,3.1,4.5c0.5-0.2,1.6-0.7,3-1.4c-1.3-1.5-2.4-2.7-3.7-4.3
		c4.2,0.4,7.9,0.8,11.9,1.2c0.5-0.9,1.1-1.8,1.7-2.9c0.6,1.4,1.1,2.7,1.4,3.3c1.5-0.8,2.9-2.2,4.2-2.1c3.4,0.2,7.4-1.3,9.7,2.5
		c2.9-0.8,5.7-1.5,7.8-2.1c1.2-2.4,2.2-4.4,3.3-6.4c0.6,0.2,1.1,0.3,1.7,0.5c-0.3,1.9-0.7,3.8-1,5.8c0.9,0,1.8,0.1,2.7,0
		c3.9-0.4,7.7-1.8,11.7,0c1.4,0.7,3.6,0.6,5.1,0.1c6.5-2.1,12.7-0.6,19,1.1c0.2-2.1,0.2-2.1-5.9-6.1c1.5,0,3,0,4.6,0
		c0.4-0.9,0.9-1.9,1.8-3.9c1.2,1.7,2.1,2.9,3.1,4.3c3.9-0.6,1.9-4.3,3.3-7.5c2.2,2.4,4.5,4.2,5.7,6.5c2,4.2,5.6,2.9,8.7,3.3
		c3.7,0.5,7.4,0.7,11.2,1c1.5,0.1,2.9,0,4.4-0.1c0.6-0.1,1.2-0.8,1.8-0.7c5.3,1,6.5-4.4,10.2-6.3c0.1,1.1,3.4,1.2,0.8,3.8
		c-0.6,0.6,2.2,3.1,4.7,1c-0.3-0.8-0.6-1.8-1-2.7c0.4-0.3,0.6-0.6,0.8-0.6c5.6-0.5,11.1-1.3,16.7-1.4c3.2,0,6.4,0.8,9.5,1.8
		c0.9,0.3,1.2,2.2,2.5,3.4c-0.2-2.1-0.3-4.2-0.6-7.4c2.6,4.6,7.4,4.9,10.4,2.1c1.4-1.2,3.6-1.5,5.6-2.2c0.9,2.4-1.2,6.7,4.1,4.4
		c1.1-0.5,3.8,2.2,6.4-1.1c-2,0.2-3.3,0.3-4.6,0.4c-0.6-3.9,2.9-5.5,5.6-2.3c0.9,1,1.2,2.5,2.3,4.9c-2.6,0.6-5.3,1.3-7.9,1.9
		c3.8,5.9,5.5,7.2,9.4-3.7c4.7,0.2,9.6,0.9,14.3,0.5c2.4-0.2,4.8-2,7.1-3.3c1.5-0.9,2.8-2.5,4.5,0.4c-1.4,0-2.3,0-3.4,0
		c1.8,3.8,4.3,4.2,6.7,1.2c0.3-0.4,0.5-1.1,1-1.3c5.9-2.6,5.1-7.6,4.6-12.6c-0.3-3,3.6-9.2,6.8-10.5c-1-2.7,0.4-6.7-4.9-6.8
		c-1.3,0-2.4-2.6-3.7-3.9c-2-1.9-4.1-3.6-6.2-5.4c-0.3,0.3-0.7,0.7-1,1c0.7,1,1.4,1.9,2.6,3.7c-5.8,0.1-3.9-6.2-8.3-7.4
		c0.4,5.5,0.7,10.7,1,15.9c-0.3,0.1-0.5,0.1-0.8,0.2c-1-4.4-2-8.8-3-13.3c-5.1-0.7-2-9.5-8.8-9c0.4-0.2,0.9-0.6,1.2-0.4
		c5.8,2.5,12.2,3.6,17.4,7.6c3,2.3,5.9,4.6,9.1,6.6c1,0.6,2.7,0.5,4,0.3c2.4-0.5,4.8-1.3,6.3-1.7c-1.4-2.3-3.2-4.9-4.5-7.8
		c-0.7-1.5-1.4-4.4-0.7-4.9c1.4-1.1,3.7-0.9,6-1.4c-1-1.5-2.1-3.2-3.2-4.8c1.1-1.2,2.2-2.3,3.5-3.7c0.5,0.2,1.4,0.5,2.5,0.9
		c2.2-5.4-0.4-9.1-3.7-12.6c2.2-0.3,4.1-0.6,4.9-0.7c7.1,5.7,13.8,11.1,20.6,16.6c-0.7,0.2-1.3,0.5-2.1,0.8
		c4.1,1.3,8.1,2.6,12.1,3.9c-0.2,0.7-0.3,1.5-0.5,2.2c-1.2-0.2-2.4-0.5-3.6-0.7c-1.3-0.2-3-0.9-3.9-0.4c-2.5,1.5-4.4,3.3-7.9,2.1
		c-1.4-0.5-3.6,1.3-5.5,1.6c-1.6,0.3-3.7,0.2-4.7,1.1c-0.7,0.7-3.7,3.1,0.2,4.3c-1.3,1.9-7.1-0.7-4.6,5.2c-1.3,0.5-2.6,1-4,1.5
		c0,0.2,0,0.4,0.1,0.6c5.4-0.8,10.9-1.7,16.3-2.5c1.1,7.5,2.2,8.6,6.8,7.5c0.6-0.1,0.8-1.4,1.3-1.9c1.2-1,2.4-2,3.8-2.5
		c2.6-0.9,5.1-1.6,2.6-5.5c2.7,0,4.7,0,6.8,0c0,0-0.1-0.1-0.1-0.1c0.4,0.5,0.7,1.3,1.2,1.5c3.3,1.2,6.7,2.2,10.5,3.5
		c1.1-1.1,2.7-2.7,4.3-4.3l-0.1,0.1c3,3.6,3,3.6-0.9,5.3c-4.7,2-9.3,4-14,6c-2.5,1.1-6.1-1.9-7.8,2c0,0.1-0.3,0.1-0.4,0
		c-6.2-3.9-8.7,4.8-14.2,3.3c0,0.4,0,0.9,0.1,1.3c2.8,0.4,5.5,0.8,9.3,1.4c-1.4,1.9-2.3,3.3-3.7,5.3c0.7,2.2,3.2,4.8,8.3,3.1
		c0.1,1.5,0.1,2.6,0.2,3.3c-2.1,0-4,0-5.6,0c-0.7-0.7-1.4-2-2.3-2.1c-4.2-0.3-3.5,3.7-5.1,5.6c-2-3.3-0.7-6.7,3.7-8.1
		c-0.4-6.6-6.6-1.5-9.5-5.3c2-0.3,3.4-0.5,5.3-0.8c-1.1-0.9-1.9-2-2.9-2.6c-1.7-0.8-3.6-2.4-4.7,1c-0.4,1.2-2,2.2-3.3,2.8
		c-4.5,2.1-5.3,6.8-6.9,10.6c-0.7,1.6,1,4.2,1.5,6.3c0.4-0.1,0.9-0.2,1.3-0.2c0.2-1.4,0.4-2.8,0.6-4.2c0.2,0,0.4-0.1,0.6-0.1
		c0.4,1.5,0.8,3,1.2,4.9c1.6,0.1,3.2,0.3,5.2,0.5c-1.8,3.1,0,3.9,2.5,4c4,0.1,8,0.1,11.9,0.1c1.5,0,3-0.5,4.3-0.2
		c0.8,0.1,1.6,1.2,1.9,2c0.1,0.4-0.9,1.3-1.5,1.8c-1.1,0.8-2.2,1.4-3.4,2.1c0.1,0.4,0.2,0.8,0.3,1.2c1.4,0.4,2.9,0.8,4.6,1.2
		c0,0.8-0.1,1.9-0.2,3c0.2,0.1,0.4,0.1,0.7,0.2c0.7-3.4,1.5-6.9,2.2-10.3c0.6,0.1,1.3,0.2,1.9,0.2c0,3.4,0,6.9,0,10.3
		c2.1-1.7,6-2.2,3.5-6.1c-0.4-0.6,2.7-4.3,4.9-5.4c2.3-1.2,5.3-1.2,8-1.1c1.1,0,2.1,1.5,2.9,2.7c-7.9,0.4-7.9,0.4-7.5,5.7
		c3,1.6,5.7,2.4,7.6-1.5L519.7,83.6z M204.6,95.3c1.3,1,2.5,2.5,3.9,2.7c1,0.1,2.2-1.7,3.3-2.7c-0.8-0.6-1.8-1.8-2.5-1.7
		C207.6,93.9,206.1,94.8,204.6,95.3c-0.8-0.6-1.5-1.8-2.2-1.8c-2.2,0-4.4,0.4-6.7,0.7c0.4,1.5,0.7,2.5,0.8,3
		C199.4,96.6,202,96,204.6,95.3z M492,158.2c0-1.7,0-3.4,0-5.1c-0.5,0-1-0.1-1.5-0.1c-0.6,2-1.1,4.1-1.9,6.9
		c1.8-0.9,2.7-1.3,3.6-1.8c0.4,0.6,0.6,1.6,1.1,1.6c3.1,0.6,3.5,1.4,1.9,4.2c-0.4,0.8-0.5,1.8-0.8,2.6c0.2,0.1,0.5,0.3,0.7,0.4
		c2-1.5,3.9-3.1,5.9-4.6c0-0.4,0-0.9-0.1-1.3C498,160.1,495,159.1,492,158.2z M490.1,132.2c-1.1-1.9-2-3.9-3.2-5.8
		c-0.6-0.9-1.4-1.7-2.2-2.5c-1-1-2.1-1.9-3.1-2.8c-4.1,0.9-8.7,2-13.8,3.1c0,0.3,0,2.1,0.3,2.1c2.5,0.3,5.1,0.4,7.9,0.6
		c-0.5,0.7-1,1.6-1.6,2.6c5.9,2,8.1,1.3,10.9-2.9c0.8,1.8,1.7,3.7,2.5,5.5c-4.8-2.2-3,4-6,4.1c-0.8-0.5-1.9-1.3-3.1-2
		c-1.1,1.5-2.2,3-2.7,3.6c-2.6-3-4.6-5.4-6.3-7.5c-3.9,2.7-7.4,5-11.8,8c1.8-0.1,2.8-0.2,3.7-0.2c2.1,0.1,4.2,0,6.2,0.5
		c0.5,0.1,0.5,2.1,0.8,3.3c1.7,0.4,3.5,1,5.3,1.1c2.2,0.2,4.7,0.6,6.7,0c2.3-0.8,4.2-2.8,6.4-3.9C490,137.5,491.3,135.4,490.1,132.2
		c0.6,0.9,1.3,2,2.4,3.6c1-1.4,2.4-2.9,2.2-3.3c-0.9-1.3-2.4-2.1-3.8-3.3C490.5,130.5,490.3,131.3,490.1,132.2z M133,133
		c0.1-0.4,0.1-0.8,0.2-1.2c4.4,0.5,8.7,1.2,13.1,1.3c4.2,0.1,8.3-0.5,13-0.9c0.6-0.8,1.7-2.1,2.6-3.3c2,1.5,3.7,2.8,6.2,4.6
		c-2.7,0.5-4.1,0.8-5.5,1.1c0,0.3,0.1,0.6,0.1,0.9c3.9,0,7.9,0,11.9,0c0.3-2.6,0.1-2.8-4.3-3.6c4.5-1.8,8.2-1.9,10.9,3.3
		c0.2-1.9-0.5-3.3-0.2-4.5c0.3-1.4,1.6-2.5,2.2-3.4c2,1.1,3.6,1.9,5.1,2.7c0.9-1.6,1.6-2.8,2.4-4.2c1.6,1.1,2.8,1.9,3.8,2.7
		c2.4-2.1,4.6-4.1,6.8-6.1c-0.3-0.4-0.6-0.8-0.8-1.2c-6.4,0.7-12.8,1.5-19.2,2.2c1.1-2.4,2-4.5,3.1-7c0.5,0,1.8,0,2.9,0
		c0.2,0.8,0.4,1.5,0.5,2.1c6.7-0.2,13.3,3.1,20.2-0.9c-1.4-1.2-2.5-2.1-3.8-3.2c-0.4,1.6-0.6,2.5-1,4c-2.5-6-2.1-7.5,2-10.6
		c-0.7-0.9-1.4-1.7-2.3-2.9c1.9-0.2,3-0.4,4.1-0.5c-0.5-1.4-0.9-2.8-1.6-4.9c-1.5,1.3-2.5,2.2-3,2.6c-1.9,0-3.5,0-5.1,0
		c0.1,0.7,0.1,1.5,0.3,3.3c-3.7-4.2-6.4-0.9-9.8,0.3c0.3,1.7,0.6,3.4,0.9,4.9c3.8-0.2,6.9-0.5,11-0.7c-0.9,2.7-1.3,5.2-2.5,7.3
		c-0.4,0.7-3,0.6-4.3,0c-1.3-0.6-2.1-2.2-3.1-3.3c-3.5-1.3-7.2-0.7-10.7,1.8c-3.3,2.3-5.3,1.7-5.9-1.7c-1.9,2-5.9,1.5-5.8,5.6
		c2.4,0.7,4.6,1.4,6.9,2c0,0.5-0.1,0.9-0.1,1.4c-2.9,0.3-5.9,0.8-8.8,0.8c-0.5,0-1.4-2.1-1.3-3.2c0.2-1.8,1.2-3.5,1.6-5.3
		c0.1-0.6-0.5-1.4-1.1-2.9c-1,2.6-1.4,3.6-1.8,4.6c-0.2-0.3-0.3-0.6-0.5-0.9c-1.8,0.6-3.7,1.1-5.5,1.7c0,0.4,0.1,0.8,0.1,1.3
		c1.7,1,3.4,2,5.1,3c0,0.5-0.1,0.9-0.1,1.4c-2.8,0.1-5.6,0.1-8.4,0.4c-2.8,0.2-5.6-0.1-8.4,1.4c-1.3,0.7-3.6-0.1-5.2-0.7
		c-0.4-0.2-0.4-2.4,0-3.6c0.9-2.8,1.5-5.9,5.1-6.6c3,3.9-3.3,3.8-2.9,7.7c4.5-3.1,11.1,1.6,13.8-6.3c1.1-3.2,0.4-3.8-2-4.3
		c-2.3-0.6-4.7-0.8-7.1-1.3c3.5-1.4,7-2.1,10.6-2.8c0.3-0.1,0.8,0.5,1.2,0.9c1,1,1.8,2.7,2.9,2.9c2.4,0.6,5,0.5,7.5,0.6
		c0.1-0.4,0.1-0.8,0.2-1.1c-1.9-0.4-3.7-0.8-6.5-1.4c1-1.8,1.9-3.2,2.7-4.7c-0.9,0-2.4-0.4-3.8-0.2c-5.6,0.8-11.2,1.9-16.8,2.4
		c-2.4,0.2-4.9-0.5-6.4-0.6c-1.5,2.3-2.5,5.5-3.9,5.6c-4.4,0.4-7.5,2.2-9.7,7.2c0.3-6.2,3-10.1,7.4-11.3c-1.7-0.8-3-1.5-4.8-2.3
		c1.7-0.7,2.8-1.1,4.9-1.9c-1.8-0.6-2.6-0.9-2.7-0.9c0.7-1.8,1.2-3.3,1.9-5.1c2.5,4.7,6.6,1,10.9,1.2c-0.3-1.6-0.6-3.2-0.9-4.9
		c-1.5,0.4-3.1,0.7-3.8,0.9c-3.7-0.4-6.8-0.8-9.8-1.1c-0.2,0-0.6,0.2-0.7,0.3c-1.4,4.4-4.3,2.7-7.1,1.9c-2.6-0.7-5.6-2.2-7.7-1.4
		c-3.1,1.2-7.5,0.2-9.4,4.3c-0.1,0.2-0.7,0.3-0.8,0.3c0.5,1.6,1,3.1,1.6,5c-2-0.5-3.2-0.9-4.4-1.2c-1.4,2.6-3.7,4.9,0.6,7.3
		c2-2.7,3.9-5.2,5.7-7.8c1.3-1.8,5.2-2.1,7.2-0.6c-2.3,0.6-4.6,1.3-7,1.9c0.1,0.3,0.2,0.7,0.3,1c1.4,0,3-0.3,4.3,0.1
		c2.9,0.9,4.8-0.1,5.7-2.7c0.9-2.7,2.3-2.1,4-1.5c-0.8,1.6-1.4,2.9-2.4,4.9c2.6-0.6,4.4-1,6.5-1.5c-0.9,1.1-1.5,2-2.1,2.7
		c1.2,0.8,2.2,1.4,3.2,2.1c-0.1,0.4-0.2,0.8-0.3,1.2c-2.7-0.2-5.3-0.4-8.2-0.5c-0.5-3.2-2.1-3.7-6.5-1.6c1,0.9,2.1,1.9,3.1,2.8
		c-0.2,0.2-0.4,0.5-0.6,0.7c-1.6-0.8-3.2-1.5-4.8-2.3c-0.2,0.2-0.4,0.4-0.7,0.5c0.9,1.6,1.8,3.1,2.2,3.9c4.4,0,8,0,11.5,0
		c0,0.4,0.1,0.7,0.1,1.1c-1.3,0.4-2.7,0.8-4.1,1.2c0.1,0.8,0.3,1.6,0.5,2.6c-2.3,0.4-4.4,0.8-5.3,0.9c-1.5-1.4-2.2-2.6-3.1-3
		c-2.1-0.7-4.6-0.8-6.6-1.6c-3.4-1.4-5.6-0.5-6.8,3.2c1.2,0.8,2.3,1.7,3.2,2.4c-2.1,1.2-3.9,2.2-5.8,3.2c3.3,1.2,5.8,2.2,8.4,3
		c0.4,0.2,1.2,0.1,1.5-0.1c1.5-1.5,2.8-3.1,4.2-4.6c0.7,1.3,1.4,2.6,1.7,3.2c5.4-0.3,10.2-0.5,15.3-0.7c-0.6-1.1-1-1.7-1.6-2.9
		c2.5-0.2,4.6-0.3,6.6-0.5c0.2,0.5,0.4,1,0.7,1.5c-4.1,1.4-7,3.6-6.7,8.3c1.4-0.3,2.6-0.6,4.6-1.1c-0.2,2.5-0.3,4.5-0.5,6.5
		c0.4,0,0.8-0.1,1.2-0.1c0.6-1.1,1.1-2.3,2.3-4.8c1.8,2.4,3.1,4.4,4.8,6.1c0.6,0.6,1.9,0.4,3.7,0.7C136.4,136,134.7,134.5,133,133z
		 M248.7,114.4c0.2,0.7,0.4,1.5,0.6,2.2c3.8-0.9,8-1.2,11.2-3c2.1-1.2,3.5-1.3,4.6,0c2.4,2.9,3.4,1,4.7-0.9c0.9-1.2,1.9-2.3,2.5-3
		c3.1,1.4,5.6,2.5,7.5,3.4c1.4-0.9,2.5-1.6,4.6-3c-1.4,3.4-2.4,5.7-3.1,7.4c4.4,0,8.7,0,13.1,0c0-0.3,0-0.5,0-0.8
		c-1-0.4-2-0.9-3.2-1.5c4.6-2.3,8.8-4.5,13-6.7c0.9-0.5,1.8-1.6,2.2-2.6c0.4-1,0.1-2.3,0.1-3.5c-1,0.5-2,0.9-2.9,1.5
		c-0.6,0.3-1.1,0.7-1.5,1.1c-2.3,1.8-5.2,3.1-6.6,5.4c-1.6,2.8-2.8,1.8-4.2,1.4c1.9-2.2,3.8-4.2,5.6-6.2c-2.1-3.4-4.2-3.8-7.8-2
		c-4.9,2.5-10.7,1.5-16.1,1.6c-3.7,0-7.4-0.7-11-0.8c-2.3-0.1-4.6,0.3-7.2,0.6c0.3-1.7,0.5-2.6,0.7-3.4c-3.7-1.1-7.5,1.3-10.8-2
		c-0.9-0.9-4.3,0.8-5.9,1.1c-1.2,2.8-2.1,4.9-3,7.1c-0.4-0.2-0.7-0.3-1.1-0.5c0.3-0.9,0.7-1.9,1-2.8c-0.4-0.3-0.8-0.6-1.2-1
		c-0.5,0.9-0.9,1.8-1.4,2.7c0-5.2-1-9.5-6.6-10.8c-0.5,1.9-0.9,3.8-1.4,5.9c-1.1-0.7-1.1-0.7-5,3.2c1.2,2.2,2.3,4.4,3.6,6.9
		c-2.8,0-6,0-8.4,0c1.1-1.7,2.1-3.3,3.7-5.8c-1.6,0.6-2,0.9-2.5,1c-1.9,0.3-5.2,3.3-4.6-2.1c0-0.2-1.6-0.6-2.3-0.8
		c-0.5,2.3-0.9,4-1.3,5.7c1.1,0.6,2.2,1.1,3.2,1.6c-0.6,2-1.1,3.7-1.8,5.7c3.8,0.6,7.3,1.1,11.7,1.8c1.3-1.5,3-3.8,5-5.9
		c3.5-3.5,8.2-3.3,12.7-3.4c0.3,0,0.6,0.7,1.2,1.3c-2.3,0.6-4.1,1-6.6,1.7c3.4,1.7,6.3,3.2,9.2,4.7c-0.1,0.3-0.1,0.6-0.2,1
		c1.3-0.5,2.6-1,4.1-1.6c-0.6-2.9-1.1-5.6-1.5-7.7c3.5,1.5,7,2.9,10,4.2C253.2,113.3,251,113.8,248.7,114.4z M572.4,108.9
		c-4.2-1.2-8.1-0.6-10.2,2.8c-2.5,4.1-5.6,3.3-9.2,3.1c-5-0.2-10-1-14.9,1c-2.4,1-7.5,1.7-7.7,1.1c-1.7-4.4-4.9-0.9-7-2.4
		c-0.2,0.3-0.3,0.6-0.5,0.9c1.1,1.1,2.3,2.1,3.5,3.2c-3.7,0.9-7.2,1.8-10.6,2.7c-0.1-0.8-0.2-1.8-0.4-3.2c-4.2,1.3-8.3,2.5-12.5,3.8
		c0-0.3,0-1,0-1.4c-5.5-0.3-10.6-0.6-15.8-0.9c-0.1,0.3-0.2,0.7-0.4,1c1.4,1,2.7,2.1,4.1,3.1c-0.3,0.9-0.6,1.7-0.9,2.5
		c0.2,0.1,0.4,0.2,0.7,0.4c1.5-1.4,3-2.8,4.6-4.4c3.8,3.8,7.5,7.5,10.5,10.4c-2.7,3.2-5.4,6.4-8.1,9.6c0.6-2.6,1.8-4.8,2.6-7.1
		c0.3-0.8-0.2-2.2-0.8-3c-0.3-0.5-2-0.7-2.3-0.3c-0.5,0.7-0.7,1.8-0.7,2.8c0,0.7,0.2,1.5,0.3,1.9c-2.6,1.7-4.9,3.2-7.4,4.8
		c2.4,2.8,4.2,5,5.2,6.1c7.2-0.9,7.8-6.9,11.6-10.6c0.6,2.4,1,4.1,1.4,6.1c4.2-2.2,7.2-7.8,13-4.2c0.4-1.3,0.8-2.4,1.2-3.5
		c0.9,0.6,1.6,1.1,1.7,1.2c2.3-2,4.2-3.7,6.6-5.8c-3.4-1.8-6.4-3.3-9.3-4.8c1.9-0.6,4.2-2,5.8-1.5c3.6,1.1,5.7-1.2,8.5-2.2
		c2.7-1,5.7-1.3,8.6-1.7c4.2-0.6,8.4-0.8,12.6-1.5c2.6-0.5,5.1-1.7,7.5-2.5c0,0-0.7-0.5-1.4-1c0.8-1.5,1.5-3,2.3-4.7
		C567.5,111.7,570.6,114.8,572.4,108.9z M58.9,123.7c3.1,1.5,6,3,9,4.4c0.3-0.3,0.7-0.6,1-0.9c-0.5-0.9-0.9-1.8-1.5-2.6
		c-0.5-0.8-1.2-1.5-1.9-2.2c-1.1-1.1-2.3-2.9-3.5-2.9c-4.6,0.1-7.3-1.7-7.7-7.1c2.8-1.1,5.9-2.3,9.9-3.8c-0.8,2.2-1.2,3.1-1.5,4.1
		c6-2.6,11.8-5,18-7.6c0,1.9,0,3.1,0,4.4c-4-1.8-2.7,2.7-5,3.5c2.1,0.8,3.7,1.4,4.3,1.7c2.4-1,4.1-2,5.9-2.2
		c2.1-0.2,4.2,0.3,5.8,0.5c-0.6-3.3-1.3-5.7-1.5-8.2c-0.2-1.9,0.4-3.9,0.1-5.8c-0.3-2.1-1.3-4.2-2-6.5c-2.5,3.9,0.2,8.4-3.3,11.6
		c-3.2-3-0.1-5.2,0.4-7.6c0.5-2.3,0.5-4.1-2.2-4.4c-3.3-0.4-5.5-1.7-4.8-6c-1.6,1.8-2.7,2.9-4,4.3c1.8,1.4,5.8,1.3,3.6,5.1
		c-0.9,0-1.7,0-2.8,0c0,2.5,0,4.8,0,7.1c-0.3,0.1-0.7,0.1-1,0.2c-0.7-2.4-1.4-4.7-2.1-7.1c-6.6,0.8-7.1,1.2-7.9,5.4
		c-0.5-1.5-1.1-2.9-1.6-4.5c-1.9,4-5.5,5.5-10.6,5.1c1.7,2,3.4,4,4.9,5.7c-1.4,2-3.5,3.8-4,6c-1.1,4.9-3,6.3-7.7,4.8
		c-1-0.3-2.5-0.5-3.2,0c-1.7,1.3-3,3.1-4.7,4.9c2.6,1.1,5,2.1,7.8,3.3c1.1-0.7,2.6-1.9,4.2-2.6c0.5-0.2,2.3,1,2.2,1.2
		c-0.6,2.1,0.1,3.9,2.1,3.8c1.2,0,2.5-1.8,3.7-2.9C57.8,125.4,58.3,124.5,58.9,123.7z M366.6,153.1c-2.9,0.8-5,1.3-7.1,1.9
		c-4.7,1.3-10.5-3-14.3,3.2c-0.9-4.4-3.6-5.6-7.4-4.3c-1.2,0.4-2.7-0.1-4.1-0.1c0.5-3.4-2.2-2.2-3.3-1.8c-3.1,1.3-5.9,3.1-8.8,4.9
		c-0.8,0.5-1.3,1.4-2,2.1c0.8,0.5,1.6,1.3,2.5,1.5c4.9,1.1,9.7,2.7,14.7,3.1c6.6,0.4,13.3,0.5,19.8-0.5c2.7-0.4,4.9-2.4,7.3,0.3
		c0.1,0.1,2.3-1,2.4-1.7C366.7,158.8,366.6,155.7,366.6,153.1z M18.8,112.7c5.9,1.5,6.3,1.2,5-4.3c2.3,0.3,4.5,0.5,6.9,0.8
		c0.6-0.6,1.8-1.6,2.7-2.3c2,2.3,3.6,4.1,5.3,6c2.6-4.2,2.6-4.2,5.8,0.1c1.6-3.6,3-6.8,4.6-10.3c-0.9-0.4-2.8-1.8-3.3-1.4
		c-3.1,2.3-5.7,0.2-8.5-0.5c-1.2-0.3-2.6,0-3.9,0c0,0.3,0,0.5-0.1,0.8c1.3,0.7,2.5,1.4,3.8,2c-0.1,0.4-0.2,0.8-0.4,1.1
		c-1.6-0.4-3.1-0.7-4.9-1.1c-1.9,3.1-4.4,2.2-6.9,0.2c-2.3,1.5-4.1,4.4-7.4,2.5c-0.3-0.2-1.9,1.2-2.2,2.1c-0.5,1.8-0.6,3.7-0.8,5.5
		c-0.5,5,1.7,6.8,6.5,5.6c1-0.2,2-0.7,3.1-1.1c-0.5-1.3-1-2.6-1.6-4.3c-1.3,1.2-2.5,2.3-3.9,3.6C18.6,116,18.7,114.5,18.8,112.7z
		 M281,163.7c0.8,1.5,1.5,2.8,2.4,4.3c3.8-2,7.4-3.8,11.2-5.8c0.2,0.5,0.3,1.1,0.6,1.4c1.3,0.8,2.6,1.5,3.9,2.3c0-1.5,0.5-3.2,0-4.5
		c-1.3-3.6-3.8-5.7-8-4.8c-0.5,0.1-1.1-0.1-2.2-0.3c0.9-1,1.5-1.6,2-2.2c-0.1-0.3-0.2-0.6-0.3-0.9c-6.3,2.8-13.5-0.3-19.2,3.3
		c-1.6-0.7-3-1.4-4.4-2.1c-0.2,0.3-0.3,0.6-0.5,1c3.3,3-0.2,2.7-1.9,3.6c1.2,0.5,2.2,0.4,3.1,0.5c1.1,0.1,2.3,0.2,3.1,0.8
		c3.5,2.9,9.4,1.7,11.1-2.2c0.8,1.3,1.7,2.7,2.7,4.3C283.5,162.6,282.3,163.1,281,163.7z M442,218.1c2.7,2.4,5.3,4.8,8.5,1
		c3.4-4,6.6-8.3,10.1-12.3c1.1-1.3,2.7-2.3,4.3-3.1c2.7-1.3,2.7-3,1.4-5.8c-0.7,1.6-1.1,2.8-1.6,3.9c-1-0.7-1.8-1.2-2.5-1.7
		c-2.1,2.6-4.1,5-6,7.5c-0.2-0.2-0.4-0.4-0.6-0.5c0.4-0.9,0.7-1.9,1.3-3.4c-2.7,0-5,0-7.5,0c-0.2-0.4-0.5-1.1-0.6-1.4
		c-1.4,0.7-2.5,1.2-3.7,1.7c-1,3.4-2.1,7-3.2,10.7c0.7,0.2,1.3,0.3,1.9,0.4C443,216.4,442.5,217.2,442,218.1z M462.2,179.6
		c4.4-4.1,8.1-7.5,11.7-11c2-2,1.6-3.7-1.3-5.1c1.2-2.2,2.3-4.3,3.5-6.5c-0.2-0.3-0.4-0.6-0.6-0.9c-1.4,0.7-2.8,1.4-3.8,1.9
		c-0.5-0.3-1.2-1.2-2.1-1.4c-4.4-0.8-8.1,0.6-11.4,3.5c-0.3,0.3-0.5,1.1-0.3,1.3c0.3,0.4,1,0.6,1.5,0.6c1.2,0,2.5-0.2,4-0.3
		C461.4,167.8,461,173.1,462.2,179.6z M69.8,179.5c2.9-0.9,5.1-1.7,7.4-2.1c0.9-0.2,1.9,0.3,2.8,0.5c0.1-0.8,0.5-1.9,0.2-2.4
		c-0.5-0.9-1.7-2.1-2.4-2c-1.6,0.1-3.1,1-4.8,1.6c-0.3-1.3-0.7-2.9-1-4.5c-3.8-0.5-6.6-5.1-11.3-1.3c-3.6,2.9-6.5,5.6-7.6,10.3
		C58.9,179.5,64.6,179.5,69.8,179.5z M371.9,111.1c0.3-0.2,0.7-0.3,1-0.5c0.5,0.8,1.7,2,1.5,2.2c-1.9,2.5,0.5,3,1.7,3.8
		c2,1.3,4.2,2.5,6.1,3.6c-0.4-2.3-0.9-5.5-1.4-8.8c4.2-2.5,10.3-0.3,13.8-5.3c-2.7-1.5-5.5-4.7-7,0.9c-0.9-0.6-1.7-1.1-2.5-1.6
		c-0.3,0.8-0.7,1.5-1.2,2.6c-3.2-3.6-6.6,4.2-9.9-0.5c-3.9,0.7-7.9,1.4-11.4-2.5c-0.4,2.3-1.1,5-0.1,6.4c1.8,2.5,4.7,4.2,7.9,6.9
		C371.1,115.1,371.5,113.1,371.9,111.1z M505.9,168.5c6.1-1.9,12.6-4,19.2-6.1c0.6,0.8,1.5,1.7,2.3,2.7c-2.1-6.3,7.2-2.9,5.6-7.3
		c-1.5-2.6-3-5.3-4.4-7.7c-2,2.1-4.1,4.3-6.2,6.5C519.1,154.3,508.7,162,505.9,168.5z M468.7,192.2c-0.8,1.3-1.3,2.2-1.9,3.1
		c1.1,0,2.2-0.1,3.3-0.1c0.6,0,1.4,0.2,1.8-0.1c1.2-1,3.5-2.7,3.2-3.3c-1.8-4,1.5-4.1,4-5.8c-0.1,1.7-0.1,2.8-0.2,3.9
		c6-3.5,6-3.5,4.6-9.8c-2.9,0-5.9,0-8.9,0c0.2-0.9,0.4-2.1,0.8-3.6c-1.5,0.1-2.5,0.2-3.2,0.2c0.7,2.8,2.6,6.2,1.6,7.8
		c-1.3,2.2-4.9,3-7.3,4.4C467.2,190,468.1,191.3,468.7,192.2z M27.1,161.5c0-0.4-0.1-0.8-0.1-1.2c-3.1-0.2-6.2-0.4-9.1-0.6
		c-0.4-2.6-0.7-4.8-1-7c-1-0.2-2.1-0.5-3.5-0.8c0.9-1.1,1.6-1.8,2.2-2.5c-1.2,0-2,0.4-2.6,1c-3,2.4-2.4,6.3-3.8,9.4
		c-1.8,4.1,0.6,4.6,3.2,5.7C18.5,167.8,22.6,164.1,27.1,161.5z M219.5,126.8c-1.2-0.7-3.1-1.3-3.1-1.8c0.5-4.7-3.4-3-5.3-3.3
		c-2.1-0.4-4.4,0.8-6.5,0.9c-3.1,0-3.4,1.5-2.9,3.9c1.6-0.5,3-1,5.2-1.7c-0.6,3-1,5.2-1.4,7.5c-0.4-0.1-0.8-0.2-1.2-0.3
		c0.4-1.4,0.8-2.7,1.2-4.1c-1.6,1.5-2.8,3.2-3,5c-0.1,1.2,1.3,3.6,2,3.7c2.7,0.1,5.4-0.7,9.3-1.3c-2.4-2.7-3.9-4.3-5.9-6.5
		C211.1,124.8,215.7,129.2,219.5,126.8z M413.4,135.7c1.2,0.3,2.5,0.8,3.7,0.8c0.8,0,2.1-0.6,2.4-1.2c0.3-0.7,0.1-2.2-0.4-2.8
		c-2.2-2.4-7.9-1.8-9.3,0.2c-1.1-1.3-2.2-3.6-3.6-3.8c-5.4-0.9-7.6,0.9-10.5,7c6.8,1.5,13.5,3.2,19.4-2.9
		C414.4,133.8,413.9,134.8,413.4,135.7z M260.5,124.4c-0.1,0.5-0.2,1-0.2,1.4c4.3,0.9,8.7,1.7,13.1,2.6c1.1,0.9,2.6,2.3,4.4,3.9
		c0.3-3.7-4.7-6.1-0.2-9.7c1,2.3,1.7,4.2,2.4,5.7c1.6-0.3,3.2-0.4,4.7-0.9c1.2-0.5,2.2-1.5,3.3-2.3c-0.9-0.7-1.7-1.8-2.7-2.1
		c-5.4-1.4-10.9-2.7-16.3,0.4c-0.9,0.5-2.4-0.1-3.8-0.2c-0.2,0.4-0.4,1.1-0.6,1.7C263.1,124.8,261.8,124.6,260.5,124.4z
		 M509.5,105.4c-4.6-0.4-8-0.7-11.4-1c0-0.8,0-1.8,0-3c-1.9,2.2-3.5,4-5.3,6.1c-0.4-0.3-1.2-0.8-2-1.4c0.8,2.5,0.8,5.7,4.5,5.4
		c0.1-1.5-0.1-2.6,0.3-3.5c0.2-0.5,1.3-0.7,2.1-1c0.4,1,0.8,1.7,1.1,2.5c1.2-0.5,2.1-0.9,3.3-1.3c0.7,4.2,3.5,4.1,7,4
		c-1,0.9-2,1.9-3,2.8c4.1,1.2,4.7,0.7,4.6-3.8c1.8-1,3.4-1.9,5.1-2.7c-0.2-0.5-0.4-1.1-0.6-1.6c-3.1,0.3-6.2,0.7-9.2,1
		c0-0.2-0.1-0.5-0.1-0.7C506.8,106.6,507.6,106.3,509.5,105.4z M253.3,129.8c1.3-1.9,2.3-3.2,3.3-4.5c-0.2-0.4-0.4-0.9-0.6-1.3
		c-4.3,1.3-8.7,2.6-12.9,3.8c0.6,6.3,5.9,4.9,8.8,5.4c3.6,0.7,8.3,1.5,12.3-2.9C260.1,130.1,256.9,130,253.3,129.8z M455,115.7
		c-5.4-1.1-9.6-2-14.2-2.9c0.6-0.6,1.2-1,1.8-1.5c-1.7,0.1-3.7,0.7-3.8,1.6c-0.2,1.4,0.9,3,1.4,4.5c-0.3,0.3-0.5,0.6-0.8,0.8
		c-1.1-1.2-2.2-2.4-2.9-3.2c-2.5,1.4-5,2.8-7.4,4.1C437.8,119.7,446.4,120.8,455,115.7z M203.1,145.9c2.3-0.8,4.4-1.7,6.5-2.3
		c2.1-0.6,4.7-0.4,4.5-4c-0.7,0.7-1.4,1.3-2.2,2.1c-3-2.2-6.3-3.9-10-1.2c-0.4-0.8-0.7-1.5-0.7-1.5c-2,1.1-3.9,1.9-5.6,3.1
		c-0.9,0.7-1.6,1.9-1.8,3c-0.1,0.8,0.8,2.3,1.4,2.4c0.9,0.1,2.3-0.5,2.9-1.2C200.1,143.5,201.9,142.9,203.1,145.9z M182.4,88.9
		c-2.2,0.4-4.7-0.1-5,3.4c-0.1,1.1-2.5,2.3-4,2.7c-1.8,0.5-3.9,0.1-5.6,0.1c0.3,2.2,0.6,4.6,0.9,7.5c2.3-1,4.5-2.1,6.8-3
		c1.5-0.7,3.2-1,4.5-1.9c0.9-0.7,2-3.1,1.8-3.3C178.9,92,181.4,90.7,182.4,88.9z M455.7,186.1c-1.5,2-2.8,3.7-4,5.3
		c-0.6,0.9-1.1,1.9-1.6,2.9c1-0.3,2.1-0.7,3.1-1c-0.9,4.1,3.5,1.5,4.5,3.7c3-4.3,5.2-8.2,4.3-14.5c-2.2,2-3.7,3.4-5.2,4.8
		C456.4,186.9,456,186.4,455.7,186.1z M401.4,117.1c0.1-0.3,0.2-0.6,0.2-0.9c-2-0.4-3.9-0.9-6.7-1.5c3.1-0.9,5.5-1.6,8.1-2.4
		c-2.3-0.9-1.7-1.9,0.3-2.8c-5.9-3.4-12.3,0-13.4,6.9C393.7,116.6,397.5,116.8,401.4,117.1z M379.1,127.7c-0.9,2.3-1.4,3.5-1.9,4.8
		c2.4,3.1,8.3,4.3,14.9,2.7c1.3-0.3,2.3-1.7,3.9-2.9c-3.4-1.3-7,0.8-8.2-3.3c-0.1-0.3-2-0.3-2.8,0c-0.4,0.2-0.5,1.6-0.3,2.4
		c0.2,0.9,0.9,1.6,1.4,2.4C381.1,134.8,380.4,130.8,379.1,127.7z M362.3,130.5c-3.4,0.4-7,0.9-10.6,1.1c-2.7,0.1-3.9,1.1-3.4,4.8
		c1.8-1,3.3-1.7,5.1-2.7c0.1,0,0.7,0.4,1.8,1c-0.3-1-0.4-1.4-0.5-1.7c1.6,0.3,3,0.5,4.5,0.8c0.8,0.1,1.9-0.1,2.5,0.3
		c3.9,2.9,7.3,1.9,9.6-3.3c-2.3,0.4-4.2,1-6.2,1C364.2,131.8,363.3,130.9,362.3,130.5z M23.1,177c1.2-1.6,2.4-3.1,3-3.9
		c1.6,0.4,3.6,1.6,4.6,1c2.1-1.2,3.7-3.3,5.3-4.9c-4.7-1.6-13.5,0.2-16.5,3.6C20.6,174.1,21.6,175.2,23.1,177z M523.7,106.4
		c-2.1,0.9-3.9,1.4-5.4,2.4c-0.8,0.5-1.4,2-1.4,3c0,1.1,0.8,2.1,1.6,3.8c1.4-0.8,2.8-1.5,5-2.6c4.5,0.8,6.3-0.2,5.7-3
		C526.7,108.3,525,107.2,523.7,106.4z M88.4,130.6c-1-1-1.9-2.2-3.1-2.8c-0.9-0.5-2.2-0.4-3-0.5c-1.9,2.7-3.9,5.6-6.3,9
		c3.7,0,7.2,0,10.5,0c-0.7-1-1.7-2.3-2.8-3.7C85.6,131.7,86.8,131.2,88.4,130.6z M212.7,159.2c-2.6,0.9-4.9,1.8-7.3,2.6
		c-0.1-0.3-0.3-0.5-0.4-0.8c0.6-0.9,1.2-1.9,1.8-2.8c-0.3-0.2-0.6-0.5-0.9-0.7c-2,3-4,5.9-6.1,9.1c0.6,0.3,1.9,0.8,3.3,1.5
		C205.2,164.4,212.6,166.8,212.7,159.2z M264.2,142c0.6,0.5,1.2,1.1,1.8,1.3c5.7,2.4,10.4-1.8,15.8-2.5c-2.6-1.4-5.3-2.8-6.7-3.6
		C270.9,139.1,267.7,140.5,264.2,142z M453.2,110.5c2.2,1.9,3.7,4,5.7,4.6c2.1,0.6,4.7-0.3,6.9-0.5c-1.1-0.7-2.6-1.6-4-2.5
		c0.1-0.4,0.2-0.8,0.3-1.2c2.8,0.3,5.5,0.6,8.2,0.9c-0.1-0.8-0.3-2.3-0.4-3.8C464.8,108.7,459.7,109.5,453.2,110.5z M186.4,165.6
		c0,0.4,0,0.8,0,1.2c3,0.3,5.9,0.5,9.4,0.8c-1-1.5-1.7-2.5-2.6-3.8c1-0.4,1.8-0.8,2.7-1.1c0.9-0.3,1.9-0.6,2.9-1
		c-2.4-3.8-5.6-4.1-9.6-0.8c0.7,0.6,1.3,1.1,2,1.7C189.5,163.7,188,164.7,186.4,165.6z M93.5,165.1c2.6,0.2,4.7,0.7,6.7,0.5
		c1.1-0.1,2.5-1.4,2.8-2.4c0.4-1.5,1.4-3.9-1.8-4.2c-0.4,0-1.2-0.4-1.2-0.6c0.7-4.2-2.4-1.8-3.7-2.6c-0.3,0.4-0.6,0.7-0.9,1.1
		c1.7,1.4,3.4,2.7,6,4.8c-2.9-0.6-5-1.1-7.2-1.5C94.1,161.6,93.9,163.2,93.5,165.1z M444.4,187.1c2.4-4.5,4.5-8.3,7.1-13.2
		c-2.3-0.5-4.4-1-6.4-1.5c-0.4,1.9-1.1,3.8-1.2,5.7C443.8,180.6,444.2,183.2,444.4,187.1z M303.3,122.3c1.4,1.3,2.9,3.2,4.9,4.3
		c1.8,1.1,4.9-0.6,5.4-2.5c-1,0.3-1.9,0.5-2.9,0.8c-0.1-0.4-0.3-0.7-0.4-1.1c1.7-0.7,3.4-1.4,6.1-2.5c-1.8,0-2.7,0.1-3.5,0
		c-1.5-0.1-3-0.3-4.5-0.5c0.6-1.2,1.2-2.5,1.8-3.7c0.1-0.2-0.1-0.5-0.3-0.9c-1.2,0.3-2.4,0.6-2.9,0.7
		C305.6,118.9,304.5,120.5,303.3,122.3z M438.9,77.1c-0.6,0.2-1.7,0.9-2.7,0.9c-2.8-0.2-5.6-1-8.4-1c-1.2,0-2.4,1.3-3.6,2
		c0.1,0.4,0.3,0.7,0.4,1.1c2.3,0,4.7,0,7.7,0c0.1,0.2,1,1.2,1.5,1.8c3.9-0.9,7.4-1.7,10.8-2.5C442.8,78.6,441.1,77.9,438.9,77.1z
		 M252.2,166.4c4-1.5,7.1-5.3,12.6-2.6c-1.4-2.5-2.6-4.6-3.7-6.6c-2.3,1.4-4.9,3.1-7.8,4.9c-0.7-0.2-2.1-0.5-3.8-1
		C250.5,163.2,251.4,164.8,252.2,166.4z M34.3,87.7c0,0-0.2,1.5,0.4,1.9c2,1.5,4.3,2.7,6.8,4.2c-0.6-1.3-0.9-2-1.3-2.8
		c0.2-0.3,0.4-0.6,0.6-0.9c1.5,0.6,3.1,1.7,4.6,1.6c1.3-0.1,2.4-1.7,3.8-2.8c-4.1-3.1-7.1-3.8-10.5-0.9C38,88.5,36.2,87.8,34.3,87.7
		z M16.7,124.5c3.5,3.4,6.4,6.3,9.4,9c0.4,0.4,2.1,0.1,2.6-0.4c0.8-0.8,1-2.1,1.5-3.2c-2.7-1.2-6.7-1.1-5.5-6.3
		C21.9,123.8,19.4,124.1,16.7,124.5z M95.9,172.2c1.8,1.2,3.2,2.2,4.5,3.2c-0.3-4.3-2.6-5.4-9.3-4.6c-2.3-1.9-4.2-3.5-6.1-5.2
		c-0.7,1.6-0.9,3.6-0.1,4.1c3.2,2.1,6.7,3.7,10.1,5.6C95.2,174.7,95.5,173.9,95.9,172.2z M226.4,129.8c0.8,0.5,1.7,1.1,3.1,1.9
		c0.6-2.1,1.2-3.7,1.4-5.4c0.1-1.3-0.1-3.3-0.8-3.7c-1.8-0.9-3.9-1-6-1.4c-0.2,1.4-0.4,2.8-0.7,4.2c-0.2,1-0.4,2-0.6,3.2
		c5-0.3,2.6-3.1,2-5.2C228.7,122.8,228.8,123,226.4,129.8z M292.7,126.9c2.3,0.3,4.1,0.5,6.4,0.8c0.8-0.6,3.5-2.1,3.3-2.7
		c-0.9-2.7-2.9-2-4.8-1.2c-0.6-1.7-1.3-3.4-1.9-5.1c-0.4,0.1-0.8,0.1-1.2,0.2C293.9,121.7,293.2,124.6,292.7,126.9z M388.7,151.3
		c1.7-2.6,3-5.7,3.2-9.5c-5.2-1.5-6.1,3-8.2,5.2C385.4,148.5,387,149.9,388.7,151.3z M185.1,110.9c-3.5-5.3-8.2-2.3-11.9-2.7
		c-0.8,1.2-1.4,2.3-2.6,4.1C175.8,111.8,180.2,111.3,185.1,110.9z M109.8,164.8c-3.1-0.8-5.1,0.9-6.4,4.3c3.6-0.5,7-1,10.3-1.5
		c0.1,0.2,0.1,0.5,0.2,0.7c-0.6,0.5-1.3,0.9-1.9,1.4c1.2,0.6,2.8,0.2,2.8,0.1c-0.5-2.1-1.1-4.2-1.9-7c-0.2,0.3,0.2-0.3,0.7-0.9
		c-0.3-0.2-0.5-0.4-0.8-0.6C111.9,162.3,110.9,163.5,109.8,164.8z M447,132.6c-3.1,4.5,0.5,5.9,3.3,7.9c-0.1-1.4-0.2-2.6-0.2-3.4
		c2.1,0.4,4,0.7,5.8,1.1c-0.7-1.8-1.5-3.6-2.6-6.3C450.8,136,448.8,134.6,447,132.6z M293.1,96.6c5.8-0.7,10.8,5.1,17.4,2.1
		C306.3,95.2,296.8,94,293.1,96.6z M37.4,126.7c-2.2,2.3-4.4,4.5-6.9,7c6.8,3.4,7.8-2.1,10.4-5.2C39.6,127.9,38.5,127.3,37.4,126.7z
		 M332.7,122.2c-2-0.1-3.8-0.3-5.5-0.3c-0.9,0-2,0-2.8,0.4c-0.3,0.1-0.3,1.8-0.1,2c0.9,0.5,2.1,0.7,3.1,0.7c1,0,2.1-0.7,3-0.5
		c3.2,1,6.3,2.4,9.6,3.3c1,0.3,2.4-0.6,3.5-1c-0.1-0.3-0.3-0.6-0.4-0.9c-3.7-0.3-7.3-0.7-11.2-1
		C332.3,123.4,332.5,122.7,332.7,122.2z M330.8,99.3c0.4,1.3,0.9,2.5,1.3,3.8c1.5-1.2,2.7-2.1,4-3.1c-0.2-0.3-0.4-0.6-0.6-0.9
		c-1,0.7-2,1.3-3.5,2.3c2-4.5,2-4.5-1.8-4.4c-0.2,0-0.4-0.1-0.5-0.2c-2.6-3.8-3.8-0.7-6,1.3c1.4,0,2.2,0,3,0
		c-0.4,1.2-0.7,2.1-1.2,3.7C327.7,100.8,329.2,100,330.8,99.3z M484.4,164.8c4.2-4.2,3.8-4.8-5.3-8.3c-0.6,1.7-1.2,3.4-2.2,5.9
		c2.9-0.7,4.6-1,6.2-1.4C483.6,162.3,483.9,163.4,484.4,164.8z M428.2,134.6c2.9,2.9,7.2,3.8,8.7,1.8c0.9-1.2,0.9-3.1,1.5-5.6
		C434.2,132.3,431.3,133.4,428.2,134.6z M43,76.1c0.5,0.9,1.1,1.8,2,3.4c-0.2-4.4,2.4-3.4,4.8-3.2c-0.8-1.4-1.8-3.1-2.6-3.1
		c-3.4,0.3-6.8,1.1-10.2,1.7C38.8,78.6,40.1,78.9,43,76.1z M315.9,105.2c-0.3-0.2-0.6-0.5-0.9-0.7c-2.6,0.9-5.2,1.7-7.8,2.6
		c0,0.3,0.1,0.7,0.1,1c1.8,0.5,3.5,1,5.1,1.5c-0.8,1.5-1.5,2.8-2.7,5C315.8,112.7,314.5,108.3,315.9,105.2z M56.7,137.4
		c-0.1,0.4-0.2,0.8-0.3,1.2c1.2,0.5,2.5,1.5,3.6,1.4c2.4-0.2,4.7-0.9,7-1.7c0.4-0.1,0.4-1.6,0.5-2.4c-2-0.3-4-0.6-5.9-0.9
		c-0.2,0-0.4,0.3-0.7,0.4c0.2,1,0.4,1.9,0.6,2.7C59.8,138,58.2,137.7,56.7,137.4z M143.5,140.3c3.6-4.8,6.8-1.6,10.1,0.8
		c-0.5-2.4-0.8-4.2-1.2-6.5c-3.8,0.6-7.3,1.2-11.3,1.9C141.9,137.9,142.6,138.8,143.5,140.3z M464.4,125.8c-3.7-2.9-10.5-3.3-13.1-1
		C455.9,127.7,455.9,127.7,464.4,125.8z M32.9,151.9c-1.4,1.7-2.9,2.8-3.4,4.3c-0.5,1.7-0.1,3.7-0.1,6.3c2.3-0.1,4.8-0.3,7.6-0.5
		c-2.2-1.7-3.8-3-6.2-4.9c1.8,0,2.4,0,2.9,0C33.5,155.6,33.3,154.3,32.9,151.9z M12.9,78.7c-0.4,0-0.9,0-1.3,0
		c-0.3,4.6-0.7,9.3-1,13.9c0.4,0,0.9,0.1,1.3,0.1C12.3,88.1,15.4,83.6,12.9,78.7z M131.9,163.2c0.1,1.2,0.3,3.1,0.5,4.4
		c2.3,1.1,4.2,2,7.1,3.4c-0.3-1.8-0.2-3.6-0.9-4.2C136.5,165.4,134.1,164.4,131.9,163.2z M355.7,114.4c1.3-1.8,2.4-2.6,2.4-3.4
		c-0.2-4.1-4.9-1.5-6.3-3.9c-0.5,0.5-1.5,1.4-1.5,1.4C351.8,110.3,353.4,112,355.7,114.4z M330.3,135.9c0.1,0.6,0.3,1.1,0.4,1.7
		c1.6-0.4,3.2-0.9,4.8-1.2c1.3-0.3,2.7-0.7,4.1-0.5c1.4,0.2,2.8,0.9,4.4,1.4c-0.9-2.1-1.4-3.3-2-4.6
		C338.1,133.7,334.2,134.8,330.3,135.9z M302.1,143.1c1.5,1.4,3.1,2.7,4.8,4.2c1-1.1,2.3-2.5,3.7-4c-1.8-0.9-3.5-1.7-5.1-2.5
		C304.2,141.7,302.9,142.5,302.1,143.1z M163.4,93.2c-1.8,1.4-3.4,2.3-4.7,3.6c-0.5,0.5-0.6,1.5-0.9,2.3c0.9,0.2,1.9,0.6,2.7,0.4
		c1.7-0.4,3.3-1.1,5.6-1.9C165.2,96,164.3,94.5,163.4,93.2z M141.8,166.5c3.3,4.8,6.7,5.2,10.9,1.3
		C149.4,167.3,146,166.9,141.8,166.5z M126.7,168.7c-7,0.1-8.1,0.5-9.7,3.4C122.5,173.1,124.9,172.4,126.7,168.7z M435.4,163.3
		c-3.9-0.5-6.3-5.5-10.5-2.2C427.1,164.3,430.1,165,435.4,163.3z M548.2,131.3c-2.3-2.3-3.2-2.1-4.6,1.4c4.2,2.1,4.9,2,8.4-2
		c-0.1-0.3-0.3-0.6-0.4-1C550.6,130.2,549.6,130.7,548.2,131.3z M162,170c-2.7-2.8-4.8-4.9-6.9-7.1C155.2,169.8,155.3,169.9,162,170
		z M113.8,131.3c-0.4,0-0.8,0.1-1.2,0.1c-1.1,1.5-2.2,2.9-3.2,4.4c-0.6,0.9-0.9,1.9-1.3,2.8c0.7,0.3,1.7,0.9,2,0.7
		c0.9-0.6,1.5-1.6,2.2-2.5c0.3-0.4,0.8-0.8,0.9-1.3C113.4,134.2,113.6,132.8,113.8,131.3z M456.8,169.4c0.3-0.5,0.6-1.1,0.9-1.6
		c-1.9,0-3.7-0.2-5.5,0.1c-0.4,0.1-0.5,1.7-1.1,3.4c1.4-1.2,2.1-1.7,2.4-2c1.5,1.7,2.9,3.4,4.3,5c0.3-0.3,0.6-0.7,0.8-1
		C458,172,457.4,170.7,456.8,169.4z M200.2,132.3c0.1-0.4,0.2-0.9,0.3-1.3c-1.5-0.2-4-0.9-4.4-0.3c-1.1,1.6-1.3,3.8-1.9,5.8
		c0.3,0.1,0.6,0.1,1,0.2C196.8,135.2,198.5,133.7,200.2,132.3z M313.7,71.8c-0.5,0.4-1.1,0.8-1.6,1.1c0.8,1.6,1.3,3.5,2.5,4.7
		c0.6,0.6,2.5,0.1,3.7,0.1c0.1-0.4,0.3-0.7,0.4-1.1C317.1,75.1,315.4,73.4,313.7,71.8z M548.7,103.2c0,0.5,0.1,0.9,0.1,1.4
		c3.8-0.4,7.5-0.9,11.3-1.3c0-0.4-0.1-0.9-0.1-1.3C555.9,98.8,552.6,104.2,548.7,103.2z M486.4,153.4c0.5-0.2,0.9-0.3,1.4-0.5
		c0-1.6,0-3.3,0-5.3c0.5-0.4,1.4-1.2,2.3-1.9c-0.2-0.3-0.4-0.5-0.6-0.8c-2.1,1.5-4.3,2.9-6.7,4.6
		C484.3,151.2,485.4,152.3,486.4,153.4z M77.8,121.3c-1-3.7-2.3-5.4-5-4.5c-0.7,0.2-1.7,1.9-1.5,2.6
		C72.4,123.9,75.4,118.9,77.8,121.3z M157.1,86.4c2.2,0.3,3.2,0.5,4.6,0.7c-1.2-1.6-2-3.1-3.1-4.2c-0.3-0.3-2.3,0.3-2.4,0.7
		c-0.3,1.4-0.4,3,0.1,4.3c0.4,0.9,1.9,1.5,2.9,2.1c0.1,0,0.3-0.2,0.5-0.3C159.1,89,158.5,88.2,157.1,86.4z M335.8,112.7
		c2.3,1,4.5,2,7.1,3.2c0.6-1.1,1.5-2.9,2.6-4.9C342.1,111.6,339,112.2,335.8,112.7z M377.7,101.9c-1.2-1.8-1.9-4.1-3-4.3
		c-1.6-0.3-3.4,0.8-5.2,1.3c0,0.5,0.1,1,0.1,1.5C372.2,100.9,374.7,101.4,377.7,101.9z M123.7,163.1c-1.4,0.9-2.7,1.8-4,2.6
		c1,0.6,2.2,1.3,3.6,2.1c1.3-1.1,2.6-2.2,4.1-3.4C125.4,163.7,124,163.2,123.7,163.1z M492.4,175.3c0.2,0.3,0.5,1.7,1.3,2.1
		c1.3,0.7,7.5-4.3,7.6-5.9C498.6,172.7,495.9,173.8,492.4,175.3z M27.3,136.4c1.6,3.8,4.6,4.1,9.7,1
		C33.7,137.1,30.6,136.8,27.3,136.4z M10.5,173.5c1.8,0.8,3,1.7,4.4,1.9c2.4,0.4,3.2-2.2,1.5-5.4C14.5,171.1,12.6,172.2,10.5,173.5z
		 M170.6,165.1c0.1,0.3,0.1,0.6,0.2,0.9c1.7,0,3.5,0.2,5.1-0.1c0.6-0.1,0.9-1.6,1.3-2.5c-0.8-0.4-1.9-1.2-2.4-1
		C173.3,163,172,164.1,170.6,165.1z M471.9,146.9c0.2,0.4,0.3,0.8,0.5,1.2c1.6-0.2,3.3-0.5,4.9-0.7c0.5,0.8,1,1.6,1.8,2.8
		c2.4-3.6-1-4.4-2.4-4.8C475.3,144.9,473.5,146.3,471.9,146.9z M534.2,150.7c0.5,0,1,0.1,1.6,0.1c0.4-1.7,0.8-3.4,1.2-5.2
		c-1.1,0.1-2.2,0.1-3.3,0.2C533.8,147.4,534,149.1,534.2,150.7z M172.4,155.1c-1-2.6-1.6-4.7-4.6-3.9c-0.6,0.2-1.3,0-1.9,0
		c0.3,0.7,0.5,1.8,1.1,2C168.5,154,170.2,154.4,172.4,155.1z M573.2,131.9c-0.2,0.7-0.3,1.4-0.5,2.1c1.8,0.6,3.6,1.2,5.4,1.8
		c0.3-0.9,0.5-1.9,0.8-2.8C577.1,132.6,575.2,132.2,573.2,131.9z M327.5,146.9c0.1-0.4,0.1-0.7,0.2-1.1c-2.5-0.5-5.3-3.4-7.7,1.1
		C322.8,146.9,325.2,146.9,327.5,146.9z M353.9,141.6c0.1,0.5,0.2,1.1,0.3,1.6c1.8,0.6,3.6,1.2,5.7,1.9c0.1-1.2,0.2-2.3,0.3-4
		C357.8,141.3,355.8,141.4,353.9,141.6z M235.1,122.6c0.5,0.2,1,0.3,1.5,0.5c2.2-1.7,3.2-3.6,0.5-6.5
		C236.4,118.6,235.8,120.6,235.1,122.6z M474.9,19.9c0.3,0.7,0.5,1.4,0.8,2.1c2.8-1.1,5.5-2.2,8.3-3.2c-0.1-0.4-0.3-0.8-0.4-1.2
		C480.6,18.3,477.8,19.1,474.9,19.9z M477,10.6c-1.5,3.2-0.1,4.7,1.9,5.6c0.9,0.4,2.2,0.1,3,0.1C480.2,14.2,478.8,12.7,477,10.6z
		 M375.4,143.5c0.4,0.1,0.9,0.3,1.3,0.4c0.5-1.4,1.5-2.7,1.5-4.1c0-0.9-1.2-1.8-1.9-2.7c-0.3,0.1-0.6,0.3-0.9,0.4
		C375.4,139.6,375.4,141.5,375.4,143.5z M288.7,136.6c2.3,0,4.3,0,6.9,0c-0.9-1.4-1.6-2.3-2.2-3.4c-1.5,0.8-2.8,1.5-4,2.2
		C289.2,135.6,289.1,135.9,288.7,136.6z M134.3,148.3c-4.3-3.5-5.9-3.2-7.5,1.1C129.2,149.1,131.5,148.7,134.3,148.3z M319.3,130.2
		c1.6,3.8,4,4.1,6.8,1.1C324,130.9,321.9,130.6,319.3,130.2z M534.7,108.9c-0.4-0.4-0.9-0.7-1.3-1.1c-0.7,1.2-1.8,2.4-2,3.7
		c-0.2,1,0.5,2.3,0.8,3.4c0.8-0.7,1.9-1.3,2.2-2.2C534.9,111.6,534.7,110.2,534.7,108.9z M302.4,163.4c-0.2,0.3-0.4,0.6-0.6,0.9
		c1.4,0.3,2.9,0.9,4.2,0.7c1-0.2,1.9-1.5,2.8-2.3c-0.2-0.2-0.5-0.5-0.7-0.7C306.1,162.5,304.2,163,302.4,163.4z"/>
	<path class="st0" d="M175.9,214.7c0.1,0.7,0.2,1.9,0.3,3.3c0.7-0.7,1.3-1.1,2-1.7c0,0.6,0.1,1,0,1.4c-0.6,3-1.1,6-1.9,8.9
		c-0.4,1.7-1.3,4.7-1.8,4.6c-2.5-0.3-5.2-0.7-7.2-2.2c-2.8-2.1-7.6-2.4-9.8,0.1c-3.2-1-6.4-1.9-9.7-2.9c0.9-4.2-2.2-6.2-4.3-8.9
		c-0.6-0.7-0.1-2.5,0.3-3.6c1.4-4.1,2.8-8.2,4.6-12.1c0.4-1,2.5-2,3.5-1.7c2.4,0.7,4.5,2.2,7,0c0.5-0.4,2.1,0.6,3.6,1
		c-1.7,1.5-3.2,2.8-5.5,4.8C163.6,208.8,169.6,211.7,175.9,214.7z"/>
	<path class="st0" d="M304.4,193.3c1.3-1.1,1.9-1.7,2.7-2.3c0.8,1.1,1.5,2.2,1.6,2.4c-1,2.6-2.1,4.4-2.3,6.4c-0.6,5.9-2.3,7.4-8,6.3
		c-0.4-0.1-0.8-0.3-1.1-0.2c-4.8,2.2-6.6-0.9-8.3-4.4c5.1-4.3,7.8-11.1,15.4-11.8C304.4,190.2,304.4,191.2,304.4,193.3z"/>
	<path class="st0" d="M266.3,181.4c-3.3,5-3.3,5,0.6,9.1c-1.2,1.3-2.3,2.7-3.7,3.6c-1,0.7-2.6,1.2-3.8,1.1c-2.5-0.2-4.9-1.2-7.4-1.3
		c-1.6-0.1-3.2,0.9-4.9,1.5c-0.6-0.4-1.6-1.3-2.7-2.1c-1.1-1-2.1-2-3.1-3c1.8-1.6,3-2.8,4.4-4.1c0.2,2.4,1.4,3.5,4.1,1.8
		c0.7-0.4,1.9-0.1,2.8-0.3c1.7-0.4,3.6-0.5,5-1.4c0.5-0.3-0.3-2.5-0.4-3.7C259.9,182.1,263.3,181.7,266.3,181.4z"/>
	<path class="st0" d="M90.6,211.5c-1.2,1-2.5,2.1-3.8,3.2c-0.2-0.1-0.4-0.3-0.7-0.4c2-3.1,3.9-6.2,6-9.4c-1.6-1.7,0.2-7.2,4-10.6
		c1.7,4.3,1.4,5.3-2.4,8c1,0.5,2,1,3.1,1.6c0.8-1,1.7-2.1,2.5-3.1c0.4,0.2,0.7,0.3,1.1,0.5c-0.5,1.2-0.9,2.5-1.5,3.7
		c-1.4,2.5-2.9,5-4.4,7.5c-0.5,0.8-1.1,1.5-1.7,2.3C92.1,213.9,91.6,213.1,90.6,211.5z"/>
	<path class="st0" d="M185.4,227.7c2-2.6,3.9-5.3,6-7.8c0.3-0.3,1.6-0.3,1.7-0.2c0.3,0.9,0.9,2.4,0.5,2.8c-2.4,2.1-5,4-7.5,6
		C185.8,228.3,185.6,228,185.4,227.7z"/>
	<path class="st0" d="M198.9,221.7c0.2,2.8,0.4,5.2,0.6,8.5C195.5,225.8,195.4,224.3,198.9,221.7z"/>
	<path class="st0" d="M547.3,60.4c0.5-0.6,1.2-1.3,2-2.1c-5.7,0-11.1,0-17,0c-0.1-0.2-0.4-1.1-0.9-2.3c-0.9,1-1.7,1.8-2.5,2.7
		c0.6,0.7,1.2,1.5,1.8,2.2c-3.9,0-7.7,0-11.4,0c-0.2-0.6-0.5-1.3-0.7-1.9c6.5,0.8,9.7-2.8,12.1-7.7c-1.1-1.3-2.3-2.6-3.7-4.2
		c-0.4,2.2-0.8,4.1-1.1,5.6c-2.5-0.8-5.1-1.6-8.1-2.6c1.1-1.9,2.1-3.4,2.9-5c0.5-0.9,1-1.9,1-2.8c-0.2-3,2.2-4.9,5-3.9
		c1.6,0.6,3.2,1.1,5,1.7c-0.3,0.6-0.7,1.3-1.3,2.3c0.7,0.1,1.2,0.2,1.7,0.2c3.6,0,6.6,1,7.9,4.8c0.2,0.6,0.9,1.5,1.2,1.4
		c6.5-1.4,7.4,7.6,13.4,7.2c0.4,0,0.9,1.6,1.3,2.4c0.1,0.2-0.7,0.8-0.6,0.9c3.5,5.8-3.7,4.8-4.9,7.6c-1.4-0.6-2.8-1.2-4.3-1.9
		c0.2-0.3,0.3-0.7,0.5-1c1-0.3,2.1-0.6,3.1-0.9C549.1,62.2,548.3,61.4,547.3,60.4z"/>
	<path class="st0" d="M532.5,85.9c2.2-7.5,10-3.4,12.6-6.6c3.2-0.5,6.2-0.3,8.1-1.5c3.6-2.2,6.8-1.7,10.4-0.1
		c-0.2-2.2-0.3-4.1-0.4-6.4c1.3-0.2,2.5-0.3,3.6-0.5c-0.1-0.8-0.2-1.7-0.3-2.7c2.1,0.7,4,1.3,6.1,1.9c-0.3,3,1.4,5.3,4.8,6
		c0.3,0.1,0.7,1.5,0.5,2.2c-0.4,1.2-1.2,2.4-2.1,4.1c-5.2,1.1-5.8-5.6-10.2-7.1c1,1.4,2,2.8,3.1,4.3c-3.8,2.1-7.5,3.5-11.1,1.3
		c-2.7,1.1-5.1,2.1-7.7,3.1c-2.3-4.1-5.8,0.3-8.8-0.8C538.3,82,535.9,84.6,532.5,85.9z"/>
	<path class="st0" d="M102.1,68.7c8.7,0,17.3,0,26.2,0c-0.3,3.5,1.1,4.8,3.5,4.1c0.7-1.7,1.3-2.8,1.8-4c1,0.8,2.1,1.5,3,2.3
		c0.7,0.7,1.3,1.5,2.2,2.7c-2.5,1-5.2,1.5-7.4,3c-4,2.7-4.2-2.6-6.8-2.6c0.5-1.4,0.8-2.6,1.2-3.7c-0.3-0.2-0.6-0.3-0.9-0.5
		c-1.6,1.7-3.3,3.4-5.2,5.4c0.4-2.1,0.6-3.4,0.8-4.7c-1.1,0.4-2.1,0.8-3.2,1c-0.8,0.1-1.7-0.2-2.6-0.2c-1,0-2.4-0.4-3,0.1
		c-4.3,3.5-6.9,0.4-9.8-1.9C102,69.4,102.1,69,102.1,68.7z"/>
	<path class="st0" d="M546.9,89.6c6.9,0,12.8,0,18.8,0c0.6-1.3,1-2.4,1.4-3.1c3.7,0,7.1,0,10.5,0c0.2,0.5,0.4,1.1,0.6,1.6
		c-5.4-0.7-6.6,3.1-8.5,6.2c-0.7,1.1-2.2,1.7-3.4,2.6c-2.1-4.6,2.9-5.1,4.7-7.7c-5.1,1.6-9.6,3-14.2,4.4c-0.1-0.3-0.1-0.6-0.2-0.9
		c-1.2,1.4-2.4,2.7-3.7,4.1C550.8,94.3,548.9,92,546.9,89.6z"/>
	<path class="st0" d="M434.8,34.9c0.8,4.9,1.4,9,2.1,13.5c-3.2,1.4-5.1,4.1-3.8,8.4c-0.5,0.1-1,0.2-1.5,0.3
		c-0.7-1.2-1.5-2.4-2.7-4.4c-0.7,1.8-1.4,3.6-2.4,5.9c-1.3,0.1-1.3,0.1-2-4.3c6.8-2.9,9.5-8,7.7-15.5
		C432,38.1,433.6,36.7,434.8,34.9z"/>
	<path class="st0" d="M503.4,33.9c-3.3-1.4-6.6-2.8-9.6-4.1c2.1-2.5,4.3-2.8,7.4-0.3c1.9,1.5,3.6,1.4,4.8-0.5
		c-1.5-2.6-2.9-5.1-4.4-7.6c0.2-0.2,0.4-0.3,0.6-0.5c2.1,1.7,4.1,3.4,6.5,5.4c-3,1.8,0.5,7.7-5.4,7.5
		C503.3,33.8,503.4,33.9,503.4,33.9z"/>
	<path class="st0" d="M207,73.9c-5.3-3.9-11-1.1-16.5-1.1c0.9-3.6,3.7-3.2,6.3-3.2c5.2,0,10.4,0,16.1,0C211,71,209,72.4,207,73.9z"
		/>
	<path class="st0" d="M519.8,83.7c0.9-3.5,2.5-6.5,6.3-8.1c-0.1,0.9-0.1,1.6-0.1,1.7c3.6,0,7.3,0,11.1,0c0,0.5,0,0.9,0,1.4
		c-2.5,1.7-4.6,3.5-8.1,1c-1-0.7-3.9,1-5.9,1.8C521.8,82,520.8,82.9,519.8,83.7C519.7,83.6,519.8,83.7,519.8,83.7z"/>
	<path class="st0" d="M491.9,52.5c4.4-4.4,7.1-3,9,1.9c-1.4,2.6-5.6-2.6-6.3,3.2C493.4,55.2,492.6,53.7,491.9,52.5z"/>
	<path class="st0" d="M508.2,70.6c2.1-1.1,3.8-2,5.3-2.8c1.7,2,3.1,3.7,4.5,5.3C516.3,75.6,516.3,75.6,508.2,70.6z"/>
	<path class="st0" d="M509.5,61c0.2-0.4,0.7-1.2,0.8-1.3c2.4,0.4,4.6,0.8,7.7,1.4c-5,0.9-9.2,1.7-13.5,2.5c-0.3-0.3-0.6-0.6-0.9-0.9
		c1.1-1.2,2.1-2.4,3.3-3.4C507.1,59.1,508.4,60.3,509.5,61z"/>
	<path class="st0" d="M149.2,74.8c-2.5-0.2-5-0.3-7.5-0.6c-0.5-0.1-1.4-1.7-1.1-2c0.5-0.9,1.5-1.6,2.5-2.1c0.3-0.1,1,0.8,1.6,1.2
		c0.5,0.3,1.2,0.4,1.8,0.7c1.1,0.5,2.3,1,3.4,1.6C149.6,74,149.4,74.4,149.2,74.8z"/>
	<path class="st0" d="M492,35.1c-0.1,0.9-0.1,1.9-0.1,1.7c-3,1.8-5.2,3.2-8,4.9c0.5-2.5,0.2-5.3,1.3-6
		C486.8,34.7,489.3,35.2,492,35.1z"/>
	<path class="st0" d="M111.6,77c0.6,1.9,1,3.4,1.3,4.6c-3.6,0.3-6.9,0.6-10.3,0.9c-0.1-0.2-0.2-0.4-0.2-0.6
		C105.3,80.4,108.1,78.9,111.6,77z"/>
	<path class="st0" d="M519.2,34.5c-1.8-0.9-3.6-1.9-5.4-2.9c-0.2,0.3-0.7,1-1.3,2c-1.1-1.8-1.8-3-2.5-4.2
		C513.2,27.5,516.6,29.4,519.2,34.5C519.2,34.6,519.2,34.5,519.2,34.5z"/>
	<path class="st0" d="M508.1,48.7c1.5,5,1.2,5.5-3.1,5.5c-0.2-1.3-0.3-2.7-0.5-4.1C505.6,49.6,506.8,49.2,508.1,48.7z"/>
	<path class="st0" d="M223.2,73.1c-3.4-0.7-6.2-1.3-9.1-1.8c0-0.4,0.1-0.8,0.1-1.3c1.8,0,3.6,0,5.9,0c-0.1,0.2,0.3-0.4,0.8-1
		C221.6,70.1,222.2,71.2,223.2,73.1z"/>
	<path class="st0" d="M578.1,83.3c0.2-1.2,0.5-2.5,0.8-4.2c1.6,0.8,2.8,1.5,4.2,2.3c-0.3,0.8-0.6,1.7-0.7,2
		C581,83.3,579.7,83.3,578.1,83.3z"/>
	<path class="st0" d="M509.5,45.5c1.8-0.6,3.5-1.1,6.3-2c-1.2,2.1-1.8,3.2-2.5,4.5c-1.3-0.3-2.4-0.6-3.6-0.9
		C509.7,46.5,509.6,46,509.5,45.5z"/>
	<path class="st0" d="M130.6,113.4c1.4,1.7,2.4,2.9,4,5c-3,0.4-5,0.6-7.6,0.9C128.3,117.2,129.2,115.7,130.6,113.4z"/>
</g>
</svg>
