<?xml version="1.0" encoding="utf-8"?>
<!-- Generator: Adobe Illustrator 25.4.1, SVG Export Plug-In . SVG Version: 6.00 Build 0)  -->
<svg version="1.1" id="Layer_1" xmlns="http://www.w3.org/2000/svg" xmlns:xlink="http://www.w3.org/1999/xlink" x="0px" y="0px"
	 viewBox="0 0 501.4 247" style="enable-background:new 0 0 501.4 247;" xml:space="preserve">
<style type="text/css">
	.st0{fill:#FF0000;}
</style>
<g>
	<path class="st0" d="M6.9,229.1c2.2-2.5,7-2.2,9.8-0.1c1.9,1.4,4.7,1.9,7.2,2.2c0.4,0,1.4-3,1.8-4.6c0.7-2.9,1.3-5.9,1.9-8.9
		c0.1-0.3,0-0.7,0-1.4c-0.7,0.6-1.2,1.1-2,1.7c-0.1-1.4-0.2-2.5-0.3-3.3c-6.3-3-12.3-5.9-18.8-9.1c2.3-2,3.8-3.4,5.5-4.8
		c-1.5-0.4-3.1-1.4-3.6-1c-2.5,2.2-4.6,0.7-7,0 M153.8,193.3c0-2.1,0-3.2,0-3.6c-7.6,0.6-10.3,7.5-15.4,11.8
		c1.7,3.5,3.5,6.6,8.3,4.4c0.3-0.1,0.8,0.1,1.1,0.2c5.7,1.1,7.5-0.4,8-6.3c0.2-1.9,1.3-3.7,2.3-6.4c-0.1-0.2-0.9-1.3-1.6-2.4
		C155.7,191.6,155.1,192.2,153.8,193.3z M115.6,181.4c-3,0.3-6.3,0.7-9.3,1.1c0.2,1.2,0.9,3.4,0.4,3.7c-1.4,0.9-3.3,1.1-5,1.4
		c-0.9,0.2-2.1-0.1-2.8,0.3c-2.6,1.6-3.8,0.5-4.1-1.8c-1.4,1.3-2.6,2.5-4.4,4.1c1,1,2,2.1,3.1,3c1,0.9,2.1,1.7,2.7,2.1
		c1.8-0.6,3.4-1.5,4.9-1.5c2.5,0.1,4.9,1.1,7.4,1.3c1.2,0.1,2.8-0.4,3.8-1.1c1.4-1,2.4-2.4,3.7-3.6
		C112.4,186.4,112.4,186.4,115.6,181.4z M90,211.5c1,1.5,1.5,2.3,2.1,3.2c0.6-0.8,1.2-1.5,1.7-2.3c1.5-2.5,3-4.9,4.4-7.5
		c0.6-1.2,1-2.5,1.5-3.7c-0.4-0.2-0.7-0.3-1.1-0.5c-0.8,1.1-1.7,2.1-2.5,3.1c-1.1-0.6-2.1-1.1-3.1-1.6c3.8-2.7,4.1-3.7,2.4-8
		c-3.8,3.4-5.6,8.9-4,10.6c-2,3.2-4,6.3-6,9.4c0.2,0.1,0.4,0.3,0.7,0.4C87.4,213.7,88.7,212.6,90,211.5z M34.8,227.7
		c0.2,0.3,0.4,0.5,0.6,0.8c2.5-2,5.1-3.9,7.5-6c0.4-0.4-0.2-1.9-0.5-2.8c0-0.1-1.4-0.2-1.7,0.2C38.7,222.5,36.8,225.1,34.8,227.7z
		 M48.3,221.7c-3.4,2.6-3.3,4.1,0.6,8.5C48.6,226.9,48.5,224.5,48.3,221.7z"/>
	<path class="st0" d="M396.6,60.4c1,1,1.8,1.8,2.6,2.6c-1,0.3-2.1,0.6-3.1,0.9c-0.2,0.3-0.3,0.7-0.5,1c1.4,0.6,2.8,1.2,4.3,1.9
		c1.1-2.8,8.3-1.8,4.9-7.6c-0.1-0.1,0.7-0.7,0.6-0.9c-0.3-0.9-0.9-2.5-1.3-2.4c-6,0.4-6.9-8.6-13.4-7.2c-0.3,0.1-1-0.9-1.2-1.4
		c-1.3-3.8-4.3-4.7-7.9-4.8c-0.5,0-1-0.1-1.7-0.2c0.5-0.9,0.9-1.7,1.3-2.3c-1.8-0.6-3.4-1.1-5-1.7c-2.8-1-5.1,0.9-5,3.9
		c0,0.9-0.5,1.9-1,2.8c-0.8,1.6-1.8,3.2-2.9,5c3.1,1,5.7,1.8,8.1,2.6c0.3-1.5,0.7-3.3,1.1-5.6c1.4,1.6,2.6,3,3.7,4.2
		c-2.4,4.9-5.6,8.5-12.1,7.7c0.2,0.6,0.5,1.3,0.7,1.9c3.7,0,7.5,0,11.4,0c-0.6-0.7-1.2-1.5-1.8-2.2c0.8-0.8,1.6-1.7,2.5-2.7
		c0.5,1.2,0.8,2.1,0.9,2.3c5.9,0,11.2,0,17,0C397.8,59.2,397.2,59.9,396.6,60.4z M381.9,85.9c3.4-1.3,5.7-3.9,8.7-2.7
		c3,1.1,6.5-3.3,8.8,0.8c2.5-1,5-2,7.7-3.1c3.6,2.2,7.3,0.8,11.1-1.3c-1.1-1.6-2.1-3-3.1-4.3c4.4,1.5,5,8.2,10.2,7.1
		c0.9-1.7,1.7-2.8,2.1-4.1c0.2-0.6-0.2-2.1-0.5-2.2c-3.4-0.7-5.1-3-4.8-6c-2.1-0.7-4-1.3-6.1-1.9c0.1,1,0.2,1.9,0.3,2.7
		c-1.1,0.1-2.3,0.3-3.6,0.5c0.2,2.2,0.3,4.2,0.4,6.4c-3.6-1.6-6.8-2.1-10.4,0.1c-2,1.2-4.9,1-8.1,1.5
		C391.9,82.5,384.1,78.4,381.9,85.9z M101.5,68.7c-0.1,0.4-0.1,0.8-0.2,1.1c2.9,2.3,5.5,5.3,9.8,1.9c0.6-0.5,2-0.1,3-0.1
		 M396.3,89.6c2,2.4,3.9,4.7,6,7.2c1.2-1.4,2.5-2.7,3.7-4.1c0.1,0.3,0.1,0.6,0.2,0.9c4.6-1.4,9.1-2.8,14.2-4.4
		c-1.8,2.6-6.8,3.1-4.7,7.7c1.2-0.9,2.7-1.5,3.4-2.6c2-3.1,3.2-7,8.5-6.2c-0.2-0.5-0.4-1.1-0.6-1.6c-3.4,0-6.8,0-10.5,0
		c-0.3,0.7-0.8,1.8-1.4,3.1C409.1,89.6,403.2,89.6,396.3,89.6z M284.2,34.9c-1.2,1.8-2.8,3.2-2.6,4.1c1.9,7.5-0.8,12.6-7.7,15.5
		c0.6,4.4,0.6,4.4,2,4.3c0.9-2.3,1.6-4.1,2.4-5.9c1.2,1.9,1.9,3.2,2.7,4.4c0.5-0.1,1-0.2,1.5-0.3c-1.3-4.3,0.6-7,3.8-8.4
		C285.6,43.9,284.9,39.8,284.2,34.9z M56.4,73.9c2-1.5,4-3,5.9-4.3c-5.7,0-10.9,0-16.1,0c-2.6,0-5.5-0.5-6.3,3.2
		C45.4,72.8,51,70,56.4,73.9z M341.3,52.5c0.7,1.2,1.5,2.7,2.7,5c0.7-5.8,4.9-0.6,6.3-3.2C348.4,49.5,345.7,48.1,341.3,52.5z
		 M357.6,70.6c8.1,5,8.1,5,9.8,2.5c-1.4-1.7-2.8-3.4-4.5-5.3C361.4,68.6,359.7,69.5,357.6,70.6z M358.8,61c-1.1-0.8-2.3-1.9-2.6-1.7
		c-1.2,0.9-2.2,2.2-3.3,3.4c0.3,0.3,0.6,0.6,0.9,0.9c4.2-0.8,8.5-1.6,13.5-2.5c-3.1-0.6-5.2-1-7.7-1.4
		C359.5,59.8,359.1,60.6,358.8,61z M341.3,35.1c-2.6,0.2-5.2-0.3-6.8,0.7c-1.1,0.7-0.8,3.4-1.3,6c2.8-1.7,5-3.1,8-4.9
		C341.2,36.9,341.3,35.9,341.3,35.1z M111,77c-3.5,1.9-6.3,3.4-9.2,4.9c0.1,0.2,0.2,0.4,0.2,0.6c3.3-0.3,6.7-0.6,10.3-0.9
		C112,80.4,111.5,78.9,111,77z M357.4,48.7c-1.3,0.5-2.5,1-3.6,1.4c0.2,1.5,0.4,2.8,0.5,4.1C358.6,54.2,359,53.6,357.4,48.7z
		 M72.5,73.1c-1-1.8-1.6-2.9-2.2-4.1c-0.5,0.6-0.9,1.2-0.8,1c-2.4,0-4.2,0-5.9,0c0,0.4-0.1,0.8-0.1,1.3
		C66.3,71.8,69.1,72.4,72.5,73.1z M427.5,83.3c1.6,0,2.9,0,4.3,0c0.1-0.3,0.4-1.2,0.7-2c-1.4-0.7-2.7-1.4-4.2-2.3
		C428,80.8,427.7,82.2,427.5,83.3z M358.8,45.5c0.1,0.5,0.2,1,0.3,1.5c1.1,0.3,2.3,0.6,3.6,0.9c0.7-1.3,1.3-2.4,2.5-4.5
		C362.3,44.4,360.6,44.9,358.8,45.5z"/>
	<path class="st0" d="M0,86.8c0.4-3.4,0.8-6.3,1.2-9.4c1.2,0.7,2.2,1.2,4,2.3c-0.2-2.8-1.3-5.7-0.3-7c1.1-1.5,4.1-1.5,5.7-2.1
		c1.3,0.5,2.9,1.4,3.1,1.2c3.2-4.5,6.7-1.5,10.4-0.7c0.4-0.6,1-1.4,1.4-2c1.8,1,3.4,2,5.1,2.5c0.3,0.1,1.3-2.1,2.1-3.5
		c1.4,0.2,3.3,0.3,5.1,0.9c0.3,0.1,0.4,2.5-0.1,3c-1.6,1.5-3.5,2.6-5.5,4c-0.8-1-1.7-2.1-2.5-3.1c-0.1,0.4-0.2,0.8-0.3,1.2
		c-2.1-0.2-4.2-0.5-6.3-0.6c-4.6,0-9.2,0-13.8,0.4c-1,0.1-2.1,1.6-2.6,2.7c-0.2,0.5,0.9,1.7,1.6,2.4c3.5,3.2,7.2,0.6,11.1-0.2
		c-0.1,1-0.2,1.8-0.3,3.1c5.4-1.6,10.7-4.8,16.7-0.7c0.7-0.4,2.1-1,3.6-1.8c0.6,2.4,1.5,2.1,3.5,1c3.2-1.7,6.7-3.5,10.5-1.1
		c0.5,0.3,1.3,0.4,1.9,0.3c4.6-0.4,9-0.3,11.3,3.7c2.4-1.3,4.3-2.7,6.4-3.2c0.6-0.1,1.8,2.6,3.1,4.5c0.5-0.2,1.6-0.7,3-1.4
		c-1.3-1.5-2.4-2.7-3.7-4.3c4.2,0.4,7.9,0.8,11.9,1.2c0.5-0.9,1.1-1.8,1.7-2.9c0.6,1.4,1.1,2.7,1.4,3.3c1.5-0.8,2.9-2.2,4.2-2.1
		c3.4,0.2,7.4-1.3,9.7,2.5c2.9-0.8,5.7-1.5,7.8-2.1c1.2-2.4,2.2-4.4,3.3-6.4c0.6,0.2,1.1,0.3,1.7,0.5c-0.3,1.9-0.7,3.8-1,5.8
		c0.9,0,1.8,0.1,2.7,0c3.9-0.4,7.7-1.8,11.7,0c1.4,0.7,3.6,0.6,5.1,0.1c6.5-2.1,12.7-0.6,19,1.1c0.2-2.1,0.2-2.1-5.9-6.1
		c1.5,0,3,0,4.6,0c0.4-0.9,0.9-1.9,1.8-3.9c1.2,1.7,2.1,2.9,3.1,4.3c3.9-0.6,1.9-4.3,3.3-7.5c2.2,2.4,4.5,4.2,5.7,6.5
		c2,4.2,5.6,2.9,8.7,3.3c3.7,0.5,7.4,0.7,11.2,1c1.5,0.1,2.9,0,4.4-0.1c0.6-0.1,1.2-0.8,1.8-0.7c5.3,1,6.5-4.4,10.2-6.3
		c0.1,1.1,3.4,1.2,0.8,3.8c-0.6,0.6,2.2,3.1,4.7,1c-0.3-0.8-0.6-1.8-1-2.7c0.4-0.3,0.6-0.6,0.8-0.6c5.6-0.5,11.1-1.3,16.7-1.4
		c3.2,0,6.4,0.8,9.5,1.8c0.9,0.3,1.2,2.2,2.5,3.4c-0.2-2.1-0.3-4.2-0.6-7.4c2.6,4.6,7.4,4.9,10.4,2.1c1.4-1.2,3.6-1.5,5.6-2.2
		c0.9,2.4-1.2,6.7,4.1,4.4c1.1-0.5,3.8,2.2,6.4-1.1c-2,0.2-3.3,0.3-4.6,0.4c-0.6-3.9,2.9-5.5,5.6-2.3c0.9,1,1.2,2.5,2.3,4.9
		c-2.6,0.6-5.3,1.3-7.9,1.9c3.8,5.9,5.5,7.2,9.4-3.7c4.7,0.2,9.6,0.9,14.3,0.5c2.4-0.2,4.8-2,7.1-3.3c1.5-0.9,2.8-2.5,4.5,0.4
		c-1.4,0-2.3,0-3.4,0c1.8,3.8,4.3,4.2,6.7,1.2c0.3-0.4,0.5-1.1,1-1.3c5.9-2.6,5.1-7.6,4.6-12.6c-0.3-3,3.6-9.2,6.8-10.5
		c-1-2.7,0.4-6.7-4.9-6.8c-1.3,0-2.4-2.6-3.7-3.9c-2-1.9-4.1-3.6-6.2-5.4c-0.3,0.3-0.7,0.7-1,1c0.7,1,1.4,1.9,2.6,3.7
		c-5.8,0.1-3.9-6.2-8.3-7.4c0.4,5.5,0.7,10.7,1,15.9c-0.3,0.1-0.5,0.1-0.8,0.2c-1-4.4-2-8.8-3-13.3c-5.1-0.7-2-9.5-8.8-9
		c0.4-0.2,0.9-0.6,1.2-0.4c5.8,2.5,12.2,3.6,17.4,7.6c3,2.3,5.9,4.6,9.1,6.6c1,0.6,2.7,0.5,4,0.3c2.4-0.5,4.8-1.3,6.3-1.7
		c-1.4-2.3-3.2-4.9-4.5-7.8c-0.7-1.5-1.4-4.4-0.7-4.9c1.4-1.1,3.7-0.9,6-1.4c-1-1.5-2.1-3.2-3.2-4.8c1.1-1.2,2.2-2.3,3.5-3.7
		c0.5,0.2,1.4,0.5,2.5,0.9c2.2-5.4-0.4-9.1-3.7-12.6c2.2-0.3,4.1-0.6,4.9-0.7c7.1,5.7,13.8,11.1,20.6,16.6c-0.7,0.2-1.3,0.5-2.1,0.8
		c4.1,1.3,8.1,2.6,12.1,3.9c-0.2,0.7-0.3,1.5-0.5,2.2c-1.2-0.2-2.4-0.5-3.6-0.7c-1.3-0.2-3-0.9-3.9-0.4c-2.5,1.5-4.4,3.3-7.9,2.1
		c-1.4-0.5-3.6,1.3-5.5,1.6c-1.6,0.3-3.7,0.2-4.7,1.1c-0.7,0.7-3.7,3.1,0.2,4.3c-1.3,1.9-7.1-0.7-4.6,5.2c-1.3,0.5-2.6,1-4,1.5
		c0,0.2,0,0.4,0.1,0.6c5.4-0.8,10.9-1.7,16.3-2.5c1.1,7.5,2.2,8.6,6.8,7.5c0.6-0.1,0.8-1.4,1.3-1.9c1.2-1,2.4-2,3.8-2.5
		c2.6-0.9,5.1-1.6,2.6-5.5c2.7,0,4.7,0,6.8,0c0,0-0.1-0.1-0.1-0.1c0.4,0.5,0.7,1.3,1.2,1.5c3.3,1.2,6.7,2.2,10.5,3.5
		c1.1-1.1,2.7-2.7,4.3-4.3l-0.1,0.1c3,3.6,3,3.6-0.9,5.3c-4.7,2-9.3,4-14,6c-2.5,1.1-6.1-1.9-7.8,2c0,0.1-0.3,0.1-0.4,0
		c-6.2-3.9-8.7,4.8-14.2,3.3c0,0.4,0,0.9,0.1,1.3c2.8,0.4,5.5,0.8,9.3,1.4c-1.4,1.9-2.3,3.3-3.7,5.3c0.7,2.2,3.2,4.8,8.3,3.1
		c0.1,1.5,0.1,2.6,0.2,3.3c-2.1,0-4,0-5.6,0c-0.7-0.7-1.4-2-2.3-2.1c-4.2-0.3-3.5,3.7-5.1,5.6c-2-3.3-0.7-6.7,3.7-8.1
		c-0.4-6.6-6.6-1.5-9.5-5.3c2-0.3,3.4-0.5,5.3-0.8c-1.1-0.9-1.9-2-2.9-2.6c-1.7-0.8-3.6-2.4-4.7,1c-0.4,1.2-2,2.2-3.3,2.8
		c-4.5,2.1-5.3,6.8-6.9,10.6c-0.7,1.6,1,4.2,1.5,6.3c0.4-0.1,0.9-0.2,1.3-0.2c0.2-1.4,0.4-2.8,0.6-4.2c0.2,0,0.4-0.1,0.6-0.1
		c0.4,1.5,0.8,3,1.2,4.9c1.6,0.1,3.2,0.3,5.2,0.5c-1.8,3.1,0,3.9,2.5,4c4,0.1,8,0.1,11.9,0.1c1.5,0,3-0.5,4.3-0.2
		c0.8,0.1,1.6,1.2,1.9,2c0.1,0.4-0.9,1.3-1.5,1.8c-1.1,0.8-2.2,1.4-3.4,2.1c0.1,0.4,0.2,0.8,0.3,1.2c1.4,0.4,2.9,0.8,4.6,1.2
		c0,0.8-0.1,1.9-0.2,3c0.2,0.1,0.4,0.1,0.7,0.2c0.7-3.4,1.5-6.9,2.2-10.3c0.6,0.1,1.3,0.2,1.9,0.2c0,3.4,0,6.9,0,10.3
		c2.1-1.7,6-2.2,3.5-6.1c-0.4-0.6,2.7-4.3,4.9-5.4c2.3-1.2,5.3-1.2,8-1.1c1.1,0,2.1,1.5,2.9,2.7c-7.9,0.4-7.9,0.4-7.5,5.7
		c3,1.6,5.7,2.4,7.6-1.5l-0.1-0.1c-0.1,0.7-0.3,1.5-0.3,2.2c0.1,1.1,0.4,2.3,0.5,3.4c1.1-0.7,2.7-1.2,3.2-2.2
		c0.9-1.6,1.1-3.6,1.6-5.5c0.5,0.1,1,0.3,1.4,0.4c-0.3,1.1-0.6,2.2-1.2,4.2c3,0.9,6.1,1.8,9.3,2.7c-0.2,0.8-0.5,2-1,3.9
		c3.9-1.4,6.9-2.5,10.8-3.9c-0.8,2.4-1.3,3.8-1.7,5.1c-2.4,0.6-4.7,1.2-6.8,1.7c-2.9-3-3.6,0.7-4.8,1.9c-1.7-1.4-3.3-2.7-4.9-4
		c0-0.6,0.5-2.3-0.1-2.8c-0.7-0.7-2.3-0.6-3.5-0.4c-1.7,0.2-3.3,0.8-4.5,1.1c-0.6,1.7-1.1,3.3-1.5,4.4c-4.1-0.7-7.6-1.4-12.4-2.2
		c1.5,1.3,2.1,1.9,2.7,2.4c-3.1,1.5-3.1,1.5-4.4-2.8c-0.3,0-0.7,0.1-0.7,0.1c-0.2,3.9-2.9,4.6-6.1,5.2c-1.3,0.2-2.3,1.5-4.2,2.8
		c4.8-0.7,8.5-1.3,12.5-2c0.7,1.3,1.5,2.7,2.9,5.2c0.6-2,0.8-2.9,1.2-4c1,0.2,2.1,0.4,2.9,0.5c1-1.1,1.9-2.1,3.2-3.4
		c0.8,2.3,0.3,5.1,3.2,2.6c0.6-0.5,2,0,3-0.1c1-0.1,2.1-0.4,3.6-0.7c-0.1,1.1-0.2,2.8-0.4,5.3c1.5-1.1,2.6-1.9,3.7-2.6
		c0.8-0.5,1.8-1.5,2.6-1.4c3.1,0.2,6.2,0.7,9.3,1c1.3,0.1,2.7-0.2,4.1-0.4c2.6-0.4,5.2-1.2,7.8-1.4c3.2-0.3,6.5,0,9.7-0.3
		c1.3-0.1,2.6-1.1,4.3-1.9c0.7,1.5,1.9,3.6,5.4,3.9c2.1,0.2,4,2.9,5.3,4c1.8,2,3.2,3.5,4.8,5.3c1.5-2.9,3-3.4,6.1-2.1
		c5.9,2.6,9.9-0.6,10.1-8c-2.7,0.5-5.1,1-8.1,1.7c0,0.1-0.5-0.8-1-1.8c2.9-1.5,6.1-3.1,10.3-5.2c-3.3-1.5-6-2.8-8.5-3.9
		c3.4-3.6,4.2-3.6,6.8,0.9c4.8-2.7,6.1,3,9.5,3.9c1.3,0.4,2.6,0.9,4.5,1.5c-1.4,0.5-2.8,1.1-4.2,1.5c-1.6,0.5-3.5,0.4-5,1.2
		c-0.8,0.5-1,2.1-1.3,3.3c-0.1,0.3,0.8,0.8,1.2,1.2c0.6-0.7,1.2-1.5,1.8-2.2c0.3,0.1,0.5,0.2,0.8,0.3c-0.9,2.4-1.8,4.7-2.7,7.1
		c0.2,0.2,0.3,0.4,0.5,0.7c1.3-1.1,2.8-2.1,3.7-3.4c1.3-2.1,2.7-3.7,5.4-3.1c3.7,0.9,6-2.2,9-2.8c2.1-0.4,4.8,0.4,6.6,1.7
		c1.2,0.9,1.3,3.3,1.9,5.1c0,0.1-0.6,0.3-1.2,0.6c-0.7-1.4-1.3-2.7-1.9-3.9c-1.2,1.7-2.2,3.2-3.4,4.9c2.3,1.2,4.6,2.3,6.9,3.5
		c-1.9,3.2-3.6,6.1-5.3,9c0.4,0.4,0.7,0.8,1.1,1.2c2.8-0.6,5.6-1.2,8.4-1.7c1.1-0.2,2.2,0,4.1,0c0.3-0.5,1.1-1.9,2-3.3
		c-1-0.6-1.9-1.2-2.8-1.8c5.7,1.2,12-0.4,16.6,4.2c0,1.1,0,2.1,0,3.2c-3.6,1.6-7.1,3.3-10.7,4.7c-2.9,1.2-7,1.3-8.6,3.4
		c-3,3.8-7,3.8-10.8,4.8c-1.7,0.5-3.5,0.3-6,0.4c-1.3,2.8-4,4.2-8.6,4.4c-4.7,0.2-9.4,2.8-14,4.7c-7.1,2.9-14,5.9-21,9
		c-0.6,0.3-1.3,1-1.5,1.6c-0.5,2-1,3.6-3.7,2.9c-0.5-0.1-1.2,1.3-2,1.7c-0.7,0.3-1.6,0.2-3,0.4c1.5-2.1,2.5-3.3,3.4-4.6
		c-2.6-2.5-4-1.5-4.7,1.3c-0.7-0.8-1.1-1.3-1.9-2.3c-0.5,2-0.9,3.6-1.4,5.2c1.7,1.6,3.5,3.2,5.2,4.9c-2.9,3.8-3.9-0.7-5.8-1.7
		c-0.3,1.5-0.6,2.8-1.1,4.6c-1.4-3.8-2.6-3.6-5.6-1.6c-5.7,3.6-10.3,8.9-17.2,10.6c-1,0.2-2.3,0.7-2.7,1.5c-3.4,5.6-10,5.5-14.8,8.5
		c-0.9,0.6-2,0.9-2.6,1.7c-4.4,5.6-10.5,6.9-17.3,7.3c0.4,0.7,0.9,1.5,1.5,2.4c-2.2,0.1-4,0.2-5.8,0.3c0.4,0.8,0.8,1.6,1.2,2.4
		c-3.4,4.9-6.3,6.7-10.8,6.3c1.3-0.8,2.5-1.1,2.9-1.9c0.3-0.7-0.3-1.9-0.6-3.4c-1.7,1.8-3.1,3-4.1,4.5c-2.4,3.3-4.5,6.9-7.1,10
		c-1.2,1.4-3.3,2.1-4.6,2.9c-1.9,2.3-3.4,4.6-5.4,6.2c-4.1,3.4-8.4,6.5-12.9,9.9c-1.6-1.2-3.3-2.6-6-4.7c-0.5,5.4-0.9,9.8-1.3,14.7
		c-1.5-2.9-2.6-5.1-3.8-7.4c-0.1-0.1-0.2-0.3-0.1-0.4c0.9-2.3,2.3-4.5,2.5-6.8c0.1-1.9-1.3-3.9-2.1-5.9c0.3-0.1,0.6-0.3,0.9-0.4
		c-1.6-1.3-3.2-2.6-5-4.2c0.9-0.5,1.8-1,2.4-1.3c-0.6-2.7-1.7-5.3-1.7-7.9c-0.1-7.9-1.8-15.8,0.7-23.7c0.9-2.7,0.4-6.2-0.4-9.1
		c-0.4-1.5-2.8-2.4-4.1-3.4c1.8-0.2,3.6-4,7.6-1.4c-0.6-1.4-1.2-2.9-1.9-4.7c-1.2,1.4-2,2.2-3.4,3.8c-0.6-3.1-1-5.4-1.4-7.8
		c-0.4-0.2-0.7-0.3-1.1-0.5c-1.9,4.8-5.7,4-9.2,3.8c-5.8-0.3-11.3,0.7-16.7,2.7c-1.5,0.5-3.2,0.7-4.7,0.6
		c-8.7-0.8-17.4-2.9-25.9-2.2c-6.1,0.5-11.7-0.9-17.5-1.4c-1.4-0.1-3,0.5-4.4,0.8c-1.8,0.4-3.6,1-5.4,1c-9.7-0.1-19.5-0.1-29.2-0.7
		c-3.4-0.2-6.8-2-10.5-2.3c0.5,0.5,1,0.9,1.5,1.4c-8.4,3.9-17,5.1-26.4,4c-9.2-1.1-18.5-0.8-28.8-1.2c-4.3,4.1-6.6,4.5-8.4,0.2
		c-1.2,0.5-2.4,1-3.7,1.5c-0.5-3.4-3.4-3-4.6-2c-2.1,1.8-4.2,1.2-6.2,1.3c-5.2,0.4-10.4,0.3-15.5,0.7c-3.9,0.3-7.7,1.4-11.5,1.7
		c-2.6,0.2-5.2-0.3-7.9-0.5c-0.3,0.3-1.4,1.8-1.7,1.7c-1.9-0.9-3.5-2.1-5.3-3.2c-0.3-0.7-0.6-1.5-0.9-2.2c-1,1.8-1.9,3.6-2.9,5.4
		c-0.5-0.2-1-0.4-1.4-0.5c0.3-1.7,0.5-3.5,0.8-5.7c-0.6-0.2-1.7-0.5-3-0.9c1.4,4.8-2.3,5.2-5.2,6.5c0.7,1.4,1.3,2.6,1.9,3.9
		c-7.6,3.7-10.7-4.6-17-6.4c1.6,4.4-0.7,5-3.6,5.1 M105.2,181.5c0-0.3,0-0.6,0-0.9c-1.2,1-2.5,2-3.7,2.9c0-0.3,0-0.7,0-1
		c-1.4-0.1-2.8-0.2-4.1-0.3c-0.9-0.1-1.8-0.1-2.7-0.2c-1,0-2.1-0.4-2.9,0c-2.4,1.1-4.4,1.2-6.6-0.8c-0.7-0.6-3.8-0.1-3.8,0.3
		c-0.6,3.3-3.6,3.4-5.5,3.6c-5.5,0.5-11.1,0.2-16.6,0.4c-1.3,0-3.1,0.6-3.7,1.5c-0.6,0.9-0.6,3.2,0.1,3.9c1.9,1.9,4.3,3.2,7,5.1
		c0,0.3,0,1.5,0,3.2c-1.9,0.6-4.3,1.3-6.8,2c-1.1-2.2,1.7-6.2-2.6-6.9c-1.5,2.3-2.7,4.6-4.4,6.4c-0.8,0.8-2.6,0.6-4.4,0.9
		c2.1-4.9,3.9-9.1,5.7-13.3c-0.2-0.3-0.4-0.6-0.7-0.9c-1.6,1.1-3.4,2-4.7,3.4c-2.9,3.2-5.9,6-11.3,4.9c2.7-2.3,5.4-4.6,8.6-7.4
		c-3.6-1.2-6.1-2.4-8.7-2.7c-2.2-0.3-4.6,0.4-6.9,0.5c-4.1,0.2-8.3,0.4-12.4,0.5c-2.2,0-2.2-0.1-3-2.8c4-0.3,8-0.5,11.9-0.8
		c3.5-0.3,7-0.7,10.5-1c0-0.7,0.1-1.4,0.1-2.1c-1.3-0.3-2.7-0.9-4-0.9c-5.2-0.1-10.4-0.2-15.6-0.1c-2.2,0-4.4,0.3-6.7,0.5
		c0.4,2.2,0.8,4,1.2,5.8c-0.3,0.2-0.6,0.4-0.9,0.6c-0.7-0.6-1.9-1-2-1.7c-1.3-5.3-3.7-10.1-1.9-16.2c1.3-4.6,0.3-9.9-0.2-14.9
		c-0.1-1.4-1.8-2.6-3-4.1c0.7-1,1.6-2.4,2.5-3.8c0.5-0.3,1-0.6,1.4-0.9 M4.1,134.1c0.9-7.1,1.3-14.2,1.5-21.4
		c0.1-1.8-1.3-3.6-2.2-5.8c0.3-0.2,1.3-0.9,2.7-2c-0.9-1.7-1.8-3.4-2.7-5.1c-0.3,0.1-0.6,0.3-0.9,0.4c0.1-0.5-0.1-1.2,0.2-1.5
		c6.1-6.2,4.7-14.3,5.4-21.8c0.4-4.2,0.7-8.3,2.1-12.5c0.7,4.1,1.4,8.2,2.1,12.3c0.5,0,1,0,1.5,0c1-5.5-1.8-11.8,3-17.9
		c0.4,2.4,0.7,3.7,0.8,5c0.1,3.2,0.3,6.4,0,9.6c-0.3,3.5,0.8,5.6,4.3,5.8c0.7,3.8,1.4,7.4,2.1,11.1c0.5,0,1.1-0.1,1.6-0.1
		c2.4-5.3-2.7-10.7-0.9-16c5,6.2,6.5,6.3,10.4,0.7c-2.8-0.4-5.6-0.8-8.7-1.2c0.1-2.4,0.6-5.1-3.3-3.7c-0.8,0.3-2.4-1.9-3.9-3.2
		c7.6-0.2,8.3,0.1,9.8,4c2.2-0.8,4.4-1.7,6.9-2.6c0.2,1.1,0.4,2,0.4,2.3c20.9-0.7,41.3-4.5,62.1-1.8c0.1,1.6,0.3,2.9,0.4,4.8
		c-3.4,0.6-6.7,1.2-10.1,1.8c-0.2-0.3-0.3-0.6-0.5-0.9c0.4-0.6,0.9-1.3,1.5-2.2c-3.9-1.6-7.7,4.2-11.5-0.4c-1,1.5-1.8,2.7-2.6,3.9
		c2,1.5,4,3,6.2,4.6c-2,0.9-3.4,1.5-4.9,2.2c0.1,0.4,0.2,0.7,0.3,1.1c2.2-0.2,4.5-0.4,7.2-0.7c0.7,2.4,2.9,1.9,5.6,0.8
		c1.8-0.7,3.8-0.8,5.7-1.3c1-0.3,1.9-0.8,3.4-1.5c0.1,0.7,0.2,2.1,0.3,4c1,0.2,2.5,0.5,3.6,0.8c-0.8,1.1-1.6,2.4-2.5,3.7
		c1.6,0.9,3.2,1.9,5.7,3.3c-0.4-2.1-0.6-3.2-0.9-4.9 M54,95.3c1.3,1,2.5,2.5,3.9,2.7c1,0.1,2.2-1.7,3.3-2.7
		c-0.8-0.6-1.8-1.8-2.5-1.7C57,93.9,55.4,94.8,54,95.3c-0.8-0.6-1.5-1.8-2.2-1.8c-2.2,0-4.4,0.4-6.7,0.7c0.4,1.5,0.7,2.5,0.8,3
		C48.8,96.6,51.4,96,54,95.3z M341.3,158.2c0-1.7,0-3.4,0-5.1c-0.5,0-1-0.1-1.5-0.1c-0.6,2-1.1,4.1-1.9,6.9c1.8-0.9,2.7-1.3,3.6-1.8
		c0.4,0.6,0.6,1.6,1.1,1.6c3.1,0.6,3.5,1.4,1.9,4.2c-0.4,0.8-0.5,1.8-0.8,2.6c0.2,0.1,0.5,0.3,0.7,0.4c2-1.5,3.9-3.1,5.9-4.6
		c0-0.4,0-0.9-0.1-1.3C347.3,160.1,344.3,159.1,341.3,158.2z M339.5,132.2c-1.1-1.9-2-3.9-3.2-5.8c-0.6-0.9-1.4-1.7-2.2-2.5
		c-1-1-2.1-1.9-3.1-2.8c-4.1,0.9-8.7,2-13.8,3.1c0,0.3,0,2.1,0.3,2.1c2.5,0.3,5.1,0.4,7.9,0.6c-0.5,0.7-1,1.6-1.6,2.6
		c5.9,2,8.1,1.3,10.9-2.9c0.8,1.8,1.7,3.7,2.5,5.5c-4.8-2.2-3,4-6,4.1c-0.8-0.5-1.9-1.3-3.1-2c-1.1,1.5-2.2,3-2.7,3.6
		c-2.6-3-4.6-5.4-6.3-7.5c-3.9,2.7-7.4,5-11.8,8c1.8-0.1,2.8-0.2,3.7-0.2c2.1,0.1,4.2,0,6.2,0.5c0.5,0.1,0.5,2.1,0.8,3.3
		c1.7,0.4,3.5,1,5.3,1.1c2.2,0.2,4.7,0.6,6.7,0c2.3-0.8,4.2-2.8,6.4-3.9C339.4,137.5,340.6,135.4,339.5,132.2c0.6,0.9,1.3,2,2.4,3.6
		c1-1.4,2.4-2.9,2.2-3.3c-0.9-1.3-2.4-2.1-3.8-3.3C339.9,130.5,339.7,131.3,339.5,132.2z M8.7,132.3c0.6-0.8,1.7-2.1,2.6-3.3
		c2,1.5,3.7,2.8,6.2,4.6c-2.7,0.5-4.1,0.8-5.5,1.1c0,0.3,0.1,0.6,0.1,0.9c3.9,0,7.9,0,11.9,0c0.3-2.6,0.1-2.8-4.3-3.6
		c4.5-1.8,8.2-1.9,10.9,3.3c0.2-1.9-0.5-3.3-0.2-4.5c0.3-1.4,1.6-2.5,2.2-3.4c2,1.1,3.6,1.9,5.1,2.7c0.9-1.6,1.6-2.8,2.4-4.2
		c1.6,1.1,2.8,1.9,3.8,2.7c2.4-2.1,4.6-4.1,6.8-6.1c-0.3-0.4-0.6-0.8-0.8-1.2c-6.4,0.7-12.8,1.5-19.2,2.2c1.1-2.4,2-4.5,3.1-7
		c0.5,0,1.8,0,2.9,0c0.2,0.8,0.4,1.5,0.5,2.1c6.7-0.2,13.3,3.1,20.2-0.9c-1.4-1.2-2.5-2.1-3.8-3.2c-0.4,1.6-0.6,2.5-1,4
		c-2.5-6-2.1-7.5,2-10.6c-0.7-0.9-1.4-1.7-2.3-2.9c1.9-0.2,3-0.4,4.1-0.5c-0.5-1.4-0.9-2.8-1.6-4.9c-1.5,1.3-2.5,2.2-3,2.6
		c-1.9,0-3.5,0-5.1,0c0.1,0.7,0.1,1.5,0.3,3.3c-3.7-4.2-6.4-0.9-9.8,0.3c0.3,1.7,0.6,3.4,0.9,4.9c3.8-0.2,6.9-0.5,11-0.7
		c-0.9,2.7-1.3,5.2-2.5,7.3c-0.4,0.7-3,0.6-4.3,0c-1.3-0.6-2.1-2.2-3.1-3.3c-3.5-1.3-7.2-0.7-10.7,1.8c-3.3,2.3-5.3,1.7-5.9-1.7
		c-1.9,2-5.9,1.5-5.8,5.6c2.4,0.7,4.6,1.4,6.9,2c0,0.5-0.1,0.9-0.1,1.4c-2.9,0.3-5.9,0.8-8.8,0.8c-0.5,0-1.4-2.1-1.3-3.2
		c0.2-1.8,1.2-3.5,1.6-5.3c0.1-0.6-0.5-1.4-1.1-2.9c-1,2.6-1.4,3.6-1.8,4.6c-0.2-0.3-0.3-0.6-0.5-0.9c-1.8,0.6-3.7,1.1-5.5,1.7
		c0,0.4,0.1,0.8,0.1,1.3c1.7,1,3.4,2,5.1,3c0,0.5-0.1,0.9-0.1,1.4c-2.8,0.1-5.6,0.1-8.4,0.4 M5.1,116c1.1-3.2,0.4-3.8-2-4.3
		 M6.5,107.6c0.3-0.1,0.8,0.5,1.2,0.9c1,1,1.8,2.7,2.9,2.9c2.4,0.6,5,0.5,7.5,0.6c0.1-0.4,0.1-0.8,0.2-1.1c-1.9-0.4-3.7-0.8-6.5-1.4
		c1-1.8,1.9-3.2,2.7-4.7c-0.9,0-2.4-0.4-3.8-0.2 M111.5,94.8c-3.1,1.2-7.5,0.2-9.4,4.3c-0.1,0.2-0.7,0.3-0.8,0.3
		c0.5,1.6,1,3.1,1.6,5c-2-0.5-3.2-0.9-4.4-1.2c-1.4,2.6-3.7,4.9,0.6,7.3c2-2.7,3.9-5.2,5.7-7.8c1.3-1.8,5.2-2.1,7.2-0.6
		c-2.3,0.6-4.6,1.3-7,1.9c0.1,0.3,0.2,0.7,0.3,1c1.4,0,3-0.3,4.3,0.1 M109.4,108.3c1,0.9,2.1,1.9,3.1,2.8c-0.2,0.2-0.4,0.5-0.6,0.7
		c-1.6-0.8-3.2-1.5-4.8-2.3c-0.2,0.2-0.4,0.4-0.7,0.5c0.9,1.6,1.8,3.1,2.2,3.9 M111.4,119.7c-1.5-1.4-2.2-2.6-3.1-3
		c-2.1-0.7-4.6-0.8-6.6-1.6c-3.4-1.4-5.6-0.5-6.8,3.2c1.2,0.8,2.3,1.7,3.2,2.4c-2.1,1.2-3.9,2.2-5.8,3.2c3.3,1.2,5.8,2.2,8.4,3
		c0.4,0.2,1.2,0.1,1.5-0.1c1.5-1.5,2.8-3.1,4.2-4.6c0.7,1.3,1.4,2.6,1.7,3.2 M98.1,114.4c0.2,0.7,0.4,1.5,0.6,2.2
		c3.8-0.9,8-1.2,11.2-3c2.1-1.2,3.5-1.3,4.6,0c2.4,2.9,3.4,1,4.7-0.9c0.9-1.2,1.9-2.3,2.5-3c3.1,1.4,5.6,2.5,7.5,3.4
		c1.4-0.9,2.5-1.6,4.6-3c-1.4,3.4-2.4,5.7-3.1,7.4c4.4,0,8.7,0,13.1,0c0-0.3,0-0.5,0-0.8c-1-0.4-2-0.9-3.2-1.5
		c4.6-2.3,8.8-4.5,13-6.7c0.9-0.5,1.8-1.6,2.2-2.6c0.4-1,0.1-2.3,0.1-3.5c-1,0.5-2,0.9-2.9,1.5c-0.6,0.3-1.1,0.7-1.5,1.1
		c-2.3,1.8-5.2,3.1-6.6,5.4c-1.6,2.8-2.8,1.8-4.2,1.4c1.9-2.2,3.8-4.2,5.6-6.2c-2.1-3.4-4.2-3.8-7.8-2c-4.9,2.5-10.7,1.5-16.1,1.6
		c-3.7,0-7.4-0.7-11-0.8c-2.3-0.1-4.6,0.3-7.2,0.6c0.3-1.7,0.5-2.6,0.7-3.4c-3.7-1.1-7.5,1.3-10.8-2c-0.9-0.9-4.3,0.8-5.9,1.1
		c-1.2,2.8-2.1,4.9-3,7.1c-0.4-0.2-0.7-0.3-1.1-0.5c0.3-0.9,0.7-1.9,1-2.8c-0.4-0.3-0.8-0.6-1.2-1c-0.5,0.9-0.9,1.8-1.4,2.7
		c0-5.2-1-9.5-6.6-10.8c-0.5,1.9-0.9,3.8-1.4,5.9c-1.1-0.7-1.1-0.7-5,3.2c1.2,2.2,2.3,4.4,3.6,6.9c-2.8,0-6,0-8.4,0
		c1.1-1.7,2.1-3.3,3.7-5.8c-1.6,0.6-2,0.9-2.5,1c-1.9,0.3-5.2,3.3-4.6-2.1c0-0.2-1.6-0.6-2.3-0.8c-0.5,2.3-0.9,4-1.3,5.7
		c1.1,0.6,2.2,1.1,3.2,1.6c-0.6,2-1.1,3.7-1.8,5.7c3.8,0.6,7.3,1.1,11.7,1.8c1.3-1.5,3-3.8,5-5.9c3.5-3.5,8.2-3.3,12.7-3.4
		c0.3,0,0.6,0.7,1.2,1.3c-2.3,0.6-4.1,1-6.6,1.7c3.4,1.7,6.3,3.2,9.2,4.7c-0.1,0.3-0.1,0.6-0.2,1c1.3-0.5,2.6-1,4.1-1.6
		c-0.6-2.9-1.1-5.6-1.5-7.7c3.5,1.5,7,2.9,10,4.2C102.6,113.3,100.4,113.8,98.1,114.4z M421.7,108.9c-4.2-1.2-8.1-0.6-10.2,2.8
		c-2.5,4.1-5.6,3.3-9.2,3.1c-5-0.2-10-1-14.9,1c-2.4,1-7.5,1.7-7.7,1.1c-1.7-4.4-4.9-0.9-7-2.4c-0.2,0.3-0.3,0.6-0.5,0.9
		c1.1,1.1,2.3,2.1,3.5,3.2c-3.7,0.9-7.2,1.8-10.6,2.7c-0.1-0.8-0.2-1.8-0.4-3.2c-4.2,1.3-8.3,2.5-12.5,3.8c0-0.3,0-1,0-1.4
		c-5.5-0.3-10.6-0.6-15.8-0.9c-0.1,0.3-0.2,0.7-0.4,1c1.4,1,2.7,2.1,4.1,3.1c-0.3,0.9-0.6,1.7-0.9,2.5c0.2,0.1,0.4,0.2,0.7,0.4
		c1.5-1.4,3-2.8,4.6-4.4c3.8,3.8,7.5,7.5,10.5,10.4c-2.7,3.2-5.4,6.4-8.1,9.6c0.6-2.6,1.8-4.8,2.6-7.1c0.3-0.8-0.2-2.2-0.8-3
		c-0.3-0.5-2-0.7-2.3-0.3c-0.5,0.7-0.7,1.8-0.7,2.8c0,0.7,0.2,1.5,0.3,1.9c-2.6,1.7-4.9,3.2-7.4,4.8c2.4,2.8,4.2,5,5.2,6.1
		c7.2-0.9,7.8-6.9,11.6-10.6c0.6,2.4,1,4.1,1.4,6.1c4.2-2.2,7.2-7.8,13-4.2c0.4-1.3,0.8-2.4,1.2-3.5c0.9,0.6,1.6,1.1,1.7,1.2
		c2.3-2,4.2-3.7,6.6-5.8c-3.4-1.8-6.4-3.3-9.3-4.8c1.9-0.6,4.2-2,5.8-1.5c3.6,1.1,5.7-1.2,8.5-2.2c2.7-1,5.7-1.3,8.6-1.7
		c4.2-0.6,8.4-0.8,12.6-1.5c2.6-0.5,5.1-1.7,7.5-2.5c0,0-0.7-0.5-1.4-1c0.8-1.5,1.5-3,2.3-4.7C416.9,111.7,420,114.8,421.7,108.9z
		 M58.2,123.7c3.1,1.5,6,3,9,4.4c0.3-0.3,0.7-0.6,1-0.9c-0.5-0.9-0.9-1.8-1.5-2.6c-0.5-0.8-1.2-1.5-1.9-2.2
		c-1.1-1.1-2.3-2.9-3.5-2.9c-4.6,0.1-7.3-1.7-7.7-7.1c2.8-1.1,5.9-2.3,9.9-3.8c-0.8,2.2-1.2,3.1-1.5,4.1c6-2.6,11.8-5,18-7.6
		c0,1.9,0,3.1,0,4.4c-4-1.8-2.7,2.7-5,3.5c2.1,0.8,3.7,1.4,4.3,1.7c2.4-1,4.1-2,5.9-2.2c2.1-0.2,4.2,0.3,5.8,0.5
		c-0.6-3.3-1.3-5.7-1.5-8.2c-0.2-1.9,0.4-3.9,0.1-5.8c-0.3-2.1-1.3-4.2-2-6.5c-2.5,3.9,0.2,8.4-3.3,11.6c-3.2-3-0.1-5.2,0.4-7.6
		c0.5-2.3,0.5-4.1-2.2-4.4c-3.3-0.4-5.5-1.7-4.8-6c-1.6,1.8-2.7,2.9-4,4.3c1.8,1.4,5.8,1.3,3.6,5.1c-0.9,0-1.7,0-2.8,0
		c0,2.5,0,4.8,0,7.1c-0.3,0.1-0.7,0.1-1,0.2c-0.7-2.4-1.4-4.7-2.1-7.1c-6.6,0.8-7.1,1.2-7.9,5.4c-0.5-1.5-1.1-2.9-1.6-4.5
		c-1.9,4-5.5,5.5-10.6,5.1c1.7,2,3.4,4,4.9,5.7c-1.4,2-3.5,3.8-4,6c-1.1,4.9-3,6.3-7.7,4.8c-1-0.3-2.5-0.5-3.2,0
		c-1.7,1.3-3,3.1-4.7,4.9c2.6,1.1,5,2.1,7.8,3.3c1.1-0.7,2.6-1.9,4.2-2.6c0.5-0.2,2.3,1,2.2,1.2c-0.6,2.1,0.1,3.9,2.1,3.8
		c1.2,0,2.5-1.8,3.7-2.9C57.2,125.4,57.7,124.5,58.2,123.7z M215.9,153.1c-2.9,0.8-5,1.3-7.1,1.9c-4.7,1.3-10.5-3-14.3,3.2
		c-0.9-4.4-3.6-5.6-7.4-4.3c-1.2,0.4-2.7-0.1-4.1-0.1c0.5-3.4-2.2-2.2-3.3-1.8c-3.1,1.3-5.9,3.1-8.8,4.9c-0.8,0.5-1.3,1.4-2,2.1
		c0.8,0.5,1.6,1.3,2.5,1.5c4.9,1.1,9.7,2.7,14.7,3.1c6.6,0.4,13.3,0.5,19.8-0.5c2.7-0.4,4.9-2.4,7.3,0.3c0.1,0.1,2.3-1,2.4-1.7
		C216.1,158.8,215.9,155.7,215.9,153.1z M18.2,112.7c5.9,1.5,6.3,1.2,5-4.3c2.3,0.3,4.5,0.5,6.9,0.8c0.6-0.6,1.8-1.6,2.7-2.3
		c2,2.3,3.6,4.1,5.3,6c2.6-4.2,2.6-4.2,5.8,0.1c1.6-3.6,3-6.8,4.6-10.3c-0.9-0.4-2.8-1.8-3.3-1.4c-3.1,2.3-5.7,0.2-8.5-0.5
		c-1.2-0.3-2.6,0-3.9,0c0,0.3,0,0.5-0.1,0.8c1.3,0.7,2.5,1.4,3.8,2c-0.1,0.4-0.2,0.8-0.4,1.1c-1.6-0.4-3.1-0.7-4.9-1.1
		c-1.9,3.1-4.4,2.2-6.9,0.2c-2.3,1.5-4.1,4.4-7.4,2.5c-0.3-0.2-1.9,1.2-2.2,2.1c-0.5,1.8-0.6,3.7-0.8,5.5c-0.5,5,1.7,6.8,6.5,5.6
		c1-0.2,2-0.7,3.1-1.1c-0.5-1.3-1-2.6-1.6-4.3c-1.3,1.2-2.5,2.3-3.9,3.6C18,116,18.1,114.5,18.2,112.7z M130.3,163.7
		c0.8,1.5,1.5,2.8,2.4,4.3c3.8-2,7.4-3.8,11.2-5.8c0.2,0.5,0.3,1.1,0.6,1.4c1.3,0.8,2.6,1.5,3.9,2.3c0-1.5,0.5-3.2,0-4.5
		c-1.3-3.6-3.8-5.7-8-4.8c-0.5,0.1-1.1-0.1-2.2-0.3c0.9-1,1.5-1.6,2-2.2c-0.1-0.3-0.2-0.6-0.3-0.9c-6.3,2.8-13.5-0.3-19.2,3.3
		c-1.6-0.7-3-1.4-4.4-2.1c-0.2,0.3-0.3,0.6-0.5,1c3.3,3-0.2,2.7-1.9,3.6c1.2,0.5,2.2,0.4,3.1,0.5c1.1,0.1,2.3,0.2,3.1,0.8
		c3.5,2.9,9.4,1.7,11.1-2.2c0.8,1.3,1.7,2.7,2.7,4.3C132.9,162.6,131.7,163.1,130.3,163.7z M291.3,218.1c2.7,2.4,5.3,4.8,8.5,1
		c3.4-4,6.6-8.3,10.1-12.3c1.1-1.3,2.7-2.3,4.3-3.1c2.7-1.3,2.7-3,1.4-5.8c-0.7,1.6-1.1,2.8-1.6,3.9c-1-0.7-1.8-1.2-2.5-1.7
		c-2.1,2.6-4.1,5-6,7.5c-0.2-0.2-0.4-0.4-0.6-0.5c0.4-0.9,0.7-1.9,1.3-3.4c-2.7,0-5,0-7.5,0c-0.2-0.4-0.5-1.1-0.6-1.4
		c-1.4,0.7-2.5,1.2-3.7,1.7c-1,3.4-2.1,7-3.2,10.7c0.7,0.2,1.3,0.3,1.9,0.4C292.4,216.4,291.9,217.2,291.3,218.1z M311.6,179.6
		c4.4-4.1,8.1-7.5,11.7-11c2-2,1.6-3.7-1.3-5.1c1.2-2.2,2.3-4.3,3.5-6.5c-0.2-0.3-0.4-0.6-0.6-0.9c-1.4,0.7-2.8,1.4-3.8,1.9
		c-0.5-0.3-1.2-1.2-2.1-1.4c-4.4-0.8-8.1,0.6-11.4,3.5c-0.3,0.3-0.5,1.1-0.3,1.3c0.3,0.4,1,0.6,1.5,0.6c1.2,0,2.5-0.2,4-0.3
		C310.8,167.8,310.4,173.1,311.6,179.6z M69.1,179.5c2.9-0.9,5.1-1.7,7.4-2.1c0.9-0.2,1.9,0.3,2.8,0.5c0.1-0.8,0.5-1.9,0.2-2.4
		c-0.5-0.9-1.7-2.1-2.4-2c-1.6,0.1-3.1,1-4.8,1.6c-0.3-1.3-0.7-2.9-1-4.5c-3.8-0.5-6.6-5.1-11.3-1.3c-3.6,2.9-6.5,5.6-7.6,10.3
		C58.3,179.5,64,179.5,69.1,179.5z M221.3,111.1c0.3-0.2,0.7-0.3,1-0.5c0.5,0.8,1.7,2,1.5,2.2c-1.9,2.5,0.5,3,1.7,3.8
		c2,1.3,4.2,2.5,6.1,3.6c-0.4-2.3-0.9-5.5-1.4-8.8c4.2-2.5,10.3-0.3,13.8-5.3c-2.7-1.5-5.5-4.7-7,0.9c-0.9-0.6-1.7-1.1-2.5-1.6
		c-0.3,0.8-0.7,1.5-1.2,2.6c-3.2-3.6-6.6,4.2-9.9-0.5c-3.9,0.7-7.9,1.4-11.4-2.5c-0.4,2.3-1.1,5-0.1,6.4c1.8,2.5,4.7,4.2,7.9,6.9
		C220.5,115.1,220.9,113.1,221.3,111.1z M355.3,168.5c6.1-1.9,12.6-4,19.2-6.1c0.6,0.8,1.5,1.7,2.3,2.7c-2.1-6.3,7.2-2.9,5.6-7.3
		c-1.5-2.6-3-5.3-4.4-7.7c-2,2.1-4.1,4.3-6.2,6.5C368.4,154.3,358.1,162,355.3,168.5z M318.1,192.2c-0.8,1.3-1.3,2.2-1.9,3.1
		c1.1,0,2.2-0.1,3.3-0.1c0.6,0,1.4,0.2,1.8-0.1c1.2-1,3.5-2.7,3.2-3.3c-1.8-4,1.5-4.1,4-5.8c-0.1,1.7-0.1,2.8-0.2,3.9
		c6-3.5,6-3.5,4.6-9.8c-2.9,0-5.9,0-8.9,0c0.2-0.9,0.4-2.1,0.8-3.6c-1.5,0.1-2.5,0.2-3.2,0.2c0.7,2.8,2.6,6.2,1.6,7.8
		c-1.3,2.2-4.9,3-7.3,4.4C316.6,190,317.4,191.3,318.1,192.2z M26.5,161.5c0-0.4-0.1-0.8-0.1-1.2c-3.1-0.2-6.2-0.4-9.1-0.6
		c-0.4-2.6-0.7-4.8-1-7c-1-0.2-2.1-0.5-3.5-0.8c0.9-1.1,1.6-1.8,2.2-2.5c-1.2,0-2,0.4-2.6,1c-3,2.4-2.4,6.3-3.8,9.4
		c-1.8,4.1,0.6,4.6,3.2,5.7C17.8,167.8,22,164.1,26.5,161.5z M68.9,126.8c-1.2-0.7-3.1-1.3-3.1-1.8c0.5-4.7-3.4-3-5.3-3.3
		c-2.1-0.4-4.4,0.8-6.5,0.9c-3.1,0-3.4,1.5-2.9,3.9c1.6-0.5,3-1,5.2-1.7c-0.6,3-1,5.2-1.4,7.5c-0.4-0.1-0.8-0.2-1.2-0.3
		c0.4-1.4,0.8-2.7,1.2-4.1c-1.6,1.5-2.8,3.2-3,5c-0.1,1.2,1.3,3.6,2,3.7c2.7,0.1,5.4-0.7,9.3-1.3c-2.4-2.7-3.9-4.3-5.9-6.5
		C60.5,124.8,65,129.2,68.9,126.8z M262.8,135.7c1.2,0.3,2.5,0.8,3.7,0.8c0.8,0,2.1-0.6,2.4-1.2c0.3-0.7,0.1-2.2-0.4-2.8
		c-2.2-2.4-7.9-1.8-9.3,0.2c-1.1-1.3-2.2-3.6-3.6-3.8c-5.4-0.9-7.6,0.9-10.5,7c6.8,1.5,13.5,3.2,19.4-2.9
		C263.8,133.8,263.3,134.8,262.8,135.7z M109.9,124.4c-0.1,0.5-0.2,1-0.2,1.4c4.3,0.9,8.7,1.7,13.1,2.6c1.1,0.9,2.6,2.3,4.4,3.9
		c0.3-3.7-4.7-6.1-0.2-9.7c1,2.3,1.7,4.2,2.4,5.7c1.6-0.3,3.2-0.4,4.7-0.9c1.2-0.5,2.2-1.5,3.3-2.3c-0.9-0.7-1.7-1.8-2.7-2.1
		c-5.4-1.4-10.9-2.7-16.3,0.4c-0.9,0.5-2.4-0.1-3.8-0.2c-0.2,0.4-0.4,1.1-0.6,1.7C112.5,124.8,111.2,124.6,109.9,124.4z
		 M358.9,105.4c-4.6-0.4-8-0.7-11.4-1c0-0.8,0-1.8,0-3c-1.9,2.2-3.5,4-5.3,6.1c-0.4-0.3-1.2-0.8-2-1.4c0.8,2.5,0.8,5.7,4.5,5.4
		c0.1-1.5-0.1-2.6,0.3-3.5c0.2-0.5,1.3-0.7,2.1-1c0.4,1,0.8,1.7,1.1,2.5c1.2-0.5,2.1-0.9,3.3-1.3c0.7,4.2,3.5,4.1,7,4
		c-1,0.9-2,1.9-3,2.8c4.1,1.2,4.7,0.7,4.6-3.8c1.8-1,3.4-1.9,5.1-2.7c-0.2-0.5-0.4-1.1-0.6-1.6c-3.1,0.3-6.2,0.7-9.2,1
		c0-0.2-0.1-0.5-0.1-0.7C356.1,106.6,357,106.3,358.9,105.4z M102.7,129.8c1.3-1.9,2.3-3.2,3.3-4.5c-0.2-0.4-0.4-0.9-0.6-1.3
		c-4.3,1.3-8.7,2.6-12.9,3.8c0.6,6.3,5.9,4.9,8.8,5.4c3.6,0.7,8.3,1.5,12.3-2.9C109.5,130.1,106.3,130,102.7,129.8z M304.4,115.7
		c-5.4-1.1-9.6-2-14.2-2.9c0.6-0.6,1.2-1,1.8-1.5c-1.7,0.1-3.7,0.7-3.8,1.6c-0.2,1.4,0.9,3,1.4,4.5c-0.3,0.3-0.5,0.6-0.8,0.8
		c-1.1-1.2-2.2-2.4-2.9-3.2c-2.5,1.4-5,2.8-7.4,4.1C287.2,119.7,295.8,120.8,304.4,115.7z M52.5,145.9c2.3-0.8,4.4-1.7,6.5-2.3
		c2.1-0.6,4.7-0.4,4.5-4c-0.7,0.7-1.4,1.3-2.2,2.1c-3-2.2-6.3-3.9-10-1.2c-0.4-0.8-0.7-1.5-0.7-1.5c-2,1.1-3.9,1.9-5.6,3.1
		c-0.9,0.7-1.6,1.9-1.8,3c-0.1,0.8,0.8,2.3,1.4,2.4c0.9,0.1,2.3-0.5,2.9-1.2C49.5,143.5,51.2,142.9,52.5,145.9z M31.7,88.9
		c-2.2,0.4-4.7-0.1-5,3.4c-0.1,1.1-2.5,2.3-4,2.7c-1.8,0.5-3.9,0.1-5.6,0.1c0.3,2.2,0.6,4.6,0.9,7.5c2.3-1,4.5-2.1,6.8-3
		c1.5-0.7,3.2-1,4.5-1.9c0.9-0.7,2-3.1,1.8-3.3C28.3,92,30.8,90.7,31.7,88.9z M305.1,186.1c-1.5,2-2.8,3.7-4,5.3
		c-0.6,0.9-1.1,1.9-1.6,2.9c1-0.3,2.1-0.7,3.1-1c-0.9,4.1,3.5,1.5,4.5,3.7c3-4.3,5.2-8.2,4.3-14.5c-2.2,2-3.7,3.4-5.2,4.8
		C305.7,186.9,305.3,186.4,305.1,186.1z M250.8,117.1c0.1-0.3,0.2-0.6,0.2-0.9c-2-0.4-3.9-0.9-6.7-1.5c3.1-0.9,5.5-1.6,8.1-2.4
		c-2.3-0.9-1.7-1.9,0.3-2.8c-5.9-3.4-12.3,0-13.4,6.9C243.1,116.6,246.9,116.8,250.8,117.1z M228.5,127.7c-0.9,2.3-1.4,3.5-1.9,4.8
		c2.4,3.1,8.3,4.3,14.9,2.7c1.3-0.3,2.3-1.7,3.9-2.9c-3.4-1.3-7,0.8-8.2-3.3c-0.1-0.3-2-0.3-2.8,0c-0.4,0.2-0.5,1.6-0.3,2.4
		c0.2,0.9,0.9,1.6,1.4,2.4C230.4,134.8,229.8,130.8,228.5,127.7z M211.7,130.5c-3.4,0.4-7,0.9-10.6,1.1c-2.7,0.1-3.9,1.1-3.4,4.8
		c1.8-1,3.3-1.7,5.1-2.7c0.1,0,0.7,0.4,1.8,1c-0.3-1-0.4-1.4-0.5-1.7c1.6,0.3,3,0.5,4.5,0.8c0.8,0.1,1.9-0.1,2.5,0.3
		c3.9,2.9,7.3,1.9,9.6-3.3c-2.3,0.4-4.2,1-6.2,1C213.6,131.8,212.7,130.9,211.7,130.5z M22.4,177c1.2-1.6,2.4-3.1,3-3.9
		c1.6,0.4,3.6,1.6,4.6,1c2.1-1.2,3.7-3.3,5.3-4.9c-4.7-1.6-13.5,0.2-16.5,3.6C19.9,174.1,20.9,175.2,22.4,177z M373.1,106.4
		c-2.1,0.9-3.9,1.4-5.4,2.4c-0.8,0.5-1.4,2-1.4,3c0,1.1,0.8,2.1,1.6,3.8c1.4-0.8,2.8-1.5,5-2.6c4.5,0.8,6.3-0.2,5.7-3
		C376,108.3,374.3,107.2,373.1,106.4z M87.8,130.6c-1-1-1.9-2.2-3.1-2.8c-0.9-0.5-2.2-0.4-3-0.5c-1.9,2.7-3.9,5.6-6.3,9
		c3.7,0,7.2,0,10.5,0c-0.7-1-1.7-2.3-2.8-3.7C85,131.7,86.2,131.2,87.8,130.6z M62.1,159.2c-2.6,0.9-4.9,1.8-7.3,2.6
		c-0.1-0.3-0.3-0.5-0.4-0.8c0.6-0.9,1.2-1.9,1.8-2.8c-0.3-0.2-0.6-0.5-0.9-0.7c-2,3-4,5.9-6.1,9.1c0.6,0.3,1.9,0.8,3.3,1.5
		C54.6,164.4,62,166.8,62.1,159.2z M113.6,142c0.6,0.5,1.2,1.1,1.8,1.3c5.7,2.4,10.4-1.8,15.8-2.5c-2.6-1.4-5.3-2.8-6.7-3.6
		C120.3,139.1,117.1,140.5,113.6,142z M302.6,110.5c2.2,1.9,3.7,4,5.7,4.6c2.1,0.6,4.7-0.3,6.9-0.5c-1.1-0.7-2.6-1.6-4-2.5
		c0.1-0.4,0.2-0.8,0.3-1.2c2.8,0.3,5.5,0.6,8.2,0.9c-0.1-0.8-0.3-2.3-0.4-3.8C314.2,108.7,309.1,109.5,302.6,110.5z M35.8,165.6
		c0,0.4,0,0.8,0,1.2c3,0.3,5.9,0.5,9.4,0.8c-1-1.5-1.7-2.5-2.6-3.8c1-0.4,1.8-0.8,2.7-1.1c0.9-0.3,1.9-0.6,2.9-1
		c-2.4-3.8-5.6-4.1-9.6-0.8c0.7,0.6,1.3,1.1,2,1.7C38.9,163.7,37.3,164.7,35.8,165.6z M92.9,165.1c2.6,0.2,4.7,0.7,6.7,0.5
		c1.1-0.1,2.5-1.4,2.8-2.4c0.4-1.5,1.4-3.9-1.8-4.2c-0.4,0-1.2-0.4-1.2-0.6c0.7-4.2-2.4-1.8-3.7-2.6c-0.3,0.4-0.6,0.7-0.9,1.1
		c1.7,1.4,3.4,2.7,6,4.8c-2.9-0.6-5-1.1-7.2-1.5C93.5,161.6,93.2,163.2,92.9,165.1z M293.8,187.1c2.4-4.5,4.5-8.3,7.1-13.2
		c-2.3-0.5-4.4-1-6.4-1.5c-0.4,1.9-1.1,3.8-1.2,5.7C293.2,180.6,293.5,183.2,293.8,187.1z M152.7,122.3c1.4,1.3,2.9,3.2,4.9,4.3
		c1.8,1.1,4.9-0.6,5.4-2.5c-1,0.3-1.9,0.5-2.9,0.8c-0.1-0.4-0.3-0.7-0.4-1.1c1.7-0.7,3.4-1.4,6.1-2.5c-1.8,0-2.7,0.1-3.5,0
		c-1.5-0.1-3-0.3-4.5-0.5c0.6-1.2,1.2-2.5,1.8-3.7c0.1-0.2-0.1-0.5-0.3-0.9c-1.2,0.3-2.4,0.6-2.9,0.7
		C154.9,118.9,153.9,120.5,152.7,122.3z M288.3,77.1c-0.6,0.2-1.7,0.9-2.7,0.9c-2.8-0.2-5.6-1-8.4-1c-1.2,0-2.4,1.3-3.6,2
		c0.1,0.4,0.3,0.7,0.4,1.1c2.3,0,4.7,0,7.7,0c0.1,0.2,1,1.2,1.5,1.8c3.9-0.9,7.4-1.7,10.8-2.5C292.1,78.6,290.5,77.9,288.3,77.1z
		 M101.5,166.4c4-1.5,7.1-5.3,12.6-2.6c-1.4-2.5-2.6-4.6-3.7-6.6c-2.3,1.4-4.9,3.1-7.8,4.9c-0.7-0.2-2.1-0.5-3.8-1
		C99.9,163.2,100.7,164.8,101.5,166.4z M33.6,87.7c0,0-0.2,1.5,0.4,1.9c2,1.5,4.3,2.7,6.8,4.2c-0.6-1.3-0.9-2-1.3-2.8
		c0.2-0.3,0.4-0.6,0.6-0.9c1.5,0.6,3.1,1.7,4.6,1.6c1.3-0.1,2.4-1.7,3.8-2.8c-4.1-3.1-7.1-3.8-10.5-0.9
		C37.3,88.5,35.5,87.8,33.6,87.7z M16.1,124.5c3.5,3.4,6.4,6.3,9.4,9c0.4,0.4,2.1,0.1,2.6-0.4c0.8-0.8,1-2.1,1.5-3.2
		c-2.7-1.2-6.7-1.1-5.5-6.3C21.2,123.8,18.8,124.1,16.1,124.5z M95.3,172.2c1.8,1.2,3.2,2.2,4.5,3.2c-0.3-4.3-2.6-5.4-9.3-4.6
		c-2.3-1.9-4.2-3.5-6.1-5.2c-0.7,1.6-0.9,3.6-0.1,4.1c3.2,2.1,6.7,3.7,10.1,5.6C94.6,174.7,94.8,173.9,95.3,172.2z M75.8,129.8
		c0.8,0.5,1.7,1.1,3.1,1.9c0.6-2.1,1.2-3.7,1.4-5.4c0.1-1.3-0.1-3.3-0.8-3.7c-1.8-0.9-3.9-1-6-1.4c-0.2,1.4-0.4,2.8-0.7,4.2
		c-0.2,1-0.4,2-0.6,3.2c5-0.3,2.6-3.1,2-5.2C78.1,122.8,78.2,123,75.8,129.8z M142,126.9c2.3,0.3,4.1,0.5,6.4,0.8
		c0.8-0.6,3.5-2.1,3.3-2.7c-0.9-2.7-2.9-2-4.8-1.2c-0.6-1.7-1.3-3.4-1.9-5.1c-0.4,0.1-0.8,0.1-1.2,0.2
		C143.2,121.7,142.6,124.6,142,126.9z M238,151.3c1.7-2.6,3-5.7,3.2-9.5c-5.2-1.5-6.1,3-8.2,5.2C234.8,148.5,236.4,149.9,238,151.3z
		 M34.4,110.9c-3.5-5.3-8.2-2.3-11.9-2.7c-0.8,1.2-1.4,2.3-2.6,4.1C25.2,111.8,29.6,111.3,34.4,110.9z M109.2,164.8
		c-3.1-0.8-5.1,0.9-6.4,4.3c3.6-0.5,7-1,10.3-1.5c0.1,0.2,0.1,0.5,0.2,0.7c-0.6,0.5-1.3,0.9-1.9,1.4c1.2,0.6,2.8,0.2,2.8,0.1
		c-0.5-2.1-1.1-4.2-1.9-7c-0.2,0.3,0.2-0.3,0.7-0.9c-0.3-0.2-0.5-0.4-0.8-0.6C111.2,162.3,110.3,163.5,109.2,164.8z M296.3,132.6
		c-3.1,4.5,0.5,5.9,3.3,7.9c-0.1-1.4-0.2-2.6-0.2-3.4c2.1,0.4,4,0.7,5.8,1.1c-0.7-1.8-1.5-3.6-2.6-6.3
		C300.2,136,298.2,134.6,296.3,132.6z M142.4,96.6c5.8-0.7,10.8,5.1,17.4,2.1C155.7,95.2,146.2,94,142.4,96.6z M36.7,126.7
		c-2.2,2.3-4.4,4.5-6.9,7c6.8,3.4,7.8-2.1,10.4-5.2C39,127.9,37.8,127.3,36.7,126.7z M182.1,122.2c-2-0.1-3.8-0.3-5.5-0.3
		c-0.9,0-2,0-2.8,0.4c-0.3,0.1-0.3,1.8-0.1,2c0.9,0.5,2.1,0.7,3.1,0.7c1,0,2.1-0.7,3-0.5c3.2,1,6.3,2.4,9.6,3.3c1,0.3,2.4-0.6,3.5-1
		c-0.1-0.3-0.3-0.6-0.4-0.9c-3.7-0.3-7.3-0.7-11.2-1C181.7,123.4,181.9,122.7,182.1,122.2z M180.2,99.3c0.4,1.3,0.9,2.5,1.3,3.8
		c1.5-1.2,2.7-2.1,4-3.1c-0.2-0.3-0.4-0.6-0.6-0.9c-1,0.7-2,1.3-3.5,2.3c2-4.5,2-4.5-1.8-4.4c-0.2,0-0.4-0.1-0.5-0.2
		c-2.6-3.8-3.8-0.7-6,1.3c1.4,0,2.2,0,3,0c-0.4,1.2-0.7,2.1-1.2,3.7C177.1,100.8,178.6,100,180.2,99.3z M333.8,164.8
		c4.2-4.2,3.8-4.8-5.3-8.3c-0.6,1.7-1.2,3.4-2.2,5.9c2.9-0.7,4.6-1,6.2-1.4C332.9,162.3,333.3,163.4,333.8,164.8z M277.6,134.6
		c2.9,2.9,7.2,3.8,8.7,1.8c0.9-1.2,0.9-3.1,1.5-5.6C283.6,132.3,280.7,133.4,277.6,134.6z M42.3,76.1c0.5,0.9,1.1,1.8,2,3.4
		c-0.2-4.4,2.4-3.4,4.8-3.2c-0.8-1.4-1.8-3.1-2.6-3.1c-3.4,0.3-6.8,1.1-10.2,1.7C38.1,78.6,39.5,78.9,42.3,76.1z M165.3,105.2
		c-0.3-0.2-0.6-0.5-0.9-0.7c-2.6,0.9-5.2,1.7-7.8,2.6c0,0.3,0.1,0.7,0.1,1c1.8,0.5,3.5,1,5.1,1.5c-0.8,1.5-1.5,2.8-2.7,5
		C165.1,112.7,163.9,108.3,165.3,105.2z M56,137.4c-0.1,0.4-0.2,0.8-0.3,1.2c1.2,0.5,2.5,1.5,3.6,1.4c2.4-0.2,4.7-0.9,7-1.7
		c0.4-0.1,0.4-1.6,0.5-2.4c-2-0.3-4-0.6-5.9-0.9c-0.2,0-0.4,0.3-0.7,0.4c0.2,1,0.4,1.9,0.6,2.7C59.2,138,57.6,137.7,56,137.4z
		 M2.9,141.1c-0.5-2.4-0.8-4.2-1.2-6.5 M313.8,125.8c-3.7-2.9-10.5-3.3-13.1-1C305.3,127.7,305.3,127.7,313.8,125.8z M32.3,151.9
		c-1.4,1.7-2.9,2.8-3.4,4.3c-0.5,1.7-0.1,3.7-0.1,6.3c2.3-0.1,4.8-0.3,7.6-0.5c-2.2-1.7-3.8-3-6.2-4.9c1.8,0,2.4,0,2.9,0
		C32.8,155.6,32.6,154.3,32.3,151.9z M12.2,78.7c-0.4,0-0.9,0-1.3,0c-0.3,4.6-0.7,9.3-1,13.9c0.4,0,0.9,0.1,1.3,0.1
		C11.7,88.1,14.8,83.6,12.2,78.7z M205,114.4c1.3-1.8,2.4-2.6,2.4-3.4c-0.2-4.1-4.9-1.5-6.3-3.9c-0.5,0.5-1.5,1.4-1.5,1.4
		C201.2,110.3,202.8,112,205,114.4z M179.6,135.9c0.1,0.6,0.3,1.1,0.4,1.7c1.6-0.4,3.2-0.9,4.8-1.2c1.3-0.3,2.7-0.7,4.1-0.5
		c1.4,0.2,2.8,0.9,4.4,1.4c-0.9-2.1-1.4-3.3-2-4.6C187.5,133.7,183.6,134.8,179.6,135.9z M151.4,143.1c1.5,1.4,3.1,2.7,4.8,4.2
		c1-1.1,2.3-2.5,3.7-4c-1.8-0.9-3.5-1.7-5.1-2.5C153.5,141.7,152.3,142.5,151.4,143.1z M12.8,93.2c-1.8,1.4-3.4,2.3-4.7,3.6
		c-0.5,0.5-0.6,1.5-0.9,2.3c0.9,0.2,1.9,0.6,2.7,0.4c1.7-0.4,3.3-1.1,5.6-1.9C14.6,96,13.6,94.5,12.8,93.2z M2.1,167.7 M284.8,163.3
		c-3.9-0.5-6.3-5.5-10.5-2.2C276.4,164.3,279.4,165,284.8,163.3z M397.5,131.3c-2.3-2.3-3.2-2.1-4.6,1.4c4.2,2.1,4.9,2,8.4-2
		c-0.1-0.3-0.3-0.6-0.4-1C399.9,130.2,398.9,130.7,397.5,131.3z M11.4,170c-2.7-2.8-4.8-4.9-6.9-7.1C4.6,169.8,4.7,169.9,11.4,170z
		 M113.2,131.3c-0.4,0-0.8,0.1-1.2,0.1c-1.1,1.5-2.2,2.9-3.2,4.4c-0.6,0.9-0.9,1.9-1.3,2.8c0.7,0.3,1.7,0.9,2,0.7
		c0.9-0.6,1.5-1.6,2.2-2.5c0.3-0.4,0.8-0.8,0.9-1.3C112.8,134.2,112.9,132.8,113.2,131.3z M306.1,169.4c0.3-0.5,0.6-1.1,0.9-1.6
		c-1.9,0-3.7-0.2-5.5,0.1c-0.4,0.1-0.5,1.7-1.1,3.4c1.4-1.2,2.1-1.7,2.4-2c1.5,1.7,2.9,3.4,4.3,5c0.3-0.3,0.6-0.7,0.8-1
		C307.4,172,306.8,170.7,306.1,169.4z M49.5,132.3c0.1-0.4,0.2-0.9,0.3-1.3c-1.5-0.2-4-0.9-4.4-0.3c-1.1,1.6-1.3,3.8-1.9,5.8
		c0.3,0.1,0.6,0.1,1,0.2C46.2,135.2,47.9,133.7,49.5,132.3z M163.1,71.8c-0.5,0.4-1.1,0.8-1.6,1.1c0.8,1.6,1.3,3.5,2.5,4.7
		c0.6,0.6,2.5,0.1,3.7,0.1c0.1-0.4,0.3-0.7,0.4-1.1C166.5,75.1,164.8,73.4,163.1,71.8z M398,103.2c0,0.5,0.1,0.9,0.1,1.4
		c3.8-0.4,7.5-0.9,11.3-1.3c0-0.4-0.1-0.9-0.1-1.3C405.3,98.8,401.9,104.2,398,103.2z M335.8,153.4c0.5-0.2,0.9-0.3,1.4-0.5
		c0-1.6,0-3.3,0-5.3c0.5-0.4,1.4-1.2,2.3-1.9c-0.2-0.3-0.4-0.5-0.6-0.8c-2.1,1.5-4.3,2.9-6.7,4.6
		C333.7,151.2,334.8,152.3,335.8,153.4z M77.1,121.3c-1-3.7-2.3-5.4-5-4.5c-0.7,0.2-1.7,1.9-1.5,2.6
		C71.8,123.9,74.8,118.9,77.1,121.3z M6.5,86.4c2.2,0.3,3.2,0.5,4.6,0.7c-1.2-1.6-2-3.1-3.1-4.2c-0.3-0.3-2.3,0.3-2.4,0.7
		c-0.3,1.4-0.4,3,0.1,4.3c0.4,0.9,1.9,1.5,2.9,2.1c0.1,0,0.3-0.2,0.5-0.3C8.4,89,7.8,88.2,6.5,86.4z M185.1,112.7
		c2.3,1,4.5,2,7.1,3.2c0.6-1.1,1.5-2.9,2.6-4.9C191.5,111.6,188.4,112.2,185.1,112.7z M227.1,101.9c-1.2-1.8-1.9-4.1-3-4.3
		c-1.6-0.3-3.4,0.8-5.2,1.3c0,0.5,0.1,1,0.1,1.5C221.6,100.9,224.1,101.4,227.1,101.9z M341.7,175.3c0.2,0.3,0.5,1.7,1.3,2.1
		c1.3,0.7,7.5-4.3,7.6-5.9C348,172.7,345.3,173.8,341.7,175.3z M26.7,136.4c1.6,3.8,4.6,4.1,9.7,1C33.1,137.1,30,136.8,26.7,136.4z
		 M9.8,173.5c1.8,0.8,3,1.7,4.4,1.9c2.4,0.4,3.2-2.2,1.5-5.4C13.9,171.1,12,172.2,9.8,173.5z M19.9,165.1c0.1,0.3,0.1,0.6,0.2,0.9
		c1.7,0,3.5,0.2,5.1-0.1c0.6-0.1,0.9-1.6,1.3-2.5c-0.8-0.4-1.9-1.2-2.4-1C22.6,163,21.3,164.1,19.9,165.1z M321.2,146.9
		c0.2,0.4,0.3,0.8,0.5,1.2c1.6-0.2,3.3-0.5,4.9-0.7c0.5,0.8,1,1.6,1.8,2.8c2.4-3.6-1-4.4-2.4-4.8
		C324.7,144.9,322.8,146.3,321.2,146.9z M383.5,150.7c0.5,0,1,0.1,1.6,0.1c0.4-1.7,0.8-3.4,1.2-5.2c-1.1,0.1-2.2,0.1-3.3,0.2
		C383.2,147.4,383.3,149.1,383.5,150.7z M21.8,155.1c-1-2.6-1.6-4.7-4.6-3.9c-0.6,0.2-1.3,0-1.9,0c0.3,0.7,0.5,1.8,1.1,2
		C17.9,154,19.6,154.4,21.8,155.1z M422.6,131.9c-0.2,0.7-0.3,1.4-0.5,2.1c1.8,0.6,3.6,1.2,5.4,1.8c0.3-0.9,0.5-1.9,0.8-2.8
		C426.4,132.6,424.5,132.2,422.6,131.9z M176.9,146.9c0.1-0.4,0.1-0.7,0.2-1.1c-2.5-0.5-5.3-3.4-7.7,1.1
		C172.1,146.9,174.5,146.9,176.9,146.9z M203.2,141.6c0.1,0.5,0.2,1.1,0.3,1.6c1.8,0.6,3.6,1.2,5.7,1.9c0.1-1.2,0.2-2.3,0.3-4
		C207.2,141.3,205.2,141.4,203.2,141.6z M84.5,122.6c0.5,0.2,1,0.3,1.5,0.5c2.2-1.7,3.2-3.6,0.5-6.5
		C85.8,118.6,85.1,120.6,84.5,122.6z M324.2,19.9c0.3,0.7,0.5,1.4,0.8,2.1c2.8-1.1,5.5-2.2,8.3-3.2c-0.1-0.4-0.3-0.8-0.4-1.2
		C330,18.3,327.1,19.1,324.2,19.9z M326.4,10.6c-1.5,3.2-0.1,4.7,1.9,5.6c0.9,0.4,2.2,0.1,3,0.1C329.5,14.2,328.2,12.7,326.4,10.6z
		 M224.8,143.5c0.4,0.1,0.9,0.3,1.3,0.4c0.5-1.4,1.5-2.7,1.5-4.1c0-0.9-1.2-1.8-1.9-2.7c-0.3,0.1-0.6,0.3-0.9,0.4
		C224.8,139.6,224.8,141.5,224.8,143.5z M138.1,136.6c2.3,0,4.3,0,6.9,0c-0.9-1.4-1.6-2.3-2.2-3.4c-1.5,0.8-2.8,1.5-4,2.2
		C138.6,135.6,138.5,135.9,138.1,136.6z M168.7,130.2c1.6,3.8,4,4.1,6.8,1.1C173.3,130.9,171.3,130.6,168.7,130.2z M384.1,108.9
		c-0.4-0.4-0.9-0.7-1.3-1.1c-0.7,1.2-1.8,2.4-2,3.7c-0.2,1,0.5,2.3,0.8,3.4c0.8-0.7,1.9-1.3,2.2-2.2
		C384.3,111.6,384,110.2,384.1,108.9z M151.7,163.4c-0.2,0.3-0.4,0.6-0.6,0.9c1.4,0.3,2.9,0.9,4.2,0.7c1-0.2,1.9-1.5,2.8-2.3
		c-0.2-0.2-0.5-0.5-0.7-0.7C155.5,162.5,153.6,163,151.7,163.4z"/>
	<path class="st0" d="M1.4,199.8c2.4,0.7,4.5,2.2,7,0c0.5-0.4,2.1,0.6,3.6,1c-1.7,1.5-3.2,2.8-5.5,4.8c6.5,3.1,12.5,6,18.8,9.1
		c0.1,0.7,0.2,1.9,0.3,3.3c0.7-0.7,1.3-1.1,2-1.7c0,0.6,0.1,1,0,1.4c-0.6,3-1.1,6-1.9,8.9c-0.4,1.7-1.3,4.7-1.8,4.6
		c-2.5-0.3-5.2-0.7-7.2-2.2c-2.8-2.1-7.6-2.4-9.8,0.1"/>
	<path class="st0" d="M153.8,193.3c1.3-1.1,1.9-1.7,2.7-2.3c0.8,1.1,1.5,2.2,1.6,2.4c-1,2.6-2.1,4.4-2.3,6.4c-0.6,5.9-2.3,7.4-8,6.3
		c-0.4-0.1-0.8-0.3-1.1-0.2c-4.8,2.2-6.6-0.9-8.3-4.4c5.1-4.3,7.8-11.1,15.4-11.8C153.8,190.2,153.8,191.2,153.8,193.3z"/>
	<path class="st0" d="M115.6,181.4c-3.3,5-3.3,5,0.6,9.1c-1.2,1.3-2.3,2.7-3.7,3.6c-1,0.7-2.6,1.2-3.8,1.1c-2.5-0.2-4.9-1.2-7.4-1.3
		c-1.6-0.1-3.2,0.9-4.9,1.5c-0.6-0.4-1.6-1.3-2.7-2.1c-1.1-1-2.1-2-3.1-3c1.8-1.6,3-2.8,4.4-4.1c0.2,2.4,1.4,3.5,4.1,1.8
		c0.7-0.4,1.9-0.1,2.8-0.3c1.7-0.4,3.6-0.5,5-1.4c0.5-0.3-0.3-2.5-0.4-3.7C109.3,182.1,112.7,181.7,115.6,181.4z"/>
	<path class="st0" d="M90,211.5c-1.2,1-2.5,2.1-3.8,3.2c-0.2-0.1-0.4-0.3-0.7-0.4c2-3.1,3.9-6.2,6-9.4c-1.6-1.7,0.2-7.2,4-10.6
		c1.7,4.3,1.4,5.3-2.4,8c1,0.5,2,1,3.1,1.6c0.8-1,1.7-2.1,2.5-3.1c0.4,0.2,0.7,0.3,1.1,0.5c-0.5,1.2-0.9,2.5-1.5,3.7
		c-1.4,2.5-2.9,5-4.4,7.5c-0.5,0.8-1.1,1.5-1.7,2.3C91.5,213.9,90.9,213.1,90,211.5z"/>
	<path class="st0" d="M34.8,227.7c2-2.6,3.9-5.3,6-7.8c0.3-0.3,1.6-0.3,1.7-0.2c0.3,0.9,0.9,2.4,0.5,2.8c-2.4,2.1-5,4-7.5,6
		C35.2,228.3,35,228,34.8,227.7z"/>
	<path class="st0" d="M48.3,221.7c0.2,2.8,0.4,5.2,0.6,8.5C44.9,225.8,44.8,224.3,48.3,221.7z"/>
	<path class="st0" d="M396.6,60.4c0.5-0.6,1.2-1.3,2-2.1c-5.7,0-11.1,0-17,0c-0.1-0.2-0.4-1.1-0.9-2.3c-0.9,1-1.7,1.8-2.5,2.7
		c0.6,0.7,1.2,1.5,1.8,2.2c-3.9,0-7.7,0-11.4,0c-0.2-0.6-0.5-1.3-0.7-1.9c6.5,0.8,9.7-2.8,12.1-7.7c-1.1-1.3-2.3-2.6-3.7-4.2
		c-0.4,2.2-0.8,4.1-1.1,5.6c-2.5-0.8-5.1-1.6-8.1-2.6c1.1-1.9,2.1-3.4,2.9-5c0.5-0.9,1-1.9,1-2.8c-0.2-3,2.2-4.9,5-3.9
		c1.6,0.6,3.2,1.1,5,1.7c-0.3,0.6-0.7,1.3-1.3,2.3c0.7,0.1,1.2,0.2,1.7,0.2c3.6,0,6.6,1,7.9,4.8c0.2,0.6,0.9,1.5,1.2,1.4
		c6.5-1.4,7.4,7.6,13.4,7.2c0.4,0,0.9,1.6,1.3,2.4c0.1,0.2-0.7,0.8-0.6,0.9c3.5,5.8-3.7,4.8-4.9,7.6c-1.4-0.6-2.8-1.2-4.3-1.9
		c0.2-0.3,0.3-0.7,0.5-1c1-0.3,2.1-0.6,3.1-0.9C398.4,62.2,397.6,61.4,396.6,60.4z"/>
	<path class="st0" d="M381.9,85.9c2.2-7.5,10-3.4,12.6-6.6c3.2-0.5,6.2-0.3,8.1-1.5c3.6-2.2,6.8-1.7,10.4-0.1
		c-0.2-2.2-0.3-4.1-0.4-6.4c1.3-0.2,2.5-0.3,3.6-0.5c-0.1-0.8-0.2-1.7-0.3-2.7c2.1,0.7,4,1.3,6.1,1.9c-0.3,3,1.4,5.3,4.8,6
		c0.3,0.1,0.7,1.5,0.5,2.2c-0.4,1.2-1.2,2.4-2.1,4.1c-5.2,1.1-5.8-5.6-10.2-7.1c1,1.4,2,2.8,3.1,4.3c-3.8,2.1-7.5,3.5-11.1,1.3
		c-2.7,1.1-5.1,2.1-7.7,3.1c-2.3-4.1-5.8,0.3-8.8-0.8C387.6,82,385.3,84.6,381.9,85.9z"/>
	<path class="st0" d="M114.1,71.6c-1,0-2.4-0.4-3,0.1c-4.3,3.5-6.9,0.4-9.8-1.9c0.1-0.4,0.1-0.8,0.2-1.1"/>
	<path class="st0" d="M396.3,89.6c6.9,0,12.8,0,18.8,0c0.6-1.3,1-2.4,1.4-3.1c3.7,0,7.1,0,10.5,0c0.2,0.5,0.4,1.1,0.6,1.6
		c-5.4-0.7-6.6,3.1-8.5,6.2c-0.7,1.1-2.2,1.7-3.4,2.6c-2.1-4.6,2.9-5.1,4.7-7.7c-5.1,1.6-9.6,3-14.2,4.4c-0.1-0.3-0.1-0.6-0.2-0.9
		c-1.2,1.4-2.4,2.7-3.7,4.1C400.1,94.3,398.3,92,396.3,89.6z"/>
	<path class="st0" d="M284.2,34.9c0.8,4.9,1.4,9,2.1,13.5c-3.2,1.4-5.1,4.1-3.8,8.4c-0.5,0.1-1,0.2-1.5,0.3
		c-0.7-1.2-1.5-2.4-2.7-4.4c-0.7,1.8-1.4,3.6-2.4,5.9c-1.3,0.1-1.3,0.1-2-4.3c6.8-2.9,9.5-8,7.7-15.5
		C281.4,38.1,283,36.7,284.2,34.9z"/>
	<path class="st0" d="M352.8,33.9c-3.3-1.4-6.6-2.8-9.6-4.1c2.1-2.5,4.3-2.8,7.4-0.3c1.9,1.5,3.6,1.4,4.8-0.5
		c-1.5-2.6-2.9-5.1-4.4-7.6c0.2-0.2,0.4-0.3,0.6-0.5c2.1,1.7,4.1,3.4,6.5,5.4c-3,1.8,0.5,7.7-5.4,7.5
		C352.7,33.8,352.8,33.9,352.8,33.9z"/>
	<path class="st0" d="M56.4,73.9c-5.3-3.9-11-1.1-16.5-1.1c0.9-3.6,3.7-3.2,6.3-3.2c5.2,0,10.4,0,16.1,0
		C60.4,71,58.4,72.4,56.4,73.9z"/>
	<path class="st0" d="M369.1,83.7c0.9-3.5,2.5-6.5,6.3-8.1c-0.1,0.9-0.1,1.6-0.1,1.7c3.6,0,7.3,0,11.1,0c0,0.5,0,0.9,0,1.4
		c-2.5,1.7-4.6,3.5-8.1,1c-1-0.7-3.9,1-5.9,1.8C371.1,82,370.1,82.9,369.1,83.7C369,83.6,369.1,83.7,369.1,83.7z"/>
	<path class="st0" d="M341.3,52.5c4.4-4.4,7.1-3,9,1.9c-1.4,2.6-5.6-2.6-6.3,3.2C342.8,55.2,342,53.7,341.3,52.5z"/>
	<path class="st0" d="M357.6,70.6c2.1-1.1,3.8-2,5.3-2.8c1.7,2,3.1,3.7,4.5,5.3C365.7,75.6,365.7,75.6,357.6,70.6z"/>
	<path class="st0" d="M358.8,61c0.2-0.4,0.7-1.2,0.8-1.3c2.4,0.4,4.6,0.8,7.7,1.4c-5,0.9-9.2,1.7-13.5,2.5c-0.3-0.3-0.6-0.6-0.9-0.9
		c1.1-1.2,2.1-2.4,3.3-3.4C356.5,59.1,357.7,60.3,358.8,61z"/>
	<path class="st0" d="M341.3,35.1c-0.1,0.9-0.1,1.9-0.1,1.7c-3,1.8-5.2,3.2-8,4.9c0.5-2.5,0.2-5.3,1.3-6
		C336.2,34.7,338.7,35.2,341.3,35.1z"/>
	<path class="st0" d="M111,77c0.6,1.9,1,3.4,1.3,4.6c-3.6,0.3-6.9,0.6-10.3,0.9c-0.1-0.2-0.2-0.4-0.2-0.6
		C104.6,80.4,107.5,78.9,111,77z"/>
	<path class="st0" d="M368.6,34.5c-1.8-0.9-3.6-1.9-5.4-2.9c-0.2,0.3-0.7,1-1.3,2c-1.1-1.8-1.8-3-2.5-4.2
		C362.5,27.5,365.9,29.4,368.6,34.5C368.5,34.6,368.6,34.5,368.6,34.5z"/>
	<path class="st0" d="M357.4,48.7c1.5,5,1.2,5.5-3.1,5.5c-0.2-1.3-0.3-2.7-0.5-4.1C354.9,49.6,356.2,49.2,357.4,48.7z"/>
	<path class="st0" d="M72.5,73.1c-3.4-0.7-6.2-1.3-9.1-1.8c0-0.4,0.1-0.8,0.1-1.3c1.8,0,3.6,0,5.9,0c-0.1,0.2,0.3-0.4,0.8-1
		C71,70.1,71.6,71.2,72.5,73.1z"/>
	<path class="st0" d="M427.5,83.3c0.2-1.2,0.5-2.5,0.8-4.2c1.6,0.8,2.8,1.5,4.2,2.3c-0.3,0.8-0.6,1.7-0.7,2
		C430.4,83.3,429.1,83.3,427.5,83.3z"/>
	<path class="st0" d="M358.8,45.5c1.8-0.6,3.5-1.1,6.3-2c-1.2,2.1-1.8,3.2-2.5,4.5c-1.3-0.3-2.4-0.6-3.6-0.9
		C359,46.5,358.9,46,358.8,45.5z"/>
</g>
</svg>
