<?xml version="1.0" encoding="utf-8"?>
<!-- Generator: Adobe Illustrator 25.4.1, SVG Export Plug-In . SVG Version: 6.00 Build 0)  -->
<svg version="1.1" id="Layer_1" xmlns="http://www.w3.org/2000/svg" xmlns:xlink="http://www.w3.org/1999/xlink" x="0px" y="0px"
	 viewBox="0 0 316.4 455.1" style="enable-background:new 0 0 316.4 455.1;" xml:space="preserve">
<style type="text/css">
	.st0{fill:#010101;stroke:#EB2627;stroke-width:6;stroke-miterlimit:10;}
</style>
<g>
	<g>
		<path class="st0" d="M170.6,322.5c3,6.1,6,12.1,9,18.2c0.5-0.3,1-0.5,1.6-0.8c-1.5-11.5-3-23-4.8-34.5c-0.3-1.6-2.4-3.4-4.1-4
			c-6.5-2.5-13.2-4.7-20.2-7c-1.9,4.3-4.2,8.5-5.6,12.9c-6.3,19.5-20.9,31.7-36.8,42.8c-5.5,3.8-10.9,7.9-15.7,12.6
			c-2.3,2.3-3.8,6.2-4.2,9.6c-0.9,8.4-1.5,17-1.3,25.5c0.1,5.7,1.6,11.5,3,17.1c0.3,1.4,2.7,3.5,4,3.4c8.5-0.7,9.2,6.2,12.3,11.3
			c-1.1,0.6-1.7,1.2-2.4,1.3c-13.3,3.2-26.4,7.6-40.4,6.8c-4.1-0.2-4.5-2.9-4.8-5.9c-0.3-3.2-0.3-6.5-0.4-10.1
			c-1.7-0.3-3.6-0.7-6-1.2c7.6-5.1,9-11.8,6.2-23.3c-1.9-7.8-2.7-15.8-4.2-23.7c-0.6-3.1-1.4-6.2-3.4-9c-2.3,8.6-4.5,17.1-6.8,25.7
			c-0.4-0.1-0.8-0.2-1.2-0.3c0.4-5.1,0.7-10.3,1.2-15.4c0.5-5.6-4.4-9.5-10.1-7.8c-2,0.6-4,1.4-5.9,2.2c-5.4,2.4-10,0.6-15.1-3.6
			c2.8-5.8,6.4-12,8.8-18.6c1.8-4.7,2.3-9.9,2.8-15c0.1-0.9-2.9-3.3-4.1-3c-3.9,0.8-7.6,2.5-11.9,4c4.5-5,9.1-9,16.1-9.1
			c5.3-0.1,7.3-3.6,6.4-8.9c-0.4-2.5-0.4-5.8,0.9-7.9c4.3-6.8,7.8-13.6,6.3-22c-0.2-1.1-0.2-2.9,0.4-3.3c5.5-3,4.1-8,3.9-12.7
			c-0.1-1.8-0.1-4.2,1-5.5c7.4-9.7,4-21,5.5-31.6c0.4-2.5,0.9-5.3,2.2-7.5c6.3-11.1,13.9-21.5,18.7-33.2c2.2-5.5,5.1-8.5,9.4-10.9
			c-7.6-7.7-14.9-15.1-22.3-22.6c0.4-0.4,0.8-0.9,1.1-1.3c13.5,6.7,24.4,20.7,42.9,14.7c-2.3-0.3-3.8-0.5-5.4-0.7c0-0.1,0-0.3,0-0.4
			c5.1-0.2,10.2-0.4,16.8-0.7c-11-9.9-20.4-19-25.9-31.2c11.9,8.2,23.7,16.3,35.4,24.6c5.4,3.8,14.3,6,24.3,4.3
			c-8.2-6.8-15.4-12.8-22.6-18.8c-5.3-4.5-10.9-8.6-15.6-13.7c-2.7-2.8-5-2.8-8-2.1c-5.5,1.3-11,2.6-17.1,2.9
			c6-4,12.1-8.1,18.7-12.5c2.6-0.1,6.6,0.3,10.4-0.5c17.4-3.6,33.1,1.3,48.3,9.1c9,4.6,17.9,9.6,27,14.1c1.4,0.7,4.4,0.3,5.4-0.7
			c4.2-4.5,7.9-9.5,11.9-14.3c-0.3-0.4-0.6-0.9-0.9-1.3c-2.6,1-5.1,2-8.4,3.3c5.7-8.9,11-16.9,16.7-25.8c-3,0.1-6,0.4-9.1,0.3
			c-2.8-0.1-5.8-0.2-8.5-0.9c-3.3-0.8-4.6-3-3.5-6.6c3.2-10.7,9.3-18.1,20.2-22.3c4.3-1.7,7.8-7.2,10.1-11.8
			c4-8.2,8.2-15.9,17.6-18.7c10.6-3.1,14-12.1,17.9-20.9c3.1-6.9,6.8-13.6,10.6-20.2c0.8-1.4,4-2.8,4.9-2.3
			c5.3,3.2,12.5,4.5,13.9,12.4c0.3,1.5,2,3.4,3.4,3.8c7.2,2.4,11.6,10.4,9.4,17.8c-0.5,1.6-0.7,3.5-1.6,4.9
			c-5.6,9.3-3.7,18.8-1.2,28.3c0.5,1.8,2,3.3,2.9,5c0.8,1.5,2,3,2.2,4.6c1.2,7.6,1.9,15.2,3.1,22.8c0.6,3.8,2,7.5,2.7,11.4
			c0.4,2.6,0.2,5.3,0,7.9c-0.3,3.1-1.6,6.2-1.3,9.1c1,7.8,2.7,15.6,3.9,23.4c0.2,1-0.6,2.2-0.7,3.3c-0.6,6.9-1,13.8-1.8,20.7
			c-0.5,4.3-1.3,8.5-2.2,12.7c-3.1,13.9-6.3,27.8-9.4,41.7c-0.2,1.1-0.2,2.5,0.4,3.4c3.7,6.2-0.5,10.7-3.2,15.5
			c-1.1,1.9-2.7,3.7-3.3,5.8c-3.2,11.2-7.7,21.7-14.8,31.2c-1.6,2.1-2.2,5.4-2.2,8.2c-0.2,12.1-0.3,24.2,0.2,36.3
			c0.3,7.1,1.9,14.1,2.8,21.1c0.1,0.9-0.3,1.9-0.4,2.8c-0.5,9.2-1,18.5-1.6,27.7c-0.2,4-0.8,8-0.8,12c-0.1,6.5-0.5,13,0.2,19.4
			c0.7,6.5,6.8,8.3,11.5,11.3c8.7,5.3,17.3,10.8,25.8,16.3c3.2,2.1,1.6,4.3-0.9,5.1c-4.2,1.5-8.6,3.1-12.9,3.1
			c-14.1,0-28.2-0.8-42.3-1.3c-0.8,0-1.5-0.3-2.4-0.5c-0.9-3.8-2.6-7.6-2.6-11.4c0-3.2,1.3-6.7,3-9.5c4-6.6,1.5-13.3,0.4-19.6
			c-3.1-16.8-10.7-31.8-21.2-45.4c-2.7-3.5-5.9-4.8-10.2-3.7c-1.8,0.5-3.8,0.2-5.6,0.3c-0.3-0.5-0.6-1.1-0.9-1.6
			c2.1-1.3,4.2-2.6,7.5-4.5c-2.4-2.6-5.1-5.3-7.7-8.1c-0.3,0.3-0.7,0.5-1,0.8c-0.1-3.4-0.3-6.9-0.4-9.3c9.4,7.1,19.2,14.5,29,21.9
			c0.6-0.4,1.2-0.8,1.7-1.2c-1.8-24-8.9-47.9-2.5-73.3c-2.6,0.1-4.9-0.4-6.7,0.4c-6.6,2.9-12.7,7-19.4,9.1c-6.5,2-8,6.1-7.9,11.8
			c0.1,14.1,0.2,28.1,0.3,42.2c0.1,13.1,0.6,26.3,0.5,39.4c-0.1,10.4-0.8,20.8-1.2,31.1c0,1.1,0.2,2.3,0.3,3.4
			c0.4-0.4,0.9-0.8,1.3-1.1c2.6,2.3,5.1,4.7,7.7,7c3.6,3.1,7.2,6.2,10.5,9c-0.3,2.4-0.8,5.5-1.4,10.2c-5.4-0.5-12.6-1.1-19.6-1.9
			c-2.7-0.3-5.2-1.4-7.9-2c-11.4-2.5-14.3-6.6-13.8-18.4c0.5-10.9,1.1-21.9,0.8-32.8c-0.5-16.9-4.5-33-11.4-48.6
			c-2.9-6.6-3.4-14.3-5.1-21.4C169.6,322.7,170.1,322.6,170.6,322.5z M161.9,153.5c-11.1-12.3-34.5-26-45.2-21.4
			c1.6,1.2,3.1,2.5,4.7,3.4c11.2,6.1,22.5,12.3,33.9,18.2C157,154.6,159.7,153.6,161.9,153.5z"/>
	</g>
</g>
</svg>
