<?xml version="1.0" encoding="utf-8"?>
<!-- Generator: Adobe Illustrator 25.2.1, SVG Export Plug-In . SVG Version: 6.00 Build 0)  -->
<svg version="1.1" xmlns="http://www.w3.org/2000/svg" xmlns:xlink="http://www.w3.org/1999/xlink" x="0px" y="0px"
	 viewBox="0 0 232 236" style="enable-background:new 0 0 232 236;" xml:space="preserve">
<style type="text/css">
	.st0{fill:#ED2024;}
	.st1{fill:#FFFFFF;}
</style>
<g id="Layer_1">
	<g>
		<path class="st0" d="M117.8,202c-0.1,0.3,0,0.5,0.1,0.6C120.7,204.3,120.6,204.1,117.8,202 M79.4,165.8c0,0.2,0.2,0.4,0.4,0.4
			C82.4,168.1,82.2,168,79.4,165.8 M68.5,178.9c-0.1,0.3,0,0.6,0.1,0.8C71.1,181.5,71.1,181.2,68.5,178.9 M75.3,166.4
			c0,0.2,0.1,0.4,0.2,0.4C78.4,167.7,78.3,167.6,75.3,166.4 M121.1,187.3c2.7,1.7,2.7,1.5-0.3-0.6C120.9,187,121,187.2,121.1,187.3
			 M122.7,181.9c-0.4,1.2-0.1,1.7,0.7,1.5l1.9-0.3C127.2,178.3,126.3,177.9,122.7,181.9 M111,192.1l0,1.3c3.4-1.6,3.4-2.6,0-2.9
			C111,191,111,191.5,111,192.1 M108.1,190.1c2.5,2.7,2.4,2.5-0.3-0.6C107.9,189.8,108,190,108.1,190.1 M231.9,235.6
			c-0.2-0.1-0.5-0.1-0.8,0L231,236c0.4-0.1,0.7-0.1,0.9-0.1L231.9,235.6 M145.2,202.1c1-2.9,0.3-4.6-1.9-4.9c-0.1,1.1,0,2.2,0.2,3.4
			l0.5-0.1c-0.3,6.4-0.1,7.2,0.7,2.5c0-0.2,0-0.5,0-0.8C145,202.3,145.1,202.2,145.2,202.1 M148,188.3c2.6,1.9,2.5,1.7-0.3-0.6
			C147.8,188,147.8,188.2,148,188.3 M142,188.8c3.6,0.4,3.4-0.6-0.8-2.9C141,187.7,141.3,188.7,142,188.8 M129.7,168.6
			c0.1,1.1,0.1,1.6,0.2,1.6C133.9,171.3,133.8,170.7,129.7,168.6 M212.1,204.1c-0.1,0.3,0,0.5,0.2,0.4
			C214.8,206.5,214.8,206.3,212.1,204.1 M214.2,209.8c0.8,1.7,1.8,3.2,2.9,4.4l0.8,0.8C221.6,213,220.4,211.3,214.2,209.8
			 M215.4,219.6c0,0.2,0.1,0.4,0.3,0.6C219,222.1,218.9,221.9,215.4,219.6 M127.6,41.5c-0.2,0-0.4,0.1-0.5,0.2
			c-2.2,3.2-4.8,6-7.8,8.3c-0.1,0.3-0.1,0.6,0,0.8c-0.3-0.1-0.5,0-0.6,0.3c-0.8,0.7-1.4,1.3-1.9,2.1c-0.1,0.3-0.1,0.6,0,0.8
			c-0.1,0.3-0.1,0.5-0.3,0.4c-1,0.4-1.8,1-2.3,2c0,3.3,1,3.1,3.1-0.8c0.1-0.1,0.2-0.3,0.2-0.7c0.7-1,1.4-1.8,2.2-2.6
			c0.1-0.1,0.2-0.3,0.2-0.7c0.3,0.1,0.5,0,0.6-0.1C123.3,48.4,125.7,45.1,127.6,41.5 M127.7,39.9c1.3,1.3,3.3,0.5,6-2.4
			c0.6-0.6,0.5-1.3-0.2-2.1C132,33.8,130.1,35.3,127.7,39.9 M166.3,13.8c-0.6,1.8-0.4,3.1,0.6,3.8C170.4,16.2,170.2,14.9,166.3,13.8
			 M81.9,146.9c3-0.9,3-1.1,0.1-0.5L81.9,146.9 M78.1,139l-0.1,1.6C81.7,135.3,81.8,134.7,78.1,139 M69.9,125.7
			c0.2,0.1,0.4,0,0.5-0.1c4-6.4,3.6-6.7-1.3-0.8c-0.1,0.2-0.1,0.5,0,0.8c-0.3,0-0.5,0.1-0.5,0.2c-0.6,1-1.3,1.7-2.1,2.1
			c1.1,1,2.2,0.5,3.2-1.6C69.8,126.2,69.8,125.9,69.9,125.7 M77.9,120.6l-3.1,2.9c0.1,1.4,0.9,2.2,2.3,2.4c0.3,0.2,0.6,0.2,0.8,0.2
			c-0.1,0.2-0.1,0.3,0,0.3c3.1,0.9,3.1,0.6,0-1.1C78.4,123.5,78.4,121.9,77.9,120.6 M30.9,159.9c-0.2-0.1-0.4,0-0.6,0.1
			c-1.7,0.6-3.5,1.3-5.2,2.1c2.1,1.9,4.3,1.4,6.4-1.5c0.2-0.2,0.3-0.5,0.2-0.7l1.6-1.4c3.1-1.7,2.3-1.5-2.3,0.5
			C31,159.3,31,159.5,30.9,159.9 M11.6,138l0,1.3C13.9,139.4,13.9,139,11.6,138 M38.4,119.7l-0.1,0.3
			C42.6,118.9,42.7,118.8,38.4,119.7 M28.2,126.9c4.8-1.5,4.9-1.6,0.1-0.3L28.2,126.9 M17.7,94.4c3.1,3.7,3,3.5-0.1-0.8
			C17.5,93.9,17.5,94.2,17.7,94.4 M42.1,69.7L42,70.1C47.3,68.3,47.3,68.2,42.1,69.7 M84.2,72.1l-0.1,0.3
			C86.9,71.5,86.9,71.4,84.2,72.1 M54.2,8.6l0,1.3c2.2,0.1,2.2-1.1,0.1-3.7C54.4,7,54.3,7.8,54.2,8.6 M23,0c-0.1,0.3,0,0.6,0.1,0.8
			C25.9,3.1,25.9,2.9,23,0 M169.2,208.9c0.3-2-1.1-3.5-4.4-4.3c-0.1,1.6,0.1,3.1,0.5,4.3c0.5,1,1.1,1.8,2,2.4c0.5,0.4,0.8,0.4,1,0.2
			C168.9,210.6,169.2,209.7,169.2,208.9 M155.3,167.6c0.3,0.2,0.6,0.5,0.9,0.7c3.1,2.4,3.1,2.3,0-0.3c-0.3-0.2-0.7-0.5-1.1-0.8
			C155.1,167.3,155.2,167.5,155.3,167.6 M180.3,72.9c1,0.1,1.7,0.2,2.1,0.2l0.3,0c-0.4-0.1-1.3-0.2-2.7-0.4l-0.1,0.2l0,0.2
			C180.1,72.9,180.2,72.9,180.3,72.9 M140.2,134.8c2.6,1.9,2.5,1.7-0.1-0.5C140.2,134.5,140.2,134.6,140.2,134.8 M137,133.3
			c0,0.2,0.1,0.4,0.1,0.6c1.2,5,3.2,9.3,5.9,13.1c0-0.2-0.1-0.4-0.3-0.6C141.3,141.6,139.4,137.2,137,133.3 M184.8,55.8
			c-0.2-0.1-0.4,0-0.6,0.3c-1.4,0.8-2.9,1.4-4.4,2c0.9,0.6,2.5,0.7,4.9,0.4c0.3-0.2,0.6-0.2,0.8-0.1c2.2,0.5,3.2-0.2,2.9-2.2
			c0-0.1-0.1-0.1-0.3-0.1c0.5-0.7,1.3-1.1,2.4-1c0.6,0,1-0.1,1.3-0.2c0.9-0.1,1.2-0.5,0.8-1.1c-0.1-0.1-0.2-0.3-0.4-0.4l0,0
			c-0.1,0-0.2-0.1-0.3-0.1c-1-0.4-3.1,0.3-6.2,1.9c-0.1,0.3-0.1,0.6,0,0.8C185.4,55.7,185.1,55.7,184.8,55.8 M165.1,178.8
			c-0.1,0.2,0,0.4,0.3,0.6C169.5,183.8,169.4,183.6,165.1,178.8 M164.5,133.6c0,0.2,0.1,0.4,0.1,0.5
			C170,136.6,170,136.4,164.5,133.6 M172.3,120c0.5-2.3,0-4-1.4-4.9c-3-1.7-4.8-1.2-5.4,1.6c-0.8,3.4-2.5,4.7-5.3,3.7
			c0,0.2,0.1,0.4,0.2,0.4C165.8,125.9,169.7,125.6,172.3,120 M178.2,118.2c4.3,0.2,4.3-0.2,0-1.1L178.2,118.2 M180.4,104.9
			c-0.1,0.3,0,0.5,0.1,0.5C183.2,107.1,183.2,107,180.4,104.9 M158.3,109.8l0,1.3C161.4,109.9,161.4,109.5,158.3,109.8 M171.5,61.7
			l0.1,0.5C178.8,59.9,178.7,59.7,171.5,61.7 M166.9,55.1c-0.1,0.3,0,0.5,0.3,0.6C169.7,57.5,169.6,57.3,166.9,55.1 M157.5,71.9
			c0.2-0.1,0.5-0.2,0.8-0.1c-0.1,0.2-0.1,0.5,0,0.8c-0.1,0.2-0.2,0.5-0.4,0.7c-0.1,0-0.3,0-0.5,0.1c0,7.3,2.9,8.9,8.7,5
			c0.5-0.3,0.7-1,0.6-2.2c-0.2-2.6-1.6-3.9-4.4-4.2c0-0.3-0.1-0.6-0.3-0.8c-0.2-0.4-0.4-0.7-0.6-0.9c0.1-0.3,0.1-0.6,0-0.8
			c1.1-0.5,2.2-1.1,3.1-1.8c0.1,0,0.1-0.2,0.1-0.5c2.1-0.4,3.6-1.4,4.6-3l0.7-0.9c-1.7-0.9-3.6-0.2-5.8,2.2c0,0.3,0,0.6,0,0.8
			c-0.3-0.1-0.6,0-0.8,0.1c-3.2,1.8-6.2,3.7-9.1,5.9C154.7,74.2,155.8,74.1,157.5,71.9 M154.4,47.2l-0.1,0.5
			C160.4,47.7,160.5,47.6,154.4,47.2 M165.2,40.6c0.1-0.3,0-0.6-0.1-0.8c-0.7-10.4-4.7-12.5-11.8-6.2c0,0.2,0,0.5,0,0.8
			C154,41.6,158,43.7,165.2,40.6 M161.7,45.6c3.7,0.1,3.7,0,0-0.3L161.7,45.6 M66.8,138.4c-0.1,1.1,0.1,2.2,0.3,3.3
			c0.5,2.6,1.6,3,3.4,1.1c1.1-1.2,1.8-2.3,2.1-3.1c0.8-1.6,0-2.3-2.3-2.1C69.5,137.8,68.3,138,66.8,138.4 M65.6,131.4l0.4-0.9
			c-1.5,0.6-3.4,1.9-5.8,3.6c-0.7,0.5-1.4,1-2.2,1.6c0,0.3,0.1,0.5,0.2,0.4c1.3,0.5,2.8,0,4.6-1.7C63.7,133.7,64.6,132.7,65.6,131.4
			 M77.8,68.6c-0.1,0.8,0,1.2,0.2,1.3c0.7,0.2,1.3,0.3,1.8,0.4c3.1,0.7,3,0.4-0.3-0.9C79.1,69.1,78.5,68.9,77.8,68.6 M44.1,38.3
			c0.1-0.3,0.1-0.7,0-1c-0.5-3.1-2-5.3-4.6-6.6c0.6,3.3,1.9,6,4,7.9c0.1,0.2,0.3,0.3,0.5,0.4c1.1,2.3,2.1,4.7,2.9,7.3
			c0,0.2,0.1,0.4,0.1,0.6c-0.2,0-0.4,0-0.5-0.1c-4.4-8.2-12.1-13.3-23.2-15.3c-0.2,3.8,0.6,6.6,2.4,8.2c0.2,0.2,0.4,0.4,0.6,0.6
			c0.1,0.2,0.4,0.3,0.7,0.2c2.1-1.4,4.3-1.9,6.7-1.5c2.1,0.3,4.4,1.4,6.8,3.1c0.1,0.2,0.2,0.4,0.3,0.6c1,2.4,2.2,4.7,3.6,6.7
			c0,0.2,0.1,0.4,0.1,0.6c1,1.4,1.8,2.7,2.6,4.1c0.1,0.1,0.3,0.1,0.5,0.1c0,0.9,0.1,1.7,0.2,2.4c0.1,0.1,0.3,0.1,0.5,0.1
			c-0.3,1.7,0,2.9,0.8,3.4c0.2,0.1,0.4,0.2,0.5,0.2c0.1,0.1,0.1,0.2,0.1,0.5c0,0.3,0,0.6,0,0.8c0,0.3,0,0.5-0.1,0.7l0,0.2
			c0.1,0.8-0.4,1.1-1.7,0.7L48,63c-1.7-0.3-3.3-1-4.9-2.2c0.1-0.2,0.1-0.5,0-1C43.1,58.5,42,58,40,58.3c-0.6,2.2-0.1,3.3,1.5,3.3
			c0.3,0,0.6,0,0.8,0c1,0.4,1.7,1.1,2,2.3c0,0.1,0.1,0.1,0.3,0.1c1,2.2,2.4,4.1,4.1,5.7c0.2,0.2,0.5,0.2,0.7,0.2
			c0.6,0.9,1.3,1.7,2.1,2.3c0.8,0.5,1.6,0.8,2.6,1.1c0.2,0.2,0.5,0.2,0.8,0.2c1.8,3.9,4.7,6.9,8.7,9c0.5,0.2,0.9,0.4,1.4,0.6
			c0.1,0.1,0.2,0.3,0.1,0.6c-0.6,4.4-0.3,7.9,1,10.5c0.2,0.3,0.2,0.6,0.3,0.8c-3.5,5.4-3.3,10,0.7,13.9c0.2,0.2,0.3,0.4,0.3,0.6
			c-0.3,0-0.5,0-0.7-0.1c-1.8-2.7-3.5-2.2-5.1,1.6c0.1-0.3,0-0.6-0.1-0.8c-0.3-1.6-1.1-1.9-2.2-0.9c-0.4,1.4-0.2,2.2,0.7,2.5
			c0.2,0,0.5,0,0.8,0c0.2,0,0.4,0,0.7,0.2c2.8,1.9,1.7,3.7-3.2,5.3c-0.1,0.2-0.1,0.5,0,0.8c-1.1,0-1.6-0.2-1.7-0.4
			c-0.9-6.3-4.1-8-9.7-5c1,9.2,4.9,11.2,11.9,5.9c0.1-0.1,0.2-0.3,0.2-0.5c3.4-1.1,6.4-2.5,9.1-4.3c0.2-0.1,0.5-0.2,0.8-0.3
			c0.2,0.1,0.5,0.1,0.8,0c1,1.5,2.5,2.4,4.6,2.7c0.3,0.1,0.6,0.1,0.8,0l0.5,0.1c0.1,0.8-0.3,1.3-1.2,1.5c0.3,1.6,1.5,1.4,3.5-0.5
			c0.1,0,0.3,0,0.5-0.1c2.2,3.2,4.3,5.1,6.4,5.8c0.3,0.1,0.6,0.1,0.8,0.2c-0.4,4.1,0,6.1,1.4,5.8c0.3,0,0.6,0,0.8,0
			c-0.1,0.2-0.1,0.5,0,0.8c-0.3,2.4-0.9,4.5-2,6.3c0,0.3,0,0.6,0,0.8c0,0.3,0.1,0.6,0.1,0.8c0.2,1.2-0.2,1.7-1,1.6
			c0.3,4.7,0.9,4.2,1.7-1.5c0.1-0.2,0.1-0.5,0-0.8c2.7-0.8,3.6,2.2,2.7,9.1c0,0.1,0.3,0.4,0.8,0.8c0.8,0.8,1.1,0.8,1.1-0.2
			c0.3,0.1,0.6,0.1,0.8,0c0.3,0.1,0.6,0.1,0.8,0c0.8,1.3,1.6,1,2.3-0.7c0.1-0.2,0.1-0.5,0.2-0.8c0.2,0.1,0.3,0.2,0.4,0.3
			c1.9,4.3,1.3,7.7-1.7,10.2c0,0.3,0,0.6,0,0.8c-0.3,0-0.6,0.1-0.8,0.1c-1.9,0.8-4.9,0.2-8.9-2c0,1.5,0.3,2.8,0.9,3.9
			c0.1,0.1,0.3,0.2,0.5,0.2c0,0.2,0,0.4-0.2,0.5c-0.1,0.1-0.3,0.2-0.6,0.3c0.4,3.1,1.1,3.3,2.2,0.8c0.2-0.2,0.3-0.5,0.2-0.7
			c0.5,2.6,1.9,3.3,4.2,2.1c2.4-1.4,5.6-2,9.6-1.6c3.4-1.1,6.2-0.6,8.3,1.3l0.1-0.3c0.3-2-0.8-3-3.4-3.2c0.1-0.3,0-0.5-0.3-0.6
			c-0.3-0.4-0.7-0.8-1.3-1.1c0-0.2-0.1-0.4-0.1-0.6c-0.5-1.3-1.2-2.5-2.2-3.5c0-0.2,0-0.5,0-0.8c0-1.3,0.1-2.6,0.2-4.1
			c0.5-0.2,1-0.5,1.5-0.9c0.1-0.1,0.2-0.3,0.2-0.7c3.8-2,7.6-0.5,11.4,4.4c2.8,3.8,5.8,7.4,9,11c0.2,2.8,0.4,5.5,0.4,8.1
			c0,0.2,0.1,0.5,0.1,0.8l-0.3,0c-0.1,1.8-0.9,2.9-2.3,3.1c1.6,5.8,2.5,5.3,2.5-1.5c0-0.3,0-0.6,0-0.8c2.3-2.8,3.1-6.5,2.5-11.2
			l0.3,0c1.6,2.6,3.1,4.6,4.7,6.2l0-0.3c1.1-1,1.9-1,2.3,0.1c0.1,0.2,0.2,0.5,0.1,0.8c-0.2-0.1-0.5-0.1-0.8,0c-0.3,1.8,0,3,0.9,3.7
			c0.2,0.2,0.5,0.3,0.7,0.4c0.4,1.3,0.8,2.7,1.3,4c0,0.3,0.1,0.6,0.1,0.9c0.7,4.8,2.3,7.7,4.5,8.5l-0.1-0.5c2.2-4,1.2-6.7-2.9-8.1
			c-0.3,0-0.6,0.1-0.8,0.1c0-0.3-0.1-0.6-0.1-0.9c-0.3-1.1-0.4-2.5-0.4-4c0-0.3,0-0.5,0.1-0.7c1.2-1.2,1.2-2.3,0-3.4
			c0.1-0.3,0.1-0.6,0-0.8c0.1-0.3,0.1-0.6,0-0.8c0.3,0,0.6,0,0.8,0c3.2,1.4,4.7,3.1,4.3,5.1c-0.1,1.3,0.4,2.5,1.5,3.5
			c5.3,4.2,9.5,9.4,12.7,15.4c0.6,0,1.2,0,1.8,0c3.8,0.4,7.3,1.9,10.4,4.4c0.1,0.1,0.3,0.1,0.5,0.1c1.8,5.2,3.9,10,6.3,14.5
			c0.7,1.2,1.5,2.4,2.2,3.5c0.4,0.7,0.9,1.3,1.4,1.9c1.7-0.7,2.6-2.6,2.7-5.6c0-0.1,0-0.2,0-0.3c0-1.1,0.1-2.3,0.2-3.7
			c-1.9-5.4-4.5-9.5-7.7-12.3l-0.2,0c-1.5,0.1-3.1-0.3-4.7-1.2c0.1-0.2,0.1-0.5,0-0.8c-0.1-1.2-0.9-1.7-2.4-1.7
			c0.1-0.2,0-0.4-0.1-0.5c-0.1-0.2-0.4-0.3-0.7-0.4c0.1-0.2,0-0.4-0.1-0.6c-1.5-2.7-3.2-5.1-5.2-7.4c0-0.3-0.1-0.6-0.1-0.9
			c-1-1.8-2.5-3.2-4.4-4.2c0-0.2-0.1-0.3-0.2-0.4c0-0.1-0.1-0.1-0.2-0.1c-4.4-3.2-8.2-7-11.4-11.3c0.1-0.3,0-0.5-0.1-0.6
			c-5.8-10-11.9-19.7-18.2-29.1c4.3-1.1,7.5-2.9,9.8-5.5c0.1-0.1,0.2-0.3,0.2-0.5c4.8-1.4,8.6-3.7,11.5-7.1c0.1-0.2,0.1-0.4,0.1-0.7
			c0.3-0.3,0.6-0.5,0.9-0.6c0.2,0,0.5-0.1,0.8-0.1c0,0.2,0.1,0.4,0.2,0.4c0.9,0.3,1.8,0.7,2.6,1.2c2.2,1.4,4.2,3.4,5.9,6
			c0.5-0.3,0.7-0.5,0.6-0.6c-0.7-2.7-3-5.1-7.1-7c-0.7-0.3-1.5-0.6-2.2-0.9c0.1-0.3,0.1-0.6,0.2-0.7c2-2.2,2-3.6,0-4.2
			c0.1-0.2,0.1-0.5,0-0.8c0.1-0.2,0.2-0.4,0.2-0.5c1.5-1,1.2-2.4-0.8-4.4c0-0.2-0.1-0.4-0.1-0.6c-1.3-2.9-2.5-6-3.5-9.3
			c1.7,0.1,3.4,0.4,5,0.7c2.2,0.5,4.3,1.2,6.3,2.1c0.2,0.1,0.5,0.1,0.8,0.2c3.3-3.5,2.5-6.9-2.7-10.1c-0.1-0.1-0.2-0.2-0.2-0.4
			c0.1-0.3,0.1-0.6,0-0.8c2.4-1,3-1.5,1.7-1.5c-0.3-0.1-0.6-0.1-0.8,0c0.1-0.3,0-0.6-0.1-0.8c-0.2-2.1-1-2.2-2.3-0.1
			c0,0.2,0,0.5,0,0.8c0,0.2,0,0.5,0,0.8c-0.3,0-0.6,0-0.8-0.2c-1-0.3-2-0.6-3-0.8c-3.5-0.9-7.4-1.6-11.5-2c2.1-1.2,4-2.6,5.7-4.2
			c0.1-0.1,0.2-0.3,0.2-0.5c0.2,0.1,0.5,0,0.8-0.1c1.4-0.5,2.8-1.1,4.1-1.8c1.8-0.9,3.5-2.1,5.2-3.4c-0.3,0-0.6,0.1-0.9,0.1
			c-1.4,0.6-2.9,1.2-4.4,1.8c-2,0.9-4.1,1.7-6.2,2.6c-0.1,0.2-0.1,0.5,0,0.8c-0.3-0.1-0.5,0-0.5,0.1c-1.2,1.4-2.7,2.3-4.6,3
			c-0.1,0.2-0.1,0.5,0,0.8c-2.6,2-4,1.7-4-1l0-0.2c0.2-2.7-0.5-4.9-2.1-6.4c6.3-4.2,9.5-10.3,9.7-18.2c0-0.2,0-0.5,0-0.8
			c0.3,0,0.5-0.1,0.6-0.3c4.6-4.6,4.4-5-0.5-1.4c-0.1,0.3-0.1,0.6,0,0.8c-0.2-0.1-0.5-0.1-0.8,0c-0.2-0.1-0.5-0.1-0.8,0
			c-1.9-0.1-2.9-1-3.1-2.6c0-0.2-0.1-0.4-0.1-0.5c-0.8-1-1-2.4-0.5-4.4c2.7-2.8,5.1-5.8,7.2-9.2l0,0c0.1-0.1,0.3-0.1,0.5-0.1
			c0.2-3.6,1.2-6.2,3-7.9c0.1-0.1,0.3-0.2,0.6-0.3c0.4-0.9,0.6-1.9,0.8-3c0.1-0.6,0.2-1.2,0.2-1.8c0-0.3,0-0.6,0-0.8
			c3.1-2.9,5.6-6.6,7.5-11c0.2-0.2,0.2-0.5,0.2-0.8l0.3,0.1c0.8-2.8,0.7-5,0-6.6c-2.6,0.5-4.4,2.3-5.3,5.3c-0.5,2.2-1.5,4.5-2.9,6.7
			c-2.4,3.8-4.6,7.8-6.4,12.1c-2.7,6.3-5.7,10.7-9,13.1c-0.2,0-0.4,0-0.5-0.1c-4.2,7.6-9.4,14.2-15.6,19.6c0,0.3,0,0.6,0,0.8
			c-0.3,5.3-2,6.6-5.1,3.8l-0.3-0.1c-0.4-6.2-3.3-10.9-8.8-14.1c-0.3,0-0.5,0.1-0.5,0.2c-1.8,2.9-1,4.7,2.6,5.6
			c-2.8,1.5-4.5,4-5,7.4c-0.4,2.1-1.1,3.1-2.1,3.1c-2.6,0.1-5.2-0.3-7.8-1.2c-0.1,0.2-0.1,0.5,0,0.8c-0.2-0.1-0.4-0.2-0.5-0.2
			c-0.8-1.2-2-1.9-3.6-2.3c0.5,1.3,1.4,2.4,2.6,3.1c0.2,0.1,0.5,0.1,0.7,0.2c-0.1,1.1,0.2,1.8,0.8,2.3c0.7,0.6,1,1.2,0.9,1.6
			c-0.9,5.2-5.3,8.6-13,10.2c0.1-0.3,0.1-0.6,0.2-0.8c0.8-2.5,0.9-4.9,0.2-7.1c-0.9-2.6-2.9-4.9-6.1-7c0-0.3-0.1-0.6-0.1-0.8
			c-0.9-3-1.8-5.9-2.8-8.9c0.1-0.2,0-0.5-0.1-0.9c-0.4-2.1-1.1-4-2-5.7c0-0.2,0-0.5,0-0.8c0.4-2.3-1.2-4-4.7-5.1
			c0-0.2-0.1-0.4-0.2-0.4c-1.2-0.9-2.5-1.6-3.7-2.2c-0.2,2.4,0.9,3.6,3.1,3.5c0.2-0.1,0.5-0.2,0.8-0.1c1.1,1.5,2.3,3,3.6,4.4
			c0.1,0.2,0.2,0.4,0.3,0.6c0.1,3,0.6,5.6,1.5,8c0,0.1,0.2,0.2,0.5,0.2c0.1,3.2,0.7,5.9,1.9,8.1c0.1,0.2,0.2,0.4,0.3,0.8
			c-0.1,0.2-0.1,0.5,0,0.8c-0.1,1.7-1.2,2.3-3.3,1.6c-0.3-0.1-0.6-0.1-0.8-0.2c-1.3-1-2.4-2.1-3.1-3.2c0-0.3-0.2-0.5-0.4-0.6
			c-0.9-1.5-1.8-2.9-2.8-4.4c0.1-0.3,0-0.5-0.1-0.5c-1.3-0.6-1.7-1.8-1.4-3.7c0.1-0.2,0-0.4-0.1-0.6C56.5,57.3,55,55,53.3,53
			c0-0.2,0-0.5,0-0.8c-0.1-0.8-0.6-1.4-1.6-1.7c0-0.2-0.1-0.4-0.1-0.6c-0.8-1.4-1.7-2.6-3-3.6c0-0.2-0.1-0.4-0.1-0.6
			C47.5,42.9,46,40.4,44.1,38.3 M59.6,180.3c1.5,2.7,1.4,2.4-0.1-0.8C59.6,179.8,59.6,180.1,59.6,180.3 M60.9,147.2
			c0.6,1.6,1.4,1.1,2.5-1.7C64.6,142.2,63.8,142.8,60.9,147.2 M66.5,148.9c-0.1,0.3,0,0.5,0.1,0.6C69,151.2,69,151,66.5,148.9
			 M61.7,165.9l0,0.3C65.5,163.7,65.5,163.6,61.7,165.9 M67.5,162.8c0,0.2,0.1,0.4,0.3,0.6C70.1,165,70.1,164.8,67.5,162.8
			 M47,167.7c-0.1,0.2,0,0.4,0.1,0.5C49.8,170,49.7,169.9,47,167.7 M45.2,152.7c2.5,1.7,2.5,1.5-0.1-0.5
			C45.1,152.5,45.1,152.7,45.2,152.7 M52.9,140.4l0.1,0.5C57.2,139.8,57.2,139.6,52.9,140.4 M0,44.4l0.8,1C3.9,45.3,3.6,44.9,0,44.4
			 M17.5,33.2c0,1.7,0.8,2.5,2.1,2.4C24,35.7,23.3,34.9,17.5,33.2 M14.2,38.6c3.7,0.1,3.1-0.7-1.7-2.3
			C12.5,37.7,13.1,38.5,14.2,38.6 M14.3,32.4c4.1-0.2,3.6-1.1-1.5-2.7C12.4,31.5,12.9,32.4,14.3,32.4 M74.1,57.1
			c0,0.3,0.1,0.5,0.3,0.6C80.5,62.1,80.4,61.9,74.1,57.1 M49.7,22.2c-0.1,0.2,0,0.4,0.1,0.6C52.4,24.8,52.3,24.6,49.7,22.2z"/>
	</g>
</g>
<g id="Layer_2">
	<g>
		<path class="st1" d="M100.2,117.3l0.1,0l0,0.1c0.4,0.4,0.9,0.8,1.6,1l0,0.2c0.1,0,0.4,0.1,0.9,0.2c0,0,0.1-0.1,0.1-0.2l0-0.1
			l0.1,0.1l-0.1,0.1c0.3,0,0.5,0,0.8-0.1l0-0.2l0.2,0c0.1-0.1,0.1-0.2,0.1-0.3l0.1,0l0.1,0.1c0.1-0.1,0.2-0.3,0.4-0.5
			c0.1-0.5,0-1-0.1-1.4l0-0.1l-0.2,0l0,0c0.1-0.1,0.1-0.4-0.2-0.9l-0.2-0.1c0.1-0.1-0.1-0.5-0.4-1.3l-0.2,0
			c-0.1-0.1-0.3-0.5-0.6-0.9l-0.1,0l-0.1-0.1c0-0.2,0.1-0.4,0.1-0.6l-0.1-0.2l0.1-0.2c0-0.2,0-1.1,0.1-2.6l-0.1-0.4
			c0,0,0.1-0.3,0.2-0.8c-0.1-0.4-0.1-0.6-0.1-0.7c0.1-0.5,0.2-1.3,0.2-2.4c0-0.7,0-2.2-0.2-4.5c0.1-0.4,0.1-0.8,0.1-1.2
			c0-0.1,0-0.4-0.1-0.9l0.1-0.1c-0.1-0.1-0.1-0.2-0.1-0.3l0-0.1c0-1.3,0-2-0.2-2.2l0.1,0c0-0.2-0.1-0.7-0.4-1.6
			c0-1.4-0.5-2.7-1.5-4.1c-0.6-0.6-1.5-1.2-2.7-1.9L95,87.4c-1.6,0.1-2.8,0.3-3.4,0.5l-0.1-0.1l-0.1,0c-0.4,0-1.1,0.3-2,0.9
			c-0.8,0.4-1.3,0.9-1.4,1.3c-0.6,1.4-1,2.6-1.2,3.8l0,0.2l0.1,0.4l-0.1,0.1l0.1,0.2c-0.1,0-0.1,0.1-0.2,0.2l0.1,0.2
			c-0.1,0.6-0.3,1.4-0.3,2.6c0.1,0.1,0.1,0.2,0.1,0.2L86.4,98l0.1,0.2l-0.1,0c0,0.5,0.1,0.9,0.1,1.2l0,2c0,0.6,0,1.3,0,2.2
			c0,0.1-0.1,0.2-0.1,0.4l0.1,0.1l-0.1,0.1c0,0.1,0,0.1,0.1,0.2c-0.1,0.6-0.1,1-0.1,1.3c0,0.3,0,0.8,0,1.4l-0.1,0.2
			c0.1,0.8,0.2,1.6,0.2,2.3l0,0.5c0.2,0.6,0.3,1.1,0.3,1.6c0.3,2.4,0.6,3.7,1,3.7c0.3,0.5,0.5,0.9,0.8,1.2c1.9,1.2,3.9,1.8,5.9,1.8
			l0.1-0.1c0.7,0.1,1.2,0.1,1.6,0.1l0.1,0c1.2-0.1,1.9-0.3,2.2-0.6c0.5,0,1-0.2,1.7-0.7C100.2,117.2,100.2,117.3,100.2,117.3z
			 M105.2,116.2l0.2,0.2l-0.1,0L105.2,116.2L105.2,116.2z M92.6,94c0.4-0.5,1.1-0.7,2.1-0.7l0.5,0l0.4,0.1l0.1-0.1l0.1,0.1
			c0.7,0,1.3,0.4,1.9,1.3l-0.1,0.1c0.2,1.1,0.4,1.7,0.4,2l-0.1,0.1c0,0.1,0,0.3,0.1,0.5l-0.1,0.1l0,0.1l0.1,0.2l-0.1,0
			c0,0.7,0.1,1.1,0.1,1.2L98,99l0,0.1c0,0.1,0,0.2,0.1,0.3c-0.1,0.1-0.1,0.2-0.1,0.3l0,0.2l0.1,0.4l-0.1,0.1c0,0.1,0,0.2,0.1,0.2
			l-0.1,0.9l0,0.4l0.1,0.2l-0.1,0.1c0,0.1,0,0.2,0.1,0.2c-0.1,0.1-0.1,0.4-0.2,0.8l0.1,0.1l-0.1,0l0.1,1.5l-0.1,0.1l0.1,0.2
			c0,0.1,0,0.1-0.1,0.2l0.1,0.2l-0.2,2.1l0.1,0.1l-0.1,0.2l0.1,0.2l-0.1,0c-0.1,1.9-0.3,2.9-0.6,3.1c-0.3,1.3-1.3,1.9-2.9,1.9
			c-1-0.4-1.7-1.1-2.1-1.9c-0.5-1.6-0.8-3.1-0.9-4.5l0.1-0.1c0-0.1,0-0.1-0.1-0.2l0.1,0c-0.1-0.5-0.2-1.1-0.2-1.6l0.1-0.2
			c-0.1-1-0.1-1.7-0.1-2.1c0-0.1,0-0.1,0.1-0.2c-0.1-0.1-0.1-0.2-0.1-0.3l0-0.5l0.1-0.4l-0.1-0.1l0.1-0.1l0-0.1c0-0.1,0-0.2-0.1-0.3
			c0.1,0,0.1-0.5,0.2-1.4l-0.1-0.4c0.2-1.4,0.3-2.1,0.3-2.2l-0.1-0.1C91.9,95,92.2,94.4,92.6,94z"/>
		<path class="st1" d="M118.2,112.2c0.8-1,2.3-2.3,4.5-4.1c2.2-1.7,3.8-3,4.7-3.8c0.9-0.8,1.9-1.9,2.8-3.4c0.9-1.4,1.4-3.1,1.4-4.8
			c0-1.1-0.2-2.2-0.6-3.3c-0.4-1.1-1-2-1.7-2.8c-0.8-0.8-1.6-1.5-2.6-1.9c-1.5-0.7-3.4-1.1-5.6-1.1c-1.8,0-3.4,0.2-4.8,0.7
			c-1.4,0.5-2.5,1.2-3.4,2.1c-0.9,0.9-1.6,1.8-2,2.9c-0.5,1.1-0.7,2.1-0.7,3.1c0,0.8,0.2,1.5,0.7,2c0.5,0.5,1.1,0.7,1.8,0.7
			c0.8,0,1.4-0.2,1.9-0.7c0.4-0.5,0.8-1.2,1.2-2.2c0.4-1,0.6-1.5,0.7-1.8c1.1-1.6,2.6-2.4,4.5-2.4c0.9,0,1.7,0.2,2.5,0.6
			c0.7,0.4,1.3,1,1.8,1.7c0.4,0.7,0.6,1.6,0.6,2.5c0,0.8-0.2,1.7-0.7,2.6c-0.4,0.9-1,1.7-1.8,2.6c-0.8,0.8-1.8,1.7-3,2.5
			c-0.7,0.4-1.8,1.4-3.3,2.7c-1.6,1.4-3.3,3.1-5.3,5c-0.5,0.5-0.9,1.1-1.3,2c-0.4,0.8-0.6,1.5-0.6,2.1c0,0.8,0.3,1.5,0.9,2.1
			c0.6,0.6,1.4,0.9,2.5,0.9l15.9,0.2c1,0,1.7-0.2,2.1-0.7c0.5-0.5,0.7-1.1,0.7-1.8c0-0.8-0.3-1.4-0.9-1.9c-0.6-0.5-1.4-0.7-2.6-0.7
			l-11.3-0.2C117.4,113.1,117.8,112.6,118.2,112.2z"/>
	</g>
</g>
</svg>
