<?xml version="1.0" encoding="utf-8"?>
<!-- Generator: Adobe Illustrator 25.2.1, SVG Export Plug-In . SVG Version: 6.00 Build 0)  -->
<svg version="1.1" id="buttons" xmlns="http://www.w3.org/2000/svg" xmlns:xlink="http://www.w3.org/1999/xlink" x="0px" y="0px"
	 viewBox="0 0 674.6 137.8" style="enable-background:new 0 0 674.6 137.8;" xml:space="preserve">
<style type="text/css">
	.st0{fill:#FFFFFF;}
	.st1{fill:#FF0000;}
</style>
<g id="discover_more_black">
	<g>
		<g>
			<g id="mc_6_7_" transform="matrix( 1, 0, 0, 1, 207.65,177.35) ">
				<g id="casee_8_" transform="matrix( 1, 0, 0, 1, 0,0) ">
					<g transform="matrix( 1, 0, 0, 1, 0,0) ">
						<g>
							<g id="CaseMc_1_0_Layer0_0_FILL_9_">
								<path class="st0" d="M-131.6-48.3l-0.3,0c2.8,0.1,4.1,0.3,3.9,0.6c1.3,0,1.7-0.2,1.2-0.4c-0.3-0.1,0.4-0.2,2.1-0.2l0.6,0
									c-0.4-0.1-0.8-0.1-1.3-0.2c-0.4-0.1-0.7-0.2-1-0.2c-1,0-1.9,0.1-2.7,0.1l-0.6,0.1C-130.6-48.5-131.2-48.5-131.6-48.3
									 M-135.6-47.9l0.7,0c-3.8-0.2-5.5-0.1-5.3,0.4C-138.1-47.5-136.5-47.7-135.6-47.9 M-145.1-55.4c0.4,0.3,0.7,0.6,0.8,1.1
									c1.4-0.1,2.3-0.2,2.7-0.4c-2.1-0.1-2.7-0.4-1.9-0.8c0.1-0.1,0.3-0.1,0.6-0.2c1.1-0.2,1.1-0.4,0.1-0.4
									c-2.2,0-3.1,0.1-2.7,0.4C-145.5-55.6-145.3-55.5-145.1-55.4 M-138.6-60.2c0.9,0,1.5-0.1,1.9-0.3c0.2-0.1,0.1-0.2-0.3-0.3
									C-138.8-61.1-139.3-61-138.6-60.2 M-135.7-67.8l-0.7-0.1c2.5-0.3,1.8-0.5-1.9-0.4l-0.4,0.1c0.9,0.2,0.8,0.4-0.4,0.5
									c-2.1,0.1-2.4,0.2-1,0.5c1.6,0,2.8,0,3.5-0.2C-134.9-67.4-134.5-67.6-135.7-67.8 M-126.2-59.9c0.4,0,0.8,0,1.3,0
									c4.8-0.1,5.6-0.2,2.4-0.3c-1.4-0.2-2.6-0.3-3.6-0.5l-0.6,0c-4.1,0-6,0.3-5.6,1C-130.1-59.7-128.1-59.7-126.2-59.9
									 M-128.6-62.3c0.1-0.1,0.1-0.2,0-0.2c-4.8-0.1-6.3,0.2-4.4,0.9C-130.5-61.7-129-61.9-128.6-62.3 M-125.9-64.9
									c0.4,0,0.8,0,1.2,0l1.3,0.1c-0.3-0.2-1.7-0.3-4.2-0.4l-1.2-0.1C-127.9-65.3-127-65.1-125.9-64.9 M-130.1-68.9
									c0.8,0,1.6,0,2.5-0.1l0.6,0c0.9-0.4,0.6-0.6-0.8-0.7c-0.6-0.1-1-0.1-1.2-0.3c-1.1-0.2-2.5-0.3-4.3-0.3c-0.4,0-0.8,0-1.2,0
									c-2.2,0-3.2,0.1-3.1,0.3c0.3,0.5,1.6,0.9,3.7,1.1C-132.5-68.8-131.3-68.8-130.1-68.9 M-121.3-65.9c1.7,0.1,2.2,0.1,1.6,0
									c-0.6-0.2-2.4-0.3-5.5-0.4c-3.7,0-7.1,0-9.9-0.2c-2.2-0.2-3.8-0.2-4.9,0c0.3-0.4-0.2-0.5-1.5-0.4c-1.2,0-1.8-0.1-1.8-0.3
									l0,0.1c0.2,0.3-0.8,0.4-3,0.3c-1.1,0.2-0.2,0.4,2.5,0.6c0.9,0,1.5,0,1.9,0.1c1.2,0.3,2.3,0.6,3.4,0.9
									c0.5,0.1,0.7,0.2,0.7,0.3c0.1,0.4,0.8,0.6,2.1,0.6c2.7-0.1,4.4,0,5.2,0.3c0.3-0.1,0.6-0.2,1-0.2c1.5-0.3,1.4-0.5-0.2-0.6
									c-2-0.1-4.1-0.2-6.4-0.2c0.1-0.3,0.8-0.5,2.1-0.6l0.7-0.2c-0.4,0-0.9,0-1.6-0.1c-1.7-0.2-1.9-0.3-0.6-0.3
									C-131-66-126.3-65.9-121.3-65.9 M-121.5-69.1c0.4,0,0.7,0,1,0c0.6,0,1.1,0,1.5,0c3.7,0,4.4-0.2,2.2-0.5l-0.7-0.1
									C-119-69.5-120.4-69.3-121.5-69.1 M-167-44.4c0.5,0.1,0.9,0.1,1.2,0.1c4.5-0.4,7.5-1.1,9-1.9l0-0.1
									C-160.7-45.7-164.1-45.1-167-44.4 M-166.4-63.4c-0.3-0.4,0.6-0.7,2.6-0.9c3.1-0.3,5.3-0.7,6.8-1.1
									c-5.2,0.4-10.2,0.9-14.9,1.5c-0.5,0.1-0.9,0.1-1.3-0.1c-0.8,0-1.5,0-2.1,0.1l0,0.7c0.4,0.1,0.7,0.1,0.9,0
									c0-0.1,0-0.1,0.1-0.1c2.5-0.1,4.2,0,5.2,0.6c0.6-0.3,1.6-0.5,2.9-0.6L-166.4-63.4 M-156.4-67.5c0.3-0.1,0.4-0.2,0.4-0.3
									c-0.2-0.2,0.3-0.3,1.6-0.3l1.2,0c0-0.1-0.4-0.3-1.2-0.4l-0.7-0.1C-157.6-68.3-158-68-156.4-67.5 M-152.5-66l0.4-0.1
									c-4.4,0.1-5.6,0.3-3.4,0.7C-154.1-65.4-153.1-65.6-152.5-66 M-152.3-66.7c0.4,0.1,0.7,0.1,0.9,0.1l0.6-0.1
									c-0.8-0.3-1.6-0.6-2.4-0.8l-0.3-0.2C-155-67.3-154.6-67-152.3-66.7 M-168.3-72.3c3.7,0,4.6-0.2,2.8-0.5l-0.7-0.2
									c-1.2,0-2.4,0.1-3.7,0.1C-170.9-72.7-170.4-72.5-168.3-72.3 M-169.1-74.2c0.8,0,1.6,0.1,2.5,0l0.4,0
									c-1.7-0.5-3.1-0.5-4.1,0.1C-169.9-74.1-169.5-74.1-169.1-74.2 M-176.7-71.6c2.3,0.1,3,0,2.2-0.3c-0.8-0.5-0.3-0.7,1.6-0.8
									l0.1-0.1c0.8-0.2,0.5-0.4-0.8-0.4c-0.5,0-0.8,0-1,0c-0.7,0-1,0.1-0.9,0.2C-175.1-72.3-175.5-71.8-176.7-71.6 M-173.9-76.2
									l-1,0c0.3,0.3,1.2,0.5,2.8,0.7c0.4,0.1,0.6,0,0.7,0c1.7-0.1,3.5,0,5.5,0.2c2.6-0.1,2.1-0.2-1.5-0.5
									C-169.5-75.9-171.7-76.1-173.9-76.2 M-173.1-80.4c0.8,0,1.3,0,1.5-0.1c1.1-0.6,0.6-0.8-1.5-0.6
									C-175.6-80.8-175.6-80.6-173.1-80.4 M-166-81.2c1.2-0.1,2.3-0.2,3.2-0.4l0.7-0.1C-164.7-82-166-81.8-166-81.2 M-162.6-81.3
									l-0.4,0c0.9,0.2,2,0.4,3.3,0.4c2.6,0,4.2-0.1,4.9-0.4c0.3,0,0.4,0,0.3-0.1c-0.9-0.3-1.9-0.3-3,0
									C-158-81.2-159.7-81.2-162.6-81.3 M-164.8-79.6c-0.1-0.1-0.3-0.1-0.6-0.2c-2.4,0.1-3.9,0-4.6-0.1c-0.4-0.1-0.5-0.2-0.2-0.3
									c0.5-0.1,0.9-0.2,1.2-0.2c1.6-0.3,1.3-0.4-0.7-0.3c-0.7,0-1.2,0.1-1.5,0.3c-0.9,0.1-1.1,0.3-0.7,0.6c0.4,0.3,1.4,0.5,3,0.6
									c0.5,0,0.9,0,1.2,0C-164.9-79.2-163.9-79.3-164.8-79.6 M-151-87.8c1.8,0.2,2.6,0,2.4-0.4c0-0.2-0.2-0.3-0.5-0.3
									C-152.7-88.6-153.4-88.4-151-87.8 M-159.9-84.3c0.8,0,1.4-0.1,1.8-0.2l0-0.2c-0.5-1.3-2-1.6-4.5-0.8l-0.6,0.2
									C-160.8-85.4-159.7-85.1-159.9-84.3 M-127.7-75.4l0-0.1c-1-0.2-2.7-0.1-5,0.2c-1.4,0.1-1,0.3,1.1,0.5
									C-128.9-74.9-127.5-75.1-127.7-75.4 M-137.9-71.8c-0.2-0.1-0.5-0.2-0.9-0.2c-2.9,0-3.5,0.2-2.1,0.6
									C-138.1-71.3-137.1-71.4-137.9-71.8 M-146-74.5l0.4-0.1c-1.1-0.2-2.2-0.4-3.3-0.6c0.3,0.3-1.3,0.5-4.7,0.5
									c-3,0-5.2-0.1-6.8-0.3l-0.7-0.1c1.2,0.3,3.3,0.6,6.4,0.8c0.5,0,0.8,0,0.9,0.2l-0.1,0c-2.5-0.2-3.8,0-3.8,0.5
									c2.7-0.1,5.1-0.2,7.2-0.2l0.6,0c0.1-0.2,1.5-0.2,4.3,0C-147-74-147.1-74.2-146-74.5 M-139.8-74.3l-1.3,0
									c1.1,0.2,2.1,0.5,3.1,0.8l0.3,0.1c-0.9,0.2,0.7,0.4,4.6,0.4c3.5,0,6,0.2,7.6,0.6c0.5,0,0.9,0,1.2,0c0.4,0,0.8,0,1.3,0
									c1.4-0.1,1.9-0.3,1.6-0.5c-0.5-0.3-2-0.5-4.6-0.5c-0.8,0-1.6,0-2.5,0c-2.5,0.1-3.6-0.1-3.3-0.6c0-0.1,0-0.1,0.1-0.1
									c0.7-0.2-0.9-0.4-4.6-0.6l-1.3,0C-137.7-74.4-138.5-74.3-139.8-74.3 M-185.6-72.5l-0.4,0c0.9,0.1,1.9,0.2,3.1,0.3
									c0.9,0,1.5,0,1.9-0.2C-182.4-72.5-183.9-72.5-185.6-72.5 M-189.1-80.6c0.4,0.1,0.8,0.1,1.2,0.1c0.8,0,1.3-0.1,1.6-0.2
									c1.1-0.3,0.9-0.5-0.6-0.5c-0.6,0-1.1,0-1.5-0.2C-187.9-81.1-188.1-80.8-189.1-80.6 M-179.1-77c-2.5,0.1-2.4,0.4,0.3,0.8
									c2-0.1,2.9-0.2,2.7-0.3c-0.2-0.1-0.5-0.2-0.9-0.3c-0.5-0.1-1-0.1-1.5-0.2L-179.1-77 M-194.8-71.7l-0.3,0l0.6,0.4
									c1.1-0.2,2.1-0.2,3-0.2c0.1,0,0.2,0,0.3,0C-189.8-71.7-191-71.7-194.8-71.7 M-200.6-79.5l-1.2,0.1c0.4,0,1.2,0.1,2.4,0.3
									C-194.4-79.2-194.8-79.4-200.6-79.5 M-196-78.9c-1,0.3-0.4,0.5,1.8,0.6c0.5,0,0.9-0.1,1.3-0.2c0.2,0,0.6,0,1.2,0
									c3.1-0.2,3-0.2-0.2-0.2l-0.7,0C-194.4-79-195.5-79-196-78.9 M-198.2-76.4c0.7-0.1,1.7-0.2,3.1-0.3c1.3-0.1,3-0.1,5,0
									c3.1,0.3,4.6,0.1,4.7-0.3c-5.2,0.2-8.3,0-9.3-0.4l-1.8,0.1c-0.4-0.4-1.1-0.7-2.1-0.8c-0.4-0.1-0.7-0.1-0.9-0.2
									c-3.2-0.1-3.8-0.1-1.9,0.1c0,0.1,0.1,0.1,0.2,0.1c0.2,0.1,0.4,0.1,0.6,0.2c0.3,0.1,0.3,0.2,0,0.3c-2.3,0.1-3.6,0-4-0.3
									l-0.6,0c-1.8,0.2-1.8,0.4,0,0.6c1.3,0.2,2.6,0.4,3.9,0.6l0.6,0.1C-199.1-77-198.3-76.8-198.2-76.4 M-178.5-84.1
									c0.1,0,0.2,0,0.3,0c0.4,0.3,0.9,0.6,1.5,0.9c0.5-0.1,0.7-0.2,0.7-0.4c0.1-0.2,0.1-0.4,0.1-0.5c0.2-0.1,0.4-0.1,0.7,0
									c0.9,0,1.7-0.1,2.5-0.1c1.5,0.1,2.7,0.2,3.6,0.4c-0.2,0-0.3,0-0.4,0.1c-0.6-0.2-1.4-0.3-2.4-0.3l-0.7-0.2
									c0.7,0.7,1.1,1.6,1.1,2.7c0.5,0,0.7-0.1,0.7-0.1c0.3-0.2,0.6-0.4,1-0.5c0.2-0.1,0.3-0.3,0.4-0.3c0.1,0,0.2,0,0.3,0.1
									c0.9,0,1.5-0.1,1.9-0.3c0.1,0,0.2,0,0.3,0c1.4,0,2-0.1,1.8-0.3l0-0.1c1.3-0.2,1-0.3-0.8-0.5l-0.7,0
									c-0.1,0.1-0.2,0.1-0.3,0.2c-0.1-0.1-0.3-0.3-0.6-0.5l-0.2-0.1c0.5-0.4,0-0.7-1.5-0.8c-1.4-0.1-2.8-0.2-4.3-0.2
									c-1.7-0.4-2.8-0.3-3.3,0.2c-0.4-0.1-1-0.2-1.9-0.1c-0.3,0-0.4,0.1-0.4,0.2c0,0.1,0.1,0.1,0.2,0.2
									C-179.8-84.4-179.7-84.2-178.5-84.1 M-189-83.3c0.1,0.2,0.4,0.3,0.8,0.4l0.6,0c4.4-0.1,5.7,0,3.7,0.3
									c-1.5-0.2-2.2-0.2-2.1,0.1c0.1,0.5-0.5,0.7-1.8,0.5c-0.5-0.1-0.8-0.1-1-0.2c-1.3-0.4-2.3-0.3-3,0.3c-0.3,0.1-0.3,0.1,0,0.1
									c1.5,0.1,3,0.2,4.6,0.2c0.4-0.1,0.7-0.1,0.9,0c1.4-0.2,2.4,0,3.1,0.5c4.1-0.1,4.5-0.4,1.2-0.8c-1.9-0.2-2-0.4-0.5-0.4
									c0.6-0.1,1-0.1,1.2,0c0.3,0.2,1,0.3,2.2,0.5c3.3,0.2,3.5,0.3,0.6,0.5c1.3,0.2,2.4,0.1,3.3-0.1c0.2-0.1,0.5-0.2,1-0.2
									c0.2-0.1,0.3-0.2,0.4-0.2c0.7-0.3,0.2-0.4-1.5-0.4c-0.9,0-1.7,0-2.4,0c-1.2-0.1-0.9-0.2,0.7-0.4c-0.4-0.3-1.2-0.6-2.4-0.8
									l-0.7-0.1c-0.4,0.1-0.8,0.1-1.2,0.1C-184-83.2-186.7-83.1-189-83.3 M-184.1-93.1c0.1,0.2,0.1,0.3,0.2,0.5
									c0.8-0.1,1.6-0.2,2.4-0.2l0.4-0.1c-0.4-0.2-0.7-0.4-1.1-0.6C-182.8-93.3-183.5-93.2-184.1-93.1 M-143.4-100.8
									c0.9,0,1.4-0.1,1.5-0.1c0.5-0.8,1.3-1,2.4-0.4l0.6,0.3c0.3-0.2,0.7-0.4,1.2-0.6l0.4-0.2
									C-139.9-102.9-141.9-102.6-143.4-100.8 M-137.6-105.6c0.9,0.3,2,0.6,3.3,0.9c1.4-0.1,1.9-0.5,1.4-1.3c0-0.1,0-0.2,0.1-0.2
									c1.8,0.4,2.5,0,2-1.1c0-0.1-0.1-0.1-0.2-0.1c-2.3,0.4-4.3,0.9-6.2,1.4C-137.4-105.7-137.6-105.6-137.6-105.6 M-133.6-109.7
									c-1.3-0.2-2.8-0.3-4.3-0.3l1.2,0.8c0.6-0.2,1.4-0.3,2.4-0.4L-133.6-109.7 M-124.4-118.7c3.3,0,4.2-0.2,2.9-0.6
									c-0.4-0.1-0.7-0.1-0.9-0.2C-126.1-119.7-126.8-119.5-124.4-118.7 M-151.8-101c2.6-0.5,3.4-1,2.5-1.4
									c-0.3-0.2-0.4-0.3-0.3-0.3c3.9-0.4,5.3-0.9,4.2-1.8c-2.1,0.9-4.2,1.6-6.3,2.3C-151.5-101.8-151.6-101.4-151.8-101
									 M-153.8-123.3c-1.6,0.2-2.7,0.7-3.2,1.4l0.6,0.3c2.7,0.1,3.7-0.3,2.9-1.2L-153.8-123.3 M-126.4-122.3c1.6,0,3.2-0.1,4.7,0
									l1.2,0c-0.7-0.6-0.5-1.2,0.7-1.8c-0.8-0.3-2-0.5-3.6-0.6c-0.8,0-1.3,0-1.5,0.1s-0.2,0.4,0,0.7l0.5,0.3
									C-126.5-123.8-127.2-123.4-126.4-122.3 M-140-125.1c-2.7-0.7-3.6-0.2-2.8,1.5c1.7-0.2,2.6-0.6,2.8-1.3L-140-125.1
									 M-145.2-142.8c1.4-0.8,0.6-1-2.2-0.6c-0.6,0.2-1.2,0.3-1.8,0.4c-2.9,0.3-5.1,0.7-6.6,1.3l-0.4,0.2
									c-0.9-0.4-2.8-0.5-5.6-0.3c-3.3,0.2-5.2,0.5-5.9,1.1c1.2-0.2,3.2-0.2,6.1-0.1l0.7,0c1.1-0.2,2.9-0.2,5.5-0.1
									c0.8,0,1.5-0.1,2.1-0.3c1-0.1,2.3-0.1,4-0.1c3.3,0,5.3-0.2,6.2-0.6l0.3-0.2C-144.1-142.2-144.8-142.5-145.2-142.8
									 M-192.1-152.1c-4.2,0.3-4.9,0.6-2,1.1c4.5,0,7.8-0.2,9.8-0.6c0.3-0.1,0.7-0.1,1.2,0c3.4-0.6,2.5-0.8-2.7-0.6
									C-188-152.2-190.1-152.2-192.1-152.1 M-184.4-176.3c-3.5-0.9-4.9-0.7-4.1,0.5c2.3,0.1,3.7,0,4.3-0.3
									C-183.9-176.2-183.9-176.2-184.4-176.3 M-240.7-163.4c-0.5,0-0.7,0.1-0.7,0.1c1,0.1,2,0.3,3.1,0.5c0.8,0,1.2,0,1.3,0
									C-236.2-163.4-237.5-163.6-240.7-163.4 M-244.8-171.5c1.4-0.2,1.6-0.6,0.6-1.1c-0.1-0.1-0.2-0.1-0.3-0.1
									C-246.3-172.4-246.4-172.1-244.8-171.5 M22.8-45.3c5.1,0,8.7-0.2,10.6-0.4l1.2,0C28.6-45.8,24.6-45.6,22.8-45.3 M71.9-44.8
									c7.4-0.2,11.3-0.5,11.7-1.2l0-0.1C74.6-46,70.7-45.6,71.9-44.8 M-96.2-39.5c3.4-0.2,5.6-0.5,6.5-0.9
									c0.2-0.2,0.4-0.3,0.6-0.3c2.9-0.2,3-0.5,0.4-0.8l-0.1,0C-91.5-41-94-40.3-96.2-39.5 M-10.8-44.1c2.1,0,3.2,0,3.4,0
									c2.2-0.5-0.9-0.6-9.2-0.4l-1.6,0C-16.2-44.3-13.8-44.2-10.8-44.1 M-20.9-55.2c-2.8,0.3-0.8,0.6,5.8,1c3.5,0,5.8-0.1,6.9-0.4
									c0.3-0.1,0.3-0.1,0.1-0.1c-0.9-0.1-2-0.2-3.4-0.3C-16-55.4-19.1-55.4-20.9-55.2 M-17.6-52.9c-10.4,0-11.3,0.1-2.8,0.2
									c10.7,0,16.9,0.3,18.7,0.9c6.9-0.1,11.9-0.3,15.1-0.6C7-52.5,0.9-52.7-4.8-52.7C-6.8-52.8-11.1-52.9-17.6-52.9 M-23.9-66.8
									c6.6-0.1,10.2-0.1,10.7-0.2c0.4-0.3-2-0.4-7.1-0.3C-22-67.2-23.1-67.1-23.9-66.8 M-6.6-65.7l-1.8-0.1
									c-7.3,0.2-7.1,0.4,0.6,0.6C-4.3-65.3-3.9-65.5-6.6-65.7 M-48.5-47.3c-1.2,0-2.3,0.1-3.4,0.1c-3.7,0-6.9,0-9.8,0.2l0,0.4
									c1.2-0.1,2.3-0.1,3.3-0.1c1,0,1.9,0,2.8,0l0.1-0.1c0.6,0,1.2,0,1.8-0.1c1.4-0.1,2.8-0.1,4.3,0c4.6,0.1,8.9,0,12.7-0.3
									C-39.3-47.3-43.3-47.4-48.5-47.3 M-50.6-66.8c-1.6-0.2-3.5-0.1-5.6,0.3c-0.7,0.1-1.4,0.1-2.2,0.2c-2.6,0.3-1,0.6,4.8,0.9
									l1,0c-2.9-0.4-1.5-0.7,4.3-0.9l1.6,0.1C-47.7-66.5-49-66.6-50.6-66.8 M-26.9-61.7c-9.7-0.2-11.9,0-6.8,0.7
									c7.6,0,10.2-0.2,7.7-0.6L-26.9-61.7 M-38.1-64.7c1,0,1.4,0,1.3,0c-0.3-0.5-2.8-0.6-7.6-0.4l-1.3,0.1
									C-43.6-64.8-41.1-64.7-38.1-64.7 M-62-53.5l1.2,0.1c-1.4-0.4-3.5-0.5-6.4-0.5l-1.2,0c1.6,0,2.6,0.3,3,0.8l1.2,0
									c-0.5-0.1-0.6-0.2-0.5-0.3c0.3,0,0.6,0,0.9,0l0.1,0C-63.2-53.5-62.7-53.5-62-53.5 M-60.7-53.4l-0.1,0c-0.6,0-1.1,0-1.5,0
									c2.9,0.1,5.5,0.2,7.9,0.4c3.2,0,6.1,0,8.9-0.1l1.8,0.1C-47.9-53.3-53.6-53.5-60.7-53.4 M-78.2-54.2c3.5,0,4.2-0.2,2.2-0.5
									c-0.4-0.1-0.8-0.1-1.3-0.1C-81-54.7-81.3-54.6-78.2-54.2 M-85.8-57.6l1,0c0-0.1-0.3-0.3-0.9-0.4c-0.3-0.1-0.5-0.1-0.7-0.2
									c-3.7-0.2-3.8,0-0.6,0.5C-86.6-57.6-86.2-57.6-85.8-57.6 M-84.6-65.9c2.7,0.1,3.6-0.1,2.8-0.6c0-0.1-0.2-0.1-0.6,0
									C-85.8-66.5-86.6-66.3-84.6-65.9 M-83.7-69.7c3.2,0.2,4.5,0,4-0.6c-0.1-0.3-0.8-0.4-2.1-0.2C-85.3-70.5-86-70.2-83.7-69.7
									 M-75.2-69.6l0.6-0.1c-3.7,0-6.7,0.1-9,0.4C-80.4-69.3-77.6-69.4-75.2-69.6 M-56.8-61.8l-1.5-0.1c0.9,0.5-1,0.9-5.6,1.2
									c6.5,0.1,10.7,0,12.6-0.3l1,0c-2.5-0.1-4-0.3-4.5-0.5C-55-61.7-55.7-61.8-56.8-61.8 M-89.8-46.6c0.9,0,1.6-0.1,2.1-0.3
									c0.4,0,0.7-0.1,1-0.2c0.8-0.1,1.8-0.2,3.1-0.3l1,0c-0.5-0.3-1.5-0.6-3-0.7c-0.3-0.1-0.6-0.1-1-0.1c-3.6-0.1-4.3-0.1-2.4,0.1
									c3.9,0.2,4.3,0.4,1.2,0.6c-0.6,0.2-1.1,0.2-1.5,0.3C-90.5-47.1-90.7-46.8-89.8-46.6 M-115.2-46.1c2.3,0.1,3.6,0.1,3.8-0.2
									c-1.8-0.2-3.7-0.3-5.5-0.4c-0.6-0.1-1.1-0.1-1.5-0.1c-0.9,0.3-0.7,0.4,0.5,0.4C-115.7-46.6-114.8-46.5-115.2-46.1
									 M-115.4-56.7c0.4-0.1,0.4-0.1,0.1-0.1c-1.6,0-2.7,0-3.4,0.1l-0.4,0.2c-1.4-0.3-3.3-0.4-5.6-0.3c0.8,0.2,1.2,0.4,1.3,0.6
									C-119.1-56.1-116.5-56.2-115.4-56.7 M-115.7-58.4c3.1,0,4.9-0.1,5.6-0.3c0.4-0.1,0.4-0.2,0.1-0.2
									C-113.2-59-115.1-58.9-115.7-58.4 M-116.2-67.7c4.1-0.1,4.6-0.1,1.3-0.2l-0.6-0.1c1.2-0.5-0.4-0.7-4.6-0.6l-1.3-0.1
									C-120.2-68.3-118.5-68-116.2-67.7 M-108.1-66.5c-1.4,0.3-0.8,0.7,1.7,1.1c0.4-0.1,0.8-0.2,1.2-0.2c0.4,0.1,0.6,0.1,0.7,0.1
									c2.3-0.3,1.9-0.5-1.1-0.7c-0.7,0-1.3,0-1.8-0.1L-108.1-66.5 M-93.7-64.1c3-0.1,3.5-0.2,1.6-0.5l-0.6-0.1
									C-95.4-64.8-95.7-64.6-93.7-64.1 M-87.5-64.5l-0.6,0c1.1,0.2,2.9,0.3,5.5,0.1c2-0.2,4.3-0.3,7.1-0.3
									c0.8-0.1,1.2-0.1,1.3-0.1c0.1-0.3,0.8-0.4,2.2-0.4c0.8,0,1.5,0,2.2-0.1l0.2,0.3c6,0.2,7.5,0.7,4.5,1.3
									c1.1,0,2.1-0.1,3.1-0.2c12.7-0.1,14.5-0.5,5.4-1.1c-2.4-0.1-4.8-0.2-7.3-0.4l-0.2-0.3c-1.5-0.2-2.5-0.1-3.1,0.2
									c-0.1,0-0.2,0-0.3,0c-0.7,0-1.3,0-1.8-0.2c-0.2,0-0.4,0-0.7,0c-0.3,0-0.6,0-0.9,0c-1.2-0.2-3.4-0.2-6.5,0
									c-3.1,0.1-6.2,0.2-9.5,0.2c-1.9,0.2-1.4,0.3,1.3,0.3c3.8-0.1,5.1,0,3.7,0.2c-1.2,0-2.4,0.1-3.5,0.3
									C-86.1-64.7-86.8-64.6-87.5-64.5 M-86.8-60.9c-2.1-0.4-3-0.1-2.8,0.7c3,0.1,4.2,0,3.7-0.4C-86.1-60.7-86.4-60.8-86.8-60.9
									 M-96.8-64.5l-0.2-0.1c-1.7-0.2-4.4-0.4-8-0.4c-1.7,0-2.9,0.1-3.7,0.3l-0.4,0.2c-2.3-0.4-4.7-0.5-7.3-0.2
									c-1.4,0.1-1.2,0.2,0.6,0.2c7,0,11.3,0.5,12.8,1.4C-99.3-63.3-97.2-63.8-96.8-64.5 M-101.1-59.3l-0.2-0.2
									c-2.2,0.2-3.3,0.6-3.4,1.1C-101.4-58.4-100.2-58.7-101.1-59.3 M-111-73.9c-1.3-0.4-2.7-0.5-4.2-0.3l-0.7,0.1
									c1.3,0,2.3,0.1,3.1,0.3c1.9,0.4,2.5,0.6,1.8,0.9c1.8-0.1,2.7-0.2,2.8-0.4c0.2-0.6,0.9-0.7,2.1-0.4l0.4,0.1l0.6-0.1
									c2.1,0,3.1-0.1,3.1-0.2c0-0.3-0.3-0.4-0.9-0.2c-0.5-0.1-0.9-0.1-1.3-0.1c-0.4-0.1-0.7,0-1,0c-2.3-0.1-3.6,0-3.8,0.2
									C-109.7-73.5-110.3-73.5-111-73.9 M-111.7-72c0.4,0.1,0.6,0,0.7,0c0.2-0.1,0.3-0.1,0.4-0.1c1.7-0.1,2.3-0.2,1.8-0.4
									c-0.2,0-0.5,0-1,0C-113.6-72.6-114.2-72.5-111.7-72 M-82.8-71.8l0.1,0c0.7-0.3,0.4-0.5-0.9-0.5c-0.5,0-1,0-1.5,0l-1.2,0.1
									c1.3,0.2,1.4,0.5,0.5,0.8C-82.3-71.4-81.4-71.5-82.8-71.8 M-112.7-140.3c-0.6-0.3-1.6-0.3-3.1-0.1c-2.5,0.3-3.7,0.8-3.7,1.6
									c-0.1,0.7,0.9,1.1,3,1.3c2.4-0.2,4.3-0.5,5.9-0.9c0.3-0.1,0.5-0.1,0.7-0.1c1.8,0.2,1.9-0.1,0.3-0.6c-0.1-0.5-0.8-0.8-2-0.9
									C-112.1-140.2-112.5-140.3-112.7-140.3 M-92.1-142c0.3,0,0.6,0,0.9,0l-0.5-0.9C-94.1-143-94.2-142.6-92.1-142 M-67.7-139
									c1,0,1.6,0,1.8-0.1c0.7-0.2,1.4-0.3,2.2-0.4c1.2,0,2.7,0.1,4.6,0.1c2.8-0.1,1.8-0.3-3-0.6l-1.6-0.2c-3.3,0.4-6,0.5-8.1,0.3
									C-69.8-139.7-68.5-139.4-67.7-139 M-13.4-141.6c4.3-0.1,6.7-0.4,7.2-0.7c0-0.1-0.6-0.2-1.8-0.3
									C-16.3-142.7-18.1-142.3-13.4-141.6 M45.5-51.4c0.4,0.1,0.7,0.1,1,0.1c5.7-0.3,9.2-0.1,10.5,0.5c2,0,3.9,0,5.8-0.2
									c1.1,0,2.3-0.1,3.5-0.1c3.6-0.2,3.1-0.4-1.5-0.6c-2.4,0-5,0-7.8-0.1C48.2-51.8,44.3-51.7,45.5-51.4 M21.7-61.3
									c2.1,0,3.3,0,3.7,0c2.3-0.4,7-0.7,14.2-0.7c4,0,3-0.1-3.3-0.2c-0.8,0.1-1.7,0.1-2.7,0.1l-1.6,0
									C28.3-61.9,24.8-61.7,21.7-61.3 M14.8-63c-4.4,0.1-7.5,0.1-9.2,0.2c-5.1,0.2-5.8,0.3-1.9,0.6c4.9,0.3,3.7,0.3-3.7,0.2
									l-1.6,0c0.1-0.3-1.4-0.5-4.5-0.4c-1.3,0-1.9,0-1.9,0.2c-0.8,0.6-4.3,0.9-10.5,0.9c7.7,0.1,12.9,0.1,15.7-0.2
									c0.9-0.1,2-0.1,3.3-0.1c1.7-0.1,3-0.2,4-0.2c5.3-0.4,10.9-0.5,16.7-0.3c1.1,0,1.9-0.1,2.5-0.1C31.9-62.5,29-62.8,14.8-63
									 M29.9-64.4L28-64.4c-1.3,0.2,0.3,0.3,4.6,0.3c8.8,0,15.1,0.1,19,0.3c5.9-0.1,9.6-0.3,10.9-0.6l0.6-0.1c-3,0-6.1,0-9.3,0.2
									l-1.2-0.1c-0.9,0-1.6,0-2.2,0.1C42.5-64.2,35.7-64.2,29.9-64.4 M20.3-64.6c-0.1-0.1-0.6-0.2-1.6-0.2
									c-1.1-0.1-2.3-0.2-3.7-0.2c-4.7-0.2-8.7-0.2-11.8-0.1l-1.5,0.1c0.3,0.4,1.6,0.8,3.7,1.1c1.1-0.1,2-0.1,2.8-0.1
									c1.2,0,1.9-0.1,2.2-0.1C17.1-63.6,20.4-63.8,20.3-64.6 M75.3-149.4c-0.5,0-0.7,0-0.7-0.2c0.1-0.4-1.4-0.5-4.6-0.4l-1.6-0.1
									c1.1,0.5,2.7,1,4.9,1.4C76.8-148.7,77.5-149,75.3-149.4 M276.1-55.6c2.1,0,4.1,0,6.1,0c8.7,0,10.4-0.1,5-0.3
									C281.4-56.1,277.7-56,276.1-55.6 M133.2-46.3c0.8,0,1.5,0,2.2,0l1.8-0.1c-1.4-0.1-2.7-0.2-4-0.3c-3.4,0-6.6,0.1-9.8,0.3
									C126.7-46.3,129.9-46.3,133.2-46.3 M149.8-48.8c-1-0.1-2-0.1-3-0.1c-2.1,0-4.2,0-6.4,0.1c-2.7,0.1-5.1,0.2-7.2,0.2
									c-1.6,0-3.1,0.1-4.4,0.2c-1.1,0-2.2,0.1-3.4,0.2c-1.8,0-3.4-0.1-4.9-0.2c-2.4-0.1-5.2,0.1-8.6,0.5c-2.8,0.3-5.1,0.6-7.1,0.9
									c-4,0-7.9,0-11.7-0.1c-7.8-0.2-17.3-0.2-28.4-0.2c0-0.1-0.3-0.2-0.7-0.2c-6.7-0.6-16.7-0.7-30.1-0.4c-2,0.2-2.4,0.4-1.3,0.7
									l0.6,0C38.9-47,46.5-47,55.7-47c5,0,10,0,14.8,0.1c5,0.1,10.4,0.1,16,0.1c7.3,0,11.5,0.1,12.4,0.5c12.1,0,16-0.1,11.7-0.4
									l-1-0.2c7.7-0.2,14.9-0.5,21.7-0.8c0.7-0.1,1.3-0.1,1.9-0.2C139.5-48,145-48.4,149.8-48.8 M198.5-50.4
									c3.8-0.3,7.9-0.6,12.1-1c4.6-0.3,3.4-0.5-3.6-0.5c-5.5,0-7.8,0.2-6.9,0.5C200.6-51.2,200-50.8,198.5-50.4 M235.7-49.3
									c-9.7-0.1-11.6,0.1-5.9,0.5c5.5,0,8.1-0.2,7.8-0.4C237.4-49.3,236.8-49.3,235.7-49.3 M222.3-55.2c-3.7,0.3-3.1,0.5,1.9,0.7
									c4.2-0.1,4-0.4-0.6-0.7L222.3-55.2 M181.2-57.6c-1.3,0.2-0.6,0.4,1.9,0.5c7.9-0.2,7.9-0.3,0.1-0.4L181.2-57.6 M161.6-55.4
									c2.1-0.1,3.2-0.1,3.4-0.2c0.3-0.3,0.9-0.5,1.8-0.6c3.7-0.7,2.9-1-2.4-1c-0.8,0-1.7-0.1-2.8,0c-10.6,0.1-13.4,0.3-8.4,0.7
									l0.9,0.1c-3.1,0.4-2.4,0.7,2.3,1.1C158.5-55.4,160.2-55.4,161.6-55.4 M141.2-59c-4.2,0.4-3.8,0.7,1.4,0.8
									c3.5,0,4.6-0.1,3.5-0.4c-0.3-0.1-0.9-0.2-1.9-0.4C143-58.9,142-58.9,141.2-59 M145.7-62l1.2-0.3c-7.7,0-9.6,0.3-5.6,0.8
									C147.2-61.7,148.7-61.9,145.7-62 M131.5-52.7c-0.2-0.4-0.5-0.8-0.8-1.1c0-0.3-0.2-0.5-0.6-0.8c-0.7-0.3-2.7-0.6-6.1-0.9
									c-0.5-0.1-0.9-0.1-1.3-0.1c-0.3-0.3-0.1-0.7,0.6-1.2c0.2-0.1,0.2-0.1,0-0.1c-3-0.3-6.4-0.2-10.2,0.1c-3.2,0.4-3,0.7,0.6,0.7
									l2.7,0.1c-1.9,0.1-2.5,0.2-1.8,0.5c0.3,0.1,1.1,0.3,2.5,0.4c0.8,0.2,1.4,0.3,1.9,0.5c0.7,0.2,1.7,0.4,3,0.6
									c2.4,0.5,5,0.9,7.9,1.3C131-52.6,131.5-52.6,131.5-52.7 M137-152l1.2,0c-12-0.2-20.7,0-25.9,0.5
									C124.2-151.4,132.4-151.5,137-152 M137.9-154.9l0.7-0.2c-5.4,0-9.4,0.3-11.8,0.8C133.3-154.4,137-154.5,137.9-154.9
									 M223.5-139.2c-1,0-1.4,0.1-1.2,0.1c0.6,0.3,1.2,0.8,1.7,1.3c1.1,0,2-0.1,2.8-0.1l1.3-0.1c-2.2-0.3-1.9-0.6,0.7-0.6
									c1.8-0.1,2.6-0.1,2.4-0.3C230.4-139.5,227.8-139.6,223.5-139.2 M357.4-66.6l-1.9,0c2.3,0.3,1.9,0.6-1.2,0.8l-1.6-0.1
									c2.7,0.3,4.4,0.5,5.1,0.8c5.9,0,7.5-0.3,4.7-0.7c-0.5-0.1-0.7-0.1-0.6-0.2C362.1-66.4,360.6-66.5,357.4-66.6 M326.3-63.5
									l-1.8,0.1c2.2,0.2,5.3,0.4,9.5,0.5c3.4,0,4.8-0.1,4.4-0.4c-0.1-0.1-0.2-0.1-0.4-0.1C335.1-63.8,331.2-63.8,326.3-63.5
									 M327-64.7c-6.4,0.1-7.5,0.2-3.4,0.4c3,0.2,6.3,0.4,10.1,0.5c4.4,0.1,7.2,0,8.1-0.1C345.2-64.6,340.2-64.9,327-64.7
									 M314.2-66.2l-3.1,0c4.6,0.3,3.7,0.7-2.8,1.2l-1.2,0c1.4,0.1,0.9,0.4-1.5,0.8c5.3-0.3,10.1-0.6,14.5-1
									c1.3,0,2.8-0.1,4.4-0.2c7.3-0.3,11.9-0.7,13.9-1.2c-1,0.1-1.9,0.1-2.7,0l-1.9,0c0.4,0.2-1,0.3-4.1,0.2c-1.2,0-2.5,0-3.8,0
									l-2.8-0.1C325.8-66.3,322.8-66.1,314.2-66.2 M276.9-60.7c1,0,2,0,3,0c2.1-0.1,3.7-0.1,4.9,0c4.9-0.3,8.4-0.4,10.5-0.2
									c3.3,0.2,5.7,0.2,7.3,0c2.9-0.3-0.7-0.4-10.7-0.3c-2.2,0-4.3,0-6.4,0C280.3-61.1,277.4-60.9,276.9-60.7 M246.5-63.7
									c-1.1-0.1-2.2-0.1-3.3,0.1c-4,0.2-2.5,0.3,4.8,0.5c1,0,1.5-0.1,1.5-0.1c0-0.1-0.3-0.1-0.7-0.2
									C248-63.6,247.3-63.6,246.5-63.7 M251.7-61.5c1.2,0,2,0,2.4-0.1c4.1,0.2,6.7,0.2,8,0c0.3-0.1,0.7-0.1,1.2,0
									c3.8,0,6.5-0.1,8.3-0.2c2.6-0.4,7.1-0.5,13.6-0.5c9.6-0.1,11.4-0.4,5.6-0.7c-1,0-2.1,0.1-3.4,0.2c-1.6,0.2-4.1,0.2-7.5,0.1
									c-6.9-0.1-12.4-0.1-16.6,0c-4.9,0.1-9.1,0.2-12.6,0.4c-8.4,0.4-10.9,0.8-7.7,1.4C244.6-61.2,247.5-61.4,251.7-61.5
									 M253.1-64.1l-0.9,0c4.2,0.2,9.7,0.4,16.7,0.4c1.3,0,2.1,0.1,2.5,0.1c3.6-0.2,6.1,0,7.4,0.6c2.1,0,3.6-0.1,4.7-0.2l0.2,0.1
									c3.2-0.6,1.4-1-5.4-1.4c-2.4,0.5-6.4,0.5-12-0.1C261.5-64.8,257.1-64.7,253.1-64.1 M286.2-135.1c4.4,0,6.9-0.2,7.2-0.7
									l0-0.1C288.5-136.4,286.1-136.2,286.2-135.1 M273.8-144.2l-2.8,0c1.2,0.2,3.3,0.3,6.4,0.4c3.9,0.1,7.8,0,11.5-0.1
									C283.6-144,278.5-144.1,273.8-144.2 M336.9-124.2c2.5-0.3,2.1-0.4-1.2-0.3c-5.2,0.1-9.2,0.1-12-0.1c2.7,0.2,5.6,0.3,8.9,0.5
									C334.7-124.1,336.1-124.1,336.9-124.2 M303.8-127.7c5.4,0,7.2-0.1,5.2-0.6C305.4-129,303.7-128.8,303.8-127.7 M319.8-150.7
									c0.8-0.2,0.8-0.3,0-0.3c-12.2-0.4-22-0.2-29.6,0.7l-1.3,0c4.1,0.4,7.7,0.7,11,1c5.7,0.1,9.1,0,10.1-0.2
									c0.5-0.1,1.2-0.1,2.1-0.2C315.2-150,317.8-150.4,319.8-150.7 M331.9-136.7c5.3,0,8.8-0.2,10.5-0.5c2.8-0.8-2-1.3-14.4-1.3
									c-5.4,0-8-0.1-7.7-0.4l-1.8,0.1c-6.5,0.2-7.9,0.5-4.3,0.9c1.2,0.1,1.2,0.2,0.2,0.3c-1,0-1.5,0.1-1.5,0.1
									c-0.3,0.4-0.2,0.7,0.2,1.1c0.2,0.2-0.1,0.3-1,0.3c-5.4,0.3-7.9,0.8-7.4,1.5c4-0.3,8-0.6,12-0.9c1.1,0,1.5-0.1,1.2-0.1
									c-1.8-1-0.2-1.4,4.7-1.1c2,0,4,0,6.1,0C329.7-136.7,330.8-136.7,331.9-136.7 M339.9-148.2c-0.8,0-1.1,0.1-0.9,0.1
									c2,0.2,4.6,0.4,7.7,0.5c9.9,0,12.8-0.1,8.7-0.2C350.5-148,345.3-148.2,339.9-148.2 M337.8-54.7c-0.9-0.2-1.7-0.3-2.5,0
									c-0.8,0.4-2.5,0.7-5.3,0.8C337.1-53.8,339.7-54,337.8-54.7 M400.1-49.6c0.7,0,1.3,0.1,1.9,0c1.1,0,1.7-0.1,1.9-0.1
									c1.4-0.3,2.7-0.6,3.7-0.9C404.5-50.3,402-50,400.1-49.6 M326.1-65c-0.3-0.2-0.5-0.3-0.6-0.3c-5.2,0-6.3,0.4-3.1,1
									c0.7,0,1.3,0,1.8,0.1C324.9-64.5,325.5-64.8,326.1-65 M265.4-61.2c-0.6-0.1,146.9-4.5,146.6-4.5c-6.5-0.1-8,0.1-4.6,0.6
									C413.2-65.2,267.3-61,265.4-61.2 M411.5-61.6l-3.1,0.1c-0.8,0.3-146.6,4.9-141.5,5.1C275.4-56.8,422.2-61.4,411.5-61.6
									 M398.6-65.1c-0.5-0.3-1.6-0.3-3.4-0.2c-3.6,0.1-3.6,0.4,0,0.7C398.3-64.6,399.4-64.8,398.6-65.1 M372.6-66
									c11.2-0.1,14.3-0.3,9.5-0.6c-2.4-0.1-5.3-0.3-8.7-0.5c-5.3-0.2-7.2-0.1-5.6,0.3C368.8-66.5,370.5-66.2,372.6-66 M389.5-62.9
									c-2.1,0-3.7,0.1-4.9,0.2c-4.7,0.2-4.6,0.4,0.5,0.7c3.3,0.1,7,0.2,11.1,0.4c4.3,0.1,6.2,0,5.5-0.2c-1.3-0.4-0.1-0.7,3.5-0.6
									c-140.7,2.9-138.8-7.3,2.8-0.6c-1.3,0-2.2-0.1-2.7-0.1l-0.9-0.3C402.5-63,397.5-62.9,389.5-62.9 M262.9-124.4
									c0.3,0,0.6,0,0.9,0l0-0.8l-0.3-0.1c1.1-0.2,1.6-0.5,1.5-0.7c0-0.1-0.3-0.1-0.9-0.1c-3.7-0.1,143.6-4.3,146-3.6
									c-4.1,0.1-6.4,0.2-6.7,0.3l0,0.2C407.8-129.6,262.4-125.1,262.9-124.4 M386.5-129.4c-12.9-0.2-14,0-3.2,0.6
									c9.9,0,13.5-0.1,10.8-0.3c-1.1-0.1-2.1-0.2-3-0.2C389.8-129.4,388.3-129.4,386.5-129.4 M368.8-132.1
									c6.7-0.1,7.3-0.4,1.8-0.7c-0.4,0-0.8,0-1.2-0.1c-0.3-0.1-0.7-0.2-1.2-0.3l-1.6,0c-10.3,0.2-11.1,0.5-2.6,1
									c1.9-0.1,3.4-0.1,4.4-0.1C368.4-132.2,368.6-132.2,368.8-132.1 M377.5-127.3c1.1-0.1,1.7-0.2,1.8-0.2
									c0.7-0.4,0.1-0.6-1.6-0.6c2.1-0.1,3.9-0.2,5.6-0.3l1.6-0.2c-6.3-0.2-10.9-0.1-13.6,0.1l-0.4-0.1c2.1-0.3,1.2-0.3-2.7-0.2
									c-0.7,0-1.3,0-1.8,0.1c-0.5,0-1,0-1.5-0.2l0.3,0.9c0.5,0.1,0.9,0.1,1.2,0.1c0.7-0.2,1.3-0.2,1.9-0.2c0.2,0,0.4,0,0.6,0.1
									c-0.2,0-0.4,0-0.6,0c2.6,0,4.9,0,7.1-0.1C376.9-128,377.6-127.7,377.5-127.3 M370-144.9c2.6,0.1,4-0.1,4.4-0.3
									c1.5-0.5-1.3-0.7-8.3-0.6c-2.5,0.1-4.7,0.1-6.7,0l0.2,0.6c3.1,0,5.3,0.2,6.8,0.5C367.8-144.8,369-144.9,370-144.9
									 M399.4-144.4l-2.7-0.1c0.6,0.4,2.7,0.7,6.4,0.8c-3.3,0.2-8.4,0.4-15.2,0.4c-2.1-0.1-3.8-0.2-5-0.3
									c-1.8-0.1-3.5-0.2-5.2-0.3c-5.9-0.4-10.7-0.4-14.4,0l-1.5,0c11,0,18.7,0.3,23.1,0.8c8,0,15.4-0.2,22.2-0.4l-0.2-0.7
									C404.7-144.2,402.1-144.3,399.4-144.4 M393.6-148.9c0.6,0.1,1.2,0,1.8-0.1c3.7-0.2,8.4-0.3,14.1-0.2
									c0.7,0.3-146.4,4.8-145.5,4.5c0.1-0.1,0.1-0.2,0-0.2c-1-0.3,144.9-4.9,142-4.8C400.3-149.7,396.3-149.4,393.6-148.9
									 M392.8-146.4c1.2,0.1,2.3,0.1,3.4,0c3.9,0.1,7.2,0.1,10.1,0.1l-0.2-0.6c-5.3,0-9.8-0.1-13.5-0.2
									c-4.4-0.3-10.5-0.3-18.1-0.1c0,0.1,0.6,0.3,1.8,0.5l0.7,0C381.7-146.5,387-146.4,392.8-146.4 M270.7-149.8
									c-4.1,0.1-4,0.3,0.3,0.8c3.3-0.2,3.7-0.4,1.3-0.8C271.6-149.8,271.1-149.9,270.7-149.8 M306.1-121.2c3.2-0.5,2.6-0.8-1.8-1
									c-2.6-0.1-3.6-0.1-3,0.2C302.4-121.7,304-121.5,306.1-121.2 M316.2-117.8c-1.7,0.1-1,0.2,1.9,0.5c0.6-0.1,1.2-0.2,1.9-0.3
									c1,0,1.8,0,2.4-0.2c0.6,0,0.7-0.1,0.4-0.1C320.7-118,318.5-118,316.2-117.8 M328.4-125.4c0.9-0.1,1.6-0.2,2.1-0.4l0.7-0.1
									c-7.1-0.1-12-0.4-14.7-0.9L316-127c-0.7,0.2-0.7,0.3,0,0.3c2.8,0.3,4.5,0.9,5.1,1.6C323.7-125.2,326.2-125.3,328.4-125.4
									 M296.7-118.1c1.3,0,2.4-0.1,3.4-0.2l0.9,0.1c-0.8-0.2-0.8-0.5,0.1-0.9l0.4-0.1c-3.3,0-6.1,0.1-8.6,0.4l-0.9,0.2
									C294.6-118.7,296.2-118.5,296.7-118.1 M287.4-121.5c0-0.1,0.1-0.2,0.3-0.3c0.9-0.4-0.4-0.5-3.9-0.2c0.3,0.7,1.4,1.2,3.2,1.6
									c5,0,6.5-0.2,4.4-0.4c-0.7,0-1.1-0.1-1.3-0.1C287.8-121,286.9-121.2,287.4-121.5 M299.2-124.2c-0.1-0.1-0.4-0.2-0.7-0.1
									c-5.2,0.2-7,0.6-5.3,1C297.4-123.4,299.4-123.7,299.2-124.2 M297.6-122c0.7-0.6,0.5-0.9-0.6-1.1c-4.6,0.8-5,1.5-1.1,2.1
									l0.9,0.1c-3.7,0.5-2.1,0.9,4.8,1.1c1.2,0,2,0.1,2.5,0.2c0.5,0,1,0.1,1.5,0.3c1,0.4,2.1,0.8,3.4,1.2c1.2,0,2.3,0,3.4,0
									l0.7-0.2c-1.2-0.2-2.4-0.4-3.7-0.6c-3.3-0.5-3.7-1-1.2-1.5c1.9-0.3,1.3-0.5-1.6-0.5C299.9-120.8,296.9-121.2,297.6-122
									 M300.5-122.7c1.2-0.1,1.9-0.2,2.2-0.2c1.6-0.3,4.2-0.5,8-0.4c2.6,0,3.5-0.1,2.7-0.4c-0.8-0.2-2.2-0.2-4.3-0.2
									C305.1-123.7,302.3-123.3,300.5-122.7 M289.8-131.6l0.9,0.3c4.3-0.3,6.1-0.1,5.3,0.6c-0.7,0.8-2.9,1.5-6.6,2
									c5.3-0.1,10.7-0.2,16-0.4c0.7-0.2,1.2-0.2,1.6-0.2c2.7,0,4.1-0.1,4.3-0.3c0.4-0.4,2.4-0.6,6-0.7c0.8,0,1.1,0,0.9,0
									c-1.2-0.2,0.3-0.5,4.4-0.9c-1.5-0.6-3.4-0.7-5.6,0c-0.4,0.1-0.9,0.2-1.6,0.3c-5,0-9.8-0.1-14.4-0.4
									c-3.5-0.3-5.7-0.8-6.9-1.3c-1.8-1.1-3.7-1.2-5.8-0.3c3.6,0.4,3.1,0.8-1.3,1.1l-1-0.1C287.7-132,289-131.8,289.8-131.6
									 M280.5-140.9c1.2,0,2.1,0,2.7-0.2c0.7,0,1.3,0,1.8-0.2l0.7-0.1c-1.2-0.3-3.6-0.5-7.3-0.7c-2.5-0.1-3.4,0-2.8,0.2l0.3,0.2
									c-3,0.3-2.5,0.6,1.2,0.9C278.1-140.8,279.3-140.8,280.5-140.9 M279.1-156.2c-1.8-0.1-3.4-0.2-4.7-0.3
									c-2.6-0.2-6.3-0.3-11.3-0.2c-7.7,0,139.5-4.1,145.7-3.5c3.6,0.3-141.6,5.2-139.6,5.8c1.9,0,2.6-0.1,2.2-0.5
									c0-0.1,0.1-0.1,0.4-0.1c2.9,0.1,5.4,0,7.5-0.2c0.7-0.1,1.1-0.1,1.3-0.1C281.7-155.9,281.2-156.2,279.1-156.2 M281.8-159
									c-2.1,0.2-1.4,0.6,2.1,1.1c2.8-0.2,2.8-0.4,0-0.7c-0.7,0-1.1-0.1-1.3-0.3L281.8-159 M292.4-148.3l0.7-0.2
									c-1.3-0.6-3.2-1.1-5.8-1.6l-0.9-0.2c-2.6,0.1-2.5,0.5,0.2,1C288.3-148.9,290.2-148.5,292.4-148.3 M312.8-139.7l1.8-0.2
									c-1.5-0.2-0.4-0.4,3.2-0.5c1.3,0,2.5,0,3.7,0c2.4,0,4.7,0,7.1,0.1l0.9,0c-2.2-0.2-4.8-0.4-8-0.6c-2,0-3.9-0.1-5.9-0.1
									c-0.4,0-1,0-1.8-0.1C309-140.5,308.7-140.1,312.8-139.7 M314.8-150.3c2-0.3,1.8-0.8-0.6-1.3c-1.7-0.3-3.6-0.6-5.8-1
									l-0.6-0.4c-0.7,0.2-0.7,0.4,0,0.5C309.6-151.7,311.9-150.9,314.8-150.3 M317.5-150.2c-0.4,0.8,1.2,1.3,4.8,1.7
									c1.2-0.1,2.4-0.1,3.7-0.1c2-0.1,2.2-0.2,0.7-0.5c-2-0.4-4.7-0.7-8.2-0.9L317.5-150.2 M447.1-82.8c0.1,0,0.2-0.1,0.3-0.1
									c1-0.2,1.2-0.4,0.6-0.5c-0.7-0.1-2.8-0.2-6.4-0.1c-2.7,0-4.1-0.4-4.2-1.2c-2.5-0.5-4-0.2-4.6,1c-0.1,0.1-0.4,0.3-0.9,0.3
									c-4.2,0.5-3.4,0.7,2.4,0.4C440-83.2,444.2-83.2,447.1-82.8 M402.7-72.1c-0.9-0.2-1.5-0.4-1.7-0.8c-6.5,0.1-9.1,0.4-8,1
									C396.2-71.9,399.4-72,402.7-72.1 M423.8-83.6c-0.7,0-1.1-0.1-1.2-0.1c-2.6,0.4-2,0.9,1.5,1.4
									C428.6-82.8,428.5-83.2,423.8-83.6 M394.8-88l0-0.3c-3.5,0.2-5.5,0.7-5.7,1.6C393.8-86.5,395.7-87,394.8-88 M415.1-99.8
									l0-0.2c-0.4,0.7-0.9,1.4-1.6,2.2c-0.8,0.9-0.2,1.6,1.8,2.1c3-0.2,3.7-0.8,2.3-1.6C416.7-98,415.9-98.8,415.1-99.8
									 M439.6-97.5c0.6-0.2,1.2-0.2,1.8-0.3c4.7,0.1,6.5-0.4,5.4-1.5c-0.3-0.2-0.6-0.3-0.9-0.3c-2.1-0.1-3.9-0.1-5.5,0.2
									c-4.5,0.8-5.9,1.6-4.2,2.4C437.4-97.2,438.5-97.3,439.6-97.5 M380.6-60.5l2.6-1l-1.6,0l-0.9-0.2c0.3,0.1,0.5,0.1,0.6,0.2
									c0.8,0.3,0.4,0.5-1.2,0.7l-0.9,0.2C380.2-60.5,380.6-60.5,380.6-60.5 M373.6-61.4c-0.2,0-0.4,0-0.7-0.1l-43.8,0
									c-2.1,0.6-4.4,1.2-7.1,1.7c-2.1,0.5-2.2,1-0.6,1.3c0.8,0.2,1.6,0.3,2.5,0.4c2.4,0.4,5.7,0.8,10,1c3.8,0,5.7-0.1,5.9-0.4
									l0.2,0.1c0.5-0.1,1-0.1,1.5,0c1.2,0.2,2.8,0.2,4.9,0.2c5.5,0,8.8-0.2,9.7-0.7c0.3-0.1,0.7-0.2,1.3-0.1
									c2.2-0.3,5.3-0.5,9.3-0.6c6.2-0.5,7.5-1.1,4-1.6l2.2,0c0.7-0.1,1.5-0.2,2.5-0.3c-0.7-0.2-1.2-0.4-1.5-0.6l-0.3,0
									C374.3-61.2,374.3-61.3,373.6-61.4 M369-60.7c0-0.1,0.6-0.3,1.9-0.5c0.5,0.1,1,0.1,1.5,0.1C371.4-61,370.3-60.9,369-60.7
									 M345.9-95.4c-1,0.2-0.8,0.8,0.5,1.6c2-0.4,4.8-0.6,8.6-0.6c2-0.1,2.2-0.3,0.6-0.6C352.8-95.9,349.5-96.1,345.9-95.4
									 M344.3-98.5c-0.5,0.2-0.4,0.4,0.2,0.4c3.6,0.5,6.9,1.1,10,1.7c2.4-0.2,4.7-0.3,6.9-0.3l1,0.1c0.6-0.2,0.5-0.4-0.2-0.5
									c-0.7-0.1-1.3-0.2-1.9-0.4c-0.5-0.1-0.9-0.2-1.2-0.2c-4.6-0.1-7.9-0.6-9.7-1.3C348.6-99.3,346.9-99.1,344.3-98.5
									 M382.5-110.4l1.8-0.1c-1.3-0.3-0.6-0.5,2.1-0.6l-7.5,0C379.9-110.8,381.1-110.6,382.5-110.4 M380.9-123.6l-0.1,0
									c-0.7-0.6-1.3-0.7-1.8-0.4c-0.5,0.4-1,0.6-1.5,0.9c-1.1,0.5-0.1,0.9,3,1.2C385.2-122.5,385.4-123.1,380.9-123.6
									 M378.2-118.2c0.5-0.1,1.1-0.1,1.8-0.1c1.1-0.1,1.7-0.2,1.8-0.2c0.2-0.4,1.2-0.6,2.9-0.7c3-0.2,3.6-0.2,2.1-0.3
									c-0.9-0.1-1.5-0.2-1.9-0.1c-2.4,0.1-4.4,0.3-6.1,0.5c-2.7,0.5-3.5,0.9-2.3,1.2C377.1-118,377.7-118.1,378.2-118.2
									 M363.6-113c0.8,0,0.8,0.2,0,0.5l-0.6,0.1c4.4,0.1,7.8,0.4,10.1,0.8c1.4-0.4,0.1-0.8-3.9-1.2
									C367.4-112.9,365.6-113,363.6-113 M364.3-125.3c0.6-0.2,1.2-0.2,1.9-0.2l0.6-0.2c-4.9-0.1-8.4,0.1-10.3,0.5
									C360.3-125,362.9-125.1,364.3-125.3 M367.3-127.6c-0.1-0.1-0.4-0.1-0.9,0c-4.3,0.1-5.5,0.3-3.5,0.8
									C366-126.9,367.5-127.2,367.3-127.6 M379.5-134.1l0.7-0.3c-3.7,0-6,0.3-7.1,0.8C376.3-133.6,378.4-133.8,379.5-134.1
									 M388.1-136.5c-1.1,0-2-0.1-2.7-0.2c-2.1-0.2-2.8,0.1-2.2,0.9c2.6,0,5.2,0,7.7,0c0.3-0.1,0.8-0.2,1.3-0.4
									C391.3-136.4,389.9-136.5,388.1-136.5 M358.4-113.3c3.7,0,5.1-0.3,4.3-0.9c-0.2-0.1-0.5-0.2-1-0.3
									C357.1-114.4,356-114,358.4-113.3 M338-113.6l-0.2-0.1c-1-0.2-3.7-0.2-8-0.1l-1.5-0.1c0.3-0.3-1.1-0.6-4-0.8
									c-2.2-0.2-2.2,0,0,0.5c-0.2,0.2-1.1,0.2-2.7,0c-0.6-0.2-1.2-0.3-1.9-0.5c-0.6-0.1-0.9-0.1-1-0.1c-2.5-0.8-3.6-1.3-3.3-1.8
									l-0.6,0c-3.4,0-5,0.2-5,0.7c-6.3,0.3-10.3,0.1-12-0.6c-0.4-0.1-0.6-0.2-0.7-0.2c-4.1-0.2-6.2-0.4-6.4-0.7
									c-0.5-0.7-1.9-1.1-4-1.3c-2.9-0.4-2-0.7,2.5-1c-0.4-0.4-2.1-0.5-5-0.4c-0.8,0-1.4,0-1.9,0.1c-2.3-0.1-5.3-0.1-9,0l-0.9-0.1
									c-1.2-0.2-2.2-0.3-3-0.5c-2.1-0.3-2-0.5,0.3-0.7c0.8-0.2,1.2-0.2,1.3-0.2c0.2-0.4,1.2-0.4,3-0.3l1.2,0
									c0.5-0.2,1-0.2,1.6-0.2c2.6-0.2,4.8-0.4,6.6-0.6c3.3-0.4,3.6-0.7,0.9-1.1c-2.3,0.1-4.5,0.1-6.8,0.1l-1-0.1
									c-0.6,0.1-1.2,0.2-1.8,0.3c-4.4,0.5,139.3-3.3,135.2-2.8c-1.3-0.1-2.3-0.3-3-0.5c-0.5-0.1-1.1-0.2-1.8-0.3
									c-0.6-0.1-1.1-0.2-1.6-0.4c-2.5-0.3-5-0.6-7.6-0.9c-0.7,0-1.1-0.1-1.2-0.2c-4-0.1-3.8,0.1,0.5,0.6c-0.7,0.2-1.4,0.3-2.2,0.4
									c-0.8,0.1-1.5,0.3-2.2,0.5c-0.4,0.1-0.3,0.1,0.2,0.2c1.9,0.2,4,0.2,6.2,0.2c6.7,0.3,9.3,0.7,7.7,1.3
									c-3.2-0.1-4.6,0.1-4.3,0.6c0,0.1-0.3,0-0.9-0.1c-1.1,0.2-2.1,0.2-3.1,0.1c-0.8,0-1.6-0.1-2.4,0c-0.7,0-1.3-0.1-1.9-0.1
									c-0.2-0.1-0.4-0.1-0.6-0.1c-0.6-0.1-1.2-0.1-1.9-0.1c-0.7-0.1-1.3-0.2-1.9-0.4c-2.8-0.2-4.8-0.2-6.1-0.1l-0.1,0
									c-0.8,0-1.8-0.1-3.1-0.2c-4.1-0.2-6.7-0.5-7.9-1l-1.9,0c-1.9,0.1-3.3,0.2-4.3,0.2c-1.1,0.1-1,0.2,0.2,0.3
									c1,0,2.2,0.1,3.7,0.2c4.9,0.2,8.5,0.5,10.5,1c1.3,0,2.3,0,3.1,0c0.1,0,0.2,0,0.3,0c1.2,0.1,2.1,0.2,2.7,0.2
									c-2.8,0.1-2.8,0.2-0.1,0.3l0.1,0l-0.1,0.1c0.6,0.1,0.9,0.1,0.9,0.2c0.8,0.5,3.2,0.6,7.1,0.4c2-0.1,3.8-0.1,5.6-0.1
									c1.3,0.1,2,0.2,2.2,0.5c5.1,0.1,6.9-0.1,5.3-0.4c2.9,0.2-142.5,4.8-140.3,5c0.7,0.1,1.3,0.2,1.9,0.3c0.6,0.1,1,0.1,1.3,0.2
									c1.8,0.4,4.1,0.6,7,0.8c1.1,0.1,2,0.1,2.7,0.1c3.4,0.6,3.1,0.9-0.9,1c0.4,0.3-0.6,0.3-3.1,0.1l-1,0c-0.6,0.1-1,0.1-1.2,0
									c-3.1,0.2-4.9,0.3-5.6,0.2l0-0.2c0.2,0,0.4,0,0.7,0c2.8-0.5,3.3-0.9,1.4-1.1c-0.7,0-1.3-0.1-1.8-0.2c-0.2,0-0.4,0-0.7,0
									l-0.3-0.9c-1,0-2-0.1-3-0.1c3.3,0.3,150-4,144.1-4c-5.9,0-10.5,0-13.8-0.2c-6.5-0.6-13.3-0.7-20.3-0.4c0-0.1,0-0.3,0-0.4
									c-0.1-0.1-0.7-0.3-1.8-0.5c-1.1,0-1.8-0.1-2.1,0c-2.2,0.5-8.1,0.7-17.9,0.4c-2.1,0.1-3.6,0.1-4.6,0c-1.6,0.2-5,0.1-10.2-0.1
									c-1.4,0-2.5,0-3.3,0.1c-4,0-9.3-0.2-15.9-0.5c0.1-0.1,0.4-0.3,0.9-0.4l0.6-0.1c-5.7-0.4-5.5-0.7,0.9-1.1c1.3,0,1.8,0,1.5,0
									c-2-0.5-5.5-0.6-10.5-0.2c-6.1-0.4-7.7-0.7-4.8-1.1l1.3-0.2c-3.5,0.1-5.9,0-7.3-0.2c-4.3-0.7-5.1-1.4-2.6-2.2
									c1.9,0.1,3.8,0,5.6-0.2c1.3,0,2.3,0,3.1-0.1c8,0.2,14.6,0.5,19.9,0.9c1.4,0.2,2.5,0.3,3.3,0.3c2.1,0.5,5.8,0.8,11.3,0.8
									c1.3,0,2.2,0.1,2.7,0.1c3.7,0.7,11.2,1,22.7,1c-5.5-0.3-10.2-0.7-14.1-1c-1.3-0.2-2.4-0.3-3.4-0.4c-6.6-1-2.2-1.4,13.4-1.3
									c1.2,0.2,2.1,0.2,2.8,0.1c5.1-0.1,5.1-0.2,0-0.2c-1.9-0.1-3.3-0.1-4.3-0.2c-1.1,0-2-0.1-2.7-0.2c-9.3-0.2-17.4-0.5-24.3-0.8
									c-8.4-0.3-19.6-0.5-33.6-0.5c1.1-0.2,2.2-0.3,3.2-0.4l1.2-0.1c-16-0.2-17.7-0.7-5.1-1.4c3.5-0.7,2-0.9-4.6-0.4
									c-1.1,0.1-2.1,0.2-3,0.3c-7.3,0.4-8.8,0.2-4.6-0.6c-3.2-0.5-5.5-0.5-7-0.2c-1.9,0.3-4.7,0.6-8.4,0.8
									c-0.9,0.1-1.4,0.1-1.5,0.1c-6.8-0.5-12.6-1-17.2-1.7c-6.4-0.6-6.7-1-0.8-1c1.2-0.1,2.3-0.1,3.4-0.1c5.3,0,6.9-0.2,4.7-0.7
									c-2.3-0.4-3.9-0.5-4.9-0.3c-5.1,0.6-12.1,0.7-20.9,0.4c-8.7-0.3-17.3-0.7-25.9-1.1c-7-0.2-9-0.5-6.1-1
									c-6.7,0.2-13.1,0.2-19.2,0c-6.3-0.4-13.2-0.7-20.8-0.9c-1.2,0-2.3,0-3.4,0c-5.4-0.1-9-0.2-10.8-0.4c-1.1-0.2-2-0.3-2.8-0.3
									c-3.3-0.2-6.7-0.3-10.4-0.3c-5.5-0.2-8.9-0.5-10.1-1c-1.8-0.7-1.5-1.2,1-1.6l1.5-0.3c2.6,0.1,6.6,0.1,12.1,0.1l3.1,0
									c-0.4-0.2,0.5-0.5,2.6-0.9c2.7-0.4,7.8-0.5,15.4-0.5c1,0,1.8,0.1,2.4,0c6.3,0.2,13.6,0.3,21.9,0.5c4.3,0,8.6,0.1,12.7,0.2
									c0.1,0.2,0.5,0.4,1.1,0.6l0.7,0c-2.5,0.2-4.1,0.5-4.9,1c-1.1,0.5-1.8,1.1-2.2,1.6c1.1,0.1,1.9,0.1,2.4,0
									c10.9-0.9,21.2-1.8,30.7-2.9c-0.1-0.1,0-0.1,0.4-0.2c1.7-0.1,2.8,0,3.4,0c2.5,0.3,4.7,0.3,6.7,0l1.9,0.1
									c5.5,0.2,13.7,0.3,24.4,0.2c3.6-0.2,0.5-0.4-9.3-0.4c-16.4,0-20.7-0.4-12.9-1.3c1.1-0.2,2.3-0.3,3.5-0.4
									c1.8-0.2,3.9-0.3,6.4-0.4l2.4-0.2c0.8,0.5,3.9,0.7,9.2,0.7c1.1,0,2.2,0,3.3,0c5.5,0,9.8,0.1,12.7,0.3
									c7.1,0.3,16.2,0.5,27.3,0.5c1,0,1.5,0,1.6,0l1.3,0c3.5,0,5.8,0,7-0.2c0.5-0.2,0.6-0.2,0.3-0.2c-3.2-0.4-5.8-0.9-7.7-1.4
									l-1.6-0.1c3.5-0.2,3.1-0.3-1.5-0.3c-1.1,0-2.3,0.1-3.5,0.1l-2.8,0c-0.5,0.4-2.4,0.6-5.8,0.6c-13.5,0.1-24.8,0-33.8-0.3
									c-1.1,0-1.8-0.1-2.2-0.2c-0.7-0.2-0.6-0.3,0.4-0.2c1-0.2,2-0.3,3-0.3c3.5-0.4,7.2-0.6,11.1-0.7c3.2-0.2,5.2-0.5,5.9-0.8
									c0.9-0.4,2.2-0.8,4.1-1.1c0.6-0.2,1.4-0.4,2.4-0.5c3.9-0.5,2.4-0.7-4.6-0.7c-1,0-1.6,0.1-1.8,0.2c-1.8,0.7-6,0.9-12.9,0.5
									c-6.6-0.4-16.1-0.6-28.3-0.6c-4.5,0.1-4.7,0.1-0.6,0.2c4.6,0.3,8.9,0.5,12.9,0.6c1.2,0.2,2.1,0.2,2.8,0.1
									c5.8-0.1,9.6-0.1,11.3,0.1l1.6,0.1c0,0.3-1,0.6-2.9,0.9c-1.9,0.3-4.3,0.6-7.2,0.9c-1.1,0-2,0-2.7,0c-2-0.2-4.6-0.3-8-0.4
									c-9.5-0.2-19.8-0.4-31-0.5c-1.2,0-1.8,0-1.8-0.2c-0.8-0.7-3.4-0.9-7.9-0.5c0.2,0.3,0.7,0.5,1.4,0.7c0.4,0.2,1.2,0.2,2.4,0.1
									c5.5,0.1,10.6,0.2,15.3,0.3c8.7,0.2,15.9,0.5,21.6,0.9c4.3-0.1,6.2-0.1,5.5,0c-1.8,0.7-8.4,1.1-19.8,1.1
									c1.6,0.1,3.1,0.2,4.4,0.3c5.3,0.3,4.6,0.5-2.2,0.7c-1.8,0.1-3.2,0.1-4.3,0c-0.9-0.1-1.8-0.2-2.7-0.2
									c-8.8-0.3-13.5-0.2-14.1,0.3c-1.1,0.2-1.5,0.3-1.3,0.4c1,0.6-2.5,0.8-10.6,0.7c-10.5-0.2-19.9-0.4-28.3-0.6
									c-1.8-0.1-3.3-0.2-4.6-0.3c-5.4-0.3-11.2-0.4-17.2-0.2c-1.7,0.1-3.1,0.1-4.1,0c-1,0-0.9-0.1,0.1-0.3
									c1.4-0.1,0.8-0.4-1.8-0.8c-5.6-0.9-8.6-0.9-9,0c-0.1,0.1-0.6,0.3-1.5,0.5c-1.1,0-1.8,0.1-2.1,0.2c-2.1,0.5-6.9,0.7-14.6,0.6
									c-2.1,0-4,0-5.8,0.1l-1,0c5.4-0.1,8.3,0.1,8.6,0.5l0.4,0c7.1,0.3,7.6,0.8,1.5,1.4c0.6,0.8-1.7,1-7.1,0.5
									c-4.2-0.2-8.2-0.4-12.2-0.6c-1.5-0.2-2.5-0.3-3.1-0.3c-4.5-0.6-11.5-0.8-21-0.8c1.2-0.4,4.2-0.6,9-0.6
									c12.1,0.1,16.2-0.2,12.1-0.7c-5.5,0.2-8.9,0.1-10.1-0.3l-0.7,0c-1,0-1.7,0.1-2.2,0.1c-7.7,0.2-13.8,0.4-18.2,0.6
									c-1.6,0.2-2.8,0.3-3.5,0.4c-3.1,0.5-5.8,0.7-7.8,0.4c-2.1,0-3.8,0-5.2,0.1c-1.7-0.2-3.4-0.3-5-0.4
									c-9.5-0.3-21.5-0.5-36.1-0.4c-1,0-1.6-0.1-1.9,0c-4.2,0.1-8.6,0.3-13.2,0.5c-2.1,0-4,0.1-5.8,0.3c-1.3,0-2,0-2.1,0
									c-6.1-0.5-11.8-0.6-16.9-0.4c5.2,0.1,6.4,0.5,3.4,1c-0.9,0.2-1.1,0.3-0.7,0.4c1.1,0.4,4.5,0.8,10.1,0.9l1.8,0.1
									c-0.4-0.5,2.1-0.6,7.4-0.3l3.1-0.2c-0.9-0.2,0.1-0.5,2.9-0.7c1.1-0.1,1.9-0.1,2.4,0c7.8,0.2,15.5,0.2,22.9-0.1
									c1.6-0.2,3.1-0.3,4.4-0.3c5.6-0.4,10.1-0.3,13.3,0.3c-3.1,0-5.7,0.1-8,0.1c-4.1,0.3-4.5,0.4-1.2,0.3
									c11.3,0.1,22.5,0.1,33.8,0.1c1.1,0.2,2.1,0.5,3,0.6c1.2,0.1,5.4,0.1,12.7-0.1c2,0,3.5,0.1,4.4,0.2l1.8,0.1
									c2.4-0.2,5.6-0.2,9.6,0c4.7,0.1,7.8,0.5,9.2,1.1c-2.1,0.3-7,0.4-14.9,0.2c-1.3,0-2.5,0-3.7,0c-11.8-0.2-20-0.3-24.4-0.3
									c-8.7,0-15.1,0.2-19.2,0.6c-1.5,0-2.7,0-3.7,0c-1-0.2-2-0.3-3.1-0.3c-1.1-0.1-1.6-0.1-1.6-0.1c-0.7,0.3-2.6,0.4-5.8,0.4
									c-1.2,0-2,0-2.5,0c-7.6,0.3-15,0.2-22.2-0.3c-8.5-0.1-13.1,0.1-13.7,0.6c-0.4,0.4-3.9,0.6-10.5,0.5l-1.6,0.2
									c1.5,0.4,1.1,0.7-1.3,0.9c-1,0-1.9,0-2.8,0c-8.6,0.3-15.7,0.8-21.3,1.4c-1,0-2,0.1-3,0.1c-1,0-1.8-0.1-2.4,0
									c-2.6,0.1-5.7,0.1-9.3,0.2c-7.1,0.3-13.4,0.3-19-0.1c-2.8-0.1-5.2-0.3-7.3-0.5l-0.2-0.6c-2-0.4-3.2-0.8-3.7-1.4l-0.7-0.1
									c0-0.1,0-0.2,0-0.3c0.9-0.7,0.5-1.3-1.1-1.6c1.4-0.2,1.5-0.4,0.4-0.7l-1.5-0.1c-0.3,0-0.5,0-0.7,0l0.3,0.6
									c-0.8-0.1-1.6-0.2-2.4-0.1c-0.3,0.3-0.4,0.6-0.3,0.9c0.1,0.5,0.7,1,1.8,1.3c0.8,0.4,1.5,0.6,2.2,0.8
									c0.7,0.1,1.2,0.3,1.5,0.6c0.2,0.2,0.5,0.4,0.8,0.5c-0.9-0.2-1.7-0.3-2.5-0.3l0.5,1.5c0.3,0.1,0.6,0.1,0.9,0.1
									c0.2,0.2,0,0.4-0.7,0.5l0.2,0.5c-1.1,0.1-1.9,0-2.4-0.4c-0.9,0.2-1.7,0.3-2.5,0.5l-0.4,0c-0.4-0.1-1.4-0.1-3,0
									c-0.5,0-0.8,0-1,0c-2.7-0.2-5.3-0.5-7.9-0.8c-0.5,0-0.8,0-1,0c-3.1-0.3-5.2-0.2-6.4,0.5l0.6,0c1.3-0.2,2.4-0.1,3.4,0.2
									c0.3,0,0.7,0.1,1.3,0.3c2.3,0.2,5.1,0.3,8.4,0.4c0.5,0,0.8,0,0.9,0c0.6,0,1,0,1.3,0c-0.1,0.4-0.5,0.8-1.1,1.3l0.2,0.3
									c-0.4,0-0.9,0-1.5-0.1c-0.1-0.1-0.2-0.1-0.3-0.1c-0.4-0.1-0.8-0.1-1.3-0.1c-0.4-0.1-0.8-0.1-1.2-0.1c-2.4,0.1-2.7,0.4-1,1
									c0.8,0,1.5,0,2.1-0.1c0.6-0.1,0.9-0.1,1,0c0.3,0,0.6,0,0.9,0c0.3,0.2,0.3,0.5,0,0.8c-0.7,0.8-1.1,1.6-1.3,2.5
									c-0.3,0.9-0.6,1.5-1,1.7c-0.4-0.1-0.6-0.1-0.7-0.1l-0.8-0.4c-2.6,0.1-2.8,0.4-0.7,0.7c1.8,0.4,2.4,1.2,1.7,2.4
									c-1.1,0.5-1.9,1.1-2.5,1.7c-0.1,0.2-0.3,0.3-0.7,0.1c-1,0-2.3,0-3.8,0.1c-0.3,0.1-0.4,0.2-0.4,0.2c1.5,0.8,3.1,1.5,4.8,2
									c0,0.3-0.2,0.5-0.6,0.5c-0.4,0.2-0.6,0.3-0.6,0.2c-1.5-1.3-2.3-1.3-2.2,0.2c0,0.3,0.2,0.4,0.6,0.5c2.5,0.5,2.5,1.2-0.1,2
									c-1.3,0.3-3.2,0.4-5.9,0.4c-0.4-0.1-0.7-0.2-0.9-0.2c-2,0.5-4.4,1-7.4,1.4c-0.5,0.1-0.9,0.1-1.3,0.1
									c-4.3,0.2-5.4,0.6-3.2,1.3c0.4,0.1,0.6,0.1,0.7,0.2c0.4,0.2,0.7,0.3,0.9,0.4c3.2,0.4,4,0.9,2.6,1.6c-2.5,1-2.4,1.8,0.5,2.4
									c-4.3-0.1-5.5,0.1-3.4,0.8l0.5,0.3c-2.2,0.1-2.3,0.3-0.4,0.5c0.5,0.1,0.9,0,1.2,0c0.4-0.1,0.8-0.2,1.3-0.2l1-0.1
									c0.2-0.9,0.8-1.5,2-1.7c0.4-0.1,0.8-0.2,1.3-0.4c1.1-0.4,2.3-0.6,3.5-0.7l0.6-0.1c-1.6,0.5-1.3,0.8,0.8,1.1
									c0.3-0.1,0.6-0.2,0.9-0.1c2.1,0,2.3,0.2,0.6,0.6l-0.7,0.1c1.9,0.2,3,0.1,3.2-0.3c0.2-0.1,0.5-0.2,1-0.2
									c3.6-0.5,4.3-1.1,1.9-1.9c0,0.3-0.1,0.5-0.3,0.6c-1.3,0.7-2.2,0.8-3,0.2c-0.2-0.2-0.6-0.4-1.1-0.5c-0.4-0.1-0.9-0.2-1.6-0.3
									c-0.9-0.2-1.6-0.4-2.1-0.8c-0.7-0.7-1.9-1.1-3.6-1.3c-0.7,0-1.3-0.1-1.9-0.3c-0.4-0.1-0.4-0.2,0-0.3
									c2.7-0.6,4.2-0.4,4.5,0.4c0.9,0.7,1.8,0.6,2.7-0.1c0.2-0.2,0.2-0.4,0.1-0.4c-0.2-0.6,0.3-0.8,1.6-0.7c0.5,0,0.7,0,0.7,0.1
									c-1.5,0.7-1.6,1.3-0.4,1.8c1.8,0.7,3.1,0.8,4,0.3l0.6-0.3c0,0.6,0.7,1,2.1,1.1c0.9,0,1.3,0,1.3,0.1c0.7,0.7,1.9,1.1,3.4,1.2
									c0.7,0.2,1.4,0.3,2.1,0.4c2.9,0.3,2.9,0.8,0.2,1.5c-0.9,0.2-1.7,0.5-2.5,0.8l-0.4,0.2c-0.3-0.7-0.5-1.1-0.5-1.3l0-0.2
									c-1.7,0.8-3.1,0.8-4.3-0.1c-0.8,0.1-1.5,0.2-2.2,0.4l-0.6,0.2l0.6,0.2c-0.6,0.4-2.5,0.5-5.8,0.3c-0.5,0-1,0-1.5,0l-0.6,0.1
									c-1.4-0.5-1.9-0.3-1.6,0.6c-0.4,0.1-0.6,0.1-0.7,0.1c-0.4,0.1-0.3,0.3,0.2,0.5c0.5,0.1,0.9,0.1,1.3,0.3s0.5,0.3,0.2,0.5
									c-0.4,0.1-0.8,0.2-1.2,0.3c-0.8,0.4-1.7,0.8-2.8,1.2c-0.4,0-0.6,0.1-0.6,0.2c0.4,0.6-0.1,0.9-1.6,1
									c-2.6-0.1-4.1,0.2-4.7,0.9c1.5,0,2.5,0.2,3,0.6c0.2,0.2,0.3,0.3,0.3,0.4c-0.3,0.3-0.7,0.6-1.2,0.9c-0.2,0.3-0.5,0.5-0.9,0.6
									l-0.6,0.2c0.4-0.8,0.1-1.2-0.8-1.4l-0.1,0c-1.8-0.8-2.4-0.4-1.7,1.1c0.2,0.3,0.1,0.4-0.3,0.5c-0.9,0.4-1.4,1-1.4,1.6
									c0,0.9-1.5,1.3-4.6,1.3l-0.2-0.4c-1.8,0.3-3.8,0.5-6,0.8c-3.2,0.5-5.5,1.3-6.7,2.4c-1,0.6-1.8,0.8-2.4,0.4
									c-2.7,0.6-3,1.1-0.7,1.7l0.7,0.2c-1.6,0.5-1.3,1,0.9,1.4c0.6,0.5,0.3,0.7-1,0.7c-0.5,0-0.8,0-0.9,0c-2.4,0.5-3.9,0.2-4.8-1
									c-0.2-0.1-0.4-0.2-0.6-0.1c-2.6,0.6-2.7,0.9-0.1,0.8c1,1.3,2.4,1.7,4,1.3c0.8-0.2,1.6-0.3,2.4-0.4c0.5-0.1,0.9-0.1,1.3,0
									c0.4,0,0.6-0.1,0.6-0.1c-0.2-0.6,0.3-0.9,1.5-0.8c0.5,0.1,0.9,0,1.2,0c3.1-0.2,5.2-0.1,6.4,0.1c1.5,0.4,2.1,0.5,1.9,0
									c-0.1-0.1-0.2-0.2-0.2-0.3c1.6-0.7,3-0.5,4.3,0.6c-0.3,0.1-0.7,0.2-1.2,0.3c-0.3,0.1-0.4,0.3-0.3,0.3
									c1.4,0.6,0.9,1.1-1.6,1.3l-0.7,0l0.7,0.2c-1.4,0.4-3.3,0.8-5.7,1.3c-2.5,0.6-4.5,0.4-6.2-0.3c0,0.1-0.1,0.2-0.3,0.3
									c-0.2,0.1-0.2,0.1,0,0.2c0.9,0.5,2.3,0.8,4.2,1c0.5,0.1,0.7,0.2,0.7,0.3c-0.3,0.4-0.7,0.8-1.3,1.2c-0.4-0.1-1-0.1-1.8-0.1
									l-0.6-0.1c-1.8-0.3-2.9-0.3-3.4-0.1l-0.3,0.2c1.5,0,3,0.2,4.6,0.4c0.2-0.1,0.4-0.1,0.7-0.1c-0.3,0.1-0.6,0.2-0.9,0.3
									c-0.3-0.1-0.7-0.1-1.2-0.1l-1.2-0.1c0,0.1,0,0.2-0.1,0.3c-0.1-0.1-0.4-0.2-0.7-0.2c-0.8,0.1-1.5,0.1-2.2,0
									c-1.4,0-2.8-0.1-4.3-0.2l-1,0c0.1,0.8-0.1,1.4-0.5,2c3.2,0,5.2-0.1,6.1-0.5c1.9-0.1,3.8,0,5.8,0.1l0.7,0.1
									c-1.4,0.5-0.8,0.8,1.7,0.9c0.2,0.1,0.4,0.2,0.6,0.3c0.6-0.1,1-0.2,1.3-0.4l0.6,0.2c0.3-0.1,1.3-0.2,3-0.1
									c0.5,0.1,1,0.1,1.5,0.1c0.8,0,1.3,0.1,1.6,0.2c-0.5,0.1-1,0.1-1.5,0.1s-0.9,0-1.2,0c-1.7,0-3.3,0-4.9-0.1
									c-0.8,0-1.4,0-1.9,0.1c-0.4,0.1-0.4,0.2,0,0.2c1.2,0.2,2.3,0.3,3.3,0.5c-0.3,0.1-0.7,0.1-1.2,0.1c-0.4,0.1-0.6,0.1-0.7,0.1
									c0.1,0.3-0.3,0.5-1.2,0.6l0.3-0.1l-0.6-0.1c1-0.3,0.9-0.4-0.3-0.4c-0.9-0.1-1.8-0.2-2.7-0.1c1.6-0.3,1.2-0.4-1.1-0.5
									c-0.4,0-0.8,0-1.2,0c-3.4,0.1-4.8,0.3-4.3,0.5c0.1,0.4,0.9,0.7,2.2,0.9c0.2-0.1,0.4-0.1,0.6-0.1c0.4,0.1,0.6,0.2,0.8,0.4
									c-0.6,0.1-1.4,0.1-2.4,0.1c-0.7,0.1-1.2,0.1-1.6,0c-1.8-0.2-2.8-0.3-3-0.1c-0.1,0.1-0.3,0.3-0.7,0.3c-0.4,0-0.9,0.1-1.5,0.1
									c-1.3,0-2.6,0.1-3.8,0.3c-0.7,0-1.1,0-1.2,0c-1,0.6-0.5,0.8,1.3,0.5l-0.6,0l0.6-0.2c1.9-0.4,3.2-0.4,4,0
									c0.2,0.1,0.3,0.2,0.3,0.3c-0.6,0.2,0.2,0.4,2.2,0.7c1.6,0,2.9-0.1,3.8-0.2c0.6,0.1,0.9,0.1,1,0.1c0.1-0.3,0.8-0.5,2.1-0.4
									l0.7,0c1-0.1,2.4-0.1,4.1-0.1l0.7,0c-1.6,0.2-1.7,0.4-0.3,0.7c-0.7,0.2-2.1,0.2-4.3,0.2l0.8,0.4c1.4-0.1,3.4-0.2,6.2-0.2
									c5.2,0.1,6.1,0.3,2.7,0.4c-0.4,0.1-0.8,0.3-1.2,0.3l-0.6,0.1c2,0,3.7-0.1,5.3-0.3c2.2-0.3,4.2-0.3,6.1-0.1
									c1.3,0.2,3,0.2,5-0.3c-2.6-0.4-2-0.5,1.6-0.4l-0.3,0.1c-0.2,0.2,0.4,0.3,1.6,0.3l0.1,0c0.7,0.4,2.6,0.6,5.6,0.6
									c0,0.1-0.1,0.2-0.3,0.2c-0.2,0.1-0.3,0.2-0.4,0.3c-0.2,0.1-0.5,0.2-0.9,0.2c-0.4,0-0.8,0-1.3-0.1l-0.4-0.1
									c-1.5,0.3-0.9,0.6,1.7,1c0.4,0,0.6-0.1,0.6-0.2c0.7-0.4,1.5-0.5,2.4-0.1c0,0.1,0.1,0.2,0.3,0.1c1.3,0,3-0.1,5-0.2
									c0.9,0,1.5,0,1.8,0.1c1.7,0.2,3.2,0.2,4.6,0.1l1.2,0c-2.6-0.1-2.9-0.2-0.9-0.4c0.4-0.1,0.8-0.1,1.2-0.1c2,0.4,3.4,0.3,4.1,0
									c0.5,0.1,0.7,0.1,0.7,0.2c0.1,0.3,0.9,0.4,2.2,0.3l1.2,0.1c0.7,0.3,1,0.6,0.9,0.7l-0.1,0.1c1.7-0.2,2.7-0.2,3.1-0.1l0.4,0.1
									l1,0.1c-0.6-0.3-0.3-0.4,0.9-0.4l0.6,0c0.1,0.3,1,0.3,2.7,0.2l-0.3,0.2c-1.1,0.4-2.4,0.4-4,0.1c-0.8,0-1.3,0.1-1.6,0.3
									c-0.9,0.1-0.7,0.2,0.4,0.2l0.7-0.1c0.5,0.1,0.5,0.1,0,0.2c-1.4,0.3-2,0.7-1.7,1.3c0,0.1,0.2,0.1,0.4,0.2
									c1.7,0.3,1.9,0.6,0.6,0.9c-1.7,0.3-4,0.3-7.1,0.2c-1.4,0-3.5,0-6.2,0.2c-0.8,0-1.6,0-2.4,0c-0.8,0-1.2,0.1-1.2,0.1
									c-0.3,0.4-1,0.8-2,1c-3.1,0.1-3,0.2,0.2,0.2c0.4,0.1,0.9,0.2,1.5,0.2l1,0c0.1,0.7,0.6,1.1,1.4,1.3c1.9,0.3,3.7,0.3,5.3,0.2
									c1.5,0,1.7-0.3,0.6-0.6l-0.3-0.1c0.8-0.2,2-0.3,3.7-0.5c2.2-0.1,4.6-0.3,7.4-0.5c2-0.1,4-0.2,6.2-0.3
									c4.3-0.1,4.3-0.1-0.2-0.2c-0.4,0.1-0.6,0.1-0.7,0c-0.4-0.1-0.8-0.1-1.2-0.2c-0.5-0.1-1.1-0.1-1.9,0
									c-2.3,0.1-2.7-0.1-1.2-0.4c0.3-0.1,0.4-0.2,0.3-0.2c-0.9-0.2,0-0.4,2.8-0.6c0.5,0.1,0.9,0.1,1.2,0.1c0.4,0,0.8,0,1.2,0
									c0.4,0,0.7,0,1,0.1c3.3-0.2,3-0.4-1.1-0.6c-0.5,0-0.6,0-0.4-0.1c0.7-0.4,0.2-0.6-1.3-0.5c-0.2,0.1-0.4,0-0.7-0.1
									c-2.8,0.2-3.3,0.1-1.6-0.2l0.6-0.2l0-0.2c0.1-0.2,1.4-0.3,4-0.3c0.9,0,1.8,0.1,2.7,0c4.4-0.2,5.7-0.1,3.7,0.4
									c0.4,0.3,1.6,0.3,3.7,0.1c0.5,0,0.8,0,0.9,0c0.9,0.1,1.8,0.2,2.8,0.2l0.3,0.8c-0.8,0-1.3,0-1.6,0c-1.8-0.4-2.8-0.4-3-0.1
									c-0.1,0.1,0.1,0.1,0.6,0.1c1.5,0.2,2.2,0.5,2.1,0.9l0.2,0.2c1.8,0,2.4,0.1,1.8,0.2c-1.1,0.4,0.1,0.6,3.4,0.5
									c2.5-0.1,3.4-0.1,2.8-0.2c0.2,0,0.4,0,0.7,0c8.5-0.2,11.5,0,9.1,0.7l-0.4,0.2c-5-0.3-7.5-0.3-7.4,0.1c-1-0.1-1.9-0.1-2.8,0
									l-1.9,0.1c4.4-0.1,6.6,0,6.4,0.3l0,0.2c1,0,2-0.1,3-0.2c0.9,0,1.6,0,2.2,0c5,0.5,12.9,0.7,24,0.4c-1,0-2,0.1-3.1,0.1
									c-1,0-1.5,0.1-1.5,0.3c0.1,0,0.4,0.1,0.9,0.3c2.6,0.3,3,0.6,1.4,0.8c-1.1,0-1.6,0.1-1.5,0.1c0.5,0.3,4.1,0.5,10.8,0.5
									c9.4,0.1,11.2-0.1,5.5-0.5c-4.2-0.1-7.8-0.3-10.5-0.7c-3.1-0.3-2.6-0.4,1.5-0.1c3.4,0,4.8-0.1,4.3-0.3l0-0.2
									c-2.9-0.1-1.3-0.2,4.6-0.3l1.3,0.1c-2.8,0.2-1.1,0.2,5,0.3l1.3,0c1,0.1,2,0.2,3.1,0.2c2.2,0.1,4.8,0.3,8,0.6
									c0.9-0.2,2-0.2,3.3-0.2c1.8-0.1,3.1-0.2,4-0.2c3.1-0.3,5.3-0.3,6.4,0.1c0.1,0.1,0.3,0.1,0.4,0.2c4,0.6,2.5,1-4.4,1.4
									c0-0.1-0.2-0.1-0.6-0.2c-1.7,0-2.7,0-3.1,0c-0.6,0.1,0,0.2,1.6,0.3c6.5,0.2,10.8,0.2,12.9-0.1l1.5-0.1
									c4.1,0.1,8.2,0.1,12.3-0.1l1.3,0c0.1,0,0.2,0,0.4,0.1c2,0.3,4.5,0.3,7.7,0l1.3,0c-10.5-0.4-10.5-0.7-0.2-0.6l-0.4-0.1
									c-1.5-0.5-0.9-0.6,1.8-0.4c1.1,0,2,0,2.7,0c1.3-0.1,2-0.1,2.2,0c5.3,0.1,5.8,0.3,1.5,0.7l-1.5,0.1c5.1,0.3,5.6,0.5,1.5,0.7
									C46.7-65.1,50-65,59.9-65c3.2,0.2,6.5,0.2,9.9,0.1l2.4-0.1c1.2,0.6,3.4,1,6.6,1.4c1.3,0.1,1.7,0.2,1.3,0.4
									c-1,0.2-0.1,0.5,2.5,0.6c-5.7-0.1-9-0.1-9.9,0l-0.9,0.1l-1.5-0.1c-4.1,0.1-7.2,0.1-9-0.1c-4-0.6-8.1-0.6-12.4,0.1
									c4.3-0.1,5.9,0.1,4.8,0.6c-1.4,0.2,0.2,0.2,4.7,0.1c10.1-0.4,15.2-0.1,15.4,0.8c2.2,0.3,4,0.2,5.5-0.2
									c0.5-0.1,1.3-0.1,2.4-0.2c5.9-0.3,7.4-0.4,4.4-0.1l-1.2,0.1c3.5,0.4,1.9,0.7-4.7,0.9c-1,0-1.6,0.1-1.9,0.2
									c-0.6,0.2-0.7,0.2-0.4,0.2c5.1,0.1,6.5,0.2,4.2,0.4c-0.8,0.2-2.1,0.2-4,0.2c-12.5-0.1-19.5,0.2-20.8,0.8
									c3.7,0,8.6,0.1,14.7,0.3c1.1,0,1.7,0.1,1.9,0c6.2-0.5,11.7-0.5,16.6,0c-1,0-1.5,0-1.6,0c-0.8,0.1-0.6,0.2,0.5,0.3
									c4.5,0.2,7.9,0.5,10.1,0.7c0.7,0.1,0.5,0.2-0.6,0.3c-0.9,0.1-1.5,0.1-1.9,0.2c-0.5,0.1-0.7,0.2-0.7,0.2
									c-0.3,0.5-2.1,0.9-5.6,1.3c-0.5,0-1,0.1-1.6,0.2c3.3,0,5.9,0,8-0.2c2.1-0.1,3.5-0.2,4.4-0.3c0.7-0.2,0.8-0.3,0.4-0.4
									c-2.2-0.6,1.1-1,9.9-1.2c1.6-0.1,3.2-0.2,4.9-0.2c1.5,0,2.3-0.1,2.4-0.2c3.3-0.7,2.1-1.1-3.7-1.2c-8.1,0-8.2-0.1-0.4-0.2
									c3.7-0.1,5.3-0.3,4.6-0.4l-1.8,0.1c-1.9,0.1-3.6,0.1-5,0c-6.2-0.2-8.4,0-6.6,0.7c-4,0-7.4,0-9.9,0c-1.5,0-2.8-0.1-3.9-0.2
									c-1.1,0-1.2-0.1-0.3-0.1c1.1-0.1,2.1-0.2,3.1-0.2c0.9-0.2,1-0.2,0.3-0.2c-5.9-0.2-8-0.5-6.1-1.1c0.3-0.2,0.6-0.3,1-0.3
									c3.9,0,5.8-0.1,5.5-0.3c-0.6-0.4,1.4-0.5,6.1-0.2c7.8-0.2,9.1-0.7,4-1.3l-1.8,0.1c-8.4,0.1-10.4,0-6.1-0.3
									c3.1-0.2,6.2-0.3,9.3-0.2c5.6,0.3,7.9,0.2,6.8-0.2c-0.6-0.3-2-0.5-4.2-0.7c-8.2,0.7-13.7,0.6-16.7-0.3l0.6,0
									c8.2,0.2,13.5,0.1,16-0.3c0.9,0,1.4,0,1.6,0.1c0.9-0.2,1.5-0.3,1.8-0.3c4-0.1,5.6-0.2,4.6-0.4l-0.7-0.1
									c3.8-0.3,8.4-0.2,13.8,0.1l1.5,0.1c-0.4-0.3,0.2-0.4,1.9-0.4c0.7-0.1,1.5-0.1,2.5-0.1c0.9,0,1.3-0.1,1.3-0.1
									c0-0.1-0.2-0.2-0.5-0.3c-0.7,0-0.6-0.1,0.1-0.1c1.3-0.1,2.9-0.2,4.9-0.1c1.1,0,2,0,2.7,0c5.8,0.1,9.3,0.1,10.4-0.1
									c0.5,0,0.9-0.1,1.3-0.1c4,0.1,7.4,0.3,10.4,0.5c2.6,0.3,6,0.5,10.2,0.8c7.9,0.5,12.2,0.4,12.9-0.2l0-0.2
									c1.1,0.2,1.9,0.3,2.4,0.2l5.5,0c-4.8-0.3-6.4-0.6-4.6-0.7c3.9-0.3,7.5-0.4,10.7-0.2l1.5,0.2l-1.8,0.1
									c1.7,0.2,4.8,0.4,9.5,0.6c6.4,0,6.2,0.1-0.7,0.3c-1.4,0.1-2.8,0.2-4.3,0.2c-3.4,0.1-7.6,0.2-12.9,0.3c-2,0-3.5,0-4.4,0.1
									c-4.2,0.3-7.9,0.3-11,0c2.9-0.2,1.5-0.4-4.2-0.6c-1.6,0-2.9-0.1-3.9-0.1l-1.5-0.1c-3.5,0-3.3,0.3,0.5,0.7
									c-9.3-0.1-14.2-0.3-14.8-0.5c-0.7-0.3-1.5-0.5-2.5-0.6l-0.3-0.1c5.1,0.3,7.7,0.3,7.7,0c-2.8-0.2-7.8-0.2-15.1-0.1
									c-1.2,0-1.7,0-1.5,0c0.9,0.2,2,0.3,3.3,0.4l0.7,0.1c-3.9,0.1-5.3,0.2-4,0.3c2.1,0.3,2.8,0.7,2.3,1.3c3.1,0,6-0.1,8.7-0.2
									c1.3,0,2.3,0,3.1,0c7,0.1,8.2,0.2,3.7,0.4l-1.6,0.2c1,0,2.1,0,3.3,0.2l1.5,0.1c-6.7-0.1-7.6,0-2.8,0.3
									c2,0.1,4.2,0.3,6.7,0.3c6.2,0.2,9.8,0.1,10.8-0.2c0.5,0,1.2-0.1,2.2-0.2c1,0,2.1,0,3.3,0c2,0.1,4.4,0,7.4-0.3
									c-0.4,0.4,2.8,0.5,9.5,0.5c5.4,0,7.9-0.2,7.4-0.5l-0.2-0.2c8.6,0,12.1-0.3,10.5-0.8c0.6-0.2,2.3-0.2,5,0
									c3.3,0.4,6.8,0.5,10.7,0.3c0.9-0.1,1.4-0.2,1.5-0.3c0.3-0.4,2.6-0.5,7.1-0.5l1.8,0.1c4.9-0.4,11.5-0.5,19.7-0.2
									c1.1,0.1,1.9,0.2,2.4,0.1c6.2-0.2,10.6-0.2,13.2-0.1c1.1,0,2,0,2.8,0c4.3-0.1,6.1,0,5.3,0.3c-0.4,0-0.5,0.1-0.4,0.2
									c1.5,0.4,4.1,0.5,7.7,0.1c0.9,0,1.3,0,1.3,0c-0.7-0.7,0.7-1.1,4.1-1.3l1.6,0c-5.8-0.1-7-0.2-3.4-0.4l0.3,0
									c2.2-0.3,1.6-0.4-1.8-0.4c-6.7,0-7.7,0.1-3.1,0.2c-2,0.1-5.1,0.2-9.3,0.3l-2.7,0c0-0.3,2.4-0.6,7.2-0.7l0.3,0
									c2.5-0.5,0.7-0.7-5.3-0.7c-1.3-0.2-0.4-0.3,2.8-0.3c2.2,0,3.3,0,3.4-0.1c2.3-0.5,5.8-0.6,10.5-0.3l1.8-0.1
									c1.8-0.1,2.7-0.1,2.8-0.1c2.3-0.6,0.1-0.8-6.5-0.4c-4.4-0.3-3.5-0.4,2.9-0.4c1.2,0,2.3,0,3.3,0c8.4-0.2,13-0.1,13.9,0.3
									c0,0.1,0,0.2-0.1,0.2c-0.3,0.4,0.4,0.7,2.1,1c-0.9,0-1.2,0.1-1,0.1c2.3,0.3,3.4,0.3,3.3,0c-0.1-0.3,3.2-0.4,9.9-0.1l1.8,0.1
									c2.6-0.1,6.1-0.2,10.7-0.2l3-0.1c1.5,0,4.1,0,8,0.1c0.1-0.4-1.6-0.6-5.1-0.6c-2.1,0-3.2,0-3.3-0.1c-0.1-0.1-0.2-0.1-0.3-0.1
									l55.3,1.2c-2,0.2-3.6,0.3-5,0.4c1.4,0.1,2.6,0.1,3.7,0.1c-0.2,0.1-0.3,0.2-0.3,0.3c1.1-0.1,2.3-0.1,3.5-0.1
									c1.7-0.1,2.7-0.2,3.1-0.3c1.9-0.1,2.3-0.2,1.2-0.3l-130.3,4.9c-0.2,0.1-0.4,0.1-0.6,0.2c2.7,0.5,7,0.9,12.9,1.1
									c3.2,0,6.2,0.2,9,0.4c0.4,0,0.9-0.1,1.6-0.2c2.9-0.2,5.5-0.4,8-0.5c0.9,0,1.4-0.1,1.6-0.3l1.3,0.1c0.4-0.1,0.6-0.2,0.6-0.2
									c0.2-0.4-0.4-0.7-1.7-0.8c-0.1-0.1-0.3-0.1-0.4-0.2c-1.2-0.3-2.8-0.5-4.8-0.6c1.7-0.3,4.6-0.4,8.9-0.3
									c0.1,0.3,0.4,0.4,0.9,0.4c1.5,0.2,1.8,0,0.9-0.4c-2.6-1-2.3-1.8,1-2.5c1.9-0.3,1.8-0.5-0.3-0.5c-2.3-0.1-4.2-0.2-5.9-0.3
									c-0.2,0-0.4,0-0.7-0.1c-1.4,0-2.7-0.1-3.9-0.1c1.2-0.1,2.5-0.2,3.8-0.3l-8-0.3c-1.4,0-2.6-0.2-3.7-0.4
									c-0.7,0-0.9-0.1-0.7-0.2c0.4-0.2,1.1-0.3,2.2-0.3c2.3,0.1,4.3,0.3,6.1,0.6c4.5,0.6,8.5,0.5,12.1-0.3c1.3,0.4,3,0.6,5.2,0.7
									c0.8,0,1.2,0,1.2,0.1c0.1,0.1,0.2,0.3,0.3,0.4c0,0.1,0.1,0.3,0.2,0.5c0.2,0.2,0.4,0.4,0.8,0.5c0.4-0.1,0.7-0.1,1-0.2
									c0.1-0.1,0.1-0.2,0.1-0.4c0.2,0,0.4,0,0.6,0c0.4-0.2,1.5-0.3,3.4-0.4c2.3-0.2,4.4-0.3,6.4-0.2c1.1-0.2,2.1-0.4,2.9-0.7
									c-3.5-0.1-2.8-0.4,1.9-0.8c0.6,0,1.2-0.1,1.8-0.1l2.3-1.1l17.5,0.1c2.6,1.7,5.8,2.3,9.7,1.8c0.6-0.2,1.2-0.4,1.9-0.8
									c0-0.2,0-0.4,0-0.6c-0.1-0.5-0.2-0.9-0.5-1.3c-0.9,0-2.4,0-4.3,0.1c0-0.3-1-0.4-3-0.2c-3.8,0.6-6,0.4-6.4-0.5l0-0.3
									c-2.9,0.2-5.7,0.2-8.6-0.2c-2.2-0.3-2.4-0.5-0.6-0.6c0.7-0.2,1.1-0.2,1.3,0c1,0,2,0.1,3,0.1c1.5,0.1,3.1,0.2,4.7,0.3
									c8.2,0.1,13.8-0.1,16.7-0.6l1,0.1c4.4,0.5,7.3,0.3,8.7-0.6c1.8-0.3,4.6-0.4,8.4-0.4c6.5,0.2,12.5,0,17.9-0.6
									c0.9,0.1,1.9,0.1,3,0.1l0.1,0l-9.7-1.1c-0.6-1.3-1.7-2.4-3.1-3.3c-0.1-0.1-0.3-0.1-0.4-0.2c-0.8,0.1-1.6,0.2-2.5,0.3l-2-1.3
									c1.8,0,3.3,0.3,4.5,1c6.4-0.7,13-1.3,19.9-1.7c-2.4-0.2-4.8-0.4-7.1-0.6c-2.9,0.4-6.9,0.5-12.3,0.5
									c-5.9,0-10.7,0.1-14.3,0.5l-1.3,0c0.8-0.4-0.6-0.7-4-0.8c-3.2,0.4-6.3,0.7-9.1,1.1l-0.9,0.2c0.3-0.3,0.3-0.5,0-0.7
									c2.2,0.1,4.2-0.1,6.1-0.4c-0.1-0.1-0.3-0.2-0.4-0.2c-1-0.2-1.8-0.4-2.4-0.3l-0.6-0.2c7.4-0.4,14.9-0.8,22.5-1.1
									c3.9,0,7.1,0,9.3,0.2c4.5,0.6,7.3,0.4,8.4-0.5c-5.4-0.3-12-0.3-19.7,0c-6.7,0.1-12.6,0-17.6-0.5l-1.2-0.1
									c-1.4,0.5-3.9,0.7-7.7,0.5c-1.2,0.1-2.4,0.1-3.5,0.1c-8.5,0.3-13.9-0.1-16.2-1.2c-1.2,0.1-2,0.2-2.4,0.4
									c-2,0.8-4,0.9-5.8,0.2c-0.5-0.2-0.5-0.4,0.1-0.5c1-0.2,2.4-0.6,4.1-1c-0.7-0.1-1.3-0.1-1.9,0c-0.6,0-1.2,0-1.8-0.1
									c-2,0.1-2.3-0.2-1.1-0.7l0.6-0.2c7.1-0.6,12.8-1.5,17.2-2.9c6-0.3,9.9-0.2,11.7,0.5c3,1.2,5.1,1,6.2-0.5
									c-2.4,0.1-3.6,0-3.7-0.3l0-0.5c-3.4,0.2-7,0.1-10.7-0.2l-1-0.1c0.1,0.7-1.8,0.8-5.9,0.5c-2.7-0.2-5.6-0.1-8.9,0.4
									c-3.8,0.6-7.3,1.3-10.3,2.1c-3.1,0.6-6.6,0.8-10.3,0.5c-0.6-0.1-1-0.1-1.2-0.1c-0.6-0.1-1.1-0.2-1.6-0.4
									c-3.2-0.5-4.6-1.2-4.4-2.2c0.1-0.1,0.3-0.2,0.6-0.2c4.3,0.3,6.1,0.1,5.6-0.7c-0.1-0.1-0.1-0.2,0.1-0.2
									c1-0.2,1.5-0.3,1.6-0.4c0.4-0.2,0.2-0.4-0.6-0.4c-4.6-0.3-4-0.4,1.9-0.5c0.7-0.1,1-0.1,1,0.1c0,1.1,2.2,1.3,6.4,0.7
									c-0.2-0.7-0.6-1.3-1.2-1.9l-0.3-0.3c3.3-0.2,3.7-0.5,1-0.7c-0.7-0.1-1.2-0.2-1.5-0.3c-0.5-0.3-1.1-0.5-1.6-0.6
									c-2.4-0.5-2.8-0.9-1.4-1.1c0.7-0.1,1-0.2,1-0.3c-0.2-1,1-1.8,3.8-2.2c-2.1-0.4-2-1,0.2-1.9c1.6-0.7,4.9-1,9.9-1l0.9-0.1
									c-2.4-0.3-2.8-0.6-1.2-0.8c5.1,0.1,7.2,0.3,6.2,0.7c-0.5,0.2-0.6,0.3-0.4,0.3c2.1,0,3.7,0.1,4.7,0.3c-2.4-0.6-2.5-1.3-0.2-2
									c4.7-0.3,4.2-0.6-1.6-0.7l-1,0c-0.6,0.3-1.1,0.6-1.6,0.9l-0.9-0.1c-7.1-0.1-8.3-0.3-3.7-0.8c0.5-0.3,1.2-0.6,2-0.8
									c0.9-0.1,1.8-0.2,2.7-0.3c3.8-0.5,6.9-0.5,9.2-0.1c0.6,0.1,1.2,0.2,1.9,0.3c0.5-0.1,0.8-0.1,1-0.1c2.1,0.4,5.3,0.4,9.8,0.2
									c0.5,0,1.2,0,2.1,0c3.4,0.2,6.8,0.2,10.4,0.2c2.9,0,5.7-0.1,8.6-0.4c8.2-0.5,13.7-0.3,16.5,0.7c-2.8,0.4-2.2,0.4,1.8,0.2
									c0.6,0.1,1.2,0,1.9-0.3c1.5-0.3,3.8-0.4,7.1-0.3c1.1,0,1.9,0,2.4-0.1l0.9-0.2c5.4-0.1,8.3-0.6,8.5-1.5l-0.1,0
									c-1.8,0.1-3.5,0.1-5,0l-1,0c-2,0.5-3.8,0.6-5.5,0.2l-0.7-0.2c-4.9,0.1-7.7-0.2-8.2-1.1c-0.2-0.2-0.6-0.3-1.2-0.3
									c-4.9-0.1-6.1,0-3.4,0.3c3.9,0.4,3.9,0.7,0.2,1c-1.7,0.2-3.4,0.4-5.2,0.6c-6.2,0.4-11.6,0.5-16.1,0.2
									c-4.5-0.3-9.2-0.5-14.1-0.7c-1.3,0-2.5,0-3.7,0.1c-4,0.1-5.5-0.2-4.5-0.9c0.8-0.5-0.8-0.5-4.7-0.1c-0.5,0.2-1,0.3-1.6,0.4
									c-0.6-0.1-1.3-0.1-2.1-0.1c-4.4-0.3-7.9-0.9-10.4-1.8c-0.3-0.1-0.7-0.3-1.3-0.6c-0.6-0.3-1.3-0.6-2-0.9l0.6,0
									c3.1,0.1,6.4,0.1,10.1,0c0.8,0.4,1.6,0.4,2.4-0.1l0.4,0c-1.8-0.2-3.6-0.4-5.3-0.5c-0.8-0.1-1.6-0.2-2.5-0.3
									c-5.6-0.5-4.1-0.6,4.7-0.3c0.2,0.1,0.4,0.1,0.6,0.1c0.7,0.1,1.2,0.2,1.6,0.2c-0.2,0.1-0.3,0.1-0.4,0.1l-0.1,0.3
									c2.6,0.3,3,0.8,1.2,1.3c2.7-0.1,4.2-0.5,4.7-1c0.2-0.2,0-0.4-0.6-0.7c-2.4-0.7-4-0.8-4.7-0.3c-0.1-0.1-0.3-0.1-0.7-0.1
									c-4.5-0.2-3.9-0.3,1.9-0.4c0.7,0,1.4,0,2.1,0.1c5.4,0,6.7,0.1,3.7,0.5c-3-0.3-3.5-0.3-1.6-0.1c0.4,0.1,0.7,0.3,1,0.4
									l0.7,0.2c6.2-0.2,12.7-0.1,19.5,0.1c4.1,0.2,5.3,0.4,3.7,0.6c4.4-0.1,6.8,0.2,7.3,0.7c0.7-0.1,1-0.2,1-0.2
									c0.3-0.4,1.5-0.4,3.7-0.1c2.1,0.1,4.5,0.3,7.4,0.4c1.5,0.1,3,0.2,4.4,0.2c0.8,0,1.5,0,2.1,0l-1.5-1c-0.8,0-1.3-0.1-1.6-0.2
									l-0.6,0c-1.2,0-2.8-0.1-4.9-0.4c-0.4-0.1-0.7-0.3-1.1-0.5l-0.7-0.2c-3.4,0.2-6.4,0.2-8.9-0.3c-0.5,0-1,0-1.5,0l-1.2-0.1
									c-0.2,0.7-1.8,0.8-4.9,0.4c-0.9,0-1.9-0.1-3.1-0.1c-0.6,0-1,0-1.2,0c-3.7-0.3-8-0.5-12.9-0.6c-0.7,0-1.4-0.1-2.1,0
									c-3.6,0-5.3-0.2-5.2-0.4c0-0.1,0.5-0.3,1.5-0.4c5.9,0,6.5-0.2,1.8-0.4l-1,0c-1.7,0.3-3.3,0.2-4.7-0.2
									c-0.4-0.1-1-0.1-1.8-0.1c-7-0.2-12.8-0.5-17.5-0.8c-0.7,0-1.3-0.1-1.9-0.3l-1-0.2c2.2,0.1,4.6,0,7.3-0.1L338-113.6
									 M361.5-78.8c-5-0.6-4.8-1,0.6-1.3c1.2,0.4,3,0.4,5.3-0.2l1-0.1c0,0.2,0.1,0.3,0.3,0.4l-0.6-0.2
									C369.1-79.6,366.9-79.1,361.5-78.8 M356.4-80.9c0.5,0,1,0,1.5,0.1c-0.7,0-1.4,0-2.2,0.1C355.9-80.9,356.1-80.9,356.4-80.9
									 M371-79.7c-0.6-0.1-1.2-0.2-1.8-0.2L369-80c0.4,0.1,1,0.1,1.8-0.1c0.2,0,0.4,0,0.6,0l0,0.1L371-79.7 M286-63l-0.1,0
									c-0.3,0-0.5,0-0.7,0l-0.5-1.5c0.4,0.1,0.7,0.1,1,0.1c0.5,0,1,0,1.6,0c3,0.3,5.5,0.6,7.6,0.9c-1.5,0-3,0.1-4.6,0
									C287.7-63.5,286.2-63.3,286-63 M-156.8-79.6c0.3,0,0.6-0.1,0.9-0.2l0.7,0c0.4,0.1,0.8,0.2,1.2,0.2
									C-154.9-79.7-155.8-79.7-156.8-79.6 M342.3-117.3c0.5-0.1,0.4-0.2-0.2-0.3c-0.6-0.1-1.3-0.1-2.2-0.2c-3.5-0.4-4.1-0.1-2,0.9
									C340.1-117,341.6-117.1,342.3-117.3 M334.1-134c4.9,0,6-0.2,3.2-0.7C335-135,333.9-134.8,334.1-134 M350.5-129.6
									c0.6,0.1,1.2,0.1,1.9,0.1c0.5,0.1,1,0.2,1.5,0.3c0.7,0,1.6,0,2.7,0c3.4,0.1,5.4,0.1,6.2,0c1.3-0.5,2.9-0.4,4.7,0.2
									c-0.8-0.4-0.2-0.6,1.8-0.7l1.8,0.2c-0.7-0.1-1.9-0.3-3.7-0.5c-0.9-0.7-3.4-1-7.4-1c-3.4-0.2-5.3-0.2-5.8,0
									c-0.4,0.1-0.9,0.2-1.6,0.3c-2.9,0-5.7,0.1-8.4,0.1c-2.9,0.2-5.8,0.1-8.9,0c0.8-0.4,1.2-0.8,1.1-1.3c0.2-0.1,0-0.2-0.6-0.3
									c-3.2-0.3-5.7-0.6-7.6-1.1c-3.4-0.9-8.6-1.5-15.6-1.8c-7.1-0.3-13.2-0.9-18.3-1.6c-0.6-0.2-1.1-0.3-1.5-0.3
									c-3.4,0.2-5.2,0.2-5.6,0.1c-0.7-0.2-1.4-0.3-2.1-0.4c-1.1,0-2,0-2.8,0.1c-1.6,0.1-3.5,0.2-5.9,0.2c-2.4,0-4.7,0-7.1,0
									c-4.1-0.1,140.7-4.8,138.9-5.2c-1.4-0.2-3.2-0.3-5.5-0.2c-0.6-0.1-0.9,0-0.9,0c0.4,0.4-0.4,0.6-2.4,0.6
									c-4.8-0.1-9.6-0.2-14.4-0.3c-3,0-4.6,0-4.9,0.2c-2.8-0.1-5.4-0.3-7.9-0.4c-2.6,0-5-0.1-7.4-0.2l-1.9-0.3l-0.3,0
									c-0.8,0-1.6-0.1-2.4-0.1l0.2,0.3c-4.6-0.1-8.7-0.1-12.1,0.3c3,0,5.7,0.1,8.3,0.2c1.8,0.1,3.5,0.1,5,0.2
									c5.4,0.2,10.5,0.4,15.3,0.6c1.6,0,3.2,0,4.7,0.2c5.8,0.2,12,0.4,18.4,0.6c-0.4,0.1-1.1,0.3-2.1,0.6
									c-1.8,0.1-3.6,0.2-5.5,0.2c-5.4,0.3-9.5,0.3-12.3,0.1c-2.5-0.3-5.9-0.4-10.4-0.4c-3-0.1-5.8-0.2-8.6-0.2l0.3,1.2
									c1.1,0,2.1,0.1,3.1,0.1c4.1,0.2,8.8,0.4,14.4,0.4c2.3-0.1,4.6-0.2,7-0.2c1.2,0,2.2-0.1,3-0.2c4.7-0.6,10.5-1,17.4-1.3
									c0.6,0.1,1.2,0.2,1.8,0.3l0-0.2c0.7,0-146.5,4.4-145.7,4.4c2.5-0.3,3.7-0.2,3.7,0.3c-0.1,0.1,0.2,0.2,0.9,0.3
									c3.5,0.5,6.1,0.4,7.8-0.2c9.2-0.3,15.3-0.1,18.4,0.5c0.5,0.2,1,0.3,1.6,0.3c7.2,0.2,12,0.7,14.4,1.6c0.5,0,1-0.1,1.5-0.1
									c1.6-0.2,4-0.1,7.4,0.4c1.4,0.2,2.9,0.3,4.5,0.5c0.9,0.1,1.6,0.2,2.2,0.3c0.6,0.1,1.2,0.2,1.8,0.2c3.4,0.3,4.5,0.9,3.3,1.9
									c-1.2,0-2.4,0-3.7,0c-4.8,0-6,0.1-3.4,0.2c1.3,0.1,2.3,0.2,3,0.3c0.5,0.2,1,0.3,1.5,0.4c1.7,0.4,3.1,0.9,4.3,1.4
									c0.7,0.3,1.6,0.4,2.8,0.5c8.8,1.2,16.9,2.5,24.1,3.9c-3.9,0.2-5.1,0.4-3.5,0.5c2.5,0.3,4.4,0.2,5.6-0.3
									c0.4-0.1,0.7-0.1,0.9-0.1c1.7,0.2,2.8,0.4,3.3,0.6l0.4,0.1c4.2-0.3,6.3-0.1,6.2,0.7c0.5-0.2,1.1-0.2,1.8-0.3
									c2.9-0.3,3.4-0.5,1.8-0.7c-4.7-0.3-9-0.7-12.8-1.2c-5.4-0.7-11-1.4-16.9-2.1c-0.2-0.3-0.9-0.6-1.9-0.8l-0.7-0.2
									c1.9-0.2,1.5-0.3-1-0.4c-1.2,0-2.1-0.1-2.7-0.2c-0.1,0-0.1-0.1-0.2-0.2c0.2-0.4-0.8-0.6-3-0.6c-2.4-0.4-1.9-0.7,1.3-0.9
									c1.9-0.1,3.7-0.3,5.5-0.5C346.3-129.9,348.9-129.8,350.5-129.6 M351.9-139c-0.5,0.6-0.9,1.2-1.1,1.9
									c4.6-0.3,6.5-0.7,5.6-1.1c-0.5-0.3-1.1-0.7-1.8-1c-1.2-0.4-2.3-0.6-3.4-0.4c-2.8,0.6-3.1,0.9-0.9,0.6L351.9-139 M350-136.3
									l-0.9,0c-4,0.4-3.9,0.8,0.3,1.1C351.5-135.5,351.7-135.9,350-136.3 M341.6-147c-3.4-0.5-5.3-0.3-5.9,0.4c2.2,0,3.8,0,5-0.2
									L341.6-147 M334.5-143.7c0.7,0,1.1,0.1,1.2,0.1l0.4-0.2c2.8,0.2,4.6,0.2,5.6-0.1c0.4,0,0.6,0,0.7,0.1
									c2.9,0.3,5.5,0.1,7.8-0.3c-0.6,0-1.1,0-1.6-0.1c-8.6-0.2-14.7-0.8-18.4-1.8c2.2,0.8,1.8,1.2-1.3,1.2c-3.4,0-6.4,0.1-9.2,0.2
									l-1.5,0.1c0.3,0.3,2.1,0.4,5.5,0.4C330-144.3,333.5-144.2,334.5-143.7 M366.3-140.7c0.1-0.1,0.1-0.1,0-0.1
									c-1.7-0.4-4-0.5-6.8-0.3c-0.8,0.2-1.4,0.2-1.8,0.2c-3.8-0.6-7.1-0.7-9.9-0.1c-1.8,0.3-1.1,0.7,2.1,1.2
									c1.6-0.5,3.8-0.5,6.7-0.1c1.4,0.1,3.3-0.1,5.6-0.5C364.8-140.4,366.1-140.5,366.3-140.7 M404.5-116.6l1.3-0.5l0-0.2
									C403.7-117.2,403.3-117,404.5-116.6 M393.9-113.3c1.3-0.5,1.2-0.7-0.3-0.6c-3.8,0-6.1,0-7.1,0c-6.5,0.3-7.5,0.8-2.9,1.4
									c2-0.1,2.9-0.3,2.6-0.6c-0.1-0.2,0.2-0.3,1-0.2c0.8-0.2,1.4-0.2,1.8-0.2C391.1-113.1,392.8-113,393.9-113.3 M395.3-112.3
									c0.5-0.2,0.5-0.2,0-0.2c-0.8,0-1.7-0.1-2.8,0c-3.1,0.2-3.6,0.5-1.6,0.8C393.1-111.8,394.6-112,395.3-112.3 M406.2-118.6
									l0.3-0.7c-3.5-0.3-5.2,0-5.1,1.1C403.3-118.3,404.9-118.4,406.2-118.6 M407.1-120L407.1-120l1-0.5
									C407.3-120.5,407-120.3,407.1-120 M395.2-125.8l0.9,0c1.4,0.3,2.3,0.2,2.8-0.2c0.6-0.4-0.7-0.6-3.9-0.5
									c-0.7,0-1.3-0.1-1.9-0.1c-1.7,0-3.3-0.1-4.9-0.2c-1.5-0.1-3.4-0.1-5.6,0c-6.2,0.3-9.8,0.1-10.7-0.5c-3.9,0.2-4.6,0.4-2,0.8
									c0.8,0.1,3.3,0.1,7.5,0c3.1-0.2,5.2,0,6.5,0.4c0.4,0.1,1.2,0.1,2.4,0.1c3.2,0,4.4,0.1,3.7,0.5
									C391.2-125.7,392.9-125.8,395.2-125.8 M392.7-135.8l1.2,0c-0.2-0.1-0.6-0.2-1.2-0.4C392.7-136.1,392.7-136,392.7-135.8
									 M398-134.4c0.3-0.1,0.6-0.2,0.9-0.3c-1,0.1-1.6,0.2-1.9,0.3c-0.3,0.1-0.3,0.2-0.1,0.3C397.3-134.2,397.7-134.3,398-134.4
									 M403-135.9c-0.7,0-1.5,0-2.4,0.1c-0.4,0-0.9,0-1.5,0c-4.4,0.2-4.8,0.3-1.2,0.3c0.4,0,0.9,0.1,1.3,0.1
									c0.5,0,0.9,0.1,1.3,0.1C401.5-135.6,402.3-135.7,403-135.9 M393.5-143l-1-0.1c-1.8,0.3-5,0.5-9.8,0.4
									c-7.1-0.1-7.9,0.2-2.3,0.9c3.1,0.4,4.8,1,5.1,1.8l0.9,0C387.9-141.1,390.3-142.1,393.5-143 M465.5-61.3l-9.5,0l8,0.7
									C464.7-60.9,465.1-61.1,465.5-61.3 M514.6-50.1c-0.7,0-1.2-0.1-1.5-0.1c-2.8,0.1-2.9,0.3-0.3,0.6
									C519.7-49.7,520.3-49.8,514.6-50.1 M457.6-97l1.8-0.1c-3.4-1.3-5.8-1.3-7.1,0.2C454.2-97,456-97,457.6-97 M491.1-97.7
									L492-98c-6-0.2-9.9,0.1-11.5,0.9C485.5-97.1,489-97.2,491.1-97.7 M487.1-102c0.3,0.2,0.7,0.4,1.4,0.7
									c0.6-0.2,1.2-0.3,1.8-0.4c1.2-0.1,1.9-0.2,2.1-0.4c0.1,0,0.2-0.1,0.3-0.1C490.7-102.2,488.9-102.2,487.1-102 M490.5-166.6
									c2.4-0.1,4.1-0.3,5.3-0.5l0.6-0.1C491.7-167.7,489.8-167.5,490.5-166.6 M358.7-162.5c8.9,0,14.3-0.4,16.2-1.2l0.1-0.1
									C366.5-163.9,361.1-163.4,358.7-162.5 M269.7-163.6c-2.5-0.1-3.7,0-3.7,0.3c0.2,0.2,0.8,0.4,1.6,0.7c1.2,0.2,2.4,0.6,3.7,1
									c1.9,0.6,4.2,1.3,6.9,2l0.9,0c-0.9-0.6-2.6-1.1-5.1-1.6c-0.1-0.6,0-1.1,0.2-1.6c0-0.1-0.1-0.1-0.2-0.2
									C273.1-163.7,271.6-163.9,269.7-163.6 M335.8-172c4.5,0,7-0.2,7.5-0.7l0-0.1C338.1-173.2,335.5-173,335.8-172 M218.5-164.7
									c2.1-0.1,3.6-0.2,4.7-0.3c3.6-0.4,6.6-0.8,8.8-1.3c1.8-0.4,3.1-0.8,4.1-1.3c1.7-0.6,1.6-0.9-0.3-1c3.7-0.4,3.6-0.6-0.5-0.5
									c-0.9,0-1.6-0.1-2.1-0.1c-8.1-0.3-12.4-0.2-13,0.4c1.1,0.2,2.1,0.2,3.1,0.1c1,0,2.1,0,3.4,0c5.1-0.2,6.8,0,5,0.4
									C226.6-167.2,222.2-165.9,218.5-164.7 M201.1-161.7c-6.4,0.1-9.4,0.5-9,1.4c5-0.3,7.9-0.7,8.6-1.2L201.1-161.7 M174.1-177
									c-0.7,0.1-0.9,0.2-0.6,0.2c1.3,0.4,0.8,0.8-1.6,1c7.2-0.1,10.6-0.5,10.3-1.3l-0.3,0C179.4-177.5,176.8-177.4,174.1-177
									 M141.7-155.6c-0.1,0.1,0.1,0.2,0.4,0.2c5.1,0.7,8.2,1.5,9.4,2.4c4.6,0.3,8.7,0.6,12.2,0.9c1.5,0.2,2.7,0.4,3.7,0.6
									c1,0,1.8-0.1,2.4-0.1c2.5,0.1,4.9,0.1,7.4,0.2c1.7,0.2,3.4,0.2,5.2,0.2c3.4,0.2,6.7,0.3,10.1,0.4c3.4,0.2,5.4,0.4,6.1,0.7
									c5.8,0,6.8-0.3,2.8-0.7l-1.5-0.2c5-0.2,7.9-0.6,8.5-1.3c0.1-0.1,0.1-0.2,0-0.3c0-0.2-0.8-0.3-2.5-0.3
									c-7.3-0.3-9-0.5-5.2-0.8c-4.2-0.4-4.6-0.7-1.4-0.9c4.4-0.3,5.1-0.5,2.1-0.7c-1-0.2-1.9-0.3-2.8-0.4c-1.1,0-1.7,0-1.8-0.1
									c-1.1-0.7-3.3-1.3-6.7-1.7c-1-0.1-1.6-0.2-1.8-0.2c-1,0-1.9-0.2-2.7-0.3c-3.3,0-5.8-0.1-7.6-0.3c-4.7-0.5-8.9-0.6-12.7-0.2
									c-3.3-0.2-6.2-0.2-8.9,0.1c-2.2,0.2-3.6,0.5-4.4,0.8c-0.2,0-0.4,0-0.6,0.1c-0.8,0.3-2.1,0.5-3.8,0.7
									C145.6-156.4,143.6-156,141.7-155.6 M112.9-168.7c-3.1,0.6-2.1,1.1,3,1.5c1.5,0.2,2.4,0.4,2.7,0.6c1.5,0.9,1.2,1.8-1,2.6
									c7.8-0.1,11.2-0.4,10.2-1c0-0.1,0-0.1,0.1-0.2c-0.7-0.8,0.5-1.5,3.6-2c-1-0.1-1.7-0.2-2.1-0.1c-4.8,0.2-7.5,0.1-8-0.4
									C120.4-168.7,117.6-169,112.9-168.7 M102.1-155.9l-1.9,0c1,0.7-0.9,1.1-5.6,1.4l1,0.1c3,0.5,5.3,0.9,7,1.3
									c2.1,0,3.6,0,4.4-0.1c1.1-0.1,2-0.2,2.7-0.4c1.2-0.2,2-0.5,2.5-0.8C113.7-155.2,110.4-155.7,102.1-155.9 M14.8-153.5
									l-1.5-0.4c-4.4,0.3-4.6,0.8-0.6,1.3c3.4,0.4,2.8,0.8-1.6,1.4c1,0,1.9,0,2.7,0c1.3-0.1,2.4-0.2,3.4-0.2
									c4.3,0.1,6.2,0,5.5-0.4C20.7-152.5,18.1-153,14.8-153.5 M-25.9-161.4c4.7-0.3,4.6-0.6-0.3-0.9c-1.1-0.1-1.7-0.2-1.8-0.3
									C-31.9-162.2-31.2-161.8-25.9-161.4 M-65.8-171.3c4.1-0.3,3.9-0.6-0.6-1c-0.9,0-1.4,0-1.5,0
									C-71.8-172-71.1-171.7-65.8-171.3 M-74.2-149.7c5.6,0,10.4-0.1,14.2-0.3c5-0.3,6.2-0.5,3.4-0.5c-1.8,0-3.1,0-3.8,0
									C-64-150.1-68.6-149.9-74.2-149.7z"/>
							</g>
						</g>
					</g>
				</g>
				<g id="iconn_7_" transform="matrix( 0.221527099609375, 0, 0, 0.221527099609375, 23,21.8) ">
				</g>
			</g>
		</g>
	</g>
	<g>
		<path class="st1" d="M457.4,85.1h-6.6l-0.1-0.2c-0.1-0.2-0.1-0.4-0.1-0.5c-0.1-2.5-0.3-5-0.4-7.5l-0.1-2c0.2-0.1,0.5-0.2,0.7-0.3
			c0.5-0.2,1-0.4,1.4-0.5c1.1-0.4,1.6-1.2,1.6-2.6l0-0.2H450V62c3-0.3,4.5-1.3,4.8-3.5l0-0.2l-0.1-0.1l-0.1,0
			c-0.1-0.1-0.2-0.1-0.3-0.1c-2,0.3-3.5,0.1-4.9-0.6c-0.5-0.2-1.1-0.1-1.7,0.3c-0.7,0.5-1.3,1.5-1.2,2.3c0,0.3,0.1,0.5,0.1,0.8
			c0.2,1.1,0.4,2.2,0.4,3.3c0,0.8-0.1,1.7-0.2,2.6c0,0.4-0.1,0.8-0.1,1.2c0,0.2,0,0.5,0,0.8c0,0.5,0,1-0.1,1.4
			c-0.5,2.3-0.5,4.1,0.1,5.7c0.1,0.3,0.1,0.6,0.1,1l0,0.2c0,2.8,0.1,5.6,0.1,8.5c0,1.2,0.5,2.2,1.3,2.7c0.5,0.3,1,0.5,1.6,0.5
			c0.5,0,1-0.1,1.5-0.3c0.7-0.3,1.5-0.4,2.2-0.5l0.4-0.1c0.3,0,0.5,0,0.8,0c0.3,0,0.6,0,0.9,0c1.4-0.2,1.9-0.9,1.9-2.4L457.4,85.1z
			 M431.6,61.8c-0.1,1.8-0.2,3.8-0.5,5.6c-0.1,0.4-0.4,0.9-0.7,1.3l-0.2,0.2c-0.3,0.3-0.6,0.6-0.9,1l-0.2,0.2
			c-0.1-0.4-0.1-0.8-0.2-1.3c-0.4-2.8-0.8-5.4-0.7-8.1c0.3,0,0.5-0.1,0.8-0.1c0.6-0.1,1-0.2,1.5-0.2c0.4,0,0.7,0,0.9,0.2
			c0.1,0.1,0.2,0.4,0.2,0.6L431.6,61.8z M437.1,86.5c0-0.1,0-0.2-0.1-0.3c-0.1-0.7-0.3-1.1-0.4-1.6c-0.1-0.3-0.3-0.7-0.4-1.2
			c-0.3-1.4-0.7-2.8-1-4.2c-0.6-2.6-1.3-5.2-1.9-7.8c-0.1-0.6-0.1-1,0-1.3c1.5-2.7,1.4-5.7,1.3-8.5c0-0.4,0-0.8,0-1.1
			c0-0.9-0.3-1.7-0.9-2.2c-0.8-0.6-1.9-0.8-3.3-0.6c-0.3,0-0.6,0.1-0.9,0.2c-0.6,0.1-1.2,0.3-1.7,0.2c-0.1,0-0.3-0.1-0.5-0.1
			c-0.4-0.2-0.9-0.3-1.4,0.2c-0.5,0.5-0.8,1.2-0.8,1.7c0,1.8,0,3.6,0.2,5.7c0,0.2,0,0.5,0.1,0.7c0.1,0.6,0.1,1.2,0,1.9
			c-0.2,1.9-0.2,3.7,0,5.4c0.5,3.4,0.9,6.9,0.4,10.6c-0.1,0.8-0.1,1.6,0.1,2.3c0.3,1.7,1.1,1.9,3.1,1.7l0.2,0l0-0.2
			c0.9-5.4,0.5-10.7,0.1-15.3l1.3,0c0.2,0.6,0.4,1.3,0.6,1.9c0.5,1.5,0.9,3,1.2,4.5c0.2,1,0.4,1.9,0.7,2.7c0.3,1.4,0.7,2.7,1,4.3
			c0.1,0.7,0.2,0.8,0.5,1.3l0.1,0.2c0.2,0.3,0.7,0.8,1.2,0.8c0.1,0,0.3,0,0.4-0.1C437.4,87.6,437.2,87,437.1,86.5z M410.4,83.6
			c-0.2,1.1-1.4,1.6-2.4,1.1c-1-0.6-1.2-1.2-1.2-2.8c-0.2-4.7-0.4-9.4-0.6-14.1c-0.1-2-0.9-4.6-0.1-5.4c0.7-0.7,1.4-0.8,2.2-0.8
			c0.7,0,1.2,0.5,1.3,1.2c0.4,6.4,0.7,12.8,1,19.1C410.6,82.5,410.5,83.1,410.4,83.6z M414.1,82.7c-0.1-2.7-0.2-5.4-0.4-8.1
			c-0.4-5,0.7-11.5-1.3-15.3c-0.8-1.6-3.7-1-5.7-1.2c-2.5-0.2-3.5,0.7-3.7,3.2c-0.2,1.9-0.1,3.8-0.1,5.6c0,2.7,0.1,5.4,0.1,8.2
			c0,2.5-0.4,5-0.1,7.5c0.2,2.2,1.4,4.1,3.5,5.4c3.2,2,6.3,1.1,7.5-2.4C414.1,84.6,414.1,83.6,414.1,82.7z M391.7,60.3
			c0.1-1.6-0.2-2.7-2-3c-1.7-0.3-2.6,0.6-3.1,2c-0.3,0.7-0.5,1.5-0.7,2.3c-0.6,2.2-2.4,9.8-3.2,9.8c-1,0-1.2-2-1.5-3
			c-0.9-2.9-1.7-5.9-2.7-8.7c-1-2.6-1.7-2.8-4.5-2c-0.2,1.6-0.5,3.3-0.5,4.9c0.4,7.1,0.5,14.2-0.8,21.3c-0.3,1.9-0.2,4.2,2.2,4
			c0.8-0.1,1.2-1.1,1.2-1.6c0.7-6.5,1.1-11.6,1.7-18.9c1.4,4.4,3.2,7.9,4.4,11.9c2.3-3.2,2.6-5.5,4.8-8.1c0.2,3.7,0.6,7.1,0.6,10.5
			c0,3.3-1.1,6.8,2.2,6.2c1-0.2,1.4-2.3,1.4-2.7c0.1-3.7,0-1.9,0.1-5.6c0-0.9-0.2-1.8-0.2-2.7c0-3.6,0.1-7.2,0.2-10.8
			C391.5,64.1,391.5,62.2,391.7,60.3z M342.7,61.8c-0.1,1.8-0.2,3.8-0.5,5.6c-0.1,0.4-0.4,0.9-0.7,1.3l-0.2,0.2
			c-0.3,0.3-0.6,0.6-0.9,1l-0.2,0.2c-0.1-0.4-0.1-0.8-0.2-1.3c-0.4-2.8-0.8-5.4-0.7-8.1c0.3,0,0.5-0.1,0.8-0.1
			c0.6-0.1,1-0.2,1.5-0.2c0.4,0,0.7,0,0.9,0.2c0.1,0.1,0.2,0.4,0.2,0.6L342.7,61.8z M348.2,86.5c0-0.1-0.1-0.2-0.1-0.3
			c-0.1-0.7-0.3-1.1-0.4-1.6c-0.1-0.3-0.3-0.7-0.4-1.2c-0.3-1.4-0.7-2.8-1-4.2c-0.6-2.6-1.3-5.2-1.9-7.8c-0.1-0.6-0.1-1,0-1.3
			c1.5-2.7,1.4-5.7,1.3-8.5c0-0.4,0-0.8,0-1.1c0-0.9-0.3-1.7-0.9-2.2c-0.8-0.6-1.9-0.8-3.3-0.6c-0.3,0-0.6,0.1-0.9,0.2
			c-0.6,0.1-1.2,0.3-1.7,0.2c-0.1,0-0.3-0.1-0.5-0.1c-0.4-0.2-0.9-0.3-1.4,0.2c-0.5,0.5-0.8,1.2-0.8,1.7c0,1.8,0,3.6,0.2,5.7
			c0,0.2,0,0.5,0.1,0.7c0.1,0.6,0.1,1.2,0,1.9c-0.2,1.9-0.2,3.7,0,5.4c0.5,3.4,0.9,6.9,0.4,10.6c-0.1,0.8-0.1,1.6,0.1,2.3
			c0.3,1.7,1.1,1.9,3.1,1.7l0.2,0l0-0.2c0.9-5.4,0.5-10.7,0.1-15.3l1.3,0c0.2,0.6,0.4,1.3,0.6,1.9c0.5,1.5,0.9,3,1.2,4.5
			c0.2,1,0.4,1.9,0.7,2.7c0.3,1.4,0.7,2.7,1,4.3c0.1,0.7,0.2,0.8,0.5,1.3l0.1,0.2c0.2,0.3,0.7,0.8,1.2,0.8c0.1,0,0.3,0,0.4-0.1
			C348.5,87.6,348.3,87,348.2,86.5z M327,85.1h-6.6l-0.1-0.2c-0.1-0.2-0.1-0.4-0.1-0.5c-0.1-2.5-0.3-5-0.4-7.5l-0.1-2
			c0.2-0.1,0.5-0.2,0.7-0.3c0.5-0.2,1-0.4,1.4-0.5c1.1-0.4,1.6-1.2,1.6-2.6l0-0.2h-3.8V62c3-0.3,4.5-1.3,4.8-3.5l0-0.2l-0.1-0.1
			l-0.1,0c-0.1-0.1-0.2-0.1-0.3-0.1c-2,0.3-3.5,0.1-4.9-0.6c-0.5-0.2-1.1-0.1-1.7,0.3c-0.7,0.5-1.3,1.5-1.2,2.3
			c0,0.3,0.1,0.5,0.1,0.8c0.2,1.1,0.4,2.2,0.4,3.3c0,0.8-0.1,1.7-0.2,2.6c0,0.4-0.1,0.8-0.1,1.2c0,0.2,0,0.5,0,0.8
			c0,0.5,0,1-0.1,1.4c-0.5,2.3-0.5,4.1,0.1,5.7c0.1,0.3,0.1,0.6,0.1,1l0,0.2c0,2.8,0.1,5.6,0.1,8.5c0,1.2,0.5,2.2,1.3,2.7
			c0.5,0.3,1,0.5,1.6,0.5c0.5,0,1-0.1,1.5-0.3c0.7-0.3,1.5-0.4,2.2-0.5l0.4-0.1c0.3,0,0.5,0,0.8,0c0.3,0,0.6,0,0.9,0
			c1.4-0.2,1.9-0.9,1.9-2.4L327,85.1z M304.9,58.1c-0.2-0.3-0.6-0.4-1-0.4h0c-0.6,0-1.5,0.4-1.7,0.9c-0.6,1.1-1.1,2.2-1.4,3.4
			c-0.4,1.6-0.8,3.2-1.1,4.8c-0.1,0.7-0.3,1.4-0.5,2.1c-0.1,0.5-0.2,0.9-0.3,1.4c-0.2,1-0.5,2-0.6,2.9c-0.1,0.8-0.2,1.6-0.3,2.4
			c-0.1,0.7-0.2,1.5-0.3,2.2c-0.2,0.9-0.4,1.9-0.6,2.8c0,0.2-0.1,0.4-0.1,0.7c-0.4-0.9-0.6-1.8-0.7-2.8c-0.4-5.2-1.8-10.6-4.3-17.1
			c-0.1-0.4-0.3-0.8-0.4-1.1c-0.2-0.5-0.3-0.9-0.5-1.4c-0.3-0.8-0.7-1.8-2.1-1.6c-0.4,0.1-0.8,0.3-1,0.5c-0.3,0.4-0.3,1-0.2,1.5
			c0.1,0.3,0.1,0.6,0.2,0.9c0.3,1.5,0.6,3.1,1.1,4.6c1.2,2.9,2.1,5.8,2.8,9c0.8,3.5,1.7,7.3,3.1,12.2c0,0.1,0,0.2,0.1,0.3
			c0.2,0.9,0.5,2,2.3,2.3l0.1,0l0.1-0.1c0.1-0.2,0.2-0.4,0.4-0.6c0.3-0.4,0.5-0.8,0.7-1.3c0.7-2.6,1.4-5.4,2.1-8.5
			c0.3-1.3,0.6-2.6,0.9-3.9c0.4-1.9,0.8-3.9,1.3-5.9c0.4-1.7,1-3.4,1.5-5.1c0.3-0.9,0.6-1.9,0.8-2.8c0.1-0.3,0.1-0.5,0.1-0.8
			c0-0.1,0-0.2,0-0.3C305.3,58.9,305.2,58.4,304.9,58.1z M272.9,83.6c-0.2,1.1-1.4,1.6-2.4,1.1c-1-0.6-1.2-1.2-1.2-2.8
			c-0.2-4.7-0.4-9.4-0.6-14.1c-0.1-2-0.9-4.6-0.1-5.4c0.7-0.7,1.4-0.8,2.2-0.8c0.7,0,1.2,0.5,1.3,1.2c0.4,6.4,0.7,12.8,1,19.1
			C273.1,82.5,273,83.1,272.9,83.6z M276.5,82.7c-0.1-2.7-0.2-5.4-0.4-8.1c-0.4-5,0.7-11.5-1.3-15.3c-0.8-1.6-3.7-1-5.7-1.2
			c-2.5-0.2-3.5,0.7-3.7,3.2c-0.2,1.9-0.1,3.8-0.1,5.6c0,2.7,0.1,5.4,0.1,8.2c0,2.5-0.4,5-0.1,7.5c0.2,2.2,1.4,4.1,3.5,5.4
			c3.2,2,6.3,1.1,7.5-2.4C276.6,84.6,276.6,83.6,276.5,82.7z M254.7,85.3c-0.6-1.7-0.6-3.5-0.7-5.3l0-0.4c0-0.7-0.2-1.6-1.2-2
			l-0.1-0.1l-0.1,0.1c-2.1,2.5-1.7,5.4-1.3,7.8c-0.9,0.2-1.6,0.2-1.9-0.1c-0.2-0.2-0.3-0.4-0.4-0.8c-0.1-1-0.4-1.9-0.6-2.8
			c-0.4-1.3-0.8-2.7-0.7-4.2c0.1-1,0-2-0.1-3c0-0.5-0.1-1.1-0.1-1.6c0-0.9,0-1.8-0.1-2.7c0-1.1-0.1-2.3-0.1-3.4
			c0-0.4-0.1-0.8-0.1-1.2c-0.1-0.7-0.2-1.4-0.1-2.1c0.1-0.7,0.5-1.4,0.8-2c0.1-0.1,0.1-0.3,0.2-0.4c0.3-0.5,0.8-0.5,1.2-0.4
			c0.9,5.2,0.9,5.3,2.4,6l0.2,0.1l0.1-0.2c0-0.2,0.1-0.3,0.2-0.5c0.1-0.3,0.2-0.7,0.3-1c0-0.6,0.1-1.1,0.1-1.7c0-0.5,0-1.1,0.1-1.6
			c0.1-1.6,0.2-2.7-0.5-3.4c-0.6-0.7-1.9-0.8-3.9-0.8c-0.6,0-1.1,0.2-1.7,0.3c-0.2,0-0.3,0.1-0.5,0.1c-0.3,0.1-0.5,0.3-0.6,0.5
			c-1.2,1.4-1.8,2.8-1.9,4.5c-0.1,1.2,0,2.3,0.1,3.4c0,0.3,0,0.7,0.1,1c0.1,1.7,0.1,3.5,0.1,5.2c0,1.2,0,2.4,0.1,3.6
			c0,1.4,0.1,2.8,0.3,4.3c0.2,1.2,0.5,2.4,0.8,3.6l0,0.1c0.5,1.9,1.6,3.3,3.3,3.9c0.6,0.2,1.2,0.3,1.8,0.3c1.1,0,2.1-0.3,2.9-0.6
			C254.5,87.5,255.1,86.5,254.7,85.3z M233.2,82.2c-0.1-1-0.3-2-0.5-3c-0.3-1.5-0.6-2.9-0.5-4.3c0.1-2.2-0.8-3.8-3-5
			c-0.7-0.4-1.4-0.8-1.9-1.3l-0.2-0.2c-0.7-0.8-1.4-1.5-1.7-2.3c-0.4-1.2-0.5-2.5-0.6-3.7c0-0.3-0.1-0.7-0.1-1c0-0.2,0-0.5,0.1-0.7
			l0-0.2c1.7-0.3,2.7-0.1,4,0.2c0.2,0,0.4,0.1,0.6,0.1c0.1,0.4,0.1,0.9,0.1,1.4c0,1.3,0,2.9,1.3,3.6c0.3,0.1,0.7,0.1,0.9-0.1
			c1.3-0.9,1-2.4,0.8-3.5c-0.1-0.3-0.1-0.7-0.1-1c-0.2-3.5-1-3.8-5.8-3.8c-1.9,0-3.5,0.7-4.4,1.8c-0.5,0.6-0.8,1.4-0.7,2.2l0.1,1
			c0.1,1.1,0.2,2.3,0.2,3.4c0.1,3.2,1.6,5.3,4.7,6.5c3,1.2,3.3,3,3.2,4.5c-0.1,0.9,0,1.9,0.1,2.8c0.1,0.6,0.1,1.1,0.2,1.7
			c0,1,0,2.1,0,3.1c0,0.3,0,0.7,0,1c-1.7,0.4-2.7,0.5-3.1,0.1c-0.3-0.3-0.4-0.8-0.4-1.7c0-2.4,0-4.7,0-7l0-1.6
			c0-0.2,0.1-0.6-0.1-0.9c-0.2-0.3-0.5-0.4-1-0.4h0c-1.1,0-1.3,1-1.5,1.4l0,0.2c-0.1,0.4-0.3,0.8-0.4,1.2c-0.5,1.2-1,2.4-0.7,3.6
			c0.4,1.5,0.5,2.9,0.6,4.4c0,0.6,0.1,1.2,0.1,1.8c0.1,0.9,0.8,1.7,1.4,2.1c0.5,0.4,1.5,0.6,2.5,0.6c1.5,0,3.1-0.4,4.2-0.9
			c0.8-0.4,1.3-0.9,1.4-1.5c0-0.3,0.1-0.7,0.2-1C233.1,84.3,233.3,83.3,233.2,82.2z M210.6,56.9c-2.2-0.4-2.9,0.2-3,2.2
			c-0.2,4.1-0.3,8.3-0.5,12.4c0,1.1,0,2.3,0,3.4c0,2.1,0,4.3,0,6.4c0,1.4-0.2,2.8-0.1,4.1c0.1,1.9,0.1,2.7,2.1,2.7
			c1.6,0,1.5-5.7,1.6-8.5c0.2-3.5,0-7,0-10.6c0-1,0.1-2,0.3-3C211.4,63.1,211.3,60,210.6,56.9z M191.6,80.2
			c-0.2,1.6-0.6,3.3-0.9,5.1c-1.4,0-2.7,0-4.4,0c0.6-2.7,1.3-5.1,1.5-7.5c0.3-3.4,0.3-6.8,0.4-10.3c0.1-2,0-4,0-6
			c3.1,0.2,3.3,0.3,3.4,2.5c0.1,3.3,0.1,6.7,0.1,10c0,0.4,0.1,0.8,0.1,1.2C191.8,76.9,191.8,78.5,191.6,80.2z M195.6,61.8
			c-1.4-3.1-3.6-4.7-7.2-4.1c-0.7,0.1-1.4,0.3-2.1,0.4c-1.5,0-2.5,0.7-3.3,2.3c1,0.5,1.9,0.9,2.9,1.4c-0.2,3.7-0.5,7.5-0.6,11.3
			c-0.1,3.9,0,7.7,0,11.8c-1.2,0.3-2.5,0.5-2.3,1.8c0.2,1.1,1.3,1.6,2.4,1.7c0.8,0.1,1.6,0.1,2.4,0c4.6-0.8,4.6-1.4,5.6-4.4
			c1.4-4.3,1.9-8.7,2.6-13C196.4,67.9,197,64.9,195.6,61.8z"/>
	</g>
	<g>
		<g>
			<path class="st1" d="M136.4,73.4c-0.8-2.3-2.9-3.8-5.3-3.8H106c-2.4,0-4.6,1.5-5.3,3.8l-1.3,3.9c-0.5,1.4-0.6,2.8-0.4,4.2
				c0.6,4.4,4.7,7.7,9.3,7.7h20.4c4.7,0,8.7-3.3,9.3-7.8c0.2-1.4,0.1-2.8-0.4-4.2L136.4,73.4z M131.2,72.3v2.8h-2.8v-2.8L131.2,72.3
				C131.1,72.3,131.1,72.3,131.2,72.3z M125.5,75.1h-2.8v-2.8h2.8V75.1z M119.9,75.1h-2.8v-2.8h2.8V75.1z M114.3,75.1h-2.8v-2.8h2.8
				V75.1z M108.7,72.3v2.8h-2.8v-2.8c0,0,0,0,0.1,0H108.7z M105.9,85.9v-2.4h2.8v2.8h-0.4C107.5,86.4,106.7,86.2,105.9,85.9z
				 M111.5,83.6h2.8v2.8h-2.8V83.6z M117.1,83.6h2.8v2.8h-2.8V83.6z M122.7,83.6h2.8v2.8h-2.8V83.6z M128.4,86.4v-2.8h2.8v2.4
				c-0.7,0.3-1.6,0.4-2.4,0.4H128.4z M135.3,81c-0.2,1.1-0.6,2.1-1.3,3v-0.4c0-1.5-1.3-2.8-2.8-2.8h-2.8c-0.5,0-1,0.1-1.4,0.4
				c-0.4-0.2-0.9-0.4-1.4-0.4h-2.8c-0.5,0-1,0.1-1.4,0.4c-0.4-0.2-0.9-0.4-1.4-0.4h-2.8c-0.5,0-1,0.1-1.4,0.4
				c-0.4-0.2-0.9-0.4-1.4-0.4h-2.8c-0.5,0-1,0.1-1.4,0.4c-0.4-0.2-0.9-0.4-1.4-0.4h-2.8c-1.5,0-2.8,1.3-2.8,2.8V84
				c-0.7-0.8-1.2-1.8-1.3-2.9c-0.1-1-0.1-2,0.3-2.9l1.1-3.2v0.3c0,1.5,1.3,2.8,2.8,2.8h2.8c0.5,0,1-0.1,1.4-0.4
				c0.4,0.2,0.9,0.4,1.4,0.4h2.8c0.5,0,1-0.1,1.4-0.4c0.4,0.2,0.9,0.4,1.4,0.4h2.8c0.5,0,1-0.1,1.4-0.4c0.4,0.2,0.9,0.4,1.4,0.4h2.8
				c0.5,0,1-0.1,1.4-0.4c0.4,0.2,0.9,0.4,1.4,0.4h2.8c1.5,0,2.8-1.3,2.8-2.8v-0.3l1.1,3.2C135.4,79.1,135.4,80,135.3,81z"/>
			<path class="st1" d="M157.8,27.4c0-3.1-2.5-5.6-5.6-5.6h-1.5c-0.8,0-1.6,0.1-2.4,0.2c-6.5-8.9-16.9-14.2-27.9-14.2h-3.8
				C97.6,7.8,82,23.3,82,42.4c0,10.6,4.7,20.4,13,27l0.8,0.7L94,75.5c-0.5,1.5-0.8,3.1-0.8,4.6c0,8.1,6.6,14.7,14.7,14.7h21.1
				c8.1,0,14.7-6.6,14.7-14.7c0-1.6-0.3-3.1-0.8-4.6l-1.8-5.4l0.8-0.7c8.2-6.6,13-16.4,13-27c0-3.2-0.5-6.4-1.4-9.5
				C156,32.2,157.8,30,157.8,27.4z M146.9,31.2c-0.6,0.3-1.2,0.6-1.7,1.1l-0.5,0.5c-1.9-0.7-3.3-2.3-3.7-4.3l0.5-0.5
				c0.7-0.6,1.5-1.2,2.4-1.6C144.4,28.3,145.5,30,146.9,31.2z M131.2,46.7c0.9,0.2,1.8,0.4,2.8,0.4c2,0,4-0.6,5.6-1.5v4
				c0,0.5-0.3,1-0.8,1.3l-2.5,1.3c-1.4,0.7-2.3,2.2-2.3,3.8v2.5c0,0.8-0.6,1.4-1.4,1.4s-1.4-0.6-1.4-1.4V46.7z M134,44.3
				c-2.5,0-4.7-1.1-6.3-2.8h4.9c3.3,0,6.5-1,9.3-2.8C140.7,41.9,137.6,44.3,134,44.3z M142.4,34.7l-0.7,0.6c-0.9,0.8-2,1.5-3.1,2
				c-1.2-1.1-1.9-2.6-1.9-4.2c0-0.4,0.1-0.8,0.1-1.2c0.4-0.2,0.8-0.5,1.2-0.8l0.7-0.6C139.4,32.2,140.7,33.8,142.4,34.7z M132.6,33
				c0.5,0,0.9,0,1.4-0.1c0,0,0,0.1,0,0.1c0,1.9,0.7,3.8,1.8,5.2c-1,0.2-2.1,0.4-3.2,0.4h-1.5V33H132.6z M136.3,28.9
				c-1,0.9-2.3,1.3-3.7,1.3h-4.9c1.5-1.7,3.8-2.8,6.3-2.8c1.1,0,2.2,0.2,3.2,0.7L136.3,28.9z M125.5,35.9c0-1,0.2-1.9,0.5-2.8h2.3
				v5.6H126C125.7,37.8,125.5,36.8,125.5,35.9z M140.3,67.2l-2.3,1.9l2.4,7.3c0.4,1.2,0.6,2.5,0.6,3.8c0,6.5-5.3,11.9-11.9,11.9H108
				c-6.5,0-11.9-5.3-11.9-11.9c0-1.3,0.2-2.5,0.6-3.8l2.4-7.3l-2.3-1.9c-3.3-2.6-6-5.8-7.9-9.4l5.8-3.9v5.4l8.6,2.9l1.2,4.9l2.7-0.7
				l-1.6-6.4l-8.2-2.7v-4.4l8.2,1.2l0.4-2.8l-10.4-1.5l-8.2,5.4c-1.8-4-2.7-8.4-2.7-12.9c0-13.3,8.3-24.8,19.9-29.5l5.5,5.5l3,7.5
				l9.2,1.5l0.5-2.8l-7.6-1.3l-1.7-4.4h5.5l4.6-4.6l-2-2l-3.8,3.8h-5.9l-4.3-4.3c2.8-0.8,5.8-1.3,8.9-1.3h3.8
				c9.8,0,18.9,4.5,25,12.1c-2,0.7-3.9,1.7-5.6,3.2l-0.3,0.2c-1.7-1-3.6-1.5-5.5-1.5c-6.2,0-11.2,5-11.2,11.2c0,4.1,2.3,7.8,5.6,9.7
				v12.7c0,2.3,1.9,4.2,4.2,4.2s4.2-1.9,4.2-4.2v-2.5c0-0.5,0.3-1,0.8-1.3l2.5-1.3c1.4-0.7,2.3-2.2,2.3-3.8v-6.3
				c1.7-1.9,2.8-4.5,2.8-7.2l1.9-1.6c1-0.9,2.3-1.4,3.7-1.4h0c0.9,3,1.4,6.1,1.4,9.3C152.2,52.1,147.9,61.1,140.3,67.2z M152.2,30.2
				c-2.9,0-5.2-2.2-5.5-5c1.3-0.4,2.7-0.6,4.1-0.6h1.5c1.5,0,2.8,1.3,2.8,2.8S153.8,30.2,152.2,30.2z"/>
			<path class="st1" d="M114.3,35.9c0-6.2-5-11.2-11.2-11.2c-6.2,0-11.2,5-11.2,11.2s5,11.2,11.2,11.2
				C109.3,47.1,114.3,42,114.3,35.9z M103.1,44.3c-4.6,0-8.4-3.8-8.4-8.4s3.8-8.4,8.4-8.4c4.6,0,8.4,3.8,8.4,8.4
				S107.7,44.3,103.1,44.3z"/>
			<path class="st1" d="M103.1,30.2c-2.7,0-5.6,2.3-5.6,5.6c0,3.4,2.9,5.6,5.6,5.6c2.7,0,5.6-2.3,5.6-5.6
				C108.7,32.5,105.8,30.2,103.1,30.2z M103.1,38.7c-1.2,0-2.8-1.1-2.8-2.8c0-1.7,1.6-2.8,2.8-2.8s2.8,1.1,2.8,2.8
				C105.9,37.6,104.3,38.7,103.1,38.7z"/>
			<path class="st1" d="M110.1,59.3v0.2c0,2.4,2,4.4,4.4,4.4c1.2,0,2.3-0.5,3.1-1.3l0.9-0.9l0.9,0.9c0.8,0.8,1.9,1.3,3.1,1.3
				c2.4,0,4.4-2,4.4-4.4v-0.2c0-1-0.3-2-1-2.7l-4.1-5.1c-0.8-1-2.1-1.6-3.4-1.6c-1.3,0-2.6,0.6-3.4,1.6l-4.1,5.1
				C110.5,57.4,110.1,58.4,110.1,59.3z M112.9,59.3c0-0.4,0.1-0.7,0.3-1l4.1-5.1c0.6-0.7,1.8-0.7,2.4,0l4.1,5.1
				c0.2,0.3,0.3,0.6,0.3,1v0.2c0,0.9-0.7,1.6-1.6,1.6c-0.4,0-0.8-0.2-1.1-0.5l-2.9-2.9l-2.9,2.9c-0.3,0.3-0.7,0.5-1.1,0.5
				c-0.9,0-1.6-0.7-1.6-1.6V59.3z"/>
		</g>
	</g>
</g>
</svg>
