<?xml version="1.0" encoding="utf-8"?>
<!-- Generator: Adobe Illustrator 25.4.1, SVG Export Plug-In . SVG Version: 6.00 Build 0)  -->
<svg version="1.1" id="Layer_1" xmlns="http://www.w3.org/2000/svg" xmlns:xlink="http://www.w3.org/1999/xlink" x="0px" y="0px"
	 viewBox="0 0 108.1 93.3" style="enable-background:new 0 0 108.1 93.3;" xml:space="preserve">
<style type="text/css">
	.st0{fill:#FFFFFF;}
</style>
<path class="st0" d="M58.7,82.1c0,0.1,0,0.2,0.1,0.2C59.9,82.8,59.9,82.8,58.7,82.1 M41.9,70.3c0,0.1,0.1,0.1,0.2,0.1
	C43.2,71,43.1,71,41.9,70.3 M38.5,76c0,0.1,0,0.2,0.1,0.3C39.6,76.8,39.6,76.7,38.5,76 M40.4,70.8c0,0.1,0.1,0.1,0.1,0.2
	C41.6,71.1,41.6,71.1,40.4,70.8 M59.1,76.2c1.2,0.5,1.1,0.4-0.1-0.2C59,76.1,59.1,76.2,59.1,76.2 M59.4,74.1
	c-0.1,0.5,0.1,0.7,0.4,0.5l0.7-0.2C60.9,72.4,60.6,72.3,59.4,74.1 M55.5,78.7l0.1,0.5c1.2-0.8,1.2-1.2-0.2-1.1
	C55.5,78.2,55.5,78.5,55.5,78.7 M54.3,78.1c1.1,0.9,1.1,0.8-0.1-0.2C54.2,78,54.2,78,54.3,78.1 M104.4,88.6c-0.1,0-0.2,0-0.3,0v0.2
	C104.3,88.8,104.4,88.7,104.4,88.6L104.4,88.6 M69.2,80.6c0.2-1.2-0.1-1.8-1-1.8c0,0.4,0.1,0.8,0.3,1.3l0.2-0.1
	c0.2,2.5,0.4,2.8,0.4,0.9C69.1,80.8,69.1,80.7,69.2,80.6C69.1,80.7,69.2,80.7,69.2,80.6 M69.5,75.1c1.1,0.6,1,0.5-0.1-0.2
	C69.4,75,69.4,75.1,69.5,75.1 M67.2,75.6c1.4,0,1.3-0.4-0.5-1.1C66.8,75.3,66.9,75.6,67.2,75.6 M61.4,68.5c0.1,0.4,0.1,0.6,0.2,0.6
	C63.1,69.3,63.1,69.1,61.4,68.5 M95,77.6c0,0.1,0,0.2,0.1,0.2C96.2,78.3,96.1,78.3,95,77.6 M96.1,79.6c0.4,0.6,0.9,1.1,1.4,1.5
	l0.3,0.3C99.2,80.5,98.6,79.9,96.1,79.6 M97.2,83.3c0,0.1,0.1,0.2,0.1,0.2C98.7,84.1,98.6,84.1,97.2,83.3 M53.2,19.7
	c-0.1,0-0.1,0.1-0.2,0.1c-0.7,1.4-1.5,2.6-2.5,3.6c0,0.1,0,0.2,0,0.3c-0.1,0-0.2,0-0.2,0.1c-0.3,0.3-0.5,0.6-0.6,0.9
	c0,0.1,0,0.2,0,0.3c0,0.1,0,0.2-0.1,0.2c-0.4,0.2-0.6,0.5-0.8,0.9c0.2,1.3,0.6,1.1,1.1-0.5c0-0.1,0-0.1,0-0.3
	c0.2-0.4,0.4-0.8,0.7-1.1c0-0.1,0-0.1,0-0.3c0.1,0,0.2,0,0.2-0.1C52,22.6,52.7,21.2,53.2,19.7 M53.2,19.1c0.6,0.4,1.3,0,2.1-1.2
	c0.2-0.3,0.1-0.5-0.2-0.8C54.5,16.5,53.8,17.2,53.2,19.1 M66.5,6.8c-0.1,0.7,0,1.2,0.4,1.4C68.2,7.5,68.1,7,66.5,6.8 M41.8,62.9
	c1.1-0.5,1.1-0.6,0-0.2V62.9 M39.8,60.1l0.1,0.6C41,58.4,41,58.2,39.8,60.1 M35.9,55.4c0.1,0,0.2,0,0.2-0.1c1.2-2.7,1-2.8-0.5-0.2
	c0,0.1,0,0.2,0,0.3c-0.1,0-0.2,0.1-0.2,0.1c-0.2,0.4-0.4,0.7-0.7,0.9c0.5,0.3,0.9,0.1,1.1-0.8C35.9,55.6,35.9,55.5,35.9,55.4
	 M38.7,53l-1,1.3c0.1,0.5,0.5,0.8,1,0.8c0.1,0,0.3,0.1,0.3,0c0,0.1,0,0.1,0,0.1c1.2,0.2,1.2,0-0.1-0.4C39.1,54.1,39,53.5,38.7,53
	 M23,70.8c-0.1,0-0.2,0-0.2,0.1c-0.6,0.3-1.3,0.7-1.9,1.1c0.9,0.6,1.7,0.3,2.4-0.9c0.1-0.1,0.1-0.2,0-0.3l0.5-0.6
	c1.1-0.8,0.8-0.7-0.9,0.3C22.9,70.5,23,70.7,23,70.8 M14.3,63.5l0.1,0.5C15.2,63.9,15.2,63.7,14.3,63.5 M23.5,54.9L23.5,54.9
	C25.1,54.3,25.1,54.3,23.5,54.9 M20,58.3C21.8,57.5,21.8,57.4,20,58.3L20,58.3 M14.1,46.3c1.4,1.3,1.4,1.2-0.1-0.3
	C14,46.1,14,46.2,14.1,46.3 M22,35.4L22,35.4C24,34.6,24,34.5,22,35.4 M38.3,34L38.3,34C39.3,33.6,39.3,33.5,38.3,34 M23.2,11.2
	l0.1,0.5c0.8-0.1,0.8-0.6-0.2-1.4C23.2,10.5,23.2,10.9,23.2,11.2 M10.7,9.6c0,0.1,0,0.2,0.1,0.3C12,10.7,12,10.6,10.7,9.6
	 M78.8,81.9c0-0.8-0.6-1.3-1.9-1.4c0.1,0.6,0.2,1.2,0.4,1.6c0.2,0.3,0.5,0.6,0.9,0.8c0.2,0.1,0.3,0.1,0.4,0
	C78.8,82.5,78.9,82.2,78.8,81.9 M71.1,66.7c0.1,0.1,0.3,0.1,0.4,0.2c1.3,0.8,1.3,0.7,0-0.1C71.4,66.7,71.2,66.7,71.1,66.7L71.1,66.7
	 M75.3,28.8c0.4,0,0.7,0,0.8-0.1h0.1c-0.2,0-0.5,0-1,0L75.3,28.8l-0.1,0.1C75.2,28.8,75.2,28.8,75.3,28.8 M63.4,54.9
	c1.1,0.6,1.1,0.5-0.1-0.2C63.4,54.8,63.4,54.9,63.4,54.9 M62.1,54.6c0,0.1,0,0.2,0.1,0.2c0.7,1.8,1.7,3.4,3,4.7
	c0-0.1-0.1-0.2-0.1-0.2C64.2,57.5,63.3,55.9,62.1,54.6 M76,22c-0.1,0-0.2,0-0.2,0.1c-0.5,0.4-1,0.7-1.6,1c0.4,0.2,1,0.1,1.9-0.1
	c0.1-0.1,0.2-0.1,0.3-0.1c0.9,0.1,1.2-0.3,1-1h-0.1c0.2-0.3,0.5-0.5,0.9-0.5c0.2,0,0.4-0.1,0.5-0.1c0.4-0.1,0.4-0.2,0.2-0.5
	c0,0-0.1-0.1-0.2-0.1l0,0h-0.1c-0.4-0.1-1.2,0.3-2.3,1.1c0,0.1,0,0.2,0,0.3C76.2,21.9,76.1,21.9,76,22 M75.5,70.5
	c0,0.1,0,0.2,0.1,0.2C77.5,72.2,77.4,72.1,75.5,70.5 M72.7,53.1c0,0.1,0,0.1,0.1,0.2C75,53.9,75,53.9,72.7,53.1 M74.9,47.4
	c0.1-0.9-0.2-1.5-0.8-1.8c-1.2-0.5-1.9-0.2-2,0.9c-0.1,1.4-0.7,1.9-1.8,1.7c0,0.1,0.1,0.1,0.1,0.2C72.7,50,74.2,49.7,74.9,47.4
	 M77,46.4c1.7-0.2,1.7-0.3-0.1-0.4L77,46.4 M77.1,41.2c0,0.1,0,0.2,0.1,0.2C78.3,41.8,78.3,41.8,77.1,41.2 M68.9,44.3l0.1,0.5
	C70.1,44.2,70.1,44,68.9,44.3 M71.2,25l0.1,0.2C73.9,23.9,73.9,23.8,71.2,25 M69.1,22.7c0,0.1,0,0.2,0.1,0.2
	C70.3,23.5,70.3,23.4,69.1,22.7 M66.4,29.7c0.1-0.1,0.2-0.1,0.3-0.1c0,0.1,0,0.2,0,0.3c0,0.1-0.1,0.2-0.1,0.3c0,0-0.1,0-0.2,0.1
	c0.4,2.8,1.6,3.3,3.6,1.4c0.2-0.1,0.2-0.4,0.1-0.9c-0.2-1-0.9-1.4-1.9-1.4c0-0.1-0.1-0.2-0.2-0.3c-0.1-0.1-0.2-0.2-0.3-0.3
	c0-0.1,0-0.2,0-0.3c0.4-0.3,0.8-0.5,1.1-0.9c0,0,0-0.1,0-0.2c0.8-0.3,1.3-0.7,1.6-1.4l0.2-0.4c-0.7-0.3-1.4,0.1-2.1,1.2
	c0,0.1,0,0.2,0,0.3c-0.1,0-0.2,0-0.3,0.1C67.1,28.1,66,29,65,30C65.5,30.8,65.9,30.6,66.4,29.7 M63.8,20.4v0.2
	C66.2,20.2,66.2,20.2,63.8,20.4 M67.6,17.2c0-0.1,0-0.2-0.1-0.3c-0.9-4-2.5-4.6-4.9-1.7c0,0.1,0,0.2,0,0.3
	C63.4,18.3,65,18.8,67.6,17.2 M66.6,19.3c1.4-0.2,1.4-0.2,0-0.1V19.3 M35.5,60.5c0,0.4,0.2,0.8,0.3,1.3c0.3,1,0.8,1.1,1.4,0.2
	c0.4-0.5,0.6-1,0.6-1.3c0.2-0.6-0.1-0.9-1-0.7C36.5,60.1,36,60.3,35.5,60.5 M34.6,57.8l0.1-0.4c-0.5,0.3-1.2,0.9-2,1.7
	c-0.2,0.2-0.5,0.5-0.7,0.7c0,0.1,0.1,0.2,0.1,0.2c0.5,0.1,1.1-0.2,1.7-0.9C34,58.9,34.3,58.4,34.6,57.8 M35.7,33
	c0,0.3,0.1,0.5,0.1,0.5c0.3,0,0.5,0,0.7,0c1.2,0.1,1.2,0-0.2-0.3C36.2,33.1,36,33,35.7,33 M21,23.2c0-0.1,0-0.3-0.1-0.4
	c-0.4-1.2-1.1-1.9-2.1-2.3c0.4,1.3,1.1,2.2,2,2.8c0.1,0.1,0.1,0.1,0.2,0.1c0.6,0.8,1.1,1.7,1.5,2.6c0,0.1,0,0.2,0.1,0.2
	c-0.1,0-0.1,0-0.2,0c-2.2-2.9-5.4-4.5-9.8-4.6c0.1,1.5,0.6,2.5,1.4,3c0.1,0.1,0.2,0.1,0.3,0.2s0.2,0.1,0.3,0c0.7-0.7,1.6-1,2.5-1
	c0.8,0,1.8,0.3,2.8,0.8c0.1,0.1,0.1,0.1,0.1,0.2c0.5,0.9,1.1,1.7,1.8,2.4c0,0.1,0,0.2,0.1,0.2c0.4,0.5,0.9,0.9,1.2,1.4
	c0.1,0,0.1,0,0.2,0c0.1,0.3,0.1,0.6,0.2,0.9c0.1,0,0.1,0,0.2,0c0,0.7,0.2,1.1,0.5,1.3c0.1,0,0.2,0.1,0.2,0.1c0.1,0,0.1,0.1,0.1,0.2
	s0,0.2,0,0.3c0,0.1,0,0.2,0,0.3V32c0.1,0.3-0.1,0.4-0.6,0.4v-0.1c-0.7,0-1.3-0.2-2-0.6c0-0.1,0-0.2-0.1-0.4
	c-0.1-0.5-0.6-0.7-1.3-0.4c-0.1,0.9,0.1,1.3,0.8,1.2c0.1,0,0.2,0,0.3,0c0.4,0.1,0.7,0.3,0.9,0.8h0.1c0.5,0.8,1.1,1.4,1.9,1.9
	c0.1,0.1,0.2,0.1,0.3,0c0.3,0.3,0.6,0.6,0.9,0.7c0.3,0.1,0.7,0.2,1.1,0.3c0.1,0.1,0.2,0.1,0.3,0c0.9,1.4,2.2,2.4,3.8,3
	c0.2,0.1,0.4,0.1,0.6,0.2c0.1,0,0.1,0.1,0.1,0.2c0,1.7,0.3,3.1,1,4c0.1,0.1,0.1,0.2,0.2,0.3c-1,2.3-0.7,4,1.1,5.3
	C34,48.9,34,48.9,34,49c-0.1,0-0.2,0-0.3,0c-0.9-0.9-1.5-0.6-1.9,0.9c0-0.1,0-0.2-0.1-0.3c-0.2-0.6-0.5-0.7-0.9-0.2
	c-0.1,0.5,0,0.9,0.4,0.9c0.1,0,0.2,0,0.3,0c0.1,0,0.2,0,0.3,0c1.2,0.6,0.9,1.3-0.9,2.2c0,0.1,0,0.2,0,0.3c-0.4,0-0.6,0-0.7-0.1
	c-0.7-2.4-2-2.8-4-1.4c0.9,3.5,2.5,4,4.9,1.6c0-0.1,0-0.1,0.1-0.2c1.2-0.6,2.3-1.3,3.2-2.2c0.1-0.1,0.2-0.1,0.3-0.2
	c0.1,0,0.2,0,0.3,0c0.5,0.5,1.1,0.8,1.9,0.8c0.1,0,0.2,0,0.3,0h0.2c0.1,0.3,0,0.5-0.4,0.6c0.2,0.6,0.7,0.4,1.3-0.4
	c0,0,0.1,0,0.2-0.1c1,1.1,2,1.7,2.8,1.9c0.1,0,0.2,0,0.3,0c0.1,1.6,0.4,2.3,0.9,2.1c0.1,0,0.2,0,0.3,0c0,0.1,0,0.2,0,0.3
	c0,0.9-0.1,1.8-0.4,2.5c0,0.1,0,0.2,0,0.3s0.1,0.2,0.1,0.3c0.1,0.4,0,0.7-0.3,0.7c0.4,1.8,0.6,1.6,0.6-0.7c0-0.1,0-0.2,0-0.3
	c1-0.5,1.5,0.6,1.6,3.4c0,0,0.1,0.1,0.3,0.3c0.3,0.3,0.5,0.2,0.4-0.1c0.1,0,0.2,0,0.3,0s0.2,0,0.3,0c0.4,0.4,0.7,0.3,0.9-0.4
	c0-0.1,0-0.2,0-0.3c0.1,0,0.1,0,0.2,0.1c1,1.6,0.9,2.9-0.1,4c0,0.1,0,0.2,0,0.3c-0.1,0-0.2,0.1-0.3,0.1c-0.7,0.4-1.9,0.3-3.5-0.3
	c0.1,0.6,0.3,1.1,0.6,1.4c0.1,0,0.1,0,0.2,0.1c0,0.1,0,0.2-0.1,0.2c0,0.1-0.1,0.1-0.2,0.1c0.3,1.2,0.6,1.2,0.9,0.2
	c0.1-0.1,0.1-0.2,0-0.3c0.3,1,0.9,1.2,1.7,0.6c0.8-0.7,2-1.1,3.6-1.2c1.2-0.6,2.3-0.6,3.3,0v-0.1c0-0.8-0.5-1.1-1.5-1
	c0-0.1,0-0.2-0.1-0.2c-0.1-0.1-0.3-0.2-0.6-0.3c0-0.1,0-0.2-0.1-0.2c-0.3-0.5-0.6-0.9-1-1.2c0-0.1,0-0.2,0-0.3
	c-0.1-0.5-0.1-1-0.2-1.6c0.2-0.1,0.4-0.2,0.5-0.4c0-0.1,0-0.1,0-0.3c1.3-1,2.9-0.6,4.6,1c1.3,1.3,2.7,2.5,4.1,3.7
	c0.2,1.1,0.4,2.1,0.6,3.1c0,0.1,0.1,0.2,0.1,0.3h-0.1c0,0.7-0.2,1.2-0.7,1.3c1,2.1,1.3,1.9,0.9-0.7c0-0.1,0-0.2,0-0.3
	c0.7-1.2,0.8-2.7,0.3-4.4h0.1c0.8,0.9,1.5,1.6,2.2,2.1v-0.1c0.4-0.5,0.7-0.5,0.9-0.1C63,66.9,63,67,63,67.1c-0.1,0-0.2,0-0.3,0
	c0,0.7,0.2,1.2,0.6,1.4c0.1,0.1,0.2,0.1,0.3,0.1c0.2,0.5,0.5,1,0.7,1.5c0,0.1,0.1,0.2,0.1,0.4c0.6,1.8,1.3,2.8,2.2,3l-0.1-0.2
	c0.6-1.7,0.1-2.6-1.6-3c-0.1,0-0.2,0.1-0.3,0.1c0-0.1-0.1-0.2-0.1-0.4c-0.2-0.4-0.3-0.9-0.4-1.5c0-0.1,0-0.2,0-0.3
	c0.4-0.5,0.3-0.9-0.2-1.3c0-0.1,0-0.2,0-0.3c0-0.1,0-0.2,0-0.3c0.1,0,0.2,0,0.3,0c1.3,0.4,2,0.9,2,1.7c0,0.5,0.3,0.9,0.8,1.3
	c2.3,1.3,4.2,3.1,5.8,5.2c0.2,0,0.5-0.1,0.7-0.1c1.5-0.1,2.9,0.3,4.2,1.1c0.1,0,0.1,0,0.2,0c1,1.9,2.1,3.6,3.2,5.2
	c0.4,0.4,0.7,0.8,1,1.2c0.2,0.2,0.4,0.5,0.7,0.6c0.6-0.4,0.9-1.1,0.7-2.3v-0.1c-0.1-0.4-0.1-0.9-0.1-1.5c-1-2-2.3-3.4-3.7-4.3h-0.1
	c-0.6,0.1-1.2,0.1-1.9-0.2c0-0.1,0-0.2,0-0.3c-0.1-0.4-0.4-0.6-1-0.5c0-0.1,0-0.2-0.1-0.2C76.5,73,76.4,73,76.3,73
	c0-0.1,0-0.2-0.1-0.2c-0.7-0.9-1.5-1.8-2.4-2.6c0-0.1-0.1-0.2-0.1-0.4c-0.5-0.6-1.1-1.1-1.9-1.4c0-0.1-0.1-0.1-0.1-0.2
	c0,0,0,0-0.1,0c-1.9-1-3.5-2.2-5-3.7c0-0.1,0-0.2-0.1-0.2c-2.8-3.5-5.7-6.9-8.7-10.2c1.6-0.7,2.7-1.6,3.5-2.7c0-0.1,0-0.1,0.1-0.2
	c1.7-0.8,3.1-1.9,4-3.4c0-0.1,0-0.2,0-0.3c0.1-0.1,0.2-0.2,0.3-0.3c0.1,0,0.2-0.1,0.3-0.1c0,0.1,0.1,0.1,0.1,0.2
	c0.4,0.1,0.7,0.2,1.1,0.3c0.9,0.4,1.8,1.1,2.6,2c0.2-0.1,0.2-0.2,0.2-0.3c-0.4-1-1.5-1.8-3.1-2.3c-0.3-0.1-0.6-0.2-0.9-0.2
	c0-0.1,0-0.2,0-0.3c0.7-1,0.6-1.5-0.2-1.6c0-0.1,0-0.2,0-0.3s0-0.2,0.1-0.2c0.5-0.5,0.3-1-0.6-1.6c0-0.1,0-0.2-0.1-0.2
	c-0.7-1-1.3-2.2-1.9-3.4c0.7,0,1.3,0,1.9,0c0.9,0.1,1.7,0.2,2.5,0.4c0.1,0,0.2,0,0.3,0c1.1-1.5,0.5-2.8-1.6-3.7
	c-0.1,0-0.1-0.1-0.1-0.2c0-0.1,0-0.2,0-0.3c0.9-0.5,1.1-0.8,0.6-0.7c-0.1,0-0.2,0-0.3,0c0-0.1,0-0.2-0.1-0.3
	c-0.2-0.8-0.5-0.8-0.9,0.1c0,0.1,0,0.2,0,0.3s0,0.2,0,0.3c-0.1,0-0.2,0-0.3,0C64.9,35,64.5,35,64.1,35c-1.4-0.2-2.9-0.2-4.5-0.1
	c0.7-0.6,1.4-1.2,1.9-2c0-0.1,0-0.1,0.1-0.2c0.1,0,0.2,0,0.3-0.1c0.5-0.3,1-0.6,1.5-0.9c0.6-0.5,1.2-1,1.8-1.6
	c-0.1,0-0.2,0.1-0.4,0.1c-0.5,0.3-1,0.6-1.6,0.9c-0.7,0.5-1.5,0.9-2.2,1.3c0,0.1,0,0.2,0,0.3c-0.1,0-0.2,0-0.2,0.1
	c-0.4,0.6-0.9,1.1-1.6,1.4c0,0.1,0,0.2,0,0.3c-0.9,0.9-1.4,0.9-1.6-0.2v-0.1c-0.1-1.1-0.5-1.8-1.2-2.4c2.2-2,3.1-4.5,2.7-7.6
	c0-0.1,0-0.2,0-0.3c0.1,0,0.2-0.1,0.2-0.1c1.5-2,1.4-2.2-0.3-0.5c0,0.1,0,0.2,0,0.3c-0.1,0-0.2,0-0.3,0s-0.2,0-0.3,0
	c-0.7,0-1.2-0.2-1.4-0.8c0-0.1,0-0.1-0.1-0.2c-0.4-0.3-0.5-0.9-0.5-1.7c0.9-1.2,1.6-2.5,2.2-3.9l0,0c0,0,0.1-0.1,0.2-0.1
	c-0.1-1.4,0.1-2.5,0.7-3.2c0-0.1,0.1-0.1,0.2-0.1c0.1-0.4,0.1-0.8,0.1-1.2c0-0.2,0-0.5,0-0.7c0-0.1,0-0.2,0-0.3
	c1-1.3,1.8-2.9,2.3-4.7c0.1-0.1,0.1-0.2,0-0.3h0.1c0.1-1.1,0-2-0.4-2.5c-1,0.3-1.6,1.1-1.7,2.4c-0.1,0.9-0.3,1.8-0.7,2.8
	c-0.7,1.6-1.3,3.3-1.8,5c-0.7,2.6-1.6,4.4-2.7,5.6c-0.1,0-0.1,0-0.2,0c-1.2,3.2-2.8,6-4.9,8.4c0,0.1,0,0.2,0,0.3
	c0.2,2.1-0.4,2.6-1.7,1.8H48c-0.5-2.4-1.9-4-4.2-4.9C44,26,44,26.1,44,26.1c-0.5,1.2-0.1,1.9,1.3,2c-1,0.7-1.5,1.8-1.5,3.1
	c0,0.8-0.3,1.3-0.6,1.3c-1,0.2-2,0.2-3.1,0c0,0.1,0,0.2,0,0.3c-0.1,0-0.2,0-0.2-0.1c-0.4-0.4-0.9-0.6-1.5-0.7
	c0.3,0.5,0.7,0.8,1.2,1.1c0.1,0,0.2,0,0.3,0c0,0.4,0.2,0.7,0.5,0.8c0.3,0.2,0.5,0.4,0.4,0.6c-0.1,2.1-1.5,3.6-4.4,4.7
	c0-0.1,0-0.2,0-0.3c0.2-1,0.1-1.9-0.3-2.8c-0.5-1-1.4-1.7-2.7-2.3c0-0.1-0.1-0.2-0.1-0.3c-0.5-1.1-1-2.2-1.6-3.3
	c0-0.1,0-0.2-0.1-0.4c-0.3-0.8-0.6-1.5-1.1-2.1c0-0.1,0-0.2,0-0.3c0-0.9-0.7-1.5-2.1-1.7c0-0.1-0.1-0.1-0.1-0.2
	c-0.5-0.3-1-0.5-1.6-0.6c0.1,0.9,0.5,1.3,1.4,1.2c0.1-0.1,0.2-0.1,0.3-0.1c0.5,0.5,1.1,1,1.6,1.5c0.1,0.1,0.1,0.1,0.1,0.2
	c0.2,1.1,0.6,2.1,1.1,3c0,0,0.1,0.1,0.2,0.1c0.2,1.2,0.6,2.2,1.2,3c0.1,0.1,0.1,0.2,0.2,0.3c0,0.1,0,0.2,0,0.3
	c0.1,0.7-0.3,0.9-1.2,0.8c-0.1,0-0.2,0-0.3,0c-0.6-0.3-1-0.7-1.4-1.1c0-0.1-0.1-0.2-0.2-0.2c-0.4-0.5-0.9-1-1.3-1.5
	c0-0.1,0-0.2-0.1-0.2c-0.5-0.1-0.8-0.6-0.7-1.3c0-0.1,0-0.2-0.1-0.2c-0.6-0.9-1.3-1.7-2.1-2.4c0-0.1,0-0.2,0-0.3
	c-0.1-0.3-0.3-0.5-0.7-0.6c0-0.1,0-0.2-0.1-0.2c-0.4-0.5-0.8-0.9-1.3-1.2c0-0.1,0-0.2-0.1-0.2C22.6,24.8,21.9,23.9,21,23.2 M35.1,77
	c0.7,0.9,0.7,0.8-0.1-0.3C35.1,76.8,35.1,76.9,35.1,77 M33.7,64.2c0.3,0.6,0.6,0.3,0.9-0.8C34.9,62.1,34.6,62.4,33.7,64.2 M36,64.6
	c0,0.1,0,0.2,0.1,0.2C37.1,65.3,37,65.2,36,64.6 M35.1,71.4L35.1,71.4C36.4,70.3,36.4,70.3,35.1,71.4 M37.1,69.8
	c0,0.1,0.1,0.2,0.1,0.2C38.3,70.5,38.2,70.5,37.1,69.8 M29.6,72.9c0,0.1,0,0.2,0.1,0.2C30.8,73.6,30.7,73.6,29.6,72.9 M28,67.2
	c1.1,0.5,1,0.4-0.1-0.2C28,67.2,28,67.2,28,67.2 M30.3,62l0.1,0.2C31.9,61.6,31.9,61.5,30.3,62 M4.4,28.1l0.4,0.3
	C6,28.2,5.9,28,4.4,28.1 M10.5,22.7c0.1,0.7,0.4,0.9,1,0.8C13.2,23.3,12.8,23.1,10.5,22.7 M9.5,25c1.4-0.2,1.2-0.4-0.8-0.8
	C8.9,24.8,9.1,25,9.5,25 M9.3,22.6c1.6-0.3,1.3-0.6-0.7-0.9C8.5,22.4,8.7,22.7,9.3,22.6 M33.6,28.7c0,0.1,0.1,0.2,0.1,0.2
	C36.3,30.3,36.3,30.2,33.6,28.7 M22.2,16.7c0,0.1,0,0.2,0.1,0.2C23.4,17.5,23.4,17.4,22.2,16.7z"/>
</svg>
