<?xml version="1.0" encoding="utf-8"?>
<!-- Generator: Adobe Illustrator 25.2.1, SVG Export Plug-In . SVG Version: 6.00 Build 0)  -->
<svg version="1.1" xmlns="http://www.w3.org/2000/svg" xmlns:xlink="http://www.w3.org/1999/xlink" x="0px" y="0px"
	 viewBox="0 0 306.4 46.2" style="enable-background:new 0 0 306.4 46.2;" xml:space="preserve">
<style type="text/css">
	.st0{display:none;}
	.st1{display:inline;}
	.st2{fill:#FFFFFF;}
	.st3{fill:#D51F26;}
</style>
<g id="Layer_2" class="st0">
	<rect class="st1" width="306.4" height="46.2"/>
</g>
<g id="Layer_1">
	<g>
		<path class="st2" d="M296.4,19.9c-0.1,0.9-0.3,1.8-0.5,2.8c-0.7,0-1.5,0-2.4,0c0.3-1.5,0.7-2.8,0.8-4.1c0.2-1.9,0.2-3.7,0.2-5.6
			c0-1.1,0-2.2,0-3.3c1.7,0.1,1.8,0.2,1.9,1.4c0.1,1.8,0,3.6,0,5.4c0,0.2,0.1,0.5,0.1,0.7C296.5,18.1,296.5,19,296.4,19.9z
			 M298.6,10c-0.8-1.7-2-2.6-3.9-2.2c-0.4,0.1-0.8,0.2-1.2,0.2c-0.8,0-1.4,0.4-1.8,1.3c0.5,0.3,1,0.5,1.6,0.8
			c-0.1,2-0.3,4.1-0.3,6.2c-0.1,2.1,0,4.2,0,6.4c-0.7,0.2-1.4,0.2-1.3,1c0.1,0.6,0.7,0.9,1.3,0.9c0.4,0,0.9,0.1,1.3,0
			c2.5-0.4,2.5-0.8,3-2.4c0.8-2.3,1-4.7,1.4-7.1C299.1,13.3,299.4,11.6,298.6,10z M289.4,22.6h-3.6l0-0.1c0-0.1-0.1-0.2-0.1-0.3
			c-0.1-1.4-0.2-2.7-0.2-4.1l-0.1-1.1c0.1-0.1,0.2-0.1,0.4-0.1c0.3-0.1,0.5-0.2,0.8-0.3c0.6-0.2,0.9-0.6,0.9-1.4l0-0.1h-2.1V10
			c1.7-0.2,2.4-0.7,2.6-1.9l0-0.1l-0.1,0l0,0l-0.2-0.1c-1.1,0.1-1.9,0-2.7-0.3c-0.3-0.1-0.6-0.1-0.9,0.2c-0.4,0.3-0.7,0.8-0.7,1.3
			c0,0.1,0,0.3,0.1,0.4c0.1,0.6,0.2,1.2,0.2,1.8c0,0.5,0,0.9-0.1,1.4c0,0.2,0,0.4-0.1,0.7c0,0.1,0,0.3,0,0.4c0,0.3,0,0.5-0.1,0.8
			c-0.3,1.3-0.3,2.2,0,3.1c0.1,0.2,0.1,0.3,0.1,0.5l0,0.1c0,1.5,0,3.1,0.1,4.6c0,0.7,0.3,1.2,0.7,1.5c0.3,0.2,0.6,0.3,0.9,0.3
			c0.3,0,0.5-0.1,0.8-0.2c0.4-0.1,0.8-0.2,1.2-0.3l0.2,0c0.1,0,0.3,0,0.4,0c0.2,0,0.3,0,0.5,0c0.7-0.1,1-0.5,1-1.3L289.4,22.6z
			 M280.5,21.1c-0.1-0.6-0.2-1.1-0.3-1.6c-0.2-0.8-0.3-1.6-0.3-2.3c0-1.2-0.5-2-1.6-2.7c-0.4-0.2-0.8-0.4-1-0.7l-0.1-0.1
			c-0.4-0.4-0.8-0.8-0.9-1.3c-0.2-0.7-0.3-1.4-0.4-2c0-0.2,0-0.4-0.1-0.6c0-0.1,0-0.2,0.1-0.4l0-0.1c0.9-0.2,1.5-0.1,2.2,0.1
			c0.1,0,0.2,0,0.3,0.1c0,0.2,0,0.5,0,0.8c0,0.7,0,1.6,0.7,2c0.1,0.1,0.4,0.1,0.5,0c0.7-0.5,0.6-1.3,0.5-1.9c0-0.2-0.1-0.4-0.1-0.5
			c-0.1-1.9-0.6-2.1-3.1-2.1c-1,0-1.9,0.4-2.4,1c-0.3,0.3-0.4,0.8-0.4,1.2l0,0.6c0.1,0.6,0.1,1.3,0.1,1.9c0,1.7,0.9,2.9,2.5,3.6
			c1.7,0.7,1.8,1.7,1.7,2.4c0,0.5,0,1,0.1,1.5c0,0.3,0.1,0.6,0.1,0.9c0,0.6,0,1.1,0,1.7c0,0.2,0,0.4,0,0.5c-0.9,0.2-1.5,0.2-1.7,0
			c-0.2-0.1-0.2-0.4-0.2-0.9c0-1.3,0-2.6,0-3.8l0-0.9c0-0.1,0.1-0.3,0-0.5c-0.1-0.2-0.3-0.2-0.6-0.2h0c-0.6,0-0.7,0.5-0.8,0.8l0,0.1
			c-0.1,0.2-0.2,0.4-0.2,0.6c-0.3,0.6-0.5,1.3-0.4,2c0.2,0.8,0.3,1.6,0.3,2.4c0,0.3,0,0.6,0.1,1c0,0.5,0.4,0.9,0.8,1.2
			c0.3,0.2,0.8,0.3,1.3,0.3c0.8,0,1.7-0.2,2.3-0.5c0.4-0.2,0.7-0.5,0.7-0.8c0-0.2,0.1-0.4,0.1-0.6C280.5,22.2,280.6,21.7,280.5,21.1
			z M270.7,7.3c-1.2-0.2-1.6,0.1-1.6,1.2c-0.1,2.2-0.2,4.5-0.2,6.7c0,0.6,0,1.3,0,1.9c0,1.2,0,2.3,0,3.5c0,0.8-0.1,1.5-0.1,2.2
			c0,1,0.1,1.5,1.1,1.5c0.9,0,0.8-3.1,0.9-4.6c0.1-1.9,0-3.8,0-5.7c0-0.5,0.1-1.1,0.1-1.6C271.1,10.6,271.1,9,270.7,7.3z M264.2,7.9
			c-1,0-1,2.3-1.1,3.4c-0.2,1.2-0.2,2.4-0.3,3.7c-0.1,1.1-0.1,2.2-0.2,3.3c-0.8-1.7-1.2-3.4-1.7-5.1c-0.1-0.3-0.2-0.5-0.3-0.7
			c-0.4-0.9-0.7-1.9-1.1-2.8c-0.2-0.4-0.2-1.2-0.8-1.3c-1.2-0.3-1.2,1.4-1.3,2.2c0,1.1-0.1,2-0.1,3.3c-0.2,3.2-0.4,6.5-0.4,9.7
			c0,0.4,0,0.5,0.3,0.7c0.1,0.1,0.6,0.1,0.7-0.1c0.8-3.6,0.8-5,1.4-7.7c0.3,0.3,0.4,0.6,0.5,0.9c0.8,1.9,1.5,3.7,2.3,5.6
			c0.3,0.7,0.6,1.6,1.5,1.4c1.3-0.2,1-2.2,1.1-3.5c0.1-2.1,0.2-4.1,0.3-6.2c0.1-1.8,0.1-3.6,0.2-5.4C265.2,8.4,265.1,7.9,264.2,7.9z
			 M254.4,22.6h-3.6l0-0.1c0-0.1-0.1-0.2-0.1-0.3c-0.1-1.4-0.2-2.7-0.2-4.1l-0.1-1.1c0.1-0.1,0.2-0.1,0.4-0.1
			c0.3-0.1,0.5-0.2,0.8-0.3c0.6-0.2,0.9-0.6,0.9-1.4l0-0.1h-2.1V10c1.7-0.2,2.4-0.7,2.6-1.9l0-0.1l-0.1,0l0,0l-0.2-0.1
			c-1.1,0.1-1.9,0-2.7-0.3c-0.3-0.1-0.6-0.1-0.9,0.2c-0.4,0.3-0.7,0.8-0.7,1.3c0,0.1,0,0.3,0.1,0.4c0.1,0.6,0.2,1.2,0.2,1.8
			c0,0.5,0,0.9-0.1,1.4c0,0.2,0,0.4-0.1,0.7c0,0.1,0,0.3,0,0.4c0,0.3,0,0.5-0.1,0.8c-0.3,1.3-0.3,2.2,0,3.1c0.1,0.2,0.1,0.3,0.1,0.5
			l0,0.1c0,1.5,0,3.1,0.1,4.6c0,0.7,0.3,1.2,0.7,1.5c0.3,0.2,0.6,0.3,0.9,0.3c0.3,0,0.5-0.1,0.8-0.2c0.4-0.1,0.8-0.2,1.2-0.3l0.2,0
			c0.1,0,0.3,0,0.4,0c0.2,0,0.3,0,0.5,0c0.7-0.1,1-0.5,1-1.3L254.4,22.6z M243.8,20.4c-0.9-1.3-0.9-2.1-1.2-3.7
			c-0.3-1.6-0.2-3.2,0.7-4.7c0.3-0.4,0.5-0.8,0.7-1.3c0.3-0.6,0.6-1.3,0.9-1.9c0.1-0.2,0.2-0.5,0.1-0.8c-0.1-0.5-0.5-0.8-0.9-0.4
			c-0.4,0.3-0.7,0.7-1,1c-1.1,1.4-1.8,3-2.5,4.6c-0.6,1.6-1.4,3.1-2.1,4.7c-0.2,0.4-0.5,0.7-0.8,1.1c-0.1-1.7,0-3.2,0.1-4.8
			c0.1-1.7,0.1-3.3,0.1-5c0-0.5-0.2-1.1-0.8-1.4c-0.6,0.2-0.8,0.5-0.8,1.2c-0.1,2.5-0.2,5-0.4,7.5c-0.1,1.9-0.4,3.8-0.5,5.7
			c-0.1,1.2,0.9,2.8,1.6,1.7c1.3-1.9,2.4-3.6,3.6-5.5c0.4,2,4.2,5.5,4.7,5.5C246.4,24.1,244.4,21.3,243.8,20.4z M230.6,21.8
			c-0.1,0.6-0.8,0.9-1.3,0.6c-0.5-0.3-0.6-0.7-0.7-1.5c-0.1-2.6-0.2-5.1-0.3-7.7c-0.1-1.1-0.5-2.5-0.1-2.9c0.4-0.4,0.8-0.4,1.2-0.4
			c0.4,0,0.7,0.3,0.7,0.7c0.2,3.5,0.4,7,0.6,10.4C230.7,21.2,230.7,21.5,230.6,21.8z M232.6,21.3c0-1.5-0.1-3-0.2-4.4
			c-0.2-2.7,0.4-6.2-0.7-8.3c-0.5-0.9-2-0.6-3.1-0.6c-1.3-0.1-1.9,0.4-2,1.7c-0.1,1,0,2,0,3.1c0,1.5,0,3,0,4.4
			c0,1.4-0.2,2.7-0.1,4.1c0.1,1.2,0.8,2.3,1.9,2.9c1.8,1.1,3.4,0.6,4.1-1.3C232.6,22.4,232.6,21.8,232.6,21.3z M222.8,8.1l0-0.2
			l-0.2,0c-0.1,0-0.2,0-0.3-0.1c-0.3-0.1-0.6-0.1-0.9-0.1c-1.3,0.2-2.5,0-3.9-0.2c-0.3,0-0.6-0.1-0.9-0.1c0,0-0.8-0.1-1.1,0.2
			c-0.2,0.3-0.3,0.8,0,1.1c0.3,0.3,0.8,0.6,1.3,0.9c0.3,0.1,0.6,0.2,1,0.3c0.1,0,0.2,0,0.4,0.1c0,0.1,0,0.3,0,0.4
			c0,0.4-0.1,0.8-0.1,1.2c0,0.4,0.1,0.8,0.2,1.1c0,0.2,0.1,0.4,0.1,0.7c0,0.1,0,0.2,0,0.3c0,0.1,0,0.2,0,0.3c0,0.7,0,1.1,0,1.4
			c0,0.2,0,0.4,0,0.7c0,0.2,0,0.5,0.1,0.7c0,0.3,0.1,0.5,0.1,0.8c0,0.4,0,0.8,0,1.2c0,0.6,0,1.2,0,1.8c0.1,0.8,0.2,1.7,0.4,2.9
			l0,0.2c0,0.4,0.1,0.9,0.6,1l0.1,0c0.1,0,0.3-0.1,0.4-0.2c0.5-0.4,0.5-1.6,0.5-3.3c0-0.3,0-0.6,0-0.9c0.1-4.1,0-5.3-0.3-8.6
			c-0.1-0.5-0.1-1.1-0.2-1.7c0.1,0,0.3,0,0.4,0c0.4,0,0.8-0.1,1.2-0.1c0.6-0.1,1-0.2,1.2-0.5C223,9.2,222.9,8.8,222.8,8.1z
			 M206.2,21.1c-0.1-0.6-0.2-1.1-0.3-1.6c-0.2-0.8-0.3-1.6-0.3-2.3c0-1.2-0.5-2-1.6-2.7c-0.4-0.2-0.8-0.4-1-0.7l-0.1-0.1
			c-0.4-0.4-0.8-0.8-0.9-1.3c-0.2-0.7-0.3-1.4-0.4-2c0-0.2,0-0.4-0.1-0.6c0-0.1,0-0.2,0.1-0.4l0-0.1c0.9-0.2,1.5-0.1,2.2,0.1
			c0.1,0,0.2,0,0.3,0.1c0,0.2,0,0.5,0,0.8c0,0.7,0,1.6,0.7,2c0.1,0.1,0.4,0.1,0.5,0c0.7-0.5,0.6-1.3,0.5-1.9c0-0.2-0.1-0.4-0.1-0.5
			c-0.1-1.9-0.6-2.1-3.1-2.1c-1,0-1.9,0.4-2.4,1c-0.3,0.3-0.4,0.8-0.4,1.2l0,0.6c0.1,0.6,0.1,1.3,0.1,1.9c0,1.7,0.9,2.9,2.5,3.6
			c1.7,0.7,1.8,1.7,1.7,2.4c0,0.5,0,1,0.1,1.5c0,0.3,0.1,0.6,0.1,0.9c0,0.6,0,1.1,0,1.7c0,0.2,0,0.4,0,0.5c-0.9,0.2-1.5,0.2-1.7,0
			c-0.2-0.1-0.2-0.4-0.2-0.9c0-1.3,0-2.6,0-3.8l0-0.9c0-0.1,0.1-0.3,0-0.5c-0.1-0.2-0.3-0.2-0.6-0.2h0c-0.6,0-0.7,0.5-0.8,0.8l0,0.1
			c-0.1,0.2-0.2,0.4-0.2,0.6c-0.3,0.6-0.5,1.3-0.4,2c0.2,0.8,0.3,1.6,0.3,2.4c0,0.3,0,0.6,0.1,1c0,0.5,0.4,0.9,0.8,1.2
			c0.3,0.2,0.8,0.3,1.3,0.3c0.8,0,1.7-0.2,2.3-0.5c0.4-0.2,0.7-0.5,0.7-0.8c0-0.2,0.1-0.4,0.1-0.6C206.2,22.2,206.3,21.7,206.2,21.1
			z M197.8,22.6h-3.6l0-0.1c0-0.1-0.1-0.2-0.1-0.3c-0.1-1.4-0.2-2.7-0.2-4.1l-0.1-1.1c0.1-0.1,0.2-0.1,0.4-0.1
			c0.3-0.1,0.5-0.2,0.8-0.3c0.6-0.2,0.9-0.6,0.9-1.4l0-0.1h-2.1V10c1.7-0.2,2.4-0.7,2.6-1.9l0-0.1l-0.1,0l0,0l-0.2-0.1
			c-1.1,0.1-1.9,0-2.7-0.3c-0.3-0.1-0.6-0.1-0.9,0.2c-0.4,0.3-0.7,0.8-0.7,1.3c0,0.1,0,0.3,0.1,0.4c0.1,0.6,0.2,1.2,0.2,1.8
			c0,0.5,0,0.9-0.1,1.4c0,0.2,0,0.4-0.1,0.7c0,0.1,0,0.3,0,0.4c0,0.3,0,0.5-0.1,0.8c-0.3,1.3-0.3,2.2,0,3.1c0.1,0.2,0.1,0.3,0.1,0.5
			l0,0.1c0,1.5,0,3.1,0.1,4.6c0,0.7,0.3,1.2,0.7,1.5c0.3,0.2,0.6,0.3,0.9,0.3c0.3,0,0.5-0.1,0.8-0.2c0.4-0.1,0.8-0.2,1.2-0.3l0.2,0
			c0.1,0,0.3,0,0.4,0c0.2,0,0.3,0,0.5,0c0.7-0.1,1-0.5,1-1.3L197.8,22.6z M186.2,10c-0.1,1-0.1,2-0.3,3.1c0,0.2-0.2,0.5-0.4,0.7
			l-0.1,0.1c-0.1,0.2-0.3,0.4-0.5,0.5l-0.1,0.1c0-0.2-0.1-0.5-0.1-0.7c-0.2-1.5-0.4-2.9-0.4-4.4c0.2,0,0.3,0,0.4-0.1
			c0.3,0,0.6-0.1,0.8-0.1c0.2,0,0.4,0,0.5,0.1c0.1,0.1,0.1,0.2,0.1,0.4L186.2,10z M189.2,23.4l0-0.2c0-0.4-0.1-0.6-0.2-0.8
			c-0.1-0.2-0.1-0.4-0.2-0.6c-0.2-0.8-0.4-1.5-0.6-2.3c-0.3-1.4-0.7-2.8-1-4.3c-0.1-0.3-0.1-0.5,0-0.7c0.8-1.5,0.7-3.1,0.7-4.6
			c0-0.2,0-0.4,0-0.6c0-0.5-0.2-0.9-0.5-1.2c-0.4-0.3-1-0.5-1.8-0.3c-0.2,0-0.3,0.1-0.5,0.1c-0.3,0.1-0.6,0.1-0.9,0.1
			c-0.1,0-0.2,0-0.3-0.1c-0.2-0.1-0.5-0.2-0.7,0.1c-0.3,0.3-0.4,0.6-0.4,0.9c0,1,0,2,0.1,3.1c0,0.1,0,0.3,0,0.4c0,0.3,0.1,0.7,0,1
			c-0.1,1-0.1,2,0,2.9c0.3,1.8,0.5,3.8,0.2,5.7c-0.1,0.4,0,0.9,0,1.3c0.2,0.9,0.6,1,1.7,0.9l0.1,0l0-0.1c0.5-2.9,0.3-5.9,0.1-8.3
			l0.7,0c0.1,0.3,0.2,0.7,0.3,1c0.2,0.8,0.5,1.6,0.7,2.4c0.1,0.5,0.2,1,0.4,1.5c0.2,0.8,0.4,1.5,0.6,2.4c0.1,0.4,0.1,0.5,0.3,0.7
			l0.1,0.1c0.1,0.2,0.4,0.5,0.7,0.5l0.2-0.1C189.4,24,189.3,23.7,189.2,23.4z M174.3,18.5c0-0.1,0-0.3,0-0.4c0-0.5,0-0.9,0-1.3
			c0.1-1.3,0.2-2.6,0.3-3.9l0.1-1.8c0-0.4,0.4-0.7,0.6-0.8c0.4-0.1,0.8-0.2,1.3-0.2l0.2,0.2c0.1,0.3,0.2,0.7,0.2,1.1
			c0,1.4,0.1,2.9,0.1,4.3l0,2c0,0.2,0,0.3,0,0.5l0,0.1C176.3,18.5,175.4,18.6,174.3,18.5z M179.1,21.6c0-0.4,0-0.9,0-1.3
			c0-0.8,0-1.6,0-2.5l0-1.3c0-2,0-4-0.1-6c-0.1-0.8-0.4-1.2-0.9-1.6c-0.2-0.1-0.3-0.2-0.5-0.3l-0.1-0.1c-0.9-0.6-1.8-0.6-2.6-0.1
			c-0.8,0.5-1.7,1.2-1.8,2.5c0,0.1,0,0.2-0.1,0.3l-0.1,0.2c-0.1,0.3-0.1,0.6-0.2,0.9c-0.2,0.8-0.4,1.6-0.4,2.4c0,1-0.1,2-0.1,3
			c0,0.5,0,1.1-0.1,1.6c0,0.1,0,0.2,0,0.3l0,0.1l0.1,1c0,0.7,0.1,1.4,0.2,2.1c0,0.4,0.1,0.5,0.1,0.7c0,0.1,0.1,0.2,0.1,0.4
			c0.1,0.3,0.4,0.5,0.6,0.6l0,0c0.2,0,0.4-0.2,0.6-0.4c0.1-0.1,0.2-0.4,0.2-0.5c0-0.2,0-0.3,0-0.4c0-0.1,0-0.2,0-0.5l0-2.2
			c0.1,0,0.3,0,0.4,0c0.4,0,0.9,0,1.3-0.1c0.4-0.1,0.8-0.2,1.2-0.3c0.1,0,0.2-0.1,0.3-0.1l0,0.1c0,0.2,0.1,0.4,0.1,0.6
			c0,0.4,0,0.7,0.1,1.1c0,0.4,0,0.9,0.1,1.3l0,0.1c0,0.4,0.1,0.9,0.4,1.2c0.1,0.1,0.3,0.2,0.5,0.1c0.6-0.1,0.6-0.9,0.7-1.3
			C179.2,22.6,179.2,22.1,179.1,21.6z M168.7,9.1c0.1-0.8-0.1-1.5-1.1-1.6c-0.9-0.2-1.4,0.3-1.7,1.1c-0.2,0.4-0.3,0.8-0.4,1.2
			c-0.3,1.2-1.3,5.3-1.7,5.3c-0.6,0-0.6-1.1-0.8-1.6c-0.5-1.6-0.9-3.2-1.5-4.8c-0.5-1.4-0.9-1.5-2.4-1.1c-0.1,0.9-0.3,1.8-0.2,2.7
			c0.2,3.9,0.3,7.8-0.4,11.6c-0.2,1.1-0.1,2.3,1.2,2.2c0.4-0.1,0.6-0.6,0.7-0.9c0.4-3.5,0.6-6.3,1-10.3c0.7,2.4,1.7,4.3,2.4,6.5
			c1.3-1.8,1.4-3,2.6-4.4c0.1,2,0.3,3.9,0.3,5.7c0,1.8-0.6,3.7,1.2,3.4c0.6-0.1,0.8-1.2,0.8-1.5c0.1-2,0-1,0-3c0-0.5-0.1-1-0.1-1.5
			c0-2,0-3.9,0.1-5.9C168.5,11.2,168.6,10.2,168.7,9.1z M155,8.1l0-0.2l-0.2,0c-0.1,0-0.2,0-0.3-0.1c-0.3-0.1-0.6-0.1-0.9-0.1
			c-1.3,0.2-2.5,0-3.9-0.2c-0.3,0-0.6-0.1-0.9-0.1c0,0-0.8-0.1-1.1,0.2c-0.2,0.3-0.3,0.8,0,1.1c0.3,0.3,0.8,0.6,1.3,0.9
			c0.3,0.1,0.6,0.2,1,0.3c0.1,0,0.2,0,0.4,0.1c0,0.1,0,0.3,0,0.4c0,0.4-0.1,0.8-0.1,1.2c0,0.4,0.1,0.8,0.2,1.1
			c0,0.2,0.1,0.4,0.1,0.7c0,0.1,0,0.2,0,0.3c0,0.1,0,0.2,0,0.3c0,0.7,0,1.1,0,1.4c0,0.2,0,0.4,0,0.7c0,0.2,0,0.5,0.1,0.7
			c0,0.3,0.1,0.5,0.1,0.8c0,0.4,0,0.8,0,1.2c0,0.6,0,1.2,0,1.8c0.1,0.8,0.2,1.7,0.4,2.9l0,0.2c0,0.4,0.1,0.9,0.6,1l0.1,0
			c0.1,0,0.3-0.1,0.4-0.2c0.5-0.4,0.5-1.6,0.5-3.3c0-0.3,0-0.6,0-0.9c0.1-4.1,0-5.3-0.3-8.6c-0.1-0.5-0.1-1.1-0.2-1.7
			c0.1,0,0.3,0,0.4,0c0.4,0,0.8-0.1,1.2-0.1c0.6-0.1,1-0.2,1.2-0.5C155.2,9.2,155.2,8.8,155,8.1z M143.9,14.9c0.2-0.5,0.1-0.7-0.2-1
			c-0.1-0.1-0.1-0.4-0.1-0.6c0-0.5,0-1,0-1.5c0-1.1,0-2.3,0.1-3.4c0-0.6-0.1-1-0.7-1.1c-0.5-0.1-0.8,0.1-1,0.7
			c-0.1,0.6-0.1,1.2-0.2,1.8c-0.1,1.6-0.2,3.3-0.3,5c-0.8,0.2-1.5,0.3-2.3,0.5c0-0.6,0-1.1,0-1.6c0-1.4,0-2.8,0-4.2
			c0-0.6,0.1-1.7-0.7-1.7c-1,0-0.7,2.5-0.7,3.8c0,0.9,0.1,1.8,0.1,2.8c0,0.6,0,1.3-0.4,1.9c-0.1,0.2-0.1,0.5-0.1,0.7
			c0.3,1.7,0.5,4,0.2,5.7c-0.1,0.5-0.2,1.3,0.4,1.4c0.5,0.1,0.7-0.5,0.8-0.9c0.1-0.6,0.1-1.9,0.2-2.5c0-1,0.1-2,0.1-3.1
			c0.8-0.2,1.5-0.3,2.3-0.4c0.1,0.7,0.2,1.3,0.2,2c0.2,1.6,0.5,3.1,0.5,4.7c0,0.3,0.4,0.6,1,0.4c0.8-0.2,0.3-3.9,0.1-6.1
			c-0.1-0.7,0.1-1.5,0.3-2.1C143.9,15.5,143.8,15.2,143.9,14.9z M134.3,17.3c0.1-0.2,0-0.5-0.1-0.7c0-0.4-0.2-0.5-0.6-0.6
			c-0.8-0.1-2,0.5-2.5,1.3c0.5,0.1,1,0.2,1.4,0.4c-0.2,1.6-0.3,3.1-0.5,4.8c-0.3,0.1-0.6,0.2-1,0.3c-0.4,0.1-0.8-0.1-0.8-0.5
			c-0.1-0.5-0.1-1.1-0.1-1.6c0-0.2,0-0.5-0.1-0.7c-0.1-0.5-0.1-1,0-1.5c0.1-0.4,0.1-0.8,0.1-1.2c0-0.4-0.1-0.9,0-1.3
			c0.2-1.6,0-3.2,0.1-4.7c0-0.3-0.1-0.6,0-0.9c0.1-0.7,0.5-1,1.2-1.1c0.4,0,1.6,0.1,2,0c0.4-0.1,0.6-0.3,0.4-0.7
			c-0.1-0.2-0.3-0.4-0.5-0.4c-0.8-0.1-2.3-0.3-3-0.2c-0.3,0-0.7,0.3-0.9,0.6c-0.3,0.7-0.6,1.5-0.7,2.2c-0.2,1.4-0.2,2.8-0.3,4.1
			c0,0.6-0.1,1.1-0.1,1.7c-0.1,1.4-0.2,2.4-0.1,4.2c0.1,0.8,0,1.6,0.3,2.4c0.3,0.6,0.7,1,1.4,1c1.3,0.1,2.5-0.3,3.6-1.1
			c0.5-0.4,0.7-0.8,0.7-1.4C134.3,20.2,134,18.8,134.3,17.3z M124.7,7.3c-1.2-0.2-1.6,0.1-1.6,1.2c-0.1,2.2-0.2,4.5-0.2,6.7
			c0,0.6,0,1.3,0,1.9c0,1.2,0,2.3,0,3.5c0,0.8-0.1,1.5-0.1,2.2c0,1,0.1,1.5,1.1,1.5c0.9,0,0.8-3.1,0.9-4.6c0.1-1.9,0-3.8,0-5.7
			c0-0.5,0.1-1.1,0.1-1.6C125.1,10.6,125,9,124.7,7.3z M118.2,7.9c-1,0-1,2.3-1.1,3.4c-0.2,1.2-0.2,2.4-0.3,3.7
			c-0.1,1.1-0.1,2.2-0.2,3.3c-0.8-1.7-1.2-3.4-1.7-5.1c-0.1-0.3-0.2-0.5-0.3-0.7c-0.4-0.9-0.7-1.9-1.1-2.8c-0.2-0.4-0.2-1.2-0.8-1.3
			c-1.2-0.3-1.2,1.4-1.3,2.2c0,1.1-0.1,2-0.1,3.3c-0.2,3.2-0.4,6.5-0.4,9.7c0,0.4,0,0.5,0.3,0.7c0.1,0.1,0.6,0.1,0.7-0.1
			c0.8-3.6,0.8-5,1.4-7.7c0.3,0.3,0.4,0.6,0.5,0.9c0.8,1.9,1.5,3.7,2.3,5.6c0.3,0.7,0.6,1.6,1.5,1.4c1.3-0.2,1-2.2,1.1-3.5
			c0.1-2.1,0.2-4.1,0.3-6.2c0.1-1.8,0.1-3.6,0.2-5.4C119.2,8.4,119.1,7.9,118.2,7.9z M101.2,8.1l0-0.2L101,8c-0.1,0-0.2,0-0.3-0.1
			c-0.3-0.1-0.6-0.1-0.9-0.1c-1.3,0.2-2.5,0-3.9-0.2c-0.3,0-0.6-0.1-0.9-0.1c0,0-0.8-0.1-1.1,0.2c-0.2,0.3-0.3,0.8,0,1.1
			c0.3,0.3,0.8,0.6,1.3,0.9c0.3,0.1,0.6,0.2,1,0.3c0.1,0,0.2,0,0.4,0.1c0,0.1,0,0.3,0,0.4c0,0.4-0.1,0.8-0.1,1.2
			c0,0.4,0.1,0.8,0.2,1.1c0,0.2,0.1,0.4,0.1,0.7c0,0.1,0,0.2,0,0.3c0,0.1,0,0.2,0,0.3c0,0.7,0,1.1,0,1.4c0,0.2,0,0.4,0,0.7
			c0,0.2,0,0.5,0.1,0.7c0,0.3,0.1,0.5,0.1,0.8c0,0.4,0,0.8,0,1.2c0,0.6,0,1.2,0,1.8c0.1,0.8,0.2,1.7,0.4,2.9l0,0.2
			c0,0.4,0.1,0.9,0.6,1l0.1,0c0.1,0,0.3-0.1,0.4-0.2c0.5-0.4,0.5-1.6,0.5-3.3c0-0.3,0-0.6,0-0.9c0.1-4.1,0-5.3-0.3-8.6
			c-0.1-0.5-0.1-1.1-0.2-1.7c0.1,0,0.3,0,0.4,0c0.4,0,0.8-0.1,1.2-0.1c0.6-0.1,1-0.2,1.2-0.5C101.4,9.2,101.4,8.8,101.2,8.1z
			 M90.7,21.1c-0.1-0.6-0.2-1.1-0.3-1.6c-0.2-0.8-0.3-1.6-0.3-2.3c0-1.2-0.5-2-1.6-2.7c-0.4-0.2-0.8-0.4-1-0.7l-0.1-0.1
			c-0.4-0.4-0.8-0.8-0.9-1.3c-0.2-0.7-0.3-1.4-0.4-2c0-0.2,0-0.4-0.1-0.6c0-0.1,0-0.2,0.1-0.4l0-0.1c0.9-0.2,1.5-0.1,2.2,0.1
			c0.1,0,0.2,0,0.3,0.1c0,0.2,0,0.5,0,0.8c0,0.7,0,1.6,0.7,2c0.1,0.1,0.4,0.1,0.5,0c0.7-0.5,0.6-1.3,0.5-1.9c0-0.2-0.1-0.4-0.1-0.5
			c-0.1-1.9-0.6-2.1-3.1-2.1c-1,0-1.9,0.4-2.4,1c-0.3,0.3-0.4,0.8-0.4,1.2l0,0.6c0.1,0.6,0.1,1.3,0.1,1.9c0,1.7,0.9,2.9,2.5,3.6
			c1.7,0.7,1.8,1.7,1.7,2.4c0,0.5,0,1,0.1,1.5c0,0.3,0.1,0.6,0.1,0.9c0,0.6,0,1.1,0,1.7c0,0.2,0,0.4,0,0.5c-0.9,0.2-1.5,0.2-1.7,0
			C87,22.6,87,22.3,87,21.8c0-1.3,0-2.6,0-3.8l0-0.9c0-0.1,0.1-0.3,0-0.5c-0.1-0.2-0.3-0.2-0.6-0.2h0c-0.6,0-0.7,0.5-0.8,0.8l0,0.1
			c-0.1,0.2-0.2,0.4-0.2,0.6c-0.3,0.6-0.5,1.3-0.4,2c0.2,0.8,0.3,1.6,0.3,2.4c0,0.3,0,0.6,0.1,1c0,0.5,0.4,0.9,0.8,1.2
			c0.3,0.2,0.8,0.3,1.3,0.3c0.8,0,1.7-0.2,2.3-0.5c0.4-0.2,0.7-0.5,0.7-0.8c0-0.2,0.1-0.4,0.1-0.6C90.6,22.2,90.7,21.7,90.7,21.1z
			 M79,10c-0.1,1-0.1,2-0.3,3.1c0,0.2-0.2,0.5-0.4,0.7l-0.1,0.1c-0.1,0.2-0.3,0.4-0.5,0.5l-0.1,0.1c0-0.2-0.1-0.5-0.1-0.7
			c-0.2-1.5-0.4-2.9-0.4-4.4c0.2,0,0.3,0,0.4-0.1c0.3,0,0.6-0.1,0.8-0.1c0.2,0,0.4,0,0.5,0.1C79,9.3,79.1,9.5,79,9.6L79,10z
			 M82,23.4l0-0.2c0-0.4-0.1-0.6-0.2-0.8c-0.1-0.2-0.1-0.4-0.2-0.6c-0.2-0.8-0.4-1.5-0.6-2.3c-0.3-1.4-0.7-2.8-1-4.3
			c-0.1-0.3-0.1-0.5,0-0.7c0.8-1.5,0.7-3.1,0.7-4.6c0-0.2,0-0.4,0-0.6c0-0.5-0.2-0.9-0.5-1.2c-0.4-0.3-1-0.5-1.8-0.3
			c-0.2,0-0.3,0.1-0.5,0.1c-0.3,0.1-0.6,0.1-0.9,0.1c-0.1,0-0.2,0-0.3-0.1c-0.2-0.1-0.5-0.2-0.7,0.1c-0.3,0.3-0.4,0.6-0.4,0.9
			c0,1,0,2,0.1,3.1c0,0.1,0,0.3,0,0.4c0,0.3,0.1,0.7,0,1c-0.1,1-0.1,2,0,2.9c0.3,1.8,0.5,3.8,0.2,5.7c-0.1,0.4,0,0.9,0,1.3
			c0.2,0.9,0.6,1,1.7,0.9l0.1,0l0-0.1c0.5-2.9,0.3-5.9,0.1-8.3l0.7,0c0.1,0.3,0.2,0.7,0.3,1c0.2,0.8,0.5,1.6,0.7,2.4
			c0.1,0.5,0.2,1,0.4,1.5c0.2,0.8,0.4,1.5,0.6,2.4c0.1,0.4,0.1,0.5,0.3,0.7l0.1,0.1c0.1,0.2,0.4,0.5,0.7,0.5l0.2-0.1
			C82.2,24,82.1,23.7,82,23.4z M70,21.8c-0.1,0.6-0.8,0.9-1.3,0.6c-0.5-0.3-0.6-0.7-0.7-1.5c-0.1-2.6-0.2-5.1-0.3-7.7
			c-0.1-1.1-0.5-2.5-0.1-2.9c0.4-0.4,0.8-0.4,1.2-0.4c0.4,0,0.7,0.3,0.7,0.7c0.2,3.5,0.4,7,0.6,10.4C70.1,21.2,70,21.5,70,21.8z
			 M71.9,21.3c0-1.5-0.1-3-0.2-4.4c-0.2-2.7,0.4-6.2-0.7-8.3C70.6,7.7,69,8,68,7.9c-1.3-0.1-1.9,0.4-2,1.7c-0.1,1,0,2,0,3.1
			c0,1.5,0,3,0,4.4c0,1.4-0.2,2.7-0.1,4.1c0.1,1.2,0.8,2.3,1.9,2.9c1.8,1.1,3.4,0.6,4.1-1.3C72,22.4,72,21.8,71.9,21.3z M62.5,8.1
			c-0.8-0.4-1.5,0.2-1.7,1c-0.3,1.3-0.7,2.7-0.8,4c-0.1,2.3-1,4.4-1.4,6.9c-1.1-1.8-0.9-3.6-1.2-5.3c-0.9,0.1-1.2,0.6-1.4,1.2
			c-0.5,1.6-1,3.2-1.5,5.1c-0.1-0.7-0.1-1-0.2-1.4c-0.3-3.3-0.5-5.8-0.4-8.7c0-0.8-0.1-3.3-1.2-3.1C52.3,8,52.3,8.6,52.2,9
			c-0.1,0.7,0.1,2.2,0.1,2.9c0.2,3.9,0.4,7.7,0.6,11.6c0,0.4,0.3,0.8,0.8,0.8c1,0,1.5-2.8,2.3-4.6c0.2,0.4,0.3,0.6,0.3,0.8
			c0.4,0.9,0.8,2.2,1.2,3.1c0.6,1,1.4,1,2-0.1c0.1-0.2,0.2-0.4,0.2-0.6c0.4-1.8,0.7-4,1.1-5.8s0.9-3.7,1.3-5.5
			C62.4,10.4,63.1,8.3,62.5,8.1z M40.4,10c-0.1,1-0.1,2-0.3,3.1c0,0.2-0.2,0.5-0.4,0.7l-0.1,0.1c-0.1,0.2-0.3,0.4-0.5,0.5l-0.1,0.1
			c0-0.2-0.1-0.5-0.1-0.7c-0.2-1.5-0.4-2.9-0.4-4.4c0.2,0,0.3,0,0.4-0.1c0.3,0,0.6-0.1,0.8-0.1c0.2,0,0.4,0,0.5,0.1
			c0.1,0.1,0.1,0.2,0.1,0.4L40.4,10z M43.5,23.4l0-0.2c0-0.4-0.1-0.6-0.2-0.8C43.1,22.2,43,22,43,21.7c-0.2-0.8-0.4-1.5-0.6-2.3
			c-0.3-1.4-0.7-2.8-1-4.3c-0.1-0.3-0.1-0.5,0-0.7c0.8-1.5,0.7-3.1,0.7-4.6c0-0.2,0-0.4,0-0.6c0-0.5-0.2-0.9-0.5-1.2
			c-0.4-0.3-1-0.5-1.8-0.3c-0.2,0-0.3,0.1-0.5,0.1c-0.3,0.1-0.6,0.1-0.9,0.1c-0.1,0-0.2,0-0.3-0.1c-0.2-0.1-0.5-0.2-0.7,0.1
			C37.1,8.2,37,8.6,37,8.8c0,1,0,2,0.1,3.1c0,0.1,0,0.3,0,0.4c0,0.3,0.1,0.7,0,1c-0.1,1-0.1,2,0,2.9c0.3,1.8,0.5,3.8,0.2,5.7
			c-0.1,0.4,0,0.9,0,1.3c0.2,0.9,0.6,1,1.7,0.9l0.1,0l0-0.1c0.5-2.9,0.3-5.9,0.1-8.3l0.7,0c0.1,0.3,0.2,0.7,0.3,1
			c0.2,0.8,0.5,1.6,0.7,2.4c0.1,0.5,0.2,1,0.4,1.5c0.2,0.8,0.4,1.5,0.6,2.4c0.1,0.4,0.1,0.5,0.3,0.7l0.1,0.1
			c0.1,0.2,0.4,0.5,0.7,0.5l0.2-0.1C43.6,24,43.5,23.7,43.5,23.4z M33.3,10.6c0-0.5-0.1-0.9,0-1.4c0-0.6,0-1.1-0.3-1.3
			c-0.2-0.2-0.4-0.2-0.8-0.2c-0.2,0-0.3,0.1-0.4,0.2c-0.6,0.7-0.4,3.1-0.3,3.8c0,0.3,0,0.8,0,1.2c0,0.2,0,0.4,0,0.5
			c0.1,3.1,0.1,5.8,0.2,8.4c0,0.2-0.1,0.4-0.2,0.6l-0.1,0.2c-0.1,0-0.2-0.1-0.3-0.1c-0.3-0.1-0.6-0.2-0.9-0.3
			c-0.2-0.1-0.4-0.4-0.4-0.6c0-0.2-0.1-0.4-0.2-0.7c-0.2-0.7-0.4-1.5-0.4-2.2c0-3.7-0.4-7-1.1-10.2c-0.2-0.6-0.5-1.1-0.9-1.1
			c-0.2,0-0.6,0-1,0.5c-0.3,0.4-0.1,0.9,0,1.3c0,0.1,0.1,0.2,0.1,0.3c0.3,1.3,0.5,2.8,0.5,4.5c0,0.4,0,0.9,0.1,1.3
			c0.1,0.7,0.1,1.4,0.1,2.1c-0.1,1.3,0,2.5,0.4,3.5c0.4,1.4,1.4,2.5,2.8,3.2c0.4,0.2,0.8,0.3,1.1,0.3c0.2,0,0.5,0,0.7-0.1
			c0.4-0.2,0.8-0.6,0.9-1.1c0.1-0.3,0.1-0.7,0.1-1l0-0.3c0-0.7,0-1.3,0-2c0-0.6,0-1.1,0-1.7c0-0.8,0-1.6,0-2.3
			c0-1.4,0.1-2.9,0.1-4.3C33.4,11.4,33.4,11,33.3,10.6z M20.8,21.8c-0.1,0.6-0.8,0.9-1.3,0.6c-0.5-0.3-0.6-0.7-0.7-1.5
			c-0.1-2.6-0.2-5.1-0.3-7.7c-0.1-1.1-0.5-2.5-0.1-2.9c0.4-0.4,0.8-0.4,1.2-0.4c0.4,0,0.7,0.3,0.7,0.7c0.2,3.5,0.4,7,0.6,10.4
			C20.9,21.2,20.9,21.5,20.8,21.8z M22.8,21.3c0-1.5-0.1-3-0.2-4.4c-0.2-2.7,0.4-6.2-0.7-8.3c-0.5-0.9-2-0.6-3.1-0.6
			c-1.3-0.1-1.9,0.4-2,1.7c-0.1,1,0,2,0,3.1c0,1.5,0,3,0,4.4c0,1.4-0.2,2.7-0.1,4.1c0.1,1.2,0.8,2.3,1.9,2.9
			c1.8,1.1,3.4,0.6,4.1-1.3C22.8,22.4,22.8,21.8,22.8,21.3z M13.6,8.1c-1-0.7-1.8,0.2-2.2,1.3c-0.1,0.2-0.2,0.5-0.3,0.7
			c-0.6,1.5-1.1,2.9-1.8,4.6c-0.3-0.4-0.9-1.2-1-1.5c-0.4-1.1-1-2.6-1.3-3.7C6.6,8.5,6.1,8.1,5.3,8.3C4.8,8.4,4.5,9,4.9,10
			c0.8,2,2.2,4.9,3.6,6.2c0.1,2.2,0.2,4.1,0.4,6.1C9,23,8.8,24.4,9.7,24.4c0.9,0,0.8-1,0.8-1.5c0.1-2.9-0.5-5.9,1.2-8.6
			c0.8-1.2,1-2.8,1.8-4C14.1,9.4,14.3,8.6,13.6,8.1z"/>
	</g>
	<path class="st3" d="M36.5,38.1c0,0,35.1,0.5,41,0.4c5.9-0.1,6.1,2.3,9.6,2.3c3.5,0,6.7,0,6.7,0s1.4,1,2.9-0.5s1.5-1.7,1.5-1.7
		s9.8,0,13.2-0.3c3.4-0.3,11.8-0.6,14-0.3c2.1,0.4,23.7,0.7,26.7,0.2c3-0.6,22.9-0.6,24.6-1.3c1.7-0.7,2.4-1.2,2.4-1.2
		s125.2,0.8,123.4,0c-1.7-0.8-32.5-2.7-52.8-3.2c-20.4-0.5-69.9,0.5-72.9,0c-3-0.5-12.2-0.7-19.9,1c-7.7,1.7-28.1-1.9-39.4-0.4
		c-8.6,1.2-11-0.4-24.1,0.4c-13.2,0.7-22.4,1.2-22.4,1.2s-5.4,0.2-8.1,0c-2.7-0.2-4.6,0-4.6,0s2.1,1.4-2,1.7
		c-4.1,0.3-5.8-1.1-9.7-0.6C42.7,36.2,36.5,38.1,36.5,38.1z"/>
</g>
</svg>
