<?xml version="1.0" encoding="utf-8"?>
<!-- Generator: Adobe Illustrator 25.4.1, SVG Export Plug-In . SVG Version: 6.00 Build 0)  -->
<svg version="1.1" id="Layer_1" xmlns="http://www.w3.org/2000/svg" xmlns:xlink="http://www.w3.org/1999/xlink" x="0px" y="0px"
	 viewBox="0 0 1496 932.4" style="enable-background:new 0 0 1496 932.4;" xml:space="preserve">
<style type="text/css">
	.st0{fill:#665A38;}
	.st1{fill:#F9BF1A;}
	.st2{fill:#F5D57A;}
	.st3{fill:#CAA94B;}
	.st4{fill:#4F4F51;}
	.st5{fill:#8A8C8E;}
	.st6{fill:#CFD1D2;}
	.st7{fill:#E92729;}
</style>
<g>
	<path class="st0" d="M318.8,92.6c46.6-16.9,507-190.8,891.4,15.6"/>
	<path d="M321.1,98.9c7.4-2.7,25.1-9.2,51.2-17.6c78.3-25.2,232.4-66.5,409.4-66.5c136.2,0,286,24.5,425.4,99.3l6.4-11.9
		C1071.5,26,919.5,1.3,781.7,1.3c-119.4,0-228.2,18.6-311,38.4c-41.4,9.9-76.2,20.2-102.6,28.7c-26.3,8.5-44.3,15.1-51.6,17.8
		L321.1,98.9L321.1,98.9z"/>
	<path d="M319.7,100.4c7.3-2.6,24.5-9,50.1-17.1c76.6-24.4,227.4-64.6,400.7-64.6c133.3,0,279.9,23.8,416.3,96.5l6.3-11.9
		c-139-74-287.8-98.1-422.7-98.1c-116.9,0-223.4,18-304.4,37.3c-40.5,9.7-74.6,19.6-100.4,27.9c-25.8,8.2-43.4,14.7-50.5,17.3
		L319.7,100.4L319.7,100.4z"/>
	<g>
		<path class="st0" d="M1489.3,467.5c0-253.1-331.9-460.7-741.3-460.7C338.6,6.7,6.7,214.4,6.7,467.5S338.6,925.7,748,925.7
			C1157.4,925.7,1489.3,720.5,1489.3,467.5z"/>
		<path d="M1489.3,467.5h6.7c0-64.8-21.3-126.6-59.4-182.5c-57.3-84-152.3-155.1-271.5-205.3C1045.8,29.3,902.4,0,748,0
			C542.2,0,355.7,52.1,220.3,136.5c-67.7,42.2-122.7,92.4-160.9,148.4C21.3,340.9,0,402.7,0,467.5c0,64.8,21.3,126.4,59.4,182.2
			c57.3,83.6,152.3,154.2,271.5,204c119.2,49.8,262.7,78.8,417,78.8c205.8,0,392.2-51.5,527.7-135.2
			c67.7-41.9,122.7-91.8,160.9-147.6c38.2-55.7,59.4-117.4,59.4-182.2H1489.3h-6.7c0,61.8-20.2,120.7-57.1,174.5
			c-55.3,80.8-148.2,150.2-265.6,199.2c-117.4,49-259.2,77.7-411.8,77.7c-203.6,0-387.8-51.1-520.6-133.2
			C161,744.7,107.4,695.9,70.6,642c-36.9-53.9-57.1-112.8-57.1-174.5c0-61.8,20.2-120.8,57.1-175C125.8,211.3,218.8,141.5,336.2,92
			C453.6,42.5,595.3,13.5,748,13.5c203.5,0,387.7,51.7,520.6,134.4c66.4,41.4,120,90.5,156.8,144.6c36.9,54.1,57.1,113.2,57.1,175
			H1489.3z"/>
		<path class="st1" d="M1463,458.2c0-245.8-324.8-447.5-725.6-447.5c-400.7,0-725.6,201.7-725.6,447.5s324.8,445.1,725.6,445.1
			C1138.2,903.3,1463,704.1,1463,458.2z"/>
		<path d="M1463,458.2h6.7c0-63-20.8-123.1-58.2-177.5c-56.1-81.6-149.1-150.7-265.8-199.5C1029,32.5,888.6,4,737.5,3.9
			C536,4,353.5,54.6,220.9,136.5c-66.3,41-120.1,89.8-157.5,144.2C26,335.2,5.2,395.3,5.2,458.2c0,63,20.8,122.9,58.2,177.1
			c56.1,81.3,149.1,149.9,265.8,198.2c116.7,48.4,257.1,76.5,408.2,76.5c201.5,0,384-50,516.6-131.4
			c66.3-40.7,120.1-89.2,157.5-143.4c37.4-54.2,58.2-114.1,58.2-177.1H1463h-6.7c0,60-19.8,117.1-55.8,169.4
			c-54.1,78.5-145,145.8-259.9,193.4c-114.9,47.6-253.7,75.5-403.1,75.5c-199.2,0-379.5-49.6-509.5-129.4
			c-65-39.9-117.4-87.3-153.5-139.6c-36.1-52.3-55.8-109.5-55.8-169.4c0-60,19.8-117.3,55.8-169.8c54.1-78.8,145-146.7,259.9-194.7
			c114.9-48,253.6-76.3,403.1-76.3C936.7,17.4,1117,67.6,1247,148c65,40.2,117.4,87.9,153.5,140.4c36.1,52.6,55.8,109.9,55.8,169.8
			H1463z"/>
		<path class="st2" d="M590.7,34.8c-50.6,4.8-121.7,15.6-203,42.3c-47.6,15.6-97.2,31.8-153.5,66.5c-41.6,25.6-196,120.6-214.2,279
			c-4.1,35.6-0.3,65.5,3.4,84.7c23.3-62.7,84.2-201.2,227.3-317.6C386,79.7,524.8,46.3,590.7,34.8z"/>
		<path class="st3" d="M1420.4,388.1c-43.8,76-134.6,210.2-297.6,321C934.3,837.2,749.3,866.3,659.9,874.4c47,3,117.8,4.4,202.5-6.9
			c95.1-12.6,251.7-35.3,395.4-147.4c55.8-43.5,143.8-112.1,163.9-227.3C1429.2,450.2,1425.3,413.3,1420.4,388.1z"/>
		<polygon class="st4" points="1313.3,452.7 1313.1,487.7 1342.6,505.3 1372.3,487.9 1372.4,453 1342.9,435.4 		"/>
		<path d="M1313.3,452.7l-1.9,0l-0.1,35c0,0.7,0.4,1.3,0.9,1.7l29.5,17.6c0.6,0.4,1.4,0.4,2,0l29.7-17.4c0.6-0.3,1-1,1-1.7l0.1-35
			c0-0.7-0.4-1.3-0.9-1.7l-29.5-17.6c-0.6-0.4-1.4-0.4-2,0l-29.7,17.4c-0.6,0.3-1,1-1,1.7L1313.3,452.7l1,1.7l28.7-16.8l27.6,16.5
			l-0.1,32.8l-27.7,16.2l-27.6-16.5l0.1-33.9L1313.3,452.7l1,1.7L1313.3,452.7z"/>
		<polygon class="st5" points="1310.3,453.9 1310.2,486 1337.9,502.2 1365.8,486.2 1365.9,454.1 1338.2,438 		"/>
		<path d="M1310.3,453.9l-1.9,0l-0.1,32.1c0,0.7,0.4,1.3,1,1.7l27.7,16.2c0.6,0.3,1.3,0.4,1.9,0l27.9-15.9c0.6-0.3,1-1,1-1.7
			l0.1-32.1c0-0.7-0.4-1.3-1-1.7l-27.7-16.2c-0.6-0.3-1.3-0.4-1.9,0l-27.9,15.9c-0.6,0.3-1,1-1,1.7L1310.3,453.9l1,1.7l26.9-15.4
			l25.8,15l-0.1,29.9l-25.9,14.8l-25.8-15l0.1-31L1310.3,453.9l1,1.7L1310.3,453.9z"/>
		<path class="st6" d="M1334.3,446.1l-19.7,10.3l-0.1,23.7c1.2-4.8,3.4-11.1,7.3-17.9C1326,454.9,1330.7,449.6,1334.3,446.1z"/>
		<line class="st5" x1="1357.6" y1="482.9" x2="1338.4" y2="494.4"/>
		<path d="M1352.5,478.5l-13.8,8.3c-0.5,0.3-0.6,0.9-0.3,1.3c0.3,0.5,0.9,0.6,1.3,0.3l13.8-8.3c0.5-0.3,0.6-0.9,0.3-1.3
			C1353.6,478.4,1353,478.3,1352.5,478.5"/>
		<line class="st5" x1="1356.1" y1="493" x2="1347.7" y2="498.4"/>
		<path d="M1351.5,485.8l-6.1,3.9c-0.5,0.3-0.6,0.9-0.3,1.3c0.3,0.5,0.9,0.6,1.3,0.3l6.1-3.9c0.5-0.3,0.6-0.9,0.3-1.3
			C1352.5,485.7,1351.9,485.5,1351.5,485.8"/>
		<polygon class="st4" points="147.5,425.3 109.1,425.3 90,457.8 109.1,490.2 147.5,490.2 166.7,457.8 		"/>
		<path d="M147.5,425.3v-2h-38.4c-0.7,0-1.4,0.4-1.7,1l-19.2,32.4c-0.4,0.6-0.4,1.4,0,2l19.2,32.4c0.4,0.6,1,1,1.7,1h38.4
			c0.7,0,1.4-0.4,1.7-1l19.2-32.4c0.4-0.6,0.4-1.4,0-2l-19.2-32.4c-0.4-0.6-1-1-1.7-1V425.3l-1.7,1l18.6,31.4l-18,30.4h-36.1
			l-18-30.4l18-30.4h37.2V425.3l-1.7,1L147.5,425.3z"/>
		<polygon class="st5" points="141.3,425.3 106.1,425.3 88.5,455.8 106.1,486.3 141.3,486.3 159,455.8 		"/>
		<path d="M141.3,425.3v-2h-35.2c-0.7,0-1.4,0.4-1.7,1l-17.6,30.5c-0.4,0.6-0.4,1.4,0,2l17.6,30.5c0.4,0.6,1,1,1.7,1h35.2
			c0.7,0,1.4-0.4,1.7-1l17.6-30.5c0.4-0.6,0.4-1.4,0-2l-17.6-30.5c-0.4-0.6-1-1-1.7-1V425.3l-1.7,1l17,29.5l-16.4,28.5h-32.9
			l-16.4-28.5l16.4-28.5l34,0V425.3l-1.7,1L141.3,425.3z"/>
		<path class="st6" d="M133.9,431.5h-24.3l-12.2,22.9c3.6-4,8.9-9,16.2-13.7C121.2,435.8,128.5,433.1,133.9,431.5z"/>
		<line class="st5" x1="142.6" y1="453.3" x2="131.1" y2="474"/>
		<path d="M137.9,453.9l-8.5,15.5c-0.3,0.5-0.1,1.1,0.4,1.4c0.5,0.3,1.1,0.1,1.4-0.4l8.5-15.5c0.3-0.5,0.1-1.1-0.4-1.4
			C138.8,453.3,138.2,453.4,137.9,453.9"/>
		<line class="st5" x1="146.6" y1="463.3" x2="141.8" y2="472.7"/>
		<path d="M140.9,461.4l-3.6,7c-0.3,0.5-0.1,1.1,0.4,1.4c0.5,0.3,1.1,0.1,1.4-0.4l3.6-7c0.3-0.5,0.1-1.1-0.4-1.4
			C141.8,460.7,141.2,460.9,140.9,461.4"/>
	</g>
	<g>
		<g>
			<path class="st7" d="M504.3,372.5c-0.9,5.4-3.9,13.1-9.2,23c-5.2,9.9-8.3,17.6-9.2,23l-0.5,2.9c0.9,2.4,1.2,4.6,0.9,6.5
				c-0.8,5.1-5,8.7-12.5,10.7c-1.1,0.8-2.9,2.5-5.2,5c0.4-0.3,0.7-0.4,1-0.3l-0.1,0.5c-0.2,1.3-6.9,6.9-20.2,16.8
				c-13.2,9.9-20.9,15.2-22.9,15.9l0.5,0.1c-0.1,0.3-1,1-2.8,2c-1.8,1-3.2,1.3-4.1,0.8c-1.3,2.1-3.1,2.9-5.3,2.6l-1.3,1.8l-2.1,1.1
				c-1.7,4.3-9.8,8.7-24.2,13.2l-1-0.2c-1.9-0.3-5.6,1.5-11.2,5.5l-1.4-0.2l-1.3,1.8l-1,0.3l-1.9-0.3c-1.1,0.5-2.7,1.4-4.8,2.6
				l-2,0.2l-1.4-0.7l-2.2,1.6l-1-0.2l-1-0.2c-9.6,6.9-15.6,17.7-18,32.4c-0.8,5.1-2.4,8.6-4.7,10.5c-1.4,0.4-2.8,5.3-4.3,14.5
				c-0.5,3.2-3.9,10-10,20.4c-1.5,1.7-3.2,3.2-5,4.6c-0.4,0.3-2.8,0.8-7.4,1.7c-4.3,3.2-7.6,4.6-9.8,4.3l-2.3-0.9
				c-0.3-2-1.6-4.7-3.9-8c-0.2-1-0.1-2.1,0.1-3.4c0.8-5.1,2.4-12.8,4.7-23c2.3-10.2,3.9-18.1,4.8-23.5c0.2-1,0.1-2.6-0.2-4.9
				c-0.3-2.3-0.3-4-0.2-4.9c0.3-1.6,1.1-3.8,2.6-6.7c1.4-2.9,2.7-7.7,3.9-14.6c1.1-6.8,2.4-11.8,3.9-14.8l4.8-2.6
				c0.6-1.5,0.9-3.6,1-6.2c0.1-2.9,0.3-5,0.5-6.3c0.3-1.9,1.6-4.5,4-7.7c2.3-3.2,3.6-5.8,4-7.7c0.3-1.9,0-4.7-0.8-8.5
				c-0.9-3.7-1.2-6.4-0.9-8c0.5-2.9,1.9-6.1,4.3-9.6c2.4-3.5,3.7-6.1,4-7.7c0.2-1.3,0.3-3.1,0.1-5.4c-0.1-2.3-0.1-3.9,0.1-4.9
				c-2.2,1.3-4.5,2.6-7,4c-2.5,1.4-5.3,1.7-8.5,0.8l-2.1,1.1c-1.2,1.1-3.1,2.8-5.7,4.9l-2.9,0c-0.8,1.2-3,1.5-6.5,0.9
				c-4.1-0.7-6.9-1.9-8.2-3.8l-0.7-4.5l0.2-1l-1.4-0.2l-0.7-1.6l0.2-1c-0.2-1,0.4-3.2,1.6-6.6c-0.5-1.1-0.4-1.7,0.3-1.9
				c-0.3-0.1-1.6-2.4-3.8-7l0.3-1.9c0.2-1.3,1.4-3.5,3.6-6.8l0.2-1l0.6-0.9l1.7-1.2c0.2-1.3,0.7-2.5,1.6-3.7
				c0.4-0.3,2.1-1.8,5.2-4.6c1.6-0.1,3-0.6,4.2-1.8l1,0.2l1,0.2l2-3.1l2-0.2l0.2-1c0.3-1.9,1.6-4,4-6.2c1.5-1.4,3.5-2.2,5.8-2.5
				c0.5-1.2,1.9-1.7,4.1-1.3c2.4-14.6,7.2-26.3,14.5-34.9c6.5-7.8,16.7-15.1,30.6-22c-7.9,6.2-12.3,12.2-13.2,17.9
				c-1,6.4,1.6,10.1,8,11.1c6,1,12.9-2.7,20.4-11.1c7.6-8.4,15.4-17,23.3-25.9c11.2-10.6,23.5-17.7,36.8-21.4
				c-15.7,10.2-24.4,20.5-26.1,31c-0.9,5.7,0.9,10.9,5.6,15.4c4.7,4.5,9.8,7.2,15.6,8.2c12.4,2,19.3-2.9,20.6-14.8
				c5.1,2.5,7.4,9.7,6.8,21.7c-0.4,10.7,3.9,16.8,13.2,18.3c8.9,1.5,14.1-2.1,15.5-10.7c0.3-1.9,0.3-4,0.1-6.4
				C503.3,351,506.2,361,504.3,372.5z M437.7,420.4l-1.3-3.7l-3.3-0.5c-0.8-0.8-1.9-1.4-3.1-2l-0.2-2c-3.5-0.2-8-1.6-13.3-4.1
				c-1.4,0.7-2.1,1.3-2.2,1.6c-3,0.8-4,0.7-2.8-0.5c-0.8,0.9-3.3,1-7.6,0.5c-4.3-0.5-7.1-0.4-8.5,0.3l-1.4-0.2
				c-1,0.5-2.6,1.2-4.7,2.2c-3.5,7.6-8.8,20.3-15.9,38.1c-4.1,3.6-6.2,5.7-6.3,6.3c-1.5,1.1-2.4,2.9-2.8,5.4
				c0.4-2.2,0.4,2.2,0.2,13.3l1.4,0.2c1.5-1.1,2.9-2,4.3-2.7l2.4,0.4c2.3-0.6,4.6-1.7,6.8-3.3c0.6-1.9,2-3.3,4.1-4.2
				c2.1-1,3.4-2.1,3.9-3.3l2.4,0.4c1.8-1,4.9-2.1,9.2-3.4c2.4-2.9,5.5-7.3,9.4-13.2c2.1-1.3,5.1-2.6,8.9-3.9c0.7-0.2,1-0.2,0.9,0.2
				l4.7-5.1c0.6-1.5,1.3-3.1,2.2-4.5c2-0.6,4.5-1.7,7.3-3.2C433.7,428.6,435.5,425.6,437.7,420.4z M398.3,274.2
				c-2.7,2.5-4.3,5.5-4.9,9c-0.2,1.3-0.3,3.3-0.3,6.1c0,2.8-0.1,5-0.3,6.6c-0.7,4.5-4.1,8-10.1,10.6c0.3-1.9,0.6-3.8,0.9-5.7
				c0.3-1.6,0.3-4.1,0.3-7.6c-0.1-3.4,0-6,0.3-7.6c0.7-4.5,5.1-8.3,13.2-11.6L398.3,274.2z"/>
			<path d="M298.5,601.5c-0.5,0-1,0-1.4-0.1l-0.9-0.2l-4.9-1.8l-0.4-2.8c-0.1-0.6-0.6-2.3-3.1-6l-0.6-0.9l-0.2-1.1
				c-0.2-1.5-0.2-3.1,0.1-4.9c0.9-5.3,2.5-13.1,4.8-23.3c2.3-10.2,3.9-18,4.8-23.2c0-0.1,0.1-0.9-0.2-3.6c-0.3-2.8-0.4-4.8-0.1-6.3
				c0.3-2.1,1.3-4.7,3-8.1c0.8-1.7,2.1-5.3,3.4-13.2c1.2-7.4,2.6-12.7,4.3-16.1l0.7-1.4l4.4-2.4c0.1-0.8,0.3-1.8,0.3-3.2
				c0.2-3.1,0.4-5.4,0.6-6.9c0.4-2.7,2-5.8,4.8-9.7c2.6-3.6,3-5.3,3.1-5.7c0.1-0.6,0.2-2.4-0.8-6.6c-1-4.4-1.3-7.6-1-9.8
				c0.6-3.6,2.2-7.4,5-11.5c2.9-4.3,3.2-5.7,3.2-5.8c0-0.3,0.1-0.7,0.1-1.3c-3.1,1.7-6.4,2.2-10,1.6l0,0c-1.2,1.2-3,2.7-5.5,4.7
				l-1.3,1.1l-3,0c-3.2,1.8-7.3,1.1-8.9,0.8c-5.5-0.9-9.2-2.8-11.3-5.7l-0.6-0.9l-0.5-3.2l-0.2,0l-2.4-5.2l0.3-1.8
				c0-1.4,0.3-3.2,1.4-6.5c-0.1-0.4-0.1-0.8-0.1-1.2c-0.7-1.4-1.6-3.2-2.7-5.5l-0.6-1.3l0.6-3.4c0.3-1.9,1.4-4.2,3.7-7.8l0.2-1.1
				l1.8-2.4l0.9-0.6c0.4-1.2,1.1-2.4,1.9-3.6l0.5-0.7l0.7-0.5c0.1-0.1,0.9-0.8,4.7-4.2l1.3-1.2l1.7-0.1c0.5,0,0.7-0.1,1.1-0.4
				l1.7-1.7l1.2,0.2l1.6-2.5l1-0.1c0.9-2,2.4-4.1,4.5-6.1c1.9-1.7,4.1-2.8,6.5-3.4c0.7-0.6,1.5-1.1,2.7-1.4
				c2.7-13.7,7.7-25,14.9-33.4c6.9-8.2,17.7-16,32.1-23.2l12.1-6c0.1-1.1,0.1-2.8,0.1-5.5c-0.1-3.7,0-6.5,0.3-8.4
				c1-6.3,6.3-11.3,16.1-15.2l1.2-0.5l11.9,1.9l-7.2,6.6c-1.9,1.8-3,3.8-3.4,6.3c-0.1,0.6-0.2,2-0.2,5.3c0,0.1,0,0.2,0,0.3l9.9-4.9
				l-9.9,7.8c-0.1,1.6-0.2,3-0.4,4.2c-1,6.1-5.3,10.9-12.9,14.2l-8,3.5l1-5.9l-5.5,4.4c-6.9,5.4-10.7,10.5-11.5,15
				c-0.6,3.8,0.3,5,4.1,5.6c5.4,0.9,11.7-4.7,16.1-9.6c7.6-8.4,15.4-17,23.4-25.9l0.3-0.3c11.7-11.1,24.8-18.7,38.8-22.6l30-8.3
				L447,283.8c-14.5,9.4-22.6,18.7-24,27.8c-0.7,4.2,0.6,7.7,4.2,11.2c4,3.9,8.2,6.1,13,6.9c5,0.8,8.7,0.3,11.1-1.5
				c2.2-1.7,3.5-4.7,4-9.1l0.7-6.7l6.1,2.9c7.1,3.4,10.2,12,9.4,26.3c-0.4,10.4,4.4,12.6,9.2,13.4c3.2,0.5,5.6,0.3,7.1-0.8
				c1.5-1,2.4-3,2.9-6c0.2-1.5,0.2-3.2,0-5l-1.7-14.6l9.9,10.8c8.8,9.6,12.2,21,10,33.9l0,0c-1,6-4.1,14-9.6,24.5
				c-5,9.4-7.9,16.7-8.7,21.6l-0.3,1.7c0.9,2.7,1.1,5.3,0.7,7.7c-0.8,4.7-4,11-15,14.3c-0.4,0.3-1,0.9-1.8,1.7
				c-0.4,2.2-0.8,3.9-22,19.8c-13.3,10-19,13.8-21.8,15.4c-0.9,1.1-2.3,1.9-4,2.9c-1.5,0.9-3,1.4-4.3,1.6c-1.4,1.3-3.1,2.1-4.9,2.4
				l-0.5,0.7l-1.8,1c-3.2,5.2-11.5,9.6-26.3,14.2l-1.1,0.3l-1.8-0.3c-0.5,0.1-2.6,0.8-7.9,4.6l-1.6,1.2l-0.5-0.1l-0.5,0.7l-3.6,1.1
				l-1.5-0.2c-0.7,0.4-1.8,1-3.2,1.8l-0.9,0.6l-4.4,0.4l-1.5,1.1l-1.8-0.3c-7.7,6.2-12.5,15.4-14.6,28.1c-1,6.3-3.1,10.7-6.3,13.4
				l-0.1,0c-0.4,0.9-1.3,3.7-2.6,11.6c-0.4,2.6-2,7.5-10.6,22.1l-0.6,0.8c-1.7,1.9-3.7,3.7-5.7,5.2c-1,0.7-1.7,1.1-8.3,2.4
				C305.1,600,301.6,601.5,298.5,601.5z M296.3,586.2c1.3,2,2.3,3.9,3,5.6c0.9-0.3,2.6-1.1,5.4-3.2l0.9-0.6l1.1-0.2
				c3.8-0.7,5.4-1.1,6-1.3c1.2-1,2.4-2,3.5-3.2c7.7-13.1,9-17.2,9.2-18.3c1.9-11.4,3.4-15.9,6.3-17.7c0.8-0.9,2-2.8,2.7-7.3
				c2.6-15.9,9.3-27.8,20-35.5l1.6-1.2l1.9,0.3l3-2.2l2.5,1.3c1.7-1,3.1-1.7,4.1-2.2l1.3-0.6l1.1,0.2l1.6-2.2l2.4,0.4
				c6-4.1,9.8-5.7,13-5.2c18-5.7,20-9.6,20.1-10.1l0.7-1.7l2.7-1.4l0.9-1.2l-5.3-0.9l11.8-3.7l0.7-1.1l1.1,0.6l5.6-1.7
				c0.6-0.2,4.2-2.2,21.5-15.1c15.8-11.8,18.4-14.7,18.9-15.2c0,0-0.3,0.4-0.5,1l2.4,0.4l-2.3-2.6c2.7-2.9,4.5-4.6,5.9-5.7l0.7-0.5
				l0.8-0.2c8.3-2.2,8.9-5.7,9.1-6.9c0.2-1.1,0-2.4-0.7-4.1l-0.4-1.2l0.7-4.1c1-6,4.1-14,9.6-24.5c5-9.4,7.9-16.7,8.7-21.6l0,0
				c0.9-5.8,0.5-11-1.3-15.9c-1.2,2.6-2.9,4.6-5.1,6.2c-3.6,2.5-8.3,3.3-14,2.4c-11.6-1.9-17.7-10.2-17.2-23.2
				c0.2-4.1,0.1-7.6-0.4-10.4c-1.2,2.1-2.7,3.8-4.5,5.1c-4.5,3.4-10.7,4.5-18.4,3.3c-6.7-1.1-12.8-4.3-18.1-9.5
				c-5.7-5.6-8.1-12.3-7-19.6c0.6-3.8,2-7.5,4.1-11.2c-2.3,1.8-4.5,3.7-6.7,5.7c-7.9,8.8-15.7,17.4-23.2,25.7
				c-8.8,9.8-16.9,13.9-24.8,12.6c-8.9-1.5-13.4-7.7-11.9-16.6c0-0.2,0.1-0.5,0.1-0.7c-3.6,2.8-6.7,5.7-9.1,8.6
				c-6.7,7.9-11.2,18.9-13.5,32.6l-0.8,4.7l-4.4-0.7l-0.4,0.9l-2.7,0.3c-1.3,0.2-2.4,0.6-3.2,1.3c-2.1,2-2.4,3.1-2.4,3.4l-0.8,4.6
				l-3.3,0.3l-2.4,3.8l-3-0.5c-1,0.6-2.2,1-3.3,1.3c-2,1.8-3.1,2.7-3.7,3.2c-0.2,0.4-0.4,0.8-0.4,1.2l-0.3,2l-2.2,1.6l-0.1,0.5
				l-0.6,0.9c-2.5,3.7-2.8,4.9-2.8,5l-0.1,0.3c0.8,1.6,1.3,2.6,1.7,3.3l17.7,2.9l-16.4,5.2c-0.5,1.5-0.8,2.6-1,3.3l2.5,0.4l-0.8,4.9
				l0.4,2.2c0.7,0.4,2,1,4.5,1.4c1.2,0.2,2,0.2,2.5,0.2l0.8-1.2l3.7,0c1.9-1.6,3.3-2.8,4.1-3.6l0.5-0.5l4.4-2.3l1.8,0.5
				c1.9,0.5,3.5,0.4,4.9-0.4c2.5-1.4,4.8-2.7,6.9-3.9l8.8-5.2l-1.7,10.1c0,0.2-0.1,1.1,0,3.9c0.1,2.7,0.1,4.8-0.2,6.4
				c-0.4,2.4-1.8,5.3-4.7,9.6c-2,2.9-3.2,5.5-3.5,7.7c0,0.2-0.2,1.7,0.8,6.2c1,4.5,1.3,7.7,0.9,10.3c-0.4,2.7-2,5.8-4.8,9.7
				c-2.6,3.6-3,5.3-3.1,5.7c-0.1,0.8-0.3,2.4-0.5,5.8c-0.1,3.1-0.6,5.6-1.3,7.6l-0.6,1.7l-5,2.7c-0.8,2.1-1.9,5.8-2.9,12.2
				c-1.2,7.4-2.6,12.6-4.3,16c-1.6,3.2-2,4.7-2.1,5.3c0,0-0.1,0.9,0.2,3.6c0.3,2.9,0.4,4.8,0.1,6.3c-0.9,5.5-2.5,13.3-4.9,23.8
				c-2.3,10-3.9,17.6-4.7,22.7C296.4,585.6,296.4,585.9,296.3,586.2z M313.1,586.3C313.1,586.3,313.1,586.3,313.1,586.3
				C313.1,586.3,313.1,586.3,313.1,586.3z M385.5,502.5C385.5,502.5,385.5,502.5,385.5,502.5L385.5,502.5z M469.4,445.1l-0.5,2.9
				c1.1,0.2,2-0.2,2.5-0.5L469.4,445.1z M464.9,443C464.9,443,464.9,443,464.9,443L464.9,443z M303.2,424.7L303.2,424.7L303.2,424.7
				z M367.1,480.4l-7.5-1.2l0.1-4.1c0.2-10.5,0.1-12.5,0-12.9c0.2,1.5,1.7,3.8,4.5,3.9c2.7,0.1,4.4-2,4.7-3.4l-9.4-1.5c0,0,0,0,0,0
				c0.5-3.3,1.8-5.9,3.7-7.7c0.9-1.3,2.6-3.1,6.1-6.1c6.9-17.2,12.1-29.7,15.6-37.3l0.7-1.6l7.6-3.5l1.6,0.3
				c2.3-0.6,5.3-0.7,9.6-0.1c3.6,0.4,4.7,0.2,4.7,0.2c0,0-0.5,0.1-1,0.6l1.8,1.8c0.4-0.9,1-1.6,1.8-2.2c-0.1,0-0.2,0-0.3,0
				c0,0,0.1,0,0.4-0.1c0.7-0.6,1.6-1.1,2.4-1.5l2.1-1.1l2.2,1c4.8,2.3,8.7,3.5,11.6,3.7l4.1,0.3l0.3,3.5c0.2,0.1,0.4,0.3,0.5,0.4
				l4.8,0.8l2.9,8l-0.7,1.7c-2.7,6.7-4.9,10-7.5,11.3c-2.3,1.2-4.4,2.2-6.2,2.9c-0.4,0.8-0.7,1.5-1,2.3l-0.3,0.9l-16.1,17.5l1.3-7.8
				c-0.2,0.1-0.3,0.2-0.5,0.2c-3.6,5.5-6.7,9.8-9.1,12.7l-0.9,1.1l-1.4,0.4c-5.2,1.5-7.4,2.5-8.2,2.9l-1.5,0.8l-1.3-0.2
				c-1,0.9-2.3,1.7-3.9,2.5c-1.3,0.6-1.5,1.2-1.6,1.4l-0.5,1.4l-1.2,0.9c-2.7,2-5.5,3.3-8.5,4.1l-1,0.2l-1.7-0.3
				c-0.8,0.5-1.6,1-2.4,1.6L367.1,480.4z M369.4,467.7l2.9,0.5c1.1-0.4,2.2-0.9,3.3-1.6c1-1.9,2.7-3.9,5.9-5.4c1.3-0.6,1.6-1,1.6-1
				l1.5-3.4l4.4,0.9c1.8-0.8,4.2-1.7,7.3-2.6c2.2-2.7,4.9-6.6,8.2-11.6l0.6-0.9l0.9-0.6c2.4-1.5,5.6-2.9,9.7-4.3
				c0.2-0.1,0.3-0.1,0.5-0.1l2.7-2.9c0.6-1.5,1.4-3,2.2-4.4l0.9-1.6l1.7-0.6c1.7-0.5,3.8-1.5,6.2-2.7c0.3-0.3,1.1-1.4,2.4-4.3
				l-1.4-0.2l-1.1-1c-0.4-0.4-1-0.8-1.7-1.1l-2.6-1.1l-0.1-1.1c-2.4-0.5-5-1.4-7.8-2.6l-2,0.5c-1.5,0.4-3.8,1-5.8,0.4
				c-1.9,0.2-4,0-6.4-0.3c-4.5-0.6-5.8-0.1-5.8-0.1l-1.4,0.8l-1.4-0.3l-1.8,0.8c-3.5,7.7-8.5,19.9-15.1,36.3l-0.4,1.1l-0.9,0.8
				c-3,2.6-4.4,3.9-4.9,4.5l-0.1,0.9l-1.6,1.2c-0.2,0.1-0.4,0.5-0.7,1.2c0.1,1.1,0.1,2.2,0.1,3.3
				C369.3,465.6,369.3,466.6,369.4,467.7L369.4,467.7z M368.9,462.6C368.9,462.6,368.9,462.6,368.9,462.6
				C368.9,462.6,368.9,462.6,368.9,462.6L368.9,462.6z M429.7,425.4L429.7,425.4L429.7,425.4z M411.7,409.3l2.9,2.8l1.1-2.4
				c0-0.5-0.2-1.1-0.4-1.6c-0.5-1-1.3-1.7-2.1-2.1l1,3.8L411.7,409.3z"/>
		</g>
		<g>
			<path class="st7" d="M704.4,586.3c-0.1,1.6-0.5,2.9-1.2,3.8l0.4,2.4c-1.7,1.2-5.6,1.6-11.7,1.3l-2.4-1.1l-0.9-2
				c-1.3-0.4-2.5-1.1-3.8-2.1c-1.7,0.9-3.1,1.3-4.4,1.2c-1-0.1-1.3-0.7-0.9-2c-2.3-0.1-8.3,0.7-18.1,2.4c-9.8,1.7-15.2,3.1-16.2,4.2
				c-1,1.1-2.6,2.5-4.6,4.4l-2.1,2.3l-1,1.4l0-0.5c-0.7,1.6-5.2,3-13.5,4.4c-8.3,1.3-14.3,4.2-18,8.5c-3.8,4.3-7.9,6.4-12.4,6.1
				c-1-0.1-2.1,0.2-3.4,0.8c-0.8,3.8-3.6,7.4-8.3,10.7l-0.6,2.4c-1,0.3-4.1,0.9-9.3,1.9c-3.9,1.1-6.8,1.6-8.7,1.5
				c-8-0.4-11.4-11.6-10.2-33.5c0.5-8.4,1.4-14.1,2.9-17.3c0.1-2.6,0.5-6.1,1.1-10.6c0.2-4.5,0.4-7.9,0.5-10.1c-1.5-3-2.1-5.8-2-8.3
				c0.1-1.9,0.7-4.7,1.7-8.4c1-3.7,1.6-6.5,1.7-8.4c0.1-1.6-0.2-4-0.8-7.1c-0.6-3.1-0.9-5.5-0.8-7.1c0.2-4.2,1.4-7.5,3.4-10
				c2.1-2.5,3.1-4.4,3.2-5.6c0.1-1.3-0.2-3.2-0.7-5.8c-0.5-2.6-0.7-4.7-0.6-6.3c0.1-1.6,0.9-3.9,2.6-6.9c1.6-3,2.5-5.4,2.6-7.4
				c0.1-2.2-0.4-5.7-1.6-10.3c-1.2-4.6-1.7-8-1.6-10.3c0.1-2.2,1-5.3,2.7-9.1c1.7-3.8,2.5-6.6,2.6-8.6c0.1-1.3-0.2-3.1-0.7-5.4
				c-0.5-2.3-0.7-4.1-0.7-5.4c0.1-2.2,0.9-5.4,2.2-9.6c1.3-4.1,2.1-7.3,2.2-9.6c-2.5-2.4-3.6-4.2-3.6-5.5c0.1-1,0.6-2.2,1.6-3.8
				c0.3-1.3,0.7-2.4,1.2-3.3c0.2-3.9,0.4-7.2,0.5-10.1c0.4-6.8,3.5-12.1,9.4-16c7.9-5.1,12.7-8.8,14.4-11.3
				c-0.5,8.7,0.3,14.7,2.4,18.1c1.6,0.1,3.1,0.7,4.7,1.7c1.6-0.2,3.6-1.7,6.1-4.5c4.5-5.2,7.3-10.1,8.5-14.6
				c0.4-1.9,0.9-7.4,1.4-16.4c0.6-10.9,11.8-21.3,33.7-31.1c-10.8,8.8-16.6,20.6-17.4,35.4c-0.2,4.2,0.2,10.4,1.2,18.7
				c1,8.3,1.4,14.5,1.2,18.7c-0.3,5.5-2.6,11.7-6.8,18.5c-5.3,8.1-8.3,13.8-9.2,17c-1.7,7.7-3.4,15.5-5.1,23.5
				c-2.5,10.2-5.3,17.2-8.4,20.9l-0.1,1.4c-1.7,1.2-2.6,3.1-2.7,5.7c-0.1,2.3,0.1,5.5,0.7,9.7c0.6,4.2,0.8,7.5,0.7,9.7
				c-0.2,2.9-1.2,7-3.1,12.2c-1.9,5.2-2.6,9.8-2.2,13.7c-0.1,2.3-0.2,4-0.3,5.3c-0.1,2.3-1.3,5.9-3.5,11c-2.2,5.1-3.4,9.7-3.7,13.9
				c-0.6,11.6-1.1,18-1.5,19.3c6.8-0.9,12.6-4,17.5-9.2c4.4-4.3,9.1-6.3,13.9-6c8,0.4,13.3,2.5,15.7,6.2c0.9,1.3,1.5,2,1.8,2
				c1,0.1,2.2-0.8,3.8-2.5c1.5-1.7,2.8-2.7,3.8-2.9c0.2-2.9,5.9-4.7,17.3-5.4c10.4-0.7,17.5-0.7,21.3,0.2l2-0.4
				c1.4,4,3.5,6.2,6.4,6.6C702.1,572.9,704.8,580.5,704.4,586.3z M620.5,299.7c-3.5,4-5.3,8.4-5.6,13.3c-0.1,1.9,0.1,4.9,0.7,8.8
				c0.6,3.9,0.8,6.8,0.7,8.8c-0.4,7.1-4.7,13-13.1,17.7c0.2-2.9,0.3-5.8,0.5-8.7c0.1-2.2-0.3-5.8-1.1-10.7
				c-0.9-4.9-1.2-8.5-1.1-10.7c0.3-6.1,6.3-12.3,18-18.4L620.5,299.7z"/>
			<path d="M564,643.1c-0.3,0-0.5,0-0.8,0c-4.3-0.2-10-2.5-12.9-12.1c-1.9-6.2-2.5-14.8-1.9-26.5c0.5-8.5,1.4-14.3,2.9-18.1
				c0.2-2.6,0.5-5.9,1-9.9l0.5-8.8c-1.4-3.3-2.1-6.5-1.9-9.5c0.1-2.3,0.7-5.4,1.8-9.4c1.1-4.1,1.4-6.3,1.5-7.4c0-0.7,0-2.3-0.7-5.9
				c-0.7-3.5-1-6.2-0.9-8.3c0.3-5.2,1.8-9.5,4.6-12.8c1.5-1.8,2-2.8,2.1-3c0-0.6-0.1-1.9-0.6-4.5c-0.6-3-0.8-5.4-0.7-7.5
				c0.1-2.4,1.1-5.2,3.1-8.9c1.7-3.1,2-4.7,2-5.4c0.1-1-0.1-3.4-1.5-8.8c-1.3-5.1-1.9-9-1.8-11.7c0.2-2.9,1.2-6.4,3.1-10.7
				c1.9-4.4,2.2-6.3,2.2-6.9c0-0.4,0-1.5-0.6-4.1c-0.6-2.7-0.9-4.9-0.8-6.7c0.1-2.7,0.9-6.2,2.4-10.8c1-2.9,1.5-5,1.7-6.4
				c-2.4-2.7-3.5-5.1-3.3-7.4c0.1-1.7,0.7-3.4,1.9-5.4c0.3-0.9,0.6-1.8,0.9-2.7l0.5-9.2c0.4-8.3,4.4-15,11.6-19.7
				c10-6.4,12.5-9.2,13.1-10.1l5.5-7.9l-0.1,0l0.9-17.4c0.1-1.3-0.1-4-1.1-9.6c-0.9-5.3-1.3-9.1-1.2-11.8c0.4-8,7.1-15.3,20.5-22.4
				l1.2-0.6l12,0.7l-6.3,7.3c-2.8,3.2-4.2,6.6-4.4,10.4c-0.1,1.1,0,3.3,0.7,7.8c0.7,4.3,0.9,7.5,0.8,9.7c-0.2,2.9-0.8,5.7-2.1,8.3
				c5.4-8.2,16.1-15.8,32.2-23l33.2-14.9l-28.3,23c-9.8,8-14.9,18.4-15.7,32c-0.2,3.9,0.2,9.9,1.1,17.9c1.1,8.7,1.4,15.1,1.2,19.6
				c-0.3,6.3-2.9,13.3-7.5,20.8c-6.6,10.1-8.2,14.1-8.6,15.6c-1.7,7.5-3.4,15.3-5.1,23.3c-2.5,10.1-5.2,17.1-8.4,21.6l-0.1,2.3
				l-1.9,1.3c-0.2,0.1-0.7,0.5-0.7,2c-0.1,1.3,0,4,0.6,8.8c0.6,4.6,0.9,8.1,0.7,10.6c-0.2,3.4-1.3,7.8-3.4,13.6
				c-1.6,4.5-2.3,8.4-1.9,11.5l0,0.4l-0.3,5.7c-0.2,2.9-1.4,6.9-3.9,12.6c-2,4.5-3.1,8.6-3.3,12.2c-0.3,5.7-0.6,9.8-0.8,12.7
				c3.1-1.3,5.9-3.3,8.4-6.1l0.2-0.2c5.4-5.2,11.3-7.7,17.5-7.4c8.6,0.5,14.5,2.6,18.1,6.6c1-1,1.9-1.8,2.8-2.4
				c2.7-5,11.5-6.2,20.9-6.8c10.1-0.7,17.2-0.7,21.6,0.1l5.1-1l1.4,3.9c0.5,1.5,1.4,3.3,2.7,3.5l2.2,0.4l1.1,1.9
				c6.2,10.3,9,18.6,8.7,25.4l0,0c-0.1,1.7-0.4,3.2-1,4.5l0.5,3.7l-2.4,1.7c-2.7,1.9-7.1,2.6-14.7,2.2l-0.9,0l-4.8-2.2l-0.8-1.9
				c-0.2-0.1-0.5-0.3-0.7-0.4c-1.4,0.4-2.8,0.6-4.1,0.6c-1.6-0.1-3-0.7-4-1.8c-2.5,0.3-6.7,0.9-13.8,2.1c-10.1,1.8-13.2,2.8-14,3.2
				c-1,1.1-2.5,2.4-4.3,4.1l-2.7,3.2L632,618l0.5-8.4c-2.1,0.5-4.6,1-7.5,1.5c-7.1,1.1-12.2,3.5-15.2,6.9c-4.6,5.3-9.9,7.9-15.7,7.8
				c-1.4,3.4-4.1,6.6-7.8,9.5l-0.9,3.4l-2.7,0.7c-0.4,0.1-1.7,0.5-9.4,2C569.3,642.5,566.3,643.1,564,643.1z M574.4,411.7
				c0.3,0.4,0.9,1.1,2,2.2l1.6,1.5l-0.1,2.2c-0.1,2.7-0.9,6.2-2.4,10.8c-1.5,4.6-1.9,7.1-2,8.3c0,0.4,0,1.6,0.6,4
				c0.6,2.8,0.9,5,0.8,6.7c-0.1,2.6-1.1,5.8-3,10.2c-1.8,4-2.2,6.3-2.3,7.4c-0.1,1,0.1,3.4,1.5,8.8c1.3,5.1,1.9,9,1.8,11.7
				c-0.1,2.7-1.2,5.7-3.1,9.4c-1.8,3.4-2,4.7-2,4.9c0,0.8,0,2.4,0.5,5.2c0.6,3.1,0.8,5.3,0.7,7c-0.1,2.4-1.5,5-4.3,8.5
				c-1.4,1.7-2.2,4.1-2.3,7.2c0,0.7,0,2.3,0.7,5.8c0.7,3.6,1,6.3,0.9,8.3c-0.1,2.3-0.7,5.4-1.8,9.4c-1.1,4.1-1.4,6.3-1.5,7.4
				c-0.1,1.8,0.4,3.8,1.5,6l0.5,1.1l-0.6,11.7c-0.5,4.3-0.9,7.8-1,10.3l0,0.9l-0.4,0.8c-0.7,1.5-1.9,5.4-2.4,15.5
				c-0.6,10.3-0.1,18.1,1.5,23.2c1.6,5.2,3.6,5.3,4.3,5.3c0.8,0,2.7-0.1,7.2-1.3l0.3-0.1c2.9-0.6,4.9-1,6.3-1.3l0.3-1.3l1.4-1
				c3.7-2.6,5.8-5.2,6.4-7.8l0.5-2.4l2.2-1c2-0.9,3.9-1.3,5.6-1.2c3,0.2,5.7-1.3,8.5-4.5c4.5-5.2,11.5-8.5,20.9-10.1
				c6.8-1.1,9.4-2,10.3-2.4l10.1-21.9l-0.7,12.8c1.9-1.2,5.9-2.5,17.6-4.6c13.5-2.4,17.3-2.6,19.1-2.5l4.8,0.3l0.8-0.4l2.5,2.1
				c0.7,0.6,1.4,1,2.1,1.2l2.1,0.6l1,2.3c2.3,0.1,3.9,0,5.1,0l0-0.3l1.2-1.6c0-0.1,0.2-0.4,0.2-1.2v0c0.2-3.1-0.8-8.8-6.4-18.4
				c-2.1-0.8-4.4-2.5-6.2-5.6l-0.1,0c-2.3-0.5-7.6-0.9-19.9-0.1c-8.4,0.5-11.7,1.5-12.9,2.1l-0.1,2.2L651,567
				c-0.2,0.1-0.7,0.5-1.7,1.6c-1.6,1.8-4.2,4.3-7.5,4c-2.9-0.1-4.5-2.6-5.5-4.2c-1.5-2.3-5.7-3.7-11.9-4.1
				c-3.5-0.1-6.8,1.3-10.2,4.6c-5.5,6-12.4,9.6-20.2,10.6l-7.4,1l2.2-7.1c0.1-0.4,0.5-3.2,1.3-18.2c0.3-4.7,1.6-10,4-15.5
				c2.7-6.1,3.1-8.5,3.1-9.3l0.3-4.9c-0.4-4.5,0.4-9.7,2.5-15.4c2.2-5.9,2.7-9.2,2.8-10.8c0.1-1.9-0.1-4.9-0.6-8.8
				c-0.6-4.5-0.9-8-0.7-10.6c0.2-3.5,1.4-5.9,2.8-7.6l0.1-1.1l1-1.2c1.8-2.2,4.6-7.2,7.4-18.9c1.7-7.9,3.4-15.7,5.1-23.4
				c0.6-2.5,2.3-7,9.8-18.5c3.7-6.1,5.8-11.5,6-16.2c0.2-3.9-0.2-9.9-1.1-17.9c-1.1-8.7-1.4-15.1-1.2-19.6
				c0.4-7.2,1.9-13.7,4.4-19.7c-7.1,5.3-10.9,10.7-11.2,15.9c-0.7,12.4-1.2,15.8-1.5,17.2c-1.5,5.4-4.6,10.8-9.6,16.6
				c-3.3,3.8-6.2,5.7-9,6.1l-1.8,0.3l-1.5-1c-0.8-0.6-1.5-0.8-2.2-0.9l-2.5-0.1l-1.3-2.1c-1.5-2.5-2.5-5.8-2.9-10.1
				c-1.9,1.4-4.3,3-7.2,4.9c-4.7,3-7,6.9-7.3,12.2l-0.6,11.2l-0.5,0.9c-0.3,0.6-0.6,1.3-0.8,2.1l-0.2,0.8l-0.4,0.7
				C574.7,411.1,574.5,411.4,574.4,411.7z M634.1,599L634.1,599L634.1,599z M559.3,511.3L559.3,511.3L559.3,511.3z M574.1,411.2
				L574.1,411.2L574.1,411.2z M602.4,381.1c0.5,0.2,1,0.4,1.5,0.6c0.5-0.4,1.3-1.1,2.3-2.3c4-4.7,6.5-8.9,7.5-12.7
				c0.1-0.5,0.6-3.6,1.2-15.4c0.2-3,0.9-6,2.3-8.9c-2.6,3.8-6.4,7.1-11.5,10l-3.6,2l-0.7,13.1C601,374.8,601.7,378.9,602.4,381.1z
				 M610.3,311.7c-3.1,3-3.8,5.2-3.9,6.6c-0.1,1.3,0.1,4,1.1,9.6c0.7,4.2,1.1,7.5,1.2,10c1.9-2.4,2.9-4.9,3.1-7.7
				c0.1-1.1,0-3.3-0.7-7.8c-0.7-4.3-0.9-7.4-0.8-9.7C610.2,312.4,610.3,312,610.3,311.7z"/>
		</g>
		<g>
			<path class="st7" d="M953.7,365.4c0.4,7.4-3.7,21.8-12.2,43.2c-8.5,21.4-12.6,35.3-12.3,41.8c0.2,3.2,1.4,4.8,3.7,4.7
				c3-0.1,5.9-2,8.7-5.5c2.8-3.5,4.6-6.8,5.5-9.7c0.9,4.2,1.4,8.3,1.6,12.5c0.6,11.9-2.3,26.3-8.6,43c-9.8,25.3-14.9,39.3-15.5,41.9
				c0-0.3,0.4,9,1.3,28c0.2,4.2-0.2,6.9-1.3,8.1c-1.1,1.2-1.6,2.7-1.5,4.7c0.1,2.3,0.8,5.5,2.1,9.6c1.3,4.1,2,7.2,2.1,9.1
				c0.1,1.9-1,5.9-3.4,11.8c-0.1,5.8-0.7,9.6-1.9,11.5c-1.2,1.8-4.3,3.7-9.2,5.5c-4.7,4.8-7.6,7.1-8.6,7.2c-1.7,0.1-3.6-1.3-5.9-4.1
				c-2.3-2.8-3.9-4.3-4.9-4.6c-1.1-1.6-2-4.6-2.9-9.1c1.2-1,1.9-1.9,1.8-2.5c-0.2-4.8-1.3-12.2-3.1-22.1c-1.9-9.9-2.9-17.5-3.1-22.6
				c-0.1-1.6-0.6-3.8-1.6-6.7c-1-2.9-1.5-5.1-1.6-6.7c-0.1-1.9,0.1-4.8,0.6-8.7c-3.7,2.8-8.4,7-13.9,12.8c-1.4,5.2-3.4,7.1-6,5.6
				c-7.4,0.7-11.6,3.1-12.7,7.4l-1.9,1.1c-1.2,2.6-3.1,6.3-5.8,10.9c-2.9,1.1-6.1,3.5-9.8,7.2c-1.3,0.1-2.5,0.9-3.8,2.6
				c-1.2,1.7-1.9,3.3-2.2,4.9l-0.9,1c-1.4,3.9-2.9,9.8-4.5,17.7c0.3,0.3,0.5,0.9,0.6,1.9c0,0.6-0.2,1.9-0.8,3.9
				c-1.1,4.6-2.3,8.9-3.7,13c-1.4,4.1-5.4,6.3-11.8,6.6c-1.9,0.1-4.6-1.2-7.9-4c-3.4-2.7-5.1-4.8-5.1-6.1c0-0.6,0.3-3.4,1.1-8.3
				c0-0.3-0.2-5-0.7-14c-0.1-1.9,0.4-5.1,1.5-9.5c1.1-4.4,1.6-7.7,1.5-10c-0.1-2.2-0.6-5.7-1.5-10.3c-0.9-4.6-1.4-8.1-1.5-10.3
				c-0.2-3.9,1.3-11.9,4.4-24.2c3.1-12.3,4.6-21.3,4.3-27.1c-0.4-7.7-3.5-19.1-9.4-34.2c-5.9-15.1-9-26.6-9.4-34.7
				c-0.5-11,2.6-19.7,9.4-26.1c-0.2,1.9-0.3,3.9-0.2,5.8c0.5,9.7,3.4,14.4,8.9,14.1c2.2-0.1,5.1-1.4,8.5-3.8
				c-0.4-8.1,1.8-16.1,6.6-24.1c1.1-38.5,17.5-64,49.2-76.4c-5.5,6.7-8.1,12.2-7.9,16.4c0.2,4.2,3.5,6.1,10,5.8
				c11.3-0.5,21.5-5.9,30.7-16s13.6-20.8,13-32.1c-0.3-5.5-1.5-11.1-3.7-16.8c8,5.8,13.2,12.8,15.5,21.1c1.1,9.3,2.2,18.6,3.3,27.9
				c2.3,15.1,5.3,22.5,8.8,22.4c2.9-0.1,5.2-2.7,6.9-7.6c1.8-3.6,2.6-7.2,2.4-10.8c-0.2-3.5-0.7-7.6-1.5-12
				C949.8,347.3,953.3,356.7,953.7,365.4z M847.7,305.5c-2.4,3-3.6,6.3-3.4,9.8c0.1,1.3,0.4,3.3,1,6c0.6,2.7,1,4.9,1,6.5
				c0.2,4.5-2,8.7-6.7,12.4l-0.9,0c-0.1-2.2-0.2-4.5-0.3-6.8c-0.1-1.6-0.5-3.9-1.3-7c-0.8-3-1.2-5.3-1.3-7c-0.2-4.5,3.4-9.2,11-14.1
				L847.7,305.5z M886,479c-0.1-2.6-1-6.2-2.7-11c-1.7-4.8-2.6-8.6-2.7-11.5c-0.1-1.9-0.2-4.8-0.4-8.7c-0.2-3.9-0.3-6.8-0.4-8.7
				c-0.2-3.2-0.6-6.1-1.4-8.7c-3.6,4.4-8.6,11.4-14.8,21c-2.6,5-6.5,17.2-11.7,36.6c-5.1,19.5-7.6,31.4-7.4,36l0.5,0.5
				c1.3-0.4,3.3-1,6.2-1.7c-0.6,0-1-0.1-1-0.4c0.9-0.4,2.7-0.6,5.2-0.7c-1.9,0.1,0.4-0.8,7-2.8c1,0.6,2.3,0.9,3.9,0.8
				c0,0.6,0.4,1,1,0.9c2.9-0.1,6.2-1.8,10-5.1c3.8-3.2,6.4-5.2,7.6-5.9l0.5,0c-0.1-1.6-0.6-4.2-1.6-7.7c-1-3.5-1.5-6.1-1.6-7.7
				c-0.1-1.6,0.5-4.1,1.8-7.4C885.5,483.6,886.1,481,886,479z M889.7,272c-3.3,4.4-4.9,9-4.7,13.8c0.1,2.3,0.6,5.2,1.4,8.9
				c0.8,3.7,1.3,6.5,1.4,8.4c0.3,7.1-3.1,13.4-10.3,18.9l-0.9,0c-0.1-2.9-0.3-5.8-0.4-8.7c-0.1-2.2-0.7-5.7-1.7-10.3
				c-1-4.6-1.6-8.2-1.7-10.8c-0.3-6.4,4.9-13.1,15.5-20.1L889.7,272z"/>
			<path d="M805.8,647c-3.1,0-6.6-1.6-10.8-5.1c-4.7-3.9-6.7-6.6-6.9-9.5c0-0.6-0.1-1.4,1-8.8c-0.1-1.4-0.3-5.9-0.6-13.5
				c-0.1-2.5,0.4-5.9,1.6-10.9c1.2-4.9,1.4-7.4,1.3-8.6c-0.1-2-0.6-5.3-1.4-9.7c-0.9-4.9-1.4-8.5-1.5-11c-0.1-2.8,0.2-8.5,4.6-25.6
				c3-11.8,4.4-20.4,4.1-25.7c-0.3-7.2-3.4-18.2-9-32.7c-6.1-15.7-9.3-27.5-9.7-36.2c-0.6-12.4,3.1-22.4,10.9-29.8l9.6-9.1
				l-1.6,13.1c-0.2,1.7-0.3,3.3-0.2,5c0.2,4.4,0.9,9.8,3.9,9.6c0.5,0,1.7-0.2,4-1.6c0.1-7.7,2.4-15.4,6.7-22.9
				c1.5-39.7,19-66.5,52.2-79.5l17-6.7L869.5,342c-6.2,7.5-7,11.5-6.9,13.1c0,0.6,0.1,0.6,0.3,0.7c0.3,0.2,1.5,0.7,4.7,0.6
				c10.1-0.5,19-5.2,27.4-14.4c8.4-9.2,12.3-18.6,11.8-28.7c-0.2-4.9-1.4-10.1-3.4-15.3l-5.8-14.9l13,9.3
				c8.9,6.4,14.7,14.3,17.3,23.6l0.1,0.7l3.3,27.9c1.8,11.5,3.6,16,4.5,17.6c0.5-0.6,1.2-1.7,2-3.9l0.2-0.5c1.4-2.9,2.1-5.7,1.9-8.5
				c-0.2-3.3-0.6-7.1-1.5-11.4l-4.5-23.5l13.1,20c7.1,10.7,10.9,21,11.3,30.5l0,0c0.4,8.2-3.7,23-12.6,45.2
				c-10.1,25.3-12.1,35.5-12,39.6c1.5-0.6,2.9-2.1,3.9-3.4c2.4-3,4-5.7,4.7-8.1l5.4-18.5l3.9,18.8c0.9,4.4,1.5,8.9,1.7,13.3
				c0.6,12.5-2.4,27.6-8.9,44.9c-11.6,29.9-14.5,38.4-15.1,40.7c0.1,2.4,0.5,11.6,1.3,27.4c0.3,5.7-0.5,9.3-2.6,11.5
				c-0.2,0.2-0.3,0.6-0.2,1.2c0.1,1.3,0.4,3.7,1.9,8.3c1.5,4.7,2.2,7.9,2.4,10.3c0.1,1.9-0.3,4.9-3.4,13c-0.1,6.5-1,10.6-2.8,13.2
				c-1.8,2.6-5.1,4.8-10.5,6.9c-6.6,6.6-8.8,7.8-11,7.9c-3.3,0.1-6.5-1.8-9.8-5.8c-1.7-2.1-2.6-2.9-2.9-3.1l-1.3-0.3l-1-1.4
				c-1.5-2.2-2.6-5.6-3.7-10.9l-0.5-2.8l2.2-1.8c0,0,0,0,0,0c-0.3-4.6-1.3-11.4-3-20.1c-1.9-10.1-3-17.9-3.2-23.3
				c0-0.6-0.2-2.2-1.4-5.3c-0.9-2.5-1.4-4.5-1.7-6.3c-1.4,1.4-2.9,2.9-4.5,4.5c-0.9,3-2.5,6.4-5.8,7.9c-1.6,0.7-3.4,0.7-5.2,0.2
				c-3.3,0.4-6.8,1.4-7.4,3.7l-0.5,2l-2.3,1.3c-1.2,2.6-3,5.9-5.3,9.9l-0.8,1.5l-1.6,0.6c-1.5,0.6-4.2,2.1-8.2,6.2l-1.3,1.3
				l-1.4,0.1c-0.1,0.1-0.3,0.3-0.5,0.6c-0.8,1.1-1.2,2-1.3,2.9l-0.2,1.4l-1.2,1.4c-1.2,3.4-2.4,8.3-3.7,14.6
				c0.2,0.7,0.3,1.4,0.4,2.3c0.1,1.2-0.2,2.7-1,5.4c-1.1,4.5-2.4,9-3.8,13.3c-1.5,4.2-5.4,9.3-16.1,9.8
				C806.1,647,805.9,647,805.8,647z M797.8,631.4c0.4,0.5,1.3,1.5,3.3,3.1c3.4,2.8,4.7,2.9,4.8,2.9c6.4-0.3,7.2-2.6,7.5-3.4
				c1.4-3.9,2.6-8.2,3.6-12.5c0.3-1.1,0.5-1.8,0.6-2.2l-0.9-0.8l0.5-2.6c1.6-8.2,3.2-14.2,4.7-18.3l0.3-0.9l0.7-0.8
				c0.5-1.9,1.4-3.7,2.7-5.5c1.8-2.4,3.6-3.6,5.2-4.2c3.2-3.1,6.1-5.2,8.8-6.6c2.2-3.8,3.8-6.9,4.8-9.1l0.6-1.5l1.7-1
				c1.8-3.9,6.1-7.9,16.2-8.8l1.2-0.1c0.2-0.5,0.4-1.1,0.6-2l0.3-1.2l0.9-0.9c5.7-5.9,10.6-10.4,14.5-13.3l8.9-6.6l-1.3,11
				c-0.5,4.5-0.6,6.8-0.5,8c0,0.6,0.2,2.2,1.4,5.3c1.2,3.3,1.8,6,1.9,8.1c0.2,4.9,1.3,12.3,3.1,22c1.9,10.2,3,17.7,3.2,22.8
				c0.1,1.7-0.5,3.1-1.4,4.2c0.5,2.1,0.9,3.3,1.2,4c1.5,1,3.1,2.6,5.1,5.1c0.8,0.9,1.3,1.5,1.8,1.9c1-0.8,2.7-2.3,5.7-5.3l0.7-0.7
				l1-0.4c5.8-2.2,6.9-3.7,6.9-3.7c0-0.1,1.1-1.7,1.1-8.8l0-0.9l0.3-0.8c3-7.6,3.1-9.6,3.1-9.8c0-0.8-0.3-3-1.9-7.9
				c-1.5-4.5-2.2-8.1-2.4-10.8c-0.2-3.8,1.2-6.4,2.5-7.9c0.1-0.3,0.4-1.6,0.3-4.8l-1.2-26.3c0-0.2,0-0.3,0-0.6l-0.1-1.2l0.1,0
				c0-0.4,0.1-0.8,0.1-1.1l-0.1,0c0.4-2,2.5-8.7,15.7-42.7c5.8-15.3,8.6-28.7,8.4-39.6c-3.3,3.6-7,5.5-10.8,5.7
				c-2.7,0.2-5-0.9-6.6-2.9c-1.3-1.6-1.9-3.7-2.1-6.3c-0.2-4.6,0.9-14.1,12.6-43.7c10.2-25.7,12.1-36.6,11.9-41.2v0
				c-0.1-2.2-0.4-4.4-1-6.7c-0.4,1-0.8,2-1.2,3c-3,8.4-7.7,10.4-11.1,10.5c-8,0.4-11.3-10.3-13.8-26.4l-3.2-27.7
				c-0.6-2-1.4-4-2.4-5.8c0,0.1,0,0.3,0,0.4c0.6,12.5-4.2,24.5-14.3,35.5s-21.5,17-34,17.5c-4.2,0.2-7.5-0.4-10-1.9
				c-3-1.8-4.8-4.8-5-8.5c-0.1-1.7,0.1-3.4,0.7-5.2c-20.9,13.2-31.5,34.6-32.4,65.2l0,1.2l-0.6,1.1c-4.3,7.1-6.3,14.3-5.9,21.4
				l0.1,2.6l-2.1,1.5c-4.2,3-7.9,4.5-11.1,4.7c-3.8,0.2-9.8-1.1-12.5-9.9c-0.9,3.3-1.3,7-1.1,11c0.4,7.5,3.4,18.7,9.1,33.2
				c6.1,15.7,9.3,27.4,9.7,35.7c0.3,6.3-1.2,15.6-4.4,28.5c-3.9,15.4-4.4,20.9-4.3,22.8c0.1,1.4,0.4,4.3,1.4,9.7
				c0.9,4.9,1.4,8.5,1.5,11c0.1,2.7-0.4,6.4-1.6,11.4c-1.3,5.2-1.4,7.3-1.4,8.2c0.4,9,0.7,13.7,0.7,14l0,0.5l-0.1,0.5
				C798.1,628.6,797.9,630.5,797.8,631.4z M797.5,631L797.5,631L797.5,631z M902.7,628.3L902.7,628.3L902.7,628.3z M887.5,612.7
				C887.5,612.7,887.5,612.7,887.5,612.7C887.5,612.7,887.5,612.7,887.5,612.7z M920.8,570.5L920.8,570.5L920.8,570.5z M921.1,570.2
				C921,570.2,921,570.2,921.1,570.2C921,570.2,921,570.2,921.1,570.2z M843.8,529.9l-4-3.6l-0.1-2c-0.2-3.2,0.5-10.6,7.5-37.4
				c5.3-20,9.2-32.3,12.1-37.7l0.2-0.4c6.3-9.8,11.4-17,15.1-21.5l5.7-6.9l2.5,8.6c0.9,2.9,1.4,6.2,1.6,9.8l0.8,17.4
				c0.1,2.4,0.9,5.8,2.5,10.1c1.9,5.3,2.8,9.3,3,12.4v0c0.1,2.6-0.6,5.9-2.1,9.8c-1.5,3.8-1.5,5.1-1.5,5.4c0,0.7,0.3,2.5,1.4,6.6
				c1.1,4,1.6,6.7,1.7,8.7l0.2,4.8l-4,0.2c-0.6,0.4-1.5,1.1-2.9,2.3l10.2-0.5l-14.4,3.9c-4.3,3.4-8.1,5.1-11.8,5.3
				c-1.3,0.1-2.6-0.3-3.7-1c0,0-0.1,0-0.1,0l-11.3,3.1c-2.8,0.8-4.9,1.3-6.1,1.7L843.8,529.9z M855.2,516.9l0,1l2.4-0.1
				C856.8,517.2,855.9,516.9,855.2,516.9z M867.7,453.9c-1.7,3.3-5,12.2-11.2,35.5c-3.8,14.5-5.7,23.1-6.6,28.1
				c0.9-0.2,1.9-0.4,3.2-0.5c1.8-0.9,4.5-1.7,8-2.7l2-0.6l1.8,1.1c0,0,0,0,0,0c0,0,0.3,0.1,1.1,0.1l4.2-0.2c1.1-0.6,2.4-1.5,4-2.8
				c2.8-2.4,4.7-3.9,6-4.8c-0.2-1-0.5-2.2-1-3.9c-1.1-3.9-1.6-6.7-1.7-8.7c-0.1-2.4,0.6-5.3,2.2-9.3c1.4-3.6,1.5-5.3,1.5-5.9
				c-0.1-1.4-0.5-4.3-2.4-9.7c-1.9-5.3-2.8-9.5-3-12.9l-0.7-14C872.9,446,870.4,449.7,867.7,453.9z M855.2,516.9
				C855.2,516.9,855.2,516.9,855.2,516.9C855.2,516.9,855.2,516.9,855.2,516.9z M867.1,515.8C867.1,515.8,867.1,515.8,867.1,515.8
				C867.1,515.8,867.1,515.8,867.1,515.8z M834.2,345.3l-0.5-11.5c0-0.9-0.3-2.6-1.2-6c-0.9-3.3-1.3-5.9-1.4-7.9
				c-0.3-6.4,4-12.4,13.1-18.3l1.1-0.7l12.9-0.6l-6.7,8.3c-1.7,2.1-2.5,4.3-2.4,6.6c0,0.6,0.2,2,0.9,5.2c0.7,3,1.1,5.4,1.1,7.3
				c0.3,6.1-2.6,11.6-8.5,16.4l-1.2,1L834.2,345.3z M872.1,327l-0.6-13.5c-0.1-1.3-0.4-4.1-1.6-9.5c-1.1-4.9-1.7-8.7-1.8-11.6
				c-0.4-8.3,5.4-16.3,17.7-24.3l1.1-0.7l13-0.6l-6.3,8.2c-2.7,3.5-3.9,6.9-3.7,10.7c0.1,2,0.5,4.7,1.3,8.1c0.9,4,1.4,7,1.5,9.2
				c0.4,8.7-3.7,16.4-12.2,22.9l-1.2,0.9L872.1,327z M880.3,285.1c-1.9,2.4-2.8,4.7-2.7,6.8c0.1,2.3,0.7,5.7,1.6,10
				c0.9,4.1,1.5,7.3,1.7,9.7c1.6-2.6,2.3-5.4,2.2-8.3c-0.1-1.6-0.5-4.2-1.3-7.6c-0.9-3.9-1.4-7.1-1.5-9.7
				C880.3,285.7,880.3,285.4,880.3,285.1z"/>
		</g>
		<g>
			<path class="st7" d="M1187,274.6c-3.5,4.5-6.3,13.1-8.3,25.9c-2,12.8-2.5,22.5-1.4,29.2c1.1,6.7,3.4,9.8,6.9,9.2
				c2.5-0.4,5.6-2.7,9.2-6.9c1.5,3.4,2.6,6.9,3.2,10.8c1.6,9.9,0.4,21.8-3.5,35.9c1.6,4,2.4,7,2.4,8.9l0.5,2.9
				c-2.8,2.7-4.9,7.8-6.4,15.2c-1.4,7.4-3.3,12.5-5.6,15.4c-2.3,2.8-5.5,7-9.5,12.6c-2.6,4.3-6.7,15.5-12.5,33.4
				c-5.8,17.9-9.1,29.9-10.1,35.9c0.5,2.9,0.5,7.3,0.2,13.2c-0.9,4.4-3.6,10.1-8,17c-5.5,8.7-8.8,14.3-10,16.8
				c0.3,1.9-0.1,4.8-1.1,8.5c-1.8,1.3-4,3.4-6.8,6.5c-0.7,1.4-3.3,7.7-7.7,18.9c2.1,17-2,26.3-12.2,27.9c-5.4,0.9-10.8-0.2-16.2-3.3
				c-5.4-3.1-8.5-7.1-9.3-12.2c-0.8-0.9-1.2-1.6-1.3-2.2c0.1,0.3,2.2-5.4,6.5-17.2c-0.3-3.9,1-8.7,3.8-14.3c2.8-5.7,4.3-10,4.5-13
				c0.4-5.3,0.7-10.6,0.9-15.8c0.9-6.7,2.7-11.9,5.3-15.6c2.7-3.7,4.7-8.1,6.2-13.3c-4.8-3.5-8.5-7.7-11.1-12.7
				c-2.6-5-4.7-8.5-6.4-10.5c-4.8-3.2-9.3-6.4-13.6-9.8c-4.3-3.4-8-8.6-11.1-15.6c-1.6-4-4.2-7-7.8-9c-2.5-1.2-6.6-6.6-12.4-16.1
				c-0.9-1.5-2.4-3.7-4.5-6.6c-5-0.8-7.8-2.8-8.3-6c-0.7-4.5-3-9.5-6.8-15.1l-0.2-1.4l0.1,0.5c1.1-1.5,2-3.6,2.9-6.4
				c-4.6-12-7.4-21.5-8.5-28.5c-2.5-15.6,3.4-32.7,17.7-51.4c-3.3,6.1-4.2,13.3-2.9,21.5c1.3,8,4.9,12,10.8,12
				c0.5-10.9,2.9-19.7,7-26.6c1.7,8.2,3.3,12.2,4.9,12c8-1.3,8.4-23.6,1.5-66.9c1.8,6.9,5.6,19.4,11.4,37.4
				c5.4,15.5,8.9,28,10.5,37.5c2.8,17.2,1.2,31.7-4.8,43.4c2.4,6.8,6.7,14.4,13,22.9c5.1,7.3,10.3,14.5,15.7,21.5
				c1.5,7.6,2.9,12.1,3.9,13.6c1,1.5,4.7,4.6,11.1,9.5c0.9-2.4,2.3-5.9,4.2-10.5c1.1-3.1,1.4-8.2,1-15.3c-0.6-5.8,0.5-10.9,3.4-15.3
				c4.5-6.6,6.6-11.5,6.4-14.8c-0.2-7.5,1.4-13.5,4.9-18c-1.8-5.3-3.1-9.8-3.7-13.6c-1.9-11.8,1.8-24.5,11-38
				c-0.1,5.3,0,9.2,0.4,11.7c0.5,3.2,1.4,4.7,2.7,4.5c2.9-2.1,7.7-12.2,14.2-30.2C1169.6,296.2,1177.6,282.9,1187,274.6z
				 M1045.7,279.7c-2.1,3.3-2.8,6.7-2.3,10.2c0.2,1.3,0.8,3.2,1.9,5.8c1.1,2.6,1.7,4.6,1.9,5.8c0.7,4.5-1.3,8.9-6.2,13.3
				c-0.3-1.9-0.6-3.8-0.9-5.7c-0.3-1.6-1.1-4-2.4-7.2c-1.3-3.2-2.1-5.6-2.4-7.2c-0.7-4.1,2.5-9.1,9.4-14.7L1045.7,279.7z
				 M1156.7,241.7c-2.8,4.7-3.9,9.4-3.1,14.2c0.4,2.2,1.2,5.1,2.6,8.6c1.4,3.5,2.2,6.3,2.5,8.2c1.1,7-1.9,13.7-9,20.1
				c-0.5-3.2-1-6.2-1.5-9.1c-0.4-2.5-1.5-6-3.1-10.3c-1.7-4.3-2.7-7.6-3.1-9.8c-1-6.4,3.4-13.6,13.2-21.7L1156.7,241.7z"/>
			<path d="M1102.5,616.7c-5,0-10-1.4-14.9-4.2c-6.2-3.5-10-8.2-11.4-14.1l-1-0.1l-0.6-3.6c0,0,0,0,0-0.1l4.7-0.8l-4.1-2.2
				c0.3-0.5,1.4-3.3,5.9-15.7c-0.1-4.5,1.3-9.7,4.4-15.7c3.3-6.7,3.9-9.8,4-11.1c0.5-5.4,0.7-10.6,0.9-15.7l0-0.5
				c1-7.4,3.1-13.4,6.2-17.7c1.8-2.5,3.3-5.4,4.5-8.8c-4.1-3.5-7.4-7.5-9.8-12.2c-2.6-5.1-4.4-7.7-5.4-9.2
				c-4.7-3.1-9.1-6.3-13.3-9.6c-4.9-3.9-9.1-9.7-12.5-17.4c-1.3-3.1-3.2-5.3-5.8-6.8c-2.2-1.1-5.9-4.2-14.1-17.8
				c-0.5-0.8-1.4-2.3-3.2-4.8c-7.4-1.8-9.7-6.1-10.2-9.6c-0.4-2.4-1.3-5-2.8-7.9l-2.3,3.2l-1.9-11.9l4.2-0.7l-3.3-2.4
				c0.4-0.6,1-1.6,1.7-3.5c-4.3-11.5-7-20.9-8.2-27.8c-2.7-16.9,3.5-35.4,18.6-55l3.8,2.4l-0.9-5.8c-0.1-0.7-0.5-2.4-2.1-6.1
				c-1.5-3.6-2.4-6.3-2.7-8.3c-1-6,2.6-12.3,11.1-19.2l1-0.8l10.9-1.8c-0.2-1.6-0.5-3.2-0.8-4.8l9.3-1.9c1.7,6.7,5.5,19.2,11.3,37.1
				c5.5,15.5,9.1,28.4,10.6,38.2c2.8,17.2,1.3,32.2-4.3,44.4c2.3,5.9,6.3,12.5,11.7,19.8c5.1,7.4,10.4,14.6,15.7,21.4l0.7,0.9
				l0.2,1.1c1.9,9.5,3,11.5,3.1,11.8c0.1,0.2,1,1.2,5.1,4.5c0.6-1.4,1.2-2.9,1.9-4.6c0.5-1.5,1.2-5.2,0.6-13.2
				c-0.7-6.7,0.7-12.9,4.2-18.2c5.4-8,5.7-11.1,5.7-11.9c-0.2-7.6,1.3-13.9,4.4-19c-1.5-4.6-2.5-8.6-3.1-12.1
				c-2.1-13,1.9-26.9,11.8-41.5l9.1-13.4l-0.4,16.2c0,1.6-0.1,3.1,0,4.5c1.9-4.2,4.6-10.5,8.1-20.3c6.8-18.7,15.3-32.7,25.3-41.6
				l6.9,6.5c-2.1,2.6-5,8.9-7.4,23.7c-1.9,12.2-2.4,21.5-1.4,27.6c0.5,3.4,1.3,4.7,1.6,5.2c0.7-0.2,2.6-1.2,6.1-5.2l4.9-5.7l3.1,6.8
				c1.7,3.7,2.9,7.8,3.6,12c1.6,10.1,0.6,22.4-3.2,36.4c1.4,3.7,2.1,6.5,2.2,8.8l0.8,5l-1.8,1.7c-1.4,1.4-3.5,4.7-5,12.7
				c-1.6,8.3-3.7,14-6.6,17.5c-2.2,2.7-5.3,6.8-9.2,12.1c-1.7,2.9-5.1,10.9-12,32.2c-5.4,16.9-8.8,28.5-9.8,34.6
				c0.4,3.2,0.4,7.6,0.1,13.4l-0.1,0.7c-1.1,5-3.9,11.1-8.7,18.6c-5.4,8.7-8,13-9.2,15.2c0.1,2.3-0.4,5.2-1.3,8.8l-0.4,1.6l-1.4,1
				c-1,0.7-2.7,2.2-5.6,5.3c-0.6,1.3-2.3,5.2-6.8,16.8c2.6,23.8-7.4,30.6-16.3,32C1105.4,616.6,1104,616.7,1102.5,616.7z
				 M1084.6,593.4l0.5,0.5l0.2,1.4c0.6,3.6,2.9,6.5,7,8.8c4.5,2.5,8.7,3.4,13.1,2.7c2.7-0.4,10.7-1.7,8.2-22.7l-0.1-1.2l0.4-1.1
				c6.7-16.9,7.6-18.7,7.9-19.4l0.3-0.5l0.4-0.5c2.4-2.6,4.4-4.6,6.1-6c0.7-3.1,0.7-4.5,0.6-5l-0.2-1.5l0.7-1.4
				c1.3-2.6,4.7-8.3,10.3-17.2c4-6.2,6.5-11.3,7.3-15.1c0.3-5.4,0.3-9.4-0.1-11.8l-0.1-0.8l0.1-0.8c1-6.4,4.4-18.3,10.3-36.6
				c5.9-18.4,10.2-29.7,12.9-34.4l0.2-0.4c4-5.6,7.3-9.9,9.7-12.8c1.2-1.5,3-5,4.6-13.2c1.3-7,3.3-12.2,6-15.8l-0.2-1.1l0-0.4
				c0-0.6-0.2-2.5-2.1-7.1l-0.6-1.5l0.4-1.6c3.7-13.3,4.9-24.7,3.4-33.8c-0.2-1-0.3-1.9-0.6-2.9c-2.2,1.6-4.3,2.6-6.4,2.9
				c-3.5,0.6-6.7-0.7-8.9-3.7c-1.6-2.2-2.7-5.3-3.4-9.4c-1.1-7-0.7-16.6,1.2-29.2c-2.2,4.5-4.3,9.4-6.2,14.8
				c-9.1,25-13,30.4-15.9,32.5l-0.9,0.7l-1.1,0.2c-2.6,0.4-5-0.8-6.5-3.2c-0.3-0.5-0.5-1-0.8-1.6c-3,7.5-4,14.6-2.9,21.2
				c0.6,3.5,1.7,7.8,3.5,12.8l0.9,2.5l-1.6,2.1c-2.8,3.6-4.1,8.6-3.9,14.9c0.3,4.3-2,9.9-7.3,17.6c-2.2,3.4-3.1,7.4-2.6,12.1
				c0.6,8,0.2,13.7-1.2,17.5c-1.9,4.6-3.3,8.1-4.2,10.5l-2.3,6l-5.1-3.9c-8.9-6.8-11.1-9.1-12.1-10.5c-1.1-1.5-2.4-4.3-4.5-14.3
				c-5.1-6.7-10.2-13.7-15.2-20.8c-6.5-8.7-11.1-16.8-13.6-24l-0.7-1.9l0.9-1.8c5.5-10.8,6.9-24.4,4.3-40.5
				c-1.2-7.5-3.7-17.1-7.5-28.6c0,0.8,0,1.5,0,2.3c-0.1,5.7-0.5,20.7-10.3,22.3c-2.7,0.4-4.6-0.8-6.1-2.8c-1,3.9-1.6,8.2-1.8,13
				l-0.2,4.6l-4.6,0c-4.8,0-13.2-2.1-15.4-16c-0.1-0.3-0.1-0.6-0.1-0.9c-4.9,10.4-6.7,20.2-5.2,29.2c1.1,6.7,3.9,16,8.3,27.6
				l0.6,1.5l-0.5,1.6c-0.6,2-1.3,3.7-2,5.2c3.5,5.4,5.6,10.4,6.3,15c0.2,1.3,3.4,1.9,4.4,2.1l2,0.3l1.2,1.6c2.1,3,3.7,5.3,4.7,6.9
				c7.5,12.4,10.2,14.2,10.5,14.3c4.8,2.7,8.1,6.5,10.1,11.5c2.7,6.1,6,10.8,9.6,13.7c4.1,3.3,8.6,6.5,13.3,9.6l0.6,0.4l0.5,0.6
				c1.9,2.3,4.1,6,6.9,11.3c2.2,4.3,5.5,8,9.7,11l2.7,2l-0.9,3.2c-1.6,5.7-3.9,10.6-6.9,14.7c-2.2,3-3.7,7.4-4.4,13.2
				c-0.1,5.2-0.4,10.5-0.9,15.8c-0.2,3.5-1.9,8.4-5,14.7c-2.4,4.8-3.6,8.9-3.3,11.8l0.1,1l-0.4,1
				C1087.6,585.6,1085.9,590.4,1084.6,593.4z M1038.5,323.5c-1,3.9-1.1,8.3-0.3,13.3c0.4,2.7,1.1,4.5,1.9,5.7c1.1-8.6,3.5-16,7.1-22
				l6.3-10.6l2.4,12.1c0.4,1.8,0.7,3.2,1,4.4c1.2-5.5,1.8-18.9-2.9-50.6l-4.2,6.6c-1.4,2.3-2,4.5-1.6,6.8c0.1,0.4,0.4,1.7,1.6,4.7
				c1.2,3,2,5.2,2.2,6.9c1,6.1-1.6,12-7.7,17.6L1038.5,323.5z M1151.3,341.1L1151.3,341.1L1151.3,341.1z M1183.8,334.2L1183.8,334.2
				L1183.8,334.2z M1146.5,302.2l-2.9-17.7c-0.4-2.2-1.3-5.3-2.9-9.3c-1.8-4.6-2.9-8.2-3.3-10.8c-1.3-8.2,3.5-16.8,14.8-26.2l1-0.8
				l12.9-2.1l-5.3,8.8c-2.3,3.7-3.1,7.3-2.5,11c0.3,1.9,1.1,4.5,2.3,7.7c1.5,3.9,2.5,6.9,2.8,9.2c1.4,8.7-2.1,16.9-10.5,24.4
				L1146.5,302.2z M1148.8,255.8c-1.6,2.6-2.3,5-2,7.1c0.2,1.3,0.9,3.9,2.8,8.8c1.5,4,2.6,7.2,3.1,9.9c1.3-2.7,1.8-5.4,1.3-8.1
				c-0.2-1.1-0.7-3.2-2.3-7.2c-1.5-3.9-2.5-7-2.9-9.6C1148.9,256.4,1148.8,256.1,1148.8,255.8z"/>
		</g>
	</g>
</g>
</svg>
