<?xml version="1.0" encoding="utf-8"?>
<!-- Generator: Adobe Illustrator 25.2.1, SVG Export Plug-In . SVG Version: 6.00 Build 0)  -->
<svg version="1.1" id="Layer_1" xmlns="http://www.w3.org/2000/svg" xmlns:xlink="http://www.w3.org/1999/xlink" x="0px" y="0px"
	 viewBox="0 0 349.8 62.6" style="enable-background:new 0 0 349.8 62.6;" xml:space="preserve">
<style type="text/css">
	.st0{fill:#ED2028;}
	.st1{fill:#FFFFFF;}
	.st2{stroke:#231F20;stroke-miterlimit:10;}
</style>
<g id="play-button-hover_6_">
	<g id="casee_68_" transform="matrix( 1, 0, 0, 1, 0,0) ">
		<g>
			<g transform="matrix( 1, 0, 0, 1, 0,0) ">
				<g>
					<g id="CaseMc_1_0_Layer0_0_FILL_6_">
						<path class="st0" d="M48.1,58.4l-0.1,0c1.3,0,1.9,0.1,1.8,0.3c0.6,0,0.8-0.1,0.6-0.2c-0.1-0.1,0.2-0.1,1-0.1l0.3,0
							c-0.2,0-0.4-0.1-0.6-0.1c-0.2-0.1-0.3-0.1-0.5-0.1c-0.5,0-0.9,0-1.3,0L49,58.4C48.6,58.3,48.3,58.4,48.1,58.4 M46.2,58.6
							l0.4,0c-1.8-0.1-2.6-0.1-2.6,0.2C45,58.8,45.7,58.7,46.2,58.6 M42,55.1c0.2,0.1,0.3,0.3,0.3,0.5c0.7,0,1.1-0.1,1.3-0.2
							c-1-0.1-1.3-0.2-0.9-0.4c0.1,0,0.1-0.1,0.3-0.1c0.5-0.1,0.6-0.2,0.1-0.2c-1,0-1.5,0.1-1.3,0.2C41.9,55,41.9,55.1,42,55.1
							 M45.4,52.8c0.4,0,0.7-0.1,0.9-0.1c0.1-0.1,0.1-0.1-0.1-0.1C45.4,52.4,45.1,52.5,45.4,52.8 M47.2,49.3l-0.4,0
							c1.2-0.2,0.9-0.2-0.9-0.2l-0.2,0.1c0.4,0.1,0.3,0.2-0.2,0.2c-1,0-1.2,0.1-0.5,0.3c0.8,0,1.3,0,1.7-0.1
							C47.6,49.5,47.8,49.4,47.2,49.3 M51.4,53c0.2,0,0.4,0,0.6,0c2.3,0,2.7-0.1,1.1-0.1c-0.7-0.1-1.2-0.2-1.7-0.2l-0.3,0
							c-2,0-2.9,0.1-2.7,0.5C49.4,53.1,50.4,53.1,51.4,53 M50.3,51.9C50.4,51.8,50.4,51.8,50.3,51.9c-2.3-0.1-3,0-2.2,0.3
							C49.4,52.2,50.1,52.1,50.3,51.9 M51.8,50.7c0.2,0,0.4,0,0.6,0l0.6,0c-0.1-0.1-0.8-0.2-2-0.2l-0.6,0
							C50.8,50.5,51.3,50.6,51.8,50.7 M49.9,48.8c0.4,0,0.8,0,1.2,0l0.3,0c0.4-0.2,0.3-0.3-0.3-0.3c-0.3,0-0.5-0.1-0.6-0.1
							c-0.5-0.1-1.2-0.1-2-0.1c-0.2,0-0.4,0-0.6,0c-1,0-1.5,0-1.5,0.1c0.1,0.2,0.7,0.4,1.7,0.5C48.8,48.8,49.4,48.8,49.9,48.8
							 M54,50.2c0.8,0,1.1,0,0.8,0c-0.3-0.1-1.1-0.1-2.6-0.2c-1.8,0-3.4,0-4.7-0.1c-1-0.1-1.8-0.1-2.3,0c0.2-0.2-0.1-0.2-0.7-0.2
							c-0.6,0-0.8-0.1-0.8-0.1l0,0c0.1,0.1-0.4,0.2-1.4,0.1c-0.5,0.1-0.1,0.2,1.2,0.3c0.4,0,0.7,0,0.9,0.1c0.6,0.1,1.1,0.3,1.6,0.4
							c0.2,0,0.3,0.1,0.3,0.1c0,0.2,0.4,0.3,1,0.3c1.3,0,2.1,0,2.5,0.1c0.1,0,0.3-0.1,0.5-0.1c0.7-0.1,0.7-0.2,0-0.3
							c-0.9-0.1-2-0.1-3-0.1c0.1-0.2,0.4-0.3,1-0.3l0.4-0.1c-0.2,0-0.4,0-0.8,0c-0.8-0.1-0.9-0.1-0.3-0.1
							C49.4,50.2,51.6,50.2,54,50.2 M54.1,48.7c0.2,0,0.4,0,0.5,0c0.3,0,0.5,0,0.7,0c1.8,0,2.1-0.1,1.1-0.2l-0.4,0
							C55.3,48.5,54.6,48.6,54.1,48.7 M30.9,60.2c0.2,0,0.4,0,0.6,0c2.2-0.2,3.7-0.5,4.4-0.9l0,0C34,59.6,32.4,59.9,30.9,60.2
							 M32.3,51.3c-0.1-0.2,0.3-0.3,1.3-0.4c1.5-0.1,2.6-0.3,3.3-0.5c-2.5,0.2-4.9,0.4-7.2,0.7c-0.2,0-0.5,0-0.6,0c-0.4,0-0.7,0-1,0
							l0,0.3c0.2,0.1,0.3,0.1,0.4,0c0,0,0,0,0.1-0.1c1.2-0.1,2,0,2.5,0.3c0.3-0.1,0.8-0.2,1.4-0.3L32.3,51.3 M37.3,49.4
							c0.1,0,0.2-0.1,0.2-0.2c-0.1-0.1,0.2-0.1,0.8-0.1l0.6,0c0-0.1-0.2-0.1-0.6-0.2l-0.4,0C36.7,49,36.5,49.2,37.3,49.4 M39,50.1
							l0.2-0.1c-2.1,0-2.7,0.1-1.7,0.3C38.3,50.4,38.7,50.3,39,50.1 M39.2,49.8c0.2,0,0.3,0,0.4,0l0.3-0.1c-0.4-0.2-0.7-0.3-1.1-0.4
							l-0.1-0.1C37.9,49.5,38.1,49.6,39.2,49.8 M31.8,47.2c1.8,0,2.2-0.1,1.4-0.2l-0.3-0.1c-0.6,0-1.2,0-1.8,0
							C30.6,47,30.9,47.1,31.8,47.2 M31.6,46.2c0.4,0,0.8,0,1.2,0l0.2,0c-0.8-0.2-1.4-0.2-2,0.1C31.2,46.3,31.4,46.3,31.6,46.2
							 M27.8,47.5c1.1,0,1.4,0,1.1-0.1c-0.4-0.2-0.1-0.3,0.8-0.4l0.1-0.1c0.4-0.1,0.3-0.2-0.3-0.2c-0.2,0-0.4,0-0.5,0
							c-0.3,0-0.5,0-0.4,0.1C28.6,47.1,28.3,47.3,27.8,47.5 M29.4,45.3l-0.5,0c0.1,0.1,0.6,0.2,1.3,0.4c0.2,0,0.3,0,0.4,0
							c0.8-0.1,1.7,0,2.6,0.1c1.2,0,1-0.1-0.7-0.2C31.4,45.4,30.4,45.4,29.4,45.3 M30,43.3c0.4,0,0.6,0,0.7-0.1
							C31.2,43,31,42.9,30,43C28.8,43.1,28.8,43.2,30,43.3 M33.4,43c0.6,0,1.1-0.1,1.6-0.2l0.4-0.1C34.1,42.6,33.4,42.7,33.4,43
							 M35,42.9l-0.2,0c0.4,0.1,0.9,0.2,1.5,0.2c1.2,0,2-0.1,2.4-0.2c0.1,0,0.2,0,0.1-0.1c-0.4-0.2-0.9-0.2-1.4,0
							C37.3,43,36.4,43,35,42.9 M33.9,43.7c0,0-0.1-0.1-0.3-0.1c-1.1,0-1.9,0-2.2,0c-0.2-0.1-0.2-0.1-0.1-0.1c0.2,0,0.4-0.1,0.6-0.1
							c0.8-0.1,0.7-0.2-0.3-0.1c-0.3,0-0.6,0-0.7,0.1c-0.4,0-0.6,0.1-0.4,0.3c0.2,0.1,0.6,0.2,1.4,0.3c0.2,0,0.4,0,0.6,0
							C33.8,43.9,34.3,43.9,33.9,43.7 M41,39.9c0.8,0.1,1.2,0,1.2-0.2c0-0.1-0.1-0.1-0.2-0.1C40.2,39.5,39.9,39.6,41,39.9
							 M36.5,41.5c0.4,0,0.7,0,0.9-0.1l0-0.1c-0.2-0.6-0.9-0.7-2.1-0.4L35,41.1C36.1,41,36.6,41.2,36.5,41.5 M51.5,45.7L51.5,45.7
							c-0.5-0.1-1.3-0.1-2.4,0c-0.7,0-0.5,0.1,0.5,0.2C50.9,46,51.5,45.9,51.5,45.7 M46.4,47.4c-0.1-0.1-0.2-0.1-0.4-0.1
							c-1.4,0-1.7,0.1-1,0.3C46.2,47.7,46.7,47.6,46.4,47.4 M42.6,46.2l0.2-0.1c-0.5-0.1-1-0.2-1.5-0.3C41.4,46,40.7,46,39,46
							c-1.4,0-2.5,0-3.3-0.2l-0.4,0c0.6,0.1,1.6,0.3,3,0.4c0.2,0,0.4,0,0.4,0.1l-0.1,0c-1.2-0.1-1.8,0-1.9,0.2
							c1.3-0.1,2.4-0.1,3.5-0.1l0.3,0c0.1-0.1,0.7-0.1,2.1,0C42.1,46.4,42.1,46.3,42.6,46.2 M45.6,46.3l-0.6,0
							c0.5,0.1,1,0.2,1.5,0.4l0.1,0c-0.4,0.1,0.3,0.2,2.2,0.2c1.7,0,2.9,0.1,3.6,0.3c0.2,0,0.4,0,0.6,0c0.2,0,0.4,0,0.6,0
							c0.7,0,0.9-0.1,0.8-0.2c-0.2-0.2-1-0.2-2.2-0.2c-0.4,0-0.8,0-1.2,0c-1.2,0.1-1.7,0-1.5-0.3c0,0,0,0,0.1-0.1
							c0.3-0.1-0.4-0.2-2.2-0.3l-0.6,0C46.6,46.2,46.2,46.3,45.6,46.3 M23.5,47l-0.2,0c0.4,0.1,0.9,0.1,1.5,0.2c0.4,0,0.7,0,0.9-0.1
							C25.1,47,24.3,47,23.5,47 M22.3,43.2c0.2,0,0.4,0,0.6,0c0.4,0,0.6,0,0.8-0.1c0.5-0.1,0.4-0.2-0.3-0.2c-0.3,0-0.5,0-0.7-0.1
							C22.9,43,22.8,43.1,22.3,43.2 M26.9,44.9c-1.2,0.1-1.2,0.2,0.1,0.4c0.9,0,1.4-0.1,1.3-0.1c-0.1-0.1-0.2-0.1-0.4-0.1
							c-0.2,0-0.5-0.1-0.7-0.1L26.9,44.9 M19.1,47.4l-0.1,0l0.3,0.2c0.6-0.1,1-0.1,1.4-0.1c0,0,0.1,0,0.1,0
							C21.5,47.4,20.9,47.4,19.1,47.4 M16.7,43.7l-0.6,0.1c0.2,0,0.6,0,1.1,0.2C19.7,43.9,19.5,43.8,16.7,43.7 M18.9,44
							c-0.5,0.1-0.2,0.2,0.8,0.3c0.2,0,0.5,0,0.6-0.1c0.1,0,0.3,0,0.6,0c1.5-0.1,1.5-0.1-0.1-0.1l-0.4,0C19.7,44,19.1,43.9,18.9,44
							 M17.7,45.2c0.3,0,0.8-0.1,1.5-0.1c0.6,0,1.4-0.1,2.4,0c1.5,0.1,2.2,0.1,2.3-0.2c-2.5,0.1-4,0-4.5-0.2l-0.9,0
							c-0.2-0.2-0.5-0.3-1-0.4c-0.2,0-0.3-0.1-0.4-0.1c-1.5-0.1-1.8,0-0.9,0c0,0,0,0,0.1,0c0.1,0,0.2,0.1,0.3,0.1
							c0.1,0.1,0.1,0.1,0,0.1c-1.1,0.1-1.7,0-1.9-0.1l-0.3,0c-0.9,0.1-0.9,0.2,0,0.3c0.6,0.1,1.2,0.2,1.8,0.3l0.3,0
							C17.3,44.9,17.7,45,17.7,45.2 M27.5,41.6c0,0,0.1,0,0.1,0c0.2,0.2,0.4,0.3,0.7,0.4c0.2,0,0.4-0.1,0.4-0.2
							c0.1-0.1,0.1-0.2,0.1-0.2c0.1,0,0.2,0,0.4,0c0.4,0,0.8,0,1.2,0c0.7,0,1.3,0.1,1.7,0.2c-0.1,0-0.2,0-0.2,0.1
							c-0.3-0.1-0.7-0.1-1.1-0.2l-0.3-0.1c0.3,0.3,0.4,0.7,0.4,1.2c0.2,0,0.4,0,0.4-0.1c0.2-0.1,0.3-0.2,0.5-0.3
							c0.1-0.1,0.2-0.1,0.2-0.2c0,0,0.1,0,0.1,0c0.4,0,0.7-0.1,0.9-0.1c0,0,0.1,0,0.1,0c0.7,0,0.9,0,0.9-0.1l0,0
							c0.6-0.1,0.5-0.2-0.3-0.2l-0.4,0c-0.1,0-0.1,0.1-0.2,0.1c0-0.1-0.1-0.1-0.3-0.2l-0.1,0c0.3-0.2,0-0.3-0.7-0.4
							c-0.7,0-1.3-0.1-2.1-0.1c-0.8-0.2-1.3-0.1-1.6,0.1c-0.2-0.1-0.5-0.1-0.9-0.1c-0.1,0-0.2,0-0.2,0.1c0,0,0,0.1,0.1,0.1
							C26.9,41.5,27,41.5,27.5,41.6 M22.5,41.9c0,0.1,0.2,0.2,0.3,0.2l0.3,0c2.1,0,2.7,0,1.8,0.1c-0.7-0.1-1-0.1-1,0
							c0,0.3-0.3,0.3-0.9,0.2c-0.2,0-0.4-0.1-0.5-0.1c-0.6-0.2-1.1-0.2-1.4,0.1c-0.1,0-0.1,0.1,0,0c0.7,0,1.4,0.1,2.2,0.1
							c0.2,0,0.3,0,0.4,0c0.7-0.1,1.2,0,1.5,0.3c2-0.1,2.2-0.2,0.6-0.4c-0.9-0.1-1-0.2-0.2-0.2c0.3,0,0.5,0,0.6,0
							c0.1,0.1,0.5,0.2,1,0.2c1.6,0.1,1.6,0.2,0.3,0.2c0.6,0.1,1.1,0.1,1.6,0c0.1,0,0.3-0.1,0.5-0.1c0.1-0.1,0.2-0.1,0.2-0.1
							c0.3-0.1,0.1-0.2-0.7-0.2c-0.4,0-0.8,0-1.1,0c-0.6,0-0.4-0.1,0.4-0.2c-0.2-0.2-0.5-0.3-1.1-0.4l-0.4,0c-0.2,0-0.4,0.1-0.6,0.1
							C24.9,42,23.6,42,22.5,41.9 M25.4,37.4c0,0.1,0,0.2,0.1,0.2c0.4,0,0.8-0.1,1.1-0.1l0.2-0.1c-0.2-0.1-0.3-0.2-0.5-0.3
							C26,37.3,25.7,37.3,25.4,37.4 M45.3,33.8c0.4,0,0.7,0,0.7-0.1c0.3-0.4,0.7-0.5,1.2-0.2l0.3,0.1c0.2-0.1,0.3-0.2,0.6-0.3
							l0.2-0.1C47.1,32.8,46.1,33,45.3,33.8 M48.3,31.6c0.4,0.2,0.9,0.3,1.5,0.4c0.7,0,0.9-0.2,0.8-0.6c0-0.1,0-0.1,0.1-0.1
							c0.8,0.2,1.2,0,1-0.5c0,0,0,0-0.1,0c-1.1,0.2-2.1,0.4-3,0.7C48.4,31.5,48.3,31.6,48.3,31.6 M50.5,29.7c-0.6-0.1-1.3-0.2-2-0.1
							l0.5,0.4c0.3-0.1,0.7-0.1,1.2-0.2L50.5,29.7 M55.4,25.5c1.6,0,2-0.1,1.4-0.3c-0.2,0-0.3-0.1-0.4-0.1
							C54.6,25,54.3,25.1,55.4,25.5 M41.3,33.7c1.2-0.2,1.7-0.4,1.3-0.7c-0.1-0.1-0.2-0.1-0.1-0.1c1.9-0.2,2.6-0.4,2.1-0.8
							c-1,0.4-2.1,0.7-3.1,1C41.5,33.3,41.4,33.5,41.3,33.7 M41.5,23.3c-0.8,0.1-1.3,0.3-1.6,0.7l0.3,0.1c1.3,0.1,1.8-0.1,1.5-0.6
							L41.5,23.3 M54.6,23.8c0.8,0,1.5,0,2.3,0l0.6,0c-0.3-0.3-0.2-0.6,0.4-0.8c-0.4-0.2-0.9-0.2-1.7-0.3c-0.4,0-0.6,0-0.7,0.1
							c-0.1,0.1-0.1,0.2,0,0.3l0.2,0.1C54.6,23,54.3,23.3,54.6,23.8 M48.3,22.5c-1.2-0.4-1.7-0.1-1.4,0.7
							C47.7,23.1,48.1,22.9,48.3,22.5L48.3,22.5 M46.7,14.1c0.7-0.4,0.3-0.5-1-0.3C45.4,14,45.1,14,44.8,14
							c-1.4,0.1-2.5,0.3-3.2,0.6l-0.2,0.1c-0.4-0.2-1.3-0.2-2.7-0.2c-1.6,0.1-2.5,0.2-2.9,0.5c0.6-0.1,1.5-0.1,2.9,0l0.4,0
							c0.5-0.1,1.4-0.1,2.6,0c0.4,0,0.7-0.1,1-0.1c0.5,0,1.1-0.1,1.9,0c1.6,0,2.6-0.1,3-0.3l0.2-0.1C47.2,14.4,46.9,14.3,46.7,14.1
							 M24.7,9.7c-2,0.1-2.4,0.3-1,0.5c2.2,0,3.7-0.1,4.7-0.3c0.1,0,0.3,0,0.6,0c1.7-0.3,1.3-0.4-1.3-0.3
							C26.7,9.6,25.7,9.7,24.7,9.7 M2,4.3c-0.2,0-0.4,0-0.4,0.1c0.5,0.1,1,0.1,1.5,0.3c0.4,0,0.6,0,0.6,0C4.2,4.3,3.6,4.2,2,4.3
							 M0.5,0.5C1.2,0.4,1.3,0.3,0.8,0c0,0-0.1,0-0.1,0C-0.2,0.1-0.2,0.3,0.5,0.5 M121.9,60.1c2.5,0,4.2-0.1,5.1-0.2l0.6,0
							C124.7,59.9,122.9,59.9,121.9,60.1 M145.5,60.4c3.6-0.1,5.4-0.2,5.7-0.5l0,0C146.8,59.8,144.9,60,145.5,60.4 M64.6,62.6
							c1.7-0.1,2.7-0.2,3.2-0.4C67.9,62.1,68,62,68,62c1.4-0.1,1.5-0.2,0.2-0.4l-0.1,0C66.9,61.9,65.7,62.2,64.6,62.6 M105.8,60.6
							c1,0,1.5,0,1.6,0c1.1-0.2-0.4-0.3-4.4-0.2l-0.8,0C103.2,60.5,104.4,60.6,105.8,60.6 M101.5,55.4c-1.3,0.1-0.4,0.3,2.7,0.5
							c1.7,0,2.8,0,3.4-0.2c0.1,0,0.2-0.1,0.1-0.1c-0.4-0.1-1-0.1-1.6-0.2C103.9,55.3,102.4,55.3,101.5,55.4 M103,56.5
							c-5,0-5.4,0-1.4,0.1c5.1,0,8.1,0.2,8.9,0.4c3.3,0,5.7-0.1,7.3-0.2c-3.1-0.1-6-0.2-8.7-0.2C108.2,56.5,106.1,56.5,103,56.5
							 M100.7,50c3.2,0,4.9,0,5.1-0.1c0.2-0.1-0.9-0.2-3.4-0.2C101.7,49.7,101.1,49.8,100.7,50 M109,50.5l-0.8,0
							c-3.5,0.1-3.4,0.2,0.3,0.3C110.1,50.7,110.3,50.6,109,50.5 M87.9,59c-0.6,0-1.1,0-1.6,0c-1.7,0-3.3,0-4.7,0.1l0,0.2
							c0.6,0,1.1-0.1,1.6,0c0.5,0,0.9,0,1.3,0l0.1-0.1c0.3,0,0.6,0,0.9,0c0.7,0,1.4-0.1,2.1,0c2.2,0.1,4.3,0,6.1-0.1
							C92.3,59,90.4,59,87.9,59 M88,49.9c-0.8-0.1-1.7,0-2.7,0.1c-0.3,0-0.7,0.1-1.1,0.1c-1.2,0.1-0.5,0.3,2.2,0.4l0.5,0
							c-1.4-0.2-0.7-0.3,2.1-0.4l0.8,0C89.3,50.1,88.7,50,88,49.9 M99,52.3c-4.6-0.1-5.7,0-3.3,0.3c3.6,0,4.9-0.1,3.7-0.3L99,52.3
							 M93.8,50.9c0.5,0,0.7,0,0.6,0c-0.1-0.2-1.3-0.3-3.6-0.2l-0.6,0.1C91.2,50.8,92.4,50.9,93.8,50.9 M81.8,56.1l0.6,0
							c-0.6-0.2-1.7-0.3-3-0.3l-0.6,0c0.8,0,1.2,0.1,1.4,0.4l0.6,0c-0.2-0.1-0.3-0.1-0.2-0.1c0.1,0,0.3,0,0.4,0l0.1,0
							C81.2,56.1,81.4,56.1,81.8,56.1 M82.4,56.1L82.4,56.1c-0.4,0-0.6,0-0.8,0c1.4,0,2.6,0.1,3.7,0.2c1.5,0,2.9,0,4.3,0l0.8,0
							C88.5,56.2,85.8,56.2,82.4,56.1 M74,55.8c1.7,0,2-0.1,1.1-0.2c-0.2,0-0.4,0-0.6,0C72.7,55.5,72.5,55.6,74,55.8 M70.6,54.2
							l0.5,0c0-0.1-0.1-0.1-0.4-0.2c-0.1,0-0.3-0.1-0.3-0.1c-1.7-0.1-1.8,0-0.3,0.2C70.2,54.1,70.4,54.1,70.6,54.2 M71.6,50.3
							c1.3,0,1.7-0.1,1.4-0.3c0,0-0.1,0-0.3,0C71,50,70.7,50.1,71.6,50.3 M72.2,48.5c1.5,0.1,2.2,0,1.9-0.3c0-0.1-0.4-0.2-1-0.1
							C71.5,48.1,71.2,48.2,72.2,48.5 M76.3,48.6l0.3-0.1c-1.7,0-3.2,0-4.3,0.2C73.8,48.7,75.1,48.7,76.3,48.6 M84.7,52.2l-0.7,0
							c0.4,0.2-0.5,0.4-2.7,0.6c3.1,0,5.1,0,6-0.1l0.5,0c-1.2-0.1-1.9-0.1-2.1-0.2C85.6,52.3,85.2,52.2,84.7,52.2 M68.1,59.3
							c0.4,0,0.8-0.1,1-0.1c0.2,0,0.4,0,0.5-0.1c0.4,0,0.9-0.1,1.5-0.1l0.5,0c-0.2-0.2-0.7-0.3-1.4-0.4c-0.1,0-0.3,0-0.5,0
							c-1.7-0.1-2.1,0-1.1,0c1.8,0.1,2,0.2,0.5,0.3c-0.3,0.1-0.5,0.1-0.7,0.1C67.8,59.1,67.7,59.2,68.1,59.3 M55.8,59.5
							c1.1,0.1,1.7,0,1.9-0.1c-0.9-0.1-1.7-0.1-2.6-0.2c-0.3,0-0.5,0-0.7,0c-0.4,0.1-0.4,0.2,0.2,0.2C55.6,59.3,56,59.3,55.8,59.5
							 M56.3,54.5C56.5,54.5,56.6,54.5,56.3,54.5c-0.7-0.1-1.2,0-1.6,0l-0.2,0.1c-0.7-0.1-1.5-0.2-2.7-0.2c0.4,0.1,0.6,0.2,0.6,0.3
							C54.5,54.8,55.8,54.8,56.3,54.5 M56.3,53.7c1.5,0,2.4,0,2.7-0.1c0.2-0.1,0.2-0.1,0.1-0.1C57.5,53.5,56.6,53.5,56.3,53.7
							 M56.6,49.4c2,0,2.2-0.1,0.6-0.1l-0.3,0c0.6-0.2-0.1-0.3-2.2-0.3l-0.6,0C54.7,49.1,55.5,49.2,56.6,49.4 M60.3,49.9
							c-0.7,0.1-0.4,0.3,0.7,0.5c0.2,0,0.4-0.1,0.6-0.1c0.2,0,0.3,0,0.4,0c1.1-0.1,0.9-0.2-0.5-0.3c-0.3,0-0.6,0-0.8,0L60.3,49.9
							 M67.1,51.1c1.4,0,1.7-0.1,0.8-0.2l-0.3,0C66.4,50.8,66.2,50.9,67.1,51.1 M70.1,50.9l-0.3,0c0.5,0.1,1.4,0.1,2.6,0.1
							c1-0.1,2.1-0.1,3.4-0.1c0.4,0,0.6-0.1,0.6-0.1c0.1-0.1,0.4-0.2,1.1-0.2c0.4,0,0.7,0,1.1,0l0.1,0.1c2.9,0.1,3.6,0.3,2.1,0.6
							c0.5,0,1,0,1.5-0.1c6.1,0,7-0.2,2.7-0.5c-1.1,0-2.3-0.1-3.5-0.2l-0.1-0.1c-0.7-0.1-1.2,0-1.5,0.1c0,0-0.1,0-0.1,0
							c-0.3,0-0.6,0-0.8-0.1c-0.1,0-0.2,0-0.4,0c-0.1,0-0.3,0-0.4,0c-0.6-0.1-1.6-0.1-3.1,0c-1.5,0-3,0.1-4.5,0.1
							c-0.9,0.1-0.7,0.1,0.6,0.1c1.8,0,2.4,0,1.8,0.1c-0.6,0-1.1,0.1-1.7,0.1C70.8,50.9,70.5,50.9,70.1,50.9 M70.3,52.6
							c-1-0.2-1.4-0.1-1.4,0.3c1.4,0.1,2,0,1.8-0.2C70.6,52.7,70.5,52.6,70.3,52.6 M65.7,50.9L65.7,50.9c-0.9-0.2-2.1-0.2-3.9-0.2
							c-0.8,0-1.4,0-1.8,0.1l-0.2,0.1c-1.1-0.2-2.2-0.2-3.5-0.1c-0.7,0-0.6,0.1,0.3,0.1c3.4,0,5.4,0.2,6,0.7
							C64.4,51.5,65.4,51.2,65.7,50.9 M63.3,53.3L63.3,53.3c-1.1,0-1.7,0.2-1.7,0.4C63.1,53.8,63.7,53.6,63.3,53.3 M59.4,46.5
							c-0.6-0.2-1.3-0.3-2-0.1L57,46.4c0.6,0,1.1,0.1,1.5,0.2c0.9,0.2,1.2,0.3,0.8,0.4c0.9,0,1.3-0.1,1.4-0.2c0.1-0.3,0.5-0.3,1-0.2
							l0.2,0l0.3-0.1c1,0,1.5,0,1.5-0.1c0-0.2-0.1-0.2-0.4-0.1c-0.2-0.1-0.4-0.1-0.6,0c-0.2,0-0.4,0-0.5,0c-1.1,0-1.7,0-1.9,0.1
							C60,46.7,59.7,46.7,59.4,46.5 M58.9,47.4c0.2,0,0.3,0,0.4,0c0.1,0,0.2-0.1,0.2-0.1c0.8,0,1.1-0.1,0.9-0.2c-0.1,0-0.3,0-0.5,0
							C58.1,47.1,57.8,47.1,58.9,47.4 M72.8,47.5L72.8,47.5c0.4-0.1,0.3-0.2-0.3-0.2c-0.2,0-0.5,0-0.7,0l-0.6,0.1
							c0.6,0.1,0.7,0.2,0.2,0.4C73,47.7,73.5,47.6,72.8,47.5 M62.1,15.4c-0.3-0.1-0.8-0.1-1.5-0.1c-1.2,0.1-1.8,0.4-1.8,0.7
							c-0.1,0.3,0.4,0.5,1.4,0.6c1.1-0.1,2.1-0.2,2.9-0.4c0.1,0,0.3-0.1,0.4-0.1c0.8,0.1,0.9,0,0.2-0.3c0-0.2-0.3-0.4-0.9-0.4
							C62.4,15.4,62.2,15.4,62.1,15.4 M72.1,14.6c0.1,0,0.3,0,0.4,0l-0.2-0.4C71.2,14.1,71.1,14.3,72.1,14.6 M83.7,16
							c0.5,0,0.8,0,0.9,0c0.3-0.1,0.7-0.1,1.1-0.2c0.6,0,1.3,0,2.2,0c1.3,0,0.9-0.1-1.4-0.3l-0.8-0.1c-1.6,0.2-2.9,0.2-3.9,0.2
							C82.6,15.7,83.3,15.8,83.7,16 M109.8,14.9c2.1-0.1,3.3-0.2,3.5-0.3c0-0.1-0.3-0.1-0.8-0.1C108.5,14.4,107.6,14.5,109.8,14.9
							 M133.2,57.3c0.2,0,0.4,0,0.5,0c2.8-0.1,4.4-0.1,5,0.3c0.9,0,1.9,0,2.8-0.1c0.5,0,1.1,0,1.7,0c1.8-0.1,1.5-0.2-0.7-0.3
							c-1.1,0-2.4,0-3.8,0C134.5,57.1,132.6,57.1,133.2,57.3 M122.3,52.6c1,0,1.6,0,1.8,0c1.1-0.2,3.4-0.3,6.8-0.3
							c1.9,0,1.4,0-1.6-0.1c-0.4,0-0.8,0.1-1.3,0l-0.8,0C125.5,52.3,123.8,52.4,122.3,52.6 M119.1,51.8c-2.1,0-3.6,0-4.4,0.1
							c-2.5,0.1-2.8,0.2-0.9,0.3c2.4,0.1,1.8,0.2-1.8,0.1l-0.8,0c0.1-0.2-0.6-0.2-2.1-0.2c-0.6,0-0.9,0-0.9,0.1
							c-0.4,0.3-2.1,0.4-5.1,0.4c3.7,0.1,6.2,0,7.5-0.1c0.4,0,1-0.1,1.6,0c0.8-0.1,1.5-0.1,1.9-0.1c2.6-0.2,5.2-0.2,8-0.1
							c0.5,0,0.9,0,1.2,0C127.3,52,125.9,51.9,119.1,51.8 M126.4,51.1l-0.9,0c-0.6,0.1,0.1,0.2,2.2,0.1c4.2,0,7.2,0.1,9.1,0.2
							c2.8,0,4.6-0.1,5.3-0.3l0.3-0.1c-1.4,0-2.9,0-4.5,0.1l-0.6,0c-0.4,0-0.8,0-1.1,0C132.4,51.3,129.2,51.3,126.4,51.1
							 M121.8,51.1c0-0.1-0.3-0.1-0.8-0.1c-0.5-0.1-1.1-0.1-1.8-0.1c-2.3-0.1-4.2-0.1-5.7,0l-0.7,0.1c0.1,0.2,0.7,0.4,1.7,0.5
							c0.5,0,1-0.1,1.4,0c0.6,0,0.9,0,1.1,0C120.2,51.5,121.8,51.4,121.8,51.1 M152.7,11.4c-0.2,0-0.4,0-0.3-0.1
							c0.1-0.2-0.7-0.3-2.2-0.2l-0.8,0c0.5,0.2,1.3,0.5,2.3,0.7C153.4,11.7,153.8,11.6,152.7,11.4 M243.9,55.7c1,0,2,0,2.9,0
							c4.2,0,5,0,2.4-0.1C246.5,55.4,244.7,55.5,243.9,55.7 M174.9,59.8c0.4,0,0.7,0,1.1,0l0.9,0c-0.7,0-1.3-0.1-1.9-0.1
							c-1.6,0-3.2,0-4.7,0.1C171.8,59.8,173.3,59.8,174.9,59.8 M183,58.7c-0.5-0.1-0.9-0.1-1.4-0.1c-1,0-2,0-3.1,0
							c-1.3,0-2.4,0.1-3.5,0.1c-0.8,0-1.5,0.1-2.1,0.1c-0.5,0-1.1,0-1.6,0.1c-0.9,0-1.6,0-2.3-0.1c-1.1,0-2.5,0-4.1,0.2
							c-1.3,0.1-2.5,0.3-3.4,0.4c-1.9,0-3.8,0-5.6,0c-3.7-0.1-8.3-0.1-13.6-0.1c0-0.1-0.1-0.1-0.3-0.1c-3.2-0.3-8-0.4-14.4-0.3
							c-1,0.1-1.2,0.2-0.7,0.3l0.3,0c2.7,0.1,6.3,0.1,10.8,0.1c2.4,0,4.8,0,7.1,0.1c2.4,0,5,0.1,7.7,0.1c3.5,0,5.5,0.1,5.9,0.2
							c5.8,0,7.7,0,5.6-0.1l-0.5-0.1c3.7-0.1,7.2-0.2,10.5-0.3c0.3,0,0.6-0.1,0.9-0.1C178,59,180.7,58.8,183,58.7 M206.4,57.9
							c1.9-0.1,3.8-0.3,5.9-0.4c2.2-0.2,1.7-0.2-1.7-0.2c-2.6,0-3.8,0.1-3.4,0.2C207.5,57.6,207.2,57.8,206.4,57.9 M224.2,58.5
							c-4.6,0-5.6,0-2.9,0.2c2.6,0,3.9-0.1,3.8-0.2C225,58.5,224.7,58.5,224.2,58.5 M218.1,55.8c-1.8,0.1-1.5,0.2,0.9,0.3
							c2-0.1,2-0.2-0.3-0.3L218.1,55.8 M198.6,54.6c-0.6,0.1-0.3,0.2,0.9,0.2c3.8-0.1,3.8-0.1,0.1-0.2L198.6,54.6 M189,55.5
							c1,0,1.5-0.1,1.6-0.1c0.2-0.1,0.4-0.2,0.9-0.3c1.8-0.3,1.5-0.5-1.1-0.5c-0.4,0-0.8,0-1.3,0c-5.1,0-6.4,0.1-4.1,0.3l0.4,0
							c-1.5,0.2-1.2,0.3,1,0.5C187.5,55.6,188.4,55.6,189,55.5 M179.5,53.9c-2,0.2-1.8,0.3,0.6,0.4c1.7,0,2.2,0,1.7-0.2
							c-0.1-0.1-0.4-0.1-0.9-0.2C180.3,53.9,179.8,53.9,179.5,53.9 M181.8,52.4l0.6-0.2c-3.7,0-4.6,0.1-2.7,0.4
							C182.5,52.6,183.2,52.5,181.8,52.4 M174.5,56.8c-0.1-0.2-0.2-0.4-0.3-0.5c0-0.1-0.1-0.3-0.3-0.4c-0.3-0.2-1.3-0.3-2.9-0.4
							c-0.2,0-0.4,0-0.6,0c-0.1-0.2,0-0.3,0.3-0.5c0.1,0,0.1-0.1,0,0c-1.4-0.1-3-0.1-4.9,0c-1.6,0.2-1.5,0.3,0.3,0.3l1.3,0.1
							c-0.9,0-1.2,0.1-0.9,0.2c0.1,0.1,0.5,0.1,1.2,0.2c0.4,0.1,0.7,0.2,0.9,0.2c0.3,0.1,0.8,0.2,1.4,0.3c1.1,0.2,2.4,0.4,3.7,0.6
							C174.2,56.9,174.4,56.8,174.5,56.8 M182.4,10.3l0.6,0c-5.8-0.1-9.9,0-12.4,0.2C176.3,10.5,180.2,10.5,182.4,10.3 M183,8.9
							l0.4-0.1c-2.6,0-4.5,0.1-5.7,0.3C180.8,9.1,182.6,9.1,183,8.9 M223.2,16.4c-0.5,0-0.7,0-0.6,0.1c0.3,0.2,0.5,0.4,0.7,0.6
							c0.5,0,1,0,1.4,0l0.6-0.1c-1-0.2-0.9-0.3,0.4-0.3c0.9,0,1.2-0.1,1.1-0.1C226.5,16.3,225.3,16.2,223.2,16.4 M273.5,50.6l-0.9,0
							c1.1,0.2,0.9,0.3-0.6,0.4l-0.8,0c1.3,0.1,2.1,0.3,2.4,0.4c2.8,0,3.6-0.1,2.3-0.3c-0.2,0-0.3-0.1-0.3-0.1
							C275.7,50.7,275,50.6,273.5,50.6 M258.4,52l-0.9,0c1,0.1,2.5,0.2,4.5,0.3c1.6,0,2.3,0,2.1-0.2c0,0-0.1,0-0.2,0
							C262.6,51.9,260.8,51.9,258.4,52 M258.8,51.4c-3.1,0-3.6,0.1-1.6,0.2c1.4,0.1,3,0.2,4.8,0.3c2.1,0,3.4,0,3.9-0.1
							C267.5,51.5,265.1,51.4,258.8,51.4 M252.8,50.7l-1.5,0c2.2,0.1,1.7,0.3-1.4,0.6l-0.6,0c0.7,0,0.4,0.2-0.7,0.4
							c2.6-0.1,4.9-0.3,7-0.4c0.6,0,1.3-0.1,2.1-0.1c3.5-0.1,5.8-0.3,6.7-0.6c-0.5,0-0.9,0-1.3,0l-0.9,0c0.2,0.1-0.5,0.1-2,0.1
							c-0.6,0-1.2,0-1.8,0l-1.3-0.1C258.3,50.7,256.9,50.8,252.8,50.7 M244.6,53.3c0.5,0,0.9,0,1.4,0c1,0,1.8,0,2.3,0
							c2.4-0.1,4.1-0.2,5-0.1c1.6,0.1,2.7,0.1,3.5,0c-8.6,0.8-10.3-0.1-5.1-0.2c-1,0-2.1,0-3.1,0C246.2,53.1,244.8,53.2,244.6,53.3
							 M230.2,51.8c-0.5-0.1-1,0-1.6,0c-1.9,0.1-1.2,0.2,2.3,0.2c0.5,0,0.7,0,0.7-0.1s-0.1-0.1-0.3-0.1
							C230.9,51.9,230.5,51.8,230.2,51.8 M232.6,52.9c0.6,0,0.9,0,1.1,0c1.9,0.1,3.2,0.1,3.8,0c0.1,0,0.3,0,0.6,0c1.8,0,3.1,0,4-0.1
							c1.2-0.2,3.4-0.2,6.5-0.2c4.6-0.1,5.5-0.2,2.7-0.3c-0.5,0-1,0-1.6,0.1c-0.8,0.1-2,0.1-3.6,0c-3.3-0.1-6-0.1-7.9,0
							c-2.4,0-4.4,0.1-6,0.2c-4,0.2-5.3,0.4-3.7,0.6C229.1,53,230.5,52.9,232.6,52.9 M233.4,51.6l-0.4,0c2,0.1,4.6,0.2,8,0.2
							c0.6,0,1,0,1.2,0.1c1.8-0.1,2.9,0,3.5,0.3c1,0,1.8,0,2.3-0.1l0.1,0c1.6-0.3,0.8-0.5-2.5-0.7c-1.2,0.2-3.1,0.2-5.7,0
							C237.4,51.3,235.3,51.4,233.4,51.6 M253.1,18.4c2.1,0,3.3-0.1,3.5-0.3l0,0C254.2,17.8,253.1,17.9,253.1,18.4 M247.6,14.1
							l-1.3,0c0.6,0.1,1.6,0.2,3,0.2c1.9,0,3.7,0,5.5,0C252.3,14.2,249.9,14.2,247.6,14.1 M266.8,23.6c1.2-0.1,1-0.2-0.6-0.1
							c-2.5,0-4.4,0-5.7,0c1.3,0.1,2.7,0.2,4.2,0.2C265.7,23.6,266.4,23.6,266.8,23.6 M251.1,21.9c2.6,0,3.4-0.1,2.5-0.3
							C251.9,21.3,251.1,21.4,251.1,21.9 M260,11.1c0.4-0.1,0.4-0.2,0-0.1c-5.8-0.2-0.5-0.1-4.2,0.3l-0.6,0c1.9,0.2-6.3,0.3-4.8,0.5
							c2.7,0.1,4.4,0,4.8-0.1c0.2,0,0.6-0.1,1-0.1C257.7,11.4,259,11.3,260,11.1 M265.1,17.7c2.6,0,4.2-0.1,5.1-0.2
							c1.4-0.4-0.9-0.6-6.8-0.6c-2.6,0-3.8-0.1-3.7-0.2l-0.9,0c-3.1,0.1-3.8,0.2-2.1,0.4c0.6,0,0.6,0.1,0.1,0.1
							c-0.5,0-0.7,0-0.7,0.1c-0.2,0.2-0.1,0.3,0,0.5c0.1,0.1-0.1,0.1-0.5,0.2c-2.6,0.1-3.8,0.4-3.6,0.7c1.9-0.1,3.9-0.2,5.8-0.4
							c0.5,0,0.7,0,0.6-0.1c-0.8-0.5,0-0.7,2.3-0.5c0.9,0,1.9,0,2.9,0C264,17.7,264.5,17.7,265.1,17.7 M269.5,12.3
							c-0.4,0-0.5,0-0.4,0.1c0.9,0.1,2.2,0.2,3.7,0.2c4.7,0,6.1,0,4.2-0.1C274.6,12.4,272.1,12.4,269.5,12.3 M263.4,56.2
							c-0.4-0.1-0.8-0.1-1.2,0c-0.4,0.2-1.3,0.3-2.6,0.4C263,56.6,264.3,56.5,263.4,56.2 M293,58.7c0.3,0,0.6,0,0.9,0
							c0.5,0,0.8,0,0.9,0c0.7-0.1,1.3-0.3,1.8-0.4C295.2,58.3,294,58.5,293,58.7 M258.4,51.3c-0.1-0.1-0.2-0.1-0.3-0.1
							c-2.5,0-3,0.2-1.5,0.5c0.3,0,0.6,0,0.8,0C257.8,51.5,258.1,51.4,258.4,51.3 M239.1,53c-0.3,0,60.6-1.9,60.5-1.9
							c-3.1,0-3.9,0-2.2,0.3C300.1,51.3,240,53.1,239.1,53 M299.1,53.1l-1.5,0c-0.4,0.1-60.5,2.1-58.1,2.2
							C243.6,55.1,304.3,53.1,299.1,53.1 M293.2,51.4c-0.2-0.1-0.8-0.2-1.6-0.1c-1.8,0-1.8,0.2,0,0.3
							C293,51.6,293.5,51.5,293.2,51.4 M280.7,50.9c5.3,0,6.9-0.1,4.6-0.3c-1.1-0.1-2.5-0.1-4.2-0.2c-2.5-0.1-3.4-0.1-2.7,0.1
							C278.9,50.7,279.7,50.8,280.7,50.9 M288.7,52.4c-1,0-1.8,0-2.4,0.1c-2.3,0.1-2.2,0.2,0.2,0.3c1.6,0.1,3.3,0.1,5.3,0.2
							c2.1,0,3,0,2.6-0.1c-0.6-0.2,0-0.3,1.7-0.3c-67.6,1.1-66.1-3.7,1.4-0.3c-0.6,0-1,0-1.3-0.1l-0.4-0.1
							C294.9,52.4,292.5,52.4,288.7,52.4 M241.3,23.4c0.1,0,0.3,0,0.4,0l0-0.4l-0.1,0c0.5-0.1,0.8-0.2,0.7-0.3c0,0-0.1,0-0.4,0
							c-1.7-0.1,59.1-1.8,60.2-1.5c-2,0-3.1,0.1-3.2,0.1l0,0.1C301,21.2,241.1,23.1,241.3,23.4 M290.8,21.2c-6.2-0.1-6.7,0-1.6,0.3
							c4.7,0,6.5,0,5.2-0.1c-0.5-0.1-1-0.1-1.4-0.1C292.4,21.2,291.7,21.2,290.8,21.2 M282.5,19.9c3.2-0.1,3.5-0.2,0.9-0.3
							c-0.2,0-0.4,0-0.6,0c-0.1-0.1-0.3-0.1-0.6-0.1l-0.8,0c-4.9,0.1-5.4,0.2-1.3,0.5c0.9,0,1.6,0,2.1-0.1
							C282.3,19.9,282.4,19.9,282.5,19.9 M286.4,22.2c0.5,0,0.8-0.1,0.9-0.1c0.3-0.2,0.1-0.3-0.8-0.3c1,0,1.9-0.1,2.7-0.1l0.8-0.1
							c-3-0.1-5.2-0.1-6.5,0l-0.2,0c1-0.1,0.6-0.2-1.3-0.1c-0.3,0-0.6,0-0.9,0c-0.2,0-0.5,0-0.7-0.1l0.1,0.4c0.2,0,0.4,0,0.6,0
							c0.3-0.1,0.6-0.1,0.9-0.1c0.1,0,0.2,0,0.3,0c-0.1,0-0.2,0-0.3,0c1.2,0,2.4,0,3.4,0C286.1,21.9,286.5,22,286.4,22.2
							 M283.8,13.9c1.2,0,1.9,0,2.1-0.2c0.7-0.2-0.6-0.3-4-0.3c-1.2,0-2.2,0-3.2,0l0,0.3c1.5,0,2.5,0.1,3.2,0.3
							C282.7,14,283.2,14,283.8,13.9 M297.8,14.2l-1.3-0.1c0.3,0.2,1.3,0.3,3,0.4c-1.6,0.1-4.1,0.2-7.3,0.1c-1,0-1.8-0.1-2.4-0.1
							c-0.8,0-1.7-0.1-2.5-0.1c-2.8-0.2-5.1-0.2-6.9,0l-0.7,0c5.2,0,8.9,0.2,11,0.4c3.8,0,7.4,0,10.7-0.1l0-0.3
							C300.3,14.3,299.1,14.3,297.8,14.2 M295.3,12.1c0.3,0,0.6,0,0.9,0c1.8-0.1,4.1-0.1,6.7-0.1c0.3,0.2-60.4,2-60,1.9
							c0.1-0.1,0.1-0.1,0-0.1c-0.5-0.1,59.7-2.1,58.3-2C298.5,11.8,296.6,11.9,295.3,12.1 M294.7,13.3c0.6,0,1.1,0.1,1.6,0
							c1.8,0,3.4,0.1,4.8,0.1l0-0.3c-2.6,0-4.7,0-6.4-0.1c-2.1-0.1-5-0.2-8.7-0.1c0,0.1,0.3,0.1,0.8,0.2l0.4,0
							C289.5,13.2,292,13.3,294.7,13.3 M246.4,11.5c-2,0-2,0.1,0.1,0.4c1.6-0.1,1.8-0.2,0.7-0.4C246.9,11.5,246.6,11.5,246.4,11.5
							 M251.8,24.9c1.6-0.2,1.3-0.4-0.8-0.5c-1.2-0.1-1.7,0-1.4,0.1C250.1,24.7,250.8,24.8,251.8,24.9 M256.5,26.6
							c-0.8,0-0.5,0.1,0.9,0.2c0.3,0,0.6-0.1,0.9-0.1c0.5,0,0.9,0,1.1-0.1c0.3,0,0.4,0,0.2-0.1C258.7,26.5,257.6,26.5,256.5,26.6
							 M262.8,23c0.4,0,0.8-0.1,1-0.2l0.4-0.1c-3.4,0-5.7-0.2-7-0.4l-0.3-0.1c-0.3,0.1-0.3,0.1,0,0.1c1.3,0.2,2.1,0.4,2.3,0.8
							C260.5,23.1,261.7,23.1,262.8,23 M257.1,26.4c0.6,0-8.8,0-8.4-0.1l0.4,0c-0.4-0.1-0.3-0.2,0.1-0.4l0.2-0.1
							c-1.6,0,7.1,0,5.9,0.2l-0.4,0.1C256.2,26.1,256.9,26.2,257.1,26.4 M252.9,24.8c0-0.1,0.1-0.1,0.2-0.1c0.4-0.2-0.2-0.2-1.8-0.1
							c0.1,0.3,0.6,0.6,1.4,0.7c2.4,0,3.1-0.1,2.1-0.2c-0.3,0-0.5,0-0.6,0C253.1,25,252.6,24.9,252.9,24.8 M248.7,23.5
							c0-0.1-0.2-0.1-0.4,0c-2.5,0.1,6.6,0.2,7.4,0.5C257.8,23.9,248.7,23.8,248.7,23.5 M247.8,24.6c0.4-0.3,0.3-0.4-0.2-0.5
							c-2.3,0.4,7.5,0.7,9.3,1l-9.6,0c-1.8,0.2-1.1,0.4,2.2,0.5c0.6,0,1,0.1,1.2,0.1c0.2,0,0.5,0,0.7,0.1c0.5,0.2,1,0.4,1.6,0.6
							c0.6,0,1.1,0,1.6,0l0.4-0.1c-0.6-0.1-1.1-0.2-1.7-0.3c-1.5-0.3-1.7-0.5-0.5-0.7c0.9-0.2,0.7-0.2-0.8-0.2
							C248.8,25.1,247.4,24.9,247.8,24.6 M249.3,24.2c0.6,0,0.9-0.1,1.1-0.1c0.8-0.1,2.1-0.2,3.8-0.2c1.2,0,1.7-0.1,1.3-0.2
							c-0.4-0.1-1.1-0.1-2.1-0.1C251.5,23.8,250.1,23.9,249.3,24.2 M254.6,20l0.4,0.1c2.1-0.2-7.1-0.1-7.5,0.3
							c-0.4,0.4,8.5,0.7,6.7,0.9c2.6,0-4.9-0.1-2.3-0.2c0.3-0.1,0.6-0.1,0.8-0.1c1.3,0,2-0.1,2.1-0.2c0.2-0.2,1.2-0.3,2.9-0.3
							c0.4,0,0.5,0,0.4,0c-0.6-0.1,0.2-0.2,2.2-0.4c-0.7-0.3-1.6-0.3-2.7,0c-0.2,0.1-0.5,0.1-0.8,0.1c-2.4,0-4.7-0.1-6.9-0.2
							c-1.6-0.2,7.3-0.4,6.8-0.6c-0.8-0.5-1.7-0.6-2.8-0.2c1.7,0.2,1.5,0.4-0.7,0.5l-0.5,0C253.6,19.9,254.2,20,254.6,20
							 M250.6,15.7c0.6,0,1,0,1.3-0.1c0.3,0,0.6,0,0.9-0.1l0.4-0.1c-0.6-0.1-1.7-0.3-3.4-0.3c-1.2,0-1.6,0-1.4,0.1l0.1,0.1
							c-1.4,0.1-1.3,0.3,0.5,0.4C249.5,15.7,250,15.7,250.6,15.7 M250.8,8.5c-0.8,0-1.6-0.1-2.3-0.1c-1.2-0.1-3-0.1-5.4-0.1
							c-3.7,0,57.1-1.7,60-1.4C304.9,7,245,9,246,9.3c0.9,0,1.3-0.1,1.1-0.2c0,0,0.1-0.1,0.2-0.1c1.4,0.1,2.6,0,3.6-0.1
							c0.3,0,0.5-0.1,0.6-0.1C252,8.6,251.8,8.5,250.8,8.5 M252.2,7.2c-1,0.1-0.7,0.3,1,0.5c1.3-0.1,1.3-0.2,0-0.3
							c-0.3,0-0.5-0.1-0.6-0.1L252.2,7.2 M256.7,12.3l0.4-0.1c-0.6-0.3-1.5-0.5-2.7-0.8l-0.4-0.1c-1.2,0.1-1.2,0.2,0,0.5
							C254.8,12,255.7,12.1,256.7,12.3 M256,16.3l0.9-0.1c-0.7-0.1-0.2-0.2,1.6-0.2c0.6,0,1.2,0,1.8,0c1.1,0,2.3,0,3.4,0.1l0.4,0
							c-1-0.1-2.3-0.2-3.8-0.3c-0.9,0-1.9,0-2.8-0.1c-0.2,0-0.5,0-0.8,0C254.3,15.9,254.1,16.1,256,16.3 M257.6,11.3
							c1-0.2,0.9-0.4-0.2-0.6c-0.8-0.1-1.7-0.3-2.7-0.5l-0.3-0.2c-0.3,0.1-0.3,0.2,0,0.2C255.2,10.7,256.2,11,257.6,11.3
							 M258.9,11.4c-0.2,0.4,0.5,0.6,2.2,0.8c0.6,0,1.2-0.1,1.8,0c0.9,0,1.1-0.1,0.4-0.3c-0.9-0.2-2.2-0.3-3.9-0.4L258.9,11.4
							 M317.3,43.2c0.1,0,0.1,0,0.1-0.1c0.5-0.1,0.6-0.2,0.3-0.2c-0.3-0.1-1.3-0.1-3-0.1c-1.3,0-1.9-0.2-1.9-0.6
							c-1.2-0.2-1.9-0.1-2.2,0.4c-0.1,0.1-0.2,0.1-0.4,0.2c-2.1,0.2-1.7,0.3,1.1,0.2C314,42.9,316,43,317.3,43.2 M295.5,48.1
							c-0.4-0.1-0.7-0.2-0.7-0.4c-3.1,0-4.4,0.2-3.9,0.4C292.4,48.2,293.9,48.2,295.5,48.1 M306.2,42.8c-0.3,0-0.5,0-0.6,0
							c-1.2,0.2-1,0.4,0.7,0.7C308.5,43.1,308.4,42.9,306.2,42.8 M292.6,40.7l0-0.1c-1.7,0.1-2.7,0.3-2.8,0.8
							C292,41.3,292.9,41.1,292.6,40.7 M302.9,35.2L302.9,35.2c-0.2,0.2-0.5,0.6-0.9,0.9c-0.4,0.4-0.2,0.7,0.8,1
							c1.4-0.1,1.8-0.4,1.2-0.8C303.6,36,303.2,35.6,302.9,35.2 M314.5,36.3c0.3-0.1,0.6-0.1,0.9-0.1c2.3,0,3.2-0.2,2.7-0.7
							c-0.1-0.1-0.3-0.1-0.4-0.1c-1-0.1-1.9,0-2.6,0.1c-2.2,0.3-2.9,0.7-2.2,1.1C313.4,36.4,314,36.3,314.5,36.3 M284.2,53.5
							l1.3-0.5l-0.8,0l-0.4-0.1c0.1,0,0.2,0.1,0.3,0.1c0.4,0.1,0.2,0.2-0.6,0.3l-0.4,0.1C284,53.5,284.3,53.5,284.2,53.5
							 M280.9,53.1c-0.1,0-0.2,0-0.4,0l-21-0.1c-1,0.3-2.2,0.6-3.5,0.8c-1,0.3-1.1,0.4-0.3,0.6c0.4,0.1,0.8,0.2,1.2,0.2
							c1.1,0.2,2.7,0.4,4.7,0.5c1.8,0,2.7,0,2.9-0.2l0.1,0c0.2,0,0.5,0,0.7,0c0.6,0.1,1.3,0.1,2.3,0.1c2.6,0,4.2-0.1,4.7-0.3
							c0.1-0.1,0.4-0.1,0.6-0.1c1.1-0.2,2.6-0.2,4.5-0.3c3-0.2,3.7-0.5,2-0.7l1.1,0c0.3,0,0.7-0.1,1.2-0.1c-0.3-0.1-0.6-0.2-0.7-0.3
							l-0.1,0C281.3,53.2,281.3,53.1,280.9,53.1 M278.7,53.4c0-0.1,0.3-0.1,0.9-0.2c0.2,0,0.5,0,0.7,0
							C279.9,53.2,279.3,53.3,278.7,53.4 M269.5,37.1c-0.5,0.1-0.4,0.4,0.1,0.8c1-0.2,2.3-0.3,4.1-0.3c0.9,0,1.1-0.1,0.3-0.3
							C272.8,36.9,271.3,36.8,269.5,37.1 M268.9,35.7c-0.2,0.1-0.2,0.2,0.1,0.2c1.7,0.2,3.2,0.5,4.7,0.8c1.1-0.1,2.3-0.1,3.3-0.1
							l0.5,0c0.3-0.1,0.3-0.2-0.1-0.2c-0.3-0.1-0.6-0.1-0.9-0.2c-0.2-0.1-0.4-0.1-0.6-0.1c-2.2-0.1-3.7-0.3-4.6-0.6
							C271,35.3,270.2,35.4,268.9,35.7 M287.9,30.1l0.9,0c-0.6-0.1-0.3-0.2,1-0.3l-3.6,0C286.6,30,287.2,30.1,287.9,30.1
							 M287.8,23.9L287.8,23.9c-0.4-0.3-0.7-0.3-0.9-0.2c-0.3,0.2-0.5,0.3-0.7,0.4c-0.5,0.2-0.1,0.4,1.4,0.5
							C289.8,24.4,289.9,24.2,287.8,23.9 M286.3,26.5c0.2,0,0.5,0,0.9,0c0.5,0,0.8-0.1,0.9-0.1c0.1-0.2,0.6-0.3,1.4-0.3
							c1.4-0.1,1.8-0.1,1-0.1c-0.4-0.1-0.7-0.1-0.9-0.1c-1.1,0.1-2.1,0.1-2.9,0.2c-1.3,0.2-1.7,0.4-1.2,0.6
							C285.7,26.5,286,26.5,286.3,26.5 M278.9,28.9c0.4,0,0.4,0.1,0,0.2l-0.3,0.1c2.1,0,3.7,0.2,4.8,0.4c0.7-0.2,0.1-0.4-1.8-0.6
							C280.8,28.9,279.9,28.9,278.9,28.9 M279.9,23.1c0.3-0.1,0.6-0.1,0.9-0.1l0.3-0.1c-2.4,0-4,0-5,0.2
							C278,23.2,279.3,23.2,279.9,23.1 M281.5,22c0-0.1-0.2-0.1-0.4,0c-2.1,0-2.7,0.1-1.7,0.4C280.9,22.4,281.6,22.3,281.5,22
							 M287.7,19l0.4-0.2c-1.8,0-2.9,0.1-3.4,0.4C286.1,19.2,287.2,19.2,287.7,19 M291.9,17.9c-0.5,0-0.9-0.1-1.3-0.1
							c-1-0.1-1.4,0-1.1,0.4c1.2,0,2.5,0,3.7,0c0.2,0,0.4-0.1,0.7-0.2C293.5,18,292.8,17.9,291.9,17.9 M276.5,28.7
							c1.8,0,2.4-0.1,2.1-0.4c-0.1-0.1-0.3-0.1-0.5-0.1C275.9,28.2,275.4,28.4,276.5,28.7 M266.7,28.6L266.7,28.6
							c-0.5-0.1-1.8-0.1-3.9-0.1l-0.7,0c0.2-0.1-0.5-0.3-1.9-0.4c-1-0.1-1,0,0,0.2c-0.1,0.1-0.5,0.1-1.3,0c-0.3-0.1-0.6-0.2-0.9-0.2
							c-0.3,0-0.4,0-0.5,0c-1.2-0.4-1.6-0.6-1.5-0.8l-0.3,0c-1.6,0-2.4,0.1-2.4,0.3c-3,0.1-4.9,0-5.7-0.3c-0.2-0.1-0.3-0.1-0.3-0.1
							c-1.9-0.1,7.1-0.2,7-0.4c-0.2-0.3-0.8-0.5-1.9-0.6c-1.4-0.2-0.9-0.3,1.2-0.5c-0.2-0.2-1-0.2-2.4-0.2c-0.4,0-0.7,0-0.9,0
							c-1.1,0-2.5,0-4.3,0l-0.4,0c-0.6-0.1-1-0.2-1.4-0.3c-1-0.1-0.9-0.2,0.2-0.3c0.4-0.1,0.6-0.1,0.6-0.1c0.1-0.2,0.6-0.2,1.4-0.1
							l0.6,0c0.2-0.1,0.5-0.1,0.8-0.1c1.2-0.1,2.3-0.2,3.2-0.3c1.6-0.2,1.8-0.3,0.5-0.5c-1.1,0-2.2,0-3.3,0l-0.5,0
							c-0.3,0-0.6,0.1-0.9,0.1c-2.2,0.2,56.9-1.4,55-1.1c-0.6,0-1.1-0.1-1.4-0.3c-0.2-0.1-0.5-0.1-0.8-0.1c-0.3-0.1-0.5-0.1-0.8-0.2
							c-1.2-0.2-2.4-0.3-3.6-0.4c-0.3,0-0.5-0.1-0.6-0.1c-1.9,0-1.8,0,0.2,0.3c-0.3,0.1-0.7,0.1-1.1,0.2c-0.4,0-0.7,0.1-1.1,0.2
							c-0.2,0-0.2,0.1,0.1,0.1c0.9,0.1,1.9,0.1,3,0.1c3.2,0.1,4.4,0.4,3.6,0.6c-1.5-0.1-2.2,0-2.1,0.3c0,0-0.1,0-0.4,0
							c-0.5,0.1-1,0.1-1.5,0c-0.4,0-0.8,0-1.1,0c-0.3,0-0.6,0-0.9-0.1c-0.1,0-0.2,0-0.3,0c-0.3,0-0.6,0-0.9-0.1
							c-0.3-0.1-0.6-0.1-0.9-0.2c-1.3-0.1-2.3-0.1-2.9-0.1l-0.1,0c-0.4,0-0.9-0.1-1.5-0.1c-1.9-0.1-3.2-0.2-3.7-0.5l-0.9,0
							c-0.9,0.1-1.6,0.1-2.1,0.1c-0.5,0-0.5,0.1,0.1,0.1c0.5,0,1.1,0.1,1.8,0.1c2.4,0.1,4,0.3,5,0.5c0.6,0,1.1,0,1.5,0
							c0,0,0.1,0,0.1,0c0.6,0,1,0.1,1.3,0.1c-1.3,0-1.4,0.1-0.1,0.1l0.1,0l-0.1,0.1c0.3,0,0.4,0.1,0.4,0.1c0.4,0.2,1.5,0.3,3.4,0.2
							c0.9,0,1.8,0,2.7,0c0.6,0,1,0.1,1,0.2c2.5,0,3.3,0,2.6-0.2c1.4,0.1-58.6,2-57.5,2.1c0.3,0.1,0.6,0.1,0.9,0.1
							c0.3,0,0.5,0.1,0.6,0.1c0.8,0.2,1.9,0.3,3.3,0.4c0.5,0.1,0.9,0.1,1.3,0.1c1.6,0.3,1.4,0.4-0.5,0.4c0.2,0.1-0.3,0.1-1.5,0
							l-0.5,0c-0.3,0-0.5,0-0.6,0c-1.5,0.1-2.4,0.1-2.7,0.1l0-0.1c0.1,0,0.2,0,0.4,0c1.4-0.2,1.6-0.4,0.8-0.5c-0.3,0-0.6,0-0.8-0.1
							c-0.1,0-0.2,0-0.4,0l-0.1-0.4c-0.5,0-0.9,0-1.4-0.1c1.6,0.1,62.1-1.6,59.3-1.7c-2.8,0-5,0-6.6-0.1c-3.1-0.3-6.3-0.4-9.7-0.2
							c0-0.1,0-0.1,0-0.2c0-0.1-0.3-0.1-0.8-0.2c-0.5,0-0.8,0-1,0c-1.1,0.3-3.9,0.3-8.6,0.2c-1,0-1.7,0-2.2,0
							c-0.8,0.1-2.4,0.1-4.9-0.1c-0.7,0-1.2,0-1.6,0c-1.9,0-4.5-0.1-7.6-0.2c0.1-0.1,0.2-0.1,0.4-0.2l0.3-0.1
							c-2.7-0.2-2.6-0.4,0.5-0.5c0.6,0,0.9,0,0.7,0c-0.9-0.2-2.6-0.3-5-0.1c-2.9-0.2-3.7-0.4-2.2-0.5l0.6-0.1c-1.7,0-2.8,0-3.5-0.1
							c-2-0.3-2.4-0.7-1.1-1c0.9,0,1.8,0,2.7-0.1c0.6,0,1.1,0,1.5,0c3.8,0.1,7,0.3,9.5,0.4c0.7,0.1,1.2,0.1,1.5,0.2
							c1,0.2,2.8,0.4,5.4,0.4c0.6,0,1,0,1.3,0.1c1.7,0.3,5.3,0.5,10.8,0.5c-2.6-0.2-4.9-0.3-6.7-0.5c-0.6-0.1-1.1-0.1-1.6-0.2
							c-3.1-0.5-1-0.7,6.5-0.6c0.6,0.1,1,0.1,1.3,0.1c2.5,0,2.5-0.1,0-0.1c-0.9,0-1.6-0.1-2.1-0.1c-0.5,0-0.9-0.1-1.3-0.1
							c-4.4-0.1-8.3-0.3-11.6-0.4c-4-0.2-9.4-0.3-16.1-0.3c0.5-0.1,1.1-0.1,1.6-0.2l0.6-0.1c-7.7-0.1-8.4-0.3-2.4-0.7
							c1.7-0.3,11-0.4,7.8-0.2c-0.5,0-1,0.1-1.4,0.1c-3.5,0.2-4.2,0.1-2.2-0.3c-1.5-0.2-2.6-0.3-3.3-0.1c-0.9,0.2-2.3,0.3-4.1,0.3
							c-0.4,0-0.7,0.1-0.7,0.1c-3.2-0.2-6-0.5-8.2-0.8c-3-0.3-3.2-0.5-0.3-0.5c0.6,0,1.1-0.1,1.6,0c2.6,0,3.3-0.1,2.3-0.3
							c-1.1-0.2-1.8-0.2-2.3-0.1c-2.5,0.3-5.8,0.3-10,0.2c-4.2-0.1-8.3-0.3-12.4-0.5c-3.4-0.1-4.3-0.3-2.9-0.5
							c-3.2,0.1-6.3,0.1-9.2-0.1c-3-0.2-6.3-0.3-9.9-0.5c-0.6,0-1.1,0-1.6,0c-2.6-0.1-4.3-0.1-5.2-0.2c-0.5-0.1-1-0.1-1.3-0.2
							c-1.6-0.1-3.2-0.1-5-0.2c-2.6-0.1-4.2-0.3-4.8-0.5c-0.8-0.3-0.6-0.6,0.6-0.7l0.7-0.1c1.2,0.1,3.2,0.1,5.8,0l1.5,0
							c-0.2-0.1,0.3-0.2,1.3-0.4c1.3-0.2,3.8-0.2,7.4-0.2c0.5,0,0.8,0,1.1,0c3,0.1,6.5,0.2,10.5,0.3c2.1,0,4.1,0.1,6.1,0.1
							c0,0.1,0.2,0.2,0.5,0.3l0.4,0c-1.2,0.1-2,0.2-2.4,0.4c-0.5,0.2-0.9,0.5-1.1,0.8c0.5,0.1,0.9,0.1,1.1,0
							c5.3-0.4,10.2-0.8,14.9-1.3c0,0,0-0.1,0.2-0.1c0.8,0,1.4,0,1.6,0c1.2,0.2,2.2,0.2,3.2,0l0.9,0.1c2.6,0.1,6.5,0.2,11.7,0.1
							c1.8-0.1,0.3-0.2-4.5-0.2c-7.9,0-9.9-0.2-6.1-0.6c0.5-0.1,1.1-0.1,1.7-0.2c0.9-0.1,1.9-0.1,3.1-0.2l1.1-0.1
							c0.4,0.2,1.8,0.3,4.4,0.3c0.5,0,1,0,1.6,0c2.6,0,4.7,0.1,6.1,0.2c3.4,0.2-2.3,0.3,3,0.3c0.5,0,0.7,0,0.8,0l0.6,0
							c1.7,0,2.8,0,3.3-0.1c0.2-0.1,0.3-0.1,0.2-0.1c-1.5-0.2-2.7-0.4-3.6-0.7l-0.8,0c1.7-0.1,1.5-0.1-0.7-0.1c-0.5,0-1.1,0-1.7,0
							l-1.3,0c-0.3,0.2,8.8,0.3,7.2,0.3c-6.5,0-11.9,0-16.2-0.2c-0.5,0-0.9-0.1-1.1-0.1c-0.3-0.1-0.2-0.1,0.2-0.1
							c0.5-0.1,1-0.1,1.4-0.1c1.7-0.2,3.5-0.3,5.4-0.3c1.6-0.1,2.5-0.2,2.9-0.4c0.4-0.2,1.1-0.4,2-0.5c0.3-0.1,0.7-0.2,1.2-0.2
							c1.9-0.2,1.2-0.3-2.2-0.3c-0.5,0-0.8,0-0.9,0.1c-0.9,0.3-2.9,0.4-6.2,0.2c-3.2-0.2-7.7-0.3-13.5-0.3c-2.2,0-2.3,0.1-0.3,0.1
							c2.2,0.1,4.3,0.2,6.1,0.3c0.6,0.1,1,0.1,1.3,0.1c2.8,0,4.6,0,5.4,0.1l0.8,0c0,0.2-0.5,0.3-1.5,0.4c-0.9,0.2-2.1,0.3-3.5,0.4
							c-0.5,0-0.9,0-1.3,0c-0.9-0.1-2.2-0.2-3.8-0.2c-4.5-0.1-9.5-0.2-14.8-0.3c-0.6,0-0.9,0-0.8-0.1c-0.3-0.3-1.6-0.4-3.7-0.2
							c0.1,0.1,0.3,0.2,0.6,0.3c0.2,0.1,0.6,0.1,1.1,0.1c2.6,0.1,5.1,0.1,7.3,0.1c4.2,0.1,7.6,0.2,10.3,0.5c2.1-0.1,3,0,2.6,0
							c-0.9,0.3-4.1,0.5-9.6,0.5c0.8,0,1.5,0.1,2.1,0.1c2.5,0.1,2.2,0.2-1.1,0.3c-0.9,0.1-1.5,0.1-2.1,0c-0.4-0.1-0.8-0.1-1.3-0.1
							c-4.2-0.1-6.4-0.1-6.8,0.1c-0.5,0.1-0.7,0.1-0.7,0.2c0.4,0.3-1.3,0.4-5.1,0.3c-5-0.1-9.5-0.2-13.5-0.3c-0.8,0-1.6-0.1-2.2-0.1
							c-2.6-0.2-5.3-0.2-8.2-0.1c-0.8,0.1-1.5,0.1-2,0c-0.5,0-0.4-0.1,0.1-0.1c0.7,0,0.4-0.2-0.8-0.4c-2.6-0.4-4.1-0.4-4.3,0
							c-0.1,0.1-0.3,0.1-0.7,0.2c-0.5,0-0.9,0-1,0.1c-1,0.2-3.4,0.3-7,0.3c-1,0-1.9,0-2.8,0l-0.5,0c2.6,0,4,0.1,4.1,0.2l0.2,0
							c3.4,0.2,3.6,0.4,0.7,0.7c0.3,0.4-0.9,0.5-3.4,0.2c-2-0.1-3.9-0.2-5.8-0.3c-0.7-0.1-1.2-0.1-1.5-0.2c-2.1-0.3-5.5-0.4-10-0.4
							c0.6-0.2,2-0.3,4.4-0.3c5.8,0,7.8-0.1,5.8-0.3c-2.7,0.1-4.3,0-4.8-0.2l-0.4,0c-0.5,0-0.8,0-1.1,0c-3.7,0.1-6.6,0.2-8.8,0.3
							c-0.8,0.1-1.3,0.1-1.7,0.2c-1.5,0.2-2.8,0.3-3.8,0.2c-1,0-1.8,0-2.5,0c-0.8-0.1-1.6-0.1-2.4-0.2c-4.5-0.2-10.3-0.2-17.3-0.2
							c-0.5,0-0.8,0-0.9,0c-2,0.1-4.2,0.1-6.3,0.2c-1,0-1.9,0-2.8,0.1c-0.6,0-0.9,0-1,0c-2.9-0.2-5.6-0.3-8.1-0.2
							c2.5,0.1,3,0.2,1.6,0.5c-0.4,0.1-0.6,0.1-0.4,0.2c0.5,0.2,2.1,0.4,4.8,0.5l0.8,0c-0.2-0.2,1-0.3,3.6-0.1l1.5-0.1
							c-0.4-0.1,0.1-0.2,1.4-0.3c0.5,0,0.9,0,1.1,0c3.7,0.1,7.4,0.1,11,0c0.8-0.1,1.5-0.1,2.1-0.2c2.7-0.2,4.8-0.1,6.4,0.2
							c-1.5,0-2.7,0-3.8,0.1c-2,0.1-2.2,0.2-0.6,0.2c5.4,0.1,10.8,0.1,16.2,0.1c0.5,0.1,1,0.2,1.4,0.3c0.6,0,2.6,0,6.1,0
							c0.9,0,1.7,0,2.1,0.1l0.8,0c1.1-0.1,2.7-0.1,4.6,0c2.3,0.1,3.7,0.2,4.4,0.5c-1,0.2-3.4,0.2-7.2,0.1c-0.6,0-1.2,0-1.8,0
							c-5.7-0.1-9.6-0.2-11.7-0.2c-4.2,0-7.2,0.1-9.2,0.2c-0.7,0-1.3,0-1.8,0c-0.5-0.1-1-0.1-1.5-0.2c-0.5-0.1-0.8-0.1-0.8,0
							c-0.3,0.1-1.3,0.2-2.8,0.2c-0.6,0-1,0-1.2,0c-3.7,0.1-7.2,0.1-10.6-0.2c-4.1-0.1-6.3,0-6.6,0.3c-0.2,0.2-1.9,0.3-5.1,0.2
							l-0.8,0.1c0.7,0.2,0.5,0.3-0.7,0.4c-0.5,0-0.9,0-1.3,0c-4.1,0.1-7.6,0.3-10.3,0.6c-0.5,0-0.9,0-1.4,0c-0.5,0-0.8,0-1.1,0
							c-1.2,0-2.7,0.1-4.5,0.1c-3.4,0.1-6.4,0.1-9.1-0.1c-1.3-0.1-2.5-0.1-3.5-0.2l0-0.3c-0.9-0.2-1.5-0.4-1.7-0.7l-0.4,0
							c0-0.1,0-0.1,0-0.1c0.5-0.3,0.3-0.6-0.4-0.8c0.7-0.1,0.8-0.2,0.2-0.3l-0.7,0c-0.1,0-0.3,0-0.4,0l0.1,0.3
							c-0.4-0.1-0.8-0.1-1.1-0.1c-0.2,0.1-0.2,0.3-0.2,0.4c0,0.3,0.3,0.5,0.8,0.6c0.4,0.2,0.7,0.3,1,0.4c0.3,0.1,0.6,0.1,0.7,0.3
							c0.1,0.1,0.2,0.2,0.3,0.2c-0.4-0.1-0.8-0.1-1.2-0.2l0.2,0.7c0.1,0,0.3,0,0.4,0c0.1,0.1,0,0.2-0.4,0.3l0.1,0.2
							c-0.5,0-0.9,0-1.1-0.2c-0.4,0.1-0.8,0.2-1.2,0.2l-0.2,0c-0.2-0.1-0.7-0.1-1.4,0c-0.2,0-0.4,0-0.5,0c-1.3-0.1-2.5-0.2-3.7-0.4
							c-0.2,0-0.4,0-0.5,0c-1.5-0.2-2.5-0.1-3.1,0.2l0.3,0c0.6-0.1,1.2,0,1.6,0.1c0.1,0,0.4,0,0.6,0.1c1.1,0.1,2.4,0.2,4,0.2
							c0.2,0,0.4,0,0.4,0c0.3,0,0.5,0,0.6,0c-0.1,0.2-0.3,0.4-0.6,0.6l0.1,0.1c-0.2,0-0.4,0-0.7,0c0,0-0.1,0-0.1,0
							c-0.2,0-0.4,0-0.6,0c-0.2,0-0.4,0-0.6,0c-1.1,0-1.3,0.2-0.5,0.4c0.4,0,0.7,0,1,0c0.3,0,0.5,0,0.5,0c0.1,0,0.3,0,0.4,0
							c0.1,0.1,0.1,0.2,0,0.4c-0.4,0.4-0.6,0.8-0.7,1.2c-0.2,0.4-0.4,0.7-0.6,0.8c-0.2,0-0.3,0-0.4,0l-0.3-0.2
							c-1.2,0.1-1.4,0.2-0.4,0.3c0.8,0.2,1.1,0.6,0.7,1.1c-0.5,0.2-1,0.5-1.3,0.8c-0.1,0.1-0.2,0.1-0.4,0.1c-0.5,0-1.1,0-1.8,0
							c-0.1,0-0.2,0.1-0.2,0.1c0.7,0.4,1.4,0.7,2.2,1c0,0.2-0.1,0.2-0.3,0.2c-0.2,0.1-0.3,0.1-0.3,0.1c-0.7-0.6-1-0.6-1.1,0.1
							c0,0.1,0.1,0.2,0.3,0.2c1.2,0.3,1.1,0.6-0.1,0.9C59.5,26,58.5,26,57.3,26c-0.2-0.1-0.3-0.1-0.4-0.1c-1,0.3-2.2,0.5-3.6,0.6
							c-0.2,0-0.5,0.1-0.6,0.1c-2.1,0.1-2.6,0.3-1.6,0.6c0.2,0,0.3,0.1,0.3,0.1c0.2,0.1,0.3,0.2,0.4,0.2c1.5,0.2,1.9,0.4,1.1,0.7
							c-1.3,0.5-1.2,0.9,0.1,1.1c-2.1-0.1-2.6,0.1-1.7,0.4l0.2,0.1c-1,0.1-1.1,0.1-0.2,0.2c0.2,0,0.4,0,0.6,0
							c0.2-0.1,0.4-0.1,0.6-0.1l0.5-0.1c0.1-0.4,0.5-0.7,1.1-0.8c0.2,0,0.4-0.1,0.7-0.2c0.5-0.2,1.1-0.3,1.7-0.3l0.3-0.1
							c-0.8,0.2-0.7,0.4,0.3,0.5c0.1-0.1,0.3-0.1,0.4-0.1c1,0,1.1,0.1,0.3,0.3l-0.4,0.1c0.9,0.1,1.4,0.1,1.6-0.1
							c0.1-0.1,0.3-0.1,0.5-0.1c1.8-0.2,2.1-0.5,1-0.9c0,0.1-0.1,0.2-0.2,0.3c-0.6,0.3-1.1,0.4-1.4,0.1c-0.1-0.1-0.2-0.2-0.5-0.2
							c-0.2-0.1-0.4-0.1-0.8-0.1c-0.4-0.1-0.7-0.2-1-0.4c-0.3-0.3-0.9-0.5-1.6-0.6c-0.3,0-0.6-0.1-0.9-0.1c-0.2-0.1-0.2-0.1,0-0.1
							c1.3-0.3,2.1-0.2,2.1,0.2c0.4,0.3,0.8,0.3,1.3,0c0.1-0.1,0.1-0.2,0.1-0.2c-0.1-0.3,0.2-0.4,0.8-0.3c0.2,0,0.4,0,0.4,0
							c-0.7,0.3-0.8,0.6-0.3,0.8c0.8,0.3,1.5,0.4,1.9,0.1l0.3-0.2c0,0.3,0.3,0.5,1,0.5c0.4,0,0.6,0,0.6,0c0.3,0.3,0.8,0.5,1.6,0.6
							c0.3,0.1,0.7,0.1,1,0.2c1.4,0.2,1.4,0.4,0,0.7c-0.4,0.1-0.8,0.2-1.2,0.4L63.4,30c-0.1-0.3-0.2-0.5-0.2-0.6l0-0.1
							c-0.8,0.4-1.5,0.4-2.1,0c-0.4,0-0.7,0.1-1.1,0.2l-0.3,0.1l0.3,0.1c-0.3,0.2-1.2,0.2-2.8,0.1c-0.2,0-0.5,0-0.7,0l-0.3,0.1
							c-0.6-0.2-0.9-0.2-0.8,0.3c-0.2,0-0.3,0.1-0.4,0.1c-0.2,0.1-0.2,0.1,0.1,0.2c0.2,0,0.4,0.1,0.6,0.1c0.2,0.1,0.2,0.1,0.1,0.2
							c-0.2,0-0.4,0.1-0.6,0.2c-0.4,0.2-0.9,0.4-1.4,0.6c-0.2,0-0.3,0-0.3,0.1c0.2,0.3-0.1,0.4-0.8,0.5c-1.2,0-2,0.1-2.3,0.4
							c0.7,0,1.2,0.1,1.4,0.3c0.1,0.1,0.1,0.2,0.1,0.2c-0.2,0.1-0.4,0.3-0.6,0.4c-0.1,0.1-0.3,0.2-0.5,0.3l-0.3,0.1
							c0.2-0.4,0.1-0.6-0.3-0.7l-0.1,0c-0.8-0.4-1.1-0.2-0.9,0.5c0.1,0.1,0,0.2-0.2,0.2c-0.4,0.2-0.7,0.5-0.8,0.7
							c0,0.4-0.8,0.6-2.3,0.6l-0.1-0.2c-0.9,0.1-1.8,0.2-2.9,0.4c-1.6,0.2-2.7,0.6-3.4,1.1c-0.5,0.3-0.9,0.4-1.2,0.2
							c-1.3,0.3-1.5,0.5-0.4,0.8l0.3,0.1c-0.8,0.2-0.7,0.5,0.4,0.7c0.3,0.2,0.1,0.3-0.5,0.3c-0.2,0-0.4,0-0.4,0
							c-1.2,0.2-1.9,0.1-2.2-0.5c-0.1-0.1-0.2-0.1-0.3,0c-1.3,0.3-1.3,0.4-0.1,0.4c0.4,0.6,1,0.8,1.9,0.6c0.4-0.1,0.8-0.1,1.2-0.2
							c0.2,0,0.5,0,0.6,0c0.2,0,0.3,0,0.3-0.1c-0.1-0.3,0.2-0.4,0.7-0.4c0.2,0,0.4,0,0.6,0c1.5-0.1,2.5,0,3,0.1c0.7,0.2,1,0.2,0.9,0
							c0-0.1-0.1-0.1-0.1-0.1c0.8-0.3,1.5-0.2,2,0.3c-0.1,0-0.3,0.1-0.6,0.2c-0.1,0.1-0.2,0.1-0.2,0.1c0.6,0.3,0.4,0.5-0.8,0.6
							l-0.4,0l0.3,0.1c-0.7,0.2-1.6,0.4-2.8,0.6c-1.2,0.3-2.2,0.2-3-0.2c0,0.1-0.1,0.1-0.2,0.1c-0.1,0-0.1,0.1,0,0.1
							c0.4,0.2,1.1,0.4,1.9,0.5c0.2,0,0.3,0.1,0.3,0.1c-0.2,0.2-0.4,0.4-0.7,0.5c-0.2,0-0.5,0-0.8,0l-0.3,0
							c-0.8-0.1-1.4-0.2-1.6-0.1l-0.2,0.1c0.7,0,1.4,0.1,2.2,0.2c0.1,0,0.2-0.1,0.4-0.1c-0.1,0-0.3,0.1-0.4,0.2c-0.1,0-0.3,0-0.6,0
							l-0.6,0c0,0.1,0,0.1-0.1,0.1c0-0.1-0.2-0.1-0.3-0.1c-0.4,0-0.7,0-1.1,0c-0.7,0-1.3,0-2.1-0.1l-0.5,0c0,0.4-0.1,0.7-0.4,0.9
							c1.5,0,2.5,0,2.9-0.2c0.9,0,1.8,0,2.8,0.1l0.4,0c-0.7,0.2-0.4,0.4,0.7,0.4c0.1,0,0.2,0.1,0.3,0.1c0.3,0,0.5-0.1,0.7-0.2
							l0.3,0.1c0.1-0.1,0.6-0.1,1.4,0c0.2,0,0.5,0,0.7,0c0.4,0,0.6,0,0.8,0.1C45,43,44.8,43,44.5,43s-0.4,0-0.6,0
							c-0.8,0-1.6,0-2.3,0c-0.4,0-0.7,0-0.9,0c-0.2,0.1-0.2,0.1,0,0.1c0.6,0.1,1.1,0.2,1.5,0.3c-0.1,0-0.3,0.1-0.6,0.1
							c-0.2,0-0.3,0.1-0.4,0.1c0,0.1-0.2,0.2-0.6,0.3l0.1-0.1l-0.3,0c0.5-0.1,0.4-0.2-0.1-0.2c-0.4-0.1-0.8-0.1-1.3-0.1
							c0.8-0.1,0.6-0.2-0.5-0.2c-0.2,0-0.4,0-0.6,0c-1.6,0-2.3,0.1-2.1,0.2c0,0.2,0.4,0.3,1,0.4c0.1,0,0.2-0.1,0.3-0.1
							c0.2,0,0.3,0.1,0.3,0.2c-0.3,0-0.7,0-1.1,0c-0.3,0-0.6,0-0.8,0c-0.8-0.1-1.3-0.1-1.4-0.1c-0.1,0.1-0.2,0.1-0.4,0.2
							c-0.2,0-0.4,0-0.7,0.1c-0.6,0-1.2,0.1-1.9,0.1c-0.3,0-0.5,0-0.6,0c-0.5,0.3-0.3,0.4,0.6,0.2l-0.3,0l0.3-0.1
							c0.9-0.2,1.6-0.2,1.9,0c0.1,0.1,0.1,0.1,0.1,0.1c-0.3,0.1,0.1,0.2,1,0.3c0.8,0,1.4,0,1.9-0.1c0.3,0,0.4,0,0.5,0
							c0.1-0.2,0.4-0.2,1-0.2l0.4,0c0.5,0,1.1-0.1,2-0.1l0.4,0c-0.8,0.1-0.8,0.2-0.2,0.3c-0.3,0.1-1,0.1-2.1,0.1l0.3,0.2
							c0.7,0,1.7-0.1,3-0.1c2.5,0.1,2.9,0.1,1.3,0.2c-0.2,0.1-0.4,0.1-0.6,0.2l-0.3,0.1c0.9,0,1.8,0,2.6-0.1c1.1-0.1,2-0.1,2.9,0
							c0.6,0.1,1.4,0.1,2.4-0.1c-1.2-0.2-0.9-0.2,0.8-0.2l-0.1,0.1c-0.1,0.1,0.2,0.1,0.8,0.1l0.1,0c0.3,0.2,1.2,0.3,2.7,0.3
							c0,0.1-0.1,0.1-0.2,0.1c-0.1,0-0.2,0.1-0.2,0.2c-0.1,0-0.2,0.1-0.4,0.1c-0.2,0-0.4,0-0.6,0l-0.2,0c-0.7,0.1-0.5,0.3,0.7,0.5
							c0.2,0,0.3,0,0.3-0.1c0.3-0.2,0.7-0.2,1.1,0c0,0.1,0,0.1,0.1,0c0.6,0,1.4,0,2.4-0.1c0.4,0,0.7,0,0.8,0c0.8,0.1,1.5,0.1,2.2,0
							l0.6,0c-1.2,0-1.4-0.1-0.4-0.2c0.2,0,0.4-0.1,0.6-0.1c0.9,0.2,1.6,0.2,2,0c0.2,0,0.4,0.1,0.3,0.1c0,0.1,0.4,0.2,1.1,0.2l0.6,0
							c0.3,0.2,0.5,0.3,0.4,0.3l-0.1,0.1c0.8-0.1,1.3-0.1,1.5,0l0.2,0l0.5,0c-0.3-0.1-0.1-0.2,0.4-0.2l0.3,0c0,0.1,0.5,0.2,1.3,0.1
							l-0.2,0.1c-0.5,0.2-1.2,0.2-1.9,0c-0.4,0-0.6,0-0.8,0.1c-0.4,0-0.4,0.1,0.2,0.1l0.4-0.1c0.2,0,0.2,0.1,0,0.1
							c-0.7,0.1-1,0.3-0.9,0.6c0,0,0.1,0.1,0.2,0.1c0.8,0.1,0.9,0.3,0.2,0.4c-0.8,0.1-2,0.1-3.4,0.1c-0.7,0-1.7,0-3,0.1
							c-0.4,0-0.8,0-1.1,0c-0.4,0-0.6,0-0.6,0.1c-0.2,0.2-0.5,0.4-1,0.5c-1.5,0-1.4,0.1,0.1,0.1c0.2,0.1,0.4,0.1,0.7,0.1l0.5,0
							c0,0.3,0.2,0.5,0.6,0.6c0.9,0.1,1.7,0.2,2.5,0.1c0.7,0,0.8-0.1,0.3-0.3l-0.1,0c0.4-0.1,1-0.2,1.8-0.2c1-0.1,2.2-0.1,3.6-0.2
							c0.9,0,1.9-0.1,3-0.1c2.1,0,2.1-0.1-0.1-0.1c-0.2,0-0.3,0-0.4,0c-0.2,0-0.4-0.1-0.6-0.1c-0.2-0.1-0.5-0.1-0.9,0
							c-1.1,0-1.3,0-0.6-0.2c0.1-0.1,0.2-0.1,0.2-0.1c-0.4-0.1,0-0.2,1.4-0.3c0.2,0,0.4,0,0.6,0c0.2,0,0.4,0,0.6,0
							c0.2,0,0.4,0,0.5,0c1.6-0.1,1.5-0.2-0.5-0.3c-0.2,0-0.3,0-0.2,0c0.3-0.2,0.1-0.3-0.6-0.2c-0.1,0-0.2,0-0.4,0
							c-1.3,0.1-1.6,0-0.8-0.1l0.3-0.1l0-0.1c0.1-0.1,0.7-0.1,1.9-0.1c0.4,0,0.8,0,1.3,0c2.1-0.1,2.7,0,1.8,0.2
							c0.2,0.1,0.8,0.1,1.8,0.1c0.2,0,0.4,0,0.4,0c0.4,0.1,0.9,0.1,1.3,0.1l0.1,0.4c-0.4,0-0.6,0-0.8,0c-0.8-0.2-1.3-0.2-1.4-0.1
							c-0.1,0,0,0,0.3,0c0.7,0.1,1,0.2,1,0.4l0.1,0.1c0.9,0,1.1,0,0.8,0.1c-0.5,0.2,0,0.3,1.6,0.2c1.2,0,1.6-0.1,1.4-0.1
							c0.1,0,0.2,0,0.4,0c4.1-0.1,5.5,0,4.3,0.3l-0.2,0.1c-2.4-0.2-3.6-0.1-3.6,0c-0.5-0.1-0.9-0.1-1.3,0l-0.9,0c2.1,0,3.1,0,3,0.2
							l0,0.1c0.5,0,0.9,0,1.4-0.1c0.4,0,0.8,0,1.1,0c2.3,0.3,6.2,0.3,11.5,0.2c-0.5,0-1,0-1.5,0c-0.5,0-0.7,0.1-0.7,0.1
							c0,0,0.2,0,0.4,0.1c1.2,0.2,1.4,0.3,0.6,0.4c-0.5,0-0.8,0-0.7,0.1c0.2,0.2,1.9,0.2,5.2,0.3c4.5,0,5.4,0,2.6-0.2
							c-2,0-3.7-0.2-5-0.4c-1.5-0.2-1.2-0.2,0.7-0.1c1.6,0,2.3-0.1,2.1-0.2l0-0.1c-1.4-0.1-0.6-0.1,2.2-0.2l0.6,0
							c-1.3,0.1-0.5,0.1,2.4,0.1l0.6,0c0.5,0.1,1,0.1,1.5,0.1c1,0.1,2.3,0.2,3.8,0.3c0.4-0.1,1-0.1,1.6-0.1c0.9-0.1,1.5-0.1,1.9-0.1
							c1.5-0.1,2.5-0.1,3,0.1c0,0,0.1,0.1,0.2,0.1c1.9,0.3,1.1,0.5-2.2,0.6c0,0-0.1-0.1-0.3-0.1c-0.8,0-1.3,0-1.5,0
							c-0.3,0,0,0.1,0.8,0.1c3.1,0.1,5.2,0.1,6.2,0l0.7-0.1c2,0,3.9,0,5.9,0l0.6,0c0,0,0.1,0,0.2,0c0.9,0.1,2.2,0.1,3.7,0l0.6,0
							c-5-0.2-5-0.3,0-0.3l-0.2,0c-0.7-0.2-0.4-0.3,0.9-0.2c0.5,0,0.9,0,1.3,0c0.6,0,1,0,1.1,0c2.5,0.1,2.8,0.2,0.7,0.3l-0.7,0.1
							c2.4,0.1,2.7,0.2,0.7,0.3c-1.7,0.1-0.2,0.2,4.6,0.2c1.5,0.1,3.1,0.1,4.7,0.1l1.1,0c0.5,0.3,1.6,0.5,3.1,0.6
							c0.6,0,0.8,0.1,0.6,0.2c-0.5,0.1-0.1,0.2,1.2,0.3c-2.7-0.1-4.3-0.1-4.8,0l-0.4,0.1l-0.7,0c-2,0.1-3.4,0-4.3-0.1
							c-1.9-0.3-3.9-0.3-6,0c2.1,0,2.8,0.1,2.2,0.3c-0.7,0.1,0.1,0.1,2.3,0c4.8-0.2,7.3,0,7.3,0.4c1,0.1,1.9,0.1,2.6-0.1
							c0.2,0,0.6-0.1,1.1-0.1c2.9-0.1,3.6-0.2,2.1-0.1l-0.6,0.1c1.6,0.2,0.9,0.3-2.3,0.4c-0.5,0-0.8,0-0.9,0.1
							c-0.3,0.1-0.4,0.1-0.2,0.1c2.5,0,3.1,0.1,2,0.2c-0.4,0.1-1,0.1-1.9,0.1c-6-0.1-9.3,0-10,0.4c1.8,0,4.1,0,7,0.2
							c0.5,0,0.8,0,0.9,0c3-0.2,5.6-0.2,7.9,0c-0.5,0-0.7,0-0.8,0c-0.4,0-0.3,0.1,0.2,0.1c2.2,0.1,3.8,0.2,4.8,0.4
							c0.3,0.1,0.2,0.1-0.3,0.2c-0.4,0-0.7,0.1-0.9,0.1c-0.2,0-0.4,0.1-0.4,0.1c-0.2,0.2-1.1,0.4-2.7,0.6c-0.2,0-0.5,0-0.8,0.1
							c1.6,0,2.8,0,3.8-0.1c1,0,1.7-0.1,2.1-0.2c0.3-0.1,0.4-0.1,0.2-0.2c-1-0.3,0.6-0.5,4.8-0.6c0.8-0.1,1.5-0.1,2.4-0.1
							c0.7,0,1.1,0,1.1-0.1c1.6-0.3,1.1-0.5-1.7-0.6c-3.9,0-3.9-0.1-0.2-0.1c1.8,0,2.5-0.1,2.2-0.2l-0.9,0c-0.9,0-1.7,0-2.4,0
							c-3-0.1-4,0-3.2,0.3c-1.9,0-3.5,0-4.8,0c-0.7,0-1.3,0-1.8-0.1c-0.5,0-0.6,0-0.1,0c0.5,0,1-0.1,1.5-0.1
							c0.4-0.1,0.5-0.1,0.2-0.1c-2.8-0.1-3.8-0.3-2.9-0.5c0.2-0.1,0.3-0.2,0.5-0.2c1.9,0,2.8,0,2.6-0.1c-0.3-0.2,0.7-0.2,2.9-0.1
							c3.7-0.1,4.4-0.3,2-0.6l-0.9,0c-4,0-5,0-2.9-0.2c1.5-0.1,3-0.1,4.5-0.1c2.7,0.2,3.8,0.1,3.3-0.1c-0.3-0.1-0.9-0.2-2-0.3
							c-4,0.3-6.6,0.3-8-0.2l0.3,0c3.9,0.1,6.5,0.1,7.7-0.1c0.4,0,0.7,0,0.8,0c0.4-0.1,0.7-0.1,0.9-0.1c1.9,0,2.7-0.1,2.2-0.2
							l-0.4,0c1.9-0.1,4.1-0.1,6.6,0.1l0.7,0c-0.2-0.1,0.1-0.2,0.9-0.2c0.3,0,0.7-0.1,1.2,0c0.4,0,0.6,0,0.6-0.1s-0.1-0.1-0.2-0.1
							c-0.3,0-0.3,0,0.1-0.1c0.6,0,1.4-0.1,2.3-0.1c0.5,0,0.9,0,1.3,0c2.8,0.1,4.4,0,5,0c0.2,0,0.5,0,0.6-0.1c1.9,0,3.5,0.1,4.9,0.3
							c1.2,0.1,2.8,0.3,4.9,0.4c3.8,0.2,5.8,0.2,6.2-0.1l0-0.1c0.5,0.1,0.9,0.1,1.1,0.1l2.6,0c-2.3-0.2-3-0.3-2.2-0.3
							c1.9-0.1,3.6-0.2,5.1-0.1l0.7,0.1l-0.9,0c0.8,0.1,2.3,0.2,4.5,0.3c3.1,0,3,0.1-0.4,0.2c-0.7,0-1.4,0.1-2.1,0.1
							c-1.6,0-3.7,0.1-6.2,0.1c-0.9,0-1.7,0-2.1,0.1c-2,0.1-3.8,0.1-5.3,0c1.4-0.1,0.7-0.2-2-0.3c-0.8,0-1.4,0-1.8,0l-0.7,0
							c-1.7,0-1.6,0.1,0.2,0.3c-4.4-0.1-6.8-0.2-7.1-0.3c-0.3-0.1-0.7-0.2-1.2-0.3l-0.1,0c2.4,0.2,3.7,0.2,3.7,0
							c-1.3-0.1-3.7-0.1-7.2-0.1c-0.6,0-0.8,0-0.7,0c0.4,0.1,0.9,0.2,1.5,0.2l0.4,0c-1.9,0-2.5,0.1-1.9,0.1c1,0.1,1.3,0.3,1,0.6
							c1.5,0,2.9,0,4.2-0.1c0.6,0,1.1,0,1.5,0c3.4,0,3.9,0.1,1.8,0.2l-0.8,0.1c0.5,0,1,0,1.6,0.1l0.7,0c-3.2,0-3.7,0-1.4,0.1
							c0.9,0.1,2,0.1,3.2,0.2c3,0.1,4.7,0.1,5.2-0.1c0.2,0,0.6,0,1.1-0.1c0.5,0,1,0,1.6,0c0.9,0.1,2.1,0,3.6-0.1
							c-0.2,0.2,1.3,0.3,4.5,0.3c2.6,0,3.8-0.1,3.6-0.2l-0.1-0.1c4.1,0,5.8-0.1,5.1-0.4c0.3-0.1,1.1-0.1,2.4,0
							c1.5,0.2,3.2,0.2,5.1,0.2c0.4,0,0.7-0.1,0.7-0.1c0.2-0.2,1.3-0.2,3.4-0.2l0.8,0c2.4-0.2,5.5-0.2,9.4-0.1
							c0.5,0.1,0.9,0.1,1.1,0.1c3-0.1,5.1-0.1,6.3,0c0.5,0,1,0,1.3,0c2.1,0,2.9,0,2.5,0.1c-0.2,0-0.3,0-0.2,0.1
							c0.7,0.2,1.9,0.2,3.7,0c0.4,0,0.6,0,0.6,0c-0.3-0.3,0.4-0.5,2-0.6l-9.2,0c-2.8-0.1,6.7-0.1,8.4-0.2l0.1,0
							c1.1-0.1,0.8-0.2-0.8-0.2c-3.2,0-3.7,0-1.5,0.1c-1,0.1-2.4,0.1-4.5,0.1l-1.3,0c0-0.2,1.2-0.3,3.5-0.3l0.1,0
							c1.2-0.2,0.4-0.3-2.5-0.3c-0.6-0.1-0.2-0.2,1.4-0.1c1,0,1.6,0,1.6,0c1.1-0.2-7.2-0.3-4.9-0.1l0.9,0c0.9,0,1.3,0,1.4,0
							c1.1-0.3,10.1-0.4,6.9-0.2c-2.1-0.1-11.6-0.2-8.6-0.2c0.6,0,1.1,0,1.6,0c4-0.1,6.2,0,6.7,0.2c0,0.1,0,0.1-0.1,0.1
							c-0.2,0.2,0.2,0.3,1,0.5c-0.4,0-0.6,0-0.5,0.1c1.1,0.1,1.6,0.1,1.6,0c0-0.2,1.6-0.2,4.8,0l0.8,0c1.2-0.1,2.9-0.1,5.1-0.1
							l1.4,0c0.7,0,2,0,3.8,0c0.1-0.2-0.7-0.3-2.4-0.3c-1,0-1.5,0-1.6-0.1c0,0-0.1,0-0.1,0l26.4,0.7c-1,0.1-1.8,0.1-2.4,0.2
							c0.7,0,1.2,0.1,1.8,0.1c-0.1,0-0.1,0.1-0.2,0.1c0.5,0,1.1-0.1,1.7,0c0.8,0,1.3-0.1,1.5-0.1c0.9,0,1.1-0.1,0.6-0.2l-52.7,2.1
							c-0.1,0-0.2,0.1-0.3,0.1c1.3,0.3,3.3,0.4,6.1,0.5c1.5,0,2.9,0.1,4.3,0.2c0.2,0-9.5,0-9.2-0.1c1.4-0.1,2.7-0.2,3.9-0.2
							c0.4,0,0.7-0.1,0.8-0.1l0.6,0c0.2,0,0.3-0.1,0.3-0.1c0.1-0.2-0.1-0.3-0.7-0.4c0,0-0.1-0.1-0.2-0.1c-0.6-0.1-1.3-0.2-2.2-0.3
							c0.8-0.2,2.2-0.2,4.3-0.1c0,0.1,0.2,0.2,0.4,0.2c0.7,0.1,0.9,0,0.4-0.2c-1.2-0.5-1-0.8,0.6-1.2c0.9-0.2,0.9-0.2-0.1-0.2
							c-1.1,0-2-0.1-2.8-0.2c-0.1,0-0.2,0-0.4,0c-0.7,0-1.3,0-1.8,0c0.6,0,1.2-0.1,1.9-0.1l-3.8-0.1c-0.7,0,8.8-0.1,8.2-0.2
							c-0.3,0-0.4-0.1-0.3-0.1c0.2-0.1-9.4-0.1-8.9-0.1c1.1,0,2,0.1,2.9,0.3c2.1,0.3,4,0.2,5.8-0.1c0.6,0.2,1.4,0.3,2.5,0.3
							c0.4,0,0.6,0,0.6,0c0,0.1,0.1,0.1,0.1,0.2c0,0.1,0,0.1,0.1,0.2c0.1,0.1,0.2,0.2,0.3,0.2c0.2,0,0.3-0.1,0.5-0.1
							c0.1,0,0.1-0.1,0.1-0.2c0.1,0,0.2,0,0.3,0c0.2-0.1,0.7-0.1,1.6-0.2c1.1-0.1,2.1-0.1,3.1-0.1c0.5-0.1,1-0.2,1.4-0.3
							c-1.7-0.1-1.3-0.2,1-0.4c0.3,0,0.6,0,0.9,0l1.2-0.5l8.4,0.1c1.2,0.8,2.7,1.1,4.5,0.8c0.3-0.1,0.6-0.2,1-0.4c0-0.1,0-0.2,0-0.3
							c0-0.2-0.1-0.4-0.2-0.6c-0.4,0-1.1,0-2.1,0.1c0-0.2-0.5-0.2-1.4-0.1c-1.9,0.3-2.9,0.2-3-0.3l0-0.1c-1.4,0.1-2.8,0.1-4.1-0.1
							c-1-0.1-1.1-0.2-0.3-0.3c0.3-0.1,0.6-0.1,0.6,0c0.5,0,0.9,0,1.4,0.1c0.7,0,1.5,0.1,2.3,0.1c3.9,0.1,6.6,0,8-0.3l0.5,0
							c2.1,0.2,3.5,0.2,4.2-0.3c0.9-0.2,2.2-0.2,4.1-0.2c3.1,0.1,6,0,8.6-0.3c0.4,0,0.9,0,1.4,0.1l0.1,0l-4.6-0.5
							c-0.2-0.6-0.7-1.1-1.3-1.6c-0.1,0-0.1-0.1-0.2-0.1c-0.4,0-0.8,0.1-1.2,0.1l-0.9-0.6c0.9,0,1.6,0.2,2.1,0.5
							c3.1-0.3,6.3-0.6,9.6-0.8c-1.1-0.1-2.3-0.2-3.4-0.3c-1.4,0.2-3.4,0.2-5.9,0.2c-2.8,0-5.1,0.1-6.9,0.2l-0.6,0
							c0.4-0.2-0.2-0.3-1.9-0.4c-1.6,0.2-3.1,0.3-4.4,0.5l-0.4,0.1c0.2-0.1,0.2-0.2,0-0.3c1,0,2,0,2.9-0.2c0-0.1-0.1-0.1-0.2-0.1
							c-0.5-0.1-0.8-0.2-1.1-0.2l-0.3-0.1c3.6-0.2,7.2-0.3,10.8-0.5c1.9,0,3.4,0,4.5,0.1c2.1,0.3,3.5,0.2,4.1-0.2
							c-2.6-0.1-5.7-0.1-9.4,0c-3.2,0.1-6,0-8.4-0.3l-0.6,0c-0.7,0.2-1.9,0.3-3.7,0.2c-0.6,0-1.1,0.1-1.7,0
							c-4.1,0.1-6.6-0.1-7.7-0.6c-0.6,0-1,0.1-1.2,0.2c-1,0.4-2,0.4-2.8,0.1c-0.2-0.1-0.2-0.2,0.1-0.2c0.5-0.1,1.2-0.3,2-0.4
							c-0.3-0.1-0.6-0.1-0.9,0c-0.3,0-0.6,0-0.8,0c-0.9,0-1.1-0.1-0.5-0.3l0.3-0.1c3.4-0.3,6.2-0.7,8.4-1.3c2.9-0.1,4.8-0.1,5.6,0.2
							c1.4,0.5,2.4,0.5,3-0.2c-1.1,0.1-1.7,0-1.8-0.1l0-0.2c-1.7,0.1-3.4,0-5.1-0.1l-0.5,0c0,0.3-0.9,0.4-2.9,0.2
							c-1.3-0.1-2.7,0-4.3,0.2c-1.9,0.3-3.6,0.6-5,1c-1.5,0.3-3.2,0.4-5,0.2c-0.3,0-0.5,0-0.6,0c-0.3-0.1-0.5-0.1-0.8-0.2
							c-1.5-0.2-2.2-0.6-2-1.1c0.1-0.1,0.2-0.1,0.3-0.1c2,0.1,2.9,0,2.7-0.3c0-0.1,0-0.1,0.1-0.1c0.5-0.1,0.7-0.1,0.8-0.2
							c0.2-0.1,0.1-0.2-0.3-0.2c-2.2-0.1-1.9-0.2,0.9-0.2c0.3,0,0.5,0,0.5,0c0,0.5,1,0.6,3,0.4c-0.1-0.3-0.2-0.6-0.5-0.9l-0.1-0.1
							c1.6-0.1,1.8-0.2,0.5-0.3c-0.3-0.1-0.6-0.1-0.7-0.1c-0.2-0.2-0.5-0.2-0.8-0.3c-1.1-0.3-1.3-0.4-0.6-0.5c0.3,0,0.5-0.1,0.5-0.2
							c-0.1-0.5,0.6-0.8,1.9-1c-1-0.2-0.9-0.5,0.2-0.9c0.8-0.3,2.4-0.5,4.8-0.5l0.4-0.1c-1.1-0.2-1.3-0.3-0.5-0.4
							c2.5,0,3.4,0.2,3,0.4c-0.2,0.1-0.3,0.2-0.2,0.2c1,0,1.7,0.1,2.3,0.1c-1.1-0.3-1.1-0.6,0-0.9c2.3-0.2,2-0.3-0.8-0.3l-0.5,0
							c-0.3,0.1-0.6,0.3-0.8,0.4l-0.4,0c-3.4,0-4-0.2-1.7-0.4c0.2-0.1,0.6-0.3,1-0.4c0.4,0,0.9-0.1,1.3-0.1c1.9-0.2,3.3-0.2,4.4,0
							c0.3,0.1,0.6,0.1,0.9,0.1c0.2,0,0.4-0.1,0.5-0.1c1,0.2,2.5,0.2,4.7,0.1c0.2,0,0.6,0,1,0c1.6,0.1,3.3,0.1,5,0.1
							c1.4,0,2.7-0.1,4.1-0.2c3.9-0.2,6.6-0.1,7.8,0.4c-1.3,0.2-1.1,0.2,0.8,0.1c0.3,0,0.6,0,0.9-0.1c0.7-0.1,1.9-0.2,3.4-0.1
							c0.5,0,0.9,0,1.1,0l0.4-0.1c2.6,0,4-0.3,4.2-0.7l-0.1,0c-0.9,0.1-1.7,0.1-2.4,0l-0.5,0c-1,0.3-1.8,0.3-2.6,0.1l-0.3-0.1
							c-2.4,0.1-3.7-0.1-3.9-0.5c-0.1-0.1-0.3-0.1-0.6-0.1c-2.4,0-2.9,0-1.6,0.1c1.8,0.2,1.8,0.3,0,0.5c-0.8,0.1-1.6,0.2-2.5,0.3
							c-3,0.2-5.6,0.2-7.7,0.1c-2.2-0.1-4.4-0.3-6.7-0.4c-0.6,0-1.2,0-1.8,0c-1.9,0.1-2.6-0.1-2.1-0.4c0.4-0.2-0.4-0.2-2.3,0
							c-0.2,0.1-0.5,0.2-0.8,0.2c-0.3,0-0.6,0-1-0.1c-2.1-0.1-3.7-0.4-4.9-0.8c-0.1-0.1-0.3-0.2-0.6-0.3c-0.3-0.2-0.6-0.3-0.9-0.4
							l0.3,0c1.5,0.1,3.1,0.1,4.8,0c0.4,0.2,0.7,0.2,1.1,0l0.2,0c-0.8-0.1-1.7-0.2-2.5-0.2c-0.4-0.1-0.8-0.1-1.2-0.2
							c-2.7-0.2-1.9-0.3,2.3-0.2c0.1,0,0.2,0,0.3,0c0.3,0.1,0.6,0.1,0.8,0.1c-0.1,0-0.2,0.1-0.2,0.1l-0.1,0.1
							c1.2,0.2,1.4,0.4,0.5,0.6c1.3-0.1,2.1-0.2,2.3-0.4c0.1-0.1,0-0.2-0.3-0.3c-1.1-0.3-1.9-0.4-2.3-0.1c0,0-0.2,0-0.4,0
							c-2.2-0.1-1.9-0.2,0.9-0.2c0.3,0,0.7,0,1,0.1c2.6,0,3.2,0.1,1.8,0.2c-1.4-0.2-1.7-0.2-0.8,0c0.2,0.1,0.3,0.1,0.5,0.2l0.3,0.1
							c3-0.1,6.1,0,9.4,0.1c1.9,0.1,2.5,0.2,1.7,0.3c2.1,0,3.3,0.1,3.4,0.3c0.3,0,0.5-0.1,0.5-0.1c0.2-0.2,0.7-0.2,1.8,0
							c1,0.1,2.2,0.1,3.5,0.2c0.7,0,1.4,0.1,2.1,0.1c0.4,0,0.7,0,1,0l-0.7-0.5c-0.4,0-0.6,0-0.8-0.1l-0.3,0c-0.6,0-1.3,0-2.3-0.2
							c-0.2-0.1-0.3-0.1-0.5-0.2l-0.3-0.1c-1.7,0.1-3.1,0.1-4.2-0.1c-0.2,0-0.5,0-0.7,0l-0.6,0c-0.1,0.3-0.9,0.4-2.4,0.2
							c-0.4,0-0.9,0-1.5-0.1c-0.3,0-0.5,0-0.6,0c-1.7-0.1-3.8-0.3-6.1-0.3c-0.3,0-0.7,0-1,0c-1.7,0-2.5-0.1-2.5-0.2
							c0-0.1,0.2-0.1,0.7-0.2c2.8,0,3.1-0.1,0.9-0.2l-0.5,0c-0.8,0.1-1.6,0.1-2.3-0.1c-0.2,0-0.5,0-0.8,0c-3.4-0.1-6.1-0.2-8.3-0.4
							c-0.3,0-0.6-0.1-0.9-0.1l-0.5-0.1c1,0,2.2,0,3.5,0L266.7,28.6 M276.1,44.9c-2.3-0.3-2.2-0.5,0.3-0.6c0.5,0.2,1.4,0.2,2.6-0.1
							l0.5-0.1c0,0.1,0,0.1,0.1,0.2l-0.3-0.1C279.8,44.6,278.7,44.8,276.1,44.9 M273.8,43.9c0.2,0,0.5,0,0.7,0c-0.3,0-0.7,0-1.1,0
							C273.5,43.9,273.6,43.9,273.8,43.9 M280.7,44.5c-0.3-0.1-0.6-0.1-0.8-0.1l-0.1,0c0.2,0,0.5,0,0.9,0c0.1,0,0.2,0,0.3,0l0,0
							L280.7,44.5 M249.1,52.2L249.1,52.2c-0.2,0-0.3,0-0.4,0l-0.2-0.7c0.2,0,0.4,0,0.5,0c0.2,0,0.5,0,0.8,0
							c1.4,0.1,2.6,0.3,3.6,0.4c-0.7,0-1.4,0-2.2,0C249.9,52,249.2,52.1,249.1,52.2 M37.7,43.7c0.1,0,0.3,0,0.4-0.1l0.4,0
							c0.2,0.1,0.4,0.1,0.6,0.1C38.6,43.7,38.2,43.7,37.7,43.7 M269,26.9c0.2,0,0.2-0.1-0.1-0.1c-0.3,0-0.6-0.1-1.1-0.1
							c-1.6-0.2-2,0-1,0.4C267.9,27,268.6,26.9,269,26.9 M265.9,19c2.4,0,2.9-0.1,1.6-0.3C266.4,18.5,265.9,18.6,265.9,19
							 M273.6,21.1c0.3,0,0.6,0,0.9,0.1c0.2,0.1,0.5,0.1,0.7,0.1c0.3,0,0.8,0,1.3,0c1.6,0.1,2.6,0.1,3,0c0.6-0.2,1.4-0.2,2.3,0.1
							c-0.4-0.2-0.1-0.3,0.9-0.3l0.8,0.1c-0.3-0.1-0.9-0.1-1.8-0.2c-0.4-0.3-1.6-0.5-3.5-0.5c-1.6-0.1-2.5-0.1-2.8,0
							c-0.2,0.1-0.5,0.1-0.8,0.1c-1.4,0-2.7,0-4.1,0.1c-1.4,0.1-2.8,0.1-4.3,0c0.4-0.2,0.6-0.4,0.6-0.6c0.1-0.1,0-0.1-0.3-0.1
							c-1.5-0.1-2.7-0.3-3.6-0.5c-1.6-0.4-4-0.7-7.4-0.9c-3.4-0.2,3.7-0.4,1.3-0.8c-0.3-0.1-0.5-0.1-0.7-0.1c-1.6,0.1-2.5,0.1-2.7,0
							c-0.3-0.1-0.7-0.1-1-0.2c-0.5,0-1,0-1.4,0c-0.8,0.1-1.7,0.1-2.8,0.1c-1.1,0-2.3,0-3.4,0c-2,0,57.7-2,56.8-2.2
							c-0.7-0.1-1.5-0.2-2.6-0.1c-0.3,0-0.4,0-0.4,0c0.2,0.2-0.2,0.3-1.2,0.3c-2.3,0-4.6-0.1-6.9-0.2c-1.4,0-2.2,0-2.4,0.1
							c-1.3-0.1-2.6-0.1-3.7-0.2c-1.2,0-2.4,0-3.5-0.1l-0.9-0.1l-0.1,0c-0.4,0-0.8,0-1.1-0.1l0.1,0.1c-2.2-0.1-4.2,0-5.8,0.1
							c1.4,0,2.7,0.1,4,0.1c0.8,0,1.7,0.1,2.4,0.1c2.6,0.1,5,0.2,7.3,0.3c0.8,0,1.5,0,2.3,0.1c2.8,0.1,5.7,0.2,8.8,0.3
							c-0.2,0.1-0.5,0.2-1,0.3c-0.9,0.1-1.7,0.1-2.6,0.1c-2.6,0.1-4.6,0.1-5.9,0c-1.2-0.1-2.8-0.2-5-0.2c-1.4-0.1-2.8-0.1-4.1-0.1
							l0.1,0.6c0.5,0,1,0,1.5,0.1c1.9,0.1,4.2,0.2,6.9,0.2c1.1-0.1,2.2-0.1,3.3-0.1c0.6,0,1,0,1.4-0.1c2.3-0.3,5.1-0.5,8.4-0.6
							c0.3,0.1,0.6,0.1,0.8,0.1l0-0.1c0.3,0-60.4,1.8-60.1,1.8c1.2-0.1,1.8-0.1,1.8,0.1c-0.1,0,0.1,0.1,0.4,0.1
							c1.6,0.2,2.9,0.2,3.8-0.1c4.4-0.1,7.3,0,8.8,0.3c0.2,0.1-9.5,0.1-9.2,0.1c3.4,0.1,5.7,0.4,6.8,0.8c0.2,0,0.5,0,0.7-0.1
							c0.8-0.1,1.9,0,3.5,0.2c0.7,0.1,1.4,0.2,2.1,0.2c0.4,0.1,0.8,0.1,1.1,0.2c0.3,0.1,0.6,0.1,0.8,0.1c1.6,0.2,2.1,0.4,1.5,0.9
							c-0.6,0-1.2,0-1.8,0c-2.3,0-2.9,0-1.6,0.1c0.6,0,1.1,0.1,1.4,0.2c0.2,0.1,0.5,0.1,0.7,0.2c0.8,0.2,1.5,0.4,2,0.7
							c0.3,0.1,0.8,0.2,1.3,0.3c4.2,0.6,7.9,1.2,11.3,1.9c-1.9,0.1-2.5,0.2-1.7,0.2c1.2,0.2,2.1,0.1,2.7-0.1c0.2,0,0.3-0.1,0.4-0.1
							c0.8,0.1,1.3,0.2,1.5,0.3l0.2,0c2-0.1,3,0,3,0.4c0.2-0.1,0.5-0.1,0.9-0.1c1.4-0.1,1.7-0.2,0.9-0.3c-2.3-0.1-4.3-0.3-6.1-0.6
							c-2.5-0.4-5.2-0.7-8-1c-0.1-0.2-0.4-0.3-0.9-0.4l-0.3-0.1c0.9-0.1,0.7-0.1-0.5-0.2c-0.6,0-1-0.1-1.3-0.1c0,0-0.1,0-0.1-0.1
							c0.1-0.2-0.4-0.3-1.4-0.3c-1.1-0.2-0.9-0.3,0.7-0.4c0.9-0.1,1.8-0.1,2.6-0.2C271.6,20.9,272.8,21,273.6,21.1 M274.7,16.7
							c-0.3,0.3-0.5,0.6-0.6,0.9c2.2-0.2,3.2-0.3,2.7-0.5c-0.2-0.2-0.5-0.3-0.8-0.5c-0.5-0.2-1.1-0.3-1.6-0.2
							c-1.4,0.3-1.5,0.4-0.5,0.3L274.7,16.7 M273.7,17.9l-0.4,0c-2,0.2-1.9,0.4,0.1,0.5C274.4,18.3,274.5,18.1,273.7,17.9
							 M270.2,12.9c-1.6-0.2-2.5-0.2-2.9,0.2c1,0,1.8,0,2.4-0.1L270.2,12.9 M266.7,14.4c0.3,0,0.5,0,0.6,0l0.2-0.1
							c1.3,0.1,2.2,0.1,2.7,0c0.2,0,0.3,0,0.4,0c1.4,0.1,2.6,0.1,3.8-0.1c-0.3,0-0.5,0-0.8,0c-4.1-0.1-7-0.4-8.7-0.9
							c1,0.4,0.8,0.5-0.7,0.5c-1.6,0-3.1,0-4.4,0.1L259,14c0.1,0.1,1,0.2,2.6,0.2C264.5,14.1,266.2,14.2,266.7,14.4 M281.8,15.9
							C281.8,15.9,281.8,15.8,281.8,15.9c-0.8-0.3-1.9-0.3-3.2-0.2c-0.4,0.1-0.7,0.1-0.9,0.1c-1.8-0.3-3.4-0.3-4.7-0.1
							c-0.9,0.1-0.5,0.3,0.9,0.6c0.8-0.2,1.8-0.2,3.2,0c0.7,0,1.6,0,2.7-0.2C281,16.1,281.6,16,281.8,15.9 M298.7,27.2l0.7-0.2
							l0-0.1C298.4,27,298.2,27.1,298.7,27.2 M293.5,28.8c0.6-0.2,0.6-0.3-0.1-0.3c-1.8,0-2.9,0-3.4,0c-3.1,0.1-3.6,0.4-1.5,0.7
							c0.9,0,1.4-0.1,1.3-0.3c0-0.1,0.1-0.1,0.5-0.1c0.4-0.1,0.7-0.1,0.9-0.1C292.1,28.9,292.9,28.9,293.5,28.8 M294.1,29.2
							C294.3,29.2,294.3,29.1,294.1,29.2c-0.4-0.1-0.8-0.1-1.3-0.1c-1.5,0.1-1.7,0.2-0.8,0.4C293,29.5,293.8,29.4,294.1,29.2
							 M299.7,26.3l0.2-0.3c-1.6-0.2-2.5,0-2.5,0.5C298.2,26.5,299,26.4,299.7,26.3 M300.2,25.7L300.2,25.7l0.5-0.3
							C300.3,25.4,300.1,25.5,300.2,25.7 M294.8,22.9l0.4,0c0.7,0.1,1.1,0.1,1.4-0.1c0.3-0.2-0.3-0.3-1.8-0.2c-0.3,0-0.6,0-0.9-0.1
							c-0.8,0-1.6,0-2.3-0.1c-0.7,0-1.6-0.1-2.7,0c-3,0.1-4.7,0-5.1-0.3c-1.9,0.1-2.2,0.2-1,0.4c0.4,0.1,1.6,0.1,3.6,0
							c1.5-0.1,2.5,0,3.1,0.2c0.2,0,0.6,0,1.1,0.1c1.5,0,2.1,0.1,1.8,0.2C292.9,23,293.7,22.9,294.8,22.9 M294.1,18.2l0.6,0
							c-0.1-0.1-0.3-0.1-0.6-0.2C294.1,18.1,294.1,18.2,294.1,18.2 M296.6,18.9c0.2,0,0.3-0.1,0.4-0.2c-0.5,0-0.8,0.1-0.9,0.1
							C296,18.9,296,19,296,19C296.3,19,296.5,18.9,296.6,18.9 M299.1,18.2c-0.3,0-0.7,0-1.1,0c-0.2,0-0.4,0-0.7,0
							c-2.1,0.1-2.3,0.1-0.6,0.2c0.2,0,0.4,0,0.6,0c0.2,0,0.4,0,0.6,0C298.3,18.4,298.7,18.3,299.1,18.2 M294.9,14.9l-0.5,0
							c-0.9,0.2-2.4,0.2-4.7,0.2c-3.4-0.1-3.8,0.1-1.2,0.4c1.5,0.2,2.2,0.5,2.3,0.9l0.4,0C292.1,15.7,293.3,15.3,294.9,14.9
							 M325,53.3l-4.5,0l3.8,0.3C324.6,53.5,324.8,53.4,325,53.3 M347.9,58.6c-0.3,0-0.6,0-0.7,0c-1.3,0-1.4,0.1-0.2,0.3
							C350.3,58.8,350.6,58.7,347.9,58.6 M323.2,36.5l0.9,0c-1.6-0.6-2.7-0.6-3.4,0.1C321.5,36.5,322.4,36.5,323.2,36.5 M339.2,36.2
							l0.4-0.2c-2.9-0.1-4.7,0-5.6,0.4C336.5,36.5,338.2,36.5,339.2,36.2 M337.5,34.2c0.1,0.1,0.3,0.2,0.6,0.3
							c0.3-0.1,0.6-0.2,0.9-0.2c0.6,0,0.9-0.1,1-0.2c0,0,0.1,0,0.1-0.1C339.3,34.1,338.4,34.2,337.5,34.2 M342.7,4
							c1.1-0.1,2-0.1,2.6-0.2l0.3-0.1C343.3,3.5,342.4,3.5,342.7,4 M279.3,5.7c4.3,0,6.9-0.2,7.9-0.5l0.1-0.1
							C283.1,5.1,280.5,5.2,279.3,5.7 M246.7,5c-1.2,0-1.8,0-1.8,0.1c0.1,0.1,0.3,0.2,0.8,0.3c0.6,0.1,1.1,0.3,1.7,0.5
							c0.9,0.3,1.9,0.6,3.2,0.9l0.4,0c-0.4-0.3-1.2-0.5-2.3-0.8c0-0.3,0-0.5,0.2-0.7c0,0,0-0.1-0.1-0.1C248.3,5,247.6,4.9,246.7,5
							 M222.2,4.4c1-0.1,1.8-0.1,2.3-0.2c1.8-0.2,3.2-0.4,4.3-0.6c0.9-0.2,1.5-0.4,2-0.6c0.8-0.3,0.8-0.4-0.1-0.5
							c1.8-0.2,1.7-0.3-0.2-0.2c-0.4,0-0.8,0-1-0.1c-3.9-0.2-6-0.1-6.3,0.2c0.5,0.1,1,0.1,1.5,0.1c0.5,0,1,0,1.6,0
							c2.5-0.1,3.3,0,2.4,0.2C226.2,3.3,224,3.8,222.2,4.4 M213.7,5.8c-3.1,0-4.5,0.2-4.4,0.6c2.4-0.1,3.8-0.3,4.2-0.5L213.7,5.8
							 M184.9,8.6c-0.1,0.1,0,0.1,0.2,0.1c2.4,0.3,3.8,0.7,4.4,1.1c2.2,0.1,4.1,0.3,5.8,0.4c0.7,0.1,1.3,0.2,1.7,0.3
							c0.5,0,0.9,0,1.1,0c1.2,0,2.4,0.1,3.5,0.1c0.8,0.1,1.6,0.1,2.5,0.1c1.6,0.1,3.2,0.2,4.8,0.2c1.6,0.1,2.6,0.2,2.9,0.4
							c2.8,0,3.3-0.1,1.4-0.3l-0.7-0.1c2.4-0.1,3.8-0.3,4.2-0.6c0.1-0.1,0.1-0.1,0-0.1c0-0.1-0.4-0.2-1.2-0.2
							c-3.5-0.1-4.3-0.3-2.5-0.4c-2-0.2-2.2-0.3-0.6-0.4c2.1-0.1,2.5-0.2,1-0.3c-0.5-0.1-0.9-0.2-1.3-0.2c-0.5,0-0.8,0-0.8,0
							c-0.5-0.3-1.5-0.6-3.1-0.8c-0.5-0.1-0.8-0.1-0.8-0.1c-0.5,0-0.9-0.1-1.3-0.2c-1.6,0-2.8-0.1-3.6-0.1c-2.2-0.2-4.2-0.3-6.1-0.1
							c-1.6-0.1-3-0.1-4.3,0c-1,0.1-1.8,0.2-2.2,0.3c-0.1,0-0.2,0-0.3,0.1c-0.4,0.1-1,0.3-1.9,0.3C186.8,8.2,185.8,8.4,184.9,8.6
							 M171.8,2.4c-1.5,0.3-1.1,0.5,1.4,0.7c0.7,0.1,1.1,0.2,1.3,0.3c0.7,0.4,0.5,0.8-0.6,1.2c3.7,0,5.4-0.2,4.9-0.5
							c0,0,0-0.1,0.1-0.1c-0.3-0.4,0.3-0.7,1.9-0.9c-0.5-0.1-0.8-0.1-1-0.1c-2.3,0.1-3.6,0-3.8-0.2C175.4,2.4,174.1,2.2,171.8,2.4
							 M165.9,8.4l-0.9,0c0.4,0.3-0.5,0.5-2.8,0.7l0.5,0c1.4,0.2,2.5,0.4,3.3,0.6c1,0,1.7,0,2.1-0.1c0.5,0,1-0.1,1.3-0.2
							c0.6-0.1,1-0.2,1.2-0.4C171.5,8.7,169.9,8.5,165.9,8.4 M124,9.4l-0.7-0.2c-2.1,0.2-2.3,0.3-0.3,0.6c1.6,0.2,1.3,0.4-0.8,0.7
							c0.5,0,0.9,0,1.3,0c0.6,0,1.2-0.1,1.6-0.1c2.1,0,3,0,2.6-0.2C126.7,9.9,125.5,9.6,124,9.4 M104.9,5.6c2.3-0.1,2.2-0.3-0.1-0.4
							c-0.5-0.1-0.8-0.1-0.8-0.1C102.1,5.2,102.4,5.4,104.9,5.6 M81.1,11c2.7,0,5,0,6.8-0.1c2.4-0.1,3-0.2,1.7-0.2
							c-0.9,0-1.5,0-1.8,0C86,10.8,83.8,10.9,81.1,11z"/>
					</g>
				</g>
			</g>
		</g>
	</g>
	<g>
		<path class="st1" d="M235.4,22.2c-0.4,1.3,0.2,2.1,0.6,2.8c1,2.4,1.4,5,1.4,7.6c0.1,2.2,0.1,4.5-0.3,6.7c-0.2,1.1-0.6,2.1-0.8,3.1
			c-0.1,0.3,0,0.7,0.1,1.1c1-0.8,1.6-1.7,2-2.8c0.8-2.6,1.2-5.2,0.9-7.9c-0.2-1.8-0.4-3.5-0.7-5.3c-0.3-1.8-1.2-3.3-2.3-4.7
			C236.2,22.5,235.8,22.4,235.4,22.2z M230.7,27.4c-0.1,1-0.1,2.1-0.3,3.1c0,0.2-0.2,0.5-0.4,0.7l-0.1,0.1c-0.1,0.2-0.3,0.4-0.5,0.5
			l-0.1,0.1c0-0.2-0.1-0.5-0.1-0.7c-0.2-1.5-0.4-3-0.4-4.5c0.2,0,0.3,0,0.4-0.1c0.3,0,0.6-0.1,0.8-0.1c0.2,0,0.4,0,0.5,0.1
			c0.1,0.1,0.1,0.2,0.1,0.4L230.7,27.4z M233.7,41l0-0.2c-0.1-0.4-0.1-0.6-0.2-0.9c-0.1-0.2-0.1-0.4-0.2-0.6
			c-0.2-0.8-0.4-1.6-0.6-2.3c-0.3-1.4-0.7-2.9-1-4.3c-0.1-0.3-0.1-0.6,0-0.7c0.8-1.5,0.8-3.1,0.7-4.7c0-0.2,0-0.4,0-0.6
			c0-0.5-0.2-0.9-0.5-1.2c-0.4-0.3-1-0.5-1.8-0.3c-0.2,0-0.3,0.1-0.5,0.1c-0.3,0.1-0.6,0.1-0.9,0.1c-0.1,0-0.2,0-0.3-0.1
			c-0.2-0.1-0.5-0.2-0.8,0.1c-0.3,0.3-0.4,0.6-0.4,0.9c0,1,0,2,0.1,3.1c0,0.1,0,0.3,0,0.4c0,0.3,0.1,0.7,0,1c-0.1,1.1-0.1,2,0,2.9
			c0.3,1.8,0.5,3.8,0.2,5.8c-0.1,0.4,0,0.9,0,1.3c0.2,0.9,0.6,1.1,1.7,0.9l0.1,0l0-0.1c0.5-3,0.3-5.9,0.1-8.4l0.7,0
			c0.1,0.4,0.2,0.7,0.3,1c0.3,0.8,0.5,1.6,0.7,2.5c0.1,0.5,0.2,1,0.4,1.5c0.2,0.8,0.4,1.5,0.6,2.4c0.1,0.4,0.1,0.5,0.3,0.7l0.1,0.1
			c0.1,0.2,0.4,0.5,0.7,0.5l0.2-0.1C233.9,41.6,233.8,41.3,233.7,41z M222.7,39.4c-0.1,0.6-0.8,0.9-1.3,0.6
			c-0.5-0.3-0.6-0.7-0.7-1.5c-0.1-2.6-0.2-5.2-0.3-7.7c-0.1-1.1-0.5-2.6-0.1-3c0.4-0.4,0.8-0.4,1.2-0.4c0.4,0,0.7,0.3,0.7,0.7
			c0.2,3.5,0.4,7,0.6,10.5C222.9,38.8,222.8,39.1,222.7,39.4z M224.7,38.9c0-1.5-0.1-3-0.2-4.5c-0.2-2.8,0.4-6.3-0.7-8.4
			c-0.5-0.9-2-0.6-3.1-0.7c-1.3-0.1-1.9,0.4-2,1.7c-0.1,1,0,2.1,0,3.1c0,1.5,0,3,0,4.5c0,1.4-0.2,2.8-0.1,4.1c0.1,1.2,0.8,2.3,1.9,3
			c1.8,1.1,3.4,0.6,4.1-1.3C224.8,39.9,224.7,39.4,224.7,38.9z M213.9,27.4c-0.1,1-0.1,2.1-0.3,3.1c0,0.2-0.2,0.5-0.4,0.7l-0.1,0.1
			c-0.1,0.2-0.3,0.4-0.5,0.5l-0.1,0.1c0-0.2-0.1-0.5-0.1-0.7c-0.2-1.5-0.4-3-0.4-4.5c0.2,0,0.3,0,0.4-0.1c0.3,0,0.6-0.1,0.8-0.1
			c0.2,0,0.4,0,0.5,0.1c0.1,0.1,0.1,0.2,0.1,0.4L213.9,27.4z M217,41l0-0.2c-0.1-0.4-0.1-0.6-0.2-0.9c-0.1-0.2-0.1-0.4-0.2-0.6
			c-0.2-0.8-0.4-1.6-0.6-2.3c-0.3-1.4-0.7-2.9-1-4.3c-0.1-0.3-0.1-0.6,0-0.7c0.8-1.5,0.8-3.1,0.7-4.7c0-0.2,0-0.4,0-0.6
			c0-0.5-0.2-0.9-0.5-1.2c-0.4-0.3-1-0.5-1.8-0.3c-0.2,0-0.3,0.1-0.5,0.1c-0.3,0.1-0.6,0.1-0.9,0.1c-0.1,0-0.2,0-0.3-0.1
			c-0.2-0.1-0.5-0.2-0.8,0.1c-0.3,0.3-0.4,0.6-0.4,0.9c0,1,0,2,0.1,3.1c0,0.1,0,0.3,0,0.4c0,0.3,0.1,0.7,0,1c-0.1,1.1-0.1,2,0,2.9
			c0.3,1.8,0.5,3.8,0.2,5.8c-0.1,0.4,0,0.9,0,1.3c0.2,0.9,0.6,1.1,1.7,0.9l0.1,0l0-0.1c0.5-3,0.3-5.9,0.1-8.4l0.7,0
			c0.1,0.4,0.2,0.7,0.3,1c0.3,0.8,0.5,1.6,0.7,2.5c0.1,0.5,0.2,1,0.4,1.5c0.2,0.8,0.4,1.5,0.6,2.4c0.1,0.4,0.1,0.5,0.3,0.7l0.1,0.1
			c0.1,0.2,0.4,0.5,0.7,0.5l0.2-0.1C217.1,41.6,217,41.3,217,41z M205.8,27.4c-0.1,1-0.1,2.1-0.3,3.1c0,0.2-0.2,0.5-0.4,0.7
			l-0.1,0.1c-0.1,0.2-0.3,0.4-0.5,0.5l-0.1,0.1c0-0.2-0.1-0.5-0.1-0.7c-0.2-1.5-0.4-3-0.4-4.5c0.2,0,0.3,0,0.4-0.1
			c0.3,0,0.6-0.1,0.8-0.1c0.2,0,0.4,0,0.5,0.1c0.1,0.1,0.1,0.2,0.1,0.4L205.8,27.4z M208.8,41l0-0.2c-0.1-0.4-0.1-0.6-0.2-0.9
			c-0.1-0.2-0.1-0.4-0.2-0.6c-0.2-0.8-0.4-1.6-0.6-2.3c-0.3-1.4-0.7-2.9-1-4.3c-0.1-0.3-0.1-0.6,0-0.7c0.8-1.5,0.8-3.1,0.7-4.7
			c0-0.2,0-0.4,0-0.6c0-0.5-0.2-0.9-0.5-1.2c-0.4-0.3-1-0.5-1.8-0.3c-0.2,0-0.3,0.1-0.5,0.1c-0.3,0.1-0.6,0.1-0.9,0.1
			c-0.1,0-0.2,0-0.3-0.1c-0.2-0.1-0.5-0.2-0.8,0.1c-0.3,0.3-0.4,0.6-0.4,0.9c0,1,0,2,0.1,3.1c0,0.1,0,0.3,0,0.4c0,0.3,0.1,0.7,0,1
			c-0.1,1.1-0.1,2,0,2.9c0.3,1.8,0.5,3.8,0.2,5.8c-0.1,0.4,0,0.9,0,1.3c0.2,0.9,0.6,1.1,1.7,0.9l0.1,0l0-0.1c0.5-3,0.3-5.9,0.1-8.4
			l0.7,0c0.1,0.4,0.2,0.7,0.3,1c0.3,0.8,0.5,1.6,0.7,2.5c0.1,0.5,0.2,1,0.4,1.5c0.2,0.8,0.4,1.5,0.6,2.4c0.1,0.4,0.1,0.5,0.3,0.7
			l0.1,0.1c0.1,0.2,0.4,0.5,0.7,0.5l0.2-0.1C209,41.6,208.9,41.3,208.8,41z M199.5,24.8c-1.2-0.2-1.6,0.1-1.7,1.2
			c-0.1,2.3-0.2,4.5-0.3,6.8c0,0.6,0,1.3,0,1.9c0,1.2,0,2.3,0,3.5c0,0.8-0.1,1.5-0.1,2.3c0,1,0.1,1.5,1.1,1.5c0.9,0,0.8-3.1,0.9-4.7
			c0.1-1.9,0-3.9,0-5.8c0-0.5,0.1-1.1,0.1-1.6C199.9,28.1,199.9,26.4,199.5,24.8z M195.6,26.6c0.1-0.9-0.1-1.5-1.1-1.7
			c-0.9-0.2-1.4,0.3-1.7,1.1c-0.2,0.4-0.3,0.8-0.4,1.2c-0.3,1.2-1.3,5.4-1.7,5.4c-0.6,0-0.7-1.1-0.8-1.6c-0.5-1.6-0.9-3.2-1.5-4.8
			c-0.5-1.4-0.9-1.5-2.5-1.1c-0.1,0.9-0.3,1.8-0.2,2.7c0.2,3.9,0.3,7.8-0.4,11.7c-0.2,1.1-0.1,2.3,1.2,2.2c0.4-0.1,0.7-0.6,0.7-0.9
			c0.4-3.5,0.6-6.4,1-10.4c0.7,2.4,1.7,4.3,2.4,6.5c1.3-1.8,1.4-3,2.6-4.5c0.1,2,0.3,3.9,0.3,5.8c0,1.8-0.6,3.7,1.2,3.4
			c0.6-0.1,0.8-1.3,0.8-1.5c0.1-2,0-1,0-3.1c0-0.5-0.1-1-0.1-1.5c0-2,0-3.9,0.1-5.9C195.4,28.7,195.5,27.7,195.6,26.6z M182,22.8
			c-1.1,1.4-2,2.9-2.3,4.7c-0.3,1.7-0.5,3.5-0.7,5.3c-0.3,2.7,0.1,5.3,0.9,7.9c0.4,1.1,1,2,2,2.8c0.1-0.4,0.2-0.7,0.1-1.1
			c-0.2-1-0.6-2.1-0.8-3.1c-0.4-2.2-0.4-4.4-0.3-6.7c0.1-2.6,0.4-5.1,1.4-7.6c0.3-0.8,1-1.6,0.6-2.8C182.6,22.4,182.2,22.5,182,22.8
			z M172.7,40.2h-3.6l0-0.1c0-0.1-0.1-0.2-0.1-0.3c-0.1-1.4-0.2-2.7-0.2-4.1l-0.1-1.1c0.1-0.1,0.3-0.1,0.4-0.1
			c0.3-0.1,0.5-0.2,0.8-0.3c0.6-0.2,0.9-0.6,0.9-1.4l0-0.1h-2.1v-5.1c1.7-0.2,2.4-0.7,2.6-1.9l0-0.1l-0.1,0l0,0l-0.2-0.1
			c-1.1,0.1-1.9,0-2.7-0.3c-0.3-0.1-0.6-0.1-0.9,0.2c-0.4,0.3-0.7,0.8-0.7,1.3c0,0.1,0,0.3,0.1,0.4c0.1,0.6,0.2,1.2,0.2,1.8
			c0,0.5,0,0.9-0.1,1.4c0,0.2,0,0.4-0.1,0.7c0,0.1,0,0.3,0,0.4c0,0.3,0,0.5-0.1,0.8c-0.3,1.3-0.3,2.2,0,3.2c0.1,0.2,0.1,0.3,0.1,0.5
			l0,0.1c0,1.5,0,3.1,0.1,4.6c0,0.7,0.3,1.2,0.7,1.5c0.3,0.2,0.6,0.3,0.9,0.3c0.3,0,0.5-0.1,0.8-0.2c0.4-0.1,0.8-0.2,1.2-0.3l0.2,0
			c0.1,0,0.3,0,0.4,0c0.2,0,0.3,0,0.5,0c0.7-0.1,1.1-0.5,1-1.3L172.7,40.2z M164.4,26.6c0.1-0.9-0.1-1.5-1.1-1.7
			c-0.9-0.2-1.4,0.3-1.7,1.1c-0.2,0.4-0.3,0.8-0.4,1.2c-0.3,1.2-1.3,5.4-1.7,5.4c-0.6,0-0.7-1.1-0.8-1.6c-0.5-1.6-0.9-3.2-1.5-4.8
			c-0.5-1.4-0.9-1.5-2.5-1.1c-0.1,0.9-0.3,1.8-0.2,2.7c0.2,3.9,0.3,7.8-0.4,11.7c-0.2,1.1-0.1,2.3,1.2,2.2c0.4-0.1,0.7-0.6,0.7-0.9
			c0.4-3.5,0.6-6.4,1-10.4c0.7,2.4,1.7,4.3,2.4,6.5c1.3-1.8,1.4-3,2.6-4.5c0.1,2,0.3,3.9,0.3,5.8c0,1.8-0.6,3.7,1.2,3.4
			c0.6-0.1,0.8-1.3,0.8-1.5c0.1-2,0-1,0-3.1c0-0.5-0.1-1-0.1-1.5c0-2,0-3.9,0.1-5.9C164.3,28.7,164.3,27.7,164.4,26.6z M147,36.1
			c0-0.1,0-0.3,0-0.4c0-0.5,0-0.9,0-1.3c0.1-1.3,0.2-2.6,0.3-4l0.1-1.8c0-0.4,0.4-0.7,0.6-0.8c0.4-0.1,0.8-0.2,1.3-0.2l0.2,0.2
			c0.1,0.3,0.2,0.7,0.2,1.1c0,1.4,0.1,2.9,0.1,4.3l0,2c0,0.2,0,0.3,0,0.5l0,0.1C149,36.1,148.1,36.1,147,36.1z M151.9,39.2
			c0-0.4,0-0.9,0-1.3c0-0.8,0-1.6,0-2.5l0-1.3c0-2,0-4.1-0.1-6.1c-0.1-0.8-0.4-1.2-0.9-1.6c-0.2-0.1-0.3-0.2-0.5-0.3l-0.1-0.1
			c-0.9-0.6-1.8-0.6-2.6-0.1c-0.8,0.5-1.7,1.2-1.8,2.6c0,0.1,0,0.2-0.1,0.3l-0.1,0.2c-0.1,0.3-0.1,0.6-0.2,0.9
			c-0.2,0.8-0.4,1.6-0.4,2.4c0,1-0.1,2-0.1,3.1c0,0.5,0,1.1-0.1,1.6c0,0.1,0,0.2,0,0.3l0,0.1l0.1,1c0,0.7,0.1,1.4,0.2,2.1
			c0,0.4,0.1,0.5,0.1,0.7c0,0.1,0.1,0.2,0.1,0.4c0.1,0.3,0.4,0.6,0.6,0.6l0,0c0.2,0,0.4-0.2,0.6-0.4c0.1-0.2,0.2-0.4,0.2-0.5
			c0-0.2,0-0.3,0-0.4c0-0.1,0-0.2,0-0.5l0-2.2c0.1,0,0.3,0,0.4,0c0.4,0,0.9,0,1.3-0.1c0.4-0.1,0.8-0.2,1.2-0.4
			c0.1,0,0.2-0.1,0.3-0.1l0,0.1c0,0.2,0.1,0.4,0.1,0.7c0,0.4,0,0.7,0.1,1.1c0,0.4,0,0.9,0.1,1.3l0,0.1c0,0.4,0.1,0.9,0.4,1.2
			c0.1,0.1,0.3,0.2,0.5,0.1c0.6-0.1,0.7-0.9,0.7-1.3C151.9,40.2,151.9,39.7,151.9,39.2z M142.5,34.9c0.1-0.2,0-0.5-0.1-0.8
			c0-0.4-0.2-0.6-0.6-0.6c-0.8-0.1-2,0.5-2.5,1.4c0.5,0.1,1,0.2,1.4,0.4c-0.2,1.6-0.3,3.1-0.5,4.9c-0.3,0.1-0.6,0.2-1,0.3
			c-0.4,0.1-0.8-0.1-0.8-0.5c-0.1-0.5-0.1-1.1-0.1-1.6c0-0.2,0-0.5-0.1-0.7c-0.1-0.5-0.1-1,0-1.5c0.1-0.4,0.1-0.8,0.1-1.2
			c0-0.4-0.1-0.9,0-1.3c0.2-1.6,0-3.2,0.1-4.8c0-0.3-0.1-0.6,0-0.9c0.1-0.7,0.5-1,1.2-1.1c0.4,0,1.6,0.1,2,0
			c0.4-0.1,0.6-0.3,0.4-0.7c-0.1-0.2-0.3-0.4-0.5-0.4c-0.8-0.1-2.3-0.3-3.1-0.2c-0.3,0-0.7,0.3-0.9,0.6c-0.3,0.7-0.6,1.5-0.7,2.2
			c-0.2,1.4-0.2,2.8-0.3,4.2c0,0.6-0.1,1.1-0.1,1.7c-0.1,1.4-0.2,2.4-0.1,4.2c0.1,0.8,0,1.7,0.3,2.4c0.3,0.6,0.7,1,1.4,1
			c1.3,0.1,2.5-0.3,3.6-1.1c0.5-0.4,0.7-0.8,0.7-1.5C142.5,37.7,142.2,36.3,142.5,34.9z M129.7,25.5c-1-0.7-1.8,0.2-2.2,1.3
			c-0.1,0.2-0.2,0.5-0.3,0.7c-0.6,1.5-1.1,2.9-1.8,4.6c-0.3-0.4-0.9-1.2-1-1.5c-0.4-1.1-1-2.6-1.4-3.7c-0.3-0.9-0.9-1.4-1.6-1.1
			c-0.5,0.2-0.8,0.7-0.5,1.7c0.8,2,2.2,4.9,3.6,6.2c0.1,2.2,0.2,4.1,0.4,6.1c0.1,0.9-0.1,2.2,0.9,2.2c0.9,0,0.8-1.1,0.8-1.5
			c0.1-2.9-0.5-5.9,1.2-8.7c0.8-1.3,1-2.8,1.8-4.1C130.1,26.9,130.4,26.1,129.7,25.5z M114.4,36.1c0-0.1,0-0.3,0-0.4
			c0-0.5,0-0.9,0-1.3c0.1-1.3,0.2-2.6,0.3-4l0.1-1.8c0-0.4,0.4-0.7,0.6-0.8c0.4-0.1,0.8-0.2,1.3-0.2l0.2,0.2
			c0.1,0.3,0.2,0.7,0.2,1.1c0,1.4,0.1,2.9,0.1,4.3l0,2c0,0.2,0,0.3,0,0.5l0,0.1C116.4,36.1,115.5,36.1,114.4,36.1z M119.3,39.2
			c0-0.4,0-0.9,0-1.3c0-0.8,0-1.6,0-2.5l0-1.3c0-2,0-4.1-0.1-6.1c-0.1-0.8-0.4-1.2-0.9-1.6c-0.2-0.1-0.3-0.2-0.5-0.3l-0.1-0.1
			c-0.9-0.6-1.8-0.6-2.6-0.1c-0.8,0.5-1.7,1.2-1.8,2.6c0,0.1,0,0.2-0.1,0.3l-0.1,0.2c-0.1,0.3-0.1,0.6-0.2,0.9
			c-0.2,0.8-0.4,1.6-0.4,2.4c0,1-0.1,2-0.1,3.1c0,0.5,0,1.1-0.1,1.6c0,0.1,0,0.2,0,0.3l0,0.1l0.1,1c0,0.7,0.1,1.4,0.2,2.1
			c0,0.4,0.1,0.5,0.1,0.7c0,0.1,0.1,0.2,0.1,0.4c0.1,0.3,0.4,0.6,0.6,0.6l0,0c0.2,0,0.4-0.2,0.6-0.4c0.1-0.2,0.2-0.4,0.2-0.5
			c0-0.2,0-0.3,0-0.4c0-0.1,0-0.2,0-0.5l0-2.2c0.1,0,0.3,0,0.4,0c0.4,0,0.9,0,1.3-0.1c0.4-0.1,0.8-0.2,1.2-0.4
			c0.1,0,0.2-0.1,0.3-0.1l0,0.1c0,0.2,0.1,0.4,0.1,0.7c0,0.4,0,0.7,0.1,1.1c0,0.4,0,0.9,0.1,1.3l0,0.1c0,0.4,0.1,0.9,0.4,1.2
			c0.1,0.1,0.3,0.2,0.5,0.1c0.6-0.1,0.7-0.9,0.7-1.3C119.3,40.2,119.3,39.7,119.3,39.2z M107.5,39.4c-0.5-0.5-0.3-1.4-0.4-2.2
			c-0.1-0.6-0.1-0.9,0-1.4c0.1-1.1-0.1-2.1-0.1-3.2c0-2-0.1-4-0.1-6.1c0-0.2-0.1-0.4-0.1-0.5c-0.2-0.4-0.5-0.7-1-0.6
			c-0.6,0.1-0.6,0.5-0.6,1c0,2.6,0.2,5.3,0.1,7.9c-0.1,2,0.1,3.9,0.1,5.9c0,0.6,0.2,1.2,0.8,1.4c1.2,0.5,2.2,0,3.3-0.4
			c0.8-0.3,0.6-1.1,1-1.8C109.3,39.5,108.2,40.2,107.5,39.4z M99.4,31.3c-0.1-1.5-0.2-2.9-0.4-4.7c0.4-0.1,0.9-0.3,1.4-0.5
			C101.4,27.6,100.9,30,99.4,31.3z M102.9,26.3c-0.5-1.3-1.6-1.7-3.1-1.5c-0.8,0.1-1.6,0.3-2.6,0.5c0,1.8,0,3.6,0,5.5
			c0,1.7,0.1,3.4,0.1,5c0,1.6-0.1,3.1-0.1,4.7c0,0.5-0.1,1.2,0.3,1.6c0.1,0.1,0.6,0.1,1,0.1c0.8,0,1.2-0.2,1.2-1
			c0-0.6-0.1-1.3-0.1-1.9c0-1.8,0-3.6,0-5.3c0.3-0.2,0.8-0.2,1-0.5c1.3-1.3,2.3-2.8,2.5-4.7C103.2,28,103.2,27.1,102.9,26.3z"/>
	</g>
	<g>
		<g>
			<path class="st1" d="M54.9,30.7c-0.1,0-0.2,0-0.2,0c0.3,0.2,0.7,0.4,1.1,0.6c0.6,0.3,1.3,0.7,1.9,1c2.6,0.9,5.2,1,7.9,0.7
				c1.3-0.2,2.2-0.8,2.5-2.2c0.2-0.9,0.2-1.8-0.7-2.5c-0.4-0.3-0.8-0.8-1.2-1.2c0,0,0-0.1,0-0.1c0.4,0,0.7,0,1.1-0.1
				c0.3,0,0.6-0.1,0.8-0.2c0.7-0.3,0.7-0.4,0.7-1.1c0-0.1,0-0.3,0-0.4c-0.1-2.1,0-4.3,0.6-6.3c0.9-2.8,0.5-5.5-0.8-8.1
				c-0.4-0.8-0.8-1.5-1.1-2.3c-0.2-0.5-0.3-1.2-0.9-1.5c0,0-0.1-0.1-0.1-0.1c-1.3-1.7-3-2.9-5.1-3.4c-2.6-0.6-5.2-0.2-7.7,0.6
				c-0.1,0-0.2,0.1-0.2,0.2c-0.4,0.3-0.7,0.6-1.1,0.9c-2.1,1.5-4,3.2-5.9,5c-0.6,0.6-0.7,1.3-0.7,2c0.3,2.5,0.8,5,1.6,7.5
				c0.8,2.4,2.5,4,5.1,4.5c0.3,0.1,0.3,0.3,0.3,0.4c0,0.9,0,1.7,0,2.6c0,0.9,0.2,1.7,0.8,2.3C54.1,29.9,54.5,30.3,54.9,30.7z
				 M53.4,39.6C53.4,39.6,53.3,39.6,53.4,39.6c-1.4,0.4-2.6,0.8-3.9,1.2c-0.1,0-0.2,0-0.2,0c-1-0.2-2,0.1-2.9,0.5
				c-1,0.5-1.2,1.2-0.7,2.2c0.2,0.5,0.6,0.9,0.9,1.3c0.2,0.2,0.2,0.4,0.1,0.6c-0.5,1.5,0.4,2.7,2,2.7c0.9,0,1.6-0.4,2.3-0.9
				c2.6-1.9,5.2-3.6,8-5.1c0.2-0.1,0.4-0.1,0.7,0c2.1,1,4.1,1.9,6.2,2.8c0.8,0.3,1.3,0.7,1.3,1.6c0,0.2,0.1,0.4,0.2,0.5
				c1.2,0.9,2.6,1.4,4.2,1.3c1-0.1,1.7-0.6,2-1.5c0.2-0.6,0.3-1.2,0.4-1.8c0.5-0.2,1-0.5,1.1-1.2c0.1-1.2,0-2.5-0.5-3.6
				c-0.5-1-1.2-1.6-2.4-1.8c-1.1-0.2-2.1,0-3.1,0.3c-0.6,0.2-1.1-0.1-1.6-0.2c0.9-0.3,1.8-0.6,2.7-0.9c0.6-0.2,1.2-0.3,1.9,0
				c0.4,0.2,0.9,0.3,1.4,0.4c0.2,0,0.4,0,0.5-0.1c0.4-0.3,0.8-0.6,1.1-1c0.5-0.6,0.5-1.2,0.2-1.9c-0.2-0.4-0.6-0.8-0.9-1.2
				c-0.1-0.1-0.2-0.3-0.1-0.4c0.2-1.1-0.4-2.1-1.5-2.6c-0.9-0.4-1.9,0-2.5,0.9c-0.1,0.1-0.2,0.3-0.4,0.4C67,33.8,64,35.4,61,36.7
				c-0.3,0.1-0.5,0.1-0.8,0c-1.7-0.6-3.4-1.1-5.1-1.7c-0.4-0.1-0.9-0.3-1.3-0.5c0.5-1.6-0.5-2.8-2.2-2.5c-0.1,0-0.3,0-0.4,0
				c-1.2,0.2-1.9,0.9-2.1,2.1c0,0.3-0.1,0.5,0,0.8c0.1,0.3-0.1,0.5-0.4,0.7c-0.7,0.4-1.4,0.9-1.1,2c0.1,0.4,0.3,0.7,0.6,0.9
				c0.6,0.3,1.2,0.5,1.8,0.7C51.1,39.6,52.3,39.6,53.4,39.6z"/>
			<path d="M54.9,30.7c-0.4-0.5-0.8-0.9-1.2-1.4c-0.6-0.7-0.8-1.5-0.8-2.3c0-0.9,0-1.7,0-2.6c0-0.2,0-0.4-0.3-0.4
				c-2.6-0.5-4.2-2-5.1-4.5c-0.8-2.4-1.4-4.9-1.6-7.5c-0.1-0.7,0-1.4,0.7-2c1.9-1.8,3.8-3.5,5.9-5c0.4-0.3,0.7-0.6,1.1-0.9
				C53.7,4.1,53.7,4,53.8,4c2.5-0.9,5.1-1.3,7.7-0.6c2.1,0.5,3.7,1.8,5.1,3.4c0,0,0,0.1,0.1,0.1c0.6,0.3,0.7,1,0.9,1.5
				c0.3,0.8,0.7,1.6,1.1,2.3c1.4,2.6,1.7,5.3,0.8,8.1c-0.6,2.1-0.7,4.2-0.6,6.3c0,0.1,0,0.3,0,0.4c0,0.7-0.1,0.9-0.7,1.1
				c-0.3,0.1-0.5,0.1-0.8,0.2c-0.4,0-0.7,0-1.1,0.1c0,0,0,0.1,0,0.1c0.4,0.4,0.8,0.8,1.2,1.2c0.9,0.7,0.9,1.6,0.7,2.5
				c-0.3,1.3-1.2,2-2.5,2.2c-2.7,0.4-5.4,0.3-7.9-0.7c-0.7-0.2-1.3-0.6-1.9-1c-0.4-0.2-0.7-0.4-1.1-0.6
				C54.7,30.8,54.8,30.8,54.9,30.7z M59.1,4c-1.7,0-3.3,0.3-4.9,0.7c-0.2,0.1-0.4,0.2-0.6,0.4c-0.9,0.8-1.7,1.7-2.6,2.5
				c-0.9,0.8-1.8,1.4-2.7,2.1c-0.5,0.4-0.9,0.9-1.5,1.4c-0.3,0.2-0.3,0.4-0.3,0.7c0,1.4,0.4,2.7,0.8,4.1c0.2,0.4,0.4,0.8,0.6,1.3
				c0.3,0.6,0.5,1.2,0.7,1.8c0.3,0.8,0.6,1.6,1,2.3c0.2,0.3,0.5,0.6,0.8,0.8c0.6,0.4,1.2,0.7,1.8,0.8c0.5,0.1,1,0.2,1.5,0.2
				c0.5,0,1.1-0.1,1.6-0.2c0.2,0,0.5-0.1,0.7-0.2c0.2-0.1,0.3-0.2,0.5-0.2c1-0.1,1.9-0.5,2.8-0.9c0.4-0.2,0.6-0.1,0.9,0.1
				c0.9,0.7,1.4,1.6,1.8,2.7c0.1,0.3,0.3,0.5,0.6,0.6c1.3,0.2,2.5,0,3.7-0.5c1.2-0.5,1.7-1.4,1.7-2.7c0-0.7,0.1-1.3,0.4-2
				c0.1-0.2,0.1-0.4,0.2-0.6c0.6-2.1,0.5-4.2-0.3-6.2c-0.2-0.6-0.4-1.1-0.5-1.7c0-0.2-0.2-0.5-0.3-0.7c-0.5-0.9-1.1-1.8-1.5-2.7
				c-0.2-0.4-0.4-0.7-0.7-0.9c-0.2-0.2-0.4-0.4-0.6-0.6c-0.8-0.6-1.5-1.3-2.3-1.9c-0.3-0.2-0.6-0.4-0.9-0.5
				C60.8,4.1,59.9,4.1,59.1,4z M56.8,23.2c-0.8,0.1-1.6,0.2-2.4,0.3c-0.3,0-0.4,0.2-0.4,0.4c0,1.4-0.1,2.8-0.1,4.3
				c0,0.4,0.1,0.6,0.4,0.9c0.4,0.4,1,0.6,1.5,0.8c1.4,0.5,2.7,1,4.1,1.4c0.9,0.3,1.8,0.3,2.6,0.5c1.3,0.3,2.5,0.3,3.7-0.1
				c0.7-0.2,0.9-0.8,1-1.5c0.1-0.6-0.2-1.1-0.7-1.4c-0.4,0.2-0.5,1-1,0.7c-0.4,0.2-0.7,0.5-1.1,0.5c-0.4,0-0.7-0.1-1.1-0.2
				c0,0.1-0.1,0.2-0.3,0.3c-0.1,0.1-0.3,0.2-0.5,0.1c-0.3-0.1-0.5-0.2-0.8-0.3c-0.1-0.1-0.3-0.1-0.5-0.1c-0.4,0-0.9,0.1-1.2-0.2
				c-0.3-0.3-0.6-0.3-0.9-0.2c-0.4,0-0.9-0.3-0.9-0.7c0-0.6-0.1-1.1-0.2-1.7c0-0.2,0-0.5-0.1-0.7c-0.6-0.2-1-0.7-1.4-1.1
				c-0.1-0.1-0.1-0.3-0.1-0.5C56.6,24.2,56.7,23.7,56.8,23.2z M62.8,25.8c0.1,0.3,0.2,0.4,0.2,0.6c0,0.2,0.1,0.4,0.1,0.6
				c0,0.3,0.2,0.5,0.5,0.5c0.6,0,0.9-0.1,1-0.5c0-0.3,0-0.6-0.1-0.9c0-0.1-0.2-0.2-0.4-0.2C63.7,25.8,63.3,25.8,62.8,25.8z
				 M57.4,25.1c0.1-0.1,0.1-0.1,0.2-0.1c0.6-0.4,1.2-0.7,2-0.8c0.4,0,0.6-0.2,0.6-0.6c-1,0.1-1.9,0.4-2.7,0.8
				C57,24.6,57,24.7,57.4,25.1z M60.9,29.2c0.3,0,0.7-0.4,0.7-0.7c0-0.3-0.5-0.6-0.8-0.6c-0.2,0-0.4,0-0.4,0.3
				C60.4,28.9,60.6,29.2,60.9,29.2z M62.6,29.6c0.2-0.2,0.3-0.3,0.4-0.5c0.1-0.2,0.2-0.6,0-0.7c-0.1-0.2-0.4-0.2-0.7-0.2
				c-0.1,0-0.2,0.2-0.2,0.3c-0.1,0.2-0.1,0.5-0.1,0.8C62.2,29.3,62.4,29.5,62.6,29.6z M63.8,29.3c0.5,0.1,0.9,0,1.1-0.3
				c0.1-0.2,0-0.5-0.1-0.6c-0.2-0.1-0.5-0.1-0.7-0.1C63.5,28.6,63.8,29,63.8,29.3z M59.3,28.9c0.3,0,0.6-0.2,0.6-0.5
				c0-0.3-0.3-0.6-0.6-0.6c-0.3,0-0.6,0.2-0.6,0.6C58.7,28.7,59,28.9,59.3,28.9z M57.7,25.4c0.4,0.3,0.8,0.3,1.1,0.1
				c0.3-0.1,0.5-0.3,0.8-0.4c0.4-0.1,0.4-0.3,0.3-0.6C59.2,24.8,58.5,25.1,57.7,25.4z M58.7,26.7c0.6,0,1-0.5,1.5-0.7
				c-0.1-0.2-0.1-0.3-0.2-0.4C58.8,26.1,58.5,26.2,58.7,26.7z M66.4,25.2c-0.5,0.2-1,0.3-1.5,0.4c-0.1,0.5,0.3,0.5,0.6,0.5
				C66,26.1,66.4,25.8,66.4,25.2z M66.9,25.1c0.2,0.3,0.3,0.5,0.5,0.7c0.1,0.1,0.4-0.1,0.5-0.3c0.2-0.2,0.1-0.5-0.1-0.7
				C67.5,24.9,67.3,25,66.9,25.1z M65.6,28.9c0.1-0.1,0.1-0.2,0.2-0.2c0.1-0.2,0.2-0.3,0.1-0.5c-0.1-0.1-0.3-0.2-0.5-0.3
				c-0.1,0.1-0.2,0.2-0.2,0.3C65.3,28.4,65.4,28.6,65.6,28.9z"/>
			<path class="st2" d="M53.4,39.6c-1.1,0-2.3,0-3.3-0.4c-0.6-0.2-1.2-0.5-1.8-0.7c-0.4-0.2-0.5-0.5-0.6-0.9c-0.3-1.1,0.4-1.5,1.1-2
				c0.3-0.2,0.4-0.3,0.4-0.7c0-0.3,0-0.5,0-0.8c0.1-1.2,0.9-1.9,2.1-2.1c0.1,0,0.3,0,0.4,0c1.6-0.3,2.7,1,2.2,2.5
				c0.4,0.2,0.8,0.4,1.3,0.5c1.7,0.6,3.4,1.1,5.1,1.7c0.3,0.1,0.5,0.1,0.8,0c3.1-1.4,6-2.9,8.9-4.6c0.1-0.1,0.3-0.2,0.4-0.4
				c0.6-0.9,1.6-1.3,2.5-0.9c1.1,0.5,1.7,1.6,1.5,2.6c0,0.1,0,0.3,0.1,0.4c0.3,0.4,0.6,0.8,0.9,1.2c0.3,0.6,0.3,1.3-0.2,1.9
				c-0.3,0.4-0.7,0.7-1.1,1c-0.1,0.1-0.3,0.1-0.5,0.1c-0.5-0.1-0.9-0.2-1.4-0.4c-0.6-0.3-1.2-0.2-1.9,0c-0.9,0.3-1.8,0.6-2.7,0.9
				c0.5,0.1,1,0.4,1.6,0.2c1-0.3,2-0.5,3.1-0.3c1.1,0.2,1.9,0.8,2.4,1.8c0.5,1.1,0.6,2.4,0.5,3.6c-0.1,0.7-0.6,1-1.1,1.2
				c-0.1,0.6-0.2,1.3-0.4,1.8c-0.3,0.9-1,1.4-2,1.5c-1.6,0.1-3-0.4-4.2-1.3c-0.1-0.1-0.2-0.3-0.2-0.5c-0.1-0.9-0.5-1.3-1.3-1.6
				c-2.1-0.9-4.2-1.9-6.2-2.8c-0.2-0.1-0.4-0.1-0.7,0c-2.8,1.5-5.4,3.2-8,5.1c-0.7,0.5-1.4,0.9-2.3,0.9c-1.6,0-2.5-1.2-2-2.7
				c0.1-0.3,0-0.4-0.1-0.6c-0.3-0.4-0.7-0.8-0.9-1.3c-0.5-0.9-0.2-1.7,0.7-2.2c0.9-0.4,1.8-0.7,2.9-0.5c0.1,0,0.2,0,0.2,0
				C50.8,40.4,52,40,53.4,39.6C53.3,39.6,53.4,39.6,53.4,39.6z M49.1,44.8c0,0,0,0.1,0,0.1c-0.3,0.1-0.5,0.3-0.8,0.3
				c-0.4,0-0.7,0.1-0.8,0.5c0,0.2-0.1,0.4-0.2,0.5c0,0.1-0.1,0.2,0,0.3c0.2,0.2,0.5,0.5,0.8,0.7c0.6,0.3,1.1,0.1,1.7,0
				c0.4-0.1,0.8-0.3,0.7-0.9c0-0.1,0-0.1,0.1-0.2c0.1-0.2,0.3-0.5,0.4-0.7c0.5-0.8,1.1-1.4,2-1.8c3.2-1.3,6.4-2.7,9.6-4.1
				c0.2-0.1,0.5-0.1,0.8-0.2c0.6-0.2,1.2-0.4,1.9-0.6c0.2-0.1,0.3-0.2,0.5-0.2c1.3-0.5,2.5-1,3.8-1.5c0.2-0.1,0.5-0.1,0.7-0.2
				c0.1,0,0.3-0.1,0.4-0.2c0.4-0.3,0.5-0.3,1,0c0.2,0.2,0.5,0.3,0.8,0.4c0.3,0.1,0.6,0.1,0.8,0.2c0.3,0,0.6,0.1,0.9,0
				c0.5-0.1,1.1-0.9,1-1.4c-0.1-0.4-0.3-0.8-0.5-1.2c0-0.1-0.2-0.1-0.3-0.2c-0.1,0-0.3,0-0.5-0.1c-0.2,0.1-0.5,0.3-0.8,0.5
				c-0.2-0.5-0.1-0.7,0.2-1.1c0.2-0.3,0.4-0.6,0.6-1c0.2-0.3,0.2-0.7,0-1c-0.3-0.3-0.7-0.6-1.1-0.6c-0.8,0.1-1.4,0.5-1.7,1.1
				c-0.6,1.3-1.8,2-3,2.5c-0.3,0.1-0.7,0.2-1,0.3c-1.6,0.6-3.1,1.3-4.7,1.9c-0.8,0.3-1.7,0.6-2.5,0.9c-0.6,0.2-1.2,0.5-1.7,0.8
				c0,0,0,0.1,0,0.1c0.2-0.1,0.4-0.1,0.6-0.2c-0.8,0.8-1.7,1.2-2.7,1.4c-0.2,0-0.5,0.1-0.7,0.1c-1.5,0.6-2.9,1.2-4.4,1.8
				c-0.1,0-0.2,0.1-0.3,0.1c0,0,0-0.1,0-0.1c0.3-0.2,0.7-0.4,1-0.6c0.3-0.2,0.6-0.3,1-0.3c0.2,0,0.5-0.1,0.7-0.2
				c0.2-0.1,0.3-0.2,0.4-0.3c0.5-0.2,1.1-0.4,1.6-0.6c-0.7,0.1-1.4,0.2-2.1,0.4c-1,0.3-2,0.7-3.1,1c-0.1,0-0.3,0.1-0.4,0.1
				c-0.8-0.2-1.6-0.1-2.3,0.4c-0.2,0.1-0.5,0.3-0.8,0.4c0,0.4,0.1,0.8,0.1,1.2c0,0.1,0.2,0.2,0.3,0.3c0.2,0.1,0.3,0.2,0.5,0.2
				c0.5,0.2,1,0.3,1.5,0.5C48.7,44.6,48.9,44.7,49.1,44.8z M60.1,41.6c0.2,0.1,0.3,0.1,0.4,0.2c2.3,0.9,4.5,1.8,6.8,2.7
				c0.2,0.1,0.4,0.2,0.4,0.5c0.1,0.4,0.2,0.8,0.3,1.2c0,0.1,0.1,0.3,0.2,0.3c0.6,0.3,1.2,0.8,1.8,1c0.9,0.4,1.7,0,2.4-0.4
				c0.5-0.3,0.7-0.8,0.4-1.4c-0.2-0.4-0.4-0.7-0.6-1.1c-0.1-0.1-0.2-0.3-0.1-0.4c0.1-0.1,0.3-0.2,0.4-0.2c0.4,0,0.8,0,1.2,0.1
				c0.6,0,0.7-0.1,0.8-0.6c0-0.1,0.1-0.2,0-0.3c0-1-0.2-2-0.8-2.9c-0.5-0.8-1.2-1.2-2.1-1.1c-1.1,0.1-2,0.6-2.9,1.1
				c-0.1,0-0.1,0.2-0.1,0.4c0.1,0.5,0.3,1,0.4,1.5c-0.7,0.3-0.7,0.3-1-0.2c-0.4-0.6-0.6-1.3-0.5-2c0-0.1,0-0.2,0-0.3
				c-0.4-0.1-0.7-0.1-1.1-0.2c-0.7-0.2-1.3-0.1-1.9,0.2c-0.4,0.2-0.8,0.3-1.2,0.5c0.5,0.3,1.2,0.3,1.6,0.7c-0.1,0-0.2,0-0.3,0
				c-0.5-0.1-1-0.3-1.5-0.4c-0.1,0-0.3-0.1-0.4,0C62,40.7,61.1,41.1,60.1,41.6z M59.2,37.5c-2-0.6-3.9-1.2-5.8-1.8
				c-0.4-0.1-0.6-0.6-0.6-1c0-0.2,0.1-0.4,0.1-0.5c0.2-0.6,0-1-0.4-1.3c-0.2-0.2-0.5-0.3-0.8-0.5c-0.3-0.1-1.2,0.2-1.3,0.5
				c-0.5,0.8-0.4,1.7,0.2,2.4c0.1,0.1,0.2,0.2,0.3,0.3c-1.3,0.1-2,0.6-2.3,1.7c0,0,0.1,0.1,0.1,0.1c1.8,0.6,3.5,1.2,5.3,1.8
				c0.1,0,0.3,0,0.4,0c0.6-0.2,1.2-0.4,1.9-0.7C57.2,38.3,58.2,37.9,59.2,37.5z"/>
			<path class="st1" d="M59.3,4c0.8,0.1,1.7,0.1,2.5,0.3c0.3,0.1,0.6,0.3,0.9,0.5c0.8,0.6,1.6,1.3,2.3,1.9c0.2,0.2,0.4,0.4,0.6,0.6
				c0.3,0.2,0.5,0.5,0.7,0.9c0.5,0.9,1,1.8,1.5,2.7c0.1,0.2,0.3,0.5,0.3,0.7c0.1,0.6,0.2,1.1,0.5,1.7c0.9,2,1,4.1,0.3,6.2
				c-0.1,0.2-0.1,0.4-0.2,0.6c-0.3,0.6-0.4,1.3-0.4,2c0,1.3-0.5,2.1-1.7,2.7c-1.2,0.5-2.4,0.7-3.7,0.5c-0.4-0.1-0.5-0.3-0.6-0.6
				c-0.3-1.1-0.8-2-1.8-2.7c-0.3-0.2-0.5-0.3-0.9-0.1c-0.9,0.4-1.8,0.8-2.8,0.9c-0.2,0-0.3,0.1-0.5,0.2c-0.2,0.1-0.5,0.2-0.7,0.2
				c-0.5,0.1-1.1,0.2-1.6,0.2c-0.5,0-1-0.1-1.5-0.2c-0.7-0.1-1.3-0.4-1.8-0.8c-0.3-0.2-0.6-0.5-0.8-0.8c-0.4-0.8-0.7-1.6-1-2.3
				c-0.2-0.6-0.4-1.2-0.7-1.8c-0.2-0.4-0.5-0.8-0.6-1.3c-0.5-1.3-0.9-2.6-0.8-4.1c0-0.3,0-0.5,0.3-0.7c0.5-0.4,1-0.9,1.5-1.4
				c0.9-0.7,1.8-1.4,2.7-2.1c0.9-0.8,1.7-1.6,2.6-2.5c0.2-0.2,0.4-0.3,0.6-0.4C56.1,4.3,57.7,4,59.3,4z M56.6,13.7
				c-0.3-0.1-0.5-0.1-0.8-0.2c-0.1,0-0.3,0-0.3,0.1c-0.6,0.6-1.1,1.2-0.9,2.2c0.1,0.6,0.2,1.1,0.3,1.7c0,0.2,0.2,0.4,0.4,0.4
				c1.4,0.8,2.9,0.9,4.5,0.5c1.3-0.3,2.1-1.2,2.4-2.5c0.1-0.3,0-0.4-0.2-0.6c-0.8-0.4-1.5-1-2.2-1.4c-0.6-0.3-1.1-0.6-1.7-0.8
				c-0.5-0.2-1-0.2-1.6,0c0.2,0.1,0.4,0.1,0.6,0.1C56.8,13.4,56.7,13.6,56.6,13.7z M65.4,11.4c-0.5-0.1-1,0.2-1.2,0.6
				c-0.3,0.6-0.5,1.2-0.7,1.8c-0.2,0.6,0,1,0.5,1.3c0.4,0.2,0.9,0.5,1.3,0.5c0.9,0,1.8-0.2,2.6-0.4c0.3,0,0.4-0.2,0.4-0.5
				c0.1-0.7,0-1.4-0.6-2c-0.4-0.4-0.9-0.8-1.4-1.1c0.1,0.2,0.2,0.3,0.3,0.5c-0.1,0.1-0.2,0.2-0.2,0.2c-0.5-0.2-1-0.5-1.5-0.7
				C65.1,11.6,65.2,11.5,65.4,11.4z M67.1,10.3c0,0,0.1-0.1,0.1-0.1c0-0.2,0-0.4-0.1-0.5c-0.6-0.4-1.2-0.9-1.8-1.2
				c-1.3-0.6-2.3,0-3.1,1c-0.1,0.1,0,0.2,0,0.3c0.1,0,0.3,0,0.3-0.1c0.2-0.2,0.3-0.3,0.5-0.5c0.3-0.3,0.6-0.5,1.1-0.3
				c1,0.2,1.9,0.6,2.7,1.2C66.8,10.2,67,10.3,67.1,10.3z M60,11.3c-0.1,0-0.1-0.1-0.1-0.1c-1.5-0.6-3.1-1-4.8-1
				c-0.1,0-0.2,0.1-0.3,0.1c0.1,0.1,0.2,0.2,0.3,0.2c0.6,0.1,1.1,0.2,1.7,0.3c0.7,0.2,1.3,0.5,2,0.7C59.1,11.8,59.6,11.7,60,11.3z
				 M64.9,20.6c0-0.7-0.2-1.2-0.6-1.8c-0.1-0.2-0.3-0.2-0.4,0c-0.2,0.8-0.5,1.6-0.1,2.4c0,0.1,0.2,0.2,0.3,0.2
				C64.6,21.5,64.8,21.3,64.9,20.6z M65,19.2c0,0-0.1,0-0.1,0c0.2,0.5,0.4,1,0.6,1.4c0.1,0.2,0.4,0.2,0.6,0.2c0.1,0,0.2-0.3,0.2-0.5
				c0-0.6-0.2-1.2-0.5-1.6c-0.1-0.1-0.3-0.2-0.4-0.3c-0.1,0.2-0.2,0.3-0.3,0.5C65,19,65,19.1,65,19.2z M53.2,17.7
				c-0.3-1.3-0.6-2.6-0.9-3.9C51.7,14.8,52.2,16.8,53.2,17.7z M54.2,10.8c-0.7,0.4-1.2,0.9-1.4,1.7C53.5,12.1,54,11.6,54.2,10.8z"/>
			<path class="st1" d="M56.8,23.2c-0.1,0.5-0.2,1-0.2,1.5c0,0.2,0,0.4,0.1,0.5c0.4,0.4,0.8,0.9,1.4,1.1c0,0.2,0,0.5,0.1,0.7
				c0.1,0.6,0.3,1.1,0.2,1.7c0,0.4,0.5,0.8,0.9,0.7c0.3,0,0.6,0,0.9,0.2c0.3,0.2,0.8,0.1,1.2,0.2c0.2,0,0.3,0,0.5,0.1
				c0.3,0.1,0.5,0.3,0.8,0.3c0.1,0,0.3-0.1,0.5-0.1c0.1-0.1,0.2-0.2,0.3-0.3c0.4,0.1,0.8,0.3,1.1,0.2c0.4,0,0.7-0.3,1.1-0.5
				c0.5,0.3,0.6-0.5,1-0.7c0.5,0.3,0.8,0.8,0.7,1.4c-0.1,0.6-0.3,1.2-1,1.5c-1.2,0.4-2.5,0.4-3.7,0.1c-0.9-0.2-1.8-0.3-2.6-0.5
				c-1.4-0.4-2.7-0.9-4.1-1.4c-0.5-0.2-1.1-0.4-1.5-0.8c-0.3-0.3-0.4-0.5-0.4-0.9c0.1-1.4,0.1-2.8,0.1-4.3c0-0.3,0.1-0.4,0.4-0.4
				C55.2,23.4,56,23.3,56.8,23.2z"/>
			<path class="st1" d="M62.8,25.8c0.5,0,0.9,0,1.2,0.1c0.1,0,0.3,0.1,0.4,0.2c0.1,0.3,0.1,0.6,0.1,0.9c0,0.4-0.4,0.6-1,0.5
				c-0.3,0-0.4-0.2-0.5-0.5c0-0.2-0.1-0.4-0.1-0.6C63,26.2,62.9,26,62.8,25.8z"/>
			<path class="st1" d="M57.4,25.1c-0.4-0.4-0.3-0.5,0-0.7c0.8-0.4,1.7-0.7,2.7-0.8c0,0.4-0.1,0.5-0.6,0.6c-0.7,0.1-1.4,0.4-2,0.8
				C57.5,25,57.4,25,57.4,25.1z"/>
			<path class="st1" d="M60.9,29.2c-0.3,0-0.5-0.3-0.5-1c0-0.3,0.2-0.3,0.4-0.3c0.4,0,0.8,0.3,0.8,0.6
				C61.6,28.9,61.2,29.2,60.9,29.2z"/>
			<path class="st1" d="M62.6,29.6c-0.2-0.2-0.4-0.3-0.6-0.4c0-0.3,0.1-0.5,0.1-0.8c0-0.1,0.2-0.3,0.2-0.3c0.2,0,0.6,0.1,0.7,0.2
				c0.1,0.2,0,0.5,0,0.7C63,29.3,62.8,29.5,62.6,29.6z"/>
			<path class="st1" d="M63.8,29.3c0-0.3-0.3-0.8,0.2-0.9c0.2-0.1,0.5-0.1,0.7,0.1c0.1,0.1,0.2,0.4,0.1,0.6
				C64.8,29.4,64.3,29.5,63.8,29.3z"/>
			<path class="st1" d="M59.3,28.9c-0.3,0-0.6-0.2-0.6-0.6c0-0.3,0.3-0.6,0.6-0.6c0.3,0,0.6,0.3,0.6,0.6
				C59.9,28.7,59.7,28.9,59.3,28.9z"/>
			<path class="st1" d="M57.7,25.4c0.8-0.3,1.5-0.6,2.2-0.8c0.1,0.3,0,0.5-0.3,0.6c-0.3,0.1-0.5,0.2-0.8,0.4
				C58.5,25.7,58.1,25.6,57.7,25.4z"/>
			<path class="st1" d="M58.7,26.7c-0.2-0.6,0.2-0.7,1.3-1.1c0.1,0.1,0.1,0.3,0.2,0.4C59.7,26.3,59.3,26.7,58.7,26.7z"/>
			<path class="st1" d="M66.4,25.2c0,0.6-0.4,0.9-0.9,0.9c-0.3,0-0.6,0-0.6-0.5C65.4,25.5,65.9,25.4,66.4,25.2z"/>
			<path class="st1" d="M66.9,25.1c0.4-0.1,0.6-0.2,0.9-0.3c0.1,0.2,0.3,0.4,0.1,0.7c-0.1,0.1-0.5,0.3-0.5,0.3
				C67.2,25.6,67,25.4,66.9,25.1z"/>
			<path class="st1" d="M65.6,28.9c-0.1-0.3-0.3-0.5-0.4-0.8c0-0.1,0.1-0.2,0.2-0.3c0.2,0.1,0.4,0.2,0.5,0.3
				c0.2,0.2,0.1,0.3-0.1,0.5C65.7,28.8,65.7,28.8,65.6,28.9z"/>
			<path class="st1" d="M49.1,44.8c-0.2-0.1-0.4-0.2-0.5-0.3c-0.5-0.2-1-0.3-1.5-0.5c-0.2-0.1-0.4-0.1-0.5-0.2
				c-0.1-0.1-0.2-0.2-0.3-0.3c-0.1-0.4-0.1-0.8-0.1-1.2c0.3-0.2,0.6-0.3,0.8-0.4c0.7-0.4,1.5-0.6,2.3-0.4c0.1,0,0.3,0,0.4-0.1
				c1-0.3,2-0.7,3.1-1c0.7-0.2,1.4-0.3,2.1-0.4c-0.5,0.2-1.1,0.4-1.6,0.6c-0.2,0.1-0.3,0.2-0.4,0.3c-0.2,0.1-0.5,0.2-0.7,0.2
				c-0.4,0-0.7,0.1-1,0.3c-0.3,0.2-0.6,0.4-1,0.6c0,0,0,0.1,0,0.1c0.1,0,0.2-0.1,0.3-0.1c1.5-0.6,2.9-1.2,4.4-1.8
				c0.2-0.1,0.5-0.1,0.7-0.1c1-0.2,2-0.6,2.7-1.4c-0.2,0.1-0.4,0.1-0.6,0.2c0,0,0-0.1,0-0.1c0.6-0.3,1.2-0.6,1.7-0.8
				c0.8-0.3,1.7-0.6,2.5-0.9c1.6-0.6,3.1-1.3,4.7-1.9c0.3-0.1,0.7-0.2,1-0.3c1.3-0.5,2.4-1.2,3-2.5c0.3-0.7,0.9-1.1,1.7-1.1
				c0.5,0,0.9,0.2,1.1,0.6c0.3,0.3,0.2,0.7,0,1c-0.2,0.3-0.4,0.7-0.6,1c-0.3,0.4-0.4,0.6-0.2,1.1c0.3-0.2,0.6-0.4,0.8-0.5
				c0.2,0,0.4,0,0.5,0.1c0.1,0,0.3,0.1,0.3,0.2c0.2,0.4,0.4,0.8,0.5,1.2c0.1,0.5-0.5,1.3-1,1.4c-0.3,0-0.6,0-0.9,0
				c-0.3,0-0.6-0.1-0.8-0.2c-0.3-0.1-0.5-0.2-0.8-0.4c-0.4-0.3-0.6-0.3-1,0c-0.1,0.1-0.3,0.1-0.4,0.2c-0.2,0.1-0.5,0.1-0.7,0.2
				c-1.3,0.5-2.5,1-3.8,1.5c-0.2,0.1-0.3,0.2-0.5,0.2c-0.6,0.2-1.2,0.4-1.9,0.6c-0.3,0.1-0.5,0.1-0.8,0.2c-3.2,1.4-6.4,2.7-9.6,4.1
				c-0.9,0.4-1.5,1-2,1.8c-0.1,0.2-0.3,0.5-0.4,0.7c0,0.1-0.1,0.1-0.1,0.2c0.1,0.5-0.3,0.7-0.7,0.9c-0.6,0.2-1.1,0.4-1.7,0
				c-0.3-0.2-0.5-0.5-0.8-0.7c0,0,0-0.2,0-0.3c0.1-0.2,0.1-0.4,0.2-0.5c0.1-0.4,0.3-0.6,0.8-0.5c0.2,0,0.5-0.2,0.8-0.3
				C49,44.9,49.1,44.9,49.1,44.8z M67.6,36c-1.4,0-3.8,0.9-4.2,1.6C64.9,37.3,66.2,36.8,67.6,36z"/>
			<path class="st1" d="M60.1,41.6c1-0.5,1.9-0.9,2.8-1.3c0.1,0,0.2,0,0.4,0c0.5,0.1,1,0.3,1.5,0.4c0.1,0,0.2,0,0.3,0
				c-0.4-0.4-1-0.4-1.6-0.7c0.4-0.2,0.8-0.3,1.2-0.5c0.6-0.3,1.2-0.4,1.9-0.2c0.3,0.1,0.7,0.2,1.1,0.2c0,0.1,0,0.2,0,0.3
				c-0.1,0.7,0,1.4,0.5,2c0.3,0.5,0.3,0.5,1,0.2c-0.1-0.5-0.3-1-0.4-1.5c0-0.1,0-0.3,0.1-0.4c0.9-0.6,1.8-1,2.9-1.1
				c0.9-0.1,1.6,0.3,2.1,1.1c0.5,0.9,0.7,1.9,0.8,2.9c0,0.1,0,0.2,0,0.3C74.4,44,74.3,44,73.7,44c-0.4,0-0.8-0.1-1.2-0.1
				c-0.1,0-0.4,0.1-0.4,0.2c-0.1,0.1,0,0.3,0.1,0.4c0.2,0.4,0.5,0.7,0.6,1.1c0.2,0.5,0.1,1-0.4,1.4c-0.7,0.4-1.5,0.8-2.4,0.4
				c-0.7-0.3-1.2-0.7-1.8-1c-0.1,0-0.2-0.2-0.2-0.3c-0.1-0.4-0.2-0.8-0.3-1.2c0-0.3-0.2-0.4-0.4-0.5c-2.3-0.9-4.5-1.8-6.8-2.7
				C60.4,41.7,60.3,41.6,60.1,41.6z M66.2,39.7c0,0,0,0.1,0,0.1c0.4,0.2,0.8,0.3,1.3,0.5C67.2,39.8,66.7,39.6,66.2,39.7z"/>
			<path class="st1" d="M59.2,37.5c-1,0.4-2,0.8-3,1.1c-0.6,0.2-1.2,0.4-1.9,0.7c-0.1,0-0.3,0.1-0.4,0c-1.8-0.6-3.5-1.2-5.3-1.8
				c0,0-0.1,0-0.1-0.1c0.3-1.1,1-1.6,2.3-1.7c-0.1-0.1-0.2-0.2-0.3-0.3c-0.6-0.7-0.7-1.6-0.2-2.4c0.2-0.3,1-0.6,1.3-0.5
				c0.3,0.1,0.6,0.3,0.8,0.5c0.4,0.3,0.7,0.7,0.4,1.3c-0.1,0.2-0.1,0.3-0.1,0.5c-0.1,0.4,0.2,0.9,0.6,1
				C55.3,36.3,57.2,36.9,59.2,37.5z"/>
			<path d="M56.4,13.7c0.1-0.2,0.2-0.3,0.2-0.5c-0.2,0-0.3-0.1-0.6-0.1c0.6-0.2,1.1-0.2,1.6,0c0.6,0.2,1.2,0.5,1.7,0.8
				c0.8,0.4,1.5,1,2.2,1.4c0.3,0.2,0.3,0.3,0.2,0.6c-0.3,1.3-1.1,2.1-2.4,2.5c-1.5,0.4-3,0.3-4.5-0.5c-0.2-0.1-0.3-0.3-0.4-0.4
				c-0.1-0.6-0.2-1.1-0.3-1.7c-0.1-0.9,0.4-1.5,0.9-2.2c0.1-0.1,0.2-0.1,0.3-0.1C55.9,13.6,56.1,13.7,56.4,13.7z M60,15.8
				c0.4-0.1,0.7-0.1,1.2-0.2c-1-0.5-1.9-1-2.8-1.5c-0.1,0-0.2,0-0.3,0C58.9,14.6,59.6,15,60,15.8z M61.5,16
				c-1.4,0.2-1.5,0.1-1.5,0.5C60.8,16.9,61.6,16.6,61.5,16z M57,13.8c0.3,0.1,0.6,0.3,0.8-0.1C57.5,13.6,57.2,13.3,57,13.8z
				 M60.2,17.1c-0.5-0.2-0.7-0.1-0.7,0.5C59.7,17.4,59.9,17.2,60.2,17.1z"/>
			<path d="M65.1,11.4c-0.1,0.1-0.3,0.1-0.5,0.3c0.5,0.2,1,0.5,1.5,0.7c0,0,0.1-0.1,0.2-0.2c-0.1-0.2-0.2-0.3-0.3-0.5
				c0.6,0.3,1,0.6,1.4,1.1c0.6,0.6,0.6,1.2,0.6,2c0,0.3-0.1,0.5-0.4,0.5c-0.9,0.1-1.8,0.3-2.6,0.4c-0.4,0-0.9-0.2-1.3-0.5
				c-0.5-0.3-0.7-0.7-0.5-1.3c0.2-0.6,0.4-1.2,0.7-1.8C64.2,11.6,64.6,11.3,65.1,11.4z M67.4,13.6c0,0-0.1,0-0.1,0
				c-0.2,0.1-0.3,0.2-0.5,0.3c-0.1,0-0.1,0.2-0.1,0.2c0,0,0.1,0.1,0.2,0.1c0.2-0.1,0.4-0.2,0.5-0.3C67.4,13.9,67.4,13.7,67.4,13.6z
				 M67,13.1c-0.1-0.1-0.1-0.2-0.2-0.5c-0.1,0.2-0.1,0.3-0.2,0.5c0,0.1,0.1,0.1,0.1,0.2C66.8,13.2,66.9,13.1,67,13.1z"/>
			<path d="M66.8,10.3c-0.1-0.1-0.3-0.1-0.4-0.2c-0.8-0.6-1.7-1-2.7-1.2c-0.5-0.1-0.8,0-1.1,0.3c-0.2,0.2-0.3,0.4-0.5,0.5
				c-0.1,0.1-0.2,0-0.3,0.1c0-0.1,0-0.3,0-0.3c0.8-0.9,1.8-1.5,3.1-1c0.7,0.3,1.2,0.8,1.8,1.2c0.1,0.1,0.1,0.3,0.1,0.5
				C66.9,10.3,66.9,10.3,66.8,10.3z"/>
			<path d="M59.7,11.3c-0.4,0.4-0.8,0.4-1.3,0.3c-0.7-0.2-1.3-0.5-2-0.7c-0.5-0.2-1.1-0.2-1.7-0.3c-0.1,0-0.2-0.1-0.3-0.2
				c0.1-0.1,0.2-0.1,0.3-0.1c1.7,0,3.2,0.4,4.8,1C59.6,11.3,59.7,11.3,59.7,11.3z"/>
			<path d="M64.6,20.6c0,0.7-0.2,1-0.8,0.9c-0.1,0-0.2-0.1-0.3-0.2c-0.4-0.8-0.2-1.6,0.1-2.4c0.1-0.2,0.3-0.2,0.4,0
				C64.4,19.3,64.6,19.9,64.6,20.6z M64,20c0,0-0.1,0-0.1,0c0,0.2,0.1,0.5,0.1,0.7c0,0,0.1,0,0.1,0C64.2,20.5,64.2,20.3,64,20z"/>
			<path d="M64.8,19.2c0-0.1,0-0.2,0-0.3c0.1-0.2,0.2-0.3,0.3-0.5c0.1,0.1,0.3,0.2,0.4,0.3c0.4,0.5,0.6,1,0.5,1.6
				c0,0.2-0.1,0.5-0.2,0.5c-0.2,0-0.5-0.1-0.6-0.2c-0.3-0.4-0.4-0.9-0.6-1.4C64.7,19.2,64.8,19.2,64.8,19.2z"/>
			<path d="M53,17.7c-1-0.9-1.5-2.9-0.9-3.9C52.3,15.1,52.6,16.4,53,17.7z"/>
			<path d="M53.9,10.8c-0.2,0.8-0.7,1.3-1.4,1.7C52.7,11.7,53.2,11.2,53.9,10.8z"/>
			<path d="M67.6,36c-1.4,0.8-2.7,1.3-4.2,1.6C63.8,37,66.2,36.1,67.6,36z"/>
			<path d="M66.2,39.7c0.5-0.1,0.9,0.1,1.2,0.6c-0.4-0.2-0.8-0.3-1.3-0.5C66.2,39.8,66.2,39.8,66.2,39.7z"/>
			<path class="st1" d="M60,15.8c-0.4-0.9-1.2-1.3-1.9-1.8c0.1,0,0.2,0,0.3,0c0.9,0.5,1.8,1,2.8,1.5C60.8,15.7,60.4,15.8,60,15.8z"
				/>
			<path class="st1" d="M61.5,16c0,0.6-0.7,0.9-1.5,0.5C60.1,16.1,60.1,16.2,61.5,16z"/>
			<path class="st1" d="M57,13.8c0.2-0.5,0.5-0.2,0.8-0.1C57.5,14.1,57.3,13.9,57,13.8z"/>
			<path class="st1" d="M60.2,17.1c-0.3,0.2-0.5,0.3-0.7,0.5C59.5,17,59.6,16.9,60.2,17.1z"/>
			<path class="st1" d="M67.4,13.6c0,0.1,0.1,0.3,0,0.4c-0.1,0.1-0.3,0.2-0.5,0.3c0,0-0.1-0.1-0.2-0.1c0-0.1,0-0.2,0.1-0.2
				c0.1-0.1,0.3-0.2,0.5-0.3C67.3,13.6,67.4,13.6,67.4,13.6z"/>
			<path class="st1" d="M67,13.1c-0.1,0.1-0.2,0.1-0.3,0.2c-0.1-0.1-0.1-0.2-0.1-0.2c0-0.1,0.1-0.2,0.2-0.5
				C66.8,12.8,66.9,12.9,67,13.1z"/>
			<path class="st1" d="M64,20c0.2,0.2,0.2,0.5,0.1,0.7c0,0-0.1,0-0.1,0c0-0.2-0.1-0.5-0.1-0.7C63.9,20.1,64,20.1,64,20z"/>
		</g>
	</g>
</g>
</svg>
