<?xml version="1.0" encoding="utf-8"?>
<!-- Generator: Adobe Illustrator 25.4.1, SVG Export Plug-In . SVG Version: 6.00 Build 0)  -->
<svg version="1.1" id="Layer_1" xmlns="http://www.w3.org/2000/svg" xmlns:xlink="http://www.w3.org/1999/xlink" x="0px" y="0px"
	 viewBox="0 0 297 185.1" style="enable-background:new 0 0 297 185.1;" xml:space="preserve">
<style type="text/css">
	.st0{fill:#665A38;}
	.st1{fill:#E92729;stroke:#000000;stroke-width:3.5;stroke-miterlimit:10;}
	.st2{fill:#F9AA8F;}
	.st3{fill:#8F181B;}
	.st4{fill:#4F4F51;}
	.st5{fill:#8A8C8E;}
	.st6{fill:#CFD1D2;}
	.st7{fill:none;}
	.st8{fill:#FFFFFF;}
</style>
<g>
	<path class="st0" d="M63.3,18.4c9.2-3.3,100.7-37.9,177,3.1"/>
	<path d="M63.8,19.6c1.5-0.5,5-1.8,10.2-3.5c15.5-5,46.1-13.2,81.3-13.2c27,0,56.8,4.9,84.5,19.7l1.3-2.4
		c-28.2-15.1-58.4-20-85.7-20c-23.7,0-45.3,3.7-61.7,7.6c-8.2,2-15.1,4-20.4,5.7c-5.2,1.7-8.8,3-10.3,3.5L63.8,19.6L63.8,19.6z"/>
	<path d="M63.5,19.9c1.4-0.5,4.9-1.8,9.9-3.4C88.6,11.7,118.6,3.7,153,3.7c26.5,0,55.6,4.7,82.7,19.2l1.3-2.4
		C209.3,5.8,179.8,1,153,1c-23.2,0-44.4,3.6-60.4,7.4c-8,1.9-14.8,3.9-19.9,5.5s-8.6,2.9-10,3.4L63.5,19.9L63.5,19.9z"/>
	<path class="st0" d="M295.7,92.8c0-50.2-65.9-91.5-147.2-91.5C67.2,1.3,1.3,42.6,1.3,92.8s65.9,91,147.2,91S295.7,143.1,295.7,92.8
		z"/>
	<path d="M295.7,92.8h1.3c0-12.9-4.2-25.1-11.8-36.2c-11.4-16.7-30.2-30.8-53.9-40.8S179.2,0,148.5,0C107.6,0,70.6,10.4,43.7,27.1
		c-13.4,8.4-24.4,18.4-31.9,29.5C4.2,67.7,0,80,0,92.8c0,12.9,4.2,25.1,11.8,36.2c11.4,16.6,30.2,30.6,53.9,40.5
		s52.2,15.6,82.8,15.6c40.9,0,77.9-10.2,104.8-26.8c13.4-8.3,24.4-18.2,31.9-29.3c7.6-11.1,11.8-23.3,11.8-36.2H295.7h-1.3
		c0,12.3-4,24-11.3,34.7c-11,16-29.4,29.8-52.7,39.5s-51.5,15.4-81.8,15.4c-40.4,0-77-10.1-103.4-26.4C32,147.8,21.3,138.2,14,127.5
		S2.7,105.1,2.7,92.8s4-24,11.3-34.7c11-16.1,29.4-30,52.7-39.8s51.5-15.6,81.8-15.6c40.4,0,77,10.3,103.4,26.7
		c13.2,8.2,23.8,18,31.1,28.7c7.3,10.7,11.3,22.5,11.3,34.7H295.7z"/>
	<path class="st1" d="M290.5,91c0-48.8-64.5-88.9-144.1-88.9C66.9,2.1,2.4,42.2,2.4,91s64.5,88.4,144.1,88.4
		C226,179.4,290.5,139.8,290.5,91z"/>
	<path d="M290.5,91h1.3c0-12.5-4.1-24.4-11.6-35.2c-11.1-16.2-29.6-29.9-52.8-39.6S176.3,0.9,146.3,0.9c-40,0-76.2,10.1-102.6,26.3
		c-13,8-23.7,17.7-31.1,28.5S1,78.5,1,91s4.1,24.4,11.6,35.2c11.1,16.1,29.6,29.8,52.8,39.4s51.1,15.2,81.1,15.2
		c40,0,76.2-9.9,102.6-26.1c13.2-8.1,23.9-17.7,31.3-28.5S292,103.5,292,91H290.5h-1.3c0,11.9-3.9,23.2-11.1,33.6
		c-10.7,15.6-28.8,29-51.6,38.4c-22.8,9.5-50.4,15-80,15c-39.6,0-75.4-9.8-101.2-25.7C32.4,144.4,22,135,14.8,124.6
		C7.6,114.2,3.7,102.9,3.7,91s3.9-23.3,11.1-33.7c10.7-15.6,28.8-29.1,51.6-38.7c22.8-9.5,50.4-15.1,80-15.1
		c39.6,0,75.3,10,101.2,25.9c12.9,8,23.3,17.4,30.5,27.9c7.2,10.4,11.1,21.8,11.1,33.7H290.5z"/>
	<path class="st2" d="M117.3,6.9c-10,1-24.2,3.1-40.3,8.4c-9.4,3.1-19.3,6.3-30.5,13.2C38.2,33.6,7.6,52.4,4,83.9
		c-0.8,7.1-0.1,13,0.7,16.8c4.6-12.5,16.7-40,45.1-63C76.6,15.8,104.2,9.2,117.3,6.9z"/>
	<path class="st3" d="M282,77.1c-8.7,15.1-26.7,41.7-59.1,63.7c-37.4,25.4-74.2,31.2-91.9,32.8c9.3,0.6,23.4,0.9,40.2-1.4
		c18.9-2.5,50-7,78.5-29.3c11.1-8.6,28.5-22.3,32.5-45.1C283.8,89.4,283,82.1,282,77.1z"/>
	<polygon class="st4" points="260.7,89.9 260.7,96.8 266.6,100.3 272.5,96.9 272.5,89.9 266.6,86.4 	"/>
	<path d="M260.7,89.9h-0.4v6.9c0,0.1,0.1,0.3,0.2,0.3l5.9,3.5c0.1,0.1,0.3,0.1,0.4,0l5.9-3.4c0.1-0.1,0.2-0.2,0.2-0.3V90
		c0-0.1-0.1-0.3-0.2-0.3l-5.9-3.5c-0.1-0.1-0.3-0.1-0.4,0l-5.9,3.4c-0.1,0.1-0.2,0.2-0.2,0.3H260.7l0.2,0.3l5.7-3.3l5.5,3.3v6.5
		l-5.5,3.2l-5.5-3.3v-6.7H260.7l0.2,0.3L260.7,89.9z"/>
	<polygon class="st5" points="260.1,90.1 260.1,96.5 265.6,99.7 271.2,96.5 271.2,90.2 265.7,87 	"/>
	<path d="M260.1,90.1h-0.4v6.4c0,0.1,0.1,0.3,0.2,0.3l5.5,3.2c0.1,0.1,0.3,0.1,0.4,0l5.5-3.2c0.1-0.1,0.2-0.2,0.2-0.3v-6.4
		c0-0.1-0.1-0.3-0.2-0.3l-5.5-3.2c-0.1-0.1-0.3-0.1-0.4,0l-5.5,3.2c-0.1,0.1-0.2,0.2-0.2,0.3H260.1l0.2,0.3l5.3-3.1l5.1,3v5.9
		l-5.1,2.9l-5.1-3v-6.2L260.1,90.1l0.2,0.3L260.1,90.1z"/>
	<path class="st6" d="M264.9,88.6l-3.9,2v4.7c0.2-0.9,0.7-2.2,1.4-3.5C263.3,90.3,264.2,89.3,264.9,88.6z"/>
	<line class="st7" x1="269.5" y1="95.9" x2="265.7" y2="98.2"/>
	<path d="M268.5,95l-2.7,1.6c-0.1,0.1-0.1,0.2-0.1,0.3c0.1,0.1,0.2,0.1,0.3,0.1l2.7-1.6c0.1-0.1,0.1-0.2,0.1-0.3
		C268.7,95,268.6,95,268.5,95"/>
	<line class="st7" x1="269.2" y1="97.9" x2="267.6" y2="98.9"/>
	<path d="M268.3,96.5l-1.2,0.8c-0.1,0.1-0.1,0.2-0.1,0.3c0.1,0.1,0.2,0.1,0.3,0.1l1.2-0.8c0.1-0.1,0.1-0.2,0.1-0.3
		C268.5,96.4,268.4,96.4,268.3,96.5"/>
	<polygon class="st4" points="29.3,84.4 21.7,84.4 17.9,90.9 21.7,97.3 29.3,97.3 33.1,90.9 	"/>
	<path d="M29.3,84.4V84h-7.6c-0.1,0-0.3,0.1-0.3,0.2l-3.8,6.4c-0.1,0.1-0.1,0.3,0,0.4l3.8,6.4c0.1,0.1,0.2,0.2,0.3,0.2h7.6
		c0.1,0,0.3-0.1,0.3-0.2l3.8-6.4c0.1-0.1,0.1-0.3,0-0.4l-3.8-6.4c-0.1-0.1-0.2-0.2-0.3-0.2V84.4L29,84.6l3.7,6.2l-3.6,6h-7.2l-3.6-6
		l3.6-6h7.4L29.3,84.4L29,84.6L29.3,84.4z"/>
	<polygon class="st5" points="28.1,84.4 21.1,84.4 17.6,90.5 21.1,96.6 28.1,96.6 31.6,90.5 	"/>
	<path d="M28.1,84.4V84h-7c-0.1,0-0.3,0.1-0.3,0.2l-3.5,6.1c-0.1,0.1-0.1,0.3,0,0.4l3.5,6.1c0.1,0.1,0.2,0.2,0.3,0.2h7
		c0.1,0,0.3-0.1,0.3-0.2l3.5-6.1c0.1-0.1,0.1-0.3,0-0.4l-3.5-6.1c-0.1-0.1-0.2-0.2-0.3-0.2V84.4l-0.3,0.2l3.4,5.9l-3.3,5.7h-6.5
		L18,90.5l3.3-5.7h6.8L28.1,84.4l-0.3,0.2L28.1,84.4z"/>
	<path class="st6" d="M26.6,85.7h-4.8l-2.4,4.5c0.7-0.8,1.8-1.8,3.2-2.7C24.1,86.5,25.5,86,26.6,85.7z"/>
	<line class="st7" x1="28.3" y1="90" x2="26" y2="94.1"/>
	<path d="M27.4,90.1l-1.7,3.1c-0.1,0.1,0,0.2,0.1,0.3c0.1,0.1,0.2,0,0.3-0.1l1.7-3.1c0.1-0.1,0-0.2-0.1-0.3
		C27.5,90,27.4,90,27.4,90.1"/>
	<line class="st7" x1="29.1" y1="92" x2="28.1" y2="93.8"/>
	<path d="M28,91.6L27.3,93c-0.1,0.1,0,0.2,0.1,0.3c0.1,0.1,0.2,0,0.3-0.1l0.7-1.4c0.1-0.1,0-0.2-0.1-0.3C28.1,91.5,28,91.5,28,91.6"
		/>
</g>
<g>
	<path class="st8" d="M174.1,46.8c0,0.1-0.1,0.3-0.1,0.4c0,0.2,0,0.5,0.1,0.7c0.2,0.3,0.4,0.9,0.8,1.6c0.3,0.7,0.7,1.6,1.2,2.5
		s0.9,1.9,1.4,3c0.5,1.1,1,2.1,1.4,3.1c0.5,1,0.9,1.9,1.3,2.8c0.4,0.9,0.7,1.5,1,2.1l-1.3,8.5c-0.2,1.1-0.4,2.2-0.5,3.4
		c-0.2,1.2-0.3,2.2-0.3,3V78c0,0.3,0.1,0.4,0.3,0.6s0.4,0.2,0.7,0.2c0.2,0,0.5,0,0.8-0.1c0.3-0.1,0.5-0.2,0.8-0.3l6.5-3.4
		c0.2-0.1,0.3-0.2,0.4-0.2c0.1-0.1,0.2-0.2,0.2-0.3c0.1-0.1,0.1-0.2,0.1-0.4c0-0.2,0.1-0.4,0.1-0.6l1.3-8.6l0.2-0.8
		c0.2-0.3,0.4-0.7,0.6-1.1c0.3-0.5,0.5-1,0.9-1.5c0.3-0.6,0.7-1.2,1-1.8s0.7-1.3,1-1.9l6.8-12.5c0.1-0.2,0.1-0.3,0.1-0.4
		c0-0.1,0-0.2,0-0.3c0-0.3-0.2-0.5-0.5-0.5c-0.1,0-0.3,0-0.5,0.1l-7.9,2c0,0-0.1,0.1-0.3,0.4s-0.3,0.6-0.6,1
		c-0.2,0.4-0.5,0.8-0.8,1.4s-0.6,1-0.9,1.5l-2.3,4.2l-0.1,0.3l-5.3-10.3c-0.2-0.2-0.3-0.3-0.5-0.4s-0.3-0.1-0.4-0.1
		c-0.2,0-0.4,0-0.6,0.1l-2.7,1.1c-0.4,0.1-0.7,0.3-1,0.4s-0.7,0.3-1,0.4s-0.6,0.2-0.8,0.3c-0.2,0.1-0.4,0.2-0.5,0.2
		C174.2,46.6,174.2,46.7,174.1,46.8z M159.5,58c0.2,1,0.4,1.9,0.6,2.7c0.2,0.8,0.4,1.6,0.6,2.4s0.4,1.5,0.5,2.3h-5.5
		c0,0,0-0.1,0-0.2V65c0.1-0.3,0.2-0.8,0.5-1.4c0.2-0.6,0.5-1.3,0.8-2.2c0.3-0.9,0.6-1.8,1-3c0.4-1.1,0.7-2.3,1.1-3.7
		C159.2,55.9,159.3,57,159.5,58z M146.2,76.9c1,0.5,2.3,1,3.7,1.6c0,0,0.1,0,0.2,0c0.1,0,0.2,0,0.4-0.1c0.1-0.1,0.2-0.2,0.2-0.3
		c0.5-1,0.9-2,1.3-3c0.4-1,0.8-2,1.2-3.1l1.3,0c0.4,0,0.8,0,1.3,0c0.5,0,0.9,0,1.4,0c0.4,0,0.7,0,0.9,0c0.3,0,0.5,0,0.8,0
		c0.3,0,0.6,0,1,0c0.4,0,0.8,0,1.4,0c0.2,0,0.4,0,0.6,0c0.2,0,0.4,0,0.6,0.1c0.2,0,0.4,0.1,0.5,0.1c0.1,0.1,0.2,0.1,0.3,0.2
		c0.1,0.6,0.3,1.2,0.4,1.6s0.3,0.9,0.4,1.3c0.1,0.4,0.3,0.8,0.4,1.2c0.2,0.4,0.3,0.9,0.5,1.4c0,0.1,0.1,0.2,0.2,0.4
		c0.1,0.1,0.2,0.2,0.5,0.2h0.1c0.1,0,0.3,0,0.5-0.1c0.3-0.1,0.5-0.2,0.9-0.3c0.3-0.1,0.7-0.2,1.1-0.4c0.4-0.1,0.8-0.3,1.1-0.4
		l4.9-1.6c0.3-0.1,0.4-0.2,0.4-0.3s0-0.2-0.1-0.3c-0.1-0.1-0.2-0.2-0.3-0.4c-0.1-0.2-0.3-0.4-0.4-0.8c-0.1-0.3-0.3-0.8-0.4-1.3
		c-0.4-1.3-0.9-2.6-1.3-3.8s-0.8-2.5-1.3-3.7c-0.4-1.2-0.8-2.5-1.2-3.8c-0.4-1.3-0.8-2.6-1.3-4.1c-0.8-2.7-1.6-5.1-2.4-7.4
		c-0.8-2.2-1.6-4.3-2.4-6.2c-0.1-0.3-0.2-0.6-0.4-0.7c-0.2-0.1-0.5-0.2-0.7-0.2H162c-0.3,0-0.7,0.1-1.2,0.2c-0.5,0.1-1,0.2-1.6,0.4
		c-0.5,0.1-1,0.3-1.4,0.4c-0.4,0.1-0.6,0.2-0.7,0.2c-0.1,0-0.2,0.1-0.4,0.1c-0.2,0.1-0.3,0.1-0.5,0.2c-0.2,0.1-0.3,0.2-0.5,0.3
		s-0.2,0.3-0.3,0.4c-0.5,1.2-1.1,2.6-1.7,4c-0.6,1.4-1.2,3.1-1.9,5c-0.3,1-0.7,2-1,2.8c-0.3,0.9-0.7,1.7-1,2.6
		c-0.3,0.8-0.7,1.7-1,2.5c-0.3,0.8-0.7,1.7-1,2.6c-0.5,0-0.9,0-1.3,0c-0.4,0-0.8,0-1.2,0c-0.4,0-0.8,0-1.2,0c-0.4,0-0.7,0-0.9,0.1
		c-0.2,0-0.4,0-0.4,0.1c0,0.5,0.1,1,0.2,1.5c0.1,0.5,0.3,1,0.6,1.5c0.2,0.5,0.5,1,0.8,1.5s0.6,0.9,0.8,1.3l-0.6,1.5
		c-0.2,0.6-0.4,1.1-0.6,1.6s-0.4,0.9-0.6,1.3C144.3,75.9,145.1,76.4,146.2,76.9z M133.9,44l0-0.1c0-0.3,0-0.5-0.1-0.6
		c-0.1-0.1-0.2-0.1-0.4-0.1c-0.2,0-0.5,0-0.6,0.1l-8.1,1.9c-0.2,0-0.3,0.1-0.3,0.1c-0.1,0.1-0.1,0.2-0.2,0.3c0,0.1-0.1,0.3-0.1,0.5
		c0,0.2,0,0.4-0.1,0.7c0,0.1,0,0.4,0,1.1c0,0.7-0.1,1.7-0.2,3.1l-0.4,6.1c-0.1,1.3-0.2,2.7-0.3,4.2c-0.1,1.4-0.2,2.9-0.4,4.2
		l-0.6,8.2c-0.2,0.4-0.4,0.8-0.6,1.2c-0.2,0.4-0.4,0.8-0.6,1.2c-0.2,0.4-0.3,0.7-0.4,1.1c-0.1,0.3-0.2,0.6-0.2,0.7
		c0,0.1,0.1,0.2,0.3,0.3c0.2,0.1,0.5,0.1,0.9,0.1c0.4,0,1,0,1.6,0c0.7,0,1.4,0,2.2,0c0.8,0,1.6,0,2.5,0c0.9,0,1.7,0,2.6-0.1
		c0.9,0,1.7-0.1,2.6-0.1c0.8,0,1.6-0.1,2.3-0.1c0.7,0,1.4,0,1.9-0.1s1,0,1.3-0.1c0.5,0,0.9-0.2,1.2-0.3c0.3-0.2,0.6-0.4,0.8-0.7
		c0.2-0.3,0.4-0.6,0.5-1s0.3-0.8,0.5-1.3l0.5-1.5c0.2-0.5,0.3-0.9,0.4-1.2c0.1-0.3,0.2-0.5,0.2-0.7c0.1-0.2,0.1-0.3,0.1-0.3l0-0.1
		c0-0.2,0-0.4-0.1-0.5c-0.1-0.1-0.3-0.2-0.6-0.2c-0.3,0-0.6,0-1.1,0.1l-9.5,1c0.1-1.6,0.2-3.1,0.4-4.3c0.1-1.3,0.2-2.4,0.3-3.4
		s0.2-2,0.3-2.8c0.1-0.9,0.2-1.7,0.2-2.5c0.1-0.8,0.1-1.6,0.2-2.4c0.1-0.8,0.1-1.7,0.2-2.6c0-0.1,0-0.3,0-0.7c0-0.4,0.1-0.8,0.1-1.3
		c0.1-0.5,0.1-1.1,0.2-1.7c0.1-0.6,0.1-1.2,0.2-1.8c0.1-0.6,0.1-1.2,0.1-1.7s0.1-1,0.1-1.4L133.9,44z M103.1,59.2
		c0-0.4,0.1-1,0.1-1.5c0.1-0.6,0.1-1.2,0.2-1.8s0.1-1.3,0.2-1.8c0.1-0.6,0.1-1.1,0.1-1.6s0.1-0.8,0.1-1l0-0.5c0-0.1,0.1-0.2,0.3-0.3
		c0.2-0.1,0.3-0.2,0.6-0.2c0.2-0.1,0.5-0.1,0.7-0.1c0.3,0,0.5,0,0.7,0c1.2,0,2.2,0.3,2.9,0.8c0.7,0.5,1.1,1.3,1.1,2.4
		c0,0.6,0,1.2-0.1,1.7c-0.1,0.5-0.2,0.9-0.3,1.2c-0.3,0.8-0.6,1.4-1.1,2c-0.5,0.6-1.1,1-1.6,1.4c-0.6,0.4-1.2,0.7-1.8,0.9
		c-0.6,0.2-1.1,0.3-1.5,0.3c-0.3,0-0.4-0.1-0.5-0.2c-0.1-0.1-0.1-0.3-0.1-0.4C103.1,59.9,103.1,59.6,103.1,59.2z M118.8,48.3
		c-0.7-1.3-1.6-2.4-2.8-3.1c-1.2-0.8-2.5-1.3-4.1-1.6c-1.6-0.3-3.2-0.5-5-0.5c-0.7,0-1.5,0-2.3,0.1c-0.8,0.1-1.6,0.1-2.4,0.2
		c-0.8,0.1-1.6,0.2-2.4,0.3c-0.8,0.1-1.5,0.2-2.2,0.3c-0.7,0.1-1.3,0.2-1.8,0.3c-0.5,0.1-0.9,0.2-1.2,0.3c-0.4,0.1-0.7,0.2-0.9,0.3
		c-0.3,0.1-0.5,0.1-0.6,0.2c-0.2,0.1-0.3,0.2-0.4,0.3c-0.1,0.1-0.2,0.4-0.3,0.6c-0.1,0.4-0.3,1-0.4,1.6c-0.2,0.7-0.3,1.3-0.5,1.9
		c-0.2,0.7-0.4,1.5-0.6,2.2c0,0.3,0.2,0.4,0.5,0.4c0.3,0,0.6,0,1.1-0.1c0.5-0.1,1.2-0.2,2-0.4c0,0.7-0.1,1.4-0.2,2.3
		c-0.1,0.9-0.1,1.8-0.2,2.8s-0.2,2.1-0.2,3.2c-0.1,1.1-0.2,2.2-0.3,3.4l-0.4,5.5c-0.1,1-0.1,1.9-0.2,2.7c-0.1,0.8-0.1,1.6-0.2,2.4
		l-0.3,3.9c0,0.3,0.1,0.5,0.2,0.6c0.1,0.1,0.3,0.2,0.5,0.2c0.3,0,0.6,0,0.9-0.1s0.6-0.1,0.9-0.2c0.3-0.1,0.6-0.2,1-0.4
		c0.4-0.1,0.8-0.3,1.2-0.5l1.4-0.5c0.7-0.2,1.3-0.5,1.8-0.6c0.5-0.2,0.8-0.3,0.8-0.4l0.4-0.7l0.8-8.4c0.3,0,0.6,0.1,0.9,0.1
		c0.3,0,0.6,0,0.9,0c1.8,0,3.7-0.3,5.5-0.8c1.8-0.6,3.5-1.4,5-2.5c0.8-0.6,1.5-1.2,2.1-1.9c0.6-0.7,1.1-1.4,1.6-2.3
		c0.4-0.8,0.8-1.8,1-2.8c0.2-1,0.4-2.2,0.4-3.5C119.9,51.3,119.5,49.6,118.8,48.3z"/>
	<path d="M174.1,46.8l-1.4-0.4c-0.1,0.3-0.1,0.6-0.1,0.8c0,0.4,0.1,0.8,0.2,1.2l0,0.1l0,0.1c0.2,0.3,0.4,0.8,0.8,1.6
		c0.3,0.7,0.7,1.5,1.2,2.5c0.4,0.9,0.9,1.9,1.4,3c0.5,1.1,1,2.1,1.4,3.1c0.5,1,0.9,1.9,1.3,2.8c0.4,0.9,0.7,1.5,1,2.1l1.4-0.6
		l-1.5-0.2l-1.3,8.5l1.5,0.2l-1.5-0.2c-0.2,1.1-0.4,2.3-0.5,3.4c-0.2,1.2-0.3,2.2-0.3,3.1l0,0V78c0,0.6,0.3,1.5,1,1.8
		c0.5,0.3,1,0.4,1.5,0.4c0.4,0,0.8-0.1,1.2-0.2c0.4-0.1,0.7-0.2,1-0.4l0,0l6.5-3.4l-0.7-1.3l0.7,1.3c0.2-0.1,0.5-0.3,0.7-0.5
		c0.2-0.2,0.4-0.5,0.5-0.7c0.1-0.3,0.2-0.5,0.3-0.8c0-0.2,0.1-0.4,0.1-0.7l0-0.1l1.3-8.6l0.2-0.7l-1.5-0.3l1.3,0.7
		c0.1-0.3,0.3-0.6,0.6-1.1c0.2-0.4,0.5-0.9,0.8-1.5c0.3-0.6,0.7-1.2,1-1.8c0.3-0.6,0.7-1.3,1-1.9l6.8-12.6l0,0
		c0.1-0.3,0.2-0.6,0.3-0.9c0-0.1,0-0.2,0-0.2l0-0.1v-0.2c0-0.4-0.1-1-0.6-1.5c-0.5-0.4-1-0.5-1.4-0.5c-0.3,0-0.6,0-0.8,0.1l-7.9,2
		l0.4,1.5v-1.5c-1,0.1-0.9,0.4-1.1,0.5c-0.3,0.3-0.3,0.4-0.5,0.6c-0.2,0.3-0.4,0.6-0.6,1c-0.2,0.4-0.5,0.8-0.8,1.4
		c-0.3,0.5-0.6,1-0.9,1.5l0,0l-2.3,4.3l-0.2,0.4l1.4,0.6l1.3-0.7l-5.4-10.5l-0.2-0.2c-0.3-0.3-0.5-0.5-0.9-0.7
		c-0.3-0.1-0.6-0.2-1-0.2c-0.4,0-0.8,0.1-1.2,0.3l0.6,1.4l-0.6-1.4l-2.7,1.1c-0.4,0.1-0.7,0.3-1.1,0.4c-0.3,0.1-0.7,0.3-1,0.4
		c-0.3,0.1-0.6,0.2-0.8,0.4c-0.3,0.1-0.5,0.2-0.7,0.4l0.8,1.2l-0.7-1.3c-0.5,0.2-0.8,0.7-0.9,1.2L174.1,46.8l1.4,0.4l-1-0.3l0.5,0.9
		c0.2-0.1,0.4-0.4,0.5-0.6l-1-0.3l0.5,0.9l0.1,0l0,0l-0.1-0.1l0.1,0.1l0,0l-0.1-0.1l0.1,0.1c0,0,0.1-0.1,0.3-0.1
		c0.2-0.1,0.4-0.2,0.7-0.3c0.3-0.1,0.6-0.3,1-0.4c0.3-0.1,0.7-0.3,1-0.4l2.7-1.1l0,0l0,0l-0.1-0.4l0,0.4l0.1,0l-0.1-0.4l0,0.4v-0.5
		l-0.2,0.5c0,0,0.1,0,0.2,0v-0.5l-0.2,0.5l0.1-0.2l-0.1,0.2l0,0l0.1-0.2l-0.1,0.2l0.1,0.1l1.1-1.1l-1.3,0.7l6.8,13.2l1.3-3.3
		l2.2-4.1l-1.3-0.7l1.3,0.7c0.3-0.5,0.6-1,0.9-1.5c0.3-0.5,0.5-1,0.8-1.4c0.2-0.4,0.4-0.7,0.5-0.9c0.1-0.1,0.1-0.2,0.1-0.2l-0.7-0.5
		l0.6,0.6l0.1-0.1l-0.7-0.5l0.6,0.6l-1-1l0,1.4c0.9-0.1,0.9-0.4,1-0.4l-1-1l0,1.4h0.2l8.1-2l0.1,0l0-0.1l0,0.1l0,0l0-0.1l0,0.1v-0.9
		l-0.6,0.7c0.3,0.3,0.6,0.3,0.6,0.3v-0.9l-0.6,0.7l0.7-0.7h-1c0,0.1,0.1,0.5,0.4,0.7l0.7-0.7h-1h1.5l-1.5-0.3c0,0.1,0,0.3-0.1,0.4
		l0.4,0l-0.4-0.1l0,0.1l0.4,0.1l-0.4-0.1l0,0l1.3,0.7l-1.3-0.7l-6.8,12.5c-0.3,0.6-0.7,1.3-1,1.9c-0.3,0.6-0.7,1.2-1,1.8
		c-0.3,0.6-0.6,1.1-0.9,1.6c-0.3,0.5-0.5,0.8-0.6,1.1l-0.1,0.2l-0.2,1l0,0.1l-1.3,8.6l1.5,0.2l-1.5-0.3c0,0.3-0.1,0.5-0.1,0.6l0,0
		l0.5,0.3l-0.4-0.4l-0.1,0.2l0.5,0.3l-0.4-0.4l0,0l0,0l-6.5,3.4l0.7,1.3l-0.7-1.3c-0.2,0.1-0.3,0.1-0.5,0.2c-0.2,0-0.3,0.1-0.4,0.1
		v0.3l0.1-0.2l-0.1-0.1v0.3l0.1-0.2l-0.4,0.7l0.9,0c0-0.1-0.1-0.6-0.4-0.7l-0.4,0.7l0.9,0v-0.1h-1.5l1.5,0.1
		c0.1-0.8,0.2-1.8,0.3-2.9c0.2-1.1,0.3-2.3,0.5-3.3l0,0l1.4-9l-0.2-0.4c-0.2-0.5-0.6-1.2-1-2.1c-0.4-0.9-0.8-1.8-1.3-2.8
		c-0.5-1-0.9-2-1.4-3.1c-0.5-1.1-1-2.1-1.4-3c-0.4-0.9-0.8-1.8-1.2-2.5c-0.3-0.7-0.6-1.3-0.8-1.6l-1.3,0.7l1.4-0.5l0-0.2h-0.1l0.1,0
		l0,0h-0.1l0.1,0L174.1,46.8z M159.5,58l-1.5,0.3c0.2,1,0.4,1.9,0.6,2.7c0.2,0.9,0.4,1.7,0.6,2.5c0.2,0.8,0.4,1.5,0.5,2.2l1.5-0.3
		v-1.5h-5.5v1.5L157,66c0.2-0.5,0.1-0.6,0.2-0.8V65h-1.5l1.4,0.4c0.1-0.3,0.2-0.7,0.4-1.3c0.2-0.6,0.5-1.3,0.8-2.2
		c0.3-0.9,0.6-1.9,1-3c0.4-1.1,0.7-2.4,1.1-3.8l-1.4-0.4l-1.5,0.2c0.2,1.2,0.4,2.3,0.5,3.3L159.5,58l1.5-0.3c-0.2-0.9-0.4-2-0.5-3.1
		l-1-7.2l-1.9,7c-0.4,1.3-0.7,2.6-1.1,3.6c-0.4,1.1-0.7,2.1-1,2.9c-0.3,0.9-0.6,1.6-0.8,2.2c-0.2,0.6-0.4,1.1-0.5,1.5l-0.1,0.2v0.4
		h1.1l-1-0.5c-0.2,0.5-0.1,0.4-0.1,0.5h1.1l-1-0.5l-1,2.1h9.8l-0.4-1.8c-0.2-0.8-0.4-1.5-0.5-2.3c-0.2-0.7-0.4-1.5-0.6-2.4
		c-0.2-0.8-0.4-1.7-0.5-2.7L159.5,58z M146.2,76.9l-0.7,1.3c1.1,0.6,2.4,1.1,3.9,1.7l0.5-1.4l-1.1,1.1c0.6,0.5,0.8,0.4,0.9,0.4
		c0.1,0,0.2,0,0.3,0c0.4,0,0.9-0.2,1.2-0.4c0.4-0.2,0.7-0.7,0.8-1.2l-1.5-0.4l1.4,0.6c0.5-1,0.9-2,1.3-3c0.4-1,0.8-2,1.2-3.2
		l-1.4-0.5l-0.1,1.5l1.3,0c0.4,0,0.8,0,1.3,0c0.5,0,0.9,0,1.4,0c0.4,0,0.7,0,1,0c0.3,0,0.5,0,0.8,0c0.3,0,0.6,0,0.9,0
		c0.3,0,0.8,0,1.4,0c0.2,0,0.3,0,0.5,0c0.2,0,0.3,0,0.4,0c0.1,0,0.2,0,0.2,0l0.4-1l-1,0.4c0.3,0.5,0.6,0.6,0.6,0.6l0.4-1l-1,0.4
		l1.4-0.6l-1.5,0.3c0.1,0.7,0.3,1.2,0.5,1.8c0.2,0.5,0.3,0.9,0.5,1.4c0.1,0.4,0.3,0.8,0.5,1.2c0.1,0.4,0.3,0.8,0.4,1.3l1.4-0.4
		l-1.5,0.4c0.1,0.3,0.2,0.6,0.4,0.9c0.4,0.6,1.2,0.9,1.7,0.8h0.1c0.4,0,0.6-0.1,0.9-0.2c0.3-0.1,0.6-0.2,0.9-0.3
		c0.4-0.1,0.7-0.2,1.1-0.4c0.4-0.1,0.8-0.3,1.1-0.4l-0.5-1.4l0.5,1.4l4.9-1.6c0.2-0.1,0.4-0.1,0.7-0.3c0.2-0.1,0.8-0.5,0.8-1.4
		c0-0.5-0.2-1-0.5-1.3c0,0-0.1-0.1-0.2-0.2c-0.1-0.1-0.2-0.3-0.3-0.5c-0.1-0.2-0.2-0.6-0.3-1.1l0-0.1l0-0.1
		c-0.4-1.3-0.9-2.6-1.3-3.8c-0.4-1.2-0.8-2.4-1.2-3.7c-0.4-1.2-0.8-2.5-1.2-3.7c-0.4-1.3-0.8-2.6-1.3-4.1c-0.8-2.7-1.6-5.2-2.5-7.5
		c-0.8-2.2-1.6-4.3-2.4-6.2l-1.4,0.5l1.5-0.3c-0.1-0.6-0.5-1.3-1.2-1.7c-0.4-0.2-0.9-0.3-1.4-0.3H162c-0.5,0-1,0.1-1.5,0.2
		c-0.5,0.1-1.1,0.2-1.6,0.4c-0.5,0.1-1,0.3-1.4,0.4c-0.2,0.1-0.4,0.1-0.5,0.1c-0.1,0-0.2,0-0.2,0l-0.1,0l-0.1,0
		c-0.1,0-0.3,0.1-0.4,0.2c-0.2,0.1-0.5,0.2-0.7,0.3c-0.3,0.1-0.5,0.3-0.8,0.5c-0.3,0.3-0.5,0.6-0.7,1l1.4,0.6l-1.4-0.6
		c-0.5,1.2-1.1,2.6-1.7,4c-0.6,1.5-1.3,3.2-1.9,5.1c-0.3,1-0.7,1.9-1,2.8c-0.3,0.9-0.7,1.7-1,2.6c-0.3,0.8-0.7,1.7-1,2.5
		c-0.3,0.8-0.7,1.7-1,2.6l1.4,0.5l0-1.5c-0.5,0-0.9,0-1.2,0c-0.4,0-0.7,0-1.2,0c-0.4,0-0.8,0-1.2,0c-0.4,0-0.7,0-1,0.1
		c-0.2,0-0.3,0-0.5,0.1c-0.1,0-0.2,0-0.4,0.1c-0.1,0.1-0.2,0.1-0.4,0.3c-0.2,0.2-0.4,0.6-0.4,1.1c0,0.6,0.1,1.3,0.3,1.9
		c0.2,0.6,0.4,1.2,0.6,1.7c0.3,0.6,0.5,1.1,0.8,1.6c0.3,0.5,0.6,1,0.9,1.4l1.2-0.8l-1.4-0.6l-0.6,1.6l0,0.1c-0.2,0.5-0.4,1-0.5,1.5
		c-0.2,0.5-0.4,0.9-0.6,1.3l-0.6,1.2l1.1,0.7c0.8,0.5,1.7,1.1,2.8,1.6L146.2,76.9l0.7-1.3c-1-0.5-1.8-1-2.5-1.4l-0.8,1.3l1.3,0.7
		c0.2-0.4,0.4-0.9,0.7-1.4c0.2-0.5,0.5-1.1,0.6-1.8l-1.4-0.5l1.4,0.6l0.9-2.3l-0.4-0.7c-0.3-0.4-0.5-0.8-0.8-1.3
		c-0.3-0.4-0.5-0.9-0.7-1.3c-0.2-0.4-0.4-0.9-0.5-1.3c-0.1-0.4-0.2-0.7-0.2-1.1H143l1,1.1c0.2-0.2,0.4-0.5,0.4-1.1H143l1,1.1
		l-0.9-0.9l0.3,1.3c0.1-0.1,0.1,0.1,0.7-0.4l-0.9-0.9l0.3,1.3l0.1,0c0.2,0,0.5,0,0.8-0.1c0.3,0,0.7,0,1.1,0c0.4,0,0.8,0,1.2,0
		c0.4,0,0.8,0,1.3,0l1,0l0.4-0.9c0.3-0.9,0.7-1.8,1-2.6c0.3-0.8,0.7-1.7,1-2.5c0.3-0.8,0.7-1.7,1-2.6c0.3-0.9,0.7-1.9,1-2.9
		c0.6-1.9,1.2-3.5,1.8-4.9c0.6-1.4,1.2-2.8,1.7-4l0,0l0,0l-0.3-0.1l0.2,0.3c0,0,0,0,0.1-0.1l-0.3-0.1l0.2,0.3l0.2-0.1
		c0.1-0.1,0.2-0.1,0.3-0.1c0.1-0.1,0.3-0.1,0.3-0.1l-0.5-1.4l0.4,1.5c0.2,0,0.4-0.1,0.8-0.2c0.4-0.1,0.8-0.2,1.3-0.4
		c0.5-0.1,1-0.2,1.5-0.3c0.5-0.1,0.8-0.1,0.9-0.1h0.4l0,0l0.3-0.7l-0.6,0.4c0,0.1,0.2,0.2,0.3,0.2l0.3-0.7l-0.6,0.4l0.4-0.2
		l-0.4,0.2l0,0.1l0.4-0.2l-0.4,0.2v0l0,0.1l0,0.1c0.7,1.9,1.5,3.9,2.3,6.1c0.8,2.2,1.6,4.6,2.4,7.3c0.4,1.5,0.9,2.8,1.3,4.1
		c0.4,1.3,0.8,2.6,1.2,3.8c0.4,1.2,0.8,2.5,1.3,3.7c0.4,1.2,0.9,2.5,1.3,3.8l1.4-0.5l-1.5,0.4c0.2,0.6,0.3,1.1,0.5,1.6
		c0.2,0.4,0.3,0.7,0.5,1c0.1,0.2,0.3,0.4,0.4,0.6l0.8-0.8h-1.1c0,0.3,0.2,0.6,0.3,0.7l0.8-0.7h-1.1h1.3l-0.7-1.1
		c-0.1,0.1-0.5,0.3-0.6,1.1h1.3l-0.7-1.1l0.3,0.5l-0.2-0.5l-0.1,0l0.3,0.5l-0.2-0.5l-0.1,0l-5,1.6l0,0c-0.4,0.1-0.7,0.3-1.1,0.4
		c-0.4,0.1-0.7,0.2-1,0.4c-0.3,0.1-0.6,0.2-0.8,0.2c-0.1,0-0.2,0-0.2,0.1l0,0l0.1,0.7V77l-0.1,0l0.1,0.7V77h-0.1v1l0.8-0.5
		c-0.2-0.4-0.7-0.5-0.8-0.4v1l0.8-0.5l-0.3,0.2l0.3-0.1c0-0.1,0-0.1,0-0.1l-0.3,0.2l0.3-0.1l0,0l0,0c-0.2-0.5-0.3-1-0.5-1.5
		c-0.2-0.4-0.3-0.8-0.4-1.2c-0.1-0.4-0.3-0.8-0.4-1.2c-0.1-0.4-0.3-0.9-0.4-1.5l0-0.1l0-0.1c-0.3-0.7-0.8-0.9-1.1-1
		c-0.3-0.1-0.5-0.2-0.8-0.2c-0.3,0-0.5-0.1-0.8-0.1c-0.2,0-0.4,0-0.7,0c-0.6,0-1.1,0-1.4,0c-0.4,0-0.7,0-1,0c-0.3,0-0.5,0-0.8,0
		c-0.2,0-0.5,0-0.9,0c-0.4,0-0.9,0-1.3,0c-0.5,0-0.9,0-1.2,0l-2.4-0.1l-0.4,1c-0.4,1.1-0.8,2.1-1.2,3c-0.4,0.9-0.8,1.9-1.3,2.9
		l-0.1,0.1l0,0.1l1,0.2l-0.5-0.8c-0.1,0.1-0.4,0.3-0.4,0.6l1,0.2l-0.5-0.8l0.5,0.7l0-0.8c-0.2,0-0.4,0.1-0.5,0.1l0.5,0.7l0-0.8v0.7
		l0.1-0.7l-0.1,0v0.7l0.1-0.7l-0.2,1.4l1-1c-0.6-0.5-0.7-0.4-0.8-0.4l-0.2,1.4l1-1l-0.2-0.2l-0.3-0.1c-1.4-0.5-2.6-1-3.6-1.5
		L146.2,76.9z M133.9,44l1.5,0.2c0-0.1,0-0.2,0-0.3c0-0.4,0-0.8-0.4-1.4c-0.4-0.6-1.2-0.8-1.6-0.8c-0.4,0-0.7,0-1.1,0.2l0.5,1.4
		l-0.3-1.5l-8.1,1.9l0.3,1.5l-0.3-1.5c-0.3,0.1-0.6,0.2-1,0.4c-0.4,0.3-0.6,0.7-0.7,1c-0.1,0.3-0.1,0.5-0.1,0.8c0,0.2,0,0.4-0.1,0.6
		l0,0.1v0.1c0,0,0,0.1,0,0.2c0,0.2,0,0.4,0,0.8c0,0.6-0.1,1.7-0.2,3.1L122,57c-0.1,1.3-0.2,2.7-0.3,4.1c-0.1,1.4-0.2,2.9-0.4,4.2
		l-0.6,8.2l1.5,0.1l-1.3-0.7c-0.2,0.4-0.4,0.8-0.6,1.2c-0.2,0.4-0.4,0.9-0.6,1.3c-0.2,0.4-0.3,0.8-0.5,1.2c-0.1,0.4-0.2,0.7-0.2,1.2
		c0,0.4,0.2,0.9,0.4,1.2c0.3,0.3,0.6,0.5,0.8,0.5c0.5,0.2,0.9,0.2,1.4,0.2h0.1l0,0c0.4,0,1,0,1.6,0c0.7,0,1.4,0,2.2,0
		c0.8,0,1.6,0,2.5,0c0.9,0,1.8,0,2.6-0.1l0,0c0.9,0,1.7-0.1,2.5-0.1c0.8,0,1.6-0.1,2.3-0.1c0.7,0,1.4,0,1.9-0.1c0.6,0,1-0.1,1.4-0.1
		c0.6-0.1,1.2-0.2,1.8-0.5c0.5-0.3,1-0.6,1.3-1.1c0.3-0.4,0.6-0.9,0.7-1.4c0.2-0.4,0.3-0.9,0.5-1.4l0.5-1.5c0.2-0.5,0.3-0.9,0.4-1.2
		c0.1-0.3,0.2-0.5,0.2-0.7c0.1-0.2,0.1-0.3,0.1-0.4c0-0.1,0.1-0.3,0.1-0.5c0-0.4,0-0.9-0.4-1.4c-0.8-0.8-1.3-0.7-1.8-0.7
		c-0.4,0-0.8,0-1.2,0.1l-9.5,1l0.2,1.5l1.5,0.1c0.1-1.6,0.2-3,0.4-4.3c0.1-1.3,0.2-2.4,0.3-3.4c0.1-1,0.2-2,0.3-2.8
		c0.1-0.9,0.2-1.7,0.2-2.5c0.1-0.8,0.2-1.6,0.2-2.4c0.1-0.8,0.1-1.7,0.2-2.7l0-0.1v0c0,0,0-0.2,0-0.6c0-0.4,0.1-0.8,0.1-1.3
		c0.1-0.5,0.1-1.1,0.2-1.7c0.1-0.6,0.1-1.3,0.2-1.9c0.1-0.6,0.1-1.2,0.2-1.7c0-0.6,0.1-1,0.1-1.4l0,0v0h-0.5l0.5,0.1l0-0.1h-0.5
		l0.5,0.1l0,0L133.9,44l-1.5-0.2c0,0.1,0,0.3,0,0.4h1.5l-1.5-0.1c0,0.3,0,0.8-0.1,1.3c0,0.5-0.1,1.1-0.1,1.7
		c-0.1,0.6-0.1,1.2-0.2,1.8c-0.1,0.6-0.1,1.2-0.2,1.7c-0.1,0.5-0.1,1-0.1,1.4c0,0.4,0,0.6-0.1,0.8h1.5l-1.5-0.1
		c-0.1,0.9-0.1,1.8-0.2,2.6c-0.1,0.8-0.1,1.6-0.2,2.4c-0.1,0.8-0.2,1.6-0.2,2.5c-0.1,0.9-0.2,1.8-0.3,2.8c-0.1,1-0.2,2.2-0.3,3.4
		c-0.1,1.3-0.2,2.7-0.4,4.3l-0.1,1.8l11.3-1.1c0.4,0,0.7-0.1,0.9-0.1l0.1,0l0-0.5l-0.2,0.5c0.1,0,0.1,0,0.1,0l0-0.5l-0.2,0.5
		l0.4-1.1l-0.9,0.7c0.2,0.3,0.4,0.3,0.5,0.4l0.4-1.1l-0.9,0.7l0.7-0.6l-0.9,0.2c0,0.1,0.1,0.2,0.2,0.4l0.7-0.6l-0.9,0.2l0.3-0.1
		h-0.3l0,0.1l0.3-0.1h-0.3h1l-1-0.3c0,0,0,0.1,0,0.3h1l-1-0.3c0,0,0,0.1-0.1,0.2c-0.1,0.2-0.1,0.4-0.2,0.7c-0.1,0.3-0.2,0.7-0.4,1.2
		l-0.5,1.5c-0.2,0.5-0.3,0.9-0.5,1.3c-0.1,0.3-0.2,0.5-0.3,0.6c-0.1,0.1-0.2,0.2-0.3,0.3c-0.1,0-0.3,0.1-0.7,0.2
		c-0.3,0-0.7,0.1-1.2,0.1c-0.5,0-1.2,0-1.9,0.1c-0.7,0-1.5,0-2.3,0.1c-0.8,0-1.7,0.1-2.6,0.1l0.1,1.5l-0.1-1.5c-0.8,0-1.7,0-2.6,0.1
		c-0.9,0-1.7,0-2.5,0c-0.8,0-1.5,0-2.2,0c-0.7,0-1.2,0-1.6,0l0.1,1.5v-1.5c-0.2,0-0.3,0-0.4,0l0,0l-0.3,1l0.8-0.7
		c-0.2-0.2-0.4-0.3-0.4-0.3l-0.3,1l0.8-0.7l-0.9,0.8l1.2,0c0-0.2-0.1-0.6-0.3-0.8l-0.9,0.8l1.2,0h-0.1l0.1,0l0,0h-0.1l0.1,0
		c0,0,0-0.1,0.1-0.3c0.1-0.3,0.2-0.6,0.4-0.9c0.2-0.4,0.3-0.8,0.5-1.2c0.2-0.4,0.4-0.8,0.6-1.2l0.1-0.3l0.6-8.5
		c0.1-1.4,0.2-2.8,0.4-4.2c0.1-1.4,0.2-2.8,0.3-4.2l0.4-6.1c0.1-1.4,0.2-2.5,0.2-3.2c0-0.7,0-1,0-1.1h-1.5l1.5,0.2
		c0-0.3,0.1-0.5,0.1-0.7c0-0.1,0-0.1,0-0.1l-0.9-0.3l0.6,0.7c0.2-0.2,0.3-0.4,0.3-0.4l-0.9-0.3l0.6,0.7l-0.4-0.5l0.1,0.7
		c0,0,0.1,0,0.3-0.2l-0.4-0.5l0.1,0.7l0,0l8.2-1.9l0.1,0l0,0l0,0.1l0,0l0,0l0,0.1l0.1,0v-1.1l-0.9,0.6c0.3,0.4,0.8,0.5,0.9,0.5v-1.1
		l-0.9,0.6l0.8-0.5l-0.9,0.2c0,0,0,0.1,0.2,0.4l0.8-0.5l-0.9,0.2l0,0.1h0.6l-0.6-0.1l0,0.1h0.6l-0.6-0.1L133.9,44l-1.5-0.2L133.9,44
		z M103.1,59.2l1.5,0.1c0-0.4,0.1-0.9,0.1-1.5c0.1-0.6,0.1-1.2,0.2-1.9c0.1-0.6,0.1-1.2,0.2-1.8c0.1-0.6,0.1-1.1,0.1-1.5
		c0-0.5,0.1-0.8,0.1-1l0-0.5l-1.5-0.1l1.5,0.2l-1-0.1l0.5,0.9c0.1,0,0.5-0.4,0.5-0.8l-1-0.1l0.5,0.9c0,0,0.1,0,0.2-0.1
		c0.1,0,0.3-0.1,0.4-0.1c0.2,0,0.4,0,0.5,0c1,0,1.6,0.2,2.1,0.5c0.3,0.2,0.4,0.4,0.5,1.1c0,0.6,0,1.1-0.1,1.5
		c-0.1,0.4-0.1,0.7-0.2,0.9c-0.2,0.6-0.5,1.1-0.9,1.5c-0.4,0.5-0.9,0.9-1.3,1.2c-0.5,0.3-1,0.5-1.4,0.7c-0.5,0.2-0.9,0.2-1.1,0.2
		v0.6l0.2-0.5c-0.2-0.1-0.2,0-0.2-0.1v0.6l0.2-0.5l-0.4,1.1l1.1-0.5c-0.2-0.3-0.5-0.6-0.6-0.6l-0.4,1.1l1.1-0.5l-0.4,0.2l0.5,0
		c0,0,0-0.1-0.1-0.2l-0.4,0.2l0.5,0h-1.5l1.5,0.1c0-0.2,0-0.5,0.1-0.9L103.1,59.2l-1.5-0.1c0,0.4-0.1,0.8-0.1,0.9l0,0.1v0.1
		c0,0.3,0.1,0.7,0.2,1.1c0.2,0.5,0.7,0.8,1,0.9c0.3,0.1,0.6,0.1,0.9,0.1c0.7,0,1.3-0.1,2-0.4c0.7-0.2,1.4-0.6,2.1-1
		c0.7-0.5,1.4-1,1.9-1.7c0.6-0.7,1.1-1.6,1.4-2.5c0.1-0.4,0.2-0.9,0.3-1.4c0.1-0.6,0.1-1.2,0.1-1.9c0-1.4-0.6-2.8-1.8-3.6
		c-1.1-0.7-2.4-1-3.7-1c-0.3,0-0.5,0-0.8,0c-0.3,0-0.7,0.1-1,0.2c-0.3,0.1-0.6,0.2-0.9,0.4c-0.4,0.2-1,0.8-1,1.5l0,0l0,0.5
		c0,0.2,0,0.5-0.1,1c0,0.5-0.1,1-0.2,1.6c-0.1,0.6-0.1,1.2-0.2,1.8c-0.1,0.6-0.1,1.2-0.2,1.8c-0.1,0.6-0.1,1.1-0.1,1.5L103.1,59.2z
		 M118.8,48.3l1.3-0.7c-0.8-1.5-1.9-2.8-3.3-3.7c-1.4-0.9-2.9-1.5-4.6-1.9c-1.7-0.3-3.4-0.5-5.3-0.5c-0.7,0-1.5,0-2.4,0.1
		c-0.8,0.1-1.6,0.1-2.5,0.2c-0.8,0.1-1.7,0.2-2.5,0.3s-1.6,0.2-2.3,0.3s-1.3,0.2-1.9,0.4c-0.6,0.1-1,0.2-1.4,0.3l0,0
		c-0.3,0.1-0.6,0.2-0.9,0.3c-0.3,0.1-0.6,0.2-0.9,0.3c-0.4,0.2-0.7,0.5-0.9,0.8c-0.2,0.4-0.4,0.7-0.5,1.1c-0.1,0.4-0.3,1-0.5,1.7
		c-0.2,0.6-0.3,1.3-0.5,1.9l0,0c-0.2,0.7-0.4,1.4-0.6,2.2l-0.1,0.2v0.2c0,0.4,0.2,1,0.6,1.4c0.5,0.4,1,0.5,1.3,0.5
		c0.4,0,0.8-0.1,1.4-0.1c0.5-0.1,1.2-0.2,2.1-0.4l-0.3-1.5l-1.5-0.1c0,0.7-0.1,1.4-0.2,2.3c-0.1,0.9-0.1,1.8-0.2,2.8
		c-0.1,1-0.2,2.1-0.2,3.2c-0.1,1.1-0.2,2.2-0.3,3.3l-0.4,5.5l0,0c-0.1,1-0.1,1.9-0.2,2.7c-0.1,0.8-0.1,1.6-0.2,2.4l-0.3,4v0
		c0,0.5,0,1.1,0.7,1.7c0.5,0.4,1,0.5,1.5,0.5c0.4,0,0.8,0,1.2-0.1c0.4-0.1,0.7-0.2,1.1-0.3c0.3-0.1,0.7-0.2,1-0.4
		c0.3-0.1,0.7-0.3,1.2-0.4l-0.5-1.4l0.5,1.4l1.4-0.5c0.7-0.2,1.4-0.5,1.9-0.7c0.3-0.1,0.5-0.2,0.7-0.3c0.1,0,0.2-0.1,0.3-0.2
		c0.1-0.1,0.3-0.1,0.6-0.6l-1.3-0.7l1.3,0.7l0.4-0.7l0.1-0.3l0.8-8.7l-1.5-0.1l-0.2,1.5c0.3,0,0.7,0.1,1,0.1c0.3,0,0.7,0,1,0
		c2,0,4-0.3,5.9-0.9c2-0.6,3.8-1.5,5.5-2.7c0.9-0.6,1.7-1.3,2.3-2.1c0.7-0.8,1.3-1.6,1.8-2.6c0.5-1,0.9-2,1.1-3.2
		c0.3-1.2,0.4-2.5,0.4-3.9c0-2.2-0.4-4.1-1.2-5.6L118.8,48.3l-1.3,0.7c0.5,1,0.9,2.4,0.9,4.2c0,1.2-0.1,2.3-0.3,3.2
		c-0.2,0.9-0.5,1.7-0.9,2.5c-0.4,0.7-0.8,1.4-1.4,1.9c-0.5,0.6-1.2,1.2-1.9,1.7c-1.4,1-2.9,1.8-4.6,2.3c-1.7,0.5-3.4,0.8-5,0.8
		c-0.3,0-0.6,0-0.8,0c-0.3,0-0.6,0-0.8-0.1l-1.5-0.2l-0.9,9.6l-0.2,0.4l0,0l0,0l1.2,0.6l-0.7-1.1c0,0.1-0.2,0-0.5,0.5l1.2,0.6
		l-0.7-1.1l0.2,0.3l-0.1-0.3l0,0l0.2,0.3l-0.1-0.3c0,0-0.2,0.1-0.5,0.2c-0.5,0.2-1.1,0.4-1.8,0.6l-1.5,0.5l0,0
		c-0.5,0.2-0.9,0.3-1.2,0.5c-0.3,0.1-0.6,0.2-0.9,0.3c-0.2,0.1-0.5,0.1-0.7,0.2c-0.2,0-0.4,0.1-0.6,0.1v0.8l0.5-0.5
		c-0.2-0.2-0.5-0.2-0.5-0.2v0.8l0.5-0.5L93,78.2l1-0.3c0-0.1-0.1-0.3-0.3-0.5L93,78.2l1-0.3L93.5,78l0.5-0.1l0-0.1L93.5,78l0.5-0.1
		l0,0h-1.5L94,78l0.3-3.9c0-0.8,0.1-1.5,0.2-2.3c0.1-0.8,0.1-1.7,0.2-2.7l-1.5-0.1l1.5,0.1l0.4-5.5c0.1-1.1,0.2-2.2,0.3-3.4
		c0.1-1.1,0.2-2.2,0.2-3.2c0.1-1,0.1-2,0.2-2.8c0.1-0.9,0.1-1.6,0.2-2.3l0.1-2l-2,0.4c-0.8,0.2-1.5,0.3-1.9,0.4
		c-0.5,0.1-0.8,0.1-0.9,0.1v1l0.6-0.7c-0.3-0.3-0.6-0.3-0.6-0.3v1l0.6-0.7l-0.7,0.8l1.1,0c0-0.1-0.1-0.6-0.4-0.8l-0.7,0.8l1.1,0
		h-1.5l1.4,0.4c0.2-0.8,0.4-1.5,0.6-2.2l-1.5-0.4l1.4,0.4c0.2-0.6,0.3-1.2,0.5-1.9c0.2-0.7,0.3-1.2,0.4-1.6l0.1-0.2l0,0l0,0l0,0l0,0
		l0,0l-0.3-0.2l0.2,0.4l0.2-0.1l-0.4-0.2l0.2,0.4c0,0,0.1-0.1,0.3-0.1c0.3-0.1,0.6-0.2,1-0.3l-0.5-1.4L95,46
		c0.2-0.1,0.6-0.2,1.1-0.3c0.5-0.1,1.1-0.2,1.7-0.3s1.4-0.2,2.2-0.3s1.6-0.2,2.4-0.3c0.8-0.1,1.6-0.1,2.4-0.2
		c0.8-0.1,1.5-0.1,2.1-0.1c1.7,0,3.2,0.2,4.7,0.5c1.4,0.3,2.6,0.8,3.6,1.4c1,0.6,1.7,1.5,2.3,2.6L118.8,48.3z"/>
	<g>
		<path class="st8" d="M187.6,117.1l-3.1-14.1c-0.1-0.3-0.2-0.5-0.4-0.7c-0.2-0.1-0.5-0.2-0.9-0.2c-0.2,0-0.5,0-0.8,0
			s-0.7,0.1-1.1,0.1c-1,0.1-1.9,0.3-2.6,0.4c-0.7,0.1-1.3,0.2-1.7,0.4c-0.4,0.1-0.7,0.3-0.9,0.5c-0.2,0.2-0.3,0.5-0.3,0.8
			c0,0.2,0,0.5,0.1,0.8l1.6,6.9l-3.9,6.8l-4.7-18.2c-0.1-0.3-0.2-0.6-0.4-0.7s-0.4-0.2-0.9-0.2c-0.3,0-0.6,0-1,0
			c-0.4,0-0.8,0.1-1.4,0.2c-1.2,0.1-2.2,0.2-2.9,0.3c-0.8,0.1-1.4,0.3-1.8,0.4c-0.5,0.2-0.8,0.4-1,0.7c-0.2,0.3-0.3,0.6-0.3,1
			c0,0.1,0,0.2,0.1,0.3c0,0.1,0.1,0.2,0.1,0.4l8.9,31.4c0.1,0.4,0.4,0.7,0.8,0.7c0.2,0,0.4,0,0.6-0.1s0.4-0.2,0.7-0.3
			c0.2-0.1,0.5-0.3,0.7-0.5c0.2-0.2,0.4-0.3,0.6-0.5c0.2-0.2,0.5-0.4,0.8-0.7s0.7-0.6,1-0.9c0.3-0.3,0.7-0.6,0.9-0.9
			c0.3-0.3,0.5-0.6,0.5-0.7l4.9-10.1l3.9,14c0.1,0.2,0.2,0.4,0.3,0.6c0.1,0.2,0.3,0.3,0.6,0.3c0.2,0,0.4-0.1,0.6-0.2
			c0.8-0.4,1.5-0.7,2-0.9c0.5-0.2,1-0.4,1.3-0.6c0.3-0.2,0.6-0.3,0.8-0.5c0.2-0.2,0.4-0.4,0.6-0.6c0.2-0.3,0.3-0.6,0.5-1
			c0.2-0.4,0.4-0.9,0.6-1.5l9.5-28.9c0,0,0-0.1,0-0.2s0-0.2,0-0.2c0-0.2,0-0.3-0.1-0.5c-0.1-0.2-0.2-0.3-0.4-0.3l-0.1,0l-0.1,0
			l-6.8,1.6c-0.3,0.1-0.5,0.2-0.6,0.4c-0.1,0.2-0.2,0.4-0.3,0.7L187.6,117.1z M142.7,134.1c1.7-0.4,3.3-1,4.7-1.8
			c1.5-0.8,2.8-1.8,4-2.9c1.2-1.1,2.2-2.4,3.1-3.9s1.5-3,2-4.7c0.5-1.7,0.7-3.5,0.7-5.5c0-3-0.4-5.6-1.3-7.7s-2.1-3.8-3.8-5.2
			s-3.7-2.4-6-3.2c-2.4-0.7-5-1.3-8-1.6c-0.2,0-0.4,0.1-0.5,0.4c-0.1,0.3-0.2,0.6-0.3,1c-0.1,0.4-0.2,0.7-0.3,1
			c-0.1,0.3-0.2,0.4-0.4,0.4c-2,0.5-3.9,1.3-5.6,2.4c-1.7,1.1-3.2,2.4-4.4,4c-1.2,1.6-2.2,3.4-2.9,5.4c-0.7,2-1,4.2-1,6.6
			c0,2.1,0.3,4.2,1,6.1c0.7,1.9,1.6,3.6,2.9,5.1c1.2,1.5,2.8,2.6,4.6,3.5c1.8,0.9,3.9,1.3,6.2,1.3
			C139.3,134.7,141,134.5,142.7,134.1z M133.2,115.7c0.1-0.8,0.3-1.5,0.6-2.3c0.3-0.8,0.6-1.5,1-2.3s0.9-1.4,1.5-1.9
			c0.6-0.6,1.2-1,1.9-1.3c0.7-0.3,1.5-0.5,2.4-0.5c1.1,0,2.2,0.2,3,0.7s1.6,1.1,2.2,1.9c0.6,0.8,1,1.7,1.3,2.7s0.4,2.1,0.4,3.2
			c0,0.8,0,1.6-0.1,2.5s-0.2,1.7-0.4,2.5c-0.2,0.8-0.5,1.6-0.9,2.3c-0.4,0.7-0.8,1.4-1.4,2s-1.2,1-2,1.4c-0.8,0.4-1.7,0.6-2.7,0.6
			c-1.3,0-2.5-0.3-3.4-0.8c-0.9-0.6-1.6-1.3-2.2-2.2c-0.6-0.9-0.9-1.9-1.2-3c-0.2-1.1-0.4-2.2-0.4-3.3
			C133,117.2,133.1,116.5,133.2,115.7z M111.2,120L100,99.9c-0.1-0.2-0.2-0.3-0.3-0.4s-0.2-0.1-0.4-0.1l-0.2,0l-0.2,0l-6.1,3.5
			c-0.3,0.2-0.4,0.3-0.6,0.4c-0.1,0.1-0.2,0.2-0.2,0.3c0,0.1,0.1,0.3,0.3,0.7c0.2,0.4,0.4,0.7,0.6,1.1c0.2,0.4,0.5,0.8,0.6,1.1
			s0.3,0.5,0.3,0.6c-0.1,2.1-0.2,4.4-0.4,6.7s-0.3,4.7-0.5,7.1c-0.2,2.4-0.4,4.7-0.6,6.9c-0.2,2.3-0.4,4.3-0.5,6.3
			c0,0.3,0.1,0.5,0.2,0.7c0.2,0.1,0.3,0.2,0.6,0.2c0.1,0,0.4,0,0.7-0.1s0.7-0.2,1.2-0.4c0.4-0.1,0.9-0.3,1.4-0.5
			c0.5-0.2,1-0.3,1.4-0.5c0.5-0.2,0.8-0.3,1.2-0.4s0.6-0.2,0.7-0.3c0.2-0.1,0.3-0.2,0.3-0.3c0-0.1,0.1-0.3,0.1-0.4l1-13.4l10.7,16.4
			c0.5-0.3,0.9-0.5,1.3-0.7c0.4-0.2,0.8-0.5,1.3-0.7s0.9-0.5,1.3-0.8c0.4-0.3,0.8-0.5,1.2-0.7c0.4-0.2,0.6-0.4,0.8-0.5
			c0.3-0.2,0.5-0.3,0.7-0.5c0.2-0.1,0.3-0.2,0.4-0.4c0.1-0.1,0.1-0.2,0.2-0.4c0-0.1,0-0.3,0-0.4c0-0.1,0-0.3,0-0.5s0-0.4,0-0.7v-0.3
			v-0.2l0-0.2l0.1-3.9c0-1,0.1-2,0.1-3.1c0-1.1,0.1-2.3,0.1-3.4s0-2.3,0.1-3.4s0-2.2,0-3.1V110c0-0.7,0-1.5,0-2.4s0-1.8,0.1-2.7
			c0-0.9,0.1-1.7,0.1-2.5c0.1-0.8,0.1-1.3,0.2-1.7c0-0.4,0-0.6-0.1-0.8s-0.2-0.2-0.4-0.2c-0.2,0-0.4,0-0.6,0.1l-5.9,1.4
			c-0.3,0.1-0.5,0.2-0.6,0.5c-0.1,0.2-0.2,0.6-0.3,1.1V120z"/>
		<path d="M187.6,117.1l1.5-0.3l-3.1-14.2l0,0c-0.1-0.5-0.4-1-0.9-1.5c-0.7-0.5-1.3-0.5-1.9-0.5c-0.3,0-0.6,0-1,0.1
			c-0.4,0-0.8,0.1-1.2,0.1c-1,0.1-1.9,0.3-2.6,0.4c-0.8,0.1-1.4,0.2-1.9,0.4c-0.6,0.2-1.1,0.4-1.6,1c-0.5,0.5-0.6,1.2-0.6,1.8h1.5
			l-1.5-0.2c0,0.1,0,0.2,0,0.3c0,0.4,0.1,0.7,0.2,1.1l1.5-0.4l-1.5,0.3l1.5,6.3l-1.8,3.1l-3.8-14.7l0,0c-0.2-0.4-0.3-0.9-0.7-1.3
			c-0.8-0.7-1.3-0.6-1.9-0.6c-0.3,0-0.7,0-1.1,0c-0.4,0-0.9,0.1-1.5,0.2l0.2,1.5l-0.1-1.5c-1.2,0.1-2.2,0.2-3,0.3
			c-0.8,0.1-1.5,0.3-2.2,0.5c-0.6,0.3-1.2,0.6-1.6,1.2c-0.4,0.5-0.6,1.2-0.5,1.8c0,0.3,0,0.5,0.1,0.8c0,0.1,0.1,0.2,0.1,0.3l0,0
			l8.9,31.4c0.1,0.4,0.3,0.9,0.8,1.2c0.4,0.4,1,0.5,1.5,0.5c0.4,0,0.8-0.1,1.1-0.2c0.3-0.1,0.6-0.3,0.9-0.4c0.3-0.2,0.6-0.4,0.8-0.6
			c0.2-0.2,0.5-0.4,0.7-0.6c0.2-0.2,0.5-0.4,0.9-0.7c0.4-0.3,0.7-0.6,1.1-1c0.4-0.3,0.7-0.7,1-1c0.3-0.4,0.6-0.7,0.8-1.2l-1.4-0.6
			l1.3,0.7l3.2-6.6l2.9,10.2l0,0c0.1,0.3,0.3,0.7,0.5,1c0.4,0.6,1.2,1,1.8,0.9c0.6,0,0.9-0.2,1.3-0.4l-0.7-1.3l0.6,1.4
			c0.8-0.4,1.4-0.7,1.9-0.9c0.5-0.2,1-0.4,1.4-0.6c0.4-0.2,0.8-0.4,1.1-0.7c0.3-0.3,0.6-0.6,0.9-1c0.2-0.4,0.4-0.8,0.6-1.2
			c0.2-0.4,0.4-0.9,0.6-1.6l0,0l9.5-28.9l-1.4-0.5l1.3,0.7c0.2-0.5,0.2-0.6,0.2-0.7c0-0.1,0-0.2,0-0.3c0-0.4-0.1-0.8-0.3-1.2
			c-0.2-0.7-1.2-1.2-1.8-1.2c-0.3,0-0.4,0.1-0.6,0.1l0,0l0.4,1.1v-1.1c-0.2,0-0.3,0-0.4,0.1l0.4,1.1v-1.1h-0.2l-6.9,1.6
			c-0.5,0.1-1.2,0.4-1.6,1.1c-0.2,0.3-0.3,0.6-0.4,1l1.4,0.4l-1.4-0.4l-4.5,14.7L187.6,117.1l1.5-0.3L187.6,117.1l1.4,0.4l4.5-14.7
			l0,0c0.1-0.2,0.1-0.3,0.1-0.4l-0.8-0.4l0.5,0.8c0.1,0,0.2-0.2,0.3-0.4l-0.8-0.4l0.5,0.8l-0.2-0.4l0.1,0.4l0.1,0l-0.2-0.4l0.1,0.4
			l0,0l6.8-1.6l-0.3-1.5v1.5c0.3,0,0.5-0.1,0.6-0.1l-0.5-1.4l0.5,1.4l-0.3-1.1l0,1.1c0.2,0,0.3,0,0.3,0l-0.3-1.1l0,1.1v-1l-0.9,0.4
			c0.1,0.3,0.7,0.7,0.9,0.6v-1l-0.9,0.4l0.2-0.1l-0.2,0l0,0.1l0.2-0.1l-0.2,0h0.4l-0.4,0v0h0.4l-0.4,0l0,0.1l0.3,0l-0.3-0.1l0,0
			l0.3,0l-0.3-0.1l1.2,0.2l-1.1-0.6c-0.1,0.2-0.1,0.3-0.1,0.3l1.2,0.2l-1.1-0.6l-0.1,0.1l-9.5,29l1.4,0.5l-1.4-0.5
			c-0.2,0.6-0.4,1.1-0.6,1.5c-0.1,0.3-0.3,0.6-0.4,0.7c-0.1,0.1-0.2,0.2-0.2,0.3c-0.1,0.1-0.3,0.2-0.5,0.3c-0.3,0.1-0.7,0.3-1.2,0.6
			c-0.6,0.2-1.2,0.5-2,0.9l0,0l-0.2,0.1l0.2,0.6v-0.6c-0.1,0-0.2,0-0.2,0l0.2,0.6v-0.6v0.9l0.7-0.5c-0.1-0.2-0.6-0.4-0.7-0.4v0.9
			l0.7-0.5c0-0.1-0.1-0.1-0.1-0.3l-1.4,0.5l1.4-0.4l-5-17.8l-6.7,13.7l0,0l0.2,0.1l-0.2-0.1l0,0l0.2,0.1l-0.2-0.1
			c0,0-0.1,0.2-0.3,0.3c-0.2,0.3-0.5,0.6-0.8,0.9c-0.3,0.3-0.7,0.6-1,0.9c-0.3,0.3-0.6,0.5-0.8,0.7c-0.2,0.1-0.4,0.3-0.6,0.5
			c-0.2,0.1-0.4,0.3-0.5,0.4c-0.2,0.1-0.3,0.2-0.4,0.2l-0.1,0l0,0.1l0-0.1l0,0l0,0.1l0-0.1v0.8l0.5-0.6c-0.2-0.1-0.4-0.2-0.5-0.2
			v0.8l0.5-0.6l-0.3,0.4l0.5-0.1c0,0,0-0.1-0.2-0.2l-0.3,0.4l0.5-0.1l-8.9-31.4l-1.4,0.4l1.5-0.4c0-0.2-0.1-0.3-0.1-0.5l-0.3,0.1
			h0.3l0-0.1l-0.3,0.1h0.3l0-0.1l-0.1,0l0.1,0l0,0l-0.1,0l0.1,0l0,0c0,0,0.1-0.1,0.3-0.1c0.3-0.1,0.8-0.3,1.5-0.4
			c0.7-0.1,1.6-0.2,2.8-0.3l0.1,0l0,0c0.5-0.1,1-0.1,1.3-0.2c0.3,0,0.6,0,0.8,0c0.1,0,0.2,0,0.2,0l0.2-0.8l-0.6,0.6
			c0.2,0.2,0.4,0.2,0.4,0.2l0.2-0.8l-0.6,0.6l0.2-0.3l-0.3,0.2l0.1,0.1l0.2-0.3l-0.3,0.2c0,0,0,0.1,0.1,0.2l1.4-0.5l-1.5,0.4
			l5.6,21.7l6.1-10.4l-1.7-7.5l0,0c-0.1-0.2-0.1-0.4-0.1-0.4h-0.8l0.8,0.1l0-0.1h-0.8l0.8,0.1l0-0.1v-0.1l0,0l-0.4-0.1l0.3,0.3
			l0.1-0.1l-0.4-0.1l0.3,0.3l-0.2-0.2l0.2,0.2l0,0l-0.2-0.2l0.2,0.2c0,0,0.1-0.1,0.3-0.1c0.3-0.1,0.8-0.2,1.5-0.3
			c0.7-0.1,1.5-0.2,2.5-0.4c0.4-0.1,0.8-0.1,1.1-0.1c0.3,0,0.5,0,0.7,0c0.2,0,0.3,0,0.3,0l0.1-0.6l-0.4,0.5c0.2,0.1,0.3,0.1,0.3,0.1
			l0.1-0.6l-0.4,0.5l0.4-0.4l-0.5,0.3l0.1,0.2l0.4-0.4l-0.5,0.3l0.1-0.1l-0.1,0l0,0l0.1-0.1l-0.1,0l0,0l1.5-0.4l-1.5,0.3l4.4,19.7
			l1.7-5.4L187.6,117.1z M142.7,134.1l0.4,1.5c1.8-0.4,3.5-1.1,5.1-2c1.6-0.9,3-1.9,4.3-3.1c1.3-1.2,2.4-2.6,3.3-4.2
			c0.9-1.6,1.6-3.3,2.2-5.1c0.5-1.9,0.8-3.8,0.8-5.9c0-3.2-0.5-5.9-1.4-8.3c-1-2.3-2.4-4.3-4.2-5.8c-1.8-1.5-4-2.7-6.6-3.5
			c-2.5-0.8-5.3-1.3-8.3-1.6l-0.1,0h-0.1c-0.5,0-1,0.2-1.3,0.5c-0.3,0.3-0.5,0.6-0.6,0.9c-0.1,0.4-0.2,0.8-0.3,1.2
			c-0.1,0.3-0.1,0.6-0.2,0.8l0.6,0.2l-0.5-0.4c-0.2,0.2-0.2,0.2-0.2,0.2l0.6,0.2l-0.5-0.4l0.8,0.8v-1.2c-0.3,0-0.7,0.2-0.8,0.3
			l0.8,0.8v-1.2h-0.2l-0.2,0c-2.2,0.6-4.2,1.4-6,2.6c-1.8,1.2-3.4,2.6-4.8,4.3c-1.3,1.7-2.4,3.7-3.1,5.8c-0.7,2.2-1.1,4.6-1.1,7.1
			c0,2.3,0.4,4.5,1.1,6.6c0.7,2.1,1.8,4,3.1,5.6c1.4,1.6,3.1,2.9,5.1,3.9c2,1,4.3,1.4,6.8,1.4c1.9,0,3.8-0.2,5.6-0.7L142.7,134.1
			l-0.4-1.5c-1.6,0.4-3.2,0.6-4.9,0.6c-2.1,0-3.9-0.4-5.5-1.1c-1.6-0.8-3-1.8-4.1-3.1c-1.1-1.3-2-2.8-2.6-4.6
			c-0.6-1.8-0.9-3.6-0.9-5.6c0-2.3,0.3-4.3,0.9-6.2c0.6-1.9,1.5-3.5,2.6-5c1.1-1.4,2.4-2.6,4-3.6c1.6-1,3.3-1.7,5.1-2.2l-0.4-1.5
			v1.5c0.5,0,1-0.3,1.3-0.6c0.3-0.3,0.4-0.6,0.5-0.9c0.1-0.4,0.2-0.7,0.3-1.1c0.1-0.3,0.1-0.6,0.2-0.8l-0.6-0.2l0.5,0.5
			c0.2-0.2,0.2-0.2,0.2-0.2l-0.6-0.2l0.5,0.5l-0.8-0.8l0,1.1c0.3,0,0.6-0.1,0.8-0.3l-0.8-0.8l0,1.1v-1.5l-0.2,1.5
			c2.9,0.3,5.5,0.8,7.7,1.5c2.2,0.7,4,1.7,5.5,2.9c1.5,1.2,2.6,2.7,3.4,4.7c0.8,1.9,1.2,4.2,1.2,7.1c0,1.8-0.2,3.5-0.7,5.1
			c-0.4,1.6-1.1,3.1-1.8,4.4c-0.8,1.3-1.7,2.5-2.8,3.6c-1.1,1-2.3,1.9-3.7,2.7c-1.4,0.7-2.8,1.3-4.4,1.7L142.7,134.1z M133.2,115.7
			l1.5,0.2c0.1-0.7,0.3-1.4,0.5-2.1c0.2-0.7,0.5-1.4,0.9-2c0.3-0.6,0.7-1.1,1.2-1.6c0.4-0.4,0.9-0.8,1.5-1.1
			c0.5-0.2,1.1-0.4,1.8-0.4c0.9,0,1.7,0.2,2.3,0.5c0.7,0.4,1.2,0.9,1.7,1.5c0.5,0.6,0.8,1.4,1.1,2.2c0.3,0.9,0.4,1.8,0.4,2.7
			c0,0.7,0,1.5-0.1,2.3c-0.1,0.8-0.2,1.5-0.4,2.3c-0.2,0.7-0.4,1.4-0.8,2.1c-0.3,0.6-0.7,1.1-1.1,1.6c-0.4,0.4-0.9,0.8-1.6,1.1
			c-0.6,0.3-1.3,0.4-2.2,0.5l0.1,1.5v-1.5c-1.1,0-2-0.2-2.6-0.6c-0.7-0.4-1.3-1-1.7-1.7c-0.5-0.7-0.8-1.6-1-2.5c-0.2-1-0.3-2-0.3-3
			H133l1.5,0c0-0.6,0.1-1.2,0.2-1.9L133.2,115.7l-1.5-0.2c-0.1,0.8-0.2,1.6-0.2,2.4v0c0,1.2,0.1,2.4,0.4,3.6
			c0.3,1.3,0.7,2.4,1.4,3.5c0.7,1.1,1.6,2,2.7,2.6c1.2,0.7,2.6,1,4.1,1h0.1l0,0c1.2-0.1,2.3-0.3,3.2-0.8c0.9-0.4,1.8-1,2.4-1.7
			c0.7-0.7,1.2-1.5,1.7-2.4c0.4-0.8,0.7-1.7,1-2.6c0.2-0.9,0.4-1.8,0.5-2.8c0.1-0.9,0.1-1.8,0.1-2.6c0-1.2-0.2-2.4-0.5-3.6
			c-0.3-1.2-0.9-2.2-1.5-3.2c-0.7-1-1.6-1.7-2.7-2.3c-1.1-0.6-2.4-0.9-3.7-0.9c-1.1,0-2.1,0.2-3.1,0.6c-0.9,0.4-1.7,1-2.4,1.6
			c-0.7,0.7-1.2,1.4-1.7,2.3c-0.4,0.8-0.8,1.6-1.1,2.5c-0.3,0.8-0.5,1.7-0.7,2.6L133.2,115.7z M111.2,120l1.3-0.7l-11.1-20.1
			c-0.2-0.3-0.3-0.7-1.1-1C99.9,98,99.6,98,99.3,98c-0.2,0-0.3,0-0.5,0l0,0l0.1,0.8l0-0.8l-0.1,0l0.1,0.8l0-0.8h-0.4l-6.5,3.7l0,0
			c-0.3,0.2-0.5,0.3-0.7,0.5c-0.3,0.2-0.7,0.8-0.7,1.5c0,0.5,0.1,0.6,0.2,0.8c0.1,0.2,0.2,0.4,0.3,0.6c0.2,0.4,0.4,0.8,0.7,1.2
			c0.2,0.4,0.4,0.8,0.6,1.1c0.1,0.2,0.1,0.3,0.2,0.3l0,0l0,0v0l0,0l0,0l1.2-0.4h-1.3c0,0.4,0.1,0.4,0.1,0.4l1.2-0.4h-1.3h1.5
			l-1.5-0.1c-0.1,2.1-0.2,4.4-0.4,6.7c-0.2,2.4-0.3,4.7-0.5,7.1c-0.2,2.4-0.4,4.7-0.6,6.9c-0.2,2.3-0.4,4.4-0.5,6.3l0,0.1v0.1
			c0,0.5,0.1,1.3,0.8,1.8c0.4,0.4,1,0.5,1.5,0.5c0.5,0,0.7-0.1,1.1-0.2c0.4-0.1,0.8-0.2,1.3-0.4c0.5-0.1,0.9-0.3,1.4-0.5
			c0.5-0.2,1-0.4,1.4-0.5c0.5-0.2,0.9-0.3,1.2-0.5c0.3-0.1,0.6-0.2,0.8-0.3c0.4-0.2,1-0.6,1.1-1.3c0.1-0.2,0.1-0.4,0.1-0.6l0,0
			l0.6-9l9,13.9l1.2-0.7c0.5-0.3,0.9-0.5,1.3-0.7c0.4-0.2,0.8-0.5,1.3-0.8c0.5-0.3,0.9-0.5,1.3-0.8c0.4-0.3,0.8-0.5,1.2-0.7
			c0.4-0.2,0.6-0.4,0.9-0.5l-0.9-1.2l0.8,1.2c0.3-0.2,0.5-0.4,0.7-0.5c0.2-0.2,0.4-0.4,0.6-0.6c0.2-0.3,0.4-0.6,0.5-1
			c0-0.2,0.1-0.5,0.1-0.7c0-0.2,0-0.3,0-0.5c0-0.1,0-0.3,0-0.6v-0.3v-0.2h-0.5l0.4,0.1l0-0.1h-0.5l0.4,0.1l0-0.1l0.1-4
			c0-1,0.1-2,0.1-3.2c0-1.1,0.1-2.3,0.1-3.4c0-1.2,0-2.3,0.1-3.4c0-1.1,0-2.2,0-3.1V110c0-0.7,0-1.4,0-2.4c0-0.9,0-1.8,0.1-2.7
			c0-0.9,0.1-1.7,0.1-2.4c0.1-0.7,0.1-1.2,0.2-1.4l0-0.2v-0.2c0-0.5,0-0.9-0.4-1.6c-0.4-0.6-1.2-0.9-1.7-0.9c-0.4,0-0.7,0.1-1.1,0.2
			l0.5,1.4l-0.3-1.5l-5.9,1.4l0,0c-0.6,0.1-1.3,0.6-1.6,1.4c-0.1,0.4-0.3,0.8-0.4,1.3l0,0.2V120H111.2l1.3-0.7L111.2,120h1.5v-17.2
			h-1.5l1.5,0.4c0.1-0.5,0.2-0.8,0.3-0.9l-0.8-0.3l0.5,0.6c0.1-0.1,0.2-0.2,0.3-0.3l-0.8-0.3l0.5,0.6l-0.3-0.4l0.1,0.5
			c0,0,0.1,0,0.2-0.1l-0.3-0.4l0.1,0.5l-0.4-1.5l0.3,1.5l6-1.4l0.1,0l0.1,0v-1l-0.8,0.5c0.2,0.3,0.7,0.5,0.8,0.5v-1l-0.8,0.5
			l0.6-0.4l-0.7,0.1c0,0,0,0.1,0.1,0.3l0.6-0.4l-0.7,0.1c0,0,0,0.1,0,0.2h1.5l-1.5-0.4c-0.1,0.5-0.2,1.1-0.3,1.9
			c-0.1,0.8-0.1,1.6-0.1,2.6c0,0.9-0.1,1.8-0.1,2.7c0,0.9,0,1.7,0,2.4v1.3c0,0.9,0,2,0,3.1c0,1.1,0,2.2-0.1,3.4c0,1.1,0,2.3-0.1,3.4
			c0,1.1-0.1,2.2-0.1,3.1l-0.1,3.9l1.5,0.1l-1.5-0.3c0,0.2-0.1,0.3-0.1,0.5v0.2v0.3c0,0.3,0,0.5,0,0.7c0,0.2,0,0.3,0,0.4l0,0.1
			l0.7,0.1l-0.5-0.4c0,0-0.1,0.2-0.1,0.3l0.7,0.1l-0.5-0.4c0,0,0,0-0.1,0.1c-0.1,0.1-0.3,0.2-0.6,0.4l0,0c-0.1,0.1-0.3,0.2-0.7,0.4
			c-0.4,0.2-0.8,0.5-1.2,0.7c-0.4,0.3-0.9,0.5-1.3,0.8c-0.5,0.3-0.9,0.5-1.2,0.7c-0.4,0.2-0.8,0.5-1.3,0.7l0.8,1.3l1.3-0.8
			l-13.1-20.1l-1.3,17.9l1.5,0.1l-1.5-0.2l0,0.2l0.9,0.3l-0.4-0.9c-0.1,0-0.4,0.3-0.5,0.6l0.9,0.3l-0.4-0.9c-0.1,0-0.3,0.1-0.6,0.3
			c-0.3,0.1-0.7,0.3-1.2,0.4c-0.4,0.2-0.9,0.3-1.4,0.5c-0.5,0.2-0.9,0.3-1.4,0.5c-0.4,0.1-0.8,0.2-1.1,0.3c-0.2,0-0.3,0.1-0.3,0.1
			l-0.1,0l0.1,0.6v-0.6l-0.1,0l0.1,0.6v-0.6v0.6l0.4-0.5c-0.1-0.1-0.3-0.2-0.4-0.1v0.6l0.4-0.5l-0.6,0.7l0.9-0.3
			c0-0.1-0.1-0.3-0.3-0.4l-0.6,0.7l0.9-0.3l-0.5,0.2l0.5-0.1l0-0.1l-0.5,0.2l0.5-0.1v0h-1.5l1.5,0.1c0.2-1.9,0.3-4,0.5-6.2
			c0.2-2.3,0.4-4.6,0.6-7c0.2-2.4,0.4-4.8,0.5-7.1c0.2-2.4,0.3-4.6,0.4-6.8l0,0v0c-0.1-0.7-0.2-0.6-0.2-0.8
			c-0.1-0.2-0.2-0.3-0.3-0.5c-0.2-0.4-0.4-0.7-0.7-1.2c-0.2-0.4-0.4-0.8-0.6-1.1c-0.1-0.2-0.1-0.3-0.2-0.3l-0.1,0l0.1,0l0,0l-0.1,0
			l0.1,0l-1.1,0.3l1.2,0c0-0.2,0-0.3,0-0.3l-1.1,0.3l1.2,0h-1.1l0.7,0.9c0.1-0.1,0.4-0.4,0.4-0.9h-1.1l0.7,0.9c0,0,0.2-0.1,0.4-0.2
			l-0.8-1.3l0.7,1.3l6.1-3.5l-0.7-1.3v1.5c0.2,0,0.3,0,0.5,0l-0.1-0.5v0.5l0.1,0l-0.1-0.5v0.5h0l0.1-0.7l-0.2,0.6l0.1,0l0.1-0.7
			l-0.2,0.6l0.4-1l-0.8,0.7c0.1,0.1,0.2,0.2,0.4,0.3l0.4-1l-0.8,0.7l0.4-0.3l-0.4,0.3l0,0.1l0.4-0.3l-0.4,0.3l0,0l14,25.2V120H111.2
			z"/>
	</g>
</g>
</svg>
