<?xml version="1.0" encoding="utf-8"?>
<!-- Generator: Adobe Illustrator 25.4.1, SVG Export Plug-In . SVG Version: 6.00 Build 0)  -->
<svg version="1.1" id="Layer_1" xmlns="http://www.w3.org/2000/svg" xmlns:xlink="http://www.w3.org/1999/xlink" x="0px" y="0px"
	 viewBox="0 0 1635 697.6" style="enable-background:new 0 0 1635 697.6;" xml:space="preserve">
<style type="text/css">
	.st0{fill:#FFFFFF;}
	.st1{fill:#A01F24;}
	.st2{fill:#EC2024;}
	.st3{fill:#FF0000;}
	.st4{fill:#F4FAF8;}
	.st5{fill:url(#SVGID_1_);}
	.st6{fill:url(#SVGID_00000052071094926548767630000003233885429095262124_);}
	.st7{fill:#575757;}
	.st8{fill:#353535;}
	.st9{fill:#5F6060;}
	.st10{fill:#981D20;}
	.st11{fill:url(#SVGID_00000033341170146775392330000003156590934333854608_);}
	.st12{fill:url(#SVGID_00000157299678293372040200000012698852303676892808_);}
	.st13{fill:url(#SVGID_00000118384679625610552550000001073157897051643804_);}
</style>
<circle class="st0" cx="1359.8" cy="497.9" r="99.2"/>
<g>
	<path class="st1" d="M287,577.2c-9.1,1.4-19,1-28.5,0.1c-25.7-2.3-51.4-5.2-77-8.2c-11.5-1.4-14.9,0.3-16.2,10.2
		c-0.3,2.5-0.6,5.1-0.9,7.5c6.4,8.3,21.7,0.5,27.8,13.9c-11.8-4.8-21.3-1.4-30.9-1.1c-14.5,0.5-11.8,12.2-20.5,14.5
		c5.1,2.7,9.2,4.9,13.4,7.1c-0.3,0.7-0.6,1.3-1,2c1.4-0.1,3.2,0.1,4.2-0.5c20.8-12.4,43.2-6,64.3,0.5c26.5,8.2,53.8,6.5,80.5,11.3
		c10.8,1.9,21.6,4.2,32.5,5.1c4.6,0.4,11.4-1.2,13.7-4c12.2-15,30.5-17.2,49.9-15.7c7.8,0.6,15.5,5,23.1,7.9
		c7.2,2.7,14.1,5.8,24.3,10.1c-1.9-7.8-3.1-12.5-4.6-18.6c21,2.8,40.9,5.5,60.8,8.2c0.1-0.6,0.2-1.2,0.3-1.8
		c-5.6-1.2-11.3-2.5-16.9-3.7c-0.1-0.6-0.2-1.3-0.3-1.9c8.5-2.4,17-4.9,25.5-7.3c-0.2-0.8-0.4-1.7-0.5-2.5c5,1.6,10,3.2,15.1,4.8
		c14.3,4.3,27.9,9.3,44.1,7.1c8.4-1.1,18.6,5,28,7.9c2.8,0.9,5.6,2.3,8.5,2.6c10.3,1.1,20.6,1.9,31,2.8c0.8,0.1,1.7,0.5,2.2,0.2
		c28.6-11.9,53.6,7.5,80.6,10.2c2.2,0.2,4,3.4,6.3,3.9c4.3,0.9,10.4,2.5,13.1,0.9c8.4-5.2,18.3-3.2,22.9,1.4c8,8,17.8,7.3,27.9,8.4
		c-8.3-3.7-16.6-7.4-28.4-12.8c12.4-0.8,22-1.1,31.6-2.1c5.8-0.6,11.7-1.5,16.9-3.5c14.3-5.5,28.1-11.7,45.2-8.3
		c2.5,0.5,5.5-1.2,8.4-1.8c5.4-1.1,11-3.4,16.3-2.8c31.9,3.5,62.3-2.3,93.3-5.1c4.8-0.4,10.1,2.3,15.3,3.3c3.3,0.6,7.5,1.6,10.1,0.5
		c12.3-4.9,24.9-3.3,37.6-0.7c8.1,1.7,15.7,4.6,23.5-0.7c2.6-1.8,8-1.1,12.1-1c47.7,1.1,95.4,2.4,143.1,3.5
		c5.2,0.1,10.3-0.4,15.5-0.6c8.4,1.4,16.8,2.9,25.2,3.9c2.9,0.4,6-1,9-0.7c26.3,3,52.6,6.5,78.9,9.2c13.4,1.4,26.9,1.3,40.3,2.3
		c3.7,0.3,8.4,0.9,11,2.9c19.8,14.7,41.4,22.2,67.4,18.9c7.8-1,16.7,1,24.8,2.7c9,1.9,14.6-0.5,19-9.1
		c-16.8-6.2-33.6-12.4-50.5-18.4c-1.6-0.6-4.1-0.7-5.6-0.1c-18.8,7.2-36.8,1.4-55.1-4c-13.2-3.9-26.6-5.2-40.2-1.4
		c-5.6,1.5-12.7-0.3-19.1-0.6c-35-1.8-70-3.5-105.1-5.3c-26.5-1.1-52.9-1.5-79.2-3.1c-32.5-1.9-65.1-6.6-97.5-6.4
		c-37.5,0.3-75.7-3.8-112.5,5.4c-13.1,3.3-28,1.9-42.1,2.6c-0.3-0.9-0.6-1.8-0.8-2.7c1.1-1,2.1-2.4,3.5-2.9
		c24.1-7.4,48.6-13.7,75.1-11.9c7.8,0.5,15.8,2.2,23.4,4.4c13.2,3.8,24.8-0.1,36.6-3c3.7-0.9,6.8-3.5,10.2-5.1
		c2.2-1,4.5-2.3,6.9-2.5c7.1-0.8,14.4-2.3,21.3-1.4c16.1,2.3,30.6,3,42.5-8.6c3.3-3.2,12.5-2,19.8-2.9c0.1-0.8,0.4-2.6,0.7-5.1
		c-4.8-0.1-9.5,0.7-13.6-0.4c-13-3.6-23.3-3.8-30.2,8.3c-1.9,3.4-11.1,3.9-17.2,5c-12,2.2-24.4,3.5-36.3,6.1
		c-16.2,3.6-32.1,7.1-47.5-3.6c-0.6-0.4-1.4-0.9-2-0.8c-15.5,1-31.3,1-46.5,3.4c-14.8,2.3-28.9,6.5-43.3-2.6
		c-2.5-1.6-6.2-1.8-12.2-3.4c2.3,3.9,3.4,5.9,4.6,7.8c3.2,4.9-0.4,11.3-6.5,11.1c-7.9-0.3-15.8-1.2-24.8-1.9c1.1,2.4,2,4.5,3.3,7.5
		c-17.9,0.9-34.3,11.2-51.1,3.4c-16.1,4.9-27.6,0.6-36.3-10.9c-1.8,2.5-2.6,3-2.5,3.4c1.1,3.2,2.3,6.5,3.5,9.7
		c-4.6,0.3-9.3,1-14,0.9c-2.9-0.1-6.9-0.8-8.6-2.5c-10.4-10.6-21.9-6.3-34.4-5.4c-11.5,0.8-23.7-3.9-35.6-5.2
		c-5.4-0.6-11,1.1-16.4,2.1c-7.8,1.4-15.3,4-22.8-2.4c-9.4-8.1-18.7-16.5-29.5-22.9c-8.3-5-18.8-7.1-28.4-10.5
		c-2.5-0.9-4.9-1.7-8.9-3.1c9-11.3,15.7-23.3,34.7-24.9c-13.2-5.4-16.8-4.5-22.8,5.1c-6,9.7-12.1,18.8-27.8,18.8
		c-3.4,0-6.5,4.2-9.2,7.7c13.2,0.1,25.2,10.1,38.9,2.1c5.9-3.4,17.5,3.8,22.2,11.9c-13.6,3.4-26.4,3.7-40.3-3
		c-7.3-3.5-17.6-3.1-26.5-3c-11.4,0.2-21.8-0.9-31.3-8.7c11.3-12.7,33.6-3.8,47.1-16.5c-19.3,3.5-36.4,6.2-53.1,10
		c-4.8,1.1-9,4.9-12.4,8.3c-4.2,4.3-8.1,6.2-14.4,1.7c1-3,1.9-6,3.3-10.2c-8.2,4.9-14.9,2.7-23.2,0.2c-6.1-1.9-15,1.4-21.8,4
		c-9.6,3.7-17.8,10.2-27.6,13.3c-18.5,5.7-36.9,9.1-58.3,2.3c-13.7-4.4-30.2-2.1-45.4-2.1c-10.8,0-21.6,2.2-32.3,1.4
		c-17.9-1.3-35.8-4.1-54.2-8c8.7-1,17.4-2.7,26.2-2.9c16.2-0.4,32.6,1,48.6-0.2c11.2-0.9,22-5,32.9-7.6c8.2,1.1,16.3,2.2,24.8,3.4
		c2.4-1.2,6.1-3,10.5-5.1c-0.7-5.6-8.9-8.5-18.7-4.9c-5.6,2.1-11,4.6-16.4,7C318,571.2,302.7,574.8,287,577.2z M710.7,666
		c15.8,3.5,31.3,8.4,47.1,12c8.8,2,18,2.6,27.4,2.6c-8-5.4-13.2-14.2-25.1-12.8c-2.2,0.3-4.8-1.7-7.3-2c-7.9-1.1-15.7-1.9-23.6-2.8
		c-17.1-1.9-34.2-3.7-51.2-5.5c-1.9-0.2-3.8,0-5.7,0.1c0,0.6-0.1,1.2-0.1,1.8C685,661.6,698,663.2,710.7,666z M786.9,612.6
		c-14.5-9.8-25.9-10.4-32.9-1.2C765.7,611.8,775.7,612.2,786.9,612.6z M661.8,599.8c11.5,4,19.1,4.7,24-3.3c-0.5-1-1-2-1.5-3
		C677.6,595.4,671,597.3,661.8,599.8z M874.6,684c-1.6-0.6-3.5-0.5-5.3-0.7c-0.3,0.8-0.5,1.5-0.8,2.3c11.7,4,23.5,8,35.2,12
		c0.3-0.9,0.7-1.8,1-2.6C894.7,691.3,884.6,687.6,874.6,684z M802.8,665.7c-0.2,0.8-0.3,1.6-0.5,2.5c10.9,2,21.9,4,32.8,6
		c0.3-1,0.5-1.9,0.8-2.9C824.8,669.4,813.8,667.6,802.8,665.7z M130.6,616.1c-0.5-0.8-1-1.6-1.5-2.4c-7.1,2.9-14.1,5.9-21.2,8.8
		c1.1,1.6,2.1,3.2,3.2,4.8C117.5,623.6,124.1,619.8,130.6,616.1z M666.9,560.1c-8.6,1.8-16.6,3.5-24.7,5.1
		C652.5,569.9,660.6,568.3,666.9,560.1z"/>
	<path class="st2" d="M1229.8,628.4c-26.4-0.9-52.8-1.4-79.1-2.9c-32.5-1.9-65.1-6.6-97.5-6.4c-37.5,0.3-75.7-3.8-112.5,5.4
		c-13.1,3.3-28,1.9-42.1,2.6c-0.3-0.9-0.6-1.8-0.8-2.7c1.1-1,2.1-2.4,3.5-2.9c24.1-7.4,48.6-13.7,75.1-11.9
		c7.8,0.5,15.8,2.2,23.4,4.4c13.2,3.8,24.8-0.1,36.6-3c3.7-0.9,6.8-3.5,10.2-5.1c2.2-1,4.5-2.3,6.9-2.5c7.1-0.8,14.4-2.3,21.3-1.4
		c16.1,2.3,30.6,3,42.5-8.6c3.3-3.2,12.5-2,19.8-2.9c0.1-0.8,0.4-2.6,0.7-5.1c-4.8-0.1-9.5,0.7-13.6-0.4c-13-3.6-23.3-3.8-30.2,8.3
		c-1.9,3.4-11.1,3.9-17.2,5c-12,2.2-24.4,3.5-36.3,6.1c-16.2,3.6-32.1,7.1-47.5-3.6c-0.6-0.4-1.4-0.9-2-0.8c-15.5,1-31.3,1-46.5,3.4
		c-14.8,2.3-28.9,6.5-43.3-2.6c-2.5-1.6-6.2-1.8-12.2-3.4c2.3,3.9,3.4,5.9,4.6,7.8c3.2,4.9-0.4,11.3-6.5,11.1
		c-7.9-0.3-15.8-1.2-24.8-1.9c1.1,2.4,2,4.5,3.3,7.5c-17.9,0.9-34.3,11.2-51.1,3.4c-16.1,4.9-27.6,0.6-36.3-10.9
		c-1.8,2.5-2.6,3-2.5,3.4c1.1,3.2,2.3,6.5,3.5,9.7c-4.6,0.3-9.3,1-14,0.9c-2.9-0.1-6.9-0.8-8.6-2.5c-10.4-10.6-21.9-6.3-34.4-5.4
		c-11.5,0.8-23.7-3.9-35.6-5.2c-5.4-0.6-11,1.1-16.4,2.1c-7.8,1.4-15.3,4-22.8-2.4c-9.4-8.1-18.7-16.5-29.5-22.9
		c-8.3-5-18.8-7.1-28.4-10.5c-2.5-0.9-4.9-1.7-8.9-3.1c9-11.3,15.7-23.3,34.7-24.9c-13.2-5.4-16.8-4.5-22.8,5.1
		c-6,9.7-12.1,18.8-27.8,18.8c-3.4,0-6.5,4.2-9.2,7.7c13.2,0.1,25.2,10.1,38.9,2.1c5.9-3.4,17.5,3.8,22.2,11.9
		c-13.6,3.4-26.4,3.7-40.3-3c-7.3-3.5-17.6-3.1-26.5-3c-11.4,0.2-21.8-0.9-31.3-8.7c11.3-12.7,33.6-3.8,47.1-16.5
		c-19.3,3.5-36.4,6.2-53.1,10c-4.8,1.1-9,4.9-12.4,8.3c-4.2,4.3-8.1,6.2-14.4,1.7c1-3,1.9-6,3.3-10.2c-8.2,4.9-14.9,2.7-23.2,0.2
		c-6.1-1.9-15,1.4-21.8,4c-9.6,3.7-17.8,10.2-27.6,13.3c-18.5,5.7-36.9,9.1-58.3,2.3c-13.7-4.4-30.2-2.1-45.4-2.1
		c-10.8,0-21.6,2.2-32.3,1.4c-17.9-1.3-35.8-4.1-54.2-8c8.7-1,17.4-2.7,26.2-2.9c16.2-0.4,32.6,1,48.6-0.2c11.2-0.9,22-5,32.9-7.6
		l0.1,0.2c-15.8-7-31.1-3.4-46.8-1c-9.1,1.4-19,1-28.5,0.1c-25.7-2.3-51.4-5.2-77-8.2c-11.5-1.4-14.9,0.3-16.2,10.2
		c-0.3,2.5-0.6,5.1-0.9,7.5c6.4,8.3,21.7,0.5,27.8,13.9c-11.8-4.8-21.3-1.4-30.9-1.1c-14.5,0.5-11.8,12.2-20.5,14.5
		c5.1,2.7,9.2,4.9,13.4,7.1c-0.3,0.7-0.6,1.3-1,2c1.4-0.1,3.2,0.1,4.2-0.5c20.8-12.4,43.2-6,64.3,0.5c26.5,8.2,53.8,6.5,80.5,11.3
		c10.8,1.9,21.6,4.2,32.5,5.1c4.6,0.4,11.4-1.2,13.7-4c12.2-15,30.5-17.2,49.9-15.7c7.8,0.6,15.5,5,23.1,7.9
		c7.2,2.7,14.1,5.8,24.3,10.1c-1.9-7.8-3.1-12.5-4.6-18.6c21,2.8,40.9,5.5,60.8,8.2c0.1-0.6,0.2-1.2,0.3-1.8
		c-5.6-1.2-11.3-2.5-16.9-3.7c-0.1-0.6-0.2-1.3-0.3-1.9c8.5-2.4,17-4.9,25.5-7.3c-0.2-0.8-0.4-1.7-0.5-2.5c5,1.6,10,3.2,15.1,4.8
		c14.3,4.3,27.9,9.3,44.1,7.1c8.4-1.1,18.6,5,28,7.9c2.8,0.9,5.6,2.3,8.5,2.6c10.3,1.1,20.6,1.9,31,2.8c0.8,0.1,1.7,0.5,2.2,0.2
		c28.6-11.9,53.6,7.5,80.6,10.2c2.2,0.2,4,3.4,6.3,3.9c4.3,0.9,10.4,2.5,13.1,0.9c8.4-5.2,18.3-3.2,22.9,1.4c8,8,17.8,7.3,27.9,8.4
		c-8.3-3.7-16.6-7.4-28.4-12.8c12.4-0.8,22-1.1,31.6-2.1c5.8-0.6,11.7-1.5,16.9-3.5c14.3-5.5,28.1-11.7,45.2-8.3
		c2.5,0.5,5.5-1.2,8.4-1.8c5.4-1.1,11-3.4,16.3-2.8c31.9,3.5,62.3-2.3,93.3-5.1c4.8-0.4,10.1,2.3,15.3,3.3c3.3,0.6,7.5,1.6,10.1,0.5
		c12.3-4.9,24.9-3.3,37.6-0.7c8.1,1.7,15.7,4.6,23.5-0.7c2.6-1.8,8-1.1,12.1-1c47.7,1.1,95.4,2.4,143.1,3.5
		c5.2,0.1,10.3-0.4,15.5-0.6L1229.8,628.4z"/>
	<path class="st2" d="M1229.7,628.3c8.4,1.4,16.8,2.9,25.2,3.9c2.9,0.4,6-1,9-0.7c26.3,3,52.6,6.5,78.9,9.2
		c13.4,1.4,26.9,1.3,40.3,2.3c3.7,0.3,8.4,0.9,11,2.9c19.8,14.7,41.4,22.2,67.4,18.9c7.8-1,16.7,1,24.8,2.7c9,1.9,14.6-0.5,19-9.1
		c-16.8-6.2-33.6-12.4-50.5-18.4c-1.6-0.6-4.1-0.7-5.6-0.1c-18.8,7.2-36.8,1.4-55.1-4c-13.2-3.9-26.6-5.2-40.2-1.4
		c-5.6,1.5-12.7-0.3-19.1-0.6c-35-1.8-70-3.5-105.1-5.3C1229.8,628.4,1229.7,628.3,1229.7,628.3z"/>
	<path class="st1" d="M672.1,659.5c12.9,2.1,25.9,3.7,38.6,6.5c15.8,3.5,31.3,8.4,47.1,12c8.8,2,18,2.6,27.4,2.6
		c-8-5.4-13.2-14.2-25.1-12.8c-2.2,0.3-4.8-1.7-7.3-2c-7.9-1.1-15.7-1.9-23.6-2.8c-17.1-1.9-34.2-3.7-51.2-5.5
		c-1.9-0.2-3.8,0-5.7,0.1C672.2,658.3,672.1,658.9,672.1,659.5z"/>
	<path class="st1" d="M333.7,577.9c8.2,1.1,16.3,2.2,24.8,3.4c2.4-1.2,6.1-3,10.5-5.1c-0.7-5.6-8.9-8.5-18.7-4.9
		c-5.6,2.1-11,4.6-16.4,7C333.9,578.2,333.7,577.9,333.7,577.9z"/>
	<path class="st1" d="M754,611.4c11.7,0.4,21.7,0.8,32.9,1.2C772.4,602.8,761,602.1,754,611.4z"/>
	<path class="st1" d="M684.3,593.6c-6.7,1.9-13.3,3.7-22.5,6.2c11.5,4,19.1,4.7,24-3.3C685.3,595.6,684.8,594.6,684.3,593.6z"/>
	<path class="st1" d="M904.7,694.9c-10-3.7-20.1-7.3-30.1-10.9c-1.6-0.6-3.5-0.5-5.3-0.7c-0.3,0.8-0.5,1.5-0.8,2.3
		c11.7,4,23.5,8,35.2,12C904,696.7,904.4,695.8,904.7,694.9z"/>
	<path class="st1" d="M835.8,671.3c-11-1.9-22-3.7-33.1-5.6c-0.2,0.8-0.3,1.6-0.5,2.5c10.9,2,21.9,4,32.8,6
		C835.3,673.2,835.6,672.2,835.8,671.3z"/>
	<path class="st2" d="M111,627.3c6.5-3.7,13.1-7.4,19.6-11.1c-0.5-0.8-1-1.6-1.5-2.4c-7.1,2.9-14.1,5.9-21.2,8.8
		C108.9,624.1,110,625.7,111,627.3z"/>
	<path class="st1" d="M642.2,565.2c10.3,4.6,18.4,3.1,24.7-5.1C658.3,561.9,650.3,563.6,642.2,565.2z"/>
</g>
<g>
	<path class="st0" d="M663.2,336.9c-0.7-0.8-2.1-1.5-2.1-2.4c-0.5-4.7-5.1-6.2-7.3-10.3c-0.7,3.6-1.2,6.4-1.7,9.2
		c0.1-9.6-8.1-14-12.4-20.7c-0.1-0.1-0.2-0.3-0.4-0.3c-3-0.9-6-2-9.1-2.4c-0.7-0.1-2.7,2.7-2.4,3.6c1,3.1,2.7,6.1,4.4,8.9
		c0.4,0.7,1.8,0.9,3,1.5c-8.5,0.8-16.4,1.6-24.3,2.4c-0.4-2.2-0.7-3.9-0.9-5c3.4-0.4,7.3,0.1,9.7-1.5c1.9-1.3,1.8-5.3,2.8-8.6
		c-3.3,0.2-5.3,0.2-7.1,0.3c-2.1-3.6,2-9.1-4.3-10.4c2-7.2-0.7-15.7-7.5-18.2c-3.4-1.3-6.2-4.1-9.6-4.2c-2.7-0.1-5.4,1.8-9.7,3.4
		c5.7-4.5,0.8-5.4-1-7.4c2.2-1.1,4.1-2,5-2.4c0.6-4.5,1.3-8.1,1.4-11.8c0.1-2.9-1-5.8-0.7-8.7c0.4-3.6-1.6-5.1-4-7.1
		c-6.2-5.3-12.1-11.1-18-16.6c0.3-0.5,0.7-0.9,1-1.4c1.6,0.2,3.2,0.5,5.3,0.8c-1.1-8.4-5.6-14.9-10-21.1c-1.5-2.2-6.5-3.2-9.5-2.6
		c-3.9,0.8-6,0.1-7.7-4.8c-3.5,3.5-6.5,6.3-9.4,9.3c-0.5,0.5-6.5,7.1-7.3,7.7c-0.3,0.3-0.5,0.8-0.6,1.3c-3.1,12.1-11,22.5-11,36
		c0,13,0.2,26,1.7,38.9c0.5,4.6,0.4,9.2,1.1,13.7c0.8,4.7,1.4,9.8,3.7,13.7c3.5,5.9,6.7,12.6,14.4,14.9c7.8,2.4,13.6-0.5,18.9-6.7
		c4.7-5.6,7.2-11.8,9.5-18.3c0.7-2.1,0.8-4.5,1.1-6.8c0.8-5.4,3-7.6,8.3-8.1c2.8-0.2,5.7-0.3,8.5,0c8.8,0.8,12,3.9,13.5,12.3
		c4.4,24.1-4.9,37.8-24.5,54.4c-11.6,3.3-22.9,8.4-35.5,5.2c-12.9-3.3-26.1-5.9-35.4-16.8c-2.4-2.9-4.5-6-7.5-10
		c-3.7,8.5-11.2,8.6-18.3,10.2c-7.5,1.6-14.1-2.4-16.5-9.8c-3.3-9.9-7.2-19.6-10.6-29.5c-1.2-3.4-2.8-4.2-6.2-3.5
		c-7.5,1.4-15,2.4-23.7,3.7c0.7,9.6,1.2,19.1,2,28.7c0.6,6.8,1.6,13.6-1.4,20.1c-0.7,1.5-1.8,3.5-3.2,4c-5.6,1.9-11.4,3.9-17.2,4.7
		c-7.6,1-12.1-3.5-12.6-11.3c-0.9-13-1.8-26-2.7-39.5c-17.4,3.4-35,6.8-53.4,10.4c-0.3,6.4-0.7,13.1-1,19.9c-0.4,7.8-2.2,9.8-10,9.5
		c-5.6-0.2-11.2-0.9-16.9-1.2c-3.8-0.2-4.5-3.2-4.9-5.9c-0.8-5.4-1.2-10.8-1.8-16.2c-0.2-1.4-0.4-2.9-0.7-4.7
		c-2.7,0.7-5.3,1.1-7.8,1.9c-2.1,0.6-4.1,1.6-6.2,2.4c-0.2-0.6-0.5-1.1-0.7-1.7c4.8-1.8,9.7-3.5,14.5-5.3c-0.1-0.5-0.3-1.1-0.4-1.6
		c-4.5,0.9-9,1.8-13.5,2.8c-3.7,0.8-7.5,1.5-11.1,2.8c-1.4,0.5-2.9,2.4-3.1,3.8c-0.8,5.2-0.8,10.5-1.6,15.7
		c-0.2,1.4-2.2,3.3-3.6,3.5c-6.2,0.8-12.5,1-18.8,1.4c-4.8,0.3-7.1-2.7-7.3-7c-0.6-10-1.1-20-1.1-30c0-14.5,0.3-28.9,0.6-43.4
		c0.4-17.8,1.1-35.7,1.6-53.5c0.3-11.7,0.5-23.4,0.8-35.1c0.3-8.2,6.7-14.4,14.8-14.4c2.7,0,5.3,0.1,7.9,0.4
		c6.7,0.9,10,4.1,10.2,10.7c0.5,16.4,0.6,32.8,0.9,49.2c0.1,4.6,0,9.4,1,13.9c0.6,2.4,3.1,5.7,5.2,6.1c5.3,1.1,10.8,0.9,16.2,1.2
		c4.1-13.3,4.2-26.5,4.8-39.7c0.4-9.8,1.2-19.6,2-29.3c0.4-4.1,2.4-7.1,7.1-7.2c5.5-0.1,11-0.5,16.5-0.2c5.3,0.3,7.5,3.8,7.4,9.2
		c-0.4,18.4-0.7,36.9-1.1,55.3c-0.2,9.1-0.7,18.2-0.8,27.3c-0.1,8.9,0,17.8,0,28c5-2,8.5-3.4,12.6-5c-1.3-1.1-2.2-1.8-3.4-2.8
		c15.1-4.6,29.6-9,44.8-13.7c0-3.5-0.2-7.8,0-12.1c0.9-17.1,1.8-34.2,2.9-51.2c0.4-6.2,1.6-12.4,2-18.6c0.6-8,6.1-11.5,12.4-14.1
		c3.6-1.5,7.7-2.2,11.6-2.6c9.2-1.1,17.2,1.6,21.5,10.3c5.5,10.9,10.2,22.2,15,33.4c5.4,12.5,10.3,25.1,15.7,37.6
		c5.4,12.7,11.1,25.2,16.6,37.6c-0.3-6.4-0.2-13.1-1.2-19.7c-1.6-10.1,0.8-19.7,2.3-29.5c2.3-15.3,6.4-30.1,12.6-44.4
		c3.1-7.1,7.2-13.1,13.2-17.8c5-3.9,10-7.8,15.4-11.1c2.7-1.6,6.4-1.8,9.6-2.5c4-0.9,8-1.9,12-2.4c14.7-1.8,28.7,0.1,42.4,6.3
		c8.4,3.8,11,11.2,13.1,18.8c1.6,5.9,1.9,12.1,2.6,18.2c0.2,1.5,0.2,3,0,4.5c-0.5,4-1.5,7.9-1.5,11.9c0,3.4-0.2,6.2-2,9.6
		c-1.4,2.6,0.6,7.1,1.2,10.8c10.6-1.1,14-7.8,8.1-16c1.9,0.5,3.7,0.8,5.6,1.4c4.4,1.3,7.3,0.5,8-4.8c0.2-1.8,1.9-3.4,2.7-4.8
		c-0.7-1.9-1.5-3.7-2.6-6.7c6.6,2.6,9.2,6.7,10.8,11.8c0.4,1.4,2,2.5,3.1,3.8c0.8-1.3,1.6-2.6,2.3-3.9c0.4-0.7,0.2-1.7,0.7-2.3
		c5.2-6.7,10.6-13.2,15.7-20c3.1-4.1,6-8.3,8.3-12.9c3.7-7,6.7-14.3,10.3-21.4c0.6-1.3,2.2-2.1,3.8-3.6c2.9,6.2-2.3,9.8-3,14.5
		c4.2,0,8.3,0.3,12.4-0.1c5.5-0.5,8.1,2.1,8.8,7.2c1.5,10.7,3.1,21.4,4.6,32c0.4,2.9,0.9,5.9,1.3,8.8c5.1,0.1,7.9-3,9.3-10.5
		c-2-0.1-3.9-0.3-5.9-0.4c0-0.3,0-0.7,0-0.7c6.7-2.1,8.5-7.8,10.4-13.7c2.6-8,5.9-15.8,8.9-23.6c0.4-1.1,1.1-2.1,1.8-3
		c2.1-2.8,23.6-6.6,26.2-4.3c1.4,1.2,2.4,4,2,5.7c-1.6,7.2-3.8,14.3-5.8,21.5c-0.6,2.1-1.4,4.2-2,6.4c-5.8,18.3-11.6,36.6-17.4,54.9
		c-0.9,2.8-2.1,5.7-2.4,8.6c-0.2,2.3,0.1,5.1,1.3,6.9c7.9,11.9,16.3,23.5,24.2,35.4c7.5,11.2,14.7,22.5,21.7,34
		c3.1,5,1.4,8.8-4.3,10.1c-5.2,1.2-10.4,2.4-15.7,2.7c-2.4,0.1-5.5-1.4-7.1-3.2c-11.3-12.7-20-27.2-28.4-41.9
		c-1.9-3.4-3.7-7.3-9.5-7.5c2.4,23.2,7.3,46.4-4.5,68.7c-1.7-2.7-3.5-5.4-5.4-8.4c-1.6,0.3-3.4,0.5-5.1,0.8c0,1.9,0,3.8,0,5.7
		c-0.4,0.1-0.9,0.3-1.3,0.4c-2.3-6.8-11.9-9.3-9.7-18.8c0.3-1.4-1-3.5-2.1-4.9c-2.7-3.8-5.8-7.3-8.5-11c-2-2.7-3.6-5.6-5.6-8.3
		c-1.1-1.5-2.6-2.7-4.7-4.7C663.5,331.7,663.4,334.3,663.2,336.9L663.2,336.9z M275,318.5c-0.1-0.7-0.3-1.3-0.4-2
		c3.8-1.6,7.6-3.3,11.5-4.8c12.3-4.8,10.4-1.5,10.8-15.1c0-0.7,0-1.3,0-2c0-5.7-2.4-8.5-8.1-9c-4.6-0.4-9.3-0.6-13.9-0.5
		c-3.4,0.1-6.2,1.4-6.2,5.6c0,11.6,0,23.2,0,36.2c5.9-3.2,10.9-5.9,16-8.6c-0.1-0.4-0.2-0.8-0.3-1.2
		C281.2,317.5,278.1,318,275,318.5z M652.3,297c10.1,11.7,14.7,28,28.4,38.9c-1-17.8-1.9-34.3-3-50.9c-0.1-1.1-0.9-2.5-1.9-3.2
		c-0.6-0.4-2.1,0.1-3,0.7C666.2,287.2,659.5,291.9,652.3,297z M422.4,231.3c-0.8,0.2-1.6,0.4-2.4,0.6c0,3.8,0.1,7.5,0,11.3
		c-0.3,6.5-0.9,12.9-1.2,19.4c-0.2,3.5,1.2,4.8,4.9,3.6c9.4-3,9.5-2.9,6.9-12.3c0-0.2,0-0.3,0-0.5
		C427.9,246,425.2,238.6,422.4,231.3z M656,238.5c0.8,2,1.4,3.2,1.7,4.5c1.1,5.4,0.9,5.1,5.5,2.4c6.4-3.8,10.7-8,7.8-16.2
		c-1.3-3.7-1.8-7.7-2.7-11.6c-0.5-0.1-1.1-0.1-1.6-0.2C663.7,224.7,664.3,234.1,656,238.5z M664.7,205.1c-1.8,2.2-4.1,3.9-4.5,5.8
		c-0.4,2.2,0.9,4.8,1.4,7.2c1.8-0.6,4.3-0.7,5.3-1.9C670.5,211.9,666.4,208.9,664.7,205.1z M673.4,248.7c-0.6-2.9-1-5-1.6-8.2
		c-3.1,2.5-5.3,4.3-8.2,6.6C667.2,247.7,669.8,248.1,673.4,248.7z M674.8,269.5c0.1-9.5,0.1-9.5-4.1-9.3
		C672.2,263.5,673.5,266.5,674.8,269.5z"/>
	<path class="st0" d="M136.2,262.1c-4.6,17-8.7,33-13.3,48.9c-3.4,11.8-7.4,23.4-10.9,35.1c-1.4,4.6-4.6,5.8-8.7,5.7
		c-6.8-0.1-13.6-0.3-20.5-0.5c-4.6-0.2-7.5-1.8-8.7-7c-2.7-12.5-6.7-24.7-9.1-37.3c-3.5-18.4-6.2-37-9.1-55.6
		c-0.6-4.1-0.4-8.4-1.4-12.3c-0.9-3.5-3.7-6.5-4.4-10c-2.9-15.1-7.3-29.6-13.6-43.6c-1.5-3.2-2-6.9-3-10.6c6.4,2,13.2-5.1,12.1-11.8
		c-0.8-5-1.5-10-2.3-15c0.5-0.2,0.9-0.3,1.4-0.5c2.1,3.4,4.2,6.8,6.3,10.1c0.5-0.1,1-0.2,1.6-0.3c-0.4-2.6-0.6-5.2-1.3-7.7
		c-1.4-4.5-3.3-9-0.4-13.6c0.4,0.1,0.7,0.2,1,0.3c2.1,1.3,4.2,2.6,6.2,3.8c0-2.4,0.4-4.8,0.1-7.1c-0.6-3.7-1.6-7.4-1.4-11.3
		c0.6,2.5,1.3,5,1.9,7.6c0.4,0,0.9,0,1.3,0c1-5.9,2-11.8,2.9-17.8c0.1-0.5,0-1.2-0.3-1.4c-5.3-3.3-1-6.4-0.2-9.9
		c1.1-4.9,0.6-10.2,1.4-15.3c1.4-8.7,3.3-17.3,4.9-25.9c0.8-4.2,1.2-8.5,2-13.6c0.5,0.9,1.6,1.9,1.6,2.9c0.2,3.5,0.3,7-0.2,10.4
		c-1.3,8.8-3.4,17.5-4.5,26.3c-1.6,12.7-3.6,25.4-3.5,38.1c0,5.4-1.1,10.2-1.9,15.3c-0.5,2.9-1.5,6.5,3.4,7c-2,6.1-0.8,7.8,7.6,10.8
		c-0.2-1.8,0.1-3.9-0.8-4.9c-3.3-3.7-1.4-7.6-1.3-11.5c0.1-4.4,0.6-9-0.2-13.3c-0.7-4.2,0.3-6,5.2-6c-0.4,1.8-1,3.4-1.1,5
		c-0.4,4.8-2.7,10.9-0.6,13.9c2.7,3.8,2.2,6.4,1.9,10.2c-0.4,5.8,0.6,11.7,1,18.1c0.9-1.9,1.7-3.6,2.6-5.3c0.6,0,1.2,0,1.8,0
		c-6.4,7.7-1.4,13.3,1.7,18.1c-0.7,3.2-1.7,5.5-1.5,7.6c2.7,20.9,5.5,41.9,8.5,62.7c1.6,11,3.6,22,5.5,32.9c0.3,1.9,0.8,3.9,2.2,6
		c1.9-8.3,4.1-16.6,5.7-25c4.5-23.3,8.8-46.6,13.3-69.9c1-5.2,1.7-10.6,4-15.3c1.3-2.7,5.4-5.5,8.3-5.6c7.7-0.3,15.5,0.7,23.3,1.8
		c1.5,0.2,3.6,2.8,3.8,4.6c2.6,15.7,4.8,31.4,7.2,47.2c3,20.2,6,40.4,9.1,60.6c0.2,1.2,0.7,2.4,1.2,4.1c5-24.7,9.8-48.9,14.9-72.9
		c2.9-13.8,6.1-27.5,9.3-41.3c1.1-5,4.4-7.2,9.3-7.2c5.8,0,11.7-0.1,17.5,0c4.8,0.1,7.5,2.7,7,7.6c-0.6,6.1-2,12.1-3.2,18.1
		c-2.4,12.7-4.7,25.4-7.2,38.1c-4.4,22.1-8.7,44.2-13.4,66.2c-3.4,15.7-7.5,31.3-11,46.9c-1.1,4.8-4.2,6.7-8.5,6.7
		c-8,0-16-0.3-23.9-1c-1.6-0.1-3.4-2.3-4.3-4c-8.4-15.9-12.1-33.3-15.6-50.7C142.4,286.8,139.3,275.1,136.2,262.1z"/>
	<path class="st2" d="M91.6,427.4c0-0.1,0.1-0.9,0.1-1.7c0.4-7.1,5-10.2,11.7-7.4c1.2,0.5,2.4,2.7,2.4,4.2
		c0.1,10.1-0.2,20.3-0.2,30.4c0,6.1-0.1,12.3,0.6,18.4c0.2,2,2.5,4.8,4.3,5.2c1.7,0.4,5.3-1.4,5.8-3c1.7-5.5,2.9-11.2,3.3-16.9
		c0.7-9.9,0.7-19.9,0.8-29.9c0.1-8.1,0.9-8.9,9-8c1,0.1,1.9,0.3,2.8,0.5c0,15.2,0.4,30.1-0.2,45c-0.3,6.1-2.5,12.3-4.2,18.3
		c-2.4,8.2-11.9,10.4-17.9,9.8c-10.5-1-15.4-5.2-16.3-14.2c-1.3-13.3-1.9-26.7-2.6-37.7c-2.7,9.8-6.1,22-9.3,34.3
		c-4.4,16.9-16.6,17.6-29.5,12c-8.7-3.8-11.1-8.5-9-17.6c3.2-14.2,6.9-28.4,11-42.3c3-10.2,14.5-14.3,24.4-9
		C83.4,420.2,87.3,424.1,91.6,427.4z M55.3,464.4c0.4,0.1,0.9,0.3,1.3,0.4c0,1-0.3,2.2,0.1,3c1.4,2.7,2.5,6.5,4.8,7.7
		c3.7,2,6.4-1.3,8.1-4.5c0.7-1.3,1.3-2.7,1.7-4.1c2.5-9.1,5-18.2,7.3-27.4c1-4-0.1-7.1-4.5-8.6c-4.8-1.6-8.2-0.8-9.8,3.8
		C60.9,444.4,58.2,454.4,55.3,464.4z"/>
	<path class="st2" d="M162.6,463.7c4.3,10.1,8.8,20.5,13.3,31c-6.5,3.3-11.7,1.6-14.4-4.5c-3.2-7.3-6.5-14.6-9.8-21.8
		c-0.5-1.1-1.3-2.1-2.9-4.4c-0.4,9.6-1.1,17.6-1,25.7c0.1,4.6-1.7,5.9-5.9,5.4c-1-0.1-2-0.1-3,0c-3.1,0.2-4.4-0.9-4.4-4.3
		c0.2-17.8,0.3-35.5,0.4-53.3c0-3.3-0.1-6.7-0.2-10c0-3.5,1.7-6.2,5.3-5.8c8.3,0.9,16.8,1.7,24.8,3.9c3,0.8,5.9,5,7.1,8.4
		c3.1,8.3,5.3,17.1-1.9,24.7C168.3,460.7,165.4,461.9,162.6,463.7z M148.8,435.5c0.3,4.1,0.4,7.9,0.9,11.6c0.3,1.9,1.4,5.3,1.9,5.3
		c2.8-0.2,6.7-0.5,7.9-2.3c1.8-2.7,2.3-6.7,2.2-10.1c0-1.5-2.5-3.8-4.2-4.3C154.9,435,152,435.5,148.8,435.5z"/>
	<path class="st2" d="M4.9,417c8.8-3.7,11.3-2.9,15.5,4.7c2.2,4,4.2,8.1,7.1,13.6c1.8-5.4,3.1-9.2,4.3-13.1
		c3.1-10.2,3.3-10.4,15.1-9.1c-2.7,8.4-5.5,16.7-7.8,25.1c-1.1,4-1.6,8.4-1.4,12.6c0.5,10.3,1.4,20.5,2.3,30.8
		c0.3,3.9-1.5,5.4-5.1,5.8c-10.1,1.3-10.6,1-11.6-9.1c-0.6-5.9-1.5-11.9-1.5-17.9c0-14.8-8.4-26.2-14.5-38.7
		C6.4,420.2,5.7,418.6,4.9,417z"/>
	<path class="st3" d="M542.8,253.1c-2-1.4-4-2.8-6.4-4.4c-1.8,2.6-3.7,5.4-5.5,8.1c-0.5-0.1-1.1-0.3-1.6-0.4
		c0.2-1.8-0.1-3.9,0.6-5.5c2.3-5.1,2.7-9.7-1.9-13.8c-0.5-0.5-0.6-1.4-1-2.4c4.3-3,5.8,1.3,7.5,2.3c2.8-1.4,5.1-2.6,7.4-3.8
		c0.6,0.4,1.2,0.8,1.8,1.1c-6.3,6.2-2.4,12,1,17.8C544,252.5,543.4,252.8,542.8,253.1z"/>
	<path class="st3" d="M552.8,233.7c2.6,1,5.1,2,8.1,3.2c1.6-0.7,3.9-1.8,6.9-3.1c-0.8,4.2-2.3,7.5-1.8,10.4c0.6,3,3.1,5.6,4.8,8.4
		c-0.5,0.4-1.1,0.8-1.6,1.3c-2.5-2.1-4.9-4.3-7.6-6.6c-1.1,0.9-2.1,2-3.4,2.6c-0.9,0.4-2.5,0.6-3.1,0c-0.6-0.4-0.8-2.4-0.4-3
		c3.2-4.2,1.3-7.2-1.8-10.2c-0.4-0.4-0.7-1.1-1-1.6C552.2,234.7,552.5,234.2,552.8,233.7z"/>
	<path class="st3" d="M564.6,292.9c-1.5-0.4-3.3-0.3-4.5-1.2c-6.2-4.5-12.8-3.9-19.5-2c-5.7,1.6-5.5,6.8-6.1,11.6
		c-3.8-0.7-3.8-3.3-3.4-5.9c1.3-8.3,8.8-12.9,18.7-10.6c5.2,1.2,10.2,3.6,15.3,5.5C564.9,291.2,564.7,292.1,564.6,292.9z"/>
	<path d="M73.1,101.4c1.6-1.3,3.4-3.8,4.8-3.6c3.2,0.4,4.5,2.7,4.7,6.5c0.4,5.8,2.3,11.4,3.8,17.1c0.6,2.3,1.5,4.6,2.3,6.9
		c-0.4,0.2-0.8,0.3-1.2,0.5c-2.7-7.5-5.5-15-8.1-22.6c-1-2.9-1.7-5.4-6.1-2.8C73.3,102.7,73.2,102.1,73.1,101.4z"/>
	<path class="st0" d="M582.2,283.7c-2.6,2-5.7,4.6-8.6,0.7c-1.3-1.7-1.9-6.4-1-6.9C578.7,273.7,580,279.6,582.2,283.7z"/>
	<path d="M40.4,132.4c-3.1-6.4-6.2-12.8-6.3-20c0.6-0.2,1.2-0.3,1.8-0.5C37.4,118.8,38.9,125.6,40.4,132.4z"/>
	<path class="st0" d="M663.2,337c0.8,1.1,1.5,2.4,2.5,3.2c3.4,2.4,3.6,2.9,1.5,7.8C663.7,344.8,662.7,341.2,663.2,337L663.2,337z"/>
	<path d="M80.7,147.5c2.6-0.6,4.7-1.1,7.2-1.8c-1.4,3.4-2.7,6.5-4,9.6c-0.2-0.1-0.4-0.1-0.6-0.2c0.2-1.4,0.9-2.9,0.5-4.2
		C83.4,149.9,82,149,80.7,147.5z"/>
	<path d="M7.9,1C5.9,4.7,4,8.4,2,12.1c-0.7-0.4-1.3-0.7-2-1.1C2,7.4,4,3.7,6,0C6.7,0.3,7.3,0.7,7.9,1z"/>
	<path class="st0" d="M1097.9,457.1c-1.4,3.2-2.1,6.2-3.9,8.3c-4.1,4.8-12,5.6-16.6,1.4c-1.6-1.4-2.2-4.8-2.1-7.1
		c0.4-6.6,0.5-12.9-3.4-18.7c-3.3-4.9-7.3-5.7-12.3-2.7c-5.7,3.4-9.1,8.1-10.8,14.7c-4.3,17-5.2,34.3-5.2,51.7
		c0,5.4,0.4,10.9,0.9,16.3c0.7,8.9,14.4,13.9,22.3,10.3c1.5-0.7,3.3-2.4,3.6-3.9c1.4-6.6,2.3-13.3,3.4-20.4
		c-5.6-0.8-10.1-1.4-14.6-2.2c-5.5-1-7.9-5.5-6.8-12.3c0.8-5.5,2.9-7,8.9-6.6c8.6,0.6,17.2,1.1,25.8,1.9c2.4,0.2,5,0.8,7.1,1.9
		c1.2,0.6,2.4,2.6,2.3,3.8c-1.2,13-2.2,26-4.2,38.9c-2.2,14.3-11.4,23.3-25.7,25c-6.8,0.8-14.2,0.8-20.8-0.7
		c-14.6-3.3-27.3-13.6-26.3-32.8c0.6-11.5-1.3-23.2-0.4-34.8c1.3-17.3,2.2-34.9,9.4-51c4.1-9.1,9.7-17.2,20.3-20.6
		c8.2-2.6,16.2-5.1,24.8-3.6c9.8,1.6,15.8,6.1,21.5,16.5c-0.3-4-0.5-6.8-0.6-9.7c0-1.4,0-2.9,0.5-4.1c3.5-8.8,9.2-12,18.5-9.6
		c2.4,0.6,5.6,3.3,6.1,5.5c2.1,10,3.4,20.2,5,30.4c1.1,7,1.7,14.2,3.5,21.1c0.5,2,4.1,4.1,6.5,4.4c3.5,0.5,7.2-0.5,10.8-0.8
		c0-11.4,0.2-22.5-0.1-33.7c-0.1-7-1.1-13.9-1.1-20.9c0-3.8,1.5-7.1,6.3-7.3c4.1-0.2,8.3-0.8,12.4-1c3.7-0.1,5.8,1.7,6.2,5.6
		c1.2,13.4,2.2,26.8,3.8,40.2c2.2,18.4,5.3,36.7,7.5,55c1.4,12,1.9,24.2,2.7,36.3c0.2,3.7-2.2,5.5-5.6,5.7
		c-5.3,0.3-10.6,0.6-15.9,0.3c-1.2-0.1-2.9-2.1-3.3-3.5c-1.6-5.7-3.3-11.5-4.2-17.4c-1.4-8.8-2.6-17.7-3-26.5
		c-0.3-5.3-3.3-6.3-7.3-6.8c-1-0.1-2,0-3,0.2c-12.8,2-12.6,2-11.2,15c1.3,12,2.1,24.2,3.2,36.2c0.3,3.6-1.2,5.6-4.8,6.1
		c-4.4,0.6-8.8,2-13.3,2c-1.9,0-5-2-5.6-3.7c-1.9-5.8-3.5-11.8-4.2-17.9c-1.7-15.2-3-30.5-4.3-45.8c-0.7-8.5-1.2-17-1.9-25.5
		C1098.7,459.3,1098.3,458.4,1097.9,457.1z"/>
	<path class="st0" d="M869.8,509.7c0-6.2,0.1-12.5,0-18.7c-0.3-13.5-1-26.9-1.2-40.4c-0.2-8.1-0.3-16.3,0.4-24.4
		c0.6-6.7,4.4-9,11.1-8.4c3.6,0.3,7.2,0.2,10.8,0.6c2.8,0.3,4.5,1.8,4.5,4.9c-0.1,7.1-0.2,14.1-0.2,21.2c0,4.4,0.5,8.9,0.4,13.3
		c-0.2,17.1-0.5,34.2-0.9,51.2c-0.3,14-0.7,28.1-1,42.1c-0.2,7.6-4.7,11.2-12.3,10.8c-13.7-0.8-21.6-8.9-27.1-20.4
		c-7-14.5-14-28.9-22.1-43.5c0,4.9,0,9.7,0,14.6c0.1,12.2,0.9,24.4,0.1,36.5c-0.5,7.7-6.5,11.8-16.3,11.7c-9.6-0.1-13.1-3.2-13-13
		c0.1-18.2,1-36.4,1.7-54.6c0.4-11.4,1.2-22.9,1.7-34.3c0.5-11.4,0.6-22.8,1.5-34.2c0.7-9.2,3.4-11.3,12.5-11.1
		c7.6,0.2,13.8,2.3,16.9,10.4c6.1,16.1,13,32,18.9,48.2c4.1,11.2,7.1,22.8,10.7,34.2c0.3,1.1,0.9,2,1.4,3.1
		C868.8,509.7,869.3,509.7,869.8,509.7z"/>
	<path class="st0" d="M1253.1,481.8c7.4,6.1,10.3,13.8,11.6,22.2c0.8,5.2,1.1,10.6,1.4,15.9c0.8,13.8-6.8,24.5-20,28.5
		c-16.4,5-33.4,3.8-50,2.7c-9.4-0.6-9.2-1.7-9.2-10.8c0.1-15.6-0.1-31.2,0.3-46.8c0.3-11.9,1.3-23.7,2-35.6
		c0.9-14.5,1.8-29,2.6-43.5c0.3-5.1,3.4-8.5,8.5-8c12,1.3,24.2,1.9,35.9,4.6c5.7,1.3,11.7,5.6,15.3,10.3
		c11.1,14.6,15.5,30.7,6.4,48.4C1256,473.6,1254.7,477.7,1253.1,481.8z M1214.4,527.5c9.2,1.5,16.4-1.4,22.7-6.4
		c5.7-4.5,7.1-11.8,5.2-18.5c-2-6.9-11-11.9-17.6-12.7c-4.1-0.5-8.2-3.2-9.5,5.6C1213.6,506.4,1214.5,516.8,1214.4,527.5z
		 M1215.9,458.3c-0.2,0-0.5,0-0.7,0c-0.1,2.5-0.2,5-0.4,7.5c-0.2,2.6,0.9,3.9,3.5,3.5c7-1.1,13.9-2.7,17.3-10
		c4.5-9.7,6.5-19.6-4.1-24.6c-3.5-1.6-7.6-2-11.4-2.8c-2.7-0.5-4.2,0.6-4.2,3.4C1215.9,443,1215.9,450.6,1215.9,458.3z"/>
	<path class="st0" d="M1607.2,511.4c6.4,18.4,12.8,37,19.2,55.5c0.3,0.8,0.5,1.6,0.7,2.4c2.1,7.1,0.6,8.9-6.7,8.1
		c-0.7-0.1-1.3-0.4-2-0.3c-11.5,0.5-15.9-6.3-18.9-16.3c-4.8-15.9-11-31.3-16.6-46.9c-0.3-0.7-0.7-1.4-2.2-2.1
		c-0.4,2.4-0.8,4.8-1.1,7.3c-2,15.3-4,30.6-5.8,46c-0.5,4.3-2,6.3-6.6,5.6c-5.1-0.7-10.2-1.1-15.4-1.7c-3.4-0.4-4.8-2.4-4.3-5.9
		c1.5-10.3,3.1-20.6,4.2-30.9c1-9.6,1.4-19.2,2.1-28.8c1.1-15.1,2.2-30.2,3.3-45.3c0.6-8.2,1.3-16.4,2.2-24.6
		c0.5-4.5,3.3-6.9,7.8-7.7c8-1.4,15.9-0.4,23.6,1.7c7.6,2.1,15.2,4.4,22.8,6.7c7.5,2.3,11.9,7.8,15.5,14.5
		c6.7,12.5,7.2,25.8,4.2,38.8c-2.5,10.8-9.5,19.5-21.6,22c-1.1,0.2-2.3,0.5-3.4,0.7C1608.2,510.2,1608.1,510.4,1607.2,511.4z
		 M1585.7,453.9c0,3.4,0.1,6.8,0,10.1c-0.2,6.3-0.9,12.5-0.8,18.8c0,1.9,1.3,5,2.8,5.6c5.8,2.5,14.3-0.2,18-5.5
		c2-2.9,3.6-6.2,4.6-9.6c2.4-8.5-1.4-16.3-8.3-17.5C1596.8,454.9,1591.5,454.5,1585.7,453.9z"/>
	<path class="st0" d="M1515.7,511.1c-2.4-21.5-4.8-42.9-7.3-64.4c-0.7-5.9-1.8-11.8-2.4-17.7c-0.5-4.5,1.2-8,6.2-8.6
		c5.1-0.6,10.2-1.2,15.3-1.2c1.1,0,2.9,2.4,3.1,4c1.6,11.1,3,22.3,4.4,33.4c1.9,14.6,4.2,29.2,5.5,43.9c1.4,15.5,1.9,31-3.6,46.2
		c-3.4,9.4-9.9,14.6-19,18c-6.3,2.3-12.4,3.6-19.2,3.3c-10-0.4-18.3-4.1-24.5-11.5c-2.9-3.5-4.5-8.4-5.8-13
		c-2.3-8.1-4.5-16.3-5.8-24.6c-4.2-27.5-8.1-55.1-12-82.7c-0.6-3.9,1.1-7.4,4.8-8.2c6.1-1.4,12.4-2.3,18.6-2.1
		c1.7,0,4.3,4.3,4.6,6.9c3,23,5.3,46.1,8.3,69.1c1.2,9.2,3.3,18.3,5.2,27.4c0.9,4.2,6.9,8.4,11.1,8.6c5.5,0.2,8.2-4.1,10.6-11.4
		c0.8-2.5,1-5.2,1.2-7.9c0.2-2.5,0-5,0-7.5C1515.2,511.2,1515.5,511.1,1515.7,511.1z"/>
	<path class="st0" d="M924.6,467.6c8.6,0,16.5-0.3,24.5,0.1c10.5,0.4,16.5,10.3,11.7,19.8c-1.2,2.5-5.4,4.3-8.5,4.8
		c-6,0.9-12.2,1.2-18.3,0.9c-6.9-0.4-9.8,3.2-9.8,11.3c0,8.2,1.1,16.4,1,24.7c0,4.1,1.5,4.7,4.9,4.5c10.6-0.5,21.3-0.6,31.9-1.2
		c5.3-0.3,9.2,0.6,9.8,6.9c0.1,1.6,1,3.2,1.4,4.8c2.3,10.6-0.7,14.7-11.3,15.1c-17.7,0.7-35.5,1-53.2,1.7c-4.7,0.2-7-1.8-7.3-6.1
		c-0.4-5-0.4-10-0.7-14.9c-0.6-9.3-1.6-18.6-1.7-27.8c-0.3-24.4-0.1-48.8-0.2-73.2c0-5.1-0.8-10.3-0.9-15.4
		c-0.1-6.1,2.3-8.7,8.4-8.8c17.3-0.2,34.5-0.5,51.8,0.1c14.2,0.5,16,6.4,14.1,19c-0.2,1.1-1.7,2.7-2.9,3c-5.2,1.4-10.4,3-15.7,3.6
		c-8,0.9-16.2,0.7-24.2,1.5c-4.3,0.4-6.1,3.8-6,7.8C923.5,455.4,924.2,461.2,924.6,467.6z"/>
	<path class="st0" d="M983.4,562.3c-0.5-5.6-1.1-10.1-1.2-14.7c-0.5-12.4-1-24.8-1-37.2c0-5.2,1.3-10.4,1.6-15.6
		c0.5-12.4,0.8-24.8,1-37.3c0.2-10.6,0-21.1,0.1-31.7c0.1-8.1,4.3-11.3,14.2-11.2c7.1,0.1,11.6,4.4,11.7,11.4
		c0.1,17.7,0.3,35.4,0.3,53.2c0,19.1-0.2,38.1-0.4,57.2c-0.1,6.6-0.6,13.2-0.8,19.9c-0.2,4.1-2.2,6-6.3,6
		C996.6,562.2,990.7,562.3,983.4,562.3z"/>
	<path class="st0" d="M448.8,526.4c-0.2,0.4-0.3,0.6-0.3,0.9h-1.2c0-0.2-0.1-0.5-0.3-0.9c0.2,0,0.3-0.1,0.3-0.3L448.8,526.4z
		 M410.7,505.5v2.3h-0.5l0.2-2.3H410.7z M431.9,443c0-2.3,1.4-3.4,4.3-3.4c5.9-0.2,11.1,2.4,15.6,7.7c0.7,1,2.1,3.7,4.3,7.9
		c2.3,5.3,3.4,9.7,3.4,13.3c0,0.2-0.1,0.5-0.3,1c0.2,1.4,0.3,2.5,0.3,3.4v2.8c0,0.4,0.1,0.8,0.3,1.2c-0.2,0.4-0.3,0.9-0.3,1.4v0.9
		c0,1.6-0.1,3.6-0.3,5.9c0.2,0.4,0.3,0.8,0.3,1c-0.1,0-0.5,0.8-1,2.5l0.3,0.8c-1,8.1-1.9,13.8-2.8,17.1l0.3,1.3l-0.6,0.5
		c-0.6,3.1-2,7.2-4,12.2c0,0.9-1.1,2.4-3.2,4.6l-0.5-0.2h-1v0.2c-1.7,1-2.6,1.8-2.6,2.5h-0.3l-1.2-0.9c-1.4,1-2.1,1.6-2.1,1.9h-4.3
		h-0.3l-0.5,0.3l-0.3-0.8c-0.5,0.5-1.1,0.8-1.9,0.8c0,0.8-0.7,1.3-2.1,1.5c0-0.3-0.2-1.3-0.6-2.9c0-1.4,0.1-4.4,0.3-8.9
		c1.2-9.7,1.8-18.7,1.8-27.2c0-0.2-0.4-4.5-1.2-12.8l0.3-0.6l-0.6-2.6c0.2-0.4,0.3-0.8,0.3-1.2v-0.6l-0.3-1.8l0.3-0.8
		c-0.4-3.2-0.6-5.8-0.6-7.7l0.3-1.5c-0.2,0-0.3-0.3-0.3-1v-1.6l0.3-1.5c-0.2,0-0.3-0.1-0.3-0.3c0.3-4.7,0.6-7.9,1-9.8l-0.3-0.5
		C431.8,444.5,431.9,443.1,431.9,443z M420.8,407.2c-0.2,0-0.9-0.1-1.9-0.3c-4.8,0-8.3,2.6-10.6,7.7c-1.2,0-2.5,5.7-3.8,17.2
		c0.2,0,0.3,0.1,0.3,0.4c-0.2,0.4-0.3,0.8-0.3,1.2v0.6c0,1.7-0.1,3.6-0.3,5.6l0.3,1.3c-0.2,2.1-0.5,4.4-0.9,6.8
		c0.2,0,0.3,0.1,0.3,0.3c-0.2,1.2-0.3,2.2-0.3,2.9v2.5l0.3,0.5l-1,1.1c0,0.4,0.2,0.9,0.6,1.5c0,1.5-0.1,2.7-0.3,3.4
		c0.2,1.8,0.3,3.3,0.3,4.6v11.9l0.3,2.3c-0.2,0-0.4,1.5-0.6,4.6c0.2,0,0.3,0.1,0.3,0.3h-0.3c0,3.3,0.2,6.5,0.6,9.7
		c-0.2,0-0.3,0.1-0.3,0.2c0.2,0.4,0.3,0.8,0.3,1.4v0.9c0,0.8-0.1,1.7-0.3,2.8l0.3,0.6c-0.2,1.8-0.3,3.3-0.3,4.4v0.3l0.3,1.5
		c-0.2,0-0.3,0.3-0.3,1v0.6l0.3,0.6c-0.3,0-0.5,0.4-0.6,1.2l0.3,0.6c0,0.2-0.1,0.5-0.3,0.9l0.3,2.3c-0.2,1.5-0.3,2.3-0.3,2.5
		c0.2,1.1,0.3,1.7,0.3,1.9c-0.4,0.7-0.6,1.3-0.6,1.6c0,0.4,0.1,0.8,0.3,1.2c-0.2,0.4-0.3,0.6-0.3,0.9c0,4.6,0.2,8.8,0.6,12.8
		c0,0.1-0.1,1.5-0.3,4.1c0.2,3.7,0.3,5.9,0.3,6.9c-0.2,1.5-0.3,2.4-0.3,2.6s0.1,0.3,0.3,0.3c0,3.4,1,5.9,3.1,7.4l-0.3,0.6
		c1.1,1.7,2.8,2.6,4.9,2.6l1.9-0.3c1.3,0.2,2.6,0.6,4.1,1.2c0.2,0,0.5-0.1,1-0.3l5.6,1c0-0.2,0.1-0.3,0.3-0.3l1.8,0.3l0.6-0.3
		c0,0.2,0.1,0.3,0.3,0.3h0.5c0.5,0,1-0.1,1.4-0.3c0.4,0.2,0.8,0.3,1.2,0.3h1c3.3,0,5.7-0.1,7.1-0.3c8.3-1.4,12.5-2.5,12.5-3.1
		l2.3,0.2h0.3c3.4-0.9,7.9-4.2,13.4-9.9c4.3-4,6.4-6.6,6.4-7.8c1.9-3.2,2.9-5.2,2.9-6.2c5-10.1,7.5-17.3,7.5-21.6
		c-0.2,0-0.3-0.1-0.3-0.3l0.5-0.9v-3.4l0.3-1.6c-0.2,0-0.3-0.3-0.3-0.9V503c0.6-3.9,1-6.2,1-6.9v-5.3c0.5-0.6,0.9-1.8,1.3-3.5
		c-0.8-0.7-1.2-1.9-1.3-3.7l0.3-0.8c-0.2-0.3-0.3-0.7-0.3-1.2v-1.2c0-3.3-0.2-5.5-0.6-6.6h0.3l-0.3-1.5c0-0.6,0.1-1,0.3-1.4
		l-0.9-4.6c-1.1-7.1-2.3-11.8-3.8-14.1c-0.6-2.7-1.2-4.1-1.6-4.1c0-0.5,0.1-1.3,0.3-2.5c0-0.4-0.2-0.5-0.6-0.5
		c-1.8-7.8-3-12.2-3.7-13.1c0-1.6-2-5.3-5.9-11.3c-8.3-9.4-19.2-14.1-32.8-14.1h-4.2l-0.5,0.3c0-0.2-0.1-0.3-0.3-0.3h-6.6l-1.6-0.3
		C422.3,406.7,421.8,407,420.8,407.2z M311.6,551.9h0.8v0.8h-1.6C310.8,552.2,311.1,551.9,311.6,551.9z M306.4,405.9
		c-3.5,0-5.6,5.5-6.1,16.5c0.3,0.5,0.4,0.9,0.4,1.2l-0.4,0.9c0,0.6,0.1,1.1,0.4,1.6l-0.9,11l0.9,11.7c-0.3,0-0.6,0.7-0.9,2
		c0,0.6,0.1,1.1,0.4,1.6c-0.5,8.6-0.8,15.2-0.8,19.8l0.3,0.8c-0.2,0-0.3,0.1-0.3,0.4v2.5l0.3,0.9c-0.3,0-0.7,1.2-1.2,3.5l0.4,0.9
		c0,0.9-0.1,1.5-0.4,2c0.3,1.4,0.4,2.6,0.4,3.5v3.3l-0.4,2c0.3,0,0.4,0.1,0.4,0.4c-0.3,0.4-0.4,1-0.4,1.6v5.2
		c0,5.2-0.3,9.1-0.8,11.7c0.2,0,0.3,0.1,0.3,0.4h-0.3l0.3,2.8v0.4l-0.3,2c0.2,0,0.3,0.1,0.3,0.4l-0.3,1.9l0.3,0.9
		c-0.5,1.4-0.8,2.4-0.8,2.9l0.8,9.2c-0.2,2.4-0.3,3.7-0.3,4c0.6,12.2,2.1,18.8,4.4,19.9c0,1.8,2.6,3,7.7,3.7c0.6,0,1.1-0.1,1.6-0.4
		c0.4,0.3,1,0.4,1.6,0.4c7-1.1,11.5-2.8,13.3-4.8c0-0.3-0.1-0.7-0.4-1.2c1-1.6,1.7-2.5,2-2.5v0.9h0.9l0.8-6.1l-0.4-0.9
		c0-0.1,0.1-0.9,0.4-2.4c-0.3-5.9-0.7-9.7-1.2-11.4h0.4c-0.3-3.9-0.4-6.6-0.4-7.9l0.4-2c-0.4,0-0.6-0.8-0.9-2.5l0.9-1.6l-0.4-2.5
		v-3.2c0-1.8-0.1-3.4-0.4-4.8c0.3-1.4,0.4-3,0.4-4.8v-1.3c0-1.1-0.1-2.5-0.4-4.4c0.4-2.4,0.8-3.5,1.2-3.5h0.4
		c2.4,6,4.9,11.5,7.3,16.5c6.2,9.8,12.2,21.2,17.8,34.3c6.5,7.4,11.5,11.9,14.9,13.4c4.7,0.9,7.3,1.5,8.1,2h0.8l0.9-0.4v0.4
		c0.6,0,1.1-0.1,1.6-0.4l4.1,0.8l1.6-0.3c0,0.2,0.1,0.3,0.4,0.3c0.8,0,1.2-0.5,1.2-1.6c2.6-1.4,4.4-3.5,5.6-6.4v-2
		c0-0.6-0.1-1.2-0.3-1.6l0.3-0.9c-0.2-2.7-0.3-4.8-0.3-6.3V532c0-0.4-0.3-0.7-0.9-0.9c0-0.4,0.3-1.1,0.9-1.9l-0.4-0.9l0.8-6.4
		l-0.3-1.7l0.3-1.5c-0.5-2.2-0.8-3.6-0.8-4.1v-6.4l-0.4-0.8c0.8,0,1.2-1.8,1.2-5.4l-0.3-4l0.8-1.6c0-0.3-0.1-0.7-0.4-1.2l0.4-0.9
		c0-0.5-0.1-3.7-0.4-9.7l-0.3-0.9h0.3l-0.3-2v-4c0-1.4,0.2-3,0.8-4.9c0-0.8-0.3-1.7-0.8-2.8c0-0.2,0.1-1,0.3-2.4
		c0-0.3-0.1-0.7-0.3-1.3c0.2-0.4,0.3-1,0.3-1.6v-5.6l-0.3-0.9h0.3l-0.8-8.9c0.3,0,0.4-0.1,0.4-0.3l-0.4-2.5v-1.9l0.4-4.2
		c-0.5,0-0.9-1.1-1.3-3.2l0.9-8.4c-0.4,0-0.6-0.6-0.9-1.7c0.3-1.4,0.4-2.6,0.4-3.7v-2.8l-0.4-2.8c0.3,0,0.4-0.1,0.4-0.4l-0.4-0.8
		l0.4-2c-0.5-1.8-0.8-2.9-0.8-3.3c0-2.5-2.5-4-7.6-4.4h-0.9c-1.2,0-2.7,0.4-4.5,1.2c-1.1-0.5-2.5-0.8-4.4-0.8h-0.4l-0.8,0.3v-0.3
		c-3.2,0.4-4.8,1.1-4.8,1.9c-2.7,0-4.3,5.3-4.9,15.8c0.6,9.7,1,14.6,1.2,14.6c0.9,22.1,1.6,33.1,2,33.1h-0.4l0.4,2.1
		c0,1.1-0.1,2.1-0.4,3.2c0.6,2.1,1,4.4,1,6.8v10.5l-0.5,2c0.4,0,0.5,0.4,0.5,1.2v1.6l-0.5,4.8h-0.4c-0.3,0-1-1.5-2-4.4
		c-3.7-15.6-7.2-26.4-10.7-32.3c-5.3-16.3-10.3-28.7-15-37.2c-0.2-1.6-3.7-9-10.5-21.9c-4.8-3.2-9.4-4.7-13.8-4.7
		C309.8,404.7,307.2,405.1,306.4,405.9z M263.3,406.4c-2.3,0-3.7,2.5-4.2,7.4l0.3,0.6l-0.3,0.6l0.3,2.1v3.8c0,0.5,0.1,0.9,0.3,1.3
		c-0.2,0.4-0.3,0.9-0.3,1.4v5.2c0,6.4,0.3,15.5,0.9,27.3c-0.2,0.4-0.3,0.8-0.3,1.3c0.2,0,0.3,0.1,0.3,0.4l-0.3,1.7
		c0,0.5,0.1,0.9,0.3,1.3l-0.6,6.9c0.2,0.4,0.3,0.9,0.3,1.4c-0.2,0.4-0.3,0.8-0.3,1c0.2,0,0.3,0.1,0.3,0.3c-0.2,0-0.3,0.1-0.3,0.4v3
		c0,1-0.2,8-0.5,20.9v1.7l-0.6,6.4c0.4,2.9-0.3,6.1-2,9.6c0.2,0,0.3,0.1,0.3,0.3c-1.2,4.3-2.2,6.9-3,7.8c0,0.3-0.1,0.1-0.4-0.4
		c0,0.2-0.1,0.3-0.3,0.3c-1.7,4.6-4.6,6.8-8.7,6.7c-3.4,0.4-6.6-1.4-9.5-5.2c-1.4-2.9-2.2-4.3-2.6-4.3c0-0.3,0.1-0.6,0.3-1.1
		c0-0.8-0.1-1.4-0.3-1.7c0.2-1.6,0.3-2.8,0.3-3.8v-1c0-0.4-0.3-1.7-1-3.9l0.3-0.6c-0.2-3.9-0.6-6-1.1-6.4h0.3l-1.1-10.4v-8.3
		l0.3-1.7c-0.2,0-0.3-0.1-0.3-0.3c0.2-0.4,0.3-0.8,0.3-1.4v-0.6l-0.3-0.6h0.3c0-0.2-0.1-0.9-0.3-2.1c-0.2-13.2-0.6-19.9-1.1-19.9
		c0.2,0,0.3-0.1,0.3-0.4v-3L229,447c0.2,0,0.3-0.1,0.3-0.3l-0.3-2.1v-3.3l-0.3-0.8c0.6-1.9,0.9-4.7,0.6-8.5v-6.1l-0.3-2.5
		c0.2,0,0.4-2.3,0.6-6.9c0.5-3.1,0.4-4.6-0.4-4.6c0-2.1-0.4-3.6-1.3-4.6c-2.3-1-5.3-1.8-8.9-2.3c-0.3,0-0.6,0.1-1.1,0.4
		c-0.2,0-0.5-0.1-1-0.4l-2.1,0.4h-4.4c-4.2,1.1-6.7,2-7.4,2.8c-0.9,1.2-1.8,2.5-2.7,4l-0.4,14.8c-0.2,0.4-0.3,0.8-0.3,1.3v1.4
		c0,0.5,0.1,1,0.3,1.4l0.3,8.6l0.3,0.6l-0.3,0.6c0,2.6,0.2,5.4,0.6,8.6l-0.6,5.5l0.6,4.8l-0.6,1.7c0.4,1.8,0.8,5.1,1,9.9
		c-0.2,1.2-0.3,1.9-0.3,2l0.6,3.4c-0.2,0-0.3,0.1-0.3,0.3v0.3l0.6,1.1v2.4c0.5,10.5,1,19.2,1.4,26.3c1.8,6.7,2.7,12.6,2.7,17.5
		c-0.2,0.4-0.3,0.8-0.3,1.1l1.7,8.8c0,5.6,4.4,11.6,13.1,18.2c3.2,2.5,8.3,4.2,15.4,5.2h2.7c0.7,0.6,3.1,1.1,7.2,1.4
		c1.4-0.4,2.1-0.8,2.1-1.1c4.1-0.6,6.1-1.3,6.1-2l1.7,0.4c3.9-0.8,5.8-1.6,5.8-2.5h1.1c4.2-1.2,7.8-3.9,10.8-7.9
		c0.9,0,2.7-3.4,5.5-10.3c2.9-6.7,5-13.9,6.2-21.6c-0.2,0-0.3-0.1-0.3-0.3l1-8.1l-0.3-2v-0.8c0-0.2,0.4-1.8,1.1-4.7v-7.5l-0.4-0.8
		c0.3,0,0.4-0.1,0.4-0.3v-5.2l-0.4-2c0.2-0.8,0.6-4.2,1.1-10.2c-0.2,0-0.4-1.5-0.6-4.5c0.2-0.4,0.3-0.9,0.3-1.7v-0.6l-0.3-1.7
		c0.2,0,0.3-0.1,0.3-0.3l-0.8-11.3c0.3,0,0.4-0.1,0.4-0.4l-0.8-1.7c0.2-1.5,0.3-2.8,0.3-3.8v-1.7l-0.3-0.6c0.2,0,0.3-0.1,0.3-0.3
		V443c0-1.8,0.1-3.3,0.4-4.4c-0.2-5-0.7-7.5-1.4-7.5c0-1,0.2-1.9,0.6-2.8c-0.2-0.4-0.3-0.8-0.3-1.3v-4.5l0.3-1.7
		c-0.2,0-0.3-0.1-0.3-0.3c0-0.8,0.1-2.3,0.4-4.5c-0.1-1.7-0.3-2.9-0.5-3.4h0.3l-0.4-1.6c0-0.2,0.1-0.5,0.3-1c-0.1-2.3-0.8-3.6-1.8-4
		h-1.4l-0.6,0.3c0-0.2-0.1-0.3-0.3-0.3h-1.1c-0.4-0.6-0.9-0.8-1.6-0.3c-0.2,0-0.3-0.1-0.3-0.3c-2.9,0.3-5.8,0.3-8.6-0.1l-0.8,0.3
		c0-0.2-0.1-0.3-0.3-0.3l-4.7,0.5C263.6,405.8,263.3,406,263.3,406.4z"/>
	<path class="st0" d="M508.3,549.6v1.2h-0.3c0-0.4-0.1-0.8-0.3-1.2H508.3z M528.7,541.2v0.4H528v-0.4H528.7z M531,533.6
		c0.5,0,0.8,0.3,0.8,0.8v0.3h-1.1v-1.1H531z M543.8,481.9v0.3H543v-0.3l0.3-0.6C543.6,481.3,543.8,481.5,543.8,481.9z M532.7,479.9
		v0.6h-0.2l-0.1-0.6H532.7z M538.4,424.8v0.6h-0.3v-0.6H538.4z M540.6,413.4v0.3l-2-0.3v-0.3l0.4-0.6
		C540.1,412.6,540.6,412.9,540.6,413.4z M524.5,411.1c0.4,0,0.5,0.2,0.5,0.5l-0.2,0.6c-0.5-0.1-0.9-0.2-1.1-0.2
		c0.2-0.4,0.3-0.8,0.3-1H524.5z M504.9,406.2c-1.7,0.4-2.5,1.3-2.4,2.5c-2.4,0.1-3.1,5.9-1.9,17.4c0,0.2,0.1,0.5,0.3,0.9h-0.3
		c0.1,0.6,0,6.1-0.1,16.7c0.2,0,0.3,0.1,0.3,0.3c-0.2,0-0.3,0.1-0.3,0.2c0.1,4.7-0.1,8.1-0.4,10.2l0.3,0.6
		c-0.6,3.6-0.8,7.5-0.8,11.7c0,0.4,0.1,0.9,0.3,1.3c-0.2,0.4-0.3,0.8-0.2,1.3v4.9l-0.2,2.4c0.2-0.1,0.3,0,0.3,0.2
		c-0.2,0.5-0.4,1.5-0.6,3.1c0.2,0.4,0.3,0.8,0.3,1c0.1,1.5-0.1,3.2-0.5,5.2l0.3,0.5l0.3,9.8c0.3,2.7,0.1,4.2-0.5,4.7
		c-0.1,0-0.3,0.3-0.5,0.9l0.3,0.6l-0.3,1.9v0.6l0.3,0.6h-0.3c0.1,2.4,0,5-0.1,7.6c0.3,7.7,0.6,12.9,1.1,15.5c-0.1,0-0.2,0.3-0.2,0.9
		v1c-0.1,1.7-0.2,2.7-0.2,2.8v2.9l0.3,0.6h-0.2c0,0.7,0,4.6,0.1,11.6c0.1,7,1.8,10.6,5.3,10.7s5.8,0.2,7.2,0.2h1.2
		c0.4,0.2,1,0.3,1.8,0.3l1-0.6h0.6v0.5c0.6,0,1.5-0.3,2.9-1c0.7,0.4,1.5,0.6,2.5,0.6l0.6-0.3v0.3c0.2-0.1,0.5-0.2,0.9-0.3
		c1.3,0.4,2.4,0.5,3.2,0.5c0.6,0,1.4-0.1,2.6-0.3c0.4,0.1,0.6,0.2,0.9,0.2c0-0.2,0.1-0.3,0.3-0.3c0,0.2,0.1,0.3,0.3,0.3h0.6
		c0.6,0,1.3-0.2,1.9-0.6c0,0.2,0.3,0.4,1,0.6c0.4-0.2,1.4-0.5,3.1-0.8l0.6,0.3l0.6-0.3l1.9,0.3c3.4-0.2,6.1-0.3,8.1-0.3l1.6,0.3
		c0-0.2,0.9-0.2,2.7-0.1c0.9,0.2,1.7,0.3,2.6,0.3h0.6l1.5-0.3c0,0.2,0.3,0.3,1,0.2c0.6,0,1.2-0.2,1.8-0.6c0,0.4,1.3,0.6,4,0.8
		c0.4,0,0.9-0.2,1.6-0.6l1.8,0.2c0.2,0,0.3-0.1,0.3-0.3c3.9-0.1,6.1-1.4,6.7-4.1c1.2-6.9,0.8-12.4-1.2-16.5
		c-0.3-2.4-0.7-3.7-1.2-3.7c0-1.9-2.2-2.9-6.6-3.2h-1.6l-1.5,0.3c0-0.2-0.1-0.3-0.3-0.3c0,0.2-3.9,0.2-11.8,0c-0.1,0-1-0.1-2.5-0.2
		l-9.7,0.3c-1.6,0-4.5,0.1-8.4,0.2c-4,0.1-5.5-0.8-4.7-2.9l-0.1-14.8l0.3-1.6c0.6-3.1,0.6-5,0.2-5.9h0.3c-0.1-1.5-0.5-2.3-1-2.3
		l0.6-1v-0.3c-0.1-1-0.4-1.5-1-1.5v-0.6h0.3c0.2-7.4,2.8-11.2,7.8-11.6h4.5c0.1,0,1.7-0.1,4.7-0.3h3.1c1.1-0.1,2.1,0.2,3.2,0.9
		c0.4,0,0.6-0.2,0.6-0.6l2.8,0.5c2.4-0.4,3.9-0.6,4.5-0.6c2.9-0.6,5.4-1.7,7.5-3.2c0.8-3.4,1.4-5.4,1.7-6.1
		c-0.2-0.4-0.3-0.8-0.3-1.2v-2.3c-0.1-3.3-0.9-6.4-2.4-9.2c-2.2-3.2-9.5-4.8-21.7-4.8l-3,0.1l-0.5,0.3c0-0.3-0.4-0.5-1.3-0.6
		l-0.6,0.3v-0.3c-1,0-1.5,0.3-1.5,1h-0.6v-0.3h-1.8c-3.9-0.2-5.8-0.7-5.8-1.4v-0.3h0.6v-1.1c0-1.1-0.4-2.8-1.1-5.3
		c0.4-1,0.6-2.7,0.5-5.2v-3.1l-0.3-2.3c-0.4-4,1.6-7.1,6-9.1c0.2,0,0.5,0.1,0.9,0.3c4.5-0.9,6.8-1.4,7-1.4c0,0.2,0.1,0.3,0.3,0.3
		l4.3-0.6l12.2,0.6c0-0.2,0.1-0.3,0.3-0.3c0.6,0,1,0.4,1,1.2h0.6c0-0.6,0.2-0.9,0.5-1c0.1,0.6,0.3,1,0.6,1h0.3c0-0.2,0.1-0.5,0.3-1
		c2.1,0.1,3.2,0.4,3.2,1l2.8-1.1l1.6,0.3c1.3-0.9,1.9-1.4,1.9-1.6l0.6,0.3h0.5c1.7-0.3,4-1.6,7-4c0-0.4-0.2-0.9-0.6-1.5
		c0.9-2.4,1.3-5.4,1.3-9c-1.1-3.1-1.7-4.9-1.7-5.4c-1.5-1.1-2.3-1.8-2.3-2.1H574v0.6h-0.3c0-1-0.8-1.9-2.5-2.6
		c-3.7-0.5-5.8-1-6.1-1.4h-0.3l-1.5,0.3c0-0.4-0.5-0.6-1.6-0.6l-0.5,0.3c-0.1-0.2-0.3-0.3-0.4-0.2h-2.9l-0.5,0.3
		c0-0.2-1.3-0.4-3.9-0.5c-0.4,0.2-0.8,0.3-1,0.3l-1.2-0.3l-1.6,0.6c0-0.3-1.4-0.5-4.2-0.5c-0.2,0-0.5,0.1-0.9,0.3
		c0-0.4-0.2-0.6-0.6-0.6l-0.6,0.3v-0.3c-0.2,0-0.5,0.1-1,0.3c-1.7-0.6-3.9-0.9-6.7-1.1c0,0.2-0.1,0.3-0.3,0.3c0-0.3-0.8-0.5-2.5-0.6
		l-0.6,0.3l-0.8-0.3l-2.8,0.4c-0.2,0-0.5-0.1-0.9-0.3c-0.4,0.2-0.8,0.3-1.3,0.3h-0.3c-1.6-0.4-3.6-0.6-6-0.8
		C511.7,405.4,506.6,405.8,504.9,406.2z"/>
	<path class="st0" d="M632.6,461.5c1.4-6.7,2.3-10.1,2.7-10.2c0.9,0,1.9,2.8,3,8.4H638c0.8,5.4,1.2,8.8,1.2,10.2
		c0,0.3,0.2,0.7,0.6,1.2v0.3c0,0.4-0.2,0.5-0.6,0.5l1,4.2v1.5l-0.3,1.5c0.2,0,0.3,0.3,0.3,0.9v0.6c-0.2,0-0.3-0.1-0.3-0.3
		c-1.1,0-4.5,0.3-10.2,1c-0.9-0.4-1.5-0.6-1.8-0.6v-1.5c0-1.7,0.3-2.9,1-3.5v-0.3l-0.3-0.6C630.4,469.4,631.8,465,632.6,461.5z
		 M619,411.7c-1.7,4.7-3.2,7.3-4.3,7.6l-2,8.3l0.3,0.5c-0.2,0-0.3,0.3-0.3,0.8c-1.9,4.2-4,10.3-6.2,18.3l0.3,0.5
		c-0.4,0-0.5,0.3-0.5,0.8c0,0.9-1.1,4.6-3.3,11.3c-1.3,7.2-2.2,11-2.8,11.5v0.3l0.3,0.6H600c-0.3,2.7-0.7,4-1.2,4
		c-1.6,9.2-2.9,13.8-3.8,13.8c0,0.4,0.1,0.8,0.3,1.2c-1,6.9-2,11.2-3,12.9l0.3,0.6c-0.6,2.1-1.1,3.7-1.6,4.8c0,0.2,0.1,0.5,0.3,1
		c-1,6.5-1.9,10.5-2.7,11.8l0.3,0.6c0,0.1-0.2,0.9-0.6,2.5l0.3,0.6h-0.3c-0.7,5.7-1.4,8.9-2.1,9.8c0,0.2,0.1,0.5,0.2,0.9
		c-0.1,1.6-0.4,2.5-0.9,2.5c0,0.2,0.1,0.5,0.3,1c0,1.1-0.5,4.5-1.5,10.3c0.1,2.5,0.4,3.8,0.6,3.8c1.1,4.2,5.3,6.3,12.6,6.3
		c8.3-0.1,12.5-0.8,12.5-1.8c0.9-1.1,2.1-3.1,3.7-5.9c1.1-2.2,2-7.8,2.7-16.8c-0.2,0-0.3-0.1-0.3-0.2c0.7-2.1,1.1-3.3,1.1-3.8
		c0-0.2-0.1-0.5-0.4-0.9l0.8-1.5l-0.3-0.6c0.8-1.7,1.7-4.8,2.7-9.1c-0.2,0-0.3-0.1-0.3-0.3c0.4,0,0.6-0.3,0.6-0.9
		c0-3.1,4.2-4.9,12.6-5.5h2.7c3.7,0.4,5.9,0.8,6.8,1.2c1.1,0,2.6,8.1,4.6,24.4c-0.3,0-0.4,0.1-0.4,0.3c0.3,0.4,0.6,2.2,1,5.3
		c0,7.4,1.6,11.7,4.9,12.7c0,1.6,4.8,2.6,14.3,2.8c4.7,0,8.5-2.6,11.3-7.9c-0.4-0.5-0.5-1.5-0.5-3c-2.3-14.8-3.4-24-3.4-27.5
		c0-0.2-0.1-0.5-0.2-1h0.2l-1.7-10.3l0.2-0.6c0-0.4-0.2-0.9-0.5-1.6l0.3-0.5l-0.8-2.1V503c0-2.4-0.2-4-0.6-4.9
		c0-5.4-1.1-10.1-3.2-14.2c-1.3-11.5-2.7-20.1-4.3-25.8c0-0.2,0.1-0.5,0.3-1c-0.6-2.6-1-4-1.2-4c-1.5-9.1-2.5-14.6-3.1-16.4h0.3
		l-1-6.3c0.2,0,0.3-0.1,0.3-0.3c-0.6-3.7-1.7-7.8-3.4-12.2c-2-5.2-5.3-8.6-9.8-10.2c-0.5-1.2-4.7-1.8-12.5-1.7
		c-0.6,0-1.3,0.1-2.1,0.3c-0.4-0.2-0.8-0.3-1-0.3C624.2,407.3,620.5,409.2,619,411.7z"/>
	<path class="st0" d="M735.5,526.4c-0.2,0.4-0.3,0.6-0.3,0.9H734c0-0.2-0.1-0.5-0.3-0.9c0.2,0,0.3-0.1,0.3-0.3L735.5,526.4z
		 M697.3,505.5v2.3h-0.5l0.2-2.3H697.3z M718.5,443c0-2.3,1.4-3.4,4.3-3.4c5.9-0.2,11.1,2.4,15.6,7.7c0.7,1,2.1,3.7,4.3,7.9
		c2.3,5.3,3.4,9.7,3.4,13.3c0,0.2-0.1,0.5-0.3,1c0.2,1.4,0.3,2.5,0.3,3.4v2.8c0,0.4,0.1,0.8,0.3,1.2c-0.2,0.4-0.3,0.9-0.3,1.4v0.9
		c0,1.6-0.1,3.6-0.3,5.9c0.2,0.4,0.3,0.8,0.3,1c-0.1,0-0.5,0.8-1,2.5l0.3,0.8c-1,8.1-1.9,13.8-2.8,17.1l0.3,1.3l-0.6,0.5
		c-0.6,3.1-2,7.2-4,12.2c0,0.9-1.1,2.4-3.2,4.6l-0.5-0.2h-1v0.2c-1.7,1-2.6,1.8-2.6,2.5h-0.3l-1.2-0.9c-1.4,1-2.1,1.6-2.1,1.9h-4.3
		h-0.3l-0.5,0.3l-0.3-0.8c-0.5,0.5-1.1,0.8-1.9,0.8c0,0.8-0.7,1.3-2.1,1.5c0-0.3-0.2-1.3-0.6-2.9c0-1.4,0.1-4.4,0.3-8.9
		c1.2-9.7,1.8-18.7,1.8-27.2c0-0.2-0.4-4.5-1.2-12.8l0.3-0.6l-0.6-2.6c0.2-0.4,0.3-0.8,0.3-1.2v-0.6l-0.3-1.8l0.3-0.8
		c-0.4-3.2-0.6-5.8-0.6-7.7l0.3-1.5c-0.2,0-0.3-0.3-0.3-1v-1.6l0.3-1.5c-0.2,0-0.3-0.1-0.3-0.3c0.3-4.7,0.6-7.9,1-9.8l-0.3-0.5
		C718.4,444.5,718.5,443.1,718.5,443z M707.4,407.2c-0.2,0-0.9-0.1-1.9-0.3c-4.8,0-8.3,2.6-10.6,7.7c-1.2,0-2.5,5.7-3.8,17.2
		c0.2,0,0.3,0.1,0.3,0.4c-0.2,0.4-0.3,0.8-0.3,1.2v0.6c0,1.7-0.1,3.6-0.3,5.6l0.3,1.3c-0.2,2.1-0.5,4.4-0.9,6.8
		c0.2,0,0.3,0.1,0.3,0.3c-0.2,1.2-0.3,2.2-0.3,2.9v2.5l0.3,0.5l-1,1.1c0,0.4,0.2,0.9,0.6,1.5c0,1.5-0.1,2.7-0.3,3.4
		c0.2,1.8,0.3,3.3,0.3,4.6v11.9l0.3,2.3c-0.2,0-0.4,1.5-0.6,4.6c0.2,0,0.3,0.1,0.3,0.3h-0.3c0,3.3,0.2,6.5,0.6,9.7
		c-0.2,0-0.3,0.1-0.3,0.2c0.2,0.4,0.3,0.8,0.3,1.4v0.9c0,0.8-0.1,1.7-0.3,2.8l0.3,0.6c-0.2,1.8-0.3,3.3-0.3,4.4v0.3l0.3,1.5
		c-0.2,0-0.3,0.3-0.3,1v0.6l0.3,0.6c-0.3,0-0.5,0.4-0.6,1.2l0.3,0.6c0,0.2-0.1,0.5-0.3,0.9l0.3,2.3c-0.2,1.5-0.3,2.3-0.3,2.5
		c0.2,1.1,0.3,1.7,0.3,1.9c-0.4,0.7-0.6,1.3-0.6,1.6c0,0.4,0.1,0.8,0.3,1.2c-0.2,0.4-0.3,0.6-0.3,0.9c0,4.6,0.2,8.8,0.6,12.8
		c0,0.1-0.1,1.5-0.3,4.1c0.2,3.7,0.3,5.9,0.3,6.9c-0.2,1.5-0.3,2.4-0.3,2.6s0.1,0.3,0.3,0.3c0,3.4,1,5.9,3.1,7.4l-0.3,0.6
		c1.1,1.7,2.8,2.6,4.9,2.6l1.9-0.3c1.3,0.2,2.6,0.6,4.1,1.2c0.2,0,0.5-0.1,1-0.3l5.6,1c0-0.2,0.1-0.3,0.3-0.3l1.8,0.3l0.6-0.3
		c0,0.2,0.1,0.3,0.3,0.3h0.5c0.5,0,1-0.1,1.4-0.3c0.4,0.2,0.8,0.3,1.2,0.3h1c3.3,0,5.7-0.1,7.1-0.3c8.3-1.4,12.5-2.5,12.5-3.1
		l2.3,0.2h0.3c3.4-0.9,7.9-4.2,13.4-9.9c4.3-4,6.4-6.6,6.4-7.8c1.9-3.2,2.9-5.2,2.9-6.2c5-10.1,7.5-17.3,7.5-21.6
		c-0.2,0-0.3-0.1-0.3-0.3l0.5-0.9v-3.4l0.3-1.6c-0.2,0-0.3-0.3-0.3-0.9V503c0.6-3.9,1-6.2,1-6.9v-5.3c0.5-0.6,0.9-1.8,1.3-3.5
		c-0.8-0.7-1.2-1.9-1.3-3.7l0.3-0.8c-0.2-0.3-0.3-0.7-0.3-1.2v-1.2c0-3.3-0.2-5.5-0.6-6.6h0.3l-0.3-1.5c0-0.6,0.1-1,0.3-1.4
		l-0.9-4.6c-1.1-7.1-2.3-11.8-3.8-14.1c-0.6-2.7-1.2-4.1-1.6-4.1c0-0.5,0.1-1.3,0.3-2.5c0-0.4-0.2-0.5-0.6-0.5
		c-1.8-7.8-3-12.2-3.7-13.1c0-1.6-2-5.3-5.9-11.3c-8.3-9.4-19.2-14.1-32.8-14.1H718l-0.5,0.3c0-0.2-0.1-0.3-0.3-0.3h-6.6l-1.6-0.3
		C708.9,406.7,708.4,407,707.4,407.2z"/>
</g>
<g>
	<path class="st3" d="M642.1,364.7c-0.1,0.3,0,0.5,0.1,0.6C644.9,367,644.9,366.8,642.1,364.7 M603.7,328.5c0,0.2,0.2,0.4,0.4,0.4
		C606.6,330.8,606.5,330.6,603.7,328.5 M592.7,341.6c-0.1,0.3,0,0.6,0.1,0.8C595.4,344.2,595.3,343.9,592.7,341.6 M599.6,329.1
		c0,0.2,0.1,0.4,0.2,0.4C602.6,330.4,602.5,330.3,599.6,329.1 M645.3,350c2.7,1.7,2.7,1.5-0.3-0.6
		C645.1,349.7,645.2,349.9,645.3,350 M646.9,344.6c-0.4,1.2-0.1,1.7,0.7,1.5l1.9-0.3C651.4,341,650.5,340.6,646.9,344.6
		 M635.2,354.8l0,1.3c3.4-1.6,3.4-2.6,0-2.9C635.3,353.7,635.2,354.2,635.2,354.8 M632.3,352.8c2.5,2.7,2.4,2.5-0.3-0.6
		C632.1,352.5,632.2,352.7,632.3,352.8 M756.1,398.3c-0.2-0.1-0.5-0.1-0.8,0l-0.1,0.5c0.4-0.1,0.7-0.1,0.9-0.1L756.1,398.3
		 M669.4,364.8c1-2.9,0.3-4.6-1.9-4.9c-0.1,1.1,0,2.2,0.2,3.4l0.5-0.1c-0.3,6.4-0.1,7.2,0.7,2.5c0-0.2,0-0.5,0-0.8
		C669.2,365,669.3,364.9,669.4,364.8 M672.2,351c2.6,1.9,2.5,1.7-0.3-0.6C672,350.7,672.1,350.9,672.2,351 M666.3,351.5
		c3.6,0.4,3.4-0.6-0.8-2.9C665.2,350.4,665.5,351.4,666.3,351.5 M653.9,331.3c0.1,1.1,0.1,1.6,0.2,1.6
		C658.1,334,658.1,333.4,653.9,331.3 M736.3,366.8c-0.1,0.3,0,0.5,0.2,0.4C739.1,369.1,739,369,736.3,366.8 M738.4,372.5
		c0.8,1.7,1.8,3.2,2.9,4.4l0.8,0.8C745.8,375.7,744.6,374,738.4,372.5 M739.6,382.3c0,0.2,0.1,0.4,0.3,0.6
		C743.2,384.8,743.1,384.6,739.6,382.3 M651.8,204.2c-0.2,0-0.4,0.1-0.5,0.2c-2.2,3.2-4.8,6-7.8,8.3c-0.1,0.3-0.1,0.6,0,0.8
		c-0.3-0.1-0.5,0-0.6,0.3c-0.8,0.7-1.4,1.3-1.9,2.1c-0.1,0.3-0.1,0.6,0,0.8c-0.1,0.3-0.1,0.5-0.3,0.4c-1,0.4-1.8,1-2.3,2
		c0,3.3,1,3.1,3.1-0.8c0.1-0.1,0.2-0.3,0.2-0.7c0.7-1,1.4-1.8,2.2-2.6c0.1-0.1,0.2-0.3,0.2-0.7c0.3,0.1,0.5,0,0.6-0.1
		C647.5,211.1,649.9,207.8,651.8,204.2 M651.9,202.6c1.3,1.3,3.3,0.5,6-2.4c0.6-0.6,0.5-1.3-0.2-2.1
		C656.3,196.5,654.3,198,651.9,202.6 M690.5,176.5c-0.6,1.8-0.4,3.1,0.6,3.8C694.6,178.9,694.4,177.6,690.5,176.5 M606.1,309.6
		c3-0.9,3-1.1,0.1-0.5L606.1,309.6 M602.3,301.6l-0.1,1.6C606,298,606,297.4,602.3,301.6 M594.1,288.4c0.2,0.1,0.4,0,0.5-0.1
		c4-6.4,3.6-6.7-1.3-0.8c-0.1,0.2-0.1,0.5,0,0.8c-0.3,0-0.5,0.1-0.5,0.2c-0.6,1-1.3,1.7-2.1,2.1c1.1,1,2.2,0.5,3.2-1.6
		C594,288.9,594.1,288.6,594.1,288.4 M602.1,283.3l-3.1,2.9c0.1,1.4,0.9,2.2,2.3,2.4c0.3,0.2,0.6,0.2,0.8,0.2
		c-0.1,0.2-0.1,0.3,0,0.3c3.1,0.9,3.1,0.6,0-1.1C602.6,286.2,602.6,284.6,602.1,283.3 M555.2,322.5c-0.2-0.1-0.4,0-0.6,0.1
		c-1.7,0.6-3.5,1.3-5.2,2.1c2.1,1.9,4.3,1.4,6.4-1.5c0.2-0.2,0.3-0.5,0.2-0.7l1.6-1.4c3.1-1.7,2.3-1.5-2.3,0.5
		C555.2,321.9,555.2,322.2,555.2,322.5 M535.8,300.7l0,1.3C538.1,302.1,538.1,301.6,535.8,300.7 M562.6,282.4l-0.1,0.3
		C566.9,281.6,566.9,281.5,562.6,282.4 M552.4,289.6c4.8-1.5,4.9-1.6,0.1-0.3L552.4,289.6 M541.9,257.1c3.1,3.7,3,3.5-0.1-0.8
		C541.7,256.6,541.8,256.9,541.9,257.1 M566.3,232.4l-0.1,0.3C571.5,231,571.6,230.9,566.3,232.4 M608.4,234.8l-0.1,0.3
		C611.1,234.2,611.1,234.1,608.4,234.8 M578.5,171.3l0,1.3c2.2,0.1,2.2-1.1,0.1-3.7C578.6,169.7,578.6,170.5,578.5,171.3
		 M547.2,162.7c-0.1,0.3,0,0.6,0.1,0.8C550.2,165.8,550.1,165.6,547.2,162.7 M693.5,371.6c0.3-2-1.1-3.5-4.4-4.3
		c-0.1,1.6,0.1,3.1,0.5,4.3c0.5,1,1.1,1.8,2,2.4c0.5,0.4,0.8,0.4,1,0.2C693.1,373.3,693.4,372.4,693.5,371.6 M679.5,330.3
		c0.3,0.2,0.6,0.5,0.9,0.7c3.1,2.4,3.1,2.3,0-0.3c-0.3-0.2-0.7-0.5-1.1-0.8C679.3,330,679.4,330.2,679.5,330.3 M704.5,235.6
		c1,0.1,1.7,0.2,2.1,0.2l0.3,0c-0.4-0.1-1.3-0.2-2.7-0.4l-0.1,0.2l0,0.2C704.3,235.6,704.4,235.6,704.5,235.6 M664.5,297.4
		c2.6,1.9,2.5,1.7-0.1-0.5C664.4,297.2,664.5,297.3,664.5,297.4 M661.2,296c0,0.2,0.1,0.4,0.1,0.6c1.2,5,3.2,9.3,5.9,13.1
		c0-0.2-0.1-0.4-0.3-0.6C665.5,304.3,663.6,299.9,661.2,296 M709,218.5c-0.2-0.1-0.4,0-0.6,0.3c-1.4,0.8-2.9,1.4-4.4,2
		c0.9,0.6,2.5,0.7,4.9,0.4c0.3-0.2,0.6-0.2,0.8-0.1c2.2,0.5,3.2-0.2,2.9-2.2c0-0.1-0.1-0.1-0.3-0.1c0.5-0.7,1.3-1.1,2.4-1
		c0.6,0,1-0.1,1.3-0.2c0.9-0.1,1.2-0.5,0.8-1.1c-0.1-0.1-0.2-0.3-0.4-0.4l0,0c-0.1,0-0.2-0.1-0.3-0.1c-1-0.4-3.1,0.3-6.2,1.9
		c-0.1,0.3-0.1,0.6,0,0.8C709.6,218.4,709.4,218.4,709,218.5 M689.3,341.5c-0.1,0.2,0,0.4,0.3,0.6
		C693.7,346.5,693.6,346.3,689.3,341.5 M688.7,296.3c0,0.2,0.1,0.4,0.1,0.5C694.3,299.3,694.2,299.1,688.7,296.3 M696.5,282.7
		c0.5-2.3,0-4-1.4-4.9c-3-1.7-4.8-1.2-5.4,1.6c-0.8,3.4-2.5,4.7-5.3,3.7c0,0.2,0.1,0.4,0.2,0.4C690,288.6,693.9,288.3,696.5,282.7
		 M702.4,280.9c4.3,0.2,4.3-0.2,0-1.1L702.4,280.9 M704.6,267.6c-0.1,0.3,0,0.5,0.1,0.5C707.4,269.8,707.4,269.7,704.6,267.6
		 M682.5,272.5l0,1.3C685.6,272.6,685.6,272.2,682.5,272.5 M695.7,224.4l0.1,0.5C703,222.6,703,222.4,695.7,224.4 M691.1,217.8
		c-0.1,0.3,0,0.5,0.3,0.6C693.9,220.2,693.8,220,691.1,217.8 M681.7,234.6c0.2-0.1,0.5-0.2,0.8-0.1c-0.1,0.2-0.1,0.5,0,0.8
		c-0.1,0.2-0.2,0.5-0.4,0.7c-0.1,0-0.3,0-0.5,0.1c0,7.3,2.9,8.9,8.7,5c0.5-0.3,0.7-1,0.6-2.2c-0.2-2.6-1.6-3.9-4.4-4.2
		c0-0.3-0.1-0.6-0.3-0.8c-0.2-0.4-0.4-0.7-0.6-0.9c0.1-0.3,0.1-0.6,0-0.8c1.1-0.5,2.2-1.1,3.1-1.8c0.1,0,0.1-0.2,0.1-0.5
		c2.1-0.4,3.6-1.4,4.6-3l0.7-0.9c-1.7-0.9-3.6-0.2-5.8,2.2c0,0.3,0,0.6,0,0.8c-0.3-0.1-0.6,0-0.8,0.1c-3.2,1.8-6.2,3.7-9.1,5.9
		C678.9,236.9,680,236.8,681.7,234.6 M678.6,209.9l-0.1,0.5C684.7,210.4,684.7,210.3,678.6,209.9 M689.4,203.3
		c0.1-0.3,0-0.6-0.1-0.8c-0.7-10.4-4.7-12.5-11.8-6.2c0,0.2,0,0.5,0,0.8C678.2,204.3,682.2,206.4,689.4,203.3 M686,208.3
		c3.7,0.1,3.7,0,0-0.3L686,208.3 M591.1,301.1c-0.1,1.1,0.1,2.2,0.3,3.3c0.5,2.6,1.6,3,3.4,1.1c1.1-1.2,1.8-2.3,2.1-3.1
		c0.8-1.6,0-2.3-2.3-2.1C593.7,300.5,592.5,300.7,591.1,301.1 M589.8,294.1l0.4-0.9c-1.5,0.6-3.4,1.9-5.8,3.6
		c-0.7,0.5-1.4,1-2.2,1.6c0,0.3,0.1,0.5,0.2,0.4c1.3,0.5,2.8,0,4.6-1.7C587.9,296.4,588.8,295.4,589.8,294.1 M602.1,231.3
		c-0.1,0.8,0,1.2,0.2,1.3c0.7,0.2,1.3,0.3,1.8,0.4c3.1,0.7,3,0.4-0.3-0.9C603.3,231.8,602.7,231.5,602.1,231.3 M568.3,201
		c0.1-0.3,0.1-0.7,0-1c-0.5-3.1-2-5.3-4.6-6.6c0.6,3.3,1.9,6,4,7.9c0.1,0.2,0.3,0.3,0.5,0.4c1.1,2.3,2.1,4.7,2.9,7.3
		c0,0.2,0.1,0.4,0.1,0.6c-0.2,0-0.4,0-0.5-0.1c-4.4-8.2-12.1-13.3-23.2-15.3c-0.2,3.8,0.6,6.6,2.4,8.2c0.2,0.2,0.4,0.4,0.6,0.6
		c0.1,0.2,0.4,0.3,0.7,0.2c2.1-1.4,4.3-1.9,6.7-1.5c2.1,0.3,4.4,1.4,6.8,3.1c0.1,0.2,0.2,0.4,0.3,0.6c1,2.4,2.2,4.7,3.6,6.7
		c0,0.2,0.1,0.4,0.1,0.6c1,1.4,1.8,2.7,2.6,4.1c0.1,0.1,0.3,0.1,0.5,0.1c0,0.9,0.1,1.7,0.2,2.4c0.1,0.1,0.3,0.1,0.5,0.1
		c-0.3,1.7,0,2.9,0.8,3.4c0.2,0.1,0.4,0.2,0.5,0.2c0.1,0.1,0.1,0.2,0.1,0.5c0,0.3,0,0.6,0,0.8c0,0.3,0,0.5-0.1,0.7l0,0.2
		c0.1,0.8-0.4,1.1-1.7,0.7l0.1-0.3c-1.7-0.3-3.3-1-4.9-2.2c0.1-0.2,0.1-0.5,0-1c-0.1-1.4-1.2-1.9-3.2-1.6c-0.6,2.2-0.1,3.3,1.5,3.3
		c0.3,0,0.6,0,0.8,0c1,0.4,1.7,1.1,2,2.3c0,0.1,0.1,0.1,0.3,0.1c1,2.2,2.4,4.1,4.1,5.7c0.2,0.2,0.5,0.2,0.7,0.2
		c0.6,0.9,1.3,1.7,2.1,2.3c0.8,0.5,1.6,0.8,2.6,1.1c0.2,0.2,0.5,0.2,0.8,0.2c1.8,3.9,4.7,6.9,8.7,9c0.5,0.2,0.9,0.4,1.4,0.6
		c0.1,0.1,0.2,0.3,0.1,0.6c-0.6,4.4-0.3,7.9,1,10.5c0.2,0.3,0.2,0.6,0.3,0.8c-3.5,5.4-3.3,10,0.7,13.9c0.2,0.2,0.3,0.4,0.3,0.6
		c-0.3,0-0.5,0-0.7-0.1c-1.8-2.7-3.5-2.2-5.1,1.6c0.1-0.3,0-0.6-0.1-0.8c-0.3-1.6-1.1-1.9-2.2-0.9c-0.4,1.4-0.2,2.2,0.7,2.5
		c0.2,0,0.5,0,0.8,0c0.2,0,0.4,0,0.7,0.2c2.8,1.9,1.7,3.7-3.2,5.3c-0.1,0.2-0.1,0.5,0,0.8c-1.1,0-1.6-0.2-1.7-0.4
		c-0.9-6.3-4.1-8-9.7-5c1,9.2,4.9,11.2,11.9,5.9c0.1-0.1,0.2-0.3,0.2-0.5c3.4-1.1,6.4-2.5,9.1-4.3c0.2-0.1,0.5-0.2,0.8-0.3
		c0.2,0.1,0.5,0.1,0.8,0c1,1.5,2.5,2.4,4.6,2.7c0.3,0.1,0.6,0.1,0.8,0l0.5,0.1c0.1,0.8-0.3,1.3-1.2,1.5c0.3,1.6,1.5,1.4,3.5-0.5
		c0.1,0,0.3,0,0.5-0.1c2.2,3.2,4.3,5.1,6.4,5.8c0.3,0.1,0.6,0.1,0.8,0.2c-0.4,4.1,0,6.1,1.4,5.8c0.3,0,0.6,0,0.8,0
		c-0.1,0.2-0.1,0.5,0,0.8c-0.3,2.4-0.9,4.5-2,6.3c0,0.3,0,0.6,0,0.8c0,0.3,0.1,0.6,0.1,0.8c0.2,1.2-0.2,1.7-1,1.6
		c0.3,4.7,0.9,4.2,1.7-1.5c0.1-0.2,0.1-0.5,0-0.8c2.7-0.8,3.6,2.2,2.7,9.1c0,0.1,0.3,0.4,0.8,0.8c0.8,0.8,1.1,0.8,1.1-0.2
		c0.3,0.1,0.6,0.1,0.8,0c0.3,0.1,0.6,0.1,0.8,0c0.8,1.3,1.6,1,2.3-0.7c0.1-0.2,0.1-0.5,0.2-0.8c0.2,0.1,0.3,0.2,0.4,0.3
		c1.9,4.3,1.3,7.7-1.7,10.2c0,0.3,0,0.6,0,0.8c-0.3,0-0.6,0.1-0.8,0.1c-1.9,0.8-4.9,0.2-8.9-2c0,1.5,0.3,2.8,0.9,3.9
		c0.1,0.1,0.3,0.2,0.5,0.2c0,0.2,0,0.4-0.2,0.5c-0.1,0.1-0.3,0.2-0.6,0.3c0.4,3.1,1.1,3.3,2.2,0.8c0.2-0.2,0.3-0.5,0.2-0.7
		c0.5,2.6,1.9,3.3,4.2,2.1c2.4-1.4,5.6-2,9.6-1.6c3.4-1.1,6.2-0.6,8.3,1.3l0.1-0.3c0.3-2-0.8-3-3.4-3.2c0.1-0.3,0-0.5-0.3-0.6
		c-0.3-0.4-0.7-0.8-1.3-1.1c0-0.2-0.1-0.4-0.1-0.6c-0.5-1.3-1.2-2.5-2.2-3.5c0-0.2,0-0.5,0-0.8c0-1.3,0.1-2.6,0.2-4.1
		c0.5-0.2,1-0.5,1.5-0.9c0.1-0.1,0.2-0.3,0.2-0.7c3.8-2,7.6-0.5,11.4,4.4c2.8,3.8,5.8,7.4,9,11c0.2,2.8,0.4,5.5,0.4,8.1
		c0,0.2,0.1,0.5,0.1,0.8l-0.3,0c-0.1,1.8-0.9,2.9-2.3,3.1c1.6,5.8,2.5,5.3,2.5-1.5c0-0.3,0-0.6,0-0.8c2.3-2.8,3.1-6.5,2.5-11.2
		l0.3,0c1.6,2.6,3.1,4.6,4.7,6.2l0-0.3c1.1-1,1.9-1,2.3,0.1c0.1,0.2,0.2,0.5,0.1,0.8c-0.2-0.1-0.5-0.1-0.8,0c-0.3,1.8,0,3,0.9,3.7
		c0.2,0.2,0.5,0.3,0.7,0.4c0.4,1.3,0.8,2.7,1.3,4c0,0.3,0.1,0.6,0.1,0.9c0.7,4.8,2.3,7.7,4.5,8.5l-0.1-0.5c2.2-4,1.2-6.7-2.9-8.1
		c-0.3,0-0.6,0.1-0.8,0.1c0-0.3-0.1-0.6-0.1-0.9c-0.3-1.1-0.4-2.5-0.4-4c0-0.3,0-0.5,0.1-0.7c1.2-1.2,1.2-2.3,0-3.4
		c0.1-0.3,0.1-0.6,0-0.8c0.1-0.3,0.1-0.6,0-0.8c0.3,0,0.6,0,0.8,0c3.2,1.4,4.7,3.1,4.3,5.1c-0.1,1.3,0.4,2.5,1.5,3.5
		c5.3,4.2,9.5,9.4,12.7,15.4c0.6,0,1.2,0,1.8,0c3.8,0.4,7.3,1.9,10.4,4.4c0.1,0.1,0.3,0.1,0.5,0.1c1.8,5.2,3.9,10,6.3,14.5
		c0.7,1.2,1.5,2.4,2.2,3.5c0.4,0.7,0.9,1.3,1.4,1.9c1.7-0.7,2.6-2.6,2.7-5.6c0-0.1,0-0.2,0-0.3c0-1.1,0.1-2.3,0.2-3.7
		c-1.9-5.4-4.5-9.5-7.7-12.3l-0.2,0c-1.5,0.1-3.1-0.3-4.7-1.2c0.1-0.2,0.1-0.5,0-0.8c-0.1-1.2-0.9-1.7-2.4-1.7
		c0.1-0.2,0-0.4-0.1-0.5c-0.1-0.2-0.4-0.3-0.7-0.4c0.1-0.2,0-0.4-0.1-0.6c-1.5-2.7-3.2-5.1-5.2-7.4c0-0.3-0.1-0.6-0.1-0.9
		c-1-1.8-2.5-3.2-4.4-4.2c0-0.2-0.1-0.3-0.2-0.4c0-0.1-0.1-0.1-0.2-0.1c-4.4-3.2-8.2-7-11.4-11.3c0.1-0.3,0-0.5-0.1-0.6
		c-5.8-10-11.9-19.7-18.2-29.1c4.3-1.1,7.5-2.9,9.8-5.5c0.1-0.1,0.2-0.3,0.2-0.5c4.8-1.4,8.6-3.7,11.5-7.1c0.1-0.2,0.1-0.4,0.1-0.7
		c0.3-0.3,0.6-0.5,0.9-0.6c0.2,0,0.5-0.1,0.8-0.1c0,0.2,0.1,0.4,0.2,0.4c0.9,0.3,1.8,0.7,2.6,1.2c2.2,1.4,4.2,3.4,5.9,6
		c0.5-0.3,0.7-0.5,0.6-0.6c-0.7-2.7-3-5.1-7.1-7c-0.7-0.3-1.5-0.6-2.2-0.9c0.1-0.3,0.1-0.6,0.2-0.7c2-2.2,2-3.6,0-4.2
		c0.1-0.2,0.1-0.5,0-0.8c0.1-0.2,0.2-0.4,0.2-0.5c1.5-1,1.2-2.4-0.8-4.4c0-0.2-0.1-0.4-0.1-0.6c-1.3-2.9-2.5-6-3.5-9.3
		c1.7,0.1,3.4,0.4,5,0.7c2.2,0.5,4.3,1.2,6.3,2.1c0.2,0.1,0.5,0.1,0.8,0.2c3.3-3.5,2.5-6.9-2.7-10.1c-0.1-0.1-0.2-0.2-0.2-0.4
		c0.1-0.3,0.1-0.6,0-0.8c2.4-1,3-1.5,1.7-1.5c-0.3-0.1-0.6-0.1-0.8,0c0.1-0.3,0-0.6-0.1-0.8c-0.2-2.1-1-2.2-2.3-0.1
		c0,0.2,0,0.5,0,0.8c0,0.2,0,0.5,0,0.8c-0.3,0-0.6,0-0.8-0.2c-1-0.3-2-0.6-3-0.8c-3.5-0.9-7.4-1.6-11.5-2c2.1-1.2,4-2.6,5.7-4.2
		c0.1-0.1,0.2-0.3,0.2-0.5c0.2,0.1,0.5,0,0.8-0.1c1.4-0.5,2.8-1.1,4.1-1.8c1.8-0.9,3.5-2.1,5.2-3.4c-0.3,0-0.6,0.1-0.9,0.1
		c-1.4,0.6-2.9,1.2-4.4,1.8c-2,0.9-4.1,1.7-6.2,2.6c-0.1,0.2-0.1,0.5,0,0.8c-0.3-0.1-0.5,0-0.5,0.1c-1.2,1.4-2.7,2.3-4.6,3
		c-0.1,0.2-0.1,0.5,0,0.8c-2.6,2-4,1.7-4-1l0-0.2c0.2-2.7-0.5-4.9-2.1-6.4c6.3-4.2,9.5-10.3,9.7-18.2c0-0.2,0-0.5,0-0.8
		c0.3,0,0.5-0.1,0.6-0.3c4.6-4.6,4.4-5-0.5-1.4c-0.1,0.3-0.1,0.6,0,0.8c-0.2-0.1-0.5-0.1-0.8,0c-0.2-0.1-0.5-0.1-0.8,0
		c-1.9-0.1-2.9-1-3.1-2.6c0-0.2-0.1-0.4-0.1-0.5c-0.8-1-1-2.4-0.5-4.4c2.7-2.8,5.1-5.8,7.2-9.2l0,0c0.1-0.1,0.3-0.1,0.5-0.1
		c0.2-3.6,1.2-6.2,3-7.9c0.1-0.1,0.3-0.2,0.6-0.3c0.4-0.9,0.6-1.9,0.8-3c0.1-0.6,0.2-1.2,0.2-1.8c0-0.3,0-0.6,0-0.8
		c3.1-2.9,5.6-6.6,7.5-11c0.2-0.2,0.2-0.5,0.2-0.8l0.3,0.1c0.8-2.8,0.7-5,0-6.6c-2.6,0.5-4.4,2.3-5.3,5.3c-0.5,2.2-1.5,4.5-2.9,6.7
		c-2.4,3.8-4.6,7.8-6.4,12.1c-2.7,6.3-5.7,10.7-9,13.1c-0.2,0-0.4,0-0.5-0.1c-4.2,7.6-9.4,14.2-15.6,19.6c0,0.3,0,0.6,0,0.8
		c-0.3,5.3-2,6.6-5.1,3.8l-0.3-0.1c-0.4-6.2-3.3-10.9-8.8-14.1c-0.3,0-0.5,0.1-0.5,0.2c-1.8,2.9-1,4.7,2.6,5.6c-2.8,1.5-4.5,4-5,7.4
		c-0.4,2.1-1.1,3.1-2.1,3.1c-2.6,0.1-5.2-0.3-7.8-1.2c-0.1,0.2-0.1,0.5,0,0.8c-0.2-0.1-0.4-0.2-0.5-0.2c-0.8-1.2-2-1.9-3.6-2.3
		c0.5,1.3,1.4,2.4,2.6,3.1c0.2,0.1,0.5,0.1,0.7,0.2c-0.1,1.1,0.2,1.8,0.8,2.3c0.7,0.6,1,1.2,0.9,1.6c-0.9,5.2-5.3,8.6-13,10.2
		c0.1-0.3,0.1-0.6,0.2-0.8c0.8-2.5,0.9-4.9,0.2-7.1c-0.9-2.6-2.9-4.9-6.1-7c0-0.3-0.1-0.6-0.1-0.8c-0.9-3-1.8-5.9-2.8-8.9
		c0.1-0.2,0-0.5-0.1-0.9c-0.4-2.1-1.1-4-2-5.7c0-0.2,0-0.5,0-0.8c0.4-2.3-1.2-4-4.7-5.1c0-0.2-0.1-0.4-0.2-0.4
		c-1.2-0.9-2.5-1.6-3.7-2.2c-0.2,2.4,0.9,3.6,3.1,3.5c0.2-0.1,0.5-0.2,0.8-0.1c1.1,1.5,2.3,3,3.6,4.4c0.1,0.2,0.2,0.4,0.3,0.6
		c0.1,3,0.6,5.6,1.5,8c0,0.1,0.2,0.2,0.5,0.2c0.1,3.2,0.7,5.9,1.9,8.1c0.1,0.2,0.2,0.4,0.3,0.8c-0.1,0.2-0.1,0.5,0,0.8
		c-0.1,1.7-1.2,2.3-3.3,1.6c-0.3-0.1-0.6-0.1-0.8-0.2c-1.3-1-2.4-2.1-3.1-3.2c0-0.3-0.2-0.5-0.4-0.6c-0.9-1.5-1.8-2.9-2.8-4.4
		c0.1-0.3,0-0.5-0.1-0.5c-1.3-0.6-1.7-1.8-1.4-3.7c0.1-0.2,0-0.4-0.1-0.6c-1.3-2.6-2.7-4.9-4.5-6.9c0-0.2,0-0.5,0-0.8
		c-0.1-0.8-0.6-1.4-1.6-1.7c0-0.2-0.1-0.4-0.1-0.6c-0.8-1.4-1.7-2.6-3-3.6c0-0.2-0.1-0.4-0.1-0.6C571.7,205.5,570.2,203.1,568.3,201
		 M583.9,343c1.5,2.7,1.4,2.4-0.1-0.8C583.8,342.5,583.8,342.8,583.9,343 M585.1,309.9c0.6,1.6,1.4,1.1,2.5-1.7
		C588.8,304.9,588,305.5,585.1,309.9 M590.7,311.6c-0.1,0.3,0,0.5,0.1,0.6C593.2,313.9,593.2,313.7,590.7,311.6 M585.9,328.6l0,0.3
		C589.8,326.4,589.7,326.3,585.9,328.6 M591.7,325.5c0,0.2,0.1,0.4,0.3,0.6C594.4,327.7,594.3,327.5,591.7,325.5 M571.3,330.4
		c-0.1,0.2,0,0.4,0.1,0.5C574,332.7,574,332.6,571.3,330.4 M569.4,315.4c2.5,1.7,2.5,1.5-0.1-0.5
		C569.3,315.2,569.3,315.4,569.4,315.4 M577.1,303.1l0.1,0.5C581.4,302.5,581.4,302.3,577.1,303.1 M524.2,207.1l0.8,1
		C528.1,208,527.9,207.6,524.2,207.1 M541.8,195.9c0,1.7,0.8,2.5,2.1,2.4C548.3,198.4,547.5,197.6,541.8,195.9 M538.4,201.3
		c3.7,0.1,3.1-0.7-1.7-2.3C536.7,200.4,537.3,201.2,538.4,201.3 M538.6,195.1c4.1-0.2,3.6-1.1-1.5-2.7
		C536.7,194.2,537.2,195.1,538.6,195.1 M598.4,219.8c0,0.3,0.1,0.5,0.3,0.6C604.7,224.8,604.6,224.6,598.4,219.8 M573.9,184.9
		c-0.1,0.2,0,0.4,0.1,0.6C576.6,187.5,576.5,187.3,573.9,184.9z"/>
</g>
<g>
	<g transform="matrix( 0.16204833984375, 0.023345947265625, -0.023345947265625, 0.16204833984375, 291.7,181.55) ">
		<g transform="matrix( 1, 0, 0, 1, 0,0) ">
			<g>
				<g id="wyzn_menu_logoMc_7_0_Layer6_0_FILL_1_">
					<path d="M7156.1,557.7c-2.6-2.6-5.1-5.1-7.7-7.7c-117.6-113.9-258.9-170.8-423.7-170.8c-168.5,0-312.3,59.5-431.6,178.5
						c-119,119.3-178.5,263.2-178.5,431.6c0,168.5,59.5,312.3,178.5,431.4c119.3,119.1,263.2,178.7,431.6,178.7
						c168.5,0,312.3-59.6,431.4-178.7c68-68,116.7-144,145.9-228c21.9-63.2,32.8-131,32.8-203.4
						C7334.8,820.9,7275.2,677,7156.1,557.7 M7104.7,550c10.4,9.2,20.6,18.8,30.5,28.7c113.4,113.4,170.1,250.3,170.1,410.6
						c0,72.7-11.6,140.5-34.8,203.4c-28.1,76.2-73.1,145.2-135.3,207.2c-113.3,113.6-250.1,170.3-410.6,170.3
						c-160.3,0-297.2-56.8-410.8-170.3c-113.3-113.3-169.9-250.1-169.9-410.6c0-160.3,56.6-297.2,169.9-410.6
						c113.6-113.4,250.5-170.1,410.8-170.1C6871,408.7,6997.6,455.8,7104.7,550z"/>
					<path class="st4" d="M7135.2,578.8c-10-10-20.1-19.5-30.5-28.7c-107.1-94.3-233.8-141.4-380-141.4
						c-160.3,0-297.2,56.7-410.8,170.1C6200.6,692.2,6144,829,6144,989.3c0,160.5,56.6,297.3,169.9,410.6
						c113.6,113.6,250.5,170.3,410.8,170.3c160.5,0,297.3-56.8,410.6-170.3c62.1-62,107.2-131.1,135.3-207.2
						c23.2-62.9,34.8-130.7,34.8-203.4C7305.4,829,7248.7,692.2,7135.2,578.8z"/>
				</g>
			</g>
		</g>
		<g transform="matrix( 1, 0, 0, 1, 0,0) ">
			<g>
				<g id="wyzn_menu_logoMc_7_0_Layer5_0_FILL_1_">
					
						<radialGradient id="SVGID_1_" cx="-6124.0952" cy="-10782.8164" r="637.2426" gradientTransform="matrix(0.162 -2.334605e-02 -2.334605e-02 -0.162 7491.3442 -911.6027)" gradientUnits="userSpaceOnUse">
						<stop  offset="0.8235" style="stop-color:#FFFFFF"/>
						<stop  offset="1" style="stop-color:#383838"/>
					</radialGradient>
					<path class="st5" d="M7135.2,578.8c-10-10-20.1-19.5-30.5-28.7c-107.1-94.3-233.8-141.4-380-141.4
						c-160.3,0-297.2,56.7-410.8,170.1C6200.6,692.2,6144,829,6144,989.3c0,160.5,56.6,297.3,169.9,410.6
						c113.6,113.6,250.5,170.3,410.8,170.3c160.5,0,297.3-56.8,410.6-170.3c62.1-62,107.2-131.1,135.3-207.2
						c23.2-62.9,34.8-130.7,34.8-203.4C7305.4,829,7248.7,692.2,7135.2,578.8z"/>
				</g>
			</g>
		</g>
		<g transform="matrix( 1.090606689453125, 0, 0, 1.090606689453125, 33.45,-20.75) ">
			<g transform="matrix( 1, 0, 0, 1, 0,0) ">
				<g>
					<g id="logoMc_10_0_Layer0_0_FILL_3_">
						
							<radialGradient id="SVGID_00000110442854314031221970000011216267827556417458_" cx="-4197.543" cy="-8522.5781" r="312.8528" gradientTransform="matrix(0.1767 -2.546136e-02 -2.546136e-02 -0.1767 6768.0117 -782.1121)" gradientUnits="userSpaceOnUse">
							<stop  offset="0.6902" style="stop-color:#8C191C"/>
							<stop  offset="0.9412" style="stop-color:#8C191C;stop-opacity:0"/>
						</radialGradient>
						<path style="fill:url(#SVGID_00000110442854314031221970000011216267827556417458_);" d="M6460.1,613.8
							c-59.9-59.9-132.2-89.8-216.9-89.8c-84.8,0-157.1,29.9-217.2,89.8c-59.9,60-89.8,132.4-89.8,217.2s29.9,157.1,89.8,216.9
							c60,60,132.4,90,217.2,90c84.8,0,157.1-30,216.9-90c60-59.9,90-132.2,90-216.9S6520.1,673.8,6460.1,613.8z"/>
					</g>
				</g>
			</g>
		</g>
		<g transform="matrix( 1, 0, 0, 1, 0,0) ">
			<g>
				<g id="wyzn_menu_logoMc_7_0_Layer3_0_FILL_3_">
					<path d="M7049.1,690.3c-32.3-32.3-68.8-54.7-109.5-67.2c-25.5-7.8-52.6-11.8-81.2-11.8c-49.9,0-94.9,11.8-135,35.5
						c-19.8,11.6-38.3,26.1-55.6,43.4c-7.8,7.8-15.1,15.9-21.7,24.2c-38.2,47.5-57.2,103-57.2,166.5c0,74.3,26.3,137.8,78.9,190.5
						c4.4,4.4,8.9,8.7,13.6,12.9c49.9,44,109,66.1,177.1,66.1c74.5,0,138.1-26.3,190.7-78.9c41.6-41.6,66.8-90,75.6-145.2
						c2.3-14.6,3.4-29.7,3.4-45.2C7128,806.5,7101.7,742.9,7049.1,690.3 M7033,706.6c7.1,7.1,13.6,14.4,19.7,21.9
						c22.5,28.1,37.8,59.1,45.9,93.2c4.4,18.9,6.6,38.7,6.6,59.5c0,12.5-0.8,24.7-2.5,36.6c-4.8,35.1-16.9,67.4-36.2,96.8
						c-9.4,14.2-20.5,27.7-33.5,40.7c-28.4,28.5-60.2,48.6-95.7,60.4c-24.6,8-50.8,12-78.7,12c-8,0-15.9-0.3-23.8-0.9
						c-49.2-4.4-92.8-22.2-131-53.4c-6.8-5.6-13.4-11.6-19.9-18.1c-9.5-9.5-18-19.4-25.6-29.6c-17.5-23.5-30.1-49.1-37.8-76.7
						c-4.5-16.4-7.3-33.6-8.4-51.4c-0.3-5.4-0.5-10.9-0.5-16.5c0-57.2,17-107.3,50.9-150.4c6.5-8.3,13.6-16.4,21.3-24.2
						c17.3-17.2,36-31.4,55.9-42.5c29.6-16.4,62.1-26,97.5-28.7c6.9-0.6,14-0.9,21.3-0.9c28.8,0,55.8,4.3,81,12.9
						C6974.1,659.1,7005.2,678.8,7033,706.6 M6864,760.4c-21.1,3.3-39.9,12-56.3,26c-3,2.4-6,5.1-8.8,7.9c-3,3-5.8,6.1-8.4,9.3
						c-18.2,22-27.4,47.8-27.4,77.4c0,6.9,0.5,13.6,1.6,20.1c3.3,22.2,12.5,42,27.6,59.5c2.1,2.4,4.3,4.8,6.6,7
						c18.2,18.2,39.4,29.6,63.6,33.9c7.4,1.2,15.1,1.8,23.1,1.8c8.3,0,16.4-0.7,24.2-2c23.5-4.5,44.3-15.8,62.2-33.7
						c4.4-4.4,8.4-8.9,12-13.6c11.3-14.9,18.6-31.4,21.9-49.5c1.4-7.7,2-15.5,2-23.5c0-10.6-1.1-20.7-3.4-30.3
						c-2.1-8-5-15.7-8.6-23.1c-1.7,2.6-3.6,5-5.9,7.2c-3.9,3.9-8.1,6.9-12.7,8.8c-5.1,2.3-10.7,3.4-16.7,3.4
						c-11.5,0-21.2-4.1-29.2-12.2c-8.1-8-12.2-17.7-12.2-29.2c0-11.5,4.1-21.3,12.2-29.4c2.3-2.3,4.8-4.2,7.5-5.9
						c-8.4-4.1-17.3-7.1-26.5-9c-8.6-1.8-17.6-2.7-26.9-2.7C6878.1,758.6,6871,759.2,6864,760.4 M6825.6,946.6
						c11,11,23,19.4,36,25.1c11.6,5.1,24.1,8.1,37.3,8.8c2.9,0,5.6,0.2,8.1,0.5c-1.1,0.2-2.1,0.3-3.2,0.5
						c-6.8,1.4-13.9,2.1-21.3,2.3c-12.5,0-24.1-2-34.6-6.1c-11.9-4.7-22.7-11.8-32.3-21.5c-18.4-18.4-27.5-40.6-27.4-66.7
						c0-9.4,1.2-18.2,3.6-26.7c-0.2,3.5-0.2,7.1,0,10.9C6793.4,901.3,6804.6,925.6,6825.6,946.6z"/>
					<path class="st7" d="M6937.3,1115.8c-0.8-34.7-5.7-64.5-14.9-89.4c-3.9-10.4-8.1-18.8-12.7-25.1c-7.8,1.4-15.9,2-24.2,2
						c-8,0-15.7-0.6-23.1-1.8c-4.5,6.2-8.7,14.5-12.7,24.9c-10,26.8-14.9,59.3-14.9,97.3c0,1.1,0,2.1,0,3.2
						c7.8,0.6,15.8,0.9,23.8,0.9C6886.5,1127.8,6912.7,1123.8,6937.3,1115.8 M7026,902.9c-7.5,0-14.3,0.5-20.1,1.6
						c-3.3,18.1-10.6,34.6-21.9,49.5c3.6,5.3,8.5,10.9,14.7,16.7c17.3,16.7,40,31.4,67.9,43.9c19.3-29.4,31.4-61.7,36.2-96.8
						C7074.8,907.9,7049.2,902.9,7026,902.9 M6991.8,778.1c6.8,7.8,10.2,17,10.2,27.6c0,8.1-2,15.5-6.1,21.9
						c3.6,7.4,6.5,15.1,8.6,23.1c5.4,0,11.5-0.5,18.3-1.6c23.7-3.6,48.9-12.7,75.8-27.4c-8.1-34.1-23.5-65.1-45.9-93.2
						C7027.3,744,7007.1,760.6,6991.8,778.1 M6764.7,901.1c-12.1-9.5-27.8-15.8-47.3-19c-33.6-5.6-68.7-0.4-105.2,15.6
						c1.1,17.8,3.8,34.9,8.4,51.4c29.7-13.3,56.7-20.9,81-22.8c24.4-1.8,39.1,2.6,44.1,13.3c4.8,10.9-1.6,24.8-19.2,41.8
						c-17,16.6-39.7,31.4-68.1,44.3c7.5,10.3,16.1,20.1,25.6,29.6c6.5,6.5,13.1,12.5,19.9,18.1c31.1-16.3,54.7-37.5,71-63.6
						c10.9-17.2,16.7-33.6,17.4-49.3C6777.2,943.1,6768,923.3,6764.7,901.1 M6793.7,738.5c-12.5-24-30.5-48.8-53.8-74.4
						c-19.9,11.2-38.5,25.3-55.9,42.5c-7.7,7.8-14.8,15.9-21.3,24.2c27.4,25.8,54,45.5,79.6,59c21,11,37,15.6,48.2,13.8
						c2.6-3.2,5.4-6.3,8.4-9.3c2.9-2.9,5.8-5.5,8.8-7.9C6809.2,775.3,6804.5,759.3,6793.7,738.5 M6932.8,706.8
						c3.8-17.9,6-37.8,6.8-59.5c-25.2-8.6-52.2-12.9-81-12.9c-7.2,0-14.3,0.3-21.3,0.9c0.3,38.9,5.3,72.2,14.9,99.8
						c3.6,10.3,7.5,18.7,11.8,25.3c6.9-1.2,14.1-1.8,21.5-1.8c9.4,0,18.3,0.9,26.9,2.7c4.4-6.6,8.5-15.4,12.4-26.2
						c1.2-3.3,2.3-6.6,3.4-10c-1.1-2-1.6-4.1-1.6-6.3C6926.7,714.1,6928.7,710.1,6932.8,706.8z"/>
					<path class="st8" d="M6983.9,954.1c-3.6,4.7-7.6,9.2-12,13.6c-17.9,17.9-38.7,29.2-62.2,33.7c4.5,6.3,8.7,14.7,12.7,25.1
						c9.2,24.9,14.2,54.7,14.9,89.4c35.4-11.8,67.3-31.9,95.7-60.4c13-13,24.1-26.5,33.5-40.7c-27.9-12.5-50.5-27.1-67.9-43.9
						C6992.4,964.9,6987.5,959.3,6983.9,954.1 M7022.8,849.1c-6.8,1.1-12.9,1.6-18.3,1.6c2.3,9.7,3.4,19.8,3.4,30.3
						c0,8-0.7,15.8-2,23.5c5.9-1.1,12.6-1.6,20.1-1.6c23.2,0,48.8,5,76.7,14.9c1.7-11.9,2.5-24.1,2.5-36.6c0-20.8-2.2-40.6-6.6-59.5
						C7071.8,836.3,7046.5,845.5,7022.8,849.1 M6798.9,967.6c-2.3-2.3-4.4-4.6-6.6-7c-0.8,15.7-6.6,32.1-17.4,49.3
						c-16.3,26.1-40,47.3-71,63.6c38.2,31.2,81.8,49,131,53.4c0-1.1,0-2.1,0-3.2c0-38,5-70.4,14.9-97.3c3.9-10.4,8.1-18.7,12.7-24.9
						C6838.3,997.2,6817.1,985.9,6798.9,967.6 M6717.4,882.1c19.5,3.2,35.2,9.5,47.3,19c-1.1-6.5-1.6-13.2-1.6-20.1
						c0-29.6,9.1-55.3,27.4-77.4c-11.2,1.8-27.2-2.8-48.2-13.8c-25.6-13.6-52.2-33.3-79.6-59c-33.9,43.1-50.9,93.3-50.9,150.4
						c0,5.6,0.2,11.1,0.5,16.5C6648.7,881.7,6683.8,876.5,6717.4,882.1 M6837.3,635.3c-35.4,2.7-67.9,12.3-97.5,28.7
						c23.4,25.6,41.3,50.4,53.8,74.4c10.9,20.8,15.5,36.8,14,48c16.4-14,35.2-22.7,56.3-26c-4.2-6.6-8.1-15.1-11.8-25.3
						C6842.6,707.5,6837.6,674.2,6837.3,635.3 M6939.6,647.3c-0.8,21.7-3,41.5-6.8,59.5c0.5-0.5,0.9-0.8,1.4-1.1
						c4.8-3.6,10.8-5.4,17.9-5.4c6.9,0,12.8,1.8,17.6,5.4c5,3.6,7.5,8,7.5,13.1c0,5.1-2.5,9.4-7.5,12.9c-4.8,3.6-10.7,5.4-17.6,5.4
						c-7.1,0-13-1.8-17.9-5.4c-2.9-2-4.8-4.1-5.9-6.6c-1.1,3.3-2.2,6.6-3.4,10c-3.9,10.9-8.1,19.6-12.4,26.2c9.2,2,18,5,26.5,9
						c6.3-4.1,13.6-6.1,21.7-6.1c11.5,0,21.3,4,29.4,12c0.6,0.6,1.2,1.2,1.8,1.8c15.2-17.5,35.5-34,60.9-49.5
						c-6-7.5-12.6-14.9-19.7-21.9C7005.2,678.8,6974.1,659.1,6939.6,647.3z"/>
					<path class="st4" d="M7002,805.7c0-10.6-3.4-19.8-10.2-27.6c-0.6-0.6-1.2-1.2-1.8-1.8c-8.1-8-17.9-12-29.4-12
						c-8.1,0-15.4,2-21.7,6.1c-2.7,1.7-5.2,3.6-7.5,5.9c-8.1,8.1-12.2,17.9-12.2,29.4c0,11.5,4.1,21.2,12.2,29.2
						c8,8.1,17.7,12.2,29.2,12.2c6,0,11.6-1.1,16.7-3.4c4.5-2,8.7-4.9,12.7-8.8c2.3-2.3,4.2-4.7,5.9-7.2
						C7000,821.1,7002,813.8,7002,805.7 M6861.5,971.7c-13-5.7-25-14.1-36-25.1c-21-21-32.2-45.3-33.7-73.1c-0.2-3.8-0.2-7.4,0-10.9
						c-2.4,8.4-3.6,17.3-3.6,26.7c-0.2,26.1,9,48.3,27.4,66.7c9.7,9.7,20.4,16.8,32.3,21.5c10.6,4.1,22.1,6.1,34.6,6.1
						c7.4-0.2,14.5-0.9,21.3-2.3c1.1-0.2,2.1-0.3,3.2-0.5c-2.6-0.3-5.3-0.5-8.1-0.5C6885.6,979.8,6873.1,976.8,6861.5,971.7
						 M6928.3,725.1c1.1,2.4,3,4.6,5.9,6.6c4.8,3.6,10.8,5.4,17.9,5.4c6.9,0,12.8-1.8,17.6-5.4c5-3.5,7.5-7.8,7.5-12.9
						c0-5.1-2.5-9.5-7.5-13.1c-4.8-3.6-10.7-5.4-17.6-5.4c-7.1,0-13,1.8-17.9,5.4c-0.5,0.3-0.9,0.7-1.4,1.1c-4.1,3.3-6.1,7.3-6.1,12
						C6926.7,721.1,6927.2,723.2,6928.3,725.1z"/>
					<path class="st9" d="M6745.7,939.6c-5-10.7-19.7-15.2-44.1-13.3c-24.3,2-51.3,9.6-81,22.8c7.7,27.6,20.3,53.2,37.8,76.7
						c28.4-13,51-27.7,68.1-44.3C6744.1,964.4,6750.5,950.4,6745.7,939.6z"/>
				</g>
			</g>
		</g>
		<g transform="matrix( 0.7938232421875, 0, 0, 0.6387176513671875, 28.95,46.9) ">
			<g transform="matrix( 1, 0, 0, 1, 0,0) ">
				<g>
					<g id="logoMc_8_0_Layer0_0_FILL_3_">
						<path class="st10" d="M8846.4,1759.8c12.5-10.1,24.1-20.5,34.6-31.2c-7.8,6.8-16.1,13.3-24.7,19.7
							c-82.3,60.9-182,91.4-298.8,91.4c-116.7,0-216.3-30.5-298.8-91.4c-8.7-6.5-17-13.1-24.9-19.9c10.6,10.9,22.2,21.3,34.8,31.4
							c79.8,64.2,176.1,96.4,288.9,96.4C8670.5,1856.2,8766.8,1824,8846.4,1759.8z"/>
					</g>
				</g>
			</g>
		</g>
		<g transform="matrix( -0.7382965087890625, 0, 0, -0.5369415283203125, 32.95,-85.4) ">
			<g transform="matrix( 1, 0, 0, 1, 0,0) ">
				<g>
					<g id="logoMc_9_0_Layer0_0_FILL_3_">
						<path class="st10" d="M-9370.2-1272.5c-28.2-16-44.7-26.1-49.5-30.3c6.5,6.6,24,22.8,52.5,48.6
							c28.7,25.8,77.8,38.7,147.5,38.5s118.7-13.1,147-38.7c28.5-25.6,46.1-41.8,52.7-48.4c-4.8,4.2-21.3,14.5-49.5,31
							c-28,16.6-78.1,24.7-150.2,24.2C-9291.8-1248.1-9342-1256.4-9370.2-1272.5z"/>
					</g>
				</g>
			</g>
		</g>
		<g transform="matrix( 1, 0, 0, 1, 0,0) ">
			<g>
				<g id="wyzn_menu_logoMc_7_0_Layer1_0_FILL_1_">
					
						<radialGradient id="SVGID_00000020378510209677942450000016839289727219569823_" cx="-6262.8896" cy="-10812.0098" r="604.6682" gradientTransform="matrix(0.162 -2.334605e-02 -2.334605e-02 -0.162 7485.144 -909.3527)" gradientUnits="userSpaceOnUse">
						<stop  offset="0.6902" style="stop-color:#8C191C"/>
						<stop  offset="1" style="stop-color:#000000"/>
					</radialGradient>
					<path style="fill:url(#SVGID_00000020378510209677942450000016839289727219569823_);" d="M6815.4,397.3
						c-29.6-4.2-59.9-6.3-91.2-6.3c-13.9,0-27.6,0.5-41.2,1.4c-101.9,6.2-194.1,35.8-276.4,88.9c-57.5,35.4-107.7,80.8-150.7,136.2
						c-41.8,51.4-73.3,107.1-94.6,166.9c-40.7,107.2-47.4,220.2-20.1,338.9c37.1,160.8,125.5,284.7,265.3,371.7
						c134.2,83.7,278,110.2,431.4,79.6c30-5.6,59-13.4,87.1-23.5c21.7-7.7,42.8-16.5,63.1-26.5c28.8-14.2,56.3-30.7,82.3-49.5
						c40.1-28.2,76.4-62,108.8-101.3c94.1-109.2,141.2-237.8,141.2-385.9c0-81.1-14.1-156.4-42.3-225.8c-1.5-3.8-3-7.5-4.5-11.1
						c-0.5-1.1-0.9-2-1.4-2.9c-1.1-2.4-2.1-4.8-3.2-7.2c-16-34.8-35.6-68.1-58.8-99.8c-19-26.1-40.5-51.1-64.5-75.1
						C7051.5,471.5,6941.3,415.3,6815.4,397.3 M6746.6,458.4c33.3-17,68.6-30.7,105.9-40.9c27.7,6.5,55.2,15.2,82.3,26.2
						c33,13.3,65.5,30,97.3,50.2c31.2,19.2,59.7,40.4,85.5,63.8c3.8,5,7.4,10,10.9,15.2c25.6,37.4,42.4,77.6,50.2,120.6
						c17.6,16.7,34.6,36,50.9,57.7l17.9,25.1c1.4,2.1,2.8,4.3,4.3,6.6c13,19.9,25.5,41.5,37.6,64.7c0.9,3.5,1.7,6.9,2.5,10.2
						c29.4,127.4,18.8,248.2-31.9,362.2c10-35.3,15.6-71.8,17-109.5c-37.4,27.3-78.9,49.5-124.4,66.5l-84.6-111.7l27.6,44.8
						c0.8,1.2,1.5,2.5,2.3,3.8c0.5,0.6,0.9,1.3,1.4,2l40.5,65.6c-21.7,78.6-61.7,152.5-119.9,221.7c18.4,16.4,40.2,32,65.4,46.8
						c-65.6,52-142.5,88.2-230.7,108.6c-157.4,36.3-304.6,11.8-441.3-73.5c-136.8-85.4-223.3-206.8-259.7-364.2
						c-19.3-83.2-21.6-163.6-6.8-241.1c-3.6,42.8-4.2,84.2-1.8,124.2c30.5,19.5,73.3,35,128.5,46.6c19.2-51.1,40.8-99.2,64.9-144.3
						l23.1-41.4c2.1-3.8,4.3-7.5,6.6-11.1c7.4-12.2,15-24.2,22.8-36c-30.5-64.5-52.8-124-67-178.5c-46.3,27.9-88,58.1-125.1,90.5
						c8.6-16.9,18-33.6,28.3-50c65.1-104.7,151.6-179.9,259.5-225.8l-6.3,23.3l-131.2,124l150-127.4c42.7-6.9,84.3-10.6,124.9-10.9
						l19.7,0.2c28.1,0.5,55.6,2.6,82.8,6.6c31.7,37.9,53.3,78,64.9,120.6C6781.4,547.5,6766.7,503.5,6746.6,458.4 M6506.6,1277.1
						l-38.2-2c-16.3-1.2-32.4-2.6-48.4-4.3c-40-39.1-72.8-79.6-98.4-121.7l74.9,130.8c-14.2,53.1-16.1,105.3-5.7,156.8
						c73.4,47.5,149.3,84.5,227.6,111.1c71.2-26.8,127.8-59.4,169.9-97.7c-31.7-32.4-60.4-66.1-86.2-100.9
						c-18.1-24.3-34.8-49.1-50-74.4l60.2-121.3c-22.8,43-51.3,84-85.5,123.1C6585.7,1278.4,6545.7,1278.6,6506.6,1277.1z"/>
					
						<radialGradient id="SVGID_00000120526567173325762390000002159398438481600937_" cx="-5705.3696" cy="-13034.2949" r="93.9927" gradientTransform="matrix(0.162 -2.334605e-02 -2.334605e-02 -0.162 7525.5439 -810.8525)" gradientUnits="userSpaceOnUse">
						<stop  offset="0.5647" style="stop-color:#8C191C"/>
						<stop  offset="1" style="stop-color:#000000"/>
					</radialGradient>
					<path style="fill:url(#SVGID_00000120526567173325762390000002159398438481600937_);" d="M6994.1,1413.9
						c-58.1,19-117.3,32.7-177.6,41.2C6880.5,1455.4,6939.6,1441.7,6994.1,1413.9z"/>
				</g>
			</g>
		</g>
		<g transform="matrix( 1, 0, 0, 1, 0,0) ">
			<g>
				<g id="wyzn_menu_logoMc_7_0_Layer0_0_FILL_1_">
					
						<radialGradient id="SVGID_00000075126605933912991630000005955726554206295954_" cx="-6751.48" cy="-10349.4932" r="446.0588" gradientTransform="matrix(0.162 -2.334605e-02 -2.334605e-02 -0.162 7478.144 -911.4527)" gradientUnits="userSpaceOnUse">
						<stop  offset="0.6902" style="stop-color:#8C191C"/>
						<stop  offset="1" style="stop-color:#000000"/>
					</radialGradient>
					<path style="fill:url(#SVGID_00000075126605933912991630000005955726554206295954_);" d="M6200.5,1196.6
						c-23.1-35.6-40.3-78.4-51.8-128.5c8,103.5,44.4,192.8,109.3,268.1l-49.5-107l85.3-105l258.3-63.1l-270.1,45.7L6200.5,1196.6
						 M6486,656.1l-90-35.7l93.7,53.4l45.9,56.8l-37.3-65.1l15.2-45.9L6486,656.1 M7090.9,679.4l11.8-86.6l-20.8-61.8l-27.1-20.6
						l36.2,83.7V679.4z"/>
				</g>
			</g>
		</g>
	</g>
	<g>
		<g transform="matrix( 0.7938232421875, 0, 0, 0.6387176513671875, 28.95,46.9) ">
			<g transform="matrix( 1, 0, 0, 1, 0,0) ">
				<g>
					<g id="logoMc_8_0_Layer0_0_FILL_2_">
						<path class="st10" d="M1727.4,768.1c2.2-1.3,4.3-2.6,6.2-4.1c-1.4,0.9-2.9,1.7-4.4,2.5c-14.5,7.5-31.2,9.5-50.1,6.1
							c-18.9-3.4-34.5-11.2-46.7-23.5c-1.3-1.3-2.5-2.6-3.7-3.9c1.5,2.1,3.2,4.1,5.1,6.1c11.7,12.7,26.7,20.7,45,24
							C1697.1,778.6,1713.3,776.2,1727.4,768.1z"/>
					</g>
				</g>
			</g>
		</g>
	</g>
</g>
</svg>
