<?xml version="1.0" encoding="utf-8"?>
<!-- Generator: Adobe Illustrator 25.4.1, SVG Export Plug-In . SVG Version: 6.00 Build 0)  -->
<svg version="1.1" id="Layer_1" xmlns="http://www.w3.org/2000/svg" xmlns:xlink="http://www.w3.org/1999/xlink" x="0px" y="0px"
	 viewBox="0 0 657.7 175.6" style="enable-background:new 0 0 657.7 175.6;" xml:space="preserve">
<style type="text/css">
	.st0{fill-rule:evenodd;clip-rule:evenodd;fill:#ED2024;}
	.st1{fill:#FFFFFF;}
</style>
<g>
	<path class="st0" d="M437,3.6c-2.6,1.3-9.3,1.1-9.4-3.5C430.5-0.6,433.6,3.3,437,3.6z"/>
	<path class="st0" d="M365.5,0.7c-0.1,1.8-2.3,1.4-2.8,0.5C363.5-0.1,364.5,0,365.5,0.7z"/>
	<path class="st0" d="M485.9,5c1.7-0.5,1.8,1.3,3.1,1.4C488.5,7.5,485.3,7.5,485.9,5z"/>
	<path class="st0" d="M509.6,11c-1.7,1.3-5.2,0.6-5.9-1.5C503.8,4.3,510.5,6.1,509.6,11z"/>
	<path class="st0" d="M340.8,1.5c0.7,0,1.3,0.1,2,0.1c0.3,2.1-1.3,0.9-2,1.2C340.8,2.4,340.8,1.9,340.8,1.5z"/>
	<path class="st0" d="M384,5.2c0.2,0.9-1.6,1.5-0.5,1.9c-1.1,1.8-1.9,0.5-3.6,0.5C380.3,7.9,382.5,2.8,384,5.2z"/>
	<path class="st0" d="M374.8,8c-4.6,1.8-9.7-1-14.7-0.6C363.8,5.4,370.4,5.4,374.8,8z"/>
	<path class="st0" d="M500.3,13.2c0.1,1.5-1.2,0.7-1.3,1.8c0.3,1.1,1.2,1.4,2.3,1.4c-3.6,1.7-8.3-0.2-10.6-2.3
		C493.7,11.9,496.9,11.3,500.3,13.2z"/>
	<path class="st0" d="M550.6,19.1c-3.8,1.6-7.9-1.6-11.9-1.8C541.8,13.4,548.7,14.8,550.6,19.1z"/>
	<path class="st0" d="M553.1,16c3.9-2,6.6,2.7,9.4,4.2c-0.7,1.4-3.9,0.4-6.4,0.4C555.7,18.2,555.6,16.5,553.1,16z"/>
	<path class="st0" d="M582.7,22.9c-5,0.7-15.2,2.1-19.4-2.7C568.4,13.1,577,21.6,582.7,22.9z"/>
	<path class="st0" d="M478.7,17.3c-3.9,2.4-8.3-0.2-12.3-1.1C469.3,11.6,475.3,15.6,478.7,17.3z"/>
	<path class="st0" d="M487,17.7c-0.7,1.4-3,0.1-4.4,0.4C482.7,15.7,486.4,17.1,487,17.7z"/>
	<path class="st0" d="M515.6,20.1c1.2-0.7,5.9-1.5,6.3,0.9C519.3,20.7,518.3,20.7,515.6,20.1z"/>
	<path class="st0" d="M625,29.1c-5.9,0.2-15.1,0.2-19.7-4C611.9,22,620.1,26,625,29.1z"/>
	<path class="st0" d="M533.8,22.1c-1.5,1.8-3.7-0.5-5.6-0.2C527.9,20.7,532.8,21.3,533.8,22.1z"/>
	<path class="st0" d="M444,18.4c-0.6,1.9-2.8,1-4.4,1.1C440.2,17.6,442.4,18.5,444,18.4z"/>
	<path class="st0" d="M578.9,27.8c-2.5,2.3-6.1,2.4-10.4,1.5c-9.8-2-21.4-4-27.6-6.2C552.4,23.2,566.9,25,578.9,27.8z"/>
	<path class="st0" d="M599.9,30.6c-3.6,2.4-10.2-1.5-15.1-1.3c1.8-0.8,1-2.3-1.1-1.9C588.6,26.9,594.2,29.4,599.9,30.6z"/>
	<path class="st0" d="M600.7,31.2c1.4-1,5.6-0.1,5.9,0.9C604.4,32.1,602.3,32,600.7,31.2z"/>
	<path class="st0" d="M607.8,30.9c8.2,0.8,16.9,2.3,25.3,4.8C626.8,35.3,612.3,38.8,607.8,30.9z"/>
	<path class="st0" d="M640.6,37.3c-1.5,1.5-3.6-1-6-0.2C635.8,34.3,639.1,36.8,640.6,37.3z"/>
	<path class="st0" d="M599.1,39.4C594.3,41.5,594,36.8,599.1,39.4L599.1,39.4z"/>
	<path class="st0" d="M653,112.9c-0.1,1.6-1.4,1.2-2.4,1.2C650.7,112.4,651.9,112.8,653,112.9z"/>
	<path class="st0" d="M655.4,113c1.5-0.6,1.1,1.6,2.3,1.4c-1,2.8-2.8,1-4.4,1.7C653.5,114.3,655.8,116,655.4,113z"/>
	<path class="st0" d="M647,113.9c-0.6,1-1.4,1.6-2.5,1.8C644.6,113.7,645.8,113.8,647,113.9z"/>
	<path class="st0" d="M3.2,89.7c-0.8,0.9-1.9,1.1-3.2,1.1C0.5,89.4,1.9,89.6,3.2,89.7z"/>
	<path class="st0" d="M13.1,101.4c-2.3,2.1-4.9,0.4-7.6,0.9C7,100.3,10.5,101.7,13.1,101.4z"/>
	<path class="st0" d="M8.8,118.3c1,0.7,2.4,0.9,3.9,0.8C12.1,120.9,9,120.5,8.8,118.3z"/>
	<path class="st0" d="M515.7,150.7c-0.7,1.4-3,0.1-4.4,0.4C511.3,150,514.3,150.2,515.7,150.7z"/>
	<path class="st0" d="M542.3,153.7c0.5-1.4,2.5-0.1,3.6-0.5C544.5,154.5,543.1,154.3,542.3,153.7z"/>
	<path class="st0" d="M385.5,152.8c1-1.4,3.6-0.1,5.2-0.4C389.7,153.8,387.1,152.5,385.5,152.8z"/>
	<path class="st0" d="M587.3,161.8c-0.2,2.6-3.4-0.1-3.3,3c-17.7,0.1-33.7-0.9-51.5-5.3C552.1,159.3,570.5,160.4,587.3,161.8z"/>
	<path class="st0" d="M375.4,154.9c-1.4,1.1-7.5,0.7-7.6-0.3C369.6,153.7,373.8,153.9,375.4,154.9z"/>
	<path class="st0" d="M318.2,152.6c1.7,0.5,4.2-0.2,4.7,2.1C321.2,154.2,318.7,154.8,318.2,152.6z"/>
	<path class="st0" d="M391.3,156.9c0.5,1.6-5.9-1-5.9-0.9C385.4,154.5,390.3,155.6,391.3,156.9z"/>
	<path class="st0" d="M182.6,149.5c-1.8,2-4.9,3.2-7.6,1.6C175.6,147.5,180.6,148.4,182.6,149.5z"/>
	<path class="st0" d="M189.4,149.1c-0.9,2.6-4,1.5-6.4,1.6C184.7,148.6,187.1,150.8,189.4,149.1z"/>
	<path class="st0" d="M161.2,149.2c-0.6,1.7-1.9,2.2-2.5,3.7c-4.3-1.7-6.5,0.2-10.3-0.4C150.9,148.5,157.4,151.2,161.2,149.2z"/>
	<path class="st0" d="M171.8,150.9c-2.2,1.2-4.1,2.7-7.3,2.2C165.4,149.7,169.1,151,171.8,150.9z"/>
	<path class="st0" d="M143.1,152.9c-4,0.7-8.2,5.5-10.9,2.7C134.5,152.2,140,153.5,143.1,152.9z"/>
	<path class="st0" d="M125,157.8c-0.2,2.1-2,1.5-3.3,1.8C122.1,157.7,123.4,157.5,125,157.8z"/>
	<path class="st0" d="M111.8,158.5c-1.1,3-3.7,3.4-6.5,3.5C106.2,158.6,109.3,159.1,111.8,158.5z"/>
	<path class="st0" d="M118.2,158.8c-0.3,2.7-3.3,3.4-4.5,2.3c0-0.6,0.1-1.3,0.1-1.9C114.7,158.1,116.7,158.9,118.2,158.8z"/>
	<path class="st0" d="M99.7,163c-1.6-0.1-2.4,1.2-4,1.1C95.4,161.1,99.7,159.3,99.7,163z"/>
	<path class="st0" d="M648.8,232.5c1,0.8,1,2.8,1,5.1C648.6,237.2,649.4,233.9,648.8,232.5z"/>
	<path class="st0" d="M400.7,6.5c0.8,0.2-0.6,1.7,0.3,2.5c1.3,0.5,0.8-2.3,1.7-2.5c10-1.4,23,1.7,34.1,2c2.3,0.1,4.4-0.4,6-1.6
		c5.6,6.1,11.8-1.6,17.2-2.4c0.4,1.4,0.3,3.5,1,4.5c6.5,2.1,10.2-0.6,15,3.1c-1.9,2.1-5.3,1.7-8.4,1.5c-4.1-0.2-8.8-1.7-13.1-1.2
		c1.5,1,3.8,0.8,4.7,2.7c-5.2,4.5-13.7,0.9-20.7,1c1.8-2.9,4.4-1.6,6.9-2.2c0.8-1.7-1.7-1.3-0.3-1.9c-2.9-1.6-8.1,0.2-11.9-0.5
		c-3.4-0.6-6.3-2.5-6.6,5.4c1.1,1.6,3.4,1.4,5.5,1.5c0.1,1.5-0.8,1.3-0.5,3.1c4.5,0.6,8,1.5,11.2-1.4c8.6,1.7,15.4,2.5,24.6,2.9
		c-5.8-1.5,5.7-2.3,7.2-1c-0.5,2-2.4,2.1-3.6,1.1c3.4,4.8,11.1,6.3,16.9,5.7c-1.5-2.7-5.8-1.5-5.7-6.5c1.5-3.7,5.3-0.2,8-0.3
		c1-1.3-3.4-2.2-1.8-4.5c6-2.6,11.2,3.8,16.9,5.1c2.2,0.5,4.6-1.2,6.8-1c1.2,0.1,2.6,1.7,3.9,2.1c6.9,1.9,14.2,1.1,19.7,4.6
		c-0.5,2.3-2.4,2.1-3.7,3c11.1,3,19.1,2.3,31.3,3.8c-1.6-2.4-5.9-1-7-4.1c7.3-1.1,14.7,0.4,22.2,2.2c-0.9,0.9-0.8,1.3-0.5,3.1
		c-2,0.5-1.8-2.2-3.9-1.4c0,0.7-0.1,1.1-0.4,1.2c0.7,1.3,1.6,0.5,0.3,1.9c15.3,3.6,30.5,5.9,45.8,8.8c-5.4,3.4-11.9-3.7-16.8,1.2
		c5,3.9,14,2.1,18.1,5.8c-3.3,0.8-9.9,0.4-14,1.9c0.4,1.9-1.5,1.9-2.1,3.7c6.6,3.3,16.4,5.1,22.8,6.6c0.5,1.4-2.2,1.8-2.1,3.1
		c-0.2-1.8-1.5,0.1-4-0.2c0.4,2.6,4.4-0.1,4.2,3.3c-5.5-2.2-11-1.8-16.6-2c2.4,3.6,8.6,4.2,10.9,6.1c-2.7,0.6-5.1,1.4-7.7,3.5
		c-0.2,1.7,0.8,1.7,1.5,2c-1.9,1.6-3.6-0.7-5.6,0.4c5,5,16,1.4,19.1,9c-4.7,1.9-9.7,0.3-13.3,3.2c4,4.2,11.8,3,17.3,5.1
		c-2.2,5.6,7.7,2.6,8,8.5c-1.6,1.1-4.5-0.2-5.3,2.3c2.3,3.2,6,1.4,9.8,2.9c-2.6,2.1-8.9,0.4-12.1,2.7c5.2,3,15-0.5,21.1-0.4
		c-0.9,2.3-3.5,1.6-4.9,3c-0.1,1,2.4,1.1,2.4,0.1c-3.9,3.7-13,4-19.3,5.5c0.6,4.2,1.3,3.1,3.4,3.9c-7.1,2.4-13,4.5-20.1,5.5
		c1.2,3.9,7.8-0.9,10.6,3c-0.9,0.9-2.3,1-3.6,1.1c-3.2,5.9-13.9,3.9-19.4,8c-0.6-0.4-1-1-1.5-1.3c-0.5,5.6-9.1,2.4-12.6,5.2
		c0.8,3,2.5,1.1,4.7,2.1c-22.2,1.4-49.5,1.8-68.2-5.4c0.3-1.4,0.6,0.8,1.2-0.6c-1.1-1.5-4.1-0.4-5.9-0.9c-0.6,0.3,0.8,2.8,1.5,3.2
		c-4.4,1.2-9.9,0.3-13.6,2.6c2.9,1.7,6.6,2.3,9.8,3.6c-8.8,4.9-21.3-5.6-32.2-1.3c-7.7,3-17.3-1.2-26,2.1c0.3-0.6,0.8-0.9,1.2-1.2
		c-2.7-1.6-6.3-1.6-8,1.6c-3.8,0-7.4-0.3-10.7-1.1c1.5-3,4.3-3.8,7.7-3.5c-4-1.9-8.5-1.4-12.7-0.5c-0.2,2.9,1.6-0.2,1.9,1.3
		c-0.7,1.4-2.1-0.2-1.3,2.5c-9.6,1.6-14.8-0.5-23.9,0.9c7.2-5.7,15.9-1.4,22.9-4.1c-15.1-3.5-23.9-1.4-37.3-2.8
		c-0.1,1.2-0.3,2.1-0.9,2.5c-0.3,2.5,2.8,0,2.3,2.6c-0.5,0.1-0.5,1.2-0.1,1.3c-2.1,3.1-5.4-0.3-7.9-0.3c-0.1-1.7,0.6-2,1.7-1.8
		c0-2.5-1.9-2.3-3-3.3c-0.5-2.3,1.4-0.3,1.3-1.8c-1.3-1.6-3.2,1.6-4.5,2.3c-6.7-3.3-14.8-1.8-19.2-6.5c-24.2-2.8-38.6-0.2-59.9-4.4
		c-2.2-0.4-4.3-2.7-6.3-2.8c-2.9-0.1-6.6,3-10.5,3.3c-1.3,0.1-2.3-0.8-3.6-0.8c-6.7,0.3-16,3.5-21.7,4.1c-2.9,0.3-5.8-0.5-8.7-0.4
		c-14.9,0.6-31.4,6-48.4,6.8c-1-1.2-0.2-1.1-0.7-2.6c-6,0.2-11.1,5.3-17.2,3.1c0.5-4.9,5-3.1,7.4-4.7c1.4-0.1,1.2,2.2,2.3,2.6
		c8-4.8,17.5-4,27.7-4.5c-0.3-2.1-1-1.4,0.1-3.1c-24.2-0.9-50,3.2-74.7,6.4c-12.5,1.6-24.5,1.8-36.8,4.1c-7.4,1.4-14.9,6.2-22.5,4.7
		c0.1-1.6,1.6-0.8,1.7-2.5c-5.7,1.1-9.7,5.1-14.6,7.6c-1.8,0.4,0.4-1.2-0.7-1.3c-1.9,0.1-3.7,0.4-4.5,2.3c-6,0-12.9,0-19.5-0.2
		c-7.5-6.6-14.4-18.2-24.4-17.4c-1.2-8.7-11.9-3.1-15.2-8.8c2,0.8,4.9-2.7,7.2-1.6c-0.7-1.8-3.2-0.9-3.4-3.3
		c2.6,0.7,4.7,0.1,6.8-1.6c-3.3-1.3-10-1.2-13.3-5c-0.1-0.1,0.9-0.8,0.8-1.2c0-0.2-3-1.7-1.9-2.6c2.8,1.7,1.9-1.6,4.8-1.7
		c-0.5-1.2-2-1-2.7-2c2.5-0.2,1-3,2.9-3.7c-0.6-3.8-4.9-2.4-7.8-2.8c3.2-3,5.3-4.8,8.6-5.3c-0.3-3.6-2.6-0.7-4.3-2.1
		c1.5-1.7,3.1,0.1,4.1-1.7c0.4-2-1.3-0.9-1.5-2c-0.1-1.5,1.2-0.7,1.3-1.8c-1.8-3.2-7.7,1.8-11.5-0.5c2.2-2.4,6.4-1.5,7.8-5.4
		c-3.1,1-7.4-0.8-9.2,0.9c1.1-6.2,9,1.3,10.2-5.9c-2.4-0.8-6.4,1-8.8,0.9c0.4-0.8,1.1-1.2,1.7-1.8c-0.1-2-3.6,0.9-3.1-2
		c3.8-1,7.5-4.2,10.9-4c-2-2.6-6,1.3-10,0.8c3.4-4.5,9.7-3.5,12.6-5.8c-1.8-0.6-4.1,0.8-7.6,0.3c1-2.5-0.4-1.8-1.9-2
		c4-6.7,13.1-4.7,17.2-11.3c-1.7-0.3-2.9,0.4-3.3,2.4c-1.4-0.5,0.2-1.9-0.7-3.2c-2.1,0.2-4.3,0.2-7.2,0.3c6.2-3.3,16.2-5.3,22-11.7
		c9.6-4,21.1-4.7,31.7-6.9c0.4-0.4,2.6-2.5,0.9-2.5c0.7-1.7,2.9-0.8,3.3-3c-2.1-0.9-5.9,1-9.2,0.2c4.2-2.5,10.2-1.9,14.1-3.2
		c-1,2.9,3.3,0.4,4.8,0.2c8.4-0.9,22.3,0.5,30.1-5.7c-1-2.1-4,0.6-4.7-0.8c0.3-0.6,0.9-0.6,0.9-1.9c-0.7-0.8-1.7-0.5-3.6-0.8
		c0.8-1.3,1.2-2.3,2.4-1.2c-2-2.9,3.3-1.1,5.6-1c8.3,0.3,22.1-3.9,30.4-2.5c1.5-0.6,0.6-1.4,1.7-2.5c12.1,0,24.2,0.3,34.7-1.7
		c-0.5,2.5-3.2,1.2-4.5,2.3c5.9,1.7,11.6,3.1,17.4,2c2.8-0.5,5.7-2.8,9.3-2.8c2.2,0,4.3,1.7,6.7,1.5c1.5-0.1,2.9-1.4,4.4-1.7
		c6.4-1.1,13.5,1.9,18.9-4.3c21.7-4.2,43.8-9.1,66.8-9.2c16.9-0.1,35.2,5.2,52.4,4.1c-0.7,1-2.2,0.8-3.2,1.1
		c12.3,3.3,24.5,4.1,36.9,3.4c1.2,0.3,1.9,1.2,2.3,2.6c2.2,0,2.1-4,4.9-2.9c0.2-1.8-1.6-1.9,0.5-1.9c1.2-0.9-2.1-2.3-0.6-3.8
		C396.2,5.5,398.6,8.4,400.7,6.5z M447,12.9c2.2,1.8,6.1,5,7.2-1C451.3,12.9,448,9.3,447,12.9z M400.5,12.2c2.9,4,9.3-3.5,11.8,3
		c-3.6,0-6.6-3.1-8.8,0.9c0.7,0.2,2-0.6,1.5,1.3c3.5-2.7,8,1,11.6-0.8c-1.6-2-1.8-3-1.4-5.7C411.6,10.3,405,10.5,400.5,12.2z
		 M170.5,20.9c4,1.1,7.7,0.7,12.7-0.1C179.9,19.9,173.3,18.8,170.5,20.9z M75,37.8c1-0.5,3.4,1.4,3.2-1.1
		C77.1,36.8,75.2,35.8,75,37.8z M18.8,78.3c1.6-0.2,1.9,1.1,1.9,3.2c0.8-0.9,1.2-0.1,2.8-0.5c-0.6-2.2,0.1-1.9,0.9-3.1
		C23,76.5,20.2,77.5,18.8,78.3z M17.6,89c0.3,1.3,0.6,2.7,1.5,3.2c1.2-1.2,3.5-0.7,3.7-3.6c-2-0.1-2.1-5.4-2.1-6.4
		c-0.5,0-1.1,0-1.6-0.1C19.8,84.8,18.1,86.5,17.6,89z M260,136.9c4.2-0.9,5.9,0.5,10.4-0.2c0.2-1.3,0.9-1.6,1.3-2.5
		C269.5,134.4,263.8,134.4,260,136.9z M232,140.8c0.6-2-2.3-1.7-2.4-0.7C230.5,140.1,230.7,141.2,232,140.8z M123.8,147.7
		c2.3-0.6,3.4,0.3,5.6-1C127.9,146.3,125,145.6,123.8,147.7z"/>
	<path class="st0" d="M583.9,23.6c0.3-2.6,0.5-2.3,2.1-1.8c-0.2-0.7-0.9-0.7-0.7-1.9c4.4-0.3,8.9,1.8,13.4,3.1
		c-0.3,2.3,0.7,2.5,1.9,2.6C597.5,26.8,588.5,25.3,583.9,23.6z"/>
	<path class="st0" d="M506.1,17.8c1.3-2.1,2.5,1.1,3.9,0.8C509.2,20,507.3,17.9,506.1,17.8z"/>
	<path class="st0" d="M543,30.1C545.4,27.1,547.4,31.2,543,30.1L543,30.1z"/>
</g>
<g>
	<path class="st1" d="M472.7,98.2v-6.4h-20.3V79.4h18.5v-6.2h-18.5V61.3h20.3V55h-28.2v43.3H472.7z M437.5,98.2V92h-19.2V55h-7.9
		v43.3H437.5z M379.4,79.1h8.7c2.3,0,4.1,0.6,5.5,1.7c1.4,1.2,2,2.7,2,4.8c0,2-0.6,3.5-1.9,4.6c-1.3,1.1-3.1,1.6-5.5,1.6h-8.8V79.1z
		 M379.4,61.3h8.2c2.3,0,4.1,0.5,5.3,1.6c1.2,1.1,1.8,2.5,1.8,4.3c0,1.9-0.6,3.4-1.8,4.4c-1.2,1-2.9,1.5-5.1,1.5h-8.3V61.3z
		 M389.4,98.2c4.5,0,8-1.1,10.5-3.3c2.5-2.2,3.7-5,3.7-8.5c0-2.6-0.8-4.9-2.4-6.8c-1.6-2-3.6-3.2-6.1-3.7c2.1-0.6,3.9-1.7,5.3-3.3
		c1.5-1.6,2.2-3.8,2.2-6.5c0-3.3-1.2-5.9-3.6-8c-2.4-2.1-5.8-3.1-10.3-3.1h-17.4v43.3H389.4z M345.6,64l6.3,18h-12.5L345.6,64z
		 M333.6,98.2l3.5-10H354l3.5,10h8.4L350.1,55h-8.9l-15.8,43.3H333.6z M321.1,98.2V92H302V55h-7.9v43.3H321.1z M285.7,98.2V55h-7.9
		v43.3H285.7z M251.9,64l6.3,18h-12.5L251.9,64z M239.9,98.2l3.5-10h16.9l3.5,10h8.4L256.4,55h-8.9l-15.8,43.3H239.9z M219,98.2
		L234.8,55h-8.3l-12.3,35.2L201.9,55h-8.5l15.8,43.3H219z M176.3,64l6.3,18h-12.5L176.3,64z M164.4,98.2l3.5-10h16.9l3.5,10h8.4
		L180.9,55H172l-15.8,43.3H164.4z"/>
</g>
</svg>
