<?xml version="1.0" encoding="utf-8"?>
<!-- Generator: Adobe Illustrator 25.4.1, SVG Export Plug-In . SVG Version: 6.00 Build 0)  -->
<svg version="1.1" id="Layer_1" xmlns="http://www.w3.org/2000/svg" xmlns:xlink="http://www.w3.org/1999/xlink" x="0px" y="0px"
	 viewBox="0 0 753.9 145.9" style="enable-background:new 0 0 753.9 145.9;" xml:space="preserve">
<style type="text/css">
	.st0{fill-rule:evenodd;clip-rule:evenodd;fill:#ED2224;}
	.st1{fill:#FFFFFF;}
</style>
<g>
	<path class="st0" d="M753.9,72.5c0.2,2-3.1,0.1-4.1,0C750.4,71.4,752.2,73.2,753.9,72.5z"/>
	<path class="st0" d="M750.9,86.3c-2.7,0.7-2.6-1.5-5.1-1C746.4,82.1,753.2,82,750.9,86.3z"/>
	<path class="st0" d="M716.2,83.7c-3.8-0.2-4.4-0.9-8.7-0.5c1.6-1.5,5-1.1,6.6-2.5C714.8,81.7,716.1,82.1,716.2,83.7z"/>
	<path class="st0" d="M692.2,108.2c-0.6,2-4.5,0.6-6.6,1C685.9,107,690.7,107.4,692.2,108.2z"/>
	<path class="st0" d="M684.6,90.8c-1.4,1.7-3.8,0.7-6.1,0.5C680.3,90.4,682.8,90.6,684.6,90.8z"/>
	<path class="st0" d="M684.6,113.3c0,2-2.7,1.4-4.6,1.5C680.7,112.3,682.7,114.4,684.6,113.3z"/>
	<path class="st0" d="M676.4,114.3c-2.8,1.8-6.4,2.8-11.2,2.5C666.1,112.2,674.7,115.4,676.4,114.3z"/>
	<path class="st0" d="M671.8,84.7c-0.3,1.8-3.3,0.7-5.1,1C667.6,84.3,670.4,84.2,671.8,84.7z"/>
	<path class="st0" d="M664.2,116.8c-0.2,1.1-2.5,0.2-3.6,0.5c0.3-0.5,1.2-0.5,1-1.5C662.6,116,662.6,117.3,664.2,116.8z"/>
	<path class="st0" d="M663.2,95.9c-0.5,1.6-2.5,0.6-4.6,1.5C659.3,96.1,661.1,95.9,663.2,95.9z"/>
	<path class="st0" d="M648.4,121.4c-0.4,3.5-5.4,2.4-8.7,3.1C638.8,121.5,645.9,119.6,648.4,121.4z"/>
	<path class="st0" d="M644.3,82.2c1.7,1.8-4.5,3.5-4.1,0c1.2,0.2,1.1-0.9,2.5-0.5C643.1,82.7,643.9,83.9,644.3,82.2z"/>
	<path class="st0" d="M637.7,43.4c0.8,1.6-3.3,1.6-2.5,0C636,43.4,636.8,43.4,637.7,43.4z"/>
	<path class="st0" d="M635.7,56.7c-0.4,1.2-3.3,1.1-3.6-0.5C633.4,56.2,635,56,635.7,56.7z"/>
	<path class="st0" d="M623.4,91.9c-1.4,0.8-6.3,0.8-7.6,0C619.4,92,620.4,91.5,623.4,91.9z"/>
	<path class="st0" d="M621.9,56.2c0.8,2.1-2.6,0.1-2.5,1.5C618,55.9,620.8,56.6,621.9,56.2z"/>
	<path class="st0" d="M609.2,42.4c-3.1,1.9-5.6,1.3-9.7,0C600.5,41.4,607.2,42.2,609.2,42.4z"/>
	<path class="st0" d="M584.2,130.1c-1.6-0.8-2.2-0.2-4.1,0c-0.1-0.9,0.6-1.1,0.5-2C582.1,129.4,583.8,127.6,584.2,130.1z"/>
	<path class="st0" d="M573.5,33.8c-3.9,1.5-12.5,3.3-16.3,0C562.1,31.6,568.1,33.9,573.5,33.8z"/>
	<path class="st0" d="M571.9,43.9c-9.5,1.8-18.2,1-27-0.5C553.4,42.1,563.4,43.7,571.9,43.9z"/>
	<path class="st0" d="M562.8,54.1c-0.9,1.7-2.8-0.2-4.6,1C558.6,53.4,561.5,53.8,562.8,54.1z"/>
	<path class="st0" d="M552.6,45.5c-1.8,2.7-7.6,0.3-9.2,0.5C543,42.5,549.2,46.3,552.6,45.5z"/>
	<path class="st0" d="M535.7,32.2c-3.7,1.3-9.9,0.5-11.7-1C527.4,31.8,531.7,31.3,535.7,32.2z"/>
	<path class="st0" d="M517.4,25.6c-7.8,0.5-16.1,1.7-24,0C499.1,22.5,509.1,25.5,517.4,25.6z"/>
	<path class="st0" d="M413.9,0.6c-2.3,0.9-7.9,0.8-10.2,0C406.1-0.4,411.5,0,413.9,0.6z"/>
	<path class="st0" d="M404.2,144.4c-1.3,1.1-3.7,1.1-6.1,1C399.2,144.1,401.9,144.4,404.2,144.4z"/>
	<path class="st0" d="M387.9,18c-1.5,1.1-5.6,0.5-7.1,0C382.8,17.1,386.3,16.4,387.9,18z"/>
	<path class="st0" d="M368.6,20.5c-1.5,1-6.3,1.4-8.2-0.5C363.4,19.9,365.3,20.9,368.6,20.5z"/>
	<path class="st0" d="M367,24.6c-4,2-9.9,0.5-13.8,0C358,23,361.6,24.6,367,24.6z"/>
	<path class="st0" d="M348.7,144.4c-0.3,1.1-3.1,0.5-3.6,0C345.7,143,347.8,144.4,348.7,144.4z"/>
	<path class="st0" d="M347.7,19.5c-3.8,1.9-12.5,1.3-15.3,0C337,17.4,343.1,18.8,347.7,19.5z"/>
	<path class="st0" d="M343.6,23.6c-0.1,1.2-1.4,1.2-2,0.5C336.1,24.2,340.6,23.2,343.6,23.6z"/>
	<path class="st0" d="M325.2,18.5c-0.2,0.7-4.6,1.2-4.1-0.5C323.1,17.6,323.6,18.6,325.2,18.5z"/>
	<path class="st0" d="M296.2,21.5c0,1.3-6.3,0.7-6.6-1C292,20.6,293.5,21.7,296.2,21.5z"/>
	<path class="st0" d="M274.2,22c-2,2.4-7.1,0.3-9.7,0C267.9,20,271.1,23.6,274.2,22z"/>
	<path class="st0" d="M267.1,12.9c0,1.6-1.5,1.5-3.1,1.5C263.9,12.7,266.3,13.5,267.1,12.9z"/>
	<path class="st0" d="M264.6,23.6c-0.7,1.9-1.4,1-3.6,1C261.1,23.1,263.1,23.6,264.6,23.6z"/>
	<path class="st0" d="M243.7,137.2c-17.5,1.6-41.2,1.3-61.2,0c7.7-1.7,16.7,0.7,22.9-0.5c0.9-0.3,0.3-1.2-0.5-1
		C216.5,133.9,232.6,136.8,243.7,137.2z"/>
	<path class="st0" d="M195.7,27.1c-5.7,3-19.7,1.4-24.5,0C178,25.6,188.4,25.7,195.7,27.1z"/>
	<path class="st0" d="M190.1,6.7c-0.7,1-4.3,0.6-5.1,0C186,5.5,189,6.5,190.1,6.7z"/>
	<path class="st0" d="M183,17.4c-0.4,1.2-2.9,0.2-4.1,0.5C178.9,15.2,181.4,17.5,183,17.4z"/>
	<path class="st0" d="M174.8,47.5C171.2,49,163,49.4,157,48C163.7,46.6,167.3,48,174.8,47.5z"/>
	<path class="st0" d="M161.1,127.5c-8.2,1.3-14.9-0.6-23.5-1C144.8,124.1,153.4,126.6,161.1,127.5z"/>
	<path class="st0" d="M149.4,47c-1.4,0.9-5.8,0.7-6.6,0.5C143.8,45.7,147.5,46.7,149.4,47z"/>
	<path class="st0" d="M129.5,124.5c0.1,0.6-0.1,0.9-0.5,1c-1.9,0.9-0.8-0.3-2.5-0.5c-1.7,0-3.4,0-5.1,0c-1.5,0.4-4.7-0.5-1.5-0.5
		C123,124.5,126.3,124.5,129.5,124.5z"/>
	<path class="st0" d="M105,113.3c-0.3,0.5-1.2,0.5-1,1.5c-0.5-0.5-1.9-0.2-1.5-1.5C104.1,113.6,104,112.3,105,113.3z"/>
	<path class="st0" d="M105,127c-1.6,0.9-6.5,0.7-8.2,0C98.5,126.1,103.4,126.3,105,127z"/>
	<path class="st0" d="M97.4,47.5c-0.7,2.1-3.6-0.3-5.6,0C93.7,46.5,95.5,47.4,97.4,47.5z"/>
	<path class="st0" d="M88.2,96.5c0.2,1.5-1.7,1.1-2.6,1.5C85.4,96.4,86.7,96.4,88.2,96.5z"/>
	<path class="st0" d="M87.2,133.7c1.6,0.5-4.9,1.4-4.1-0.5C83.8,133.9,85.7,133.6,87.2,133.7z"/>
	<path class="st0" d="M86.1,116.3c-1.3,1-6.2,1-8.7,0.5C68.5,116.2,84.4,116.5,86.1,116.3z"/>
	<path class="st0" d="M86.7,131.1c-2.4,1.7-6.3,0.4-9.2,0.5C79.5,130.4,83.8,131.4,86.7,131.1z"/>
	<path class="st0" d="M84.6,97c-0.5,1.1-3.7,0.7-3.1-1C82.2,96.6,84,96.3,84.6,97z"/>
	<path class="st0" d="M61.2,100c-3.8,1.2-5.6,0.2-9.7,0.5C54.2,97.1,58,99.4,61.2,100z"/>
	<path class="st0" d="M58.1,109.2c-0.4,0.7-5,1.3-4.6-0.5C55.3,109.5,56.2,108.2,58.1,109.2z"/>
	<path class="st0" d="M16.3,89.8c-4.3,2-9.8,3.3-16.3,1.5C5.7,90.2,11.2,88.8,16.3,89.8z"/>
	<path class="st0" d="M728.9,85.7c0.3,1.8,1.5,2.3,0.5,4.1c-6.6,1.3-11.5-3.1-18.9-1c0.8-2.6,6.7-1.2,10.2-3.1
		C724.2,83.9,726,84.4,728.9,85.7z"/>
	<path class="st0" d="M619.9,99c2.4,2.4-1.3,2.1-4.1,2c0.1-1.3,1.5-2.1,2.5-1c0.5-1.7-1.6-0.8-2.5-1c-1,0.9-0.7,3-3.1,2.5
		c0.2-1,2-0.4,1.5-2c-1-0.9-0.6,0-2,0c-2.3,0.6,0.9,1.5-0.5,2.5c-4.3,0.4-7.6-1.2-8.2,2.5c-1.7-0.3-1-1.1-1.5-1.5
		c-1.9,0.1-0.4,2.3-2.5,1c0.8,1.6,1.6,0.8,2.5,1.5c-2,1.1-6,1.3-8.2-0.5c-0.8,0.2,0.2,0.7,0,1.5c-3.1,0-6.2-0.1-7.6,1.5
		c9,1.5,21.1-0.3,31.1-1c0.6-4,10.1-0.9,13.8-2c-0.2,2.2-4.3,0.5-6.1,1c0.7,2.5,10.3,0.3,7.6-0.5c9.8-1.2,16.9-0.2,29.1,0
		c0.1,0.8-0.5,0.9-0.5,1.5c2.5-0.3,3.6,0.7,5.1,0c-0.4-1.3-3.5,0.1-4.1-1c5.3-0.3,7.6-1.3,15.3-0.5c0.2,1.1-0.7,1-1.5,1
		c0.1,1.1,2.2,0.2,3.1,0.5c-1.9-1.8,5.1-1.5,6.1,0c-3.6,7-15.5,3.4-24,4.6c-6.5,0.9-13.1,2.1-18.4,2c-0.3,1.3-0.3,1.3-2,2
		c2.8,3.8,10.2-0.1,15.3,1c-6.9,3.7-13.7-0.3-21.9,3.6c2.1,1.2,3.5-0.1,6.1,0.5c-6.4,2-15.8,2.8-20.4,2.5c-1.2,0.3,0.6,0.8-0.5,1.5
		c-5.3-1.2-9.1-0.1-14.3,0.5c-6.9,5.5-15.1,1.1-22.4,1.5c-5.9,0.4-11.3,2.9-17.8,2.5c1.3,1.4,2,0.4,4.1,0.5
		c-4.5,2.8-10.6-0.1-15.3,1.5c-2.9,1-4.1,4.6-6.6,6.1c-9.4,5.6-27.1,6.1-41.3,7.1c-9.8,0.7-16.8,1-27.5,1
		c-11.7,0.1-26.5-2.5-33.6-0.5c-2.2,0.4,0.4-1-1-1c-1.1-0.9-1.5,1-1.5,1c-5.4,0.9-11.1-1.8-16.3-2c-3.6-0.2-6.5,1.6-10.2,1
		c-1-0.2-2.4-1.4-3.6-1.5c-10.4-1-22.6,1-34.7,0.5c-8.8-0.4-17.9-1.6-26-1.5c-7,0.1-13.4,0.7-19.9,0c-4.5-0.5-10.8-1.1-16.3-1
		c1.7,1,0.4,1.1-1.5,1c1.8,1,5.6,0.2,7.1,1.5c5.6,1-5,0-5.1,0c-10.4,0.2-24.4,1.2-33.1-1c8.8-2.2,17.8,0.1,30.1-0.5
		c-14.3-3.2-25.3-0.9-39.2-1.5c-0.5,1.5,1.1,0.9,2,1c-5.6,1.3-15.8,0.3-22.4-0.5c6.8-1.8,11.3,0.2,19.4,0c-0.3-1.2-3.1,0.1-3.6-1
		c0.1-0.6,0.9-0.4,1.5-0.5c-3.4-1-10.3-1.5-15.8-2c-19.5-5.5-45.2-2.5-65.8-5.6c-1-0.2-1.7-1-2.5-1c-4-0.2-8.4,2-11.2-1.5
		c9.2-0.8,16.5,0.2,24.5-0.5c-11.1-1.2-24.6-2.6-41.8-4.1c-0.2,1.1,0.7,1,1.5,1c-12.9-0.3-24.8-1.8-37.2-3.6
		c11.9-3.2,24.5,1.9,34.7-1c-6.1-1-19-1-27-1.5c-1.6-1.5-5.3-1.4-7.6-1.5c2.4-1.3-1.4-1.7-3.6-1.5c4.7-1.9,8.9,1.4,15.3-1
		c-1.8-0.5-4.6-0.6-6.6-2c2.4-1,4.6-2.1,8.2-3.1c0-0.5-0.6-0.4-1-0.5c4.4-0.8,3.3-0.1,7.1-2.5c-4.8-1.7-9.3-1.7-11.7,0.5
		c-6.1-2.2-14.4-0.1-21.4,0c1.1,1.6,4.3,0.8,6.1,0.5c-2.4,2.8-6.9-0.9-8.7,1.5c-0.6-0.1-0.4-0.9-0.5-1.5c-0.2,1.2-2,0.7-2.6,1.5
		c-2.4-0.3,0.8-1.7-0.5-2c-1.7,0-0.1,1.2-1.5,2c-3.1-0.6-5.6,0-8.7,0c1-1.2-0.1-0.6-0.5-1.5c-0.8,0.2,0.2,0.7,0,1.5
		c-3.4-0.8-10.3-0.5-10.7-2.5c-2.4-0.2-3.7,1.1-5.6,0c2.1,2.6-5.2-3.3-7.6-1c1-3.2,10.6,0.5,15.3-2.5c1.8,0,4-0.3,4.6,1
		c5.4-4.7,10.7-1.7,17.8-3.6c5.2-2.8,9.9-3.2,15.8-3.6c-6.8-2.8-13.8-0.6-18.4-3.1c-6.2,0.7-16.5,1.2-22.9-0.5
		c0.2,0.8-0.6,1.4,0.5,3.1c-2.4-1.4-3.8,0.4-6.1,0c-0.1,0-2-1.9-3.1-2c-0.7-0.1,0.3,0.9-0.5,1c-6,1-13.4-1.4-19.4,0
		c0.1-0.4,0.5-0.5,0.5-1c-4,0.2-6.6-0.9-10.7-0.5c-1.8,0.1-1.9,1.8-3.6,2c-1.7,0-2.5-0.9-4.6-0.5c-2-4.9-9.7-0.2-13.8-2
		c3.3-1.2,7.3-2.3,11.7-3.6c-2.6-1-0.8-1.5,1-2c-3-1.7-8.8,1-13.3,1c3.2-2.2,5.9-2.5,11.2-4.1c-1.5-0.9-3.9-0.9-5.6-1.5
		c2.5-2.6,7.1-2,9.7-1.5c0.5-2.2-3.6-1.5-5.1-3.1c1.6-1.7,5.3-1.2,7.1-2.5c-2.7-1.8-8.3-0.8-11.2-2.5c1.9-1.3,5.2-1.3,8.2-1.5
		c-1.9-2.7-5.9-3.2-9.7-4.1c1.7-0.5,3.5-0.9,4.1-2.5c2.2-0.3,3.4,0.4,5.1,0.5c0.1-1.8-1.3,0.1-2.6-1c3.5-3,9.6,0.2,13.8-1.5
		c-0.2-0.7-1.3-0.4-2-0.5c0.6-0.7,1.8-1,3.1-1c-4.1-1.8-6.8-2-12.2-2c-0.2-0.3,1.3-0.8,1.5-0.5c-2.7-2.9-15.3-1.4-21.4-3.1
		c3.9-1.7,6.2-2.6,10.2-3.6c-1.3-1.5-2.2-0.7-3.6-1.5c0.6-2,2.5-1.1,4.1-1c7.9-1.5,17.7-4.6,27-4.1c8.8,0.5,18.5,4.1,26.5,3.6
		c1-0.1,1.6-1.1,2.6-1c4,2.1,9.6,0.9,15.8,2c-0.2,1.1-2.5,0.2-3.6,0.5c19.3,1.1,45.3,1.9,62.7-1c1.8,2,2.8,0.5,3.6,2.5
		c5.2-0.6,8.8-0.2,12.7-0.5c0.2,0.9-0.4,1-1,1c4.2,1.9,15.2,1.2,18.3-1c0.5-1.6,1.4,0.6,1.5,1c11.1-0.9,21.4-3.5,36.7-2
		c-8.2-2.5-18.2-0.4-27.5-1.5c8-3,21.1-2.4,29.6-1.5c1.2,0-0.2-1.4-1-1c6-0.5,11.9-1.5,18.4-2.5c-0.8-1.6-3.1,0.6-3.6-0.5
		c1.6-0.9,3.6-1.5,5.6-2c1.6,0.4-0.9,0.7-1.5,0.5c3.2,1.2,8.7,0.2,12.7,0.5c1.2-0.3-0.6-0.8,0.5-1.5c9.1,0.2,15.7-2.1,22.9,0.5
		c2-1,1.4-1.9,2.5-4.1c3.6,0.6,4.4-1.7,6.1-0.5c0,0.5-0.6,0.4-1,0.5c4.2,4.2,14.6,0.4,18.4,4.1c8.3-1.1,16-2,25-1
		c4.9-2.8,15.3-2.1,20.9-2.5c0.6-0.2,2.6-1.8,0.5-1.5c0.4-0.8,1.6-0.7,2.5-1c-10.3-2-23.9-0.7-35.7-0.5c-0.2,1.1,0.7,1,1.5,1
		c-17.8,0.9-27.4,0.3-42.3-3.1c-0.6-1.6,1.7-0.4,1-2c-0.1-1.1-2.2-0.2-3.1-0.5c3.5,2.3-1.5,0.4-2.5,0.5c-2.5,0.3-7,4.6-10.2,3.1
		c2.3,2.4,7.1,0.5,9.2-0.5c-0.4,2.6-3.7,2.4-5.1,2.5c-6,0.7-12.5-3.8-20.4-0.5c5.9,3.8,19.3,0.2,30.1,2c0.1,0.9-3.6,0.4-1.5,1.5
		c-0.1,1.2-1.4-0.6-2-0.5c-1.2,0.2-2.1,0.6-3.1,1c-16.9-2.8-23.5,2.4-41.3,1.5c0.1,3.4,3.2,0.9,4.6,2c-5.9,1.3-12.5-0.7-22.4,0.5
		c0.1,1.6,4.2-0.8,3.6,1.5c-7-0.1-8.8,0-14.8,0.5c1.1-3.8-5.3-0.7-9.7-1.5c-0.5,0.1-0.5,1.4,0,1.5c0.1,0.7-2.8,0.2-2-1.5
		c-8.2-0.7-13.9,1.9-17.8-1c-3.7,2-9,2-13.8,1.5c-5.6-0.6-9.1-0.1-14.8,0.5c-7.8,0.8-16.6-0.8-25-0.5c-11.9,0.4-23.4,0.7-33.1,0.5
		c0.3,0.7,1.1,1,2,1c-13.6,0-30.2,0.5-41.3-1.5c3.1-0.8,7-0.9,10.7-1c-0.4-2-4.2-0.6-4.6-2.5c35.7-3.2,72.1,2.2,106.5-2
		c-31-0.9-52.3,0.9-81.1-2c-7.3,3-18.2,0.9-27,0.5c1.1-0.6,2.6-0.8,3.6-1.5c-3-3.7-8.3-2.5-11.7-3.1c18-7.2,41.4-6.2,62.7-5.6
		c-0.1,1-1.9,0.5-2,1.5c2.7-0.3,4.2-2.6,10.2-2c-0.3,1.5-3.7,1.2-5.6,1c-2.3,0.3-0.1,2.5-3.6,2c11.2,3.9,30.8-1.3,44.3,1
		c-0.2,0.7-0.9,0.8-1,1.5c17,0.4,28.9-0.6,43.8-1.5c1.6,0.2-1.3-1.5,0.5-1.5c3.2-0.2,3,3,5.1,0.5c11.1-0.1,22.1-2.2,33.6-0.5
		c-0.7-1.6-0.2-1.8,1.5-2c0,0.5-0.6,0.4-1,0.5c0.4,2.4,6.3,1.7,9.2,1c-5-1.1-8.9-3.4-14.3-4.1c0.2-1.2,1.8-0.9,1.5-2.5
		c3.9,1.4,13.8-0.2,17.3-1c-1-0.9-3.2-0.6-4.6-1c3.6-1.2,12.6-2.2,14.8,2c-2.3-0.4-3.4,0.3-4.6,1c0.5,1.2,3.2,0.2,4.6,0.5
		c-0.6,2.2,2.6,1.7,4.6,2.5c-0.2,0.7-1.3,0.4-2,0.5c0.1,0.4,0.5,0.5,0.5,1c3.6,1.1,10.7,1.5,16.8,1c-0.3-0.5-1.2-0.5-1-1.5
		c3.3,0.4,9.3,1.3,12.2-1c5.5-0.6,7.6,2.6,11.7,1c-0.2,1.2,0.9,1.1,0.5,2.5c19.1-1.8,26-1.5,43.3,0c-2.9-1.1,1.4-3.7,0-3.1
		c6.5-3.2,18.6,1.7,28.5,0.5c2.6-0.3,6.5,0.6,10.2,0.5c11.2-0.2,22.8-2.2,33.1-0.5c-5.1,3.5-13.4-0.5-20.4,1.5
		c8.7,2.3,18,0.5,26,1.5c0,0-0.6,0.7-1,0.5c1.9,0.9,7.9-0.6,10.7,0c-1.5-2.1-3.1-0.8-4.6-1.5c4.2-2.3,8.1-2.4,12.7-3.6
		c-5-2.7-9.8,3.9-14.3-0.5c-2,0-3.6,0.5-4.6,1.5c-1.9-2-6.3-2.4-9.7-2.5c0.1,0.9,0.9,1.2,2,1c-0.9,1.6-2.4,0.6-4.1,0.5
		c0.1-0.7,1.5-0.2,1.5-1c-11.7-3.1-24.1-1.3-34.7-1c2.7-2.4-1.5-0.1-1.5-2.5c10.8-1.6,19.1-0.7,29.6,0.5c1.4-0.5-0.7-1.4,0.5-2
		c3.9,2.2,12.1,1.2,15.8,2c-2.4-4-6.8,0.3-10.7-2c4.5-1.3,13.5-1.4,19.9-1c1.9,0.1,6.5,0.3,6.1,3.1c-0.6-0.1-0.4-0.9-0.5-1.5
		c-0.8,0.2-0.4,1.6-2,1c0.6,1.3,2.7,1,4.6,1c-2.5-2,2.4,0.1,4.6-0.5c1.1,0.6-2.6,0.7-3.6,1c3.7,1.4,10.7-0.1,15.8,1
		c-0.3-2.7-5-1.1-7.6-1.5c7.8-3,17.3,0.5,28-0.5c1.7,0.3,4.7-0.7,5.6,0.5c-1,0-2,0-3.1,0c-6.7,1.3-13,2.5-20.4,1
		c0.2,1-0.8,1.7-2.5,2c2,1.4-0.8,2.1,1,4.1c-10,0.4-12.4,1.2-22.4,1c3.2,1,8.5,1.9,11.7,0c3.8,2.4,11.9,1.2,16.3,1.5
		c0.7-4.3-3.3-0.8-5.1-2.5c1.7-2.8,7.3,1.5,11.7-0.5c-1.5-4.2-5.9,0.3-9.2-1.5c-0.3-1.1,1.4-1.6-0.5-1.5c10.5-0.1,16.6,2.7,30.1,3.1
		c0.6-0.6,0.4-1-0.5-1c5.9,0.8,11.4,3.1,17.8,2.5c0.8-0.2-0.2-0.7,0-1.5c2,0.7,4.7,0.7,7.1,1c-1,1.2-4.2,0.2-6.1,0.5
		c10.6,2.6,31.5,4.2,42.3,1.5c-0.2-1-2-0.4-1.5-2c0.8,1.3,4.4-0.3,5.1,1c0.5,2-2.7,0.4-3.1,1.5c0.8,1.5,3.5,1.2,5.1,2
		c-6.4,2.1-17.7-2.6-24.5,1c14.7,2.8,32.9,0.1,48.4,4.6c-0.6,1.4-3.7,0.4-4.6,1.5c1.2,1,2.3-0.4,4.1,0.5c-11,0.1-24.7-2.3-35.7-0.5
		c-1.4-0.4-1,1.1-1.5,1.5c-0.9-1.3-0.8-0.4-2-1c0.1,1.5,0.6,2.4,2.5,2c-1.3,1.3-4.1,1-6.1,1.5c1.1,1.9,3.8,0.7,5.1,0
		c1,2.1,5.2,1.2,6.6,1.5c0.3,1.9-2.6,2.3-4.1,1c-16.9,0.4-26.9-0.5-41.3,1c19.6,2.8,37.4,2.8,60.2,6.6c-5.2,2.8-15.7,1.5-22.9,3.6
		c2.1,0.6,4-0.6,8.2,0c-1.2,0.9-2.7,1.1-4.1,0.5c1.2,4.1,7.8-1.3,9.2,1.5c0.7-0.2,0.4-1.3,0.5-2c12.7,0.6,28.8,0.9,48.4,2
		c-2.3,1.8,0.6,2.3,2,3.1c0.1,1.4-1.2,1.5-2.5,1.5c1.5,1,3.7,0.8,4.1,1c1.1,2.2-4.3-0.1-5.1,1c-0.1,1.1,1.8,0.2,2.5,0.5
		c-9.3,1.2-18.1,1.8-25.5,4.1c16.6,0.9,24.7,0.8,40.8,3.6c-0.3,1-1.8,2.2,0,2.5c-1.5,0.9-3,1.8-5.6,1.5c2.9,2.7,8.1,2.5,12.2,3.6
		c1.2,0.5-1.2,1.5-0.5,3.1c-2.3,0-2.5,1-4.6,0c-0.5,3.7-5.7,3.4-11.2,4.1c1.4,2.2,4,0.8,5.6,2c0.4,0.4,0.1,1.6,0,1.5
		c0.4,0.1,3.5-2.4,3.1,0.5c7-2.7,14.6-2.6,21.4-1c-6.1,0-5.2,0.4-14.3,0.5c-0.6,0.1-0.5,1,0,1c-1.2,0.9-2.1-1.3-3.1,1
		c2.7,1.4,6.7-0.2,11.2-0.5C633.2,99.2,623.1,99.2,619.9,99z M532.7,43.9c1.5,0,3.7,1.9,4.1,0C536,42.8,534,43.1,532.7,43.9z
		 M637.2,115.3c-0.6,1.6,1.7,0.4,1,2c1.4,0,1-0.8,2,0C640.3,115.6,637.6,116.6,637.2,115.3z M620.9,121.9c1.5,0.1,2.6-0.1,3.1-1
		C622.9,121.2,620.4,120.1,620.9,121.9z M611.2,98c0.6,0.1,0.3,0.6,0,1c0.9-1.1,3.5-0.6,4.1-2C613.9,97.3,612.1,97.2,611.2,98z
		 M503.6,34.8c6.8,1.9,18.3,3,23.4,1C517.6,35,509.5,35,503.6,34.8z M521,46c2.3-0.7,3.7,2.4,4.6,0C524.5,45.8,521.8,44.7,521,46z
		 M461.8,31.7c2.5,3.3,10.7,1.4,17.3,2.5c5.5,1,15.6,1.9,22.9,1.5c0-0.7,0.7-0.7,0.5-1.5C491.3,35.5,474.3,30.1,461.8,31.7z
		 M437.4,28.1c7.2-1.3,9.2,0.8,14.8,0C448.4,25.8,440.1,24.2,437.4,28.1z M401.7,39.9c9.3-0.1,18.8,2.9,28.5,1.5
		C418,38.9,413.1,38.2,401.7,39.9z M419,21c0.7,1.6,5.5,1.8,6.1,0.5C422.7,21.7,420.9,21.4,419,21z M397.1,31.2
		c-4.5-0.6-7.3,0-11.7,0.5c3.2,0.6,8.7,4,12.2,0.5C396.7,32.3,396.5,31.8,397.1,31.2z M372.1,34.8c1,0.5,6,1.5,6.1-0.5
		C376.4,34.6,373.2,33.6,372.1,34.8z M362.9,30.7c-0.8,2.4,7,2.7,4.1,1c1.9-0.4,3.4-0.4,4.6,1c0-2.4,3.9-0.8,5.1-2
		C372.8,29.8,366.9,30,362.9,30.7z M343.1,30.7c3.2,0.9,8.3,2,10.2-0.5C350,30.5,345.4,29.5,343.1,30.7z M340,32.7
		c-0.3,2.2,2.4,1.4,4.1,1.5c0-0.5,0-1,0-1.5C341.8,32.8,342.1,33.2,340,32.7z M294.1,31.7c2.7,0.9,3.2-1.9,4.1,0
		c0.2-0.7,0.7-1,0.5-2C297.1,30.3,294.9,30.2,294.1,31.7z M251.3,28.7c1.7,0,3.6,0.2,4.1-1C254.1,28.1,251,26.6,251.3,28.7z
		 M232.4,48.5c1.9,2.1,11.6,1.5,14.8,0C242.1,48.5,237.1,48,232.4,48.5z M240.6,37.3c1.4-0.5,4.8,1,4.6-1
		C243.5,36.5,241.7,36.6,240.6,37.3z M205.9,35.3c-2.7,4.8-10.7,1.3-14.8,4.1c10.5,0.7,23.1-1.7,37.2-1c0.4-0.1,0.6-0.4,0.5-1
		C221.4,36.2,213,35.9,205.9,35.3z M170.3,40.4c1.1-0.3,3.4,0.6,3.6-0.5C171.9,40,170.9,37.7,170.3,40.4z M134.1,55.2
		c8.9,1.6,17.5,0.6,26-0.5C153,54.2,142.9,55,134.1,55.2z M130,55.2c-7.5,0.3,0.1,1.8,3.1-0.5C130.9,54.4,131.2,55.1,130,55.2z
		 M34.7,90.8c2.1,2.8,8.1,1.6,10.7,0C41,89.9,38.8,91.5,34.7,90.8z"/>
	<path class="st0" d="M665.7,91.9c-0.7-2.1-1.3-0.1-2.5,0c-4.1-3.5-10.4-1.6-16.3-3.1c10.1-1.5,17.9,0.1,26.5-0.5
		c-1.7,1.6,1.5,0.2,1,2c-0.9-0.5-2.7,0-2.6-1.5c-0.7,0.3-0.9,1.1-1,2c-1.4-1.7-3.3,0.2-5.1-1c0.1,1.6,1.2,2.2,3.1,2
		c-1.8,2.5-5.2,0.7-9.2,1.5C661.8,91.8,663.9,92.4,665.7,91.9z"/>
	<path class="st0" d="M582.1,54.7c-0.3,0.4-0.5,0.8-0.5,1.5c1.6-1.8,6.3,0.8,7.1,1c-2.9,1.1-5.8-0.3-8.2,0c-1.5-0.2-1-2.4-2-3.1
		C579,53.1,580.6,55.1,582.1,54.7z"/>
	<path class="st0" d="M394,26.1c3.1-1.6,6.2-0.4,10.2,0.5c1,0.4-0.5,0.8-0.5,0C399.7,26.1,397.4,26.9,394,26.1z"/>
	<path class="st0" d="M278.8,15.4c-0.4,2.2-2.7-0.3-3.6,1C274.1,15.7,277.3,15.1,278.8,15.4z"/>
	<path class="st0" d="M184,47.5c-1.3,0.6-4.1,0.1-7.1,0.5C179.4,46.7,181,47.1,184,47.5z"/>
	<path class="st0" d="M140.2,48c-8.3,2.1-15.4,0.4-24,1C124,47.3,130.8,47.7,140.2,48z"/>
	<path class="st0" d="M68.3,116.3c0,0.8,0,1.7,0,2.6c-1.3-1.5-3.4,0.9-4.6-0.5c0.1-1.5,2.1-0.9,3.6-1c0.2-0.9-0.4-1-1-1
		C66.6,114.8,67.4,116.8,68.3,116.3z"/>
	<path class="st0" d="M693.8,88.8c-0.8,1.2-2.7,0.6-1.5,2.5c-2,0.5-3.9,0-6.1-0.5c2.2-1.2-0.8-1-2-1.5
		C686.3,88.1,690.7,89.1,693.8,88.8z"/>
	<path class="st0" d="M689.7,99c-0.7,0.2,0,0.9,0.5,1c-0.4,1.1-2.9,0.2-4.1,0.5c-1.7-0.6,1.4-0.6,2-0.5c-5.5-2.1-8.5-1.2-15.8-2
		c5.9-2.3,14.3-3.9,22.9-5.6c-0.1-1.4-2.9-0.2-2.5-2c3.1-0.6,5.5,0.2,8.2,0.5c0.1,0.8-0.5,0.9-0.5,1.5c3.1-1.4,1.1,2,3.6,2
		C702,99.9,693.8,99,689.7,99z M689.7,94.9c0,1.4,1.2,2.4,2,1.5C691.9,95.1,691,94.8,689.7,94.9z"/>
	<path class="st0" d="M675.4,100.5c-1.7,0.8-1.7,1.2,0,2c-5.3,1.5-11,2.3-14.8,0c-2.9,2.1-8.7,0.6-14.3-0.5c1.2-1,4.1-0.3,5.6-1
		c-0.4-0.8-1.3-1.1-2.5-1c2-0.3,6.9-2,7.1,0.5c1.2-0.5,1.9-1.5,4.1-1c0.1,0.4-0.2,0.5-0.5,0.5C665,100.5,671.7,98.9,675.4,100.5z
		 M668.3,102.1c2.2,0.3,3.1-0.1,5.1-1.5C671.6,102,669.5,100.1,668.3,102.1z"/>
</g>
<g>
	<path class="st1" d="M474,69.7c-0.4,0-0.7,0.1-0.7,0c-0.5-0.5-0.8-1-0.2-1.7C473.4,68.6,473.6,69,474,69.7z M495.6,51.3
		c0,0.9-0.2,2,0,3c0.4,2.5,0.2,5,0,7.5c0,0.8-0.5,1.8-0.3,2.6c0.3,0.9,0.2,1.7-0.2,2.5c-0.1,0.4,0,0.7,0,1.1c0.1,1,0.3,2.1,0.2,3.1
		c0,0.8-1.3,0.9-1.1,2c0.1,0.7,0,1.5,0.1,2.2c0,0.8-0.7,1.7,0.3,2.3c0,0-0.2,0.4-0.3,0.6c-0.4,1.6-0.4,3,0.4,4.5
		c0.3,0.6,0.3,1.2,0.2,1.9c0,0.3-0.7,0.5-0.8,0.8c-0.3,0.3-0.5,0.7-0.7,1.1c-0.7-1-1.9-1.7-2.2-3.1c-0.1-0.6-0.6-1.2-1.5-1.2
		c-0.9-0.1-1.5-0.7-1.8-1.8c-0.2-0.8-0.4-1.8-0.8-2.5c-0.4-0.7-0.5-1.5-1.6-1.5c-0.7,0-0.8-0.6-0.9-1.3c-0.2-1.4-0.4-2.8-1.8-3.7
		c-0.5-0.3-0.8-1.3-0.7-1.8c0.6-1.4-0.2-2.4-0.8-3.6c-0.3-0.7-0.7-1.3-1-2.1c-0.2-0.4-0.4-0.8-0.7-1.1c-0.8-0.9-1.4-2-2-3
		c-0.2-0.4-0.5-0.9-0.8-1c-1.3-0.5-2.1-1.6-2.8-2.6c-0.7-1-1.5-2-2.2-2.8c-1.9,0.4-2.8,1.1-3.3,2.9c-0.4,1.2-0.8,2.6-1.9,3.7
		c-0.5,0.4-0.6,1.4-0.5,2.1c0.1,1.5,0.1,3,0.7,4.4c0.3,0.7,0.1,1.1-0.3,1.6c-0.9,1.2-1,2.4-0.4,3.8c0.4,1,0.9,2.2-0.1,3.2
		c-0.1,0.2-0.1,0.5-0.1,0.7c-0.2,1.3-0.2,2.6-0.6,3.8c-0.4,1.2-0.2,2.2,0.6,3.2c0.5,0.6,0.5,1,0.1,1.6c-0.8,1.2-0.8,2.5,0.1,3.8
		c0.4,0.5,0.2,0.9,0,1.3c-0.7,1.2-1.3,2.4-0.6,3.8c0.1,0.2-0.2,0.6-0.2,0.7c0,0.9-0.7,1.7-0.2,2.6c0.8,1.6,0.9,3.5,1.4,5.2
		c0.2,0.7,0.4,1.7,0.1,2.2c-0.5,1-0.2,1.8,0.1,2.6c0.3,0.7,0.6,1.3,0.7,2.1c0.3,1,0.5,2.1,0.8,3.1c0.7,3.3,1.5,6.7,2.2,9.9
		c0.3,1,0.7,2.1,0.9,3c0.3-0.9,0.2-1.9,0.1-2.8c-0.1-2.1-0.3-4.1-0.3-6.2c-0.1-1.5,0.6-2.9,0.2-4.4c0-0.2,0.1-0.5,0.1-0.7
		c0.1-0.7,0.1-1.2,0.1-1.8c0.1-0.4,0-0.7,0.2-1c1-1.1,0.7-2.5,0.4-3.7c-0.2-0.8-0.4-1.5,0.2-2.2c0.3-0.4,0.4-0.7,0.1-1.2
		c-0.1-0.2-0.2-0.5-0.1-0.7c0.5-1.6,0.3-3.4,1.4-4.9c0.7-0.9,0.5-2.1-0.3-2.6c-0.8-0.6-0.7-1-0.4-2c0.5-1.2,1-2.5,0.5-4
		c-0.4-1-0.8-2.2,0-3.3c0.3-0.4,0.4-1,0.3-1.5c-0.4-1,0.2-1.8,0.7-2.6c0.6-0.9,0.8-2,0.2-3c-0.5-0.7-0.1-1.3,0.3-2
		c1.3,1.1,1.3,1.1,1.3,2.3c0.6,0.4,1,0.8,1.5,1.2c-0.4,0.3-0.7,0.5-1,0.7c1,0.7,0.4,2.2,1.6,2.8c0.8,0.5,1.6,1.3,2.5,2.1
		c-0.1,0.6-0.3,1.2-0.3,1.9c0.1,0.6,0.4,1.1,0.6,1.8c1.3,0.6,2.1,1.6,2.2,3.2c0.1,0.4,0.4,0.7,0.7,1.1c0.4,0.3,0.8,0.5,1.1,0.7
		c0.4,0.7,0.7,1.4,1.1,2.1c-0.7,0.9,0.8,1.6,0.3,2.4c0.7,0.5,1.4,1,2.1,1.4c0.3,0.2,0.7,0.3,0.7,0.4c0.1,0.6,0.1,1.1,0.3,1.2
		c1.1,0.7,1.1,2,1.8,2.9c0.7,0.8,0.7,2.1,1.9,2.5c0.1,0.1,0.2,0.1,0.2,0.2c0,1.2,0.9,0.8,1.6,1c0.4,0.5,0.9,0.9,0.8,1.4
		c0,1.3,1,1.5,1.8,1.6c1,0.2,1.8,0.4,2.2,1.4c0,0,0.3,0,0.6,0.1c-0.1-0.6-0.2-1-0.3-1.7c1.3-0.3,1.3-1.3,1.3-2.3
		c0-1.1-0.1-2.2,0.5-3.3c0.1-0.3-0.1-0.6-0.1-0.8c0.4-1.4,0.1-3,1.5-4c0.6-0.5,0.8-3.5,0.3-3.8c-0.8-0.6-0.6-1.1-0.5-1.8
		s0.1-1.3,0.2-2c0.1-1.1-0.8-2.3-0.1-3.5c-0.4-1,0.5-2.5-1-3.3c1.2-2.3,0.1-4.7-0.1-7c-0.4-0.2-0.8-0.4-1.1-0.6c0-0.7,0.1-1.5,0-2.1
		c-0.6-2.9-1.1-5.7-1.7-8.5c-0.7-3.3-1.7-6.5-2.4-9.7c-0.5-1.7-0.7-3.4-1.1-5.1C495.8,51.3,495.7,51.3,495.6,51.3z M457.6,85.3
		c-1,0.9-1.3,1.9-0.9,3.4c0.3,1.1,0.1,2.3-0.6,3.4c-0.6,0.8-1.1,1.7-0.4,2.7c0.3,0.3,0.1,0.9-0.1,1.4c-0.2,0.7-0.6,1.3-0.3,2.2
		c0.2,0.4,0.1,1-0.1,1.6c-0.6,2.5-1.1,5.1-2.2,7.4c-0.8,1.6-1.2,3.4-1.9,5.1c-1.9-0.1-2.9-0.8-3.7-2.4c-0.8-1.6-0.9-3.7-2.4-5
		c-0.1-0.2-0.1-0.6-0.1-0.7c0.5-1.8-0.5-2.9-1.8-3.8c0.4-1.3-0.3-2.3-0.8-3.6c-0.5-0.9-0.4-2.2-0.1-3.2c0.3-1.2-0.2-2.2,0.1-3.5
		c0.1-0.4-0.8-1-1.2-1.6c0.4-0.6,1.1-1,0.6-1.9c0-0.1,0.5-0.6,0.8-0.9c-0.5-0.4-0.8-0.7-1.4-1.2c0.2-0.7,1.2-1.4,0.6-2.3
		c0.3-0.2,0.7-0.3,1-0.5c-0.7-0.7-1.1-1.1-1.6-1.5c0-1.4,1-2.2,2-2.9c0.2-0.2,0.7-0.3,0.7-0.5c-0.1-0.8,0.7-1.5,0.7-2.2
		c0-0.7,0.4-0.8,0.8-1.3c-0.3-0.4-0.6-0.8-0.8-1.3c0.2-0.2,0.7-0.4,0.7-0.6c-0.1-0.9,1-1.5,0.7-2.6c-0.2-0.7,0.4-1.7,0.9-2.3
		c0.4-0.5,0.5-0.7,0.4-1.2c-0.1-0.5,0.1-1.2,0.5-1.5c0.7-0.5,1.2-0.8,1.7-1.6c0.2-0.4,0.5-0.5,0.4-1c0-0.4,0.4-0.8,0.7-1.5
		c0.5,0.7,0.9,1,0.9,1.5c0.2,1.9,1.2,3.1,2.8,4.1c-0.4,0.7,0.1,1.2,0.1,1.8c0.2,1.7,1.2,2.7,2.1,4c0.3,0.4,0.3,1.1,0.5,1.7
		c0.4,1.5,0.7,3,1.4,4.4c0.4,0.9,0.5,1.8,0.4,2.7c0,0.5,0.1,0.8,0.2,1.3C457.2,82.1,456.9,83.9,457.6,85.3z M432.2,82.4
		c0,1.5-0.6,2.7-1.3,3.9c0.6,0.7,1.1,1.6,1.7,2.3c-0.4,0.7-0.7,1.3-1,1.9c0.4,0.5,0.7,0.8,1,1.1c-0.2,0.6-0.4,1-0.4,1.6
		c-0.1,1.6-0.6,3.3,0.9,4.6c0.1,0.2,0.3,0.5,0.2,0.7c-0.3,1,0.4,2.1,0.5,3c0.2,1.2,0.6,2.4,1.8,3.1c0.3,0.2,0.5,0.7,0.6,1.1
		c0.5,1.4,0.9,1.8,2.3,2.1c1,0.2,2,0.4,2.3,1.7c0.3,1,1,1.7,2.1,2.1c1.3,0.4,2.7,0.7,4.1,0.9c1.1,0.2,2.2,0.5,3.4,0.7
		c-0.7,1.6-1.2,3.1-1.9,4.6c0.4-0.2,0.7-0.4,0.8-0.7c1.2-1.9,2.4-3.8,3.6-5.8c0.8-1.3,1.7-2.6,2.5-3.9c1-1.7,2.1-3.5,3.1-5.2
		c0.4-0.7,0.5-1.8,0.9-2.4c0.7-0.8,0.8-1.7,0.9-2.6c0-0.4,0.1-0.8,0.3-1.1c0.7-0.8,1.4-1.7,2.1-2.5c0.2-0.3,0.4-0.6,0.4-0.8
		c-0.1-1.4-0.2-2.7-0.2-4c0-0.4,0.3-0.7,0.5-1.1c0.4-0.6,0.9-1,0.8-1.9c0-1.4,0.1-2.9,0.1-4.3c0-0.6,0-1,0.2-1.5
		c0.4-0.7,0.1-1.7-0.4-2.1c-0.8-0.7-0.7-1.5-0.7-2.2c0.3-2.2,0.3-4.2-0.1-6.4c-0.3-1.1-0.2-2.5-1.3-3.4c-0.2-0.1-0.3-0.3-0.3-0.5
		c0-0.9-0.8-1.2-1.3-1.9c-0.4-0.5-0.7-0.8-1.2-1.2c-1.1-0.9-1.8-2.4-3.5-2.8c-0.4,0-0.7-0.6-1-0.9c-0.4-0.7-0.7-1.3-1.5-1.5
		c-1-0.2-1.9-0.8-2.4-1.6c-0.6-0.7-1.3-0.9-2.1-0.7c-0.9,0.2-1.7-0.1-2.4-0.6c-0.7-0.6-1.4-0.7-2.2-0.1c-0.3,0.3-0.7,0.3-1.1,0.5
		c0.1,0.9,0.1,1.8,0.2,2.9c-1.7,1.7-3.5,3.5-5.3,5.3c0.5,1.1-0.7,1.7-1.5,2.5c0.2,0.5,0.3,0.9,0.5,1.5c-1.9,0-2,1.9-3.2,2.6
		c0.2,0.4,0.4,0.7,0.6,1.1c0.9,1.5,0.8,2.2-0.7,3c-1.1,0.6-1.2,2-2.1,2.7c-0.1,0.1,0,0.6,0.1,0.7c0.3,0.5,0.7,0.8,0.8,1.3
		c0.2,0.3,0.6,0.9,0.4,1.1c-0.6,0.7,0.1,1.1,0.3,1.7C432.8,81.5,432.2,82,432.2,82.4z M424,85.3c-1,0.9-1.3,1.9-0.9,3.4
		c0.3,1.1,0.1,2.3-0.6,3.4c-0.6,0.8-1.1,1.7-0.4,2.7c0.3,0.3,0.1,0.9-0.1,1.4c-0.2,0.7-0.6,1.3-0.3,2.2c0.2,0.4,0.1,1-0.1,1.6
		c-0.6,2.5-1.1,5.1-2.2,7.4c-0.8,1.6-1.2,3.4-1.9,5.1c-1.9-0.1-2.9-0.8-3.7-2.4c-0.8-1.6-0.9-3.7-2.4-5c-0.1-0.2-0.1-0.6-0.1-0.7
		c0.5-1.8-0.5-2.9-1.8-3.8c0.4-1.3-0.3-2.3-0.8-3.6c-0.5-0.9-0.4-2.2-0.1-3.2c0.3-1.2-0.2-2.2,0.1-3.5c0.1-0.4-0.8-1-1.2-1.6
		c0.4-0.6,1.1-1,0.6-1.9c0-0.1,0.5-0.6,0.8-0.9c-0.5-0.4-0.8-0.7-1.4-1.2c0.2-0.7,1.2-1.4,0.6-2.3c0.3-0.2,0.7-0.3,1-0.5
		c-0.7-0.7-1.1-1.1-1.6-1.5c0-1.4,1-2.2,2-2.9c0.2-0.2,0.7-0.3,0.7-0.5c-0.1-0.8,0.7-1.5,0.7-2.2c0-0.7,0.4-0.8,0.8-1.3
		c-0.3-0.4-0.6-0.8-0.8-1.3c0.2-0.2,0.7-0.4,0.7-0.6c-0.1-0.9,1-1.5,0.7-2.6c-0.2-0.7,0.4-1.7,0.9-2.3c0.4-0.5,0.5-0.7,0.4-1.2
		c-0.1-0.5,0.1-1.2,0.5-1.5c0.7-0.5,1.2-0.8,1.7-1.6c0.2-0.4,0.5-0.5,0.4-1c0-0.4,0.4-0.8,0.7-1.5c0.5,0.7,0.9,1,0.9,1.5
		c0.2,1.9,1.2,3.1,2.8,4.1c-0.4,0.7,0.1,1.2,0.1,1.8c0.2,1.7,1.2,2.7,2.1,4c0.3,0.4,0.3,1.1,0.5,1.7c0.4,1.5,0.7,3,1.4,4.4
		c0.4,0.9,0.5,1.8,0.4,2.7c0,0.5,0.1,0.8,0.2,1.3C423.7,82.1,423.4,83.9,424,85.3z M398.7,82.4c0,1.5-0.6,2.7-1.3,3.9
		c0.6,0.7,1.1,1.6,1.7,2.3c-0.4,0.7-0.7,1.3-1,1.9c0.4,0.5,0.7,0.8,1,1.1c-0.2,0.6-0.4,1-0.4,1.6c-0.1,1.6-0.6,3.3,0.9,4.6
		c0.1,0.2,0.3,0.5,0.2,0.7c-0.3,1,0.4,2.1,0.5,3c0.2,1.2,0.6,2.4,1.8,3.1c0.3,0.2,0.5,0.7,0.6,1.1c0.5,1.4,0.9,1.8,2.3,2.1
		c1,0.2,2,0.4,2.3,1.7c0.3,1,1,1.7,2.1,2.1c1.3,0.4,2.7,0.7,4.1,0.9c1.1,0.2,2.2,0.5,3.4,0.7c-0.7,1.6-1.2,3.1-1.9,4.6
		c0.4-0.2,0.7-0.4,0.8-0.7c1.2-1.9,2.4-3.8,3.6-5.8c0.8-1.3,1.7-2.6,2.5-3.9c1-1.7,2.1-3.5,3.1-5.2c0.4-0.7,0.5-1.8,0.9-2.4
		c0.7-0.8,0.8-1.7,0.9-2.6c0-0.4,0.1-0.8,0.3-1.1c0.7-0.8,1.4-1.7,2.1-2.5c0.2-0.3,0.4-0.6,0.4-0.8c-0.1-1.4-0.2-2.7-0.2-4
		c0-0.4,0.3-0.7,0.5-1.1c0.4-0.6,0.9-1,0.8-1.9c0-1.4,0.1-2.9,0.1-4.3c0-0.6,0-1,0.2-1.5c0.4-0.7,0.1-1.7-0.4-2.1
		c-0.8-0.7-0.7-1.5-0.7-2.2c0.3-2.2,0.3-4.2-0.1-6.4c-0.3-1.1-0.2-2.5-1.3-3.4c-0.2-0.1-0.3-0.3-0.3-0.5c0-0.9-0.8-1.2-1.3-1.9
		c-0.4-0.5-0.7-0.8-1.2-1.2c-1.1-0.9-1.8-2.4-3.5-2.8c-0.4,0-0.7-0.6-1-0.9c-0.4-0.7-0.7-1.3-1.5-1.5c-1-0.2-1.9-0.8-2.4-1.6
		c-0.6-0.7-1.3-0.9-2.1-0.7c-0.9,0.2-1.7-0.1-2.4-0.6c-0.7-0.6-1.4-0.7-2.2-0.1c-0.3,0.3-0.7,0.3-1.1,0.5c0.1,0.9,0.1,1.8,0.2,2.9
		c-1.7,1.7-3.5,3.5-5.3,5.3c0.5,1.1-0.7,1.7-1.5,2.5c0.2,0.5,0.3,0.9,0.5,1.5c-1.9,0-2,1.9-3.2,2.6c0.2,0.4,0.4,0.7,0.6,1.1
		c0.9,1.5,0.8,2.2-0.7,3c-1.1,0.6-1.2,2-2.1,2.7c-0.1,0.1,0,0.6,0.1,0.7c0.3,0.5,0.7,0.8,0.8,1.3c0.2,0.3,0.6,0.9,0.4,1.1
		c-0.6,0.7,0.1,1.1,0.3,1.7C399.2,81.5,398.7,82,398.7,82.4z M382.5,89c0,0.3,0,0.7,0.1,0.7c1,0.5,1.2,2.2,2.7,1.8
		c0.6,0.9,1,1.7,1.4,2.2c-0.1,0.7-0.2,1.1-0.1,1.6c0.1,0.8-0.4,1.9,0.7,2.5c-0.1,1.6-0.2,3.2-0.5,4.7c-0.2,1.2-0.7,2.3-1.1,3.5
		c-0.4,0.8-0.7,1.7-1.2,2.5c-0.4,0.9-0.8,1.8-1.2,2.7c-0.6,1.2-1,2.4-1.6,3.7c-0.8,1.7-1.6,3.5-2.6,5.1c-1.1,2-2.5,3.7-3.8,5.6
		c-0.3,0.4-0.7,0.7-0.1,1.2c0.4-0.4,0.8-0.7,1.1-1.1c1.1-1.3,2.2-2.7,3.5-4.1c2-2.2,3.9-4.5,6-6.7c0.1-0.1,0.3-0.3,0.4-0.3
		c1.2-0.3,1.7-1.1,2.1-2.2c0.1-0.4,0.4-0.7,0.6-0.9c0.5-0.6,1.1-1,1.4-1.7c0.5-0.9,1.1-1.6,2.3-1.5c0.4-1,0.7-2,1.1-3.1
		c0.6,0,1-0.3,1.1-1.1c0.2-0.9,0.5-1.9,0.7-2.7c0.8-1.7,0.6-3.8,2.2-5.2c0.1-0.1,0-0.5,0-0.7c0-0.3,0-0.6,0.2-0.7
		c0.6-0.8,0.3-1.7-0.3-2.2c-0.8-0.7-1-1.2-0.4-2.1c0.1-0.2,0.1-0.6-0.1-0.7c-0.6-0.6,0.2-1,0.4-1.6c-1.3-1-2.5-2-3.9-3
		c0.1-0.1,0.2-0.5,0.3-0.8c-0.8-0.4-1.7-0.8-2.6-1.1c-0.8-0.4-1.9-0.7-2.1-1.7c-0.2-0.7-0.6-0.8-1.1-0.9c-1.4-0.4-2.8-0.6-4.3-0.8
		c-0.4-0.7-0.7-1.4-1.1-2.2c-0.9-0.1-1.9-0.3-3-0.4c0.7-1.2-0.8-1-0.9-1.6c0.2-0.3,0.4-0.5,0.6-0.7c-0.3-0.5-0.6-0.7-0.7-0.9
		c0.5-0.4,0.9-0.7,1.1-1c0.4-0.6,0.5-1.1,0.7-1.7c0.3-0.8,0.3-1.8,0.7-2.3c1-1.2,1.8-2.4,1.7-4.2c1.5,0.2,2-0.8,2.4-1.9
		c0.6-1,0.9-2.1,1.4-3.1c1.2-0.2,2.5,0.1,3.3-1.1c0.7-0.9,1.4-1.8,2.1-2.6c0.7-0.7,0.8-1.5,0.4-2.3c-0.4-0.7-0.7-1.7-1.8-1.7
		c-0.2,0-0.5-0.1-0.7-0.3c-1.4-0.9-2.2-0.8-3.2,0.3c-0.3,0.3-0.8,0.5-1.1,0.7c-0.4,0.2-0.8,0.2-1,0.5c-0.6,0.7-0.9,1.4-1.4,2.1
		c-0.5,0.7-0.9,1.3-1.8,1.7c-1.1,0.5-2.2,1.2-3.2,1.9c-0.3,0.1-0.5,0.3-0.6,0.5c-0.4,0.8-0.7,1.7-1,2.4c-0.3,0.7-0.6,1.4-1.4,1.8
		c-0.3,0.2-0.6,0.7-0.7,1c-0.4,0.8-0.6,1.7-1.5,2.2c-0.7,0.3-1.7,0.6-1.8,1.5c-0.1,0.8,0,1.7,0,2.7c-0.7,0.6-1.4,1.1-1,2.2
		c0.1,0.2,0,0.4-0.1,0.6c-0.4,1.1-0.3,2.2,0.6,3.2c0.3,0.3,0.3,0.7,0.4,1.2c0.1,0.2,0,0.6,0.2,0.7c0.6,0.4,0.5,0.8,0.5,1.4
		c0,0.7,0.1,1.5,0.1,2.2c0.7,0.4,1.3,0.7,2,1.1c0.1,0.5,0.2,0.9,0.3,1.5c1.5,0.1,2.9,1.3,4.1-0.1c1,1,2,2.1,3.9,2.1
		C382.2,87.7,382.4,88.3,382.5,89z M328.1,104.8c0.6-2-0.5-3.7-0.7-5.6c-0.2-1.5-1.2-3-1.7-4.5c-0.2-0.7,0-1.5,0.4-2.1
		c0.7-1,1.1-2.2,1.7-3.3c0.7-1.2,0.8-2.6,1.1-3.9c0.1-0.2,0.1-0.4,0-0.5c-0.6-0.8-0.2-2.1-1-2.9c-0.7-0.8-0.5-1.8,0.5-2.1
		c1.4-0.4,1.9-1.3,2.3-2.5c0.2-0.4,0.7-1.1,0.6-1.2c-0.7-0.8-0.2-1.7,0.1-2.2c0.5-0.8,0.6-2.4,2-2.3c1,0,1-0.7,1.5-1.1
		c0.7-0.5,0.7-1,0.4-1.7c2.2-0.1,3-2.2,3.1-4.1c1.2,0.4,2.4,0.4,3.5-0.5c0.3-0.4,0.7-0.8,0.7-1.3c0.1-2-0.8-3.7-2.1-5.2
		c-0.6-0.7-1.3-1.2-2.4-0.7c-0.6,0.3-1.4,0.2-2,0.1c-1.5-0.4-2.6-0.2-3.3,1.4c-0.6,1.2-1.8,2-2.1,3.4c-0.1,0.5-0.6,0.7-1.2,0.6
		c-1.9-0.1-2.2,0.2-3,2.1c-0.2,0.4-0.5,0.7-0.7,1.1c0.3,0.5,0.7,0.8,0.9,1.3c-1,0.7-2.9,0.7-2.5,2.7c-0.4,0.2-0.6,0.4-0.8,0.5
		c-1,0.4-1.9,0.8-1.8,2.2c0,0.5-0.4,1-0.8,1.5c-1.3,1.5-2.3,3.1-2.4,5.3c0,0.7,0.1,1.3,0.4,1.7c-0.6,0.7-1.3,1.2-1.5,2
		c-0.3,0.9-0.3,2.1-0.1,3c0.5,1.6,0.3,3.2,0.3,4.8c0.1,1.2-0.3,2.6,0.7,3.6c-0.7,1.7-1.3,3.3-2,5.1c0.2,0.5,0.7,1.2,0.8,1.9
		c0.2,1.5,2,2.5,1.3,4.3c0,0.1,0.1,0.3,0.2,0.4c0.6,0.8,1.1,1.9,2,2.5c1.2,0.8,1.2,1.1,0.6,2.5c0.8,0.7,1.6,1.6,2.6,2.2
		c0.9,0.7,1.8,1.2,1.8,2.3c2,0.8,3.8,1.2,5.8,0.4c0.5-0.2,0.9-0.2,1.5-0.3c1.2-0.2,2.4-0.4,2.5-2.1c0-0.2,0.3-0.4,0.6-0.6
		c0.7-0.6,1.6-1,2.6-1.7c-0.2,1.2-0.3,2.2-0.4,3.2c-0.1,0.4-0.2,0.8,0,1.3c0.3,0.8,0.2,1.7,0,2.6c-0.1,0.7-0.2,1.8,0.2,2.2
		c0.7,0.9,0.7,1.7,0.4,2.6c-0.1,0.3,0,0.7,0.1,1.1c0.2,0.8,0.4,1.6,0.6,2.4c0.8,3.1,1.7,6.3,2.5,9.4c0.1,0.3,0.3,0.5,0.4,0.7
		c0.2-0.7,0.1-1.1,0-1.7c-0.2-1-0.5-2.2-0.4-3.2c0-3.3,0.2-6.6,0.4-9.8c0.1-1,0.2-2.2,0.7-3.2c0.5-0.9,0.7-1.7,0.2-2.7
		c-0.4-0.8-0.4-1.7,0.3-2.4c0.3-0.5,0.4-1,0.6-1.5c0.4-1.4,0-2.9,0.8-4.2c0.3-0.3,0.3-1,0.1-1.4c-0.9-1.5-0.1-2.6,0.5-3.9
		c0.2-0.5,0.5-1.1,0.4-1.5c-0.7-1.4,0.1-2.7,0-4c-0.1-0.3,0-0.6,0.1-0.7c0.9-1.8,1.5-3.6,0.6-5.2c0.3-0.9,0.7-1.7,0.6-2.2
		c-0.3-1.7,0.1-3.2,0.1-4.8c0-0.7-0.4-1.3-0.8-2c-0.5-0.7-1.2-1.2-0.6-2.2c0.1-0.2-0.1-0.6-0.3-0.7c-0.6-1.2-1.5-1.9-2.8-2.1
		c-1.2-0.1-2.6,1-2.2,2.1c0.2,0.9-0.2,1.5-0.3,2.2c-0.1,0.7-0.3,1.3-0.2,2c0.1,0.8,0.2,1.7-0.5,2.4c-0.4,0.5-0.4,1.4-0.5,2.1
		c-0.1,0.7,0.5,0.9,0.9,1.3c0.7,0.7,0.6,1.9-0.3,2.5c-1.3,0.9-1.9,2.2-1.1,3.6c0.8,1.3,0.4,2.6,0.5,3.9c0.1,0.2-0.2,0.6-0.4,0.7
		c-1.1,1.3-2.2,2.5-3.3,3.7c-0.5,0.6-0.9,0.7-1.6,0.7c-0.8,0-1.3,0.2-1.9,0.9c-0.7,0.9-1.7,1.7-3.3,1.7
		C328.2,106.4,327.9,105.6,328.1,104.8z M286.1,69.7c-0.4,0-0.7,0.1-0.7,0c-0.5-0.5-0.8-1-0.2-1.7C285.5,68.6,285.7,69,286.1,69.7z
		 M307.7,51.3c0,0.9-0.2,2,0,3c0.4,2.5,0.2,5,0,7.5c0,0.8-0.5,1.8-0.3,2.6c0.3,0.9,0.2,1.7-0.2,2.5c-0.1,0.4,0,0.7,0,1.1
		c0.1,1,0.3,2.1,0.2,3.1c0,0.8-1.3,0.9-1.1,2c0.1,0.7,0,1.5,0.1,2.2c0,0.8-0.7,1.7,0.3,2.3c0,0-0.2,0.4-0.3,0.6
		c-0.4,1.6-0.4,3,0.4,4.5c0.3,0.6,0.3,1.2,0.2,1.9c0,0.3-0.7,0.5-0.8,0.8c-0.3,0.3-0.5,0.7-0.7,1.1c-0.7-1-1.9-1.7-2.2-3.1
		c-0.1-0.6-0.6-1.2-1.5-1.2c-0.9-0.1-1.5-0.7-1.8-1.8c-0.2-0.8-0.4-1.8-0.8-2.5c-0.4-0.7-0.5-1.5-1.6-1.5c-0.7,0-0.8-0.6-0.9-1.3
		c-0.2-1.4-0.4-2.8-1.8-3.7c-0.5-0.3-0.8-1.3-0.7-1.8c0.6-1.4-0.2-2.4-0.8-3.6c-0.3-0.7-0.7-1.3-1-2.1c-0.2-0.4-0.4-0.8-0.7-1.1
		c-0.8-0.9-1.4-2-2-3c-0.2-0.4-0.5-0.9-0.8-1c-1.3-0.5-2.1-1.6-2.8-2.6c-0.7-1-1.5-2-2.2-2.8c-1.9,0.4-2.8,1.1-3.3,2.9
		c-0.4,1.2-0.8,2.6-1.9,3.7c-0.5,0.4-0.6,1.4-0.5,2.1c0.1,1.5,0.1,3,0.7,4.4c0.3,0.7,0.1,1.1-0.3,1.6c-0.9,1.2-1,2.4-0.4,3.8
		c0.4,1,0.9,2.2-0.1,3.2c-0.1,0.2-0.1,0.5-0.1,0.7c-0.2,1.3-0.2,2.6-0.6,3.8c-0.4,1.2-0.2,2.2,0.6,3.2c0.5,0.6,0.5,1,0.1,1.6
		c-0.8,1.2-0.8,2.5,0.1,3.8c0.4,0.5,0.2,0.9,0,1.3c-0.7,1.2-1.3,2.4-0.6,3.8c0.1,0.2-0.2,0.6-0.2,0.7c0,0.9-0.7,1.7-0.2,2.6
		c0.8,1.6,0.9,3.5,1.4,5.2c0.2,0.7,0.4,1.7,0.1,2.2c-0.5,1-0.2,1.8,0.1,2.6c0.3,0.7,0.6,1.3,0.7,2.1c0.3,1,0.5,2.1,0.8,3.1
		c0.7,3.3,1.5,6.7,2.2,9.9c0.3,1,0.7,2.1,0.9,3c0.3-0.9,0.2-1.9,0.1-2.8c-0.1-2.1-0.3-4.1-0.3-6.2c-0.1-1.5,0.6-2.9,0.2-4.4
		c0-0.2,0.1-0.5,0.1-0.7c0.1-0.7,0.1-1.2,0.1-1.8c0.1-0.4,0-0.7,0.2-1c1-1.1,0.7-2.5,0.4-3.7c-0.2-0.8-0.4-1.5,0.2-2.2
		c0.3-0.4,0.4-0.7,0.1-1.2c-0.1-0.2-0.2-0.5-0.1-0.7c0.5-1.6,0.3-3.4,1.4-4.9c0.7-0.9,0.5-2.1-0.3-2.6c-0.8-0.6-0.7-1-0.4-2
		c0.5-1.2,1-2.5,0.5-4c-0.4-1-0.8-2.2,0-3.3c0.3-0.4,0.4-1,0.3-1.5c-0.4-1,0.2-1.8,0.7-2.6c0.6-0.9,0.8-2,0.2-3
		c-0.5-0.7-0.1-1.3,0.3-2c1.3,1.1,1.3,1.1,1.3,2.3c0.6,0.4,1,0.8,1.5,1.2c-0.4,0.3-0.7,0.5-1,0.7c1,0.7,0.4,2.2,1.6,2.8
		c0.8,0.5,1.6,1.3,2.5,2.1c-0.1,0.6-0.3,1.2-0.3,1.9c0.1,0.6,0.4,1.1,0.6,1.8c1.3,0.6,2.1,1.6,2.2,3.2c0.1,0.4,0.4,0.7,0.7,1.1
		c0.4,0.3,0.8,0.5,1.1,0.7c0.4,0.7,0.7,1.4,1.1,2.1c-0.7,0.9,0.8,1.6,0.3,2.4c0.7,0.5,1.4,1,2.1,1.4c0.3,0.2,0.7,0.3,0.7,0.4
		c0.1,0.6,0.1,1.1,0.3,1.2c1.1,0.7,1.1,2,1.8,2.9c0.7,0.8,0.7,2.1,1.9,2.5c0.1,0.1,0.2,0.1,0.2,0.2c0,1.2,0.9,0.8,1.6,1
		c0.4,0.5,0.9,0.9,0.8,1.4c0,1.3,1,1.5,1.8,1.6c1,0.2,1.8,0.4,2.2,1.4c0,0,0.3,0,0.6,0.1c-0.1-0.6-0.2-1-0.3-1.7
		c1.3-0.3,1.3-1.3,1.3-2.3c0-1.1-0.1-2.2,0.5-3.3c0.1-0.3-0.1-0.6-0.1-0.8c0.4-1.4,0.1-3,1.5-4c0.6-0.5,0.8-3.5,0.3-3.8
		c-0.8-0.6-0.6-1.1-0.5-1.8s0.1-1.3,0.2-2c0.1-1.1-0.8-2.3-0.1-3.5c-0.4-1,0.5-2.5-1-3.3c1.2-2.3,0.1-4.7-0.1-7
		c-0.4-0.2-0.8-0.4-1.1-0.6c0-0.7,0.1-1.5,0-2.1c-0.6-2.9-1.1-5.7-1.7-8.5c-0.7-3.3-1.7-6.5-2.4-9.7c-0.5-1.7-0.7-3.4-1.1-5.1
		C307.9,51.3,307.8,51.3,307.7,51.3z M275.6,62.2c-0.7-0.7-1.6-1.3-0.6-2.4c0.1-0.1,0.1-0.3,0.1-0.5c-0.2-0.6-0.1-1.4-0.5-1.8
		c-0.8-0.8-2-1.6-3-2.4c-0.1,0-0.3,0.1-0.4,0.1c-1.2-0.3-1.6,0.8-2.2,1.4c-1.6,1.3-1.6,1.8-0.8,3.8c0.1,0.3,0.3,0.7,0.5,1
		c-1,1.1-1.1,1.8-0.5,3.4c0,0.1,0.1,0.1,0.1,0.2c-0.2,0.9-0.2,2.2-0.7,2.9c-0.4,0.7-0.1,1.4-0.4,1.6c-0.9,0.7,0,1.2-0.1,1.8
		c0,0.2,0.2,0.5,0.2,0.5c-1.1,0.7,0.1,2.1-0.8,2.9c0.4,0.6-0.4,1.2,0.4,1.8c0.2,0.2,0.1,0.7,0.1,1.1s0,0.8,0,1.2c0,0.5,0,0.9,0,1.3
		c-0.1,0.8-0.4,1.6-0.4,2.4c-0.2,2.1-0.5,4-1.1,6c-0.3,0.7-0.1,1.4-0.2,2.1c-0.1,0.5-0.2,0.8-0.3,1.4c0.6,0.5,1.1,1.1,0.6,2.1
		c-0.1,0.2,0.1,0.5,0.2,0.7c0.8,2,0.2,4.1,0.5,6.2c0.3,1.5,0.2,3.1,0.5,4.7c0.5,2.2,0.5,4.6,0.8,6.8c0.2,1.9,0.6,3.8,0.9,5.8
		c0.7-0.4,0.5-0.7,0.5-1.2c-0.5-3.2-0.3-6.4,0.5-9.5c0.3-1.5,0.7-3,1-4.5c0.3-0.9,0.7-1.9,0.7-2.9c0-1.6,1.4-3.1,0.5-4.8
		c0.5-1.2,0.9-2.4,1.3-3.7c0.1-0.1,0.2-0.3,0.2-0.4c-0.3-0.4-0.5-0.7-0.8-1.2c1-1.5,2-3,3-4.5c-0.4-0.5-0.7-0.8-1-1.2
		c-1.1-1.4-1-1.8,0.1-3.4c0.6-0.7,1.3-1.9,1.1-2.6c-0.3-1.1,0-1.9,0.7-2.5c-0.2-0.7-0.6-1.3-0.4-1.5c0.6-1-0.3-1.5-0.6-2.2
		c0.2-0.5,0.8-0.9,0.7-1.3c-0.5-1.3,0.4-2.2,0.9-3.2c-0.4-0.5-0.7-0.9-1.1-1.4c0.4-0.7,0.7-1.5,1-2.4
		C276.2,63.2,276,62.7,275.6,62.2z M256.4,67.5c0,0.6,0.1,1.2,0.1,1.8c-0.1,0.4-0.2,0.8-0.3,1.2c-0.3,0.7-0.8,1.5-0.1,2.2
		c1.2,1.4,1.3,2.7,0.3,4.3c-0.3,0.4-0.5,0.7-0.5,1.2c-0.1,1.3-0.1,2.6-0.1,4c0,0.3,0.1,0.7,0.1,0.9c0.2,1.3,0.5,2.5,0.6,3.8
		c0.1,0.6,0,1.2,0.2,1.8c0.3,1,0.1,1.9-0.4,2.7c-0.6,0.9-1.3,1.9-0.2,2.8c0.1,0.1,0.1,0.3,0.1,0.4c-0.8,1-0.2,2.2,0,3.2
		c0.3,2-0.4,3.8,0.2,5.9c0.8,3,1,6.2,1.6,9.4c0.4,1.9,0.8,3.7,1.3,5.6c0.1,0,0.2,0,0.3,0c0-0.9-0.1-1.8-0.1-2.6
		c0.1-2.2,0.3-4.6,0.4-6.8c0.1-1.3,0.5-2.5,0.4-3.8c-0.1-2.2,0.5-4.3,0.8-6.5c0.1-0.8,0.2-1.5-0.2-2.2c-0.4-0.8-0.4-1.6,0.3-2.3
		c0.4-0.4,0.7-1.1,0.5-1.5c-0.4-1.1,0-2.1,0.3-3c0.2-0.7,0.1-1.2,0-2c-0.3-0.7-0.3-1.6-0.1-2.3c0.5-1.4,0.6-2.7-0.2-4.1
		c1.5-1.3,1.7-2.8,0.8-4.5c-0.5-0.7-0.3-1.5,0.2-2.2c1.1-1.5,1.6-3.1,1-5c-0.1-0.2-0.2-0.6-0.1-0.7c0.9-1.4,0.6-3.1,1-4.6
		c0.3-0.9,0-2.1,0-3.1c-0.1-0.7-0.3-1.5-0.1-2.2c0.2-0.8,0-1.6-0.7-2.1c-0.4-0.3-0.5-0.5-0.3-0.9c0.1-0.5,0.1-1,0.2-1.6
		c0-0.8-0.5-1.8-1.2-2.1c-0.8-0.3-1.2-0.7-1.4-1.7c-0.1-0.8-0.9-1.3-1.6-1c-0.7,0.6-1.8,1.1-2.1,1.9c-0.3,0.9-0.8,1.7-1.1,2.6
		c-0.5,1.3-1.3,2.3-1.9,3.7c-0.3,0.5-0.5,1.1-0.9,1.5c-0.6,0.4-0.7,0.8-0.9,1.4c-0.2,0.7-0.4,1.4-0.5,2.2c-0.1,0.7-0.4,1.1-1,1.4
		c-0.7,0.2-1,0.7-1.2,1.4c-0.2,0.7-0.5,1.4-0.9,1.9c-0.7,0.7-1.1,1.3-1,2.2c0,0.2-0.1,0.5-0.2,0.6c-0.9,0.5-0.9,1.3-1.1,2.2
		c-0.2,1.2-0.5,2.3-1,3.5c-0.4,0.8-1.3,1.4-1,2.5c0.1,0.2-0.2,0.7-0.5,0.8c-0.2,0.1-0.7,0-0.8-0.1c-0.2-0.8-1.4-1.2-1-2.4
		c0.2-0.5,0.2-1.4-0.7-1.6c-1.1-0.4-1-1.2-1-2.1c0-0.6,0-1.4-0.4-1.8c-0.4-0.4-0.5-0.6-0.5-1c0.1-0.7,0.1-1.5-0.9-1.9
		c-0.4-0.1-0.6-0.7-0.7-1.3c-0.6-1.3-0.5-3.1-2.2-3.7c-0.1-0.1-0.2-0.3-0.2-0.5c-0.5-1.7-0.8-3.4-1.3-5.2c-0.4-0.1-0.7-0.2-1-0.4
		c0-0.4,0.1-0.7,0-1c-0.1-1.4-1.9-2.5-3.2-1.9c-0.7,0.5-1.4,1-2.2,1.5c-0.2,0.2-0.4,0.6-0.4,0.7c0.1,0.9-0.2,1.6-0.9,2.2
		c-0.2,0.1-0.4,0.5-0.4,0.7c-0.2,1.5-0.3,3.1,0.2,4.6c0.6,1.8,0.9,3.4-0.7,4.9c-0.2,0.1-0.3,0.4-0.3,0.6c0.1,0.7-0.3,1.1-0.7,1.6
		c-0.2,0.3-0.2,0.7-0.2,0.9c-0.1,0.7,0,1.4,0,2.2c0.6,0.3,1.1,0.6,1.3,0.7c0,0.9,0.1,1.7,0,2.3c-0.1,1.1,0.2,2.4-1,3.2
		c-0.2,0.1-0.3,0.5-0.3,0.7c0,1.3,0.1,2.6,0.1,3.9c0,0.6-0.2,1.3,0.1,1.6c0.6,0.7,0.6,1.4,0.6,2.2c-0.1,0.8-0.1,1.7-0.6,2.4
		c-0.4,0.6-0.1,1.4-0.2,2.2c-0.1,0.8-0.4,1.7-0.4,2.5c0,2.2,0.2,4.2,0.2,6.4c0,1.4-0.2,2.8-0.1,4.1c0,1.1-0.3,2.3,0.6,3.5
		c0.5,0.7,0.7,1.7,0.7,2.5c-0.1,1.1-0.6,2.2,0.4,3.1c0.1,0.2-0.1,0.6-0.1,0.8c0,0.5,0,0.9,0.1,1.3c0.5,2.4,1,4.9,1.6,7.2
		c0.2,0.7,0.5,1.3,0.7,2c0.2-0.9,0-1.8,0-2.5c0.1-2,0.2-3.9,0.4-5.9c0.3-1.7,0.7-3.4,1-5.1c0.1-0.4,0.2-0.7,0.4-0.9
		c1.7-2.3,0.9-5.1,1.2-7.6c-0.7-0.7-0.1-1.1,0.4-1.6c0.2-0.2,0.4-0.4,0.5-0.7c0.8-1.2,0.2-2.4-0.1-3.4c0.5-1,1.2-1.8,1.1-2.5
		c-0.3-1.2-0.4-2.4-0.5-3.7c-0.1-0.9,0.8-1.9,0-2.8c-0.1-0.1,0.2-0.6,0.5-0.7c1-0.7,1.4-1.7,0.9-3c-0.3-0.9-0.6-1.9-0.7-2.8
		c-0.1-0.5-0.1-1,0-1.6c0-0.5,0.3-0.9,0.3-1.4c0-0.6,0.4-0.9,0.5-1.2c0.3-0.8,1.3-1.5,0.5-2.6c-0.4-0.4-0.2-1.2-0.1-1.9
		c0.1-0.3,0.4-0.6,0.7-0.9c1,1.8,0.8,3.7,0.9,5.2c0.6,0.4,1.3,0.7,1.3,1.2c0,1.3,0.1,2.4,1.2,3.4c-0.2,1.2,0.9,2,1.6,2.6
		c0.8,0.9,1.2,2.1,1.6,3.2c0.1,0.4,0.2,0.7,0.4,0.9c0.6,0.5,1.3,0.8,1.9,1.3c0.9,0.7,1.9,0.7,2.8,0.1c0.6-1,0.3-2-0.6-2.8
		c1.2-0.9,1.7-2,1.4-3.4c-0.1-0.4,0.1-0.7,0.2-1.1c0.3-1,0.1-2.3,1.4-2.7c0.1-0.1,0.1-0.1,0.1-0.2c-0.3-1.1,0.8-1.7,1.2-2.3
		c0.6-0.7,0.8-1.4,0.6-2.2c-0.2-1.3,0.2-2.2,1.5-2.3c0.1-0.6,0.2-1.1,0.2-1.6c-0.2-1-0.5-2.2,0.7-3c0.1-0.1,0-0.6,0.1-0.8
		c0.1-0.3,0.2-0.7,0.5-0.8c1.2-0.7,1.4-2,2.2-3.4C256.3,66.5,256.4,67,256.4,67.5z M216.4,85.3c-1,0.9-1.3,1.9-0.9,3.4
		c0.3,1.1,0.1,2.3-0.6,3.4c-0.6,0.8-1.1,1.7-0.4,2.7c0.3,0.3,0.1,0.9-0.1,1.4c-0.2,0.7-0.6,1.3-0.3,2.2c0.2,0.4,0.1,1-0.1,1.6
		c-0.6,2.5-1.1,5.1-2.2,7.4c-0.8,1.6-1.2,3.4-1.9,5.1c-1.9-0.1-2.9-0.8-3.7-2.4c-0.8-1.6-0.9-3.7-2.4-5c-0.1-0.2-0.1-0.6-0.1-0.7
		c0.5-1.8-0.5-2.9-1.8-3.8c0.4-1.3-0.3-2.3-0.8-3.6c-0.5-0.9-0.4-2.2-0.1-3.2c0.3-1.2-0.2-2.2,0.1-3.5c0.1-0.4-0.8-1-1.2-1.6
		c0.4-0.6,1.1-1,0.6-1.9c0-0.1,0.5-0.6,0.8-0.9c-0.5-0.4-0.8-0.7-1.4-1.2c0.2-0.7,1.2-1.4,0.6-2.3c0.3-0.2,0.7-0.3,1-0.5
		c-0.7-0.7-1.1-1.1-1.6-1.5c0-1.4,1-2.2,2-2.9c0.2-0.2,0.7-0.3,0.7-0.5c-0.1-0.8,0.7-1.5,0.7-2.2c0-0.7,0.4-0.8,0.8-1.3
		c-0.3-0.4-0.6-0.8-0.8-1.3c0.2-0.2,0.7-0.4,0.7-0.6c-0.1-0.9,1-1.5,0.7-2.6c-0.2-0.7,0.4-1.7,0.9-2.3c0.4-0.5,0.5-0.7,0.4-1.2
		c-0.1-0.5,0.1-1.2,0.5-1.5c0.7-0.5,1.2-0.8,1.7-1.6c0.2-0.4,0.5-0.5,0.4-1c0-0.4,0.4-0.8,0.7-1.5c0.5,0.7,0.9,1,0.9,1.5
		c0.2,1.9,1.2,3.1,2.8,4.1c-0.4,0.7,0.1,1.2,0.1,1.8c0.2,1.7,1.2,2.7,2.1,4c0.3,0.4,0.3,1.1,0.5,1.7c0.4,1.5,0.7,3,1.4,4.4
		c0.4,0.9,0.5,1.8,0.4,2.7c0,0.5,0.1,0.8,0.2,1.3C216,82.1,215.7,83.9,216.4,85.3z M191,82.4c0,1.5-0.6,2.7-1.3,3.9
		c0.6,0.7,1.1,1.6,1.7,2.3c-0.4,0.7-0.7,1.3-1,1.9c0.4,0.5,0.7,0.8,1,1.1c-0.2,0.6-0.4,1-0.4,1.6c-0.1,1.6-0.6,3.3,0.9,4.6
		c0.1,0.2,0.3,0.5,0.2,0.7c-0.3,1,0.4,2.1,0.5,3c0.2,1.2,0.6,2.4,1.8,3.1c0.3,0.2,0.5,0.7,0.6,1.1c0.5,1.4,0.9,1.8,2.3,2.1
		c1,0.2,2,0.4,2.3,1.7c0.3,1,1,1.7,2.1,2.1c1.3,0.4,2.7,0.7,4.1,0.9c1.1,0.2,2.2,0.5,3.4,0.7c-0.7,1.6-1.2,3.1-1.9,4.6
		c0.4-0.2,0.7-0.4,0.8-0.7c1.2-1.9,2.4-3.8,3.6-5.8c0.8-1.3,1.7-2.6,2.5-3.9c1-1.7,2.1-3.5,3.1-5.2c0.4-0.7,0.5-1.8,0.9-2.4
		c0.7-0.8,0.8-1.7,0.9-2.6c0-0.4,0.1-0.8,0.3-1.1c0.7-0.8,1.4-1.7,2.1-2.5c0.2-0.3,0.4-0.6,0.4-0.8c-0.1-1.4-0.2-2.7-0.2-4
		c0-0.4,0.3-0.7,0.5-1.1c0.4-0.6,0.9-1,0.8-1.9c0-1.4,0.1-2.9,0.1-4.3c0-0.6,0-1,0.2-1.5c0.4-0.7,0.1-1.7-0.4-2.1
		c-0.8-0.7-0.7-1.5-0.7-2.2c0.3-2.2,0.3-4.2-0.1-6.4c-0.3-1.1-0.2-2.5-1.3-3.4c-0.2-0.1-0.3-0.3-0.3-0.5c0-0.9-0.8-1.2-1.3-1.9
		c-0.4-0.5-0.7-0.8-1.2-1.2c-1.1-0.9-1.8-2.4-3.5-2.8c-0.4,0-0.7-0.6-1-0.9c-0.4-0.7-0.7-1.3-1.5-1.5c-1-0.2-1.9-0.8-2.4-1.6
		c-0.6-0.7-1.3-0.9-2.1-0.7c-0.9,0.2-1.7-0.1-2.4-0.6c-0.7-0.6-1.4-0.7-2.2-0.1c-0.3,0.3-0.7,0.3-1.1,0.5c0.1,0.9,0.1,1.8,0.2,2.9
		c-1.7,1.7-3.5,3.5-5.3,5.3c0.5,1.1-0.7,1.7-1.5,2.5c0.2,0.5,0.3,0.9,0.5,1.5c-1.9,0-2,1.9-3.2,2.6c0.2,0.4,0.4,0.7,0.6,1.1
		c0.9,1.5,0.8,2.2-0.7,3c-1.1,0.6-1.2,2-2.1,2.7c-0.1,0.1,0,0.6,0.1,0.7c0.3,0.5,0.7,0.8,0.8,1.3c0.2,0.3,0.6,0.9,0.4,1.1
		c-0.6,0.7,0.1,1.1,0.3,1.7C191.6,81.5,191,82,191,82.4z M168.7,67.5c0.2,1.4-0.7,2.4-1.2,3.6c-0.4,0.8-0.4,1.3,0.4,1.9
		c-0.7,0.5-1.6,0.8-1.7,1.2c-0.2,0.8-1.5,1.8-0.2,2.7c0.1,0,0.1,0.2,0,0.3c-0.2,0.8-0.5,1.6-0.7,2.5c0.6,0.7,0.4,1.6,0.2,2.5
		c-0.1,0.3-0.1,0.7-0.1,1c-0.1,1.4,0.7,2.6,1.1,4.2c-0.4,0.3-1.2,0.6-1.3,0.9c-0.1,1.3-0.9,2.1-1.5,3.1c-0.5,1-0.9,2.2-0.5,3.2
		c0.5,0.9,0.4,1.6,0.1,2.5c-0.2,0.7-0.3,1.9,0.1,2.2c1.1,0.8,0.9,1.8,0.7,2.9c-0.2,0.8-0.2,1.9,0.3,2.5c0.7,1.2,2,2.2,2.9,3.3
		c-0.7,1.3-0.6,2.8,0.6,5.5c1.7,0.4,1.9,0.6,2.9,3c0.2,0,0.4,0,0.5,0.1c1,0.5,2.1,0.9,3,1.4c0.7,0.4,1.2,1,1.9,1
		c1,0.1,2.1,0.9,3.2,0.2c0.4-0.3,1.1,0,1.7,0.2c0.6,0.1,1.1,0.2,1.6,0.5c0.7,0.4,1.2,0.2,1.7-0.2c0.8-0.7,1.5-1.6,2.8-1.6
		c0.3,0,0.6-0.6,0.8-0.9c0.4-0.5,0.8-0.9,1.1-1.5c0.8-1.1,1.1-2.4,2.2-3.4c0.2-0.3,0.2-0.7,0.2-1.1c0.1-0.4-0.1-0.7,0-1
		c0.3-2.1-0.3-4-0.5-6.4c-0.3,0.5-0.5,0.7-0.5,0.8c-0.1,0.9-0.4,1.7-1.1,2.3c-0.7,0.6-1.4,1.1-1.9,1.9c-1.2,2.1-2.9,3.7-4.7,5.2
		c-0.8,0-1-0.5-1-1.1c-0.1-1.2-0.7-2.2-1.6-3.1c0.7-0.7,0.6-1.2-0.3-1.9c-0.8-0.6-1.6-1.4-2.3-2.2c0.9-1.3,0.9-1.3,0.4-1.9
		c-1-1.2-2-2.4-3-3.7c0.9-1.6,0.8-1.9-0.6-4.9c0.1-0.2,0.3-0.2,0.4-0.4c0.9-1.2,0.5-2.8,0.5-4.1c0-1.2-0.5-2.4,0.3-3.7
		c0.3-0.3,0.4-0.9,0.2-1.2c-0.3-0.7-0.1-1.1,0.4-1.5c0.8-0.6,1-1.2,0.6-2.2c-0.1-0.3,0.1-0.7,0.1-1c-0.1-0.4,0-0.8-0.2-1.2
		c-0.5-0.8-0.4-1.6,0.3-2.2c0.5-0.6,0.8-1,0.5-1.9c-0.1-0.3,0.1-0.7,0.2-0.9c0.2-1.5,0.4-3,0.7-4.7c0,0,0.3-0.1,0.4-0.3
		c0.6-0.7,1.1-1.4,1.2-2.5c0.2-0.8,1.1-1.7,1.4-2.6c0.6-1.6,2-2.1,3.3-2.6c1-0.4,2.1,0.3,2.9,0.9c0.9,0.7,1.6,0.6,2.3,0
		c0-0.6-0.2-1,0-1.5c0.4-0.8,0.1-1.3-0.5-1.9c-0.7-0.7-1.5-1.2-1.6-2.3c-0.1-0.3-0.6-0.9-0.9-0.9c-1.3-0.1-2.3-1.1-3.7-1.4
		c-0.6-0.1-1-0.1-1.6,0.1c-1.4,0.5-2.9,0.7-4.4,1.3c-1,0.5-1.7,0.9-2.2,2c-0.2,0.4-0.7,0.7-1,0.8c-1.3,0.5-1.8,1-1.8,2.3
		c0,0.4-0.3,0.7-0.5,1c0.3,0.2,0.6,0.4,0.7,0.6c0.7,0.5,0.8,1,0,1.3c-0.8,0.4-1.8,0.7-2.7,0.9C169.3,66.4,168.6,67,168.7,67.5z"/>
</g>
</svg>
