<?xml version="1.0" encoding="utf-8"?>
<!-- Generator: Adobe Illustrator 25.4.1, SVG Export Plug-In . SVG Version: 6.00 Build 0)  -->
<svg version="1.1" xmlns="http://www.w3.org/2000/svg" xmlns:xlink="http://www.w3.org/1999/xlink" x="0px" y="0px"
	 viewBox="0 0 64 64" style="enable-background:new 0 0 64 64;" xml:space="preserve">
<style type="text/css">
	.st0{fill:#FF0000;}
	.st1{fill:#FF0000;stroke:#000000;stroke-miterlimit:10;}
	.st2{fill:#FC0000;stroke:#000000;stroke-miterlimit:10;}
	.st3{fill:none;stroke:#000000;stroke-width:2;stroke-linejoin:round;}
	.st4{fill:none;stroke:#FF0000;stroke-width:2;stroke-linejoin:round;}
	.st5{fill:none;stroke:#FFFFFF;stroke-width:2;stroke-linejoin:round;}
	.st6{fill:none;stroke:#FFFEFD;stroke-width:2;stroke-linejoin:round;}
	.st7{fill:none;stroke:#000000;stroke-width:3;stroke-miterlimit:10;}
	.st8{fill:none;stroke:#000000;stroke-width:1.5;stroke-miterlimit:10;}
</style>
<g id="Layer_1">
	<g id="Layer_9">
		<rect x="4" y="2" class="st0" width="56" height="4"/>
		<path class="st0" d="M20,6v8l0,0c3.5-2.6,7.7-4,12-4l0,0c4.3,0,8.5,1.4,12,4l0,0V6H20z"/>
		<path class="st0" d="M4,18h12c1.1-1.5,2.5-2.9,4-4l0,0V6H4V18z"/>
		<path class="st0" d="M4,26h8.4c0.6-2.9,1.8-5.6,3.6-8H4V26z"/>
		<path class="st0" d="M4,34h8v-4c0-1.3,0.1-2.7,0.4-4H4V34z"/>
		<rect x="4" y="42" class="st0" width="8" height="8"/>
		<rect x="3.9" y="52.6" class="st0" width="8" height="8"/>
		<rect x="52.3" y="53.1" class="st0" width="8" height="8"/>
		<rect x="4" y="34" class="st0" width="8" height="8"/>
		<path class="st1" d="M60,18H48c-1.1-1.5-2.5-2.9-4-4l0,0V6h16V18z"/>
		<path class="st0" d="M60,26h-8.4c-0.6-2.9-1.8-5.6-3.6-8h12V26z"/>
		<path class="st0" d="M60,34h-8v-4c0-1.3-0.1-2.7-0.4-4H60V34z"/>
		<rect x="52" y="42" class="st0" width="8" height="8"/>
		<rect x="52" y="34" class="st0" width="8" height="8"/>
		<path class="st2" d="M32,10L32,10c11,0,20,9,20,20v32l0,0H12l0,0V30C12,19,21,10,32,10z"/>
		<path d="M32,14L32,14c8.8,0,16,7.2,16,16v32l0,0H16l0,0V30C16,21.2,23.2,14,32,14z"/>
		<rect x="35" y="38" class="st0" width="13" height="8"/>
		<path class="st3" d="M32,10L32,10c11,0,20,9,20,20v32l0,0H12l0,0V30C12,19,21,10,32,10z"/>
		<line class="st3" x1="32" y1="10" x2="32" y2="14"/>
		<line class="st3" x1="47" y1="17" x2="44" y2="20"/>
		<line class="st3" x1="17" y1="17" x2="20" y2="20"/>
		<line class="st3" x1="12" y1="32" x2="16" y2="32"/>
		<line class="st3" x1="48" y1="32" x2="52" y2="32"/>
		<line class="st3" x1="12" y1="52" x2="16" y2="52"/>
		<line class="st3" x1="48" y1="52" x2="52" y2="52"/>
		<rect x="35" y="38" class="st4" width="13" height="8"/>
		<line class="st3" x1="39" y1="42" x2="43" y2="42"/>
		<line class="st4" x1="23" y1="17" x2="23" y2="62"/>
		<line class="st4" x1="29" y1="15" x2="29" y2="62"/>
		<line class="st4" x1="35" y1="15" x2="35" y2="62"/>
		<line class="st4" x1="41" y1="46" x2="41" y2="62"/>
		<line class="st4" x1="41" y1="17" x2="41" y2="38"/>
		<line class="st3" x1="4" y1="42" x2="12" y2="42"/>
		<line class="st3" x1="4" y1="34" x2="12" y2="34"/>
		<line class="st5" x1="4" y1="26" x2="12.4" y2="26"/>
		<line class="st5" x1="4" y1="18" x2="16" y2="18"/>
		<line class="st5" x1="60" y1="42" x2="52" y2="42"/>
		<line class="st5" x1="60" y1="34" x2="52" y2="34"/>
		<line class="st5" x1="60" y1="26" x2="52" y2="26"/>
		<line class="st6" x1="60" y1="18" x2="48" y2="18"/>
		<line class="st3" x1="4" y1="6" x2="60" y2="6"/>
		<line class="st3" x1="20" y1="6" x2="20" y2="14"/>
		<line class="st3" x1="44" y1="6" x2="44" y2="14"/>
		<path class="st7" d="M15.9,17.9"/>
		<path class="st7" d="M3.4,17.9"/>
		<path class="st3" d="M32,14L32,14c8.8,0,16,7.2,16,16v32l0,0H16l0,0V30C16,21.2,23.2,14,32,14z"/>
	</g>
</g>
<g id="Layer_2">
	<line class="st7" x1="2.9" y1="18" x2="18.4" y2="18"/>
	<line class="st7" x1="3.2" y1="26.1" x2="12.7" y2="26.1"/>
	<line class="st7" x1="3.2" y1="34" x2="12.7" y2="34"/>
	<line class="st7" x1="3.2" y1="41.7" x2="12.7" y2="41.7"/>
	<line class="st7" x1="3.1" y1="51.3" x2="12.6" y2="51.3"/>
	<line class="st7" x1="60.3" y1="17.7" x2="45.8" y2="17.7"/>
	<line class="st7" x1="60.1" y1="25.9" x2="51.6" y2="25.9"/>
	<line class="st7" x1="60.1" y1="33.7" x2="51.5" y2="33.7"/>
	<line class="st7" x1="60.1" y1="41.5" x2="51.6" y2="41.5"/>
	<line class="st7" x1="60.2" y1="51.1" x2="51.6" y2="51.1"/>
	<line class="st8" x1="12.1" y1="28.9" x2="12.1" y2="62.3"/>
	<line class="st8" x1="51.9" y1="28.6" x2="51.9" y2="61.9"/>
</g>
</svg>
