<?xml version="1.0" ?><svg viewBox="0 0 64 64" xmlns="http://www.w3.org/2000/svg"><defs><style>.cls-1{fill:#4e4a40;}.cls-2{fill:#625d51;}.cls-3{fill:#8a8275;}.cls-4{fill:#cbc3b6;}.cls-5{fill:#f0fec5;}.cls-6{fill:none;stroke:#000;stroke-linejoin:round;stroke-width:2px;}</style></defs><title/><g data-name="Layer 9" id="Layer_9"><rect class="cls-1" height="4" width="56" x="4" y="2"/><path class="cls-2" d="M20,6v8h0a19.92,19.92,0,0,1,12-4h0a19.92,19.92,0,0,1,12,4h0V6Z"/><path class="cls-3" d="M4,18H16a20,20,0,0,1,4-4h0V6H4Z"/><path class="cls-1" d="M4,26h8.4A19.87,19.87,0,0,1,16,18H4Z"/><path class="cls-3" d="M4,34h8V30a20.25,20.25,0,0,1,.4-4H4Z"/><rect class="cls-3" height="8" width="8" x="4" y="42"/><rect class="cls-1" height="8" width="8" x="4" y="34"/><path class="cls-3" d="M60,18H48a20,20,0,0,0-4-4h0V6H60Z"/><path class="cls-1" d="M60,26H51.6A19.87,19.87,0,0,0,48,18H60Z"/><path class="cls-3" d="M60,34H52V30a20.25,20.25,0,0,0-.4-4H60Z"/><rect class="cls-3" height="8" transform="translate(112 92) rotate(180)" width="8" x="52" y="42"/><rect class="cls-1" height="8" transform="translate(112 76) rotate(180)" width="8" x="52" y="34"/><path class="cls-4" d="M32,10h0A20,20,0,0,1,52,30V62a0,0,0,0,1,0,0H12a0,0,0,0,1,0,0V30A20,20,0,0,1,32,10Z"/><path class="cls-5" d="M32,14h0A16,16,0,0,1,48,30V62a0,0,0,0,1,0,0H16a0,0,0,0,1,0,0V30A16,16,0,0,1,32,14Z"/><path class="cls-1" d="M4,50h8a0,0,0,0,1,0,0V62a0,0,0,0,1,0,0H4a2,2,0,0,1-2-2V52a2,2,0,0,1,2-2Z"/><path class="cls-1" d="M54,50h8a0,0,0,0,1,0,0V62a0,0,0,0,1,0,0H54a2,2,0,0,1-2-2V52A2,2,0,0,1,54,50Z" transform="translate(114 112) rotate(-180)"/><rect class="cls-1" height="8" width="13" x="35" y="38"/><path class="cls-6" d="M32,14h0A16,16,0,0,1,48,30V62a0,0,0,0,1,0,0H16a0,0,0,0,1,0,0V30A16,16,0,0,1,32,14Z"/><path class="cls-6" d="M32,10h0A20,20,0,0,1,52,30V62a0,0,0,0,1,0,0H12a0,0,0,0,1,0,0V30A20,20,0,0,1,32,10Z"/><path class="cls-6" d="M4,50h8a0,0,0,0,1,0,0V62a0,0,0,0,1,0,0H4a2,2,0,0,1-2-2V52a2,2,0,0,1,2-2Z"/><path class="cls-6" d="M54,50h8a0,0,0,0,1,0,0V62a0,0,0,0,1,0,0H54a2,2,0,0,1-2-2V52A2,2,0,0,1,54,50Z" transform="translate(114 112) rotate(-180)"/><polyline class="cls-6" points="4 50 4 2 60 2 60 50"/><line class="cls-6" x1="32" x2="32" y1="10" y2="14"/><line class="cls-6" x1="47" x2="44" y1="17" y2="20"/><line class="cls-6" x1="17" x2="20" y1="17" y2="20"/><line class="cls-6" x1="12" x2="16" y1="32" y2="32"/><line class="cls-6" x1="48" x2="52" y1="32" y2="32"/><line class="cls-6" x1="12" x2="16" y1="52" y2="52"/><line class="cls-6" x1="48" x2="52" y1="52" y2="52"/><rect class="cls-6" height="8" width="13" x="35" y="38"/><line class="cls-6" x1="39" x2="43" y1="42" y2="42"/><line class="cls-6" x1="23" x2="23" y1="17" y2="62"/><line class="cls-6" x1="29" x2="29" y1="15" y2="62"/><line class="cls-6" x1="35" x2="35" y1="15" y2="62"/><line class="cls-6" x1="41" x2="41" y1="46" y2="62"/><line class="cls-6" x1="41" x2="41" y1="17" y2="38"/><line class="cls-6" x1="4" x2="12" y1="42" y2="42"/><line class="cls-6" x1="4" x2="12" y1="34" y2="34"/><line class="cls-6" x1="4" x2="12.4" y1="26" y2="26"/><line class="cls-6" x1="4" x2="16" y1="18" y2="18"/><line class="cls-6" x1="60" x2="52" y1="42" y2="42"/><line class="cls-6" x1="60" x2="52" y1="34" y2="34"/><line class="cls-6" x1="60" x2="52" y1="26" y2="26"/><line class="cls-6" x1="60" x2="48" y1="18" y2="18"/><line class="cls-6" x1="4" x2="60" y1="6" y2="6"/><line class="cls-6" x1="20" x2="20" y1="6" y2="14"/><line class="cls-6" x1="44" x2="44" y1="6" y2="14"/></g></svg>