<?xml version="1.0" encoding="utf-8"?>
<!-- Generator: Adobe Illustrator 25.4.1, SVG Export Plug-In . SVG Version: 6.00 Build 0)  -->
<svg version="1.1" id="solid" xmlns="http://www.w3.org/2000/svg" xmlns:xlink="http://www.w3.org/1999/xlink" x="0px" y="0px"
	 viewBox="0 0 64 64" style="enable-background:new 0 0 64 64;" xml:space="preserve">
<style type="text/css">
	.st0{fill:#FFFFFF;}
</style>
<path class="st0" d="M56.1,15H33.2L33,15.2v2.4l2.4,1.4c2.2,1.2,3.6,3.5,3.6,6.1v13.9c0,2.5-1.4,4.8-3.6,6.1L33,46.3v2.4l0.2,0.2
	h22.8c1.6,0,2.9-1.3,2.9-2.9V38H49c-3.3,0-6-2.7-6-6s2.7-6,6-6h10v-8.1C59,16.3,57.7,15,56.1,15z"/>
<path class="st0" d="M45,32c0,2.2,1.8,4,4,4h10v-8H49C46.8,28,45,29.8,45,32z M51,32c0,1.1-0.9,2-2,2s-2-0.9-2-2c0-1.1,0.9-2,2-2
	S51,30.9,51,32z"/>
<path class="st0" d="M35,51c-0.7,0-1.4,0.2-2,0.6l-2-2v-4.4l3.5-1.9c1.6-0.9,2.5-2.5,2.5-4.3V25.1c0-1.8-1-3.4-2.5-4.3L31,18.8v-4.4
	l2-2c1.9,1.1,4.4,0.5,5.5-1.5s0.5-4.4-1.5-5.5s-4.4-0.5-5.5,1.5c-0.7,1.3-0.7,2.9,0,4.1l-2.3,2.3C29.1,13.5,29,13.7,29,14v3.7
	l-5.6-3.1c-0.4-0.2-0.9-0.4-1.4-0.5V9.9c2.1-0.6,3.4-2.7,2.9-4.9c-0.6-2.1-2.7-3.4-4.9-2.9S16.6,4.8,17.1,7c0.4,1.4,1.5,2.5,2.9,2.9
	v4.2c-0.5,0.1-1,0.3-1.4,0.5L13,17.7V14c0-0.3-0.1-0.5-0.3-0.7L10.4,11c1.1-1.9,0.5-4.4-1.4-5.5S4.6,5,3.5,6.9S3,11.3,4.9,12.4
	c1.3,0.7,2.8,0.7,4.1,0l2,2v4.4l-3.4,1.9C6,21.6,5,23.3,5,25.1v13.9c0,1.8,1,3.4,2.6,4.3l3.4,1.9v4.4l-2,2c-1.9-1.1-4.4-0.5-5.5,1.5
	S3,57.5,4.9,58.6c1.9,1.1,4.4,0.5,5.5-1.5c0.7-1.3,0.7-2.9,0-4.1l2.3-2.3c0.2-0.2,0.3-0.5,0.3-0.7v-3.7l5.6,3.1
	c0.4,0.2,0.9,0.4,1.4,0.5v4.2c-2.1,0.6-3.4,2.7-2.9,4.9c0.6,2.1,2.7,3.4,4.9,2.9s3.4-2.7,2.9-4.9c-0.4-1.4-1.5-2.5-2.9-2.9v-4.2
	c0.5-0.1,1-0.3,1.4-0.5l5.6-3.1V50c0,0.3,0.1,0.5,0.3,0.7l2.3,2.3c-1.1,1.9-0.4,4.4,1.5,5.5s4.4,0.4,5.5-1.5
	c1.1-1.9,0.4-4.4-1.5-5.5C36.4,51.2,35.7,51,35,51z M35,7c1.1,0,2,0.9,2,2s-0.9,2-2,2c-0.5,0-1-0.2-1.4-0.6l0,0C33.2,10,33,9.5,33,9
	C33,7.9,33.9,7,35,7z M5,9c0-1.1,0.9-2,2-2s2,0.9,2,2c0,0.5-0.2,1-0.6,1.4l0,0C8,10.8,7.5,11,7,11C5.9,11,5,10.1,5,9z M7,57
	c-1.1,0-2-0.9-2-2s0.9-2,2-2c0.5,0,1,0.2,1.4,0.6l0,0C8.8,54,9,54.5,9,55C9,56.1,8.1,57,7,57z M17,36c0,0.6-0.4,1-1,1
	c-0.4,0-0.7-0.2-0.9-0.5l0,0L11,31v5c0,0.6-0.4,1-1,1s-1-0.4-1-1v-8c0-0.6,0.4-1,1-1c0.4,0,0.7,0.2,0.9,0.5l0,0L15,33v-5
	c0-0.6,0.4-1,1-1c0.6,0,1,0.4,1,1V36z M19,6c0-1.1,0.9-2,2-2s2,0.9,2,2s-0.9,2-2,2S19,7.1,19,6z M23,58c0,1.1-0.9,2-2,2s-2-0.9-2-2
	s0.9-2,2-2S23,56.9,23,58z M24,31c0.6,0,1,0.4,1,1s-0.4,1-1,1h-3v3c0,0.6-0.4,1-1,1s-1-0.4-1-1v-8c0-0.6,0.4-1,1-1h4
	c0.6,0,1,0.4,1,1s-0.4,1-1,1h-3v2H24z M27,28c0-0.6,0.4-1,1-1h4c0.6,0,1,0.4,1,1s-0.4,1-1,1h-1v7c0,0.6-0.4,1-1,1s-1-0.4-1-1v-7h-1
	C27.4,29,27,28.6,27,28z M35,57c-1.1,0-2-0.9-2-2c0-0.5,0.2-1,0.6-1.4l0,0C34,53.2,34.5,53,35,53c1.1,0,2,0.9,2,2S36.1,57,35,57z"/>
<path class="st0" d="M34.9,28c-0.3-1.4-1.7-2.1-3-2.5c-7.2-2.5-14.9-2.8-22.5-3c0.3,0-1.5,2-1.6,2.1c-0.5,0.7-0.5,1.5-0.7,2.4
	c-0.4,2.6-0.5,5.2-0.4,7.8c0,0.9,0.1,1.9,0.6,2.7c0.5,0.8,1.3,1.2,2.1,1.6C14,41,19,41.5,23.9,41.4c2.2,0,4.5-0.1,6.2-1.5
	c1.8-1.4,2.5-3.7,3.2-5.8c0.4-1.4,0.8-2.8,1.3-4.2C34.8,29.3,35,28.7,34.9,28z"/>
<g>
	<g>
		<g>
			<g>
				<g>
					<defs>
						<path id="SVGID_1_" d="M15.8,31.7c0.5-0.2,2.7-1,4.2-0.9l0.6-7.3L7.1,22.5L5.6,38.2l8.2,2.6l0.9-9h0.9
							C15.7,31.7,15.7,31.7,15.8,31.7z"/>
					</defs>
					<clipPath id="SVGID_00000179642915792853875280000001799483410632911529_">
						<use xlink:href="#SVGID_1_"  style="overflow:visible;"/>
					</clipPath>
				</g>
			</g>
		</g>
	</g>
	<g>
		<g>
			<g>
				<g>
					<defs>
						<path id="SVGID_00000073698826355664025810000014080107625749067949_" d="M25.6,31.7c-0.5-0.2-2.7-1-4.2-0.9l-0.6-7.3
							l13.5-1.1l1.4,15.7l-8.2,2.6l-0.9-9h-0.9C25.7,31.7,25.6,31.7,25.6,31.7z"/>
					</defs>
					<clipPath id="SVGID_00000150788179026308361140000010021935193787504008_">
						<use xlink:href="#SVGID_00000073698826355664025810000014080107625749067949_"  style="overflow:visible;"/>
					</clipPath>
				</g>
			</g>
		</g>
	</g>
</g>
<g>
	<g>
		<g>
			<path d="M34.4,36.8C34.4,36.8,34.4,36.8,34.4,36.8c0.3-1.8,0.4-3.5,0.1-5.1c-0.1-0.8-0.3-1.5-1.1-2c-0.1,0-0.1-0.1-0.2-0.2
				c-0.3-0.3-0.7-0.7-1.1-0.9c-0.2-0.1-0.4-0.1-0.4-0.4c-0.1,0-0.2,0-0.3,0c-0.1,0-0.3,0-0.4,0c0,0,0,0,0,0c0.2,0.1,0.2,0.3,0.2,0.5
				c0.2,1.2,0.4,2.3,0.6,3.5c0,0.1,0,0.2,0,0.2c-0.3,0.4-0.5,0.8-0.8,1.1c-0.1,0.1-0.1,0.2,0,0.3c0.2,0.4,0.4,0.7,0.4,1.1
				c0.1,0.6,0.1,1.2,0.4,1.7c0,0,0,0.1,0,0.1c-0.3,0.5-0.7,1-1.1,1.4c-0.6,0.5-1.2,1-1.8,1.3c-0.3,0.2-0.6,0.3-0.9,0.5c0,0,0,0,0,0
				c0,0,0.1-0.1,0.1-0.1c1.3-0.8,2.5-1.8,3.4-3.1c0.1-0.1,0.1-0.2,0-0.3c-0.2-0.4-0.3-0.8-0.3-1.2c0-0.5-0.3-0.9-0.4-1.4
				c-0.4,0.5-0.9,1-1.5,1.3c0.5-0.4,1-0.8,1.3-1.3c0.1-0.1,0.1-0.1,0-0.2c-0.2-0.4-0.3-0.8-0.5-1.2c-0.1-0.3-0.3-0.6-0.5-0.9
				c0-0.1-0.1-0.1-0.1-0.2c-0.2-0.2-0.5-0.4-0.7-0.6c-0.2-0.1-0.3-0.3-0.5-0.4c-0.2-0.3-0.5-0.3-0.8-0.3c-0.3,0-0.5,0-0.8-0.2
				c-0.2-0.1-0.5-0.2-0.7-0.1c-0.5,0.1-0.9,0.3-1.3,0.6c-0.3,0.2-0.4,0.4-0.4,0.7c0,0.1,1.3,0.7,1.2,0.7c-0.2,0.1-1.7-0.3-1.9-0.4
				c-0.1,0-0.2,0-0.2,0c-0.6-0.1-2.5-0.1-2.7-0.2c0.2-0.2,2.3-0.4,2.3-0.6c0-0.4,0-0.8,0.1-1.2c0.2-0.6,0.4-1.2,0.6-1.9
				c0,0,0,0,0-0.1c-0.2,0.1-0.4,0.4-0.6,0.1c0.1,0.2,0,0.3,0,0.4c-0.1,0.2-0.3,0.5-0.4,0.7c-0.1,0.1-0.1,0.3-0.1,0.4
				c0,0.3,0,0.6,0,0.9c0,0.2,0,0.3,0,0.5c0,0.2-0.1,0.4-0.2,0.5c0,0.1-0.1,0.2-0.2,0.2c-0.2,0-0.3,0-0.5,0c-0.2,0-0.3,0-0.3-0.3
				c0,0,0-0.1,0-0.1c0-0.3,0.1-0.5,0.1-0.8c0.1-0.4,0.1-0.8,0.3-1.2c0.1-0.3,0.3-0.6,0.4-0.9c0.1-0.2,0.2-0.4,0.2-0.5
				c0-0.1-0.2-0.2-0.3-0.3c0,0,0,0,0,0c0-0.1,0.1-0.2,0.1-0.3c0.1-0.3,0.1-0.3,0.4-0.2c0,0,0,0,0,0c0,0.3,0.3,0.2,0.3,0.4
				c0.1-0.1,0.2-0.1,0.2-0.2c0.2-0.2,0.5-0.4,0.7-0.6c0.1-0.1,0.2-0.2,0.3-0.2c0.1-0.1,0.3-0.1,0.4-0.2c0.2-0.1,0.3-0.2,0.5-0.3
				c0.3-0.2,0.7-0.4,1-0.6c0.3-0.2,0.5-0.3,0.8-0.1c0.2,0.1,0.4,0.2,0.6,0.3c0.2,0.1,0.5,0.3,0.7,0.4c0.4,0.2,0.9,0.4,1.3,0.5
				c0.3,0.1,0.6,0.3,0.7,0.6c0.2,0.4,0.4,0.7,0.6,1.1c0,0.1,0.1,0.1,0.2,0.1c0.2,0,0.3,0,0.5,0c0.2,0,0.4,0.1,0.5,0.3
				c0.1,0.2,0.2,0.3,0.3,0.5c0.6,0.6,1.2,1.1,1.8,1.7c0,0,0.1,0.1,0.1,0.1c0.4,0.8,0.6,1.6,0.6,2.5c0.1,1-0.1,2-0.2,3
				C34.7,36,34.6,36.4,34.4,36.8C34.5,36.8,34.5,36.8,34.4,36.8z M26.1,29.5c0.4-0.1,0.8-0.2,1.1-0.2c0.2,0,0.4,0.1,0.5,0.2
				c0.4,0.2,0.7,0.4,1.1,0.5c0.4,0.1,0.7,0.4,1,0.7c0,0,0.1,0,0.1,0c0.1,0,0.1,0,0.2,0c0.2,0.2,0.2,0.2,0,0.4
				c-0.1,0.2-0.1,0.3,0,0.4c0.3,0.4,0.4,0.9,0.5,1.4c0.1,0.2,0.2,0.4,0.2,0.7c0.2-0.2,0.3-0.4,0.4-0.6c0.1-0.2,0.2-0.3,0.3-0.5
				c0-0.1,0-0.1,0-0.2c-0.1-0.7-0.3-1.3-0.5-2c-0.1-0.5-0.2-0.9-0.3-1.4c0-0.1-0.1-0.1-0.1-0.2c-0.2-0.2-0.4-0.3-0.6-0.4
				c-0.1,0-0.2-0.1-0.3,0c-0.1,0-0.3,0.1-0.4,0.2c-0.4,0.3-0.8,0.4-1.2,0.3c-0.2,0-0.3,0-0.5,0c-0.3,0.1-0.6,0.1-1,0
				c-0.1,0-0.2,0-0.4,0c-0.1,0-0.2,0-0.3,0.1c-0.1,0.2-0.3,0.4-0.6,0.5c-0.1,0-0.2,0.1-0.2,0.2c0,0,0,0,0,0.1
				C25.6,29.6,25.9,29.6,26.1,29.5z M25.3,26.7c0.3-0.1,0.6-0.1,0.9-0.2c0,0.1,0,0.1,0,0.2c0,0,0,0,0,0c0.3-0.1,0.7-0.2,1-0.3
				c0.2-0.1,0.4-0.2,0.4-0.4c0,0,0-0.1,0.1-0.1c0.1,0,0.1,0.1,0.2,0.1c0-0.1,0-0.1,0.1-0.2c0.1,0.1,0.1,0.1,0.1,0.2
				c0.1,0.1,0.1,0.2,0.3,0.1c0,0,0.1,0,0.1,0.1c0.4,0.5,0.8,0.9,1.3,1.2c0,0,0.1,0,0.1,0c0.3,0,0.6,0,0.8,0
				c-0.4-0.4-0.6-0.9-1.2-1.2c-0.8-0.3-1.6-0.7-2.4-1c-0.3-0.1-0.6-0.2-0.9,0c-0.2,0.1-0.4,0.3-0.5,0.5c-0.2,0.2-0.5,0.4-0.7,0.6
				c-0.1,0.1-0.2,0.1-0.3,0.2C24.9,26.8,25.1,26.8,25.3,26.7z M28.4,27.1c-0.1-0.1-0.2-0.1-0.2-0.3c0,0,0-0.1,0-0.1
				c-0.1,0.1-0.3,0.2-0.4,0.3c-0.1,0-0.1,0.1-0.2,0.1c-0.5,0.1-1,0.1-1.4,0.2c-0.2,0-0.3,0.1-0.4,0.2c0.1,0.1,0.1,0.2,0.1,0.3
				c0.1,0.1,0.1,0.1,0.2,0.1c0.2-0.1,0.3-0.2,0.5-0.3c0,0,0,0.1,0,0.1c-0.1,0.1-0.1,0.3-0.2,0.4c0.9-0.2,1.8-0.3,2.7-0.5
				C28.9,27.4,28.6,27.2,28.4,27.1z M24.8,27.9c-0.4,0.4-0.6,0.9-0.8,1.4c-0.1,0.2-0.2,0.5-0.3,0.7c0,0,0,0.1,0,0.1c0,0,0,0,0,0
				c0.2-0.3,0.4-0.6,0.6-0.9c0.1-0.1,0.1-0.2,0.2-0.3c0.1-0.2,0.3-0.3,0.4-0.5c0.3-0.3,0.4-0.6,0.4-1C25.1,27.6,24.9,27.8,24.8,27.9
				z"/>
		</g>
	</g>
</g>
<g>
	<g>
		<g>
			<path d="M6.9,36.8c-0.1-0.4-0.2-0.9-0.2-1.3c-0.1-1-0.2-2-0.2-3c0-0.9,0.3-1.7,0.6-2.5c0,0,0.1-0.1,0.1-0.1
				c0.6-0.6,1.2-1.1,1.8-1.7c0.1-0.1,0.3-0.3,0.3-0.5c0-0.2,0.3-0.3,0.5-0.3c0.2,0,0.3,0,0.5,0c0.1,0,0.1,0,0.2-0.1
				c0.2-0.4,0.4-0.7,0.6-1.1c0.2-0.3,0.4-0.5,0.7-0.6c0.5-0.2,0.9-0.4,1.4-0.5c0.2-0.1,0.5-0.2,0.7-0.4c0.2-0.1,0.4-0.2,0.6-0.3
				c0.3-0.1,0.5,0,0.8,0.1c0.3,0.2,0.7,0.4,1,0.6c0.2,0.1,0.3,0.2,0.5,0.3c0.1,0.1,0.3,0.1,0.4,0.2c0.1,0.1,0.2,0.1,0.3,0.2
				c0.2,0.2,0.5,0.4,0.7,0.6c0.1,0.1,0.2,0.1,0.2,0.2c0.1-0.2,0.4-0.2,0.3-0.4c0,0,0,0,0,0c0.3-0.1,0.3-0.1,0.4,0.2
				c0,0.1,0.1,0.2,0.1,0.3c0,0,0,0,0,0c-0.1,0.1-0.3,0.2-0.3,0.3c0,0.2,0.1,0.4,0.2,0.5c0.1,0.3,0.3,0.6,0.4,0.9
				c0.1,0.4,0.2,0.8,0.3,1.2c0,0.3,0.1,0.5,0.1,0.8c0,0,0,0.1,0,0.1c0,0.2,0,0.3-0.3,0.3c-0.2,0-0.3,0-0.5,0c-0.1,0-0.2,0-0.2-0.2
				c-0.1-0.2-0.1-0.4-0.2-0.5c0-0.2,0-0.3,0-0.5c0-0.3,0-0.6,0-0.9c0-0.1-0.1-0.3-0.1-0.4c-0.1-0.2-0.3-0.5-0.4-0.7
				c-0.1-0.1-0.2-0.2,0-0.4c-0.2,0.3-0.4,0-0.6-0.1c0,0,0,0.1,0,0.1c0.2,0.6,0.4,1.2,0.6,1.9c0.1,0.4,0.1,0.8,0.1,1.2
				c0,0.2,2.1,0.4,2.3,0.6c-0.2,0.1-2.1,0.1-2.7,0.2c-0.1,0-0.2,0-0.2,0c-0.2,0-1.7,0.4-1.9,0.4c-0.1,0,1.2-0.6,1.2-0.7
				c0-0.3-0.1-0.5-0.4-0.7c-0.4-0.3-0.8-0.5-1.3-0.6c-0.3,0-0.5,0-0.7,0.1C14.3,30,14,30.1,13.8,30c-0.3,0-0.6,0-0.8,0.3
				c-0.1,0.2-0.3,0.3-0.5,0.4c-0.3,0.2-0.5,0.4-0.7,0.6c0,0.1,0,0.1-0.1,0.2c-0.2,0.3-0.3,0.6-0.5,0.9c-0.2,0.4-0.3,0.8-0.5,1.2
				c0,0.1,0,0.2,0,0.2c0.4,0.5,0.8,0.9,1.3,1.3c-0.6-0.3-1-0.7-1.5-1.3c-0.2,0.5-0.4,0.9-0.4,1.4c0,0.4-0.1,0.8-0.3,1.2
				c-0.1,0.1,0,0.2,0,0.3c0.9,1.3,2.1,2.3,3.4,3.1c0,0,0.1,0.1,0.1,0.1c0,0,0,0,0,0c-0.3-0.2-0.6-0.3-0.9-0.5
				c-0.7-0.4-1.3-0.8-1.8-1.3c-0.4-0.4-0.8-0.9-1.1-1.4c0,0,0-0.1,0-0.1c0.3-0.5,0.3-1.1,0.4-1.7c0.1-0.4,0.3-0.8,0.4-1.1
				c0.1-0.1,0.1-0.2,0-0.3c-0.3-0.4-0.5-0.7-0.8-1.1c0-0.1-0.1-0.1,0-0.2c0.2-1.2,0.4-2.3,0.6-3.5c0-0.2,0-0.4,0.2-0.5c0,0,0,0,0,0
				c-0.1,0-0.3,0-0.4,0c-0.1,0-0.2,0-0.3,0c0,0.2-0.2,0.3-0.4,0.4c-0.5,0.2-0.8,0.6-1.1,0.9C8,29.6,8,29.6,7.9,29.7
				c-0.7,0.5-0.9,1.2-1.1,2C6.6,33.4,6.7,35.1,6.9,36.8C6.9,36.8,6.9,36.8,6.9,36.8C6.9,36.8,6.9,36.8,6.9,36.8z M16,29.7
				C16,29.7,16,29.6,16,29.7c0-0.1-0.1-0.2-0.2-0.2c-0.2-0.1-0.4-0.3-0.6-0.5c-0.1-0.1-0.1-0.1-0.3-0.1c-0.1,0-0.2,0-0.4,0
				c-0.3,0.1-0.6,0-1,0c-0.2,0-0.3,0-0.5,0c-0.4,0-0.9,0-1.2-0.3c-0.1-0.1-0.3-0.1-0.4-0.2c-0.1,0-0.2,0-0.3,0
				c-0.2,0.1-0.4,0.3-0.6,0.4c-0.1,0-0.1,0.1-0.1,0.2c-0.1,0.5-0.2,0.9-0.3,1.4c-0.2,0.7-0.3,1.3-0.5,2c0,0.1,0,0.2,0,0.2
				c0.1,0.2,0.2,0.3,0.3,0.5c0.1,0.2,0.3,0.4,0.4,0.6c0.1-0.3,0.2-0.5,0.2-0.7c0.1-0.5,0.3-0.9,0.5-1.4c0.1-0.2,0.1-0.3,0-0.4
				c-0.2-0.2-0.1-0.2,0-0.4c0,0,0.1,0,0.2,0c0,0,0.1,0,0.1,0c0.3-0.3,0.6-0.5,1-0.7c0.4-0.1,0.7-0.3,1.1-0.5
				c0.2-0.1,0.3-0.2,0.5-0.2c0.4,0,0.8,0,1.1,0.2C15.5,29.6,15.8,29.6,16,29.7z M16.6,26.7c-0.1-0.1-0.2-0.1-0.3-0.2
				c-0.2-0.2-0.5-0.4-0.7-0.6c-0.2-0.2-0.3-0.3-0.5-0.5c-0.3-0.2-0.6-0.2-0.9,0c-0.8,0.3-1.6,0.7-2.4,1c-0.6,0.2-0.8,0.7-1.2,1.2
				c0.3,0,0.6,0,0.8,0c0,0,0.1,0,0.1,0c0.5-0.4,0.9-0.8,1.3-1.2c0,0,0.1-0.1,0.1-0.1c0.1,0.1,0.2-0.1,0.3-0.1c0-0.1,0.1-0.1,0.1-0.2
				c0,0.1,0,0.1,0.1,0.2c0.1,0,0.1-0.1,0.2-0.1c0,0.1,0.1,0.1,0.1,0.1c0.1,0.2,0.2,0.3,0.4,0.4c0.3,0.1,0.7,0.2,1,0.3c0,0,0,0,0,0
				c0,0,0-0.1,0-0.2c0.3,0.1,0.6,0.1,0.9,0.2C16.3,26.8,16.4,26.8,16.6,26.7z M12.3,27.6c0.9,0.2,1.8,0.3,2.7,0.5
				c0-0.2,0-0.3-0.2-0.4c0,0,0,0,0-0.1c0.2,0.1,0.4,0.2,0.5,0.3c0.1,0.1,0.2,0,0.2-0.1c0-0.1,0.1-0.2,0.1-0.3
				c-0.1-0.1-0.3-0.2-0.4-0.2c-0.5-0.1-1-0.1-1.4-0.2c-0.1,0-0.1-0.1-0.2-0.1c-0.1-0.1-0.3-0.2-0.4-0.3c0,0,0,0.1,0,0.1
				c0,0.1-0.1,0.2-0.2,0.3C12.7,27.2,12.5,27.4,12.3,27.6z M16.1,27.6c0.1,0.4,0.1,0.7,0.4,1c0.2,0.1,0.3,0.3,0.4,0.5
				c0,0.1,0.1,0.2,0.2,0.3c0.2,0.3,0.4,0.6,0.6,0.9c0,0,0,0,0,0c0,0,0-0.1,0-0.1c-0.1-0.2-0.2-0.5-0.3-0.7c-0.2-0.5-0.4-1-0.8-1.4
				C16.5,27.8,16.3,27.6,16.1,27.6z"/>
		</g>
	</g>
</g>
<g>
	<path d="M23.1,32.5c0.3-0.1,0.7-0.2,1.1-0.4c0,0.1-0.1,0.1-0.1,0.2c0.2,0,0.3-0.1,0.5-0.1c0.1,0,0.2,0,0.2,0
		c0.2,0.2,0.4,0.4,0.6,0.6c0,0.1,0.1,0.2,0,0.3c-0.1,0.3-0.1,0.6-0.2,0.9c-0.1,0.2-0.2,0.3-0.3,0.5c0,0,0,0,0,0
		c0.4,0.1,0.3,0.4,0.3,0.7c-0.1,0.4-0.1,0.7-0.3,1c-0.2,0.3-0.2,0.7-0.3,1c0,0,0,0,0,0c0,0,0,0-0.1,0c0-0.6,0-1.1,0-1.7
		c0-0.2,0-0.4-0.1-0.6c0-0.1-0.2-0.1-0.3-0.2c0,0.1-0.1,0.1-0.1,0.2c0,0.3,0,0.6,0,0.9c0,0.1,0.1,0.2,0.2,0.3c-0.5,0-0.9,0-1.3-0.1
		c0,0,0,0,0,0c0.4-0.1,0.3-0.5,0.5-0.7c0,0,0-0.1,0-0.1c0-0.4,0-0.8,0.1-1.3c0-0.4,0-0.8,0.1-1.2c0-0.2,0-0.3-0.2-0.3
		C23.2,32.6,23.2,32.6,23.1,32.5C23.1,32.5,23.1,32.5,23.1,32.5z M24.3,34.2c0.5-0.4,0.6-0.9,0.2-1.1c0,0.1,0,0.3-0.1,0.4
		c-0.1-0.1-0.1-0.2-0.1-0.3c0-0.1-0.1-0.1-0.1-0.2c0,0.1-0.1,0.1-0.1,0.2c0,0.2,0,0.5,0,0.7c0,0.1,0,0.3,0,0.4c0,0,0,0,0,0
		c0-0.1,0.1-0.2,0.1-0.3C24.2,34.1,24.3,34.1,24.3,34.2z"/>
	<path d="M23.2,32c0,0.1-0.1,0.1-0.1,0.1c-0.3,0.1-0.3,0.4-0.3,0.6c0,0.7-0.1,1.5-0.1,2.2c0,0.3-0.1,0.5-0.2,0.8
		c0,0-0.1-0.1-0.1-0.1c0,0.2-0.1,0.3-0.1,0.5c0,0-0.1,0-0.1,0c0-0.4-0.1-0.8-0.1-1.2c0,0-0.1,0.1-0.1,0.1c0,0,0-0.1-0.1-0.2
		c-0.1,0.2-0.2,0.3-0.3,0.5c0-0.1,0-0.3,0-0.4c-0.1,0.4-0.1,0.7-0.4,1c0-0.2,0-0.3,0-0.5c-0.2,0.2-0.3,0.5-0.5,0.7
		c0-0.1,0-0.2,0-0.3c0-0.1,0-0.3-0.2-0.3c0.5-0.2,0.5-0.7,0.6-1.1c0.1-0.3,0.2-0.6,0.3-0.8c0-0.1,0.1-0.2,0.1-0.4
		c0.1-0.2,0.1-0.4,0.2-0.6c0.1-0.2,0.1-0.3-0.1-0.4c-0.1,0-0.1-0.1-0.2-0.1c0,0,0,0,0-0.1C21.9,32,22.5,32,23.2,32z M22.2,32.7
		C22.2,32.7,22.2,32.7,22.2,32.7c-0.2,0.5-0.4,1.1-0.5,1.6c0.4,0.1,0.4,0,0.4-0.3c0-0.1,0-0.3,0-0.4C22.2,33.3,22.2,33,22.2,32.7z"
		/>
	<path d="M20.2,31.9c-0.1,0.4-0.1,0.8-0.2,1.3c0,0,0,0,0,0c-0.1-0.1-0.1-0.2-0.2-0.4c0,0-0.1,0.1-0.1,0.1c-0.1-0.1-0.1-0.3-0.2-0.4
		c0,0.1-0.1,0.1-0.1,0.2c-0.1,0-0.1-0.1-0.2-0.2c-0.1,0.4,0,0.8,0,1.2c0.3,0,0.2-0.4,0.5-0.5c0,0.5,0.1,0.9,0.1,1.4c0,0,0,0-0.1,0
		c-0.1-0.1-0.1-0.2-0.2-0.3c-0.1-0.1-0.1-0.1-0.2-0.2c-0.2,0.3-0.1,0.9,0.2,1.2c0.2,0,0.3-0.2,0.4-0.4c0-0.1,0.1-0.3,0.1-0.4
		c0.2,0.3,0.2,1.1,0.2,1.6c-0.2-0.1-0.4-0.2-0.6-0.3c-0.2-0.1-0.2-0.1-0.3,0.1c0,0,0,0-0.1,0.1c-0.2-0.4-0.5-0.2-0.8-0.2
		c0-0.1,0.1-0.2,0.1-0.2c0.2-0.1,0.2-0.3,0.1-0.5c0-0.8-0.1-1.5-0.1-2.3c0-0.3-0.1-0.5-0.4-0.7C18.8,32,19.5,32,20.2,31.9z"/>
	<path d="M16.8,36.7c0-0.2-0.1-0.3-0.1-0.5c-0.3-0.9-0.4-1.9-0.5-2.9c0-0.3,0-0.6-0.4-0.7c0,0,0,0,0-0.1c0.7-0.1,1.4-0.3,2.1-0.4
		c0,0.4-0.1,0.7-0.1,1.1c-0.1-0.1-0.1-0.1-0.2-0.2c-0.1-0.2-0.3-0.3-0.5-0.2c-0.2,0.1-0.3,0.2-0.3,0.5c0,0.2,0,0.4,0.1,0.6
		c0.3,0,0.2-0.4,0.5-0.5c0,0.5,0.1,0.9,0.1,1.4c0,0,0,0-0.1,0c-0.1-0.1-0.1-0.2-0.2-0.3c0-0.1-0.1-0.1-0.2-0.1
		c0,0.1-0.1,0.1-0.1,0.2c0,0.2,0,0.5,0,0.7C17,35.9,17,36.3,16.8,36.7z"/>
</g>
</svg>
