<?xml version="1.0" ?><svg id="Layer_1" style="enable-background:new 0 0 128 128;" version="1.1" viewBox="0 0 128 128" xml:space="preserve" xmlns="http://www.w3.org/2000/svg" xmlns:xlink="http://www.w3.org/1999/xlink"><g><path d="M76.5,50.8c-0.1-1.3-0.3-2.6-0.8-3.8c-0.3-0.6-0.5-1.2-0.7-1.4l-0.2-0.4c-0.6-1.1-2.3-0.9-2.6,0.4C71.9,47,70.8,48,69.4,48   c-1,0-2-0.5-2.6-1.5L62,37.7c-1.2-2.1-4.3-2-5.3,0.2l-3.3,7L53,45.5c-0.2,0.4-0.5,0.9-0.7,1.4c-0.6,1.5-0.9,3-0.9,4.6   c0,7.1,5.9,12.8,13.1,12.5C71.4,63.7,76.9,57.6,76.5,50.8z"/><path d="M41.2,68.2c0.9,1.2,2.5,1.7,3.8,1.1c1.7-0.8,2.2-3,1.2-4.5C42.7,60,41.3,54,42.4,47.9c0.2-1.4,0.7-2.7,1.2-4l0,0l10.1-22   c0.3-0.7,1.3-0.8,1.8-0.1l1.1,1.7c0.8,1.3,2.4,1.8,3.9,1.1c0.6-0.3,1-0.8,1.3-1.3l6.2-11.1c0.4-0.7,1.4-0.7,1.8,0.1   C76.3,26.4,84.1,43,84.5,43.9l0,0.1c0.3,0.8,0.6,1.5,0.8,2.3C89,60.9,78,74,64,74H41c-1.7,0-3,1.3-3,3v12c0,1.7,1.3,3,3,3h10.4   l4.6,32.4c0.2,1.5,1.5,2.6,3,2.6h10c1.5,0,2.8-1.1,3-2.6L76.6,92H87c1.7,0,3-1.3,3-3V77c0-1.7-1.3-3-3-3h-5.7   C87.8,68.9,92,60.9,92,52c0-3.5-0.7-7-2-10.3c0-0.1-0.1-0.1-0.1-0.2c-1.2-2.6-14.1-29.9-18.2-38.7c-0.5-1-1.4-1.7-2.5-1.8   C68,0.9,67,1.5,66.4,2.5l-7.5,13.6l-2.3-3.7c-0.6-0.9-1.6-1.5-2.7-1.4c-1.1,0.1-2.1,0.7-2.5,1.7L38,41.6c-0.1,0.1-0.1,0.2-0.1,0.4   c-1.2,3.2-1.8,6.6-1.8,10C36,57.9,37.8,63.5,41.2,68.2z M66.5,120.1c-0.1,0.5-0.5,0.9-1,0.9h-3c-0.5,0-0.9-0.4-1-0.9l-3.9-27   c-0.1-0.6,0.4-1.1,1-1.1h10.8c0.6,0,1.1,0.5,1,1.1L66.5,120.1z M83,80c0.6,0,1,0.4,1,1v4c0,0.6-0.4,1-1,1H45c-0.6,0-1-0.4-1-1v-4   c0-0.6,0.4-1,1-1H83z"/><circle cx="39" cy="4" r="3"/></g></svg>