<?xml version="1.0" encoding="utf-8"?>
<!-- Generator: Adobe Illustrator 25.4.1, SVG Export Plug-In . SVG Version: 6.00 Build 0)  -->
<svg version="1.1" id="Layer_1" xmlns="http://www.w3.org/2000/svg" xmlns:xlink="http://www.w3.org/1999/xlink" x="0px" y="0px"
	 viewBox="0 0 286.5 319.9" style="enable-background:new 0 0 286.5 319.9;" xml:space="preserve">
<style type="text/css">
	.st0{fill:#DBAB56;}
	.st1{fill:none;stroke:#FFFFFF;stroke-miterlimit:10;}
</style>
<g>
	<g>
		<path class="st0" d="M142.8,318.4c8,0,15,0.4,21.9-0.2c4.1-0.3,8.1-2.2,12.8-3.6c0,0.1,0.5,1.9,1.1,4c11.5-1.4,23.4,2.3,31.7-6.1
			c3,2.4,6,6.9,9,6.8c7.1-0.2,14.1-2.6,21.2-4.1c0.3-0.1,0.4-0.8,0.6-1.3c3-10-5.2-30.1-14.6-35.4c-7-3.9-14.2-7.3-21.3-10.9
			c3-5.7,7.8-6.8,12.6-5.5c6.4,1.8,13,4.1,18.7,7.6c6.4,3.9,11.8,3.5,17.3-0.8c5.3-4.1,10.5-8.5,15.7-12.8
			c7.3-6,13.1-12.5,10.9-23.1c-1.7-7.7-3.8-15.5-4.2-23.4c-1.4-26.6,0.5-52.9,7.9-78.8c2.7-9.3,1.8-20.1,0.6-29.9
			c-1.3-10.6-4.9-21-7.2-31.5c-3.6-16-12.3-29.7-24.2-39.7c-21.1-17.6-45.6-29.1-74-29.2c-24.8-0.1-49.6-0.4-74.4,0.2
			C95.8,1,86.7,2.5,78.3,5c-20.7,6.2-39.9,15.4-54,32.7C15.7,48.2,7.9,59.1,5.7,72.9c-1.8,11.4-2.6,23-4.5,34.4
			c-2.4,14.1-0.8,27.7,2.6,41.5c2.3,9.3,3.9,18.9,4.7,28.5c1.6,19.3-1.4,38.3-5.1,57.3c-1,5.1,2.2,12.2,5.7,16.6
			c5,6.2,12.1,10.6,18.1,15.9c7,6.2,12,6.4,20.8,2.5c7.2-3.2,15-5.2,22.6-7.3c1.3-0.4,3.4,0.8,4.5,2c0.5,0.6-0.5,2.7-1.1,4
			C70.1,276.6,61,279.1,54,282c-4.6,1.9-7.3,3.8-8.1,7.6c-1.5,6.9-2.3,14.1-2.3,21.2c0,2.4,3,6.7,5,6.9c8,0.8,16.5,2.1,23.2-5.3
			c1.1,9.4,7.8,5.4,12.7,5.5c4.8,0.2,9.7,0.4,14.5,0.1c2-0.1,4-4.5,7.1-5.9c9.6,7.9,21.8,5.3,32.1,6c1.9-4,3.2-6.8,5.4-11.2
			C143.2,311.9,143,314.6,142.8,318.4z"/>
		<path class="st1" d="M143.2,318.4c0.2-3.7,0.4-6.5,0.7-11.4c-2.1,4.4-3.4,7.1-5.4,11.2c-10.3-0.7-22.6,0.5-32.1-7.4
			c-3.1,1.4-5.1,7.2-7.1,7.3c-4.8,0.3-9.7,0.1-14.5-0.1c-4.9-0.2-11.6,1-12.7-8.4c-6.7,7.4-15.2,9-23.2,8.2c-2-0.2-5-4.5-5-6.9
			c0-7.1,0.9-14.3,2.3-21.2c0.8-3.8,3.5-5.6,8.1-7.6c7-3,16-5.5,19.9-13.9c0.6-1.3,1.6-3.4,1.1-4c-1-1.1-3.2-2.3-4.5-2
			c-7.6,2.2-15.4,4.1-22.6,7.3c-8.7,3.9-13.8,3.6-20.8-2.5c-6-5.3-13.2-9.7-18.1-15.9c-3.5-4.4-6.7-11.5-5.7-16.6
			c3.7-19,6.7-38,5.1-57.3c-0.8-9.6-2.4-19.2-4.7-28.5c-3.4-13.7-5-27.4-2.6-41.5c1.9-11.4,2.7-23,4.5-34.4
			c2.2-13.7,10-24.7,18.5-35.1C38.8,20.4,58,11.2,78.7,5c8.5-2.5,17.6-4,26.4-4.2c24.8-0.6,49.6-0.3,74.4-0.2
			c28.4,0.1,52.9,11.6,74,29.2c11.9,9.9,20.6,23.7,24.2,39.7c2.4,10.5,6,20.8,7.2,31.5c1.2,9.9,2.1,20.6-0.6,29.9
			c-7.4,26-9.4,52.2-7.9,78.8c0.4,7.8,2.6,15.6,4.2,23.4c2.3,10.6-3.6,17.1-10.9,23.1c-5.2,4.3-10.4,8.7-15.7,12.8
			c-5.5,4.3-10.9,4.7-17.3,0.8c-5.7-3.5-12.2-5.7-18.7-7.6c-4.8-1.4-9.6-0.2-12.6,5.5c7.1,3.6,14.3,7,21.3,10.9
			c9.4,5.2,17.6,25.4,14.6,35.4c-0.1,0.5-0.3,1.2-0.6,1.3c-7,1.6-14.1,3.9-21.2,4.1c-2.9,0.1-6-4.4-9-6.8
			c-8.3,8.4-20.2,4.7-31.7,6.1c-0.6-2.1-1-3.9-1.1-4c-4.7,1.4-8.7,3.2-12.8,3.6C158.2,318.8,151.2,318.4,143.2,318.4z"/>
		<path d="M120.1,177c0.7,9.6-4.9,12.2-10.5,15.2c-12.1,6.5-25.4,8.7-38.6,8.4c-13.2-0.3-18.4-7.6-19.1-22.1c-0.1-2.6,0-5.3,0-7.9
			c0-13.7,6.4-19.4,19.2-14.7C88.2,162,104.5,170.1,120.1,177z"/>
		<path d="M163.7,239.6c-4,0.9-7,2.5-8.5,1.6c-7.2-4.1-14-4.6-21.3-0.1c-1,0.6-3.9,0.2-4.3-0.6c-0.9-1.7-1.5-4.3-0.8-5.9
			c3.4-8.3,7.1-16.5,11.3-24.4c0.8-1.6,5.9-2.8,6.1-2.5C151.9,217.6,157.3,227.6,163.7,239.6z"/>
		<path d="M172.5,177c-0.7,9.6,4.9,12.2,10.5,15.2c12.1,6.5,25.4,8.7,38.6,8.4c13.2-0.3,18.4-7.6,19.1-22.1c0.1-2.6,0-5.3,0-7.9
			c0-13.7-6.4-19.4-19.2-14.7C204.4,162,188.1,170.1,172.5,177z"/>
	</g>
</g>
</svg>
