<?xml version="1.0" encoding="utf-8"?>
<!-- Generator: Adobe Illustrator 25.4.1, SVG Export Plug-In . SVG Version: 6.00 Build 0)  -->
<svg version="1.1" id="Layer_1" xmlns="http://www.w3.org/2000/svg" xmlns:xlink="http://www.w3.org/1999/xlink" x="0px" y="0px"
	 viewBox="0 0 127 118.7" style="enable-background:new 0 0 127 118.7;" xml:space="preserve">
<style type="text/css">
	.st0{fill:#FF0000;}
	.st1{opacity:0.2;fill-rule:evenodd;clip-rule:evenodd;fill:#722B2B;enable-background:new    ;}
	.st2{fill:#D30000;}
	.st3{stroke:#000000;stroke-miterlimit:10;}
	.st4{fill:none;}
</style>
<g>
	<circle class="st0" cx="68" cy="57.7" r="51.3"/>
	<path class="st1" d="M98.6,16.5c16.9,22.8,12.1,54.9-10.6,71.8c-18.2,13.5-43,13.5-61.2,0c16.9,22.8,49.1,27.5,71.8,10.6
		s27.5-49.1,10.6-71.8C106.2,23.1,102.6,19.5,98.6,16.5z"/>
	<ellipse transform="matrix(0.8727 -0.4882 0.4882 0.8727 -7.4176 30.2893)" cx="54.4" cy="29.4" rx="7.1" ry="5.9"/>
	<ellipse transform="matrix(0.303 -0.953 0.953 0.303 -8.3294 114.625)" cx="74.2" cy="63" rx="8.9" ry="8"/>
	<path d="M68,110.8c-29.3,0-53.1-23.8-53.1-53.1S38.7,4.6,68,4.6s53.1,23.8,53.1,53.1C121.1,87,97.3,110.8,68,110.8z M68,8.1
		c-27.4,0-49.6,22.2-49.6,49.6s22.2,49.6,49.6,49.6s49.6-22.2,49.6-49.6C117.5,30.3,95.4,8.2,68,8.1z"/>
	<path class="st2" d="M53.3,37.3c-2.7,0.1-5.3-1.3-6.7-3.6c-2.1-3.7-0.3-8.6,4-11c4.3-2.4,9.4-1.3,11.5,2.3c2.1,3.7,0.3,8.6-4,11
		l0,0C56.7,36.9,55,37.3,53.3,37.3z M57.3,34.5L57.3,34.5z M55.5,25c-1.1,0-2.2,0.3-3.1,0.8c-2.6,1.4-3.7,4.2-2.6,6.2
		c1.1,2,4.1,2.4,6.6,1c2.6-1.4,3.7-4.2,2.6-6.2C58.3,25.6,56.9,24.9,55.5,25L55.5,25z"/>
	<path d="M30.1,24.7c-0.5,0-1.1-0.2-1.4-0.7c-1.1-1.5-1.1-3.5-0.1-5c0.9-1.7,2.2-3.3,3.7-4.5c4-3.2,8.2-4,10-1.7
		c0.6,0.8,0.5,1.9-0.3,2.5s-1.9,0.5-2.5-0.3l0,0c-0.4-0.2-2.5,0.1-5,2.2c-2.6,2.1-3.3,4.1-3.1,4.6c0.6,0.8,0.5,1.9-0.3,2.5
		C30.9,24.5,30.5,24.7,30.1,24.7L30.1,24.7z"/>
	<path d="M107,25.7c-1,0-1.8-0.8-1.8-1.8c0-0.4,0.1-0.7,0.3-1c-0.3-1-0.9-1.9-1.7-2.5c-0.7-0.8-1.6-1.3-2.6-1.6
		c-0.8,0.6-1.9,0.4-2.5-0.4c-0.5-0.7-0.4-1.7,0.2-2.3c1.1-1,2.6-1.2,3.9-0.6c1.3,0.5,2.5,1.3,3.5,2.3c1,1,1.8,2.1,2.4,3.4
		c0.7,1.3,0.5,2.8-0.4,3.9C107.9,25.5,107.5,25.7,107,25.7z M105.7,22.7L105.7,22.7L105.7,22.7z M101.5,18.6L101.5,18.6L101.5,18.6z
		"/>
	<path d="M104.5,96.8c-0.7,0-1.4-0.2-1.9-0.6c-0.8-0.6-0.9-1.7-0.2-2.5c0.5-0.7,1.5-0.8,2.2-0.4c1.9-0.9,3.2-2.5,3.7-4.5
		c-0.6-0.7-0.6-1.9,0.2-2.5c0.7-0.6,1.6-0.6,2.3,0c1.8,1.5,1.3,4.5-1.1,7.5c-0.9,1.1-1.9,2-3.2,2.6
		C105.9,96.6,105.2,96.8,104.5,96.8z M108.6,88.9L108.6,88.9L108.6,88.9z"/>
	<path d="M96.8,40.7c-1,0-1.8-0.8-1.8-1.8c0-0.6,0.3-1.2,0.9-1.5c0.8-0.5,1-2.3,0-4.1c-0.5-0.8-1.2-1.5-2-2c-0.5-0.3-1-0.3-1.5-0.1
		c-0.8,0.5-1.9,0.2-2.4-0.7c-0.5-0.8-0.2-1.9,0.7-2.4c1.5-0.8,3.2-0.8,4.7-0.1c1.5,0.7,2.8,1.9,3.6,3.4c2,3.5,1.4,7.4-1.3,8.9
		C97.4,40.6,97.1,40.7,96.8,40.7z"/>
	<path class="st2" d="M50.4,86.4c-3.5-0.1-6.6-2.4-7.7-5.8c-0.9-2.7,0.5-5.6,3.1-6.5c0.6-0.2,1.3-0.3,2-0.3h0c1.7,0,3.4,0.6,4.8,1.7
		l0,0c1.4,1,2.4,2.5,2.9,4.1c0.9,2.7-0.5,5.6-3.1,6.5C51.7,86.3,51,86.4,50.4,86.4L50.4,86.4z M50.4,82.8L50.4,82.8
		c0.9,0.1,1.7-0.4,1.8-1.3c0.1-0.3,0-0.6-0.1-0.9c-0.3-0.9-0.9-1.7-1.7-2.3l0,0c-0.8-0.6-1.7-0.9-2.6-1h0c-0.9-0.1-1.7,0.4-1.8,1.3"
		/>
	<path d="M98.1,84c-0.9,0-1.8-0.3-2.6-0.9c-0.8-0.6-0.9-1.7-0.3-2.5s1.7-0.9,2.5-0.3c0,0,0,0,0,0c0.3,0.3,1.2,0.1,1.9-0.8
		c0.7-0.8,0.7-1.7,0.3-2c-0.8-0.6-0.9-1.7-0.3-2.5s1.7-0.9,2.5-0.3c2,1.9,2.1,5,0.2,7C101.4,83.1,99.8,83.9,98.1,84z"/>
	<path d="M34.2,57.9c-0.1,0-0.2,0-0.3,0c-1.3-0.3-2.5-1.1-3.2-2.3c-0.7-1.2-0.9-2.6-0.6-3.9c0.4-2.8,2.9-4.8,5.8-4.5
		c1,0.2,1.6,1.1,1.4,2.1c-0.2,1-1.1,1.6-2.1,1.4c-0.7-0.1-1.5,0.6-1.6,1.6c-0.1,0.5,0,1.1,0.2,1.5c0.1,0.3,0.4,0.5,0.7,0.6
		c1,0.2,1.6,1.1,1.4,2.1C35.8,57.3,35.1,57.9,34.2,57.9L34.2,57.9z"/>
	<path class="st2" d="M73.7,73.6c-0.9,0-1.9-0.1-2.7-0.4c-5.3-2-8-7.8-6.1-13.1c0.8-2.6,2.6-4.8,4.9-6.2c2.3-1.4,5-1.7,7.6-0.9
		c5.3,2,8,7.8,6.1,13.1c-0.8,2.6-2.6,4.8-4.9,6.2C77.1,73.1,75.4,73.5,73.7,73.6z M74.7,56c-1.1,0-2.1,0.3-3.1,0.9
		c-1.6,1-2.8,2.5-3.3,4.3c-1.3,3.4,0.4,7.3,3.8,8.6c1.6,0.5,3.3,0.3,4.7-0.6c1.6-1,2.8-2.5,3.3-4.3c1.3-3.4-0.4-7.3-3.8-8.6
		C75.8,56.1,75.2,56,74.7,56L74.7,56z"/>
</g>
<g>
	<g>
		<g>
			<g>
				<g>
					<path d="M32.8,45.9L32.8,45.9L32.8,45.9z"/>
				</g>
			</g>
		</g>
	</g>
</g>
<g>
	<g>
		<path d="M53.2,94.4c0,4.3-3.5,7.7-7.8,7.7H10.2c-4.3,0-7.8-3.5-7.8-7.7c0-4,3.1-7.4,7-7.7c0.3-3,2.8-5.4,5.9-5.4
			c0.4,0,0.7,0,1,0.1c0.7-1.7,2.4-2.9,4.4-2.9c0.7,0,1.4,0.2,2,0.4c0.4-2.7,2.8-4.9,5.7-4.9c3.1,0,5.7,2.6,5.7,5.7
			c0,0.3,0,0.5-0.1,0.8c0.8-0.5,1.9-0.8,2.9-0.8c3.2,0,5.7,2.6,5.7,5.7c0,0.6-0.1,1.1-0.3,1.7c0.9-0.4,1.9-0.6,3-0.6
			C49.8,86.6,53.2,90.1,53.2,94.4z"/>
	</g>
	<g>
		<path class="st3" d="M45.5,102.5H10.2c-4.5,0-8.1-3.6-8.1-8.1c0-4.1,3-7.5,7-8.1c0.4-3.1,3.1-5.4,6.2-5.4c0.3,0,0.6,0,0.8,0.1
			c0.9-1.7,2.7-2.8,4.6-2.8c0.6,0,1.2,0.1,1.8,0.3c0.6-2.7,3.1-4.7,5.9-4.7c3.3,0,6.1,2.7,6.1,6.1c0,0.1,0,0.1,0,0.2
			c0.8-0.4,1.6-0.5,2.5-0.5c3.3,0,6.1,2.7,6.1,6.1c0,0.4,0,0.8-0.1,1.1c0.8-0.3,1.6-0.4,2.5-0.4c4.5,0,8.1,3.6,8.1,8.1
			C53.6,98.8,49.9,102.5,45.5,102.5z M15.3,81.6c-2.9,0-5.3,2.2-5.6,5.1c0,0.2-0.1,0.3-0.3,0.3c-3.8,0.4-6.7,3.6-6.7,7.4
			c0,4.1,3.3,7.4,7.4,7.4h35.3c4.1,0,7.4-3.3,7.4-7.4c0-4.1-3.3-7.4-7.4-7.4c-1,0-1.9,0.2-2.8,0.6c-0.1,0-0.3,0-0.4-0.1
			c-0.1-0.1-0.1-0.2-0.1-0.4c0.2-0.5,0.3-1,0.3-1.6c0-3-2.4-5.4-5.4-5.4c-1,0-1.9,0.3-2.8,0.8c-0.1,0.1-0.3,0.1-0.4,0
			c-0.1-0.1-0.2-0.2-0.1-0.4c0-0.2,0.1-0.5,0.1-0.7c0-3-2.4-5.4-5.4-5.4c-2.6,0-4.9,2-5.3,4.6c0,0.1-0.1,0.2-0.2,0.3
			c-0.1,0.1-0.2,0.1-0.3,0c-0.6-0.3-1.2-0.4-1.9-0.4c-1.8,0-3.4,1-4.1,2.7c-0.1,0.2-0.2,0.2-0.4,0.2C16,81.6,15.7,81.6,15.3,81.6z"
			/>
	</g>
</g>
<ellipse transform="matrix(0.5997 -0.8002 0.8002 0.5997 -44.4609 71.3059)" cx="49" cy="80.1" rx="4" ry="5.3"/>
<g>
	<g>
		<path d="M123.6,53.3c0,3.7-3,6.7-6.6,6.7H97.9c-3.7,0-6.6-3-6.6-6.7c0-3.7,3-6.6,6.6-6.6c0.2,0,0.3,0,0.5,0
			c0.2-2.5,2.3-4.4,4.8-4.4c0.5,0,1,0.1,1.5,0.2c1-1.6,2.7-2.6,4.7-2.6c3.1,0,5.6,2.5,5.6,5.6c0,0.5-0.1,1-0.2,1.5
			c0.7-0.2,1.4-0.4,2.2-0.4C120.7,46.6,123.6,49.6,123.6,53.3z"/>
	</g>
	<g>
		<path class="st3" d="M117,60.2H97.9c-3.8,0-6.9-3.1-6.9-7c0-3.8,3.1-6.9,6.9-6.9c0.1,0,0.1,0,0.2,0c0.4-2.5,2.5-4.4,5-4.4
			c0.5,0,0.9,0.1,1.4,0.2c1.1-1.6,2.9-2.6,4.9-2.6c3.3,0,5.9,2.6,5.9,5.9c0,0.4,0,0.7-0.1,1.1c0.6-0.2,1.2-0.2,1.8-0.2
			c3.8,0,6.9,3.1,6.9,6.9C123.9,57.1,120.8,60.2,117,60.2z M97.9,46.9c-3.5,0-6.3,2.8-6.3,6.3c0,3.5,2.8,6.4,6.3,6.4H117
			c3.5,0,6.3-2.9,6.3-6.4c0-3.5-2.8-6.3-6.3-6.3c-0.7,0-1.4,0.1-2.1,0.4c-0.1,0-0.2,0-0.3-0.1c-0.1-0.1-0.1-0.2-0.1-0.3
			c0.1-0.5,0.2-1,0.2-1.4c0-2.9-2.4-5.3-5.3-5.3c-1.8,0-3.5,0.9-4.5,2.5c-0.1,0.1-0.2,0.2-0.3,0.1c-0.4-0.1-0.9-0.2-1.4-0.2
			c-2.3,0-4.3,1.8-4.5,4.1c0,0.2-0.2,0.3-0.3,0.3C98.2,46.9,98.1,46.9,97.9,46.9z"/>
	</g>
</g>
<path class="st4" d="M93.1,52c-1.1-0.3-2.2-0.6-3.3-0.8c-0.2,0-0.4-0.1-0.6,0c-0.3,0.1-0.4,0.4-0.5,0.6c-0.7,1.5-1,3.1-1,4.7
	c0,0.3,0,0.6,0.2,0.9c0.2,0.2,0.4,0.3,0.7,0.3c2.4,0.5,4.9,0.8,7.4,0.9c0.5,0,1,0,1.4-0.2s0.7-0.8,0.4-1.3"/>
<ellipse cx="93.1" cy="55.3" rx="5.9" ry="5.1"/>
</svg>
