<?xml version="1.0" encoding="utf-8"?>
<!-- Generator: Adobe Illustrator 25.2.1, SVG Export Plug-In . SVG Version: 6.00 Build 0)  -->
<svg version="1.1" id="Layer_1" xmlns="http://www.w3.org/2000/svg" xmlns:xlink="http://www.w3.org/1999/xlink" x="0px" y="0px"
	 viewBox="0 0 526 69" style="enable-background:new 0 0 526 69;" xml:space="preserve">
<style type="text/css">
	.st0{fill:#FF0013;}
	.st1{display:none;}
	.st2{display:inline;fill:#C32026;}
</style>
<g id="Layer_1_1_">
	<path class="st0" d="M22,43.3c0,0,98.5,1.4,115,1.1c16.5-0.2,17.2,6.2,26.9,6.2s18.8,0,18.8,0s3.9,2.6,8.2-1.3s4.3-4.6,4.3-4.6
		s27.4,0.1,37-0.8c9.6-0.9,33.2-1.6,39.2-0.7c5.9,0.9,66.5,2,74.8,0.4s64.2-1.6,69-3.5s6.6-3.3,6.6-3.3s95.2,2,90.3,0
		c-4.9-2-80.4-7.3-137.5-8.6c-57.1-1.3,49,1.3,40.6,0s-34.2-2-55.8,2.6s-78.8-5.1-110.5-1c-24.2,3.2-30.8-1-67.7,1
		s-62.9,3.1-62.9,3.1s-15.1,0.4-22.7,0c-7.6-0.4-12.9,0-12.9,0s6,3.6-5.5,4.6c-11.5,0.9-16.3-2.9-27.1-1.7
		C39.4,38.1,22,43.3,22,43.3z"/>
</g>
<g id="Layer_2_1_" class="st1">
	<rect class="st2" width="526" height="69"/>
</g>
</svg>
