<?xml version="1.0" encoding="utf-8"?>
<!-- Generator: Adobe Illustrator 25.2.1, SVG Export Plug-In . SVG Version: 6.00 Build 0)  -->
<svg version="1.1" id="Layer_1" xmlns="http://www.w3.org/2000/svg" xmlns:xlink="http://www.w3.org/1999/xlink" x="0px" y="0px"
	 viewBox="0 0 335.2 64.1" style="enable-background:new 0 0 335.2 64.1;" xml:space="preserve">
<style type="text/css">
	.st0{fill:#B01F24;}
	.st1{fill:#FFFFFF;}
</style>
<g id="casee_25_" transform="matrix( 1, 0, 0, 1, 0,0) ">
	<g transform="matrix( 1, 0, 0, 1, 0,0) ">
		<g>
			<g id="CaseMc_1_0_Layer0_0_FILL_25_">
				<path class="st0" d="M50.6,59.9l-0.1,0c1.2,0,1.8,0.1,1.7,0.3c0.6,0,0.7-0.1,0.5-0.2c-0.1-0.1,0.2-0.1,0.9-0.1l0.3,0
					c-0.2,0-0.4-0.1-0.6-0.1c-0.2-0.1-0.3-0.1-0.5-0.1c-0.4,0-0.8,0-1.2,0l-0.3,0.1C51,59.8,50.8,59.9,50.6,59.9 M48.9,60.2l0.3,0
					c-1.6-0.1-2.4,0-2.3,0.2C47.8,60.3,48.4,60.3,48.9,60.2 M44.7,56.6c0.2,0.1,0.3,0.3,0.3,0.5c0.6-0.1,1-0.1,1.2-0.2
					c-0.9-0.1-1.2-0.2-0.9-0.4c0,0,0.1-0.1,0.3-0.1c0.5-0.1,0.5-0.2,0.1-0.2c-1,0-1.3,0.1-1.2,0.2C44.5,56.4,44.6,56.5,44.7,56.6
					 M47.5,54.2c0.4,0,0.7-0.1,0.8-0.1c0.1-0.1,0-0.1-0.1-0.1C47.4,53.8,47.2,53.8,47.5,54.2 M48.7,50.6l-0.3,0
					c1.1-0.2,0.8-0.2-0.8-0.2l-0.2,0.1c0.4,0.1,0.3,0.2-0.2,0.3c-0.9,0-1.1,0.1-0.4,0.3c0.7,0,1.2,0,1.6-0.1
					C49.1,50.7,49.2,50.6,48.7,50.6 M52.9,54.4c0.2,0,0.4,0,0.6,0c2.1,0,2.5-0.1,1-0.1c-0.6-0.1-1.1-0.2-1.6-0.2l-0.3,0
					c-1.8,0-2.6,0.2-2.4,0.5C51.2,54.4,52.1,54.4,52.9,54.4 M51.9,53.2C51.9,53.1,51.9,53.1,51.9,53.2c-2.1-0.1-2.8,0-1.9,0.3
					C51,53.5,51.7,53.4,51.9,53.2 M53,51.9c0.2,0,0.3,0,0.5,0l0.6,0c-0.1-0.1-0.7-0.2-1.8-0.2l-0.5,0C52.2,51.7,52.6,51.8,53,51.9
					 M51.2,50c0.3,0,0.7,0,1.1,0l0.3,0c0.4-0.2,0.3-0.3-0.3-0.3c-0.3,0-0.4-0.1-0.5-0.1c-0.5-0.1-1.1-0.1-1.9-0.1
					c-0.2,0-0.3,0-0.5,0c-1,0-1.4,0.1-1.4,0.1c0.1,0.2,0.7,0.4,1.6,0.5C50.1,50.1,50.6,50,51.2,50 M55,51.4c0.7,0,1,0,0.7,0
					c-0.3-0.1-1.1-0.1-2.4-0.2c-1.6,0-3.1,0-4.3-0.1c-1-0.1-1.7-0.1-2.1,0c0.1-0.2-0.1-0.2-0.7-0.2c-0.5,0-0.8-0.1-0.8-0.1l0,0
					c0.1,0.1-0.3,0.2-1.3,0.1c-0.5,0.1-0.1,0.2,1.1,0.3c0.4,0,0.7,0,0.8,0.1c0.5,0.1,1,0.3,1.5,0.4c0.2,0,0.3,0.1,0.3,0.1
					c0.1,0.2,0.4,0.3,0.9,0.3c1.2,0,1.9,0,2.3,0.1c0.1,0,0.3-0.1,0.4-0.1c0.6-0.1,0.6-0.2-0.1-0.3c-0.9-0.1-1.8-0.1-2.8-0.1
					c0-0.2,0.3-0.3,0.9-0.3l0.3-0.1c-0.2,0-0.4,0-0.7,0c-0.7-0.1-0.8-0.1-0.3-0.1C50.8,51.4,52.8,51.4,55,51.4 M54.9,49.9
					c0.2,0,0.3,0,0.5,0c0.3,0,0.5,0,0.6,0c1.6,0,1.9-0.1,1-0.2l-0.3,0C56,49.7,55.4,49.8,54.9,49.9 M35.1,61.9c0.2,0,0.4,0,0.5,0
					c2-0.2,3.3-0.5,3.9-0.9l0,0C37.9,61.2,36.4,61.6,35.1,61.9 M35.3,52.7c-0.1-0.2,0.2-0.3,1.2-0.4c1.3-0.1,2.3-0.3,3-0.6
					c-2.3,0.2-4.5,0.5-6.5,0.7c-0.2,0-0.4,0-0.6,0c-0.4,0-0.7,0-0.9,0l0,0.3c0.2,0.1,0.3,0.1,0.4,0c0,0,0-0.1,0.1-0.1
					c1.1-0.1,1.8,0,2.3,0.3c0.3-0.1,0.7-0.2,1.3-0.3L35.3,52.7 M39.6,50.7c0.1,0,0.2-0.1,0.2-0.2c-0.1-0.1,0.1-0.1,0.7-0.1l0.5,0
					c0-0.1-0.2-0.1-0.5-0.2l-0.3,0C39.1,50.3,38.9,50.5,39.6,50.7 M41.4,51.4l0.2-0.1c-1.9,0-2.4,0.2-1.5,0.4
					C40.7,51.7,41.1,51.6,41.4,51.4 M41.5,51.1c0.2,0,0.3,0,0.4,0l0.3-0.1c-0.4-0.2-0.7-0.3-1.1-0.4l-0.1-0.1
					C40.3,50.8,40.4,50.9,41.5,51.1 M34.4,48.4c1.6,0,2-0.1,1.2-0.2l-0.3-0.1c-0.5,0-1.1,0-1.6,0.1C33.3,48.2,33.5,48.3,34.4,48.4
					 M34.1,47.5c0.3,0,0.7,0,1.1,0l0.2,0c-0.7-0.2-1.3-0.2-1.8,0.1C33.7,47.5,33.9,47.5,34.1,47.5 M30.8,48.7c1,0,1.3,0,1-0.1
					c-0.4-0.2-0.1-0.3,0.7-0.4l0.1-0.1c0.3-0.1,0.2-0.2-0.3-0.2c-0.2,0-0.4,0-0.5,0c-0.3,0-0.4,0-0.4,0.1
					C31.5,48.4,31.3,48.6,30.8,48.7 M32,46.5l-0.5,0c0.1,0.1,0.5,0.2,1.2,0.4c0.2,0,0.3,0,0.3,0c0.7-0.1,1.5,0,2.4,0.1
					c1.1,0,0.9-0.1-0.7-0.2C33.9,46.6,32.9,46.6,32,46.5 M32.3,44.5c0.3,0,0.6,0,0.6-0.1c0.5-0.3,0.2-0.4-0.7-0.3
					C31.2,44.3,31.2,44.4,32.3,44.5 M35.4,44.1c0.5-0.1,1-0.1,1.4-0.2l0.3-0.1C36,43.7,35.4,43.8,35.4,44.1 M36.9,44l-0.2,0
					c0.4,0.1,0.9,0.2,1.4,0.2c1.1,0,1.8-0.1,2.1-0.2c0.1,0,0.2,0,0.1-0.1c-0.4-0.2-0.8-0.2-1.3,0C38.9,44.1,38.2,44.1,36.9,44
					 M35.9,44.9c0,0-0.1-0.1-0.3-0.1c-1,0-1.7,0-2,0c-0.2-0.1-0.2-0.1-0.1-0.1c0.2,0,0.4-0.1,0.5-0.1c0.7-0.2,0.6-0.2-0.3-0.1
					c-0.3,0-0.5,0.1-0.6,0.1c-0.4,0-0.5,0.2-0.3,0.3c0.2,0.1,0.6,0.2,1.3,0.3c0.2,0,0.4,0,0.5,0C35.9,45.1,36.3,45,35.9,44.9
					 M42,40.9c0.8,0.1,1.1,0,1-0.2c0-0.1-0.1-0.1-0.2-0.1C41.2,40.5,40.9,40.6,42,40.9 M38.1,42.6c0.3,0,0.6,0,0.8-0.1l0-0.1
					c-0.2-0.6-0.9-0.8-2-0.4l-0.3,0.1C37.7,42.1,38.1,42.2,38.1,42.6 M52.2,46.8L52.2,46.8c-0.4-0.1-1.2-0.1-2.2,0
					c-0.6,0.1-0.4,0.1,0.5,0.2C51.7,47.1,52.3,47,52.2,46.8 M47.7,48.6c-0.1-0.1-0.2-0.1-0.4-0.1c-1.3,0-1.6,0.1-0.9,0.3
					C47.7,48.8,48.1,48.8,47.7,48.6 M44.2,47.3l0.2-0.1c-0.5-0.1-1-0.2-1.4-0.3c0.1,0.2-0.6,0.2-2.1,0.2c-1.3,0-2.3,0-3-0.1l-0.3,0
					c0.5,0.1,1.5,0.3,2.8,0.4c0.2,0,0.3,0,0.4,0.1l-0.1,0c-1.1-0.1-1.6,0-1.7,0.3c1.2-0.1,2.2-0.1,3.2-0.1l0.3,0
					c0-0.1,0.7-0.1,1.9,0C43.8,47.5,43.7,47.4,44.2,47.3 M46.9,47.4l-0.6,0c0.5,0.1,0.9,0.2,1.4,0.4l0.1,0c-0.4,0.1,0.3,0.2,2,0.2
					c1.5,0,2.6,0.1,3.3,0.3c0.2,0,0.4,0,0.5,0c0.2,0,0.4,0,0.6,0c0.6-0.1,0.8-0.1,0.7-0.2c-0.2-0.2-0.9-0.2-2-0.2
					c-0.3,0-0.7,0-1.1,0c-1.1,0.1-1.6,0-1.4-0.3c0,0,0-0.1,0.1-0.1c0.3-0.1-0.4-0.2-2-0.3l-0.6,0C47.8,47.3,47.5,47.4,46.9,47.4
					 M26.9,48.3l-0.2,0c0.4,0.1,0.8,0.1,1.4,0.2c0.4,0,0.7,0,0.8-0.1C28.3,48.3,27.6,48.3,26.9,48.3 M25.3,44.4c0.2,0,0.3,0,0.5,0
					c0.3,0,0.6,0,0.7-0.1c0.5-0.2,0.4-0.2-0.3-0.2c-0.3,0-0.5,0-0.7-0.1C25.8,44.2,25.7,44.3,25.3,44.4 M29.7,46.1
					c-1.1,0.1-1,0.2,0.1,0.4c0.9,0,1.3-0.1,1.2-0.1c-0.1-0.1-0.2-0.1-0.4-0.1c-0.2,0-0.4-0.1-0.7-0.1L29.7,46.1 M22.9,48.7l-0.1,0
					l0.3,0.2c0.5-0.1,0.9-0.1,1.3-0.1c0,0,0.1,0,0.1,0C25,48.7,24.5,48.7,22.9,48.7 M20.3,45L19.7,45c0.2,0,0.5,0,1,0.2
					C23,45.1,22.8,45,20.3,45 M22.3,45.2c-0.4,0.1-0.2,0.2,0.8,0.3c0.2,0,0.4,0,0.6-0.1c0.1,0,0.3,0,0.5,0c1.3-0.1,1.3-0.1-0.1-0.1
					l-0.3,0C23,45.2,22.5,45.2,22.3,45.2 M21.3,46.4c0.3,0,0.8-0.1,1.4-0.1c0.6-0.1,1.3-0.1,2.2,0c1.3,0.1,2,0.1,2.1-0.2
					c-2.3,0.1-3.7,0-4.1-0.2l-0.8,0c-0.2-0.2-0.5-0.3-0.9-0.4c-0.2,0-0.3-0.1-0.4-0.1c-1.4-0.1-1.7,0-0.8,0c0,0,0,0,0.1,0
					c0.1,0,0.2,0.1,0.3,0.1c0.1,0.1,0.1,0.1,0,0.1c-1,0.1-1.6,0-1.8-0.1l-0.3,0c-0.8,0.1-0.8,0.2,0,0.3c0.6,0.1,1.1,0.2,1.7,0.3
					l0.3,0C20.9,46.2,21.3,46.2,21.3,46.4 M29.9,42.7c0,0,0.1,0,0.1,0c0.2,0.2,0.4,0.3,0.7,0.4c0.2,0,0.3-0.1,0.3-0.2
					c0-0.1,0.1-0.2,0.1-0.3c0.1,0,0.2,0,0.3,0c0.4,0,0.8,0,1.1,0c0.6,0,1.2,0.1,1.6,0.2c-0.1,0-0.2,0-0.2,0.1
					c-0.3-0.1-0.6-0.1-1-0.2l-0.3-0.1c0.3,0.3,0.5,0.7,0.5,1.3c0.2,0,0.3,0,0.3-0.1c0.1-0.1,0.3-0.2,0.4-0.3
					c0.1-0.1,0.1-0.1,0.2-0.2c0,0,0.1,0,0.1,0c0.4,0,0.7-0.1,0.8-0.1c0,0,0.1,0,0.1,0c0.6,0,0.9,0,0.8-0.1l0,0
					c0.6-0.1,0.4-0.2-0.3-0.2l-0.3,0c0,0-0.1,0.1-0.1,0.1c0-0.1-0.1-0.1-0.3-0.2l-0.1,0c0.2-0.2,0-0.3-0.7-0.4
					c-0.6,0-1.2-0.1-1.9-0.1c-0.7-0.2-1.2-0.1-1.4,0.1c-0.2-0.1-0.5-0.1-0.8-0.1c-0.1,0-0.2,0-0.2,0.1c0,0,0,0.1,0.1,0.1
					C29.3,42.6,29.4,42.6,29.9,42.7 M25.3,43.1c0,0.1,0.2,0.2,0.3,0.2l0.3,0c1.9,0,2.5,0,1.6,0.1c-0.7-0.1-1-0.1-0.9,0
					c0.1,0.3-0.2,0.3-0.8,0.2c-0.2,0-0.4-0.1-0.5-0.1c-0.6-0.2-1-0.2-1.3,0.1c-0.1,0-0.1,0.1,0,0c0.6,0,1.3,0.1,2,0.1
					c0.2,0,0.3,0,0.4,0c0.6-0.1,1.1,0,1.4,0.3c1.8-0.1,2-0.2,0.5-0.4c-0.8-0.1-0.9-0.2-0.2-0.2c0.3,0,0.4,0,0.5,0
					c0.1,0.1,0.5,0.2,1,0.2c1.4,0.1,1.5,0.2,0.3,0.2c0.6,0.1,1,0.1,1.4-0.1c0.1,0,0.2-0.1,0.4-0.1c0.1-0.1,0.1-0.1,0.2-0.1
					c0.3-0.1,0.1-0.2-0.7-0.2c-0.4,0-0.7,0-1,0c-0.5,0-0.4-0.1,0.3-0.2c-0.2-0.2-0.5-0.3-1.1-0.4l-0.3,0c-0.2,0-0.3,0.1-0.5,0.1
					C27.5,43.1,26.3,43.2,25.3,43.1 M27.4,38.4c0,0.1,0.1,0.2,0.1,0.2c0.3,0,0.7-0.1,1-0.1l0.2-0.1c-0.2-0.1-0.3-0.2-0.5-0.3
					C28,38.3,27.7,38.3,27.4,38.4 M45.2,34.6c0.4,0,0.6,0,0.6-0.1c0.2-0.4,0.5-0.5,1-0.2l0.3,0.1c0.1-0.1,0.3-0.2,0.5-0.3l0.2-0.1
					C46.7,33.5,45.8,33.7,45.2,34.6 M47.7,32.3c0.4,0.2,0.9,0.3,1.4,0.4c0.6-0.1,0.8-0.3,0.6-0.6c0-0.1,0-0.1,0.1-0.1
					c0.8,0.2,1.1,0,0.9-0.5c0,0,0,0-0.1,0c-1,0.2-1.9,0.4-2.7,0.7C47.8,32.2,47.7,32.2,47.7,32.3 M49.5,30.3
					c-0.6-0.1-1.2-0.1-1.9-0.1l0.5,0.4c0.3-0.1,0.6-0.1,1-0.2L49.5,30.3 M53.5,25.9c1.4,0,1.9-0.1,1.3-0.3c-0.2,0-0.3-0.1-0.4-0.1
					C52.7,25.4,52.4,25.6,53.5,25.9 M41.5,34.5c1.1-0.2,1.5-0.5,1.1-0.7c-0.1-0.1-0.2-0.1-0.1-0.1c1.7-0.2,2.3-0.5,1.8-0.9
					c-0.9,0.4-1.8,0.8-2.7,1.1C41.6,34.1,41.6,34.3,41.5,34.5 M40.6,23.7c-0.7,0.1-1.2,0.3-1.4,0.7l0.3,0.1c1.2,0.1,1.6-0.1,1.3-0.6
					L40.6,23.7 M52.6,24.2c0.7,0,1.4,0,2.1,0l0.5,0c-0.3-0.3-0.2-0.6,0.3-0.9c-0.4-0.2-0.9-0.3-1.6-0.3c-0.3,0-0.6,0-0.6,0.1
					c-0.1,0.1-0.1,0.2,0,0.3l0.2,0.1C52.5,23.4,52.2,23.6,52.6,24.2 M46.6,22.9c-1.2-0.4-1.6-0.1-1.2,0.7
					C46.1,23.5,46.5,23.3,46.6,22.9L46.6,22.9 M44.2,14.3c0.6-0.4,0.3-0.5-1-0.3c-0.3,0.1-0.5,0.2-0.8,0.2c-1.2,0.1-2.2,0.4-2.9,0.7
					L39.4,15c-0.4-0.2-1.2-0.2-2.5-0.2c-1.4,0.1-2.3,0.3-2.6,0.5c0.5-0.1,1.4-0.1,2.7,0l0.3,0c0.5-0.1,1.3-0.1,2.4,0
					c0.3,0,0.6-0.1,0.9-0.1c0.4,0,1-0.1,1.7-0.1c1.4,0,2.3-0.1,2.7-0.3l0.1-0.1C44.7,14.6,44.4,14.4,44.2,14.3 M23.7,9.9
					c-1.9,0.1-2.1,0.3-0.9,0.5c2,0,3.4-0.1,4.3-0.3c0.1,0,0.3,0,0.5,0c1.5-0.3,1.1-0.4-1.2-0.3C25.5,9.8,24.6,9.8,23.7,9.9 M2.3,4.4
					C2.1,4.4,2,4.5,2,4.5c0.4,0.1,0.9,0.1,1.4,0.3c0.3,0,0.5,0,0.6,0C4.3,4.5,3.7,4.4,2.3,4.4 M0.5,0.6C1.1,0.4,1.2,0.3,0.7,0
					c0,0-0.1,0-0.1,0C-0.2,0.1-0.2,0.3,0.5,0.6 M118.2,61.2c2.2,0,3.8-0.1,4.7-0.2l0.5,0C120.8,61,119,61,118.2,61.2 M139.7,61.4
					c3.2-0.1,4.9-0.3,5.1-0.6l0,0C140.9,60.8,139.2,61,139.7,61.4 M66.1,64.1c1.5-0.1,2.5-0.3,2.8-0.5c0.1-0.1,0.2-0.2,0.3-0.2
					c1.2-0.1,1.3-0.2,0.2-0.4l-0.1,0C68.2,63.4,67.1,63.8,66.1,64.1 M103.5,61.8c0.9,0,1.4,0,1.5,0c0.9-0.2-0.4-0.3-4-0.2l-0.7,0
					C101.1,61.7,102.2,61.8,103.5,61.8 M99,56.5c-1.2,0.1-0.4,0.3,2.5,0.5c1.5,0,2.5-0.1,3-0.2c0.1,0,0.1-0.1,0.1-0.1
					c-0.4-0.1-0.9-0.1-1.5-0.1C101.2,56.4,99.8,56.4,99,56.5 M100.5,57.6c-4.5,0-4.9,0.1-1.2,0.1c4.7,0,7.4,0.1,8.2,0.4
					c3,0,5.2-0.1,6.6-0.3c-2.8-0.1-5.5-0.1-8-0.2C105.2,57.6,103.4,57.6,100.5,57.6 M97.7,50.9c2.9,0,4.4-0.1,4.7-0.1
					c0.2-0.1-0.9-0.2-3.1-0.1C98.5,50.7,98,50.7,97.7,50.9 M105.3,51.4l-0.8,0c-3.2,0.1-3.1,0.2,0.3,0.3
					C106.3,51.6,106.5,51.5,105.3,51.4 M87,60.3c-0.5,0-1,0-1.5,0.1c-1.6,0-3,0-4.3,0.1l0,0.2c0.5-0.1,1-0.1,1.4-0.1
					c0.4,0,0.8,0,1.2,0l0.1-0.1c0.3,0,0.5,0,0.8,0c0.6-0.1,1.2-0.1,1.9,0c2,0.1,3.9,0,5.6-0.2C91,60.3,89.3,60.3,87,60.3 M86,50.9
					c-0.7-0.1-1.5,0-2.5,0.1c-0.3,0-0.6,0.1-1,0.1c-1.1,0.1-0.4,0.3,2.1,0.4l0.5,0c-1.3-0.2-0.6-0.3,1.9-0.4l0.7,0
					C87.3,51.1,86.7,51,86,50.9 M96.4,53.3c-4.2-0.1-5.2,0-3,0.4c3.3,0,4.4-0.1,3.4-0.3L96.4,53.3 M91.5,51.9c0.4,0,0.6,0,0.6,0
					c-0.1-0.2-1.2-0.3-3.3-0.2l-0.6,0.1C89,51.8,90.1,51.9,91.5,51.9 M81.1,57.3l0.5,0c-0.6-0.2-1.5-0.3-2.8-0.2l-0.5,0
					c0.7,0,1.1,0.1,1.3,0.4l0.5,0c-0.2-0.1-0.3-0.1-0.2-0.1c0.1,0,0.3,0,0.4,0l0.1,0C80.5,57.4,80.8,57.4,81.1,57.3 M81.6,57.4
					L81.6,57.4c-0.3,0-0.5,0-0.7,0c1.3,0,2.4,0.1,3.4,0.2c1.4,0,2.7,0,3.9,0l0.8,0C87.2,57.4,84.7,57.4,81.6,57.4 M74,57
					c1.5,0,1.8-0.1,1-0.2c-0.2,0-0.4,0-0.6,0C72.7,56.8,72.6,56.9,74,57 M70.6,55.4l0.5,0c0-0.1-0.1-0.1-0.4-0.2
					c-0.1,0-0.2-0.1-0.3-0.1c-1.6-0.1-1.7,0-0.2,0.3C70.3,55.4,70.4,55.4,70.6,55.4 M71.1,51.4c1.2,0,1.6-0.1,1.2-0.3
					c0,0-0.1,0-0.3,0C70.6,51.1,70.2,51.2,71.1,51.4 M71.5,49.5c1.4,0.1,2,0,1.7-0.3c0-0.1-0.4-0.2-0.9-0.1
					C70.8,49.2,70.5,49.3,71.5,49.5 M75.2,49.6l0.3-0.1c-1.6,0-2.9,0.1-3.9,0.2C72.9,49.7,74.2,49.7,75.2,49.6 M83.3,53.3l-0.6,0
					c0.4,0.2-0.4,0.4-2.4,0.6c2.9,0,4.7,0,5.5-0.1l0.5,0c-1.1-0.1-1.7-0.1-2-0.2C84.1,53.4,83.8,53.3,83.3,53.3 M68.9,60.7
					c0.4,0,0.7-0.1,0.9-0.1c0.2,0,0.3,0,0.4-0.1c0.3,0,0.8-0.1,1.4-0.1l0.5,0c-0.2-0.2-0.7-0.3-1.3-0.4c-0.1,0-0.3,0-0.5,0
					c-1.6,0-1.9,0-1,0c1.7,0.1,1.9,0.2,0.5,0.3c-0.3,0.1-0.5,0.1-0.6,0.1C68.6,60.5,68.5,60.6,68.9,60.7 M57.8,61
					c1,0.1,1.6,0,1.7-0.1c-0.8-0.1-1.6-0.1-2.4-0.2c-0.3,0-0.5,0-0.6,0c-0.4,0.1-0.3,0.2,0.2,0.2C57.6,60.8,57.9,60.8,57.8,61
					 M57.7,55.9C57.8,55.8,57.9,55.8,57.7,55.9c-0.6-0.1-1.1,0-1.4,0L56,56c-0.6-0.1-1.4-0.2-2.5-0.2c0.3,0.1,0.5,0.2,0.6,0.3
					C56,56.2,57.2,56.1,57.7,55.9 M57.5,55c1.3,0,2.2-0.1,2.5-0.1c0.2-0.1,0.2-0.1,0.1-0.1C58.6,54.7,57.8,54.8,57.5,55 M57.3,50.5
					c1.8,0,2-0.1,0.6-0.1l-0.3,0c0.5-0.3-0.2-0.3-2-0.3l-0.6,0C55.5,50.3,56.3,50.4,57.3,50.5 M60.8,51.1c-0.6,0.2-0.4,0.3,0.7,0.5
					c0.2,0,0.3-0.1,0.5-0.1c0.2,0,0.3,0,0.3,0c1-0.1,0.8-0.2-0.5-0.3c-0.3,0-0.6,0-0.8,0L60.8,51.1 M67.1,52.2
					c1.3,0,1.5-0.1,0.7-0.2l-0.3,0C66.4,51.9,66.3,52,67.1,52.2 M69.8,52l-0.3,0c0.5,0.1,1.3,0.1,2.4,0.1c0.9-0.1,1.9-0.2,3.1-0.2
					c0.3,0,0.5-0.1,0.6-0.1c0-0.1,0.4-0.2,1-0.2c0.3,0,0.7,0,1,0l0.1,0.1c2.6,0.1,3.3,0.3,2,0.6c0.5,0,0.9-0.1,1.4-0.1
					c5.6-0.1,6.4-0.2,2.4-0.5c-1,0-2.1-0.1-3.2-0.2l-0.1-0.1c-0.7-0.1-1.1,0-1.4,0.1c0,0-0.1,0-0.1,0c-0.3,0-0.6,0-0.8-0.1
					c-0.1,0-0.2,0-0.3,0c-0.1,0-0.3,0-0.4,0c-0.5-0.1-1.5-0.1-2.9,0c-1.3,0-2.7,0.1-4.1,0.1c-0.8,0.1-0.6,0.1,0.6,0.1
					c1.7-0.1,2.2,0,1.6,0.1c-0.5,0-1,0.1-1.6,0.2C70.5,52,70.1,52,69.8,52 M70.2,53.8c-0.9-0.2-1.3-0.1-1.2,0.3
					c1.3,0.1,1.8,0,1.6-0.2C70.5,53.9,70.3,53.8,70.2,53.8 M65.8,52.1L65.8,52.1c-0.8-0.2-2-0.2-3.6-0.2c-0.7,0-1.3,0-1.6,0.2
					l-0.2,0.1c-1-0.2-2.1-0.2-3.2-0.1c-0.6,0.1-0.5,0.1,0.3,0.1c3.1,0,4.9,0.2,5.6,0.6C64.7,52.7,65.6,52.4,65.8,52.1 M63.9,54.6
					L63.9,54.6c-1,0-1.5,0.2-1.5,0.5C63.8,55,64.3,54.9,63.9,54.6 M59.5,47.6c-0.6-0.2-1.2-0.3-1.8-0.1l-0.3,0.1
					c0.6,0,1,0.1,1.4,0.2c0.8,0.2,1.1,0.3,0.8,0.4c0.8,0,1.2-0.1,1.2-0.2c0.1-0.3,0.4-0.3,0.9-0.2l0.2,0l0.3-0.1
					c0.9,0,1.4,0,1.4-0.1c0-0.2-0.1-0.2-0.4-0.1c-0.2-0.1-0.4-0.1-0.6,0c-0.2,0-0.3,0-0.5,0c-1,0-1.6,0-1.7,0.1
					C60.1,47.8,59.8,47.7,59.5,47.6 M59.2,48.5c0.2,0,0.3,0,0.3,0c0.1,0,0.1-0.1,0.2-0.1c0.7,0,1-0.1,0.8-0.2c-0.1,0-0.2,0-0.5,0
					C58.4,48.2,58.1,48.2,59.2,48.5 M71.9,48.5L71.9,48.5c0.4-0.1,0.2-0.2-0.3-0.2c-0.2,0-0.4,0-0.6,0l-0.5,0.1
					c0.6,0.1,0.6,0.2,0.2,0.4C72.1,48.7,72.5,48.7,71.9,48.5 M58.5,15.5c-0.3-0.1-0.7-0.1-1.4-0.1c-1.1,0.1-1.6,0.4-1.6,0.8
					c0,0.3,0.4,0.5,1.3,0.6c1-0.1,1.9-0.3,2.6-0.4c0.1,0,0.2-0.1,0.3-0.1c0.8,0.1,0.8,0,0.1-0.3c-0.1-0.2-0.3-0.4-0.9-0.4
					C58.7,15.5,58.6,15.5,58.5,15.5 M67.5,14.6c0.1,0,0.3,0,0.4,0l-0.2-0.4C66.6,14.1,66.6,14.3,67.5,14.6 M78.2,16
					c0.4,0,0.7,0,0.8,0c0.3-0.1,0.6-0.1,1-0.2c0.5,0,1.2,0,2,0c1.2,0,0.8-0.1-1.3-0.3l-0.7-0.1c-1.5,0.2-2.6,0.2-3.6,0.2
					C77.3,15.7,77.9,15.8,78.2,16 M101.9,14.7c1.9-0.1,3-0.2,3.2-0.4c0-0.1-0.3-0.1-0.8-0.1C100.7,14.2,99.9,14.4,101.9,14.7
					 M128.2,58.2c0.2,0,0.3,0,0.5,0c2.5-0.2,4-0.1,4.6,0.2c0.9,0,1.7,0,2.5-0.1c0.5,0,1,0,1.6-0.1c1.6-0.1,1.4-0.2-0.7-0.3
					c-1,0-2.2,0-3.4,0C129.3,58,127.6,58.1,128.2,58.2 M117.7,53.5c0.9,0,1.4,0,1.6,0c1-0.2,3.1-0.3,6.2-0.4c1.8,0,1.3,0-1.4-0.1
					c-0.3,0-0.7,0.1-1.2,0l-0.7,0C120.6,53.1,119,53.3,117.7,53.5 M114.7,52.7c-1.9,0-3.3,0.1-4,0.1c-2.2,0.1-2.5,0.2-0.8,0.3
					c2.2,0.1,1.6,0.2-1.6,0.1l-0.7,0c0-0.2-0.6-0.2-2-0.2c-0.6,0-0.8,0-0.8,0.1c-0.3,0.3-1.9,0.4-4.6,0.5c3.4,0,5.7,0,6.9-0.1
					c0.4,0,0.9-0.1,1.4-0.1c0.7-0.1,1.3-0.1,1.7-0.1c2.3-0.2,4.8-0.3,7.3-0.2c0.5,0,0.8,0,1.1,0C122.1,52.9,120.8,52.7,114.7,52.7
					 M121.2,51.9l-0.8,0c-0.6,0.1,0.1,0.2,2,0.1c3.8,0,6.6,0,8.3,0.1c2.6-0.1,4.2-0.2,4.8-0.3l0.3-0.1c-1.3,0-2.7,0-4.1,0.1l-0.5,0
					c-0.4,0-0.7,0-1,0C126.8,52,123.8,52,121.2,51.9 M117,51.9c0-0.1-0.3-0.1-0.7-0.1c-0.5,0-1-0.1-1.6-0.1c-2.1-0.1-3.8-0.1-5.2,0
					l-0.6,0.1c0.1,0.2,0.7,0.4,1.6,0.5c0.5-0.1,0.9-0.1,1.2,0c0.5,0,0.8,0,1,0C115.6,52.4,117.1,52.3,117,51.9 M140.8,10.8
					c-0.2,0-0.3,0-0.3-0.1c0-0.2-0.6-0.3-2-0.2l-0.7,0c0.5,0.2,1.2,0.5,2.2,0.7C141.4,11.1,141.7,11,140.8,10.8 M229.1,55.9
					c0.9,0,1.8,0,2.7,0c3.8,0,4.5,0,2.2-0.1C231.4,55.6,229.8,55.7,229.1,55.9 M166.5,60.6c0.3,0,0.7,0,1,0l0.8,0
					c-0.6,0-1.2-0.1-1.8-0.1c-1.5,0-2.9,0-4.3,0.2C163.7,60.6,165.1,60.6,166.5,60.6 M173.8,59.4c-0.4-0.1-0.9-0.1-1.3-0.1
					c-0.9,0-1.8,0-2.8,0.1c-1.2,0-2.2,0.1-3.2,0.1c-0.7,0-1.3,0.1-1.9,0.1c-0.5,0-1,0.1-1.5,0.1c-0.8,0-1.5,0-2.1-0.1
					c-1,0-2.3,0-3.8,0.2c-1.2,0.1-2.2,0.3-3.1,0.5c-1.8,0-3.5,0-5.1,0c-3.4-0.1-7.6-0.1-12.4-0.1c0-0.1-0.1-0.1-0.3-0.1
					c-2.9-0.3-7.3-0.3-13.2-0.2c-0.9,0.1-1.1,0.2-0.6,0.3l0.3,0c2.5,0,5.8,0.1,9.9,0c2.2,0,4.4,0,6.5,0c2.2,0,4.5,0,7,0
					c3.2,0,5,0.1,5.5,0.2c5.3,0,7-0.1,5.1-0.2l-0.5-0.1c3.4-0.1,6.5-0.3,9.5-0.4c0.3,0,0.6-0.1,0.8-0.1
					C169.3,59.7,171.7,59.6,173.8,59.4 M195.1,58.5c1.7-0.1,3.4-0.3,5.3-0.5c2-0.2,1.5-0.3-1.6-0.2c-2.4,0-3.4,0.1-3,0.3
					C196,58.1,195.8,58.3,195.1,58.5 M211.4,59c-4.2,0-5.1,0.1-2.6,0.2c2.4,0,3.6-0.1,3.4-0.2C212.2,59,211.9,59,211.4,59
					 M205.5,56.2c-1.6,0.1-1.4,0.2,0.9,0.3c1.9-0.1,1.8-0.2-0.3-0.3L205.5,56.2 M187.5,55.1c-0.6,0.1-0.3,0.2,0.9,0.2
					c3.5-0.1,3.5-0.2,0.1-0.2L187.5,55.1 M179,56.1c0.9,0,1.4-0.1,1.5-0.1c0.1-0.1,0.4-0.2,0.8-0.3c1.6-0.3,1.3-0.5-1.1-0.5
					c-0.3,0-0.8,0-1.2,0c-4.6,0.1-5.8,0.2-3.7,0.3l0.4,0c-1.4,0.2-1,0.4,1,0.5C177.6,56.1,178.4,56.1,179,56.1 M170,54.4
					c-1.9,0.2-1.7,0.3,0.6,0.4c1.5,0,2-0.1,1.5-0.2c-0.1-0.1-0.4-0.1-0.8-0.2C170.8,54.5,170.4,54.5,170,54.4 M172,53l0.5-0.2
					c-3.4,0-4.2,0.2-2.4,0.4C172.6,53.1,173.3,53,172,53 M165.8,57.5c-0.1-0.2-0.2-0.4-0.3-0.5c0-0.1-0.1-0.3-0.3-0.4
					c-0.3-0.2-1.2-0.3-2.7-0.4c-0.2,0-0.4,0-0.6,0c-0.1-0.2-0.1-0.3,0.2-0.6c0.1,0,0.1-0.1,0,0c-1.3-0.1-2.8-0.1-4.5,0.1
					c-1.4,0.2-1.3,0.3,0.3,0.3l1.2,0.1c-0.8,0-1.1,0.1-0.8,0.2c0.1,0.1,0.5,0.1,1.1,0.2c0.3,0.1,0.6,0.2,0.9,0.2
					c0.3,0.1,0.7,0.2,1.3,0.3c1,0.2,2.2,0.4,3.5,0.6C165.6,57.5,165.8,57.5,165.8,57.5 M167.8,9.5l0.5,0c-5.3-0.1-9.1,0-11.3,0.3
					C162.2,9.8,165.8,9.7,167.8,9.5 M168.2,8.1l0.3-0.1c-2.4,0-4.1,0.1-5.2,0.4C166.2,8.3,167.8,8.3,168.2,8.1 M205.7,15.6
					c-0.4,0-0.6,0-0.5,0.1c0.3,0.2,0.5,0.4,0.7,0.6c0.5,0,0.9,0,1.2,0l0.6-0.1c-1-0.2-0.9-0.3,0.3-0.3c0.8,0,1.1-0.1,1-0.1
					C208.7,15.4,207.6,15.4,205.7,15.6 M264.7,50.5l-0.8,0c1,0.2,0.8,0.3-0.5,0.4l-0.7,0c1.2,0.1,1.9,0.2,2.2,0.4
					c2.6,0,3.3-0.1,2.1-0.3c-0.2,0-0.3-0.1-0.3-0.1C266.7,50.6,266,50.5,264.7,50.5 M251,52l-0.8,0c1,0.1,2.3,0.2,4.2,0.3
					c1.5,0,2.1-0.1,1.9-0.2c0,0-0.1,0-0.2,0C254.9,51.9,253.2,51.9,251,52 M251.3,51.4c-2.8,0-3.3,0.1-1.5,0.2
					c1.3,0.1,2.8,0.2,4.4,0.2c1.9,0,3.1,0,3.6-0.1C259.3,51.5,257.1,51.3,251.3,51.4 M245.7,50.7l-1.4,0c2,0.1,1.6,0.3-1.2,0.6
					l-0.5,0c0.6,0,0.4,0.2-0.6,0.4c2.3-0.2,4.4-0.3,6.3-0.5c0.6,0,1.2-0.1,1.9-0.1c3.2-0.1,5.2-0.4,6.1-0.6c-0.4,0-0.8,0-1.2,0
					l-0.8,0c0.2,0.1-0.4,0.1-1.8,0.1c-0.5,0-1.1,0-1.7,0l-1.2-0.1C250.8,50.7,249.5,50.7,245.7,50.7 M229.4,53.4c0.4,0,0.9,0,1.3,0
					c0.9,0,1.6,0,2.1,0c2.2-0.1,3.7-0.2,4.6-0.1c1.4,0.1,2.5,0.1,3.2,0c1.2-0.1-0.3-0.2-4.7-0.1c-1,0-1.9,0-2.8,0
					C230.9,53.2,229.6,53.3,229.4,53.4 M216.1,52c-0.5,0-1,0-1.4,0.1c-1.8,0.1-1.1,0.2,2.1,0.2c0.4,0,0.6,0,0.6-0.1
					c0,0-0.1-0.1-0.3-0.1C216.8,52.1,216.4,52,216.1,52 M218.4,53.1c0.5,0,0.9,0,1,0c1.8,0.1,2.9,0.1,3.5,0c0.1,0,0.3,0,0.5,0
					c1.6,0,2.9,0,3.6-0.1c1.1-0.2,3.1-0.3,6-0.3c4.2-0.1,5-0.2,2.5-0.3c-0.4,0-0.9,0.1-1.5,0.1c-0.7,0.1-1.8,0.1-3.3,0.1
					c-3-0.1-5.4-0.1-7.3,0c-2.2,0-4,0.1-5.5,0.2c-3.7,0.2-4.8,0.4-3.3,0.7C215.3,53.2,216.5,53.1,218.4,53.1 M219,51.8l-0.4,0
					c1.8,0.1,4.3,0.2,7.3,0.2c0.6,0,0.9,0,1.1,0.1c1.6-0.1,2.7,0,3.3,0.3c0.9,0,1.6,0,2.1-0.1l0.1,0c1.4-0.3,0.6-0.5-2.4-0.7
					c-1,0.2-2.8,0.2-5.3,0C222.7,51.5,220.7,51.5,219,51.8 M233.2,17.4c1.9,0,3-0.1,3.2-0.4l0,0C234.2,16.8,233.1,16.9,233.2,17.4
					 M227.7,13.1l-1.2,0c0.5,0.1,1.5,0.1,2.8,0.2c1.7,0,3.4,0,5.1-0.1C232,13.2,229.8,13.1,227.7,13.1 M255.4,22.6
					c1.1-0.1,0.9-0.2-0.5-0.1c-2.3,0-4,0-5.3,0c1.2,0.1,2.5,0.2,3.9,0.2C254.5,22.7,255.1,22.7,255.4,22.6 M240.9,21
					c2.4,0,3.1-0.1,2.3-0.3C241.6,20.4,240.8,20.5,240.9,21 M247.8,9.9c0.3-0.1,0.3-0.2,0-0.1c-5.3-0.2-9.6-0.1-13,0.4l-0.6,0
					c1.8,0.2,3.4,0.3,4.8,0.5c2.5,0,4,0,4.4-0.1c0.2,0,0.5-0.1,0.9-0.1C245.8,10.2,246.9,10,247.8,9.9 M253.2,16.6
					c2.3,0,3.9-0.1,4.6-0.3c1.2-0.4-0.9-0.6-6.3-0.6c-2.4,0-3.5,0-3.4-0.2l-0.8,0c-2.8,0.1-3.5,0.2-1.9,0.4c0.5,0,0.5,0.1,0.1,0.1
					c-0.4,0-0.6,0-0.6,0.1c-0.1,0.2-0.1,0.4,0.1,0.5c0.1,0.1-0.1,0.2-0.4,0.2c-2.4,0.2-3.4,0.4-3.2,0.7c1.8-0.1,3.5-0.3,5.2-0.4
					c0.5,0,0.6,0,0.5-0.1c-0.8-0.5-0.1-0.7,2.1-0.5c0.9,0,1.8,0,2.7,0C252.2,16.6,252.7,16.6,253.2,16.6 M256.6,11
					c-0.3,0-0.5,0-0.4,0.1c0.9,0.1,2,0.2,3.4,0.2c4.3,0,5.6-0.1,3.8-0.1C261.3,11.1,259,11.1,256.6,11 M256.1,56.2
					c-0.4-0.1-0.8-0.1-1.1,0c-0.3,0.2-1.1,0.3-2.3,0.4C255.8,56.7,256.9,56.6,256.1,56.2 M283.4,58.7c0.3,0,0.6,0,0.8,0
					c0.5,0,0.8,0,0.8,0c0.6-0.2,1.2-0.3,1.6-0.5C285.4,58.3,284.3,58.4,283.4,58.7 M250.9,51.3c-0.1-0.1-0.2-0.1-0.3-0.1
					c-2.3,0-2.7,0.2-1.3,0.5c0.3,0,0.6,0,0.8,0C250.4,51.5,250.7,51.4,250.9,51.3 M224.4,53.2c-0.3,0,64.3-2.4,64.2-2.4
					c-2.9,0-3.5,0.1-2,0.3C289.1,51.1,225.2,53.3,224.4,53.2 M288.3,52.8l-1.4,0c-0.3,0.1-64.2,2.6-61.9,2.6
					C228.8,55.3,293.1,52.9,288.3,52.8 M282.7,51.1c-0.2-0.1-0.7-0.2-1.5-0.1c-1.6,0.1-1.6,0.2,0,0.3
					C282.6,51.4,283.1,51.3,282.7,51.1 M271.3,50.7c4.9,0,6.3-0.1,4.1-0.3c-1-0.1-2.3-0.1-3.8-0.2c-2.3-0.1-3.2,0-2.5,0.1
					C269.7,50.5,270.4,50.6,271.3,50.7 M278.7,52.2c-0.9,0-1.6,0-2.1,0.1c-2.1,0.1-2,0.2,0.2,0.3c1.4,0,3.1,0.1,4.9,0.2
					c1.9,0,2.7,0,2.4-0.1c-0.6-0.2-0.1-0.3,1.5-0.3c-61.6,1.6-60.8-3.4,1.2-0.3c-0.6,0-1,0-1.2-0.1l-0.4-0.1
					C284.4,52.1,282.2,52.2,278.7,52.2 M223,22.7c0.1,0,0.3,0,0.4,0l0-0.4l-0.1,0c0.5-0.1,0.7-0.2,0.6-0.3c0,0-0.1,0-0.4,0
					c-1.6,0,62.9-2.2,63.9-2c-1.8,0-2.8,0.1-2.9,0.2l0,0.1C286.4,19.9,222.8,22.3,223,22.7 M277.1,20.1c-5.7-0.1-6.1,0-1.4,0.3
					c4.3,0,5.9,0,4.7-0.2c-0.5,0-0.9-0.1-1.3-0.1C278.6,20.1,277.9,20.1,277.1,20.1 M269.4,18.8c2.9-0.1,3.2-0.2,0.8-0.3
					c-0.2,0-0.3,0-0.5,0c-0.1-0.1-0.3-0.1-0.5-0.1l-0.7,0c-4.5,0.1-4.9,0.3-1.1,0.5c0.8,0,1.5-0.1,1.9-0.1
					C269.2,18.7,269.3,18.8,269.4,18.8 M273.2,21.1c0.5-0.1,0.7-0.1,0.8-0.1c0.3-0.2,0.1-0.3-0.7-0.3c0.9,0,1.7-0.1,2.5-0.1l0.7-0.1
					c-2.8-0.1-4.8,0-6,0.1l-0.2,0c0.9-0.1,0.5-0.2-1.2-0.1c-0.3,0-0.6,0-0.8,0c-0.2,0-0.4,0-0.7-0.1l0.1,0.4c0.2,0,0.4,0,0.5,0
					c0.3-0.1,0.6-0.1,0.8-0.1c0.1,0,0.2,0,0.3,0c-0.1,0-0.2,0-0.3,0c1.1,0,2.2,0,3.1-0.1C272.9,20.8,273.2,20.9,273.2,21.1
					 M269.8,12.6c1.1,0,1.8,0,1.9-0.2c0.6-0.2-0.6-0.3-3.6-0.3c-1.1,0-2.1,0-2.9,0l0.1,0.3c1.3,0,2.3,0.1,3,0.2
					C268.9,12.7,269.4,12.6,269.8,12.6 M282.7,12.8l-1.2-0.1c0.3,0.2,1.2,0.3,2.8,0.4c-1.5,0.1-3.7,0.2-6.7,0.2
					c-0.9,0-1.6-0.1-2.2-0.1c-0.8,0-1.5-0.1-2.3-0.1c-2.6-0.2-4.7-0.2-6.3,0l-0.6,0c4.8,0,8.2,0.1,10.1,0.3c3.5,0,6.7-0.1,9.7-0.2
					l-0.1-0.3C285,12.9,283.9,12.9,282.7,12.8 M280.1,10.6c0.3,0,0.5,0,0.8,0c1.6-0.1,3.7-0.1,6.2-0.1c0.3,0.2-64.1,2.5-63.7,2.3
					c0-0.1,0-0.1,0-0.1c-0.4-0.2,63.4-2.5,62.1-2.5C283.1,10.3,281.3,10.4,280.1,10.6 M279.8,11.9c0.5,0,1,0,1.5,0
					c1.7,0,3.2,0.1,4.4,0l-0.1-0.3c-2.3,0-4.3,0-5.9-0.1c-1.9-0.1-4.6-0.1-7.9,0c0,0.1,0.3,0.1,0.8,0.2l0.3,0
					C275,11.8,277.3,11.8,279.8,11.9 M226.3,10.4c-1.8,0-1.8,0.2,0.1,0.4c1.4-0.1,1.6-0.2,0.6-0.4C226.7,10.3,226.5,10.3,226.3,10.4
					 M241.9,24.1c1.4-0.3,1.2-0.4-0.8-0.5c-1.1-0.1-1.6,0-1.3,0.1C240.3,23.9,241,24,241.9,24.1 M246.4,25.8c-0.7,0-0.5,0.1,0.9,0.2
					c0.3,0,0.5-0.1,0.8-0.1c0.4,0,0.8,0,1-0.1c0.3,0,0.3,0,0.2-0.1C248.4,25.7,247.4,25.7,246.4,25.8 M251.7,22.1
					c0.4,0,0.7-0.1,0.9-0.2l0.3-0.1c-3.1,0-5.3-0.2-6.4-0.4l-0.3-0.1c-0.3,0.1-0.3,0.1,0,0.1c1.2,0.2,2,0.4,2.2,0.8
					C249.6,22.2,250.7,22.1,251.7,22.1 M237.8,25.7c0.6,0,1.1-0.1,1.5-0.1l0.4,0c-0.3-0.1-0.3-0.2,0-0.5l0.2-0.1
					c-1.4,0-2.7,0-3.8,0.2l-0.4,0.1C236.9,25.4,237.6,25.5,237.8,25.7 M233.8,24c0-0.1,0-0.1,0.1-0.2c0.4-0.2-0.2-0.2-1.7-0.1
					c0.1,0.3,0.6,0.6,1.4,0.8c2.2,0,2.8-0.1,1.9-0.2c-0.3,0-0.5,0-0.6,0C233.9,24.2,233.5,24.2,233.8,24 M238.9,22.7
					c0-0.1-0.2-0.1-0.3,0c-2.3,0.1-3.1,0.3-2.3,0.5C238.1,23.1,239,22.9,238.9,22.7 M238.2,23.8c0.3-0.3,0.2-0.5-0.3-0.5
					c-2,0.4-2.2,0.7-0.5,1l0.4,0c-1.6,0.3-0.9,0.4,2.1,0.5c0.5,0,0.9,0.1,1.1,0.1c0.2,0,0.4,0,0.7,0.1c0.4,0.2,0.9,0.4,1.5,0.6
					c0.5,0,1,0,1.5,0l0.3-0.1c-0.5-0.1-1.1-0.2-1.6-0.3c-1.4-0.2-1.6-0.5-0.5-0.7c0.8-0.2,0.6-0.2-0.7-0.2
					C239.2,24.3,237.9,24.2,238.2,23.8 M239.5,23.4c0.5-0.1,0.8-0.1,1-0.1c0.7-0.2,1.9-0.2,3.5-0.2c1.1,0,1.5-0.1,1.2-0.2
					c-0.3-0.1-1-0.1-1.9-0.1C241.5,22.9,240.3,23.1,239.5,23.4 M234.7,19.1l0.4,0.1c1.9-0.2,2.7-0.1,2.3,0.3c-0.3,0.4-1.3,0.7-2.9,1
					c2.3-0.1,4.7-0.1,7-0.2c0.3-0.1,0.5-0.1,0.7-0.1c1.2,0,1.8-0.1,1.9-0.2c0.2-0.2,1-0.3,2.6-0.3c0.3,0,0.5,0,0.4,0
					c-0.5-0.1,0.1-0.3,1.9-0.4c-0.7-0.3-1.5-0.3-2.5,0c-0.2,0.1-0.4,0.1-0.7,0.1c-2.2,0-4.3,0-6.3-0.2c-1.5-0.1-2.5-0.4-3-0.6
					c-0.8-0.5-1.6-0.6-2.5-0.2c1.6,0.2,1.4,0.4-0.6,0.5l-0.5,0C233.9,19,234.4,19,234.7,19.1 M230.6,14.7c0.5,0,0.9,0,1.2-0.1
					c0.3,0,0.6,0,0.8-0.1l0.3-0.1c-0.5-0.1-1.6-0.3-3.2-0.3c-1.1,0-1.5,0-1.2,0.1l0.1,0.1c-1.3,0.1-1.1,0.3,0.5,0.4
					C229.6,14.7,230.1,14.7,230.6,14.7 M230,7.2c-0.8,0-1.5-0.1-2.1-0.1C226.8,7,225.1,7,223,7c-3.4,0,61.1-2.2,63.8-1.9
					c1.6,0.1-62,2.7-61.1,3c0.8,0,1.1-0.1,1-0.2c0,0,0.1-0.1,0.2-0.1c1.3,0.1,2.4,0,3.3-0.1c0.3,0,0.5-0.1,0.6-0.1
					C231.1,7.4,230.9,7.2,230,7.2 M231.2,5.9c-0.9,0.1-0.6,0.3,0.9,0.5c1.2-0.1,1.2-0.2,0-0.3c-0.3,0-0.5-0.1-0.6-0.1L231.2,5.9
					 M235.8,11.1l0.3-0.1c-0.6-0.3-1.4-0.5-2.6-0.8l-0.4-0.1c-1.1,0.1-1.1,0.2,0.1,0.5C234,10.8,234.9,11,235.8,11.1 M244.8,15.2
					l0.8-0.1c-0.7-0.1-0.2-0.2,1.4-0.3c0.6,0,1.1,0,1.6,0c1,0,2.1,0,3.1,0l0.4,0c-1-0.1-2.1-0.2-3.5-0.3c-0.9,0-1.7,0-2.6-0.1
					c-0.2,0-0.4,0-0.8,0C243.1,14.8,243,15,244.8,15.2 M245.6,10.1c0.9-0.2,0.8-0.4-0.3-0.6c-0.7-0.1-1.6-0.3-2.5-0.5l-0.3-0.2
					c-0.3,0.1-0.3,0.2,0,0.2C243.3,9.4,244.4,9.8,245.6,10.1 M246.8,10.1c-0.2,0.4,0.5,0.6,2.1,0.8c0.5-0.1,1.1-0.1,1.6-0.1
					c0.9,0,1-0.1,0.3-0.3c-0.9-0.2-2.1-0.3-3.6-0.4L246.8,10.1 M303.9,42.5c0.1,0,0.1,0,0.1-0.1c0.4-0.1,0.5-0.2,0.2-0.3
					c-0.3-0.1-1.2-0.1-2.8,0c-1.2,0-1.8-0.2-1.8-0.6c-1.1-0.2-1.8-0.1-2,0.5c0,0.1-0.2,0.1-0.4,0.2c-1.8,0.3-1.5,0.3,1,0.2
					C300.7,42.3,302.6,42.4,303.9,42.5 M284.5,47.8c-0.4-0.1-0.6-0.2-0.7-0.4c-2.8,0-4,0.2-3.5,0.5C281.6,47.9,283,47.8,284.5,47.8
					 M293.7,42.2c-0.3,0-0.5,0-0.5,0c-1.1,0.2-0.9,0.4,0.7,0.7C295.8,42.6,295.7,42.3,293.7,42.2 M280.9,40.1l0-0.1
					c-1.6,0.1-2.4,0.4-2.5,0.8C280.5,40.8,281.3,40.6,280.9,40.1 M289.8,34.4L289.8,34.4c-0.2,0.2-0.4,0.6-0.7,1
					c-0.3,0.4-0.1,0.8,0.8,1c1.3-0.1,1.6-0.4,1-0.8C290.5,35.2,290.1,34.8,289.8,34.4 M300.5,35.4c0.3-0.1,0.5-0.1,0.8-0.1
					c2.1,0,2.9-0.2,2.4-0.7c-0.1-0.1-0.3-0.1-0.4-0.1c-0.9-0.1-1.7,0-2.4,0.1c-2,0.4-2.6,0.8-1.8,1.2
					C299.5,35.6,300,35.5,300.5,35.4 M274.8,53.4l1.1-0.5l-0.7,0l-0.4-0.1c0.1,0,0.2,0.1,0.3,0.1c0.3,0.1,0.2,0.2-0.5,0.3l-0.4,0.1
					C274.6,53.4,274.8,53.4,274.8,53.4 M271.8,53c-0.1,0-0.2,0-0.3,0l-19.2,0c-0.9,0.3-1.9,0.6-3.1,0.8c-0.9,0.3-1,0.5-0.2,0.6
					c0.3,0.1,0.7,0.2,1.1,0.2c1,0.2,2.5,0.4,4.4,0.5c1.6,0,2.5-0.1,2.6-0.2l0.1,0c0.2,0,0.4,0,0.6,0c0.5,0.1,1.2,0.1,2.1,0.1
					c2.4,0,3.8-0.1,4.3-0.4c0.1-0.1,0.3-0.1,0.6-0.1c0.9-0.2,2.3-0.3,4.1-0.3c2.7-0.3,3.3-0.5,1.7-0.8l1,0c0.3,0,0.7-0.1,1.1-0.1
					c-0.3-0.1-0.5-0.2-0.7-0.3l-0.1,0C272.1,53.1,272.1,53,271.8,53 M269.8,53.3c0-0.1,0.3-0.1,0.8-0.2c0.2,0,0.4,0,0.6,0
					C270.8,53.1,270.3,53.2,269.8,53.3 M259.5,36.6c-0.4,0.1-0.4,0.4,0.2,0.8c0.9-0.2,2.1-0.3,3.7-0.3c0.9,0,0.9-0.1,0.2-0.3
					C262.5,36.3,261.1,36.2,259.5,36.6 M258.8,35.1c-0.2,0.1-0.2,0.2,0.1,0.2c1.6,0.2,3,0.5,4.4,0.8c1-0.1,2-0.2,3-0.2l0.5,0
					c0.3-0.1,0.2-0.2-0.1-0.2c-0.3-0.1-0.6-0.1-0.8-0.2c-0.2-0.1-0.4-0.1-0.5-0.1c-2-0.1-3.4-0.3-4.2-0.6
					C260.7,34.7,259.9,34.8,258.8,35.1 M275.4,29.3l0.8,0c-0.6-0.1-0.3-0.2,0.9-0.3l-3.3,0C274.3,29.1,274.8,29.2,275.4,29.3
					 M274.7,22.9L274.7,22.9c-0.4-0.3-0.6-0.3-0.8-0.2c-0.2,0.2-0.4,0.3-0.6,0.4c-0.5,0.3,0,0.4,1.3,0.6
					C276.6,23.4,276.6,23.1,274.7,22.9 M273.5,25.5c0.2,0,0.5-0.1,0.8,0c0.5-0.1,0.7-0.1,0.8-0.1c0.1-0.2,0.5-0.3,1.3-0.3
					c1.3-0.1,1.6-0.1,0.9-0.1c-0.4-0.1-0.7-0.1-0.8-0.1c-1,0.1-1.9,0.2-2.6,0.2c-1.2,0.2-1.5,0.4-1,0.6
					C273,25.6,273.3,25.5,273.5,25.5 M267.2,28c0.3,0,0.3,0.1,0,0.2l-0.3,0.1c1.9,0,3.4,0.2,4.4,0.4c0.6-0.2,0-0.4-1.7-0.6
					C268.8,28.1,268,28,267.2,28 M267.4,22.1c0.3-0.1,0.5-0.1,0.8-0.1l0.3-0.1c-2.2,0-3.7,0.1-4.5,0.3
					C265.7,22.2,266.8,22.2,267.4,22.1 M268.7,21c0-0.1-0.2-0.1-0.4,0c-1.9,0-2.4,0.2-1.5,0.4C268.2,21.3,268.8,21.2,268.7,21
					 M274.1,17.8l0.3-0.2c-1.6,0-2.6,0.2-3.1,0.4C272.6,18.1,273.5,18,274.1,17.8 M277.8,16.6c-0.5,0-0.9-0.1-1.2-0.1
					c-0.9-0.1-1.2,0-1,0.4c1.1,0,2.3,0,3.4,0c0.1,0,0.3-0.1,0.6-0.2C279.2,16.7,278.6,16.7,277.8,16.6 M264.9,27.9
					c1.6,0,2.2-0.2,1.9-0.4c-0.1-0.1-0.2-0.1-0.5-0.1C264.3,27.4,263.8,27.5,264.9,27.9 M255.9,27.8L255.9,27.8
					c-0.5-0.1-1.7-0.1-3.6-0.1l-0.6,0c0.1-0.1-0.5-0.3-1.8-0.4c-1-0.1-1,0,0,0.2c-0.1,0.1-0.5,0.1-1.2,0c-0.3-0.1-0.5-0.2-0.9-0.2
					c-0.3,0-0.4,0-0.5,0c-1.1-0.4-1.6-0.6-1.5-0.8l-0.3,0c-1.5,0-2.2,0.1-2.2,0.3c-2.8,0.1-4.5,0-5.3-0.3c-0.2-0.1-0.3-0.1-0.3-0.1
					c-1.8-0.1-2.7-0.2-2.8-0.3c-0.2-0.3-0.8-0.5-1.8-0.6c-1.3-0.2-0.9-0.4,1.1-0.5c-0.2-0.2-0.9-0.3-2.2-0.2c-0.3,0-0.6,0-0.8,0
					c-1,0-2.3,0-4,0l-0.4,0c-0.5-0.1-1-0.2-1.3-0.3c-0.9-0.1-0.9-0.3,0.1-0.4c0.3-0.1,0.5-0.1,0.6-0.1c0.1-0.2,0.5-0.2,1.3-0.1
					l0.5,0c0.2-0.1,0.5-0.1,0.7-0.1c1.1-0.1,2.1-0.2,2.9-0.3c1.5-0.2,1.6-0.4,0.4-0.5c-1,0-2,0.1-3,0.1l-0.5,0
					c-0.3,0-0.5,0.1-0.8,0.1c-1.9,0.3,61-1.8,59.2-1.5c-0.6,0-1-0.1-1.3-0.3c-0.2-0.1-0.5-0.1-0.8-0.1c-0.3-0.1-0.5-0.1-0.7-0.2
					c-1.1-0.2-2.2-0.3-3.3-0.4c-0.3,0-0.5,0-0.5-0.1c-1.7,0-1.7,0.1,0.2,0.3c-0.3,0.1-0.6,0.1-1,0.2c-0.3,0-0.7,0.1-1,0.2
					c-0.2,0-0.1,0.1,0.1,0.1c0.8,0.1,1.7,0.1,2.7,0.1c2.9,0.1,4.1,0.3,3.4,0.6c-1.4-0.1-2,0.1-1.9,0.3c0,0-0.1,0-0.4,0
					c-0.5,0.1-0.9,0.1-1.4,0c-0.3,0-0.7,0-1,0c-0.3,0-0.6,0-0.8-0.1c-0.1,0-0.2,0-0.3,0c-0.3,0-0.5,0-0.8-0.1
					c-0.3-0.1-0.6-0.1-0.8-0.2c-1.2-0.1-2.1-0.1-2.7-0.1l-0.1,0c-0.3,0-0.8-0.1-1.4-0.1c-1.8-0.1-2.9-0.2-3.5-0.5l-0.8,0
					c-0.8,0.1-1.4,0.1-1.9,0.1c-0.5,0.1-0.5,0.1,0.1,0.1c0.4,0,1,0,1.6,0.1c2.2,0.1,3.7,0.3,4.6,0.5c0.6,0,1,0,1.4,0
					c0,0,0.1,0,0.1,0c0.5,0,0.9,0.1,1.2,0.1c-1.2,0-1.2,0.1-0.1,0.2l0.1,0l-0.1,0.1c0.3,0,0.4,0.1,0.4,0.1c0.4,0.2,1.4,0.3,3.1,0.2
					c0.9,0,1.7,0,2.5,0c0.6,0,0.9,0.1,1,0.2c2.2,0,3,0,2.3-0.2c1.3,0.1-62.4,2.5-61.4,2.6c0.3,0.1,0.6,0.1,0.8,0.1
					c0.3,0,0.5,0.1,0.6,0.1c0.8,0.2,1.8,0.3,3.1,0.4c0.5,0,0.9,0.1,1.2,0.1c1.5,0.3,1.4,0.4-0.4,0.5c0.2,0.1-0.3,0.1-1.4,0l-0.5,0
					c-0.3,0-0.4,0-0.5,0c-1.3,0.1-2.2,0.1-2.5,0.1l0-0.1c0.1,0,0.2,0,0.3,0c1.2-0.2,1.5-0.4,0.6-0.5c-0.3,0-0.6,0-0.8-0.1
					c-0.1,0-0.2,0-0.3,0l-0.1-0.4c-0.4,0-0.9,0-1.3-0.1c1.5,0.1,65.6-2.1,63.1-2.1c-2.6,0-4.6,0-6-0.1c-2.9-0.3-5.8-0.3-8.9-0.2
					c0-0.1,0-0.1,0-0.2c0-0.1-0.3-0.1-0.8-0.2c-0.5,0-0.8,0-0.9,0c-0.9,0.3-3.6,0.3-7.8,0.2c-0.9,0-1.6,0-2,0
					c-0.7,0.1-2.2,0.1-4.5,0c-0.6,0-1.1,0-1.4,0.1c-1.8,0-4.1-0.1-6.9-0.2c0-0.1,0.2-0.1,0.4-0.2l0.3-0.1c-2.5-0.2-2.4-0.3,0.4-0.5
					c0.6,0,0.8,0,0.6,0c-0.9-0.2-2.4-0.3-4.6-0.1c-2.7-0.2-3.4-0.3-2.1-0.5l0.6-0.1c-1.5,0.1-2.6,0-3.2-0.1
					c-1.9-0.3-2.3-0.7-1.1-1.1c0.8,0,1.6,0,2.5-0.1c0.6,0,1,0,1.4,0c3.5,0.1,6.4,0.2,8.7,0.4c0.6,0.1,1.1,0.1,1.4,0.1
					c0.9,0.2,2.6,0.4,4.9,0.4c0.6,0,1,0,1.2,0.1c1.6,0.3,4.9,0.5,9.9,0.4c-2.4-0.1-4.5-0.3-6.2-0.5c-0.6-0.1-1.1-0.1-1.5-0.2
					c-2.9-0.5-1-0.7,5.9-0.7c0.5,0.1,0.9,0.1,1.2,0.1c2.2,0,2.2-0.1,0-0.1c-0.8,0-1.5-0.1-1.9-0.1c-0.5,0-0.9-0.1-1.2-0.1
					c-4.1-0.1-7.6-0.2-10.6-0.4c-3.7-0.1-8.6-0.2-14.7-0.2c0.5-0.1,0.9-0.2,1.4-0.2l0.5-0.1c-7-0.1-7.7-0.3-2.2-0.7
					c1.5-0.4,0.9-0.4-2-0.2c-0.5,0.1-0.9,0.1-1.3,0.1c-3.2,0.2-3.9,0.1-2-0.3c-1.4-0.2-2.4-0.2-3.1-0.1c-0.8,0.2-2,0.3-3.7,0.4
					c-0.4,0-0.6,0.1-0.6,0.1c-3-0.2-5.5-0.5-7.5-0.8c-2.8-0.3-2.9-0.5-0.3-0.5c0.5-0.1,1-0.1,1.5-0.1c2.3,0,3-0.1,2.1-0.3
					c-1-0.2-1.7-0.2-2.1-0.1c-2.2,0.3-5.3,0.4-9.1,0.2c-3.8-0.1-7.6-0.3-11.4-0.5c-3.1-0.1-4-0.2-2.7-0.5c-2.9,0.1-5.7,0.1-8.4,0
					c-2.8-0.2-5.8-0.3-9.1-0.4c-0.5,0-1,0-1.5,0c-2.4,0-4-0.1-4.7-0.2c-0.5-0.1-0.9-0.1-1.2-0.2c-1.4-0.1-2.9-0.1-4.5-0.1
					c-2.4-0.1-3.9-0.2-4.4-0.5c-0.8-0.3-0.6-0.6,0.4-0.8l0.6-0.1c1.1,0.1,2.9,0.1,5.3,0l1.4,0c-0.2-0.1,0.2-0.2,1.2-0.4
					c1.2-0.2,3.4-0.3,6.7-0.2c0.4,0,0.8,0,1,0c2.8,0.1,6,0.1,9.6,0.2c1.9,0,3.8,0,5.6,0.1c0,0.1,0.2,0.2,0.5,0.3l0.3,0
					c-1.1,0.1-1.8,0.3-2.1,0.5c-0.5,0.3-0.8,0.5-0.9,0.8c0.5,0,0.8,0.1,1,0c4.8-0.4,9.3-0.9,13.4-1.4c0,0,0-0.1,0.2-0.1
					c0.7,0,1.2,0,1.5,0c1.1,0.2,2.1,0.2,2.9,0l0.8,0.1c2.4,0.1,6,0.1,10.7,0.1c1.6-0.1,0.2-0.2-4.1-0.2c-7.2,0-9.1-0.2-5.7-0.6
					c0.5-0.1,1-0.2,1.5-0.2c0.8-0.1,1.7-0.2,2.8-0.2l1-0.1c0.4,0.2,1.7,0.3,4,0.3c0.5,0,1,0,1.4,0c2.4,0,4.3,0,5.6,0.1
					c3.1,0.2,7.1,0.2,11.9,0.2c0.4,0,0.7,0,0.7,0l0.6,0c1.5,0,2.5,0,3-0.1c0.2-0.1,0.3-0.1,0.1-0.1c-1.4-0.2-2.5-0.4-3.4-0.7l-0.7,0
					c1.6-0.1,1.3-0.1-0.7-0.1c-0.5,0-1,0-1.6,0.1l-1.2,0c-0.2,0.2-1,0.3-2.5,0.3c-5.9,0.1-10.8,0-14.8-0.1c-0.5,0-0.8-0.1-1-0.1
					c-0.3-0.1-0.2-0.1,0.2-0.1c0.4-0.1,0.9-0.1,1.3-0.1c1.5-0.2,3.2-0.3,4.8-0.4c1.4-0.1,2.3-0.2,2.6-0.4c0.4-0.2,1-0.4,1.8-0.5
					c0.3-0.1,0.6-0.2,1-0.2c1.7-0.2,1-0.3-2-0.3c-0.4,0-0.7,0-0.8,0.1c-0.8,0.4-2.6,0.4-5.6,0.3c-2.9-0.2-7-0.3-12.4-0.3
					c-2,0-2.1,0.1-0.3,0.1c2,0.1,3.9,0.2,5.7,0.3c0.5,0.1,0.9,0.1,1.2,0.1c2.5-0.1,4.2-0.1,4.9,0l0.7,0c0,0.2-0.4,0.3-1.3,0.4
					c-0.8,0.2-1.9,0.3-3.2,0.5c-0.5,0-0.9,0-1.2,0c-0.9-0.1-2-0.2-3.5-0.2c-4.2-0.1-8.7-0.2-13.6-0.2c-0.5,0-0.8,0-0.8-0.1
					c-0.4-0.4-1.5-0.4-3.4-0.2c0.1,0.1,0.3,0.2,0.6,0.3c0.2,0.1,0.5,0.1,1,0.1c2.4,0,4.6,0.1,6.7,0.1c3.8,0.1,7,0.2,9.5,0.4
					c1.9-0.1,2.7-0.1,2.4,0c-0.8,0.4-3.7,0.5-8.7,0.6c0.7,0,1.3,0.1,1.9,0.1c2.3,0.1,2,0.2-1,0.3c-0.8,0.1-1.4,0.1-1.9,0
					c-0.4-0.1-0.8-0.1-1.2-0.1c-3.9-0.1-5.9-0.1-6.2,0.2c-0.5,0.1-0.7,0.1-0.6,0.2c0.4,0.3-1.1,0.4-4.7,0.4
					c-4.6-0.1-8.7-0.2-12.4-0.3c-0.8,0-1.5-0.1-2-0.1c-2.4-0.1-4.9-0.2-7.5-0.1c-0.7,0.1-1.3,0.1-1.8,0c-0.4,0-0.4-0.1,0.1-0.2
					c0.6-0.1,0.3-0.2-0.8-0.4c-2.4-0.4-3.8-0.4-4,0c0,0.1-0.3,0.1-0.6,0.2c-0.5,0-0.8,0-0.9,0.1c-0.9,0.2-3,0.3-6.4,0.3
					c-0.9,0-1.7,0-2.5,0l-0.5,0c2.4,0,3.6,0,3.8,0.2l0.2,0c3.1,0.2,3.3,0.4,0.7,0.7c0.3,0.4-0.8,0.5-3.1,0.3
					c-1.8-0.1-3.6-0.2-5.3-0.3c-0.7-0.1-1.1-0.1-1.4-0.2c-2-0.3-5-0.4-9.2-0.4c0.5-0.2,1.8-0.3,3.9-0.3c5.3,0,7.1-0.1,5.3-0.3
					c-2.4,0.1-3.9,0-4.4-0.1l-0.3,0c-0.4,0-0.8,0-1,0c-3.4,0.1-6,0.2-8,0.3c-0.7,0.1-1.2,0.2-1.5,0.2c-1.4,0.2-2.5,0.3-3.4,0.2
					c-0.9,0-1.7,0-2.3,0c-0.7-0.1-1.5-0.1-2.2-0.2c-4.2-0.2-9.4-0.2-15.8-0.1c-0.4,0-0.7,0-0.8,0c-1.9,0.1-3.8,0.2-5.8,0.3
					c-0.9,0-1.7,0-2.5,0.1c-0.6,0-0.9,0-0.9,0C98,13,95.6,12.9,93.3,13c2.3,0.1,2.8,0.2,1.5,0.5c-0.4,0.1-0.5,0.2-0.3,0.2
					c0.5,0.2,2,0.4,4.4,0.4l0.8,0c-0.2-0.2,0.9-0.3,3.2-0.2l1.4-0.1c-0.4-0.1,0-0.2,1.3-0.3c0.5-0.1,0.8,0,1,0
					c3.4,0.1,6.8,0.1,10-0.1c0.7-0.1,1.3-0.1,1.9-0.2c2.5-0.2,4.4-0.1,5.8,0.1c-1.3,0-2.5,0-3.5,0.1c-1.8,0.1-2,0.2-0.5,0.2
					c4.9,0,9.9,0,14.8,0c0.5,0.1,0.9,0.2,1.3,0.3c0.5,0,2.4,0,5.6-0.1c0.9,0,1.5,0,1.9,0.1l0.8,0c1-0.1,2.4-0.1,4.2,0
					c2.1,0.1,3.4,0.2,4,0.5c-0.9,0.2-3.1,0.2-6.5,0.1c-0.6,0-1.1,0-1.6,0c-5.2-0.1-8.8-0.1-10.7-0.1c-3.8,0-6.6,0.1-8.4,0.3
					c-0.6,0-1.2,0-1.6,0c-0.4-0.1-0.9-0.1-1.4-0.2c-0.5,0-0.7-0.1-0.7,0c-0.3,0.1-1.1,0.2-2.5,0.2c-0.5,0-0.9,0-1.1,0
					c-3.3,0.2-6.6,0.1-9.7-0.1c-3.7,0-5.7,0.1-6,0.3c-0.2,0.2-1.7,0.3-4.6,0.3l-0.7,0.1c0.7,0.2,0.5,0.3-0.6,0.4c-0.4,0-0.8,0-1.2,0
					c-3.8,0.2-6.9,0.4-9.3,0.7c-0.4,0-0.9,0-1.3,0c-0.4,0-0.8,0-1,0c-1.1,0-2.5,0.1-4.1,0.1c-3.1,0.1-5.9,0.1-8.3,0
					c-1.2-0.1-2.3-0.1-3.2-0.2l-0.1-0.3c-0.9-0.2-1.4-0.4-1.6-0.7l-0.3,0c0-0.1,0-0.1,0-0.1c0.4-0.3,0.2-0.6-0.5-0.8
					c0.6-0.1,0.7-0.2,0.2-0.4l-0.6,0c-0.1,0-0.2,0-0.3,0l0.1,0.3c-0.3-0.1-0.7-0.1-1-0.1c-0.1,0.1-0.2,0.3-0.1,0.5
					c0.1,0.3,0.3,0.5,0.8,0.6c0.4,0.2,0.7,0.3,1,0.4c0.3,0.1,0.5,0.1,0.7,0.3c0.1,0.1,0.2,0.2,0.3,0.2c-0.4-0.1-0.8-0.1-1.1-0.2
					L66,17c0.1,0,0.3,0,0.4,0c0.1,0.1,0,0.2-0.3,0.3l0.1,0.2c-0.5,0.1-0.8,0-1-0.2c-0.4,0.1-0.8,0.2-1.1,0.2l-0.2,0
					c-0.2-0.1-0.6-0.1-1.3,0c-0.2,0-0.4,0-0.5,0c-1.2-0.1-2.3-0.2-3.4-0.4c-0.2,0-0.4,0-0.5,0c-1.3-0.2-2.3-0.1-2.8,0.3l0.3,0
					c0.6-0.1,1.1-0.1,1.5,0.1c0.1,0,0.3,0,0.6,0.1c1,0.1,2.2,0.2,3.7,0.2c0.2,0,0.3,0,0.4,0c0.3,0,0.5,0,0.6,0
					c0,0.2-0.2,0.4-0.5,0.6l0.1,0.1c-0.2,0-0.4,0-0.6,0c0,0-0.1,0-0.1,0c-0.2,0-0.4,0-0.6,0c-0.2,0-0.3,0-0.5,0
					c-1,0-1.2,0.2-0.4,0.5c0.3,0,0.6,0,0.9,0c0.3,0,0.4,0,0.5,0c0.1,0,0.3,0,0.4,0c0.1,0.1,0.1,0.2,0,0.4c-0.3,0.4-0.5,0.8-0.5,1.2
					c-0.1,0.4-0.3,0.7-0.4,0.8c-0.2,0-0.3,0-0.3,0L59.8,21c-1.1,0.1-1.2,0.2-0.3,0.4c0.8,0.2,1,0.6,0.8,1.2
					c-0.5,0.3-0.8,0.5-1.1,0.8c0,0.1-0.1,0.1-0.3,0.1c-0.4,0-1,0-1.7,0.1c-0.1,0-0.2,0.1-0.2,0.1c0.7,0.4,1.4,0.7,2.1,1
					c0,0.2-0.1,0.3-0.2,0.3C58.6,25,58.6,25,58.6,25c-0.7-0.6-1-0.6-1,0.1c0,0.1,0.1,0.2,0.3,0.2c1.1,0.3,1.1,0.6,0,1
					c-0.6,0.2-1.4,0.2-2.6,0.2c-0.2-0.1-0.3-0.1-0.4-0.1c-0.9,0.3-1.9,0.5-3.2,0.7c-0.2,0-0.4,0.1-0.6,0.1c-1.9,0.1-2.4,0.3-1.4,0.7
					c0.2,0,0.3,0.1,0.3,0.1c0.2,0.1,0.3,0.2,0.4,0.2c1.4,0.2,1.8,0.4,1.1,0.8c-1.1,0.5-1,0.9,0.2,1.1c-1.9-0.1-2.4,0.1-1.5,0.4
					l0.2,0.1c-0.9,0.1-1,0.2-0.2,0.3c0.2,0,0.4,0,0.5,0c0.2-0.1,0.4-0.1,0.6-0.1l0.5-0.1c0.1-0.4,0.4-0.7,0.9-0.8
					c0.2,0,0.4-0.1,0.6-0.2c0.5-0.2,1-0.3,1.5-0.4l0.3-0.1c-0.7,0.2-0.6,0.4,0.3,0.5c0.1-0.1,0.3-0.1,0.4-0.1c0.9,0,1,0.1,0.3,0.3
					l-0.3,0.1c0.8,0.1,1.3,0.1,1.4-0.2c0.1-0.1,0.2-0.1,0.4-0.1c1.6-0.2,1.9-0.5,0.8-0.9c0,0.1,0,0.2-0.1,0.3
					c-0.5,0.4-1,0.4-1.3,0.1c-0.1-0.1-0.2-0.2-0.5-0.2c-0.2-0.1-0.4-0.1-0.7-0.1c-0.4-0.1-0.7-0.2-0.9-0.4c-0.3-0.3-0.8-0.5-1.6-0.6
					c-0.3,0-0.6-0.1-0.8-0.1c-0.2-0.1-0.2-0.1,0-0.1c1.2-0.3,1.9-0.2,2,0.2c0.4,0.3,0.8,0.3,1.2,0c0.1-0.1,0.1-0.2,0.1-0.2
					c-0.1-0.3,0.1-0.4,0.7-0.3c0.2,0,0.3,0,0.3,0c-0.6,0.3-0.7,0.6-0.2,0.9c0.8,0.3,1.4,0.4,1.8,0.1l0.3-0.2c0,0.3,0.3,0.5,0.9,0.5
					c0.4,0,0.6,0,0.6,0c0.3,0.3,0.8,0.5,1.5,0.6c0.3,0.1,0.6,0.1,0.9,0.2c1.3,0.2,1.3,0.4,0.1,0.7c-0.4,0.1-0.7,0.2-1.1,0.4
					l-0.2,0.1c-0.1-0.3-0.2-0.5-0.2-0.6l0-0.1c-0.7,0.4-1.3,0.4-1.9,0c-0.3,0-0.7,0.1-1,0.2L58,30.1l0.3,0.1
					c-0.3,0.2-1.1,0.3-2.5,0.1c-0.2,0-0.4,0-0.6,0l-0.3,0.1c-0.6-0.2-0.8-0.2-0.7,0.3c-0.2,0-0.3,0.1-0.3,0.1
					c-0.2,0.1-0.1,0.2,0.1,0.2c0.2,0,0.4,0.1,0.6,0.1c0.2,0.1,0.2,0.1,0.1,0.2c-0.2,0-0.3,0.1-0.5,0.2c-0.3,0.2-0.7,0.4-1.2,0.6
					c-0.2,0-0.3,0-0.3,0.1c0.2,0.3,0,0.5-0.7,0.5c-1.1,0-1.8,0.1-2.1,0.4c0.7,0,1.1,0.1,1.3,0.3c0.1,0.1,0.1,0.2,0.1,0.2
					c-0.1,0.1-0.3,0.3-0.5,0.4c-0.1,0.1-0.2,0.2-0.4,0.3l-0.3,0.1c0.2-0.4,0-0.6-0.3-0.7l-0.1,0c-0.8-0.4-1-0.2-0.8,0.5
					c0.1,0.1,0.1,0.2-0.1,0.3c-0.4,0.2-0.6,0.5-0.6,0.8c0,0.4-0.6,0.6-2,0.6l-0.1-0.2c-0.8,0.1-1.7,0.3-2.6,0.4
					c-1.4,0.3-2.4,0.6-2.9,1.2c-0.4,0.3-0.8,0.4-1,0.2c-1.2,0.3-1.3,0.5-0.3,0.8l0.3,0.1c-0.7,0.3-0.5,0.5,0.4,0.7
					c0.3,0.2,0.1,0.3-0.4,0.3c-0.2,0-0.3,0-0.4,0c-1,0.2-1.7,0.1-2.1-0.5c-0.1-0.1-0.2-0.1-0.3,0c-1.2,0.3-1.2,0.4-0.1,0.4
					c0.5,0.6,1,0.8,1.8,0.6c0.3-0.1,0.7-0.1,1-0.2c0.2,0,0.4,0,0.6,0c0.2,0,0.3,0,0.3-0.1c-0.1-0.3,0.1-0.4,0.6-0.4
					c0.2,0,0.4,0,0.5,0c1.3-0.1,2.3-0.1,2.8,0c0.7,0.2,0.9,0.2,0.8,0c0-0.1-0.1-0.1-0.1-0.1c0.7-0.4,1.3-0.3,1.9,0.3
					c-0.1,0-0.3,0.1-0.5,0.2c-0.1,0.1-0.2,0.1-0.1,0.2c0.6,0.3,0.4,0.5-0.7,0.6l-0.3,0l0.3,0.1c-0.6,0.2-1.4,0.4-2.5,0.6
					c-1.1,0.3-2,0.2-2.7-0.2c0,0.1,0,0.1-0.1,0.2c-0.1,0-0.1,0.1,0,0.1c0.4,0.2,1,0.4,1.8,0.5c0.2,0,0.3,0.1,0.3,0.1
					c-0.1,0.2-0.3,0.4-0.6,0.6c-0.2,0-0.4,0-0.8,0l-0.3,0c-0.8-0.1-1.3-0.2-1.5,0l-0.1,0.1c0.6,0,1.3,0.1,2,0.2
					c0.1,0,0.2-0.1,0.3-0.1c-0.1,0-0.3,0.1-0.4,0.2c-0.1,0-0.3,0-0.5,0l-0.5,0c0,0.1,0,0.1-0.1,0.2c0-0.1-0.2-0.1-0.3-0.1
					c-0.3,0-0.7,0-1,0c-0.6,0-1.2,0-1.9-0.1l-0.5,0c0.1,0.4,0,0.7-0.2,1c1.4,0,2.3-0.1,2.6-0.2c0.8,0,1.7,0,2.5,0.1l0.3,0
					c-0.6,0.3-0.4,0.4,0.7,0.4c0.1,0,0.2,0.1,0.3,0.1c0.3,0,0.5-0.1,0.6-0.2l0.3,0.1c0.1-0.1,0.6-0.1,1.3,0c0.2,0,0.4,0,0.6,0
					c0.3,0,0.6,0,0.7,0.1c-0.2,0-0.4,0.1-0.6,0.1c-0.2,0-0.4,0-0.5,0c-0.7,0-1.4,0-2.1,0c-0.3,0-0.6,0-0.8,0c-0.2,0.1-0.2,0.1,0,0.1
					c0.5,0.1,1,0.2,1.4,0.2c-0.1,0-0.3,0.1-0.5,0.1c-0.2,0-0.3,0.1-0.3,0.1c0,0.1-0.1,0.2-0.5,0.3l0.1-0.1l-0.3,0
					c0.4-0.1,0.4-0.2-0.1-0.2c-0.4-0.1-0.8-0.1-1.2-0.1c0.7-0.1,0.5-0.2-0.5-0.2c-0.2,0-0.3,0-0.5,0c-1.5,0.1-2.1,0.1-1.9,0.3
					c0.1,0.2,0.4,0.3,1,0.4c0.1,0,0.2-0.1,0.3-0.1c0.2,0,0.3,0.1,0.3,0.2c-0.3,0-0.6,0.1-1,0c-0.3,0-0.5,0.1-0.7,0
					c-0.8-0.1-1.2-0.1-1.3-0.1c0,0.1-0.1,0.1-0.3,0.2c-0.2,0-0.4,0-0.6,0.1c-0.6,0-1.1,0.1-1.7,0.2c-0.3,0-0.5,0-0.5,0
					c-0.4,0.3-0.2,0.4,0.6,0.2l-0.3,0l0.3-0.1c0.8-0.2,1.4-0.2,1.7,0c0.1,0.1,0.1,0.1,0.1,0.1c-0.3,0.1,0.1,0.2,1,0.3
					c0.7,0,1.3,0,1.7-0.1c0.3,0,0.4,0,0.5,0c0-0.2,0.3-0.2,0.9-0.2l0.3,0c0.4,0,1-0.1,1.8-0.1l0.3,0c-0.7,0.1-0.7,0.2-0.1,0.4
					c-0.3,0.1-0.9,0.1-1.9,0.1l0.3,0.2c0.6-0.1,1.5-0.1,2.7-0.1c2.3,0.1,2.7,0.1,1.2,0.2c-0.2,0.1-0.3,0.1-0.5,0.2l-0.3,0.1
					c0.9,0,1.6,0,2.3-0.1c0.9-0.1,1.8-0.1,2.7,0c0.6,0.1,1.3,0.1,2.2-0.1c-1.1-0.2-0.9-0.3,0.7-0.2l-0.1,0.1
					c-0.1,0.1,0.2,0.1,0.7,0.1l0.1,0c0.3,0.2,1.1,0.3,2.5,0.3c0,0.1,0,0.1-0.1,0.1c-0.1,0-0.1,0.1-0.2,0.2c-0.1,0-0.2,0.1-0.4,0.1
					c-0.2,0-0.4,0-0.6,0l-0.2,0c-0.6,0.1-0.4,0.3,0.7,0.5c0.2,0,0.3,0,0.3-0.1c0.3-0.2,0.6-0.2,1,0c0,0.1,0,0.1,0.1,0
					c0.6,0,1.3,0,2.2-0.1c0.4,0,0.6,0,0.8,0c0.7,0.1,1.4,0.1,2,0l0.5,0c-1.1,0-1.3-0.1-0.4-0.2c0.2,0,0.3-0.1,0.5-0.1
					c0.9,0.2,1.5,0.2,1.8,0c0.2,0,0.3,0.1,0.3,0.1c0,0.1,0.4,0.2,1,0.2l0.5,0c0.3,0.2,0.4,0.3,0.4,0.3L65,47.7
					c0.7-0.1,1.2-0.1,1.4,0l0.2,0l0.5,0c-0.3-0.1-0.1-0.2,0.4-0.2l0.3,0c0,0.1,0.4,0.2,1.2,0.1l-0.1,0.1c-0.5,0.2-1.1,0.2-1.7,0.1
					c-0.3,0-0.6,0.1-0.7,0.1c-0.4,0-0.3,0.1,0.2,0.1l0.3-0.1c0.2,0,0.2,0.1,0,0.1c-0.6,0.2-0.9,0.4-0.8,0.6c0,0,0.1,0.1,0.2,0.1
					c0.7,0.1,0.8,0.3,0.3,0.4c-0.7,0.1-1.8,0.2-3.1,0.1c-0.6,0-1.5,0-2.7,0.1c-0.3,0-0.7,0-1,0c-0.3,0-0.5,0-0.5,0.1
					c-0.1,0.2-0.4,0.4-0.9,0.5c-1.3,0-1.3,0.1,0.1,0.1c0.2,0.1,0.4,0.1,0.7,0.1l0.5,0c0.1,0.3,0.3,0.5,0.6,0.6
					c0.8,0.1,1.6,0.2,2.3,0.1c0.6,0,0.7-0.1,0.2-0.3l-0.1,0c0.3-0.1,0.9-0.2,1.6-0.3c0.9-0.1,2-0.2,3.2-0.3c0.9,0,1.8-0.1,2.7-0.1
					c1.9,0,1.9-0.1-0.1-0.1c-0.2,0-0.3,0-0.3,0c-0.2,0-0.3-0.1-0.5-0.1c-0.2-0.1-0.5-0.1-0.8,0c-1,0-1.2,0-0.5-0.2
					c0.1-0.1,0.2-0.1,0.1-0.1c-0.4-0.1,0-0.2,1.2-0.3c0.2,0,0.4,0,0.5,0c0.2,0,0.3,0,0.5,0c0.2,0,0.3,0,0.5,0
					c1.5-0.1,1.3-0.2-0.5-0.3c-0.2,0-0.3,0-0.2,0c0.3-0.2,0.1-0.3-0.6-0.2c-0.1,0-0.2,0-0.3,0c-1.2,0.1-1.4,0.1-0.7-0.1l0.3-0.1
					l0-0.1c0-0.1,0.6-0.2,1.7-0.2c0.4,0,0.8,0,1.2,0c1.9-0.1,2.5,0,1.6,0.2c0.2,0.1,0.7,0.1,1.6,0c0.2,0,0.3,0,0.4,0
					c0.4,0.1,0.8,0.1,1.2,0.1l0.1,0.4c-0.3,0-0.6,0-0.7,0c-0.8-0.2-1.2-0.2-1.3-0.1c0,0,0,0,0.3,0c0.7,0.1,1,0.2,0.9,0.4l0.1,0.1
					c0.8,0,1,0,0.8,0.1c-0.5,0.2,0,0.3,1.5,0.2c1.1,0,1.5-0.1,1.2-0.1c0.1,0,0.2,0,0.3,0c3.7-0.1,5,0,4,0.3l-0.2,0.1
					C81,49.8,80,49.8,80,50c-0.4-0.1-0.8-0.1-1.2,0l-0.8,0c1.9,0,2.9,0,2.8,0.1l0,0.1c0.4,0,0.9,0,1.3-0.1c0.4,0,0.7,0,1,0
					c2.2,0.3,5.7,0.3,10.5,0.2c-0.4,0-0.9,0-1.4,0c-0.4,0-0.6,0.1-0.6,0.1c0,0,0.2,0,0.4,0.1c1.1,0.2,1.3,0.3,0.6,0.4
					c-0.5,0-0.7,0-0.6,0.1c0.2,0.2,1.8,0.2,4.7,0.2c4.1,0,4.9-0.1,2.4-0.2c-1.9,0-3.4-0.1-4.6-0.3c-1.3-0.2-1.1-0.2,0.6-0.1
					c1.5,0,2.1-0.1,1.9-0.2l0-0.1c-1.3-0.1-0.6-0.1,2-0.2l0.6,0c-1.2,0.1-0.5,0.1,2.2,0.1l0.6,0c0.4,0.1,0.9,0.1,1.4,0.1
					c1,0.1,2.1,0.2,3.5,0.3c0.4-0.1,0.9-0.1,1.4-0.1c0.8-0.1,1.4-0.1,1.7-0.1c1.4-0.1,2.3-0.1,2.8,0c0,0,0.1,0.1,0.2,0.1
					c1.7,0.3,1.1,0.5-1.9,0.7c0,0-0.1-0.1-0.3-0.1c-0.7,0-1.2,0-1.4,0c-0.3,0,0,0.1,0.7,0.1c2.9,0.1,4.7,0.1,5.6-0.1l0.6-0.1
					c1.8,0,3.6,0,5.4,0l0.6,0c0,0,0.1,0,0.2,0c0.9,0.1,2,0.1,3.4,0l0.6,0c-4.6-0.2-4.6-0.3-0.1-0.3l-0.2,0c-0.7-0.2-0.4-0.3,0.8-0.2
					c0.5,0,0.9,0,1.2,0c0.6-0.1,0.9,0,1,0c2.3,0,2.6,0.2,0.7,0.3l-0.6,0.1c2.3,0.1,2.5,0.2,0.7,0.3c-1.6,0.2-0.1,0.2,4.2,0.2
					c1.4,0.1,2.8,0.1,4.3,0l1,0c0.5,0.3,1.5,0.5,2.9,0.6c0.6,0,0.8,0.1,0.6,0.2c-0.4,0.1-0.1,0.2,1.1,0.3c-2.5,0-4,0-4.3,0l-0.4,0.1
					l-0.6,0c-1.8,0.1-3.1,0-4-0.1c-1.7-0.3-3.6-0.3-5.4,0c1.9,0,2.6,0.1,2.1,0.3c-0.6,0.1,0.1,0.1,2.1,0c4.4-0.2,6.7-0.1,6.8,0.4
					c1,0.1,1.8,0.1,2.4-0.1c0.2,0,0.6-0.1,1-0.1c2.6-0.2,3.2-0.2,1.9-0.1l-0.5,0.1c1.5,0.2,0.8,0.3-2.1,0.4c-0.4,0-0.7,0-0.8,0.1
					c-0.3,0.1-0.3,0.1-0.2,0.1c2.2,0,2.9,0.1,1.8,0.2c-0.3,0.1-0.9,0.1-1.7,0.1c-5.5,0-8.5,0.1-9.1,0.4c1.6,0,3.8,0,6.4,0.1
					c0.5,0,0.8,0,0.8,0c2.7-0.2,5.1-0.2,7.3,0c-0.4,0-0.7,0-0.7,0c-0.3,0-0.3,0.1,0.2,0.1c2,0.1,3.5,0.2,4.4,0.3
					c0.3,0.1,0.2,0.1-0.3,0.2c-0.4,0-0.7,0.1-0.8,0.1c-0.2,0-0.3,0.1-0.3,0.1c-0.1,0.2-0.9,0.5-2.4,0.6c-0.2,0-0.5,0-0.7,0.1
					c1.4,0,2.6,0,3.5-0.1c0.9,0,1.6-0.1,1.9-0.2c0.3-0.1,0.4-0.1,0.2-0.2c-1-0.3,0.5-0.5,4.3-0.6c0.7-0.1,1.4-0.1,2.1-0.1
					c0.6,0,1-0.1,1-0.1c1.5-0.3,0.9-0.5-1.6-0.6c-3.5,0-3.6,0-0.2-0.1c1.6-0.1,2.3-0.1,2-0.2l-0.8,0c-0.8,0-1.6,0-2.2,0
					c-2.7-0.1-3.7,0-2.9,0.4c-1.8,0-3.2,0-4.3,0c-0.6,0-1.2,0-1.7-0.1c-0.5,0-0.5,0-0.1,0c0.5-0.1,0.9-0.1,1.4-0.1
					c0.4-0.1,0.4-0.1,0.1-0.1c-2.6-0.1-3.5-0.2-2.7-0.5c0.1-0.1,0.3-0.2,0.4-0.2c1.7,0,2.5,0,2.4-0.1c-0.3-0.2,0.6-0.2,2.7-0.1
					c3.4-0.1,4-0.3,1.7-0.6l-0.8,0c-3.7,0.1-4.6,0-2.7-0.2c1.3-0.1,2.7-0.1,4.1-0.1c2.5,0.1,3.5,0.1,3-0.1c-0.3-0.1-0.9-0.2-1.8-0.3
					c-3.6,0.4-6,0.3-7.3-0.1l0.3,0c3.6,0.1,5.9,0.1,7-0.2c0.4,0,0.6,0,0.7,0c0.4-0.1,0.6-0.1,0.8-0.1c1.8,0,2.4-0.1,2-0.2l-0.3,0
					c1.7-0.1,3.7-0.1,6,0l0.6,0c-0.2-0.1,0.1-0.2,0.8-0.2c0.3,0,0.7-0.1,1.1,0c0.4,0,0.6,0,0.6-0.1c0,0-0.1-0.1-0.2-0.1
					c-0.3,0-0.3,0,0.1-0.1c0.6-0.1,1.3-0.1,2.1-0.1c0.5,0,0.9,0,1.2,0c2.6,0,4.1,0,4.5-0.1c0.2,0,0.4,0,0.6-0.1
					c1.7,0,3.2,0.1,4.5,0.2c1.1,0.1,2.6,0.3,4.5,0.4c3.5,0.2,5.3,0.2,5.6-0.1l0-0.1c0.5,0.1,0.8,0.1,1,0.1l2.4,0
					c-2.1-0.2-2.8-0.3-2-0.3c1.7-0.2,3.3-0.2,4.7-0.1l0.7,0.1l-0.8,0c0.7,0.1,2.1,0.2,4.2,0.3c2.8,0,2.7,0.1-0.3,0.2
					c-0.6,0.1-1.2,0.1-1.9,0.1c-1.5,0.1-3.3,0.1-5.6,0.2c-0.9,0-1.5,0-1.9,0.1c-1.9,0.2-3.5,0.2-4.8,0c1.3-0.1,0.6-0.2-1.8-0.3
					c-0.7,0-1.3,0-1.7,0l-0.6,0c-1.5,0-1.4,0.1,0.2,0.3c-4.1-0.1-6.2-0.1-6.5-0.2c-0.3-0.1-0.7-0.2-1.1-0.3l-0.1,0
					c2.3,0.2,3.4,0.1,3.4,0c-1.2-0.1-3.4-0.1-6.6,0c-0.5,0-0.7,0-0.6,0c0.4,0.1,0.9,0.2,1.4,0.2l0.3,0c-1.7,0.1-2.3,0.1-1.7,0.2
					c0.9,0.1,1.2,0.3,1,0.6c1.3,0,2.6,0,3.8-0.1c0.6,0,1,0,1.4,0c3.1,0,3.6,0.1,1.6,0.2l-0.7,0.1c0.4,0,0.9,0,1.4,0.1l0.6,0
					c-2.9,0-3.3,0-1.2,0.1c0.9,0.1,1.8,0.1,2.9,0.1c2.7,0.1,4.3,0,4.7-0.1c0.2,0,0.5,0,1-0.1c0.4,0,0.9,0,1.4,0
					c0.9,0.1,1.9,0,3.2-0.2c-0.2,0.2,1.2,0.3,4.2,0.3c2.4,0,3.5-0.1,3.2-0.3l-0.1-0.1c3.8,0,5.3-0.1,4.6-0.4c0.3-0.1,1-0.1,2.2,0
					c1.4,0.2,3,0.2,4.7,0.1c0.4,0,0.6-0.1,0.6-0.1c0.1-0.2,1.2-0.3,3.1-0.3l0.8,0c2.2-0.2,5-0.2,8.6-0.1c0.5,0,0.8,0.1,1,0.1
					c2.7-0.1,4.6-0.1,5.8-0.1c0.5,0,0.9,0,1.2,0c1.9,0,2.7,0,2.3,0.1c-0.2,0-0.2,0-0.2,0.1c0.7,0.2,1.8,0.2,3.4,0c0.4,0,0.6,0,0.6,0
					c-0.3-0.3,0.3-0.5,1.8-0.6l0.7,0c-2.6,0-3.1-0.1-1.5-0.2l0.1,0c0.9-0.1,0.7-0.2-0.8-0.2c-2.9,0-3.4,0-1.4,0.1
					c-0.9,0.1-2.2,0.1-4.1,0.1l-1.2,0c0-0.2,1-0.3,3.2-0.4l0.1,0c1.1-0.2,0.3-0.3-2.3-0.3c-0.6-0.1-0.2-0.2,1.2-0.1
					c1,0,1.4,0,1.5-0.1c1-0.2,2.5-0.3,4.6-0.2l0.8,0c0.8,0,1.2,0,1.2,0c1-0.3,0-0.4-2.9-0.2c-1.9-0.1-1.5-0.2,1.3-0.2
					c0.5,0,1,0,1.4,0c3.7-0.1,5.7-0.1,6.1,0.1c0,0.1,0,0.1-0.1,0.1c-0.1,0.2,0.2,0.3,0.9,0.5c-0.4,0-0.5,0-0.5,0.1
					c1,0.1,1.5,0.1,1.4,0c0-0.2,1.4-0.2,4.3-0.1l0.8,0c1.1-0.1,2.7-0.1,4.7-0.1l1.3,0c0.6,0,1.8,0,3.5,0c0-0.2-0.7-0.3-2.2-0.3
					c-0.9,0-1.4,0-1.4,0c0,0-0.1,0-0.1,0l24.2,0.5c-0.9,0.1-1.6,0.2-2.2,0.2c0.6,0,1.1,0.1,1.6,0c-0.1,0-0.1,0.1-0.1,0.2
					c0.5-0.1,1-0.1,1.6-0.1c0.7,0,1.2-0.1,1.4-0.1c0.8,0,1-0.1,0.5-0.2l-57,2.6c-0.1,0-0.2,0.1-0.3,0.1c1.2,0.3,3.1,0.4,5.7,0.5
					c1.4,0,2.7,0.1,4,0.2c0.2,0,0.4,0,0.7-0.1c1.2-0.1,2.4-0.2,3.5-0.3c0.4,0,0.6-0.1,0.7-0.1l0.6,0c0.2,0,0.3-0.1,0.3-0.1
					c0.1-0.2-0.2-0.3-0.7-0.4c0,0-0.1-0.1-0.2-0.1c-0.5-0.1-1.2-0.2-2.1-0.3c0.7-0.2,2-0.2,3.9-0.1c0,0.1,0.2,0.2,0.4,0.2
					c0.7,0.1,0.8,0,0.4-0.2c-1.1-0.5-1-0.9,0.4-1.2c0.8-0.2,0.8-0.2-0.1-0.2c-1,0-1.9-0.1-2.6-0.2c-0.1,0-0.2,0-0.3,0
					c-0.6,0-1.2,0-1.7,0c0.5-0.1,1.1-0.1,1.7-0.2l-3.5-0.1c-0.6,0-1.1-0.1-1.6-0.2c-0.3,0-0.4-0.1-0.3-0.1c0.2-0.1,0.5-0.2,1-0.1
					c1,0,1.9,0.1,2.7,0.3c2,0.3,3.7,0.2,5.3-0.1c0.6,0.2,1.3,0.3,2.3,0.3c0.3,0,0.5,0,0.5,0c0,0.1,0.1,0.1,0.1,0.2
					c0,0.1,0,0.1,0.1,0.2c0.1,0.1,0.2,0.2,0.3,0.2c0.2,0,0.3-0.1,0.4-0.1c0,0,0.1-0.1,0.1-0.2c0.1,0,0.2,0,0.3,0
					c0.2-0.1,0.7-0.2,1.5-0.2c1-0.1,1.9-0.1,2.8-0.1c0.5-0.1,0.9-0.2,1.3-0.3c-1.5,0-1.2-0.2,0.8-0.4c0.3,0,0.5,0,0.8,0l1-0.5l7.7,0
					c1.2,0.8,2.6,1.1,4.2,0.8c0.3-0.1,0.5-0.2,0.8-0.4c0-0.1,0-0.2,0-0.3c0-0.2-0.1-0.4-0.2-0.6c-0.4,0-1,0-1.9,0.1
					c0-0.2-0.4-0.2-1.3-0.1c-1.7,0.3-2.6,0.2-2.8-0.2l0-0.1c-1.2,0.1-2.5,0.1-3.8-0.1c-1-0.1-1-0.2-0.3-0.3c0.3-0.1,0.5-0.1,0.6,0
					c0.4,0,0.9,0,1.3,0.1c0.6,0,1.3,0.1,2.1,0.1c3.6,0,6-0.1,7.3-0.3l0.5,0c1.9,0.2,3.2,0.1,3.8-0.3c0.8-0.2,2-0.2,3.7-0.2
					c2.9,0.1,5.5,0,7.8-0.3c0.4,0,0.8,0,1.3,0.1l0.1,0l-4.2-0.5c-0.3-0.6-0.7-1.2-1.4-1.6c-0.1,0-0.1-0.1-0.2-0.1
					c-0.4,0-0.7,0.1-1.1,0.1l-0.9-0.6c0.8,0,1.4,0.2,2,0.5c2.8-0.3,5.7-0.6,8.7-0.9c-1-0.1-2.1-0.2-3.1-0.3c-1.2,0.2-3,0.3-5.4,0.2
					c-2.6,0-4.7,0.1-6.3,0.3l-0.6,0c0.3-0.2-0.2-0.3-1.8-0.4c-1.4,0.2-2.8,0.4-4,0.5l-0.4,0.1c0.1-0.1,0.1-0.3,0-0.3
					c1,0,1.8,0,2.7-0.2c0-0.1-0.1-0.1-0.2-0.1c-0.4-0.1-0.8-0.2-1-0.2l-0.3-0.1c3.2-0.2,6.5-0.4,9.8-0.6c1.7,0,3.1,0,4.1,0.1
					c2,0.3,3.2,0.2,3.7-0.2c-2.4-0.1-5.3-0.1-8.6,0c-2.9,0.1-5.5,0-7.7-0.2l-0.5,0c-0.6,0.3-1.7,0.3-3.4,0.3c-0.5,0.1-1,0.1-1.6,0.1
					c-3.7,0.2-6.1,0-7.1-0.5c-0.5,0.1-0.9,0.1-1,0.2c-0.9,0.4-1.7,0.4-2.5,0.1c-0.2-0.1-0.2-0.2,0.1-0.3c0.4-0.1,1-0.3,1.8-0.5
					c-0.3-0.1-0.6-0.1-0.8,0c-0.3,0-0.5,0-0.8,0c-0.9,0-1-0.1-0.5-0.3l0.3-0.1c3.1-0.3,5.6-0.8,7.5-1.4c2.6-0.2,4.3-0.1,5.1,0.2
					c1.3,0.6,2.2,0.5,2.7-0.2c-1,0.1-1.6,0-1.6-0.1l0-0.2c-1.5,0.1-3.1,0.1-4.7-0.1l-0.5,0c0.1,0.3-0.8,0.4-2.6,0.2
					c-1.2-0.1-2.5,0-3.9,0.2c-1.7,0.3-3.2,0.6-4.5,1c-1.4,0.3-2.9,0.4-4.5,0.3c-0.3,0-0.4,0-0.5,0c-0.3-0.1-0.5-0.1-0.7-0.2
					c-1.4-0.2-2-0.6-1.9-1.1c0-0.1,0.1-0.1,0.3-0.1c1.9,0.1,2.7,0,2.5-0.3c0-0.1,0-0.1,0.1-0.1c0.4-0.1,0.7-0.1,0.7-0.2
					c0.2-0.1,0.1-0.2-0.3-0.2c-2-0.1-1.8-0.2,0.8-0.2c0.3,0,0.5,0,0.5,0c0,0.5,1,0.6,2.8,0.3c-0.1-0.3-0.3-0.6-0.6-0.9l-0.1-0.1
					c1.5-0.1,1.6-0.2,0.4-0.3c-0.3-0.1-0.5-0.1-0.7-0.1c-0.2-0.2-0.5-0.3-0.7-0.3c-1-0.3-1.2-0.4-0.6-0.5c0.3,0,0.5-0.1,0.4-0.2
					c-0.1-0.5,0.4-0.8,1.6-1.1c-0.9-0.2-0.9-0.5,0.1-0.9c0.7-0.3,2.1-0.5,4.3-0.5l0.4-0.1c-1-0.2-1.2-0.3-0.5-0.4
					c2.2,0,3.2,0.1,2.7,0.4c-0.2,0.1-0.3,0.2-0.2,0.2c0.9,0,1.6,0,2.1,0.1c-1-0.3-1.1-0.6-0.1-0.9c2.1-0.2,1.8-0.3-0.7-0.3l-0.5,0
					c-0.3,0.1-0.5,0.3-0.7,0.4l-0.4,0c-3.1,0-3.7-0.2-1.6-0.4c0.2-0.1,0.5-0.3,0.9-0.4c0.4,0,0.8-0.1,1.2-0.1c1.7-0.2,3-0.2,4,0
					c0.3,0.1,0.5,0.1,0.8,0.1c0.2,0,0.4-0.1,0.5-0.1c0.9,0.2,2.3,0.2,4.3,0.1c0.2,0,0.5,0,0.9,0c1.5,0.1,3,0.1,4.5,0.1
					c1.3,0,2.5-0.1,3.8-0.2c3.6-0.3,6-0.1,7.2,0.3c-1.2,0.2-0.9,0.2,0.8,0.1c0.3,0,0.5,0,0.8-0.1c0.6-0.2,1.7-0.2,3.1-0.2
					c0.5,0,0.8,0,1,0l0.4-0.1c2.4-0.1,3.6-0.3,3.7-0.7l-0.1,0c-0.8,0.1-1.5,0.1-2.2,0l-0.5,0c-0.9,0.3-1.7,0.3-2.4,0.1l-0.3-0.1
					c-2.2,0.1-3.4-0.1-3.6-0.5c-0.1-0.1-0.3-0.1-0.5-0.1c-2.2,0-2.7,0-1.5,0.2c1.7,0.2,1.7,0.3,0.1,0.5c-0.7,0.1-1.5,0.2-2.3,0.3
					c-2.7,0.2-5.1,0.2-7.1,0.1s-4-0.2-6.2-0.3c-0.6,0-1.1,0-1.6,0.1c-1.8,0.1-2.4-0.1-2-0.4c0.3-0.2-0.4-0.3-2.1,0
					c-0.2,0.1-0.4,0.2-0.7,0.2c-0.3,0-0.6,0-0.9-0.1c-1.9-0.1-3.5-0.4-4.6-0.8c-0.1-0.1-0.3-0.2-0.6-0.3c-0.3-0.2-0.6-0.3-0.9-0.4
					l0.3,0c1.3,0.1,2.8,0,4.4,0c0.4,0.2,0.7,0.2,1,0l0.2,0c-0.8-0.1-1.6-0.2-2.3-0.2c-0.3-0.1-0.7-0.1-1.1-0.2
					c-2.5-0.2-1.8-0.3,2.1-0.2c0.1,0,0.2,0,0.3,0c0.3,0.1,0.5,0.1,0.7,0.1c-0.1,0-0.1,0.1-0.2,0.1l-0.1,0.2c1.1,0.2,1.3,0.4,0.5,0.6
					c1.2-0.1,1.9-0.2,2.1-0.5c0.1-0.1,0-0.2-0.3-0.3c-1-0.3-1.7-0.4-2.1-0.1c0,0-0.2,0-0.3,0c-2-0.1-1.7-0.2,0.8-0.2
					c0.3,0,0.6,0,0.9,0.1c2.4,0,2.9,0.1,1.6,0.2c-1.3-0.2-1.5-0.2-0.7,0c0.2,0.1,0.3,0.1,0.5,0.2l0.3,0.1c2.7-0.1,5.6-0.1,8.6,0
					c1.8,0.1,2.3,0.2,1.6,0.3c1.9,0,3,0.1,3.2,0.3c0.3,0,0.5-0.1,0.4-0.1c0.1-0.2,0.7-0.2,1.6-0.1c0.9,0.1,2,0.1,3.2,0.2
					c0.6,0,1.3,0.1,1.9,0.1c0.3,0,0.6,0,0.9,0l-0.7-0.5c-0.3,0-0.6,0-0.7-0.1l-0.3,0c-0.5,0-1.2,0-2.1-0.2c-0.2-0.1-0.3-0.1-0.5-0.2
					l-0.3-0.1c-1.5,0.1-2.8,0.1-3.9-0.1c-0.2,0-0.4,0-0.6,0l-0.5,0c-0.1,0.3-0.8,0.4-2.1,0.2c-0.4,0-0.8,0-1.4-0.1
					c-0.3,0-0.4,0-0.5,0c-1.6-0.1-3.5-0.2-5.7-0.3c-0.3,0-0.6,0-0.9,0c-1.6,0-2.3-0.1-2.3-0.2c0-0.1,0.2-0.1,0.6-0.2
					c2.6,0,2.8-0.1,0.8-0.2l-0.5,0c-0.7,0.1-1.4,0.1-2.1-0.1c-0.2,0-0.4,0-0.8,0c-3.1-0.1-5.6-0.2-7.7-0.4c-0.3,0-0.6-0.1-0.8-0.1
					l-0.5-0.1c1,0,2,0,3.2-0.1L255.9,27.8 M266.4,44.6c-2.2-0.3-2.1-0.5,0.2-0.6c0.5,0.2,1.3,0.2,2.3-0.1l0.5-0.1
					c0,0.1,0,0.1,0.1,0.2l-0.3-0.1C269.7,44.2,268.8,44.4,266.4,44.6 M264.2,43.5c0.2,0,0.4,0,0.6,0c-0.3,0-0.6,0-1,0
					C263.9,43.6,264,43.5,264.2,43.5 M270.5,44.1c-0.3-0.1-0.5-0.1-0.8-0.1l-0.1,0c0.2,0,0.4,0,0.8,0c0.1,0,0.2,0,0.3,0l0,0
					L270.5,44.1 M233.4,52.3L233.4,52.3c-0.2,0-0.3,0-0.4,0l-0.2-0.7c0.2,0,0.3,0,0.5,0c0.2,0,0.5,0,0.7,0c1.3,0.1,2.4,0.3,3.3,0.4
					c-0.6,0-1.3,0-2,0C234.1,52.1,233.5,52.2,233.4,52.3 M39.4,44.8c0.1,0,0.3,0,0.4-0.1l0.3,0c0.2,0.1,0.3,0.1,0.5,0.1
					C40.3,44.8,39.9,44.8,39.4,44.8 M257.8,26c0.2,0,0.2-0.1-0.1-0.1c-0.3,0-0.6-0.1-1-0.1c-1.5-0.2-1.8,0-0.9,0.4
					C256.9,26.1,257.5,26.1,257.8,26 M254.2,17.9c2.2,0,2.6-0.1,1.4-0.4C254.5,17.4,254.1,17.5,254.2,17.9 M261.4,20
					c0.3,0,0.5,0,0.8,0.1c0.2,0.1,0.4,0.1,0.7,0.1c0.3,0,0.7,0,1.2,0c1.5,0,2.4,0,2.7,0c0.6-0.2,1.2-0.2,2.1,0.1
					c-0.4-0.2-0.1-0.3,0.8-0.3l0.8,0.1c-0.3-0.1-0.8-0.1-1.6-0.2c-0.4-0.3-1.5-0.5-3.3-0.5c-1.5-0.1-2.3-0.1-2.5,0
					c-0.2,0.1-0.4,0.1-0.7,0.1c-1.3,0-2.5,0-3.7,0.1c-1.3,0.1-2.5,0.1-3.9,0c0.3-0.2,0.5-0.4,0.5-0.6c0.1-0.1,0-0.1-0.3-0.1
					c-1.4-0.1-2.5-0.3-3.3-0.5c-1.5-0.4-3.8-0.7-6.8-0.9c-3.1-0.2-5.8-0.4-8-0.8c-0.3-0.1-0.5-0.1-0.7-0.1c-1.5,0.1-2.3,0.1-2.5,0
					c-0.3-0.1-0.6-0.1-0.9-0.2c-0.5,0-0.9,0-1.2,0c-0.7,0.1-1.6,0.1-2.6,0.1s-2.1,0-3.1,0c-1.8,0,61.6-2.5,60.8-2.7
					c-0.6-0.1-1.4-0.1-2.4-0.1c-0.3,0-0.4,0-0.4,0c0.2,0.2-0.2,0.3-1,0.3c-2.1,0-4.2-0.1-6.3-0.1c-1.3,0-2,0-2.1,0.1
					c-1.2-0.1-2.4-0.1-3.4-0.2c-1.1,0-2.2,0-3.2-0.1l-0.8-0.1l-0.1,0c-0.3,0-0.7,0-1-0.1l0.1,0.1c-2-0.1-3.8,0-5.3,0.1
					c1.3,0,2.5,0,3.6,0.1c0.8,0,1.5,0.1,2.2,0.1c2.4,0.1,4.6,0.2,6.7,0.3c0.7,0,1.4,0,2.1,0.1c2.6,0.1,5.2,0.2,8,0.3
					c-0.2,0.1-0.5,0.2-0.9,0.3c-0.8,0.1-1.6,0.1-2.4,0.1c-2.4,0.2-4.2,0.2-5.4,0c-1.1-0.1-2.6-0.2-4.5-0.2c-1.3-0.1-2.6-0.1-3.8-0.1
					l0.2,0.6c0.5,0,0.9,0,1.4,0.1c1.8,0.1,3.9,0.2,6.3,0.2c1-0.1,2-0.1,3-0.1c0.5,0,0.9-0.1,1.3-0.1c2.1-0.3,4.6-0.5,7.6-0.7
					c0.3,0.1,0.5,0.1,0.8,0.1l0-0.1c0.3,0-64.1,2.3-63.8,2.3c1.1-0.1,1.6-0.1,1.6,0.1c0,0,0.1,0.1,0.4,0.1c1.5,0.2,2.7,0.2,3.4-0.1
					c4-0.1,6.7-0.1,8,0.2c0.2,0.1,0.5,0.1,0.7,0.1c3.2,0.1,5.3,0.3,6.3,0.8c0.2,0,0.4,0,0.6-0.1c0.7-0.1,1.8,0,3.2,0.2
					c0.6,0.1,1.3,0.2,2,0.2c0.4,0.1,0.7,0.1,1,0.2c0.3,0.1,0.5,0.1,0.8,0.1c1.5,0.1,2,0.4,1.5,0.9c-0.5,0-1.1,0-1.6,0
					c-2.1,0-2.6,0-1.5,0.1c0.6,0,1,0.1,1.3,0.2c0.2,0.1,0.4,0.2,0.7,0.2c0.7,0.2,1.4,0.4,1.9,0.7c0.3,0.1,0.7,0.2,1.2,0.3
					c3.9,0.6,7.4,1.2,10.6,1.9c-1.7,0.1-2.2,0.2-1.5,0.3c1.1,0.2,1.9,0.1,2.5-0.1c0.2,0,0.3-0.1,0.4-0.1c0.7,0.1,1.2,0.2,1.4,0.3
					l0.2,0c1.9-0.2,2.8,0,2.7,0.4c0.2-0.1,0.5-0.1,0.8-0.1c1.2-0.1,1.5-0.3,0.8-0.3c-2.1-0.1-3.9-0.3-5.6-0.5
					c-2.3-0.3-4.8-0.7-7.4-1c-0.1-0.2-0.4-0.3-0.9-0.4l-0.3-0.1c0.8-0.1,0.7-0.2-0.5-0.2c-0.5,0-0.9-0.1-1.2-0.1c0,0-0.1,0-0.1-0.1
					c0.1-0.2-0.4-0.3-1.3-0.3c-1-0.2-0.9-0.3,0.6-0.4c0.8-0.1,1.6-0.1,2.4-0.2C259.5,19.9,260.7,19.9,261.4,20 M261.9,15.5
					c-0.2,0.3-0.4,0.6-0.5,0.9c2-0.2,2.8-0.4,2.4-0.5c-0.2-0.2-0.5-0.3-0.8-0.5c-0.5-0.2-1-0.3-1.5-0.2c-1.2,0.3-1.4,0.4-0.4,0.3
					L261.9,15.5 M261.1,16.8l-0.4,0c-1.8,0.2-1.7,0.4,0.1,0.5C261.8,17.2,261.9,17,261.1,16.8 M257.4,11.6c-1.5-0.2-2.3-0.1-2.6,0.2
					c1,0,1.7,0,2.2-0.1L257.4,11.6 M254.3,13.2c0.3,0,0.5,0,0.5,0l0.2-0.1c1.2,0.1,2,0.1,2.5,0c0.2,0,0.3,0,0.3,0
					c1.3,0.1,2.4,0.1,3.4-0.2c-0.3,0-0.5,0-0.7,0c-3.8-0.1-6.5-0.4-8.1-0.9c1,0.4,0.8,0.6-0.6,0.6c-1.5,0-2.8,0.1-4,0.1l-0.6,0.1
					c0.1,0.1,0.9,0.2,2.4,0.2C252.3,12.9,253.9,13,254.3,13.2 M268.2,14.6C268.3,14.6,268.3,14.6,268.2,14.6c-0.7-0.3-1.7-0.3-3-0.2
					c-0.3,0.1-0.6,0.1-0.8,0.1c-1.7-0.3-3.1-0.3-4.3,0c-0.8,0.1-0.5,0.3,0.9,0.6c0.7-0.2,1.7-0.2,2.9-0.1c0.6,0,1.4,0,2.5-0.2
					C267.5,14.8,268.1,14.8,268.2,14.6 M285.1,26.2l0.6-0.2l0-0.1C284.7,25.9,284.5,26,285.1,26.2 M280.4,27.8
					c0.6-0.2,0.5-0.3-0.1-0.3c-1.6,0-2.7,0-3.1,0c-2.8,0.2-3.3,0.4-1.3,0.7c0.9,0,1.2-0.1,1.2-0.3c0-0.1,0.1-0.1,0.4-0.1
					c0.3-0.1,0.6-0.1,0.8-0.1C279.2,28,279.9,28,280.4,27.8 M281,28.3C281.3,28.2,281.3,28.2,281,28.3c-0.4-0.1-0.8-0.1-1.2-0.1
					c-1.3,0.1-1.6,0.2-0.7,0.4C280.1,28.6,280.7,28.5,281,28.3 M285.8,25.3l0.1-0.4c-1.5-0.1-2.3,0-2.2,0.5
					C284.5,25.4,285.2,25.4,285.8,25.3 M286.2,24.6L286.2,24.6l0.4-0.3C286.3,24.4,286.1,24.4,286.2,24.6 M280.9,21.8l0.4,0
					c0.6,0.1,1,0.1,1.2-0.1c0.3-0.2-0.3-0.3-1.7-0.2c-0.3,0-0.6,0-0.8-0.1c-0.7,0-1.4,0-2.1-0.1c-0.6,0-1.5,0-2.5,0
					c-2.7,0.1-4.3,0.1-4.7-0.2c-1.7,0.1-2,0.2-0.9,0.4c0.3,0.1,1.4,0,3.3,0c1.3-0.1,2.3,0,2.9,0.2c0.2,0,0.5,0,1,0.1
					c1.4,0,1.9,0.1,1.6,0.2C279.2,21.9,279.9,21.8,280.9,21.8 M279.8,17l0.5,0c-0.1-0.1-0.3-0.1-0.5-0.2
					C279.8,16.8,279.8,16.9,279.8,17 M282.1,17.6c0.1-0.1,0.3-0.1,0.4-0.2c-0.4,0.1-0.7,0.1-0.8,0.1c-0.1,0.1-0.1,0.1-0.1,0.2
					C281.8,17.7,282,17.7,282.1,17.6 M284.3,16.9c-0.3,0-0.6,0-1,0c-0.2,0-0.4,0-0.6,0c-1.9,0.1-2.1,0.2-0.5,0.2c0.2,0,0.4,0,0.6,0
					c0.2,0,0.4,0,0.6,0C283.6,17.1,284,17,284.3,16.9 M280.1,13.5l-0.5,0c-0.8,0.2-2.2,0.2-4.3,0.2c-3.1-0.1-3.5,0.1-1,0.4
					c1.3,0.2,2.1,0.5,2.2,0.9l0.4,0C277.7,14.4,278.7,13.9,280.1,13.5 M312,52.9l-4.1,0l3.5,0.3C311.6,53.1,311.8,53,312,52.9
					 M333.5,58.3c-0.3,0-0.5,0-0.6,0c-1.2,0-1.2,0.1-0.1,0.3C335.8,58.5,336,58.4,333.5,58.3 M308.4,35.6l0.8,0
					c-1.5-0.6-2.5-0.6-3.1,0.1C306.9,35.7,307.7,35.6,308.4,35.6 M323,35.3l0.4-0.2c-2.6-0.1-4.3,0-5,0.4
					C320.6,35.6,322.1,35.5,323,35.3 M321.3,33.2c0.1,0.1,0.3,0.2,0.6,0.3c0.3-0.1,0.5-0.2,0.8-0.2c0.5-0.1,0.8-0.1,0.9-0.2
					c0,0,0.1,0,0.1-0.1C322.9,33.1,322.1,33.1,321.3,33.2 M322.5,2c1-0.1,1.8-0.1,2.3-0.2l0.3-0.1C323,1.4,322.2,1.5,322.5,2
					 M264.8,4.1c3.9,0,6.3-0.2,7.1-0.6l0.1-0.1C268.2,3.5,265.8,3.7,264.8,4.1 M225.8,3.7c-1.1,0-1.6,0-1.6,0.2
					c0.1,0.1,0.3,0.2,0.7,0.3c0.5,0.1,1.1,0.3,1.6,0.5c0.8,0.3,1.8,0.6,3,0.9l0.4,0c-0.4-0.3-1.1-0.5-2.2-0.8
					c-0.1-0.3,0-0.5,0.1-0.8c0,0,0-0.1-0.1-0.1C227.3,3.7,226.6,3.6,225.8,3.7 M203.4,3.3c0.9-0.1,1.6-0.1,2.1-0.2
					c1.6-0.2,2.9-0.4,3.9-0.6c0.8-0.2,1.4-0.4,1.8-0.6c0.7-0.3,0.7-0.5-0.1-0.5c1.6-0.2,1.6-0.3-0.2-0.2c-0.4,0-0.7,0-0.9-0.1
					c-3.5-0.1-5.4-0.1-5.7,0.2c0.5,0.1,0.9,0.1,1.4,0.1c0.4,0,0.9,0,1.5,0c2.2-0.1,3,0,2.2,0.2C206.9,2,205,2.6,203.4,3.3
					 M195.8,4.7c-2.8,0-4.1,0.3-3.9,0.7c2.2-0.1,3.4-0.3,3.7-0.6L195.8,4.7 M169.8,7.7c0,0.1,0,0.1,0.2,0.1c2.2,0.3,3.6,0.7,4.1,1.2
					c2,0.1,3.8,0.3,5.3,0.4c0.7,0.1,1.2,0.2,1.6,0.3c0.4,0,0.8,0,1,0c1.1,0,2.2,0.1,3.2,0.1c0.7,0.1,1.5,0.1,2.3,0.1
					c1.5,0.1,2.9,0.1,4.4,0.2c1.5,0.1,2.4,0.2,2.7,0.4c2.5,0,3-0.1,1.2-0.3l-0.7-0.1c2.2-0.1,3.4-0.3,3.7-0.6c0-0.1,0-0.1,0-0.1
					c0-0.1-0.4-0.2-1.1-0.2c-3.2-0.1-4-0.2-2.3-0.4c-1.8-0.2-2-0.3-0.6-0.4c1.9-0.1,2.2-0.2,0.9-0.3c-0.4-0.1-0.8-0.2-1.2-0.2
					c-0.5,0-0.7,0-0.8,0c-0.5-0.3-1.5-0.6-2.9-0.8c-0.4-0.1-0.7-0.1-0.8-0.1c-0.4,0-0.8-0.1-1.2-0.2c-1.4,0-2.5-0.1-3.3-0.1
					c-2-0.2-3.9-0.3-5.6-0.1c-1.4-0.1-2.7-0.1-3.9,0c-0.9,0.1-1.6,0.2-1.9,0.4c-0.1,0-0.2,0-0.3,0.1c-0.3,0.1-0.9,0.3-1.7,0.4
					C171.5,7.3,170.6,7.5,169.8,7.7 M157.2,1.4c-1.4,0.3-0.9,0.5,1.3,0.7c0.7,0.1,1,0.2,1.2,0.3c0.7,0.4,0.5,0.9-0.4,1.3
					c3.4-0.1,4.9-0.2,4.5-0.5c0,0,0-0.1,0.1-0.1c-0.3-0.4,0.2-0.7,1.6-1c-0.4-0.1-0.7-0.1-0.9-0.1c-2.1,0.1-3.3,0.1-3.5-0.2
					C160.4,1.4,159.2,1.3,157.2,1.4 M152.5,7.6l-0.8,0c0.4,0.3-0.4,0.5-2.4,0.7l0.5,0c1.3,0.2,2.3,0.4,3.1,0.6c0.9,0,1.6,0,1.9-0.1
					c0.5-0.1,0.9-0.1,1.2-0.2c0.5-0.1,0.9-0.2,1.1-0.4C157.6,7.9,156.1,7.7,152.5,7.6 M114.3,8.9l-0.7-0.2c-1.9,0.2-2,0.4-0.2,0.6
					c1.5,0.2,1.2,0.4-0.7,0.7c0.4,0,0.8,0,1.2,0c0.6-0.1,1.1-0.1,1.5-0.1c1.9,0,2.7,0,2.4-0.2C116.8,9.4,115.7,9.1,114.3,8.9
					 M96.4,5.2c2.1-0.1,2-0.3-0.1-0.4c-0.5,0-0.7-0.1-0.8-0.1C93.8,4.7,94.1,4.9,96.4,5.2 M75.3,10.9c2.5,0,4.5,0,6.2-0.2
					c2.2-0.1,2.7-0.2,1.5-0.3c-0.8,0-1.3,0-1.7,0C79.8,10.6,77.8,10.8,75.3,10.9z"/>
			</g>
		</g>
	</g>
</g>
<g>
	<path class="st1" d="M196.1,38.8L196.1,38.8L196.1,38.8L196.1,38.8L196.1,38.8z M197.8,38.1L197.8,38.1L197.8,38.1L197.8,38.1
		L197.8,38.1z M197.9,37.5L197.9,37.5L197.9,37.5L197.9,37.5L197.9,37.5L197.9,37.5z M199,33.3L199,33.3L199,33.3L199,33.3L199,33.3
		L199,33.3z M198.1,33.1L198.1,33.1L198.1,33.1L198.1,33.1L198.1,33.1z M198.6,28.6L198.6,28.6L198.6,28.6L198.6,28.6L198.6,28.6z
		 M198.7,27.7L198.7,27.7h-0.2v0l0-0.1L198.7,27.7z M197.4,27.5L197.4,27.5L197.4,27.5L197.4,27.5L197.4,27.5L197.4,27.5z
		 M195.8,27.1c-0.1,0-0.2,0.1-0.2,0.2c-0.2,0-0.3,0.5-0.2,1.4l0,0.1h0c0,0,0,0.5,0,1.4l0,0l0,0c0,0.4,0,0.7,0,0.8l0,0.1
		c0,0.3-0.1,0.6-0.1,1l0,0.1l0,0.1v0.4l0,0.2l0,0c0,0,0,0.1-0.1,0.3l0,0.1c0,0.1,0,0.3,0,0.4l0,0l0,0.8c0,0.2,0,0.3,0,0.4l0,0.1
		l0,0.1l0,0.2v0.1l0,0.1h0c0,0.2,0,0.4,0,0.6c0,0.6,0.1,1.1,0.1,1.3l0,0.1v0.1c0,0.1,0,0.2,0,0.2v0.2l0,0.1h0c0,0.1,0,0.4,0,0.9
		s0.1,0.9,0.4,0.9s0.5,0,0.6,0h0.1l0.1,0l0.1-0.1h0.1v0c0,0,0.1,0,0.2-0.1l0.2,0.1l0.1,0v0l0.1,0c0.1,0,0.2,0,0.3,0c0,0,0.1,0,0.2,0
		l0.1,0l0,0l0,0h0.1l0.2-0.1l0.1,0.1c0,0,0.1,0,0.3-0.1l0.1,0l0.1,0l0.2,0c0.3,0,0.5,0,0.7,0l0.1,0c0,0,0.1,0,0.2,0l0.2,0h0.1l0.1,0
		l0.1,0l0.1-0.1c0,0,0.1,0,0.3,0.1l0.1-0.1l0.1,0l0,0c0.3,0,0.5-0.1,0.5-0.3c0.1-0.6,0.1-1-0.1-1.4c0-0.2-0.1-0.3-0.1-0.3
		c0-0.2-0.2-0.2-0.5-0.3h-0.1l-0.1,0l0,0c0,0-0.3,0-1,0c0,0-0.1,0-0.2,0l-0.8,0c-0.1,0-0.4,0-0.7,0c-0.3,0-0.5-0.1-0.4-0.2l0-1.2
		l0-0.1c0-0.3,0.1-0.4,0-0.5h0c0-0.1,0-0.2-0.1-0.2l0.1-0.1v0l-0.1-0.1v-0.1h0c0-0.6,0.2-0.9,0.6-0.9h0.4c0,0,0.1,0,0.4,0h0.3
		l0.3,0.1l0.1-0.1l0.2,0c0.2,0,0.3-0.1,0.4-0.1c0.2-0.1,0.4-0.1,0.6-0.3c0.1-0.3,0.1-0.4,0.1-0.5l0-0.1v-0.2c0-0.3-0.1-0.5-0.2-0.8
		c-0.2-0.3-0.8-0.4-1.8-0.4l-0.2,0l0,0l-0.1-0.1l-0.1,0v0l-0.1,0.1h-0.1v0H198c-0.3,0-0.5-0.1-0.5-0.1v0h0.1v-0.1
		c0-0.1,0-0.2-0.1-0.4c0-0.1,0-0.2,0-0.4v-0.3l0-0.2c0-0.3,0.1-0.6,0.5-0.7l0.1,0c0.4-0.1,0.6-0.1,0.6-0.1l0,0l0.4-0.1l1,0.1l0,0
		l0.1,0.1h0.1l0-0.1l0.1,0.1h0l0-0.1c0.2,0,0.3,0,0.3,0.1l0.2-0.1l0.1,0c0.1-0.1,0.2-0.1,0.2-0.1l0.1,0h0c0.1,0,0.3-0.1,0.6-0.3
		l-0.1-0.1c0.1-0.2,0.1-0.4,0.1-0.7c-0.1-0.3-0.1-0.4-0.1-0.4c-0.1-0.1-0.2-0.1-0.2-0.2h-0.1v0.1h0c0-0.1-0.1-0.2-0.2-0.2
		c-0.3,0-0.5-0.1-0.5-0.1h0l-0.1,0l-0.1-0.1l0,0l0,0h-0.2l0,0c0,0-0.1,0-0.3,0l-0.1,0l-0.1,0l-0.1,0.1c0,0-0.1,0-0.3,0l-0.1,0
		l-0.1-0.1l-0.1,0v0l-0.1,0c-0.1,0-0.3-0.1-0.5-0.1l0,0c0,0-0.1,0-0.2-0.1l-0.1,0l-0.1,0l-0.2,0l-0.1,0l-0.1,0h0
		c-0.1,0-0.3,0-0.5-0.1C196.4,27,195.9,27,195.8,27.1z M190.2,36.9L190.2,36.9L190,37l0-0.1l0,0L190.2,36.9z M187,35.2v0.2h0
		L187,35.2L187,35.2z M188.8,30.1c0-0.2,0.1-0.3,0.4-0.3c0.5,0,0.9,0.2,1.3,0.6c0.1,0.1,0.2,0.3,0.4,0.7c0.2,0.4,0.3,0.8,0.3,1.1
		l0,0.1c0,0.1,0,0.2,0,0.3v0.2l0,0.1l0,0.1V33c0,0.1,0,0.3,0,0.5l0,0.1c0,0,0,0.1-0.1,0.2l0,0.1c-0.1,0.7-0.2,1.1-0.2,1.4l0,0.1
		l-0.1,0c-0.1,0.3-0.2,0.6-0.3,1c0,0.1-0.1,0.2-0.3,0.4l0,0H190v0c-0.1,0.1-0.2,0.1-0.2,0.2h0l-0.1-0.1c-0.1,0.1-0.2,0.1-0.2,0.2
		h-0.4h0l0,0l0-0.1l-0.2,0.1c0,0.1-0.1,0.1-0.2,0.1c0,0,0-0.1-0.1-0.2c0-0.1,0-0.4,0-0.7c0.1-0.8,0.1-1.5,0.1-2.2c0,0,0-0.4-0.1-1
		l0-0.1l-0.1-0.2l0-0.1v-0.1l0-0.1l0-0.1c0-0.3-0.1-0.5-0.1-0.6l0-0.1l0-0.1v-0.1l0-0.1l0,0c0-0.4,0-0.6,0.1-0.8l0,0
		C188.8,30.2,188.8,30.1,188.8,30.1z M187.9,27.1l-0.2,0c-0.4,0-0.7,0.2-0.9,0.6c-0.1,0-0.2,0.5-0.3,1.4l0,0l0,0.1v0.1
		c0,0.1,0,0.3,0,0.5l0,0.1c0,0.2,0,0.4-0.1,0.6l0,0c0,0.1,0,0.2,0,0.2v0.2l0,0l-0.1,0.1l0.1,0.1c0,0.1,0,0.2,0,0.3
		c0,0.1,0,0.3,0,0.4v1l0,0.2c0,0,0,0.1-0.1,0.4l0,0h0c0,0.3,0,0.5,0.1,0.8l0,0l0,0.1v0.1l0,0.2l0,0.1c0,0.1,0,0.3,0,0.4v0l0,0.1
		l0,0.1v0.1l0,0.1l-0.1,0.1l0,0.1l0,0.1l0,0.2c0,0.1,0,0.2,0,0.2l0,0.2l-0.1,0.1l0,0.1l0,0.1c0,0.4,0,0.7,0.1,1c0,0,0,0.1,0,0.3
		c0,0.3,0,0.5,0,0.6c0,0.1,0,0.2,0,0.2l0,0c0,0.3,0.1,0.5,0.3,0.6l0,0.1c0.1,0.1,0.2,0.2,0.4,0.2l0.2,0c0.1,0,0.2,0,0.3,0.1l0.1,0
		l0.5,0.1l0,0l0.1,0l0.1,0l0,0h0l0.1,0l0.1,0h0.1c0.3,0,0.5,0,0.6,0c0.7-0.1,1-0.2,1-0.3l0.2,0h0c0.3-0.1,0.6-0.3,1.1-0.8
		c0.4-0.3,0.5-0.5,0.5-0.6c0.2-0.3,0.2-0.4,0.2-0.5c0.4-0.8,0.6-1.4,0.6-1.8l0,0l0-0.1v-0.3l0-0.1l0-0.1V35c0.1-0.3,0.1-0.5,0.1-0.6
		V34c0,0,0.1-0.1,0.1-0.3c-0.1-0.1-0.1-0.2-0.1-0.3l0-0.1l0-0.1v-0.1c0-0.3,0-0.4-0.1-0.5h0l0-0.1l0-0.1L193,32
		c-0.1-0.6-0.2-1-0.3-1.2c-0.1-0.2-0.1-0.3-0.1-0.3c0,0,0-0.1,0-0.2l-0.1,0c-0.1-0.6-0.2-1-0.3-1.1c0-0.1-0.2-0.4-0.5-0.9
		c-0.7-0.8-1.6-1.2-2.7-1.2h-0.3l0,0l0,0h-0.5l-0.1,0L187.9,27.1z M180.1,29.7c0.2-0.2,0.4-0.3,0.9-0.3h0.2l0.2,0l0,0l0,0
		c0.3,0,0.6,0.2,0.8,0.5l0,0c0.1,0.4,0.2,0.7,0.2,0.8l0,0c0,0,0,0.1,0.1,0.2l0,0v0l0,0.1h0c0,0.3,0,0.5,0.1,0.5l0,0v0l0,0.1l0,0.1
		v0.1l0,0.2l0,0l0.1,0.1l0,0.4v0.2l0,0.1l0,0l0.1,0.1c0,0,0,0.1-0.1,0.3l0,0h0l0.1,0.6l0,0l0,0.1l0,0.1l0,0.1l-0.1,0.9l0,0l0,0.1
		l0,0.1h0c0,0.8-0.1,1.2-0.2,1.3c-0.1,0.5-0.5,0.8-1.2,0.8c-0.4-0.2-0.7-0.4-0.9-0.8c-0.2-0.6-0.3-1.3-0.4-1.8l0-0.1l0-0.1h0
		c0-0.2-0.1-0.4-0.1-0.7l0-0.1c0-0.4-0.1-0.7-0.1-0.9l0-0.1l0-0.1v-0.2l0-0.2l0,0l0,0v0l0-0.1c0,0,0-0.2,0.1-0.6l0-0.2
		c0.1-0.6,0.1-0.9,0.1-0.9l0,0C179.8,30.1,179.9,29.9,180.1,29.7z M179.7,27.2L179.7,27.2L179.7,27.2c-0.2,0-0.5,0.1-0.9,0.4
		c-0.3,0.2-0.5,0.4-0.6,0.5c-0.3,0.6-0.4,1.1-0.5,1.5v0.1l0,0.2l0,0l0,0.1l-0.1,0.1l0,0.1c-0.1,0.2-0.1,0.6-0.1,1l0,0.1l0,0.1l0,0.1
		h0c0,0.2,0,0.4,0,0.5v0.8c0,0.2,0,0.5,0,0.9l0,0.2l0,0l0,0.1l0,0.1c0,0.2,0,0.4,0,0.5c0,0.1,0,0.3,0,0.6l0,0.1
		c0.1,0.3,0.1,0.7,0.1,0.9v0.2c0.1,0.2,0.1,0.5,0.1,0.6c0.1,1,0.3,1.5,0.4,1.5c0.1,0.2,0.2,0.4,0.3,0.5c0.8,0.5,1.6,0.7,2.4,0.7
		l0-0.1c0.3,0,0.5,0,0.6,0h0c0.5-0.1,0.8-0.1,0.9-0.2c0.4,0,0.8-0.3,1.4-0.9c0.2-0.2,0.3-0.6,0.4-1.4l0-0.1l0-0.1c0-0.1,0-0.5,0-1.1
		l0-0.2c0,0,0-0.1,0.1-0.3c0-0.1,0-0.2-0.1-0.3c0-0.2,0.1-0.5,0.1-1c0-0.3,0-0.9-0.1-1.8c0-0.2,0-0.3,0-0.5c0,0,0-0.2,0-0.4l0,0
		l0-0.1v0c0-0.5,0-0.8-0.1-0.9h0c0-0.1-0.1-0.3-0.2-0.6c0-0.6-0.2-1.1-0.6-1.6c-0.2-0.2-0.6-0.5-1.1-0.8L181,27
		C180.4,27.1,179.9,27.1,179.7,27.2z M175.1,38.5l0,0.2v0.1h0.1L175.1,38.5L175.1,38.5z M175.1,37.6L175.1,37.6L175.1,37.6v0.2h0
		c0,0.1,0,0.3,0,0.5l0,0.1c0,0,0,0.1,0,0.2h0.1l0-0.2l0-0.1c0,0,0-0.1-0.1-0.2l0.1-0.2L175.1,37.6L175.1,37.6z M165.6,27.3
		c-0.2,0.1-0.3,0.6-0.3,1.3l0,0.1l0,0.1l0,0.1l0,0.2l0,0.3c0,0.1-0.1,0.2-0.1,0.3v0.5l0,0.2l0,0.1c0,0.1,0,0.2,0,0.3l0,0.2
		c0,0.1,0,0.2,0,0.2l0,0.2V32l0,0.2l0,0c0,0.3,0,0.6,0,0.9c0,0.5-0.1,0.9-0.1,1.2l0,0.1c0,0.1,0,0.3,0,0.4v0.1l0,0.1h0l0.1,1.8
		c0,0.2,0,0.3,0,0.4l0,0.1l0,0.1v0.2l0,0.2l0,0.2v0.1l0,0.1l0,0.1V39c0.1,0.4,0.3,0.6,0.7,0.6c0.2,0,0.3,0,0.3-0.1l0,0h0.1l0.1-0.1
		l0,0c0.1,0,0.5-0.1,1-0.2c0.2-0.5,0.2-1,0.2-1.5v0l0-0.2l0,0l0-0.2v-0.1l0-0.2l0-0.1c0-0.1,0-0.1,0-0.3l0-0.1l0-0.1v-0.2
		c0-0.1,0-0.2,0-0.3c0,0,0-0.3,0-0.7c0,0,0-0.1,0-0.2l-0.1-0.1l0-0.1l0-0.1c0,0,0-0.1,0-0.3c0,0,0-0.1-0.1-0.2l0-0.1
		c0,0,0.1,0.2,0.2,0.7l0,0.1l0.4,1h0c0.2,0.8,0.4,1.4,0.7,1.8c0.3,0.8,0.5,1.2,0.6,1.2c0,0.2,0.3,0.3,0.8,0.2c0.3,0,0.5,0,0.5-0.1
		c0.3,0,0.6-0.3,0.8-0.9c0.1-0.3,0.2-0.6,0.4-0.9c0.1-0.3,0.2-0.7,0.4-1.2l0-0.1h0l0.2-0.3c0-0.2,0.1-0.5,0.2-0.9l0.1,0l0,0
		c0,0.1,0.1,0.2,0.2,0.3c0,0.2,0,0.5,0,0.7v0.7l0,0.2l0,0c0,0.1,0,0.3,0,0.4v0.1l0.1,0.2l0,0.2c0.1,0.6,0.1,1.1,0,1.5
		c0.2,0.4,0.6,0.6,1,0.6h0.2c0.3,0,0.6-0.1,0.8-0.1c0.4-0.2,0.6-0.4,0.6-0.7l0-0.1c0-0.2,0-0.3,0-0.4V38c0-0.2,0-0.4,0-0.6l0-0.2
		c0-0.3-0.1-0.5-0.1-0.7h0l0-0.2v-0.3l0-0.1h0c0-0.1,0-0.2-0.1-0.3h0c0-0.3-0.1-0.5-0.1-0.6l0-0.1l0-0.1l0-0.3l0-0.2l0,0
		c0-0.1,0-0.2-0.1-0.3c0-0.2,0.1-0.3,0.1-0.4c0,0,0-0.1-0.1-0.3c0-0.1,0-0.2,0.1-0.5l-0.1-0.6l0,0l-0.1-0.5l0.1-0.2l-0.1-0.2l0-0.1
		c0-0.1,0-0.2-0.1-0.4h0l-0.1-0.4l0-0.1c0-0.1,0-0.2-0.1-0.4l0-0.1l-0.1-0.7c0.1,0,0.1-0.3,0.1-0.8c0-0.7,0-1-0.1-1
		c0.1-0.4-0.1-0.6-0.7-0.7l-0.1,0l-0.1,0l-0.4,0l-0.1,0l-0.1,0c-0.2,0.2-0.4,0.5-0.6,0.9c-0.5,1.5-0.8,2.3-1,2.6
		c-0.2,0.6-0.3,0.9-0.4,0.9c0,0-0.2,0.6-0.7,1.7c-0.4,1-0.7,1.8-0.7,2.2l-0.2,0l-0.4-1.8c-0.2-0.7-0.3-1-0.3-1l0-0.1
		c-0.1-0.2-0.1-0.4-0.2-0.4l0.1-0.1c-0.2-0.8-0.4-1.4-0.5-1.7v0l0-0.2c-0.1,0-0.1-0.2-0.2-0.5h0c-0.3-0.9-0.6-1.5-0.8-1.8
		c0-0.2-0.2-0.4-0.5-0.7l-1.2,0l-0.1,0l0,0h-0.1C165.9,27.1,165.7,27.1,165.6,27.3z M153.9,38.1L153.9,38.1L153.9,38.1L153.9,38.1
		L153.9,38.1z M153.3,37.9L153.3,37.9L153.3,37.9L153.3,37.9L153.3,37.9z M154.2,36.9L154.2,36.9L154.2,36.9L154.2,36.9L154.2,36.9z
		 M152,36L152,36L152,36L152,36L152,36z M152.3,27.5l-0.1,0.2c0,0.1,0,0.2-0.1,0.4l0,0.1l-0.1,0.3l0,0.2l0,0.1l0,0.1l-0.1,0.1
		c0,0.1,0.1,0.2,0.1,0.2l0,0.1l0,0.1l0.1,0v0c0,0.1-0.1,0.2-0.1,0.3l0.1,0.1l-0.1,0.1l0,0.1l0,0.1l0.1,0.1l0,0.1l0,0.1l-0.1,0.1
		l0.1,0.2c0,0.2,0,0.3,0,0.3l0,0.1h0c0,0.1,0,0.2,0.1,0.2c0,0,0,0.1-0.1,0.2l0,0h0l0,0.1c0,0.1-0.1,0.2-0.1,0.4l0.1,0.1l-0.1,0.1v0
		l0.1,0.1l-0.1,0.1v0l0,0.1c0,0,0,0.1-0.1,0.3l0.1,0.1h0c0,0.3,0,0.6,0.1,0.7l0,0.1l0,0.1l0,0.1l0,0.1l0,0v0.2l0,0.1
		c0,0,0,0.1-0.1,0.3l0,0.1l0,0.1v0l0.1,0.1l-0.1,0.1c0,0.1,0,0.1,0.1,0.2c0,0,0,0.1-0.1,0.2l0,0.1h-0.1v0l0,0.1h0l0,0.1l0,0.2l0,0.1
		l0,0l0.1,0.1l-0.1,0l0,0.1l0,0.1l0,0.1l-0.1,0.1l0,0.1l0,0l0.1,0.1v0l-0.1,0.1c0,0.2,0,0.4-0.1,0.6l0,0h0l0,0.1l0,0.2l0,0.1
		c0,0.1,0,0.2-0.1,0.3l0.1,0l-0.1,0.1l0.1,0.1l0,0.1l0,0.1l-0.1,0l0,0.3l0,0.1l0,0.1c0,0.1,0,0.2,0,0.2v0l-0.1,0.1
		c0,0.5,0,0.7,0.2,0.8c0,0.1,0.6,0.1,1.9,0.1l0.1,0l0,0h0.2c0,0,0.5,0.1,1.4,0.1l0,0c0.3,0.1,0.8,0.1,1.5,0h0
		c0.2-0.1,0.5-0.2,0.7-0.4c0.2-0.2,0.3-0.5,0.4-0.8c0-0.3-0.1-0.6-0.3-0.8c0-0.1-0.4-0.2-1.2-0.3l0,0c0,0-0.1,0-0.2-0.1l-0.1,0
		c-0.3,0-0.7,0-1-0.1c-0.1,0-0.2,0-0.3,0h-0.4c-0.1-0.1-0.2-0.1-0.4-0.2l-0.1,0l0-0.1c0-0.8-0.1-1.3-0.1-1.5l0,0l0-0.1l0-0.1l0-0.1
		l0-0.1l-0.1-0.2c0-0.1,0-0.2,0-0.3l0-0.3l0-0.1v-0.1l0-0.1l0,0v-0.2l0-0.1h0c0-0.1,0-0.3-0.1-0.6l0-0.1c0-0.2,0-0.3,0-0.4v-0.1
		l0.1-0.3l-0.1-0.1l0-0.2l-0.1-0.1c0-0.1,0-0.3,0-0.6l0-0.1l0,0v0c0-0.3,0-0.5,0.1-0.7l0-0.1l0-0.1l0-0.1l0-0.1l0-0.1l0-0.1l0,0l0,0
		v-0.2l0-0.2l0,0c0,0,0-0.2,0-0.4l0,0l0-0.1v-0.2l0-0.1l0.1-0.1c0,0,0-0.1-0.1-0.3c0-0.3,0-0.4,0-0.4c-0.1-0.6-0.3-0.9-0.6-0.9
		l-0.2-0.1l-0.1,0l-0.1,0C152.7,27.1,152.4,27.2,152.3,27.5z M146,31.6c0.1-0.5,0.2-0.8,0.2-0.8c0.1,0,0.2,0.2,0.2,0.7h0
		c0.1,0.4,0.1,0.7,0.1,0.8l0.1,0.1v0l-0.1,0l0.1,0.3v0.1l0,0.1l0,0.1v0.1l0,0c-0.1,0-0.4,0-0.8,0.1l-0.1-0.1V33c0-0.1,0-0.2,0.1-0.3
		v0l0-0.1C145.9,32.2,146,31.9,146,31.6z M144.9,27.5c-0.1,0.4-0.3,0.6-0.4,0.6l-0.2,0.7l0,0l0,0.1c-0.2,0.3-0.3,0.8-0.5,1.5l0,0
		l0,0.1c0,0.1-0.1,0.4-0.3,0.9c-0.1,0.6-0.2,0.9-0.2,0.9v0l0,0.1h0c0,0.2-0.1,0.3-0.1,0.3c-0.1,0.8-0.2,1.1-0.3,1.1l0,0.1
		c-0.1,0.6-0.2,0.9-0.2,1.1l0,0.1c0,0.2-0.1,0.3-0.1,0.4l0,0.1c-0.1,0.5-0.2,0.9-0.2,1l0,0.1c0,0,0,0.1-0.1,0.2l0,0.1h0
		c-0.1,0.5-0.1,0.7-0.2,0.8l0,0.1c0,0.1,0,0.2-0.1,0.2l0,0.1c0,0.1,0,0.4-0.1,0.8c0,0.2,0,0.3,0.1,0.3c0.1,0.3,0.4,0.5,1,0.5
		c0.7,0,1-0.1,1-0.1c0.1-0.1,0.2-0.3,0.3-0.5c0.1-0.2,0.2-0.6,0.2-1.4l0,0c0.1-0.2,0.1-0.3,0.1-0.3l0-0.1l0.1-0.1l0-0.1
		c0.1-0.1,0.1-0.4,0.2-0.7l0,0l0.1-0.1c0-0.3,0.3-0.4,1-0.4h0.2c0.3,0,0.5,0.1,0.6,0.1c0.1,0,0.2,0.7,0.4,2l0,0c0,0,0,0.2,0.1,0.4
		c0,0.6,0.1,1,0.4,1c0,0.1,0.4,0.2,1.2,0.2c0.4,0,0.7-0.2,0.9-0.7c0,0,0-0.1,0-0.2c-0.2-1.2-0.3-2-0.3-2.2l0-0.1h0l-0.1-0.8l0-0.1
		l0-0.1l0,0l-0.1-0.2V35c0-0.2,0-0.3-0.1-0.4c0-0.4-0.1-0.8-0.3-1.2c-0.1-0.9-0.2-1.6-0.4-2.1l0-0.1c-0.1-0.2-0.1-0.3-0.1-0.3
		c-0.1-0.7-0.2-1.2-0.3-1.3h0l-0.1-0.5l0,0c0-0.3-0.1-0.6-0.3-1c-0.2-0.4-0.4-0.7-0.8-0.8c0-0.1-0.4-0.1-1-0.1l-0.2,0l-0.1,0
		C145.4,27.2,145,27.3,144.9,27.5z M136.2,39.6L136.2,39.6l0.5,0l0,0l0,0c0.8,0.1,1.3-0.2,1.3-0.9l0.4-2.1v-0.4
		c0.1-0.5,0.2-1.1,0.3-1.7l0.4-2.4l0-0.1l0.1-0.2v-0.3c0.1-0.1,0.1-0.2,0.1-0.3l0,0l0.2-1l0-0.1c0.1-0.1,0.1-0.3,0.1-0.7l0.4-1.7
		l0.1,0v-0.3c0-0.2-0.1-0.3-0.4-0.3c-0.1,0-0.4,0-0.8,0h0c-0.2,0-0.4,0-0.4,0.1c0,0-0.2,0-0.4-0.1c-0.3,0-0.5,0.2-0.6,0.6
		c-0.1,0.4-0.2,1-0.4,1.6c0,0.2-0.1,0.4-0.1,0.6c0,0-0.1,0.4-0.2,1.2s-0.2,1.3-0.2,1.6l0,0.1h0l-0.1,0.1l0,0.1
		c-0.1,0.3-0.2,1.1-0.4,2.3l-0.1,0.1L136.2,39.6L136.2,39.6z M134.1,27.6l0.1,0.1h0L134.1,27.6L134.1,27.6L134.1,27.6z M136.1,39.6
		l0-4.3l-0.1-0.1c-0.2-1.2-0.3-2-0.4-2.3l0-0.1l-0.1-0.1h0l0-0.1c0-0.3-0.1-0.8-0.2-1.6s-0.2-1.2-0.2-1.2c-0.1-0.2-0.1-0.4-0.1-0.6
		c-0.1-0.7-0.3-1.2-0.4-1.6c-0.1-0.4-0.4-0.6-0.6-0.6c-0.2,0-0.4,0-0.4,0.1c-0.1,0-0.2-0.1-0.4-0.1h0c-0.4,0-0.7,0-0.8,0
		c-0.3,0-0.4,0.1-0.4,0.3v0.3l0.1,0l0.4,1.7c0,0.4,0.1,0.6,0.1,0.7l0,0.1l0.2,1l0,0c0,0.1,0,0.2,0.1,0.3v0.3l0.1,0.2l0,0.1l0.4,2.4
		c0.1,0.6,0.2,1.2,0.3,1.7v0.4l0.4,2.1c0.1,0.7,0.5,1,1.3,0.9l0,0l0,0h0.4l0.1,0v0H136.1z M130.5,36.7l0,0.1h0L130.5,36.7
		L130.5,36.7z M128.2,27.4c-0.1,0.1-0.1,0.3-0.1,0.4l0,0c0,0,0,0.2,0,0.4l0,0.4c0,0.1,0,0.2,0,0.3h0.1V29h-0.1v0c0,0.2,0,0.4,0,0.8
		l0,0.1c0,0,0,0.2-0.1,0.5c0,0.1,0.1,0.1,0.1,0.1c0,0-0.1,0.2-0.1,0.7l0,0.1c0,0,0,0.1,0,0.2l0,0.1l0,0.2h-0.1v0.1l0,0.1l0,0.1
		l0,0.1l0,0.2l0,0.1l0,1.1l0.1,0.1l-0.1,0.1v0.1l0,0.1c0,0,0,0.1-0.1,0.3c0,0.1,0,0.1,0,0.2l0,0.2l0,0.1c0,0.3-0.1,0.4-0.2,0.4
		c0,0.1,0.1,0.2,0.1,0.3l0,0.1l0,0.1c0,0.1,0,0.2,0,0.2l0,0.1l0,0.1v0.1c0,0.1,0,0.2,0,0.3l0,0.2c0,0.2,0.1,0.3,0.1,0.4l0,0.1l0,0.1
		l0,0.1v0.1l0,0.1c0,0,0,0,0,0.1c0,0.1,0,0.2,0,0.3c0,0.1,0,0.2,0,0.3l0,0.1c0,0.1,0,0.2,0,0.2l0,0.1h0c0,0.5,0,0.9,0.2,1.1l0,0.1
		c0,0,0.1,0,0.3,0s0.3,0,0.4,0l0.3,0l0.1,0l0.1-0.1h0v0.1c0.1,0,0.2,0,0.3,0c0.1,0,0.3,0,0.5,0l0,0l0-0.1h0c0.1,0,0.1-0.1,0.2-0.3
		l0-0.1c0,0,0-0.3,0-0.9l0-0.1c0-0.1,0-0.2,0.1-0.4l0,0c0-0.1,0-0.3,0-0.5l-0.1,0V37l0.1,0l0-0.6l0-0.1l0.1-0.1l0-0.1
		c0,0,0-0.3,0-0.7l0-0.3l0-0.1l0-0.1l0-0.3l0-0.1l0,0l0,0l0-0.1l0-0.2l0-0.1c0,0,0-0.1,0-0.3l0,0h0l0-0.1l0-0.1l0-0.1l0-0.1v0l0-0.1
		h0l0-0.1l0-0.1c0-0.1,0-0.2,0-0.3l0-0.1l0-0.3l0,0l0,0l0-0.2l0-0.1h0l0-0.1l0-0.1l0-0.3l-0.1-0.1c0.1,0,0.1-0.4,0-1.3l0-0.1l0,0
		l0-0.1l0-0.1h0c0-0.5,0-0.8-0.1-0.9l0-0.1c0,0,0.1-0.1,0-0.4l0-0.2c0-0.3-0.1-0.6-0.3-0.8l-0.4-0.2c-0.3,0-0.5,0-0.8,0h0
		C128.5,27,128.3,27.2,128.2,27.4z M122.4,39.6L122.4,39.6l0.5,0l0,0l0,0c0.8,0.1,1.3-0.2,1.3-0.9l0.4-2.1v-0.4
		c0.1-0.5,0.2-1.1,0.3-1.7l0.4-2.4l0-0.1l0.1-0.2v-0.3c0.1-0.1,0.1-0.2,0.1-0.3l0,0l0.2-1l0-0.1c0.1-0.1,0.1-0.3,0.1-0.7l0.4-1.7
		l0.1,0v-0.3c0-0.2-0.1-0.3-0.4-0.3c-0.1,0-0.4,0-0.8,0h0c-0.2,0-0.4,0-0.4,0.1c0,0-0.2,0-0.4-0.1c-0.3,0-0.5,0.2-0.6,0.6
		c-0.1,0.4-0.2,1-0.4,1.6c0,0.2-0.1,0.4-0.1,0.6c0,0-0.1,0.4-0.2,1.2s-0.2,1.3-0.2,1.6l0,0.1h0l-0.1,0.1l0,0.1
		c-0.1,0.3-0.2,1.1-0.4,2.3l-0.1,0.1L122.4,39.6L122.4,39.6z M120.3,27.6l0.1,0.1h0L120.3,27.6L120.3,27.6L120.3,27.6z M122.3,39.6
		l0-4.3l-0.1-0.1c-0.2-1.2-0.3-2-0.4-2.3l0-0.1l-0.1-0.1h0l0-0.1c0-0.3-0.1-0.8-0.2-1.6s-0.2-1.2-0.2-1.2c-0.1-0.2-0.1-0.4-0.1-0.6
		c-0.1-0.7-0.3-1.2-0.4-1.6c-0.1-0.4-0.4-0.6-0.6-0.6c-0.2,0-0.4,0-0.4,0.1c-0.1,0-0.2-0.1-0.4-0.1h0c-0.4,0-0.7,0-0.8,0
		c-0.3,0-0.4,0.1-0.4,0.3v0.3l0.1,0l0.4,1.7c0,0.4,0.1,0.6,0.1,0.7l0,0.1l0.2,1l0,0c0,0.1,0,0.2,0.1,0.3v0.3l0.1,0.2l0,0.1l0.4,2.4
		c0.1,0.6,0.2,1.2,0.3,1.7v0.4l0.4,2.1c0.1,0.7,0.5,1,1.3,0.9l0,0l0,0h0.4l0.1,0v0H122.3z M112.3,29.4L112.3,29.4l0.2,0l0,0v0l0.2,0
		h0.2c0.4,0,0.7,0.1,0.9,0.4c0,0.2,0,0.4,0.1,0.4v0.1l0.1,0.4l0,0l0.1,0.2c-0.1,0-0.1,0.1-0.1,0.2v0l0,0.1c0,0-0.1,0.1-0.1,0.2
		l0,0.1c-0.3,0.4-0.4,0.7-0.4,0.7c0,0.2-0.4,0.3-1.3,0.4c-0.3,0-0.4-0.3-0.4-1l0,0l-0.1-0.4h0c0-0.3-0.1-0.6-0.1-0.8v-0.1
		c-0.1-0.1-0.1-0.3-0.1-0.6l0-0.1l0.1-0.1C111.9,29.4,112.2,29.4,112.3,29.4z M111.9,34.4L111.9,34.4L111.9,34.4L111.9,34.4l0.1,0.2
		l0,0.1c0.1,0.1,0.1,0.2,0.2,0.3l0,0.1l0.1,0.3l0,0l0,0l0.1,0.2l0.1,0l0,0l0.1,0.1l0,0.1l0.1,0.3l0.1,0c-0.1,0,0.1,0.5,0.6,1.3
		l0.1,0l0,0l0.1,0.1l0.1,0l0,0c0.2,0.5,0.4,0.9,0.6,1.3l0.3,0.4c0,0.1,0.2,0.1,0.5,0.2s0.6,0,1,0l0,0c0.3,0,0.4-0.1,0.4-0.3
		c-0.1-0.4-0.2-0.7-0.5-1l-0.2-0.4c0-0.1-0.1-0.3-0.2-0.5l-0.1,0l0-0.1l0.1,0l0,0c-0.1-0.2-0.2-0.4-0.3-0.7l-0.1-0.1
		c0,0,0-0.2-0.2-0.5l-0.1-0.1c0,0,0-0.2-0.2-0.7l-0.1-0.1c0,0,0-0.1,0-0.2l0-0.1l-0.1-0.1l0.1,0l0-0.1l0-0.1l-0.1-0.1l0-0.1
		l-0.1-0.2l-0.1,0L114,34c0.3,0,0.5-0.1,0.7-0.3l0.1,0c0.2-0.1,0.4-0.4,0.6-0.6l0-0.1c0.4-0.4,0.6-0.8,0.6-1.3l0-0.1
		c0-0.1,0-0.2,0-0.3v-0.4l-0.1-0.5l0,0l0-0.1c0-0.5-0.1-0.9-0.3-1.2c-0.2-0.4-0.4-0.6-0.4-0.6c-0.2-0.4-0.6-0.8-1.1-1.1
		c-0.6-0.1-1.1-0.3-1.2-0.4h-0.5l-0.1,0c-0.1-0.1-0.4-0.1-1-0.2l-0.2,0c-0.1,0-0.3-0.1-0.6-0.1c-0.2,0-0.6,0.1-1.1,0.3l-0.3,0.4
		l0,0.1v0.1l0,0.1l0.1,0c0,0.1-0.1,0.2-0.1,0.4c0,0,0.1,0.1,0.1,0.2v0.3l0,0.1h0c0,0.1,0,0.2,0.1,0.3l-0.1,0.1
		c0,0.1,0.1,0.2,0.1,0.4v0l-0.1,0.1c0,0,0,0.1,0.1,0.3l-0.1,0.1l0.1,0.1l0,0.2v0.1l0,0.2l0,0l0.1,0l-0.1,0.1l0,0.2l0,0.1l0,0.1
		l0,0.1l0,0.1l0,0.1l0.1,0.4l-0.1,0c0,0,0,0.1,0.1,0.3l-0.1,0.1c0.1,0.3,0.1,0.4,0.1,0.4l-0.1,0.1l0,0.2l-0.1,0.1l0.1,0.2l0.1,1.7h0
		l0,0.2l0,0.2l0,0.1h0c0,0,0,0.1,0.1,0.3l0,0.1c0,0,0,0.3,0.1,0.6l-0.1,0l0,0.2l0,0.1c0,0.1,0,0.2,0,0.3v0.2l0,0.2l0,0l0,0v0
		l0.1,0.1l-0.1,0.1l0,0.1c0,0.1,0,0.2,0,0.2l0,0.1l0,0v0l0,0.1l0,0l0,0c0,0.5,0,0.9,0,1.2c0.1,0.1,0.4,0.2,1,0.2c0.6,0,1,0,1.1-0.1
		c0.1-0.1,0.1-0.4,0.1-1l0-0.1l0-0.7c0-0.2,0-0.5,0-0.9l0-0.1l0-0.1v-0.3c0-0.2,0-0.4,0-0.7l0.1-0.2l0-0.1l0-0.2l0-0.1l0-0.1V35
		l0-0.1h0l0-0.1l0-0.1l0-0.1c0,0,0-0.1,0.1-0.2L111.9,34.4L111.9,34.4z M111.2,39L111.2,39l0,0.2l-0.2,0v0L111,39H111.2z
		 M110.9,39.1L110.9,39.1L110.9,39.1L110.9,39.1L110.9,39.1z M111.2,36.8v0.1h0L111.2,36.8L111.2,36.8z M105.2,27.1
		c-0.2,0-0.3,0.2-0.3,0.6l0,0.1l0,0.1l0,0.2v0.3l0,0.1l0,0.1v0.4c0,0.5,0,1.3,0.1,2.2l0,0.1l0,0l0,0.1l0,0.1l-0.1,0.6l0,0.1l0,0.1
		l0,0l0,0v0.2c0,0.1,0,0.7,0,1.7v0.1l-0.1,0.5c0,0.2,0,0.5-0.2,0.8l0,0c-0.1,0.4-0.2,0.6-0.2,0.6l0,0l0,0c-0.1,0.4-0.4,0.6-0.7,0.5
		c-0.3,0-0.5-0.1-0.8-0.4c-0.1-0.2-0.2-0.4-0.2-0.4l0-0.1l0-0.1c0-0.1,0-0.2,0-0.3v-0.1c0,0,0-0.1-0.1-0.3l0-0.1
		c0-0.3,0-0.5-0.1-0.5h0l-0.1-0.9v-0.7l0-0.1l0,0l0-0.1v-0.1l0-0.1h0c0,0,0-0.1,0-0.2c0-1.1,0-1.6-0.1-1.6l0,0v-0.2l0-0.3l0,0l0-0.2
		v-0.3l0-0.1c0.1-0.2,0.1-0.4,0.1-0.7v-0.5l0-0.2c0,0,0-0.2,0.1-0.6c0-0.3,0-0.4,0-0.4c0-0.2,0-0.3-0.1-0.4
		c-0.2-0.1-0.4-0.1-0.7-0.2l-0.1,0l-0.1,0l-0.2,0h-0.4c-0.3,0.1-0.5,0.2-0.6,0.2c-0.1,0.1-0.1,0.2-0.2,0.3l0,1.2l0,0.1V29l0,0.1
		l0,0.7l0,0.1l0,0.1c0,0.2,0,0.4,0.1,0.7l-0.1,0.4l0.1,0.4l-0.1,0.1c0,0.1,0.1,0.4,0.1,0.8c0,0.1,0,0.2,0,0.2l0.1,0.3l0,0v0l0.1,0.1
		v0.2c0,0.9,0.1,1.6,0.1,2.2c0.1,0.6,0.2,1,0.2,1.4l0,0.1l0.1,0.7c0,0.5,0.4,1,1.1,1.5c0.3,0.2,0.7,0.3,1.3,0.4h0.2
		c0.1,0.1,0.3,0.1,0.6,0.1c0.1,0,0.2-0.1,0.2-0.1c0.3,0,0.5-0.1,0.5-0.2l0.1,0c0.3-0.1,0.5-0.1,0.5-0.2h0.1c0.3-0.1,0.6-0.3,0.9-0.7
		c0.1,0,0.2-0.3,0.4-0.8c0.2-0.5,0.4-1.1,0.5-1.8l0,0l0.1-0.7l0-0.2V35c0,0,0-0.1,0.1-0.4V34l0-0.1l0,0v-0.4l0-0.2
		c0-0.1,0-0.3,0.1-0.8c0,0,0-0.1-0.1-0.4l0-0.1v-0.1l0-0.1l0,0l-0.1-0.9l0,0l-0.1-0.1c0-0.1,0-0.2,0-0.3v-0.1l0-0.1l0,0v-0.1
		c0-0.1,0-0.3,0-0.4c0-0.4-0.1-0.6-0.1-0.6l0.1-0.2l0-0.1v-0.4l0-0.1l0,0c0-0.1,0-0.2,0-0.4c0-0.1,0-0.2,0-0.3h0l0-0.1l0-0.1
		c0-0.2-0.1-0.3-0.1-0.3h-0.1l-0.1,0l0,0h-0.1l-0.1,0l0,0c-0.2,0-0.5,0-0.7,0l-0.1,0l0,0L105.2,27.1L105.2,27.1z M93.3,27.1
		L93.3,27.1c0,0-0.1,0.1-0.3,0.1l-0.2,0l-0.2,0.1c-0.1,0.1-0.1,0.2-0.2,0.2c-0.2,0.3-0.3,0.5-0.5,0.6c-0.2,0.5-0.3,1.1-0.3,1.8
		l0,0.1l0,0l0,0.1c0,0.1,0.1,0.4,0.1,0.8c0,0.2,0.1,0.5,0.2,0.8c0.1,0.3,0.4,0.7,0.8,1.2c0.5,0.4,0.7,0.6,0.7,0.6
		c0.4,0.3,0.6,0.5,0.6,0.5c0.9,0.8,1.4,1.5,1.5,1.9l0,0.3l0,0.1c0,0.1-0.2,0.4-0.6,0.8c-0.2,0.1-0.5,0.2-0.8,0.2
		c-0.2-0.1-0.4-0.1-0.5-0.2c-0.2,0-0.3-0.2-0.4-0.4l-0.2-0.4l-0.1-0.6l0-0.1c-0.1-0.2-0.1-0.3-0.1-0.3c0-0.2-0.2-0.3-0.3-0.3
		l-0.4-0.1L92,35.2l-0.1,0c-0.2,0.2-0.3,0.3-0.3,0.3c-0.2,0.2-0.2,0.4-0.2,0.4l0,0.4l0,0.1l0,0.1h0l0.1,0.2l0,0l0,0l0,0.1h0
		c0.1,0.3,0.1,0.6,0.2,1c0.2,0.6,0.4,0.9,0.6,0.9c0,0.1,0.1,0.2,0.2,0.2c0,0.1,0.3,0.2,0.7,0.4c0.4,0.1,0.9,0.2,1.4,0.3l0,0l0,0
		l0.1,0c0.2,0,0.4,0,0.5,0c0.1,0,0.2,0,0.3,0c0.7-0.3,1-0.4,1-0.4c0.3-0.2,0.5-0.3,0.7-0.5c0.3-0.4,0.4-0.6,0.4-0.6
		c0.2-0.4,0.4-0.8,0.5-1.3l0-0.1c0-0.4,0-0.8-0.1-1l0,0l-0.2-0.3c0-0.3-0.2-0.7-0.6-1.1c-0.1-0.3-0.3-0.4-0.3-0.4l0-0.1
		c-0.1-0.1-0.2-0.2-0.2-0.3c-0.2-0.3-0.3-0.5-0.3-0.5c-0.8-0.6-1.3-1.1-1.6-1.4c-0.6-0.7-0.8-1.3-0.9-1.9c0-0.3,0.1-0.6,0.5-0.8
		c0.4-0.2,0.8-0.2,1.1,0c0.2,0.2,0.3,0.6,0.2,0.9c0.1,0.6,0.1,0.9,0.2,1l0.2,0.2c0.1,0.1,0.3,0.2,0.5,0.2c0.1,0,0.3,0,0.6-0.1
		s0.4-0.3,0.4-0.5l0.1-0.2c0,0,0-0.3,0-0.7s-0.1-0.7-0.1-0.9c0-0.3-0.2-0.6-0.4-0.9c-0.1-0.1-0.1-0.2-0.2-0.1
		c-0.2-0.2-0.4-0.3-0.6-0.3c-0.2-0.1-0.6-0.2-1.1-0.3l-0.1,0c-0.1,0-0.2,0-0.2,0l0,0l0,0l-0.4,0l-0.2,0l0,0l-0.1,0l-0.1,0l0,0
		l-0.1,0C93.4,27.1,93.3,27.1,93.3,27.1z"/>
</g>
</svg>
