<?xml version="1.0" encoding="utf-8"?>
<!-- Generator: Adobe Illustrator 25.2.1, SVG Export Plug-In . SVG Version: 6.00 Build 0)  -->
<svg version="1.1" id="Layer_1" xmlns="http://www.w3.org/2000/svg" xmlns:xlink="http://www.w3.org/1999/xlink" x="0px" y="0px"
	 viewBox="0 0 137.5 81.6" style="enable-background:new 0 0 137.5 81.6;" xml:space="preserve">
<style type="text/css">
	.st0{fill:#FF0013;}
	.st1{fill-rule:evenodd;clip-rule:evenodd;fill:#FFFFFF;}
</style>
<g id="Layer_1_1_">
	<g id="casee_25_" transform="matrix( 1, 0, 0, 1, 0,0) ">
		<g transform="matrix( 1, 0, 0, 1, 0,0) ">
			<g>
				<g id="CaseMc_1_0_Layer0_0_FILL_25_">
					<path class="st0" d="M20.1,67.9L20.1,67.9c0.4,0.1,0.6,0.2,0.6,0.3c0.2,0,0.3-0.1,0.2-0.2c-0.1-0.1,0.1-0.1,0.3-0.1h0.1
						c-0.1,0-0.1-0.1-0.2-0.1c-0.1-0.1-0.1-0.1-0.2-0.1c-0.2,0-0.3,0-0.4,0l-0.1,0.1C20.3,67.8,20.2,67.8,20.1,67.9 M19.5,68.1h0.1
						C19,68,18.7,68,18.7,68.2C19.1,68.2,19.3,68.2,19.5,68.1 M17.8,64.4c0.1,0.1,0.1,0.3,0.1,0.5c0.2,0,0.4-0.1,0.4-0.2
						c-0.3-0.1-0.4-0.2-0.3-0.4c0,0,0-0.1,0.1-0.1c0.2-0.1,0.2-0.2,0-0.2c-0.4,0-0.5,0-0.4,0.2C17.8,64.3,17.8,64.3,17.8,64.4
						 M18.8,62.1c0.1,0,0.2,0,0.3-0.1c0-0.1,0-0.1-0.1-0.1C18.8,61.6,18.7,61.7,18.8,62.1 M19.2,58.5h-0.1c0.4-0.1,0.3-0.2-0.3-0.2
						l-0.1,0.1c0.1,0.1,0.1,0.2-0.1,0.3c-0.3,0-0.4,0.1-0.2,0.3c0.3,0,0.4,0,0.6-0.1C19.3,58.7,19.4,58.6,19.2,58.5 M20.8,62.4
						c0.1,0,0.1,0,0.2,0c0.8,0,0.9,0,0.4-0.1c-0.2-0.1-0.4-0.2-0.6-0.3h-0.1c-0.7,0-1,0.1-0.9,0.4C20.2,62.4,20.5,62.4,20.8,62.4
						 M20.4,61.2C20.4,61.1,20.4,61.1,20.4,61.2c-0.8-0.2-1,0-0.7,0.3C20.1,61.5,20.3,61.4,20.4,61.2 M20.8,59.9c0.1,0,0.1,0,0.2,0
						h0.2c-0.1-0.1-0.3-0.2-0.7-0.2h-0.2C20.5,59.8,20.6,59.8,20.8,59.9 M20.1,58c0.1,0,0.3,0,0.4,0h0.1c0.1-0.2,0.1-0.3-0.1-0.3
						c-0.1,0-0.2-0.1-0.2-0.1c-0.2-0.1-0.4-0.2-0.7-0.2c-0.1,0-0.1,0-0.2,0c-0.4,0-0.5,0-0.5,0.1c0.1,0.2,0.3,0.4,0.6,0.6
						C19.7,58,19.9,58,20.1,58 M21.5,59.5c0.3,0.1,0.4,0.1,0.3,0s-0.4-0.2-0.9-0.2c-0.6,0-1.1-0.1-1.6-0.2c-0.4-0.1-0.6-0.1-0.8,0
						c0-0.2,0-0.2-0.2-0.2S18,58.8,18,58.8l0,0c0,0.1-0.1,0.2-0.5,0.1c-0.2,0.1,0,0.2,0.4,0.3c0.1,0,0.2,0,0.3,0.1
						c0.2,0.2,0.4,0.3,0.6,0.5c0.1,0,0.1,0.1,0.1,0.1c0,0.2,0.1,0.3,0.3,0.3c0.4,0,0.7,0,0.8,0.2c0,0,0.1-0.1,0.2-0.1
						c0.2-0.1,0.2-0.2,0-0.3c-0.3-0.1-0.7-0.1-1-0.2c0-0.2,0.1-0.3,0.3-0.3l0.1-0.1c-0.1,0-0.2,0-0.3,0c-0.3-0.1-0.3-0.1-0.1-0.1
						C20,59.4,20.7,59.5,21.5,59.5 M21.5,58c0.1,0,0.1,0,0.2,0s0.2,0,0.2,0c0.6,0,0.7-0.1,0.4-0.2h-0.1C21.9,57.8,21.6,57.9,21.5,58
						 M14.4,69.5c0.1,0,0.1,0,0.2,0c0.7-0.2,1.2-0.4,1.4-0.9l0,0C15.4,68.9,14.9,69.2,14.4,69.5 M14.3,60.3
						c-0.1-0.2,0.1-0.3,0.4-0.4c0.5-0.1,0.9-0.3,1.1-0.5c-0.8,0.2-1.6,0.4-2.4,0.6c-0.1,0-0.2,0-0.2,0c-0.1,0-0.2,0-0.3,0v0.3
						c0.1,0.1,0.1,0.1,0.1,0v-0.1c0.4,0,0.7,0.1,0.8,0.3C13.9,60.4,14.1,60.4,14.3,60.3L14.3,60.3 M15.8,58.4c0,0,0.1-0.1,0.1-0.2
						c0-0.1,0.1-0.1,0.3-0.1h0.2c0-0.1-0.1-0.1-0.2-0.2h-0.1C15.6,58,15.6,58.2,15.8,58.4 M16.5,59.2L16.5,59.2
						c-0.6-0.1-0.8,0-0.5,0.3C16.2,59.4,16.4,59.4,16.5,59.2 M16.5,58.8c0.1,0,0.1,0,0.1,0l0.1-0.1c-0.1-0.2-0.3-0.3-0.4-0.4
						l-0.1-0.1C16.1,58.5,16.1,58.7,16.5,58.8 M13.8,56c0.6,0,0.7-0.1,0.4-0.2l-0.1-0.1c-0.2,0-0.4,0-0.6,0
						C13.4,55.8,13.5,55.9,13.8,56 M13.7,55.1c0.1,0,0.3,0,0.4,0h0.1c-0.3-0.3-0.5-0.2-0.7,0C13.6,55.1,13.6,55.1,13.7,55.1
						 M12.5,56.3c0.4,0.1,0.5,0,0.4-0.1c-0.1-0.2-0.1-0.3,0.3-0.4v-0.1c0.1-0.1,0.1-0.2-0.1-0.2c-0.1,0-0.1,0-0.2,0
						c-0.1,0-0.2,0-0.1,0.1C12.7,56,12.7,56.2,12.5,56.3 M12.9,54.1h-0.2c0.1,0.1,0.2,0.3,0.5,0.4c0.1,0,0.1,0,0.1,0
						c0.3,0,0.6,0,0.9,0.2c0.4,0,0.3-0.1-0.2-0.2C13.6,54.2,13.2,54.1,12.9,54.1 M13,52.1c0.1,0,0.2,0,0.2-0.1
						c0.2-0.3,0.1-0.4-0.2-0.3C12.6,51.8,12.6,51.9,13,52.1 M14.1,51.7c0.2,0,0.4-0.1,0.5-0.2l0.1-0.1
						C14.3,51.3,14.1,51.4,14.1,51.7 M14.6,51.7L14.6,51.7c0.1,0.1,0.3,0.2,0.5,0.2c0.4,0,0.7,0,0.8-0.1c0,0,0.1,0,0-0.1
						c-0.1-0.2-0.3-0.2-0.5,0C15.4,51.8,15.1,51.8,14.6,51.7 M14.3,52.5C14.3,52.5,14.3,52.4,14.3,52.5c-0.5-0.1-0.7-0.1-0.8-0.2
						c-0.1-0.1-0.1-0.1,0-0.1s0.1-0.1,0.2-0.1c0.3-0.1,0.2-0.2-0.1-0.1c-0.1,0-0.2,0-0.2,0.1c-0.1,0-0.2,0.1-0.1,0.3
						c0.1,0.1,0.2,0.2,0.5,0.3c0.1,0,0.1,0,0.2,0C14.3,52.7,14.5,52.7,14.3,52.5 M16.5,48.7c0.3,0.1,0.4,0,0.4-0.2
						c0-0.1,0-0.1-0.1-0.1C16.2,48.3,16.1,48.4,16.5,48.7 M15.1,50.3c0.1,0,0.2,0,0.3-0.1v-0.1c-0.1-0.6-0.3-0.8-0.7-0.4l-0.1,0.1
						C14.9,49.7,15.1,49.9,15.1,50.3 M20.4,54.8L20.4,54.8c-0.2-0.1-0.4-0.1-0.8,0c-0.2,0-0.2,0.1,0.2,0.2
						C20.2,55.1,20.4,55,20.4,54.8 M18.8,56.5c0-0.1-0.1-0.1-0.1-0.1c-0.5,0-0.6,0.1-0.3,0.3C18.7,56.7,18.9,56.7,18.8,56.5
						 M17.4,55.1L17.4,55.1c-0.1-0.1-0.3-0.3-0.5-0.4c0.1,0.2-0.2,0.2-0.8,0.2c-0.5,0-0.8-0.1-1.1-0.2h-0.1c0.2,0.2,0.5,0.3,1,0.5
						c0.1,0,0.1,0,0.1,0.1l0,0c-0.4-0.1-0.6,0-0.6,0.2c0.4,0,0.8-0.1,1.2,0h0.1c0-0.1,0.2-0.1,0.7,0C17.3,55.3,17.3,55.2,17.4,55.1
						 M18.4,55.3h-0.2c0.2,0.1,0.4,0.3,0.5,0.4l0,0c-0.1,0.1,0.1,0.2,0.8,0.2c0.6,0,1,0.1,1.2,0.4c0.1,0,0.1,0,0.2,0s0.1,0,0.2,0
						c0.2,0,0.3-0.1,0.3-0.2c-0.1-0.2-0.3-0.3-0.8-0.3c-0.1,0-0.3,0-0.4,0c-0.4,0-0.6-0.1-0.5-0.3v-0.1c0.1-0.1-0.1-0.2-0.8-0.3
						h-0.2C18.8,55.2,18.6,55.3,18.4,55.3 M11,55.8L11,55.8c0.1,0.1,0.2,0.1,0.4,0.2c0.1,0,0.2,0,0.3-0.1
						C11.6,55.8,11.3,55.8,11,55.8 M10.4,51.8c0.1,0,0.1,0,0.2,0c0.1,0,0.2,0,0.3-0.1c0.2-0.1,0.1-0.2-0.1-0.2c-0.1,0-0.2,0-0.2-0.1
						C10.6,51.6,10.5,51.7,10.4,51.8 M12,53.6c-0.4,0-0.4,0.2,0.1,0.4c0.3,0,0.5,0,0.4-0.1c0-0.1-0.1-0.1-0.1-0.1
						C12.3,53.7,12.2,53.7,12,53.6L12,53.6 M9.6,56.1L9.6,56.1l0.1,0.2c0.2-0.1,0.3-0.1,0.5-0.1l0,0C10.4,56.1,10.2,56.1,9.6,56.1
						 M8.5,52.3l-0.2,0.1c0.1,0,0.2,0.1,0.4,0.2C9.5,52.4,9.5,52.4,8.5,52.3 M9.3,52.6c-0.2,0.1-0.1,0.2,0.3,0.3
						c0.1,0,0.2,0,0.2-0.1c0,0,0.1,0,0.2,0c0.5-0.1,0.5-0.1,0-0.1H9.9C9.5,52.5,9.3,52.5,9.3,52.6 M9,53.7c0.1,0,0.3-0.1,0.5-0.1
						s0.5,0,0.8,0c0.5,0.1,0.8,0.1,0.8-0.1c-0.8,0-1.4-0.1-1.5-0.3H9.3C9.1,53,9,52.9,8.9,52.9s-0.1-0.1-0.1-0.1
						c-0.5-0.1-0.6-0.1-0.3,0l0,0l0.1,0.1C8.7,53,8.7,53,8.6,53c-0.4,0-0.6,0-0.7-0.2H7.8c-0.3,0.1-0.3,0.2,0,0.3
						c0.2,0.1,0.4,0.2,0.6,0.3h0.1C8.8,53.5,8.9,53.5,9,53.7 M12,50.2C12,50.2,12.1,50.2,12,50.2c0.1,0.2,0.2,0.3,0.3,0.4
						c0.1,0,0.1-0.1,0.1-0.2c0-0.1,0-0.2,0-0.3h0.1c0.1,0,0.3,0,0.4,0c0.2,0.1,0.4,0.1,0.6,0.2c0,0-0.1,0-0.1,0.1
						c-0.1-0.1-0.2-0.2-0.4-0.2h0c0.1,0.3,0.2,0.8,0.2,1.3c0.1,0,0.1,0,0.1-0.1s0.1-0.2,0.2-0.3c0-0.1,0.1-0.1,0.1-0.2l0,0
						c0.1,0,0.2,0,0.3-0.1l0,0c0.2,0,0.3,0,0.3-0.1l0,0c0.2-0.1,0.2-0.2-0.1-0.2H14v0.1c0-0.1-0.1-0.1-0.1-0.2l0,0
						c0.1-0.2,0-0.3-0.3-0.4c-0.2-0.1-0.5-0.1-0.7-0.1c-0.3-0.2-0.5-0.2-0.5,0.1c-0.1-0.1-0.2-0.1-0.3-0.1c0,0-0.1,0-0.1,0.1v0.1
						C11.8,50.1,11.8,50.1,12,50.2 M10.3,50.5c0,0.1,0.1,0.2,0.1,0.2h0.1c0.7,0,0.9,0.1,0.6,0.2c-0.2-0.1-0.4-0.1-0.3,0
						c0,0.3-0.1,0.3-0.3,0.2c-0.1,0-0.1-0.1-0.2-0.1c-0.2-0.2-0.4-0.2-0.5,0.1c0,0,0,0.1,0,0c0.2,0.1,0.5,0.1,0.7,0.1
						c0.1,0,0.1,0,0.1,0c0.2-0.1,0.4,0,0.5,0.3c0.7,0,0.7-0.1,0.2-0.4C11,51,11,50.9,11.2,50.9c0.1,0,0.2,0,0.2,0
						c0.1,0.1,0.2,0.2,0.4,0.2c0.5,0.1,0.6,0.2,0.1,0.2c0.2,0.1,0.4,0.1,0.5,0c0,0,0.1-0.1,0.2-0.1c0-0.1,0.1-0.1,0.1-0.1
						c0.1-0.1,0-0.2-0.2-0.2c-0.1,0-0.3,0-0.4,0c-0.1,0.1-0.1,0,0.2-0.1c-0.1-0.2-0.2-0.3-0.4-0.4h-0.1c-0.1,0-0.1,0.1-0.2,0.1
						C11.2,50.6,10.7,50.6,10.3,50.5 M11,45.8c0,0.1,0,0.2,0,0.2c0.1,0,0.3-0.1,0.4-0.1l0.1-0.1c-0.1-0.1-0.1-0.2-0.2-0.3
						C11.2,45.7,11.1,45.8,11,45.8 M17.5,42.4c0.1,0,0.2,0,0.2-0.1c0.1-0.4,0.2-0.5,0.4-0.2l0.1,0.1c0-0.1,0.1-0.2,0.2-0.3l0.1-0.1
						C18.1,41.4,17.7,41.6,17.5,42.4 M18.4,40.2c0.1,0.2,0.3,0.3,0.5,0.5c0.2,0,0.3-0.2,0.2-0.6c0-0.1,0-0.1,0-0.1
						c0.3,0.2,0.4,0,0.3-0.5l0,0C19,39.7,18.7,39.9,18.4,40.2C18.4,40.1,18.4,40.2,18.4,40.2 M19,38.2c-0.2-0.1-0.5-0.2-0.7-0.2
						l0.2,0.4c0.1-0.1,0.2-0.1,0.4-0.2H19 M20.4,34c0.5,0,0.7,0,0.5-0.3c-0.1,0-0.1-0.1-0.1-0.1C20.1,33.5,20,33.6,20.4,34
						 M16.2,42.3c0.4-0.2,0.5-0.4,0.4-0.7c-0.1-0.1-0.1-0.1-0.1-0.1c0.6-0.1,0.8-0.4,0.7-0.8c-0.3,0.4-0.7,0.7-1,1
						C16.2,41.9,16.2,42.1,16.2,42.3 M15.5,31.5c-0.3,0.1-0.4,0.3-0.5,0.7l0.1,0.1c0.4,0.1,0.6-0.1,0.5-0.6L15.5,31.5 M20,32.2
						c0.3,0,0.5,0,0.8,0H21c-0.1-0.3-0.1-0.6,0.1-0.9C21,31.1,20.8,31,20.5,31c-0.1,0-0.2,0-0.2,0.1s0,0.2,0,0.3l0.1,0.1
						C20,31.5,19.9,31.7,20,32.2 M17.8,30.8c-0.4-0.4-0.6-0.1-0.4,0.7C17.6,31.4,17.8,31.2,17.8,30.8L17.8,30.8 M16.7,22.1
						c0.2-0.4,0.1-0.5-0.4-0.3C16.2,22,16.1,22,16,22c-0.5,0.1-0.8,0.3-1.1,0.6l-0.1,0.1c-0.2-0.2-0.5-0.3-0.9-0.2
						c-0.5,0.1-0.8,0.2-0.9,0.5c0.2-0.1,0.5-0.1,1,0h0.1c0.2-0.1,0.5-0.1,0.9,0c0.1,0,0.2,0,0.3-0.1c0.2,0,0.4,0,0.6,0
						c0.5,0,0.9-0.1,1-0.2v-0.1C16.9,22.4,16.8,22.3,16.7,22.1 M9,17.3c-0.7,0.1-0.8,0.3-0.3,0.5c0.7,0,1.3,0,1.6-0.2
						c0,0,0.1,0,0.2,0c0.5-0.3,0.4-0.4-0.4-0.3C9.6,17.2,9.3,17.2,9,17.3 M1,11.4c-0.1,0-0.1,0-0.1,0.1c0.2,0.1,0.3,0.2,0.5,0.3
						c0.1,0,0.2,0,0.2,0C1.7,11.4,1.5,11.3,1,11.4 M0.2,7.4c0.2-0.1,0.2-0.3,0.1-0.5l0,0C-0.1,7-0.1,7.1,0.2,7.4 M45.1,70.7
						c0.8,0,1.4,0,1.7-0.1H47C46.1,70.5,45.4,70.6,45.1,70.7 M53.1,71.4c1.2,0,1.8-0.2,1.9-0.5l0,0C53.5,70.8,52.9,71,53.1,71.4
						 M25.9,72.4c0.6-0.1,0.9-0.2,1-0.4c0-0.1,0.1-0.2,0.1-0.2c0.5-0.1,0.5-0.2,0.1-0.4l0,0C26.7,71.8,26.3,72.1,25.9,72.4 M39.7,71
						c0.3,0,0.5,0,0.6,0c0.3-0.2-0.2-0.3-1.5-0.3h-0.3C38.8,70.8,39.2,70.9,39.7,71 M37.9,65.6c-0.4,0.1-0.1,0.3,1,0.5
						c0.6,0,0.9,0,1.1-0.1c0,0,0.1-0.1,0-0.1c-0.1-0.1-0.3-0.1-0.6-0.2C38.7,65.5,38.2,65.5,37.9,65.6 M38.5,66.7
						c-1.7-0.1-1.8-0.1-0.5,0.1c1.7,0.1,2.7,0.3,3,0.6c1.1,0,1.9,0,2.4-0.1c-1-0.1-2-0.3-3-0.3C40.3,66.8,39.6,66.8,38.5,66.7
						 M37.3,59.9c1.1,0,1.6,0,1.7,0c0.1-0.1-0.3-0.2-1.2-0.2C37.6,59.7,37.4,59.8,37.3,59.9 M40.1,60.6h-0.3c-1.2,0-1.1,0.1,0.1,0.3
						C40.5,60.8,40.6,60.7,40.1,60.6 M33.6,69.1c-0.2,0-0.4,0-0.6,0c-0.6,0-1.1,0-1.6,0v0.2c0.2,0,0.4,0,0.5,0c0.2,0,0.3,0,0.5,0
						v-0.1c0.1,0,0.2,0,0.3,0c0.2,0,0.5,0,0.7,0c0.8,0.1,1.4,0.1,2.1,0C35.1,69.2,34.4,69.1,33.6,69.1 M33,59.7
						c-0.3-0.1-0.6-0.1-0.9,0.1c-0.1,0-0.2,0.1-0.4,0.1c-0.4,0.1-0.1,0.3,0.8,0.5h0.2c-0.5-0.2-0.2-0.3,0.7-0.4h0.3
						C33.5,59.9,33.3,59.8,33,59.7 M36.9,62.3c-1.6-0.2-1.9-0.1-1.1,0.3c1.2,0.1,1.6,0,1.2-0.2L36.9,62.3 M35,60.8
						c0.2,0,0.2,0,0.2,0c-0.1-0.2-0.5-0.3-1.2-0.3l-0.2,0.1C34.1,60.7,34.5,60.8,35,60.8 M31.3,66h0.2c-0.2-0.2-0.6-0.3-1-0.3h-0.2
						c0.3,0,0.4,0.2,0.5,0.4H31C30.9,66,30.9,66,30.9,66H31l0,0C31.1,66,31.2,66,31.3,66 M31.5,66L31.5,66c-0.1,0-0.2,0-0.3,0
						c0.5,0,0.9,0.1,1.3,0.3c0.5,0,1,0,1.4,0h0.3C33.6,66.2,32.7,66.1,31.5,66 M28.7,65.5c0.6,0,0.7-0.1,0.4-0.2c-0.1,0-0.1,0-0.2,0
						C28.2,65.2,28.2,65.3,28.7,65.5 M27.4,63.8h0.2c0-0.1-0.1-0.1-0.2-0.2l-0.1-0.1c-0.6-0.1-0.6,0-0.1,0.3
						C27.3,63.8,27.3,63.8,27.4,63.8 M27.5,59.8c0.4,0.1,0.6,0,0.4-0.3c0,0,0,0-0.1,0C27.3,59.5,27.2,59.6,27.5,59.8 M27.6,58
						c0.5,0.1,0.7,0,0.6-0.3c0-0.1-0.1-0.2-0.3-0.1C27.3,57.6,27.2,57.7,27.6,58 M29,58.1L29,58.1c-0.5-0.1-1-0.1-1.4,0
						C28.1,58.2,28.6,58.2,29,58.1 M32,62h-0.2c0.2,0.2-0.1,0.4-0.9,0.5c1.1,0.1,1.7,0.1,2,0h0.2c-0.4-0.1-0.6-0.2-0.7-0.3
						C32.3,62.1,32.2,62,32,62 M26.9,69.1c0.1,0,0.3,0,0.3-0.1c0.1,0,0.1,0,0.2-0.1c0.1,0,0.3-0.1,0.5-0.1h0.2
						c-0.1-0.2-0.2-0.3-0.5-0.4c0,0-0.1,0-0.2,0c-0.6-0.1-0.7-0.1-0.4,0c0.6,0.1,0.7,0.2,0.2,0.3c-0.1,0.1-0.2,0.1-0.2,0.1
						C26.8,68.9,26.7,69,26.9,69.1 M22.8,69.1c0.4,0.1,0.6,0.1,0.6-0.1c-0.3-0.1-0.6-0.2-0.9-0.2c-0.1,0-0.2,0-0.2,0
						c-0.1,0.1-0.1,0.2,0.1,0.2C22.7,68.9,22.8,68.9,22.8,69.1 M22.6,64C22.7,64,22.7,64,22.6,64c-0.2-0.1-0.4-0.1-0.5,0L22,64.1
						c-0.2-0.2-0.5-0.2-0.9-0.2c0.1,0.1,0.2,0.2,0.2,0.3C22,64.3,22.4,64.2,22.6,64 M22.5,63.2c0.5,0,0.8,0,0.9-0.1s0.1-0.1,0-0.1
						C22.9,62.9,22.6,63,22.5,63.2 M22.3,58.7c0.7,0,0.7,0,0.2-0.1h-0.1c0.2-0.2-0.1-0.3-0.8-0.3h-0.2C21.7,58.3,22,58.5,22.3,58.7
						 M23.7,59.3c-0.2,0.1-0.1,0.3,0.3,0.5c0.1,0,0.1-0.1,0.2-0.1s0.1,0,0.1,0c0.4-0.1,0.3-0.2-0.2-0.3c-0.1,0-0.2,0-0.3,0
						L23.7,59.3 M26,60.6c0.5,0,0.6-0.1,0.3-0.2h-0.1C25.8,60.3,25.7,60.4,26,60.6 M27,60.5L27,60.5c0.1,0.1,0.4,0.2,0.8,0.1
						c0.3-0.1,0.7-0.1,1.1-0.1c0.1,0,0.2-0.1,0.2-0.1c0-0.1,0.1-0.2,0.4-0.2c0.1,0,0.2,0,0.4,0v0.1c1,0.2,1.2,0.4,0.7,0.7
						c0.2,0,0.3,0,0.5-0.1c2.1,0.1,2.4-0.1,0.9-0.5c-0.4-0.1-0.8-0.1-1.2-0.3V60c-0.2-0.1-0.4-0.1-0.5,0.1l0,0c-0.1,0-0.2,0-0.3-0.1
						h-0.1h-0.1c-0.3,0-0.6,0-1.1,0s-1,0-1.5,0c-0.3,0.1-0.2,0.1,0.2,0.1c0.6,0,0.8,0,0.6,0.1c-0.2,0-0.4,0-0.6,0.1
						C27.3,60.4,27.1,60.4,27,60.5 M27.2,62.2c-0.3-0.2-0.5-0.1-0.4,0.3c0.5,0.1,0.7,0,0.6-0.2C27.3,62.3,27.3,62.3,27.2,62.2
						 M25.5,60.4L25.5,60.4c-0.3-0.2-0.7-0.3-1.3-0.3c-0.3,0-0.5,0-0.6,0.1l-0.1,0.1c-0.4-0.2-0.8-0.3-1.2-0.2
						c-0.2,0-0.2,0.1,0.1,0.1c1.1,0.1,1.8,0.3,2.1,0.8C25.1,61,25.5,60.7,25.5,60.4 M24.9,62.9L24.9,62.9c-0.4,0-0.6,0.2-0.6,0.4
						C24.9,63.3,25,63.2,24.9,62.9 M23.1,55.7c-0.2-0.2-0.4-0.3-0.7-0.2l-0.1,0.1c0.2,0,0.4,0.1,0.5,0.2c0.3,0.2,0.4,0.3,0.3,0.4
						c0.3,0,0.4-0.1,0.4-0.2c0-0.3,0.1-0.3,0.3-0.2h0.1l0.1-0.1c0.3,0,0.5,0,0.5-0.1c0-0.2-0.1-0.2-0.1-0.1c-0.1-0.1-0.2-0.1-0.2,0
						c-0.1,0-0.1,0-0.2,0c-0.4-0.1-0.6,0-0.6,0.1C23.3,55.9,23.2,55.9,23.1,55.7 M23,56.6c0.1,0,0.1,0,0.1,0l0.1-0.1
						c0.3,0,0.4-0.1,0.3-0.2c0,0-0.1,0-0.2,0C22.7,56.3,22.6,56.4,23,56.6 M27.7,57L27.7,57c0.1-0.1,0.1-0.2-0.1-0.2
						c-0.1,0-0.2,0-0.2,0l-0.2,0.1c0.2,0.1,0.2,0.3,0.1,0.4C27.8,57.2,27.9,57.1,27.7,57 M22,23.7c-0.1-0.1-0.3-0.2-0.5-0.1
						c-0.4,0.1-0.6,0.4-0.6,0.7c0,0.3,0.2,0.5,0.5,0.6c0.4-0.1,0.7-0.2,0.9-0.4l0.1-0.1c0.3,0.1,0.3,0,0-0.3c0-0.2-0.1-0.4-0.3-0.4
						C22.1,23.7,22,23.7,22,23.7 M25.3,23h0.1l-0.1-0.4C25,22.5,25,22.7,25.3,23 M29.3,24.6c0.2,0,0.3,0,0.3,0
						c0.1-0.1,0.2-0.1,0.4-0.2c0.2,0,0.4,0.1,0.7,0.1c0.4,0,0.3-0.1-0.5-0.3l-0.3-0.1c-0.5,0.1-1,0.2-1.3,0.1
						C29,24.3,29.2,24.5,29.3,24.6 M38.1,23.9c0.7,0,1.1-0.1,1.2-0.3c0-0.1-0.1-0.1-0.3-0.1C37.6,23.3,37.3,23.5,38.1,23.9 M48.8,68
						c0.1,0,0.1,0,0.2,0c0.9-0.1,1.5,0,1.7,0.3c0.3,0,0.6,0,0.9,0c0.2,0,0.4,0,0.6,0c0.6-0.1,0.5-0.2-0.2-0.3
						c-0.4,0-0.8-0.1-1.3-0.1C49.2,67.8,48.6,67.8,48.8,68 M44.8,63c0.3,0,0.5,0,0.6,0c0.4-0.2,1.1-0.3,2.3-0.2c0.7,0,0.5,0-0.5-0.1
						c-0.1,0-0.3,0-0.4,0h-0.3C45.8,62.7,45.3,62.8,44.8,63 M43.6,62.1c-0.7,0-1.2,0-1.5,0c-0.8,0-0.9,0.1-0.3,0.3
						c0.8,0.2,0.6,0.2-0.6,0.1h-0.3c0-0.2-0.2-0.2-0.7-0.2c-0.2,0-0.3,0-0.3,0.1c-0.1,0.3-0.7,0.4-1.7,0.4c1.2,0.1,2.1,0.1,2.5,0.1
						c0.1,0,0.3,0,0.5,0c0.3,0,0.5-0.1,0.6-0.1c0.9-0.2,1.8-0.2,2.7,0c0.2,0,0.3,0,0.4,0C46.4,62.5,45.9,62.3,43.6,62.1 M46.1,61.5
						h-0.3c-0.2,0.1,0,0.2,0.7,0.2c1.4,0.1,2.4,0.2,3.1,0.3c1,0,1.5-0.1,1.8-0.2l0.1-0.1c-0.5,0-1,0-1.5,0h-0.2c-0.1,0-0.3,0-0.4,0
						C48.1,61.7,47,61.7,46.1,61.5 M44.5,61.4c0-0.1-0.1-0.1-0.3-0.1c-0.2-0.1-0.4-0.1-0.6-0.1C42.9,61,42.2,61,41.7,61l-0.2,0.1
						c0.1,0.2,0.3,0.4,0.6,0.6c0.2,0,0.3,0,0.5,0s0.3,0,0.4,0C44,61.8,44.5,61.7,44.5,61.4 M52.4,20.9c-0.1,0-0.1,0-0.1-0.1
						c0-0.2-0.2-0.3-0.8-0.2h-0.3c0.2,0.3,0.5,0.5,0.8,0.7C52.6,21.2,52.7,21.1,52.4,20.9 M95,68.5c0.3,0,0.7,0,1,0.1
						c1.4,0.1,1.7,0.1,0.8-0.1C95.8,68.3,95.2,68.3,95,68.5 M63,71.2c0.1,0,0.2,0,0.4,0h0.3c-0.2-0.1-0.4-0.1-0.7-0.2
						c-0.5,0-1.1,0-1.6,0.1C62,71.1,62.5,71.1,63,71.2 M65.7,70.1C65.5,70,65.4,70,65.2,70c-0.3,0-0.7,0-1,0c-0.4,0-0.8,0-1.2,0
						c-0.3,0-0.5,0-0.7,0.1c-0.2,0-0.4,0-0.5,0.1c-0.3,0-0.6-0.1-0.8-0.1c-0.4-0.1-0.8,0-1.4,0.1c-0.4,0.1-0.8,0.2-1.1,0.4
						c-0.7,0-1.3-0.1-1.9-0.1c-1.3-0.2-2.8-0.3-4.6-0.3c0-0.1,0-0.1-0.1-0.1c-1.1-0.3-2.7-0.5-4.9-0.5c-0.3,0.1-0.4,0.2-0.2,0.3h0.1
						c0.9,0.1,2.1,0.2,3.6,0.3c0.8,0,1.6,0.1,2.4,0.2c0.8,0.1,1.7,0.1,2.6,0.2c1.2,0.1,1.9,0.2,2,0.3c2,0.1,2.6,0.1,1.9-0.1
						l-0.2-0.1c1.2,0,2.4-0.1,3.5-0.2c0.1,0,0.2-0.1,0.3-0.1C64,70.4,64.9,70.3,65.7,70.1 M77.3,70c0.6-0.1,1.3-0.2,2-0.4
						c0.7-0.1,0.6-0.2-0.6-0.3c-0.9,0-1.3,0-1.1,0.2C77.6,69.6,77.5,69.8,77.3,70 M88.5,71.2c-1.6-0.1-1.9,0-1,0.2
						c0.9,0,1.3,0,1.3-0.1S88.7,71.2,88.5,71.2 M81.1,67.9c-0.6,0.1-0.5,0.2,0.3,0.3c0.7,0,0.6-0.1-0.1-0.3H81.1 M74.4,66.4
						c-0.2,0.1-0.1,0.2,0.3,0.2c1.3,0,1.3-0.1,0-0.2H74.4 M67.5,67c0.3,0,0.5,0,0.5-0.1s0.1-0.2,0.3-0.3c0.6-0.3,0.5-0.5-0.4-0.5
						c-0.1,0-0.3,0-0.5,0c-1.7,0-2.2,0-1.4,0.2h0.1c-0.5,0.2-0.4,0.3,0.4,0.5C67,67,67.3,67,67.5,67 M64.2,65.1
						c-0.7,0.2-0.6,0.3,0.2,0.4c0.6,0,0.8,0,0.6-0.2c-0.1-0.1-0.2-0.1-0.3-0.2C64.5,65.2,64.3,65.1,64.2,65.1 M64.9,63.7l0.2-0.2
						c-1.2-0.1-1.5,0.1-0.9,0.3C65.1,63.8,65.4,63.8,64.9,63.7 M62.7,68.1c0-0.2-0.1-0.4-0.1-0.5s0-0.3-0.1-0.4
						c-0.1-0.2-0.5-0.3-1-0.5c-0.1,0-0.2,0-0.2,0c-0.1-0.2,0-0.3,0.1-0.6c0,0,0-0.1,0,0c-0.5-0.1-1-0.2-1.7,0
						c-0.5,0.2-0.5,0.3,0.1,0.3l0.4,0.1c-0.3,0-0.4,0.1-0.3,0.2c0.1,0.1,0.2,0.1,0.4,0.2c0.1,0.1,0.2,0.2,0.3,0.2
						c0.1,0.1,0.3,0.2,0.5,0.3c0.4,0.3,0.8,0.5,1.3,0.7C62.6,68.1,62.7,68.1,62.7,68.1 M62.3,20.2h0.2c-2-0.2-3.4-0.2-4.2,0
						C60.3,20.3,61.6,20.3,62.3,20.2 M62.4,18.7l0.1-0.1c-0.9,0-1.5,0.1-1.9,0.3C61.7,19,62.3,18.9,62.4,18.7 M80.2,27.3
						c-0.2,0-0.2,0-0.2,0.1c0.1,0.2,0.2,0.4,0.3,0.6c0.2,0,0.3,0,0.5,0l0.2-0.1c-0.4-0.2-0.3-0.3,0.1-0.3c0.3,0,5.6,0.3,5.6,0.2
						C86.5,27.6,80.9,27.2,80.2,27.3 M108,63.9h-0.3c0.4,0.2,0.3,0.3-0.2,0.4h-0.3c0.4,0.2,0.7,0.3,0.8,0.4c1,0,1.2-0.1,0.8-0.3
						c-0.1,0-0.1-0.1-0.1-0.1C108.8,64,108.5,63.9,108,63.9 M103,65.1h-0.3c0.4,0.1,0.9,0.2,1.5,0.3c0.5,0,0.8,0,0.7-0.2
						c0,0,0,0-0.1,0C104.4,65,103.8,65,103,65.1 M103.1,64.5c-1,0-1.2,0-0.5,0.2c0.5,0.1,1,0.2,1.6,0.3c0.7,0.1,1.2,0.1,1.3,0
						C106,64.7,105.2,64.5,103.1,64.5 M101,63.7h-0.5c0.8,0.2,0.6,0.4-0.4,0.6h-0.2c0.2,0.1,0.2,0.2-0.2,0.4
						c0.9-0.1,1.6-0.2,2.3-0.3c0.2,0,0.4,0,0.7-0.1c1.2-0.1,1.9-0.2,2.2-0.5c-0.2,0-0.3,0-0.4,0h-0.3c0.1,0.1-0.2,0.1-0.7,0.1
						c-0.2,0-0.4,0-0.6,0l-0.5-0.1C102.9,63.7,102.4,63.8,101,63.7 M95,66c0.2,0,0.3,0,0.5,0c0.3,0,0.6,0,0.8,0
						c0.8-0.1,1.4-0.1,1.7,0c0.5,0.1,0.9,0.1,1.2,0.1c0.5-0.1-0.1-0.2-1.7-0.2c-0.4,0-0.7,0-1-0.1C95.6,65.9,95.1,65.9,95,66
						 M90.1,64.3c-0.2-0.1-0.4-0.1-0.5,0c-0.7,0.1-0.4,0.1,0.8,0.3c0.2,0,0.2,0,0.2-0.1s0-0.1-0.1-0.1
						C90.3,64.4,90.2,64.3,90.1,64.3 M90.9,65.4c0.2,0,0.3,0,0.4,0c0.7,0.1,1.1,0.2,1.3,0.1c0,0,0.1,0,0.2,0c0.6,0,1.1,0,1.3,0
						c0.4-0.1,1.1-0.2,2.2-0.1c1.5,0,1.8-0.1,0.9-0.3c-0.2,0-0.3,0-0.5,0.1c-0.3,0.1-0.7,0.1-1.2,0c-1.1-0.1-2-0.2-2.7-0.2
						c-0.8,0-1.5,0-2,0.1c-1.4,0.1-1.8,0.3-1.2,0.6C89.8,65.5,90.3,65.4,90.9,65.4 M91.1,64.2L91.1,64.2c0.6,0.1,1.5,0.3,2.6,0.4
						c0.2,0,0.3,0.1,0.4,0.1c0.6-0.1,1,0.1,1.2,0.4c0.3,0,0.6,0,0.8-0.1l0,0c0.5-0.3,0.2-0.5-0.9-0.7c-0.4,0.2-1,0.2-1.9-0.1
						C92.5,63.9,91.8,63.9,91.1,64.2 M95.6,30.1c0.7,0,1.1-0.1,1.2-0.3l0,0C96,29.5,95.6,29.6,95.6,30.1 M93.5,25.6H93
						c0.2,0.1,0.5,0.2,1,0.3c0.6,0.1,1.3,0.1,1.9,0C95.1,25.8,94.3,25.7,93.5,25.6 M104,35.8c0.4-0.1,0.3-0.2-0.2-0.1
						c-0.8,0-1.5,0-1.9-0.1c0.4,0.1,0.9,0.2,1.4,0.3C103.6,35.9,103.8,35.9,104,35.8 M98.6,33.9c0.9,0.1,1.2,0,0.8-0.2
						C98.8,33.3,98.5,33.3,98.6,33.9 M100.9,22.9c0.1-0.1,0.1-0.2,0-0.1c-2-0.3-3.6-0.3-4.8,0.1h-0.2c0.7,0.2,1.3,0.4,1.8,0.6
						c0.9,0.1,1.5,0.1,1.6,0c0.1,0,0.2-0.1,0.3-0.1C100.1,23.2,100.5,23,100.9,22.9 M103,29.8c0.9,0,1.4,0,1.7-0.2
						c0.4-0.4-0.3-0.6-2.4-0.8c-0.9,0-1.3-0.1-1.3-0.3h-0.3c-1.1,0-1.3,0.2-0.7,0.4c0.2,0.1,0.2,0.1,0,0.1s-0.2,0-0.2,0.1
						c0,0.2,0,0.4,0,0.5s0,0.2-0.2,0.2c-0.9,0.1-1.3,0.3-1.2,0.6c0.7-0.1,1.3-0.2,1.9-0.3c0.2,0,0.2,0,0.2-0.1
						c-0.3-0.5-0.1-0.7,0.7-0.5c0.3,0,0.6,0,1,0.1C102.6,29.7,102.8,29.7,103,29.8 M104.1,24.3c-0.1,0-0.2,0-0.1,0.1
						c0.3,0.1,0.7,0.2,1.3,0.3c1.6,0.1,2.1,0.1,1.4,0C105.9,24.5,105,24.3,104.1,24.3 M105,69.4c-0.1-0.1-0.3-0.1-0.4,0
						c-0.1,0.2-0.4,0.3-0.9,0.3C104.9,69.9,105.3,69.8,105,69.4 M115.1,72.5c0.1,0,0.2,0,0.3,0c0.2,0,0.3,0,0.3,0
						c0.2-0.1,0.4-0.3,0.6-0.4C115.9,72.1,115.5,72.3,115.1,72.5 M103,64.3C102.9,64.2,102.9,64.2,103,64.3c-0.9-0.1-1.1,0-0.6,0.4
						c0.1,0,0.2,0,0.3,0C102.8,64.6,102.9,64.5,103,64.3 M93.2,65.6c-0.1,0,23.7-0.9,23.7-0.9c-1.1-0.1-1.3,0-0.7,0.2
						C117.1,65,93.5,65.8,93.2,65.6 M116.8,66.7h-0.5c-0.1,0.1-23.7,1.1-22.9,1.2C94.8,67.9,118.6,66.9,116.8,66.7 M114.7,64.9
						c-0.1-0.1-0.3-0.2-0.6-0.1c-0.6,0-0.6,0.1,0,0.3C114.7,65.1,114.8,65.1,114.7,64.9 M110.5,64.3c1.8,0.1,2.3,0,1.5-0.2
						c-0.4-0.1-0.9-0.2-1.4-0.3c-0.9-0.1-1.2-0.1-0.9,0.1C109.9,64,110.1,64.1,110.5,64.3 M113.3,65.9c-0.3,0-0.6,0-0.8,0.1
						c-0.8,0.1-0.7,0.2,0.1,0.3c0.5,0.1,1.1,0.2,1.8,0.3c0.7,0.1,1,0.1,0.9,0c-0.2-0.2,0-0.3,0.6-0.3c-22.8,0.2-22.6-4.7,0.4-0.3
						c-0.2,0-0.4-0.1-0.4-0.1l-0.1-0.1C115.4,66,114.6,66,113.3,65.9 M92,35.1L92,35.1l0.1-0.4l0,0c0.2-0.1,0.2-0.2,0.2-0.3
						c0,0,0,0-0.1,0c-0.6-0.1,23.2-0.8,23.6-0.5c-0.7,0-1,0-1.1,0.1v0.1C115.4,33.8,91.9,34.8,92,35.1 M111.9,33.7
						c-2.1-0.2-2.3-0.1-0.5,0.3c1.6,0.1,2.2,0.1,1.7-0.1c-0.2-0.1-0.3-0.1-0.5-0.1C112.5,33.8,112.2,33.8,111.9,33.7 M109,32.3
						c1.1,0,1.2-0.1,0.3-0.3c-0.1,0-0.1,0-0.2,0c-0.1-0.1-0.1-0.1-0.2-0.1h-0.3c-1.7,0-1.8,0.1-0.4,0.5
						C108.5,32.3,108.8,32.3,109,32.3C109,32.2,109,32.3,109,32.3 M110.5,34.7c0.2,0,0.3-0.1,0.3-0.1c0.1-0.2,0-0.3-0.3-0.3
						c0.3,0,0.6,0,0.9-0.1l0.3-0.1c-1-0.1-1.8-0.2-2.2-0.1h-0.1c0.3-0.1,0.2-0.2-0.4-0.1c-0.1,0-0.2,0-0.3,0s-0.2,0-0.2-0.1l0.1,0.4
						c0.1,0,0.1,0,0.2,0c0.1-0.1,0.2-0.1,0.3-0.1h0.1h-0.1c0.4,0,0.8,0,1.1,0C110.4,34.4,110.5,34.5,110.5,34.7 M109.1,26.1
						c0.4,0.1,0.7,0,0.7-0.1c0.2-0.2-0.2-0.3-1.4-0.4c-0.4,0-0.8,0-1.1-0.1v0.3c0.5,0,0.9,0.2,1.1,0.3
						C108.7,26.2,108.9,26.1,109.1,26.1 M113.8,26.6l-0.4-0.1c0.1,0.2,0.5,0.4,1,0.5c-0.5,0.1-1.4,0.1-2.5,0
						c-0.3-0.1-0.6-0.1-0.8-0.2c-0.3-0.1-0.6-0.1-0.8-0.2c-1-0.2-1.7-0.3-2.3-0.1h-0.2c1.8,0.1,3,0.3,3.8,0.6c1.3,0.1,2.5,0.1,3.6,0
						v-0.3C114.7,26.8,114.3,26.7,113.8,26.6 M112.8,24.4c0.1,0,0.2,0,0.3,0c0.6-0.1,1.4,0,2.3,0c0.1,0.2-23.7,1-23.5,0.9
						c0-0.1,0-0.1,0-0.1c-0.2-0.2,23.4-1.1,23-1.1C113.9,24.1,113.3,24.2,112.8,24.4 M112.7,25.6c0.2,0.1,0.4,0.1,0.6,0
						c0.6,0.1,1.2,0.1,1.6,0.1v-0.3c-0.9,0-1.6-0.1-2.2-0.2C112,25,111,25,109.8,25c0,0.1,0.1,0.1,0.3,0.2h0.1
						C110.9,25.4,111.8,25.5,112.7,25.6 M92.9,22.9c-0.7,0-0.7,0.1,0.1,0.4c0.5-0.1,0.6-0.2,0.2-0.4C93.1,22.9,93,22.9,92.9,22.9
						 M99,37c0.5-0.2,0.4-0.4-0.3-0.5c-0.4-0.1-0.6-0.1-0.5,0.1C98.4,36.7,98.7,36.9,99,37 M100.7,38.7c-0.3,0-0.2,0.1,0.3,0.2
						c0.1,0,0.2-0.1,0.3-0.1c0.2,0,0.3,0,0.4-0.1c0.1,0,0.1,0,0.1-0.1C101.4,38.7,101.1,38.7,100.7,38.7 M102.6,35.2
						c0.1,0,0.3-0.1,0.3-0.2h0.1c-1.2-0.1-1.9-0.3-2.4-0.6l-0.1-0.1c-0.1,0.1-0.1,0.1,0,0.1c0.5,0.2,0.7,0.5,0.8,0.8
						C101.8,35.3,102.2,35.2,102.6,35.2 M97.5,38.5c0.2,0,0.4,0,0.5-0.1h0.1c-0.1-0.1-0.1-0.2,0-0.5l0.1-0.1c-0.5,0-1,0-1.4,0.1
						L96.7,38C97.2,38.2,97.4,38.3,97.5,38.5 M96,36.7c0-0.1,0-0.1,0-0.2c0.1-0.2-0.1-0.2-0.6-0.1c0.1,0.3,0.2,0.6,0.5,0.8
						c0.8,0,1.1,0,0.7-0.2c-0.1,0-0.2,0-0.2,0C96,36.9,95.9,36.9,96,36.7 M97.8,35.5C97.8,35.4,97.7,35.4,97.8,35.5
						c-0.9,0.1-1.2,0.2-0.9,0.4C97.6,35.9,97.9,35.8,97.8,35.5 M97.6,36.6c0.1-0.3,0.1-0.5-0.1-0.5c-0.7,0.4-0.8,0.7-0.2,1h0.1
						c-0.6,0.2-0.3,0.4,0.8,0.6c0.2,0,0.3,0.1,0.4,0.1s0.2,0,0.2,0.1c0.2,0.2,0.4,0.4,0.6,0.6c0.2,0,0.4,0,0.6,0l0.1-0.1
						c-0.2-0.1-0.4-0.2-0.6-0.3c-0.5-0.3-0.6-0.5-0.2-0.7c0.3-0.1,0.2-0.2-0.3-0.2C98,37.2,97.5,37,97.6,36.6 M98.1,36.2
						c0.2,0,0.3-0.1,0.4-0.1c0.3-0.1,0.7-0.2,1.3-0.1c0.4,0,0.6,0,0.4-0.2c-0.1-0.1-0.4-0.1-0.7-0.1C98.8,35.8,98.4,36,98.1,36.2
						 M96.2,31.9l0.1,0.1c0.7-0.1,1,0,0.9,0.3c-0.1,0.4-0.4,0.7-1,0.9c0.9,0,1.7,0,2.6,0c0.1-0.1,0.2-0.1,0.3-0.1
						c0.4,0,0.7,0,0.7-0.1c0.1-0.2,0.4-0.3,1-0.3c0.1,0,0.2,0,0.1,0c-0.2-0.1,0-0.3,0.7-0.4c-0.3-0.3-0.6-0.3-0.9-0.1
						c-0.1,0.1-0.1,0.1-0.3,0.1c-0.8,0-1.6-0.1-2.3-0.3c-0.6-0.2-0.9-0.4-1.1-0.7c-0.3-0.6-0.6-0.6-0.9-0.2c0.6,0.2,0.5,0.4-0.2,0.5
						h-0.2C95.9,31.7,96.1,31.8,96.2,31.9 M94.6,27.3c0.2,0,0.3,0,0.4-0.1c0.1,0,0.2,0,0.3-0.1l0.1-0.1c-0.2-0.2-0.6-0.3-1.2-0.4
						c-0.4-0.1-0.6,0-0.5,0.1l0.1,0.1c-0.5,0.1-0.4,0.3,0.2,0.4C94.2,27.3,94.4,27.3,94.6,27.3 M94.2,19.9c-0.3-0.1-0.5-0.1-0.8-0.2
						c-0.4-0.1-1-0.2-1.8-0.2c-1.2-0.1,22.6-0.8,23.6-0.4c0.6,0.2-22.9,1.3-22.5,1.6c0.3,0,0.4,0,0.4-0.2c0,0,0-0.1,0.1-0.1
						c0.5,0.1,0.9,0.1,1.2,0c0.1,0,0.2-0.1,0.2-0.1C94.6,20,94.5,19.9,94.2,19.9 M94.6,18.6c-0.3,0.1-0.2,0.3,0.4,0.5
						c0.4,0,0.4-0.2,0-0.3c-0.1,0-0.2-0.1-0.2-0.1L94.6,18.6 M96.4,23.8l0.1-0.1c-0.2-0.3-0.5-0.6-1-0.8l-0.1-0.1
						c-0.4,0-0.4,0.2,0,0.5C95.8,23.5,96.1,23.7,96.4,23.8 M99.9,28.2l0.3-0.1c-0.2-0.1-0.1-0.2,0.5-0.2c0.2,0,0.4,0,0.6,0
						c0.4,0,0.8,0.1,1.2,0.1h0.1c-0.4-0.1-0.8-0.2-1.3-0.4c-0.3,0-0.6-0.1-1-0.1c-0.1,0-0.2,0-0.3,0C99.2,27.7,99.2,27.9,99.9,28.2
						 M100.1,23.1c0.3-0.1,0.3-0.4-0.1-0.6c-0.3-0.2-0.6-0.3-1-0.5l-0.1-0.2c-0.1,0.1-0.1,0.2,0,0.2C99.2,22.3,99.6,22.7,100.1,23.1
						 M100.5,23.1c-0.1,0.4,0.2,0.7,0.8,0.9c0.2,0,0.4,0,0.6,0c0.3,0,0.4-0.1,0.1-0.3c-0.3-0.2-0.8-0.4-1.3-0.5L100.5,23.1
						 M122.3,56.8C122.4,56.8,122.4,56.7,122.3,56.8c0.2-0.2,0.2-0.2,0.1-0.3s-0.5-0.1-1-0.1c-0.4,0-0.7-0.2-0.7-0.6
						c-0.4-0.3-0.7-0.1-0.7,0.4c0,0.1-0.1,0.1-0.1,0.2c-0.7,0.2-0.5,0.3,0.4,0.2C121.2,56.5,121.9,56.6,122.3,56.8 M115.3,61.6
						c-0.1-0.1-0.2-0.2-0.3-0.4c-1,0-1.5,0.1-1.3,0.4C114.2,61.6,114.8,61.6,115.3,61.6 M118.6,56.2c-0.1,0-0.2,0-0.2,0
						c-0.4,0.2-0.3,0.4,0.3,0.7C119.3,56.6,119.3,56.4,118.6,56.2 M113.8,53.8L113.8,53.8c-0.6,0-0.9,0.2-0.9,0.6
						C113.6,54.5,114,54.3,113.8,53.8 M116.9,48.3L116.9,48.3c-0.1,0.2-0.1,0.6-0.2,1s0,0.8,0.3,1c0.5-0.1,0.6-0.3,0.4-0.8
						C117.2,49.2,117.1,48.8,116.9,48.3 M120.9,49.6c0.1-0.1,0.2-0.1,0.3-0.1c0.8,0.1,1.1-0.2,0.9-0.7c-0.1-0.1-0.1-0.1-0.1-0.1
						c-0.3-0.1-0.6-0.1-0.9,0c-0.7,0.3-0.9,0.7-0.7,1.1C120.6,49.8,120.8,49.7,120.9,49.6 M111.8,67l0.4-0.5h-0.3l-0.1-0.1l0.1,0.1
						c0.1,0.1,0.1,0.2-0.2,0.3l-0.1,0.1C111.8,67,111.8,67,111.8,67 M110.7,66.5L110.7,66.5l-7.2-0.4c-0.3,0.3-0.7,0.5-1.1,0.7
						c-0.3,0.2-0.4,0.4-0.1,0.6c0.1,0.1,0.3,0.2,0.4,0.2c0.4,0.2,0.9,0.4,1.6,0.6c0.6,0,0.9,0,1-0.1l0,0c0.1,0,0.2,0,0.2,0
						c0.2,0.1,0.5,0.1,0.8,0.1c0.9,0.1,1.4,0,1.6-0.3c0-0.1,0.1-0.1,0.2-0.1c0.3-0.1,0.8-0.2,1.5-0.2c1-0.2,1.2-0.4,0.6-0.7h0.4
						c0.1,0,0.2-0.1,0.4-0.1c-0.1-0.1-0.2-0.2-0.2-0.3l0,0C110.8,66.6,110.8,66.6,110.7,66.5 M110,66.8c0-0.1,0.1-0.1,0.3-0.2
						c0.1,0,0.2,0,0.2,0C110.3,66.7,110.2,66.7,110,66.8 M105.8,49.8c-0.2,0.1-0.1,0.4,0.1,0.8c0.3-0.2,0.8-0.2,1.4-0.2
						c0.3,0,0.3-0.1,0.1-0.3C106.9,49.6,106.4,49.5,105.8,49.8 M105.5,48.3c-0.1,0.1-0.1,0.2,0,0.2c0.6,0.3,1.1,0.6,1.6,0.9
						c0.4-0.1,0.8-0.1,1.1-0.1h0.2c0.1-0.1,0.1-0.2,0-0.2c-0.1-0.1-0.2-0.1-0.3-0.2c-0.1-0.1-0.1-0.1-0.2-0.1
						c-0.8-0.1-1.3-0.3-1.6-0.7C106.2,48,105.9,48.1,105.5,48.3 M111.5,42.9h0.3c-0.2-0.2-0.1-0.2,0.3-0.3l-1.2-0.1
						C111.1,42.7,111.3,42.8,111.5,42.9 M111.1,36.5L111.1,36.5c-0.1-0.3-0.2-0.4-0.3-0.2c-0.1,0.2-0.1,0.3-0.2,0.4
						c-0.2,0.2,0,0.4,0.5,0.6C111.8,37.1,111.8,36.8,111.1,36.5 M110.7,39.1c0.1,0,0.2,0,0.3,0c0.2,0,0.3-0.1,0.3-0.1
						c0-0.2,0.2-0.3,0.5-0.3c0.5-0.1,0.6-0.1,0.3-0.1c-0.1-0.1-0.3-0.1-0.3-0.1c-0.4,0-0.7,0.1-1,0.2c-0.4,0.2-0.6,0.4-0.4,0.6
						C110.5,39.2,110.6,39.1,110.7,39.1 M108.4,41.5c0.1,0,0.1,0.1,0,0.2l-0.1,0.1c0.7,0.1,1.3,0.2,1.6,0.5c0.2-0.2,0-0.4-0.6-0.6
						C109.1,41.5,108.7,41.5,108.4,41.5 M108.4,35.6c0.1-0.1,0.2-0.1,0.3-0.1l0.1-0.1c-0.8-0.1-1.4,0-1.7,0.2
						C107.7,35.6,108.2,35.6,108.4,35.6 M108.8,34.5C108.8,34.4,108.7,34.4,108.8,34.5c-0.8,0-1,0.1-0.7,0.4
						C108.7,34.8,108.9,34.7,108.8,34.5 M110.7,31.4l0.1-0.2c-0.6,0-1,0.1-1.1,0.3C110.2,31.6,110.6,31.6,110.7,31.4 M112.1,30.3
						c-0.2,0-0.3-0.1-0.4-0.1c-0.3-0.1-0.5,0-0.3,0.4c0.4,0,0.8,0.1,1.2,0.1c0.1,0,0.1-0.1,0.2-0.2
						C112.6,30.4,112.4,30.4,112.1,30.3 M107.6,41.3c0.6,0,0.8-0.1,0.7-0.4c0-0.1-0.1-0.1-0.2-0.1C107.4,40.7,107.2,40.9,107.6,41.3
						 M104.3,41L104.3,41c-0.2-0.1-0.6-0.2-1.3-0.2h-0.2c0-0.1-0.2-0.3-0.7-0.4c-0.4-0.1-0.4,0,0,0.2c0,0.1-0.2,0.1-0.4,0
						c-0.1-0.1-0.2-0.2-0.3-0.2c-0.1,0-0.2,0-0.2,0c-0.4-0.4-0.6-0.7-0.6-0.9h-0.1c-0.5,0-0.8,0-0.8,0.3c-1,0.1-1.7-0.1-2-0.4
						c-0.1-0.1-0.1-0.1-0.1-0.1c-0.7-0.1-1-0.2-1-0.4c-0.1-0.3-0.3-0.6-0.7-0.7c-0.5-0.2-0.3-0.4,0.4-0.5c-0.1-0.2-0.3-0.3-0.8-0.2
						c-0.1,0-0.2,0-0.3,0c-0.4-0.1-0.9-0.1-1.5-0.1h-0.1c-0.2-0.1-0.4-0.2-0.5-0.3c-0.3-0.2-0.3-0.3,0-0.4c0.1-0.1,0.2-0.1,0.2-0.1
						c0-0.2,0.2-0.2,0.5-0.1H94c0.1-0.1,0.2-0.1,0.3-0.1c0.4-0.1,0.8-0.2,1.1-0.2c0.5-0.2,0.6-0.3,0.1-0.5c-0.4,0-0.7,0-1.1,0h-0.2
						c-0.1,0-0.2,0.1-0.3,0.1c-0.7,0.2,22.5-0.4,21.9-0.2c-0.2-0.1-0.4-0.2-0.5-0.3s-0.2-0.1-0.3-0.1c-0.1-0.1-0.2-0.1-0.3-0.2
						c-0.4-0.2-0.8-0.4-1.2-0.5c-0.1,0-0.2-0.1-0.2-0.1c-0.6-0.1-0.6,0,0.1,0.3c-0.1,0.1-0.2,0.1-0.4,0.2c-0.1,0-0.2,0.1-0.4,0.2
						c-0.1,0-0.1,0.1,0,0.1c0.3,0.1,0.6,0.1,1,0.2c1.1,0.2,1.5,0.4,1.3,0.7c-0.5-0.1-0.7,0-0.7,0.3c0,0,0,0-0.1,0
						c-0.2,0.1-0.3,0.1-0.5,0c-0.1,0-0.3,0-0.4,0s-0.2-0.1-0.3-0.1h-0.1c-0.1,0-0.2-0.1-0.3-0.1c-0.1-0.1-0.2-0.1-0.3-0.2
						c-0.5-0.1-0.8-0.2-1-0.1l0,0c-0.1,0-0.3-0.1-0.5-0.1c-0.7-0.1-1.1-0.3-1.3-0.6h-0.3c-0.3,0-0.5,0.1-0.7,0.1s-0.2,0.1,0,0.1
						s0.4,0.1,0.6,0.1c0.8,0.1,1.4,0.3,1.7,0.6c0.2,0,0.4,0,0.5,0l0,0c0.2,0.1,0.3,0.1,0.4,0.1c-0.4,0-0.5,0.1,0,0.2l0,0v0.1
						c0.1,0,0.1,0.1,0.1,0.1c0.1,0.2,0.5,0.3,1.2,0.3c0.3,0,0.6,0,0.9,0c0.2,0.1,0.3,0.1,0.4,0.2c0.8,0.1,1.1,0,0.9-0.1
						c0.5,0.1-23,1.1-22.7,1.2c0.1,0.1,0.2,0.1,0.3,0.1s0.2,0.1,0.2,0.1c0.3,0.2,0.7,0.3,1.1,0.5c0.2,0.1,0.3,0.1,0.4,0.1
						c0.6,0.3,0.5,0.5-0.1,0.5c0.1,0.1-0.1,0.1-0.5,0h-0.2c-0.1,0-0.2,0-0.2,0c-0.5,0.1-0.8,0.1-0.9,0v-0.1h0.1
						c0.5-0.2,0.5-0.4,0.2-0.5c-0.1,0-0.2-0.1-0.3-0.1h-0.1l0.1-0.8c-0.2,0-0.3,0-0.5-0.1c0.5,0.2,24.3-0.6,23.3-0.7
						c-1,0-1.7-0.1-2.2-0.2c-1.1-0.3-2.2-0.5-3.3-0.4c0-0.1,0-0.1,0-0.2c0-0.1-0.1-0.1-0.3-0.2c-0.2,0-0.3,0-0.3,0
						c-0.3,0.2-1.3,0.3-2.9,0.1c-0.3,0-0.6,0-0.7,0c-0.3,0.1-0.8,0-1.7-0.1c-0.2,0-0.4,0-0.5,0c-0.7,0-1.5-0.2-2.6-0.4
						c0-0.1,0.1-0.1,0.1-0.2l0.1-0.1c-0.9-0.2-0.9-0.4,0.1-0.5c0.2,0,0.3,0,0.2,0c-0.3-0.3-0.9-0.3-1.7-0.2c-1-0.2-1.3-0.4-0.8-0.6
						l0.2-0.1c-0.6,0-1,0-1.2-0.2c-0.7-0.4-0.8-0.7-0.4-1.1c0.3,0.1,0.6,0,0.9,0c0.2,0,0.4,0,0.5,0c1.3,0.2,2.4,0.4,3.2,0.6
						c0.2,0.1,0.4,0.2,0.5,0.2c0.3,0.3,1,0.4,1.8,0.5c0.2,0,0.4,0.1,0.4,0.1c0.6,0.4,1.8,0.6,3.7,0.7c-0.9-0.2-1.7-0.4-2.3-0.6
						c-0.2-0.1-0.4-0.2-0.6-0.2c-1.1-0.5-0.4-0.7,2.2-0.5c0.2,0.1,0.3,0.1,0.5,0.1c0.8,0,0.8,0,0-0.1c-0.3-0.1-0.5-0.1-0.7-0.1
						s-0.3-0.1-0.4-0.1c-1.5-0.2-2.8-0.4-3.9-0.6c-1.4-0.2-3.2-0.4-5.5-0.6c0.2-0.1,0.3-0.1,0.5-0.2l0.2-0.1
						c-2.6-0.2-2.9-0.5-0.8-0.7c0.6-0.3,0.3-0.4-0.8-0.2c-0.2,0-0.3,0.1-0.5,0.1c-1.2,0.1-1.4,0-0.8-0.3c-0.5-0.2-0.9-0.3-1.1-0.2
						c-0.3,0.1-0.7,0.2-1.4,0.3c-0.1,0-0.2,0.1-0.2,0.1c-1.1-0.3-2-0.6-2.8-0.9c-1.1-0.4-1.1-0.5-0.1-0.5c0.2,0,0.4,0,0.6,0
						c0.9,0.1,1.1,0,0.8-0.3c-0.4-0.2-0.6-0.3-0.8-0.2c-0.8,0.2-1.9,0.2-3.4,0c-1.4-0.2-8-0.8-9.4-1.1c-1.1-0.2-1.5-0.3-1-0.5
						c-1.1,0-2.1,0-3.1-0.2s-5.9-0.7-7.1-0.9c-0.2,0-0.4,0-0.6,0c-0.9-0.1-1.5-0.2-1.8-0.3c-0.2-0.1-0.3-0.2-0.5-0.2
						c-0.5-0.1-1.1-0.2-1.7-0.2c-0.9-0.1-1.4-0.3-1.6-0.6c-0.3-0.4-0.3-0.6,0.1-0.8l0.2-0.1c0.4,0.1,1.1,0.1,2,0.1h0.5
						c-0.1-0.1,0.1-0.2,0.4-0.4c0.4-0.1,1.3-0.2,2.5-0.1c0.2,0,0.3,0,0.4,0c1,0.1,5.9,0.5,7.3,0.6c0.7,0,1.4,0.1,2.1,0.2
						c0,0.1,0.1,0.2,0.2,0.3h0.1c-0.4,0.1-0.7,0.2-0.8,0.4c-0.2,0.2-0.3,0.5-0.3,0.8c0.2,0.1,0.3,0.1,0.4,0c1.8-0.3,3.4-0.7,4.9-1.1
						c0,0,0-0.1,0.1-0.1c0.3,0,0.5,0,0.6,0c0.4,0.2,5.9,0.5,6.3,0.4l0.3,0.1c0.9,0.2,2.2,0.3,4,0.3c0.6-0.1,0.1-0.2-1.5-0.3
						c-2.7-0.1-3.4-0.4-2.1-0.7c0.2-0.1,0.4-0.1,0.6-0.2c0.3-0.1,0.6-0.1,1-0.1l0.4-0.1c0.1,0.2,0.6,0.4,1.5,0.4c0.2,0,0.4,0,0.5,0
						c0.9,0,1.6,0.1,2.1,0.3c1.2,0.2,2.6,0.4,4.4,0.5c0.2,0,0.2,0,0.3,0H99c0.6,0,0.9,0,1.1,0c0.1-0.1,0.1-0.1,0-0.1
						c-0.5-0.2-0.9-0.5-1.3-0.8h-0.3c0.6-0.1,0.5-0.1-0.2-0.1c-0.2,0-0.4,0-0.6,0h-0.5c-0.1,0.2-0.4,0.3-0.9,0.2
						c-2.2-0.1-4-0.2-5.5-0.5c-0.2,0-0.3-0.1-0.4-0.1c0-0.1,0-0.1,0.2-0.1c0.2-0.1,0.3-0.1,0.5-0.1c0.6-0.2,1.2-0.2,1.8-0.3
						c0.5-0.1,0.8-0.2,0.9-0.3c0.1-0.2,0.4-0.4,0.7-0.5c0.1-0.1,0.2-0.2,0.4-0.2c0.6-0.2,0.4-0.3-0.8-0.4c-0.2,0-0.3,0-0.3,0.1
						c-0.3,0.3-1,0.4-2.1,0.1s-2.6-0.4-4.6-0.5c-0.7,0-0.8,0-0.1,0.1c0.8,0.2,1.5,0.3,2.1,0.4c0.2,0.1,0.3,0.1,0.5,0.1
						c0.9,0,1.6,0,1.8,0.1h0.3c0,0.2-0.1,0.3-0.5,0.4c-0.3,0.1-0.7,0.3-1.2,0.4c-0.2,0-0.3,0-0.4,0c-0.3-0.1-0.8-0.2-1.3-0.3
						c-1.5-0.2-8.4-0.7-10.2-0.8c-0.2,0-0.3,0-0.3-0.1c-0.1-0.4-0.6-0.5-1.3-0.3c0,0.1,0.1,0.2,0.2,0.3c0.1,0.1,0.2,0.1,0.4,0.1
						c0.9,0.1,1.7,0.2,2.5,0.3c1.4,0.1,7.8,0.7,8.7,0.9c0.7,0,1,0,0.9,0.1c-0.3,0.3-6.5,0.1-8.4,0c0.3,0.1,5.7,0.4,5.9,0.5
						c0.9,0.2,0.8,0.3-0.3,0.3c-0.3,0-5.7-0.3-5.9-0.3C80.4,24,80.2,24,80.1,24c-1.4-0.2-2.2-0.2-2.3,0c-0.2,0.1-0.2,0.1-0.2,0.2
						c0.2,0.3-0.4,0.4-1.7,0.3c-1.7-0.2-6.9-0.6-8.3-0.8c-0.3-0.1-0.5-0.1-0.7-0.2c-0.9-0.2-1.8-0.3-2.8-0.2c-0.3,0-0.5,0-0.7,0
						s-0.2-0.1,0-0.2c0.2,0,0.1-0.2-0.3-0.4c-0.9-0.5-1.4-0.5-1.5-0.1c0,0.1-0.1,0.1-0.2,0.2c-0.2,0-0.3,0-0.3,0.1
						c-0.3,0.2-1.1,0.3-2.4,0.2c-0.3,0-0.6,0-0.9,0h-0.2c0.9,0,1.3,0.1,1.4,0.3h0.1c1.2,0.2,1.2,0.5,0.3,0.7
						c0.1,0.4-0.3,0.5-1.1,0.2c-0.7-0.1-1.3-0.3-2-0.4c-0.2-0.1-0.4-0.2-0.5-0.2c-0.7-0.3-1.9-0.5-3.4-0.6c0.2-0.2,0.7-0.2,1.5-0.2
						c2,0.1,2.6,0.1,2-0.2c-0.9,0-1.4,0-1.6-0.2h-0.1c-0.2,0-0.3,0-0.4,0c-1.2,0-2.2,0.1-2.9,0.2c-0.3,0.1-0.4,0.1-0.6,0.2
						c-0.5,0.2-0.9,0.3-1.3,0.1c-0.3,0-0.6,0-0.8,0c-0.3-0.1-0.5-0.2-0.8-0.2c-1.5-0.2-3.5-0.4-5.9-0.5c-0.2,0-0.3,0-0.3,0
						c-0.7,0-1.4,0.1-2.1,0.1c-0.3,0-0.6,0-0.9,0.1c-0.2,0-0.3,0-0.3,0c-1-0.3-1.9-0.4-2.7-0.4c0.8,0.1,1,0.3,0.6,0.5
						c-0.1,0.1-0.2,0.1-0.1,0.2c0.2,0.2,0.7,0.4,1.6,0.5h0.3c-0.1-0.2,0.3-0.3,1.2-0.1l0.5-0.1c-0.1-0.1,0-0.2,0.5-0.3
						c0.2,0,0.3,0,0.4,0c1.3,0.2,2.5,0.2,3.7,0.2c0.3-0.1,0.5-0.1,0.7-0.1c0.9-0.1,1.6,0,2.2,0.3c-0.5,0-0.9,0-1.3,0
						c-0.7,0.1-0.7,0.1-0.2,0.2c1.8,0.1,3.6,0.3,5.5,0.4c0.2,0.1,0.3,0.2,0.5,0.3c0.2,0.1,0.9,0.1,2.1,0.1c0.3,0,0.6,0.1,0.7,0.1
						h0.3c0.4-0.1,0.9,0,1.6,0.1c0.8,0.1,1.3,0.3,1.5,0.6c-0.3,0.1-1.1,0.1-2.4,0c-0.2,0-0.4,0-0.6,0c-1.9-0.2-3.2-0.3-4-0.4
						c-1.4-0.1-2.4,0-3.1,0.1c-0.2,0-0.4,0-0.6,0c-0.2-0.1-0.3-0.2-0.5-0.2c-0.2-0.1-0.3-0.1-0.3,0c-0.1,0.1-0.4,0.2-0.9,0.1
						c-0.2,0-0.3,0-0.4,0c-1.2,0.1-2.4,0-3.6-0.3c-1.4-0.1-2.1-0.1-2.2,0.2c-0.1,0.2-0.6,0.3-1.7,0.2l-0.3,0.1
						c0.2,0.2,0.2,0.3-0.2,0.4c-0.2,0-0.3,0-0.5,0c-1.4,0.1-2.5,0.2-3.4,0.5c-0.2,0-0.3,0-0.5,0s-0.3,0-0.4,0c-0.4,0-0.9,0-1.5,0
						c-1.1,0.1-2.2,0-3.1-0.2c-0.5-0.1-0.8-0.2-1.2-0.3v-0.3c-0.3-0.2-0.5-0.4-0.6-0.7h-0.1c0-0.1,0-0.1,0-0.1
						c0.1-0.3,0.1-0.6-0.2-0.8c0.2-0.1,0.2-0.2,0.1-0.4h-0.2H25l0.1,0.3c-0.1-0.1-0.3-0.1-0.4-0.1c0,0.1-0.1,0.3,0,0.5
						c0,0.3,0.1,0.5,0.3,0.6c0.1,0.2,0.3,0.3,0.4,0.4s0.2,0.2,0.2,0.3c0,0.1,0.1,0.2,0.1,0.2c-0.1-0.1-0.3-0.2-0.4-0.2l0.1,0.7h0.1
						c0,0.1,0,0.2-0.1,0.3v0.2c-0.2,0-0.3,0-0.4-0.2c-0.1,0.1-0.3,0.1-0.4,0.2h-0.1c-0.1-0.1-0.2-0.1-0.5,0c-0.1,0-0.1,0-0.2,0
						c-0.4-0.1-0.9-0.3-1.3-0.5c-0.1,0-0.1,0-0.2,0c-0.5-0.2-0.8-0.1-1,0.2h0.1c0.2-0.1,0.4,0,0.6,0.1c0,0,0.1,0,0.2,0.1
						c0.4,0.1,0.8,0.2,1.4,0.3c0.1,0,0.1,0,0.1,0c0.1,0,0.2,0,0.2,0c0,0.2-0.1,0.4-0.2,0.6V27c-0.1,0-0.1,0-0.2,0l0,0
						c-0.1,0-0.1,0-0.2,0s-0.1,0-0.2,0c-0.4,0-0.4,0.2-0.2,0.5c0.1,0,0.2,0,0.3,0c0.1,0,0.2,0,0.2,0h0.1c0.1,0.1,0.1,0.2,0,0.4
						c-0.1,0.4-0.2,0.8-0.2,1.2c0,0.4-0.1,0.7-0.1,0.8c-0.1,0-0.1,0-0.1,0L23,29.7c-0.4,0-0.4,0.2-0.1,0.4c0.3,0.2,0.4,0.6,0.3,1.2
						c-0.2,0.2-0.3,0.5-0.4,0.8c0,0.1-0.1,0.1-0.1,0.1c-0.2,0-0.4,0-0.6,0L22,32.3c0.3,0.4,0.5,0.7,0.8,1c0,0.2,0,0.3-0.1,0.3
						c-0.1,0.1-0.1,0.1-0.1,0.1c-0.3-0.7-0.4-0.6-0.4,0.1c0,0.1,0,0.2,0.1,0.2c0.4,0.3,0.4,0.6,0,1c-0.2,0.1-0.5,0.2-1,0.1
						C21.2,35,21.2,35,21.2,35c-0.3,0.2-0.7,0.4-1.2,0.6c-0.1,0-0.1,0.1-0.2,0.1c-0.7,0.1-0.9,0.3-0.5,0.6c0.1,0,0.1,0.1,0.1,0.1
						c0.1,0.1,0.1,0.2,0.2,0.2c0.5,0.2,0.7,0.5,0.4,0.8c-0.4,0.5-0.4,0.9,0.1,1.1c-0.7-0.1-0.9,0-0.5,0.4l0.1,0.1
						c-0.3,0-0.4,0.1-0.1,0.3c0.1,0,0.1,0,0.2,0c0.1-0.1,0.1-0.1,0.2-0.1l0.2-0.1c0-0.4,0.1-0.7,0.3-0.8c0.1,0,0.1-0.1,0.2-0.2
						c0.2-0.2,0.4-0.3,0.6-0.3l0.1-0.1c-0.2,0.2-0.2,0.4,0.1,0.5c0-0.1,0.1-0.1,0.1-0.1c0.3,0,0.4,0.1,0.1,0.3L21.3,38
						c0.3,0.1,0.5,0.1,0.5-0.1c0-0.1,0.1-0.1,0.2-0.1c0.6-0.2,0.7-0.5,0.3-0.9c0,0.1,0,0.2,0,0.3c-0.2,0.3-0.4,0.4-0.5,0.1
						c0-0.1-0.1-0.2-0.2-0.2C21.5,37,21.4,37,21.3,37c-0.1-0.1-0.3-0.2-0.3-0.4c-0.1-0.3-0.3-0.6-0.6-0.7c-0.1,0-0.2-0.1-0.3-0.1
						c-0.1-0.1-0.1-0.1,0-0.1c0.4-0.2,0.7-0.2,0.7,0.2c0.2,0.3,0.3,0.3,0.4,0c0-0.1,0-0.2,0-0.2c0-0.3,0-0.4,0.3-0.3
						c0.1,0,0.1,0,0.1,0c-0.2,0.3-0.2,0.6,0,0.9c0.3,0.4,0.5,0.4,0.7,0.2l0.1-0.2c0,0.3,0.1,0.5,0.4,0.5c0.1,0,0.2,0,0.2,0
						c0.1,0.3,0.3,0.5,0.6,0.6c0.1,0.1,0.2,0.2,0.3,0.2c0.5,0.2,0.5,0.4,0.1,0.7c-0.1,0.1-0.3,0.2-0.4,0.4l-0.1,0.1
						c-0.1-0.3-0.1-0.5-0.1-0.6v-0.1c-0.3,0.4-0.5,0.4-0.7-0.1c-0.1,0-0.2,0.1-0.4,0.2l-0.1,0.1l0.1,0.1c-0.1,0.2-0.4,0.2-0.9,0.1
						c-0.1,0-0.2,0-0.2,0l-0.2,0c-0.2-0.3-0.3-0.2-0.3,0.3c-0.1,0-0.1,0.1-0.1,0.1c-0.1,0.1-0.1,0.2,0,0.2s0.2,0.1,0.2,0.1
						c0.1,0.1,0.1,0.1,0,0.2c-0.1,0-0.1,0.1-0.2,0.2c-0.1,0.2-0.3,0.4-0.4,0.6c-0.1,0-0.1,0-0.1,0.1c0.1,0.3,0,0.5-0.2,0.5
						c-0.4-0.1-0.7,0.1-0.8,0.4c0.2,0,0.4,0.1,0.5,0.3c0,0.1,0.1,0.2,0.1,0.2c0,0.1-0.1,0.3-0.2,0.4c0,0.1-0.1,0.2-0.1,0.3l-0.1,0.1
						c0.1-0.4,0-0.6-0.1-0.7l0,0c-0.3-0.4-0.4-0.2-0.3,0.5c0,0.1,0,0.2,0,0.3c-0.1,0.2-0.2,0.5-0.2,0.8c0,0.4-0.2,0.6-0.7,0.6v-0.2
						c-0.3,0.1-0.6,0.2-1,0.3c-0.5,0.2-0.9,0.6-1.1,1.1c-0.1,0.3-0.3,0.4-0.4,0.2C15,45.5,15,45.7,15.4,46l0.1,0.1
						c-0.2,0.2-0.2,0.5,0.2,0.7c0.1,0.2,0.1,0.3-0.2,0.3c-0.1,0-0.1,0-0.1,0c-0.4,0.2-0.6,0-0.8-0.5c0-0.1-0.1-0.1-0.1,0
						c-0.4,0.3-0.4,0.4,0,0.4c0.2,0.6,0.4,0.9,0.7,0.7c0.1-0.1,0.3-0.1,0.4-0.2c0.1,0,0.2,0,0.2,0c0.1,0,0.1,0,0.1-0.1
						c0-0.3,0-0.4,0.2-0.4c0.1,0,0.1,0,0.2,0c0.5-0.1,0.8,0,1,0.1c0.2,0.2,0.4,0.2,0.3,0c0-0.1,0-0.1,0-0.1c0.2-0.3,0.5-0.2,0.7,0.3
						c0,0-0.1,0.1-0.2,0.2c0,0.1-0.1,0.1,0,0.2c0.2,0.3,0.2,0.5-0.2,0.6h-0.1l0.1,0.1c-0.2,0.2-0.5,0.4-0.9,0.6
						c-0.4,0.2-0.7,0.2-1-0.2c0,0.1,0,0.1,0,0.2v0.1c0.2,0.2,0.4,0.4,0.7,0.5c0.1,0,0.1,0.1,0.1,0.1c0,0.2-0.1,0.4-0.2,0.6
						c-0.1,0-0.2,0-0.3,0h-0.1c-0.3-0.2-0.5-0.2-0.6-0.1v0.1c0.2,0,0.5,0.1,0.8,0.2l0.1-0.1c0,0-0.1,0.1-0.1,0.2c0,0-0.1,0-0.2,0H16
						c0,0.1,0,0.1,0,0.2c0-0.1-0.1-0.1-0.1-0.1c-0.1,0-0.2,0-0.4,0s-0.5-0.1-0.7-0.1h-0.2c0,0.4,0,0.7-0.1,1c0.5,0,0.8,0,1-0.2
						c0.3,0,0.6,0,0.9,0.1h0.1c-0.2,0.2-0.1,0.4,0.3,0.4l0.1,0.1c0.1,0,0.2-0.1,0.2-0.2l0.1,0.1c0-0.1,0.2-0.1,0.5,0
						c0.1,0,0.2,0,0.2,0c0.1,0,0.2,0.1,0.3,0.1c-0.1,0-0.2,0.1-0.2,0.1s-0.1,0-0.2,0c-0.3,0-0.5,0-0.8-0.1c-0.1,0-0.2,0-0.3,0
						c-0.1,0.1-0.1,0.1,0,0.1c0.2,0.1,0.4,0.2,0.5,0.3c0,0-0.1,0.1-0.2,0.1s-0.1,0.1-0.1,0.1c0,0.1,0,0.2-0.2,0.3v-0.1h-0.1
						c0.2-0.1,0.1-0.2-0.1-0.2c-0.1-0.1-0.3-0.1-0.4-0.1c0.3-0.1,0.2-0.2-0.2-0.2c-0.1,0-0.1,0-0.2,0c-0.5,0-0.8,0.1-0.7,0.2
						c0,0.2,0.1,0.3,0.4,0.4l0.1-0.1c0.1,0,0.1,0.1,0.1,0.2c-0.1,0-0.2,0-0.4,0c-0.1,0-0.2,0-0.3,0c-0.3-0.1-0.5-0.2-0.5-0.1
						c0,0.1-0.1,0.1-0.1,0.2c-0.1,0-0.1,0-0.2,0.1c-0.2,0-0.4,0-0.6,0.1c-0.1,0-0.2,0-0.2,0c-0.1,0.3-0.1,0.4,0.2,0.2h-0.1l0.1-0.1
						c0.3-0.2,0.5-0.2,0.6,0c0,0.1,0.1,0.1,0.1,0.1c-0.1,0.1,0,0.2,0.4,0.3c0.3,0,0.5,0,0.6-0.1c0.1,0,0.2,0,0.2,0
						c0-0.2,0.1-0.2,0.3-0.2h0.1c0.2,0,0.4,0,0.7,0h0.1c-0.3,0.1-0.3,0.2,0,0.4C16.5,54,16.3,54,15.9,54l0.1,0.2c0.2,0,0.6-0.1,1,0
						c0.8,0.1,1,0.2,0.4,0.2c-0.1,0.1-0.1,0.1-0.2,0.2l-0.1,0.1c0.3,0,0.6,0,0.9-0.1s0.7-0.1,1,0c0.2,0.1,0.5,0.1,0.8-0.1
						c-0.4-0.2-0.3-0.3,0.3-0.2v0.1c0,0.1,0.1,0.1,0.3,0.1l0,0c0.1,0.2,0.4,0.3,0.9,0.3c0,0.1,0,0.1,0,0.1s-0.1,0.1-0.1,0.2
						l-0.1,0.1c-0.1,0-0.1,0-0.2,0h-0.1c-0.2,0.1-0.1,0.3,0.3,0.5c0.1,0,0.1,0,0.1-0.1c0.1-0.2,0.2-0.2,0.4,0c0,0.1,0,0.1,0,0
						c0.2,0,0.5,0,0.8,0c0.1,0,0.2,0,0.3,0c0.3,0.1,0.5,0.1,0.7,0.1h0.2c-0.4-0.1-0.5-0.1-0.2-0.2c0.1,0,0.1-0.1,0.2-0.1
						c0.3,0.2,0.5,0.2,0.7,0c0.1,0,0.1,0.1,0.1,0.1c0,0.1,0.1,0.2,0.4,0.2H25c0.1,0.2,0.2,0.3,0.2,0.3v0.1c0.3-0.1,0.4-0.1,0.5,0
						h0.1H26c-0.1-0.1-0.1-0.2,0.1-0.2h0.1c0,0.1,0.2,0.2,0.4,0.1v0.1c-0.2,0.2-0.4,0.2-0.6,0c-0.1,0-0.2,0-0.3,0.1
						c-0.1,0-0.1,0.1,0.1,0.1l0.1-0.1c0.1,0,0.1,0.1,0,0.1c-0.2,0.1-0.3,0.3-0.3,0.6c0,0,0,0.1,0.1,0.1c0.3,0.2,0.3,0.3,0.1,0.4
						c-0.3,0.1-0.7,0.1-1.1,0c-0.2,0-0.6,0-1,0c-0.1,0-0.3,0-0.4,0s-0.2,0-0.2,0.1c0,0.2-0.1,0.4-0.3,0.5c-0.5,0-0.5,0.1,0,0.1
						c0.1,0.1,0.1,0.1,0.2,0.1h0.2c0,0.3,0.1,0.5,0.2,0.6c0.3,0.2,0.6,0.2,0.9,0.1c0.2,0,0.3-0.1,0.1-0.3l0,0
						c0.1-0.1,0.3-0.1,0.6-0.2c0.3,0,0.7-0.1,1.2-0.2c0.3,0,0.7,0,1-0.1c0.7,0,0.7,0,0-0.1c-0.1,0-0.1,0-0.1,0
						c-0.1,0-0.1-0.1-0.2-0.1c-0.1-0.1-0.2-0.1-0.3,0c-0.4,0-0.4-0.1-0.2-0.2c0-0.1,0.1-0.1,0-0.1c-0.1-0.1,0-0.2,0.4-0.3
						c0.1,0,0.1,0,0.2,0s0.1,0,0.2,0s0.1,0,0.2,0c0.5-0.1,0.5-0.2-0.2-0.3c-0.1,0-0.1,0-0.1,0c0.1-0.2,0-0.3-0.2-0.2h-0.1
						c-0.4,0-0.5,0-0.3-0.1l0.1-0.1v-0.1c0-0.1,0.2-0.1,0.6-0.1c0.1,0,0.3,0,0.4,0c0.7-0.1,0.9,0,0.6,0.2c0.1,0.1,0.3,0.2,0.6,0.1
						c0.1,0,0.1,0,0.1,0c0.1,0.1,0.3,0.1,0.5,0.1l0.1,0.4c-0.1,0-0.2,0-0.3,0c-0.3-0.2-0.5-0.2-0.5-0.1c0,0,0,0,0.1,0
						c0.2,0.1,0.4,0.3,0.4,0.4v0.1c0.3,0,0.4,0.1,0.3,0.1c-0.2,0.2,0,0.3,0.6,0.3c0.4,0,0.5,0,0.5-0.1h0.1c1.4,0,1.9,0.1,1.5,0.4
						l-0.1,0.1c-0.8-0.2-1.2-0.2-1.2,0c-0.2-0.1-0.3-0.1-0.5,0h-0.3c0.7,0,1.1,0.1,1,0.2v0.1c0.2,0,0.3,0,0.5-0.1c0.1,0,0.3,0,0.4,0
						c0.8,0.3,2.1,0.4,3.9,0.4c-0.2,0-0.3,0-0.5,0s-0.2,0-0.2,0.1c0,0,0.1,0,0.1,0.1c0.4,0.2,0.5,0.3,0.2,0.4c-0.2,0-0.3,0-0.2,0.1
						c0.1,0.2,0.7,0.3,1.8,0.3c1.5,0.1,1.8,0.1,0.9-0.2c-0.7-0.1-1.3-0.2-1.7-0.4c-0.5-0.2-0.4-0.2,0.2-0.1c0.5,0,0.8,0,0.7-0.1
						v-0.1C36.7,59,37,59,37.9,59h0.2c-0.4,0-0.2,0.1,0.8,0.2h0.2c0.2,0.1,0.3,0.1,0.5,0.1c0.4,0.1,0.8,0.2,1.3,0.4
						c0.1-0.1,0.3-0.1,0.5-0.1c0.3,0,0.5-0.1,0.6-0.1c0.5-0.1,0.9-0.1,1,0.1c0,0,0,0.1,0.1,0.1c0.6,0.3,0.4,0.5-0.7,0.6
						c0,0,0-0.1-0.1-0.1c-0.3,0-0.4,0-0.5,0s0,0.1,0.3,0.1c1.1,0.2,1.8,0.2,2.1,0.1l0.2-0.1c0.7,0.1,1.3,0.1,2,0.1h0.2
						c0,0,0,0,0.1,0c0.3,0.2,0.7,0.2,1.2,0.1h0.2c-1.7-0.3-1.7-0.4,0-0.3H48c-0.2-0.3-0.2-0.3,0.3-0.2c0.2,0,0.3,0,0.4,0
						c0.2,0,0.3,0,0.4,0c0.9,0.1,0.9,0.2,0.3,0.3l-0.2,0.1c0.8,0.2,0.9,0.3,0.3,0.3c-0.6,0.1,0,0.2,1.6,0.3c0.5,0.1,1.1,0.2,1.6,0.1
						h0.4c0.2,0.3,0.6,0.5,1.1,0.7c0.2,0.1,0.3,0.1,0.2,0.2c-0.2,0.1,0,0.2,0.4,0.3c-0.9-0.1-1.5-0.1-1.6-0.1l-0.1,0.1h-0.2
						c-0.7,0-1.2,0-1.5-0.1c-0.6-0.3-1.3-0.3-2-0.1c0.7,0,1,0.1,0.8,0.3c-0.2,0.1,0,0.1,0.8,0.1c1.6-0.1,2.5,0.1,2.5,0.5
						c0.4,0.2,0.7,0.1,0.9,0c0.1,0,0.2-0.1,0.4-0.1c1-0.1,1.2-0.1,0.7,0L55,63.4c0.6,0.2,0.3,0.3-0.8,0.4c-0.2,0-0.3,0-0.3,0.1
						C53.8,64,53.8,64,53.8,64c0.8,0.1,1.1,0.1,0.7,0.2c-0.1,0.1-0.3,0.1-0.6,0.1c-2-0.2-3.2-0.1-3.4,0.2c0.6,0,1.4,0.1,2.4,0.3
						c0.2,0,0.3,0,0.3,0c1-0.2,1.9-0.1,2.7,0.2c-0.2,0-0.2,0-0.3,0s-0.1,0.1,0.1,0.1c0.7,0.1,1.3,0.3,1.6,0.4
						c0.1,0.1,0.1,0.1-0.1,0.2c-0.1,0-0.2,0.1-0.3,0.1s-0.1,0.1-0.1,0.1c0,0.2-0.3,0.4-0.9,0.6c-0.1,0-0.2,0-0.3,0.1
						c0.5,0,1,0,1.3,0s0.6-0.1,0.7-0.1c0.1-0.1,0.1-0.1,0.1-0.2c-0.4-0.3,0.2-0.5,1.6-0.5c0.3,0,0.5-0.1,0.8-0.1
						c0.2,0,0.4,0,0.4-0.1c0.5-0.3,0.3-0.5-0.6-0.6c-1.3-0.1-1.3-0.1-0.1-0.1c0.6,0,0.9-0.1,0.7-0.2h-0.3c-0.3,0-0.6,0-0.8,0
						c-1-0.2-1.4-0.1-1.1,0.3c-0.7,0-1.2-0.1-1.6-0.1c-0.2,0-0.4-0.1-0.6-0.1c-0.2,0-0.2,0,0,0s0.3-0.1,0.5-0.1
						c0.1-0.1,0.2-0.1,0-0.1c-1-0.1-1.3-0.3-1-0.6c0-0.1,0.1-0.2,0.2-0.2c0.6,0,0.9,0,0.9-0.1c-0.1-0.2,0.2-0.2,1,0
						c1.3,0,1.5-0.2,0.6-0.6L58,63c-1.4,0-1.7-0.1-1-0.2c0.5-0.1,1-0.1,1.5,0c0.9,0.2,1.3,0.2,1.1,0c-0.1-0.1-0.3-0.3-0.7-0.4
						c-1.3,0.3-2.2,0.2-2.7-0.3h0.1c1.3,0.2,2.2,0.2,2.6,0c0.1,0,0.2,0,0.3,0c0.1-0.1,0.2-0.1,0.3-0.1c0.7,0,0.9,0,0.7-0.2h-0.1
						c0.6-0.1,1.4,0,2.2,0.2h0.2c-0.1-0.1,0-0.2,0.3-0.2c0.1,0,0.2,0,0.4,0c0.1,0,0.2,0,0.2-0.1c0,0,0-0.1-0.1-0.1s-0.1,0,0-0.1
						c0.2,0,0.5-0.1,0.8,0c0.2,0,0.3,0,0.4,0c0.9,0.1,1.5,0.1,1.7,0c0.1,0,0.2,0,0.2-0.1c0.6,0.1,1.2,0.2,1.7,0.3
						c0.4,0.2,4.7,0.5,5.4,0.7c1.3,0.3,2,0.3,2.1,0v-0.1c0.2,0.1,0.3,0.1,0.4,0.1l0.9,0.1c-0.8-0.2-1-0.3-0.8-0.4
						c0.6-0.1,1.2-0.1,1.7,0l0.2,0.1h-0.3c0.3,0.1,0.8,0.3,1.5,0.4c1,0.1,1,0.1-0.1,0.2c-0.2,0-0.5,0.1-0.7,0.1c-0.5,0-1.2,0-2.1,0
						c-0.3,0-0.6,0-0.7,0c-0.7,0.1-1.3,0.1-1.8-0.1c0.5,0,0.2-0.2-0.7-0.3c-0.3,0-4.2-0.3-4.3-0.3h-0.2c-0.6,0-0.5,0.1,0.1,0.3
						c-1.5-0.1-2.3-0.3-2.4-0.4c-0.1-0.1-0.3-0.2-0.4-0.3l0,0c0.8,0.2,1.3,0.2,1.2,0.1c-0.5-0.1-1.3-0.2-2.4-0.2c-0.2,0-0.3,0-0.2,0
						c0.1,0.1,0.3,0.2,0.5,0.2h0.1c-0.6,0-0.9,0.1-0.6,0.1c0.3,0.2,0.5,0.4,0.4,0.6c0.5,0,1,0,1.4,0c0.2,0,0.4,0,0.5,0
						c1.1,0.1,1.3,0.2,0.6,0.2l-0.3,0.1c0.2,0,0.3,0,0.5,0.1h0.2c-1.1-0.1-1.2-0.1-0.5,0.1c0.3,0.1,0.7,0.2,1.1,0.2
						c1,0.1,5.3,0.4,5.5,0.2c0.1,0,0.2,0,0.4-0.1c0.2,0,0.3,0,0.5,0c0.3,0.1,0.7,0.1,1.2-0.1c-0.1,0.2,0.5,0.3,1.5,0.3
						c0.9,0,1.3,0,1.2-0.2v-0.1c1.4,0.1,2,0,1.7-0.3c0.1-0.1,0.4-0.1,0.8,0c0.5,0.2,6.3,0.6,6.9,0.6c0.1,0,0.2-0.1,0.2-0.1
						c0-0.2,0.4-0.2,1.1-0.2h0.3c0.8-0.2,1.9-0.1,3.2,0.1c0.2,0.1,0.3,0.1,0.4,0.1c1,0,1.7,0,2.1,0.1c0.2,0,0.3,0,0.5,0
						c0.7,0,1,0.1,0.9,0.2c-0.1,0-0.1,0-0.1,0.1c0.2,0.2,0.7,0.3,1.2,0.1c0.1,0,0.2,0,0.2,0c-0.1-0.3,0.1-0.5,0.6-0.6H99
						c-0.9-0.1-1.1-0.2-0.6-0.2l0,0c0.3-0.1,0.2-0.2-0.3-0.2c-1.1-0.1-1.3,0-0.5,0.1c-0.3,0-0.8,0.1-1.5,0.1h-0.4
						c0-0.2,0.4-0.3,1.2-0.3l0,0c0.4-0.2,0.1-0.3-0.9-0.4c-0.2-0.1-0.1-0.2,0.5-0.1c0.4,0,0.5,0,0.6,0c0.4-0.2,0.9-0.2,1.7-0.1h0.3
						c0.3,0,0.4,0,0.5,0c0.4-0.3,0-0.4-1.1-0.3c-0.7-0.2-0.6-0.2,0.5-0.2c0.2,0,0.4,0,0.5,0c1.4,0,2.1,0.1,2.3,0.3
						c0,0.1,0,0.1,0,0.1c0,0.2,0.1,0.3,0.4,0.5c-0.1,0-0.2,0-0.2,0.1c0.4,0.2,0.5,0.2,0.5,0s0.5-0.2,1.6,0h0.3c0.4,0,1-0.1,1.7,0
						h0.5c0.2,0,0.7,0.1,1.3,0.1c0-0.2-0.3-0.3-0.8-0.3c-0.3,0-0.5,0-0.5-0.1l0,0l9,1.1c-0.3,0.1-0.6,0.1-0.8,0.1
						c0.2,0.1,0.4,0.1,0.6,0.1c0,0,0,0.1,0,0.2c0.2,0,0.4,0,0.6,0c0.3,0,0.4,0,0.5-0.1c0.3,0,0.4-0.1,0.2-0.2L95.6,65l-0.1,0.1
						c0.4,0.3,1.1,0.5,2.1,0.6c0.5,0,1,0.1,1.5,0.2c0.1,0,0.2,0,0.3-0.1c0.5-0.1,0.9-0.1,1.3-0.2c0.1,0,0.2,0,0.3-0.1h0.2
						c0.1,0,0.1-0.1,0.1-0.1c0-0.2-0.1-0.3-0.3-0.4c0,0,0-0.1-0.1-0.1c-0.2-0.2-0.5-0.3-0.8-0.3c0.3-0.1,0.7-0.2,1.4-0.1
						c0,0.1,0.1,0.2,0.2,0.2c0.2,0.1,0.3,0,0.1-0.2c-0.4-0.5-0.4-0.9,0.1-1.2c0.3-0.1,0.3-0.2-0.1-0.2c-0.4-0.1-0.7-0.1-1-0.2h-0.1
						c-0.2,0-0.4-0.1-0.6-0.1c0.2,0,0.4-0.1,0.6-0.1l-1.3-0.2c-0.2,0-0.4-0.1-0.6-0.2c-0.1,0-0.2-0.1-0.1-0.1
						c0.1-0.1,0.2-0.1,0.4-0.1c0.4,0.1,0.7,0.2,1,0.4c0.7,0.3,1.4,0.3,2,0c0.2,0.2,0.5,0.3,0.9,0.4c0.1,0,0.2,0,0.2,0
						c0,0.1,0,0.1,0.1,0.2c0,0.1,0,0.1,0,0.2c0,0.1,0.1,0.2,0.1,0.2c0.1,0,0.1-0.1,0.2-0.1c0,0,0-0.1,0-0.2h0.1
						c0.1-0.1,0.2-0.1,0.5-0.2c0.4-0.1,0.7-0.1,1,0c0.2-0.1,0.3-0.2,0.5-0.3c-0.6-0.1-0.5-0.2,0.3-0.4c0.1,0,0.2,0,0.3,0l0.4-0.5
						l2.8,0.2c0.4,0.9,1,1.2,1.6,0.9c0.1-0.1,0.2-0.2,0.3-0.4c0-0.1,0-0.2,0-0.3c0-0.2-0.1-0.5-0.1-0.6c-0.2,0-0.4,0-0.7,0
						c0-0.2-0.2-0.2-0.5-0.1c-0.6,0.3-1,0.2-1-0.3v-0.1c-0.5,0.1-0.9,0-1.4-0.1c-0.4-0.2-0.4-0.3-0.1-0.3c0.1-0.1,0.2-0.1,0.2,0
						c0.2,0,0.3,0.1,0.5,0.1c0.2,0.1,0.5,0.1,0.8,0.2c1.3,0.1,2.2,0.1,2.7-0.1h0.2c0.7,0.3,1.2,0.2,1.4-0.2c0.3-0.1,0.7-0.2,1.4-0.1
						c1.1,0.2,2,0.1,2.9-0.2c0.2,0,0.3,0.1,0.5,0.1l0,0l-1.6-0.6c-0.1-0.6-0.3-1.2-0.5-1.6c0,0,0-0.1-0.1-0.1s-0.3,0.1-0.4,0.1
						l-0.3-0.6c0.3,0,0.5,0.2,0.7,0.5c1-0.3,2.1-0.5,3.2-0.7c-0.4-0.1-0.8-0.2-1.2-0.4c-0.5,0.1-1.1,0.2-2,0.1c-1-0.1-1.7,0-2.3,0.1
						h-0.2c0.1-0.2-0.1-0.3-0.7-0.4c-0.5,0.2-1,0.3-1.5,0.5l-0.1,0.1c0-0.1,0-0.3,0-0.3c0.4,0.1,0.7,0,1-0.1c0-0.1,0-0.1-0.1-0.1
						c-0.2-0.1-0.3-0.2-0.4-0.2l-0.1-0.1c1.2-0.1,2.4-0.3,3.6-0.3c0.6,0,1.1,0.1,1.5,0.2c0.7,0.3,1.2,0.3,1.4-0.1
						c-0.9-0.2-1.9-0.2-3.2-0.2c-1.1,0-2-0.1-2.9-0.4h-0.2c-0.2,0.2-0.6,0.3-1.2,0.2c-0.2,0-0.4,0-0.6,0c-1.4,0.1-2.2-0.2-2.6-0.7
						c-0.2,0-0.3,0.1-0.4,0.2c-0.3,0.4-0.6,0.4-0.9,0c-0.1-0.1-0.1-0.2,0-0.3c0.2-0.1,0.4-0.2,0.7-0.4c-0.1-0.1-0.2-0.1-0.3,0
						c-0.1,0-0.2,0-0.3,0c-0.3,0-0.4-0.1-0.2-0.3l0.1-0.1c1.1-0.2,2.1-0.6,2.8-1.3c1-0.1,1.6,0,1.9,0.3c0.5,0.6,0.8,0.5,1-0.2
						c-0.4,0-0.6,0-0.6-0.2v-0.2c-0.6,0.1-1.1,0-1.7-0.2h-0.2c0,0.3-0.3,0.4-1,0.2c-0.4-0.1-0.9-0.1-1.4,0.1
						c-0.6,0.3-1.2,0.6-1.6,0.9c-0.5,0.3-1.1,0.3-1.7,0.2c-0.1,0-0.2,0-0.2,0c-0.1-0.1-0.2-0.1-0.3-0.2c-0.5-0.2-0.8-0.6-0.7-1.1
						c0-0.1,0-0.1,0.1-0.1c0.7,0.2,1,0.1,0.9-0.3c0-0.1,0-0.1,0-0.1c0.2-0.1,0.2-0.1,0.3-0.2c0.1-0.1,0-0.2-0.1-0.2
						c-0.8-0.2-0.7-0.2,0.3-0.2c0.1,0,0.2,0,0.2,0c0,0.5,0.4,0.7,1,0.4c0-0.3-0.1-0.6-0.2-0.9l-0.1-0.1c0.5-0.1,0.6-0.2,0.2-0.3
						c-0.1-0.1-0.2-0.1-0.2-0.1c-0.1-0.2-0.2-0.3-0.3-0.3c-0.4-0.3-0.5-0.5-0.2-0.5c0.1,0,0.2-0.1,0.2-0.2c0-0.5,0.1-0.8,0.6-1
						c-0.3-0.2-0.3-0.5,0-0.9c0.2-0.3,0.8-0.4,1.6-0.4l0.1-0.1c-0.4-0.2-0.5-0.3-0.2-0.4c0.8,0.1,1.2,0.2,1,0.4
						c-0.1,0.1-0.1,0.2-0.1,0.2c0.3,0,0.6,0.1,0.8,0.2c-0.4-0.3-0.4-0.6-0.1-0.9c0.8-0.1,0.7-0.2-0.3-0.3h-0.2
						c-0.1,0.1-0.2,0.3-0.2,0.4h-0.1c-1.2-0.1-1.4-0.2-0.6-0.4c0.1-0.1,0.2-0.3,0.3-0.4c0.1,0,0.3-0.1,0.4-0.1
						c0.6-0.2,1.1-0.2,1.5,0c0.1,0.1,0.2,0.1,0.3,0.1c0.1,0,0.1-0.1,0.2-0.1c0.3,0.2,0.9,0.3,1.6,0.2c0.1,0,0.2,0,0.3,0
						c0.5,0.1,1.1,0.2,1.7,0.2c0.5,0,0.9,0,1.4-0.1c1.3-0.2,2.2,0,2.7,0.5c-0.4,0.1-0.3,0.2,0.3,0.1c0.1,0,0.2,0,0.3-0.1
						c0.2-0.1,0.6-0.2,1.1-0.1c0.2,0,0.3,0,0.4,0l0.1-0.1c0.9,0,1.3-0.2,1.4-0.6l0,0c-0.3,0-0.6,0-0.8,0h-0.2
						c-0.3,0.2-0.6,0.3-0.9,0l-0.1-0.1c-0.8,0-1.2-0.2-1.3-0.6c0-0.1-0.1-0.1-0.2-0.1c-0.8-0.1-1,0-0.5,0.1c0.6,0.2,0.6,0.4,0,0.5
						c-0.3,0.1-0.5,0.2-0.8,0.2c-1,0.1-1.9,0.1-2.6-0.1c-0.7-0.2-1.5-0.3-2.3-0.5c-0.2,0-0.4,0-0.6,0c-0.7,0-0.9-0.1-0.7-0.5
						c0.1-0.2-0.1-0.3-0.8-0.1c-0.1,0.1-0.2,0.2-0.3,0.2c-0.1,0-0.2-0.1-0.3-0.1c-0.7-0.2-1.3-0.5-1.7-0.9c-0.1-0.1-0.1-0.2-0.2-0.3
						c-0.1-0.2-0.2-0.3-0.3-0.4h0.1c0.5,0.1,1,0.1,1.6,0.1c0.1,0.2,0.3,0.2,0.4,0h0.1c-0.3-0.1-0.6-0.2-0.9-0.3
						c-0.1-0.1-0.3-0.1-0.4-0.2c-0.9-0.3-0.7-0.3,0.8-0.1h0.1c0.1,0.1,0.2,0.1,0.3,0.1l-0.1,0.1v0.2c0.4,0.2,0.5,0.4,0.2,0.6
						c0.4,0,0.7-0.2,0.8-0.4c0-0.1,0-0.2-0.1-0.3c-0.4-0.4-0.7-0.4-0.8-0.2h-0.1c-0.7-0.1-0.6-0.2,0.3-0.2c0.1,0,0.2,0,0.3,0.1
						c0.9,0,1.1,0.1,0.6,0.3c-0.5-0.2-0.6-0.2-0.3,0c0.1,0.1,0.1,0.1,0.2,0.2l0.1,0.1c1,0,2.1,0,3.2,0.2c0.7,0.1,0.9,0.2,0.6,0.3
						c0.7,0,1.1,0.1,1.2,0.4c0.1,0,0.2-0.1,0.2-0.1c0-0.2,0.2-0.2,0.6,0c0.3,0.1,0.7,0.2,1.2,0.3c0.2,0.1,0.5,0.1,0.7,0.1
						c0.1,0,0.2,0,0.3,0l-0.3-0.5c-0.1,0-0.2,0-0.3-0.1h-0.1c-0.2,0-0.5-0.1-0.8-0.2c-0.1-0.1-0.1-0.1-0.2-0.2l-0.1-0.1
						c-0.6,0.1-1,0-1.4-0.2c-0.1,0-0.2,0-0.2,0h-0.2c0,0.3-0.3,0.4-0.8,0.1c-0.1,0-0.3-0.1-0.5-0.1c-0.1,0-0.2,0-0.2,0
						c-0.6-0.2-1.3-0.3-2.1-0.4c-0.1,0-0.2,0-0.3,0c-0.6,0-0.9-0.1-0.8-0.2c0-0.1,0.1-0.1,0.2-0.2c1,0,1.1,0,0.3-0.2h-0.2
						c-0.3,0.1-0.5,0.1-0.8-0.1c-0.1,0-0.2,0-0.3,0c-1.1-0.2-2.1-0.3-2.8-0.5c-0.1,0-0.2-0.1-0.3-0.1l-0.2-0.1
						c0.4,0.1,0.7,0.1,1.2,0L104.3,41 M108.5,58c-0.8-0.3-0.8-0.5,0.1-0.6c0.2,0.2,0.5,0.2,0.9,0l0.2-0.1c0,0.1,0,0.2,0.1,0.2
						l-0.1-0.1C109.7,57.7,109.4,57.9,108.5,58 M107.7,56.9c0.1,0,0.2,0,0.2,0c-0.1,0-0.2,0-0.4,0C107.6,56.9,107.6,56.9,107.7,56.9
						 M110,57.6c-0.1-0.1-0.2-0.1-0.3-0.1l0,0C109.8,57.5,109.9,57.5,110,57.6L110,57.6L110,57.6L110,57.6 M96.5,65L96.5,65
						C96.4,65,96.4,65,96.5,65l-0.2-0.7c0.1,0,0.1,0,0.2,0s0.2,0,0.3,0c0.5,0.1,0.9,0.3,1.2,0.5c-0.2,0-0.5,0-0.7,0
						C96.7,64.8,96.5,64.8,96.5,65 M15.6,52.6c0,0,0.1,0,0.1-0.1h0.1c0.1,0.1,0.1,0.1,0.2,0.1C15.9,52.5,15.8,52.6,15.6,52.6
						 M104.9,39.2C105,39.2,105,39.1,104.9,39.2c-0.1-0.1-0.2-0.2-0.4-0.2c-0.6-0.2-0.7-0.1-0.3,0.4
						C104.6,39.4,104.8,39.3,104.9,39.2 M103.4,31.1c0.8,0,1-0.1,0.5-0.3C103.5,30.6,103.3,30.7,103.4,31.1 M106.1,33.4
						c0.1,0,0.2,0.1,0.3,0.1c0.1,0.1,0.2,0.1,0.2,0.1c0.1,0,0.3,0,0.4,0c0.5,0.1,0.9,0.1,1,0.1c0.2-0.2,0.5-0.2,0.8,0.1
						c-0.1-0.2,0-0.3,0.3-0.3l0.3,0.1c-0.1-0.1-0.3-0.2-0.6-0.3c-0.2-0.3-0.6-0.5-1.2-0.6c-0.5-0.1-0.9-0.1-0.9-0.1
						c-0.1,0.1-0.1,0.1-0.3,0.1c-0.5,0-0.9,0-1.4,0s-0.9,0-1.4-0.1c0.1-0.2,0.2-0.4,0.2-0.6c0-0.1,0-0.1-0.1-0.1
						c-0.5-0.1-0.9-0.4-1.2-0.6c-0.6-0.4-1.4-0.8-2.6-1s-2.2-0.5-3-0.9c-0.1-0.1-0.2-0.1-0.2-0.1c-0.5,0.1-0.8,0-0.9,0
						c-0.1-0.1-0.2-0.2-0.3-0.2c-0.2,0-0.3,0-0.5,0c-0.3,0-0.6,0.1-1,0c-0.4,0-0.8,0-1.2-0.1c-0.7-0.1,22.8-1.1,22.4-1.3
						c-0.2-0.1-0.5-0.2-0.9-0.2c-0.1,0-0.1,0-0.1,0c0.1,0.2-0.1,0.3-0.4,0.3c-0.8-0.1-1.6-0.2-2.3-0.3c-0.5,0-0.7,0-0.8,0.1
						c-0.5-0.1-0.9-0.2-1.3-0.3c-0.4,0-0.8-0.1-1.2-0.2l-0.3-0.1l0,0c-0.1,0-0.3-0.1-0.4-0.1V27c-0.8-0.1-1.4-0.1-2,0
						c0.5,0,0.9,0.1,1.3,0.2c0.3,0.1,0.6,0.1,0.8,0.1c0.9,0.1,1.7,0.3,2.5,0.4c0.3,0,0.5,0,0.8,0.1c0.9,0.2,1.9,0.3,3,0.4
						c-0.1,0.1-0.2,0.2-0.3,0.3c-0.3,0-0.6,0.1-0.9,0c-0.9,0.1-1.5,0.1-2-0.1c-0.4-0.2-1-0.2-1.7-0.3c-0.5-0.1-0.9-0.1-1.4-0.1
						l0.1,0.6c0.2,0,0.3,0.1,0.5,0.1c0.7,0.1,1.4,0.2,2.3,0.3c0.4,0,0.7-0.1,1.1,0c0.2,0,0.4,0,0.5-0.1c0.8-0.2,1.7-0.4,2.8-0.5
						c0.1,0.1,0.2,0.1,0.3,0.1v-0.1c0.1,0-23.7,0.9-23.6,0.8c0.4-0.1,0.6-0.1,0.6,0.2c0,0,0,0.1,0.1,0.1c0.6,0.3,1,0.3,1.3,0
						c1.5-0.1,2.5,0.1,3,0.4c0.1,0.1,0.2,0.1,0.3,0.1c1.2,0.2,2,0.5,2.4,0.9c0.1,0,0.2,0,0.2-0.1c0.3-0.1,0.7,0,1.2,0.3
						c0.2,0.1,0.5,0.2,0.7,0.3c0.1,0.1,0.3,0.1,0.4,0.2s0.2,0.1,0.3,0.1c0.5,0.2,0.7,0.5,0.6,0.9c-0.2,0-0.4,0-0.6,0
						c-0.8,0-1,0-0.5,0.1c0.2,0.1,0.4,0.1,0.5,0.2c0.1,0.1,0.2,0.2,0.2,0.2c0.3,0.2,0.5,0.5,0.7,0.7c0.1,0.1,0.3,0.2,0.5,0.3
						c1.4,0.6,2.8,1.4,4,2.1c-0.6,0.1-0.8,0.1-0.6,0.2c0.4,0.2,0.7,0.2,0.9-0.1c0.1,0,0.1-0.1,0.1-0.1c0.3,0.1,0.5,0.2,0.5,0.3h0.1
						c0.7-0.1,1,0,1,0.4c0.1-0.1,0.2-0.1,0.3-0.1c0.5-0.1,0.6-0.2,0.3-0.3c-0.8-0.2-1.5-0.4-2.1-0.7c-0.9-0.4-1.8-0.8-2.8-1.2
						c0-0.2-0.1-0.3-0.3-0.4l-0.1-0.1c0.3-0.1,0.2-0.1-0.2-0.2c-0.2,0-0.3-0.1-0.4-0.1c0,0,0,0,0-0.1c0-0.2-0.1-0.3-0.5-0.3
						c-0.4-0.2-0.3-0.4,0.2-0.4c0.3,0,0.6-0.1,0.9-0.2C105.4,33.2,105.8,33.2,106.1,33.4 M106.2,28.8c-0.1,0.3-0.1,0.6-0.2,0.9
						c0.7-0.1,1-0.3,0.9-0.5s-0.2-0.3-0.3-0.5c-0.2-0.2-0.4-0.3-0.6-0.2c-0.5,0.3-0.5,0.4-0.1,0.3L106.2,28.8 M105.9,30.1
						L105.9,30.1c-0.7,0.2-0.7,0.3,0,0.5C106.2,30.5,106.2,30.3,105.9,30.1 M104.4,24.9c-0.6-0.2-0.9-0.2-1,0.1c0.4,0,0.6,0,0.8,0
						L104.4,24.9 M103.3,26.4c0.1,0,0.2,0,0.2,0l0.1-0.1c0.5,0.1,0.8,0.1,0.9,0c0.1,0,0.1,0,0.1,0c0.5,0.1,0.9,0.1,1.3-0.1
						c-0.1,0-0.2,0-0.3,0c-1.4-0.2-2.4-0.5-3-1c0.4,0.4,0.3,0.6-0.2,0.6s-1,0-1.5,0l-0.2,0.1c0.1,0.1,0.4,0.2,0.9,0.2
						C102.6,26.1,103.2,26.2,103.3,26.4 M108.5,28.1L108.5,28.1c-0.3-0.3-0.7-0.3-1.1-0.3c-0.1,0.1-0.2,0.1-0.3,0.1
						c-0.6-0.3-1.2-0.4-1.6-0.1c-0.3,0.1-0.2,0.3,0.4,0.6c0.2-0.2,0.6-0.2,1.1,0c0.2,0.1,0.5,0,0.9-0.2
						C108.3,28.3,108.5,28.2,108.5,28.1 M115,40.1l0.2-0.2v-0.1C114.9,39.8,114.8,39.9,115,40.1 M113.3,41.6
						c0.2-0.2,0.2-0.3-0.1-0.3c-0.6,0-1-0.1-1.2-0.1c-1,0.1-1.2,0.3-0.5,0.7c0.3,0,0.5-0.1,0.4-0.3c0-0.1,0-0.1,0.2-0.1
						c0.1-0.1,0.2-0.1,0.3-0.1C112.9,41.7,113.2,41.7,113.3,41.6 M113.6,42.1C113.7,42,113.7,42,113.6,42.1
						c-0.1-0.1-0.3-0.1-0.5-0.1c-0.5,0.1-0.6,0.2-0.3,0.4C113.2,42.3,113.5,42.2,113.6,42.1 M115.3,39.2v-0.4
						c-0.6-0.2-0.8,0-0.8,0.5C114.8,39.3,115.1,39.2,115.3,39.2 M115.4,38.5L115.4,38.5l0.2-0.3C115.4,38.2,115.4,38.3,115.4,38.5
						 M113.4,35.6L113.4,35.6c0.3,0.2,0.5,0.1,0.6-0.1c0.1-0.2-0.1-0.3-0.6-0.3c-0.1,0-0.2-0.1-0.3-0.1c-0.3,0-0.5-0.1-0.8-0.1
						c-0.2-0.1-0.5-0.1-0.9-0.1c-1,0.1-1.6,0-1.7-0.3c-0.6,0.1-0.7,0.2-0.3,0.4c0.1,0.1,0.5,0.1,1.2,0.1c0.5-0.1,0.8,0,1.1,0.3
						c0.1,0,0.2,0.1,0.4,0.1c0.5,0,0.7,0.1,0.6,0.3C112.7,35.6,113,35.6,113.4,35.6 M112.9,30.7h0.2c0-0.1-0.1-0.1-0.2-0.2
						C112.8,30.6,112.9,30.6,112.9,30.7 M113.7,31.4c0,0,0.1-0.1,0.1-0.2c-0.2,0-0.3,0.1-0.3,0.1c0,0.1,0,0.1,0,0.2
						C113.6,31.5,113.7,31.5,113.7,31.4 M114.5,30.7c-0.1,0-0.2,0-0.4,0c-0.1,0-0.2,0-0.2,0c-0.7,0.1-0.8,0.1-0.2,0.2
						c0.1,0,0.1,0,0.2,0s0.2,0,0.2,0C114.3,30.9,114.4,30.8,114.5,30.7 M112.9,27.3h-0.2c-0.3,0.1-0.8,0.2-1.6,0.1
						c-1.2-0.1-1.3,0-0.4,0.4c0.5,0.2,0.8,0.5,0.8,0.9h0.1C112,28.1,112.4,27.6,112.9,27.3 M125.6,67.3l-1.5-0.1l1.3,0.4
						C125.5,67.5,125.5,67.4,125.6,67.3 M133.7,73.2c-0.1,0-0.2,0-0.2,0c-0.4,0-0.5,0.1,0,0.3C134.5,73.4,134.6,73.3,133.7,73.2
						 M123.9,50h0.3c-0.6-0.7-1-0.7-1.1,0C123.3,50,123.6,50,123.9,50 M129.3,50l0.1-0.2c-1-0.2-1.6-0.1-1.9,0.3
						C128.4,50.2,129,50.2,129.3,50 M128.6,47.9c0,0.1,0.1,0.2,0.2,0.3c0.1-0.1,0.2-0.2,0.3-0.2c0.2,0,0.3-0.1,0.3-0.2
						c0,0,0,0,0-0.1C129.2,47.8,128.9,47.8,128.6,47.9 M128.3,16.7c0.4,0,0.7-0.1,0.9-0.2l0.1-0.1C128.5,16.2,128.2,16.3,128.3,16.7
						 M107,17.6c1.4,0.1,2.3-0.1,2.6-0.4v-0.1C108.3,16.9,107.4,17.1,107,17.6 M92.6,16.2c-0.4-0.1-0.6,0-0.6,0.1s0.1,0.2,0.3,0.3
						c0.2,0.1,0.4,0.3,0.6,0.5c0.3,0.3,0.7,0.7,1.1,1h0.1c-0.2-0.3-0.4-0.6-0.8-0.8c0-0.3,0-0.5,0-0.8v-0.1
						C93.1,16.2,92.9,16.1,92.6,16.2 M79.1,15c0.3,0,0.6-0.1,0.8-0.1c0.6-0.2,6.2,0,6.6-0.2c0.3-0.2,0.5-0.4,0.6-0.6
						c0.3-0.3,0.2-0.4-0.1-0.5c0.6-0.2,0.6-0.2-0.1-0.2c-0.1,0-0.3-0.1-0.3-0.1c-1.3-0.2-7.2-0.5-7.3-0.2c0.2,0.1,0.3,0.1,0.5,0.1
						s0.3,0,0.6,0c0.8,0,6.3,0.4,6,0.5C85.5,14.1,79.7,14.4,79.1,15 M76.3,16.3c-1,0-1.5,0.2-1.4,0.6c0.8-0.1,1.3-0.3,1.4-0.5V16.3
						 M63,18.4C63,18.5,63.1,18.5,63,18.4c0.9,0.5,1.4,0.9,1.6,1.3c0.8,0.2,1.4,0.3,2,0.5c0.2,0.1,0.4,0.2,0.6,0.3
						c0.2,0,0.3,0,0.4,0c0.4,0.1,4.5,0.3,4.9,0.4c0.3,0.1,0.6,0.1,0.8,0.1c0.5,0.1,1.1,0.2,1.6,0.3c0.5,0.1,0.9,0.3,1,0.4
						c0.9,0,1.1-0.1,0.4-0.3l-0.2-0.1c0.8,0,1.3-0.2,1.4-0.5c0-0.1,0-0.1,0-0.1c0-0.1-0.1-0.2-0.4-0.2c-1.2-0.2-1.5-0.3-0.9-0.4
						c-0.7-0.2-0.8-0.4-0.2-0.4c0.7-0.1,0.8-0.2,0.3-0.3c-0.2-0.1-0.3-0.2-0.5-0.2s-0.3,0-0.3,0c-0.2-0.4-0.6-0.6-1.1-0.9
						c-0.2-0.1-0.3-0.1-0.3-0.1c-0.2,0-0.3-0.1-0.4-0.2c-0.5,0-0.9-0.1-1.2-0.2c-0.8-0.3-5.2-0.6-5.8-0.5c-0.5-0.1-1-0.1-1.4,0
						c-0.3,0.1-0.6,0.2-0.7,0.3c0,0-0.1,0-0.1,0.1c-0.1,0.1-0.3,0.2-0.6,0.3C63.7,18.1,63.3,18.2,63,18.4 M58.2,11.8
						c-0.5,0.3-0.3,0.5,0.5,0.7c0.2,0.1,0.4,0.2,0.4,0.3c0.3,0.5,0.2,0.9-0.1,1.3c1.3,0,1.8-0.1,1.6-0.4v-0.1
						c-0.1-0.4,0.1-0.7,0.6-0.9c-0.2-0.1-0.3-0.1-0.3-0.1c-0.8,0.1-1.2,0-1.3-0.3C59.4,11.9,59,11.8,58.2,11.8 M56.6,18h-0.3
						c0.2,0.3-0.1,0.5-0.9,0.6h0.2c0.5,0.2,0.9,0.5,1.2,0.7c0.3,0,0.6,0,0.7,0c0.2,0,0.3-0.1,0.4-0.2c0.2-0.1,0.3-0.2,0.4-0.4
						C58.5,18.4,58,18.1,56.6,18 M42.5,18.4l-0.2-0.2c-0.7,0.1-0.7,0.3-0.1,0.6c0.6,0.2,0.5,0.4-0.2,0.7c0.2,0,0.3,0,0.4,0
						c0.2,0,0.4-0.1,0.5-0.1c0.7,0.1,1,0,0.9-0.1C43.5,18.9,43,18.6,42.5,18.4 M35.8,14.2c0.8-0.1,0.7-0.2-0.1-0.4
						c-0.2-0.1-0.3-0.1-0.3-0.1C34.8,13.7,34.9,13.9,35.8,14.2 M28.1,19.4c0.9,0.1,1.7,0.1,2.3,0c0.8-0.1,1-0.2,0.5-0.2
						c-0.3,0-0.5,0-0.6,0C29.8,19.3,29,19.4,28.1,19.4z"/>
				</g>
			</g>
		</g>
	</g>
</g>
<g id="Layer_2_1_">
	<g id="Education">
		<g id="Icon-3">
			<path id="book-open" class="st1" d="M89.4,27.7v32.5c0,2.3-1.9,4.2-4.2,4.2H43.5c-2.3,0-4.2-1.9-4.2-4.2V27.7
				c0-0.5,0.4-0.8,0.8-0.8c0.5,0,0.8,0.4,0.8,0.8v32.5c0,1.4,1.1,2.5,2.5,2.5h20v-2c-1-0.4-3.6-1.4-6.7-1.4c-7.3,0-13,1.6-13.1,1.6
				s-0.2,0-0.2,0c-0.2,0-0.4-0.1-0.5-0.2c-0.2-0.2-0.3-0.4-0.3-0.7V23.6c0-0.4,0.2-0.7,0.6-0.8c0.2-0.1,6-1.7,13.6-1.7
				c4.3,0,7.7,1.7,7.9,1.8c0.3,0.1,0.5,0.4,0.5,0.7v31.9c2.5-1.4,8.5-4.7,14.2-6.6V16.5c-6.1,2.5-12,6.1-12.1,6.2
				c-0.4,0.2-0.9,0.1-1.1-0.3s-0.1-0.9,0.3-1.1c0.1,0,6.8-4.2,13.5-6.7c0.3-0.1,0.5-0.1,0.8,0.1c0.2,0.2,0.4,0.4,0.4,0.7v34.2
				c0,0.4-0.2,0.7-0.6,0.8c-7.3,2.4-15.6,7.4-15.7,7.4c-0.3,0.2-0.6,0.2-0.8,0c-0.3-0.1-0.4-0.4-0.4-0.7v-33c-1-0.4-3.6-1.4-6.7-1.4
				c-5.9,0-10.8,1.1-12.5,1.5v34.9c2-0.5,6.8-1.4,12.5-1.4c3.6,0,6.6,1.2,7.5,1.6c1.1-0.4,4.7-1.6,8.3-1.6c5.6,0,9.8,0.9,11.7,1.4
				V24.3c-0.3-0.1-0.6-0.1-1.1-0.2s-0.8-0.5-0.7-1c0.1-0.5,0.5-0.8,1-0.7c1.1,0.2,1.8,0.4,1.8,0.4c0.4,0.1,0.7,0.4,0.7,0.8v36.7
				c0,0.3-0.1,0.5-0.3,0.7c-0.2,0.2-0.5,0.2-0.8,0.1c0,0-5-1.6-12.2-1.6c-3.1,0-6.3,1-7.5,1.4v1.9h20c1.4,0,2.5-1.1,2.5-2.5V27.7
				c0-0.5,0.4-0.8,0.8-0.8C89,26.9,89.4,27.3,89.4,27.7L89.4,27.7z M59.6,29.9c-5.1-1.2-11,0.3-11.2,0.4c-0.4,0.1-0.7,0.6-0.6,1
				c0.1,0.4,0.4,0.6,0.8,0.6c0.1,0,0.1,0,0.2,0c0.1,0,5.7-1.5,10.4-0.4c0.4,0.1,0.9-0.2,1-0.6C60.3,30.4,60,30,59.6,29.9L59.6,29.9z
				 M59.6,34.9c-5.1-1.2-11,0.3-11.2,0.4c-0.4,0.1-0.7,0.6-0.6,1c0.1,0.4,0.4,0.6,0.8,0.6c0.1,0,0.1,0,0.2,0c0.1,0,5.7-1.5,10.4-0.4
				c0.4,0.1,0.9-0.2,1-0.6C60.3,35.4,60,35,59.6,34.9L59.6,34.9z M59.6,39.9c-5.1-1.2-11,0.3-11.2,0.4c-0.4,0.1-0.7,0.6-0.6,1
				c0.1,0.4,0.4,0.6,0.8,0.6c0.1,0,0.1,0,0.2,0c0.1,0,5.7-1.5,10.4-0.4c0.4,0.1,0.9-0.2,1-0.6C60.3,40.4,60,40,59.6,39.9L59.6,39.9z
				 M59.6,44.9c-5.1-1.2-11,0.3-11.2,0.4c-0.4,0.1-0.7,0.6-0.6,1c0.1,0.4,0.4,0.6,0.8,0.6c0.1,0,0.1,0,0.2,0c0.1,0,5.7-1.5,10.4-0.4
				c0.4,0.1,0.9-0.2,1-0.6C60.3,45.4,60,45,59.6,44.9L59.6,44.9z M59.6,49.9c-5.1-1.2-11,0.3-11.2,0.4c-0.4,0.1-0.7,0.6-0.6,1
				c0.1,0.4,0.4,0.6,0.8,0.6c0.1,0,0.1,0,0.2,0c0.1,0,5.7-1.5,10.4-0.4c0.4,0.1,0.9-0.2,1-0.6C60.3,50.4,60,50,59.6,49.9L59.6,49.9z
				 M67.8,48.1c0.1,0.3,0.4,0.5,0.7,0.5c0.1,0,0.3,0,0.4-0.1c0,0,5-2.5,7.4-3.3c0.4-0.1,0.7-0.6,0.5-1c-0.1-0.4-0.6-0.7-1-0.5
				c-2.5,0.8-7.4,3.3-7.6,3.4C67.8,47.2,67.6,47.7,67.8,48.1L67.8,48.1z M67.8,43.1c0.1,0.3,0.4,0.5,0.7,0.5c0.1,0,0.3,0,0.4-0.1
				c0,0,5-2.5,7.4-3.3c0.4-0.1,0.7-0.6,0.5-1c-0.1-0.4-0.6-0.7-1-0.5c-2.5,0.8-7.4,3.3-7.6,3.4C67.8,42.2,67.6,42.7,67.8,43.1
				L67.8,43.1z M67.8,38.1c0.1,0.3,0.4,0.5,0.7,0.5c0.1,0,0.3,0,0.4-0.1c0,0,5-2.5,7.4-3.3c0.4-0.1,0.7-0.6,0.5-1
				c-0.1-0.4-0.6-0.7-1-0.5c-2.5,0.8-7.4,3.3-7.6,3.4C67.8,37.2,67.6,37.7,67.8,38.1L67.8,38.1z M67.8,33.1c0.1,0.3,0.4,0.5,0.7,0.5
				c0.1,0,0.3,0,0.4-0.1c0,0,5-2.5,7.4-3.3c0.4-0.1,0.7-0.6,0.5-1c-0.1-0.4-0.6-0.7-1-0.5c-2.5,0.8-7.4,3.3-7.6,3.4
				C67.8,32.2,67.6,32.7,67.8,33.1L67.8,33.1z M68.5,28.6c0.1,0,0.3,0,0.4-0.1c0,0,5-2.5,7.4-3.3c0.4-0.1,0.7-0.6,0.5-1
				c-0.1-0.4-0.6-0.7-1-0.5c-2.5,0.8-7.4,3.3-7.6,3.4c-0.4,0.2-0.6,0.7-0.4,1.1C68,28.4,68.2,28.6,68.5,28.6L68.5,28.6z"/>
		</g>
	</g>
</g>
</svg>
