<?xml version="1.0" encoding="utf-8"?>
<!-- Generator: Adobe Illustrator 25.2.1, SVG Export Plug-In . SVG Version: 6.00 Build 0)  -->
<svg version="1.1" id="Layer_1" xmlns="http://www.w3.org/2000/svg" xmlns:xlink="http://www.w3.org/1999/xlink" x="0px" y="0px"
	 viewBox="0 0 323.2 81.6" style="enable-background:new 0 0 323.2 81.6;" xml:space="preserve">
<style type="text/css">
	.st0{fill:#B01F24;}
	.st1{fill:#FFFFFF;}
</style>
<g id="casee_25_" transform="matrix( 1, 0, 0, 1, 0,0) ">
	<g transform="matrix( 1, 0, 0, 1, 0,0) ">
		<g>
			<g id="CaseMc_1_0_Layer0_0_FILL_25_">
				<path class="st0" d="M36.6,69.1l-0.1,0c1.2,0,1.8,0.1,1.7,0.3c0.6,0,0.7-0.1,0.5-0.2c-0.1-0.1,0.2-0.1,0.9-0.1l0.3,0
					c-0.2,0-0.4-0.1-0.6-0.1c-0.2-0.1-0.3-0.1-0.5-0.1c-0.4,0-0.8,0-1.2,0L37.4,69C37,69,36.7,69,36.6,69.1 M34.8,69.3l0.3,0
					c-1.6-0.1-2.4,0-2.3,0.2C33.7,69.4,34.4,69.4,34.8,69.3 M30.6,65.7c0.2,0.1,0.3,0.3,0.3,0.5c0.6-0.1,1-0.1,1.2-0.2
					c-0.9-0.1-1.2-0.2-0.9-0.4c0,0,0.1-0.1,0.3-0.1c0.5-0.1,0.5-0.2,0.1-0.2c-1,0-1.3,0.1-1.2,0.2C30.5,65.6,30.5,65.6,30.6,65.7
					 M33.5,63.3c0.4,0,0.7-0.1,0.8-0.1c0.1-0.1,0-0.1-0.1-0.1C33.4,62.9,33.1,63,33.5,63.3 M34.7,59.7l-0.3,0
					c1.1-0.2,0.8-0.2-0.8-0.2l-0.2,0.1c0.4,0.1,0.3,0.2-0.2,0.3c-0.9,0-1.1,0.1-0.4,0.3c0.7,0,1.2,0,1.6-0.1
					C35.1,59.8,35.2,59.7,34.7,59.7 M38.9,63.5c0.2,0,0.4,0,0.6,0c2.1,0,2.5-0.1,1-0.1c-0.6-0.1-1.1-0.2-1.6-0.2l-0.3,0
					c-1.8,0-2.6,0.2-2.4,0.5C37.2,63.6,38,63.5,38.9,63.5 M37.8,62.3C37.9,62.2,37.9,62.2,37.8,62.3c-2.1-0.1-2.8,0-1.9,0.3
					C37,62.6,37.7,62.5,37.8,62.3 M39,61c0.2,0,0.3,0,0.5,0l0.6,0c-0.1-0.1-0.7-0.2-1.8-0.2l-0.5,0C38.1,60.9,38.5,60.9,39,61
					 M37.1,59.1c0.3,0,0.7,0,1.1,0l0.3,0c0.4-0.2,0.3-0.3-0.3-0.3c-0.3,0-0.4-0.1-0.5-0.1c-0.5-0.1-1.1-0.1-1.9-0.1
					c-0.2,0-0.3,0-0.5,0c-1,0-1.4,0.1-1.4,0.1c0.1,0.2,0.7,0.4,1.6,0.5C36.1,59.2,36.6,59.1,37.1,59.1 M41,60.5c0.7,0,1,0,0.7,0
					c-0.3-0.1-1.1-0.1-2.4-0.2c-1.6,0-3.1,0-4.3-0.1c-1-0.1-1.7-0.1-2.1,0c0.1-0.2-0.1-0.2-0.7-0.2c-0.5,0-0.8-0.1-0.8-0.1l0,0
					c0.1,0.1-0.3,0.2-1.3,0.1c-0.5,0.1-0.1,0.2,1.1,0.3c0.4,0,0.7,0,0.8,0.1c0.5,0.1,1,0.3,1.5,0.4c0.2,0,0.3,0.1,0.3,0.1
					c0.1,0.2,0.4,0.3,0.9,0.3c1.2,0,1.9,0,2.3,0.1c0.1,0,0.3-0.1,0.4-0.1c0.6-0.1,0.6-0.2-0.1-0.3C36.6,61,35.7,61,34.7,61
					c0-0.2,0.3-0.3,0.9-0.3l0.3-0.1c-0.2,0-0.4,0-0.7,0c-0.7-0.1-0.8-0.1-0.3-0.1C36.8,60.5,38.8,60.6,41,60.5 M40.9,59
					c0.2,0,0.3,0,0.5,0c0.3,0,0.5,0,0.6,0c1.6,0,1.9-0.1,1-0.2l-0.3,0C42,58.8,41.4,58.9,40.9,59 M21.1,71c0.2,0,0.4,0,0.5,0
					c2-0.2,3.3-0.5,3.9-0.9l0,0C23.9,70.3,22.4,70.7,21.1,71 M21.3,61.8c-0.1-0.2,0.2-0.3,1.2-0.4c1.3-0.1,2.3-0.3,3-0.6
					c-2.3,0.2-4.5,0.5-6.5,0.7c-0.2,0-0.4,0-0.6,0c-0.4,0-0.7,0-0.9,0l0,0.3c0.2,0.1,0.3,0.1,0.4,0c0,0,0-0.1,0.1-0.1
					c1.1-0.1,1.8,0,2.3,0.3c0.3-0.1,0.7-0.2,1.3-0.3L21.3,61.8 M25.6,59.8c0.1,0,0.2-0.1,0.2-0.2c-0.1-0.1,0.1-0.1,0.7-0.1l0.5,0
					c0-0.1-0.2-0.1-0.5-0.2l-0.3,0C25.1,59.4,24.9,59.6,25.6,59.8 M27.3,60.5l0.2-0.1c-1.9,0-2.4,0.2-1.5,0.4
					C26.6,60.8,27.1,60.7,27.3,60.5 M27.4,60.2c0.2,0,0.3,0,0.4,0l0.3-0.1c-0.4-0.2-0.7-0.3-1.1-0.4l-0.1-0.1
					C26.2,59.9,26.4,60,27.4,60.2 M20.4,57.5c1.6,0,2-0.1,1.2-0.2l-0.3-0.1c-0.5,0-1.1,0-1.6,0.1C19.3,57.3,19.5,57.4,20.4,57.5
					 M20.1,56.6c0.3,0,0.7,0,1.1,0l0.2,0c-0.7-0.2-1.3-0.2-1.8,0.1C19.7,56.7,19.9,56.6,20.1,56.6 M16.7,57.9c1,0,1.3,0,1-0.1
					c-0.4-0.2-0.1-0.3,0.7-0.4l0.1-0.1c0.3-0.1,0.2-0.2-0.3-0.2c-0.2,0-0.4,0-0.5,0c-0.3,0-0.4,0-0.4,0.1
					C17.4,57.5,17.2,57.7,16.7,57.9 M17.9,55.6l-0.5,0c0.1,0.1,0.5,0.2,1.2,0.4c0.2,0,0.3,0,0.3,0c0.7-0.1,1.5,0,2.4,0.1
					c1.1,0,0.9-0.1-0.7-0.2C19.8,55.8,18.9,55.7,17.9,55.6 M18.3,53.6c0.3,0,0.6,0,0.6-0.1c0.5-0.3,0.2-0.4-0.7-0.3
					C17.2,53.4,17.2,53.5,18.3,53.6 M21.4,53.2c0.5-0.1,1-0.1,1.4-0.2l0.3-0.1C21.9,52.8,21.3,52.9,21.4,53.2 M22.8,53.1l-0.2,0
					c0.4,0.1,0.9,0.2,1.4,0.2c1.1,0,1.8-0.1,2.1-0.2c0.1,0,0.2,0,0.1-0.1c-0.4-0.2-0.8-0.2-1.3,0C24.9,53.2,24.1,53.2,22.8,53.1
					 M21.9,54c0,0-0.1-0.1-0.3-0.1c-1,0-1.7,0-2,0c-0.2-0.1-0.2-0.1-0.1-0.1c0.2,0,0.4-0.1,0.5-0.1c0.7-0.2,0.6-0.2-0.3-0.1
					c-0.3,0-0.5,0.1-0.6,0.1c-0.4,0-0.5,0.2-0.3,0.3c0.2,0.1,0.6,0.2,1.3,0.3c0.2,0,0.4,0,0.5,0C21.9,54.2,22.3,54.1,21.9,54
					 M27.9,50c0.8,0.1,1.1,0,1-0.2c0-0.1-0.1-0.1-0.2-0.1C27.1,49.6,26.9,49.7,27.9,50 M24,51.7c0.3,0,0.6,0,0.8-0.1l0-0.1
					c-0.2-0.6-0.9-0.8-2-0.4l-0.3,0.1C23.6,51.2,24.1,51.3,24,51.7 M38.2,55.9L38.2,55.9c-0.4-0.1-1.2-0.1-2.2,0
					c-0.6,0.1-0.4,0.1,0.5,0.2C37.6,56.2,38.2,56.1,38.2,55.9 M33.7,57.7c-0.1-0.1-0.2-0.1-0.4-0.1c-1.3,0-1.6,0.1-0.9,0.3
					C33.6,58,34.1,57.9,33.7,57.7 M30.2,56.4l0.2-0.1c-0.5-0.1-1-0.2-1.4-0.3c0.1,0.2-0.6,0.2-2.1,0.2c-1.3,0-2.3,0-3-0.1l-0.3,0
					c0.5,0.1,1.5,0.3,2.8,0.4c0.2,0,0.3,0,0.4,0.1l-0.1,0c-1.1-0.1-1.6,0-1.7,0.3c1.2-0.1,2.2-0.1,3.2-0.1l0.3,0
					c0-0.1,0.7-0.1,1.9,0C29.7,56.6,29.7,56.5,30.2,56.4 M32.9,56.5l-0.6,0c0.5,0.1,0.9,0.2,1.4,0.4l0.1,0c-0.4,0.1,0.3,0.2,2,0.2
					c1.5,0,2.6,0.1,3.3,0.3c0.2,0,0.4,0,0.5,0c0.2,0,0.4,0,0.6,0c0.6-0.1,0.8-0.1,0.7-0.2c-0.2-0.2-0.9-0.2-2-0.2
					c-0.3,0-0.7,0-1.1,0c-1.1,0.1-1.6,0-1.4-0.3c0,0,0-0.1,0.1-0.1c0.3-0.1-0.4-0.2-2-0.3l-0.6,0C33.8,56.4,33.4,56.5,32.9,56.5
					 M12.8,57.5l-0.2,0c0.4,0.1,0.8,0.1,1.4,0.2c0.4,0,0.7,0,0.8-0.1C14.2,57.5,13.6,57.4,12.8,57.5 M11.3,53.5c0.2,0,0.3,0,0.5,0
					c0.3,0,0.6,0,0.7-0.1c0.5-0.2,0.4-0.2-0.3-0.2c-0.3,0-0.5,0-0.7-0.1C11.8,53.3,11.7,53.4,11.3,53.5 M15.7,55.2
					c-1.1,0.1-1,0.2,0.1,0.4c0.9,0,1.3-0.1,1.2-0.1c-0.1-0.1-0.2-0.1-0.4-0.1c-0.2,0-0.4-0.1-0.7-0.1L15.7,55.2 M8.8,57.8l-0.1,0
					L9,58c0.5-0.1,0.9-0.1,1.3-0.1c0,0,0.1,0,0.1,0C11,57.9,10.5,57.8,8.8,57.8 M6.2,54.1l-0.5,0.1c0.2,0,0.5,0,1,0.2
					C8.9,54.2,8.8,54.1,6.2,54.1 M8.2,54.4c-0.4,0.1-0.2,0.2,0.8,0.3c0.2,0,0.4,0,0.6-0.1c0.1,0,0.3,0,0.5,0
					c1.3-0.1,1.3-0.1-0.1-0.1l-0.3,0C8.9,54.3,8.4,54.3,8.2,54.4 M7.3,55.5c0.3,0,0.8-0.1,1.4-0.1c0.6-0.1,1.3-0.1,2.2,0
					c1.3,0.1,2,0.1,2.1-0.2c-2.3,0.1-3.7,0-4.1-0.2l-0.8,0c-0.2-0.2-0.5-0.3-0.9-0.4c-0.2,0-0.3-0.1-0.4-0.1c-1.4-0.1-1.7,0-0.8,0
					c0,0,0,0,0.1,0c0.1,0,0.2,0.1,0.3,0.1c0.1,0.1,0.1,0.1,0,0.1c-1,0.1-1.6,0-1.8-0.1l-0.3,0c-0.8,0.1-0.8,0.2,0,0.3
					c0.6,0.1,1.1,0.2,1.7,0.3l0.3,0C6.9,55.3,7.3,55.4,7.3,55.5 M15.9,51.8c0,0,0.1,0,0.1,0c0.2,0.2,0.4,0.3,0.7,0.4
					c0.2,0,0.3-0.1,0.3-0.2c0-0.1,0.1-0.2,0.1-0.3c0.1,0,0.2,0,0.3,0c0.4,0,0.8,0,1.1,0c0.6,0,1.2,0.1,1.6,0.2c-0.1,0-0.2,0-0.2,0.1
					c-0.3-0.1-0.6-0.1-1-0.2l-0.3-0.1c0.3,0.3,0.5,0.7,0.5,1.3c0.2,0,0.3,0,0.3-0.1c0.1-0.1,0.3-0.2,0.4-0.3
					c0.1-0.1,0.1-0.1,0.2-0.2c0,0,0.1,0,0.1,0c0.4,0,0.7-0.1,0.8-0.1c0,0,0.1,0,0.1,0c0.6,0,0.9,0,0.8-0.1l0,0
					c0.6-0.1,0.4-0.2-0.3-0.2l-0.3,0c0,0-0.1,0.1-0.1,0.1c0-0.1-0.1-0.1-0.3-0.2l-0.1,0c0.2-0.2,0-0.3-0.7-0.4
					c-0.6,0-1.2-0.1-1.9-0.1c-0.7-0.2-1.2-0.1-1.4,0.1c-0.2-0.1-0.5-0.1-0.8-0.1c-0.1,0-0.2,0-0.2,0.1c0,0,0,0.1,0.1,0.1
					C15.3,51.7,15.3,51.8,15.9,51.8 M11.3,52.2c0,0.1,0.2,0.2,0.3,0.2l0.3,0c1.9,0,2.5,0,1.6,0.1c-0.7-0.1-1-0.1-0.9,0
					c0.1,0.3-0.2,0.3-0.8,0.2c-0.2,0-0.4-0.1-0.5-0.1c-0.6-0.2-1-0.2-1.3,0.1c-0.1,0-0.1,0.1,0,0c0.6,0,1.3,0.1,2,0.1
					c0.2,0,0.3,0,0.4,0c0.6-0.1,1.1,0,1.4,0.3c1.8-0.1,2-0.2,0.5-0.4c-0.8-0.1-0.9-0.2-0.2-0.2c0.3,0,0.4,0,0.5,0
					c0.1,0.1,0.5,0.2,1,0.2c1.4,0.1,1.5,0.2,0.3,0.2c0.6,0.1,1,0.1,1.4-0.1c0.1,0,0.2-0.1,0.4-0.1c0.1-0.1,0.1-0.1,0.2-0.1
					c0.3-0.1,0.1-0.2-0.7-0.2c-0.4,0-0.7,0-1,0c-0.5,0-0.4-0.1,0.3-0.2c-0.2-0.2-0.5-0.3-1.1-0.4l-0.3,0c-0.2,0-0.3,0.1-0.5,0.1
					C13.5,52.3,12.3,52.3,11.3,52.2 M13.4,47.5c0,0.1,0.1,0.2,0.1,0.2c0.3,0,0.7-0.1,1-0.1l0.2-0.1c-0.2-0.1-0.3-0.2-0.5-0.3
					C13.9,47.4,13.7,47.4,13.4,47.5 M31.2,43.7c0.4,0,0.6,0,0.6-0.1c0.2-0.4,0.5-0.5,1-0.2l0.3,0.1c0.1-0.1,0.3-0.2,0.5-0.3l0.2-0.1
					C32.7,42.7,31.8,42.8,31.2,43.7 M33.7,41.4c0.4,0.2,0.9,0.3,1.4,0.4c0.6-0.1,0.8-0.3,0.6-0.6c0-0.1,0-0.1,0.1-0.1
					c0.8,0.2,1.1,0,0.9-0.5c0,0,0,0-0.1,0c-1,0.2-1.9,0.4-2.7,0.7C33.8,41.3,33.7,41.4,33.7,41.4 M35.4,39.4
					c-0.6-0.1-1.2-0.1-1.9-0.1l0.5,0.4c0.3-0.1,0.6-0.1,1-0.2L35.4,39.4 M39.4,35c1.4,0,1.9-0.1,1.3-0.3c-0.2,0-0.3-0.1-0.4-0.1
					C38.7,34.5,38.4,34.7,39.4,35 M27.5,43.6c1.1-0.2,1.5-0.5,1.1-0.7c-0.1-0.1-0.2-0.1-0.1-0.1c1.7-0.2,2.3-0.5,1.8-0.9
					c-0.9,0.4-1.8,0.8-2.7,1.1C27.6,43.2,27.6,43.4,27.5,43.6 M26.5,32.8c-0.7,0.1-1.2,0.3-1.4,0.7l0.3,0.1c1.2,0.1,1.6-0.1,1.3-0.6
					L26.5,32.8 M38.5,33.3c0.7,0,1.4,0,2.1,0l0.5,0c-0.3-0.3-0.2-0.6,0.3-0.9c-0.4-0.2-0.9-0.3-1.6-0.3c-0.3,0-0.6,0-0.6,0.1
					s-0.1,0.2,0,0.3l0.2,0.1C38.5,32.5,38.2,32.8,38.5,33.3 M32.6,32c-1.2-0.4-1.6-0.1-1.2,0.7C32.1,32.6,32.5,32.4,32.6,32L32.6,32
					 M30.2,23.4c0.6-0.4,0.3-0.5-1-0.3c-0.3,0.1-0.5,0.2-0.8,0.2c-1.2,0.1-2.2,0.4-2.9,0.7l-0.2,0.1c-0.4-0.2-1.2-0.2-2.5-0.2
					c-1.4,0.1-2.3,0.3-2.6,0.5c0.5-0.1,1.4-0.1,2.7,0l0.3,0c0.5-0.1,1.3-0.1,2.4,0c0.3,0,0.6-0.1,0.9-0.1c0.4,0,1-0.1,1.7-0.1
					c1.4,0,2.3-0.1,2.7-0.3l0.1-0.1C30.7,23.7,30.4,23.6,30.2,23.4 M9.6,19c-1.9,0.1-2.1,0.3-0.9,0.5c2,0,3.4-0.1,4.3-0.3
					c0.1,0,0.3,0,0.5,0c1.5-0.3,1.1-0.4-1.2-0.3C11.4,18.9,10.5,18.9,9.6,19 M-11.7,13.6c-0.2,0-0.3,0-0.3,0.1
					c0.4,0.1,0.9,0.1,1.4,0.3c0.3,0,0.5,0,0.6,0C-9.7,13.6-10.3,13.5-11.7,13.6 M-13.5,9.7c0.6-0.1,0.7-0.3,0.2-0.5c0,0-0.1,0-0.1,0
					C-14.2,9.2-14.2,9.4-13.5,9.7 M104.2,70.3c2.2,0,3.8-0.1,4.7-0.2l0.5,0C106.7,70.1,105,70.2,104.2,70.3 M125.7,70.5
					c3.2-0.1,4.9-0.3,5.1-0.6l0,0C126.9,69.9,125.2,70.1,125.7,70.5 M52.1,73.2c1.5-0.1,2.5-0.3,2.8-0.5c0.1-0.1,0.2-0.2,0.3-0.2
					c1.2-0.1,1.3-0.2,0.2-0.4l-0.1,0C54.1,72.5,53.1,72.9,52.1,73.2 M89.5,71c0.9,0,1.4,0,1.5,0c0.9-0.2-0.4-0.3-4-0.2l-0.7,0
					C87.1,70.8,88.2,70.9,89.5,71 M85,65.6c-1.2,0.1-0.4,0.3,2.5,0.5c1.5,0,2.5-0.1,3-0.2c0.1,0,0.1-0.1,0.1-0.1
					c-0.4-0.1-0.9-0.1-1.5-0.1C87.2,65.5,85.8,65.5,85,65.6 M86.5,66.7c-4.5,0-4.9,0.1-1.2,0.1c4.7,0,7.4,0.1,8.2,0.4
					c3,0,5.2-0.1,6.6-0.3c-2.8-0.1-5.5-0.1-8-0.2C91.2,66.7,89.3,66.7,86.5,66.7 M83.6,60c2.9,0,4.4-0.1,4.7-0.1
					c0.2-0.1-0.9-0.2-3.1-0.1C84.5,59.8,84,59.9,83.6,60 M91.2,60.5l-0.8,0c-3.2,0.1-3.1,0.2,0.3,0.3C92.2,60.7,92.4,60.6,91.2,60.5
					 M73,69.4c-0.5,0-1,0-1.5,0.1c-1.6,0-3,0-4.3,0.1l0,0.2c0.5-0.1,1-0.1,1.4-0.1s0.8,0,1.2,0l0.1-0.1c0.3,0,0.5,0,0.8,0
					c0.6-0.1,1.2-0.1,1.9,0c2,0.1,3.9,0,5.6-0.2C77,69.4,75.2,69.4,73,69.4 M72,60c-0.7-0.1-1.5,0-2.5,0.1c-0.3,0-0.6,0.1-1,0.1
					c-1.1,0.1-0.4,0.3,2.1,0.4l0.5,0c-1.3-0.2-0.6-0.3,1.9-0.4l0.7,0C73.2,60.2,72.7,60.1,72,60 M82.4,62.5c-4.2-0.1-5.2,0-3,0.4
					c3.3,0,4.4-0.1,3.4-0.3L82.4,62.5 M77.5,61c0.4,0,0.6,0,0.6,0c-0.1-0.2-1.2-0.3-3.3-0.2l-0.6,0.1C75,61,76.1,61,77.5,61
					 M67,66.5l0.5,0c-0.6-0.2-1.5-0.3-2.8-0.2l-0.5,0c0.7,0,1.1,0.1,1.3,0.4l0.5,0c-0.2-0.1-0.3-0.1-0.2-0.1c0.1,0,0.3,0,0.4,0
					l0.1,0C66.5,66.5,66.7,66.5,67,66.5 M67.6,66.5L67.6,66.5c-0.3,0-0.5,0-0.7,0c1.3,0,2.4,0.1,3.4,0.2c1.4,0,2.7,0,3.9,0l0.8,0
					C73.2,66.5,70.7,66.5,67.6,66.5 M59.9,66.2c1.5,0,1.8-0.1,1-0.2c-0.2,0-0.4,0-0.6,0C58.7,65.9,58.6,66,59.9,66.2 M56.6,64.5
					l0.5,0c0-0.1-0.1-0.1-0.4-0.2c-0.1,0-0.2-0.1-0.3-0.1c-1.6-0.1-1.7,0-0.2,0.3C56.2,64.5,56.4,64.5,56.6,64.5 M57.1,60.5
					c1.2,0,1.6-0.1,1.2-0.3c0,0-0.1,0-0.3,0C56.5,60.2,56.2,60.3,57.1,60.5 M57.5,58.6c1.4,0.1,2,0,1.7-0.3c0-0.1-0.4-0.2-0.9-0.1
					C56.7,58.3,56.5,58.4,57.5,58.6 M61.2,58.7l0.3-0.1c-1.6,0-2.9,0.1-3.9,0.2C58.9,58.9,60.1,58.8,61.2,58.7 M69.3,62.4l-0.6,0
					c0.4,0.2-0.4,0.4-2.4,0.6c2.9,0,4.7,0,5.5-0.1l0.5,0c-1.1-0.1-1.7-0.1-2-0.2C70.1,62.5,69.7,62.4,69.3,62.4 M54.9,69.8
					c0.4,0,0.7-0.1,0.9-0.1c0.2,0,0.3,0,0.4-0.1c0.3,0,0.8-0.1,1.4-0.1l0.5,0c-0.2-0.2-0.7-0.3-1.3-0.4c-0.1,0-0.3,0-0.5,0
					c-1.6,0-1.9,0-1,0c1.7,0.1,1.9,0.2,0.5,0.3c-0.3,0.1-0.5,0.1-0.6,0.1C54.6,69.6,54.5,69.7,54.9,69.8 M43.7,70.1
					c1,0.1,1.6,0,1.7-0.1c-0.8-0.1-1.6-0.1-2.4-0.2c-0.3,0-0.5,0-0.6,0C42,69.9,42.1,70,42.6,70C43.5,69.9,43.9,69.9,43.7,70.1
					 M43.6,65C43.8,65,43.8,64.9,43.6,65c-0.6-0.1-1.1,0-1.4,0L42,65.1c-0.6-0.1-1.4-0.2-2.5-0.2c0.3,0.1,0.5,0.2,0.6,0.3
					C42,65.3,43.2,65.2,43.6,65 M43.5,64.2c1.3,0,2.2-0.1,2.5-0.1c0.2-0.1,0.2-0.1,0.1-0.1C44.6,63.9,43.8,63.9,43.5,64.2
					 M43.2,59.7c1.8,0,2-0.1,0.6-0.1l-0.3,0c0.5-0.3-0.2-0.3-2-0.3l-0.6,0C41.5,59.4,42.2,59.5,43.2,59.7 M46.8,60.2
					c-0.6,0.2-0.4,0.3,0.7,0.5c0.2,0,0.3-0.1,0.5-0.1c0.2,0,0.3,0,0.3,0c1-0.1,0.8-0.2-0.5-0.3c-0.3,0-0.6,0-0.8,0L46.8,60.2
					 M53.1,61.4c1.3,0,1.5-0.1,0.7-0.2l-0.3,0C52.4,61.1,52.2,61.2,53.1,61.4 M55.8,61.2l-0.3,0c0.5,0.1,1.3,0.1,2.4,0.1
					c0.9-0.1,1.9-0.2,3.1-0.2c0.3,0,0.5-0.1,0.6-0.1c0-0.1,0.4-0.2,1-0.2c0.3,0,0.7,0,1,0l0.1,0.1c2.6,0.1,3.3,0.3,2,0.6
					c0.5,0,0.9-0.1,1.4-0.1c5.6-0.1,6.4-0.2,2.4-0.5c-1,0-2.1-0.1-3.2-0.2l-0.1-0.1c-0.7-0.1-1.1,0-1.4,0.1c0,0-0.1,0-0.1,0
					c-0.3,0-0.6,0-0.8-0.1c-0.1,0-0.2,0-0.3,0s-0.3,0-0.4,0c-0.5-0.1-1.5-0.1-2.9,0c-1.3,0-2.7,0.1-4.1,0.1
					c-0.8,0.1-0.6,0.1,0.6,0.1c1.7-0.1,2.2,0,1.6,0.1c-0.5,0-1,0.1-1.6,0.2C56.4,61.1,56.1,61.1,55.8,61.2 M56.1,62.9
					c-0.9-0.2-1.3-0.1-1.2,0.3c1.3,0.1,1.8,0,1.6-0.2C56.4,63,56.3,63,56.1,62.9 M51.7,61.2L51.7,61.2c-0.8-0.2-2-0.2-3.6-0.2
					c-0.7,0-1.3,0-1.6,0.2l-0.2,0.1c-1-0.2-2.1-0.2-3.2-0.1c-0.6,0.1-0.5,0.1,0.3,0.1c3.1,0,4.9,0.2,5.6,0.6
					C50.7,61.8,51.6,61.5,51.7,61.2 M49.9,63.7L49.9,63.7c-1,0-1.5,0.2-1.5,0.5C49.8,64.2,50.3,64,49.9,63.7 M45.5,56.7
					c-0.6-0.2-1.2-0.3-1.8-0.1l-0.3,0.1c0.6,0,1,0.1,1.4,0.2c0.8,0.2,1.1,0.3,0.8,0.4c0.8,0,1.2-0.1,1.2-0.2
					c0.1-0.3,0.4-0.3,0.9-0.2l0.2,0l0.3-0.1c0.9,0,1.4,0,1.4-0.1c0-0.2-0.1-0.2-0.4-0.1c-0.2-0.1-0.4-0.1-0.6,0c-0.2,0-0.3,0-0.5,0
					c-1,0-1.6,0-1.7,0.1C46.1,56.9,45.8,56.9,45.5,56.7 M45.2,57.6c0.2,0,0.3,0,0.3,0c0.1,0,0.1-0.1,0.2-0.1c0.7,0,1-0.1,0.8-0.2
					c-0.1,0-0.2,0-0.5,0C44.4,57.3,44.1,57.4,45.2,57.6 M57.8,57.6L57.8,57.6c0.4-0.1,0.2-0.2-0.3-0.2c-0.2,0-0.4,0-0.6,0l-0.5,0.1
					c0.6,0.1,0.6,0.2,0.2,0.4C58,57.9,58.5,57.8,57.8,57.6 M44.4,24.6c-0.3-0.1-0.7-0.1-1.4-0.1c-1.1,0.1-1.6,0.4-1.6,0.8
					c0,0.3,0.4,0.5,1.3,0.6c1-0.1,1.9-0.3,2.6-0.4c0.1,0,0.2-0.1,0.3-0.1c0.8,0.1,0.8,0,0.1-0.3c-0.1-0.2-0.3-0.4-0.9-0.4
					C44.7,24.6,44.5,24.6,44.4,24.6 M53.5,23.7c0.1,0,0.3,0,0.4,0l-0.2-0.4C52.6,23.3,52.5,23.4,53.5,23.7 M64.2,25.1
					c0.4,0,0.7,0,0.8,0c0.3-0.1,0.6-0.1,1-0.2c0.5,0,1.2,0,2,0c1.2,0,0.8-0.1-1.3-0.3l-0.7-0.1c-1.5,0.2-2.6,0.2-3.6,0.2
					C63.2,24.8,63.8,25,64.2,25.1 M87.9,23.8c1.9-0.1,3-0.2,3.2-0.4c0-0.1-0.3-0.1-0.8-0.1C86.7,23.3,85.9,23.5,87.9,23.8
					 M114.1,67.4c0.2,0,0.3,0,0.5,0c2.5-0.2,4-0.1,4.6,0.2c0.9,0,1.7,0,2.5-0.1c0.5,0,1,0,1.6-0.1c1.6-0.1,1.4-0.2-0.7-0.3
					c-1,0-2.2,0-3.4,0C115.3,67.2,113.6,67.2,114.1,67.4 M103.6,62.6c0.9,0,1.4,0,1.6,0c1-0.2,3.1-0.3,6.2-0.4c1.8,0,1.3,0-1.4-0.1
					c-0.3,0-0.7,0.1-1.2,0l-0.7,0C106.5,62.3,105,62.4,103.6,62.6 M100.6,61.8c-1.9,0-3.3,0.1-4,0.1c-2.2,0.1-2.5,0.2-0.8,0.3
					c2.2,0.1,1.6,0.2-1.6,0.1l-0.7,0c0-0.2-0.6-0.2-2-0.2c-0.6,0-0.8,0-0.8,0.1c-0.3,0.3-1.9,0.4-4.6,0.5c3.4,0,5.7,0,6.9-0.1
					c0.4,0,0.9-0.1,1.4-0.1c0.7-0.1,1.3-0.1,1.7-0.1c2.3-0.2,4.8-0.3,7.3-0.2c0.5,0,0.8,0,1.1,0C108.1,62,106.8,61.8,100.6,61.8
					 M107.2,61.1l-0.8,0c-0.6,0.1,0.1,0.2,2,0.1c3.8,0,6.6,0,8.3,0.1c2.6-0.1,4.2-0.2,4.8-0.3l0.3-0.1c-1.3,0-2.7,0-4.1,0.1l-0.5,0
					c-0.4,0-0.7,0-1,0C112.7,61.2,109.8,61.2,107.2,61.1 M103,61c0-0.1-0.3-0.1-0.7-0.1c-0.5,0-1-0.1-1.6-0.1
					c-2.1-0.1-3.8-0.1-5.2,0l-0.6,0.1c0.1,0.2,0.7,0.4,1.6,0.5c0.5-0.1,0.9-0.1,1.2,0c0.5,0,0.8,0,1,0C101.6,61.5,103.1,61.4,103,61
					 M126.7,19.9c-0.2,0-0.3,0-0.3-0.1c0-0.2-0.6-0.3-2-0.2l-0.7,0c0.5,0.2,1.2,0.5,2.2,0.7C127.4,20.3,127.7,20.1,126.7,19.9
					 M239,65c0.9,0,1.8,0,2.7,0c3.8,0,4.5,0,2.2-0.1C241.4,64.8,239.8,64.8,239,65 M152.5,69.7c0.3,0,0.7,0,1,0l0.8,0
					c-0.6,0-1.2-0.1-1.8-0.1c-1.5,0-2.9,0-4.3,0.2C149.7,69.7,151.1,69.7,152.5,69.7 M159.8,68.5c-0.4-0.1-0.9-0.1-1.3-0.1
					c-0.9,0-1.8,0-2.8,0.1c-1.2,0-2.2,0.1-3.2,0.1c-0.7,0-1.3,0.1-1.9,0.1c-0.5,0-1,0.1-1.5,0.1c-0.8,0-1.5,0-2.1-0.1
					c-1,0-2.3,0-3.8,0.2c-1.2,0.1-2.2,0.3-3.1,0.5c-1.8,0-3.5,0-5.1,0c-3.4-0.1-7.6-0.1-12.4-0.1c0-0.1-0.1-0.1-0.3-0.1
					c-2.9-0.3-7.3-0.3-13.2-0.2c-0.9,0.1-1.1,0.2-0.6,0.3l0.3,0c2.5,0,5.8,0.1,9.9,0c2.2,0,4.4,0,6.5,0c2.2,0,4.5,0,7,0
					c3.2,0,5,0.1,5.5,0.2c5.3,0,7-0.1,5.1-0.2l-0.5-0.1c3.4-0.1,6.5-0.3,9.5-0.4c0.3,0,0.6-0.1,0.8-0.1
					C155.3,68.8,157.7,68.7,159.8,68.5 M191.1,67.6c1.7-0.1,3.4-0.3,5.3-0.5c2-0.2,1.5-0.3-1.6-0.2c-2.4,0-3.4,0.1-3,0.3
					C192,67.3,191.8,67.4,191.1,67.6 M221.4,68.1c-4.2,0-5.1,0.1-2.6,0.2c2.4,0,3.6-0.1,3.4-0.2C222.1,68.1,221.9,68.1,221.4,68.1
					 M201.5,65.3c-1.6,0.1-1.4,0.2,0.9,0.3c1.9-0.1,1.8-0.2-0.3-0.3L201.5,65.3 M183.5,64.2c-0.6,0.1-0.3,0.2,0.9,0.2
					c3.5-0.1,3.5-0.2,0.1-0.2L183.5,64.2 M164.9,65.2c0.9,0,1.4-0.1,1.5-0.1c0.1-0.1,0.4-0.2,0.8-0.3c1.6-0.3,1.3-0.5-1.1-0.5
					c-0.3,0-0.8,0-1.2,0c-4.6,0.1-5.8,0.2-3.7,0.3l0.4,0c-1.4,0.2-1,0.4,1,0.5C163.5,65.3,164.3,65.3,164.9,65.2 M156,63.6
					c-1.9,0.2-1.7,0.3,0.6,0.4c1.5,0,2-0.1,1.5-0.2c-0.1-0.1-0.4-0.1-0.8-0.2C156.8,63.6,156.3,63.6,156,63.6 M157.9,62.1l0.5-0.2
					c-3.4,0-4.2,0.2-2.4,0.4C158.6,62.2,159.2,62.1,157.9,62.1 M151.8,66.6c-0.1-0.2-0.2-0.4-0.3-0.5c0-0.1-0.1-0.3-0.3-0.4
					c-0.3-0.2-1.2-0.3-2.7-0.4c-0.2,0-0.4,0-0.6,0c-0.1-0.2-0.1-0.3,0.2-0.6c0.1,0,0.1-0.1,0,0c-1.3-0.1-2.8-0.1-4.5,0.1
					c-1.4,0.2-1.3,0.3,0.3,0.3l1.2,0.1c-0.8,0-1.1,0.1-0.8,0.2c0.1,0.1,0.5,0.1,1.1,0.2c0.3,0.1,0.6,0.2,0.9,0.2
					c0.3,0.1,0.7,0.2,1.3,0.3c1,0.2,2.2,0.4,3.5,0.6C151.5,66.7,151.8,66.6,151.8,66.6 M153.7,18.6l0.5,0c-5.3-0.1-9.1,0-11.3,0.3
					C148.1,18.9,151.7,18.8,153.7,18.6 M154.1,17.2l0.3-0.1c-2.4,0-4.1,0.1-5.2,0.4C152.1,17.5,153.7,17.4,154.1,17.2 M201.7,24.7
					c-0.4,0-0.6,0-0.5,0.1c0.3,0.2,0.5,0.4,0.7,0.6c0.5,0,0.9,0,1.2,0l0.6-0.1c-1-0.2-0.9-0.3,0.3-0.3c0.8,0,15.1-0.1,15-0.1
					C218.7,24.5,203.6,24.5,201.7,24.7 M274.6,59.6l-0.8,0c1,0.2,0.8,0.3-0.5,0.4l-0.7,0c1.2,0.1,1.9,0.2,2.2,0.4
					c2.6,0,3.3-0.1,2.1-0.3c-0.2,0-0.3-0.1-0.3-0.1C276.7,59.7,276,59.6,274.6,59.6 M261,61.1l-0.8,0c1,0.1,2.3,0.2,4.2,0.3
					c1.5,0,2.1-0.1,1.9-0.2c0,0-0.1,0-0.2,0C264.9,61,263.2,61,261,61.1 M261.3,60.5c-2.8,0-3.3,0.1-1.5,0.2
					c1.3,0.1,2.8,0.2,4.4,0.2c1.9,0,3.1,0,3.6-0.1C269.3,60.6,267.1,60.4,261.3,60.5 M255.7,59.8l-1.4,0c2,0.1,1.6,0.3-1.2,0.6
					l-0.5,0c0.6,0,0.4,0.2-0.6,0.4c2.3-0.2,4.4-0.3,6.3-0.5c0.6,0,1.2-0.1,1.9-0.1c3.2-0.1,5.2-0.4,6.1-0.6c-0.4,0-0.8,0-1.2,0
					l-0.8,0c0.2,0.1-0.4,0.1-1.8,0.1c-0.5,0-1.1,0-1.7,0l-1.2-0.1C260.8,59.8,259.5,59.9,255.7,59.8 M239.4,62.6c0.4,0,0.9,0,1.3,0
					c0.9,0,1.6,0,2.1,0c2.2-0.1,3.7-0.2,4.6-0.1c1.4,0.1,2.5,0.1,3.2,0c1.2-0.1-0.3-0.2-4.7-0.1c-1,0-1.9,0-2.8,0
					C240.9,62.4,239.6,62.5,239.4,62.6 M226.1,61.1c-0.5,0-1,0-1.4,0.1c-1.8,0.1-1.1,0.2,2.1,0.2c0.4,0,0.6,0,0.6-0.1
					c0,0-0.1-0.1-0.3-0.1C226.7,61.2,226.4,61.2,226.1,61.1 M228.4,62.2c0.5,0,0.9,0,1,0c1.8,0.1,2.9,0.1,3.5,0c0.1,0,0.3,0,0.5,0
					c1.6,0,2.9,0,3.6-0.1c1.1-0.2,3.1-0.3,6-0.3c4.2-0.1,5-0.2,2.5-0.3c-0.4,0-0.9,0.1-1.5,0.1c-0.7,0.1-1.8,0.1-3.3,0.1
					c-3-0.1-5.4-0.1-7.3,0c-2.2,0-4,0.1-5.5,0.2c-3.7,0.2-4.8,0.4-3.3,0.7C225.2,62.3,226.5,62.2,228.4,62.2 M229,60.9l-0.4,0
					c1.8,0.1,4.3,0.2,7.3,0.2c0.6,0,0.9,0,1.1,0.1c1.6-0.1,2.7,0,3.3,0.3c0.9,0,1.6,0,2.1-0.1l0.1,0c1.4-0.3,0.6-0.5-2.4-0.7
					c-1,0.2-2.8,0.2-5.3,0C232.6,60.6,230.7,60.6,229,60.9 M243.2,26.6c1.9,0,3-0.1,3.2-0.4l0,0C244.2,25.9,243.1,26.1,243.2,26.6
					 M237.7,22.2l-1.2,0c0.5,0.1,1.5,0.1,2.8,0.2c1.7,0,3.4,0,5.1-0.1C241.9,22.3,239.7,22.2,237.7,22.2 M265.4,31.8
					c1.1-0.1,0.9-0.2-0.5-0.1c-2.3,0-4,0-5.3,0c1.2,0.1,2.5,0.2,3.9,0.2C264.4,31.8,265,31.8,265.4,31.8 M250.9,30.1
					c2.4,0,3.1-0.1,2.3-0.3C251.6,29.5,250.8,29.6,250.9,30.1 M257.8,19c0.3-0.1,0.3-0.2,0-0.1c-5.3-0.2-9.6-0.1-13,0.4l-0.6,0
					c1.8,0.2,3.4,0.3,4.8,0.5c2.5,0,4,0,4.4-0.1c0.2,0,0.5-0.1,0.9-0.1C255.8,19.3,256.9,19.1,257.8,19 M263.2,25.7
					c2.3,0,3.9-0.1,4.6-0.3c1.2-0.4-0.9-0.6-6.3-0.6c-2.4,0-3.5,0-3.4-0.2l-0.8,0c-2.8,0.1-3.5,0.2-1.9,0.4c0.5,0,0.5,0.1,0.1,0.1
					c-0.4,0-0.6,0-0.6,0.1c-0.1,0.2-0.1,0.4,0.1,0.5c0.1,0.1-0.1,0.2-0.4,0.2c-2.4,0.2-3.4,0.4-3.2,0.7c1.8-0.1,3.5-0.3,5.2-0.4
					c0.5,0,0.6,0,0.5-0.1c-0.8-0.5-0.1-0.7,2.1-0.5c0.9,0,1.8,0,2.7,0C262.2,25.7,262.6,25.7,263.2,25.7 M266.6,20.2
					c-0.3,0-0.5,0-0.4,0.1c0.9,0.1,2,0.2,3.4,0.2c4.3,0,5.6-0.1,3.8-0.1C271.2,20.2,269,20.2,266.6,20.2 M266.1,65.4
					c-0.4-0.1-0.8-0.1-1.1,0c-0.3,0.2-1.1,0.3-2.3,0.4C265.8,65.8,266.9,65.7,266.1,65.4 M293.4,67.8c0.3,0,0.6,0,0.8,0
					c0.5,0,0.8,0,0.8,0c0.6-0.2,1.2-0.3,1.6-0.5C295.3,67.4,294.2,67.6,293.4,67.8 M260.9,60.4c-0.1-0.1-0.2-0.1-0.3-0.1
					c-2.3,0-2.7,0.2-1.3,0.5c0.3,0,0.6,0,0.8,0C260.4,60.6,260.7,60.5,260.9,60.4 M234.3,62.3c-0.3,0,64.3-2.4,64.2-2.4
					c-2.9,0-3.5,0.1-2,0.3C299,60.2,235.2,62.4,234.3,62.3 M298.3,61.9l-1.4,0c-0.3,0.1-64.2,2.6-61.9,2.6
					C238.8,64.5,303,62,298.3,61.9 M292.7,60.2c-0.2-0.1-0.7-0.2-1.5-0.1c-1.6,0.1-1.6,0.2,0,0.3C292.5,60.5,293,60.4,292.7,60.2
					 M281.2,59.9c4.9,0,6.3-0.1,4.1-0.3c-1-0.1-2.3-0.1-3.8-0.2c-2.3-0.1-3.2,0-2.5,0.1C279.6,59.6,280.3,59.8,281.2,59.9
					 M288.7,61.3c-0.9,0-1.6,0-2.1,0.1c-2.1,0.1-2,0.2,0.2,0.3c1.4,0,3.1,0.1,4.9,0.2c1.9,0,2.7,0,2.4-0.1c-0.6-0.2-0.1-0.3,1.5-0.3
					c-61.6,1.6-60.8-3.4,1.2-0.3c-0.6,0-1,0-1.2-0.1l-0.4-0.1C294.4,61.3,292.2,61.3,288.7,61.3 M233,31.8c0.1,0,0.3,0,0.4,0l0-0.4
					l-0.1,0c0.5-0.1,0.7-0.2,0.6-0.3c0,0-0.1,0-0.4,0c-1.6,0,62.9-2.2,63.9-2c-1.8,0-2.8,0.1-2.9,0.2l0,0.1
					C296.4,29.1,232.7,31.4,233,31.8 M287.1,29.2c-5.7-0.1-6.1,0-1.4,0.3c4.3,0,5.9,0,4.7-0.2c-0.5,0-0.9-0.1-1.3-0.1
					C288.5,29.2,287.9,29.2,287.1,29.2 M279.3,27.9c2.9-0.1,3.2-0.2,0.8-0.3c-0.2,0-0.3,0-0.5,0c-0.1-0.1-0.3-0.1-0.5-0.1l-0.7,0
					c-4.5,0.1-4.9,0.3-1.1,0.5c0.8,0,1.5-0.1,1.9-0.1C279.2,27.9,279.2,27.9,279.3,27.9 M283.2,30.2c0.5-0.1,0.7-0.1,0.8-0.1
					c0.3-0.2,0.1-0.3-0.7-0.3c0.9,0,1.7-0.1,2.5-0.1l0.7-0.1c-2.8-0.1-4.8,0-6,0.1l-0.2,0c0.9-0.1,0.5-0.2-1.2-0.1
					c-0.3,0-0.6,0-0.8,0c-0.2,0-0.4,0-0.7-0.1l0.1,0.4c0.2,0,0.4,0,0.5,0c0.3-0.1,0.6-0.1,0.8-0.1c0.1,0,0.2,0,0.3,0
					c-0.1,0-0.2,0-0.3,0c1.1,0,2.2,0,3.1-0.1C282.9,29.9,283.2,30,283.2,30.2 M279.8,21.7c1.1,0,1.8,0,1.9-0.2
					c0.6-0.2-0.6-0.3-3.6-0.3c-1.1,0-2.1,0-2.9,0l0.1,0.3c1.3,0,2.3,0.1,3,0.2C278.8,21.8,279.3,21.7,279.8,21.7 M292.7,21.9
					l-1.2-0.1c0.3,0.2,1.2,0.3,2.8,0.4c-1.5,0.1-3.7,0.2-6.7,0.2c-0.9,0-1.6-0.1-2.2-0.1c-0.8,0-1.5-0.1-2.3-0.1
					c-2.6-0.2-4.7-0.2-6.3,0l-0.6,0c4.8,0,8.2,0.1,10.1,0.3c3.5,0,6.7-0.1,9.7-0.2L296,22C295,22,293.9,22,292.7,21.9 M290.1,19.8
					c0.3,0,0.5,0,0.8,0c1.6-0.1,3.7-0.1,6.2-0.1c0.3,0.2-64.1,2.5-63.7,2.3c0-0.1,0-0.1,0-0.1c-0.4-0.2,63.4-2.5,62.1-2.5
					C293.1,19.4,291.3,19.5,290.1,19.8 M289.8,21c0.5,0,1,0,1.5,0c1.7,0,3.2,0.1,4.4,0l-0.1-0.3c-2.3,0-4.3,0-5.9-0.1
					c-1.9-0.1-4.6-0.1-7.9,0c0,0.1,0.3,0.1,0.8,0.2l0.3,0C284.9,20.9,287.2,21,289.8,21 M236.3,19.5c-1.8,0-1.8,0.2,0.1,0.4
					c1.4-0.1,1.6-0.2,0.6-0.4C236.7,19.5,236.5,19.5,236.3,19.5 M251.9,33.2c1.4-0.3,1.2-0.4-0.8-0.5c-1.1-0.1-1.6,0-1.3,0.1
					C250.3,33,251,33.1,251.9,33.2 M256.4,34.9c-0.7,0-0.5,0.1,0.9,0.2c0.3,0,0.5-0.1,0.8-0.1c0.4,0,0.8,0,1-0.1
					c0.3,0,0.3,0,0.2-0.1C258.3,34.8,257.4,34.8,256.4,34.9 M261.7,31.2c0.4,0,0.7-0.1,0.9-0.2l0.3-0.1c-3.1,0-5.3-0.2-6.4-0.4
					l-0.3-0.1c-0.3,0.1-0.3,0.1,0,0.1c1.2,0.2,2,0.4,2.2,0.8C259.6,31.3,260.7,31.3,261.7,31.2 M247.8,34.8c0.6,0,1.1-0.1,1.5-0.1
					l0.4,0c-0.3-0.1-0.3-0.2,0-0.5l0.2-0.1c-1.4,0-2.7,0-3.8,0.2l-0.4,0.1C246.9,34.5,247.6,34.6,247.8,34.8 M243.7,33.1
					c0-0.1,0-0.1,0.1-0.2c0.4-0.2-0.2-0.2-1.7-0.1c0.1,0.3,0.6,0.6,1.4,0.8c2.2,0,2.8-0.1,1.9-0.2c-0.3,0-0.5,0-0.6,0
					C243.9,33.4,243.5,33.3,243.7,33.1 M248.9,31.8c0-0.1-0.2-0.1-0.3,0c-2.3,0.1-3.1,0.3-2.3,0.5C248.1,32.2,249,32.1,248.9,31.8
					 M248.2,32.9c0.3-0.3,0.2-0.5-0.3-0.5c-2,0.4-2.2,0.7-0.5,1l0.4,0c-1.6,0.3-0.9,0.4,2.1,0.5c0.5,0,0.9,0.1,1.1,0.1
					c0.2,0,0.4,0,0.7,0.1c0.4,0.2,0.9,0.4,1.5,0.6c0.5,0,1,0,1.5,0l0.3-0.1c-0.5-0.1-1.1-0.2-1.6-0.3c-1.4-0.2-1.6-0.5-0.5-0.7
					c0.8-0.2,0.6-0.2-0.7-0.2C249.2,33.5,247.9,33.3,248.2,32.9 M249.5,32.5c0.5-0.1,0.8-0.1,1-0.1c0.7-0.2,1.9-0.2,3.5-0.2
					c1.1,0,1.5-0.1,1.2-0.2c-0.3-0.1-1-0.1-1.9-0.1C251.5,32,250.2,32.2,249.5,32.5 M244.7,28.2l0.4,0.1c1.9-0.2,2.7-0.1,2.3,0.3
					c-0.3,0.4-1.3,0.7-2.9,1c2.3-0.1,4.7-0.1,7-0.2c0.3-0.1,0.5-0.1,0.7-0.1c1.2,0,1.8-0.1,1.9-0.2c0.2-0.2,1-0.3,2.6-0.3
					c0.3,0,0.5,0,0.4,0c-0.5-0.1,0.1-0.3,1.9-0.4c-0.7-0.3-1.5-0.3-2.5,0c-0.2,0.1-0.4,0.1-0.7,0.1c-2.2,0-4.3,0-6.3-0.2
					c-1.5-0.1-2.5-0.4-3-0.6c-0.8-0.5-1.6-0.6-2.5-0.2c1.6,0.2,1.4,0.4-0.6,0.5l-0.5,0C243.8,28.1,244.4,28.2,244.7,28.2
					 M240.6,23.8c0.5,0,0.9,0,1.2-0.1c0.3,0,0.6,0,0.8-0.1l0.3-0.1c-0.5-0.1-1.6-0.3-3.2-0.3c-1.1,0-1.5,0-1.2,0.1l0.1,0.1
					c-1.3,0.1-1.1,0.3,0.5,0.4C239.6,23.8,240.1,23.8,240.6,23.8 M239.9,16.4c-0.8,0-1.5-0.1-2.1-0.1c-1.1-0.1-2.8-0.1-4.9-0.1
					c-3.4,0,61.1-2.2,63.8-1.9c1.6,0.1-62,2.7-61.1,3c0.8,0,1.1-0.1,1-0.2c0,0,0.1-0.1,0.2-0.1c1.3,0.1,2.4,0,3.3-0.1
					c0.3,0,0.5-0.1,0.6-0.1C241.1,16.5,240.8,16.4,239.9,16.4 M241.1,15c-0.9,0.1-0.6,0.3,0.9,0.5c1.2-0.1,1.2-0.2,0-0.3
					c-0.3,0-0.5-0.1-0.6-0.1L241.1,15 M245.8,20.2l0.3-0.1c-0.6-0.3-1.4-0.5-2.6-0.8l-0.4-0.1c-1.1,0.1-1.1,0.2,0.1,0.5
					C244,19.9,244.8,20.1,245.8,20.2 M254.7,24.3l0.8-0.1c-0.7-0.1-0.2-0.2,1.4-0.3c0.6,0,1.1,0,1.6,0c1,0,2.1,0,3.1,0l0.4,0
					c-1-0.1-2.1-0.2-3.5-0.3c-0.9,0-1.7,0-2.6-0.1c-0.2,0-0.4,0-0.8,0C253.1,23.9,253,24.1,254.7,24.3 M255.6,19.2
					c0.9-0.2,0.8-0.4-0.3-0.6c-0.7-0.1-1.6-0.3-2.5-0.5l-0.3-0.2c-0.3,0.1-0.3,0.2,0,0.2C253.3,18.5,254.3,18.9,255.6,19.2
					 M256.8,19.2c-0.2,0.4,0.5,0.6,2.1,0.8c0.5-0.1,1.1-0.1,1.6-0.1c0.9,0,1-0.1,0.3-0.3c-0.9-0.2-2.1-0.3-3.6-0.4L256.8,19.2
					 M313.8,51.6c0.1,0,0.1,0,0.1-0.1c0.4-0.1,0.5-0.2,0.2-0.3c-0.3-0.1-1.2-0.1-2.8,0c-1.2,0-1.8-0.2-1.8-0.6
					c-1.1-0.2-1.8-0.1-2,0.5c0,0.1-0.2,0.1-0.4,0.2c-1.8,0.3-1.5,0.3,1,0.2C310.7,51.4,312.6,51.5,313.8,51.6 M294.4,56.9
					c-0.4-0.1-0.6-0.2-0.7-0.4c-2.8,0-4,0.2-3.5,0.5C291.6,57,293,56.9,294.4,56.9 M303.6,51.3c-0.3,0-0.5,0-0.5,0
					c-1.1,0.2-0.9,0.4,0.7,0.7C305.7,51.7,305.7,51.5,303.6,51.3 M290.9,49.2l0-0.1c-1.6,0.1-2.4,0.4-2.5,0.8
					C290.4,49.9,291.3,49.7,290.9,49.2 M299.7,43.5L299.7,43.5c-0.2,0.2-0.4,0.6-0.7,1c-0.3,0.4-0.1,0.8,0.8,1
					c1.3-0.1,1.6-0.4,1-0.8C300.5,44.3,300.1,43.9,299.7,43.5 M310.5,44.5c0.3-0.1,0.5-0.1,0.8-0.1c2.1,0,2.9-0.2,2.4-0.7
					c-0.1-0.1-0.3-0.1-0.4-0.1c-0.9-0.1-1.7,0-2.4,0.1c-2,0.4-2.6,0.8-1.8,1.2C309.5,44.7,310,44.6,310.5,44.5 M284.8,62.5l1.1-0.5
					l-0.7,0l-0.4-0.1c0.1,0,0.2,0.1,0.3,0.1c0.3,0.1,0.2,0.2-0.5,0.3l-0.4,0.1C284.6,62.5,284.8,62.5,284.8,62.5 M281.7,62.1
					c-0.1,0-0.2,0-0.3,0l-19.2,0c-0.9,0.3-1.9,0.6-3.1,0.8c-0.9,0.3-1,0.5-0.2,0.6c0.3,0.1,0.7,0.2,1.1,0.2c1,0.2,2.5,0.4,4.4,0.5
					c1.6,0,2.5-0.1,2.6-0.2l0.1,0c0.2,0,0.4,0,0.6,0c0.5,0.1,1.2,0.1,2.1,0.1c2.4,0,3.8-0.1,4.3-0.4c0.1-0.1,0.3-0.1,0.6-0.1
					c0.9-0.2,2.3-0.3,4.1-0.3c2.7-0.3,3.3-0.5,1.7-0.8l1,0c0.3,0,0.7-0.1,1.1-0.1c-0.3-0.1-0.5-0.2-0.7-0.3l-0.1,0
					C282,62.2,282,62.1,281.7,62.1 M279.7,62.4c0-0.1,0.3-0.1,0.8-0.2c0.2,0,0.4,0,0.6,0C280.8,62.3,280.3,62.3,279.7,62.4
					 M269.5,45.7c-0.4,0.1-0.4,0.4,0.2,0.8c0.9-0.2,2.1-0.3,3.7-0.3c0.9,0,0.9-0.1,0.2-0.3C272.5,45.4,271,45.3,269.5,45.7
					 M268.8,44.2c-0.2,0.1-0.2,0.2,0.1,0.2c1.6,0.2,3,0.5,4.4,0.8c1-0.1,2-0.2,3-0.2l0.5,0c0.3-0.1,0.2-0.2-0.1-0.2
					c-0.3-0.1-0.6-0.1-0.8-0.2c-0.2-0.1-0.4-0.1-0.5-0.1c-2-0.1-3.4-0.3-4.2-0.6C270.6,43.8,269.9,43.9,268.8,44.2 M285.4,38.4
					l0.8,0c-0.6-0.1-0.3-0.2,0.9-0.3l-3.3,0C284.2,38.2,284.8,38.3,285.4,38.4 M284.7,32L284.7,32c-0.4-0.3-0.6-0.3-0.8-0.2
					c-0.2,0.2-0.4,0.3-0.6,0.4c-0.5,0.3,0,0.4,1.3,0.6C286.6,32.5,286.6,32.2,284.7,32 M283.5,34.6c0.2,0,0.5-0.1,0.8,0
					c0.5-0.1,0.7-0.1,0.8-0.1c0.1-0.2,0.5-0.3,1.3-0.3c1.3-0.1,1.6-0.1,0.9-0.1c-0.4-0.1-0.7-0.1-0.8-0.1c-1,0.1-1.9,0.2-2.6,0.2
					c-1.2,0.2-1.5,0.4-1,0.6C283,34.7,283.3,34.6,283.5,34.6 M277.1,37.1c0.3,0,0.3,0.1,0,0.2l-0.3,0.1c1.9,0,3.4,0.2,4.4,0.4
					c0.6-0.2,0-0.4-1.7-0.6C278.8,37.2,278,37.1,277.1,37.1 M277.4,31.2c0.3-0.1,0.5-0.1,0.8-0.1l0.3-0.1c-2.2,0-3.7,0.1-4.5,0.3
					C275.6,31.3,276.8,31.3,277.4,31.2 M278.7,30.1c0-0.1-0.2-0.1-0.4,0c-1.9,0-2.4,0.2-1.5,0.4C278.1,30.4,278.8,30.3,278.7,30.1
					 M284,26.9l0.3-0.2c-1.6,0-2.6,0.2-3.1,0.4C282.6,27.2,283.5,27.1,284,26.9 M287.7,25.7c-0.5,0-0.9-0.1-1.2-0.1
					c-0.9-0.1-1.2,0-1,0.4c1.1,0,2.3,0,3.4,0c0.1,0,0.3-0.1,0.6-0.2C289.1,25.8,288.5,25.8,287.7,25.7 M274.8,37
					c1.6,0,2.2-0.2,1.9-0.4c-0.1-0.1-0.2-0.1-0.5-0.1C274.3,36.5,273.8,36.7,274.8,37 M265.9,36.9L265.9,36.9
					c-0.5-0.1-1.7-0.1-3.6-0.1l-0.6,0c0.1-0.1-0.5-0.3-1.8-0.4c-1-0.1-1,0,0,0.2c-0.1,0.1-0.5,0.1-1.2,0c-0.3-0.1-0.5-0.2-0.9-0.2
					c-0.3,0-0.4,0-0.5,0c-1.1-0.4-1.6-0.6-1.5-0.8l-0.3,0c-1.5,0-2.2,0.1-2.2,0.3c-2.8,0.1-4.5,0-5.3-0.3c-0.2-0.1-0.3-0.1-0.3-0.1
					c-1.8-0.1-2.7-0.2-2.8-0.3c-0.2-0.3-0.8-0.5-1.8-0.6c-1.3-0.2-0.9-0.4,1.1-0.5c-0.2-0.2-0.9-0.3-2.2-0.2c-0.3,0-0.6,0-0.8,0
					c-1,0-2.3,0-4,0l-0.4,0c-0.5-0.1-1-0.2-1.3-0.3c-0.9-0.1-0.9-0.3,0.1-0.4c0.3-0.1,0.5-0.1,0.6-0.1c0.1-0.2,0.5-0.2,1.3-0.1
					l0.5,0c0.2-0.1,0.5-0.1,0.7-0.1c1.1-0.1,2.1-0.2,2.9-0.3c1.5-0.2,1.6-0.4,0.4-0.5c-1,0-2,0.1-3,0.1l-0.5,0
					c-0.3,0-0.5,0.1-0.8,0.1c-1.9,0.3,61-1.8,59.2-1.5c-0.6,0-1-0.1-1.3-0.3c-0.2-0.1-0.5-0.1-0.8-0.1c-0.3-0.1-0.5-0.1-0.7-0.2
					c-1.1-0.2-2.2-0.3-3.3-0.4c-0.3,0-0.5,0-0.5-0.1c-1.7,0-1.7,0.1,0.2,0.3c-0.3,0.1-0.6,0.1-1,0.2c-0.3,0-0.7,0.1-1,0.2
					c-0.2,0-0.1,0.1,0.1,0.1c0.8,0.1,1.7,0.1,2.7,0.1c2.9,0.1,4.1,0.3,3.4,0.6c-1.4-0.1-2,0.1-1.9,0.3c0,0-0.1,0-0.4,0
					c-0.5,0.1-0.9,0.1-1.4,0c-0.3,0-0.7,0-1,0c-0.3,0-0.6,0-0.8-0.1c-0.1,0-0.2,0-0.3,0c-0.3,0-0.5,0-0.8-0.1
					c-0.3-0.1-0.6-0.1-0.8-0.2c-1.2-0.1-2.1-0.1-2.7-0.1l-0.1,0c-0.3,0-0.8-0.1-1.4-0.1c-1.8-0.1-2.9-0.2-3.5-0.5l-0.8,0
					c-0.8,0.1-1.4,0.1-1.9,0.1c-0.5,0.1-0.5,0.1,0.1,0.1c0.4,0,1,0,1.6,0.1c2.2,0.1,3.7,0.3,4.6,0.5c0.6,0,1,0,1.4,0
					c0,0,0.1,0,0.1,0c0.5,0,0.9,0.1,1.2,0.1c-1.2,0-1.2,0.1-0.1,0.2l0.1,0l-0.1,0.1c0.3,0,0.4,0.1,0.4,0.1c0.4,0.2,1.4,0.3,3.1,0.2
					c0.9,0,1.7,0,2.5,0c0.6,0,0.9,0.1,1,0.2c2.2,0,3,0,2.3-0.2c1.3,0.1-62.4,2.5-61.4,2.6c0.3,0.1,0.6,0.1,0.8,0.1s0.5,0.1,0.6,0.1
					c0.8,0.2,1.8,0.3,3.1,0.4c0.5,0,0.9,0.1,1.2,0.1c1.5,0.3,1.4,0.4-0.4,0.5c0.2,0.1-0.3,0.1-1.4,0l-0.5,0c-0.3,0-0.4,0-0.5,0
					c-1.3,0.1-2.2,0.1-2.5,0.1l0-0.1c0.1,0,0.2,0,0.3,0c1.2-0.2,1.5-0.4,0.6-0.5c-0.3,0-0.6,0-0.8-0.1c-0.1,0-0.2,0-0.3,0l-0.1-0.4
					c-0.4,0-0.9,0-1.3-0.1c1.5,0.1,65.6-2.1,63.1-2.1c-2.6,0-4.6,0-6-0.1c-2.9-0.3-5.8-0.3-8.9-0.2c0-0.1,0-0.1,0-0.2
					c0-0.1-0.3-0.1-0.8-0.2c-0.5,0-0.8,0-0.9,0c-0.9,0.3-3.6,0.3-7.8,0.2c-0.9,0-1.6,0-2,0c-0.7,0.1-2.2,0.1-4.5,0
					c-0.6,0-1.1,0-1.4,0.1c-1.8,0-4.1-0.1-6.9-0.2c0-0.1,0.2-0.1,0.4-0.2l0.3-0.1c-2.5-0.2-2.4-0.3,0.4-0.5c0.6,0,0.8,0,0.6,0
					c-0.9-0.2-2.4-0.3-4.6-0.1c-2.7-0.2-3.4-0.3-2.1-0.5l0.6-0.1c-1.5,0.1-2.6,0-3.2-0.1c-1.9-0.3-2.3-0.7-1.1-1.1
					c0.8,0,1.6,0,2.5-0.1c0.6,0,1,0,1.4,0c3.5,0.1,6.4,0.2,8.7,0.4c0.6,0.1,1.1,0.1,1.4,0.1c0.9,0.2,2.6,0.4,4.9,0.4
					c0.6,0,1,0,1.2,0.1c1.6,0.3,4.9,0.5,9.9,0.4c-2.4-0.1-4.5-0.3-6.2-0.5c-0.6-0.1-1.1-0.1-1.5-0.2c-2.9-0.5-1-0.7,5.9-0.7
					c0.5,0.1,0.9,0.1,1.2,0.1c2.2,0,2.2-0.1,0-0.1c-0.8,0-1.5-0.1-1.9-0.1c-0.5,0-0.9-0.1-1.2-0.1c-4.1-0.1-7.6-0.2-10.6-0.4
					c-3.7-0.1-8.6-0.2-14.7-0.2c0.5-0.1,0.9-0.2,1.4-0.2l0.5-0.1c-7-0.1-7.7-0.3-2.2-0.7c1.5-0.4,0.9-0.4-2-0.2
					c-0.5,0.1-0.9,0.1-1.3,0.1c-3.2,0.2-3.9,0.1-2-0.3c-1.4-0.2-2.4-0.2-3.1-0.1c-0.8,0.2-2,0.3-3.7,0.4c-0.4,0-0.6,0.1-0.6,0.1
					c-3-0.2-5.5-0.5-7.5-0.8c-2.8-0.3-2.9-0.5-0.3-0.5c0.5-0.1,1-0.1,1.5-0.1c2.3,0,3-0.1,2.1-0.3c-1-0.2-1.7-0.2-2.1-0.1
					c-2.2,0.3-5.3,0.4-9.1,0.2c-3.8-0.1-21.6-0.3-25.4-0.5c-3.1-0.1-4-0.2-2.7-0.5c-2.9,0.1-5.7,0.1-8.4,0
					c-2.8-0.2-15.8-0.3-19.1-0.4c-0.5,0-1,0-1.5,0c-2.4,0-4-0.1-4.7-0.2c-0.5-0.1-0.9-0.1-1.2-0.2c-1.4-0.1-2.9-0.1-4.5-0.1
					c-2.4-0.1-3.9-0.2-4.4-0.5c-0.8-0.3-0.6-0.6,0.4-0.8l0.6-0.1c1.1,0.1,2.9,0.1,5.3,0l1.4,0c-0.2-0.1,0.2-0.2,1.2-0.4
					c1.2-0.2,3.4-0.3,6.7-0.2c0.4,0,0.8,0,1,0c2.8,0.1,16,0.1,19.6,0.2c1.9,0,3.8,0,5.6,0.1c0,0.1,0.2,0.2,0.5,0.3l0.3,0
					c-1.1,0.1-1.8,0.3-2.1,0.5c-0.5,0.3-0.8,0.5-0.9,0.8c0.5,0,0.8,0.1,1,0c4.8-0.4,9.3-0.9,13.4-1.4c0,0,0-0.1,0.2-0.1
					c0.7,0,1.2,0,1.5,0c1.1,0.2,16.1,0.2,16.9,0l0.8,0.1c2.4,0.1,6,0.1,10.7,0.1c1.6-0.1,0.2-0.2-4.1-0.2c-7.2,0-9.1-0.2-5.7-0.6
					c0.5-0.1,1-0.2,1.5-0.2c0.8-0.1,1.7-0.2,2.8-0.2l1-0.1c0.4,0.2,1.7,0.3,4,0.3c0.5,0,1,0,1.4,0c2.4,0,4.3,0,5.6,0.1
					c3.1,0.2,7.1,0.2,11.9,0.2c0.4,0,0.7,0,0.7,0l0.6,0c1.5,0,2.5,0,3-0.1c0.2-0.1,0.3-0.1,0.1-0.1c-1.4-0.2-2.5-0.4-3.4-0.7l-0.7,0
					c1.6-0.1,1.3-0.1-0.7-0.1c-0.5,0-1,0-1.6,0.1l-1.2,0c-0.2,0.2-1,0.3-2.5,0.3c-5.9,0.1-10.8,0-14.8-0.1c-0.5,0-0.8-0.1-1-0.1
					c-0.3-0.1-0.2-0.1,0.2-0.1c0.4-0.1,0.9-0.1,1.3-0.1c1.5-0.2,3.2-0.3,4.8-0.4c1.4-0.1,2.3-0.2,2.6-0.4c0.4-0.2,1-0.4,1.8-0.5
					c0.3-0.1,0.6-0.2,1-0.2c1.7-0.2,1-0.3-2-0.3c-0.4,0-0.7,0-0.8,0.1c-0.8,0.4-2.6,0.4-5.6,0.3c-2.9-0.2-7-0.3-12.4-0.3
					c-2,0-2.1,0.1-0.3,0.1c2,0.1,3.9,0.2,5.7,0.3c0.5,0.1,0.9,0.1,1.2,0.1c2.5-0.1,4.2-0.1,4.9,0l0.7,0c0,0.2-0.4,0.3-1.3,0.4
					c-0.8,0.2-1.9,0.3-3.2,0.5c-0.5,0-0.9,0-1.2,0c-0.9-0.1-2-0.2-3.5-0.2c-4.2-0.1-22.7-0.2-27.6-0.2c-0.5,0-0.8,0-0.8-0.1
					c-0.4-0.4-1.5-0.4-3.4-0.2c0.1,0.1,0.3,0.2,0.6,0.3c0.2,0.1,0.5,0.1,1,0.1c2.4,0,4.6,0.1,6.7,0.1c3.8,0.1,21,0.2,23.5,0.4
					c1.9-0.1,2.7-0.1,2.4,0c-0.8,0.4-17.7,0.5-22.7,0.6c0.7,0,15.3,0.1,15.9,0.1c2.3,0.1,2,0.2-1,0.3c-0.8,0.1-15.4,0.1-15.9,0
					c-0.4-0.1-0.8-0.1-1.2-0.1c-3.9-0.1-5.9-0.1-6.2,0.2c-0.5,0.1-0.7,0.1-0.6,0.2c0.4,0.3-1.1,0.4-4.7,0.4
					c-4.6-0.1-18.7-0.2-22.4-0.3c-0.8,0-1.5-0.1-2-0.1c-2.4-0.1-4.9-0.2-7.5-0.1c-0.7,0.1-1.3,0.1-1.8,0c-0.4,0-0.4-0.1,0.1-0.2
					c0.6-0.1,0.3-0.2-0.8-0.4c-2.4-0.4-3.8-0.4-4,0c0,0.1-0.3,0.1-0.6,0.2c-0.5,0-0.8,0-0.9,0.1c-0.9,0.2-3,0.3-6.4,0.3
					c-0.9,0-1.7,0-2.5,0l-0.5,0c2.4,0,3.6,0,3.8,0.2l0.2,0c3.1,0.2,3.3,0.4,0.7,0.7c0.3,0.4-0.8,0.5-3.1,0.3
					c-1.8-0.1-3.6-0.2-5.3-0.3c-0.7-0.1-1.1-0.1-1.4-0.2c-2-0.3-5-0.4-9.2-0.4c0.5-0.2,1.8-0.3,3.9-0.3c5.3,0,7.1-0.1,5.3-0.3
					c-2.4,0.1-3.9,0-4.4-0.1l-0.3,0c-0.4,0-0.8,0-1,0c-3.4,0.1-6,0.2-8,0.3c-0.7,0.1-1.2,0.2-1.5,0.2c-1.4,0.2-2.5,0.3-3.4,0.2
					c-0.9,0-1.7,0-2.3,0c-0.7-0.1-1.5-0.1-2.2-0.2c-4.2-0.2-9.4-0.2-15.8-0.1c-0.4,0-0.7,0-0.8,0c-1.9,0.1-3.8,0.2-5.8,0.3
					c-0.9,0-1.7,0-2.5,0.1c-0.6,0-0.9,0-0.9,0c-2.7-0.2-5.2-0.3-7.4-0.2c2.3,0.1,2.8,0.2,1.5,0.5c-0.4,0.1-0.5,0.2-0.3,0.2
					c0.5,0.2,2,0.4,4.4,0.4l0.8,0c-0.2-0.2,0.9-0.3,3.2-0.2l1.4-0.1c-0.4-0.1,0-0.2,1.3-0.3c0.5-0.1,0.8,0,1,0
					c3.4,0.1,6.8,0.1,10-0.1c0.7-0.1,1.3-0.1,1.9-0.2c2.5-0.2,4.4-0.1,5.8,0.1c-1.3,0-2.5,0-3.5,0.1c-1.8,0.1-2,0.2-0.5,0.2
					c4.9,0,9.9,0,14.8,0c0.5,0.1,0.9,0.2,1.3,0.3c0.5,0,2.4,0,5.6-0.1c0.9,0,1.5,0,1.9,0.1l0.8,0c1-0.1,2.4-0.1,4.2,0
					c2.1,0.1,3.4,0.2,4,0.5c-0.9,0.2-3.1,0.2-6.5,0.1c-0.6,0-1.1,0-1.6,0c-5.2-0.1-8.8-0.1-10.7-0.1c-3.8,0-6.6,0.1-8.4,0.3
					c-0.6,0-1.2,0-1.6,0c-0.4-0.1-0.9-0.1-1.4-0.2c-0.5,0-0.7-0.1-0.7,0c-0.3,0.1-1.1,0.2-2.5,0.2c-0.5,0-0.9,0-1.1,0
					c-3.3,0.2-6.6,0.1-9.7-0.1c-3.7,0-5.7,0.1-6,0.3c-0.2,0.2-1.7,0.3-4.6,0.3l-0.7,0.1c0.7,0.2,0.5,0.3-0.6,0.4c-0.4,0-0.8,0-1.2,0
					c-3.8,0.2-6.9,0.4-9.3,0.7c-0.4,0-0.9,0-1.3,0c-0.4,0-0.8,0-1,0c-1.1,0-2.5,0.1-4.1,0.1c-3.1,0.1-5.9,0.1-8.3,0
					c-1.2-0.1-2.3-0.1-3.2-0.2l-0.1-0.3c-0.9-0.2-1.4-0.4-1.6-0.7l-0.3,0c0-0.1,0-0.1,0-0.1c0.4-0.3,0.2-0.6-0.5-0.8
					c0.6-0.1,0.7-0.2,0.2-0.4l-0.6,0c-0.1,0-0.2,0-0.3,0l0.1,0.3c-0.3-0.1-0.7-0.1-1-0.1C50,23.7,50,23.8,50.1,24
					c0.1,0.3,0.3,0.5,0.8,0.6c0.4,0.2,0.7,0.3,1,0.4s0.5,0.1,0.7,0.3c0.1,0.1,0.2,0.2,0.3,0.2c-0.4-0.1-0.8-0.1-1.1-0.2l0.2,0.7
					c0.1,0,0.3,0,0.4,0c0.1,0.1,0,0.2-0.3,0.3l0.1,0.2c-0.5,0.1-0.8,0-1-0.2c-0.4,0.1-0.8,0.2-1.1,0.2l-0.2,0
					c-0.2-0.1-0.6-0.1-1.3,0c-0.2,0-0.4,0-0.5,0c-1.2-0.1-2.3-0.2-3.4-0.4c-0.2,0-0.4,0-0.5,0c-1.3-0.2-2.3-0.1-2.8,0.3l0.3,0
					c0.6-0.1,1.1-0.1,1.5,0.1c0.1,0,0.3,0,0.6,0.1c1,0.1,2.2,0.2,3.7,0.2c0.2,0,0.3,0,0.4,0c0.3,0,0.5,0,0.6,0
					c0,0.2-0.2,0.4-0.5,0.6l0.1,0.1c-0.2,0-0.4,0-0.6,0c0,0-0.1,0-0.1,0c-0.2,0-0.4,0-0.6,0c-0.2,0-0.3,0-0.5,0
					c-1,0-1.2,0.2-0.4,0.5c0.3,0,0.6,0,0.9,0c0.3,0,0.4,0,0.5,0c0.1,0,0.3,0,0.4,0c0.1,0.1,0.1,0.2,0,0.4c-0.3,0.4-0.5,0.8-0.5,1.2
					c-0.1,0.4-0.3,0.7-0.4,0.8c-0.2,0-0.3,0-0.3,0l-0.3-0.2c-1.1,0.1-1.2,0.2-0.3,0.4c0.8,0.2,1,0.6,0.8,1.2
					c-0.5,0.3-0.8,0.5-1.1,0.8c0,0.1-0.1,0.1-0.3,0.1c-0.4,0-1,0-1.7,0.1c-0.1,0-0.2,0.1-0.2,0.1c0.7,0.4,1.4,0.7,2.1,1
					c0,0.2-0.1,0.3-0.2,0.3c-0.2,0.1-0.3,0.1-0.3,0.1c-0.7-0.6-1-0.6-1,0.1c0,0.1,0.1,0.2,0.3,0.2c1.1,0.3,1.1,0.6,0,1
					c-0.6,0.2-1.4,0.2-2.6,0.2c-0.2-0.1-0.3-0.1-0.4-0.1c-0.9,0.3-1.9,0.5-3.2,0.7c-0.2,0-0.4,0.1-0.6,0.1c-1.9,0.1-2.4,0.3-1.4,0.7
					c0.2,0,0.3,0.1,0.3,0.1c0.2,0.1,0.3,0.2,0.4,0.2c1.4,0.2,1.8,0.4,1.1,0.8c-1.1,0.5-1,0.9,0.2,1.1c-1.9-0.1-2.4,0.1-1.5,0.4
					l0.2,0.1c-0.9,0.1-1,0.2-0.2,0.3c0.2,0,0.4,0,0.5,0c0.2-0.1,0.4-0.1,0.6-0.1l0.5-0.1c0.1-0.4,0.4-0.7,0.9-0.8
					c0.2,0,0.4-0.1,0.6-0.2c0.5-0.2,1-0.3,1.5-0.4l0.3-0.1c-0.7,0.2-0.6,0.4,0.3,0.5c0.1-0.1,0.3-0.1,0.4-0.1c0.9,0,1,0.1,0.3,0.3
					l-0.3,0.1c0.8,0.1,1.3,0.1,1.4-0.2c0.1-0.1,0.2-0.1,0.4-0.1c1.6-0.2,1.9-0.5,0.8-0.9c0,0.1,0,0.2-0.1,0.3
					c-0.5,0.4-1,0.4-1.3,0.1c-0.1-0.1-0.2-0.2-0.5-0.2c-0.2-0.1-0.4-0.1-0.7-0.1c-0.4-0.1-0.7-0.2-0.9-0.4c-0.3-0.3-0.8-0.5-1.6-0.6
					c-0.3,0-0.6-0.1-0.8-0.1c-0.2-0.1-0.2-0.1,0-0.1c1.2-0.3,1.9-0.2,2,0.2c0.4,0.3,0.8,0.3,1.2,0c0.1-0.1,0.1-0.2,0.1-0.2
					c-0.1-0.3,0.1-0.4,0.7-0.3c0.2,0,0.3,0,0.3,0c-0.6,0.3-0.7,0.6-0.2,0.9c0.8,0.3,1.4,0.4,1.8,0.1l0.3-0.2c0,0.3,0.3,0.5,0.9,0.5
					c0.4,0,0.6,0,0.6,0c0.3,0.3,0.8,0.5,1.5,0.6c0.3,0.1,0.6,0.1,0.9,0.2c1.3,0.2,1.3,0.4,0.1,0.7c-0.4,0.1-0.7,0.2-1.1,0.4
					l-0.2,0.1C47.1,39.3,47,39.1,47,39l0-0.1c-0.7,0.4-1.3,0.4-1.9,0c-0.3,0-0.7,0.1-1,0.2l-0.3,0.1l0.3,0.1
					c-0.3,0.2-1.1,0.3-2.5,0.1c-0.2,0-0.4,0-0.6,0l-0.3,0.1c-0.6-0.2-0.8-0.2-0.7,0.3c-0.2,0-0.3,0.1-0.3,0.1
					c-0.2,0.1-0.1,0.2,0.1,0.2c0.2,0,0.4,0.1,0.6,0.1c0.2,0.1,0.2,0.1,0.1,0.2c-0.2,0-0.3,0.1-0.5,0.2c-0.3,0.2-0.7,0.4-1.2,0.6
					c-0.2,0-0.3,0-0.3,0.1c0.2,0.3,0,0.5-0.7,0.5c-1.1,0-1.8,0.1-2.1,0.4c0.7,0,1.1,0.1,1.3,0.3c0.1,0.1,0.1,0.2,0.1,0.2
					c-0.1,0.1-0.3,0.3-0.5,0.4c-0.1,0.1-0.2,0.2-0.4,0.3L36,43.6c0.2-0.4,0-0.6-0.3-0.7l-0.1,0c-0.8-0.4-1-0.2-0.8,0.5
					c0.1,0.1,0.1,0.2-0.1,0.3c-0.4,0.2-0.6,0.5-0.6,0.8c0,0.4-0.6,0.6-2,0.6l-0.1-0.2c-0.8,0.1-1.7,0.3-2.6,0.4
					c-1.4,0.3-2.4,0.6-2.9,1.2c-0.4,0.3-0.8,0.4-1,0.2c-1.2,0.3-1.3,0.5-0.3,0.8l0.3,0.1c-0.7,0.3-0.5,0.5,0.4,0.7
					c0.3,0.2,0.1,0.3-0.4,0.3c-0.2,0-0.3,0-0.4,0c-1,0.2-1.7,0.1-2.1-0.5c-0.1-0.1-0.2-0.1-0.3,0c-1.2,0.3-1.2,0.4-0.1,0.4
					c0.5,0.6,1,0.8,1.8,0.6c0.3-0.1,0.7-0.1,1-0.2c0.2,0,0.4,0,0.6,0c0.2,0,0.3,0,0.3-0.1c-0.1-0.3,0.1-0.4,0.6-0.4
					c0.2,0,0.4,0,0.5,0c1.3-0.1,2.3-0.1,2.8,0c0.7,0.2,0.9,0.2,0.8,0c0-0.1-0.1-0.1-0.1-0.1c0.7-0.4,1.3-0.3,1.9,0.3
					c-0.1,0-0.3,0.1-0.5,0.2c-0.1,0.1-0.2,0.1-0.1,0.2c0.6,0.3,0.4,0.5-0.7,0.6l-0.3,0l0.3,0.1c-0.6,0.2-1.4,0.4-2.5,0.6
					c-1.1,0.3-2,0.2-2.7-0.2c0,0.1,0,0.1-0.1,0.2c-0.1,0-0.1,0.1,0,0.1c0.4,0.2,1,0.4,1.8,0.5c0.2,0,0.3,0.1,0.3,0.1
					c-0.1,0.2-0.3,0.4-0.6,0.6c-0.2,0-0.4,0-0.8,0l-0.3,0c-0.8-0.1-1.3-0.2-1.5,0l-0.1,0.1c0.6,0,1.3,0.1,2,0.2
					c0.1,0,0.2-0.1,0.3-0.1c-0.1,0-0.3,0.1-0.4,0.2c-0.1,0-0.3,0-0.5,0l-0.5,0c0,0.1,0,0.1-0.1,0.2c0-0.1-0.2-0.1-0.3-0.1
					c-0.3,0-0.7,0-1,0c-0.6,0-1.2,0-1.9-0.1l-0.5,0c0.1,0.4,0,0.7-0.2,1c1.4,0,2.3-0.1,2.6-0.2c0.8,0,1.7,0,2.5,0.1l0.3,0
					c-0.6,0.3-0.4,0.4,0.7,0.4c0.1,0,0.2,0.1,0.3,0.1c0.3,0,0.5-0.1,0.6-0.2l0.3,0.1c0.1-0.1,0.6-0.1,1.3,0c0.2,0,0.4,0,0.6,0
					c0.3,0,0.6,0,0.7,0.1c-0.2,0-0.4,0.1-0.6,0.1c-0.2,0-0.4,0-0.5,0c-0.7,0-1.4,0-2.1,0c-0.3,0-0.6,0-0.8,0c-0.2,0.1-0.2,0.1,0,0.1
					c0.5,0.1,1,0.2,1.4,0.2c-0.1,0-0.3,0.1-0.5,0.1c-0.2,0-0.3,0.1-0.3,0.1c0,0.1-0.1,0.2-0.5,0.3l0.1-0.1l-0.3,0
					c0.4-0.1,0.4-0.2-0.1-0.2c-0.4-0.1-0.8-0.1-1.2-0.1c0.7-0.1,0.5-0.2-0.5-0.2c-0.2,0-0.3,0-0.5,0c-1.5,0.1-2.1,0.1-1.9,0.3
					c0.1,0.2,0.4,0.3,1,0.4c0.1,0,0.2-0.1,0.3-0.1c0.2,0,0.3,0.1,0.3,0.2c-0.3,0-0.6,0.1-1,0c-0.3,0-0.5,0.1-0.7,0
					c-0.8-0.1-1.2-0.1-1.3-0.1c0,0.1-0.1,0.1-0.3,0.2c-0.2,0-0.4,0-0.6,0.1c-0.6,0-1.1,0.1-1.7,0.2c-0.3,0-0.5,0-0.5,0
					c-0.4,0.3-0.2,0.4,0.6,0.2l-0.3,0l0.3-0.1c0.8-0.2,1.4-0.2,1.7,0c0.1,0.1,0.1,0.1,0.1,0.1c-0.3,0.1,0.1,0.2,1,0.3
					c0.7,0,1.3,0,1.7-0.1c0.3,0,0.4,0,0.5,0c0-0.2,0.3-0.2,0.9-0.2l0.3,0c0.4,0,1-0.1,1.8-0.1l0.3,0c-0.7,0.1-0.7,0.2-0.1,0.4
					c-0.3,0.1-0.9,0.1-1.9,0.1l0.3,0.2c0.6-0.1,1.5-0.1,2.7-0.1c2.3,0.1,2.7,0.1,1.2,0.2c-0.2,0.1-0.3,0.1-0.5,0.2l-0.3,0.1
					c0.9,0,1.6,0,2.3-0.1c0.9-0.1,1.8-0.1,2.7,0c0.6,0.1,1.3,0.1,2.2-0.1c-1.1-0.2-0.9-0.3,0.7-0.2l-0.1,0.1
					c-0.1,0.1,0.2,0.1,0.7,0.1l0.1,0c0.3,0.2,1.1,0.3,2.5,0.3c0,0.1,0,0.1-0.1,0.1c-0.1,0-0.1,0.1-0.2,0.2c-0.1,0-0.2,0.1-0.4,0.1
					c-0.2,0-0.4,0-0.6,0l-0.2,0c-0.6,0.1-0.4,0.3,0.7,0.5c0.2,0,0.3,0,0.3-0.1c0.3-0.2,0.6-0.2,1,0c0,0.1,0,0.1,0.1,0
					c0.6,0,1.3,0,2.2-0.1c0.4,0,0.6,0,0.8,0c0.7,0.1,1.4,0.1,2,0l0.5,0c-1.1,0-1.3-0.1-0.4-0.2c0.2,0,0.3-0.1,0.5-0.1
					c0.9,0.2,1.5,0.2,1.8,0c0.2,0,0.3,0.1,0.3,0.1c0,0.1,0.4,0.2,1,0.2l0.5,0c0.3,0.2,0.4,0.3,0.4,0.3l-0.1,0.1
					c0.7-0.1,1.2-0.1,1.4,0l0.2,0l0.5,0c-0.3-0.1-0.1-0.2,0.4-0.2l0.3,0c0,0.1,0.4,0.2,1.2,0.1l-0.1,0.1c-0.5,0.2-1.1,0.2-1.7,0.1
					c-0.3,0-0.6,0.1-0.7,0.1c-0.4,0-0.3,0.1,0.2,0.1l0.3-0.1c0.2,0,0.2,0.1,0,0.1c-0.6,0.2-0.9,0.4-0.8,0.6c0,0,0.1,0.1,0.2,0.1
					c0.7,0.1,0.8,0.3,0.3,0.4c-0.7,0.1-1.8,0.2-3.1,0.1c-0.6,0-1.5,0-2.7,0.1c-0.3,0-0.7,0-1,0c-0.3,0-0.5,0-0.5,0.1
					c-0.1,0.2-0.4,0.4-0.9,0.5c-1.3,0-1.3,0.1,0.1,0.1c0.2,0.1,0.4,0.1,0.7,0.1l0.5,0c0.1,0.3,0.3,0.5,0.6,0.6
					c0.8,0.1,1.6,0.2,2.3,0.1c0.6,0,0.7-0.1,0.2-0.3l-0.1,0c0.3-0.1,0.9-0.2,1.6-0.3c0.9-0.1,2-0.2,3.2-0.3c0.9,0,1.8-0.1,2.7-0.1
					c1.9,0,1.9-0.1-0.1-0.1c-0.2,0-0.3,0-0.3,0c-0.2,0-0.3-0.1-0.5-0.1c-0.2-0.1-0.5-0.1-0.8,0c-1,0-1.2,0-0.5-0.2
					c0.1-0.1,0.2-0.1,0.1-0.1c-0.4-0.1,0-0.2,1.2-0.3c0.2,0,0.4,0,0.5,0c0.2,0,0.3,0,0.5,0c0.2,0,0.3,0,0.5,0
					c1.5-0.1,1.3-0.2-0.5-0.3c-0.2,0-0.3,0-0.2,0c0.3-0.2,0.1-0.3-0.6-0.2c-0.1,0-0.2,0-0.3,0c-1.2,0.1-1.4,0.1-0.7-0.1l0.3-0.1
					l0-0.1c0-0.1,0.6-0.2,1.7-0.2c0.4,0,0.8,0,1.2,0c1.9-0.1,2.5,0,1.6,0.2c0.2,0.1,0.7,0.1,1.6,0c0.2,0,0.3,0,0.4,0
					c0.4,0.1,0.8,0.1,1.2,0.1l0.1,0.4c-0.3,0-0.6,0-0.7,0c-0.8-0.2-1.2-0.2-1.3-0.1c0,0,0,0,0.3,0c0.7,0.1,1,0.2,0.9,0.4l0.1,0.1
					c0.8,0,1,0,0.8,0.1c-0.5,0.2,0,0.3,1.5,0.2c1.1,0,1.5-0.1,1.2-0.1c0.1,0,0.2,0,0.3,0c3.7-0.1,5,0,4,0.3L69.2,59
					c-2.2-0.2-3.3-0.1-3.2,0.1c-0.4-0.1-0.8-0.1-1.2,0l-0.8,0c1.9,0,2.9,0,2.8,0.1l0,0.1c0.4,0,0.9,0,1.3-0.1c0.4,0,0.7,0,1,0
					c2.2,0.3,5.7,0.3,10.5,0.2c-0.4,0-0.9,0-1.4,0c-0.4,0-0.6,0.1-0.6,0.1c0,0,0.2,0,0.4,0.1c1.1,0.2,1.3,0.3,0.6,0.4
					c-0.5,0-0.7,0-0.6,0.1c0.2,0.2,1.8,0.2,4.7,0.2c4.1,0,4.9-0.1,2.4-0.2c-1.9,0-3.4-0.1-4.6-0.3c-1.3-0.2-1.1-0.2,0.6-0.1
					c1.5,0,2.1-0.1,1.9-0.2l0-0.1c-1.3-0.1-0.6-0.1,2-0.2l0.6,0c-1.2,0.1-0.5,0.1,2.2,0.1l0.6,0c0.4,0.1,0.9,0.1,1.4,0.1
					c1,0.1,2.1,0.2,3.5,0.3c0.4-0.1,0.9-0.1,1.4-0.1c0.8-0.1,1.4-0.1,1.7-0.1c1.4-0.1,2.3-0.1,2.8,0c0,0,0.1,0.1,0.2,0.1
					c1.7,0.3,1.1,0.5-1.9,0.7c0,0-0.1-0.1-0.3-0.1c-0.7,0-1.2,0-1.4,0c-0.3,0,0,0.1,0.7,0.1c2.9,0.1,4.7,0.1,5.6-0.1l0.6-0.1
					c1.8,0,3.6,0,5.4,0l0.6,0c0,0,0.1,0,0.2,0c0.9,0.1,2,0.1,3.4,0l0.6,0c-4.6-0.2-4.6-0.3-0.1-0.3l-0.2,0c-0.7-0.2-0.4-0.3,0.8-0.2
					c0.5,0,0.9,0,1.2,0c0.6-0.1,0.9,0,1,0c2.3,0,2.6,0.2,0.7,0.3l-0.6,0.1c2.3,0.1,2.5,0.2,0.7,0.3c-1.6,0.2-0.1,0.2,4.2,0.2
					c1.4,0.1,2.8,0.1,4.3,0l1,0c0.5,0.3,1.5,0.5,2.9,0.6c0.6,0,0.8,0.1,0.6,0.2c-0.4,0.1-0.1,0.2,1.1,0.3c-2.5,0-4,0-4.3,0l-0.4,0.1
					l-0.6,0c-1.8,0.1-3.1,0-4-0.1c-1.7-0.3-3.6-0.3-5.4,0c1.9,0,2.6,0.1,2.1,0.3c-0.6,0.1,0.1,0.1,2.1,0c4.4-0.2,6.7-0.1,6.8,0.4
					c1,0.1,1.8,0.1,2.4-0.1c0.2,0,0.6-0.1,1-0.1c2.6-0.2,3.2-0.2,1.9-0.1l-0.5,0.1c1.5,0.2,0.8,0.3-2.1,0.4c-0.4,0-0.7,0-0.8,0.1
					c-0.3,0.1-0.3,0.1-0.2,0.1c2.2,0,2.9,0.1,1.8,0.2c-0.3,0.1-0.9,0.1-1.7,0.1c-5.5,0-8.5,0.1-9.1,0.4c1.6,0,3.8,0,6.4,0.1
					c0.5,0,0.8,0,0.8,0c2.7-0.2,5.1-0.2,7.3,0c-0.4,0-0.7,0-0.7,0c-0.3,0-0.3,0.1,0.2,0.1c2,0.1,3.5,0.2,4.4,0.3
					c0.3,0.1,0.2,0.1-0.3,0.2c-0.4,0-0.7,0.1-0.8,0.1c-0.2,0-0.3,0.1-0.3,0.1c-0.1,0.2-0.9,0.5-2.4,0.6c-0.2,0-0.5,0-0.7,0.1
					c1.4,0,2.6,0,3.5-0.1c0.9,0,1.6-0.1,1.9-0.2c0.3-0.1,0.4-0.1,0.2-0.2c-1-0.3,0.5-0.5,4.3-0.6c0.7-0.1,1.4-0.1,2.1-0.1
					c0.6,0,1-0.1,1-0.1c1.5-0.3,0.9-0.5-1.6-0.6c-3.5,0-3.6,0-0.2-0.1c1.6-0.1,2.3-0.1,2-0.2l-0.8,0c-0.8,0-1.6,0-2.2,0
					c-2.7-0.1-3.7,0-2.9,0.4c-1.8,0-3.2,0-4.3,0c-0.6,0-1.2,0-1.7-0.1c-0.5,0-0.5,0-0.1,0c0.5-0.1,0.9-0.1,1.4-0.1
					c0.4-0.1,0.4-0.1,0.1-0.1c-2.6-0.1-3.5-0.2-2.7-0.5c0.1-0.1,0.3-0.2,0.4-0.2c1.7,0,2.5,0,2.4-0.1c-0.3-0.2,0.6-0.2,2.7-0.1
					c3.4-0.1,4-0.3,1.7-0.6l-0.8,0c-3.7,0.1-4.6,0-2.7-0.2c1.3-0.1,2.7-0.1,4.1-0.1c2.5,0.1,3.5,0.1,3-0.1c-0.3-0.1-0.9-0.2-1.8-0.3
					c-3.6,0.4-6,0.3-7.3-0.1l0.3,0c3.6,0.1,5.9,0.1,7-0.2c0.4,0,0.6,0,0.7,0c0.4-0.1,0.6-0.1,0.8-0.1c1.8,0,2.4-0.1,2-0.2l-0.3,0
					c1.7-0.1,3.7-0.1,6,0l0.6,0c-0.2-0.1,0.1-0.2,0.8-0.2c0.3,0,0.7-0.1,1.1,0c0.4,0,0.6,0,0.6-0.1c0,0-0.1-0.1-0.2-0.1
					c-0.3,0-0.3,0,0.1-0.1c0.6-0.1,1.3-0.1,2.1-0.1c0.5,0,0.9,0,1.2,0c2.6,0,4.1,0,4.5-0.1c0.2,0,0.4,0,0.6-0.1
					c1.7,0,3.2,0.1,4.5,0.2c1.1,0.1,12.6,0.3,14.5,0.4c3.5,0.2,5.3,0.2,5.6-0.1l0-0.1c0.5,0.1,0.8,0.1,1,0.1l2.4,0
					c-2.1-0.2-2.8-0.3-2-0.3c1.7-0.2,3.3-0.2,4.7-0.1l0.7,0.1l-0.8,0c0.7,0.1,2.1,0.2,4.2,0.3c2.8,0,2.7,0.1-0.3,0.2
					c-0.6,0.1-1.2,0.1-1.9,0.1c-1.5,0.1-3.3,0.1-5.6,0.2c-0.9,0-1.5,0-1.9,0.1c-1.9,0.2-3.5,0.2-4.8,0c1.3-0.1,0.6-0.2-1.8-0.3
					c-0.7,0-11.3,0-11.7,0l-0.6,0c-1.5,0-1.4,0.1,0.2,0.3c-4.1-0.1-6.2-0.1-6.5-0.2c-0.3-0.1-0.7-0.2-1.1-0.3l-0.1,0
					c2.3,0.2,3.4,0.1,3.4,0c-1.2-0.1-3.4-0.1-6.6,0c-0.5,0-0.7,0-0.6,0c0.4,0.1,0.9,0.2,1.4,0.2l0.3,0c-1.7,0.1-2.3,0.1-1.7,0.2
					c0.9,0.1,1.2,0.3,1,0.6c1.3,0,2.6,0,3.8-0.1c0.6,0,1,0,1.4,0c3.1,0,3.6,0.1,1.6,0.2l-0.7,0.1c0.4,0,0.9,0,1.4,0.1l0.6,0
					c-2.9,0-3.3,0-1.2,0.1c0.9,0.1,1.8,0.1,2.9,0.1c2.7,0.1,14.3,0,14.7-0.1c0.2,0,0.5,0,1-0.1c0.4,0,0.9,0,1.4,0
					c0.9,0.1,1.9,0,3.2-0.2c-0.2,0.2,1.2,0.3,4.2,0.3c2.4,0,3.5-0.1,3.2-0.3l-0.1-0.1c3.8,0,5.3-0.1,4.6-0.4c0.3-0.1,1-0.1,2.2,0
					c1.4,0.2,17,0.2,18.7,0.1c0.4,0,0.6-0.1,0.6-0.1c0.1-0.2,1.2-0.3,3.1-0.3l0.8,0c2.2-0.2,5-0.2,8.6-0.1c0.5,0,0.8,0.1,1,0.1
					c2.7-0.1,4.6-0.1,5.8-0.1c0.5,0,0.9,0,1.2,0c1.9,0,2.7,0,2.3,0.1c-0.2,0-0.2,0-0.2,0.1c0.7,0.2,1.8,0.2,3.4,0c0.4,0,0.6,0,0.6,0
					c-0.3-0.3,0.3-0.5,1.8-0.6l0.7,0c-2.6,0-3.1-0.1-1.5-0.2l0.1,0c0.9-0.1,0.7-0.2-0.8-0.2c-2.9,0-3.4,0-1.4,0.1
					c-0.9,0.1-2.2,0.1-4.1,0.1l-1.2,0c0-0.2,1-0.3,3.2-0.4l0.1,0c1.1-0.2,0.3-0.3-2.3-0.3c-0.6-0.1-0.2-0.2,1.2-0.1
					c1,0,1.4,0,1.5-0.1c1-0.2,2.5-0.3,4.6-0.2l0.8,0c0.8,0,1.2,0,1.2,0c1-0.3,0-0.4-2.9-0.2c-1.9-0.1-1.5-0.2,1.3-0.2
					c0.5,0,1,0,1.4,0c3.7-0.1,5.7-0.1,6.1,0.1c0,0.1,0,0.1-0.1,0.1c-0.1,0.2,0.2,0.3,0.9,0.5c-0.4,0-0.5,0-0.5,0.1
					c1,0.1,1.5,0.1,1.4,0c0-0.2,1.4-0.2,4.3-0.1l0.8,0c1.1-0.1,2.7-0.1,4.7-0.1l1.3,0c0.6,0,1.8,0,3.5,0c0-0.2-0.7-0.3-2.2-0.3
					c-0.9,0-1.4,0-1.4,0c0,0-0.1,0-0.1,0l24.2,0.5c-0.9,0.1-1.6,0.2-2.2,0.2c0.6,0,1.1,0.1,1.6,0c-0.1,0-0.1,0.1-0.1,0.2
					c0.5-0.1,1-0.1,1.6-0.1c0.7,0,1.2-0.1,1.4-0.1c0.8,0,1-0.1,0.5-0.2l-57,2.6c-0.1,0-0.2,0.1-0.3,0.1c1.2,0.3,3.1,0.4,5.7,0.5
					c1.4,0,2.7,0.1,4,0.2c0.2,0,0.4,0,0.7-0.1c1.2-0.1,2.4-0.2,3.5-0.3c0.4,0,0.6-0.1,0.7-0.1l0.6,0c0.2,0,0.3-0.1,0.3-0.1
					c0.1-0.2-0.2-0.3-0.7-0.4c0,0-0.1-0.1-0.2-0.1c-0.5-0.1-1.2-0.2-2.1-0.3c0.7-0.2,2-0.2,3.9-0.1c0,0.1,0.2,0.2,0.4,0.2
					c0.7,0.1,0.8,0,0.4-0.2c-1.1-0.5-1-0.9,0.4-1.2c0.8-0.2,0.8-0.2-0.1-0.2c-1,0-1.9-0.1-2.6-0.2c-0.1,0-0.2,0-0.3,0
					c-0.6,0-1.2,0-1.7,0c0.5-0.1,1.1-0.1,1.7-0.2l-3.5-0.1c-0.6,0-1.1-0.1-1.6-0.2c-0.3,0-0.4-0.1-0.3-0.1c0.2-0.1,0.5-0.2,1-0.1
					c1,0,1.9,0.1,2.7,0.3c2,0.3,3.7,0.2,5.3-0.1c0.6,0.2,1.3,0.3,2.3,0.3c0.3,0,0.5,0,0.5,0c0,0.1,0.1,0.1,0.1,0.2
					c0,0.1,0,0.1,0.1,0.2c0.1,0.1,0.2,0.2,0.3,0.2c0.2,0,0.3-0.1,0.4-0.1c0,0,0.1-0.1,0.1-0.2c0.1,0,0.2,0,0.3,0
					c0.2-0.1,0.7-0.2,1.5-0.2c1-0.1,1.9-0.1,2.8-0.1c0.5-0.1,0.9-0.2,1.3-0.3c-1.5,0-1.2-0.2,0.8-0.4c0.3,0,0.5,0,0.8,0l1-0.5l7.7,0
					c1.2,0.8,2.6,1.1,4.2,0.8c0.3-0.1,0.5-0.2,0.8-0.4c0-0.1,0-0.2,0-0.3c0-0.2-0.1-0.4-0.2-0.6c-0.4,0-1,0-1.9,0.1
					c0-0.2-0.4-0.2-1.3-0.1c-1.7,0.3-2.6,0.2-2.8-0.2l0-0.1c-1.2,0.1-2.5,0.1-3.8-0.1c-1-0.1-1-0.2-0.3-0.3c0.3-0.1,0.5-0.1,0.6,0
					c0.4,0,0.9,0,1.3,0.1c0.6,0,1.3,0.1,2.1,0.1c3.6,0,6-0.1,7.3-0.3l0.5,0c1.9,0.2,3.2,0.1,3.8-0.3c0.8-0.2,2-0.2,3.7-0.2
					c2.9,0.1,5.5,0,7.8-0.3c0.4,0,0.8,0,1.3,0.1l0.1,0l-4.2-0.5c-0.3-0.6-0.7-1.2-1.4-1.6c-0.1,0-0.1-0.1-0.2-0.1
					c-0.4,0-0.7,0.1-1.1,0.1l-0.9-0.6c0.8,0,1.4,0.2,2,0.5c2.8-0.3,5.7-0.6,8.7-0.9c-1-0.1-2.1-0.2-3.1-0.3c-1.2,0.2-3,0.3-5.4,0.2
					c-2.6,0-4.7,0.1-6.3,0.3l-0.6,0c0.3-0.2-0.3-0.3-1.8-0.4c-1.4,0.2-2.8,0.4-4,0.5l-0.4,0.1c0.1-0.1,0.1-0.3,0-0.3
					c1,0,1.8,0,2.7-0.2c0-0.1-0.1-0.1-0.2-0.1c-0.4-0.1-0.8-0.2-1-0.2l-0.3-0.1c3.2-0.2,6.5-0.4,9.8-0.6c1.7,0,3.1,0,4.1,0.1
					c2,0.3,3.2,0.2,3.7-0.2c-2.4-0.1-5.3-0.1-8.6,0c-2.9,0.1-5.5,0-7.7-0.2l-0.5,0c-0.6,0.3-1.7,0.3-3.4,0.3c-0.5,0.1-1,0.1-1.6,0.1
					c-3.7,0.2-6.1,0-7.1-0.5c-0.5,0.1-0.9,0.1-1,0.2c-0.9,0.4-1.7,0.4-2.5,0.1c-0.2-0.1-0.2-0.2,0.1-0.3c0.4-0.1,1-0.3,1.8-0.5
					c-0.3-0.1-0.6-0.1-0.8,0c-0.3,0-0.5,0-0.8,0c-0.9,0-1-0.1-0.5-0.3l0.3-0.1c3.1-0.3,5.6-0.8,7.5-1.4c2.6-0.2,4.3-0.1,5.1,0.2
					c1.3,0.6,2.2,0.5,2.7-0.2c-1,0.1-1.6,0-1.6-0.1l0-0.2c-1.5,0.1-3.1,0.1-4.7-0.1l-0.5,0c0.1,0.3-0.8,0.4-2.6,0.2
					c-1.2-0.1-2.5,0-3.9,0.2c-1.7,0.3-3.2,0.6-4.5,1c-1.4,0.3-2.9,0.4-4.5,0.3c-0.3,0-0.4,0-0.5,0c-0.3-0.1-0.5-0.1-0.7-0.2
					c-1.4-0.2-2-0.6-1.9-1.1c0-0.1,0.1-0.1,0.3-0.1c1.9,0.1,2.7,0,2.5-0.3c0-0.1,0-0.1,0.1-0.1c0.4-0.1,0.7-0.1,0.7-0.2
					c0.2-0.1,0.1-0.2-0.3-0.2c-2-0.1-1.8-0.2,0.8-0.2c0.3,0,0.5,0,0.5,0c0,0.5,1,0.6,2.8,0.3c-0.1-0.3-0.3-0.6-0.6-0.9l-0.1-0.1
					c1.5-0.1,1.6-0.2,0.4-0.3c-0.3-0.1-0.5-0.1-0.7-0.1c-0.2-0.2-0.5-0.3-0.7-0.3c-1-0.3-1.2-0.4-0.6-0.5c0.3,0,0.5-0.1,0.4-0.2
					c-0.1-0.5,0.4-0.8,1.6-1.1c-0.9-0.2-0.9-0.5,0.1-0.9c0.7-0.3,2.1-0.5,4.3-0.5l0.4-0.1c-1-0.2-1.2-0.3-0.5-0.4
					c2.2,0,3.2,0.1,2.7,0.4c-0.2,0.1-0.3,0.2-0.2,0.2c0.9,0,1.6,0,2.1,0.1c-1-0.3-1.1-0.6-0.1-0.9c2.1-0.2,1.8-0.3-0.7-0.3l-0.5,0
					c-0.3,0.1-0.5,0.3-0.7,0.4l-0.4,0c-3.1,0-3.7-0.2-1.6-0.4c0.2-0.1,0.5-0.3,0.9-0.4c0.4,0,0.8-0.1,1.2-0.1c1.7-0.2,3-0.2,4,0
					c0.3,0.1,0.5,0.1,0.8,0.1c0.2,0,0.4-0.1,0.5-0.1c0.9,0.2,2.3,0.2,4.3,0.1c0.2,0,0.5,0,0.9,0c1.5,0.1,3,0.1,4.5,0.1
					c1.3,0,2.5-0.1,3.8-0.2c3.6-0.3,6-0.1,7.2,0.3c-1.2,0.2-0.9,0.2,0.8,0.1c0.3,0,0.5,0,0.8-0.1c0.6-0.2,1.7-0.2,3.1-0.2
					c0.5,0,0.8,0,1,0l0.4-0.1c2.4-0.1,3.6-0.3,3.7-0.7l-0.1,0c-0.8,0.1-1.5,0.1-2.2,0l-0.5,0c-0.9,0.3-1.7,0.3-2.4,0.1l-0.3-0.1
					c-2.2,0.1-3.4-0.1-3.6-0.5c-0.1-0.1-0.3-0.1-0.5-0.1c-2.2,0-2.7,0-1.5,0.2c1.7,0.2,1.7,0.3,0.1,0.5c-0.7,0.1-1.5,0.2-2.3,0.3
					c-2.7,0.2-5.1,0.2-7.1,0.1c-2-0.1-4-0.2-6.2-0.3c-0.6,0-1.1,0-1.6,0.1c-1.8,0.1-2.4-0.1-2-0.4c0.3-0.2-0.4-0.3-2.1,0
					c-0.2,0.1-0.4,0.2-0.7,0.2c-0.3,0-0.6,0-0.9-0.1c-1.9-0.1-3.5-0.4-4.6-0.8c-0.1-0.1-0.3-0.2-0.6-0.3c-0.3-0.2-0.6-0.3-0.9-0.4
					l0.3,0c1.3,0.1,2.8,0,4.4,0c0.4,0.2,0.7,0.2,1,0l0.2,0c-0.8-0.1-1.6-0.2-2.3-0.2c-0.3-0.1-0.7-0.1-1.1-0.2
					c-2.5-0.2-1.8-0.3,2.1-0.2c0.1,0,0.2,0,0.3,0c0.3,0.1,0.5,0.1,0.7,0.1c-0.1,0-0.1,0.1-0.2,0.1l-0.1,0.2c1.1,0.2,1.3,0.4,0.5,0.6
					c1.2-0.1,1.9-0.2,2.1-0.5c0.1-0.1,0-0.2-0.3-0.3c-1-0.3-1.7-0.4-2.1-0.1c0,0-0.2,0-0.3,0c-2-0.1-1.7-0.2,0.8-0.2
					c0.3,0,0.6,0,0.9,0.1c2.4,0,2.9,0.1,1.6,0.2c-1.3-0.2-1.5-0.2-0.7,0c0.2,0.1,0.3,0.1,0.5,0.2l0.3,0.1c2.7-0.1,5.6-0.1,8.6,0
					c1.8,0.1,2.3,0.2,1.6,0.3c1.9,0,3,0.1,3.2,0.3c0.3,0,0.5-0.1,0.4-0.1c0.1-0.2,0.7-0.2,1.6-0.1c0.9,0.1,2,0.1,3.2,0.2
					c0.6,0,1.3,0.1,1.9,0.1c0.3,0,0.6,0,0.9,0l-0.7-0.5c-0.3,0-0.6,0-0.7-0.1l-0.3,0c-0.5,0-1.2,0-2.1-0.2c-0.2-0.1-0.3-0.1-0.5-0.2
					l-0.3-0.1c-1.5,0.1-2.8,0.1-3.9-0.1c-0.2,0-0.4,0-0.6,0l-0.5,0c-0.1,0.3-0.8,0.4-2.1,0.2c-0.4,0-0.8,0-1.4-0.1
					c-0.3,0-0.4,0-0.5,0c-1.6-0.1-3.5-0.2-5.7-0.3c-0.3,0-0.6,0-0.9,0c-1.6,0-2.3-0.1-2.3-0.2c0-0.1,0.2-0.1,0.6-0.2
					c2.6,0,2.8-0.1,0.8-0.2l-0.5,0c-0.7,0.1-1.4,0.1-2.1-0.1c-0.2,0-0.4,0-0.8,0c-3.1-0.1-5.6-0.2-7.7-0.4c-0.3,0-0.6-0.1-0.8-0.1
					l-0.5-0.1c1,0,2,0,3.2-0.1L265.9,36.9 M276.4,53.7c-2.2-0.3-2.1-0.5,0.2-0.6c0.5,0.2,1.3,0.2,2.3-0.1l0.5-0.1
					c0,0.1,0,0.1,0.1,0.2l-0.3-0.1C279.7,53.3,278.7,53.5,276.4,53.7 M274.1,52.7c0.2,0,0.4,0,0.6,0c-0.3,0-0.6,0-1,0
					C273.9,52.7,274,52.7,274.1,52.7 M280.5,53.2c-0.3-0.1-0.5-0.1-0.8-0.1l-0.1,0c0.2,0,0.4,0,0.8,0c0.1,0,0.2,0,0.3,0l0,0
					L280.5,53.2 M243.4,61.4L243.4,61.4c-0.2,0-0.3,0-0.4,0l-0.2-0.7c0.2,0,0.3,0,0.5,0c0.2,0,0.5,0,0.7,0c1.3,0.1,2.4,0.3,3.3,0.4
					c-0.6,0-1.3,0-2,0C244.1,61.2,243.5,61.3,243.4,61.4 M25.4,53.9c0.1,0,0.3,0,0.4-0.1l0.3,0c0.2,0.1,0.3,0.1,0.5,0.1
					C26.2,53.9,25.8,53.9,25.4,53.9 M267.8,35.1c0.2,0,0.2-0.1-0.1-0.1c-0.3,0-0.6-0.1-1-0.1c-1.5-0.2-1.8,0-0.9,0.4
					C266.8,35.3,267.5,35.2,267.8,35.1 M264.1,27c2.2,0,2.6-0.1,1.4-0.4C264.5,26.5,264,26.7,264.1,27 M271.3,29.1
					c0.3,0,0.5,0,0.8,0.1c0.2,0.1,0.4,0.1,0.7,0.1c0.3,0,0.7,0,1.2,0c1.5,0,2.4,0,2.7,0c0.6-0.2,1.2-0.2,2.1,0.1
					c-0.4-0.2-0.1-0.3,0.8-0.3l0.8,0.1c-0.3-0.1-0.8-0.1-1.6-0.2c-0.4-0.3-1.5-0.5-3.3-0.5c-1.5-0.1-2.3-0.1-2.5,0
					c-0.2,0.1-0.4,0.1-0.7,0.1c-1.3,0-2.5,0-3.7,0.1c-1.3,0.1-2.5,0.1-3.9,0c0.3-0.2,0.5-0.4,0.5-0.6c0.1-0.1,0-0.1-0.3-0.1
					c-1.4-0.1-2.5-0.3-3.3-0.5c-1.5-0.4-3.8-0.7-6.8-0.9c-3.1-0.2-5.8-0.4-8-0.8c-0.3-0.1-0.5-0.1-0.7-0.1c-1.5,0.1-2.3,0.1-2.5,0
					c-0.3-0.1-0.6-0.1-0.9-0.2c-0.5,0-0.9,0-1.2,0c-0.7,0.1-1.6,0.1-2.6,0.1c-1,0-2.1,0-3.1,0c-1.8,0,61.6-2.5,60.8-2.7
					c-0.6-0.1-1.4-0.1-2.4-0.1c-0.3,0-0.4,0-0.4,0c0.2,0.2-0.2,0.3-1,0.3c-2.1,0-4.2-0.1-6.3-0.1c-1.3,0-2,0-2.1,0.1
					c-1.2-0.1-2.4-0.1-3.4-0.2c-1.1,0-2.2,0-3.2-0.1l-0.8-0.1l-0.1,0c-0.3,0-0.7,0-1-0.1l0.1,0.1c-2-0.1-3.8,0-5.3,0.1
					c1.3,0,2.5,0,3.6,0.1c0.8,0,1.5,0.1,2.2,0.1c2.4,0.1,4.6,0.2,6.7,0.3c0.7,0,1.4,0,2.1,0.1c2.6,0.1,5.2,0.2,8,0.3
					c-0.2,0.1-0.5,0.2-0.9,0.3c-0.8,0.1-1.6,0.1-2.4,0.1c-2.4,0.2-4.2,0.2-5.4,0c-1.1-0.1-2.6-0.2-4.5-0.2c-1.3-0.1-2.6-0.1-3.8-0.1
					l0.2,0.6c0.5,0,0.9,0,1.4,0.1c1.8,0.1,3.9,0.2,6.3,0.2c1-0.1,2-0.1,3-0.1c0.5,0,0.9-0.1,1.3-0.1c2.1-0.3,4.6-0.5,7.6-0.7
					c0.3,0.1,0.5,0.1,0.8,0.1l0-0.1c0.3,0-64.1,2.3-63.8,2.3c1.1-0.1,1.6-0.1,1.6,0.1c0,0,0.1,0.1,0.4,0.1c1.5,0.2,2.7,0.2,3.4-0.1
					c4-0.1,6.7-0.1,8,0.2c0.2,0.1,0.5,0.1,0.7,0.1c3.2,0.1,5.3,0.3,6.3,0.8c0.2,0,0.4,0,0.6-0.1c0.7-0.1,1.8,0,3.2,0.2
					c0.6,0.1,1.3,0.2,2,0.2c0.4,0.1,0.7,0.1,1,0.2c0.3,0.1,0.5,0.1,0.8,0.1c1.5,0.1,2,0.4,1.5,0.9c-0.5,0-1.1,0-1.6,0
					c-2.1,0-2.6,0-1.5,0.1c0.6,0,1,0.1,1.3,0.2c0.2,0.1,0.4,0.2,0.7,0.2c0.7,0.2,1.4,0.4,1.9,0.7c0.3,0.1,0.7,0.2,1.2,0.3
					c3.9,0.6,7.4,1.2,10.6,1.9c-1.7,0.1-2.2,0.2-1.5,0.3c1.1,0.2,1.9,0.1,2.5-0.1c0.2,0,0.3-0.1,0.4-0.1c0.7,0.1,1.2,0.2,1.4,0.3
					l0.2,0c1.9-0.2,2.8,0,2.7,0.4c0.2-0.1,0.5-0.1,0.8-0.1c1.2-0.1,1.5-0.3,0.8-0.3c-2.1-0.1-3.9-0.3-5.6-0.5
					c-2.3-0.3-4.8-0.7-7.4-1c-0.1-0.2-0.4-0.3-0.9-0.4l-0.3-0.1c0.8-0.1,0.7-0.2-0.5-0.2c-0.5,0-0.9-0.1-1.2-0.1c0,0-0.1,0-0.1-0.1
					c0.1-0.2-0.4-0.3-1.3-0.3c-1-0.2-0.9-0.3,0.6-0.4c0.8-0.1,1.6-0.1,2.4-0.2C269.5,29,270.6,29,271.3,29.1 M271.9,24.6
					c-0.2,0.3-0.4,0.6-0.5,0.9c2-0.2,2.8-0.4,2.4-0.5c-0.2-0.2-0.5-0.3-0.8-0.5c-0.5-0.2-1-0.3-1.5-0.2c-1.2,0.3-1.4,0.4-0.4,0.3
					L271.9,24.6 M271.1,25.9l-0.4,0c-1.8,0.2-1.7,0.4,0.1,0.5C271.7,26.3,271.8,26.1,271.1,25.9 M267.3,20.7
					c-1.5-0.2-2.3-0.1-2.6,0.2c1,0,1.7,0,2.2-0.1L267.3,20.7 M264.3,22.3c0.3,0,0.5,0,0.5,0l0.2-0.1c1.2,0.1,2,0.1,2.5,0
					c0.2,0,0.3,0,0.3,0c1.3,0.1,2.4,0.1,3.4-0.2c-0.3,0-0.5,0-0.7,0c-3.8-0.1-6.5-0.4-8.1-0.9c1,0.4,0.8,0.6-0.6,0.6
					c-1.5,0-2.8,0.1-4,0.1l-0.6,0.1c0.1,0.1,0.9,0.2,2.4,0.2C262.3,22,263.8,22.1,264.3,22.3 M278.2,23.7
					C278.2,23.7,278.2,23.7,278.2,23.7c-0.7-0.3-1.7-0.3-3-0.2c-0.3,0.1-0.6,0.1-0.8,0.1c-1.7-0.3-3.1-0.3-4.3,0
					c-0.8,0.1-0.5,0.3,0.9,0.6c0.7-0.2,1.7-0.2,2.9-0.1c0.6,0,1.4,0,2.5-0.2C277.5,23.9,278.1,23.9,278.2,23.7 M295,35.3l0.6-0.2
					l0-0.1C294.7,35.1,294.5,35.2,295,35.3 M290.4,37c0.6-0.2,0.5-0.3-0.1-0.3c-1.6,0-2.7,0-3.1,0c-2.8,0.2-3.3,0.4-1.3,0.7
					c0.9,0,1.2-0.1,1.2-0.3c0-0.1,0.1-0.1,0.4-0.1c0.3-0.1,0.6-0.1,0.8-0.1C289.2,37.1,289.9,37.1,290.4,37 M291,37.4
					C291.2,37.4,291.2,37.3,291,37.4c-0.4-0.1-0.8-0.1-1.2-0.1c-1.3,0.1-1.6,0.2-0.7,0.4C290.1,37.7,290.7,37.6,291,37.4
					 M295.8,34.4l0.1-0.4c-1.5-0.1-2.3,0-2.2,0.5C294.5,34.6,295.2,34.5,295.8,34.4 M296.1,33.7L296.1,33.7l0.4-0.3
					C296.2,33.5,296.1,33.6,296.1,33.7 M290.9,30.9l0.4,0c0.6,0.1,1,0.1,1.2-0.1c0.3-0.2-0.3-0.3-1.7-0.2c-0.3,0-0.6,0-0.8-0.1
					c-0.7,0-1.4,0-2.1-0.1c-0.6,0-1.5,0-2.5,0c-2.7,0.1-4.3,0.1-4.7-0.2c-1.7,0.1-2,0.2-0.9,0.4c0.3,0.1,1.4,0,3.3,0
					c1.3-0.1,2.3,0,2.9,0.2c0.2,0,0.5,0,1,0.1c1.4,0,1.9,0.1,1.6,0.2C289.2,31,289.9,30.9,290.9,30.9 M289.8,26.1l0.5,0
					c-0.1-0.1-0.3-0.1-0.5-0.2C289.7,25.9,289.8,26,289.8,26.1 M292.1,26.7c0.1-0.1,0.3-0.1,0.4-0.2c-0.4,0.1-0.7,0.1-0.8,0.1
					c-0.1,0.1-0.1,0.1-0.1,0.2C291.8,26.8,292,26.8,292.1,26.7 M294.3,26c-0.3,0-0.6,0-1,0c-0.2,0-0.4,0-0.6,0
					c-1.9,0.1-2.1,0.2-0.5,0.2c0.2,0,0.4,0,0.6,0c0.2,0,0.4,0,0.6,0C293.6,26.2,294,26.1,294.3,26 M290.1,22.6l-0.5,0
					c-0.8,0.2-2.2,0.2-4.3,0.2c-3.1-0.1-3.5,0.1-1,0.4c1.3,0.2,2.1,0.5,2.2,0.9l0.4,0C287.6,23.5,288.7,23,290.1,22.6 M322,62
					l-4.1,0l3.5,0.3C321.6,62.2,321.8,62.1,322,62 M343.5,67.4c-0.3,0-0.5,0-0.6,0c-1.2,0-1.2,0.1-0.1,0.3
					C345.7,67.6,346,67.5,343.5,67.4 M318.4,44.8l0.8,0c-1.5-0.6-2.5-0.6-3.1,0.1C316.9,44.8,317.6,44.8,318.4,44.8 M333,44.4
					l0.4-0.2c-2.6-0.1-4.3,0-5,0.4C330.6,44.7,332.1,44.6,333,44.4 M331.2,42.3c0.1,0.1,0.3,0.2,0.6,0.3c0.3-0.1,0.5-0.2,0.8-0.2
					c0.5-0.1,0.8-0.1,0.9-0.2c0,0,0.1,0,0.1-0.1C332.8,42.2,332,42.2,331.2,42.3 M332.5,11.1c1-0.1,1.8-0.1,2.3-0.2l0.3-0.1
					C333,10.6,332.1,10.7,332.5,11.1 M274.8,13.3c3.9,0,6.3-0.2,7.1-0.6l0.1-0.1C278.2,12.6,275.8,12.8,274.8,13.3 M235.8,12.8
					c-1.1,0-1.6,0-1.6,0.2c0.1,0.1,0.3,0.2,0.7,0.3c0.5,0.1,1.1,0.3,1.6,0.5c0.8,0.3,1.8,0.6,3,0.9l0.4,0c-0.4-0.3-1.1-0.5-2.2-0.8
					c-0.1-0.3,0-0.5,0.1-0.8c0,0,0-0.1-0.1-0.1C237.3,12.8,236.6,12.7,235.8,12.8 M199.3,12.4c0.9-0.1,1.6-0.1,2.1-0.2
					c1.6-0.2,16.9-0.4,17.9-0.6c0.8-0.2,1.4-0.4,1.8-0.6c0.7-0.3,0.7-0.5-0.1-0.5c1.6-0.2,1.6-0.3-0.2-0.2c-0.4,0-0.7,0-0.9-0.1
					c-3.5-0.1-19.4-0.1-19.7,0.2c0.5,0.1,0.9,0.1,1.4,0.1c0.4,0,0.9,0,1.5,0c2.2-0.1,17,0,16.2,0.2C216.9,11.1,201,11.7,199.3,12.4
					 M191.7,13.8c-2.8,0-4.1,0.3-3.9,0.7c2.2-0.1,3.4-0.3,3.7-0.6L191.7,13.8 M155.8,16.8c0,0.1,0,0.1,0.2,0.1
					c2.2,0.3,3.6,0.7,4.1,1.2c2,0.1,3.8,0.3,5.3,0.4c0.7,0.1,1.2,0.2,1.6,0.3c0.4,0,0.8,0,1,0c1.1,0,12.2,0.1,13.2,0.1
					c0.7,0.1,1.5,0.1,2.3,0.1c1.5,0.1,2.9,0.1,4.4,0.2c1.5,0.1,2.4,0.2,2.7,0.4c2.5,0,3-0.1,1.2-0.3l-0.7-0.1
					c2.2-0.1,3.4-0.3,3.7-0.6c0-0.1,0-0.1,0-0.1c0-0.1-0.4-0.2-1.1-0.2c-3.2-0.1-4-0.2-2.3-0.4c-1.8-0.2-2-0.3-0.6-0.4
					c1.9-0.1,2.2-0.2,0.9-0.3c-0.4-0.1-0.8-0.2-1.2-0.2c-0.5,0-0.7,0-0.8,0c-0.5-0.3-1.5-0.6-2.9-0.8c-0.4-0.1-0.7-0.1-0.8-0.1
					c-0.4,0-0.8-0.1-1.2-0.2c-1.4,0-2.5-0.1-3.3-0.1c-2-0.2-13.9-0.3-15.6-0.1c-1.4-0.1-2.7-0.1-3.9,0c-0.9,0.1-1.6,0.2-1.9,0.4
					c-0.1,0-0.2,0-0.3,0.1c-0.3,0.1-0.9,0.3-1.7,0.4C157.5,16.5,156.6,16.6,155.8,16.8 M143.1,10.5c-1.4,0.3-0.9,0.5,1.3,0.7
					c0.7,0.1,1,0.2,1.2,0.3c0.7,0.4,0.5,0.9-0.4,1.3c3.4-0.1,4.9-0.2,4.5-0.5c0,0,0-0.1,0.1-0.1c-0.3-0.4,0.2-0.7,1.6-1
					c-0.4-0.1-0.7-0.1-0.9-0.1c-2.1,0.1-3.3,0.1-3.5-0.2C146.4,10.5,145.1,10.4,143.1,10.5 M138.4,16.8l-0.8,0
					c0.4,0.3-0.4,0.5-2.4,0.7l0.5,0c1.3,0.2,2.3,0.4,3.1,0.6c0.9,0,1.6,0,1.9-0.1c0.5-0.1,0.9-0.1,1.2-0.2c0.5-0.1,0.9-0.2,1.1-0.4
					C143.5,17.1,142.1,16.8,138.4,16.8 M100.2,18l-0.7-0.2c-1.9,0.2-2,0.4-0.2,0.6c1.5,0.2,1.2,0.4-0.7,0.7c0.4,0,0.8,0,1.2,0
					c0.6-0.1,1.1-0.1,1.5-0.1c1.9,0,2.7,0,2.4-0.2C102.8,18.5,101.6,18.2,100.2,18 M82.4,14.3c2.1-0.1,2-0.3-0.1-0.4
					c-0.5,0-0.7-0.1-0.8-0.1C79.7,13.9,80,14.1,82.4,14.3 M61.3,20c2.5,0,4.5,0,6.2-0.2c2.2-0.1,2.7-0.2,1.5-0.3c-0.8,0-1.3,0-1.7,0
					C65.7,19.8,63.7,19.9,61.3,20z"/>
			</g>
		</g>
	</g>
</g>
<g>
	<path class="st1" d="M212,47.9L212,47.9L212,47.9L212,47.9L212,47.9z M213.7,47.2L213.7,47.2L213.7,47.2L213.7,47.2L213.7,47.2z
		 M213.9,46.6L213.9,46.6L213.9,46.6L213.9,46.6L213.9,46.6L213.9,46.6z M215,42.4L215,42.4L215,42.4L215,42.4L215,42.4L215,42.4z
		 M214,42.2L214,42.2L214,42.2L214,42.2L214,42.2z M214.5,37.7L214.5,37.7L214.5,37.7L214.5,37.7L214.5,37.7z M214.7,36.8
		L214.7,36.8h-0.2v0l0-0.1L214.7,36.8z M213.4,36.6L213.4,36.6L213.4,36.6L213.4,36.6L213.4,36.6L213.4,36.6z M211.8,36.2
		c-0.1,0-0.2,0.1-0.2,0.2c-0.2,0-0.3,0.5-0.2,1.4l0,0.1h0c0,0,0,0.5,0,1.4l0,0l0,0c0,0.4,0,0.7,0,0.8l0,0.1c0,0.3-0.1,0.6-0.1,1
		l0,0.1l0,0.1v0.4l0,0.2l0,0c0,0,0,0.1-0.1,0.3l0,0.1c0,0.1,0,0.3,0,0.4l0,0l0,0.8c0,0.2,0,0.3,0,0.4l0,0.1l0,0.1l0,0.2v0.1l0,0.1h0
		c0,0.2,0,0.4,0,0.6c0,0.6,0.1,1.1,0.1,1.3l0,0.1v0.1c0,0.1,0,0.2,0,0.2v0.2l0,0.1h0c0,0.1,0,0.4,0,0.9s0.1,0.9,0.4,0.9s0.5,0,0.6,0
		h0.1l0.1,0l0.1-0.1h0.1v0c0,0,0.1,0,0.2-0.1l0.2,0.1l0.1,0v0l0.1,0c0.1,0,0.2,0,0.3,0c0,0,0.1,0,0.2,0l0.1,0l0,0l0,0h0.1l0.2-0.1
		l0.1,0.1c0,0,0.1,0,0.3-0.1l0.1,0l0.1,0l0.2,0c0.3,0,0.5,0,0.7,0l0.1,0c0,0,0.1,0,0.2,0l0.2,0h0.1l0.1,0l0.1,0l0.1-0.1
		c0,0,0.1,0,0.3,0.1l0.1-0.1l0.1,0l0,0c0.3,0,0.5-0.1,0.5-0.3c0.1-0.6,0.1-1-0.1-1.4c0-0.2-0.1-0.3-0.1-0.3c0-0.2-0.2-0.2-0.5-0.3
		h-0.1l-0.1,0l0,0c0,0-0.3,0-1,0c0,0-0.1,0-0.2,0l-0.8,0c-0.1,0-0.4,0-0.7,0c-0.3,0-0.5-0.1-0.4-0.2l0-1.2l0-0.1
		c0-0.3,0.1-0.4,0-0.5h0c0-0.1,0-0.2-0.1-0.2l0.1-0.1v0l-0.1-0.1v-0.1h0c0-0.6,0.2-0.9,0.6-0.9h0.4c0,0,0.1,0,0.4,0h0.3l0.3,0.1
		l0.1-0.1l0.2,0c0.2,0,0.3-0.1,0.4-0.1c0.2-0.1,0.4-0.1,0.6-0.3c0.1-0.3,0.1-0.4,0.1-0.5l0-0.1v-0.2c0-0.3-0.1-0.5-0.2-0.8
		c-0.2-0.3-0.8-0.4-1.8-0.4l-0.2,0l0,0l-0.1-0.1l-0.1,0v0l-0.1,0.1h-0.1v0H214c-0.3,0-0.5-0.1-0.5-0.1v0h0.1v-0.1
		c0-0.1,0-0.2-0.1-0.4c0-0.1,0-0.2,0-0.4v-0.3l0-0.2c0-0.3,0.1-0.6,0.5-0.7l0.1,0c0.4-0.1,0.6-0.1,0.6-0.1l0,0l0.4-0.1l1,0.1l0,0
		l0.1,0.1h0.1l0-0.1l0.1,0.1h0l0-0.1c0.2,0,0.3,0,0.3,0.1l0.2-0.1l0.1,0c0.1-0.1,0.2-0.1,0.2-0.1l0.1,0h0c0.1,0,0.3-0.1,0.6-0.3
		l-0.1-0.1c0.1-0.2,0.1-0.4,0.1-0.7c-0.1-0.3-0.1-0.4-0.1-0.4c-0.1-0.1-0.2-0.1-0.2-0.2h-0.1v0.1h0c0-0.1-0.1-0.2-0.2-0.2
		c-0.3,0-0.5-0.1-0.5-0.1h0l-0.1,0l-0.1-0.1l0,0l0,0h-0.2l0,0c0,0-0.1,0-0.3,0l-0.1,0l-0.1,0l-0.1,0.1c0,0-0.1,0-0.3,0l-0.1,0
		l-0.1-0.1l-0.1,0v0l-0.1,0c-0.1,0-0.3-0.1-0.5-0.1l0,0c0,0-0.1,0-0.2-0.1l-0.1,0l-0.1,0l-0.2,0l-0.1,0l-0.1,0h0
		c-0.1,0-0.3,0-0.5-0.1C212.3,36.1,211.9,36.1,211.8,36.2z M206.1,46L206.1,46l-0.1,0.1l0-0.1l0,0L206.1,46z M203,44.3v0.2h0
		L203,44.3L203,44.3z M204.7,39.2c0-0.2,0.1-0.3,0.4-0.3c0.5,0,0.9,0.2,1.3,0.6c0.1,0.1,0.2,0.3,0.4,0.7c0.2,0.4,0.3,0.8,0.3,1.1
		l0,0.1c0,0.1,0,0.2,0,0.3v0.2l0,0.1l0,0.1v0.1c0,0.1,0,0.3,0,0.5l0,0.1c0,0,0,0.1-0.1,0.2l0,0.1c-0.1,0.7-0.2,1.1-0.2,1.4l0,0.1
		l-0.1,0c-0.1,0.3-0.2,0.6-0.3,1c0,0.1-0.1,0.2-0.3,0.4l0,0H206v0c-0.1,0.1-0.2,0.1-0.2,0.2h0l-0.1-0.1c-0.1,0.1-0.2,0.1-0.2,0.2
		h-0.4h0l0,0l0-0.1l-0.2,0.1c0,0.1-0.1,0.1-0.2,0.1c0,0,0-0.1-0.1-0.2c0-0.1,0-0.4,0-0.7c0.1-0.8,0.1-1.5,0.1-2.2c0,0,0-0.4-0.1-1
		l0-0.1l-0.1-0.2l0-0.1v-0.1l0-0.1l0-0.1c0-0.3-0.1-0.5-0.1-0.6l0-0.1l0-0.1v-0.1l0-0.1l0,0c0-0.4,0-0.6,0.1-0.8l0,0
		C204.7,39.3,204.7,39.2,204.7,39.2z M203.8,36.3l-0.2,0c-0.4,0-0.7,0.2-0.9,0.6c-0.1,0-0.2,0.5-0.3,1.4l0,0l0,0.1v0.1
		c0,0.1,0,0.3,0,0.5l0,0.1c0,0.2,0,0.4-0.1,0.6l0,0c0,0.1,0,0.2,0,0.2V40l0,0l-0.1,0.1l0.1,0.1c0,0.1,0,0.2,0,0.3c0,0.1,0,0.3,0,0.4
		v1l0,0.2c0,0,0,0.1-0.1,0.4l0,0h0c0,0.3,0,0.5,0.1,0.8l0,0l0,0.1v0.1l0,0.2l0,0.1c0,0.1,0,0.3,0,0.4v0l0,0.1l0,0.1v0.1l0,0.1
		l-0.1,0.1l0,0.1l0,0.1l0,0.2c0,0.1,0,0.2,0,0.2l0,0.2l-0.1,0.1l0,0.1l0,0.1c0,0.4,0,0.7,0.1,1c0,0,0,0.1,0,0.3c0,0.3,0,0.5,0,0.6
		c0,0.1,0,0.2,0,0.2l0,0c0,0.3,0.1,0.5,0.3,0.6l0,0.1c0.1,0.1,0.2,0.2,0.4,0.2l0.2,0c0.1,0,0.2,0,0.3,0.1l0.1,0l0.5,0.1l0,0l0.1,0
		l0.1,0l0,0h0l0.1,0l0.1,0h0.1c0.3,0,0.5,0,0.6,0c0.7-0.1,1-0.2,1-0.3l0.2,0h0c0.3-0.1,0.6-0.3,1.1-0.8c0.4-0.3,0.5-0.5,0.5-0.6
		c0.2-0.3,0.2-0.4,0.2-0.5c0.4-0.8,0.6-1.4,0.6-1.8l0,0l0-0.1v-0.3l0-0.1l0-0.1v-0.1c0.1-0.3,0.1-0.5,0.1-0.6v-0.4
		c0,0,0.1-0.1,0.1-0.3c-0.1-0.1-0.1-0.2-0.1-0.3l0-0.1l0-0.1v-0.1c0-0.3,0-0.4-0.1-0.5h0l0-0.1l0-0.1l-0.1-0.4
		c-0.1-0.6-0.2-1-0.3-1.2c-0.1-0.2-0.1-0.3-0.1-0.3c0,0,0-0.1,0-0.2l-0.1,0c-0.1-0.6-0.2-1-0.3-1.1c0-0.1-0.2-0.4-0.5-0.9
		c-0.7-0.8-1.6-1.2-2.7-1.2h-0.3l0,0l0,0h-0.5l-0.1,0L203.8,36.3z M196.1,38.8c0.2-0.2,0.4-0.3,0.9-0.3h0.2l0.2,0l0,0l0,0
		c0.3,0,0.6,0.2,0.8,0.5l0,0c0.1,0.4,0.2,0.7,0.2,0.8l0,0c0,0,0,0.1,0.1,0.2l0,0v0l0,0.1h0c0,0.3,0,0.5,0.1,0.5l0,0v0l0,0.1l0,0.1
		v0.1l0,0.2l0,0l0.1,0.1l0,0.4V42l0,0.1l0,0l0.1,0.1c0,0,0,0.1-0.1,0.3l0,0h0l0.1,0.6l0,0l0,0.1l0,0.1l0,0.1l-0.1,0.9l0,0l0,0.1
		l0,0.1h0c0,0.8-0.1,1.2-0.2,1.3c-0.1,0.5-0.5,0.8-1.2,0.8c-0.4-0.2-0.7-0.4-0.9-0.8c-0.2-0.6-0.3-1.3-0.4-1.8l0-0.1l0-0.1h0
		c0-0.2-0.1-0.4-0.1-0.7l0-0.1c0-0.4-0.1-0.7-0.1-0.9l0-0.1l0-0.1v-0.2l0-0.2l0,0l0,0v0l0-0.1c0,0,0-0.2,0.1-0.6l0-0.2
		c0.1-0.6,0.1-0.9,0.1-0.9l0,0C195.8,39.2,195.9,39,196.1,38.8z M195.6,36.3L195.6,36.3L195.6,36.3c-0.2,0-0.5,0.1-0.9,0.4
		c-0.3,0.2-0.5,0.4-0.6,0.5c-0.3,0.6-0.4,1.1-0.5,1.5v0.1l0,0.2l0,0l0,0.1l-0.1,0.1l0,0.1c-0.1,0.2-0.1,0.6-0.1,1l0,0.1l0,0.1l0,0.1
		h0c0,0.2,0,0.4,0,0.5v0.8c0,0.2,0,0.5,0,0.9l0,0.2l0,0l0,0.1l0,0.1c0,0.2,0,0.4,0,0.5c0,0.1,0,0.3,0,0.6l0,0.1
		c0.1,0.3,0.1,0.7,0.1,0.9v0.2c0.1,0.2,0.1,0.5,0.1,0.6c0.1,1,0.3,1.5,0.4,1.5c0.1,0.2,0.2,0.4,0.3,0.5c0.8,0.5,1.6,0.7,2.4,0.7
		l0-0.1c0.3,0,0.5,0,0.6,0h0c0.5-0.1,0.8-0.1,0.9-0.2c0.4,0,0.8-0.3,1.4-0.9c0.2-0.2,0.3-0.6,0.4-1.4l0-0.1l0-0.1c0-0.1,0-0.5,0-1.1
		l0-0.2c0,0,0-0.1,0.1-0.3c0-0.1,0-0.2-0.1-0.3c0-0.2,0.1-0.5,0.1-1c0-0.3,0-0.9-0.1-1.8c0-0.2,0-0.3,0-0.5c0,0,0-0.2,0-0.4l0,0
		l0-0.1v0c0-0.5,0-0.8-0.1-0.9h0c0-0.1-0.1-0.3-0.2-0.6c0-0.6-0.2-1.1-0.6-1.6c-0.2-0.2-0.6-0.5-1.1-0.8l-1.4-0.3
		C196.3,36.2,195.9,36.2,195.6,36.3z M191.1,47.6l0,0.2v0.1h0.1L191.1,47.6L191.1,47.6z M191.1,46.7L191.1,46.7L191.1,46.7v0.2h0
		c0,0.1,0,0.3,0,0.5l0,0.1c0,0,0,0.1,0,0.2h0.1l0-0.2l0-0.1c0,0,0-0.1-0.1-0.2l0.1-0.2L191.1,46.7L191.1,46.7z M181.6,36.4
		c-0.2,0.1-0.3,0.6-0.3,1.3l0,0.1l0,0.1l0,0.1l0,0.2l0,0.3c0,0.1-0.1,0.2-0.1,0.3v0.5l0,0.2l0,0.1c0,0.1,0,0.2,0,0.3l0,0.2
		c0,0.1,0,0.2,0,0.2l0,0.2v0.6l0,0.2l0,0c0,0.3,0,0.6,0,0.9c0,0.5-0.1,0.9-0.1,1.2l0,0.1c0,0.1,0,0.3,0,0.4V44l0,0.1h0l0.1,1.8
		c0,0.2,0,0.3,0,0.4l0,0.1l0,0.1v0.2l0,0.2l0,0.2V47l0,0.1l0,0.1v0.8c0.1,0.4,0.3,0.6,0.7,0.6c0.2,0,0.3,0,0.3-0.1l0,0h0.1l0.1-0.1
		l0,0c0.1,0,0.5-0.1,1-0.2c0.2-0.5,0.2-1,0.2-1.5v0l0-0.2l0,0l0-0.2v-0.1l0-0.2l0-0.1c0-0.1,0-0.1,0-0.3l0-0.1l0-0.1v-0.2
		c0-0.1,0-0.2,0-0.3c0,0,0-0.3,0-0.7c0,0,0-0.1,0-0.2l-0.1-0.1l0-0.1l0-0.1c0,0,0-0.1,0-0.3c0,0,0-0.1-0.1-0.2l0-0.1
		c0,0,0.1,0.2,0.2,0.7l0,0.1l0.4,1h0c0.2,0.8,0.4,1.4,0.7,1.8c0.3,0.8,0.5,1.2,0.6,1.2c0,0.2,0.3,0.3,0.8,0.2c0.3,0,0.5,0,0.5-0.1
		c0.3,0,0.6-0.3,0.8-0.9c0.1-0.3,0.2-0.6,0.4-0.9c0.1-0.3,0.2-0.7,0.4-1.2l0-0.1h0l0.2-0.3c0-0.2,0.1-0.5,0.2-0.9l0.1,0l0,0
		c0,0.1,0.1,0.2,0.2,0.3c0,0.2,0,0.5,0,0.7v0.7l0,0.2l0,0c0,0.1,0,0.3,0,0.4v0.1l0.1,0.2l0,0.2c0.1,0.6,0.1,1.1,0,1.5
		c0.2,0.4,0.6,0.6,1,0.6h0.2c0.3,0,0.6-0.1,0.8-0.1c0.4-0.2,0.6-0.4,0.6-0.7l0-0.1c0-0.2,0-0.3,0-0.4v-0.4c0-0.2,0-0.4,0-0.6l0-0.2
		c0-0.3-0.1-0.5-0.1-0.7h0l0-0.2v-0.3l0-0.1h0c0-0.1,0-0.2-0.1-0.3h0c0-0.3-0.1-0.5-0.1-0.6l0-0.1l0-0.1l0-0.3l0-0.2l0,0
		c0-0.1,0-0.2-0.1-0.3c0-0.2,0.1-0.3,0.1-0.4c0,0,0-0.1-0.1-0.3c0-0.1,0-0.2,0.1-0.5l-0.1-0.6l0,0l-0.1-0.5l0.1-0.2l-0.1-0.2l0-0.1
		c0-0.1,0-0.2-0.1-0.4h0l-0.1-0.4l0-0.1c0-0.1,0-0.2-0.1-0.4l0-0.1l-0.1-0.7c0.1,0,0.1-0.3,0.1-0.8c0-0.7,0-1-0.1-1
		c0.1-0.4-0.1-0.6-0.7-0.7l-0.1,0l-0.1,0l-0.4,0l-0.1,0l-0.1,0c-0.2,0.2-0.4,0.5-0.6,0.9c-0.5,1.5-0.8,2.3-1,2.6
		c-0.2,0.6-0.3,0.9-0.4,0.9c0,0-0.2,0.6-0.7,1.7c-0.4,1-0.7,1.8-0.7,2.2l-0.2,0l-0.4-1.8c-0.2-0.7-0.3-1-0.3-1l0-0.1
		c-0.1-0.2-0.1-0.4-0.2-0.4l0.1-0.1c-0.2-0.8-0.4-1.4-0.5-1.7v0l0-0.2c-0.1,0-0.1-0.2-0.2-0.5h0c-0.3-0.9-0.6-1.5-0.8-1.8
		c0-0.2-0.2-0.4-0.5-0.7l-1.2,0l-0.1,0l0,0H182C181.8,36.2,181.7,36.3,181.6,36.4z M169.8,47.2L169.8,47.2L169.8,47.2L169.8,47.2
		L169.8,47.2z M169.2,47L169.2,47L169.2,47L169.2,47L169.2,47z M170.2,46L170.2,46L170.2,46L170.2,46L170.2,46z M168,45.1L168,45.1
		L168,45.1L168,45.1L168,45.1z M168.2,36.6l-0.1,0.2c0,0.1,0,0.2-0.1,0.4l0,0.1l-0.1,0.3l0,0.2l0,0.1l0,0.1l-0.1,0.1
		c0,0.1,0.1,0.2,0.1,0.2l0,0.1l0,0.1l0.1,0v0c0,0.1-0.1,0.2-0.1,0.3l0.1,0.1l-0.1,0.1l0,0.1l0,0.1l0.1,0.1l0,0.1l0,0.1l-0.1,0.1
		l0.1,0.2c0,0.2,0,0.3,0,0.3l0,0.1h0c0,0.1,0,0.2,0.1,0.2c0,0,0,0.1-0.1,0.2l0,0h0l0,0.1c0,0.1-0.1,0.2-0.1,0.4l0.1,0.1l-0.1,0.1v0
		l0.1,0.1l-0.1,0.1v0l0,0.1c0,0,0,0.1-0.1,0.3l0.1,0.1h0c0,0.3,0,0.6,0.1,0.7l0,0.1l0,0.1l0,0.1l0,0.1l0,0v0.2l0,0.1
		c0,0,0,0.1-0.1,0.3l0,0.1l0,0.1v0l0.1,0.1l-0.1,0.1c0,0.1,0,0.1,0.1,0.2c0,0,0,0.1-0.1,0.2l0,0.1h-0.1v0l0,0.1h0l0,0.1l0,0.2l0,0.1
		l0,0l0.1,0.1l-0.1,0l0,0.1l0,0.1l0,0.1l-0.1,0.1l0,0.1l0,0l0.1,0.1v0l-0.1,0.1c0,0.2,0,0.4-0.1,0.6l0,0h0l0,0.1l0,0.2l0,0.1
		c0,0.1,0,0.2-0.1,0.3l0.1,0l-0.1,0.1l0.1,0.1l0,0.1l0,0.1l-0.1,0l0,0.3l0,0.1l0,0.1c0,0.1,0,0.2,0,0.2v0l-0.1,0.1
		c0,0.5,0,0.7,0.2,0.8c0,0.1,0.6,0.1,1.9,0.1l0.1,0l0,0h0.2c0,0,0.5,0.1,1.4,0.1l0,0c0.3,0.1,0.8,0.1,1.5,0h0
		c0.2-0.1,0.5-0.2,0.7-0.4c0.2-0.2,0.3-0.5,0.4-0.8c0-0.3-0.1-0.6-0.3-0.8c0-0.1-0.4-0.2-1.2-0.3l0,0c0,0-0.1,0-0.2-0.1l-0.1,0
		c-0.3,0-0.7,0-1-0.1c-0.1,0-0.2,0-0.3,0h-0.4c-0.1-0.1-0.2-0.1-0.4-0.2l-0.1,0l0-0.1c0-0.8-0.1-1.3-0.1-1.5l0,0l0-0.1l0-0.1l0-0.1
		l0-0.1l-0.1-0.2c0-0.1,0-0.2,0-0.3l0-0.3l0-0.1v-0.1l0-0.1l0,0V43l0-0.1h0c0-0.1,0-0.3-0.1-0.6l0-0.1c0-0.2,0-0.3,0-0.4v-0.1
		l0.1-0.3l-0.1-0.1l0-0.2l-0.1-0.1c0-0.1,0-0.3,0-0.6l0-0.1l0,0v0c0-0.3,0-0.5,0.1-0.7l0-0.1l0-0.1l0-0.1l0-0.1l0-0.1l0-0.1l0,0l0,0
		v-0.2l0-0.2l0,0c0,0,0-0.2,0-0.4l0,0l0-0.1V38l0-0.1l0.1-0.1c0,0,0-0.1-0.1-0.3c0-0.3,0-0.4,0-0.4c-0.1-0.6-0.3-0.9-0.6-0.9
		l-0.2-0.1l-0.1,0l-0.1,0C168.6,36.2,168.3,36.3,168.2,36.6z M162,40.7c0.1-0.5,0.2-0.8,0.2-0.8c0.1,0,0.2,0.2,0.2,0.7h0
		c0.1,0.4,0.1,0.7,0.1,0.8l0.1,0.1v0l-0.1,0l0.1,0.3V42l0,0.1l0,0.1v0.1l0,0c-0.1,0-0.4,0-0.8,0.1l-0.1-0.1v-0.1
		c0-0.1,0-0.2,0.1-0.3v0l0-0.1C161.8,41.4,161.9,41,162,40.7z M160.9,36.6c-0.1,0.4-0.3,0.6-0.4,0.6l-0.2,0.7l0,0l0,0.1
		c-0.2,0.3-0.3,0.8-0.5,1.5l0,0l0,0.1c0,0.1-0.1,0.4-0.3,0.9c-0.1,0.6-0.2,0.9-0.2,0.9v0l0,0.1h0c0,0.2-0.1,0.3-0.1,0.3
		c-0.1,0.7-0.2,1.1-0.3,1.1l0,0.1c-0.1,0.6-0.2,0.9-0.2,1.1l0,0.1c0,0.2-0.1,0.3-0.1,0.4l0,0.1c-0.1,0.5-0.2,0.9-0.2,1l0,0.1
		c0,0,0,0.1-0.1,0.2l0,0.1h0c-0.1,0.5-0.1,0.7-0.2,0.8l0,0.1c0,0.1,0,0.2-0.1,0.2l0,0.1c0,0.1,0,0.4-0.1,0.8c0,0.2,0,0.3,0.1,0.3
		c0.1,0.3,0.4,0.5,1,0.5c0.7,0,1-0.1,1-0.1c0.1-0.1,0.2-0.3,0.3-0.5c0.1-0.2,0.2-0.6,0.2-1.4l0,0c0.1-0.2,0.1-0.3,0.1-0.3l0-0.1
		l0.1-0.1l0-0.1c0.1-0.1,0.1-0.4,0.2-0.7l0,0l0.1-0.1c0-0.3,0.3-0.4,1-0.4h0.2c0.3,0,0.5,0.1,0.6,0.1c0.1,0,0.2,0.7,0.4,2l0,0
		c0,0,0,0.2,0.1,0.4c0,0.6,0.1,1,0.4,1c0,0.1,0.4,0.2,1.2,0.2c0.4,0,0.7-0.2,0.9-0.7c0,0,0-0.1,0-0.2c-0.2-1.2-0.3-2-0.3-2.2l0-0.1
		h0l-0.1-0.8l0-0.1l0-0.1l0,0l-0.1-0.2v-0.2c0-0.2,0-0.3-0.1-0.4c0-0.4-0.1-0.8-0.3-1.2c-0.1-0.9-0.2-1.6-0.4-2.1l0-0.1
		c-0.1-0.2-0.1-0.3-0.1-0.3c-0.1-0.7-0.2-1.2-0.3-1.3h0l-0.1-0.5l0,0c0-0.3-0.1-0.6-0.3-1c-0.2-0.4-0.4-0.7-0.8-0.8
		c0-0.1-0.4-0.1-1-0.1l-0.2,0l-0.1,0C161.3,36.3,161,36.4,160.9,36.6z M152.2,48.7L152.2,48.7l0.5,0l0,0l0,0
		c0.8,0.1,1.3-0.2,1.3-0.9l0.4-2.1v-0.4c0.1-0.5,0.2-1.1,0.3-1.7l0.4-2.4l0-0.1l0.1-0.2v-0.3c0.1-0.1,0.1-0.2,0.1-0.3l0,0l0.2-1
		l0-0.1c0.1-0.1,0.1-0.3,0.1-0.7l0.4-1.7l0.1,0v-0.3c0-0.2-0.1-0.3-0.4-0.3c-0.1,0-0.4,0-0.8,0h0c-0.2,0-0.4,0-0.4,0.1
		c0,0-0.2,0-0.4-0.1c-0.3,0-0.5,0.2-0.6,0.6c-0.1,0.4-0.2,1-0.4,1.6c0,0.2-0.1,0.4-0.1,0.6c0,0-0.1,0.4-0.2,1.2s-0.2,1.3-0.2,1.6
		l0,0.1h0l-0.1,0.1l0,0.1c-0.1,0.3-0.2,1.1-0.4,2.3l-0.1,0.1L152.2,48.7L152.2,48.7z M150.1,36.7l0.1,0.1h0L150.1,36.7L150.1,36.7
		L150.1,36.7z M152.1,48.7l0-4.3l-0.1-0.1c-0.2-1.2-0.3-2-0.4-2.3l0-0.1l-0.1-0.1h0l0-0.1c0-0.3-0.1-0.8-0.2-1.6s-0.2-1.2-0.2-1.2
		c-0.1-0.2-0.1-0.4-0.1-0.6c-0.1-0.7-0.3-1.2-0.4-1.6c-0.1-0.4-0.4-0.6-0.6-0.6c-0.2,0-0.4,0-0.4,0.1c-0.1,0-0.2-0.1-0.4-0.1h0
		c-0.4,0-0.7,0-0.8,0c-0.3,0-0.4,0.1-0.4,0.3v0.3l0.1,0l0.4,1.7c0,0.4,0.1,0.6,0.1,0.7l0,0.1l0.2,1l0,0c0,0.1,0,0.2,0.1,0.3v0.3
		l0.1,0.2l0,0.1l0.4,2.4c0.1,0.6,0.2,1.2,0.3,1.7v0.4l0.4,2.1c0.1,0.7,0.5,1,1.3,0.9l0,0l0,0h0.4l0.1,0v0H152.1z M146.4,45.8l0,0.1
		h0L146.4,45.8L146.4,45.8z M144.2,36.5c-0.1,0.1-0.1,0.3-0.1,0.4l0,0c0,0,0,0.2,0,0.4l0,0.4c0,0.1,0,0.2,0,0.3h0.1v0.1h-0.1v0
		c0,0.2,0,0.4,0,0.8l0,0.1c0,0,0,0.2-0.1,0.5c0,0.1,0.1,0.1,0.1,0.1c0,0-0.1,0.2-0.1,0.7l0,0.1c0,0,0,0.1,0,0.2l0,0.1l0,0.2h-0.1V41
		l0,0.1l0,0.1l0,0.1l0,0.2l0,0.1l0,1.1l0.1,0.1l-0.1,0.1v0.1l0,0.1c0,0,0,0.1-0.1,0.3c0,0.1,0,0.1,0,0.2l0,0.2l0,0.1
		c0,0.3-0.1,0.4-0.2,0.4c0,0.1,0.1,0.2,0.1,0.3l0,0.1l0,0.1c0,0.1,0,0.2,0,0.2l0,0.1l0,0.1v0.1c0,0.1,0,0.2,0,0.3l0,0.2
		c0,0.2,0.1,0.3,0.1,0.4l0,0.1l0,0.1l0,0.1v0.1l0,0.1c0,0,0,0,0,0.1c0,0.1,0,0.2,0,0.3c0,0.1,0,0.2,0,0.3l0,0.1c0,0.1,0,0.2,0,0.2
		l0,0.1h0c0,0.5,0,0.9,0.2,1.1l0,0.1c0,0,0.1,0,0.3,0s0.3,0,0.4,0l0.3,0l0.1,0l0.1-0.1h0v0.1c0.1,0,0.2,0,0.3,0c0.1,0,0.3,0,0.5,0
		l0,0l0-0.1h0c0.1,0,0.1-0.1,0.2-0.3l0-0.1c0,0,0-0.3,0-0.9l0-0.1c0-0.1,0-0.2,0.1-0.4l0,0c0-0.1,0-0.3,0-0.5l-0.1,0v-0.1l0.1,0
		l0-0.6l0-0.1l0.1-0.1l0-0.1c0,0,0-0.3,0-0.7l0-0.3l0-0.1l0-0.1l0-0.3l0-0.1l0,0l0,0l0-0.1l0-0.2l0-0.1c0,0,0-0.1,0-0.3l0,0h0l0-0.1
		l0-0.1l0-0.1l0-0.1v0l0-0.1h0l0-0.1l0-0.1c0-0.1,0-0.2,0-0.3l0-0.1l0-0.3l0,0l0,0l0-0.2l0-0.1h0l0-0.1l0-0.1l0-0.3l-0.1-0.1
		c0.1,0,0.1-0.4,0-1.3l0-0.1l0,0l0-0.1l0-0.1h0c0-0.5,0-0.8-0.1-0.9l0-0.1c0,0,0.1-0.1,0-0.4l0-0.2c0-0.3-0.1-0.6-0.3-0.8l-0.4-0.2
		c-0.3,0-0.5,0-0.8,0h0C144.5,36.2,144.3,36.3,144.2,36.5z M138.4,48.7L138.4,48.7l0.5,0l0,0l0,0c0.8,0.1,1.3-0.2,1.3-0.9l0.4-2.1
		v-0.4c0.1-0.5,0.2-1.1,0.3-1.7l0.4-2.4l0-0.1l0.1-0.2v-0.3c0.1-0.1,0.1-0.2,0.1-0.3l0,0l0.2-1l0-0.1c0.1-0.1,0.1-0.3,0.1-0.7
		l0.4-1.7l0.1,0v-0.3c0-0.2-0.1-0.3-0.4-0.3c-0.1,0-0.4,0-0.8,0h0c-0.2,0-0.4,0-0.4,0.1c0,0-0.2,0-0.4-0.1c-0.3,0-0.5,0.2-0.6,0.6
		c-0.1,0.4-0.2,1-0.4,1.6c0,0.2-0.1,0.4-0.1,0.6c0,0-0.1,0.4-0.2,1.2s-0.2,1.3-0.2,1.6l0,0.1h0l-0.1,0.1l0,0.1
		c-0.1,0.3-0.2,1.1-0.4,2.3l-0.1,0.1L138.4,48.7L138.4,48.7z M136.3,36.7l0.1,0.1h0L136.3,36.7L136.3,36.7L136.3,36.7z M138.3,48.7
		l0-4.3l-0.1-0.1c-0.2-1.2-0.3-2-0.4-2.3l0-0.1l-0.1-0.1h0l0-0.1c0-0.3-0.1-0.8-0.2-1.6s-0.2-1.2-0.2-1.2c-0.1-0.2-0.1-0.4-0.1-0.6
		c-0.1-0.7-0.3-1.2-0.4-1.6c-0.1-0.4-0.4-0.6-0.6-0.6c-0.2,0-0.4,0-0.4,0.1c-0.1,0-0.2-0.1-0.4-0.1h0c-0.4,0-0.7,0-0.8,0
		c-0.3,0-0.4,0.1-0.4,0.3v0.3l0.1,0l0.4,1.7c0,0.4,0.1,0.6,0.1,0.7l0,0.1l0.2,1l0,0c0,0.1,0,0.2,0.1,0.3v0.3l0.1,0.2l0,0.1l0.4,2.4
		c0.1,0.6,0.2,1.2,0.3,1.7v0.4l0.4,2.1c0.1,0.7,0.5,1,1.3,0.9l0,0l0,0h0.4l0.1,0v0H138.3z M128.3,38.6L128.3,38.6l0.2,0l0,0v0l0.2,0
		h0.2c0.4,0,0.7,0.1,0.9,0.4c0,0.2,0,0.4,0.1,0.4v0.1l0.1,0.4l0,0l0.1,0.2c-0.1,0-0.1,0.1-0.1,0.2v0l0,0.1c0,0-0.1,0.1-0.1,0.2
		l0,0.1c-0.3,0.4-0.4,0.7-0.4,0.7c0,0.2-0.4,0.3-1.3,0.4c-0.3,0-0.4-0.3-0.4-1l0,0l-0.1-0.4h0c0-0.3-0.1-0.6-0.1-0.8v-0.1
		c-0.1-0.1-0.1-0.3-0.1-0.6l0-0.1l0.1-0.1C127.9,38.5,128.1,38.6,128.3,38.6z M127.8,43.5L127.8,43.5L127.8,43.5L127.8,43.5l0.1,0.2
		l0,0.1c0.1,0.1,0.1,0.2,0.2,0.3l0,0.1l0.1,0.3l0,0l0,0l0.1,0.2l0.1,0l0,0l0.1,0.1l0,0.1l0.1,0.3l0.1,0c-0.1,0,0.1,0.5,0.6,1.3
		l0.1,0l0,0l0.1,0.1l0.1,0l0,0c0.2,0.5,0.4,0.9,0.6,1.3l0.3,0.4c0,0.1,0.2,0.1,0.5,0.2s0.6,0,1,0l0,0c0.3,0,0.4-0.1,0.4-0.3
		c-0.1-0.4-0.2-0.7-0.5-1l-0.2-0.4c0-0.1-0.1-0.3-0.2-0.5l-0.1,0l0-0.1l0.1,0l0,0c-0.1-0.2-0.2-0.4-0.3-0.7l-0.1-0.1
		c0,0,0-0.2-0.2-0.5l-0.1-0.1c0,0,0-0.2-0.2-0.7l-0.1-0.1c0,0,0-0.1,0-0.2l0-0.1l-0.1-0.1l0.1,0l0-0.1l0-0.1l-0.1-0.1l0-0.1
		l-0.1-0.2l-0.1,0l-0.1-0.2c0.3,0,0.5-0.1,0.7-0.3l0.1,0c0.2-0.1,0.4-0.4,0.6-0.6l0-0.1c0.4-0.4,0.6-0.8,0.6-1.3l0-0.1
		c0-0.1,0-0.2,0-0.3v-0.4l-0.1-0.5l0,0l0-0.1c0-0.5-0.1-0.9-0.3-1.2c-0.2-0.4-0.4-0.6-0.4-0.6c-0.2-0.4-0.6-0.8-1.1-1.1
		c-0.6-0.1-1.1-0.3-1.2-0.4h-0.5l-0.1,0c-0.1-0.1-0.4-0.1-1-0.2l-0.2,0c-0.1,0-0.3-0.1-0.6-0.1c-0.2,0-0.6,0.1-1.1,0.3l-0.3,0.4
		l0,0.1V37l0,0.1l0.1,0c0,0.1-0.1,0.2-0.1,0.4c0,0,0.1,0.1,0.1,0.2V38l0,0.1h0c0,0.1,0,0.2,0.1,0.3l-0.1,0.1c0,0.1,0.1,0.2,0.1,0.4
		v0l-0.1,0.1c0,0,0,0.1,0.1,0.3l-0.1,0.1l0.1,0.1l0,0.2v0.1l0,0.2l0,0l0.1,0l-0.1,0.1l0,0.2l0,0.1l0,0.1l0,0.1l0,0.1l0,0.1l0.1,0.4
		l-0.1,0c0,0,0,0.1,0.1,0.3l-0.1,0.1c0.1,0.3,0.1,0.4,0.1,0.4l-0.1,0.1l0,0.2l-0.1,0.1l0.1,0.2l0.1,1.7h0l0,0.2l0,0.2l0,0.1h0
		c0,0,0,0.1,0.1,0.3l0,0.1c0,0,0,0.3,0.1,0.6l-0.1,0l0,0.2l0,0.1c0,0.1,0,0.2,0,0.3v0.2l0,0.2l0,0l0,0v0l0.1,0.1l-0.1,0.1l0,0.1
		c0,0.1,0,0.2,0,0.2l0,0.1l0,0v0l0,0.1l0,0l0,0c0,0.5,0,0.9,0,1.2c0.1,0.1,0.4,0.2,1,0.2c0.6,0,1,0,1.1-0.1c0.1-0.1,0.1-0.4,0.1-1
		l0-0.1l0-0.7c0-0.2,0-0.5,0-0.9l0-0.1l0-0.1v-0.3c0-0.2,0-0.4,0-0.7l0.1-0.2l0-0.1l0-0.2l0-0.1l0-0.1v-0.1l0-0.1h0l0-0.1l0-0.1
		l0-0.1c0,0,0-0.1,0.1-0.2L127.8,43.5L127.8,43.5z M127.1,48.1L127.1,48.1l0,0.2l-0.2,0v0l0.1-0.1H127.1z M126.9,48.2L126.9,48.2
		L126.9,48.2L126.9,48.2L126.9,48.2z M127.1,45.9V46h0L127.1,45.9L127.1,45.9z M121.2,36.2c-0.2,0-0.3,0.2-0.3,0.6l0,0.1l0,0.1
		l0,0.2v0.3l0,0.1l0,0.1V38c0,0.5,0,1.3,0.1,2.2l0,0.1l0,0l0,0.1l0,0.1l-0.1,0.6l0,0.1l0,0.1l0,0l0,0v0.2c0,0.1,0,0.7,0,1.7v0.1
		l-0.1,0.5c0,0.2,0,0.5-0.2,0.8l0,0c-0.1,0.4-0.2,0.6-0.2,0.6l0,0l0,0c-0.1,0.4-0.4,0.6-0.7,0.5c-0.3,0-0.5-0.1-0.8-0.4
		c-0.1-0.2-0.2-0.4-0.2-0.4l0-0.1l0-0.1c0-0.1,0-0.2,0-0.3v-0.1c0,0,0-0.1-0.1-0.3l0-0.1c0-0.3,0-0.5-0.1-0.5h0l-0.1-0.9v-0.7l0-0.1
		l0,0l0-0.1v-0.1l0-0.1h0c0,0,0-0.1,0-0.2c0-1.1,0-1.6-0.1-1.6l0,0v-0.2l0-0.3l0,0l0-0.2V39l0-0.1c0.1-0.2,0.1-0.4,0.1-0.7v-0.5
		l0-0.2c0,0,0-0.2,0.1-0.6c0-0.3,0-0.4,0-0.4c0-0.2,0-0.3-0.1-0.4c-0.2-0.1-0.4-0.1-0.7-0.2l-0.1,0l-0.1,0l-0.2,0h-0.4
		c-0.3,0.1-0.5,0.2-0.6,0.2c-0.1,0.1-0.1,0.2-0.2,0.3l0,1.2l0,0.1v0.1l0,0.1l0,0.7l0,0.1l0,0.1c0,0.2,0,0.4,0.1,0.7l-0.1,0.4
		l0.1,0.4l-0.1,0.1c0,0.1,0.1,0.4,0.1,0.8c0,0.1,0,0.2,0,0.2l0.1,0.3l0,0v0l0.1,0.1v0.2c0,0.9,0.1,1.6,0.1,2.2
		c0.1,0.6,0.2,1,0.2,1.4l0,0.1l0.1,0.7c0,0.5,0.4,1,1.1,1.5c0.3,0.2,0.7,0.3,1.3,0.4h0.2c0.1,0.1,0.3,0.1,0.6,0.1
		c0.1,0,0.2-0.1,0.2-0.1c0.3,0,0.5-0.1,0.5-0.2l0.1,0c0.3-0.1,0.5-0.1,0.5-0.2h0.1c0.3-0.1,0.6-0.3,0.9-0.7c0.1,0,0.2-0.3,0.4-0.8
		c0.2-0.5,0.4-1.1,0.5-1.8l0,0l0.1-0.7l0-0.2v-0.1c0,0,0-0.1,0.1-0.4v-0.6l0-0.1l0,0v-0.4l0-0.2c0-0.1,0-0.3,0.1-0.8
		c0,0,0-0.1-0.1-0.4l0-0.1v-0.1l0-0.1l0,0L123,40l0,0l-0.1-0.1c0-0.1,0-0.2,0-0.3v-0.1l0-0.1l0,0v-0.1c0-0.1,0-0.3,0-0.4
		c0-0.4-0.1-0.6-0.1-0.6L123,38l0-0.1v-0.4l0-0.1l0,0c0-0.1,0-0.2,0-0.4c0-0.1,0-0.2,0-0.3h0l0-0.1l0-0.1c0-0.2-0.1-0.3-0.1-0.3
		h-0.1l-0.1,0l0,0h-0.1l-0.1,0l0,0c-0.2,0-0.5,0-0.7,0l-0.1,0l0,0L121.2,36.2L121.2,36.2z M109.2,36.2L109.2,36.2
		c0,0-0.1,0.1-0.3,0.1l-0.2,0l-0.2,0.1c-0.1,0.1-0.1,0.2-0.2,0.2c-0.2,0.3-0.3,0.5-0.5,0.6c-0.2,0.5-0.3,1.1-0.3,1.8l0,0.1l0,0
		l0,0.1c0,0.1,0.1,0.4,0.1,0.8c0,0.2,0.1,0.5,0.2,0.8c0.1,0.3,0.4,0.7,0.8,1.2c0.5,0.4,0.7,0.6,0.7,0.6c0.4,0.3,0.6,0.5,0.6,0.5
		c0.9,0.8,1.4,1.5,1.5,1.9l0,0.3l0,0.1c0,0.1-0.2,0.4-0.6,0.8c-0.2,0.1-0.5,0.2-0.8,0.2c-0.2-0.1-0.4-0.1-0.5-0.2
		c-0.2,0-0.3-0.2-0.4-0.4l-0.2-0.4l-0.1-0.6l0-0.1c-0.1-0.2-0.1-0.3-0.1-0.3c0-0.2-0.2-0.3-0.3-0.3l-0.4-0.1l-0.3,0.1l-0.1,0
		c-0.2,0.2-0.3,0.3-0.3,0.3c-0.2,0.2-0.2,0.4-0.2,0.4l0,0.4l0,0.1l0,0.1h0l0.1,0.2l0,0l0,0l0,0.1h0c0.1,0.3,0.1,0.6,0.2,1
		c0.2,0.6,0.4,0.9,0.6,0.9c0,0.1,0.1,0.2,0.2,0.2c0,0.1,0.3,0.2,0.7,0.4c0.4,0.1,0.9,0.2,1.4,0.3l0,0l0,0l0.1,0c0.2,0,0.4,0,0.5,0
		c0.1,0,0.2,0,0.3,0c0.7-0.3,1-0.4,1-0.4c0.3-0.2,0.5-0.3,0.7-0.5c0.3-0.4,0.4-0.6,0.4-0.6c0.2-0.4,0.4-0.8,0.5-1.3l0-0.1
		c0-0.4,0-0.8-0.1-1l0,0l-0.2-0.3c0-0.3-0.2-0.7-0.6-1.1c-0.1-0.3-0.3-0.4-0.3-0.4l0-0.1c-0.1-0.1-0.2-0.2-0.2-0.3
		c-0.2-0.3-0.3-0.5-0.3-0.5c-0.8-0.6-1.3-1.1-1.6-1.4c-0.6-0.7-0.8-1.3-0.9-1.9c0-0.3,0.1-0.6,0.5-0.8c0.4-0.2,0.8-0.2,1.1,0
		c0.2,0.2,0.3,0.6,0.2,0.9c0.1,0.6,0.1,0.9,0.2,1l0.2,0.2c0.1,0.1,0.3,0.2,0.5,0.2c0.1,0,0.3,0,0.6-0.1s0.4-0.3,0.4-0.5l0.1-0.2
		c0,0,0-0.3,0-0.7s-0.1-0.7-0.1-0.9c0-0.3-0.2-0.6-0.4-0.9c-0.1-0.1-0.1-0.2-0.2-0.1c-0.2-0.2-0.4-0.3-0.6-0.3
		c-0.2-0.1-0.6-0.2-1.1-0.3l-0.1,0c-0.1,0-0.2,0-0.2,0l0,0l0,0l-0.4,0l-0.2,0l0,0l-0.1,0l-0.1,0l0,0l-0.1,0
		C109.4,36.2,109.3,36.2,109.2,36.2z"/>
</g>
<g>
	<path class="st1" d="M111.1,15.2c-3.7,2.6-7.3,5.3-11,7.9c-5.9,4.2-11.8,8.4-17.7,12.6c-0.1,0.1-0.1,0.1-0.2,0.2
		c0.2,1.8-0.4,3.1-1.9,4.2c-2.8,2-5.6,4-8.4,6c-0.2,0.1-0.4,0.3-0.6,0.4c0.9,1.1,1.3,2.3,1.3,3.7c-0.1,3.5-3.5,5.9-6.8,4.9
		c-0.6-0.2-0.8,0-1.1,0.4c-4.4,5.5-8.9,11.1-13.3,16.6c-0.8,1-1.6,1-2.3,0c-2.5-3.5-5-7-7.5-10.6c-0.6-0.9-0.5-1.4,0.4-2.1
		c6.2-4.4,12.3-8.8,18.5-13.2c0.1-0.1,0.2-0.2,0.6-0.4c-0.5-0.2-0.9-0.5-1.3-0.6c-0.6-0.2-1.2-0.2-1.8-0.3c-0.7-0.1-1.2-0.8-1.1-1.4
		c0.1-0.7,0.8-1.1,1.6-1c0.6,0.1,1.2,0.3,1.9,0.3c0.3,0,0.7-0.1,1-0.3c13.8-9.8,27.5-19.6,41.3-29.5c0.1-0.1,0.3-0.2,0.4-0.3
		c-0.6-1.2-0.6-1.7,0-2.2c0.6-0.4,1.2-0.3,2,0.7c0.6-0.4,1.1-0.8,1.7-1.2c0.8-0.6,1.4-0.4,2,0.3c0.8,1.1,1.6,2.3,2.5,3.4
		C111.1,14.4,111.1,14.8,111.1,15.2z M50.2,69.7c0.2-0.2,0.4-0.4,0.5-0.6c3.8-4.7,7.6-9.5,11.4-14.2c1.1-1.3,1.8-2.6,1.5-4.4
		c0-0.3,0-0.6-0.2-0.8c-0.4-0.6-0.8-1.2-1.3-1.8c-6.1,4.3-12.1,8.6-18.2,13C46.1,64,48.1,66.8,50.2,69.7z M78,33.7
		c-5.1,3.7-10.2,7.3-15.3,10.9c0.8,1.2,1.6,2.3,2.4,3.4c0.2-0.1,0.4-0.2,0.5-0.3c2-1.4,4-2.9,6-4.3c2.5-1.8,5-3.5,7.4-5.3
		c0.8-0.6,1-1.3,0.5-2.1C79.1,35.2,78.5,34.5,78,33.7z M81,33.8c9.1-6.5,18.2-13,27.3-19.5c-0.4-0.5-0.7-1-1.1-1.5
		c-9.1,6.5-18.2,13-27.3,19.5C80.3,32.8,80.6,33.3,81,33.8z M66.1,51.3c0,0.4,0,0.8,0,1.1c0,0.2,0.2,0.4,0.4,0.5
		c1.2,0.4,2.7-0.3,3.3-1.4c0.7-1.2,0.4-2.8-0.6-3.5c-0.5,0.4-1,0.7-1.6,1.1c0.7,0.4,1,1,0.7,1.7C67.9,51.9,67,51.5,66.1,51.3z"/>
</g>
</svg>
