<?xml version="1.0" encoding="utf-8"?>
<!-- Generator: Adobe Illustrator 25.2.1, SVG Export Plug-In . SVG Version: 6.00 Build 0)  -->
<svg version="1.1" id="Layer_1" xmlns="http://www.w3.org/2000/svg" xmlns:xlink="http://www.w3.org/1999/xlink" x="0px" y="0px"
	 viewBox="0 0 81.1 47" style="enable-background:new 0 0 81.1 47;" xml:space="preserve">
<style type="text/css">
	.st0{display:none;opacity:0.3;enable-background:new    ;}
	.st1{display:none;fill:#EC2024;}
	.st2{fill:#FFFFFD;}
	.st3{fill:#FFFFFF;}
</style>
<g>
	<rect x="-16.9" class="st0" width="98" height="47"/>
	<g>
		<path class="st1" d="M48.8,36.6C48.8,36.7,48.8,36.7,48.8,36.6C49.3,37,49.3,36.9,48.8,36.6 M42.2,31L42.2,31
			C42.7,31.3,42.6,31.3,42.2,31 M40.5,33.2C40.5,33.3,40.5,33.3,40.5,33.2C40.9,33.6,40.9,33.6,40.5,33.2 M41.5,31.1
			C41.5,31.1,41.5,31.2,41.5,31.1C42,31.3,42,31.3,41.5,31.1 M49.2,34.2C49.7,34.4,49.7,34.4,49.2,34.2
			C49.2,34.1,49.2,34.1,49.2,34.2 M49.4,33.2c0,0.2,0,0.3,0.1,0.2l0.3-0.1C50.1,32.6,50,32.6,49.4,33.2 M47.6,35v0.2
			c0.6-0.3,0.5-0.5,0-0.5C47.6,34.9,47.6,34.9,47.6,35 M47.1,34.7C47.5,35.2,47.5,35.1,47.1,34.7L47.1,34.7 M67.9,41.2L67.9,41.2
			L67.9,41.2C67.9,41.3,67.9,41.2,67.9,41.2L67.9,41.2 M53.3,36.4c0.1-0.5,0-0.8-0.4-0.8c0,0.2,0,0.4,0.1,0.6h0.1
			c0,1.1,0.1,1.2,0.1,0.4C53.2,36.5,53.2,36.5,53.3,36.4L53.3,36.4 M53.7,34.1C54.1,34.4,54.1,34.3,53.7,34.1
			C53.6,34,53.6,34.1,53.7,34.1 M52.7,34.2c0.6,0,0.6-0.1-0.2-0.5C52.5,34,52.6,34.2,52.7,34.2 M50.5,31c0,0.2,0,0.3,0.1,0.3
			C51.2,31.4,51.2,31.3,50.5,31 M64.4,36.1C64.4,36.2,64.4,36.2,64.4,36.1C64.9,36.5,64.8,36.5,64.4,36.1 M64.8,37.1
			c0.1,0.3,0.3,0.5,0.5,0.7l0.1,0.1C66,37.5,65.8,37.3,64.8,37.1 M65.1,38.7L65.1,38.7C65.7,39.1,65.7,39,65.1,38.7 M49,9.9
			C48.9,9.9,48.9,9.9,49,9.9c-0.4,0.6-0.8,1.1-1.3,1.5c0,0.1,0,0.1,0,0.1c-0.1,0-0.1,0-0.1,0c-0.1,0.1-0.2,0.2-0.3,0.4
			c0,0.1,0,0.1,0,0.1c0,0.1,0,0.1,0,0.1c-0.2,0.1-0.3,0.2-0.4,0.3c0,0.6,0.2,0.5,0.5-0.2v-0.1c0.1-0.2,0.2-0.3,0.3-0.4v-0.1
			c0.1,0,0.1,0,0.1,0C48.3,11.1,48.7,10.5,49,9.9 M49,9.7c0.2,0.2,0.5,0.1,1-0.4c0.1-0.1,0.1-0.2,0-0.3C49.6,8.6,49.3,8.9,49,9.7
			 M55.1,5c-0.1,0.3,0,0.5,0.1,0.6C55.8,5.4,55.8,5.2,55.1,5 M42.4,27.8C42.9,27.6,42.9,27.6,42.4,27.8L42.4,27.8 M41.7,26.5v0.3
			C42.3,25.9,42.3,25.8,41.7,26.5 M40.2,24.4C40.3,24.4,40.3,24.4,40.2,24.4c0.7-1.1,0.6-1.2-0.1-0.1L40.2,24.4c-0.2,0-0.2,0-0.2,0
			c-0.1,0.2-0.2,0.3-0.3,0.4c0.2,0.2,0.4,0.1,0.5-0.3V24.4 M41.5,23.5L41,24c0,0.2,0.2,0.4,0.4,0.4c0.1,0,0.1,0,0.1,0v0.1
			c0.5,0.1,0.5,0.1,0-0.2C41.6,23.9,41.6,23.7,41.5,23.5 M34.1,30.4L34.1,30.4c-0.4,0.1-0.7,0.2-0.9,0.4c0.4,0.3,0.7,0.2,1-0.3
			L34.1,30.4l0.3-0.2c0.5-0.3,0.4-0.3-0.4,0.1C34.1,30.3,34.1,30.3,34.1,30.4 M30.7,26.9v0.2C31.1,27.1,31.1,27.1,30.7,26.9
			 M35,23.7L35,23.7C35.7,23.5,35.7,23.5,35,23.7 M33.3,25C34.1,24.7,34.1,24.7,33.3,25L33.3,25 M31.3,19.7c0.5,0.6,0.5,0.5,0-0.1
			C31.3,19.6,31.3,19.6,31.3,19.7 M35.1,15.4L35.1,15.4C36,15.1,36,15.1,35.1,15.4 M42.1,15.4L42.1,15.4
			C42.5,15.3,42.5,15.2,42.1,15.4 M36.6,5.1v0.2c0.4,0,0.4-0.2,0-0.6C36.6,4.9,36.6,5,36.6,5.1 M31.3,4C31.3,4.1,31.3,4.1,31.3,4
			C31.9,4.5,31.8,4.4,31.3,4 M57.4,37.3c0-0.3-0.2-0.6-0.8-0.7c0,0.3,0,0.5,0.1,0.7s0.2,0.3,0.4,0.4c0.1,0.1,0.1,0.1,0.2,0
			C57.3,37.6,57.4,37.5,57.4,37.3 M54.7,30.6c0.1,0,0.1,0.1,0.2,0.1c0.5,0.4,0.5,0.4,0-0.1C54.8,30.6,54.7,30.6,54.7,30.6
			C54.6,30.5,54.7,30.6,54.7,30.6 M58,14.7c0.2,0,0.3,0,0.4,0h0.1C58.3,14.7,58.1,14.6,58,14.7L58,14.7L58,14.7
			C57.9,14.7,57.9,14.7,58,14.7 M51.9,25.3C52.3,25.6,52.3,25.5,51.9,25.3C51.9,25.2,51.9,25.3,51.9,25.3 M51.3,25.1v0.1
			c0.2,0.8,0.6,1.5,1.1,2.1v-0.1C52.1,26.4,51.8,25.7,51.3,25.1 M58.5,11.8L58.5,11.8c-0.3,0.2-0.6,0.3-0.8,0.4
			c0.1,0.1,0.4,0.1,0.8,0h0.1c0.4,0.1,0.5-0.1,0.5-0.4c0,0,0,0-0.1,0c0.1-0.1,0.2-0.2,0.4-0.2c0.1,0,0.2,0,0.2,0
			c0.2,0,0.2-0.1,0.1-0.2c0,0,0,0-0.1-0.1l0,0c0,0,0,0-0.1,0c-0.2-0.1-0.5,0.1-1,0.4C58.5,11.8,58.5,11.8,58.5,11.8
			C58.6,11.8,58.6,11.8,58.5,11.8 M56.4,32.4L56.4,32.4C57.2,33.2,57.2,33.1,56.4,32.4 M55.9,24.9L55.9,24.9
			C56.8,25.3,56.8,25.3,55.9,24.9 M57.1,22.6c0.1-0.4,0-0.7-0.3-0.8c-0.5-0.3-0.8-0.1-0.9,0.3c-0.1,0.6-0.4,0.8-0.8,0.7v0.1
			C56,23.6,56.7,23.5,57.1,22.6 M58,22.2c0.7,0,0.7-0.1,0-0.2V22.2 M58.3,20C58.2,20,58.3,20.1,58.3,20C58.7,20.3,58.7,20.3,58.3,20
			 M54.7,21v0.2C55.2,21,55.2,20.9,54.7,21 M56.4,12.9L56.4,12.9C57.6,12.5,57.6,12.5,56.4,12.9 M55.6,11.8
			C55.6,11.9,55.6,11.9,55.6,11.8C56.1,12.2,56,12.2,55.6,11.8 M54.2,14.7L54.2,14.7l0.1,0.1c0,0,0,0.1-0.1,0.1c0,0,0,0-0.1,0
			c0.1,1.2,0.6,1.5,1.5,0.7c0.1-0.1,0.1-0.2,0.1-0.4c-0.1-0.4-0.3-0.6-0.8-0.7c0-0.1,0-0.1-0.1-0.1c0-0.1-0.1-0.1-0.1-0.1
			c0-0.1,0-0.1,0-0.1c0.2-0.1,0.3-0.2,0.5-0.3c0,0,0,0,0-0.1c0.3-0.1,0.6-0.3,0.7-0.5l0.1-0.2c-0.3-0.1-0.6,0-0.9,0.4
			c0,0.1,0,0.1,0,0.1c-0.1,0-0.1,0-0.1,0c-0.5,0.3-1,0.7-1.5,1.1C53.7,15.1,53.9,15.1,54.2,14.7 M53.4,10.6L53.4,10.6
			C54.4,10.7,54.5,10.6,53.4,10.6 M55.2,9.4c0-0.1,0-0.1,0-0.1c-0.2-1.7-0.9-2-2-0.9v0.1C53.3,9.7,54,10,55.2,9.4 M54.6,10.3
			C55.3,10.3,55.2,10.3,54.6,10.3L54.6,10.3 M39.8,26.5c0,0.2,0,0.4,0.1,0.5c0.1,0.4,0.3,0.5,0.6,0.2c0.2-0.2,0.3-0.4,0.3-0.5
			c0.1-0.3,0-0.4-0.4-0.3C40.3,26.4,40.1,26.4,39.8,26.5 M39.6,25.4l0.1-0.1c-0.2,0.1-0.5,0.3-0.9,0.7c-0.1,0.1-0.2,0.2-0.3,0.3
			c0,0.1,0,0.1,0,0.1c0.2,0.1,0.5,0,0.7-0.3C39.3,25.8,39.4,25.6,39.6,25.4 M41,14.9c0,0.1,0,0.2,0,0.2c0.1,0,0.2,0,0.3,0
			c0.5,0.1,0.5,0-0.1-0.1C41.2,14.9,41.1,14.9,41,14.9 M35.2,10.1c0-0.1,0-0.1,0-0.2c-0.1-0.5-0.4-0.9-0.8-1
			C34.5,9.5,34.7,9.9,35.2,10.1c-0.1,0.1,0,0.1,0,0.1c0.2,0.4,0.4,0.8,0.5,1.2v0.1h-0.1c-0.8-1.3-2.1-2.1-4-2.3
			c0,0.6,0.2,1.1,0.5,1.3l0.1,0.1h0.1c0.3-0.2,0.7-0.4,1.1-0.3c0.4,0,0.7,0.2,1.1,0.5v0.1c0.2,0.4,0.4,0.8,0.7,1.1v0.1
			c0.2,0.2,0.3,0.4,0.5,0.7c0,0,0,0,0.1,0c0,0.1,0,0.3,0.1,0.4c0,0,0,0,0.1,0c0,0.3,0,0.5,0.2,0.6h0.1c0,0,0,0,0,0.1s0,0.1,0,0.1
			v0.1l0,0c0,0.1-0.1,0.2-0.3,0.1v-0.1c-0.3,0-0.6-0.1-0.8-0.3c0,0,0-0.1,0-0.2c0-0.2-0.2-0.3-0.5-0.2c-0.1,0.4,0,0.6,0.3,0.5
			c0.1,0,0.1,0,0.1,0c0.2,0.1,0.3,0.2,0.3,0.4c0,0,0,0,0.1,0c0.2,0.4,0.4,0.7,0.7,0.9h0.1c0.1,0.1,0.2,0.3,0.4,0.4
			c0.1,0.1,0.3,0.1,0.4,0.2h0.1c0.3,0.6,0.8,1.1,1.5,1.4c0.1,0,0.2,0.1,0.2,0.1s0,0,0,0.1c-0.1,0.7,0,1.3,0.3,1.7c0,0,0,0.1,0.1,0.1
			c-0.5,0.9-0.4,1.7,0.2,2.3c0,0,0.1,0.1,0,0.1s-0.1,0-0.1,0c-0.3-0.4-0.6-0.3-0.8,0.3c0-0.1,0-0.1,0-0.1c-0.1-0.3-0.2-0.3-0.4-0.1
			c-0.1,0.2,0,0.4,0.1,0.4h0.1h0.1c0.5,0.3,0.3,0.6-0.5,0.9v0.1c-0.2,0-0.3,0-0.3,0c-0.2-1-0.7-1.3-1.6-0.7c0.2,1.5,0.9,1.8,2,0.9
			v-0.1c0.6-0.2,1-0.5,1.5-0.8c0,0,0.1,0,0.1-0.1h0.1c0.2,0.2,0.4,0.4,0.8,0.4c0.1,0,0.1,0,0.1,0h0.1c0,0.1,0,0.2-0.2,0.3
			c0.1,0.3,0.3,0.2,0.6-0.1c0,0,0,0,0.1,0c0.4,0.5,0.8,0.8,1.1,0.9c0.1,0,0.1,0,0.1,0c0,0.7,0.1,1,0.3,0.9c0.1,0,0.1,0,0.1,0v0.1
			c0,0.4-0.1,0.8-0.3,1.1c0,0.1,0,0.1,0,0.1c0,0.1,0,0.1,0,0.1c0,0.2,0,0.3-0.2,0.3c0.1,0.8,0.2,0.7,0.3-0.3V26
			c0.4-0.2,0.6,0.3,0.5,1.5c0,0,0,0.1,0.1,0.1c0.1,0.1,0.2,0.1,0.2,0c0.1,0,0.1,0,0.1,0c0.1,0,0.1,0,0.1,0c0.2,0.2,0.3,0.2,0.4-0.1
			v-0.1h0.1c0.3,0.7,0.3,1.3-0.2,1.7c0,0.1,0,0.1,0,0.1c-0.1,0-0.1,0-0.1,0c-0.3,0.2-0.8,0.1-1.5-0.3c0,0.2,0.1,0.5,0.2,0.6h0.1v0.1
			c0,0,0,0-0.1,0c0.1,0.5,0.2,0.5,0.4,0.1v-0.1c0.1,0.4,0.3,0.5,0.7,0.3c0.4-0.3,0.9-0.4,1.6-0.4c0.6-0.2,1-0.2,1.4,0.1v-0.1
			c0-0.3-0.2-0.5-0.6-0.5c0-0.1,0-0.1,0-0.1c0-0.1-0.1-0.1-0.2-0.2v-0.1c-0.1-0.2-0.2-0.4-0.4-0.6v-0.1c0-0.2,0-0.4,0-0.7
			c0.1,0,0.2-0.1,0.2-0.2v-0.1c0.6-0.4,1.2-0.2,1.9,0.6c0.5,0.6,1,1.2,1.6,1.7c0.1,0.5,0.1,0.9,0.1,1.3v0.1h-0.1
			c0,0.3-0.1,0.5-0.3,0.5c0.3,0.9,0.5,0.9,0.4-0.3c0-0.1,0-0.1,0-0.1c0.3-0.5,0.5-1.1,0.3-1.9h0.1c0.3,0.4,0.6,0.7,0.8,1v-0.1
			c0.2-0.2,0.3-0.2,0.4,0v0.1h-0.1c0,0.3,0,0.5,0.2,0.6c0,0,0.1,0,0.1,0.1c0.1,0.2,0.2,0.4,0.2,0.7c0,0.1,0,0.1,0,0.2
			c0.2,0.8,0.4,1.2,0.8,1.4v-0.1c0.3-0.7,0.1-1.1-0.5-1.3c-0.1,0-0.1,0-0.1,0c0-0.1,0-0.1,0-0.2c-0.1-0.2-0.1-0.4-0.1-0.7
			c0-0.1,0-0.1,0-0.1c0.2-0.2,0.2-0.4,0-0.6c0-0.1,0-0.1,0-0.1c0-0.1,0-0.1,0-0.1c0.1,0,0.1,0,0.1,0c0.5,0.2,0.8,0.5,0.8,0.8
			c0,0.2,0.1,0.4,0.3,0.6c0.9,0.7,1.7,1.5,2.2,2.4c0.1,0,0.2,0,0.3,0c0.6,0,1.2,0.2,1.8,0.6c0,0,0,0,0.1,0c0.3,0.8,0.7,1.6,1.2,2.3
			c0.1,0.2,0.3,0.4,0.4,0.6c0.1,0.1,0.2,0.2,0.3,0.3c0.3-0.1,0.4-0.4,0.4-0.9c0,0,0,0,0-0.1c0-0.2,0-0.4,0-0.6
			c-0.4-0.9-0.8-1.5-1.4-2l0,0c-0.2,0-0.5,0-0.8-0.2v-0.1c0-0.2-0.2-0.3-0.4-0.3v-0.1c0,0-0.1,0-0.1-0.1v-0.1
			c-0.3-0.4-0.6-0.8-0.9-1.2c0-0.1,0-0.1,0-0.2c-0.2-0.3-0.4-0.5-0.8-0.7v-0.1l0,0c-0.8-0.5-1.4-1.1-2-1.8c0-0.1,0-0.1,0-0.1
			c-1.1-1.6-2.1-3.2-3.3-4.7c0.7-0.2,1.2-0.6,1.6-1v-0.1c0.8-0.3,1.4-0.7,1.8-1.3v-0.1l0.1-0.1h0.1v0.1c0.2,0,0.3,0.1,0.4,0.2
			c0.4,0.2,0.7,0.5,1,0.9c0.1-0.1,0.1-0.1,0.1-0.1c-0.1-0.4-0.5-0.8-1.2-1.1c-0.1,0-0.2-0.1-0.4-0.1c0-0.1,0-0.1,0-0.1
			c0.3-0.4,0.3-0.6,0-0.7v-0.1v-0.1c0.2-0.2,0.2-0.4-0.2-0.7v-0.1c-0.2-0.5-0.5-1-0.7-1.5c0.3,0,0.6,0,0.8,0.1
			c0.4,0.1,0.7,0.2,1.1,0.3h0.1c0.5-0.6,0.3-1.2-0.5-1.6c0,0,0,0,0-0.1s0-0.1,0-0.1c0.4-0.2,0.5-0.3,0.3-0.3c-0.1,0-0.1,0-0.1,0
			c0-0.1,0-0.1,0-0.1c-0.1-0.3-0.2-0.3-0.4,0v0.1v0.1c-0.1,0-0.1,0-0.1,0c-0.2,0-0.3-0.1-0.5-0.1C52.3,16.1,51.7,16,51,16
			c0.3-0.2,0.6-0.5,0.9-0.8v-0.1H52c0.2-0.1,0.5-0.2,0.7-0.3c0.3-0.2,0.6-0.4,0.8-0.6c-0.1,0-0.1,0-0.2,0c-0.2,0.1-0.5,0.2-0.7,0.3
			c-0.3,0.2-0.7,0.3-1,0.5v0.1c-0.1,0-0.1,0-0.1,0c-0.2,0.2-0.4,0.4-0.7,0.5v0.1c-0.4,0.4-0.6,0.3-0.7-0.1l0,0c0-0.5-0.1-0.8-0.4-1
			c1-0.7,1.5-1.8,1.4-3.1v-0.1c0.1,0,0.1,0,0.1,0c0.7-0.8,0.7-0.9-0.1-0.2c0,0.1,0,0.1,0,0.1H51h-0.1c-0.3,0-0.5-0.1-0.5-0.4v-0.1
			c-0.1-0.2-0.2-0.4-0.1-0.7c0.4-0.5,0.8-1,1.1-1.6l0,0c0,0,0,0,0.1,0c0-0.6,0.1-1,0.4-1.3c0,0,0,0,0.1,0c0.1,0.6,0.1,0.5,0.2,0.3
			c0-0.1,0-0.2,0-0.3c0-0.1,0-0.1,0-0.1c0.5-0.5,0.9-1.1,1.1-1.9V5.1h0.1c0.1-0.5,0.1-0.8-0.1-1.1c-0.4,0.1-0.7,0.4-0.8,0.9
			c-0.1,0.3-0.2,0.7-0.4,1.1c-0.4,0.7-0.7,1.3-0.9,2.1c-0.4,1.1-0.8,1.8-1.4,2.3h-0.1c-0.6,1.3-1.4,2.4-2.4,3.4c0,0.1,0,0.1,0,0.1
			c0,0.9-0.3,1.1-0.8,0.7h-0.1c-0.1-1-0.6-1.8-1.6-2.3c-0.1,0-0.1,0-0.1,0c-0.3,0.5-0.1,0.8,0.5,0.9c-0.4,0.3-0.7,0.7-0.8,1.3
			c-0.1,0.4-0.2,0.5-0.3,0.5c-0.4,0-0.9,0-1.3-0.1V15h-0.1c-0.1-0.2-0.4-0.3-0.6-0.4c0.1,0.2,0.3,0.4,0.5,0.5h0.1
			c0,0.2,0.1,0.3,0.2,0.4c0.1,0.1,0.2,0.2,0.2,0.3c-0.1,0.9-0.8,1.5-2.1,1.8c0-0.1,0-0.1,0-0.1c0.1-0.4,0.1-0.8,0-1.2
			c-0.2-0.4-0.5-0.8-1.1-1.1c0-0.1,0-0.1,0-0.1c-0.2-0.5-0.4-1-0.5-1.5c0,0,0-0.1,0-0.2c-0.1-0.3-0.2-0.6-0.4-0.9v-0.1
			c0-0.4-0.2-0.7-0.8-0.8v-0.1c-0.2-0.1-0.4-0.2-0.6-0.3c0,0.4,0.2,0.6,0.5,0.6h0.1c0.2,0.2,0.4,0.5,0.6,0.7v0.1
			c0,0.5,0.2,0.9,0.3,1.3c0,0,0,0,0.1,0c0,0.5,0.2,1,0.4,1.3c0,0,0,0.1,0.1,0.1v0.1c0,0.3-0.2,0.4-0.5,0.3c-0.1,0-0.1,0-0.1,0
			c-0.2-0.2-0.4-0.3-0.5-0.5c0-0.1,0-0.1-0.1-0.1c-0.2-0.2-0.3-0.5-0.5-0.7c0-0.1,0-0.1,0-0.1c-0.2-0.1-0.3-0.3-0.3-0.6v-0.1
			c-0.2-0.4-0.5-0.8-0.8-1.1v-0.1c0-0.1-0.1-0.2-0.3-0.3V12c-0.1-0.2-0.3-0.4-0.5-0.6v-0.1C35.8,10.9,35.5,10.5,35.2,10.1 M39,33.5
			C39.3,33.9,39.3,33.9,39,33.5L39,33.5 M38.9,28c0.1,0.3,0.2,0.2,0.4-0.3S39.4,27.3,38.9,28 M39.9,28.3c0,0.1,0,0.1,0,0.1
			C40.3,28.6,40.3,28.6,39.9,28.3 M39.2,31.1L39.2,31.1C39.8,30.7,39.8,30.7,39.2,31.1 M40.2,30.6L40.2,30.6
			C40.6,30.9,40.6,30.9,40.2,30.6 M36.8,31.6L36.8,31.6C37.3,31.9,37.3,31.9,36.8,31.6 M36.4,29.1C36.8,29.3,36.8,29.3,36.4,29.1
			L36.4,29.1 M37.5,27L37.5,27C38.2,26.8,38.2,26.8,37.5,27 M27.9,11.5l0.1,0.2C28.6,11.6,28.6,11.6,27.9,11.5 M30.7,9.5
			c0,0.3,0.1,0.4,0.4,0.4C31.8,9.9,31.7,9.7,30.7,9.5 M30.2,10.4c0.6,0,0.5-0.1-0.3-0.4C30,10.3,30.1,10.4,30.2,10.4 M30.2,9.4
			c0.7-0.1,0.6-0.2-0.3-0.4C29.9,9.3,30,9.4,30.2,9.4 M40.3,13C40.3,13,40.3,13.1,40.3,13C41.4,13.8,41.4,13.7,40.3,13 M35.9,7.4
			L35.9,7.4C36.4,7.8,36.4,7.8,35.9,7.4z"/>
	</g>
</g>
<g>
	<path class="st2" d="M78.5,16.3l0-0.1l-0.2,0c-0.1,0-0.2,0-0.3-0.1c-0.3-0.1-0.6-0.1-0.9-0.1c-1.2,0.2-2.4,0-3.6-0.2
		c-0.3,0-0.6-0.1-0.8-0.1c0,0-0.8-0.1-1,0.2c-0.2,0.2-0.3,0.8,0,1c0.3,0.3,0.7,0.6,1.2,0.8c0.3,0.1,0.6,0.2,1,0.3
		c0.1,0,0.2,0,0.4,0.1c0,0.1,0,0.3,0,0.4c0,0.4-0.1,0.8-0.1,1.1c0,0.4,0.1,0.7,0.1,1.1c0,0.2,0.1,0.4,0.1,0.6l0,0.2
		c0,0.1,0,0.2,0,0.3c0,0.7,0,1,0,1.3c0,0.2,0,0.4,0,0.7c0,0.2,0,0.5,0.1,0.7c0,0.3,0.1,0.5,0.1,0.8c0,0.4,0,0.8,0,1.2
		c0,0.6,0,1.2,0,1.7c0.1,0.8,0.2,1.6,0.3,2.7l0,0.2c0,0.3,0.1,0.9,0.6,0.9l0,0c0.1,0,0.3-0.1,0.4-0.1c0.4-0.4,0.5-1.5,0.5-3.1
		c0-0.3,0-0.6,0-0.9c0.1-3.9,0-5-0.3-8c0-0.5-0.1-1-0.2-1.6c0.1,0,0.3,0,0.4,0c0.4,0,0.8-0.1,1.1-0.1c0.6-0.1,1-0.2,1.1-0.5
		C78.7,17.3,78.7,17,78.5,16.3z M69.6,18.6c0-0.4,0-0.9,0-1.3c0-0.6,0-1-0.3-1.3c-0.2-0.2-0.4-0.2-0.7-0.2c-0.1,0-0.3,0.1-0.4,0.2
		c-0.6,0.7-0.3,2.9-0.3,3.6c0,0.3,0,0.8,0,1.2c0,0.2,0,0.3,0,0.5c0.1,2.9,0.1,5.5,0.2,7.9c0,0.2-0.1,0.4-0.2,0.6l-0.1,0.2L67.6,30
		c-0.3-0.1-0.6-0.2-0.8-0.3c-0.2-0.1-0.3-0.4-0.4-0.6c0-0.2-0.1-0.4-0.1-0.6c-0.2-0.7-0.3-1.4-0.3-2.1c0-3.5-0.3-6.6-1-9.6
		c-0.1-0.6-0.4-1-0.8-1.1c-0.2,0-0.5,0-0.9,0.5c-0.3,0.4-0.1,0.8,0,1.2c0,0.1,0.1,0.2,0.1,0.3c0.3,1.3,0.4,2.6,0.5,4.2
		c0,0.4,0,0.8,0.1,1.2c0.1,0.6,0.1,1.3,0.1,2c-0.1,1.2,0,2.3,0.3,3.3c0.4,1.4,1.3,2.4,2.6,3c0.4,0.2,0.7,0.3,1.1,0.3
		c0.2,0,0.4,0,0.6-0.1c0.4-0.2,0.7-0.5,0.9-1.1c0.1-0.3,0.1-0.6,0.1-0.9l0-0.2c0-0.6,0-1.2,0-1.9c0-0.5,0-1,0-1.6c0-0.7,0-1.5,0-2.2
		c0-1.3,0.1-2.7,0.1-4.1C69.6,19.4,69.6,19,69.6,18.6z M59.8,29.2c-0.1,0.5-0.7,0.8-1.2,0.6c-0.5-0.3-0.6-0.6-0.6-1.4
		c-0.1-2.4-0.2-4.8-0.3-7.2c0-1-0.4-2.4-0.1-2.8C58,18,58.4,18,58.8,18c0.3,0,0.6,0.3,0.6,0.6c0.2,3.3,0.4,6.6,0.5,9.8
		C59.9,28.7,59.9,28.9,59.8,29.2z M61.7,28.7c0-1.4-0.1-2.8-0.2-4.2c-0.2-2.6,0.4-5.9-0.7-7.8c-0.4-0.8-1.9-0.5-2.9-0.6
		c-1.3-0.1-1.8,0.4-1.9,1.6c-0.1,1,0,1.9,0,2.9c0,1.4,0,2.8,0,4.2c0,1.3-0.2,2.6-0.1,3.8c0.1,1.1,0.7,2.1,1.8,2.8
		c1.7,1,3.2,0.5,3.8-1.3C61.7,29.7,61.7,29.2,61.7,28.7z M52.1,25.1c0,0.4,0,0.7-0.1,1.1c-0.3,1.2-0.6,2.4-0.9,3.5l0,0.1
		c-0.1,0.3-0.4,0.4-0.6,0.3c-0.3,0-0.6-0.1-0.8-0.1l-0.2,0L49.3,26c0-0.4-0.1-0.9-0.1-1.3c0-0.2,0-0.4,0.4-0.5
		c0.7-0.1,1.4-0.1,2.2,0c0.2,0,0.3,0.2,0.3,0.4C52.1,24.8,52.1,25,52.1,25.1z M49.1,22.1c0-0.5,0.1-0.9,0.1-1.4c0-0.3,0-0.6,0-0.8
		c0-0.3,0-0.7,0-1c0-0.3,0.1-0.5,0.1-0.8c0-0.1,0-0.2,0.1-0.3c0.2,0,0.3,0,0.4,0c0.3,0,0.6,0,0.9,0c0.3,0,0.6,0.1,0.7,0.3
		c0.1,0.1,0.1,0.3,0.1,0.5c-0.1,0.5-0.2,0.9-0.3,1.3c-0.1,0.3-0.1,0.5-0.2,0.8c-0.1,0.4-0.2,0.8-0.3,1.2c-0.1,0.2-0.1,0.4-0.5,0.4
		c-0.3,0.1-0.5,0.1-0.8,0.2l-0.3,0.1C49.1,22.3,49.1,22.2,49.1,22.1z M53.7,23.7c-0.3-0.2-0.6-0.5-0.9-0.7c-0.1-0.1-0.3-0.2-0.4-0.3
		c0-0.1,0-0.2,0.1-0.3c0.1-0.3,0.2-0.7,0.3-1.1c0.3-1,0.6-2,0.6-3.2c0-1.1-0.8-1.9-2.1-2c-1.1-0.1-2.1-0.1-3.1,0.1
		c-0.3,0.1-0.5,0.2-0.6,0.4c-0.1,0.2-0.1,0.4,0,0.7c0.1,0.2,0.1,0.4,0.1,0.7c0,0.1,0,0.2,0,0.4c0,0.1,0,0.2,0,0.3l0,0.2
		c0,0.7,0,1.4,0,2.1l0,0.6c0,1,0,2.1,0.1,3.1c0.1,1,0.2,2.1,0.3,3.1l0.1,0.9c0,0.4,0.1,0.9,0.2,1.3c0.2,0.6,0.5,0.9,1.1,1.2
		c0.5,0.2,1.1,0.4,1.8,0.4c0.2,0,0.5,0,0.7-0.1c0.9-0.3,1.1-1.3,1.2-2.2c0-0.2,0.1-0.5,0.1-0.7c0.3-1.1,0.4-2.2,0.6-3.3
		c0-0.3,0.1-0.7,0.1-1C53.9,24.1,53.8,23.8,53.7,23.7z M40.6,26.1c0-0.1,0-0.3,0-0.4c0-0.4,0-0.8,0-1.3c0.1-1.2,0.2-2.5,0.3-3.7
		l0.1-1.7c0-0.4,0.3-0.6,0.6-0.7c0.4-0.1,0.8-0.2,1.2-0.2l0.2,0.1c0.1,0.3,0.2,0.7,0.2,1c0,1.3,0.1,2.7,0.1,4l0,1.8
		c0,0.2,0,0.3,0,0.5l0,0.1C42.5,26.1,41.6,26.2,40.6,26.1z M45.2,29c0-0.4,0-0.8,0-1.2c0-0.8,0-1.5,0-2.3l0-1.2c0-1.9,0-3.8-0.1-5.7
		c-0.1-0.7-0.4-1.1-0.9-1.5c-0.1-0.1-0.3-0.2-0.5-0.3l-0.1-0.1c-0.8-0.5-1.7-0.6-2.4-0.1c-0.8,0.4-1.6,1.1-1.7,2.4l-0.1,0.2
		l-0.1,0.2c-0.1,0.3-0.1,0.6-0.2,0.9c-0.2,0.7-0.3,1.5-0.4,2.3c0,1,0,1.9-0.1,2.9c0,0.5,0,1,0,1.5l0,0.3l0,0.1l0.1,0.9
		c0,0.7,0.1,1.3,0.1,2c0,0.4,0.1,0.5,0.1,0.7c0,0.1,0.1,0.2,0.1,0.4c0.1,0.2,0.3,0.5,0.6,0.5l0,0c0.2,0,0.4-0.2,0.6-0.4
		c0.1-0.1,0.1-0.3,0.1-0.5c0-0.2,0-0.3,0-0.4c0-0.1,0-0.2,0-0.5l0-2.1c0.1,0,0.2,0,0.4,0c0.4,0,0.8,0,1.2-0.1
		c0.4-0.1,0.8-0.2,1.1-0.3l0.3-0.1l0,0c0,0.2,0.1,0.4,0.1,0.6c0,0.3,0,0.7,0.1,1c0,0.4,0,0.8,0.1,1.2l0,0.1c0,0.4,0.1,0.9,0.4,1.1
		c0.1,0.1,0.3,0.1,0.5,0.1c0.6-0.1,0.6-0.8,0.6-1.2C45.2,30,45.2,29.5,45.2,29z"/>
</g>
<g>
	<g>
		<path class="st3" d="M30.4,23.5c-2.6,5.3-3.4,11.1-2.6,16.7c0,0.1,0,0.1,0,0.2H15.2l-1.1-4.4c-0.3-1.2-1.4-2.1-2.6-2.1H9.4
			c-0.7,0-1.2-0.5-1.3-1.2l-0.5-4.9c-0.1-0.9-0.8-1.7-1.7-1.9L5,25.7c-0.2-0.1-0.3-0.2-0.4-0.3c0-0.1-0.1-0.3,0.1-0.5
			c0.9-1.1,1.6-2.4,2.2-3.7c0.4-0.8,0.5-1.7,0.5-2.6c0.1-6.7,5.4-12.1,12.1-12.1c0.5,0,0.9,0,1.4,0.1c5.4,0.6,9.8,4.9,10.5,10.4
			C31.7,19.1,31.3,21.4,30.4,23.5z"/>
	</g>
	<g>
		<path d="M19.6,14.8c-2.2,0-3.9,1.7-3.9,3.9s1.7,3.9,3.9,3.9s3.9-1.7,3.9-3.9S21.7,14.8,19.6,14.8z M19.6,21c-1.3,0-2.3-1-2.3-2.3
			s1-2.3,2.3-2.3s2.3,1,2.3,2.3S20.8,21,19.6,21z"/>
		<path d="M28.3,16.6l-1.9-0.4c-0.1-0.2-0.2-0.5-0.3-0.7l1-1.5c0.2-0.3,0.2-0.7-0.1-1l-1.9-1.9c-0.2-0.2-0.7-0.3-1-0.1l-1.5,1
			c-0.2,0-0.4-0.2-0.6-0.2L21.6,10c-0.1-0.4-0.4-0.6-0.8-0.6h-2.6c-0.4,0-0.7,0.2-0.8,0.6l-0.4,1.9c-0.2,0.1-0.5,0.2-0.7,0.3l-1.5-1
			c-0.3-0.2-0.7-0.2-1,0.1L12,13.1c-0.2,0.2-0.3,0.7-0.1,1l1,1.5c-0.1,0.2-0.2,0.5-0.3,0.7l-1.9,0.4c-0.4,0.1-0.6,0.4-0.6,0.8V20
			c0,0.4,0.2,0.7,0.6,0.8l1.9,0.4c0.1,0.2,0.2,0.5,0.3,0.7l-1,1.5c-0.2,0.3-0.2,0.7,0.1,1l1.9,1.9c0.2,0.2,0.7,0.3,1,0.1l1.5-1
			c0.2,0.1,0.5,0.2,0.7,0.3l0.4,1.9c0.1,0.4,0.4,0.6,0.8,0.6h2.6c0.4,0,0.7-0.2,0.8-0.6l0.4-1.9c0.2-0.1,0.5-0.2,0.7-0.3l1.5,1
			c0.3,0.2,0.7,0.2,1-0.1l1.9-1.9c0.2-0.2,0.3-0.7,0.1-1l-1-1.5c0.1-0.2,0.2-0.5,0.3-0.7l1.9-0.4c0.4-0.1,0.6-0.4,0.6-0.8v-2.6
			C28.9,17,28.6,16.7,28.3,16.6z M27.3,19.3l-1.7,0.3c-0.3,0.1-0.5,0.2-0.6,0.5c-0.2,0.5-0.3,0.9-0.5,1.2c-0.2,0.2-0.2,0.5,0,0.8
			l0.9,1.4l-0.9,0.9l-1.4-0.9c-0.2-0.2-0.5-0.2-0.8,0c-0.4,0.2-0.8,0.4-1.2,0.5c-0.3,0.1-0.5,0.3-0.5,0.6l-0.3,1.7H19l-0.4-1.7
			c-0.1-0.3-0.2-0.5-0.5-0.6c-0.5-0.2-0.9-0.3-1.2-0.5c-0.2-0.2-0.5-0.2-0.8,0l-1.4,0.9l-0.9-0.9l0.9-1.4c0.2-0.2,0.2-0.5,0-0.8
			c-0.2-0.4-0.4-0.8-0.5-1.2c-0.1-0.3-0.3-0.5-0.6-0.5l-1.7-0.3V18l1.7-0.3c0.3-0.1,0.5-0.2,0.6-0.5c0.2-0.5,0.3-0.9,0.5-1.2
			c0.2-0.2,0.2-0.5,0-0.8l-0.9-1.4l0.9-0.9l1.4,0.9c0.2,0.2,0.5,0.2,0.8,0c0.4-0.2,0.8-0.4,1.2-0.5c0.3-0.1,0.5-0.3,0.5-0.6l0.3-1.7
			h1.3l0.3,1.7c0.1,0.3,0.2,0.5,0.5,0.6c0.5,0.2,0.9,0.3,1.2,0.5c0.2,0.2,0.5,0.2,0.8,0l1.4-0.9l0.9,0.9l-0.9,1.4
			c-0.2,0.2-0.2,0.5,0,0.8c0.2,0.4,0.4,0.8,0.5,1.2c0.1,0.3,0.3,0.5,0.6,0.5l1.7,0.3C27.3,18.1,27.3,19.3,27.3,19.3z"/>
		<path d="M32.7,16.8C32,10.7,26.9,5.7,20.8,5c-0.5-0.1-1-0.1-1.5-0.1c-7.5,0-13.5,6.1-13.5,13.6c0,0.8-0.2,1.4-0.4,2
			C4.7,21.8,4.1,23,3.3,24c-0.5,0.5-0.5,1.3-0.3,2c0.2,0.7,0.8,1.2,1.5,1.3l0.9,0.2c0.3,0.1,0.5,0.3,0.5,0.6l0.5,4.9
			c0.2,1.5,1.4,2.6,2.9,2.6h2.1c0.5,0,1,0.4,1.2,0.9l1.2,4.9c0.1,0.3,0.4,0.6,0.8,0.6h14.1c0.5-0.1,0.8-0.4,0.8-0.9
			c-0.1-0.3-0.1-0.7-0.2-1.1c-0.9-5.3,0-10.7,2.4-15.8C32.7,22,33,19.3,32.7,16.8z M30.2,23.7c-2.6,5.3-3.4,11.1-2.6,16.7
			c0,0.1,0,0.1,0,0.2H15l-1.1-4.4c-0.3-1.2-1.4-2.1-2.6-2.1H9.2c-0.7,0-1.2-0.5-1.3-1.2L7.3,28c-0.1-0.9-0.8-1.7-1.7-1.9l-0.9-0.2
			c-0.2-0.1-0.3-0.2-0.4-0.3c0-0.1-0.1-0.3,0.1-0.5c0.9-1.1,1.6-2.4,2.2-3.7c0.4-0.8,0.5-1.7,0.5-2.6c0.1-6.7,5.4-12.1,12.1-12.1
			c0.5,0,0.9,0,1.4,0.1c5.4,0.6,9.8,4.9,10.5,10.4C31.5,19.2,31.1,21.6,30.2,23.7z"/>
	</g>
</g>
</svg>
