<?xml version="1.0" encoding="utf-8"?>
<!-- Generator: Adobe Illustrator 25.2.1, SVG Export Plug-In . SVG Version: 6.00 Build 0)  -->
<svg version="1.1" id="Layer_1" xmlns="http://www.w3.org/2000/svg" xmlns:xlink="http://www.w3.org/1999/xlink" x="0px" y="0px"
	 viewBox="0 0 98.2 120.3" style="enable-background:new 0 0 98.2 120.3;" xml:space="preserve">
<style type="text/css">
	.st0{fill:#FFFFFF;}
</style>
<g>
	<path class="st0" d="M68.7,57.5l-0.1,0.1c-0.1,0-0.1,0.1-0.1,0.2l0.1,0.1c0.1,0,0.1,0.1,0.1,0.2l0.2-0.4L68.7,57.5z M61.5,49.2
		c-0.7-0.4-1.4-0.7-2.2-0.8l1.5,1.5C60.9,49.7,61.2,49.5,61.5,49.2z M61.8,66.4c-0.3-0.3-0.6-0.5-0.7-0.7l-1.7,1.7
		c1.1-0.3,1.9-0.6,2.2-0.9L61.8,66.4z M53.1,72.9l4.9-4.4c-0.3,0.1-0.8,0.4-1.5,0.8c-0.7,0.4-1.3,0.8-1.8,1.2
		c-0.6,0.4-1.2,0.9-1.7,1.2c-0.6,0.4-0.9,0.7-1.1,0.9l-0.7,0.5L53.1,72.9z M53,44c0.6,0.4,1.1,0.8,1.7,1.2c0.6,0.4,1.2,0.9,1.8,1.2
		c0.7,0.4,1.1,0.7,1.5,0.8l-4.9-4.4l-2-0.3l0.7,0.5C52.1,43.3,52.4,43.6,53,44z M70.6,54.1c0.3,0.6,0.7,1,1.2,1.1L70.6,54.1z
		 M79.5,53.4l-4.2,3.9c-0.2,0.1-0.2,0.2-0.2,0.3v0.1l-0.2,0.1c0.2,0.1,0.2,0.2,0.2,0.4c0,0.1,0.1,0.2,0.2,0.3L50.2,78.3
		c-0.5,0.3-1,0.8-1.6,1.2c-0.6,0.5-1.3,1-2.1,1.6c-0.8,0.6-1.7,1.1-2.6,1.6c-0.9,0.5-1.8,0.9-2.8,1.1l9.9-8.8l-1.5-0.3
		c-0.2,0.1-0.6,0.3-1.2,0.6c-0.7,0.3-1.4,0.8-2.2,1.3c-0.8,0.5-1.3,0.9-1.5,1.2c-1,0.7-1.9,1.6-2.8,2.6c-0.9,1-1.8,2-2.8,3
		c-1,1-2.1,1.9-3.4,2.7c-1.3,0.8-3,1.4-4.9,1.7L21.4,96l-4.4,1.1l16.3-19.3l-2,0.4v-0.5c0-1.1,0.8-2.3,2.5-3.5
		c1.6-1.2,3.2-2.6,4.7-4.3c1.8-1.7,3.6-3.2,5.3-4.5c1.7-1.3,3.1-2.5,4.1-3.4l2.2-2.1c0.5-0.5,0.9-0.9,1.4-1.2
		c0.4-0.3,0.8-0.5,1.1-0.8c-0.3-0.3-0.7-0.5-1.1-0.8c-0.4-0.3-0.9-0.7-1.4-1.2l-2.2-2.1c-1-0.9-2.3-2.1-4.1-3.4
		c-1.7-1.3-3.5-2.8-5.3-4.5c-1.5-1.6-3-3-4.7-4.2c-1.6-1.2-2.5-2.4-2.5-3.5v-0.5l2,0.4L16.9,18.7l4.4,1.1l9.1,8.1
		c2,0.3,3.6,0.9,4.9,1.7c1.3,0.8,2.5,1.7,3.6,2.7c1.1,1,2,2,2.8,3c0.8,1,1.7,1.9,2.7,2.6c0.2,0.3,0.7,0.7,1.5,1.2
		c0.8,0.5,1.6,1,2.2,1.3c0.7,0.3,1.1,0.5,1.2,0.6l1.5-0.3l-9.9-8.8c1,0.3,1.9,0.6,2.8,1.1c0.9,0.5,1.7,1,2.5,1.6
		c0.7,0.6,1.5,1.1,2.2,1.6c0.7,0.5,1.4,0.9,1.8,1.1l0.5,0.4c2.3,1.7,4.4,3.4,6.4,5.1c2,1.6,3.9,3.2,5.7,4.8L79.5,53.4z"/>
</g>
</svg>
