<?xml version="1.0" encoding="utf-8"?>
<!-- Generator: Adobe Illustrator 25.4.1, SVG Export Plug-In . SVG Version: 6.00 Build 0)  -->
<svg version="1.1" id="Layer_1" xmlns="http://www.w3.org/2000/svg" xmlns:xlink="http://www.w3.org/1999/xlink" x="0px" y="0px"
	 viewBox="0 0 1338.9 648.4" style="enable-background:new 0 0 1338.9 648.4;" xml:space="preserve">
<style type="text/css">
	.st0{fill:#010101;}
	.st1{fill:#FFFFFF;}
	.st2{fill:#050605;}
	.st3{fill:#84B27C;}
	.st4{fill:#ED2224;}
	.st5{fill:#AF1F23;}
	.st6{fill:#C92128;}
	.st7{clip-path:url(#SVGID_00000014611287308332137920000005778182253969025208_);fill:#010101;}
	.st8{clip-path:url(#SVGID_00000139257804632431162740000006114972862085387423_);fill:#FFFFFF;}
	.st9{clip-path:url(#SVGID_00000055689729098232091730000001536930376569672069_);fill:#050605;}
	.st10{clip-path:url(#SVGID_00000003086706762899846360000008496226150968623538_);fill:#84B27C;}
	.st11{clip-path:url(#SVGID_00000046301835143924087710000010001322838764940431_);fill:#84B27C;}
	.st12{clip-path:url(#SVGID_00000142864374625450418500000002753950434809173890_);fill:#84B27C;}
	.st13{clip-path:url(#SVGID_00000026867818861538145250000009745267373241350331_);fill:#84B27C;}
	.st14{clip-path:url(#SVGID_00000063626446541663272960000004680255916956015004_);fill:#010101;}
	.st15{clip-path:url(#SVGID_00000125574240245212494200000015068982758827896476_);fill:#050605;}
	.st16{clip-path:url(#SVGID_00000152975263832427381360000012106803905518469772_);fill:#ED2224;}
	.st17{clip-path:url(#SVGID_00000129204920835699914100000017445730581526469790_);fill:#AF1F23;}
	.st18{clip-path:url(#SVGID_00000092448896117138842220000016197675061863072954_);fill:#ED2224;}
	.st19{clip-path:url(#SVGID_00000025412093570183836290000004403332783723442578_);fill:#AF1F23;}
	.st20{clip-path:url(#SVGID_00000121256819159556093580000011486607701267403445_);fill:#ED2224;}
	.st21{clip-path:url(#SVGID_00000026885174130909794380000002526616771199339953_);fill:#AF1F23;}
	.st22{clip-path:url(#SVGID_00000078755830072348487850000004458592948113035710_);fill:#ED2224;}
	.st23{clip-path:url(#SVGID_00000045620701155151194130000004066490968064585905_);fill:#ED2224;}
	.st24{clip-path:url(#SVGID_00000161632040565462649600000013834151845158080912_);fill:#AF1F23;}
	.st25{clip-path:url(#SVGID_00000076602632569431949970000014080515324021350813_);fill:#ED2224;}
	.st26{clip-path:url(#SVGID_00000000916720384227714370000010530648766963789698_);fill:#AF1F23;}
	.st27{clip-path:url(#SVGID_00000164501905462495685660000012856251183340601754_);fill:#010101;}
	.st28{clip-path:url(#SVGID_00000099662190062035268150000012743511647876215208_);fill:#010101;}
	.st29{clip-path:url(#SVGID_00000124152926900972983140000009986955236186672269_);fill:#010101;}
	.st30{clip-path:url(#SVGID_00000053534271253453242410000002306866397286226052_);fill:#010101;}
	.st31{clip-path:url(#SVGID_00000014633262895921233640000002684976626459096736_);fill:#010101;}
	.st32{clip-path:url(#SVGID_00000137849075450747211570000000442340951652325557_);fill:#010101;}
	.st33{clip-path:url(#SVGID_00000101823135764492184640000004867270234495274174_);fill:#010101;}
	.st34{clip-path:url(#SVGID_00000012432422185877353970000017480505061184191388_);fill:#010101;}
	.st35{clip-path:url(#SVGID_00000126305116325592117010000003752290173006336903_);fill:#010101;}
	.st36{clip-path:url(#SVGID_00000051343945440684424600000016544774060131688633_);fill:#ED2224;}
</style>
<g>
	<path class="st0" d="M731.5,95.3L731.5,95.3c-3.7-0.9-4.7-4.7-4.7-7.5l7.5-21.5c0.9-2.8,0.9-5.6,0.9-7.5l-3.7-36.4
		c-8.4,0-15.9,7.5-15.9,15.9c0,0.9,0,0.9,0,1.9l1.9,18.7c0,2.8,0,4.7-0.9,7.5l-7.5,21.5c-0.9,3.7-3.7,5.6-7.5,5.6s-7.5-3.7-7.5-7.5
		V4.7c-10.3,0-17.7,7.5-17.7,17.7v63.5c0,3.7-3.7,7.5-7.5,7.5c-3.7,0-6.5-2.8-7.5-5.6L658.7,71c-0.9-2.8-0.9-5.6-2.8-7.5l-16.8-32.7
		c-4.7,4.7-7.5,14.9-4.7,23.4l7.5,18.7c0.9,0.9,0.9,2.8,0.9,4.7l6.5,34.6c0.9,2.8-0.9,4.7-3.7,5.6c-0.9,0-1.9,0-2.8-0.9l-20.5-10.3
		c-6.5-3.7-14.9-0.9-18.7,6.5c-0.9,1.9-0.9,3.7-0.9,5.6l13.1,6.5c22.4,11.2,38.3,31.8,43.9,56c0.9,2.8,0.9,4.7,0.9,7.5v88.7h71
		v-87.8c0-6.5,0.9-13.1,4.7-18.7c2.8-5.6,5.6-12.1,6.5-18.7l5.6-25.2c0.9-5.6,3.7-11.2,7.5-15.9l12.1-14c2.8-3.7,3.7-7.5,3.7-11.2
		V48.6h-9.3c-4.7,0-8.4,3.7-9.3,8.4l-0.9,20.5c0,6.5-3.7,12.1-9.3,14.9l-3.7,1.9C736.2,96.2,733.4,96.2,731.5,95.3z"/>
	<path class="st1" d="M744.6,112.1c-0.9,0-1.9-0.9-1.9-1.9c0-0.9,0-0.9,0.9-0.9c0.9-0.9,1.9-2.8,2.8-3.7l10.3-12.1
		c0.9-0.9,1.9-0.9,3.7,0c1.9,0.9,0.9,1.9,0,3.7l-10.3,12.1c-0.9,0.9-1.9,2.8-2.8,3.7C746.5,114,744.6,112.1,744.6,112.1z"/>
	<path class="st2" d="M611,251.3c-4.7-14.9,0.9-31.8,13.1-48.6c-1.9,16.8,0,32.7,4.7,48.6H611z"/>
	<path class="st3" d="M625,259.7c-4.7-14.9,0.9-31.8,13.1-48.6c-1.9,16.8,0,32.7,4.7,48.6H625z"/>
	<path class="st3" d="M796.9,259.7c-4.7-14.9,0.9-31.8,13.1-48.6c-1.9,16.8,0,32.7,4.7,48.6H796.9z"/>
	<path class="st3" d="M704.4,259.7c-4.7-14.9,0.9-31.8,13.1-48.6c-1.9,16.8,0,32.7,4.7,48.6H704.4z"/>
	<path class="st3" d="M759.5,255.9c4.7-14.9-0.9-31.8-13.1-48.6c1.9,16.8,0,32.7-4.7,48.6H759.5z"/>
	<path class="st0" d="M702.6,251.3c4.7-14.9-0.9-31.8-13.1-48.6c1.9,16.8,0,32.7-4.7,48.6H702.6z"/>
	<path class="st2" d="M583.9,242.9c4.7-14.9-0.9-31.8-13.1-48.6c1.9,16.8,0,32.7-4.7,48.6H583.9z"/>
	<path class="st0" d="M549.4,277.4h273.7v-0.9c0-16.8-12.1-31.8-29-36.4c-7.5-1.9-15.9-2.8-24.3-2.8h-34.6
		c-12.1,0-24.3,0.9-35.5,4.7l-17.7,4.7h-0.9c-23.4,6.5-48.6,3.7-70.1-6.5l-13.1-6.5c-19.6-6.5-41.1,4.7-46.7,24.3
		c-0.9,3.7-1.9,7.5-1.9,11.2C549.4,269.9,549.4,277.4,549.4,277.4z"/>
	<path class="st4" d="M615.7,167.2c-0.9,0-0.9,0-1.9,0c-0.9-2.8-3.7-4.7-7.5-4.7c-5.6,0.9-9.3,5.6-8.4,11.2
		c-0.9,5.6,3.7,10.3,8.4,11.2c0.9,0,0.9,0,1.9,0c0.9,2.8,3.7,4.7,7.5,4.7c5.6-0.9,9.3-5.6,8.4-11.2
		C625,173.7,621.3,168.1,615.7,167.2z"/>
	<path class="st5" d="M620.4,180.3c-3.7,0-5.6-1.9-7.5-4.7c-0.9,0-0.9,0-1.9,0c-5.6-0.9-9.3-5.6-8.4-11.2v-0.9
		c-2.8,1.9-4.7,5.6-4.7,10.3c-0.9,5.6,3.7,10.3,8.4,11.2c0.9,0,0.9,0,1.9,0c0.9,2.8,3.7,4.7,7.5,4.7c5.6-0.9,9.3-5.6,8.4-10.3
		C624.1,180.3,621.3,180.3,620.4,180.3z"/>
	<path class="st4" d="M800.6,101.8c-3.7,0-7.5,3.7-8.4,9.3c0,0,0,0-0.9,0c-5.6,0-9.3,5.6-9.3,13.1s3.7,13.1,9.3,13.1
		c3.7,0,7.5-3.7,8.4-9.3c0,0,0,0,0.9,0c5.6,0,9.3-5.6,9.3-13.1C810,107.4,806.3,101.8,800.6,101.8z"/>
	<path class="st5" d="M791.3,118.6c0-7.5,3.7-13.1,9.3-13.1c0,0,0,0,0.9,0c0.9-0.9,0.9-2.8,0.9-3.7c-0.9,0-0.9-0.9-1.9-0.9
		c-3.7,0-7.5,3.7-8.4,9.3c0,0,0,0-0.9,0c-5.6,0-9.3,5.6-9.3,13.1c0,7.5,3.7,13.1,9.3,13.1c3.7,0,5.6-1.9,6.5-4.7
		C794.1,129.8,791.3,125.2,791.3,118.6z"/>
	<path class="st4" d="M620.4,70.1c4.7,0,8.4,3.7,8.4,8.4c0,4.7-3.7,8.4-8.4,8.4s-8.4-3.7-8.4-8.4C611,74.7,614.8,70.1,620.4,70.1z"
		/>
	<path class="st4" d="M687.6,114.9c-3.7-3.7-7.5-5.6-12.1-4.7c-5.6,0.9-9.3,5.6-10.3,10.3c-0.9,4.7,0.9,9.3,4.7,12.1
		c2.8,1.9,5.6,4.7,7.5,7.5c3.7,3.7,7.5,5.6,12.1,4.7c5.6-0.9,9.3-5.6,10.3-10.3c0.9-4.7-0.9-9.3-4.7-12.1
		C692.3,120.5,689.5,117.7,687.6,114.9z"/>
	<path class="st5" d="M693.2,136.4c-4.7,0.9-9.3-0.9-12.1-4.7c-1.9-2.8-4.7-5.6-7.5-7.5c-3.7-2.8-5.6-6.5-4.7-11.2
		c-5.6,4.7-5.6,13.1-0.9,18.7c0.9,0.9,0.9,0.9,0.9,0.9c2.8,1.9,5.6,4.7,7.5,7.5c3.7,3.7,7.5,5.6,12.1,4.7c5.6-0.9,9.3-5.6,10.3-10.3
		c0-0.9,0-0.9,0-0.9C697.9,135.4,696,136.4,693.2,136.4z"/>
	<path class="st1" d="M740.9,128c-11.2-0.9-20.5,7.5-23.4,17.7c0,0.9-0.9,2.8-0.9,4.7c0,4.7-0.9,9.3-3.7,12.1
		c-7.5,9.3-6.5,23.4,3.7,30.8c2.8,1.9,5.6,3.7,9.3,4.7c0.9,0.9,3.7,0.9,4.7,0.9v-7.5c0-6.5,0.9-13.1,4.7-18.7
		c2.8-5.6,5.6-12.1,6.5-18.7l4.7-24.3C744.6,128.9,742.7,128,740.9,128z"/>
	<path class="st5" d="M730.6,184.9c-0.9,0-3.7,0-4.7-0.9c-7.5-1.9-14-7.5-16.8-14.9c-3.7,12.1,2.8,23.4,14,27.1
		c0.9,0,0.9,0.9,1.9,0.9c0.9,0,3.7,0.9,4.7,0.9v-13.1H730.6z"/>
	<path class="st0" d="M815.6,248.5c-1.9-12.1-2.8-23.4-0.9-36.4c0-2.8-0.9-4.7-3.7-4.7c-0.9,0-3.7,0.9-3.7,1.9
		c-5.6,7.5-10.3,16.8-14,27.1c-7.5-0.9-14.9-1.9-22.4-1.9h-5.6c-2.8-10.3-7.5-20.5-14-29c-0.9-1.9-3.7-2.8-5.6-0.9
		c-0.9,0.9-1.9,2.8-1.9,3.7c0.9,8.4,0.9,17.7,0,26.2h-6.5c0,0,0,0-0.9,0v-43c0-5.6,0.9-12.1,3.7-16.8c3.7-5.6,5.6-13.1,6.5-19.6
		l5.6-25.2c0.9-5.6,3.7-10.3,6.5-14l12.1-14c3.7-3.7,5.6-9.3,5.6-14V50.4c0-2.8-1.9-4.7-4.7-4.7h-9.3c-7.5,0-13.1,5.6-13.1,13.1
		v21.5c0,2.8-0.9,6.5-7.5,10.3l-3.7,1.9c-0.9,0.9-2.8,0.9-3.7,0c-0.9-0.9-1.9-1.9-1.9-3.7l7.5-20.5c0.9-3.7,0.9-5.6,0.9-9.3
		l-3.7-36.4c0-1.9-1.9-3.7-4.7-3.7c-11.2,0-20.5,9.3-20.5,20.5c0,0.9,0,0.9,0,1.9l1.9,18.7c0,1.9,0,3.7-0.9,5.6l-6.5,22.4
		c-0.9,0.9-1.9,2.8-3.7,1.9c-1.9-0.9-2.8-1.9-2.8-3.7V4.7c0-2.8-1.9-4.7-4.7-4.7c-12.1,0-22.4,10.3-22.4,22.4v63.5
		c0,0.9-0.9,2.8-2.8,2.8s-2.8-0.9-2.8-2.8l-2.8-16.8c-0.9-3.7-0.9-6.5-3.7-9.3L643.7,28c-0.9-0.9-1.9-1.9-2.8-1.9s-2.8,0-3.7,0.9
		c-8.4,6.5-12.1,18.7-8.4,28l7.5,18.7c0.9,0.9,0.9,2.8,0.9,3.7l6.5,34.6l-20.5-10.3c-9.3-4.7-19.6-0.9-24.3,8.4
		c-0.9,2.8-1.9,5.6-1.9,7.5c0,1.9,0.9,3.7,2.8,3.7l13.1,6.5c20.5,10.3,36.4,29.9,41.1,53.2c0.9,1.9,0.9,3.7,0.9,6.5v57
		c-3.7,0-7.5,0-12.1-0.9c-1.9-11.2-1.9-22.4-0.9-33.6c0-2.8-0.9-4.7-3.7-4.7c-0.9,0-3.7,0.9-3.7,1.9c-1.9,3.7-3.7,5.6-5.6,9.3
		c0-4.7,0-10.3,0.9-14.9c0-2.8-0.9-4.7-3.7-4.7c-0.9,0-3.7,0.9-3.7,1.9c-7.5,10.3-12.1,20.5-14.9,32.7h-7.5h-0.9
		c-3.7-0.9-6.5-1.9-10.3-1.9c-1.9-13.1-7.5-25.2-14.9-36.4c-0.9-1.9-3.7-2.8-5.6-0.9c-0.9,0.9-1.9,2.8-1.9,3.7
		c0.9,14,0.9,27.1-2.8,41.1l-0.9,0.9c-10.3,7.5-16.8,20.5-16.8,33.6v8.4c0,2.8,1.9,4.7,4.7,4.7H824c2.8,0,4.7-1.9,4.7-4.7v-0.9
		C827.7,266.2,823.1,255.9,815.6,248.5z M806.3,240.1c-0.9-0.9-2.8-0.9-4.7-1.9c0.9-3.7,1.9-6.5,3.7-10.3
		C804.4,232.6,805.3,236.3,806.3,240.1z M751.1,224.2c0.9,3.7,2.8,6.5,3.7,10.3h-3.7C751.1,230.7,751.1,227.9,751.1,224.2z
		 M663.3,180.3c-5.6-25.2-22.4-47.6-45.8-58.8l-10.3-5.6c0.9-5.6,6.5-7.5,12.1-6.5c0.9,0,0.9,0.9,0.9,0.9l20.5,10.3
		c4.7,1.9,10.3,0.9,12.1-3.7c0.9-1.9,0.9-3.7,0.9-5.6l-6.5-34.6c-0.9-1.9-0.9-3.7-0.9-5.6l-7.5-18.7c-1.9-4.7-0.9-10.3,0.9-14
		l14,26.2c0.9,1.9,1.9,4.7,1.9,6.5l2.8,16.8c0.9,6.5,7.5,10.3,13.1,10.3c5.6-0.9,10.3-5.6,10.3-11.2V21.5c0-5.6,3.7-10.3,8.4-12.1
		V85c0,6.5,5.6,12.1,12.1,12.1c5.6,0,10.3-3.7,11.2-8.4l6.5-22.4c0.9-2.8,0.9-5.6,0.9-9.3l-1.9-18.7c-0.9-5.6,2.8-10.3,7.5-12.1
		l3.7,31.8c0,1.9,0,3.7-0.9,5.6L722.2,85c0,0.9,0,0.9,0,0.9c-0.9,7.5,4.7,13.1,12.1,14c2.8,0,4.7,0,7.5-0.9l3.7-1.9
		c7.5-2.8,12.1-10.3,12.1-17.7V57.9c0-2.8,1.9-4.7,4.7-4.7h2.8v33.6c0,3.7-0.9,5.6-3.7,8.4l-12.1,14c-3.7,3.7-5.6,9.3-7.5,14
		c-0.9,0-0.9,0-1.9,0c-13.1-0.9-25.2,8.4-27.1,20.5c-0.9,1.9-0.9,3.7-0.9,5.6c0,3.7-0.9,6.5-2.8,10.3c-9.3,11.2-7.5,28,3.7,37.4
		c3.7,2.8,7.5,4.7,11.2,5.6c0.9,0,0.9,0,0.9,0v31.8c-0.9,0-3.7,0-4.7,0.9c-0.9-7.5-0.9-14.9,0-22.4c0-2.8-0.9-4.7-3.7-4.7
		c-0.9,0-3.7,0.9-3.7,1.9c-3.7,4.7-5.6,9.3-8.4,14c-3.7-7.5-7.5-15.9-12.1-23.4c-0.9-1.9-3.7-2.8-5.6-0.9c-0.9,0.9-1.9,2.8-1.9,3.7
		c0.9,13.1,0.9,26.2-1.9,38.3l-1.9,0.9h-0.9c-5.6,0.9-10.3,2.8-15.9,2.8v-57C664.3,186.8,664.3,183.1,663.3,180.3z M712.8,235.4
		c-0.9,0-1.9,0-3.7,0.9c0.9-2.8,1.9-5.6,3.7-7.5C711.9,230.7,712.8,232.6,712.8,235.4z M699.8,238.2L699.8,238.2l-7.5,0.9
		c0.9-6.5,1.9-13.1,1.9-20.5C697,226,698.8,231.6,699.8,238.2L699.8,238.2z M634.4,243.8c-1.9-0.9-3.7-0.9-5.6-0.9
		c0.9-4.7,2.8-9.3,4.7-14C632.5,233.5,633.5,239.1,634.4,243.8z M621.3,234.5L621.3,234.5c0,1.9-0.9,3.7-0.9,4.7
		c-1.9-0.9-3.7-0.9-5.6-2.8c0.9-5.6,2.8-12.1,5.6-16.8C619.4,224.2,620.4,229.8,621.3,234.5z M575.5,211.1
		c2.8,5.6,4.7,11.2,5.6,16.8c-2.8,0.9-4.7,0.9-6.5,1.9C574.6,224.2,575.5,217.6,575.5,211.1z M554.1,273.7V269
		c0-18.7,14-32.7,32.7-32.7c3.7,0,6.5,0.9,10.3,0.9l13.1,6.5c23.4,11.2,48.6,14,73.8,7.5l18.7-4.7c11.2-2.8,23.4-3.7,34.6-3.7h34.6
		c7.5,0,15.9,0.9,23.4,2.8c14,3.7,23.4,14,25.2,28C820.3,273.7,554.1,273.7,554.1,273.7z"/>
	<path class="st0" d="M606.4,189.6c2.8,2.8,5.6,4.7,9.3,4.7c7.5-0.9,14-7.5,13.1-15.9c0.9-7.5-5.6-14-12.1-15.9
		c-2.8-2.8-5.6-4.7-9.3-4.7c-7.5,0.9-14,7.5-13.1,15.9C593.3,182.1,598.9,188.7,606.4,189.6z M607.3,167.2c0.9,0,2.8,0.9,3.7,2.8
		c0.9,1.9,2.8,2.8,4.7,1.9l0,0c2.8,0,4.7,3.7,4.7,6.5s-1.9,6.5-4.7,6.5c-0.9,0-2.8-0.9-3.7-2.8c-0.9-0.9-1.9-1.9-3.7-1.9
		c-0.9,0-0.9,0-0.9,0h-0.9c-2.8,0-4.7-3.7-4.7-6.5C602.6,170.9,604.5,167.2,607.3,167.2z"/>
	<path class="st0" d="M792.2,141c5.6-0.9,10.3-3.7,12.1-9.3c6.5-2.8,11.2-10.3,10.3-16.8c0-10.3-5.6-17.7-13.1-17.7
		c-5.6,0.9-10.3,3.7-12.1,9.3c-6.5,2.8-11.2,10.3-10.3,16.8C778.2,133.6,783.8,141,792.2,141z M791.3,114.9L791.3,114.9
		c2.8,0,4.7-0.9,4.7-3.7c0.9-3.7,2.8-5.6,3.7-5.6c1.9,0,4.7,3.7,4.7,8.4c0,4.7-2.8,8.4-4.7,8.4l0,0c-1.9,0-3.7,0.9-4.7,3.7
		c-0.9,3.7-2.8,5.6-3.7,5.6c-1.9,0-4.7-3.7-4.7-8.4C787.6,118.6,790.4,114.9,791.3,114.9z"/>
	<path class="st0" d="M620.4,92.5c7.5,0,13.1-5.6,13.1-13.1s-5.6-13.1-13.1-13.1s-13.1,5.6-13.1,13.1S612.9,92.5,620.4,92.5z
		 M620.4,74.7c2.8,0,4.7,1.9,4.7,4.7s-1.9,4.7-4.7,4.7s-4.7-1.9-4.7-4.7C615.7,76.6,617.6,74.7,620.4,74.7z"/>
	<path class="st0" d="M667.1,131.7c1.9-0.9,3.7-3.7,2.8-5.6c-0.9-4.7,0.9-10.3,5.6-11.2c0.9,0,0.9,0,0.9-0.9
		c3.7-0.9,6.5,0.9,8.4,3.7c2.8,2.8,5.6,5.6,7.5,7.5c2.8,1.9,3.7,5.6,3.7,8.4c-0.9,4.7-5.6,7.5-10.3,7.5c-1.9-0.9-3.7-0.9-5.6-3.7
		c-0.9-1.9-4.7-1.9-5.6-0.9c-2.8,1.9-2.8,5.6-0.9,6.5c3.7,3.7,8.4,6.5,13.1,6.5c0.9,0,1.9,0,3.7,0c10.3-1.9,15.9-11.2,14-20.5
		c-0.9-3.7-2.8-7.5-5.6-10.3c-2.8-1.9-4.7-4.7-6.5-6.5c-6.5-7.5-16.8-8.4-25.2-1.9c-3.7,2.8-5.6,5.6-5.6,10.3
		c-0.9,3.7,0,6.5,0.9,9.3C661.5,131.7,664.3,132.6,667.1,131.7z"/>
	<path class="st6" d="M816.5,250.3l2.8-0.9c-0.9-7.5-1.9-14.9-1.9-22.4c0-3.7,0-8.4,0.9-12.1l0,0l0,0v-0.9c0-1.9-0.9-3.7-1.9-5.6
		c-0.9-0.9-2.8-1.9-4.7-2.8h-0.9c-2.8,0-4.7,0.9-5.6,3.7l2.8,1.9l-2.8-1.9c-6.5,8.4-11.2,17.7-14,27.1l2.8,0.9l0.9-2.8
		c-7.5-0.9-14.9-1.9-22.4-1.9h-0.9l0,0h-6.5v2.8l2.8-0.9c-2.8-11.2-7.5-20.5-14-29.9l-2.8,1.9l2.8-1.9c-0.9-0.9-0.9-1.9-2.8-1.9
		c-0.9-0.9-1.9-0.9-3.7-0.9s-3.7,0.9-3.7,0.9c-1.9,0.9-3.7,3.7-3.7,5.6v0.9l0,0c0.9,3.7,0.9,7.5,0.9,12.1c0,4.7,0,8.4-0.9,13.1h2.8
		v-2.8h-6.5c0,0,0,0-0.9,0v2.8h2.8v-43l0,0c0-5.6,0.9-10.3,3.7-14.9l0,0c3.7-6.5,5.6-13.1,7.5-20.5l5.6-25.2l0,0
		c0.9-4.7,3.7-8.4,5.6-12.1l12.1-14l0,0c3.7-4.7,5.6-10.3,5.6-15.9V51.4c0-1.9-0.9-3.7-1.9-5.6c-0.9-0.9-3.7-1.9-5.6-1.9h-9.3l0,0
		c-4.7,0-8.4,1.9-11.2,4.7c-2.8,2.8-4.7,7.5-4.7,11.2v22.4h2.8h-1.9c0,0.9,0,0.9,0,0.9c0,0.9-0.9,0.9-0.9,2.8
		c-0.9,0.9-1.9,1.9-4.7,3.7l-3.7,1.9l0,0c0,0,0,0-0.9,0c0,0,0,0-0.9,0l-0.9-0.9h-2.8l2.8,0.9l7.5-20.5l0,0c0.9-2.8,0.9-5.6,0.9-7.5
		c0-0.9,0-1.9,0-2.8l0,0L739,24.3c0-1.9-0.9-3.7-2.8-4.7s-3.7-1.9-4.7-1.9l0,0v2.8v-2.8c-6.5,0-12.1,2.8-16.8,6.5s-5.6,9.3-5.6,15.9
		c0,0.9,0,1.9,0,2.8l1.9,18.7l0,0c0,0.9,0,0.9,0,0.9c0,0.9,0,1.9-0.9,3.7l-6.5,22.4l2.8,0.9l-2.8-0.9l0,0l0,0l0,0l0,0l0,0l0,0l0,0
		l0,0l0,0l0,0l0,0l0,0l0,0l0,0l0,0l0,0l0,0l0,0l0,0l0,0l0,0V7.5c0-1.9-0.9-3.7-1.9-5.6C700.7,0.9,697.9,0,696,0l0,0
		c-6.5,0-13.1,2.8-17.7,7.5c-4.7,4.7-6.5,10.3-6.5,17.7v63.5l0,0l0,0l0,0l0,0l0,0l0,0l0,0l0,0l0,0l0,0l0,0l0,0v2.8v-2.8l0,0v2.8
		v-2.8l0,0l0,0l0,0l0,0l0,0l0,0l0,0l0,0l0,0l0,0l0,0l0,0l-2.8-16.8c-0.9-3.7-1.9-7.5-3.7-10.3l-16.8-31.8l0,0
		c-0.9-1.9-2.8-3.7-4.7-3.7l0,0l0,0c0,0,0,0,0,0c-0.9,0-3.7,0.9-4.7,0.9l0,0l0,0c-7.5,5.6-11.2,14-11.2,22.4c0,3.7,0.9,6.5,1.9,10.3
		l0,0l7.5,18.7l0,0c0.9,0.9,0.9,1.9,0.9,3.7l5.6,29l-14.9-7.5c-3.7-0.9-5.6-1.9-9.3-1.9c-3.7,0-7.5,0.9-11.2,3.7
		c-3.7,1.9-5.6,5.6-7.5,8.4c-0.9,2.8-1.9,5.6-1.9,9.3l0,0h2.8H597l0,0c0,2.8,0.9,5.6,3.7,6.5l13.1,6.5l0,0
		c20.5,10.3,35.5,29,40.2,51.4l0,0c0.9,1.9,0.9,3.7,0.9,5.6v57h2.8v-2.8c-3.7,0-7.5,0-12.1-0.9l-0.9,2.8l2.8-0.9
		c-0.9-6.5-0.9-14-0.9-20.5c0-3.7,0-7.5,0.9-12.1l0,0l0,0v-0.9c0-1.9-0.9-3.7-1.9-5.6c-0.9-0.9-2.8-1.9-4.7-2.8H640
		c-2.8,0-4.7,0.9-5.6,3.7l0,0c-1.9,3.7-3.7,5.6-5.6,9.3l2.8,0.9h2.8c0-0.9,0-0.9,0-1.9c0-3.7,0-8.4,0.9-13.1l0,0v-0.9
		c0-1.9-0.9-3.7-1.9-5.6c-0.9-0.9-2.8-1.9-4.7-2.8h-0.9c-2.8,0-4.7,0.9-5.6,3.7l2.8,1.9l-2.8-1.9c-7.5,10.3-13.1,21.5-14.9,33.6
		l2.8,0.9l0.9-2.8l-5.6-3.7l0,0c-0.9,0-0.9,0-0.9-0.9l0,0c-3.7-0.9-7.5-1.9-11.2-1.9v2.8l2.8-0.9c-1.9-14-7.5-27.1-15.9-37.4
		l-1.9,1.9l2.8-1.9c-0.9-0.9-0.9-1.9-2.8-1.9c-0.9-0.9-1.9-0.9-3.7-0.9c-0.9,0-3.7,0.9-3.7,0.9c-1.9,0.9-3.7,3.7-3.7,5.6v0.9l0,0
		l0,0c0.9,3.7,0.9,8.4,0.9,12.1c0,9.3-0.9,18.7-3.7,27.1l2.8,0.9l-3.7-0.9c0,0-0.9,0-0.9,0.9l0,0c-12.1,8.4-18.7,21.5-18.7,35.5l0,0
		l0,0v8.4c0,1.9,0.9,3.7,1.9,5.6c0.9,0.9,3.7,1.9,5.6,1.9h273.7c1.9,0,3.7-0.9,5.6-1.9c0.9-0.9,1.9-3.7,1.9-5.6l0,0l0,0l0,0
		c0-12.1-4.7-23.4-12.1-30.8L816.5,250.3l2.8-0.9L816.5,250.3l-1.9,1.9c7.5,7.5,11.2,16.8,11.2,27.1l0,0v0.9c0,0.9,0,0.9-0.9,0.9
		l-0.9,0.9H551.3c-0.9,0-0.9,0-0.9-0.9l-0.9-0.9v-8.4l0,0l0,0c0-12.1,5.6-23.4,15.9-30.8l0,0c0,0,0.9,0,0.9-0.9l0.9-0.9v-0.9
		c1.9-9.3,3.7-18.7,3.7-28c0-4.7,0-8.4-0.9-13.1h-2.8h1.9l0,0c0-0.9,0-0.9,0.9-0.9h0.9h0.9c0,0,0.9,0,0.9,0.9l0,0l0,0
		c7.5,10.3,13.1,22.4,14,34.6v2.8h2.8c3.7,0,6.5,0.9,10.3,1.9l0,0l0,0l0,0l9.3,4.7l0.9-3.7c2.8-11.2,7.5-22.4,14-31.8l0,0l0,0
		c0-0.9,0.9-0.9,0.9-0.9l0,0c0.9,0,0.9,0,0.9,0.9l0.9,0.9l0,0l0,0c-0.9,4.7-0.9,9.3-0.9,13.1c0,0.9,0,0.9,0,1.9v10.3l5.6-9.3
		c1.9-2.8,3.7-5.6,5.6-8.4l0,0c0-0.9,0.9-0.9,0.9-0.9l0,0c0.9,0,0.9,0,0.9,0.9l0.9,0.9l0,0l0,0c-0.9,4.7-0.9,8.4-0.9,13.1
		c0,7.5,0.9,14,1.9,20.5l0.9,1.9h1.9c3.7,0.9,8.4,0.9,12.1,0.9h2.8v-60.7l0,0c0-2.8,0-4.7-0.9-6.5l0,0c-5.6-24.3-20.5-44.8-43-55.1
		l0,0l-13.1-6.5l0,0c-0.9,0-0.9-0.9-0.9-0.9h-1.9h1.9l0,0h-1.9h1.9l0,0l0,0l0,0l0,0l0,0l0,0l0,0c0-2.8,0.9-4.7,0.9-6.5
		c0.9-2.8,3.7-4.7,5.6-6.5c2.8-0.9,5.6-1.9,7.5-1.9c1.9,0,4.7,0.9,6.5,0.9l25.2,12.1l-7.5-41.1l0,0c0-0.9-0.9-2.8-0.9-3.7l0,0
		L630.6,56l0,0c-0.9-2.8-0.9-5.6-0.9-7.5c0-6.5,3.7-13.1,8.4-17.7l0,0h0.9c0,0,0,0,0.9,0l0,0c0.9,0,0.9,0.9,0.9,0.9l16.8,31.8
		c0.9,2.8,2.8,5.6,2.8,8.4l2.8,16.8l0,0c0.9,2.8,2.8,4.7,5.6,4.7v-2.8v2.8l0,0v-2.8v2.8l0,0l0,0c0.9,0,3.7-0.9,3.7-1.9
		c0.9-0.9,1.9-2.8,1.9-3.7l0,0V24.3l0,0c0-5.6,1.9-10.3,5.6-14c3.7-3.7,8.4-5.6,14-5.6l0,0c0.9,0,0.9,0,0.9,0.9l0.9,0.9v80.3l0,0
		c0,2.8,0.9,4.7,3.7,5.6c0.9,0,0.9,0,1.9,0c0.9,0,2.8-0.9,3.7-0.9c0.9-0.9,1.9-1.9,1.9-2.8l0,0l6.5-22.4l0,0
		c0.9-0.9,0.9-3.7,0.9-4.7c0-0.9,0-0.9,0-1.9l-1.9-18.7c0-0.9,0-0.9,0-1.9c0-4.7,1.9-9.3,5.6-12.1c3.7-3.7,7.5-5.6,12.1-5.6l0,0l0,0
		v-2.8v2.8l0,0v-2.8v2.8l0,0c0.9,0,0.9,0,0.9,0.9l0.9,0.9l3.7,36.4l0,0c0,0.9,0,0.9,0,1.9c0,1.9,0,3.7-0.9,5.6l0,0l-7.5,21.5v0.9
		c0,2.8,0.9,4.7,3.7,5.6c0.9,0.9,1.9,0.9,3.7,0.9c0.9,0,1.9,0,3.7-0.9l3.7-1.9c1.9-0.9,3.7-1.9,4.7-3.7c1.9-0.9,3.7-3.7,3.7-5.6
		c0.9-1.9,0.9-3.7,0.9-4.7l0,0V57c0-2.8,0.9-5.6,3.7-7.5c1.9-1.9,4.7-3.7,7.5-3.7l0,0h9.3c0.9,0,0.9,0,0.9,0.9l0.9,0.9V85l0,0
		c0,4.7-0.9,8.4-4.7,12.1l0,0l-12.1,14l0,0c-3.7,4.7-5.6,9.3-7.5,14.9l0,0l-5.6,25.2l0,0c-0.9,6.5-3.7,13.1-6.5,18.7l0,0
		c-2.8,5.6-3.7,12.1-4.7,17.7v45.8h2.8c0,0,0,0,0.9,0h9.3v-2.8c0.9-4.7,0.9-9.3,0.9-14c0-4.7,0-8.4-0.9-13.1l0,0l0,0
		c0-0.9,0-0.9,0.9-0.9h-0.9h0.9c0,0,0.9,0,0.9,0.9l0,0l0,0c6.5,8.4,11.2,17.7,14,28l0.9,1.9h7.5l0,0h0.9c7.5,0,14,0.9,21.5,1.9
		l2.8,0.9l0.9-2.8c2.8-9.3,7.5-18.7,13.1-25.2l0,0l0,0c0-0.9,0.9-0.9,0.9-0.9l0,0c0.9,0,0.9,0,0.9,0.9l0.9,0.9l0,0h2.8h-3.7
		c-0.9,4.7-0.9,8.4-0.9,13.1c0,7.5,0.9,15.9,1.9,23.4v0.9l0.9,0.9L816.5,250.3z"/>
	<path class="st0" d="M810,93.4c-0.9-4.7-0.9-8.4-1.9-12.1c0-14.9-8.4-28-20.5-34.6l-1.9-10.3c-0.9-6.5-10.3-10.3-18.7-10.3
		c-10.3,0-16.8,3.7-17.7,10.3c-0.9,3.7-0.9,6.5-1.9,10.3c-0.9,0.9-0.9,0.9-0.9,0.9c-0.9,0-0.9,0.9-0.9,0.9c-0.9,0.9-0.9,0.9-1.9,0.9
		l0,0H642.8l0,0c-0.9-0.9-0.9-0.9-1.9-0.9s-0.9-0.9-0.9-0.9l-0.9-0.9l-2.8-11.2c-0.9-6.5-10.3-10.3-18.7-10.3
		c-10.3,0-16.8,3.7-17.7,10.3c-0.9,2.8-0.9,5.6-1.9,9.3c-12.1,6.5-20.5,19.6-21.5,35.5c-0.9,3.7-0.9,7.5-1.9,12.1
		c-3.7,18.7-8.4,47.6-7.5,69.1c0.9,16.8,13.1,23.4,19.6,25.2c0.9,0.9,3.7,0.9,7.5,0.9c8.4,0,15.9-3.7,21.5-12.1
		c6.5-9.3,13.1-20.5,17.7-29.9c5.6,4.7,12.1,7.5,18.7,7.5c13.1,0,24.3-8.4,28-20.5h23.4c3.7,12.1,14.9,20.5,28,20.5
		c7.5,0,14-2.8,18.7-7.5c4.7,9.3,11.2,20.5,17.7,29.9c5.6,7.5,14,12.1,21.5,12.1c3.7,0,5.6-0.9,7.5-0.9c6.5-0.9,18.7-8.4,19.6-25.2
		C818.4,141,813.7,112.1,810,93.4z"/>
	<path class="st6" d="M810.9,94.3c-0.9-4.7-0.9-8.4-1.9-12.1c0-14.9-8.4-28-20.5-34.6l-1.9-10.3c-0.9-6.5-10.3-10.3-18.7-10.3
		c-10.3,0-16.8,3.7-17.7,10.3c-0.9,3.7-0.9,6.5-1.9,10.3c-0.9,0.9-0.9,0.9-0.9,0.9c-0.9,0-0.9,0.9-0.9,0.9c-0.9,0.9-0.9,0.9-1.9,0.9
		l0,0H643.7l0,0c-0.9-0.9-0.9-0.9-1.9-0.9c-0.9,0-0.9-0.9-0.9-0.9l-0.9-0.9l-2.8-11.2c-0.9-6.5-10.3-10.3-18.7-10.3
		c-10.3,0-16.8,3.7-17.7,10.3c-0.9,2.8-0.9,5.6-1.9,9.3c-12.1,6.5-20.5,19.6-21.5,35.5c-0.9,3.7-0.9,7.5-1.9,12.1
		c-3.7,18.7-8.4,47.6-7.5,69.1c0.9,16.8,13.1,23.4,19.6,25.2c0.9,0.9,3.7,0.9,7.5,0.9c8.4,0,15.9-3.7,21.5-12.1
		c6.5-9.3,13.1-20.5,17.7-29.9c5.6,4.7,12.1,7.5,18.7,7.5c13.1,0,24.3-8.4,28-20.5h23.4c3.7,12.1,14.9,20.5,28,20.5
		c7.5,0,14-2.8,18.7-7.5c4.7,9.3,11.2,20.5,17.7,29.9c5.6,7.5,14,12.1,21.5,12.1c3.7,0,5.6-0.9,7.5-0.9c6.5-0.9,18.7-8.4,19.6-25.2
		C819.3,142.9,813.7,114,810.9,94.3z M809.1,162.5c-0.9,14-12.1,17.7-13.1,17.7c-0.9,0-3.7,0.9-5.6,0.9c-5.6,0-10.3-2.8-14.9-9.3
		c-5.6-7.5-13.1-19.6-19.6-33.6c-0.9-0.9-1.9-1.9-3.7-2.8c0,0,0,0-0.9,0c-0.9,0-2.8,0.9-3.7,1.9c-3.7,5.6-10.3,8.4-16.8,8.4
		c-10.3,0-18.7-7.5-20.5-17.7c-0.9-1.9-1.9-3.7-3.7-3.7h-29.9c-1.9,0-3.7,0.9-3.7,3.7c-1.9,10.3-10.3,17.7-20.5,17.7
		c-6.5,0-12.1-3.7-16.8-8.4c-0.9-0.9-1.9-1.9-3.7-1.9c-0.9,0-2.8,0.9-3.7,2.8c-6.5,14-13.1,25.2-19.6,33.6
		c-4.7,5.6-10.3,9.3-14.9,9.3c-1.9,0-3.7-0.9-5.6-0.9c-0.9,0-12.1-3.7-13.1-17.7c-0.9-17.7,2.8-42,5.6-60.7
		c6.5,12.1,20.5,20.5,35.5,20.5c5.6,0,10.3-0.9,14-2.8c0.9-0.9,1.9-0.9,2.8-2.8c2.8-6.5,7.5-12.1,14.9-13.1c0.9,0,1.9-0.9,2.8-1.9
		c3.7-5.6,5.6-13.1,5.6-20.5c0-7.5-2.8-15.9-6.5-22.4h85c-3.7,6.5-6.5,14-6.5,22.4c0,7.5,1.9,14,5.6,20.5c0.9,0.9,0.9,1.9,2.8,1.9
		c7.5,0.9,12.1,6.5,14.9,13.1c0.9,0.9,0.9,1.9,2.8,2.8c4.7,1.9,10.3,2.8,14,2.8c14.9,0,28-8.4,35.5-20.5
		C806.3,120.5,810.9,144.8,809.1,162.5z M608.2,40.2c0-0.9,3.7-3.7,10.3-3.7s10.3,2.8,10.3,3.7l0.9,4.7c-0.9,0-0.9-0.9-0.9-0.9
		c-0.9,0-0.9-0.9-1.9-0.9c-0.9,0-0.9,0-1.9-0.9c-0.9,0-0.9,0-2.8-0.9c-0.9,0-0.9,0-0.9,0c-0.9,0-2.8,0-3.7,0c-0.9,0-2.8,0-3.7,0
		c-1.9,0-3.7,0.9-5.6,0.9C607.3,43,608.2,41.1,608.2,40.2z M638.1,59.8c0.9,0.9,2.8,2.8,3.7,3.7c3.7,5.6,6.5,12.1,6.5,19.6
		c0,5.6-0.9,10.3-3.7,14c-8.4,2.8-14.9,7.5-18.7,15.9c-3.7,0.9-6.5,0.9-10.3,0.9c-17.7,0-31.8-14-31.8-31.8l0,0
		c0-9.3,3.7-17.7,10.3-23.4c0.9-0.9,3.7-2.8,5.6-3.7c0.9-0.9,3.7-1.9,4.7-2.8c3.7-0.9,7.5-1.9,12.1-1.9c0.9,0,1.9,0,3.7,0
		c0.9,0,0.9,0,0.9,0c0.9,0,0.9,0,1.9,0c0.9,0,0.9,0,1.9,0.9c0.9,0,0.9,0,0.9,0.9c0.9,0,0.9,0.9,1.9,0.9c0.9,0,0.9,0,0.9,0.9
		c0.9,0,0.9,0.9,1.9,0.9c0,0,0.9,0,0.9,0.9l0,0c0.9,0,0.9,0.9,1.9,0.9c0,0,0.9,0,0.9,0.9c0.9,0.9,0.9,0.9,1.9,0.9
		C637.2,58.8,637.2,58.8,638.1,59.8L638.1,59.8C637.2,58.8,637.2,58.8,638.1,59.8z M777.3,40.2l0.9,3.7c-1.9-0.9-3.7-0.9-6.5-0.9
		c-0.9,0-2.8,0-3.7,0c-0.9,0-2.8,0-3.7,0c-0.9,0-0.9,0-0.9,0c-0.9,0-0.9,0-2.8,0.9c-0.9,0-0.9,0-1.9,0.9c-0.9,0-0.9,0-1.9,0.9h-0.9
		c0.9-1.9,0.9-3.7,0.9-4.7c0-0.9,3.7-3.7,10.3-3.7C773.6,37.4,777.3,39.2,777.3,40.2z M746.5,59.8c0.9-0.9,0.9-0.9,1.9-0.9
		c0,0,0,0,0.9-0.9l0,0c0.9-0.9,0.9-0.9,1.9-0.9c0,0,0.9,0,0.9-0.9c0.9-0.9,0.9-0.9,1.9-0.9c0,0,0,0,0.9,0c0,0,0,0,0.9,0
		c0.9,0,0.9-0.9,1.9-0.9c0.9,0,0.9,0,0.9-0.9c0.9,0,0.9-0.9,1.9-0.9c0.9,0,0.9,0,0.9-0.9c0.9,0,0.9,0,1.9-0.9c0.9-0.9,0.9,0,1.9,0
		c0.9,0,0.9,0,0.9,0c0.9,0,1.9,0,3.7,0c4.7,0,8.4,0.9,12.1,2.8c1.9,0.9,3.7,0.9,4.7,2.8c1.9,0.9,3.7,2.8,5.6,3.7
		c5.6,5.6,10.3,14,10.3,23.4l0,0c0,17.7-14,31.8-31.8,31.8c-3.7,0-6.5-0.9-10.3-0.9c-3.7-7.5-10.3-14-18.7-15.9
		c-1.9-4.7-3.7-9.3-3.7-14c0-7.5,2.8-14.9,7.5-20.5C744.6,61.6,745.5,60.7,746.5,59.8z"/>
	<path class="st1" d="M653.1,110.2c-8.4,0-14.9,6.5-14.9,14.9s6.5,14.9,14.9,14.9c8.4,0,14.9-6.5,14.9-14.9S661.5,110.2,653.1,110.2
		z M653.1,132.6c-3.7,0-7.5-3.7-7.5-7.5c0-3.7,3.7-7.5,7.5-7.5c3.7,0,7.5,3.7,7.5,7.5C660.5,128.9,656.8,132.6,653.1,132.6z"/>
	<path class="st1" d="M731.5,110.2c-8.4,0-14.9,6.5-14.9,14.9s6.5,14.9,14.9,14.9s14.9-6.5,14.9-14.9
		C747.4,116.8,739.9,110.2,731.5,110.2z M731.5,132.6c-3.7,0-7.5-3.7-7.5-7.5c0-3.7,3.7-7.5,7.5-7.5c3.7,0,7.5,3.7,7.5,7.5
		C739,128.9,736.2,132.6,731.5,132.6z"/>
	<path class="st1" d="M621.3,77.5v-8.4v-3.7l0,0c0-0.9-0.9-3.7-1.9-3.7c-0.9-0.9-1.9-0.9-3.7-0.9c-0.9,0-1.9,0.9-3.7,0.9
		c-0.9,0.9-1.9,2.8-1.9,3.7l0,0v3.7v8.4H598c-2.8,0-5.6,1.9-5.6,5.6c0,2.8,1.9,5.6,5.6,5.6h12.1v12.1c0,2.8,1.9,5.6,5.6,5.6
		s5.6-1.9,5.6-5.6V88.7h13.1c2.8,0,5.6-1.9,5.6-5.6c0-2.8-1.9-5.6-5.6-5.6H621.3z"/>
	<path class="st1" d="M768.9,74.7c3.7,0,5.6-1.9,6.5-5.6c0-0.9,0-0.9,0-1.9c0-0.9,0-0.9-0.9-1.9c-0.9-1.9-1.9-3.7-3.7-3.7
		c-0.9-0.9-1.9-0.9-3.7-0.9c-0.9,0-1.9,0-3.7,0.9c-1.9,0.9-3.7,2.8-3.7,3.7c0,0.9-0.9,0.9-0.9,1.9c0,0.9,0,0.9,0,1.9
		C762.4,71.9,765.2,74.7,768.9,74.7z"/>
	<path class="st1" d="M768.9,92.5c3.7,0,7.5,3.7,7.5,7.5s-3.7,7.5-7.5,7.5c-3.7,0-7.5-3.7-7.5-7.5S764.2,92.5,768.9,92.5z"/>
	<circle class="st1" cx="753" cy="83.1" r="7.5"/>
	<path class="st1" d="M783.8,76.6c3.7,0,7.5,3.7,7.5,7.5s-3.7,7.5-7.5,7.5c-3.7,0-7.5-3.7-7.5-7.5S780.1,76.6,783.8,76.6z"/>
	<path class="st1" d="M681.1,81.3h-12.1c-1.9,0-3.7,1.9-3.7,3.7c0,1.9,1.9,3.7,3.7,3.7h12.1c1.9,0,3.7-1.9,3.7-3.7
		S683,81.3,681.1,81.3z"/>
	<path class="st1" d="M718.5,85.9c0-1.9-1.9-3.7-3.7-3.7h-12.1c-1.9,0-3.7,1.9-3.7,3.7c0,1.9,1.9,3.7,3.7,3.7h12.1
		C715.6,89.7,718.5,87.8,718.5,85.9z"/>
	<path class="st1" d="M691.4,99c3.7,0,7.5,3.7,7.5,7.5c0,3.7-3.7,7.5-7.5,7.5c-3.7,0-7.5-3.7-7.5-7.5C683.9,102.7,687.6,99,691.4,99
		z"/>
	<path class="st1" d="M810.9,93.4l2.8-0.9c-0.9-4.7-0.9-8.4-1.9-12.1l-2.8,0.9h2.8c0-7.5-2.8-15.9-6.5-21.5
		c-3.7-6.5-9.3-12.1-15.9-14.9l-0.9,2.8l2.8-0.9l-1.9-10.3l0,0c-0.9-1.9-0.9-3.7-3.7-5.6c-1.9-2.8-5.6-3.7-8.4-4.7
		c-3.7-0.9-6.5-0.9-10.3-0.9c-5.6,0-10.3,0.9-14,3.7c-1.9,0.9-3.7,2.8-4.7,3.7c-0.9,0.9-1.9,2.8-2.8,4.7l0,0
		c-0.9,3.7-0.9,6.5-1.9,10.3l2.8,0.9l-0.9-2.8c-0.9,0.9-0.9,0.9-1.9,0.9l0,0l0,0c-0.9,0-0.9,0.9-0.9,0.9l1.9,2.8l-1.9-2.8
		c-0.9,0.9-0.9,0.9-1.9,1.9l1.9,1.9l-1.9-1.9l0,0l1.9,1.9v-2.8h-99.9v2.8l1.9-1.9l0,0l-1.9,1.9l1.9-1.9c-0.9-0.9-0.9-0.9-1.9-1.9
		l0,0l-0.9-0.9l0,0l-0.9-0.9l-0.9,2.8l2.8-0.9L640,36.4c-0.9-1.9-0.9-3.7-3.7-5.6c-1.9-2.8-5.6-3.7-8.4-4.7c-3.7,0-6.5,0-10.3,0
		c-5.6,0-10.3,0.9-14,3.7c-1.9,0.9-3.7,2.8-4.7,3.7c-0.9,0.9-1.9,3.7-2.8,5.6l0,0c-0.9,2.8-0.9,5.6-1.9,9.3l2.8,0.9l-0.9-2.8
		c-6.5,3.7-12.1,9.3-16.8,14.9c-3.7,6.5-6.5,14-6.5,22.4h2.8l-2.8-1.9c-0.9,3.7-0.9,7.5-1.9,12.1c-0.9,8.4-3.7,18.7-4.7,29.9
		c-0.9,10.3-2.8,22.4-2.8,31.8c0,2.8,0,5.6,0,7.5c0,4.7,0.9,8.4,2.8,12.1c1.9,5.6,5.6,8.4,9.3,11.2c3.7,2.8,7.5,3.7,10.3,4.7l0,0
		c1.9,0.9,4.7,0.9,7.5,0.9c4.7,0,9.3-0.9,13.1-3.7c3.7-1.9,7.5-5.6,11.2-10.3c7.5-9.3,13.1-20.5,18.7-29.9l-2.8-0.9l-1.9,1.9
		c2.8,2.8,5.6,3.7,9.3,5.6c3.7,0.9,7.5,1.9,10.3,1.9c0.9,0,0.9,0,0.9,0c7.5-0.9,14-3.7,19.6-7.5c2.8-1.9,5.6-4.7,7.5-7.5
		c1.9-2.8,3.7-5.6,3.7-8.4l-1.9,0v2.8h23.4v-2.8l-2.8,0.9c1.9,6.5,4.7,12.1,9.3,16.8c1.9,1.9,4.7,3.7,7.5,5.6
		c3.7,0.9,6.5,1.9,10.3,1.9s7.5-0.9,11.2-2.8c3.7-0.9,6.5-3.7,10.3-4.7l-0.9-2.8l-2.8,0.9c2.8,5.6,5.6,10.3,10.3,14.9
		c3.7,4.7,7.5,10.3,11.2,14c3.7,4.7,7.5,7.5,11.2,10.3c3.7,1.9,8.4,3.7,13.1,3.7c3.7,0,5.6-0.9,7.5-0.9l0,0l0,0
		c1.9-0.9,3.7-0.9,6.5-2.8c3.7-1.9,7.5-4.7,10.3-9.3c2.8-3.7,5.6-10.3,5.6-16.8c0-2.8,0-5.6,0-8.4c0-10.3-0.9-21.5-2.8-31.8
		c-1.9-10.3-3.7-20.5-4.7-29.9l0,0L810.9,93.4l-2.8,0.9c0.9,8.4,3.7,18.7,4.7,29.9c0.9,10.3,2.8,21.5,2.8,31.8c0,2.8,0,5.6,0,7.5
		c0,3.7-0.9,7.5-2.8,10.3c-1.9,3.7-4.7,7.5-7.5,9.3c-2.8,1.9-5.6,3.7-7.5,3.7l0,0c-0.9,0.9-3.7,0.9-6.5,0.9c-3.7,0-7.5-0.9-10.3-2.8
		c-3.7-1.9-6.5-4.7-9.3-8.4c-3.7-4.7-7.5-9.3-11.2-14c-3.7-4.7-7.5-9.3-9.3-14l-0.9-2.8l-3.7,0.9c-3.7,0.9-6.5,3.7-10.3,4.7
		c-3.7,0.9-5.6,1.9-9.3,1.9c-2.8,0-5.6-0.9-7.5-0.9c-3.7-0.9-5.6-3.7-8.4-7.5c-2.8-3.7-3.7-7.5-5.6-12.1l-0.9-1.9h-27.1l-0.9,1.9
		c-0.9,2.8-0.9,4.7-3.7,6.5c-1.9,3.7-5.6,5.6-9.3,7.5s-8.4,3.7-13.1,3.7c-0.9,0-0.9,0-0.9,0c-2.8,0-5.6-0.9-8.4-1.9
		c-2.8-0.9-5.6-2.8-7.5-4.7l-2.8-2.8l-1.9,3.7c-4.7,9.3-11.2,20.5-17.7,29.9c-2.8,3.7-5.6,6.5-9.3,8.4c-3.7,1.9-6.5,2.8-10.3,2.8
		c-2.8,0-4.7-0.9-6.5-0.9l0,0c-0.9-0.9-3.7-0.9-5.6-1.9c-2.8-0.9-5.6-3.7-7.5-7.5c-2.8-3.7-3.7-7.5-4.7-13.1c0-2.8,0-5.6,0-7.5
		c0-10.3,0.9-20.5,2.8-31.8c0.9-10.3,3.7-20.5,4.7-29.9c0.9-4.7,0.9-8.4,1.9-12.1l0,0l0,0c0-7.5,1.9-14,5.6-18.7
		c3.7-5.6,8.4-10.3,14-13.1l0.9-0.9v-0.9c0.9-3.7,0.9-6.5,1.9-9.3l0,0c0-0.9,0.9-1.9,0.9-2.8c0.9-0.9,2.8-2.8,5.6-3.7
		c2.8-0.9,5.6-0.9,8.4-0.9c3.7,0,7.5,0.9,10.3,1.9c0.9,0.9,2.8,0.9,3.7,2.8c0.9,0.9,0.9,1.9,1.9,3.7l2.8,12.1l0.9,0.9
		c0,0,0.9,0,0.9,0.9l0,0l0.9,0.9l0,0c0.9,0.9,0.9,0.9,1.9,0.9l0,0l0,0l0.9,0.9h101.8l0.9-0.9l0,0c0.9-0.9,0.9-0.9,1.9-0.9l0,0l0,0
		c0.9,0,0.9-0.9,0.9-0.9l0,0c0.9,0,0.9-0.9,0.9-0.9l0.9-0.9v-0.9c0.9-3.7,0.9-7.5,1.9-10.3l0,0l0,0c0-0.9,0.9-1.9,0.9-2.8
		c0.9-0.9,2.8-2.8,5.6-3.7c2.8-0.9,5.6-0.9,8.4-0.9c3.7,0,7.5,0.9,10.3,1.9c0.9,0.9,2.8,0.9,3.7,2.8c0.9,0.9,0.9,1.9,1.9,3.7l0,0
		l2.8,10.3l0.9,0.9c5.6,3.7,10.3,7.5,14,13.1c3.7,5.6,5.6,12.1,5.6,18.7l0,0l0,0c0.9,3.7,0.9,7.5,1.9,12.1l0,0L810.9,93.4z"/>
	<g>
		<g>
			<g>
				<g>
					<defs>
						<path id="SVGID_1_" d="M656.8,122.4c0.9,0.9,2.8,1.9,3.7,3.7c0.9,0.9,0.9,3.7,1.9,4.7c1.9,5.6,6.5,12.1,5.6,18.7
							c-0.9,7.5-9.3,12.1-16.8,14c-0.9,0.9-2.8,0.9-3.7,0.9c-0.9,0-1.9-0.9-2.8-0.9c-14-9.3-28-17.7-43-27.1
							c-3.7-2.8-8.4-5.6-10.3-9.3c-3.7-6.5-2.8-14.9,2.8-20.5c4.7-5.6,12.1-8.4,20.5-7.5c13.1,0.9,23.4,10.3,32.7,17.7
							C650.3,117.7,654,119.6,656.8,122.4z"/>
					</defs>
					<clipPath id="SVGID_00000009556187974100970040000001252700527296901800_">
						<use xlink:href="#SVGID_1_"  style="overflow:visible;"/>
					</clipPath>
					<path style="clip-path:url(#SVGID_00000009556187974100970040000001252700527296901800_);fill:#010101;" d="M731.5,96.2
						L731.5,96.2c-3.7-0.9-4.7-4.7-4.7-7.5l7.5-21.5c0.9-2.8,0.9-5.6,0.9-7.5l-3.7-36.4c-8.4,0-15.9,7.5-15.9,15.9
						c0,0.9,0,0.9,0,1.9l1.9,18.7c0,2.8,0,4.7-0.9,7.5l-7.5,22.4c-0.9,3.7-3.7,5.6-7.5,5.6s-7.5-3.7-7.5-7.5V6.5
						c-10.3,0-17.7,7.5-17.7,17.7v63.5c0,3.7-3.7,7.5-7.5,7.5c-3.7,0-6.5-2.8-7.5-5.6l-2.8-16.8c-0.9-2.8-0.9-5.6-2.8-7.5
						l-16.8-31.8c-7.5,5.6-10.3,14.9-6.5,23.4l7.5,18.7c0.9,0.9,0.9,2.8,0.9,4.7l6.5,34.6c0.9,2.8-0.9,4.7-3.7,5.6
						c-0.9,0-1.9,0-2.8-0.9l-20.5-10.3c-6.5-3.7-14.9-0.9-18.7,6.5c-0.9,1.9-0.9,3.7-0.9,5.6l13.1,6.5c22.4,11.2,38.3,31.8,43.9,56
						c0.9,2.8,0.9,4.7,0.9,7.5v88.7h71v-88.7c0-6.5,0.9-13.1,4.7-18.7c2.8-5.6,5.6-12.1,6.5-18.7l5.6-25.2
						c0.9-5.6,3.7-11.2,7.5-15.9l12.1-14c2.8-3.7,3.7-7.5,3.7-11.2V49.5h-9.3c-4.7,0-8.4,3.7-9.3,8.4l-0.9,20.5
						c0,6.5-3.7,12.1-9.3,14.9l-3.7,1.9C736.2,98.1,733.4,98.1,731.5,96.2z"/>
				</g>
			</g>
		</g>
		<g>
			<g>
				<g>
					<defs>
						<path id="SVGID_00000057147090258069087540000012510271266605337477_" d="M656.8,122.4c0.9,0.9,2.8,1.9,3.7,3.7
							c0.9,0.9,0.9,3.7,1.9,4.7c1.9,5.6,6.5,12.1,5.6,18.7c-0.9,7.5-9.3,12.1-16.8,14c-0.9,0.9-2.8,0.9-3.7,0.9
							c-0.9,0-1.9-0.9-2.8-0.9c-14-9.3-28-17.7-43-27.1c-3.7-2.8-8.4-5.6-10.3-9.3c-3.7-6.5-2.8-14.9,2.8-20.5
							c4.7-5.6,12.1-8.4,20.5-7.5c13.1,0.9,23.4,10.3,32.7,17.7C650.3,117.7,654,119.6,656.8,122.4z"/>
					</defs>
					<clipPath id="SVGID_00000160902570262831545840000009061977318711561912_">
						<use xlink:href="#SVGID_00000057147090258069087540000012510271266605337477_"  style="overflow:visible;"/>
					</clipPath>
					<path style="clip-path:url(#SVGID_00000160902570262831545840000009061977318711561912_);fill:#FFFFFF;" d="M744.6,114
						c-0.9,0-1.9-0.9-1.9-1.9s0-0.9,0.9-0.9c0.9-0.9,1.9-2.8,2.8-3.7l10.3-12.1c0.9-0.9,1.9-0.9,3.7,0c0.9,0.9,0.9,1.9,0,3.7
						l-10.3,12.1c-0.9,0.9-1.9,2.8-2.8,3.7S744.6,114,744.6,114z"/>
				</g>
			</g>
		</g>
		<g>
			<g>
				<g>
					<defs>
						<path id="SVGID_00000094618503618127339540000016784977503847103654_" d="M656.8,122.4c0.9,0.9,2.8,1.9,3.7,3.7
							c0.9,0.9,0.9,3.7,1.9,4.7c1.9,5.6,6.5,12.1,5.6,18.7c-0.9,7.5-9.3,12.1-16.8,14c-0.9,0.9-2.8,0.9-3.7,0.9
							c-0.9,0-1.9-0.9-2.8-0.9c-14-9.3-28-17.7-43-27.1c-3.7-2.8-8.4-5.6-10.3-9.3c-3.7-6.5-2.8-14.9,2.8-20.5
							c4.7-5.6,12.1-8.4,20.5-7.5c13.1,0.9,23.4,10.3,32.7,17.7C650.3,117.7,654,119.6,656.8,122.4z"/>
					</defs>
					<clipPath id="SVGID_00000030485233756547412100000006171377102772324799_">
						<use xlink:href="#SVGID_00000094618503618127339540000016784977503847103654_"  style="overflow:visible;"/>
					</clipPath>
					<path style="clip-path:url(#SVGID_00000030485233756547412100000006171377102772324799_);fill:#050605;" d="M612,252.2
						c-4.7-14.9,0.9-31.8,13.1-48.6c-1.9,16.8,0,32.7,4.7,48.6H612z"/>
				</g>
			</g>
		</g>
		<g>
			<g>
				<g>
					<defs>
						<path id="SVGID_00000165217427751449398500000014497542615443357835_" d="M656.8,122.4c0.9,0.9,2.8,1.9,3.7,3.7
							c0.9,0.9,0.9,3.7,1.9,4.7c1.9,5.6,6.5,12.1,5.6,18.7c-0.9,7.5-9.3,12.1-16.8,14c-0.9,0.9-2.8,0.9-3.7,0.9
							c-0.9,0-1.9-0.9-2.8-0.9c-14-9.3-28-17.7-43-27.1c-3.7-2.8-8.4-5.6-10.3-9.3c-3.7-6.5-2.8-14.9,2.8-20.5
							c4.7-5.6,12.1-8.4,20.5-7.5c13.1,0.9,23.4,10.3,32.7,17.7C650.3,117.7,654,119.6,656.8,122.4z"/>
					</defs>
					<clipPath id="SVGID_00000116940790697072037700000010603985748380923832_">
						<use xlink:href="#SVGID_00000165217427751449398500000014497542615443357835_"  style="overflow:visible;"/>
					</clipPath>
					<path style="clip-path:url(#SVGID_00000116940790697072037700000010603985748380923832_);fill:#84B27C;" d="M625,261.5
						c-4.7-14.9,0.9-31.8,13.1-48.6c-1.9,16.8,0,32.7,4.7,48.6H625z"/>
				</g>
			</g>
		</g>
		<g>
			<g>
				<g>
					<defs>
						<path id="SVGID_00000011728350473279547210000001380247872632452028_" d="M656.8,122.4c0.9,0.9,2.8,1.9,3.7,3.7
							c0.9,0.9,0.9,3.7,1.9,4.7c1.9,5.6,6.5,12.1,5.6,18.7c-0.9,7.5-9.3,12.1-16.8,14c-0.9,0.9-2.8,0.9-3.7,0.9
							c-0.9,0-1.9-0.9-2.8-0.9c-14-9.3-28-17.7-43-27.1c-3.7-2.8-8.4-5.6-10.3-9.3c-3.7-6.5-2.8-14.9,2.8-20.5
							c4.7-5.6,12.1-8.4,20.5-7.5c13.1,0.9,23.4,10.3,32.7,17.7C650.3,117.7,654,119.6,656.8,122.4z"/>
					</defs>
					<clipPath id="SVGID_00000159451813904900550700000013554833292344653957_">
						<use xlink:href="#SVGID_00000011728350473279547210000001380247872632452028_"  style="overflow:visible;"/>
					</clipPath>
					<path style="clip-path:url(#SVGID_00000159451813904900550700000013554833292344653957_);fill:#84B27C;" d="M796.9,261.5
						c-4.7-14.9,0.9-31.8,13.1-48.6c-1.9,16.8,0,32.7,4.7,48.6H796.9z"/>
				</g>
			</g>
		</g>
		<g>
			<g>
				<g>
					<defs>
						<path id="SVGID_00000166633396125800371030000014050901196008884880_" d="M656.8,122.4c0.9,0.9,2.8,1.9,3.7,3.7
							c0.9,0.9,0.9,3.7,1.9,4.7c1.9,5.6,6.5,12.1,5.6,18.7c-0.9,7.5-9.3,12.1-16.8,14c-0.9,0.9-2.8,0.9-3.7,0.9
							c-0.9,0-1.9-0.9-2.8-0.9c-14-9.3-28-17.7-43-27.1c-3.7-2.8-8.4-5.6-10.3-9.3c-3.7-6.5-2.8-14.9,2.8-20.5
							c4.7-5.6,12.1-8.4,20.5-7.5c13.1,0.9,23.4,10.3,32.7,17.7C650.3,117.7,654,119.6,656.8,122.4z"/>
					</defs>
					<clipPath id="SVGID_00000039091837894673392170000014787353658370719881_">
						<use xlink:href="#SVGID_00000166633396125800371030000014050901196008884880_"  style="overflow:visible;"/>
					</clipPath>
					<path style="clip-path:url(#SVGID_00000039091837894673392170000014787353658370719881_);fill:#84B27C;" d="M704.4,261.5
						c-4.7-14.9,0.9-31.8,13.1-48.6c-1.9,16.8,0,32.7,4.7,48.6H704.4z"/>
				</g>
			</g>
		</g>
		<g>
			<g>
				<g>
					<defs>
						<path id="SVGID_00000016767457607063990370000012617750876160361112_" d="M656.8,122.4c0.9,0.9,2.8,1.9,3.7,3.7
							c0.9,0.9,0.9,3.7,1.9,4.7c1.9,5.6,6.5,12.1,5.6,18.7c-0.9,7.5-9.3,12.1-16.8,14c-0.9,0.9-2.8,0.9-3.7,0.9
							c-0.9,0-1.9-0.9-2.8-0.9c-14-9.3-28-17.7-43-27.1c-3.7-2.8-8.4-5.6-10.3-9.3c-3.7-6.5-2.8-14.9,2.8-20.5
							c4.7-5.6,12.1-8.4,20.5-7.5c13.1,0.9,23.4,10.3,32.7,17.7C650.3,117.7,654,119.6,656.8,122.4z"/>
					</defs>
					<clipPath id="SVGID_00000048468361763604653250000005725182665220592049_">
						<use xlink:href="#SVGID_00000016767457607063990370000012617750876160361112_"  style="overflow:visible;"/>
					</clipPath>
					<path style="clip-path:url(#SVGID_00000048468361763604653250000005725182665220592049_);fill:#84B27C;" d="M759.5,256.9
						c4.7-14.9-0.9-31.8-13.1-48.6c1.9,16.8,0,32.7-4.7,48.6H759.5z"/>
				</g>
			</g>
		</g>
		<g>
			<g>
				<g>
					<defs>
						<path id="SVGID_00000100366213903516489960000016962320432427003297_" d="M656.8,122.4c0.9,0.9,2.8,1.9,3.7,3.7
							c0.9,0.9,0.9,3.7,1.9,4.7c1.9,5.6,6.5,12.1,5.6,18.7c-0.9,7.5-9.3,12.1-16.8,14c-0.9,0.9-2.8,0.9-3.7,0.9
							c-0.9,0-1.9-0.9-2.8-0.9c-14-9.3-28-17.7-43-27.1c-3.7-2.8-8.4-5.6-10.3-9.3c-3.7-6.5-2.8-14.9,2.8-20.5
							c4.7-5.6,12.1-8.4,20.5-7.5c13.1,0.9,23.4,10.3,32.7,17.7C650.3,117.7,654,119.6,656.8,122.4z"/>
					</defs>
					<clipPath id="SVGID_00000094605159246011246400000002791896127433314448_">
						<use xlink:href="#SVGID_00000100366213903516489960000016962320432427003297_"  style="overflow:visible;"/>
					</clipPath>
					<path style="clip-path:url(#SVGID_00000094605159246011246400000002791896127433314448_);fill:#010101;" d="M702.6,252.2
						c4.7-14.9-0.9-31.8-13.1-48.6c1.9,16.8,0,32.7-4.7,48.6H702.6z"/>
				</g>
			</g>
		</g>
		<g>
			<g>
				<g>
					<defs>
						<path id="SVGID_00000178883261112444114780000010462672875656931973_" d="M656.8,122.4c0.9,0.9,2.8,1.9,3.7,3.7
							c0.9,0.9,0.9,3.7,1.9,4.7c1.9,5.6,6.5,12.1,5.6,18.7c-0.9,7.5-9.3,12.1-16.8,14c-0.9,0.9-2.8,0.9-3.7,0.9
							c-0.9,0-1.9-0.9-2.8-0.9c-14-9.3-28-17.7-43-27.1c-3.7-2.8-8.4-5.6-10.3-9.3c-3.7-6.5-2.8-14.9,2.8-20.5
							c4.7-5.6,12.1-8.4,20.5-7.5c13.1,0.9,23.4,10.3,32.7,17.7C650.3,117.7,654,119.6,656.8,122.4z"/>
					</defs>
					<clipPath id="SVGID_00000158711627626329594540000015851643948345465510_">
						<use xlink:href="#SVGID_00000178883261112444114780000010462672875656931973_"  style="overflow:visible;"/>
					</clipPath>
					<path style="clip-path:url(#SVGID_00000158711627626329594540000015851643948345465510_);fill:#050605;" d="M583.9,243.8
						c4.7-14.9-0.9-31.8-13.1-48.6c1.9,16.8,0,32.7-4.7,48.6H583.9z"/>
				</g>
			</g>
		</g>
		<g>
			<g>
				<g>
					<defs>
						<path id="SVGID_00000116225059716732029150000003890435356764144801_" d="M656.8,122.4c0.9,0.9,2.8,1.9,3.7,3.7
							c0.9,0.9,0.9,3.7,1.9,4.7c1.9,5.6,6.5,12.1,5.6,18.7c-0.9,7.5-9.3,12.1-16.8,14c-0.9,0.9-2.8,0.9-3.7,0.9
							c-0.9,0-1.9-0.9-2.8-0.9c-14-9.3-28-17.7-43-27.1c-3.7-2.8-8.4-5.6-10.3-9.3c-3.7-6.5-2.8-14.9,2.8-20.5
							c4.7-5.6,12.1-8.4,20.5-7.5c13.1,0.9,23.4,10.3,32.7,17.7C650.3,117.7,654,119.6,656.8,122.4z"/>
					</defs>
					<clipPath id="SVGID_00000047774440375636286970000000943780845913478021_">
						<use xlink:href="#SVGID_00000116225059716732029150000003890435356764144801_"  style="overflow:visible;"/>
					</clipPath>
					<path style="clip-path:url(#SVGID_00000047774440375636286970000000943780845913478021_);fill:#ED2224;" d="M550.3,279.3H824
						v-0.9c0-16.8-12.1-31.8-29-36.4c-7.5-1.9-15.9-2.8-24.3-2.8h-34.6c-12.1,0-24.3,0.9-35.5,4.7l-17.7,4.7H682
						c-23.4,6.5-48.6,3.7-70.1-6.5l-13.1-6.5c-19.6-6.5-41.1,4.7-46.7,24.3c-0.9,3.7-1.9,7.5-1.9,11.2L550.3,279.3L550.3,279.3z"/>
				</g>
			</g>
		</g>
		<g>
			<g>
				<g>
					<defs>
						<path id="SVGID_00000169534985958637318860000001455099973975696574_" d="M656.8,122.4c0.9,0.9,2.8,1.9,3.7,3.7
							c0.9,0.9,0.9,3.7,1.9,4.7c1.9,5.6,6.5,12.1,5.6,18.7c-0.9,7.5-9.3,12.1-16.8,14c-0.9,0.9-2.8,0.9-3.7,0.9
							c-0.9,0-1.9-0.9-2.8-0.9c-14-9.3-28-17.7-43-27.1c-3.7-2.8-8.4-5.6-10.3-9.3c-3.7-6.5-2.8-14.9,2.8-20.5
							c4.7-5.6,12.1-8.4,20.5-7.5c13.1,0.9,23.4,10.3,32.7,17.7C650.3,117.7,654,119.6,656.8,122.4z"/>
					</defs>
					<clipPath id="SVGID_00000176040138838965346900000004484498155067328135_">
						<use xlink:href="#SVGID_00000169534985958637318860000001455099973975696574_"  style="overflow:visible;"/>
					</clipPath>
					<path style="clip-path:url(#SVGID_00000176040138838965346900000004484498155067328135_);fill:#AF1F23;" d="M571.8,265.3
						c-4.7,0-8.4-3.7-8.4-8.4c0-6.5,1.9-13.1,5.6-18.7c-11.2,6.5-18.7,18.7-18.7,31.8v8.4H824l0,0c0-3.7-0.9-8.4-1.9-12.1H571.8
						V265.3z"/>
				</g>
			</g>
		</g>
		<g>
			<g>
				<g>
					<defs>
						<path id="SVGID_00000124840392779441033460000010282202040509870268_" d="M656.8,122.4c0.9,0.9,2.8,1.9,3.7,3.7
							c0.9,0.9,0.9,3.7,1.9,4.7c1.9,5.6,6.5,12.1,5.6,18.7c-0.9,7.5-9.3,12.1-16.8,14c-0.9,0.9-2.8,0.9-3.7,0.9
							c-0.9,0-1.9-0.9-2.8-0.9c-14-9.3-28-17.7-43-27.1c-3.7-2.8-8.4-5.6-10.3-9.3c-3.7-6.5-2.8-14.9,2.8-20.5
							c4.7-5.6,12.1-8.4,20.5-7.5c13.1,0.9,23.4,10.3,32.7,17.7C650.3,117.7,654,119.6,656.8,122.4z"/>
					</defs>
					<clipPath id="SVGID_00000108293676765457680450000006421345859852976519_">
						<use xlink:href="#SVGID_00000124840392779441033460000010282202040509870268_"  style="overflow:visible;"/>
					</clipPath>
					<path style="clip-path:url(#SVGID_00000108293676765457680450000006421345859852976519_);fill:#ED2224;" d="M615.7,169.1
						c-0.9,0-0.9,0-1.9,0c-0.9-2.8-3.7-4.7-7.5-4.7c-5.6,0.9-9.3,5.6-8.4,11.2c-0.9,5.6,3.7,10.3,8.4,11.2c0.9,0,0.9,0,1.9,0
						c0.9,2.8,3.7,4.7,7.5,4.7c5.6-0.9,9.3-5.6,8.4-11.2C626,174.7,621.3,169.1,615.7,169.1z"/>
				</g>
			</g>
		</g>
		<g>
			<g>
				<g>
					<defs>
						<path id="SVGID_00000080194624945844726550000012220554323735744425_" d="M656.8,122.4c0.9,0.9,2.8,1.9,3.7,3.7
							c0.9,0.9,0.9,3.7,1.9,4.7c1.9,5.6,6.5,12.1,5.6,18.7c-0.9,7.5-9.3,12.1-16.8,14c-0.9,0.9-2.8,0.9-3.7,0.9
							c-0.9,0-1.9-0.9-2.8-0.9c-14-9.3-28-17.7-43-27.1c-3.7-2.8-8.4-5.6-10.3-9.3c-3.7-6.5-2.8-14.9,2.8-20.5
							c4.7-5.6,12.1-8.4,20.5-7.5c13.1,0.9,23.4,10.3,32.7,17.7C650.3,117.7,654,119.6,656.8,122.4z"/>
					</defs>
					<clipPath id="SVGID_00000001625361968815052260000009880314019884431513_">
						<use xlink:href="#SVGID_00000080194624945844726550000012220554323735744425_"  style="overflow:visible;"/>
					</clipPath>
					<path style="clip-path:url(#SVGID_00000001625361968815052260000009880314019884431513_);fill:#AF1F23;" d="M620.4,182.1
						c-3.7,0-5.6-1.9-7.5-4.7c-0.9,0-0.9,0-1.9,0c-5.6-0.9-9.3-5.6-8.4-11.2l0,0c-2.8,1.9-4.7,5.6-4.7,10.3
						c-0.9,5.6,3.7,10.3,8.4,11.2c0.9,0,0.9,0,1.9,0c0.9,2.8,3.7,4.7,7.5,4.7c5.6-0.9,9.3-5.6,8.4-10.3
						C624.1,182.1,622.2,182.1,620.4,182.1z"/>
				</g>
			</g>
		</g>
		<g>
			<g>
				<g>
					<defs>
						<path id="SVGID_00000039853470462222873750000011085058046130138031_" d="M656.8,122.4c0.9,0.9,2.8,1.9,3.7,3.7
							c0.9,0.9,0.9,3.7,1.9,4.7c1.9,5.6,6.5,12.1,5.6,18.7c-0.9,7.5-9.3,12.1-16.8,14c-0.9,0.9-2.8,0.9-3.7,0.9
							c-0.9,0-1.9-0.9-2.8-0.9c-14-9.3-28-17.7-43-27.1c-3.7-2.8-8.4-5.6-10.3-9.3c-3.7-6.5-2.8-14.9,2.8-20.5
							c4.7-5.6,12.1-8.4,20.5-7.5c13.1,0.9,23.4,10.3,32.7,17.7C650.3,117.7,654,119.6,656.8,122.4z"/>
					</defs>
					<clipPath id="SVGID_00000003809487052291219360000018044786485952143795_">
						<use xlink:href="#SVGID_00000039853470462222873750000011085058046130138031_"  style="overflow:visible;"/>
					</clipPath>
					<path style="clip-path:url(#SVGID_00000003809487052291219360000018044786485952143795_);fill:#ED2224;" d="M800.6,102.7
						c-3.7,0-7.5,3.7-8.4,9.3c0,0,0,0-0.9,0c-5.6,0-9.3,5.6-9.3,13.1s3.7,13.1,9.3,13.1c3.7,0,7.5-3.7,8.4-9.3c0,0,0,0,0.9,0
						c5.6,0,9.3-5.6,9.3-13.1S806.3,102.7,800.6,102.7z"/>
				</g>
			</g>
		</g>
		<g>
			<g>
				<g>
					<defs>
						<path id="SVGID_00000065791145970770601230000004895715115086528152_" d="M656.8,122.4c0.9,0.9,2.8,1.9,3.7,3.7
							c0.9,0.9,0.9,3.7,1.9,4.7c1.9,5.6,6.5,12.1,5.6,18.7c-0.9,7.5-9.3,12.1-16.8,14c-0.9,0.9-2.8,0.9-3.7,0.9
							c-0.9,0-1.9-0.9-2.8-0.9c-14-9.3-28-17.7-43-27.1c-3.7-2.8-8.4-5.6-10.3-9.3c-3.7-6.5-2.8-14.9,2.8-20.5
							c4.7-5.6,12.1-8.4,20.5-7.5c13.1,0.9,23.4,10.3,32.7,17.7C650.3,117.7,654,119.6,656.8,122.4z"/>
					</defs>
					<clipPath id="SVGID_00000157272307255018615410000014463969956835619000_">
						<use xlink:href="#SVGID_00000065791145970770601230000004895715115086528152_"  style="overflow:visible;"/>
					</clipPath>
					<path style="clip-path:url(#SVGID_00000157272307255018615410000014463969956835619000_);fill:#AF1F23;" d="M792.2,120.5
						c0-7.5,3.7-13.1,9.3-13.1c0,0,0,0,0.9,0c0.9-0.9,0.9-2.8,0.9-3.7c-0.9,0-0.9-0.9-1.9-0.9c-3.7,0-7.5,3.7-8.4,9.3c0,0,0,0-0.9,0
						c-5.6,0-9.3,5.6-9.3,13.1s3.7,13.1,9.3,13.1c3.7,0,5.6-1.9,6.5-4.7C794.1,130.8,791.3,126.1,792.2,120.5z"/>
				</g>
			</g>
		</g>
		<g>
			<g>
				<g>
					<defs>
						<path id="SVGID_00000168796993824576685740000011984171421401456055_" d="M656.8,122.4c0.9,0.9,2.8,1.9,3.7,3.7
							c0.9,0.9,0.9,3.7,1.9,4.7c1.9,5.6,6.5,12.1,5.6,18.7c-0.9,7.5-9.3,12.1-16.8,14c-0.9,0.9-2.8,0.9-3.7,0.9
							c-0.9,0-1.9-0.9-2.8-0.9c-14-9.3-28-17.7-43-27.1c-3.7-2.8-8.4-5.6-10.3-9.3c-3.7-6.5-2.8-14.9,2.8-20.5
							c4.7-5.6,12.1-8.4,20.5-7.5c13.1,0.9,23.4,10.3,32.7,17.7C650.3,117.7,654,119.6,656.8,122.4z"/>
					</defs>
					<clipPath id="SVGID_00000123404816634102404520000012678386753337299363_">
						<use xlink:href="#SVGID_00000168796993824576685740000011984171421401456055_"  style="overflow:visible;"/>
					</clipPath>
					<path style="clip-path:url(#SVGID_00000123404816634102404520000012678386753337299363_);fill:#ED2224;" d="M620.4,71.9
						c4.7,0,8.4,3.7,8.4,8.4c0,4.7-3.7,8.4-8.4,8.4S612,85,612,80.3C612,75.7,615.7,71.9,620.4,71.9z"/>
				</g>
			</g>
		</g>
		<g>
			<g>
				<g>
					<defs>
						<path id="SVGID_00000084504803712877322880000001869331257838857891_" d="M656.8,122.4c0.9,0.9,2.8,1.9,3.7,3.7
							c0.9,0.9,0.9,3.7,1.9,4.7c1.9,5.6,6.5,12.1,5.6,18.7c-0.9,7.5-9.3,12.1-16.8,14c-0.9,0.9-2.8,0.9-3.7,0.9
							c-0.9,0-1.9-0.9-2.8-0.9c-14-9.3-28-17.7-43-27.1c-3.7-2.8-8.4-5.6-10.3-9.3c-3.7-6.5-2.8-14.9,2.8-20.5
							c4.7-5.6,12.1-8.4,20.5-7.5c13.1,0.9,23.4,10.3,32.7,17.7C650.3,117.7,654,119.6,656.8,122.4z"/>
					</defs>
					<clipPath id="SVGID_00000010995077676612666980000002467320191503141279_">
						<use xlink:href="#SVGID_00000084504803712877322880000001869331257838857891_"  style="overflow:visible;"/>
					</clipPath>
					<path style="clip-path:url(#SVGID_00000010995077676612666980000002467320191503141279_);fill:#ED2224;" d="M687.6,115.8
						c-3.7-3.7-7.5-5.6-12.1-4.7c-5.6,0.9-9.3,5.6-10.3,10.3c-0.9,4.7,0.9,9.3,4.7,12.1c2.8,1.9,5.6,4.7,7.5,7.5
						c3.7,3.7,7.5,5.6,12.1,4.7c5.6-0.9,9.3-5.6,10.3-10.3c0.9-4.7-0.9-9.3-4.7-12.1C692.3,121.4,689.5,118.6,687.6,115.8z"/>
				</g>
			</g>
		</g>
		<g>
			<g>
				<g>
					<defs>
						<path id="SVGID_00000117647171164173171160000016100907505170756767_" d="M656.8,122.4c0.9,0.9,2.8,1.9,3.7,3.7
							c0.9,0.9,0.9,3.7,1.9,4.7c1.9,5.6,6.5,12.1,5.6,18.7c-0.9,7.5-9.3,12.1-16.8,14c-0.9,0.9-2.8,0.9-3.7,0.9
							c-0.9,0-1.9-0.9-2.8-0.9c-14-9.3-28-17.7-43-27.1c-3.7-2.8-8.4-5.6-10.3-9.3c-3.7-6.5-2.8-14.9,2.8-20.5
							c4.7-5.6,12.1-8.4,20.5-7.5c13.1,0.9,23.4,10.3,32.7,17.7C650.3,117.7,654,119.6,656.8,122.4z"/>
					</defs>
					<clipPath id="SVGID_00000065058666748366383580000017946251718708335234_">
						<use xlink:href="#SVGID_00000117647171164173171160000016100907505170756767_"  style="overflow:visible;"/>
					</clipPath>
					<path style="clip-path:url(#SVGID_00000065058666748366383580000017946251718708335234_);fill:#AF1F23;" d="M693.2,138.2
						c-4.7,0.9-9.3-0.9-12.1-4.7c-1.9-2.8-4.7-5.6-7.5-7.5c-3.7-2.8-5.6-6.5-4.7-11.2c-5.6,4.7-5.6,13.1-0.9,18.7
						c0.9,0.9,0.9,0.9,0.9,0.9c2.8,1.9,5.6,4.7,7.5,7.5c3.7,3.7,7.5,5.6,12.1,4.7c5.6-0.9,9.3-5.6,10.3-10.3c0-0.9,0-0.9,0-0.9
						C697.9,136.4,696,137.3,693.2,138.2z"/>
				</g>
			</g>
		</g>
		<g>
			<g>
				<g>
					<defs>
						<path id="SVGID_00000063606409314741767970000001202451344401468297_" d="M656.8,122.4c0.9,0.9,2.8,1.9,3.7,3.7
							c0.9,0.9,0.9,3.7,1.9,4.7c1.9,5.6,6.5,12.1,5.6,18.7c-0.9,7.5-9.3,12.1-16.8,14c-0.9,0.9-2.8,0.9-3.7,0.9
							c-0.9,0-1.9-0.9-2.8-0.9c-14-9.3-28-17.7-43-27.1c-3.7-2.8-8.4-5.6-10.3-9.3c-3.7-6.5-2.8-14.9,2.8-20.5
							c4.7-5.6,12.1-8.4,20.5-7.5c13.1,0.9,23.4,10.3,32.7,17.7C650.3,117.7,654,119.6,656.8,122.4z"/>
					</defs>
					<clipPath id="SVGID_00000169517287591588875990000006815381071756190617_">
						<use xlink:href="#SVGID_00000063606409314741767970000001202451344401468297_"  style="overflow:visible;"/>
					</clipPath>
					<path style="clip-path:url(#SVGID_00000169517287591588875990000006815381071756190617_);fill:#ED2224;" d="M740.9,129.8
						c-11.2-0.9-20.5,7.5-23.4,17.7c0,0.9-0.9,2.8-0.9,4.7c0,4.7-0.9,9.3-3.7,12.1c-7.5,9.3-6.5,23.4,3.7,30.8
						c2.8,1.9,5.6,3.7,9.3,4.7c0.9,0.9,3.7,0.9,4.7,0.9v-7.5c0-6.5,0.9-13.1,4.7-18.7c2.8-5.6,5.6-12.1,6.5-18.7l4.7-24.3
						C744.6,129.8,742.7,129.8,740.9,129.8z"/>
				</g>
			</g>
		</g>
		<g>
			<g>
				<g>
					<defs>
						<path id="SVGID_00000139976825859071219210000009956380118151364016_" d="M656.8,122.4c0.9,0.9,2.8,1.9,3.7,3.7
							c0.9,0.9,0.9,3.7,1.9,4.7c1.9,5.6,6.5,12.1,5.6,18.7c-0.9,7.5-9.3,12.1-16.8,14c-0.9,0.9-2.8,0.9-3.7,0.9
							c-0.9,0-1.9-0.9-2.8-0.9c-14-9.3-28-17.7-43-27.1c-3.7-2.8-8.4-5.6-10.3-9.3c-3.7-6.5-2.8-14.9,2.8-20.5
							c4.7-5.6,12.1-8.4,20.5-7.5c13.1,0.9,23.4,10.3,32.7,17.7C650.3,117.7,654,119.6,656.8,122.4z"/>
					</defs>
					<clipPath id="SVGID_00000174599610979334596020000006129093129262251661_">
						<use xlink:href="#SVGID_00000139976825859071219210000009956380118151364016_"  style="overflow:visible;"/>
					</clipPath>
					<path style="clip-path:url(#SVGID_00000174599610979334596020000006129093129262251661_);fill:#AF1F23;" d="M730.6,186.8
						c-0.9,0-3.7,0-4.7-0.9c-7.5-1.9-14-7.5-16.8-14.9c-3.7,12.1,2.8,23.4,14,27.1c0.9,0,0.9,0.9,1.9,0.9c0.9,0,3.7,0.9,4.7,0.9
						v-13.1H730.6z"/>
				</g>
			</g>
		</g>
		<g>
			<g>
				<g>
					<defs>
						<path id="SVGID_00000170270131623598594980000017093673166159567015_" d="M656.8,122.4c0.9,0.9,2.8,1.9,3.7,3.7
							c0.9,0.9,0.9,3.7,1.9,4.7c1.9,5.6,6.5,12.1,5.6,18.7c-0.9,7.5-9.3,12.1-16.8,14c-0.9,0.9-2.8,0.9-3.7,0.9
							c-0.9,0-1.9-0.9-2.8-0.9c-14-9.3-28-17.7-43-27.1c-3.7-2.8-8.4-5.6-10.3-9.3c-3.7-6.5-2.8-14.9,2.8-20.5
							c4.7-5.6,12.1-8.4,20.5-7.5c13.1,0.9,23.4,10.3,32.7,17.7C650.3,117.7,654,119.6,656.8,122.4z"/>
					</defs>
					<clipPath id="SVGID_00000139276365966581701550000010765483379066995586_">
						<use xlink:href="#SVGID_00000170270131623598594980000017093673166159567015_"  style="overflow:visible;"/>
					</clipPath>
					<path style="clip-path:url(#SVGID_00000139276365966581701550000010765483379066995586_);fill:#010101;" d="M815.6,249.4
						c-1.9-12.1-2.8-23.4-0.9-36.4c0-2.8-0.9-4.7-3.7-4.7c-0.9,0-3.7,0.9-3.7,1.9c-5.6,7.5-10.3,16.8-14,27.1
						c-7.5-0.9-14.9-1.9-22.4-1.9h-5.6c-2.8-10.3-7.5-20.5-14-29c-0.9-1.9-3.7-2.8-5.6-0.9c-0.9,0.9-1.9,2.8-1.9,3.7
						c0.9,8.4,0.9,17.7,0,26.2h-6.5c0,0,0,0-0.9,0v-43c0-5.6,0.9-12.1,3.7-16.8c3.7-5.6,5.6-13.1,6.5-19.6l5.6-25.2
						c0.9-5.6,3.7-10.3,6.5-14l12.1-14c3.7-3.7,5.6-9.3,5.6-14V50.4c0-2.8-1.9-4.7-4.7-4.7h-9.3c-7.5,0-13.1,5.6-13.1,13.1v21.5
						c0,2.8-0.9,6.5-7.5,10.3l-3.7,1.9c-0.9,0.9-2.8,0.9-3.7,0c-0.9-0.9-1.9-1.9-1.9-3.7l7.5-20.5c0.9-3.7,0.9-5.6,0.9-9.3
						l-3.7-36.4c0-1.9-1.9-3.7-4.7-3.7c-11.2,0-20.5,9.3-20.5,20.5c0,0.9,0,0.9,0,1.9l1.9,18.7c0,1.9,0,3.7-0.9,5.6l-6.5,22.4
						c-0.9,0.9-1.9,2.8-3.7,1.9c-1.9-0.9-2.8-1.9-2.8-3.7V6.5c0-2.8-1.9-4.7-4.7-4.7c-12.1,0-22.4,10.3-22.4,22.4v63.5
						c0,0.9-0.9,2.8-2.8,2.8s-2.8-0.9-2.8-2.8L664.3,71c-0.9-3.7-0.9-6.5-3.7-9.3l-16.8-31.8c-0.9-0.9-1.9-1.9-2.8-1.9
						s-2.8,0-3.7,0.9c-8.4,6.5-12.1,18.7-8.4,28l7.5,18.7c0.9,0.9,0.9,2.8,0.9,3.7l6.5,34.6l-20.5-10.3c-9.3-4.7-19.6-0.9-24.3,8.4
						c-0.9,2.8-1.9,5.6-1.9,7.5c0,1.9,0.9,3.7,2.8,3.7l13.1,6.5c20.5,10.3,36.4,29.9,41.1,53.2c0.9,1.9,0.9,3.7,0.9,6.5v57
						c-3.7,0-7.5,0-12.1-0.9c-1.9-11.2-1.9-22.4-0.9-33.6c0-2.8-0.9-4.7-3.7-4.7c-0.9,0-3.7,0.9-3.7,1.9c-1.9,3.7-3.7,5.6-5.6,9.3
						c0-4.7,0-10.3,0.9-14.9c0-2.8-0.9-4.7-3.7-4.7c-0.9,0-3.7,0.9-3.7,1.9c-7.5,10.3-12.1,20.5-14.9,32.7l-5.6-3.7h-0.9
						c-3.7-0.9-6.5-1.9-10.3-1.9c-1.9-13.1-7.5-25.2-14.9-36.4c-0.9-1.9-3.7-2.8-5.6-0.9c-0.9,0.9-1.9,2.8-1.9,3.7
						c0.9,14,0.9,27.1-2.8,41.1l-0.9,0.9c-10.3,7.5-16.8,20.5-16.8,33.6v8.4c0,2.8,1.9,4.7,4.7,4.7h273.7c2.8,0,4.7-1.9,4.7-4.7
						v-0.9C827.7,268.1,824,256.9,815.6,249.4z M806.3,241.9c-0.9-0.9-2.8-0.9-4.7-1.9c0.9-3.7,1.9-6.5,3.7-10.3
						C805.3,233.5,805.3,237.3,806.3,241.9z M751.1,226c0.9,3.7,2.8,6.5,3.7,10.3h-3.7C751.1,231.6,751.1,228.8,751.1,226z
						 M737.1,154.1c-0.9,5.6-3.7,12.1-5.6,16.8c-3.7,6.5-4.7,14-4.7,20.5v2.8c-9.3-2.8-14.9-12.1-12.1-21.5c0.9-2.8,1.9-4.7,3.7-6.5
						c3.7-4.7,5.6-10.3,4.7-14.9c0-0.9,0-1.9,0.9-3.7c1.9-8.4,10.3-14,18.7-14c0,0,0,0,0.9,0L737.1,154.1z M663.3,182.1
						c-5.6-25.2-22.4-47.6-45.8-58.8l-10.3-5.6c0.9-5.6,6.5-7.5,12.1-6.5c0.9,0,0.9,0.9,0.9,0.9l20.5,10.3
						c4.7,1.9,10.3,0.9,12.1-3.7c0.9-1.9,0.9-3.7,0.9-5.6l-6.5-34.6c-0.9-1.9-0.9-3.7-0.9-5.6l-7.5-18.7c-1.9-4.7-0.9-10.3,0.9-14
						l14,26.2c0.9,1.9,1.9,4.7,1.9,6.5l2.8,16.8c0.9,6.5,7.5,10.3,13.1,10.3c5.6-0.9,10.3-5.6,10.3-11.2V24.3
						c0-5.6,3.7-10.3,8.4-12.1v75.7c0,6.5,5.6,12.1,12.1,12.1c5.6,0,10.3-3.7,11.2-8.4l6.5-22.4c0.9-2.8,0.9-5.6,0.9-9.3l-1.9-18.7
						c-0.9-5.6,2.8-10.3,7.5-12.1l3.7,31.8c0,1.9,0,3.7-0.9,5.6l-7.5,21.5c0,0.9,0,0.9,0,0.9c-0.9,7.5,4.7,13.1,12.1,14
						c2.8,0,4.7,0,7.5-0.9l3.7-1.9c7.5-2.8,12.1-10.3,12.1-17.7V60.7c0-2.8,1.9-4.7,4.7-4.7h2.8v33.6c0,3.7-0.9,5.6-3.7,8.4
						l-12.1,14c-3.7,3.7-5.6,9.3-7.5,14c-0.9,0-0.9,0-1.9,0c-13.1-0.9-25.2,8.4-27.1,20.5c-0.9,1.9-0.9,3.7-0.9,5.6
						c0,3.7-0.9,6.5-2.8,10.3c-9.3,11.2-7.5,28,3.7,37.4c3.7,2.8,7.5,4.7,11.2,5.6c0.9,0,0.9,0,0.9,0v31.8c-0.9,0-3.7,0-4.7,0.9
						c-0.9-7.5-0.9-14.9,0-22.4c0-2.8-0.9-4.7-3.7-4.7c-0.9,0-3.7,0.9-3.7,1.9c-3.7,4.7-5.6,9.3-8.4,14c-3.7-7.5-7.5-15.9-12.1-23.4
						c-0.9-1.9-3.7-2.8-5.6-0.9c-0.9,0.9-1.9,2.8-1.9,3.7c0.9,13.1,0.9,26.2-1.9,38.3l-1.9,0.9h-0.9c-5.6,0.9-10.3,2.8-15.9,2.8v-57
						C664.3,187.7,664.3,184.9,663.3,182.1z M712.8,237.3c-0.9,0-1.9,0-3.7,0.9c0.9-2.8,1.9-5.6,3.7-7.5
						C711.9,232.6,712.8,234.5,712.8,237.3z M699.8,239.1L699.8,239.1l-7.5,1.9c0.9-6.5,1.9-13.1,1.9-20.5
						C697,227,698.8,232.6,699.8,239.1L699.8,239.1z M634.4,244.7c-1.9-0.9-3.7-0.9-5.6-0.9c0.9-4.7,2.8-9.3,4.7-14
						C633.5,234.5,633.5,240.1,634.4,244.7z M621.3,235.4C621.3,236.3,621.3,236.3,621.3,235.4c0,1.9-0.9,3.7-0.9,4.7
						c-1.9-0.9-3.7-0.9-5.6-2.8c0.9-5.6,2.8-12.1,5.6-16.8C619.4,226,620.4,230.7,621.3,235.4z M575.5,212
						c2.8,5.6,4.7,11.2,5.6,16.8c-2.8,0.9-4.7,0.9-6.5,1.9C574.6,225.1,575.5,218.6,575.5,212z M554.1,274.6v-4.7
						c0-18.7,14-32.7,32.7-32.7c3.7,0,6.5,0.9,10.3,0.9l13.1,6.5c23.4,11.2,48.6,14,73.8,7.5l18.7-4.7c11.2-2.8,23.4-3.7,34.6-3.7
						h34.6c7.5,0,15.9,0.9,23.4,2.8c14,3.7,23.4,14,25.2,28C820.3,274.6,554.1,274.6,554.1,274.6z"/>
				</g>
			</g>
		</g>
		<g>
			<g>
				<g>
					<defs>
						<path id="SVGID_00000156579712355425811060000013011883701340841368_" d="M656.8,122.4c0.9,0.9,2.8,1.9,3.7,3.7
							c0.9,0.9,0.9,3.7,1.9,4.7c1.9,5.6,6.5,12.1,5.6,18.7c-0.9,7.5-9.3,12.1-16.8,14c-0.9,0.9-2.8,0.9-3.7,0.9
							c-0.9,0-1.9-0.9-2.8-0.9c-14-9.3-28-17.7-43-27.1c-3.7-2.8-8.4-5.6-10.3-9.3c-3.7-6.5-2.8-14.9,2.8-20.5
							c4.7-5.6,12.1-8.4,20.5-7.5c13.1,0.9,23.4,10.3,32.7,17.7C650.3,117.7,654,119.6,656.8,122.4z"/>
					</defs>
					<clipPath id="SVGID_00000127757615275877294170000006600959975655441338_">
						<use xlink:href="#SVGID_00000156579712355425811060000013011883701340841368_"  style="overflow:visible;"/>
					</clipPath>
					<path style="clip-path:url(#SVGID_00000127757615275877294170000006600959975655441338_);fill:#010101;" d="M783.8,252.2h-4.7
						c-2.8,0-4.7,1.9-4.7,4.7c0,2.8,1.9,4.7,4.7,4.7h4.7c2.8,0,4.7-1.9,4.7-4.7C788.5,254.1,786.6,252.2,783.8,252.2z"/>
				</g>
			</g>
		</g>
		<g>
			<g>
				<g>
					<defs>
						<path id="SVGID_00000083067396388599505650000010535667226504777112_" d="M656.8,122.4c0.9,0.9,2.8,1.9,3.7,3.7
							c0.9,0.9,0.9,3.7,1.9,4.7c1.9,5.6,6.5,12.1,5.6,18.7c-0.9,7.5-9.3,12.1-16.8,14c-0.9,0.9-2.8,0.9-3.7,0.9
							c-0.9,0-1.9-0.9-2.8-0.9c-14-9.3-28-17.7-43-27.1c-3.7-2.8-8.4-5.6-10.3-9.3c-3.7-6.5-2.8-14.9,2.8-20.5
							c4.7-5.6,12.1-8.4,20.5-7.5c13.1,0.9,23.4,10.3,32.7,17.7C650.3,117.7,654,119.6,656.8,122.4z"/>
					</defs>
					<clipPath id="SVGID_00000036964691156585417170000006126355869182612124_">
						<use xlink:href="#SVGID_00000083067396388599505650000010535667226504777112_"  style="overflow:visible;"/>
					</clipPath>
					<path style="clip-path:url(#SVGID_00000036964691156585417170000006126355869182612124_);fill:#010101;" d="M728.7,258.7
						c-1.9-1.9-4.7-1.9-6.5,0c-1.9,1.9-1.9,4.7,0,5.6l4.7,4.7c1.9,1.9,4.7,1.9,6.5,0s1.9-4.7,0-5.6L728.7,258.7z"/>
				</g>
			</g>
		</g>
		<g>
			<g>
				<g>
					<defs>
						<path id="SVGID_00000160911062964564160620000003571871503773492393_" d="M656.8,122.4c0.9,0.9,2.8,1.9,3.7,3.7
							c0.9,0.9,0.9,3.7,1.9,4.7c1.9,5.6,6.5,12.1,5.6,18.7c-0.9,7.5-9.3,12.1-16.8,14c-0.9,0.9-2.8,0.9-3.7,0.9
							c-0.9,0-1.9-0.9-2.8-0.9c-14-9.3-28-17.7-43-27.1c-3.7-2.8-8.4-5.6-10.3-9.3c-3.7-6.5-2.8-14.9,2.8-20.5
							c4.7-5.6,12.1-8.4,20.5-7.5c13.1,0.9,23.4,10.3,32.7,17.7C650.3,117.7,654,119.6,656.8,122.4z"/>
					</defs>
					<clipPath id="SVGID_00000008862293144065251430000011346246414082255234_">
						<use xlink:href="#SVGID_00000160911062964564160620000003571871503773492393_"  style="overflow:visible;"/>
					</clipPath>
					<path style="clip-path:url(#SVGID_00000008862293144065251430000011346246414082255234_);fill:#010101;" d="M589.5,248.5
						c-2.8,0-4.7,1.9-4.7,4.7v4.7c0,2.8,1.9,4.7,4.7,4.7s4.7-1.9,4.7-4.7v-4.7C594.2,250.3,592.4,248.5,589.5,248.5z"/>
				</g>
			</g>
		</g>
		<g>
			<g>
				<g>
					<defs>
						<path id="SVGID_00000003093475040511025240000006102906012929759134_" d="M656.8,122.4c0.9,0.9,2.8,1.9,3.7,3.7
							c0.9,0.9,0.9,3.7,1.9,4.7c1.9,5.6,6.5,12.1,5.6,18.7c-0.9,7.5-9.3,12.1-16.8,14c-0.9,0.9-2.8,0.9-3.7,0.9
							c-0.9,0-1.9-0.9-2.8-0.9c-14-9.3-28-17.7-43-27.1c-3.7-2.8-8.4-5.6-10.3-9.3c-3.7-6.5-2.8-14.9,2.8-20.5
							c4.7-5.6,12.1-8.4,20.5-7.5c13.1,0.9,23.4,10.3,32.7,17.7C650.3,117.7,654,119.6,656.8,122.4z"/>
					</defs>
					<clipPath id="SVGID_00000170248973039731423510000013420482270627591819_">
						<use xlink:href="#SVGID_00000003093475040511025240000006102906012929759134_"  style="overflow:visible;"/>
					</clipPath>
					<path style="clip-path:url(#SVGID_00000170248973039731423510000013420482270627591819_);fill:#010101;" d="M682,261.5h-4.7
						c-2.8,0-4.7,1.9-4.7,4.7c0,2.8,1.9,4.7,4.7,4.7h4.7c2.8,0,4.7-1.9,4.7-4.7C686.7,263.4,684.8,261.5,682,261.5z"/>
				</g>
			</g>
		</g>
		<g>
			<g>
				<g>
					<defs>
						<path id="SVGID_00000127745252804617075200000010057832574627149191_" d="M656.8,122.4c0.9,0.9,2.8,1.9,3.7,3.7
							c0.9,0.9,0.9,3.7,1.9,4.7c1.9,5.6,6.5,12.1,5.6,18.7c-0.9,7.5-9.3,12.1-16.8,14c-0.9,0.9-2.8,0.9-3.7,0.9
							c-0.9,0-1.9-0.9-2.8-0.9c-14-9.3-28-17.7-43-27.1c-3.7-2.8-8.4-5.6-10.3-9.3c-3.7-6.5-2.8-14.9,2.8-20.5
							c4.7-5.6,12.1-8.4,20.5-7.5c13.1,0.9,23.4,10.3,32.7,17.7C650.3,117.7,654,119.6,656.8,122.4z"/>
					</defs>
					<clipPath id="SVGID_00000097472573126612198440000015737535561821299349_">
						<use xlink:href="#SVGID_00000127745252804617075200000010057832574627149191_"  style="overflow:visible;"/>
					</clipPath>
					<path style="clip-path:url(#SVGID_00000097472573126612198440000015737535561821299349_);fill:#010101;" d="M606.4,190.6
						c2.8,2.8,5.6,4.7,9.3,4.7c7.5-0.9,14-7.5,13.1-15.9c0.9-7.5-5.6-14-12.1-15.9c-2.8-2.8-5.6-4.7-9.3-4.7
						c-7.5,0.9-14,7.5-13.1,15.9C593.3,183.1,599.8,190.6,606.4,190.6z M607.3,169.1c0.9,0,2.8,0.9,3.7,2.8c0.9,1.9,2.8,2.8,4.7,1.9
						l0,0c2.8,0,4.7,3.7,4.7,6.5s-1.9,6.5-4.7,6.5c-0.9,0-2.8-0.9-3.7-2.8c-0.9-0.9-1.9-1.9-3.7-1.9c-0.9,0-0.9,0-0.9,0h-0.9
						c-2.8,0-4.7-3.7-4.7-6.5C601.7,172.8,604.5,169.1,607.3,169.1z"/>
				</g>
			</g>
		</g>
		<g>
			<g>
				<g>
					<defs>
						<path id="SVGID_00000025408933038413625750000006261143916313397897_" d="M656.8,122.4c0.9,0.9,2.8,1.9,3.7,3.7
							c0.9,0.9,0.9,3.7,1.9,4.7c1.9,5.6,6.5,12.1,5.6,18.7c-0.9,7.5-9.3,12.1-16.8,14c-0.9,0.9-2.8,0.9-3.7,0.9
							c-0.9,0-1.9-0.9-2.8-0.9c-14-9.3-28-17.7-43-27.1c-3.7-2.8-8.4-5.6-10.3-9.3c-3.7-6.5-2.8-14.9,2.8-20.5
							c4.7-5.6,12.1-8.4,20.5-7.5c13.1,0.9,23.4,10.3,32.7,17.7C650.3,117.7,654,119.6,656.8,122.4z"/>
					</defs>
					<clipPath id="SVGID_00000164500372361537699710000018083091053778505908_">
						<use xlink:href="#SVGID_00000025408933038413625750000006261143916313397897_"  style="overflow:visible;"/>
					</clipPath>
					<path style="clip-path:url(#SVGID_00000164500372361537699710000018083091053778505908_);fill:#010101;" d="M792.2,142.9
						c5.6-0.9,10.3-3.7,12.1-9.3c6.5-2.8,11.2-10.3,10.3-16.8c0-10.3-5.6-17.7-13.1-17.7c-5.6,0.9-10.3,3.7-12.1,9.3
						c-6.5,2.8-11.2,10.3-10.3,16.8C779.2,134.5,783.8,142.9,792.2,142.9z M792.2,115.8L792.2,115.8c2.8,0,4.7-0.9,4.7-3.7
						c0.9-3.7,2.8-5.6,3.7-5.6c1.9,0,4.7,3.7,4.7,8.4c0,4.7-2.8,8.4-4.7,8.4l0,0c-1.9,0-3.7,0.9-4.7,3.7c-0.9,3.7-2.8,5.6-3.7,5.6
						c-1.9,0-4.7-3.7-4.7-8.4S790.4,115.8,792.2,115.8z"/>
				</g>
			</g>
		</g>
		<g>
			<g>
				<g>
					<defs>
						<path id="SVGID_00000088131681308037528830000003373324821065573290_" d="M656.8,122.4c0.9,0.9,2.8,1.9,3.7,3.7
							c0.9,0.9,0.9,3.7,1.9,4.7c1.9,5.6,6.5,12.1,5.6,18.7c-0.9,7.5-9.3,12.1-16.8,14c-0.9,0.9-2.8,0.9-3.7,0.9
							c-0.9,0-1.9-0.9-2.8-0.9c-14-9.3-28-17.7-43-27.1c-3.7-2.8-8.4-5.6-10.3-9.3c-3.7-6.5-2.8-14.9,2.8-20.5
							c4.7-5.6,12.1-8.4,20.5-7.5c13.1,0.9,23.4,10.3,32.7,17.7C650.3,117.7,654,119.6,656.8,122.4z"/>
					</defs>
					<clipPath id="SVGID_00000160170884809457793730000014482354384366436789_">
						<use xlink:href="#SVGID_00000088131681308037528830000003373324821065573290_"  style="overflow:visible;"/>
					</clipPath>
					<path style="clip-path:url(#SVGID_00000160170884809457793730000014482354384366436789_);fill:#010101;" d="M620.4,94.3
						c7.5,0,13.1-5.6,13.1-13.1s-5.6-13.1-13.1-13.1s-13.1,5.6-13.1,13.1C607.3,87.8,612.9,94.3,620.4,94.3z M620.4,76.6
						c2.8,0,4.7,1.9,4.7,4.7c0,2.8-1.9,4.7-4.7,4.7s-4.7-1.9-4.7-4.7S617.6,76.6,620.4,76.6z"/>
				</g>
			</g>
		</g>
		<g>
			<g>
				<g>
					<defs>
						<path id="SVGID_00000051344180615353557120000006862981839017358726_" d="M656.8,122.4c0.9,0.9,2.8,1.9,3.7,3.7
							c0.9,0.9,0.9,3.7,1.9,4.7c1.9,5.6,6.5,12.1,5.6,18.7c-0.9,7.5-9.3,12.1-16.8,14c-0.9,0.9-2.8,0.9-3.7,0.9
							c-0.9,0-1.9-0.9-2.8-0.9c-14-9.3-28-17.7-43-27.1c-3.7-2.8-8.4-5.6-10.3-9.3c-3.7-6.5-2.8-14.9,2.8-20.5
							c4.7-5.6,12.1-8.4,20.5-7.5c13.1,0.9,23.4,10.3,32.7,17.7C650.3,117.7,654,119.6,656.8,122.4z"/>
					</defs>
					<clipPath id="SVGID_00000133497485494186008540000013874161419783765421_">
						<use xlink:href="#SVGID_00000051344180615353557120000006862981839017358726_"  style="overflow:visible;"/>
					</clipPath>
					<path style="clip-path:url(#SVGID_00000133497485494186008540000013874161419783765421_);fill:#010101;" d="M667.1,133.6
						c1.9-0.9,3.7-3.7,2.8-5.6c-0.9-4.7,0.9-10.3,5.6-11.2c0.9,0,0.9,0,0.9-0.9c3.7-0.9,6.5,0.9,8.4,3.7c2.8,2.8,5.6,5.6,7.5,7.5
						c2.8,1.9,3.7,5.6,3.7,8.4c-0.9,4.7-5.6,7.5-10.3,7.5c-1.9-0.9-3.7-0.9-5.6-3.7c-0.9-1.9-4.7-1.9-5.6-0.9
						c-1.9,0.9-1.9,4.7-0.9,5.6c3.7,3.7,8.4,6.5,13.1,6.5c0.9,0,1.9,0,3.7,0c10.3-1.9,15.9-11.2,14-20.5c-0.9-3.7-2.8-7.5-5.6-10.3
						c-2.8-1.9-4.7-4.7-6.5-6.5c-6.5-7.5-16.8-8.4-25.2-1.9c-3.7,2.8-5.6,5.6-5.6,10.3c-0.9,3.7,0,6.5,0.9,9.3
						C661.5,133.6,664.3,133.6,667.1,133.6z"/>
				</g>
			</g>
		</g>
		<g>
			<g>
				<g>
					<defs>
						<path id="SVGID_00000096053760660028502040000007953315010971159986_" d="M656.8,122.4c0.9,0.9,2.8,1.9,3.7,3.7
							c0.9,0.9,0.9,3.7,1.9,4.7c1.9,5.6,6.5,12.1,5.6,18.7c-0.9,7.5-9.3,12.1-16.8,14c-0.9,0.9-2.8,0.9-3.7,0.9
							c-0.9,0-1.9-0.9-2.8-0.9c-14-9.3-28-17.7-43-27.1c-3.7-2.8-8.4-5.6-10.3-9.3c-3.7-6.5-2.8-14.9,2.8-20.5
							c4.7-5.6,12.1-8.4,20.5-7.5c13.1,0.9,23.4,10.3,32.7,17.7C650.3,117.7,654,119.6,656.8,122.4z"/>
					</defs>
					<clipPath id="SVGID_00000032617367608287178710000001877426917680280192_">
						<use xlink:href="#SVGID_00000096053760660028502040000007953315010971159986_"  style="overflow:visible;"/>
					</clipPath>
					<path style="clip-path:url(#SVGID_00000032617367608287178710000001877426917680280192_);fill:#ED2224;" d="M817.5,252.2
						l2.8-0.9c-0.9-7.5-1.9-14.9-1.9-22.4c0-3.7,0-8.4,0.9-12.1l0,0l0,0v-0.9c0-1.9-0.9-3.7-1.9-5.6c-0.9-0.9-2.8-1.9-4.7-2.8h-0.9
						c-2.8,0-4.7,0.9-5.6,3.7l2.8,1.9l-2.8-1.9c-6.5,8.4-11.2,17.7-14,27.1l2.8,0.9l0.9-2.8c-7.5-0.9-14.9-1.9-22.4-1.9h-0.9l0,0
						H767v2.8l2.8-0.9c-2.8-11.2-7.5-20.5-14-29.9l-2.8,1.9l2.8-1.9c-0.9-0.9-0.9-1.9-2.8-1.9c-0.9-0.9-1.9-0.9-3.7-0.9
						s-3.7,0.9-3.7,0.9c-1.9,0.9-3.7,3.7-3.7,5.6v0.9l0,0c0.9,3.7,0.9,7.5,0.9,12.1c0,4.7,0,8.4-0.9,13.1h2.8v-2.8h-7.5
						c0,0,0,0-0.9,0v2.8h2.8v-42l0,0c0-5.6,0.9-10.3,3.7-14.9l0,0c3.7-6.5,5.6-13.1,7.5-20.5l5.6-25.2l0,0c0.9-4.7,3.7-8.4,5.6-12.1
						l12.1-14l0,0c3.7-4.7,5.6-10.3,5.6-15.9V54.2c0-1.9-0.9-3.7-1.9-5.6c-0.9-1.9-3.7-1.9-5.6-1.9h-9.3l0,0
						c-4.7,0-8.4,1.9-11.2,4.7c-2.8,2.8-4.7,7.5-4.7,11.2v21.5h2.8h-2.8c0,0.9,0,0.9,0,0.9c0,0.9-0.9,0.9-0.9,2.8
						c-0.9,0.9-1.9,1.9-4.7,3.7l0,0l-3.7,1.9l0,0c0,0,0,0-0.9,0c0,0,0,0-0.9,0l0,0l-0.9-0.9h-2.8l2.8,0.9l7.5-20.5l0,0
						c0.9-2.8,0.9-5.6,0.9-7.5c0-0.9,0-1.9,0-2.8l0,0L739,26.2c0-1.9-0.9-3.7-2.8-4.7c-0.9-0.9-3.7-1.9-4.7-1.9l0,0v2.8v-3.7
						c-6.5,0-12.1,2.8-16.8,6.5c-3.7,3.7-6.5,10.3-6.5,16.8c0,0.9,0,1.9,0,2.8l1.9,18.7l0,0c0,0.9,0,0.9,0,0.9c0,0.9,0,1.9-0.9,3.7
						l-6.5,22.4l2.8,0.9l-2.8-0.9l0,0l0,0l0,0l0,0l0,0l0,0l0,0l0,0l0,0l0,0l0,0l0,0l0,0l0,0l0,0l0,0l0,0l0,0l0,0l0,0l0,0l0,0V8.4
						c0-1.9-0.9-3.7-1.9-5.6c-0.9-0.9-3.7-1.9-5.6-1.9l0,0c-6.5,0-13.1,2.8-17.7,7.5s-7.5,10.3-7.5,17.7v62.6l0,0l0,0l0,0l0,0l0,0
						l0,0l0,0l0,0l0,0l0,0l0,0l0,0l0,0l0,0l0,0l0,0l0,0l0,0l0,0l0-15.9l0,0c-0.9-3.7-1.9-7.5-3.7-10.3l-16.8-31.8l0,0
						c-0.9-1.9-2.8-3.7-4.7-3.7l0,0l0,0c-0.9,0-0.9,0-0.9,0c-0.9,0-3.7,0.9-4.7,0.9l0,0l0,0c-7.5,5.6-11.2,14-11.2,22.4
						c0,3.7,0.9,6.5,1.9,10.3l0,0l7.5,18.7l0,0c0.9,0.9,0.9,1.9,0.9,3.7l0,0l5.6,29l-14.9-7.5c-3.7-0.9-5.6-1.9-9.3-1.9
						c-3.7,0-7.5,0.9-11.2,3.7c-3.7,1.9-5.6,5.6-7.5,8.4c-0.9,2.8-1.9,5.6-1.9,9.3l0,0h2.8h-2.8l0,0c0,2.8,0.9,5.6,3.7,6.5l13.1,6.5
						l0,0c20.5,10.3,35.5,29,40.2,51.4l0,0c0.9,1.9,0.9,3.7,0.9,5.6v56h2.8v-2.8c-3.7,0-7.5,0-12.1-0.9l-0.9,2.8l2.8-0.9
						c-0.9-6.5-0.9-14-0.9-20.5c0-3.7,0-7.5,0.9-12.1l0,0l0,0v-0.9c0-1.9-0.9-3.7-1.9-5.6c-0.9-1.9-2.8-1.9-4.7-2.8h-0.9
						c-2.8,0-4.7,0.9-5.6,3.7l0,0c-1.9,3.7-3.7,5.6-5.6,9.3l2.8,0.9h0.9c0-0.9,0-0.9,0-1.9c0-3.7,0-8.4,0.9-13.1l0,0l0,0v-0.9
						c0-1.9-0.9-3.7-1.9-5.6c-0.9-0.9-2.8-1.9-4.7-2.8h-0.9c-2.8,0-4.7,0.9-5.6,3.7l2.8,1.9l-2.8-1.9c-7.5,10.3-13.1,21.5-14.9,33.6
						l2.8,0.9l0.9-2.8l-5.6-3.7l0,0c-0.9,0-0.9,0-0.9-0.9l0,0c-3.7-0.9-7.5-1.9-11.2-1.9v2.8l2.8-0.9c-1.9-14-7.5-27.1-15.9-37.4
						l-1.9,1.9l2.8-1.9c-0.9-0.9-0.9-1.9-2.8-1.9c-0.9-0.9-1.9-0.9-3.7-0.9c-0.9,0-3.7,0.9-3.7,0.9c-1.9,0.9-3.7,3.7-3.7,5.6v0.9
						l0,0l0,0c0.9,3.7,0.9,8.4,0.9,12.1c0,9.3-0.9,18.7-3.7,27.1l2.8,0.9h-3.7c0,0-0.9,0-0.9,0.9l0,0c-12.1,8.4-18.7,21.5-18.7,35.5
						l0,0l0,0v8.4c0,1.9,0.9,3.7,1.9,5.6c0.9,2.8,2.8,2.8,4.7,2.8H824c1.9,0,3.7-0.9,5.6-1.9c0.9-0.9,1.9-3.7,1.9-5.6v-0.9l0,0l0,0
						c0-12.1-4.7-23.4-12.1-30.8L817.5,252.2l2.8-0.9L817.5,252.2l-1.9,1.9c7.5,7.5,11.2,16.8,11.2,27.1l0,0v0.9
						c0,0.9,0,0.9-0.9,0.9l-0.9,0.9H551.3c-0.9,0-0.9,0-0.9-0.9l-0.9-0.9v-8.4l0,0l0,0c0-12.1,5.6-23.4,15.9-30.8l0,0
						c0,0,0.9,0,0.9-0.9l0.9-0.9v-0.9c1.9-9.3,3.7-18.7,3.7-28c0-4.7,0-8.4-0.9-13.1h-2.8h1.9l0,0c0-0.9,0-0.9,0.9-0.9h0.9h0.9
						c0,0,0.9,0,0.9,0.9l0,0l0,0c7.5,10.3,13.1,22.4,14,34.6v2.8h2.8c3.7,0,6.5,0.9,10.3,1.9l0,0l0,0l0,0l9.3,4.7l0.9-3.7
						c2.8-11.2,7.5-22.4,14-31.8l0,0l0,0c0-0.9,0.9-0.9,0.9-0.9l0,0c0.9,0,0.9,0,0.9,0.9l0.9,0.9l0,0l0,0c-0.9,4.7-0.9,9.3-0.9,13.1
						c0,0.9,0,0.9,0,1.9v10.3l5.6-9.3c1.9-2.8,3.7-5.6,5.6-8.4l0,0c0-0.9,0.9-0.9,0.9-0.9l0,0c0.9,0,0.9,0,0.9,0.9l0.9,0.9l0,0l0,0
						c-0.9,4.7-0.9,8.4-0.9,13.1c0,7.5,0.9,14,1.9,20.5l0.9,1.9h1.9c3.7,0.9,8.4,0.9,12.1,0.9h2.8v-60.7l0,0c0-2.8,0-4.7-0.9-6.5
						l0,0c-5.6-24.3-20.5-44.8-43-55.1l0,0l-13.1-6.5l0,0c-0.9,0-0.9-0.9-0.9-0.9h-1.9h1.9l0,0h-1.9h1.9l0,0l0,0l0,0l0,0l0,0l0,0
						l0,0c0-2.8,0.9-4.7,0.9-6.5c0.9-2.8,3.7-4.7,5.6-6.5c2.8-0.9,5.6-1.9,7.5-1.9c1.9,0,4.7,0.9,6.5,0.9l25.2,12.1l-7.5-41.1l0,0
						c0-0.9-0.9-2.8-0.9-3.7l0,0l-7.5-18.7l0,0c-0.9-2.8-0.9-5.6-0.9-7.5c0-6.5,3.7-13.1,8.4-17.7l0,0h0.9l0,0l0,0
						c0.9,0,0.9,0.9,0.9,0.9l16.8,31.8c0.9,2.8,2.8,5.6,2.8,8.4l0,0l2.8,16.8l0,0c0.9,2.8,2.8,4.7,5.6,4.7l0,0l0,0
						c0.9,0,3.7-0.9,3.7-1.9c0.9-0.9,1.9-2.8,1.9-3.7l0,0V25.2l0,0c0-5.6,1.9-10.3,5.6-14c3.7-3.7,8.4-5.6,14-5.6l0,0
						c0.9,0,0.9,0,0.9,0.9l0.9,0.9v82.2l0,0c0,2.8,0.9,4.7,3.7,5.6l0,0c0.9,0,0.9,0,1.9,0c0.9,0,2.8-0.9,3.7-0.9
						c0.9-0.9,1.9-1.9,1.9-2.8l0,0l6.5-22.4l0,0c0.9-0.9,0.9-3.7,0.9-4.7s0-0.9,0-1.9l-1.9-18.7c0-0.9,0-0.9,0-1.9
						c0-4.7,1.9-9.3,5.6-12.1c3.7-2.8,7.5-5.6,12.1-5.6l0,0l0,0v-2.8v2.8l0,0v-2.8v2.8l0,0c0.9,0,0.9,0,0.9,0.9l0.9,0.9l3.7,36.4
						l0,0c0,0.9,0,0.9,0,1.9c0,1.9,0,3.7-0.9,5.6l0,0l-6.5,20.5v0.9c0,2.8,0.9,4.7,3.7,5.6l0,0l0,0c0.9,0.9,1.9,0.9,3.7,0.9
						c1.9,0,1.9,0,3.7-0.9l0,0l3.7-1.9l0,0c1.9-0.9,3.7-1.9,4.7-3.7c1.9-0.9,3.7-3.7,3.7-5.6c0.9-1.9,0.9-3.7,0.9-4.7l0,0V58.8
						c0-2.8,0.9-5.6,3.7-7.5c1.9-1.9,4.7-3.7,7.5-3.7l0,0h9.3c0.9,0,0.9,0,0.9,0.9l0.9,0.9v37.4l0,0c0,4.7-0.9,8.4-4.7,12.1l0,0
						l-14,16.8l0,0c-3.7,4.7-5.6,9.3-7.5,14.9l-5.6,25.2l0,0c-0.9,6.5-3.7,13.1-6.5,18.7l0,0c-2.8,5.6-3.7,12.1-4.7,17.7v45.8h2.8
						c0,0,0,0,0.9,0h9.3v-2.8c0.9-4.7,0.9-9.3,0.9-14c0-4.7,0-8.4-0.9-13.1l0,0l0,0c0-0.9,0-0.9,0.9-0.9h0.9l0,0c0,0,0.9,0,0.9,0.9
						l0,0l0,0c6.5,8.4,11.2,17.7,14,28l0.9,1.9h7.5l0,0h0.9c7.5,0,14,0.9,21.5,1.9l2.8,0.9l0.9-2.8c2.8-9.3,7.5-18.7,13.1-25.2l0,0
						l0,0c0-0.9,0.9-0.9,0.9-0.9l0,0c0.9,0,0.9,0,0.9,0.9l0.9,0.9l0,0h2.8h-2.8c-0.9,4.7-0.9,8.4-0.9,13.1c0,7.5,0.9,15.9,1.9,23.4
						v0.9l0.9,0.9L817.5,252.2z"/>
				</g>
			</g>
		</g>
	</g>
	<path class="st4" d="M630.6,111.2c10.3,3.7,20.5,11.2,29.9,18.7c0.9,0.9,2.8,2.8,3.7,3.7c0.9,1.9,0.9,3.7,0.9,5.6s0,3.7,0.9,5.6
		l5.6-0.9c0-0.9,0-1.9,0-3.7c0-1.9,0-4.7-0.9-7.5c-0.9-2.8-2.8-5.6-5.6-7.5c-8.4-8.4-19.6-14.9-30.8-19.6L630.6,111.2L630.6,111.2z"
		/>
	<path class="st0" d="M668,155.1c7.5-4.7,14-11.2,18.7-18.7l-3.7-1.9v3.7c7.5,0,16.8,0,24.3,0v-4.7l-3.7,0.9
		c0.9,3.7,3.7,7.5,5.6,12.1c2.8,3.7,5.6,6.5,10.3,8.4c2.8,0.9,4.7,2.8,6.5,3.7c0.9,0.9,1.9,0.9,3.7,0.9c0.9,0,1.9,0,3.7,0
		c1.9,0,4.7-0.9,6.5-0.9c0.9-0.9,3.7-0.9,4.7-0.9c1.9-0.9,3.7-1.9,5.6-3.7c1.9-0.9,3.7-2.8,5.6-3.7l-4.7-7.5
		c-2.8,1.9-4.7,3.7-6.5,4.7c-0.9,0.9-1.9,0.9-3.7,0.9c-0.9,0.9-1.9,0.9-2.8,0.9c-1.9,0.9-3.7,0.9-5.6,0.9c-0.9,0-0.9,0-1.9,0
		s-1.9-0.9-2.8-0.9c-0.9-0.9-2.8-0.9-3.7-1.9c-2.8-1.9-5.6-3.7-7.5-6.5c-1.9-2.8-3.7-5.6-4.7-8.4l-0.9-3.7h-3.7
		c-7.5,0-16.8,0-24.3,0h-1.9l-0.9,2.8c-3.7,6.5-8.4,12.1-14.9,15.9L668,155.1L668,155.1z"/>
	<path class="st0" d="M700.7,140.1c0,0.9,0,1.9,0,2.8c0,2.8,1.9,4.7,3.7,7.5c0.9,0.9,2.8,2.8,3.7,3.7c1.9,0.9,3.7,1.9,5.6,2.8
		c0.9,0.9,2.8,0.9,3.7,0.9c0.9,0,3.7-0.9,3.7-2.8c0-0.9-0.9-1.9-0.9-2.8c-0.9-1.9-2.8-3.7-3.7-5.6c-1.9-2.8-3.7-5.6-6.5-7.5
		c-0.9-0.9-5.6-5.6-7.5-3.7C700.7,136.4,700.7,138.2,700.7,140.1z"/>
	<path class="st0" d="M697,134.5C697,134.5,697.9,134.5,697,134.5l0.9,0.9c0,2.8-0.9,4.7-3.7,5.6c-1.9,0.9-4.7,0.9-6.5,1.9
		c-0.9,0-0.9,0.9-2.8,0c-0.9,0-0.9-0.9-0.9-0.9c-1.9-0.9-6.5-4.7-3.7-6.5c3.7-1.9,6.5-3.7,10.3-3.7
		C693.2,133.6,695.1,133.6,697,134.5z"/>
</g>
<g>
	<path class="st6" d="M163.2,223.8c3-1.1-0.5-9.4-3.3-4.9C158.3,221.7,160.9,224.6,163.2,223.8z"/>
	<path class="st6" d="M131.7,246.1c6,1.5-3.9-5.2-3.3-5.8c-2.6,2.5-2,3.7,0,5.8C128.7,246.4,131.2,246,131.7,246.1z"/>
	<path class="st6" d="M148,247.1c-1-2-7.2-1.2-7.6-1C132.4,250.4,152.1,255.2,148,247.1z"/>
	<path class="st6" d="M374.2,250c2.5-2.2-3.1-6.3-4.4-2.9C369.3,248.3,372,251.9,374.2,250z"/>
	<path class="st6" d="M235,262.6c0.9,5.2,24.3,5.5,22.8-3.9c0.1,0.4-4.9-5.1-4.4-4.9c-2.2-0.8-4,0.5-6.5,1c-5.3,0.9-2.8,2.7-5.4,4.9
		C238,262.5,234.4,259.2,235,262.6z"/>
	<path class="st6" d="M141.5,262.6c-0.5-1.4-2.7-0.3-3.3,0C132.3,266,142.6,265.7,141.5,262.6z"/>
	<path class="st6" d="M207.8,263.6c-1.4,2.9,3.8,3.6,4.4,1.9C212.8,263.7,209.2,260.8,207.8,263.6z"/>
	<path class="st6" d="M120.8,287.9c-1.2,0.3-3.6,0.6-3.3,1.9C119.1,296.2,131.2,285.5,120.8,287.9z"/>
	<path class="st6" d="M133.9,290.8c2.1,1.8,14-2.7,7.6-2.9C137.8,287.8,131.2,288.4,133.9,290.8z"/>
	<path class="st6" d="M-31.5,290.8c-0.2,0.2-2.9,4.7,0,4.9C-29.7,295.7-28.4,287.5-31.5,290.8z"/>
	<path class="st6" d="M106.7,296.6c2.1-1.9-4.4-5.8-6.5-3.9C98.7,294.1,106.1,297.2,106.7,296.6z"/>
	<path class="st6" d="M75.1,302.5c-0.4,2.2-7.5-2.2-7.6-2.9c-0.4-4.4-5.1-3-2.2,0c5,5.1-6.6-0.1-5.4,5.8
		C64.1,303.6,74,308.4,75.1,302.5z"/>
	<path class="st6" d="M101.2,297.6c-2.5-5.4-3.8,5.6-3.4,5.9c-1.1,0.7-10.1,3.8-6.4,6.7C95.5,307.3,104,303.5,101.2,297.6z"/>
	<path class="st6" d="M191.5,299.6c-2.6,2.3,2.2,2.9,3.3,1.9C195.9,300.5,193.7,297.6,191.5,299.6z"/>
	<path class="st6" d="M50.1,320c8.4,0.5,8.3-28.9-2.2-19.4C44.4,303.8,48.4,319.8,50.1,320z"/>
	<path class="st6" d="M68.6,312.2c-0.3,1.5,4.2,5,5.4,3.9C76.1,314.2,69.3,309.2,68.6,312.2z"/>
	<path class="st6" d="M93.6,313.2c-0.6,0.1-5.1,0.3-3.3,1.9C92.7,317.2,101.5,311.8,93.6,313.2z"/>
	<path class="st6" d="M-36.9,319c-1.2,2.9,0.1,6,0,5.8C-33.7,328.3-34.4,312.8-36.9,319z"/>
	<path class="st6" d="M104.5,326.8c5.4-1.9-4.6-9.7-6.5-5.8C98.2,320.6,103.1,327.2,104.5,326.8z"/>
	<path class="st6" d="M93.6,323.8c-7.3,3.2,7.6,2.3,6.5,0C99.2,321.7,94.1,323.6,93.6,323.8z"/>
	<path class="st6" d="M101.2,342.3c0-0.3,0.1-0.7,0.3-1.1C101.2,340.5,101,340.4,101.2,342.3z"/>
	<path class="st6" d="M111,367.6c3.1,1.4,3.6-6.1,0-3.9C109.4,364.7,109.2,366.7,111,367.6z"/>
	<path class="st6" d="M99.1,371.5c2.1-3.2-4.6-3.9-6.5-2.9C87.7,371.1,98.9,371.7,99.1,371.5z"/>
	<path class="st6" d="M106.7,372.4c0.5,1.1,6.6,2,5.4-1C111.1,368.9,106,371,106.7,372.4z"/>
	<path class="st6" d="M92.5,374.4c-1.3,0.2-5.2,1.1-3.3,2.9C92,379.7,98.5,373.4,92.5,374.4z"/>
	<path class="st6" d="M1168.1,392.8c10.9,3.2,33.8,3.5,45.7,4.9c-6.8-3.1-18.5-2.8-31.5-4.9C1178.9,392.3,1156.9,389.6,1168.1,392.8
		z"/>
	<path class="st6" d="M1232.3,400.6c-5.3-1.4-10.6-2.9-17.4-2.9C1216.9,401.4,1228.7,401.5,1232.3,400.6z"/>
	<path class="st6" d="M1250.7,404.5c-1.4-1.3-5.1-0.6-6.5-1.9C1243.5,405.3,1249.6,406.7,1250.7,404.5z"/>
	<path class="st6" d="M1298.6,403.5C1308.9,406.9,1306.8,400.4,1298.6,403.5L1298.6,403.5z"/>
	<path class="st6" d="M839.7,505.5C827.7,500.5,828.9,510.4,839.7,505.5L839.7,505.5z"/>
	<path class="st6" d="M592.8,513.3c27.3-0.1,49.9-0.1,71.8,0c23.9,0.1,54.3,0.7,75-1.9C693.8,510.1,642.8,507.6,592.8,513.3z"/>
	<path class="st6" d="M1019.1,516.2c-1.4-0.3-5.5-4.6-7.6,0C1020.4,516.5,1027.7,518.2,1019.1,516.2z"/>
	<path class="st6" d="M651.5,516.2c2.4,2.8,5.2,1,10.9,1.9C662.3,515,652,515.8,651.5,516.2z"/>
	<path class="st6" d="M585.2,519.2c-0.2,0.4-0.3,3.6,0,3.9C588.8,526.7,587.7,513.9,585.2,519.2z"/>
	<path class="st6" d="M797.3,528.9c-0.1,0-0.8-3.7-1.1-3.9c-0.6-0.5-5.2-1.6-6.5-1.9c-3.9-1.1-13.8-1.6-19.6-1.9
		c-1.2-0.1-15.7-0.5-16.3,0c-0.8,0.6,7.3,9.4,5.4,8.7c0.7,0.2,3.9-1.9,4.4-1.9c9.6-1.2,32.7,8.6,43.5,1.9
		C806.6,527.6,800.5,530.1,797.3,528.9z"/>
	<path class="st6" d="M624.3,524c-3.9-0.2-14.3-0.9-17.4,1c1-0.6,15.8,0.9,21.8,0C631.4,524.5,622.8,523.9,624.3,524z"/>
	<path class="st6" d="M564.5,526.9c11.9-0.2,22.1,0.4,29.4-1.9C583.9,525.4,571.3,523.6,564.5,526.9z"/>
	<path class="st6" d="M635.8,528.7c1.1-0.3,0.7,0.1,2.6,0.2C637.4,528.8,636.5,528.8,635.8,528.7c-0.2,0-0.4,0.1-0.6,0.2
		c-5.9,1.7,8.7,1.1,9.8,1C655.7,528.8,623.9,527.9,635.8,528.7z"/>
	<path class="st6" d="M1024.5,538.6c-11.1-4.1-72.9-2.7-84.8-4.9C944.6,537.9,1016.1,538.2,1024.5,538.6z"/>
	<path class="st6" d="M522.1,548.3c2.5-2.3-2.9-9.1-4.4-5.8C518.1,541.7,519.6,550.5,522.1,548.3z"/>
	<path class="st6" d="M539.5,554.1c-0.6,2,1.3,5.6,3.3,3.9C544,556.9,540.5,550.7,539.5,554.1z"/>
	<path class="st6" d="M7.7,562.9c-0.1,0.3,2.5,5.6,4.4,3.9C13.4,565.6,8.4,560,7.7,562.9z"/>
	<path class="st6" d="M526.4,583.3c-3,2.7,1.6,5.4,3.3,3.9C531.2,585.8,529.2,580.8,526.4,583.3z"/>
	<path class="st6" d="M518.8,604.7c-0.2,0.5,5.3,7.9,5.4,7.8C528.4,608.8,520.4,601.1,518.8,604.7z"/>
	<path class="st6" d="M511.2,615.3C507.5,626.8,517.2,623.4,511.2,615.3L511.2,615.3z"/>
	<path class="st6" d="M478.6,641.6c-2,1.8-0.5,7.4,1.1,6.8C482,647.5,480.8,639.5,478.6,641.6z"/>
	<path class="st6" d="M214.3,643.5c-1.7,0.3-4.2,0.2-3.3,2.9C211.8,648.3,220.9,642.5,214.3,643.5z"/>
	<path class="st6" d="M1332.9,320.3c-1.9-0.2-5.1-3.6-6.5-3.9c-5.5-1.3-10.6-2-14.1-2.9c-16.6-4.5-34.2-5.5-50-8.7
		c-24.5-5-48.1-11.6-74-16.5c-26.3-5-55.1-7-87-11.7c-29.6-4.3-65.7-10.2-101.2-14.6c-40.2-5-139.5-4-177.2-10.7
		c-24.7-4.3,4.2-3.8,18.5-2.9c12.3,0.8,15.4,1.6,22.8,1c0.9-2.7-36-6.4-15.2-5.8c57.8,1.5,156.8,6.7,213.1,12.6
		c12.6,1.3,41.4,8.7,51.1,6.8c-17.8-4.8-37.8-5-58.7-7.8c-11.8-1.6-23.4-6.1-35.9-7.8c-2.2-0.3-5.1,1.2-7.6,1
		c-33-3.3-118.7-8.1-150.1-9.7c-15.3-0.8-24-2.1-33.7-3.9c-3.1-0.6-9.6,1.6-13,0c-3.1-1.4-3.1-4.6-5.4-4.9c-2.1-0.2-1.6,4.7-2.2,4.9
		c-4.5,1-2.6-5.6,0-4.9c1.6,0.5-3.9-2.5-6.5,0c-1.1,1.1,4,3.3,2.2,4.9c-2.2,1.9-9.3-1.4-13-1.9c-21.9-3-56.5-3.6-76.1-3.9
		c-15.2-0.2-46.9,1.8-72.9,1.9c-11.1,0-27.2,0.5-43.8,1c-0.1-0.2-0.2-0.5-0.4-0.7c-2.2-3.3-13,1.3-14,1.1
		c-3.4-0.8-12.2-5.4-13.6-7.1c-7-8.7,7.6-15.4,3-20.3c-3.4-3.7-9.9,1.1-7,0.5c-10.8,2.2-6-4.6-13-8.1c-2.9-1.4-9.7,2-15.7-0.8
		c-5.7-2.7-3.1-6.1-7.1-6.7c-3.4-0.5-7.6,5.2-12.4,5.4c-3.8,0.2-6-4.4-10.8-4.7c-0.9-0.1-3.9,4.3-7.5,3.9c-4.4-0.4-5.6-5.2-8.7-3.8
		c-6.5,2.9-0.5,6.4-2.6,9.7c-2.3,3.5-14.5,8.6-18.3,8.8c-5.7,0.4-4.8-3.1-7.6-0.9c-3.8,2.9,1.8,7-2,11.1c-5.2,5.5-7.4-2.4-11.3,3.5
		c-2.9,4.4,4.2,2.3,2.2,8.2c-0.8,2.4-3.5,3.5-5.6,4.8c-4.3,0.4-8.6,0.7-12.7,1.1c-25.9,2.2-150.5,8-170.7,9.7c-3,0.3-7-1.9-9.8-1
		c-3.1,1,0.3,2.8-3.3,2.9c-5.3,0.1-10.8-1.4-15.2-4.9c8.6,11.8-5.4,6.1-14.1,7.8c0.5-0.1-3,4.3-2.2,3.9c-6.6,3.2-17.5-3.4-20.7,4.9
		c-0.6,1.6,2,2.8,1.1,4.9c-0.6,1.3-3.7-1.1-3.3,1.9c0,0.2,1.9,0,2.8-0.1c0.1-0.2,0.2-0.2,0.5,0.1c0,0-0.2-0.1-0.5-0.1
		c-0.4,0.8,0.9,5.5,1.6,5.9c4.3,2,15.4-4.3,14.1,2.9c-0.5,3-17.4,0.5-20.7,5.8c-1.8,2.9,2.1,4.2,0,9.7c3.2-0.7,1.7-7.9,3.3-1
		c1,4.5,0.9,0.5-2.2,1.9c-0.5,0.2-1.3,2.5-1.8,4.8c-0.6-2.7-1.5-5.2-2.7-7.7c0.1,0,0.1-0.1,0.2,0c-0.1,0-0.1,0-0.2,0
		c-0.6-1.1-1.2-2.2-1.9-3.3c1.1,0.3,2,0.2,2.1-0.5c-0.1,0.3-2.6-1.8-4.9-3.2c-1.4-1.7-3-3.2-4.8-4.6c0.7-0.9,2.2-12.2-0.1-8.7
		c-0.1,0.1-2.4,4.2-2.4,6.7c-2.5-1.7-5.3-3.2-8.4-4.5c-0.1,0-0.2-0.1-0.3-0.1c-0.1-2.2-0.8-3.7-3.1-2.2c0.4-0.2,1.6,0.4,1.1,1
		c0.2-0.2,0,0-0.2,0.4c-14.9-5.3-29-4.8-39-0.4c-1.5-4.4-9.9-2.8-7.6,0c3.8,4.6-8.4-0.1-9.8,3.9c4.6,5.3,14.9-3.2,13.1-2.9
		c0.6-0.1,1.3,0,2,0.2c-0.9,0.5-1.8,0.9-2.6,1.4c-1.8,1.2-3.3,3.9-5.1,6.5c-1.5-0.5-3.1-0.6-4-0.4c-2.9,0.8-2.8,3.5-1,4.9
		c-0.5,0.3-1.1,0.5-1.7,0.6c-0.1,0-12.5-7.7-13-0.9c-0.1,1.9,1.1,2.8,2.7,3.4c0.6,1.3,1.3,2.2,2,1.6c0.3-0.3,0.5-0.6,0.7-1
		c1.9,0.4,3.9,0.7,4.9,1.6c0.5,0.5,1,1.1,1.4,1.8c-0.3,0.2-0.5,0.3-0.5,0.4c-1.1,2.4,0.2,2.7,1.6,2.2c0.4,1.1,0.6,2.3,0.8,3.6
		c-0.8-0.4-1.6-0.5-2.4,0c-3.7,2.2-0.4,3.8,2.1,4.8c-0.4,1.8-1,3.5-2.1,5.2c-0.5-0.2-1-0.3-1.1-0.3c-3.2-0.1-12.9,3-14.9,5.7
		c0.4,0.8,1.1,2.4,1.6,2.9c-0.1-0.8,8.2-5.6,11.1-5.7c-0.6,0-0.2,0.2,0.5,0.4c-4.4,3.2-12.9,7-14.6,11c0-0.4-4.5,2.6-5.5-0.7
		c0,0,3-2.8,2.2-2.9c-6.8-1.2-8.3,6.6-6.5,11.7c-0.9-7.9,5-1.6,7.6-2.9c0,0,0.9-3.7,1.1-3.9c0.7-0.7,1-1,1.1-1.2
		c-0.4,0.9-0.4,1.8,0.1,2.7c0.6,1.2,2.1,1.5,3.8,1.6c-0.2,2,0.9,4,0.5,2.7c-0.7-1.9,2.9-2.1,4.4-1.9c7.2,0.9,0.9,2.2-2.2,2.9
		c-0.7,0.2-8.9,7.4-8.7,7.8c3.5,5.8,12.5-4.7,11.3-5.8c1.5,0.4,7.2,2.9,9.6,4.2c0.6,0.9,1.2,1.7,2,2.3c0.2,0.2,0.5,0.3,0.7,0.4
		c0.5,0.9,0.4,1.2,0.6,0.2c1.5,0.4,3.3,0.3,5.4,0.5c-0.2,1.3-0.4,2.4-0.3,3.1c1.2-0.5,2.1-1,2.1-1.1c-1.4,2-2,2-2.1,1.1
		c-2.5,1.2-6.3,2.8-6.6,2.8c0.8,0-2.5-4.8-1.1-3.9c-2.3-1.4-5.4-0.6-7.6,1c0,0,6.7,1.6,6.5,2.9c-0.2,1.8-5,0.3-6.5,1
		c-3.2,1.5-4.6,7.4-8.7,4.9c1,0.6,3.5-4.6,1.8-4.9c-1.4,1-10.2,5.6-5.1,8.8c3,1.9,6.3-2.2,7.6-1c0.8,0.8,0.9,8,2.4,8.3
		c0.4-0.1,0.7-0.3,0.9-0.5c-0.3,0.4-0.6,0.5-0.9,0.5c-3.5,1.2-15,0.2-15.4-0.5c-3.4-5.9,13.5,1.3,12-3.9c-0.7-2.3-24.3,1.5-18.5-2.9
		c3.7-2.8-2.1-7.2-3.3-6.8c-0.4,0.1,0.2,4.3,0,4.9c0.5-1.2-5.6,4.5-5.4,4.9c0.7,2,12.2,2.9,4.4,2.9c-6.1,0,4.9,5.7,5.4,5.8
		c3,0.5,1.3-3.7,4.3-2.9c5.9,1.6-1.1,3.4-2.2,3.9c-4.6,2.2,0.3,5.8,2.2,4.9c-2.8,1.4-10.5-1.7-13,0c1.4,0.4,1.2,2.1,2.2,2.9
		c5.5,4.4-4.2,4-1.1,8.7c3,4.7,9.6-2.5,9.8,2.9c0.1,3.4-5.2,2.7-5.8,4.4c-2.9-1-5.9-1.8-8.4-1.9c-14.5-0.8-43.9,12.7-48.8,32.7
		c-1.3,5.2,4.3,8.4,3.4,13.5c-0.6,3.5-5.5,4.7-4.8,8.7c0.6,3.5,5.3,3.7,7.1,6.7c2.6,4.2,0.1,9.9,2.8,12c0.9,0.7,8.5,0.3,11.3,1.4
		c7,2.5,12.1,10.5,16.3,11.9c1.3,0.4,17.1,1.2,16.7,1.3c2.7-0.7,4.6-6.3,8-8c-0.6,2.3,0.3,4.5,4.2,2.8c4.7-2.1,6.8,4.8,2.2,8.7
		c-0.6,0.5-4.1-2.3-6.5-1.9c-3.6,0.5-9.7,5.9-12.1,8.4c0.4,0.2,0.3,0.6-1,1.3c-0.4,0.2,0.1-0.4,1-1.3c-1.2-0.5-7.1,0.8-5.3,3.2
		c3.6,4.9,6.6-2.5,8.7-1.9c5,2.2-8.6,7.3,0,5.8c7.6-1.3-5.1,2.7-4.4,9.7c0.2,2.3,5.1,2.6,5.4,2.9c0.5,0.6-3.3,4.6,1.1,2.9
		c2.9-1.1,0.3-9.5-1.6-8.3c-0.5,0.5-0.7,0.8-0.5,0.6c0.2-0.3,0.4-0.5,0.5-0.6c1.1-1.2,3.7-3.5,7.1-2.3c-2.5-0.9,2.6,7.1,2.2,4.9
		c1.1,6.4,8.7-9,10.9-8.7c7.5,0.9-4.3,4.4-4.4,8.7c0-0.8,3.4,1.1,3.3,1c0.6,0.6,0.8,1.1,0.9,1.6c-23.4-5-31.9,25.4-10.5,32.5
		c8.9,2.9,17.8-1.8,22.4-8.5c0.7-0.1,1.3-0.2,1.4-0.2c0.7-0.5,0.3-4.7,2.2-6.8c3.6-4,9.9-4.5,10.9-8.7c-2.7,7.7,3,20.8,12.3,14.2
		c-2,2.3-4.6,2.8-4,5.3c0.4,2,1.2,2.5,2.1,2.6c-1.2,3-1.9,5.9-0.5,8c0.2,0.4,2.8-0.3,3.3,0c2.9,2-0.3,3.4,3.3,0c-2,2.9-4,5.9-6,8.8
		c-1.5-1-3.5-1.8-6-2.3c-14.6-2.8-20.4,12.6-12.6,20.1c0.4,1.1,1.4,1.7,2.7,2c0.8,0.4,1.6,0.8,2.6,1.1c7.4,2.4,15-3.8,16.9-10.4
		c0.1,0.1,0.2,0.1,0.3,0.2c2.5,3.1-6.3,16.5,3.3,11.7c6.4-3.3-3-1.6-2.2-3.9c0.3-0.9,12-6.9,12-6.8c2.6-2.8-4.1,3.8-4.4-1
		c-0.1-2.8,3.9-0.5,5.3-1.8c0.7,1.1,1.4,2.3,1.9,3.5c-3,4.5-7,9.9-3.9,13.8c-0.7-0.8,2.6-1.3,2.2,0c-1.1,3.1-6,2.1-5.4,3.9
		c3.8,3.2,8.4-2.1,9.8-1c1.3,1.1-4.7,6.9,0,6.8c5.6-0.1,9.8-6.9,1.1-7.8c-5.4-0.5-5.2-8-3.3-8.7c0.5-0.2,0.9-0.2,1.3-0.1
		c-0.2,2.8-2.8,4.6-0.4,7.4c2.3,2.6,6.6,0.1,12.5,4.2c1.5,1.1,2.3,2.2,2.9,3.2c-0.5,1.2-0.2,2.8,2.1,3.7c0.1,0.1,0.3,0.2,0.4,0.3
		c3.4,1.7,6.7,1.8,9.5,1.6c2.7,0.2,5.8-0.1,6.5,1.1c1.1,1.8-6.1,5.4-1.1,6.8c0.7-3.3,2.5-5.4,3.6-7.8c0.2,0.2,0.3,0.3,0.4,0.6
		c0.5,0.8-4.1,9.2-5,14.7c-1.8-0.9-3.9-1.3-3.4-1.6c-3.3,1.8,0.6,3.9,3.3,4.4c0.4,1.5,1.6,2.2,4.2,1.4c3-0.9,3.5-10,6.8-14.9
		c0.5,0.1,1.2,0,2-0.6c2-1.3,3.1-2,3.8-2.2c0.2,0,0.5,0,0.7,0c0.6,0.8-5.3,7.4-1.2,8.1c-0.3-8.9,6.5-1,6.5-1c2.9-1.7,4-4.6,4.9-7.7
		c2.9-0.2,5.5-0.4,7.1-0.7c2-0.3,4.1-0.9,6.1-1.5c0.7,0.5,1.3,0.1,2-0.5c1-0.3,1.9-0.5,2.9-0.7c0.1,1.5,1.4,4.1,3.2,3.4
		c2.2-0.9,3.2-2.4,3.4-3.7c1.3,0.2,2.5,0.6,3.5,1.4c3.3,2.5-1.1,5.8,0.1,9.6c2.6,8.1,16,16.9,18.6,24.9c1.6,4.9,1.3,12.4,2.8,14.4
		c4.3,5.6,7.6,2.5,6.5-2c-0.6-2.2-6.2-5.5-8.8-11c-1.5-3.4-0.4-7.1-1.7-9.1c-1.7-2.6-5.2-1.7-6-3.8c-0.2-0.7,3.3-1.6,3.2-3.4
		c-0.2-6.4-8.6-18.6-6.7-22.1c4-7.6,11.4-1.8,18.9-2.6c10.3-1.1,112-9.6,126.5,0.8c0.5,0.4,13,21.4,13.6,9.5
		c0.2-4.7-21.6-11.9-4.4-6.7c-7.2-10.7-20.5-8.5-21.2-15.3c-0.4-3.3,8.9-6.7,11.8-9.3c14.4-13,10.1-21.6,7.1-33.5
		c1.7,0.6,3.2,1,3.5,1.5c0.8,1.1-0.5,8.4,2.2,9.7c-1.7-0.8,9.5-5.7,8.7-3.9c0.7-1.6-3.1-9.9-4.4-9.7c-3.3,0.5,1.9,6.3-4.4,5.8
		c3.4-6.4,2.9-16.2,9.8-16.5c0.7,0,3.5,1.6,2.2,1.9c2.6-0.7,6.3-4.5,7.6-3.9c6.1,3-2.4,7.2-1.1,8.7c0.4,0.5,7.1-0.4,7.6-1
		c1.2-1.5-4-5.2,1.1-8.7c1.4-1,5.5,1.2,6.5,1c1.6-0.3,2.8-2.6,4.4-2.9c31.8-6.7,76.2-6.3,106.6-12.6c-3.5-2.5-14.7,2.9-15.2-1
		c-0.6-4.2,11.5-0.1,15.2-2.9c-10.3-2.2-30.5,4.5-43.5,0c-0.9-0.3,0.7-2.9-1.1-2.9c0.7,0-1.7,2.8-2.2,2.9
		c-4.3,1.3-17.5,0.3-18.5-1.9c-0.4-1,16.6-1.5,19.6-1.9c9.1-1.2,44.9-8.7,50-7.8c0.1,0,1.4,2.9,1.1,2.9c9.4,0,21.9-3.9,28.3-5.8
		c-5.1-2.1-16.8,2.9-18.5,2.9c0.7,0-1.9-2.8-2.2-2.9c-1.6-0.5-6,3.3-5.4,0c0.9-5.4,15.1-2.7,19.6-2.9c5.8-0.2,13.9-1.3,18.5-1.9
		c-1.1,0.1-1.4-1.7,0-1.9c1.4-0.2,13-0.5,14.1,0c0.8,0.3-0.7,3.3,1.1,2.9c0,0,1.4-5,2-6.4c0,0.9,2.8,2.8,3.9,3.6
		c3.4-0.2,9.7-2.9,11.6-3c1.6-0.1,2.5,1.8,4.3,1.9c5.2,0.4,21.5-1.4,25-1.9c-1,0.1-4.9-0.1-4.4-1c1.5-2.5,9,1.3,7.6,1
		c-0.1,0,9.7,2.8,10.9,2.9c14.1,1.3,38.1-4.3,47.9-1c4.6,1.6,2.1,4.2,6.5,3.9c-0.9,0.1-0.6-3.4,0-3.9c-0.6,0.5,20.9,0.1,19.5-0.7
		c-0.4-0.1-0.8-0.2-1-0.2c0.6,0.1,0.9,0.2,1,0.2c2.4,0.7,6.9,2.6,7.7,2.7c1.5,0.2,5.9-1.9,7.6-1.9c2.8-0.1,5.5,1.6,8.7,1.9
		c13.9,1.3,30.3,0.1,42.4,1c8.3,0.6,7.2,2.2,7.6-1.9c0.5-4.8-8.1-1.6-12.3-1c1,0.9,1,1.3-1.8,0c0.4,0.2,1,0.1,1.8,0
		c-1.5-1.4-5-4.2-4-4.9c-0.7,0.5,8.9,0.8,12,1c16.2,1,38,2,50,3.9c6.8,1.1,21.5-0.2,27.2,1c-28.6-7.3-62-6.3-89.2-10.7
		c-0.7,3.2,10.4,2.1,2.2,2.9c0.1,0-14.1-2.8-14.1-3.9c-0.1-2,18.5-1.5,22.8-1c17,2.1,49.4,1.3,71.8,3.9c2.5,0.3,6.7,2,8.7,1.9
		c10.3-0.3,32.7-4,42.4,1c1.7,0.9-1,2.4,2.2,2.9c2.5,0.4,2.6-1.4,5.4-1.9c-0.2,0-1.4,2.1,0,1.9c36.8-4.2,148.3,14.2,181.6,11.7
		c-13-2.3,1.3-2.6,7.6-1.9c19.3,2.2,38.9,8.2,54.4,5.8c-9.3-4.7-53.8-6.9-27.2-9.7c-37.4-5.4-75.2-11.5-110.9-14.6
		c-3-0.3-30.3-4-28.3-5.8c3.4-3,24.5,2.3,31.5,2.9c18.3,1.7,36.3,3.6,51.1,1.9c-7.5-0.1-11.2-1.7-17.4-2.9
		c-10.8-2.1,10.5-0.3,15.2,0c16.3,1.1,35.3,0.9,52.2,2.9c8.6,1,21.7,4.9,29.4,1.9c-6-2.1-18.5-1.3-28.3-3.9c0.1,0,1.3-2.3,0-2.9
		c-2.8-1.3-10,0.9-10.9,1c-2.8,0.4-11.2-3.3-15.2-3.9c-0.2,0,0,2.2-1.1,1.9c-1.2-0.3-1.9-2.5-3.3-2.9c-6.1-1.7-14.6-2.3-22.8-2.9
		c-20.8-1.6-36.5-2.7-56.6-4.9c-0.6-0.1-22.7-1.4-20.7-5.8c1.7-3.6,19.4,3.5,19.6,1c-56.7-12.3-186.4-14.6-249-18.5
		c-41.8-2.6-79-4.2-114.2-4.9c-9.4-0.2-20.8-2.4-25-1c-0.9,0.3,0.8,3-1.1,2.9c-1-0.1-3.8-3.2-5.4-2.9c-1,0.1,1,3.3-2.2,2.9
		c-0.2,0,0.6-3.1,1.1-2.9c-3.1-1.4-31.9,2.9-40.2,1c0,0-1.3-3.5-2.2-2.9c1.6-1,10.4,0.3,16.3,0c147.4-6.4,317.7,8.3,438.3,16.5
		c48,3.3,98.2,13.9,133.8,11.7c-29.5-4.1-67.3-11.9-103.3-16.5c-19.6-2.5-45-2.5-64.2-4.9c-11.9-1.4-26-4.9-4.3-2.9
		c-0.2-4-8.3-1.4-12-1.9c-18.8-2.9,14.2-1.4,16.3-1c12.2,2.6,63.7,7.1,82.7,7.8c7.5,0.3,44.5,4.9,27.2,0c-9.7-2.7-16.1-2.2-26.1-3.9
		c-35.8-6.1-137.3-9.3-182.7-13.6c-11.1-1-20.6-3.8-28.3-3.9c-15-0.2-57.2-6.3-71.8-5.8c-2.4,0.1-4.7,2.5-6.5,1
		c-2.4-2,3.9-4.8,4.3-4.9c17.6-3.6,49.3,2.4,76.1,3.9c35.5,2,112.5-0.6,142.5,4.9c20.5,3.7,42.4,3.2,63.1,5.8
		c16.9,2.2,34.1,7.9,46.8,7.8c10.5-0.1,20.7,1.1,32.6,2.9c4.4,0.7,8.6,2.9,13.1,2.9c1.6,0,29.1-0.5,14.1-2.9
		c-10.5-1.7-19.3-2.1-28.3-3.9c-0.2,0,1.1-1.9,1.1-1.9c-8.9-2.4-41.8-7.3-59.8-9.7c-12.8-1.7-26.2-1.9-29.4-3.9
		c-2.2-1.4-0.2-4.2-2.2-4.9c-6.8-2.2-4.3,1.3-8.7,1c-0.5,0-15.4-3.9-14.1-5.8c1.3-1.9,17.5-1.1,19.6-1c14.5,1.1,20.6,3.5,38.1,3.9
		c19.5,0.4-18.2-5-23.9-5.8c-2.2-0.3-1.9-2.4-1.5-3.4c-2.5-0.2-9.3-2-7.2-3.4c1.3-0.9,4.6,0.6,8.7,1c45.2,3.8,91.8,10.3,137,19.4
		c8.2,1.7,23.8,8.6,37,5.8c-2.1-2.9-19.6-1.5-21.8-6.8c-0.3-0.7,1-3,1.1-2.9c-5.5-3-26.4-1.7-35.9-6.8c-2.1-1.1-0.5-3.3-2.2-3.9
		c-11.3-3.8-20.9-3.3-34.8-5.8c-3.6-0.6-37.1-7.4-29.4-6.8c16.1,1.3,39.6,5.4,53.3,3.9c-15-4.8-56.4-7.5-69.6-12.6
		c-11.1-4.3,4.6-1.6,6.5-3.9c-6-1.7-14.3-1.3-22.8-2.9c-5.5-1-17.3-3.6-7.6-4.9c8.2-1.1-0.6-2.3,3.3-3.9c2.1-0.9,16.8,1.3,21.8,1.9
		c47.4,6.3,101.9,19,144.7,21.4c-11.6-5.1-43.6-3.8-52.2-9.8c-0.4-0.2-0.7-0.5-1.1-0.9c0.3,0.3,0.7,0.6,1.1,0.9
		c3.2,1.8,5.2-4.5,5.4-3.8c-1-3.2-17.9-1.7-19.6-1.9c-2.8-0.4-4.2-3.3-6.5-3.9c-10.4-2.6-26.3-5.4-34.8-5.8c-1.8-0.1-5.1,1.3-6.5,1
		c-3.4-0.7-10-6.2-8.7-5.8c-6.3-1.8-10.9,1-17.4,1c-11-0.1-19.4-3.9-26.1-4.9c9.1,2.7-7.1,1.8-13.1,0c-0.4-0.1,1.2-1.9,1.1-1.9
		c-1.1-0.7-2.8,1.2-3.3,1c-2.3-1-3.2-2.5-7.6-3.9c-14.1-4.5,10.2-1.6,10.9-1.9c1-0.5-0.8-2.8,1.1-2.9c6.5-0.5,22.2,3.7,28.3,2.9
		c1.3-0.2,2.9-3.3,5.4-3.9c5.8-1.4,11.5,1.9,17.4,2.9c14.7,2.6,30.8,4.2,39.2,3.9c-5.4-1.9-15.4-0.1-19.6-2.9
		c-1.1-0.7,0.7-2.5-1.1-2.9c-5.6-1.3-7.6,1-15.2,0c-7.1-1-30-5.8-7.6-3.9c19.4,1.7,35.1,6.2,45.7,3.9c9.8-2.1,15.7-0.2,27.2,1.9
		c33.7,6.4,49.7,11.3,72.9,8.7c-7.6-4.1-27.2-3.3-32.6-9.7c0.3,0.4,2.7-0.7,2.2-1c-4.6-2.1-35.4-10-10.9-5.8
		c7.7,1.3,30.7,4.9,43.5,7.8c7.7,1.7,26.5-0.3,37,3.9c0-4.2,0-8.4,0-12.6C1336.8,318.3,1336.3,320.6,1332.9,320.3z M122.5,443.7
		C124.4,449.6,116.5,451,122.5,443.7L122.5,443.7z M141,477.7c-3.3-0.8-4.5,6.5-6.5,7.8C129.1,488.8,130.8,476.3,141,477.7z
		 M186.4,321c0.4-0.7,0.8-1.5,1.2-2.2C187.3,319.8,186.9,320.5,186.4,321z M127.9,488.4c11.9-8.8,3,12.2-2.2,7.8
		C125.2,495.7,126.7,489.3,127.9,488.4z M135.5,502c5.8-3.6,0.2,5.7-1.1,5.8C131.1,508.1,133.7,503.1,135.5,502z M135.2,539.9
		c0.3,0.8,0.5,1.6,0.4,2.5C134.5,541.7,134.2,540.8,135.2,539.9z M199.7,313.5c-0.6-0.1-2.3-9.6-2.2-9.7
		C201.6,299.7,205.9,314.2,199.7,313.5z M192.1,301.8c1.5-5.9,6.1,9.6,4.4,9.7C193.4,311.8,191,305.9,192.1,301.8z M191,308.6
		c0,0.1-0.2,0.1-0.5,0.1c0.1-0.7,0.2-1.3,0.2-2C191.1,307.2,191.2,307.8,191,308.6z M104,330c-0.7-2-0.7-3.1-0.3-3.8
		c1.2,0.9,2,2.5,2.7,4.2C105,329.7,103.7,329.2,104,330z M113.8,398c0.2-0.2,2.3-1.8,3.3-1C119.8,399.6,109.7,401.7,113.8,398z
		 M109.4,410.7c2.7,2.1,2.1,3.9,0.4,5.3c-0.5-0.4-1-0.8-1.6-1.1C109.4,414,110.6,412.9,109.4,410.7z M104,407.8
		c-0.6,0.5-1,0.7-1.5,0.7c-0.4-1.6-0.4-3.2-0.6-4.5C103.1,404.3,104.6,407.2,104,407.8z M107.2,399.8c0.4-0.6,1.8-0.4,2.3-0.8
		C107.8,400.5,107.4,400.1,107.2,399.8c-0.2,0.2-0.2,0.6,0.1,1.1c0,0-0.4,0-0.8,0c-0.1,0.3-0.2,0.6-0.3,1c-1.7,5.3,7.7-1.6,7.6-1
		c-0.4,2.6-8.6,8.2-8.7,0c0,0.1,0.8,0,1.4,0C106.9,399.6,107,399.6,107.2,399.8z M106.2,358.2c-3.2,2.8-4.3-2.3-4.4-1.9
		C102.1,353.6,107.4,357.1,106.2,358.2z M101.8,377.6c4.7,5.5-3.1,8.2-7.6,8.7C94.9,381.9,102.5,383.5,101.8,377.6z M93.1,395.1
		c0.6,0.7,0.9,1.5,1,2.3c-1.1-0.4-2.2-0.9-3.3-1.3C91.3,394.9,92.1,394,93.1,395.1z M88.8,366c3.5-3.1,4.1,6.5-2.2,5.8
		C84.8,371.6,86.8,367.7,88.8,366z M80.1,376.7c3.3-4,0.2,1.8,0,1c1.3,4.5,10.7,0.8,6.5-1.9C97.3,382.8,73.2,384.8,80.1,376.7z
		 M86.6,388.3c1.7,1.3-0.3,3.7-2.1,5.7h-0.1c-1.4-0.5-3-1.1-4.7-1.7C82.9,391.1,86.9,388.5,86.6,388.3z M87.7,491.3
		c-0.9-0.3-5.9-8.6-5.4-9.7c-0.5,1.1,5.6,0.9,5.4,1c4.9-3.1,0.6-6.4,1.1-7.8c0.6-1.4,4.4-4.8,5.4-5.8c5.1-5.3-5.1,8.8,0,4.9
		c2.1-1.6,3.1-13.9,7.6-7.8c1.3,1.8-1.9,4.1-2.9,5.3c1.3-0.1,6,4.3,2.9,5.4c0.3-0.1-3.2-1.4-3.3-1c-1.6,8.4,10.1-1.2,5.4-1.9
		c6.6,1.1,1,5.4-2.2,5.8C95.3,480.6,99.8,495.7,87.7,491.3z M101.8,491.3c-1.8-1.6,4.4-4.4,4.4-7.8
		C109.9,487,103.6,489.7,101.8,491.3z M116,503c0.1,0,0.7,8.9-4.4,10.7c-0.9,0.3-3.5-4-5.4,0c0,5,5.2,0.5,5.4,1
		c1.2,2-2.5,5.8-3.3,5.8c-1.3,0.1-2.1-0.3-2.6-0.8c-0.1-1.1-0.3-2.1-0.7-3.1c0.5-4,4.2-9.6,4.4-9.7c3.1-1.1,1.5,3.5,4.4,0
		c-4.2,0.1-3.8-7.9-3.3-7.8c-2.1-0.4-6.7,7.3-7.6,8.7c-0.6,0.9-1.1,2.2-1.4,3.6c-1.5-1.4-3.6-2.6-6.1-3.5c-0.1-1.4-0.3-3.3,1-4.9
		c2.5-3.1,8.7-10,9.8-10.7c1.2-0.8,2.1,1,2.2,1.7c1.2-1.1,8.6-5.2,9.7-3.6c-0.2-0.3-5.3,4.5-5.4,5.8c-0.6,8.2,5.7-1.2,8.7,3.9
		c2.8,4.7,4.3,1.2,7.6,3.9c1,0.8,2.1,6.9,2.2,5.8c-0.7,7-4.5-1.4-4.4-2C126.5,507.9,117.9,502.3,116,503z M120.3,518.5
		c-1.3-1.2,0.8-3.7,1.1-3.9C130.6,507.3,125.6,523.2,120.3,518.5z M124.7,526.3c0.1-0.9,4-0.8,6.2-1c0,0.6-0.1,1.1-0.3,1.6
		c-0.3,0.7-0.6,1.2-1,1.7C127.9,529,124.6,527.5,124.7,526.3z M138.8,559.3c-0.3-0.2-0.2-1.2,0-2.5c0.6,0.2,1.2,0.4,1.8,0.8
		c0.5,0.3,1,0.6,1.5,1.1C141.1,559.6,140,560,138.8,559.3z M143.1,560.3c0-0.2,0.1-0.3,0.1-0.5c0.4,0.4,0.7,0.9,1.1,1.3
		C143.7,560.9,143.2,560.6,143.1,560.3z M399.8,525.3c-2.3,0.2-4.1-2.4-3.3-3.9C399,517.1,406.2,524.7,399.8,525.3z M932.7,437.9
		c2.6,0.2,6.6-2,6.5,1c0-0.4-1.8,1.7-1.1,1.9c4.5,1.4-0.3-3.3,3.3-2.9c5.2,0.6,49.9,2.6,51.1,2.9c3.5,1,26.7-4.1,26.1,1.9
		c-0.4,4.6-89.5-1-90.2-4.9C923.3,436.4,928.7,437.6,932.7,437.9z M910.9,436.9c-3.6-1-8.9-0.5-12-1.9
		C899.6,434,909.6,433.2,910.9,436.9z M787,467c-2.3,1.5-12.4-1.4-14.1-2.9C776.4,462.5,789.5,465.3,787,467z M766.3,464.1
		c1.8-3.8,7,1.9,3.3,2.9C770.3,466.8,765.6,465.6,766.3,464.1z M761.9,467c-1.3,0.5-5.1-4.3-5.4-3.9
		C759.8,459.8,768.8,464.7,761.9,467z M751,462.2c0.3-0.1,3.6-1.6,4.4,0C757.5,466.1,745.4,465.2,751,462.2z M722.8,246.5
		c-30.7,2.3-75.6-1.5-107.7,1c36.9-2.9,69.5-4.7,107.7-1.9C729,245.9,729,246,722.8,246.5z M740.2,246.5c0.5-2.2,5.4-0.4,7.6-1
		C747.2,248.8,742.6,247,740.2,246.5z M759.8,247.4c-19.7-0.3,0.7-3.9,10.9-1C768.9,248.1,764.1,247.5,759.8,247.4z M773.9,247.4
		c9.2-2.7,15.9-0.7,25,0C794.8,249.8,780.9,248.4,773.9,247.4z M809.8,248.4c2,3.3-5.9,1.6-5.4,0
		C804.9,246.5,809.2,247.4,809.8,248.4z M804.4,396.1c2.1-1.8,10.8-1.3,13,0C813.8,398.8,809.2,397,804.4,396.1z M918.6,383.5
		c3.7,0.4,7.3,1.1,9.8,1.9C919.2,388,900.3,381.6,918.6,383.5z M997.9,388.3c2-3.2,12.5,0.5,17.4,1
		C1011.4,391.2,1002.9,388.8,997.9,388.3z M1132.8,362.1C1127.9,365.8,1117.9,360.6,1132.8,362.1L1132.8,362.1z M1135,345.6
		c12.5,1.5,26,3.2,37,4.9c12,1.8,23.7,5.7,33.7,6.8c0.2,0.8-0.4,0.9-1.1,1c-29.7-3.2-60-9.6-94.6-12.6
		C1116.2,342,1126.5,344.6,1135,345.6z M1108.8,353.3c0.2,1.6-6.9,1.5-7.6,0C1100.7,352.1,1108.8,353.1,1108.8,353.3z M1095.8,357.2
		c8.6-1.9,12.5-0.2,22.8,1c8.3,0.9,2,3-4.4,2.9c-7.3-0.1-12.9-0.6-20.7-1.9C1089.9,358.5,1089.4,358.6,1095.8,357.2z M1220.9,318.4
		c-0.4-0.6,7.6-0.2,7.6,0C1228.8,320,1222,320.2,1220.9,318.4z M1229.6,318.4c4,2.9,13.5,0.9,17.4,3.9
		C1244.8,324.3,1229.6,322.1,1229.6,318.4z M1314.4,326.1c6.2-0.2,20.1-0.4,22.8,6.8C1330.9,329.5,1321.7,328.7,1314.4,326.1z
		 M1218.7,349.4c20.7,12.1,38.2-14.1,20.1-27.6c-7.6-5.6-17.4-3.9-23.9,1.1c-0.7-0.2-1.2-0.2-1.4-0.2c-0.8,0.2-1.8,4.4-4.2,5.8
		c-4.7,2.7-10.9,1.1-13.1,4.9c5-6.4,3.7-20.7-7.2-17.3c2.6-1.5,5.2-1.2,5.5-3.8c0.2-2-0.3-2.8-1.2-3.1c2.1-2.4,3.6-5,3-7.5
		c-0.1-0.4-2.8-0.6-3.1-1c-2.1-2.8,1.3-3.1-3.1-1c2.8-2.2,5.6-4.3,8.4-6.5c1.1,1.5,2.8,2.8,5,4.1c12.9,7.3,23.3-5.5,18.2-15.2
		c-0.1-1.2-0.8-2.1-1.9-2.7c-0.6-0.6-1.3-1.3-2.1-1.8c-6.3-4.6-15.4-1.1-19.3,4.6c-0.1-0.1-0.2-0.2-0.2-0.2
		c-1.4-3.7,11.2-13.7,0.6-12.1c-7.1,1.1,2.4,2.5,0.8,4.4c-0.6,0.7-13.6,2.8-13.5,2.7c-3.3,1.9,5.1-2.3,3.8,2.3
		c-0.7,2.7-3.9-0.8-5.6,0.1c-0.3-1.3-0.6-2.6-0.7-4c4.2-3.3,9.8-7.2,8.1-11.9c0.4,1-2.9,0.4-2.1-0.7c2-2.6,6.3-0.1,6.4-2
		c-2.6-4.2-8.7-0.6-9.6-2.1c-0.9-1.4,6.6-5,2.1-6.5c-5.3-1.7-11.5,3.5-3.5,7c5,2.2,2.4,9.3,0.4,9.3c-0.6,0-1-0.1-1.3-0.3
		c1.1-2.6,4.1-3.5,2.7-6.9c-1.3-3.2-6.3-2.2-10.5-7.9c-1.1-1.5-1.5-2.8-1.8-4c0.8-0.9,1-2.6-0.9-4.2c-0.1-0.1-0.2-0.3-0.3-0.4
		c-2.7-2.6-5.8-3.8-8.5-4.5c-2.5-1-5.6-1.7-5.9-3.1c-0.5-2,7.5-3.2,3.2-6.1c-1.7,3-4.1,4.3-5.8,6.3c-0.1-0.2-0.2-0.4-0.2-0.7
		c-0.2-0.9,6.8-7.5,9.3-12.3c1.4,1.4,3.3,2.5,2.7,2.6c3.7-0.6,0.6-3.9-1.8-5.2c0.1-1.5-0.8-2.6-3.5-2.6c-3.2-0.1-6.4,8.4-11.1,12
		c-0.5-0.3-1.1-0.3-2.1-0.1c-2.3,0.6-3.6,0.9-4.3,0.9c-0.2-0.1-0.4-0.1-0.7-0.2c-0.4-0.9,7.4-5.3,3.7-7.3c-2.6,8.6-6.5-1.1-6.5-1.1
		c-3.3,0.7-5.3,3.1-7,5.8c-2.8-0.7-5.4-1.3-7-1.6c-2-0.3-4.1-0.4-6.3-0.5c-0.5-0.6-1.2-0.5-2-0.1c-1-0.1-2-0.1-3-0.2
		c0.3-1.4-0.1-4.3-1.9-4.2c-2.4,0.2-3.7,1.3-4.3,2.4c-1.1-0.6-2.2-1.4-2.9-2.5c-2.3-3.4,2.9-5.1,2.9-9.2c0.1-8.5-9.8-21.1-9.9-29.5
		c0-5.1,2.7-12.2,1.8-14.6c-2.4-6.7-6.4-4.7-6.8-0.1c-0.1,2.3,4.2,7.2,4.9,13.2c0.4,3.7-1.9,6.9-1.2,9.2c0.8,3,4.4,3.2,4.5,5.5
		c0,0.7-3.6,0.5-4.1,2.2c-1.8,6.2,2.3,20.4-0.6,23.1c-6.2,5.9-11.4-1.9-18.7-3.5c-10.1-2.2-14.4,5.3-24.9-9
		c-0.4-0.5-5.7-24.4-9.9-13.3c-1.7,4.4,16.8,18.1,2.1,7.8c3.5,12.4,16.8,14.5,15.4,21.2c-0.7,3.3-10.6,3.5-14.1,5.1
		c-17.7,7.8-16.4,17.4-17.3,29.6c-1.4-1.1-2.7-2-2.8-2.5c-0.4-1.3,3.1-7.8,1-9.9c1.4,1.3-10.8,2.4-9.5,1c-1.1,1.3-0.1,10.4,1.1,10.6
		c3.3,0.5,0.2-6.6,6-4.2c-5.3,5-7.8,14.5-14.5,12.6c-0.7-0.2-2.8-2.6-1.5-2.5c-2.7-0.2-7.4,2.3-8.4,1.3c-4.8-4.8,4.6-6.1,3.8-8
		c-0.2-0.6-6.9-1.9-7.5-1.5c-1.6,1.1,2.2,6.2-3.8,8c-1.6,0.5-54.8-2.8-55.9-3c-1.6-0.3-3.5,1.6-5,1.4
		c-32.3-3.7-74.3-17.9-105.2-21.4 M1186.9,303.8c-0.1-0.9,0.1-1.7,0.4-2.5C1188.1,302.3,1188.2,303.2,1186.9,303.8z M1181.3,333.6
		c2.8-6.4,3.8,2.8,3.6,3.3 M1193.6,344.8c-0.1,0,2.1-8.7,7.5-8.8c1,0,2,4.9,5.2,1.7c1.6-4.7-4.7-2.1-4.9-2.6
		c-0.5-2.3,4.2-4.7,4.9-4.5c1.2,0.3,1.9,0.9,2.2,1.6c-0.2,1-0.3,2.1-0.3,3.2c-1.8,3.6-7,7.8-7.2,7.8 M1194.4,328.7
		c0.9,1.6-2,3.2-2.3,3.3C1181.1,336.2,1190.9,322.6,1194.4,328.7z M1192.7,320c-0.3,0.8-4-0.5-6.2-1c0.2-0.5,0.5-1,0.8-1.4
		c0.5-0.5,1-0.9,1.5-1.3C1190.4,316.4,1193.1,318.9,1192.7,320z M1189.6,284.2c0.2,0.3-0.2,1.2-0.8,2.3c-0.5-0.3-1-0.8-1.4-1.3
		c-0.4-0.4-0.7-0.9-1.1-1.5C1187.5,283.2,1188.7,283.1,1189.6,284.2z M1185.8,281.9c0,0.2-0.2,0.3-0.2,0.4c-0.2-0.5-0.4-1-0.6-1.6
		C1185.4,281.2,1185.9,281.6,1185.8,281.9z M1026.1,266c2.2,0.5,3.2,3.5,1.9,4.7C1024.3,274,1019.7,264.6,1026.1,266z"/>
	<path class="st6" d="M1112.6,412.3c-0.1,0-0.2,0.2-0.4,0.5C1113.1,412.8,1113.5,412.7,1112.6,412.3z"/>
	<path class="st6" d="M622.1,505.5c2.1,0.8,2.2,0.7,1.5,0.1C623,505.7,622.5,505.7,622.1,505.5z"/>
	<path class="st6" d="M104.5,374.4c0.3-0.1,0.5-0.1,0.7,0C105.6,374.1,105.5,374.1,104.5,374.4z"/>
	<path class="st6" d="M118.6,523c0.1,0,0.1-0.1,0-0.3C118.5,522.9,118.4,523.1,118.6,523z"/>
	<path class="st6" d="M108.9,500.7c0-0.1,0.1-0.3,0.3-0.6C108.9,500.1,108.8,500.3,108.9,500.7z"/>
	<path class="st6" d="M84.9,317c1-0.4-1-4-1.1-3.9c0.1-0.4,0.3-0.6,0.4-0.9c-0.5,0.6-1.3,1.4-2.5,1.9c-1.2-5.2,2.6-3,2.2-5.8
		c-0.3-2.1-3.3,0.2-3.3-3.9c0-0.2,4.3,0.2,4.4,0c2.5-6.3-11.3-1.8-8.7,6.8C77.1,314.3,84.5,317.2,84.9,317z"/>
	<path class="st6" d="M84.2,312.3C84.8,311.5,84.7,311,84.2,312.3L84.2,312.3z"/>
	<path class="st6" d="M108.5,335.1c5.9,1.1,7.2-7.9,3.6-10.3c-2.5-1.6-4.2,4.5-4.4,8c1.5-1.4,4-3.3,4.4-4.1
		C110.3,333.2,109.2,335,108.5,335.1z"/>
	<path class="st6" d="M106.7,334.5c0.5,0.3,1.1,0.4,1.5,0.5c-0.4-0.2-0.5-1.1-0.5-2.2C106.9,333.7,106.3,334.3,106.7,334.5z"/>
	<path class="st6" d="M1308.4,421C1327.2,426.1,1312.3,417.1,1308.4,421L1308.4,421z"/>
	<path class="st6" d="M1111.5,427.8c3.6,0.7,7,1.6,10.9,1.9C1121.7,427.4,1110.1,425.8,1111.5,427.8z"/>
	<path class="st6" d="M860.3,507.5c4.9,0.5,14.1,2.3,17.4,1C875.1,508.3,865.9,504.6,860.3,507.5z"/>
	<path class="st6" d="M106.7,514.3c3.1-8.8-10.2-2.2-5.4,1.9c1.1,0.9,1.4-0.6,4.4-1.9C105.7,514.2,106.1,515.8,106.7,514.3z"/>
	<path class="st6" d="M241.3,204.2c-2.6,0.5-7,4.4-5.4,4.9C236.9,209.4,244,203.8,241.3,204.2z"/>
	<path class="st6" d="M185.4,230.2c20.8,4.7,37.7-29.9,10.4-36.3C167.7,187.4,159,224.3,185.4,230.2z"/>
	<path class="st6" d="M550.7,573c-1.3,1.2,10.4,13.6,11.9,7.6C563.2,578.2,552.2,571.6,550.7,573z"/>
	<path class="st6" d="M236.5,213c-1.4,0.3-8.8,0.6-7.5,3.9C229.8,218.9,242.4,211.7,236.5,213z"/>
</g>
</svg>
