<?xml version="1.0" encoding="utf-8"?>
<!-- Generator: Adobe Illustrator 25.2.1, SVG Export Plug-In . SVG Version: 6.00 Build 0)  -->
<svg version="1.1" id="Layer_1" xmlns="http://www.w3.org/2000/svg" xmlns:xlink="http://www.w3.org/1999/xlink" x="0px" y="0px"
	 viewBox="0 0 492.5 200.7" style="enable-background:new 0 0 492.5 200.7;" xml:space="preserve">
<style type="text/css">
	.st0{fill-rule:evenodd;clip-rule:evenodd;fill:#ED1F24;}
</style>
<g>
	<path class="st0" d="M507.4-42.1c0.6,0.5,0.4,3-0.6,3.1C507.2-39.9,507.3-41,507.4-42.1z"/>
	<path class="st0" d="M54.9-9.8c-0.4,1.3-1.7,1.8-3,2.2C51.8-9.6,53.3-10.1,54.9-9.8z"/>
	<path class="st0" d="M47.4-7.4c-1.5,1-0.9,2.1-2.3,2.8c0.8-1.8-0.4,0-1.1-0.6C44.7-6.9,45.9-7.1,47.4-7.4z"/>
	<path class="st0" d="M42-5.4c-2.2,1.9-3.8,2.6-7.4,3.4c1,1.5,4.5-0.9,5.1-0.9c0.4,1.4,1.2,0.1,1.4,1.7c-4.2,0.5-4.6,4.5-9.1,4.8
		c0.3-1.6-0.2-4.5-0.9-4.4C33.5-3.6,38.2-4.2,42-5.4z"/>
	<path class="st0" d="M25.6,3.5c-0.6,2-3.9,2.2-6.7,3C19.6,4.1,23,4.2,25.6,3.5z"/>
	<path class="st0" d="M389.4,2.6c1.1-0.3,0.6,0.7,0.4,1c2.4,0.8,5.6,1.2,7.2-0.3c6.4,1.6,11,1.9,18.7,3.3c-2.2,1.7-6.4,0.2-9.6,0.1
		c-9.5-0.5-20.1-1-31-1.5C374.3-1.9,388.5,6.3,389.4,2.6z"/>
	<path class="st0" d="M272.6,8.8c-0.2,1.3-2.6,0.7-3.4,0.5C269.8,8.5,271.5,8.4,272.6,8.8z"/>
	<path class="st0" d="M325.6,12.1c-0.5,2-3.9,1.5-5.1,0.6C321.4,11.3,323,12.7,325.6,12.1z"/>
	<path class="st0" d="M329.8,13.3c-0.3-0.1-0.3,0.1-0.3,0.4c-0.3-0.2-0.6-0.3-1-0.3c0.2-0.3,0.4-0.6,0-0.7c0-0.4,0.6-0.3,1-0.4
		C328.6,13.7,329.9,11.9,329.8,13.3z"/>
	<path class="st0" d="M333.9,12.8c0.4-0.9,2.1-0.2,2.7-0.1C336.3,13.4,334.2,13.2,333.9,12.8z"/>
	<path class="st0" d="M360.9,11.7c5,0.6,8.4,0.2,13.4,0.1c-0.4,2.9-4.7,1.2-7.2,1.3c-2.3,0.2-4.6,1.3-6.2-0.1
		C361,12.6,361,12.2,360.9,11.7z"/>
	<path class="st0" d="M342.1,13.2c0.5-0.6,3.5-0.9,3.1,0.6C343.9,14.5,343.2,13.5,342.1,13.2z"/>
	<path class="st0" d="M420.6,16.8c-6.6-2-14.1-0.5-21.7-1.8c-1.3,0-1,0.8-1.3,1.1c-0.6,0.1-0.7-0.4-1.4-0.3c-1.4,0.2,0-0.5-0.4-1.4
		c-4.3-0.4-8.4-0.3-12-0.5c-0.9-0.1-1.8-0.8-2.8-0.9c-1.5-0.1-4,1.8-4.8-0.5c2.8-2.5,9.4,0.4,13-0.5c2.4,2.2,6.8,0.8,11.4,1.2
		c6.3,0.6,13.8,1.8,17.9,2c2.9,0.1,11.3-1,11.7,0.9C430.6,18,421.8,15.6,420.6,16.8z"/>
	<path class="st0" d="M396.6,10.6c0.3,0,0.7,0,1,0c0.9,0.4-0.6,1.1,0.4,1.4c0.1,0.7-1.2,0.2-1.7,0.4
		C396.6,11.9,396.8,11.3,396.6,10.6z"/>
	<path class="st0" d="M400.7,10.4c1.1,0,2.4-0.2,2.4,0.9C402.8,11.6,400.6,11.7,400.7,10.4z"/>
	<path class="st0" d="M355.8,12.6c1-0.1,1.1,0.7,2.1,0.6c-0.4,0.5-1.2,0.7-2,0.8C355.9,13,355.3,13.3,355.8,12.6z"/>
	<path class="st0" d="M394.1,15.1c-0.5,1.3-3.2,0-5.1,0.6C389.4,13.6,391.9,15.2,394.1,15.1z"/>
	<path class="st0" d="M442.1,14.5c-0.2,0.3-0.3,0.6-0.3,1c-0.7-0.1-1.5-0.1-1.4-1C441.2,14.2,441.3,14.2,442.1,14.5z"/>
	<path class="st0" d="M456.5,14.6c0,0.9-1.6,0.9-2,0.4C454.7,14,456.1,13.5,456.5,14.6z"/>
	<path class="st0" d="M466.5,14.5c0.3-1.7,3.1-0.8,3.5,0.5C468.7,15.8,467.4,15.2,466.5,14.5z"/>
	<path class="st0" d="M395.2,17.8c1.1,0.2,2.9-0.6,3.4,0.2C398.4,19.6,395.7,19,395.2,17.8z"/>
	<path class="st0" d="M440.5,18c-0.2-0.3-0.8-0.3-0.7-1c0.5-0.8,2-0.8,3.4-0.8c0,0.6,0.4,0.7,0.4,1.4c-2-0.1-0.9,1.1-1.6,2.5
		c-0.8-1.1-3.9,0.2-3.9-1.9C439.4,18,439.4,17.6,440.5,18z"/>
	<path class="st0" d="M450.4,16.6c0.6,4.4,4,2.8,6.4,4.5c-1.4-0.2-3.9,0.9-3.8-0.9c-1.8,0.5-2.7,1.7-4.7,1.9
		c-0.4-1.9-0.3-3.9-1.6-5.4C447.7,15.4,448.9,16.6,450.4,16.6z"/>
	<path class="st0" d="M404.9,18.8c-0.4,0.8-2.4,0.2-3.4,0.5C401.8,18.1,404.4,18,404.9,18.8z"/>
	<path class="st0" d="M454.5,16.1c1,0.1,1.8,0.5,2.4,0.9c-0.7,1.3-2.1,2-4,2.2c0-0.6,0-1.1-0.1-1.7c1-0.3,0.9,0.4,1.7,0.3
		C454.5,16.9,453.9,16.7,454.5,16.1z"/>
	<path class="st0" d="M469,17.5c-0.2,1-2.1,1.5-3.1,0.8c0-1.3,0.3-2.4,1.3-2.8C468.1,15.9,468.5,16.8,469,17.5z"/>
	<path class="st0" d="M414.1,18.1c1.7,0,1.5,0.1,2.8,0.2C416.7,19.8,414.1,19.7,414.1,18.1z"/>
	<path class="st0" d="M462.8,16.7c0,0.5,0,0.9,0.1,1.4C461.6,18.4,461.5,16.5,462.8,16.7z"/>
	<path class="st0" d="M424.8,18.7c0.8,0,1.6-0.1,2.4-0.1C427.5,20.1,424.9,19.7,424.8,18.7z"/>
	<path class="st0" d="M475.2,16.9c0.9,0.2,1.9,0.4,1.8,1.6c-0.8,0-1.6,0.1-2.4,0.1C474.9,18.2,474.9,17.4,475.2,16.9z"/>
	<path class="st0" d="M438.6,20.2c0.3,1.7-2.1,0.9-3.4,1.2c-0.4-1.1,0.1-1.4-1.4-1.7C435.2,17.5,436.7,20.5,438.6,20.2z"/>
	<path class="st0" d="M470.2,20.9c-4.6,0.2-5.2,0.8-8.9-0.3C463,18.5,467.5,19.4,470.2,20.9z"/>
	<path class="st0" d="M420.8,21.2c2.1,1.4,4.8,0.8,8.6,1.4c-2.4,1.2-4.4-0.4-8.6,0C420.8,22.1,420.8,21.7,420.8,21.2z"/>
	<path class="st0" d="M473.6,19.7c2.1,0.2,2.9-0.4,4.2,1.5c-0.7-0.7-1,0.2-2.1,0.1c-0.1,0.6,0.3,0.6,0.7,0.7
		c0.3,0.9-0.7,0.7-0.6,1.4C475.2,21.4,474.6,21.2,473.6,19.7z"/>
	<path class="st0" d="M480.8,19.8c1.1,1,2.3-0.4,2.5,1.3c-1.2-0.1-1.9,0.2-2.7,0.5c-0.2-0.3-0.3-0.6-0.7-0.7
		C479.9,19.5,481,21.2,480.8,19.8z"/>
	<path class="st0" d="M404.4,24c-1.4,1.2-1.8,0.4-4.4,0.5C400.1,23.7,402.6,24.1,404.4,24z"/>
	<path class="st0" d="M436,24c-0.6,0-1.1,0-1.7,0.1C434.4,23.2,436,22.4,436,24z"/>
	<path class="st0" d="M441.8,22.8c0.5,0.4,1.5,0.2,1.4,1.3c-1.1-0.2-1.2,0.4-2,0.4C440.8,23.4,441.7,23.4,441.8,22.8z"/>
	<path class="st0" d="M410.6,24.4c-0.2,0.9,0.7,0.6,1.1,1c-0.3,1.4-1.7-0.1-2.7,0.8c-0.2-0.5-0.6-0.8-1.1-1
		C407.9,24.1,409.6,24.6,410.6,24.4z"/>
	<path class="st0" d="M462,22.3c1.1-0.3,1.1,0.5,1.7,0.6c0,0.9-1.6,0.9-2,0.4C461.9,23,462,22.7,462,22.3z"/>
	<path class="st0" d="M467.2,22.1c0.5,0.1,0.6,0.6,1.1,0.6c0,0.9-1.2,0.9-1.7,0.4C466.6,22.7,467.1,22.5,467.2,22.1z"/>
	<path class="st0" d="M428.2,26.8c-2.5-0.3-3.2,0.1-5.5,0.6c0.2-0.6-0.5-2,0.3-2.1C423.9,25.3,428,24.8,428.2,26.8z"/>
	<path class="st0" d="M437.8,26.4c-0.6,1.7-2,1.1-3.7,1.2c0-0.4-0.1-0.6-0.4-0.7C433.7,25.2,437.1,25.6,437.8,26.4z"/>
	<path class="st0" d="M450.9,26.5c-1.3-0.2-1.9,0.9-2.7,0.1C448,25.2,450.7,25.3,450.9,26.5z"/>
	<path class="st0" d="M457.3,25.6c-0.4,0.9-1.5,1.1-2.7,1.1c0-0.4-0.1-0.6-0.4-0.7C455,25.2,456,25.1,457.3,25.6z"/>
	<path class="st0" d="M465.2,24.9c0,1.6-2.3,1-3.7,1.2C461.7,24.7,463.7,25,465.2,24.9z"/>
	<path class="st0" d="M476,27.9c1.6,0.5,2,0.3,3.5,0.5c-0.7,0.8-2.7,0.4-3.4,1.2C475.5,29.1,475.9,28.5,476,27.9z"/>
	<path class="st0" d="M436.3,31.6c-1.4,0-1.6,0.6-2.7,0.1C433.2,29.3,436.2,29.8,436.3,31.6z"/>
	<path class="st0" d="M470.6,29.8c-4.1,0.3-5.8-0.4-8.9,0.7c-0.1-0.6,0.4-0.7,0.3-1.4C465.8,30.4,468.6,27.4,470.6,29.8z"/>
	<path class="st0" d="M453.7,29.8c1.1-0.1,2.1-0.1,2.4,0.6C456.2,31.9,453.5,30.9,453.7,29.8z"/>
	<path class="st0" d="M451.8,31.6c2.1,1.7,8.3-1,11.1,1.6c-4,1.3-9.1,0.4-12.4,0.2C450.1,32.1,452.3,33.1,451.8,31.6z"/>
	<path class="st0" d="M475.1,30.7c0.6,0,1.1,0,1.7-0.1c0,0.6,0.3,0.9,0.7,1c-0.2,0.8-2.8,1.9-2.7,0.1
		C476.6,31.6,475,31.6,475.1,30.7z"/>
	<path class="st0" d="M444.2,32.6c-0.5,0.8-0.7,0.7-0.3,1.7c-0.7,0-1.4,0.1-2.1,0.1C442.4,33.6,443.1,32.9,444.2,32.6z"/>
	<path class="st0" d="M433.3,33.4c0.7,0,1.4-0.1,2.1-0.1C435.6,34.9,433.2,35.2,433.3,33.4z"/>
	<path class="st0" d="M438.4,33.2c0.3,1.3-1.9,0.5-2.7,0.8C436.3,33.5,437.3,33.3,438.4,33.2z"/>
	<path class="st0" d="M447.8,36.3c-0.7,1.3-4.5,0.8-5.8,0.6C443.7,35.8,445.3,36.6,447.8,36.3z"/>
	<path class="st0" d="M475.7,37.5c-0.6-0.5-1.4,0.3-1.4-1.3c1.3,0.2,1.5-1.1,3-1.5c0.6,0.5-0.6,1.8,1.1,1.7
		c-0.5,0.6-1.3,0.8-2.4,0.8c-0.3,1.6,2.1,0.4,1.8,2c-0.5,0.6-1.7,0.4-2.7,0.5C474.9,38.8,474.5,37.7,475.7,37.5z"/>
	<path class="st0" d="M464,37c-2.7,1.5-6.8,1.4-9.9,1.1C456.5,36.5,461,36.5,464,37z"/>
	<path class="st0" d="M445.2,38.1c-0.9,1.5-3.3,1-4.5,0.2C441.6,37.1,444.1,37.4,445.2,38.1z"/>
	<path class="st0" d="M451.3,38.2c-1.3,0.3-3.6,0.9-4.8,0.2C447.2,37.3,450.8,36.5,451.3,38.2z"/>
	<path class="st0" d="M473,39.3c-1.8-1.2-4.2,3-5.5-0.1C469.5,38.3,471.6,37.7,473,39.3z"/>
	<path class="st0" d="M461.7,39.8c0.9,0,2-0.2,2.4,0.2c-0.3,0.3-0.2,0.9-0.6,1.1c0.7,1,1.3,0,2.4,0.6c-0.6,1.1-1.4,1-1.3,2.1
		C464.1,42.7,462.5,41.7,461.7,39.8z"/>
	<path class="st0" d="M459.3,40.6c-0.7,0.6-1.9,0.9-2.7,1.5c0.5,1.2,0,1.3,0.4,2.4c-0.8,0-1.6,0.1-2.4,0.1c0.1-0.6,0.6-0.8,1.3-0.7
		c-0.1-1.5-1.5-1.4-2.2-2.3C454.7,39.9,457.5,40.4,459.3,40.6z"/>
	<path class="st0" d="M445.7,42.2c-3.1,1.1-6.1,0.9-8.2,0.3C439,42.8,444.1,39.7,445.7,42.2z"/>
	<path class="st0" d="M452.2,42.3c-1.6-0.1-0.4,0.4-1,1.1c-1.2-1.5-3.5,0-4.5-1.9C448.3,41.3,452,39.9,452.2,42.3z"/>
	<path class="st0" d="M470.4,42.5c-0.3,0.8-0.5,1.7-2,1.5c0.4,0.6,1.5,0.3,2.1,0.6c0.3,1.4-1.3,1-2.4,1.1c0-0.6-0.3-0.9-0.7-1
		c1.3-0.6-0.3-1.3-0.8-2C467.6,40.9,469,42.1,470.4,42.5z"/>
	<path class="st0" d="M478.3,42.5c-1.3,0.3-1.7-0.4-2.8-0.2C476.1,41.8,477.6,40.3,478.3,42.5z"/>
	<path class="st0" d="M482.1,42c0.9,1.4-1.3,0.6-2.4,1.1C479.8,42.2,481.7,42.8,482.1,42z"/>
	<path class="st0" d="M479.4,43.2c-0.9,1.8-0.5,2.9-2.3,3.5c1-1.6-1-1-0.8-2.7C477.1,43.6,478.3,43.4,479.4,43.2z"/>
	<path class="st0" d="M441.4,47.5c-0.9-1.6,3.2-1.3,1.6-2.1c0-0.3,0.4-0.3,0.7-0.4c0.2,0,0.5,0,0.7,0c-0.3,0.3-0.3,0.8-0.3,1.4
		c-0.9,0.1-1.8,0.1-1.7,1.1c0.5,0.7,1.4-0.6,1.1,1.3c-3.1-0.8-5.8,0.3-9-0.7C436.3,46.4,439.2,47.7,441.4,47.5z"/>
	<path class="st0" d="M455.1,45.2c0.6,0,1.1,0,1.7-0.1c0.2,1.6,1.8,1.6,2.8,2.3c-0.8,1.3-3,0.3-4.4,0.5
		C454.4,46.1,456.4,46.7,455.1,45.2z"/>
	<path class="st0" d="M474,45.1c1.3-0.1,2.8-0.4,2.5,1.3C475.3,46.3,474.2,46.2,474,45.1z"/>
	<path class="st0" d="M464.8,47.2c-0.7-0.2-2.4,0.7-2.1-0.6C463.1,46.1,464.7,46.2,464.8,47.2z"/>
	<path class="st0" d="M468.5,46c0,0.3,0,0.7,0,1c-0.6-0.1-1.7,0.4-1.4-0.6C467.4,46.2,467.9,46,468.5,46z"/>
	<path class="st0" d="M467.9,47.8c1.2,0,2.8-0.4,3.4,0.2C470.7,48.8,468.4,49,467.9,47.8z"/>
	<path class="st0" d="M-18.1,69.2c0.9,0,1.4,0.4,1.4,1.3c-0.3,0.2-0.6,0.3-0.7,0.7C-18.2,70.8-18.4,70.1-18.1,69.2z"/>
	<path class="st0" d="M486,53.2c-0.4,0.6-1,1-1.3,1.8c-1.5-0.5-0.8-1.7-2.2-2.7C483.8,51.6,485.6,51.9,486,53.2z"/>
	<path class="st0" d="M481.4,57.9c1,2.2,4.2-0.1,5.9,1.1c-1.4,2-4-0.5-6.5,0.3C480.9,58.8,481.2,58.4,481.4,57.9z"/>
	<path class="st0" d="M480.3,65.8c-0.8,0.7-2.1,0.9-2.3,2.8c-0.8-0.5,0.2-3-1.8-2.3C476.8,64.7,478.8,66.2,480.3,65.8z"/>
	<path class="st0" d="M490.3,67.1c1.1,0.4,2.2,0.7,2.5,2c-1,0-2.2,0.3-2.8-0.2C489.9,68.1,490.1,67.5,490.3,67.1z"/>
	<path class="st0" d="M482.2,68.8c0.6,0,1.1,0,1.7-0.1c0,0.9-0.4,1.4-1.3,1.4C482.6,69.6,482.1,69.5,482.2,68.8z"/>
	<path class="st0" d="M486,78.6c-1.6,0.3-2.4-0.3-3.8-0.2c0-0.6,0-1.1-0.1-1.7C483.9,76.1,486.2,76.2,486,78.6z"/>
	<path class="st0" d="M-1.5,100.3c-0.4,1.5-1.8,0.1-2.7,0.1C-4,99.1-2.2,100.1-1.5,100.3z"/>
	<path class="st0" d="M485.2,84.5c0.2,0.8,0.8,1.7,0.1,2.4C483.1,87.2,482.5,84.3,485.2,84.5z"/>
	<path class="st0" d="M444.9,91c0.3,1.2-1.2,1.3-1.7,0.8C443.3,91,444.1,91,444.9,91z"/>
	<path class="st0" d="M478.2,89.6c1.1,0.3,1.9,1,2.8,1.6c-0.1,1.6-2.4,1.7-3.4,0.8C477.2,90.6,478.3,90.7,478.2,89.6z"/>
	<path class="st0" d="M474.8,90.8c-3.4,2.6-6.8,0.8-12.6,1.9C464.2,91.3,470.7,90.2,474.8,90.8z"/>
	<path class="st0" d="M468.1,93.5c-1.6,0.7-4.1,2-6.1,1.3C463.2,93.4,465.7,93.3,468.1,93.5z"/>
	<path class="st0" d="M479.4,94.7c0.2,0,0.5,0,0.7,0c-0.1,0.3,0.1,0.3,0.4,0.3c0,0.2,0,0.5,0,0.7c-0.3-0.1-0.3,0.1-0.3,0.4
		c-0.2,0-0.5,0-0.7,0c0.1-0.3-0.1-0.3-0.4-0.3c0-0.2,0-0.5,0-0.7C479.4,95.1,479.4,94.9,479.4,94.7z"/>
	<path class="st0" d="M484.3,95.9c1.2-0.3,1.7,0.3,2.4,0.6C486.6,97.6,483.9,97.4,484.3,95.9z"/>
	<path class="st0" d="M481,107.7c-0.6,1.2,0.1,2,0.1,3.4c-1.8,0.1-2.5,0.6-3.8-0.2C477.6,108.7,478.6,105.9,481,107.7z"/>
	<path class="st0" d="M473.1,108.4c1.6,0.7-0.6,1.9,0.8,2.7c-1.3-0.3-0.9,0.9-2,0.8c-0.2-0.9,1.3-1.8,0.2-2.4
		C472,108.6,473.1,109,473.1,108.4z"/>
	<path class="st0" d="M469.5,111.6c-3,1.3-10.5,2.1-14,3c0.6,1.6-1.5,3.7-3.7,2.9c-0.1-0.8-0.8-1.4,0.3-1.7
		c-0.2-0.5-0.8-0.6-1.4-0.6c-0.3-1,0.6-1,0.3-2.1C456.5,112.7,463.4,110.9,469.5,111.6z"/>
	<path class="st0" d="M478.4,119.1c-0.5,1.3-2.4,1.3-3.7,1.9c0.1,2.8,20.3,3.6,20.3,6.2c-4.9,0.2-24.3-4.8-22.4-7.5
		c-2.2-0.5-5.1-0.9-5.8,1.3c-3.5-0.5-4.5,0.7-7.9,1c0-0.6-0.3-0.9-0.7-1c4.2-0.7,7.5-3.7,11.2-2.2
		C472.6,114.8,473.8,120,478.4,119.1z"/>
	<path class="st0" d="M484.5,117.2c0.6-0.9,2.7-0.4,3.1,0.2C486.7,118.9,485.6,117.4,484.5,117.2z"/>
	<path class="st0" d="M447.2,121.5c-0.1,1.2-1.7,1-3,1.2C444.4,121.4,446.2,121.8,447.2,121.5z"/>
	<path class="st0" d="M456.5,121.4c-1,1.4,16.4,2,14.3,2.6c-2.1,0.6-4.8,1.7-6.5,0.6c-0.3-1-19.1-0.7-19.4-1.7
		C448.9,122.8,452.3,122.2,456.5,121.4z"/>
	<path class="st0" d="M466.5,121.7c1.5,0.2,21.9,1.5,22.5,2.6c-1.4-0.3-1.3,0.8-2.4,0.8c-0.4,1.1,1.1,0.2,0.7,1.3
		c-0.6,0-1.1,0-1.7,0.1c-0.1-0.6,0.4-0.7,0.3-1.4c-1.9-0.2-4.7,1.8-6.8,1.3c0.4-1.4-19.2-1.7-20.1-2.7c0.3,0,0.2-0.4,0.3-0.7
		c0.6,0.6,2,0.2,3.1,0.2c0.1,0.9,19.5,1.1,19.4,1.7c0.7,0,1.4-0.1,2.1-0.1C484.8,123.9,465.7,122.8,466.5,121.7z"/>
	<path class="st0" d="M482,122.1c-1.7,1.4,19.3,4.4,16.4,5.3C498.1,124.9,477.3,119.8,482,122.1z"/>
	<path class="st0" d="M486.8,122.9c-1.3,0-3.1,0.5-3.1-0.9C484.6,121.7,486.2,121.9,486.8,122.9z"/>
	<path class="st0" d="M475.3,124.9c-3,1.8-6.7,2.5-10.9,2.5C466.1,124.6,473.4,124.7,475.3,124.9z"/>
	<path class="st0" d="M-3.4,146.1c-1.5,0.5-3.1,0.1-3.5-1.6C-6,144.1-3.1,144.1-3.4,146.1z"/>
	<path class="st0" d="M474.8,130.4c-0.1,1-2.1,1.3-2.7,0.8C472.4,130.4,473.7,130.4,474.8,130.4z"/>
	<path class="st0" d="M468.1,134.1c0.4,1-2.2,1.8-2,0.4C466.5,134.1,467.3,134.1,468.1,134.1z"/>
	<path class="st0" d="M462.7,137.1c-0.1,1.6-1.6,0.8-2.7,0.8C460.1,136.8,461.7,137.2,462.7,137.1z"/>
	<path class="st0" d="M455.3,138.8c-0.2,0.7-1.4,1.4-2,0.8C453.2,138.7,454.3,138.8,455.3,138.8z"/>
	<path class="st0" d="M-7.4,156.9c0.9-0.1,1.1,0.4,1.1,1.3c-0.3,0-0.7,0-1,0C-7.4,157.8-7.4,157.3-7.4,156.9z"/>
	<path class="st0" d="M488.8,152.7c-0.9,2.5-5.7,1.6-7.8,3.1c0-0.6,0-1.1-0.1-1.7C483.9,153.1,485.9,152.7,488.8,152.7z"/>
	<path class="st0" d="M481.4,156.4c0.5-1.2,0.6,1,1.7,0.3c-0.3,1-2,1.8-3,1.2C479.9,157,482.3,156.9,481.4,156.4z"/>
	<path class="st0" d="M488.7,157.5c-1.5,0.7,1.4,2-0.9,2.4c0.1-2.1-0.6-1.4-2.1-1.3C486,157.7,487.3,157.5,488.7,157.5z"/>
	<path class="st0" d="M470.2,159.6c-0.6,0.6-1.8,0.5-2.7,0.8C467.6,158.8,469.2,159.1,470.2,159.6z"/>
	<path class="st0" d="M483.9,158.4c-0.9,1.2-4.8,4.4-2.2,5.6c-0.6,0.5-1.5,1.8-2.4,1.1c-0.1-0.7,0.2-1.1,1-1.1
		c-1.9-0.2,0-2.5-1.5-2.7c0.1-0.6,0.6-0.8,1.3-0.7C478.8,159.1,482,158.4,483.9,158.4z"/>
	<path class="st0" d="M495.2,158.9c0.6,1.3-1.5,0.2-1.3,1.1C492.9,159.6,494.3,158.6,495.2,158.9z"/>
	<path class="st0" d="M466.9,161.8c0.6-0.8,2.6-0.2,3.8-0.5C469.6,162.9,468.6,161.8,466.9,161.8z"/>
	<path class="st0" d="M488.5,163c-0.7,0-1.4,0.1-2.1,0.1C486.5,162.6,488.7,161.6,488.5,163z"/>
	<path class="st0" d="M469.7,164.5c0.2,0.7-0.5,0.7-1,0.7c-0.1,1.2,1.1,1,2.1,0.9c0.3,0.4-2.5,0.8-3.7,0.8c0.7-1.1,1.4-1.3-0.4-1.7
		C466.9,164.3,469.3,164.3,469.7,164.5z"/>
	<path class="st0" d="M476.9,164.9c-0.2,1.7-1.8,0.6-2.7,1.1C474.3,164.9,475.9,165.1,476.9,164.9z"/>
	<path class="st0" d="M463.3,167.1c0.4,1.2-1.8,0.7-2,0.4C461.5,166.4,463.2,167,463.3,167.1z"/>
	<path class="st0" d="M448.9,168.4c0,1.8-1.5,0.5-2.4,1.1C446.6,168.4,448.1,168.8,448.9,168.4z"/>
	<path class="st0" d="M443.8,169c0.3,1.1-0.5,1.3-1.3,1.4c-0.2-0.3-0.3-0.6-0.7-0.7C442.2,169.2,442.9,169.1,443.8,169z"/>
	<path class="st0" d="M509.3,167.6c0.4,1-2.2,1.8-2,0.4C507.7,167.6,508.5,167.6,509.3,167.6z"/>
	<path class="st0" d="M502.6,169.6c-0.5,0.2-2.3,1.9-2.4,0.4C500.6,169.6,501.7,169.7,502.6,169.6z"/>
	<path class="st0" d="M482,171.2c0.1,1.8-1.2,0.6-2.7,1.1C479.5,171.2,481.3,171.7,482,171.2z"/>
	<path class="st0" d="M471.8,173.7c-1.1,0.6-3.5,1.8-5.1,0.9C468.3,173,470.3,173.6,471.8,173.7z"/>
	<path class="st0" d="M463.6,174.7c-0.1,0.7-2.2,1.2-2.7,0.5C460.6,173.9,463.3,174.4,463.6,174.7z"/>
	<path class="st0" d="M78.9-19c0.3,0.2,0.6,0.3,1,0.3c-0.8,0.4-1.3,1.3-2.7,1.1C77-18.8,79.3-17.6,78.9-19z"/>
	<path class="st0" d="M94.1-9c1,0.2,1.3,1.2,1.8,2C95.4-6.4,94-7.8,94.1-9z"/>
	<path class="st0" d="M61,5.8c-0.9,0.9-1.3,2.1-2.3,2.8C59.3,7.5,59.7,6.2,61,5.8z"/>
	<path class="st0" d="M461.2,132.7c0.2-0.6-1.6-0.5-1.4,0.1c-0.9-0.5,2-1.4,2.4-0.8c0,0.6-1.1,0.3-1,1.1c1.2,0.5,1.2-0.1,2.7-0.1
		c-0.6,2.2-3.8,0.6-4.3,3.3c-1.3,0.4-1.5-0.5-2.1-0.9c-1.4,0.6-3,3-4.8,1.2c-0.9,0.2-1.2,1.9-2.4,0.8c0.1,1,0.2,1.9,1.4,1.7
		c0.3,1.3-1.2,0.9-1.7,1.4c1.1,2.8,18.6,13.7,16.7,12.5c-1.8,1.2-4.2,1.8-6.1,3c4.8,1,11-2,16.1-0.7c-3.8,4.5-11.7,2.1-16.3,4.5
		c0.4,0.6,1.8,0.2,2.4,0.6c-2.7,2.5-4.5,0.2-7.8,2c0.1,1.5,2.4,0.8,2.5,2.3c-2.6,0.1-6.5,2.1-8.8,2.4c0.3-0.7-1-2.1-1.2-3.4
		c-2.6,1.5,7.6,5.7,2.2,4.5c-0.5,0.4-12.4,1.4-13.3,1.4c0.1,0.6,1.2,0.2,1.4,0.6c0,0.9,14.9,0.7,14,0.8c-0.7-0.7-15.9-0.7-15.7-1.4
		c-1.9,0.3,17.3-0.4,15.5-0.2c-2.5,4.4,9.8,3,5.4,5.1c1.5,0.7,3.4,0.5,4.6,2.2c14.1-0.8-14.3-2-1.6-1.6c-2,2-10.3,0-12.9,3.3
		c-2.3-0.7,32.2,1.1,28.7,1.8c-15.9,3.4-34.2,1.5-51.4,3.5c-1.4-1.4-2.5-1.1-4.5-1.5c-5.1,3.5-13.2,0.7-18.8,3.2
		c13,1.2,24.1,1.1,37.1-0.2c-0.1,0.8,1,0.3,1.1,1c-3.6,1.5-8.2,1.4-12.3,1.5c-10.3,0.3-20.9,1.2-30.9-0.4c0.4-1.2,3.6-0.6,4.7-1.9
		c-7.4-1.9-78.1,1.2-86.4,0.4c-1,0.2-0.6,1.7-0.9,2.4c-5.8,0.2-11.3,1.5-17.1,1.4c-0.4,0-0.3-0.6-0.4-1c-1.8,2.4-4,0.1-5.4,1.9
		c-1,0.1-1.1-0.7-2.1-0.6c-14.9,1.2-155.9-1.2-173.5-0.8c-4.8,0.1-9.8-1.2-14,0.9c-4.8-1.1-9,2-14.7,0.6c-2.3,2.2-5.6,1.9-8.8,2.1
		c-0.9,0.3-1.1,1.1-0.9,2.4c-14.4,1.8-27.6-1.8-40.7-3.1c-4.7-0.5-9.4-2.2-13.6-3.9c-5,0-9.5-3.5-10-9.5c-1.5-1.9-0.9-4.4-1-7.5
		c-0.1-6.3-3.4-11.6-3.1-17.7c0.3-7.2-3.3-15.9,2.2-21.7c0.9-7,0.2-11.5,3.4-16.6c0.3-6.8-3.2-12.7-3.4-18.6
		c-0.2-7-3.1-13.2-0.2-20.3c-1.2-4.4,0-9.8,1.8-13.8C11,49.9,12.5,37.4,17,28.9c2.2-4.2,2.1-6.4,5.5-8.8c1.7-1.2,7.1-4.8,9.4-5.5
		c3.6-1.1,7.8-0.6,11.6-1.2c4.8-0.7,10.3-1.3,16.1-1.7c11-0.7,24.6-2.8,36.4-0.5c2.3,0.4,4.6-0.5,6.9-0.3c1.8,0.2,2.8,0.6,5.2,0.5
		c13.8-1,138.9-3.9,151.5-4.4c0.8,0,1-0.6,1.7-0.8c5.4-1.2,11.1-0.3,16.1-1.4c8.3-1.8,17.2,0.5,24.7-1c1.6,0.6,3.4,1.1,5.5,1.1
		c1.2-0.1-0.8-1.1,0.3-1c12.2-2.2,29.6-0.7,42.9-1.1c0.7,0.1-0.1-1-0.4-1c0.3-1,1.1,0.4,1.1,1c2.6-0.1,6.2-0.4,8.3,1
		c1.8-1.3,3.2-1.6,5.4-1.3c0,0.6,0,1.1,0.1,1.7c1.6,0.8,4.2,0.5,6.2,0.8c-10.8,1.6-21.7,2.2-32.6,0.7c-1.1-0.2-1,0.6-1.7,0.8
		c-4.8-1.2-11.1,0.3-16.4,1.4c-11.7-1.3-26.8,1.2-40.9,0.3c-1.2-0.3-1.9,1.5-2.7,0.5c-1.5-0.2,0.2-1.6-1.1-2
		c-7,1.8-127.2,4.5-135.2,7.9c3.1,2.2,118.1-2.5,122.4-2.2c2.6,0.2,4.9,1.9,6.9,0.4c4.1,0.6,8.8,1,12.3-0.5c1.1,1.1,4.4,0.7,5.1-0.9
		c5.1,0.8,9.5,0.7,15.5,0c1.3,1,2.2,2.6,4.6,2.6c0.2-1.5-1.3-1.2-2.5-1.3c0.4-0.8,2.4-0.2,3.4-0.5c0.4,1.3-0.8,1-0.6,2.1
		c10.8,0.8,29.3,0.8,41.2,0.3c0.5-1.4-0.9-0.7-1.1-1.3c-0.1-1.3,1.7-0.8,1.6-2.1c1.1,1-0.8,2.4,0.1,3.4c7.4,0.7,17.1,0,24-0.3
		c1.2,0.7,3.5,0.3,4.5,1.2c2.4-0.3,5.1,0.3,7.9,0.7c2.3,0.3,5.5,0.2,5.9,2.2c-13.4-1.4-24.3,0.2-36,0.5c4.3,2.4,9.5-0.2,14.8,1.1
		c1.2,0,1-1.3,1.6-1.8c0.9,0.3,1.5,1,1.8,2c5.9-0.3,11.1,1.2,17.3,2c0,1.1-0.7,1.5-0.6,2.8c1.8,3.6,6.8-0.9,9.4,2.4
		c1-0.4,1.7-1,3.4-0.8c1.1,1.2,3.5,2.1,5.5,1.1c0.3,0.4,0.5,0.9,0.4,1.7c2.5,2.9,8.2,1.5,11.4,2.3c0.5-0.6,0.8-1.2,1.7-1.4
		c2.3,0.9,6.8,0.2,8.9,0.3c-0.1,1.6-0.9,1.5-0.2,3.1c-0.5,0.7-1.6,0.9-2,1.8c3.1,1.1,4.8-0.6,7.9,1c0.3,3.5-5,2.7-6.7,3.4
		c1.5,0.5,0.6,1.4,1.5,2.3c2.1,0.1,3.5-1,4.8,0.1c-0.1,1.3-0.3,2.4-0.9,3.1c-1-0.5-2.3-0.6-1.5-2c-3.9-0.9-6.7,0.8-9.9,1.8
		c1.2,0.9,1.6,2.5,3.9,2.2c-0.7,2.8,4.7,4.7,6.3,1.8c0.2,2.3,4.7,2.3,5,5.6c4-0.9,8.7-0.9,13-0.9c0.2-1.1-1-0.6-0.8-1.7
		c-1.3,0.4-2.2,1.1-3.7,1.2c-0.9-0.6-0.2-0.7-1.1-1.3c-2.2,1-5.5,0.7-7.5,0.3c-0.6-1.3,1.5-0.1,1-1.4c3.2,0.1,5.2,1.1,7.9-0.3
		c-0.2-0.3-0.3-0.6-0.7-0.7c1.9,0.5,3.1,1,6.9,0.4c0.3-1,0.9-1.8,2.7-1.5c0.4,1.2-1.5,0.4-1.7,1.1c1.2-0.4,3.3,1.2,4.5,1.5
		c-0.5,0.7-2.2,0.4-2.3,1.5c1.9,0.8,3.8,4.4,7.7,4.1c0.5-0.3-0.1-0.5,0.3-1.4c1,0.4,2.1,0.3,3.1-0.1c0-2.2-2.1-0.2-2.1-2
		c3.7-1.1,4.3,1,7.3,1.4c0.7-0.1,0.3-1.3,1-1.4c-0.6-1.4-3.6-1.2-4.8-0.8c-2-1.6-5.6-1.5-7.9,0c-0.7-0.8,0-2.7,0.2-3.8
		c2.1-0.5,1.9,1.6,3.5,1.6c2.3-1.5,4.2-1,6.5,0.4c2.3-1.3,6.2-0.3,9.3-0.4c-1.8,0.6-3.5,1.2-4.4,2.6c0.1,0.9,1.2,0.6,2.1,0.6
		c-0.6,3-3.3,4.6-0.1,6.5c-0.2,1-1.1,1.7,0.1,2.4c1.4,0.2,0.9-1.3,0.9-2.4c1.5-1,1.9,0.6,3.8,0.2c-0.5,1.8-1,2.9-0.5,3.5
		c-3.1-0.4-6.6,1.5-8.3-0.7c-0.6,0.1-0.8,0.6-0.6,1.4c-1.8-0.6-3.3,0.2-4.1,1.5c0.3,1.3,2,1,3.5,0.9c-3.9,1.2-11.1,1.9-15.3,3
		c1.9,1.3,5.8-1.2,8.6,0.7c1.2-0.2,1.2-1.5,2.3-1.8c0.1,1.4,1.4,1.4,2.1,2c0,0.6,0,1.1,0.1,1.7c-3.3,0.4-11.2,1.6-14.4,0.9
		c-0.9-0.2-3.3-1.1-2.5-2.6c-0.3,0.3-0.8,0.4-1.4,0.4c-0.8,0.2,0.4,0.5-0.3,1c2.5,3.6,9.2,1.4,13.5,2.5c-0.3,0.6-1,0.8-2,0.8
		c0.9,0.6,2,1,0.8,2c1.2,1.1,3.4,0.1,5.1-0.2c-0.2-1.5-1.8-0.1-1.8-1.3c1.6-3.1,7.2-2.6,7.6-6.8c0.5,0,0.9,0,1.4-0.1
		c0.7,1,0.3,3.1,1.2,3.7c2.3,0.8,5.5-2,7.2,0.4c-0.8,2.5-4.5,1.1-7.1,2c0.6,1.3,0.6,1.4,0.8,2.7c-4.3,0.9-10.1,0.7-13.4,0.9
		c-1.5,2.1-3.7,1.8-6.5,1.6c-1.1,0-0.9,1.1-1.7,1.4c-2.9-1.2-5.9-0.2-7.8,1.4c1.4,0.9,1.6,0.3,1.5,2c4.7,0.6,11-2.3,16.1-1.4
		c-1.1,0.7-0.2,0.8,1.1,0.6c0.7-1.3,1.6-2.2,2.6-3.2c2.4,0.9,5.6-0.9,5.9,1.8c-1.9-0.2-2.9,0.4-4.1,0.9c-0.2,1.1,0.6,1,0.4,2
		c-1.4-0.1-4.2,1-5.5-0.8c-1.7,1.8-5.5,2.5-7.9,1c-1.3,0.7-2.2,1.7-4,1.9c-0.2-1.3-0.5-1.1-1.5-2c-0.6,0.2-0.8,0.8-1.7,0.8
		c-1.1,5-8.8,1.7-12.6,2.6c-1.9,0.4-1.1,1.7-2.7,2.2c-0.2,1,0.5,0.9,0.4,1.7c7,1.9,14.5-1.7,21.6-0.9c-2.3,1.3-5.8,1.5-8.8,2.1
		c-0.1,1.2,1.5,0.5,2.1,0.9c-1.5,2.4-5.6,0.8-6.7,3c0.2,0.5,0.5,0.8,0.7,1.3c1.3,0.2,1.3-0.8,2.4-0.8c0-0.6-0.4-0.7-0.4-1.4
		c2.3,1.1,4.2,0.3,6.2,0.8c0.7-0.9,0.8-2.9,0.2-4.1c2,0.2,3.5-1,5.1-0.2c0.3,1.5-1.8,0.7-2,1.8c3.3,3.7,11.2-2.5,14.8,0.4
		c0,1.1-0.9,1.4-1.3,2.1c0.2,0.7,1.3,0.2,1.1,1.3c-0.8,0.3-1.3,0.8-2.4,0.8c2.8,2.3,6,0.6,7.5-2.4c0.4,1.5,0.7,3.1,1.5,4.1
		c-1.3,0-0.9,1.6-2,1.8c-1.3,0.5-0.9-0.9-1.4-1.3c-1.7,0.2-1.8,0.2-3.1,0.5c-0.2,1.1,1,0.6,0.8,1.7c-0.9,1.3-6.1,0.8-6.5,1.3
		c-1.1,0.3-0.6-0.7-0.4-1c-4.1,4.8-13.1,0.9-16.2,5.8c-1.4,0.2-0.2-0.7-0.4-1.4c-1.8,0-2.6,0.9-4.1,1.2c-0.2,0.8,0.2,1.8-0.9,2.4
		c1.4,0.2,1.9,1.2,3.5,1.2c-0.6,0.8-1.3,0.5-2.7,1.1c-0.2,1.5,2,0.3,1.8,1.6c-2.1,0.6-2.4,2.8-4.7,3.3c0.2-0.3,0.3-0.6,0.3-1
		c-2.9-0.3-4.2,3.3-7.8,2c-0.3,2.4,3.7,0.5,5.2,0.5c2.7,4.1,15,3.3,13,4.4c1.8,1.6,6-0.9,8.6,0.3c-0.1,1.7-1.7,1-2.7,1.5
		c-1.9,1-3.2,3.2-5.7,3.3c0.7,0.7,0.1,0.9-0.3,1.4C458.1,134.8,458.2,132.7,461.2,132.7z M453.7,54.2c0.1-0.5,1.8,0.3,2-0.8
		c-0.7,0.1-0.2-1.2-0.4-1.7c-0.9,0-2,0-2.4,0.4C453,53.1,453.2,53.8,453.7,54.2z M335.2,19.6c-3.1-1.7-6.5-0.9-10.7-1.3
		C326.8,20.1,330.5,19.3,335.2,19.6z M342.4,19.3c-1.3,0.2-4.2-1.5-5.1,0.6c8.6,0,12.9-0.4,18.5-0.8
		C350.8,17.6,345.8,18.7,342.4,19.3z M430.8,31.8c-1.9-0.3-4.9-0.8-5.8-0.1C427.2,31.9,428.7,32.6,430.8,31.8z M424.4,35.2
		c2.3,0.4,4.2,1.4,5.1-0.9C428,33.7,424.9,33.1,424.4,35.2z M474.2,58.9c0.5,0.5,1.5,0.3,2.4,0.2c0-0.6,0-1.1-0.1-1.7
		C475.5,57,474.4,57.6,474.2,58.9z M463.5,58.6c-1,1,0.9,0.9,0.1,1.7c2.1-0.4,4.4-0.8,5.8-2C467.9,58,464.7,58.1,463.5,58.6z
		 M457.7,66.4c2.1,0.4,3.1,1.2,5.2,0.1c-0.6-1.4-0.8-3.2-1.9-4C461.3,65.1,457.7,64.2,457.7,66.4z M463.3,77.9
		c-0.3-0.1-0.7,0-0.7-0.3c0.1-0.5,0.5-0.6,0.6-1.1c-0.5,0-0.9,0-1.4,0.1C461.9,77.3,462.8,78.9,463.3,77.9z M466,101.4
		c0.7,2.8,4,0.3,5.5-0.2c-0.8-0.8,0.2-2-0.4-2.4C468.1,99.8,467.8,99.9,466,101.4z M448.9,103.2c-0.8,1-1.8,1.8-3,2.5
		c7.2,0.5,13.3-0.9,17.7-3.5c-0.7,0.1-0.2-1.2-0.4-1.7c-2.2-0.1-3,0.9-4.4,1.6c-1-1.7-8,0.3-5.1,1.2
		C451.5,103.6,451.3,103.3,448.9,103.2z M440.8,106.6c1.3,0,2.5-0.1,3.1-0.8C442.9,105.1,441.4,106,440.8,106.6z M454.9,106.7
		c0,0.5,0.2,0.7,0.4,1c1.3-0.4,2-0.1,2.7-0.5C457.8,105.4,455.3,106.7,454.9,106.7z M443.2,114.8c0.6,0,1.1-0.1,1.4-0.4
		c0-1.1-0.6-1.5-1.4-1.7C443,113.5,442.5,114.1,443.2,114.8z M456.3,129.8c0.6-0.2,2.1,0.4,1.7-0.8c-0.6,0-1.1,0-1.7,0.1
		C456.2,129.4,456.2,129.6,456.3,129.8z M453.7,133.7c-0.1-0.6,0-1.1,0.3-1.4c-0.7-0.4-1.3,0.3-2.1-0.6
		C451.8,133.1,452.3,133.9,453.7,133.7z M450.1,163.6c1.2,0.1,5.3,1.2,4.1-1.2C453.7,164,450.7,161.7,450.1,163.6z"/>
	<path class="st0" d="M437.9,3.4c-0.3,0-0.2,0.4-0.3,0.7c-0.6,0.1-0.6-0.3-1-0.3c0-0.2,0-0.5,0-0.7c1-0.4,1.3-0.3,1.7,0.6
		C438.1,4.2,437.9,3.7,437.9,3.4z"/>
	<path class="st0" d="M429.2,18.5c-0.2-0.3-0.4-0.5-0.4-1c0.9,0.8,0.6,1.2,1.5,2.3c-1,0.1-2.2,0.3-2.1-0.9
		C428.8,18.9,428.8,18.5,429.2,18.5z"/>
	<path class="st0" d="M446.9,46.3c0-0.3,0.4-0.3,0.7-0.4c0.9-0.4-0.5-0.9,0.3-1.4c1.6-0.2,2-0.5,3.4-0.1c-0.4,1.3,1,0.6,0.8,1.7
		C448.8,47,449,46.8,446.9,46.3z"/>
	<path class="st0" d="M476.6,117.8c0.9-1.2-0.2-2.4,0.9-3.5c2.4-0.1,3.9-0.9,4.5,1.2c0.1,1.5-1.4,1.5-2.3,2.2c0.1,1.2,2,0.4,1.5,2.3
		c-0.8-0.1-0.7,0.7-1.7,0.4c-0.4-1.1-0.2-0.9,0.3-1.7C478.9,118.2,477.7,118.2,476.6,117.8z"/>
	<path class="st0" d="M468.7,132c0.2,1.2-1.9,0.3-2,1.1C465.8,132.7,467.9,131,468.7,132z"/>
	<path class="st0" d="M-13.1,150.9c1.1,1.1-0.5,2.6-0.5,3.8C-14.4,153.9-13.2,152.1-13.1,150.9z"/>
	<path class="st0" d="M498.2,154.7c0.9,0.2,1.1,1.2,1.8,1.6C499.6,156.9,497.9,156,498.2,154.7z"/>
	<path class="st0" d="M494.1,156.2c0.6-0.1,0.7,0.3,0.4,0.3c0.1,0.7,0.9,0.6,1.4,1c0,0.9-1.1,0.7-2,0.8
		C494.2,157.4,494.6,157.3,494.1,156.2z"/>
	<path class="st0" d="M470.4,35c-0.4,0.5-1.1,1.5,0.1,1.7c-0.9,1.5-3.9,0.1-4.4,0.9c-0.4-0.1-0.3-0.7-0.7-0.7
		c0.1-0.8,1.7-0.2,2.4-0.4c0.3-0.1,0.3-0.9,0-1C468.3,34.7,469.5,34.6,470.4,35z"/>
</g>
</svg>
