<?xml version="1.0" encoding="utf-8"?>
<!-- Generator: Adobe Illustrator 25.4.1, SVG Export Plug-In . SVG Version: 6.00 Build 0)  -->
<svg version="1.1" id="Layer_1" xmlns="http://www.w3.org/2000/svg" xmlns:xlink="http://www.w3.org/1999/xlink" x="0px" y="0px"
	 viewBox="0 0 1376.3 726.4" style="enable-background:new 0 0 1376.3 726.4;" xml:space="preserve">
<style type="text/css">
	.st0{fill:#FF0000;}
	.st1{fill:#FF0031;}
	.st2{fill:#FFFFFF;}
	.st3{fill:#FFFFFB;}
	.st4{fill:none;stroke:#FF0000;stroke-width:12;stroke-linecap:round;stroke-linejoin:round;}
	.st5{fill:#000102;}
	.st6{fill:none;stroke:#FF0000;stroke-width:8;stroke-linecap:round;stroke-linejoin:round;}
	.st7{fill:#001C63;}
	.st8{fill:none;stroke:#FF0000;stroke-width:9;stroke-linecap:round;stroke-linejoin:round;}
	.st9{fill:none;stroke:#FF0000;stroke-width:10;stroke-linecap:round;stroke-linejoin:round;}
	.st10{fill:none;stroke:#FF0000;stroke-width:7;stroke-linecap:round;stroke-linejoin:round;}
	.st11{fill:#C92128;}
	.st12{fill:#0C0002;}
	.st13{fill:#B2B2B2;}
</style>
<g id="_x31_6_double_x2C__barreled_x2C__shotgun_x2C__gun_x2C__mafia_x2C__criminal_x2C__gang">
	<g>
		<g>
			<path d="M428.5,169.3l-166.7-57.2l-62.6-21.5l9.6-27.8l242.5,83.2c7.7,2.6,11.8,11,9.1,18.7c-2.6,7.7-11,11.8-18.7,9.1
				L428.5,169.3z"/>
		</g>
		<g>
			<path d="M428.5,169.3l-9.5,27.8l-138.9-47.7c-15.4-5.3-23.6-22-18.3-37.3L428.5,169.3z"/>
		</g>
		<g>
			<path class="st0" d="M428.5,169.3l13.3,4.5c7.7,2.6,16-1.5,18.7-9.1c2.6-7.7-1.5-16-9.1-18.7l41.7,14.3l-2.4,7l-19,55.4
				l-54.9-18.8l2.3-6.8L428.5,169.3z"/>
		</g>
		<g>
			<path d="M506.3,234.7l-27.8-9.6l-6.9-2.4l19-55.4l2.4-7l27.8,9.5l30.2,2.6l-2.4,7c-2.7,7.7,1.4,16,9.1,18.7l0,0.1
				c65.8,22.6,103.8,89.4,92.2,155.8l-1.1-0.4L589,333.1l0.1,0c11.8-34.6-6.5-72-41.1-83.9l0-0.1l-20.9-7.2L506.3,234.7z"/>
		</g>
	</g>
	<g>
		<g>
			<g>
				<path class="st0" d="M546.2,186.3c-3.2-1.1-5.1-4.1-5-7.3l-21.1-1.8c-0.6-0.1-1.2-0.2-1.8-0.4l-305-104.6l-7.2,20.8
					c-1.3,3.8-5.5,5.9-9.3,4.5c-3.8-1.3-5.9-5.5-4.5-9.3l9.6-27.7c1.3-3.8,5.5-5.8,9.3-4.5l311.1,106.7l29.3,2.5
					c2.3,0.2,4.3,1.4,5.5,3.3c1.2,1.9,1.5,4.2,0.8,6.4l-2.4,6.9c-0.7,1.9-2,3.4-3.7,4.2C550.1,186.8,548.1,187,546.2,186.3z"/>
			</g>
			<g>
				<path class="st0" d="M416.6,204l-139-47.7c-3.8-1.3-5.9-5.5-4.6-9.3s5.5-5.9,9.3-4.6l139,47.7c3.8,1.3,5.9,5.5,4.6,9.3
					c-0.7,1.9-2,3.4-3.7,4.2C420.5,204.5,418.5,204.7,416.6,204z"/>
			</g>
			<g>
				<path class="st0" d="M469.2,229.7c-3.8-1.3-5.9-5.5-4.6-9.3l19-55.5c1.3-3.8,5.5-5.9,9.3-4.6c3.8,1.3,5.9,5.5,4.6,9.3l-19,55.5
					c-0.7,1.9-2,3.4-3.7,4.2C473.1,230.2,471.1,230.4,469.2,229.7z"/>
			</g>
			<g>
				<path class="st0" d="M648.7,361.2c-4-0.7-6.7-4.5-6-8.5c11.3-64.3-25.5-126.4-87.4-147.7c-3.8-1.3-5.9-5.5-4.6-9.3
					c1.3-3.8,5.5-5.9,9.3-4.6c68.8,23.6,109.6,92.6,97.1,164.1c-0.4,2.4-2,4.3-4,5.3C651.8,361.2,650.3,361.5,648.7,361.2z"/>
			</g>
			<g>
				<path class="st1" d="M586.7,340c-3.8-1.3-5.9-5.5-4.6-9.3c10.5-30.6-5.9-64.1-36.5-74.6c-3.8-1.3-5.9-5.5-4.6-9.3
					c1.3-3.8,5.5-5.9,9.3-4.6c38.3,13.1,58.8,55,45.6,93.3c-0.7,1.9-2,3.4-3.7,4.2C590.6,340.5,588.6,340.7,586.7,340z"/>
			</g>
			<g>
				<path d="M646.5,360.5L586.6,340c-3.8-1.3-5.9-5.5-4.6-9.3c1.3-3.8,5.5-5.9,9.3-4.6l59.8,20.5c3.8,1.3,5.9,5.5,4.6,9.3
					c-0.7,1.9-2,3.4-3.7,4.2C650.4,361,648.4,361.2,646.5,360.5z"/>
			</g>
			<g>
				<path class="st0" d="M545.6,256l-76.4-26.3c-3.8-1.3-5.9-5.5-4.6-9.3c1.3-3.8,5.5-5.9,9.3-4.6l76.4,26.3
					c3.8,1.3,5.9,5.5,4.6,9.3c-0.7,1.9-2,3.4-3.7,4.2C549.5,256.5,547.5,256.7,545.6,256z"/>
			</g>
			<g>
				<path class="st1" d="M469.2,229.7l-54.9-18.8c-3.8-1.3-5.9-5.5-4.6-9.3c1.3-3.8,5.5-5.9,9.3-4.6l54.9,18.8
					c3.8,1.3,5.9,5.5,4.6,9.3c-0.7,1.9-2,3.4-3.7,4.2C473.1,230.2,471.1,230.4,469.2,229.7z"/>
			</g>
			<g>
				<path class="st1" d="M498.9,278.9c-23-7.9-35.3-33-27.4-56.1c1.3-3.8,5.5-5.9,9.3-4.6c3.8,1.3,5.9,5.5,4.6,9.3
					c-5.3,15.4,2.9,32.1,18.3,37.4c7.4,2.6,15.4,2.1,22.5-1.4l0,0c7.1-3.5,12.4-9.5,14.9-16.9c1.3-3.8,5.5-5.9,9.3-4.6
					c3.8,1.3,5.9,5.5,4.6,9.3c-3.8,11.1-11.8,20.1-22.4,25.3c0,0,0,0,0,0C522,282,510.1,282.7,498.9,278.9z"/>
			</g>
			<g>
				<path class="st0" d="M439.4,180.8L196.8,97.6c-3.8-1.3-5.9-5.5-4.6-9.3c1.3-3.8,5.5-5.9,9.3-4.6l242.6,83.2
					c3.8,1.3,5.9,5.5,4.6,9.3c-0.7,1.9-2,3.4-3.7,4.2C443.3,181.3,441.3,181.5,439.4,180.8z"/>
			</g>
			<g>
				<path class="st0" d="M439.4,180.8c-3.8-1.3-5.9-5.5-4.6-9.3s5.5-5.9,9.3-4.6c3.8,1.3,8-0.7,9.3-4.6c0.6-1.9,0.5-3.8-0.4-5.6
					c-0.9-1.8-2.4-3.1-4.2-3.7c-3.8-1.3-5.9-5.5-4.6-9.3c1.3-3.8,5.5-5.9,9.3-4.6c5.6,1.9,10.1,5.9,12.7,11.2s3,11.3,1.1,16.8
					c-2,5.7-6.1,10.1-11.2,12.6C451.1,182.2,445.1,182.8,439.4,180.8z"/>
			</g>
			<g>
				<path class="st0" d="M414.2,210.9c-3.8-1.3-5.9-5.5-4.6-9.3l11.9-34.6c1.3-3.8,5.5-5.9,9.3-4.6c3.8,1.3,5.9,5.5,4.6,9.3
					l-11.9,34.6c-0.7,1.9-2,3.4-3.7,4.2C418.2,211.3,416.2,211.5,414.2,210.9z"/>
			</g>
			<g>
				<path class="st0" d="M277.6,156.4c-9.3-3.2-16.8-9.8-21.1-18.6c-4.3-8.8-4.9-18.8-1.7-28.1c1.3-3.8,5.5-5.9,9.3-4.6
					s5.9,5.5,4.6,9.3c-1.9,5.6-1.5,11.5,1,16.8c2.6,5.3,7.1,9.3,12.7,11.2c3.8,1.3,5.9,5.5,4.6,9.3c-0.7,1.9-2,3.4-3.7,4.2
					C281.6,156.9,279.6,157,277.6,156.4z"/>
			</g>
			<g>
				<path class="st0" d="M555.4,205.1c-5.6-1.9-10.1-5.9-12.7-11.2c-2.6-5.3-3-11.3-1-16.9c1.3-3.8,5.5-5.9,9.3-4.6
					c3.8,1.3,5.9,5.5,4.6,9.3c-0.7,1.9-0.5,3.9,0.3,5.7c0.9,1.8,2.4,3.1,4.3,3.8c3.8,1.3,5.9,5.5,4.6,9.3c-0.7,1.9-2,3.4-3.7,4.2
					C559.3,205.6,557.3,205.8,555.4,205.1z"/>
			</g>
		</g>
	</g>
</g>
<g id="_x39_cc2b30b-4ed8-4c51-bf92-8dd0af6d6125">
	<polygon id="bdff8817-7a94-49de-9465-def6ba2ef021" class="st2" points="887.1,156.7 666.4,440.5 619.4,456.2 612.9,458.3 
		617,402.1 837.7,118.3 	"/>
	<polygon id="_x30_43f5399-38f3-44ad-b0af-46872047eedc" class="st3" points="862.7,137.7 642,421.5 619.4,456.2 612.9,458.3 
		616.9,404.2 617,402.1 837.7,118.3 	"/>
	<polygon id="_x38_566b992-f1b5-4ad5-8e46-46e580909591" class="st4" points="666.8,443.6 613.3,461.4 617.4,405.2 838.1,121.4 
		887.5,159.8 	"/>
	
		<rect id="_x32_6155412-a46f-49f3-8f7b-b43ca14733bc" x="865.8" y="62.5" transform="matrix(0.6139 -0.7894 0.7894 0.6139 295.2902 752.2568)" class="st5" width="101.6" height="23.4"/>
	
		<rect id="_x31_da8e284-5ece-4b56-9d40-f06a370b1833" x="865.8" y="62.5" transform="matrix(0.6139 -0.7894 0.7894 0.6139 295.2902 752.2568)" class="st6" width="101.6" height="23.4"/>
	<circle id="_x30_2f9a7ae-29c4-43aa-891c-9c06c3656de6" class="st7" cx="850.8" cy="156.1" r="7.8"/>
	<line id="c146d84a-f746-4fc6-af41-8f33adbebfd1" class="st8" x1="823.7" y1="191" x2="647.3" y2="417.8"/>
	<path id="fc5e8d7a-bc08-40bb-bd39-25be5901c17f" d="M979.7,116.3l-34,50.2l-7.9,11.7c-55-15.1-101.8-51.5-130-101.1l15.2-8.6
		l12.1-6.9c21,36.9,54,65.3,93.6,80.6l10.4-11.5l9.7-10.7L979.7,116.3z"/>
	<path id="_x34_2096574-898b-4b3a-a8e2-ab5f07c5cad2" d="M979.7,116.3l-34,50.2c-51.7-16.1-95.5-51.1-122.5-98l12.1-6.9
		c20.9,36.8,53.9,65.3,93.3,80.6l10.4-11.5c1.4,0.7,2.7,1.3,4.2,1.8l12-13.2L979.7,116.3z"/>
	<path id="b6b98451-43d5-4ef8-ad72-435a7dd2ee07" class="st9" d="M979.7,116.3l-31,3.9l-20.1,22.1c-39.6-15.3-72.6-43.7-93.6-80.6
		l-27.2,15.5c28.2,49.6,75,86,130,101.1L979.7,116.3z"/>
	
		<rect id="_x32_784e0f6-0ec2-40c3-af62-b03aca5f2521" x="942" y="4.2" transform="matrix(0.6139 -0.7894 0.7894 0.6139 349.4832 762.0098)" width="23.4" height="39.1"/>
	
		<rect id="f5b863a4-fd7d-4130-8668-a3ae5d845fa0" x="942" y="4.2" transform="matrix(0.6139 -0.7894 0.7894 0.6139 349.4832 762.0098)" class="st10" width="23.4" height="39.1"/>
</g>
<g>
	<path class="st11" d="M200.6,301.7c3-1.1-0.5-9.4-3.3-4.9C195.7,299.6,198.3,302.5,200.6,301.7z"/>
	<path class="st11" d="M169.1,324c6,1.5-3.9-5.2-3.3-5.8c-2.6,2.5-2,3.7,0,5.8C166.1,324.3,168.6,323.9,169.1,324z"/>
	<path class="st11" d="M185.4,325c-1-2-7.2-1.2-7.6-1C169.8,328.3,189.5,333.1,185.4,325z"/>
	<path class="st11" d="M411.6,327.9c2.5-2.2-3.1-6.3-4.4-2.9C406.7,326.2,409.4,329.8,411.6,327.9z"/>
	<path class="st11" d="M272.4,340.5c0.9,5.2,24.3,5.5,22.8-3.9c0.1,0.4-4.9-5.1-4.4-4.9c-2.2-0.8-4,0.5-6.5,1
		c-5.3,0.9-2.8,2.7-5.4,4.9C275.4,340.4,271.8,337.1,272.4,340.5z"/>
	<path class="st11" d="M178.9,340.5c-0.5-1.4-2.7-0.3-3.3,0C169.7,343.9,180,343.6,178.9,340.5z"/>
	<path class="st11" d="M245.2,341.5c-1.4,2.9,3.8,3.6,4.4,1.9C250.2,341.6,246.6,338.7,245.2,341.5z"/>
	<path class="st11" d="M158.2,365.8c-1.2,0.3-3.6,0.6-3.3,1.9C156.5,374.1,168.6,363.4,158.2,365.8z"/>
	<path class="st11" d="M171.3,368.7c2.1,1.8,14-2.7,7.6-2.9C175.2,365.7,168.6,366.3,171.3,368.7z"/>
	<path class="st11" d="M5.9,368.7c-0.2,0.2-2.9,4.7,0,4.9C7.7,373.6,9,365.4,5.9,368.7z"/>
	<path class="st11" d="M144.1,374.5c2.1-1.9-4.4-5.8-6.5-3.9C136.1,372,143.5,375.1,144.1,374.5z"/>
	<path class="st11" d="M112.5,380.4c-0.4,2.2-7.5-2.2-7.6-2.9c-0.4-4.4-5.1-3-2.2,0c5,5.1-6.6-0.1-5.4,5.8
		C101.5,381.5,111.4,386.3,112.5,380.4z"/>
	<path class="st11" d="M138.6,375.5c-2.5-5.4-3.8,5.6-3.4,5.9c-1.1,0.7-10.1,3.8-6.4,6.7C132.9,385.2,141.4,381.4,138.6,375.5z"/>
	<path class="st11" d="M228.9,377.5c-2.6,2.3,2.2,2.9,3.3,1.9C233.3,378.4,231.1,375.5,228.9,377.5z"/>
	<path class="st11" d="M87.5,397.9c8.4,0.5,8.3-28.9-2.2-19.4C81.8,381.7,85.8,397.7,87.5,397.9z"/>
	<path class="st11" d="M106,390.1c-0.3,1.5,4.2,5,5.4,3.9C113.5,392.1,106.7,387.1,106,390.1z"/>
	<path class="st11" d="M131,391.1c-0.6,0.1-5.1,0.3-3.3,1.9C130.1,395.1,138.9,389.7,131,391.1z"/>
	<path class="st11" d="M0.5,396.9c-1.2,2.9,0.1,6,0,5.8C3.7,406.2,3,390.7,0.5,396.9z"/>
	<path class="st11" d="M141.9,404.7c5.4-1.9-4.6-9.7-6.5-5.8C135.6,398.5,140.5,405.1,141.9,404.7z"/>
	<path class="st11" d="M131,401.7c-7.3,3.2,7.6,2.3,6.5,0C136.6,399.6,131.5,401.5,131,401.7z"/>
	<path class="st11" d="M138.6,420.2c0-0.3,0.1-0.7,0.3-1.1C138.6,418.4,138.4,418.3,138.6,420.2z"/>
	<path class="st11" d="M148.4,445.5c3.1,1.4,3.6-6.1,0-3.9C146.8,442.6,146.6,444.6,148.4,445.5z"/>
	<path class="st11" d="M136.5,449.4c2.1-3.2-4.6-3.9-6.5-2.9C125.1,449,136.3,449.6,136.5,449.4z"/>
	<path class="st11" d="M144.1,450.3c0.5,1.1,6.6,2,5.4-1C148.5,446.8,143.4,448.9,144.1,450.3z"/>
	<path class="st11" d="M129.9,452.3c-1.3,0.2-5.2,1.1-3.3,2.9C129.4,457.6,135.9,451.3,129.9,452.3z"/>
	<path class="st11" d="M1205.5,470.7c10.9,3.2,33.8,3.5,45.7,4.9c-6.8-3.1-18.5-2.8-31.5-4.9
		C1216.3,470.2,1194.3,467.5,1205.5,470.7z"/>
	<path class="st11" d="M1269.7,478.5c-5.3-1.4-10.6-2.9-17.4-2.9C1254.3,479.3,1266.1,479.4,1269.7,478.5z"/>
	<path class="st11" d="M1288.1,482.4c-1.4-1.3-5.1-0.6-6.5-1.9C1280.9,483.2,1287,484.6,1288.1,482.4z"/>
	<path class="st11" d="M1336,481.4C1346.3,484.8,1344.2,478.3,1336,481.4L1336,481.4z"/>
	<path class="st11" d="M877.1,583.4C865.1,578.4,866.3,588.3,877.1,583.4L877.1,583.4z"/>
	<path class="st11" d="M630.2,591.2c27.3-0.1,49.9-0.1,71.8,0c23.9,0.1,54.3,0.7,75-1.9C731.2,588,680.2,585.5,630.2,591.2z"/>
	<path class="st11" d="M1056.5,594.1c-1.4-0.3-5.5-4.6-7.6,0C1057.8,594.4,1065.1,596.1,1056.5,594.1z"/>
	<path class="st11" d="M688.9,594.1c2.4,2.8,5.2,1,10.9,1.9C699.7,592.9,689.4,593.7,688.9,594.1z"/>
	<path class="st11" d="M622.6,597.1c-0.2,0.4-0.3,3.6,0,3.9C626.2,604.6,625.1,591.8,622.6,597.1z"/>
	<path class="st11" d="M834.7,606.8c-0.1,0-0.8-3.7-1.1-3.9c-0.6-0.5-5.2-1.6-6.5-1.9c-3.9-1.1-13.8-1.6-19.6-1.9
		c-1.2-0.1-15.7-0.5-16.3,0c-0.8,0.6,7.3,9.4,5.4,8.7c0.7,0.2,3.9-1.9,4.4-1.9c9.6-1.2,32.7,8.6,43.5,1.9
		C844,605.5,837.9,608,834.7,606.8z"/>
	<path class="st11" d="M661.7,601.9c-3.9-0.2-14.3-0.9-17.4,1c1-0.6,15.8,0.9,21.8,0C668.8,602.4,660.2,601.8,661.7,601.9z"/>
	<path class="st11" d="M601.9,604.8c11.9-0.2,22.1,0.4,29.4-1.9C621.3,603.3,608.7,601.5,601.9,604.8z"/>
	<path class="st11" d="M673.2,606.6c1.1-0.3,0.7,0.1,2.6,0.2C674.8,606.7,673.9,606.7,673.2,606.6c-0.2,0-0.4,0.1-0.6,0.2
		c-5.9,1.7,8.7,1.1,9.8,1C693.1,606.7,661.3,605.8,673.2,606.6z"/>
	<path class="st11" d="M1061.9,616.5c-11.1-4.1-72.9-2.7-84.8-4.9C982,615.8,1053.5,616.1,1061.9,616.5z"/>
	<path class="st11" d="M45.1,640.8c-0.1,0.3,2.5,5.6,4.4,3.9C50.8,643.5,45.8,637.9,45.1,640.8z"/>
	<path class="st11" d="M178.4,555.6c177.3-57.7,494.6-10.1,499.1-10.3c5.8-0.2-52.1,12.1-47.5,11.5c-1.1,0.1-1.4-1.7,0-1.9
		c1.4-0.2,13-0.5,14.1,0c0.8,0.3-0.7,3.3,1.1,2.9c0,0,1.4-5,2-6.4c0,0.9,2.8,2.8,3.9,3.6c3.4-0.2,9.7-2.9,11.6-3
		c1.6-0.1,2.5,1.8,4.3,1.9c5.2,0.4,21.5-1.4,25-1.9c-1,0.1-4.9-0.1-4.4-1c1.5-2.5,9,1.3,7.6,1c-0.1,0,9.7,2.8,10.9,2.9
		c14.1,1.3,38.1-4.3,47.9-1c4.6,1.6,2.1,4.2,6.5,3.9c-0.9,0.1-0.6-3.4,0-3.9c-0.6,0.5,20.9,0.1,19.5-0.7c-0.4-0.1-0.8-0.2-1-0.2
		c0.6,0.1,0.9,0.2,1,0.2c2.4,0.7,6.9,2.6,7.7,2.7c1.5,0.2,5.9-1.9,7.6-1.9c2.8-0.1,5.5,1.6,8.7,1.9c13.9,1.3,30.3,0.1,42.4,1
		c8.3,0.6,7.2,2.2,7.6-1.9c0.5-4.8-8.1-1.6-12.3-1c1,0.9,1,1.3-1.8,0c0.4,0.2,1,0.1,1.8,0c-1.5-1.4-5-4.2-4-4.9
		c-0.7,0.5,8.9,0.8,12,1c16.2,1,38,2,50,3.9c6.8,1.1,21.5-0.2,27.2,1c-28.6-7.3-62-6.3-89.2-10.7c-0.7,3.2,10.4,2.1,2.2,2.9
		c0.1,0-14.1-2.8-14.1-3.9c-0.1-2,18.5-1.5,22.8-1c17,2.1,49.4,1.3,71.8,3.9c2.5,0.3,6.7,2,8.7,1.9c10.3-0.3,32.7-4,42.4,1
		c1.7,0.9-1,2.4,2.2,2.9c2.5,0.4,2.6-1.4,5.4-1.9c-0.2,0-1.4,2.1,0,1.9c36.8-4.2,148.3,14.2,181.6,11.7c-13-2.3,1.3-2.6,7.6-1.9
		c19.3,2.2,38.9,8.2,54.4,5.8c-9.3-4.7-53.8-6.9-27.2-9.7c-37.4-5.4-75.2-11.5-110.9-14.6c-3-0.3-30.3-4-28.3-5.8
		c3.4-3,24.5,2.3,31.5,2.9c18.3,1.7,36.3,3.6,51.1,1.9c-7.5-0.1-11.2-1.7-17.4-2.9c-10.8-2.1,10.5-0.3,15.2,0
		c16.3,1.1,35.3,0.9,52.2,2.9c8.6,1,21.7,4.9,29.4,1.9c-6-2.1-18.5-1.3-28.3-3.9c0.1,0,1.3-2.3,0-2.9c-2.8-1.3-10,0.9-10.9,1
		c-2.8,0.4-11.2-3.3-15.2-3.9c-0.2,0,0,2.2-1.1,1.9c-1.2-0.3-1.9-2.5-3.3-2.9c-6.1-1.7-14.6-2.3-22.8-2.9
		c-20.8-1.6-36.5-2.7-56.6-4.9c-0.6-0.1-22.7-1.4-20.7-5.8c1.7-3.6,19.4,3.5,19.6,1c-56.7-12.3-186.4-14.6-249-18.5
		c-41.8-2.6-79-4.2-114.2-4.9c-9.4-0.2-20.8-2.4-25-1c-0.9,0.3,0.8,3-1.1,2.9c-1-0.1-3.8-3.2-5.4-2.9c-1,0.1,1,3.3-2.2,2.9
		c-0.2,0,0.6-3.1,1.1-2.9c-3.1-1.4-31.9,2.9-40.2,1c0,0-1.3-3.5-2.2-2.9c1.6-1,10.4,0.3,16.3,0c147.4-6.4,317.7,8.3,438.3,16.5
		c48,3.3,98.2,13.9,133.8,11.7c-29.5-4.1-67.3-11.9-103.3-16.5c-19.6-2.5-45-2.5-64.2-4.9c-11.9-1.4-26-4.9-4.3-2.9
		c-0.2-4-8.3-1.4-12-1.9c-18.8-2.9,14.2-1.4,16.3-1c12.2,2.6,63.7,7.1,82.7,7.8c7.5,0.3,44.5,4.9,27.2,0c-9.7-2.7-16.1-2.2-26.1-3.9
		c-35.8-6.1-137.3-9.3-182.7-13.6c-11.1-1-20.6-3.8-28.3-3.9c-15-0.2-57.2-6.3-71.8-5.8c-2.4,0.1-4.7,2.5-6.5,1
		c-2.4-2,3.9-4.8,4.3-4.9c17.6-3.6,49.3,2.4,76.1,3.9c35.5,2,112.5-0.6,142.5,4.9c20.5,3.7,42.4,3.2,63.1,5.8
		c16.9,2.2,34.1,7.9,46.8,7.8c10.5-0.1,20.7,1.1,32.6,2.9c4.4,0.7,8.6,2.9,13.1,2.9c1.6,0,29.1-0.5,14.1-2.9
		c-10.5-1.7-19.3-2.1-28.3-3.9c-0.2,0,1.1-1.9,1.1-1.9c-8.9-2.4-41.8-7.3-59.8-9.7c-12.8-1.7-26.2-1.9-29.4-3.9
		c-2.2-1.4-0.2-4.2-2.2-4.9c-6.8-2.2-4.3,1.3-8.7,1c-0.5,0-15.4-3.9-14.1-5.8c1.3-1.9,17.5-1.1,19.6-1c14.5,1.1,20.6,3.5,38.1,3.9
		c19.5,0.4-18.2-5-23.9-5.8c-2.2-0.3-1.9-2.4-1.5-3.4c-2.5-0.2-9.3-2-7.2-3.4c1.3-0.9,4.6,0.6,8.7,1c45.2,3.8,91.8,10.3,137,19.4
		c8.2,1.7,23.8,8.6,37,5.8c-2.1-2.9-19.6-1.5-21.8-6.8c-0.3-0.7,1-3,1.1-2.9c-5.5-3-26.4-1.7-35.9-6.8c-2.1-1.1-0.5-3.3-2.2-3.9
		c-11.3-3.8-20.9-3.3-34.8-5.8c-3.6-0.6-37.1-7.4-29.4-6.8c16.1,1.3,39.6,5.4,53.3,3.9c-15-4.8-56.4-7.5-69.6-12.6
		c-11.1-4.3,4.6-1.6,6.5-3.9c-6-1.7-14.3-1.3-22.8-2.9c-5.5-1-17.3-3.6-7.6-4.9c8.2-1.1-0.6-2.3,3.3-3.9c2.1-0.9,16.8,1.3,21.8,1.9
		c47.4,6.3,101.9,19,144.7,21.4c-11.6-5.1-43.6-3.8-52.2-9.8c-0.4-0.2-0.7-0.5-1.1-0.9c0.3,0.3,0.7,0.6,1.1,0.9
		c3.2,1.8,5.2-4.5,5.4-3.8c-1-3.2-17.9-1.7-19.6-1.9c-2.8-0.4-4.2-3.3-6.5-3.9c-10.4-2.6-26.3-5.4-34.8-5.8c-1.8-0.1-5.1,1.3-6.5,1
		c-3.4-0.7-10-6.2-8.7-5.8c-6.3-1.8-10.9,1-17.4,1c-11-0.1-19.4-3.9-26.1-4.9c9.1,2.7-7.1,1.8-13.1,0c-0.4-0.1,1.2-1.9,1.1-1.9
		c-1.1-0.7-2.8,1.2-3.3,1c-2.3-1-3.2-2.5-7.6-3.9c-14.1-4.5,10.2-1.6,10.9-1.9c1-0.5-0.8-2.8,1.1-2.9c6.5-0.5,22.2,3.7,28.3,2.9
		c1.3-0.2,2.9-3.3,5.4-3.9c5.8-1.4,11.5,1.9,17.4,2.9c14.7,2.6,30.8,4.2,39.2,3.9c-5.4-1.9-15.4-0.1-19.6-2.9
		c-1.1-0.7,0.7-2.5-1.1-2.9c-5.6-1.3-7.6,1-15.2,0c-7.1-1-30-5.8-7.6-3.9c19.4,1.7,35.1,6.2,45.7,3.9c9.8-2.1,15.7-0.2,27.2,1.9
		c33.7,6.4,49.7,11.3,72.9,8.7c-7.6-4.1-27.2-3.3-32.6-9.7c0.3,0.4,2.7-0.7,2.2-1c-4.6-2.1-35.4-10-10.9-5.8
		c7.7,1.3,30.7,4.9,43.5,7.8c7.7,1.7,26.5-0.3,37,3.9c0-4.2,0-8.4,0-12.6c-2.1-4.5-2.6-2.2-6-2.5c-1.9-0.2-5.1-3.6-6.5-3.9
		c-5.5-1.3-10.6-2-14.1-2.9c-16.6-4.5-34.2-5.5-50-8.7c-24.5-5-48.1-11.6-74-16.5c-26.3-5-55.1-7-87-11.7
		c-29.6-4.3-65.7-10.2-101.2-14.6c-40.2-5-139.5-4-177.2-10.7c-24.7-4.3,4.2-3.8,18.5-2.9c12.3,0.8,15.4,1.6,22.8,1
		c0.9-2.7-36-6.4-15.2-5.8c57.8,1.5,156.8,6.7,213.1,12.6c12.6,1.3,41.4,8.7,51.1,6.8c-17.8-4.8-37.8-5-58.7-7.8
		c-11.8-1.6-23.4-6.1-35.9-7.8c-2.2-0.3-5.1,1.2-7.6,1c-33-3.3-118.7-8.1-150.1-9.7c-15.3-0.8-24-2.1-33.7-3.9
		c-3.1-0.6-9.6,1.6-13,0c-3.1-1.4-3.1-4.6-5.4-4.9c-2.1-0.2-1.6,4.7-2.2,4.9c-4.5,1-2.6-5.6,0-4.9c1.6,0.5-3.9-2.5-6.5,0
		c-1.1,1.1,4,3.3,2.2,4.9c-2.2,1.9-9.3-1.4-13-1.9c-21.9-3-56.5-3.6-76.1-3.9c-15.2-0.2-46.9,1.8-72.9,1.9c-11.1,0-27.2,0.5-43.8,1
		c-0.1-0.2-0.2-0.5-0.4-0.7c-2.2-3.3-13,1.3-14,1.1c-3.4-0.8-12.2-5.4-13.6-7.1c-7-8.7,7.6-15.4,3-20.3c-3.4-3.7-9.9,1.1-7,0.5
		c-10.8,2.2-6-4.6-13-8.1c-2.9-1.4-9.7,2-15.7-0.8c-5.7-2.7-3.1-6.1-7.1-6.7c-3.4-0.5-7.6,5.2-12.4,5.4c-3.8,0.2-6-4.4-10.8-4.7
		c-0.9-0.1-3.9,4.3-7.5,3.9c-4.4-0.4-5.6-5.2-8.7-3.8c-6.5,2.9-0.5,6.4-2.6,9.7c-2.3,3.5-14.5,8.6-18.3,8.8
		c-5.7,0.4-4.8-3.1-7.6-0.9c-3.8,2.9,1.8,7-2,11.1c-5.2,5.5-7.4-2.4-11.3,3.5c-2.9,4.4,4.2,2.3,2.2,8.2c-0.8,2.4-3.5,3.5-5.6,4.8
		c-4.3,0.4-8.6,0.7-12.7,1.1c-25.9,2.2-150.5,8-170.7,9.7c-3,0.3-7-1.9-9.8-1c-3.1,1,0.3,2.8-3.3,2.9c-5.3,0.1-10.8-1.4-15.2-4.9
		c8.6,11.8-5.4,6.1-14.1,7.8c0.5-0.1-3,4.3-2.2,3.9c-6.6,3.2-17.5-3.4-20.7,4.9c-0.6,1.6,2,2.8,1.1,4.9c-0.6,1.3-3.7-1.1-3.3,1.9
		c0,0.2,1.9,0,2.8-0.1c0.1-0.2,0.2-0.2,0.5,0.1c0,0-0.2-0.1-0.5-0.1c-0.4,0.8,0.9,5.5,1.6,5.9c4.3,2,15.4-4.3,14.1,2.9
		c-0.5,3-17.4,0.5-20.7,5.8c-1.8,2.9,2.1,4.2,0,9.7c3.2-0.7,1.7-7.9,3.3-1c1,4.5,0.9,0.5-2.2,1.9c-0.5,0.2-1.3,2.5-1.8,4.8
		c-0.6-2.7-1.5-5.2-2.7-7.7c0.1,0,0.1-0.1,0.2,0c-0.1,0-0.1,0-0.2,0c-0.6-1.1-1.2-2.2-1.9-3.3c1.1,0.3,2,0.2,2.1-0.5
		c-0.1,0.3-2.6-1.8-4.9-3.2c-1.4-1.7-3-3.2-4.8-4.6c0.7-0.9,2.2-12.2-0.1-8.7c-0.1,0.1-2.4,4.2-2.4,6.7c-2.5-1.7-5.3-3.2-8.4-4.5
		c-0.1,0-0.2-0.1-0.3-0.1c-0.1-2.2-0.8-3.7-3.1-2.2c0.4-0.2,1.6,0.4,1.1,1c0.2-0.2,0,0-0.2,0.4c-14.9-5.3-29-4.8-39-0.4
		c-1.5-4.4-9.9-2.8-7.6,0c3.8,4.6-8.4-0.1-9.8,3.9c4.6,5.3,14.9-3.2,13.1-2.9c0.6-0.1,1.3,0,2,0.2c-0.9,0.5-1.8,0.9-2.6,1.4
		c-1.8,1.2-3.3,3.9-5.1,6.5c-1.5-0.5-3.1-0.6-4-0.4c-2.9,0.8-2.8,3.5-1,4.9c-0.5,0.3-1.1,0.5-1.7,0.6c-0.1,0-12.5-7.7-13-0.9
		c-0.1,1.9,1.1,2.8,2.7,3.4c0.6,1.3,1.3,2.2,2,1.6c0.3-0.3,0.5-0.6,0.7-1c1.9,0.4,3.9,0.7,4.9,1.6c0.5,0.5,1,1.1,1.4,1.8
		c-0.3,0.2-0.5,0.3-0.5,0.4c-1.1,2.4,0.2,2.7,1.6,2.2c0.4,1.1,0.6,2.3,0.8,3.6c-0.8-0.4-1.6-0.5-2.4,0c-3.7,2.2-0.4,3.8,2.1,4.8
		c-0.4,1.8-1,3.5-2.1,5.2c-0.5-0.2-1-0.3-1.1-0.3c-3.2-0.1-12.9,3-14.9,5.7c0.4,0.8,1.1,2.4,1.6,2.9c-0.1-0.8,8.2-5.6,11.1-5.7
		c-0.6,0-0.2,0.2,0.5,0.4c-4.4,3.2-12.9,7-14.6,11c0-0.4-4.5,2.6-5.5-0.7c0,0,3-2.8,2.2-2.9c-6.8-1.2-8.3,6.6-6.5,11.7
		c-0.9-7.9,5-1.6,7.6-2.9c0,0,0.9-3.7,1.1-3.9c0.7-0.7,1-1,1.1-1.2c-0.4,0.9-0.4,1.8,0.1,2.7c0.6,1.2,2.1,1.5,3.8,1.6
		c-0.2,2,0.9,4,0.5,2.7c-0.7-1.9,2.9-2.1,4.4-1.9c7.2,0.9,0.9,2.2-2.2,2.9c-0.7,0.2-8.9,7.4-8.7,7.8c3.5,5.8,12.5-4.7,11.3-5.8
		c1.5,0.4,7.2,2.9,9.6,4.2c0.6,0.9,1.2,1.7,2,2.3c0.2,0.2,0.5,0.3,0.7,0.4c0.5,0.9,0.4,1.2,0.6,0.2c1.5,0.4,3.3,0.3,5.4,0.5
		c-0.2,1.3-0.4,2.4-0.3,3.1c1.2-0.5,2.1-1,2.1-1.1c-1.4,2-2,2-2.1,1.1c-2.5,1.2-6.3,2.8-6.6,2.8c0.8,0-2.5-4.8-1.1-3.9
		c-2.3-1.4-5.4-0.6-7.6,1c0,0,6.7,1.6,6.5,2.9c-0.2,1.8-5,0.3-6.5,1c-3.2,1.5-4.6,7.4-8.7,4.9c1,0.6,3.5-4.6,1.8-4.9
		c-1.4,1-10.2,5.6-5.1,8.8c3,1.9,6.3-2.2,7.6-1c0.8,0.8,0.9,8,2.4,8.3c0.4-0.1,0.7-0.3,0.9-0.5c-0.3,0.4-0.6,0.5-0.9,0.5
		c-3.5,1.2-15,0.2-15.4-0.5c-3.4-5.9,13.5,1.3,12-3.9c-0.7-2.3-24.3,1.5-18.5-2.9c3.7-2.8-2.1-7.2-3.3-6.8c-0.4,0.1,0.2,4.3,0,4.9
		c0.5-1.2-5.6,4.5-5.4,4.9c0.7,2,12.2,2.9,4.4,2.9c-6.1,0,4.9,5.7,5.4,5.8c3,0.5,1.3-3.7,4.3-2.9c5.9,1.6-1.1,3.4-2.2,3.9
		c-4.6,2.2,0.3,5.8,2.2,4.9c-2.8,1.4-10.5-1.7-13,0c1.4,0.4,1.2,2.1,2.2,2.9c5.5,4.4-4.2,4-1.1,8.7c3,4.7,9.6-2.5,9.8,2.9
		c0.1,3.4-5.2,2.7-5.8,4.4c-2.9-1-5.9-1.8-8.4-1.9c-14.5-0.8-43.9,12.7-48.8,32.7c-1.3,5.2,4.3,8.4,3.4,13.5
		c-0.6,3.5-5.5,4.7-4.8,8.7c0.6,3.5,5.3,3.7,7.1,6.7c2.6,4.2,0.1,9.9,2.8,12c0.9,0.7,8.5,0.3,11.3,1.4c7,2.5,12.1,10.5,16.3,11.9
		c1.3,0.4,17.1,1.2,16.7,1.3c2.7-0.7,4.6-6.3,8-8c-0.6,2.3,0.3,4.5,4.2,2.8c4.7-2.1,6.8,4.8,2.2,8.7c-0.6,0.5-4.1-2.3-6.5-1.9
		c-3.6,0.5-9.7,5.9-12.1,8.4c0.4,0.2,0.3,0.6-1,1.3c-0.4,0.2,0.1-0.4,1-1.3c-1.2-0.5-7.1,0.8-5.3,3.2c3.6,4.9,6.6-2.5,8.7-1.9
		c5,2.2-8.6,7.3,0,5.8c7.6-1.3-5.1,2.7-4.4,9.7c0.2,2.3,5.1,2.6,5.4,2.9c0.5,0.6-3.3,4.6,1.1,2.9c2.9-1.1,0.3-9.5-1.6-8.3
		c-0.5,0.5-0.7,0.8-0.5,0.6c0.2-0.3,0.4-0.5,0.5-0.6c1.1-1.2,3.7-3.5,7.1-2.3c-2.5-0.9,2.6,7.1,2.2,4.9c1.1,6.4,8.7-9,10.9-8.7
		c7.5,0.9-4.3,4.4-4.4,8.7c0-0.8,3.4,1.1,3.3,1c0.6,0.6,0.8,1.1,0.9,1.6 M597.3,561.6 M618,561.6 M155.5,568.3 M159.9,521.6
		C161.8,527.5,153.9,528.9,159.9,521.6L159.9,521.6z M178.4,555.6c-3.3-0.8-4.5,6.5-6.5,7.8C166.5,566.7,168.2,554.2,178.4,555.6z
		 M223.8,398.9c0.4-0.7,0.8-1.5,1.2-2.2C224.7,397.7,224.3,398.4,223.8,398.9z M165.3,566.3c11.9-8.8,3,12.2-2.2,7.8
		C162.6,573.6,164.1,567.2,165.3,566.3z M172.9,579.9c5.8-3.6,0.2,5.7-1.1,5.8C168.5,586,171.1,581,172.9,579.9z M237.1,391.4
		c-0.6-0.1-2.3-9.6-2.2-9.7C239,377.6,243.3,392.1,237.1,391.4z M229.5,379.7c1.5-5.9,6.1,9.6,4.4,9.7
		C230.8,389.7,228.4,383.8,229.5,379.7z M228.4,386.5c0,0.1-0.2,0.1-0.5,0.1c0.1-0.7,0.2-1.3,0.2-2
		C228.5,385.1,228.6,385.7,228.4,386.5z M141.4,407.9c-0.7-2-0.7-3.1-0.3-3.8c1.2,0.9,2,2.5,2.7,4.2
		C142.4,407.6,141.1,407.1,141.4,407.9z M151.2,475.9c0.2-0.2,2.3-1.8,3.3-1C157.2,477.5,147.1,479.6,151.2,475.9z M146.8,488.6
		c2.7,2.1,2.1,3.9,0.4,5.3c-0.5-0.4-1-0.8-1.6-1.1C146.8,491.9,148,490.8,146.8,488.6z M141.4,485.7c-0.6,0.5-1,0.7-1.5,0.7
		c-0.4-1.6-0.4-3.2-0.6-4.5C140.5,482.2,142,485.1,141.4,485.7z M144.6,477.7c0.4-0.6,1.8-0.4,2.3-0.8
		C145.2,478.4,144.8,478,144.6,477.7c-0.2,0.2-0.2,0.6,0.1,1.1c0,0-0.4,0-0.8,0c-0.1,0.3-0.2,0.6-0.3,1c-1.7,5.3,7.7-1.6,7.6-1
		c-0.4,2.6-8.6,8.2-8.7,0c0,0.1,0.8,0,1.4,0C144.3,477.5,144.4,477.5,144.6,477.7z M143.6,436.1c-3.2,2.8-4.3-2.3-4.4-1.9
		C139.5,431.5,144.8,435,143.6,436.1z M139.2,455.5c4.7,5.5-3.1,8.2-7.6,8.7C132.3,459.8,139.9,461.4,139.2,455.5z M130.5,473
		c0.6,0.7,0.9,1.5,1,2.3c-1.1-0.4-2.2-0.9-3.3-1.3C128.7,472.8,129.5,471.9,130.5,473z M126.2,443.9c3.5-3.1,4.1,6.5-2.2,5.8
		C122.2,449.5,124.2,445.6,126.2,443.9z M117.5,454.6c3.3-4,0.2,1.8,0,1c1.3,4.5,10.7,0.8,6.5-1.9
		C134.7,460.7,110.6,462.7,117.5,454.6z M124,466.2c1.7,1.3-0.3,3.7-2.1,5.7h-0.1c-1.4-0.5-3-1.1-4.7-1.7
		C120.3,469,124.3,466.4,124,466.2z M125.1,569.2c-0.9-0.3-5.9-8.6-5.4-9.7c-0.5,1.1,5.6,0.9,5.4,1c4.9-3.1,0.6-6.4,1.1-7.8
		c0.6-1.4,4.4-4.8,5.4-5.8c5.1-5.3-5.1,8.8,0,4.9c2.1-1.6,3.1-13.9,7.6-7.8c1.3,1.8-1.9,4.1-2.9,5.3c1.3-0.1,6,4.3,2.9,5.4
		c0.3-0.1-3.2-1.4-3.3-1c-1.6,8.4,10.1-1.2,5.4-1.9c6.6,1.1,1,5.4-2.2,5.8C132.7,558.5,137.2,573.6,125.1,569.2z M139.2,569.2
		c-1.8-1.6,4.4-4.4,4.4-7.8C147.3,564.9,141,567.6,139.2,569.2z M164.2,585.7c-0.3,0.1-8.9-5.5-10.8-4.8 M146.8,584.8
		c3.1-1.1,1.5,3.5,4.4,0c-4.2,0.1-3.8-7.9-3.3-7.8c-2.1-0.4-6.7,7.3-7.6,8.7c-0.6,0.9-1.1,2.2-1.4,3.6c-1.5-1.4-3.6-2.6-6.1-3.5
		c-0.1-1.4-0.3-3.3,1-4.9c2.5-3.1,8.7-10,9.8-10.7c1.2-0.8,2.1,1,2.2,1.7c1.2-1.1,8.6-5.2,9.7-3.6c-0.2-0.3-5.3,4.5-5.4,5.8
		c-0.6,8.2,5.7-1.2,8.7,3.9c2.8,4.7,4.3,1.2,7.6,3.9c1,0.8,2.1,6.9,2.2,5.8 M970.1,515.8c2.6,0.2,6.6-2,6.5,1c0-0.4-1.8,1.7-1.1,1.9
		c4.5,1.4-0.3-3.3,3.3-2.9c5.2,0.6,49.9,2.6,51.1,2.9c3.5,1,26.7-4.1,26.1,1.9c-0.4,4.6-89.5-1-90.2-4.9
		C960.7,514.3,966.1,515.5,970.1,515.8z M948.3,514.8c-3.6-1-8.9-0.5-12-1.9C937,511.9,947,511.1,948.3,514.8z M824.4,544.9
		c-2.3,1.5-12.4-1.4-14.1-2.9C813.8,540.4,826.9,543.2,824.4,544.9z M803.7,542c1.8-3.8,7,1.9,3.3,2.9
		C807.7,544.7,803,543.5,803.7,542z M799.3,544.9c-1.3,0.5-5.1-4.3-5.4-3.9C797.2,537.7,806.2,542.6,799.3,544.9z M788.4,540.1
		c0.3-0.1,3.6-1.6,4.4,0C794.9,544,782.8,543.1,788.4,540.1z M760.2,324.4c-30.7,2.3-75.6-1.5-107.7,1c36.9-2.9,69.5-4.7,107.7-1.9
		C766.4,323.8,766.4,323.9,760.2,324.4z M777.6,324.4c0.5-2.2,5.4-0.4,7.6-1C784.6,326.7,780,324.9,777.6,324.4z M797.2,325.3
		c-19.7-0.3,0.7-3.9,10.9-1C806.3,326,801.5,325.4,797.2,325.3z M811.3,325.3c9.2-2.7,15.9-0.7,25,0
		C832.2,327.7,818.3,326.3,811.3,325.3z M847.2,326.3c2,3.3-5.9,1.6-5.4,0C842.3,324.4,846.6,325.3,847.2,326.3z M841.8,474
		c2.1-1.8,10.8-1.3,13,0C851.2,476.7,846.6,474.9,841.8,474z M956,461.4c3.7,0.4,7.3,1.1,9.8,1.9C956.6,465.9,937.7,459.5,956,461.4
		z M1035.3,466.2c2-3.2,12.5,0.5,17.4,1C1048.8,469.1,1040.3,466.7,1035.3,466.2z M1170.2,440C1165.3,443.7,1155.3,438.5,1170.2,440
		L1170.2,440z M1172.4,423.5c12.5,1.5,26,3.2,37,4.9c12,1.8,23.7,5.7,33.7,6.8c0.2,0.8-0.4,0.9-1.1,1c-29.7-3.2-60-9.6-94.6-12.6
		C1153.6,419.9,1163.9,422.5,1172.4,423.5z M1146.2,431.2c0.2,1.6-6.9,1.5-7.6,0C1138.1,430,1146.2,431,1146.2,431.2z M1133.2,435.1
		c8.6-1.9,12.5-0.2,22.8,1c8.3,0.9,2,3-4.4,2.9c-7.3-0.1-12.9-0.6-20.7-1.9C1127.3,436.4,1126.8,436.5,1133.2,435.1z M1258.3,396.3
		c-0.4-0.6,7.6-0.2,7.6,0C1266.2,397.9,1259.4,398.1,1258.3,396.3z M1267,396.3c4,2.9,13.5,0.9,17.4,3.9
		C1282.2,402.2,1267,400,1267,396.3z M1351.8,404c6.2-0.2,20.1-0.4,22.8,6.8C1368.3,407.4,1359.1,406.6,1351.8,404z M1256.1,427.3
		c20.7,12.1,38.2-14.1,20.1-27.6c-7.6-5.6-17.4-3.9-23.9,1.1c-0.7-0.2-1.2-0.2-1.4-0.2c-0.8,0.2-1.8,4.4-4.2,5.8
		c-4.7,2.7-10.9,1.1-13.1,4.9c5-6.4,3.7-20.7-7.2-17.3c2.6-1.5,5.2-1.2,5.5-3.8c0.2-2-0.3-2.8-1.2-3.1c2.1-2.4,3.6-5,3-7.5
		c-0.1-0.4-2.8-0.6-3.1-1c-2.1-2.8,1.3-3.1-3.1-1c2.8-2.2,5.6-4.3,8.4-6.5c1.1,1.5,2.8,2.8,5,4.1c12.9,7.3,23.3-5.5,18.2-15.2
		c-0.1-1.2-0.8-2.1-1.9-2.7c-0.6-0.6-1.3-1.3-2.1-1.8c-6.3-4.6-15.4-1.1-19.3,4.6c-0.1-0.1-0.2-0.2-0.2-0.2
		c-1.4-3.7,11.2-13.7,0.6-12.1c-7.1,1.1,2.4,2.5,0.8,4.4c-0.6,0.7-13.6,2.8-13.5,2.7c-3.3,1.9,5.1-2.3,3.8,2.3
		c-0.7,2.7-3.9-0.8-5.6,0.1c-0.3-1.3-0.6-2.6-0.7-4c4.2-3.3,9.8-7.2,8.1-11.9c0.4,1-2.9,0.4-2.1-0.7c2-2.6,6.3-0.1,6.4-2
		c-2.6-4.2-8.7-0.6-9.6-2.1c-0.9-1.4,6.6-5,2.1-6.5c-5.3-1.7-11.5,3.5-3.5,7c5,2.2,2.4,9.3,0.4,9.3c-0.6,0-1-0.1-1.3-0.3
		c1.1-2.6,4.1-3.5,2.7-6.9c-1.3-3.2-6.3-2.2-10.5-7.9c-1.1-1.5-1.5-2.8-1.8-4c0.8-0.9,1-2.6-0.9-4.2c-0.1-0.1-0.2-0.3-0.3-0.4
		c-2.7-2.6-5.8-3.8-8.5-4.5c-2.5-1-5.6-1.7-5.9-3.1c-0.5-2,7.5-3.2,3.2-6.1c-1.7,3-4.1,4.3-5.8,6.3c-0.1-0.2-0.2-0.4-0.2-0.7
		c-0.2-0.9,6.8-7.5,9.3-12.3c1.4,1.4,3.3,2.5,2.7,2.6c3.7-0.6,0.6-3.9-1.8-5.2c0.1-1.5-0.8-2.6-3.5-2.6c-3.2-0.1-6.4,8.4-11.1,12
		c-0.5-0.3-1.1-0.3-2.1-0.1c-2.3,0.6-3.6,0.9-4.3,0.9c-0.2-0.1-0.4-0.1-0.7-0.2c-0.4-0.9,7.4-5.3,3.7-7.3c-2.6,8.6-6.5-1.1-6.5-1.1
		c-3.3,0.7-5.3,3.1-7,5.8c-2.8-0.7-5.4-1.3-7-1.6c-2-0.3-4.1-0.4-6.3-0.5c-0.5-0.6-1.2-0.5-2-0.1c-1-0.1-2-0.1-3-0.2
		c0.3-1.4-0.1-4.3-1.9-4.2c-2.4,0.2-3.7,1.3-4.3,2.4c-1.1-0.6-2.2-1.4-2.9-2.5c-2.3-3.4,2.9-5.1,2.9-9.2c0.1-8.5-9.8-21.1-9.9-29.5
		c0-5.1,2.7-12.2,1.8-14.6c-2.4-6.7-6.4-4.7-6.8-0.1c-0.1,2.3,4.2,7.2,4.9,13.2c0.4,3.7-1.9,6.9-1.2,9.2c0.8,3,4.4,3.2,4.5,5.5
		c0,0.7-3.6,0.5-4.1,2.2c-1.8,6.2,2.3,20.4-0.6,23.1c-6.2,5.9-11.4-1.9-18.7-3.5c-10.1-2.2-14.4,5.3-24.9-9
		c-0.4-0.5-5.7-24.4-9.9-13.3c-1.7,4.4,16.8,18.1,2.1,7.8c3.5,12.4,16.8,14.5,15.4,21.2c-0.7,3.3-10.6,3.5-14.1,5.1
		c-17.7,7.8-16.4,17.4-17.3,29.6c-1.4-1.1-2.7-2-2.8-2.5c-0.4-1.3,3.1-7.8,1-9.9c1.4,1.3-10.8,2.4-9.5,1c-1.1,1.3-0.1,10.4,1.1,10.6
		c3.3,0.5,0.2-6.6,6-4.2c-5.3,5-7.8,14.5-14.5,12.6c-0.7-0.2-2.8-2.6-1.5-2.5c-2.7-0.2-7.4,2.3-8.4,1.3c-4.8-4.8,4.6-6.1,3.8-8
		c-0.2-0.6-6.9-1.9-7.5-1.5c-1.6,1.1,2.2,6.2-3.8,8c-1.6,0.5-54.8-2.8-55.9-3c-1.6-0.3-3.5,1.6-5,1.4
		c-32.3-3.7-74.3-17.9-105.2-21.4 M1224.3,381.7c-0.1-0.9,0.1-1.7,0.4-2.5C1225.5,380.2,1225.6,381.1,1224.3,381.7z M1218.7,411.5
		c2.8-6.4,3.8,2.8,3.6,3.3 M1231,422.7c-0.1,0,2.1-8.7,7.5-8.8c1,0,2,4.9,5.2,1.7c1.6-4.7-4.7-2.1-4.9-2.6c-0.5-2.3,4.2-4.7,4.9-4.5
		c1.2,0.3,1.9,0.9,2.2,1.6c-0.2,1-0.3,2.1-0.3,3.2c-1.8,3.6-7,7.8-7.2,7.8 M1231.8,406.6c0.9,1.6-2,3.2-2.3,3.3
		C1218.5,414.1,1228.3,400.5,1231.8,406.6z M1230.1,397.9c-0.3,0.8-4-0.5-6.2-1c0.2-0.5,0.5-1,0.8-1.4c0.5-0.5,1-0.9,1.5-1.3
		C1227.8,394.3,1230.5,396.8,1230.1,397.9z M1227,362.1c0.2,0.3-0.2,1.2-0.8,2.3c-0.5-0.3-1-0.8-1.4-1.3c-0.4-0.4-0.7-0.9-1.1-1.5
		C1224.9,361.1,1226.1,361,1227,362.1z M1223.2,359.8c0,0.2-0.2,0.3-0.2,0.4c-0.2-0.5-0.4-1-0.6-1.6
		C1222.8,359.1,1223.3,359.5,1223.2,359.8z M1063.5,343.9c2.2,0.5,3.2,3.5,1.9,4.7C1061.7,351.9,1057.1,342.5,1063.5,343.9z"/>
	<path class="st11" d="M1150,490.2c-0.1,0-0.2,0.2-0.4,0.5C1150.5,490.7,1150.9,490.6,1150,490.2z"/>
	<path class="st11" d="M659.5,583.4c2.1,0.8,2.2,0.7,1.5,0.1C660.4,583.6,659.9,583.6,659.5,583.4z"/>
	<path class="st11" d="M141.9,452.3c0.3-0.1,0.5-0.1,0.7,0C143,452,142.9,452,141.9,452.3z"/>
	<path class="st11" d="M146.3,578.6c0-0.1,0.1-0.3,0.3-0.6C146.3,578,146.2,578.2,146.3,578.6z"/>
	<path class="st11" d="M122.3,394.9c1-0.4-1-4-1.1-3.9c0.1-0.4,0.3-0.6,0.4-0.9c-0.5,0.6-1.3,1.4-2.5,1.9c-1.2-5.2,2.6-3,2.2-5.8
		c-0.3-2.1-3.3,0.2-3.3-3.9c0-0.2,4.3,0.2,4.4,0c2.5-6.3-11.3-1.8-8.7,6.8C114.5,392.2,121.9,395.1,122.3,394.9z"/>
	<path class="st11" d="M121.6,390.2C122.2,389.4,122.1,388.9,121.6,390.2L121.6,390.2z"/>
	<path class="st11" d="M145.9,413c5.9,1.1,7.2-7.9,3.6-10.3c-2.5-1.6-4.2,4.5-4.4,8c1.5-1.4,4-3.3,4.4-4.1
		C147.7,411.1,146.6,412.9,145.9,413z"/>
	<path class="st11" d="M144.1,412.4c0.5,0.3,1.1,0.4,1.5,0.5c-0.4-0.2-0.5-1.1-0.5-2.2C144.3,411.6,143.7,412.2,144.1,412.4z"/>
	<path class="st11" d="M1345.8,498.9C1364.6,504,1349.7,495,1345.8,498.9L1345.8,498.9z"/>
	<path class="st11" d="M1148.9,505.7c3.6,0.7,7,1.6,10.9,1.9C1159.1,505.3,1147.5,503.7,1148.9,505.7z"/>
	<path class="st11" d="M897.7,585.4c4.9,0.5,14.1,2.3,17.4,1C912.5,586.2,903.3,582.5,897.7,585.4z"/>
	<path class="st11" d="M278.7,282.1c-2.6,0.5-7,4.4-5.4,4.9C274.3,287.3,281.4,281.7,278.7,282.1z"/>
	<path class="st11" d="M222.8,308.1c20.8,4.7,37.7-29.9,10.4-36.3C205.1,265.3,196.4,302.2,222.8,308.1z"/>
	<path class="st11" d="M273.9,290.9c-1.4,0.3-8.8,0.6-7.5,3.9C267.2,296.8,279.8,289.6,273.9,290.9z"/>
</g>
<g id="_x31__bandit_x2C__mafioso_x2C__suit_x2C__hat_x2C__mafia_x2C__criminal_x2C__gang">
</g>
<g id="_x31__bandit_x2C__mafioso_x2C__suit_x2C__hat_x2C__mafia_x2C__criminal_x2C__gang_00000181799322878430655640000015572668174186688396_">
</g>
<g>
	
		<rect x="263.2" y="173.8" transform="matrix(0.3245 -0.9459 0.9459 0.3245 -11.3407 405.0853)" class="st12" width="29.4" height="73.4"/>
</g>
<g>
	<polygon class="st12" points="374.8,220.8 402.5,230.2 378.8,299.8 350.9,290.2 	"/>
</g>
<g>
	<g>
		<path class="st13" d="M376.3,306.7c-3.8-1.3-5.9-5.5-4.6-9.3l23.8-69.5c1.3-3.8,5.5-5.9,9.3-4.6c3.8,1.3,5.9,5.5,4.6,9.3
			l-23.8,69.5c-0.7,1.9-2,3.4-3.7,4.2C380.2,307.2,378.2,307.3,376.3,306.7z"/>
	</g>
	<g>
		<path class="st13" d="M348.5,297.1c-3.8-1.3-5.9-5.5-4.6-9.3l23.8-69.5c1.3-3.8,5.5-5.9,9.3-4.6c3.8,1.3,5.9,5.5,4.6,9.3
			l-23.8,69.5c-0.7,1.9-2,3.4-3.7,4.2C352.4,297.6,350.4,297.8,348.5,297.1z"/>
	</g>
	<g>
		<path class="st13" d="M379.8,307.9L345.1,296c-3.8-1.3-5.9-5.5-4.6-9.3c1.3-3.8,5.5-5.9,9.3-4.6l34.7,11.9
			c3.8,1.3,5.9,5.5,4.6,9.3c-0.7,1.9-2,3.4-3.7,4.2C383.7,308.4,381.7,308.5,379.8,307.9z"/>
	</g>
	<g>
		<path class="st13" d="M400.1,237.2l-27.8-9.5c-3.8-1.3-5.9-5.5-4.6-9.3c1.3-3.8,5.5-5.9,9.3-4.6l27.8,9.5c3.8,1.3,5.9,5.5,4.6,9.3
			c-0.7,1.9-2,3.4-3.7,4.2S402.1,237.9,400.1,237.2z"/>
	</g>
</g>
<g>
	<g>
		<path class="st13" d="M315.1,215.4l-69.5-23.8c-3.8-1.3-5.9-5.5-4.6-9.3c1.3-3.8,5.5-5.9,9.3-4.6l69.5,23.8
			c3.8,1.3,5.9,5.5,4.6,9.3c-0.7,1.9-2,3.4-3.7,4.2C319,215.9,317,216.1,315.1,215.4z"/>
	</g>
	<g>
		<path class="st13" d="M305.5,243.2L236,219.4c-3.8-1.3-5.9-5.5-4.6-9.3c1.3-3.8,5.5-5.9,9.3-4.6l69.5,23.8
			c3.8,1.3,5.9,5.5,4.6,9.3c-0.7,1.9-2,3.4-3.7,4.2C309.4,243.7,307.4,243.9,305.5,243.2z"/>
	</g>
	<g>
		<path class="st13" d="M304.3,246.7c-3.8-1.3-5.9-5.5-4.6-9.3l11.9-34.7c1.3-3.8,5.5-5.9,9.3-4.6c3.8,1.3,5.9,5.5,4.6,9.3
			l-11.9,34.7c-0.7,1.9-2,3.4-3.7,4.2C308.2,247.2,306.2,247.4,304.3,246.7z"/>
	</g>
	<g>
		<path class="st13" d="M236,219.4c-3.8-1.3-5.9-5.5-4.6-9.3l9.5-27.8c1.3-3.8,5.5-5.9,9.3-4.6c3.8,1.3,5.9,5.5,4.6,9.3l-9.5,27.8
			c-0.7,1.9-2,3.4-3.7,4.2S238,220.1,236,219.4z"/>
	</g>
</g>
</svg>
