<?xml version="1.0" encoding="utf-8"?>
<!-- Generator: Adobe Illustrator 25.2.1, SVG Export Plug-In . SVG Version: 6.00 Build 0)  -->
<svg version="1.1" id="Layer_1" xmlns="http://www.w3.org/2000/svg" xmlns:xlink="http://www.w3.org/1999/xlink" x="0px" y="0px"
	 viewBox="0 0 42 35.3" style="enable-background:new 0 0 42 35.3;" xml:space="preserve">
<style type="text/css">
	.st0{fill:#EC2024;}
</style>
<path class="st0" d="M22.8,32.5C22.8,32.5,22.8,32.6,22.8,32.5C23.3,32.8,23.3,32.8,22.8,32.5 M15.7,27.5
	C15.7,27.6,15.8,27.6,15.7,27.5C16.3,27.8,16.2,27.8,15.7,27.5 M14.3,29.9c0,0.1,0,0.1,0,0.1C14.8,30.3,14.8,30.2,14.3,29.9
	 M15.1,27.7C15.1,27.8,15.1,27.8,15.1,27.7C15.6,27.9,15.6,27.9,15.1,27.7 M23,30C23.4,30.2,23.4,30.2,23,30C22.9,30,22.9,30,23,30
	 M23.1,29.1c0,0.2,0,0.3,0.2,0.2l0.3-0.1C23.7,28.4,23.6,28.4,23.1,29.1 M21.4,31l0,0.2c0.5-0.3,0.5-0.5-0.1-0.5
	C21.4,30.9,21.4,31,21.4,31 M20.9,30.8C21.4,31.2,21.4,31.1,20.9,30.8C20.9,30.8,20.9,30.8,20.9,30.8 M42,35.2c0,0-0.1,0-0.1,0
	l0,0.1C41.9,35.3,42,35.3,42,35.2L42,35.2 M27.2,31.9c0.1-0.5-0.1-0.7-0.4-0.7c0,0.2,0.1,0.4,0.1,0.5l0.1,0c0.1,1,0.2,1.2,0.2,0.4
	C27.1,32,27.1,31.9,27.2,31.9C27.2,31.9,27.2,31.9,27.2,31.9 M27.3,29.6C27.8,29.8,27.8,29.8,27.3,29.6
	C27.3,29.5,27.3,29.6,27.3,29.6 M26.4,29.8c0.6,0,0.5-0.2-0.2-0.5C26.2,29.6,26.2,29.8,26.4,29.8 M23.9,26.8c0,0.2,0.1,0.3,0.1,0.2
	C24.6,27.1,24.6,27.1,23.9,26.8 M38,30.6C38,30.7,38,30.7,38,30.6C38.5,30.9,38.5,30.9,38,30.6 M38.5,31.5c0.2,0.3,0.4,0.5,0.6,0.6
	l0.1,0.1C39.8,31.8,39.5,31.6,38.5,31.5 M38.9,33C38.9,33,39,33.1,38.9,33C39.6,33.3,39.6,33.3,38.9,33 M20.5,6.3
	C20.5,6.3,20.4,6.3,20.5,6.3c-0.3,0.6-0.7,1.1-1.1,1.6c0,0.1,0,0.1,0,0.1c-0.1,0-0.1,0-0.1,0.1c-0.1,0.1-0.2,0.3-0.3,0.4
	c0,0.1,0,0.1,0,0.1c0,0.1,0,0.1,0,0.1c-0.2,0.1-0.3,0.2-0.3,0.4c0.1,0.5,0.2,0.5,0.5-0.2c0,0,0-0.1,0-0.1c0.1-0.2,0.2-0.3,0.3-0.5
	c0,0,0-0.1,0-0.1c0.1,0,0.1,0,0.1,0C20,7.5,20.3,6.9,20.5,6.3 M20.5,6c0.2,0.2,0.5,0,0.9-0.5c0.1-0.1,0-0.2-0.1-0.3
	C21,4.9,20.7,5.2,20.5,6 M26.1,0.9c-0.1,0.3,0,0.5,0.2,0.6C26.8,1.2,26.7,1,26.1,0.9 M15.7,24.4C16.1,24.2,16.1,24.2,15.7,24.4
	L15.7,24.4 M14.9,23.2l0,0.3C15.4,22.6,15.4,22.5,14.9,23.2 M13.2,21.3C13.3,21.3,13.3,21.3,13.2,21.3c0.6-1.2,0.5-1.2-0.1-0.1
	c0,0,0,0.1,0,0.1c0,0-0.1,0-0.1,0c-0.1,0.2-0.2,0.3-0.3,0.4c0.2,0.1,0.4,0,0.5-0.3C13.2,21.4,13.2,21.3,13.2,21.3 M14.4,20.3
	L14,20.8c0,0.2,0.2,0.3,0.4,0.3c0.1,0,0.1,0,0.1,0c0,0,0,0.1,0,0c0.5,0.1,0.5,0,0-0.2C14.5,20.7,14.5,20.5,14.4,20.3 M7.8,27.7
	C7.7,27.7,7.7,27.7,7.8,27.7c-0.4,0.2-0.6,0.3-0.9,0.5c0.4,0.3,0.7,0.1,1-0.4c0,0,0-0.1,0-0.1l0.2-0.3c0.5-0.3,0.3-0.3-0.4,0.1
	C7.8,27.6,7.8,27.7,7.8,27.7 M4.1,24.7l0,0.2C4.5,24.8,4.5,24.8,4.1,24.7 M8,21.1L8,21.1C8.7,20.8,8.7,20.8,8,21.1 M6.5,22.5
	C7.3,22.1,7.3,22.1,6.5,22.5L6.5,22.5 M4.1,17.5c0.6,0.5,0.6,0.5,0-0.1C4,17.4,4,17.4,4.1,17.5 M7.4,12.9L7.4,12.9
	C8.2,12.5,8.2,12.5,7.4,12.9 M14.2,12.3L14.2,12.3C14.7,12.1,14.7,12.1,14.2,12.3 M7.9,2.7l0,0.2c0.4,0,0.3-0.2-0.1-0.6
	C7.9,2.4,7.9,2.6,7.9,2.7 M2.6,2.1c0,0.1,0,0.1,0,0.1C3.2,2.5,3.2,2.4,2.6,2.1 M31.2,32.4c0-0.3-0.3-0.5-0.8-0.6
	c0,0.3,0.1,0.5,0.2,0.7c0.1,0.1,0.2,0.3,0.4,0.3c0.1,0,0.1,0,0.2,0C31.2,32.7,31.3,32.5,31.2,32.4 M28,26c0.1,0,0.1,0.1,0.2,0.1
	c0.6,0.3,0.6,0.3,0,0C28.1,26,28,26,28,26C28,26,28,26,28,26 M29.7,10.1c0.2,0,0.3,0,0.3,0l0,0C30.1,10.1,29.9,10.1,29.7,10.1
	L29.7,10.1L29.7,10.1C29.7,10.1,29.7,10.1,29.7,10.1 M24.8,21.1C25.2,21.3,25.2,21.3,24.8,21.1C24.8,21,24.8,21.1,24.8,21.1
	 M24.2,20.9C24.2,21,24.2,21,24.2,20.9c0.3,0.9,0.8,1.5,1.3,2.1c0,0,0-0.1-0.1-0.1C25.1,22.2,24.7,21.5,24.2,20.9 M30.1,7.2
	C30,7.2,30,7.2,30.1,7.2c-0.3,0.2-0.5,0.4-0.8,0.5c0.2,0.1,0.4,0.1,0.8-0.1c0,0,0.1,0,0.1,0c0.4,0,0.5-0.1,0.4-0.4c0,0,0,0-0.1,0
	C30.7,7,30.8,7,30.9,7c0.1,0,0.2,0,0.2-0.1c0.1,0,0.2-0.1,0.1-0.2c0,0,0,0-0.1-0.1l0,0c0,0,0,0-0.1,0c-0.2,0-0.5,0.1-0.9,0.5
	c0,0.1,0,0.1,0,0.1C30.1,7.2,30.1,7.2,30.1,7.2 M29.8,27.6C29.8,27.6,29.9,27.7,29.8,27.6C30.7,28.3,30.7,28.3,29.8,27.6 M28.7,20.3
	C28.7,20.3,28.7,20.4,28.7,20.3C29.6,20.7,29.6,20.6,28.7,20.3 M29.6,17.9c0-0.4-0.1-0.6-0.3-0.8c-0.5-0.2-0.8-0.1-0.8,0.4
	c0,0.6-0.3,0.8-0.8,0.7c0,0,0,0.1,0,0.1C28.7,19,29.3,18.9,29.6,17.9 M30.5,17.5c0.7-0.1,0.7-0.1,0-0.2L30.5,17.5 M30.5,15.3
	C30.5,15.3,30.5,15.4,30.5,15.3C31,15.6,31,15.6,30.5,15.3 M27.1,16.6l0,0.2C27.6,16.6,27.6,16.5,27.1,16.6 M28,8.5L28,8.5
	C29.2,8,29.2,8,28,8.5 M27.2,7.6C27.2,7.6,27.2,7.6,27.2,7.6C27.7,7.9,27.6,7.8,27.2,7.6 M26,10.5c0,0,0.1,0,0.1,0c0,0,0,0.1,0,0.1
	c0,0,0,0.1,0,0.1c0,0,0,0-0.1,0c0.2,1.2,0.7,1.4,1.5,0.6c0.1-0.1,0.1-0.2,0-0.4c-0.1-0.4-0.4-0.6-0.8-0.6c0,0,0-0.1-0.1-0.1
	c0-0.1-0.1-0.1-0.1-0.1c0-0.1,0-0.1,0-0.1c0.2-0.1,0.3-0.2,0.5-0.4c0,0,0,0,0-0.1c0.3-0.1,0.5-0.3,0.7-0.6l0.1-0.2
	c-0.3-0.1-0.6,0.1-0.9,0.5c0,0,0,0.1,0,0.1c-0.1,0-0.1,0-0.1,0c-0.5,0.4-0.9,0.8-1.3,1.2C25.6,10.9,25.8,10.9,26,10.5 M24.9,6.6
	L24.9,6.6C25.9,6.5,25.9,6.5,24.9,6.6 M26.5,5.2c0-0.1,0-0.1,0-0.1c-0.4-1.7-1.1-1.9-2.1-0.7c0,0,0,0.1,0,0.1
	C24.7,5.7,25.4,5.9,26.5,5.2 M26.1,6.1C26.7,6.1,26.7,6,26.1,6.1L26.1,6.1 M13,23.4c0,0.2,0.1,0.4,0.1,0.5c0.1,0.4,0.3,0.4,0.6,0.1
	c0.1-0.2,0.2-0.4,0.3-0.5c0.1-0.3-0.1-0.4-0.4-0.3C13.5,23.2,13.3,23.3,13,23.4 M12.7,22.3l0-0.1c-0.2,0.1-0.5,0.4-0.8,0.7
	c-0.1,0.1-0.2,0.2-0.3,0.3c0,0,0,0.1,0,0.1c0.2,0.1,0.5-0.1,0.7-0.4C12.4,22.7,12.5,22.5,12.7,22.3 M13.1,11.9c0,0.1,0,0.2,0.1,0.2
	c0.1,0,0.2,0,0.3,0c0.5,0,0.5,0-0.1-0.1C13.3,11.9,13.2,11.9,13.1,11.9 M7,7.8c0-0.1,0-0.1,0-0.2C6.8,7.1,6.5,6.8,6,6.6
	C6.2,7.2,6.5,7.6,7,7.8c-0.1,0.1,0,0.1,0,0.1C7.2,8.2,7.4,8.6,7.6,9c0,0,0,0.1,0,0.1c0,0-0.1,0-0.1,0C6.7,7.9,5.3,7.2,3.4,7.2
	c0.1,0.6,0.3,1,0.6,1.3c0,0,0.1,0.1,0.1,0.1c0,0,0.1,0,0.1,0c0.3-0.3,0.7-0.4,1-0.4c0.4,0,0.7,0.1,1.2,0.3c0,0,0,0.1,0.1,0.1
	c0.2,0.4,0.5,0.7,0.7,1c0,0,0,0.1,0,0.1c0.2,0.2,0.4,0.4,0.5,0.6c0,0,0,0,0.1,0c0,0.1,0.1,0.3,0.1,0.4c0,0,0,0,0.1,0
	c0,0.3,0.1,0.5,0.2,0.5c0,0,0.1,0,0.1,0c0,0,0,0,0,0.1c0,0,0,0.1,0,0.1c0,0,0,0.1,0,0.1l0,0c0,0.1,0,0.2-0.3,0.2l0-0.1
	c-0.3,0-0.6-0.1-0.8-0.2c0,0,0-0.1,0-0.2c0-0.2-0.2-0.3-0.5-0.2c0,0.4,0.1,0.5,0.3,0.5c0,0,0.1,0,0.1,0c0.2,0,0.3,0.1,0.4,0.3
	c0,0,0,0,0.1,0c0.2,0.3,0.5,0.6,0.8,0.8c0,0,0.1,0,0.1,0C8.7,12.9,8.8,13,9,13.1c0.1,0.1,0.3,0.1,0.4,0.1c0,0,0.1,0,0.1,0
	c0.4,0.6,0.9,1,1.6,1.2c0.1,0,0.2,0,0.2,0.1c0,0,0,0,0,0.1c0,0.7,0.1,1.3,0.4,1.7c0,0,0.1,0.1,0.1,0.1c-0.4,1-0.3,1.7,0.4,2.2
	c0,0,0.1,0.1,0.1,0.1c0,0-0.1,0-0.1,0c-0.4-0.4-0.6-0.3-0.8,0.4c0-0.1,0-0.1,0-0.1c-0.1-0.2-0.2-0.3-0.4-0.1c0,0.2,0,0.4,0.2,0.4
	c0,0,0.1,0,0.1,0c0,0,0.1,0,0.1,0c0.5,0.2,0.4,0.6-0.4,0.9c0,0,0,0.1,0,0.1c-0.2,0-0.3,0-0.3,0c-0.3-1-0.8-1.2-1.7-0.6
	c0.4,1.5,1.1,1.7,2.1,0.7c0,0,0-0.1,0-0.1c0.5-0.3,1-0.6,1.4-0.9c0,0,0.1,0,0.1-0.1c0,0,0.1,0,0.1,0c0.2,0.2,0.5,0.3,0.8,0.3
	c0.1,0,0.1,0,0.1,0l0.1,0c0,0.1,0,0.2-0.2,0.3c0.1,0.2,0.3,0.2,0.5-0.2c0,0,0,0,0.1,0c0.4,0.5,0.8,0.7,1.2,0.8c0.1,0,0.1,0,0.1,0
	c0,0.7,0.1,1,0.4,0.9c0,0,0.1,0,0.1,0c0,0,0,0.1,0,0.1c0,0.4,0,0.7-0.2,1.1c0,0,0,0.1,0,0.1c0,0,0,0.1,0,0.1c0.1,0.2,0,0.3-0.1,0.3
	c0.2,0.8,0.2,0.7,0.2-0.3c0,0,0-0.1,0-0.1c0.4-0.2,0.6,0.3,0.7,1.4c0,0,0.1,0.1,0.1,0.1c0.1,0.1,0.2,0.1,0.2-0.1c0.1,0,0.1,0,0.1,0
	c0.1,0,0.1,0,0.1,0c0.2,0.2,0.3,0.1,0.4-0.2c0,0,0-0.1,0-0.1c0,0,0.1,0,0.1,0c0.4,0.7,0.4,1.2,0,1.7c0,0,0,0.1,0,0.1
	c0,0-0.1,0-0.1,0c-0.3,0.2-0.8,0.1-1.5-0.1c0,0.2,0.1,0.4,0.2,0.6c0,0,0.1,0,0.1,0c0,0,0,0.1,0,0.1c0,0,0,0-0.1,0.1
	c0.1,0.5,0.3,0.5,0.4,0.1c0,0,0-0.1,0-0.1c0.1,0.4,0.4,0.5,0.7,0.2c0.3-0.3,0.9-0.5,1.5-0.5c0.5-0.3,1-0.2,1.4,0l0-0.1
	c0-0.3-0.2-0.5-0.6-0.4c0-0.1,0-0.1-0.1-0.1c-0.1-0.1-0.1-0.1-0.2-0.1c0,0,0-0.1,0-0.1c-0.1-0.2-0.3-0.4-0.4-0.5c0,0,0-0.1,0-0.1
	c0-0.2-0.1-0.4-0.1-0.7c0.1,0,0.2-0.1,0.2-0.2c0,0,0-0.1,0-0.1c0.6-0.4,1.2-0.3,1.9,0.4c0.5,0.5,1.1,1.1,1.7,1.6
	c0.1,0.4,0.2,0.9,0.3,1.3c0,0,0,0.1,0,0.1l0,0c0,0.3-0.1,0.5-0.3,0.6c0.4,0.9,0.5,0.8,0.4-0.3c0,0,0-0.1,0-0.1
	c0.3-0.5,0.3-1.1,0.1-1.9l0,0c0.3,0.4,0.6,0.7,0.9,0.9l0,0c0.2-0.2,0.3-0.2,0.4,0c0,0,0,0.1,0,0.1c0,0-0.1,0-0.1,0
	c0,0.3,0.1,0.5,0.2,0.6c0,0,0.1,0,0.1,0c0.1,0.2,0.2,0.4,0.3,0.6c0,0,0,0.1,0,0.1c0.2,0.8,0.5,1.2,0.9,1.3l0-0.1
	c0.3-0.7,0-1.1-0.7-1.2c0,0-0.1,0-0.1,0c0,0,0-0.1,0-0.1c-0.1-0.2-0.1-0.4-0.2-0.6c0,0,0-0.1,0-0.1c0.2-0.2,0.1-0.4-0.1-0.5
	c0-0.1,0-0.1,0-0.1c0-0.1,0-0.1,0-0.1c0,0,0.1,0,0.1,0c0.6,0.2,0.8,0.4,0.8,0.7c0,0.2,0.1,0.4,0.3,0.5c1,0.6,1.8,1.3,2.4,2.2
	c0.1,0,0.2,0,0.3,0c0.6,0,1.2,0.1,1.8,0.5c0,0,0,0,0.1,0c0.4,0.8,0.9,1.5,1.4,2.2c0.1,0.2,0.3,0.4,0.4,0.5c0.1,0.1,0.2,0.2,0.3,0.3
	c0.3-0.2,0.4-0.5,0.3-1c0,0,0,0,0,0c0-0.2,0-0.4-0.1-0.6c-0.4-0.8-1-1.4-1.5-1.8l0,0c-0.2,0.1-0.5,0-0.8-0.1c0,0,0-0.1,0-0.1
	c0-0.2-0.2-0.3-0.4-0.2c0,0,0-0.1,0-0.1c0,0-0.1,0-0.1,0c0,0,0-0.1,0-0.1c-0.3-0.4-0.6-0.8-1-1.1c0,0,0-0.1,0-0.1
	c-0.2-0.3-0.5-0.5-0.8-0.6c0,0,0,0,0-0.1c0,0,0,0,0,0c-0.8-0.4-1.5-0.9-2.1-1.6c0-0.1,0-0.1,0-0.1c-1.2-1.5-2.4-2.9-3.6-4.3
	c0.7-0.3,1.1-0.7,1.5-1.1c0,0,0-0.1,0-0.1c0.7-0.3,1.3-0.8,1.7-1.4c0,0,0-0.1,0-0.1c0,0,0.1-0.1,0.1-0.1c0,0,0.1,0,0.1,0
	c0,0,0,0.1,0,0.1c0.2,0,0.3,0.1,0.5,0.1c0.4,0.2,0.8,0.4,1.1,0.8c0.1-0.1,0.1-0.1,0.1-0.1c-0.2-0.4-0.6-0.7-1.3-1
	c-0.1,0-0.2-0.1-0.4-0.1c0-0.1,0-0.1,0-0.1c0.3-0.4,0.2-0.6-0.1-0.7c0,0,0-0.1,0-0.1c0,0,0-0.1,0-0.1c0.2-0.2,0.1-0.4-0.2-0.7
	c0,0,0-0.1,0-0.1c-0.3-0.4-0.5-0.9-0.8-1.4c0.3,0,0.6,0,0.8,0c0.4,0,0.7,0.1,1.1,0.2c0,0,0.1,0,0.1,0c0.5-0.6,0.2-1.2-0.7-1.6
	c0,0,0,0,0-0.1c0-0.1,0-0.1,0-0.1c0.4-0.2,0.4-0.3,0.2-0.3c-0.1,0-0.1,0-0.1,0c0-0.1,0-0.1,0-0.1c-0.1-0.3-0.2-0.3-0.4,0
	c0,0,0,0.1,0,0.1c0,0,0,0.1,0,0.1c0,0-0.1,0-0.1,0c-0.2,0-0.3,0-0.5-0.1c-0.6-0.1-1.2-0.1-1.9,0c0.3-0.2,0.6-0.5,0.8-0.8
	c0,0,0-0.1,0-0.1c0,0,0.1,0,0.1,0c0.2-0.1,0.4-0.2,0.6-0.4c0.3-0.2,0.5-0.4,0.7-0.7c0,0-0.1,0-0.1,0c-0.2,0.1-0.4,0.3-0.7,0.4
	c-0.3,0.2-0.6,0.4-0.9,0.6c0,0,0,0.1,0,0.1c-0.1,0-0.1,0-0.1,0c-0.2,0.2-0.4,0.4-0.7,0.6c0,0,0,0.1,0,0.1c-0.4,0.4-0.6,0.4-0.7-0.1
	l0,0c0-0.4-0.2-0.8-0.5-1c0.9-0.8,1.3-1.9,1.1-3.2c0,0,0-0.1,0-0.1c0,0,0.1,0,0.1-0.1c0.6-0.8,0.6-0.9-0.1-0.2c0,0.1,0,0.1,0,0.1
	c0,0-0.1,0-0.1,0c0,0-0.1,0-0.1,0c-0.3,0-0.5-0.1-0.6-0.3c0,0,0-0.1,0-0.1c-0.2-0.1-0.2-0.4-0.2-0.7c0.4-0.5,0.7-1.1,0.9-1.7l0,0
	c0,0,0,0,0.1,0c-0.1-0.6,0-1,0.3-1.3c0,0,0,0,0.1-0.1c0-0.2,0.1-0.3,0.1-0.5c0-0.1,0-0.2,0-0.3c0,0,0-0.1,0-0.1c0.4-0.6,0.7-1.2,1-2
	c0,0,0-0.1,0-0.1l0.1,0c0.1-0.5,0-0.8-0.2-1.1c-0.4,0.1-0.7,0.5-0.7,1c0,0.4-0.1,0.8-0.3,1.2c-0.3,0.7-0.5,1.4-0.7,2.1
	c-0.3,1.1-0.7,1.9-1.1,2.3c0,0-0.1,0-0.1,0c-0.5,1.3-1.2,2.5-2,3.5c0,0,0,0.1,0,0.1c0.1,0.9-0.2,1.1-0.7,0.7l-0.1,0
	c-0.2-1-0.8-1.7-1.8-2.1c0,0-0.1,0-0.1,0c-0.2,0.5,0,0.8,0.6,0.8c-0.4,0.3-0.6,0.7-0.6,1.3c0,0.4-0.1,0.5-0.3,0.5
	c-0.4,0.1-0.8,0.1-1.3,0c0,0,0,0.1,0,0.1c0,0-0.1,0-0.1,0c-0.2-0.2-0.4-0.3-0.6-0.3c0.1,0.2,0.3,0.3,0.5,0.4c0,0,0.1,0,0.1,0
	c0,0.2,0.1,0.3,0.2,0.4c0.1,0.1,0.2,0.2,0.2,0.2c0,0.9-0.6,1.5-1.8,2c0-0.1,0-0.1,0-0.1c0.1-0.4,0-0.8-0.1-1.2
	c-0.2-0.4-0.6-0.7-1.1-1c0,0,0-0.1,0-0.1c-0.2-0.5-0.4-0.9-0.7-1.4c0,0,0-0.1,0-0.1c-0.1-0.3-0.3-0.6-0.5-0.9c0,0,0-0.1,0-0.1
	c0-0.4-0.3-0.6-0.9-0.7c0,0,0-0.1,0-0.1C9.8,8.7,9.5,8.6,9.3,8.5c0,0.4,0.2,0.6,0.6,0.5c0,0,0.1,0,0.1,0c0.2,0.2,0.4,0.4,0.7,0.6
	c0,0,0,0.1,0.1,0.1c0.1,0.5,0.2,0.9,0.4,1.3c0,0,0,0,0.1,0c0.1,0.5,0.3,0.9,0.5,1.3c0,0,0,0.1,0.1,0.1c0,0,0,0.1,0,0.1
	c0,0.3-0.1,0.4-0.5,0.3c-0.1,0-0.1,0-0.1,0c-0.2-0.1-0.4-0.3-0.6-0.4c0,0,0-0.1-0.1-0.1c-0.2-0.2-0.4-0.4-0.6-0.6c0-0.1,0-0.1,0-0.1
	c-0.2-0.1-0.3-0.2-0.3-0.6c0,0,0-0.1,0-0.1c-0.3-0.4-0.6-0.7-0.9-1c0,0,0-0.1,0-0.1c0-0.1-0.1-0.2-0.3-0.2c0,0,0-0.1,0-0.1
	C8.3,9.2,8.1,9.1,7.9,8.9c0,0,0-0.1,0-0.1C7.6,8.4,7.3,8,7,7.8 M12.9,30.4c0.3,0.4,0.3,0.4,0-0.1C12.9,30.3,12.9,30.3,12.9,30.4
	 M12.3,25c0.1,0.3,0.3,0.1,0.4-0.3C12.8,24.1,12.7,24.2,12.3,25 M13.2,25.1C13.2,25.2,13.2,25.2,13.2,25.1
	C13.7,25.4,13.7,25.4,13.2,25.1 M12.9,28L12.9,28C13.4,27.5,13.4,27.5,12.9,28 M13.7,27.3C13.7,27.4,13.8,27.4,13.7,27.3
	C14.2,27.6,14.2,27.6,13.7,27.3 M10.6,28.6C10.5,28.7,10.6,28.7,10.6,28.6C11.1,28.9,11,28.9,10.6,28.6 M9.9,26.2
	C10.3,26.4,10.3,26.4,9.9,26.2C9.9,26.2,9.9,26.2,9.9,26.2 M10.8,24.1L10.8,24.1C11.5,23.9,11.5,23.8,10.8,24.1 M0,9.8l0.2,0.1
	C0.7,9.8,0.6,9.8,0,9.8 M2.6,7.6c0,0.3,0.2,0.4,0.4,0.3C3.7,7.8,3.5,7.7,2.6,7.6 M2.1,8.5c0.6-0.1,0.5-0.2-0.3-0.3
	C1.9,8.4,2,8.5,2.1,8.5 M2,7.5c0.7-0.1,0.5-0.3-0.3-0.4C1.7,7.4,1.8,7.5,2,7.5 M12.3,10.1C12.3,10.1,12.3,10.2,12.3,10.1
	C13.4,10.7,13.4,10.7,12.3,10.1 M7.5,5C7.5,5,7.5,5.1,7.5,5C8,5.4,8,5.3,7.5,5z"/>
</svg>
