<?xml version="1.0" encoding="utf-8"?>
<!-- Generator: Adobe Illustrator 25.2.1, SVG Export Plug-In . SVG Version: 6.00 Build 0)  -->
<svg version="1.1" id="Layer_1" xmlns="http://www.w3.org/2000/svg" xmlns:xlink="http://www.w3.org/1999/xlink" x="0px" y="0px"
	 viewBox="0 0 30 25.2" style="enable-background:new 0 0 30 25.2;" xml:space="preserve">
<style type="text/css">
	.st0{fill:#FFFFFF;}
</style>
<path class="st0" d="M16.3,23.2C16.3,23.2,16.3,23.3,16.3,23.2C16.6,23.4,16.6,23.4,16.3,23.2 M11.2,19.7
	C11.2,19.7,11.3,19.7,11.2,19.7C11.6,19.9,11.6,19.9,11.2,19.7 M10.2,21.4C10.2,21.4,10.2,21.4,10.2,21.4
	C10.6,21.6,10.5,21.6,10.2,21.4 M10.8,19.8C10.8,19.8,10.8,19.9,10.8,19.8C11.1,19.9,11.1,19.9,10.8,19.8 M16.4,21.5
	C16.7,21.6,16.7,21.6,16.4,21.5C16.4,21.4,16.4,21.4,16.4,21.5 M16.5,20.8c0,0.1,0,0.2,0.1,0.2l0.2-0.1
	C16.9,20.3,16.8,20.3,16.5,20.8 M15.3,22.2l0,0.1c0.4-0.2,0.4-0.4,0-0.3C15.3,22,15.3,22.1,15.3,22.2 M15,22
	C15.3,22.3,15.3,22.2,15,22C14.9,22,14.9,22,15,22 M30,25.1C30,25.1,29.9,25.1,30,25.1L30,25.1C29.9,25.2,30,25.2,30,25.1L30,25.1
	 M19.4,22.8c0.1-0.4,0-0.5-0.3-0.5c0,0.1,0,0.3,0.1,0.4l0.1,0c0.1,0.7,0.1,0.8,0.1,0.3C19.4,22.8,19.4,22.8,19.4,22.8
	C19.4,22.8,19.4,22.8,19.4,22.8 M19.5,21.1C19.8,21.3,19.8,21.3,19.5,21.1C19.5,21.1,19.5,21.1,19.5,21.1 M18.8,21.3
	c0.4,0,0.4-0.1-0.1-0.3C18.7,21.2,18.7,21.3,18.8,21.3 M17.1,19.1c0,0.1,0,0.2,0.1,0.2C17.6,19.4,17.6,19.3,17.1,19.1 M27.2,21.9
	C27.2,21.9,27.2,21.9,27.2,21.9C27.5,22.1,27.5,22.1,27.2,21.9 M27.5,22.5c0.1,0.2,0.3,0.3,0.4,0.5L28,23
	C28.4,22.7,28.2,22.5,27.5,22.5 M27.8,23.6C27.8,23.6,27.8,23.6,27.8,23.6C28.3,23.8,28.3,23.8,27.8,23.6 M14.6,4.5
	C14.6,4.5,14.6,4.5,14.6,4.5c-0.2,0.4-0.5,0.8-0.8,1.1c0,0,0,0.1,0,0.1c0,0-0.1,0-0.1,0c-0.1,0.1-0.1,0.2-0.2,0.3c0,0,0,0.1,0,0.1
	c0,0,0,0.1,0,0c-0.1,0.1-0.2,0.1-0.2,0.3c0.1,0.4,0.2,0.3,0.3-0.1c0,0,0,0,0-0.1c0.1-0.1,0.1-0.2,0.2-0.3c0,0,0,0,0-0.1
	c0,0,0.1,0,0.1,0C14.3,5.4,14.5,4.9,14.6,4.5 M14.6,4.3c0.2,0.1,0.4,0,0.6-0.4c0.1-0.1,0-0.2-0.1-0.2C15,3.5,14.8,3.7,14.6,4.3
	 M18.6,0.6c0,0.2,0,0.4,0.1,0.4C19.1,0.8,19.1,0.7,18.6,0.6 M11.2,17.4C11.5,17.3,11.5,17.3,11.2,17.4L11.2,17.4 M10.6,16.6l0,0.2
	C11,16.1,11,16,10.6,16.6 M9.4,15.2C9.5,15.2,9.5,15.2,9.4,15.2c0.4-0.8,0.3-0.8-0.1-0.1C9.3,15.1,9.3,15.2,9.4,15.2
	c-0.1,0-0.1,0-0.1,0c-0.1,0.1-0.1,0.2-0.2,0.3C9.2,15.6,9.4,15.5,9.4,15.2C9.4,15.3,9.4,15.2,9.4,15.2 M10.3,14.5L10,14.9
	c0,0.2,0.1,0.2,0.3,0.2c0,0,0.1,0,0.1,0c0,0,0,0,0,0c0.4,0.1,0.4,0,0-0.1C10.4,14.8,10.4,14.6,10.3,14.5 M5.6,19.8
	C5.5,19.8,5.5,19.8,5.6,19.8c-0.3,0.1-0.4,0.2-0.6,0.4C5.2,20.3,5.4,20.3,5.6,19.8C5.6,19.9,5.7,19.8,5.6,19.8l0.3-0.2
	C6.1,19.4,6,19.4,5.6,19.8C5.5,19.7,5.6,19.8,5.6,19.8 M2.9,17.6l0,0.1C3.2,17.7,3.2,17.7,2.9,17.6 M5.7,15L5.7,15
	C6.2,14.9,6.2,14.9,5.7,15 M4.7,16.1C5.2,15.8,5.2,15.8,4.7,16.1L4.7,16.1 M2.9,12.5C3.3,12.8,3.3,12.8,2.9,12.5
	C2.9,12.4,2.9,12.4,2.9,12.5 M5.3,9.2L5.3,9.2C5.9,8.9,5.9,8.9,5.3,9.2 M10.2,8.8L10.2,8.8C10.5,8.6,10.5,8.6,10.2,8.8 M5.6,1.9
	l0,0.1c0.3,0,0.2-0.2-0.1-0.4C5.6,1.7,5.6,1.8,5.6,1.9 M1.9,1.5C1.9,1.5,1.9,1.5,1.9,1.5C2.3,1.8,2.3,1.7,1.9,1.5 M22.3,23.1
	c0-0.2-0.2-0.4-0.6-0.4c0,0.2,0.1,0.4,0.1,0.5c0.1,0.1,0.2,0.2,0.3,0.2c0.1,0,0.1,0,0.1,0C22.3,23.3,22.3,23.2,22.3,23.1 M20,18.6
	c0,0,0.1,0,0.1,0.1c0.4,0.2,0.4,0.2,0,0C20.1,18.6,20,18.6,20,18.6C20,18.6,20,18.6,20,18.6 M21.2,7.2c0.1,0,0.2,0,0.2,0l0,0
	C21.5,7.2,21.4,7.2,21.2,7.2L21.2,7.2L21.2,7.2C21.2,7.2,21.2,7.2,21.2,7.2 M17.7,15.1C18,15.2,18,15.2,17.7,15.1
	C17.7,15,17.7,15,17.7,15.1 M17.3,14.9C17.3,15,17.3,15,17.3,14.9c0.2,0.6,0.5,1.1,0.9,1.5c0,0,0,0,0-0.1
	C17.9,15.8,17.6,15.4,17.3,14.9 M21.5,5.2C21.4,5.2,21.4,5.2,21.5,5.2c-0.2,0.2-0.4,0.3-0.5,0.3c0.1,0.1,0.3,0,0.6,0
	c0,0,0.1,0,0.1,0c0.3,0,0.4-0.1,0.3-0.3c0,0,0,0,0,0C21.9,5,22,5,22.1,5c0.1,0,0.1,0,0.1,0c0.1,0,0.1-0.1,0.1-0.1c0,0,0,0-0.1,0l0,0
	c0,0,0,0,0,0c-0.1,0-0.3,0.1-0.7,0.3C21.6,5.1,21.6,5.1,21.5,5.2C21.5,5.1,21.5,5.2,21.5,5.2 M21.3,19.7
	C21.3,19.7,21.3,19.8,21.3,19.7C21.9,20.2,21.9,20.2,21.3,19.7 M20.5,14.5C20.5,14.5,20.5,14.5,20.5,14.5
	C21.2,14.8,21.2,14.7,20.5,14.5 M21.1,12.8c0-0.3-0.1-0.5-0.2-0.5c-0.4-0.1-0.6-0.1-0.6,0.3c0,0.4-0.2,0.6-0.5,0.5c0,0,0,0,0,0
	C20.5,13.6,20.9,13.5,21.1,12.8 M21.8,12.5c0.5-0.1,0.5-0.1,0-0.1L21.8,12.5 M21.8,10.9C21.8,11,21.8,11,21.8,10.9
	C22.2,11.1,22.2,11.1,21.8,10.9 M19.3,11.9l0,0.1C19.7,11.8,19.7,11.8,19.3,11.9 M20,6.1L20,6.1C20.8,5.7,20.8,5.7,20,6.1 M19.4,5.4
	C19.4,5.4,19.4,5.5,19.4,5.4C19.8,5.6,19.7,5.6,19.4,5.4 M18.6,7.5C18.6,7.5,18.6,7.5,18.6,7.5C18.7,7.5,18.7,7.5,18.6,7.5
	c0.1,0.1,0.1,0.1,0.1,0.2c0,0,0,0-0.1,0c0.1,0.8,0.5,1,1.1,0.4c0.1,0,0.1-0.1,0-0.3c-0.1-0.3-0.3-0.4-0.6-0.4c0,0,0-0.1,0-0.1
	c0,0-0.1-0.1-0.1-0.1c0,0,0-0.1,0-0.1c0.1-0.1,0.2-0.2,0.3-0.3c0,0,0,0,0-0.1c0.2-0.1,0.4-0.2,0.5-0.4l0.1-0.1
	c-0.2-0.1-0.4,0-0.6,0.4c0,0,0,0.1,0,0.1c0,0-0.1,0-0.1,0c-0.3,0.3-0.7,0.5-0.9,0.8C18.3,7.8,18.4,7.8,18.6,7.5 M17.8,4.7L17.8,4.7
	C18.5,4.6,18.5,4.6,17.8,4.7 M18.9,3.7C18.9,3.7,18.9,3.7,18.9,3.7c-0.3-1.3-0.8-1.5-1.5-0.6c0,0,0,0.1,0,0.1
	C17.7,4.1,18.2,4.2,18.9,3.7 M18.6,4.4C19.1,4.3,19.1,4.3,18.6,4.4L18.6,4.4 M9.3,16.7c0,0.1,0,0.3,0.1,0.4c0.1,0.3,0.2,0.3,0.4,0.1
	C9.9,17,10,16.9,10,16.8c0.1-0.2,0-0.3-0.3-0.2C9.6,16.6,9.5,16.7,9.3,16.7 M9,15.9l0-0.1c-0.2,0.1-0.4,0.3-0.6,0.5
	c-0.1,0.1-0.1,0.1-0.2,0.2c0,0,0,0.1,0,0c0.2,0,0.3-0.1,0.5-0.3C8.9,16.2,9,16.1,9,15.9 M9.4,8.5c0,0.1,0,0.1,0,0.1
	c0.1,0,0.2,0,0.2,0c0.4,0,0.3,0-0.1-0.1C9.5,8.5,9.5,8.5,9.4,8.5 M5,5.5c0,0,0-0.1,0-0.1C4.8,5.1,4.6,4.8,4.3,4.7
	C4.4,5.1,4.6,5.4,5,5.5C4.9,5.6,4.9,5.6,5,5.5c0.2,0.3,0.3,0.6,0.5,0.9c0,0,0,0,0,0.1c0,0,0,0-0.1,0C4.8,5.6,3.8,5.2,2.5,5.1
	c0,0.4,0.2,0.7,0.4,0.9c0,0,0,0,0.1,0.1c0,0,0,0,0.1,0c0.2-0.2,0.5-0.3,0.7-0.3c0.3,0,0.5,0.1,0.8,0.2c0,0,0,0,0,0.1
	C4.8,6.4,5,6.6,5.2,6.8c0,0,0,0,0,0.1C5.3,7,5.5,7.2,5.6,7.3c0,0,0,0,0.1,0c0,0.1,0,0.2,0.1,0.3c0,0,0,0,0.1,0c0,0.2,0,0.3,0.2,0.4
	c0,0,0,0,0.1,0c0,0,0,0,0,0.1c0,0,0,0.1,0,0.1c0,0,0,0.1,0,0.1l0,0c0,0.1,0,0.1-0.2,0.1l0,0c-0.2,0-0.4-0.1-0.6-0.2c0,0,0-0.1,0-0.1
	c0-0.2-0.2-0.2-0.4-0.1c0,0.3,0,0.4,0.2,0.4c0,0,0.1,0,0.1,0c0.1,0,0.2,0.1,0.3,0.2c0,0,0,0,0,0C5.6,8.7,5.8,8.9,6,9.1
	c0,0,0.1,0,0.1,0c0.1,0.1,0.2,0.2,0.3,0.2c0.1,0,0.2,0.1,0.3,0.1c0,0,0.1,0,0.1,0c0.3,0.4,0.7,0.7,1.2,0.9c0.1,0,0.1,0,0.2,0
	c0,0,0,0,0,0.1c0,0.5,0.1,0.9,0.3,1.2c0,0,0,0.1,0,0.1c-0.3,0.7-0.2,1.2,0.3,1.6c0,0,0,0,0,0.1c0,0-0.1,0-0.1,0
	c-0.3-0.3-0.4-0.2-0.6,0.3c0,0,0-0.1,0-0.1c-0.1-0.2-0.2-0.2-0.3-0.1c0,0.2,0,0.3,0.1,0.3c0,0,0.1,0,0.1,0c0,0,0.1,0,0.1,0
	c0.4,0.2,0.3,0.4-0.3,0.7c0,0,0,0.1,0,0.1c-0.1,0-0.2,0-0.2,0c-0.2-0.7-0.6-0.9-1.2-0.4c0.3,1,0.8,1.2,1.5,0.5c0,0,0,0,0-0.1
	c0.4-0.2,0.7-0.4,1-0.6c0,0,0,0,0.1,0c0,0,0.1,0,0.1,0C9.3,14,9.5,14,9.8,14c0,0,0.1,0,0.1,0l0.1,0c0,0.1,0,0.2-0.1,0.2
	c0.1,0.2,0.2,0.1,0.4-0.1c0,0,0,0,0.1,0c0.3,0.3,0.6,0.5,0.8,0.6c0,0,0.1,0,0.1,0c0,0.5,0.1,0.7,0.3,0.6c0,0,0.1,0,0.1,0
	c0,0,0,0.1,0,0.1c0,0.3,0,0.5-0.1,0.8c0,0,0,0.1,0,0.1c0,0,0,0.1,0,0.1c0,0.1,0,0.2-0.1,0.2c0.1,0.5,0.2,0.5,0.2-0.2
	c0,0,0-0.1,0-0.1c0.3-0.1,0.4,0.2,0.5,1c0,0,0,0,0.1,0.1c0.1,0.1,0.1,0.1,0.1,0c0,0,0.1,0,0.1,0c0,0,0.1,0,0.1,0
	c0.1,0.1,0.2,0.1,0.3-0.1c0,0,0-0.1,0-0.1c0,0,0,0,0,0c0.3,0.5,0.3,0.9,0,1.2c0,0,0,0.1,0,0.1c0,0-0.1,0-0.1,0
	c-0.2,0.1-0.6,0.1-1.1-0.1c0,0.2,0.1,0.3,0.2,0.4c0,0,0,0,0.1,0c0,0,0,0,0,0.1c0,0,0,0-0.1,0c0.1,0.3,0.2,0.4,0.3,0.1
	c0,0,0-0.1,0-0.1c0.1,0.3,0.3,0.3,0.5,0.2c0.2-0.2,0.6-0.3,1.1-0.4c0.4-0.2,0.7-0.2,1,0l0,0c0-0.2-0.1-0.3-0.4-0.3c0,0,0-0.1,0-0.1
	c0,0-0.1-0.1-0.2-0.1c0,0,0,0,0-0.1c-0.1-0.1-0.2-0.3-0.3-0.4c0,0,0-0.1,0-0.1c0-0.1,0-0.3,0-0.5c0.1,0,0.1-0.1,0.2-0.1
	c0,0,0,0,0-0.1c0.4-0.3,0.9-0.2,1.4,0.3c0.4,0.4,0.8,0.8,1.2,1.1c0.1,0.3,0.1,0.6,0.2,0.9c0,0,0,0.1,0,0.1l0,0
	c0,0.2-0.1,0.3-0.2,0.4c0.3,0.6,0.4,0.6,0.3-0.2c0,0,0-0.1,0-0.1c0.2-0.4,0.2-0.8,0.1-1.3l0,0c0.2,0.3,0.4,0.5,0.6,0.6l0,0
	c0.1-0.1,0.2-0.1,0.3,0c0,0,0,0,0,0.1c0,0-0.1,0-0.1,0c0,0.2,0.1,0.3,0.2,0.4c0,0,0.1,0,0.1,0c0.1,0.1,0.1,0.3,0.2,0.4
	c0,0,0,0.1,0,0.1c0.2,0.5,0.4,0.8,0.7,0.9l0-0.1c0.2-0.5,0-0.8-0.5-0.9c0,0-0.1,0-0.1,0c0,0,0-0.1,0-0.1C18,19.6,18,19.4,18,19.2
	c0,0,0-0.1,0-0.1c0.1-0.2,0.1-0.3-0.1-0.4c0,0,0-0.1,0-0.1c0,0,0-0.1,0-0.1c0,0,0.1,0,0.1,0c0.4,0.1,0.6,0.3,0.6,0.5
	c0,0.2,0.1,0.3,0.2,0.4c0.7,0.4,1.3,0.9,1.7,1.6c0.1,0,0.1,0,0.2,0c0.4,0,0.9,0.1,1.3,0.3c0,0,0,0,0.1,0c0.3,0.6,0.6,1.1,1,1.6
	c0.1,0.1,0.2,0.3,0.3,0.4c0.1,0.1,0.1,0.1,0.2,0.2c0.2-0.1,0.3-0.3,0.2-0.7c0,0,0,0,0,0c0-0.1,0-0.3,0-0.4c-0.3-0.6-0.7-1-1.1-1.3
	l0,0c-0.2,0-0.4,0-0.6-0.1c0,0,0-0.1,0-0.1c0-0.1-0.1-0.2-0.3-0.2c0,0,0,0,0-0.1c0,0,0,0-0.1,0c0,0,0-0.1,0-0.1
	c-0.2-0.3-0.5-0.5-0.7-0.8c0,0,0-0.1,0-0.1c-0.1-0.2-0.3-0.3-0.6-0.4c0,0,0,0,0,0c0,0,0,0,0,0c-0.6-0.3-1.1-0.7-1.5-1.1
	c0,0,0-0.1,0-0.1C17.8,17,16.9,16,16.1,15c0.5-0.2,0.8-0.5,1-0.8c0,0,0,0,0-0.1c0.5-0.2,0.9-0.6,1.2-1c0,0,0-0.1,0-0.1
	c0,0,0.1-0.1,0.1-0.1c0,0,0.1,0,0.1,0c0,0,0,0,0,0c0.1,0,0.2,0.1,0.3,0.1c0.3,0.1,0.5,0.3,0.8,0.6c0.1,0,0.1-0.1,0.1-0.1
	c-0.1-0.3-0.4-0.5-0.9-0.7c-0.1,0-0.2,0-0.3-0.1c0,0,0-0.1,0-0.1c0.2-0.3,0.2-0.5-0.1-0.5c0,0,0-0.1,0-0.1c0,0,0,0,0-0.1
	c0.2-0.1,0.1-0.3-0.2-0.5c0,0,0,0,0-0.1c-0.2-0.3-0.4-0.7-0.6-1c0.2,0,0.4,0,0.6,0c0.3,0,0.5,0.1,0.8,0.1c0,0,0.1,0,0.1,0
	c0.3-0.5,0.2-0.8-0.5-1.1c0,0,0,0,0,0c0,0,0-0.1,0-0.1c0.3-0.2,0.3-0.2,0.2-0.2c0,0-0.1,0-0.1,0c0,0,0-0.1,0-0.1
	c-0.1-0.2-0.1-0.2-0.3,0c0,0,0,0.1,0,0.1c0,0,0,0.1,0,0.1c0,0-0.1,0-0.1,0c-0.1,0-0.2,0-0.4,0c-0.4,0-0.9-0.1-1.4,0
	C16.8,9,17,8.9,17.2,8.6c0,0,0,0,0-0.1c0,0,0.1,0,0.1,0c0.2-0.1,0.3-0.2,0.4-0.3c0.2-0.1,0.4-0.3,0.5-0.5c0,0-0.1,0-0.1,0
	C18,7.9,17.8,8,17.7,8.1c-0.2,0.1-0.4,0.3-0.7,0.4c0,0,0,0.1,0,0.1c0,0-0.1,0-0.1,0c-0.1,0.2-0.3,0.3-0.5,0.4c0,0,0,0.1,0,0.1
	c-0.3,0.3-0.4,0.3-0.5,0l0,0c0-0.3-0.1-0.6-0.4-0.7c0.6-0.6,0.9-1.3,0.8-2.3c0,0,0-0.1,0-0.1c0,0,0.1,0,0.1,0
	c0.4-0.6,0.4-0.7-0.1-0.1c0,0,0,0.1,0,0.1c0,0-0.1,0-0.1,0c0,0-0.1,0-0.1,0c-0.2,0-0.4-0.1-0.4-0.2c0,0,0,0,0-0.1
	c-0.1-0.1-0.2-0.3-0.1-0.5c0.3-0.4,0.5-0.8,0.7-1.2l0,0c0,0,0,0,0.1,0c0-0.4,0-0.7,0.2-1c0,0,0,0,0.1,0c0-0.1,0-0.2,0-0.4
	c0-0.1,0-0.1,0-0.2c0,0,0-0.1,0-0.1c0.3-0.4,0.5-0.9,0.7-1.4c0,0,0-0.1,0-0.1l0,0c0-0.3,0-0.6-0.1-0.8c-0.3,0.1-0.5,0.3-0.5,0.7
	c0,0.3-0.1,0.5-0.2,0.8C16.4,2,16.2,2.5,16,3c-0.2,0.8-0.5,1.3-0.8,1.7c0,0,0,0-0.1,0c-0.4,1-0.8,1.8-1.5,2.5c0,0,0,0.1,0,0.1
	c0.1,0.6-0.1,0.8-0.5,0.5l0,0c-0.2-0.7-0.6-1.2-1.3-1.5c0,0-0.1,0,0,0c-0.2,0.4,0,0.6,0.4,0.6c-0.3,0.2-0.4,0.5-0.5,0.9
	c0,0.3-0.1,0.4-0.2,0.4c-0.3,0.1-0.6,0-0.9,0c0,0,0,0.1,0,0.1c0,0,0,0-0.1,0c-0.1-0.1-0.3-0.2-0.5-0.2c0.1,0.1,0.2,0.2,0.4,0.3
	c0,0,0.1,0,0.1,0c0,0.1,0.1,0.2,0.1,0.3c0.1,0.1,0.1,0.1,0.1,0.2c0,0.6-0.5,1.1-1.3,1.4c0,0,0-0.1,0-0.1c0-0.3,0-0.6-0.1-0.8
	C9.3,9.1,9.1,8.9,8.7,8.7c0,0,0-0.1,0-0.1C8.5,8.3,8.3,8,8.2,7.7c0,0,0-0.1,0-0.1C8,7.3,7.9,7.1,7.8,6.9c0,0,0-0.1,0-0.1
	c0-0.3-0.2-0.4-0.6-0.5c0,0,0,0,0,0C7,6.2,6.8,6.1,6.7,6.1c0,0.3,0.2,0.4,0.4,0.4c0,0,0,0,0.1,0c0.2,0.2,0.3,0.3,0.5,0.5
	c0,0,0,0,0,0.1C7.8,7.3,7.9,7.6,8,7.8c0,0,0,0,0.1,0c0.1,0.4,0.2,0.7,0.4,0.9c0,0,0,0,0,0.1c0,0,0,0.1,0,0.1c0,0.2-0.1,0.3-0.4,0.2
	c0,0-0.1,0-0.1,0C7.9,9.1,7.7,9,7.6,8.8c0,0,0-0.1-0.1-0.1C7.4,8.6,7.3,8.5,7.2,8.3c0,0,0-0.1,0-0.1C7,8.2,6.9,8.1,6.9,7.9
	c0,0,0-0.1,0-0.1C6.7,7.5,6.5,7.3,6.3,7.1c0,0,0-0.1,0-0.1c0-0.1-0.1-0.2-0.2-0.2c0,0,0,0,0-0.1C5.9,6.6,5.8,6.5,5.6,6.4
	c0,0,0,0,0-0.1C5.4,6,5.2,5.7,5,5.5 M9.2,21.7C9.4,22,9.4,21.9,9.2,21.7C9.2,21.6,9.2,21.7,9.2,21.7 M8.8,17.8C8.9,18,9,17.9,9,17.6
	C9.1,17.2,9,17.3,8.8,17.8 M9.5,17.9C9.5,18,9.5,18,9.5,17.9C9.8,18.2,9.8,18.1,9.5,17.9 M9.2,20L9.2,20C9.6,19.7,9.6,19.7,9.2,20
	 M9.8,19.5C9.8,19.6,9.8,19.6,9.8,19.5C10.2,19.7,10.1,19.7,9.8,19.5 M7.5,20.4C7.5,20.5,7.5,20.5,7.5,20.4
	C7.9,20.7,7.9,20.6,7.5,20.4 M7.1,18.7C7.4,18.9,7.4,18.9,7.1,18.7C7.1,18.7,7.1,18.7,7.1,18.7 M7.7,17.2L7.7,17.2
	C8.2,17,8.2,17,7.7,17.2 M0,7l0.1,0.1C0.5,7,0.4,7,0,7 M1.8,5.4c0,0.2,0.1,0.3,0.3,0.2C2.6,5.6,2.5,5.5,1.8,5.4 M1.5,6.1
	C2,6,1.9,5.9,1.3,5.8C1.3,6,1.4,6.1,1.5,6.1 M1.4,5.4c0.5-0.1,0.4-0.2-0.2-0.3C1.2,5.3,1.3,5.4,1.4,5.4 M8.8,7.2
	C8.8,7.2,8.8,7.3,8.8,7.2C9.6,7.7,9.6,7.7,8.8,7.2 M5.3,3.6C5.3,3.6,5.3,3.6,5.3,3.6C5.7,3.8,5.7,3.8,5.3,3.6z"/>
</svg>
