<?xml version="1.0" encoding="utf-8"?>
<!-- Generator: Adobe Illustrator 25.4.1, SVG Export Plug-In . SVG Version: 6.00 Build 0)  -->
<svg version="1.1" id="Layer_1" xmlns="http://www.w3.org/2000/svg" xmlns:xlink="http://www.w3.org/1999/xlink" x="0px" y="0px"
	 viewBox="0 0 1190.9 479.7" style="enable-background:new 0 0 1190.9 479.7;" xml:space="preserve">
<style type="text/css">
	.st0{fill:#C92128;}
</style>
<g>
	<path class="st0" d="M155.5,30.6c3-1.1-0.5-9.4-3.3-4.9C150.6,28.5,153.2,31.4,155.5,30.6z"/>
	<path class="st0" d="M124,52.9c6,1.5-3.9-5.2-3.3-5.8c-2.6,2.5-2,3.7,0,5.8C121,53.2,123.5,52.8,124,52.9z"/>
	<path class="st0" d="M140.3,53.9c-1-2-7.2-1.2-7.6-1C124.7,57.2,144.4,62,140.3,53.9z"/>
	<path class="st0" d="M266.5,56.8c2.5-2.2-3.1-6.3-4.4-2.9C261.6,55.1,264.3,58.7,266.5,56.8z"/>
	<path class="st0" d="M227.3,69.4c0.9,5.2,24.3,5.5,22.8-3.9c0.1,0.4-4.9-5.1-4.4-4.9c-2.2-0.8-4,0.5-6.5,1
		c-5.3,0.9-2.8,2.7-5.4,4.9C230.3,69.3,226.7,66,227.3,69.4z"/>
	<path class="st0" d="M133.8,69.4c-0.5-1.4-2.7-0.3-3.3,0C124.6,72.8,134.9,72.5,133.8,69.4z"/>
	<path class="st0" d="M200.1,70.4c-1.4,2.9,3.8,3.6,4.4,1.9C205.1,70.5,201.5,67.6,200.1,70.4z"/>
	<path class="st0" d="M113.1,94.7c-1.2,0.3-3.6,0.6-3.3,1.9C111.4,103,123.5,92.3,113.1,94.7z"/>
	<path class="st0" d="M126.2,97.6c2.1,1.8,14-2.7,7.6-2.9C130.1,94.6,123.5,95.2,126.2,97.6z"/>
	<path class="st0" d="M-39.2,97.6c-0.2,0.2-2.9,4.7,0,4.9C-37.4,102.5-36.1,94.3-39.2,97.6z"/>
	<path class="st0" d="M99,103.4c2.1-1.9-4.4-5.8-6.5-3.9C91,100.9,98.4,104,99,103.4z"/>
	<path class="st0" d="M67.4,109.3c-0.4,2.2-7.5-2.2-7.6-2.9c-0.4-4.4-5.1-3-2.2,0c5,5.1-6.6-0.1-5.4,5.8
		C56.4,110.4,66.3,115.2,67.4,109.3z"/>
	<path class="st0" d="M93.5,104.4c-2.5-5.4-3.8,5.6-3.4,5.9c-1.1,0.7-10.1,3.8-6.4,6.7C87.8,114.1,96.3,110.3,93.5,104.4z"/>
	<path class="st0" d="M183.8,106.4c-2.6,2.3,2.2,2.9,3.3,1.9C188.2,107.3,186,104.4,183.8,106.4z"/>
	<path class="st0" d="M42.4,126.8c8.4,0.5,8.3-28.9-2.2-19.4C36.7,110.6,40.7,126.6,42.4,126.8z"/>
	<path class="st0" d="M60.9,119c-0.3,1.5,4.2,5,5.4,3.9C68.4,121,61.6,116,60.9,119z"/>
	<path class="st0" d="M85.9,120c-0.6,0.1-5.1,0.3-3.3,1.9C85,124,93.8,118.6,85.9,120z"/>
	<path class="st0" d="M-44.6,125.8c-1.2,2.9,0.1,6,0,5.8C-41.4,135.1-42.1,119.6-44.6,125.8z"/>
	<path class="st0" d="M96.8,133.6c5.4-1.9-4.6-9.7-6.5-5.8C90.5,127.4,95.4,134,96.8,133.6z"/>
	<path class="st0" d="M85.9,130.6c-7.3,3.2,7.6,2.3,6.5,0C91.5,128.5,86.4,130.4,85.9,130.6z"/>
	<path class="st0" d="M93.5,149.1c0-0.3,0.1-0.7,0.3-1.1C93.5,147.3,93.3,147.2,93.5,149.1z"/>
	<path class="st0" d="M103.3,174.4c3.1,1.4,3.6-6.1,0-3.9C101.7,171.5,101.5,173.5,103.3,174.4z"/>
	<path class="st0" d="M91.4,178.3c2.1-3.2-4.6-3.9-6.5-2.9C80,177.9,91.2,178.5,91.4,178.3z"/>
	<path class="st0" d="M99,179.2c0.5,1.1,6.6,2,5.4-1C103.4,175.7,98.3,177.8,99,179.2z"/>
	<path class="st0" d="M84.8,181.2c-1.3,0.2-5.2,1.1-3.3,2.9C84.3,186.5,90.8,180.2,84.8,181.2z"/>
	<path class="st0" d="M1010.4,199.6c10.9,3.2,33.8,3.5,45.7,4.9c-6.8-3.1-18.5-2.8-31.5-4.9C1021.2,199.1,999.2,196.4,1010.4,199.6z
		"/>
	<path class="st0" d="M1074.6,207.4c-5.3-1.4-10.6-2.9-17.4-2.9C1059.2,208.2,1071,208.3,1074.6,207.4z"/>
	<path class="st0" d="M1093,211.3c-1.4-1.3-5.1-0.6-6.5-1.9C1085.8,212.1,1091.9,213.5,1093,211.3z"/>
	<path class="st0" d="M1140.9,210.3C1151.2,213.7,1149.1,207.2,1140.9,210.3L1140.9,210.3z"/>
	<path class="st0" d="M732,312.3C720,307.3,721.2,317.2,732,312.3L732,312.3z"/>
	<path class="st0" d="M485.1,320.1c27.3-0.1,49.9-0.1,71.8,0c23.9,0.1,54.3,0.7,75-1.9C586.1,316.9,535.1,314.4,485.1,320.1z"/>
	<path class="st0" d="M861.4,323c-1.4-0.3-5.5-4.6-7.6,0C862.7,323.3,870,325,861.4,323z"/>
	<path class="st0" d="M543.8,323c2.4,2.8,5.2,1,10.9,1.9C554.6,321.8,544.3,322.6,543.8,323z"/>
	<path class="st0" d="M477.5,326c-0.2,0.4-0.3,3.6,0,3.9C481.1,333.5,480,320.7,477.5,326z"/>
	<path class="st0" d="M689.6,335.7c-0.1,0-0.8-3.7-1.1-3.9c-0.6-0.5-5.2-1.6-6.5-1.9c-3.9-1.1-13.8-1.6-19.6-1.9
		c-1.2-0.1-15.7-0.5-16.3,0c-0.8,0.6,7.3,9.4,5.4,8.7c0.7,0.2,3.9-1.9,4.4-1.9c9.6-1.2,32.7,8.6,43.5,1.9
		C698.9,334.4,692.8,336.9,689.6,335.7z"/>
	<path class="st0" d="M516.6,330.8c-3.9-0.2-14.3-0.9-17.4,1c1-0.6,15.8,0.9,21.8,0C523.7,331.3,515.1,330.7,516.6,330.8z"/>
	<path class="st0" d="M456.8,333.7c11.9-0.2,22.1,0.4,29.4-1.9C476.2,332.2,463.6,330.4,456.8,333.7z"/>
	<path class="st0" d="M528.1,335.5c1.1-0.3,0.7,0.1,2.6,0.2C529.7,335.6,528.8,335.6,528.1,335.5c-0.2,0-0.4,0.1-0.6,0.2
		c-5.9,1.7,8.7,1.1,9.8,1C548,335.6,516.2,334.7,528.1,335.5z"/>
	<path class="st0" d="M866.8,345.4c-11.1-4.1-22.9-2.7-34.8-4.9C836.9,344.7,858.4,345,866.8,345.4z"/>
	<path class="st0" d="M414.4,355.1c2.5-2.3-2.9-9.1-4.4-5.8C410.4,348.5,411.9,357.3,414.4,355.1z"/>
	<path class="st0" d="M431.8,360.9c-0.6,2,1.3,5.6,3.3,3.9C436.3,363.7,432.8,357.5,431.8,360.9z"/>
	<path class="st0" d="M0,369.7c-0.1,0.3,2.5,5.6,4.4,3.9C5.7,372.4,0.7,366.8,0,369.7z"/>
	<path class="st0" d="M418.7,390.1c-3,2.7,1.6,5.4,3.3,3.9C423.5,392.6,421.5,387.6,418.7,390.1z"/>
	<path class="st0" d="M411.1,411.5c-0.2,0.5,5.3,7.9,5.4,7.8C420.7,415.6,412.7,407.9,411.1,411.5z"/>
	<path class="st0" d="M403.5,422.1C399.8,433.6,409.5,430.2,403.5,422.1L403.5,422.1z"/>
	<path class="st0" d="M370.9,448.4c-2,1.8-0.5,7.4,1.1,6.8C374.3,454.3,373.1,446.3,370.9,448.4z"/>
	<path class="st0" d="M206.6,450.3c-1.7,0.3-4.2,0.2-3.3,2.9C204.1,455.1,213.2,449.3,206.6,450.3z"/>
	<path class="st0" d="M1185.5,155.9c-1.9-0.2-5.1-3.6-6.5-3.9c-5.5-1.3-10.6-2-14.1-2.9c-16.6-4.5-34.2-5.5-50-8.7
		c-24.5-5-48.1-11.6-74-16.5c-26.3-5-55.1-7-87-11.7c-29.6-4.3-65.7-10.2-101.2-14.6c-40.2-5-89.5-4-127.2-10.7
		c-24.7-4.3,4.2-3.8,18.5-2.9c12.3,0.8,15.4,1.6,22.8,1c0.9-2.7-36-6.4-15.2-5.8c57.8,1.5,106.8,6.7,163.1,12.6
		c12.6,1.3,41.4,8.7,51.1,6.8c-17.8-4.8-37.8-5-58.7-7.8c-11.8-1.6-23.4-6.1-35.9-7.8c-2.2-0.3-5.1,1.2-7.6,1
		c-33-3.3-68.7-8.1-100.1-9.7c-15.3-0.8-24-2.1-33.7-3.9c-3.1-0.6-9.6,1.6-13,0c-3.1-1.4-3.1-4.6-5.4-4.9c-2.1-0.2-1.6,4.7-2.2,4.9
		c-4.5,1-2.6-5.6,0-4.9c1.6,0.5-3.9-2.5-6.5,0c-1.1,1.1,4,3.3,2.2,4.9c-2.2,1.9-9.3-1.4-13-1.9c-21.9-3-56.5-3.6-76.1-3.9
		c-15.2-0.2-46.9,1.8-72.9,1.9c-11.1,0-27.2,0.5-43.8,1c-0.1-0.2-0.2-0.5-0.4-0.7c-2.2-3.3-13,1.3-14,1.1
		c-3.4-0.8-12.2-5.4-13.6-7.1c-7-8.7,7.6-15.4,3-20.3c-3.4-3.7-9.9,1.1-7,0.5c-10.8,2.2-6-4.6-13-8.1c-2.9-1.4-9.7,2-15.7-0.8
		c-5.7-2.7-3.1-6.1-7.1-6.7c-3.4-0.5-7.6,5.2-12.4,5.4c-3.8,0.2-6-4.4-10.8-4.7c-0.9-0.1-3.9,4.3-7.5,3.9c-4.4-0.4-5.6-5.2-8.7-3.8
		c-6.5,2.9-0.5,6.4-2.6,9.7c-2.3,3.5-14.5,8.6-18.3,8.8c-5.7,0.4-4.8-3.1-7.6-0.9c-3.8,2.9,1.8,7-2,11.1c-5.2,5.5-7.4-2.4-11.3,3.5
		c-2.9,4.4,4.2,2.3,2.2,8.2c-0.8,2.4-3.5,3.5-5.6,4.8c-4.3,0.4-8.6,0.7-12.7,1.1c-25.9,2.2-50.5,8-70.7,9.7c-3,0.3-7-1.9-9.8-1
		c-3.1,1,0.3,2.8-3.3,2.9c-5.3,0.1-10.8-1.4-15.2-4.9c8.6,11.8-5.4,6.1-14.1,7.8c0.5-0.1-3,4.3-2.2,3.9c-6.6,3.2-17.5-3.4-20.7,4.9
		c-0.6,1.6,2,2.8,1.1,4.9c-0.6,1.3-3.7-1.1-3.3,1.9c0,0.2,1.9,0,2.8-0.1c0.1-0.2,0.2-0.2,0.5,0.1c0,0-0.2-0.1-0.5-0.1
		c-0.4,0.8,0.9,5.5,1.6,5.9c4.3,2,15.4-4.3,14.1,2.9c-0.5,3-17.4,0.5-20.7,5.8c-1.8,2.9,2.1,4.2,0,9.7c3.2-0.7,1.7-7.9,3.3-1
		c1,4.5,0.9,0.5-2.2,1.9c-0.5,0.2-1.3,2.5-1.8,4.8c-0.6-2.7-1.5-5.2-2.7-7.7c0.1,0,0.1-0.1,0.2,0c-0.1,0-0.1,0-0.2,0
		c-0.6-1.1-1.2-2.2-1.9-3.3c1.1,0.3,2,0.2,2.1-0.5c-0.1,0.3-2.6-1.8-4.9-3.2c-1.4-1.7-3-3.2-4.8-4.6c0.7-0.9,2.2-12.2-0.1-8.7
		c-0.1,0.1-2.4,4.2-2.4,6.7c-2.5-1.7-5.3-3.2-8.4-4.5c-0.1,0-0.2-0.1-0.3-0.1c-0.1-2.2-0.8-3.7-3.1-2.2c0.4-0.2,1.6,0.4,1.1,1
		c0.2-0.2,0,0-0.2,0.4c-14.9-5.3-29-4.8-39-0.4c-1.5-4.4-9.9-2.8-7.6,0c3.8,4.6-8.4-0.1-9.8,3.9c4.6,5.3,14.9-3.2,13.1-2.9
		c0.6-0.1,1.3,0,2,0.2c-0.9,0.5-1.8,0.9-2.6,1.4c-1.8,1.2-3.3,3.9-5.1,6.5c-1.5-0.5-3.1-0.6-4-0.4c-2.9,0.8-2.8,3.5-1,4.9
		c-0.5,0.3-1.1,0.5-1.7,0.6c-0.1,0-12.5-7.7-13-0.9c-0.1,1.9,1.1,2.8,2.7,3.4c0.6,1.3,1.3,2.2,2,1.6c0.3-0.3,0.5-0.6,0.7-1
		c1.9,0.4,3.9,0.7,4.9,1.6c0.5,0.5,1,1.1,1.4,1.8c-0.3,0.2-0.5,0.3-0.5,0.4c-1.1,2.4,0.2,2.7,1.6,2.2c0.4,1.1,0.6,2.3,0.8,3.6
		c-0.8-0.4-1.6-0.5-2.4,0c-3.7,2.2-0.4,3.8,2.1,4.8c-0.4,1.8-1,3.5-2.1,5.2c-0.5-0.2-1-0.3-1.1-0.3c-3.2-0.1-12.9,3-14.9,5.7
		c0.4,0.8,1.1,2.4,1.6,2.9c-0.1-0.8,8.2-5.6,11.1-5.7c-0.6,0-0.2,0.2,0.5,0.4c-4.4,3.2-12.9,7-14.6,11c0-0.4-4.5,2.6-5.5-0.7
		c0,0,3-2.8,2.2-2.9c-6.8-1.2-8.3,6.6-6.5,11.7c-0.9-7.9,5-1.6,7.6-2.9c0,0,0.9-3.7,1.1-3.9c0.7-0.7,1-1,1.1-1.2
		c-0.4,0.9-0.4,1.8,0.1,2.7c0.6,1.2,2.1,1.5,3.8,1.6c-0.2,2,0.9,4,0.5,2.7c-0.7-1.9,2.9-2.1,4.4-1.9c7.2,0.9,0.9,2.2-2.2,2.9
		c-0.7,0.2-8.9,7.4-8.7,7.8c3.5,5.8,12.5-4.7,11.3-5.8c1.5,0.4,7.2,2.9,9.6,4.2c0.6,0.9,1.2,1.7,2,2.3c0.2,0.2,0.5,0.3,0.7,0.4
		c0.5,0.9,0.4,1.2,0.6,0.2c1.5,0.4,3.3,0.3,5.4,0.5c-0.2,1.3-0.4,2.4-0.3,3.1c1.2-0.5,2.1-1,2.1-1.1c-1.4,2-2,2-2.1,1.1
		c-2.5,1.2-6.3,2.8-6.6,2.8c0.8,0-2.5-4.8-1.1-3.9c-2.3-1.4-5.4-0.6-7.6,1c0,0,6.7,1.6,6.5,2.9c-0.2,1.8-5,0.3-6.5,1
		c-3.2,1.5-4.6,7.4-8.7,4.9c1,0.6,3.5-4.6,1.8-4.9c-1.4,1-10.2,5.6-5.1,8.8c3,1.9,6.3-2.2,7.6-1c0.8,0.8,0.9,8,2.4,8.3
		c0.4-0.1,0.7-0.3,0.9-0.5c-0.3,0.4-0.6,0.5-0.9,0.5c-3.5,1.2-15,0.2-15.4-0.5c-3.4-5.9,13.5,1.3,12-3.9c-0.7-2.3-24.3,1.5-18.5-2.9
		c3.7-2.8-2.1-7.2-3.3-6.8c-0.4,0.1,0.2,4.3,0,4.9c0.5-1.2-5.6,4.5-5.4,4.9c0.7,2,12.2,2.9,4.4,2.9c-6.1,0,4.9,5.7,5.4,5.8
		c3,0.5,1.3-3.7,4.3-2.9c5.9,1.6-1.1,3.4-2.2,3.9c-4.6,2.2,0.3,5.8,2.2,4.9c-2.8,1.4-10.5-1.7-13,0c1.4,0.4,1.2,2.1,2.2,2.9
		c5.5,4.4-4.2,4-1.1,8.7c3,4.7,9.6-2.5,9.8,2.9c0.1,3.4-5.2,2.7-5.8,4.4c-2.9-1-5.9-1.8-8.4-1.9c-14.5-0.8-43.9,12.7-48.8,32.7
		c-1.3,5.2,4.3,8.4,3.4,13.5c-0.6,3.5-5.5,4.7-4.8,8.7c0.6,3.5,5.3,3.7,7.1,6.7c2.6,4.2,0.1,9.9,2.8,12c0.9,0.7,8.5,0.3,11.3,1.4
		c7,2.5,12.1,10.5,16.3,11.9c1.3,0.4,17.1,1.2,16.7,1.3c2.7-0.7,4.6-6.3,8-8c-0.6,2.3,0.3,4.5,4.2,2.8c4.7-2.1,6.8,4.8,2.2,8.7
		c-0.6,0.5-4.1-2.3-6.5-1.9c-3.6,0.5-9.7,5.9-12.1,8.4c0.4,0.2,0.3,0.6-1,1.3c-0.4,0.2,0.1-0.4,1-1.3c-1.2-0.5-7.1,0.8-5.3,3.2
		c3.6,4.9,6.6-2.5,8.7-1.9c5,2.2-8.6,7.3,0,5.8c7.6-1.3-5.1,2.7-4.4,9.7c0.2,2.3,5.1,2.6,5.4,2.9c0.5,0.6-3.3,4.6,1.1,2.9
		c2.9-1.1,0.3-9.5-1.6-8.3c-0.5,0.5-0.7,0.8-0.5,0.6c0.2-0.3,0.4-0.5,0.5-0.6c1.1-1.2,3.7-3.5,7.1-2.3c-2.5-0.9,2.6,7.1,2.2,4.9
		c1.1,6.4,8.7-9,10.9-8.7c7.5,0.9-4.3,4.4-4.4,8.7c0-0.8,3.4,1.1,3.3,1c0.6,0.6,0.8,1.1,0.9,1.6c-23.4-5-31.9,25.4-10.5,32.5
		c8.9,2.9,17.8-1.8,22.4-8.5c0.7-0.1,1.3-0.2,1.4-0.2c0.7-0.5,0.3-4.7,2.2-6.8c3.6-4,9.9-4.5,10.9-8.7c-2.7,7.7,3,20.8,12.3,14.2
		c-2,2.3-4.6,2.8-4,5.3c0.4,2,1.2,2.5,2.1,2.6c-1.2,3-1.9,5.9-0.5,8c0.2,0.4,2.8-0.3,3.3,0c2.9,2-0.3,3.4,3.3,0c-2,2.9-4,5.9-6,8.8
		c-1.5-1-3.5-1.8-6-2.3c-14.6-2.8-20.4,12.6-12.6,20.1c0.4,1.1,1.4,1.7,2.7,2c0.8,0.4,1.6,0.8,2.6,1.1c7.4,2.4,15-3.8,16.9-10.4
		c0.1,0.1,0.2,0.1,0.3,0.2c2.5,3.1-6.3,16.5,3.3,11.7c6.4-3.3-3-1.6-2.2-3.9c0.3-0.9,12-6.9,12-6.8c2.6-2.8-4.1,3.8-4.4-1
		c-0.1-2.8,3.9-0.5,5.3-1.8c0.7,1.1,1.4,2.3,1.9,3.5c-3,4.5-7,9.9-3.9,13.8c-0.7-0.8,2.6-1.3,2.2,0c-1.1,3.1-6,2.1-5.4,3.9
		c3.8,3.2,8.4-2.1,9.8-1c1.3,1.1-4.7,6.9,0,6.8c5.6-0.1,9.8-6.9,1.1-7.8c-5.4-0.5-5.2-8-3.3-8.7c0.5-0.2,0.9-0.2,1.3-0.1
		c-0.2,2.8-2.8,4.6-0.4,7.4c2.3,2.6,6.6,0.1,12.5,4.2c1.5,1.1,2.3,2.2,2.9,3.2c-0.5,1.2-0.2,2.8,2.1,3.7c0.1,0.1,0.3,0.2,0.4,0.3
		c3.4,1.7,6.7,1.8,9.5,1.6c2.7,0.2,5.8-0.1,6.5,1.1c1.1,1.8-6.1,5.4-1.1,6.8c0.7-3.3,2.5-5.4,3.6-7.8c0.2,0.2,0.3,0.3,0.4,0.6
		c0.5,0.8-4.1,9.2-5,14.7c-1.8-0.9-3.9-1.3-3.4-1.6c-3.3,1.8,0.6,3.9,3.3,4.4c0.4,1.5,1.6,2.2,4.2,1.4c3-0.9,3.5-10,6.8-14.9
		c0.5,0.1,1.2,0,2-0.6c2-1.3,3.1-2,3.8-2.2c0.2,0,0.5,0,0.7,0c0.6,0.8-5.3,7.4-1.2,8.1c-0.3-8.9,6.5-1,6.5-1c2.9-1.7,4-4.6,4.9-7.7
		c2.9-0.2,5.5-0.4,7.1-0.7c2-0.3,4.1-0.9,6.1-1.5c0.7,0.5,1.3,0.1,2-0.5c1-0.3,1.9-0.5,2.9-0.7c0.1,1.5,1.4,4.1,3.2,3.4
		c2.2-0.9,3.2-2.4,3.4-3.7c1.3,0.2,2.5,0.6,3.5,1.4c3.3,2.5-1.1,5.8,0.1,9.6c2.6,8.1,16,16.9,18.6,24.9c1.6,4.9,1.3,12.4,2.8,14.4
		c4.3,5.6,7.6,2.5,6.5-2c-0.6-2.2-6.2-5.5-8.8-11c-1.5-3.4-0.4-7.1-1.7-9.1c-1.7-2.6-5.2-1.7-6-3.8c-0.2-0.7,3.3-1.6,3.2-3.4
		c-0.2-6.4-8.6-18.6-6.7-22.1c4-7.6,11.4-1.8,18.9-2.6c10.3-1.1,12-9.6,26.5,0.8c0.5,0.4,13,21.4,13.6,9.5
		c0.2-4.7-21.6-11.9-4.4-6.7c-7.2-10.7-20.5-8.5-21.2-15.3c-0.4-3.3,8.9-6.7,11.8-9.3c14.4-13,10.1-21.6,7.1-33.5
		c1.7,0.6,3.2,1,3.5,1.5c0.8,1.1-0.5,8.4,2.2,9.7c-1.7-0.8,9.5-5.7,8.7-3.9c0.7-1.6-3.1-9.9-4.4-9.7c-3.3,0.5,1.9,6.3-4.4,5.8
		c3.4-6.4,2.9-16.2,9.8-16.5c0.7,0,3.5,1.6,2.2,1.9c2.6-0.7,6.3-4.5,7.6-3.9c6.1,3-2.4,7.2-1.1,8.7c0.4,0.5,7.1-0.4,7.6-1
		c1.2-1.5-4-5.2,1.1-8.7c1.4-1,5.5,1.2,6.5,1c1.6-0.3,2.8-2.6,4.4-2.9c31.8-6.7,76.2-6.3,106.6-12.6c-3.5-2.5-14.7,2.9-15.2-1
		c-0.6-4.2,11.5-0.1,15.2-2.9c-10.3-2.2-30.5,4.5-43.5,0c-0.9-0.3,0.7-2.9-1.1-2.9c0.7,0-1.7,2.8-2.2,2.9
		c-4.3,1.3-17.5,0.3-18.5-1.9c-0.4-1,16.6-1.5,19.6-1.9c9.1-1.2,44.9-8.7,50-7.8c0.1,0,1.4,2.9,1.1,2.9c9.4,0,21.9-3.9,28.3-5.8
		c-5.1-2.1-16.8,2.9-18.5,2.9c0.7,0-1.9-2.8-2.2-2.9c-1.6-0.5-6,3.3-5.4,0c0.9-5.4,15.1-2.7,19.6-2.9c5.8-0.2,13.9-1.3,18.5-1.9
		c-1.1,0.1-1.4-1.7,0-1.9c1.4-0.2,13-0.5,14.1,0c0.8,0.3-0.7,3.3,1.1,2.9c0,0,1.4-5,2-6.4c0,0.9,2.8,2.8,3.9,3.6
		c3.4-0.2,9.7-2.9,11.6-3c1.6-0.1,2.5,1.8,4.3,1.9c5.2,0.4,21.5-1.4,25-1.9c-1,0.1-4.9-0.1-4.4-1c1.5-2.5,9,1.3,7.6,1
		c-0.1,0,9.7,2.8,10.9,2.9c14.1,1.3,38.1-4.3,47.9-1c4.6,1.6,2.1,4.2,6.5,3.9c-0.9,0.1-0.6-3.4,0-3.9c-0.6,0.5,20.9,0.1,19.5-0.7
		c-0.4-0.1-0.8-0.2-1-0.2c0.6,0.1,0.9,0.2,1,0.2c2.4,0.7,6.9,2.6,7.7,2.7c1.5,0.2,5.9-1.9,7.6-1.9c2.8-0.1,5.5,1.6,8.7,1.9
		c13.9,1.3,30.3,0.1,42.4,1c8.3,0.6,7.2,2.2,7.6-1.9c0.5-4.8-8.1-1.6-12.3-1c1,0.9,1,1.3-1.8,0c0.4,0.2,1,0.1,1.8,0
		c-1.5-1.4-5-4.2-4-4.9c-0.7,0.5,8.9,0.8,12,1c16.2,1,38,2,50,3.9c6.8,1.1,21.5-0.2,27.2,1c-28.6-7.3-62-6.3-89.2-10.7
		c-0.7,3.2,10.4,2.1,2.2,2.9c0.1,0-14.1-2.8-14.1-3.9c-0.1-2,18.5-1.5,22.8-1c17,2.1,49.4,1.3,71.8,3.9c2.5,0.3,6.7,2,8.7,1.9
		c10.3-0.3,32.7-4,42.4,1c1.7,0.9-1,2.4,2.2,2.9c2.5,0.4,2.6-1.4,5.4-1.9c-0.2,0-1.4,2.1,0,1.9c36.8-4.2,98.3,14.2,131.6,11.7
		c-13-2.3,1.3-2.6,7.6-1.9c19.3,2.2,38.9,8.2,54.4,5.8c-9.3-4.7-53.8-6.9-27.2-9.7c-37.4-5.4-75.2-11.5-110.9-14.6
		c-3-0.3-30.3-4-28.3-5.8c3.4-3,24.5,2.3,31.5,2.9c18.3,1.7,36.3,3.6,51.1,1.9c-7.5-0.1-11.2-1.7-17.4-2.9
		c-10.8-2.1,10.5-0.3,15.2,0c16.3,1.1,35.3,0.9,52.2,2.9c8.6,1,21.7,4.9,29.4,1.9c-6-2.1-18.5-1.3-28.3-3.9c0.1,0,1.3-2.3,0-2.9
		c-2.8-1.3-10,0.9-10.9,1c-2.8,0.4-11.2-3.3-15.2-3.9c-0.2,0,0,2.2-1.1,1.9c-1.2-0.3-1.9-2.5-3.3-2.9c-6.1-1.7-14.6-2.3-22.8-2.9
		c-20.8-1.6-36.5-2.7-56.6-4.9c-0.6-0.1-22.7-1.4-20.7-5.8c1.7-3.6,19.4,3.5,19.6,1c-56.7-12.3-136.4-14.6-199-18.5
		c-41.8-2.6-79-4.2-114.2-4.9c-9.4-0.2-20.8-2.4-25-1c-0.9,0.3,0.8,3-1.1,2.9c-1-0.1-3.8-3.2-5.4-2.9c-1,0.1,1,3.3-2.2,2.9
		c-0.2,0,0.6-3.1,1.1-2.9c-3.1-1.4-31.9,2.9-40.2,1c0,0-1.3-3.5-2.2-2.9c1.6-1,10.4,0.3,16.3,0c147.4-6.4,267.7,8.3,388.3,16.5
		c48,3.3,98.2,13.9,133.8,11.7c-29.5-4.1-67.3-11.9-103.3-16.5c-19.6-2.5-45-2.5-64.2-4.9c-11.9-1.4-26-4.9-4.3-2.9
		c-0.2-4-8.3-1.4-12-1.9c-18.8-2.9,14.2-1.4,16.3-1c12.2,2.6,63.7,7.1,82.7,7.8c7.5,0.3,44.5,4.9,27.2,0c-9.7-2.7-16.1-2.2-26.1-3.9
		c-35.8-6.1-87.3-9.3-132.7-13.6c-11.1-1-20.6-3.8-28.3-3.9c-15-0.2-57.2-6.3-71.8-5.8c-2.4,0.1-4.7,2.5-6.5,1
		c-2.4-2,3.9-4.8,4.3-4.9c17.6-3.6,49.3,2.4,76.1,3.9c35.5,2,62.5-0.6,92.5,4.9c20.5,3.7,42.4,3.2,63.1,5.8
		c16.9,2.2,34.1,7.9,46.8,7.8c10.5-0.1,20.7,1.1,32.6,2.9c4.4,0.7,8.6,2.9,13.1,2.9c1.6,0,29.1-0.5,14.1-2.9
		c-10.5-1.7-19.3-2.1-28.3-3.9c-0.2,0,1.1-1.9,1.1-1.9c-8.9-2.4-41.8-7.3-59.8-9.7c-12.8-1.7-26.2-1.9-29.4-3.9
		c-2.2-1.4-0.2-4.2-2.2-4.9c-6.8-2.2-4.3,1.3-8.7,1c-0.5,0-15.4-3.9-14.1-5.8c1.3-1.9,17.5-1.1,19.6-1c14.5,1.1,20.6,3.5,38.1,3.9
		c19.5,0.4-18.2-5-23.9-5.8c-2.2-0.3-1.9-2.4-1.5-3.4c-2.5-0.2-9.3-2-7.2-3.4c1.3-0.9,4.6,0.6,8.7,1c45.2,3.8,91.8,10.3,137,19.4
		c8.2,1.7,23.8,8.6,37,5.8c-2.1-2.9-19.6-1.5-21.8-6.8c-0.3-0.7,1-3,1.1-2.9c-5.5-3-26.4-1.7-35.9-6.8c-2.1-1.1-0.5-3.3-2.2-3.9
		c-11.3-3.8-20.9-3.3-34.8-5.8c-3.6-0.6-37.1-7.4-29.4-6.8c16.1,1.3,39.6,5.4,53.3,3.9c-15-4.8-56.4-7.5-69.6-12.6
		c-11.1-4.3,4.6-1.6,6.5-3.9c-6-1.7-14.3-1.3-22.8-2.9c-5.5-1-17.3-3.6-7.6-4.9c8.2-1.1-0.6-2.3,3.3-3.9c2.1-0.9,16.8,1.3,21.8,1.9
		c47.4,6.3,101.9,19,144.7,21.4c-11.6-5.1-43.6-3.8-52.2-9.8c-0.4-0.2-0.7-0.5-1.1-0.9c0.3,0.3,0.7,0.6,1.1,0.9
		c3.2,1.8,5.2-4.5,5.4-3.8c-1-3.2-17.9-1.7-19.6-1.9c-2.8-0.4-4.2-3.3-6.5-3.9c-10.4-2.6-26.3-5.4-34.8-5.8c-1.8-0.1-5.1,1.3-6.5,1
		c-3.4-0.7-10-6.2-8.7-5.8c-6.3-1.8-10.9,1-17.4,1c-11-0.1-19.4-3.9-26.1-4.9c9.1,2.7-7.1,1.8-13.1,0c-0.4-0.1,1.2-1.9,1.1-1.9
		c-1.1-0.7-2.8,1.2-3.3,1c-2.3-1-3.2-2.5-7.6-3.9c-14.1-4.5,10.2-1.6,10.9-1.9c1-0.5-0.8-2.8,1.1-2.9c6.5-0.5,22.2,3.7,28.3,2.9
		c1.3-0.2,2.9-3.3,5.4-3.9c5.8-1.4,11.5,1.9,17.4,2.9c14.7,2.6,30.8,4.2,39.2,3.9c-5.4-1.9-15.4-0.1-19.6-2.9
		c-1.1-0.7,0.7-2.5-1.1-2.9c-5.6-1.3-7.6,1-15.2,0c-7.1-1-30-5.8-7.6-3.9c19.4,1.7,35.1,6.2,45.7,3.9c9.8-2.1,15.7-0.2,27.2,1.9
		c33.7,6.4,49.7,11.3,72.9,8.7c-7.6-4.1-27.2-3.3-32.6-9.7c0.3,0.4,2.7-0.7,2.2-1c-4.6-2.1-35.4-10-10.9-5.8
		c7.7,1.3,30.7,4.9,43.5,7.8c7.7,1.7,26.5-0.3,37,3.9c0-4.2,0-8.4,0-12.6C1189.4,153.9,1188.9,156.2,1185.5,155.9z M125.1,279.3
		C127,285.2,119.1,286.6,125.1,279.3L125.1,279.3z M143.6,313.3c-3.3-0.8-4.5,6.5-6.5,7.8C131.7,324.4,133.4,311.9,143.6,313.3z
		 M189,156.6c0.4-0.7,0.8-1.5,1.2-2.2C189.9,155.4,189.5,156.1,189,156.6z M130.5,324c11.9-8.8,3,12.2-2.2,7.8
		C127.8,331.3,129.3,324.9,130.5,324z M138.1,337.6c5.8-3.6,0.2,5.7-1.1,5.8C133.7,343.7,136.3,338.7,138.1,337.6z M137.8,375.5
		c0.3,0.8,0.5,1.6,0.4,2.5C137.1,377.3,136.8,376.4,137.8,375.5z M202.3,149.1c-0.6-0.1-2.3-9.6-2.2-9.7
		C204.2,135.3,208.5,149.8,202.3,149.1z M194.7,137.4c1.5-5.9,6.1,9.6,4.4,9.7C196,147.4,193.6,141.5,194.7,137.4z M193.6,144.2
		c0,0.1-0.2,0.1-0.5,0.1c0.1-0.7,0.2-1.3,0.2-2C193.7,142.8,193.8,143.4,193.6,144.2z M106.6,165.6c-0.7-2-0.7-3.1-0.3-3.8
		c1.2,0.9,2,2.5,2.7,4.2C107.6,165.3,106.3,164.8,106.6,165.6z M116.4,233.6c0.2-0.2,2.3-1.8,3.3-1
		C122.4,235.2,112.3,237.3,116.4,233.6z M112,246.3c2.7,2.1,2.1,3.9,0.4,5.3c-0.5-0.4-1-0.8-1.6-1.1
		C112,249.6,113.2,248.5,112,246.3z M106.6,243.4c-0.6,0.5-1,0.7-1.5,0.7c-0.4-1.6-0.4-3.2-0.6-4.5
		C105.7,239.9,107.2,242.8,106.6,243.4z M109.8,235.4c0.4-0.6,1.8-0.4,2.3-0.8C110.4,236.1,110,235.7,109.8,235.4
		c-0.2,0.2-0.2,0.6,0.1,1.1c0,0-0.4,0-0.8,0c-0.1,0.3-0.2,0.6-0.3,1c-1.7,5.3,7.7-1.6,7.6-1c-0.4,2.6-8.6,8.2-8.7,0
		c0,0.1,0.8,0,1.4,0C109.5,235.2,109.6,235.2,109.8,235.4z M108.8,193.8c-3.2,2.8-4.3-2.3-4.4-1.9
		C104.7,189.2,110,192.7,108.8,193.8z M104.4,213.2c4.7,5.5-3.1,8.2-7.6,8.7C97.5,217.5,105.1,219.1,104.4,213.2z M95.7,230.7
		c0.6,0.7,0.9,1.5,1,2.3c-1.1-0.4-2.2-0.9-3.3-1.3C93.9,230.5,94.7,229.6,95.7,230.7z M91.4,201.6c3.5-3.1,4.1,6.5-2.2,5.8
		C87.4,207.2,89.4,203.3,91.4,201.6z M82.7,212.3c3.3-4,0.2,1.8,0,1c1.3,4.5,10.7,0.8,6.5-1.9C99.9,218.4,75.8,220.4,82.7,212.3z
		 M89.2,223.9c1.7,1.3-0.3,3.7-2.1,5.7c0,0-0.1,0-0.1,0c-1.4-0.5-3-1.1-4.7-1.7C85.5,226.7,89.5,224.1,89.2,223.9z M90.3,326.9
		c-0.9-0.3-5.9-8.6-5.4-9.7c-0.5,1.1,5.6,0.9,5.4,1c4.9-3.1,0.6-6.4,1.1-7.8c0.6-1.4,4.4-4.8,5.4-5.8c5.1-5.3-5.1,8.8,0,4.9
		c2.1-1.6,3.1-13.9,7.6-7.8c1.3,1.8-1.9,4.1-2.9,5.3c1.3-0.1,6,4.3,2.9,5.4c0.3-0.1-3.2-1.4-3.3-1c-1.6,8.4,10.1-1.2,5.4-1.9
		c6.6,1.1,1,5.4-2.2,5.8C97.9,316.2,102.4,331.3,90.3,326.9z M104.4,326.9c-1.8-1.6,4.4-4.4,4.4-7.8
		C112.5,322.6,106.2,325.3,104.4,326.9z M118.6,338.6c0.1,0,0.7,8.9-4.4,10.7c-0.9,0.3-3.5-4-5.4,0c0,5,5.2,0.5,5.4,1
		c1.2,2-2.5,5.8-3.3,5.8c-1.3,0.1-2.1-0.3-2.6-0.8c-0.1-1.1-0.3-2.1-0.7-3.1c0.5-4,4.2-9.6,4.4-9.7c3.1-1.1,1.5,3.5,4.4,0
		c-4.2,0.1-3.8-7.9-3.3-7.8c-2.1-0.4-6.7,7.3-7.6,8.7c-0.6,0.9-1.1,2.2-1.4,3.6c-1.5-1.4-3.6-2.6-6.1-3.5c-0.1-1.4-0.3-3.3,1-4.9
		c2.5-3.1,8.7-10,9.8-10.7c1.2-0.8,2.1,1,2.2,1.7c1.2-1.1,8.6-5.2,9.7-3.6c-0.2-0.3-5.3,4.5-5.4,5.8c-0.6,8.2,5.7-1.2,8.7,3.9
		c2.8,4.7,4.3,1.2,7.6,3.9c1,0.8,2.1,6.9,2.2,5.8c-0.7,7-4.5-1.4-4.4-2C129.1,343.5,120.5,337.9,118.6,338.6z M122.9,354.1
		c-1.3-1.2,0.8-3.7,1.1-3.9C133.2,342.9,128.2,358.8,122.9,354.1z M127.3,361.9c0.1-0.9,4-0.8,6.2-1c0,0.6-0.1,1.1-0.3,1.6
		c-0.3,0.7-0.6,1.2-1,1.7C130.5,364.6,127.2,363.1,127.3,361.9z M141.4,394.9c-0.3-0.2-0.2-1.2,0-2.5c0.6,0.2,1.2,0.4,1.8,0.8
		c0.5,0.3,1,0.6,1.5,1.1C143.7,395.2,142.6,395.6,141.4,394.9z M145.7,395.9c0-0.2,0.1-0.3,0.1-0.5c0.4,0.4,0.7,0.9,1.1,1.3
		C146.3,396.5,145.8,396.2,145.7,395.9z M302.4,360.9c-2.3,0.2-4.1-2.4-3.3-3.9C301.6,352.7,308.8,360.3,302.4,360.9z M835.3,273.5
		c2.6,0.2,6.6-2,6.5,1c0-0.4-1.8,1.7-1.1,1.9c4.5,1.4-0.3-3.3,3.3-2.9c5.2,0.6-0.1,2.6,1.1,2.9c3.5,1,26.7-4.1,26.1,1.9
		c-0.4,4.6-39.5-1-40.2-4.9C825.9,272,831.3,273.2,835.3,273.5z M813.5,272.5c-3.6-1-8.9-0.5-12-1.9
		C802.2,269.6,812.2,268.8,813.5,272.5z M689.6,302.6c-2.3,1.5-12.4-1.4-14.1-2.9C679,298.1,692.1,300.9,689.6,302.6z M668.9,299.7
		c1.8-3.8,7,1.9,3.3,2.9C672.9,302.4,668.2,301.2,668.9,299.7z M664.5,302.6c-1.3,0.5-5.1-4.3-5.4-3.9
		C662.4,295.4,671.4,300.3,664.5,302.6z M653.6,297.8c0.3-0.1,3.6-1.6,4.4,0C660.1,301.7,648,300.8,653.6,297.8z M625.4,82.1
		c-30.7,2.3-75.6-1.5-107.7,1c36.9-2.9,69.5-4.7,107.7-1.9C631.6,81.5,631.6,81.6,625.4,82.1z M642.8,82.1c0.5-2.2,5.4-0.4,7.6-1
		C649.8,84.4,645.2,82.6,642.8,82.1z M662.4,83c-19.7-0.3,0.7-3.9,10.9-1C671.5,83.7,666.7,83.1,662.4,83z M676.5,83
		c9.2-2.7,15.9-0.7,25,0C697.4,85.4,683.5,84,676.5,83z M712.4,84c2,3.3-5.9,1.6-5.4,0C707.5,82.1,711.8,83,712.4,84z M707,231.7
		c2.1-1.8,10.8-1.3,13,0C716.4,234.4,711.8,232.6,707,231.7z M821.2,219.1c3.7,0.4,7.3,1.1,9.8,1.9
		C821.8,223.6,802.9,217.2,821.2,219.1z M850.5,223.9c2-3.2,12.5,0.5,17.4,1C864,226.8,855.5,224.4,850.5,223.9z M985.4,197.7
		C980.5,201.4,970.5,196.2,985.4,197.7L985.4,197.7z M987.6,181.2c12.5,1.5,26,3.2,37,4.9c12,1.8,23.7,5.7,33.7,6.8
		c0.2,0.8-0.4,0.9-1.1,1c-29.7-3.2-60-9.6-94.6-12.6C968.8,177.6,979.1,180.2,987.6,181.2z M961.4,188.9c0.2,1.6-6.9,1.5-7.6,0
		C953.3,187.7,961.4,188.7,961.4,188.9z M948.4,192.8c8.6-1.9,12.5-0.2,22.8,1c8.3,0.9,2,3-4.4,2.9c-7.3-0.1-12.9-0.6-20.7-1.9
		C942.5,194.1,942,194.2,948.4,192.8z M1073.5,154c-0.4-0.6,7.6-0.2,7.6,0C1081.4,155.6,1074.6,155.8,1073.5,154z M1082.2,154
		c4,2.9,13.5,0.9,17.4,3.9C1097.4,159.9,1082.2,157.7,1082.2,154z M1167,161.7c6.2-0.2,20.1-0.4,22.8,6.8
		C1183.5,165.1,1174.3,164.3,1167,161.7z M1071.3,185c20.7,12.1,38.2-14.1,20.1-27.6c-7.6-5.6-17.4-3.9-23.9,1.1
		c-0.7-0.2-1.2-0.2-1.4-0.2c-0.8,0.2-1.8,4.4-4.2,5.8c-4.7,2.7-10.9,1.1-13.1,4.9c5-6.4,3.7-20.7-7.2-17.3c2.6-1.5,5.2-1.2,5.5-3.8
		c0.2-2-0.3-2.8-1.2-3.1c2.1-2.4,3.6-5,3-7.5c-0.1-0.4-2.8-0.6-3.1-1c-2.1-2.8,1.3-3.1-3.1-1c2.8-2.2,5.6-4.3,8.4-6.5
		c1.1,1.5,2.8,2.8,5,4.1c12.9,7.3,23.3-5.5,18.2-15.2c-0.1-1.2-0.8-2.1-1.9-2.7c-0.6-0.6-1.3-1.3-2.1-1.8
		c-6.3-4.6-15.4-1.1-19.3,4.6c-0.1-0.1-0.2-0.2-0.2-0.2c-1.4-3.7,11.2-13.7,0.6-12.1c-7.1,1.1,2.4,2.5,0.8,4.4
		c-0.6,0.7-13.6,2.8-13.5,2.7c-3.3,1.9,5.1-2.3,3.8,2.3c-0.7,2.7-3.9-0.8-5.6,0.1c-0.3-1.3-0.6-2.6-0.7-4c4.2-3.3,9.8-7.2,8.1-11.9
		c0.4,1-2.9,0.4-2.1-0.7c2-2.6,6.3-0.1,6.4-2c-2.6-4.2-8.7-0.6-9.6-2.1c-0.9-1.4,6.6-5,2.1-6.5c-5.3-1.7-11.5,3.5-3.5,7
		c5,2.2,2.4,9.3,0.4,9.3c-0.6,0-1-0.1-1.3-0.3c1.1-2.6,4.1-3.5,2.7-6.9c-1.3-3.2-6.3-2.2-10.5-7.9c-1.1-1.5-1.5-2.8-1.8-4
		c0.8-0.9,1-2.6-0.9-4.2c-0.1-0.1-0.2-0.3-0.3-0.4c-2.7-2.6-5.8-3.8-8.5-4.5c-2.5-1-5.6-1.7-5.9-3.1c-0.5-2,7.5-3.2,3.2-6.1
		c-1.7,3-4.1,4.3-5.8,6.3c-0.1-0.2-0.2-0.4-0.2-0.7c-0.2-0.9,6.8-7.5,9.3-12.3c1.4,1.4,3.3,2.5,2.7,2.6c3.7-0.6,0.6-3.9-1.8-5.2
		c0.1-1.5-0.8-2.6-3.5-2.6c-3.2-0.1-6.4,8.4-11.1,12c-0.5-0.3-1.1-0.3-2.1-0.1c-2.3,0.6-3.6,0.9-4.3,0.9c-0.2-0.1-0.4-0.1-0.7-0.2
		c-0.4-0.9,7.4-5.3,3.7-7.3c-2.6,8.6-6.5-1.1-6.5-1.1c-3.3,0.7-5.3,3.1-7,5.8c-2.8-0.7-5.4-1.3-7-1.6c-2-0.3-4.1-0.4-6.3-0.5
		c-0.5-0.6-1.2-0.5-2-0.1c-1-0.1-2-0.1-3-0.2c0.3-1.4-0.1-4.3-1.9-4.2c-2.4,0.2-3.7,1.3-4.3,2.4c-1.1-0.6-2.2-1.4-2.9-2.5
		c-2.3-3.4,2.9-5.1,2.9-9.2c0.1-8.5-9.8-21.1-9.9-29.5c0-5.1,2.7-12.2,1.8-14.6c-2.4-6.7-6.4-4.7-6.8-0.1c-0.1,2.3,4.2,7.2,4.9,13.2
		c0.4,3.7-1.9,6.9-1.2,9.2c0.8,3,4.4,3.2,4.5,5.5c0,0.7-3.6,0.5-4.1,2.2c-1.8,6.2,2.3,20.4-0.6,23.1c-6.2,5.9-11.4-1.9-18.7-3.5
		c-10.1-2.2-14.4,5.3-24.9-9c-0.4-0.5-5.7-24.4-9.9-13.3c-1.7,4.4,16.8,18.1,2.1,7.8c3.5,12.4,16.8,14.5,15.4,21.2
		c-0.7,3.3-10.6,3.5-14.1,5.1c-17.7,7.8-16.4,17.4-17.3,29.6c-1.4-1.1-2.7-2-2.8-2.5c-0.4-1.3,3.1-7.8,1-9.9c1.4,1.3-10.8,2.4-9.5,1
		c-1.1,1.3-0.1,10.4,1.1,10.6c3.3,0.5,0.2-6.6,6-4.2c-5.3,5-7.8,14.5-14.5,12.6c-0.7-0.2-2.8-2.6-1.5-2.5c-2.7-0.2-7.4,2.3-8.4,1.3
		c-4.8-4.8,4.6-6.1,3.8-8c-0.2-0.6-6.9-1.9-7.5-1.5c-1.6,1.1,2.2,6.2-3.8,8c-1.6,0.5-4.8-2.8-5.9-3c-1.6-0.3-3.5,1.6-5,1.4
		c-32.3-3.7-74.3-17.9-105.2-21.4 M1039.5,139.4c-0.1-0.9,0.1-1.7,0.4-2.5C1040.7,137.9,1040.8,138.8,1039.5,139.4z M1033.9,169.2
		c2.8-6.4,3.8,2.8,3.6,3.3 M1046.2,180.4c-0.1,0,2.1-8.7,7.5-8.8c1,0,2,4.9,5.2,1.7c1.6-4.7-4.7-2.1-4.9-2.6
		c-0.5-2.3,4.2-4.7,4.9-4.5c1.2,0.3,1.9,0.9,2.2,1.6c-0.2,1-0.3,2.1-0.3,3.2c-1.8,3.6-7,7.8-7.2,7.8 M1047,164.3
		c0.9,1.6-2,3.2-2.3,3.3C1033.7,171.8,1043.5,158.2,1047,164.3z M1045.3,155.6c-0.3,0.8-4-0.5-6.2-1c0.2-0.5,0.5-1,0.8-1.4
		c0.5-0.5,1-0.9,1.5-1.3C1043,152,1045.7,154.5,1045.3,155.6z M1042.2,119.8c0.2,0.3-0.2,1.2-0.8,2.3c-0.5-0.3-1-0.8-1.4-1.3
		c-0.4-0.4-0.7-0.9-1.1-1.5C1040.1,118.8,1041.3,118.7,1042.2,119.8z M1038.4,117.5c0,0.2-0.2,0.3-0.2,0.4c-0.2-0.5-0.4-1-0.6-1.6
		C1038,116.8,1038.5,117.2,1038.4,117.5z M878.7,101.6c2.2,0.5,3.2,3.5,1.9,4.7C876.9,109.6,872.3,100.2,878.7,101.6z"/>
	<path class="st0" d="M954.9,219.1c-0.1,0-0.2,0.2-0.4,0.5C955.4,219.6,955.8,219.5,954.9,219.1z"/>
	<path class="st0" d="M514.4,312.3c2.1,0.8,2.2,0.7,1.5,0.1C515.3,312.5,514.8,312.5,514.4,312.3z"/>
	<path class="st0" d="M96.8,181.2c0.3-0.1,0.5-0.1,0.7,0C97.9,180.9,97.8,180.9,96.8,181.2z"/>
	<path class="st0" d="M110.9,329.8c0.1,0,0.1-0.1,0-0.3C110.8,329.7,110.7,329.9,110.9,329.8z"/>
	<path class="st0" d="M101.2,307.5c0-0.1,0.1-0.3,0.3-0.6C101.2,306.9,101.1,307.1,101.2,307.5z"/>
	<path class="st0" d="M77.2,123.8c1-0.4-1-4-1.1-3.9c0.1-0.4,0.3-0.6,0.4-0.9c-0.5,0.6-1.3,1.4-2.5,1.9c-1.2-5.2,2.6-3,2.2-5.8
		c-0.3-2.1-3.3,0.2-3.3-3.9c0-0.2,4.3,0.2,4.4,0c2.5-6.3-11.3-1.8-8.7,6.8C69.4,121.1,76.8,124,77.2,123.8z"/>
	<path class="st0" d="M76.5,119.1C77.1,118.3,77,117.8,76.5,119.1L76.5,119.1z"/>
	<path class="st0" d="M100.8,141.9c5.9,1.1,7.2-7.9,3.6-10.3c-2.5-1.6-4.2,4.5-4.4,8c1.5-1.4,4-3.3,4.4-4.1
		C102.6,140,101.5,141.8,100.8,141.9z"/>
	<path class="st0" d="M99,141.3c0.5,0.3,1.1,0.4,1.5,0.5c-0.4-0.2-0.5-1.1-0.5-2.2C99.2,140.5,98.6,141.1,99,141.3z"/>
	<path class="st0" d="M1150.7,227.8C1169.5,232.9,1154.6,223.9,1150.7,227.8L1150.7,227.8z"/>
	<path class="st0" d="M953.8,234.6c3.6,0.7,7,1.6,10.9,1.9C964,234.2,952.4,232.6,953.8,234.6z"/>
	<path class="st0" d="M752.6,314.3c4.9,0.5,14.1,2.3,17.4,1C767.4,315.1,758.2,311.4,752.6,314.3z"/>
	<path class="st0" d="M99,321.1c3.1-8.8-10.2-2.2-5.4,1.9c1.1,0.9,1.4-0.6,4.4-1.9C98,321,98.4,322.6,99,321.1z"/>
	<path class="st0" d="M233.6,11c-2.6,0.5-7,4.4-5.4,4.9C229.2,16.2,236.3,10.6,233.6,11z"/>
	<path class="st0" d="M177.7,37c20.8,4.7,37.7-29.9,10.4-36.3C160-5.8,151.3,31.1,177.7,37z"/>
	<path class="st0" d="M443,379.8c-1.3,1.2,10.4,13.6,11.9,7.6C455.5,385,444.5,378.4,443,379.8z"/>
	<path class="st0" d="M228.8,19.8c-1.4,0.3-8.8,0.6-7.5,3.9C222.1,25.7,234.7,18.5,228.8,19.8z"/>
</g>
</svg>
