<?xml version="1.0" encoding="utf-8"?>
<!-- Generator: Adobe Illustrator 25.4.1, SVG Export Plug-In . SVG Version: 6.00 Build 0)  -->
<svg version="1.1" id="Layer_1" xmlns="http://www.w3.org/2000/svg" xmlns:xlink="http://www.w3.org/1999/xlink" x="0px" y="0px"
	 viewBox="0 0 1376.3 727.5" style="enable-background:new 0 0 1376.3 727.5;" xml:space="preserve">
<style type="text/css">
	.st0{fill:#C92128;}
	.st1{fill:#050000;stroke:#FF0000;stroke-width:6;stroke-miterlimit:10;}
	.st2{fill:#FFFFFF;}
	.st3{clip-path:url(#SVGID_00000016782175207741560100000004641295720105980299_);fill:#FF0606;}
</style>
<g>
	<path class="st0" d="M200.6,384.1c3-1.1-0.5-9.4-3.3-4.9C195.7,382,198.3,384.9,200.6,384.1z"/>
	<path class="st0" d="M169.1,406.4c6,1.5-3.9-5.2-3.3-5.8c-2.6,2.5-2,3.7,0,5.8C166.1,406.7,168.6,406.3,169.1,406.4z"/>
	<path class="st0" d="M185.4,407.4c-1-2-7.2-1.2-7.6-1C169.8,410.7,189.5,415.5,185.4,407.4z"/>
	<path class="st0" d="M411.6,410.3c2.5-2.2-3.1-6.3-4.4-2.9C406.7,408.6,409.4,412.2,411.6,410.3z"/>
	<path class="st0" d="M272.4,422.9c0.9,5.2,24.3,5.5,22.8-3.9c0.1,0.4-4.9-5.1-4.4-4.9c-2.2-0.8-4,0.5-6.5,1
		c-5.3,0.9-2.8,2.7-5.4,4.9C275.4,422.8,271.8,419.5,272.4,422.9z"/>
	<path class="st0" d="M178.9,422.9c-0.5-1.4-2.7-0.3-3.3,0C169.7,426.3,180,426,178.9,422.9z"/>
	<path class="st0" d="M245.2,423.9c-1.4,2.9,3.8,3.6,4.4,1.9C250.2,424,246.6,421.1,245.2,423.9z"/>
	<path class="st0" d="M158.2,448.2c-1.2,0.3-3.6,0.6-3.3,1.9C156.5,456.5,168.6,445.8,158.2,448.2z"/>
	<path class="st0" d="M171.3,451.1c2.1,1.8,14-2.7,7.6-2.9C175.2,448.1,168.6,448.7,171.3,451.1z"/>
	<path class="st0" d="M5.9,451.1c-0.2,0.2-2.9,4.7,0,4.9C7.7,456,9,447.8,5.9,451.1z"/>
	<path class="st0" d="M144.1,456.9c2.1-1.9-4.4-5.8-6.5-3.9C136.1,454.4,143.5,457.5,144.1,456.9z"/>
	<path class="st0" d="M112.5,462.8c-0.4,2.2-7.5-2.2-7.6-2.9c-0.4-4.4-5.1-3-2.2,0c5,5.1-6.6-0.1-5.4,5.8
		C101.5,463.9,111.4,468.7,112.5,462.8z"/>
	<path class="st0" d="M138.6,457.9c-2.5-5.4-3.8,5.6-3.4,5.9c-1.1,0.7-10.1,3.8-6.4,6.7C132.9,467.6,141.4,463.8,138.6,457.9z"/>
	<path class="st0" d="M228.9,459.9c-2.6,2.3,2.2,2.9,3.3,1.9S231.1,457.9,228.9,459.9z"/>
	<path class="st0" d="M87.5,480.3c8.4,0.5,8.3-28.9-2.2-19.4C81.8,464.1,85.8,480.1,87.5,480.3z"/>
	<path class="st0" d="M106,472.5c-0.3,1.5,4.2,5,5.4,3.9C113.5,474.5,106.7,469.5,106,472.5z"/>
	<path class="st0" d="M131,473.5c-0.6,0.1-5.1,0.3-3.3,1.9C130.1,477.5,138.9,472.1,131,473.5z"/>
	<path class="st0" d="M0.5,479.3c-1.2,2.9,0.1,6,0,5.8C3.7,488.6,3,473.1,0.5,479.3z"/>
	<path class="st0" d="M141.9,487.1c5.4-1.9-4.6-9.7-6.5-5.8C135.6,480.9,140.5,487.5,141.9,487.1z"/>
	<path class="st0" d="M131,484.1c-7.3,3.2,7.6,2.3,6.5,0C136.6,482,131.5,483.9,131,484.1z"/>
	<path class="st0" d="M138.6,502.6c0-0.3,0.1-0.7,0.3-1.1C138.6,500.8,138.4,500.7,138.6,502.6z"/>
	<path class="st0" d="M148.4,527.9c3.1,1.4,3.6-6.1,0-3.9C146.8,525,146.6,527,148.4,527.9z"/>
	<path class="st0" d="M136.5,531.8c2.1-3.2-4.6-3.9-6.5-2.9C125.1,531.4,136.3,532,136.5,531.8z"/>
	<path class="st0" d="M144.1,532.7c0.5,1.1,6.6,2,5.4-1C148.5,529.2,143.4,531.3,144.1,532.7z"/>
	<path class="st0" d="M129.9,534.7c-1.3,0.2-5.2,1.1-3.3,2.9C129.4,540,135.9,533.7,129.9,534.7z"/>
	<path class="st0" d="M1205.5,553.1c10.9,3.2,33.8,3.5,45.7,4.9c-6.8-3.1-18.5-2.8-31.5-4.9C1216.3,552.6,1194.3,549.9,1205.5,553.1
		z"/>
	<path class="st0" d="M1269.7,560.9c-5.3-1.4-10.6-2.9-17.4-2.9C1254.3,561.7,1266.1,561.8,1269.7,560.9z"/>
	<path class="st0" d="M1288.1,564.8c-1.4-1.3-5.1-0.6-6.5-1.9C1280.9,565.6,1287,567,1288.1,564.8z"/>
	<path class="st0" d="M1336,563.8C1346.3,567.2,1344.2,560.7,1336,563.8L1336,563.8z"/>
	<path class="st0" d="M877.1,665.8C865.1,660.8,866.3,670.7,877.1,665.8L877.1,665.8z"/>
	<path class="st0" d="M630.2,673.6c27.3-0.1,49.9-0.1,71.8,0c23.9,0.1,54.3,0.7,75-1.9C731.2,670.4,680.2,667.9,630.2,673.6z"/>
	<path class="st0" d="M1056.5,676.5c-1.4-0.3-5.5-4.6-7.6,0C1057.8,676.8,1065.1,678.5,1056.5,676.5z"/>
	<path class="st0" d="M688.9,676.5c2.4,2.8,5.2,1,10.9,1.9C699.7,675.3,689.4,676.1,688.9,676.5z"/>
	<path class="st0" d="M622.6,679.5c-0.2,0.4-0.3,3.6,0,3.9C626.2,687,625.1,674.2,622.6,679.5z"/>
	<path class="st0" d="M834.7,689.2c-0.1,0-0.8-3.7-1.1-3.9c-0.6-0.5-5.2-1.6-6.5-1.9c-3.9-1.1-13.8-1.6-19.6-1.9
		c-1.2-0.1-15.7-0.5-16.3,0c-0.8,0.6,7.3,9.4,5.4,8.7c0.7,0.2,3.9-1.9,4.4-1.9c9.6-1.2,32.7,8.6,43.5,1.9
		C844,687.9,837.9,690.4,834.7,689.2z"/>
	<path class="st0" d="M661.7,684.3c-3.9-0.2-14.3-0.9-17.4,1c1-0.6,15.8,0.9,21.8,0C668.8,684.8,660.2,684.2,661.7,684.3z"/>
	<path class="st0" d="M601.9,687.2c11.9-0.2,22.1,0.4,29.4-1.9C621.3,685.7,608.7,683.9,601.9,687.2z"/>
	<path class="st0" d="M673.2,689c1.1-0.3,0.7,0.1,2.6,0.2C674.8,689.1,673.9,689.1,673.2,689c-0.2,0-0.4,0.1-0.6,0.2
		c-5.9,1.7,8.7,1.1,9.8,1C693.1,689.1,661.3,688.2,673.2,689z"/>
	<path class="st0" d="M1061.9,698.9c-11.1-4.1-72.9-2.7-84.8-4.9C982,698.2,1053.5,698.5,1061.9,698.9z"/>
	<path class="st0" d="M45.1,723.2c-0.1,0.3,2.5,5.6,4.4,3.9C50.8,725.9,45.8,720.3,45.1,723.2z"/>
	<path class="st0" d="M178.4,638c177.3-57.7,494.6-10.1,499.1-10.3c5.8-0.2-52.1,12.1-47.5,11.5c-1.1,0.1-1.4-1.7,0-1.9
		s13-0.5,14.1,0c0.8,0.3-0.7,3.3,1.1,2.9c0,0,1.4-5,2-6.4c0,0.9,2.8,2.8,3.9,3.6c3.4-0.2,9.7-2.9,11.6-3c1.6-0.1,2.5,1.8,4.3,1.9
		c5.2,0.4,21.5-1.4,25-1.9c-1,0.1-4.9-0.1-4.4-1c1.5-2.5,9,1.3,7.6,1c-0.1,0,9.7,2.8,10.9,2.9c14.1,1.3,38.1-4.3,47.9-1
		c4.6,1.6,2.1,4.2,6.5,3.9c-0.9,0.1-0.6-3.4,0-3.9c-0.6,0.5,20.9,0.1,19.5-0.7c-0.4-0.1-0.8-0.2-1-0.2c0.6,0.1,0.9,0.2,1,0.2
		c2.4,0.7,6.9,2.6,7.7,2.7c1.5,0.2,5.9-1.9,7.6-1.9c2.8-0.1,5.5,1.6,8.7,1.9c13.9,1.3,30.3,0.1,42.4,1c8.3,0.6,7.2,2.2,7.6-1.9
		c0.5-4.8-8.1-1.6-12.3-1c1,0.9,1,1.3-1.8,0c0.4,0.2,1,0.1,1.8,0c-1.5-1.4-5-4.2-4-4.9c-0.7,0.5,8.9,0.8,12,1c16.2,1,38,2,50,3.9
		c6.8,1.1,21.5-0.2,27.2,1c-28.6-7.3-62-6.3-89.2-10.7c-0.7,3.2,10.4,2.1,2.2,2.9c0.1,0-14.1-2.8-14.1-3.9c-0.1-2,18.5-1.5,22.8-1
		c17,2.1,49.4,1.3,71.8,3.9c2.5,0.3,6.7,2,8.7,1.9c10.3-0.3,32.7-4,42.4,1c1.7,0.9-1,2.4,2.2,2.9c2.5,0.4,2.6-1.4,5.4-1.9
		c-0.2,0-1.4,2.1,0,1.9c36.8-4.2,148.3,14.2,181.6,11.7c-13-2.3,1.3-2.6,7.6-1.9c19.3,2.2,38.9,8.2,54.4,5.8
		c-9.3-4.7-53.8-6.9-27.2-9.7c-37.4-5.4-75.2-11.5-110.9-14.6c-3-0.3-30.3-4-28.3-5.8c3.4-3,24.5,2.3,31.5,2.9
		c18.3,1.7,36.3,3.6,51.1,1.9c-7.5-0.1-11.2-1.7-17.4-2.9c-10.8-2.1,10.5-0.3,15.2,0c16.3,1.1,35.3,0.9,52.2,2.9
		c8.6,1,21.7,4.9,29.4,1.9c-6-2.1-18.5-1.3-28.3-3.9c0.1,0,1.3-2.3,0-2.9c-2.8-1.3-10,0.9-10.9,1c-2.8,0.4-11.2-3.3-15.2-3.9
		c-0.2,0,0,2.2-1.1,1.9c-1.2-0.3-1.9-2.5-3.3-2.9c-6.1-1.7-14.6-2.3-22.8-2.9c-20.8-1.6-36.5-2.7-56.6-4.9
		c-0.6-0.1-22.7-1.4-20.7-5.8c1.7-3.6,19.4,3.5,19.6,1c-56.7-12.3-186.4-14.6-249-18.5c-41.8-2.6-79-4.2-114.2-4.9
		c-9.4-0.2-20.8-2.4-25-1c-0.9,0.3,0.8,3-1.1,2.9c-1-0.1-3.8-3.2-5.4-2.9c-1,0.1,1,3.3-2.2,2.9c-0.2,0,0.6-3.1,1.1-2.9
		c-3.1-1.4-31.9,2.9-40.2,1c0,0-1.3-3.5-2.2-2.9c1.6-1,10.4,0.3,16.3,0c147.4-6.4,317.7,8.3,438.3,16.5c48,3.3,98.2,13.9,133.8,11.7
		c-29.5-4.1-67.3-11.9-103.3-16.5c-19.6-2.5-45-2.5-64.2-4.9c-11.9-1.4-26-4.9-4.3-2.9c-0.2-4-8.3-1.4-12-1.9
		c-18.8-2.9,14.2-1.4,16.3-1c12.2,2.6,63.7,7.1,82.7,7.8c7.5,0.3,44.5,4.9,27.2,0c-9.7-2.7-16.1-2.2-26.1-3.9
		c-35.8-6.1-137.3-9.3-182.7-13.6c-11.1-1-20.6-3.8-28.3-3.9c-15-0.2-57.2-6.3-71.8-5.8c-2.4,0.1-4.7,2.5-6.5,1
		c-2.4-2,3.9-4.8,4.3-4.9c17.6-3.6,49.3,2.4,76.1,3.9c35.5,2,112.5-0.6,142.5,4.9c20.5,3.7,42.4,3.2,63.1,5.8
		c16.9,2.2,34.1,7.9,46.8,7.8c10.5-0.1,20.7,1.1,32.6,2.9c4.4,0.7,8.6,2.9,13.1,2.9c1.6,0,29.1-0.5,14.1-2.9
		c-10.5-1.7-19.3-2.1-28.3-3.9c-0.2,0,1.1-1.9,1.1-1.9c-8.9-2.4-41.8-7.3-59.8-9.7c-12.8-1.7-26.2-1.9-29.4-3.9
		c-2.2-1.4-0.2-4.2-2.2-4.9c-6.8-2.2-4.3,1.3-8.7,1c-0.5,0-15.4-3.9-14.1-5.8c1.3-1.9,17.5-1.1,19.6-1c14.5,1.1,20.6,3.5,38.1,3.9
		c19.5,0.4-18.2-5-23.9-5.8c-2.2-0.3-1.9-2.4-1.5-3.4c-2.5-0.2-9.3-2-7.2-3.4c1.3-0.9,4.6,0.6,8.7,1c45.2,3.8,91.8,10.3,137,19.4
		c8.2,1.7,23.8,8.6,37,5.8c-2.1-2.9-19.6-1.5-21.8-6.8c-0.3-0.7,1-3,1.1-2.9c-5.5-3-26.4-1.7-35.9-6.8c-2.1-1.1-0.5-3.3-2.2-3.9
		c-11.3-3.8-20.9-3.3-34.8-5.8c-3.6-0.6-37.1-7.4-29.4-6.8c16.1,1.3,39.6,5.4,53.3,3.9c-15-4.8-56.4-7.5-69.6-12.6
		c-11.1-4.3,4.6-1.6,6.5-3.9c-6-1.7-14.3-1.3-22.8-2.9c-5.5-1-17.3-3.6-7.6-4.9c8.2-1.1-0.6-2.3,3.3-3.9c2.1-0.9,16.8,1.3,21.8,1.9
		c47.4,6.3,101.9,19,144.7,21.4c-11.6-5.1-43.6-3.8-52.2-9.8c-0.4-0.2-0.7-0.5-1.1-0.9c0.3,0.3,0.7,0.6,1.1,0.9
		c3.2,1.8,5.2-4.5,5.4-3.8c-1-3.2-17.9-1.7-19.6-1.9c-2.8-0.4-4.2-3.3-6.5-3.9c-10.4-2.6-26.3-5.4-34.8-5.8c-1.8-0.1-5.1,1.3-6.5,1
		c-3.4-0.7-10-6.2-8.7-5.8c-6.3-1.8-10.9,1-17.4,1c-11-0.1-19.4-3.9-26.1-4.9c9.1,2.7-7.1,1.8-13.1,0c-0.4-0.1,1.2-1.9,1.1-1.9
		c-1.1-0.7-2.8,1.2-3.3,1c-2.3-1-3.2-2.5-7.6-3.9c-14.1-4.5,10.2-1.6,10.9-1.9c1-0.5-0.8-2.8,1.1-2.9c6.5-0.5,22.2,3.7,28.3,2.9
		c1.3-0.2,2.9-3.3,5.4-3.9c5.8-1.4,11.5,1.9,17.4,2.9c14.7,2.6,30.8,4.2,39.2,3.9c-5.4-1.9-15.4-0.1-19.6-2.9
		c-1.1-0.7,0.7-2.5-1.1-2.9c-5.6-1.3-7.6,1-15.2,0c-7.1-1-30-5.8-7.6-3.9c19.4,1.7,35.1,6.2,45.7,3.9c9.8-2.1,15.7-0.2,27.2,1.9
		c33.7,6.4,49.7,11.3,72.9,8.7c-7.6-4.1-27.2-3.3-32.6-9.7c0.3,0.4,2.7-0.7,2.2-1c-4.6-2.1-35.4-10-10.9-5.8
		c7.7,1.3,30.7,4.9,43.5,7.8c7.7,1.7,26.5-0.3,37,3.9c0-4.2,0-8.4,0-12.6c-2.1-4.5-2.6-2.2-6-2.5c-1.9-0.2-5.1-3.6-6.5-3.9
		c-5.5-1.3-10.6-2-14.1-2.9c-16.6-4.5-34.2-5.5-50-8.7c-24.5-5-48.1-11.6-74-16.5c-26.3-5-55.1-7-87-11.7
		c-29.6-4.3-65.7-10.2-101.2-14.6c-40.2-5-139.5-4-177.2-10.7c-24.7-4.3,4.2-3.8,18.5-2.9c12.3,0.8,15.4,1.6,22.8,1
		c0.9-2.7-36-6.4-15.2-5.8c57.8,1.5,156.8,6.7,213.1,12.6c12.6,1.3,41.4,8.7,51.1,6.8c-17.8-4.8-37.8-5-58.7-7.8
		c-11.8-1.6-23.4-6.1-35.9-7.8c-2.2-0.3-5.1,1.2-7.6,1c-33-3.3-118.7-8.1-150.1-9.7c-15.3-0.8-24-2.1-33.7-3.9
		c-3.1-0.6-9.6,1.6-13,0c-3.1-1.4-3.1-4.6-5.4-4.9c-2.1-0.2-1.6,4.7-2.2,4.9c-4.5,1-2.6-5.6,0-4.9c1.6,0.5-3.9-2.5-6.5,0
		c-1.1,1.1,4,3.3,2.2,4.9c-2.2,1.9-9.3-1.4-13-1.9c-21.9-3-56.5-3.6-76.1-3.9c-15.2-0.2-46.9,1.8-72.9,1.9c-11.1,0-27.2,0.5-43.8,1
		c-0.1-0.2-0.2-0.5-0.4-0.7c-2.2-3.3-13,1.3-14,1.1c-3.4-0.8-12.2-5.4-13.6-7.1c-7-8.7,7.6-15.4,3-20.3c-3.4-3.7-9.9,1.1-7,0.5
		c-10.8,2.2-6-4.6-13-8.1c-2.9-1.4-9.7,2-15.7-0.8c-5.7-2.7-3.1-6.1-7.1-6.7c-3.4-0.5-7.6,5.2-12.4,5.4c-3.8,0.2-6-4.4-10.8-4.7
		c-0.9-0.1-3.9,4.3-7.5,3.9c-4.4-0.4-5.6-5.2-8.7-3.8c-6.5,2.9-0.5,6.4-2.6,9.7c-2.3,3.5-14.5,8.6-18.3,8.8
		c-5.7,0.4-4.8-3.1-7.6-0.9c-3.8,2.9,1.8,7-2,11.1c-5.2,5.5-7.4-2.4-11.3,3.5c-2.9,4.4,4.2,2.3,2.2,8.2c-0.8,2.4-3.5,3.5-5.6,4.8
		c-4.3,0.4-8.6,0.7-12.7,1.1c-25.9,2.2-150.5,8-170.7,9.7c-3,0.3-7-1.9-9.8-1c-3.1,1,0.3,2.8-3.3,2.9c-5.3,0.1-10.8-1.4-15.2-4.9
		c8.6,11.8-5.4,6.1-14.1,7.8c0.5-0.1-3,4.3-2.2,3.9c-6.6,3.2-17.5-3.4-20.7,4.9c-0.6,1.6,2,2.8,1.1,4.9c-0.6,1.3-3.7-1.1-3.3,1.9
		c0,0.2,1.9,0,2.8-0.1c0.1-0.2,0.2-0.2,0.5,0.1c0,0-0.2-0.1-0.5-0.1c-0.4,0.8,0.9,5.5,1.6,5.9c4.3,2,15.4-4.3,14.1,2.9
		c-0.5,3-17.4,0.5-20.7,5.8c-1.8,2.9,2.1,4.2,0,9.7c3.2-0.7,1.7-7.9,3.3-1c1,4.5,0.9,0.5-2.2,1.9c-0.5,0.2-1.3,2.5-1.8,4.8
		c-0.6-2.7-1.5-5.2-2.7-7.7c0.1,0,0.1-0.1,0.2,0c-0.1,0-0.1,0-0.2,0c-0.6-1.1-1.2-2.2-1.9-3.3c1.1,0.3,2,0.2,2.1-0.5
		c-0.1,0.3-2.6-1.8-4.9-3.2c-1.4-1.7-3-3.2-4.8-4.6c0.7-0.9,2.2-12.2-0.1-8.7c-0.1,0.1-2.4,4.2-2.4,6.7c-2.5-1.7-5.3-3.2-8.4-4.5
		c-0.1,0-0.2-0.1-0.3-0.1c-0.1-2.2-0.8-3.7-3.1-2.2c0.4-0.2,1.6,0.4,1.1,1c0.2-0.2,0,0-0.2,0.4c-14.9-5.3-29-4.8-39-0.4
		c-1.5-4.4-9.9-2.8-7.6,0c3.8,4.6-8.4-0.1-9.8,3.9c4.6,5.3,14.9-3.2,13.1-2.9c0.6-0.1,1.3,0,2,0.2c-0.9,0.5-1.8,0.9-2.6,1.4
		c-1.8,1.2-3.3,3.9-5.1,6.5c-1.5-0.5-3.1-0.6-4-0.4c-2.9,0.8-2.8,3.5-1,4.9c-0.5,0.3-1.1,0.5-1.7,0.6c-0.1,0-12.5-7.7-13-0.9
		c-0.1,1.9,1.1,2.8,2.7,3.4c0.6,1.3,1.3,2.2,2,1.6c0.3-0.3,0.5-0.6,0.7-1c1.9,0.4,3.9,0.7,4.9,1.6c0.5,0.5,1,1.1,1.4,1.8
		c-0.3,0.2-0.5,0.3-0.5,0.4c-1.1,2.4,0.2,2.7,1.6,2.2c0.4,1.1,0.6,2.3,0.8,3.6c-0.8-0.4-1.6-0.5-2.4,0c-3.7,2.2-0.4,3.8,2.1,4.8
		c-0.4,1.8-1,3.5-2.1,5.2c-0.5-0.2-1-0.3-1.1-0.3c-3.2-0.1-12.9,3-14.9,5.7c0.4,0.8,1.1,2.4,1.6,2.9c-0.1-0.8,8.2-5.6,11.1-5.7
		c-0.6,0-0.2,0.2,0.5,0.4c-4.4,3.2-12.9,7-14.6,11c0-0.4-4.5,2.6-5.5-0.7c0,0,3-2.8,2.2-2.9c-6.8-1.2-8.3,6.6-6.5,11.7
		c-0.9-7.9,5-1.6,7.6-2.9c0,0,0.9-3.7,1.1-3.9c0.7-0.7,1-1,1.1-1.2c-0.4,0.9-0.4,1.8,0.1,2.7c0.6,1.2,2.1,1.5,3.8,1.6
		c-0.2,2,0.9,4,0.5,2.7c-0.7-1.9,2.9-2.1,4.4-1.9c7.2,0.9,0.9,2.2-2.2,2.9c-0.7,0.2-8.9,7.4-8.7,7.8c3.5,5.8,12.5-4.7,11.3-5.8
		c1.5,0.4,7.2,2.9,9.6,4.2c0.6,0.9,1.2,1.7,2,2.3c0.2,0.2,0.5,0.3,0.7,0.4c0.5,0.9,0.4,1.2,0.6,0.2c1.5,0.4,3.3,0.3,5.4,0.5
		c-0.2,1.3-0.4,2.4-0.3,3.1c1.2-0.5,2.1-1,2.1-1.1c-1.4,2-2,2-2.1,1.1c-2.5,1.2-6.3,2.8-6.6,2.8c0.8,0-2.5-4.8-1.1-3.9
		c-2.3-1.4-5.4-0.6-7.6,1c0,0,6.7,1.6,6.5,2.9c-0.2,1.8-5,0.3-6.5,1c-3.2,1.5-4.6,7.4-8.7,4.9c1,0.6,3.5-4.6,1.8-4.9
		c-1.4,1-10.2,5.6-5.1,8.8c3,1.9,6.3-2.2,7.6-1c0.8,0.8,0.9,8,2.4,8.3c0.4-0.1,0.7-0.3,0.9-0.5c-0.3,0.4-0.6,0.5-0.9,0.5
		c-3.5,1.2-15,0.2-15.4-0.5c-3.4-5.9,13.5,1.3,12-3.9c-0.7-2.3-24.3,1.5-18.5-2.9c3.7-2.8-2.1-7.2-3.3-6.8c-0.4,0.1,0.2,4.3,0,4.9
		c0.5-1.2-5.6,4.5-5.4,4.9c0.7,2,12.2,2.9,4.4,2.9c-6.1,0,4.9,5.7,5.4,5.8c3,0.5,1.3-3.7,4.3-2.9c5.9,1.6-1.1,3.4-2.2,3.9
		c-4.6,2.2,0.3,5.8,2.2,4.9c-2.8,1.4-10.5-1.7-13,0c1.4,0.4,1.2,2.1,2.2,2.9c5.5,4.4-4.2,4-1.1,8.7c3,4.7,9.6-2.5,9.8,2.9
		c0.1,3.4-5.2,2.7-5.8,4.4c-2.9-1-5.9-1.8-8.4-1.9c-14.5-0.8-43.9,12.7-48.8,32.7c-1.3,5.2,4.3,8.4,3.4,13.5
		c-0.6,3.5-5.5,4.7-4.8,8.7c0.6,3.5,5.3,3.7,7.1,6.7c2.6,4.2,0.1,9.9,2.8,12c0.9,0.7,8.5,0.3,11.3,1.4c7,2.5,12.1,10.5,16.3,11.9
		c1.3,0.4,17.1,1.2,16.7,1.3c2.7-0.7,4.6-6.3,8-8c-0.6,2.3,0.3,4.5,4.2,2.8c4.7-2.1,6.8,4.8,2.2,8.7c-0.6,0.5-4.1-2.3-6.5-1.9
		c-3.6,0.5-9.7,5.9-12.1,8.4c0.4,0.2,0.3,0.6-1,1.3c-0.4,0.2,0.1-0.4,1-1.3c-1.2-0.5-7.1,0.8-5.3,3.2c3.6,4.9,6.6-2.5,8.7-1.9
		c5,2.2-8.6,7.3,0,5.8c7.6-1.3-5.1,2.7-4.4,9.7c0.2,2.3,5.1,2.6,5.4,2.9c0.5,0.6-3.3,4.6,1.1,2.9c2.9-1.1,0.3-9.5-1.6-8.3
		c-0.5,0.5-0.7,0.8-0.5,0.6c0.2-0.3,0.4-0.5,0.5-0.6c1.1-1.2,3.7-3.5,7.1-2.3c-2.5-0.9,2.6,7.1,2.2,4.9c1.1,6.4,8.7-9,10.9-8.7
		c7.5,0.9-4.3,4.4-4.4,8.7c0-0.8,3.4,1.1,3.3,1c0.6,0.6,0.8,1.1,0.9,1.6 M159.9,604C161.8,609.9,153.9,611.3,159.9,604L159.9,604z
		 M178.4,638c-3.3-0.8-4.5,6.5-6.5,7.8C166.5,649.1,168.2,636.6,178.4,638z M223.8,481.3c0.4-0.7,0.8-1.5,1.2-2.2
		C224.7,480.1,224.3,480.8,223.8,481.3z M165.3,648.7c11.9-8.8,3,12.2-2.2,7.8C162.6,656,164.1,649.6,165.3,648.7z M172.9,662.3
		c5.8-3.6,0.2,5.7-1.1,5.8C168.5,668.4,171.1,663.4,172.9,662.3z M237.1,473.8c-0.6-0.1-2.3-9.6-2.2-9.7
		C239,460,243.3,474.5,237.1,473.8z M229.5,462.1c1.5-5.9,6.1,9.6,4.4,9.7C230.8,472.1,228.4,466.2,229.5,462.1z M228.4,468.9
		c0,0.1-0.2,0.1-0.5,0.1c0.1-0.7,0.2-1.3,0.2-2C228.5,467.5,228.6,468.1,228.4,468.9z M141.4,490.3c-0.7-2-0.7-3.1-0.3-3.8
		c1.2,0.9,2,2.5,2.7,4.2C142.4,490,141.1,489.5,141.4,490.3z M151.2,558.3c0.2-0.2,2.3-1.8,3.3-1C157.2,559.9,147.1,562,151.2,558.3
		z M146.8,571c2.7,2.1,2.1,3.9,0.4,5.3c-0.5-0.4-1-0.8-1.6-1.1C146.8,574.3,148,573.2,146.8,571z M141.4,568.1
		c-0.6,0.5-1,0.7-1.5,0.7c-0.4-1.6-0.4-3.2-0.6-4.5C140.5,564.6,142,567.5,141.4,568.1z M144.6,560.1c0.4-0.6,1.8-0.4,2.3-0.8
		C145.2,560.8,144.8,560.4,144.6,560.1c-0.2,0.2-0.2,0.6,0.1,1.1c0,0-0.4,0-0.8,0c-0.1,0.3-0.2,0.6-0.3,1c-1.7,5.3,7.7-1.6,7.6-1
		c-0.4,2.6-8.6,8.2-8.7,0c0,0.1,0.8,0,1.4,0C144.3,559.9,144.4,559.9,144.6,560.1z M143.6,518.5c-3.2,2.8-4.3-2.3-4.4-1.9
		C139.5,513.9,144.8,517.4,143.6,518.5z M139.2,537.9c4.7,5.5-3.1,8.2-7.6,8.7C132.3,542.2,139.9,543.8,139.2,537.9z M130.5,555.4
		c0.6,0.7,0.9,1.5,1,2.3c-1.1-0.4-2.2-0.9-3.3-1.3C128.7,555.2,129.5,554.3,130.5,555.4z M126.2,526.3c3.5-3.1,4.1,6.5-2.2,5.8
		C122.2,531.9,124.2,528,126.2,526.3z M117.5,537c3.3-4,0.2,1.8,0,1c1.3,4.5,10.7,0.8,6.5-1.9C134.7,543.1,110.6,545.1,117.5,537z
		 M124,548.6c1.7,1.3-0.3,3.7-2.1,5.7h-0.1c-1.4-0.5-3-1.1-4.7-1.7C120.3,551.4,124.3,548.8,124,548.6z M125.1,651.6
		c-0.9-0.3-5.9-8.6-5.4-9.7c-0.5,1.1,5.6,0.9,5.4,1c4.9-3.1,0.6-6.4,1.1-7.8c0.6-1.4,4.4-4.8,5.4-5.8c5.1-5.3-5.1,8.8,0,4.9
		c2.1-1.6,3.1-13.9,7.6-7.8c1.3,1.8-1.9,4.1-2.9,5.3c1.3-0.1,6,4.3,2.9,5.4c0.3-0.1-3.2-1.4-3.3-1c-1.6,8.4,10.1-1.2,5.4-1.9
		c6.6,1.1,1,5.4-2.2,5.8C132.7,640.9,137.2,656,125.1,651.6z M139.2,651.6c-1.8-1.6,4.4-4.4,4.4-7.8
		C147.3,647.3,141,650,139.2,651.6z M164.2,668.1c-0.3,0.1-8.9-5.5-10.8-4.8 M146.8,667.2c3.1-1.1,1.5,3.5,4.4,0
		c-4.2,0.1-3.8-7.9-3.3-7.8c-2.1-0.4-6.7,7.3-7.6,8.7c-0.6,0.9-1.1,2.2-1.4,3.6c-1.5-1.4-3.6-2.6-6.1-3.5c-0.1-1.4-0.3-3.3,1-4.9
		c2.5-3.1,8.7-10,9.8-10.7c1.2-0.8,2.1,1,2.2,1.7c1.2-1.1,8.6-5.2,9.7-3.6c-0.2-0.3-5.3,4.5-5.4,5.8c-0.6,8.2,5.7-1.2,8.7,3.9
		c2.8,4.7,4.3,1.2,7.6,3.9c1,0.8,2.1,6.9,2.2,5.8 M970.1,598.2c2.6,0.2,6.6-2,6.5,1c0-0.4-1.8,1.7-1.1,1.9c4.5,1.4-0.3-3.3,3.3-2.9
		c5.2,0.6,49.9,2.6,51.1,2.9c3.5,1,26.7-4.1,26.1,1.9c-0.4,4.6-89.5-1-90.2-4.9C960.7,596.7,966.1,597.9,970.1,598.2z M948.3,597.2
		c-3.6-1-8.9-0.5-12-1.9C937,594.3,947,593.5,948.3,597.2z M824.4,627.3c-2.3,1.5-12.4-1.4-14.1-2.9
		C813.8,622.8,826.9,625.6,824.4,627.3z M803.7,624.4c1.8-3.8,7,1.9,3.3,2.9C807.7,627.1,803,625.9,803.7,624.4z M799.3,627.3
		c-1.3,0.5-5.1-4.3-5.4-3.9C797.2,620.1,806.2,625,799.3,627.3z M788.4,622.5c0.3-0.1,3.6-1.6,4.4,0
		C794.9,626.4,782.8,625.5,788.4,622.5z M760.2,406.8c-30.7,2.3-75.6-1.5-107.7,1c36.9-2.9,69.5-4.7,107.7-1.9
		C766.4,406.2,766.4,406.3,760.2,406.8z M777.6,406.8c0.5-2.2,5.4-0.4,7.6-1C784.6,409.1,780,407.3,777.6,406.8z M797.2,407.7
		c-19.7-0.3,0.7-3.9,10.9-1C806.3,408.4,801.5,407.8,797.2,407.7z M811.3,407.7c9.2-2.7,15.9-0.7,25,0
		C832.2,410.1,818.3,408.7,811.3,407.7z M847.2,408.7c2,3.3-5.9,1.6-5.4,0C842.3,406.8,846.6,407.7,847.2,408.7z M841.8,556.4
		c2.1-1.8,10.8-1.3,13,0C851.2,559.1,846.6,557.3,841.8,556.4z M956,543.8c3.7,0.4,7.3,1.1,9.8,1.9
		C956.6,548.3,937.7,541.9,956,543.8z M1035.3,548.6c2-3.2,12.5,0.5,17.4,1C1048.8,551.5,1040.3,549.1,1035.3,548.6z M1170.2,522.4
		C1165.3,526.1,1155.3,520.9,1170.2,522.4L1170.2,522.4z M1172.4,505.9c12.5,1.5,26,3.2,37,4.9c12,1.8,23.7,5.7,33.7,6.8
		c0.2,0.8-0.4,0.9-1.1,1c-29.7-3.2-60-9.6-94.6-12.6C1153.6,502.3,1163.9,504.9,1172.4,505.9z M1146.2,513.6c0.2,1.6-6.9,1.5-7.6,0
		C1138.1,512.4,1146.2,513.4,1146.2,513.6z M1133.2,517.5c8.6-1.9,12.5-0.2,22.8,1c8.3,0.9,2,3-4.4,2.9c-7.3-0.1-12.9-0.6-20.7-1.9
		C1127.3,518.8,1126.8,518.9,1133.2,517.5z M1258.3,478.7c-0.4-0.6,7.6-0.2,7.6,0C1266.2,480.3,1259.4,480.5,1258.3,478.7z
		 M1267,478.7c4,2.9,13.5,0.9,17.4,3.9C1282.2,484.6,1267,482.4,1267,478.7z M1351.8,486.4c6.2-0.2,20.1-0.4,22.8,6.8
		C1368.3,489.8,1359.1,489,1351.8,486.4z M1256.1,509.7c20.7,12.1,38.2-14.1,20.1-27.6c-7.6-5.6-17.4-3.9-23.9,1.1
		c-0.7-0.2-1.2-0.2-1.4-0.2c-0.8,0.2-1.8,4.4-4.2,5.8c-4.7,2.7-10.9,1.1-13.1,4.9c5-6.4,3.7-20.7-7.2-17.3c2.6-1.5,5.2-1.2,5.5-3.8
		c0.2-2-0.3-2.8-1.2-3.1c2.1-2.4,3.6-5,3-7.5c-0.1-0.4-2.8-0.6-3.1-1c-2.1-2.8,1.3-3.1-3.1-1c2.8-2.2,5.6-4.3,8.4-6.5
		c1.1,1.5,2.8,2.8,5,4.1c12.9,7.3,23.3-5.5,18.2-15.2c-0.1-1.2-0.8-2.1-1.9-2.7c-0.6-0.6-1.3-1.3-2.1-1.8
		c-6.3-4.6-15.4-1.1-19.3,4.6c-0.1-0.1-0.2-0.2-0.2-0.2c-1.4-3.7,11.2-13.7,0.6-12.1c-7.1,1.1,2.4,2.5,0.8,4.4
		c-0.6,0.7-13.6,2.8-13.5,2.7c-3.3,1.9,5.1-2.3,3.8,2.3c-0.7,2.7-3.9-0.8-5.6,0.1c-0.3-1.3-0.6-2.6-0.7-4c4.2-3.3,9.8-7.2,8.1-11.9
		c0.4,1-2.9,0.4-2.1-0.7c2-2.6,6.3-0.1,6.4-2c-2.6-4.2-8.7-0.6-9.6-2.1c-0.9-1.4,6.6-5,2.1-6.5c-5.3-1.7-11.5,3.5-3.5,7
		c5,2.2,2.4,9.3,0.4,9.3c-0.6,0-1-0.1-1.3-0.3c1.1-2.6,4.1-3.5,2.7-6.9c-1.3-3.2-6.3-2.2-10.5-7.9c-1.1-1.5-1.5-2.8-1.8-4
		c0.8-0.9,1-2.6-0.9-4.2c-0.1-0.1-0.2-0.3-0.3-0.4c-2.7-2.6-5.8-3.8-8.5-4.5c-2.5-1-5.6-1.7-5.9-3.1c-0.5-2,7.5-3.2,3.2-6.1
		c-1.7,3-4.1,4.3-5.8,6.3c-0.1-0.2-0.2-0.4-0.2-0.7c-0.2-0.9,6.8-7.5,9.3-12.3c1.4,1.4,3.3,2.5,2.7,2.6c3.7-0.6,0.6-3.9-1.8-5.2
		c0.1-1.5-0.8-2.6-3.5-2.6c-3.2-0.1-6.4,8.4-11.1,12c-0.5-0.3-1.1-0.3-2.1-0.1c-2.3,0.6-3.6,0.9-4.3,0.9c-0.2-0.1-0.4-0.1-0.7-0.2
		c-0.4-0.9,7.4-5.3,3.7-7.3c-2.6,8.6-6.5-1.1-6.5-1.1c-3.3,0.7-5.3,3.1-7,5.8c-2.8-0.7-5.4-1.3-7-1.6c-2-0.3-4.1-0.4-6.3-0.5
		c-0.5-0.6-1.2-0.5-2-0.1c-1-0.1-2-0.1-3-0.2c0.3-1.4-0.1-4.3-1.9-4.2c-2.4,0.2-3.7,1.3-4.3,2.4c-1.1-0.6-2.2-1.4-2.9-2.5
		c-2.3-3.4,2.9-5.1,2.9-9.2c0.1-8.5-9.8-21.1-9.9-29.5c0-5.1,2.7-12.2,1.8-14.6c-2.4-6.7-6.4-4.7-6.8-0.1c-0.1,2.3,4.2,7.2,4.9,13.2
		c0.4,3.7-1.9,6.9-1.2,9.2c0.8,3,4.4,3.2,4.5,5.5c0,0.7-3.6,0.5-4.1,2.2c-1.8,6.2,2.3,20.4-0.6,23.1c-6.2,5.9-11.4-1.9-18.7-3.5
		c-10.1-2.2-14.4,5.3-24.9-9c-0.4-0.5-5.7-24.4-9.9-13.3c-1.7,4.4,16.8,18.1,2.1,7.8c3.5,12.4,16.8,14.5,15.4,21.2
		c-0.7,3.3-10.6,3.5-14.1,5.1c-17.7,7.8-16.4,17.4-17.3,29.6c-1.4-1.1-2.7-2-2.8-2.5c-0.4-1.3,3.1-7.8,1-9.9c1.4,1.3-10.8,2.4-9.5,1
		c-1.1,1.3-0.1,10.4,1.1,10.6c3.3,0.5,0.2-6.6,6-4.2c-5.3,5-7.8,14.5-14.5,12.6c-0.7-0.2-2.8-2.6-1.5-2.5c-2.7-0.2-7.4,2.3-8.4,1.3
		c-4.8-4.8,4.6-6.1,3.8-8c-0.2-0.6-6.9-1.9-7.5-1.5c-1.6,1.1,2.2,6.2-3.8,8c-1.6,0.5-54.8-2.8-55.9-3c-1.6-0.3-3.5,1.6-5,1.4
		c-32.3-3.7-74.3-17.9-105.2-21.4 M1224.3,464.1c-0.1-0.9,0.1-1.7,0.4-2.5C1225.5,462.6,1225.6,463.5,1224.3,464.1z M1218.7,493.9
		c2.8-6.4,3.8,2.8,3.6,3.3 M1231,505.1c-0.1,0,2.1-8.7,7.5-8.8c1,0,2,4.9,5.2,1.7c1.6-4.7-4.7-2.1-4.9-2.6c-0.5-2.3,4.2-4.7,4.9-4.5
		c1.2,0.3,1.9,0.9,2.2,1.6c-0.2,1-0.3,2.1-0.3,3.2c-1.8,3.6-7,7.8-7.2,7.8 M1231.8,489c0.9,1.6-2,3.2-2.3,3.3
		C1218.5,496.5,1228.3,482.9,1231.8,489z M1230.1,480.3c-0.3,0.8-4-0.5-6.2-1c0.2-0.5,0.5-1,0.8-1.4c0.5-0.5,1-0.9,1.5-1.3
		C1227.8,476.7,1230.5,479.2,1230.1,480.3z M1227,444.5c0.2,0.3-0.2,1.2-0.8,2.3c-0.5-0.3-1-0.8-1.4-1.3c-0.4-0.4-0.7-0.9-1.1-1.5
		C1224.9,443.5,1226.1,443.4,1227,444.5z M1223.2,442.2c0,0.2-0.2,0.3-0.2,0.4c-0.2-0.5-0.4-1-0.6-1.6
		C1222.8,441.5,1223.3,441.9,1223.2,442.2z M1063.5,426.3c2.2,0.5,3.2,3.5,1.9,4.7C1061.7,434.3,1057.1,424.9,1063.5,426.3z"/>
	<path class="st0" d="M1150,572.6c-0.1,0-0.2,0.2-0.4,0.5C1150.5,573.1,1150.9,573,1150,572.6z"/>
	<path class="st0" d="M659.5,665.8c2.1,0.8,2.2,0.7,1.5,0.1C660.4,666,659.9,666,659.5,665.8z"/>
	<path class="st0" d="M141.9,534.7c0.3-0.1,0.5-0.1,0.7,0C143,534.4,142.9,534.4,141.9,534.7z"/>
	<path class="st0" d="M146.3,661c0-0.1,0.1-0.3,0.3-0.6C146.3,660.4,146.2,660.6,146.3,661z"/>
	<path class="st0" d="M122.3,477.3c1-0.4-1-4-1.1-3.9c0.1-0.4,0.3-0.6,0.4-0.9c-0.5,0.6-1.3,1.4-2.5,1.9c-1.2-5.2,2.6-3,2.2-5.8
		c-0.3-2.1-3.3,0.2-3.3-3.9c0-0.2,4.3,0.2,4.4,0c2.5-6.3-11.3-1.8-8.7,6.8C114.5,474.6,121.9,477.5,122.3,477.3z"/>
	<path class="st0" d="M121.6,472.6C122.2,471.8,122.1,471.3,121.6,472.6L121.6,472.6z"/>
	<path class="st0" d="M145.9,495.4c5.9,1.1,7.2-7.9,3.6-10.3c-2.5-1.6-4.2,4.5-4.4,8c1.5-1.4,4-3.3,4.4-4.1
		C147.7,493.5,146.6,495.3,145.9,495.4z"/>
	<path class="st0" d="M144.1,494.8c0.5,0.3,1.1,0.4,1.5,0.5c-0.4-0.2-0.5-1.1-0.5-2.2C144.3,494,143.7,494.6,144.1,494.8z"/>
	<path class="st0" d="M1345.8,581.3C1364.6,586.4,1349.7,577.4,1345.8,581.3L1345.8,581.3z"/>
	<path class="st0" d="M1148.9,588.1c3.6,0.7,7,1.6,10.9,1.9C1159.1,587.7,1147.5,586.1,1148.9,588.1z"/>
	<path class="st0" d="M897.7,667.8c4.9,0.5,14.1,2.3,17.4,1C912.5,668.6,903.3,664.9,897.7,667.8z"/>
	<path class="st0" d="M278.7,364.5c-2.6,0.5-7,4.4-5.4,4.9C274.3,369.7,281.4,364.1,278.7,364.5z"/>
	<path class="st0" d="M222.8,390.5c20.8,4.7,37.7-29.9,10.4-36.3C205.1,347.7,196.4,384.6,222.8,390.5z"/>
	<path class="st0" d="M273.9,373.3c-1.4,0.3-8.8,0.6-7.5,3.9C267.2,379.2,279.8,372,273.9,373.3z"/>
</g>
<g id="_x31__bandit_x2C__mafioso_x2C__suit_x2C__hat_x2C__mafia_x2C__criminal_x2C__gang">
</g>
<g id="_x31__bandit_x2C__mafioso_x2C__suit_x2C__hat_x2C__mafia_x2C__criminal_x2C__gang_00000181799322878430655640000015572668174186688396_">
</g>
<g id="weapon_nft_icon_1_">
	<path id="blood_1_" class="st1" d="M1005,414.4c0.9,0.6,1.6,0.8,2.1,0.6C1016.1,409.7,1015.4,409.5,1005,414.4 M841.9,472.6
		c0.7,0.2,1.3,0,1.8-0.5C852.9,467.5,852.3,467.6,841.9,472.6 M868,521.2c0.9,0.6,1.8,0.9,2.6,0.7C879.4,517.2,878.5,517,868,521.2
		 M838.4,485c0.7,0.2,1.3,0.2,1.7,0C846.5,478.2,845.9,478.2,838.4,485 M963.9,385.2c9-5.3,8.3-5.4-2.2-0.1
		C962.7,385.4,963.5,385.5,963.9,385.2 M949.3,373.4c3.4,2.7,5.2,2.7,5.6,0l1.6-5.7C944.2,355.9,941.8,357.8,949.3,373.4
		 M965.2,420.1l4,1.7c-0.4-11.8-3.4-13.1-8.9-4.1C961.9,418.5,963.6,419.3,965.2,420.1 M955.3,425.5c11.8-3.2,11-3.2-2.2-0.1
		C954.1,425.7,954.8,425.7,955.3,425.5 M1260.9,140.7c-0.5,0.5-0.9,1.3-1.2,2.2l1.4,0.9c0.4-1.3,0.6-2.2,0.8-2.9L1260.9,140.7
		 M1042,337.9c-7.8-6.7-13.7-7.2-17.6-1.4c3.3,1.6,6.8,3,10.6,4.1l0.4-1.4c19.4,9.6,22.2,10.1,8.6,1.4c-0.7-0.2-1.5-0.6-2.5-1.2
		C1042.1,338.8,1042.2,338.3,1042,337.9 M1002.9,311.4c9.2-4.6,8.4-4.6-2.2-0.1C1001.7,311.5,1002.5,311.6,1002.9,311.4
		 M996.3,328.5c6.1-9.6,2.7-10.2-10.1-1.9C991.6,330,995,330.6,996.3,328.5 M917.4,335.5c3.4,1.3,5.1,1.8,5.2,1.5
		C931.3,327.4,929.6,326.9,917.4,335.5 M1137.1,153.3c0.9,0.6,1.5,0.6,1.7,0C1148,148.7,1147.4,148.7,1137.1,153.3 M1157.4,155
		c6.3,0.1,12.2-0.7,17.5-2.2l3.7-1C1177.4,138.7,1170.4,139.8,1157.4,155 M1189.4,165.1c0.7,0.2,1.4,0.2,2.2,0.1
		C1202.1,158.6,1201.3,158.6,1189.4,165.1 M521,167.6c-0.2,0.6-0.1,1.2,0.1,1.6c7.1,10.6,12.2,21.7,15.3,33.2c0.9,0.6,1.8,1,2.5,1.2
		c-0.6,0.9-0.6,1.5,0,2.1c1,3,2.3,5.8,3.8,8.3c0.9,0.6,1.8,1,2.5,1.2c0.9,0.6,1.2,1,0.8,1.2c-0.2,3.4,0.8,6.4,3,9.1
		c10.3,4.6,10.8,1.4,1.7-9.8c-0.3-0.4-0.9-0.9-1.8-1.5c-2-3.3-3.7-6.6-5.1-9.7c-0.3-0.4-0.9-0.9-1.8-1.5c0.6-0.9,0.8-1.5,0.5-1.9
		C536.8,189.1,529.7,177.9,521,167.6 M516.1,165.2c5.8-1.8,6-8.4,0.6-19.9c-1.2-2.4-3.4-3.2-6.6-2.4
		C503.2,144.7,505.2,152.1,516.1,165.2 M486.8,21.4c4.8,4.1,9,5.3,12.5,3.5C499.6,13,495.5,11.9,486.8,21.4 M786.7,439.9
		c1.2-9.6,0.8-9.9-1.4-0.9L786.7,439.9 M756.9,439.7l4.9,2.4C750.4,424.4,748.8,423.6,756.9,439.7 M705,444.5c0.5-0.5,0.7-1,0.4-1.4
		c-14.5-19.9-15.9-19.1-4.1,2.4c0.6,0.5,1.4,0.9,2.5,1.2c-0.3,1-0.2,1.5,0.1,1.6c2.1,3,3.4,5.9,3.7,8.8c4.6-1.8,4.4-5.5-0.8-11
		C706.2,445.5,705.6,445,705,444.5 M699.9,415.2l4.8,12.7c4.4,1.6,7.9,0.5,10.5-3.2c1-0.8,1.5-1.5,1.7-2.1c0.6,0.5,0.9,0.6,1,0.3
		c6.9-7.3,5.8-7.8-3.5-1.5C709.5,417.6,704.7,415.5,699.9,415.2 M759,600.4c-0.5,0.5-0.7,1.2-0.5,1.9c-0.5,5.7-0.6,11.5-0.5,17.4
		c8.8-3.3,10.1-10,4-20c-0.5-0.8-1.1-1.3-1.8-1.5l-2.1-6.3c-1-10.9-1.5-8.5-1.5,7.3C757.2,599.4,758,599.8,759,600.4 M665.5,624.8
		l4,1.7C672.8,620.2,671.5,619.6,665.5,624.8 M644.6,524.6l0.9,0.8C647.6,511.5,647.3,511.3,644.6,524.6 M653.3,563.1
		c1.8-15.6,1.5-15.9-0.9-0.8L653.3,563.1 M538.6,548c15.6-3.5,14.7-3.7-2.6-0.7C536.9,547.9,537.8,548.1,538.6,548 M494.6,445.9
		l0.9,0.8C497.1,429.3,496.8,429,494.6,445.9 M558.2,331.1l0.9,0.8C559.8,322.8,559.5,322.5,558.2,331.1 M321.5,328.1l4,1.7
		c3.2-6-0.6-7.7-11.4-5.3C316.8,325.6,319.2,326.8,321.5,328.1 M253.3,404c0.9,0.6,1.8,0.9,2.6,0.7C267,400,266.1,399.8,253.3,404
		 M1095,279.9c-5.9-3.7-12.3-1.5-19.2,6.4c5,2.5,9.6,4,13.9,4.5c3.6,0,7-0.8,10.2-2.3c1.7-0.9,2.4-1.7,1.9-2.6
		C1099.6,283.2,1097.4,281.2,1095,279.9 M948.3,262.4c1.2-0.6,2.3-1.1,3.3-1.6c11.7-5.5,11.4-5.6-1-0.3c-1.1,0.6-2.4,1.3-3.9,2
		C947.3,262.6,947.9,262.6,948.3,262.4 M688.4,62.8c1.7-2.6,2.8-4.5,3.3-5.7l0.3-1c-0.8,1.1-2.4,3.4-4.8,6.9l0.4,0.6l0.5,0.1
		C688.3,63.4,688.4,63.1,688.4,62.8 M826.7,259.7c9.2-4.6,8.7-4.7-1.6-0.4C825.8,259.4,826.3,259.6,826.7,259.7 M817.9,267
		c0.7,0.2,1.4,0.4,2.1,0.6c17,3.5,33.1,3.9,48.5,1.4c-0.7-0.2-1.4-0.2-2.2-0.1C849.4,266.1,833.3,265.5,817.9,267 M641.4,26.7
		c-0.5,0.5-0.5,1.2,0,2.1c0.5,4.9,0.5,9.9,0.2,15c3.1-1.5,5.6-6,7.7-13.3c-0.1-1.1,0.2-1.8,0.7-2.4c4.6-5.6,3.6-9.3-3-11.2
		c-0.3-0.1-0.6,0.2-0.8,0.8c-1.5-2.5-1.5-5.2,0.1-8.2c0.8-1.6,1.1-2.9,1.1-3.8c0.9-2.8,0.1-4-2.3-3.7c-0.5,0-1.1,0.2-1.8,0.5l0,0
		c-0.2,0.3-0.5,0.5-0.8,0.8c-2.5,2.3-3.3,8.9-2.3,19.9c0.9,0.6,1.8,1,2.5,1.2C642,25,641.6,25.8,641.4,26.7 M996.1,250.2
		c0.6,0.5,1.3,0.6,2.2,0.1C1017.5,244.8,1016.8,244.8,996.1,250.2 M855.4,190.1c0.7,0.2,1.2,0.3,1.6,0.4
		C872,178.7,871.5,178.5,855.4,190.1 M823.7,149.7c-6.6-4.6-12.3-5.6-17.2-2.8c-9.2,6-9.9,11.8-2.1,17.4c9.7,6.9,11.1,13.5,4.5,19.8
		c0.7,0.2,1.3,0.2,1.7,0C833.1,176,837.4,164.6,823.7,149.7 M825.7,130.7c6.4-11.9,5.2-12.4-3.5-1.5L825.7,130.7 M787.7,106.5
		c0.9,0.6,1.5,0.8,1.6,0.4C798.3,101.6,797.7,101.4,787.7,106.5 M773.3,175l4,1.7C777.9,166.5,776.6,166,773.3,175 M641.9,72.2
		l1.6,0.4C646,49.3,645.5,49.2,641.9,72.2 M615.5,76c0.9,0.6,1.7,0.7,2.2,0.1C626.6,71.5,625.8,71.4,615.5,76 M654.9,125.3
		c-0.2-0.7,0.1-1.5,0.7-2.4c0.6,0.5,1.4,0.9,2.5,1.2c0.6,0.5,1.2,1.2,1.7,2c-0.1,0.3-0.2,0.8-0.4,1.4c22.6,9.9,31.6,4,26.9-17.6
		c-0.2-1.8-2.2-3.4-5.9-4.8c-8.1-3-14.4-0.8-18.7,6.5c-1-0.3-1.9-0.4-2.7-0.3c-1.5-0.1-2.7,0.1-3.5,0.5c-0.9-0.6-1.8-1-2.5-1.2
		c0-3.8-0.5-7.5-1.3-11.2c0.1-0.3-0.4-0.6-1.4-0.9c1.5-6.5,0.4-12.1-3.1-16.8l-1.9-3.1c-5.1,3.4-5.4,9.8-1,19.3
		c1,0.3,1.9,0.7,2.5,1.2c-0.6,0.9-0.8,1.6-0.7,2.4c1.3,11.3,3.3,22.6,6.1,33.7C658.4,136.5,659.4,133.1,654.9,125.3 M574.4,100.4
		l1.4,0.9C584.1,84.1,583.6,83.8,574.4,100.4 M568.2,61c-0.9-0.6-1.8-0.9-2.6-0.7c-33.2-12.2-44.9-4-35.1,24.5
		c0.7,0.2,1.5,0.6,2.5,1.2C556.6,93.8,568.3,85.4,568.2,61 M579.2,77.5c5.1-10.2,4.8-10.3-1-0.3L579.2,77.5 M740.3,470.5
		c3.3,1.6,6.9,2.8,10.8,3.6c8.7,2.1,11.4-0.5,7.9-8.1c-2.3-4.8-4.6-8.2-6.7-10.1c-3.8-4.3-7-3.1-9.4,3.5
		C741.9,462.1,741.1,465.8,740.3,470.5 M716.8,464.3l-2.2-2.2c0,5.1,1.2,12.1,3.5,21.1c0.6,2.6,1.3,5.4,2.1,8.3c1,0.3,1.6,0.3,1.7,0
		c3.4-3,3.7-8,0.9-15.2C721.6,472.8,719.6,468.8,716.8,464.3 M538.7,344.1c2.2,1.3,3.6,1.7,4.2,1.2c1.5-1.7,2.6-3.3,3.6-4.6
		c6.2-7.6,5.1-7.8-3.3-0.4C541.9,341.3,540.4,342.6,538.7,344.1 M400,397.4c-0.9-0.6-1.9-1.1-3-1.4c-10.4-3-19.2-1.7-26.4,3.8
		c11.2,2.8,21.1,2.7,29.8-0.3c0.8-0.1,1.4-0.4,2-1c8.6,0,17.4,0.7,26.4,1.9c0.7,0.2,1.4,0.4,2.1,0.6c-0.2,0.6-0.5,1.1-0.9,1.3
		c-31.4,1-57.5,15.8-78.3,44.2c11.6,5.8,21.1,7.3,28.5,4.5c0.9-0.2,1.8-0.5,2.5-0.8c0.8-0.1,1.3-0.7,1.6-1.6
		c-1.5-7.8-0.1-14.8,4.3-20.9c3.8-5.6,10.1-10.5,18.8-14.7c0.8-0.1,1.5-0.1,2.2,0.1c8.9,0.5,17.4,0.1,25.5-1
		c0.7,0.2,1.4,0.4,2.1,0.6c5.5-0.8,10.9-1.4,16.2-1.6c0.4-0.2,0.7-0.6,0.9-1.3c2.7,1.1,5.2,2,7.7,2.7c0.4-0.2,0.7-0.6,0.9-1.3
		c5,3.2,8.9,4,11.7,2.3c0.6-0.4,1.1-0.8,1.4-1.1c0.4-0.2,1-0.1,1.6,0.4c1,0.3,1.9,0.7,2.5,1.2c0.9,0.3,1.6,0.6,1.9,1.1l0.5,0.1
		c2.8,0.8,2.8,2.7,0.1,5.7l-0.9-0.8c-3.1,4.3-7.5,7.8-13.1,10.7c-0.6-0.5-1.6-1-3-1.4c-4.4-1.6-7.5,0.6-9.2,6.7
		c6.1,4.8,10.2,5,12.2,0.4c0.3-1,0.7-1.7,1.2-2.2c2.5-2.4,5.8-3.2,9.7-2.4c0.3,0.1,0.6-0.2,0.8-0.8c8.2,0.3,15.8-1,23-3.8
		c0.9-0.4,1.4-1,1.6-1.6c3.6-0.3,6.9-1.3,9.8-2.9c2.5-1.6,4.7-3.5,6.7-5.8c0.9-0.4,1.4-1.1,1.7-2.1c14.5,0.4,27.6-3.6,39.3-12
		c1.3-1.1,2.5-2.1,3.7-3.1c0.4-0.2,1.1,0,2.1,0.6c12.8,7.8,24,11.6,33.7,11.7c1.1,0,2,0.1,2.7,0.3c12,17.1,26.6,22.9,44,17.1
		c0.9-0.4,1.6-0.4,2.2,0.1c-0.3,1-0.6,1.5-1.1,1.8c-10.9,1.4-11.5,6.9-1.9,16.5c-0.9-0.6-1.8-0.9-2.6-0.7c-5.3-1.2-7.3,0.5-5.9,5
		c3.6,3.1,6.5,3.6,8.6,1.4c0.2-0.6,0.6-1.4,1.2-2.2c0.2-0.6,0.7-1.2,1.6-1.6c9.7-5.1,13.8,0.3,12.2,16.3c0.6,0.5,1.4,0.9,2.5,1.2
		c-1.6,3-2.7,4.4-3.4,4.2c-20.7-6.2-30.1,0.5-28.2,20.3c29.8,9.8,41.2,1.4,34.2-25.3c-0.3-0.4-0.7-0.9-1.3-1.4
		c1.3-11,0.8-21.4-1.2-31.2c-0.2-0.7-0.1-1.6,0.2-2.5c0.5-0.5,0.9-1.3,1.2-2.2c5.8-0.7,10.6-3.8,14.4-9.3c0.6-0.9,1-1.6,1.2-2.2
		l0.9-1.3c2.8,0.8,3.7,2.6,2.9,5.5c5.3,1.2,6.3-2.3,3-10.5c0.1-0.3,0.2-0.8,0.4-1.4c12.9-1.8,21.7-5.2,26.4-10
		c0.6-0.9,1.2-1.5,1.7-2.1c12.3,6.9,18.8,8.3,19.6,4c0.3-1,0.7-1.7,1.2-2.2c0.6,0.5,1.4,0.9,2.5,1.2c7.1,4.1,12.7,8.8,16.8,14
		c1,0.3,1.9,0.7,2.5,1.2c1,0.3,1.9,0.5,2.6,0.7c3.8,1.1,5,2.8,3.6,5.1c14.9,5.6,14,3.3-2.5-6.9c-0.6-0.5-1.4-0.9-2.5-1.2
		c1-8.7,11.5-7,31.7,4.9c0.3,0.1,1.6-0.2,3.7-1c3.7-1,4-2.1,0.9-3.3c0.6-0.9,1-1.6,1.2-2.2c0.6-0.9,1-1.6,1.2-2.2
		c5-0.6,5.4-3.1,1-7.4c-0.6-0.5-1.4-1.1-2.3-1.7c0.5-0.5,1-0.8,1.3-0.7c15.9,0.7,25.7,7,29.5,18.7c1,0.3,1.9,0.7,2.5,1.2
		c-0.3,1-0.5,1.7-0.7,2.4c0,6.5-6,13.9-18.1,22.1c4.7,2,9.1,2.9,13.3,2.7c0.4-0.2,0.9-0.6,1.4-1.1c0.7,0.2,1.1,0.7,1.3,1.4
		c0.3,0.4,0.2,1.1,0,2.1c10,3.2,11.8,1.5,5.4-5.2c-0.5-0.8-1.1-1.3-1.8-1.5c8.7,2.1,12.8-0.8,12.1-8.9c-1.3-8.6,1.3-18.3,7.7-29.2
		c1.2-11,6.3-18.1,15.1-21.5l-0.9-0.8c-5.7-3.7-10.5-2-14.4,5.2c-0.9-0.6-1.7-0.7-2.2-0.1c-1.6,0.2-3.3,1-5.1,2.2
		c-0.7-0.2-1.4-0.4-2.1-0.6c-4.8-0.3-9.4,0.1-13.8,1.2c-0.7-0.2-1.5-0.6-2.5-1.2c-4-1.8-8.1-3.8-12.3-6.1c0.1-1.7-0.1-3.5-0.7-5.4
		c-0.3-0.4-0.9-0.9-1.8-1.5c-1.1-13.4,8.5-22,28.7-25.8c15.4-2.8,30.8-6.2,46.1-10.1c8.8,3.2,17.4,6.5,25.8,9.9
		c0.7,0.2,1.6,0.4,2.6,0.7l-0.3,1c5.5,2.9,7.7,6.5,6.5,10.6c20,3.3,19.6,0.2-1.3-9.1c-1-0.3-1.9-0.7-2.5-1.2
		c-5.7-10.2-16.1-17.6-31.3-22.3l0.3-1c10-0.9,18.5-2.5,25.5-4.6l-1-0.3c-1.7-4.6-0.5-6.7,3.5-6.2c0.8-0.1,1.6,0.1,2.6,0.7
		c-0.5,0.5-0.9,1.3-1.2,2.2c5.1,3.2,9.3,4,12.7,2.6c0.9-0.4,1.6-0.9,2.1-1.5c4.7,0.6,9.4,1.3,14,1.9c1,0.3,2.1,0.6,3.1,0.9
		c15.9,4.5,26.7,4.2,32.3-1.1l-1.6-0.4c-9.4-11.6-19.1-12.6-28.9-3.1c-0.3,1-0.5,1.7-0.7,2.4c-1-0.3-2.1-0.6-3.1-0.9
		c-3.9-0.8-8.2-2.2-12.9-4.2c-1-0.3-1.7-0.7-1.9-1.1c-1.9-5-5.4-6.5-10.5-4.5c-0.9-0.6-1.8-1-2.5-1.2c-0.9-0.6-1.8-1-2.5-1.2
		c0.3-1,0.7-1.7,1.2-2.2c8.8-7.1,16-8.8,21.7-5.2c3.9,2.1,8.1,2.3,12.8,0.5c20.2-9,41.8-13.9,64.8-14.5c0.8-1.7,1.7-3.4,2.5-4.9
		c6.4-10.2,15.5-17.9,27.4-23.1c0.4-0.2,0.7-0.6,0.9-1.3c18.6,2,36.3,2.8,53.3,2.3c4.7-0.4,9.3-0.8,13.8-1.2
		c2.7-0.3,5.3-0.7,7.7-1.4c0.2-5.8-4.4-10.9-13.6-15.2c-0.3-0.1-0.6-0.2-1-0.3c-3.3-1.4-7.1-3.3-11.3-5.8c-19.3-2-35.4-0.5-48.5,4.7
		l-0.1,0.5c-1.6,4.3-5,8.2-10,11.6c-0.6-0.5-1.4-0.9-2.5-1.2c-3.7-1.4-6.6,0-8.5,4.3c-0.6-0.5-1.1-0.7-1.6-0.4
		c-0.8,0.1-1.5,0.6-2.1,1.5c-0.6-0.5-1.3-0.7-2.1-0.6c-10.3,0.5-20.2,2-29.9,4.4c-1-0.3-2.1-0.6-3.1-0.9c-6.9,0.4-13.1,2.6-18.7,6.5
		c-0.6-0.2-1.1-0.1-1.7,0c-0.2,0-0.4,0.1-0.7,0.3c-15.7,7.9-32.5,13.4-50.2,16.6c-0.9-0.6-1.6-0.8-2.1-0.6
		c-38.6,2.8-76.7,6.5-114.4,11.2c2.3-13.4,1-25.1-4-35.1c-0.3-0.4-0.7-0.9-1.3-1.4c2.1-15.2-0.1-29.2-6.6-42
		c-0.6-0.5-1.2-0.9-1.9-1.1c-0.4-1.2-0.7-2.3-0.7-3.3c0.2-0.6,0.4-1.4,0.7-2.4c0.7,0.2,1.3,0.2,1.7,0c2.2-2.1,4.6-4,7.2-5.7
		c7.3-4.3,16.1-7.1,26.5-8.4c-0.2-1.8-0.6-2.6-1-2.3c-9.4-1.8-19.7,1.6-31,10.2c-1.9,1.5-3.9,3.2-5.9,5c-0.9-0.6-1.6-1.1-1.8-1.5
		c-4.2-8.8-8.6-10.7-13-5.7c-0.6-0.5-1.4-0.9-2.5-1.2c-0.6-0.5-1-1-1.3-1.4c-1.1-5.5-6-6.7-14.7-3.7c-0.7-0.2-1.4-0.4-2.1-0.6
		c-10.8-0.3-21.9-1.3-33.5-2.8c2.7-4.6,5.7-8.9,8.7-13c4.6-5.5,9.5-10.4,14.9-14.8c0.5-0.5,1.1-1.2,1.7-2.1
		c-6.4-14.2-18-16.3-34.7-6.3c-0.4,0.2-1,0.2-1.7,0c-0.9-0.6-1.8-1-2.5-1.2c0.1-8.2-0.8-10.5-2.5-6.9c-0.6,0.9-1,1.6-1.2,2.2
		c-0.9-0.6-1.8-0.9-2.6-0.7c-6.8-2.3-8-0.2-3.5,6.2c0.7,0.2,1.5,0.6,2.5,1.2c0.7,0.2,1.5,0.6,2.5,1.2c-0.3,1-0.8,1.6-1.7,2.1
		c-2.2,2.3-4.4,4.8-6.6,7.4c-7.6,8.7-14.7,18.5-21.3,29.5c-0.9-7.5-2.7-14.7-5.6-21.7c-0.3-0.4-0.7-0.9-1.3-1.4
		c0.5-0.5,0.8-1.3,0.7-2.4c0.4-4.7,0.4-9.3,0-13.9c-0.5-6.4-1.7-12.8-3.6-19c-0.3,1-0.5,1.9-0.8,2.9c0,4.9-0.1,9.8-0.3,14.9
		c0,6.9-0.1,13.9-0.4,21c0.6,0.5,1.4,0.9,2.5,1.2c-0.6,0.9-0.8,1.3-0.4,1.4c2.6,5.2,3.7,10.8,3.1,16.8c0.6,0.5,1.4,0.9,2.5,1.2
		c2.8,10.1-0.1,13.4-8.4,10l-0.5-0.1c-8.1-4.4-15.7-5.3-22.8-2.9c-4.6-23.3-19.1-40.6-43.6-52.1c-0.7-0.2-1.5-0.6-2.5-1.2
		c0.3-1,0.3-1.6,0-2.1c-8-19.1-9.7-19.2-4.9-0.4c0.9,0.6,1.8,1,2.5,1.2c-0.5,0.5-0.9,1.3-1.2,2.2c-0.5,0.5-0.9,1.3-1.2,2.2
		c-2.9,5-7,6.8-12.2,5.3c-0.7-0.2-1.2-0.3-1.6-0.4c-4,0.9-8.8-0.6-14.4-4.6c-5-11.4-11.3-22.3-18.8-32.6l0,0c-0.2-0.5,0-1,0.4-1.4
		c-10.8-5.5-17.6-11.9-20.4-19.2c-0.3-0.4-0.2-1.1,0-2.1c-2.3-2.2-5.1-4.4-8.3-6.5c-1.7-1-3.4-2.1-5.3-3.1c-1-0.3-1.9-0.7-2.5-1.2
		c-5-12.7-13-24.8-24-36.2c-0.5-0.8-1.3-1.4-2.3-1.7l0.8-0.8c-7.7-6-14.5-8.9-20.5-8.9c-1.9,8,1.2,15.5,9.4,22.2
		c6.2,4.5,11.9,10.2,17,17.2c8.6,12,18.2,23.5,28.9,34.5c16,16.2,25.5,30.6,28.7,43.2c-0.2,0.6-0.5,1.1-0.9,1.3
		c18,22.3,31.3,45.8,40,70.6c1,0.3,1.9,0.7,2.5,1.2c16.1,8,17.8,14.5,5.1,19.5l-0.8,0.8c-19.6-7.3-38.1-5.5-55.4,5.3
		c-0.3,1-0.2,1.5,0.1,1.6c6.4,9,13.3,9.1,20.7,0.2c0.9,9.9,6.3,17.9,16.2,24.2c5.9,4.1,8.2,7.5,6.7,10.1
		c-3.2,7.3-7.9,14.1-14.2,20.2c0.6,0.5,1.4,0.9,2.5,1.2c-0.5,0.5-1,0.9-1.4,1.1c-4.7,0.7-8.7,3-12.1,6.9c4.8,0.3,9.2-0.7,13.2-2.9
		c0.5-0.5,1.1-1.1,1.6-1.6c3.3,1.6,6,1.9,8.2,0.8c3-1.2,5.1-1.3,6.3-0.3c14.8,9.7,19.6,26.5,14.3,50.4c-0.9-0.6-1.7-1.2-2.3-1.7
		c-6.8-5.7-14.1-9.2-21.8-10.3c-9.2-1.2-19.1,1.3-29.7,7.5c-1-0.3-1.9-0.5-2.6-0.7c-10.4-1.6-20.9-3-31.4-4.3
		c-0.6-0.5-1.6-0.8-3.1-0.9c-7-1.7-13.7-2.4-20.2-2.1c-0.7-0.2-1.5-0.6-2.5-1.2c-6.6-4.3-14-2.3-22,6.1c-0.7-0.2-1.3-0.2-1.7,0
		c-4.4,2.2-8.3,4.7-11.7,7.5c7.2,3.8,12.2,2.4,15.2-3.9c-0.2-0.7,0.1-1.5,0.7-2.4c6.3-1,12.4-2.3,18.5-4c0.8-0.1,1.5-0.1,2.2,0.1
		c9.4,3.7,18.3,5.9,26.8,6.6c0.3,0.1,0.8-0.3,1.4-1.1c10,4.2,19.2,6.2,27.6,5.8c0.8-0.1,1.7,0,2.7,0.3c0.6,0.5,1.4,0.9,2.5,1.2
		c5.3,2.5,5.5,6.4,0.7,11.5c-0.6,0.9-1.2,1.5-1.7,2.1c-4.8,2.4-9.5,3.8-14.1,4.2c-1-0.3-1.8-0.2-2.3,0.4c-5.7,0.4-11.5,1-17.3,1.8
		c-0.9-0.6-1.5-0.8-1.6-0.4c-3.4,2.8-7.8,2.4-13.1-1.2c-0.6-0.5-1.3-0.7-2.1-0.6c-9.7,0-18.8,1-27.3,3.1c-0.7-0.2-1.5-0.6-2.5-1.2
		c-2.8-0.8-5.2-0.1-7.3,2c-0.7-0.2-1.4-0.4-2.1-0.6c-5.3,0.2-10.3,1.4-15,3.5c-0.7-0.2-1.4-0.4-2.1-0.6
		C418.6,393.9,409,394.8,400,397.4 M860.4,547.9c10.3-0.5,9.4-0.8-2.6-0.7C858.8,547.4,859.7,547.7,860.4,547.9 M759.7,499.1
		c5.8,0.6,5.2-2.5-1.9-9.3C749.2,481.9,749.9,485,759.7,499.1 M772.5,485.8c0.9,0.6,1.6,0.8,2.1,0.6
		C782.9,481.9,782.2,481.7,772.5,485.8 M818.7,522.6l1,0.3C817,508.8,816.7,508.7,818.7,522.6 M816.7,502c0.7,0.2,1.4,0.2,2.2,0.1
		C827,497.5,826.2,497.5,816.7,502 M804.7,566c0.6,0.5,1.1,0.7,1.6,0.4C815.5,561.5,815,561.4,804.7,566 M755.7,550.5
		c8.5-4.8,8-4.9-1.6-0.4C755.1,550.7,755.6,550.9,755.7,550.5 M727.9,512.2l1.6,0.4C731.8,499.3,731.2,499.1,727.9,512.2
		 M360.3,529.2l4.2-0.9C368.1,519.4,366.7,519.7,360.3,529.2 M348.9,464.7c5.4,2.2,8.8,1.3,10.3-2.7
		C365.2,449.9,361.8,450.8,348.9,464.7 M361,481.5c5.1-10.2,2-9.7-9.4,1.4C356.2,485,359.4,484.5,361,481.5 M342.2,472.6
		c4.8-11.7,1.4-11.4-10.3,0.7C336.9,476.7,340.3,476.5,342.2,472.6 M498.1,338.7c1,0.3,1.8,0.3,2.2,0.1
		C522.2,327.9,521.5,327.9,498.1,338.7 M357.5,359.5c0.6,0.5,1.3,0.7,2.1,0.6C369.1,355.6,368.4,355.4,357.5,359.5z"/>
</g>
<g>
	<g>
		<path class="st2" d="M729.1,366.2c-1.9-5.8-7.4-9.7-13.5-9.7H652c-6.1,0-11.5,3.9-13.5,9.7l-3.3,9.8c-1.1,3.4-1.5,7-0.9,10.6
			c1.6,11.2,11.8,19.6,23.6,19.6h51.8c11.8,0,22-8.4,23.6-19.6c0.5-3.6,0.2-7.2-0.9-10.6L729.1,366.2z M715.7,363.7v7.1h-7.1v-7.1
			h6.9C715.6,363.6,715.7,363.7,715.7,363.7z M701.5,370.7h-7.1v-7.1h7.1V370.7z M687.3,370.7h-7.1v-7.1h7.1V370.7z M673.1,370.7
			H666v-7.1h7.1V370.7z M658.9,363.6v7.1h-7.1v-7.1c0.1,0,0.1,0,0.2,0H658.9z M651.8,398.1v-6h7.1v7.1h-1
			C655.8,399.2,653.7,398.8,651.8,398.1z M666,392h7.1v7.1H666V392z M680.2,392h7.1v7.1h-7.1V392z M694.4,392h7.1v7.1h-7.1V392z
			 M708.6,399.2V392h7.1v6c-1.9,0.7-3.9,1.1-6.1,1.1H708.6z M726.2,385.6c-0.4,2.8-1.6,5.4-3.4,7.5v-1c0-3.9-3.2-7.1-7.1-7.1h-7.1
			c-1.3,0-2.5,0.4-3.6,1c-1-0.6-2.3-1-3.6-1h-7.1c-1.3,0-2.5,0.4-3.6,1c-1-0.6-2.3-1-3.6-1h-7.1c-1.3,0-2.5,0.4-3.6,1
			c-1-0.6-2.3-1-3.6-1H666c-1.3,0-2.5,0.4-3.6,1c-1-0.6-2.3-1-3.6-1h-7.1c-3.9,0-7.1,3.2-7.1,7.1v1c-1.8-2.1-3-4.6-3.4-7.4
			c-0.4-2.5-0.1-5,0.6-7.4l2.7-8.2v0.7c0,3.9,3.2,7.1,7.1,7.1h7.1c1.3,0,2.5-0.4,3.6-1c1,0.6,2.3,1,3.6,1h7.1c1.3,0,2.5-0.4,3.6-1
			c1,0.6,2.3,1,3.6,1h7.1c1.3,0,2.5-0.4,3.6-1c1,0.6,2.3,1,3.6,1h7.1c1.3,0,2.5-0.4,3.6-1c1,0.6,2.3,1,3.6,1h7.1
			c3.9,0,7.1-3.2,7.1-7.1v-0.7l2.7,8.2C726.4,380.6,726.6,383.1,726.2,385.6z"/>
		<path class="st2" d="M783.2,250c0-7.8-6.4-14.2-14.2-14.2h-3.7c-2,0-4,0.2-6,0.5c-16.5-22.6-42.7-36-70.7-36h-9.7
			c-48.2,0-87.5,39.3-87.5,87.5c0,26.7,12,51.6,32.8,68.3l2.1,1.7l-4.6,13.8c-1.3,3.8-1.9,7.8-1.9,11.8c0,20.5,16.7,37.2,37.2,37.2
			h53.5c20.5,0,37.2-16.7,37.2-37.2c0-4-0.6-8-1.9-11.8l-4.6-13.8l2.1-1.7c20.9-16.7,32.8-41.6,32.8-68.3c0-8.2-1.2-16.3-3.4-24.1
			C778.7,262,783.2,256.5,783.2,250z M755.7,259.5c-1.5,0.8-2.9,1.6-4.2,2.7l-1.3,1.1c-4.8-1.7-8.4-5.9-9.3-10.8l1.3-1.2
			c1.9-1.6,3.9-2.9,6-4.1C749.2,252.2,751.9,256.5,755.7,259.5z M715.7,298.8c2.3,0.6,4.6,0.9,7.1,0.9c5.2,0,10-1.4,14.2-3.8V306
			c0,1.4-0.8,2.6-2,3.2l-6.4,3.2c-3.6,1.8-5.9,5.5-5.9,9.5v6.3c0,2-1.6,3.6-3.6,3.6c-2,0-3.6-1.6-3.6-3.6V298.8z M722.9,292.6
			c-6.3,0-11.9-2.8-15.8-7.1h12.4c8.4,0,16.5-2.5,23.5-7.1C740,286.7,732.1,292.6,722.9,292.6z M744.2,268.4l-1.7,1.4
			c-2.4,2-5,3.7-7.7,5c-3.1-2.7-4.9-6.6-4.9-10.7c0-1,0.1-2,0.4-3c1.1-0.6,2.1-1.3,3-2.1l1.7-1.4C736.7,262.2,740,266,744.2,268.4z
			 M719.4,264.2c1.2,0,2.3-0.1,3.4-0.3c0,0.1,0,0.2,0,0.3c0,4.9,1.7,9.5,4.7,13.2c-2.6,0.6-5.3,1-8.1,1h-3.7v-14.2H719.4z
			 M728.7,253.7c-2.6,2.2-5.9,3.4-9.2,3.4H707c3.9-4.3,9.5-7.1,15.8-7.1c2.8,0,5.6,0.6,8.2,1.7L728.7,253.7z M701.5,271.3
			c0-2.5,0.5-4.9,1.2-7.1h5.9v14.2h-5.9C702,276.2,701.5,273.8,701.5,271.3z M738.8,350.6l-5.9,4.8l6.2,18.5c1,3.1,1.5,6.3,1.5,9.5
			c0,16.6-13.5,30.1-30.1,30.1H657c-16.6,0-30.1-13.5-30.1-30.1c0-3.2,0.5-6.4,1.5-9.5l6.2-18.5l-5.9-4.8
			c-8.3-6.6-15.1-14.7-20.1-23.7l14.8-9.8v13.7l21.9,7.3l3.1,12.3l6.9-1.7l-4-16.1l-20.7-6.9v-11.1l20.8,3l1-7l-26.2-3.7l-20.7,13.8
			c-4.5-10.1-6.9-21.2-6.9-32.7c0-33.8,20.9-62.7,50.5-74.6l14,14l7.6,18.9l23.3,3.9l1.2-7l-19.3-3.2l-4.4-11h14l11.7-11.7l-5-5
			l-9.6,9.6h-14.8l-11-11c7.1-2.1,14.7-3.2,22.4-3.2h9.7c24.7,0,48,11.4,63.2,30.7c-5.2,1.7-10,4.4-14.2,8l-0.7,0.6
			c-4.3-2.4-9-3.8-14-3.8c-15.7,0-28.4,12.7-28.4,28.4c0,10.5,5.7,19.6,14.2,24.6v32.3c0,5.9,4.8,10.7,10.7,10.7
			c5.9,0,10.7-4.8,10.7-10.7v-6.3c0-1.4,0.8-2.6,2-3.2l6.4-3.2c3.6-1.8,5.9-5.5,5.9-9.5V290c4.3-4.9,7-11.3,7.1-18.3l4.8-4.2
			c2.6-2.2,5.9-3.4,9.2-3.4h0.1c2.3,7.6,3.6,15.5,3.6,23.6C769,312.3,758,335.2,738.8,350.6z M769,257.1c-7.3,0-13.3-5.5-14-12.6
			c3.3-1,6.8-1.6,10.3-1.6h3.7c3.9,0,7.1,3.2,7.1,7.1C776.1,253.9,772.9,257.1,769,257.1z"/>
		<path class="st2" d="M673.1,271.3c0-15.7-12.7-28.4-28.4-28.4c-15.7,0-28.4,12.7-28.4,28.4c0,15.7,12.7,28.4,28.4,28.4
			C660.4,299.7,673.1,287,673.1,271.3z M644.7,292.6c-11.8,0-21.3-9.6-21.3-21.3c0-11.8,9.6-21.3,21.3-21.3s21.3,9.6,21.3,21.3
			C666,283,656.5,292.6,644.7,292.6z"/>
		<path class="st2" d="M644.7,257.1c-6.9,0-14.2,5.7-14.2,14.2c0,8.5,7.3,14.2,14.2,14.2s14.2-5.7,14.2-14.2
			C658.9,262.8,651.6,257.1,644.7,257.1z M644.7,278.4c-3,0-7.1-2.7-7.1-7.1c0-4.4,4.1-7.1,7.1-7.1s7.1,2.7,7.1,7.1
			C651.8,275.7,647.7,278.4,644.7,278.4z"/>
		<path class="st2" d="M662.5,330.8v0.5c0,6.1,5,11.1,11.1,11.1c3,0,5.7-1.2,7.8-3.2l2.4-2.4l2.4,2.4c2.1,2.1,4.9,3.2,7.8,3.2
			c6.1,0,11.1-5,11.1-11.1v-0.5c0-2.5-0.9-5-2.4-6.9l-10.3-12.9c-2.1-2.6-5.2-4.1-8.5-4.1c-3.3,0-6.5,1.5-8.5,4.1l-10.3,12.9
			C663.3,325.8,662.5,328.3,662.5,330.8z M669.6,330.8c0-0.9,0.3-1.8,0.9-2.5l10.3-12.9c1.5-1.8,4.5-1.8,6,0l10.3,12.9
			c0.6,0.7,0.9,1.6,0.9,2.5v0.5c0,2.2-1.8,4-4,4c-1,0-2.1-0.4-2.8-1.2l-7.4-7.4l-7.4,7.4c-0.8,0.7-1.8,1.2-2.8,1.2c-2.2,0-4-1.8-4-4
			V330.8z"/>
	</g>
</g>
<g>
	<defs>
		<path id="SVGID_1_" d="M737.5,237.7c-8.1-1.1-16.7-4.4-24-0.7c-2.5,1.3-4.6,3.3-6.6,5.3c-6.6,6.4-13.3,13-16.8,21.4
			c-3.1,7.4-3.5,15.6-3.5,23.6c0,1.2,0,2.6,0.8,3.5c0.8,1,2.1,1.4,3.4,1.6c8.3,2,16.6,4,24.9,5.9c2.6,0.6,5.2,1.2,7.9,1.3
			c6.9,0.2,13.3-3.4,19.2-6.9c1.6-0.9,3.1-1.8,4.4-3.1c1.7-1.8,2.7-4.2,3.8-6.5c3.3-7,8-13.3,13.8-18.4c8.3,1.1,17.2-4.2,19.9-12.1
			s-1.1-17.7-8.7-21.4c-4.6-2.2-9.4-0.6-13.5,1.9c-4.5,2.7-9.7,4.1-14.9,4.7C744.1,238.1,740.8,238.1,737.5,237.7z"/>
	</defs>
	<clipPath id="SVGID_00000052792487227596138790000010842097830478876583_">
		<use xlink:href="#SVGID_1_"  style="overflow:visible;"/>
	</clipPath>
	<path style="clip-path:url(#SVGID_00000052792487227596138790000010842097830478876583_);fill:#FF0606;" d="M783,249.6
		c0-7.8-6.4-14.2-14.2-14.2h-3.7c-2,0-4,0.2-6,0.5c-16.5-22.6-42.7-36-70.7-36h-9.7c-48.2,0-87.5,39.3-87.5,87.5
		c0,26.7,12,51.6,32.8,68.3l2.1,1.7l-4.6,13.8c-1.3,3.8-1.9,7.8-1.9,11.8c0,20.5,16.7,37.2,37.2,37.2h53.5
		c20.5,0,37.2-16.7,37.2-37.2c0-4-0.6-8-1.9-11.8l-4.6-13.8l2.1-1.7c20.9-16.7,32.8-41.6,32.8-68.3c0-8.2-1.2-16.3-3.4-24.1
		C778.5,261.6,783,256.2,783,249.6z M755.5,259.1c-1.5,0.8-2.9,1.6-4.2,2.7l-1.3,1.1c-4.8-1.7-8.4-5.9-9.3-10.8l1.3-1.2
		c1.9-1.6,3.9-2.9,6-4.1C749,251.8,751.7,256.1,755.5,259.1z M715.5,298.4c2.3,0.6,4.6,0.9,7.1,0.9c5.2,0,10-1.4,14.2-3.8v10.1
		c0,1.4-0.8,2.6-2,3.2l-6.4,3.2c-3.6,1.8-5.9,5.5-5.9,9.5v6.3c0,2-1.6,3.6-3.6,3.6c-2,0-3.6-1.6-3.6-3.6V298.4z M722.6,292.2
		c-6.3,0-11.9-2.8-15.8-7.1h12.4c8.4,0,16.5-2.5,23.5-7.1C739.8,286.3,731.9,292.2,722.6,292.2z M744,268l-1.7,1.4
		c-2.4,2-5,3.7-7.7,5c-3.1-2.7-4.9-6.6-4.9-10.7c0-1,0.1-2,0.4-3c1.1-0.6,2.1-1.3,3-2.1l1.7-1.4C736.5,261.8,739.8,265.6,744,268z
		 M719.2,263.8c1.2,0,2.3-0.1,3.4-0.3c0,0.1,0,0.2,0,0.3c0,4.9,1.7,9.5,4.7,13.2c-2.6,0.6-5.3,1-8.1,1h-3.7v-14.2H719.2z
		 M728.5,253.3c-2.6,2.2-5.9,3.4-9.2,3.4h-12.4c3.9-4.3,9.5-7.1,15.8-7.1c2.8,0,5.6,0.6,8.2,1.7L728.5,253.3z M701.3,270.9
		c0-2.5,0.5-4.9,1.2-7.1h5.9V278h-5.9C701.8,275.8,701.3,273.4,701.3,270.9z M738.6,350.2l-5.9,4.8l6.2,18.5c1,3.1,1.5,6.3,1.5,9.5
		c0,16.6-13.5,30.1-30.1,30.1h-53.5c-16.6,0-30.1-13.5-30.1-30.1c0-3.2,0.5-6.4,1.5-9.5l6.2-18.5l-5.9-4.8
		c-8.3-6.6-15.1-14.7-20.1-23.7l14.8-9.8v13.7l21.9,7.3l3.1,12.3l6.9-1.7l-4-16.1l-20.7-6.9v-11.1l20.8,3l1-7l-26.2-3.7L605.3,320
		c-4.5-10.1-6.9-21.2-6.9-32.7c0-33.8,20.9-62.7,50.5-74.6l14,14l7.6,18.9l23.3,3.9l1.2-7l-19.3-3.2l-4.4-11h14l11.7-11.7l-5-5
		l-9.6,9.6h-14.8l-11-11c7.1-2.1,14.7-3.2,22.4-3.2h9.7c24.7,0,48,11.4,63.2,30.7c-5.2,1.7-10,4.4-14.2,8l-0.7,0.6
		c-4.3-2.4-9-3.8-14-3.8c-15.7,0-28.4,12.7-28.4,28.4c0,10.5,5.7,19.6,14.2,24.6v32.3c0,5.9,4.8,10.7,10.7,10.7
		c5.9,0,10.7-4.8,10.7-10.7v-6.3c0-1.4,0.8-2.6,2-3.2l6.4-3.2c3.6-1.8,5.9-5.5,5.9-9.5v-15.9c4.3-4.9,7-11.3,7.1-18.3l4.8-4.2
		c2.6-2.2,5.9-3.4,9.2-3.4h0.1c2.3,7.6,3.6,15.5,3.6,23.6C768.8,311.9,757.8,334.8,738.6,350.2z M768.8,256.7
		c-7.3,0-13.3-5.5-14-12.6c3.3-1,6.8-1.6,10.3-1.6h3.7c3.9,0,7.1,3.2,7.1,7.1C775.9,253.5,772.7,256.7,768.8,256.7z"/>
</g>
</svg>
