<?xml version="1.0" encoding="utf-8"?>
<!-- Generator: Adobe Illustrator 25.4.1, SVG Export Plug-In . SVG Version: 6.00 Build 0)  -->
<svg version="1.1" id="Слой_1" xmlns="http://www.w3.org/2000/svg" xmlns:xlink="http://www.w3.org/1999/xlink" x="0px" y="0px"
	 viewBox="0 0 128 299.1" style="enable-background:new 0 0 128 299.1;" xml:space="preserve">
<style type="text/css">
	.st0{stroke:#FF0000;stroke-width:4;stroke-miterlimit:10;}
	.st1{fill:#2B2B2B;}
	.st2{fill:#C10000;}
	.st3{fill:#FF0000;}
	.st4{stroke:#E0DB1E;stroke-width:4;stroke-miterlimit:10;}
	.st5{fill:#C4BF00;}
	.st6{fill:#E0DB1E;}
</style>
<g>
	<path class="st0" d="M27.8,191.2c-10.9,12-17,27.6-16.8,43.8c0,34.2,25.7,62,57.5,62s57.5-27.8,57.5-62s-25.7-62-57.5-62
		c-12.9,0-25.4,4.6-35.2,13"/>
	<path class="st0" d="M18.8,191.2c-10.9,12-17,27.6-16.8,43.8c0,34.2,25.7,62,57.5,62s57.5-27.8,57.5-62s-25.7-62-57.5-62
		c-12.9,0-25.4,4.6-35.2,13L18.8,191.2z"/>
	<path class="st1" d="M119.9,212.4h-4.7c-1.5-4.2-3.4-8.2-5.7-12.1h4.3C116.3,204.1,118.3,208.2,119.9,212.4L119.9,212.4z
		 M96.2,183.1h-2c-2-1.5-4-2.9-6.2-4.2C90.8,180,93.6,181.4,96.2,183.1z M98.8,187.1h3c3.4,2.7,6.4,5.9,9.1,9.3h-4
		C104.5,193,101.8,189.9,98.8,187.1L98.8,187.1z M94.1,287.1h2.2c-2.7,1.7-5.6,3.2-8.6,4.3C90,290.1,92.1,288.6,94.1,287.1z
		 M110.9,273.8c-2.6,3.4-5.7,6.5-9,9.3h-3.1c3-2.8,5.6-5.9,8-9.3H110.9z"/>
	<path d="M23.6,199.7c-0.9-0.7-2.1-0.5-2.8,0.3c0,0,0,0,0,0c-7.8,10.2-12,22.7-11.9,35.5c0,30.4,22.7,55.1,50.6,55.1
		s50.6-24.7,50.6-55.1s-22.7-55.1-50.6-55.1c-12.4,0.1-24.3,4.9-33.2,13.5c-0.9,0.7-1.1,1.9-0.4,2.8s1.9,1.1,2.8,0.4
		c0.1-0.1,0.2-0.2,0.3-0.3c8.2-7.9,19.1-12.4,30.5-12.4c25.7,0,46.6,22.9,46.6,51.1s-20.9,51.1-46.6,51.1s-46.6-22.9-46.6-51.1
		c0-12,3.9-23.6,11.1-33.1C24.7,201.6,24.5,200.4,23.6,199.7z"/>
	<g>
		<g>
			<g>
				<g>
					<path class="st2" d="M60.2,271.6c1.5,0,2.8,0.2,4.1,0c0.8-0.1,1.5-0.5,2.4-0.8c0,0,0.1,0.5,0.2,1c2.1-0.3,4.3,0.6,5.9-1.4
						c0.5,0.6,1.1,1.7,1.6,1.7c1.3,0,2.6-0.6,3.9-0.9c0.1,0,0.1-0.2,0.1-0.3c0.6-2.4-0.8-7.3-2.5-8.6c-1.3-1-2.6-1.8-3.9-2.7
						c0.6-1.4,1.5-1.6,2.4-1.3c1.2,0.5,2.4,1,3.4,1.9c1.2,1,2.2,0.9,3.2-0.1c1-1,2-2,3-3c1.4-1.4,2.5-3,2.1-5.5
						c-0.3-1.9-0.6-3.7-0.7-5.6c-0.1-6.4,0.3-12.7,1.8-18.9c0.5-2.2,0.4-4.8,0.3-7.2c-0.2-2.6-0.8-5.1-1.2-7.6
						c-0.6-3.9-2.1-7.2-4.3-9.6c-3.8-4.3-8.3-7.2-13.6-7.3c-4.6-0.1-9.2-0.3-13.8-0.2c-1.6,0-3.3,0.3-4.9,0.9
						c-3.9,1.4-7.5,3.6-10.2,7.7c-1.6,2.5-3.1,5.1-3.6,8.4c-0.4,2.7-0.6,5.5-1,8.3c-0.5,3.4-0.3,6.7,0.3,10c0.4,2.2,0.6,4.6,0.7,6.9
						c0.2,4.7-0.4,9.2-1.2,13.8c-0.2,1.2,0.3,2.9,1,4c0.9,1.5,2.2,2.6,3.3,3.9c1.3,1.5,2.2,1.6,3.8,0.7c1.3-0.7,2.8-1.2,4.2-1.7
						c0.2-0.1,0.6,0.2,0.8,0.5c0.1,0.1-0.1,0.6-0.2,1c-0.8,2-2.5,2.6-3.8,3.3c-0.9,0.4-1.4,0.9-1.5,1.8c-0.3,1.7-0.5,3.4-0.5,5.1
						c0,0.6,0.5,1.6,0.9,1.7c1.5,0.2,3,0.6,4.3-1.2c0.2,2.3,1.4,1.3,2.3,1.4c0.9,0.1,1.8,0.1,2.7,0.1c0.4,0,0.8-1.1,1.3-1.4
						c1.7,1.9,4,1.4,5.9,1.6c0.4-1,0.6-1.6,1.1-2.7C60.3,270,60.3,270.7,60.2,271.6z"/>
					<path d="M56.7,236.2c0.1,2.8-1,3.6-2.1,4.4c-2.4,1.9-5,2.5-7.6,2.3c-2.6-0.1-3.6-2.3-3.6-6.6c0-0.8,0-1.6,0-2.3
						c0.1-4,1.4-5.7,3.8-4.3C50.6,231.6,53.7,234.1,56.7,236.2z"/>
					<path d="M65.2,252.6c-0.9,0.2-1.6,0.7-1.9,0.4c-1.6-1.2-3.1-1.4-4.8-0.1c-0.2,0.2-0.9,0-1-0.2c-0.2-0.5-0.3-1.3-0.2-1.7
						c0.8-2.4,1.7-4.8,2.7-7.1c0.2-0.5,1.3-0.8,1.4-0.7C62.7,246.1,63.8,249.1,65.2,252.6z"/>
					<path d="M66.4,236.4c-0.2,2.8,0.9,3.6,2,4.5c2.3,2,4.9,2.7,7.5,2.6c2.6,0,3.7-2.2,3.9-6.4c0-0.8,0-1.6,0-2.3
						c0.1-4-1.1-5.8-3.7-4.4C72.7,232.1,69.5,234.4,66.4,236.4z"/>
				</g>
			</g>
		</g>
		<g>
			<g>
				<g>
					<path class="st3" d="M56.8,271.7c1.5,0,2.8,0.2,4.1,0c0.8-0.1,1.5-0.5,2.4-0.8c0,0,0.1,0.5,0.2,1c2.1-0.3,4.3,0.6,5.9-1.4
						c0.5,0.6,1.1,1.7,1.6,1.7c1.3,0,2.6-0.6,3.9-0.9c0.1,0,0.1-0.2,0.1-0.3c0.6-2.4-0.8-7.3-2.5-8.6c-1.3-1-2.6-1.8-3.9-2.7
						c0.6-1.4,1.5-1.6,2.4-1.3c1.2,0.5,2.4,1,3.4,1.9c1.2,1,2.2,0.9,3.2-0.1c1-1,2-2,3-3c1.4-1.4,2.5-3,2.1-5.5
						c-0.3-1.9-0.6-3.7-0.7-5.6c-0.1-6.4,0.3-12.7,1.8-18.9c0.5-2.2,0.4-4.8,0.3-7.2c-0.2-2.6-0.8-5.1-1.2-7.6
						c-0.6-3.9-2.1-7.2-4.3-9.6c-3.8-4.3-8.3-7.2-13.6-7.3c-4.6-0.1-9.2-0.3-13.8-0.2c-1.6,0-3.3,0.3-4.9,0.9
						c-3.9,1.4-7.5,3.6-10.2,7.7c-1.6,2.5-3.1,5.1-3.6,8.4c-0.4,2.7-0.6,5.5-1,8.3c-0.5,3.4-0.3,6.7,0.3,10c0.4,2.2,0.6,4.6,0.7,6.9
						c0.2,4.7-0.4,9.2-1.2,13.8c-0.2,1.2,0.3,2.9,1,4c0.9,1.5,2.2,2.6,3.3,3.9c1.3,1.5,2.2,1.6,3.8,0.7c1.3-0.7,2.8-1.2,4.2-1.7
						c0.2-0.1,0.6,0.2,0.8,0.5c0.1,0.1-0.1,0.6-0.2,1c-0.8,2-2.5,2.6-3.8,3.3c-0.9,0.4-1.4,0.9-1.5,1.8c-0.3,1.7-0.5,3.4-0.5,5.1
						c0,0.6,0.5,1.6,0.9,1.7c1.5,0.2,3,0.6,4.3-1.2c0.2,2.3,1.4,1.3,2.3,1.4c0.9,0.1,1.8,0.1,2.7,0.1c0.4,0,0.8-1.1,1.3-1.4
						c1.7,1.9,4,1.4,5.9,1.6c0.4-1,0.6-1.6,1.1-2.7C56.9,270.1,56.8,270.8,56.8,271.7z"/>
					<path d="M53.3,236.3c0.1,2.8-1,3.6-2.1,4.4c-2.4,1.9-5,2.5-7.6,2.3c-2.6-0.1-3.6-2.3-3.6-6.6c0-0.8,0-1.6,0-2.3
						c0.1-4,1.4-5.7,3.8-4.3C47.1,231.7,50.3,234.2,53.3,236.3z"/>
					<path d="M61.8,252.7c-0.9,0.2-1.6,0.7-1.9,0.4c-1.6-1.2-3.1-1.4-4.8-0.1c-0.2,0.2-0.9,0-1-0.2c-0.2-0.5-0.3-1.3-0.2-1.7
						c0.8-2.4,1.7-4.8,2.7-7.1c0.2-0.5,1.3-0.8,1.4-0.7C59.2,246.2,60.4,249.2,61.8,252.7z"/>
					<path d="M63,236.5c-0.2,2.8,0.9,3.6,2,4.5c2.3,2,4.9,2.7,7.5,2.6c2.6,0,3.7-2.2,3.9-6.4c0-0.8,0-1.6,0-2.3
						c0.1-4-1.1-5.8-3.7-4.4C69.3,232.2,66.1,234.5,63,236.5z"/>
				</g>
			</g>
		</g>
	</g>
</g>
<g>
	<path class="st4" d="M27.8,20.2C16.9,32.1,10.9,47.8,11,64c0,34.2,25.7,62,57.5,62S126,98.2,126,64S100.3,2,68.5,2
		C55.6,2,43.1,6.6,33.3,15"/>
	<path class="st4" d="M18.8,20.2C7.9,32.1,1.9,47.8,2,64c0,34.2,25.7,62,57.5,62S117,98.2,117,64S91.3,2,59.5,2
		C46.6,2,34.1,6.6,24.3,15L18.8,20.2z"/>
	<path class="st1" d="M119.9,41.3h-4.7c-1.5-4.2-3.4-8.2-5.7-12.1h4.3C116.3,33.1,118.3,37.1,119.9,41.3L119.9,41.3z M96.2,12h-2
		c-2-1.5-4-2.9-6.2-4.2C90.8,9,93.6,10.4,96.2,12z M98.8,16h3c3.4,2.7,6.4,5.9,9.1,9.3h-4C104.5,21.9,101.8,18.8,98.8,16L98.8,16z
		 M94.1,116h2.2c-2.7,1.7-5.6,3.2-8.6,4.3C90,119,92.1,117.6,94.1,116z M110.9,102.7c-2.6,3.4-5.7,6.5-9,9.3h-3.1
		c3-2.8,5.6-5.9,8-9.3H110.9z"/>
	<path d="M23.6,28.6c-0.9-0.7-2.1-0.5-2.8,0.3c0,0,0,0,0,0C13,39.2,8.8,51.7,8.9,64.5c0,30.4,22.7,55.1,50.6,55.1
		s50.6-24.7,50.6-55.1S87.4,9.4,59.5,9.4C47.1,9.5,35.2,14.3,26.3,23c-0.9,0.7-1.1,1.9-0.4,2.8s1.9,1.1,2.8,0.4
		c0.1-0.1,0.2-0.2,0.3-0.3c8.2-7.9,19.1-12.4,30.5-12.4c25.7,0,46.6,22.9,46.6,51.1s-20.9,51.1-46.6,51.1S12.9,92.7,12.9,64.5
		c0-12,3.9-23.6,11.1-33.1C24.7,30.6,24.5,29.3,23.6,28.6z"/>
	<g>
		<g>
			<g>
				<g>
					<path class="st5" d="M60.2,100.5c1.5,0,2.8,0.2,4.1,0c0.8-0.1,1.5-0.5,2.4-0.8c0,0,0.1,0.5,0.2,1c2.1-0.3,4.3,0.6,5.9-1.4
						c0.5,0.6,1.1,1.7,1.6,1.7c1.3,0,2.6-0.6,3.9-0.9c0.1,0,0.1-0.2,0.1-0.3c0.6-2.4-0.8-7.3-2.5-8.6c-1.3-1-2.6-1.8-3.9-2.7
						c0.6-1.4,1.5-1.6,2.4-1.3c1.2,0.5,2.4,1,3.4,1.9C79,90.1,80,90,81,89c1-1,2-2,3-3c1.4-1.4,2.5-3,2.1-5.5
						c-0.3-1.9-0.6-3.7-0.7-5.6c-0.1-6.4,0.3-12.7,1.8-18.9c0.5-2.2,0.4-4.8,0.3-7.2c-0.2-2.6-0.8-5.1-1.2-7.6
						c-0.6-3.9-2.1-7.2-4.3-9.6c-3.8-4.3-8.3-7.2-13.6-7.3c-4.6-0.1-9.2-0.3-13.8-0.2c-1.6,0-3.3,0.3-4.9,0.9
						c-3.9,1.4-7.5,3.6-10.2,7.7c-1.6,2.5-3.1,5.1-3.6,8.4c-0.4,2.7-0.6,5.5-1,8.3c-0.5,3.4-0.3,6.7,0.3,10c0.4,2.2,0.6,4.6,0.7,6.9
						c0.2,4.7-0.4,9.2-1.2,13.8c-0.2,1.2,0.3,2.9,1,4c0.9,1.5,2.2,2.6,3.3,3.9c1.3,1.5,2.2,1.6,3.8,0.7c1.3-0.7,2.8-1.2,4.2-1.7
						c0.2-0.1,0.6,0.2,0.8,0.5c0.1,0.1-0.1,0.6-0.2,1c-0.8,2-2.5,2.6-3.8,3.3c-0.9,0.4-1.4,0.9-1.5,1.8c-0.3,1.7-0.5,3.4-0.5,5.1
						c0,0.6,0.5,1.6,0.9,1.7c1.5,0.2,3,0.6,4.3-1.2c0.2,2.3,1.4,1.3,2.3,1.4c0.9,0.1,1.8,0.1,2.7,0.1c0.4,0,0.8-1.1,1.3-1.4
						c1.7,1.9,4,1.4,5.9,1.6c0.4-1,0.6-1.6,1.1-2.7C60.3,98.9,60.3,99.6,60.2,100.5z"/>
					<path d="M56.7,65.1c0.1,2.8-1,3.6-2.1,4.4c-2.4,1.9-5,2.5-7.6,2.3s-3.6-2.3-3.6-6.6c0-0.8,0-1.6,0-2.3c0.1-4,1.4-5.7,3.8-4.3
						C50.6,60.6,53.7,63,56.7,65.1z"/>
					<path d="M65.2,81.5c-0.9,0.2-1.6,0.7-1.9,0.4c-1.6-1.2-3.1-1.4-4.8-0.1c-0.2,0.2-0.9,0-1-0.2c-0.2-0.5-0.3-1.3-0.2-1.7
						c0.8-2.4,1.7-4.8,2.7-7.1c0.2-0.5,1.3-0.8,1.4-0.7C62.7,75.1,63.8,78,65.2,81.5z"/>
					<path d="M66.4,65.3c-0.2,2.8,0.9,3.6,2,4.5c2.3,2,4.9,2.7,7.5,2.6c2.6,0,3.7-2.2,3.9-6.4c0-0.8,0-1.6,0-2.3
						c0.1-4-1.1-5.8-3.7-4.4C72.7,61,69.5,63.4,66.4,65.3z"/>
				</g>
			</g>
		</g>
		<g>
			<g>
				<g>
					<path class="st6" d="M56.8,100.6c1.5,0,2.8,0.2,4.1,0c0.8-0.1,1.5-0.5,2.4-0.8c0,0,0.1,0.5,0.2,1c2.1-0.3,4.3,0.6,5.9-1.4
						c0.5,0.6,1.1,1.7,1.6,1.7c1.3,0,2.6-0.6,3.9-0.9c0.1,0,0.1-0.2,0.1-0.3c0.6-2.4-0.8-7.3-2.5-8.6c-1.3-1-2.6-1.8-3.9-2.7
						c0.6-1.4,1.5-1.6,2.4-1.3c1.2,0.5,2.4,1,3.4,1.9c1.2,1,2.2,0.9,3.2-0.1c1-1,2-2,3-3c1.4-1.4,2.5-3,2.1-5.5
						c-0.3-1.9-0.6-3.7-0.7-5.6c-0.1-6.4,0.3-12.7,1.8-18.9c0.5-2.2,0.4-4.8,0.3-7.2c-0.2-2.6-0.8-5.1-1.2-7.6
						c-0.6-3.9-2.1-7.2-4.3-9.6c-3.8-4.3-8.3-7.2-13.6-7.3c-4.6-0.1-9.2-0.3-13.8-0.2c-1.6,0-3.3,0.3-4.9,0.9
						c-3.9,1.4-7.5,3.6-10.2,7.7c-1.6,2.5-3.1,5.1-3.6,8.4c-0.4,2.7-0.6,5.5-1,8.3c-0.5,3.4-0.3,6.7,0.3,10c0.4,2.2,0.6,4.6,0.7,6.9
						c0.2,4.7-0.4,9.2-1.2,13.8c-0.2,1.2,0.3,2.9,1,4c0.9,1.5,2.2,2.6,3.3,3.9c1.3,1.5,2.2,1.6,3.8,0.7c1.3-0.7,2.8-1.2,4.2-1.7
						c0.2-0.1,0.6,0.2,0.8,0.5c0.1,0.1-0.1,0.6-0.2,1c-0.8,2-2.5,2.6-3.8,3.3c-0.9,0.4-1.4,0.9-1.5,1.8c-0.3,1.7-0.5,3.4-0.5,5.1
						c0,0.6,0.5,1.6,0.9,1.7c1.5,0.2,3,0.6,4.3-1.2c0.2,2.3,1.4,1.3,2.3,1.4c0.9,0.1,1.8,0.1,2.7,0.1c0.4,0,0.8-1.1,1.3-1.4
						c1.7,1.9,4,1.4,5.9,1.6c0.4-1,0.6-1.6,1.1-2.7C56.9,99,56.8,99.7,56.8,100.6z"/>
					<path d="M53.3,65.2c0.1,2.8-1,3.6-2.1,4.4c-2.4,1.9-5,2.5-7.6,2.3s-3.6-2.3-3.6-6.6c0-0.8,0-1.6,0-2.3c0.1-4,1.4-5.7,3.8-4.3
						C47.1,60.7,50.3,63.1,53.3,65.2z"/>
					<path d="M61.8,81.7c-0.9,0.2-1.6,0.7-1.9,0.4c-1.6-1.2-3.1-1.4-4.8-0.1c-0.2,0.2-0.9,0-1-0.2c-0.2-0.5-0.3-1.3-0.2-1.7
						c0.8-2.4,1.7-4.8,2.7-7.1c0.2-0.5,1.3-0.8,1.4-0.7C59.2,75.2,60.4,78.1,61.8,81.7z"/>
					<path d="M63,65.4c-0.2,2.8,0.9,3.6,2,4.5c2.3,2,4.9,2.7,7.5,2.6c2.6,0,3.7-2.2,3.9-6.4c0-0.8,0-1.6,0-2.3
						c0.1-4-1.1-5.8-3.7-4.4C69.3,61.1,66.1,63.5,63,65.4z"/>
				</g>
			</g>
		</g>
	</g>
</g>
</svg>
