<?xml version="1.0" encoding="utf-8"?>
<!-- Generator: Adobe Illustrator 25.4.1, SVG Export Plug-In . SVG Version: 6.00 Build 0)  -->
<svg version="1.1" id="Layer_1" xmlns="http://www.w3.org/2000/svg" xmlns:xlink="http://www.w3.org/1999/xlink" x="0px" y="0px"
	 viewBox="0 0 1090.2 137.3" style="enable-background:new 0 0 1090.2 137.3;" xml:space="preserve">
<style type="text/css">
	.st0{fill-rule:evenodd;clip-rule:evenodd;fill:#991B1E;}
</style>
<g>
	<path class="st0" d="M1090.2,46.8c0.2,2.3-0.8,1.9-1.7,1.9C1088.6,46.3,1089.5,46.1,1090.2,46.8z"/>
	<path class="st0" d="M1089.1,43.6c-1.6,0.6-2-1.4-2.9-2.6c1.1-0.8,1.4-3.3,2.9-3.2C1088.9,40.8,1089.6,41.5,1089.1,43.6z"/>
	<path class="st0" d="M1082.2,43.6c-0.8,2.6-2.5,0.8-3.7,0.6C1079.2,42.8,1081.1,44,1082.2,43.6z"/>
	<path class="st0" d="M1069.4,30.2c-0.2,2.3-2.1,0.9-3.1,1.3C1067,30.4,1068.1,30.1,1069.4,30.2z"/>
	<path class="st0" d="M1060.5,100.5c0-1.8,0.7-1.8,1.4-1.9c-0.3-1.8-1.8-1.2-2.9-1.3c0.5-3,4.9-1,4,1.3c2.7,0.7,3.5-2.7,6.3-1.9
		C1067.5,107,1063.2,98,1060.5,100.5z"/>
	<path class="st0" d="M1055.4,97.3c-0.5,0.8-1.6,1.7-2,0.6C1054,96.8,1054.7,96.8,1055.4,97.3z"/>
	<path class="st0" d="M1053.1,104.3c-2.1,4.2-6.5,2.1-9.1,4.5c-0.9-4-3.6-3.8-6.3-3.8C1043.2,103.4,1048.1,103.3,1053.1,104.3z"/>
	<path class="st0" d="M1037.7,46.8c0.3,2-2.6,2-2.3,0C1036.4,47,1036.8,47.8,1037.7,46.8z"/>
	<path class="st0" d="M998.3,25.7c-1.9,1.8-5.5,2-7.4-0.6C993.3,26.3,996.7,24,998.3,25.7z"/>
	<path class="st0" d="M972.9,121.6c-2.2,1.6-4.3-0.5-6.3,1.3C967.7,119.3,971.1,120.9,972.9,121.6z"/>
	<path class="st0" d="M956.9,119c0.1,1-0.3,1.1-0.3,1.9c-2.6-3.3-7.6,0.6-9.7-1.3C949.7,116.4,954,119.8,956.9,119z"/>
	<path class="st0" d="M433.2,19.9c0.5,1.3-2.5,0.4-3.4,0.6C429.3,19.3,432.3,20.2,433.2,19.9z"/>
	<path class="st0" d="M388.4,133.1c0.7,1.2-1.9,0.4-2.6,0.6C385.1,132.6,387.7,133.3,388.4,133.1z"/>
	<path class="st0" d="M387.5,136.3c-1.1,1.8-1.8,0.6-3.4,0.6C384.8,134.3,386.1,136.9,387.5,136.3z"/>
	<path class="st0" d="M383.8,5.9c0.7,1.2-1.9,0.4-2.6,0.6C380.5,5.3,383.1,6.1,383.8,5.9z"/>
	<path class="st0" d="M373.8,9.1c1.3,0.6-1.6,1.1-2,0.6C371.6,9.5,372.2,8.4,373.8,9.1z"/>
	<path class="st0" d="M329.2,124.2c-0.7,2.7-2.2,0.2-3.4,1.3C326.4,122.4,328.1,125.4,329.2,124.2z"/>
	<path class="st0" d="M324.7,124.2c0,1.3-3.7,2.5-4-0.6C322.2,123.4,323.5,123.5,324.7,124.2z"/>
	<path class="st0" d="M324.1,116.5c0.6,1.2-2.4,0.7-2.9,0C322,114.5,323,117.3,324.1,116.5z"/>
	<path class="st0" d="M302.7,6.5c-0.9,2-4.8,1.4-6.9,0.6C297.6,5.7,300.5,6.9,302.7,6.5z"/>
	<path class="st0" d="M292.4,6.5c0.6,1.2-2.1,0.4-2.9,0.6C288.9,5.9,291.6,6.7,292.4,6.5z"/>
	<path class="st0" d="M271,11c-0.7,1.2-1.7,1.5-2.6,0.6C268.7,10.2,270.2,11.4,271,11z"/>
	<path class="st0" d="M260.1,9.1c-2.3,0.7-9,2.9-11.7-0.6C251.9,9.6,256.2,8.9,260.1,9.1z"/>
	<path class="st0" d="M258.4,124.2c0,2.2-1.1,1.9-2,1.9C257.2,125.6,257.5,124.2,258.4,124.2z"/>
	<path class="st0" d="M253,5.2c-2.3,3.5-4.9-1.6-6.9,0C248,3.8,249.1,6.2,253,5.2z"/>
	<path class="st0" d="M241,8.4c-0.6,1-2.8,0.9-3.1,0.6C238.9,7.6,239.7,8.2,241,8.4z"/>
	<path class="st0" d="M239.6,122.9c-5.2,2.3-9.5,1.2-14.8,0.6c-4.2-0.4-8.6,1-11.7-2.6C220.2,116.5,232.3,121.3,239.6,122.9z"/>
	<path class="st0" d="M203.9,5.9c0.7,1.2-1.9,0.4-2.6,0.6C200.6,5.3,203.2,6.1,203.9,5.9z"/>
	<path class="st0" d="M195,129.9c-0.9,1.2-2.1-0.5-3.4,0.6C192.1,128.5,194.2,129.2,195,129.9z"/>
	<path class="st0" d="M175.6,129.3c-0.3,1.3-2.2,0.7-2.6,0C173.6,127.4,174.5,130.1,175.6,129.3z"/>
	<path class="st0" d="M171.6,0.8c-5.5,2.6-8.2,0.5-12.6,1.3C162.3-0.3,167.8-0.5,171.6,0.8z"/>
	<path class="st0" d="M170.2,128.6c0.5,1.3-2.3,0.4-3.1,0.6C167.2,126.7,168.8,129,170.2,128.6z"/>
	<path class="st0" d="M18.6,67.3c-1.7,0.9-4.6,2.5-7.4,2.6c-1.8,0-4.1-2.2-6-1.9C3.3,68.1,1,70.6,0,65.3
		C5.9,64.7,14.1,64.5,18.6,67.3z"/>
	<path class="st0" d="M104.5,51.3c-2.5-1.4-4.6-2.3-7.1-3.2c-1.3-0.5-3.2-2-4-1.9c-1.5,0.2-3.5,5.7-5.7,1.3c-3.8,3.7-9.1-0.5-10-7.7
		c2.5,1.4,7.2,2.2,10.3,0c-0.1-0.9-2.3-1.5-0.9-1.9c0.9,1.6,0.1-0.5,0-1.9c2.4,0.6,5.1,0,8-0.6c-0.1-0.9-0.7-0.5-1.1-0.6
		c2.5-0.1,9.6,0.1,12.8,0c-0.6-1.7-2.4-1.7-3.1-1.3c0-3.4,1.8-1.5,2.3-0.6c0.9,1.3,0.4-3.6,0.9-1.3c4.7,3.3,13.5,3.5,20.6,1.3
		c-1.2-1.8-4.1,0.3-4.9-2.6c1.2,0,2.5,0,3.7,0c0-2.4-3.6-0.8-0.9-1.9c1.3-0.5,0.7-1.7-0.6-1.3c1.1-1.5,3.3-0.2,4.9-0.6
		c-0.6-1.5-2.5,0-3.1-1.3c2.8-1.7,4-1,8-1.3c0-2-1.1-0.8-2.3-1.3c1-3.5,1.5-2.3,3.1-2.6c-0.5-1.1,0.4-2.5-0.9-2.6
		c6.2-2.7,12-2.9,16.8-3.8c-1.6-2.3-5.1-0.1-6-3.8c4.1,1.1,3.9-2.6,7.7-2.6c0.1,1.8-1.6-0.5-1.4,1.3c2.8,2.5,6.7-0.4,10.3,0
		c0.1-1.1-0.2-1.2-0.6-1.3c7.2-2.1,15-3.2,25.4-3.2c-0.3-1.1-1.2-0.7-1.7-1.3c1.7-1.7,6.7-2.4,8.3,0c-1.3-0.4-3-0.5-4.3,0.6
		c1.4,0.2,3.3,1.2,5.4,1.3c-1.6,3.7-7.8,2.3-11.7,4.5c16.2,1.2,37.5-1,53.4-0.6c-2.6,2.2-7.5-0.2-10.9,1.9
		c16.2,1.9,32.4,3.9,49.1,2.6c-0.7-1.2-1.9-1.4-3.1-1.3c0.4-0.7,0.7-4.2-0.6-3.2c2.7-2.4,8.2-0.7,11.4,1.3c-2.4,2.3-7-1.3-10.3,0.6
		c6.2,4.7,14,1.9,18.3,3.2c0.6-1.4-0.3-2.4,0.3-3.8c4.1-1.3,10.2,0,13.4-1.3c0-0.7-0.5-0.5-0.9-0.6c0.3-0.7,2-3.9,2-1.3
		c-0.3,0-0.6,0-0.9,0c0.1,0.9,1.2,1.2,0,1.3c4.3-1.7,9.3,0.8,13.7-1.3c0.8,5.5,6.2,2,8.9,1.9c1.6,0,3.1,1.5,4.6,1.3
		c5.4-0.7,10.4-3,16.6-1.3c-0.2-0.6-0.7-0.7-0.6-1.9c1,0,2.1,0,3.1,0c0.9,1-1.2,0.6-1.7,0.6c3.9,3,10.4,0.1,14.6,2.6
		c0.8,0,1.5,0,2.3,0c0.9,0.9-1,0.6-1.4,0.6c-11.5-1.1-23.9,3.7-35.7,1.9c-2.6-0.4-3.5,0-5.4,0c-0.1,1.7,1.6-0.6,1.1,1.9
		c15.4,1.5,29.2-0.3,43.4,0.6c14.4,1,28.1,1.1,41.7-1.9c-7.8-0.5-19,0.5-27.1-0.6c5.6-3.3,11.4-1.6,17.4-1.9
		c8.1-0.5,16.5-2.8,26.3-3.2c-2,2.1-4.5,4-6.6,2.6c0.3,0.8,0.2,1.3-0.3,1.3c1.7,3.6,7.5-0.2,10.3,2.6c0.1,1.7-0.6,1.6-1.1,1.9
		c1.5,1,3.4,1.3,5.4,1.3c-1.8,2.2-7.8,0.2-10.9,1.3c-0.5-0.5,0-1.2,0-1.9c-1.9,2.8-4.8,0.6-6.9,0.6c0.8,2.4-7.1,1-9.1,3.8
		c1.4,2.6,4.8,2.6,6.6,2.6c6.1,0,12.8-0.8,18.6-1.3c4.5-0.3,10.4-2.7,17.4-3.2c1.3,0.1-0.3,0.9,0,2.6c9.9-0.6,478-0.6,486.3-0.6
		c5,0,11.5,2.7,16.8,0c5.6,3.8,16.1,1.3,22.6,1.9c0,3.2,6.5,1.2,9.1,2.6c-0.5,1.4-2.2,0.1-2.6,1.9c4,2.1,9.3,3.7,13.7,1.3
		c0.1,4.3,2.5,3,4,2.6c-0.3,1-0.8,1.6-1.1,2.6c1.8,3.3,3.4,1.9,5.7,3.2c0.1,1.4-0.4,1.2-0.9,1.3c0.3,1.5,1.3,1.3,2.3,1.3
		c-0.2,0.5-0.3,1-0.3,1.9c12.2-0.1,23.1-0.3,33.4-5.1c-2.4,1.2-0.8,3.4,1.4,2.6c-2.6,2.8-5.3,6.7-8.3,2.6c-1.3,2-3.6,1.8-4.3,5.1
		c2.6,1.6,5.5-1.4,6.3,4.5c1.2-1.9,3.7-1.1,5.7-1.3c0.1-1.4-0.4-1.2-0.9-1.3c0.3-2.7,1,0.5,1.7,0.6c13.4-3.3,25.3-6,36.3-3.2
		c-1.2,2.9-3.8-1.2-4.6,2.6c3,2.8,6.5-3,10.3,0.6c-2.6,3.4-6.9,0.2-10.3,2.6c0.9,1.3-1.1,1.7,0.3,1.9c-3.4,4.2-8.5,0.7-11.4,5.8
		c0.1-3.2-1.8-2-2.9-2.6c-0.5,0.8,0.3,2.8-0.3,4.5c8.5-0.2,17.1-4.8,24.6-5.8c0.5,1.3-0.1,3.6-0.3,5.1c-9.7-0.7-18.8,5.2-27.1,1.3
		c-0.6,0.2,0.4,1.7-0.3,2.6c9.9,3.3,20.2-4.4,30.3,0.6c-0.9,2-1.9,3.9-2.3,7c1.1,1.4,3-0.9,4-1.9c0.7,1.6,1.9,2.2,1.7,5.8
		c-0.8,0.9-1.6,1.7-2.6,0.6c-0.2,2.1,0.4,2,0.9,2.6c-3.1,3.4-5.8,3.9-9.7,6.4c0.5,2.3,1.7-0.8,1.7,1.9c-1.9,6-6.1-1-8.9,1.3
		c0,0.7,0.5,0.5,0.9,0.6c-0.6,1.5-2.3,5.1-3.4,5.8c-0.2,0.1-1.1-1.4-1.4-1.3c-0.3,0.1-0.2,1.4-0.6,1.3c-1.1-0.2,0.2-0.9-0.9-1.9
		c-1.6-1.7-7,0.5-9.1,1.3c-1.3,0.5-2.9,1.4-4,3.2c0,1.4,1,0.3,1.4,0.6c-7.6,1.1-16.1,4.1-22.8,9c0.4,2.1,3.2-1.2,3.1,1.9
		c-8.1,0.4-12.8,0.4-20.3,0c-0.6,0.2-0.6,1.7-1.1,1.9c1,1.6-0.3,3.5,0.3,5.1c-2,0.9-2.6,6.7-4.6,7.7c-2.1,1.1-4.8-2.9-8-1.3
		c0.2-0.6,0.5-1,0.9-1.3c-5.7-3.8-14.7,0.2-21.1,0c-0.4,0.1-0.1,1.9-0.6,1.9c-1.4,0.3-2.4-0.2-3.4-0.6c1.3-1,2.7-3.9,4.6-1.9
		c-0.2-3.1-2-2-2.6-2.6c1.9-0.7,3.5-2,5.7-1.9c-8.6-2.3-12,0.1-20,0.6c0.3-4.1,2.7,0.2,4-1.9c-8.8-4-16.2,0.8-25.1,0.6
		c-0.4,0.2-0.3,1.3,0,1.3c-27.6,0.8-519.6,2.4-547.1,4.5c0.4,1.7,2.4-0.3,2.9,1.3c-8,3.9-20.9,3-30.3,1.9c-0.1-1.8,1.1-0.6,1.1-1.9
		c-3.2-2.7-9.3-1.2-13.1-1.9c-0.3,0.8-0.2,1.3,0.3,1.3c-2.6,1.9-4.6,0.7-7.4,0.6c0.4-1,1.1-1.3,2-1.3c-3.1-2.4-5,0.3-8.6,0
		c1.8-4.9,6.4-0.3,8.3-2.6c-3.7-1.5-9.9-0.8-13.7-0.6c-3.2,0.2-7.3,1-9.7-1.9c-0.4,0.3-0.2,2-1.1,1.3c0.1-0.7,0.6-0.4,0.6-1.3
		c-28-2.6-61.8-4.3-94.8-4.5c1.7,2.1,3.9,2.1,5.7,2.6c-8.1,1.7-16.2-0.4-23.7,1.9c-7.1,2.2-15.3,1.4-23.1,1.9
		c-4.5,0.3-9,1.9-12.9,1.3c-3.9-0.7-9.2,2.5-13.4,0.6c0,1.6-4.4,3-5.4,1.3c-1.5,1.8-7.3,1.2-11.1,1.3c-5.3,0.1-13.5-1.3-19.1,0
		c-2.2,0.5-4.2,1.5-6.3,1.3c-13.4-1.2-25.7,1.7-40-3.8c10.3-0.5,18.3-4.1,30-2.6c-0.3-1.4-1.1-1.8-1.7-2.6c0.5,2.1-2.1,1-3.1,0
		c-0.4,0.3,0,0.7,0.3,0.6c-10.2-1.8-24.4-1.6-36.3-4.5c-0.9,0.2-0.6-2.5-1.4-2.6c-2.2,1.2-4.4-1.3-6.3-0.6c3.9-6.5,10-4.6,15.4-7
		c-0.7-1.7,0.5-0.5,0.3-2.6c-2.9-1.3-10-1.2-14-1.9c0.5-0.9,2.3-1.1,2.6-0.6c-1.7-4.2-6.8-3.2-9.4-3.2c6-1.7,14.5-7,19.1-1.3
		c3.7-0.2,5.2-2.7,8-3.8c-0.8-1.5-2.5-0.8-2.6-3.8c1.7,1,4.1,2,5.4,1.9c0.9-0.4-0.3-1.4,0-2.6c0.4,0,1.2,2.4,1.4,0.6
		c-1.1-3.3-3.5-2.5-5.1-3.2c-0.3,0.8-0.2,1.3,0.3,1.3c-1.5,2.6-2.6-1.5-4.6-1.3c3.3-0.4,5.7-3,8.3-5.1c-2.4-3.3-5.6-5-8.6-7
		c0.8-2,2,0.7,3.1,0c-1.7-3.1-3.6-1.7-6-3.2c1.7-2.7,4.9,1.6,7.7,0.6c-0.2-0.7-0.7-0.7-0.6-1.9c7.9-4.1,15.7,3.7,22.8,0.6
		c-1-1.4-2-0.5-2.9-1.3c2.2-1.6,3.9-2.4,6.9-1.9c-0.9-2.3-3.5-0.8-4.9-1.9c0.1-0.9,0.7-0.5,1.1-0.6c-2.5-4-5.8-0.6-9.7-3.8
		c-3.6,4.5-7.9,1.2-12.6,1.3c-0.9,0.4-0.4,1.7-0.3,3.2c-0.6-2.7-2.8-1.7-3.7-3.8c0.9-3.8,4.4-1.7,6.3-3.2c0.4,0.3,0,0.7-0.3,0.6
		C90.4,50.8,96.5,53.5,104.5,51.3z M1026.5,44.9c-4.3-0.4-8.2-3.9-12.6-0.6c0.9,0.2,1.9-0.1,2,1.9c-0.5,2.5-1.8,0.2-2.6,1.3
		c2.5,4,8,2.2,11.1,0.6c-0.3,4,3,0.1,3.1,3.2c-2,2.1-3.4,1.6-5.4,3.8c1.3,0.8,3,0.8,4-0.6c4.6-0.8,17.9-0.9,25.1-0.6
		c1.4,3.2,4.2,3.4,5.7,0.6c-8.4-8.5-19.4,0.3-29.1-2.6c0.1-1.7,1.7-1.4,0.9-3.2c-1.2-0.3-2.9,0.6-2.9-2.6c0.4-0.3,0.7,2.5,0.9,0.6
		C1026.2,46.4,1027.2,45.8,1026.5,44.9z M1049.7,60.2c0.7,0.2,1.1-0.2,1.1-1.3c-1.7-0.3-5.6,1.2-4-2.6c-4.2-0.6-5.9,0-9.4,2.6
		c1-0.2,2.6-0.5,3.7,0.6c-3.7,2.8-7.5-3.5-10.3,0.6c0.1-0.8,0.4-1.3-0.3-1.3c-0.9-0.2,0.7,1.8-0.3,1.9c-1.3-0.9-1.8,0.3-3.4,0
		c0.1,1.4,0.6,2,0.9,3.2c0.6-3.1,2.8-0.6,4.3,0.6c3.3,0.8,6.5-0.7,9.4-0.6c3.7,0,8.1,4,11.1-1.3
		C1051.2,62.8,1050.8,60.7,1049.7,60.2z M1009.4,112c0.8-0.2,0.2,2.5,1.1,1.9c0-0.9,0.1-1.4,0.3-1.9
		C1010.4,111.6,1009.6,111.5,1009.4,112z M421.8,15.5c1-0.5,2.2,1.9,2.9,0c-1.5-0.1-0.3-0.4,0-1.3C423.7,13.3,422.2,13.6,421.8,15.5
		z M388.4,121.6c0.6-0.8,3.3-0.2,2.9-1.3C390.3,120.9,388.3,119,388.4,121.6z M368.1,122.2c1.5-0.3,2.6,1.8,3.4-0.6
		C370.5,122,368.7,120.8,368.1,122.2z M118.8,57.7c5.8,3.3,14,1,18.3,0.6c0,0.4,0.2,0.7,0.3,0C132.4,53.9,124,53,118.8,57.7z
		 M131.9,62.8c0.4,2,2.8,2.3,3.1,0.6C133.8,62.4,133,63.7,131.9,62.8z M115.6,62.1c0.2,1.3,1.6-0.2,1.7,1.3
		c-0.3,1.2-2.1-1.5-2.3,1.3c2.9,5.4,10.2,4.3,14.6,4.5c-1.1-0.1-2.1-0.5-2.3-2.6c0.9,1,1.1-0.1,2.3,0c-0.1-3.3-2.7-0.8-3.4-2.6
		c0.7-2.1,4.4-0.8,4.3-2.6C124.7,61.2,121.2,60.6,115.6,62.1z M109.7,62.8c-0.7,0.5-1,2.1-1.7,2.6c2.2-0.4,3.7,2.2,4.6-1.3
		C111.6,63.4,109.6,65.4,109.7,62.8z M104.5,55.7c1,0.2,1.5,1.3,2.3-0.6C106.1,55.5,104.7,54.3,104.5,55.7z M75.4,94.1
		c2.2,1.1,6.5,1.3,8-1.3C80,92.5,78,89.9,75.4,94.1z"/>
	<path class="st0" d="M1087.1,46.8c0.7,1.4-1.2,2.4-2.3,1.9C1085.4,47.3,1086.8,47.1,1087.1,46.8z"/>
	<path class="st0" d="M1045.7,34c-0.1,2.2-0.8-0.1-0.9,1.3c0.9,2.1,3.2,1,4.9,1.3c-2,3.3-6.4,2.3-9.4,2.6c1-2.1,0.9-2.2,0.9-4.5
		C1042.9,35.3,1045,33.9,1045.7,34z"/>
	<path class="st0" d="M451.2,129.9c0.6,0.2-0.4,1.7,0.6,1.9c-0.6,0.6-2.2-1.6-3.4,0C448.2,128.7,450.9,132,451.2,129.9z"/>
	<path class="st0" d="M370.1,9.1c-0.6,2.7-1.9,0.1-2.9,1.3C367.9,8.1,368.7,9.9,370.1,9.1z"/>
	<path class="st0" d="M347,6.5c0,2.7-2.5,0.3-2.6,1.3C343.8,5.3,346.4,7.7,347,6.5z"/>
	<path class="st0" d="M107.1,23.8c-0.4,0.2,0,1.1,0.3,1.3c-2,0.9-5.5,1.2-7.7-0.6c0.7-1,0.5-1.3,0.3-3.2c1.2,1.1,3.3,0.7,4.6,0
		c-1.6-2-5.6,0.7-7.1-3.8c5.1,0.8,8.8-1.1,13.7,0c0.2,1.5,0.5,2.7,1.4,2.6c0.9-1-1-0.8-0.6-2.6c0.5-0.7,2.1,0.5,3.4,0
		c-0.1,0.8-0.4,1.3-0.9,1.3c2,3.7,5.2,0.7,7.4,3.8c-2.7,0.2-4.7,2.4-6.3,0c0,1.1-1.9,2.6-1.7,0c-0.6,1.6-2.5,0.3-2.6,3.2
		c-0.6-0.4-0.6-1-0.3-1.9C109.1,25.5,109.3,25,107.1,23.8z"/>
	<path class="st0" d="M1045.7,32.1c-1.9-1.9-4.3-2.8-7.1-2.6c0.7-2.3,3-0.9,4.6-1.3c0.1-2.9-2.2-0.7-1.7-4.5
		c0.5-0.4,1.7,0.8,1.7-0.6c0.7,1.4,1.1,3.5,2.3,3.8c-0.3,0.9-0.5,1.9-0.9,2.6C1044.7,30.8,1046,29.7,1045.7,32.1z"/>
	<path class="st0" d="M1019.7,28.2c0.7,2.5-3,0.5-4,2.6c0.8-4.2-3.6-2-4.9-3.8c0.5-2.6,2.7-1.2,3.7-2.6c-0.1-0.9-0.7-0.5-1.1-0.6
		c1-1.9,6.1-2.7,6.3,1.3c3.9,1,5.4,1.7,9.4-0.6c-0.1,2.5,1,2.3,1.7,3.2c0.3,2.3-1.4,0.3-0.9,3.2
		C1026.7,30.4,1024.8,28.9,1019.7,28.2z"/>
	<path class="st0" d="M1009.4,26.3c-2.6,2.1-6.8,1.2-10,0.6c0.3-1.1,1.2-0.7,1.7-1.3c-0.6-0.9-3.2-0.9-2.6-2.6
		c2.2-2.1,6.9-0.9,9.7-0.6C1006.6,23.6,1008.1,26.5,1009.4,26.3z"/>
</g>
</svg>
