<?xml version="1.0" encoding="utf-8"?>
<!-- Generator: Adobe Illustrator 25.4.1, SVG Export Plug-In . SVG Version: 6.00 Build 0)  -->
<svg version="1.1" id="Layer_1" xmlns="http://www.w3.org/2000/svg" xmlns:xlink="http://www.w3.org/1999/xlink" x="0px" y="0px"
	 viewBox="0 0 759 759" style="enable-background:new 0 0 759 759;" xml:space="preserve">
<style type="text/css">
	.st0{fill:#F8BF1B;stroke:#000000;stroke-miterlimit:10;}
	.st1{fill:#FFFFFF;stroke:#231F20;stroke-width:8;stroke-miterlimit:10;}
	.st2{fill:#FFFFFF;}
	.st3{fill:#D6D6D6;}
	.st4{fill:#FFFFFF;stroke:#000000;stroke-width:7;stroke-miterlimit:10;}
	.st5{fill:#E92729;}
	.st6{fill:#EB2127;stroke:#231F20;stroke-width:7;stroke-miterlimit:10;}
	.st7{fill:#EE464F;}
	.st8{fill:#231F20;}
	.st9{fill:#231F20;stroke:#231F20;stroke-width:0.25;stroke-miterlimit:10;}
	.st10{opacity:0.3;fill:#6A0C0F;}
	.st11{fill:#EB2127;}
	.st12{fill:#231F20;stroke:#231F20;stroke-miterlimit:10;}
	.st13{fill:#231F20;stroke:#231F20;stroke-width:2;stroke-miterlimit:10;}
	.st14{fill:#231F20;stroke:#231F20;stroke-width:5;stroke-miterlimit:10;}
	.st15{fill:#231F20;stroke:#231F20;stroke-width:6;stroke-miterlimit:10;}
	.st16{fill:#E6E7E7;stroke:#231F20;stroke-width:7;stroke-miterlimit:10;}
	.st17{fill:#E6E7E7;stroke:#231F20;stroke-width:3;stroke-miterlimit:10;}
	.st18{fill:#C22126;}
	.st19{fill:none;}
	.st20{fill:#231F20;stroke:#231F20;stroke-width:3;stroke-miterlimit:10;}
	.st21{fill:#E55E5D;}
	.st22{fill:#EB2127;stroke:#231F20;stroke-width:9;stroke-miterlimit:10;}
	.st23{fill:#BBBDBF;stroke:#231F20;stroke-width:3;stroke-miterlimit:10;}
	.st24{fill:#EB2127;stroke:#231F20;stroke-width:0.5;stroke-miterlimit:10;}
	.st25{fill:#FFFFFF;stroke:#231F20;stroke-width:0.5;stroke-miterlimit:10;}
	.st26{opacity:0.2;fill:#231F20;}
	.st27{fill:#FFFFFF;stroke:#231F20;stroke-width:2;stroke-miterlimit:10;}
	.st28{opacity:0.1;fill:#231F20;}
	.st29{display:none;fill:#FFFFFF;stroke:#000000;stroke-miterlimit:10;}
</style>
<rect class="st0" width="759" height="759"/>
<g>
	<g>
		<path class="st1" d="M210.6,537.3c0.4,1.1,0.9,2.3,1.3,3.4c7.8,20.6,14.8,41.7,25.3,61.1c14,25.9,35.5,46.4,62,59.2
			c0.2,0.1,0.4,0.2,0.6,0.3c0.4,0.2,0.9,0.4,1.3,0.6c23.5,11,49.7,16.2,75.6,15.7c44.2-0.7,104.1-19.7,151.4-62
			c20.3-18.2,42.9-39,48.2-71.5c3.4-20.7-1.7-36.7-8.9-58.1c-32.2-96.4-49.5-144-61.2-159c-24-30.5-60.8-50.7-98.9-56.7
			c-22.9-3.6-47,1.3-69.5,6.6c-7.5,1.8-16.2,3.7-22.4-1c-11.6,7.4-20.4,18.3-29.1,29c-14.5,17.9-29,35.8-43.5,53.8
			c-28.4,35-54.2,74.3-49,121.5C196,500,203.5,518.7,210.6,537.3z"/>
		<path class="st2" d="M582.3,548.1c1.5,13.3-9.2,30.1-16.5,40.5c-16,22.8-38.2,40.7-60.9,56.5c-34.1,23.7-66.1,43.1-107.1,53
			c-34.8,8.3-70.6,11.2-106.2,14c-10.9,0.9-22.3,1.6-32.4-2.6c-24.3-10.3-44.8-53.7-11-66.2c27.9-10.4,64,5.2,92.8,6
			c33.7,0.9,67.6-4.5,99.3-16.2c31.9-11.8,61.5-30,86.6-53c12.6-11.5,22.5-30,35.7-40c10.2-7.7,18.4-5.4,19.5,3.1
			C581.9,543.3,582.2,548,582.3,548.1z"/>
		<path class="st1" d="M210.6,537.3c0.4,1.1,0.9,2.3,1.3,3.4c7.8,20.6,14.8,41.7,25.3,61.1c14,25.9,35.5,46.4,62,59.2
			c0.2,0.1,0.4,0.2,0.6,0.3c0.4,0.2,0.9,0.4,1.3,0.6c33.6,15.7,75.6,15.7,75.6,15.7c62.6,0.2,185.9,97.8,225.2,66
			c1.6-1.3,2.5-2.5,3.3-3.5c18.8-22.7,6.4-59.4-3.6-97.4c-9.5-36-14.3-73-22-109.4c-16.3-77.8-14-74.2-19.4-92.2
			c-14.5-48.5-24.6-81.9-53.9-114.2c-15.9-17.5-55.1-49.8-98.9-56.7c-22.9-3.6-47,1.3-69.5,6.6c-7.5,1.8-16.2,3.7-22.4-1
			c-11.6,7.4-20.4,18.3-29.1,29c-14.5,17.9-29,35.8-43.5,53.8c-28.4,35-54.2,74.3-49,121.5C196,500,203.5,518.7,210.6,537.3z"/>
		<path class="st3" d="M384.7,510.1c-2.2,1.5-55,39.1-50,101.6c3.8,47.9,38.8,75.3,44.6,79.7c11.9,19,18.5,20,21.5,19.3
			c11.1-2.4,13.8-35,13.7-52.2c-0.2-18.7-3.7-32.6-4.4-35.2C402.9,595.6,394.8,559.4,384.7,510.1z"/>
	</g>
	<g>
		<path class="st4" d="M429.4,656.8c36.7,25.2,58.9,34.5,66.6,27.8c3-2.6,3.8-7.7,2.3-15.2c35.4,21.1,56.1,29.4,62,24.7
			c3.8-3,1.5-11.2-6.8-24.7c30.5,20.1,49.1,28,55.9,23.5c4-2.7,3.9-9.7-0.4-21c-20.7-6.3-41.3-12.6-62-18.9
			C507.8,654.2,468.6,655.5,429.4,656.8z"/>
		<path class="st2" d="M418.1,644.7c6.4-5.4,26.3,5,27.7,5.8l153.1-3.6c2.7,9.3,5.4,18.6,8.1,27.8c-8-1.5-16.3-3.2-24.9-5.3
			c-16.3-4-31.3-8.6-44.9-13.4c-9.4,1.3-18.7,2.7-28.1,4c-23.9-0.2-47.8-0.4-71.6-0.6c-2.6-1.5-5.3-2.9-7.9-4.4
			c-3.9,0-7.8-0.1-11.7-0.1c-0.5-0.4-2.8-2.4-2.7-5.1C415.3,647.1,417.3,645.4,418.1,644.7z"/>
		<path class="st3" d="M582.9,568.5c0.9,5.2,2.5,13.5,4.7,23.7c7,32.6,10.6,48.9,14.4,57.5c0.9,2.1,9.2,20.3,8,35.1
			c-0.1,1-0.4,4.9-1.3,5c-1.2,0.1-2.3-6.6-4.9-15.3c-1.9-6.5-3.9-11.3-7.9-21c-4.6-11.1-8.5-18.9-9.4-20.7
			C581.7,622.5,578,604.2,582.9,568.5z"/>
		<path class="st3" d="M532.4,642c5.2,8,9.6,14.3,12.7,18.6c1.6,2.3,4.4,6.1,7.5,11.4c2.6,4.6,4.2,8,5.4,12c0.7,2.4,1.1,4.4,1.4,5.8
			c-2.5-4.4-5.6-9.1-9.1-13.9c-2.2-2.9-4.3-5.6-6.4-8.1c-1.3-2.7-2.5-5.5-3.8-8.3C537.4,653.7,534.9,647.8,532.4,642z"/>
	</g>
	<g>
		<ellipse class="st5" cx="291.1" cy="566.4" rx="62.5" ry="33"/>
		<g>
			<path class="st6" d="M214.9,548.7c-1.2,1.9-5.1,6.3-5.6,8.5c-0.5,2.2-0.3,4.7,1.1,6.4c1.1,1.4,2.8,2.2,4.2,3.3
				c2.5,2.1,3.6,5.4,3.9,8.7c0.2,3.2-3.1,6.7-3.7,9.9c-1.4,8.7-2,17.9,1.4,26c1.5,3.6,3.8,7,4.5,10.9c1.3,7.8,1.2,14.8-0.1,22.3
				c-1.4,8.6-2.7,17.3-3.6,26c-1.3,13.4-1.9,27,0.4,40.3c1.9,11.5,6.5,26.2,17.8,31.9c8.5,4.2,19,1.8,26.7-3.6
				c10.5-7.4,19.2-19.9,23.9-31.8c0.4-0.9,1.1-2,2-1.7c0.5,0.1,0.8,0.6,1.1,1.1c7.3,12.9,15.6,27.8,30.1,33.6
				c16,6.5,43.1,4.2,55.5-6.6c23.6-20.3,20.6-56.2,18.3-76.6c-3.7-34.1-19.6-59.1-30.7-73.2"/>
			<path class="st7" d="M243.3,707.8c-6.1-4.3-10.8-10.2-13.1-17.8c-2.8-9.4-1.4-19.2-0.7-28.8c0.8-9.7,0.1-19.5-0.4-29.3
				c-0.4-7.8-1.2-15.1,3.3-22c2.8-4.2,6.5-7.7,10.3-11.1c0.8-0.7,1.7-1.8,1.2-2.7c-0.2-0.4-0.5-0.6-0.9-0.8
				c-5.1-3.3-10.5-6.1-16.1-8.2c-1.2-0.4-6.6-0.5-7.7,0.1c-0.8,0.4-1.2,1.2-1.6,1.9c-2.6,5.4-1.7,11.9-0.1,17.6
				c1.7,5.8,5.5,11.3,5.9,17.3c0.5,6.8,1.2,13.2-0.4,19.8c-6.1,25.2-6.2,65.2,16.7,83.3c6.5,5.2,10.4,4.9,18,1.6
				c10.4-4.6-0.2-13.8-4.8-15.8C249.4,711.6,246.2,709.8,243.3,707.8z"/>
			<path class="st8" d="M227.3,603.5c0.5-0.8,0.9-1.2,1.3-1.3c0.2,0.1,0.3,0.3,0.4,0.4c2.5,4.6-0.9,11.2-2.8,15.5
				c-0.4,1-1.2,2.1-2.3,2.1c-0.9,0-1.5-0.9-1.6-1.8c-0.1-0.9,0.2-1.7,0.5-2.6C223.5,614.3,225.5,606.6,227.3,603.5z"/>
			<path class="st9" d="M280.4,693.3c2.3-0.5,4.5,1.3,6.2,3c1.1,1,2.2,2,3.2,3.1c1.3,1.2,2.6,2.5,3.5,4s1.4,3.4,0.8,5.1
				c-0.5,1.6-2.2,3.1-4,2.9c-1.6-0.2-2-3-2.2-4.4c-0.2-1.3-0.3-2.6-0.8-3.8c-0.8-1.8-2-3.7-3.4-5.1
				C282.5,696.6,280.3,695.4,280.4,693.3z"/>
			<path class="st10" d="M231.2,717.1c2.2,3.9,4.8,7.7,8.4,10.1c5.3,3.5,12.1,3.5,18,1.6c5.9-1.9,10.4-6.1,15.6-8.8
				c-0.7,1.5-0.9,3.1-1.6,4.6c-1.1,2.3-2.7,4.4-4.3,6.3c-7.9,9.3-21.7,14.7-32.8,8.1c-9.1-5.4-12.7-17-14.5-27.8
				c-1.6-9.7-2.5-20.1-1.6-29.9c2.2,5.1,2.7,12.1,4.6,17.7c2.1,6.2,4.8,12.3,8,17.9C231.2,717,231.2,717.1,231.2,717.1z"/>
			<path class="st10" d="M323.6,734.3c9.2-0.1,18.5-4,25.4-10.1c7.9-7.1,13.1-16.7,16-26.8c3-10.4,1.8-22.1,1-32.9
				c-1.9-24.3-8.2-48.3-18.4-70.5c-0.7-1.6-1.5-3.1-2.2-4.6c-0.7-1.4-1.4-2.8-2.6-3.7c-1.5-1.2-3.6-1.4-5.6-1.6
				c-3.4-0.3-6.9-0.7-10.3-1c5-2.4,9.4-6.2,12.4-10.8c5.8,9.8,18.4,23.3,27.1,29.9c15.7,11.9,17.1,25,20.6,44.3
				c3.6,20,5.2,40.4,0.1,60c-5.1,19.5-15.4,30.9-35.6,33.7c-14.8,2-35.3,0.8-44.5-13.5c-0.2-0.4-3.4-1.6-2.7-1.6
				c0.3,0,2.4,1.5,2.7,1.6c0.5,0.4,1.2,2.1,1.8,2.4C313.6,732,318,734.4,323.6,734.3z"/>
		</g>
	</g>
	<g>
		<path class="st11" d="M544.4,460.9c2.3,27.4-0.8,152-56.1,170.6C444.8,646,378.9,616.4,346,575.7c-13.6-16.8-18-30.8-35.1-36.3
			c-34.8-11.2-61.7,32.7-85.3,22.1c-28.7-12.9-18.9-91.7-13.7-118.7c5.3-28,14.4-47.1,22.8-60.7c10.1-16.4,18.2-30.6,36.5-39.3
			c14.5-7,30.7-9.8,46.6-12.5c28-4.8,56.1-9.7,84.1-14.5c20.6-3.5,43.7-5.4,60.5,8.8C479.3,346.9,541.6,427,544.4,460.9z"/>
		<g>
			<path class="st6" d="M236,367.7c0-5-7.1-8-6.8-13.1c0.2-2.8,2.8-4.9,5.5-5.7c2.7-0.8,5.6-0.7,8.4-1.2c0.6-0.1,1.2-0.3,1.3-0.9
				c0.2-1.3-2.6-1.9-1.9-3c1.2-2.1,4.5-1.5,6.7-2.7c0.9-0.5,1.5-1.2,2.1-2c1.9-2.4,3-5.4,4.8-7.8c1.7-2.2,3.9-4,5.7-6.1
				c2.3-2.7,4-5.8,5.5-9c0.8-1.6,1.9-3.5,3.7-3.7c0.7-0.1,1.3,0.2,2,0.4c9,2.9,18.4,6.1,25,12.9c2.2,2.3,9.2-3.2,11.1-4.4
				c15.1-9.7,33.1-14.3,50.5-18.1c18.2-4,37-5.8,55.5-3.3c22.2,3,43.1,12.3,59.5,27.6"/>
			<path class="st6" d="M335.3,557.5c6.8,18.5,21.6,32.8,36.4,45.7c14.8,12.8,30.5,25.1,48.3,33.4c26.7,12.5,57.7,13.3,83.8-1.1
				c17.3-9.6,31.3-24.8,40.6-42.3c11.8-22.2,16.2-47.7,16.7-72.9c0.9-48.5-12.2-95.1-38.6-135.8c-8.8-13.6-18.8-26.5-29.7-38.5
				c-13.2-14.6-28-28.3-46-36.4"/>
			<path class="st8" d="M275.9,480c-0.3-0.3-0.7-0.7-0.7-1.1c-0.1-0.7,0.7-1.3,1.4-1.2c0.7,0,1.3,0.5,1.9,1c1.7,1.5,3.1,3.5,5.3,4.5
				c0.2,0.1,0.4,0.2,0.6,0.1c0.5-0.1,0.7-0.7,0.5-1.2c-0.2-0.5-0.6-0.8-1-1.1c-1.5-1.2-2.9-2.7-3.8-4.4c-0.3-0.5-0.5-1.2-0.1-1.6
				c0.5-0.5,1.3,0,1.7,0.5c3.7,3.4,6.9,7.4,10.9,10.4c0.7,0.5,1.5,1.2,1.3,2c-1.2,0.4-2.7,0.2-3.7-0.7c-0.3,0.7,0.2,2.9,0.7,3.5
				c-1.4-1.4-3-2.2-4.3-3c-0.9-0.5-1.9-0.9-2.9-1.2c-0.9-0.2-1.8-0.1-2.7-0.4c-1.3-0.4-1.9-2.1-2.7-3.1
				C277.7,481.9,276.8,481,275.9,480z"/>
			<path class="st8" d="M292.9,474.8c-1.9-1.8-3.9-3.4-5.9-5.2c-0.3-0.3-0.9-0.3-1.2-0.1c-0.6,0.4-0.4,1.3-0.1,2
				c1.7,3.5,4.9,6.1,8.3,7.8c2.4,1.2,1.2-1.9,0.5-2.8C294,475.9,293.5,475.4,292.9,474.8z"/>
			<path class="st8" d="M296.6,467.6c-1.2-1.7-2.9-3.3-4.5-4c-0.3-0.1-0.6-0.2-0.8,0c-0.4,0.3-0.3,1-0.1,1.4
				c1.2,2.6,3.3,4.5,5.6,5.8c1.1,0.6,1.3-0.5,0.8-1.4C297.4,468.8,297,468.2,296.6,467.6z"/>
			<path class="st7" d="M304.1,362.4c-4.5,6.3-8.2,13.2-11.1,20.5c-8.6,21.3-12.6,48.5-0.7,69.4c1.4,2.5,3.8,5,6.5,4.4
				c6.3-1.6,2.8-16.5,2.8-20.9c0-8.9,1-17.7,2.8-26.4c5.8-27.4,20.6-50.4,38.5-71.5c0.6-0.7,1.3-1.7,0.8-2.5c-0.5-1-2-0.9-3-0.5
				C325.3,339.8,313.1,349.8,304.1,362.4z"/>
			<path class="st12" d="M358,321.8c-2.3,0.8-4.4,1.6-6.2,2.3c-7.8,2.8-15.3,6.3-22.4,10.6c-5.4,3.2-13.5,8.2-16,14.4
				c-0.1,0.2,0.2,0.4,0.3,0.2c7.6-5.2,16.4-9.3,24.5-13.6c10-5.4,21-10.1,32.5-10.9c1.6-0.1,3.7-0.5,3.9-2.2
				c0.1-1.1-0.6-2.1-1.6-2.4C368.6,318.5,363,320,358,321.8z"/>
			<path class="st7" d="M261.2,418.2c0-0.5,0-1,0-1.5c-0.1-12.6-0.8-25.3-3.8-37.6c-1.5-6.1-3.6-12.1-6.7-17.6
				c-1.5-2.7-3.2-5.2-5.2-7.6c-2.9-3.5-3.5-3-7.8-2.6c-1.5,0.2-3.2,0.5-4.2,1.7c-3.3,3.9,4.3,5.7,6.3,6.7c5.5,2.9,5.1,9.9,5.5,15.2
				c0.6,7.1,1.1,14.2,1.5,21.3c0.9,14.5-0.1,29.2,1.4,43.6c1,9.7,1.8,19.4,1.6,29.2c-0.1,4.1-2.3,11.1-1.3,14.9
				c1.1,4.1,2.8,2.6,4.1-0.2c1.3-2.9,3.6-7.1,4-10.2C259,455.2,261.2,436.7,261.2,418.2z"/>
			<path class="st7" d="M361.3,551.4c0.1,0,0.2,0.1,0.2,0.1c8.8,4.7,18.8,7,28.9,7.3c9.8,0.3,19.7-1.3,28.4-5.7
				c12.6-6.4,17.2-16.2,22-28.7c-0.3,0.7-6.2,3.2-7.2,3.9c-2.8,2.3-5.3,5-8,7.5c-15,13.6-32.6,14.4-51.3,9.7
				c-7.6-1.9-15.3-4.2-21.6-8.8c-3.1-2.3-7.8-7.5-12.1-6.1C345.1,539.5,352.6,546.7,361.3,551.4z"/>
			<path class="st7" d="M360.2,577.1c5.3,7.2,11.6,14.1,17.9,20.5c15.4,15.8,37.3,23.9,61.2,19.2c2.1-0.4,4.3-1,5.7-2.3
				c3.1-2.9-2.1-4.1-5-4.5c-5.2-0.9-10.2-1.6-15.3-3.2c-17.4-5.3-32.5-14.9-45.2-25.8c-6.5-5.5-12.5-11.5-18-17.7
				c-2.7-3-5.2-6.1-7.7-9.2c-0.7-0.9-7.3-6.4-7.3-6.4c-0.4,1.8,0.5,3.6,1.1,5.4C350.1,561.6,354.6,569.5,360.2,577.1z"/>
			<path class="st7" d="M371.8,571.1c5.5,4.3,11.8,8.1,18,11.7c15.2,8.7,34.7,11.2,53.8,4.4c1.7-0.6,3.4-1.3,4.4-2.4
				c2.2-2.5-2.3-2.5-4.8-2.4c-4.5,0.2-8.7,0.4-13.2,0c-15.2-1.2-29.3-5.7-41.5-11.4c-6.3-2.9-12.1-6.2-17.7-9.7
				c-2.7-1.7-5.3-3.5-7.9-5.3c-0.8-0.5-7-3.4-7-3.4c-0.1,1.3,1,2.5,1.7,3.6C361,561.8,366,566.7,371.8,571.1z"/>
			<path class="st10" d="M434.2,317.5c8.8,4,17.3,8.9,25.6,15.8c23.7,19.9,37.8,47.5,49,76c8.8,22.3,12.3,46.2,15.4,69.9
				c4.9,37-4,75.2-22.2,107.4c-9.2,16.3-19.7,29.4-36.5,38.1c-15.1,7.8-34.7,9.9-51.6,6.2c23.5,6.8,50.2,15.9,74.2,8.1
				c50.3-16.5,69.9-71.8,70.2-120.7c0.2-37-8.7-74-25.6-106.8c-25-48.5-60.6-97.6-117.4-107.8c-4.3-0.8-9-1.3-13,0.6
				C412.6,309.5,423.7,312.7,434.2,317.5z"/>
			<path class="st13" d="M266,412.5c-1.5,14.1-2.8,28.9,3,41.8c-4.4-9.9-8.2-16.1-8.7-29c-0.6-14.9,0.3-35.2,8.8-47.7
				c0.5,3.8-0.2,7.1-0.6,10.9C267.6,396.5,266.8,404.5,266,412.5z"/>
			<path class="st13" d="M373.5,554.3c11.5,8.2,23.8,16.6,37.9,17.9c-10.8-1-18.1-0.8-29.6-6.7c-13.3-6.8-30.6-17.5-37.2-31.1
				c3.5,1.5,6.1,3.7,9.2,5.9C360.4,545,366.9,549.7,373.5,554.3z"/>
			<path class="st8" d="M215.5,563.1c0.8,1.8,1.7,3.7,3.4,4.7c2.7,1.7,6.2,0.6,9.1-0.5c4.4-1.7,9-3.4,12.7-6.4c4.9-4,8-10,9.6-16.1
				c0.4,6.1-0.2,12.3-1.8,18.2c-0.6,2.2-1.3,4.3-2.6,6.2c-2.7,4-7.4,6-12.1,7.2c-2.9,0.7-5.9,1.1-8.8,0.7s-5.8-1.8-7.6-4.2
				c-1.3-1.8-1.9-3.9-2.5-6c-0.6-2.1-1.2-4.2-1.8-6.3c-0.3-1.1-1.8-4.2-0.9-5.1c0.7,0.9,1.1,2.5,1.6,3.6
				C214.3,560.4,214.9,561.8,215.5,563.1z"/>
			<path class="st8" d="M427.4,561c11.6-5.8,21.5-14.4,31.3-23c7-6.2,14.7-13.7,14-23c1.6,7.7-0.7,15.8-4.9,22.5
				c-4.2,6.6-10.1,12-16.2,17c-10.2,8.3-21.6,15.8-34.6,18.2c-5.1,0.9-10.3,0.9-15.4,0c-5-1-9.9-2.9-14-5.9c-2.3-1.7-4.5-3.7-6-6.1
				c2,1.5,3.9,3.3,6.2,4.2c2.2,0.9,4.8,1.3,7.2,1.7c7,1.3,14.2,0.6,21-1.3C420,564.2,423.8,562.8,427.4,561z"/>
			<path class="st14" d="M191,435.5c-4.2,14.8-6.1,30.3-5.7,45.2c0.6,22.4,6.2,45.1,18,64.3c7.4,12,22.1,25.1,32.6,9.3
				c6.6-9.9,9-22.7,11-34.3c8.5-48.8,8.2-96.7,2.3-145.7c-0.9-7.6-6-12.5-12.8-7.6C213.9,383.2,198.6,408.4,191,435.5z"/>
			<path class="st15" d="M479.8,437.5c1.6,29.7-8.6,59.8-27.1,84.6c-7,9.3-15.2,17.9-25.3,23.9c-29.7,17.7-77.6,6.8-97.4-19.9
				c-12.2-16.4-18.6-38.8-20.6-62.2c-3.5-41.8,14.4-85.3,50.7-107.7c18.5-11.4,44.4-15.3,64.5-5.8c16.2,7.6,29.4,20.9,38.9,35.9
				c2.4,3.8,4.6,7.7,6.5,11.8C475.9,410.7,479.1,424.1,479.8,437.5z"/>
			<path class="st16" d="M188.6,430.3c-4.2,14.8-6.1,30.3-5.7,45.2c0.6,22.4,6.2,45.1,18,64.3c7.4,12,22.1,25.1,32.6,9.3
				c6.6-9.9,9-22.7,11-34.3c8.5-48.8,8.2-96.7,2.3-145.7c-0.9-7.6-6-12.5-12.8-7.6C211.6,378,196.3,403.2,188.6,430.3z"/>
			<path class="st2" d="M191.7,443.9c-3.1,11-4.2,22.6-3.4,33.8c1.2,16.9,6.5,34,17,48.9c6.6,9.3,19.2,19.5,27.6,7.9
				c5.2-7.3,6.9-16.8,8.2-25.4c5.6-36.4,8.2-64.1,5.9-101.4c-0.4-5.8-13.8-17.5-19.3-14C209.4,405.3,197.4,423.7,191.7,443.9z"/>
			<path class="st15" d="M481.6,432.7c1.6,29.7-8.6,59.8-27.1,84.6c-7,9.3-15.2,17.9-25.3,23.9c-29.7,17.7-77.6,6.8-97.4-19.9
				c-12.2-16.4-18.6-38.8-20.6-62.2c-3.5-41.8,14.4-85.3,50.7-107.7c18.5-11.4,44.4-15.3,64.5-5.8c16.2,7.6,29.4,20.9,38.9,35.9
				c2.4,3.8,4.6,7.7,6.5,11.8C477.7,405.8,480.8,419.2,481.6,432.7z"/>
			<path class="st17" d="M472,433c1.6,28.9-7.9,58.2-25.1,82.3c-6.5,9-19.6,19.5-29.1,25.3c-27.7,17.2-67.1,4.3-85.7-21.8
				c-11.4-16-17.6-37.8-19.5-60.6c-4.7-55.6,30-109.9,73.3-113.5c34.1-2.9,63.1,19.8,76.7,49.9C468.3,406.8,471.3,419.9,472,433z"/>
			<path class="st2" d="M463.9,441.2c1.4,24.9-6.2,50.1-20.1,70.7c-5.2,7.7-15.9,16.7-23.6,21.7c-22.5,14.7-54.6,3.5-69.8-19.1
				c-9.4-13.8-14.4-32.6-16.1-52.3c-4-47.8,23.9-94.4,59.2-97.4c27.7-2.3,51.4,17.3,62.6,43.2C460.8,418.7,463.3,429.9,463.9,441.2z
				"/>
			<path class="st18" d="M362.4,355.6c0.5,0.8,0.9,1.7,0.7,2.6c-0.4,2-3.7,3.3-5.6,5c-1.3,1.2-1.9,2.7-1.6,4.1
				c0.1,0.6,0.4,1.2,0.3,1.9c-0.1,0.7-0.7,1.3-1.1,2c-1.2,1.9-1.2,4-0.1,5.8c0.7,1,1.7,1.9,2.6,2.8c2.1,2,3.8,4.1,5.2,6.3
				c0.6-1.8-0.3-3.6-1.1-5.3c-1.4-3.2-2.2-6.5-2.3-9.8c0.5,1.1,1.4,2.1,2.4,3c0.6,0.5,1.4,1.1,2.4,1.3c0.7,0.2,1.5,0.2,2.3,0.3
				c3.9,0.5,6.4,2.6,8.6,4.5c-0.9-4.8-8.2-8-9.6-12.8c-0.9-3,0.8-6.2,3.2-9.1c2.2-2.7,5.1-5.5,4.2-8.3c-0.3-0.7-0.8-1.4-1-2.2
				c-0.2-0.7,0-1.6,0.9-2.2c0.7-0.4,1.8-0.6,2.7-0.8c2.4-0.7,4-2.5,3.6-4.1c-0.1-0.2-0.2-0.5-0.5-0.6c-0.3-0.1-0.8-0.1-1.2-0.1
				c-4.6,0.5-9,1.9-12.4,4.1c-1.1,0.7-2,1.4-3,2.1c-0.9,0.7-1.9,1.3-2.9,2c-0.8,0.6-0.6,1.1-0.2,1.7c0.5,0.9,1,1.8,1.5,2.7
				C361.3,353.6,361.9,354.6,362.4,355.6z"/>
			<path class="st18" d="M317.8,428.4c0.4,0.9,0.8,1.9,1.4,2.6c1.6,1.9,4.9,2.7,7.6,1.7c1.4-0.5,2.9-1.4,4.2-0.7
				c0.8,0.4,1,1.4,1.2,2.2c0.4,1.7,1.5,3.3,2.9,4.6c1.3,1.1,3,2,4.3,3.1c1.2,1.1,2,2.4,3.5,3.2c1.8,0.9,4.3,0.8,5.9,2
				c-1.1-2-4-2.7-5.8-4.3c-1-0.9-1.7-2-2.4-3.1c-1.4-2.4-2.6-4.8-3.6-7.3c1-0.4,2.2,0,3,0.6c0.8,0.6,1.5,1.3,2.5,1.7
				c1.2,0.4,2.6,0.2,3.6,0.8c0.5,0.3,0.8,0.9,1.2,1.3c1,1.3,2.9,2,4.7,1.9c-2.1-3.5-6.2-5.8-10.4-7.4c-0.9-0.3-1.8-0.6-2.4-1.3
				c-1.5-1.5-0.4-4.2-2-5.7c-1.4-1.4-4.1-1-6-0.2c-2,0.8-3.8,2-6,2.1c-0.5,0-0.9,0-1.4-0.2c-1.3-0.5-1.5-2-1.4-3.3
				c0.1-1.6,0.4-3.2,0.3-4.8c-0.1-1.6-0.7-3.3-2-4.4c-1.3,1-2.5,2.1-3.4,3.3c-1,1.5-1.5,3.2-1.5,4.9c0,0.7,0,1.3,0.2,2
				c0.1,0.5,0.4,1.1,0.6,1.6C317,426.4,317.4,427.4,317.8,428.4z"/>
			<path class="st18" d="M318.1,439.6c0.5,0.2,0.9,0.4,1.3,0.7c1.3,1.1,1.2,3.2,2.5,4.3c1.3,1.1,3.4,0.7,4.5,2
				c-0.1-0.5-0.4-0.9-0.7-1.2c-1-1.3-1.1-3.1-1.3-4.7c-0.3-1.6-0.8-3.4-2.3-4.2c-0.8-0.4-1.8-0.5-2.6-0.9c-0.8-0.5-1.3-1.3-2-1.9
				c-0.5-0.5-1.4-0.8-2.1-0.6c-0.8,0.2-1,1.1-1.2,1.9c-0.3,1.4,0,2.3,1.1,3.2C316.1,438.7,317.1,439.2,318.1,439.6z"/>
			<path class="st18" d="M331.1,515.7c0-0.9,0-1.8,0.6-2.6c0.7-1.2,2.4-2.1,3.1-3.2c1.8-2.8-1.8-5.6-1.1-8.5
				c0.1-0.6,0.5-1.2,0.8-1.8c1.1-1.9,2.2-3.8,3.8-5.5c1.6-1.7,3.8-3.3,6.7-4.3c-1.1,0.3-1.8,1.1-2,1.8c-0.2,0.8-0.2,1.5-0.4,2.3
				c-0.5,1.6-2.3,2.9-2.9,4.5c-0.9,2.4,1.3,4.8,0.8,7.3c-0.1,0.4-0.2,0.9-0.1,1.3c0.2,0.8,1.1,1.3,2.3,1.6s2.3,0.2,3.5,0.2
				c2.3-0.1,4.6-0.2,6.7-0.9c2.1-0.7,3.7-2.1,3.5-3.6c-0.2-1.3-1.9-2.3-1.9-3.7c0-0.7,0.6-1.4,1.3-2c3.2-3.2,7.8-5.9,13.1-7.5
				c-2.4,1.7-4.8,3.4-7.2,5.2c-1.3,1-2.7,1.9-3.6,3c-2,2.3-2,5.3,0.7,6.9c0.9,0.5,2.1,0.9,2.8,1.6c0.9,0.9,0.8,2.2-0.1,3.2
				c-0.8,1-2.2,1.8-3.7,2.5c-3.6,1.6-8.2,2.6-12.3,2c-1.9-0.2-4.2-0.7-5.5,0.3c-1,0.7-0.7,1.7-0.6,2.6c0.2,1.4-0.5,3.1-2.6,3.5
				c-1.3,0.3-2.7-0.1-3.6-0.7c-0.9-0.6-1.3-1.4-1.8-2.2c-0.9-1.6-1.7-3.5-0.1-5"/>
			<path class="st18" d="M452.5,381.4c-1.2,0.5-2.2,1.4-3.3,2.1c-1.1,0.7-2.4,1.2-3.8,0.9c-0.7-0.2-1.4-0.5-2-0.8
				c-2.8-1.3-5.9-1.3-8.9-1.8c-2.4-0.4-4.8-1.1-7-0.7c-3.6,0.6-5.7,3.9-7.5,6.9c-1.6,2.6-3.1,5.3-4.7,7.9c3-1,5.8-2.3,8.2-4.2
				c2.2-1.8,4.4-4.1,7.5-3.7c1.4,0.2,2.8,1,4.2,1.3c1.2,0.2,2.4,0.1,3.6,0.3c1.2,0.2,2.5,1,2.7,2.2c0.3,1.6-1.4,2.5-2.6,3.4
				c-2.2,1.7-3,5-2.1,7.9c0.9-1.3,1.9-2.8,3.5-3.2c0.9-0.2,1.9-0.1,2.9-0.2c1.3-0.1,2.6-0.4,3.7-1.1c1.8-1.1,3-2.9,4.4-4.4
				c1.4-1.5,3.3-2.9,5.5-2.7c2.2,0.1,4.6,1.8,6.6,0.9c1-0.4,1.6-1.5,1.7-2.6c0.2-1.3,0-2.7-0.2-4.1c-0.2-1.1-0.5-2.2-1.7-2.7
				c-2.2-1-4.6-2-7-2.2C454.9,380.7,453.6,380.9,452.5,381.4z"/>
			<path class="st18" d="M200.1,532.9c0.1-1.3,0.5-2.6,0.2-3.8c-0.3-1-1.1-1.9-1.5-2.9c-1-2-0.5-4.3,1.1-6.2
				c0.7-0.8,1.6-1.6,2.3-2.4s1.1-1.8,0.7-2.6c-0.3-0.6-1-1.1-1.4-1.7c-0.4-0.6-0.4-1.4-0.3-2.1c0.2-2.1,0.7-4.2,1.2-6.3
				c0.4,1.5,0.8,2.9,1.2,4.4c0.3,1,0.7,2.1,2.1,2.4c0.2,0,0.4,0.1,0.6,0c0.2-0.1,0.3-0.2,0.4-0.4c0.3-0.6,0.7-1.2,1-1.8
				c0.2-0.3,0.4-0.7,0.9-0.9c0.2-0.1,0.5-0.2,0.8-0.2c3.1-0.5,5.7,1.7,8.8,1.2c-2.2,0.7-4.4,1.4-6.6,2.1c-0.3,0.1-0.6,0.2-0.9,0.4
				c-1.1,0.7,0.1,1.8,0,2.8c-0.2,0.9-1.6,1.6-2.7,2.2c-2.1,1.2-3.5,2.9-3.8,4.7c-0.1,0.7-0.1,1.4,0.4,2.1c0.6,0.8,1.7,1.3,2.4,2
				c1.4,1.4,0.7,3.4,0.1,5.1c-1.1,2.8-2.3,5.7-1.4,8.5c0.4,1.1,1.1,2.3,0.6,3.4c-0.8,0.3-1.9,0.2-2.5-0.2c-0.6-0.4-1-1-1.2-1.5
				c-0.6-1.1-1.2-2.2-1.7-3.3c-0.4-0.8-0.5-1.7-0.6-2.5C200.1,534.4,200,533.7,200.1,532.9z"/>
			<path class="st18" d="M234.1,536.6c-0.2-0.2-0.3-0.4-0.6-0.5c-0.2-0.1-0.5-0.1-0.8-0.2c-0.7-0.2-1.2-0.8-1.3-1.5
				c-0.3-1.1,0.1-2.3,0.7-3.3c0.5-1,1.2-2,1.5-3.1c0.3-1,0.3-2,0.3-3.1c0-0.6-0.1-1.2-0.4-1.7c-0.6-1.1-1.9-1.5-2.9-2.3
				c-1.6-1.1-2.5-3.1-2.4-5c0.1-2.1,1.3-4.1,1.2-6.1c-0.2,1,0.1,2.1,0.8,2.8c0.5,0.5,1.2,0.9,1.4,1.6c0.1,0.3,0.1,0.6,0.1,0.9
				c0.1,1.3,0.9,2.6,2,3.3c0-0.6,0.3-1.1,0.8-1.5c0.5-0.4,1-0.6,1.5-0.9c1.7-1,3.1-2.6,3.8-4.4c-0.5,1.8-0.6,3.7-0.5,5.6
				c0,0.6,0.1,1.2-0.3,1.7c-0.7,0.7-1.9,0.1-2.8,0.5c-0.9,0.4-1.1,1.7-1,2.7c0.3,2.5,1.2,5,0.7,7.4c-0.1,0.5-0.3,1-0.3,1.5
				c0,0.5,0.2,1.1,0.7,1.2c0.6,0.2,1.4-0.2,1.9,0.1c0.5,0.3,0.5,1,0.4,1.6c-0.2,1-0.5,1.9-1.1,2.8c-0.2,0.4-0.5,0.9-0.9,1.1
				c-0.3,0.2-0.9-0.1-1.2-0.2C234.9,537.3,234.5,537,234.1,536.6z"/>
			<path class="st8" d="M409,543.2c1.5-0.5,4.4-3.1,4.9-3.5c1.8-1.8,3.6-4.1,6.3-4.6l-0.2-2.1c-0.1-0.7,0.6-1.3,1.3-1.2
				c2,0.3,4.1-0.1,5.8-1c1.7-0.9,3.1-2.3,4.4-3.7c0.9-1,1.9-1.9,2.8-2.9c2.1-2.1,4.1-4.2,6.2-6.3c0.7-0.8,1.7-1.8,1.5-3
				c-0.2-1.1-1.5-1.7-0.7-3c0.5-0.8,1.5-1,2.4-1.3c4.8-1.7-2-2.7-2.2-4.7c-0.3-2.8,4.5-0.2,5.5-0.2c1.9,0,2.4-1.9,0.8-2.9
				c-1.4-0.9-1.6-2,0.3-2c1.4,0,3.5,1.3,4.4-0.3c0.6-1-0.2-2.3,0-3.4c0.2-1.6,2.1-2.3,3.6-3c1.7-0.8,3.1-2.2,3.8-4
				c0.6-1.8,0.3-3.9-1.1-5.2c-0.8-0.7-1.9-1.4-1.7-2.4c0.3-1.1,2-1,3.1-0.5c1.1,0.5,2.7,0.8,3.2-0.2c0.7-1.7-2.2-2.4-2.9-3.5
				c-0.9-1.4,0.4-1.7,1.3-2.1c1.5-0.5,2.3-0.7,3.2-2.3c2.1-3.6,3.6-7.6,4.4-11.7c0.3-1.5,0.4-3,0.1-4.4c-0.4-2-2.6-2.5-3.3-4.1
				c-0.9-2.1,4.1-2.8,4.6-0.3c0.4,2,0.4,4,0.2,6c-0.4,3.9-1.5,7.8-2.7,11.5c-1,3.2-2.3,6.2-3.3,9.3c-0.9,2.8-1.6,5.7-3,8.3
				c-1.3,2.6-3.2,4.8-4.3,7.4c-0.8,1.9-1.3,3.9-2.1,5.7c-1.2,2.9-3.1,5.5-4.9,8.1c-3.7,5-7.3,10-11.6,14.5c-4.2,4.5-9,8.4-14.1,11.8
				c-3.7,2.4-7.6,4.5-11.7,6.2c-1.4,0.6-3.3,2.1-4.8,0.9C408.4,543.4,408.6,543.3,409,543.2z"/>
			<path class="st18" d="M458.8,475.1c-1.7-1.3-2.1-4-0.4-5.3c0.8-0.6,2-0.9,2.5-1.8c0.7-1.2-0.2-2.6-1.1-3.6
				c-0.3-0.3-0.7-0.7-1.1-0.6c-0.2,0-0.4,0.2-0.5,0.3c-1.1,1.3-0.9,3.5-2.4,4.3c-0.5,0.3-1,0.3-1.5,0.4c-2.4,0.3-4.9,0.4-7-0.6
				c-2.3-1.1-3.7-3.5-6-4.7c-1.4-0.7-3-0.9-4.4-1.7c-1.4-0.8-2.3-2.1-3.1-3.4c-0.9-1.3-1.8-2.7-2.7-4c-1.2-1.8-2.4-3.6-2.8-5.6
				c-0.4-1.8-0.3-3.9-1.7-5.1c2.3,2.3,4.5,4.6,6.8,6.9c1.7,1.7,3.4,3.5,5.6,4.7c1.3,0.7,2.7,1.2,3.8,2.1c1.6,1.2,2.6,3,2.8,4.9
				c0,0.5,0,1,0.3,1.4c0.3,0.5,1,0.6,1.6,0.8c0.8,0.2,1.7,0.3,2.6,0.1c0.8-0.2,1.6-0.8,1.7-1.6c0.1-1-0.7-2-0.3-2.8
				c0.2-0.3,0.6-0.6,0.9-0.8c2.3-1.4,4.8-2.7,7.6-3.1c2.7-0.4,5.8,0.4,7.4,2.5c1.1,1.4,1.4,3.2,1.3,4.9c-0.1,1.7-0.7,3.4-1.2,5
				c-0.6,2-1.3,3.9-1.9,5.9c-0.1,0.3-0.2,0.8-0.5,1c-0.3,0.2-0.8,0.2-1.1,0.2c-0.8,0.1-1.7,0.2-2.5,0.1
				C460.5,475.9,459.6,475.6,458.8,475.1z"/>
			<path class="st18" d="M202.5,388.2c0.6,0.5,1.1,1.1,1.1,1.8c-0.1,1.6-3.2,3.3-4.7,5.1c-1.1,1.2-1.5,2.5-1,3.5
				c0.2,0.4,0.6,0.8,0.6,1.3c0,0.6-0.5,1.2-0.8,1.8c-0.9,1.7-0.7,3.3,0.7,4.4c0.8,0.6,1.9,1,3,1.5c2.3,1,4.3,2.2,6,3.6
				c0.3-1.5-0.8-2.7-1.8-3.8c-1.8-2.1-3-4.4-3.6-7c0.7,0.7,1.6,1.3,2.8,1.7c0.7,0.3,1.5,0.5,2.5,0.5c0.7,0,1.5-0.2,2.3-0.3
				c3.8-0.5,6.6,0.5,9,1.5c-1.6-3.5-9.1-4.3-11.1-7.6c-1.3-2.1-0.1-4.9,1.8-7.6c1.8-2.5,4.2-5.4,2.9-7.3c-0.4-0.5-1-0.9-1.3-1.4
				c-0.3-0.5-0.2-1.2,0.6-1.9c0.7-0.5,1.6-0.8,2.5-1.2c2.3-1.1,3.6-2.8,3-3.9c-0.1-0.2-0.2-0.3-0.6-0.4c-0.3,0-0.8,0.1-1.2,0.2
				c-4.4,1.4-8.5,3.5-11.5,5.9c-0.9,0.7-1.7,1.5-2.6,2.3c-0.8,0.7-1.7,1.4-2.5,2.1c-0.7,0.6-0.4,0.9,0,1.4c0.6,0.6,1.2,1.2,1.8,1.7
				C201.2,386.9,201.9,387.5,202.5,388.2z"/>
			<path class="st18" d="M177.7,455.5c0.6,0.7,1.4,1.2,2.1,1.8c0.7,0.6,1.3,1.4,1.4,2.3c0,0.5-0.1,0.9-0.1,1.4
				c-0.2,2,0.4,3.9,0.7,5.9c0.2,1.6,0.3,3.2,1,4.6c1.2,2.2,3.7,3,6.1,3.7c2.1,0.6,4.1,1.2,6.2,1.8c-1.3-1.8-2.8-3.4-4.5-4.6
				c-1.6-1.1-3.6-2.2-4-4.2c-0.2-0.9,0.1-1.9-0.1-2.8c-0.1-0.8-0.5-1.5-0.5-2.3c-0.1-0.8,0.2-1.7,0.9-2c1-0.4,1.9,0.5,2.8,1.1
				c1.6,1.1,3.9,1.2,5.6,0.2c-1.1-0.4-2.2-0.8-2.8-1.8c-0.3-0.5-0.5-1.2-0.7-1.8c-0.3-0.8-0.8-1.6-1.5-2.2c-1.1-1-2.5-1.5-3.8-2.1
				c-1.3-0.7-2.6-1.6-3-3.1c-0.4-1.4,0.2-3.2-0.8-4.3c-0.5-0.6-1.3-0.8-2.1-0.7c-0.9,0.1-1.8,0.4-2.6,0.7c-0.7,0.3-1.3,0.6-1.4,1.4
				c-0.2,1.6-0.3,3.2,0.1,4.8C176.8,454.1,177.2,454.8,177.7,455.5z"/>
			<path class="st18" d="M401.6,546.1c0.3-1.1,0.3-2.1,0.4-3.2s0.6-2.2,1.7-3c0.6-0.4,1.3-0.7,1.9-1c2.7-1.4,4.6-3.5,6.9-5.3
				c1.8-1.4,3.8-2.7,4.9-4.5c1.7-2.7,0.5-5.7-0.7-8.3c-1.1-2.3-2.2-4.6-3.3-6.9c-1.1,2.5-1.8,5.1-1.8,7.6c0,2.3,0.4,4.9-1.7,6.8
				c-1,0.9-2.5,1.4-3.6,2.3c-0.9,0.7-1.5,1.6-2.4,2.3c-0.9,0.7-2.3,1.2-3.4,0.8c-1.4-0.5-1.1-2.1-1.1-3.3c0-2.3-2-4.4-4.9-5
				c0.5,1.2,1,2.6,0.3,3.9c-0.4,0.7-1.1,1.4-1.7,2c-0.8,0.9-1.3,2-1.4,3c-0.2,1.7,0.4,3.3,0.7,5c0.3,1.7,0.2,3.5-1.3,5
				s-4.2,2.3-4.7,4.1c-0.3,0.9,0.2,1.7,0.9,2.4c0.9,0.7,2.1,1.3,3.3,1.7c1,0.4,2,0.7,3.1,0.1c2.2-1.1,4.4-2.3,6-3.8
				C400.6,548,401.3,547,401.6,546.1z"/>
		</g>
	</g>
	<g>
		<path class="st19" d="M451.1,284.6c-39-14.7-83.7-20.4-121.7-3.5c-14.9,6.6-31.5,16.7-46.3,9.8c-13.8-6.5-17.4-24.4-17.7-39.6
			c-0.1-2.4-0.3-5.2-2.4-6.3c-1.2-0.7-2.6-0.6-3.9-0.4c-14.2,1.5-27.9,5.7-42.1,6.8c-14.2,1.1-29.7-1.5-39.6-11.7
			c-5-5.1-8.2-11.7-10.9-18.3c-5.2-12.5-8.9-26.1-7.3-39.6c2.3-18.9,15.1-35.3,30.6-46.3c15.6-11,33.8-17.4,51.8-23.7
			c-11.8-13.4-16.5-32.6-12.4-49.9c4.2-17.3,17.1-32.3,33.7-38.8c6.8-2.7,14-4,21.1-5.3c14.3-2.6,28.6-5.3,43-5.9
			c30.1-1.3,60.1,6.3,87.3,19.3c39.9,19,74.8,50.5,92.4,91.1c5.4,12.4,9.1,25.4,11.6,38.7c2,10.2,3.3,20.7,2.2,31.1
			c-0.9,8.4-3.3,16.5-5.6,24.6c-3.7,12.4-7.3,24.9-13.5,36.2c-4.8,8.9-11.1,16.9-17.8,24.5c-3.4,3.8-6.8,7.5-10.3,11.2
			c-2.2,2.3-6.1,7.1-9.3,3.6c-1.4-1.5-2.4-2.9-4.2-3.9C456.9,286.8,454,285.7,451.1,284.6z"/>
		<path class="st6" d="M377.5,270.5c-16.2,0.5-32.4,3.8-48.5,10.4c-9.7,4-19.2,8.9-29.6,10.7c-26,4.5-47.9-22.8-33.7-46.9
			c-31.4,14.4-74.5,19.2-95.2-14.5c-9.3-15.2-14.2-34.9-11.7-52.6c2.7-18.4,16.7-33.3,31.8-43.1c15.5-10.1,35.3-18.5,54-19.1
			c-5.7,0.2-11.3-11.9-13.3-16.1c-3.2-6.8-4.9-14.3-5.3-21.8c-0.8-15.2,4.2-30.8,15-41.7c9.8-9.9,23.2-15.5,36.6-19.3
			c37.8-10.9,79-9.8,116.2,3c26.4,9.1,50.6,24,70.8,43.3c38.9,37.3,64.5,87.7,54.8,142.6c-5.6,31.8-22.6,61.4-47.1,82.4
			c-2.1,1.8-4.5,3.6-7.3,3.6c-1.9,0-3.7-0.9-5.4-1.7C433.1,276.9,405.4,269.6,377.5,270.5z"/>
		<path class="st20" d="M257.8,111.2c0.5-0.1,0.8-0.1,1-0.1c8.9-1,17.8-1.8,26.7-2c31.2-0.9,61.8,6.7,85.6,27.6
			c-32.6-28.6-82.4-19.4-122-18.3c-4,0.1-8.6-0.2-11-4C237.7,113.7,253.6,111.7,257.8,111.2z"/>
		<path class="st13" d="M269.2,232.1c0.8-1.1,1.7-2.2,2.6-3.2c16.3-19.3,42.2-31.8,67.7-30.1c-17.2-1.1-37,7.2-49.7,18.7
			c-5.2,4.8-9.4,10.5-13.2,16.4c-1.7,2.6-3,5.6-5.4,7.6c-2.3,1.9-5,3-7.8,2.2C264.2,239.5,266.5,235.6,269.2,232.1z"/>
		<path class="st21" d="M439,65.4c-37.4-29-85.6-41.9-134-38.1c-6.5,0.5-13.4,1.5-18.5,5.4s-7.3,11.7-3,16.3
			c3.8,4,10.3,3.8,15.9,3.3c27-2.3,52.6-4.5,79.4,1.1c25.1,5.2,49.7,14.7,72.1,26.4c1,0.5,2.1,1,3.1,1.5c0.7,0.3,1.9,1.3,2.7,1.2
			c1,0,0.1-0.7-0.3-1.2c-0.7-0.8-1.3-1.6-2-2.3c-1.4-1.5-2.9-3-4.5-4.4C446.3,71.3,442.7,68.2,439,65.4z"/>
		<path class="st21" d="M296.2,123.7c-18.9-1.7-38.1,0.9-56.2,6.5c-6.3,1.9-12.5,4.3-18.2,7.6c-4.6,2.7-8.7,6.1-12.6,9.7
			c-5.3,5-9.3,12-5,19.1c1.5,2.6,4.2,4.6,7.2,4.7c3.3,0.1,6.2-2.1,8.8-4.1c33.2-25.4,76.3-35,117.2-27.2c1.9,0.4,3.8,0.7,5.7,1.1
			c1.7,0.3,3.8,1.1,5.5,1.1c0.1-1.1-3-2.4-3.8-2.9c-1.6-1-3.2-1.9-4.8-2.8c-3.3-1.8-6.7-3.4-10.1-4.8c-6.9-2.8-14.1-4.9-21.4-6.4
			C304.4,124.7,300.3,124.1,296.2,123.7z"/>
		<path class="st10" d="M174.7,191.3c2.8,2.7,5.9,5.2,9.5,7.4c14.4,8.8,31.1,11.9,47.7,9.2c17.5-2.9,33.7-10.8,51.3-13.3
			c19-2.7,38.1-2.1,56.3,4.2c-9.7-3.3-24.1,0.4-33.3,4c-9.7,3.7-19,9-26.9,15.8c-4,3.4-7.6,7.3-10.6,11.6c-2.1,3-3.8,10.8-7,12.2
			c-14.2,6.3-31.2,9.9-46.8,9.7c-10.1-0.1-21.9-4-30.1-10.3c-15.2-11.7-23.2-32.7-22.6-51.5c0.1-4.1-0.2-8.7,0.1-12.5
			C166.5,182.1,170.2,187,174.7,191.3z"/>
		<path class="st10" d="M290.5,70.4c3.1,1.6,6.2,3.3,9.2,5c11.3,6.6,21.8,14.3,31.9,22.5c5.2,4.2,10.2,8.6,15.2,13.1
			c2.7,2.4,18.5,20.6,15.6,18c-7.7-7-7.7-7-9.9-8.3c-2.8-1.7-5.7-3.2-8.7-4.5c-12-5.4-24.7-8.2-37.7-9.9
			c-18.4-2.5-37.5-0.8-55.1,3.6c-3.2,0.8-7.3,1.1-10-0.8c-2.3-1.6-8.1-13.7-9-16.4c-2.6-8.1-7.9-37.7,8.6-36.8
			c7.3,0.4,11.4,1.2,18.5,2.9C270.1,61.3,280.6,65.3,290.5,70.4z"/>
		<path class="st10" d="M502,149.8c-0.2,3.1-0.4,6.2-0.7,9.3c-2.5,25.5-6,52-20.4,73.1c-15.9,23.4-43.6,33-70.4,37.4
			c4.1-0.7,15.4,3.2,19.3,4.5c6.8,2.2,13.5,4.6,19.9,7.6c3.6,1.7,7.1,3.6,10.9,4.3c13.3,2.5,25.3-16.7,31.5-25.9
			c10.3-15.1,17.9-32.2,21.9-50.1c6.5-29.3,2-60.3-9.9-87.9c-0.6-1.3-1.1-2.6-1.7-3.9c-0.3-0.7-0.5-1.4-1.1-1.9
			C501.1,127.6,502.6,138.6,502,149.8z"/>
		<path class="st19" d="M451.1,284.6c-39-14.7-83.7-20.4-121.7-3.5c-14.9,6.6-31.5,16.7-46.3,9.8c-13.8-6.5-17.4-24.4-17.7-39.6
			c-0.1-2.4-0.3-5.2-2.4-6.3c-1.2-0.7-2.6-0.6-3.9-0.4c-14.2,1.5-27.9,5.7-42.1,6.8c-14.2,1.1-29.7-1.5-39.6-11.7
			c-5-5.1-8.2-11.7-10.9-18.3c-5.2-12.5-8.9-26.1-7.3-39.6c2.3-18.9,15.1-35.3,30.6-46.3c15.6-11,33.8-17.4,51.8-23.7
			c-11.8-13.4-16.5-32.6-12.4-49.9c4.2-17.3,17.1-32.3,33.7-38.8c6.8-2.7,14-4,21.1-5.3c14.3-2.6,28.6-5.3,43-5.9
			c30.1-1.3,60.1,6.3,87.3,19.3c39.9,19,74.8,50.5,92.4,91.1c5.4,12.4,9.1,25.4,11.6,38.7c2,10.2,3.3,20.7,2.2,31.1
			c-0.9,8.4-3.3,16.5-5.6,24.6c-3.7,12.4-7.3,24.9-13.5,36.2c-4.8,8.9-11.1,16.9-17.8,24.5c-3.4,3.8-6.8,7.5-10.3,11.2
			c-2.2,2.3-6.1,7.1-9.3,3.6c-1.4-1.5-2.4-2.9-4.2-3.9C456.9,286.8,454,285.7,451.1,284.6z"/>
		<path class="st22" d="M377.5,270.5c-16.2,0.5-32.4,3.8-48.5,10.4c-9.7,4-19.2,8.9-29.6,10.7c-26,4.5-47.9-22.8-33.7-46.9
			c-31.4,14.4-74.5,19.2-95.2-14.5c-9.3-15.2-14.2-34.9-11.7-52.6c2.7-18.4,16.7-33.3,31.8-43.1c15.5-10.1,35.3-18.5,54-19.1
			c-5.7,0.2-11.3-11.9-13.3-16.1c-3.2-6.8-4.9-14.3-5.3-21.8c-0.8-15.2,4.2-30.8,15-41.7c9.8-9.9,23.2-15.5,36.6-19.3
			c37.8-10.9,79-9.8,116.2,3c26.4,9.1,50.6,24,70.8,43.3c38.9,37.3,64.5,87.7,54.8,142.6c-5.6,31.8-22.6,61.4-47.1,82.4
			c-2.1,1.8-4.5,3.6-7.3,3.6c-1.9,0-3.7-0.9-5.4-1.7C433.1,276.9,405.4,269.6,377.5,270.5z"/>
		<path class="st20" d="M257.8,111.2c0.5-0.1,0.8-0.1,1-0.1c8.9-1,17.8-1.8,26.7-2c31.2-0.9,61.8,6.7,85.6,27.6
			c-32.6-28.6-82.4-19.4-122-18.3c-4,0.1-8.6-0.2-11-4C237.7,113.7,253.6,111.7,257.8,111.2z"/>
		<path class="st13" d="M269.2,232.1c0.8-1.1,1.7-2.2,2.6-3.2c16.3-19.3,42.2-31.8,67.7-30.1c-17.2-1.1-37,7.2-49.7,18.7
			c-5.2,4.8-9.4,10.5-13.2,16.4c-1.7,2.6-3,5.6-5.4,7.6c-2.3,1.9-5,3-7.8,2.2C264.2,239.5,266.5,235.6,269.2,232.1z"/>
		<path class="st21" d="M439,65.4c-37.4-29-85.6-41.9-134-38.1c-6.5,0.5-13.4,1.5-18.5,5.4s-7.3,11.7-3,16.3
			c3.8,4,10.3,3.8,15.9,3.3c27-2.3,52.6-4.5,79.4,1.1c25.1,5.2,49.7,14.7,72.1,26.4c1,0.5,2.1,1,3.1,1.5c0.7,0.3,1.9,1.3,2.7,1.2
			c1,0,0.1-0.7-0.3-1.2c-0.7-0.8-1.3-1.6-2-2.3c-1.4-1.5-2.9-3-4.5-4.4C446.3,71.3,442.7,68.2,439,65.4z"/>
		<path class="st21" d="M296.2,123.7c-18.9-1.7-38.1,0.9-56.2,6.5c-6.3,1.9-12.5,4.3-18.2,7.6c-4.6,2.7-8.7,6.1-12.6,9.7
			c-5.3,5-9.3,12-5,19.1c1.5,2.6,4.2,4.6,7.2,4.7c3.3,0.1,6.2-2.1,8.8-4.1c33.2-25.4,76.3-35,117.2-27.2c1.9,0.4,3.8,0.7,5.7,1.1
			c1.7,0.3,3.8,1.1,5.5,1.1c0.1-1.1-3-2.4-3.8-2.9c-1.6-1-3.2-1.9-4.8-2.8c-3.3-1.8-6.7-3.4-10.1-4.8c-6.9-2.8-14.1-4.9-21.4-6.4
			C304.4,124.7,300.3,124.1,296.2,123.7z"/>
		<path class="st10" d="M174.7,191.3c2.8,2.7,5.9,5.2,9.5,7.4c14.4,8.8,31.1,11.9,47.7,9.2c17.5-2.9,33.7-10.8,51.3-13.3
			c19-2.7,38.1-2.1,56.3,4.2c-9.7-3.3-24.1,0.4-33.3,4c-9.7,3.7-19,9-26.9,15.8c-4,3.4-7.6,7.3-10.6,11.6c-2.1,3-3.8,10.8-7,12.2
			c-14.2,6.3-31.2,9.9-46.8,9.7c-10.1-0.1-21.9-4-30.1-10.3c-15.2-11.7-23.2-32.7-22.6-51.5c0.1-4.1-0.2-8.7,0.1-12.5
			C166.5,182.1,170.2,187,174.7,191.3z"/>
		<path class="st10" d="M290.5,70.4c3.1,1.6,6.2,3.3,9.2,5c11.3,6.6,21.8,14.3,31.9,22.5c5.2,4.2,10.2,8.6,15.2,13.1
			c2.7,2.4,18.5,20.6,15.6,18c-7.7-7-7.7-7-9.9-8.3c-2.8-1.7-5.7-3.2-8.7-4.5c-12-5.4-24.7-8.2-37.7-9.9
			c-18.4-2.5-37.5-0.8-55.1,3.6c-3.2,0.8-7.3,1.1-10-0.8c-2.3-1.6-8.1-13.7-9-16.4c-2.6-8.1-7.9-37.7,8.6-36.8
			c7.3,0.4,11.4,1.2,18.5,2.9C270.1,61.3,280.6,65.3,290.5,70.4z"/>
		<path class="st10" d="M502,149.8c-0.2,3.1-0.4,6.2-0.7,9.3c-2.5,25.5-6,52-20.4,73.1c-15.9,23.4-43.6,33-70.4,37.4
			c4.1-0.7,15.4,3.2,19.3,4.5c6.8,2.2,13.5,4.6,19.9,7.6c3.6,1.7,7.1,3.6,10.9,4.3c13.3,2.5,25.3-16.7,31.5-25.9
			c10.3-15.1,17.9-32.2,21.9-50.1c6.5-29.3,2-60.3-9.9-87.9c-0.6-1.3-1.1-2.6-1.7-3.9c-0.3-0.7-0.5-1.4-1.1-1.9
			C501.1,127.6,502.6,138.6,502,149.8z"/>
	</g>
	<g>
		<path class="st8" d="M318.5,553.5c1.5,18-17.4,30.3-34.2,38.9c-5.8,3-19.5,7.7-29.2,0.9c-6-4.2-9.4-12-9.6-18.7
			c-0.3-8.3,4.4-10.4,3.3-18.3c-1-7.2-5.2-7.9-6.5-15c-1.6-8.5,2.9-16,4.5-18.6c6.4-10.7,19.2-16.1,30.3-17
			C297.3,503.9,317,535.5,318.5,553.5z"/>
		<path class="st23" d="M335.6,574.6c-2,2.3-5.5,4.4-6.8,5c-7.6,3.6-15.8,6-23.7,9c-5,1.9-9.9,4.1-14.4,6.9c-4.6,2.9-8,7.2-12.6,9.9
			c-2.4,1.4-5.1,1.6-7.9,1.1c-4.1-0.8-8.3-3.1-11.5-5c-1-0.6-8.1-5.2-3.3-4.9c1.6,0.1,3.3,0.1,4.9,0c9.9-0.8,19.4-5.5,27-11.7
			c6.7-5.4,14.6-13,17.9-21.1c0.6-1.6,1.1-3.7,2.9-4.2c2.1-0.5,4,0.9,5.8,1.7c2.3,1.1,4.9,1.8,7.4,2.7c3.9,1.4,7.7,2.8,11.5,4.3
			C336,569.7,338.8,571,335.6,574.6z"/>
		<path class="st24" d="M268.3,554.2c-2.8,1.3-5.3,3.6-6.6,5.8c-2.3,3.7-3.1,8.2-3.1,12.5c0,2.7-0.6,10.7,3.4,10.9
			c1.5,0.1,2.8-0.8,3.8-1.9s1.7-2.4,2.5-3.6c2.3-3.2,5.8-5.3,9.4-7c3.6-1.7,7.3-3.1,10.6-5.3c2.6-1.7,5.1-4.5,4.5-7.5
			c-0.5-2.7-3.4-4.4-6.2-4.5c-2.1-0.1-4.1,0.6-6,1.3c-2.3,0.9-1.7,0.2-3.5-0.9C274.3,552.4,271.1,552.9,268.3,554.2z"/>
		<path class="st25" d="M271.9,587.4c0.4-0.4,0.6-1,0.2-2c-0.3-0.8-0.8-1.5-1.3-2.1c-0.5-0.6-1.7-2.7-2.4-2.2
			c-0.6,0.4-0.6,3.6-0.7,4.3c0,0.7-0.1,1.5,0.3,2.1C268.7,588.9,271.1,588.3,271.9,587.4z"/>
		<path class="st25" d="M257.5,587.2c0.5-0.3,0.8-0.9,0.7-1.9c-0.1-0.8-0.4-1.6-0.8-2.4c-0.3-0.7-1-3-1.9-2.7
			c-0.7,0.2-1.4,3.3-1.6,4c-0.2,0.7-0.4,1.5-0.2,2.2C254,587.9,256.5,587.8,257.5,587.2z"/>
		<path class="st25" d="M252.5,580.2c0.5-0.3,0.8-0.9,0.8-2c0-0.9-0.4-1.7-0.7-2.5c-0.3-0.7-0.9-3.2-1.8-2.9
			c-0.7,0.2-1.6,3.4-1.9,4.2c-0.2,0.7-0.5,1.5-0.3,2.3C248.9,580.8,251.4,580.8,252.5,580.2z"/>
		<path class="st25" d="M252.9,571.8c0.5-0.3,0.8-0.9,0.8-2c0-0.9-0.4-1.7-0.7-2.5c-0.3-0.7-0.9-3.2-1.8-2.9
			c-0.7,0.2-1.6,3.4-1.9,4.2c-0.2,0.7-0.5,1.5-0.3,2.3C249.3,572.3,251.9,572.4,252.9,571.8z"/>
		<path class="st25" d="M287.9,573.7c0.5-0.3,0.7-0.9,0.6-1.9c-0.1-0.8-0.5-1.6-0.9-2.3c-0.4-0.7-1.1-3-2-2.7
			c-0.7,0.3-1.3,3.4-1.5,4.1c-0.2,0.7-0.3,1.5-0.1,2.2C284.5,574.5,287,574.3,287.9,573.7z"/>
		<path class="st25" d="M280.4,580.9c0.4-0.3,0.6-0.9,0.4-1.9c-0.1-0.8-0.5-1.5-0.9-2.1c-0.4-0.6-1.2-2.7-1.9-2.4
			c-0.6,0.3-0.9,3.3-1,3.9c-0.1,0.7-0.2,1.4,0,2C277.5,581.9,279.6,581.6,280.4,580.9z"/>
		<path class="st25" d="M294.1,567.3c0.3-0.3,0.5-0.8,0.3-1.6c-0.1-0.7-0.5-1.2-0.9-1.8c-0.3-0.5-1.1-2.2-1.8-1.9
			c-0.5,0.3-0.7,2.8-0.8,3.3c-0.1,0.6-0.1,1.2,0.1,1.7C291.5,568.2,293.4,567.9,294.1,567.3z"/>
		<path class="st26" d="M288.7,584.7c-2.6,2.6-5.5,4.9-8.8,6.6c-4.5,2.3-9.4,3.2-14.3,4c-2.1,0.3-8.9,1.1-9.1,4.1
			c0,0.9,0.5,1.7,1,2.3c3.4,4,9.3,4.8,14.5,4.6c2.5-0.1,4.9-0.4,7.2-1.3c4.5-2,7.6-6.1,11.9-8.5c13.9-7.7,31.2-10.4,43.4-20.7
			c0.6-0.5,1.3-1.2,1.3-2c0.1-1.3-1.3-2.1-2.5-2.6c-7.5-3.2-14.9-6.4-22.4-9.5c-1.5-0.6-3.1-1.3-4.7-0.8c-1.8,0.5-2.2,2.2-1.8,3.7
			c1,4.2-7.8,11.4-10.3,14.2C292.5,580.8,290.7,582.8,288.7,584.7z"/>
		<path class="st27" d="M241,569.2c-0.1,0.9-0.2,1.8-0.2,2.7c-0.1,4.9,0.7,10.8,3.1,15.1c4.2,7.8,12.7,12.2,21.5,10.9
			c6-0.9,13.3-5.4,17.9-9.3c9.7-8.3,18.3-16.1,23.4-28.5c1.1-2.7,0.4-4.6-2.1-3c-5.1,3.2-10.3,11.5-14.6,15.7
			c-4.6,4.5-9.4,8.7-14.4,12.7c-4.3,3.4-9.7,6.2-15.4,5.4c-7.2-1-13-7.1-13.4-14.4c-0.3-6.2,3.1-11.2,3.5-17.1
			c0.1-1.3-0.2-2.8-1.7-3.2c-1.2-0.3-1.8,0.7-2.5,1.5C243.3,560.9,241.6,565,241,569.2z"/>
		<path class="st21" d="M269.2,555.9c-0.1,0-0.2,0.1-0.3,0.1c-3.8,1.1-6.6,5-5.8,8.9c0.3-0.5,0.7-1.1,1.2-1.6c2.1-2.2,4.4-4.5,7.4-5
			c1.3-0.2,5.4-0.5,2.6-2.1C272.9,555.3,270.7,555.6,269.2,555.9z"/>
	</g>
	<g>
		<path class="st25" d="M267.2,532.4c-0.5,0.4-0.8,1-0.6,2.1c0.2,0.9,0.7,1.6,1.2,2.4c0.5,0.7,1.5,3,2.4,2.6
			c0.8-0.3,1.3-3.6,1.5-4.4c0.2-0.7,0.3-1.5,0-2.3C271.1,531.3,268.3,531.7,267.2,532.4z"/>
		<path class="st25" d="M286.2,539.5c-0.7,0.2-1.2,0.8-1.5,2c-0.2,1,0,2,0.2,3c0.2,0.9,0.3,3.9,1.4,3.8c0.9,0,2.8-3.4,3.3-4.2
			c0.5-0.7,1-1.6,1-2.4C290.6,539.9,287.6,539.1,286.2,539.5z"/>
		<path class="st25" d="M258.4,533.8c-0.5,0.4-0.8,1-0.6,2.1c0.2,0.9,0.7,1.6,1.2,2.4c0.5,0.7,1.5,3,2.4,2.6
			c0.8-0.3,1.3-3.6,1.5-4.4c0.2-0.7,0.3-1.5,0-2.3C262.3,532.7,259.5,533.1,258.4,533.8z"/>
		<path class="st25" d="M244,537.5c-0.5,0.4-0.7,1-0.5,2.1c0.2,0.9,0.6,1.6,1,2.4c0.4,0.7,1.3,3,2.1,2.6c0.7-0.3,1.1-3.6,1.3-4.3
			c0.1-0.7,0.3-1.5,0-2.3C247.4,536.5,244.9,536.8,244,537.5z"/>
		<path class="st25" d="M278.1,533.5c-0.6,0.2-1.1,0.7-1.2,1.8c-0.1,0.9,0.1,1.8,0.4,2.6c0.2,0.8,0.5,3.3,1.5,3.2
			c0.8-0.1,2.4-3,2.8-3.7c0.4-0.7,0.8-1.4,0.7-2.1C282.2,533.7,279.4,533.1,278.1,533.5z"/>
		<path class="st25" d="M251.9,536.6c-0.5,0.3-0.7,0.8-0.5,1.8c0.1,0.7,0.6,1.4,1,2c0.4,0.6,1.3,2.6,2.1,2.2
			c0.7-0.3,1.1-3.1,1.3-3.7c0.2-0.6,0.3-1.3,0-1.9C255.3,535.7,252.8,535.9,251.9,536.6z"/>
		<path class="st25" d="M293.8,547.9c-0.6,0-1,0.3-1.4,1.2c-0.3,0.7-0.2,1.5-0.2,2.2c0,0.7-0.2,2.8,0.7,3c0.7,0.1,2.6-1.9,3.1-2.4
			c0.5-0.4,0.9-0.9,1-1.6C297.3,549,295,547.9,293.8,547.9z"/>
		<path class="st17" d="M315.6,518.6c-2-2.8-4.2-5.4-6.3-8.2c-6.2-8-12.5-16.7-21.4-21.9c-0.9-0.5-1.9-1-2.9-1.5
			c-20.2-9.1-35.9,19-42.7,33.4c-2.7,5.8-4.2,11.4-3.2,17.8c0,0.1,0,0.3,0.1,0.4c1.1,6.4,3.6,12.5,7.4,17.7c0.5,0.7,1.2,1.5,2.1,1.4
			c0.5-0.1,0.9-0.5,1.2-0.9c0.8-1.5,0-3.4-1.2-4.6c-3.6-4-6.2-8.2-6.5-13.8c0-0.6,0-1.4,0.4-1.9c1.2-1.6,5.2-0.6,6.9-0.8
			c2.5-0.3,4.7-1.6,7-2.6c7.1-3.1,13.8-4.1,21.5-3.5c8.8,0.7,15.8,8.3,19.3,16c2.4,5.4,3.1,11.7,9.7,13.4c8.7,2.3,17.1,5.6,25,9.9
			c0.8,0.5,1.7,0.9,2.7,1.1c2.4,0.3,3.1-1.5,3.1-3.6c-0.2-10.7-7.4-19.2-11.9-28.4c-2.4-4.9-4.6-10-7.2-14.8
			C317.7,521.7,316.7,520.1,315.6,518.6z"/>
		<path class="st28" d="M289.6,494.7c1.4,2,2.3,4.8,0.9,6.7c-2.2,2.9-4,4.6-5.4,8c-1.6,4-3,8-4.3,12.1c-0.9,2.8-1.6,6,0,8.4
			c1.3,1.8,3.5,2.5,5.4,3.6c7.2,3.8,10.4,11.8,14.2,18.5c4.7,8.3,10.6,11.3,19.9,13c6,1.1,11.4,2.6,17.1,4.7
			c-0.8-0.3-3.3-15.1-3.9-16.7c-2.3-6-5.4-11.6-8.4-17.2c-4.6-8.5-9.1-17.2-14.8-25c-3.1-4.3-6.6-8.3-10.5-11.8
			c-2.5-2.2-9.5-9-13-8.9c-1,0,0.2,1.5,0.5,1.8C288,492.9,288.9,493.8,289.6,494.7z"/>
	</g>
	<g>
		
			<ellipse transform="matrix(0.9965 -8.394749e-02 8.394749e-02 0.9965 -35.9327 33.8528)" class="st14" cx="384.6" cy="444.2" rx="9.4" ry="10.3"/>
	</g>
	<g>
		
			<ellipse transform="matrix(0.9965 -8.394749e-02 8.394749e-02 0.9965 -36.6076 19.0751)" class="st14" cx="208.5" cy="444.8" rx="7.6" ry="9.2"/>
	</g>
</g>
<rect x="0.5" y="0.5" class="st29" width="758" height="758"/>
</svg>
