<?xml version="1.0" encoding="utf-8"?>
<!-- Generator: Adobe Illustrator 25.4.1, SVG Export Plug-In . SVG Version: 6.00 Build 0)  -->
<svg version="1.1" id="Layer_1" xmlns="http://www.w3.org/2000/svg" xmlns:xlink="http://www.w3.org/1999/xlink" x="0px" y="0px"
	 viewBox="0 0 321.6 516.4" style="enable-background:new 0 0 321.6 516.4;" xml:space="preserve">
<style type="text/css">
	.st0{fill:#FFFFFF;stroke:#231F20;stroke-width:8;stroke-miterlimit:10;}
	.st1{fill:#FFFFFF;}
	.st2{fill:#D6D6D6;}
	.st3{fill:#FFFFFF;stroke:#000000;stroke-width:7;stroke-miterlimit:10;}
	.st4{fill:#E92729;}
	.st5{fill:#EB2127;stroke:#231F20;stroke-width:7;stroke-miterlimit:10;}
	.st6{fill:#EE464F;}
	.st7{fill:#231F20;}
	.st8{fill:#231F20;stroke:#231F20;stroke-width:0.25;stroke-miterlimit:10;}
	.st9{opacity:0.3;fill:#6A0C0F;}
	.st10{fill:#EB2127;}
	.st11{fill:#231F20;stroke:#231F20;stroke-miterlimit:10;}
	.st12{fill:#231F20;stroke:#231F20;stroke-width:2;stroke-miterlimit:10;}
	.st13{fill:#231F20;stroke:#231F20;stroke-width:5;stroke-miterlimit:10;}
	.st14{fill:#231F20;stroke:#231F20;stroke-width:6;stroke-miterlimit:10;}
	.st15{fill:#E6E7E7;stroke:#231F20;stroke-width:7;stroke-miterlimit:10;}
	.st16{fill:#E6E7E7;stroke:#231F20;stroke-width:3;stroke-miterlimit:10;}
	.st17{fill:#C22126;}
	.st18{fill:none;}
	.st19{fill:#231F20;stroke:#231F20;stroke-width:3;stroke-miterlimit:10;}
	.st20{fill:#E55E5D;}
	.st21{fill:#EB2127;stroke:#231F20;stroke-width:9;stroke-miterlimit:10;}
	.st22{fill:#BBBDBF;stroke:#231F20;stroke-width:3;stroke-miterlimit:10;}
	.st23{fill:#EB2127;stroke:#231F20;stroke-width:0.5;stroke-miterlimit:10;}
	.st24{fill:#FFFFFF;stroke:#231F20;stroke-width:0.5;stroke-miterlimit:10;}
	.st25{opacity:0.2;fill:#231F20;}
	.st26{fill:#FFFFFF;stroke:#231F20;stroke-width:2;stroke-miterlimit:10;}
	.st27{opacity:0.1;fill:#231F20;}
</style>
<g>
	<g>
		<path class="st0" d="M40.5,366.6c0.3,0.8,0.6,1.6,0.9,2.3c5.3,14.1,10.1,28.6,17.3,41.9c9.6,17.7,24.3,31.8,42.5,40.6
			c0.1,0.1,0.3,0.1,0.4,0.2c0.3,0.1,0.6,0.3,0.9,0.4c16.1,7.5,34,11.1,51.8,10.8c30.3-0.5,71.4-13.5,103.8-42.5
			c13.9-12.5,29.4-26.7,33-49c2.3-14.2-1.2-25.1-6.1-39.8c-22-66.1-33.9-98.7-42-109c-16.4-20.9-41.7-34.7-67.8-38.9
			c-15.7-2.5-32.2,0.9-47.6,4.5c-5.2,1.2-11.1,2.5-15.3-0.7c-7.9,5.1-14,12.5-19.9,19.9c-9.9,12.3-19.9,24.6-29.8,36.9
			c-19.4,24-37.2,50.9-33.6,83.3C30.5,341.1,35.7,353.9,40.5,366.6z"/>
		<path class="st1" d="M295.3,374.1c1,9.1-6.3,20.7-11.3,27.8c-11,15.6-26.2,27.9-41.8,38.7c-23.4,16.2-45.3,29.6-73.4,36.3
			c-23.8,5.7-48.4,7.7-72.8,9.6c-7.5,0.6-15.3,1.1-22.2-1.8c-16.7-7-30.7-36.8-7.6-45.4c19.2-7.1,43.8,3.6,63.6,4.1
			c23.1,0.6,46.4-3.1,68-11.1c21.9-8.1,42.1-20.6,59.4-36.3c8.6-7.9,15.4-20.6,24.5-27.4c7-5.3,12.6-3.7,13.3,2.2
			C295,370.8,295.3,374,295.3,374.1z"/>
		<path class="st0" d="M40.5,366.6c0.3,0.8,0.6,1.6,0.9,2.3c5.3,14.1,10.1,28.6,17.3,41.9c9.6,17.7,24.3,31.8,42.5,40.6
			c0.1,0.1,0.3,0.1,0.4,0.2c0.3,0.1,0.6,0.3,0.9,0.4c23,10.8,51.8,10.8,51.8,10.8c42.9,0.1,127.4,67,154.4,45.2
			c1.1-0.9,1.7-1.7,2.2-2.4c12.9-15.6,4.4-40.7-2.5-66.7c-6.5-24.7-9.8-50-15.1-75c-11.2-53.3-9.6-50.9-13.3-63.2
			c-10-33.2-16.8-56.2-37-78.3c-10.9-12-37.8-34.1-67.8-38.9c-15.7-2.5-32.2,0.9-47.6,4.5c-5.2,1.2-11.1,2.5-15.3-0.7
			c-7.9,5.1-14,12.5-19.9,19.9c-9.9,12.3-19.9,24.6-29.8,36.9c-19.4,24-37.2,50.9-33.6,83.3C30.5,341.1,35.7,353.9,40.5,366.6z"/>
		<path class="st2" d="M159.8,348c-1.5,1-37.7,26.8-34.3,69.7c2.6,32.8,26.6,51.6,30.6,54.6c8.2,13,12.7,13.7,14.8,13.3
			c7.6-1.6,9.5-24,9.4-35.8c-0.1-12.8-2.6-22.3-3-24.1C172.4,406.6,166.8,381.8,159.8,348z"/>
	</g>
	<g>
		<path class="st3" d="M190.5,448.6c25.2,17.3,40.4,23.7,45.6,19c2-1.8,2.6-5.3,1.6-10.4c24.3,14.5,38.4,20.1,42.5,17
			c2.6-2,1.1-7.7-4.6-17c20.9,13.8,33.6,19.2,38.3,16.1c2.8-1.8,2.7-6.6-0.2-14.4c-14.2-4.3-28.3-8.6-42.5-12.9
			C244.2,446.8,217.4,447.7,190.5,448.6z"/>
		<path class="st1" d="M182.8,440.3c4.4-3.7,18,3.4,19,4l105-2.5c1.8,6.4,3.7,12.7,5.5,19.1c-5.5-1-11.2-2.2-17.1-3.6
			c-11.2-2.7-21.5-5.9-30.8-9.2c-6.4,0.9-12.8,1.8-19.2,2.7c-16.4-0.1-32.7-0.3-49.1-0.4c-1.8-1-3.6-2-5.4-3c-2.7,0-5.3-0.1-8-0.1
			c-0.3-0.3-1.9-1.6-1.9-3.5C180.8,441.9,182.2,440.7,182.8,440.3z"/>
		<path class="st2" d="M295.7,388c0.6,3.6,1.7,9.3,3.2,16.2c4.8,22.3,7.2,33.5,9.9,39.4c0.6,1.4,6.3,13.9,5.5,24.1
			c-0.1,0.7-0.3,3.4-0.9,3.4c-0.8,0.1-1.6-4.5-3.4-10.5c-1.3-4.5-2.7-7.8-5.4-14.4c-3.1-7.6-5.8-12.9-6.4-14.2
			C294.9,425.1,292.4,412.5,295.7,388z"/>
		<path class="st2" d="M261.1,438.4c3.6,5.5,6.6,9.8,8.7,12.8c1.1,1.6,3,4.2,5.1,7.8c1.8,3.1,2.9,5.5,3.7,8.2c0.5,1.6,0.8,3,0.9,4
			c-1.7-3-3.8-6.2-6.3-9.5c-1.5-2-3-3.8-4.4-5.5c-0.9-1.9-1.7-3.8-2.6-5.7C264.5,446.4,262.8,442.4,261.1,438.4z"/>
	</g>
	<g>
		<ellipse class="st4" cx="95.7" cy="386.6" rx="42.9" ry="22.6"/>
		<g>
			<path class="st5" d="M43.5,374.4c-0.8,1.3-3.5,4.3-3.8,5.8s-0.2,3.2,0.8,4.4c0.8,1,1.9,1.5,2.9,2.3c1.7,1.5,2.5,3.7,2.7,6
				c0.2,2.2-2.2,4.6-2.5,6.8c-0.9,6-1.4,12.3,0.9,17.8c1,2.5,2.6,4.8,3.1,7.5c0.9,5.3,0.8,10.1,0,15.3c-1,5.9-1.9,11.8-2.5,17.8
				c-0.9,9.2-1.3,18.5,0.3,27.7c1.3,7.9,4.4,18,12.2,21.8c5.8,2.9,13,1.2,18.3-2.5c7.2-5.1,13.2-13.6,16.4-21.8
				c0.2-0.6,0.7-1.3,1.4-1.2c0.3,0.1,0.6,0.4,0.7,0.7c5,8.9,10.7,19.1,20.6,23.1c11,4.4,29.5,2.8,38.1-4.5
				c16.2-13.9,14.1-38.5,12.6-52.5c-2.5-23.3-13.5-40.5-21-50.1"/>
			<path class="st6" d="M62.9,483.5c-4.2-3-7.4-7-9-12.2c-1.9-6.4-1-13.2-0.5-19.7c0.5-6.7,0.1-13.4-0.3-20.1
				c-0.3-5.3-0.8-10.3,2.3-15.1c1.9-2.9,4.5-5.3,7.1-7.6c0.5-0.5,1.2-1.2,0.8-1.9c-0.1-0.3-0.4-0.4-0.6-0.6
				c-3.5-2.3-7.2-4.2-11.1-5.6c-0.8-0.3-4.5-0.3-5.3,0.1c-0.5,0.3-0.8,0.8-1.1,1.3c-1.8,3.7-1.2,8.1,0,12.1c1.1,4,3.8,7.7,4.1,11.8
				c0.3,4.7,0.8,9.1-0.3,13.6c-4.2,17.3-4.3,44.7,11.4,57.1c4.5,3.5,7.1,3.4,12.3,1.1c7.1-3.2-0.1-9.4-3.3-10.8
				C67.1,486.1,64.9,484.9,62.9,483.5z"/>
			<path class="st7" d="M52,412c0.3-0.5,0.6-0.8,0.9-0.9c0.1,0,0.2,0.2,0.3,0.3c1.7,3.1-0.6,7.7-1.9,10.6c-0.3,0.7-0.8,1.5-1.6,1.4
				c-0.6,0-1-0.6-1.1-1.2c-0.1-0.6,0.1-1.2,0.4-1.8C49.4,419.4,50.7,414.1,52,412z"/>
			<path class="st8" d="M88.4,473.6c1.6-0.3,3.1,0.9,4.3,2c0.7,0.7,1.5,1.4,2.2,2.1c0.9,0.8,1.8,1.7,2.4,2.7c0.6,1,0.9,2.3,0.6,3.5
				c-0.3,1.1-1.5,2.1-2.7,2c-1.1-0.2-1.4-2.1-1.5-3c-0.1-0.9-0.2-1.8-0.6-2.6c-0.5-1.2-1.4-2.5-2.3-3.5
				C89.8,475.9,88.3,475,88.4,473.6z"/>
			<path class="st9" d="M54.7,489.9c1.5,2.7,3.3,5.3,5.8,6.9c3.6,2.4,8.3,2.4,12.3,1.1c4-1.3,7.1-4.2,10.7-6c-0.5,1-0.6,2.2-1.1,3.2
				c-0.7,1.6-1.8,3-2.9,4.3c-5.4,6.3-14.9,10.1-22.5,5.5c-6.2-3.7-8.7-11.7-9.9-19c-1.1-6.7-1.7-13.8-1.1-20.5
				c1.5,3.5,1.8,8.3,3.1,12.1C50.5,481.8,52.4,485.9,54.7,489.9C54.6,489.8,54.6,489.8,54.7,489.9z"/>
			<path class="st9" d="M118,501.7c6.3-0.1,12.7-2.7,17.4-6.9c5.4-4.8,8.9-11.5,10.9-18.4c2-7.1,1.2-15.2,0.7-22.5
				c-1.3-16.7-5.6-33.1-12.6-48.3c-0.5-1.1-1-2.1-1.5-3.2c-0.5-0.9-1-1.9-1.8-2.6c-1.1-0.8-2.5-1-3.8-1.1c-2.4-0.2-4.7-0.5-7.1-0.7
				c3.4-1.6,6.4-4.2,8.5-7.4c4,6.7,12.6,16,18.6,20.5c10.8,8.2,11.7,17.1,14.1,30.3c2.5,13.7,3.6,27.7,0.1,41.2
				c-3.5,13.4-10.5,21.2-24.4,23.1c-10.2,1.4-24.2,0.6-30.5-9.3c-0.2-0.3-2.4-1.1-1.8-1.1c0.2,0,1.6,1,1.8,1.1
				c0.4,0.3,0.8,1.4,1.2,1.7C111.1,500.1,114.1,501.7,118,501.7z"/>
		</g>
	</g>
	<g>
		<path class="st10" d="M269.4,314.2c1.6,18.8-0.6,104.2-38.5,116.9c-29.8,10-74.9-10.3-97.5-38.2c-9.3-11.5-12.3-21.1-24-24.9
			c-23.8-7.7-42.3,22.4-58.4,15.1c-19.7-8.9-12.9-62.9-9.4-81.4c3.6-19.2,9.9-32.3,15.6-41.6c6.9-11.2,12.5-21,25-27
			c10-4.8,21-6.7,31.9-8.6c19.2-3.3,38.4-6.6,57.7-9.9c14.1-2.4,30-3.7,41.5,6C224.7,236.1,267.4,291,269.4,314.2z"/>
		<g>
			<path class="st5" d="M57.9,250.3c0-3.5-4.9-5.5-4.6-9c0.1-1.9,1.9-3.4,3.8-3.9c1.9-0.6,3.8-0.5,5.8-0.8c0.4-0.1,0.8-0.2,0.9-0.6
				c0.2-0.9-1.8-1.3-1.3-2.1c0.8-1.5,3.1-1,4.6-1.8c0.6-0.3,1.1-0.8,1.5-1.4c1.3-1.7,2-3.7,3.3-5.4c1.1-1.5,2.7-2.7,3.9-4.2
				c1.6-1.8,2.7-4,3.8-6.2c0.5-1.1,1.3-2.4,2.5-2.5c0.5,0,0.9,0.1,1.4,0.3c6.2,2,12.6,4.2,17.1,8.8c1.5,1.6,6.3-2.2,7.6-3
				c10.3-6.6,22.7-9.8,34.6-12.4c12.5-2.7,25.4-4,38-2.3c15.2,2,29.5,8.4,40.8,18.9"/>
			<path class="st5" d="M126,380.5c4.7,12.7,14.8,22.5,25,31.3c10.2,8.8,20.9,17.2,33.1,22.9c18.3,8.6,39.5,9.1,57.4-0.8
				c11.9-6.6,21.5-17,27.8-29c8.1-15.2,11.1-32.7,11.4-50c0.6-33.3-8.4-65.2-26.4-93.1c-6-9.3-12.9-18.1-20.4-26.4
				c-9.1-10-19.2-19.4-31.5-25"/>
			<path class="st7" d="M85.3,327.4c-0.2-0.2-0.5-0.5-0.5-0.8c0-0.5,0.5-0.9,1-0.9c0.5,0,0.9,0.3,1.3,0.7c1.2,1,2.2,2.4,3.6,3.1
				c0.1,0.1,0.3,0.1,0.4,0.1c0.3,0,0.5-0.5,0.4-0.8s-0.4-0.5-0.7-0.8c-1.1-0.8-2-1.9-2.6-3c-0.2-0.3-0.4-0.8-0.1-1.1
				c0.3-0.3,0.9,0,1.2,0.3c2.5,2.4,4.7,5.1,7.5,7.2c0.5,0.3,1,0.8,0.9,1.4c-0.8,0.3-1.8,0.1-2.5-0.4c-0.2,0.5,0.1,2,0.5,2.4
				c-1-0.9-2.1-1.5-2.9-2c-0.6-0.4-1.3-0.6-2-0.8c-0.6-0.1-1.3-0.1-1.9-0.3c-0.9-0.3-1.3-1.4-1.8-2.1
				C86.5,328.7,85.9,328,85.3,327.4z"/>
			<path class="st7" d="M97,323.8c-1.3-1.3-2.7-2.3-4-3.6c-0.2-0.2-0.6-0.2-0.8,0c-0.4,0.3-0.3,0.9-0.1,1.3c1.2,2.4,3.4,4.2,5.7,5.4
				c1.7,0.8,0.9-1.3,0.3-1.9C97.7,324.6,97.3,324.2,97,323.8z"/>
			<path class="st7" d="M99.5,318.9c-0.8-1.2-2-2.3-3.1-2.8c-0.2-0.1-0.4-0.1-0.6,0c-0.3,0.2-0.2,0.7,0,1c0.8,1.8,2.3,3.1,3.8,4
				c0.8,0.4,0.9-0.3,0.5-1C100,319.7,99.8,319.3,99.5,318.9z"/>
			<path class="st6" d="M104.6,246.7c-3.1,4.3-5.6,9-7.6,14.1c-5.9,14.6-8.6,33.2-0.5,47.6c1,1.7,2.6,3.5,4.5,3
				c4.4-1.1,1.9-11.3,2-14.3c0-6.1,0.7-12.1,1.9-18.1c4-18.8,14.1-34.6,26.4-49c0.4-0.5,0.9-1.1,0.6-1.7c-0.3-0.7-1.3-0.6-2.1-0.4
				C119.1,231.3,110.8,238.1,104.6,246.7z"/>
			<path class="st11" d="M141.6,218.9c-1.5,0.5-3,1.1-4.3,1.6c-5.4,1.9-10.5,4.3-15.4,7.3c-3.7,2.2-9.3,5.6-11,9.9
				c-0.1,0.1,0.1,0.2,0.2,0.2c5.2-3.5,11.3-6.4,16.8-9.4c6.9-3.7,14.4-6.9,22.3-7.5c1.1-0.1,2.5-0.3,2.7-1.5
				c0.1-0.7-0.4-1.4-1.1-1.7C148.8,216.7,145,217.7,141.6,218.9z"/>
			<path class="st6" d="M75.2,285c0-0.3,0-0.7,0-1c-0.1-8.6-0.5-17.4-2.6-25.8c-1-4.2-2.5-8.3-4.6-12.1c-1-1.8-2.2-3.6-3.5-5.2
				c-2-2.4-2.4-2.1-5.3-1.8c-1,0.1-2.2,0.4-2.8,1.2c-2.3,2.7,3,3.9,4.3,4.6c3.8,2,3.5,6.8,3.8,10.4c0.4,4.9,0.7,9.7,1,14.6
				c0.6,9.9,0,20,1,29.9c0.7,6.6,1.2,13.3,1.1,20c-0.1,2.8-1.6,7.6-0.9,10.2c0.8,2.8,1.9,1.8,2.8-0.1c0.9-2,2.5-4.8,2.7-7
				C73.7,310.3,75.2,297.7,75.2,285z"/>
			<path class="st6" d="M143.8,376.3c0.1,0,0.1,0.1,0.2,0.1c6.1,3.2,12.9,4.8,19.8,5c6.7,0.2,13.5-0.9,19.5-3.9
				c8.7-4.4,11.8-11.1,15.1-19.7c-0.2,0.5-4.3,2.2-4.9,2.7c-1.9,1.6-3.6,3.5-5.5,5.1c-10.3,9.3-22.3,9.9-35.2,6.7
				c-5.2-1.3-10.5-2.9-14.8-6c-2.1-1.6-5.3-5.2-8.3-4.2C132.7,368.1,137.8,373.1,143.8,376.3z"/>
			<path class="st6" d="M143,393.9c3.6,4.9,7.9,9.6,12.3,14.1c10.5,10.8,25.6,16.4,42,13.2c1.4-0.3,2.9-0.7,3.9-1.6
				c2.2-2-1.4-2.8-3.4-3.1c-3.6-0.6-7-1.1-10.5-2.2c-11.9-3.7-22.3-10.2-31-17.7c-4.5-3.8-8.5-7.9-12.3-12.1
				c-1.8-2.1-3.6-4.2-5.3-6.3c-0.5-0.6-5-4.4-5-4.4c-0.3,1.2,0.4,2.5,0.7,3.7C136.1,383.3,139.2,388.7,143,393.9z"/>
			<path class="st6" d="M151,389.8c3.8,2.9,8.1,5.6,12.4,8c10.4,6,23.8,7.7,36.9,3c1.2-0.4,2.3-0.9,3-1.7c1.5-1.7-1.6-1.7-3.3-1.7
				c-3.1,0.1-6,0.3-9,0c-10.4-0.8-20.1-3.9-28.5-7.8c-4.3-2-8.3-4.2-12.1-6.6c-1.8-1.2-3.6-2.4-5.4-3.6c-0.5-0.4-4.8-2.4-4.8-2.3
				c0,0.9,0.7,1.7,1.2,2.5C143.6,383.4,147,386.8,151,389.8z"/>
			<path class="st9" d="M193.8,216c6,2.8,11.9,6.1,17.6,10.9c16.3,13.7,25.9,32.6,33.6,52.1c6,15.3,8.4,31.7,10.6,47.9
				c3.4,25.4-2.8,51.5-15.2,73.6c-6.3,11.2-13.5,20.2-25,26.1c-10.4,5.4-23.8,6.8-35.4,4.3c16.1,4.6,34.4,10.9,50.9,5.5
				c34.5-11.3,47.9-49.2,48.1-82.8c0.1-25.3-6-50.7-17.5-73.2c-17.1-33.3-41.6-66.9-80.4-73.9c-3-0.5-6.2-0.9-8.9,0.4
				C179,210.5,186.6,212.7,193.8,216z"/>
			<path class="st12" d="M78.5,281.1c-1,9.6-1.9,19.8,2.1,28.7c-3-6.8-5.6-11-6-19.9c-0.4-10.2,0.2-24.2,6-32.7
				c0.3,2.6-0.1,4.9-0.4,7.5C79.6,270.1,79,275.6,78.5,281.1z"/>
			<path class="st12" d="M152.2,378.3c7.9,5.6,16.3,11.4,26,12.3c-7.4-0.7-12.4-0.5-20.3-4.6c-9.1-4.6-21-12-25.5-21.3
				c2.4,1,4.2,2.5,6.3,4C143.2,371.9,147.7,375.1,152.2,378.3z"/>
			<path class="st7" d="M43.9,384.3c0.5,1.2,1.2,2.5,2.3,3.2c1.8,1.2,4.2,0.4,6.2-0.3c3-1.2,6.1-2.3,8.7-4.4c3.4-2.7,5.5-6.8,6.6-11
				c0.3,4.2-0.1,8.4-1.2,12.5c-0.4,1.5-0.9,3-1.8,4.3c-1.8,2.7-5.1,4.1-8.3,4.9c-2,0.5-4,0.8-6.1,0.5c-2-0.3-4-1.3-5.2-2.9
				c-0.9-1.2-1.3-2.7-1.7-4.1c-0.4-1.4-0.8-2.9-1.2-4.3c-0.2-0.8-1.2-2.8-0.6-3.5c0.5,0.6,0.8,1.7,1.1,2.5
				C43,382.5,43.4,383.4,43.9,384.3z"/>
			<path class="st7" d="M189.1,382.9c8-3.9,14.8-9.9,21.4-15.8c4.8-4.2,10-9.4,9.6-15.8c1.1,5.3-0.5,10.8-3.4,15.4
				c-2.9,4.6-6.9,8.2-11.1,11.6c-7,5.7-14.8,10.8-23.7,12.5c-3.5,0.6-7.1,0.6-10.5,0c-3.4-0.7-6.8-2-9.6-4c-1.6-1.1-3.1-2.5-4.1-4.2
				c1.4,1,2.7,2.2,4.3,2.9c1.5,0.6,3.3,0.9,4.9,1.2c4.8,0.9,9.7,0.4,14.4-0.9C184.1,385.1,186.7,384.1,189.1,382.9z"/>
			<path class="st13" d="M27.1,296.9c-2.9,10.2-4.2,20.8-3.9,31c0.4,15.4,4.2,30.9,12.3,44.1c5.1,8.2,15.1,17.2,22.4,6.3
				c4.5-6.8,6.2-15.6,7.6-23.5c5.8-33.4,5.6-66.3,1.6-99.8c-0.6-5.2-4.1-8.6-8.8-5.2C42.8,261,32.3,278.3,27.1,296.9z"/>
			<path class="st14" d="M225.1,298.2c1.1,20.4-5.9,41-18.6,58c-4.8,6.4-10.4,12.3-17.4,16.4c-20.3,12.1-53.2,4.7-66.8-13.7
				c-8.3-11.3-12.8-26.6-14.1-42.6c-2.4-28.6,9.8-58.5,34.8-73.8c12.7-7.8,30.5-10.5,44.2-4c11.1,5.2,20.1,14.3,26.7,24.6
				c1.6,2.6,3.1,5.3,4.4,8.1C222.4,279.9,224.6,289,225.1,298.2z"/>
			<path class="st15" d="M25.5,293.3c-2.9,10.2-4.2,20.8-3.9,31c0.4,15.4,4.2,30.9,12.3,44.1c5.1,8.2,15.1,17.2,22.4,6.3
				c4.5-6.8,6.2-15.6,7.6-23.5c5.8-33.4,5.6-66.3,1.6-99.8c-0.6-5.2-4.1-8.6-8.8-5.2C41.2,257.4,30.7,274.7,25.5,293.3z"/>
			<path class="st1" d="M27.6,302.6c-2.1,7.6-2.9,15.5-2.4,23.1c0.8,11.6,4.5,23.3,11.7,33.5c4.5,6.3,13.2,13.4,18.9,5.4
				c3.6-5,4.7-11.5,5.6-17.4c3.9-24.9,5.6-43.9,4-69.5c-0.2-4-9.4-12-13.2-9.6C39.7,276.1,31.4,288.8,27.6,302.6z"/>
			<path class="st14" d="M226.3,294.9c1.1,20.4-5.9,41-18.6,58c-4.8,6.4-10.4,12.3-17.4,16.4c-20.3,12.1-53.2,4.7-66.8-13.7
				c-8.3-11.3-12.8-26.6-14.1-42.6c-2.4-28.6,9.8-58.5,34.8-73.8c12.7-7.8,30.5-10.5,44.2-4c11.1,5.2,20.1,14.3,26.7,24.6
				c1.6,2.6,3.1,5.3,4.4,8.1C223.6,276.5,225.8,285.7,226.3,294.9z"/>
			<path class="st16" d="M219.7,295.1c1.1,19.8-5.4,39.9-17.2,56.4c-4.4,6.2-13.5,13.3-19.9,17.3c-19,11.8-46,3-58.7-15
				c-7.8-11-12-25.9-13.4-41.6c-3.2-38.1,20.5-75.3,50.3-77.8c23.4-2,43.3,13.6,52.6,34.2C217.1,277.2,219.2,286.1,219.7,295.1z"/>
			<path class="st1" d="M214.2,300.7c1,17.1-4.2,34.3-13.8,48.5c-3.6,5.3-10.9,11.4-16.2,14.8c-15.4,10-37.4,2.4-47.9-13.1
				c-6.4-9.5-9.9-22.4-11-35.8c-2.8-32.8,16.4-64.7,40.6-66.8c19-1.6,35.3,11.9,42.9,29.6C212,285.3,213.7,293,214.2,300.7z"/>
			<path class="st17" d="M144.6,242.1c0.3,0.6,0.6,1.2,0.5,1.8c-0.3,1.4-2.5,2.3-3.8,3.4c-0.9,0.8-1.3,1.9-1.1,2.8
				c0.1,0.4,0.3,0.8,0.2,1.3c-0.1,0.5-0.5,0.9-0.8,1.4c-0.8,1.3-0.9,2.7,0,4c0.5,0.7,1.2,1.3,1.8,1.9c1.4,1.3,2.6,2.8,3.6,4.3
				c0.4-1.2-0.2-2.5-0.7-3.7c-0.9-2.2-1.5-4.4-1.6-6.7c0.4,0.7,0.9,1.4,1.6,2.1c0.4,0.4,1,0.7,1.6,0.9c0.5,0.1,1.1,0.1,1.6,0.2
				c2.6,0.3,4.4,1.8,5.9,3.1c-0.6-3.3-5.6-5.5-6.6-8.8c-0.6-2.1,0.6-4.3,2.2-6.2c1.5-1.8,3.5-3.8,2.9-5.7c-0.2-0.5-0.5-1-0.7-1.5
				c-0.1-0.5,0-1.1,0.6-1.5c0.5-0.3,1.2-0.4,1.8-0.6c1.7-0.5,2.7-1.7,2.5-2.8c0-0.2-0.1-0.3-0.3-0.4c-0.2-0.1-0.5-0.1-0.8,0
				c-3.1,0.3-6.2,1.3-8.5,2.8c-0.7,0.5-1.4,1-2,1.5c-0.6,0.5-1.3,0.9-2,1.3c-0.6,0.4-0.4,0.7-0.1,1.2c0.3,0.6,0.7,1.2,1,1.9
				C143.8,240.7,144.2,241.4,144.6,242.1z"/>
			<path class="st17" d="M114,292c0.3,0.6,0.5,1.3,1,1.8c1.1,1.3,3.4,1.8,5.2,1.2c0.9-0.3,2-1,2.8-0.5c0.6,0.3,0.7,1,0.8,1.5
				c0.3,1.2,1,2.3,2,3.1c0.9,0.8,2.1,1.3,3,2.2c0.8,0.7,1.4,1.7,2.4,2.2c1.2,0.6,2.9,0.6,4,1.4c-0.7-1.4-2.7-1.9-4-2.9
				c-0.7-0.6-1.2-1.4-1.6-2.1c-0.9-1.6-1.8-3.3-2.5-5c0.7-0.3,1.5,0,2.1,0.4s1,0.9,1.7,1.1c0.8,0.3,1.8,0.1,2.5,0.5
				c0.4,0.2,0.5,0.6,0.8,0.9c0.7,0.9,2,1.4,3.2,1.3c-1.4-2.4-4.2-4-7.1-5.1c-0.6-0.2-1.2-0.4-1.7-0.9c-1-1.1-0.3-2.9-1.3-3.9
				c-0.9-0.9-2.8-0.7-4.1-0.1c-1.3,0.6-2.6,1.4-4.1,1.4c-0.3,0-0.6,0-0.9-0.1c-0.9-0.4-1-1.4-1-2.2c0.1-1.1,0.3-2.2,0.2-3.3
				c-0.1-1.1-0.5-2.2-1.4-3c-0.9,0.7-1.7,1.4-2.3,2.3c-0.7,1-1.1,2.2-1.1,3.3c0,0.4,0,0.9,0.1,1.3c0.1,0.4,0.3,0.7,0.4,1.1
				C113.4,290.6,113.7,291.3,114,292z"/>
			<path class="st17" d="M114.2,299.6c0.3,0.1,0.6,0.3,0.9,0.5c0.9,0.7,0.8,2.2,1.7,3c0.9,0.7,2.4,0.5,3.1,1.4
				c0-0.3-0.3-0.6-0.5-0.9c-0.7-0.9-0.7-2.1-0.9-3.2c-0.2-1.1-0.6-2.3-1.6-2.9c-0.6-0.3-1.2-0.3-1.8-0.6c-0.6-0.3-0.9-0.9-1.4-1.3
				c-0.4-0.3-0.9-0.6-1.4-0.4c-0.6,0.2-0.7,0.8-0.8,1.3c-0.2,0.9,0,1.6,0.7,2.2C112.8,299,113.5,299.4,114.2,299.6z"/>
			<path class="st17" d="M123.1,351.8c0-0.6,0-1.2,0.4-1.8c0.5-0.8,1.6-1.4,2.2-2.2c1.3-1.9-1.2-3.8-0.8-5.8
				c0.1-0.4,0.3-0.8,0.6-1.3c0.7-1.3,1.5-2.6,2.6-3.8s2.6-2.3,4.6-2.9c-0.8,0.2-1.2,0.7-1.4,1.2c-0.2,0.5-0.1,1-0.3,1.6
				c-0.4,1.1-1.6,2-2,3.1c-0.6,1.7,0.9,3.3,0.6,5c-0.1,0.3-0.2,0.6-0.1,0.9c0.1,0.5,0.8,0.9,1.5,1.1c0.8,0.2,1.6,0.2,2.4,0.1
				c1.6,0,3.2-0.1,4.6-0.6c1.4-0.5,2.6-1.5,2.4-2.4c-0.1-0.9-1.3-1.6-1.3-2.5c0-0.5,0.4-1,0.9-1.4c2.2-2.2,5.4-4,9-5.1
				c-1.6,1.2-3.3,2.4-4.9,3.5c-0.9,0.7-1.8,1.3-2.5,2.1c-1.4,1.6-1.4,3.6,0.5,4.8c0.6,0.4,1.4,0.6,1.9,1.1c0.6,0.6,0.5,1.5,0,2.2
				c-0.6,0.7-1.5,1.3-2.6,1.7c-2.5,1.1-5.6,1.8-8.4,1.4c-1.3-0.2-2.9-0.5-3.8,0.2c-0.7,0.5-0.5,1.2-0.4,1.8c0.1,0.9-0.4,2.1-1.8,2.4
				c-0.9,0.2-1.9-0.1-2.4-0.5c-0.6-0.4-0.9-1-1.2-1.5c-0.6-1.1-1.2-2.4-0.1-3.4"/>
			<path class="st17" d="M206.4,259.7c-0.8,0.4-1.5,1-2.2,1.4c-0.8,0.5-1.7,0.8-2.6,0.6c-0.5-0.1-0.9-0.4-1.4-0.6
				c-1.9-0.9-4-0.9-6.1-1.2c-1.6-0.3-3.3-0.8-4.8-0.5c-2.4,0.4-3.9,2.7-5.1,4.7c-1.1,1.8-2.2,3.6-3.2,5.4c2-0.7,4-1.6,5.6-2.9
				c1.5-1.2,3-2.8,5.1-2.5c1,0.1,1.9,0.7,2.9,0.9c0.8,0.2,1.6,0.1,2.4,0.2c0.8,0.2,1.7,0.7,1.9,1.5c0.2,1.1-0.9,1.7-1.7,2.3
				c-1.5,1.2-2.1,3.4-1.4,5.4c0.6-0.9,1.3-1.9,2.4-2.2c0.6-0.2,1.3-0.1,2-0.1c0.9,0,1.8-0.3,2.5-0.8c1.2-0.8,2-2,3-3
				c1-1,2.2-2,3.8-1.9c1.5,0.1,3.2,1.2,4.5,0.6c0.7-0.3,1.1-1,1.2-1.8c0.1-0.9,0-1.9-0.2-2.8c-0.1-0.8-0.3-1.5-1.1-1.8
				c-1.5-0.7-3.2-1.3-4.8-1.5C208,259.3,207.1,259.4,206.4,259.7z"/>
			<path class="st17" d="M33.3,363.6c0.1-0.9,0.4-1.8,0.1-2.6c-0.2-0.7-0.7-1.3-1.1-2c-0.7-1.4-0.4-3,0.8-4.3
				c0.5-0.6,1.1-1.1,1.6-1.6c0.5-0.6,0.7-1.2,0.5-1.8c-0.2-0.4-0.7-0.8-1-1.2c-0.3-0.4-0.2-0.9-0.2-1.4c0.1-1.5,0.5-2.9,0.9-4.3
				c0.3,1,0.5,2,0.8,3c0.2,0.7,0.5,1.4,1.5,1.6c0.1,0,0.3,0,0.4,0c0.2-0.1,0.2-0.2,0.3-0.3c0.2-0.4,0.5-0.8,0.7-1.2
				c0.1-0.2,0.3-0.5,0.6-0.6c0.2-0.1,0.3-0.1,0.5-0.2c2.1-0.3,3.9,1.2,6,0.9c-1.5,0.5-3,0.9-4.5,1.4c-0.2,0.1-0.4,0.1-0.6,0.3
				c-0.7,0.5,0.1,1.2,0,1.9c-0.1,0.6-1.1,1.1-1.9,1.5c-1.4,0.8-2.4,2-2.6,3.2c-0.1,0.5-0.1,1,0.3,1.4c0.4,0.5,1.2,0.9,1.7,1.4
				c0.9,1,0.5,2.3,0,3.5c-0.8,1.9-1.6,3.9-1,5.8c0.3,0.8,0.7,1.6,0.4,2.4c-0.6,0.2-1.3,0.1-1.7-0.2s-0.7-0.7-0.9-1
				c-0.4-0.7-0.8-1.5-1.2-2.2c-0.3-0.6-0.4-1.2-0.4-1.7C33.3,364.7,33.3,364.1,33.3,363.6z"/>
			<path class="st17" d="M56.6,366.2c-0.1-0.1-0.2-0.3-0.4-0.4c-0.2-0.1-0.4-0.1-0.6-0.1c-0.5-0.1-0.8-0.6-0.9-1.1
				c-0.2-0.8,0.1-1.6,0.5-2.3c0.4-0.7,0.8-1.4,1-2.1c0.2-0.7,0.2-1.4,0.2-2.1c0-0.4-0.1-0.8-0.3-1.2c-0.4-0.7-1.3-1.1-2-1.6
				c-1.1-0.8-1.7-2.1-1.7-3.4c0.1-1.4,0.9-2.8,0.8-4.2c-0.1,0.7,0.1,1.4,0.5,1.9c0.3,0.4,0.8,0.6,1,1.1c0.1,0.2,0,0.4,0.1,0.6
				c0,0.9,0.6,1.8,1.4,2.3c0-0.4,0.2-0.8,0.5-1s0.7-0.4,1-0.6c1.2-0.7,2.1-1.8,2.6-3c-0.3,1.3-0.4,2.6-0.3,3.8
				c0,0.4,0.1,0.9-0.2,1.1c-0.5,0.5-1.3,0.1-1.9,0.4c-0.6,0.3-0.7,1.1-0.7,1.8c0.2,1.7,0.9,3.4,0.4,5.1c-0.1,0.3-0.2,0.7-0.2,1
				s0.2,0.7,0.5,0.8c0.4,0.2,0.9-0.2,1.3,0.1c0.3,0.2,0.4,0.7,0.3,1.1c-0.1,0.7-0.4,1.3-0.7,1.9c-0.2,0.2-0.4,0.6-0.6,0.8
				c-0.2,0.1-0.6,0-0.8-0.1C57.2,366.6,56.9,366.4,56.6,366.2z"/>
			<path class="st7" d="M176.5,370.7c1-0.4,3-2.1,3.3-2.4c1.3-1.2,2.5-2.8,4.3-3.2l-0.2-1.4c-0.1-0.5,0.4-0.9,0.9-0.9
				c1.4,0.2,2.8,0,4-0.7c1.2-0.6,2.1-1.6,3-2.5c0.6-0.7,1.3-1.3,1.9-2c1.4-1.4,2.8-2.9,4.2-4.3c0.5-0.5,1.1-1.3,1-2.1
				c-0.1-0.7-1.1-1.1-0.5-2c0.4-0.5,1.1-0.7,1.7-0.9c3.3-1.2-1.4-1.9-1.5-3.2c-0.2-1.9,3.1-0.1,3.7-0.1c1.3,0,1.6-1.3,0.6-2
				c-1-0.6-1.1-1.4,0.2-1.4c1,0,2.4,0.9,3-0.2c0.4-0.7-0.1-1.6,0-2.4c0.2-1.1,1.5-1.6,2.5-2.1c1.1-0.6,2.2-1.5,2.6-2.7
				c0.4-1.2,0.2-2.7-0.8-3.5c-0.5-0.5-1.3-0.9-1.1-1.6c0.2-0.8,1.4-0.7,2.1-0.3c0.7,0.3,1.8,0.6,2.2-0.2c0.5-1.2-1.5-1.7-2-2.4
				c-0.6-1,0.3-1.2,0.9-1.4c1-0.4,1.6-0.5,2.2-1.6c1.5-2.5,2.5-5.2,3-8c0.2-1,0.3-2,0.1-3c-0.3-1.3-1.8-1.7-2.3-2.8
				c-0.6-1.4,2.8-1.9,3.1-0.2c0.3,1.3,0.3,2.7,0.1,4.1c-0.3,2.7-1,5.3-1.8,7.9c-0.7,2.2-1.6,4.3-2.3,6.4c-0.7,1.9-1.1,3.9-2,5.7
				c-0.9,1.7-2.2,3.3-3,5.1c-0.6,1.3-0.9,2.6-1.4,3.9c-0.8,2-2.1,3.8-3.4,5.5c-2.5,3.4-5,6.9-8,10c-2.9,3.1-6.1,5.8-9.7,8.1
				c-2.5,1.7-5.2,3.1-8,4.3c-0.9,0.4-2.3,1.4-3.3,0.6C176.1,370.8,176.3,370.8,176.5,370.7z"/>
			<path class="st17" d="M210.7,324c-1.1-0.9-1.4-2.7-0.3-3.6c0.6-0.4,1.4-0.6,1.7-1.2c0.5-0.8-0.1-1.8-0.7-2.5
				c-0.2-0.2-0.5-0.5-0.8-0.4c-0.1,0-0.2,0.1-0.3,0.2c-0.8,0.9-0.6,2.4-1.7,3c-0.3,0.2-0.7,0.2-1.1,0.3c-1.6,0.2-3.3,0.3-4.8-0.4
				c-1.6-0.8-2.5-2.4-4.1-3.2c-1-0.5-2.1-0.6-3-1.1c-0.9-0.5-1.6-1.4-2.1-2.3c-0.6-0.9-1.2-1.8-1.9-2.7c-0.8-1.2-1.6-2.4-1.9-3.8
				c-0.3-1.2-0.2-2.6-1.2-3.5c1.6,1.6,3.1,3.2,4.7,4.7c1.2,1.2,2.4,2.4,3.8,3.2c0.9,0.5,1.8,0.8,2.6,1.4c1.1,0.8,1.8,2.1,1.9,3.4
				c0,0.3,0,0.7,0.2,0.9c0.2,0.3,0.7,0.4,1.1,0.5c0.6,0.1,1.2,0.2,1.8,0.1s1.1-0.6,1.2-1.1c0.1-0.7-0.5-1.4-0.2-1.9
				c0.1-0.2,0.4-0.4,0.6-0.5c1.6-1,3.3-1.8,5.2-2.1s4,0.3,5.1,1.7c0.7,0.9,1,2.2,0.9,3.4c-0.1,1.2-0.5,2.3-0.8,3.4
				c-0.4,1.4-0.9,2.7-1.3,4.1c-0.1,0.2-0.1,0.6-0.3,0.7c-0.2,0.1-0.5,0.1-0.7,0.2c-0.6,0.1-1.2,0.1-1.7,0
				C211.8,324.6,211.2,324.3,210.7,324z"/>
			<path class="st17" d="M35,264.4c0.4,0.4,0.8,0.8,0.7,1.3c-0.1,1.1-2.2,2.3-3.2,3.5c-0.8,0.8-1,1.7-0.7,2.4
				c0.1,0.3,0.4,0.6,0.4,0.9c0,0.4-0.3,0.8-0.6,1.2c-0.6,1.2-0.4,2.3,0.5,3c0.5,0.4,1.3,0.7,2,1c1.6,0.7,3,1.5,4.1,2.5
				c0.2-1-0.6-1.8-1.2-2.6c-1.2-1.4-2.1-3-2.5-4.8c0.5,0.5,1.1,0.9,1.9,1.2c0.5,0.2,1,0.3,1.7,0.3c0.5,0,1-0.1,1.6-0.2
				c2.6-0.3,4.5,0.4,6.2,1c-1.1-2.4-6.3-2.9-7.6-5.2c-0.9-1.4-0.1-3.4,1.2-5.2c1.2-1.7,2.9-3.7,2-5c-0.2-0.3-0.7-0.6-0.9-1
				c-0.2-0.4-0.2-0.8,0.4-1.3c0.5-0.3,1.1-0.6,1.7-0.8c1.5-0.7,2.4-1.9,2-2.7c-0.1-0.1-0.2-0.2-0.4-0.3c-0.2,0-0.5,0.1-0.8,0.1
				c-3,0.9-5.8,2.4-7.9,4c-0.6,0.5-1.2,1-1.8,1.6c-0.5,0.5-1.2,1-1.7,1.5c-0.5,0.4-0.3,0.6,0,0.9c0.4,0.4,0.8,0.8,1.3,1.2
				C34.1,263.5,34.5,264,35,264.4z"/>
			<path class="st17" d="M18,310.5c0.4,0.5,0.9,0.8,1.4,1.2c0.5,0.4,0.9,0.9,1,1.6c0,0.3,0,0.6-0.1,1c-0.2,1.4,0.3,2.7,0.5,4
				c0.2,1.1,0.2,2.2,0.7,3.1c0.8,1.5,2.6,2.1,4.2,2.6c1.4,0.4,2.8,0.8,4.3,1.3c-0.9-1.2-1.9-2.3-3.1-3.2c-1.1-0.8-2.5-1.5-2.7-2.9
				c-0.1-0.6,0-1.3,0-1.9c-0.1-0.5-0.3-1-0.4-1.6s0.1-1.2,0.6-1.4c0.7-0.3,1.3,0.4,1.9,0.8c1.1,0.8,2.7,0.8,3.9,0.1
				c-0.7-0.3-1.5-0.6-1.9-1.2c-0.2-0.4-0.3-0.8-0.5-1.2c-0.2-0.6-0.6-1.1-1-1.5c-0.8-0.7-1.7-1-2.6-1.5c-0.9-0.5-1.8-1.1-2-2.1
				c-0.3-1,0.1-2.2-0.5-2.9c-0.3-0.4-0.9-0.5-1.4-0.5c-0.6,0-1.2,0.3-1.8,0.5c-0.5,0.2-0.9,0.4-1,1c-0.1,1.1-0.2,2.2,0,3.3
				C17.4,309.6,17.6,310.1,18,310.5z"/>
			<path class="st17" d="M171.4,372.6c0.2-0.7,0.2-1.5,0.3-2.2s0.4-1.5,1.1-2.1c0.4-0.3,0.9-0.5,1.3-0.7c1.9-0.9,3.2-2.4,4.7-3.6
				c1.2-1,2.6-1.9,3.4-3.1c1.2-1.9,0.3-3.9-0.5-5.7c-0.7-1.6-1.5-3.1-2.2-4.7c-0.7,1.7-1.2,3.5-1.2,5.2c0,1.6,0.3,3.4-1.2,4.7
				c-0.7,0.6-1.7,1-2.4,1.6c-0.6,0.5-1,1.1-1.7,1.6c-0.6,0.5-1.6,0.8-2.3,0.6c-1-0.4-0.7-1.4-0.7-2.3c0-1.6-1.4-3-3.3-3.5
				c0.3,0.8,0.7,1.8,0.2,2.7c-0.3,0.5-0.7,0.9-1.1,1.4c-0.5,0.6-0.9,1.4-1,2.1c-0.2,1.2,0.3,2.3,0.5,3.4c0.2,1.1,0.2,2.4-0.9,3.4
				c-1,1-2.9,1.6-3.3,2.8c-0.2,0.6,0.1,1.2,0.6,1.6c0.6,0.5,1.5,0.9,2.3,1.2c0.7,0.3,1.4,0.4,2.1,0.1c1.5-0.7,3-1.5,4.1-2.6
				C170.8,373.9,171.2,373.3,171.4,372.6z"/>
		</g>
	</g>
	<g>
		<path class="st18" d="M205.4,193.4c-26.7-10.1-57.4-14-83.5-2.4c-10.2,4.5-21.6,11.5-31.7,6.7c-9.5-4.5-11.9-16.7-12.1-27.2
			c0-1.6-0.2-3.5-1.6-4.3c-0.8-0.5-1.8-0.4-2.7-0.3c-9.7,1-19.1,3.9-28.9,4.7c-9.7,0.8-20.3-1.1-27.2-8c-3.4-3.5-5.6-8-7.5-12.5
			c-3.5-8.6-6.1-17.9-5-27.1c1.6-13,10.3-24.2,21-31.7C36.8,83.7,49.3,79.3,61.7,75c-8.1-9.2-11.3-22.3-8.5-34.2
			C56,28.9,64.9,18.7,76.3,14.2c4.6-1.8,9.6-2.7,14.5-3.7c9.8-1.8,19.6-3.6,29.5-4c20.6-0.9,41.2,4.3,59.9,13.2
			c27.4,13,51.3,34.6,63.3,62.4c3.7,8.5,6.2,17.4,8,26.5c1.4,7,2.2,14.2,1.5,21.3c-0.6,5.7-2.2,11.3-3.9,16.9
			c-2.5,8.5-5,17-9.3,24.8c-3.3,6.1-7.6,11.6-12.2,16.8c-2.3,2.6-4.7,5.2-7.1,7.7c-1.5,1.6-4.2,4.9-6.4,2.5c-0.9-1-1.7-2-2.9-2.7
			C209.3,194.9,207.3,194.2,205.4,193.4z"/>
		<path class="st5" d="M154.9,183.7c-11.1,0.4-22.2,2.6-33.3,7.1c-6.7,2.7-13.2,6.1-20.3,7.3c-17.8,3.1-32.8-15.6-23.1-32.1
			c-21.6,9.9-51,13.2-65.3-9.9c-6.4-10.4-9.7-23.9-8-36c1.8-12.6,11.4-22.8,21.8-29.5c10.7-6.9,24.2-12.7,37-13.1
			c-3.9,0.1-7.7-8.1-9.1-11c-2.2-4.7-3.4-9.8-3.6-15C50.5,41.1,54,30.4,61.4,22.9c6.7-6.8,15.9-10.6,25.1-13.3
			c25.9-7.5,54.1-6.7,79.6,2c18.1,6.2,34.7,16.5,48.5,29.7c26.7,25.5,44.2,60.1,37.6,97.8c-3.8,21.8-15.5,42.1-32.3,56.4
			c-1.4,1.2-3.1,2.5-5,2.5c-1.3,0-2.5-0.6-3.7-1.2C193.1,188.1,174,183.1,154.9,183.7z"/>
		<path class="st19" d="M72.9,74.6c0.3,0,0.6-0.1,0.7-0.1c6.1-0.7,12.2-1.2,18.3-1.4c21.4-0.6,42.3,4.6,58.7,18.9
			c-22.3-19.6-56.5-13.3-83.6-12.6c-2.8,0.1-5.9-0.1-7.5-2.7C59.1,76.3,70,74.9,72.9,74.6z"/>
		<path class="st12" d="M80.7,157.4c0.6-0.8,1.2-1.5,1.7-2.2c11.2-13.3,29-21.8,46.4-20.6c-11.8-0.8-25.4,4.9-34,12.8
			c-3.6,3.3-6.4,7.2-9.1,11.2c-1.2,1.8-2.1,3.8-3.7,5.2c-1.6,1.3-3.4,2.1-5.4,1.5C77.2,162.5,78.9,159.8,80.7,157.4z"/>
		<path class="st20" d="M197.1,43.1c-25.7-19.9-58.7-28.7-91.8-26.1c-4.5,0.3-9.2,1-12.6,3.7c-3.5,2.7-5,8-2.1,11.2
			c2.6,2.7,7.1,2.6,10.9,2.3c18.5-1.5,36.1-3.1,54.4,0.7c17.2,3.6,34,10.1,49.4,18.1c0.7,0.4,1.4,0.7,2.1,1.1
			c0.5,0.2,1.3,0.9,1.8,0.8c0.7,0,0.1-0.5-0.2-0.9c-0.5-0.5-0.9-1.1-1.4-1.6c-1-1.1-2-2.1-3.1-3C202.1,47.2,199.6,45.1,197.1,43.1z"
			/>
		<path class="st20" d="M99.2,83.1c-13-1.2-26.1,0.6-38.5,4.4c-4.3,1.3-8.6,2.9-12.4,5.2c-3.1,1.9-6,4.2-8.6,6.7
			c-3.6,3.4-6.3,8.2-3.4,13.1c1.1,1.8,2.9,3.2,4.9,3.3c2.3,0.1,4.2-1.4,6-2.8c22.7-17.4,52.3-24,80.3-18.6c1.3,0.3,2.6,0.5,3.9,0.8
			c1.2,0.2,2.6,0.8,3.7,0.7c0.1-0.7-2.1-1.7-2.6-2c-1.1-0.7-2.2-1.3-3.3-1.9c-2.2-1.2-4.6-2.3-6.9-3.3c-4.7-1.9-9.7-3.4-14.7-4.4
			C104.8,83.8,102,83.4,99.2,83.1z"/>
		<path class="st9" d="M15.9,129.5c1.9,1.8,4,3.6,6.5,5.1c9.9,6,21.3,8.2,32.7,6.3c12-2,23.1-7.4,35.2-9.1c13-1.8,26.1-1.4,38.6,2.9
			c-6.6-2.3-16.5,0.3-22.8,2.7c-6.7,2.6-13,6.1-18.5,10.8c-2.7,2.3-5.2,5-7.3,7.9c-1.4,2-2.6,7.4-4.8,8.3
			c-9.7,4.3-21.4,6.8-32.1,6.6c-6.9-0.1-15-2.7-20.6-7.1c-10.4-8-15.9-22.4-15.5-35.3c0.1-2.8-0.1-6,0.1-8.6
			C10.3,123.2,12.9,126.5,15.9,129.5z"/>
		<path class="st9" d="M95.3,46.6c2.1,1.1,4.2,2.2,6.3,3.4c7.7,4.5,14.9,9.8,21.8,15.4c3.5,2.9,7,5.9,10.4,9
			c1.8,1.6,12.7,14.1,10.7,12.3c-5.3-4.8-5.3-4.8-6.8-5.7c-1.9-1.1-3.9-2.2-6-3.1c-8.2-3.7-16.9-5.6-25.9-6.8
			c-12.6-1.7-25.7-0.6-37.8,2.5c-2.2,0.6-5,0.7-6.8-0.6c-1.6-1.1-5.6-9.4-6.1-11.2c-1.7-5.6-5.4-25.8,5.9-25.2c5,0.3,7.8,0.8,12.7,2
			C81.3,40.3,88.5,43.1,95.3,46.6z"/>
		<path class="st9" d="M240.3,101c-0.1,2.1-0.3,4.3-0.5,6.4c-1.7,17.5-4.1,35.6-14,50.1c-10.9,16-29.9,22.6-48.3,25.7
			c2.8-0.5,10.6,2.2,13.3,3.1c4.6,1.5,9.3,3.1,13.7,5.2c2.4,1.2,4.8,2.5,7.5,3c9.1,1.7,17.3-11.5,21.6-17.8
			c7.1-10.4,12.3-22.1,15-34.4c4.5-20.1,1.3-41.4-6.8-60.2c-0.4-0.9-0.8-1.8-1.2-2.7c-0.2-0.5-0.4-0.9-0.8-1.3
			C239.6,85.8,240.7,93.3,240.3,101z"/>
		<path class="st18" d="M205.4,193.4c-26.7-10.1-57.4-14-83.5-2.4c-10.2,4.5-21.6,11.5-31.7,6.7c-9.5-4.5-11.9-16.7-12.1-27.2
			c0-1.6-0.2-3.5-1.6-4.3c-0.8-0.5-1.8-0.4-2.7-0.3c-9.7,1-19.1,3.9-28.9,4.7c-9.7,0.8-20.3-1.1-27.2-8c-3.4-3.5-5.6-8-7.5-12.5
			c-3.5-8.6-6.1-17.9-5-27.1c1.6-13,10.3-24.2,21-31.7C36.8,83.7,49.3,79.3,61.7,75c-8.1-9.2-11.3-22.3-8.5-34.2
			C56,28.9,64.9,18.7,76.3,14.2c4.6-1.8,9.6-2.7,14.5-3.7c9.8-1.8,19.6-3.6,29.5-4c20.6-0.9,41.2,4.3,59.9,13.2
			c27.4,13,51.3,34.6,63.3,62.4c3.7,8.5,6.2,17.4,8,26.5c1.4,7,2.2,14.2,1.5,21.3c-0.6,5.7-2.2,11.3-3.9,16.9
			c-2.5,8.5-5,17-9.3,24.8c-3.3,6.1-7.6,11.6-12.2,16.8c-2.3,2.6-4.7,5.2-7.1,7.7c-1.5,1.6-4.2,4.9-6.4,2.5c-0.9-1-1.7-2-2.9-2.7
			C209.3,194.9,207.3,194.2,205.4,193.4z"/>
		<path class="st21" d="M154.9,183.7c-11.1,0.4-22.2,2.6-33.3,7.1c-6.7,2.7-13.2,6.1-20.3,7.3c-17.8,3.1-32.8-15.6-23.1-32.1
			c-21.6,9.9-51,13.2-65.3-9.9c-6.4-10.4-9.7-23.9-8-36c1.8-12.6,11.4-22.8,21.8-29.5c10.7-6.9,24.2-12.7,37-13.1
			c-3.9,0.1-7.7-8.1-9.1-11c-2.2-4.7-3.4-9.8-3.6-15C50.5,41.1,54,30.4,61.4,22.9c6.7-6.8,15.9-10.6,25.1-13.3
			c25.9-7.5,54.1-6.7,79.6,2c18.1,6.2,34.7,16.5,48.5,29.7c26.7,25.5,44.2,60.1,37.6,97.8c-3.8,21.8-15.5,42.1-32.3,56.4
			c-1.4,1.2-3.1,2.5-5,2.5c-1.3,0-2.5-0.6-3.7-1.2C193.1,188.1,174,183.1,154.9,183.7z"/>
		<path class="st19" d="M72.9,74.6c0.3,0,0.6-0.1,0.7-0.1c6.1-0.7,12.2-1.2,18.3-1.4c21.4-0.6,42.3,4.6,58.7,18.9
			c-22.3-19.6-56.5-13.3-83.6-12.6c-2.8,0.1-5.9-0.1-7.5-2.7C59.1,76.3,70,74.9,72.9,74.6z"/>
		<path class="st12" d="M80.7,157.4c0.6-0.8,1.2-1.5,1.7-2.2c11.2-13.3,29-21.8,46.4-20.6c-11.8-0.8-25.4,4.9-34,12.8
			c-3.6,3.3-6.4,7.2-9.1,11.2c-1.2,1.8-2.1,3.8-3.7,5.2c-1.6,1.3-3.4,2.1-5.4,1.5C77.2,162.5,78.9,159.8,80.7,157.4z"/>
		<path class="st20" d="M197.1,43.1c-25.7-19.9-58.7-28.7-91.8-26.1c-4.5,0.3-9.2,1-12.6,3.7c-3.5,2.7-5,8-2.1,11.2
			c2.6,2.7,7.1,2.6,10.9,2.3c18.5-1.5,36.1-3.1,54.4,0.7c17.2,3.6,34,10.1,49.4,18.1c0.7,0.4,1.4,0.7,2.1,1.1
			c0.5,0.2,1.3,0.9,1.8,0.8c0.7,0,0.1-0.5-0.2-0.9c-0.5-0.5-0.9-1.1-1.4-1.6c-1-1.1-2-2.1-3.1-3C202.1,47.2,199.6,45.1,197.1,43.1z"
			/>
		<path class="st20" d="M99.2,83.1c-13-1.2-26.1,0.6-38.5,4.4c-4.3,1.3-8.6,2.9-12.4,5.2c-3.1,1.9-6,4.2-8.6,6.7
			c-3.6,3.4-6.3,8.2-3.4,13.1c1.1,1.8,2.9,3.2,4.9,3.3c2.3,0.1,4.2-1.4,6-2.8c22.7-17.4,52.3-24,80.3-18.6c1.3,0.3,2.6,0.5,3.9,0.8
			c1.2,0.2,2.6,0.8,3.7,0.7c0.1-0.7-2.1-1.7-2.6-2c-1.1-0.7-2.2-1.3-3.3-1.9c-2.2-1.2-4.6-2.3-6.9-3.3c-4.7-1.9-9.7-3.4-14.7-4.4
			C104.8,83.8,102,83.4,99.2,83.1z"/>
		<path class="st9" d="M15.9,129.5c1.9,1.8,4,3.6,6.5,5.1c9.9,6,21.3,8.2,32.7,6.3c12-2,23.1-7.4,35.2-9.1c13-1.8,26.1-1.4,38.6,2.9
			c-6.6-2.3-16.5,0.3-22.8,2.7c-6.7,2.6-13,6.1-18.5,10.8c-2.7,2.3-5.2,5-7.3,7.9c-1.4,2-2.6,7.4-4.8,8.3
			c-9.7,4.3-21.4,6.8-32.1,6.6c-6.9-0.1-15-2.7-20.6-7.1c-10.4-8-15.9-22.4-15.5-35.3c0.1-2.8-0.1-6,0.1-8.6
			C10.3,123.2,12.9,126.5,15.9,129.5z"/>
		<path class="st9" d="M95.3,46.6c2.1,1.1,4.2,2.2,6.3,3.4c7.7,4.5,14.9,9.8,21.8,15.4c3.5,2.9,7,5.9,10.4,9
			c1.8,1.6,12.7,14.1,10.7,12.3c-5.3-4.8-5.3-4.8-6.8-5.7c-1.9-1.1-3.9-2.2-6-3.1c-8.2-3.7-16.9-5.6-25.9-6.8
			c-12.6-1.7-25.7-0.6-37.8,2.5c-2.2,0.6-5,0.7-6.8-0.6c-1.6-1.1-5.6-9.4-6.1-11.2c-1.7-5.6-5.4-25.8,5.9-25.2c5,0.3,7.8,0.8,12.7,2
			C81.3,40.3,88.5,43.1,95.3,46.6z"/>
		<path class="st9" d="M240.3,101c-0.1,2.1-0.3,4.3-0.5,6.4c-1.7,17.5-4.1,35.6-14,50.1c-10.9,16-29.9,22.6-48.3,25.7
			c2.8-0.5,10.6,2.2,13.3,3.1c4.6,1.5,9.3,3.1,13.7,5.2c2.4,1.2,4.8,2.5,7.5,3c9.1,1.7,17.3-11.5,21.6-17.8
			c7.1-10.4,12.3-22.1,15-34.4c4.5-20.1,1.3-41.4-6.8-60.2c-0.4-0.9-0.8-1.8-1.2-2.7c-0.2-0.5-0.4-0.9-0.8-1.3
			C239.6,85.8,240.7,93.3,240.3,101z"/>
	</g>
	<g>
		<path class="st7" d="M114.5,377.7c1,12.3-11.9,20.8-23.4,26.7c-4,2-13.3,5.3-20,0.6c-4.1-2.8-6.4-8.2-6.6-12.8
			c-0.2-5.7,3-7.1,2.3-12.5c-0.7-4.9-3.6-5.4-4.5-10.3c-1.1-5.9,2-11,3.1-12.7c4.4-7.3,13.2-11,20.8-11.7
			C100,343.8,113.5,365.4,114.5,377.7z"/>
		<path class="st22" d="M126.2,392.2c-1.4,1.5-3.7,3-4.7,3.4c-5.2,2.5-10.8,4.1-16.2,6.2c-3.4,1.3-6.8,2.8-9.9,4.7
			c-3.1,2-5.5,4.9-8.7,6.8c-1.7,1-3.5,1.1-5.4,0.7c-2.8-0.5-5.7-2.1-7.9-3.4c-0.7-0.4-5.6-3.6-2.3-3.3c1.1,0.1,2.2,0.1,3.3,0
			c6.8-0.6,13.3-3.8,18.5-8c4.6-3.7,10-8.9,12.2-14.5c0.4-1.1,0.7-2.6,2-2.9c1.4-0.4,2.8,0.6,3.9,1.2c1.6,0.8,3.4,1.2,5.1,1.9
			c2.6,1,5.3,2,7.9,3C126.5,388.8,128.4,389.8,126.2,392.2z"/>
		<path class="st23" d="M80,378.2c-1.9,0.9-3.6,2.5-4.5,4c-1.6,2.6-2.1,5.6-2.1,8.6c0,1.9-0.4,7.3,2.3,7.5c1,0,1.9-0.6,2.6-1.3
			c0.7-0.7,1.1-1.6,1.7-2.4c1.6-2.2,4-3.6,6.4-4.8s5-2.1,7.2-3.6c1.8-1.2,3.5-3.1,3.1-5.2c-0.4-1.8-2.3-3-4.2-3.1
			c-1.5-0.1-2.8,0.4-4.1,0.9c-1.6,0.6-1.2,0.1-2.4-0.6C84.2,377,82,377.3,80,378.2z"/>
		<path class="st24" d="M82.6,401c0.3-0.3,0.4-0.7,0.2-1.4c-0.2-0.6-0.5-1-0.9-1.5c-0.3-0.4-1.2-1.8-1.7-1.5c-0.4,0.3-0.4,2.4-0.5,3
			c0,0.5,0,1,0.2,1.5C80.3,402,82,401.6,82.6,401z"/>
		<path class="st24" d="M72.6,400.8c0.3-0.2,0.5-0.6,0.5-1.3c0-0.6-0.3-1.1-0.6-1.6c-0.2-0.5-0.7-2.1-1.3-1.9
			c-0.5,0.2-1,2.3-1.1,2.8c-0.1,0.5-0.3,1-0.1,1.5C70.3,401.3,72,401.3,72.6,400.8z"/>
		<path class="st24" d="M69.2,396.1c0.3-0.2,0.6-0.6,0.5-1.4c0-0.6-0.3-1.2-0.5-1.7c-0.2-0.5-0.6-2.2-1.2-2
			c-0.5,0.1-1.1,2.4-1.3,2.9c-0.2,0.5-0.3,1-0.2,1.5C66.8,396.5,68.5,396.5,69.2,396.1z"/>
		<path class="st24" d="M69.5,390.3c0.3-0.2,0.6-0.6,0.5-1.4c0-0.6-0.3-1.2-0.5-1.7c-0.2-0.5-0.6-2.2-1.2-2
			c-0.5,0.1-1.1,2.4-1.3,2.9c-0.2,0.5-0.3,1-0.2,1.5C67.1,390.6,68.8,390.7,69.5,390.3z"/>
		<path class="st24" d="M93.5,391.6c0.3-0.2,0.5-0.6,0.4-1.3c-0.1-0.6-0.3-1.1-0.6-1.6c-0.2-0.5-0.8-2-1.3-1.8
			c-0.5,0.2-0.9,2.3-1,2.8c-0.1,0.5-0.2,1-0.1,1.5C91.2,392.1,92.9,392,93.5,391.6z"/>
		<path class="st24" d="M88.4,396.5c0.3-0.2,0.4-0.6,0.3-1.3c-0.1-0.5-0.4-1-0.6-1.5c-0.2-0.4-0.8-1.9-1.3-1.6
			c-0.4,0.2-0.6,2.2-0.7,2.7c-0.1,0.5-0.1,1,0,1.4C86.4,397.2,87.8,397,88.4,396.5z"/>
		<path class="st24" d="M97.8,387.2c0.2-0.2,0.3-0.5,0.2-1.1c-0.1-0.4-0.4-0.8-0.6-1.2c-0.2-0.3-0.8-1.5-1.2-1.3
			c-0.3,0.2-0.5,1.9-0.6,2.3c-0.1,0.4-0.1,0.8,0.1,1.2C96,387.8,97.3,387.6,97.8,387.2z"/>
		<path class="st25" d="M94.1,399.1c-1.8,1.8-3.8,3.3-6.1,4.5c-3.1,1.6-6.5,2.2-9.8,2.8c-1.4,0.2-6.1,0.8-6.2,2.8
			c0,0.6,0.3,1.1,0.7,1.6c2.3,2.8,6.4,3.3,10,3.2c1.7-0.1,3.4-0.2,4.9-0.9c3.1-1.3,5.2-4.2,8.1-5.8c9.5-5.3,21.4-7.1,29.8-14.2
			c0.4-0.4,0.9-0.8,0.9-1.4c0.1-0.9-0.9-1.5-1.7-1.8c-5.1-2.2-10.2-4.4-15.3-6.5c-1-0.4-2.1-0.9-3.2-0.6c-1.2,0.3-1.5,1.5-1.2,2.6
			c0.7,2.9-5.4,7.8-7,9.7C96.6,396.4,95.4,397.8,94.1,399.1z"/>
		<path class="st26" d="M61.4,388.5c-0.1,0.6-0.1,1.2-0.2,1.9c-0.1,3.4,0.5,7.4,2.1,10.4c2.9,5.4,8.7,8.3,14.7,7.5
			c4.1-0.6,9.1-3.7,12.3-6.4c6.6-5.7,12.5-11,16.1-19.5c0.8-1.8,0.3-3.2-1.5-2.1c-3.5,2.2-7,7.9-10,10.8c-3.1,3.1-6.4,6-9.8,8.7
			c-3,2.4-6.6,4.3-10.5,3.7c-4.9-0.7-8.9-4.9-9.2-9.9c-0.2-4.2,2.1-7.7,2.4-11.8c0.1-0.9-0.1-1.9-1.1-2.2c-0.8-0.2-1.2,0.5-1.7,1
			C63,382.8,61.8,385.6,61.4,388.5z"/>
		<path class="st20" d="M80.7,379.4c-0.1,0-0.2,0-0.2,0.1c-2.6,0.7-4.6,3.4-4,6.1c0.2-0.4,0.5-0.8,0.8-1.1c1.4-1.5,3-3.1,5.1-3.4
			c0.9-0.2,3.7-0.4,1.8-1.5C83.2,379,81.7,379.1,80.7,379.4z"/>
	</g>
	<g>
		<path class="st24" d="M79.3,363.3c-0.4,0.3-0.5,0.7-0.4,1.4c0.1,0.6,0.5,1.1,0.8,1.6c0.3,0.5,1,2.1,1.7,1.8c0.5-0.2,0.9-2.5,1-3
			c0.1-0.5,0.2-1.1,0-1.5C82,362.5,80.1,362.8,79.3,363.3z"/>
		<path class="st24" d="M92.3,368.2c-0.5,0.1-0.8,0.5-1,1.4c-0.1,0.7,0,1.4,0.1,2.1c0.1,0.6,0.2,2.6,0.9,2.6c0.6,0,1.9-2.3,2.3-2.8
			c0.3-0.5,0.7-1.1,0.7-1.7C95.4,368.4,93.3,367.9,92.3,368.2z"/>
		<path class="st24" d="M73.3,364.2c-0.4,0.3-0.5,0.7-0.4,1.4c0.1,0.6,0.5,1.1,0.8,1.6c0.3,0.5,1,2.1,1.7,1.8c0.5-0.2,0.9-2.5,1-3
			c0.1-0.5,0.2-1.1,0-1.5C76,363.5,74,363.7,73.3,364.2z"/>
		<path class="st24" d="M63.4,366.8c-0.3,0.2-0.5,0.7-0.3,1.4c0.1,0.6,0.4,1.1,0.7,1.6c0.3,0.5,0.9,2.1,1.5,1.8
			c0.5-0.2,0.8-2.5,0.9-3c0.1-0.5,0.2-1.1,0-1.5C65.7,366.1,64,366.3,63.4,366.8z"/>
		<path class="st24" d="M86.8,364c-0.4,0.1-0.7,0.5-0.8,1.2c-0.1,0.6,0.1,1.2,0.3,1.8c0.2,0.5,0.3,2.3,1,2.2c0.6,0,1.6-2.1,1.9-2.5
			c0.3-0.4,0.5-0.9,0.5-1.5C89.6,364.1,87.7,363.8,86.8,364z"/>
		<path class="st24" d="M68.8,366.1c-0.3,0.2-0.5,0.6-0.4,1.2c0.1,0.5,0.4,1,0.7,1.4c0.3,0.4,0.9,1.8,1.4,1.5
			c0.5-0.2,0.8-2.1,0.9-2.5c0.1-0.4,0.2-0.9,0-1.3C71.2,365.5,69.5,365.7,68.8,366.1z"/>
		<path class="st24" d="M97.6,373.9c-0.4,0-0.7,0.2-0.9,0.8c-0.2,0.5-0.2,1-0.1,1.5c0,0.5-0.2,1.9,0.4,2c0.5,0.1,1.8-1.3,2.1-1.6
			c0.3-0.3,0.6-0.6,0.7-1.1C99.9,374.6,98.4,373.9,97.6,373.9z"/>
		<path class="st16" d="M112.5,353.8c-1.4-1.9-2.8-3.7-4.3-5.6c-4.3-5.5-8.6-11.4-14.7-15c-0.6-0.4-1.3-0.7-2-1
			c-13.9-6.2-24.6,13-29.3,22.9c-1.9,4-2.9,7.8-2.2,12.2c0,0.1,0,0.2,0,0.3c0.7,4.4,2.5,8.5,5.1,12.2c0.3,0.5,0.8,1,1.4,0.9
			c0.4-0.1,0.6-0.3,0.8-0.6c0.6-1,0-2.3-0.8-3.2c-2.5-2.8-4.2-5.6-4.4-9.5c0-0.4,0-0.9,0.3-1.3c0.8-1.1,3.6-0.4,4.7-0.5
			c1.7-0.2,3.2-1.1,4.8-1.8c4.9-2.1,9.5-2.8,14.8-2.4c6,0.5,10.9,5.7,13.2,10.9c1.7,3.7,2.2,8,6.6,9.2c5.9,1.6,11.7,3.9,17.1,6.8
			c0.6,0.3,1.2,0.6,1.8,0.7c1.6,0.2,2.1-1.1,2.1-2.4c-0.1-7.4-5.1-13.1-8.2-19.4c-1.7-3.4-3.1-6.8-5-10.1
			C113.9,355.9,113.2,354.9,112.5,353.8z"/>
		<path class="st27" d="M94.6,337.5c1,1.3,1.6,3.3,0.6,4.6c-1.5,2-2.8,3.1-3.7,5.5c-1.1,2.7-2.1,5.5-3,8.3c-0.6,1.9-1.1,4.1,0,5.8
			c0.9,1.2,2.4,1.7,3.7,2.5c4.9,2.6,7.1,8.1,9.7,12.7c3.2,5.7,7.3,7.7,13.7,8.9c4.1,0.8,7.8,1.8,11.7,3.2
			c-0.5-0.2-2.3-10.4-2.7-11.5c-1.6-4.1-3.7-7.9-5.8-11.8c-3.2-5.8-6.2-11.8-10.2-17.1c-2.1-2.9-4.5-5.7-7.2-8.1
			c-1.7-1.5-6.5-6.2-8.9-6.1c-0.7,0,0.1,1,0.3,1.2C93.6,336.2,94.2,336.8,94.6,337.5z"/>
	</g>
	<g>
		
			<ellipse transform="matrix(0.9965 -8.394749e-02 8.394749e-02 0.9965 -24.8572 14.4822)" class="st13" cx="159.8" cy="302.8" rx="6.4" ry="7.1"/>
	</g>
	<g>
		
			<ellipse transform="matrix(0.9965 -8.394749e-02 8.394749e-02 0.9965 -25.3198 4.3526)" class="st13" cx="39.1" cy="303.3" rx="5.2" ry="6.3"/>
	</g>
</g>
</svg>
