<?xml version="1.0" encoding="utf-8"?>
<!-- Generator: Adobe Illustrator 23.0.3, SVG Export Plug-In . SVG Version: 6.00 Build 0)  -->
<svg version="1.1" id="Layer_1" xmlns="http://www.w3.org/2000/svg" xmlns:xlink="http://www.w3.org/1999/xlink" x="0px" y="0px"
	 viewBox="0 0 96.6 47" style="enable-background:new 0 0 96.6 47;" xml:space="preserve">
<style type="text/css">
	.st0{fill:#FDFFFF;}
	.st1{display:none;opacity:0.3;fill:#FDFFFF;}
	.st2{fill:#FFFFFF;}
	.st3{clip-path:url(#SVGID_2_);}
	.st4{font-family:'WoodboneRegular';}
	.st5{font-size:1.0451px;}
	.st6{font-family:'FrightmareRegular';}
	.st7{font-size:2.1784px;}
	.st8{font-size:2.1739px;}
	.st9{font-size:2.1796px;}
	.st10{font-size:2.1721px;}
	.st11{clip-path:url(#SVGID_4_);}
	.st12{clip-path:url(#SVGID_6_);}
	.st13{font-size:0.96px;}
	.st14{font-size:1.9139px;}
	.st15{font-size:2.0596px;}
	.st16{font-size:2.0943px;}
	.st17{font-size:1.9456px;}
	.st18{clip-path:url(#SVGID_8_);}
	.st19{clip-path:url(#SVGID_10_);}
	.st20{font-size:0.8584px;}
	.st21{font-size:1.813px;}
	.st22{font-size:1.7709px;}
	.st23{font-size:1.7694px;}
	.st24{font-size:1.7971px;}
	.st25{clip-path:url(#SVGID_12_);}
</style>
<g>
	<g>
		<g>
			<path class="st0" d="M91.7,14.1c-0.9,0-0.9,2-1,3c-0.1,1.1-0.2,2.1-0.2,3.2c-0.1,1-0.1,1.9-0.2,2.9c-0.7-1.5-1.1-3-1.5-4.5
				c-0.1-0.2-0.2-0.4-0.3-0.6c-0.3-0.8-0.6-1.7-1-2.5c-0.2-0.4-0.2-1.1-0.7-1.2c-1-0.2-1.1,1.2-1.1,2c0,1,0,1.7-0.1,2.9
				c-0.1,2.8-0.4,5.7-0.3,8.5c0,0.3,0,0.5,0.3,0.6c0.1,0.1,0.6,0,0.6-0.1c0.7-3.1,0.7-4.4,1.2-6.7c0.2,0.3,0.3,0.5,0.4,0.8
				c0.7,1.6,1.3,3.3,2,4.9c0.3,0.6,0.5,1.4,1.4,1.3c1.1-0.2,0.9-2,0.9-3.1c0.1-1.8,0.2-3.6,0.2-5.4c0.1-1.6,0.1-3.2,0.1-4.7
				C92.6,14.5,92.5,14.1,91.7,14.1z M81.9,13.6c-1-0.2-1.4,0.1-1.4,1.1c-0.1,2-0.2,3.9-0.2,5.9c0,0.5,0,1.1,0,1.6c0,1,0,2,0,3.1
				c0,0.7-0.1,1.3-0.1,2c0,0.9,0,1.3,1,1.3c0.8,0,0.7-2.7,0.8-4.1c0.1-1.7,0-3.4,0-5c0-0.5,0.1-0.9,0.1-1.4
				C82.3,16.5,82.2,15,81.9,13.6z M75.4,26.3c-0.1,0.5-0.7,0.8-1.1,0.5c-0.5-0.3-0.6-0.6-0.6-1.3c-0.1-2.2-0.2-4.5-0.3-6.7
				c0-0.9-0.4-2.2,0-2.6c0.3-0.3,0.7-0.4,1.1-0.4c0.3,0,0.6,0.3,0.6,0.6c0.2,3.1,0.4,6.1,0.5,9.1C75.5,25.8,75.4,26.1,75.4,26.3z
				 M77.1,25.9c0-1.3-0.1-2.6-0.2-3.9c-0.2-2.4,0.3-5.5-0.6-7.3c-0.4-0.8-1.8-0.5-2.7-0.6c-1.2-0.1-1.7,0.4-1.8,1.5
				c-0.1,0.9,0,1.8,0,2.7c0,1.3,0,2.6,0,3.9c0,1.2-0.2,2.4-0.1,3.6c0.1,1.1,0.7,2,1.6,2.6c1.5,1,3,0.5,3.6-1.2
				C77.1,26.8,77.1,26.3,77.1,25.9z M68.8,27.1c-0.3-0.8-0.3-1.7-0.3-2.5l0-0.2c0-0.4-0.1-0.7-0.6-1l-0.1,0l0,0.1
				c-1,1.2-0.8,2.6-0.6,3.7c-0.4,0.1-0.7,0.1-0.9,0c-0.1-0.1-0.2-0.2-0.2-0.4c-0.1-0.5-0.2-0.9-0.3-1.3c-0.2-0.6-0.4-1.3-0.3-2
				c0-0.5,0-1,0-1.4c0-0.3,0-0.5,0-0.8c0-0.4,0-0.9,0-1.3c0-0.5,0-1.1,0-1.6c0-0.2,0-0.4-0.1-0.6c0-0.3-0.1-0.7,0-1
				c0-0.3,0.2-0.7,0.4-1l0.1-0.2c0.1-0.2,0.4-0.2,0.6-0.2c0.4,2.5,0.4,2.5,1.1,2.9l0.1,0.1l0-0.1l0.1-0.2c0.1-0.2,0.1-0.3,0.1-0.5
				c0-0.3,0-0.5,0-0.8c0-0.3,0-0.5,0-0.8c0.1-0.8,0.1-1.3-0.2-1.6c-0.3-0.3-0.9-0.4-1.9-0.4c-0.3,0-0.5,0.1-0.8,0.2l-0.2,0.1
				c-0.1,0-0.2,0.1-0.3,0.2c-0.6,0.7-0.9,1.4-0.9,2.1c0,0.6,0,1.1,0,1.6c0,0.2,0,0.3,0,0.5c0,0.8,0.1,1.7,0.1,2.5c0,0.6,0,1.1,0,1.7
				c0,0.6,0.1,1.3,0.1,2c0.1,0.6,0.2,1.2,0.4,1.7l0,0.1c0.2,0.9,0.8,1.6,1.6,1.9c0.3,0.1,0.6,0.2,0.9,0.2c0.5,0,1-0.1,1.4-0.3
				C68.7,28.2,69,27.7,68.8,27.1z"/>
		</g>
	</g>
	<rect class="st1" width="96.6" height="47"/>
</g>
<g>
	<g>
		<path class="st2" d="M29.6,43.6c0.8-0.1,2.5-0.2,4.1-0.5c2.7-0.4,5.2-1.3,7.4-2.9c1.7-1.2,2.8-2.8,2.6-5.1c0-0.4,0-0.8,0-1.3
			c0-0.9-0.2-1.8-0.7-2.6c-0.1-0.2-0.1-0.4,0-0.6c0.4-1.1,1-2,2.2-2.4c0.3-0.1,0.5-0.3,0.7-0.5c1.8-1.3,3-2.9,2.7-5.3
			c0-0.3,0-0.6,0-0.9c0.1-1.9-0.7-3.4-2.2-4.5c-0.9-0.6-1.8-1.1-2.8-1.7c-0.2-0.1-0.4-0.4-0.4-0.4c0.4-1.2,0.2-2.4,0.3-3.6
			c0.1-1.5-0.5-2.7-1.5-3.7c-1.4-1.4-3.2-2.3-5-2.9c-4.2-1.4-8.5-1.6-12.9-1C21.8,4.3,19.2,5,17,6.4c-1.5,0.9-2.7,2-3.2,3.8
			c0,0.2-0.2,0.3-0.4,0.4c-0.6,0.3-1.1,0.6-1.7,1c-2,1.3-3.3,3-3,5.5c0,0.4,0,0.7,0,1.1c-0.1,1.5,0.5,2.7,1.5,3.7
			c1,1,2.2,1.7,3.4,2.3c0.2,0.1,0.4,0.4,0.3,0.4c-0.5,1.2-0.2,2.5-0.3,3.7c0,0.9,0.2,1.7,0.6,2.4c0.2,0.3,0.2,0.5,0,0.8
			c-0.4,0.7-0.6,1.5-0.6,2.3c0,0.7,0,1.4,0,2.1c0,1,0.3,1.9,0.9,2.7c1,1.4,2.4,2.3,4,3C21.8,43,25.3,43.5,29.6,43.6z"/>
		<g>
			
				<image style="overflow:visible;" width="418" height="418" xlink:href="C9C2C38F.png"  transform="matrix(0.24 0 0 0.24 -21.3849 -26.6135)">
			</image>
			<g>
				<path d="M29.6,43.6c-4.3,0-7.7-0.5-11-2c-1.5-0.7-2.9-1.6-4-3c-0.6-0.8-0.9-1.7-0.9-2.7c0-0.7,0-1.4,0-2.1
					c0-0.8,0.2-1.6,0.6-2.3c0.2-0.3,0.2-0.5,0-0.8c-0.5-0.7-0.7-1.5-0.6-2.4c0.1-1.2-0.2-2.5,0.3-3.7c0-0.1-0.2-0.4-0.3-0.4
					c-1.2-0.6-2.4-1.3-3.4-2.3c-1-1-1.6-2.2-1.5-3.7c0-0.4,0-0.7,0-1.1c-0.3-2.5,1-4.2,3-5.5c0.5-0.4,1.1-0.6,1.7-1
					c0.1-0.1,0.3-0.2,0.4-0.4c0.5-1.8,1.7-2.9,3.2-3.8c2.2-1.4,4.7-2.1,7.3-2.5c4.4-0.6,8.7-0.4,12.9,1c1.9,0.6,3.6,1.5,5,2.9
					c1,1,1.6,2.2,1.5,3.7c-0.1,1.2,0.2,2.4-0.3,3.6c0,0.1,0.2,0.3,0.4,0.4c0.9,0.6,1.9,1.1,2.8,1.7c1.5,1.1,2.3,2.6,2.2,4.5
					c0,0.3,0,0.6,0,0.9c0.2,2.4-0.9,4-2.7,5.3c-0.2,0.2-0.5,0.4-0.7,0.5c-1.2,0.4-1.9,1.3-2.2,2.4c-0.1,0.2,0,0.5,0,0.6
					c0.5,0.8,0.7,1.6,0.7,2.6c0,0.4,0,0.8,0,1.3c0.2,2.2-0.9,3.8-2.6,5.1c-2.2,1.6-4.8,2.4-7.4,2.9C32.1,43.4,30.4,43.5,29.6,43.6z
					 M28.7,17.3c3,0,5.9-0.4,8.7-1.5c1.7-0.7,3.3-1.5,4.4-3c0.8-1.1,0.9-2.3,0.1-3.4c-0.8-1.1-1.9-1.8-3-2.4c-2.4-1.2-4.9-1.8-7.6-2
					c-3.8-0.3-7.6,0-11.2,1.3c-1.5,0.6-2.9,1.3-4,2.5c-1.4,1.5-1.5,3.1,0,4.5c0.8,0.8,1.7,1.4,2.7,1.9
					C21.9,16.8,25.3,17.3,28.7,17.3z M26,26C26,26,26,26.1,26,26c0.2,0.2,0.4,0.2,0.5,0.3c2.2,0.7,4.5,1,6.8,1
					c3.4,0,6.6-0.4,9.7-1.7c1.4-0.6,2.8-1.4,3.7-2.7c0.9-1.2,0.9-2.4,0-3.5c-1-1.3-2.4-2.1-3.9-2.8c-0.1-0.1-0.4,0-0.5,0.1
					c-1,1-2.2,1.7-3.4,2.4c-0.2,0.1-0.3,0.2-0.4,0.4c-0.4,1.4-1.3,2.4-2.4,3.3c-2,1.5-4.3,2.2-6.6,2.7C28.4,25.7,27.2,25.8,26,26z
					 M15.5,32.2c-0.1,0.1-0.1,0.2-0.2,0.2c-0.6,1.1-0.4,2.2,0.6,3.3c1.3,1.4,3,2.2,4.8,2.8c4.3,1.4,8.7,1.6,13.2,0.8
					c2.3-0.4,4.6-1.2,6.5-2.6c0.8-0.6,1.6-1.3,1.9-2.4c0.3-0.8,0.1-1.5-0.4-2.2c-0.1,0.1-0.2,0.1-0.2,0.1c-1.8,1.6-4,2.4-6.3,3
					c-3.4,0.8-6.8,1-10.3,0.6c-2.9-0.4-5.6-1.1-8.1-2.7C16.5,32.9,16,32.5,15.5,32.2z M31.5,21.2c0-0.1,0-0.1,0-0.2
					c-0.2,0-0.4,0-0.6,0c-3.3,0.2-6.6,0-9.8-0.9c-2.2-0.6-4.3-1.5-5.9-3.2c-1-1-1.6-2.2-1.5-3.7c0-0.4,0-0.7,0-1.2
					c-1,0.5-1.9,1.1-2.6,1.8c-1.5,1.6-1.5,3.2,0,4.7c1.1,1.1,2.5,1.9,4,2.4c4.3,1.6,8.7,1.8,13.1,1.1C29.4,21.7,30.5,21.4,31.5,21.2
					z M36.6,31.1C36.5,31,36.5,31,36.4,31c-0.3,0-0.6,0-0.9,0c-3.6,0.2-7.2-0.1-10.6-1.4c-2.1-0.8-4.1-1.8-5.4-3.7
					c-0.1-0.1-0.3-0.2-0.5-0.3c-1.1-0.3-2.2-0.5-3.3-0.8c-0.3-0.1-0.5,0-0.6,0.3c-0.3,0.9-0.1,1.7,0.4,2.5c1,1.5,2.6,2.4,4.2,3
					c4.9,1.9,9.9,2,14.9,0.9C35.3,31.5,35.9,31.3,36.6,31.1z"/>
			</g>
		</g>
		<path class="st2" d="M28.7,17.3c-3.4-0.1-6.8-0.5-9.9-2.1c-1-0.5-1.9-1.2-2.7-1.9c-1.5-1.4-1.4-3,0-4.5c1.1-1.2,2.5-1.9,4-2.5
			c3.6-1.4,7.4-1.7,11.2-1.3c2.6,0.2,5.2,0.8,7.6,2c1.2,0.6,2.3,1.3,3,2.4c0.8,1.2,0.8,2.3-0.1,3.4c-1.1,1.5-2.7,2.3-4.4,3
			C34.6,16.9,31.7,17.3,28.7,17.3z"/>
		<path class="st2" d="M26,26c1.2-0.2,2.4-0.3,3.6-0.6c2.4-0.5,4.7-1.3,6.6-2.7c1.1-0.8,2.1-1.8,2.4-3.3c0-0.2,0.2-0.3,0.4-0.4
			c1.3-0.6,2.4-1.3,3.4-2.4c0.1-0.1,0.4-0.2,0.5-0.1c1.5,0.6,2.9,1.4,3.9,2.8c0.9,1.2,0.9,2.3,0,3.5c-1,1.3-2.3,2.1-3.7,2.7
			c-3.1,1.4-6.4,1.8-9.7,1.7c-2.3,0-4.6-0.3-6.8-1C26.3,26.2,26.1,26.2,26,26C26,26.1,26,26,26,26z"/>
		<path class="st2" d="M15.5,32.2c0.5,0.4,0.9,0.7,1.4,1c2.5,1.6,5.3,2.3,8.1,2.7c3.5,0.4,6.9,0.3,10.3-0.6c2.3-0.6,4.5-1.4,6.3-3
			c0.1,0,0.1-0.1,0.2-0.1c0.5,0.7,0.6,1.4,0.4,2.2c-0.3,1-1.1,1.7-1.9,2.4c-1.9,1.4-4.2,2.2-6.5,2.6c-4.5,0.8-8.9,0.7-13.2-0.8
			C19,38,17.3,37.1,16,35.7c-1-1.1-1.2-2.2-0.6-3.3C15.4,32.3,15.4,32.3,15.5,32.2z"/>
		<path class="st2" d="M31.5,21.2c-1.1,0.3-2.2,0.6-3.3,0.7c-4.5,0.7-8.9,0.5-13.1-1.1c-1.5-0.5-2.8-1.3-4-2.4
			c-1.5-1.5-1.5-3.2,0-4.7c0.7-0.7,1.6-1.3,2.6-1.8c0,0.5,0,0.8,0,1.2c-0.1,1.5,0.5,2.7,1.5,3.7c1.7,1.6,3.7,2.5,5.9,3.2
			c3.2,0.9,6.5,1.2,9.8,0.9c0.2,0,0.4,0,0.6,0C31.5,21,31.5,21.1,31.5,21.2z"/>
		<path class="st2" d="M36.6,31.1c-0.7,0.2-1.3,0.4-1.9,0.5c-5.1,1.1-10,1-14.9-0.9c-1.6-0.6-3.2-1.5-4.2-3
			c-0.5-0.8-0.7-1.6-0.4-2.5c0.1-0.3,0.3-0.4,0.6-0.3c1.1,0.3,2.2,0.5,3.3,0.8c0.2,0,0.4,0.1,0.5,0.3c1.4,1.9,3.3,2.9,5.4,3.7
			c3.4,1.2,7,1.6,10.6,1.4c0.3,0,0.6,0,0.9,0C36.5,31,36.5,31,36.6,31.1z"/>
	</g>
	<g>
		<g>
			<g>
				<g>
					<defs>
						<path id="SVGID_1_" d="M17.9,8.2c-0.3,0.2-0.6,0.3-0.9,0.4c-0.4,0.1-0.7,0.2-1.1,0.3c-0.3,0.1-0.5,0.1-0.8,0.2
							c-0.4,0-0.8,0-1.2,0c-0.8,0-1.5,0.2-2.1,0.6c-0.4,0.3-0.8,0.7-0.7,1.2c0.2,0.5,0.9,0.6,1.5,0.5c0.6-0.1,1-0.4,1.5-0.7
							c0.5-0.3,1.1-0.5,1.6-0.4c0.1,0.2-0.2,0.5-0.1,0.8c0,0.2,0.3,0.3,0.5,0.4c0.2,0,0.5,0,0.7,0.1c0.7,0.1,1.1,0.6,1.4,1.1
							c0.2,0.3,0.4,0.6,0.6,0.9c0.3,0.4,0.5,0.8,0.5,1.3c0,0.3-0.2,0.6,0,0.9c0.1,0.2,0.4,0.3,0.7,0.3c0.7,0.1,1.4-0.3,1.7-0.7
							c0.4-0.5,0.7-2,0.2-1.6c-0.7,0.4-0.7,0.6-0.7,0.5c0-0.1,0.7,0.7,0.7,0.7c0.5-0.7,2,1.9,2.5,1.2c0.5,0.6,0.3-0.5,0.9-0.3
							c0.9,0.2,0.5,0,1.4,0c1.1,0,1.8-0.5,1.8-0.9c0-0.3-1.7-0.5-1.9-0.8c-0.2-0.2-0.1-0.5-0.1-0.7c0-0.7-0.9-1.7-1.1-2.5
							c0-0.1,0-0.3,0-0.4c0-0.1,0,0,0.2-0.1c0.5-0.3,1.4-0.4,1.9-0.1c0.1,0.1,0.3,0,0.5,0C28,9.5,28,9,28,8.4c0-0.4,0-0.9-0.2-1.3
							c-0.2-0.4-0.6-0.8-1.1-0.8c-0.6-0.1-1.1,0.2-1.6,0.3c-0.6,0.2-1.3,0.2-2,0.2c-1,0-2-0.1-3,0.1c-0.4,0.1-0.9,0.2-1.7,0.3
							C17.9,7.2,18.3,7.9,17.9,8.2z"/>
					</defs>
					<clipPath id="SVGID_2_">
						<use xlink:href="#SVGID_1_"  style="overflow:visible;"/>
					</clipPath>
					<path class="st3" d="M25.3,9.8c0,0,0.1-0.1,0.2-0.3c0.4,0.3,0.2,0.6,0.4,0.6c0,0,0.7,0.1,0.8,0.1c0,0,0,0,0,0
						c0.1-0.1,0.2-0.2,0.3-0.2c0,0,0,0,0,0c0.1,0-0.1,0-0.1-0.1c-0.1-0.2-0.1-0.4-0.2-0.5c-0.1-0.3-0.1-0.7-0.4-1.1
						c0.1-0.3,0.2-0.5,0.2-0.5s0.4,0.5,0.4,0.8c0,0.2,0.2,0.8,0,1.3c0.1,0,0.8-0.1,1-0.1c0.1-0.4-0.2-1.2-0.2-1.3
						c0-0.1-0.7-1.1-0.7-1.1s0.1-0.6-0.3-0.6c-0.4,0-0.6,0.3-0.6,0.3s-0.1,0.2-0.3,0.5c-0.2-0.3-0.5-0.6-0.7-0.5
						c-0.3,0-0.6,0.2-0.6,0.2s-0.5,0-0.9,0.1c-0.3,0.1,0.3,0.1-0.3,0.1c-0.5,0-0.8,0.1-1,0c-0.2-0.1-0.2-0.1-0.2-0.1l-0.2-0.1
						l-0.1,0.1L22,7.4c0,0,0,0.2-0.2,0.3C21.6,7.8,21.6,8,21.6,8s0.3,0.3,0.5,0.6c-0.1,0-0.3,0.1-0.3,0.1C21.6,8.8,21.2,9,21.2,9
						s0-0.2-0.4,0.1c-0.2,0.2,1.7,1.9,3,3.6c1,1.4,3.4,2.2,3.4,2.2s-2.1-1-3.2-2.4c-1.2-1.6-3-3.3-2.7-3.3l0.9-0.3
						c0.7,0.6,0-0.2,0,0c0.1,0.3,1.2,2,2.3,3.5c0.9,1.3,2.1,1.9,2.1,1.9s-1.1-0.7-1.9-2c-0.8-1.2-1.6-2.6-2-3.4
						c-0.2-0.4,0.1-0.1,0.3-0.1c0.5-0.1-0.2-0.1,0.1-0.1c-0.4,0.3-1.3,0.9-1.8,1.5c-0.7,0.8-0.7,0.5-0.7,1c0,0.2,1.3,0.9,2.2,1.9
						c1.1,1.3,4.9,2.3,5.1,2.2c-0.1,0.1-3.9-1.1-5-2.3c-0.5-0.7-1.3-1.1-1.4-1.2c-0.2-0.2-0.5-0.7-0.5-0.7s0.1,0,0.2-0.1
						c0.1-0.2,0.6-0.7,0.8-0.8c0.2-0.1,0.6-0.3,0.6-0.3s0.4-0.5,0.6-0.6c0.2,0,0.6-0.3,0.8-0.5c0.7,0.1,0.9,0.3,0.9,0.3
						c-0.1,0.2-0.2,0.4-0.3,0.5c-0.1,0.1-0.2,0.3-0.2,0.3s0.3,0.5,0.2,1.2c-0.1,0.7,0,1,0.1,1.1c0.1,0.2,1.3,1.2,1.3,1.2
						s-0.9-1.1-0.9-1.3C25.4,11.9,25.3,10,25.3,9.8z M26,8.9c0.1,0.2,0.2,0.4,0.4,0.6l-0.5-0.5C25.9,9,26,9,26,8.9z M24.1,8
						c0,0,0.1,0.1-0.2,0.1c-0.3,0-0.6,0.2-0.6,0.2s0.8,0-0.1,0.1c-0.6,0.1-0.1,0-0.8,0.1c-0.1-0.5-0.3-0.6-0.2-0.7L22.9,8
						c0,0-0.5,0,0.4,0c0.6,0,0.5-0.1,0.9-0.1C24.1,7.9,24.1,8,24.1,8z M24.8,8.1c-0.1-0.1-0.2-0.2-0.2-0.2c0.2,0,0.4,0.1,0.6,0.2
						c0.1,0.1,0.3,0.2,0.4,0.3c-0.1,0.1-0.1,0.2-0.2,0.3C25.2,8.4,24.9,8.2,24.8,8.1z"/>
				</g>
			</g>
		</g>
		<g>
			<ellipse cx="28.4" cy="13.6" rx="1.8" ry="1.3"/>
			<text transform="matrix(1.3473 0 0 1 27.2359 14.008)" class="st2 st4 st5">coin</text>
		</g>
		<text transform="matrix(1.4116 0.1078 -0.1373 0.9905 28.5544 11.5693)" class="st6 st7">A</text>
		<text transform="matrix(1.4181 -7.775676e-02 9.904034e-02 0.9951 27.2987 11.6351)" class="st6 st8">E</text>
		<g>
			<text transform="matrix(1.4098 -0.1147 0.146 0.9893 26.1879 11.8745)" class="st6 st9">F</text>
		</g>
		<text transform="matrix(1.4207 6.129017e-02 -7.807977e-02 0.9969 29.703 11.8944)" class="st6 st10">R</text>
		<g>
			<g>
				<g>
					<defs>
						<path id="SVGID_3_" d="M39,8.2c0.3,0.2,0.6,0.3,0.9,0.4c0.4,0.1,0.7,0.2,1.1,0.3c0.3,0.1,0.5,0.1,0.8,0.2c0.4,0,0.8,0,1.2,0
							c0.8,0,1.5,0.2,2.1,0.6c0.4,0.3,0.8,0.7,0.7,1.2c-0.2,0.5-0.9,0.6-1.5,0.5c-0.6-0.1-1-0.4-1.5-0.7s-1.1-0.5-1.6-0.4
							c-0.1,0.2,0.2,0.5,0.1,0.8c0,0.2-0.3,0.3-0.5,0.4c-0.2,0-0.5,0-0.7,0.1c-0.7,0.1-1.1,0.6-1.4,1.1c-0.2,0.3-0.4,0.6-0.6,0.9
							c-0.3,0.4-0.5,0.8-0.5,1.3c0,0.3,0.2,0.6,0,0.9c-0.1,0.2-0.4,0.3-0.7,0.3c-0.7,0.1-1.4-0.3-1.7-0.7c-0.4-0.5-0.7-2-0.2-1.6
							c0.7,0.4,0.7,0.6,0.7,0.5c0-0.1-0.7,0.7-0.7,0.7c-0.5-0.7-2,1.9-2.5,1.2c-0.5,0.6-0.3-0.5-0.9-0.3c-0.9,0.2-0.5,0-1.4,0
							c-1.1,0-1.8-0.5-1.8-0.9c0-0.3,1.7-0.5,1.9-0.8c0.2-0.2,0.1-0.5,0.1-0.7c0-0.7,0.9-1.7,1.1-2.5c0-0.1,0-0.3,0-0.4
							c0-0.1,0,0-0.2-0.1c-0.5-0.3-1.4-0.4-1.9-0.1c-0.1,0.1-0.3,0-0.5,0c0-0.6,0-1.1,0.1-1.7c0-0.4,0-0.9,0.2-1.3
							c0.2-0.4,0.6-0.8,1.1-0.8c0.6-0.1,1.1,0.2,1.6,0.3c0.6,0.2,1.3,0.2,2,0.2c1,0,2-0.1,3,0.1c0.4,0.1,0.9,0.2,1.7,0.3
							C39,7.2,38.6,7.9,39,8.2z"/>
					</defs>
					<clipPath id="SVGID_4_">
						<use xlink:href="#SVGID_3_"  style="overflow:visible;"/>
					</clipPath>
					<path class="st11" d="M31.5,12.1c0,0.2-0.9,1.3-0.9,1.3s1.2-1,1.3-1.2c0.1-0.2,0.1-0.4,0.1-1.1c-0.1-0.7,0.2-1.2,0.2-1.2
						s-0.1-0.1-0.2-0.3c-0.1-0.1-0.1-0.2-0.3-0.5c0,0,0.2-0.2,0.9-0.3c0.2,0.2,0.6,0.4,0.8,0.5c0.2,0.1,0.6,0.6,0.6,0.6
						s0.4,0.2,0.6,0.3c0.2,0.1,0.7,0.7,0.8,0.8c0.1,0.2,0.2,0.1,0.2,0.1s-0.3,0.5-0.5,0.7c-0.1,0.1-0.9,0.6-1.4,1.2
						c-1,1.3-4.9,2.5-5,2.3c0.2,0.1,4-1,5.1-2.2c0.9-1,2.2-1.7,2.2-1.9c0-0.5,0-0.2-0.7-1C35,9.7,34.1,9,33.7,8.7
						c0.4,0-0.3-0.1,0.1,0.1c0.2,0,0.5-0.3,0.3,0.1c-0.4,0.7-1.2,2.1-2,3.4c-0.8,1.3-1.9,2-1.9,2s1.2-0.6,2.1-1.9
						c1.1-1.5,2.2-3.2,2.3-3.5c0-0.2-0.7,0.6,0,0l0.9,0.3c0.3,0-1.5,1.7-2.7,3.3c-1.1,1.4-3.2,2.4-3.2,2.4s2.4-0.8,3.4-2.2
						c1.2-1.7,3.2-3.5,3-3.6C35.7,8.8,35.7,9,35.7,9s-0.4-0.2-0.5-0.2c0,0-0.2-0.1-0.3-0.1C35,8.3,35.3,8,35.3,8s0-0.2-0.2-0.3
						c-0.2-0.1-0.2-0.3-0.2-0.3l-0.1,0.1l-0.1-0.1l-0.2,0.1c0,0,0,0-0.2,0.1c-0.2,0.1-0.4,0-1,0c-0.5,0,0.1-0.1-0.3-0.1
						c-0.3-0.1-0.9-0.1-0.9-0.1s-0.3-0.1-0.6-0.2c-0.2,0-0.5,0.2-0.7,0.5c-0.2-0.3-0.3-0.5-0.3-0.5S30.4,6.9,30,6.9
						c-0.4,0-0.3,0.6-0.3,0.6s-0.7,1-0.7,1.1c0,0.1-0.3,0.9-0.2,1.3c0.1,0,0.8,0.1,1,0.1c-0.2-0.6,0-1.1,0-1.3
						c0.1-0.3,0.4-0.8,0.4-0.8s0.1,0.3,0.2,0.5c-0.2,0.4-0.3,0.8-0.4,1.1c0,0.1,0,0.4-0.2,0.5c0.1,0-0.1,0-0.1,0.1c0,0,0,0,0,0
						c0.1,0.1,0.2,0.1,0.3,0.2c0,0,0,0,0,0c0,0,0.7-0.1,0.8-0.1c0.2-0.1,0-0.4,0.4-0.6c0.1,0.2,0.2,0.3,0.2,0.3
						C31.6,10,31.5,11.9,31.5,12.1z M31,9.1l-0.5,0.5c0.1-0.2,0.2-0.4,0.4-0.6C30.9,9,31,9,31,9.1z M32.7,7.8c0.3,0,0.2,0.1,0.9,0.1
						C34.5,8,34,8,34,8l0.6-0.1c0.1,0.1-0.1,0.2-0.2,0.7c-0.6-0.1-0.2-0.1-0.8-0.1c-0.9-0.1-0.1-0.1-0.1-0.1S33.2,8.1,33,8.1
						c-0.3,0-0.2-0.1-0.2-0.1S32.8,7.9,32.7,7.8z M31.5,8.6c0-0.1-0.1-0.2-0.2-0.3c0.1-0.1,0.2-0.2,0.4-0.3c0.2-0.1,0.4-0.1,0.6-0.2
						c-0.1,0.1-0.1,0.2-0.2,0.2C32,8.2,31.7,8.4,31.5,8.6z"/>
				</g>
			</g>
		</g>
	</g>
	<g>
		<g>
			<g>
				<g>
					<defs>
						<path id="SVGID_5_" d="M26.2,25.2c-0.1,0.2-0.3,0.5-0.5,0.7c-0.2,0.2-0.5,0.5-0.7,0.7c-0.2,0.2-0.3,0.3-0.5,0.5
							c-0.3,0.2-0.6,0.4-1,0.6c-0.6,0.4-1.1,0.9-1.3,1.5c-0.2,0.4-0.2,0.9,0.3,1c0.5,0.2,1.2-0.1,1.6-0.4c0.4-0.4,0.6-0.8,0.8-1.2
							c0.2-0.4,0.5-0.8,1-1.1c0.3,0.1,0.2,0.4,0.4,0.5c0.2,0.1,0.5,0,0.7-0.1c0.2-0.1,0.4-0.2,0.6-0.3c0.6-0.3,1.3-0.2,1.9-0.1
							c0.4,0.1,0.8,0.1,1.1,0.2c0.5,0.1,1,0.2,1.3,0.5c0.2,0.2,0.3,0.5,0.7,0.5c0.3,0,0.6,0,0.8-0.2c0.6-0.3,0.9-0.9,0.9-1.3
							c0-0.5-0.8-1.5-1-1c-0.2,0.6-0.1,0.7-0.2,0.6c0-0.1,1.1,0.1,1.1,0c-0.1-0.6,2.9,0.1,2.8-0.5c0.8,0.1-0.1-0.5,0.4-0.6
							c0.9-0.3,0.4-0.3,1.1-0.8c0.9-0.6,1.1-1.2,0.8-1.4c-0.2-0.2-1.8,0.6-2.1,0.5c-0.3,0-0.4-0.2-0.5-0.4c-0.5-0.4-1.9-0.5-2.7-0.9
							c-0.1-0.1-0.2-0.1-0.3-0.2c-0.1-0.1,0,0,0.1-0.2c0.2-0.4,0.9-0.9,1.5-1c0.2,0,0.2-0.2,0.4-0.3c-0.4-0.3-0.8-0.6-1.2-1
							c-0.3-0.2-0.6-0.5-1.1-0.6c-0.4-0.1-1-0.1-1.5,0.1c-0.5,0.2-0.8,0.7-1.1,1c-0.4,0.4-0.9,0.8-1.5,1.1c-0.8,0.5-1.7,1-2.4,1.6
							c-0.3,0.2-0.5,0.6-1.2,1C25.5,24.6,26.3,24.8,26.2,25.2z"/>
					</defs>
					<clipPath id="SVGID_6_">
						<use xlink:href="#SVGID_5_"  style="overflow:visible;"/>
					</clipPath>
					<path class="st12" d="M33.4,22.4c0,0,0-0.1,0-0.3c0.5,0,0.6,0.2,0.8,0.2c0,0,0.6-0.3,0.7-0.3c0,0,0,0,0,0c0-0.1,0-0.2,0.1-0.3
						c0,0,0,0,0,0c0-0.1-0.1,0-0.1,0c-0.2,0-0.4-0.2-0.5-0.2c-0.3-0.1-0.6-0.3-1.1-0.5c-0.1-0.2-0.2-0.4-0.2-0.4s0.7,0.1,0.9,0.2
						c0.2,0.1,0.7,0.3,1,0.8c0.1-0.1,0.6-0.5,0.7-0.5c-0.2-0.3-1-0.6-1.1-0.7c-0.1,0-1.3-0.3-1.3-0.3s-0.4-0.4-0.7-0.2
						c-0.3,0.2-0.3,0.5-0.3,0.5s0,0.2,0.1,0.4c-0.4,0-0.8-0.1-0.9,0.1C31.2,21,31,21.2,31,21.2s-0.4,0.3-0.6,0.5
						c-0.2,0.2,0.3-0.1-0.1,0.2c-0.5,0.3-0.6,0.5-0.8,0.5c-0.2,0.1-0.2,0.1-0.2,0.1l-0.2,0l0,0.1l-0.2,0c0,0,0.2,0.1,0.1,0.3
						c-0.1,0.2,0.1,0.3,0.1,0.3s0.4,0,0.8,0.1c-0.1,0-0.2,0.2-0.2,0.2c-0.1,0.1-0.3,0.4-0.3,0.4s-0.1-0.1-0.2,0.2
						c-0.1,0.2,2.7,0.2,5,0.6c1.8,0.3,4.4-0.4,4.4-0.4s-2.4,0.5-4.2,0.2c-2.2-0.3-4.7-0.4-4.5-0.6l0.5-0.7c1,0-0.2-0.1,0,0
						c0.3,0.2,2.4,0.6,4.3,0.9c1.6,0.3,3,0,3,0s-1.3,0.2-2.9-0.2c-1.5-0.4-3.1-0.7-4-1c-0.4-0.1,0-0.1,0.2-0.3
						c0.3-0.3-0.2,0.1,0.1-0.1c-0.1,0.4-0.4,1.2-0.4,1.8c0,0.8-0.2,0.7,0.1,0.9c0.1,0.1,1.7-0.2,3.1,0c1.8,0.2,5.6-1.1,5.7-1.3
						c0,0.1-4,1.4-5.7,1.2c-0.9-0.1-1.8,0-2,0c-0.3,0-0.9-0.1-0.9-0.1s0.1,0,0.1-0.2c0-0.1,0-0.7,0.1-0.9c0.1-0.2,0.3-0.5,0.3-0.5
						s0-0.5,0.1-0.6c0.1-0.1,0.2-0.5,0.3-0.7c0.7-0.3,1-0.3,1-0.3c0.1,0.2,0.1,0.3,0.1,0.4c0,0.1,0.1,0.2,0.1,0.2s0.6,0.1,1,0.6
						c0.5,0.5,0.7,0.6,0.9,0.6c0.2,0.1,1.8,0,1.8,0s-1.5-0.2-1.6-0.3C34.8,23.5,33.5,22.5,33.4,22.4z M33.3,21.5
						c0.2,0.1,0.5,0.1,0.8,0.2l-0.7,0C33.3,21.6,33.3,21.5,33.3,21.5z M31.1,21.9c0,0,0.1,0,0,0.2c-0.2,0.2-0.3,0.4-0.3,0.4
						s0.7-0.4,0,0.1c-0.4,0.3-0.1,0.1-0.5,0.5c-0.4-0.3-0.7-0.2-0.7-0.3l0.6-0.2c0,0-0.4,0.3,0.3-0.2c0.5-0.3,0.4-0.3,0.6-0.5
						C31,21.9,31.1,21.9,31.1,21.9z M31.7,21.6c-0.1,0-0.2,0-0.3,0c0.2-0.1,0.4-0.2,0.6-0.2c0.2,0,0.4,0,0.5,0c0,0.1,0,0.2,0.1,0.2
						C32.3,21.6,31.9,21.6,31.7,21.6z"/>
				</g>
			</g>
		</g>
		<g>
			<ellipse transform="matrix(0.9454 -0.326 0.326 0.9454 -5.3969 13.8173)" cx="38.5" cy="23" rx="1.8" ry="1.1"/>
			<text transform="matrix(1.1879 -0.7518 0.7677 0.6408 37.8144 23.8371)" class="st2 st4 st13">coin</text>
		</g>
		<text transform="matrix(1.3877 -0.7513 0.6685 0.7437 37.2084 21.7535)" class="st6 st14">A</text>
		<text transform="matrix(1.1543 -0.8155 0.8254 0.5646 36.2939 22.4518)" class="st6 st15">E</text>
		<g>
			<text transform="matrix(1.1041 -0.8223 0.8492 0.5281 35.4513 23.0914)" class="st6 st16">F</text>
		</g>
		<text transform="matrix(1.3328 -0.7727 0.7143 0.6998 38.4385 21.2928)" class="st6 st17">R</text>
		<g>
			<g>
				<g>
					<defs>
						<path id="SVGID_7_" d="M43.3,14.4c0.3,0,0.7-0.1,1-0.3c0.4-0.1,0.7-0.3,1.1-0.4c0.2-0.1,0.5-0.2,0.7-0.3
							c0.3-0.2,0.6-0.4,1-0.6c0.6-0.4,1.4-0.6,2.2-0.7c0.6-0.1,1.2,0,1.4,0.4c0.2,0.4-0.3,0.8-0.8,1.1c-0.5,0.2-1.1,0.3-1.7,0.4
							c-0.6,0.1-1.2,0.2-1.6,0.6c0,0.2,0.5,0.2,0.6,0.4c0.1,0.1,0,0.3-0.2,0.5c-0.2,0.1-0.4,0.3-0.6,0.4c-0.5,0.4-0.4,0.9-0.3,1.4
							c0,0.3,0.1,0.6,0.1,0.8c0.1,0.4,0.1,0.8,0.5,1c0.2,0.2,0.6,0.3,0.6,0.5c0,0.2-0.1,0.4-0.4,0.6c-0.5,0.4-1.3,0.6-1.9,0.5
							c-0.6-0.1-2-0.8-1.3-0.9c0.8-0.1,1,0,0.9,0c-0.1,0-0.1,0.8-0.1,0.8c-0.8-0.1-0.3,2.1-1.1,2c0.1,0.6-0.6-0.1-0.9,0.2
							c-0.6,0.6-0.4,0.2-1.2,0.7c-0.9,0.6-1.8,0.6-2,0.4c-0.2-0.2,1-1.2,1-1.5c0-0.2-0.3-0.3-0.4-0.4c-0.5-0.4-0.5-1.4-0.8-2
							c-0.1-0.1-0.1-0.2-0.3-0.2c-0.1-0.1-0.1,0-0.2,0c-0.6,0.1-1.4,0.5-1.6,0.9c-0.1,0.1-0.3,0.1-0.4,0.2c-0.4-0.3-0.8-0.7-1.1-1
							c-0.3-0.3-0.6-0.5-0.7-0.9c-0.1-0.3-0.1-0.7,0.3-1.1c0.4-0.3,1-0.5,1.5-0.6c0.6-0.2,1.2-0.6,1.8-0.9c0.8-0.5,1.6-1.1,2.5-1.5
							c0.4-0.2,0.9-0.3,1.6-0.7C42.6,13.8,42.8,14.4,43.3,14.4z"/>
					</defs>
					<clipPath id="SVGID_8_">
						<use xlink:href="#SVGID_7_"  style="overflow:visible;"/>
					</clipPath>
					<path class="st18" d="M40,20.5c0.2,0.1,0.2,1.2,0.2,1.2s0.3-1.2,0.2-1.3c-0.1-0.1-0.2-0.3-0.7-0.7c-0.6-0.4-0.7-0.8-0.7-0.8
						s-0.1,0-0.3-0.1c-0.1,0-0.3-0.1-0.5-0.1c0,0,0-0.2,0.5-0.7c0.3,0,0.8-0.1,1-0.1c0.2-0.1,0.9,0,0.9,0s0.4-0.1,0.7-0.2
						c0.3,0,1.1,0,1.2,0.1c0.2,0,0.3-0.1,0.3-0.1s0.1,0.4,0.1,0.6c0,0.2-0.3,0.8-0.3,1.4c0,1.3-2.3,4-2.4,3.9
						c0.3-0.1,2.6-2.6,2.6-3.9c0-1,0.6-2.1,0.5-2.2c-0.3-0.3-0.1-0.2-1.3-0.2c-0.9-0.1-2,0-2.5,0.1c0.3-0.2-0.3,0.1,0.2,0
						c0.2-0.1,0.3-0.4,0.4-0.1c0.2,0.6,0.5,1.9,0.7,3c0.3,1.2-0.1,2.1-0.1,2.1s0.5-1,0.4-2.2c-0.2-1.4-0.4-3-0.6-3.2
						c-0.1-0.1-0.2,0.7,0,0l1-0.2c0.3-0.1,0,1.7,0.1,3.3c0.1,1.4-0.9,3-0.9,3s1.4-1.7,1.2-3.1c-0.2-1.7,0.1-3.7-0.2-3.7
						c-0.5,0-0.4,0.1-0.4,0.1s-0.4,0.1-0.6,0.1c0,0-0.2,0.1-0.3,0.1c-0.1-0.3-0.1-0.6-0.1-0.6s-0.2-0.1-0.4-0.1
						c-0.2,0.1-0.3-0.1-0.3-0.1l0,0.1l-0.2,0l-0.1,0.1c0,0,0,0-0.1,0.1c-0.1,0.1-0.4,0.2-0.8,0.5c-0.4,0.3,0-0.1-0.3,0.1
						c-0.3,0.1-0.8,0.4-0.8,0.4s-0.3,0.1-0.6,0.2c-0.2,0.1-0.2,0.4-0.2,0.7c-0.3-0.1-0.6-0.1-0.6-0.1s-0.4-0.1-0.7,0.1
						c-0.3,0.2,0.2,0.5,0.2,0.5s0.1,0.9,0.2,1c0,0.1,0.4,0.7,0.7,0.9c0.1-0.1,0.7-0.4,0.8-0.5c-0.6-0.2-0.8-0.7-1-0.8
						c-0.2-0.2-0.2-0.7-0.2-0.7s0.2,0.1,0.5,0.2c0.1,0.3,0.4,0.6,0.5,0.8c0.1,0.1,0.2,0.2,0.2,0.4c0.1,0-0.1,0.1,0,0.1c0,0,0,0,0,0
						c0.1,0,0.3,0,0.4,0c0,0,0,0,0,0c0,0,0.5-0.4,0.6-0.4c0.1-0.1-0.2-0.2-0.1-0.6c0.2,0,0.4,0.1,0.4,0.1
						C38.5,19.3,39.8,20.4,40,20.5z M37.4,19l0,0.5c-0.1-0.2-0.1-0.4-0.2-0.6C37.3,19,37.4,19,37.4,19z M38,17.4
						c0.3-0.2,0.2-0.1,0.8-0.4c0.8-0.4,0.4-0.2,0.4-0.2l0.4-0.4c0.1,0,0,0.2,0.3,0.5c-0.6,0.3-0.2,0.1-0.7,0.3c-0.8,0.4-0.1,0-0.1,0
						s-0.4,0.1-0.6,0.2c-0.2,0.1-0.2,0-0.2,0S38,17.4,38,17.4z M37.5,18.5c-0.1,0-0.2-0.1-0.3-0.1c0-0.1,0-0.3,0.1-0.4
						c0.1-0.2,0.2-0.3,0.4-0.4c0,0.1,0,0.2,0,0.3C37.6,18,37.5,18.3,37.5,18.5z"/>
				</g>
			</g>
		</g>
	</g>
	<g>
		<g>
			<g>
				<g>
					<defs>
						<path id="SVGID_9_" d="M13,11.7c-0.3,0-0.6,0-0.9-0.1c-0.3-0.1-0.7-0.1-1-0.2c-0.2,0-0.4-0.1-0.7-0.2
							c-0.3-0.1-0.6-0.3-0.9-0.4c-0.6-0.3-1.3-0.4-1.9-0.3c-0.5,0-1,0.2-1,0.6c0,0.4,0.4,0.8,0.9,0.9C8,12.1,8.5,12,9,12
							s1,0,1.5,0.3c0,0.2-0.3,0.3-0.4,0.5c-0.1,0.2,0.1,0.3,0.3,0.5c0.2,0.1,0.4,0.2,0.6,0.3c0.5,0.3,0.6,0.8,0.6,1.3
							c0,0.3,0.1,0.6,0.1,0.9c0.1,0.4,0.1,0.8-0.1,1.1c-0.1,0.2-0.4,0.4-0.4,0.7c0,0.2,0.2,0.4,0.4,0.5c0.5,0.3,1.2,0.3,1.7,0.1
							c0.5-0.2,1.4-1.1,0.8-1.1c-0.7,0.1-0.8,0.2-0.7,0.1c0,0,0.3,0.8,0.3,0.7c0.6-0.3,0.8,2.1,1.4,1.8c0.1,0.6,0.5-0.2,0.8,0.1
							c0.6,0.5,0.4,0.2,1.1,0.5c0.9,0.4,1.6,0.3,1.7,0c0.1-0.2-1.1-1-1.2-1.3c0-0.2,0.1-0.4,0.2-0.5c0.3-0.5,0-1.5,0.1-2.2
							c0-0.1,0.1-0.2,0.2-0.3c0.1-0.1,0.1,0,0.2,0c0.5,0,1.2,0.3,1.6,0.6c0.1,0.1,0.2,0.1,0.4,0.2c0.2-0.4,0.4-0.8,0.6-1.2
							c0.2-0.3,0.3-0.6,0.3-1s-0.2-0.8-0.5-1c-0.4-0.3-0.9-0.3-1.4-0.4c-0.6-0.1-1.1-0.3-1.7-0.6c-0.8-0.3-1.6-0.8-2.4-1
							c-0.3-0.1-0.8-0.1-1.5-0.4C13.5,11,13.5,11.6,13,11.7z"/>
					</defs>
					<clipPath id="SVGID_10_">
						<use xlink:href="#SVGID_9_"  style="overflow:visible;"/>
					</clipPath>
					<path class="st19" d="M18.3,15.6c0,0,0.1-0.1,0.3-0.1c0.2,0.3-0.1,0.5,0,0.6c0,0,0.5,0.3,0.6,0.3c0,0,0,0,0,0
						c0.1,0,0.2-0.1,0.3-0.1c0,0,0,0,0,0c0.1,0-0.1-0.1,0-0.1c-0.1-0.2,0.1-0.3,0.1-0.4c0-0.2,0.2-0.6,0.2-0.9
						c0.2-0.1,0.4-0.3,0.4-0.3s0.1,0.5,0,0.7c-0.1,0.2-0.1,0.6-0.5,1c0.1,0,0.7,0.3,0.8,0.3c0.2-0.3,0.3-0.9,0.4-1
						c0-0.1-0.1-1-0.1-1s0.3-0.4,0-0.6c-0.3-0.1-0.6,0-0.6,0s-0.2,0.1-0.4,0.2c-0.1-0.3-0.1-0.6-0.3-0.6c-0.2-0.1-0.5-0.1-0.5-0.1
						s-0.4-0.2-0.7-0.3c-0.3-0.1,0.2,0.2-0.3,0c-0.4-0.2-0.7-0.2-0.8-0.3c-0.1-0.1-0.1-0.1-0.1-0.1l-0.1-0.1l-0.1,0l-0.1-0.1
						c0,0-0.1,0.2-0.3,0.1c-0.2,0-0.3,0.1-0.3,0.1s0.1,0.3,0.1,0.6c-0.1,0-0.3-0.1-0.3-0.1c-0.2,0-0.5,0-0.5,0s0-0.1-0.3-0.1
						c-0.2,0,0.6,2,0.9,3.7c0.2,1.4,1.8,2.9,1.8,2.9s-1.3-1.5-1.6-2.8c-0.3-1.6-1-3.4-0.8-3.4l0.8,0.1c0.3,0.7,0-0.1,0,0
						c-0.1,0.3,0.1,1.9,0.4,3.3c0.2,1.2,0.9,2.1,0.9,2.1s-0.6-0.9-0.7-2.1c-0.1-1.2-0.2-2.5-0.2-3.1c0-0.4,0.1,0,0.3,0
						c0.4,0.1-0.1-0.1,0.1,0c-0.4,0.1-1.4,0.2-2.1,0.4c-0.9,0.3-0.8,0.1-0.9,0.5C13.9,15,14.7,16,15,17c0.3,1.3,2.9,3.4,3.2,3.5
						c-0.1,0.1-2.7-2.2-3-3.5c-0.2-0.7-0.6-1.2-0.6-1.4c-0.1-0.2-0.1-0.7-0.1-0.7s0.1,0.1,0.2,0c0.1-0.1,0.7-0.3,1-0.3
						c0.2,0,0.6,0,0.6,0s0.5-0.2,0.7-0.2c0.1,0,0.6,0,0.8-0.1c0.5,0.3,0.6,0.6,0.6,0.6c-0.2,0.1-0.3,0.2-0.4,0.2
						c-0.2,0.1-0.2,0.1-0.2,0.1s0,0.4-0.3,1C17.1,16.8,17,17,17,17.2c0,0.2,0.5,1.3,0.5,1.3s-0.3-1.1-0.2-1.3
						C17.5,17.1,18.2,15.7,18.3,15.6z M19.2,15.2c0,0.2,0,0.4,0,0.6L19,15.2C19.1,15.2,19.1,15.2,19.2,15.2z M18,13.8
						c0,0,0,0.1-0.2,0c-0.2-0.1-0.5-0.1-0.5-0.1s0.6,0.3-0.1,0c-0.5-0.2-0.1,0-0.6-0.2c0.1-0.4,0-0.6,0.1-0.6l0.4,0.3
						c0,0-0.4-0.2,0.4,0.1c0.5,0.2,0.5,0.1,0.7,0.2C18.1,13.8,18,13.8,18,13.8z M18.5,14.1c0-0.1-0.1-0.2-0.1-0.2
						c0.2,0.1,0.3,0.2,0.4,0.3c0.1,0.1,0.1,0.2,0.2,0.4c-0.1,0-0.2,0.1-0.2,0.1C18.7,14.6,18.6,14.2,18.5,14.1z"/>
				</g>
			</g>
		</g>
		<g>
			<ellipse transform="matrix(0.3484 -0.9374 0.9374 0.3484 -5.695 30.6183)" cx="19.2" cy="19.4" rx="1.1" ry="1.5"/>
			<text transform="matrix(1.2981 0.6019 -0.4955 0.8686 18.0841 19.2741)" class="st2 st4 st20">coin</text>
		</g>
		<text transform="matrix(1.2894 0.7148 -0.615 0.7886 20.1079 18.0722)" class="st6 st21">A</text>
		<text transform="matrix(1.4164 0.5706 -0.4009 0.9161 19.0731 17.6775)" class="st6 st22">E</text>
		<g>
			<text transform="matrix(1.4317 0.5364 -0.3536 0.9354 18.1245 17.3437)" class="st6 st23">F</text>
		</g>
		<text transform="matrix(1.3287 0.6829 -0.5651 0.825 20.9442 18.6049)" class="st6 st24">R</text>
		<g>
			<g>
				<g>
					<defs>
						<path id="SVGID_11_" d="M29.8,19.4c0.1,0.2,0.4,0.4,0.6,0.6c0.3,0.2,0.5,0.4,0.8,0.6c0.2,0.1,0.3,0.3,0.5,0.4
							c0.3,0.2,0.6,0.3,0.9,0.4c0.6,0.3,1.1,0.7,1.4,1.2c0.2,0.4,0.4,0.8,0,1.1c-0.3,0.3-1,0.1-1.4-0.2c-0.4-0.3-0.7-0.7-0.9-1
							c-0.3-0.4-0.6-0.7-1.1-0.9c-0.2,0.1-0.1,0.4-0.2,0.6c-0.1,0.1-0.4,0.1-0.6,0.1c-0.2-0.1-0.4-0.2-0.6-0.2
							c-0.6-0.2-1.1,0.1-1.6,0.3c-0.3,0.1-0.6,0.3-0.9,0.4c-0.4,0.2-0.8,0.4-0.9,0.7c-0.1,0.2-0.1,0.5-0.4,0.6
							c-0.2,0.1-0.5,0.1-0.7,0c-0.6-0.2-1-0.7-1.1-1.2c-0.1-0.5,0.2-1.7,0.5-1.2c0.4,0.5,0.3,0.7,0.3,0.6c0-0.1-0.8,0.3-0.9,0.2
							c-0.1-0.6-2.3,0.6-2.4,0c-0.6,0.3-0.1-0.5-0.5-0.6c-0.8-0.2-0.4-0.2-1.1-0.6c-0.9-0.4-1.2-1-1-1.3c0.1-0.2,1.6,0.3,1.9,0.2
							c0.2-0.1,0.2-0.3,0.3-0.5c0.3-0.5,1.4-0.9,1.9-1.4c0.1-0.1,0.1-0.2,0.2-0.3c0-0.1,0,0-0.1-0.2c-0.3-0.4-1-0.8-1.5-0.8
							c-0.1,0-0.2-0.1-0.4-0.2c0.2-0.4,0.5-0.8,0.7-1.2c0.2-0.3,0.4-0.6,0.7-0.8c0.3-0.2,0.8-0.3,1.2-0.2c0.5,0.1,0.8,0.5,1.1,0.8
							c0.4,0.4,1,0.6,1.5,0.9c0.8,0.4,1.7,0.7,2.3,1.1c0.3,0.2,0.6,0.5,1.2,0.8C30.1,18.7,29.6,19.1,29.8,19.4z"/>
					</defs>
					<clipPath id="SVGID_12_">
						<use xlink:href="#SVGID_11_"  style="overflow:visible;"/>
					</clipPath>
					<path class="st25" d="M22.3,19.5c-0.1,0.2-1.2,0.6-1.2,0.6s1.3-0.3,1.5-0.4c0.1-0.1,0.3-0.2,0.5-0.8c0.3-0.5,0.7-0.8,0.7-0.8
						s0-0.1,0-0.3c0-0.1,0-0.2,0-0.4c0,0,0.3-0.1,0.9,0.1c0.1,0.2,0.3,0.5,0.4,0.6c0.2,0.1,0.3,0.6,0.3,0.6s0.2,0.3,0.4,0.4
						c0.1,0.2,0.3,0.8,0.3,0.9c0,0.1,0.1,0.2,0.1,0.2s-0.4,0.2-0.7,0.3c-0.2,0-0.9,0.1-1.6,0.4c-1.3,0.5-4.9-0.1-4.9-0.2
						c0.2,0.1,3.6,0.8,5,0.3c1.1-0.4,2.4-0.4,2.5-0.5c0.2-0.3,0.1-0.2-0.1-1c-0.2-0.6-0.6-1.4-0.8-1.7c0.3,0.1-0.2-0.2,0.1,0.1
						c0.2,0.1,0.5,0,0.2,0.2c-0.6,0.4-1.8,1-2.9,1.7c-1.2,0.7-2.3,0.7-2.3,0.7s1.2,0,2.4-0.6c1.4-0.7,3-1.4,3.2-1.7
						c0.1-0.1-0.8,0.2,0,0l0.6,0.6c0.2,0.1-1.8,0.7-3.5,1.4c-1.4,0.6-3.5,0.5-3.5,0.5s2.2,0.3,3.6-0.3c1.7-0.8,3.9-1.3,3.8-1.5
						c-0.2-0.3-0.2-0.2-0.2-0.2s-0.2-0.3-0.3-0.4c0,0-0.2-0.1-0.2-0.2c0.3-0.2,0.6-0.3,0.6-0.3s0.1-0.2,0-0.3c-0.1-0.1,0-0.3,0-0.3
						l-0.2,0l0-0.1l-0.2,0c0,0,0,0-0.2,0c-0.2,0-0.3-0.2-0.8-0.4c-0.4-0.2,0.1,0-0.1-0.2c-0.3-0.2-0.7-0.4-0.7-0.4s-0.2-0.2-0.4-0.3
						c-0.2-0.1-0.5,0-0.8,0.1c0-0.3,0-0.5,0-0.5s-0.1-0.3-0.4-0.4c-0.3-0.1-0.5,0.4-0.5,0.4s-0.9,0.4-1,0.5c0,0-0.6,0.5-0.7,0.8
						c0.1,0,0.6,0.4,0.7,0.4c0-0.5,0.4-0.8,0.5-1c0.2-0.2,0.7-0.4,0.7-0.4s-0.1,0.2-0.1,0.4c-0.3,0.2-0.5,0.5-0.7,0.7
						c-0.1,0.1-0.2,0.3-0.4,0.3c0.1,0-0.1,0-0.1,0c0,0,0,0,0,0c0.1,0.1,0.1,0.2,0.1,0.3c0,0,0,0,0,0c0,0,0.6,0.2,0.6,0.2
						c0.2,0,0.2-0.3,0.6-0.3c0,0.2,0,0.3,0,0.3C23.1,18,22.3,19.3,22.3,19.5z M23.1,17.1l-0.6,0.2c0.2-0.1,0.4-0.2,0.6-0.3
						C23.1,17,23.1,17.1,23.1,17.1z M24.9,16.9c0.3,0.1,0.2,0.1,0.6,0.4c0.7,0.4,0.3,0.2,0.3,0.2l0.5,0.1c0,0.1-0.2,0.1-0.5,0.4
						c-0.5-0.3-0.1-0.1-0.6-0.4c-0.7-0.4,0-0.1,0-0.1s-0.2-0.2-0.4-0.4C24.8,17,24.9,17,24.9,17S24.9,16.9,24.9,16.9z M23.7,17
						c0-0.1,0-0.2,0-0.3c0.1,0,0.3-0.1,0.4-0.1c0.2,0,0.3,0,0.5,0.1c-0.1,0-0.2,0.1-0.3,0.1C24.2,16.8,23.8,16.9,23.7,17z"/>
				</g>
			</g>
		</g>
	</g>
	<path class="st2" d="M32.2,16c-7.7,0-15.6-2.3-15.6-7.6L15,10.8c0,5.3,9,6.9,16.5,6.4L32.2,16z"/>
</g>
</svg>
