<?xml version="1.0" encoding="utf-8"?>
<!-- Generator: Adobe Illustrator 25.2.1, SVG Export Plug-In . SVG Version: 6.00 Build 0)  -->
<svg version="1.1" id="Layer_1" xmlns="http://www.w3.org/2000/svg" xmlns:xlink="http://www.w3.org/1999/xlink" x="0px" y="0px"
	 viewBox="0 0 119.7 59.8" style="enable-background:new 0 0 119.7 59.8;" xml:space="preserve">
<style type="text/css">
	.st0{fill-rule:evenodd;clip-rule:evenodd;fill:#FF000D;}
	.st1{fill:none;stroke:#FFFFFF;stroke-miterlimit:10;}
	.st2{fill:none;stroke:#FFFFFF;stroke-linecap:round;stroke-linejoin:round;}
	.st3{fill:#FFFFFF;}
	.st4{fill:#000102;}
	.st5{fill:#FF0000;}
	.st6{fill:#FDFFFF;}
</style>
<g>
	<g>
		<path class="st0" d="M14,17.9c0.4,0.1-0.2,0.7,0.2,0.8c-0.6,0.3-0.9,0.9-1.7,0.8c0-0.4,0.6-1.2,0.2-1.2C13,17.5,13.8,18.2,14,17.9
			z"/>
		<path class="st0" d="M61.2,29.1c-1.1,0.8-1.7,0.2-3,0.5C58.9,28.9,60.2,29.2,61.2,29.1z"/>
		<path class="st0" d="M34.4,33c-0.6,0-1.1-0.1-1.3-0.4C33.2,32.3,35.1,32.3,34.4,33z"/>
		<path class="st0" d="M102.9,44c-1.1,1.3-3.4,0.7-4.9,0.6C99.9,43.2,100.9,44.2,102.9,44z"/>
		<path class="st0" d="M99,46.1c0.6-0.5,1.7,0,2.3,0C100.9,46.6,99.7,46,99,46.1z"/>
		<path class="st0" d="M84.4,42.5c0.2-0.3,1.9-0.4,1.7,0.4C85.5,42.8,84.6,42.9,84.4,42.5z"/>
		<path class="st0" d="M69.7,48.5C67.4,50.7,94.4,48.2,91,48c1.3-2.2,3.2-0.6,4.9-0.6C97.4,47.5,69.1,47.6,69.7,48.5z"/>
		<path class="st0" d="M70.3,48.8c0.9,0.1,1.7,0.1,2.6,0.2C72.7,49.6,70.1,49.8,70.3,48.8z"/>
		<path class="st0" d="M90.6,47.8C90,48.7,88.3,47.9,87,48C88,46.5,89.5,47.2,90.6,47.8z"/>
		<path class="st0" d="M86.3,47.4c-2.3,1.5-4.5,0.3-7.9,0.3C80.8,46.6,84,47.2,86.3,47.4z"/>
		<path class="st0" d="M73.3,47.5c-0.6,1.3-2.6,0.3-3.8,0.4C70.4,46.8,73.1,46.7,73.3,47.5z"/>
		<path class="st0" d="M65.3,46.5c-0.2,0.7,1.7,0.4,2.3,0.9c-0.9,1.2-2.8,0.5-3.8,0.4C64,47.1,64.8,47.3,65.3,46.5z"/>
		<path class="st0" d="M63.1,47.6c-1.9,1.2-7.7,1.9-7.7-0.7C58,47.1,61.4,45.9,63.1,47.6z"/>
		<path class="st0" d="M54.2,47.1c0,0.7-0.6,0.6-0.6,1.2c-0.4-0.5-1.7-0.3-2.1-0.7C52.3,46.8,52.9,47.3,54.2,47.1z"/>
		<path class="st0" d="M32.9,58.6c0.4,0.6,2.1,0,1.7,1.1C34.4,59.9,32.7,59.6,32.9,58.6z"/>
		<path class="st0" d="M69.5,32.6c1.3-0.1,1.1,0,2.1-0.3c0-0.7-0.9,0.4-1.1-0.3c0.9-1,3-1.4,3.4-0.4c3.4-1.2,11.3-0.9,14.5,0.5
			c1.5-0.4,2.6-0.4,3,0.5c-0.2,0.3-0.6,0.2-0.6,0.2c1.1,1.3,2.8,0,4,0.6c0.6-1.1-1.7-0.1-1.5-0.9c1.7-0.6,5.3-0.1,6.6,0.6
			c-1.1-0.3-3.6-0.2-4.7-0.2c4.9,1.2,13,0.9,20,1.2 M104.1,36.4c-0.2,0.3-0.2,0.7-0.9,0.9c-0.9-0.1,0.4-0.8-0.4-1
			c-4.3,0.7-8.5,0.6-13.2,0.8c8.5,0.8,15.5,0.6,23,1c0.9,0,0,0.2,0,0.7c0.6,0.1,1.3,0.2,1.7-0.1c0-0.3-0.4-0.2-0.6-0.3
			c0.4-0.3,1.3-0.8,1.5-0.4c0,0.4-0.4,0.4-0.6,0.4c0.9,0.8,1.7,0.3,3.4,0.5c0,0.5-0.6,0.3-0.6,0.7c0.2,0.4,0.9,0.2,1.5,0.1
			c0.6,0-0.4-1.2,0.6-0.9c0.9,0.2-0.6,0.5-0.2,1.2c-2.6,0.7-6.8,0.1-8.1,1c-7,0.1-15.7-0.4-23.4,0.2c0.6,3.3,4.5-0.8,6.4,1
			c1.1-0.6,2.8-0.1,3.8,0.1c-5.1,1.6-9,0.7-14.7,1.7c-0.4,0.2,0.4,0.8-0.4,1.4c-4.3,0-8.7,1.1-13.2,0.8c-0.9,0.1-0.2,0.7-0.6,1.2
			C67.4,47.3,96.3,45,94.8,46c-10-1.2-20.2,0.6-30.4,0.3c-9.6-0.2-17.4-0.5-26.8-1.1c0.2-0.2,1.3-0.7,0.2-0.7
			c0.9-0.4,0.6-0.4,1.1-1.6c-1.7-0.7-1.3,1.7-1.9,2.3C24.4,45.9,10,44.4,0,44c0.6-1.3,3.2,0.5,3.6-1.4c1.1,0.3,1.1,0.2,1.9,0.7
			c-0.4-0.7,3-2.6,4.3-1.9c0.6-0.3,0.6-0.9,1.3-1.1c-3.4-0.8-5.3-0.2-7.9-0.2c3-1.4,7.9,0.5,9.4-2.6c3.2-1,6.6,0.5,8.7-0.2
			c0.6-0.2,1.1-0.9,1.7-1.1c1.1-0.4,2.1,0.1,3.4-0.2c2.8-0.6,5.3-2.8,8.1-2.8c5.3-2.7,12.5,0,17.4-1.5c1.3,0.2,1.3,0.2,2.6,0.2
			c-0.2,0.5-0.6,0.3-0.6,0.9c2.3,0.5,3.6-0.9,5.5,0c6.6-2.1,16.2-1.5,23.4-1.9c0.6,0.1,0.4-0.8,0.6-1.2 M79.7,32.6
			c2.8,1.4,5.3-0.3,8.3,0.5C86.1,31.6,81.8,32.4,79.7,32.6z M68.7,34.7c0.6,0,1.5,0.3,1.7-0.3C69.7,34.5,68.7,33.8,68.7,34.7z
			 M61.2,34.8c0.6-0.2,1.7-0.1,2.3-0.5C62.5,34.6,61.9,33.8,61.2,34.8z M22.7,39.7c0.9-0.4,2.6,0.4,3.2-0.5
			C24.9,38.8,23.6,39,22.7,39.7z M16.8,40.4c1.7-0.3,4,0.1,5.3-1c-1.3-0.1-4.3-0.8-5.7,0c0,0.8,1.1,0.3,1.1,0.6
			C16.8,40,15.7,40.3,16.8,40.4z M49.7,43.2c2.6,0.6,4.3-0.3,7.2,0.1C55.1,42.2,52.3,43.1,49.7,43.2z"/>
		<path class="st0" d="M102.6,41.7c0.2,0.9-2.1,1-3.2,1C100.1,41.9,102,41.9,102.6,41.7z"/>
		<path class="st0" d="M78.6,49.1c-0.2,0.3-2.1,0.6-3,0.2C76.7,48.3,77.3,49.5,78.6,49.1z"/>
	</g>
</g>
<g>
	<g>
		<path class="st1" d="M62.2,9.8c0,0,0-5.4-3.5-8.9c-0.4-0.4-1.1-0.4-1.5,0l0,0c-3.5,3.5-3.5,8.9-3.5,8.9v4.1c0,0.6,0.5,1.1,1.1,1.1
			h6.3c0.6,0,1.1-0.5,1.1-1.1l0,0L62.2,9.8L62.2,9.8z"/>
		<path class="st2" d="M53.8,9.2c-1.5,0.5-2.6,1.7-3.2,3.2v1.5h1.5"/>
		<path class="st2" d="M62.2,9.2c1.5,0.5,2.6,1.7,3.2,3.2v1.5h-1.5"/>
		<path class="st2" d="M56.8,16.6c0,0,0.3,4-5.3,4"/>
		<path class="st2" d="M59.2,16.6c0,0-0.3,4,5.3,4"/>
		<path class="st2" d="M56.4,7.1c0-0.5,0.7-0.8,1.6-0.8c0.9,0,1.6,0.4,1.6,0.8"/>
	</g>
	<g>
		<g id="Colour">
			<path class="st3" d="M56.2,0.4h2.4c0.4,0,0.8,0.4,0.8,0.8v2.4l0,0h-4l0,0V1.2C55.4,0.7,55.8,0.4,56.2,0.4z"/>
			<path class="st4" d="M65.5,15.6c0,4.4-3.6,8-8,8c-0.1,0-0.3,0-0.4,0c-4-0.2-7.5-3.8-7.6-7.8c-0.1-3.6,2.2-6.7,5.6-7.8V4.4h4.8V8
				C63.2,9,65.5,12.1,65.5,15.6z"/>
			<path class="st5" d="M54.6,3.2h5.6C60.6,3.2,61,3.6,61,4l0,0c0,0.4-0.4,0.8-0.8,0.8h-5.6c-0.4,0-0.8-0.4-0.8-0.8l0,0
				C53.8,3.5,54.2,3.2,54.6,3.2z"/>
			<path class="st5" d="M63.9,15.6c0,3.5-2.9,6.4-6.4,6.4s-6.4-2.9-6.4-6.4c0-1.2,0.3-2.4,1-3.4c0.2-0.4,0.7-0.5,1.1-0.3
				c0.5,0.3,1,0.5,1.6,0.5c1.4,0,1.4-0.8,2.8-0.8c1.4,0,1.4,0.8,2.8,0.8c0.6,0,1.1-0.2,1.5-0.5c0.4-0.2,0.8-0.1,1.1,0.3
				C63.5,13.2,63.9,14.4,63.9,15.6z"/>
			<circle class="st3" cx="56.6" cy="15.2" r="1.2"/>
			<circle class="st3" cx="58.6" cy="18.8" r="0.8"/>
			<circle class="st6" cx="60.7" cy="16" r="0.8"/>
		</g>
		<g id="Outer_Lines">
			<path class="st3" d="M49,15.8c0.1,4.2,3.7,8,8,8.2c0.2,0,0.3,0,0.5,0c2.1,0,4-0.7,5.6-2.1c0.2-0.1,0.2-0.4,0-0.6
				c-0.1-0.2-0.4-0.2-0.6,0c-1.5,1.3-3.5,2-5.4,1.9c-3.8-0.2-7.1-3.7-7.2-7.4c-0.1-3.4,2.1-6.4,5.3-7.4c0.4-0.1,0.8-0.2,1.2-0.3
				c0.2,0,0.4-0.2,0.3-0.5s-0.2-0.4-0.5-0.3c-0.2,0-0.5,0.1-0.7,0.1V5.2h4v2.2c-0.2-0.1-0.5-0.1-0.7-0.1s-0.4,0.1-0.5,0.3
				s0.1,0.4,0.3,0.5l0,0c4.2,0.6,7,4.5,6.4,8.7c-0.2,1.1-0.6,2.1-1.2,3c-0.1,0.2-0.1,0.4,0.1,0.6c0.2,0.1,0.4,0.1,0.5-0.1
				c2.6-3.9,1.5-9.1-2.4-11.7c-0.6-0.4-1.2-0.7-1.8-0.9V5.2c0.7,0,1.2-0.5,1.2-1.2s-0.5-1.2-1.2-1.2h-0.4V1.2c0-0.7-0.5-1.2-1.2-1.2
				h-2.4C55.5,0,55,0.5,55,1.2v1.6h-0.4c-0.7,0-1.2,0.5-1.2,1.2s0.5,1.2,1.2,1.2v2.5C51.2,8.9,49,12.1,49,15.8z M54.2,4
				c0-0.2,0.2-0.4,0.4-0.4h5.6c0.2,0,0.4,0.2,0.4,0.4c0,0.2-0.2,0.4-0.4,0.4h-5.6C54.4,4.4,54.2,4.2,54.2,4z"/>
			<path class="st3" d="M51.9,18.9c-0.2,0.1-0.2,0.4-0.1,0.6c1.1,1.6,2.9,2.7,4.9,2.9c0.3,0,0.5,0,0.8,0c1.7,0,3.3-0.6,4.5-1.7
				c2.5-2.2,3-5.9,1.2-8.7c-0.3-0.5-1-0.7-1.6-0.4l-0.2,0.1c-0.7,0.5-1.7,0.5-2.4,0c-1-0.6-2.2-0.6-3.2,0c-0.4,0.2-0.8,0.4-1.2,0.3
				c-0.4,0-0.8-0.1-1.2-0.3l-0.2-0.1c-0.6-0.3-1.3-0.1-1.6,0.4c-0.8,1.3-1.2,2.9-1,4.5c0,0.3,0.1,0.6,0.2,0.9
				c0.1,0.2,0.3,0.3,0.5,0.3c0.2-0.1,0.3-0.3,0.3-0.5c-0.4-1.6-0.1-3.3,0.7-4.7c0.1-0.2,0.3-0.2,0.5-0.1l0.1,0.1
				c0.5,0.3,1,0.5,1.6,0.5s1.1-0.1,1.6-0.5c0.7-0.5,1.7-0.5,2.4,0c1,0.6,2.2,0.6,3.2,0l0.1-0.1c0.2-0.1,0.4,0,0.5,0.1
				c1.8,2.8,0.9,6.5-1.9,8.3c-2.7,1.7-6.3,0.9-8.1-1.7C52.4,18.8,52.1,18.8,51.9,18.9L51.9,18.9z"/>
			<path d="M56.6,13.6c-0.9,0-1.6,0.7-1.6,1.6c0,0.9,0.7,1.6,1.6,1.6s1.6-0.7,1.6-1.6S57.5,13.6,56.6,13.6z M56.6,16
				c-0.4,0-0.8-0.4-0.8-0.8s0.4-0.8,0.8-0.8s0.8,0.4,0.8,0.8S57.1,16,56.6,16z"/>
			<path d="M57.4,18.8c0,0.7,0.5,1.2,1.2,1.2s1.2-0.5,1.2-1.2s-0.5-1.2-1.2-1.2C58,17.6,57.4,18.1,57.4,18.8z M59,18.8
				c0,0.2-0.2,0.4-0.4,0.4s-0.4-0.2-0.4-0.4c0-0.2,0.2-0.4,0.4-0.4C58.9,18.4,59,18.6,59,18.8z"/>
			<path d="M60.7,17.2c0.7,0,1.2-0.5,1.2-1.2s-0.5-1.2-1.2-1.2s-1.2,0.5-1.2,1.2C59.5,16.7,60,17.2,60.7,17.2z M60.7,15.6
				c0.2,0,0.4,0.2,0.4,0.4c0,0.2-0.2,0.4-0.4,0.4s-0.4-0.2-0.4-0.4S60.4,15.6,60.7,15.6z"/>
			<path d="M53.2,13.3c-0.2-0.1-0.4,0-0.5,0.2l0,0c-0.7,1.7-0.5,3.6,0.5,5.1c0.1,0.2,0.4,0.2,0.6,0.1s0.2-0.4,0.1-0.6l0,0
				c-0.4-0.6-0.7-1.3-0.8-2c-0.1-0.8,0-1.6,0.3-2.3C53.5,13.6,53.4,13.4,53.2,13.3z"/>
			<path d="M54.9,19.2c-0.2-0.1-0.4-0.1-0.6,0.1c-0.1,0.2-0.1,0.4,0.1,0.6c0.1,0,0.1,0.1,0.2,0.1c0.2,0.1,0.4,0.1,0.6-0.1
				c0.1-0.2,0.1-0.4-0.1-0.6C55,19.2,54.9,19.2,54.9,19.2z"/>
		</g>
	</g>
	<path d="M55.8,1.2c0-0.2,0.2-0.4,0.4-0.4h2.4C58.8,0.8,59,1,59,1.2v1.6h-3.2V1.2L55.8,1.2z"/>
</g>
<g>
	<path class="st3" d="M74.3,42.4L74.3,42.4L74.3,42.4c0.1,0.1,0.3,0.2,0.5,0.3l0,0c0,0,0.1,0,0.3,0v-0.1l0,0l0,0l0,0h0.2l0,0l0,0
		v-0.1l0,0l0,0l0.1-0.1c0-0.1,0-0.3,0-0.4l0,0l0,0l0,0c0,0,0-0.1,0-0.2h-0.1c0,0,0-0.1-0.1-0.3l0,0c0,0-0.1-0.1-0.2-0.3l0,0l0,0V41
		l0,0l0,0c0-0.1,0-0.3,0-0.7v-0.1c0,0,0-0.1,0-0.2c0-0.1,0-0.2,0-0.2c0-0.1,0-0.3,0-0.7c0-0.2,0-0.6-0.1-1.2c0-0.1,0-0.2,0-0.3
		c0,0,0-0.1,0-0.2l0,0v-0.1l0,0c0-0.3,0-0.5-0.1-0.6l0,0c0-0.1,0-0.2-0.1-0.4c0-0.4-0.1-0.7-0.4-1.1c-0.2-0.1-0.4-0.3-0.7-0.5
		l-0.9-0.2c-0.4,0-0.8,0.1-0.9,0.1l0,0l0,0c-0.1,0-0.3,0.1-0.6,0.3c-0.2,0.1-0.3,0.2-0.4,0.4c-0.2,0.4-0.3,0.7-0.3,1v0.1v0.1l0,0
		l0,0v0.1v0.1c0,0.2-0.1,0.4-0.1,0.7v0.1l0,0l0,0l0,0c0,0.1,0,0.2,0,0.3v0.6c0,0.2,0,0.4,0,0.6v0.1l0,0l0,0v0.1c0,0.2,0,0.3,0,0.4
		c0,0.1,0,0.2,0,0.4l0,0c0,0.2,0.1,0.4,0.1,0.6v0.1c0.1,0.2,0.1,0.3,0.1,0.4c0.1,0.7,0.2,1,0.3,1c0.1,0.1,0.2,0.2,0.2,0.3
		c0.5,0.3,1.1,0.5,1.6,0.5l0,0c0.2,0,0.3,0,0.4,0l0,0c0.3,0,0.5-0.1,0.6-0.2C74,42.5,74.1,42.5,74.3,42.4L74.3,42.4z M75.7,42.1
		L75.7,42.1L75.7,42.1L75.7,42.1L75.7,42.1z M72.2,36.1c0.1-0.1,0.3-0.2,0.6-0.2h0.1H73l0,0l0,0c0.2,0,0.4,0.1,0.5,0.3l0,0
		c0.1,0.3,0.1,0.5,0.1,0.5l0,0v0.1l0,0l0,0l0,0l0,0c0,0.2,0,0.3,0,0.3l0,0l0,0v0.1v0.1v0.1v0.1l0,0l0,0v0.3v0.1l0,0l0,0l0,0
		c0,0,0,0.1,0,0.2l0,0l0,0v0.4l0,0l0,0v0.1l0,0v0.6l0,0l0,0l0,0l0,0c0,0.5-0.1,0.8-0.1,0.8c-0.1,0.4-0.3,0.5-0.8,0.5
		c-0.3-0.1-0.5-0.3-0.6-0.5c-0.1-0.4-0.2-0.8-0.3-1.2l0,0v-0.1l0,0c0-0.1-0.1-0.3-0.1-0.4l0,0c0-0.3,0-0.5,0-0.6v-0.1v-0.1V38v-0.1
		l0,0l0,0l0,0v-0.1c0,0,0-0.1,0-0.4v-0.1c0.1-0.4,0.1-0.6,0.1-0.6l0,0C72,36.4,72.1,36.2,72.2,36.1z M62.4,35L62.4,35L62.4,35
		L62.4,35L62.4,35z M61.8,35.7L61.8,35.7L61.8,35.7z M65,38.5L65,38.5c-0.1,0-0.1,0-0.2,0.1l0,0l0,0c0,0,0,0-0.1,0l0,0h-0.1l0,0
		h-0.2L64,38.7c-0.1,0.1-0.1,0.4,0,0.7l0,0c0.1,0.1,0.1,0.2,0.2,0.2s0.4,0.1,0.9,0.1c0.1,0,0.1,0.3,0,1v0.1l0,0l0,0
		c0,0.1,0,0.3-0.2,0.3c0,0.1-0.2,0.1-0.5,0.2l-0.1-0.1c-0.3,0-0.5-0.1-0.6-0.3c-0.1,0-0.1-0.2-0.2-0.5l0,0c0-0.1,0-0.2-0.1-0.2l0,0
		v-0.1c0-0.2,0-0.3,0-0.4l0,0l0,0l0,0l0,0v-0.1l0,0v-0.1l0,0l0,0l0,0v-0.1c0-0.2,0-0.3,0-0.3l0,0l0,0l0,0v-0.6v-0.1l0,0v-0.3l0,0
		l0,0V38v-0.1l0,0c0-0.2,0-0.3,0-0.4c0-0.2,0.1-0.6,0.2-1c0.1-0.2,0.3-0.4,0.7-0.6c0.1,0,0.2,0,0.3,0.1c0.1,0,0.2,0.1,0.4,0.4
		c0.1,0.1,0.1,0.3,0.1,0.7l0,0v0.2v0.1c0,0,0,0.1,0.1,0.2c0,0,0.2,0.1,0.5,0.1c0.2,0,0.4-0.1,0.4-0.2c0.1-0.1,0.2-0.2,0.2-0.3l0,0
		l0,0v-0.1l0,0l0,0l0,0l0,0c0,0,0-0.1,0.1-0.3v-0.1v-0.1v-0.1v-0.1l0,0l0,0v-0.2l0,0c0-0.2-0.1-0.5-0.2-0.8c0-0.1-0.1-0.2-0.1-0.2
		c-0.1-0.2-0.3-0.4-0.5-0.5c-0.1,0-0.2-0.1-0.2-0.1c-0.1-0.1-0.4-0.1-0.9-0.1c0,0-0.2,0-0.4,0.1c-0.2,0.1-0.4,0.2-0.6,0.3l-0.5,0
		L62.8,35l-0.4,0.7v0.1c-0.1,0.1-0.1,0.2-0.1,0.3l0,0c-0.1,0.2-0.1,0.4-0.2,0.6l0,0c0,0.1-0.1,0.2-0.1,0.4l0,0v0.2v0.1l0,0v0.1v0.1
		c0,0.1-0.1,0.3-0.1,0.5v0.1l0,0v0.1l0,0c0,0,0,0.2,0,0.4l0,0l0,0v0.2V39l0.1,0.1v0.1l0,0v0.1v0.1v0.1v0.1l0,0l0,0
		c0,0.1,0,0.2,0,0.2v0.1l0,0l0,0c0,0.4,0.1,0.6,0.1,0.6c0,0.1,0,0.2,0,0.2s0,0.1,0.1,0.2v0.2c0,0,0,0.1,0.1,0.2
		c0,0.2,0.2,0.4,0.5,0.6c0.2,0.2,0.6,0.4,1.1,0.4H64l0,0c0.1,0,0.2,0,0.5,0h0.1h0.1c0.2,0,0.3,0,0.3-0.1c0.3-0.1,0.5-0.1,0.6-0.2
		c0.1,0,0.2-0.1,0.3-0.3c0.1-0.2,0.2-0.3,0.2-0.4c0-0.1,0.1-0.2,0.2-0.4l0,0l0.1-0.1l0,0l0,0v-0.1c0-0.1,0-0.2,0.1-0.4v-0.1v-0.1
		l0,0l0,0V40l0,0v-0.1v-0.2v-0.1l0,0l0,0v-0.1v-0.1l0,0l0,0l0,0c0,0,0-0.1,0-0.2v-0.1V39v-0.1v-0.1l0,0v-0.1v-0.1v-0.1l0,0l0,0v-0.1
		l0,0l0,0c0-0.1-0.1-0.2-0.4-0.2l0,0h-0.2l0,0l0,0l0,0l0,0l0,0h-0.1L65,38.5L65,38.5L65,38.5L65,38.5z M56.2,42.3L56.2,42.3
		L56.2,42.3L56.2,42.3L56.2,42.3z M55.9,34.3c-0.2,0-0.3,0.3-0.3,0.9v0.1l0,0v0.1V36v0.6v0.1v0.1c0,0.5,0,0.8,0,1.1l0,0l0,0V38l0,0
		c0,0,0,0.1-0.1,0.2l0,0v0.1v0.2v0.2v0.1l0,0v0.1v0.3c0,0.3,0,0.5,0,0.6l0,0l0,0V40l0,0v0.1l0,0v0.1l0,0v0.2v0.5c0,0.1,0,0.2,0,0.2
		c0,0.7,0.1,1,0.2,1.1c0,0.1,0.1,0.2,0.4,0.2h0.1h0.1c0.4-0.1,0.6-0.2,0.7-0.3V42l0.1-0.1l0,0l0,0v-0.3l0,0v-0.1
		c0-0.3,0-0.5-0.1-0.6l0,0c0-0.2,0-0.4,0-0.4v-0.1v-0.1v-0.1v-0.1v-0.2c0-0.1,0-0.2,0-0.3s0-0.2,0-0.3v-0.1c0-0.1,0-0.1,0-0.2
		c0-0.1,0-0.2,0.1-0.2l0,0c0.1,0.3,0.3,0.6,0.4,0.9c0.3,0.5,0.7,1.2,1,1.9c0.4,0.4,0.6,0.6,0.8,0.7c0.3,0,0.4,0.1,0.4,0.1l0,0l0,0
		l0,0h0.1H60h0.1l0,0l0.1-0.1c0.1-0.1,0.2-0.2,0.3-0.4v-0.1v-0.1l0,0c0-0.1,0-0.3,0-0.3V41l0,0v-0.1l0,0v-0.4v-0.1v-0.1
		c0-0.1,0-0.2,0-0.2v-0.4l0,0c0,0,0.1-0.1,0.1-0.3v-0.2v-0.1V39l0,0c0,0,0-0.2,0-0.5l0,0l0,0v-0.1v-0.2c0-0.1,0-0.2,0-0.3v-0.2v-0.1
		v-0.1v-0.1v-0.3l0,0l0,0v-0.5l0,0v-0.1v-0.1v-0.2c0,0-0.1-0.1-0.1-0.2v-0.5v-0.1v-0.2V35v-0.2l0,0l0,0v-0.1c0-0.1,0-0.2,0-0.2
		c0-0.1-0.1-0.2-0.4-0.2l0,0c-0.1,0-0.1,0-0.2,0.1c-0.1,0-0.1,0-0.2,0l0,0l0,0l0,0c-0.2,0-0.3,0.1-0.3,0.1c-0.1,0-0.2,0.3-0.3,0.9
		c0,0.5,0.1,0.8,0.1,0.8c0.1,1.2,0.1,1.8,0.1,1.8l0,0v0.1v0.2c0,0.1,0.1,0.2,0.1,0.4v0.6v0.1v0.1v0.1v0.3l0,0c0,0-0.1-0.1-0.1-0.2
		c-0.2-0.9-0.4-1.4-0.6-1.8c-0.3-0.9-0.6-1.6-0.8-2c0-0.1-0.2-0.5-0.6-1.2c-0.3-0.2-0.5-0.3-0.8-0.3C56.1,34.3,55.9,34.3,55.9,34.3z
		 M54.3,40.8L54.3,40.8L54.3,40.8L54.3,40.8L54.3,40.8z M52.8,34.5l-0.1,0.2l0,0c0,0,0,0.1,0,0.3v0.3v0.2l0,0l0,0l0,0l0,0
		c0,0.1,0,0.3,0,0.5v0.1c0,0,0,0.1,0,0.3l0.1,0.1c0,0,0,0.2,0,0.5v0.1v0.1v0.1v0.1l0,0v0.1v0.1v0.1l0,0v0.1l0,0v0.7l0,0v0.1l0,0l0,0
		c0,0,0,0.1,0,0.2V39v0.1v0.1c0,0.2-0.1,0.3-0.1,0.3c0,0.1,0,0.2,0.1,0.2v0.1v0.1v0.2l0,0v0.1v0.1v0.2v0.1c0,0.1,0,0.2,0,0.2v0.1V41
		v0.1l0,0l0,0v0.1v0.2v0.2v0.1v0.1l0,0l0,0c0,0.3,0,0.6,0.1,0.8l0,0c0,0,0.1,0,0.2,0s0.2,0,0.2,0h0.2l0,0h0.1l0,0l0,0h0.2
		c0.1,0,0.2,0,0.4,0l0,0l0,0l0,0c0.1,0,0.1-0.1,0.1-0.2v-0.1c0,0,0-0.2,0-0.6l0,0c0,0,0-0.1,0-0.3l0,0c0-0.1,0-0.2,0-0.3l0,0l0,0
		l0,0v-0.4l0,0l0,0v-0.1c0,0,0-0.2,0-0.5v-0.2v-0.1v-0.1v-0.2v-0.1l0,0l0,0v-0.1v-0.2l0,0c0,0,0-0.1,0-0.2l0,0l0,0v-0.1v-0.1v-0.1
		v-0.1l0,0l0,0l0,0v-0.1v-0.1c0-0.1,0-0.2,0-0.2l0,0v-0.2l0,0l0,0v-0.1l0,0l0,0v-0.1v-0.1v-0.2l0,0c0.1,0,0.1-0.3,0-0.9l0,0l0,0
		v-0.1l0,0l0,0c0-0.3,0-0.5,0-0.6v-0.1c0,0,0-0.1,0-0.3v-0.1c0-0.2-0.1-0.4-0.2-0.5l-0.3-0.2c-0.2,0-0.4,0-0.5,0l0,0
		C53,34.3,52.9,34.4,52.8,34.5z M51.1,41.9L51.1,41.9L51.1,41.9L51.1,41.9L51.1,41.9L51.1,41.9z M51.1,41.3L51.1,41.3L51.1,41.3
		L51.1,41.3L51.1,41.3c0,0.2,0,0.3,0,0.4l0,0v0.1l0,0v-0.1l0,0v-0.1V41.3L51.1,41.3L51.1,41.3z M44.8,34.5c-0.1,0.1-0.2,0.4-0.2,0.9
		v0.1l0,0l0,0v0.2v0.2v0.2v0.3v0.1v0.1v0.2V37v0.1v0.1v0.4v0.1l0,0c0,0.2,0,0.4,0,0.6c0,0.3,0,0.6-0.1,0.8v0.1c0,0.1,0,0.2,0,0.3
		l0,0l0,0l0,0v1.2c0,0.1,0,0.2,0,0.3l0,0v0.1v0.1v0.1v0.1l0,0v0.1v0.1v0.5c0,0.3,0.2,0.4,0.5,0.4c0.1,0,0.2,0,0.2,0l0,0l0,0l0,0l0,0
		c0.1,0,0.3,0,0.7-0.1c0.1-0.4,0.2-0.7,0.1-1l0,0v-0.1l0,0v-0.1v-0.1V41l0,0v-0.2l0,0v-0.1v-0.1v-0.2c0,0,0-0.2,0-0.5v-0.1v-0.1
		v-0.1v-0.1c0,0,0-0.1,0-0.2c0,0,0-0.1,0-0.2V39c0,0,0.1,0.2,0.2,0.4l0,0l0.2,0.7l0,0c0.1,0.5,0.3,0.9,0.4,1.2
		c0.2,0.5,0.3,0.8,0.4,0.8c0,0.1,0.2,0.2,0.6,0.1c0.2,0,0.3,0,0.3,0c0.2,0,0.4-0.2,0.5-0.6c0.1-0.2,0.2-0.4,0.3-0.6
		c0-0.2,0.1-0.5,0.3-0.8v-0.1l0,0l0.1-0.2c0-0.2,0.1-0.4,0.2-0.6l0,0l0,0l0.1,0.2c0,0.2,0,0.3,0,0.4v0.5v0.1l0,0c0,0.1,0,0.2,0,0.2
		l0,0v0.1v0.1c0,0.4,0.1,0.8,0,1c0.2,0.3,0.4,0.4,0.7,0.4h0.1c0.2,0,0.4,0,0.6,0c0.3-0.1,0.4-0.3,0.4-0.5l0,0c0-0.1,0-0.2,0-0.2
		v-0.2c0-0.1,0-0.3,0-0.4v-0.1c0-0.2,0-0.4-0.1-0.4l0,0v-0.2v-0.2l0,0l0,0v-0.2l0,0c0-0.2,0-0.3,0-0.4l0,0l0,0v-0.2v-0.2l0,0v-0.2
		c0-0.1,0-0.2,0-0.3c0,0,0-0.1,0-0.2c0,0,0-0.1,0-0.3v-0.4l0,0v-0.4l0.1-0.1v-0.1l0,0v-0.2l0,0v-0.3v-0.1c0-0.1,0-0.1,0-0.3l0,0
		v-0.5c0,0,0.1-0.2,0.1-0.5c0-0.5,0-0.7-0.1-0.7c0.1-0.3-0.1-0.4-0.5-0.5h-0.1l0,0h-0.3l0,0h-0.1c-0.2,0.1-0.3,0.3-0.4,0.6
		c-0.3,1-0.5,1.6-0.7,1.7c-0.1,0.4-0.2,0.6-0.2,0.6s-0.2,0.4-0.5,1.1c-0.3,0.7-0.4,1.2-0.5,1.4H48l-0.3-1.2
		c-0.1-0.4-0.2-0.7-0.2-0.7v-0.1c-0.1-0.2-0.1-0.2-0.1-0.2l0,0c-0.1-0.5-0.2-0.9-0.4-1.2l0,0v-0.1c0,0-0.1-0.1-0.1-0.3l0,0
		c-0.2-0.6-0.4-1-0.5-1.2c0-0.1-0.1-0.3-0.3-0.5h-0.8h-0.1l0,0h-0.1C44.9,34.3,44.8,34.4,44.8,34.5z M40.1,36.1
		c0.1-0.1,0.3-0.2,0.6-0.2h0.1h0.1l0,0l0,0c0.2,0,0.4,0.1,0.5,0.3l0,0c0.1,0.3,0.1,0.5,0.1,0.5l0,0v0.1l0,0l0,0l0,0l0,0
		c0,0.2,0,0.3,0,0.3l0,0l0,0v0.1v0.1v0.1v0.1l0,0l0,0v0.3v0.1l0,0l0,0l0,0c0,0,0,0.1,0,0.2l0,0l0,0v0.4l0,0l0,0v0.1l0,0v0.6l0,0l0,0
		l0,0l0,0c0,0.5-0.1,0.8-0.1,0.8c-0.1,0.4-0.3,0.5-0.8,0.5c-0.3-0.1-0.5-0.3-0.6-0.5c-0.1-0.4-0.2-0.8-0.3-1.2l0,0v-0.1l0,0
		c0-0.1-0.1-0.3-0.1-0.4l0,0c0-0.3,0-0.5,0-0.6v-0.1v-0.1V38v-0.1l0,0l0,0l0,0v-0.1c0,0,0-0.1,0-0.4v-0.1c0.1-0.4,0.1-0.6,0.1-0.6
		l0,0C39.9,36.4,40,36.2,40.1,36.1z M39.8,34.4L39.8,34.4L39.8,34.4c-0.2,0-0.3,0.1-0.6,0.2c-0.2,0.1-0.3,0.2-0.4,0.4
		c-0.2,0.4-0.3,0.7-0.3,1v0.1v0.1l0,0l0,0v0.1v0.1c0,0.2-0.1,0.4-0.1,0.7v0.1l0,0l0,0l0,0c0,0.1,0,0.2,0,0.3v0.6c0,0.2,0,0.4,0,0.6
		v0.1l0,0l0,0v0.1c0,0.2,0,0.3,0,0.4c0,0.1,0,0.2,0,0.4l0,0c0,0.2,0.1,0.4,0.1,0.6v0.1c0.1,0.2,0.1,0.3,0.1,0.4c0.1,0.7,0.2,1,0.3,1
		c0.1,0.1,0.2,0.2,0.2,0.3c0.5,0.3,1.1,0.5,1.6,0.5l0,0c0.2,0,0.3,0,0.4,0l0,0c0.3,0,0.5-0.1,0.6-0.2c0.2,0,0.5-0.2,0.9-0.6
		c0.1-0.1,0.2-0.4,0.3-0.9l0,0l0,0c0-0.1,0-0.3,0-0.7v-0.1c0,0,0-0.1,0-0.2c0-0.1,0-0.2,0-0.2c0-0.1,0-0.3,0-0.7
		c0-0.2,0-0.6-0.1-1.2c0-0.1,0-0.2,0-0.3c0,0,0-0.1,0-0.2l0,0v-0.1l0,0c0-0.3,0-0.5-0.1-0.6l0,0c0-0.1,0-0.2-0.1-0.4
		c0-0.4-0.1-0.7-0.4-1.1c-0.2-0.1-0.4-0.3-0.7-0.5l-0.9-0.2C40.3,34.3,40,34.4,39.8,34.4z M35.3,41.3L35.3,41.3L35.3,41.3L35.3,41.3
		L35.3,41.3z M34.7,34.5L34.7,34.5L34.7,34.5c0,0-0.1,0-0.3,0.1l0,0c-0.1,0-0.3,0.1-0.4,0.3c-0.4,0.3-0.7,0.6-0.8,0.9l-0.3,0.8
		l-0.2,0.9l0,0l-0.1,0.6l0,0c-0.1,0.2-0.1,0.3-0.1,0.4v0.2v0.1v0.1V39v0.1l0,0l0,0v0.1l0,0l0,0l0,0l0,0l0,0c0,0.3,0.1,0.5,0.1,0.7
		l0,0c0,0.1,0,0.2,0,0.3v0.1l0,0h0.1v0.1l-0.1,0.1c0,0.2,0.1,0.5,0.3,1c0,0.1,0.1,0.2,0.2,0.2v0.1l0.2,0.2c0,0.1,0.2,0.3,0.6,0.7
		l0,0l-0.1-0.1l0,0c0.2,0.1,0.3,0.1,0.3,0.1c0.3,0.2,0.7,0.2,1.2,0.2l0.3-0.1c0.1-0.1,0.2-0.1,0.3-0.1l0,0c0.2,0,0.5-0.3,0.8-0.9
		c0.2-0.4,0.3-0.6,0.2-0.8l0,0v-0.1c0-0.1,0-0.2-0.1-0.4l0,0v-0.2v-0.1l0,0c-0.1-0.2-0.4-0.3-0.7-0.3c-0.1,0-0.2,0-0.3,0h-0.1
		L35.6,40c0,0.1,0,0.2,0,0.3s-0.1,0.2-0.1,0.2v0.1l0,0l-0.1,0.2l0,0c-0.1,0.2-0.1,0.3-0.2,0.3l0,0h-0.1v0.1v0.1L35,41.4h-0.1
		l-0.1,0.1l0,0l0,0l0,0l0,0l0,0h-0.1c-0.1,0-0.2,0-0.2,0c-0.2-0.1-0.3-0.1-0.3-0.2l0,0l0,0C34,41,34,40.8,33.9,40.9v-0.1
		c0-0.2,0-0.3-0.1-0.3v-0.2c0,0,0-0.1,0-0.2l0,0l0,0V40l0,0c0-0.3-0.1-0.4-0.1-0.5l0,0v-0.2l0,0v-0.1l0,0V39v-0.1l-0.1-0.2
		c0-0.1,0-0.3,0.1-0.5l0,0c0-0.3,0.1-0.5,0.1-0.6s0.1-0.2,0.1-0.2c0.1-0.3,0.1-0.5,0.2-0.6l0,0l0,0l0,0l0,0v-0.1l0,0l0.1-0.2l0,0
		h0.1l0,0l0,0c0.1-0.1,0.2-0.2,0.3-0.3v-0.1c0,0,0.1,0,0.2,0l0,0h0.1l0,0H35c0.2,0,0.3,0.1,0.3,0.3c0.1,0.1,0.2,0.2,0.2,0.3
		c0.5,0,0.5,0.2,0.5,0.3l0,0v0.1v0.1l0,0c0.1,0.1,0.2,0.2,0.2,0.2l0,0l0.2,0.1h0.1l0,0h0.1c0.1-0.1,0.2-0.2,0.2-0.2l0,0l0,0h0.1
		c0.1-0.1,0.2-0.2,0.2-0.3v-0.1v-0.2v-0.2c0.1-0.1,0.1-0.2,0.1-0.3L37.1,36l0,0v-0.1v-0.1L37,35.6v-0.1l0,0h-0.1l0,0l-0.1-0.2l0,0
		c0.1-0.3,0.1-0.3,0-0.3c0-0.1-0.1-0.2-0.4-0.3c-0.4-0.1-0.7-0.2-0.8-0.2h-0.1h-0.1C35.1,34.4,34.8,34.5,34.7,34.5z"/>
	<path class="st3" d="M79.2,37.5c-0.3,0-0.5,0.1-0.6,0.2s-0.2,0.3-0.2,0.5s0.1,0.3,0.2,0.4s0.3,0.2,0.5,0.2c0,0,0.2,0,0.3,0
		s0.3,0,0.4,0c0.4,0,0.8,0.1,1,0.4s0.4,0.6,0.4,1.1c0,0.3-0.1,0.6-0.2,0.8s-0.3,0.4-0.6,0.5s-0.5,0.2-0.7,0.2c-0.4,0-0.7-0.1-1-0.4
		s-0.5-0.7-0.7-1.2c0-0.1-0.1-0.2-0.2-0.2s-0.2-0.1-0.3-0.1c-0.2,0-0.4,0.1-0.5,0.2s-0.2,0.3-0.2,0.5s0.1,0.4,0.2,0.7
		s0.3,0.5,0.5,0.8s0.5,0.5,0.9,0.6s0.8,0.3,1.3,0.3s0.9-0.1,1.3-0.2s0.7-0.3,1-0.6s0.5-0.6,0.6-0.9s0.2-0.7,0.2-1s-0.1-0.6-0.2-0.8
		s-0.3-0.5-0.5-0.7s-0.5-0.4-0.8-0.6c0.3-0.3,0.6-0.5,0.7-0.8s0.3-0.6,0.3-1c0-0.3-0.1-0.6-0.2-0.8s-0.3-0.5-0.5-0.7
		s-0.5-0.3-0.8-0.4s-0.7-0.2-1-0.2c-0.4,0-0.8,0.1-1.2,0.2S78,34.8,77.7,35s-0.4,0.4-0.5,0.6S77,35.8,77,36s0.1,0.4,0.2,0.5
		s0.3,0.2,0.4,0.2s0.2,0,0.4-0.1s0.2-0.1,0.2-0.2c0.1-0.2,0.1-0.3,0.2-0.5s0.2-0.3,0.3-0.4s0.2-0.2,0.4-0.3s0.4-0.1,0.6-0.1
		c0.4,0,0.6,0.1,0.8,0.3s0.3,0.5,0.3,0.8c0,0.4-0.1,0.7-0.4,0.9s-0.6,0.3-0.9,0.3L79.2,37.5L79.2,37.5z"/>
</g>
</svg>
