<?xml version="1.0" encoding="utf-8"?>
<!-- Generator: Adobe Illustrator 25.4.1, SVG Export Plug-In . SVG Version: 6.00 Build 0)  -->
<svg version="1.1" id="Layer_1" xmlns="http://www.w3.org/2000/svg" xmlns:xlink="http://www.w3.org/1999/xlink" x="0px" y="0px"
	 viewBox="0 0 119.7 59.8" style="enable-background:new 0 0 119.7 59.8;" xml:space="preserve">
<style type="text/css">
	.st0{fill-rule:evenodd;clip-rule:evenodd;fill:#FF000D;}
	.st1{fill:none;stroke:#FFFFFF;stroke-miterlimit:10;}
	.st2{fill:none;stroke:#FFFFFF;stroke-linecap:round;stroke-linejoin:round;}
	.st3{fill:#FFFFFF;}
	.st4{fill:#000102;}
	.st5{fill:#FF0000;}
	.st6{fill:#FDFFFF;}
</style>
<g>
	<g>
		<path class="st0" d="M14,17.9c0.4,0.1-0.2,0.7,0.2,0.8c-0.6,0.3-0.9,0.9-1.7,0.8c0-0.4,0.6-1.2,0.2-1.2C13,17.5,13.8,18.2,14,17.9
			z"/>
		<path class="st0" d="M61.2,29.1c-1.1,0.8-1.7,0.2-3,0.5C58.9,28.9,60.2,29.2,61.2,29.1z"/>
		<path class="st0" d="M34.4,33c-0.6,0-1.1-0.1-1.3-0.4C33.2,32.3,35.1,32.3,34.4,33z"/>
		<path class="st0" d="M102.9,44c-1.1,1.3-3.4,0.7-4.9,0.6C99.9,43.2,100.9,44.2,102.9,44z"/>
		<path class="st0" d="M99,46.1c0.6-0.5,1.7,0,2.3,0C100.9,46.6,99.7,46,99,46.1z"/>
		<path class="st0" d="M84.4,42.5c0.2-0.3,1.9-0.4,1.7,0.4C85.5,42.8,84.6,42.9,84.4,42.5z"/>
		<path class="st0" d="M69.7,48.5C67.4,50.7,94.4,48.2,91,48c1.3-2.2,3.2-0.6,4.9-0.6C97.4,47.5,69.1,47.6,69.7,48.5z"/>
		<path class="st0" d="M70.3,48.8c0.9,0.1,1.7,0.1,2.6,0.2C72.7,49.6,70.1,49.8,70.3,48.8z"/>
		<path class="st0" d="M90.6,47.8C90,48.7,88.3,47.9,87,48C88,46.5,89.5,47.2,90.6,47.8z"/>
		<path class="st0" d="M86.3,47.4c-2.3,1.5-4.5,0.3-7.9,0.3C80.8,46.6,84,47.2,86.3,47.4z"/>
		<path class="st0" d="M73.3,47.5c-0.6,1.3-2.6,0.3-3.8,0.4C70.4,46.8,73.1,46.7,73.3,47.5z"/>
		<path class="st0" d="M65.3,46.5c-0.2,0.7,1.7,0.4,2.3,0.9c-0.9,1.2-2.8,0.5-3.8,0.4C64,47.1,64.8,47.3,65.3,46.5z"/>
		<path class="st0" d="M63.1,47.6c-1.9,1.2-7.7,1.9-7.7-0.7C58,47.1,61.4,45.9,63.1,47.6z"/>
		<path class="st0" d="M54.2,47.1c0,0.7-0.6,0.6-0.6,1.2c-0.4-0.5-1.7-0.3-2.1-0.7C52.3,46.8,52.9,47.3,54.2,47.1z"/>
		<path class="st0" d="M32.9,58.6c0.4,0.6,2.1,0,1.7,1.1C34.4,59.9,32.7,59.6,32.9,58.6z"/>
		<path class="st0" d="M69.5,32.6c1.3-0.1,1.1,0,2.1-0.3c0-0.7-0.9,0.4-1.1-0.3c0.9-1,3-1.4,3.4-0.4c3.4-1.2,11.3-0.9,14.5,0.5
			c1.5-0.4,2.6-0.4,3,0.5c-0.2,0.3-0.6,0.2-0.6,0.2c1.1,1.3,2.8,0,4,0.6c0.6-1.1-1.7-0.1-1.5-0.9c1.7-0.6,5.3-0.1,6.6,0.6
			c-1.1-0.3-3.6-0.2-4.7-0.2c4.9,1.2,13,0.9,20,1.2 M104.1,36.4c-0.2,0.3-0.2,0.7-0.9,0.9c-0.9-0.1,0.4-0.8-0.4-1
			c-4.3,0.7-8.5,0.6-13.2,0.8c8.5,0.8,15.5,0.6,23,1c0.9,0,0,0.2,0,0.7c0.6,0.1,1.3,0.2,1.7-0.1c0-0.3-0.4-0.2-0.6-0.3
			c0.4-0.3,1.3-0.8,1.5-0.4c0,0.4-0.4,0.4-0.6,0.4c0.9,0.8,1.7,0.3,3.4,0.5c0,0.5-0.6,0.3-0.6,0.7c0.2,0.4,0.9,0.2,1.5,0.1
			c0.6,0-0.4-1.2,0.6-0.9c0.9,0.2-0.6,0.5-0.2,1.2c-2.6,0.7-6.8,0.1-8.1,1c-7,0.1-15.7-0.4-23.4,0.2c0.6,3.3,4.5-0.8,6.4,1
			c1.1-0.6,2.8-0.1,3.8,0.1c-5.1,1.6-9,0.7-14.7,1.7c-0.4,0.2,0.4,0.8-0.4,1.4c-4.3,0-8.7,1.1-13.2,0.8c-0.9,0.1-0.2,0.7-0.6,1.2
			C67.4,47.3,96.3,45,94.8,46c-10-1.2-20.2,0.6-30.4,0.3c-9.6-0.2-17.4-0.5-26.8-1.1c0.2-0.2,1.3-0.7,0.2-0.7
			c0.9-0.4,0.6-0.4,1.1-1.6c-1.7-0.7-1.3,1.7-1.9,2.3C24.4,45.9,10,44.4,0,44c0.6-1.3,3.2,0.5,3.6-1.4c1.1,0.3,1.1,0.2,1.9,0.7
			c-0.4-0.7,3-2.6,4.3-1.9c0.6-0.3,0.6-0.9,1.3-1.1c-3.4-0.8-5.3-0.2-7.9-0.2c3-1.4,7.9,0.5,9.4-2.6c3.2-1,6.6,0.5,8.7-0.2
			c0.6-0.2,1.1-0.9,1.7-1.1c1.1-0.4,2.1,0.1,3.4-0.2c2.8-0.6,5.3-2.8,8.1-2.8c5.3-2.7,12.5,0,17.4-1.5c1.3,0.2,1.3,0.2,2.6,0.2
			c-0.2,0.5-0.6,0.3-0.6,0.9c2.3,0.5,3.6-0.9,5.5,0c6.6-2.1,16.2-1.5,23.4-1.9c0.6,0.1,0.4-0.8,0.6-1.2 M79.7,32.6
			c2.8,1.4,5.3-0.3,8.3,0.5C86.1,31.6,81.8,32.4,79.7,32.6z M68.7,34.7c0.6,0,1.5,0.3,1.7-0.3C69.7,34.5,68.7,33.8,68.7,34.7z
			 M61.2,34.8c0.6-0.2,1.7-0.1,2.3-0.5C62.5,34.6,61.9,33.8,61.2,34.8z M22.7,39.7c0.9-0.4,2.6,0.4,3.2-0.5
			C24.9,38.8,23.6,39,22.7,39.7z M16.8,40.4c1.7-0.3,4,0.1,5.3-1c-1.3-0.1-4.3-0.8-5.7,0c0,0.8,1.1,0.3,1.1,0.6
			C16.8,40,15.7,40.3,16.8,40.4z M49.7,43.2c2.6,0.6,4.3-0.3,7.2,0.1C55.1,42.2,52.3,43.1,49.7,43.2z"/>
		<path class="st0" d="M102.6,41.7c0.2,0.9-2.1,1-3.2,1C100.1,41.9,102,41.9,102.6,41.7z"/>
		<path class="st0" d="M78.6,49.1c-0.2,0.3-2.1,0.6-3,0.2C76.7,48.3,77.3,49.5,78.6,49.1z"/>
	</g>
</g>
<g>
	<g>
		<path class="st1" d="M68.2,9.8c0,0,0-5.4-3.5-8.9c-0.4-0.4-1.1-0.4-1.5,0l0,0c-3.5,3.5-3.5,8.9-3.5,8.9v4.1c0,0.6,0.5,1.1,1.1,1.1
			h6.3c0.6,0,1.1-0.5,1.1-1.1l0,0V9.8L68.2,9.8z"/>
		<path class="st2" d="M59.8,9.2c-1.5,0.5-2.6,1.7-3.2,3.2v1.5h1.5"/>
		<path class="st2" d="M68.2,9.2c1.5,0.5,2.6,1.7,3.2,3.2v1.5h-1.5"/>
		<path class="st2" d="M62.8,16.6c0,0,0.3,4-5.3,4"/>
		<path class="st2" d="M65.2,16.6c0,0-0.3,4,5.3,4"/>
		<path class="st2" d="M62.4,7.1c0-0.5,0.7-0.8,1.6-0.8c0.9,0,1.6,0.4,1.6,0.8"/>
	</g>
	<g>
		<g id="Colour">
			<path class="st3" d="M62.2,0.4h2.4c0.4,0,0.8,0.4,0.8,0.8v2.4l0,0h-4l0,0V1.2C61.4,0.7,61.8,0.4,62.2,0.4z"/>
			<path class="st4" d="M71.5,15.6c0,4.4-3.6,8-8,8c-0.1,0-0.3,0-0.4,0c-4-0.2-7.5-3.8-7.6-7.8c-0.1-3.6,2.2-6.7,5.6-7.8V4.4h4.8V8
				C69.2,9,71.5,12.1,71.5,15.6z"/>
			<path class="st5" d="M60.6,3.2h5.6C66.6,3.2,67,3.6,67,4l0,0c0,0.4-0.4,0.8-0.8,0.8h-5.6c-0.4,0-0.8-0.4-0.8-0.8l0,0
				C59.8,3.5,60.2,3.2,60.6,3.2z"/>
			<path class="st5" d="M69.9,15.6c0,3.5-2.9,6.4-6.4,6.4s-6.4-2.9-6.4-6.4c0-1.2,0.3-2.4,1-3.4c0.2-0.4,0.7-0.5,1.1-0.3
				c0.5,0.3,1,0.5,1.6,0.5c1.4,0,1.4-0.8,2.8-0.8c1.4,0,1.4,0.8,2.8,0.8c0.6,0,1.1-0.2,1.5-0.5c0.4-0.2,0.8-0.1,1.1,0.3
				C69.5,13.2,69.9,14.4,69.9,15.6z"/>
			<circle class="st3" cx="62.6" cy="15.2" r="1.2"/>
			<circle class="st3" cx="64.6" cy="18.8" r="0.8"/>
			<circle class="st6" cx="66.7" cy="16" r="0.8"/>
		</g>
		<g id="Outer_Lines">
			<path class="st3" d="M55,15.8c0.1,4.2,3.7,8,8,8.2c0.2,0,0.3,0,0.5,0c2.1,0,4-0.7,5.6-2.1c0.2-0.1,0.2-0.4,0-0.6
				c-0.1-0.2-0.4-0.2-0.6,0c-1.5,1.3-3.5,2-5.4,1.9c-3.8-0.2-7.1-3.7-7.2-7.4c-0.1-3.4,2.1-6.4,5.3-7.4c0.4-0.1,0.8-0.2,1.2-0.3
				c0.2,0,0.4-0.2,0.3-0.5s-0.2-0.4-0.5-0.3c-0.2,0-0.5,0.1-0.7,0.1V5.2h4v2.2c-0.2-0.1-0.5-0.1-0.7-0.1s-0.4,0.1-0.5,0.3
				s0.1,0.4,0.3,0.5l0,0c4.2,0.6,7,4.5,6.4,8.7c-0.2,1.1-0.6,2.1-1.2,3c-0.1,0.2-0.1,0.4,0.1,0.6c0.2,0.1,0.4,0.1,0.5-0.1
				c2.6-3.9,1.5-9.1-2.4-11.7c-0.6-0.4-1.2-0.7-1.8-0.9V5.2c0.7,0,1.2-0.5,1.2-1.2s-0.5-1.2-1.2-1.2h-0.4V1.2c0-0.7-0.5-1.2-1.2-1.2
				h-2.4C61.5,0,61,0.5,61,1.2v1.6h-0.4c-0.7,0-1.2,0.5-1.2,1.2s0.5,1.2,1.2,1.2v2.5C57.2,8.9,55,12.1,55,15.8z M60.2,4
				c0-0.2,0.2-0.4,0.4-0.4h5.6c0.2,0,0.4,0.2,0.4,0.4c0,0.2-0.2,0.4-0.4,0.4h-5.6C60.4,4.4,60.2,4.2,60.2,4z"/>
			<path class="st3" d="M57.9,18.9c-0.2,0.1-0.2,0.4-0.1,0.6c1.1,1.6,2.9,2.7,4.9,2.9c0.3,0,0.5,0,0.8,0c1.7,0,3.3-0.6,4.5-1.7
				c2.5-2.2,3-5.9,1.2-8.7c-0.3-0.5-1-0.7-1.6-0.4l-0.2,0.1c-0.7,0.5-1.7,0.5-2.4,0c-1-0.6-2.2-0.6-3.2,0c-0.4,0.2-0.8,0.4-1.2,0.3
				c-0.4,0-0.8-0.1-1.2-0.3l-0.2-0.1c-0.6-0.3-1.3-0.1-1.6,0.4c-0.8,1.3-1.2,2.9-1,4.5c0,0.3,0.1,0.6,0.2,0.9
				c0.1,0.2,0.3,0.3,0.5,0.3c0.2-0.1,0.3-0.3,0.3-0.5c-0.4-1.6-0.1-3.3,0.7-4.7c0.1-0.2,0.3-0.2,0.5-0.1l0.1,0.1
				c0.5,0.3,1,0.5,1.6,0.5s1.1-0.1,1.6-0.5c0.7-0.5,1.7-0.5,2.4,0c1,0.6,2.2,0.6,3.2,0l0.1-0.1c0.2-0.1,0.4,0,0.5,0.1
				c1.8,2.8,0.9,6.5-1.9,8.3c-2.7,1.7-6.3,0.9-8.1-1.7C58.4,18.8,58.1,18.8,57.9,18.9L57.9,18.9z"/>
			<path d="M62.6,13.6c-0.9,0-1.6,0.7-1.6,1.6c0,0.9,0.7,1.6,1.6,1.6s1.6-0.7,1.6-1.6S63.5,13.6,62.6,13.6z M62.6,16
				c-0.4,0-0.8-0.4-0.8-0.8s0.4-0.8,0.8-0.8s0.8,0.4,0.8,0.8S63.1,16,62.6,16z"/>
			<path d="M63.4,18.8c0,0.7,0.5,1.2,1.2,1.2c0.7,0,1.2-0.5,1.2-1.2s-0.5-1.2-1.2-1.2C64,17.6,63.4,18.1,63.4,18.8z M65,18.8
				c0,0.2-0.2,0.4-0.4,0.4s-0.4-0.2-0.4-0.4c0-0.2,0.2-0.4,0.4-0.4C64.9,18.4,65,18.6,65,18.8z"/>
			<path d="M66.7,17.2c0.7,0,1.2-0.5,1.2-1.2s-0.5-1.2-1.2-1.2c-0.7,0-1.2,0.5-1.2,1.2C65.5,16.7,66,17.2,66.7,17.2z M66.7,15.6
				c0.2,0,0.4,0.2,0.4,0.4c0,0.2-0.2,0.4-0.4,0.4c-0.2,0-0.4-0.2-0.4-0.4S66.4,15.6,66.7,15.6z"/>
			<path d="M59.2,13.3c-0.2-0.1-0.4,0-0.5,0.2l0,0c-0.7,1.7-0.5,3.6,0.5,5.1c0.1,0.2,0.4,0.2,0.6,0.1s0.2-0.4,0.1-0.6l0,0
				c-0.4-0.6-0.7-1.3-0.8-2c-0.1-0.8,0-1.6,0.3-2.3C59.5,13.6,59.4,13.4,59.2,13.3z"/>
			<path d="M60.9,19.2c-0.2-0.1-0.4-0.1-0.6,0.1c-0.1,0.2-0.1,0.4,0.1,0.6c0.1,0,0.1,0.1,0.2,0.1c0.2,0.1,0.4,0.1,0.6-0.1
				c0.1-0.2,0.1-0.4-0.1-0.6C61,19.2,60.9,19.2,60.9,19.2z"/>
		</g>
	</g>
	<path d="M61.8,1.2c0-0.2,0.2-0.4,0.4-0.4h2.4C64.8,0.8,65,1,65,1.2v1.6h-3.2V1.2L61.8,1.2z"/>
</g>
<g>
	<path class="st3" d="M87.1,41c-0.3,0.1-0.5,0.3-0.5,0.6v0.2c0.1,0.3,0.3,0.5,0.6,0.5h0.2c0.3-0.1,0.5-0.3,0.5-0.6v-0.2
		c-0.1-0.3-0.3-0.5-0.6-0.5H87.1z M86.6,41.6l0.1,0.1l0.4,0.5l0.1,0.1l0.1-0.1l0.4-0.4l0.1-0.2l-0.1-0.1L87.4,41l-0.2-0.1L87.1,41
		l-0.4,0.4L86.6,41.6z M83.1,42.3L83.1,42.3l0.3,0l0,0l0,0c0.5,0.1,0.7-0.1,0.8-0.5l0.3-1.2v-0.2c0-0.3,0.1-0.6,0.2-1l0.2-1.4l0,0
		l0-0.1v-0.2l0.1-0.2l0,0l0.1-0.6l0,0c0,0,0.1-0.2,0.1-0.4l0.2-1l0,0v-0.2c0-0.1-0.1-0.2-0.2-0.2c-0.1,0-0.2,0-0.4,0h0
		c-0.1,0-0.2,0-0.3,0c0,0-0.1,0-0.2,0c-0.2,0-0.3,0.1-0.4,0.3c-0.1,0.2-0.1,0.6-0.2,1c0,0.1,0,0.2-0.1,0.4c0,0,0,0.3-0.1,0.7
		c-0.1,0.5-0.1,0.8-0.1,0.9l0,0h0l0,0.1l0,0.1c0,0.2-0.1,0.7-0.2,1.4l-0.1,0L83.1,42.3L83.1,42.3z M81.9,35.3L81.9,35.3L81.9,35.3
		L81.9,35.3L81.9,35.3L81.9,35.3z M83.1,42.3l0-2.5l0,0c-0.1-0.7-0.2-1.2-0.2-1.4l0-0.1l0-0.1h0l0,0c0-0.2,0-0.5-0.1-0.9
		c-0.1-0.5-0.1-0.7-0.1-0.7c0-0.1-0.1-0.3-0.1-0.4c-0.1-0.4-0.2-0.7-0.2-1c-0.1-0.2-0.2-0.3-0.4-0.3c-0.1,0-0.2,0-0.2,0
		c0,0-0.1,0-0.3,0h0c-0.2,0-0.4,0-0.4,0c-0.2,0-0.2,0.1-0.2,0.2v0.2l0,0l0.2,1c0,0.2,0.1,0.3,0.1,0.4l0,0l0.1,0.6l0,0l0.1,0.2v0.2
		l0,0.1l0,0l0.2,1.4c0.1,0.4,0.1,0.7,0.2,1v0.2l0.3,1.2c0,0.4,0.3,0.6,0.8,0.5l0,0l0,0H83.1L83.1,42.3L83.1,42.3L83.1,42.3z
		 M76.3,41.8L76.3,41.8L76.3,41.8L76.3,41.8L76.3,41.8z M77.3,41.4L77.3,41.4L77.3,41.4L77.3,41.4L77.3,41.4z M77.4,41.1L77.4,41.1
		L77.4,41.1L77.4,41.1L77.4,41.1L77.4,41.1z M78,38.6L78,38.6L78,38.6L78,38.6L78,38.6L78,38.6z M77.4,38.5L77.4,38.5L77.4,38.5
		L77.4,38.5L77.4,38.5z M77.7,35.9L77.7,35.9L77.7,35.9L77.7,35.9L77.7,35.9z M77.8,35.3L77.8,35.3L77.8,35.3L77.8,35.3L77.8,35.3
		L77.8,35.3z M77.1,35.2L77.1,35.2L77.1,35.2L77.1,35.2L77.1,35.2L77.1,35.2z M76.1,35L76,35.1c-0.1,0-0.1,0.3-0.1,0.8l0,0h0
		c0,0,0,0.3,0,0.8l0,0l0,0c0,0.2,0,0.4,0,0.5l0,0c0,0.2,0,0.4,0,0.6l0,0.1l0,0.1v0.2l0,0.1l0,0l0,0.1l0,0c0,0.1,0,0.2,0,0.2l0,0
		l0,0.5c0,0.1,0,0.2,0,0.2l0,0l0,0l0,0.1v0l0,0h0c0,0.1,0,0.2,0,0.4c0,0.4,0,0.6,0.1,0.7l0,0v0l0,0.1v0.1l0,0h0c0,0,0,0.2,0,0.6
		c0,0.3,0.1,0.5,0.2,0.5s0.3,0,0.3,0h0.1l0.1,0l0,0h0v0l0.1,0l0.1,0l0,0v0l0,0l0.2,0l0.1,0l0,0l0,0l0,0h0l0.1,0l0,0l0.1,0l0,0l0,0
		l0.1,0c0.2,0,0.3,0,0.4,0l0.1,0l0.1,0l0.1,0h0l0.1,0l0,0l0.1,0c0,0,0.1,0,0.2,0l0.1,0l0.1,0l0,0c0.2,0,0.3-0.1,0.3-0.2
		c0.1-0.3,0-0.6-0.1-0.8c0-0.1,0-0.2-0.1-0.2c0-0.1-0.1-0.1-0.3-0.2h-0.1l-0.1,0l0,0c0,0-0.2,0-0.6,0l-0.1,0l-0.5,0
		c-0.1,0-0.2,0-0.4,0s-0.3,0-0.2-0.1l0-0.7l0-0.1c0-0.1,0-0.2,0-0.3h0l0-0.1l0,0v0l0-0.1v0h0c0-0.3,0.1-0.5,0.4-0.5h0.2
		c0,0,0.1,0,0.2,0H78l0.2,0l0,0l0.1,0c0.1,0,0.2,0,0.2,0c0.1,0,0.3-0.1,0.4-0.2c0-0.2,0.1-0.3,0.1-0.3l0-0.1v-0.1
		c0-0.2,0-0.3-0.1-0.4c-0.1-0.2-0.4-0.2-1-0.2l-0.1,0l0,0l-0.1,0l0,0v0l-0.1,0h0v0h-0.1c-0.2,0-0.3,0-0.3-0.1v0h0v-0.1
		c0-0.1,0-0.1-0.1-0.2c0,0,0-0.1,0-0.2v-0.1l0-0.1c0-0.2,0.1-0.3,0.3-0.4l0,0c0.2,0,0.3-0.1,0.3-0.1l0,0l0.2,0l0.6,0l0,0l0,0.1h0
		l0,0l0,0h0l0,0c0.1,0,0.2,0,0.2,0l0.1-0.1l0.1,0l0.1-0.1l0,0h0c0.1,0,0.2-0.1,0.3-0.2l0-0.1c0-0.1,0.1-0.3,0.1-0.4
		c-0.1-0.1-0.1-0.2-0.1-0.3l-0.1-0.1h0v0h0l-0.1-0.1c-0.2,0-0.3,0-0.3-0.1h0l-0.1,0l-0.1,0l0,0l0,0h-0.1l0,0c0,0-0.1,0-0.2,0l0,0
		l-0.1,0l-0.1,0c0,0-0.1,0-0.2,0l0,0l0,0l0,0v0l0,0c-0.1,0-0.2,0-0.3-0.1l0,0l-0.1,0l0,0l0,0l-0.1,0l0,0l-0.1,0h0
		c-0.1,0-0.2,0-0.3,0C76.4,35,76.2,35,76.1,35z M72.8,40.7L72.8,40.7L72.8,40.7L72.8,40.7L72.8,40.7L72.8,40.7z M71,39.7v0.1h0
		L71,39.7L71,39.7z M72,36.8c0-0.1,0.1-0.2,0.2-0.2c0.3,0,0.5,0.1,0.7,0.4c0,0,0.1,0.2,0.2,0.4c0.1,0.3,0.2,0.5,0.2,0.6l0,0l0,0.2
		v0.1l0,0.1l0,0.1v0c0,0.1,0,0.2,0,0.3l0,0l0,0.1l0,0c0,0.4-0.1,0.7-0.1,0.8l0,0.1l0,0c0,0.1-0.1,0.3-0.2,0.6c0,0-0.1,0.1-0.2,0.2
		l0,0h0v0l-0.1,0.1h0l-0.1,0l-0.1,0.1h-0.2h0l0,0l0,0l-0.1,0L72,40.9l0-0.1c0-0.1,0-0.2,0-0.4c0.1-0.5,0.1-0.9,0.1-1.3
		c0,0,0-0.2-0.1-0.6l0,0l0-0.1l0-0.1v0l0-0.1l0,0c0-0.2,0-0.3,0-0.4l0-0.1l0,0v-0.1l0-0.1l0,0c0-0.2,0-0.4,0-0.5l0,0
		C72,36.8,72,36.8,72,36.8z M71.5,35L71.5,35c-0.3,0-0.5,0.1-0.6,0.4c-0.1,0-0.1,0.3-0.2,0.8l0,0l0,0.1v0c0,0.1,0,0.2,0,0.3l0,0.1
		c0,0.1,0,0.2,0,0.3l0,0l0,0.1v0.1l0,0l0,0.1l0,0.1l0,0.2l0,0.2v0.6l0,0.1c0,0,0,0.1,0,0.2l0,0h0c0,0.2,0,0.3,0,0.5l0,0l0,0.1v0
		l0,0.1l0,0l0,0.2v0l0,0.1l0,0v0l0,0l0,0.1l0,0l0,0l0,0.1l0,0.1l0,0.1l0,0.1l0,0.1l0,0c0,0.2,0,0.4,0,0.6c0,0,0,0.1,0,0.2
		c0,0.2,0,0.3,0,0.3l0,0.1l0,0c0,0.2,0,0.3,0.1,0.4l0,0c0.1,0.1,0.1,0.1,0.2,0.1l0.1,0l0.2,0.1l0,0l0.3,0l0,0l0.1,0l0,0l0,0h0l0.1,0
		l0.1,0h0c0.2,0,0.3,0,0.3,0c0.4-0.1,0.6-0.1,0.6-0.1l0.1,0h0c0.2,0,0.4-0.2,0.6-0.5c0.2-0.2,0.3-0.3,0.3-0.4
		c0.1-0.1,0.1-0.2,0.1-0.3c0.2-0.5,0.4-0.8,0.4-1l0,0l0,0v-0.2l0-0.1l0,0v0c0-0.2,0-0.3,0-0.3V39l0.1-0.2l-0.1-0.2l0,0l0-0.1v-0.1
		c0-0.2,0-0.3,0-0.3h0l0-0.1l0-0.1l0-0.2c-0.1-0.3-0.1-0.6-0.2-0.7c0-0.1-0.1-0.2-0.1-0.2l0-0.1l0,0c-0.1-0.4-0.1-0.6-0.2-0.6
		c0-0.1-0.1-0.3-0.3-0.5c-0.4-0.4-0.9-0.7-1.6-0.7H72l0,0l0,0h-0.3L71.5,35L71.5,35z M63.6,35.6L63.6,35.6L63.6,35.6L63.6,35.6
		L63.6,35.6z M63,36.2L63,36.2L63,36.2z M65.8,38.6L65.8,38.6l-0.2,0l0,0l0,0l-0.1,0l0,0l-0.1,0l0,0l-0.1,0l-0.2,0.1
		c-0.1,0.1-0.1,0.3,0,0.6h0c0.1,0.1,0.1,0.2,0.2,0.2c0,0,0.3,0.1,0.8,0.1c0.1,0,0.1,0.3,0,0.8l0,0.1l0,0h0c0,0.1,0,0.2-0.1,0.3
		c0,0.1-0.2,0.1-0.5,0.1L65.2,41c-0.2,0-0.4-0.1-0.5-0.3c-0.1,0-0.1-0.2-0.2-0.5l0,0c0-0.1,0-0.1,0-0.2h0l0-0.1c0-0.2,0-0.3,0-0.3
		l0,0v0l0,0l0,0l0-0.1l0,0l0-0.1l0,0l0,0l0,0l0-0.1c0-0.2,0-0.3,0-0.3v0l0,0l0,0l0-0.5l0,0l0,0l0-0.3l0,0l0,0l0-0.1l0-0.1l0,0
		c0-0.2,0-0.3,0-0.3c0-0.2,0.1-0.5,0.2-0.8c0.1-0.1,0.3-0.3,0.6-0.6c0.1,0,0.2,0,0.3,0.1c0.1,0,0.2,0.1,0.3,0.4
		c0.1,0.1,0.1,0.3,0.1,0.6l0,0l0,0.2l0,0.1c0,0,0,0.1,0.1,0.2c0,0,0.1,0,0.4,0.1c0.2,0,0.3-0.1,0.4-0.2c0.1-0.1,0.1-0.2,0.1-0.2l0,0
		h0l0,0h0l0,0v0l0,0c0,0,0-0.1,0-0.2l0,0l0-0.1l0-0.1l0-0.1l0,0l0,0l0-0.1l0,0c0-0.2-0.1-0.4-0.2-0.7c0-0.1-0.1-0.2-0.1-0.2
		c-0.1-0.2-0.2-0.3-0.5-0.4c-0.1,0-0.2-0.1-0.2-0.1c-0.1-0.1-0.4-0.1-0.8-0.1c0,0-0.1,0-0.3,0.1c-0.2,0.1-0.4,0.2-0.6,0.2l-0.3,0.1
		L64,35.6l-0.4,0.6l0,0.1l-0.1,0.2l0,0c-0.1,0.1-0.1,0.3-0.2,0.5l0,0c0,0.1-0.1,0.2-0.1,0.3l0,0l0,0.2l0,0.1l0,0l0,0.1l0,0.1
		c0,0.1,0,0.2-0.1,0.4l0,0.1l0,0l0,0.1l0,0c0,0,0,0.2,0,0.4l0,0l0,0l0,0.2l0,0.1l0,0.1l0,0.1l0,0l0,0.1l0,0.1l0,0.1l0,0.1l0,0l0,0
		v0.2l0,0.1l0,0l0,0c0,0.4,0,0.6,0.1,0.6c0,0.1,0,0.1,0,0.1c0,0,0,0.1,0.1,0.2l0,0.1c0,0,0,0.1,0.1,0.2c0,0.2,0.2,0.4,0.4,0.5
		c0.2,0.2,0.5,0.3,0.9,0.4l0.1,0h0c0,0,0.2,0,0.4,0l0.1,0l0.1,0c0.2,0,0.3,0,0.3-0.1c0.3-0.1,0.5-0.1,0.5-0.2c0.1,0,0.1-0.1,0.2-0.2
		c0.1-0.2,0.2-0.3,0.2-0.3c0,0,0.1-0.2,0.2-0.3l0,0L67,41l0,0l0,0l0-0.1c0-0.1,0-0.2,0.1-0.3l0-0.1l0-0.1v0l0,0l0-0.1l0,0l0-0.1
		l0-0.2l0-0.1l0,0l0,0l0-0.1l0-0.1l0,0l0,0l0,0c0,0,0-0.1,0-0.2l0-0.1l0,0l0-0.1l0-0.1l0,0l0-0.1l0-0.1l0,0v0l0,0l0-0.1l0,0l0,0
		c0-0.1-0.1-0.2-0.4-0.2l0,0l-0.2,0h0l0,0l0,0h0l0,0l-0.1,0L65.8,38.6L65.8,38.6L65.8,38.6L65.8,38.6z M58.2,41.9L58.2,41.9
		L58.2,41.9L58.2,41.9L58.2,41.9z M57.9,35c-0.2,0-0.3,0.3-0.3,0.8l0,0.1l0,0l0,0.1l0,0.5l0,0.6l0,0.1l0,0.1c0,0.4,0,0.7,0,0.9l0,0
		l0,0v0.1l0,0c0,0,0,0.1-0.1,0.2l0,0l0,0.1l0,0.2V39l0,0.1l0,0l0,0.1v0.2c0,0.2,0,0.4,0,0.6l0,0h0l0,0.1v0l0,0.1l0,0l0,0.1l0,0
		l0,0.1l0,0.4c0,0.1,0,0.2,0,0.2c0,0.6,0.1,0.9,0.2,0.9c0,0.1,0.1,0.1,0.4,0.2l0.1,0l0.1,0c0.3-0.1,0.5-0.1,0.6-0.2l0-0.1l0.1-0.1v0
		h0l0-0.3l0,0l0-0.1c0-0.3,0-0.5-0.1-0.5h0c0-0.2,0-0.3,0-0.4l0-0.1l0-0.1l0-0.1l0-0.1V40l0-0.2l0-0.2v-0.1l0-0.2
		c0-0.1,0-0.2,0.1-0.2h0c0.1,0.3,0.2,0.5,0.3,0.8c0.3,0.5,0.6,1,0.8,1.6c0.3,0.3,0.5,0.6,0.7,0.6c0.2,0,0.3,0.1,0.4,0.1h0l0,0v0
		l0.1,0l0.2,0l0.1,0l0,0l0.1-0.1c0.1-0.1,0.2-0.2,0.3-0.3v-0.1l0-0.1l0,0c0-0.1,0-0.2,0-0.3V41l0,0l0-0.1l0,0l0-0.3l0-0.1l0-0.1
		c0-0.1,0-0.2,0-0.2v-0.3l0,0c0,0,0.1-0.1,0.1-0.3l0-0.2l0-0.1l0-0.1l0,0c0,0,0-0.2,0-0.5l0,0h0l0-0.1v-0.2c0-0.1,0-0.1,0-0.2l0-0.1
		l0-0.1l0-0.1l0-0.1v-0.3l0,0h0l0-0.4l0,0l0-0.1v-0.1l0-0.2c0,0,0-0.1-0.1-0.2l0-0.4l0-0.1l0-0.2v-0.1l0-0.1l0,0l0,0l0-0.1l0-0.2
		c0-0.1-0.1-0.2-0.4-0.2h0l-0.2,0.1l-0.2,0h0l0,0v0c-0.2,0-0.2,0.1-0.2,0.1c-0.1,0-0.2,0.2-0.2,0.7c0,0.5,0,0.7,0.1,0.7
		c0,1,0.1,1.6,0.1,1.6h0l0,0.1l0,0.2c0,0.1,0,0.2,0,0.3v0.5l0,0.1l0,0.1v0.1l0,0.2h0c0,0,0-0.1-0.1-0.2c-0.2-0.7-0.3-1.3-0.5-1.5
		c-0.3-0.8-0.5-1.4-0.7-1.8c0-0.1-0.2-0.4-0.5-1c-0.2-0.1-0.4-0.2-0.7-0.2C58.1,34.9,57.9,35,57.9,35z M56.5,40.6L56.5,40.6
		L56.5,40.6L56.5,40.6L56.5,40.6z M55.2,35.2l-0.1,0.2l0,0c0,0,0,0.1,0,0.2l0,0.2v0.2h0v0h0v0c0,0.1,0,0.2,0,0.4l0,0.1
		c0,0,0,0.1,0,0.3l0.1,0.1c0,0,0,0.1,0,0.4l0,0.1l0,0.1l0,0l0,0.1h0v0.1l0,0.1l0,0.1l0,0l0,0.1l0,0l0,0.6l0,0l0,0.1v0l0,0
		c0,0,0,0.1,0,0.2l0,0.1l0,0.1l0,0.1c0,0.2-0.1,0.3-0.1,0.3l0.1,0.2l0,0.1l0,0.1l0,0.1l0,0l0,0.1v0.1l0,0.2l0,0.1c0,0.1,0,0.2,0,0.2
		l0,0l0,0.1l0,0.1v0l0,0l0,0.1l0,0.2l0,0.2l0,0.1l0,0.1l0,0h0c0,0.3,0,0.5,0.1,0.7l0,0l0.2,0l0.2,0l0.2,0l0,0l0.1,0h0v0l0.2,0
		c0.1,0,0.2,0,0.3,0l0,0l0,0h0c0,0,0.1-0.1,0.1-0.2l0-0.1c0,0,0-0.2,0-0.5l0,0c0,0,0-0.1,0-0.3l0,0c0-0.1,0-0.2,0-0.3l0,0v0l0,0
		l0-0.4l0,0l0,0l0-0.1c0,0,0-0.2,0-0.4l0-0.2l0-0.1l0-0.1l0-0.2l0-0.1l0,0l0,0l0-0.1l0-0.1l0,0c0,0,0-0.1,0-0.2l0,0h0l0-0.1l0-0.1
		l0-0.1l0-0.1v0l0,0h0l0-0.1l0-0.1l0-0.2l0,0l0-0.2l0,0l0,0l0-0.1l0,0h0l0-0.1l0-0.1l0-0.2l0,0c0.1,0,0.1-0.3,0-0.8l0,0l0,0l0-0.1
		l0,0h0c0-0.3,0-0.5,0-0.5l0,0c0,0,0-0.1,0-0.2l0-0.1c0-0.2,0-0.3-0.2-0.5l-0.2-0.1c-0.2,0-0.3,0-0.4,0h0
		C55.4,35,55.3,35.1,55.2,35.2z M51.5,36.5c0.1-0.1,0.3-0.2,0.5-0.2h0.1l0.1,0l0,0l0,0c0.2,0,0.3,0.1,0.5,0.3l0,0
		c0.1,0.2,0.1,0.4,0.1,0.5l0,0l0,0.1l0,0v0l0,0h0c0,0.2,0,0.3,0,0.3l0,0v0l0,0.1l0,0.1v0.1l0,0.1l0,0l0,0l0,0.2v0.1l0,0l0,0l0,0
		c0,0,0,0.1,0,0.2l0,0h0l0,0.3l0,0l0,0l0,0.1l0,0l0,0.5l0,0l0,0l0,0h0c0,0.4-0.1,0.7-0.1,0.7c-0.1,0.3-0.3,0.5-0.7,0.5
		c-0.2-0.1-0.4-0.2-0.5-0.4c-0.1-0.4-0.2-0.7-0.2-1.1l0,0l0-0.1h0c0-0.1,0-0.2-0.1-0.4l0,0c0-0.2,0-0.4,0-0.5l0-0.1l0-0.1v-0.1
		l0-0.1l0,0l0,0v0l0-0.1c0,0,0-0.1,0-0.3l0-0.1c0-0.3,0.1-0.5,0.1-0.5l0,0C51.3,36.8,51.4,36.6,51.5,36.5z M51.3,35.1L51.3,35.1
		L51.3,35.1c-0.1,0-0.3,0.1-0.5,0.2c-0.2,0.1-0.3,0.2-0.3,0.3c-0.1,0.3-0.2,0.6-0.3,0.9v0.1l0,0.1l0,0l0,0l0,0.1l0,0.1
		c0,0.1-0.1,0.3-0.1,0.6l0,0.1l0,0l0,0h0c0,0.1,0,0.2,0,0.3v0.5c0,0.1,0,0.3,0,0.5l0,0.1l0,0l0,0l0,0.1c0,0.1,0,0.2,0,0.3
		c0,0.1,0,0.2,0,0.3l0,0c0,0.2,0.1,0.4,0.1,0.6v0.1c0.1,0.1,0.1,0.3,0.1,0.4c0.1,0.6,0.2,0.9,0.2,0.9c0.1,0.1,0.1,0.2,0.2,0.3
		c0.5,0.3,0.9,0.4,1.4,0.4l0,0c0.2,0,0.3,0,0.4,0h0c0.3,0,0.4-0.1,0.5-0.1c0.2,0,0.5-0.2,0.8-0.6c0.1-0.1,0.2-0.4,0.3-0.8l0,0l0,0
		c0-0.1,0-0.3,0-0.6l0-0.1c0,0,0-0.1,0-0.2l0-0.2c0-0.1,0-0.3,0-0.6c0-0.2,0-0.5-0.1-1.1c0-0.1,0-0.2,0-0.3c0,0,0-0.1,0-0.2l0,0
		l0-0.1v0c0-0.3,0-0.5-0.1-0.5h0c0-0.1,0-0.2-0.1-0.4c0-0.3-0.1-0.6-0.4-1c-0.1-0.1-0.4-0.3-0.6-0.4L52.1,35
		C51.7,35,51.4,35,51.3,35.1z M45.6,35.6L45.6,35.6L45.6,35.6L45.6,35.6L45.6,35.6z M45,36.2L45,36.2L45,36.2z M47.8,38.6L47.8,38.6
		l-0.2,0l0,0l0,0l-0.1,0l0,0l-0.1,0l0,0l-0.1,0l-0.2,0.1c-0.1,0.1-0.1,0.3,0,0.6h0c0.1,0.1,0.1,0.2,0.2,0.2c0,0,0.3,0.1,0.8,0.1
		c0.1,0,0.1,0.3,0,0.8l0,0.1l0,0h0c0,0.1,0,0.2-0.1,0.3c0,0.1-0.2,0.1-0.5,0.1L47.2,41c-0.2,0-0.4-0.1-0.5-0.3
		c-0.1,0-0.1-0.2-0.2-0.5l0,0c0-0.1,0-0.1,0-0.2h0l0-0.1c0-0.2,0-0.3,0-0.3l0,0v0l0,0l0,0l0-0.1l0,0l0-0.1l0,0l0,0l0,0l0-0.1
		c0-0.2,0-0.3,0-0.3v0l0,0l0,0l0-0.5l0,0l0,0l0-0.3l0,0l0,0l0-0.1l0-0.1l0,0c0-0.2,0-0.3,0-0.3c0-0.2,0.1-0.5,0.2-0.8
		c0.1-0.1,0.3-0.3,0.6-0.6c0.1,0,0.2,0,0.3,0.1c0.1,0,0.2,0.1,0.3,0.4c0.1,0.1,0.1,0.3,0.1,0.6l0,0l0,0.2l0,0.1c0,0,0,0.1,0.1,0.2
		c0,0,0.1,0,0.4,0.1c0.2,0,0.3-0.1,0.4-0.2c0.1-0.1,0.1-0.2,0.1-0.2l0,0h0l0,0h0l0,0v0l0,0c0,0,0-0.1,0-0.2l0,0l0-0.1l0-0.1l0-0.1
		l0,0l0,0l0-0.1l0,0c0-0.2-0.1-0.4-0.2-0.7c0-0.1-0.1-0.2-0.1-0.2c-0.1-0.2-0.2-0.3-0.5-0.4c-0.1,0-0.2-0.1-0.2-0.1
		c-0.1-0.1-0.4-0.1-0.8-0.1c0,0-0.1,0-0.3,0.1c-0.2,0.1-0.4,0.2-0.6,0.2l-0.3,0.1l-0.1,0.1l-0.4,0.6l0,0.1l-0.1,0.2l0,0
		c-0.1,0.1-0.1,0.3-0.2,0.5l0,0c0,0.1-0.1,0.2-0.1,0.3l0,0l0,0.2l0,0.1l0,0l0,0.1l0,0.1c0,0.1,0,0.2-0.1,0.4l0,0.1l0,0l0,0.1l0,0
		c0,0,0,0.2,0,0.4l0,0l0,0l0,0.2l0,0.1l0,0.1l0,0.1l0,0l0,0.1l0,0.1l0,0.1l0,0.1l0,0l0,0v0.2l0,0.1l0,0l0,0c0,0.4,0,0.6,0.1,0.6
		c0,0.1,0,0.1,0,0.1c0,0,0,0.1,0.1,0.2l0,0.1c0,0,0,0.1,0.1,0.2c0,0.2,0.2,0.4,0.4,0.5c0.2,0.2,0.5,0.3,0.9,0.4l0.1,0h0
		c0,0,0.2,0,0.4,0l0.1,0l0.1,0c0.2,0,0.3,0,0.3-0.1c0.3-0.1,0.5-0.1,0.5-0.2c0.1,0,0.1-0.1,0.2-0.2c0.1-0.2,0.2-0.3,0.2-0.3
		c0,0,0.1-0.2,0.2-0.3l0,0L49,41l0,0l0,0l0-0.1c0-0.1,0-0.2,0.1-0.3l0-0.1l0-0.1v0l0,0l0-0.1l0,0l0-0.1l0-0.2l0-0.1l0,0l0,0l0-0.1
		l0-0.1l0,0l0,0l0,0c0,0,0-0.1,0-0.2l0-0.1l0,0l0-0.1l0-0.1l0,0l0-0.1l0-0.1l0,0v0l0,0l0-0.1l0,0l0,0c0-0.1-0.1-0.2-0.4-0.2l0,0
		l-0.2,0h0l0,0l0,0h0l0,0l-0.1,0L47.8,38.6L47.8,38.6L47.8,38.6L47.8,38.6z M40.1,41.9L40.1,41.9L40.1,41.9L40.1,41.9L40.1,41.9z
		 M39.9,35c-0.2,0-0.3,0.3-0.3,0.8l0,0.1l0,0l0,0.1l0,0.5l0,0.6l0,0.1l0,0.1c0,0.4,0,0.7,0,0.9l0,0l0,0v0.1l0,0c0,0,0,0.1-0.1,0.2
		l0,0l0,0.1l0,0.2V39l0,0.1l0,0l0,0.1v0.2c0,0.2,0,0.4,0,0.6l0,0h0l0,0.1v0l0,0.1l0,0l0,0.1l0,0l0,0.1l0,0.4c0,0.1,0,0.2,0,0.2
		c0,0.6,0.1,0.9,0.2,0.9c0,0.1,0.1,0.1,0.4,0.2l0.1,0l0.1,0c0.3-0.1,0.5-0.1,0.6-0.2l0-0.1l0.1-0.1v0h0l0-0.3l0,0l0-0.1
		c0-0.3,0-0.5-0.1-0.5h0c0-0.2,0-0.3,0-0.4l0-0.1l0-0.1l0-0.1l0-0.1V40l0-0.2l0-0.2v-0.1l0-0.2c0-0.1,0-0.2,0.1-0.2h0
		c0.1,0.3,0.2,0.5,0.3,0.8c0.3,0.5,0.6,1,0.8,1.6c0.3,0.3,0.5,0.6,0.7,0.6c0.2,0,0.3,0.1,0.4,0.1h0l0,0v0l0.1,0l0.2,0l0.1,0l0,0
		l0.1-0.1c0.1-0.1,0.2-0.2,0.3-0.3v-0.1l0-0.1l0,0c0-0.1,0-0.2,0-0.3V41l0,0l0-0.1l0,0l0-0.3l0-0.1l0-0.1c0-0.1,0-0.2,0-0.2v-0.3
		l0,0c0,0,0.1-0.1,0.1-0.3l0-0.2l0-0.1l0-0.1l0,0c0,0,0-0.2,0-0.5l0,0h0l0-0.1v-0.2c0-0.1,0-0.1,0-0.2l0-0.1l0-0.1l0-0.1l0-0.1v-0.3
		l0,0h0l0-0.4l0,0l0-0.1v-0.1l0-0.2c0,0,0-0.1-0.1-0.2l0-0.4l0-0.1l0-0.2v-0.1l0-0.1l0,0l0,0l0-0.1l0-0.2c0-0.1-0.1-0.2-0.4-0.2h0
		l-0.2,0.1l-0.2,0h0l0,0v0c-0.2,0-0.2,0.1-0.2,0.1c-0.1,0-0.2,0.2-0.2,0.7c0,0.5,0,0.7,0.1,0.7c0,1,0.1,1.6,0.1,1.6h0l0,0.1l0,0.2
		c0,0.1,0,0.2,0,0.3v0.5l0,0.1l0,0.1v0.1l0,0.2h0c0,0,0-0.1-0.1-0.2c-0.2-0.7-0.3-1.3-0.5-1.5c-0.3-0.8-0.5-1.4-0.7-1.8
		c0-0.1-0.2-0.4-0.5-1c-0.2-0.1-0.4-0.2-0.7-0.2C40.1,34.9,39.9,35,39.9,35z M35.8,36.5c0.1-0.1,0.3-0.2,0.5-0.2h0.1l0.1,0l0,0l0,0
		c0.2,0,0.3,0.1,0.5,0.3l0,0c0.1,0.2,0.1,0.4,0.1,0.5l0,0l0,0.1l0,0v0l0,0h0c0,0.2,0,0.3,0,0.3l0,0v0l0,0.1l0,0.1v0.1l0,0.1l0,0l0,0
		l0,0.2v0.1l0,0l0,0l0,0c0,0,0,0.1,0,0.2l0,0h0l0,0.3l0,0l0,0l0,0.1l0,0l0,0.5l0,0l0,0l0,0h0c0,0.4-0.1,0.7-0.1,0.7
		c-0.1,0.3-0.3,0.5-0.7,0.5c-0.2-0.1-0.4-0.2-0.5-0.4c-0.1-0.4-0.2-0.7-0.2-1.1l0,0l0-0.1h0c0-0.1,0-0.2-0.1-0.4l0,0
		c0-0.2,0-0.4,0-0.5l0-0.1l0-0.1v-0.1l0-0.1l0,0l0,0v0l0-0.1c0,0,0-0.1,0-0.3l0-0.1c0-0.3,0.1-0.5,0.1-0.5l0,0
		C35.6,36.8,35.7,36.6,35.8,36.5z M35.6,35.1L35.6,35.1L35.6,35.1c-0.1,0-0.3,0.1-0.5,0.2c-0.2,0.1-0.3,0.2-0.3,0.3
		c-0.1,0.3-0.2,0.6-0.3,0.9v0.1l0,0.1l0,0l0,0l0,0.1l0,0.1c0,0.1-0.1,0.3-0.1,0.6l0,0.1l0,0l0,0h0c0,0.1,0,0.2,0,0.3v0.5
		c0,0.1,0,0.3,0,0.5l0,0.1l0,0l0,0l0,0.1c0,0.1,0,0.2,0,0.3c0,0.1,0,0.2,0,0.3l0,0c0,0.2,0.1,0.4,0.1,0.6v0.1
		c0.1,0.1,0.1,0.3,0.1,0.4c0.1,0.6,0.2,0.9,0.2,0.9c0.1,0.1,0.1,0.2,0.2,0.3c0.5,0.3,0.9,0.4,1.4,0.4l0,0c0.2,0,0.3,0,0.4,0h0
		c0.3,0,0.4-0.1,0.5-0.1c0.2,0,0.5-0.2,0.8-0.6c0.1-0.1,0.2-0.4,0.3-0.8l0,0l0,0c0-0.1,0-0.3,0-0.6l0-0.1c0,0,0-0.1,0-0.2l0-0.2
		c0-0.1,0-0.3,0-0.6c0-0.2,0-0.5-0.1-1.1c0-0.1,0-0.2,0-0.3c0,0,0-0.1,0-0.2l0,0l0-0.1v0c0-0.3,0-0.5-0.1-0.5h0c0-0.1,0-0.2-0.1-0.4
		c0-0.3-0.1-0.6-0.4-1c-0.1-0.1-0.4-0.3-0.6-0.4L36.4,35C36,35,35.7,35,35.6,35.1z"/>
</g>
<g>
	<path class="st3" d="M44.3,12.4L44.3,12.4L44.3,12.4L44.3,12.4L44.3,12.4z M43.5,13.3L43.5,13.3L43.5,13.3z M47.4,16.8L47.4,16.8
		c-0.1,0-0.2,0.1-0.3,0.1l-0.1,0l0,0c0,0-0.1,0-0.2,0l0,0l-0.2,0l0,0l-0.2,0l-0.2,0.1c-0.1,0.2-0.1,0.5,0,0.9h0
		c0.1,0.1,0.2,0.2,0.2,0.3c0.1,0,0.5,0.1,1.2,0.1c0.1,0,0.1,0.4,0,1.2l0,0.1l0,0h0c0,0.2-0.1,0.3-0.2,0.4c0,0.1-0.2,0.1-0.7,0.2
		c-0.1,0-0.2-0.1-0.2-0.1c-0.3,0-0.6-0.1-0.7-0.4c-0.1,0-0.2-0.2-0.2-0.6l0,0c0-0.1-0.1-0.2-0.1-0.2h0l-0.1-0.1c0-0.3,0-0.4,0-0.5
		l0,0v0l0,0l0,0l0-0.2l0.1,0l-0.1-0.1l0,0l0,0l-0.1,0l0-0.1c0-0.2,0-0.4,0-0.4v0l0,0l0,0l0-0.7l-0.1-0.1l0,0l0-0.4l0,0l0,0l0-0.1
		l0-0.2l0,0c0-0.2,0-0.4,0-0.4c0-0.3,0.1-0.7,0.2-1.2c0.1-0.2,0.4-0.5,0.8-0.8c0.1,0,0.2,0,0.4,0.1c0.1,0,0.2,0.2,0.5,0.5
		c0.1,0.1,0.1,0.4,0.1,0.8l0,0c0,0.1,0,0.1,0,0.2l0,0.1c0,0,0.1,0.1,0.2,0.3c0,0,0.2,0.1,0.6,0.1c0.3,0,0.4-0.1,0.5-0.3
		C49,15.1,49,15,49,14.9l0,0h0l0-0.1h0l0-0.1v0l0,0c0,0,0.1-0.1,0.1-0.4l0-0.1l0-0.1l0-0.1l0-0.1l0,0l0,0c0-0.1,0-0.2-0.1-0.2l0,0
		c0-0.2-0.1-0.6-0.3-1c0-0.2-0.1-0.2-0.1-0.2c-0.1-0.3-0.3-0.4-0.6-0.6c-0.2,0-0.2-0.1-0.2-0.1c-0.2-0.1-0.5-0.1-1.1-0.1
		c0,0-0.2,0-0.5,0.1c-0.3,0.1-0.5,0.2-0.8,0.3l-0.4,0.2l-0.2,0.1l-0.5,0.8l0,0.1c-0.1,0.1-0.1,0.2-0.2,0.3l0,0
		c-0.1,0.2-0.2,0.5-0.2,0.7l0,0c0,0.1-0.1,0.3-0.1,0.5l0,0c0,0.1,0,0.1-0.1,0.2l0,0.2l0,0.1l0,0.2l0,0.1c0,0.1-0.1,0.3-0.1,0.6
		l0,0.2l0,0l0,0.1l0,0c0,0.1,0,0.2,0,0.5l0,0l0,0l0,0.3l0,0.1l0.1,0.1l0,0.1l0.1,0l0,0.1l0,0.2l0,0.2l0,0.1l0,0.1l0,0
		c0,0.1,0,0.2,0,0.3l0,0.1l0,0l0,0c0,0.5,0.1,0.8,0.1,0.8c0,0.1,0,0.2-0.1,0.2c0,0,0,0.1,0.1,0.3l0,0.2c0,0,0,0.1,0.1,0.3
		c0.1,0.3,0.3,0.5,0.6,0.7c0.3,0.3,0.7,0.5,1.3,0.5l0.1,0h0c0.1,0,0.3,0,0.6,0l0.1,0l0.2,0c0.3,0,0.4,0,0.4-0.1
		c0.4-0.1,0.6-0.2,0.8-0.2c0.1,0,0.2-0.1,0.3-0.3c0.2-0.2,0.3-0.4,0.3-0.4c0.1-0.1,0.1-0.2,0.2-0.5l-0.1,0l0.1-0.1l0-0.1l0.1,0
		l0-0.1c0-0.1,0-0.3,0.1-0.4l0-0.1l0.1-0.1v0l0,0l0-0.1l0,0l0-0.1l0-0.3l0-0.2l-0.1-0.1l0,0l-0.1-0.1l0-0.1l0,0l0,0l0-0.1
		c0,0,0-0.1,0-0.3l0-0.1l0-0.1l0-0.1l0-0.1l0,0l0-0.1l0-0.1l0-0.1v0l0,0l0-0.1l0,0l0,0c0-0.1-0.2-0.2-0.5-0.3l0,0
		c-0.1,0-0.2,0-0.3,0h0l0,0l0,0h0l0,0l-0.1,0L47.4,16.8L47.4,16.8L47.4,16.8L47.4,16.8z M36.5,21.4L36.5,21.4L36.5,21.4L36.5,21.4
		L36.5,21.4z M36.2,11.6c-0.2,0-0.4,0.4-0.4,1.1l0,0.1l0,0.1l0,0.1l-0.1,0.7l0.1,0.8c0,0,0,0-0.1,0.1l0,0.1c0,0.6-0.1,1-0.1,1.3
		l0,0.1l0,0v0.2l0,0.1c0,0,0,0.1-0.1,0.2l0,0.1l0,0.1c0,0.1,0,0.2,0,0.2v0.2l0,0.1l0,0l0,0.1v0.3c0,0.4,0,0.6-0.1,0.8l0,0h0l0,0.2v0
		l0,0.1l0,0l0,0.1l0,0.1c0,0.1-0.1,0.2-0.1,0.2l0.1,0.6c0,0.2,0,0.2,0,0.3c0,0.8,0.1,1.3,0.3,1.3c0,0.1,0.2,0.2,0.5,0.2l0.1,0l0.1,0
		c0.5-0.1,0.8-0.2,0.9-0.3l0-0.1c0.1-0.1,0.1-0.2,0.1-0.2v0.1h0.1l0.1-0.4l0-0.1c0,0,0-0.1,0-0.2c0-0.4,0-0.7-0.1-0.8h0
		c0-0.3,0-0.4,0-0.5l0-0.1c0,0,0-0.1-0.1-0.2l0.1-0.1l0-0.2v-0.2c0-0.1,0-0.2,0-0.3c0-0.1,0-0.2,0-0.3V18c0-0.1,0-0.2,0-0.3
		c0-0.2,0.1-0.2,0.1-0.2h0c0.2,0.4,0.3,0.8,0.5,1.1c0.4,0.7,0.8,1.4,1.2,2.3c0.4,0.5,0.8,0.8,1,0.9c0.3,0.1,0.5,0.1,0.5,0.1h0.1
		l0.1,0v0l0.1,0l0.3,0.1l0.1,0l0,0l0.1-0.1c0.2-0.1,0.3-0.2,0.4-0.4v-0.1l0-0.1l0-0.1c0-0.2,0-0.3,0-0.4v-0.6L42,20l0.1-0.1l0-0.1
		l0.1-0.4l0-0.1l0-0.1c0-0.1-0.1-0.2-0.1-0.3v-0.4l0-0.1c0.1,0,0.1-0.1,0.1-0.4l0-0.3l0.1-0.1l0-0.1l0-0.1c0,0,0-0.3,0-0.7l0-0.1h0
		l0-0.1v-0.3c0-0.1,0-0.2,0.1-0.3l-0.1-0.2c0,0,0-0.1,0-0.2l0-0.1l0-0.1v-0.4l0-0.1h0L42,14.5l0,0l0-0.2v-0.1l0-0.3
		c0,0-0.1-0.1-0.1-0.2l0.1-0.6L42,13c0-0.1,0-0.2,0-0.2v-0.2l0-0.2l0,0l0-0.1l0-0.1C42,12.1,42,12,42,12c0-0.2-0.2-0.3-0.5-0.3h-0.1
		c-0.1,0-0.2,0-0.3,0.1c-0.1,0-0.2-0.1-0.3-0.1h0l-0.1,0v0c-0.2,0-0.3,0.1-0.3,0.1c-0.2,0-0.3,0.4-0.3,1.1c0,0.7,0.1,1,0.1,1
		c0.1,1.5,0.1,2.2,0.1,2.2h0l0,0.1l0,0.2c0,0.1,0.1,0.3,0.1,0.5v0.7l0,0.1l0,0.1V18l0,0.3h0c0,0-0.1-0.1-0.1-0.3
		c-0.2-1.1-0.5-1.8-0.7-2.2c-0.4-1.1-0.7-1.9-1-2.5c0-0.1-0.3-0.6-0.7-1.5c-0.3-0.2-0.6-0.3-0.9-0.3C36.4,11.5,36.2,11.5,36.2,11.6z
		 M34.2,19.5L34.2,19.5L34.2,19.5L34.2,19.5L34.2,19.5z M32.4,11.9c0,0.1-0.1,0.2-0.1,0.3l0,0c0,0,0,0.2,0,0.4l0,0.3
		c0,0.1,0,0.2,0,0.3h0.1v0h-0.1v0c0,0.1,0,0.4,0,0.6l0,0.1c0,0,0,0.1-0.1,0.4l0.1,0.1c0,0,0,0.2,0,0.6l0,0.1c0,0,0,0.1,0,0.2l0,0.1
		l0,0.1h0v0.1l0,0.1l0,0.1l0,0.1l0,0.1l0,0l0,0.9l0.1,0.1L32.3,17v0l0,0.1c0,0,0,0.1,0,0.2l0,0.2l0,0.1l0,0.1c0,0.2-0.1,0.4-0.2,0.4
		c0,0.1,0.1,0.2,0.1,0.3l0,0.1l0,0.1c0,0.1,0,0.2,0,0.2l0,0.1l0,0.1V19l0,0.2l0,0.1c0,0.2,0,0.3,0.1,0.3l0,0.1l0,0.1l0,0.1v0l0,0.1
		l0,0.1l0,0.2l0,0.2l0,0.1l0,0.1l0,0.1h0c0,0.4,0,0.7,0.1,0.9l0,0.1c0,0,0.1,0,0.2,0s0.2,0,0.3,0l0.3,0l0.1,0l0.1-0.1h0v0.1l0.2,0
		c0.1,0,0.3,0,0.4,0l0,0l0,0h0c0.1,0,0.1-0.1,0.2-0.3l0-0.1c0,0,0-0.3,0-0.8l0-0.1c0-0.1,0-0.2,0.1-0.4l0,0c0-0.1,0-0.2,0-0.4l0,0v0
		l0,0l0-0.5l0,0l0.1-0.1l0-0.1c0,0,0-0.2,0-0.6l0-0.3l0-0.1l0-0.1l0-0.3l0-0.1l0,0l0,0l0-0.1l0-0.2l0-0.1c0,0,0-0.1,0-0.2l0,0h0
		l0-0.1l0-0.1l0-0.1l0-0.1v0l0-0.1h0l0-0.1l0-0.1c0-0.1,0-0.2,0-0.3l0-0.1l0-0.2l0,0l0,0l0-0.2l0-0.1h0l0-0.1l0-0.1l0-0.3L34.1,15
		c0.1,0,0.1-0.4,0-1.1l0,0l0,0l0-0.1l0-0.1h0c0-0.4,0-0.7-0.1-0.8l0-0.1c0,0,0-0.1,0-0.3l0-0.1c0-0.3-0.1-0.5-0.2-0.7l-0.3-0.2
		c-0.2,0-0.4,0-0.6,0h0C32.6,11.6,32.5,11.7,32.4,11.9z M30.2,21l0,0.1v0.1h0.1L30.2,21L30.2,21z M30.2,20.2L30.2,20.2L30.2,20.2
		v0.1h0c0,0.1,0,0.2,0,0.4l0,0.1l0,0.1h0l0-0.1l0-0.1l-0.1-0.2l0.1-0.2L30.2,20.2L30.2,20.2z M22.4,11.8c-0.2,0.1-0.3,0.5-0.3,1.1
		l0,0.1l0,0.1l0,0.1l0,0.2l0,0.3l-0.1,0.2v0.4l0,0.1l0,0.1c0,0.1,0,0.2,0,0.3l0,0.2l0,0.2l0,0.2v0.5l0,0.1l0,0c0,0.2,0,0.5,0,0.8
		c0,0.4,0,0.8-0.1,1l0,0.1c0,0.1,0,0.2,0,0.4V18l0,0.1h0l0.1,1.4c0,0.1,0,0.2,0,0.3l0,0.1l0,0.1v0.1l0,0.2l0,0.1v0.1l0,0.1l0,0.1
		v0.7c0,0.3,0.2,0.5,0.6,0.5c0.1,0,0.2,0,0.3-0.1l0,0H23l0.1-0.1l0,0c0.1,0,0.4-0.1,0.8-0.2c0.1-0.4,0.2-0.8,0.2-1.2v0l0-0.1l0,0
		l0-0.2V20l0-0.1l0-0.1c0,0,0-0.1,0-0.2l0-0.1l0-0.1v-0.1c0-0.1,0-0.1,0-0.2c0,0,0-0.2,0-0.6c0,0,0-0.1,0-0.2l-0.1-0.1l0-0.1l0-0.1
		c0,0,0-0.1,0-0.2c0,0,0-0.1-0.1-0.2l0-0.1c0,0,0.1,0.2,0.2,0.5l0,0.1l0.3,0.8h0c0.2,0.6,0.4,1.1,0.5,1.5c0.2,0.7,0.4,1,0.5,1
		c0,0.2,0.2,0.2,0.7,0.2c0.3,0,0.4,0,0.4,0c0.3,0,0.5-0.2,0.7-0.8c0.1-0.2,0.2-0.5,0.3-0.8c0.1-0.3,0.2-0.6,0.4-1l0-0.1h0l0.1-0.2
		c0-0.2,0.1-0.4,0.2-0.7l0.1,0l0,0c0,0.1,0,0.2,0.1,0.2c0,0.2,0,0.4,0,0.5v0.6l0,0.1l0,0c0,0.1,0,0.2,0,0.3v0.1l0.1,0.2l0,0.1
		c0.1,0.5,0.1,0.9,0,1.2c0.2,0.3,0.5,0.5,0.8,0.5h0.2c0.3,0,0.5-0.1,0.7-0.1c0.3-0.1,0.5-0.3,0.5-0.6l0-0.1c0-0.1,0-0.2,0-0.3v-0.3
		c0-0.1,0-0.3,0-0.5l0-0.1c0-0.3,0-0.4-0.1-0.5h0l0-0.2v-0.2l0-0.1h0l-0.1-0.2h0c0-0.3-0.1-0.4-0.1-0.5l0-0.1l0-0.1l0-0.2l0-0.2l0,0
		l-0.1-0.2c0-0.2,0.1-0.3,0.1-0.3c0,0,0-0.1-0.1-0.3c0,0,0-0.2,0.1-0.4L30.6,16l0,0l-0.1-0.4l0.1-0.2l-0.1-0.2l0-0.1
		c0-0.1,0-0.2-0.1-0.3h0l-0.1-0.3l0-0.1c0-0.1,0-0.2-0.1-0.3l0-0.1l-0.1-0.6c0,0,0.1-0.2,0.1-0.6c0-0.6,0-0.8-0.1-0.8
		c0.1-0.3-0.1-0.5-0.6-0.6l-0.1,0l-0.1,0l-0.4,0l-0.1,0l-0.1,0c-0.2,0.2-0.4,0.4-0.5,0.8c-0.4,1.2-0.7,1.9-0.9,2.1
		c-0.1,0.5-0.2,0.8-0.3,0.8c0,0-0.2,0.5-0.6,1.4c-0.4,0.9-0.6,1.5-0.6,1.8l-0.1,0l-0.3-1.5c-0.2-0.5-0.2-0.8-0.3-0.8l0-0.1
		c-0.1-0.2-0.1-0.3-0.1-0.3l0.1-0.1c-0.2-0.7-0.3-1.1-0.4-1.4v0l0-0.1c0,0-0.1-0.1-0.2-0.4h0c-0.2-0.8-0.5-1.3-0.7-1.5
		c0-0.1-0.1-0.3-0.4-0.6l-1,0l-0.1,0l0,0h-0.1C22.6,11.6,22.5,11.7,22.4,11.8z M16.7,13.8c0.1-0.2,0.4-0.2,0.7-0.2h0.2l0.1,0l0,0
		l0,0c0.2,0,0.5,0.1,0.7,0.4l0,0c0.1,0.4,0.1,0.6,0.1,0.7l0,0l0.1,0.2l0,0v0l0,0.1h0c0,0.2,0,0.4,0.1,0.4l0,0v0l0,0.1l0,0.1v0.1
		l0,0.1l0,0l0.1,0.1l0,0.3v0.1l0,0.1l0,0l0.1,0.1c0,0,0,0.1-0.1,0.3l0,0h0l0.1,0.5l0,0l0,0.1l0,0.1l0,0.1l-0.1,0.7l0,0l0,0.1l0,0.1
		h0c0,0.6-0.1,1-0.2,1c-0.1,0.4-0.4,0.7-1,0.7c-0.3-0.1-0.6-0.4-0.7-0.6c-0.2-0.5-0.3-1-0.3-1.5l0-0.1l0-0.1h0
		c0-0.2-0.1-0.4-0.1-0.5l0-0.1c0-0.3-0.1-0.6-0.1-0.7l0-0.1l0-0.1v-0.2l0-0.1l0,0l0,0v0l0-0.1c0,0,0-0.2,0.1-0.5l0-0.1
		c0.1-0.5,0.1-0.7,0.1-0.7l0,0C16.4,14.1,16.5,13.9,16.7,13.8z M16.3,11.7L16.3,11.7L16.3,11.7c-0.2,0-0.4,0.1-0.7,0.3
		c-0.3,0.2-0.4,0.3-0.5,0.4c-0.2,0.5-0.3,0.9-0.4,1.3v0.1l0,0.1l0,0l0,0.1l-0.1,0.1l0,0.1c0,0.2-0.1,0.5-0.1,0.9l0,0.1l0,0.1l0,0.1
		h0c0,0.2,0,0.3,0,0.4v0.7c0,0.2,0,0.4,0,0.8l0,0.1l0,0l0,0.1l0,0.1c0,0.2,0,0.4,0,0.4c0,0.1,0,0.3,0,0.5l0,0.1
		c0,0.3,0.1,0.5,0.1,0.8v0.2c0.1,0.2,0.1,0.4,0.1,0.5c0.1,0.8,0.2,1.2,0.3,1.2c0.1,0.2,0.2,0.3,0.3,0.4c0.6,0.4,1.3,0.6,2,0.6l0-0.1
		c0.2,0,0.4,0,0.5,0h0c0.4-0.1,0.6-0.1,0.7-0.2c0.3,0,0.7-0.3,1.1-0.8c0.1-0.1,0.3-0.5,0.4-1.1l0-0.1l0-0.1c0-0.1,0-0.4,0-0.9l0-0.1
		c0,0,0-0.1,0.1-0.3c0-0.1,0-0.2-0.1-0.2c0-0.2,0.1-0.4,0.1-0.8c0-0.2,0-0.7-0.1-1.5c0-0.1,0-0.3,0-0.4c0,0,0-0.1,0-0.3l0,0l0-0.1v0
		c0-0.4,0-0.7-0.1-0.7h0c0-0.1,0-0.3-0.1-0.5c0-0.5-0.2-0.9-0.5-1.4c-0.2-0.2-0.5-0.4-0.9-0.6l-1.1-0.2
		C16.9,11.6,16.5,11.7,16.3,11.7z M10.8,20.2L10.8,20.2L10.8,20.2L10.8,20.2L10.8,20.2z M10,11.8L10,11.8L10,11.8
		c0,0-0.1,0.1-0.3,0.1l0,0c-0.2,0-0.3,0.1-0.5,0.3c-0.5,0.4-0.8,0.7-1,1.1l-0.3,1l-0.3,1.1l0,0l-0.1,0.7l0,0
		c-0.1,0.2-0.1,0.4-0.1,0.5l0,0.2l0,0.1l0,0.1l0,0.1l0,0.2l0,0l0,0l0,0.1l0,0l0,0v0l0,0h0c0,0.4,0.1,0.6,0.1,0.8l0,0
		c0,0.1,0,0.2,0,0.4l0,0.1l0,0l0.1,0l0,0.1L7.6,19c0,0.2,0.1,0.6,0.3,1.2c0,0.2,0.1,0.3,0.2,0.2l0,0.1l0.2,0.2
		c0,0.1,0.3,0.4,0.8,0.9h0L9,21.5l0,0c0.2,0.1,0.3,0.2,0.4,0.2c0.4,0.2,0.9,0.3,1.4,0.3l0.4-0.1c0.2-0.1,0.3-0.2,0.3-0.2l0,0
		c0.2,0,0.6-0.4,1-1.1c0.2-0.4,0.3-0.8,0.3-1l0,0l0-0.1c0-0.1,0-0.2-0.1-0.5l0,0c0,0,0-0.1-0.1-0.2l0-0.1l0,0
		c-0.2-0.2-0.4-0.3-0.8-0.3c-0.1,0-0.2,0-0.3,0.1l-0.1,0.1l-0.1,0.2c0,0.1,0,0.2,0,0.4c0,0.2-0.1,0.2-0.1,0.2l0,0.1l0,0
		c0,0.1-0.1,0.2-0.1,0.2l0,0c-0.1,0.2-0.2,0.4-0.2,0.4v-0.1H11l0,0.2l0,0.1l-0.1,0.1l-0.1,0l-0.2,0.2h0l0,0v0h0l-0.1,0.1h-0.1
		c-0.1,0-0.2,0-0.3,0c-0.3-0.1-0.4-0.2-0.4-0.3h0l0,0c-0.2-0.4-0.3-0.6-0.3-0.5l0-0.1c0-0.3,0-0.4-0.1-0.4c0-0.1,0-0.1,0-0.2
		c0,0,0-0.1-0.1-0.2l0,0l0,0l0-0.1l0,0c0-0.3-0.1-0.5-0.1-0.6l0,0l0-0.3l0,0c0,0,0-0.1,0-0.2h0l0-0.3l0-0.1c0,0,0-0.1-0.1-0.2
		c0-0.1,0.1-0.3,0.1-0.7l0,0c0-0.4,0.1-0.6,0.1-0.8C9.2,15,9.3,15,9.3,15c0.1-0.4,0.2-0.7,0.2-0.8l0,0l0,0l0,0h0l0-0.1l0,0l0.1-0.2
		l0,0l0.1,0l0,0l0,0c0.1-0.1,0.2-0.3,0.3-0.3l0.1-0.1c0,0,0.1,0,0.3,0l0,0l0.2,0h0l0.2,0.1c0.2,0.1,0.3,0.2,0.4,0.3
		c0.1,0.2,0.2,0.3,0.2,0.4c0.1,0.4,0.1,0.7,0.2,0.8h0l0,0.1l0,0.1l0,0c0.1,0.2,0.2,0.2,0.2,0.2l0,0l0.2,0.2l0.1,0v-0.1l0.1,0.1
		c0.1-0.1,0.2-0.2,0.2-0.2l0,0h0l0.1,0c0.1-0.1,0.2-0.3,0.2-0.4l0-0.1l0-0.3c0-0.1,0-0.2-0.1-0.2c0.1-0.1,0.1-0.2,0.1-0.4L13,13.6
		l0,0l-0.1-0.1l0-0.2c0-0.1,0-0.2-0.1-0.2l0-0.2l0,0l-0.1,0l0,0c0,0,0-0.1-0.1-0.2l0,0c-0.1-0.2-0.1-0.3-0.1-0.3
		c0-0.1-0.2-0.3-0.5-0.4c-0.5-0.2-0.8-0.3-1-0.3l-0.1,0l-0.2,0C10.4,11.7,10.1,11.8,10,11.8z"/>
	<path class="st3" d="M91.4,9.9c0.1,0.1,0.3,0.2,0.4,0.2c0.4,0,0.6-0.3,0.6-0.9V4.1c0-0.2,0-0.4-0.1-0.5c-0.1-0.1-0.2-0.2-0.4-0.2
		c-0.1,0-0.2,0-0.3,0.1c0,0.1-0.2,0.2-0.3,0.4c-0.2,0.2-0.4,0.4-0.6,0.6s-0.5,0.4-0.9,0.5c-0.2,0.1-0.4,0.2-0.5,0.3
		c-0.1,0.1-0.1,0.2-0.1,0.3c0,0.1,0,0.2,0.1,0.3c0.1,0.1,0.2,0.1,0.3,0.1c0.3,0,0.8-0.3,1.5-0.9v4.1C91.2,9.6,91.3,9.8,91.4,9.9z
		 M85.5,8.6c0.2-0.2,0.5-0.5,0.9-0.9c0.4-0.4,0.8-0.6,1-0.8c0.2-0.2,0.4-0.4,0.6-0.7s0.3-0.6,0.3-1c0-0.2,0-0.5-0.1-0.7
		C88,4.3,87.9,4.2,87.7,4c-0.2-0.2-0.3-0.3-0.5-0.4c-0.3-0.1-0.7-0.2-1.2-0.2c-0.4,0-0.7,0.1-1,0.2S84.5,3.8,84.3,4
		c-0.2,0.2-0.3,0.4-0.4,0.6c-0.1,0.2-0.1,0.4-0.1,0.6c0,0.2,0,0.3,0.1,0.4c0.1,0.1,0.2,0.1,0.4,0.1c0.2,0,0.3-0.1,0.4-0.2
		c0.1-0.1,0.2-0.3,0.2-0.5C85,5,85,4.8,85.1,4.8c0.2-0.3,0.5-0.5,0.9-0.5c0.2,0,0.4,0,0.5,0.1c0.2,0.1,0.3,0.2,0.4,0.3
		C87,4.9,87,5.1,87,5.3c0,0.2,0,0.4-0.1,0.5c-0.1,0.2-0.2,0.4-0.4,0.5c-0.2,0.2-0.4,0.3-0.6,0.5c-0.1,0.1-0.4,0.3-0.7,0.6
		s-0.7,0.6-1.1,1.1C84,8.6,84,8.7,83.9,8.9c-0.1,0.2-0.1,0.3-0.1,0.4c0,0.2,0.1,0.3,0.2,0.4c0.1,0.1,0.3,0.2,0.5,0.2h3.3
		c0.2,0,0.3-0.1,0.4-0.2c0.1-0.1,0.1-0.2,0.1-0.4c0-0.2-0.1-0.3-0.2-0.4c-0.1-0.1-0.3-0.1-0.5-0.1h-2.3C85.4,8.8,85.4,8.7,85.5,8.6z
		"/>
	<path class="st3" d="M100.8,9.1L100.8,9.1v0.2v0h0l0-0.1l0,0l0,0L100.8,9.1z M100.7,4.7L100.7,4.7L100.7,4.7L100.7,4.7L100.7,4.7z
		 M100.9,3.6L100.9,3.6L100.9,3.6l-0.2,0c0,0-0.1,0-0.3,0l-0.1,0l-0.1,0h-0.2c0,0-0.1,0-0.2,0l0,0l-0.2,0c-0.4,0.1-0.6,0.2-0.6,0.4
		c0,0.2,0,0.3,0,0.4c0.2,0.2,0.3,0.3,0.4,0.3c0.4,0,0.7,0,0.7,0c0.2,0,0.3,0.1,0.3,0.2V5l0,0.2l0,0.1c0,0.1,0,0.2,0,0.3l0,0l0,0.6
		c0,0.2,0,0.4,0,0.7l0,0.1l0,0c0,0.1,0,0.2,0,0.4l0,0l0,0.1l0,0l0,0l0,0h0l0,0.1l0,0.4l0,0.2v0.1l0,0h0l0,0.3l0,0l0,0l0,0.1V9l0,0.1
		l0,0.1l0,0l0,0c0,0.2,0.1,0.4,0.2,0.6v0l-0.1,0.1l0.1,0v0l0.1,0c0,0,0.1,0,0.2,0.1l0,0l0.1,0v0l0.1,0c0.1,0,0.3-0.1,0.4-0.2l0,0
		c0.1,0,0.1-0.1,0.1-0.4l0,0l0-0.1l0,0l0-0.2l0-0.1l0,0v0l0,0l0,0l0,0l0,0V8.6c0-0.1,0-0.2,0-0.3l0,0v0l0,0l0,0V8.2l0,0l0-0.1V7.8
		l0,0l0,0V7.6l0,0l0,0V7.4l0-0.1l0,0l0,0V7.2l0,0h0l0-0.1v0l0-0.1l0-0.1V6.4l0-0.1l0,0l0-0.1l0,0l0-0.1V5.7c0-0.1,0-0.2,0-0.3l0,0
		l0,0h0l0,0l0,0l0-0.1l0-0.1V4.9l0.1-0.1l0.1,0h0c0.1,0,0.2,0,0.2-0.1c0.3,0,0.5,0,0.6-0.1c0.1-0.1,0.2-0.3,0.2-0.4l0,0h0
		c0-0.2,0-0.4-0.1-0.5c0-0.1-0.2-0.1-0.7-0.2c0,0-0.1,0-0.2,0l-0.1,0l0,0c0,0-0.2-0.1-0.6-0.1C101,3.6,101,3.6,100.9,3.6z M95.7,3.6
		L95.7,3.6c0,0,0,0-0.1,0.1l-0.1,0l-0.1,0l-0.1,0.1c-0.1,0.1-0.2,0.2-0.2,0.3C95,4.4,94.9,4.7,94.9,5l0,0.1l0,0l0,0
		c0,0,0,0.2,0.1,0.4c0,0.1,0.1,0.2,0.1,0.4c0.1,0.2,0.2,0.4,0.4,0.6c0.2,0.2,0.4,0.3,0.4,0.3c0.2,0.2,0.3,0.3,0.3,0.3
		c0.5,0.4,0.7,0.7,0.8,1l0,0.1l0,0c0,0.1-0.1,0.2-0.3,0.4c-0.1,0.1-0.2,0.1-0.4,0.1c-0.1,0-0.2-0.1-0.3-0.1c-0.1,0-0.2-0.1-0.2-0.2
		l-0.1-0.2l-0.1-0.3l0-0.1l-0.1-0.2l-0.2-0.1l-0.2,0l-0.2,0l-0.1,0c-0.1,0.1-0.2,0.1-0.2,0.2c-0.1,0.1-0.1,0.2-0.1,0.2l0,0.2l0,0.1
		l0,0h0l0,0.1l0,0l0,0l0,0h0c0,0.2,0.1,0.3,0.1,0.5c0.1,0.3,0.2,0.5,0.3,0.4l0.1,0.1c0,0,0.1,0.1,0.3,0.2c0.2,0.1,0.5,0.1,0.7,0.1
		l0,0l0,0l0.1,0c0.1,0,0.2,0,0.3,0l0.1,0c0.4-0.1,0.5-0.2,0.5-0.2c0.1-0.1,0.2-0.2,0.3-0.2c0.1-0.2,0.2-0.3,0.2-0.3
		C97.9,9,98,8.8,98,8.5l0,0C98,8.3,98,8.1,98,8l0,0l-0.1-0.2c0-0.2-0.1-0.3-0.3-0.6C97.5,7.1,97.4,7,97.4,7l0-0.1l-0.1-0.1
		c-0.1-0.1-0.2-0.2-0.2-0.2c-0.4-0.3-0.6-0.6-0.8-0.7c-0.3-0.3-0.4-0.6-0.4-0.9c0-0.2,0.1-0.3,0.2-0.4c0.2-0.1,0.4-0.1,0.5,0
		c0.1,0.1,0.1,0.3,0.1,0.5c0,0.3,0.1,0.4,0.1,0.5L97,5.6c0.1,0.1,0.1,0.1,0.3,0.1c0.1,0,0.2,0,0.3-0.1c0.1-0.1,0.2-0.1,0.2-0.2
		l0-0.1c0,0,0-0.1,0-0.4s0-0.4-0.1-0.4c0-0.1-0.1-0.3-0.2-0.5l-0.1-0.1c-0.1-0.1-0.2-0.2-0.3-0.2c-0.1-0.1-0.3-0.1-0.6-0.2l-0.1,0
		l-0.1,0l0,0l0,0l-0.2,0l-0.1,0l0,0l0,0l-0.1,0l0,0l-0.1,0C95.8,3.6,95.7,3.6,95.7,3.6z"/>
	<path class="st3" d="M105,21.1L105,21.1c0,0.2,0,0.3,0,0.3v0.1h-0.1l0-0.1l0,0l0,0C104.9,21.2,104.9,21.1,105,21.1z M104.9,13.7
		L104.9,13.7L104.9,13.7L104.9,13.7L104.9,13.7z M105.2,11.7L105.2,11.7h-0.1l-0.2,0c-0.1,0-0.2,0-0.4,0.1l-0.1,0l-0.1,0h-0.4
		c-0.1,0-0.2,0-0.4,0l0,0c0,0-0.1,0-0.3,0c-0.6,0.1-0.9,0.3-1,0.7c0,0.4,0,0.6,0,0.6c0.3,0.4,0.5,0.5,0.6,0.5c0.8,0,1.2,0,1.2,0
		c0.3,0,0.5,0.1,0.5,0.3v0.1c0,0,0,0.1,0,0.3l0,0.2c0,0.1,0,0.3,0,0.5l0,0l0,1c0,0.4,0,0.8,0,1.2l0,0.2l0,0.1c0,0.1,0,0.3,0,0.6
		l0,0.1c0,0,0,0.1,0,0.2l0,0.1l0,0l0,0.1h0l0,0.1l0,0.7c0,0.1,0,0.2,0,0.3v0.1l0,0.1h0l0,0.5l0,0l0,0c0,0.1,0,0.2,0,0.2V21l0,0.1
		c0,0,0,0.1,0,0.2l0,0.1l0,0c0,0.3,0.1,0.6,0.3,1v0c-0.1,0.1-0.2,0.1-0.2,0.2l0.1-0.1v0l0.1-0.1c0,0,0.2,0,0.4,0.1l0.1,0l0.1,0v0
		l0.1,0c0.2,0,0.5-0.1,0.7-0.4l0,0c0.1,0,0.1-0.2,0.2-0.7l0,0l0-0.1l0-0.1l0.1-0.4l0-0.2l0,0v0l0-0.1l0-0.1l0,0l0-0.1v-0.1
		c0-0.2,0-0.4,0-0.5l0,0v0l0,0l0,0v-0.1l0-0.1l0-0.1V19l0-0.1l0,0v-0.4l0,0l0-0.1v-0.2l0-0.2l0,0l0,0v-0.2l0,0h0l0-0.2v0l0-0.1
		l0-0.1v-0.8l0-0.2l0,0l0-0.2l0,0l0-0.2v-0.7c0-0.2,0-0.4,0-0.6l0,0l0-0.1h0l0-0.1l0-0.1l0-0.1l0-0.1V14c0-0.1,0.1-0.2,0.2-0.2
		c0.1,0,0.2,0,0.2,0h0.1c0.3,0,0.4-0.1,0.4-0.1c0.6,0,0.9,0,1-0.1c0.2-0.2,0.3-0.5,0.3-0.7l0,0h0c0-0.4-0.1-0.7-0.2-0.8
		c0-0.1-0.4-0.2-1.2-0.3c0,0-0.1,0-0.3,0l-0.2,0l-0.1,0c0-0.1-0.3-0.1-1-0.2C105.5,11.7,105.4,11.7,105.2,11.7z M96,22.2L96,22.2
		l-0.1,0.1v-0.1L96,22.2z M96.2,22.1L96.2,22.1l0,0.1l-0.2,0v0l0.1-0.1H96.2z M97.1,13.3L97.1,13.3l0.2,0l0,0v0l0.1,0h0.1
		c0.3,0,0.6,0.1,0.7,0.4c0,0.2,0,0.3,0.1,0.3v0.1l0.1,0.3l0,0l0.1,0.1c0,0-0.1,0.1-0.1,0.2v0l0,0.1c0,0-0.1,0-0.1,0.1l0,0.1
		c-0.2,0.4-0.4,0.6-0.4,0.6c0,0.2-0.4,0.3-1.1,0.3c-0.2,0-0.3-0.3-0.3-0.9l0,0l-0.1-0.3h0c0-0.3-0.1-0.5-0.1-0.7v-0.1
		c-0.1-0.1-0.1-0.2-0.1-0.5l0-0.1l0.1-0.1C96.8,13.3,97,13.3,97.1,13.3z M94.7,12l-0.3,0.4l0,0.1v0.1l0,0.1l0.1,0
		c0,0.1-0.1,0.2-0.1,0.4c0,0,0.1,0.1,0.1,0.2v0.2l0,0.1h0c0,0.1,0,0.1,0.1,0.2l-0.1,0.1c0,0.1,0.1,0.2,0.1,0.4v0l-0.1,0.1
		c0,0,0,0.1,0.1,0.3l-0.1,0.1l0.1,0.1l0,0.1v0.1l0,0.1l0,0l0.1,0l-0.1,0.1l0,0.1l0,0.1l0,0.1l0,0.1l0,0.1l0,0.1l0.1,0.3l-0.1,0
		c0,0,0,0.1,0.1,0.2l-0.1,0.1c0,0.3,0.1,0.4,0.1,0.4l-0.1,0.1l0,0.1L94.5,17l0.1,0.2l0,0.1v0l0.1,0.2l-0.1,0.1l0,0.1l0,0.1l0,0.1h0
		l0,0.1c0,0.1,0,0.1,0,0.2l0,0.1l-0.1,0l0,0.1l-0.1,0.1l0,0.1l0,0.1l0.1,0.1h0l0,0.2l0,0.2l0,0.1h0c0,0,0,0.1,0.1,0.3l0,0.1
		c0,0,0,0.2,0.1,0.6l-0.1,0l0.1,0.2l0,0.1c0,0.1,0,0.2,0,0.3v0.1l0,0.1l0,0l0,0v0l0.1,0.1l-0.1,0.1l0,0.1c0,0.1,0,0.2,0,0.2l0,0.1
		l0,0v0l0,0.1l0,0l0,0c0,0.3,0.1,0.4,0.1,0.4c0,0.5,0.3,0.8,0.8,0.8c0.4,0.1,0.7,0,0.9-0.1c0.1-0.1,0.1-0.3,0.1-0.8l0-0.1l0-0.6
		c0-0.2,0-0.5,0.1-0.7l0-0.1l0-0.1v-0.3c0-0.1,0-0.3,0-0.6l0-0.1l0-0.1l0-0.2l0-0.1l0-0.1v-0.1l0-0.1h0l0-0.1l0-0.1l0-0.1
		c0,0,0-0.1,0.1-0.2c0-0.1,0.2-0.2,0.5-0.2c0.6-0.1,0.8-0.1,0.8-0.2h0.1l0.1,0l0,0h0.1c0.4,0,0.7-0.1,1-0.3l0.1,0
		c0.2-0.1,0.4-0.2,0.6-0.5l0-0.1c0.3-0.3,0.5-0.7,0.5-1.2l0-0.1c0-0.1,0-0.2,0-0.3v-0.3l-0.1-0.5l0,0l0-0.1c0-0.5-0.1-0.8-0.3-1.1
		c-0.2-0.3-0.3-0.5-0.3-0.5c-0.2-0.4-0.5-0.7-1-0.9c-0.6-0.1-0.9-0.2-1.1-0.3h-0.5l-0.1,0c-0.1-0.1-0.4-0.1-0.8-0.1l-0.1,0
		c-0.1,0-0.3-0.1-0.5-0.1C95.5,11.7,95.2,11.8,94.7,12z M87.7,21.9L87.7,21.9L87.7,21.9L87.7,21.9L87.7,21.9z M89.1,21.3L89.1,21.3
		L89.1,21.3L89.1,21.3L89.1,21.3z M89.3,20.8L89.3,20.8L89.3,20.8L89.3,20.8L89.3,20.8L89.3,20.8z M90.2,17.1L90.2,17.1L90.2,17.1
		L90.2,17.1L90.2,17.1L90.2,17.1z M89.4,17L89.4,17L89.4,17L89.4,17L89.4,17z M89.8,13L89.8,13L89.8,13L89.8,13L89.8,13z M90,12.2
		L90,12.2h-0.1v0l0,0L90,12.2z M88.8,12.1L88.8,12.1L88.8,12.1L88.8,12.1L88.8,12.1L88.8,12.1z M87.4,11.7c-0.1,0-0.2,0.1-0.2,0.2
		c-0.2,0-0.2,0.4-0.1,1.2l0,0.1h0c0,0,0,0.4,0,1.2l0,0l0,0c0,0.3,0,0.6,0,0.7l0,0c0,0.3-0.1,0.5-0.1,0.8l0,0.1l0,0.1v0.4l0,0.2l0,0
		c0,0,0,0.1,0,0.2l0,0.1c0,0.1,0,0.2,0,0.4l0,0l0,0.7c0,0.2,0,0.3,0,0.3l0,0.1l0,0l0,0.1v0l0,0h0c0,0.2,0,0.4,0,0.5
		c0,0.5,0,0.9,0.1,1.1l0,0.1v0.1c0,0.1,0,0.2,0,0.2V21l0,0h0c0,0.1,0,0.3,0,0.8s0.1,0.8,0.4,0.8c0.2,0,0.4,0,0.5,0H88l0.1,0l0.1,0h0
		v0c0,0,0.1,0,0.2-0.1l0.2,0l0,0v0l0.1,0c0.1,0,0.2,0,0.2,0l0.2,0l0.1,0l0,0l0,0h0l0.1,0l0.1,0c0,0,0.1,0,0.2-0.1l0,0l0,0l0.1,0
		c0.2,0,0.4,0,0.6,0l0.1,0c0,0,0.1,0,0.2,0l0.2,0h0l0.1,0l0.1,0l0.1,0c0,0,0.1,0,0.3,0.1l0.1,0l0.1,0l0,0c0.3,0,0.4-0.1,0.5-0.3
		c0.1-0.5,0.1-0.9-0.1-1.2c0-0.2,0-0.3-0.1-0.3c0-0.1-0.2-0.2-0.5-0.2h-0.1l-0.1,0l0,0c0,0-0.3,0-0.8,0c0,0-0.1,0-0.2,0l-0.7,0
		c-0.1,0-0.3,0-0.6,0c-0.3,0-0.4-0.1-0.3-0.2l0-1.1l0-0.1c0-0.2,0-0.4,0-0.4h0c0-0.1,0-0.2-0.1-0.2l0-0.1v0l-0.1-0.1v0h0
		c0-0.5,0.2-0.8,0.6-0.8h0.3c0,0,0.1,0,0.3,0h0.2l0.2,0.1l0,0l0.2,0c0.2,0,0.3,0,0.3,0c0.2,0,0.4-0.1,0.5-0.2
		c0.1-0.2,0.1-0.4,0.1-0.4l0-0.1v-0.2c0-0.2-0.1-0.5-0.2-0.7c-0.2-0.2-0.7-0.3-1.5-0.3l-0.2,0l0,0l-0.1,0l0,0v0l-0.1,0.1h0v0h-0.1
		c-0.3,0-0.4,0-0.4-0.1v0h0v-0.1c0-0.1,0-0.2-0.1-0.4c0-0.1,0-0.2,0-0.4v-0.2l0-0.2c0-0.3,0.1-0.5,0.4-0.6l0.1,0
		c0.3-0.1,0.5-0.1,0.5-0.1l0,0l0.3,0l0.9,0l0,0l0.1,0.1h0l0-0.1l0,0.1h0l0-0.1c0.2,0,0.2,0,0.2,0.1l0.2-0.1l0.1,0
		c0.1-0.1,0.1-0.1,0.1-0.1l0,0h0c0.1,0,0.3-0.1,0.5-0.3l0-0.1c0.1-0.2,0.1-0.4,0.1-0.6c-0.1-0.2-0.1-0.3-0.1-0.4
		c-0.1-0.1-0.2-0.1-0.2-0.2h0v0h0c0-0.1-0.1-0.1-0.2-0.2c-0.3,0-0.4-0.1-0.4-0.1h0l-0.1,0l-0.1,0l0,0l0,0h-0.2l0,0c0,0-0.1,0-0.3,0
		l-0.1,0l-0.1,0l-0.1,0c0,0-0.1,0-0.3,0l-0.1,0l0,0l0,0v0l-0.1,0c-0.1,0-0.3-0.1-0.5-0.1l0,0c0,0-0.1,0-0.2,0l0,0l-0.1,0l-0.2,0
		l-0.1,0l-0.1,0h0c-0.1,0-0.3,0-0.4-0.1C87.9,11.7,87.6,11.7,87.4,11.7z M81.1,11.8L81.1,11.8c0,0-0.1,0.1-0.2,0.1l-0.1,0l-0.1,0.1
		c-0.1,0.1-0.1,0.2-0.2,0.2c-0.1,0.2-0.3,0.4-0.4,0.5c-0.2,0.4-0.2,1-0.2,1.6l0,0.1l0,0l0,0.1c0,0.1,0,0.3,0.1,0.7
		c0,0.2,0.1,0.4,0.2,0.7c0.1,0.3,0.3,0.6,0.7,1.1c0.4,0.4,0.6,0.5,0.6,0.5c0.3,0.3,0.5,0.4,0.5,0.5c0.8,0.7,1.2,1.3,1.3,1.7l0,0.3
		l0,0c0,0.1-0.2,0.4-0.5,0.7c-0.2,0.1-0.4,0.1-0.7,0.1c-0.2-0.1-0.4-0.1-0.4-0.2c-0.1,0-0.3-0.1-0.4-0.3l-0.2-0.4l-0.1-0.5l0-0.1
		C81,19.1,81,19,81,19c0-0.1-0.1-0.2-0.3-0.2l-0.4,0L80,18.8l-0.1,0c-0.2,0.1-0.3,0.2-0.3,0.3c-0.1,0.2-0.2,0.3-0.2,0.4l0,0.4l0,0.1
		l0,0h0l0.1,0.1l0,0l0,0l0,0h0c0,0.3,0.1,0.5,0.2,0.8c0.2,0.5,0.4,0.8,0.5,0.8c0,0.1,0.1,0.2,0.2,0.2c0,0.1,0.2,0.2,0.6,0.3
		c0.4,0.1,0.8,0.2,1.2,0.2l0,0l0,0l0.1,0c0.2,0,0.3,0,0.5,0l0.2,0c0.6-0.3,0.9-0.4,0.9-0.4c0.2-0.1,0.4-0.3,0.6-0.4
		c0.2-0.3,0.4-0.5,0.4-0.5c0.2-0.3,0.4-0.7,0.4-1.1l0-0.1c0-0.4,0-0.7-0.1-0.9l0,0l-0.2-0.3c0-0.3-0.2-0.6-0.5-1
		c-0.1-0.2-0.2-0.3-0.3-0.3l0-0.1c-0.1-0.1-0.2-0.2-0.2-0.2c-0.2-0.3-0.3-0.4-0.3-0.4c-0.7-0.5-1.1-1-1.4-1.2
		c-0.5-0.6-0.7-1.1-0.7-1.6c0-0.3,0.1-0.5,0.4-0.7c0.3-0.2,0.7-0.2,0.9,0c0.2,0.2,0.2,0.5,0.2,0.8c0.1,0.5,0.1,0.8,0.1,0.8l0.1,0.2
		c0.1,0.1,0.2,0.1,0.4,0.2c0.1,0,0.3,0,0.5-0.1c0.2-0.1,0.3-0.2,0.3-0.4l0.1-0.2c0,0,0-0.2,0-0.6s-0.1-0.6-0.1-0.8
		c0-0.2-0.2-0.5-0.4-0.8c0-0.1-0.1-0.1-0.2-0.1c-0.2-0.2-0.3-0.3-0.5-0.3c-0.2-0.1-0.5-0.2-1-0.3l-0.1,0c-0.1,0-0.2,0-0.2,0l0,0l0,0
		l-0.3,0l-0.2,0l0,0l0,0l-0.1,0l0,0l-0.1,0C81.2,11.7,81.2,11.8,81.1,11.8z"/>
	<path class="st3" d="M36.4,9.5L36.4,9.5v0.2v0h0l0-0.1l0,0l0,0L36.4,9.5z M36.4,4.8L36.4,4.8L36.4,4.8L36.4,4.8L36.4,4.8z
		 M36.5,3.6L36.5,3.6L36.5,3.6l-0.2,0c0,0-0.1,0-0.3,0l-0.1,0l-0.1,0h-0.2c-0.1,0-0.1,0-0.2,0l0,0c0,0-0.1,0-0.2,0
		c-0.4,0.1-0.6,0.2-0.6,0.5c0,0.2,0,0.4,0,0.4c0.2,0.2,0.3,0.3,0.4,0.3c0.5,0,0.7,0,0.8,0c0.2,0,0.3,0.1,0.3,0.2v0.1l0,0.2l0,0.1
		c0,0.1,0,0.2,0,0.3l0,0l0,0.6c0,0.2,0,0.5,0,0.7l0,0.1l0,0.1c0,0.1,0,0.2,0,0.4l0,0.1l0,0.1l0,0.1l0,0l0,0h0l0,0.1l0,0.4l0,0.2v0.1
		l0,0h0l0,0.3l0,0l0,0l0,0.1v0.2l0,0.1l0,0.1l0,0l0,0c0,0.2,0.1,0.4,0.2,0.6v0l-0.1,0.1l0.1,0v0l0.1,0c0,0,0.1,0,0.3,0.1l0,0l0.1,0
		v0l0.1,0c0.2,0,0.3-0.1,0.4-0.3l0,0c0.1,0,0.1-0.1,0.1-0.4l0,0l0-0.1l0,0l0-0.2l0-0.1l0,0v0l0,0l0,0l0,0l0,0V9c0-0.1,0-0.2,0-0.3
		l0,0v0l0,0l0,0V8.6l0,0l0-0.1V8.2l0,0l0,0V7.9l0,0l0,0V7.7l0-0.2l0,0l0,0V7.4l0,0h0l0-0.1v0l0-0.1l0-0.1V6.7l0-0.1l0,0l0-0.1l0,0
		l0-0.1V5.9c0-0.1,0-0.3,0-0.4l0,0l0,0h0l0,0l0-0.1l0-0.1l0-0.1V5l0.1-0.1l0.1,0h0c0.2,0,0.2,0,0.2-0.1c0.4,0,0.6,0,0.6-0.1
		c0.1-0.2,0.2-0.3,0.2-0.4l0,0h0c0-0.2,0-0.4-0.1-0.5c0-0.1-0.3-0.1-0.8-0.2c0,0-0.1,0-0.2,0l-0.1,0l0,0c0,0-0.2-0.1-0.6-0.1
		C36.7,3.5,36.6,3.6,36.5,3.6z M30.9,3.6L30.9,3.6c0,0,0,0-0.1,0.1l-0.1,0l-0.1,0l-0.1,0.1c-0.1,0.1-0.2,0.3-0.3,0.3
		c-0.1,0.3-0.2,0.6-0.1,1l0,0.1l0,0l0,0.1c0,0,0,0.2,0.1,0.5c0,0.1,0.1,0.3,0.1,0.4c0.1,0.2,0.2,0.4,0.5,0.7
		c0.3,0.2,0.4,0.3,0.4,0.3c0.2,0.2,0.3,0.3,0.3,0.3c0.5,0.5,0.8,0.8,0.8,1l0,0.2l0,0c0,0.1-0.1,0.2-0.3,0.5
		c-0.1,0.1-0.3,0.1-0.5,0.1c-0.1,0-0.2-0.1-0.3-0.1c-0.1,0-0.2-0.1-0.2-0.2L31,8.7l-0.1-0.3l0-0.1c0-0.1-0.1-0.1-0.1-0.2L30.6,8
		l-0.2,0l-0.2,0l-0.1,0C30.1,8.1,30,8.2,30,8.2c-0.1,0.1-0.1,0.2-0.1,0.2l0,0.2l0,0.1l0,0h0l0,0.1l0,0l0,0l0,0h0
		c0,0.2,0.1,0.3,0.1,0.5c0.1,0.3,0.2,0.5,0.3,0.5l0.1,0.1c0,0,0.1,0.1,0.4,0.2c0.2,0.1,0.5,0.1,0.8,0.2l0,0l0,0l0.1,0
		c0.1,0,0.2,0,0.3,0l0.1,0c0.4-0.2,0.6-0.2,0.5-0.2c0.1-0.1,0.3-0.2,0.4-0.3c0.1-0.2,0.2-0.3,0.2-0.3c0.1-0.2,0.2-0.5,0.3-0.7l0,0
		c0-0.2,0-0.4-0.1-0.5l0,0l-0.1-0.2c0-0.2-0.1-0.4-0.3-0.6c-0.1-0.1-0.1-0.2-0.2-0.2l0-0.1l-0.1-0.1c-0.1-0.2-0.2-0.2-0.2-0.3
		c-0.4-0.3-0.7-0.6-0.9-0.8c-0.3-0.4-0.5-0.7-0.5-1c0-0.2,0.1-0.3,0.3-0.5c0.2-0.1,0.4-0.1,0.6,0c0.1,0.1,0.1,0.3,0.1,0.5
		c0,0.3,0.1,0.5,0.1,0.5l0.1,0.1c0.1,0.1,0.1,0.1,0.3,0.1c0.1,0,0.2,0,0.3-0.1c0.1-0.1,0.2-0.1,0.2-0.3l0-0.1c0,0,0-0.1,0-0.4
		c0-0.2,0-0.4-0.1-0.5c0-0.1-0.1-0.3-0.2-0.5l-0.1-0.1c-0.1-0.1-0.2-0.2-0.3-0.2c-0.1-0.1-0.3-0.1-0.6-0.2l-0.1,0l-0.1,0l0,0l0,0
		l-0.2,0l-0.1,0l0,0l0,0l-0.1,0l0,0l-0.1,0C31,3.6,30.9,3.6,30.9,3.6z M26.4,4.9L26.4,4.9l0.1,0l0,0v0l0.1,0h0.1
		c0.2,0,0.4,0.1,0.5,0.2c0,0.1,0,0.2,0.1,0.2v0.1l0,0.2l0,0l0,0.1l-0.1,0.1v0l0,0l0,0.1l0,0C27.1,6.2,27,6.3,27,6.3
		c0,0.1-0.2,0.2-0.7,0.2c-0.1,0-0.2-0.2-0.2-0.5l0,0l0-0.2h0c0-0.2,0-0.3,0-0.4v0c0,0-0.1-0.1-0.1-0.3l0,0l0,0
		C26.2,4.9,26.3,4.9,26.4,4.9z M26.2,7.6L26.2,7.6L26.2,7.6L26.2,7.6L26.2,7.6l0.1,0.1l0.1,0.2l0,0l0.1,0.2l0,0l0,0l0.1,0.1l0,0l0,0
		l0,0.1l0,0.1l0.1,0.2l0,0c0,0,0.1,0.3,0.3,0.7l0,0l0,0l0,0.1l0,0l0,0c0.1,0.2,0.2,0.5,0.3,0.7l0.2,0.2c0,0,0.1,0.1,0.3,0.1
		s0.3,0,0.6,0l0,0c0.1,0,0.2,0,0.2-0.1c0-0.2-0.1-0.4-0.2-0.6l-0.1-0.2c0-0.1-0.1-0.1-0.1-0.3l0,0l0,0l0,0l0,0C28.1,9.1,28,9,28,8.8
		l0,0c0,0,0-0.1-0.1-0.3l-0.1-0.1c0,0,0-0.1-0.1-0.4l0,0l0-0.1l0,0l-0.1-0.1l0,0l0,0l0-0.1l0-0.1l0,0l0-0.1l0,0l0-0.1
		c0.2,0,0.3-0.1,0.4-0.1l0.1,0c0.1-0.1,0.2-0.2,0.3-0.3l0,0c0.2-0.2,0.3-0.4,0.3-0.7l0,0l0-0.2V5.8l-0.1-0.3l0,0l0-0.1
		c0-0.3-0.1-0.5-0.2-0.7C28.1,4.6,28,4.4,28,4.4c-0.1-0.2-0.3-0.4-0.6-0.6c-0.4-0.1-0.6-0.1-0.7-0.2h-0.3l0,0
		c-0.1,0-0.2-0.1-0.5-0.1l-0.1,0c-0.1,0-0.2,0-0.3,0c-0.1,0-0.3,0.1-0.6,0.2L24.7,4l0,0v0l0,0l0,0c0,0,0,0.1-0.1,0.2l0,0.1v0.1l0,0
		h0l0.1,0.2l-0.1,0.1c0,0.1,0,0.1,0.1,0.2v0l-0.1,0.1l0,0.2l-0.1,0l0,0l0,0.1v0l0,0.1l0,0l0,0l0,0.1l0,0.1l0,0.1l0,0.1l0,0.1l0,0
		l0,0l0.1,0.2l0,0l0,0.1l0,0.1c0,0.2,0.1,0.2,0.1,0.2l0,0l0,0.1l0,0.1l0,0.1l0,0.9h0l0,0.1l0,0.1l0,0h0l0,0.2l0,0c0,0,0,0.1,0.1,0.4
		l0,0l0,0.1l0,0l0,0.2v0.1l0,0.1l0,0l0,0v0l0,0l0,0l0,0.1l0,0.1l0,0l0,0v0l0,0l0,0l0,0c0,0.3,0,0.5,0,0.7c0,0.1,0.2,0.1,0.6,0.1
		c0.3,0,0.5,0,0.6,0c0-0.1,0.1-0.2,0-0.6l0,0l0-0.4c0-0.1,0-0.3,0-0.5l0,0l0-0.1V8.7c0-0.1,0-0.2,0-0.4l0-0.1l0-0.1l0-0.1l0-0.1
		l0-0.1V7.9l0,0h0l0-0.1l0,0l0-0.1L26.2,7.6L26.2,7.6L26.2,7.6z M25.8,10.1L25.8,10.1L25.8,10.1l-0.1,0.1v0L25.8,10.1L25.8,10.1z
		 M25.6,10.2L25.6,10.2L25.6,10.2L25.6,10.2L25.6,10.2z M25.8,8.9L25.8,8.9L25.8,8.9L25.8,8.9L25.8,8.9z M23.7,8.9L23.7,8.9
		L23.7,8.9L23.7,8.9L23.7,8.9z M22.5,3.8L22.4,4l0,0c0,0,0,0.1,0,0.2l0,0.2v0.2h0v0h0v0c0,0.1,0,0.2,0,0.4l0,0c0,0,0,0.1,0,0.3
		l0.1,0.1c0,0,0,0.1,0,0.4l0,0l0,0.1l0,0l0,0.1h0v0l0,0.1l0,0.1l0,0l0,0.1l0,0l0,0.6l0,0l0,0v0l0,0c0,0,0,0,0,0.1l0,0.1l0,0.1l0,0.1
		c0,0.2-0.1,0.2-0.1,0.2l0.1,0.2l0,0l0,0.1l0,0.1l0,0l0,0.1v0.1l0,0.2l0,0.1c0,0.1,0,0.2,0,0.2l0,0l0,0.1l0,0.1v0l0,0l0,0.1l0,0.1
		l0,0.1l0,0.1l0,0.1l0,0h0c0,0.3,0,0.5,0.1,0.6l0,0l0.2,0l0.2,0l0.2,0l0,0l0.1,0h0v0l0.1,0c0.1,0,0.2,0,0.3,0l0,0l0,0h0
		c0,0,0.1-0.1,0.1-0.2l0-0.1c0,0,0-0.2,0-0.5l0,0c0,0,0-0.1,0-0.2l0,0c0-0.1,0-0.2,0-0.3l0,0v0l0,0l0-0.3l0,0l0,0l0-0.1
		c0,0,0-0.1,0-0.4l0-0.2l0-0.1l0,0l0-0.2l0-0.1l0,0l0,0l0-0.1l0-0.1l0,0c0,0,0-0.1,0-0.2l0,0h0l0-0.1l0-0.1l0-0.1l0-0.1v0l0,0h0
		l0-0.1l0,0l0-0.2l0,0l0-0.2l0,0l0,0l0-0.1l0,0h0l0-0.1l0-0.1l0-0.2l0,0c0.1,0,0.1-0.2,0-0.7l0,0l0,0l0-0.1l0,0h0c0-0.3,0-0.4,0-0.5
		l0,0c0,0,0-0.1,0-0.2l0-0.1c0-0.2,0-0.3-0.2-0.4l-0.2-0.1c-0.2,0-0.3,0-0.4,0h0C22.7,3.6,22.5,3.6,22.5,3.8z M18.4,10L18.4,10
		L18.4,10L18.4,10L18.4,10z M19.3,9.6L19.3,9.6L19.3,9.6L19.3,9.6L19.3,9.6z M19.4,9.3L19.4,9.3L19.4,9.3L19.4,9.3L19.4,9.3
		L19.4,9.3z M20,7L20,7L20,7L20,7L20,7L20,7z M19.5,6.9L19.5,6.9L19.5,6.9L19.5,6.9L19.5,6.9z M19.7,4.4L19.7,4.4L19.7,4.4L19.7,4.4
		L19.7,4.4z M19.8,3.9L19.8,3.9L19.8,3.9L19.8,3.9L19.8,3.9L19.8,3.9z M19.1,3.8L19.1,3.8L19.1,3.8L19.1,3.8L19.1,3.8L19.1,3.8z
		 M19.2,8.9l0-0.5l0-0.1c0-0.1,0-0.2,0-0.3l0-0.1l0,0v0l0-0.1v0h0c0-0.3,0.1-0.5,0.3-0.5h0.2c0,0,0.1,0,0.2,0H20l0.1,0l0,0l0.1,0
		c0.1,0,0.2,0,0.2,0c0.1,0,0.2-0.1,0.3-0.1c0-0.2,0.1-0.2,0.1-0.3l0-0.1V6.7c0-0.1,0-0.3-0.1-0.4c-0.1-0.1-0.4-0.2-1-0.2l-0.1,0l0,0
		l-0.1,0l0,0v0l-0.1,0h0v0h-0.1c-0.2,0-0.3,0-0.3-0.1v0h0v0c0,0,0-0.1,0-0.2c0,0,0-0.1,0-0.2V5.4l0-0.1c0-0.2,0.1-0.3,0.3-0.4l0,0
		c0.2,0,0.3-0.1,0.3-0.1l0,0l0.2,0l0.5,0l0,0l0,0.1h0l0,0l0,0h0l0,0c0.1,0,0.1,0,0.1,0l0.1,0l0.1,0l0.1-0.1l0,0h0
		c0.1,0,0.2-0.1,0.3-0.2l0-0.1c0-0.1,0.1-0.2,0.1-0.4c-0.1-0.1-0.1-0.2-0.1-0.2l-0.1-0.1h0v0h0l-0.1-0.1c-0.2,0-0.3,0-0.3-0.1h0
		l-0.1,0l-0.1,0l0,0l0,0h-0.1l0,0c0,0-0.1,0-0.2,0l0,0l-0.1,0l-0.1,0c0,0-0.1,0-0.2,0l0,0l0,0l0,0v0l0,0c-0.1,0-0.2,0-0.3,0l0,0
		l-0.1,0l0,0l0,0l-0.1,0l0,0l-0.1,0h0c-0.1,0-0.2,0-0.3,0c-0.4,0-0.6,0-0.7,0l-0.1,0.1C18,3.7,18,4,18,4.5l0,0h0c0,0,0,0.3,0,0.7
		l0,0l0,0c0,0.2,0,0.4,0,0.5l0,0c0,0.2,0,0.3,0,0.5l0,0.1l0,0.1v0.2l0,0.1l0,0l0,0.1l0,0l0,0.2l0,0l0,0.4c0,0.1,0,0.2,0,0.2l0,0l0,0
		l0,0.1v0l0,0h0c0,0.1,0,0.2,0,0.3c0,0.3,0,0.6,0,0.7l0,0v0l0,0.1v0.1l0,0h0c0,0,0,0.2,0,0.5c0,0.3,0.1,0.5,0.2,0.5s0.3,0,0.3,0h0.1
		l0.1,0l0,0h0v0l0.1,0H19l0,0v0l0.1,0l0-0.1l0-0.8C19.1,9.3,19.1,9,19.2,8.9z"/>
</g>
</svg>
