<?xml version="1.0" encoding="utf-8"?>
<!-- Generator: Adobe Illustrator 25.4.1, SVG Export Plug-In . SVG Version: 6.00 Build 0)  -->
<svg version="1.1" id="Layer_1" xmlns="http://www.w3.org/2000/svg" xmlns:xlink="http://www.w3.org/1999/xlink" x="0px" y="0px"
	 viewBox="0 0 119.7 59.8" style="enable-background:new 0 0 119.7 59.8;" xml:space="preserve">
<style type="text/css">
	.st0{fill-rule:evenodd;clip-rule:evenodd;fill:#FF000D;}
	.st1{fill-rule:evenodd;clip-rule:evenodd;fill:#F9BF1A;}
	.st2{fill:#D8893E;}
	.st3{clip-path:url(#SVGID_00000109714296904617495080000003139881613191174053_);fill:#B0753D;}
	.st4{fill:#F3AD3D;}
	.st5{fill:#85C140;}
	.st6{clip-path:url(#SVGID_00000179642222051065149530000000518140412826798246_);fill:#B2D34C;}
	.st7{fill:#F6901F;}
	.st8{clip-path:url(#SVGID_00000047056476720141411210000001347919176340254849_);fill:#E4E41E;}
	.st9{clip-path:url(#SVGID_00000047056476720141411210000001347919176340254849_);fill:#3A315E;}
	.st10{clip-path:url(#SVGID_00000047056476720141411210000001347919176340254849_);fill:#FCF9D6;}
	.st11{clip-path:url(#SVGID_00000166637817903947459820000013284100477393695374_);fill:#E4E41E;}
	.st12{clip-path:url(#SVGID_00000166637817903947459820000013284100477393695374_);fill:#3A315E;}
	.st13{clip-path:url(#SVGID_00000166637817903947459820000013284100477393695374_);fill:#FCF9D6;}
	.st14{clip-path:url(#SVGID_00000076572018235846026770000004400784391828472763_);fill:#E4E41E;}
	.st15{clip-path:url(#SVGID_00000076572018235846026770000004400784391828472763_);fill:#3A315E;}
	.st16{clip-path:url(#SVGID_00000171707666271731405610000001563768309010200986_);fill:#E4E41E;}
	.st17{clip-path:url(#SVGID_00000171707666271731405610000001563768309010200986_);fill:#3A315E;}
</style>
<g>
	<g>
		<path class="st0" d="M61.2,29.1c-1.1,0.8-1.7,0.2-3,0.5C58.9,28.9,60.2,29.2,61.2,29.1z"/>
		<path class="st0" d="M34.4,33c-0.6,0-1.1-0.1-1.3-0.4C33.2,32.3,35.1,32.3,34.4,33z"/>
		<path class="st1" d="M102.9,44c-1.1,1.3-3.4,0.7-4.9,0.6C99.9,43.2,100.9,44.2,102.9,44z"/>
		<path class="st0" d="M99,46.1c0.6-0.5,1.7,0,2.3,0C100.9,46.6,99.7,46,99,46.1z"/>
		<path class="st0" d="M84.4,42.5c0.2-0.3,1.9-0.4,1.7,0.4C85.5,42.8,84.6,42.9,84.4,42.5z"/>
		<path class="st1" d="M69.7,48.5C67.4,50.7,94.4,48.2,91,48c1.3-2.2,3.2-0.6,4.9-0.6C97.4,47.5,69.1,47.6,69.7,48.5z"/>
		<path class="st1" d="M70.3,48.8c0.9,0.1,1.7,0.1,2.6,0.2C72.7,49.6,70.1,49.8,70.3,48.8z"/>
		<path class="st1" d="M90.6,47.8C90,48.7,88.3,47.9,87,48C88,46.5,89.5,47.2,90.6,47.8z"/>
		<path class="st1" d="M86.3,47.4c-2.3,1.5-4.5,0.3-7.9,0.3C80.8,46.6,84,47.2,86.3,47.4z"/>
		<path class="st1" d="M73.3,47.5c-0.6,1.3-2.6,0.3-3.8,0.4C70.4,46.8,73.1,46.7,73.3,47.5z"/>
		<path class="st1" d="M65.3,46.5c-0.2,0.7,1.7,0.4,2.3,0.9c-0.9,1.2-2.8,0.5-3.8,0.4C64,47.1,64.8,47.3,65.3,46.5z"/>
		<path class="st1" d="M63.1,47.6c-1.9,1.2-7.7,1.9-7.7-0.7C58,47.1,61.4,45.9,63.1,47.6z"/>
		<path class="st1" d="M54.2,47.1c0,0.7-0.6,0.6-0.6,1.2c-0.4-0.5-1.7-0.3-2.1-0.7C52.3,46.8,52.9,47.3,54.2,47.1z"/>
		<path class="st1" d="M32.9,58.6c0.4,0.6,2.1,0,1.7,1.1C34.4,59.9,32.7,59.6,32.9,58.6z"/>
		<path class="st1" d="M69.5,32.6c1.3-0.1,1.1,0,2.1-0.3c0-0.7-0.9,0.4-1.1-0.3c0.9-1,3-1.4,3.4-0.4c3.4-1.2,11.3-0.9,14.5,0.5
			c1.5-0.4,2.6-0.4,3,0.5c-0.2,0.3-0.6,0.2-0.6,0.2c1.1,1.3,2.8,0,4,0.6c0.6-1.1-1.7-0.1-1.5-0.9c1.7-0.6,5.3-0.1,6.6,0.6
			c-1.1-0.3-3.6-0.2-4.7-0.2c4.9,1.2,13,0.9,20,1.2 M104.9,33.9c-0.2,0.3,4.5,1.3,3.8,1.5c-0.9-0.1,2.5,2.6-5.9,0.9
			c-4.3,0.7-8.5,0.6-13.2,0.8c8.5,0.8,15.5,0.6,23,1c0.9,0,0,0.2,0,0.7c0.6,0.1,1.3,0.2,1.7-0.1c0-0.3-0.4-0.2-0.6-0.3
			c0.4-0.3,1.3-0.8,1.5-0.4c0,0.4-0.4,0.4-0.6,0.4c0.9,0.8,1.7,0.3,3.4,0.5c0,0.5-0.6,0.3-0.6,0.7c0.2,0.4,0.9,0.2,1.5,0.1
			c0.6,0-0.4-1.2,0.6-0.9c0.9,0.2-0.6,0.5-0.2,1.2c-2.6,0.7-6.8,3.9-8.1,4.8c-7,0.1-15.7-4.2-23.4-3.6c0.6,3.3,4.5-0.8,6.4,1
			c1.1-0.6,2.8,2.2,3.8,2.4c-5.1,1.6-9-1.6-14.7-0.6c-0.4,0.2,0.4,0.8-0.4,1.4c-4.3,0-8.7,1.1-13.2,0.8c-0.9,0.1-0.2,0.7-0.6,1.2
			C67.4,47.3,96.3,45,94.8,46c-10-1.2-20.2,0.6-30.4,0.3c-9.6-0.2-17.4-0.5-26.8-1.1c0.2-0.2,1.3-0.7,0.2-0.7
			c0.9-0.4,0.6-0.4,1.1-1.6c-1.7-0.7-1.3,1.7-1.9,2.3C24.4,45.9,10,44.4,0,44c0.6-1.3,3.2,0.5,3.6-1.4c1.1,0.3,1.1,0.2,1.9,0.7
			c-0.4-0.7,3-2.6,4.3-1.9c0.6-0.3,0.6-0.9,1.3-1.1c-3.4-0.8-5.3-0.2-7.9-0.2c3-1.4,7.9,0.5,9.4-2.6c3.2-1,6.6,0.5,8.7-0.2
			c0.6-0.2-18.4,1.5-17.8,1.3c1.1-0.4,2.6-1.6,3.9-1.9c2.8-0.6,1.2-2.6,14.5-3.5c12.8-3.3,25.1,0,30-1.5c1.3,0.2,1.3,0.2,2.6,0.2
			c-0.2,0.5-0.6,0.3-0.6,0.9c2.3,0.5,3.6-0.9,5.5,0c6.6-2.1,16.2-1.5,23.4-1.9c0.6,0.1,0.4-0.8,0.6-1.2 M79.7,32.6
			c2.8,1.4,5.3-0.3,8.3,0.5C86.1,31.6,81.8,32.4,79.7,32.6z M68.7,34.7c0.6,0,1.5,0.3,1.7-0.3C69.7,34.5,68.7,33.8,68.7,34.7z
			 M61.2,34.8c0.6-0.2,1.7-0.1,2.3-0.5C62.5,34.6,61.9,33.8,61.2,34.8z M22.7,39.7c0.9-0.4,2.6,0.4,3.2-0.5
			C24.9,38.8,23.6,39,22.7,39.7z M16.8,40.4c1.7-0.3,4,0.1,5.3-1c-1.3-0.1-4.3-0.8-5.7,0c0,0.8,1.1,0.3,1.1,0.6
			C16.8,40,15.7,40.3,16.8,40.4z M49.7,43.2c2.6,0.6,4.3-0.3,7.2,0.1C55.1,42.2,52.3,43.1,49.7,43.2z"/>
		<path class="st0" d="M102.6,41.7c0.2,0.9-2.1,1-3.2,1C100.1,41.9,102,41.9,102.6,41.7z"/>
		<path class="st1" d="M78.6,49.1c-0.2,0.3-2.1,0.6-3,0.2C76.7,48.3,77.3,49.5,78.6,49.1z"/>
	</g>
</g>
<g>
	<path d="M97.6,42.5L97.6,42.5L97.6,42.5L97.6,42.5L97.6,42.5z M97.4,35c-0.2,0-0.3,0.3-0.3,0.8l0,0.1l0,0l0,0.1l0,0.6l0,0.6l0,0.1
		l0,0.1c0,0.4,0,0.8,0,1l0,0l0,0v0.1l0,0c0,0,0,0.1-0.1,0.2l0,0l0,0.1l0,0.2v0.2l0,0.1l0,0l0,0.1v0.3c0,0.3,0,0.5,0,0.6l0,0h0l0,0.1
		v0l0,0.1l0,0l0,0.1l0,0l0,0.1l0,0.5c0,0.1,0,0.2,0,0.2c0,0.6,0.1,1,0.2,1c0,0.1,0.1,0.2,0.4,0.2l0.1,0l0.1,0
		c0.4-0.1,0.6-0.1,0.7-0.2l0-0.1l0.1-0.1v0h0l0-0.3l0,0l0-0.1c0-0.3,0-0.5-0.1-0.6h0c0-0.2,0-0.3,0-0.4l0-0.1l0-0.1l0-0.1l0-0.1
		v-0.2c0-0.1,0-0.2,0-0.2c0-0.1,0-0.2,0-0.2v-0.1c0-0.1,0-0.1,0-0.2c0-0.1,0-0.2,0.1-0.2h0c0.1,0.3,0.2,0.6,0.4,0.8
		c0.3,0.5,0.6,1.1,0.9,1.8c0.3,0.4,0.6,0.6,0.8,0.7c0.2,0,0.4,0.1,0.4,0.1h0l0,0v0l0.1,0l0.2,0l0.1,0l0,0l0.1-0.1
		c0.1-0.1,0.2-0.2,0.3-0.3v-0.1l0-0.1l0,0c0-0.1,0-0.2,0-0.3v-0.4l0,0l0-0.1l0,0l0-0.3l0-0.1l0-0.1c0-0.1,0-0.2,0-0.2v-0.3l0,0
		c0,0,0.1-0.1,0.1-0.3l0-0.2l0-0.1l0-0.1l0,0c0,0,0-0.2,0-0.5l0,0h0l0-0.1v-0.2c0-0.1,0-0.2,0-0.3l0-0.1l0-0.1l0-0.1l0-0.1v-0.3l0,0
		h0l0-0.5l0,0l0-0.1V37l0-0.2c0,0,0-0.1-0.1-0.2l0-0.4l0-0.1l0-0.2v-0.1l0-0.1l0,0l0,0l0-0.1c0-0.1,0-0.1,0-0.2
		c0-0.1-0.1-0.2-0.4-0.2h0c-0.1,0-0.1,0-0.2,0.1c-0.1,0-0.1,0-0.2,0h0l0,0v0c-0.2,0-0.2,0.1-0.2,0.1c-0.1,0-0.2,0.3-0.3,0.8
		c0,0.5,0.1,0.7,0.1,0.7c0,1.1,0.1,1.7,0.1,1.7h0l0,0.1l0,0.2c0,0.1,0,0.2,0,0.3v0.5l0,0.1l0,0.1v0.1l0,0.2h0c0,0,0-0.1-0.1-0.2
		c-0.2-0.8-0.4-1.3-0.5-1.7c-0.3-0.8-0.5-1.5-0.8-1.9c0-0.1-0.2-0.5-0.5-1.1c-0.2-0.2-0.5-0.2-0.7-0.2C97.5,34.9,97.4,34.9,97.4,35z
		 M92.1,42.3L92.1,42.3L92.1,42.3L92.1,42.3L92.1,42.3z M93.1,41.9L93.1,41.9L93.1,41.9L93.1,41.9L93.1,41.9z M93.2,41.5L93.2,41.5
		L93.2,41.5L93.2,41.5L93.2,41.5L93.2,41.5z M93.9,38.9L93.9,38.9L93.9,38.9L93.9,38.9L93.9,38.9L93.9,38.9z M93.3,38.8L93.3,38.8
		L93.3,38.8L93.3,38.8L93.3,38.8z M93.6,36L93.6,36L93.6,36L93.6,36L93.6,36z M93.7,35.4L93.7,35.4h-0.1v0L93.7,35.4L93.7,35.4z
		 M92.9,35.3L92.9,35.3L92.9,35.3L92.9,35.3L92.9,35.3L92.9,35.3z M91.9,35c-0.1,0-0.1,0.1-0.1,0.1c-0.1,0-0.2,0.3-0.1,0.9l0,0h0
		c0,0,0,0.3,0,0.9l0,0l0,0c0,0.2,0,0.4,0,0.5l0,0c0,0.2,0,0.4,0,0.6l0,0.1l0,0.1v0.3l0,0.1l0,0l0,0.2l0,0c0,0.1,0,0.2,0,0.3l0,0
		l0,0.5c0,0.1,0,0.2,0,0.2l0,0l0,0l0,0.1v0l0,0h0c0,0.1,0,0.3,0,0.4c0,0.4,0,0.7,0.1,0.8l0,0v0c0,0.1,0,0.1,0,0.1v0.1l0,0h0
		c0,0,0,0.2,0,0.6s0.1,0.5,0.3,0.5c0.2,0,0.3,0,0.4,0h0.1l0.1,0l0,0h0v0l0.1,0l0.1,0l0,0v0l0,0l0.2,0l0.1,0l0,0l0,0l0,0h0l0.1,0l0,0
		c0,0,0.1,0,0.2,0l0,0l0,0l0.1,0c0.2,0,0.3,0,0.4,0l0.1,0c0,0,0,0,0.1,0l0.1,0h0l0.1,0l0,0l0.1,0c0,0,0.1,0,0.2,0l0.1,0l0.1,0l0,0
		c0.2,0,0.3-0.1,0.3-0.2c0.1-0.4,0-0.6-0.1-0.8c0-0.1,0-0.2-0.1-0.2c0-0.1-0.1-0.2-0.3-0.2h-0.1l-0.1,0l0,0c0,0-0.2,0-0.6,0l-0.1,0
		l-0.5,0c-0.1,0-0.2,0-0.4,0c-0.2,0-0.3,0-0.2-0.1l0-0.8l0-0.1c0-0.2,0-0.3,0-0.3h0l0-0.1l0,0v0l0-0.1v0h0c0-0.4,0.1-0.6,0.4-0.6
		h0.2c0,0,0.1,0,0.2,0h0.2l0.2,0l0,0l0.1,0c0.1,0,0.2,0,0.2,0c0.2,0,0.3-0.1,0.4-0.2c0-0.2,0.1-0.3,0.1-0.3l0-0.1v-0.1
		c0-0.2,0-0.3-0.1-0.5c-0.1-0.2-0.5-0.2-1.1-0.2l-0.2,0l0,0l-0.1,0l0,0v0l-0.1,0h0v0h-0.1c-0.2,0-0.3,0-0.3-0.1v0h0v-0.1
		c0-0.1,0-0.1-0.1-0.3c0-0.1,0-0.1,0-0.3V37l0-0.1c0-0.2,0.1-0.4,0.3-0.5l0,0c0.2,0,0.3-0.1,0.4-0.1l0,0l0.2,0l0.6,0l0,0l0,0.1h0
		l0,0l0,0h0l0,0c0.1,0,0.2,0,0.2,0l0.1-0.1l0.1,0l0.1-0.1l0,0h0c0.1,0,0.2-0.1,0.4-0.2l0-0.1c0-0.1,0.1-0.3,0.1-0.5
		c-0.1-0.2-0.1-0.2-0.1-0.3l-0.1-0.1h0v0h0l-0.1-0.1c-0.2,0-0.3,0-0.3-0.1h0l-0.1,0l-0.1,0l0,0l0,0h-0.1l0,0c0,0-0.1,0-0.2,0l0,0
		l-0.1,0l-0.1,0c0,0-0.1,0-0.2,0l0,0l0,0l0,0v0l0,0c-0.1,0-0.2,0-0.3-0.1l0,0l-0.1,0l0,0l0,0l-0.1,0l0,0L93,35h0c-0.1,0-0.2,0-0.3,0
		C92.2,35,92,35,91.9,35z M86.7,42.3L86.7,42.3L86.7,42.3L86.7,42.3L86.7,42.3z M87.7,41.9L87.7,41.9L87.7,41.9L87.7,41.9L87.7,41.9
		z M87.8,41.5L87.8,41.5L87.8,41.5L87.8,41.5L87.8,41.5L87.8,41.5z M88.5,38.9L88.5,38.9L88.5,38.9L88.5,38.9L88.5,38.9L88.5,38.9z
		 M87.9,38.8L87.9,38.8L87.9,38.8L87.9,38.8L87.9,38.8z M88.2,36L88.2,36L88.2,36L88.2,36L88.2,36z M88.3,35.4L88.3,35.4h-0.1v0
		L88.3,35.4L88.3,35.4z M87.5,35.3L87.5,35.3L87.5,35.3L87.5,35.3L87.5,35.3L87.5,35.3z M86.5,35c-0.1,0-0.1,0.1-0.1,0.1
		c-0.1,0-0.2,0.3-0.1,0.9l0,0h0c0,0,0,0.3,0,0.9l0,0l0,0c0,0.2,0,0.4,0,0.5l0,0c0,0.2,0,0.4,0,0.6l0,0.1l0,0.1v0.3l0,0.1l0,0l0,0.2
		l0,0c0,0.1,0,0.2,0,0.3l0,0l0,0.5c0,0.1,0,0.2,0,0.2l0,0l0,0l0,0.1v0l0,0h0c0,0.1,0,0.3,0,0.4c0,0.4,0,0.7,0.1,0.8l0,0v0
		c0,0.1,0,0.1,0,0.1v0.1l0,0h0c0,0,0,0.2,0,0.6c0,0.4,0.1,0.5,0.3,0.5c0.2,0,0.3,0,0.4,0h0.1l0.1,0l0,0h0v0l0.1,0l0.1,0l0,0v0l0,0
		l0.2,0l0.1,0l0,0l0,0l0,0h0l0.1,0l0,0c0,0,0.1,0,0.2,0l0,0l0,0l0.1,0c0.2,0,0.3,0,0.4,0l0.1,0c0,0,0,0,0.1,0l0.1,0h0l0.1,0l0,0
		l0.1,0c0,0,0.1,0,0.2,0l0.1,0l0.1,0l0,0c0.2,0,0.3-0.1,0.3-0.2c0.1-0.4,0-0.6-0.1-0.8c0-0.1,0-0.2-0.1-0.2c0-0.1-0.1-0.2-0.3-0.2
		h-0.1l-0.1,0l0,0c0,0-0.2,0-0.6,0l-0.1,0l-0.5,0c-0.1,0-0.2,0-0.4,0c-0.2,0-0.3,0-0.2-0.1l0-0.8l0-0.1c0-0.2,0-0.3,0-0.3h0l0-0.1
		l0,0v0l0-0.1v0h0c0-0.4,0.1-0.6,0.4-0.6h0.2c0,0,0.1,0,0.2,0h0.2l0.2,0l0,0l0.1,0c0.1,0,0.2,0,0.2,0c0.2,0,0.3-0.1,0.4-0.2
		c0-0.2,0.1-0.3,0.1-0.3l0-0.1v-0.1c0-0.2,0-0.3-0.1-0.5c-0.1-0.2-0.5-0.2-1.1-0.2l-0.2,0l0,0l-0.1,0l0,0v0l-0.1,0h0v0h-0.1
		c-0.2,0-0.3,0-0.3-0.1v0h0v-0.1c0-0.1,0-0.1-0.1-0.3c0-0.1,0-0.1,0-0.3V37l0-0.1c0-0.2,0.1-0.4,0.3-0.5l0,0c0.2,0,0.3-0.1,0.4-0.1
		l0,0l0.2,0l0.6,0l0,0l0,0.1h0l0,0l0,0h0l0,0c0.1,0,0.2,0,0.2,0l0.1-0.1l0.1,0l0.1-0.1l0,0h0c0.1,0,0.2-0.1,0.4-0.2l0-0.1
		c0-0.1,0.1-0.3,0.1-0.5c-0.1-0.2-0.1-0.2-0.1-0.3l-0.1-0.1h0v0h0l-0.1-0.1c-0.2,0-0.3,0-0.3-0.1h0l-0.1,0l-0.1,0l0,0l0,0h-0.1l0,0
		c0,0-0.1,0-0.2,0l0,0l-0.1,0l-0.1,0c0,0-0.1,0-0.2,0l0,0l0,0l0,0v0l0,0c-0.1,0-0.2,0-0.3-0.1l0,0l-0.1,0l0,0l0,0l-0.1,0l0,0l-0.1,0
		h0c-0.1,0-0.2,0-0.3,0C86.9,35,86.6,35,86.5,35z M80.9,39.5c0.1,0.5,0.2,0.8,0.3,1l0,0c0.2,0.7,0.3,1.2,0.3,1.3
		c0.1,0.2,0.1,0.3,0.1,0.3c0,0.1,0.1,0.2,0.1,0.3s0.1,0.2,0.2,0.4c0,0.1,0.2,0.1,0.4,0.1l0.1,0v0l0,0h0.3l0,0l0,0
		c0.4,0,0.6,0,0.7-0.2l0.4-1.7v-0.2c0-0.3,0.1-0.7,0.2-1l0.3-1.5l0,0l0-0.1v-0.2l0.1-0.2l0,0l0.1-0.6l0,0c0,0,0.1-0.2,0.1-0.4
		l0.2-1.1c0-0.1,0-0.2,0-0.3v0L84.7,35c0-0.1-0.2-0.1-0.5,0h0c-0.1,0-0.3,0-0.4,0c0,0-0.1,0-0.2,0.1c-0.1,0-0.1,0.1-0.2,0.3
		c0,0.3-0.1,0.6-0.2,1c0,0.1,0,0.2-0.1,0.3l0,0.1c0,0-0.1,0.4-0.2,1.2l0,0c-0.1,0.2-0.1,0.3-0.1,0.5l0,0h0l0,0.1l0,0.1
		c-0.1,0.2-0.2,0.7-0.3,1.5h0c-0.1-0.3-0.2-0.7-0.3-1.3c0-0.1-0.1-0.3-0.1-0.5l0-0.2h0c0-0.3-0.1-0.6-0.1-0.7l0,0l-0.1-0.8v-0.1
		c0,0-0.1-0.1-0.1-0.3l0-0.1l0,0c0-0.2-0.1-0.4-0.1-0.5l0-0.1l0-0.1l0-0.1c-0.1-0.1-0.2-0.2-0.2-0.2l-0.1,0c0,0-0.2,0-0.4-0.1l0,0
		c-0.1,0-0.1,0-0.1,0c-0.3,0-0.4,0-0.4,0.1l-0.1,0l-0.1,0c0,0-0.1,0.1-0.2,0.2l0,0.1l0,0.1l0,0c-0.1,0.1-0.1,0.3-0.1,0.5l0,0l0,0.1
		c0,0.2-0.1,0.3-0.1,0.3v0.1l-0.1,0.8l0,0c0,0.1-0.1,0.4-0.1,0.7h0l0,0.2c0,0.2-0.1,0.4-0.1,0.5c-0.1,0.6-0.2,1.1-0.3,1.3h0
		c-0.1-0.7-0.2-1.2-0.3-1.4l0-0.2l0-0.1h0l0,0c-0.1-0.3-0.2-0.8-0.3-1.4s-0.2-1.2-0.2-1.8c-0.1-0.2-0.2-0.4-0.3-0.4
		c-0.1,0-0.2,0-0.2,0c-0.1,0-0.2,0-0.4,0h0c-0.3,0-0.5,0-0.5,0c-0.1,0-0.2,0-0.2,0l0,0.1c0,0,0,0.2,0,0.4l0.2,1.1
		c0,0.2,0.1,0.4,0.1,0.4l0,0l0.1,0.6l0,0l0.1,0.2V38l0,0.1l0,0l0.3,1.5c0.1,0.4,0.1,0.7,0.2,1l0.5,1.9c0,0.2,0.2,0.3,0.6,0.3l0,0
		l0,0h0.3l0,0v0l0.1,0c0.2,0,0.4,0,0.4,0c0.1,0,0.2-0.1,0.2-0.3c0-0.2,0.1-0.3,0.1-0.3c0.1,0,0.1-0.2,0.1-0.4
		c0.1-0.2,0.2-0.6,0.4-1.3l0,0c0.1-0.1,0.2-0.5,0.3-1c0-0.2,0.1-0.3,0.1-0.5C80.9,39.1,80.9,39.3,80.9,39.5z M83.6,35.5L83.6,35.5
		L83.6,35.5L83.6,35.5L83.6,35.5L83.6,35.5z M78,35.4L78,35.4L78,35.4L78,35.4L78,35.4L78,35.4z M72.9,36.7c0.1-0.1,0.3-0.2,0.5-0.2
		h0.1l0.1,0l0,0l0,0c0.2,0,0.3,0.1,0.5,0.3l0,0c0.1,0.3,0.1,0.4,0.1,0.5l0,0l0,0.1l0,0v0l0,0h0c0,0.2,0,0.3,0,0.3l0,0v0l0,0.1l0,0.1
		v0.1l0,0.1l0,0l0,0l0,0.2v0.1l0,0l0,0l0,0c0,0,0,0.1,0,0.2l0,0h0l0,0.4l0,0l0,0l0,0.1l0,0l0,0.5l0,0l0,0l0,0h0
		c0,0.5-0.1,0.7-0.1,0.8c-0.1,0.3-0.3,0.5-0.7,0.5c-0.3-0.1-0.4-0.3-0.5-0.5c-0.1-0.4-0.2-0.8-0.3-1.1l0,0l0-0.1h0
		c0-0.1,0-0.3-0.1-0.4l0,0c0-0.2,0-0.4,0-0.5l0-0.1l0-0.1v-0.1l0-0.1l0,0l0,0v0l0-0.1c0,0,0-0.1,0-0.4l0-0.1
		c0.1-0.4,0.1-0.5,0.1-0.6l0,0C72.7,36.9,72.8,36.7,72.9,36.7z M72.6,35.1L72.6,35.1L72.6,35.1c-0.1,0-0.3,0.1-0.6,0.2
		c-0.2,0.1-0.3,0.2-0.4,0.3c-0.2,0.3-0.3,0.7-0.3,1v0.1l0,0.1l0,0l0,0l0,0.1l0,0.1c0,0.1-0.1,0.4-0.1,0.7l0,0.1l0,0l0,0h0
		c0,0.1,0,0.2,0,0.3v0.5c0,0.1,0,0.3,0,0.6l0,0.1l0,0l0,0l0,0.1c0,0.2,0,0.3,0,0.3c0,0.1,0,0.2,0,0.4l0,0c0,0.2,0.1,0.4,0.1,0.6v0.1
		c0.1,0.2,0.1,0.3,0.1,0.4c0.1,0.6,0.2,0.9,0.3,0.9c0.1,0.1,0.1,0.2,0.2,0.3c0.5,0.3,1,0.4,1.5,0.4l0,0c0.2,0,0.3,0,0.4,0h0
		c0.3,0,0.5-0.1,0.6-0.2c0.2,0,0.5-0.2,0.8-0.6c0.1-0.1,0.2-0.4,0.3-0.9l0,0l0,0c0-0.1,0-0.3,0-0.7l0-0.1c0,0,0-0.1,0-0.2
		c0-0.1,0-0.2,0-0.2c0-0.1,0-0.3,0-0.6c0-0.2,0-0.6-0.1-1.1c0-0.1,0-0.2,0-0.3c0,0,0-0.1,0-0.2l0,0l0-0.1v0c0-0.3,0-0.5-0.1-0.6h0
		c0-0.1,0-0.2-0.1-0.4c0-0.4-0.1-0.7-0.4-1c-0.2-0.1-0.4-0.3-0.7-0.5L73.5,35C73,35,72.7,35,72.6,35.1z M67.2,41.9L67.2,41.9
		L67.2,41.9L67.2,41.9L67.2,41.9z M66.8,41.8L66.8,41.8L66.8,41.8L66.8,41.8L66.8,41.8z M67.4,41.1L67.4,41.1L67.4,41.1L67.4,41.1
		L67.4,41.1z M66,40.6L66,40.6L66,40.6L66,40.6L66,40.6z M66.2,35.3l-0.1,0.1c0,0,0,0.1-0.1,0.3l0,0l0,0.2l0,0.1l0,0l0,0L66,36.1
		l0,0.1l0,0.1l0,0l0,0v0c0,0,0,0.1,0,0.2l0,0.1l0,0.1l0,0.1l0,0.1l0,0l0,0l0,0l0,0.1l0,0.1c0,0.1,0,0.2,0,0.2l0,0h0l0,0.2
		c0,0,0,0.1,0,0.2l0,0h0l0,0.1c0,0,0,0.1,0,0.2l0,0l0,0.1v0l0,0l0,0.1v0l0,0c0,0,0,0.1,0,0.2l0,0.1h0c0,0.2,0,0.4,0,0.4l0,0l0,0l0,0
		l0,0l0,0v0.1l0,0c0,0,0,0.1,0,0.2l0,0l0,0.1v0l0,0l0,0l0,0.1c0,0,0,0,0,0.1l0,0h0v0l0,0h0l0,0.1l0,0.1l0,0.1l0,0l0,0.1l0,0l0,0
		l0,0.1l0,0l0,0.1l0,0l0,0l0,0v0l0,0.1c0,0.1,0,0.2,0,0.3l0,0h0l0,0.1l0,0.1l0,0l0,0.2l0,0l0,0l0,0l0,0.1l0,0l0,0l0,0.2l0,0.1l0,0
		l0,0.2v0l0,0c0,0.3,0,0.5,0.1,0.5c0,0.1,0.4,0.1,1.2,0.1l0,0l0,0h0.1c0,0,0.3,0,0.9,0l0,0c0.2,0,0.5,0,0.9,0h0
		c0.1,0,0.3-0.1,0.4-0.2c0.1-0.1,0.2-0.3,0.2-0.5c0-0.2-0.1-0.4-0.2-0.5c0-0.1-0.3-0.1-0.8-0.2l0,0l-0.1,0l0,0c-0.2,0-0.4,0-0.7,0
		l-0.2,0h-0.3l-0.2-0.1l0,0l0-0.1c0-0.5,0-0.8-0.1-0.9l0,0l0,0l0,0l0-0.1l0,0l0-0.1l0-0.2l0-0.2l0-0.1v-0.1l0,0l0,0v-0.1l0,0h0
		c0-0.1,0-0.2,0-0.4l0,0c0-0.1,0-0.2,0-0.2v-0.1l0-0.2l0-0.1l0-0.1l0-0.1c0-0.1,0-0.2,0-0.4l0,0l0,0v0c0-0.2,0-0.3,0-0.4l0-0.1l0,0
		l0,0l0-0.1l0,0l0-0.1l0,0l0,0v-0.1l0-0.1l0,0c0,0,0-0.1,0-0.3l0,0l0-0.1v-0.1l0,0l0-0.1c0,0,0-0.1,0-0.2c0-0.2,0-0.3,0-0.3
		c0-0.4-0.2-0.6-0.4-0.6l-0.1,0l-0.1,0l-0.1,0C66.4,35,66.2,35.1,66.2,35.3z M61.6,41.9L61.6,41.9L61.6,41.9L61.6,41.9L61.6,41.9z
		 M61.2,41.8L61.2,41.8L61.2,41.8L61.2,41.8L61.2,41.8z M61.8,41.1L61.8,41.1L61.8,41.1L61.8,41.1L61.8,41.1z M60.4,40.6L60.4,40.6
		L60.4,40.6L60.4,40.6L60.4,40.6z M60.6,35.3l-0.1,0.1c0,0,0,0.1-0.1,0.3l0,0l0,0.2l0,0.1l0,0l0,0l-0.1,0.1l0,0.1l0,0.1l0,0l0,0v0
		c0,0,0,0.1,0,0.2l0,0.1l0,0.1l0,0.1l0,0.1l0,0l0,0l0,0l0,0.1l0,0.1c0,0.1,0,0.2,0,0.2l0,0h0l0,0.2c0,0,0,0.1,0,0.2l0,0h0l0,0.1
		c0,0,0,0.1,0,0.2l0,0l0,0.1v0l0,0l0,0.1v0l0,0c0,0,0,0.1,0,0.2l0,0.1h0c0,0.2,0,0.4,0,0.4l0,0l0,0l0,0l0,0l0,0v0.1l0,0
		c0,0,0,0.1,0,0.2l0,0l0,0.1v0l0,0l0,0l0,0.1c0,0,0,0,0,0.1l0,0h0v0l0,0h0l0,0.1l0,0.1l0,0.1l0,0l0,0.1l0,0l0,0l0,0.1l0,0l0,0.1l0,0
		l0,0l0,0v0l0,0.1c0,0.1,0,0.2,0,0.3l0,0h0l0,0.1l0,0.1l0,0l0,0.2l0,0l0,0l0,0l0,0.1l0,0l0,0l0,0.2l0,0.1l0,0l0,0.2v0l0,0
		c0,0.3,0,0.5,0.1,0.5c0,0.1,0.4,0.1,1.2,0.1l0,0l0,0h0.1c0,0,0.3,0,0.9,0l0,0c0.2,0,0.5,0,0.9,0h0c0.1,0,0.3-0.1,0.4-0.2
		c0.1-0.1,0.2-0.3,0.2-0.5c0-0.2-0.1-0.4-0.2-0.5c0-0.1-0.3-0.1-0.8-0.2l0,0l-0.1,0l0,0c-0.2,0-0.4,0-0.7,0l-0.2,0h-0.3l-0.2-0.1
		l0,0l0-0.1c0-0.5,0-0.8-0.1-0.9l0,0l0,0l0,0l0-0.1l0,0l0-0.1l0-0.2l0-0.2l0-0.1v-0.1l0,0l0,0v-0.1l0,0h0c0-0.1,0-0.2,0-0.4l0,0
		c0-0.1,0-0.2,0-0.2v-0.1l0-0.2l0-0.1l0-0.1l0-0.1c0-0.1,0-0.2,0-0.4l0,0l0,0v0c0-0.2,0-0.3,0-0.4l0-0.1l0,0l0,0l0-0.1l0,0l0-0.1
		l0,0l0,0v-0.1l0-0.1l0,0c0,0,0-0.1,0-0.3l0,0l0-0.1v-0.1l0,0l0-0.1c0,0,0-0.1,0-0.2c0-0.2,0-0.3,0-0.3c0-0.4-0.2-0.6-0.4-0.6
		l-0.1,0l-0.1,0l-0.1,0C60.9,35,60.7,35.1,60.6,35.3z M56.7,37.8c0.1-0.3,0.1-0.5,0.1-0.5c0,0,0.1,0.1,0.2,0.4h0
		c0,0.3,0.1,0.4,0.1,0.5l0,0.1v0l0,0l0,0.2v0.1l0,0.1l0,0v0l0,0c-0.1,0-0.2,0-0.5,0l-0.1,0v-0.1c0-0.1,0-0.1,0-0.2v0l0,0
		C56.6,38.2,56.7,38,56.7,37.8z M56,35.3c-0.1,0.2-0.2,0.4-0.2,0.4l-0.1,0.4l0,0l0,0c-0.1,0.2-0.2,0.5-0.3,0.9l0,0l0,0
		c0,0-0.1,0.2-0.2,0.6c-0.1,0.4-0.1,0.6-0.1,0.6v0l0,0h0c0,0.1,0,0.2-0.1,0.2c-0.1,0.5-0.1,0.7-0.2,0.7l0,0.1
		c-0.1,0.4-0.1,0.6-0.2,0.7l0,0c0,0.1-0.1,0.2-0.1,0.2l0,0c-0.1,0.3-0.1,0.5-0.1,0.6l0,0l0,0.1l0,0h0c0,0.3-0.1,0.5-0.1,0.5l0,0
		l0,0.1l0,0c0,0.1,0,0.2-0.1,0.5c0,0.1,0,0.2,0,0.2c0.1,0.2,0.3,0.3,0.6,0.3c0.4,0,0.6,0,0.6-0.1c0-0.1,0.1-0.2,0.2-0.3
		c0.1-0.1,0.1-0.4,0.1-0.9l0,0c0-0.1,0.1-0.2,0.1-0.2l0,0l0-0.1l0,0c0-0.1,0.1-0.2,0.1-0.5l0,0l0,0c0-0.2,0.2-0.3,0.6-0.3h0.1
		c0.2,0,0.3,0,0.3,0.1c0.1,0,0.1,0.4,0.2,1.2l0,0c0,0,0,0.1,0,0.3c0,0.4,0.1,0.6,0.3,0.6c0,0.1,0.2,0.1,0.7,0.1
		c0.2,0,0.4-0.1,0.6-0.4l0-0.2c-0.1-0.8-0.2-1.2-0.2-1.4l0,0h0l-0.1-0.5l0,0l0-0.1l0,0l0-0.1V40c0-0.1,0-0.2,0-0.3
		c0-0.3-0.1-0.5-0.2-0.7c-0.1-0.6-0.1-1-0.2-1.3l0,0c0-0.1-0.1-0.2-0.1-0.2c-0.1-0.5-0.1-0.7-0.2-0.8h0l0-0.3l0,0
		c0-0.2-0.1-0.4-0.2-0.6c-0.1-0.3-0.3-0.4-0.5-0.5c0-0.1-0.2-0.1-0.6-0.1l-0.1,0l0,0C56.3,35.1,56.1,35.2,56,35.3z M49.1,35.1
		l-0.2,0.3l0,0h0c0,0-0.1,0.1-0.1,0.2l0,0v0l0,0l0,0.1l-0.1,0.1l0,0l0,0v0l0,0l0,0l0,0v0h0v0l0,0l0,0.1l0,0.1l0,0l0,0l0,0.1l0,0.1
		l0,0.1l0,0l0,0l0,0l0,0l0,0h0l0,0c0,0,0,0.1,0,0.2l0,0.2l0,0l0,0.1l0,0l0,0l0,0l0,0v0l0,0l0,0v0l0,0l0,0v0l0,0c0,0,0,0.1,0,0.2
		l0,0.1c0,0.1,0,0.2-0.1,0.2l0.1,0.1l0,0.2l0,0.1l0,0l0,0.1l0,0.1l0,0.1l0,0c0,0.1,0,0.2,0,0.2h0l0,0.1c0,0.1,0,0.2,0,0.2l0,0l0,0.1
		l0,0.1l0,0l0,0l0,0l0,0.1l0,0l0,0c0,0,0,0.1,0,0.3l0,0.1l0,0.1l0,0.1l0,0.2l0,0l0,0v0l0,0l0,0.2l0,0.1l0,0l0,0l0,0v0l0,0.1l0,0l0,0
		c0,0,0,0.1,0,0.2l0,0.1l0,0v0l0,0v0l0,0.1l0,0l0,0.1l0,0.1l0,0v0.1l0,0.1l0,0l0,0.1l0,0.1l0,0h0c0,0.2,0,0.3,0.1,0.3l0,0l0,0.1
		c0,0.2,0.1,0.4,0.3,0.4l0.1,0l0,0c0.2,0,0.3,0,0.2,0c0.2,0,0.4,0,0.6-0.1c0-0.3,0.1-0.4,0.1-0.4v0l0,0v-0.1l0-1l0,0
		c0-0.1,0-0.1,0-0.2l0-0.7c0-0.1,0-0.2,0-0.4c0.1-0.1,0.1-0.2,0.3-0.2l0,0l0.1,0l0,0l0.1,0l0.2,0l0.1,0l0,0c0.2,0.1,0.4,0.2,0.4,0.3
		l0,0l0,0.2l0,0l0,0l0,0l0,0.1l0,0l0,0l0,0l0,0l0,0l0,0l0,0l0,0l0,0l0,0l0,0l0,0.1l0,0l0,0l0,0l0,0.2l0,0l0,0l0,0.1l-0.1,0l0,0l0,0
		l0,0v0l0.1,0.2l0,0.1l0,0.1l0,0.1l0,0l0,0c0,0.1,0,0.2,0.1,0.2l0,0.1l0,0l0,0l0,0l0.1,0.2l0,0l0,0.1c0,0,0,0.1,0.1,0.2h0l0,0
		c0.1,0,0.1,0,0.3,0l0.1,0l0.1,0l0,0l0,0c0.4,0,0.6,0,0.6-0.1c0.1,0,0.1-0.3,0.1-0.7l0-0.8l0-0.2l0,0c0-0.2,0-0.3,0-0.4
		c0,0-0.1-0.1-0.1-0.2l0-0.1c0-0.1,0-0.2,0-0.4l0,0h0l0-0.1l0-0.2l0-0.1l0-0.1l0-0.1c0-0.1,0-0.2,0-0.2l0,0l0,0l0-0.4l0-0.1l0,0
		l0-0.2l0-0.2l0,0l0-0.1l0,0l0,0h0l0-0.2l0-0.3l0-0.1l0,0l0-0.1l0-0.1l0,0l0-0.1v0l0-0.1l0-0.1v0l0-0.1l0-0.1l0-0.3l0-0.1
		c0,0,0-0.2,0-0.5l0,0l0-0.1l0-0.1l0,0c0,0,0-0.1,0-0.2c0,0,0,0-0.1-0.1c0,0-0.1,0-0.2-0.1c-0.5,0-0.9,0-1,0.1l0,0l-0.1,0l0,0l0,0h0
		l0,0l0,0l0-0.1c0,0.1,0,0.2,0,0.2l0,0.1l0,0.1l0,0h0l0,0.3v0.1l0,0l0,0l0,0.2l0,0.1l0,0l0,0l0,0.1l0,0c0,0.1,0,0.2,0,0.2l0,0l0,0.1
		v0l0,0l0,0l0,0l0,0c0,0,0,0,0,0.1l0,0.1l0,0l0,0.2l0,0.1l0,0l0,0l0,0l0,0l0,0.1l0,0h0v0l0,0.1l0,0l0,0.1l0,0l-0.1,0.4l0,0l0,0v0
		l0,0l-0.1,0.1h-0.1c-0.2,0-0.3,0-0.5,0c-0.1,0-0.3-0.1-0.3-0.2l0,0c0-0.2,0-0.3,0-0.3l0,0l0,0l0-0.1l0,0l0-0.2l0-0.1l0-0.1l0,0
		l0-0.1l0-0.1l0-0.1l0-0.1v0l0,0h0l0-0.2l0,0l0,0c0-0.1,0-0.2,0-0.4c0-0.1,0-0.2,0-0.4l0,0h0c0-0.3-0.1-0.5-0.1-0.5
		c0-0.1-0.1-0.2-0.4-0.3h0l-0.1,0l-0.2,0l0,0l0,0l-0.1,0C49.3,35,49.2,35,49.1,35.1z M41.3,35.6L41.3,35.6L41.3,35.6L41.3,35.6
		L41.3,35.6z M40.7,36.3L40.7,36.3L40.7,36.3z M43.7,38.9L43.7,38.9c-0.1,0-0.1,0-0.2,0l0,0l0,0c0,0,0,0-0.1,0l0,0l-0.1,0l0,0
		l-0.1,0L42.8,39c-0.1,0.1-0.1,0.4,0,0.7h0c0.1,0.1,0.1,0.2,0.2,0.2s0.3,0.1,0.9,0.1c0.1,0,0.1,0.3,0,0.9l0,0.1l0,0h0
		c0,0.1,0,0.2-0.1,0.3c0,0.1-0.2,0.1-0.5,0.2l-0.1-0.1c-0.3,0-0.4-0.1-0.5-0.3c-0.1,0-0.1-0.2-0.2-0.5l0,0c0-0.1,0-0.2,0-0.2h0
		l0-0.1c0-0.2,0-0.3,0-0.4l0,0v0l0,0l0,0l0-0.1l0,0l0-0.1l0,0l0,0l0,0l0-0.1c0-0.2,0-0.3,0-0.3v0l0,0l0,0l0-0.5l0,0l0,0l0-0.3l0,0
		l0,0l0-0.1l0-0.1l0,0c0-0.2,0-0.3,0-0.3c0-0.2,0.1-0.5,0.2-0.9c0.1-0.2,0.3-0.3,0.6-0.6c0.1,0,0.2,0,0.3,0.1c0.1,0,0.2,0.1,0.3,0.4
		c0.1,0.1,0.1,0.3,0.1,0.6l0,0l0,0.2l0,0.1c0,0,0,0.1,0.1,0.2c0,0,0.2,0,0.5,0.1c0.2,0,0.3-0.1,0.4-0.2c0.1-0.1,0.2-0.2,0.2-0.3l0,0
		h0l0,0h0l0,0v0l0,0c0,0,0-0.1,0-0.3l0,0l0-0.1l0-0.1l0-0.1l0,0l0,0l0-0.2l0,0c0-0.2-0.1-0.4-0.2-0.8c0-0.1-0.1-0.2-0.1-0.2
		c-0.1-0.2-0.3-0.3-0.5-0.4c-0.1,0-0.2-0.1-0.2-0.1c-0.1-0.1-0.4-0.1-0.8-0.1c0,0-0.1,0-0.4,0.1c-0.2,0.1-0.4,0.2-0.6,0.3l-0.3,0.2
		l-0.1,0.1l-0.4,0.6l0,0.1c-0.1,0.1-0.1,0.2-0.1,0.2l0,0c-0.1,0.2-0.1,0.3-0.2,0.6l0,0c0,0.1-0.1,0.2-0.1,0.4l0,0l0,0.2l0,0.1l0,0
		l0,0.1l0,0.1c0,0.1,0,0.2-0.1,0.4l0,0.1l0,0l0,0.1l0,0c0,0,0,0.2,0,0.4l0,0l0,0l0,0.2l0,0.1l0,0.1l0,0.1l0,0l0,0.1l0,0.1l0,0.1
		l0,0.1l0,0l0,0c0,0.1,0,0.2,0,0.2l0,0.1l0,0l0,0c0,0.4,0.1,0.6,0.1,0.6c0,0.1,0,0.2,0,0.2c0,0,0,0.1,0.1,0.2l0,0.2
		c0,0,0,0.1,0.1,0.2c0,0.2,0.2,0.4,0.5,0.6c0.2,0.2,0.6,0.3,1,0.4l0.1,0h0c0,0,0.2,0,0.5,0l0.1,0l0.1,0c0.2,0,0.3,0,0.3-0.1
		c0.3-0.1,0.5-0.1,0.6-0.2c0.1,0,0.2-0.1,0.2-0.2c0.1-0.2,0.2-0.3,0.2-0.3c0,0,0.1-0.2,0.2-0.4l0,0l0.1-0.1l0,0l0,0l0-0.1
		c0-0.1,0-0.2,0.1-0.3l0-0.1l0-0.1v0l0,0l0-0.1l0,0l0-0.1l0-0.2l0-0.1l0,0l0,0l0-0.1l0-0.1l0,0l0,0l0,0c0,0,0-0.1,0-0.2l0-0.1l0,0
		l0-0.1l0-0.1l0,0l0-0.1l0-0.1l0,0v0l0,0l0-0.1l0,0l0,0c0-0.1-0.1-0.2-0.4-0.2l0,0l-0.2,0h0l0,0l0,0h0l0,0l-0.1,0L43.7,38.9
		L43.7,38.9L43.7,38.9L43.7,38.9z M35.5,42.5L35.5,42.5L35.5,42.5L35.5,42.5L35.5,42.5z M35.2,35c-0.2,0-0.3,0.3-0.3,0.8l0,0.1l0,0
		l0,0.1l0,0.6l0,0.6l0,0.1l0,0.1c0,0.4,0,0.8,0,1l0,0l0,0v0.1l0,0c0,0,0,0.1-0.1,0.2l0,0l0,0.1l0,0.2v0.2l0,0.1l0,0l0,0.1v0.3
		c0,0.3,0,0.5,0,0.6l0,0h0l0,0.1v0l0,0.1l0,0l0,0.1l0,0l0,0.1l0,0.5c0,0.1,0,0.2,0,0.2c0,0.6,0.1,1,0.2,1c0,0.1,0.1,0.2,0.4,0.2
		l0.1,0l0.1,0c0.4-0.1,0.6-0.1,0.7-0.2l0-0.1l0.1-0.1v0h0l0-0.3l0,0l0-0.1c0-0.3,0-0.5-0.1-0.6h0c0-0.2,0-0.3,0-0.4l0-0.1l0-0.1
		l0-0.1l0-0.1v-0.2c0-0.1,0-0.2,0-0.2c0-0.1,0-0.2,0-0.2v-0.1c0-0.1,0-0.1,0-0.2c0-0.1,0-0.2,0.1-0.2h0c0.1,0.3,0.2,0.6,0.4,0.8
		c0.3,0.5,0.6,1.1,0.9,1.8c0.3,0.4,0.6,0.6,0.8,0.7c0.2,0,0.4,0.1,0.4,0.1h0l0,0v0l0.1,0l0.2,0l0.1,0l0,0l0.1-0.1
		c0.1-0.1,0.2-0.2,0.3-0.3v-0.1l0-0.1l0,0c0-0.1,0-0.2,0-0.3v-0.4l0,0l0-0.1l0,0l0-0.3l0-0.1l0-0.1c0-0.1,0-0.2,0-0.2v-0.3l0,0
		c0,0,0.1-0.1,0.1-0.3l0-0.2l0-0.1l0-0.1l0,0c0,0,0-0.2,0-0.5l0,0h0l0-0.1v-0.2c0-0.1,0-0.2,0-0.3l0-0.1l0-0.1l0-0.1l0-0.1v-0.3l0,0
		h0l0-0.5l0,0l0-0.1V37l0-0.2c0,0,0-0.1-0.1-0.2l0-0.4l0-0.1l0-0.2v-0.1l0-0.1l0,0l0,0l0-0.1c0-0.1,0-0.1,0-0.2
		c0-0.1-0.1-0.2-0.4-0.2h0c-0.1,0-0.1,0-0.2,0.1c-0.1,0-0.1,0-0.2,0h0l0,0v0c-0.2,0-0.2,0.1-0.2,0.1c-0.1,0-0.2,0.3-0.3,0.8
		c0,0.5,0.1,0.7,0.1,0.7c0,1.1,0.1,1.7,0.1,1.7h0l0,0.1l0,0.2c0,0.1,0,0.2,0,0.3v0.5l0,0.1l0,0.1v0.1l0,0.2h0c0,0,0-0.1-0.1-0.2
		c-0.2-0.8-0.4-1.3-0.5-1.7c-0.3-0.8-0.5-1.5-0.8-1.9c0-0.1-0.2-0.5-0.5-1.1c-0.2-0.2-0.5-0.2-0.7-0.2C35.4,34.9,35.2,34.9,35.2,35z
		 M33.7,41L33.7,41L33.7,41L33.7,41L33.7,41z M32.3,35.2l-0.1,0.2l0,0c0,0,0,0.1,0,0.3l0,0.3v0.2h0v0h0v0c0,0.1,0,0.3,0,0.5l0,0.1
		c0,0,0,0.1,0,0.3l0.1,0.1c0,0,0,0.1,0,0.4l0,0.1l0,0.1l0,0l0,0.1h0V38l0,0.1l0,0.1l0,0l0,0.1l0,0l0,0.7l0,0l0,0.1v0l0,0
		c0,0,0,0.1,0,0.2l0,0.1l0,0.1l0,0.1c0,0.2-0.1,0.3-0.1,0.3c0,0.1,0,0.2,0.1,0.2l0,0.1l0,0.1l0,0.1l0,0l0,0.1v0.1l0,0.2l0,0.1
		c0,0.1,0,0.2,0,0.2l0,0l0,0.1l0,0.1v0l0,0l0,0.1l0,0.2l0,0.2l0,0.1l0,0.1l0,0h0c0,0.3,0,0.5,0.1,0.7l0,0c0,0,0.1,0,0.2,0
		c0.1,0,0.2,0,0.2,0l0.2,0l0,0l0.1,0h0v0l0.2,0c0.1,0,0.2,0,0.3,0l0,0l0,0h0c0.1,0,0.1-0.1,0.1-0.2l0-0.1c0,0,0-0.2,0-0.6l0,0
		c0,0,0-0.1,0-0.3l0,0c0-0.1,0-0.2,0-0.3l0,0v0l0,0l0-0.4l0,0l0,0l0-0.1c0,0,0-0.2,0-0.4l0-0.2l0-0.1l0-0.1l0-0.2l0-0.1l0,0l0,0
		l0-0.1l0-0.1l0,0c0,0,0-0.1,0-0.2l0,0h0l0-0.1l0-0.1l0-0.1l0-0.1v0l0,0h0l0-0.1l0-0.1c0-0.1,0-0.2,0-0.2l0,0l0-0.2l0,0l0,0l0-0.1
		l0,0h0l0-0.1l0-0.1l0-0.2l0,0c0.1,0,0.1-0.3,0-0.8l0,0l0,0l0-0.1l0,0h0c0-0.3,0-0.5,0-0.6l0,0c0,0,0-0.1,0-0.2l0-0.1
		c0-0.2,0-0.4-0.2-0.5l-0.2-0.1c-0.2,0-0.3,0-0.5,0h0C32.5,35,32.4,35.1,32.3,35.2z M30.7,42.1l0,0.1v0h0L30.7,42.1L30.7,42.1z
		 M30.7,41.6L30.7,41.6L30.7,41.6v0.1h0c0,0.1,0,0.2,0,0.3l0,0l0,0.1h0l0-0.1l0,0l0-0.1l0.1-0.1L30.7,41.6L30.7,41.6z M24.7,35.2
		c-0.1,0.1-0.2,0.4-0.2,0.8l0,0.1l0,0l0,0l0,0.1l0,0.2l0,0.2V37l0,0.1l0,0.1l0,0.2l0,0.1l0,0.1l0,0.1v0.4l0,0.1l0,0
		c0,0.2,0,0.4,0,0.6c0,0.3,0,0.6-0.1,0.8l0,0.1c0,0.1,0,0.2,0,0.3v0l0,0h0l0,1.1c0,0.1,0,0.2,0,0.2l0,0l0,0.1v0.1l0,0.1l0,0.1v0
		l0,0.1l0,0.1v0.5c0,0.2,0.2,0.4,0.4,0.4c0.1,0,0.2,0,0.2,0l0,0h0l0,0l0,0c0.1,0,0.3,0,0.6-0.1C26,42.3,26,42,26,41.7v0l0-0.1l0,0
		l0-0.1v-0.1l0-0.1l0,0l0-0.2l0,0l0-0.1v-0.1l0-0.2c0,0,0-0.2,0-0.5l0-0.1l0-0.1l0-0.1l0-0.1c0,0,0-0.1,0-0.2c0,0,0-0.1,0-0.1l0-0.1
		c0,0,0.1,0.2,0.1,0.4l0,0l0.2,0.6h0c0.1,0.5,0.3,0.9,0.4,1.1c0.2,0.5,0.3,0.8,0.4,0.8c0,0.1,0.2,0.2,0.5,0.1c0.2,0,0.3,0,0.3,0
		c0.2,0,0.4-0.2,0.5-0.6c0.1-0.2,0.2-0.4,0.3-0.6c0-0.2,0.1-0.4,0.3-0.8l0-0.1h0l0.1-0.2c0-0.2,0-0.3,0.1-0.5l0,0l0,0l0.1,0.2
		c0,0.2,0,0.3,0,0.4v0.4l0,0.1l0,0c0,0.1,0,0.2,0,0.2v0l0,0.1l0,0.1c0,0.4,0,0.7,0,0.9c0.2,0.3,0.4,0.4,0.6,0.4h0.1
		c0.2,0,0.4,0,0.5,0c0.2-0.1,0.4-0.2,0.4-0.5l0,0c0-0.1,0-0.2,0-0.2v-0.2c0-0.1,0-0.2,0-0.4l0-0.1c0-0.2,0-0.3-0.1-0.4h0l0-0.1v-0.2
		l0,0h0l0-0.2h0c0-0.2,0-0.3,0-0.3l0,0l0,0l0-0.2l0-0.1l0,0l0-0.2c0-0.1,0-0.2,0-0.2c0,0,0-0.1,0-0.2c0,0,0-0.1,0-0.3l0-0.4l0,0
		l0-0.3l0.1-0.1l0-0.1l0,0l0-0.2h0l0-0.2l0-0.1c0-0.1,0-0.1,0-0.2l0,0l0-0.4c0,0,0.1-0.2,0.1-0.5c0-0.4,0-0.6,0-0.6
		c0.1-0.3-0.1-0.4-0.5-0.4l-0.1,0l0,0L30,35l0,0l-0.1,0c-0.2,0.1-0.3,0.3-0.4,0.6c-0.3,0.9-0.5,1.5-0.7,1.6
		c-0.1,0.4-0.2,0.6-0.2,0.6c0,0-0.1,0.4-0.4,1.1c-0.3,0.7-0.4,1.1-0.5,1.3l-0.1,0L27.3,39c-0.1-0.4-0.2-0.6-0.2-0.6l0-0.1
		c-0.1-0.2-0.1-0.2-0.1-0.2l0,0c-0.1-0.5-0.2-0.9-0.3-1.1v0l0-0.1c0,0-0.1-0.1-0.1-0.3h0c-0.2-0.6-0.4-1-0.5-1.1
		c0-0.1-0.1-0.3-0.3-0.4l-0.7,0l-0.1,0l0,0H25C24.9,35,24.8,35.1,24.7,35.2z M20.4,36.7c0.1-0.1,0.3-0.2,0.5-0.2H21l0.1,0l0,0l0,0
		c0.2,0,0.3,0.1,0.5,0.3l0,0c0.1,0.3,0.1,0.4,0.1,0.5l0,0l0,0.1l0,0v0l0,0h0c0,0.2,0,0.3,0,0.3l0,0v0l0,0.1l0,0.1v0.1l0,0.1l0,0l0,0
		l0,0.2v0.1l0,0l0,0l0,0c0,0,0,0.1,0,0.2l0,0h0l0,0.4l0,0l0,0l0,0.1l0,0l0,0.5l0,0l0,0l0,0h0c0,0.5-0.1,0.7-0.1,0.8
		c-0.1,0.3-0.3,0.5-0.7,0.5c-0.3-0.1-0.4-0.3-0.5-0.5c-0.1-0.4-0.2-0.8-0.3-1.1l0,0l0-0.1h0c0-0.1,0-0.3-0.1-0.4l0,0
		c0-0.2,0-0.4,0-0.5l0-0.1l0-0.1v-0.1l0-0.1l0,0l0,0v0l0-0.1c0,0,0-0.1,0-0.4l0-0.1c0.1-0.4,0.1-0.5,0.1-0.6l0,0
		C20.2,36.9,20.3,36.7,20.4,36.7z M20.1,35.1L20.1,35.1L20.1,35.1c-0.1,0-0.3,0.1-0.6,0.2c-0.2,0.1-0.3,0.2-0.4,0.3
		c-0.2,0.3-0.3,0.7-0.3,1v0.1l0,0.1l0,0l0,0l0,0.1l0,0.1c0,0.1-0.1,0.4-0.1,0.7l0,0.1l0,0l0,0h0c0,0.1,0,0.2,0,0.3v0.5
		c0,0.1,0,0.3,0,0.6l0,0.1l0,0l0,0l0,0.1c0,0.2,0,0.3,0,0.3c0,0.1,0,0.2,0,0.4l0,0c0,0.2,0.1,0.4,0.1,0.6v0.1
		c0.1,0.2,0.1,0.3,0.1,0.4c0.1,0.6,0.2,0.9,0.3,0.9c0.1,0.1,0.1,0.2,0.2,0.3c0.5,0.3,1,0.4,1.5,0.4l0,0c0.2,0,0.3,0,0.4,0h0
		c0.3,0,0.5-0.1,0.6-0.2c0.2,0,0.5-0.2,0.8-0.6c0.1-0.1,0.2-0.4,0.3-0.9l0,0l0,0c0-0.1,0-0.3,0-0.7l0-0.1c0,0,0-0.1,0-0.2
		c0-0.1,0-0.2,0-0.2c0-0.1,0-0.3,0-0.6c0-0.2,0-0.6-0.1-1.1c0-0.1,0-0.2,0-0.3c0,0,0-0.1,0-0.2l0,0l0-0.1v0c0-0.3,0-0.5-0.1-0.6h0
		c0-0.1,0-0.2-0.1-0.4c0-0.4-0.1-0.7-0.4-1c-0.2-0.1-0.4-0.3-0.7-0.5L21,35C20.6,35,20.3,35,20.1,35.1z M15.9,41.5L15.9,41.5
		L15.9,41.5L15.9,41.5L15.9,41.5z M15.3,35.2L15.3,35.2L15.3,35.2c0,0-0.1,0-0.2,0.1l0,0c-0.1,0-0.3,0.1-0.4,0.2
		c-0.4,0.3-0.6,0.5-0.8,0.8L13.6,37l-0.2,0.9l0,0l-0.1,0.5l0,0c-0.1,0.2-0.1,0.3-0.1,0.4l0,0.2l0,0.1l0,0l0,0.1l0,0.1l0,0l0,0l0,0.1
		l0,0l0,0v0l0,0h0c0,0.3,0.1,0.5,0.1,0.6l0,0c0,0.1,0,0.2,0,0.3l0,0l0,0l0.1,0l0,0.1l-0.1,0c0,0.2,0.1,0.5,0.2,0.9
		c0,0.1,0.1,0.2,0.2,0.2l0,0.1l0.1,0.2c0,0.1,0.2,0.3,0.6,0.7h0l0-0.1l0,0c0.2,0.1,0.2,0.1,0.3,0.1c0.3,0.2,0.7,0.2,1.1,0.2l0.3-0.1
		c0.1-0.1,0.2-0.1,0.3-0.1l0,0c0.2,0,0.4-0.3,0.8-0.9c0.2-0.3,0.2-0.6,0.2-0.8l0,0l0-0.1c0-0.1,0-0.2,0-0.4l0,0l0-0.1l0-0.1l0,0
		C17.3,40,17.1,40,16.8,40c-0.1,0-0.1,0-0.2,0l-0.1,0l-0.1,0.1c0,0.1,0,0.2,0,0.3c0,0.1,0,0.2-0.1,0.2l0,0.1l0,0l-0.1,0.2l0,0
		c-0.1,0.2-0.1,0.3-0.1,0.3v0h0l0,0.1l0,0L16,41.5l0,0l-0.1,0.1h0l0,0v0h0l0,0h-0.1c-0.1,0-0.2,0-0.2,0c-0.2-0.1-0.3-0.1-0.3-0.2h0
		l0,0C15,41.1,14.9,41,14.9,41l0-0.1c0-0.2,0-0.3-0.1-0.3l0-0.2c0,0,0-0.1,0-0.2l0,0l0,0l0-0.1l0,0c0-0.2-0.1-0.4-0.1-0.4l0,0l0-0.2
		l0,0l0-0.1h0l0-0.2l0-0.1l-0.1-0.2c0-0.1,0-0.2,0.1-0.5l0,0c0-0.3,0.1-0.5,0.1-0.6c0-0.1,0.1-0.2,0.1-0.2c0.1-0.3,0.1-0.5,0.2-0.6
		l0,0l0,0l0,0h0l0-0.1l0,0l0.1-0.2l0,0l0.1,0l0,0l0,0c0.1-0.1,0.1-0.2,0.2-0.3l0-0.1c0,0,0.1,0,0.2,0l0,0l0.1,0h0l0.1,0
		c0.1,0,0.2,0.1,0.3,0.3c0.1,0.1,0.2,0.2,0.2,0.3c0.1,0.3,0.1,0.5,0.1,0.6h0l0,0l0,0.1l0,0c0.1,0.1,0.1,0.2,0.2,0.2l0,0L17,38l0,0v0
		l0.1,0c0.1-0.1,0.2-0.2,0.2-0.2l0,0h0l0.1,0c0.1-0.1,0.2-0.2,0.1-0.3l0-0.1l0-0.2l0-0.1c0.1-0.1,0.1-0.2,0.1-0.3l-0.1-0.2l0,0
		l0-0.1l0-0.1l-0.1-0.2l0-0.1l0,0l0,0l0,0l-0.1-0.1l0,0c-0.1-0.1-0.1-0.2-0.1-0.2c0-0.1-0.1-0.2-0.4-0.3c-0.4-0.1-0.6-0.2-0.8-0.2
		l0,0l-0.1,0C15.7,35.1,15.4,35.1,15.3,35.2z"/>
</g>
<g>
	<path class="st2" d="M62.4,7.2c-0.9,0.3-1.8,0.4-2.7,0.4c-1.1,0-1.7-0.3-2.3-0.4C55.3,6.7,53,7.4,51.9,8c-3.1,1.6-3.9,5.6-4,6.2
		c-0.8,4.3,1.7,8.8,4.9,10.4c1.7,0.9,4,1.1,4,1.1c0.5,0.1,0.9,0.1,1.2,0.1c1.4,0.5,2.8,0.5,4.2,0.1c0.5,0,0.9-0.1,1.4-0.1
		c0.8-0.1,3-0.5,5-2.1c2.4-1.9,3-4.5,3.2-5.2c0.7-2.8,0.4-7.2-2.5-9.6C67.1,7.2,63.8,6.8,62.4,7.2"/>
	<g>
		<defs>
			<path id="SVGID_1_" d="M62.4,7.2c-0.9,0.3-1.8,0.4-2.7,0.4c-1.1,0-1.7-0.3-2.3-0.4C55.3,6.7,53,7.4,51.9,8
				c-3.1,1.6-3.9,5.6-4,6.2c-0.8,4.3,1.7,8.8,4.9,10.4c1.7,0.9,4,1.1,4,1.1c0.5,0.1,0.9,0.1,1.2,0.1c1.4,0.5,2.8,0.5,4.2,0.1
				c0.5,0,0.9-0.1,1.4-0.1c0.8-0.1,3-0.5,5-2.1c2.4-1.9,3-4.5,3.2-5.2c0.7-2.8,0.4-7.2-2.5-9.6C67.1,7.2,63.8,6.8,62.4,7.2"/>
		</defs>
		<clipPath id="SVGID_00000171703191963995289910000013262585580903836554_">
			<use xlink:href="#SVGID_1_"  style="overflow:visible;"/>
		</clipPath>
		<path style="clip-path:url(#SVGID_00000171703191963995289910000013262585580903836554_);fill:#B0753D;" d="M47.8,14.5
			c-0.1,0.4-0.1,0.9-0.1,1.3c0,3.8,2.2,7.4,5,8.8c1.7,0.9,4,1.1,4,1.1c0.5,0.1,0.9,0.1,1.2,0.1c0.7,0.2,1.5,0.4,2.2,0.4
			c0.7,0,1.3-0.1,2-0.3c0.5,0,0.9-0.1,1.4-0.1c0.8-0.1,3-0.5,5-2.1c2.4-1.9,3-4.5,3.2-5.2c0.2-0.8,0.3-1.7,0.3-2.7
			c0-0.3,0-0.5,0-0.8c-0.3,0.8-0.4,4.7-2.8,7.2c-0.1,0.1-1.6,1.6-2.3,1.6c-0.1,0-0.1,0-0.2,0c-0.1-0.1-0.1-0.1-0.1-0.2
			c-0.6,0.8-1.4,1.3-2.2,1.3c-0.1,0-0.3,0-0.4,0c-0.5-0.1-0.9-0.4-1.3-0.7c-0.6,0.6-1.3,1-2.1,1.2c-0.3,0.1-0.6,0.1-0.8,0.1
			c-1.5,0-2.5-0.8-2.7-0.9c-0.4,0.1-0.8,0.2-1.3,0.2c-0.3,0-0.5,0-0.8-0.1c-1.8-0.3-2.7-1.6-2.9-2c-0.1,0.1-0.2,0.1-0.4,0.2
			c-0.1,0-0.1,0-0.2,0c-0.6,0-1.2-0.7-1.5-1.1c-0.5-0.6-0.9-1.3-1.2-2C48.3,17.8,48,15.8,47.8,14.5"/>
	</g>
	<path d="M60.2,26.4c-0.8,0-1.5-0.1-2.3-0.4c-0.4,0-0.8-0.1-1.2-0.1c-0.1,0-2.4-0.2-4.1-1.1c-3-1.5-5.7-6-4.9-10.6
		c0.2-1.1,1.1-4.7,4.2-6.3c1.3-0.6,3.5-1.3,5.6-0.8c0.1,0,0.2,0.1,0.4,0.1c0.5,0.1,1.1,0.3,1.9,0.3c0.9,0,1.8-0.1,2.7-0.4
		c1.5-0.4,4.8,0,7,1.8c2.9,2.3,3.4,6.5,2.6,9.7c-0.5,2.2-1.7,4-3.2,5.3c-1.4,1.1-3.1,1.8-5.1,2.1c-0.5,0.1-0.9,0.1-1.4,0.1
		C61.5,26.3,60.8,26.4,60.2,26.4z M55.8,7.2c-1.5,0-2.9,0.4-3.9,0.9c-2.9,1.5-3.8,5-3.9,6.1c-0.8,4.5,1.8,8.7,4.8,10.3
		c1.7,0.9,3.9,1.1,4,1.1c0.4,0.1,0.8,0.1,1.2,0.1c0,0,0,0,0.1,0c1.3,0.5,2.7,0.5,4.1,0.1h0c0.5,0,0.9-0.1,1.4-0.1
		c2-0.3,3.6-1,4.9-2.1c1.5-1.3,2.6-3,3.2-5.1c0.8-3.1,0.3-7.2-2.5-9.4C67,7.4,63.8,7,62.4,7.3c-0.9,0.3-1.8,0.4-2.8,0.4
		c-0.9,0-1.5-0.2-2-0.3c-0.1,0-0.2-0.1-0.3-0.1C56.9,7.3,56.3,7.2,55.8,7.2z"/>
	<path class="st4" d="M53.4,9.3c0.5-0.4,2-1.2,2.1-0.1c0.1,1.1-0.7,2.2-1.1,3.1c-0.4,0.9-0.8,1.9-1.1,2.8c-0.2,0.8-0.1,2.3-0.9,2.7
		c-0.8,0.5-1.5-0.4-1.9-1c-0.5-0.9-0.7-1.5-0.4-2.5C50.6,12.3,51.7,10.5,53.4,9.3z"/>
	<path class="st4" d="M65.5,11.1c0.5,0.9,0.8,1.9,1.2,2.8c0.3,0.8,0.4,2.3,1.1,2.9c0.8,0.8,1.2-1.1,1.3-1.6c0.2-1,0.2-1.9-0.1-2.9
		c-0.7-1.9-1.8-3.1-3.7-3.7c-0.5-0.1-2.1-0.4-1.4,0.6c0.2,0.2,0.5,0.4,0.7,0.6C64.9,10.2,65.2,10.6,65.5,11.1z"/>
	<path class="st4" d="M60.8,11.8c-0.1-1,0.2-2.3,1.5-1.8c1,0.4,1.4,1.6,1.7,2.5c0.7,2,1.3,5.2,0.1,7c-0.5,0.7-1.3,1.2-2.1,1.3
		c-1.1,0.2-0.9-0.6-0.8-1.5C61.6,16.9,61.2,14.3,60.8,11.8z"/>
	<path class="st4" d="M55.2,16.1c0-1.3,0.2-2.6,0.6-3.8c0.3-0.9,0.7-2,1.6-2.5c2.4-1.4,1.8,3.9,1.8,4.9c0,1.3,0,2.5-0.1,3.8
		c0,1,0,2.5-1.2,2.7C55.5,21.9,55.2,17.6,55.2,16.1z"/>
	<path class="st5" d="M57.6,7.1c0.3-0.4,0.5-0.9,0.6-1.4c0.3-0.7,0.6-1.4,0.9-2C60,2.3,61.1,1,62.6,0.9c0.1,0,0.2,0,0.2,0.1
		c0.1,0.1,0.1,0.2,0.1,0.3c0,0.3,0.2,0.5,0.4,0.7c-0.8,0.6-1.5,1.4-1.8,2.4c-0.1,0.5-0.5,2,0.4,2.9c0.4,0.4,0.9,0.6,1.4,0.6
		c-0.5,0-0.9,0.4-0.9,0.8c0,0.2,0.1,0.4,0.2,0.6c-0.6-0.3-1.2-0.4-1.8-0.2c-0.4,0.1-0.8,0.4-1.1,0.7C59.4,9.3,59,9,58.5,8.9
		c-0.4-0.1-0.8-0.1-1.2,0c0.1-0.3,0-0.6-0.2-0.8c-0.2-0.1-0.4-0.3-0.6-0.3C56.9,7.7,57.4,7.5,57.6,7.1z"/>
	<g>
		<defs>
			<path id="SVGID_00000038400879658599116170000016443735008723735208_" d="M57.6,7.1c0.3-0.4,0.5-0.9,0.6-1.4
				c0.3-0.7,0.6-1.4,0.9-2C60,2.3,61.1,1,62.6,0.9c0.1,0,0.2,0,0.2,0.1c0.1,0.1,0.1,0.2,0.1,0.3c0,0.3,0.2,0.5,0.4,0.7
				c-0.8,0.6-1.5,1.4-1.8,2.4c-0.1,0.5-0.5,2,0.4,2.9c0.4,0.4,0.9,0.6,1.4,0.6c-0.5,0-0.9,0.4-0.9,0.8c0,0.2,0.1,0.4,0.2,0.6
				c-0.6-0.3-1.2-0.4-1.8-0.2c-0.4,0.1-0.8,0.4-1.1,0.7C59.4,9.3,59,9,58.5,8.9c-0.4-0.1-0.8-0.1-1.2,0c0.1-0.3,0-0.6-0.2-0.8
				c-0.2-0.1-0.4-0.3-0.6-0.3C56.9,7.7,57.4,7.5,57.6,7.1"/>
		</defs>
		<clipPath id="SVGID_00000148653248166781549030000011695935847920744083_">
			<use xlink:href="#SVGID_00000038400879658599116170000016443735008723735208_"  style="overflow:visible;"/>
		</clipPath>
		<path style="clip-path:url(#SVGID_00000148653248166781549030000011695935847920744083_);fill:#B2D34C;" d="M59,6.3
			c0.1-0.4,0.3-0.9,0.5-1.4c0.1-0.3,0.2-0.6,0.4-1c0.1-0.3,0.3-0.6,0.5-0.9c0.6-1,1.3-1.4,2.4-2C62.8,1,63,0.9,63.1,1
			c0.1,0.1,0.1,0.5,0.1,0.7c-0.2,0.7-0.9,0.8-1.5,1.4C61.3,3.5,61,4,60.9,4.5c-0.1,0.3-0.5,1.5,0.1,2.6c0.2,0.4,0.5,0.8,0.8,1.2
			c0.6,0.6,0.8,0.7,0.8,1c0,0.5-0.8,1-1.4,1.2c-0.4,0.1-0.8,0.1-1.6,0c-0.5-0.1-1-0.2-1.4-0.4c-0.6-0.2-1.2-0.5-1.2-0.9
			c0-0.4,0.5-0.4,1.1-1.1C58.4,7.6,58.6,7.2,59,6.3z"/>
	</g>
	<path d="M59.8,9.9L59.8,9.9c-0.1,0-0.1,0-0.1-0.1c-0.3-0.4-0.7-0.7-1.1-0.8c-0.4-0.1-0.8-0.1-1.1,0c-0.1,0-0.1,0-0.2-0.1
		c0-0.1-0.1-0.1,0-0.2c0.1-0.2,0-0.5-0.2-0.6c-0.2-0.1-0.4-0.2-0.6-0.3c-0.1,0-0.1-0.1-0.1-0.2c0-0.1,0.1-0.1,0.1-0.1
		c0.4,0,0.8-0.2,1.1-0.6c0.3-0.4,0.4-0.8,0.6-1.2l0.1-0.2c0.3-0.7,0.6-1.4,0.9-2c0.7-1.3,1.8-2.7,3.5-2.8c0.1,0,0.2,0,0.4,0.1l0,0
		c0.1,0.1,0.1,0.2,0.1,0.4c0.1,0.2,0.2,0.4,0.4,0.5c0.1,0,0.1,0.1,0.1,0.1c0,0.1,0,0.1-0.1,0.1c-0.8,0.6-1.4,1.4-1.7,2.3
		c-0.1,0.5-0.5,1.9,0.3,2.7c0.4,0.3,0.8,0.5,1.3,0.5c0,0,0,0,0,0c0.1,0,0.1,0.1,0.1,0.2c0,0.1-0.1,0.1-0.2,0.1h0
		c-0.4,0-0.7,0.3-0.7,0.7c0,0.2,0.1,0.3,0.1,0.5c0.1,0.1,0,0.1,0,0.2c-0.1,0.1-0.1,0.1-0.2,0C62,9,61.4,9,60.9,9.1
		C60.5,9.2,60.1,9.5,59.8,9.9C59.8,9.9,59.8,9.9,59.8,9.9z M57.9,8.7c0.2,0,0.4,0,0.7,0.1c0.5,0.1,0.9,0.4,1.2,0.8
		C60,9.2,60.4,9,60.8,8.9c0.5-0.1,1-0.1,1.5,0c0-0.1,0-0.2,0-0.3c0-0.3,0.2-0.6,0.4-0.8c-0.3-0.1-0.6-0.3-0.9-0.5
		c-0.9-1-0.5-2.5-0.4-3c0.3-0.9,0.8-1.8,1.6-2.4c-0.2-0.2-0.3-0.4-0.3-0.6v0c0-0.1,0-0.1,0-0.1c0,0-0.1,0-0.1,0c0,0,0,0,0,0
		c-1.5,0.1-2.6,1.5-3.2,2.6c-0.4,0.7-0.6,1.3-0.9,2l-0.1,0.2c-0.1,0.4-0.3,0.9-0.6,1.3c-0.2,0.3-0.5,0.5-0.8,0.6
		c0.1,0.1,0.1,0.1,0.2,0.1c0.2,0.2,0.4,0.5,0.4,0.7C57.6,8.7,57.8,8.7,57.9,8.7z"/>
	<path class="st7" d="M54.5,17.7c-1.3-0.2-2.5-0.5-3.7-0.8C50.7,16.7,50,15,51,13.3c0.5-0.9,1.4-1.5,2.4-1.8
		c0.8,1.1,1.6,2.1,2.3,3.3c0.6,1,1.1,2,1.5,3.1C56.3,17.9,55.4,17.9,54.5,17.7z"/>
	<g>
		<defs>
			<path id="SVGID_00000076586501490040527020000006726404128608453048_" d="M54.5,17.7c-1.3-0.2-2.5-0.5-3.7-0.8
				C50.7,16.7,50,15,51,13.3c0.5-0.9,1.4-1.5,2.4-1.8c0.8,1.1,1.6,2.1,2.3,3.3c0.6,1,1.1,2,1.5,3.1C56.3,17.9,55.4,17.9,54.5,17.7"
				/>
		</defs>
		<clipPath id="SVGID_00000112628510999234196060000000254044821161804161_">
			<use xlink:href="#SVGID_00000076586501490040527020000006726404128608453048_"  style="overflow:visible;"/>
		</clipPath>
		<path style="clip-path:url(#SVGID_00000112628510999234196060000000254044821161804161_);fill:#E4E41E;" d="M54.9,17.3
			c-1.2-0.1-2.3-0.4-3.5-0.8c-0.1-0.2-0.8-1.8,0.2-3.4c0.5-0.8,1.3-1.4,2.3-1.7c0.8,1,1.5,2,2.1,3.1c0.5,0.9,1,1.9,1.4,2.9
			C56.6,17.4,55.7,17.4,54.9,17.3z"/>
		<path style="clip-path:url(#SVGID_00000112628510999234196060000000254044821161804161_);fill:#3A315E;" d="M57.3,17.5
			c-0.8,0-1.6-0.1-2.4-0.1c-1.2-0.1-2.3-0.4-3.5-0.8c0,0,0,0-0.1,0c-0.1-0.2-0.8-1.8,0.2-3.4c0.5-0.8,1.3-1.5,2.3-1.7
			c0,0,0.1,0,0.1,0c0.8,1,1.5,2,2.1,3.1c0.5,0.9,1,1.9,1.4,2.9c0,0,0,0.1,0,0.1S57.4,17.5,57.3,17.5z M54.9,17.2
			c0.8,0.1,1.6,0.1,2.4,0.1c-0.4-1-0.8-1.9-1.4-2.8c-0.6-1.1-1.3-2.1-2.1-3c-0.9,0.3-1.7,0.8-2.1,1.6c-0.8,1.5-0.3,3-0.2,3.2
			C52.6,16.8,53.8,17,54.9,17.2z"/>
		<path style="clip-path:url(#SVGID_00000112628510999234196060000000254044821161804161_);fill:#FCF9D6;" d="M54,13.1
			c0.9,0,1.6,0.7,1.6,1.6c0,0.9-0.7,1.6-1.6,1.6s-1.6-0.7-1.6-1.6C52.3,13.9,53.1,13.1,54,13.1z"/>
	</g>
	<path d="M57.1,18.1c-0.8,0-1.7-0.1-2.6-0.2c-1.3-0.2-2.5-0.5-3.7-0.9c0,0-0.1-0.1-0.1-0.1c-0.1-0.2-0.8-2,0.2-3.7
		c0.6-0.9,1.5-1.6,2.5-1.8c0.1,0,0.1,0,0.2,0.1c0.8,1.1,1.6,2.2,2.3,3.3c0.6,1,1.1,2,1.5,3.1c0,0.1,0,0.1,0,0.1c0,0-0.1,0.1-0.1,0.1
		C57.2,18.1,57.1,18.1,57.1,18.1z M50.9,16.8c1.2,0.4,2.4,0.7,3.6,0.8c0.8,0.1,1.6,0.2,2.4,0.2c-0.4-1-0.9-1.9-1.4-2.9
		c-0.6-1.1-1.4-2.2-2.2-3.2c-0.9,0.3-1.7,0.9-2.2,1.7C50.3,14.9,50.8,16.4,50.9,16.8z"/>
	<path class="st7" d="M65.1,17.8c1.3-0.1,2.5-0.4,3.7-0.8c0.1-0.2,0.8-1.9-0.2-3.6c-0.5-0.9-1.4-1.5-2.4-1.8c-1.6,1.9-2.8,4-3.7,6.4
		C63.4,18,64.3,17.9,65.1,17.8z"/>
	<g>
		<defs>
			<path id="SVGID_00000174598143226339080800000004386530440370993054_" d="M65.1,17.8c1.3-0.1,2.5-0.4,3.7-0.8
				c0.1-0.2,0.8-1.9-0.2-3.6c-0.5-0.9-1.4-1.5-2.4-1.8c-1.6,1.9-2.8,4-3.7,6.4C63.4,18,64.3,17.9,65.1,17.8"/>
		</defs>
		<clipPath id="SVGID_00000146474728212688198600000002364347803518048139_">
			<use xlink:href="#SVGID_00000174598143226339080800000004386530440370993054_"  style="overflow:visible;"/>
		</clipPath>
		<path style="clip-path:url(#SVGID_00000146474728212688198600000002364347803518048139_);fill:#E4E41E;" d="M65,17.2
			c1.2-0.1,2.3-0.4,3.5-0.8c0.1-0.2,0.8-1.8-0.2-3.4c-0.5-0.8-1.3-1.4-2.3-1.7c-1.5,1.8-2.7,3.8-3.4,5.9
			C63.4,17.4,64.2,17.3,65,17.2z"/>
		<path style="clip-path:url(#SVGID_00000146474728212688198600000002364347803518048139_);fill:#3A315E;" d="M62.9,17.4
			c-0.1,0-0.2,0-0.3,0c0,0-0.1,0-0.1,0c0,0,0-0.1,0-0.1c0.8-2.2,1.9-4.2,3.4-6c0-0.1,0-0.1,0.1-0.1c1,0.3,1.8,0.8,2.3,1.7
			c0.9,1.6,0.3,3.2,0.2,3.4c0,0,0,0-0.1,0c-1.1,0.4-2.3,0.7-3.5,0.8C64.3,17.4,63.6,17.4,62.9,17.4z M62.7,17.3c0.8,0,1.5,0,2.3-0.1
			c1.2-0.1,2.3-0.4,3.4-0.8c0.1-0.3,0.7-1.8-0.2-3.2c-0.5-0.8-1.3-1.4-2.1-1.6C64.6,13.2,63.5,15.1,62.7,17.3z"/>
		<path style="clip-path:url(#SVGID_00000146474728212688198600000002364347803518048139_);fill:#FCF9D6;" d="M65.4,13
			c0.9,0,1.6,0.7,1.6,1.6s-0.7,1.6-1.6,1.6c-0.9,0-1.6-0.7-1.6-1.6S64.5,13,65.4,13z"/>
	</g>
	<path d="M63,18.1c-0.1,0-0.3,0-0.4,0c-0.1,0-0.1,0-0.1-0.1c0,0,0-0.1,0-0.1c0.8-2.4,2.1-4.5,3.7-6.4c0-0.1,0.1-0.1,0.2-0.1
		c1.1,0.3,1.9,0.9,2.5,1.8c1,1.7,0.3,3.5,0.2,3.7c0,0-0.1,0.1-0.1,0.1c-1.2,0.4-2.5,0.7-3.7,0.9C64.4,18.1,63.7,18.1,63,18.1z
		 M62.8,17.8c0.8,0,1.5,0,2.3-0.1c1.2-0.1,2.5-0.4,3.6-0.8c0.1-0.4,0.7-1.9-0.2-3.4c-0.5-0.8-1.3-1.4-2.2-1.7
		C64.8,13.6,63.6,15.6,62.8,17.8z"/>
	<path class="st7" d="M59.9,15.6c0.2,0.4,0.4,0.8,0.6,1.1c0.2,0.3,0.4,0.6,0.6,1c-0.7,0-1.5,0.1-2.2,0.1c0.1-0.3,0.3-0.6,0.4-0.8
		C59.5,16.5,59.7,16.1,59.9,15.6z"/>
	<g>
		<defs>
			<path id="SVGID_00000075155515240326753680000015171000496490067888_" d="M59.9,15.6c0.2,0.4,0.4,0.8,0.6,1.1
				c0.2,0.3,0.4,0.6,0.6,1c-0.7,0-1.5,0.1-2.2,0.1c0.1-0.3,0.3-0.6,0.4-0.8C59.5,16.5,59.7,16.1,59.9,15.6"/>
		</defs>
		<clipPath id="SVGID_00000103242297738674977350000013670316787242532745_">
			<use xlink:href="#SVGID_00000075155515240326753680000015171000496490067888_"  style="overflow:visible;"/>
		</clipPath>
		<path style="clip-path:url(#SVGID_00000103242297738674977350000013670316787242532745_);fill:#E4E41E;" d="M59.9,15.1
			c0.2,0.4,0.4,0.8,0.6,1.1c0.2,0.3,0.4,0.6,0.6,1c-0.7,0-1.5,0.1-2.2,0.1c0.1-0.3,0.3-0.6,0.4-0.8C59.5,16,59.7,15.6,59.9,15.1z"/>
		<path style="clip-path:url(#SVGID_00000103242297738674977350000013670316787242532745_);fill:#3A315E;" d="M58.8,17.4
			C58.8,17.4,58.8,17.4,58.8,17.4c-0.1-0.1-0.1-0.1-0.1-0.1c0.1-0.3,0.3-0.6,0.4-0.8c0.2-0.5,0.4-0.9,0.6-1.3c0,0,0-0.1,0.1-0.1
			c0,0,0.1,0,0.1,0c0.2,0.4,0.4,0.8,0.6,1.1c0.2,0.3,0.4,0.6,0.6,1c0,0,0,0.1,0,0.1s0,0-0.1,0L58.8,17.4z M59.9,15.3
			c-0.2,0.4-0.4,0.8-0.6,1.2c-0.1,0.3-0.2,0.5-0.4,0.7l2-0.1c-0.2-0.3-0.3-0.6-0.5-0.9C60.2,16,60.1,15.6,59.9,15.3z"/>
	</g>
	<path d="M58.8,18c-0.1,0-0.1,0-0.1-0.1c0-0.1,0-0.1,0-0.1c0.1-0.3,0.3-0.6,0.4-0.8c0.2-0.5,0.4-0.9,0.6-1.3c0-0.1,0.1-0.1,0.1-0.1
		c0.1,0,0.1,0,0.1,0.1c0.2,0.4,0.4,0.8,0.6,1.1c0.2,0.3,0.4,0.6,0.6,1c0,0.1,0,0.1,0,0.1c0,0.1-0.1,0.1-0.1,0.1L58.8,18z M59.9,16
		c-0.1,0.4-0.3,0.7-0.5,1.1c-0.1,0.2-0.2,0.4-0.3,0.6l1.7-0.1c-0.1-0.2-0.3-0.5-0.4-0.8C60.2,16.5,60.1,16.3,59.9,16z"/>
	<path class="st7" d="M53.6,19.5c0.1,0.3,0.1,0.5,0.2,0.8l1.8,0.3v-0.7c0.7,0,1.3,0,2,0c0.1,0.3,0.1,0.6,0.2,0.8c0.5,0,1,0,1.4,0
		c0.1-0.2,0.1-0.5,0.2-0.7l1.4-0.1c0.1,0.3,0.2,0.6,0.3,0.9l1.4-0.1c0-0.3,0.1-0.5,0.1-0.8c0.4-0.1,0.9-0.1,1.3-0.2
		c0.1,0.3,0.2,0.6,0.3,0.8c0.5-0.1,0.9-0.2,1.4-0.3l0.2-0.8c0.9-0.2,1.8-0.4,2.7-0.6c-0.4,0.7-0.8,1.5-1.1,2.2
		c-0.5,0.1-0.9,0.2-1.4,0.4c0,0.3,0,0.7,0,1c-0.5,0.2-1,0.3-1.5,0.5l-0.3-1c-0.4,0.1-0.7,0.1-1.1,0.1l-0.1,0.9l-1.6,0.1
		c0-0.4-0.1-0.7-0.1-1.1c-0.5-0.1-1-0.1-1.5-0.1c0,0.4,0,0.8,0,1.3h-1.6c-0.1-0.4-0.1-0.8-0.1-1.1c-0.3,0-0.6-0.1-1-0.1
		c-0.1,0.4-0.2,0.7-0.3,1.1l-1.5-0.2v-1.3l-1.1-0.3l-0.2,1.2l-1.3-0.5c0-0.4,0.1-0.7,0.1-1.1L51.5,20c-0.1-0.6-0.3-1.1-0.5-1.7
		C51.9,18.8,52.8,19.2,53.6,19.5z"/>
	<g>
		<defs>
			<path id="SVGID_00000127019623917821947940000009937285090741396658_" d="M53.6,19.5c0.1,0.3,0.1,0.5,0.2,0.8l1.8,0.3v-0.7
				c0.7,0,1.3,0,2,0c0.1,0.3,0.1,0.6,0.2,0.8c0.5,0,1,0,1.4,0c0.1-0.2,0.1-0.5,0.2-0.7l1.4-0.1c0.1,0.3,0.2,0.6,0.3,0.9l1.4-0.1
				c0-0.3,0.1-0.5,0.1-0.8c0.4-0.1,0.9-0.1,1.3-0.2c0.1,0.3,0.2,0.6,0.3,0.8c0.5-0.1,0.9-0.2,1.4-0.3l0.2-0.8
				c0.9-0.2,1.8-0.4,2.7-0.6c-0.4,0.7-0.8,1.5-1.1,2.2c-0.5,0.1-0.9,0.2-1.4,0.4c0,0.3,0,0.7,0,1c-0.5,0.2-1,0.3-1.5,0.5l-0.3-1
				c-0.4,0.1-0.7,0.1-1.1,0.1l-0.1,0.9l-1.6,0.1c0-0.4-0.1-0.7-0.1-1.1c-0.5-0.1-1-0.1-1.5-0.1c0,0.4,0,0.8,0,1.3h-1.6
				c-0.1-0.4-0.1-0.8-0.1-1.1c-0.3,0-0.6-0.1-1-0.1c-0.1,0.4-0.2,0.7-0.3,1.1l-1.5-0.2v-1.3l-1.1-0.3l-0.2,1.2l-1.3-0.5
				c0-0.4,0.1-0.7,0.1-1.1L51.5,20c-0.1-0.6-0.3-1.1-0.5-1.7C51.9,18.8,52.8,19.2,53.6,19.5"/>
		</defs>
		<clipPath id="SVGID_00000052076390567490271680000010220617058868422529_">
			<use xlink:href="#SVGID_00000127019623917821947940000009937285090741396658_"  style="overflow:visible;"/>
		</clipPath>
		<path style="clip-path:url(#SVGID_00000052076390567490271680000010220617058868422529_);fill:#E4E41E;" d="M53.6,18.9
			c0.1,0.3,0.1,0.5,0.2,0.8l1.8,0.3v-0.7c0.7,0,1.3,0,2,0c0.1,0.3,0.1,0.6,0.2,0.8c0.5,0,1,0,1.4,0c0.1-0.2,0.1-0.5,0.2-0.7l1.4-0.1
			c0.1,0.3,0.2,0.6,0.3,0.9l1.4-0.1c0-0.3,0.1-0.5,0.1-0.8c0.4-0.1,0.9-0.1,1.3-0.2c0.1,0.3,0.2,0.6,0.3,0.8
			c0.5-0.1,0.9-0.2,1.4-0.3l0.2-0.8c0.9-0.2,1.8-0.4,2.7-0.6c-0.4,0.7-0.8,1.5-1.1,2.2c-0.5,0.1-0.9,0.2-1.4,0.4c0,0.3,0,0.7,0,1
			c-0.5,0.2-1,0.3-1.5,0.5l-0.3-1c-0.4,0.1-0.7,0.1-1.1,0.1l-0.1,0.9l-1.6,0.1c0-0.4-0.1-0.7-0.1-1.1c-0.5-0.1-1-0.1-1.5-0.1
			c0,0.4,0,0.8,0,1.3h-1.6c-0.1-0.4-0.1-0.8-0.1-1.1c-0.3,0-0.6-0.1-1-0.1c-0.1,0.4-0.2,0.7-0.3,1.1l-1.5-0.2V21l-1.1-0.3l-0.2,1.2
			l-1.3-0.5c0-0.4,0.1-0.7,0.1-1.1l-1.3-0.8c-0.1-0.6-0.3-1.1-0.5-1.7C51.9,18.2,52.8,18.5,53.6,18.9z"/>
		<path style="clip-path:url(#SVGID_00000052076390567490271680000010220617058868422529_);fill:#3A315E;" d="M59.9,22.7h-1.6
			c0,0-0.1,0-0.1-0.1l-0.1-1.1l-0.8-0.1l-0.3,1c0,0-0.1,0.1-0.1,0.1l-1.5-0.2c0,0-0.1,0-0.1-0.1V21l-1-0.3l-0.2,1.1c0,0,0,0.1,0,0.1
			c0,0-0.1,0-0.1,0l-1.3-0.5c0,0-0.1-0.1-0.1-0.1l0.1-1.1l-1.3-0.8c0,0,0,0,0-0.1L51,17.8c0,0,0-0.1,0-0.1c0,0,0.1,0,0.1,0l2.6,1.1
			c0,0,0,0,0.1,0.1l0.2,0.7l1.7,0.2v-0.6c0,0,0,0,0-0.1c0,0,0,0,0.1,0l2,0c0,0,0.1,0,0.1,0.1l0.2,0.8l1.3,0l0.1-0.7
			c0,0,0-0.1,0.1-0.1l1.4-0.1c0,0,0.1,0,0.1,0.1l0.2,0.8l1.2-0.1l0.1-0.7c0,0,0-0.1,0.1-0.1l1.3-0.2c0,0,0.1,0,0.1,0.1l0.3,0.8
			l1.3-0.3l0.2-0.8c0,0,0-0.1,0.1-0.1l2.7-0.6c0,0,0.1,0,0.1,0c0,0,0,0.1,0,0.1l-1.1,2.2c0,0,0,0-0.1,0l-1.3,0.4l0,0.9
			c0,0,0,0.1-0.1,0.1l-1.5,0.5c0,0,0,0-0.1,0c0,0,0,0,0-0.1l-0.3-0.9l-0.9,0.1l-0.1,0.9c0,0,0,0.1-0.1,0.1l-1.6,0.1
			c-0.1,0-0.1,0-0.1-0.1l-0.1-1L60,21.4L59.9,22.7C60,22.6,60,22.6,59.9,22.7C60,22.7,59.9,22.7,59.9,22.7z M58.3,22.5h1.5l0-1.2
			c0,0,0-0.1,0-0.1c0,0,0,0,0.1,0l1.5,0.1c0,0,0.1,0,0.1,0.1l0.1,1l1.5-0.1l0.1-0.9c0,0,0-0.1,0.1-0.1l1.1-0.1c0,0,0.1,0,0.1,0.1
			l0.3,0.9l1.4-0.4l0-0.9c0,0,0-0.1,0.1-0.1l1.4-0.4l1-2L65.9,19l-0.2,0.8c0,0,0,0.1-0.1,0.1l-1.4,0.2c0,0-0.1,0-0.1-0.1l-0.3-0.8
			l-1.2,0.1l-0.1,0.7c0,0,0,0.1-0.1,0.1l-1.4,0.1c0,0-0.1,0-0.1-0.1l-0.2-0.8l-1.3,0.1l-0.1,0.7c0,0,0,0.1-0.1,0.1l-1.4,0
			c0,0-0.1,0-0.1-0.1l-0.2-0.8l-1.8,0v0.6c0,0,0,0.1,0,0.1c0,0,0,0-0.1,0l-1.8-0.3c0,0-0.1,0-0.1-0.1l-0.2-0.8l-2.4-1.1l0.4,1.5
			l1.3,0.8c0,0,0,0.1,0,0.1l-0.1,1l1.1,0.5l0.2-1.1c0,0,0,0,0-0.1c0,0,0,0,0.1,0l1.1,0.3c0,0,0.1,0,0.1,0.1v1.2l1.4,0.2l0.3-1
			c0,0,0.1-0.1,0.1-0.1l1,0.1c0,0,0.1,0,0.1,0.1L58.3,22.5z"/>
	</g>
	<path d="M59.9,23.4h-1.6c-0.1,0-0.1-0.1-0.1-0.1l-0.1-1l-0.7-0.1l-0.3,1c0,0.1-0.1,0.1-0.2,0.1L55.3,23c-0.1,0-0.1-0.1-0.1-0.1
		v-1.2l-0.8-0.2l-0.1,1.1c0,0.1,0,0.1-0.1,0.1c0,0-0.1,0-0.1,0l-1.3-0.5c-0.1,0-0.1-0.1-0.1-0.1l0.1-1l-1.3-0.8c0,0-0.1-0.1-0.1-0.1
		l-0.5-1.7c0-0.1,0-0.1,0.1-0.2c0.1,0,0.1-0.1,0.2,0l2.6,1.1c0,0,0.1,0.1,0.1,0.1l0.2,0.7l1.5,0.2v-0.5c0,0,0-0.1,0.1-0.1
		c0,0,0.1,0,0.1-0.1l2,0c0.1,0,0.1,0.1,0.1,0.1l0.2,0.7l1.2,0l0.1-0.6c0-0.1,0.1-0.1,0.1-0.1l1.4-0.1c0.1,0,0.1,0,0.2,0.1l0.2,0.8
		l1.1-0.1l0.1-0.6c0-0.1,0.1-0.1,0.1-0.1l1.3-0.2c0.1,0,0.1,0,0.2,0.1l0.3,0.7l1.2-0.2l0.2-0.7c0-0.1,0.1-0.1,0.1-0.1l2.7-0.6
		c0.1,0,0.1,0,0.2,0.1c0,0.1,0.1,0.1,0,0.2l-1.1,2.2c0,0-0.1,0.1-0.1,0.1l-1.3,0.3l0,0.9c0,0.1,0,0.1-0.1,0.1l-1.7,0.6
		c0,0-0.1,0-0.1,0c0,0-0.1-0.1-0.1-0.1l-0.2-0.9l-0.8,0.1l-0.1,0.8c0,0.1-0.1,0.1-0.1,0.1l-1.6,0.1c-0.1,0-0.1-0.1-0.2-0.1l-0.1-0.9
		L60,22.1l0,1.1c0,0,0,0.1-0.1,0.1C60,23.4,60,23.4,59.9,23.4z M58.4,23.1h1.3l0-1.1c0-0.1,0-0.1,0.1-0.1c0,0,0.1-0.1,0.1,0l1.5,0.1
		c0.1,0,0.1,0.1,0.1,0.1l0.1,0.9L63,23l0.1-0.8c0-0.1,0.1-0.1,0.1-0.1l1.1-0.1c0.1,0,0.1,0,0.2,0.1l0.2,0.8l1.3-0.4l0-0.9
		c0-0.1,0.1-0.1,0.1-0.1l1.3-0.4l0.9-1.8L66,19.7l-0.2,0.7c0,0.1-0.1,0.1-0.1,0.1l-1.4,0.2c-0.1,0-0.1,0-0.2-0.1L63.8,20l-1.1,0.1
		l-0.1,0.7c0,0.1-0.1,0.1-0.1,0.1l-1.4,0.1c-0.1,0-0.1,0-0.2-0.1l-0.2-0.8l-1.2,0.1l-0.1,0.6c0,0.1-0.1,0.1-0.1,0.1l-1.4,0
		c-0.1,0-0.1-0.1-0.1-0.1l-0.2-0.7l-1.7,0v0.5c0,0.1,0,0.1-0.1,0.1c0,0-0.1,0-0.1,0l-1.8-0.3c-0.1,0-0.1-0.1-0.1-0.1l-0.2-0.7
		l-2.3-1l0.4,1.3l1.3,0.8c0.1,0,0.1,0.1,0.1,0.1l-0.1,1l1,0.4l0.1-1c0-0.1,0-0.1,0.1-0.1c0,0,0.1,0,0.1,0l1.1,0.3
		c0.1,0,0.1,0.1,0.1,0.1v1.2l1.3,0.2l0.3-1c0-0.1,0.1-0.1,0.2-0.1l1,0.1c0.1,0,0.1,0.1,0.1,0.1L58.4,23.1z"/>
	<path d="M53.3,8.6C53.3,8.6,53.3,8.6,53.3,8.6c-0.1-0.1-0.1-0.1,0-0.1c0.9-0.6,2-0.8,3.1-0.8c0,0,0.1,0,0.1,0.1c0,0,0,0.1-0.1,0.1
		C55.3,7.7,54.3,8,53.3,8.6C53.4,8.6,53.3,8.6,53.3,8.6z"/>
	<path d="M55.5,11.1L55.5,11.1c-0.1,0-0.1-0.1-0.1-0.1c0.3-0.9,0.9-1.7,1.8-2.2c0,0,0.1,0,0.1,0c0,0,0,0.1,0,0.1
		C56.4,9.4,55.8,10.2,55.5,11.1C55.6,11.1,55.5,11.1,55.5,11.1z"/>
	<path d="M59.8,11.3C59.7,11.3,59.7,11.2,59.8,11.3l-0.1-1.4c0,0,0-0.1,0.1-0.1c0.1,0,0.1,0,0.1,0.1l0.1,1.3
		C59.8,11.2,59.8,11.3,59.8,11.3z"/>
	<path d="M64,10.6C64,10.6,64,10.6,64,10.6c-0.4-0.6-0.8-1-1.4-1.3c-0.1,0-0.1-0.1-0.1-0.1c0,0,0.1-0.1,0.1,0
		c0.6,0.3,1.1,0.7,1.5,1.3C64.1,10.5,64.1,10.6,64,10.6C64.1,10.6,64,10.6,64,10.6z"/>
	<path d="M66.7,8.4L66.7,8.4c-0.6-0.2-1.1-0.4-1.7-0.6c-0.6-0.1-1.1-0.1-1.7,0.1c0,0-0.1,0-0.1-0.1c0,0,0-0.1,0.1-0.1
		c0.6-0.2,1.2-0.2,1.8-0.1c0.6,0.1,1.1,0.4,1.7,0.6C66.8,8.3,66.9,8.3,66.7,8.4C66.8,8.4,66.8,8.4,66.7,8.4z"/>
	<path d="M57,25.8L57,25.8c-0.9-0.1-1.8-0.5-2.5-1c-0.3-0.2-0.5-0.4-0.7-0.7c0,0,0-0.1,0-0.1c0,0,0.1,0,0.1,0
		c0.2,0.3,0.4,0.5,0.7,0.6c0.8,0.5,1.6,0.8,2.5,1c0,0,0.1,0.1,0.1,0.1C57.1,25.8,57.1,25.8,57,25.8z"/>
	<path d="M62.5,25.9C62.5,25.9,62.4,25.9,62.5,25.9c-0.1-0.1-0.1-0.1,0-0.1c1.3-0.1,2.5-0.6,3.5-1.5c0,0,0.1,0,0.1,0
		c0,0,0,0.1,0,0.1C65.1,25.3,63.8,25.8,62.5,25.9z"/>
	<path d="M58.1,25.9C58.1,25.9,58.1,25.9,58.1,25.9c-0.4-0.3-0.7-0.6-1-1.1c0,0,0-0.1,0-0.1c0,0,0.1,0,0.1,0c0.2,0.4,0.5,0.7,0.9,1
		C58.2,25.8,58.2,25.8,58.1,25.9C58.1,25.9,58.1,25.9,58.1,25.9z"/>
	<path d="M61.8,26.1C61.8,26.1,61.7,26.1,61.8,26.1c-0.1-0.1-0.1-0.1,0-0.2c0.4-0.1,0.6-0.4,0.8-0.8c0,0,0.1-0.1,0.1,0
		c0,0,0.1,0.1,0,0.1C62.5,25.6,62.2,25.9,61.8,26.1C61.8,26.1,61.8,26.1,61.8,26.1z"/>
</g>
</svg>
