<?xml version="1.0" encoding="utf-8"?>
<!-- Generator: Adobe Illustrator 25.2.1, SVG Export Plug-In . SVG Version: 6.00 Build 0)  -->
<svg version="1.1" id="Layer_1" xmlns="http://www.w3.org/2000/svg" xmlns:xlink="http://www.w3.org/1999/xlink" x="0px" y="0px"
	 viewBox="0 0 532 132" style="enable-background:new 0 0 532 132;" xml:space="preserve">
<style type="text/css">
	.st0{fill:url(#SVGID_1_);}
	.st1{fill:url(#SVGID_2_);}
	.st2{fill:url(#SVGID_3_);}
	.st3{fill:#FFFFFF;}
	.st4{display:none;opacity:0.4;}
</style>
<g>
	
		<linearGradient id="SVGID_1_" gradientUnits="userSpaceOnUse" x1="-462.8636" y1="466.1015" x2="-370.2377" y2="466.1015" gradientTransform="matrix(1 0 0 -1 471.3636 528.5)">
		<stop  offset="0" style="stop-color:#EC1E24"/>
		<stop  offset="1" style="stop-color:#F06A7A"/>
	</linearGradient>
	<path class="st0" d="M8.5,117.3l49.2-90.8l43.4-19L51.9,98.3L8.5,117.3z"/>
	
		<linearGradient id="SVGID_2_" gradientUnits="userSpaceOnUse" x1="-410.8156" y1="455.9476" x2="-352.1206" y2="455.9476" gradientTransform="matrix(1 0 0 -1 471.3636 528.5)">
		<stop  offset="0" style="stop-color:#EC1E24"/>
		<stop  offset="1" style="stop-color:#F06A7A"/>
	</linearGradient>
	<path class="st1" d="M60.5,96.6l37.4-69l21.3,20.8l-36.9,69.1L60.5,96.6z"/>
	
		<linearGradient id="SVGID_3_" gradientUnits="userSpaceOnUse" x1="-364.7147" y1="459.9077" x2="-317.3757" y2="459.9077" gradientTransform="matrix(1 0 0 -1 471.3636 528.5)">
		<stop  offset="0" style="stop-color:#EC1E24"/>
		<stop  offset="1" style="stop-color:#F06A7A"/>
	</linearGradient>
	<path class="st2" d="M126.4,50.4l27.6,10l-13.8,25.2l-33.5,1.2L126.4,50.4z"/>
	<path class="st3" d="M205.8,94h-17.4V45.4h17.5c4.9,0,9.2,1,12.7,2.9c3.6,1.9,6.3,4.7,8.2,8.3c1.9,3.6,2.8,7.9,2.8,13
		c0,5.1-1,9.4-2.9,13.1c-1.9,3.6-4.7,6.4-8.3,8.4C215.1,93,210.8,94,205.8,94z M198.8,85.1h6.6c4.6,0,8.1-1.2,10.5-3.7
		c2.4-2.4,3.6-6.4,3.6-11.8c0-5.4-1.2-9.3-3.6-11.8c-2.4-2.4-5.9-3.6-10.5-3.6h-6.6V85.1z"/>
	<path class="st3" d="M237.5,94h-11.1l16.9-48.5h13.4L273.6,94h-11.1l-3.6-11.1h-17.7L237.5,94z M243.8,74.9h12.5l-6-18.4h-0.4
		L243.8,74.9z"/>
	<path class="st3" d="M316.2,69.7c0,5.3-1,9.8-3,13.5c-2,3.7-4.8,6.5-8.2,8.5c-3.5,1.9-7.4,2.9-11.7,2.9c-4.3,0-8.3-1-11.7-2.9
		c-3.5-2-6.2-4.8-8.2-8.5c-2-3.7-3-8.2-3-13.4c0-5.3,1-9.8,3-13.5c2-3.7,4.7-6.5,8.2-8.5c3.5-1.9,7.4-2.9,11.7-2.9
		c4.3,0,8.2,1,11.7,2.9c3.5,1.9,6.2,4.8,8.2,8.5C315.2,59.9,316.2,64.4,316.2,69.7z M305.7,69.7c0-5.1-1.2-9.1-3.4-11.8
		c-2.3-2.7-5.3-4.1-9.1-4.1c-3.8,0-6.8,1.3-9.1,4.1c-2.3,2.8-3.4,6.7-3.4,11.8c0,5.1,1.2,9.1,3.4,11.8c2.3,2.7,5.3,4.1,9.1,4.1
		c3.8,0,6.8-1.3,9.1-4.1C304.5,78.7,305.7,74.8,305.7,69.7z"/>
	<path class="st3" d="M330.1,45.4h12.8L356.4,78h0.6l13.5-32.6h12.7V94h-10.1V62.4h-0.4l-12.7,31.4h-6.9l-12.7-31.5h-0.4V94h-10.1
		V45.4z"/>
	<path class="st3" d="M398.3,94.6c-3.5,0-6.4-0.9-8.7-2.8c-2.3-1.8-3.5-4.5-3.5-8.1c0-2.7,0.6-4.9,1.9-6.4c1.3-1.5,3-2.7,5.1-3.4
		c2.1-0.7,4.3-1.2,6.8-1.4c3.2-0.3,5.5-0.6,6.9-1c1.4-0.4,2.1-1.1,2.1-2.3v-0.1c0-1.5-0.5-2.7-1.4-3.5c-1-0.8-2.3-1.2-4-1.2
		c-1.8,0-3.3,0.4-4.4,1.2c-1.1,0.8-1.8,1.8-2.1,3l-9.4-0.8c0.7-3.3,2.5-6,5.2-7.9c2.8-1.9,6.4-2.9,10.8-2.9c2.7,0,5.3,0.4,7.6,1.3
		c2.4,0.8,4.3,2.2,5.8,4s2.2,4.2,2.2,7V94h-9.7v-5.1h-0.3c-0.9,1.7-2.2,3.1-4,4.2C403.3,94.1,401,94.6,398.3,94.6z M401.2,87.7
		c2.3,0,4.1-0.6,5.5-1.9c1.4-1.3,2.1-2.9,2.1-4.8v-3.8c-0.4,0.3-1,0.5-1.9,0.7c-0.8,0.2-1.7,0.4-2.7,0.5c-1,0.1-1.8,0.3-2.5,0.4
		c-1.8,0.3-3.2,0.8-4.3,1.5c-1.1,0.8-1.6,1.9-1.6,3.3c0,1.4,0.5,2.4,1.6,3.1C398.4,87.3,399.7,87.7,401.2,87.7z"/>
	<path class="st3" d="M423,94V45.4h10.2v25.9h0.6l11.8-13.8h11.7l-13.6,15.7L458,93.9h-12l-10.1-14.7l-2.8,3.1V94H423z"/>
	<path class="st3" d="M472.7,94.7c-3.8,0-7-0.8-9.8-2.3c-2.7-1.5-4.9-3.7-6.3-6.5c-1.5-2.8-2.2-6.1-2.2-10c0-3.7,0.7-7,2.2-9.9
		c1.5-2.8,3.6-5.1,6.2-6.6c2.7-1.6,5.8-2.4,9.4-2.4c3.2,0,6.1,0.7,8.8,2c2.6,1.3,4.7,3.4,6.2,6.1c1.6,2.8,2.3,6.1,2.3,10.3v2.8h-25
		c0,2.7,0.8,4.9,2.3,6.4c1.5,1.5,3.6,2.4,6.1,2.4c1.7,0,3.2-0.4,4.4-1.1c1.2-0.7,2.1-1.8,2.7-3.1l9.4,0.6c-0.7,3.4-2.5,6.1-5.4,8.1
		C481.1,93.7,477.3,94.7,472.7,94.7z M464.6,72.1H480c0-2.2-0.7-4-2.1-5.4c-1.4-1.4-3.2-2.1-5.4-2.1c-2.3,0-4.1,0.7-5.6,2.2
		C465.5,68.2,464.7,70,464.6,72.1z"/>
	<path class="st3" d="M492.2,94V57.6h9.9v6.3h0.4c0.6-2.2,1.8-4,3.4-5.1c1.6-1.2,3.4-1.7,5.4-1.7c1.2,0,2.2,0.1,3.2,0.4v9
		c-0.5-0.1-1.2-0.3-2-0.4c-0.8-0.1-1.6-0.1-2.3-0.1c-2.3,0-4.1,0.7-5.6,2.1c-1.5,1.4-2.2,3.2-2.2,5.4V94H492.2z"/>
</g>
<rect class="st4" width="532" height="132"/>
</svg>
