<?xml version="1.0" encoding="utf-8"?>
<!-- Generator: Adobe Illustrator 25.4.1, SVG Export Plug-In . SVG Version: 6.00 Build 0)  -->
<svg version="1.1" id="Layer_1" xmlns="http://www.w3.org/2000/svg" xmlns:xlink="http://www.w3.org/1999/xlink" x="0px" y="0px"
	 viewBox="0 0 975.7 206.5" style="enable-background:new 0 0 975.7 206.5;" xml:space="preserve">
<style type="text/css">
	.st0{fill-rule:evenodd;clip-rule:evenodd;fill:#ED1C24;}
	.st1{fill:#FFFEFF;}
</style>
<g>
	<path class="st0" d="M371.2,29.4c-5.2,7-8.8,2-15.6,4.2C358.7,27.6,365.7,30.1,371.2,29.4z"/>
	<path class="st0" d="M973.1,115.5c-2.6,2.7-6.3,3.1-10.4,2.8C962.9,110.3,969.8,116.7,973.1,115.5z"/>
	<path class="st0" d="M902.2,119.2c-0.2,8-7.1,1.5-10.4,2.8C893.2,118,902,117.2,902.2,119.2z"/>
	<path class="st0" d="M880.9,118.7c-3.1,5.1-6.5,9.5-12.4,8.7c0.3-2.7,0.6-5.3,1-8C876.3,120,876.2,119.2,880.9,118.7z"/>
	<path class="st0" d="M230.2,63.3c-3.1-0.1-6-0.4-7.2-2.9C223.4,57.3,232.7,57.1,230.2,63.3z"/>
	<path class="st0" d="M762.9,139.1c-5.4,10.9-18,5.8-25.7,5C745.9,133,752.7,141.3,762.9,139.1z"/>
	<path class="st0" d="M743.1,157c2.3-4.4,8.7,0.3,12.6-0.5C753.5,160.8,747,156.2,743.1,157z"/>
	<path class="st0" d="M502.8,138.4c0.6-2.9,10.8-3.4,8.4,3C507.9,141.1,504,141.4,502.8,138.4z"/>
	<path class="st0" d="M587.2,179c-11.7,18.3-28,6.4-45.8,4.7c5.4-17.9,17.6-5.6,25.7-5C574.7,179.1,582.5,171.6,587.2,179z"/>
	<path class="st0" d="M590.6,181.4c4.5,0.5,9.1,1.1,13.6,1.6C603,187.4,590,189.2,590.6,181.4z"/>
	<path class="st0" d="M539.1,181.3c-3,7.8-12.9,0.8-19.1,1.8C523.9,171.1,533.1,177.2,539.1,181.3z"/>
	<path class="st0" d="M515.6,178.5c-11.7,12.9-23.9,2.6-41.9,3.1C484.6,172.6,503,177.4,515.6,178.5z"/>
	<path class="st0" d="M446.2,180.4c-2.5,10.7-13.6,2.6-20.5,3.6C429.8,174.7,444.7,174.2,446.2,180.4z"/>
	<path class="st0" d="M401.8,173.1c-0.3,5.7,8.9,3,12.9,7.6c-3.9,9.8-14.6,4.5-20.5,3.6C395.4,177.6,400.4,179.2,401.8,173.1z"/>
	<path class="st0" d="M390.7,181.9c-9.8,10.1-39.9,16-40.9-4.9C363.3,178.2,380.8,168.3,390.7,181.9z"/>
	<path class="st0" d="M343.4,178.3c0.3,5.8-2.4,5-2.4,9.9c-2.4-3.8-9.2-2.1-11.9-5.5C333.5,175.7,336.1,179.8,343.4,178.3z"/>
	<path class="st0" d="M2.5,159.9c3.4,4.6,7.1-1,9.7,3.2c-1.3,8.2-6.9,6.9-12.1,6.7C-0.3,164,2.4,164.8,2.5,159.9z"/>
	<path class="st0" d="M680,117c4.4,27.2,24.1-6.6,34.2,8.2c6-4.7,14.4-1.2,20.1,0.4c-26.4,13.6-48.4,6.5-77.2,15.1
		c-2.3,1.9,2.4,6.4-1.4,12c-23.2,0.3-46.3,10-70.1,7.9c-4.7,0.9-0.2,6.1-3.7,9.7c-9.3-0.5-15.4-11-23.5-2.8
		c-53.6-9.1-108.5,6.2-162.7,4.9c-51.1-1.2-92.9-2.8-143.7-7c1-1.4,6-5.7,0.7-6c4.6-3,3.7-3.3,5.4-13.6c-8.9-5.7-6,13.8-9.8,19.1
		c-67,6.5-144.7-5.2-199-7.5c3.1-11,18.2,3.8,19-11.9c6.1,2.1,6.1,1.3,10.7,5.3c-2-5.4,15-21.5,22-15.6c2.4-2.3,3.4-7.7,6.2-9.4
		c-18.4-6.1-29-1.5-42.6-1c15.3-11.7,41.7,3.3,49.2-22.5c17.4-8.2,35.9,3.6,46.8-2.5c3.2-1.8,5.8-7.5,8.6-9.1
		c6.1-3.5,12,0.3,17.8-1.9c13.9-5.2,26.3-23.4,41.8-23.4c26.3-22.5,67.4-1.2,92.1-13.4c6.8,1.6,6.7,1.6,13.6,1.6
		c-0.5,4-3.7,2.1-3.4,7.7c13,4.3,18.9-7.7,30.2-0.5c34.7-18.1,85.5-13.3,125.3-17.5c2.6,0.7,1.4-7,2.4-9.9
		c18.8-2.4,33.2,3.5,47.3,3.6c1.8-1.1,2.8-4,3.4-7.7c10.1,0.8,18.7,1,20.3,8.5c1.4-15.7,19.1-1.1,16.4,10.1
		c6.4-0.6,6.2,0.1,11.6-2.7c-0.5-5.6-4.8,3-6-2.7c4.6-8.7,14.9-11.8,18.1-3.9c18-9.8,59.9-8,77.5,3.2c7.6-3.5,13-3.7,17.1,4.1
		c-0.5,2.3-2.5,1.4-4,1.5c6.1,10.7,14.3-0.2,22.1,4.7c2.6-8.9-8.4-0.8-8-7c8.8-5,28.9-0.9,35.9,4.3c-6.4-2.2-19.2-1.7-25-1
		c26.9,9.4,70.4,6.3,108.3,8.9c11.8,0.8,25.4,3.8,32.7-0.2c2.7,1.2,3.4,4.8,5.5,6.7c2.7,0.7,4.1-1.2,4.4-5.6
		c13.7,12.2,44.3,3.6,62.7,11.5c-4.9,9.4-12.8-3.3-19.1,1.8c2.4,2.1,3.3,6,5.2,8.7c19.8-8.7,45.2,8.2,60,3.1
		c-3.3,7.6-18.7,1.2-26.5,0.9c-6.3-0.3-18.4-2.2-25.5,3c-4.1-10-15.7-0.4-21.8-6.7c0-3.3,1.6-3.3,2-5.9c-2.1-1.4-5-1.6-5.7-4.7
		c-39.4,13.2-92.5,7.1-131.5,6.6c-1,2.4-0.8,6.2-4.7,7.6c-5.1-1.1,1.5-6.3-2.8-8.4c-22.2,6.4-45.2,5.4-70.1,7.9
		c45.6,5.9,83.6,4.2,123.6,6.6c4.8,0.2,0.3,1.7,0.5,6.2c3.3,0.4,7,1.6,8.9-1c0.1-2.4-2.1-2-3.5-2.4c2.2-2.6,6.2-6.8,7.9-3.1
		c0,3.5-1.4,3.7-3,3.7c4.8,6.7,10.2,2.1,18.3,4.2c0.2,4.5-2.7,2.6-3.2,5.7c1.5,2.9,5.3,1.3,7.4,0.9c4.2-0.1-2.6-9.9,3.4-7.7
		c5.3,1.5-2.8,3.9,0,10.2c-13.5,6.3-36.4,1-42.6,9.1C768.2,115.2,720.7,111.9,680,117z M631.9,46.3c15.1,11.3,27.9-2.4,44.9,3.3
		C666.2,38.1,644.1,44.6,631.9,46.3z M413.6,75c3.5,0.1,8.3,2.7,9.2-3C419.7,73.2,413.5,67.3,413.6,75z M374.4,76.4
		c3.9-1.8,9-0.8,11.9-4.7C380.8,74.6,377.6,67.7,374.4,76.4z M170.7,119.1c4.7-3.3,14,3.2,16.8-4.1
		C182,111.4,175.3,113.7,170.7,119.1z M138.6,125.4c9.4-2.5,21.5,0.9,27.5-8.9c-6.4-0.9-22.3-6.3-31.5,0.3c0.1,6.5,5.5,2,5.7,4.8
		C138.9,122.2,133.3,125.1,138.6,125.4z M317,146.7c13.8,4.5,23.5-3,38.9,0.6C345.1,137.5,329.8,145.3,317,146.7z"/>
	<path class="st0" d="M760.1,120.5c1.2,7.7-10.7,8.7-17.3,8.1C746.6,121.6,757.3,121.9,760.1,120.5z"/>
	<path class="st0" d="M635.7,182.7c-0.5,2.4-11.6,5.1-15.3,2.2C624.6,176.9,629.6,186.1,635.7,182.7z"/>
</g>
<g>
	<path class="st1" d="M616.5,129.3h-4.6V81.4h4.6c0.1,0,7.5-0.4,13.2,4.9c4.4,4.1,6.6,10.4,6.6,18.8c0,1.3-0.1,2.5-0.2,3.7
		c0.1,1.4,0.3,3.4,0.6,4.3c0,0.1,0.3,0.4,0.3,0.5c-0.1,0.3-1.1,2.3-1.2,2.4c-0.8,0.6,0.3,0.3,0.3,0.3l3.1-0.5l-4,2.7l0.2,1.1
		c0,0-0.7,0.4-1.7,0.8c-0.9,0.4-0.7,0.9-0.2,1.6c0.5,0.7-1.2,1.2-2,1.8c-0.4,0.3-1.7,0.8-2.7,1C623.2,129.6,616.5,129.3,616.5,129.3
		z M626.2,133.4l1.9-0.8l-3.1-0.9c0,0,5.7-0.9,5.9-1c0.2-0.1,1.4-0.7,1.7-0.9c0.3-0.2,1.7-1.2,1.7-1.2s-0.6-0.3-1-0.5
		c-0.1,0,0.3-0.5,0.4-0.5c0.5-0.1,1.1-0.3,1.6-0.6c0.9-0.4,1.2-1.2,1.2-1.2h1.4l0.7-1.4c0,0,1.2-0.9,2.4-1.6
		c2.8-4.3,4.7-10,4.7-17.6c0-29.8-29-30.3-29.3-30.3h-0.6v0H604v0h-3.9v0.2c2,1.1,4.3,2.7,4.3,2.7l-0.6,1.1c0,0.1,0.1,0.2,0.1,0.3h1
		l4.2-0.2l-3.2,3c0,0,0.9,1.2,0.7,1.5c-0.2,0.3-0.9,0.6-1.1,1c-0.2,0.4-0.2,1.4-0.6,1.9c-0.3,0.4-0.9,2.9-0.9,2.9l0,0.2v22.7l1,5.6
		l1.1,1.2c0,0-0.5,4-0.6,4.3c-0.1,0.3-0.8,2.2-0.8,2.2l0.8,1.8c0,0-1,1.1-1.2,1.3c-0.2,0.2,2.5,1.7,2.5,1.7s-1.7,0.9-3,1.6
		c-0.5,1.5-2,2.6-3.7,2.6v1.3h9.7v0h6.7c0.1,0,3.9-0.1,8.7-1.6L626.2,133.4z M586.7,129.3h-18.2V108h9.9c2.2,0,3.9,1.8,3.9,3.9h1.3
		V97.6h-1.3c0,2.2-1.8,3.9-3.9,3.9h-9.9V81.5h5.9l3.5-1c0,0,5.2-0.8,5.6-0.8c0.4,0,1.7,0.8,2.1,0.9c0.5,0.1-0.8-2.6-0.6-2.6
		c0.2,0,3.1,1.7,3.1,1.7l0.6,1c0,0,1.4,0.3,1.2,0.7c-0.2,0.3,1,2.8,1.7,4.1h0.3V75h-19.5v0h-15.7V75l4.4,2.1l-0.5,0.7l1.6,0.9
		c0.2,0.1,0.3,0.4,0.3,0.7l-0.3,1.3c0,0,2.2,2.6,2.1,2.6l-2.5-0.6c0,0,0.6,5.9,0.6,6.1s-1.1,1.5-1.1,1.5l0.7,0.7l-1.4,13.7v25.9
		c-0.1,2.1-1.8,3.8-3.9,3.8v1.3h3.1c1.1-0.5,2.1-0.5,2.2-0.8c0.1-0.5,0.9-3.1,0.9-3.1s1.6,2.4,1.9,2.5c0.3,0.1,0.6,0.6,1.5,0
		c0.9-0.6,1.6-1,1.7-0.8c0.3,0.4,1.5,1,2.2,1.2c0.8,0.1,4.1-0.2,4.4-0.1c0.2,0.1,1.9,0.9,2.5,1.2H592v-10.4h-1.3
		C590.7,127.5,588.9,129.3,586.7,129.3z M519.6,93.3l-2.3-5.3l1.1,0.3c0,0,0.6-0.7,0.6-0.8c0.1-0.1,0.2-1.5,0.2-1.5l-0.1-0.7
		l0.4-0.2v-3.3c-0.4-0.6-0.8-1.3-0.8-1.3l1.7,1h1l0.6-0.4l3.2-0.4l1,0.8h1c0.4,0,10.9,0.4,10.9,10.1c0,9.6-10.3,10-10.9,10h-7.6
		V93.3z M543.8,130.8l-12.1-22.9c2.6-0.4,6.8-1.5,10-4.6c2.9-2.8,4.4-6.8,4.4-11.7c0-4.9-1.5-8.8-4.4-11.7
		c-4.9-4.9-12.2-4.9-12.5-4.9h-1.3l-2,0.3l1.5,3c0,0-2.5-2.3-2.6-2.5c-0.1-0.1-1.1-0.4-1.7-0.3c-0.6,0.1-1.1-0.6-1.1-0.6l0.9,2
		l-2.1-1.3l-1.4-0.3l-1.5,0.8c0,0-1.5-0.7-1.9-0.7c-0.4,0-2,0.3-2,0.3l-5.9-0.9h-0.2v1.3c2.1,0,3.9,1.7,3.9,3.9v36l0.5,1l0.4,1.8
		v1.4l1.5,0.9l-0.8,3.3c0,0,0.2,1.8,0.2,2c0.1,0.2,0.3,1.1,0.3,1.3c0,0.2-0.1,0.4-0.6,1.3c-0.5,0.8,0.1,1.6,0.1,1.6l3.3,0.2
		c0,0-1.9,0.6-2.5,0.6s-1.6,0.6-1.6,0.6l-0.1,1.1l-1.2,0.7l-3.4,1.9v0.2h15.7v-1.3c-2.1,0-3.9-1.7-3.9-3.8V108h4.1l5.3,10.1
		c1.7,1.6,4.2,3.8,4.2,3.9c0,0.2,0.5,1.9,1,3.3c0.6,1.4,0.7,1.2,1.4,1.7c0.7,0.4,1.4,2.3,1.5,2.6c0.1,0.3,0.8,0.7,1.7,1.3
		c0.9,0.6-0.1,1.2-0.1,1.2l3.4,1.6l-2.9,0.5c0,0-0.5,0.8-1,1.6H550v-1.3C547.4,134.5,545,133.1,543.8,130.8z M494.4,129.3h-18.2V108
		h9.9c2.2,0,3.9,1.8,3.9,3.9h1.3V97.6h-1.3c0,2.2-1.8,3.9-3.9,3.9h-9.9V81.5h5.9l3.5-1c0,0,5.2-0.8,5.6-0.8c0.4,0,1.7,0.8,2.1,0.9
		c0.5,0.1-0.8-2.6-0.6-2.6c0.2,0,3.1,1.7,3.1,1.7l0.6,1c0,0,1.4,0.3,1.2,0.7c-0.2,0.3,1,2.8,1.7,4.1h0.3V75h-19.5v0h-15.7V75
		l4.4,2.1l-0.5,0.7l1.6,0.9c0.2,0.1,0.3,0.4,0.3,0.7l-0.3,1.3c0,0,2.2,2.6,2.1,2.6l-2.5-0.6c0,0,0.6,5.9,0.6,6.1s-1.1,1.5-1.1,1.5
		l0.7,0.7l-1.4,13.7v25.9c-0.1,2.1-1.8,3.8-3.9,3.8v1.3h3.1c1.1-0.5,2.1-0.5,2.2-0.8c0.1-0.5,0.9-3.1,0.9-3.1s1.6,2.4,1.9,2.5
		c0.3,0.1,0.6,0.6,1.5,0c0.9-0.6,1.6-1,1.7-0.8c0.3,0.4,1.5,1,2.2,1.2c0.8,0.1,4.1-0.2,4.4-0.1c0.2,0.1,1.9,0.9,2.5,1.2h14.7v-10.4
		h-1.3C498.4,127.5,496.6,129.3,494.4,129.3z M450.7,91l0.5-3.7l1.2-2.4l0.1-1.2l-2.3,0.8l4.1-4.4l-0.2-0.6l1.5-1.9l5-2.5v-0.1
		h-14.7v1.3c0.8,0,1.6,0.4,2.1,1.1c0.5,0.7,0.6,1.5,0.3,2.3l-14.5,37.5l-7.3-18.7l-4.1-6.5c0,0-0.6-1.4-0.6-1.6
		c-0.1-0.2-0.5-0.8-0.5-0.8l-0.6,1l-1,0.7c0,0,0.4-5.5,0.3-5.8c-0.1-0.3-1.3-0.7-1.6-0.9c-0.3-0.2,0.4-1.9,0.4-2.1
		c-0.1-0.2-0.1-1.1-0.1-1.1l0-0.9l-0.4-0.8l-0.7,0l1.4-1.7c0.1-0.2,0.2-0.4,0.3-0.6c0.2-0.3,0.5-0.5,0.7-0.7l1.3-1.6v-0.1h-16.2v1.3
		c2.5,0,4.7,1.5,5.7,3.8l12.1,30.8c0.7,1.1,1.4,2.2,1.7,2.4c0.6,0.4,1.2,0.7,1.2,1.4c0,0.8,0.4,1.5,0.4,1.5l1,0.8l0.4,2.3l1.4,1.7
		l0.8-0.9l1.4-1.3c0,0-1.4,4.9-1.3,5.3c0.1,0.4,0.6,1.3,0.6,1.7c0,0.3-0.3,2.2-0.3,2.2l1.1,2.7l1.1,4.7l0.6,1.5l4.2-10.8v0L450.7,91
		z M395.3,132.5l0.7-2.6v-2.5l-2.8,0.7l2.3-4.6c0,0-1.2,0.1-1.1,0c0.8-1.9,1.3-5.7,1.5-7.5V91.5c-0.3-1-0.6-1.9-0.6-1.9l0.2-2
		l-2.6,2.3l1.5-3.2l0.9-1l-0.7-2.5l0.2-1.4l1-0.1V81l-2.8-2.5c0,0,4.1-2.2,6.6-3.6h-15.6v1.3c2.1,0,3.9,1.7,3.9,3.8v18.1l0-0.5
		c0,0.2,0.4,1.2,0.8,2.3c0.1,0.3,0.8,0.3,0.9,0.6c0.1,0.3,0,1.7,0,1.7s1.1,1.2,1,1.5c0,0.1-0.2,2.3-0.3,2.4l-1.4,0.9l1.6,8.6
		l-1.9-2.9l-0.6,2.4v15.5c-0.1,2.1-1.8,3.8-3.9,3.8v1.3H400v-1.3c-0.9,0-1.7-0.3-2.3-0.8C396.7,133.2,395.3,132.5,395.3,132.5z
		 M376.5,125.4c0,1.8-1.3,3.4-3,3.8c-0.5,0.4-0.8,0.6-0.8,0.6l-1.1-0.1l-0.9-0.4l0,0h-0.9c-0.1,0.1-0.2,0.1-0.2,0.3
		c-0.5,0.7-3.1,2.9-3.1,2.9l1-2.8c0,0-1.6,0.2-1.8,0.2c-0.2,0-1-0.4-1-0.4l-2.9,0.6l-5-0.7h-2.2V94.9L353,91l0.2-1.1
		c0,0-1.1-1.4-1.1-1.7c0-0.2,1-3.1,1-3.1l-0.4-1.5l-2.2,0.8l3.6-3.1l-0.4-1.8l1-1c0.6-1.4,2-2.3,3.6-2.3V75h-15.7v1.3
		c2.1,0,3.9,1.7,3.9,3.8v38.2l0.5,1l-0.5,1.3v0l0.8,1.6l-0.8,3.4v0.7l2.7-1.4l-2.7,4.7v0.7l0.9,2.1l-4.8,3.4h4.8v0h30.3v-10.4H376.5
		z M329.1,129.3h-18.2V108h9.9c2.2,0,3.9,1.8,3.9,3.9h1.3V97.6h-1.3c0,2.2-1.8,3.9-3.9,3.9h-9.9V81.5h5.9l3.5-1c0,0,5.2-0.8,5.6-0.8
		c0.4,0,1.7,0.8,2.1,0.9c0.5,0.1-0.8-2.6-0.6-2.6c0.2,0,3.1,1.7,3.1,1.7l0.6,1c0,0,1.4,0.3,1.2,0.7c-0.2,0.3,1,2.8,1.7,4.1h0.3V75
		h-19.5v0h-15.7V75l4.4,2.1l-0.5,0.7l1.6,0.9c0.2,0.1,0.3,0.4,0.3,0.7l-0.3,1.3c0,0,2.2,2.6,2.1,2.6l-2.5-0.6c0,0,0.6,5.9,0.6,6.1
		s-1.1,1.5-1.1,1.5l0.7,0.7l-1.4,13.7v25.9c-0.1,2.1-1.8,3.8-3.9,3.8v1.3h3.1c1.1-0.5,2.1-0.5,2.2-0.8c0.1-0.5,0.9-3.1,0.9-3.1
		s1.6,2.4,1.9,2.5c0.3,0.1,0.6,0.6,1.5,0c0.9-0.6,1.6-1,1.7-0.8c0.3,0.4,1.5,1,2.2,1.2c0.8,0.1,4.1-0.2,4.4-0.1
		c0.2,0.1,1.9,0.9,2.5,1.2h14.7v-10.4H333C333,127.5,331.3,129.3,329.1,129.3z M261.6,129.3H257V81.4h4.6c0.1,0,7.5-0.4,13.2,4.9
		c4.4,4.1,6.6,10.4,6.6,18.8c0,1.3-0.1,2.5-0.2,3.7c0.1,1.4,0.3,3.4,0.6,4.3c0,0.1,0.3,0.4,0.3,0.5c-0.1,0.3-1.1,2.3-1.2,2.4
		c-0.8,0.6,0.3,0.3,0.3,0.3l3.1-0.5l-4,2.7l0.2,1.1c0,0-0.7,0.4-1.7,0.8c-0.9,0.4-0.7,0.9-0.2,1.6c0.5,0.7-1.2,1.2-2,1.8
		c-0.4,0.3-1.7,0.8-2.7,1C268.3,129.6,261.7,129.3,261.6,129.3z M271.3,133.4l1.9-0.8l-3.1-0.9c0,0,5.7-0.9,5.9-1
		c0.2-0.1,1.4-0.7,1.7-0.9c0.3-0.2,1.7-1.2,1.7-1.2s-0.6-0.3-1-0.5c-0.1,0,0.3-0.5,0.4-0.5c0.5-0.1,1.1-0.3,1.6-0.6
		c0.9-0.4,1.2-1.2,1.2-1.2h1.4l0.7-1.4c0,0,1.2-0.9,2.4-1.6c2.8-4.3,4.7-10,4.7-17.6c0-29.8-29-30.3-29.3-30.3h-0.6v0h-11.8v0h-3.9
		v0.2c2,1.1,4.3,2.7,4.3,2.7l-0.6,1.1c0,0.1,0.1,0.2,0.1,0.3h1l4.2-0.2l-3.2,3c0,0,0.9,1.2,0.7,1.5c-0.2,0.3-0.9,0.6-1.1,1
		c-0.2,0.4-0.2,1.4-0.6,1.9c-0.3,0.4-0.9,2.9-0.9,2.9l0,0.2v22.7l1,5.6l1.1,1.2c0,0-0.5,4-0.6,4.3c-0.1,0.3-0.8,2.2-0.8,2.2l0.8,1.8
		c0,0-1,1.1-1.2,1.3c-0.2,0.2,2.5,1.7,2.5,1.7s-1.7,0.9-3,1.6c-0.5,1.5-2,2.6-3.7,2.6v1.3h9.7v0h6.7c0.1,0,3.9-0.1,8.7-1.6
		L271.3,133.4z"/>
</g>
</svg>
