<?xml version="1.0" encoding="utf-8"?>
<!-- Generator: Adobe Illustrator 25.4.1, SVG Export Plug-In . SVG Version: 6.00 Build 0)  -->
<svg version="1.1" id="Layer_1" xmlns="http://www.w3.org/2000/svg" xmlns:xlink="http://www.w3.org/1999/xlink" x="0px" y="0px"
	 viewBox="0 0 620 374.9" style="enable-background:new 0 0 620 374.9;" xml:space="preserve">
<style type="text/css">
	.st0{fill:#333333;}
	.st1{fill:#676767;}
	.st2{fill:#010101;}
	.st3{fill:#CC452B;}
	.st4{fill:#E54D31;}
	.st5{fill:#333333;stroke:#000000;stroke-width:9;stroke-miterlimit:10;}
	.st6{fill:#E6E6E5;}
	.st7{fill:#EE1C4E;}
</style>
<g>
	<g>
		<g>
			<path class="st0" d="M410.1,211.4l-3.7-1.5L375.5,46.8c-1.4-7.6-6.4-14-13.4-17.3L316.4,8.2c-9.6-4.5-20.8-4.5-30.4,0l-45.6,21.3
				c-7,3.3-12,9.7-13.4,17.3l-30.9,163.1l-3.7,1.5c-6.7,2.8-11.1,9.4-11.1,16.6v55.1h240v-55.1C421.2,220.8,416.8,214.2,410.1,211.4
				z"/>
		</g>
	</g>
	<g>
		<g>
			<g>
				<path class="st1" d="M246.3,244l54.9,21.1l54.9-21.1c11.1-7.4,19.4-18.3,23.6-30.9l17.1-52.3L375.5,47.8
					c-1.4-7.6-6.4-14-13.4-17.3L316.4,9.3c-9.6-4.5-20.8-4.5-30.4,0l-45.6,21.3c-7,3.3-12,9.7-13.4,17.3l-21.4,112.9l17.1,52.2
					C226.9,225.7,235.2,236.6,246.3,244z"/>
			</g>
		</g>
	</g>
	<g>
		<g>
			<g>
				<g>
					<path class="st0" d="M316.3,75.2l76.4,63.8l-17.5-92.3c-1.4-7.6-6.4-14-13.4-17.3L316.2,8.2c-9.6-4.5-20.8-4.5-30.4,0
						l-45.6,21.3c-7,3.3-12,9.7-13.4,17.3L209.2,139l76.4-63.8C294.5,67.8,307.4,67.8,316.3,75.2z"/>
				</g>
			</g>
		</g>
	</g>
	<g>
		<g>
			<path class="st2" d="M411.9,207l-1.3-0.5L386.8,80.7l-9.4,1.8l7.7,40.7l-65.5-51.1c-10.7-8.8-26.1-8.8-36.8,0l-65.5,51.1
				l14.3-75.5c1.1-6.1,5.2-11.2,10.7-13.8L288,12.5c8.4-3.9,18-3.9,26.4,0L360,33.8c5.6,2.6,9.6,7.8,10.7,13.8l7,35.4l9-2l-6.6-35.1
				c-1.7-9.1-7.7-16.8-16.1-20.7L318.5,3.8c-11-5.1-23.5-5.1-34.5,0l-45.6,21.3c-8.4,3.9-14.4,11.7-16.1,20.7l-30.4,160.6l-1.3,0.5
				c-8.6,3.5-14.1,11.8-14.1,21.1v16.7h9.6v-16.7c0-5.4,3.2-10.2,8.2-12.2l21.8-9l2.2,6.6c4.5,13.6,13.6,25.5,25.5,33.4
				c0.3,0.2,0.6,0.4,0.9,0.5l54.9,21.1c0.6,0.2,1.1,0.3,1.7,0.3c0.6,0,1.2-0.1,1.7-0.3l54.9-21.1c0.3-0.1,0.6-0.3,0.9-0.5
				c11.9-8,21-19.8,25.5-33.4l2.2-6.6l21.8,9c5,2,8.2,6.8,8.2,12.2v50.3H186v-44h-9.6v48.8c0,2.7,2.1,4.8,4.8,4.8h240
				c2.7,0,4.8-2.1,4.8-4.8v-55.1C426,218.8,420.5,210.5,411.9,207z M265.3,196.8l-2.6-14.2c-0.2-1.4-1.1-2.5-2.3-3.3l-18-10.8
				c-2.8-1.7-4.9-4.4-5.9-7.5l-9.9-33l62.1-48.5c0,0,0.1-0.1,0.1-0.1c7.1-5.9,17.5-5.9,24.6,0c0,0,0.1,0.1,0.1,0.1l62.1,48.5
				l-9.9,33c-0.9,3.2-3,5.8-5.9,7.5l-18,10.8c-1.2,0.7-2,1.9-2.3,3.3l-2.6,14.2 M335.4,206.4l-1.7,9.3c-1.7,9.1-9.6,15.8-18.9,15.8
				h-27.1c-9.3,0-17.2-6.6-18.9-15.8l-1.7-9.3l69.7-1.4h-1 M202.4,202.1l4.3-22.8l6.2,18.5L202.4,202.1z M353.8,238.6l-52.6,20.3
				l-52.6-20.3c-9.9-6.8-17.5-16.8-21.3-28.2l-16.8-50.5l4.2-22.4l3.9-3.1l8.8,29.4c1.6,5.5,5.2,10.1,10.1,13l16.2,9.7l5.6,31
				c2.5,13.7,14.4,23.6,28.3,23.6h27.1c13.9,0,25.8-9.9,28.3-23.6l5.6-31l16.2-9.7c4.9-2.9,8.5-7.5,10.1-13l8.8-29.4l3.9,3.1
				l4.2,22.4l-16.8,50.5C371.3,221.9,363.8,231.8,353.8,238.6z M395.7,179.3l4.3,22.8l-10.5-4.3L395.7,179.3z"/>
		</g>
	</g>
	<g>
		<g>
			<path class="st3" d="M236.7,176.1H233c-11.7,0-21.7-8.5-23.7-20.1l-6.3-37.5h8.4c13.9,0,25.2,11.3,25.2,25.2V176.1z"/>
		</g>
	</g>
	<g>
		<g>
			<path class="st3" d="M361.5,176.1h3.7c11.7,0,21.7-8.5,23.7-20.1l6.3-37.5h-8.4c-13.9,0-25.2,11.3-25.2,25.2V176.1z"/>
		</g>
	</g>
	<g>
		<g>
			<path class="st4" d="M366.3,149.1c0,48.7-30.1,98.6-67.2,98.6c-37.1,0-67.2-49.9-67.2-98.6s30.1-83,67.2-83
				C336.2,66.1,366.3,100.4,366.3,149.1z"/>
		</g>
	</g>
	<g>
		<g>
			<g>
				<path class="st5" d="M286.8,96.7l3.8,3.8c4.7,4.7,12.3,4.7,17,0l3.8-3.8c4-4,10.4-4.7,15.1-1.5l28.4,6.4
					C342.8,79.6,324,61,300.8,61c-23.9,0-46.5,19.3-58.4,42.3l29.3-8.2C276.5,92,282.8,92.6,286.8,96.7z"/>
			</g>
		</g>
	</g>
	<g>
		<g>
			<path class="st0" d="M251.1,132.1l33.6,19.2l-12.6,8.4c-7.4,4.9-17.5,0.4-18.6-8.5L251.1,132.1z"/>
		</g>
	</g>
	<g>
		<g>
			<path class="st0" d="M347.1,132.1l-33.6,19.2l12.6,8.4c7.4,4.9,17.5,0.4,18.6-8.5L347.1,132.1z"/>
		</g>
	</g>
	<g>
		<g>
			<path class="st3" d="M362.7,102.6l3.6-46.5L334.9,91c-5.7,6.3-3.2,16.3,4.7,19.3l7,2.6C354,115.7,362.1,110.6,362.7,102.6z"/>
		</g>
	</g>
	<g>
		<g>
			<path class="st3" d="M235.5,102.6l-3.6-46.5L263.3,91c5.7,6.3,3.2,16.3-4.7,19.3l-7,2.6C244.2,115.7,236.1,110.6,235.5,102.6z"/>
		</g>
	</g>
	<g>
		<g>
			<polygon class="st6" points="255.9,200.1 251.1,233.7 279.9,209.7 			"/>
		</g>
	</g>
	<g>
		<g>
			<polygon class="st6" points="342.3,200.1 347.1,233.7 318.3,209.7 			"/>
		</g>
	</g>
	<g>
		<g>
			<path class="st2" d="M346,249.3l-6.7-15.7c0,0,0.1-0.1,0.1-0.1l4.7,3.9c0.9,0.7,2,1.1,3.1,1.1c0.8,0,1.6-0.2,2.3-0.6
				c1.7-1,2.7-2.9,2.4-4.9l-1.8-12.8c7.8-11.6,13.6-25.1,17.2-39.4c13.2-0.9,24.2-10.7,26.4-24l6.3-37.5c0.2-1.4-0.2-2.8-1.1-3.9
				c-0.9-1.1-2.3-1.7-3.7-1.7h-8.4c-7.1,0-13.9,2.5-19.2,6.9c-0.8-3.2-1.8-6.3-3-9.3c1.7-2.4,2.7-5.3,2.9-8.3l3.6-46.5
				c0.2-2-1-4-2.9-4.8c-1.9-0.8-4.1-0.3-5.5,1.2l-21.6,24C331.8,94,314,99,298.8,99c-15.5,0-32-11-41.7-22.1l-21.6-24
				c-1.4-1.5-3.6-2-5.5-1.2c-1.9,0.8-3.1,2.7-2.9,4.8l3.6,46.5c0.2,3,1.3,5.9,2.9,8.3c-1.1,3.1-2.1,6.2-3,9.4
				c-5.3-4.4-12.1-6.9-19.2-6.9h-8.4c-1.4,0-2.8,0.6-3.7,1.7c-0.9,1.1-1.3,2.5-1.1,3.9l6.8,38.8l9.5-1.6l-5.9-33.2h2.7
				c6.7,0,13,3.4,16.8,8.8c-0.8,5.5-1.2,11.2-1.2,17c0,7.3,0.6,14.6,1.8,21.8c-7.6-1.6-13.5-7.7-14.9-15.6l-9.5,1.6
				c2.2,13.3,13.2,23.1,26.4,24c3.5,14.3,9.4,27.8,17.2,39.4l-1.8,12.8c-0.3,2,0.7,3.9,2.4,4.9c0.7,0.4,1.5,0.6,2.3,0.6
				c1.1,0,2.2-0.4,3.1-1.1l4.7-3.9c0,0,0.1,0.1,0.1,0.1l-6.7,15.7 M343.4,258.6 M254.8,258.6 M369.9,132.2c3.8-5.6,10-8.8,16.8-8.8
				h2.7l-5.3,32c-1.3,7.9-7.3,14-14.9,15.6c1.2-7.2,1.8-14.5,1.8-21.8C371.1,143.3,370.7,137.7,369.9,132.2z M261.6,251.8l4.9-11.4
				c10.1,8,21.2,12.1,32.6,12.1c11.4,0,22.5-4.1,32.6-12.1l4.9,11.4 M327.6,211.2l10.9-4.3l2.2,15.2L327.6,211.2z M332,227.4
				c-12.6,12.8-24.7,15.6-32.9,15.6c-14,0-25.2-7.9-32.9-15.6l14.9-12.4l16.8,4.2c0.4,0.1,0.8,0.1,1.2,0.1c0.4,0,0.8,0,1.2-0.1
				l16.8-4.2L332,227.4z M257.6,222l2.2-15.2l10.9,4.3L257.6,222z M338.4,94.2l22-24.4l-2.5,32.4c-0.2,2.3-1.4,4.3-3.3,5.5
				c-1.9,1.2-4.3,1.5-6.4,0.7l-7-2.6c-2.3-0.8-3.9-2.7-4.5-5C336.2,98.4,336.8,96,338.4,94.2z M269.2,91.1c-0.6-1.2-1.4-2.3-2.3-3.3
				l-3.4-3.7 M334.7,84.1l-3.4,3.7c-0.9,1-1.7,2.1-2.3,3.3c-6.6-4.3-15.5-3.4-21.1,2.2l-3.8,3.8c-2.8,2.8-7.4,2.8-10.2,0
				 M259.8,94.2c1.6,1.8,2.2,4.2,1.6,6.5c-0.6,2.3-2.2,4.2-4.5,5l-7,2.6c-2.1,0.8-4.5,0.6-6.4-0.7c-1.9-1.2-3.1-3.2-3.3-5.5
				l-2.5-32.4L259.8,94.2z M253.5,196c-1.3,0.7-2.1,2-2.3,3.5l-0.8,5.6c-8.7-16.7-13.6-36.8-13.6-55.9c0-11.3,1.7-21.9,4.9-31.7
				c1.9,0.7,3.8,1,5.8,1c2,0,4-0.4,5.9-1.1l7-2.6c5.2-2,9.1-6.3,10.4-11.7c0.1-0.6,0.2-1.1,0.3-1.7l3.3-2.2c2.8-1.9,6.7-1.5,9.1,0.9
				l3.8,3.8c3.3,3.3,7.6,4.9,11.9,4.9c4.3,0,8.6-1.6,11.9-4.9l3.8-3.8c2.4-2.4,6.2-2.8,9.1-0.9l3.3,2.2c0.1,0.6,0.2,1.1,0.3,1.7
				c1.3,5.4,5.2,9.8,10.4,11.7l7,2.6c1.9,0.7,3.9,1.1,5.9,1.1c2,0,3.9-0.4,5.8-1c3.3,9.8,4.9,20.4,4.9,31.7c0,19.2-5,39.2-13.6,55.9
				l-0.8-5.6c-0.2-1.5-1.1-2.7-2.3-3.5c-1.3-0.7-2.8-0.8-4.2-0.3l-23.7,9.5l-17.7,4.4l-17.7-4.4l-23.7-9.5
				C256.3,195.1,254.8,195.2,253.5,196z"/>
		</g>
		<g>
			<path class="st2" d="M265.4,166.5c3.3,0,6.5-1,9.3-2.8l12.6-8.4c1.4-0.9,2.2-2.5,2.1-4.2c-0.1-1.7-1-3.2-2.4-4l-33.6-19.2
				c-1.6-0.9-3.5-0.8-5,0.2c-1.5,1-2.3,2.8-2.1,4.6l2.4,19.1c0.7,5.8,4.3,10.8,9.7,13.2C260.7,166,263,166.5,265.4,166.5z"/>
		</g>
		<g>
			<path class="st2" d="M310.8,155.3l12.6,8.4c2.8,1.9,6,2.8,9.3,2.8c2.4,0,4.8-0.5,7-1.5c5.3-2.4,9-7.4,9.7-13.2l2.4-19.1
				c0.2-1.8-0.6-3.6-2.1-4.6c-1.5-1-3.5-1.1-5-0.2l-33.6,19.2c-1.4,0.8-2.4,2.3-2.4,4C308.6,152.8,309.4,154.3,310.8,155.3z"/>
		</g>
		<g>
			<rect x="284.7" y="176.1" class="st2" width="9.6" height="9.6"/>
		</g>
		<g>
			<rect x="303.9" y="176.1" class="st2" width="9.6" height="9.6"/>
		</g>
	</g>
	<path class="st0" d="M304.1,99.6c3.4-0.3,6.8-0.9,10.2-1.7c8.8-2.2,18.2-6.1,22-14.4c0.7-1.4,1.1-3,0.7-4.5
		c-0.6-2.2-2.7-3.5-4.8-4.3c-7.1-2.8-15-2.6-22.5-1.7c-10.1,1.3-20.1,3.8-29.1,8.6c-3.4,1.8-9.9,4.6-6.1,9c3.1,3.5,8.8,5.6,13.1,7
		C292.9,99.3,298.5,100.1,304.1,99.6z"/>
	<path class="st2" d="M299.4,91.8c7.7-0.1,15.7,0.8,22.1,5c-2.6-0.6-5.5-0.3-7.8,1c-1.3,0.7-2.5,1.7-3.7,2.6c-3.2,2.3-7.3,4-11.2,3
		c-3.1-0.8-15.8-2.1-16.9-5.4C280.3,93.8,296.3,91.8,299.4,91.8z"/>
	<path class="st2" d="M303.8,89c3.3-0.9,2.5,2.2,6,2c6.5-0.3,20.4-0.1,26.1-3.3c0.8,1.7-0.9,3.4-2.4,4.4
		c-11.2,7.6-25.5,10.3-38.6,7.4c-4.4-1-8.8-2.6-13.2-1.8c-6.3,1.1-21.1-6-11.9-8.7c3.9-1.1-4.1-0.3,0,0
		C275,89.4,295.7,91.2,303.8,89z"/>
	<path class="st2" d="M298.8,84c4-0.1,29.3,4.4,30.7,6c0.7,0.9,1.5,1.9,1.4,3c-0.2,1.9-2.8,2.4-4.7,2.4c-16.3,0.1-33,1.1-49.3,0.2
		c-4.9-0.3-12.6-1.7-7-6.9C274.3,84.5,291.2,84.3,298.8,84z"/>
</g>
<g>
	<path class="st7" d="M476.5,358.1c1.1-0.3,2.2-0.4,3.3-0.1c0.1,0.1,0.4,0.1,0.6,0.1c1.1-0.3,2.3-0.1,3.4-0.1c0.4,0,0.7,0.1,1.1,0.1
		c0.1,0.1,0.2,0.1,0.4,0.1c0.1-0.1,0.2-0.1,0.3-0.3c0.1-0.4,0.1-0.7-0.1-1.1c-0.3-0.4-0.6-0.6-0.8-1.1c-0.3-0.6-0.4-1.4-0.5-2.1
		c-0.1-1.1-0.1-2.3,0.1-3.4c0.1-0.2,0.1-0.5,0-0.7c-0.2-0.6-0.1-1.3-0.1-1.9l-0.1-5.6c0-0.4,0-0.8-0.1-1.1c-0.3-0.8-0.3-1.5-0.3-2.3
		v-3.1c0-0.9,0.1-1.8-0.1-2.7c0.2-0.6-0.2-1.1-0.1-1.7c0.1-0.4-0.1-0.9,0-1.3c0-0.4,0.1-0.9,0.1-1.4c0.1-0.7,0.1-1.5-0.1-2.3
		c-0.1-0.4-0.1-0.9-0.1-1.3c0-1.7,0-3.2-0.1-4.9v-4.4c0-0.5,0.1-0.9,0.1-1.4c0.1-0.3,0.3-0.5,0.5-0.6c1.1-0.4,2.2-0.5,3.4-0.4h2.1
		c0.4,0,0.6,0,1,0.1c0.9,0.2,1.7,0.5,2.6,0.7c0.4,0.1,0.6,0.4,0.8,0.8c0.1,0.3,0.1,0.6,0.4,0.8c0.1,0.1,0.2,0.1,0.4,0.1
		c0.2-0.2,0.4-0.4,0.4-0.7c0-0.6,0-1.3,0.1-1.9c0.1-0.9-0.2-1.8-0.5-2.7c-0.1-0.4-0.5-0.6-0.9-0.6c-0.6-0.1-1.2,0-1.8-0.1
		c-0.9-0.3-1.7-0.3-2.7-0.3h-3.9c-0.6,0-1.1,0-1.7,0.2c-0.5,0.2-1.1,0.2-1.7,0c-0.4-0.1-0.8-0.3-1.1-0.1c-0.5,0.1-1,0.1-1.5,0
		c-0.4-0.1-0.8-0.1-1.1,0.1c-0.6,0.2-1.3,0.2-1.9,0.2h-2.7c-0.4,0-0.8,0.1-1.1,0.1c-0.6,0.3-1.3,0.3-1.9,0.3h-6.4
		c-0.4,0-0.7,0.1-1.1,0.4c-0.2,0.1-0.4,0.3-0.4,0.6l-0.1,4.8c0,0.4,0.2,0.6,0.4,0.9c0.1,0.1,0.1,0.4-0.1,0.5l-0.1,0.4
		c-0.1,0.1,0.1,0.4,0.3,0.4c0.5,0,0.9-0.3,1.1-0.6c0.2-0.2,0.3-0.5,0.4-0.7c0.3-0.6,0.6-1.1,1.2-1.4c0.1-0.1,0.3-0.1,0.4-0.2
		c0.7-0.7,1.8-0.7,2.6-1.3c0.5-0.1,0.9,0.1,1.5,0.1c0.7-0.1,1.4,0,2.1-0.3c0.2-0.1,0.5-0.1,0.7-0.1h2.6c0.6,0.1,1.4,0.6,1.5,1.2
		c0.1,0.9,0.4,1.7,0.7,2.4c0.1,0.2,0.1,0.5,0,0.7c-0.5,1.2-0.2,2.4-0.2,3.7c0.4,1.1,0.3,2.2,0.4,3.2c0,0.6,0,1.1,0.1,1.6
		c0.1,0.4,0.1,0.9,0.1,1.3c0,0.5,0.1,1,0.1,1.6c0,0.4,0.1,0.9,0.2,1.3c0.2,0.8,0.2,1.5,0,2.3c-0.1,0.4-0.2,0.7-0.1,1.1
		c0.2,0.4,0.2,1,0.2,1.5v3.7c0.1,1-0.1,2.1,0.4,3l0.1,1.6c0,0.4,0.1,0.8,0.1,1.1c0,0.4-0.1,0.9-0.1,1.3v3.5c0,0.5,0.1,1,0.2,1.5
		c0.1,0.3,0.1,0.6,0.1,0.9c0,0.4-0.1,0.6-0.3,0.9c-0.6,0.6-1.1,1.4-1.4,2.3c-0.1,0.6-0.5,1.2-1,1.7l-0.4,0.4l-0.2,0.4v0.4
		L476.5,358.1z M443.7,357.5c0.7,0.2,1.4,0.1,2.1-0.1c0.1-0.1,0.4-0.1,0.6,0c0.5,0.1,1-0.1,1.4-0.4s1-0.4,1.5-0.5
		c0.9-0.1,1.5-0.6,2.1-1.2c0.4-0.5,0.8-0.9,1.3-1.2c0.9-0.6,1.3-1.6,2-2.3c0.1-0.1,0.1-0.2,0.2-0.3c0.2-0.7,0.6-1.3,0.6-2.1
		c-0.1-0.2,0.1-0.5,0.1-0.7c0.2-1.1,0.7-2.1,0.8-3.2c0-0.1,0-0.3,0.1-0.4c0.5-0.6,0.4-1.2,0.2-1.9l-0.3-1.3c-0.1-0.5-0.2-1-0.4-1.5
		c-0.1-0.3-0.1-0.6-0.4-0.6s-0.4,0.2-0.5,0.4l-0.5,0.6h-0.2l-0.1-0.1c0.1-0.7,0.4-1.4,0.8-2.2c0.1-0.1,0.1-0.4,0.1-0.5
		c-0.4-0.6-0.7-1.1-0.9-1.7c-0.2-0.6-0.6-1.1-0.9-1.7c-0.5-0.9-1.1-1.6-1.9-2.2c-0.8-0.6-1.5-1.4-2.2-2.2c-0.4-0.5-0.9-0.9-1.5-1.1
		c-1-0.3-1.8-0.9-2.7-1.6c-0.9-0.7-1.7-1.6-2.7-2.2c-0.6-0.4-1.2-1-1.8-1.5c-0.7-0.6-1.4-1.4-2-2.1c-0.1-0.1-0.3-0.4-0.4-0.6
		c-0.2-0.6-0.4-1.2-0.4-1.9c-0.1-1-0.1-2.1,0.1-3.1l0.1-0.4c0.6-1.5,1.8-2.5,3.3-3.1c0.8-0.3,1.6-0.4,2.4-0.6
		c0.6-0.1,1.2-0.1,1.7,0.4c0.6,0.5,1.5,0.7,2.2,1.2c0.3,0.2,0.6,0.4,0.9,0.7c0.5,0.6,1,1.1,1.5,1.8c0.2,0.3,0.4,0.6,0.4,1l0.4,1.7
		c0.2,0.6,1,1.1,1.7,0.9c0.3,0,0.6-0.1,0.9-0.2c0.6-0.2,1-0.6,1.3-1.1c0.1-0.1,0.1-0.2-0.1-0.4c-0.2-0.2-0.6-0.2-0.9-0.2l-0.2-0.1
		l0.1-0.1c0.6-0.4,1.2-0.8,1.7-1.3c0.4-0.4,0.5-0.9,0.8-1.4l0.3-0.5l0.1-0.4c0.1-0.2,0.1-0.6-0.1-0.7l-0.4-0.3
		c-0.5-0.4-1-0.6-1.7-0.5c-0.3,0.1-0.6,0-0.9-0.1c-0.4-0.4-1-0.6-1.4-1c-1.1-1.1-2.6-1.9-4.1-2.4c-0.5-0.1-0.9-0.4-1.4-0.6
		c-1.2-0.4-2.5-0.6-3.8-0.7c-0.8-0.1-1.5,0-2.2,0.4c-0.8,0.4-1.7,0.7-2.4,1.3c-0.3,0.3-0.6,0.5-0.9,0.6l-1.9,1.2
		c-0.1,0.1-0.2,0.1-0.4,0.3c-0.1,0.1-0.2,0.4-0.1,0.5c0.2,0.4,0.1,0.7,0.1,1.1c-0.1,0.4-0.4,0.6-0.8,0.8l-0.8,0.5
		c-0.3,0.2-0.4,0.5-0.5,0.8c0,0.2-0.1,0.4-0.1,0.6c0.1,0.6,0,1.3-0.1,1.9c-0.1,0.6,0,1.1,0.2,1.7l0.5,0.9c0.1,0.3,0.1,0.5-0.3,0.8
		c-0.1,0.1-0.1,0.4,0.1,0.4l0.5,0.1c0.2,0,0.4,0.2,0.2,0.4c-0.1,0.3-0.2,0.5,0.1,0.8c1.1,1.1,2.2,2.1,3.1,3.2
		c0.6,0.8,1.3,1.4,2.2,1.9l0.6,0.4c0.5,0.6,1.1,1,1.8,1.4c0.2,0.1,0.5,0.2,0.6,0.4c0.5,0.6,1.1,0.9,1.8,1.4c0.3,0.2,0.6,0.4,0.8,0.6
		c0.3,0.3,0.6,0.6,1.1,0.8c0.4,0.3,0.7,0.5,1,0.9l2.2,2.2c0.1,0.1,0.2,0.4,0.3,0.5c0.7,0.9,1,2.1,1.6,3.1c0.1,0.1,0.1,0.3,0.1,0.4
		c0.2,0.8,0.4,1.5,0.5,2.3c0.1,0.4,0.1,0.7,0.1,1.1c-0.1,1.4-0.4,2.9-0.5,4.4c-0.1,0.6-0.4,1.1-0.8,1.5c-0.4,0.5-0.7,1.1-1.1,1.6
		c-0.1,0.2-0.3,0.5-0.5,0.6c-0.6,0.4-1,0.8-1.4,1.4c-0.1,0.1-0.2,0.1-0.4,0.1c-0.9,0-1.8,0.3-2.7,0.4c-0.3,0.1-0.5,0.1-0.8,0.1
		c-0.5,0-1-0.1-1.4-0.4c-1.4-1.2-2.7-2.4-3.4-4.1l-0.4-0.9c-0.6-1-1.1-2.1-1.2-3.2v-1c-0.1-0.1-0.2-0.3-0.4-0.4
		c-0.2-0.2-0.5-0.3-0.9-0.1c-0.4,0.3-0.8,0.4-1.1,0.8c-0.2,0.4-0.6,0.6-0.9,0.6c-0.3,0.1-0.4,0.3-0.6,0.5l-0.6,1.2
		c-0.3,0.5-0.6,1-0.9,1.5c-0.2,0.4-0.1,0.7,0,1.1c0.1,0.4,0.4,0.6,0.9,0.4c0.3-0.1,0.6-0.1,0.7,0.1c0.7,0.7,1.4,1.5,1.9,2.4
		c0.4,0.8,1,1.4,1.7,2l0.9,0.8c0.9,0.8,1.7,1.4,2.9,1.6l0.7,0.2C442.2,357.3,442.9,357.3,443.7,357.5z M401.5,348.5
		c-0.1,0.1-0.4-0.1-0.4-0.4l-0.1-0.2c0.1-0.4,0.1-0.7,0.1-1.1c0-0.3-0.1-0.6-0.1-0.9c0-0.4,0-0.8,0.1-1.1c0.3-0.6,0.3-1.1,0.1-1.7
		l0.2-0.3c0.1,0,0.3,0.1,0.3,0.2c0.1,0.6,0,1.3,0.1,1.9c0.1,0.6-0.1,1.1,0.1,1.7c0.1,0.1,0,0.3,0,0.4c-0.1,0.4-0.2,0.9-0.4,1.3
		L401.5,348.5z M401.5,340.8c-0.1,0.1-0.2,0-0.3-0.1s-0.1-0.4-0.1-0.5V339c-0.1-0.7,0.2-1.6,0.1-2.4l0.1-0.1
		c0.1-0.1,0.3-0.1,0.4-0.1c0.1,0,0.4,0.1,0.4,0.1c-0.1,0.6,0.1,1.1-0.1,1.7c0.4,0.9,0,1.7-0.3,2.4L401.5,340.8z M401.3,332.6
		c-0.2,0.1-0.4,0-0.4-0.1v-0.1c0.1-0.2,0.4-0.3,0.6-0.2l0.1,0.1C401.6,332.4,401.5,332.6,401.3,332.6z M401.8,330.2
		c-0.1-0.1-0.3-0.2-0.4-0.4c-0.1-0.1-0.1-0.2,0-0.4h0.2c0.2,0.1,0.4,0.2,0.5,0.5v0.1C402.1,330.3,402,330.4,401.8,330.2z
		 M401.6,328.1c-0.1,0-0.3,0-0.4-0.1c-0.2-0.5,0.1-1.2,0.6-1.5l0.3,0.2c0,0.4,0,0.7-0.1,1.1C402,327.9,401.7,328,401.6,328.1z
		 M403.5,358.6c0.4-0.1,0.9-0.2,1.3-0.2h5.8c1-0.1,2.1,0,3.1,0s1.9-0.1,2.9,0c1.1,0.1,2.1-0.4,3.1-0.1c0.1,0.1,0.3,0,0.4-0.1
		c0.5-0.1,1-0.1,1.6-0.1h2.9c0.2,0,0.5-0.1,0.7-0.1c0.4-0.1,0.6-0.6,0.5-0.9c-0.1-0.2-0.2-0.4-0.4-0.5c-0.4-0.7-0.4-1.4,0-2.1
		l0.7-1.1c0.1-0.3,0.1-0.5-0.1-0.7c-0.1-0.2-0.3-0.2-0.5-0.2c-0.5,0.2-0.9,0.4-1.4,0.5c-0.6,0.1-1.1,0.4-1.7,0.5
		c-1.1,0.4-2.2,0.6-3.2,0.4c-0.4-0.1-0.6,0-0.9,0.1c-0.4,0.2-0.9,0.2-1.4,0.2h-2.3c-0.7,0-1.4,0-2.1,0.3c-0.3,0.1-0.6,0.1-1,0.1
		c-0.4,0.1-0.9,0.1-1.3,0.1h-1.4c-0.1,0-0.2,0-0.3-0.1c-0.3-0.3-0.7-0.4-1.1-0.4s-0.6-0.1-0.9-0.4c-0.4-0.4-0.9-0.5-1.1-1.1
		c-0.1-0.4-0.1-0.9-0.1-1.3c0-0.2-0.1-0.4-0.1-0.6c0-0.2-0.1-0.4,0-0.6c0.2-1,0.1-1.9,0.1-2.9v-8.5c0-0.8,0.1-1.5,0.4-2.3
		c0.2-0.9,0.7-1.4,1.7-1.5c0.5-0.2,1.1-0.3,1.7-0.1c0.4,0.1,0.6,0,0.9-0.4c0.2-0.4,0.5-0.5,0.9-0.3c0.3,0.1,0.4,0,0.5-0.4l0.3-0.2
		c0.9-0.1,1.9-0.1,2.9,0.1c0.4,0.1,0.7,0.2,1.1,0.6c0.4,0.2,0.8,0.4,1.3,0.4h2.3c1,0,1.9-0.1,2.9,0.2c0.1,0.1,0.5-0.3,0.5-0.5
		c0.1-0.4,0-0.6-0.1-0.9c-0.2-0.6-0.1-1.1,0.2-1.7c0.1-0.4,0.4-0.6,0.7-0.9c0.3-0.2,0.3-0.4,0.1-0.4c-0.1-0.1-0.1-0.2-0.3-0.2
		c-0.9-0.2-1.7-0.2-2.5,0.1c-0.5,0.1-1.1,0.4-1.7,0.5c-0.9,0.1-1.7,0.4-2.6,0.6c-0.3,0.1-0.5,0.1-0.8,0.1c-0.9,0.1-1.9-0.1-2.9-0.1
		l-0.3-0.1c-0.4-0.3-0.7-0.4-1.1-0.3c-0.2-0.1-0.4-0.3-0.6-0.3c-0.3-0.1-0.5,0.1-0.8-0.1c-0.3-0.1-0.6-0.1-0.9-0.3
		c-0.4-0.1-0.7,0-1.1,0.2c-0.8,0.4-1.4,0.3-2-0.4c-0.1-0.2-0.3-0.4-0.3-0.7c-0.1-0.5-0.1-1-0.1-1.5c0.1-1.4,0-2.7-0.3-4
		c-0.1-0.3-0.1-0.6,0-0.8c0.1-0.7,0-1.4-0.1-2.1v-2.7c0-0.4,0-0.9-0.1-1.4c-0.4-0.6-0.1-1.2-0.2-1.9c-0.1-0.3,0.2-0.6,0.5-0.7
		c0.9-0.2,1.7-0.6,2.7-0.6c2.2,0.1,4.2,0,6.4,0.1c0.4,0,0.8,0.1,1.1,0.1c0.4,0.1,0.9,0.1,1.3,0.1c0.6,0.1,1.3,0,1.9,0.1h2.4
		c0.3-0.1,0.6-0.4,0.6-0.6c0.1-0.4,0.1-0.8,0.1-1.1c-0.1-0.6,0.1-1.1,0.5-1.7c0.1-0.2,0.3-0.6,0.4-0.9c0-0.1-0.1-0.2-0.2-0.3
		c-0.4-0.1-0.9-0.1-1.3,0.1c-0.5,0.1-1,0.2-1.5,0.2h-2.4c-0.6,0.1-1.4,0-2.1,0.1c-0.8-0.1-1.5-0.1-2.3,0.1c-0.1,0.1-0.4-0.1-0.6-0.1
		c-0.2-0.1-0.5-0.1-0.7-0.1c-0.5,0.3-1,0.1-1.5,0.1c-0.9-0.1-1.8-0.1-2.7-0.1c-0.6,0-1.4,0-2.1-0.3c-0.6-0.1-1.1-0.1-1.7,0
		c-0.9,0.3-1.8,0.3-2.7,0.3c-1,0-1.9,0-2.9,0.4h-0.6c-0.4,0-0.7,0.3-1,0.6c-0.1,0.1-0.4,0.1-0.5-0.1c-0.4-0.3-0.5-0.3-0.8,0
		l-0.1,0.1c-0.1,0.2-0.1,0.4,0,0.6c0.2,0.3,0.5,0.6,0.9,0.6c0.2,0.1,0.5,0.1,0.7,0.1l0.6,0.2l2.2,1.8c0.4,0.4,0.5,0.8,0.6,1.2
		c0.1,0.4,0.1,0.8,0.1,1.1v7l0.3,1.9c0,0.4-0.1,0.6-0.3,0.9c-0.3,0.3-0.3,0.6-0.1,1.1c0.1,0.2,0.1,0.5,0.1,0.7
		c-0.3,0.5,0,1.1-0.1,1.5c-0.1,0.6,0.1,1.1,0.1,1.5c0.1,0.4,0.1,0.6,0.1,1v1.9c0,0.7,0.3,1.5,0.1,2.3c0.4,0.7,0.2,1.5,0.3,2.2
		c0,1-0.1,1.9,0.1,2.9c0,0.1,0,0.4-0.1,0.6c0,0.3-0.1,0.6-0.1,0.9v5c0,0.3,0,0.6,0.1,0.9c0.1,0.4,0,0.8-0.1,1.1l0.1,0.2
		c-0.1,0.2,0.1,0.3,0.4,0.1c0.6-0.2,0.6-0.1,0.7,0.4v0.1c0,0.6,0,1.1-0.5,1.4c-0.1,0.1-0.2,0.3-0.2,0.5c-0.1,0.8-0.5,1.4-0.9,2.2
		c-0.3,0.6-0.8,1-1.4,1.2l-2.2,0.9c-0.1,0.1-0.1,0.4-0.1,0.5c0.2,0.2,0.4,0.4,0.7,0.4c0.6,0,1.4,0,2.1,0.1c0.5,0,1-0.1,1.5,0.1
		C401.8,358.8,402.6,358.8,403.5,358.6z M385.2,355.2l-0.3-0.1c-0.1-0.1,0.1-0.4,0.3-0.4c0.2,0,0.4,0.2,0.4,0.4
		C385.5,355.1,385.3,355.2,385.2,355.2z M360.2,355.1c-0.1-0.1-0.2-0.2-0.1-0.4c0.1-0.1,0.1-0.1,0.3-0.1c0.1,0.1,0.2,0.2,0.1,0.4
		S360.3,355.1,360.2,355.1z M362.4,345.6c-0.1,0-0.1-0.1-0.2-0.2V345c0-0.1,0.1-0.3,0.2-0.2l0.1,0.3l-0.1,0.4L362.4,345.6z
		 M385.1,317.9c-0.1,0.1-0.3-0.2-0.3-0.4l0.1-0.2c0.1-0.3,0.3-0.5,0.4-0.4c0.1,0.1,0.1,0.3,0.1,0.4l-0.1,0.4
		C385.3,317.7,385.2,317.8,385.1,317.9z M358.8,358.9c0.3,0,0.5,0,0.8-0.1c0.5-0.1,1-0.2,1.5-0.1c1.6,0.1,3.1-0.4,4.6-0.4
		c0.4-0.1,0.9-0.6,0.9-1.1c0-0.2-0.2-0.3-0.4-0.4c-0.8-0.2-1.2-0.9-1.7-1.5c-0.4-0.6-0.4-1.2-0.4-1.9l0.2-0.9c0.1-0.3,0-0.5-0.2-0.7
		c-0.2-0.1-0.4-0.4-0.2-0.6c0.4-0.6,0.4-1.3,0.4-2c0-0.3,0.1-0.5,0.2-0.8l0.2-0.5c0.1-0.3,0.1-0.5-0.1-0.7l-0.2-0.3
		c-0.1-0.4-0.1-0.6,0.1-0.9c0.4-0.4,0.2-0.9,0.4-1.2c0.1-0.4,0.1-0.6-0.1-1s-0.2-0.7,0-1.1c0.1-0.4,0.2-0.8,0.1-1.1
		c0-0.8,0.3-1.5,0.6-2.2c0.1-0.1,0.2-0.3,0.4-0.4c0.4-0.2,0.7-0.4,1.1-0.3c0.1,0.1,0.4,0.1,0.5,0c0.6-0.4,1.4-0.4,2.1-0.3
		c0.4,0.1,0.8,0.1,1.1,0c0.8-0.4,1.7-0.4,2.4-0.4c0.4,0,0.8-0.1,1.1-0.2s0.7-0.2,1.1-0.1c0.4,0.1,0.7,0.1,1.1,0
		c0.7-0.3,1.4-0.4,1.9-0.9c0.1-0.1,0.3-0.1,0.4,0c0.4,0.4,0.8,0.5,1.2,0.3c0.6-0.1,1.1-0.2,1.7-0.4c0.4-0.1,0.6-0.1,0.9,0.1l0.8,0.9
		c0.4,0.4,0.5,0.7,0.4,1.2c-0.1,0.1-0.1,0.4-0.1,0.6c0.2,0.7,0.2,1.4,0.2,2.1c0,0.6-0.1,1.1,0,1.7c0,0.6,0.1,1.1,0.1,1.7
		c0.1,0.4,0.2,0.6,0.1,1c-0.3,0.5-0.1,1,0,1.5c0.2,0.5,0.1,1-0.2,1.4l-0.2,0.3c-0.2,0.5-0.3,1,0.1,1.4c0.2,0.2,0.4,0.4,0.3,0.7
		l-0.2,0.7c-0.1,1.4-0.6,2.7-1.4,3.7c-0.2,0.3-0.4,0.6-0.6,1c-0.1,0.1,0,0.4,0.2,0.4c1.1,0,2.2,0.1,3.2,0.1h1.9c0.4,0,0.8,0,1.2-0.1
		l0.5-0.1c0.4-0.1,0.6-0.5,0.4-0.8c-0.4-0.7-0.9-1.5-1.4-2.3c-0.1-0.1-0.4-0.1-0.5,0c-0.2,0.2-0.4,0.6-0.6,0.7
		c-0.2,0.1-0.4,0-0.5-0.1c-0.2-0.4-0.2-0.8,0.1-1.1c0.4-0.4,0.6-0.7,0.6-1.2c0-0.4,0-0.7,0.1-1.1c0.1-0.5-0.2-1,0-1.5
		c-0.3-1.1-0.1-2.2-0.2-3.2c0-0.6,0.1-1.1-0.1-1.6c-0.1-0.2-0.1-0.5,0-0.7c0.3-1.1,0.3-2.2-0.1-3.2c-0.1-0.4-0.1-0.8-0.1-1.1
		c0.2-0.5,0.2-1,0.1-1.5c-0.2-0.6,0.1-1,0.1-1.5c0-0.2,0.2-0.4,0.3-0.5c0.1-0.1,0.3-0.3,0.4-0.4c0.1-0.3,0.1-0.5,0-0.7
		c-0.2-0.4-0.2-0.4,0.2-0.7c0.2-0.1,0.4-0.3,0.4-0.6c0.1-0.7,0.1-1.4-0.1-2.1c-0.1-0.5-0.4-1-0.4-1.5c0.1-0.4,0-0.7-0.1-1.1
		c-0.2-0.4-0.3-0.7-0.4-1.1c0-0.1-0.2-0.1-0.1-0.3c0-0.2,0.2-0.2,0.4-0.3c0.2-0.1,0.2-0.3,0.1-0.4c-0.4-0.4-0.4-0.4-0.5-1.1
		c-0.1-0.4-0.2-0.6-0.4-0.9c-0.1-0.2-0.3-0.4-0.4-0.6v-0.1c0.3-0.1,0.5,0,0.8,0c0.1,0,0.2,0,0.3-0.1l-0.1-0.1l-0.4-0.4
		c-0.1-0.1-0.2-0.4-0.1-0.6c0.1-0.4,0.2-0.7,0.1-1.1l0.2-0.2c0.2-0.1,0.4-0.1,0.5-0.3c0.3-0.5,0.6-1.1,0.5-1.7l-0.2-0.3
		c-0.1-0.1-0.3,0-0.4,0c-0.2,0-0.4,0-0.4-0.1c0-0.1,0-0.2,0.1-0.4c0.1-0.1,0.3-0.2,0.5-0.2s0.4-0.1,0.4-0.4c0-0.1,0-0.3-0.1-0.4
		c-0.1-0.1-0.1-0.2-0.3-0.3c-0.2-0.2-0.5-0.4-0.7-0.6c-0.3-0.3-0.4-0.6-0.1-0.9c0.6-0.8,1.1-1.7,1.9-2.4c0.2-0.2,0.3-0.4,0.4-0.6
		V313c-0.4-0.3-0.9-0.6-1.4-0.9c-0.1-0.1-0.2,0-0.4,0c-0.6,0.2-1.2,0.3-1.9,0.3c-0.4,0-0.7,0-1,0.1c-0.6,0.2-1.2,0.2-1.9,0.2
		c-0.5,0-1.1,0-1.6,0.1c-0.1,0-0.4,0.1-0.5,0.1l-1.1,0.9v0.2c0.6,0.4,1.2,0.7,1.9,0.9c0.1,0.1,0.2,0,0.4,0c0.1-0.1,0.3-0.3,0.4-0.4
		l0.4,0.1l0.1,0.3c0.1,0.2-0.1,0.4-0.2,0.5l-0.1,0.4c0.4,0.5,0.5,1.1,0.6,1.8c0.1,0.5,0.3,1,0.7,1.4c0.2,0.1,0.3,0.4,0.2,0.6
		s0,0.5,0.1,0.8c0.1,0.7,0.1,1.4-0.4,1.9c-0.1,0.1-0.1,0.3,0.1,0.4c0.1,0.1,0.2,0.3,0.2,0.5c-0.2,0.9-0.3,1.7,0,2.5
		c0.2,0.8,0.3,1.5,0.1,2.3c-0.1,0.4,0,0.7,0,1.1c-0.1,0.2-0.1,0.5-0.1,0.7c0.1,0.4,0.1,0.6,0.1,1s-0.1,0.7-0.4,1
		c-0.1,0.1-0.2,0.4-0.4,0.4c-0.4,0.1-0.5,0.5-0.4,0.9l-0.2,0.2c-0.3,0.1-0.5,0.1-0.8,0.1c-0.1,0-0.4-0.1-0.5-0.2
		c-0.5-0.4-1-0.5-1.7-0.4c-0.2,0.1-0.5,0.1-0.7,0.1c-0.5-0.1-0.9,0-1.2,0.4c-0.1,0.1-0.4,0.2-0.5,0.2c-1.1,0.1-2.2,0.6-3.2,0.4
		c-0.1,0-0.3,0-0.4,0.1c-0.6,0.3-1.4,0.2-2.1,0.4l-2,0.6c-0.3,0.1-0.6,0.1-0.9-0.1c-0.4-0.1-0.9-0.1-1.3,0c-0.6,0.2-1.1,0.4-1.7,0.3
		c-0.1,0-0.3-0.1-0.3-0.2c-0.1-0.1-0.1-0.4-0.1-0.6V332c0.4-0.9-0.1-1.8,0-2.7c0-0.4-0.1-0.6,0.1-0.9c0.1-0.6,0.1-1.1-0.2-1.7
		c-0.1-0.1,0-0.4,0-0.6c0.1-0.3,0.1-0.6,0.2-0.9c0.4-1.1,0.4-2.2,0.2-3.4c-0.1-0.1-0.1-0.4-0.1-0.5c0.2-1.4,0.2-2.7-0.1-4
		c-0.2-0.9-0.1-1.7,0.4-2.4c0.5-0.6,0.6-1.4,1.1-2c0.1-0.1-0.1-0.4-0.3-0.4c-0.8-0.1-1.7-0.1-2.5-0.1s-1.8,0-2.7,0.1
		c-0.4,0-0.6,0.1-0.9,0.2c-0.5,0.1-0.7,0.6-0.5,1.1c0.1,0.4,0.4,0.8,0.6,1.1c0.1,0.3,0.3,0.6,0.1,0.9c-0.3,0.8-0.2,1.7,0.1,2.4
		c0.1,0.2,0.1,0.5,0.1,0.7c-0.1,0.8-0.1,1.4,0.3,2.1c0.1,0.2,0.1,0.5,0.1,0.7c-0.1,0.3-0.1,0.5,0.1,0.7c0.2,0.1,0.3,0.4,0.3,0.7
		c0.1,0.4,0.1,0.9-0.1,1.3c-0.4,1-0.3,2.1-0.2,3.1c0.1,0.6,0.3,1.2,0,1.9c0,0.1,0.1,0.4,0.1,0.6c0.1,0.2,0.2,0.5,0.1,0.7
		c-0.2,0.6-0.2,1.1-0.2,1.7s0,1.1-0.2,1.7c0.1,0.6-0.2,1.3-0.1,1.9c0.2,0.6-0.1,0.9-0.5,1.1l-0.1,0.2v0.1c0.5,0.5,0.4,1.2,0.6,1.8
		c0.1,0.3,0.1,0.6,0,0.9c-0.1,0.5-0.4,1-0.3,1.5c0.1,0.6-0.1,1.1,0.1,1.7c0.1,0.4,0.1,0.9-0.1,1.3c-0.1,0.3-0.2,0.5-0.1,0.8
		c0.2,0.5,0.1,0.9-0.1,1.5c-0.1,0.5-0.2,1.1,0,1.7c0.4,1,0.3,1.9,0.3,2.9c0,0.9-0.1,1.7-0.5,2.4c-0.1,0.4-0.2,0.7-0.3,1.1
		c-0.2,0.8-0.6,1.4-1.1,2l-0.9,0.7c-0.1,0.1-0.1,0.4,0,0.5C357.8,358.7,358.2,358.9,358.8,358.9z M347.5,315.3L347.5,315.3
		c-0.1-0.6,0.1-1,0.6-1.3l0.4,0.1c0.1,0.1,0.1,0.2,0,0.4c-0.1,0.2-0.4,0.4-0.6,0.6C347.8,315.1,347.6,315.2,347.5,315.3z
		 M338.4,357.8c0.9,0.2,1.9,0.2,2.9,0c1.9-0.4,3.5-1.3,4.7-2.7c0.3-0.4,0.6-0.6,0.9-0.8c0.8-0.4,1.3-1.1,1.7-1.9
		c0.1-0.4,0.4-0.6,0.4-1.1c0-0.7,0.4-1.2,0.9-1.6s1.1-0.7,1.6-1.1c0.1-0.1,0.3-0.4,0.2-0.5s-0.2-0.3-0.4-0.3l-0.8-0.1
		c-0.3-0.1-0.6-0.1-0.9,0.1l-0.2,0.1c-0.2,0.1-0.5,0.1-0.7,0c-0.6-0.4-1.4-0.6-2.1-1.1c-0.5-0.4-1.3,0-1.5,0.6
		c-0.1,0.4-0.1,0.6-0.1,1c0.1,1-0.4,1.9-0.9,2.7c-0.4,0.7-1,1.4-1.8,1.7c-0.7,0.4-1.6,0.6-2.3,0.9c-0.1,0.1-0.3,0.1-0.4,0
		c-0.6-0.2-1.2-0.1-1.9-0.1s-1.3-0.3-1.9-0.4c-0.3-0.1-0.6-0.1-0.9-0.4c-0.3-0.4-0.7-0.5-1.1-0.7c-0.2-0.2-0.4-0.4-0.5-0.6
		c-0.1-0.1-0.2-0.4-0.3-0.5c-0.1-0.5-0.4-0.9-0.7-1.1c-0.5-0.3-0.8-0.7-1-1.2c-0.2-0.6-0.4-1.3-0.9-1.9c-0.1-0.1-0.1-0.4-0.1-0.6
		c-0.1-0.4-0.1-0.6-0.4-0.9s-0.4-0.6-0.5-1c-0.2-0.8-0.5-1.6-0.8-2.4c-0.2-0.6-0.4-1.2-0.1-1.9c0-0.2-0.1-0.4-0.3-0.5
		c-0.1-0.1-0.1-0.4-0.1-0.5c0.1-0.3,0.2-0.6,0.1-0.8c-0.4-0.7-0.2-1.5-0.3-2.4c0.1-0.9-0.1-1.9,0.3-2.8c0.1-0.1,0.1-0.2,0.1-0.4
		c0-0.6,0.1-1.1,0.1-1.7c-0.1-0.6,0.3-1.1,0.4-1.7v-0.6c0-0.4,0.1-0.7,0.2-1.1c0.2-1.1,0.4-2.2,0.9-3.3l0.1-1c0-0.1,0.1-0.4,0.2-0.5
		c0.4-0.4,0.5-0.7,0.6-1.2c0-0.3,0.2-0.6,0.5-0.7c0.4-0.2,0.6-0.6,0.6-0.9c0.1-0.5,0.3-0.9,0.6-1.1c0.4-0.4,0.8-0.6,1.1-1.1
		s0.8-0.8,1.2-1.1c0.3-0.3,0.4-0.5,0.5-0.9c0.4-1,1.3-1.4,2.3-1.5c0.8-0.1,1.5-0.2,2.2-0.5c0.7-0.2,1.4-0.3,2.1-0.3
		c0.9-0.1,1.8,0,2.6,0.6c0.3,0.3,0.6,0.4,1,0.6c0.4,0.2,0.8,0.5,0.9,0.9c0.2,0.7,0.6,0.9,1.3,1c0.2,0,0.3,0.4,0.1,0.6
		c-0.1,0.1-0.4,0.4-0.3,0.6c0.1,0.2,0.2,0.4,0.4,0.6c0.1,0.2,0.6,0.3,0.9,0.1c0.2-0.1,0.4-0.4,0.4-0.6c0.1-0.4,0.1-0.9,0-1.3
		c-0.1-0.3,0-0.5,0.2-0.7c0.1-0.1,0.2-0.3,0.2-0.5c0.1-0.4,0-0.8,0.1-1.1l0.2-1.3c0-0.1-0.1-0.3-0.2-0.3c-0.4-0.2-0.8-0.1-1.1-0.1
		c-0.5,0-1-0.1-1.4-0.4l-3.9-2.6c-0.3-0.2-0.6-0.4-1.1-0.2s-0.9,0.1-1.3-0.1c-0.4-0.1-0.8-0.1-1.1,0l-1.1,0.2
		c-1.5,0.1-2.9,0.6-3.9,1.7c-0.3,0.3-0.6,0.5-1,0.6c-0.4,0.1-0.6,0.4-0.9,0.6c-0.1,0.3-0.4,0.4-0.6,0.5c-0.6,0.1-1,0.6-1.3,1.1
		c-0.1,0.2-0.2,0.4-0.4,0.6c-0.7,0.6-1.1,1.6-1.4,2.4c-0.3,0.8-0.6,1.6-1,2.3c-0.9,1.7-1.6,3.3-2,5c-0.1,0.4-0.3,0.9-0.4,1.3
		l-0.6,2.4c-0.3,0.9-0.3,2-0.6,2.9c-0.1,0.4-0.2,0.8-0.4,1.1c0,0.2,0,0.4,0.1,0.6c0.2,0.6,0.2,1.1,0,1.7c-0.1,0.2-0.1,0.4-0.1,0.6
		c0.1,0.4,0.1,0.8,0,1.1c-0.1,0.9-0.1,1.9,0.1,2.9c0.2,0.6,0.2,1.3,0.3,1.9c0,0.5,0,1,0.1,1.5c0.5,2.1,0.9,4.2,1.9,6l0.1,0.2
		c0.1,0.6,0.6,1.1,0.9,1.7c0.7,1.1,1.5,2.2,2.4,3c0.6,0.6,1.1,1.2,1.8,1.8c0.5,0.5,1.1,0.9,1.8,1c0.4,0.1,0.8,0.1,1.1,0.4
		C335.4,357.4,336.9,357.6,338.4,357.8z M286.7,357.5c0.7,0.2,1.4,0.1,2.1-0.1c0.1-0.1,0.4-0.1,0.6,0c0.5,0.1,1-0.1,1.4-0.4
		s1-0.4,1.5-0.5c0.9-0.1,1.5-0.6,2.1-1.2c0.4-0.5,0.8-0.9,1.3-1.2c0.9-0.6,1.3-1.6,2-2.3c0.1-0.1,0.1-0.2,0.2-0.3
		c0.2-0.7,0.6-1.3,0.6-2.1c-0.1-0.2,0.1-0.5,0.1-0.7c0.2-1.1,0.7-2.1,0.8-3.2c0-0.1,0-0.3,0.1-0.4c0.5-0.6,0.4-1.2,0.2-1.9l-0.3-1.3
		c-0.1-0.5-0.2-1-0.4-1.5c-0.1-0.3-0.1-0.6-0.4-0.6s-0.4,0.2-0.5,0.4l-0.5,0.6h-0.2l-0.1-0.1c0.1-0.7,0.4-1.4,0.8-2.2
		c0.1-0.1,0.1-0.4,0.1-0.5c-0.4-0.6-0.7-1.1-0.9-1.7c-0.2-0.6-0.6-1.1-0.9-1.7c-0.5-0.9-1.1-1.6-1.9-2.2c-0.8-0.6-1.5-1.4-2.2-2.2
		c-0.4-0.5-0.9-0.9-1.5-1.1c-1-0.3-1.8-0.9-2.7-1.6c-0.9-0.7-1.7-1.6-2.7-2.2c-0.6-0.4-1.2-1-1.8-1.5c-0.7-0.6-1.4-1.4-2-2.1
		c-0.1-0.1-0.3-0.4-0.4-0.6c-0.2-0.6-0.4-1.2-0.4-1.9c-0.1-1-0.1-2.1,0.1-3.1l0.1-0.4c0.6-1.5,1.8-2.5,3.3-3.1
		c0.8-0.3,1.6-0.4,2.4-0.6c0.6-0.1,1.2-0.1,1.7,0.4c0.6,0.5,1.5,0.7,2.2,1.2c0.3,0.2,0.6,0.4,0.9,0.7c0.5,0.6,1,1.1,1.5,1.8
		c0.2,0.3,0.4,0.6,0.4,1l0.4,1.7c0.2,0.6,1,1.1,1.7,0.9c0.3,0,0.6-0.1,0.9-0.2c0.6-0.2,1-0.6,1.3-1.1c0.1-0.1,0.1-0.2-0.1-0.4
		c-0.2-0.2-0.6-0.2-0.9-0.2l-0.2-0.1l0.1-0.1c0.6-0.4,1.2-0.8,1.7-1.3c0.4-0.4,0.5-0.9,0.8-1.4l0.3-0.5l0.1-0.4
		c0.1-0.2,0.1-0.6-0.1-0.7l-0.4-0.3c-0.5-0.4-1-0.6-1.7-0.5c-0.3,0.1-0.6,0-0.9-0.1c-0.4-0.4-1-0.6-1.4-1c-1.1-1.1-2.6-1.9-4.1-2.4
		c-0.5-0.1-0.9-0.4-1.4-0.6c-1.2-0.4-2.5-0.6-3.8-0.7c-0.8-0.1-1.5,0-2.2,0.4c-0.8,0.4-1.7,0.7-2.4,1.3c-0.3,0.3-0.6,0.5-0.9,0.6
		l-1.9,1.2c-0.1,0.1-0.2,0.1-0.4,0.3c-0.1,0.1-0.2,0.4-0.1,0.5c0.2,0.4,0.1,0.7,0.1,1.1c-0.1,0.4-0.4,0.6-0.8,0.8l-0.8,0.5
		c-0.3,0.2-0.4,0.5-0.5,0.8c0,0.2-0.1,0.4-0.1,0.6c0.1,0.6,0,1.3-0.1,1.9c-0.1,0.6,0,1.1,0.2,1.7l0.5,0.9c0.1,0.3,0.1,0.5-0.3,0.8
		c-0.1,0.1-0.1,0.4,0.1,0.4l0.5,0.1c0.2,0,0.4,0.2,0.2,0.4c-0.1,0.3-0.2,0.5,0.1,0.8c1.1,1.1,2.2,2.1,3.1,3.2
		c0.6,0.8,1.3,1.4,2.2,1.9l0.6,0.4c0.5,0.6,1.1,1,1.8,1.4c0.2,0.1,0.5,0.2,0.6,0.4c0.5,0.6,1.1,0.9,1.8,1.4c0.3,0.2,0.6,0.4,0.8,0.6
		c0.3,0.3,0.6,0.6,1.1,0.8c0.4,0.3,0.7,0.5,1,0.9l2.2,2.2c0.1,0.1,0.2,0.4,0.3,0.5c0.7,0.9,1,2.1,1.6,3.1c0.1,0.1,0.1,0.3,0.1,0.4
		c0.2,0.8,0.4,1.5,0.5,2.3c0.1,0.4,0.1,0.7,0.1,1.1c-0.1,1.4-0.4,2.9-0.5,4.4c-0.1,0.6-0.4,1.1-0.8,1.5c-0.4,0.5-0.7,1.1-1.1,1.6
		c-0.1,0.2-0.3,0.5-0.5,0.6c-0.6,0.4-1,0.8-1.4,1.4c-0.1,0.1-0.2,0.1-0.4,0.1c-0.9,0-1.8,0.3-2.7,0.4c-0.3,0.1-0.5,0.1-0.8,0.1
		c-0.5,0-1-0.1-1.4-0.4c-1.4-1.2-2.7-2.4-3.4-4.1l-0.4-0.9c-0.6-1-1.1-2.1-1.2-3.2v-1c-0.1-0.1-0.2-0.3-0.4-0.4
		c-0.2-0.2-0.5-0.3-0.9-0.1c-0.4,0.3-0.8,0.4-1.1,0.8c-0.2,0.4-0.6,0.6-0.9,0.6c-0.3,0.1-0.4,0.3-0.6,0.5l-0.6,1.2
		c-0.3,0.5-0.6,1-0.9,1.5c-0.2,0.4-0.1,0.7,0,1.1c0.1,0.4,0.4,0.6,0.9,0.4c0.3-0.1,0.6-0.1,0.7,0.1c0.7,0.7,1.4,1.5,1.9,2.4
		c0.4,0.8,1,1.4,1.7,2l0.9,0.8c0.9,0.8,1.7,1.4,2.9,1.6l0.7,0.2C285.3,357.3,286,357.3,286.7,357.5z M264.9,357.1h-3.4
		c-0.7,0-1.4,0-2.2,0.2c-0.4,0.1-0.9,0.1-1.3,0.1h-6c-0.6,0-1.3,0-1.9,0.2c-0.2,0.1-0.4,0.1-0.6,0.1c-0.4,0-0.6-0.1-0.9-0.1
		c-0.9,0.4-1.8,0.1-2.7,0.4c-0.4,0.2-0.9,0.2-1.4,0.2c-0.6-0.1-1.3,0-1.9,0.2s-1.1,0.2-1.7,0s-1.1-0.3-1.6-0.6
		c-0.1-0.1-0.2-0.2-0.1-0.4c0.2-0.4,0.4-0.7,0.6-1c0.4-0.6,0.6-1.1,0.7-1.8c0.2-1.1,0.5-2.4,0.9-3.5c0.1-0.5,0.3-1,0.1-1.5
		c0.2-0.8,0-1.5-0.1-2.3c0-0.2,0-0.5,0.1-0.7c0.2-0.6,0.2-1.3,0.1-1.9l-0.2-1.3c-0.1-0.4-0.1-0.9,0.1-1.4c0.1-0.4,0.1-0.9,0-1.3
		c-0.1-0.1-0.1-0.4,0-0.6c0.2-0.5,0-0.9-0.4-1.2c-0.1-0.1-0.2-0.3-0.4-0.4c-0.1-0.1-0.1-0.4,0.1-0.5l0.3-0.2
		c0.3-0.2,0.3-0.3,0.1-0.6c-0.1-0.1-0.2-0.4-0.1-0.5c0.1-0.4,0.3-0.9,0.4-1.3c0.1-0.3,0.1-0.5,0.1-0.8c0.1-0.4,0-0.9-0.4-1.2
		c-0.4-0.4-0.4-0.9-0.3-1.5c0.1-0.3,0.1-0.6,0-0.9c-0.1-0.5-0.1-1,0.4-1.4l0.1-0.4c-0.1-0.3-0.2-0.5-0.3-0.7
		c-0.1-0.2-0.1-0.4-0.1-0.6c0.2-0.4,0-0.9,0.1-1.3s0.1-0.8,0-1.1c-0.1-0.3,0.1-0.5,0.1-0.8c0.1-0.9,0.2-1.9-0.1-2.9
		c0-0.1-0.1-0.4,0-0.5c0.3-0.8,0.3-1.5,0-2.3c-0.1-0.2-0.1-0.5-0.1-0.7c0.2-0.5,0.2-0.9-0.1-1.3l-0.2-0.6c-0.1-0.3-0.1-0.6-0.1-0.9
		c0.4-0.7,0.3-1.5,0.1-2.2c-0.2-0.6-0.3-1.1-0.1-1.7c0.1-0.5,0.1-1,0-1.5l-0.6-2.7c-0.1-0.2,0.1-0.5,0.4-0.5s0.6-0.1,0.9-0.1
		c0.6,0,1.1,0,1.7-0.2c0.5-0.1,1-0.1,1.5-0.1c0.5,0,0.9,0.3,1,0.8l0.1,0.1c0.3,1.1,0.5,1-0.1,2.2c-0.2,0.4-0.2,0.7-0.1,1.1
		c0.3,1.2,0.3,2.4-0.1,3.7c-0.1,0.2-0.1,0.5,0,0.7c0.1,0.4,0.3,0.7,0.2,1.1c-0.1,0.6-0.3,1.1-0.3,1.7c0,0.5,0.4,0.9,0.3,1.4
		c0,0.5,0,0.9-0.2,1.4c-0.1,0.3-0.1,0.6,0,0.9c0.1,0.4,0.1,0.7,0,1.1c-0.2,0.5-0.2,1.1-0.1,1.7c0.2,0.6,0.1,1.1,0.2,1.7
		c0.1,0.6,0.1,1.3-0.1,1.9c-0.1,0.3,0,0.5,0.1,0.8c0.1,0.4,0.1,0.9,0.1,1.3c-0.1,0.4,0,0.6-0.1,0.9c-0.1,0.5-0.1,0.9,0.1,1.4
		c0.1,0.1,0.1,0.4,0.1,0.6c-0.3,0.6-0.1,1.2,0.1,1.9c-0.2,0.5-0.1,1,0,1.5l-0.1,0.7c-0.1,0.1-0.1,0.3-0.1,0.4
		c0.1,0.4,0.1,0.9,0.1,1.3c0,0.4-0.1,0.7-0.2,1.1c0.1,0.5,0.1,1-0.1,1.5v0.4c-0.1,0.8,0.4,1.5,0,2.3v4.5c0,0.6,0,1.3,0.1,1.9
		c0.1,0.2,0,0.4,0,0.6c-0.1,0.4-0.1,0.6-0.1,1c0,0.6,0.4,1.1,1.1,1.1h3.9c0.3,0,0.6,0,0.9,0.1c0.6,0.3,1.3,0,1.9,0.1
		c0.6,0.1,1.1,0.1,1.7,0.1s1.1,0,1.5,0.2c0.4,0.1,0.6,0.1,1-0.1c0.1,0,0.4-0.1,0.5-0.1c0.6,0.4,1.3,0.1,1.9-0.1c0.4,0,0.6,0.1,1,0.1
		c0.5,0.1,1.7-0.1,2-0.4c0.4-0.3,0.9-0.5,1.4-0.6l0.9-0.4c0.5-0.2,0.9-0.5,0.9-1.1c0-0.1,0.1-0.4,0.3-0.5c0.3-0.3,0.7-0.5,1.1-0.7
		c0.1-0.1,0.4,0.1,0.4,0.2c0.1,0.2,0.1,0.4,0.1,0.6c-0.1,0.4-0.2,0.6-0.3,0.9c0,0.2,0,0.4,0.1,0.6l0.1,0.1c0.9,0.7,1.2,1.7,1.4,2.7
		c0.1,0.6,0,1-0.4,1.4c-0.1,0.1-0.2,0.1-0.3,0.2c-0.3,0.3-0.6,0.4-1.1,0.4C266.5,357.1,265.7,357.1,264.9,357.1z M227.1,358.4
		c0.3,0,0.5,0,0.8-0.1c0.2-0.1,0.4-0.2,0.6-0.4c0.5-0.4,1.1-0.4,1.7-0.2c0.4,0.1,0.9,0.4,1.3,0.6c0.3,0.1,0.9-0.1,1.1-0.5v-0.4
		c-0.3-0.4-0.6-0.8-0.9-1.2c-0.2-0.4-0.3-0.7-0.1-1.1l0.1-0.2c0.2-0.4,0.3-0.8,0.1-1.3c-0.3-0.6-0.2-1.2-0.1-1.9
		c0.1-0.4,0.4-0.8,0.2-1.1c-0.2-0.4,0.1-0.9-0.1-1.3c-0.3-0.7-0.3-1.4-0.3-2.2v-6c0-0.9,0.1-1.8-0.2-2.7v-0.4
		c0.4-0.9,0.1-1.9,0.2-2.9c0.1-0.6,0-1.1,0.1-1.7c0.2-0.6,0.2-1.4,0.2-2.1l0.1-8.3c0.1-2.1,0-4.2,0-6.4c-0.1-0.6-0.1-1.1-0.1-1.7
		c-0.4-0.6-0.1-1.1,0.1-1.7c0.1-0.4,0.3-0.6,0.6-0.8c0.4-0.2,0.6-0.6,0.9-1c0.1-0.4-0.1-0.9-0.4-0.9c-0.2-0.1-0.4-0.1-0.6-0.1
		c-0.4,0-0.8,0.1-1.1-0.1c-0.5-0.1-0.9-0.1-1.3,0.1c-1.1,0.5-2.1,0.4-3.2,0l-0.6-0.2c-0.1-0.1-0.4,0-0.5,0.1
		c-0.5,0.4-0.6,0.6-0.3,1.1c0.2,0.5,0.4,0.9,0.8,1.4c0.2,0.4,0.4,0.8,0.4,1.3c0.1,0.7,0.3,1.5,0.1,2.3c0.3,0.6,0.3,1.2,0.3,1.9v8.5
		c-0.1,0.4-0.1,0.7-0.1,1.1c-0.1,0.3,0,0.6,0.1,0.9c0.1,0.5,0.1,1-0.1,1.5c-0.2,0.4-0.2,0.9,0,1.3c0.2,0.6,0.2,1.1,0,1.7
		c-0.3,0.8-0.2,1.7-0.1,2.5c0.2,0.4,0.1,1,0.1,1.5c0.1,0.7,0.1,1.5-0.1,2.2c-0.1,0.3-0.1,0.6,0.1,0.8c0.3,0.4,0.4,0.7,0.3,1.2
		c-0.1,0.4-0.1,0.9-0.1,1.4c0,0.8,0,1.7-0.3,2.4c-0.1,0.3,0,0.6,0,1c0,0.2,0.1,0.5,0,0.7c-0.1,0.6,0.1,1.1,0.1,1.7
		c-0.1,0.3,0.1,0.6,0.1,0.9c0,0.4,0.1,0.8,0,1.1c-0.2,0.7-0.3,1.4-0.3,2.1c0,1,0.1,1.9-0.3,2.9v1.6
		C226.4,358.1,226.8,358.3,227.1,358.4z M188.6,310.7l2.4-0.1h2.2c0.2,0.1,0.4,0.1,0.5,0.3c0.1,0.1,0,0.4-0.1,0.5
		c-0.6,0.4-1,1-1.4,1.6c-0.2,0.3-0.2,0.8,0.1,1.1c0.6,0.6,0.9,1.2,1.4,1.9c0.1,0.2,0.2,0.4,0.2,0.7c-0.1,0.2-0.1,0.4,0,0.6
		c0.1,0.4,0.3,0.7,0.4,1.1c0.1,0.4-0.1,0.9-0.1,1.4c0,0.2,0,0.5,0.2,0.6l0.4,0.4c0.3,0.4,0.4,0.6,0.4,1.1c0,0.6,0.4,1.2,0.1,1.9
		c0.4,1.2,0.4,2.4,1.1,3.4c0.4,0.5,0.5,1.1,0.5,1.7c0,0.5,0,1,0.4,1.4c0.1,0.1,0.1,0.2,0.1,0.4c0,1.1,0.4,2.2,0.7,3.4l0.2,1.1
		c0.6,0.7,0.6,1.7,0.8,2.5c0.1,0.6,0.4,1.4,0.6,2c0.2,0.4,0.4,0.8,0.4,1.3c0.1,0.4,0.2,0.7,0.4,1.1c0.2,0.4,0.4,0.8,0.4,1.3
		c0.1,0.5,0.2,1,0.5,1.4l1,2.1c0.3,0.5,0.4,1.1,0.5,1.7l0.1,0.1l0.1-0.1c0.2-0.3,0.4-0.6,0.6-1c0.4-0.4,0.6-0.9,0.7-1.5
		c0-0.2,0.1-0.4,0.2-0.6c0.1-0.3,0.3-0.6,0.3-0.9c0.1-0.8,0.3-1.5,0.6-2.2c0.4-1.2,0.6-2.4,0.9-3.6c0.2-1.2,0.6-2.5,0.9-3.7
		c0-0.3,0.1-0.5,0.1-0.7c-0.1-0.9,0.3-1.8,0.5-2.7c0.1-0.6,0.3-1.1,0.4-1.7c0-0.3,0.1-0.6,0.2-0.9l0.9-2.7c0.1-0.2,0.1-0.2,0.4-0.1
		h0.1l0.1-0.1c-0.1-0.2-0.1-0.5-0.1-0.7c-0.1-0.4-0.2-0.9,0-1.4c0.4-1.3,0.8-2.7,1.1-4.1c0.1-0.5,0.3-0.9,0.5-1.4
		c0.2-0.7,0.5-1.4,0.6-2.2c0-0.2,0.1-0.5,0.2-0.7c0.3-0.6,0.5-1.2,0.5-1.9c0.1-0.4,0.2-0.9,0.3-1.3l-0.1-0.4l-0.5-0.2l-0.9-0.4
		c-0.4-0.2-0.4-0.8,0-1c0.3-0.2,0.6-0.4,1.1-0.4h1.5c1-0.1,1.9,0,2.9-0.3c0.8-0.2,1.6,0,2.2,0.4c0.1,0.1,0.3,0.4,0.1,0.5l-0.1,0.1
		c-1.1,0.6-1.7,1.5-1.5,2.9c0.1,0.9-0.4,1.6-0.7,2.4l-0.6,1.2c-0.1,0.3-0.1,0.5-0.1,0.8c0.1,0.3,0.1,0.6,0,0.9l-0.4,0.9
		c-0.4,0.6-0.4,1.3-0.6,2c-0.9,2.4-1.4,5-2.4,7.5c-0.6,1.6-0.9,3.2-1.3,4.8c-0.4,1.4-0.9,2.9-1.4,4.2c-0.2,0.6-0.6,1.3-1,1.9
		c-0.2,0.4-0.4,0.6-0.2,1.1c0,0.1,0,0.3-0.1,0.4c-0.3,0.4-0.4,0.8-0.5,1.2l-0.2,0.8c-0.4,0.6-0.4,1.3-0.6,2c-0.3,0.8-0.4,1.6,0,2.4
		c0.1,0.4,0.1,0.9,0,1.3c-0.2,0.6-0.2,1.3-0.4,1.9s-0.2,1-0.1,1.5s0.1,1.1-0.1,1.6l-0.3,1.1c-0.1,0.2-0.1,0.4,0,0.6l0.3,1.7
		l-0.2,0.3c-0.2,0.1-0.5,0.2-0.7,0.1l-1.9-0.6c-0.4-0.1-0.9-0.1-1.3,0.2l-0.3,0.2c-0.4,0.2-0.9,0.2-1.4,0.2
		c-0.2-0.1-0.5-0.3-0.5-0.5l-0.1-0.9c-0.1-0.4,0-0.7-0.1-1c-0.2-0.6-0.3-1.2-0.2-1.9c0-0.6-0.1-1.1-0.3-1.7c-0.4-1.1-0.9-2.2-1-3.3
		c-0.5-1.1-0.9-2.2-1.2-3.2c-0.3-0.7-0.6-1.4-0.7-2.2c-0.1-0.1-0.2-0.3-0.3-0.5c-0.1-0.1-0.2-0.3-0.2-0.5c0-1.2-0.4-2.6-0.9-3.7
		l-0.6-1.2c-0.4-0.6-0.6-1.2-0.7-1.9c-0.1-0.3-0.2-0.5-0.4-0.7c-0.1-0.1-0.2-0.4-0.1-0.5c0.1-0.5,0-1-0.1-1.5
		c-0.1-0.9-0.6-1.7-0.5-2.7c0-0.1-0.1-0.4-0.2-0.5c-0.4-0.8-0.5-1.7-1.1-2.4c-0.1-0.1,0-0.4,0-0.6c-0.1-0.2,0-0.4-0.1-0.6
		c-0.4-0.4-0.4-0.9-0.5-1.4c0-0.3-0.1-0.6-0.2-0.9c-0.4-0.9-0.8-1.9-1-2.9c-0.1-0.7-0.4-1.4-0.8-2c-0.4-0.6-0.6-1.3-0.6-1.9
		c-0.1-0.9-0.5-1.7-0.5-2.7l-0.4-1.1c-0.1-0.2-0.4-0.4-0.6-0.4c-0.4-0.1-0.9-0.2-1.4-0.4c-0.4-0.1-0.7-0.1-1.1,0.1
		c-0.4,0.1-0.6,0-0.8-0.4c-0.1-0.3-0.1-0.4,0.1-0.5l1.3-0.4c0.1-0.1,0.3-0.1,0.4-0.1C186.8,311,187.7,311,188.6,310.7z M153.8,348.5
		c-0.1,0.1-0.4-0.1-0.4-0.4l-0.1-0.2c0.1-0.4,0.1-0.7,0.1-1.1c0-0.3-0.1-0.6-0.1-0.9c0-0.4,0-0.8,0.1-1.1c0.3-0.6,0.3-1.1,0.1-1.7
		l0.2-0.3c0.1,0,0.3,0.1,0.3,0.2c0.1,0.6,0,1.3,0.1,1.9c0.1,0.6-0.1,1.1,0.1,1.7c0.1,0.1,0,0.3,0,0.4c-0.1,0.4-0.2,0.9-0.4,1.3
		L153.8,348.5z M153.8,340.8c-0.1,0.1-0.2,0-0.3-0.1s-0.1-0.4-0.1-0.5V339c-0.1-0.7,0.2-1.6,0.1-2.4l0.1-0.1
		c0.1-0.1,0.3-0.1,0.4-0.1c0.1,0,0.4,0.1,0.4,0.1c-0.1,0.6,0.1,1.1-0.1,1.7c0.4,0.9,0,1.7-0.3,2.4L153.8,340.8z M153.6,332.6
		c-0.2,0.1-0.4,0-0.4-0.1v-0.1c0.1-0.2,0.4-0.3,0.6-0.2l0.1,0.1C153.8,332.4,153.8,332.6,153.6,332.6z M154.1,330.2
		c-0.1-0.1-0.3-0.2-0.4-0.4c-0.1-0.1-0.1-0.2,0-0.4h0.2c0.2,0.1,0.4,0.2,0.5,0.5v0.1C154.3,330.3,154.2,330.4,154.1,330.2z
		 M153.8,328.1c-0.1,0-0.3,0-0.4-0.1c-0.2-0.5,0.1-1.2,0.6-1.5l0.3,0.2c0,0.4,0,0.7-0.1,1.1C154.2,327.9,154,328,153.8,328.1z
		 M155.7,358.6c0.4-0.1,0.9-0.2,1.3-0.2h5.8c1-0.1,2.1,0,3.1,0s1.9-0.1,2.9,0c1.1,0.1,2.1-0.4,3.1-0.1c0.1,0.1,0.3,0,0.4-0.1
		c0.5-0.1,1-0.1,1.6-0.1h2.9c0.2,0,0.5-0.1,0.7-0.1c0.4-0.1,0.6-0.6,0.5-0.9c-0.1-0.2-0.2-0.4-0.4-0.5c-0.4-0.7-0.4-1.4,0-2.1
		l0.7-1.1c0.1-0.3,0.1-0.5-0.1-0.7c-0.1-0.2-0.3-0.2-0.5-0.2c-0.5,0.2-0.9,0.4-1.4,0.5c-0.6,0.1-1.1,0.4-1.7,0.5
		c-1.1,0.4-2.2,0.6-3.2,0.4c-0.4-0.1-0.6,0-0.9,0.1c-0.4,0.2-0.9,0.2-1.4,0.2h-2.3c-0.7,0-1.4,0-2.1,0.3c-0.3,0.1-0.6,0.1-1,0.1
		c-0.4,0.1-0.9,0.1-1.3,0.1H161c-0.1,0-0.2,0-0.3-0.1c-0.3-0.3-0.7-0.4-1.1-0.4s-0.6-0.1-0.9-0.4c-0.4-0.4-0.9-0.5-1.1-1.1
		c-0.1-0.4-0.1-0.9-0.1-1.3c0-0.2-0.1-0.4-0.1-0.6c0-0.2-0.1-0.4,0-0.6c0.2-1,0.1-1.9,0.1-2.9v-8.5c0-0.8,0.1-1.5,0.4-2.3
		c0.2-0.9,0.7-1.4,1.7-1.5c0.5-0.2,1.1-0.3,1.7-0.1c0.4,0.1,0.6,0,0.9-0.4c0.2-0.4,0.5-0.5,0.9-0.3c0.3,0.1,0.4,0,0.5-0.4l0.3-0.2
		c0.9-0.1,1.9-0.1,2.9,0.1c0.4,0.1,0.7,0.2,1.1,0.6c0.4,0.2,0.8,0.4,1.3,0.4h2.3c1,0,1.9-0.1,2.9,0.2c0.1,0.1,0.5-0.3,0.5-0.5
		c0.1-0.4,0-0.6-0.1-0.9c-0.2-0.6-0.1-1.1,0.2-1.7c0.1-0.4,0.4-0.6,0.7-0.9c0.3-0.2,0.3-0.4,0.1-0.4c-0.1-0.1-0.1-0.2-0.3-0.2
		c-0.9-0.2-1.7-0.2-2.5,0.1c-0.5,0.1-1.1,0.4-1.7,0.5c-0.9,0.1-1.7,0.4-2.6,0.6c-0.3,0.1-0.5,0.1-0.8,0.1c-0.9,0.1-1.9-0.1-2.9-0.1
		l-0.3-0.1c-0.4-0.3-0.7-0.4-1.1-0.3c-0.2-0.1-0.4-0.3-0.6-0.3c-0.3-0.1-0.5,0.1-0.8-0.1c-0.3-0.1-0.6-0.1-0.9-0.3
		c-0.4-0.1-0.7,0-1.1,0.2c-0.8,0.4-1.4,0.3-2-0.4c-0.1-0.2-0.3-0.4-0.3-0.7c-0.1-0.5-0.1-1-0.1-1.5c0.1-1.4,0-2.7-0.3-4
		c-0.1-0.3-0.1-0.6,0-0.8c0.1-0.7,0-1.4-0.1-2.1v-2.7c0-0.4,0-0.9-0.1-1.4c-0.4-0.6-0.1-1.2-0.2-1.9c-0.1-0.3,0.2-0.6,0.5-0.7
		c0.9-0.2,1.7-0.6,2.7-0.6c2.2,0.1,4.2,0,6.4,0.1c0.4,0,0.8,0.1,1.1,0.1c0.4,0.1,0.9,0.1,1.3,0.1c0.6,0.1,1.3,0,1.9,0.1h2.4
		c0.3-0.1,0.6-0.4,0.6-0.6c0.1-0.4,0.1-0.8,0.1-1.1c-0.1-0.6,0.1-1.1,0.5-1.7c0.1-0.2,0.3-0.6,0.4-0.9c0-0.1-0.1-0.2-0.2-0.3
		c-0.4-0.1-0.9-0.1-1.3,0.1c-0.5,0.1-1,0.2-1.5,0.2h-2.4c-0.6,0.1-1.4,0-2.1,0.1c-0.8-0.1-1.5-0.1-2.3,0.1c-0.1,0.1-0.4-0.1-0.6-0.1
		c-0.2-0.1-0.5-0.1-0.7-0.1c-0.5,0.3-1,0.1-1.5,0.1c-0.9-0.1-1.8-0.1-2.7-0.1c-0.6,0-1.4,0-2.1-0.3c-0.6-0.1-1.1-0.1-1.7,0
		c-0.9,0.3-1.8,0.3-2.7,0.3c-1,0-1.9,0-2.9,0.4h-0.6c-0.4,0-0.7,0.3-1,0.6c-0.1,0.1-0.4,0.1-0.5-0.1c-0.4-0.3-0.5-0.3-0.8,0
		l-0.1,0.1c-0.1,0.2-0.1,0.4,0,0.6c0.2,0.3,0.5,0.6,0.9,0.6c0.2,0.1,0.5,0.1,0.7,0.1l0.6,0.2l2.2,1.8c0.4,0.4,0.5,0.8,0.6,1.2
		c0.1,0.4,0.1,0.8,0.1,1.1v7l0.3,1.9c0,0.4-0.1,0.6-0.3,0.9c-0.3,0.3-0.3,0.6-0.1,1.1c0.1,0.2,0.1,0.5,0.1,0.7
		c-0.3,0.5,0,1.1-0.1,1.5c-0.1,0.6,0.1,1.1,0.1,1.5c0.1,0.4,0.1,0.6,0.1,1v1.9c0,0.7,0.3,1.5,0.1,2.3c0.4,0.7,0.2,1.5,0.3,2.2
		c0,1-0.1,1.9,0.1,2.9c0,0.1,0,0.4-0.1,0.6c0,0.3-0.1,0.6-0.1,0.9v5c0,0.3,0,0.6,0.1,0.9c0.1,0.4,0,0.8-0.1,1.1l0.1,0.2
		c-0.1,0.2,0.1,0.3,0.4,0.1c0.6-0.2,0.6-0.1,0.7,0.4v0.1c0,0.6,0,1.1-0.5,1.4c-0.1,0.1-0.2,0.3-0.2,0.5c-0.1,0.8-0.5,1.4-0.9,2.2
		c-0.3,0.6-0.8,1-1.4,1.2l-2.2,0.9c-0.1,0.1-0.1,0.4-0.1,0.5c0.2,0.2,0.4,0.4,0.7,0.4c0.6,0,1.4,0,2.1,0.1c0.5,0,1-0.1,1.5,0.1
		C154.1,358.8,154.9,358.8,155.7,358.6z M124.6,351.1c-0.2,0-0.5-0.2-0.6-0.4c-0.2-0.4-0.1-0.7-0.2-1.1c-0.4-1.1-0.3-2.2-0.3-3.3
		l-0.1-2.9c0-0.4,0-0.8-0.1-1.1c-0.3-0.8-0.3-1.5-0.3-2.3c0-0.7,0-1.4-0.3-2.1c-0.1-0.4-0.1-0.8-0.1-1.1c0.1-1.4-0.4-2.8-0.6-4.2
		c-0.2-0.6-0.2-1.2-0.2-1.9c0-0.9,0-1.8-0.1-2.7c0-0.7,0-1.4-0.2-2.1c-0.1-0.4-0.1-0.9,0-1.4c0.4-1,0.3-2,0.1-3c0-0.4-0.1-0.6,0-1
		c0.1-0.1-0.1-0.4-0.2-0.4c-0.1-0.1-0.2-0.3-0.1-0.4c0.4-0.4,0.4-0.9,0.4-1.4c0-0.3,0-0.6-0.1-0.9c-0.2-0.7-0.2-1.4-0.1-2.1
		c0.1-0.4,0.1-0.6,0.1-0.9c0-0.2,0.2-0.4,0.4-0.4c0.5-0.2,1.1-0.1,1.6-0.1h0.9c0.4,0,0.8,0.1,1.1,0.2c1,0.3,1.9,0.6,2.9,0.9
		c0.6,0.2,1.1,0.5,1.7,0.8c0.2,0.1,0.4,0.4,0.6,0.5c0.3,0.4,0.5,0.6,0.9,0.7c0.3,0.1,0.6,0.3,0.8,0.5c0.4,0.6,0.8,1.1,1,1.7
		c0.2,0.5,0.5,1,0.9,1.4l0.4,0.6c0.1,0.2,0.1,0.4,0.2,0.6c0.8,0.9,1,2.2,1.5,3.3c0.1,0.2,0.2,0.5,0.2,0.7c0,0.8,0,1.6,0.3,2.3
		c0.1,0.4,0.1,0.8,0.1,1.1c0,1-0.1,2.1,0.2,3.1c0.1,0.2-0.1,0.5-0.1,0.7c0.1,1.1-0.2,2-0.5,3c-0.1,0.5-0.4,0.9-0.4,1.5
		c-0.1,0.2-0.1,0.5-0.3,0.7c-0.4,0.5-0.6,1.3-1.1,1.7l-0.6,1.7c-0.1,0.2,0.1,0.4,0.2,0.5c0.1,0.1,0,0.4-0.1,0.4
		c-0.4,0-0.9,0.1-1.1,0.6c-0.1,0.1-0.2,0.2-0.3,0.3c-0.6,0.1-0.9,0.6-1.3,1.1s-0.8,0.9-1.2,1.3c-0.5,1.1-1.7,1.8-2.3,2.8
		c-0.1,0.1-0.1,0.2-0.3,0.3c-1.1,0.7-2.2,1.7-3.4,2.2L124.6,351.1z M116.6,357.8c1.2,0.1,2.3-0.2,3.4-0.5c0.6-0.1,1.1-0.3,1.7-0.3
		c0.4,0.1,0.7-0.1,1.1-0.3c0.5-0.5,1.1-0.5,1.7-0.9c0.6-0.4,1.1-0.6,1.7-0.9l2.8-1.4c0.7-0.3,1.3-0.8,1.9-1.4
		c0.6-0.6,1.3-1.4,2.2-1.9c0.5-0.3,0.9-0.8,1.2-1.2c0.5-0.8,1.1-1.7,1.7-2.4c0.6-0.7,1.1-1.5,1.6-2.4c0.3-0.6,0.6-1.1,0.9-1.7
		c0.4-0.6,0.5-1.3,1-1.9c0.7-0.9,1.1-1.8,1-3c0-0.2,0.1-0.5,0.2-0.7c0.4-0.5,0.5-1,0.2-1.6c-0.1-0.1,0-0.4,0.1-0.6
		c0.1-0.6,0.2-1.1,0.4-1.7c0.1-0.5,0.2-0.9,0.2-1.4c0-0.9,0-1.7-0.1-2.5c0-0.4,0-0.8-0.1-1.1c-0.1-0.5-0.1-1-0.2-1.5
		c0-0.4,0-0.8-0.1-1.1c-0.4-1.7-1.1-3.3-2-4.8c-0.2-0.4-0.4-0.7-0.6-1.1c-0.4-1.3-1.2-2.3-2.1-3.3c-1.1-0.8-2-1.9-3.1-2.9
		c-0.2-0.1-0.4-0.3-0.6-0.4c-0.4-0.1-0.7-0.3-1-0.6c-0.6-0.6-1.4-0.9-2.2-1.1c-0.9-0.1-1.7-0.4-2.7-0.7c-1.2-0.4-2.4-0.7-3.7-0.8
		c-0.3,0-0.6-0.1-0.9-0.2c-1.1-0.5-2.2-0.6-3.4-0.6c-0.6,0.1-1.1,0-1.6,0v0.1h-2.9c-0.4,0-0.7,0-1,0.1c-0.7,0.3-1.5,0.3-2.3,0.3
		c-0.2,0-0.5,0.1-0.7,0.1c-0.2,0-0.4,0.1-0.5,0.3c-0.1,0.1-0.1,0.4,0,0.5l0.4,0.4c0.6,0.6,1.2,0.9,1.9,1.2c1.3,0.4,2.5,1.1,3.5,2.1
		c0.8,0.7,1.4,1.5,1.2,2.7v7.3c0,0.5,0,1.1,0.1,1.6c0.2,0.5,0.2,1.1,0.2,1.7c0,1.6,0.1,3.2,0.1,4.8c0,0.4-0.1,0.9,0.1,1.4
		c0.3,0.9,0.3,1.7,0.3,2.7c0,0.4,0,0.9,0.1,1.4c0.1,0.5,0.2,1.1,0.2,1.7c0.1,0.4,0.1,0.8,0.2,1.1c0.1,0.4,0.1,0.6,0,0.9
		c-0.1,0.2-0.1,0.4,0,0.6c0.1,0.5,0.1,1.1,0.3,1.5c0.1,0.6,0.2,1.1,0,1.7c-0.1,0.4-0.1,0.8,0.1,1.1c0.2,0.4,0.2,0.7,0.1,1.1
		c-0.1,0.2,0,0.4,0.1,0.6c0.3,0.4,0.4,0.8,0.4,1.2v1.8c0.1,0.8-0.1,1.5-0.4,2.2c-0.1,0.4-0.4,0.7-0.6,0.9c-0.8,0.5-1.5,1-2.3,1.4
		c-0.9,0.4-1.7,0.9-2.4,1.5l-0.1,0.1l0.1,0.1c0.4,0.1,0.9,0.1,1.4,0.3C115.3,357.8,116,357.8,116.6,357.8z"/>
	<path class="st7" d="M478.4,358.9c1.1-0.3,2.2-0.4,3.3-0.1c0.1,0.1,0.4,0.1,0.6,0.1c1.1-0.3,2.3-0.1,3.4-0.1c0.4,0,0.7,0.1,1.1,0.1
		c0.1,0.1,0.2,0.1,0.4,0.1c0.1-0.1,0.2-0.1,0.3-0.3c0.1-0.4,0.1-0.7-0.1-1.1c-0.3-0.4-0.6-0.6-0.8-1.1c-0.3-0.6-0.4-1.4-0.5-2.1
		c-0.1-1.1-0.1-2.3,0.1-3.4c0.1-0.2,0.1-0.5,0-0.7c-0.2-0.6-0.1-1.3-0.1-1.9l-0.1-5.6c0-0.4,0-0.8-0.1-1.1c-0.3-0.8-0.3-1.5-0.3-2.3
		v-3.1c0-0.9,0.1-1.8-0.1-2.7c0.2-0.6-0.2-1.1-0.1-1.7c0.1-0.4-0.1-0.9,0-1.3c0-0.4,0.1-0.9,0.1-1.4c0.1-0.7,0.1-1.5-0.1-2.3
		c-0.1-0.4-0.1-0.9-0.1-1.3c0-1.7,0-3.2-0.1-4.9v-4.4c0-0.5,0.1-0.9,0.1-1.4c0.1-0.3,0.3-0.5,0.5-0.6c1.1-0.4,2.2-0.5,3.4-0.4h2.1
		c0.4,0,0.6,0,1,0.1c0.9,0.2,1.7,0.5,2.6,0.7c0.4,0.1,0.6,0.4,0.8,0.8c0.1,0.3,0.1,0.6,0.4,0.8c0.1,0.1,0.2,0.1,0.4,0.1
		c0.2-0.2,0.4-0.4,0.4-0.7c0-0.6,0-1.3,0.1-1.9c0.1-0.9-0.2-1.8-0.5-2.7c-0.1-0.4-0.5-0.6-0.9-0.6c-0.6-0.1-1.2,0-1.8-0.1
		c-0.9-0.3-1.7-0.3-2.7-0.3h-3.9c-0.6,0-1.1,0-1.7,0.2c-0.5,0.2-1.1,0.2-1.7,0c-0.4-0.1-0.8-0.3-1.1-0.1c-0.5,0.1-1,0.1-1.5,0
		c-0.4-0.1-0.8-0.1-1.1,0.1c-0.6,0.2-1.3,0.2-1.9,0.2h-2.7c-0.4,0-0.8,0.1-1.1,0.1c-0.6,0.3-1.3,0.3-1.9,0.3h-6.4
		c-0.4,0-0.7,0.1-1.1,0.4c-0.2,0.1-0.4,0.3-0.4,0.6l-0.1,4.8c0,0.4,0.2,0.6,0.4,0.9c0.1,0.1,0.1,0.4-0.1,0.5l-0.1,0.4
		c-0.1,0.1,0.1,0.4,0.3,0.4c0.5,0,0.9-0.3,1.1-0.6c0.2-0.2,0.3-0.5,0.4-0.7c0.3-0.6,0.6-1.1,1.2-1.4c0.1-0.1,0.3-0.1,0.4-0.2
		c0.7-0.7,1.8-0.7,2.6-1.3c0.5-0.1,0.9,0.1,1.5,0.1c0.7-0.1,1.4,0,2.1-0.3c0.2-0.1,0.5-0.1,0.7-0.1h2.6c0.6,0.1,1.4,0.6,1.5,1.2
		c0.1,0.9,0.4,1.7,0.7,2.4c0.1,0.2,0.1,0.5,0,0.7c-0.5,1.2-0.2,2.4-0.2,3.7c0.4,1.1,0.3,2.2,0.4,3.2c0,0.6,0,1.1,0.1,1.6
		c0.1,0.4,0.1,0.9,0.1,1.3c0,0.5,0.1,1,0.1,1.6c0,0.4,0.1,0.9,0.2,1.3c0.2,0.8,0.2,1.5,0,2.3c-0.1,0.4-0.2,0.7-0.1,1.1
		c0.2,0.4,0.2,1,0.2,1.5v3.7c0.1,1-0.1,2.1,0.4,3l0.1,1.6c0,0.4,0.1,0.8,0.1,1.1c0,0.4-0.1,0.9-0.1,1.3v3.5c0,0.5,0.1,1,0.2,1.5
		c0.1,0.3,0.1,0.6,0.1,0.9c0,0.4-0.1,0.6-0.3,0.9c-0.6,0.6-1.1,1.4-1.4,2.3c-0.1,0.6-0.5,1.2-1,1.7l-0.4,0.4l-0.2,0.4v0.4
		L478.4,358.9z M445.5,358.2c0.7,0.2,1.4,0.1,2.1-0.1c0.1-0.1,0.4-0.1,0.6,0c0.5,0.1,1-0.1,1.4-0.4s1-0.4,1.5-0.5
		c0.9-0.1,1.5-0.6,2.1-1.2c0.4-0.5,0.8-0.9,1.3-1.2c0.9-0.6,1.3-1.6,2-2.3c0.1-0.1,0.1-0.2,0.2-0.3c0.2-0.7,0.6-1.3,0.6-2.1
		c-0.1-0.2,0.1-0.5,0.1-0.7c0.2-1.1,0.7-2.1,0.8-3.2c0-0.1,0-0.3,0.1-0.4c0.5-0.6,0.4-1.2,0.2-1.9l-0.3-1.3c-0.1-0.5-0.2-1-0.4-1.5
		c-0.1-0.3-0.1-0.6-0.4-0.6s-0.4,0.2-0.5,0.4l-0.5,0.6h-0.2l-0.1-0.1c0.1-0.7,0.4-1.4,0.8-2.2c0.1-0.1,0.1-0.4,0.1-0.5
		c-0.4-0.6-0.7-1.1-0.9-1.7c-0.2-0.6-0.6-1.1-0.9-1.7c-0.5-0.9-1.1-1.6-1.9-2.2c-0.8-0.6-1.5-1.4-2.2-2.2c-0.4-0.5-0.9-0.9-1.5-1.1
		c-1-0.3-1.8-0.9-2.7-1.6c-0.9-0.7-1.7-1.6-2.7-2.2c-0.6-0.4-1.2-1-1.8-1.5c-0.7-0.6-1.4-1.4-2-2.1c-0.1-0.1-0.3-0.4-0.4-0.6
		c-0.2-0.6-0.4-1.2-0.4-1.9c-0.1-1-0.1-2.1,0.1-3.1l0.1-0.4c0.6-1.5,1.8-2.5,3.3-3.1c0.8-0.3,1.6-0.4,2.4-0.6
		c0.6-0.1,1.2-0.1,1.7,0.4c0.6,0.5,1.5,0.7,2.2,1.2c0.3,0.2,0.6,0.4,0.9,0.7c0.5,0.6,1,1.1,1.5,1.8c0.2,0.3,0.4,0.6,0.4,1l0.4,1.7
		c0.2,0.6,1,1.1,1.7,0.9c0.3,0,0.6-0.1,0.9-0.2c0.6-0.2,1-0.6,1.3-1.1c0.1-0.1,0.1-0.2-0.1-0.4c-0.2-0.2-0.6-0.2-0.9-0.2l-0.2-0.1
		l0.1-0.1c0.6-0.4,1.2-0.8,1.7-1.3c0.4-0.4,0.5-0.9,0.8-1.4l0.3-0.5l0.1-0.4c0.1-0.2,0.1-0.6-0.1-0.7L458,314
		c-0.5-0.4-1-0.6-1.7-0.5c-0.3,0.1-0.6,0-0.9-0.1c-0.4-0.4-1-0.6-1.4-1c-1.1-1.1-2.6-1.9-4.1-2.4c-0.5-0.1-0.9-0.4-1.4-0.6
		c-1.2-0.4-2.5-0.6-3.8-0.7c-0.8-0.1-1.5,0-2.2,0.4c-0.8,0.4-1.7,0.7-2.4,1.3c-0.3,0.3-0.6,0.5-0.9,0.6l-1.9,1.2
		c-0.1,0.1-0.2,0.1-0.4,0.3c-0.1,0.1-0.2,0.4-0.1,0.5c0.2,0.4,0.1,0.7,0.1,1.1c-0.1,0.4-0.4,0.6-0.8,0.8l-0.8,0.5
		c-0.3,0.2-0.4,0.5-0.5,0.8c0,0.2-0.1,0.4-0.1,0.6c0.1,0.6,0,1.3-0.1,1.9c-0.1,0.6,0,1.1,0.2,1.7l0.5,0.9c0.1,0.3,0.1,0.5-0.3,0.8
		c-0.1,0.1-0.1,0.4,0.1,0.4l0.5,0.1c0.2,0,0.4,0.2,0.2,0.4c-0.1,0.3-0.2,0.5,0.1,0.8c1.1,1.1,2.2,2.1,3.1,3.2
		c0.6,0.8,1.3,1.4,2.2,1.9l0.6,0.4c0.5,0.6,1.1,1,1.8,1.4c0.2,0.1,0.5,0.2,0.6,0.4c0.5,0.6,1.1,0.9,1.8,1.4c0.3,0.2,0.6,0.4,0.8,0.6
		c0.3,0.3,0.6,0.6,1.1,0.8c0.4,0.3,0.7,0.5,1,0.9l2.2,2.2c0.1,0.1,0.2,0.4,0.3,0.5c0.7,0.9,1,2.1,1.6,3.1c0.1,0.1,0.1,0.3,0.1,0.4
		c0.2,0.8,0.4,1.5,0.5,2.3c0.1,0.4,0.1,0.7,0.1,1.1c-0.1,1.4-0.4,2.9-0.5,4.4c-0.1,0.6-0.4,1.1-0.8,1.5c-0.4,0.5-0.7,1.1-1.1,1.6
		c-0.1,0.2-0.3,0.5-0.5,0.6c-0.6,0.4-1,0.8-1.4,1.4c-0.1,0.1-0.2,0.1-0.4,0.1c-0.9,0-1.8,0.3-2.7,0.4c-0.3,0.1-0.5,0.1-0.8,0.1
		c-0.5,0-1-0.1-1.4-0.4c-1.4-1.2-2.7-2.4-3.4-4.1l-0.4-0.9c-0.6-1-1.1-2.1-1.2-3.2v-1c-0.1-0.1-0.2-0.3-0.4-0.4
		c-0.2-0.2-0.5-0.3-0.9-0.1c-0.4,0.3-0.8,0.4-1.1,0.8c-0.2,0.4-0.6,0.6-0.9,0.6c-0.3,0.1-0.4,0.3-0.6,0.5l-0.6,1.2
		c-0.3,0.5-0.6,1-0.9,1.5c-0.2,0.4-0.1,0.7,0,1.1c0.1,0.4,0.4,0.6,0.9,0.4c0.3-0.1,0.6-0.1,0.7,0.1c0.7,0.7,1.4,1.5,1.9,2.4
		c0.4,0.8,1,1.4,1.7,2l0.9,0.8c0.9,0.8,1.7,1.4,2.9,1.6l0.7,0.2C444.1,358.1,444.8,358,445.5,358.2z M403.4,349.3
		c-0.1,0.1-0.4-0.1-0.4-0.4l-0.1-0.2c0.1-0.4,0.1-0.7,0.1-1.1c0-0.3-0.1-0.6-0.1-0.9c0-0.4,0-0.8,0.1-1.1c0.3-0.6,0.3-1.1,0.1-1.7
		l0.2-0.3c0.1,0,0.3,0.1,0.3,0.2c0.1,0.6,0,1.3,0.1,1.9c0.1,0.6-0.1,1.1,0.1,1.7c0.1,0.1,0,0.3,0,0.4c-0.1,0.4-0.2,0.9-0.4,1.3
		L403.4,349.3z M403.4,341.5c-0.1,0.1-0.2,0-0.3-0.1s-0.1-0.4-0.1-0.5v-1.1c-0.1-0.7,0.2-1.6,0.1-2.4l0.1-0.1
		c0.1-0.1,0.3-0.1,0.4-0.1c0.1,0,0.4,0.1,0.4,0.1c-0.1,0.6,0.1,1.1-0.1,1.7c0.4,0.9,0,1.7-0.3,2.4L403.4,341.5z M403.1,333.4
		c-0.2,0.1-0.4,0-0.4-0.1v-0.1c0.1-0.2,0.4-0.3,0.6-0.2l0.1,0.1C403.4,333.2,403.4,333.4,403.1,333.4z M403.7,331
		c-0.1-0.1-0.3-0.2-0.4-0.4c-0.1-0.1-0.1-0.2,0-0.4h0.2c0.2,0.1,0.4,0.2,0.5,0.5v0.1C403.9,331,403.8,331.1,403.7,331z M403.4,328.8
		c-0.1,0-0.3,0-0.4-0.1c-0.2-0.5,0.1-1.2,0.6-1.5l0.3,0.2c0,0.4,0,0.7-0.1,1.1C403.8,328.7,403.6,328.7,403.4,328.8z M405.3,359.3
		c0.4-0.1,0.9-0.2,1.3-0.2h5.8c1-0.1,2.1,0,3.1,0s1.9-0.1,2.9,0c1.1,0.1,2.1-0.4,3.1-0.1c0.1,0.1,0.3,0,0.4-0.1
		c0.5-0.1,1-0.1,1.6-0.1h2.9c0.2,0,0.5-0.1,0.7-0.1c0.4-0.1,0.6-0.6,0.5-0.9c-0.1-0.2-0.2-0.4-0.4-0.5c-0.4-0.7-0.4-1.4,0-2.1
		l0.7-1.1c0.1-0.3,0.1-0.5-0.1-0.7c-0.1-0.2-0.3-0.2-0.5-0.2c-0.5,0.2-0.9,0.4-1.4,0.5c-0.6,0.1-1.1,0.4-1.7,0.5
		c-1.1,0.4-2.2,0.6-3.2,0.4c-0.4-0.1-0.6,0-0.9,0.1c-0.4,0.2-0.9,0.2-1.4,0.2h-2.3c-0.7,0-1.4,0-2.1,0.3c-0.3,0.1-0.6,0.1-1,0.1
		c-0.4,0.1-0.9,0.1-1.3,0.1h-1.4c-0.1,0-0.2,0-0.3-0.1c-0.3-0.3-0.7-0.4-1.1-0.4s-0.6-0.1-0.9-0.4c-0.4-0.4-0.9-0.5-1.1-1.1
		c-0.1-0.4-0.1-0.9-0.1-1.3c0-0.2-0.1-0.4-0.1-0.6c0-0.2-0.1-0.4,0-0.6c0.2-1,0.1-1.9,0.1-2.9v-8.5c0-0.8,0.1-1.5,0.4-2.3
		c0.2-0.9,0.7-1.4,1.7-1.5c0.5-0.2,1.1-0.3,1.7-0.1c0.4,0.1,0.6,0,0.9-0.4c0.2-0.4,0.5-0.5,0.9-0.3c0.3,0.1,0.4,0,0.5-0.4l0.3-0.2
		c0.9-0.1,1.9-0.1,2.9,0.1c0.4,0.1,0.7,0.2,1.1,0.6c0.4,0.2,0.8,0.4,1.3,0.4h2.3c1,0,1.9-0.1,2.9,0.2c0.1,0.1,0.5-0.3,0.5-0.5
		c0.1-0.4,0-0.6-0.1-0.9c-0.2-0.6-0.1-1.1,0.2-1.7c0.1-0.4,0.4-0.6,0.7-0.9c0.3-0.2,0.3-0.4,0.1-0.4c-0.1-0.1-0.1-0.2-0.3-0.2
		c-0.9-0.2-1.7-0.2-2.5,0.1c-0.5,0.1-1.1,0.4-1.7,0.5c-0.9,0.1-1.7,0.4-2.6,0.6c-0.3,0.1-0.5,0.1-0.8,0.1c-0.9,0.1-1.9-0.1-2.9-0.1
		l-0.3-0.1c-0.4-0.3-0.7-0.4-1.1-0.3c-0.2-0.1-0.4-0.3-0.6-0.3c-0.3-0.1-0.5,0.1-0.8-0.1c-0.3-0.1-0.6-0.1-0.9-0.3
		c-0.4-0.1-0.7,0-1.1,0.2c-0.8,0.4-1.4,0.3-2-0.4c-0.1-0.2-0.3-0.4-0.3-0.7c-0.1-0.5-0.1-1-0.1-1.5c0.1-1.4,0-2.7-0.3-4
		c-0.1-0.3-0.1-0.6,0-0.8c0.1-0.7,0-1.4-0.1-2.1v-2.7c0-0.4,0-0.9-0.1-1.4c-0.4-0.6-0.1-1.2-0.2-1.9c-0.1-0.3,0.2-0.6,0.5-0.7
		c0.9-0.2,1.7-0.6,2.7-0.6c2.2,0.1,4.2,0,6.4,0.1c0.4,0,0.8,0.1,1.1,0.1c0.4,0.1,0.9,0.1,1.3,0.1c0.6,0.1,1.3,0,1.9,0.1h2.4
		c0.3-0.1,0.6-0.4,0.6-0.6c0.1-0.4,0.1-0.8,0.1-1.1c-0.1-0.6,0.1-1.1,0.5-1.7c0.1-0.2,0.3-0.6,0.4-0.9c0-0.1-0.1-0.2-0.2-0.3
		c-0.4-0.1-0.9-0.1-1.3,0.1c-0.5,0.1-1,0.2-1.5,0.2h-2.4c-0.6,0.1-1.4,0-2.1,0.1c-0.8-0.1-1.5-0.1-2.3,0.1c-0.1,0.1-0.4-0.1-0.6-0.1
		c-0.2-0.1-0.5-0.1-0.7-0.1c-0.5,0.3-1,0.1-1.5,0.1c-0.9-0.1-1.8-0.1-2.7-0.1c-0.6,0-1.4,0-2.1-0.3c-0.6-0.1-1.1-0.1-1.7,0
		c-0.9,0.3-1.8,0.3-2.7,0.3c-1,0-1.9,0-2.9,0.4h-0.6c-0.4,0-0.7,0.3-1,0.6c-0.1,0.1-0.4,0.1-0.5-0.1c-0.4-0.3-0.5-0.3-0.8,0
		l-0.1,0.1c-0.1,0.2-0.1,0.4,0,0.6c0.2,0.3,0.5,0.6,0.9,0.6c0.2,0.1,0.5,0.1,0.7,0.1l0.6,0.2l2.2,1.8c0.4,0.4,0.5,0.8,0.6,1.2
		c0.1,0.4,0.1,0.8,0.1,1.1v7l0.3,1.9c0,0.4-0.1,0.6-0.3,0.9c-0.3,0.3-0.3,0.6-0.1,1.1c0.1,0.2,0.1,0.5,0.1,0.7
		c-0.3,0.5,0,1.1-0.1,1.5c-0.1,0.6,0.1,1.1,0.1,1.5c0.1,0.4,0.1,0.6,0.1,1v1.9c0,0.7,0.3,1.5,0.1,2.3c0.4,0.7,0.2,1.5,0.3,2.2
		c0,1-0.1,1.9,0.1,2.9c0,0.1,0,0.4-0.1,0.6c0,0.3-0.1,0.6-0.1,0.9v5c0,0.3,0,0.6,0.1,0.9c0.1,0.4,0,0.8-0.1,1.1l0.1,0.2
		c-0.1,0.2,0.1,0.3,0.4,0.1c0.6-0.2,0.6-0.1,0.7,0.4v0.1c0,0.6,0,1.1-0.5,1.4c-0.1,0.1-0.2,0.3-0.2,0.5c-0.1,0.8-0.5,1.4-0.9,2.2
		c-0.3,0.6-0.8,1-1.4,1.2l-2.2,0.9c-0.1,0.1-0.1,0.4-0.1,0.5c0.2,0.2,0.4,0.4,0.7,0.4c0.6,0,1.4,0,2.1,0.1c0.5,0,1-0.1,1.5,0.1
		C403.7,359.6,404.4,359.5,405.3,359.3z M387,355.9l-0.3-0.1c-0.1-0.1,0.1-0.4,0.3-0.4c0.2,0,0.4,0.2,0.4,0.4
		C387.3,355.9,387.1,355.9,387,355.9z M362,355.9c-0.1-0.1-0.2-0.2-0.1-0.4c0.1-0.1,0.1-0.1,0.3-0.1c0.1,0.1,0.2,0.2,0.1,0.4
		S362.2,355.9,362,355.9z M364.2,346.4c-0.1,0-0.1-0.1-0.2-0.2v-0.4c0-0.1,0.1-0.3,0.2-0.2l0.1,0.3l-0.1,0.4L364.2,346.4z
		 M386.9,318.6c-0.1,0.1-0.3-0.2-0.3-0.4l0.1-0.2c0.1-0.3,0.3-0.5,0.4-0.4c0.1,0.1,0.1,0.3,0.1,0.4l-0.1,0.4
		C387.1,318.5,387.1,318.5,386.9,318.6z M360.6,359.7c0.3,0,0.5,0,0.8-0.1c0.5-0.1,1-0.2,1.5-0.1c1.6,0.1,3.1-0.4,4.6-0.4
		c0.4-0.1,0.9-0.6,0.9-1.1c0-0.2-0.2-0.3-0.4-0.4c-0.8-0.2-1.2-0.9-1.7-1.5c-0.4-0.6-0.4-1.2-0.4-1.9l0.2-0.9c0.1-0.3,0-0.5-0.2-0.7
		c-0.2-0.1-0.4-0.4-0.2-0.6c0.4-0.6,0.4-1.3,0.4-2c0-0.3,0.1-0.5,0.2-0.8l0.2-0.5c0.1-0.3,0.1-0.5-0.1-0.7l-0.2-0.3
		c-0.1-0.4-0.1-0.6,0.1-0.9c0.4-0.4,0.2-0.9,0.4-1.2c0.1-0.4,0.1-0.6-0.1-1s-0.2-0.7,0-1.1c0.1-0.4,0.2-0.8,0.1-1.1
		c0-0.8,0.3-1.5,0.6-2.2c0.1-0.1,0.2-0.3,0.4-0.4c0.4-0.2,0.7-0.4,1.1-0.3c0.1,0.1,0.4,0.1,0.5,0c0.6-0.4,1.4-0.4,2.1-0.3
		c0.4,0.1,0.8,0.1,1.1,0c0.8-0.4,1.7-0.4,2.4-0.4c0.4,0,0.8-0.1,1.1-0.2s0.7-0.2,1.1-0.1c0.4,0.1,0.7,0.1,1.1,0
		c0.7-0.3,1.4-0.4,1.9-0.9c0.1-0.1,0.3-0.1,0.4,0c0.4,0.4,0.8,0.5,1.2,0.3c0.6-0.1,1.1-0.2,1.7-0.4c0.4-0.1,0.6-0.1,0.9,0.1l0.8,0.9
		c0.4,0.4,0.5,0.7,0.4,1.2c-0.1,0.1-0.1,0.4-0.1,0.6c0.2,0.7,0.2,1.4,0.2,2.1c0,0.6-0.1,1.1,0,1.7c0,0.6,0.1,1.1,0.1,1.7
		c0.1,0.4,0.2,0.6,0.1,1c-0.3,0.5-0.1,1,0,1.5c0.2,0.5,0.1,1-0.2,1.4l-0.2,0.3c-0.2,0.5-0.3,1,0.1,1.4c0.2,0.2,0.4,0.4,0.3,0.7
		l-0.2,0.7c-0.1,1.4-0.6,2.7-1.4,3.7c-0.2,0.3-0.4,0.6-0.6,1c-0.1,0.1,0,0.4,0.2,0.4c1.1,0,2.2,0.1,3.2,0.1h1.9c0.4,0,0.8,0,1.2-0.1
		l0.5-0.1c0.4-0.1,0.6-0.5,0.4-0.8c-0.4-0.7-0.9-1.5-1.4-2.3c-0.1-0.1-0.4-0.1-0.5,0c-0.2,0.2-0.4,0.6-0.6,0.7
		c-0.2,0.1-0.4,0-0.5-0.1c-0.2-0.4-0.2-0.8,0.1-1.1c0.4-0.4,0.6-0.7,0.6-1.2c0-0.4,0-0.7,0.1-1.1c0.1-0.5-0.2-1,0-1.5
		c-0.3-1.1-0.1-2.2-0.2-3.2c0-0.6,0.1-1.1-0.1-1.6c-0.1-0.2-0.1-0.5,0-0.7c0.3-1.1,0.3-2.2-0.1-3.2c-0.1-0.4-0.1-0.8-0.1-1.1
		c0.2-0.5,0.2-1,0.1-1.5c-0.2-0.6,0.1-1,0.1-1.5c0-0.2,0.2-0.4,0.3-0.5c0.1-0.1,0.3-0.3,0.4-0.4c0.1-0.3,0.1-0.5,0-0.7
		c-0.2-0.4-0.2-0.4,0.2-0.7c0.2-0.1,0.4-0.3,0.4-0.6c0.1-0.7,0.1-1.4-0.1-2.1c-0.1-0.5-0.4-1-0.4-1.5c0.1-0.4,0-0.7-0.1-1.1
		c-0.2-0.4-0.3-0.7-0.4-1.1c0-0.1-0.2-0.1-0.1-0.3c0-0.2,0.2-0.2,0.4-0.3c0.2-0.1,0.2-0.3,0.1-0.4c-0.4-0.4-0.4-0.4-0.5-1.1
		c-0.1-0.4-0.2-0.6-0.4-0.9c-0.1-0.2-0.3-0.4-0.4-0.6V325c0.3-0.1,0.5,0,0.8,0c0.1,0,0.2,0,0.3-0.1l-0.1-0.1l-0.4-0.4
		c-0.1-0.1-0.2-0.4-0.1-0.6c0.1-0.4,0.2-0.7,0.1-1.1l0.2-0.2c0.2-0.1,0.4-0.1,0.5-0.3c0.3-0.5,0.6-1.1,0.5-1.7l-0.2-0.3
		c-0.1-0.1-0.3,0-0.4,0c-0.2,0-0.4,0-0.4-0.1c0-0.1,0-0.2,0.1-0.4c0.1-0.1,0.3-0.2,0.5-0.2s0.4-0.1,0.4-0.4c0-0.1,0-0.3-0.1-0.4
		c-0.1-0.1-0.1-0.2-0.3-0.3c-0.2-0.2-0.5-0.4-0.7-0.6c-0.3-0.3-0.4-0.6-0.1-0.9c0.6-0.8,1.1-1.7,1.9-2.4c0.2-0.2,0.3-0.4,0.4-0.6
		v-0.2c-0.4-0.3-0.9-0.6-1.4-0.9c-0.1-0.1-0.2,0-0.4,0c-0.6,0.2-1.2,0.3-1.9,0.3c-0.4,0-0.7,0-1,0.1c-0.6,0.2-1.2,0.2-1.9,0.2
		c-0.5,0-1.1,0-1.6,0.1c-0.1,0-0.4,0.1-0.5,0.1l-1.1,0.9v0.2c0.6,0.4,1.2,0.7,1.9,0.9c0.1,0.1,0.2,0,0.4,0c0.1-0.1,0.3-0.3,0.4-0.4
		l0.4,0.1l0.1,0.3c0.1,0.2-0.1,0.4-0.2,0.5l-0.1,0.4c0.4,0.5,0.5,1.1,0.6,1.8c0.1,0.5,0.3,1,0.7,1.4c0.2,0.1,0.3,0.4,0.2,0.6
		s0,0.5,0.1,0.8c0.1,0.7,0.1,1.4-0.4,1.9c-0.1,0.1-0.1,0.3,0.1,0.4c0.1,0.1,0.2,0.3,0.2,0.5c-0.2,0.9-0.3,1.7,0,2.5
		c0.2,0.8,0.3,1.5,0.1,2.3c-0.1,0.4,0,0.7,0,1.1c-0.1,0.2-0.1,0.5-0.1,0.7c0.1,0.4,0.1,0.6,0.1,1s-0.1,0.7-0.4,1
		c-0.1,0.1-0.2,0.4-0.4,0.4c-0.4,0.1-0.5,0.5-0.4,0.9l-0.2,0.2c-0.3,0.1-0.5,0.1-0.8,0.1c-0.1,0-0.4-0.1-0.5-0.2
		c-0.5-0.4-1-0.5-1.7-0.4c-0.2,0.1-0.5,0.1-0.7,0.1c-0.5-0.1-0.9,0-1.2,0.4c-0.1,0.1-0.4,0.2-0.5,0.2c-1.1,0.1-2.2,0.6-3.2,0.4
		c-0.1,0-0.3,0-0.4,0.1c-0.6,0.3-1.4,0.2-2.1,0.4l-2,0.6c-0.3,0.1-0.6,0.1-0.9-0.1c-0.4-0.1-0.9-0.1-1.3,0c-0.6,0.2-1.1,0.4-1.7,0.3
		c-0.1,0-0.3-0.1-0.3-0.2c-0.1-0.1-0.1-0.4-0.1-0.6v-2.5c0.4-0.9-0.1-1.8,0-2.7c0-0.4-0.1-0.6,0.1-0.9c0.1-0.6,0.1-1.1-0.2-1.7
		c-0.1-0.1,0-0.4,0-0.6c0.1-0.3,0.1-0.6,0.2-0.9c0.4-1.1,0.4-2.2,0.2-3.4c-0.1-0.1-0.1-0.4-0.1-0.5c0.2-1.4,0.2-2.7-0.1-4
		c-0.2-0.9-0.1-1.7,0.4-2.4c0.5-0.6,0.6-1.4,1.1-2c0.1-0.1-0.1-0.4-0.3-0.4c-0.8-0.1-1.7-0.1-2.5-0.1s-1.8,0-2.7,0.1
		c-0.4,0-0.6,0.1-0.9,0.2c-0.5,0.1-0.7,0.6-0.5,1.1c0.1,0.4,0.4,0.8,0.6,1.1c0.1,0.3,0.3,0.6,0.1,0.9c-0.3,0.8-0.2,1.7,0.1,2.4
		c0.1,0.2,0.1,0.5,0.1,0.7c-0.1,0.8-0.1,1.4,0.3,2.1c0.1,0.2,0.1,0.5,0.1,0.7c-0.1,0.3-0.1,0.5,0.1,0.7c0.2,0.1,0.3,0.4,0.3,0.7
		c0.1,0.4,0.1,0.9-0.1,1.3c-0.4,1-0.3,2.1-0.2,3.1c0.1,0.6,0.3,1.2,0,1.9c0,0.1,0.1,0.4,0.1,0.6c0.1,0.2,0.2,0.5,0.1,0.7
		c-0.2,0.6-0.2,1.1-0.2,1.7s0,1.1-0.2,1.7c0.1,0.6-0.2,1.3-0.1,1.9c0.2,0.6-0.1,0.9-0.5,1.1l-0.1,0.2v0.1c0.5,0.5,0.4,1.2,0.6,1.8
		c0.1,0.3,0.1,0.6,0,0.9c-0.1,0.5-0.4,1-0.3,1.5c0.1,0.6-0.1,1.1,0.1,1.7c0.1,0.4,0.1,0.9-0.1,1.3c-0.1,0.3-0.2,0.5-0.1,0.8
		c0.2,0.5,0.1,0.9-0.1,1.5c-0.1,0.5-0.2,1.1,0,1.7c0.4,1,0.3,1.9,0.3,2.9c0,0.9-0.1,1.7-0.5,2.4c-0.1,0.4-0.2,0.7-0.3,1.1
		c-0.2,0.8-0.6,1.4-1.1,2l-0.9,0.7c-0.1,0.1-0.1,0.4,0,0.5C359.7,359.5,360,359.7,360.6,359.7z M349.3,316L349.3,316
		c-0.1-0.6,0.1-1,0.6-1.3l0.4,0.1c0.1,0.1,0.1,0.2,0,0.4c-0.1,0.2-0.4,0.4-0.6,0.6C349.6,315.9,349.5,316,349.3,316z M340.2,358.6
		c0.9,0.2,1.9,0.2,2.9,0c1.9-0.4,3.5-1.3,4.7-2.7c0.3-0.4,0.6-0.6,0.9-0.8c0.8-0.4,1.3-1.1,1.7-1.9c0.1-0.4,0.4-0.6,0.4-1.1
		c0-0.7,0.4-1.2,0.9-1.6s1.1-0.7,1.6-1.1c0.1-0.1,0.3-0.4,0.2-0.5s-0.2-0.3-0.4-0.3l-0.8-0.1c-0.3-0.1-0.6-0.1-0.9,0.1l-0.2,0.1
		c-0.2,0.1-0.5,0.1-0.7,0c-0.6-0.4-1.4-0.6-2.1-1.1c-0.5-0.4-1.3,0-1.5,0.6c-0.1,0.4-0.1,0.6-0.1,1c0.1,1-0.4,1.9-0.9,2.7
		c-0.4,0.7-1,1.4-1.8,1.7c-0.7,0.4-1.6,0.6-2.3,0.9c-0.1,0.1-0.3,0.1-0.4,0c-0.6-0.2-1.2-0.1-1.9-0.1s-1.3-0.3-1.9-0.4
		c-0.3-0.1-0.6-0.1-0.9-0.4c-0.3-0.4-0.7-0.5-1.1-0.7c-0.2-0.2-0.4-0.4-0.5-0.6c-0.1-0.1-0.2-0.4-0.3-0.5c-0.1-0.5-0.4-0.9-0.7-1.1
		c-0.5-0.3-0.8-0.7-1-1.2c-0.2-0.6-0.4-1.3-0.9-1.9c-0.1-0.1-0.1-0.4-0.1-0.6c-0.1-0.4-0.1-0.6-0.4-0.9s-0.4-0.6-0.5-1
		c-0.2-0.8-0.5-1.6-0.8-2.4c-0.2-0.6-0.4-1.2-0.1-1.9c0-0.2-0.1-0.4-0.3-0.5c-0.1-0.1-0.1-0.4-0.1-0.5c0.1-0.3,0.2-0.6,0.1-0.8
		c-0.4-0.7-0.2-1.5-0.3-2.4c0.1-0.9-0.1-1.9,0.3-2.8c0.1-0.1,0.1-0.2,0.1-0.4c0-0.6,0.1-1.1,0.1-1.7c-0.1-0.6,0.3-1.1,0.4-1.7v-0.6
		c0-0.4,0.1-0.7,0.2-1.1c0.2-1.1,0.4-2.2,0.9-3.3l0.1-1c0-0.1,0.1-0.4,0.2-0.5c0.4-0.4,0.5-0.7,0.6-1.2c0-0.3,0.2-0.6,0.5-0.7
		c0.4-0.2,0.6-0.6,0.6-0.9c0.1-0.5,0.3-0.9,0.6-1.1c0.4-0.4,0.8-0.6,1.1-1.1s0.8-0.8,1.2-1.1c0.3-0.3,0.4-0.5,0.5-0.9
		c0.4-1,1.3-1.4,2.3-1.5c0.8-0.1,1.5-0.2,2.2-0.5c0.7-0.2,1.4-0.3,2.1-0.3c0.9-0.1,1.8,0,2.6,0.6c0.3,0.3,0.6,0.4,1,0.6
		c0.4,0.2,0.8,0.5,0.9,0.9c0.2,0.7,0.6,0.9,1.3,1c0.2,0,0.3,0.4,0.1,0.6c-0.1,0.1-0.4,0.4-0.3,0.6c0.1,0.2,0.2,0.4,0.4,0.6
		c0.1,0.2,0.6,0.3,0.9,0.1c0.2-0.1,0.4-0.4,0.4-0.6c0.1-0.4,0.1-0.9,0-1.3c-0.1-0.3,0-0.5,0.2-0.7c0.1-0.1,0.2-0.3,0.2-0.5
		c0.1-0.4,0-0.8,0.1-1.1l0.2-1.3c0-0.1-0.1-0.3-0.2-0.3c-0.4-0.2-0.8-0.1-1.1-0.1c-0.5,0-1-0.1-1.4-0.4l-3.9-2.6
		c-0.3-0.2-0.6-0.4-1.1-0.2s-0.9,0.1-1.3-0.1c-0.4-0.1-0.8-0.1-1.1,0l-1.1,0.2c-1.5,0.1-2.9,0.6-3.9,1.7c-0.3,0.3-0.6,0.5-1,0.6
		c-0.4,0.1-0.6,0.4-0.9,0.6c-0.1,0.3-0.4,0.4-0.6,0.5c-0.6,0.1-1,0.6-1.3,1.1c-0.1,0.2-0.2,0.4-0.4,0.6c-0.7,0.6-1.1,1.6-1.4,2.4
		c-0.3,0.8-0.6,1.6-1,2.3c-0.9,1.7-1.6,3.3-2,5c-0.1,0.4-0.3,0.9-0.4,1.3l-0.6,2.4c-0.3,0.9-0.3,2-0.6,2.9c-0.1,0.4-0.2,0.8-0.4,1.1
		c0,0.2,0,0.4,0.1,0.6c0.2,0.6,0.2,1.1,0,1.7c-0.1,0.2-0.1,0.4-0.1,0.6c0.1,0.4,0.1,0.8,0,1.1c-0.1,0.9-0.1,1.9,0.1,2.9
		c0.2,0.6,0.2,1.3,0.3,1.9c0,0.5,0,1,0.1,1.5c0.5,2.1,0.9,4.2,1.9,6l0.1,0.2c0.1,0.6,0.6,1.1,0.9,1.7c0.7,1.1,1.5,2.2,2.4,3
		c0.6,0.6,1.1,1.2,1.8,1.8c0.5,0.5,1.1,0.9,1.8,1c0.4,0.1,0.8,0.1,1.1,0.4C337.3,358.2,338.8,358.3,340.2,358.6z M288.5,358.2
		c0.7,0.2,1.4,0.1,2.1-0.1c0.1-0.1,0.4-0.1,0.6,0c0.5,0.1,1-0.1,1.4-0.4s1-0.4,1.5-0.5c0.9-0.1,1.5-0.6,2.1-1.2
		c0.4-0.5,0.8-0.9,1.3-1.2c0.9-0.6,1.3-1.6,2-2.3c0.1-0.1,0.1-0.2,0.2-0.3c0.2-0.7,0.6-1.3,0.6-2.1c-0.1-0.2,0.1-0.5,0.1-0.7
		c0.2-1.1,0.7-2.1,0.8-3.2c0-0.1,0-0.3,0.1-0.4c0.5-0.6,0.4-1.2,0.2-1.9l-0.3-1.3c-0.1-0.5-0.2-1-0.4-1.5c-0.1-0.3-0.1-0.6-0.4-0.6
		s-0.4,0.2-0.5,0.4l-0.5,0.6h-0.2l-0.1-0.1c0.1-0.7,0.4-1.4,0.8-2.2c0.1-0.1,0.1-0.4,0.1-0.5c-0.4-0.6-0.7-1.1-0.9-1.7
		c-0.2-0.6-0.6-1.1-0.9-1.7c-0.5-0.9-1.1-1.6-1.9-2.2c-0.8-0.6-1.5-1.4-2.2-2.2c-0.4-0.5-0.9-0.9-1.5-1.1c-1-0.3-1.8-0.9-2.7-1.6
		c-0.9-0.7-1.7-1.6-2.7-2.2c-0.6-0.4-1.2-1-1.8-1.5c-0.7-0.6-1.4-1.4-2-2.1c-0.1-0.1-0.3-0.4-0.4-0.6c-0.2-0.6-0.4-1.2-0.4-1.9
		c-0.1-1-0.1-2.1,0.1-3.1l0.1-0.4c0.6-1.5,1.8-2.5,3.3-3.1c0.8-0.3,1.6-0.4,2.4-0.6c0.6-0.1,1.2-0.1,1.7,0.4
		c0.6,0.5,1.5,0.7,2.2,1.2c0.3,0.2,0.6,0.4,0.9,0.7c0.5,0.6,1,1.1,1.5,1.8c0.2,0.3,0.4,0.6,0.4,1l0.4,1.7c0.2,0.6,1,1.1,1.7,0.9
		c0.3,0,0.6-0.1,0.9-0.2c0.6-0.2,1-0.6,1.3-1.1c0.1-0.1,0.1-0.2-0.1-0.4c-0.2-0.2-0.6-0.2-0.9-0.2l-0.2-0.1l0.1-0.1
		c0.6-0.4,1.2-0.8,1.7-1.3c0.4-0.4,0.5-0.9,0.8-1.4l0.3-0.5l0.1-0.4c0.1-0.2,0.1-0.6-0.1-0.7L301,314c-0.5-0.4-1-0.6-1.7-0.5
		c-0.3,0.1-0.6,0-0.9-0.1c-0.4-0.4-1-0.6-1.4-1c-1.1-1.1-2.6-1.9-4.1-2.4c-0.5-0.1-0.9-0.4-1.4-0.6c-1.2-0.4-2.5-0.6-3.8-0.7
		c-0.8-0.1-1.5,0-2.2,0.4c-0.8,0.4-1.7,0.7-2.4,1.3c-0.3,0.3-0.6,0.5-0.9,0.6l-1.9,1.2c-0.1,0.1-0.2,0.1-0.4,0.3
		c-0.1,0.1-0.2,0.4-0.1,0.5c0.2,0.4,0.1,0.7,0.1,1.1c-0.1,0.4-0.4,0.6-0.8,0.8l-0.8,0.5c-0.3,0.2-0.4,0.5-0.5,0.8
		c0,0.2-0.1,0.4-0.1,0.6c0.1,0.6,0,1.3-0.1,1.9c-0.1,0.6,0,1.1,0.2,1.7l0.5,0.9c0.1,0.3,0.1,0.5-0.3,0.8c-0.1,0.1-0.1,0.4,0.1,0.4
		l0.5,0.1c0.2,0,0.4,0.2,0.2,0.4c-0.1,0.3-0.2,0.5,0.1,0.8c1.1,1.1,2.2,2.1,3.1,3.2c0.6,0.8,1.3,1.4,2.2,1.9l0.6,0.4
		c0.5,0.6,1.1,1,1.8,1.4c0.2,0.1,0.5,0.2,0.6,0.4c0.5,0.6,1.1,0.9,1.8,1.4c0.3,0.2,0.6,0.4,0.8,0.6c0.3,0.3,0.6,0.6,1.1,0.8
		c0.4,0.3,0.7,0.5,1,0.9l2.2,2.2c0.1,0.1,0.2,0.4,0.3,0.5c0.7,0.9,1,2.1,1.6,3.1c0.1,0.1,0.1,0.3,0.1,0.4c0.2,0.8,0.4,1.5,0.5,2.3
		c0.1,0.4,0.1,0.7,0.1,1.1c-0.1,1.4-0.4,2.9-0.5,4.4c-0.1,0.6-0.4,1.1-0.8,1.5c-0.4,0.5-0.7,1.1-1.1,1.6c-0.1,0.2-0.3,0.5-0.5,0.6
		c-0.6,0.4-1,0.8-1.4,1.4c-0.1,0.1-0.2,0.1-0.4,0.1c-0.9,0-1.8,0.3-2.7,0.4c-0.3,0.1-0.5,0.1-0.8,0.1c-0.5,0-1-0.1-1.4-0.4
		c-1.4-1.2-2.7-2.4-3.4-4.1l-0.4-0.9c-0.6-1-1.1-2.1-1.2-3.2v-1c-0.1-0.1-0.2-0.3-0.4-0.4c-0.2-0.2-0.5-0.3-0.9-0.1
		c-0.4,0.3-0.8,0.4-1.1,0.8c-0.2,0.4-0.6,0.6-0.9,0.6c-0.3,0.1-0.4,0.3-0.6,0.5l-0.6,1.2c-0.3,0.5-0.6,1-0.9,1.5
		c-0.2,0.4-0.1,0.7,0,1.1c0.1,0.4,0.4,0.6,0.9,0.4c0.3-0.1,0.6-0.1,0.7,0.1c0.7,0.7,1.4,1.5,1.9,2.4c0.4,0.8,1,1.4,1.7,2l0.9,0.8
		c0.9,0.8,1.7,1.4,2.9,1.6l0.7,0.2C287.1,358.1,287.8,358,288.5,358.2z M266.8,357.8h-3.4c-0.7,0-1.4,0-2.2,0.2
		c-0.4,0.1-0.9,0.1-1.3,0.1h-6c-0.6,0-1.3,0-1.9,0.2c-0.2,0.1-0.4,0.1-0.6,0.1c-0.4,0-0.6-0.1-0.9-0.1c-0.9,0.4-1.8,0.1-2.7,0.4
		c-0.4,0.2-0.9,0.2-1.4,0.2c-0.6-0.1-1.3,0-1.9,0.2s-1.1,0.2-1.7,0s-1.1-0.3-1.6-0.6c-0.1-0.1-0.2-0.2-0.1-0.4
		c0.2-0.4,0.4-0.7,0.6-1c0.4-0.6,0.6-1.1,0.7-1.8c0.2-1.1,0.5-2.4,0.9-3.5c0.1-0.5,0.3-1,0.1-1.5c0.2-0.8,0-1.5-0.1-2.3
		c0-0.2,0-0.5,0.1-0.7c0.2-0.6,0.2-1.3,0.1-1.9l-0.2-1.3c-0.1-0.4-0.1-0.9,0.1-1.4c0.1-0.4,0.1-0.9,0-1.3c-0.1-0.1-0.1-0.4,0-0.6
		c0.2-0.5,0-0.9-0.4-1.2c-0.1-0.1-0.2-0.3-0.4-0.4c-0.1-0.1-0.1-0.4,0.1-0.5l0.3-0.2c0.3-0.2,0.3-0.3,0.1-0.6
		c-0.1-0.1-0.2-0.4-0.1-0.5c0.1-0.4,0.3-0.9,0.4-1.3c0.1-0.3,0.1-0.5,0.1-0.8c0.1-0.4,0-0.9-0.4-1.2c-0.4-0.4-0.4-0.9-0.3-1.5
		c0.1-0.3,0.1-0.6,0-0.9c-0.1-0.5-0.1-1,0.4-1.4l0.1-0.4c-0.1-0.3-0.2-0.5-0.3-0.7c-0.1-0.2-0.1-0.4-0.1-0.6c0.2-0.4,0-0.9,0.1-1.3
		s0.1-0.8,0-1.1c-0.1-0.3,0.1-0.5,0.1-0.8c0.1-0.9,0.2-1.9-0.1-2.9c0-0.1-0.1-0.4,0-0.5c0.3-0.8,0.3-1.5,0-2.3
		c-0.1-0.2-0.1-0.5-0.1-0.7c0.2-0.5,0.2-0.9-0.1-1.3l-0.2-0.6c-0.1-0.3-0.1-0.6-0.1-0.9c0.4-0.7,0.3-1.5,0.1-2.2
		c-0.2-0.6-0.3-1.1-0.1-1.7c0.1-0.5,0.1-1,0-1.5l-0.6-2.7c-0.1-0.2,0.1-0.5,0.4-0.5s0.6-0.1,0.9-0.1c0.6,0,1.1,0,1.7-0.2
		c0.5-0.1,1-0.1,1.5-0.1c0.5,0,0.9,0.3,1,0.8l0.1,0.1c0.3,1.1,0.5,1-0.1,2.2c-0.2,0.4-0.2,0.7-0.1,1.1c0.3,1.2,0.3,2.4-0.1,3.7
		c-0.1,0.2-0.1,0.5,0,0.7c0.1,0.4,0.3,0.7,0.2,1.1c-0.1,0.6-0.3,1.1-0.3,1.7c0,0.5,0.4,0.9,0.3,1.4c0,0.5,0,0.9-0.2,1.4
		c-0.1,0.3-0.1,0.6,0,0.9c0.1,0.4,0.1,0.7,0,1.1c-0.2,0.5-0.2,1.1-0.1,1.7c0.2,0.6,0.1,1.1,0.2,1.7c0.1,0.6,0.1,1.3-0.1,1.9
		c-0.1,0.3,0,0.5,0.1,0.8c0.1,0.4,0.1,0.9,0.1,1.3c-0.1,0.4,0,0.6-0.1,0.9c-0.1,0.5-0.1,0.9,0.1,1.4c0.1,0.1,0.1,0.4,0.1,0.6
		c-0.3,0.6-0.1,1.2,0.1,1.9c-0.2,0.5-0.1,1,0,1.5l-0.1,0.7c-0.1,0.1-0.1,0.3-0.1,0.4c0.1,0.4,0.1,0.9,0.1,1.3c0,0.4-0.1,0.7-0.2,1.1
		c0.1,0.5,0.1,1-0.1,1.5v0.4c-0.1,0.8,0.4,1.5,0,2.3v4.5c0,0.6,0,1.3,0.1,1.9c0.1,0.2,0,0.4,0,0.6c-0.1,0.4-0.1,0.6-0.1,1
		c0,0.6,0.4,1.1,1.1,1.1h3.9c0.3,0,0.6,0,0.9,0.1c0.6,0.3,1.3,0,1.9,0.1c0.6,0.1,1.1,0.1,1.7,0.1s1.1,0,1.5,0.2
		c0.4,0.1,0.6,0.1,1-0.1c0.1,0,0.4-0.1,0.5-0.1c0.6,0.4,1.3,0.1,1.9-0.1c0.4,0,0.6,0.1,1,0.1c0.5,0.1,1.7-0.1,2-0.4
		c0.4-0.3,0.9-0.5,1.4-0.6l0.9-0.4c0.5-0.2,0.9-0.5,0.9-1.1c0-0.1,0.1-0.4,0.3-0.5c0.3-0.3,0.7-0.5,1.1-0.7c0.1-0.1,0.4,0.1,0.4,0.2
		c0.1,0.2,0.1,0.4,0.1,0.6c-0.1,0.4-0.2,0.6-0.3,0.9c0,0.2,0,0.4,0.1,0.6l0.1,0.1c0.9,0.7,1.2,1.7,1.4,2.7c0.1,0.6,0,1-0.4,1.4
		c-0.1,0.1-0.2,0.1-0.3,0.2c-0.3,0.3-0.6,0.4-1.1,0.4C268.4,357.8,267.6,357.8,266.8,357.8z M229,359.2c0.3,0,0.5,0,0.8-0.1
		c0.2-0.1,0.4-0.2,0.6-0.4c0.5-0.4,1.1-0.4,1.7-0.2c0.4,0.1,0.9,0.4,1.3,0.6c0.3,0.1,0.9-0.1,1.1-0.5v-0.4c-0.3-0.4-0.6-0.8-0.9-1.2
		c-0.2-0.4-0.3-0.7-0.1-1.1l0.1-0.2c0.2-0.4,0.3-0.8,0.1-1.3c-0.3-0.6-0.2-1.2-0.1-1.9c0.1-0.4,0.4-0.8,0.2-1.1
		c-0.2-0.4,0.1-0.9-0.1-1.3c-0.3-0.7-0.3-1.4-0.3-2.2v-6c0-0.9,0.1-1.8-0.2-2.7v-0.4c0.4-0.9,0.1-1.9,0.2-2.9c0.1-0.6,0-1.1,0.1-1.7
		c0.2-0.6,0.2-1.4,0.2-2.1l0.1-8.3c0.1-2.1,0-4.2,0-6.4c-0.1-0.6-0.1-1.1-0.1-1.7c-0.4-0.6-0.1-1.1,0.1-1.7c0.1-0.4,0.3-0.6,0.6-0.8
		c0.4-0.2,0.6-0.6,0.9-1c0.1-0.4-0.1-0.9-0.4-0.9c-0.2-0.1-0.4-0.1-0.6-0.1c-0.4,0-0.8,0.1-1.1-0.1c-0.5-0.1-0.9-0.1-1.3,0.1
		c-1.1,0.5-2.1,0.4-3.2,0l-0.6-0.2c-0.1-0.1-0.4,0-0.5,0.1c-0.5,0.4-0.6,0.6-0.3,1.1c0.2,0.5,0.4,0.9,0.8,1.4
		c0.2,0.4,0.4,0.8,0.4,1.3c0.1,0.7,0.3,1.5,0.1,2.3c0.3,0.6,0.3,1.2,0.3,1.9v8.5c-0.1,0.4-0.1,0.7-0.1,1.1c-0.1,0.3,0,0.6,0.1,0.9
		c0.1,0.5,0.1,1-0.1,1.5c-0.2,0.4-0.2,0.9,0,1.3c0.2,0.6,0.2,1.1,0,1.7c-0.3,0.8-0.2,1.7-0.1,2.5c0.2,0.4,0.1,1,0.1,1.5
		c0.1,0.7,0.1,1.5-0.1,2.2c-0.1,0.3-0.1,0.6,0.1,0.8c0.3,0.4,0.4,0.7,0.3,1.2c-0.1,0.4-0.1,0.9-0.1,1.4c0,0.8,0,1.7-0.3,2.4
		c-0.1,0.3,0,0.6,0,1c0,0.2,0.1,0.5,0,0.7c-0.1,0.6,0.1,1.1,0.1,1.7c-0.1,0.3,0.1,0.6,0.1,0.9c0,0.4,0.1,0.8,0,1.1
		c-0.2,0.7-0.3,1.4-0.3,2.1c0,1,0.1,1.9-0.3,2.9v1.6C228.2,358.8,228.6,359.1,229,359.2z M190.4,311.4l2.4-0.1h2.2
		c0.2,0.1,0.4,0.1,0.5,0.3c0.1,0.1,0,0.4-0.1,0.5c-0.6,0.4-1,1-1.4,1.6c-0.2,0.3-0.2,0.8,0.1,1.1c0.6,0.6,0.9,1.2,1.4,1.9
		c0.1,0.2,0.2,0.4,0.2,0.7c-0.1,0.2-0.1,0.4,0,0.6c0.1,0.4,0.3,0.7,0.4,1.1c0.1,0.4-0.1,0.9-0.1,1.4c0,0.2,0,0.5,0.2,0.6l0.4,0.4
		c0.3,0.4,0.4,0.6,0.4,1.1c0,0.6,0.4,1.2,0.1,1.9c0.4,1.2,0.4,2.4,1.1,3.4c0.4,0.5,0.5,1.1,0.5,1.7c0,0.5,0,1,0.4,1.4
		c0.1,0.1,0.1,0.2,0.1,0.4c0,1.1,0.4,2.2,0.7,3.4l0.2,1.1c0.6,0.7,0.6,1.7,0.8,2.5c0.1,0.6,0.4,1.4,0.6,2c0.2,0.4,0.4,0.8,0.4,1.3
		c0.1,0.4,0.2,0.7,0.4,1.1c0.2,0.4,0.4,0.8,0.4,1.3c0.1,0.5,0.2,1,0.5,1.4l1,2.1c0.3,0.5,0.4,1.1,0.5,1.7l0.1,0.1l0.1-0.1
		c0.2-0.3,0.4-0.6,0.6-1c0.4-0.4,0.6-0.9,0.7-1.5c0-0.2,0.1-0.4,0.2-0.6c0.1-0.3,0.3-0.6,0.3-0.9c0.1-0.8,0.3-1.5,0.6-2.2
		c0.4-1.2,0.6-2.4,0.9-3.6c0.2-1.2,0.6-2.5,0.9-3.7c0-0.3,0.1-0.5,0.1-0.7c-0.1-0.9,0.3-1.8,0.5-2.7c0.1-0.6,0.3-1.1,0.4-1.7
		c0-0.3,0.1-0.6,0.2-0.9l0.9-2.7c0.1-0.2,0.1-0.2,0.4-0.1h0.1l0.1-0.1c-0.1-0.2-0.1-0.5-0.1-0.7c-0.1-0.4-0.2-0.9,0-1.4
		c0.4-1.3,0.8-2.7,1.1-4.1c0.1-0.5,0.3-0.9,0.5-1.4c0.2-0.7,0.5-1.4,0.6-2.2c0-0.2,0.1-0.5,0.2-0.7c0.3-0.6,0.5-1.2,0.5-1.9
		c0.1-0.4,0.2-0.9,0.3-1.3l-0.1-0.4l-0.5-0.2l-0.9-0.4c-0.4-0.2-0.4-0.8,0-1c0.3-0.2,0.6-0.4,1.1-0.4h1.5c1-0.1,1.9,0,2.9-0.3
		c0.8-0.2,1.6,0,2.2,0.4c0.1,0.1,0.3,0.4,0.1,0.5l-0.1,0.1c-1.1,0.6-1.7,1.5-1.5,2.9c0.1,0.9-0.4,1.6-0.7,2.4l-0.6,1.2
		c-0.1,0.3-0.1,0.5-0.1,0.8c0.1,0.3,0.1,0.6,0,0.9l-0.4,0.9c-0.4,0.6-0.4,1.3-0.6,2c-0.9,2.4-1.4,5-2.4,7.5
		c-0.6,1.6-0.9,3.2-1.3,4.8c-0.4,1.4-0.9,2.9-1.4,4.2c-0.2,0.6-0.6,1.3-1,1.9c-0.2,0.4-0.4,0.6-0.2,1.1c0,0.1,0,0.3-0.1,0.4
		c-0.3,0.4-0.4,0.8-0.5,1.2l-0.2,0.8c-0.4,0.6-0.4,1.3-0.6,2c-0.3,0.8-0.4,1.6,0,2.4c0.1,0.4,0.1,0.9,0,1.3
		c-0.2,0.6-0.2,1.3-0.4,1.9s-0.2,1-0.1,1.5s0.1,1.1-0.1,1.6l-0.3,1.1c-0.1,0.2-0.1,0.4,0,0.6l0.3,1.7l-0.2,0.3
		c-0.2,0.1-0.5,0.2-0.7,0.1l-1.9-0.6c-0.4-0.1-0.9-0.1-1.3,0.2l-0.3,0.2c-0.4,0.2-0.9,0.2-1.4,0.2c-0.2-0.1-0.5-0.3-0.5-0.5
		l-0.1-0.9c-0.1-0.4,0-0.7-0.1-1c-0.2-0.6-0.3-1.2-0.2-1.9c0-0.6-0.1-1.1-0.3-1.7c-0.4-1.1-0.9-2.2-1-3.3c-0.5-1.1-0.9-2.2-1.2-3.2
		c-0.3-0.7-0.6-1.4-0.7-2.2c-0.1-0.1-0.2-0.3-0.3-0.5c-0.1-0.1-0.2-0.3-0.2-0.5c0-1.2-0.4-2.6-0.9-3.7l-0.6-1.2
		c-0.4-0.6-0.6-1.2-0.7-1.9c-0.1-0.3-0.2-0.5-0.4-0.7c-0.1-0.1-0.2-0.4-0.1-0.5c0.1-0.5,0-1-0.1-1.5c-0.1-0.9-0.6-1.7-0.5-2.7
		c0-0.1-0.1-0.4-0.2-0.5c-0.4-0.8-0.5-1.7-1.1-2.4c-0.1-0.1,0-0.4,0-0.6c-0.1-0.2,0-0.4-0.1-0.6c-0.4-0.4-0.4-0.9-0.5-1.4
		c0-0.3-0.1-0.6-0.2-0.9c-0.4-0.9-0.8-1.9-1-2.9c-0.1-0.7-0.4-1.4-0.8-2c-0.4-0.6-0.6-1.3-0.6-1.9c-0.1-0.9-0.5-1.7-0.5-2.7
		l-0.4-1.1c-0.1-0.2-0.4-0.4-0.6-0.4c-0.4-0.1-0.9-0.2-1.4-0.4c-0.4-0.1-0.7-0.1-1.1,0.1c-0.4,0.1-0.6,0-0.8-0.4
		c-0.1-0.3-0.1-0.4,0.1-0.5l1.3-0.4c0.1-0.1,0.3-0.1,0.4-0.1C188.6,311.7,189.6,311.7,190.4,311.4z M155.6,349.3
		c-0.1,0.1-0.4-0.1-0.4-0.4l-0.1-0.2c0.1-0.4,0.1-0.7,0.1-1.1c0-0.3-0.1-0.6-0.1-0.9c0-0.4,0-0.8,0.1-1.1c0.3-0.6,0.3-1.1,0.1-1.7
		l0.2-0.3c0.1,0,0.3,0.1,0.3,0.2c0.1,0.6,0,1.3,0.1,1.9c0.1,0.6-0.1,1.1,0.1,1.7c0.1,0.1,0,0.3,0,0.4c-0.1,0.4-0.2,0.9-0.4,1.3
		L155.6,349.3z M155.6,341.5c-0.1,0.1-0.2,0-0.3-0.1s-0.1-0.4-0.1-0.5v-1.1c-0.1-0.7,0.2-1.6,0.1-2.4l0.1-0.1
		c0.1-0.1,0.3-0.1,0.4-0.1c0.1,0,0.4,0.1,0.4,0.1c-0.1,0.6,0.1,1.1-0.1,1.7c0.4,0.9,0,1.7-0.3,2.4L155.6,341.5z M155.4,333.4
		c-0.2,0.1-0.4,0-0.4-0.1v-0.1c0.1-0.2,0.4-0.3,0.6-0.2l0.1,0.1C155.7,333.2,155.6,333.4,155.4,333.4z M155.9,331
		c-0.1-0.1-0.3-0.2-0.4-0.4c-0.1-0.1-0.1-0.2,0-0.4h0.2c0.2,0.1,0.4,0.2,0.5,0.5v0.1C156.2,331,156,331.1,155.9,331z M155.7,328.8
		c-0.1,0-0.3,0-0.4-0.1c-0.2-0.5,0.1-1.2,0.6-1.5l0.3,0.2c0,0.4,0,0.7-0.1,1.1C156,328.7,155.8,328.7,155.7,328.8z M157.5,359.3
		c0.4-0.1,0.9-0.2,1.3-0.2h5.8c1-0.1,2.1,0,3.1,0s1.9-0.1,2.9,0c1.1,0.1,2.1-0.4,3.1-0.1c0.1,0.1,0.3,0,0.4-0.1
		c0.5-0.1,1-0.1,1.6-0.1h2.9c0.2,0,0.5-0.1,0.7-0.1c0.4-0.1,0.6-0.6,0.5-0.9c-0.1-0.2-0.2-0.4-0.4-0.5c-0.4-0.7-0.4-1.4,0-2.1
		l0.7-1.1c0.1-0.3,0.1-0.5-0.1-0.7c-0.1-0.2-0.3-0.2-0.5-0.2c-0.5,0.2-0.9,0.4-1.4,0.5c-0.6,0.1-1.1,0.4-1.7,0.5
		c-1.1,0.4-2.2,0.6-3.2,0.4c-0.4-0.1-0.6,0-0.9,0.1c-0.4,0.2-0.9,0.2-1.4,0.2h-2.3c-0.7,0-1.4,0-2.1,0.3c-0.3,0.1-0.6,0.1-1,0.1
		c-0.4,0.1-0.9,0.1-1.3,0.1h-1.4c-0.1,0-0.2,0-0.3-0.1c-0.3-0.3-0.7-0.4-1.1-0.4s-0.6-0.1-0.9-0.4c-0.4-0.4-0.9-0.5-1.1-1.1
		c-0.1-0.4-0.1-0.9-0.1-1.3c0-0.2-0.1-0.4-0.1-0.6c0-0.2-0.1-0.4,0-0.6c0.2-1,0.1-1.9,0.1-2.9v-8.5c0-0.8,0.1-1.5,0.4-2.3
		c0.2-0.9,0.7-1.4,1.7-1.5c0.5-0.2,1.1-0.3,1.7-0.1c0.4,0.1,0.6,0,0.9-0.4c0.2-0.4,0.5-0.5,0.9-0.3c0.3,0.1,0.4,0,0.5-0.4l0.3-0.2
		c0.9-0.1,1.9-0.1,2.9,0.1c0.4,0.1,0.7,0.2,1.1,0.6c0.4,0.2,0.8,0.4,1.3,0.4h2.3c1,0,1.9-0.1,2.9,0.2c0.1,0.1,0.5-0.3,0.5-0.5
		c0.1-0.4,0-0.6-0.1-0.9c-0.2-0.6-0.1-1.1,0.2-1.7c0.1-0.4,0.4-0.6,0.7-0.9c0.3-0.2,0.3-0.4,0.1-0.4c-0.1-0.1-0.1-0.2-0.3-0.2
		c-0.9-0.2-1.7-0.2-2.5,0.1c-0.5,0.1-1.1,0.4-1.7,0.5c-0.9,0.1-1.7,0.4-2.6,0.6c-0.3,0.1-0.5,0.1-0.8,0.1c-0.9,0.1-1.9-0.1-2.9-0.1
		l-0.3-0.1c-0.4-0.3-0.7-0.4-1.1-0.3c-0.2-0.1-0.4-0.3-0.6-0.3c-0.3-0.1-0.5,0.1-0.8-0.1c-0.3-0.1-0.6-0.1-0.9-0.3
		c-0.4-0.1-0.7,0-1.1,0.2c-0.8,0.4-1.4,0.3-2-0.4c-0.1-0.2-0.3-0.4-0.3-0.7c-0.1-0.5-0.1-1-0.1-1.5c0.1-1.4,0-2.7-0.3-4
		c-0.1-0.3-0.1-0.6,0-0.8c0.1-0.7,0-1.4-0.1-2.1v-2.7c0-0.4,0-0.9-0.1-1.4c-0.4-0.6-0.1-1.2-0.2-1.9c-0.1-0.3,0.2-0.6,0.5-0.7
		c0.9-0.2,1.7-0.6,2.7-0.6c2.2,0.1,4.2,0,6.4,0.1c0.4,0,0.8,0.1,1.1,0.1c0.4,0.1,0.9,0.1,1.3,0.1c0.6,0.1,1.3,0,1.9,0.1h2.4
		c0.3-0.1,0.6-0.4,0.6-0.6c0.1-0.4,0.1-0.8,0.1-1.1c-0.1-0.6,0.1-1.1,0.5-1.7c0.1-0.2,0.3-0.6,0.4-0.9c0-0.1-0.1-0.2-0.2-0.3
		c-0.4-0.1-0.9-0.1-1.3,0.1c-0.5,0.1-1,0.2-1.5,0.2h-2.4c-0.6,0.1-1.4,0-2.1,0.1c-0.8-0.1-1.5-0.1-2.3,0.1c-0.1,0.1-0.4-0.1-0.6-0.1
		c-0.2-0.1-0.5-0.1-0.7-0.1c-0.5,0.3-1,0.1-1.5,0.1c-0.9-0.1-1.8-0.1-2.7-0.1c-0.6,0-1.4,0-2.1-0.3c-0.6-0.1-1.1-0.1-1.7,0
		c-0.9,0.3-1.8,0.3-2.7,0.3c-1,0-1.9,0-2.9,0.4h-0.6c-0.4,0-0.7,0.3-1,0.6c-0.1,0.1-0.4,0.1-0.5-0.1c-0.4-0.3-0.5-0.3-0.8,0
		l-0.1,0.1c-0.1,0.2-0.1,0.4,0,0.6c0.2,0.3,0.5,0.6,0.9,0.6c0.2,0.1,0.5,0.1,0.7,0.1l0.6,0.2l2.2,1.8c0.4,0.4,0.5,0.8,0.6,1.2
		c0.1,0.4,0.1,0.8,0.1,1.1v7l0.3,1.9c0,0.4-0.1,0.6-0.3,0.9c-0.3,0.3-0.3,0.6-0.1,1.1c0.1,0.2,0.1,0.5,0.1,0.7
		c-0.3,0.5,0,1.1-0.1,1.5c-0.1,0.6,0.1,1.1,0.1,1.5c0.1,0.4,0.1,0.6,0.1,1v1.9c0,0.7,0.3,1.5,0.1,2.3c0.4,0.7,0.2,1.5,0.3,2.2
		c0,1-0.1,1.9,0.1,2.9c0,0.1,0,0.4-0.1,0.6c0,0.3-0.1,0.6-0.1,0.9v5c0,0.3,0,0.6,0.1,0.9c0.1,0.4,0,0.8-0.1,1.1l0.1,0.2
		c-0.1,0.2,0.1,0.3,0.4,0.1c0.6-0.2,0.6-0.1,0.7,0.4v0.1c0,0.6,0,1.1-0.5,1.4c-0.1,0.1-0.2,0.3-0.2,0.5c-0.1,0.8-0.5,1.4-0.9,2.2
		c-0.3,0.6-0.8,1-1.4,1.2l-2.2,0.9c-0.1,0.1-0.1,0.4-0.1,0.5c0.2,0.2,0.4,0.4,0.7,0.4c0.6,0,1.4,0,2.1,0.1c0.5,0,1-0.1,1.5,0.1
		C155.9,359.6,156.7,359.5,157.5,359.3z M126.4,351.8c-0.2,0-0.5-0.2-0.6-0.4c-0.2-0.4-0.1-0.7-0.2-1.1c-0.4-1.1-0.3-2.2-0.3-3.3
		l-0.1-2.9c0-0.4,0-0.8-0.1-1.1c-0.3-0.8-0.3-1.5-0.3-2.3c0-0.7,0-1.4-0.3-2.1c-0.1-0.4-0.1-0.8-0.1-1.1c0.1-1.4-0.4-2.8-0.6-4.2
		c-0.2-0.6-0.2-1.2-0.2-1.9c0-0.9,0-1.8-0.1-2.7c0-0.7,0-1.4-0.2-2.1c-0.1-0.4-0.1-0.9,0-1.4c0.4-1,0.3-2,0.1-3c0-0.4-0.1-0.6,0-1
		c0.1-0.1-0.1-0.4-0.2-0.4c-0.1-0.1-0.2-0.3-0.1-0.4c0.4-0.4,0.4-0.9,0.4-1.4c0-0.3,0-0.6-0.1-0.9c-0.2-0.7-0.2-1.4-0.1-2.1
		c0.1-0.4,0.1-0.6,0.1-0.9c0-0.2,0.2-0.4,0.4-0.4c0.5-0.2,1.1-0.1,1.6-0.1h0.9c0.4,0,0.8,0.1,1.1,0.2c1,0.3,1.9,0.6,2.9,0.9
		c0.6,0.2,1.1,0.5,1.7,0.8c0.2,0.1,0.4,0.4,0.6,0.5c0.3,0.4,0.5,0.6,0.9,0.7c0.3,0.1,0.6,0.3,0.8,0.5c0.4,0.6,0.8,1.1,1,1.7
		c0.2,0.5,0.5,1,0.9,1.4l0.4,0.6c0.1,0.2,0.1,0.4,0.2,0.6c0.8,0.9,1,2.2,1.5,3.3c0.1,0.2,0.2,0.5,0.2,0.7c0,0.8,0,1.6,0.3,2.3
		c0.1,0.4,0.1,0.8,0.1,1.1c0,1-0.1,2.1,0.2,3.1c0.1,0.2-0.1,0.5-0.1,0.7c0.1,1.1-0.2,2-0.5,3c-0.1,0.5-0.4,0.9-0.4,1.5
		c-0.1,0.2-0.1,0.5-0.3,0.7c-0.4,0.5-0.6,1.3-1.1,1.7l-0.6,1.7c-0.1,0.2,0.1,0.4,0.2,0.5c0.1,0.1,0,0.4-0.1,0.4
		c-0.4,0-0.9,0.1-1.1,0.6c-0.1,0.1-0.2,0.2-0.3,0.3c-0.6,0.1-0.9,0.6-1.3,1.1s-0.8,0.9-1.2,1.3c-0.5,1.1-1.7,1.8-2.3,2.8
		c-0.1,0.1-0.1,0.2-0.3,0.3c-1.1,0.7-2.2,1.7-3.4,2.2L126.4,351.8z M118.4,358.6c1.2,0.1,2.3-0.2,3.4-0.5c0.6-0.1,1.1-0.3,1.7-0.3
		c0.4,0.1,0.7-0.1,1.1-0.3c0.5-0.5,1.1-0.5,1.7-0.9c0.6-0.4,1.1-0.6,1.7-0.9l2.8-1.4c0.7-0.3,1.3-0.8,1.9-1.4
		c0.6-0.6,1.3-1.4,2.2-1.9c0.5-0.3,0.9-0.8,1.2-1.2c0.5-0.8,1.1-1.7,1.7-2.4c0.6-0.7,1.1-1.5,1.6-2.4c0.3-0.6,0.6-1.1,0.9-1.7
		c0.4-0.6,0.5-1.3,1-1.9c0.7-0.9,1.1-1.8,1-3c0-0.2,0.1-0.5,0.2-0.7c0.4-0.5,0.5-1,0.2-1.6c-0.1-0.1,0-0.4,0.1-0.6
		c0.1-0.6,0.2-1.1,0.4-1.7c0.1-0.5,0.2-0.9,0.2-1.4c0-0.9,0-1.7-0.1-2.5c0-0.4,0-0.8-0.1-1.1c-0.1-0.5-0.1-1-0.2-1.5
		c0-0.4,0-0.8-0.1-1.1c-0.4-1.7-1.1-3.3-2-4.8c-0.2-0.4-0.4-0.7-0.6-1.1c-0.4-1.3-1.2-2.3-2.1-3.3c-1.1-0.8-2-1.9-3.1-2.9
		c-0.2-0.1-0.4-0.3-0.6-0.4c-0.4-0.1-0.7-0.3-1-0.6c-0.6-0.6-1.4-0.9-2.2-1.1c-0.9-0.1-1.7-0.4-2.7-0.7c-1.2-0.4-2.4-0.7-3.7-0.8
		c-0.3,0-0.6-0.1-0.9-0.2c-1.1-0.5-2.2-0.6-3.4-0.6c-0.6,0.1-1.1,0-1.6,0v0.1h-2.9c-0.4,0-0.7,0-1,0.1c-0.7,0.3-1.5,0.3-2.3,0.3
		c-0.2,0-0.5,0.1-0.7,0.1c-0.2,0-0.4,0.1-0.5,0.3c-0.1,0.1-0.1,0.4,0,0.5l0.4,0.4c0.6,0.6,1.2,0.9,1.9,1.2c1.3,0.4,2.5,1.1,3.5,2.1
		c0.8,0.7,1.4,1.5,1.2,2.7v7.3c0,0.5,0,1.1,0.1,1.6c0.2,0.5,0.2,1.1,0.2,1.7c0,1.6,0.1,3.2,0.1,4.8c0,0.4-0.1,0.9,0.1,1.4
		c0.3,0.9,0.3,1.7,0.3,2.7c0,0.4,0,0.9,0.1,1.4c0.1,0.5,0.2,1.1,0.2,1.7c0.1,0.4,0.1,0.8,0.2,1.1c0.1,0.4,0.1,0.6,0,0.9
		c-0.1,0.2-0.1,0.4,0,0.6c0.1,0.5,0.1,1.1,0.3,1.5c0.1,0.6,0.2,1.1,0,1.7c-0.1,0.4-0.1,0.8,0.1,1.1c0.2,0.4,0.2,0.7,0.1,1.1
		c-0.1,0.2,0,0.4,0.1,0.6c0.3,0.4,0.4,0.8,0.4,1.2v1.8c0.1,0.8-0.1,1.5-0.4,2.2c-0.1,0.4-0.4,0.7-0.6,0.9c-0.8,0.5-1.5,1-2.3,1.4
		c-0.9,0.4-1.7,0.9-2.4,1.5l-0.1,0.1l0.1,0.1c0.4,0.1,0.9,0.1,1.4,0.3C117.1,358.5,117.8,358.5,118.4,358.6z"/>
</g>
</svg>
