<?xml version="1.0" encoding="utf-8"?>
<!-- Generator: Adobe Illustrator 25.2.1, SVG Export Plug-In . SVG Version: 6.00 Build 0)  -->
<svg version="1.1" id="_x33_0" xmlns="http://www.w3.org/2000/svg" xmlns:xlink="http://www.w3.org/1999/xlink" x="0px" y="0px"
	 viewBox="0 0 64 64" style="enable-background:new 0 0 64 64;" xml:space="preserve">
<style type="text/css">
	.st0{fill:#FFFFFF;}
	.st1{fill:#FF0000;}
</style>
<path class="st0" d="M24,32.9c-0.8-0.4-1.5-1-2.1-1.8c-0.6-0.9-0.9-1.9-0.9-3v-4.4c0-2,0.9-4,2.5-5.2c1.2-0.9,2.7-1.5,4.2-1.5h8.6
	c1.5,0,3,0.5,4.2,1.5c1.6,1.3,2.5,3.2,2.5,5.2v4.4c0,1.1-0.3,2.1-0.9,3c-0.5,0.8-1.2,1.4-2.1,1.8l-1,0.5v3.4c0,1.6-0.9,3.1-2.3,3.8
	c-0.6,0.3-1.2,0.4-1.9,0.4h-5.5c-0.7,0-1.3-0.2-1.9-0.4c-1.4-0.7-2.3-2.2-2.3-3.8v-3.4L24,32.9z"/>
<g>
	<path class="st1" d="M26.4,29c0.6,0,1.2-0.2,1.7-0.5l1.7-1.1C30.5,26.9,31,26,31,25s-0.5-1.9-1.3-2.4l-1.7-1.1
		C27.6,21.2,27,21,26.4,21H26c-1.7,0-3,1.3-3,3v0.4l0.3,0.3c0.2,0.2,0.2,0.4,0,0.6L23,25.6V26c0,1.7,1.3,3,3,3H26.4z M25,26.3
		c0.5-0.8,0.5-1.8,0-2.6c0.1-0.4,0.5-0.7,1-0.7h0.4c0.2,0,0.4,0.1,0.6,0.2l1.7,1.1c0.2,0.2,0.4,0.4,0.4,0.7s-0.1,0.6-0.4,0.7
		l-1.7,1.1c-0.2,0.1-0.4,0.2-0.6,0.2H26C25.5,27,25.2,26.7,25,26.3z"/>
	<path class="st1" d="M34.3,27.4l1.7,1.1c0.5,0.3,1.1,0.5,1.7,0.5H38c1.7,0,3-1.3,3-3v-0.4l-0.3-0.3c-0.2-0.2-0.2-0.4,0-0.6l0.3-0.3
		V24c0-1.7-1.3-3-3-3h-0.4c-0.6,0-1.2,0.2-1.7,0.5l-1.7,1.1C33.5,23.1,33,24,33,25S33.5,26.9,34.3,27.4z M35.4,24.3l1.7-1.1
		c0.2-0.1,0.4-0.2,0.6-0.2H38c0.5,0,0.8,0.3,1,0.7c-0.5,0.8-0.5,1.8,0,2.6c-0.1,0.4-0.5,0.7-1,0.7h-0.4c-0.2,0-0.4-0.1-0.6-0.2
		l-1.7-1.1C35.1,25.6,35,25.3,35,25S35.1,24.4,35.4,24.3z"/>
	<path class="st1" d="M55.5,53.3c2.9-1.9,5.2-4.5,6.7-7.6l1.6-3.3L61.8,43c0,0-1.9,0.5-4,0.8c1.5-2.7,2.2-5.8,2.2-8.9
		c0-2-0.3-4-1-5.9l-2.6-7.9L56,25.9c-0.6,7.3-4.5,13.9-10.6,17.9l-0.7,0.5l-0.6-3.6l5.1-6.2c1.1-1.4,1.8-3.1,1.8-4.9
		c0-1.2-0.3-2.4-0.8-3.5l-1.7-3.3c2.9-3.4,4.5-7.7,4.5-12.2c0-1.9-0.4-3.7-1.3-5.5C50.4,2.6,47.8,1,45,1c-0.3,0-0.7,0.2-0.9,0.5
		s-0.2,0.7,0,1l1.1,2.1C45.7,5.7,46,6.9,46,8.1c0,1.9-0.7,3.7-1.9,5.1l-3.7-6.7C39.9,5.6,38.9,5,37.9,5c-0.9,0-1.7,0.4-2.3,1.1
		c-1.4,1.9-3.5,3.1-5.8,3.3c-3.4,0.4-6.7,1.7-9.3,3.9l-0.3,0.2c-1.4-1.4-2.2-3.4-2.2-5.5c0-1.2,0.3-2.5,0.8-3.5l1.1-2.1
		c0.2-0.3,0.1-0.7,0-1S19.3,1,19,1c-2.8,0-5.4,1.6-6.7,4.2C11.4,6.9,11,8.7,11,10.6c0,4.5,1.6,8.8,4.5,12.2l-1.7,3.3
		c-0.5,1.1-0.8,2.3-0.8,3.5c0,1.8,0.6,3.5,1.8,4.9l5.1,6.2l-0.6,3.6l-0.7-0.5C12.5,39.8,8.6,33.2,8,25.9l-0.4-4.9L5,28.9
		c-0.6,1.9-1,3.9-1,6c0,3.1,0.8,6.2,2.2,8.9c-2.1-0.3-4-0.7-4-0.8l-2.1-0.5l1.6,3.3c1.5,3.1,3.9,5.7,6.7,7.6
		c-1.1,1.4-2.5,2.6-4.2,3.4l-3.5,1.7l3,0.5c7.4,1.3,14.9,2,22.4,2H29c0,1.1,0.9,2,2,2h2c1.1,0,2-0.9,2-2h2.8c7.5,0,15-0.7,22.4-2
		l3-0.5l-3.5-1.7C58.1,55.9,56.6,54.7,55.5,53.3z M24,32.9c-0.8-0.4-1.5-1-2.1-1.8c-0.6-0.9-0.9-1.9-0.9-3v-4.4c0-2,0.9-4,2.5-5.2
		c1.2-0.9,2.7-1.5,4.2-1.5h8.6c1.5,0,3,0.5,4.2,1.5c1.6,1.3,2.5,3.2,2.5,5.2v4.4c0,1.1-0.3,2.1-0.9,3c-0.5,0.8-1.2,1.4-2.1,1.8
		l-1,0.5v3.4c0,1.6-0.9,3.1-2.3,3.8c-0.6,0.3-1.2,0.4-1.9,0.4h-5.5c-0.7,0-1.3-0.2-1.9-0.4c-1.4-0.7-2.3-2.2-2.3-3.8v-3.4L24,32.9z
		 M26.2,59c-6.4,0-12.9-0.5-19.2-1.5c1.2-0.9,2.4-1.9,3.3-3.1c2.1,1.1,4.5,1.8,6.9,2.1l4.8,0.5l0.2-2l-4.8-0.5
		c-2.6-0.3-5.1-1.2-7.4-2.6c-2.6-1.6-4.7-3.8-6.1-6.5c1.1,0.2,2.4,0.4,3.8,0.5c0.1,0.2,0.2,0.3,0.4,0.5c2.2,2.9,5.4,4.9,9,5.6l4.8,1
		l0.4-2l-4.8-1c-3.1-0.6-5.9-2.3-7.8-4.8C7.3,42.3,6,38.6,6,34.9c0-1.6,0.2-3.2,0.7-4.7c1.5,6.2,5.3,11.7,10.8,15.3l2,1.3l9.6,3.8
		V51h-2c-1.1,0-2,0.9-2,2v2c0,1.1,0.9,2,2,2h2v2H26.2z M33,61h-2v-6h-4v-2h4v-4h2v4l4,0v2h-4V61z M37.8,59H35v-2h2c1.1,0,2-0.9,2-2
		v-2c0-1.1-0.9-2-2-2h-2v-0.3l9.4-3.7l2.2-1.4c5.5-3.6,9.3-9.1,10.8-15.3c0.4,1.5,0.7,3.1,0.7,4.7c0,3.7-1.3,7.4-3.5,10.3
		c-1.9,2.5-4.7,4.2-7.8,4.8l-4.8,1l0.4,2l4.8-1c3.6-0.7,6.8-2.7,9-5.6c0.1-0.2,0.2-0.3,0.4-0.5c1.3-0.1,2.7-0.3,3.8-0.5
		c-1.4,2.7-3.5,4.9-6.1,6.5c-2.2,1.4-4.8,2.3-7.4,2.6L41.9,55l0.2,2l4.8-0.5c2.4-0.3,4.7-1,6.9-2.1c0.9,1.2,2,2.3,3.3,3.1
		C50.7,58.5,44.2,59,37.8,59z"/>
</g>
<rect x="27.7" y="33.3" class="st1" width="8.5" height="3.1"/>
<path d="M26.2,59c-6.4,0-12.9-0.5-19.2-1.5c1.2-0.9,2.4-1.9,3.3-3.1c2.1,1.1,4.5,1.8,6.9,2.1l4.8,0.5l0.2-2l-4.8-0.5
	c-2.6-0.3-5.1-1.2-7.4-2.6c-2.6-1.6-4.7-3.8-6.1-6.5c1.1,0.2,2.4,0.4,3.8,0.5c0.1,0.2,0.2,0.3,0.4,0.5c2.2,2.9,5.4,4.9,9,5.6l4.8,1
	l0.4-2l-4.8-1c-3.1-0.6-5.9-2.3-7.8-4.8C7.3,42.3,6,38.6,6,34.9c0-1.6,0.2-3.2,0.7-4.7c1.5,6.2,5.3,11.7,10.8,15.3l2,1.3l9.6,3.8V51
	h-2c-1.1,0-2,0.9-2,2v2c0,1.1,0.9,2,2,2h2v2H26.2z"/>
<path d="M35,58.8v-2h2c1.1,0,2-0.9,2-2v-2c0-1.1-0.9-2-2-2h-2v-0.3l9.6-3.8l2-1.3c5.5-3.6,9.3-9.1,10.8-15.3
	c0.4,1.5,0.7,3.1,0.7,4.7c0,3.7-1.3,7.4-3.5,10.3c-1.9,2.5-4.7,4.2-7.8,4.8l-4.8,1l0.4,2l4.8-1c3.6-0.7,6.8-2.7,9-5.6
	c0.1-0.2,0.2-0.3,0.4-0.5c1.3-0.1,2.7-0.3,3.8-0.5c-1.4,2.7-3.5,4.9-6.1,6.5c-2.2,1.4-4.8,2.3-7.4,2.6l-4.8,0.5l0.2,2l4.8-0.5
	c2.4-0.3,4.7-1,6.9-2.1c0.9,1.2,2,2.3,3.3,3.1c-6.4,1-12.8,1.5-19.2,1.5H35z"/>
<line class="st0" x1="33" y1="53" x2="37" y2="53"/>
<polygon points="33,61 31,61 31,55 27,55 27,53 31,53 31,49 33,49 33,53 37,53 37,55 33,55 "/>
</svg>
