<?xml version="1.0" encoding="utf-8"?>
<!-- Generator: Adobe Illustrator 25.4.1, SVG Export Plug-In . SVG Version: 6.00 Build 0)  -->
<svg version="1.1" id="Layer_1" xmlns="http://www.w3.org/2000/svg" xmlns:xlink="http://www.w3.org/1999/xlink" x="0px" y="0px"
	 viewBox="0 0 251.9 336.3" style="enable-background:new 0 0 251.9 336.3;" xml:space="preserve">
<style type="text/css">
	.st0{fill:#CB2026;}
	.st1{fill:#676767;}
	.st2{fill:#010101;}
	.st3{fill:#CC452B;}
	.st4{fill:#E54D31;}
	.st5{fill:#333333;stroke:#000000;stroke-width:9;stroke-miterlimit:10;}
	.st6{fill:#333333;}
	.st7{fill:#E6E6E5;}
	.st8{fill:#ED2024;}
</style>
<g>
	<g>
		<g>
			<path class="st0" d="M233.7,211.4l-3.7-1.5L199.1,46.8c-1.4-7.6-6.4-14-13.4-17.3L140,8.2c-9.6-4.5-20.8-4.5-30.4,0L63.9,29.5
				c-7,3.3-12,9.7-13.4,17.3L19.7,209.9l-3.7,1.5c-6.7,2.8-11.1,9.4-11.1,16.6v55.1h240v-55.1C244.8,220.8,240.4,214.2,233.7,211.4z
				"/>
		</g>
	</g>
	<g>
		<g>
			<g>
				<path class="st1" d="M69.9,244l54.9,21.1l54.9-21.1c11.1-7.4,19.4-18.3,23.6-30.9l17.1-52.3L199.1,47.8
					c-1.4-7.6-6.4-14-13.4-17.3L140,9.3c-9.6-4.5-20.8-4.5-30.4,0L63.9,30.6c-7,3.3-12,9.7-13.4,17.3L29.1,160.8L46.3,213
					C50.5,225.7,58.8,236.6,69.9,244z"/>
			</g>
		</g>
	</g>
	<g>
		<g>
			<g>
				<g>
					<path class="st0" d="M139.9,75.2l76.4,63.8l-17.5-92.3c-1.4-7.6-6.4-14-13.4-17.3L139.8,8.2c-9.6-4.5-20.8-4.5-30.4,0
						L63.7,29.5c-7,3.3-12,9.7-13.4,17.3L32.8,139l76.4-63.8C118.1,67.8,131,67.8,139.9,75.2z"/>
				</g>
			</g>
		</g>
	</g>
	<g>
		<g>
			<path class="st2" d="M235.5,207l-1.3-0.5L210.4,80.7l-9.4,1.8l7.7,40.7l-65.5-51.1c-10.7-8.8-26.1-8.8-36.8,0l-65.5,51.1
				l14.3-75.5c1.1-6.1,5.2-11.2,10.7-13.8l45.6-21.3c8.4-3.9,18-3.9,26.4,0l45.6,21.3c5.6,2.6,9.6,7.8,10.7,13.8l7,35.4l9-2
				l-6.6-35.1c-1.7-9.1-7.7-16.8-16.1-20.7L142.1,3.8c-11-5.1-23.5-5.1-34.5,0L61.9,25.1C53.5,29,47.5,36.8,45.8,45.9L15.4,206.4
				l-1.3,0.5C5.5,210.5,0,218.8,0,228.1v16.7h9.6v-16.7c0-5.4,3.2-10.2,8.2-12.2l21.8-9l2.2,6.6c4.5,13.6,13.6,25.5,25.5,33.4
				c0.3,0.2,0.6,0.4,0.9,0.5l54.9,21.1c0.6,0.2,1.1,0.3,1.7,0.3c0.6,0,1.2-0.1,1.7-0.3l54.9-21.1c0.3-0.1,0.6-0.3,0.9-0.5
				c11.9-8,21-19.8,25.5-33.4l2.2-6.6l21.8,9c5,2,8.2,6.8,8.2,12.2v50.3H9.6v-44H0v48.8c0,2.7,2.1,4.8,4.8,4.8h240
				c2.7,0,4.8-2.1,4.8-4.8v-55.1C249.6,218.8,244.1,210.5,235.5,207z M88.9,196.8l-2.6-14.2c-0.2-1.4-1.1-2.5-2.3-3.3l-18-10.8
				c-2.8-1.7-4.9-4.4-5.9-7.5l-9.9-33l62.1-48.5c0,0,0.1-0.1,0.1-0.1c7.1-5.9,17.5-5.9,24.6,0c0,0,0.1,0.1,0.1,0.1l62.1,48.5
				l-9.9,33c-0.9,3.2-3,5.8-5.9,7.5l-18,10.8c-1.2,0.7-2,1.9-2.3,3.3l-2.6,14.2 M159,206.4l-1.7,9.3c-1.7,9.1-9.6,15.8-18.9,15.8
				h-27.1c-9.3,0-17.2-6.6-18.9-15.8l-1.7-9.3l69.7-1.4h-1 M26,202.1l4.3-22.8l6.2,18.5L26,202.1z M177.4,238.6l-52.6,20.3
				l-52.6-20.3c-9.9-6.8-17.5-16.8-21.3-28.2L34,159.9l4.2-22.4l3.9-3.1l8.8,29.4c1.6,5.5,5.2,10.1,10.1,13l16.2,9.7l5.6,31
				c2.5,13.7,14.4,23.6,28.3,23.6h27.1c13.9,0,25.8-9.9,28.3-23.6l5.6-31l16.2-9.7c4.9-2.9,8.5-7.5,10.1-13l8.8-29.4l3.9,3.1
				l4.2,22.4l-16.8,50.5C194.9,221.9,187.4,231.8,177.4,238.6z M219.3,179.3l4.3,22.8l-10.5-4.3L219.3,179.3z"/>
		</g>
	</g>
	<g>
		<g>
			<path class="st3" d="M60.3,176.1h-3.7c-11.7,0-21.7-8.5-23.7-20.1l-6.3-37.5h8.4c13.9,0,25.2,11.3,25.2,25.2V176.1z"/>
		</g>
	</g>
	<g>
		<g>
			<path class="st3" d="M185.1,176.1h3.7c11.7,0,21.7-8.5,23.7-20.1l6.3-37.5h-8.4c-13.9,0-25.2,11.3-25.2,25.2V176.1z"/>
		</g>
	</g>
	<g>
		<g>
			<path class="st4" d="M189.9,149.1c0,48.7-30.1,98.6-67.2,98.6c-37.1,0-67.2-49.9-67.2-98.6s30.1-83,67.2-83
				C159.8,66.1,189.9,100.4,189.9,149.1z"/>
		</g>
	</g>
	<g>
		<g>
			<g>
				<path class="st5" d="M110.4,96.7l3.8,3.8c4.7,4.7,12.3,4.7,17,0l3.8-3.8c4-4,10.4-4.7,15.1-1.5l28.4,6.4
					c-12.1-22-30.9-40.5-54.1-40.5c-23.9,0-46.5,19.3-58.4,42.3l29.3-8.2C100.1,92,106.4,92.6,110.4,96.7z"/>
			</g>
		</g>
	</g>
	<g>
		<g>
			<path class="st6" d="M74.7,132.1l33.6,19.2l-12.6,8.4c-7.4,4.9-17.5,0.4-18.6-8.5L74.7,132.1z"/>
		</g>
	</g>
	<g>
		<g>
			<path class="st6" d="M170.7,132.1l-33.6,19.2l12.6,8.4c7.4,4.9,17.5,0.4,18.6-8.5L170.7,132.1z"/>
		</g>
	</g>
	<g>
		<g>
			<path class="st3" d="M186.3,102.6l3.6-46.5L158.5,91c-5.7,6.3-3.2,16.3,4.7,19.3l7,2.6C177.6,115.7,185.7,110.6,186.3,102.6z"/>
		</g>
	</g>
	<g>
		<g>
			<path class="st3" d="M59.1,102.6l-3.6-46.5L86.9,91c5.7,6.3,3.2,16.3-4.7,19.3l-7,2.6C67.8,115.7,59.7,110.6,59.1,102.6z"/>
		</g>
	</g>
	<g>
		<g>
			<polygon class="st7" points="79.5,200.1 74.7,233.7 103.5,209.7 			"/>
		</g>
	</g>
	<g>
		<g>
			<polygon class="st7" points="165.9,200.1 170.7,233.7 141.9,209.7 			"/>
		</g>
	</g>
	<g>
		<g>
			<path class="st2" d="M169.6,249.3l-6.7-15.7c0,0,0.1-0.1,0.1-0.1l4.7,3.9c0.9,0.7,2,1.1,3.1,1.1c0.8,0,1.6-0.2,2.3-0.6
				c1.7-1,2.7-2.9,2.4-4.9l-1.8-12.8c7.8-11.6,13.6-25.1,17.2-39.4c13.2-0.9,24.2-10.7,26.4-24l6.3-37.5c0.2-1.4-0.2-2.8-1.1-3.9
				c-0.9-1.1-2.3-1.7-3.7-1.7h-8.4c-7.1,0-13.9,2.5-19.2,6.9c-0.8-3.2-1.8-6.3-3-9.3c1.7-2.4,2.7-5.3,2.9-8.3l3.6-46.5
				c0.2-2-1-4-2.9-4.8c-1.9-0.8-4.1-0.3-5.5,1.2l-21.6,24C155.4,94,137.6,99,122.4,99c-15.5,0-32-11-41.7-22.1l-21.6-24
				c-1.4-1.5-3.6-2-5.5-1.2c-1.9,0.8-3.1,2.7-2.9,4.8l3.6,46.5c0.2,3,1.3,5.9,2.9,8.3c-1.1,3.1-2.1,6.2-3,9.4
				c-5.3-4.4-12.1-6.9-19.2-6.9h-8.4c-1.4,0-2.8,0.6-3.7,1.7c-0.9,1.1-1.3,2.5-1.1,3.9l6.8,38.8l9.5-1.6l-5.9-33.2h2.7
				c6.7,0,13,3.4,16.8,8.8c-0.8,5.5-1.2,11.2-1.2,17c0,7.3,0.6,14.6,1.8,21.8c-7.6-1.6-13.5-7.7-14.9-15.6l-9.5,1.6
				c2.2,13.3,13.2,23.1,26.4,24c3.5,14.3,9.4,27.8,17.2,39.4L69.9,233c-0.3,2,0.7,3.9,2.4,4.9c0.7,0.4,1.5,0.6,2.3,0.6
				c1.1,0,2.2-0.4,3.1-1.1l4.7-3.9c0,0,0.1,0.1,0.1,0.1l-6.7,15.7 M167,258.6 M78.4,258.6 M193.5,132.2c3.8-5.6,10-8.8,16.8-8.8h2.7
				l-5.3,32c-1.3,7.9-7.3,14-14.9,15.6c1.2-7.2,1.8-14.5,1.8-21.8C194.7,143.3,194.3,137.7,193.5,132.2z M85.2,251.8l4.9-11.4
				c10.1,8,21.2,12.1,32.6,12.1c11.4,0,22.5-4.1,32.6-12.1l4.9,11.4 M151.2,211.2l10.9-4.3l2.2,15.2L151.2,211.2z M155.6,227.4
				c-12.6,12.8-24.7,15.6-32.9,15.6c-14,0-25.2-7.9-32.9-15.6l14.9-12.4l16.8,4.2c0.4,0.1,0.8,0.1,1.2,0.1s0.8,0,1.2-0.1l16.8-4.2
				L155.6,227.4z M81.2,222l2.2-15.2l10.9,4.3L81.2,222z M162,94.2l22-24.4l-2.5,32.4c-0.2,2.3-1.4,4.3-3.3,5.5
				c-1.9,1.2-4.3,1.5-6.4,0.7l-7-2.6c-2.3-0.8-3.9-2.7-4.5-5C159.8,98.4,160.4,96,162,94.2z M92.8,91.1c-0.6-1.2-1.4-2.3-2.3-3.3
				l-3.4-3.7 M158.3,84.1l-3.4,3.7c-0.9,1-1.7,2.1-2.3,3.3c-6.6-4.3-15.5-3.4-21.1,2.2l-3.8,3.8c-2.8,2.8-7.4,2.8-10.2,0 M83.4,94.2
				c1.6,1.8,2.2,4.2,1.6,6.5c-0.6,2.3-2.2,4.2-4.5,5l-7,2.6c-2.1,0.8-4.5,0.6-6.4-0.7c-1.9-1.2-3.1-3.2-3.3-5.5l-2.5-32.4L83.4,94.2
				z M77.1,196c-1.3,0.7-2.1,2-2.3,3.5l-0.8,5.6c-8.7-16.7-13.6-36.8-13.6-55.9c0-11.3,1.7-21.9,4.9-31.7c1.9,0.7,3.8,1,5.8,1
				c2,0,4-0.4,5.9-1.1l7-2.6c5.2-2,9.1-6.3,10.4-11.7c0.1-0.6,0.2-1.1,0.3-1.7l3.3-2.2c2.8-1.9,6.7-1.5,9.1,0.9l3.8,3.8
				c3.3,3.3,7.6,4.9,11.9,4.9c4.3,0,8.6-1.6,11.9-4.9l3.8-3.8c2.4-2.4,6.2-2.8,9.1-0.9l3.3,2.2c0.1,0.6,0.2,1.1,0.3,1.7
				c1.3,5.4,5.2,9.8,10.4,11.7l7,2.6c1.9,0.7,3.9,1.1,5.9,1.1c2,0,3.9-0.4,5.8-1c3.3,9.8,4.9,20.4,4.9,31.7c0,19.2-5,39.2-13.6,55.9
				l-0.8-5.6c-0.2-1.5-1.1-2.7-2.3-3.5c-1.3-0.7-2.8-0.8-4.2-0.3l-23.7,9.5l-17.7,4.4l-17.7-4.4l-23.7-9.5
				C79.9,195.1,78.4,195.2,77.1,196z"/>
		</g>
		<g>
			<path class="st2" d="M89,166.5c3.3,0,6.5-1,9.3-2.8l12.6-8.4c1.4-0.9,2.2-2.5,2.1-4.2c-0.1-1.7-1-3.2-2.4-4l-33.6-19.2
				c-1.6-0.9-3.5-0.8-5,0.2c-1.5,1-2.3,2.8-2.1,4.6l2.4,19.1c0.7,5.8,4.3,10.8,9.7,13.2C84.3,166,86.6,166.5,89,166.5z"/>
		</g>
		<g>
			<path class="st2" d="M134.4,155.3l12.6,8.4c2.8,1.9,6,2.8,9.3,2.8c2.4,0,4.8-0.5,7-1.5c5.3-2.4,9-7.4,9.7-13.2l2.4-19.1
				c0.2-1.8-0.6-3.6-2.1-4.6c-1.5-1-3.5-1.1-5-0.2l-33.6,19.2c-1.4,0.8-2.4,2.3-2.4,4C132.2,152.8,133,154.3,134.4,155.3z"/>
		</g>
		<g>
			<rect x="108.3" y="176.1" class="st2" width="9.6" height="9.6"/>
		</g>
		<g>
			<rect x="127.5" y="176.1" class="st2" width="9.6" height="9.6"/>
		</g>
	</g>
	<path class="st6" d="M127.7,99.6c3.4-0.3,6.8-0.9,10.2-1.7c8.8-2.2,18.2-6.1,22-14.4c0.7-1.4,1.1-3,0.7-4.5
		c-0.6-2.2-2.7-3.5-4.8-4.3c-7.1-2.8-15-2.6-22.5-1.7c-10.1,1.3-20.1,3.8-29.1,8.6c-3.4,1.8-9.9,4.6-6.1,9c3.1,3.5,8.8,5.6,13.1,7
		C116.5,99.3,122.1,100.1,127.7,99.6z"/>
	<path class="st2" d="M123,91.8c7.7-0.1,15.7,0.8,22.1,5c-2.6-0.6-5.5-0.3-7.8,1c-1.3,0.7-2.5,1.7-3.7,2.6c-3.2,2.3-7.3,4-11.2,3
		c-3.1-0.8-15.8-2.1-16.9-5.4C103.9,93.8,119.9,91.8,123,91.8z"/>
	<path class="st2" d="M127.4,89c3.3-0.9,2.5,2.2,6,2c6.5-0.3,20.4-0.1,26.1-3.3c0.8,1.7-0.9,3.4-2.4,4.4
		c-11.2,7.6-25.5,10.3-38.6,7.4c-4.4-1-8.8-2.6-13.2-1.8c-6.3,1.1-21.1-6-11.9-8.7c3.9-1.1-4.1-0.3,0,0
		C98.6,89.4,119.3,91.2,127.4,89z"/>
	<path class="st2" d="M122.4,84c4-0.1,29.3,4.4,30.7,6c0.7,0.9,1.5,1.9,1.4,3c-0.2,1.9-2.8,2.4-4.7,2.4c-16.3,0.1-33,1.1-49.3,0.2
		c-4.9-0.3-12.6-1.7-7-6.9C97.9,84.5,114.8,84.3,122.4,84z"/>
</g>
<g>
	<path class="st8" d="M239.9,335.8c0.7-0.2,1.4-0.2,2.1-0.1c0.1,0,0.2,0,0.4,0c0.7-0.2,1.5-0.1,2.2-0.1c0.2,0,0.5,0,0.7,0.1
		c0,0,0.1,0,0.2,0c0,0,0.1-0.1,0.2-0.2c0.1-0.2,0-0.5-0.1-0.7c-0.2-0.2-0.4-0.4-0.5-0.7c-0.2-0.4-0.3-0.9-0.3-1.4
		c0-0.7-0.1-1.5,0.1-2.2c0-0.1,0.1-0.3,0-0.5c-0.1-0.4-0.1-0.8-0.1-1.3l0-3.6c0-0.3,0-0.5,0-0.7c-0.2-0.5-0.2-1-0.2-1.5v-2
		c0-0.6,0-1.2-0.1-1.8c0.1-0.4-0.1-0.7,0-1.1c0.1-0.3,0-0.6,0-0.8c0-0.3,0.1-0.6,0.1-0.9c0-0.5,0-1-0.1-1.5
		c-0.1-0.2-0.1-0.6-0.1-0.8c0-1.1,0-2.1,0-3.2v-2.8c0-0.3,0-0.6,0-0.9c0-0.2,0.2-0.3,0.3-0.4c0.7-0.2,1.4-0.3,2.2-0.3h1.4
		c0.2,0,0.4,0,0.7,0c0.6,0.1,1.1,0.3,1.7,0.5c0.2,0.1,0.4,0.2,0.5,0.5c0,0.2,0.1,0.4,0.3,0.5c0,0.1,0.1,0.1,0.2,0
		c0.1-0.1,0.2-0.3,0.2-0.5c0-0.4,0-0.8,0-1.2c0-0.6-0.1-1.2-0.3-1.7c-0.1-0.3-0.3-0.4-0.6-0.4c-0.4,0-0.8,0-1.2-0.1
		c-0.6-0.2-1.1-0.2-1.7-0.2h-2.5c-0.4,0-0.7,0-1.1,0.1c-0.3,0.1-0.7,0.1-1.1,0c-0.3-0.1-0.5-0.2-0.7-0.1c-0.3,0.1-0.7,0-1,0
		c-0.3,0-0.5,0-0.7,0c-0.4,0.1-0.8,0.1-1.3,0.1H238c-0.2,0-0.5,0-0.7,0.1c-0.4,0.2-0.8,0.2-1.3,0.2h-4.1c-0.2,0-0.5,0.1-0.7,0.2
		c-0.1,0.1-0.3,0.2-0.3,0.4l0,3.1c0,0.2,0.1,0.4,0.3,0.6c0.1,0.1,0,0.2,0,0.3l-0.1,0.2c0,0.1,0.1,0.3,0.2,0.3c0.3,0,0.6-0.2,0.7-0.4
		c0.1-0.1,0.2-0.3,0.3-0.5c0.2-0.4,0.4-0.7,0.8-0.9c0.1,0,0.2-0.1,0.2-0.1c0.5-0.5,1.2-0.5,1.7-0.8c0.3-0.1,0.6,0.1,1,0.1
		c0.5,0,0.9,0,1.4-0.2c0.1,0,0.3-0.1,0.5-0.1h1.7c0.4,0,0.9,0.4,1,0.8c0.1,0.6,0.3,1.1,0.5,1.6c0,0.1,0,0.3,0,0.5
		c-0.3,0.8-0.1,1.6-0.1,2.4c0.3,0.7,0.2,1.4,0.2,2.1c0,0.4,0,0.7,0,1c0,0.3,0,0.6,0.1,0.8c0,0.3,0.1,0.7,0.1,1c0,0.3,0,0.6,0.1,0.8
		c0.1,0.5,0.1,1,0,1.5c-0.1,0.2-0.1,0.5,0,0.7c0.1,0.3,0.1,0.7,0.1,1v2.4c0,0.7,0,1.4,0.2,2l0,1c0,0.2,0.1,0.5,0.1,0.7
		c0,0.3-0.1,0.6-0.1,0.8v2.3c0,0.3,0,0.7,0.1,1c0,0.2,0.1,0.4,0.1,0.6c0,0.2,0,0.4-0.2,0.6c-0.4,0.4-0.7,0.9-0.9,1.5
		c-0.1,0.4-0.3,0.8-0.7,1.1l-0.3,0.2l-0.1,0.2v0.2L239.9,335.8z M218.6,335.4c0.5,0.1,0.9,0,1.4,0c0.1,0,0.2,0,0.4,0
		c0.3,0,0.7,0,0.9-0.2c0.3-0.2,0.7-0.2,1-0.3c0.6-0.1,1-0.4,1.4-0.8c0.2-0.3,0.5-0.6,0.8-0.8c0.6-0.4,0.8-1,1.3-1.5
		c0.1,0,0.1-0.1,0.1-0.2c0.1-0.5,0.4-0.8,0.4-1.4c0-0.1,0-0.3,0.1-0.5c0.1-0.7,0.5-1.4,0.5-2c0-0.1,0-0.2,0-0.2
		c0.3-0.4,0.3-0.8,0.1-1.2l-0.2-0.8c-0.1-0.3-0.1-0.7-0.2-1c0-0.2,0-0.4-0.2-0.4c-0.2,0-0.2,0.1-0.3,0.3l-0.3,0.4h-0.1l0-0.1
		c0.1-0.5,0.3-0.9,0.5-1.4c0.1-0.1,0.1-0.2,0-0.3c-0.2-0.4-0.5-0.7-0.6-1.1c-0.1-0.4-0.4-0.7-0.6-1.1c-0.3-0.6-0.7-1-1.2-1.4
		c-0.5-0.4-1-0.9-1.4-1.4c-0.2-0.3-0.6-0.6-1-0.7c-0.7-0.2-1.2-0.6-1.7-1c-0.6-0.5-1.1-1-1.7-1.4c-0.4-0.3-0.8-0.7-1.2-1
		c-0.5-0.4-0.9-0.9-1.3-1.4c-0.1-0.1-0.2-0.3-0.2-0.4c-0.1-0.4-0.3-0.8-0.3-1.2c0-0.7,0-1.4,0-2l0-0.2c0.4-1,1.2-1.6,2.1-2
		c0.5-0.2,1-0.3,1.6-0.4c0.4-0.1,0.8,0,1.1,0.2c0.4,0.3,1,0.5,1.4,0.8c0.2,0.1,0.4,0.3,0.6,0.5c0.3,0.4,0.7,0.7,1,1.2
		c0.1,0.2,0.2,0.4,0.3,0.7l0.3,1.1c0.1,0.4,0.7,0.7,1.1,0.6c0.2,0,0.4,0,0.6-0.1c0.4-0.1,0.7-0.4,0.8-0.7c0-0.1,0-0.1,0-0.2
		c-0.1-0.1-0.4-0.1-0.6-0.1l-0.1-0.1l0-0.1c0.4-0.2,0.8-0.5,1.1-0.8c0.2-0.3,0.3-0.6,0.5-0.9l0.2-0.3l0.1-0.2c0.1-0.1,0-0.4-0.1-0.5
		l-0.3-0.2c-0.3-0.2-0.7-0.4-1.1-0.3c-0.2,0-0.4,0-0.6-0.1c-0.3-0.2-0.7-0.4-0.9-0.7c-0.7-0.7-1.7-1.2-2.7-1.6
		c-0.3-0.1-0.6-0.2-0.9-0.4c-0.8-0.2-1.6-0.4-2.5-0.5c-0.5,0-1,0-1.4,0.2c-0.5,0.3-1.1,0.5-1.5,0.8c-0.2,0.2-0.4,0.3-0.6,0.4
		l-1.3,0.8c-0.1,0-0.1,0.1-0.2,0.2s-0.1,0.2,0,0.3c0.1,0.2,0.1,0.5,0,0.7c-0.1,0.2-0.3,0.4-0.5,0.5l-0.5,0.3
		c-0.2,0.1-0.3,0.3-0.3,0.5c0,0.1,0,0.3,0,0.4c0,0.4,0,0.8-0.1,1.3c-0.1,0.4,0,0.7,0.1,1.1l0.3,0.6c0.1,0.2,0,0.3-0.2,0.5
		c-0.1,0.1,0,0.2,0.1,0.3l0.3,0.1c0.1,0,0.2,0.1,0.1,0.3c-0.1,0.2-0.1,0.3,0,0.5c0.7,0.7,1.4,1.4,2,2.1c0.4,0.5,0.8,0.9,1.4,1.3
		l0.4,0.3c0.3,0.4,0.7,0.7,1.2,0.9c0.1,0.1,0.3,0.1,0.4,0.3c0.3,0.4,0.7,0.6,1.2,0.9c0.2,0.1,0.4,0.2,0.5,0.4
		c0.2,0.2,0.4,0.4,0.7,0.5c0.2,0.2,0.5,0.3,0.7,0.6l1.4,1.4c0.1,0.1,0.1,0.2,0.2,0.3c0.5,0.6,0.7,1.4,1,2c0,0.1,0,0.2,0,0.2
		c0.1,0.5,0.2,1,0.3,1.5c0,0.2,0,0.5,0,0.7c0,0.9-0.2,1.9-0.3,2.8c0,0.4-0.2,0.7-0.5,1c-0.3,0.3-0.5,0.7-0.7,1
		c-0.1,0.1-0.2,0.3-0.3,0.4c-0.4,0.2-0.7,0.5-0.9,0.9c0,0-0.1,0.1-0.2,0.1c-0.6,0-1.2,0.2-1.7,0.3c-0.2,0-0.3,0.1-0.5,0.1
		c-0.3,0-0.7,0-0.9-0.3c-0.9-0.8-1.7-1.6-2.2-2.7l-0.3-0.6c-0.4-0.7-0.7-1.4-0.8-2.1v-0.7c0-0.1-0.1-0.2-0.2-0.3
		c-0.1-0.1-0.3-0.2-0.6-0.1c-0.2,0.2-0.5,0.3-0.7,0.5c-0.1,0.2-0.4,0.4-0.6,0.4c-0.2,0.1-0.3,0.2-0.4,0.3l-0.4,0.8
		c-0.2,0.3-0.4,0.7-0.6,1c-0.1,0.2-0.1,0.5,0,0.7c0.1,0.2,0.3,0.4,0.6,0.3c0.2-0.1,0.4-0.1,0.5,0c0.5,0.5,0.9,1,1.3,1.6
		c0.3,0.5,0.7,0.9,1.1,1.3l0.6,0.5c0.6,0.5,1.1,0.9,1.9,1l0.5,0.1C217.7,335.3,218.1,335.3,218.6,335.4z M191.2,329.6
		c-0.1,0-0.2-0.1-0.2-0.2l0-0.1c0-0.2,0.1-0.5,0.1-0.7c0-0.2-0.1-0.4-0.1-0.6c0-0.2,0-0.5,0-0.7c0.2-0.4,0.2-0.7,0.1-1.1l0.1-0.2
		c0.1,0,0.2,0,0.2,0.1c0,0.4,0,0.8,0.1,1.3c0.1,0.4-0.1,0.7,0.1,1.1c0,0.1,0,0.2,0,0.3c0,0.3-0.1,0.6-0.2,0.8L191.2,329.6z
		 M191.2,324.6c-0.1,0-0.1,0-0.2-0.1c0-0.1-0.1-0.2-0.1-0.3v-0.7c-0.1-0.5,0.1-1,0.1-1.5l0-0.1c0.1,0,0.2-0.1,0.2-0.1
		c0.1,0,0.2,0.1,0.2,0.1c-0.1,0.4,0.1,0.7,0,1.1C191.8,323.5,191.5,324,191.2,324.6L191.2,324.6z M191.1,319.3c-0.1,0-0.3,0-0.3-0.1
		v-0.1c0.1-0.1,0.2-0.2,0.4-0.1l0,0.1C191.3,319.2,191.2,319.3,191.1,319.3z M191.4,317.7c-0.1,0-0.2-0.1-0.3-0.2c0-0.1,0-0.1,0-0.2
		h0.1c0.1,0,0.3,0.1,0.3,0.3v0.1C191.6,317.8,191.5,317.8,191.4,317.7z M191.3,316.3c-0.1,0-0.2,0-0.2-0.1c-0.1-0.3,0-0.8,0.4-1
		l0.2,0.1c0,0.2,0,0.5-0.1,0.7C191.5,316.2,191.4,316.3,191.3,316.3z M192.5,336.1c0.3-0.1,0.6-0.1,0.8-0.1h3.8c0.7,0,1.4,0,2,0
		s1.3,0,1.9,0c0.7,0,1.4-0.3,2-0.1c0.1,0,0.2,0,0.2,0c0.3-0.1,0.7-0.1,1-0.1h1.9c0.1,0,0.3,0,0.5-0.1c0.3,0,0.4-0.4,0.3-0.6
		c-0.1-0.1-0.1-0.2-0.2-0.3c-0.2-0.5-0.2-0.9,0-1.4l0.5-0.7c0.1-0.2,0.1-0.3,0-0.5c0-0.1-0.2-0.1-0.3-0.1c-0.3,0.1-0.6,0.2-0.9,0.3
		c-0.4,0.1-0.7,0.2-1.1,0.3c-0.7,0.2-1.4,0.4-2.1,0.2c-0.2,0-0.4,0-0.6,0.1c-0.3,0.1-0.6,0.1-0.9,0.1h-1.5c-0.5,0-0.9,0-1.4,0.2
		c-0.2,0-0.4,0-0.7,0c-0.3,0-0.6,0.1-0.8,0.1H196c0,0-0.1,0-0.2-0.1c-0.2-0.2-0.5-0.2-0.7-0.2s-0.4,0-0.6-0.2
		c-0.2-0.2-0.6-0.3-0.7-0.7c-0.1-0.3,0-0.6-0.1-0.8c0-0.1,0-0.3-0.1-0.4c0-0.1,0-0.3,0-0.4c0.1-0.7,0.1-1.3,0.1-1.9v-5.5
		c0-0.5,0.1-1,0.2-1.5c0.1-0.6,0.5-0.9,1.1-1c0.3-0.1,0.7-0.2,1.1-0.1c0.2,0.1,0.4,0,0.6-0.2c0.1-0.2,0.3-0.3,0.6-0.2
		c0.2,0.1,0.3,0,0.3-0.2l0.2-0.1c0.6,0,1.3-0.1,1.9,0c0.2,0,0.5,0.1,0.7,0.4c0.3,0.1,0.5,0.3,0.8,0.3h1.5c0.7,0,1.3,0,1.9,0.1
		c0.1,0,0.3-0.2,0.3-0.3c0-0.2,0-0.4-0.1-0.6c-0.1-0.4,0-0.7,0.1-1.1c0.1-0.2,0.2-0.4,0.5-0.6c0.2-0.1,0.2-0.2,0.1-0.3
		c0,0-0.1-0.1-0.2-0.1c-0.6-0.1-1.1-0.1-1.6,0c-0.3,0.1-0.7,0.3-1.1,0.3c-0.6,0-1.1,0.2-1.7,0.4c-0.2,0-0.3,0.1-0.5,0.1
		c-0.6,0.1-1.2,0-1.9-0.1l-0.2-0.1c-0.2-0.2-0.5-0.3-0.7-0.2c-0.1-0.1-0.3-0.2-0.4-0.2c-0.2,0-0.3,0-0.5,0c-0.2,0-0.4-0.1-0.6-0.2
		c-0.2-0.1-0.5,0-0.7,0.1c-0.5,0.3-0.9,0.2-1.3-0.3c-0.1-0.1-0.2-0.3-0.2-0.5c0-0.3,0-0.7,0-1c0-0.9,0-1.8-0.2-2.6
		c0-0.2,0-0.4,0-0.5c0.1-0.5,0-0.9,0-1.4V310c0-0.3,0-0.6,0-0.9c-0.2-0.4,0-0.8-0.1-1.2c0-0.2,0.1-0.4,0.3-0.5
		c0.6-0.1,1.1-0.4,1.7-0.4c1.4,0,2.7,0,4.1,0c0.2,0,0.5,0,0.7,0.1c0.3,0.1,0.6,0.1,0.8,0.1c0.4,0,0.8,0,1.3,0h1.5
		c0.2,0,0.4-0.2,0.4-0.4c0-0.3,0-0.5,0-0.7c0-0.4,0-0.7,0.3-1.1c0.1-0.1,0.2-0.4,0.2-0.6c0,0,0-0.1-0.1-0.2c-0.3,0-0.6,0-0.8,0.1
		c-0.3,0.1-0.7,0.1-1,0.1h-1.5c-0.4,0-0.9,0-1.4,0.1c-0.5,0-1-0.1-1.5,0c-0.1,0-0.2,0-0.4,0c-0.1,0-0.3-0.1-0.5,0
		c-0.3,0.2-0.7,0.1-1,0c-0.6-0.1-1.2-0.1-1.8-0.1c-0.4,0-0.9,0-1.4-0.2c-0.4-0.1-0.7-0.1-1.1,0c-0.6,0.2-1.2,0.2-1.7,0.2
		c-0.7,0-1.3,0-1.9,0.2h-0.4c-0.3,0-0.5,0.2-0.7,0.4c-0.1,0.1-0.2,0-0.3,0c-0.2-0.2-0.3-0.2-0.5,0l-0.1,0.1c0,0.1-0.1,0.3,0,0.4
		c0.1,0.2,0.3,0.4,0.6,0.4c0.1,0,0.3,0,0.5,0l0.4,0.1l1.4,1.2c0.2,0.2,0.3,0.5,0.4,0.8c0,0.2,0,0.5,0,0.7v4.5l0.2,1.2
		c0,0.3,0,0.4-0.2,0.6c-0.2,0.2-0.2,0.4-0.1,0.7c0.1,0.1,0.1,0.3,0,0.5c-0.2,0.3,0,0.7-0.1,1c-0.1,0.4,0,0.7,0.1,1
		c0,0.2,0,0.4,0,0.7v1.3c0,0.5,0.2,1,0.1,1.5c0.2,0.5,0.1,1,0.2,1.4c0,0.7-0.1,1.3,0.1,1.9c0,0.1,0,0.2,0,0.4c0,0.2,0,0.4,0,0.6v3.3
		c0,0.2,0,0.4,0,0.6c0.1,0.3,0,0.5,0,0.7l0,0.1c0,0.1,0.1,0.2,0.2,0.1c0.4-0.1,0.4-0.1,0.5,0.3v0.1c0,0.4,0,0.7-0.3,0.9
		c-0.1,0-0.1,0.2-0.1,0.3c-0.1,0.5-0.3,0.9-0.6,1.4c-0.2,0.4-0.5,0.7-0.9,0.8l-1.4,0.6c-0.1,0-0.1,0.2,0,0.3
		c0.1,0.1,0.3,0.2,0.5,0.2c0.4,0,0.9,0,1.4,0c0.3,0,0.7,0,1,0.1C191.4,336.3,191.9,336.3,192.5,336.1z M180.6,333.9l-0.2-0.1
		c-0.1-0.1,0.1-0.2,0.2-0.2c0.1,0,0.3,0.1,0.2,0.2C180.8,333.9,180.7,333.9,180.6,333.9z M164.4,333.9c-0.1,0-0.1-0.1-0.1-0.2
		c0-0.1,0.1-0.1,0.2-0.1c0.1,0,0.1,0.1,0.1,0.2C164.6,333.9,164.5,333.9,164.4,333.9z M165.9,327.7c0,0-0.1,0-0.1-0.1v-0.3
		c0-0.1,0.1-0.2,0.1-0.1l0.1,0.2L165.9,327.7L165.9,327.7z M180.6,309.7c-0.1,0-0.2-0.1-0.2-0.2l0-0.1c0-0.2,0.2-0.3,0.2-0.3
		c0,0.1,0,0.2,0.1,0.2l0,0.2C180.7,309.6,180.7,309.7,180.6,309.7z M163.5,336.3c0.2,0,0.3,0,0.5,0c0.3-0.1,0.7-0.1,1-0.1
		c1,0.1,2-0.2,3-0.3c0.3,0,0.6-0.4,0.6-0.7c0-0.1-0.1-0.2-0.3-0.2c-0.5-0.1-0.8-0.6-1.1-1c-0.2-0.4-0.3-0.8-0.2-1.2l0.1-0.6
		c0-0.2,0-0.3-0.1-0.5c-0.1-0.1-0.2-0.2-0.1-0.4c0.2-0.4,0.3-0.8,0.2-1.3c0-0.2,0-0.3,0.1-0.5l0.1-0.3c0-0.2,0-0.3-0.1-0.5l-0.1-0.2
		c-0.1-0.2-0.1-0.4,0-0.6c0.2-0.2,0.1-0.6,0.2-0.8c0-0.2,0-0.4,0-0.7c-0.1-0.2-0.1-0.5,0-0.7c0.1-0.2,0.1-0.5,0.1-0.7
		c0-0.5,0.2-1,0.4-1.4c0-0.1,0.1-0.2,0.2-0.3c0.2-0.1,0.5-0.2,0.7-0.2c0.1,0,0.2,0,0.3,0c0.4-0.2,0.9-0.3,1.4-0.2c0.2,0,0.5,0,0.7,0
		c0.5-0.2,1.1-0.2,1.6-0.2c0.3,0,0.5,0,0.7-0.1c0.2-0.1,0.5-0.1,0.7,0c0.2,0.1,0.5,0,0.7,0c0.5-0.2,0.9-0.2,1.3-0.6
		c0.1-0.1,0.2-0.1,0.2,0c0.2,0.2,0.5,0.3,0.8,0.2c0.4-0.1,0.7-0.1,1.1-0.2c0.2-0.1,0.4,0,0.6,0.1l0.5,0.6c0.2,0.2,0.3,0.5,0.2,0.8
		c0,0.1,0,0.2,0,0.4c0.1,0.5,0.1,0.9,0.1,1.4c0,0.4,0,0.7,0,1.1c0,0.4,0,0.7,0.1,1.1c0,0.2,0.1,0.4,0,0.7c-0.2,0.3-0.1,0.7,0,1
		c0.1,0.3,0.1,0.7-0.1,0.9l-0.1,0.2c-0.1,0.3-0.2,0.7,0.1,0.9c0.1,0.1,0.2,0.3,0.2,0.5l-0.1,0.5c-0.1,0.9-0.4,1.7-0.9,2.4
		c-0.1,0.2-0.3,0.4-0.4,0.7c-0.1,0.1,0,0.2,0.1,0.2c0.7,0,1.4,0,2.1,0h1.3c0.3,0,0.5,0,0.8,0l0.3,0c0.2,0,0.4-0.3,0.2-0.5
		c-0.3-0.5-0.6-1-0.9-1.5c-0.1-0.1-0.2-0.1-0.3,0c-0.1,0.1-0.2,0.4-0.4,0.5c-0.1,0-0.3,0-0.3-0.1c-0.1-0.2-0.1-0.5,0-0.7
		c0.2-0.2,0.4-0.5,0.4-0.8c0-0.2,0-0.5,0.1-0.7c0-0.3-0.1-0.7,0-1c-0.2-0.7-0.1-1.4-0.1-2.1c0-0.4,0-0.7-0.1-1c0-0.1,0-0.3,0-0.5
		c0.2-0.7,0.2-1.4,0-2.1c0-0.2-0.1-0.5,0-0.7c0.1-0.3,0.1-0.7,0-1c-0.1-0.4,0-0.7,0-1c0-0.1,0.1-0.2,0.2-0.3
		c0.1-0.1,0.2-0.2,0.2-0.3c0.1-0.2,0.1-0.3,0-0.5c-0.1-0.3-0.1-0.3,0.1-0.5c0.1-0.1,0.3-0.2,0.3-0.4c0-0.5,0-0.9-0.1-1.4
		c-0.1-0.3-0.3-0.7-0.2-1c0-0.3,0-0.5-0.1-0.7c-0.1-0.2-0.2-0.5-0.2-0.7c0,0-0.1-0.1-0.1-0.2c0-0.1,0.1-0.1,0.2-0.2
		c0.1,0,0.1-0.2,0-0.3c-0.2-0.2-0.2-0.2-0.3-0.7c0-0.2-0.1-0.4-0.3-0.6c-0.1-0.1-0.2-0.3-0.3-0.4v-0.1c0.2-0.1,0.3,0,0.5,0
		c0.1,0,0.1,0,0.2-0.1l-0.1-0.1l-0.3-0.2c-0.1-0.1-0.1-0.2-0.1-0.4c0-0.2,0.1-0.5,0-0.7l0.1-0.1c0.1-0.1,0.3-0.1,0.3-0.2
		c0.2-0.3,0.4-0.7,0.3-1.1l-0.1-0.2c-0.1,0-0.2,0-0.2,0c-0.1,0-0.2,0-0.2-0.1c0,0,0-0.1,0-0.2c0.1-0.1,0.2-0.1,0.3-0.1
		c0.1,0,0.2-0.1,0.2-0.2c0-0.1,0-0.2,0-0.2c0,0-0.1-0.1-0.2-0.2c-0.1-0.1-0.3-0.2-0.5-0.4c-0.2-0.2-0.2-0.4-0.1-0.6
		c0.4-0.5,0.7-1.1,1.2-1.5c0.1-0.1,0.2-0.3,0.3-0.4v-0.1c-0.3-0.2-0.6-0.4-0.9-0.6c0,0-0.1,0-0.2,0c-0.4,0.1-0.8,0.2-1.2,0.2
		c-0.2,0-0.5,0-0.7,0.1c-0.4,0.1-0.8,0.1-1.2,0.1c-0.3,0-0.7,0-1,0c-0.1,0-0.2,0-0.3,0.1l-0.7,0.6v0.1c0.4,0.2,0.8,0.5,1.2,0.6
		c0,0,0.1,0,0.2,0c0.1-0.1,0.2-0.2,0.3-0.2l0.2,0l0.1,0.2c0,0.1-0.1,0.2-0.1,0.3l-0.1,0.2c0.3,0.3,0.3,0.7,0.4,1.2
		c0,0.3,0.2,0.7,0.5,0.9c0.1,0.1,0.2,0.2,0.1,0.4c0,0.2,0,0.3,0,0.5c0.1,0.5,0,0.9-0.3,1.3c0,0.1,0,0.2,0,0.2
		c0.1,0.1,0.1,0.2,0.1,0.3c-0.1,0.6-0.2,1.1,0,1.6c0.1,0.5,0.2,1,0.1,1.5c-0.1,0.2,0,0.5,0,0.7c0,0.1,0,0.3,0,0.5
		c0,0.2,0.1,0.4,0.1,0.7c0,0.2-0.1,0.5-0.3,0.7c0,0.1-0.1,0.2-0.3,0.3c-0.2,0.1-0.3,0.3-0.3,0.6l-0.1,0.1c-0.2,0-0.3,0.1-0.5,0
		c-0.1,0-0.2-0.1-0.3-0.1c-0.3-0.3-0.7-0.3-1.1-0.3c-0.1,0-0.3,0.1-0.5,0.1c-0.3,0-0.6,0-0.8,0.2c-0.1,0.1-0.2,0.1-0.3,0.1
		c-0.7,0-1.4,0.4-2.1,0.3c-0.1,0-0.2,0-0.3,0c-0.4,0.2-0.9,0.1-1.4,0.3l-1.3,0.4c-0.2,0-0.4,0-0.6,0c-0.3-0.1-0.6-0.1-0.8,0
		c-0.4,0.1-0.7,0.3-1.1,0.2c-0.1,0-0.2,0-0.2-0.1c0-0.1,0-0.2,0-0.4v-1.6c0.2-0.6,0-1.2,0-1.7c0-0.2,0-0.4,0-0.6
		c0.1-0.4,0-0.7-0.1-1.1c0-0.1,0-0.2,0-0.4c0-0.2,0-0.4,0.1-0.6c0.2-0.7,0.2-1.4,0.1-2.2c0-0.1,0-0.2,0-0.3c0.1-0.9,0.1-1.8-0.1-2.6
		c-0.1-0.6,0-1.1,0.3-1.6c0.3-0.4,0.4-0.9,0.7-1.3c0-0.1,0-0.2-0.2-0.2c-0.5,0-1.1,0-1.6,0c-0.6,0-1.2,0-1.7,0c-0.2,0-0.4,0-0.6,0.1
		c-0.3,0.1-0.5,0.4-0.3,0.7c0.1,0.2,0.2,0.5,0.4,0.7c0.1,0.2,0.2,0.4,0.1,0.6c-0.2,0.5-0.1,1.1,0,1.6c0,0.1,0.1,0.3,0,0.5
		c-0.1,0.5,0,0.9,0.2,1.4c0.1,0.1,0.1,0.3,0,0.5c0,0.2,0,0.3,0.1,0.5c0.1,0.1,0.2,0.3,0.2,0.5c0,0.3,0,0.6,0,0.8
		c-0.2,0.7-0.2,1.4-0.1,2c0,0.4,0.2,0.8,0,1.2c0,0.1,0,0.2,0,0.4c0,0.1,0.1,0.3,0,0.5c-0.1,0.4-0.1,0.7-0.1,1.1c0,0.4,0,0.7-0.1,1.1
		c0,0.4-0.1,0.8,0,1.2c0.1,0.4,0,0.6-0.3,0.7l0,0.1v0.1c0.3,0.3,0.3,0.8,0.4,1.2c0.1,0.2,0.1,0.4,0,0.6c-0.1,0.3-0.3,0.7-0.2,1
		c0,0.4-0.1,0.7,0,1.1c0.1,0.2,0,0.6,0,0.8c-0.1,0.2-0.1,0.3,0,0.5c0.1,0.3,0.1,0.6,0,1c-0.1,0.3-0.1,0.7,0,1.1
		c0.2,0.7,0.2,1.3,0.2,1.9c0,0.6,0,1.1-0.3,1.6c-0.1,0.2-0.1,0.5-0.2,0.7c-0.1,0.5-0.4,0.9-0.7,1.3l-0.6,0.5c-0.1,0,0,0.3,0,0.3
		C162.9,336.2,163.1,336.3,163.5,336.3z M156.2,308L156.2,308c-0.1-0.4,0.1-0.7,0.4-0.8l0.2,0c0,0,0.1,0.1,0,0.2
		c-0.1,0.1-0.2,0.3-0.4,0.4C156.4,307.9,156.3,308,156.2,308z M150.3,335.6c0.6,0.1,1.3,0.1,1.9,0c1.2-0.3,2.3-0.8,3.1-1.8
		c0.2-0.2,0.4-0.4,0.6-0.5c0.5-0.3,0.8-0.7,1.1-1.2c0.1-0.2,0.2-0.4,0.2-0.7c0-0.5,0.2-0.8,0.6-1c0.4-0.2,0.7-0.5,1-0.7
		c0.1,0,0.2-0.2,0.1-0.3c0-0.1-0.1-0.2-0.3-0.2l-0.5-0.1c-0.2-0.1-0.4,0-0.6,0l-0.1,0c-0.1,0.1-0.3,0.1-0.5,0
		c-0.4-0.3-0.9-0.4-1.4-0.7c-0.3-0.2-0.8,0-1,0.4c0,0.2-0.1,0.4-0.1,0.7c0,0.7-0.3,1.2-0.6,1.7c-0.3,0.5-0.7,0.9-1.2,1.1
		c-0.5,0.2-1,0.4-1.5,0.6c-0.1,0-0.2,0-0.3,0c-0.4-0.1-0.8,0-1.2-0.1c-0.4,0-0.8-0.2-1.3-0.2c-0.2,0-0.4-0.1-0.6-0.3
		c-0.2-0.2-0.5-0.3-0.7-0.5c-0.1-0.1-0.2-0.2-0.3-0.4c-0.1-0.1-0.1-0.2-0.2-0.3c0-0.3-0.2-0.6-0.5-0.7c-0.3-0.2-0.5-0.5-0.7-0.8
		c-0.1-0.4-0.3-0.8-0.6-1.2c-0.1-0.1-0.1-0.2-0.1-0.4c0-0.2-0.1-0.4-0.2-0.6c-0.1-0.2-0.2-0.4-0.3-0.7c-0.1-0.5-0.3-1-0.5-1.5
		c-0.1-0.4-0.2-0.8-0.1-1.2c0-0.1-0.1-0.2-0.2-0.3c-0.1-0.1-0.1-0.2-0.1-0.3c0-0.2,0.1-0.4,0.1-0.5c-0.2-0.5-0.1-1-0.2-1.5
		c0-0.6,0-1.2,0.2-1.8c0,0,0-0.1,0-0.2c0-0.4,0-0.7,0-1.1c0-0.4,0.2-0.7,0.2-1.1v-0.4c0-0.2,0.1-0.5,0.1-0.7
		c0.1-0.7,0.3-1.4,0.6-2.1l0.1-0.7c0-0.1,0-0.2,0.1-0.3c0.2-0.2,0.3-0.5,0.4-0.8c0-0.2,0.1-0.4,0.3-0.5c0.2-0.1,0.4-0.4,0.4-0.6
		c0-0.3,0.2-0.6,0.4-0.7c0.3-0.2,0.5-0.4,0.7-0.7s0.5-0.5,0.8-0.7c0.2-0.2,0.3-0.3,0.3-0.6c0.3-0.7,0.8-0.9,1.5-1
		c0.5,0,1-0.1,1.4-0.3c0.5-0.1,0.9-0.2,1.4-0.2c0.6,0,1.2,0,1.7,0.4c0.2,0.2,0.4,0.2,0.7,0.4s0.5,0.3,0.6,0.6
		c0.1,0.5,0.4,0.6,0.8,0.7c0.1,0,0.2,0.2,0,0.4c-0.1,0.1-0.2,0.2-0.2,0.4c0,0.1,0.1,0.3,0.2,0.4c0.1,0.1,0.4,0.2,0.6,0.1
		c0.1-0.1,0.3-0.2,0.3-0.4c0.1-0.3,0.1-0.6,0-0.8c0-0.2,0-0.3,0.1-0.5c0.1-0.1,0.1-0.2,0.1-0.3c0-0.2,0-0.5,0-0.7l0.1-0.8
		c0-0.1-0.1-0.2-0.1-0.2c-0.2-0.1-0.5-0.1-0.7-0.1c-0.3,0-0.7-0.1-0.9-0.3l-2.5-1.7c-0.2-0.1-0.4-0.2-0.7-0.1
		c-0.3,0.1-0.6,0.1-0.8,0c-0.2-0.1-0.5-0.1-0.7,0l-0.7,0.1c-1,0.1-1.9,0.4-2.6,1.1c-0.2,0.2-0.4,0.3-0.7,0.4c-0.2,0-0.4,0.2-0.6,0.4
		c-0.1,0.2-0.2,0.3-0.4,0.3c-0.4,0.1-0.7,0.4-0.8,0.7c-0.1,0.1-0.1,0.3-0.3,0.4c-0.5,0.4-0.7,1-0.9,1.6c-0.2,0.5-0.4,1-0.7,1.5
		c-0.6,1.1-1,2.1-1.3,3.3c0,0.3-0.2,0.6-0.3,0.8l-0.4,1.6c-0.2,0.6-0.2,1.3-0.4,1.9c-0.1,0.2-0.1,0.5-0.2,0.7c0,0.1,0,0.3,0,0.4
		c0.1,0.4,0.1,0.7,0,1.1c0,0.1,0,0.3,0,0.4c0.1,0.3,0,0.5,0,0.7c0,0.6-0.1,1.3,0,1.9c0.1,0.4,0.1,0.8,0.2,1.3c0,0.3,0,0.7,0.1,1
		c0.3,1.4,0.6,2.7,1.3,3.9l0,0.1c0.1,0.4,0.4,0.7,0.6,1.1c0.5,0.7,1,1.4,1.6,2c0.4,0.4,0.7,0.8,1.2,1.2c0.3,0.3,0.7,0.6,1.2,0.7
		c0.2,0,0.5,0.1,0.7,0.2C148.4,335.4,149.3,335.5,150.3,335.6z M116.7,335.4c0.5,0.1,0.9,0,1.4,0c0.1,0,0.2,0,0.4,0
		c0.3,0,0.7,0,0.9-0.2c0.3-0.2,0.7-0.2,1-0.3c0.6-0.1,1-0.4,1.4-0.8c0.2-0.3,0.5-0.6,0.8-0.8c0.6-0.4,0.8-1,1.3-1.5
		c0.1,0,0.1-0.1,0.1-0.2c0.1-0.5,0.4-0.8,0.4-1.4c0-0.1,0-0.3,0.1-0.5c0.1-0.7,0.5-1.4,0.5-2c0-0.1,0-0.2,0-0.2
		c0.3-0.4,0.3-0.8,0.1-1.2l-0.2-0.8c-0.1-0.3-0.1-0.7-0.2-1c0-0.2,0-0.4-0.2-0.4c-0.2,0-0.2,0.1-0.3,0.3l-0.3,0.4h-0.1l0-0.1
		c0.1-0.5,0.3-0.9,0.5-1.4c0.1-0.1,0.1-0.2,0-0.3c-0.2-0.4-0.5-0.7-0.6-1.1c-0.1-0.4-0.4-0.7-0.6-1.1c-0.3-0.6-0.7-1-1.2-1.4
		c-0.5-0.4-1-0.9-1.4-1.4c-0.2-0.3-0.6-0.6-1-0.7c-0.7-0.2-1.2-0.6-1.7-1c-0.6-0.5-1.1-1-1.7-1.4c-0.4-0.3-0.8-0.7-1.2-1
		c-0.5-0.4-0.9-0.9-1.3-1.4c-0.1-0.1-0.2-0.3-0.2-0.4c-0.1-0.4-0.3-0.8-0.3-1.2c0-0.7,0-1.4,0-2l0-0.2c0.4-1,1.2-1.6,2.1-2
		c0.5-0.2,1-0.3,1.6-0.4c0.4-0.1,0.8,0,1.1,0.2c0.4,0.3,1,0.5,1.4,0.8c0.2,0.1,0.4,0.3,0.6,0.5c0.3,0.4,0.7,0.7,1,1.2
		c0.1,0.2,0.2,0.4,0.3,0.7l0.3,1.1c0.1,0.4,0.7,0.7,1.1,0.6c0.2,0,0.4,0,0.6-0.1c0.4-0.1,0.7-0.4,0.8-0.7c0-0.1,0-0.1,0-0.2
		c-0.1-0.1-0.4-0.1-0.6-0.1l-0.1-0.1l0-0.1c0.4-0.2,0.8-0.5,1.1-0.8c0.2-0.3,0.3-0.6,0.5-0.9l0.2-0.3l0.1-0.2c0.1-0.1,0-0.4-0.1-0.5
		l-0.3-0.2c-0.3-0.2-0.7-0.4-1.1-0.3c-0.2,0-0.4,0-0.6-0.1c-0.3-0.2-0.7-0.4-0.9-0.7c-0.7-0.7-1.7-1.2-2.7-1.6
		c-0.3-0.1-0.6-0.2-0.9-0.4c-0.8-0.2-1.6-0.4-2.5-0.5c-0.5,0-1,0-1.4,0.2c-0.5,0.3-1.1,0.5-1.5,0.8c-0.2,0.2-0.4,0.3-0.6,0.4
		l-1.3,0.8c-0.1,0-0.1,0.1-0.2,0.2s-0.1,0.2,0,0.3c0.1,0.2,0.1,0.5,0,0.7c-0.1,0.2-0.3,0.4-0.5,0.5l-0.5,0.3
		c-0.2,0.1-0.3,0.3-0.3,0.5c0,0.1,0,0.3,0,0.4c0,0.4,0,0.8-0.1,1.3c-0.1,0.4,0,0.7,0.1,1.1l0.3,0.6c0.1,0.2,0,0.3-0.2,0.5
		c-0.1,0.1,0,0.2,0.1,0.3l0.3,0.1c0.1,0,0.2,0.1,0.1,0.3c-0.1,0.2-0.1,0.3,0,0.5c0.7,0.7,1.4,1.4,2,2.1c0.4,0.5,0.8,0.9,1.4,1.3
		l0.4,0.3c0.3,0.4,0.7,0.7,1.2,0.9c0.1,0.1,0.3,0.1,0.4,0.3c0.3,0.4,0.7,0.6,1.2,0.9c0.2,0.1,0.4,0.2,0.5,0.4
		c0.2,0.2,0.4,0.4,0.7,0.5c0.2,0.2,0.5,0.3,0.7,0.6l1.4,1.4c0.1,0.1,0.1,0.2,0.2,0.3c0.5,0.6,0.7,1.4,1,2c0,0.1,0,0.2,0,0.2
		c0.1,0.5,0.2,1,0.3,1.5c0,0.2,0,0.5,0,0.7c0,0.9-0.2,1.9-0.3,2.8c0,0.4-0.2,0.7-0.5,1c-0.3,0.3-0.5,0.7-0.7,1
		c-0.1,0.1-0.2,0.3-0.3,0.4c-0.4,0.2-0.7,0.5-0.9,0.9c0,0-0.1,0.1-0.2,0.1c-0.6,0-1.2,0.2-1.7,0.3c-0.2,0-0.3,0.1-0.5,0.1
		c-0.3,0-0.7,0-0.9-0.3c-0.9-0.8-1.7-1.6-2.2-2.7l-0.3-0.6c-0.4-0.7-0.7-1.4-0.8-2.1v-0.7c0-0.1-0.1-0.2-0.2-0.3
		c-0.1-0.1-0.3-0.2-0.6-0.1c-0.2,0.2-0.5,0.3-0.7,0.5c-0.1,0.2-0.4,0.4-0.6,0.4c-0.2,0.1-0.3,0.2-0.4,0.3l-0.4,0.8
		c-0.2,0.3-0.4,0.7-0.6,1c-0.1,0.2-0.1,0.5,0,0.7c0.1,0.2,0.3,0.4,0.6,0.3c0.2-0.1,0.4-0.1,0.5,0c0.5,0.5,0.9,1,1.3,1.6
		c0.3,0.5,0.7,0.9,1.1,1.3l0.6,0.5c0.6,0.5,1.1,0.9,1.9,1l0.5,0.1C115.8,335.3,116.3,335.3,116.7,335.4z M102.6,335.1h-2.2
		c-0.5,0-0.9,0-1.4,0.1c-0.2,0.1-0.6,0.1-0.8,0.1h-3.9c-0.4,0-0.8,0-1.2,0.1c-0.1,0-0.3,0-0.4,0c-0.2,0-0.4,0-0.6-0.1
		c-0.6,0.2-1.2,0-1.7,0.3c-0.3,0.1-0.6,0.1-0.9,0.1c-0.4,0-0.8,0-1.2,0.1s-0.7,0.1-1.1,0c-0.4-0.1-0.7-0.2-1-0.4
		c-0.1-0.1-0.1-0.1-0.1-0.2c0.1-0.2,0.3-0.5,0.4-0.7c0.2-0.4,0.4-0.7,0.5-1.2c0.1-0.7,0.3-1.5,0.6-2.3c0.1-0.3,0.2-0.7,0-1
		c0.1-0.5,0-1,0-1.5c0-0.1,0-0.3,0-0.5c0.1-0.4,0.1-0.8,0.1-1.3l-0.1-0.8c-0.1-0.3-0.1-0.6,0-0.9c0.1-0.3,0.1-0.6,0-0.8
		c0-0.1,0-0.2,0-0.4c0.1-0.3,0-0.6-0.2-0.8c-0.1,0-0.1-0.2-0.2-0.3c0,0,0-0.2,0.1-0.3l0.2-0.1c0.2-0.1,0.2-0.2,0-0.4
		c0-0.1-0.1-0.2-0.1-0.3c0.1-0.3,0.2-0.6,0.2-0.8c0-0.2,0.1-0.3,0.1-0.5c0-0.3,0-0.6-0.2-0.8c-0.2-0.3-0.3-0.6-0.2-1
		c0-0.2,0-0.4,0-0.6c-0.1-0.3,0-0.7,0.2-0.9l0-0.2c0-0.2-0.1-0.3-0.2-0.5c0-0.1-0.1-0.3,0-0.4c0.1-0.3,0-0.6,0-0.8
		c0-0.3,0.1-0.5,0-0.7c0-0.2,0-0.3,0-0.5c0.1-0.6,0.1-1.2-0.1-1.9c0-0.1,0-0.2,0-0.3c0.2-0.5,0.2-1,0-1.5c-0.1-0.1-0.1-0.3,0-0.5
		c0.1-0.3,0.1-0.6,0-0.8l-0.1-0.4c-0.1-0.2-0.1-0.4,0-0.6c0.2-0.5,0.2-1,0-1.4c-0.1-0.4-0.2-0.7-0.1-1.1c0.1-0.3,0-0.7,0-1l-0.4-1.7
		c0-0.1,0.1-0.3,0.3-0.3c0.2,0,0.4,0,0.6,0c0.4,0,0.7,0,1.1-0.1c0.3-0.1,0.7-0.1,1,0c0.3,0,0.6,0.2,0.7,0.5l0,0.1
		c0.2,0.7,0.3,0.7,0,1.4c-0.1,0.2-0.1,0.5-0.1,0.7c0.2,0.8,0.2,1.6,0,2.4c-0.1,0.1-0.1,0.3,0,0.5c0.1,0.2,0.2,0.5,0.1,0.7
		c0,0.4-0.2,0.7-0.2,1.1c0,0.3,0.2,0.6,0.2,0.9c0,0.3,0,0.6-0.1,0.9c0,0.2-0.1,0.4,0,0.6c0.1,0.2,0.1,0.5,0,0.7
		c-0.1,0.3-0.1,0.7,0,1.1c0.1,0.4,0,0.7,0.1,1.1c0.1,0.4,0.1,0.8-0.1,1.2c0,0.2,0,0.3,0,0.5c0.1,0.3,0.1,0.6,0,0.8
		c0,0.2,0,0.4-0.1,0.6c-0.1,0.3,0,0.6,0,0.9c0,0.1,0.1,0.2,0,0.4c-0.2,0.4,0,0.8,0,1.2c-0.1,0.3-0.1,0.7,0,1l0,0.5
		c0,0.1-0.1,0.2-0.1,0.3c0,0.3,0.1,0.6,0.1,0.8c0,0.2-0.1,0.5-0.1,0.7c0.1,0.3,0,0.7,0,1v0.2c0,0.5,0.2,1,0,1.5v2.9
		c0,0.4,0,0.8,0.1,1.2c0,0.1,0,0.3,0,0.4c0,0.2-0.1,0.4-0.1,0.7c0,0.4,0.3,0.7,0.7,0.7h2.5c0.2,0,0.4,0,0.6,0.1
		c0.4,0.2,0.8,0,1.2,0.1c0.4,0.1,0.7,0.1,1.1,0.1s0.7,0,1,0.1c0.2,0.1,0.4,0,0.7,0c0.1,0,0.2-0.1,0.3,0c0.4,0.2,0.8,0,1.2,0
		c0.2,0,0.4,0,0.7,0c0.3,0,1.1,0,1.3-0.2c0.3-0.2,0.6-0.3,0.9-0.4l0.6-0.3c0.3-0.1,0.6-0.3,0.6-0.7c0-0.1,0.1-0.2,0.2-0.3
		c0.2-0.2,0.5-0.3,0.7-0.5c0.1,0,0.3,0,0.3,0.1c0,0.1,0,0.3,0,0.4c0,0.2-0.1,0.4-0.2,0.6c0,0.1,0,0.3,0.1,0.4l0,0.1
		c0.6,0.5,0.8,1.1,0.9,1.7c0.1,0.4,0,0.7-0.3,0.9c-0.1,0-0.1,0.1-0.2,0.1c-0.2,0.2-0.4,0.3-0.7,0.3
		C103.6,335.1,103.1,335.1,102.6,335.1z M78.1,336c0.2,0,0.3,0,0.5,0c0.1,0,0.3-0.1,0.4-0.2c0.3-0.2,0.7-0.2,1.1-0.1
		c0.3,0.1,0.6,0.2,0.8,0.4c0.2,0,0.6-0.1,0.7-0.3v-0.2c-0.2-0.3-0.4-0.5-0.6-0.8c-0.1-0.2-0.2-0.5,0-0.7l0-0.1
		c0.1-0.3,0.2-0.5,0.1-0.8c-0.2-0.4-0.1-0.8,0-1.2c0-0.2,0.2-0.5,0.1-0.7c-0.1-0.3,0-0.6,0-0.8c-0.2-0.5-0.2-0.9-0.2-1.4v-3.9
		c0-0.6,0.1-1.2-0.1-1.7v-0.3c0.2-0.6,0.1-1.2,0.1-1.9c0-0.4,0-0.7,0.1-1.1c0.1-0.4,0.1-0.9,0.1-1.4l0-5.4c0-1.4,0-2.7,0-4.1
		c0-0.4,0-0.7-0.1-1.1c-0.2-0.4,0-0.7,0-1.1c0-0.2,0.2-0.4,0.4-0.5c0.2-0.1,0.4-0.4,0.6-0.7c0.1-0.2,0-0.6-0.3-0.6
		c-0.1,0-0.2-0.1-0.4-0.1c-0.2,0-0.5,0-0.7,0c-0.3-0.1-0.6,0-0.8,0.1c-0.7,0.3-1.4,0.3-2,0l-0.4-0.1c-0.1,0-0.2,0-0.3,0
		c-0.3,0.3-0.4,0.4-0.2,0.7c0.1,0.3,0.3,0.6,0.5,0.9c0.1,0.2,0.2,0.5,0.2,0.8c0,0.5,0.2,1,0.1,1.5c0.2,0.4,0.2,0.8,0.2,1.2v5.5
		c0,0.2,0,0.5-0.1,0.7c0,0.2,0,0.4,0,0.6c0.1,0.3,0,0.7,0,1c-0.1,0.3-0.1,0.6,0,0.8c0.1,0.4,0.1,0.7,0,1.1c-0.2,0.5-0.1,1.1-0.1,1.6
		c0.1,0.3,0,0.7,0.1,1c0.1,0.5,0.1,1-0.1,1.4c0,0.2,0,0.4,0,0.5c0.2,0.2,0.3,0.5,0.2,0.8c-0.1,0.3,0,0.6,0,0.9c0,0.5,0,1.1-0.2,1.6
		c0,0.2,0,0.4,0,0.7c0,0.1,0,0.3,0,0.5c-0.1,0.4,0.1,0.7,0,1.1c0,0.2,0.1,0.4,0.1,0.6c0,0.2,0,0.5,0,0.7c-0.1,0.5-0.2,0.9-0.2,1.4
		c0,0.7,0,1.3-0.2,1.9v1C77.6,335.8,77.8,336,78.1,336z M53.1,305l1.5,0H56c0.1,0,0.2,0.1,0.3,0.2c0,0,0,0.3-0.1,0.3
		c-0.4,0.2-0.7,0.7-0.9,1c-0.1,0.2-0.1,0.5,0,0.7c0.4,0.4,0.6,0.8,0.9,1.2c0.1,0.1,0.1,0.3,0.1,0.5c0,0.1,0,0.2,0,0.4
		c0,0.2,0.2,0.5,0.2,0.7c0,0.3,0,0.6-0.1,0.9c0,0.1,0,0.3,0.1,0.4l0.2,0.3c0.2,0.2,0.3,0.4,0.3,0.7c0,0.4,0.2,0.8,0.1,1.2
		c0.2,0.8,0.3,1.6,0.7,2.2c0.2,0.3,0.3,0.7,0.3,1.1c0,0.3,0,0.7,0.3,0.9c0,0,0,0.1,0,0.2c0,0.7,0.3,1.4,0.5,2.2l0.1,0.7
		c0.4,0.5,0.4,1.1,0.5,1.6c0,0.4,0.2,0.9,0.4,1.3c0.1,0.2,0.2,0.5,0.3,0.8c0,0.2,0.1,0.5,0.2,0.7c0.1,0.2,0.2,0.5,0.2,0.8
		c0,0.3,0.1,0.7,0.3,0.9l0.7,1.4c0.2,0.3,0.3,0.7,0.3,1.1l0.1,0.1l0.1-0.1c0.1-0.2,0.2-0.4,0.4-0.7c0.2-0.3,0.4-0.6,0.5-1
		c0-0.1,0-0.3,0.1-0.4c0.1-0.2,0.2-0.4,0.2-0.6c0.1-0.5,0.2-1,0.4-1.4c0.2-0.8,0.4-1.5,0.6-2.3s0.4-1.6,0.6-2.4
		c0-0.2,0.1-0.3,0.1-0.5c0-0.6,0.2-1.2,0.3-1.7c0-0.4,0.2-0.7,0.2-1.1c0-0.2,0.1-0.4,0.1-0.6l0.6-1.8c0-0.1,0-0.1,0.2,0h0.1L67,315
		c0-0.1,0-0.3-0.1-0.5c-0.1-0.3-0.1-0.6,0-0.9c0.3-0.8,0.5-1.7,0.7-2.7c0.1-0.3,0.2-0.6,0.3-0.9c0.1-0.5,0.3-0.9,0.4-1.4
		c0-0.1,0.1-0.3,0.1-0.5c0.2-0.4,0.3-0.8,0.3-1.2c0-0.3,0.1-0.6,0.2-0.8l-0.1-0.2l-0.3-0.1l-0.6-0.3c-0.2-0.1-0.2-0.5,0-0.7
		c0.2-0.1,0.4-0.2,0.7-0.3h1c0.7,0,1.3,0,1.9-0.2c0.5-0.1,1,0,1.4,0.3c0.1,0.1,0.2,0.2,0.1,0.3L73,305c-0.7,0.4-1.1,1-1,1.9
		c0,0.6-0.2,1-0.5,1.5l-0.4,0.8c0,0.2-0.1,0.3,0,0.5c0.1,0.2,0.1,0.4,0,0.6l-0.3,0.6c-0.2,0.4-0.3,0.8-0.4,1.3
		c-0.6,1.6-0.9,3.3-1.5,4.9c-0.4,1-0.6,2.1-0.8,3.1c-0.2,0.9-0.6,1.9-0.9,2.7c-0.1,0.4-0.4,0.8-0.7,1.2c-0.1,0.2-0.2,0.4-0.1,0.7
		c0,0.1,0,0.2,0,0.2c-0.2,0.2-0.3,0.5-0.3,0.8l-0.1,0.5c-0.2,0.4-0.3,0.8-0.4,1.3c-0.2,0.5-0.2,1,0,1.6c0.1,0.2,0.1,0.6,0,0.8
		c-0.1,0.4-0.1,0.8-0.2,1.2c-0.1,0.4-0.1,0.7,0,1c0.1,0.3,0.1,0.7,0,1l-0.2,0.7c0,0.1,0,0.2,0,0.4l0.2,1.1l-0.1,0.2
		c-0.1,0.1-0.3,0.1-0.5,0.1l-1.2-0.4c-0.3-0.1-0.6-0.1-0.8,0.1l-0.2,0.1c-0.3,0.1-0.6,0.1-0.9,0.1c-0.1,0-0.3-0.2-0.3-0.3l0-0.6
		c0-0.2,0-0.5-0.1-0.7c-0.1-0.4-0.2-0.8-0.1-1.2c0-0.4-0.1-0.7-0.2-1.1c-0.2-0.7-0.6-1.4-0.7-2.1c-0.3-0.7-0.6-1.4-0.8-2.1
		c-0.2-0.5-0.4-0.9-0.5-1.4c0-0.1-0.1-0.2-0.2-0.3c-0.1-0.1-0.1-0.2-0.1-0.3c0-0.8-0.2-1.7-0.6-2.4l-0.4-0.8
		c-0.2-0.4-0.4-0.8-0.5-1.3c0-0.2-0.1-0.3-0.2-0.5c0-0.1-0.1-0.2-0.1-0.3c0.1-0.3,0-0.7-0.1-1c-0.1-0.6-0.4-1.1-0.3-1.7
		c0-0.1,0-0.2-0.1-0.3c-0.3-0.5-0.3-1.1-0.7-1.6c0-0.1,0-0.3,0-0.4c0-0.1,0-0.3,0-0.4c-0.2-0.3-0.3-0.6-0.3-0.9c0-0.2,0-0.4-0.1-0.6
		c-0.3-0.6-0.5-1.2-0.7-1.9c-0.1-0.5-0.2-0.9-0.5-1.3c-0.2-0.4-0.4-0.8-0.4-1.3c0-0.6-0.3-1.1-0.3-1.7l-0.3-0.7
		c-0.1-0.1-0.2-0.2-0.4-0.3c-0.3-0.1-0.6-0.1-0.9-0.2c-0.2-0.1-0.5,0-0.7,0c-0.3,0-0.4,0-0.5-0.2c-0.1-0.2,0-0.3,0-0.3l0.8-0.2
		c0.1,0,0.2,0,0.3,0C51.9,305.2,52.5,305.2,53.1,305z M30.5,329.6c-0.1,0-0.2-0.1-0.2-0.2l0-0.1c0-0.2,0.1-0.5,0.1-0.7
		c0-0.2-0.1-0.4-0.1-0.6c0-0.2,0-0.5,0-0.7c0.2-0.4,0.2-0.7,0.1-1.1l0.1-0.2c0.1,0,0.2,0,0.2,0.1c0,0.4,0,0.8,0.1,1.3
		c0.1,0.4-0.1,0.7,0.1,1.1c0,0.1,0,0.2,0,0.3c0,0.3-0.1,0.6-0.2,0.8L30.5,329.6z M30.5,324.6c-0.1,0-0.1,0-0.2-0.1
		c0-0.1-0.1-0.2-0.1-0.3v-0.7c-0.1-0.5,0.1-1,0.1-1.5l0-0.1c0.1,0,0.2-0.1,0.2-0.1c0.1,0,0.2,0.1,0.2,0.1c-0.1,0.4,0.1,0.7,0,1.1
		C31,323.5,30.7,324,30.5,324.6L30.5,324.6z M30.3,319.3c-0.1,0-0.3,0-0.3-0.1v-0.1c0.1-0.1,0.2-0.2,0.4-0.1l0,0.1
		C30.5,319.2,30.5,319.3,30.3,319.3z M30.6,317.7c-0.1,0-0.2-0.1-0.3-0.2c0-0.1,0-0.1,0-0.2h0.1c0.1,0,0.3,0.1,0.3,0.3v0.1
		C30.8,317.8,30.7,317.8,30.6,317.7z M30.5,316.3c-0.1,0-0.2,0-0.2-0.1c-0.1-0.3,0-0.8,0.4-1l0.2,0.1c0,0.2,0,0.5-0.1,0.7
		C30.7,316.2,30.6,316.3,30.5,316.3z M31.7,336.1c0.3-0.1,0.6-0.1,0.8-0.1h3.8c0.7,0,1.4,0,2,0s1.3,0,1.9,0c0.7,0,1.4-0.3,2-0.1
		c0.1,0,0.2,0,0.2,0c0.3-0.1,0.7-0.1,1-0.1h1.9c0.1,0,0.3,0,0.5-0.1c0.3,0,0.4-0.4,0.3-0.6c-0.1-0.1-0.1-0.2-0.2-0.3
		c-0.2-0.5-0.2-0.9,0-1.4l0.5-0.7c0.1-0.2,0.1-0.3,0-0.5c0-0.1-0.2-0.1-0.3-0.1c-0.3,0.1-0.6,0.2-0.9,0.3c-0.4,0.1-0.7,0.2-1.1,0.3
		c-0.7,0.2-1.4,0.4-2.1,0.2c-0.2,0-0.4,0-0.6,0.1c-0.3,0.1-0.6,0.1-0.9,0.1h-1.5c-0.5,0-0.9,0-1.4,0.2c-0.2,0-0.4,0-0.7,0
		c-0.3,0-0.6,0.1-0.8,0.1h-0.9c0,0-0.1,0-0.2-0.1c-0.2-0.2-0.5-0.2-0.7-0.2s-0.4,0-0.6-0.2c-0.2-0.2-0.6-0.3-0.7-0.7
		c-0.1-0.3,0-0.6-0.1-0.8c0-0.1,0-0.3-0.1-0.4c0-0.1,0-0.3,0-0.4c0.1-0.7,0.1-1.3,0.1-1.9v-5.5c0-0.5,0.1-1,0.2-1.5
		c0.1-0.6,0.5-0.9,1.1-1c0.3-0.1,0.7-0.2,1.1-0.1c0.2,0.1,0.4,0,0.6-0.2c0.1-0.2,0.3-0.3,0.6-0.2c0.2,0.1,0.3,0,0.3-0.2l0.2-0.1
		c0.6,0,1.3-0.1,1.9,0c0.2,0,0.5,0.1,0.7,0.4c0.3,0.1,0.5,0.3,0.8,0.3H42c0.7,0,1.3,0,1.9,0.1c0.1,0,0.3-0.2,0.3-0.3
		c0-0.2,0-0.4-0.1-0.6c-0.1-0.4,0-0.7,0.1-1.1c0.1-0.2,0.2-0.4,0.5-0.6c0.2-0.1,0.2-0.2,0.1-0.3c0,0-0.1-0.1-0.2-0.1
		c-0.6-0.1-1.1-0.1-1.6,0c-0.3,0.1-0.7,0.3-1.1,0.3c-0.6,0-1.1,0.2-1.7,0.4c-0.2,0-0.3,0.1-0.5,0.1c-0.6,0.1-1.2,0-1.9-0.1l-0.2-0.1
		c-0.2-0.2-0.5-0.3-0.7-0.2c-0.1-0.1-0.3-0.2-0.4-0.2c-0.2,0-0.3,0-0.5,0c-0.2,0-0.4-0.1-0.6-0.2c-0.2-0.1-0.5,0-0.7,0.1
		c-0.5,0.3-0.9,0.2-1.3-0.3c-0.1-0.1-0.2-0.3-0.2-0.5c0-0.3,0-0.7,0-1c0-0.9,0-1.8-0.2-2.6c0-0.2,0-0.4,0-0.5c0.1-0.5,0-0.9,0-1.4
		V310c0-0.3,0-0.6,0-0.9c-0.2-0.4,0-0.8-0.1-1.2c0-0.2,0.1-0.4,0.3-0.5c0.6-0.1,1.1-0.4,1.7-0.4c1.4,0,2.7,0,4.1,0
		c0.2,0,0.5,0,0.7,0.1c0.3,0.1,0.6,0.1,0.8,0.1c0.4,0,0.8,0,1.3,0h1.5c0.2,0,0.4-0.2,0.4-0.4c0-0.3,0-0.5,0-0.7c0-0.4,0-0.7,0.3-1.1
		c0.1-0.1,0.2-0.4,0.2-0.6c0,0,0-0.1-0.1-0.2c-0.3,0-0.6,0-0.8,0.1c-0.3,0.1-0.7,0.1-1,0.1h-1.5c-0.4,0-0.9,0-1.4,0.1
		c-0.5,0-1-0.1-1.5,0c-0.1,0-0.2,0-0.4,0c-0.1,0-0.3-0.1-0.5,0c-0.3,0.2-0.7,0.1-1,0c-0.6-0.1-1.2-0.1-1.8-0.1c-0.4,0-0.9,0-1.4-0.2
		c-0.4-0.1-0.7-0.1-1.1,0c-0.6,0.2-1.2,0.2-1.7,0.2c-0.7,0-1.3,0-1.9,0.2h-0.4c-0.3,0-0.5,0.2-0.7,0.4c-0.1,0.1-0.2,0-0.3,0
		c-0.2-0.2-0.3-0.2-0.5,0l-0.1,0.1c0,0.1-0.1,0.3,0,0.4c0.1,0.2,0.3,0.4,0.6,0.4c0.1,0,0.3,0,0.5,0l0.4,0.1l1.4,1.2
		c0.2,0.2,0.3,0.5,0.4,0.8c0,0.2,0,0.5,0,0.7v4.5l0.2,1.2c0,0.3,0,0.4-0.2,0.6c-0.2,0.2-0.2,0.4-0.1,0.7c0.1,0.1,0.1,0.3,0,0.5
		c-0.2,0.3,0,0.7-0.1,1c-0.1,0.4,0,0.7,0.1,1c0,0.2,0,0.4,0,0.7v1.3c0,0.5,0.2,1,0.1,1.5c0.2,0.5,0.1,1,0.2,1.4
		c0,0.7-0.1,1.3,0.1,1.9c0,0.1,0,0.2,0,0.4c0,0.2,0,0.4,0,0.6v3.3c0,0.2,0,0.4,0,0.6c0.1,0.3,0,0.5,0,0.7l0,0.1
		c0,0.1,0.1,0.2,0.2,0.1c0.4-0.1,0.4-0.1,0.5,0.3v0.1c0,0.4,0,0.7-0.3,0.9c-0.1,0-0.1,0.2-0.1,0.3c-0.1,0.5-0.3,0.9-0.6,1.4
		c-0.2,0.4-0.5,0.7-0.9,0.8l-1.4,0.6c-0.1,0-0.1,0.2,0,0.3c0.1,0.1,0.3,0.2,0.5,0.2c0.4,0,0.9,0,1.4,0c0.3,0,0.7,0,1,0.1
		C30.6,336.3,31.2,336.3,31.7,336.1z M11.5,331.3c-0.1,0-0.3-0.1-0.4-0.3c-0.1-0.2,0-0.5-0.1-0.7c-0.2-0.7-0.2-1.4-0.2-2.1l0-1.9
		c0-0.2,0-0.5,0-0.7c-0.2-0.5-0.2-1-0.2-1.5c0-0.5,0-0.9-0.2-1.4c0-0.2-0.1-0.5,0-0.7c0-0.9-0.2-1.8-0.4-2.7
		c-0.1-0.4-0.1-0.8-0.1-1.2c0-0.6,0-1.2,0-1.8c0-0.5,0-0.9-0.1-1.4c-0.1-0.3-0.1-0.6,0-0.9c0.2-0.7,0.2-1.3,0.1-2c0-0.2,0-0.4,0-0.7
		c0-0.1,0-0.2-0.1-0.3c-0.1-0.1-0.1-0.2,0-0.2c0.3-0.2,0.3-0.6,0.2-0.9c0-0.2,0-0.4-0.1-0.6c-0.1-0.5-0.1-0.9,0-1.4
		c0-0.2,0-0.4,0.1-0.6c0-0.1,0.1-0.2,0.2-0.3c0.3-0.1,0.7,0,1,0h0.6c0.3,0,0.5,0,0.7,0.1c0.7,0.2,1.3,0.4,1.9,0.6
		c0.4,0.1,0.7,0.3,1.1,0.5c0.1,0.1,0.3,0.2,0.4,0.3c0.2,0.2,0.3,0.4,0.6,0.5c0.2,0,0.4,0.2,0.5,0.3c0.2,0.4,0.5,0.7,0.7,1.1
		c0.1,0.3,0.3,0.7,0.6,0.9l0.2,0.4c0,0.1,0,0.3,0.1,0.4c0.5,0.6,0.7,1.4,1,2.1c0.1,0.1,0.1,0.3,0.1,0.5c0,0.5,0,1,0.2,1.5
		c0.1,0.2,0,0.5,0.1,0.7c0,0.7-0.1,1.4,0.1,2c0,0.1-0.1,0.3-0.1,0.5c0.1,0.7-0.1,1.3-0.3,2c-0.1,0.3-0.2,0.6-0.2,1
		c0,0.1-0.1,0.3-0.2,0.5c-0.3,0.3-0.4,0.8-0.7,1.1l-0.4,1.1c0,0.1,0,0.2,0.1,0.3c0.1,0.1,0,0.3-0.1,0.3c-0.3,0-0.6,0-0.7,0.4
		c0,0.1-0.1,0.1-0.2,0.2c-0.4,0.1-0.6,0.4-0.8,0.7c-0.2,0.3-0.5,0.6-0.8,0.8c-0.3,0.7-1.1,1.2-1.5,1.8c0,0.1-0.1,0.1-0.2,0.2
		c-0.7,0.5-1.4,1.1-2.2,1.4L11.5,331.3z M6.3,335.6c0.8,0,1.5-0.1,2.2-0.3c0.4-0.1,0.7-0.2,1.1-0.2c0.2,0,0.5,0,0.7-0.2
		c0.3-0.3,0.7-0.3,1.1-0.6c0.4-0.2,0.7-0.4,1.1-0.6l1.8-0.9c0.5-0.2,0.8-0.5,1.2-0.9c0.4-0.4,0.8-0.9,1.4-1.2
		c0.3-0.2,0.6-0.5,0.8-0.8c0.3-0.5,0.7-1.1,1.1-1.5s0.7-1,1-1.5c0.2-0.4,0.4-0.7,0.6-1.1c0.3-0.4,0.3-0.8,0.7-1.2
		c0.5-0.6,0.7-1.2,0.7-2c0-0.1,0-0.3,0.1-0.5c0.3-0.3,0.3-0.7,0.1-1c0-0.1,0-0.2,0-0.4c0.1-0.4,0.1-0.7,0.3-1.1
		c0.1-0.3,0.1-0.6,0.1-0.9c0-0.6,0-1.1,0-1.6c0-0.2,0-0.5-0.1-0.7c-0.1-0.3-0.1-0.7-0.1-1c0-0.2,0-0.5-0.1-0.7
		c-0.3-1.1-0.7-2.1-1.3-3.1c-0.1-0.2-0.3-0.5-0.4-0.7c-0.3-0.8-0.8-1.5-1.4-2.1c-0.7-0.5-1.3-1.3-2-1.9c-0.1-0.1-0.3-0.2-0.4-0.2
		c-0.3-0.1-0.5-0.2-0.7-0.4c-0.4-0.4-0.9-0.6-1.4-0.7c-0.6-0.1-1.1-0.3-1.7-0.5c-0.8-0.2-1.6-0.5-2.4-0.5c-0.2,0-0.4-0.1-0.6-0.1
		c-0.7-0.3-1.4-0.4-2.2-0.4c-0.4,0-0.7,0-1,0v0H4.8c-0.2,0-0.5,0-0.7,0c-0.5,0.2-1,0.2-1.5,0.2c-0.1,0-0.3,0-0.5,0.1
		c-0.1,0-0.2,0.1-0.3,0.2c-0.1,0.1-0.1,0.3,0,0.3l0.3,0.2c0.4,0.4,0.8,0.6,1.3,0.8c0.8,0.3,1.6,0.7,2.3,1.4c0.5,0.5,0.9,1,0.8,1.7
		v4.8c0,0.3,0,0.7,0.1,1c0.1,0.3,0.1,0.7,0.1,1.1c0,1,0,2,0,3.1c0,0.3,0,0.6,0,0.9C7,320.5,7,321,7,321.6c0,0.3,0,0.6,0.1,0.9
		c0.1,0.3,0.1,0.7,0.1,1.1c0,0.3,0,0.5,0.1,0.7c0,0.2,0,0.4,0,0.6c0,0.1,0,0.3,0,0.4c0.1,0.3,0.1,0.7,0.2,1c0.1,0.4,0.1,0.7,0,1.1
		c-0.1,0.2,0,0.5,0,0.7c0.1,0.2,0.1,0.5,0,0.7c0,0.1,0,0.3,0.1,0.4C8,329.4,8,329.7,8,330v1.2c0,0.5-0.1,1-0.3,1.4
		c0,0.2-0.2,0.5-0.4,0.6c-0.5,0.3-1,0.7-1.5,0.9c-0.6,0.2-1.1,0.6-1.6,1l0,0.1l0,0.1c0.3,0,0.6,0.1,0.9,0.2
		C5.5,335.6,5.9,335.6,6.3,335.6z"/>
</g>
<g>
	<path class="st8" d="M238.3,333.8c0.7-0.2,1.4-0.2,2.1-0.1c0.1,0,0.2,0,0.4,0c0.7-0.2,1.5-0.1,2.2-0.1c0.2,0,0.5,0,0.7,0.1
		c0,0,0.1,0,0.2,0c0,0,0.1-0.1,0.2-0.2c0.1-0.2,0-0.5-0.1-0.7c-0.2-0.2-0.4-0.4-0.5-0.7c-0.2-0.4-0.3-0.9-0.3-1.4
		c0-0.7-0.1-1.5,0.1-2.2c0-0.1,0.1-0.3,0-0.5c-0.1-0.4-0.1-0.8-0.1-1.3l0-3.6c0-0.3,0-0.5,0-0.7c-0.2-0.5-0.2-1-0.2-1.5v-2
		c0-0.6,0-1.2-0.1-1.8c0.1-0.4-0.1-0.7,0-1.1c0.1-0.3,0-0.6,0-0.8c0-0.3,0.1-0.6,0.1-0.9c0-0.5,0-1-0.1-1.5
		c-0.1-0.2-0.1-0.6-0.1-0.8c0-1.1,0-2.1,0-3.2v-2.8c0-0.3,0-0.6,0-0.9c0-0.2,0.2-0.3,0.3-0.4c0.7-0.2,1.4-0.3,2.2-0.3h1.4
		c0.2,0,0.4,0,0.7,0c0.6,0.1,1.1,0.3,1.7,0.5c0.2,0.1,0.4,0.2,0.5,0.5c0,0.2,0.1,0.4,0.3,0.5c0,0.1,0.1,0.1,0.2,0
		c0.1-0.1,0.2-0.3,0.2-0.5c0-0.4,0-0.8,0-1.2c0-0.6-0.1-1.2-0.3-1.7c-0.1-0.3-0.3-0.4-0.6-0.4c-0.4,0-0.8,0-1.2-0.1
		c-0.6-0.2-1.1-0.2-1.7-0.2h-2.5c-0.4,0-0.7,0-1.1,0.1c-0.3,0.1-0.7,0.1-1.1,0c-0.3-0.1-0.5-0.2-0.7-0.1c-0.3,0.1-0.7,0-1,0
		c-0.3,0-0.5,0-0.7,0c-0.4,0.1-0.8,0.1-1.3,0.1h-1.8c-0.2,0-0.5,0-0.7,0.1c-0.4,0.2-0.8,0.2-1.3,0.2h-4.1c-0.2,0-0.5,0.1-0.7,0.2
		c-0.1,0.1-0.3,0.2-0.3,0.4l0,3.1c0,0.2,0.1,0.4,0.3,0.6c0.1,0.1,0,0.2,0,0.3l-0.1,0.2c0,0.1,0.1,0.3,0.2,0.3c0.3,0,0.6-0.2,0.7-0.4
		c0.1-0.1,0.2-0.3,0.3-0.5c0.2-0.4,0.4-0.7,0.8-0.9c0.1,0,0.2-0.1,0.2-0.1c0.5-0.5,1.2-0.5,1.7-0.8c0.3-0.1,0.6,0.1,1,0.1
		c0.5,0,0.9,0,1.4-0.2c0.1,0,0.3-0.1,0.5-0.1h1.7c0.4,0,0.9,0.4,1,0.8c0.1,0.6,0.3,1.1,0.5,1.6c0,0.1,0,0.3,0,0.5
		c-0.3,0.8-0.1,1.6-0.1,2.4c0.3,0.7,0.2,1.4,0.2,2.1c0,0.4,0,0.7,0,1c0,0.3,0,0.6,0.1,0.8c0,0.3,0.1,0.7,0.1,1c0,0.3,0,0.6,0.1,0.8
		c0.1,0.5,0.1,1,0,1.5c-0.1,0.2-0.1,0.5,0,0.7c0.1,0.3,0.1,0.7,0.1,1v2.4c0,0.7,0,1.4,0.2,2l0,1c0,0.2,0.1,0.5,0.1,0.7
		c0,0.3-0.1,0.6-0.1,0.8v2.3c0,0.3,0,0.7,0.1,1c0,0.2,0.1,0.4,0.1,0.6c0,0.2,0,0.4-0.2,0.6c-0.4,0.4-0.7,0.9-0.9,1.5
		c-0.1,0.4-0.3,0.8-0.7,1.1l-0.3,0.2l-0.1,0.2v0.2L238.3,333.8z M217,333.4c0.5,0.1,0.9,0,1.4,0c0.1,0,0.2,0,0.4,0
		c0.3,0,0.7,0,0.9-0.2c0.3-0.2,0.7-0.2,1-0.3c0.6-0.1,1-0.4,1.4-0.8c0.2-0.3,0.5-0.6,0.8-0.8c0.6-0.4,0.8-1,1.3-1.5
		c0.1,0,0.1-0.1,0.1-0.2c0.1-0.5,0.4-0.8,0.4-1.4c0-0.1,0-0.3,0.1-0.5c0.1-0.7,0.5-1.4,0.5-2c0-0.1,0-0.2,0-0.2
		c0.3-0.4,0.3-0.8,0.1-1.2l-0.2-0.8c-0.1-0.3-0.1-0.7-0.2-1c0-0.2,0-0.4-0.2-0.4c-0.2,0-0.2,0.1-0.3,0.3l-0.3,0.4H224l0-0.1
		c0.1-0.5,0.3-0.9,0.5-1.4c0.1-0.1,0.1-0.2,0-0.3c-0.2-0.4-0.5-0.7-0.6-1.1c-0.1-0.4-0.4-0.7-0.6-1.1c-0.3-0.6-0.7-1-1.2-1.4
		c-0.5-0.4-1-0.9-1.4-1.4c-0.2-0.3-0.6-0.6-1-0.7c-0.7-0.2-1.2-0.6-1.7-1c-0.6-0.5-1.1-1-1.7-1.4c-0.4-0.3-0.8-0.7-1.2-1
		c-0.5-0.4-0.9-0.9-1.3-1.4c-0.1-0.1-0.2-0.3-0.2-0.4c-0.1-0.4-0.3-0.8-0.3-1.2c0-0.7,0-1.4,0-2l0-0.2c0.4-1,1.2-1.6,2.1-2
		c0.5-0.2,1-0.3,1.6-0.4c0.4-0.1,0.8,0,1.1,0.2c0.4,0.3,1,0.5,1.4,0.8c0.2,0.1,0.4,0.3,0.6,0.5c0.3,0.4,0.7,0.7,1,1.2
		c0.1,0.2,0.2,0.4,0.3,0.7l0.3,1.1c0.1,0.4,0.7,0.7,1.1,0.6c0.2,0,0.4,0,0.6-0.1c0.4-0.1,0.7-0.4,0.8-0.7c0-0.1,0-0.1,0-0.2
		c-0.1-0.1-0.4-0.1-0.6-0.1l-0.1-0.1l0-0.1c0.4-0.2,0.8-0.5,1.1-0.8c0.2-0.3,0.3-0.6,0.5-0.9l0.2-0.3l0.1-0.2c0.1-0.1,0-0.4-0.1-0.5
		l-0.3-0.2c-0.3-0.2-0.7-0.4-1.1-0.3c-0.2,0-0.4,0-0.6-0.1c-0.3-0.2-0.7-0.4-0.9-0.7c-0.7-0.7-1.7-1.2-2.7-1.6
		c-0.3-0.1-0.6-0.2-0.9-0.4c-0.8-0.2-1.6-0.4-2.5-0.5c-0.5,0-1,0-1.4,0.2c-0.5,0.3-1.1,0.5-1.5,0.8c-0.2,0.2-0.4,0.3-0.6,0.4
		l-1.3,0.8c-0.1,0-0.1,0.1-0.2,0.2s-0.1,0.2,0,0.3c0.1,0.2,0.1,0.5,0,0.7c-0.1,0.2-0.3,0.4-0.5,0.5l-0.5,0.3
		c-0.2,0.1-0.3,0.3-0.3,0.5c0,0.1,0,0.3,0,0.4c0,0.4,0,0.8-0.1,1.3c-0.1,0.4,0,0.7,0.1,1.1l0.3,0.6c0.1,0.2,0,0.3-0.2,0.5
		c-0.1,0.1,0,0.2,0.1,0.3l0.3,0.1c0.1,0,0.2,0.1,0.1,0.3c-0.1,0.2-0.1,0.3,0,0.5c0.7,0.7,1.4,1.4,2,2.1c0.4,0.5,0.8,0.9,1.4,1.3
		l0.4,0.3c0.3,0.4,0.7,0.7,1.2,0.9c0.1,0.1,0.3,0.1,0.4,0.3c0.3,0.4,0.7,0.6,1.2,0.9c0.2,0.1,0.4,0.2,0.5,0.4
		c0.2,0.2,0.4,0.4,0.7,0.5c0.2,0.2,0.5,0.3,0.7,0.6l1.4,1.4c0.1,0.1,0.1,0.2,0.2,0.3c0.5,0.6,0.7,1.4,1,2c0,0.1,0,0.2,0,0.2
		c0.1,0.5,0.2,1,0.3,1.5c0,0.2,0,0.5,0,0.7c0,0.9-0.2,1.9-0.3,2.8c0,0.4-0.2,0.7-0.5,1c-0.3,0.3-0.5,0.7-0.7,1
		c-0.1,0.1-0.2,0.3-0.3,0.4c-0.4,0.2-0.7,0.5-0.9,0.9c0,0-0.1,0.1-0.2,0.1c-0.6,0-1.2,0.2-1.7,0.3c-0.2,0-0.3,0.1-0.5,0.1
		c-0.3,0-0.7,0-0.9-0.3c-0.9-0.8-1.7-1.6-2.2-2.7l-0.3-0.6c-0.4-0.7-0.7-1.4-0.8-2.1v-0.7c0-0.1-0.1-0.2-0.2-0.3
		c-0.1-0.1-0.3-0.2-0.6-0.1c-0.2,0.2-0.5,0.3-0.7,0.5c-0.1,0.2-0.4,0.4-0.6,0.4c-0.2,0.1-0.3,0.2-0.4,0.3l-0.4,0.8
		c-0.2,0.3-0.4,0.7-0.6,1c-0.1,0.2-0.1,0.5,0,0.7c0.1,0.2,0.3,0.4,0.6,0.3c0.2-0.1,0.4-0.1,0.5,0c0.5,0.5,0.9,1,1.3,1.6
		c0.3,0.5,0.7,0.9,1.1,1.3l0.6,0.5c0.6,0.5,1.1,0.9,1.9,1l0.5,0.1C216.1,333.3,216.5,333.3,217,333.4z M189.6,327.6
		c-0.1,0-0.2-0.1-0.2-0.2l0-0.1c0-0.2,0.1-0.5,0.1-0.7c0-0.2-0.1-0.4-0.1-0.6c0-0.2,0-0.5,0-0.7c0.2-0.4,0.2-0.7,0.1-1.1l0.1-0.2
		c0.1,0,0.2,0,0.2,0.1c0,0.4,0,0.8,0.1,1.3c0.1,0.4-0.1,0.7,0.1,1.1c0,0.1,0,0.2,0,0.3c0,0.3-0.1,0.6-0.2,0.8L189.6,327.6z
		 M189.6,322.6c-0.1,0-0.1,0-0.2-0.1c0-0.1-0.1-0.2-0.1-0.3v-0.7c-0.1-0.5,0.1-1,0.1-1.5l0-0.1c0.1,0,0.2-0.1,0.2-0.1
		c0.1,0,0.2,0.1,0.2,0.1c-0.1,0.4,0.1,0.7,0,1.1C190.2,321.5,189.9,322,189.6,322.6L189.6,322.6z M189.5,317.3c-0.1,0-0.3,0-0.3-0.1
		v-0.1c0.1-0.1,0.2-0.2,0.4-0.1l0,0.1C189.7,317.2,189.6,317.3,189.5,317.3z M189.8,315.7c-0.1,0-0.2-0.1-0.3-0.2c0-0.1,0-0.1,0-0.2
		h0.1c0.1,0,0.3,0.1,0.3,0.3v0.1C190,315.8,189.9,315.8,189.8,315.7z M189.7,314.3c-0.1,0-0.2,0-0.2-0.1c-0.1-0.3,0-0.8,0.4-1
		l0.2,0.1c0,0.2,0,0.5-0.1,0.7C189.9,314.2,189.8,314.3,189.7,314.3z M190.9,334.1c0.3-0.1,0.6-0.1,0.8-0.1h3.8c0.7,0,1.4,0,2,0
		s1.3,0,1.9,0c0.7,0,1.4-0.3,2-0.1c0.1,0,0.2,0,0.2,0c0.3-0.1,0.7-0.1,1-0.1h1.9c0.1,0,0.3,0,0.5-0.1c0.3,0,0.4-0.4,0.3-0.6
		c-0.1-0.1-0.1-0.2-0.2-0.3c-0.2-0.5-0.2-0.9,0-1.4l0.5-0.7c0.1-0.2,0.1-0.3,0-0.5c0-0.1-0.2-0.1-0.3-0.1c-0.3,0.1-0.6,0.2-0.9,0.3
		c-0.4,0.1-0.7,0.2-1.1,0.3c-0.7,0.2-1.4,0.4-2.1,0.2c-0.2,0-0.4,0-0.6,0.1c-0.3,0.1-0.6,0.1-0.9,0.1h-1.5c-0.5,0-0.9,0-1.4,0.2
		c-0.2,0-0.4,0-0.7,0c-0.3,0-0.6,0.1-0.8,0.1h-0.9c0,0-0.1,0-0.2-0.1c-0.2-0.2-0.5-0.2-0.7-0.2s-0.4,0-0.6-0.2
		c-0.2-0.2-0.6-0.3-0.7-0.7c-0.1-0.3,0-0.6-0.1-0.8c0-0.1,0-0.3-0.1-0.4c0-0.1,0-0.3,0-0.4c0.1-0.7,0.1-1.3,0.1-1.9v-5.5
		c0-0.5,0.1-1,0.2-1.5c0.1-0.6,0.5-0.9,1.1-1c0.3-0.1,0.7-0.2,1.1-0.1c0.2,0.1,0.4,0,0.6-0.2c0.1-0.2,0.3-0.3,0.6-0.2
		c0.2,0.1,0.3,0,0.3-0.2l0.2-0.1c0.6,0,1.3-0.1,1.9,0c0.2,0,0.5,0.1,0.7,0.4c0.3,0.1,0.5,0.3,0.8,0.3h1.5c0.7,0,1.3,0,1.9,0.1
		c0.1,0,0.3-0.2,0.3-0.3c0-0.2,0-0.4-0.1-0.6c-0.1-0.4,0-0.7,0.1-1.1c0.1-0.2,0.2-0.4,0.5-0.6c0.2-0.1,0.2-0.2,0.1-0.3
		c0,0-0.1-0.1-0.2-0.1c-0.6-0.1-1.1-0.1-1.6,0c-0.3,0.1-0.7,0.3-1.1,0.3c-0.6,0-1.1,0.2-1.7,0.4c-0.2,0-0.3,0.1-0.5,0.1
		c-0.6,0.1-1.2,0-1.9-0.1l-0.2-0.1c-0.2-0.2-0.5-0.3-0.7-0.2c-0.1-0.1-0.3-0.2-0.4-0.2c-0.2,0-0.3,0-0.5,0c-0.2,0-0.4-0.1-0.6-0.2
		c-0.2-0.1-0.5,0-0.7,0.1c-0.5,0.3-0.9,0.2-1.3-0.3c-0.1-0.1-0.2-0.3-0.2-0.5c0-0.3,0-0.7,0-1c0-0.9,0-1.8-0.2-2.6
		c0-0.2,0-0.4,0-0.5c0.1-0.5,0-0.9,0-1.4V308c0-0.3,0-0.6,0-0.9c-0.2-0.4,0-0.8-0.1-1.2c0-0.2,0.1-0.4,0.3-0.5
		c0.6-0.1,1.1-0.4,1.7-0.4c1.4,0,2.7,0,4.1,0c0.2,0,0.5,0,0.7,0.1c0.3,0.1,0.6,0.1,0.8,0.1c0.4,0,0.8,0,1.3,0h1.5
		c0.2,0,0.4-0.2,0.4-0.4c0-0.3,0-0.5,0-0.7c0-0.4,0-0.7,0.3-1.1c0.1-0.1,0.2-0.4,0.2-0.6c0,0,0-0.1-0.1-0.2c-0.3,0-0.6,0-0.8,0.1
		c-0.3,0.1-0.7,0.1-1,0.1H200c-0.4,0-0.9,0-1.4,0.1c-0.5,0-1-0.1-1.5,0c-0.1,0-0.2,0-0.4,0c-0.1,0-0.3-0.1-0.5,0
		c-0.3,0.2-0.7,0.1-1,0c-0.6-0.1-1.2-0.1-1.8-0.1c-0.4,0-0.9,0-1.4-0.2c-0.4-0.1-0.7-0.1-1.1,0c-0.6,0.2-1.2,0.2-1.7,0.2
		c-0.7,0-1.3,0-1.9,0.2h-0.4c-0.3,0-0.5,0.2-0.7,0.4c-0.1,0.1-0.2,0-0.3,0c-0.2-0.2-0.3-0.2-0.5,0l-0.1,0.1c0,0.1-0.1,0.3,0,0.4
		c0.1,0.2,0.3,0.4,0.6,0.4c0.1,0,0.3,0,0.5,0l0.4,0.1l1.4,1.2c0.2,0.2,0.3,0.5,0.4,0.8c0,0.2,0,0.5,0,0.7v4.5l0.2,1.2
		c0,0.3,0,0.4-0.2,0.6c-0.2,0.2-0.2,0.4-0.1,0.7c0.1,0.1,0.1,0.3,0,0.5c-0.2,0.3,0,0.7-0.1,1c-0.1,0.4,0,0.7,0.1,1
		c0,0.2,0,0.4,0,0.7v1.3c0,0.5,0.2,1,0.1,1.5c0.2,0.5,0.1,1,0.2,1.4c0,0.7-0.1,1.3,0.1,1.9c0,0.1,0,0.2,0,0.4c0,0.2,0,0.4,0,0.6v3.3
		c0,0.2,0,0.4,0,0.6c0.1,0.3,0,0.5,0,0.7l0,0.1c0,0.1,0.1,0.2,0.2,0.1c0.4-0.1,0.4-0.1,0.5,0.3v0.1c0,0.4,0,0.7-0.3,0.9
		c-0.1,0-0.1,0.2-0.1,0.3c-0.1,0.5-0.3,0.9-0.6,1.4c-0.2,0.4-0.5,0.7-0.9,0.8l-1.4,0.6c-0.1,0-0.1,0.2,0,0.3
		c0.1,0.1,0.3,0.2,0.5,0.2c0.4,0,0.9,0,1.4,0c0.3,0,0.7,0,1,0.1C189.8,334.3,190.3,334.3,190.9,334.1z M179,331.9l-0.2-0.1
		c-0.1-0.1,0.1-0.2,0.2-0.2c0.1,0,0.3,0.1,0.2,0.2C179.2,331.9,179.1,331.9,179,331.9z M162.8,331.9c-0.1,0-0.1-0.1-0.1-0.2
		c0-0.1,0.1-0.1,0.2-0.1c0.1,0,0.1,0.1,0.1,0.2C163,331.9,162.9,331.9,162.8,331.9z M164.3,325.7c0,0-0.1,0-0.1-0.1v-0.3
		c0-0.1,0.1-0.2,0.1-0.1l0.1,0.2L164.3,325.7L164.3,325.7z M179,307.7c-0.1,0-0.2-0.1-0.2-0.2l0-0.1c0-0.2,0.2-0.3,0.2-0.3
		c0,0.1,0,0.2,0.1,0.2l0,0.2C179.1,307.6,179.1,307.7,179,307.7z M161.9,334.4c0.2,0,0.3,0,0.5,0c0.3-0.1,0.7-0.1,1-0.1
		c1,0.1,2-0.2,3-0.3c0.3,0,0.6-0.4,0.6-0.7c0-0.1-0.1-0.2-0.3-0.2c-0.5-0.1-0.8-0.6-1.1-1c-0.2-0.4-0.3-0.8-0.2-1.2l0.1-0.6
		c0-0.2,0-0.3-0.1-0.5c-0.1-0.1-0.2-0.2-0.1-0.4c0.2-0.4,0.3-0.8,0.2-1.3c0-0.2,0-0.3,0.1-0.5l0.1-0.3c0-0.2,0-0.3-0.1-0.5l-0.1-0.2
		c-0.1-0.2-0.1-0.4,0-0.6c0.2-0.2,0.1-0.6,0.2-0.8c0-0.2,0-0.4,0-0.7c-0.1-0.2-0.1-0.5,0-0.7c0.1-0.2,0.1-0.5,0.1-0.7
		c0-0.5,0.2-1,0.4-1.4c0-0.1,0.1-0.2,0.2-0.3c0.2-0.1,0.5-0.2,0.7-0.2c0.1,0,0.2,0,0.3,0c0.4-0.2,0.9-0.3,1.4-0.2c0.2,0,0.5,0,0.7,0
		c0.5-0.2,1.1-0.2,1.6-0.2c0.3,0,0.5,0,0.7-0.1c0.2-0.1,0.5-0.1,0.7,0c0.2,0.1,0.5,0,0.7,0c0.5-0.2,0.9-0.2,1.3-0.6
		c0.1-0.1,0.2-0.1,0.2,0c0.2,0.2,0.5,0.3,0.8,0.2c0.4-0.1,0.7-0.1,1.1-0.2c0.2-0.1,0.4,0,0.6,0.1l0.5,0.6c0.2,0.2,0.3,0.5,0.2,0.8
		c0,0.1,0,0.2,0,0.4c0.1,0.5,0.1,0.9,0.1,1.4c0,0.4,0,0.7,0,1.1c0,0.4,0,0.7,0.1,1.1c0,0.2,0.1,0.4,0,0.7c-0.2,0.3-0.1,0.7,0,1
		c0.1,0.3,0.1,0.7-0.1,0.9l-0.1,0.2c-0.1,0.3-0.2,0.7,0.1,0.9c0.1,0.1,0.2,0.3,0.2,0.5l-0.1,0.5c-0.1,0.9-0.4,1.7-0.9,2.4
		c-0.1,0.2-0.3,0.4-0.4,0.7c-0.1,0.1,0,0.2,0.1,0.2c0.7,0,1.4,0,2.1,0h1.3c0.3,0,0.5,0,0.8,0l0.3,0c0.2,0,0.4-0.3,0.2-0.5
		c-0.3-0.5-0.6-1-0.9-1.5c-0.1-0.1-0.2-0.1-0.3,0c-0.1,0.1-0.2,0.4-0.4,0.5c-0.1,0-0.3,0-0.3-0.1c-0.1-0.2-0.1-0.5,0-0.7
		c0.2-0.2,0.4-0.5,0.4-0.8c0-0.2,0-0.5,0.1-0.7c0-0.3-0.1-0.7,0-1c-0.2-0.7-0.1-1.4-0.1-2.1c0-0.4,0-0.7-0.1-1c0-0.1,0-0.3,0-0.5
		c0.2-0.7,0.2-1.4,0-2.1c0-0.2-0.1-0.5,0-0.7c0.1-0.3,0.1-0.7,0-1c-0.1-0.4,0-0.7,0-1c0-0.1,0.1-0.2,0.2-0.3
		c0.1-0.1,0.2-0.2,0.2-0.3c0.1-0.2,0.1-0.3,0-0.5c-0.1-0.3-0.1-0.3,0.1-0.5c0.1-0.1,0.3-0.2,0.3-0.4c0-0.5,0-0.9-0.1-1.4
		c-0.1-0.3-0.3-0.7-0.2-1c0-0.3,0-0.5-0.1-0.7c-0.1-0.2-0.2-0.5-0.2-0.7c0,0-0.1-0.1-0.1-0.2c0-0.1,0.1-0.1,0.2-0.2
		c0.1,0,0.1-0.2,0-0.3c-0.2-0.2-0.2-0.2-0.3-0.7c0-0.2-0.1-0.4-0.3-0.6c-0.1-0.1-0.2-0.3-0.3-0.4v-0.1c0.2-0.1,0.3,0,0.5,0
		c0.1,0,0.1,0,0.2-0.1l-0.1-0.1l-0.3-0.2c-0.1-0.1-0.1-0.2-0.1-0.4c0-0.2,0.1-0.5,0-0.7l0.1-0.1c0.1-0.1,0.3-0.1,0.3-0.2
		c0.2-0.3,0.4-0.7,0.3-1.1l-0.1-0.2c-0.1,0-0.2,0-0.2,0c-0.1,0-0.2,0-0.2-0.1c0,0,0-0.1,0-0.2c0.1-0.1,0.2-0.1,0.3-0.1
		c0.1,0,0.2-0.1,0.2-0.2c0-0.1,0-0.2,0-0.2c0,0-0.1-0.1-0.2-0.2c-0.1-0.1-0.3-0.2-0.5-0.4c-0.2-0.2-0.2-0.4-0.1-0.6
		c0.4-0.5,0.7-1.1,1.2-1.5c0.1-0.1,0.2-0.3,0.3-0.4v-0.1c-0.3-0.2-0.6-0.4-0.9-0.6c0,0-0.1,0-0.2,0c-0.4,0.1-0.8,0.2-1.2,0.2
		c-0.2,0-0.5,0-0.7,0.1c-0.4,0.1-0.8,0.1-1.2,0.1c-0.3,0-0.7,0-1,0c-0.1,0-0.2,0-0.3,0.1l-0.7,0.6v0.1c0.4,0.2,0.8,0.5,1.2,0.6
		c0,0,0.1,0,0.2,0c0.1-0.1,0.2-0.2,0.3-0.2l0.2,0l0.1,0.2c0,0.1-0.1,0.2-0.1,0.3l-0.1,0.2c0.3,0.3,0.3,0.7,0.4,1.2
		c0,0.3,0.2,0.7,0.5,0.9c0.1,0.1,0.2,0.2,0.1,0.4c0,0.2,0,0.3,0,0.5c0.1,0.5,0,0.9-0.3,1.3c0,0.1,0,0.2,0,0.2
		c0.1,0.1,0.1,0.2,0.1,0.3c-0.1,0.6-0.2,1.1,0,1.6c0.1,0.5,0.2,1,0.1,1.5c-0.1,0.2,0,0.5,0,0.7c0,0.1,0,0.3,0,0.5
		c0,0.2,0.1,0.4,0.1,0.7c0,0.2-0.1,0.5-0.3,0.7c0,0.1-0.1,0.2-0.3,0.3c-0.2,0.1-0.3,0.3-0.3,0.6l-0.1,0.1c-0.2,0-0.3,0.1-0.5,0
		c-0.1,0-0.2-0.1-0.3-0.1c-0.3-0.3-0.7-0.3-1.1-0.3c-0.1,0-0.3,0.1-0.5,0.1c-0.3,0-0.6,0-0.8,0.2c-0.1,0.1-0.2,0.1-0.3,0.1
		c-0.7,0-1.4,0.4-2.1,0.3c-0.1,0-0.2,0-0.3,0c-0.4,0.2-0.9,0.1-1.4,0.3l-1.3,0.4c-0.2,0-0.4,0-0.6,0c-0.3-0.1-0.6-0.1-0.8,0
		c-0.4,0.1-0.7,0.3-1.1,0.2c-0.1,0-0.2,0-0.2-0.1c0-0.1,0-0.2,0-0.4v-1.6c0.2-0.6,0-1.2,0-1.7c0-0.2,0-0.4,0-0.6
		c0.1-0.4,0-0.7-0.1-1.1c0-0.1,0-0.2,0-0.4c0-0.2,0-0.4,0.1-0.6c0.2-0.7,0.2-1.4,0.1-2.2c0-0.1,0-0.2,0-0.3c0.1-0.9,0.1-1.8-0.1-2.6
		c-0.1-0.6,0-1.1,0.3-1.6c0.3-0.4,0.4-0.9,0.7-1.3c0-0.1,0-0.2-0.2-0.2c-0.5,0-1.1,0-1.6,0c-0.6,0-1.2,0-1.7,0c-0.2,0-0.4,0-0.6,0.1
		c-0.3,0.1-0.5,0.4-0.3,0.7c0.1,0.2,0.2,0.5,0.4,0.7c0.1,0.2,0.2,0.4,0.1,0.6c-0.2,0.5-0.1,1.1,0,1.6c0,0.1,0.1,0.3,0,0.5
		c-0.1,0.5,0,0.9,0.2,1.4c0.1,0.1,0.1,0.3,0,0.5c0,0.2,0,0.3,0.1,0.5c0.1,0.1,0.2,0.3,0.2,0.5c0,0.3,0,0.6,0,0.8
		c-0.2,0.7-0.2,1.4-0.1,2c0,0.4,0.2,0.8,0,1.2c0,0.1,0,0.2,0,0.4c0,0.1,0.1,0.3,0,0.5c-0.1,0.4-0.1,0.7-0.1,1.1c0,0.4,0,0.7-0.1,1.1
		c0,0.4-0.1,0.8,0,1.2c0.1,0.4,0,0.6-0.3,0.7l0,0.1v0.1c0.3,0.3,0.3,0.8,0.4,1.2c0.1,0.2,0.1,0.4,0,0.6c-0.1,0.3-0.3,0.7-0.2,1
		c0,0.4-0.1,0.7,0,1.1c0.1,0.2,0,0.6,0,0.8c-0.1,0.2-0.1,0.3,0,0.5c0.1,0.3,0.1,0.6,0,1c-0.1,0.3-0.1,0.7,0,1.1
		c0.2,0.7,0.2,1.3,0.2,1.9c0,0.6,0,1.1-0.3,1.6c-0.1,0.2-0.1,0.5-0.2,0.7c-0.1,0.5-0.4,0.9-0.7,1.3l-0.6,0.5c-0.1,0,0,0.3,0,0.3
		C161.3,334.2,161.5,334.4,161.9,334.4z M154.6,306L154.6,306c-0.1-0.4,0.1-0.7,0.4-0.8l0.2,0c0,0,0.1,0.1,0,0.2
		c-0.1,0.1-0.2,0.3-0.4,0.4C154.8,305.9,154.7,306,154.6,306z M148.7,333.7c0.6,0.1,1.3,0.1,1.9,0c1.2-0.3,2.3-0.8,3.1-1.8
		c0.2-0.2,0.4-0.4,0.6-0.5c0.5-0.3,0.8-0.7,1.1-1.2c0.1-0.2,0.2-0.4,0.2-0.7c0-0.5,0.2-0.8,0.6-1c0.4-0.2,0.7-0.5,1-0.7
		c0.1,0,0.2-0.2,0.1-0.3c0-0.1-0.1-0.2-0.3-0.2l-0.5-0.1c-0.2-0.1-0.4,0-0.6,0l-0.1,0c-0.1,0.1-0.3,0.1-0.5,0
		c-0.4-0.3-0.9-0.4-1.4-0.7c-0.3-0.2-0.8,0-1,0.4c0,0.2-0.1,0.4-0.1,0.7c0,0.7-0.3,1.2-0.6,1.7c-0.3,0.5-0.7,0.9-1.2,1.1
		c-0.5,0.2-1,0.4-1.5,0.6c-0.1,0-0.2,0-0.3,0c-0.4-0.1-0.8,0-1.2-0.1c-0.4,0-0.8-0.2-1.3-0.2c-0.2,0-0.4-0.1-0.6-0.3
		c-0.2-0.2-0.5-0.3-0.7-0.5c-0.1-0.1-0.2-0.2-0.3-0.4c-0.1-0.1-0.1-0.2-0.2-0.3c0-0.3-0.2-0.6-0.5-0.7c-0.3-0.2-0.5-0.5-0.7-0.8
		c-0.1-0.4-0.3-0.8-0.6-1.2c-0.1-0.1-0.1-0.2-0.1-0.4c0-0.2-0.1-0.4-0.2-0.6c-0.1-0.2-0.2-0.4-0.3-0.7c-0.1-0.5-0.3-1-0.5-1.5
		c-0.1-0.4-0.2-0.8-0.1-1.2c0-0.1-0.1-0.2-0.2-0.3c-0.1-0.1-0.1-0.2-0.1-0.3c0-0.2,0.1-0.4,0.1-0.5c-0.2-0.5-0.1-1-0.2-1.5
		c0-0.6,0-1.2,0.2-1.8c0,0,0-0.1,0-0.2c0-0.4,0-0.7,0-1.1c0-0.4,0.2-0.7,0.2-1.1v-0.4c0-0.2,0.1-0.5,0.1-0.7
		c0.1-0.7,0.3-1.4,0.6-2.1l0.1-0.7c0-0.1,0-0.2,0.1-0.3c0.2-0.2,0.3-0.5,0.4-0.8c0-0.2,0.1-0.4,0.3-0.5c0.2-0.1,0.4-0.4,0.4-0.6
		c0-0.3,0.2-0.6,0.4-0.7c0.3-0.2,0.5-0.4,0.7-0.7s0.5-0.5,0.8-0.7c0.2-0.2,0.3-0.3,0.3-0.6c0.3-0.7,0.8-0.9,1.5-1
		c0.5,0,1-0.1,1.4-0.3c0.5-0.1,0.9-0.2,1.4-0.2c0.6,0,1.2,0,1.7,0.4c0.2,0.2,0.4,0.2,0.7,0.4s0.5,0.3,0.6,0.6
		c0.1,0.5,0.4,0.6,0.8,0.7c0.1,0,0.2,0.2,0,0.4c-0.1,0.1-0.2,0.2-0.2,0.4c0,0.1,0.1,0.3,0.2,0.4c0.1,0.1,0.4,0.2,0.6,0.1
		c0.1-0.1,0.3-0.2,0.3-0.4c0.1-0.3,0.1-0.6,0-0.8c0-0.2,0-0.3,0.1-0.5c0.1-0.1,0.1-0.2,0.1-0.3c0-0.2,0-0.5,0-0.7l0.1-0.8
		c0-0.1-0.1-0.2-0.1-0.2c-0.2-0.1-0.5-0.1-0.7-0.1c-0.3,0-0.7-0.1-0.9-0.3l-2.5-1.7c-0.2-0.1-0.4-0.2-0.7-0.1
		c-0.3,0.1-0.6,0.1-0.8,0c-0.2-0.1-0.5-0.1-0.7,0l-0.7,0.1c-1,0.1-1.9,0.4-2.6,1.1c-0.2,0.2-0.4,0.3-0.7,0.4c-0.2,0-0.4,0.2-0.6,0.4
		c-0.1,0.2-0.2,0.3-0.4,0.3c-0.4,0.1-0.7,0.4-0.8,0.7c-0.1,0.1-0.1,0.3-0.3,0.4c-0.5,0.4-0.7,1-0.9,1.6c-0.2,0.5-0.4,1-0.7,1.5
		c-0.6,1.1-1,2.1-1.3,3.3c0,0.3-0.2,0.6-0.3,0.8l-0.4,1.6c-0.2,0.6-0.2,1.3-0.4,1.9c-0.1,0.2-0.1,0.5-0.2,0.7c0,0.1,0,0.3,0,0.4
		c0.1,0.4,0.1,0.7,0,1.1c0,0.1,0,0.3,0,0.4c0.1,0.3,0,0.5,0,0.7c0,0.6-0.1,1.3,0,1.9c0.1,0.4,0.1,0.8,0.2,1.3c0,0.3,0,0.7,0.1,1
		c0.3,1.4,0.6,2.7,1.3,3.9l0,0.1c0.1,0.4,0.4,0.7,0.6,1.1c0.5,0.7,1,1.4,1.6,2c0.4,0.4,0.7,0.8,1.2,1.2c0.3,0.3,0.7,0.6,1.2,0.7
		c0.2,0,0.5,0.1,0.7,0.2C146.8,333.4,147.7,333.5,148.7,333.7z M115.1,333.4c0.5,0.1,0.9,0,1.4,0c0.1,0,0.2,0,0.4,0
		c0.3,0,0.7,0,0.9-0.2c0.3-0.2,0.7-0.2,1-0.3c0.6-0.1,1-0.4,1.4-0.8c0.2-0.3,0.5-0.6,0.8-0.8c0.6-0.4,0.8-1,1.3-1.5
		c0.1,0,0.1-0.1,0.1-0.2c0.1-0.5,0.4-0.8,0.4-1.4c0-0.1,0-0.3,0.1-0.5c0.1-0.7,0.5-1.4,0.5-2c0-0.1,0-0.2,0-0.2
		c0.3-0.4,0.3-0.8,0.1-1.2l-0.2-0.8c-0.1-0.3-0.1-0.7-0.2-1c0-0.2,0-0.4-0.2-0.4c-0.2,0-0.2,0.1-0.3,0.3l-0.3,0.4h-0.1l0-0.1
		c0.1-0.5,0.3-0.9,0.5-1.4c0.1-0.1,0.1-0.2,0-0.3c-0.2-0.4-0.5-0.7-0.6-1.1c-0.1-0.4-0.4-0.7-0.6-1.1c-0.3-0.6-0.7-1-1.2-1.4
		c-0.5-0.4-1-0.9-1.4-1.4c-0.2-0.3-0.6-0.6-1-0.7c-0.7-0.2-1.2-0.6-1.7-1c-0.6-0.5-1.1-1-1.7-1.4c-0.4-0.3-0.8-0.7-1.2-1
		c-0.5-0.4-0.9-0.9-1.3-1.4c-0.1-0.1-0.2-0.3-0.2-0.4c-0.1-0.4-0.3-0.8-0.3-1.2c0-0.7,0-1.4,0-2l0-0.2c0.4-1,1.2-1.6,2.1-2
		c0.5-0.2,1-0.3,1.6-0.4c0.4-0.1,0.8,0,1.1,0.2c0.4,0.3,1,0.5,1.4,0.8c0.2,0.1,0.4,0.3,0.6,0.5c0.3,0.4,0.7,0.7,1,1.2
		c0.1,0.2,0.2,0.4,0.3,0.7l0.3,1.1c0.1,0.4,0.7,0.7,1.1,0.6c0.2,0,0.4,0,0.6-0.1c0.4-0.1,0.7-0.4,0.8-0.7c0-0.1,0-0.1,0-0.2
		c-0.1-0.1-0.4-0.1-0.6-0.1l-0.1-0.1l0-0.1c0.4-0.2,0.8-0.5,1.1-0.8c0.2-0.3,0.3-0.6,0.5-0.9l0.2-0.3l0.1-0.2c0.1-0.1,0-0.4-0.1-0.5
		l-0.3-0.2c-0.3-0.2-0.7-0.4-1.1-0.3c-0.2,0-0.4,0-0.6-0.1c-0.3-0.2-0.7-0.4-0.9-0.7c-0.7-0.7-1.7-1.2-2.7-1.6
		c-0.3-0.1-0.6-0.2-0.9-0.4c-0.8-0.2-1.6-0.4-2.5-0.5c-0.5,0-1,0-1.4,0.2c-0.5,0.3-1.1,0.5-1.5,0.8c-0.2,0.2-0.4,0.3-0.6,0.4
		l-1.3,0.8c-0.1,0-0.1,0.1-0.2,0.2s-0.1,0.2,0,0.3c0.1,0.2,0.1,0.5,0,0.7c-0.1,0.2-0.3,0.4-0.5,0.5l-0.5,0.3
		c-0.2,0.1-0.3,0.3-0.3,0.5c0,0.1,0,0.3,0,0.4c0,0.4,0,0.8-0.1,1.3c-0.1,0.4,0,0.7,0.1,1.1l0.3,0.6c0.1,0.2,0,0.3-0.2,0.5
		c-0.1,0.1,0,0.2,0.1,0.3l0.3,0.1c0.1,0,0.2,0.1,0.1,0.3c-0.1,0.2-0.1,0.3,0,0.5c0.7,0.7,1.4,1.4,2,2.1c0.4,0.5,0.8,0.9,1.4,1.3
		l0.4,0.3c0.3,0.4,0.7,0.7,1.2,0.9c0.1,0.1,0.3,0.1,0.4,0.3c0.3,0.4,0.7,0.6,1.2,0.9c0.2,0.1,0.4,0.2,0.5,0.4
		c0.2,0.2,0.4,0.4,0.7,0.5c0.2,0.2,0.5,0.3,0.7,0.6l1.4,1.4c0.1,0.1,0.1,0.2,0.2,0.3c0.5,0.6,0.7,1.4,1,2c0,0.1,0,0.2,0,0.2
		c0.1,0.5,0.2,1,0.3,1.5c0,0.2,0,0.5,0,0.7c0,0.9-0.2,1.9-0.3,2.8c0,0.4-0.2,0.7-0.5,1c-0.3,0.3-0.5,0.7-0.7,1
		c-0.1,0.1-0.2,0.3-0.3,0.4c-0.4,0.2-0.7,0.5-0.9,0.9c0,0-0.1,0.1-0.2,0.1c-0.6,0-1.2,0.2-1.7,0.3c-0.2,0-0.3,0.1-0.5,0.1
		c-0.3,0-0.7,0-0.9-0.3c-0.9-0.8-1.7-1.6-2.2-2.7l-0.3-0.6c-0.4-0.7-0.7-1.4-0.8-2.1v-0.7c0-0.1-0.1-0.2-0.2-0.3
		c-0.1-0.1-0.3-0.2-0.6-0.1c-0.2,0.2-0.5,0.3-0.7,0.5c-0.1,0.2-0.4,0.4-0.6,0.4c-0.2,0.1-0.3,0.2-0.4,0.3l-0.4,0.8
		c-0.2,0.3-0.4,0.7-0.6,1c-0.1,0.2-0.1,0.5,0,0.7c0.1,0.2,0.3,0.4,0.6,0.3c0.2-0.1,0.4-0.1,0.5,0c0.5,0.5,0.9,1,1.3,1.6
		c0.3,0.5,0.7,0.9,1.1,1.3l0.6,0.5c0.6,0.5,1.1,0.9,1.9,1l0.5,0.1C114.2,333.3,114.7,333.3,115.1,333.4z M101,333.1h-2.2
		c-0.5,0-0.9,0-1.4,0.1c-0.2,0.1-0.6,0.1-0.8,0.1h-3.9c-0.4,0-0.8,0-1.2,0.1c-0.1,0-0.3,0-0.4,0c-0.2,0-0.4,0-0.6-0.1
		c-0.6,0.2-1.2,0-1.7,0.3c-0.3,0.1-0.6,0.1-0.9,0.1c-0.4,0-0.8,0-1.2,0.1s-0.7,0.1-1.1,0c-0.4-0.1-0.7-0.2-1-0.4
		c-0.1-0.1-0.1-0.1-0.1-0.2c0.1-0.2,0.3-0.5,0.4-0.7c0.2-0.4,0.4-0.7,0.5-1.2c0.1-0.7,0.3-1.5,0.6-2.3c0.1-0.3,0.2-0.7,0-1
		c0.1-0.5,0-1,0-1.5c0-0.1,0-0.3,0-0.5c0.1-0.4,0.1-0.8,0.1-1.3l-0.1-0.8c-0.1-0.3-0.1-0.6,0-0.9c0.1-0.3,0.1-0.6,0-0.8
		c0-0.1,0-0.2,0-0.4c0.1-0.3,0-0.6-0.2-0.8c-0.1,0-0.1-0.2-0.2-0.3c0,0,0-0.2,0.1-0.3l0.2-0.1c0.2-0.1,0.2-0.2,0-0.4
		c0-0.1-0.1-0.2-0.1-0.3c0.1-0.3,0.2-0.6,0.2-0.8c0-0.2,0.1-0.3,0.1-0.5c0-0.3,0-0.6-0.2-0.8c-0.2-0.3-0.3-0.6-0.2-1
		c0-0.2,0-0.4,0-0.6c-0.1-0.3,0-0.7,0.2-0.9l0-0.2c0-0.2-0.1-0.3-0.2-0.5c0-0.1-0.1-0.3,0-0.4c0.1-0.3,0-0.6,0-0.8
		c0-0.3,0.1-0.5,0-0.7c0-0.2,0-0.3,0-0.5c0.1-0.6,0.1-1.2-0.1-1.9c0-0.1,0-0.2,0-0.3c0.2-0.5,0.2-1,0-1.5c-0.1-0.1-0.1-0.3,0-0.5
		c0.1-0.3,0.1-0.6,0-0.8l-0.1-0.4c-0.1-0.2-0.1-0.4,0-0.6c0.2-0.5,0.2-1,0-1.4c-0.1-0.4-0.2-0.7-0.1-1.1c0.1-0.3,0-0.7,0-1l-0.4-1.7
		c0-0.1,0.1-0.3,0.3-0.3c0.2,0,0.4,0,0.6,0c0.4,0,0.7,0,1.1-0.1c0.3-0.1,0.7-0.1,1,0c0.3,0,0.6,0.2,0.7,0.5l0,0.1
		c0.2,0.7,0.3,0.7,0,1.4c-0.1,0.2-0.1,0.5-0.1,0.7c0.2,0.8,0.2,1.6,0,2.4c-0.1,0.1-0.1,0.3,0,0.5c0.1,0.2,0.2,0.5,0.1,0.7
		c0,0.4-0.2,0.7-0.2,1.1c0,0.3,0.2,0.6,0.2,0.9c0,0.3,0,0.6-0.1,0.9c0,0.2-0.1,0.4,0,0.6c0.1,0.2,0.1,0.5,0,0.7
		c-0.1,0.3-0.1,0.7,0,1.1c0.1,0.4,0,0.7,0.1,1.1c0.1,0.4,0.1,0.8-0.1,1.2c0,0.2,0,0.3,0,0.5c0.1,0.3,0.1,0.6,0,0.8
		c0,0.2,0,0.4-0.1,0.6c-0.1,0.3,0,0.6,0,0.9c0,0.1,0.1,0.2,0,0.4c-0.2,0.4,0,0.8,0,1.2c-0.1,0.3-0.1,0.7,0,1l0,0.5
		c0,0.1-0.1,0.2-0.1,0.3c0,0.3,0.1,0.6,0.1,0.8c0,0.2-0.1,0.5-0.1,0.7c0.1,0.3,0,0.7,0,1v0.2c0,0.5,0.2,1,0,1.5v2.9
		c0,0.4,0,0.8,0.1,1.2c0,0.1,0,0.3,0,0.4c0,0.2-0.1,0.4-0.1,0.7c0,0.4,0.3,0.7,0.7,0.7h2.5c0.2,0,0.4,0,0.6,0.1
		c0.4,0.2,0.8,0,1.2,0.1c0.4,0.1,0.7,0.1,1.1,0.1s0.7,0,1,0.1c0.2,0.1,0.4,0,0.7,0c0.1,0,0.2-0.1,0.3,0c0.4,0.2,0.8,0,1.2,0
		c0.2,0,0.4,0,0.7,0c0.3,0,1.1,0,1.3-0.2c0.3-0.2,0.6-0.3,0.9-0.4l0.6-0.3c0.3-0.1,0.6-0.3,0.6-0.7c0-0.1,0.1-0.2,0.2-0.3
		c0.2-0.2,0.5-0.3,0.7-0.5c0.1,0,0.3,0,0.3,0.1c0,0.1,0,0.3,0,0.4c0,0.2-0.1,0.4-0.2,0.6c0,0.1,0,0.3,0.1,0.4l0,0.1
		c0.6,0.5,0.8,1.1,0.9,1.7c0.1,0.4,0,0.7-0.3,0.9c-0.1,0-0.1,0.1-0.2,0.1c-0.2,0.2-0.4,0.3-0.7,0.3C102,333.1,101.5,333.1,101,333.1
		z M76.5,334c0.2,0,0.3,0,0.5,0c0.1,0,0.3-0.1,0.4-0.2c0.3-0.2,0.7-0.2,1.1-0.1c0.3,0.1,0.6,0.2,0.8,0.4c0.2,0,0.6-0.1,0.7-0.3v-0.2
		c-0.2-0.3-0.4-0.5-0.6-0.8c-0.1-0.2-0.2-0.5,0-0.7l0-0.1c0.1-0.3,0.2-0.5,0.1-0.8c-0.2-0.4-0.1-0.8,0-1.2c0-0.2,0.2-0.5,0.1-0.7
		c-0.1-0.3,0-0.6,0-0.8c-0.2-0.5-0.2-0.9-0.2-1.4v-3.9c0-0.6,0.1-1.2-0.1-1.7v-0.3c0.2-0.6,0.1-1.2,0.1-1.9c0-0.4,0-0.7,0.1-1.1
		c0.1-0.4,0.1-0.9,0.1-1.4l0-5.4c0-1.4,0-2.7,0-4.1c0-0.4,0-0.7-0.1-1.1c-0.2-0.4,0-0.7,0-1.1c0-0.2,0.2-0.4,0.4-0.5
		c0.2-0.1,0.4-0.4,0.6-0.7c0.1-0.2,0-0.6-0.3-0.6c-0.1,0-0.2-0.1-0.4-0.1c-0.2,0-0.5,0-0.7,0c-0.3-0.1-0.6,0-0.8,0.1
		c-0.7,0.3-1.4,0.3-2,0l-0.4-0.1c-0.1,0-0.2,0-0.3,0c-0.3,0.3-0.4,0.4-0.2,0.7c0.1,0.3,0.3,0.6,0.5,0.9c0.1,0.2,0.2,0.5,0.2,0.8
		c0,0.5,0.2,1,0.1,1.5c0.2,0.4,0.2,0.8,0.2,1.2v5.5c0,0.2,0,0.5-0.1,0.7c0,0.2,0,0.4,0,0.6c0.1,0.3,0,0.7,0,1
		c-0.1,0.3-0.1,0.6,0,0.8c0.1,0.4,0.1,0.7,0,1.1c-0.2,0.5-0.1,1.1-0.1,1.6c0.1,0.3,0,0.7,0.1,1c0.1,0.5,0.1,1-0.1,1.4
		c0,0.2,0,0.4,0,0.5c0.2,0.2,0.3,0.5,0.2,0.8c-0.1,0.3,0,0.6,0,0.9c0,0.5,0,1.1-0.2,1.6c0,0.2,0,0.4,0,0.7c0,0.1,0,0.3,0,0.5
		c-0.1,0.4,0.1,0.7,0,1.1c0,0.2,0.1,0.4,0.1,0.6c0,0.2,0,0.5,0,0.7c-0.1,0.5-0.2,0.9-0.2,1.4c0,0.7,0,1.3-0.2,1.9v1
		C76,333.8,76.2,334,76.5,334z M51.5,303l1.5,0h1.4c0.1,0,0.2,0.1,0.3,0.2c0,0,0,0.3-0.1,0.3c-0.4,0.2-0.7,0.7-0.9,1
		c-0.1,0.2-0.1,0.5,0,0.7c0.4,0.4,0.6,0.8,0.9,1.2c0.1,0.1,0.1,0.3,0.1,0.5c0,0.1,0,0.2,0,0.4c0,0.2,0.2,0.5,0.2,0.7
		c0,0.3,0,0.6-0.1,0.9c0,0.1,0,0.3,0.1,0.4l0.2,0.3c0.2,0.2,0.3,0.4,0.3,0.7c0,0.4,0.2,0.8,0.1,1.2c0.2,0.8,0.3,1.6,0.7,2.2
		c0.2,0.3,0.3,0.7,0.3,1.1c0,0.3,0,0.7,0.3,0.9c0,0,0,0.1,0,0.2c0,0.7,0.3,1.4,0.5,2.2l0.1,0.7c0.4,0.5,0.4,1.1,0.5,1.6
		c0,0.4,0.2,0.9,0.4,1.3c0.1,0.2,0.2,0.5,0.3,0.8c0,0.2,0.1,0.5,0.2,0.7c0.1,0.2,0.2,0.5,0.2,0.8c0,0.3,0.1,0.7,0.3,0.9l0.7,1.4
		c0.2,0.3,0.3,0.7,0.3,1.1l0.1,0.1l0.1-0.1c0.1-0.2,0.2-0.4,0.4-0.7c0.2-0.3,0.4-0.6,0.5-1c0-0.1,0-0.3,0.1-0.4
		c0.1-0.2,0.2-0.4,0.2-0.6c0.1-0.5,0.2-1,0.4-1.4c0.2-0.8,0.4-1.5,0.6-2.3s0.4-1.6,0.6-2.4c0-0.2,0.1-0.3,0.1-0.5
		c0-0.6,0.2-1.2,0.3-1.7c0-0.4,0.2-0.7,0.2-1.1c0-0.2,0.1-0.4,0.1-0.6l0.6-1.8c0-0.1,0-0.1,0.2,0h0.1l0.1-0.1c0-0.1,0-0.3-0.1-0.5
		c-0.1-0.3-0.1-0.6,0-0.9c0.3-0.8,0.5-1.7,0.7-2.7c0.1-0.3,0.2-0.6,0.3-0.9c0.1-0.5,0.3-0.9,0.4-1.4c0-0.1,0.1-0.3,0.1-0.5
		c0.2-0.4,0.3-0.8,0.3-1.2c0-0.3,0.1-0.6,0.2-0.8l-0.1-0.2l-0.3-0.1l-0.6-0.3c-0.2-0.1-0.2-0.5,0-0.7c0.2-0.1,0.4-0.2,0.7-0.3h1
		c0.7,0,1.3,0,1.9-0.2c0.5-0.1,1,0,1.4,0.3c0.1,0.1,0.2,0.2,0.1,0.3l-0.1,0.1c-0.7,0.4-1.1,1-1,1.9c0,0.6-0.2,1-0.5,1.5l-0.4,0.8
		c0,0.2-0.1,0.3,0,0.5c0.1,0.2,0.1,0.4,0,0.6l-0.3,0.6c-0.2,0.4-0.3,0.8-0.4,1.3c-0.6,1.6-0.9,3.3-1.5,4.9c-0.4,1-0.6,2.1-0.8,3.1
		c-0.2,0.9-0.6,1.9-0.9,2.7c-0.1,0.4-0.4,0.8-0.7,1.2c-0.1,0.2-0.2,0.4-0.1,0.7c0,0.1,0,0.2,0,0.2c-0.2,0.2-0.3,0.5-0.3,0.8
		l-0.1,0.5c-0.2,0.4-0.3,0.8-0.4,1.3c-0.2,0.5-0.2,1,0,1.6c0.1,0.2,0.1,0.6,0,0.8c-0.1,0.4-0.1,0.8-0.2,1.2c-0.1,0.4-0.1,0.7,0,1
		c0.1,0.3,0.1,0.7,0,1l-0.2,0.7c0,0.1,0,0.2,0,0.4l0.2,1.1l-0.1,0.2c-0.1,0.1-0.3,0.1-0.5,0.1l-1.2-0.4c-0.3-0.1-0.6-0.1-0.8,0.1
		l-0.2,0.1c-0.3,0.1-0.6,0.1-0.9,0.1c-0.1,0-0.3-0.2-0.3-0.3l0-0.6c0-0.2,0-0.5-0.1-0.7c-0.1-0.4-0.2-0.8-0.1-1.2
		c0-0.4-0.1-0.7-0.2-1.1c-0.2-0.7-0.6-1.4-0.7-2.1c-0.3-0.7-0.6-1.4-0.8-2.1c-0.2-0.5-0.4-0.9-0.5-1.4c0-0.1-0.1-0.2-0.2-0.3
		c-0.1-0.1-0.1-0.2-0.1-0.3c0-0.8-0.2-1.7-0.6-2.4l-0.4-0.8c-0.2-0.4-0.4-0.8-0.5-1.3c0-0.2-0.1-0.3-0.2-0.5c0-0.1-0.1-0.2-0.1-0.3
		c0.1-0.3,0-0.7-0.1-1c-0.1-0.6-0.4-1.1-0.3-1.7c0-0.1,0-0.2-0.1-0.3c-0.3-0.5-0.3-1.1-0.7-1.6c0-0.1,0-0.3,0-0.4c0-0.1,0-0.3,0-0.4
		c-0.2-0.3-0.3-0.6-0.3-0.9c0-0.2,0-0.4-0.1-0.6c-0.3-0.6-0.5-1.2-0.7-1.9c-0.1-0.5-0.2-0.9-0.5-1.3c-0.2-0.4-0.4-0.8-0.4-1.3
		c0-0.6-0.3-1.1-0.3-1.7l-0.3-0.7c-0.1-0.1-0.2-0.2-0.4-0.3c-0.3-0.1-0.6-0.1-0.9-0.2c-0.2-0.1-0.5,0-0.7,0c-0.3,0-0.4,0-0.5-0.2
		c-0.1-0.2,0-0.3,0-0.3l0.8-0.2c0.1,0,0.2,0,0.3,0C50.3,303.2,50.9,303.2,51.5,303z M28.9,327.6c-0.1,0-0.2-0.1-0.2-0.2l0-0.1
		c0-0.2,0.1-0.5,0.1-0.7c0-0.2-0.1-0.4-0.1-0.6c0-0.2,0-0.5,0-0.7c0.2-0.4,0.2-0.7,0.1-1.1l0.1-0.2c0.1,0,0.2,0,0.2,0.1
		c0,0.4,0,0.8,0.1,1.3c0.1,0.4-0.1,0.7,0.1,1.1c0,0.1,0,0.2,0,0.3c0,0.3-0.1,0.6-0.2,0.8L28.9,327.6z M28.9,322.6
		c-0.1,0-0.1,0-0.2-0.1c0-0.1-0.1-0.2-0.1-0.3v-0.7c-0.1-0.5,0.1-1,0.1-1.5l0-0.1c0.1,0,0.2-0.1,0.2-0.1c0.1,0,0.2,0.1,0.2,0.1
		c-0.1,0.4,0.1,0.7,0,1.1C29.4,321.5,29.1,322,28.9,322.6L28.9,322.6z M28.7,317.3c-0.1,0-0.3,0-0.3-0.1v-0.1
		c0.1-0.1,0.2-0.2,0.4-0.1l0,0.1C28.9,317.2,28.9,317.3,28.7,317.3z M29,315.7c-0.1,0-0.2-0.1-0.3-0.2c0-0.1,0-0.1,0-0.2h0.1
		c0.1,0,0.3,0.1,0.3,0.3v0.1C29.2,315.8,29.1,315.8,29,315.7z M28.9,314.3c-0.1,0-0.2,0-0.2-0.1c-0.1-0.3,0-0.8,0.4-1l0.2,0.1
		c0,0.2,0,0.5-0.1,0.7C29.1,314.2,29,314.3,28.9,314.3z M30.1,334.1c0.3-0.1,0.6-0.1,0.8-0.1h3.8c0.7,0,1.4,0,2,0s1.3,0,1.9,0
		c0.7,0,1.4-0.3,2-0.1c0.1,0,0.2,0,0.2,0c0.3-0.1,0.7-0.1,1-0.1h1.9c0.1,0,0.3,0,0.5-0.1c0.3,0,0.4-0.4,0.3-0.6
		c-0.1-0.1-0.1-0.2-0.2-0.3c-0.2-0.5-0.2-0.9,0-1.4l0.5-0.7c0.1-0.2,0.1-0.3,0-0.5c0-0.1-0.2-0.1-0.3-0.1c-0.3,0.1-0.6,0.2-0.9,0.3
		c-0.4,0.1-0.7,0.2-1.1,0.3c-0.7,0.2-1.4,0.4-2.1,0.2c-0.2,0-0.4,0-0.6,0.1c-0.3,0.1-0.6,0.1-0.9,0.1h-1.5c-0.5,0-0.9,0-1.4,0.2
		c-0.2,0-0.4,0-0.7,0c-0.3,0-0.6,0.1-0.8,0.1h-0.9c0,0-0.1,0-0.2-0.1c-0.2-0.2-0.5-0.2-0.7-0.2s-0.4,0-0.6-0.2
		c-0.2-0.2-0.6-0.3-0.7-0.7c-0.1-0.3,0-0.6-0.1-0.8c0-0.1,0-0.3-0.1-0.4c0-0.1,0-0.3,0-0.4c0.1-0.7,0.1-1.3,0.1-1.9v-5.5
		c0-0.5,0.1-1,0.2-1.5c0.1-0.6,0.5-0.9,1.1-1c0.3-0.1,0.7-0.2,1.1-0.1c0.2,0.1,0.4,0,0.6-0.2c0.1-0.2,0.3-0.3,0.6-0.2
		c0.2,0.1,0.3,0,0.3-0.2l0.2-0.1c0.6,0,1.3-0.1,1.9,0c0.2,0,0.5,0.1,0.7,0.4c0.3,0.1,0.5,0.3,0.8,0.3h1.5c0.7,0,1.3,0,1.9,0.1
		c0.1,0,0.3-0.2,0.3-0.3c0-0.2,0-0.4-0.1-0.6c-0.1-0.4,0-0.7,0.1-1.1c0.1-0.2,0.2-0.4,0.5-0.6c0.2-0.1,0.2-0.2,0.1-0.3
		c0,0-0.1-0.1-0.2-0.1c-0.6-0.1-1.1-0.1-1.6,0c-0.3,0.1-0.7,0.3-1.1,0.3c-0.6,0-1.1,0.2-1.7,0.4c-0.2,0-0.3,0.1-0.5,0.1
		c-0.6,0.1-1.2,0-1.9-0.1l-0.2-0.1c-0.2-0.2-0.5-0.3-0.7-0.2c-0.1-0.1-0.3-0.2-0.4-0.2c-0.2,0-0.3,0-0.5,0c-0.2,0-0.4-0.1-0.6-0.2
		c-0.2-0.1-0.5,0-0.7,0.1c-0.5,0.3-0.9,0.2-1.3-0.3c-0.1-0.1-0.2-0.3-0.2-0.5c0-0.3,0-0.7,0-1c0-0.9,0-1.8-0.2-2.6
		c0-0.2,0-0.4,0-0.5c0.1-0.5,0-0.9,0-1.4V308c0-0.3,0-0.6,0-0.9c-0.2-0.4,0-0.8-0.1-1.2c0-0.2,0.1-0.4,0.3-0.5
		c0.6-0.1,1.1-0.4,1.7-0.4c1.4,0,2.7,0,4.1,0c0.2,0,0.5,0,0.7,0.1c0.3,0.1,0.6,0.1,0.8,0.1c0.4,0,0.8,0,1.3,0h1.5
		c0.2,0,0.4-0.2,0.4-0.4c0-0.3,0-0.5,0-0.7c0-0.4,0-0.7,0.3-1.1c0.1-0.1,0.2-0.4,0.2-0.6c0,0,0-0.1-0.1-0.2c-0.3,0-0.6,0-0.8,0.1
		c-0.3,0.1-0.7,0.1-1,0.1h-1.5c-0.4,0-0.9,0-1.4,0.1c-0.5,0-1-0.1-1.5,0c-0.1,0-0.2,0-0.4,0c-0.1,0-0.3-0.1-0.5,0
		c-0.3,0.2-0.7,0.1-1,0c-0.6-0.1-1.2-0.1-1.8-0.1c-0.4,0-0.9,0-1.4-0.2c-0.4-0.1-0.7-0.1-1.1,0c-0.6,0.2-1.2,0.2-1.7,0.2
		c-0.7,0-1.3,0-1.9,0.2h-0.4c-0.3,0-0.5,0.2-0.7,0.4c-0.1,0.1-0.2,0-0.3,0c-0.2-0.2-0.3-0.2-0.5,0l-0.1,0.1c0,0.1-0.1,0.3,0,0.4
		c0.1,0.2,0.3,0.4,0.6,0.4c0.1,0,0.3,0,0.5,0l0.4,0.1l1.4,1.2c0.2,0.2,0.3,0.5,0.4,0.8c0,0.2,0,0.5,0,0.7v4.5l0.2,1.2
		c0,0.3,0,0.4-0.2,0.6c-0.2,0.2-0.2,0.4-0.1,0.7c0.1,0.1,0.1,0.3,0,0.5c-0.2,0.3,0,0.7-0.1,1c-0.1,0.4,0,0.7,0.1,1
		c0,0.2,0,0.4,0,0.7v1.3c0,0.5,0.2,1,0.1,1.5c0.2,0.5,0.1,1,0.2,1.4c0,0.7-0.1,1.3,0.1,1.9c0,0.1,0,0.2,0,0.4c0,0.2,0,0.4,0,0.6v3.3
		c0,0.2,0,0.4,0,0.6c0.1,0.3,0,0.5,0,0.7l0,0.1c0,0.1,0.1,0.2,0.2,0.1c0.4-0.1,0.4-0.1,0.5,0.3v0.1c0,0.4,0,0.7-0.3,0.9
		c-0.1,0-0.1,0.2-0.1,0.3c-0.1,0.5-0.3,0.9-0.6,1.4c-0.2,0.4-0.5,0.7-0.9,0.8l-1.4,0.6c-0.1,0-0.1,0.2,0,0.3
		c0.1,0.1,0.3,0.2,0.5,0.2c0.4,0,0.9,0,1.4,0c0.3,0,0.7,0,1,0.1C29,334.3,29.6,334.3,30.1,334.1z M9.9,329.3c-0.1,0-0.3-0.1-0.4-0.3
		c-0.1-0.2,0-0.5-0.1-0.7c-0.2-0.7-0.2-1.4-0.2-2.1l0-1.9c0-0.2,0-0.5,0-0.7c-0.2-0.5-0.2-1-0.2-1.5c0-0.5,0-0.9-0.2-1.4
		c0-0.2-0.1-0.5,0-0.7c0-0.9-0.2-1.8-0.4-2.7c-0.1-0.4-0.1-0.8-0.1-1.2c0-0.6,0-1.2,0-1.8c0-0.5,0-0.9-0.1-1.4
		c-0.1-0.3-0.1-0.6,0-0.9c0.2-0.7,0.2-1.3,0.1-2c0-0.2,0-0.4,0-0.7c0-0.1,0-0.2-0.1-0.3c-0.1-0.1-0.1-0.2,0-0.2
		c0.3-0.2,0.3-0.6,0.2-0.9c0-0.2,0-0.4-0.1-0.6c-0.1-0.5-0.1-0.9,0-1.4c0-0.2,0-0.4,0.1-0.6c0-0.1,0.1-0.2,0.2-0.3
		c0.3-0.1,0.7,0,1,0H10c0.3,0,0.5,0,0.7,0.1c0.7,0.2,1.3,0.4,1.9,0.6c0.4,0.1,0.7,0.3,1.1,0.5c0.1,0.1,0.3,0.2,0.4,0.3
		c0.2,0.2,0.3,0.4,0.6,0.5c0.2,0,0.4,0.2,0.5,0.3c0.2,0.4,0.5,0.7,0.7,1.1c0.1,0.3,0.3,0.7,0.6,0.9l0.2,0.4c0,0.1,0,0.3,0.1,0.4
		c0.5,0.6,0.7,1.4,1,2.1c0.1,0.1,0.1,0.3,0.1,0.5c0,0.5,0,1,0.2,1.5c0.1,0.2,0,0.5,0.1,0.7c0,0.7-0.1,1.4,0.1,2
		c0,0.1-0.1,0.3-0.1,0.5c0.1,0.7-0.1,1.3-0.3,2c-0.1,0.3-0.2,0.6-0.2,1c0,0.1-0.1,0.3-0.2,0.5c-0.3,0.3-0.4,0.8-0.7,1.1l-0.4,1.1
		c0,0.1,0,0.2,0.1,0.3c0.1,0.1,0,0.3-0.1,0.3c-0.3,0-0.6,0-0.7,0.4c0,0.1-0.1,0.1-0.2,0.2c-0.4,0.1-0.6,0.4-0.8,0.7
		c-0.2,0.3-0.5,0.6-0.8,0.8c-0.3,0.7-1.1,1.2-1.5,1.8c0,0.1-0.1,0.1-0.2,0.2c-0.7,0.5-1.4,1.1-2.2,1.4L9.9,329.3z M4.7,333.7
		c0.8,0,1.5-0.1,2.2-0.3c0.4-0.1,0.7-0.2,1.1-0.2c0.2,0,0.5,0,0.7-0.2c0.3-0.3,0.7-0.3,1.1-0.6c0.4-0.2,0.7-0.4,1.1-0.6l1.8-0.9
		c0.5-0.2,0.8-0.5,1.2-0.9c0.4-0.4,0.8-0.9,1.4-1.2c0.3-0.2,0.6-0.5,0.8-0.8c0.3-0.5,0.7-1.1,1.1-1.5s0.7-1,1-1.5
		c0.2-0.4,0.4-0.7,0.6-1.1c0.3-0.4,0.3-0.8,0.7-1.2c0.5-0.6,0.7-1.2,0.7-2c0-0.1,0-0.3,0.1-0.5c0.3-0.3,0.3-0.7,0.1-1
		c0-0.1,0-0.2,0-0.4c0.1-0.4,0.1-0.7,0.3-1.1c0.1-0.3,0.1-0.6,0.1-0.9c0-0.6,0-1.1,0-1.6c0-0.2,0-0.5-0.1-0.7
		c-0.1-0.3-0.1-0.7-0.1-1c0-0.2,0-0.5-0.1-0.7c-0.3-1.1-0.7-2.1-1.3-3.1c-0.1-0.2-0.3-0.5-0.4-0.7c-0.3-0.8-0.8-1.5-1.4-2.1
		c-0.7-0.5-1.3-1.3-2-1.9c-0.1-0.1-0.3-0.2-0.4-0.2c-0.3-0.1-0.5-0.2-0.7-0.4c-0.4-0.4-0.9-0.6-1.4-0.7c-0.6-0.1-1.1-0.3-1.7-0.5
		c-0.8-0.2-1.6-0.5-2.4-0.5c-0.2,0-0.4-0.1-0.6-0.1c-0.7-0.3-1.4-0.4-2.2-0.4c-0.4,0-0.7,0-1,0v0H3.2c-0.2,0-0.5,0-0.7,0
		c-0.5,0.2-1,0.2-1.5,0.2c-0.1,0-0.3,0-0.5,0.1c-0.1,0-0.2,0.1-0.3,0.2c-0.1,0.1-0.1,0.3,0,0.3l0.3,0.2c0.4,0.4,0.8,0.6,1.3,0.8
		c0.8,0.3,1.6,0.7,2.3,1.4c0.5,0.5,0.9,1,0.8,1.7v4.8c0,0.3,0,0.7,0.1,1c0.1,0.3,0.1,0.7,0.1,1.1c0,1,0,2,0,3.1c0,0.3,0,0.6,0,0.9
		c0.2,0.6,0.2,1.1,0.2,1.7c0,0.3,0,0.6,0.1,0.9c0.1,0.3,0.1,0.7,0.1,1.1c0,0.3,0,0.5,0.1,0.7c0,0.2,0,0.4,0,0.6c0,0.1,0,0.3,0,0.4
		c0.1,0.3,0.1,0.7,0.2,1c0.1,0.4,0.1,0.7,0,1.1c-0.1,0.2,0,0.5,0,0.7c0.1,0.2,0.1,0.5,0,0.7c0,0.1,0,0.3,0.1,0.4
		c0.2,0.2,0.2,0.5,0.2,0.8v1.2c0,0.5-0.1,1-0.3,1.4c0,0.2-0.2,0.5-0.4,0.6c-0.5,0.3-1,0.7-1.5,0.9c-0.6,0.2-1.1,0.6-1.6,1l0,0.1
		l0,0.1c0.3,0,0.6,0.1,0.9,0.2C3.9,333.6,4.3,333.6,4.7,333.7z"/>
</g>
</svg>
