<?xml version="1.0" encoding="utf-8"?>
<!-- Generator: Adobe Illustrator 25.4.1, SVG Export Plug-In . SVG Version: 6.00 Build 0)  -->
<svg version="1.1" id="_x33_0" xmlns="http://www.w3.org/2000/svg" xmlns:xlink="http://www.w3.org/1999/xlink" x="0px" y="0px"
	 viewBox="0 0 53.9 53.1" style="enable-background:new 0 0 53.9 53.1;" xml:space="preserve">
<style type="text/css">
	.st0{fill:#FFFFFF;}
	.st1{fill:#FF0000;}
	.st2{stroke:#FFFFFF;stroke-width:1.5;stroke-miterlimit:10;}
	.st3{fill:none;}
	.st4{stroke:#FFFFFF;stroke-miterlimit:10;}
</style>
<g>
	<path class="st0" d="M21.2,28.1c-0.6-0.3-1.2-0.8-1.7-1.4c-0.5-0.7-0.7-1.5-0.7-2.4v-3.5c0-1.6,0.7-3.2,2-4.2
		c1-0.7,2.2-1.2,3.4-1.2h6.9c1.2,0,2.4,0.4,3.4,1.2c1.3,1,2,2.6,2,4.2v3.5c0,0.9-0.2,1.7-0.7,2.4c-0.4,0.6-1,1.1-1.7,1.4l-0.8,0.4
		v2.7c0,1.3-0.7,2.5-1.9,3.1c-0.5,0.2-1,0.3-1.5,0.3h-4.4c-0.6,0-1-0.2-1.5-0.3c-1.1-0.6-1.9-1.8-1.9-3.1v-2.7L21.2,28.1z"/>
	<g>
		<path class="st1" d="M23.1,24.9c0.5,0,1-0.2,1.4-0.4l1.4-0.9c0.6-0.4,1-1.1,1-1.9s-0.4-1.5-1-1.9l-1.4-0.9
			c-0.3-0.2-0.8-0.4-1.3-0.4h-0.3c-1.4,0-2.4,1-2.4,2.4v0.3l0.2,0.2c0.2,0.2,0.2,0.3,0,0.5l-0.2,0.2v0.3c0,1.4,1,2.4,2.4,2.4H23.1z
			 M22,22.8c0.4-0.6,0.4-1.4,0-2.1c0.1-0.3,0.4-0.6,0.8-0.6h0.3c0.2,0,0.3,0.1,0.5,0.2l1.4,0.9c0.2,0.2,0.3,0.3,0.3,0.6
			s-0.1,0.5-0.3,0.6l-1.4,0.9c-0.2,0.1-0.3,0.2-0.5,0.2h-0.3C22.4,23.3,22.1,23.1,22,22.8z"/>
		<path class="st1" d="M29.5,23.7l1.4,0.9c0.4,0.2,0.9,0.4,1.4,0.4h0.2c1.4,0,2.4-1,2.4-2.4v-0.3L34.6,22c-0.2-0.2-0.2-0.3,0-0.5
			l0.2-0.2v-0.3c0-1.4-1-2.4-2.4-2.4h-0.3c-0.5,0-1,0.2-1.4,0.4l-1.4,0.9c-0.6,0.4-1,1.1-1,1.9S28.8,23.3,29.5,23.7z M30.4,21.2
			l1.4-0.9c0.2-0.1,0.3-0.2,0.5-0.2h0.2c0.4,0,0.6,0.2,0.8,0.6c-0.4,0.6-0.4,1.4,0,2.1c-0.1,0.3-0.4,0.6-0.8,0.6h-0.3
			c-0.2,0-0.3-0.1-0.5-0.2l-1.4-0.9C30.1,22.2,30,22,30,21.7S30.1,21.2,30.4,21.2z"/>
		<path class="st2" d="M17.9,2.7c-0.1-0.2-0.5-0.3-0.7-0.3c-2.3,0-4.3,1.3-5.4,3.4c-0.7,1.4-1,2.8-1,4.3c0,3.6,1.3,7.1,3.6,9.8
			L13,22.6c-0.4,0.9-0.6,1.9-0.6,2.8c0,1.4,0.5,2.8,1.4,3.9l4.1,5l-0.5,2.9l-0.6-0.4c-4.9-3.2-8.1-8.5-8.5-14.4L8,18.5l-2.1,6.4
			c-0.5,1.5-0.8,3.1-0.8,4.8c0,2.5,0.6,5,1.8,7.2c-1.7-0.2-3.2-0.6-3.2-0.6l-1.7-0.4l1.3,2.7c1.2,2.5,3.1,4.6,5.4,6.1
			c-0.9,1.1-2,2.1-3.4,2.7l-2.8,1.4l2.4,0.4c6,1,12,1.6,18,1.6h2.3c0,0.9,0.7,1.6,1.6,1.6h1.6c0.9,0,1.6-0.7,1.6-1.6h2.3
			c6,0,12.1-0.6,18-1.6l2.4-0.4l-2.8-1.4c-1.3-0.7-2.5-1.7-3.4-2.8c2.3-1.5,4.2-3.6,5.4-6.1l1.3-2.7l-1.6,0.5c0,0-1.5,0.4-3.2,0.6
			c1.2-2.2,1.8-4.7,1.8-7.2c0-1.6-0.2-3.2-0.8-4.8l-2.1-6.4L47,22.5c-0.5,5.9-3.6,11.2-8.5,14.4l-0.6,0.4l-0.5-2.9l4.1-5
			c0.9-1.1,1.4-2.5,1.4-3.9c0-1-0.2-1.9-0.6-2.8L40.9,20c2.3-2.7,3.6-6.2,3.6-9.8c0-1.5-0.3-3-1-4.4c-1-2-3.1-3.3-5.4-3.3
			c-0.2,0-0.6,0.2-0.7,0.4s-0.2,0.6,0,0.8l0.9,1.7c0.4,0.9,0.6,1.9,0.6,2.8c0,1.5-0.6,3-1.5,4.1l-3-5.4c-0.4-0.7-1.2-1.2-2-1.2
			c-0.7,0-1.4,0.3-1.9,0.9C29.4,8,27.7,9,25.8,9.2c-2.7,0.3-5.4,1.4-7.5,3.1l-0.2,0.2C17,11.3,16.3,9.7,16.3,8c0-1,0.2-2,0.6-2.8
			 M21.2,28.1c-0.6-0.3-1.2-0.8-1.7-1.4c-0.5-0.7-0.7-1.5-0.7-2.4v-3.5c0-1.6,0.7-3.2,2-4.2c1-0.7,2.2-1.2,3.4-1.2h6.9
			c1.2,0,2.4,0.4,3.4,1.2c1.3,1,2,2.6,2,4.2v3.5c0,0.9-0.2,1.7-0.7,2.4c-0.4,0.6-1,1.1-1.7,1.4l-0.8,0.4v2.7c0,1.3-0.7,2.5-1.9,3.1
			c-0.5,0.2-1,0.3-1.5,0.3h-4.4c-0.6,0-1-0.2-1.5-0.3c-1.1-0.6-1.9-1.8-1.9-3.1v-2.7L21.2,28.1z M22.9,49.1
			c-5.2,0-10.4-0.4-15.5-1.2c1-0.7,1.9-1.5,2.7-2.5c1.7,0.9,3.6,1.4,5.6,1.7l3.9,0.4l0.2-1.6l-3.9-0.4c-2.1-0.2-4.1-1-6-2.1
			c-2.1-1.3-3.8-3.1-4.9-5.2c0.9,0.2,1.9,0.3,3.1,0.4c0.1,0.2,0.2,0.2,0.3,0.4c1.8,2.3,4.3,3.9,7.2,4.5l3.9,0.8l0.3-1.6l-3.9-0.8
			c-2.5-0.5-4.8-1.9-6.3-3.9c-1.9-2.3-3-5.3-3-8.3c0-1.3,0.2-2.6,0.6-3.8c1.2,5,4.3,9.4,8.7,12.3l1.6,1l7.7,3.1v0.3h-1.6
			c-0.9,0-1.6,0.7-1.6,1.6v1.6c0,0.9,0.7,1.6,1.6,1.6h1.6v1.6H22.9z M28.4,50.7h-1.6v-4.8h-3.2v-1.6h3.2v-3.2h1.6v3.2h3.2v1.6h-3.2
			V50.7z M32.3,49.1H30v-1.6h1.6c0.9,0,1.6-0.7,1.6-1.6v-1.6c0-0.9-0.7-1.6-1.6-1.6H30v-0.2l7.6-3l1.8-1.1c4.4-2.9,7.5-7.3,8.7-12.3
			c0.3,1.2,0.6,2.5,0.6,3.8c0,3-1,6-2.8,8.3c-1.5,2-3.8,3.4-6.3,3.9l-3.9,0.8l0.3,1.6l3.9-0.8c2.9-0.6,5.5-2.2,7.2-4.5
			c0.1-0.2,0.2-0.2,0.3-0.4c1-0.1,2.2-0.2,3.1-0.4c-1.1,2.2-2.8,3.9-4.9,5.2c-1.8,1.1-3.9,1.9-6,2.1l-4,0.3l0.2,1.6l3.9-0.4
			c1.9-0.2,3.8-0.8,5.6-1.7c0.7,1,1.6,1.9,2.7,2.5C42.7,48.7,37.4,49.1,32.3,49.1z"/>
	</g>
	<rect x="24.2" y="28.4" class="st1" width="6.8" height="2.5"/>
	<path d="M22.9,49.1c-5.2,0-10.4-0.4-15.5-1.2c1-0.7,1.9-1.5,2.7-2.5c1.7,0.9,3.6,1.4,5.6,1.7l3.9,0.4l0.2-1.6l-3.9-0.4
		c-2.1-0.2-4.1-1-6-2.1c-2.1-1.3-3.8-3.1-4.9-5.2c0.9,0.2,1.9,0.3,3.1,0.4c0.1,0.2,0.2,0.2,0.3,0.4c1.8,2.3,4.3,3.9,7.2,4.5l3.9,0.8
		l0.3-1.6l-3.9-0.8c-2.5-0.5-4.8-1.9-6.3-3.9c-1.9-2.3-3-5.3-3-8.3c0-1.3,0.2-2.6,0.6-3.8c1.2,5,4.3,9.4,8.7,12.3l1.6,1l7.7,3.1v0.3
		h-1.6c-0.9,0-1.6,0.7-1.6,1.6v1.6c0,0.9,0.7,1.6,1.6,1.6h1.6v1.6H22.9z"/>
	<path d="M30,49v-1.6h1.6c0.9,0,1.6-0.7,1.6-1.6v-1.6c0-0.9-0.7-1.6-1.6-1.6H30v-0.2l7.7-3.1l1.6-1c4.4-2.9,7.5-7.3,8.7-12.3
		c0.3,1.2,0.6,2.5,0.6,3.8c0,3-1,6-2.8,8.3c-1.5,2-3.8,3.4-6.3,3.9l-3.9,0.8l0.3,1.6l3.9-0.8c2.9-0.6,5.5-2.2,7.2-4.5
		c0.1-0.2,0.2-0.2,0.3-0.4c1-0.1,2.2-0.2,3.1-0.4c-1.1,2.2-2.8,3.9-4.9,5.2c-1.8,1.1-3.9,1.9-6,2.1l-3.9,0.4l0.2,1.6l3.9-0.4
		c1.9-0.2,3.8-0.8,5.6-1.7c0.7,1,1.6,1.9,2.7,2.5C42.8,48.6,37.7,49,32.5,49L30,49L30,49z"/>
	<line class="st3" x1="28.4" y1="44.3" x2="31.6" y2="44.3"/>
	<polygon points="28.4,50.7 26.8,50.7 26.8,45.9 23.6,45.9 23.6,44.3 26.8,44.3 26.8,41.1 28.4,41.1 28.4,44.3 31.6,44.3 31.6,45.9 
		28.4,45.9 	"/>
	<line class="st4" x1="16.6" y1="5.7" x2="17.9" y2="2.7"/>
</g>
</svg>
