<?xml version="1.0" encoding="utf-8"?>
<!-- Generator: Adobe Illustrator 25.4.1, SVG Export Plug-In . SVG Version: 6.00 Build 0)  -->
<svg version="1.1" id="Layer_1" xmlns="http://www.w3.org/2000/svg" xmlns:xlink="http://www.w3.org/1999/xlink" x="0px" y="0px"
	 viewBox="0 0 600 600" style="enable-background:new 0 0 600 600;" xml:space="preserve">
<style type="text/css">
	.st0{fill:#8A9CFE;}
	.st1{fill:#FFFFFF;}
</style>
<circle class="st0" cx="300" cy="300" r="300"/>
<g>
	<path class="st1" d="M241.5,143.1c-35.5,10.9-69.2,25.3-99.1,49.3c102.5-48.9,204.2-51.3,306.1-1.4c-27.2-22-58.7-35.6-91.7-46.4
		c2.4-5,5.8-6.1,11.1-5.6c35.7,3.3,67.5,16.4,96.6,36.8c2.7,1.9,5.3,4.7,6.8,7.7c22.6,45.7,37.8,93.7,46.4,144
		c4,23.5,6.1,47.2,6.5,71c0.1,3-1.2,6.7-3.1,9.1c-19.1,24.8-44.5,40.2-74.5,47.9c-11.5,3-23.5,4-35.4,5.6c-1.8,0.3-4.6-0.4-5.7-1.6
		c-7.9-9.2-15.4-18.7-22.6-27.6c12.5-6.2,25.1-11.7,37-18.4c12-6.7,21.9-16.1,31.1-28.2c-100.1,57.8-199.2,56-299.1,0.4
		c8.1,11.6,17.9,20.4,29.4,27.1c11.4,6.6,23.6,12,35.8,18.2c-5.4,6.7-11.8,13.7-17,21.4c-4.8,7.2-10.5,9.4-19.1,8.4
		c-33.6-3.9-64-15.2-89.2-38.7c-0.7-0.7-1.4-1.4-2.2-2.1c-10.8-9.4-14.6-20.4-13.7-35.5c4.1-68,21-132.5,49.4-194.3
		c3.9-8.4,9.4-14.3,17.1-19.2c23.1-14.7,47.8-25.3,74.9-30c5.7-1,11.5-1.8,17.3-2c2.4-0.1,4.8,1.4,7.2,2.1
		C241.8,141.8,241.6,142.4,241.5,143.1z M228.3,367.6c8.8,0,16.6-2.8,23.4-8.4c11-9.1,15.2-21.1,16.1-35c1-15.1-4.3-26.8-16.6-35.1
		c-12.6-8.5-26.2-10-40.1-3.3c-17.3,8.4-26.4,30.7-20.8,50.8C195.5,355.3,210.6,367.6,228.3,367.6z M368.6,368.1c4.3-1,8.9-1.4,13-3
		c26.1-10,34.8-44.8,17.2-68.2c-14.2-18.8-40.8-20.6-57.2-3.8c-10.5,10.7-13.7,23.8-12,38.5C331.8,351.4,349.2,367.6,368.6,368.1z"
		/>
</g>
</svg>
