<?xml version="1.0" encoding="utf-8"?>
<!-- Generator: Adobe Illustrator 25.2.1, SVG Export Plug-In . SVG Version: 6.00 Build 0)  -->
<svg version="1.1" id="Layer_1" xmlns="http://www.w3.org/2000/svg" xmlns:xlink="http://www.w3.org/1999/xlink" x="0px" y="0px"
	 viewBox="0 0 300.1 64.6" style="enable-background:new 0 0 300.1 64.6;" xml:space="preserve">
<style type="text/css">
	.st0{fill:#ED2224;}
	.st1{fill:#FFFFFF;}
	.st2{stroke:#231F20;stroke-miterlimit:10;}
</style>
<g id="play-button-hover_14_">
	<g id="casee_84_" transform="matrix( 1, 0, 0, 1, 0,0) ">
		<g>
			<g transform="matrix( 1, 0, 0, 1, 0,0) ">
				<g>
					<g id="CaseMc_1_0_Layer0_0_FILL_6_">
						<path class="st0" d="M34.9,60.8L34.9,60.8c0.8,0,1.2,0.1,1.2,0.3c0.4,0,0.6-0.1,0.4-0.2c-0.1-0.1,0.1-0.1,0.7-0.1l0.2,0
							c-0.1,0-0.3,0-0.4-0.1c-0.1-0.1-0.2-0.1-0.3-0.1c-0.3,0-0.6,0-0.9,0.1l-0.2,0.1C35.2,60.7,35,60.7,34.9,60.8 M33.5,61l0.2,0
							c-1.2-0.1-1.8,0-1.8,0.2C32.7,61.2,33.2,61.1,33.5,61 M30.6,57.6c0.1,0.1,0.2,0.3,0.2,0.5c0.5-0.1,0.8-0.1,0.9-0.2
							c-0.7-0.1-0.9-0.2-0.6-0.3c0,0,0.1-0.1,0.2-0.1c0.4-0.1,0.4-0.2,0.1-0.2c-0.7,0-1,0.1-0.9,0.2C30.4,57.5,30.5,57.5,30.6,57.6
							 M32.8,55.2c0.3,0,0.5-0.1,0.6-0.1c0.1-0.1,0-0.1-0.1-0.1C32.8,54.8,32.6,54.9,32.8,55.2 M34,51.7l-0.2,0
							c0.8-0.2,0.6-0.2-0.6-0.2l-0.1,0.1c0.3,0.1,0.2,0.2-0.2,0.3c-0.7,0-0.8,0.1-0.4,0.3c0.5,0,0.9,0,1.2-0.1
							C34.2,51.8,34.4,51.7,34,51.7 M36.9,55.3c0.1,0,0.3,0,0.4,0c1.6-0.1,1.9-0.1,0.8-0.1c-0.5-0.1-0.8-0.1-1.2-0.2l-0.2,0
							c-1.4,0-2,0.2-1.9,0.5C35.6,55.4,36.3,55.4,36.9,55.3 M36.2,54.2C36.2,54.1,36.2,54.1,36.2,54.2c-1.6-0.1-2.1,0.1-1.5,0.3
							C35.6,54.5,36.1,54.4,36.2,54.2 M37.2,52.9c0.1,0,0.3,0,0.4,0l0.4,0c-0.1-0.1-0.6-0.1-1.4-0.2l-0.4,0
							C36.5,52.8,36.8,52.8,37.2,52.9 M35.8,51.1c0.3,0,0.5,0,0.8-0.1l0.2,0c0.3-0.2,0.2-0.3-0.2-0.3c-0.2,0-0.3-0.1-0.4-0.1
							c-0.4-0.1-0.8-0.1-1.4-0.1c-0.1,0-0.3,0-0.4,0c-0.7,0-1.1,0.1-1,0.2c0.1,0.2,0.5,0.4,1.2,0.5C35,51.2,35.5,51.1,35.8,51.1
							 M38.7,52.4c0.6,0,0.7,0,0.5,0c-0.2-0.1-0.8-0.1-1.8-0.1c-1.2,0-2.3,0-3.3,0c-0.7-0.1-1.3-0.1-1.6,0.1
							c0.1-0.2-0.1-0.2-0.5-0.2c-0.4,0-0.6,0-0.6-0.1l0,0c0.1,0.1-0.3,0.2-1,0.2c-0.4,0.1-0.1,0.2,0.8,0.3c0.3,0,0.5,0,0.6,0.1
							c0.4,0.1,0.8,0.3,1.1,0.4c0.2,0,0.2,0.1,0.2,0.1c0,0.2,0.3,0.3,0.7,0.2c0.9-0.1,1.5,0,1.7,0.1c0.1,0,0.2-0.1,0.3-0.1
							c0.5-0.1,0.5-0.2,0-0.3C35.3,53,34.6,53,33.9,53c0-0.2,0.3-0.3,0.7-0.3l0.2-0.1c-0.1,0-0.3,0-0.5,0c-0.6-0.1-0.6-0.1-0.2-0.1
							C35.5,52.5,37,52.5,38.7,52.4 M38.7,50.9c0.1,0,0.2,0,0.3,0c0.2,0,0.4,0,0.5,0c1.2,0,1.5-0.1,0.7-0.2l-0.2,0
							C39.5,50.7,39.1,50.8,38.7,50.9 M23,62.9c0.2,0,0.3,0,0.4,0c1.5-0.2,2.5-0.6,3-1l0,0C25.2,62.2,24,62.5,23,62.9 M23.7,53.9
							c-0.1-0.2,0.2-0.3,0.9-0.4c1-0.2,1.8-0.4,2.3-0.6c-1.7,0.2-3.4,0.5-5,0.8c-0.2,0-0.3,0-0.4,0c-0.3,0-0.5,0-0.7,0l0,0.3
							c0.1,0.1,0.2,0,0.3,0c0,0,0,0,0.1-0.1c0.8-0.1,1.4,0,1.7,0.2C23,54.1,23.4,54,23.7,53.9L23.7,53.9 M27.1,51.9
							c0.1,0,0.1-0.1,0.2-0.2c-0.1-0.1,0.1-0.1,0.5-0.1l0.4,0c0-0.1-0.1-0.1-0.4-0.2l-0.2,0C26.7,51.6,26.6,51.7,27.1,51.9
							 M28.4,52.6l0.1-0.1c-1.5,0.1-1.9,0.2-1.1,0.4C27.8,52.9,28.2,52.8,28.4,52.6 M28.5,52.3c0.1,0,0.2,0,0.3,0l0.2-0.1
							c-0.3-0.1-0.5-0.3-0.8-0.3l-0.1-0.1C27.6,52,27.7,52.2,28.5,52.3 M23.3,49.8c1.2,0,1.5-0.1,0.9-0.3L24,49.5
							c-0.4,0-0.8,0.1-1.2,0.1C22.4,49.6,22.6,49.7,23.3,49.8 M23.1,48.9c0.3,0,0.5,0,0.8,0l0.1,0c-0.5-0.2-1-0.2-1.4,0.1
							C22.8,49,23,48.9,23.1,48.9 M20.5,50.2c0.8,0,1,0,0.7-0.1c-0.3-0.2-0.1-0.3,0.6-0.4l0.1-0.1c0.3-0.1,0.2-0.2-0.2-0.2
							c-0.2,0-0.3,0-0.3,0c-0.2,0-0.3,0.1-0.3,0.1C21,49.9,20.9,50.1,20.5,50.2 M21.5,48l-0.3,0c0.1,0.1,0.4,0.2,0.9,0.3
							c0.1,0,0.2,0,0.2,0c0.6-0.1,1.2,0,1.8,0.1c0.9-0.1,0.7-0.1-0.5-0.2C23,48.1,22.3,48,21.5,48 M21.9,46c0.3,0,0.4,0,0.5-0.1
							c0.4-0.3,0.2-0.4-0.5-0.3C21.1,45.8,21.1,45.9,21.9,46 M24.3,45.6c0.4-0.1,0.8-0.1,1.1-0.2l0.2-0.1
							C24.7,45.2,24.3,45.3,24.3,45.6 M25.4,45.5l-0.1,0c0.3,0.1,0.6,0.2,1.1,0.2c0.8,0,1.4-0.1,1.6-0.2c0.1,0,0.1,0,0.1-0.1
							c-0.3-0.1-0.6-0.1-1,0C26.9,45.5,26.4,45.5,25.4,45.5 M24.6,46.3c0,0-0.1-0.1-0.2-0.1c-0.8,0.1-1.3,0.1-1.5,0
							c-0.1-0.1-0.1-0.1,0-0.1c0.2,0,0.3-0.1,0.4-0.1c0.5-0.2,0.4-0.2-0.2-0.1c-0.2,0-0.4,0.1-0.5,0.1c-0.3,0.1-0.4,0.2-0.3,0.3
							c0.1,0.1,0.5,0.2,1,0.3c0.2,0,0.3,0,0.4,0C24.6,46.5,24.9,46.5,24.6,46.3 M29.4,42.4c0.6,0.1,0.8,0,0.8-0.2
							c0-0.1,0-0.1-0.1-0.1C28.8,42,28.6,42.1,29.4,42.4 M26.4,44.1c0.3,0,0.5,0,0.6-0.1l0-0.1c-0.1-0.6-0.6-0.7-1.5-0.3l-0.2,0.1
							C26.1,43.6,26.4,43.7,26.4,44.1 M36.8,48L36.8,48c-0.3-0.1-0.9-0.1-1.7,0.1c-0.5,0.1-0.3,0.1,0.3,0.2
							C36.4,48.2,36.9,48.2,36.8,48 M33.3,49.8c-0.1-0.1-0.2-0.1-0.3-0.1c-0.9,0-1.2,0.1-0.7,0.3C33.3,50,33.6,50,33.3,49.8
							 M30.7,48.6l0.1-0.1c-0.4-0.1-0.7-0.2-1.1-0.3c0.1,0.2-0.4,0.2-1.6,0.2c-1,0-1.7,0-2.2-0.1l-0.2,0c0.4,0.1,1.1,0.3,2.1,0.3
							c0.2,0,0.3,0,0.3,0.1l0,0c-0.8-0.1-1.2,0-1.3,0.3c0.9-0.1,1.7-0.1,2.4-0.2l0.2,0c0-0.1,0.5-0.1,1.4,0
							C30.4,48.8,30.4,48.7,30.7,48.6 M32.8,48.6l-0.4,0c0.4,0.1,0.7,0.2,1,0.4l0.1,0c-0.3,0.1,0.2,0.2,1.5,0.1c1.1,0,2,0,2.5,0.2
							c0.2,0,0.3,0,0.4,0c0.1,0,0.3,0,0.4,0c0.5-0.1,0.6-0.1,0.5-0.2C38.7,49,38.2,49,37.3,49c-0.3,0-0.5,0-0.8,0
							c-0.8,0.1-1.2,0-1.1-0.3c0,0,0,0,0.1-0.1c0.2-0.1-0.3-0.2-1.5-0.2l-0.4,0C33.5,48.6,33.2,48.6,32.8,48.6 M17.6,49.8l-0.1,0
							c0.3,0,0.6,0.1,1,0.1c0.3,0,0.5,0,0.6-0.1C18.6,49.8,18.1,49.8,17.6,49.8 M16.6,46c0.1,0,0.3,0,0.4,0c0.3,0,0.4,0,0.5-0.1
							c0.4-0.2,0.3-0.2-0.2-0.2c-0.2,0-0.4,0-0.5-0.1C17,45.8,16.9,45.9,16.6,46 M19.8,47.7c-0.8,0.1-0.8,0.2,0.1,0.4
							c0.7,0,0.9-0.1,0.9-0.2c-0.1-0.1-0.2-0.1-0.3-0.1c-0.2,0-0.3,0-0.5-0.1L19.8,47.7 M14.5,50.3L14.5,50.3l0.1,0.2
							c0.4-0.1,0.7-0.1,1-0.1c0,0,0.1,0,0.1,0C16.2,50.3,15.8,50.2,14.5,50.3 M12.8,46.7l-0.4,0.1c0.1,0,0.4,0,0.8,0.1
							C14.8,46.7,14.7,46.7,12.8,46.7 M14.3,46.9c-0.3,0.2-0.1,0.2,0.6,0.3c0.2,0,0.3-0.1,0.4-0.1c0.1,0,0.2,0,0.4,0
							c1-0.1,1-0.1,0-0.1l-0.2,0C14.8,46.8,14.4,46.8,14.3,46.9 M13.5,48.1c0.2,0,0.6-0.1,1-0.2c0.4-0.1,1-0.1,1.7-0.1
							c1,0.1,1.5,0,1.6-0.2c-1.7,0.1-2.8,0.1-3.1-0.1l-0.6,0c-0.1-0.2-0.4-0.3-0.7-0.3c-0.1,0-0.2,0-0.3-0.1c-1,0-1.3,0-0.6,0
							c0,0,0,0,0,0c0.1,0,0.1,0.1,0.2,0.1c0.1,0.1,0.1,0.1,0,0.1c-0.8,0.1-1.2,0-1.3-0.1l-0.2,0c-0.6,0.1-0.6,0.2,0,0.3
							c0.4,0.1,0.8,0.2,1.3,0.3l0.2,0C13.2,47.8,13.5,47.9,13.5,48.1 M20.2,44.3C20.2,44.3,20.3,44.3,20.2,44.3
							c0.2,0.1,0.4,0.3,0.6,0.4c0.2,0,0.2-0.1,0.3-0.2c0-0.1,0.1-0.2,0.1-0.2c0.1,0,0.1,0,0.2,0c0.3,0,0.6,0,0.8-0.1
							c0.5,0,0.9,0.1,1.2,0.2c-0.1,0-0.1,0-0.1,0.1c-0.2-0.1-0.5-0.1-0.8-0.1l-0.2-0.1c0.2,0.3,0.3,0.7,0.3,1.2c0.2,0,0.2,0,0.2-0.1
							c0.1-0.1,0.2-0.2,0.4-0.3c0.1-0.1,0.1-0.1,0.2-0.2c0,0,0.1,0,0.1,0c0.3,0,0.5-0.1,0.6-0.1c0,0,0.1,0,0.1,0
							c0.5,0,0.7,0,0.6-0.1l0,0c0.4-0.1,0.3-0.2-0.2-0.2l-0.2,0c0,0-0.1,0.1-0.1,0.1c0-0.1-0.1-0.1-0.2-0.2l0,0
							c0.2-0.2,0-0.3-0.5-0.4c-0.5,0-0.9-0.1-1.4-0.1c-0.6-0.2-0.9-0.1-1.1,0.1c-0.1-0.1-0.3-0.1-0.6-0.1c-0.1,0-0.1,0-0.2,0.1
							c0,0,0,0.1,0,0.1C19.8,44.2,19.8,44.3,20.2,44.3 M16.7,44.8c0,0.1,0.1,0.2,0.2,0.2l0.2,0c1.5-0.1,1.9,0,1.2,0.1
							c-0.5-0.1-0.7-0.1-0.7,0c0,0.3-0.2,0.3-0.6,0.2c-0.2,0-0.3,0-0.3-0.1c-0.4-0.2-0.7-0.1-1,0.2c-0.1,0-0.1,0.1,0,0
							c0.5,0,1,0,1.5,0c0.1,0,0.2,0,0.3,0c0.5-0.1,0.8,0,1,0.2c1.4-0.1,1.5-0.2,0.4-0.4c-0.6-0.1-0.7-0.2-0.1-0.2
							c0.2,0,0.3-0.1,0.4,0c0.1,0.1,0.3,0.2,0.7,0.2c1.1,0.1,1.1,0.1,0.2,0.2c0.4,0.1,0.8,0,1.1-0.1c0.1,0,0.2-0.1,0.3-0.1
							c0.1-0.1,0.1-0.1,0.2-0.1c0.2-0.1,0.1-0.2-0.5-0.2c-0.3,0-0.6,0-0.8,0c-0.4,0-0.3-0.1,0.3-0.2c-0.1-0.2-0.4-0.3-0.8-0.3
							l-0.2,0c-0.1,0-0.3,0.1-0.4,0.1C18.3,44.8,17.5,44.8,16.7,44.8 M18.6,40.1c0,0.1,0,0.2,0,0.2c0.3,0,0.5-0.1,0.8-0.1l0.1-0.1
							c-0.1-0.1-0.2-0.2-0.3-0.3C19,40,18.8,40.1,18.6,40.1 M32.2,36.2c0.3,0,0.5,0,0.5-0.1c0.2-0.4,0.4-0.5,0.8-0.2l0.2,0.1
							c0.1-0.1,0.2-0.2,0.4-0.3l0.2-0.1C33.4,35.2,32.8,35.3,32.2,36.2 M34.3,33.9c0.3,0.1,0.6,0.3,1.1,0.4c0.5-0.1,0.6-0.3,0.5-0.6
							c0-0.1,0-0.1,0.1-0.1c0.6,0.2,0.8,0,0.7-0.5c0,0,0,0,0,0c-0.8,0.2-1.5,0.5-2.1,0.7C34.3,33.8,34.3,33.9,34.3,33.9 M35.7,31.9
							c-0.4-0.1-0.9-0.1-1.4-0.1l0.4,0.4c0.2-0.1,0.5-0.1,0.8-0.2L35.7,31.9 M39,27.7c1.1,0,1.4-0.1,1-0.3c-0.1,0-0.2,0-0.3-0.1
							C38.4,27.2,38.2,27.3,39,27.7 M29.4,36.2c0.9-0.2,1.1-0.5,0.9-0.7c-0.1-0.1-0.1-0.1-0.1-0.1c1.3-0.2,1.8-0.5,1.4-0.9
							c-0.7,0.4-1.4,0.8-2.1,1.1C29.6,35.8,29.5,36,29.4,36.2 M29.3,25.7c-0.5,0.1-0.9,0.4-1.1,0.7l0.2,0.1c0.9,0,1.2-0.2,1-0.6
							L29.3,25.7 M38.4,26c0.5,0,1-0.1,1.6-0.1l0.4,0c-0.2-0.3-0.1-0.6,0.3-0.8c-0.3-0.1-0.6-0.2-1.2-0.3c-0.3,0-0.4,0-0.5,0.1
							s-0.1,0.2,0,0.3l0.1,0.1C38.4,25.3,38.1,25.5,38.4,26 M34,24.8c-0.9-0.3-1.2-0.1-1,0.7C33.6,25.4,33.9,25.2,34,24.8L34,24.8
							 M32.6,16.5c0.5-0.4,0.2-0.5-0.7-0.2c-0.2,0.1-0.4,0.2-0.6,0.2c-1,0.2-1.7,0.4-2.2,0.7l-0.2,0.1c-0.3-0.2-0.9-0.2-1.9-0.1
							c-1.1,0.1-1.7,0.3-2,0.6c0.4-0.1,1.1-0.1,2-0.1l0.2,0c0.4-0.1,1-0.1,1.8-0.1c0.3,0,0.5-0.1,0.7-0.1c0.3-0.1,0.8-0.1,1.3-0.1
							c1.1,0,1.8-0.1,2.1-0.3l0.1-0.1C33,16.8,32.8,16.7,32.6,16.5 M17.3,12.5c-1.4,0.2-1.6,0.3-0.7,0.5c1.5,0,2.6-0.2,3.2-0.4
							c0.1,0,0.2,0,0.4,0c1.2-0.3,0.9-0.4-0.9-0.3C18.7,12.4,18,12.4,17.3,12.5 M1.5,7.6c-0.2,0-0.2,0-0.2,0.1c0.3,0,0.7,0.1,1,0.2
							c0.3,0,0.4,0,0.4,0C3,7.5,2.6,7.5,1.5,7.6 M0.4,3.8c0.5-0.1,0.5-0.3,0.2-0.5c0,0-0.1,0-0.1,0C-0.1,3.4-0.2,3.6,0.4,3.8
							 M85.9,61c1.7,0,2.9-0.1,3.5-0.3l0.4,0C87.8,60.7,86.5,60.8,85.9,61 M102.2,60.8c2.5-0.1,3.7-0.3,3.9-0.6l0,0
							C103.1,60.3,101.8,60.5,102.2,60.8 M46.4,64.6c1.1-0.1,1.9-0.3,2.2-0.5c0.1-0.1,0.1-0.2,0.2-0.2c1-0.1,1-0.3,0.2-0.4l0,0
							C47.9,63.9,47.1,64.2,46.4,64.6 M74.8,61.8c0.7,0,1.1,0,1.1,0c0.7-0.2-0.3-0.3-3-0.1l-0.5,0C73,61.7,73.8,61.8,74.8,61.8
							 M71.7,56.7c-0.9,0.2-0.3,0.3,1.9,0.4c1.1,0,1.9-0.1,2.3-0.2c0.1,0,0.1-0.1,0.1-0.1c-0.3,0-0.7-0.1-1.1-0.1
							C73.3,56.6,72.3,56.6,71.7,56.7 M72.7,57.7c-3.4,0.1-3.7,0.1-0.9,0.1c3.5-0.1,5.6,0,6.2,0.3c2.3-0.1,3.9-0.2,5-0.4
							c-2.1,0-4.1,0-6,0C76.3,57.7,74.9,57.7,72.7,57.7 M71,51.3c2.2-0.1,3.4-0.1,3.5-0.2c0.1-0.1-0.6-0.2-2.3-0.1
							C71.6,51,71.2,51.1,71,51.3 M76.7,51.6l-0.6,0c-2.4,0.2-2.4,0.3,0.2,0.3C77.4,51.8,77.6,51.7,76.7,51.6 M62.3,60.6
							c-0.4,0-0.8,0.1-1.1,0.1c-1.2,0-2.3,0.1-3.2,0.2l0,0.2c0.4-0.1,0.8-0.1,1.1-0.1s0.6,0,0.9,0l0.1-0.1c0.2,0,0.4,0,0.6,0
							c0.5-0.1,0.9-0.1,1.4,0c1.5,0,2.9,0,4.2-0.2C65.4,60.5,64.1,60.5,62.3,60.6 M62.1,51.5c-0.5-0.1-1.1,0-1.9,0.2
							c-0.2,0-0.5,0.1-0.7,0.1c-0.9,0.2-0.3,0.3,1.6,0.4l0.3,0c-0.9-0.2-0.5-0.3,1.4-0.4l0.5,0C63.1,51.6,62.7,51.5,62.1,51.5
							 M69.9,53.7c-3.2,0-4,0.1-2.3,0.4c2.5-0.1,3.4-0.2,2.6-0.4L69.9,53.7 M66.2,52.4c0.3,0,0.5,0,0.4,0c-0.1-0.2-0.9-0.3-2.5-0.1
							l-0.4,0.1C64.4,52.3,65.2,52.4,66.2,52.4 M58,57.8l0.4,0c-0.5-0.2-1.2-0.2-2.1-0.2l-0.4,0c0.5,0,0.8,0.1,1,0.4l0.4,0
							c-0.2-0.1-0.2-0.1-0.1-0.1c0.1,0,0.2,0,0.3,0l0,0C57.6,57.8,57.8,57.8,58,57.8 M58.5,57.8L58.5,57.8c-0.2,0-0.4,0-0.5,0
							c0.9,0,1.8,0,2.6,0.1c1,0,2-0.1,2.9-0.1l0.6,0C62.7,57.8,60.8,57.7,58.5,57.8 M52.7,57.6c1.1,0,1.4-0.1,0.7-0.2
							c-0.1,0-0.3,0-0.4,0C51.8,57.4,51.7,57.4,52.7,57.6 M50.2,56.1l0.3,0c0-0.1-0.1-0.1-0.3-0.2c-0.1,0-0.2-0.1-0.2-0.1
							c-1.2,0-1.3,0-0.2,0.3C50,56,50.1,56,50.2,56.1 M50.9,52.2c0.9,0,1.2-0.1,0.9-0.3c0,0-0.1,0-0.2,0
							C50.5,51.9,50.2,52,50.9,52.2 M51.2,50.3c1,0.1,1.5,0,1.3-0.3c0-0.1-0.3-0.2-0.7-0.1C50.7,50,50.5,50.1,51.2,50.3 M54,50.4
							l0.2-0.1c-1.2,0-2.2,0.1-3,0.2C52.3,50.5,53.3,50.5,54,50.4 M60,53.8l-0.5,0c0.3,0.2-0.3,0.4-1.9,0.6c2.2,0,3.5-0.1,4.2-0.2
							l0.3,0c-0.8,0-1.3-0.1-1.5-0.2C60.5,53.9,60.3,53.8,60,53.8 M48.7,61.3c0.3,0,0.5-0.1,0.7-0.1c0.1,0,0.2,0,0.3-0.1
							c0.3,0,0.6-0.1,1-0.2l0.3,0c-0.2-0.2-0.5-0.3-1-0.3c-0.1,0-0.2,0-0.3,0c-1.2,0-1.4,0-0.8,0.1c1.3,0.1,1.4,0.2,0.4,0.3
							c-0.2,0.1-0.4,0.1-0.5,0.1C48.4,61,48.4,61.1,48.7,61.3 M40.2,61.7c0.8,0,1.2,0,1.3-0.1c-0.6-0.1-1.2-0.1-1.8-0.1
							c-0.2,0-0.4,0-0.5,0c-0.3,0.1-0.3,0.2,0.1,0.2C40.1,61.5,40.4,61.5,40.2,61.7 M40.4,56.7C40.6,56.7,40.6,56.7,40.4,56.7
							c-0.5,0-0.8,0-1.1,0l-0.2,0.1c-0.5-0.1-1.1-0.2-1.9-0.1c0.3,0.1,0.4,0.2,0.4,0.3C39.2,57,40.1,56.9,40.4,56.7 M40.4,55.9
							c1,0,1.6-0.1,1.9-0.2c0.1-0.1,0.2-0.1,0.1-0.1C41.2,55.6,40.6,55.7,40.4,55.9 M40.4,51.5c1.4-0.1,1.5-0.1,0.4-0.1l-0.2,0
							c0.4-0.3-0.1-0.3-1.5-0.2l-0.4,0C39.1,51.3,39.7,51.4,40.4,51.5 M43.1,52c-0.5,0.2-0.3,0.3,0.5,0.5c0.1,0,0.3-0.1,0.4-0.1
							c0.1,0,0.2,0,0.2,0c0.8-0.1,0.6-0.3-0.3-0.3c-0.2,0-0.4,0-0.6,0L43.1,52 M47.8,53c1-0.1,1.2-0.1,0.5-0.2l-0.2,0
							C47.3,52.8,47.1,52.9,47.8,53 M49.9,52.8l-0.2,0c0.4,0.1,1,0.1,1.8,0c0.7-0.1,1.4-0.2,2.4-0.2c0.3,0,0.4-0.1,0.4-0.1
							c0-0.1,0.3-0.2,0.7-0.2c0.3,0,0.5,0,0.7,0l0,0.1c2,0.1,2.5,0.3,1.5,0.6c0.4,0,0.7-0.1,1-0.1c4.2-0.1,4.8-0.3,1.8-0.6
							c-0.8,0-1.6-0.1-2.4-0.1l0-0.1c-0.5-0.1-0.8,0-1,0.1c0,0-0.1,0-0.1,0c-0.2,0-0.4,0-0.6-0.1c-0.1,0-0.1,0-0.2,0
							c-0.1,0-0.2,0-0.3,0c-0.4-0.1-1.1-0.1-2.2,0c-1,0.1-2.1,0.1-3.1,0.2c-0.6,0.1-0.5,0.1,0.4,0.1c1.3-0.1,1.7-0.1,1.2,0.1
							c-0.4,0-0.8,0.1-1.2,0.2C50.3,52.7,50.1,52.8,49.9,52.8 M50,54.5c-0.7-0.1-1,0-0.9,0.4c1,0,1.4,0,1.2-0.2
							C50.2,54.6,50.1,54.5,50,54.5 M46.8,52.9L46.8,52.9c-0.6-0.1-1.5-0.2-2.7-0.2c-0.6,0-1,0.1-1.2,0.2L42.7,53
							c-0.7-0.2-1.5-0.2-2.4,0c-0.5,0.1-0.4,0.1,0.2,0.1c2.3-0.1,3.7,0.1,4.2,0.5C45.9,53.5,46.6,53.2,46.8,52.9 M45.2,55.4
							L45.2,55.4c-0.8,0-1.1,0.2-1.2,0.5C45.1,55.8,45.5,55.7,45.2,55.4 M42.3,48.6c-0.4-0.2-0.9-0.2-1.4-0.1l-0.2,0.1
							c0.4,0,0.8,0,1,0.1c0.6,0.2,0.8,0.3,0.6,0.4c0.6,0,0.9-0.1,0.9-0.2c0.1-0.3,0.3-0.3,0.7-0.2l0.1,0l0.2-0.1c0.7,0,1-0.1,1-0.1
							c0-0.2-0.1-0.2-0.3-0.1c-0.2-0.1-0.3-0.1-0.4,0c-0.1,0-0.2,0-0.3,0c-0.8,0-1.2,0-1.3,0.1C42.7,48.8,42.5,48.8,42.3,48.6
							 M42,49.5c0.1,0,0.2,0,0.2,0c0.1,0,0.1-0.1,0.1-0.1c0.6,0,0.8-0.1,0.6-0.2c-0.1,0-0.2,0-0.3,0C41.4,49.2,41.2,49.3,42,49.5
							 M51.6,49.4L51.6,49.4c0.3-0.1,0.2-0.2-0.2-0.2c-0.2,0-0.3,0-0.5,0l-0.4,0.1c0.4,0.1,0.5,0.2,0.1,0.4
							C51.7,49.6,52.1,49.5,51.6,49.4 M43.3,17.4c-0.2-0.1-0.5-0.1-1,0c-0.8,0.2-1.2,0.4-1.2,0.8c0,0.3,0.3,0.5,1,0.6
							c0.8-0.1,1.4-0.3,2-0.5c0.1,0,0.2-0.1,0.2-0.1c0.6,0.1,0.6,0,0.1-0.3c0-0.2-0.2-0.4-0.6-0.4C43.5,17.5,43.4,17.4,43.3,17.4
							 M50.2,16.5c0.1,0,0.2,0,0.3,0L50.4,16C49.6,16,49.5,16.2,50.2,16.5 M58.2,17.7c0.3,0,0.5,0,0.6,0c0.2-0.1,0.5-0.1,0.7-0.2
							c0.4,0,0.9,0,1.5,0c0.9-0.1,0.6-0.2-1-0.3l-0.5-0.1c-1.1,0.2-2,0.3-2.7,0.2C57.5,17.4,58,17.5,58.2,17.7 M76.2,16.1
							c1.4-0.1,2.2-0.2,2.4-0.4c0-0.1-0.2-0.1-0.6-0.1C75.3,15.6,74.7,15.7,76.2,16.1 M93.6,58c0.1,0,0.2,0,0.3,0
							c1.9-0.2,3.1-0.1,3.5,0.2c0.7,0,1.3-0.1,1.9-0.1c0.4,0,0.8,0,1.2-0.1c1.2-0.1,1.1-0.2-0.5-0.3c-0.8,0-1.6,0-2.6,0
							C94.5,57.8,93.2,57.8,93.6,58 M85.9,53.5c0.7,0,1.1,0,1.2,0c0.8-0.2,2.3-0.4,4.7-0.5c1.3,0,1,0-1.1-0.1
							c-0.3,0-0.6,0.1-0.9,0.1l-0.5,0C88.1,53.1,87,53.3,85.9,53.5 M83.7,52.8c-1.5,0.1-2.5,0.1-3,0.2C79,53,78.7,53.1,80,53.2
							c1.6,0.1,1.2,0.1-1.2,0.1l-0.5,0c0-0.2-0.5-0.2-1.5-0.1c-0.4,0-0.6,0-0.6,0.1c-0.3,0.3-1.4,0.4-3.5,0.5c2.5,0,4.3-0.1,5.2-0.2
							c0.3-0.1,0.7-0.1,1.1-0.1c0.6-0.1,1-0.1,1.3-0.1c1.8-0.2,3.6-0.3,5.5-0.3c0.4,0,0.6,0,0.8-0.1C89.3,52.8,88.4,52.7,83.7,52.8
							 M88.7,51.9l-0.6,0c-0.4,0.1,0.1,0.2,1.5,0.1c2.9-0.1,5-0.1,6.3,0c2-0.1,3.2-0.2,3.6-0.4l0.2-0.1c-1,0-2,0.1-3.1,0.2l-0.4,0
							c-0.3,0-0.5,0-0.7,0C92.9,52,90.6,52,88.7,51.9 M85.5,52c0-0.1-0.2-0.1-0.5-0.1c-0.4,0-0.8-0.1-1.2-0.1
							c-1.6-0.1-2.9,0-3.9,0.1L79.4,52c0.1,0.2,0.5,0.4,1.2,0.5c0.4-0.1,0.7-0.1,0.9-0.1c0.4,0,0.6,0,0.7,0
							C84.5,52.5,85.6,52.3,85.5,52 M105.8,11.7c-0.2,0-0.2,0-0.2-0.1c0-0.2-0.5-0.2-1.5-0.1l-0.5,0c0.4,0.2,0.9,0.4,1.6,0.6
							C106.3,12,106.5,11.9,105.8,11.7 M220,54.2c0.7,0,1.4,0,2,0c2.9-0.1,3.4-0.1,1.7-0.2C221.8,53.9,220.6,54,220,54.2
							 M172.5,59.7c0.3,0,0.5,0,0.7,0l0.6,0c-0.5,0-0.9-0.1-1.3-0.1c-1.1,0-2.2,0.1-3.2,0.2C170.3,59.7,171.4,59.7,172.5,59.7
							 M178,58.4c-0.3,0-0.7-0.1-1,0c-0.7,0-1.4,0-2.1,0.1c-0.9,0.1-1.7,0.1-2.4,0.2c-0.5,0-1,0.1-1.5,0.1c-0.4,0-0.7,0.1-1.1,0.1
							c-0.6,0-1.1,0-1.6,0c-0.8,0-1.7,0.1-2.8,0.3c-0.9,0.2-11.7,0.3-12.4,0.5c-1.3,0-42.6,0-43.9,0.1c-2.6,0-5.7,0-9.4,0.1
							c0-0.1-0.1-0.1-0.2-0.1c-2.2-0.2-5.5-0.2-9.9,0c-0.7,0.1-0.8,0.2-0.5,0.3l0.2,0c1.9,0,4.4,0,7.4-0.1c1.7,0,3.3-0.1,4.9-0.1
							c1.7,0,3.4,0,5.3-0.1c2.4-0.1,43.8,0,44.1,0.1c4-0.1,15.3-0.2,13.9-0.3l-0.3-0.1c2.6-0.2,5-0.3,7.2-0.5c0.2,0,0.4-0.1,0.6-0.1
							C174.6,58.8,176.4,58.6,178,58.4 M194.2,57.2c1.3-0.1,2.6-0.3,4-0.6c1.5-0.2,1.2-0.3-1.2-0.2c-1.8,0.1-2.6,0.2-2.3,0.3
							C194.9,56.9,194.7,57,194.2,57.2 M206.5,57.5c-3.2,0-3.9,0.1-2,0.3c1.8-0.1,2.7-0.1,2.6-0.3C207,57.4,206.8,57.4,206.5,57.5
							 M202.2,54.8c-1.2,0.1-1,0.2,0.6,0.3c1.4-0.1,1.3-0.2-0.2-0.3L202.2,54.8 M188.7,54c-0.4,0.1-0.2,0.2,0.6,0.2
							c2.6-0.1,2.6-0.2,0.1-0.2L188.7,54 M182.1,55.1c0.7,0,1.1-0.1,1.1-0.1c0.1-0.1,0.3-0.2,0.6-0.3c1.3-0.3,1-0.5-0.8-0.4
							c-0.3,0-0.6,0-0.9,0c-3.5,0.1-4.4,0.3-2.8,0.4l0.3,0c-1.1,0.2-0.8,0.4,0.7,0.5C181.1,55.2,181.7,55.2,182.1,55.1 M175.4,53.6
							c-1.4,0.2-1.3,0.3,0.4,0.4c1.1,0,1.5-0.1,1.2-0.2c-0.1-0.1-0.3-0.1-0.6-0.2C176,53.7,175.7,53.7,175.4,53.6 M177,52.2l0.4-0.2
							c-2.5,0.1-3.2,0.2-1.9,0.4C177.5,52.3,178,52.2,177,52.2 M172.1,56.7c-0.1-0.2-0.1-0.4-0.2-0.5c0-0.1-0.1-0.3-0.2-0.4
							c-0.2-0.1-0.9-0.3-2-0.4c-0.2,0-0.3,0-0.4,0c-0.1-0.2,0-0.3,0.2-0.5c0.1,0,0.1-0.1,0,0c-1-0.1-2.1-0.1-3.4,0.1
							c-1.1,0.2-1,0.3,0.2,0.3l0.9,0c-0.6,0-0.8,0.1-0.6,0.2c0.1,0.1,0.4,0.1,0.8,0.2c0.3,0.1,0.5,0.1,0.6,0.2
							c0.2,0.1,0.5,0.2,1,0.3c0.8,0.2,1.6,0.4,2.6,0.6C171.9,56.7,172.1,56.7,172.1,56.7 M176.3,10l0.4,0c-4,0-6.8,0.1-8.6,0.4
							C172,10.4,174.8,10.3,176.3,10 M176.7,8.6l0.2-0.1c-1.8,0.1-3.1,0.2-3.9,0.5C175.1,8.9,176.4,8.8,176.7,8.6 M204.6,15.4
							c-0.3,0-0.5,0-0.4,0.1c0.2,0.1,0.4,0.3,0.5,0.6c0.4,0,0.7,0,0.9-0.1l0.4-0.1c-0.7-0.1-0.6-0.2,0.3-0.3c0.6,0,0.9-0.1,0.8-0.1
							C206.9,15.2,206.1,15.1,204.6,15.4 M247.2,48.4l-0.6,0c0.7,0.1,0.6,0.3-0.4,0.4l-0.5,0c0.9,0.1,1.4,0.2,1.7,0.3
							c2-0.1,2.5-0.2,1.6-0.3c-0.2,0-0.2,0-0.2-0.1C248.7,48.5,248.3,48.4,247.2,48.4 M236.8,50.1l-0.6,0c0.7,0.1,1.8,0.1,3.1,0.2
							c1.1,0,1.6-0.1,1.5-0.2c0,0-0.1,0-0.1,0C239.7,49.9,238.5,49.9,236.8,50.1 M237.1,49.5c-2.1,0.1-2.5,0.1-1.1,0.2
							c1,0.1,2.1,0.1,3.3,0.2c1.5,0,2.4,0,2.7-0.1C243.1,49.4,241.5,49.3,237.1,49.5 M232.9,48.9l-1,0c1.5,0.1,1.2,0.3-0.9,0.6
							l-0.4,0c0.5,0,0.3,0.2-0.5,0.4c1.8-0.2,3.4-0.4,4.8-0.6c0.4,0,0.9-0.1,1.5-0.1c2.4-0.2,4-0.4,4.6-0.7c-0.3,0.1-0.6,0.1-0.9,0
							l-0.6,0c0.1,0.1-0.3,0.1-1.4,0.1c-0.4,0-0.8,0-1.3,0l-0.9,0C236.7,48.8,235.7,48.9,232.9,48.9 M220.4,51.8c0.3,0,0.7,0,1,0
							c0.7,0,1.2-0.1,1.6-0.1c1.6-0.2,2.8-0.2,3.5-0.2c1.1,0.1,1.9,0,2.4-0.1c1-0.2-0.2-0.2-3.5-0.1c-0.7,0-1.4,0-2.1,0
							C221.5,51.6,220.6,51.7,220.4,51.8 M210.4,50.6c-0.4,0-0.7,0-1.1,0.1c-1.3,0.1-0.8,0.2,1.6,0.2c0.3,0,0.5,0,0.5-0.1
							c0,0-0.1-0.1-0.2-0.1C210.9,50.7,210.7,50.6,210.4,50.6 M212.1,51.6c0.4,0,0.7,0,0.8-0.1c1.3,0.1,2.2,0,2.6-0.1
							c0.1,0,0.2,0,0.4,0c1.2,0,2.2-0.1,2.7-0.2c0.9-0.2,2.4-0.3,4.5-0.3c3.2-0.1,3.8-0.3,1.9-0.4c-0.3,0-0.7,0.1-1.1,0.1
							c-0.5,0.1-1.4,0.1-2.5,0.1c-2.3,0-4.1,0-5.5,0.1c-1.6,0.1-3,0.2-4.2,0.3c-2.8,0.2-3.6,0.5-2.6,0.7
							C209.7,51.8,210.7,51.7,212.1,51.6 M212.6,50.4l-0.3,0c1.4,0.1,3.2,0.1,5.5,0.1c0.4,0,0.7,0,0.8,0c1.2-0.1,2,0,2.4,0.2
							c0.7,0,1.2-0.1,1.6-0.2l0,0c1.1-0.3,0.5-0.5-1.7-0.6c-0.8,0.2-2.1,0.3-4,0.1C215.4,50,213.9,50.1,212.6,50.4 M225.3,16.8
							c1.5,0,2.3-0.2,2.4-0.4l0,0C226.1,16.1,225.3,16.3,225.3,16.8 M221.4,12.6l-0.9,0c0.4,0.1,1.1,0.1,2.1,0.2
							c1.3,0,2.6,0,3.8-0.2C224.6,12.6,223,12.6,221.4,12.6 M241.8,21.5c0.8-0.2,0.7-0.2-0.4-0.1c-1.7,0.1-3.1,0.1-4,0.1
							c0.9,0.1,1.9,0.1,2.9,0.1C241.1,21.6,241.5,21.5,241.8,21.5 M230.9,20.1c1.8,0,2.4-0.1,1.7-0.3
							C231.5,19.5,230.9,19.6,230.9,20.1 M236.8,9.2c0.3-0.1,0.3-0.2,0-0.1c-4-0.1-7.3,0.1-9.8,0.5l-0.4,0c1.3,0.1,2.5,0.3,3.6,0.4
							c1.9,0,3-0.1,3.3-0.2c0.2,0,0.4-0.1,0.7-0.1C235.2,9.5,236.1,9.4,236.8,9.2 M240.5,15.7c1.8-0.1,2.9-0.2,3.5-0.3
							c1-0.4-0.6-0.6-4.7-0.5c-1.8,0.1-2.6,0-2.5-0.1l-0.6,0c-2.2,0.1-2.6,0.3-1.4,0.4c0.4,0,0.4,0.1,0,0.1c-0.3,0-0.5,0-0.5,0.1
							c-0.1,0.2-0.1,0.3,0,0.5c0.1,0.1-0.1,0.1-0.3,0.2c-1.8,0.2-2.6,0.4-2.5,0.7c1.3-0.2,2.7-0.3,4-0.5c0.4,0,0.5,0,0.4-0.1
							c-0.6-0.5,0-0.7,1.6-0.5c0.7,0,1.3,0,2,0C239.7,15.7,240.1,15.7,240.5,15.7 M243.4,10.2c-0.3,0-0.4,0-0.3,0.1
							c0.7,0.1,1.5,0.1,2.5,0.2c3.3-0.1,4.2-0.1,2.9-0.1C246.9,10.2,245.2,10.2,243.4,10.2 M240.4,54.1c-0.3-0.1-0.6-0.1-0.8,0
							c-0.3,0.2-0.9,0.3-1.8,0.4C240.2,54.6,241,54.4,240.4,54.1 M260.9,56.1c0.2,0,0.4,0,0.6,0c0.4,0,0.6,0,0.6,0
							c0.5-0.2,0.9-0.3,1.2-0.5C262.4,55.7,261.6,55.9,260.9,56.1 M236.8,49.4c-0.1-0.1-0.2-0.1-0.2-0.1c-1.7,0-2.1,0.2-1,0.5
							c0.2,0,0.4,0,0.6,0C236.4,49.6,236.6,49.5,236.8,49.4 M216.6,51.6c-0.2,0,48.7-3.2,48.6-3.2c-2.2,0-2.7,0.1-1.5,0.3
							C265.6,48.6,217.2,51.7,216.6,51.6 M265,50.3l-1,0.1c-0.3,0.1-48.6,3.5-47,3.5C219.8,53.7,268.5,50.3,265,50.3 M260.8,48.8
							c-0.2-0.1-0.5-0.1-1.1-0.1c-1.2,0.1-1.2,0.2,0,0.3C260.7,49,261.1,48.9,260.8,48.8 M252.2,48.6c3.7-0.1,4.7-0.2,3.1-0.4
							c-0.8,0-1.7-0.1-2.9-0.1c-1.8,0-2.4,0-1.9,0.2C251,48.4,251.5,48.5,252.2,48.6 M257.7,49.9c-0.7,0-1.2,0.1-1.6,0.2
							c-1.6,0.1-1.5,0.2,0.1,0.3c1.1,0,2.3,0.1,3.7,0.1c1.4,0,2,0,1.8-0.1c-0.4-0.2,0-0.3,1.2-0.3c-46.7,2.4-45.8-2.4,0.9-0.3
							c-0.4,0-0.7,0-0.9,0l-0.3-0.1C262,49.7,260.4,49.8,257.7,49.9 M217.3,22c0.1,0,0.2,0,0.3,0l0-0.4l-0.1,0
							c0.4-0.1,0.5-0.2,0.5-0.3c0,0-0.1,0-0.3,0c-1.2,0,47.6-3.1,48.4-2.8c-1.4,0.1-2.1,0.1-2.2,0.2l0,0.1
							C265.4,18.4,217.1,21.7,217.3,22 M258.3,18.7c-4.3,0-4.6,0.1-1.1,0.3c3.3-0.1,4.5-0.1,3.6-0.2c-0.4,0-0.7-0.1-1-0.1
							C259.4,18.7,258.9,18.7,258.3,18.7 M252.6,17.5c2.2-0.1,2.4-0.2,0.6-0.3c-0.1,0-0.3,0-0.4,0c-0.1-0.1-0.2-0.1-0.4-0.1l-0.5,0
							c-3.4,0.2-3.7,0.3-0.9,0.5c0.6,0,1.1-0.1,1.5-0.1C252.4,17.5,252.5,17.5,252.6,17.5 M255.3,19.7c0.4-0.1,0.6-0.1,0.6-0.1
							c0.2-0.2,0.1-0.3-0.5-0.3c0.7,0,1.3-0.1,1.9-0.2l0.5-0.1c-2.1,0-3.6,0-4.5,0.2l-0.1,0c0.7-0.1,0.4-0.2-0.9-0.1
							c-0.2,0-0.4,0-0.6,0c-0.2,0-0.3,0-0.5-0.1l0.1,0.4c0.2,0,0.3,0,0.4,0c0.2-0.1,0.4-0.1,0.6-0.1c0.1,0,0.1,0,0.2,0
							c-0.1,0-0.1,0-0.2,0c0.8,0,1.6-0.1,2.4-0.1C255.1,19.4,255.4,19.5,255.3,19.7 M253.3,11.5c0.8,0,1.3-0.1,1.5-0.2
							c0.5-0.2-0.4-0.3-2.7-0.2c-0.8,0.1-1.6,0.1-2.2,0l0,0.3c1,0,1.8,0.1,2.2,0.2C252.5,11.6,252.9,11.6,253.3,11.5 M263,11.5
							l-0.9,0c0.2,0.2,0.9,0.3,2.1,0.3c-1.1,0.1-2.8,0.2-5.1,0.3c-0.7,0-1.2,0-1.7-0.1c-0.6,0-1.2-0.1-1.7-0.1
							c-2-0.1-3.5-0.1-4.8,0.1l-0.5,0c3.6-0.1,6.2,0,7.6,0.2c2.6-0.1,5.1-0.2,7.4-0.3l0-0.3C264.7,11.6,263.9,11.6,263,11.5
							 M261.2,9.5c0.2,0,0.4,0,0.6,0c1.2-0.1,2.8-0.2,4.7-0.2c0.2,0.1-48.6,3.4-48.3,3.2c0-0.1,0-0.1,0-0.1
							c-0.3-0.1,48.1-3.4,47.1-3.3C263.4,9.1,262.1,9.2,261.2,9.5 M260.8,10.7c0.4,0,0.8,0,1.1,0c1.3,0,2.4,0,3.3,0l0-0.3
							c-1.8,0.1-3.3,0.1-4.5,0c-1.5-0.1-3.5-0.1-6,0.1c0,0.1,0.2,0.1,0.6,0.2l0.2,0C257.2,10.7,258.9,10.7,260.8,10.7 M220.5,10
							c-1.4,0.1-1.3,0.2,0.1,0.4c1.1-0.1,1.2-0.2,0.5-0.4C220.8,10,220.6,10,220.5,10 M231.5,23.1c1.1-0.3,0.9-0.4-0.6-0.4
							c-0.8,0-1.2,0-1,0.1C230.3,22.9,230.8,23.1,231.5,23.1 M234.8,24.7c-0.6,0-0.3,0.1,0.6,0.2c0.2,0,0.4-0.1,0.6-0.1
							c0.3,0,0.6,0,0.8-0.1c0.2,0,0.2,0,0.1-0.1C236.3,24.6,235.6,24.6,234.8,24.7 M239,21c0.3-0.1,0.5-0.1,0.7-0.2l0.2-0.1
							c-2.4,0-4-0.1-4.8-0.3l-0.2-0.1c-0.2,0.1-0.2,0.1,0,0.1c0.9,0.1,1.5,0.4,1.6,0.7C237.5,21.2,238.3,21.1,239,21 M228.3,24.7
							c0.4,0,0.8-0.1,1.1-0.1l0.3,0c-0.3-0.1-0.2-0.2,0.1-0.4l0.1-0.1c-1.1,0-2,0.1-2.8,0.2l-0.3,0.1
							C227.7,24.4,228.2,24.5,228.3,24.7 M225.3,23.2c0-0.1,0-0.1,0.1-0.2c0.3-0.2-0.1-0.2-1.3-0.1c0.1,0.3,0.4,0.6,1,0.7
							c1.7,0,2.2-0.1,1.5-0.2c-0.2,0-0.4,0-0.4,0C225.5,23.4,225.2,23.3,225.3,23.2 M229.3,21.8c0-0.1-0.1-0.1-0.2,0
							c-1.7,0.1-2.3,0.3-1.8,0.5C228.7,22.2,229.4,22,229.3,21.8 M228.7,22.8c0.2-0.3,0.2-0.4-0.2-0.5c-1.5,0.4-1.7,0.8-0.4,1l0.3,0
							c-1.2,0.3-0.7,0.4,1.6,0.5c0.4,0,0.7,0,0.8,0.1c0.2,0,0.3,0,0.5,0.1c0.3,0.2,0.7,0.4,1.1,0.6c0.4,0,0.8,0,1.1,0l0.2-0.1
							c-0.4-0.1-0.8-0.2-1.2-0.3c-1.1-0.2-1.2-0.5-0.4-0.7c0.6-0.2,0.4-0.2-0.5-0.2C229.5,23.4,228.5,23.2,228.7,22.8 M229.7,22.5
							c0.4-0.1,0.6-0.1,0.7-0.1c0.5-0.2,1.4-0.3,2.7-0.3c0.8,0,1.1-0.1,0.9-0.2c-0.3-0.1-0.7-0.1-1.4-0.1
							C231.3,22,230.3,22.2,229.7,22.5 M226.4,18.4l0.3,0.1c1.4-0.2,2-0.1,1.8,0.2c-0.2,0.4-1,0.7-2.2,1c1.8-0.1,3.5-0.2,5.3-0.3
							c0.2-0.1,0.4-0.1,0.5-0.1c0.9,0,1.4-0.1,1.4-0.2c0.1-0.2,0.8-0.3,2-0.4c0.3,0,0.4,0,0.3,0c-0.4-0.1,0.1-0.2,1.5-0.4
							c-0.5-0.3-1.1-0.3-1.9,0c-0.1,0.1-0.3,0.1-0.5,0.1c-1.7,0-3.2,0-4.7-0.1c-1.1-0.1-1.9-0.3-2.2-0.6c-0.6-0.5-1.2-0.6-1.9-0.1
							c1.2,0.2,1,0.4-0.5,0.5l-0.3,0C225.7,18.2,226.1,18.3,226.4,18.4 M223.5,14.1c0.4,0,0.7,0,0.9-0.1c0.2,0,0.4,0,0.6-0.1
							l0.2-0.1c-0.4-0.1-1.2-0.2-2.4-0.3c-0.8,0-1.1,0-0.9,0.1l0.1,0.1c-1,0.2-0.9,0.3,0.4,0.4C222.7,14.2,223.1,14.2,223.5,14.1
							 M223.4,6.9c-0.6,0-1.1-0.1-1.6-0.1c-0.8-0.1-2.1-0.1-3.7,0c-2.5,0.1,46.3-3,48.3-2.8c1.2,0.1-47,3.5-46.3,3.8
							c0.6,0,0.9-0.1,0.7-0.2c0,0,0.1-0.1,0.1-0.1c0.9,0,1.8,0,2.5-0.2c0.2,0,0.4-0.1,0.4-0.1C224.3,7,224.1,6.9,223.4,6.9
							 M224.4,5.6c-0.7,0.1-0.5,0.3,0.7,0.5c0.9-0.1,0.9-0.2,0-0.3c-0.2,0-0.4-0.1-0.4-0.1L224.4,5.6 M227.6,10.6l0.2-0.1
							c-0.4-0.3-1-0.5-1.9-0.7l-0.3-0.1c-0.9,0.1-0.8,0.2,0,0.5C226.3,10.3,226.9,10.4,227.6,10.6 M234.2,14.4l0.6-0.1
							c-0.5-0.1-0.1-0.2,1.1-0.3c0.4,0,0.8,0,1.2,0c0.8,0,1.6,0,2.4,0l0.3,0c-0.7-0.1-1.6-0.2-2.6-0.2c-0.7,0-1.3,0-2,0
							c-0.1,0-0.3,0-0.6,0C233,14.1,232.8,14.3,234.2,14.4 M235.1,9.4c0.7-0.2,0.6-0.4-0.2-0.6c-0.6-0.1-1.2-0.3-1.9-0.4l-0.2-0.2
							c-0.2,0.1-0.2,0.2,0,0.2C233.4,8.8,234.2,9.1,235.1,9.4 M236,9.4c-0.1,0.4,0.4,0.6,1.5,0.8c0.4-0.1,0.8-0.1,1.2-0.1
							c0.7,0,0.7-0.1,0.3-0.3c-0.6-0.2-1.5-0.3-2.7-0.4L236,9.4 M277.3,40.1C277.3,40.1,277.4,40,277.3,40.1
							c0.4-0.2,0.5-0.3,0.3-0.3c-0.2-0.1-0.9-0.1-2.1,0c-0.9,0-1.3-0.2-1.4-0.5c-0.8-0.2-1.3,0-1.5,0.5c0,0.1-0.1,0.1-0.3,0.2
							c-1.4,0.3-1.2,0.4,0.8,0.2C274.9,39.9,276.3,40,277.3,40.1 M262.3,45.5c-0.3-0.1-0.5-0.2-0.5-0.4c-2.1,0.1-3,0.3-2.7,0.5
							C260.2,45.6,261.2,45.6,262.3,45.5 M269.6,39.9c-0.2,0-0.4,0-0.4,0c-0.9,0.2-0.7,0.4,0.5,0.6C271.2,40.2,271.1,40,269.6,39.9
							 M260.1,38.1l0-0.1c-1.2,0.1-1.8,0.4-1.9,0.8C259.7,38.8,260.4,38.5,260.1,38.1 M267.1,32.4L267.1,32.4
							c-0.1,0.2-0.3,0.6-0.6,1c-0.3,0.4-0.1,0.7,0.6,1c1-0.1,1.3-0.4,0.8-0.8C267.6,33.2,267.3,32.8,267.1,32.4 M275.1,33.3
							c0.2-0.1,0.4-0.1,0.6-0.1c1.6,0,2.2-0.3,1.8-0.8c-0.1-0.1-0.2-0.1-0.3-0.1c-0.7-0.1-1.3,0-1.8,0.1c-1.5,0.4-2,0.8-1.5,1.2
							C274.4,33.4,274.8,33.3,275.1,33.3 M254.7,51.1l0.9-0.5l-0.5,0l-0.3-0.1c0.1,0,0.1,0.1,0.2,0.1c0.3,0.1,0.1,0.2-0.4,0.3
							l-0.3,0.1C254.6,51.1,254.7,51.1,254.7,51.1 M252.4,50.7c-0.1,0-0.1,0-0.2,0L237.7,51c-0.7,0.3-1.5,0.6-2.4,0.8
							c-0.7,0.3-0.8,0.5-0.2,0.6c0.3,0.1,0.5,0.1,0.8,0.2c0.8,0.2,1.9,0.3,3.3,0.4c1.2,0,1.9-0.1,2-0.2l0,0c0.2,0,0.3-0.1,0.5,0
							c0.4,0.1,0.9,0.1,1.6,0c1.8,0,2.9-0.2,3.2-0.4c0.1-0.1,0.2-0.1,0.4-0.1c0.7-0.2,1.8-0.3,3.1-0.3c2.1-0.3,2.5-0.6,1.3-0.8
							l0.7,0c0.2,0,0.5-0.1,0.8-0.2c-0.2-0.1-0.4-0.2-0.5-0.3l-0.1,0C252.6,50.8,252.7,50.8,252.4,50.7 M250.9,51.1
							c0-0.1,0.2-0.1,0.6-0.2c0.2,0,0.3,0,0.5,0C251.7,50.9,251.3,51,250.9,51.1 M244.1,35c-0.3,0.1-0.3,0.4,0.1,0.8
							c0.7-0.2,1.6-0.3,2.9-0.3c0.7,0,0.7-0.1,0.2-0.3C246.4,34.7,245.3,34.6,244.1,35 M243.6,33.5c-0.2,0.1-0.2,0.2,0,0.2
							c1.2,0.2,2.3,0.4,3.3,0.7c0.8-0.1,1.6-0.2,2.3-0.2l0.3,0c0.2-0.1,0.2-0.2,0-0.2c-0.2,0-0.4-0.1-0.6-0.2
							c-0.2-0.1-0.3-0.1-0.4-0.1c-1.5,0-2.6-0.2-3.2-0.5C245.1,33.1,244.5,33.2,243.6,33.5 M256.6,27.6l0.6,0
							c-0.4-0.1-0.2-0.2,0.7-0.3l-2.5,0.1C255.7,27.5,256.1,27.6,256.6,27.6 M256.4,21.5L256.4,21.5c-0.3-0.3-0.5-0.3-0.6-0.2
							c-0.2,0.2-0.3,0.3-0.5,0.4c-0.4,0.3,0,0.4,1,0.5C257.8,21.9,257.8,21.7,256.4,21.5 M255.3,24c0.2,0,0.4-0.1,0.6,0
							c0.4-0.1,0.6-0.1,0.6-0.1c0.1-0.2,0.4-0.3,1-0.4c1-0.1,1.2-0.1,0.7-0.1c-0.3,0-0.5-0.1-0.6-0.1c-0.8,0.1-1.5,0.2-2,0.3
							c-0.9,0.3-1.2,0.4-0.8,0.6C254.9,24.1,255.1,24,255.3,24 M250.4,26.6c0.3,0,0.3,0.1,0,0.2l-0.2,0.1c1.5,0,2.6,0.1,3.3,0.3
							c0.5-0.2,0-0.4-1.3-0.5C251.6,26.6,251,26.5,250.4,26.6 M250.9,20.8c0.2-0.1,0.4-0.1,0.6-0.1l0.2-0.1c-1.6,0-2.8,0.1-3.4,0.3
							C249.6,20.9,250.4,20.9,250.9,20.8 M251.9,19.7c0-0.1-0.1-0.1-0.3,0c-1.4,0.1-1.8,0.2-1.2,0.4C251.5,20,252,19.9,251.9,19.7
							 M256.2,16.5l0.2-0.2c-1.2,0-2,0.2-2.4,0.4C255.1,16.8,255.8,16.7,256.2,16.5 M259,15.3c-0.4,0-0.7,0-0.9-0.1
							c-0.7-0.1-0.9,0.1-0.7,0.4c0.9,0,1.7,0,2.5-0.1c0.1,0,0.3-0.1,0.4-0.2C260.1,15.4,259.6,15.3,259,15.3 M248.7,26.5
							c1.2,0,1.7-0.2,1.4-0.4c-0.1-0.1-0.2-0.1-0.3-0.1C248.2,25.9,247.9,26.1,248.7,26.5 M241.9,26.5L241.9,26.5
							c-0.4-0.1-1.3-0.1-2.7,0l-0.5,0c0.1-0.1-0.3-0.3-1.3-0.3c-0.7-0.1-0.7,0,0,0.2c-0.1,0.1-0.4,0.1-0.9,0
							c-0.2-0.1-0.4-0.2-0.6-0.2c-0.2,0-0.3,0-0.3,0c-0.8-0.3-1.2-0.6-1.1-0.8l-0.2,0c-1.1,0-1.7,0.1-1.7,0.4
							c-2.1,0.2-3.4,0.1-4-0.2c-0.1-0.1-0.2-0.1-0.2-0.1c-1.3,0-2-0.1-2.1-0.3c-0.2-0.3-0.6-0.5-1.3-0.6c-0.9-0.2-0.7-0.3,0.8-0.5
							c-0.1-0.2-0.7-0.2-1.7-0.1c-0.3,0-0.5,0-0.6,0c-0.8,0-1.7,0-3,0.1l-0.3,0c-0.4-0.1-0.7-0.1-1-0.2c-0.7-0.1-0.6-0.2,0.1-0.3
							c0.3-0.1,0.4-0.1,0.4-0.1c0.1-0.2,0.4-0.2,1-0.2l0.4,0c0.2-0.1,0.3-0.1,0.5-0.1c0.9-0.1,1.6-0.2,2.2-0.3
							c1.1-0.2,1.2-0.4,0.3-0.5c-0.8,0-1.5,0.1-2.3,0.1l-0.3,0c-0.2,0-0.4,0.1-0.6,0.1c-1.5,0.3,46.2-2.6,44.8-2.4
							c-0.4,0-0.7-0.1-1-0.2c-0.2-0.1-0.4-0.1-0.6-0.1c-0.2-0.1-0.4-0.1-0.5-0.2c-0.8-0.1-1.6-0.3-2.5-0.4c-0.2,0-0.4,0-0.4-0.1
							c-1.3,0-1.3,0.1,0.1,0.3c-0.2,0.1-0.5,0.1-0.7,0.2c-0.3,0-0.5,0.1-0.7,0.2c-0.1,0-0.1,0.1,0,0.1c0.6,0.1,1.3,0.1,2.1,0.1
							c2.2,0.1,3.1,0.3,2.5,0.6c-1,0-1.5,0.1-1.4,0.3c0,0-0.1,0-0.3,0c-0.4,0.1-0.7,0.1-1,0.1c-0.3,0-0.5,0-0.8,0
							c-0.2,0-0.4,0-0.6-0.1c-0.1,0-0.1,0-0.2,0c-0.2,0-0.4,0-0.6-0.1c-0.2,0-0.4-0.1-0.6-0.2c-0.9-0.1-1.6-0.1-2,0l0,0
							c-0.3,0-0.6,0-1-0.1c-1.3,0-2.2-0.2-2.6-0.4l-0.6,0c-0.6,0.1-1.1,0.1-1.4,0.1c-0.4,0.1-0.3,0.1,0,0.1c0.3,0,0.7,0,1.2,0.1
							c1.6,0.1,2.8,0.2,3.5,0.4c0.4,0,0.8,0,1,0c0,0,0.1,0,0.1,0c0.4,0,0.7,0.1,0.9,0.1c-0.9,0.1-0.9,0.1-0.1,0.1l0,0l-0.1,0.1
							c0.2,0,0.3,0,0.3,0.1c0.3,0.2,1,0.3,2.3,0.1c0.7,0,1.3-0.1,1.9-0.1c0.4,0,0.7,0.1,0.7,0.2c1.7,0,2.3-0.1,1.8-0.2
							c0.9,0.1-47.3,3.4-46.6,3.4c0.2,0,0.4,0.1,0.6,0.1c0.2,0,0.3,0,0.4,0.1c0.6,0.2,1.3,0.3,2.3,0.3c0.4,0,0.7,0.1,0.9,0
							c1.1,0.3,1,0.4-0.3,0.5c0.1,0.1-0.2,0.1-1,0.1l-0.3,0c-0.2,0-0.3,0.1-0.4,0c-1,0.1-1.6,0.2-1.9,0.1l0-0.1c0.1,0,0.1,0,0.2,0
							c1-0.3,1.1-0.4,0.5-0.5c-0.2,0-0.4,0-0.6-0.1c-0.1,0-0.1,0-0.2,0l-0.1-0.4c-0.3,0-0.7,0-1,0c1.1,0.1,49.7-3,47.8-3
							c-2,0.1-3.5,0.1-4.6,0c-2.1-0.2-4.4-0.2-6.7,0c0-0.1,0-0.1,0-0.2c0-0.1-0.2-0.1-0.6-0.2c-0.4,0-0.6,0-0.7,0
							c-0.7,0.3-2.7,0.4-5.9,0.3c-0.7,0-1.2,0.1-1.5,0.1c-0.5,0.1-1.7,0.1-3.4,0c-0.5,0-0.8,0-1.1,0.1c-1.3,0-3.1,0-5.2-0.1
							c0-0.1,0.1-0.1,0.3-0.2l0.2-0.1c-1.9-0.1-1.8-0.3,0.3-0.5c0.4,0,0.6,0,0.5,0c-0.6-0.2-1.8-0.2-3.5,0c-2-0.1-2.5-0.3-1.6-0.5
							l0.4-0.1c-1.1,0.1-1.9,0.1-2.4,0c-1.4-0.3-1.7-0.6-0.8-1c0.6,0,1.2,0,1.9-0.1c0.4,0,0.8,0,1-0.1c2.6,0.1,4.8,0.1,6.6,0.2
							c0.5,0.1,0.8,0.1,1.1,0.1c0.7,0.2,1.9,0.3,3.7,0.3c0.4,0,0.7,0,0.9,0c1.2,0.3,3.7,0.4,7.5,0.3c-1.8-0.1-3.4-0.2-4.6-0.4
							c-0.4-0.1-0.8-0.1-1.1-0.2c-2.2-0.4-0.7-0.6,4.5-0.7c0.4,0.1,0.7,0.1,0.9,0c1.7-0.1,1.7-0.1,0-0.1c-0.6,0-1.1,0-1.4-0.1
							c-0.4,0-0.7,0-0.9-0.1c-3.1,0-5.7-0.1-8-0.2c-2.8-0.1-6.5-0.1-11.1,0c0.4-0.1,0.7-0.2,1.1-0.2l0.4-0.1c-5.3,0-5.8-0.2-1.6-0.6
							c1.2-0.4,0.7-0.4-1.5-0.1c-0.4,0.1-0.7,0.1-1,0.2c-2.4,0.3-2.9,0.2-1.5-0.2c-1-0.2-1.8-0.2-2.3,0c-0.6,0.2-1.6,0.3-2.8,0.4
							c-0.3,0.1-0.5,0.1-0.5,0.1c-2.2-0.2-4.1-0.4-5.7-0.6c-2.1-0.2-2.2-0.4-0.2-0.5c0.4-0.1,0.8-0.1,1.1-0.1c1.8,0,2.3-0.1,1.6-0.3
							c-0.7-0.2-1.3-0.2-1.6-0.1c-1.7,0.3-4,0.4-6.9,0.4c-2.9-0.1-5.7-0.2-8.6-0.3c-2.3,0-3-0.2-2-0.4c-2.2,0.1-4.3,0.2-6.4,0.1
							c-2.1-0.1-4.4-0.2-6.8-0.3c-0.4,0-0.8,0-1.1,0c-1.8,0-3,0-3.6-0.1c-0.4-0.1-0.7-0.1-0.9-0.1c-1.1-0.1-2.2-0.1-3.4-0.1
							c-1.8,0-2.9-0.2-3.3-0.4c-0.6-0.3-0.5-0.6,0.4-0.8l0.5-0.1c0.8,0,2.2,0,4-0.1l1,0c-0.1-0.1,0.2-0.2,0.9-0.4
							c0.9-0.2,2.6-0.3,5.1-0.3c0.3,0,0.6,0,0.8,0c2.1,0,4.5,0,7.2,0.1c1.4,0,2.8,0,4.2,0c0,0.1,0.1,0.2,0.3,0.3l0.2,0
							c-0.8,0.1-1.4,0.3-1.6,0.5c-0.4,0.3-0.6,0.5-0.8,0.8c0.4,0,0.6,0,0.8,0c3.6-0.5,7.1-1,10.2-1.6c0,0,0-0.1,0.2-0.1
							c0.6,0,0.9,0,1.1,0c0.8,0.1,1.5,0.1,2.2,0l0.6,0.1c1.8,0.1,4.5,0,8.1-0.1c1.2-0.1,0.2-0.2-3.1-0.1c-5.4,0.1-6.8,0-4.2-0.5
							c0.4-0.1,0.8-0.2,1.2-0.2c0.6-0.1,1.3-0.2,2.1-0.2l0.8-0.1c0.3,0.2,1.3,0.3,3,0.2c0.4,0,0.7,0,1.1,0c1.8-0.1,3.2,0,4.2,0.1
							c2.3,0.1,5.4,0.1,9,0c0.3,0,0.5,0,0.5,0l0.4,0c1.1,0,1.9-0.1,2.3-0.2c0.2-0.1,0.2-0.1,0.1-0.1c-1-0.2-1.9-0.4-2.5-0.6l-0.5,0
							c1.2-0.1,1-0.1-0.5-0.1c-0.4,0-0.8,0-1.2,0.1l-0.9,0c-0.2,0.2-0.8,0.3-1.9,0.3c-4.5,0.2-8.2,0.2-11.2,0.1
							c-0.4,0-0.6,0-0.7-0.1c-0.2-0.1-0.2-0.1,0.2-0.1c0.3-0.1,0.7-0.1,1-0.2c1.2-0.2,2.4-0.4,3.7-0.4c1.1-0.1,1.7-0.3,2-0.4
							c0.3-0.2,0.8-0.4,1.4-0.5c0.2-0.1,0.5-0.2,0.8-0.2c1.3-0.2,0.8-0.3-1.5-0.3c-0.3,0-0.5,0.1-0.6,0.1c-0.6,0.4-2,0.5-4.3,0.3
							c-2.2-0.1-5.3-0.2-9.4-0.1c-1.5,0.1-1.6,0.1-0.2,0.1c1.5,0.1,2.9,0.2,4.3,0.2c0.4,0.1,0.7,0.1,0.9,0c1.9-0.1,3.2-0.1,3.7-0.1
							l0.5,0c0,0.2-0.3,0.3-1,0.5c-0.6,0.2-1.4,0.3-2.4,0.5c-0.4,0-0.7,0-0.9,0c-0.7-0.1-1.5-0.1-2.6-0.1c-3.1,0-6.5,0-10.2,0
							c-0.4,0-0.6,0-0.6-0.1c-0.3-0.3-1.1-0.4-2.6-0.2c0.1,0.1,0.2,0.2,0.4,0.3c0.1,0.1,0.4,0.1,0.8,0c1.8,0,3.5,0,5,0
							c2.9,0,5.3,0.1,7.1,0.3c1.4-0.1,2-0.1,1.8,0c-0.6,0.4-2.8,0.6-6.6,0.7c0.5,0,1,0.1,1.5,0.1c1.8,0.1,1.5,0.2-0.7,0.3
							c-0.6,0.1-1.1,0.1-1.4,0c-0.3,0-0.6-0.1-0.9-0.1c-2.9-0.1-4.5,0-4.7,0.3c-0.4,0.1-0.5,0.1-0.4,0.2c0.3,0.3-0.9,0.4-3.5,0.4
							c-3.5,0-6.6,0-9.4-0.1c-0.6,0-1.1-0.1-1.5-0.1c-1.8-0.1-3.7-0.1-5.7,0c-0.6,0.1-1,0.1-1.4,0c-0.3,0-0.3-0.1,0.1-0.1
							c0.5-0.1,0.3-0.2-0.6-0.3c-1.8-0.4-2.8-0.3-3,0.1c0,0.1-0.2,0.1-0.5,0.2c-0.4,0-0.6,0.1-0.7,0.1c-0.7,0.2-2.3,0.4-4.9,0.4
							c-0.7,0-1.3,0-1.9,0.1l-0.3,0c1.8-0.1,2.7,0,2.8,0.2l0.1,0c2.3,0.1,2.5,0.3,0.5,0.6c0.2,0.4-0.6,0.5-2.4,0.3
							c-1.4-0.1-12.7-0.1-14-0.2c-0.5-0.1-0.8-0.1-1-0.1c-1.5-0.2-43.8-0.3-46.9-0.2c0.4-0.2,1.4-0.3,3-0.3c4-0.1,45.4-0.2,44-0.4
							c-1.8,0.1-42.9,0.1-43.3-0.1l-0.2,0c-0.3,0-0.6,0-0.7,0c-2.6,0.1-4.6,0.3-6,0.4c-0.5,0.1-0.9,0.2-1.2,0.2
							c-1.1,0.3-1.9,0.4-2.6,0.3c-0.7,0-1.3,0-1.7,0.1C96.1,14.1,95.5,14,95,14c-3.1-0.1-7.1,0-12,0.1c-0.3,0-0.5,0-0.6,0
							c-1.4,0.1-2.9,0.2-4.4,0.3c-0.7,0-1.3,0.1-1.9,0.2c-0.4,0-0.7,0-0.7,0c-2-0.2-3.9-0.2-5.6-0.1c1.7,0,2.1,0.2,1.1,0.5
							c-0.3,0.1-0.4,0.2-0.3,0.2c0.4,0.2,1.5,0.3,3.3,0.4l0.6,0c-0.1-0.2,0.7-0.3,2.5-0.2l1-0.1c-0.3-0.1,0-0.2,1-0.4
							c0.4-0.1,0.6-0.1,0.8,0c2.6,0,5.1,0,7.6-0.2c0.5-0.1,1-0.2,1.5-0.2c1.9-0.2,3.3-0.2,4.4,0c-1,0-1.9,0.1-2.6,0.1
							c-1.4,0.2-1.5,0.2-0.4,0.2c3.7-0.1,7.4-0.1,11.2-0.2c0.4,0.1,0.7,0.2,1,0.3c0.4,0,1.8,0,4.2-0.1c0.7,0,1.1,0,1.5,0l0.6,0
							c0.8-0.1,41.8-0.1,43.2-0.1c1.6,0,12.6,0.2,13,0.4c-0.7,0.2-12.3,0.3-15,0.2c-0.4,0-40.8,0-41.2,0c-3.9,0-6.6,0-8.1,0
							c-2.9,0.1-5,0.2-6.4,0.4c-0.5,0-0.9,0-1.2,0c-0.3-0.1-0.7-0.1-1-0.1c-0.4,0-0.5,0-0.5,0c-0.2,0.1-0.9,0.2-1.9,0.2
							c-0.4,0-0.7,0-0.8,0c-2.5,0.2-5,0.2-7.3,0c-2.8,0-4.3,0.2-4.6,0.4c-0.1,0.2-1.3,0.3-3.5,0.3l-0.5,0.1c0.5,0.2,0.3,0.3-0.5,0.4
							c-0.3,0-0.6,0-0.9,0c-2.8,0.2-5.2,0.5-7.1,0.8c-0.3,0-0.7,0-1,0.1c-0.3,0-0.6,0-0.8,0c-0.9,0.1-1.9,0.1-3.1,0.2
							c-2.4,0.2-4.4,0.2-6.3,0.1c-0.9,0-1.7-0.1-2.4-0.2l0-0.3c-0.6-0.2-1-0.4-1.2-0.6l-0.2,0c0-0.1,0-0.1,0-0.1
							c0.3-0.3,0.2-0.6-0.3-0.8c0.5-0.1,0.5-0.2,0.2-0.3l-0.5,0c-0.1,0-0.2,0-0.2,0l0.1,0.3c-0.3,0-0.5-0.1-0.8,0
							c-0.1,0.1-0.1,0.3-0.1,0.4c0,0.3,0.2,0.5,0.6,0.6c0.3,0.2,0.5,0.3,0.7,0.3c0.2,0,0.4,0.1,0.5,0.3c0.1,0.1,0.1,0.2,0.2,0.2
							c-0.3-0.1-0.6-0.1-0.8-0.1l0.1,0.7c0.1,0,0.2,0,0.3,0c0.1,0.1,0,0.2-0.3,0.3l0,0.2c-0.4,0.1-0.6,0-0.8-0.2
							c-0.3,0.1-0.6,0.2-0.8,0.2l-0.1,0c-0.1-0.1-0.5-0.1-1,0c-0.2,0-0.3,0-0.3,0c-0.9-0.1-1.7-0.2-2.6-0.3c-0.2,0-0.3,0-0.3,0
							c-1-0.1-1.7,0-2.1,0.3l0.2,0c0.4-0.1,0.8-0.1,1.1,0.1c0.1,0,0.2,0,0.4,0.1c0.7,0.1,1.7,0.1,2.8,0.1c0.2,0,0.3,0,0.3,0
							c0.2,0,0.3,0,0.4,0c0,0.2-0.2,0.4-0.4,0.6l0,0.1c-0.1,0-0.3,0-0.5,0c0,0-0.1,0-0.1,0c-0.1,0-0.3,0-0.4,0c-0.1,0-0.3,0-0.4,0
							c-0.8,0.1-0.9,0.2-0.4,0.5c0.3,0,0.5,0,0.7,0c0.2,0,0.3-0.1,0.3,0c0.1,0,0.2,0,0.3,0c0.1,0.1,0.1,0.2,0,0.4
							c-0.2,0.4-0.4,0.8-0.5,1.2c-0.1,0.4-0.2,0.7-0.4,0.8c-0.1,0-0.2,0-0.2,0L44,22.8c-0.9,0.1-0.9,0.2-0.3,0.4
							c0.6,0.2,0.8,0.5,0.5,1.1c-0.4,0.3-0.7,0.5-0.9,0.8c0,0.1-0.1,0.1-0.2,0.1c-0.3,0-0.8,0-1.3,0.1c-0.1,0-0.1,0.1-0.2,0.1
							c0.5,0.4,1,0.7,1.5,0.9c0,0.2-0.1,0.2-0.2,0.3c-0.1,0.1-0.2,0.1-0.2,0.1c-0.5-0.6-0.7-0.6-0.7,0.1c0,0.1,0.1,0.2,0.2,0.2
							c0.8,0.2,0.8,0.5-0.1,0.9c-0.4,0.2-1.1,0.2-2,0.2c-0.1-0.1-0.2-0.1-0.3-0.1c-0.7,0.3-1.5,0.5-2.5,0.7c-0.2,0-0.3,0.1-0.4,0.1
							c-1.4,0.1-1.8,0.3-1.1,0.7c0.1,0,0.2,0.1,0.2,0.1c0.1,0.1,0.2,0.1,0.3,0.2c1,0.2,1.3,0.4,0.8,0.7c-0.9,0.5-0.8,0.9,0.1,1.1
							c-1.4,0-1.8,0.1-1.1,0.4l0.1,0.1c-0.7,0.1-0.8,0.2-0.2,0.3c0.2,0,0.3,0,0.4,0c0.1-0.1,0.3-0.1,0.4-0.1l0.3-0.1
							c0.1-0.4,0.3-0.7,0.7-0.8c0.1,0,0.3-0.1,0.4-0.2c0.4-0.2,0.8-0.3,1.2-0.4l0.2-0.1c-0.5,0.2-0.5,0.4,0.2,0.5
							c0.1-0.1,0.2-0.1,0.3-0.1c0.7,0,0.7,0.1,0.2,0.3l-0.2,0.1c0.6,0.1,1,0,1.1-0.2c0.1-0.1,0.2-0.1,0.3-0.1
							c1.2-0.2,1.4-0.5,0.7-0.9c0,0.1,0,0.2-0.1,0.3c-0.4,0.4-0.8,0.4-1,0.1c-0.1-0.1-0.2-0.2-0.3-0.2c-0.1-0.1-0.3-0.1-0.5-0.1
							c-0.3-0.1-0.5-0.2-0.7-0.3c-0.2-0.3-0.6-0.5-1.2-0.6c-0.2,0-0.4-0.1-0.6-0.1c-0.1-0.1-0.1-0.1,0-0.1c0.9-0.3,1.4-0.2,1.5,0.1
							c0.3,0.3,0.6,0.3,0.9-0.1c0.1-0.1,0.1-0.2,0.1-0.2c-0.1-0.3,0.1-0.4,0.5-0.3c0.2,0,0.2,0,0.2,0c-0.5,0.3-0.6,0.6-0.2,0.8
							c0.6,0.3,1,0.4,1.3,0.1l0.2-0.2c0,0.3,0.2,0.5,0.7,0.5c0.3,0,0.4,0,0.4,0c0.2,0.3,0.6,0.5,1.1,0.6c0.2,0.1,0.5,0.1,0.7,0.1
							c0.9,0.1,1,0.4,0,0.7c-0.3,0.1-0.6,0.2-0.8,0.4L44.6,32c-0.1-0.3-0.1-0.5-0.1-0.6l0-0.1c-0.6,0.4-1,0.4-1.4,0
							c-0.3,0-0.5,0.1-0.7,0.2l-0.2,0.1l0.2,0.1c-0.2,0.2-0.8,0.3-1.9,0.2c-0.2,0-0.3,0-0.5,0L39.7,32c-0.5-0.2-0.6-0.1-0.5,0.3
							c-0.1,0-0.2,0.1-0.2,0.1c-0.1,0.1-0.1,0.2,0,0.2c0.2,0,0.3,0.1,0.4,0.1c0.1,0.1,0.1,0.1,0,0.2c-0.1,0-0.3,0.1-0.4,0.2
							c-0.3,0.2-0.6,0.4-0.9,0.6c-0.1,0-0.2,0-0.2,0.1c0.1,0.3-0.1,0.4-0.6,0.5c-0.8,0-1.4,0.1-1.6,0.4c0.5,0,0.8,0.1,1,0.3
							c0.1,0.1,0.1,0.2,0.1,0.2c-0.1,0.1-0.2,0.3-0.4,0.4c-0.1,0.1-0.2,0.2-0.3,0.3L35.9,36c0.1-0.4,0.1-0.6-0.2-0.7l0,0
							c-0.6-0.3-0.8-0.2-0.6,0.5c0.1,0.1,0,0.2-0.1,0.2c-0.3,0.2-0.5,0.5-0.5,0.8c0,0.4-0.5,0.6-1.5,0.6l0-0.2
							c-0.6,0.1-1.3,0.3-2,0.4c-1.1,0.3-1.8,0.7-2.3,1.2c-0.3,0.3-0.6,0.4-0.8,0.2c-0.9,0.3-1,0.6-0.3,0.8l0.2,0.1
							c-0.5,0.3-0.4,0.5,0.3,0.7c0.2,0.2,0.1,0.3-0.4,0.3c-0.2,0-0.3,0-0.3,0c-0.8,0.2-1.3,0.1-1.6-0.4c-0.1-0.1-0.1-0.1-0.2,0
							c-0.9,0.3-0.9,0.4-0.1,0.4c0.3,0.6,0.7,0.8,1.3,0.6c0.3-0.1,0.5-0.1,0.8-0.2c0.2,0,0.3-0.1,0.4,0c0.1,0,0.2,0,0.2-0.1
							c-0.1-0.3,0.1-0.4,0.5-0.4c0.2,0,0.3,0,0.4,0c1-0.1,1.7-0.1,2.1,0c0.5,0.2,0.7,0.2,0.6,0c0-0.1,0-0.1,0-0.1
							c0.5-0.4,1-0.3,1.4,0.2c-0.1,0-0.2,0.1-0.4,0.2c-0.1,0.1-0.1,0.1-0.1,0.2c0.4,0.3,0.3,0.5-0.6,0.6l-0.2,0l0.2,0.1
							c-0.5,0.2-1.1,0.4-1.9,0.7c-0.8,0.3-1.5,0.2-2.1-0.1c0,0.1,0,0.1-0.1,0.2c-0.1,0-0.1,0.1,0,0.1c0.3,0.2,0.7,0.4,1.4,0.4
							c0.2,0,0.2,0.1,0.2,0.1c-0.1,0.2-0.3,0.4-0.5,0.6c-0.1,0-0.3,0-0.6,0l-0.2,0c-0.6-0.1-1-0.1-1.1,0l-0.1,0.1c0.5,0,1,0,1.5,0.1
							c0.1,0,0.1-0.1,0.2-0.1c-0.1,0-0.2,0.1-0.3,0.2c-0.1,0-0.2,0-0.4,0l-0.4,0c0,0.1,0,0.1-0.1,0.1c0-0.1-0.1-0.1-0.2-0.1
							c-0.3,0-0.5,0-0.7,0c-0.5,0-0.9,0-1.4-0.1l-0.3,0c0,0.4-0.1,0.7-0.2,0.9c1,0,1.7-0.1,2-0.3c0.6,0,1.3,0,1.9,0l0.2,0
							c-0.5,0.3-0.3,0.4,0.5,0.4c0.1,0,0.1,0.1,0.2,0.1c0.2,0,0.3-0.1,0.4-0.2l0.2,0.1c0.1-0.1,0.4-0.1,1-0.1c0.2,0,0.3,0,0.5,0
							c0.3,0,0.4,0,0.5,0.1c-0.2,0-0.3,0.1-0.5,0.1c-0.2,0-0.3,0-0.4,0c-0.6,0-1.1,0-1.6,0c-0.3,0-0.5,0-0.6,0
							c-0.1,0.1-0.1,0.1,0,0.1c0.4,0.1,0.7,0.1,1.1,0.2c-0.1,0-0.2,0.1-0.4,0.1c-0.1,0-0.2,0.1-0.2,0.1c0,0.1-0.1,0.2-0.4,0.3
							l0.1-0.1l-0.2,0c0.3-0.2,0.3-0.2-0.1-0.2c-0.3,0-0.6-0.1-0.9,0c0.5-0.1,0.4-0.2-0.3-0.2c-0.1,0-0.3,0-0.4,0
							c-1.1,0.1-1.6,0.2-1.4,0.3c0,0.2,0.3,0.3,0.7,0.4c0.1,0,0.1-0.1,0.2-0.1c0.1,0,0.2,0.1,0.2,0.2c-0.2,0-0.5,0.1-0.8,0.1
							c-0.2,0-0.4,0.1-0.5,0c-0.6-0.1-0.9-0.1-1,0c0,0.1-0.1,0.1-0.2,0.2c-0.1,0-0.3,0-0.5,0.1c-0.4,0-0.9,0.1-1.3,0.2
							c-0.2,0-0.4,0-0.4,0c-0.3,0.3-0.2,0.4,0.4,0.2l-0.2,0l0.2-0.1c0.6-0.2,1.1-0.2,1.3,0c0.1,0.1,0.1,0.1,0.1,0.1
							c-0.2,0.1,0,0.2,0.7,0.3c0.5,0,0.9,0,1.3-0.1c0.2,0,0.3,0,0.3,0c0-0.2,0.3-0.2,0.7-0.2l0.2,0c0.3-0.1,0.8-0.1,1.4-0.1l0.2,0
							c-0.5,0.1-0.6,0.2-0.1,0.3c-0.2,0.1-0.7,0.1-1.4,0.1l0.2,0.2c0.5-0.1,1.1-0.1,2.1-0.1c1.7,0,2,0.1,0.9,0.2
							c-0.1,0.1-0.3,0.1-0.4,0.2L30.4,48c0.7,0,1.2-0.1,1.8-0.2c0.7-0.1,1.4-0.2,2-0.1c0.4,0.1,1,0,1.7-0.2
							c-0.8-0.2-0.7-0.2,0.5-0.2l-0.1,0.1c-0.1,0.1,0.1,0.1,0.5,0.1l0,0c0.2,0.2,0.8,0.3,1.9,0.2c0,0.1,0,0.1-0.1,0.1
							c-0.1,0-0.1,0.1-0.2,0.2c-0.1,0-0.2,0.1-0.3,0.1c-0.1,0-0.3,0-0.4,0l-0.1,0c-0.5,0.1-0.3,0.3,0.5,0.4c0.1,0,0.2,0,0.2-0.1
							c0.2-0.2,0.5-0.2,0.8-0.1c0,0.1,0,0.1,0.1,0c0.4,0,1-0.1,1.7-0.1c0.3,0,0.5,0,0.6,0c0.6,0.1,1.1,0.1,1.5,0l0.4,0
							c-0.8,0-0.9-0.1-0.3-0.2c0.1,0,0.3-0.1,0.4-0.1c0.6,0.2,1.1,0.1,1.4,0c0.2,0,0.2,0,0.2,0.1c0,0.1,0.3,0.2,0.7,0.1l0.4,0
							c0.2,0.1,0.3,0.3,0.3,0.3l-0.1,0.1c0.6-0.1,0.9-0.1,1-0.1l0.1,0l0.3,0c-0.2-0.1-0.1-0.2,0.3-0.2l0.2,0c0,0.1,0.3,0.2,0.9,0.1
							l-0.1,0.1c-0.4,0.2-0.8,0.2-1.3,0.1c-0.3,0-0.4,0.1-0.5,0.1c-0.3,0.1-0.2,0.1,0.1,0.1l0.2-0.1c0.2,0,0.2,0.1,0,0.1
							c-0.5,0.2-0.7,0.4-0.6,0.6c0,0,0,0.1,0.1,0.1c0.6,0.1,0.6,0.3,0.2,0.4c-0.6,0.1-1.3,0.2-2.4,0.2c-0.5,0-1.1,0-2.1,0.1
							c-0.3,0-0.5,0-0.8,0c-0.3,0-0.4,0-0.4,0.1c-0.1,0.2-0.3,0.4-0.7,0.5c-1,0.1-1,0.1,0,0.1c0.1,0.1,0.3,0.1,0.5,0.1l0.3,0
							c0,0.3,0.2,0.5,0.4,0.6c0.6,0.1,1.2,0.1,1.8,0c0.5,0,0.6-0.1,0.2-0.3l-0.1,0c0.3-0.1,0.7-0.2,1.2-0.3c0.7-0.1,1.5-0.2,2.5-0.3
							c0.7,0,1.3-0.1,2.1-0.2c1.4-0.1,1.4-0.1,0-0.1c-0.1,0-0.2,0-0.2,0c-0.1,0-0.3,0-0.4-0.1c-0.2-0.1-0.4-0.1-0.6,0
							c-0.8,0-0.9,0-0.4-0.2c0.1-0.1,0.1-0.1,0.1-0.1c-0.3-0.1,0-0.2,0.9-0.3c0.2,0,0.3,0,0.4,0c0.1,0,0.3,0,0.4,0
							c0.1,0,0.2,0,0.3,0c1.1-0.1,1-0.2-0.3-0.3c-0.2,0-0.2,0-0.1,0c0.2-0.2,0.1-0.3-0.4-0.2c-0.1,0-0.1,0-0.2,0
							c-0.9,0.1-1.1,0.1-0.5-0.1l0.2-0.1l0-0.1c0-0.1,0.5-0.2,1.3-0.2c0.3,0,0.6,0,0.9,0c1.5-0.1,1.9-0.1,1.2,0.2
							c0.1,0.1,0.5,0.1,1.2,0c0.2,0,0.3,0,0.3,0c0.3,0,0.6,0.1,0.9,0.1l0.1,0.4c-0.3,0-0.4,0-0.5,0c-0.6-0.2-0.9-0.2-1,0
							c0,0,0,0,0.2,0c0.5,0.1,0.7,0.2,0.7,0.4l0,0.1c0.6,0,0.8,0,0.6,0.1c-0.4,0.2,0,0.3,1.1,0.2c0.8-0.1,1.1-0.1,0.9-0.1
							c0.1,0,0.1,0,0.2,0c2.8-0.2,3.8-0.1,3,0.2l-0.2,0.1c-1.7-0.1-2.5-0.1-2.5,0.1c-0.3,0-0.6,0-0.9,0l-0.6,0
							c1.5-0.1,2.2,0,2.1,0.1l0,0.1c0.3,0,0.7-0.1,1-0.1c0.3,0,0.5,0,0.7,0c1.6,0.2,4.3,0.2,7.9,0c-0.3,0-0.7,0-1,0.1
							c-0.3,0-0.5,0.1-0.5,0.1c0,0,0.1,0,0.3,0.1c0.8,0.1,1,0.3,0.4,0.4c-0.4,0-0.5,0.1-0.5,0.1c0.2,0.2,1.3,0.2,3.6,0.2
							c3.1,0,3.7-0.1,1.8-0.3c-1.4,0-2.6-0.1-3.5-0.3c-1-0.1-0.8-0.2,0.5-0.1c1.1,0,1.6-0.1,1.4-0.2l0-0.1c-0.9,0-0.4-0.1,1.5-0.2
							l0.4,0c-0.9,0.1-0.4,0.1,1.7,0.1l0.4,0c0.3,0,0.7,0.1,1,0.1c0.7,0,1.6,0.1,2.6,0.2c0.3-0.1,0.7-0.1,1.1-0.1
							c0.6-0.1,1-0.1,1.3-0.1c1-0.2,1.8-0.2,2.1,0c0,0,0.1,0.1,0.1,0.1c1.3,0.2,0.8,0.5-1.5,0.7c0,0-0.1-0.1-0.2-0.1
							c-0.6,0-0.9,0-1,0c-0.2,0,0,0.1,0.5,0.1c2.2,0.1,3.6,0,4.3-0.1l0.5-0.1c1.4,0,2.7,0,4.1-0.1l0.4,0c0,0,0.1,0,0.1,0
							c0.6,0.1,1.5,0.1,2.5-0.1l0.4,0c-3.5-0.1-3.5-0.2,0-0.3l-0.1,0c-0.5-0.2-0.3-0.3,0.6-0.2c0.4,0,0.7,0,0.9,0
							c0.4-0.1,0.7-0.1,0.7,0c1.8,0,1.9,0.1,0.5,0.3L95,51c1.7,0.1,1.9,0.2,0.5,0.3c-1.2,0.2-0.1,0.2,3.2,0.1c1,0.1,2.1,0.1,3.3,0
							l0.8-0.1c0.4,0.3,1.1,0.5,2.1,0.6c0.4,0,0.6,0.1,0.4,0.2c-0.3,0.1-0.1,0.2,0.8,0.3c-1.9,0-3,0-3.3,0.1l-0.3,0.1l-0.5,0
							c-1.4,0.1-2.4,0.1-3,0c-1.3-0.2-2.7-0.2-4.1,0.1c1.4-0.1,2,0,1.6,0.2c-0.5,0.1,0.1,0.1,1.6,0c3.3-0.3,5-0.2,5.1,0.2
							c0.7,0.1,1.3,0.1,1.8-0.1c0.2,0,0.4-0.1,0.8-0.1c2-0.2,2.5-0.2,1.5-0.1l-0.4,0.1c1.1,0.2,0.6,0.3-1.6,0.4
							c-0.3,0-0.5,0.1-0.6,0.1c-0.2,0.1-0.2,0.1-0.2,0.1c1.7,0,2.2,0,1.4,0.2c-0.3,0.1-0.7,0.1-1.3,0.1c-4.1,0-6.5,0.2-6.9,0.6
							c1.2,0,2.9,0,4.8,0c0.4,0,0.6,0,0.6,0c2.1-0.3,3.9-0.3,5.5-0.1c-0.3,0-0.5,0-0.5,0c-0.3,0-0.2,0.1,0.1,0.1
							c1.5,0.1,42.6,0.2,43.3,0.3c0.2,0,0.2,0.1-0.2,0.2c-0.3,0.1-0.5,0.1-0.6,0.1c-0.2,0-0.2,0.1-0.2,0.1
							c-0.1,0.2-40.7,0.5-41.9,0.7c-0.2,0-0.3,0-0.5,0.1c1.1,0,42-0.1,42.6-0.2c0.7,0,1.2-0.1,1.5-0.2c0.2-0.1,0.3-0.1,0.2-0.2
							c-0.7-0.2,10.4-0.5,13.3-0.7c0.5-0.1,1.1-0.1,1.6-0.2c0.5,0,0.8-0.1,0.8-0.1c1.1-0.3,0.7-0.5-1.2-0.6c-2.7,0-2.7,0-0.1-0.1
							c1.2-0.1,1.8-0.2,1.5-0.2l-0.6,0c-0.6,0-1.2,0.1-1.7,0.1c-2.1-0.1-12.8,0.1-12.2,0.4c-1.3,0-2.4,0-3.3,0.1
							c-0.5,0-40.9,0-41.3-0.1c-0.4,0-0.4,0-0.1,0c0.4-0.1,40.7-0.1,41-0.1c0.3-0.1,0.3-0.1,0.1-0.1c-2,0-42.6-0.2-42-0.5
							c0.1-0.1,0.2-0.2,0.3-0.2c1.3,0,41.9-0.1,41.8-0.2c-0.2-0.2,0.5-0.2,2-0.1c12.6-0.8,13,1.1,1.3-0.6l-0.6,0
							c-2.8,0.1-3.4,0.1-2-0.1c1-0.1,12-0.2,13.1-0.2c1.9,0.1,2.6,0.1,2.3-0.1c-0.2-0.1-0.6-0.2-1.4-0.3c-2.7,0.4-14.6,0.4-15.5,0
							l0.2,0c2.7,0,14.5,0,15.3-0.3c0.3,0,0.5,0,0.5,0c0.3-0.1,0.5-0.1,0.6-0.1c1.3-0.1,1.8-0.1,1.5-0.2l-0.2,0
							c1.3-0.1,2.8-0.2,4.6-0.1l0.5,0c-0.1-0.1,0.1-0.2,0.6-0.2c0.2,0,0.5-0.1,0.8-0.1c0.3,0,0.4,0,0.4-0.1c0,0,0-0.1-0.1-0.1
							c-0.2,0-0.2,0,0.1-0.1c0.4-0.1,1-0.1,1.6-0.1c0.4,0,0.7,0,0.9,0c1.9,0,3.1,0,3.4-0.1c0.2,0,0.3,0,0.4-0.1
							c1.3,0,2.4,0.1,3.4,0.2c0.8,0.1,2,0.2,3.4,0.3c2.6,0.2,4,0.1,4.3-0.2l0-0.1c0.4,0.1,0.6,0.1,0.8,0.1l1.8,0
							c-1.6-0.1-2.1-0.2-1.5-0.3c1.3-0.2,2.5-0.2,3.5-0.2l0.5,0.1l-0.6,0c0.6,0.1,1.6,0.2,3.1,0.2c2.1,0,2,0-0.2,0.2
							c-0.5,0.1-0.9,0.1-1.4,0.1c-1.1,0.1-2.5,0.2-4.3,0.2c-0.7,0-1.1,0-1.5,0.1c-1.4,0.2-2.6,0.2-3.6,0.1c0.9-0.1,0.5-0.2-1.4-0.2
							c-0.5,0-0.9,0-1.3,0l-0.5,0c-1.1,0-1.1,0.2,0.1,0.3c-3.1,0-4.7,0-4.9-0.1c-0.2-0.1-0.5-0.2-0.8-0.3l-0.1,0
							c1.7,0.1,2.5,0.1,2.5-0.1c-0.9-0.1-2.6,0-5,0.1c-0.4,0-0.6,0-0.5,0c0.3,0.1,0.6,0.1,1.1,0.2l0.2,0c-1.3,0.1-1.8,0.1-1.3,0.2
							c0.7,0.1,0.9,0.3,0.7,0.6c1,0,2-0.1,2.9-0.1c0.4,0,0.8,0,1,0c2.3,0,2.7,0,1.2,0.2l-0.5,0.1c0.3,0,0.7,0,1.1,0.1l0.5,0
							c-2.2,0-2.5,0.1-0.9,0.2c0.7,0.1,1.4,0.1,2.2,0.1c2.1,0,3.2,0,3.6-0.2c0.2,0,0.4,0,0.7-0.1c0.3,0,0.7,0,1.1,0
							c0.7,0.1,1.5,0,2.5-0.2c-0.1,0.2,0.9,0.2,3.1,0.2c1.8-0.1,2.6-0.2,2.5-0.3l0-0.1c2.8-0.1,4-0.2,3.5-0.5
							c0.2-0.1,0.8-0.1,1.7-0.1c1.1,0.2,2.2,0.2,3.5,0.1c0.3-0.1,0.5-0.1,0.5-0.1c0.1-0.2,0.9-0.3,2.4-0.3l0.6,0
							c1.6-0.2,3.8-0.3,6.5-0.2c0.4,0,0.6,0.1,0.8,0c2.1-0.1,3.5-0.2,4.4-0.1c0.4,0,0.7,0,0.9,0c1.4-0.1,2,0,1.8,0.1
							c-0.1,0-0.2,0-0.2,0.1c0.5,0.2,1.3,0.2,2.5,0c0.3,0,0.4,0,0.4,0c-0.2-0.3,0.2-0.5,1.4-0.6l0.5,0c-1.9,0-2.3-0.1-1.1-0.2l0.1,0
							c0.7-0.1,0.5-0.2-0.6-0.2c-2.2,0-2.6,0.1-1,0.1c-0.7,0.1-1.7,0.1-3.1,0.2l-0.9,0c0-0.2,0.8-0.3,2.4-0.4l0.1,0
							c0.8-0.2,0.2-0.3-1.8-0.3c-0.4-0.1-0.1-0.2,0.9-0.2c0.7,0,1.1,0,1.1-0.1c0.8-0.2,1.9-0.3,3.5-0.2l0.6,0c0.6,0,0.9-0.1,0.9-0.1
							c0.8-0.3,0-0.4-2.2-0.1c-1.5-0.1-1.1-0.2,1-0.2c0.4,0,0.8,0,1.1,0c2.8-0.2,4.3-0.1,4.6,0c0,0.1,0,0.1-0.1,0.1
							c-0.1,0.2,0.1,0.3,0.7,0.4c-0.3,0-0.4,0-0.3,0.1c0.7,0.1,1.1,0.1,1.1,0c0-0.2,1.1-0.2,3.3-0.1l0.6,0c0.9-0.1,2-0.1,3.5-0.2
							l1-0.1c0.5,0,1.4,0,2.6,0c0-0.2-0.5-0.3-1.7-0.2c-0.7,0-1,0-1.1,0c0,0-0.1,0-0.1,0l18.3,0.2c-0.7,0.1-1.2,0.2-1.7,0.2
							c0.5,0,0.9,0,1.2,0c-0.1,0-0.1,0.1-0.1,0.2c0.4-0.1,0.8-0.1,1.2-0.1c0.6,0,0.9-0.1,1-0.2c0.6,0,0.8-0.1,0.4-0.2l-43.2,3.3
							c-0.1,0-0.1,0.1-0.2,0.1c0.9,0.2,2.3,0.4,4.2,0.4c1,0,2,0,3,0.1c0.1,0,0.3,0,0.5-0.1c1-0.1,1.8-0.2,2.7-0.3
							c0.3,0,0.5-0.1,0.5-0.1l0.4,0c0.1,0,0.2-0.1,0.2-0.1c0.1-0.2-0.1-0.3-0.5-0.4c0,0-0.1-0.1-0.1-0.1c-0.4-0.1-0.9-0.2-1.6-0.2
							c0.6-0.2,1.5-0.2,2.9-0.2c0,0.1,0.1,0.2,0.3,0.2c0.5,0.1,0.6,0,0.3-0.2c-0.8-0.4-0.7-0.8,0.4-1.2c0.6-0.2,0.6-0.2-0.1-0.2
							c-0.8,0-1.4-0.1-2-0.1c-0.1,0-0.1,0-0.2,0c-0.5,0-0.9,0-1.3,0c0.4-0.1,0.8-0.1,1.3-0.2l-2.6-0.1c-0.5,0-0.9-0.1-1.2-0.2
							c-0.2,0-0.3,0-0.2-0.1c0.1-0.1,0.4-0.2,0.7-0.1c0.8,0,1.4,0.1,2,0.3c1.5,0.2,2.8,0.2,4-0.2c0.4,0.2,1,0.3,1.7,0.3
							c0.3,0,0.4,0,0.4,0c0,0.1,0.1,0.1,0.1,0.2c0,0.1,0,0.1,0,0.2c0.1,0.1,0.1,0.2,0.2,0.2c0.1,0,0.2-0.1,0.3-0.1
							c0,0,0.1-0.1,0.1-0.2c0.1,0,0.1,0,0.2,0c0.1-0.1,0.5-0.2,1.1-0.2c0.8-0.1,1.5-0.2,2.1-0.1c0.4-0.1,0.7-0.2,1-0.4
							c-1.1,0-0.9-0.1,0.6-0.4c0.2,0,0.4,0,0.6,0l0.8-0.5l5.8-0.1c0.8,0.8,1.9,1,3.2,0.8c0.2-0.1,0.4-0.2,0.6-0.4c0-0.1,0-0.2,0-0.3
							c0-0.2-0.1-0.4-0.1-0.6c-0.3,0-0.8,0-1.4,0.1c0-0.2-0.3-0.2-1-0.1c-1.3,0.3-2,0.2-2.1-0.2l0-0.1c-1,0.1-1.9,0.1-2.8,0
							c-0.7-0.1-0.8-0.2-0.2-0.3c0.2-0.1,0.4-0.1,0.4,0c0.3,0,0.7,0,1,0c0.5,0,1,0.1,1.6,0.1c2.7,0,4.6-0.2,5.5-0.4l0.3,0
							c1.4,0.2,2.4,0.1,2.9-0.3c0.6-0.2,1.5-0.2,2.8-0.2c2.2,0.1,4.1-0.1,5.9-0.4c0.3,0,0.6,0,1,0l0,0l-3.2-0.4
							c-0.2-0.6-0.5-1.1-0.9-1.5c0,0-0.1-0.1-0.1-0.1c-0.3,0-0.6,0.1-0.8,0.2l-0.6-0.6c0.6,0,1.1,0.1,1.5,0.4c2.1-0.4,4.3-0.7,6.6-1
							c-0.8-0.1-1.6-0.2-2.3-0.2c-1,0.2-2.3,0.3-4.1,0.3c-2,0-3.5,0.2-4.8,0.4l-0.4,0c0.3-0.2-0.2-0.3-1.3-0.3
							c-1.1,0.2-2.1,0.4-3.1,0.6l-0.3,0.1c0.1-0.1,0.1-0.2,0-0.3c0.7,0,1.4-0.1,2-0.2c0-0.1-0.1-0.1-0.1-0.1
							c-0.3-0.1-0.6-0.2-0.8-0.1l-0.2-0.1c2.5-0.3,4.9-0.5,7.5-0.7c1.3-0.1,2.3,0,3.1,0c1.5,0.2,2.4,0.1,2.8-0.3
							c-1.8-0.1-4,0-6.5,0.1c-2.2,0.1-4.2,0.1-5.8-0.1l-0.4,0c-0.5,0.3-1.3,0.4-2.6,0.3c-0.4,0.1-0.8,0.1-1.2,0.1
							c-2.8,0.2-4.6,0.1-5.3-0.4c-0.4,0.1-0.7,0.1-0.8,0.2c-0.7,0.4-1.3,0.4-1.9,0.1c-0.2-0.1-0.1-0.2,0.1-0.2
							c0.3-0.1,0.8-0.3,1.4-0.5c-0.2,0-0.4-0.1-0.6,0c-0.2,0-0.4,0-0.6,0c-0.7,0-0.8-0.1-0.3-0.3l0.2-0.1c2.4-0.3,4.3-0.8,5.8-1.5
							c2-0.2,3.3-0.2,3.9,0.1c1,0.5,1.7,0.4,2.1-0.3c-0.8,0.1-1.2,0-1.2-0.1l0-0.2c-1.1,0.1-2.3,0.1-3.5,0l-0.3,0
							c0,0.3-0.6,0.4-2,0.3c-0.9-0.1-1.9,0-2.9,0.2c-1.3,0.3-2.4,0.7-3.5,1.1c-1.1,0.3-2.2,0.4-3.4,0.3c-0.2,0-0.3,0-0.4,0
							c-0.2-0.1-0.4-0.1-0.5-0.2c-1-0.2-1.5-0.5-1.4-1c0-0.1,0.1-0.1,0.2-0.1c1.4,0.1,2,0,1.9-0.4c0-0.1,0-0.1,0.1-0.1
							c0.3-0.1,0.5-0.1,0.5-0.2c0.1-0.1,0.1-0.2-0.2-0.2c-1.5-0.1-1.3-0.2,0.6-0.2c0.2,0,0.3,0,0.3,0c0,0.5,0.7,0.6,2.1,0.3
							c-0.1-0.3-0.2-0.6-0.4-0.9l-0.1-0.1c1.1-0.1,1.2-0.2,0.4-0.3c-0.2,0-0.4-0.1-0.5-0.1c-0.2-0.2-0.3-0.2-0.5-0.3
							c-0.8-0.2-0.9-0.4-0.4-0.5c0.2,0,0.3-0.1,0.3-0.2c-0.1-0.5,0.4-0.8,1.3-1.1c-0.7-0.2-0.6-0.5,0.1-0.9c0.5-0.3,1.6-0.5,3.3-0.6
							l0.3-0.1c-0.8-0.1-0.9-0.3-0.4-0.4c1.7,0,2.4,0.1,2,0.3c-0.2,0.1-0.2,0.2-0.2,0.2c0.7,0,1.2,0,1.6,0.1c-0.8-0.3-0.8-0.6,0-0.9
							c1.6-0.2,1.4-0.3-0.5-0.3l-0.3,0c-0.2,0.1-0.4,0.3-0.6,0.4l-0.3,0c-2.4,0-2.8-0.1-1.2-0.4c0.2-0.1,0.4-0.3,0.7-0.4
							c0.3-0.1,0.6-0.1,0.9-0.2c1.3-0.2,2.3-0.3,3-0.1c0.2,0.1,0.4,0.1,0.6,0.1c0.2,0,0.3-0.1,0.3-0.1c0.7,0.1,1.8,0.2,3.2,0
							c0.2,0,0.4,0,0.7,0c1.1,0.1,2.3,0.1,3.4,0c0.9,0,1.9-0.1,2.8-0.2c2.7-0.3,4.5-0.2,5.4,0.2c-0.9,0.2-0.7,0.2,0.6,0.1
							c0.2,0,0.4,0,0.6-0.1c0.5-0.2,1.3-0.2,2.4-0.2c0.4,0,0.6,0,0.8-0.1l0.3-0.1c1.8-0.1,2.8-0.3,2.9-0.8l0,0
							c-0.6,0.1-1.2,0.1-1.7,0.1l-0.3,0c-0.7,0.3-1.3,0.3-1.8,0.1l-0.2-0.1c-1.6,0.1-2.5,0-2.7-0.5c-0.1-0.1-0.2-0.1-0.4-0.1
							c-1.6,0-2,0.1-1.1,0.2c1.3,0.1,1.3,0.3,0,0.5c-0.6,0.1-1.1,0.2-1.7,0.3c-2.1,0.2-3.8,0.3-5.3,0.2c-1.5-0.1-3-0.2-4.6-0.2
							c-0.4,0-0.8,0-1.2,0.1c-1.3,0.1-1.8,0-1.5-0.4c0.3-0.2-0.3-0.2-1.6,0c-0.2,0.1-0.3,0.2-0.5,0.2c-0.2,0-0.4,0-0.7-0.1
							c-1.5-0.1-2.6-0.3-3.4-0.7c-0.1-0.1-0.2-0.1-0.4-0.3c-0.2-0.1-0.4-0.3-0.6-0.4l0.2,0c1,0,2.1,0,3.3-0.1
							c0.3,0.2,0.5,0.2,0.8-0.1l0.1,0c-0.6-0.1-1.2-0.1-1.8-0.2c-0.3,0-0.5-0.1-0.8-0.1c-1.9-0.2-1.3-0.2,1.6-0.2c0.1,0,0.1,0,0.2,0
							c0.2,0,0.4,0.1,0.5,0.1c-0.1,0-0.1,0.1-0.1,0.1l-0.1,0.1c0.8,0.1,1,0.3,0.4,0.6c0.9-0.1,1.4-0.3,1.6-0.5
							c0.1-0.1,0-0.2-0.2-0.3c-0.8-0.3-1.3-0.3-1.6-0.1c0,0-0.1,0-0.2,0c-1.5-0.1-1.3-0.1,0.6-0.2c0.2,0,0.5,0,0.7,0.1
							c1.8-0.1,2.2,0,1.2,0.2c-1-0.1-1.2-0.1-0.5,0c0.1,0.1,0.2,0.1,0.3,0.2l0.2,0.1c2.1-0.1,4.2-0.2,6.5-0.1c1.3,0,1.7,0.1,1.2,0.3
							c1.5-0.1,2.2,0,2.4,0.3c0.2,0,0.3-0.1,0.3-0.1c0.1-0.2,0.5-0.2,1.2-0.1c0.7,0.1,1.5,0.1,2.4,0.1c0.5,0,1,0,1.5,0
							c0.3,0,0.5,0,0.7,0l-0.5-0.5c-0.3,0-0.4,0-0.5-0.1l-0.2,0c-0.4,0-0.9,0-1.6-0.1c-0.1-0.1-0.2-0.1-0.3-0.2l-0.2-0.1
							c-1.1,0.1-2.1,0.1-2.9,0c-0.2,0-0.3,0-0.5,0l-0.4,0c-0.1,0.3-0.6,0.4-1.6,0.2c-0.3,0-0.6,0-1,0c-0.2,0-0.3,0-0.4,0
							c-1.2-0.1-2.6-0.2-4.3-0.2c-0.2,0-0.5,0-0.7,0c-1.2,0-1.7,0-1.7-0.1c0-0.1,0.2-0.1,0.5-0.2c2-0.1,2.2-0.1,0.6-0.2l-0.3,0
							c-0.6,0.1-1.1,0.1-1.6,0c-0.1,0-0.3,0-0.6,0c-2.3,0-4.2-0.1-5.8-0.3c-0.2,0-0.4-0.1-0.6-0.1l-0.3-0.1c0.7,0,1.5,0,2.4-0.1
							L241.9,26.5 M248.9,42.6c-1.6-0.2-1.6-0.4,0.2-0.6c0.4,0.2,1,0.2,1.8-0.1l0.3-0.1c0,0.1,0,0.1,0.1,0.2l-0.2-0.1
							C251.4,42.2,250.7,42.4,248.9,42.6 M247.2,41.7c0.2,0,0.3,0,0.5,0c-0.2,0-0.5,0-0.7,0C247,41.7,247.1,41.7,247.2,41.7
							 M252,42.1c-0.2-0.1-0.4-0.1-0.6-0.1l0,0c0.1,0,0.3,0,0.6,0c0.1,0,0.1,0,0.2,0l0,0L252,42.1 M223.5,50.6L223.5,50.6
							c-0.1,0-0.2,0-0.3,0l-0.1-0.7c0.1,0,0.2,0,0.3,0c0.2,0,0.3,0,0.5,0c1,0.1,1.8,0.2,2.5,0.4c-0.5,0-1,0-1.5,0.1
							C224,50.4,223.6,50.5,223.5,50.6 M27.3,46.2c0.1,0,0.2,0,0.3-0.1l0.2,0c0.1,0.1,0.3,0.1,0.4,0.1
							C27.9,46.2,27.6,46.2,27.3,46.2 M243.4,24.7c0.2,0,0.1-0.1,0-0.1c-0.2,0-0.4-0.1-0.7-0.1c-1.1-0.2-1.4,0-0.7,0.4
							C242.7,24.9,243.2,24.8,243.4,24.7 M241.1,16.9c1.6,0,2-0.2,1.1-0.4C241.4,16.4,241.1,16.6,241.1,16.9 M246.4,18.9
							c0.2,0,0.4,0,0.6,0.1c0.2,0.1,0.3,0.1,0.5,0.1c0.2,0,0.5,0,0.9,0c1.1,0,1.8,0,2.1,0c0.4-0.2,1-0.2,1.6,0
							c-0.3-0.2-0.1-0.3,0.6-0.3l0.6,0.1c-0.2,0-0.6-0.1-1.2-0.2c-0.3-0.3-1.1-0.4-2.4-0.4c-1.1-0.1-1.7,0-1.9,0
							c-0.1,0.1-0.3,0.1-0.5,0.1c-0.9,0-1.9,0.1-2.8,0.1c-0.9,0.1-1.9,0.1-2.9,0c0.3-0.2,0.4-0.4,0.4-0.6c0.1-0.1,0-0.1-0.2-0.1
							c-1-0.1-1.9-0.2-2.5-0.5c-1.1-0.4-2.8-0.6-5.1-0.7c-2.3-0.1-4.3-0.3-6-0.6c-0.2-0.1-0.4-0.1-0.5-0.1c-1.1,0.1-1.7,0.1-1.9,0.1
							c-0.2-0.1-0.5-0.1-0.7-0.1c-0.4,0-0.7,0-0.9,0.1c-0.5,0.1-1.2,0.1-2,0.1c-0.8,0-1.6,0-2.4,0.1c-1.4,0,46.7-3.3,46.1-3.5
							c-0.5-0.1-1.1-0.1-1.8-0.1c-0.2,0-0.3,0-0.3,0c0.1,0.2-0.1,0.3-0.8,0.3c-1.6,0-3.2,0-4.7,0c-1,0-1.5,0.1-1.6,0.2
							c-0.9,0-1.8-0.1-2.6-0.1c-0.8,0-1.7,0-2.4,0l-0.6-0.1l-0.1,0c-0.3,0-0.5,0-0.8,0l0,0.1c-1.5,0-2.9,0-4,0.2c1,0,1.9,0,2.7,0
							c0.6,0,1.1,0,1.7,0c1.8,0,3.5,0.1,5,0.2c0.5,0,1,0,1.6,0c1.9,0.1,3.9,0.1,6.1,0.1c-0.1,0.1-0.4,0.2-0.7,0.3
							c-0.6,0.1-1.2,0.1-1.8,0.1c-1.8,0.2-3.2,0.2-4.1,0.1c-0.8-0.1-2-0.1-3.4-0.1c-1,0-1.9,0-2.8,0l0.1,0.6c0.4,0,0.7,0,1,0
							c1.3,0.1,2.9,0.1,4.7,0.1c0.8-0.1,1.5-0.1,2.3-0.2c0.4,0,0.7-0.1,1-0.1c1.6-0.3,3.5-0.6,5.8-0.8c0.2,0.1,0.4,0.1,0.6,0.1
							l0-0.1c0.2,0-48.6,3.2-48.3,3.2c0.8-0.2,1.2-0.1,1.2,0.1c0,0,0.1,0.1,0.3,0.1c1.1,0.2,2,0.2,2.6-0.2c3-0.2,5.1-0.2,6.1,0.1
							c0.2,0.1,0.3,0.1,0.5,0.1c2.4,0,4,0.3,4.7,0.7c0.2,0,0.3,0,0.5-0.1c0.5-0.1,1.3-0.1,2.4,0.1c0.5,0.1,0.9,0.1,1.5,0.2
							c0.3,0,0.5,0.1,0.7,0.1c0.2,0.1,0.4,0.1,0.6,0.1c1.1,0.1,1.5,0.4,1.1,0.9c-0.4,0-0.8,0-1.2,0c-1.6,0-2,0.1-1.1,0.1
							c0.4,0,0.7,0.1,1,0.1c0.2,0.1,0.3,0.1,0.5,0.2c0.5,0.2,1,0.4,1.4,0.6c0.2,0.1,0.5,0.2,0.9,0.2c2.9,0.5,5.5,1,7.9,1.7
							c-1.3,0.1-1.7,0.2-1.2,0.3c0.8,0.1,1.4,0.1,1.9-0.2c0.1,0,0.2-0.1,0.3-0.1c0.6,0.1,0.9,0.2,1.1,0.3l0.1,0
							c1.4-0.2,2.1-0.1,2,0.3c0.2-0.1,0.4-0.1,0.6-0.1c1-0.2,1.2-0.3,0.6-0.3c-1.6-0.1-3-0.2-4.2-0.5c-1.8-0.3-3.6-0.6-5.6-0.8
							c-0.1-0.2-0.3-0.3-0.6-0.3l-0.2-0.1c0.6-0.1,0.5-0.2-0.3-0.2c-0.4,0-0.7,0-0.9-0.1c0,0,0,0,0-0.1c0.1-0.2-0.3-0.3-1-0.3
							c-0.8-0.2-0.6-0.3,0.5-0.4c0.6-0.1,1.2-0.2,1.8-0.3C245.1,18.8,245.9,18.8,246.4,18.9 M247.1,14.5c-0.2,0.3-0.3,0.6-0.4,0.9
							c1.5-0.2,2.2-0.4,1.9-0.6c-0.2-0.2-0.4-0.3-0.6-0.4c-0.4-0.2-0.8-0.3-1.1-0.2c-1,0.3-1.1,0.4-0.3,0.3L247.1,14.5 M246.4,15.7
							l-0.3,0c-1.3,0.2-1.3,0.4,0.1,0.5C246.9,16.1,247,15.9,246.4,15.7 M243.9,10.8c-1.1-0.2-1.8-0.1-2,0.2c0.7,0,1.3-0.1,1.7-0.1
							L243.9,10.8 M241.5,12.4c0.2,0,0.4,0,0.4,0l0.2-0.1c0.9,0.1,1.5,0,1.9-0.1c0.1,0,0.2,0,0.2,0c0.9,0.1,1.8,0,2.6-0.2
							c-0.2,0-0.4,0-0.5,0c-2.8,0-4.9-0.3-6.1-0.7c0.7,0.3,0.6,0.5-0.5,0.6c-1.1,0-2.1,0.1-3,0.2l-0.5,0.1c0.1,0.1,0.7,0.2,1.8,0.1
							C240,12.1,241.2,12.2,241.5,12.4 M251.9,13.5C252,13.5,252,13.5,251.9,13.5c-0.5-0.2-1.3-0.3-2.2-0.1
							c-0.3,0.1-0.5,0.1-0.6,0.1c-1.2-0.3-2.3-0.3-3.3,0c-0.6,0.1-0.4,0.3,0.7,0.5c0.5-0.2,1.3-0.3,2.2-0.1c0.5,0,1.1-0.1,1.9-0.3
							C251.4,13.7,251.9,13.7,251.9,13.5 M264,24.5l0.4-0.2l0-0.1C263.8,24.3,263.6,24.4,264,24.5 M260.4,26.2
							c0.4-0.2,0.4-0.3-0.1-0.3c-1.2,0-2,0-2.4,0.1c-2.2,0.2-2.5,0.4-1,0.7c0.7,0,1-0.1,0.9-0.3c0-0.1,0.1-0.1,0.3-0.1
							c0.3-0.1,0.5-0.1,0.6-0.1C259.5,26.3,260,26.3,260.4,26.2 M260.8,26.6C261,26.6,261,26.5,260.8,26.6c-0.3-0.1-0.6-0.1-0.9-0.1
							c-1,0.1-1.2,0.3-0.6,0.4C260.1,26.9,260.6,26.8,260.8,26.6 M264.6,23.6l0.1-0.3c-1.1-0.1-1.7,0.1-1.7,0.5
							C263.6,23.8,264.2,23.7,264.6,23.6 M264.9,22.9L264.9,22.9l0.4-0.3C265,22.7,264.9,22.8,264.9,22.9 M261.1,20.3l0.3,0
							c0.5,0.1,0.8,0.1,0.9-0.1c0.2-0.2-0.2-0.3-1.3-0.2c-0.2,0-0.4,0-0.6-0.1c-0.6,0-1.1,0-1.6,0c-0.5,0-1.1,0-1.9,0
							c-2.1,0.2-3.2,0.1-3.5-0.2c-1.3,0.1-1.5,0.2-0.7,0.4c0.3,0,1.1,0,2.5-0.1c1-0.1,1.7,0,2.2,0.1c0.1,0,0.4,0,0.8,0
							c1,0,1.5,0,1.2,0.2C259.8,20.4,260.4,20.3,261.1,20.3 M260.5,15.6l0.4,0c-0.1-0.1-0.2-0.1-0.4-0.2
							C260.5,15.5,260.5,15.6,260.5,15.6 M262.3,16.2c0.1-0.1,0.2-0.1,0.3-0.2c-0.3,0.1-0.5,0.1-0.6,0.1c-0.1,0.1-0.1,0.1-0.1,0.1
							C262.1,16.3,262.2,16.3,262.3,16.2 M264,15.5c-0.2,0-0.5,0-0.8,0.1c-0.1,0-0.3,0-0.5,0c-1.5,0.1-1.6,0.2-0.4,0.2
							c0.1,0,0.3,0,0.4,0c0.2,0,0.3,0,0.4,0C263.5,15.7,263.7,15.6,264,15.5 M261,12.2l-0.3,0c-0.6,0.2-1.7,0.3-3.2,0.3
							c-2.4,0-2.6,0.1-0.8,0.4c1,0.2,1.6,0.4,1.6,0.8l0.3,0C259.1,13.2,259.9,12.7,261,12.2 M282.9,50l-3.1,0.1l2.6,0.3
							C282.6,50.2,282.7,50.1,282.9,50 M298.8,54.9c-0.2,0-0.4,0-0.5,0c-0.9,0.1-1,0.2-0.1,0.3C300.5,55.1,300.7,55,298.8,54.9
							 M281.1,33.3l0.6,0c-1.1-0.6-1.9-0.6-2.4,0.2C280,33.4,280.6,33.3,281.1,33.3 M292.2,32.8l0.3-0.2c-2-0.1-3.3,0.1-3.8,0.5
							C290.3,33.1,291.5,33,292.2,32.8 M291,30.8c0.1,0.1,0.2,0.2,0.4,0.3c0.2-0.1,0.4-0.2,0.6-0.2c0.4-0.1,0.6-0.1,0.7-0.2
							c0,0,0.1,0,0.1-0.1C292.2,30.7,291.6,30.7,291,30.8 M293.7,0.4c0.8-0.1,1.4-0.2,1.8-0.3l0.2-0.1C294.1-0.1,293.5,0,293.7,0.4
							 M249.9,3.4c2.9-0.1,4.7-0.3,5.4-0.7l0.1-0.1C252.6,2.7,250.7,2.9,249.9,3.4 M220.5,3.5c-0.8,0-1.2,0-1.2,0.2
							c0.1,0.1,0.2,0.2,0.5,0.3c0.4,0.1,0.8,0.3,1.2,0.5c0.6,0.3,1.4,0.6,2.2,0.9l0.3,0c-0.3-0.3-0.8-0.5-1.6-0.7
							c0-0.3,0-0.5,0.1-0.7c0,0,0-0.1,0-0.1C221.6,3.5,221.1,3.4,220.5,3.5 M203.6,3.4c0.7-0.1,1.2-0.1,1.6-0.2
							c1.2-0.2,2.2-0.4,3-0.7c0.6-0.2,1.1-0.4,1.4-0.6c0.6-0.3,0.5-0.5-0.1-0.5c1.2-0.2,1.2-0.3-0.1-0.2c-0.3,0-0.5,0-0.7-0.1
							c-2.7-0.1-4.1,0-4.3,0.3c0.4,0.1,0.7,0.1,1,0c0.3,0,0.7,0,1.1,0c1.7-0.1,2.3-0.1,1.7,0.1C206.3,2.2,204.8,2.8,203.6,3.4
							 M197.7,5c-2.1,0.1-3.1,0.3-3,0.7c1.7-0.2,2.6-0.4,2.9-0.6L197.7,5 M178,8.3c0,0.1,0,0.1,0.1,0.1c1.7,0.3,2.7,0.6,3.1,1.1
							c1.5,0.1,2.9,0.2,4,0.3c0.5,0.1,0.9,0.2,1.2,0.3c0.3,0,0.6,0,0.8-0.1c0.8,0,1.6,0,2.4,0c0.6,0.1,1.1,0.1,1.7,0
							c1.1,0.1,2.2,0.1,3.3,0.1c1.1,0.1,1.8,0.2,2,0.3c1.9-0.1,2.2-0.2,0.9-0.4l-0.5-0.1c1.7-0.1,2.6-0.3,2.9-0.7c0-0.1,0-0.1,0-0.1
							c0-0.1-0.3-0.1-0.8-0.1c-2.4-0.1-3-0.2-1.7-0.3c-1.4-0.1-1.5-0.3-0.4-0.4c1.5-0.2,1.7-0.3,0.7-0.3c-0.3-0.1-0.6-0.1-0.9-0.2
							c-0.4,0-0.6,0-0.6,0c-0.3-0.3-1.1-0.6-2.2-0.7c-0.3,0-0.5-0.1-0.6-0.1c-0.3,0-0.6-0.1-0.9-0.1c-1.1,0-1.9,0-2.5-0.1
							c-1.5-0.2-2.9-0.2-4.2,0c-1.1-0.1-2.1,0-2.9,0.1c-0.7,0.1-1.2,0.2-1.5,0.4c-0.1,0-0.1,0-0.2,0.1c-0.3,0.1-0.7,0.3-1.3,0.4
							C179.2,7.9,178.6,8.1,178,8.3 M168.7,2.3c-1.1,0.3-0.7,0.5,1,0.7c0.5,0.1,0.8,0.2,0.9,0.3c0.5,0.4,0.4,0.8-0.4,1.2
							c2.6-0.1,3.7-0.3,3.4-0.6c0,0,0-0.1,0.1-0.1c-0.2-0.4,0.2-0.7,1.3-1c-0.3,0-0.6-0.1-0.7-0.1c-1.6,0.1-2.5,0.1-2.6-0.1
							C171.2,2.3,170.3,2.2,168.7,2.3 M164.8,8.4l-0.6,0c0.3,0.3-10.3,0.5-11.9,0.7l0.3,0c1,0.2,11.7,0.4,12.3,0.6
							c0.7,0,1.2,0,1.5-0.1c0.4-0.1,0.7-0.1,0.9-0.2c0.4-0.1,0.7-0.3,0.8-0.4C168.7,8.7,167.6,8.5,164.8,8.4 M85.9,10.2l-0.5-0.2
							c-1.5,0.2-1.5,0.4-0.2,0.6c1.1,0.2,0.9,0.4-0.6,0.7c0.3,0,0.6,0,0.9,0c0.4-0.1,0.8-0.1,1.1-0.1c1.4,0,2-0.1,1.8-0.2
							C87.8,10.7,86.9,10.4,85.9,10.2 M72.6,6.9c1.6-0.2,1.5-0.3-0.1-0.4c-0.4,0-0.6-0.1-0.6-0.1C70.6,6.5,70.8,6.7,72.6,6.9
							 M56.3,12.7c1.9,0,3.4-0.1,4.7-0.3c1.7-0.2,2-0.3,1.1-0.3c-0.6,0-1,0-1.3,0C59.7,12.4,58.2,12.6,56.3,12.7z"/>
					</g>
				</g>
			</g>
		</g>
	</g>
	<g>
		<path class="st1" d="M211.6,40.8h-3.9l0-0.1c0-0.1-0.1-0.2-0.1-0.3c-0.1-1.5-0.2-3-0.3-4.5l-0.1-1.2c0.1-0.1,0.3-0.1,0.4-0.2
			c0.3-0.1,0.6-0.2,0.9-0.3c0.7-0.2,1-0.7,1-1.5l0-0.1h-2.3V27c1.8-0.2,2.7-0.8,2.9-2.1l0-0.1l-0.1,0l0,0l-0.2-0.1
			c-1.2,0.2-2.1,0-2.9-0.3c-0.3-0.1-0.7-0.1-1,0.2c-0.4,0.3-0.8,0.9-0.7,1.4c0,0.2,0.1,0.3,0.1,0.5c0.1,0.6,0.2,1.3,0.2,1.9
			c0,0.5,0,1-0.1,1.5c0,0.2-0.1,0.5-0.1,0.7c0,0.1,0,0.3,0,0.4c0,0.3,0,0.6-0.1,0.9c-0.3,1.4-0.3,2.4,0,3.4c0.1,0.2,0.1,0.4,0.1,0.6
			l0,0.1c0,1.7,0.1,3.4,0.1,5c0,0.7,0.3,1.3,0.8,1.6c0.3,0.2,0.6,0.3,1,0.3c0.3,0,0.6-0.1,0.9-0.2c0.4-0.2,0.9-0.2,1.3-0.3l0.2,0
			c0.2,0,0.3,0,0.5,0c0.2,0,0.4,0,0.5,0c0.8-0.1,1.1-0.6,1.1-1.4L211.6,40.8z M202.6,26c0.1-0.9-0.1-1.6-1.2-1.8
			c-1-0.2-1.5,0.3-1.9,1.2c-0.2,0.4-0.3,0.9-0.4,1.4c-0.4,1.3-1.4,5.9-1.9,5.9c-0.6,0-0.7-1.2-0.9-1.8c-0.5-1.7-1-3.5-1.6-5.2
			c-0.6-1.6-1-1.7-2.7-1.2c-0.1,0.9-0.3,2-0.3,2.9c0.2,4.3,0.3,8.5-0.5,12.7c-0.2,1.2-0.1,2.5,1.3,2.4c0.5-0.1,0.7-0.7,0.7-1
			c0.4-3.9,0.6-6.9,1-11.3c0.8,2.6,1.9,4.7,2.6,7.1c1.4-1.9,1.5-3.3,2.9-4.9c0.1,2.2,0.3,4.3,0.4,6.3c0,2-0.7,4,1.3,3.7
			c0.6-0.1,0.8-1.4,0.8-1.6c0.1-2.2,0-1.1,0-3.3c0-0.5-0.1-1.1-0.1-1.6c0-2.1,0.1-4.3,0.1-6.4C202.4,28.3,202.5,27.1,202.6,26z
			 M183.7,36.3c0-0.2,0-0.3,0-0.5c0-0.5,0-1,0-1.5c0.1-1.4,0.2-2.9,0.3-4.3l0.2-1.9c0-0.5,0.4-0.7,0.7-0.8c0.4-0.2,0.9-0.2,1.4-0.2
			l0.2,0.2c0.1,0.4,0.2,0.8,0.3,1.2c0,1.6,0.1,3.1,0.1,4.7l0,2.2c0,0.2,0,0.4,0,0.6l0,0.1C185.9,36.3,184.9,36.3,183.7,36.3z
			 M189,39.6c0-0.5,0-1,0-1.4c0-0.9,0-1.8,0-2.7l0-1.4c0-2.2,0-4.4-0.2-6.6c-0.1-0.9-0.5-1.3-1-1.7c-0.2-0.1-0.3-0.3-0.5-0.4
			l-0.1-0.1c-1-0.6-1.9-0.7-2.8-0.1c-0.9,0.5-1.9,1.3-1.9,2.8c0,0.1,0,0.2-0.1,0.3l-0.1,0.3c-0.1,0.3-0.1,0.7-0.2,1
			c-0.2,0.8-0.4,1.7-0.4,2.6c0,1.1-0.1,2.2-0.1,3.3c0,0.6,0,1.2-0.1,1.8c0,0.1,0,0.2,0,0.3l0,0.1l0.1,1.1c0.1,0.8,0.1,1.6,0.2,2.3
			c0,0.4,0.1,0.6,0.1,0.8c0,0.1,0.1,0.2,0.1,0.5c0.1,0.3,0.4,0.6,0.7,0.6l0,0c0.2,0,0.5-0.2,0.7-0.5c0.1-0.2,0.2-0.4,0.2-0.6
			c0-0.2,0-0.4,0-0.5c0-0.1,0-0.3,0-0.6l0-2.4c0.1,0,0.3,0,0.4,0c0.5,0,0.9,0,1.4-0.1c0.5-0.1,0.9-0.2,1.3-0.4
			c0.1,0,0.2-0.1,0.3-0.1l0,0.1c0,0.2,0.1,0.5,0.1,0.7c0,0.4,0.1,0.8,0.1,1.2c0,0.5,0.1,0.9,0.1,1.4l0,0.1c0,0.4,0.1,1,0.4,1.3
			c0.1,0.1,0.3,0.2,0.6,0.1c0.7-0.1,0.7-0.9,0.7-1.4C189,40.7,189,40.2,189,39.6z M179.1,34.9c0.1-0.3,0-0.5-0.1-0.8
			c0-0.4-0.3-0.6-0.7-0.7c-0.9-0.1-2.2,0.6-2.7,1.5c0.5,0.1,1.1,0.3,1.5,0.4c-0.2,1.7-0.3,3.4-0.5,5.3c-0.3,0.1-0.7,0.2-1,0.3
			c-0.5,0.1-0.8-0.1-0.9-0.6c-0.1-0.6-0.1-1.2-0.1-1.7c0-0.3,0-0.5-0.1-0.8c-0.1-0.5-0.1-1.1,0.1-1.6c0.1-0.4,0.1-0.9,0.1-1.3
			c0-0.5-0.1-0.9,0-1.4c0.2-1.7,0-3.5,0.1-5.2c0-0.3-0.1-0.7,0-1c0.1-0.8,0.5-1.1,1.3-1.2c0.5,0,1.7,0.1,2.2,0
			c0.4-0.1,0.6-0.4,0.5-0.7c-0.1-0.2-0.4-0.5-0.6-0.5c-0.9-0.1-2.5-0.3-3.3-0.2c-0.3,0-0.8,0.4-1,0.7c-0.3,0.8-0.6,1.6-0.8,2.4
			c-0.2,1.5-0.2,3-0.3,4.5c0,0.6-0.1,1.2-0.1,1.9c-0.1,1.5-0.2,2.6-0.2,4.5c0.1,0.9,0,1.8,0.4,2.6c0.3,0.6,0.8,1.1,1.5,1.1
			c1.5,0.1,2.7-0.4,3.9-1.2c0.6-0.4,0.8-0.9,0.8-1.6C179.1,38.1,178.7,36.5,179.1,34.9z M162.3,37.8c-0.1,1-0.3,2-0.5,3
			c-0.8,0-1.6,0-2.6,0c0.3-1.6,0.8-3,0.9-4.5c0.2-2,0.2-4.1,0.3-6.1c0-1.2,0-2.4,0-3.6c1.8,0.1,2,0.2,2,1.5c0.1,2,0,4,0,6
			c0,0.2,0.1,0.5,0.1,0.7C162.4,35.8,162.4,36.8,162.3,37.8z M164.7,26.9c-0.8-1.9-2.2-2.8-4.3-2.5c-0.4,0.1-0.8,0.2-1.3,0.2
			c-0.9,0-1.5,0.4-2,1.4c0.6,0.3,1.1,0.5,1.7,0.8c-0.1,2.2-0.3,4.5-0.4,6.7c-0.1,2.3,0,4.6,0,7c-0.7,0.2-1.5,0.3-1.4,1.1
			c0.1,0.7,0.8,0.9,1.4,1c0.5,0,1,0.1,1.4,0c2.7-0.5,2.7-0.9,3.3-2.6c0.9-2.6,1.1-5.2,1.6-7.8C165.2,30.5,165.5,28.7,164.7,26.9z
			 M149.4,36.3c0-0.2,0-0.3,0-0.5c0-0.5,0-1,0-1.5c0.1-1.4,0.2-2.9,0.3-4.3l0.2-1.9c0-0.5,0.4-0.7,0.7-0.8c0.4-0.2,0.9-0.2,1.4-0.2
			l0.2,0.2c0.1,0.4,0.2,0.8,0.3,1.2c0,1.6,0.1,3.1,0.1,4.7l0,2.2c0,0.2,0,0.4,0,0.6l0,0.1C151.6,36.3,150.6,36.3,149.4,36.3z
			 M154.7,39.6c0-0.5,0-1,0-1.4c0-0.9,0-1.8,0-2.7l0-1.4c0-2.2,0-4.4-0.2-6.6c-0.1-0.9-0.5-1.3-1-1.7c-0.2-0.1-0.3-0.3-0.5-0.4
			l-0.1-0.1c-1-0.6-1.9-0.7-2.8-0.1c-0.9,0.5-1.9,1.3-1.9,2.8c0,0.1,0,0.2-0.1,0.3l-0.1,0.3c-0.1,0.3-0.1,0.7-0.2,1
			c-0.2,0.8-0.4,1.7-0.4,2.6c0,1.1-0.1,2.2-0.1,3.3c0,0.6,0,1.2-0.1,1.8c0,0.1,0,0.2,0,0.3l0,0.1l0.1,1.1c0.1,0.8,0.1,1.6,0.2,2.3
			c0,0.4,0.1,0.6,0.1,0.8c0,0.1,0.1,0.2,0.1,0.5c0.1,0.3,0.4,0.6,0.7,0.6l0,0c0.2,0,0.5-0.2,0.7-0.5c0.1-0.2,0.2-0.4,0.2-0.6
			c0-0.2,0-0.4,0-0.5c0-0.1,0-0.3,0-0.6l0-2.4c0.1,0,0.3,0,0.4,0c0.5,0,0.9,0,1.4-0.1c0.5-0.1,0.9-0.2,1.3-0.4
			c0.1,0,0.2-0.1,0.3-0.1l0,0.1c0,0.2,0.1,0.5,0.1,0.7c0,0.4,0.1,0.8,0.1,1.2c0,0.5,0.1,0.9,0.1,1.4l0,0.1c0,0.4,0.1,1,0.4,1.3
			c0.1,0.1,0.3,0.2,0.6,0.1c0.7-0.1,0.7-0.9,0.7-1.4C154.8,40.7,154.8,40.2,154.7,39.6z M142.4,39.9c-0.1,0.6-0.8,1-1.4,0.7
			c-0.6-0.3-0.7-0.7-0.7-1.7c-0.1-2.8-0.2-5.6-0.4-8.4c-0.1-1.2-0.5-2.8-0.1-3.2c0.4-0.4,0.9-0.5,1.3-0.5c0.4,0,0.7,0.3,0.8,0.7
			c0.2,3.8,0.4,7.6,0.6,11.4C142.5,39.2,142.4,39.6,142.4,39.9z M144.5,39.3c0-1.6-0.1-3.2-0.2-4.9c-0.2-3,0.4-6.8-0.8-9.1
			c-0.5-1-2.2-0.6-3.4-0.7c-1.5-0.1-2.1,0.4-2.2,1.9c-0.1,1.1,0,2.2,0,3.4c0,1.6,0,3.2,0,4.9c0,1.5-0.2,3-0.1,4.5
			c0.1,1.3,0.9,2.5,2.1,3.2c1.9,1.2,3.7,0.6,4.5-1.5C144.6,40.5,144.5,39.9,144.5,39.3z M132.6,39.9c-0.6-0.6-0.4-1.5-0.4-2.4
			c-0.1-0.6-0.1-1,0-1.5c0.1-1.2-0.1-2.3-0.1-3.5c0-2.2-0.1-4.4-0.1-6.6c0-0.2-0.1-0.4-0.2-0.6c-0.2-0.5-0.5-0.8-1.1-0.7
			c-0.6,0.1-0.7,0.5-0.7,1.1c0,2.9,0.2,5.8,0.1,8.6c-0.1,2.1,0.1,4.2,0.1,6.4c0,0.7,0.2,1.3,0.9,1.6c1.3,0.5,2.4,0,3.6-0.5
			c0.8-0.3,0.7-1.2,1-2C134.6,40,133.4,40.7,132.6,39.9z M126.8,24.6c-1.1,0-1.1,2.5-1.2,3.7c-0.2,1.3-0.2,2.7-0.3,4
			c-0.1,1.2-0.1,2.4-0.2,3.6c-0.8-1.9-1.4-3.8-1.9-5.6c-0.1-0.3-0.2-0.5-0.3-0.8c-0.4-1-0.8-2.1-1.2-3.1c-0.2-0.5-0.2-1.3-0.9-1.5
			c-1.3-0.3-1.3,1.5-1.4,2.5c0,1.2-0.1,2.2-0.1,3.6c-0.2,3.6-0.5,7.1-0.4,10.7c0,0.4,0,0.6,0.4,0.8c0.1,0.1,0.7,0.1,0.7-0.1
			c0.9-3.9,0.9-5.4,1.5-8.4c0.3,0.3,0.4,0.6,0.6,0.9c0.8,2,1.7,4.1,2.5,6.1c0.3,0.8,0.7,1.7,1.7,1.6c1.4-0.2,1.1-2.5,1.2-3.9
			c0.1-2.3,0.2-4.5,0.3-6.8c0.1-2,0.1-3.9,0.2-5.9C127.9,25.1,127.8,24.6,126.8,24.6z M116.5,24.8c-0.9-0.5-1.7,0.2-1.8,1.1
			c-0.3,1.5-0.8,2.9-0.8,4.4c-0.1,2.5-1.1,4.8-1.5,7.6c-1.2-2-1-3.9-1.4-5.8c-1,0.1-1.3,0.6-1.5,1.3c-0.5,1.7-1,3.5-1.7,5.6
			c-0.1-0.8-0.2-1.1-0.2-1.5c-0.3-3.7-0.5-6.3-0.5-9.5c0-0.9-0.1-3.6-1.3-3.4c-0.5,0.1-0.5,0.8-0.6,1.2c-0.1,0.8,0.1,2.4,0.1,3.1
			c0.2,4.2,0.4,8.5,0.7,12.7c0,0.5,0.3,0.9,0.9,0.9c1.1,0,1.7-3,2.5-5.1c0.2,0.5,0.3,0.7,0.4,0.9c0.4,1,0.8,2.4,1.4,3.4
			c0.6,1.1,1.5,1,2.1-0.1c0.1-0.2,0.2-0.4,0.2-0.6c0.4-2,0.7-4.4,1.2-6.4c0.4-2,1-4,1.4-6C116.4,27.4,117.1,25.1,116.5,24.8z
			 M100.4,39.9c-0.1,0.6-0.8,1-1.4,0.7c-0.6-0.3-0.7-0.7-0.7-1.7c-0.1-2.8-0.2-5.6-0.4-8.4c-0.1-1.2-0.5-2.8-0.1-3.2
			c0.4-0.4,0.9-0.5,1.3-0.5c0.4,0,0.7,0.3,0.8,0.7c0.2,3.8,0.4,7.6,0.6,11.4C100.5,39.2,100.5,39.6,100.4,39.9z M102.5,39.3
			c0-1.6-0.1-3.2-0.2-4.9c-0.2-3,0.4-6.8-0.8-9.1c-0.5-1-2.2-0.6-3.4-0.7c-1.5-0.1-2.1,0.4-2.2,1.9c-0.1,1.1,0,2.2,0,3.4
			c0,1.6,0,3.2,0,4.9c0,1.5-0.2,3-0.1,4.5c0.1,1.3,0.9,2.5,2.1,3.2c1.9,1.2,3.7,0.6,4.5-1.5C102.6,40.5,102.6,39.9,102.5,39.3z
			 M90.6,37.8c-0.1,1-0.3,2-0.5,3c-0.8,0-1.6,0-2.6,0c0.3-1.6,0.8-3,0.9-4.5c0.2-2,0.2-4.1,0.3-6.1c0-1.2,0-2.4,0-3.6
			c1.8,0.1,2,0.2,2,1.5c0.1,2,0,4,0,6c0,0.2,0.1,0.5,0.1,0.7C90.7,35.8,90.7,36.8,90.6,37.8z M93,26.9c-0.8-1.9-2.2-2.8-4.3-2.5
			c-0.4,0.1-0.8,0.2-1.3,0.2c-0.9,0-1.5,0.4-2,1.4c0.6,0.3,1.1,0.5,1.7,0.8c-0.1,2.2-0.3,4.5-0.4,6.7c-0.1,2.3,0,4.6,0,7
			c-0.7,0.2-1.5,0.3-1.4,1.1c0.1,0.7,0.8,0.9,1.4,1c0.5,0,1,0.1,1.4,0c2.7-0.5,2.7-0.9,3.3-2.6c0.9-2.6,1.1-5.2,1.6-7.8
			C93.5,30.5,93.8,28.7,93,26.9z"/>
	</g>
	<g>
		<g>
			<path class="st1" d="M48.7,31.4c-0.1,0-0.2,0-0.2,0c0.3,0.2,0.7,0.4,1.1,0.6c0.6,0.3,1.3,0.7,1.9,1c2.6,0.9,5.2,1,7.9,0.7
				c1.3-0.2,2.2-0.8,2.5-2.2c0.2-0.9,0.2-1.8-0.7-2.5c-0.4-0.3-0.8-0.8-1.2-1.2c0,0,0-0.1,0-0.1c0.4,0,0.7,0,1.1-0.1
				c0.3,0,0.6-0.1,0.8-0.2c0.7-0.3,0.7-0.4,0.7-1.1c0-0.1,0-0.3,0-0.4c-0.1-2.1,0-4.3,0.6-6.3c0.9-2.8,0.5-5.5-0.8-8.1
				c-0.4-0.8-0.8-1.5-1.1-2.3c-0.2-0.5-0.3-1.2-0.9-1.5c0,0-0.1-0.1-0.1-0.1c-1.3-1.7-3-2.9-5.1-3.4c-2.6-0.6-5.2-0.2-7.7,0.6
				c-0.1,0-0.2,0.1-0.2,0.2c-0.4,0.3-0.7,0.6-1.1,0.9c-2.1,1.5-4,3.2-5.9,5c-0.6,0.6-0.7,1.3-0.7,2c0.3,2.5,0.8,5,1.6,7.5
				c0.8,2.4,2.5,4,5.1,4.5c0.3,0.1,0.3,0.3,0.3,0.4c0,0.9,0,1.7,0,2.6c0,0.9,0.2,1.7,0.8,2.3C47.9,30.5,48.3,31,48.7,31.4z
				 M47.2,40.3C47.2,40.3,47.1,40.3,47.2,40.3c-1.4,0.4-2.6,0.8-3.9,1.2c-0.1,0-0.2,0-0.2,0c-1-0.2-2,0.1-2.9,0.5
				c-1,0.5-1.2,1.2-0.7,2.2c0.2,0.5,0.6,0.9,0.9,1.3c0.2,0.2,0.2,0.4,0.1,0.6c-0.5,1.5,0.4,2.7,2,2.7c0.9,0,1.6-0.4,2.3-0.9
				c2.6-1.9,5.2-3.6,8-5.1c0.2-0.1,0.4-0.1,0.7,0c2.1,1,4.1,1.9,6.2,2.8c0.8,0.3,1.3,0.7,1.3,1.6c0,0.2,0.1,0.4,0.2,0.5
				c1.2,0.9,2.6,1.4,4.2,1.3c1-0.1,1.7-0.6,2-1.5c0.2-0.6,0.3-1.2,0.4-1.8c0.5-0.2,1-0.5,1.1-1.2c0.1-1.2,0-2.5-0.5-3.6
				c-0.5-1-1.2-1.6-2.4-1.8c-1.1-0.2-2.1,0-3.1,0.3c-0.6,0.2-1.1-0.1-1.6-0.2c0.9-0.3,1.8-0.6,2.7-0.9c0.6-0.2,1.2-0.3,1.9,0
				c0.4,0.2,0.9,0.3,1.4,0.4c0.2,0,0.4,0,0.5-0.1c0.4-0.3,0.8-0.6,1.1-1c0.5-0.6,0.5-1.2,0.2-1.9c-0.2-0.4-0.6-0.8-0.9-1.2
				c-0.1-0.1-0.2-0.3-0.1-0.4c0.2-1.1-0.4-2.1-1.5-2.6c-0.9-0.4-1.9,0-2.5,0.9c-0.1,0.1-0.2,0.3-0.4,0.4c-2.9,1.7-5.8,3.3-8.9,4.6
				c-0.3,0.1-0.5,0.1-0.8,0c-1.7-0.6-3.4-1.1-5.1-1.7c-0.4-0.1-0.9-0.3-1.3-0.5c0.5-1.6-0.5-2.8-2.2-2.5c-0.1,0-0.3,0-0.4,0
				c-1.2,0.2-1.9,0.9-2.1,2.1c0,0.3-0.1,0.5,0,0.8c0.1,0.3-0.1,0.5-0.4,0.7c-0.7,0.4-1.4,0.9-1.1,2c0.1,0.4,0.3,0.7,0.6,0.9
				c0.6,0.3,1.2,0.5,1.8,0.7C44.9,40.3,46.1,40.3,47.2,40.3z"/>
			<path d="M48.7,31.4c-0.4-0.5-0.8-0.9-1.2-1.4c-0.6-0.7-0.8-1.5-0.8-2.3c0-0.9,0-1.7,0-2.6c0-0.2,0-0.4-0.3-0.4
				c-2.6-0.5-4.2-2-5.1-4.5c-0.8-2.4-1.4-4.9-1.6-7.5c-0.1-0.7,0-1.4,0.7-2c1.9-1.8,3.8-3.5,5.9-5c0.4-0.3,0.7-0.6,1.1-0.9
				c0.1-0.1,0.2-0.1,0.2-0.2c2.5-0.9,5.1-1.3,7.7-0.6c2.1,0.5,3.7,1.8,5.1,3.4c0,0,0,0.1,0.1,0.1c0.6,0.3,0.7,1,0.9,1.5
				c0.3,0.8,0.7,1.6,1.1,2.3c1.4,2.6,1.7,5.3,0.8,8.1c-0.6,2.1-0.7,4.2-0.6,6.3c0,0.1,0,0.3,0,0.4c0,0.7-0.1,0.9-0.7,1.1
				c-0.3,0.1-0.5,0.1-0.8,0.2c-0.4,0-0.7,0-1.1,0.1c0,0,0,0.1,0,0.1c0.4,0.4,0.8,0.8,1.2,1.2c0.9,0.7,0.9,1.6,0.7,2.5
				c-0.3,1.3-1.2,2-2.5,2.2c-2.7,0.4-5.4,0.3-7.9-0.7c-0.7-0.2-1.3-0.6-1.9-1c-0.4-0.2-0.7-0.4-1.1-0.6
				C48.5,31.5,48.6,31.5,48.7,31.4z M52.9,4.7c-1.7,0-3.3,0.3-4.9,0.7c-0.2,0.1-0.4,0.2-0.6,0.4c-0.9,0.8-1.7,1.7-2.6,2.5
				C44,9,43.1,9.6,42.2,10.4c-0.5,0.4-0.9,0.9-1.5,1.4c-0.3,0.2-0.3,0.4-0.3,0.7c0,1.4,0.4,2.7,0.8,4.1c0.2,0.4,0.4,0.8,0.6,1.3
				c0.3,0.6,0.5,1.2,0.7,1.8c0.3,0.8,0.6,1.6,1,2.3c0.2,0.3,0.5,0.6,0.8,0.8c0.6,0.4,1.2,0.7,1.8,0.8c0.5,0.1,1,0.2,1.5,0.2
				c0.5,0,1.1-0.1,1.6-0.2c0.2,0,0.5-0.1,0.7-0.2c0.2-0.1,0.3-0.2,0.5-0.2c1-0.1,1.9-0.5,2.8-0.9c0.4-0.2,0.6-0.1,0.9,0.1
				c0.9,0.7,1.4,1.6,1.8,2.7c0.1,0.3,0.3,0.5,0.6,0.6c1.3,0.2,2.5,0,3.7-0.5c1.2-0.5,1.7-1.4,1.7-2.7c0-0.7,0.1-1.3,0.4-2
				c0.1-0.2,0.1-0.4,0.2-0.6c0.6-2.1,0.5-4.2-0.3-6.2c-0.2-0.6-0.4-1.1-0.5-1.7c0-0.2-0.2-0.5-0.3-0.7C61,10.6,60.4,9.7,60,8.8
				c-0.2-0.4-0.4-0.7-0.7-0.9c-0.2-0.2-0.4-0.4-0.6-0.6c-0.8-0.6-1.5-1.3-2.3-1.9c-0.3-0.2-0.6-0.4-0.9-0.5
				C54.6,4.8,53.7,4.8,52.9,4.7z M50.6,23.9c-0.8,0.1-1.6,0.2-2.4,0.3c-0.3,0-0.4,0.2-0.4,0.4c0,1.4-0.1,2.8-0.1,4.3
				c0,0.4,0.1,0.6,0.4,0.9c0.4,0.4,1,0.6,1.5,0.8c1.4,0.5,2.7,1,4.1,1.4c0.9,0.3,1.8,0.3,2.6,0.5c1.3,0.3,2.5,0.3,3.7-0.1
				c0.7-0.2,0.9-0.8,1-1.5c0.1-0.6-0.2-1.1-0.7-1.4c-0.4,0.2-0.5,1-1,0.7c-0.4,0.2-0.7,0.5-1.1,0.5c-0.4,0-0.7-0.1-1.1-0.2
				c0,0.1-0.1,0.2-0.3,0.3c-0.1,0.1-0.3,0.2-0.5,0.1c-0.3-0.1-0.5-0.2-0.8-0.3c-0.1-0.1-0.3-0.1-0.5-0.1c-0.4,0-0.9,0.1-1.2-0.2
				c-0.3-0.3-0.6-0.3-0.9-0.2c-0.4,0-0.9-0.3-0.9-0.7c0-0.6-0.1-1.1-0.2-1.7c0-0.2,0-0.5-0.1-0.7c-0.6-0.2-1-0.7-1.4-1.1
				c-0.1-0.1-0.1-0.3-0.1-0.5C50.4,24.9,50.5,24.4,50.6,23.9z M56.6,26.5c0.1,0.3,0.2,0.4,0.2,0.6c0,0.2,0.1,0.4,0.1,0.6
				c0,0.3,0.2,0.5,0.5,0.5c0.6,0,0.9-0.1,1-0.5c0-0.3,0-0.6-0.1-0.9c0-0.1-0.2-0.2-0.4-0.2C57.5,26.5,57.1,26.5,56.6,26.5z
				 M51.2,25.8c0.1-0.1,0.1-0.1,0.2-0.1c0.6-0.4,1.2-0.7,2-0.8c0.4,0,0.6-0.2,0.6-0.6c-1,0.1-1.9,0.4-2.7,0.8
				C50.8,25.3,50.8,25.4,51.2,25.8z M54.7,29.9c0.3,0,0.7-0.4,0.7-0.7c0-0.3-0.5-0.6-0.8-0.6c-0.2,0-0.4,0-0.4,0.3
				C54.2,29.6,54.4,29.9,54.7,29.9z M56.4,30.3c0.2-0.2,0.3-0.3,0.4-0.5c0.1-0.2,0.2-0.6,0-0.7c-0.1-0.2-0.4-0.2-0.7-0.2
				c-0.1,0-0.2,0.2-0.2,0.3c-0.1,0.2-0.1,0.5-0.1,0.8C56,30,56.2,30.2,56.4,30.3z M57.6,30c0.5,0.1,0.9,0,1.1-0.3
				c0.1-0.2,0-0.5-0.1-0.6c-0.2-0.1-0.5-0.1-0.7-0.1C57.4,29.3,57.6,29.7,57.6,30z M53.1,29.6c0.3,0,0.6-0.2,0.6-0.5
				c0-0.3-0.3-0.6-0.6-0.6c-0.3,0-0.6,0.2-0.6,0.6C52.6,29.4,52.8,29.6,53.1,29.6z M51.5,26.1c0.4,0.3,0.8,0.3,1.1,0.1
				c0.3-0.1,0.5-0.3,0.8-0.4c0.4-0.1,0.4-0.3,0.3-0.6C53,25.5,52.3,25.8,51.5,26.1z M52.5,27.4c0.6,0,1-0.5,1.5-0.7
				c-0.1-0.2-0.1-0.3-0.2-0.4C52.6,26.8,52.3,26.9,52.5,27.4z M60.2,25.9c-0.5,0.2-1,0.3-1.5,0.4c-0.1,0.5,0.3,0.5,0.6,0.5
				C59.8,26.8,60.2,26.5,60.2,25.9z M60.7,25.8c0.2,0.3,0.3,0.5,0.5,0.7c0.1,0.1,0.4-0.1,0.5-0.3c0.2-0.2,0.1-0.5-0.1-0.7
				C61.3,25.6,61.1,25.7,60.7,25.8z M59.4,29.6c0.1-0.1,0.1-0.2,0.2-0.2c0.1-0.2,0.2-0.3,0.1-0.5c-0.1-0.1-0.3-0.2-0.5-0.3
				c-0.1,0.1-0.2,0.2-0.2,0.3C59.1,29.1,59.3,29.3,59.4,29.6z"/>
			<path class="st2" d="M47.2,40.3c-1.1,0-2.3,0-3.3-0.4c-0.6-0.2-1.2-0.5-1.8-0.7c-0.4-0.2-0.5-0.5-0.6-0.9c-0.3-1.1,0.4-1.5,1.1-2
				c0.3-0.2,0.4-0.3,0.4-0.7c0-0.3,0-0.5,0-0.8c0.1-1.2,0.9-1.9,2.1-2.1c0.1,0,0.3,0,0.4,0c1.6-0.3,2.7,1,2.2,2.5
				c0.4,0.2,0.8,0.4,1.3,0.5c1.7,0.6,3.4,1.1,5.1,1.7c0.3,0.1,0.5,0.1,0.8,0c3.1-1.4,6-2.9,8.9-4.6c0.1-0.1,0.3-0.2,0.4-0.4
				c0.6-0.9,1.6-1.3,2.5-0.9c1.1,0.5,1.7,1.6,1.5,2.6c0,0.1,0,0.3,0.1,0.4c0.3,0.4,0.6,0.8,0.9,1.2c0.3,0.6,0.3,1.3-0.2,1.9
				c-0.3,0.4-0.7,0.7-1.1,1c-0.1,0.1-0.3,0.1-0.5,0.1c-0.5-0.1-0.9-0.2-1.4-0.4c-0.6-0.3-1.2-0.2-1.9,0c-0.9,0.3-1.8,0.6-2.7,0.9
				c0.5,0.1,1,0.4,1.6,0.2c1-0.3,2-0.5,3.1-0.3c1.1,0.2,1.9,0.8,2.4,1.8c0.5,1.1,0.6,2.4,0.5,3.6c-0.1,0.7-0.6,1-1.1,1.2
				c-0.1,0.6-0.2,1.3-0.4,1.8c-0.3,0.9-1,1.4-2,1.5c-1.6,0.1-3-0.4-4.2-1.3c-0.1-0.1-0.2-0.3-0.2-0.5c-0.1-0.9-0.5-1.3-1.3-1.6
				c-2.1-0.9-4.2-1.9-6.2-2.8c-0.2-0.1-0.4-0.1-0.7,0c-2.8,1.5-5.4,3.2-8,5.1c-0.7,0.5-1.4,0.9-2.3,0.9c-1.6,0-2.5-1.2-2-2.7
				c0.1-0.3,0-0.4-0.1-0.6c-0.3-0.4-0.7-0.8-0.9-1.3c-0.5-0.9-0.2-1.7,0.7-2.2c0.9-0.4,1.8-0.7,2.9-0.5c0.1,0,0.2,0,0.2,0
				C44.6,41.1,45.9,40.7,47.2,40.3C47.1,40.3,47.2,40.3,47.2,40.3z M42.9,45.5c0,0,0,0.1,0,0.1c-0.3,0.1-0.5,0.3-0.8,0.3
				c-0.4,0-0.7,0.1-0.8,0.5c0,0.2-0.1,0.4-0.2,0.5c0,0.1-0.1,0.2,0,0.3c0.2,0.2,0.5,0.5,0.8,0.7c0.6,0.3,1.1,0.1,1.7,0
				c0.4-0.1,0.8-0.3,0.7-0.9c0-0.1,0-0.1,0.1-0.2c0.1-0.2,0.3-0.5,0.4-0.7c0.5-0.8,1.1-1.4,2-1.8c3.2-1.3,6.4-2.7,9.6-4.1
				c0.2-0.1,0.5-0.1,0.8-0.2c0.6-0.2,1.2-0.4,1.9-0.6c0.2-0.1,0.3-0.2,0.5-0.2c1.3-0.5,2.5-1,3.8-1.5c0.2-0.1,0.5-0.1,0.7-0.2
				c0.1,0,0.3-0.1,0.4-0.2c0.4-0.3,0.5-0.3,1,0c0.2,0.2,0.5,0.3,0.8,0.4c0.3,0.1,0.6,0.1,0.8,0.2c0.3,0,0.6,0.1,0.9,0
				c0.5-0.1,1.1-0.9,1-1.4c-0.1-0.4-0.3-0.8-0.5-1.2c0-0.1-0.2-0.1-0.3-0.2c-0.1,0-0.3,0-0.5-0.1c-0.2,0.1-0.5,0.3-0.8,0.5
				c-0.2-0.5-0.1-0.7,0.2-1.1c0.2-0.3,0.4-0.6,0.6-1c0.2-0.3,0.2-0.7,0-1c-0.3-0.3-0.7-0.6-1.1-0.6c-0.8,0.1-1.4,0.5-1.7,1.1
				c-0.6,1.3-1.8,2-3,2.5c-0.3,0.1-0.7,0.2-1,0.3c-1.6,0.6-3.1,1.3-4.7,1.9c-0.8,0.3-1.7,0.6-2.5,0.9c-0.6,0.2-1.2,0.5-1.7,0.8
				c0,0,0,0.1,0,0.1c0.2-0.1,0.4-0.1,0.6-0.2c-0.8,0.8-1.7,1.2-2.7,1.4c-0.2,0-0.5,0.1-0.7,0.1c-1.5,0.6-2.9,1.2-4.4,1.8
				c-0.1,0-0.2,0.1-0.3,0.1c0,0,0-0.1,0-0.1c0.3-0.2,0.7-0.4,1-0.6c0.3-0.2,0.6-0.3,1-0.3c0.2,0,0.5-0.1,0.7-0.2
				c0.2-0.1,0.3-0.2,0.4-0.3c0.5-0.2,1.1-0.4,1.6-0.6c-0.7,0.1-1.4,0.2-2.1,0.4c-1,0.3-2,0.7-3.1,1c-0.1,0-0.3,0.1-0.4,0.1
				c-0.8-0.2-1.6-0.1-2.3,0.4c-0.2,0.1-0.5,0.3-0.8,0.4c0,0.4,0.1,0.8,0.1,1.2c0,0.1,0.2,0.2,0.3,0.3c0.2,0.1,0.3,0.2,0.5,0.2
				c0.5,0.2,1,0.3,1.5,0.5C42.5,45.3,42.7,45.4,42.9,45.5z M53.9,42.3c0.2,0.1,0.3,0.1,0.4,0.2c2.3,0.9,4.5,1.8,6.8,2.7
				c0.2,0.1,0.4,0.2,0.4,0.5c0.1,0.4,0.2,0.8,0.3,1.2c0,0.1,0.1,0.3,0.2,0.3c0.6,0.3,1.2,0.8,1.8,1c0.9,0.4,1.7,0,2.4-0.4
				c0.5-0.3,0.7-0.8,0.4-1.4c-0.2-0.4-0.4-0.7-0.6-1.1c-0.1-0.1-0.2-0.3-0.1-0.4c0.1-0.1,0.3-0.2,0.4-0.2c0.4,0,0.8,0,1.2,0.1
				c0.6,0,0.7-0.1,0.8-0.6c0-0.1,0.1-0.2,0-0.3c0-1-0.2-2-0.8-2.9c-0.5-0.8-1.2-1.2-2.1-1.1c-1.1,0.1-2,0.6-2.9,1.1
				c-0.1,0-0.1,0.2-0.1,0.4c0.1,0.5,0.3,1,0.4,1.5c-0.7,0.3-0.7,0.3-1-0.2c-0.4-0.6-0.6-1.3-0.5-2c0-0.1,0-0.2,0-0.3
				c-0.4-0.1-0.7-0.1-1.1-0.2c-0.7-0.2-1.3-0.1-1.9,0.2c-0.4,0.2-0.8,0.3-1.2,0.5C58,41,58.6,41,59,41.4c-0.1,0-0.2,0-0.3,0
				c-0.5-0.1-1-0.3-1.5-0.4c-0.1,0-0.3-0.1-0.4,0C55.8,41.4,54.9,41.8,53.9,42.3z M53,38.2c-2-0.6-3.9-1.2-5.8-1.8
				c-0.4-0.1-0.6-0.6-0.6-1c0-0.2,0.1-0.4,0.1-0.5c0.2-0.6,0-1-0.4-1.3c-0.2-0.2-0.5-0.3-0.8-0.5c-0.3-0.1-1.2,0.2-1.3,0.5
				c-0.5,0.8-0.4,1.7,0.2,2.4c0.1,0.1,0.2,0.2,0.3,0.3c-1.3,0.1-2,0.6-2.3,1.7c0,0,0.1,0.1,0.1,0.1c1.8,0.6,3.5,1.2,5.3,1.8
				c0.1,0,0.3,0,0.4,0c0.6-0.2,1.2-0.4,1.9-0.7C51,39,52,38.6,53,38.2z"/>
			<path class="st1" d="M53.1,4.7c0.8,0.1,1.7,0.1,2.5,0.3C56,5,56.3,5.2,56.6,5.4c0.8,0.6,1.6,1.3,2.3,1.9c0.2,0.2,0.4,0.4,0.6,0.6
				c0.3,0.2,0.5,0.5,0.7,0.9c0.5,0.9,1,1.8,1.5,2.7c0.1,0.2,0.3,0.5,0.3,0.7c0.1,0.6,0.2,1.1,0.5,1.7c0.9,2,1,4.1,0.3,6.2
				c-0.1,0.2-0.1,0.4-0.2,0.6c-0.3,0.6-0.4,1.3-0.4,2c0,1.3-0.5,2.1-1.7,2.7c-1.2,0.5-2.4,0.7-3.7,0.5c-0.4-0.1-0.5-0.3-0.6-0.6
				c-0.3-1.1-0.8-2-1.8-2.7c-0.3-0.2-0.5-0.3-0.9-0.1c-0.9,0.4-1.8,0.8-2.8,0.9c-0.2,0-0.3,0.1-0.5,0.2c-0.2,0.1-0.5,0.2-0.7,0.2
				c-0.5,0.1-1.1,0.2-1.6,0.2c-0.5,0-1-0.1-1.5-0.2c-0.7-0.1-1.3-0.4-1.8-0.8c-0.3-0.2-0.6-0.5-0.8-0.8c-0.4-0.8-0.7-1.6-1-2.3
				c-0.2-0.6-0.4-1.2-0.7-1.8c-0.2-0.4-0.5-0.8-0.6-1.3c-0.5-1.3-0.9-2.6-0.8-4.1c0-0.3,0-0.5,0.3-0.7c0.5-0.4,1-0.9,1.5-1.4
				c0.9-0.7,1.8-1.4,2.7-2.1c0.9-0.8,1.7-1.6,2.6-2.5c0.2-0.2,0.4-0.3,0.6-0.4C49.9,5,51.5,4.7,53.1,4.7z M50.4,14.4
				c-0.3-0.1-0.5-0.1-0.8-0.2c-0.1,0-0.3,0-0.3,0.1c-0.6,0.6-1.1,1.2-0.9,2.2c0.1,0.6,0.2,1.1,0.3,1.7c0,0.2,0.2,0.4,0.4,0.4
				c1.4,0.8,2.9,0.9,4.5,0.5c1.3-0.3,2.1-1.2,2.4-2.5c0.1-0.3,0-0.4-0.2-0.6c-0.8-0.4-1.5-1-2.2-1.4c-0.6-0.3-1.1-0.6-1.7-0.8
				c-0.5-0.2-1-0.2-1.6,0c0.2,0.1,0.4,0.1,0.6,0.1C50.6,14.1,50.5,14.2,50.4,14.4z M59.2,12.1c-0.5-0.1-1,0.2-1.2,0.6
				c-0.3,0.6-0.5,1.2-0.7,1.8c-0.2,0.6,0,1,0.5,1.3c0.4,0.2,0.9,0.5,1.3,0.5c0.9,0,1.8-0.2,2.6-0.4c0.3,0,0.4-0.2,0.4-0.5
				c0.1-0.7,0-1.4-0.6-2c-0.4-0.4-0.9-0.8-1.4-1.1c0.1,0.2,0.2,0.3,0.3,0.5c-0.1,0.1-0.2,0.2-0.2,0.2c-0.5-0.2-1-0.5-1.5-0.7
				C58.9,12.3,59,12.2,59.2,12.1z M60.9,11c0,0,0.1-0.1,0.1-0.1c0-0.2,0-0.4-0.1-0.5C60.2,10,59.7,9.5,59,9.2c-1.3-0.6-2.3,0-3.1,1
				c-0.1,0.1,0,0.2,0,0.3c0.1,0,0.3,0,0.3-0.1c0.2-0.2,0.3-0.3,0.5-0.5c0.3-0.3,0.6-0.5,1.1-0.3c1,0.2,1.9,0.6,2.7,1.2
				C60.6,10.9,60.8,11,60.9,11z M53.8,12c-0.1,0-0.1-0.1-0.1-0.1c-1.5-0.6-3.1-1-4.8-1c-0.1,0-0.2,0.1-0.3,0.1
				c0.1,0.1,0.2,0.2,0.3,0.2c0.6,0.1,1.1,0.2,1.7,0.3c0.7,0.2,1.3,0.5,2,0.7C52.9,12.5,53.4,12.4,53.8,12z M58.7,21.3
				c0-0.7-0.2-1.2-0.6-1.8c-0.1-0.2-0.3-0.2-0.4,0c-0.2,0.8-0.5,1.6-0.1,2.4c0,0.1,0.2,0.2,0.3,0.2C58.4,22.2,58.7,22,58.7,21.3z
				 M58.9,19.9c0,0-0.1,0-0.1,0c0.2,0.5,0.4,1,0.6,1.4c0.1,0.2,0.4,0.2,0.6,0.2c0.1,0,0.2-0.3,0.2-0.5c0-0.6-0.2-1.2-0.5-1.6
				c-0.1-0.1-0.3-0.2-0.4-0.3c-0.1,0.2-0.2,0.3-0.3,0.5C58.8,19.7,58.9,19.8,58.9,19.9z M47,18.4c-0.3-1.3-0.6-2.6-0.9-3.9
				C45.5,15.5,46,17.5,47,18.4z M48,11.5c-0.7,0.4-1.2,0.9-1.4,1.7C47.3,12.8,47.8,12.3,48,11.5z"/>
			<path class="st1" d="M50.6,23.9c-0.1,0.5-0.2,1-0.2,1.5c0,0.2,0,0.4,0.1,0.5c0.4,0.4,0.8,0.9,1.4,1.1c0,0.2,0,0.5,0.1,0.7
				c0.1,0.6,0.3,1.1,0.2,1.7c0,0.4,0.5,0.8,0.9,0.7c0.3,0,0.6,0,0.9,0.2c0.3,0.2,0.8,0.1,1.2,0.2c0.2,0,0.3,0,0.5,0.1
				c0.3,0.1,0.5,0.3,0.8,0.3c0.1,0,0.3-0.1,0.5-0.1c0.1-0.1,0.2-0.2,0.3-0.3c0.4,0.1,0.8,0.3,1.1,0.2c0.4,0,0.7-0.3,1.1-0.5
				c0.5,0.3,0.6-0.5,1-0.7c0.5,0.3,0.8,0.8,0.7,1.4c-0.1,0.6-0.3,1.2-1,1.5c-1.2,0.4-2.5,0.4-3.7,0.1c-0.9-0.2-1.8-0.3-2.6-0.5
				c-1.4-0.4-2.7-0.9-4.1-1.4c-0.5-0.2-1.1-0.4-1.5-0.8c-0.3-0.3-0.4-0.5-0.4-0.9c0.1-1.4,0.1-2.8,0.1-4.3c0-0.3,0.1-0.4,0.4-0.4
				C49,24.1,49.8,24,50.6,23.9z"/>
			<path class="st1" d="M56.6,26.5c0.5,0,0.9,0,1.2,0.1c0.1,0,0.3,0.1,0.4,0.2c0.1,0.3,0.1,0.6,0.1,0.9c0,0.4-0.4,0.6-1,0.5
				c-0.3,0-0.4-0.2-0.5-0.5c0-0.2-0.1-0.4-0.1-0.6C56.8,26.9,56.7,26.7,56.6,26.5z"/>
			<path class="st1" d="M51.2,25.8c-0.4-0.4-0.3-0.5,0-0.7c0.8-0.4,1.7-0.7,2.7-0.8c0,0.4-0.1,0.5-0.6,0.6c-0.7,0.1-1.4,0.4-2,0.8
				C51.3,25.7,51.3,25.7,51.2,25.8z"/>
			<path class="st1" d="M54.7,29.9c-0.3,0-0.5-0.3-0.5-1c0-0.3,0.2-0.3,0.4-0.3c0.4,0,0.8,0.3,0.8,0.6
				C55.4,29.5,55.1,29.9,54.7,29.9z"/>
			<path class="st1" d="M56.4,30.3c-0.2-0.2-0.4-0.3-0.6-0.4c0-0.3,0.1-0.5,0.1-0.8c0-0.1,0.2-0.3,0.2-0.3c0.2,0,0.6,0.1,0.7,0.2
				c0.1,0.2,0,0.5,0,0.7C56.8,30,56.6,30.1,56.4,30.3z"/>
			<path class="st1" d="M57.6,30c0-0.3-0.3-0.8,0.2-0.9c0.2-0.1,0.5-0.1,0.7,0.1c0.1,0.1,0.2,0.4,0.1,0.6
				C58.6,30.1,58.1,30.2,57.6,30z"/>
			<path class="st1" d="M53.1,29.6c-0.3,0-0.6-0.2-0.6-0.6c0-0.3,0.3-0.6,0.6-0.6c0.3,0,0.6,0.3,0.6,0.6
				C53.7,29.4,53.5,29.6,53.1,29.6z"/>
			<path class="st1" d="M51.5,26.1c0.8-0.3,1.5-0.6,2.2-0.8c0.1,0.3,0,0.5-0.3,0.6c-0.3,0.1-0.5,0.2-0.8,0.4
				C52.3,26.4,51.9,26.3,51.5,26.1z"/>
			<path class="st1" d="M52.5,27.4c-0.2-0.6,0.2-0.7,1.3-1.1c0.1,0.1,0.1,0.3,0.2,0.4C53.5,27,53.1,27.4,52.5,27.4z"/>
			<path class="st1" d="M60.2,25.9c0,0.6-0.4,0.9-0.9,0.9c-0.3,0-0.6,0-0.6-0.5C59.2,26.2,59.7,26.1,60.2,25.9z"/>
			<path class="st1" d="M60.7,25.8c0.4-0.1,0.6-0.2,0.9-0.3c0.1,0.2,0.3,0.4,0.1,0.7c-0.1,0.1-0.5,0.3-0.5,0.3
				C61,26.3,60.9,26.1,60.7,25.8z"/>
			<path class="st1" d="M59.4,29.6c-0.1-0.3-0.3-0.5-0.4-0.8c0-0.1,0.1-0.2,0.2-0.3c0.2,0.1,0.4,0.2,0.5,0.3
				c0.2,0.2,0.1,0.3-0.1,0.5C59.5,29.5,59.5,29.5,59.4,29.6z"/>
			<path class="st1" d="M42.9,45.5c-0.2-0.1-0.4-0.2-0.5-0.3c-0.5-0.2-1-0.3-1.5-0.5c-0.2-0.1-0.4-0.1-0.5-0.2
				c-0.1-0.1-0.2-0.2-0.3-0.3c-0.1-0.4-0.1-0.8-0.1-1.2c0.3-0.2,0.6-0.3,0.8-0.4c0.7-0.4,1.5-0.6,2.3-0.4c0.1,0,0.3,0,0.4-0.1
				c1-0.3,2-0.7,3.1-1c0.7-0.2,1.4-0.3,2.1-0.4c-0.5,0.2-1.1,0.4-1.6,0.6c-0.2,0.1-0.3,0.2-0.4,0.3c-0.2,0.1-0.5,0.2-0.7,0.2
				c-0.4,0-0.7,0.1-1,0.3c-0.3,0.2-0.6,0.4-1,0.6c0,0,0,0.1,0,0.1c0.1,0,0.2-0.1,0.3-0.1c1.5-0.6,2.9-1.2,4.4-1.8
				c0.2-0.1,0.5-0.1,0.7-0.1c1-0.2,2-0.6,2.7-1.4c-0.2,0.1-0.4,0.1-0.6,0.2c0,0,0-0.1,0-0.1c0.6-0.3,1.2-0.6,1.7-0.8
				c0.8-0.3,1.7-0.6,2.5-0.9c1.6-0.6,3.1-1.3,4.7-1.9c0.3-0.1,0.7-0.2,1-0.3c1.3-0.5,2.4-1.2,3-2.5c0.3-0.7,0.9-1.1,1.7-1.1
				c0.5,0,0.9,0.2,1.1,0.6c0.3,0.3,0.2,0.7,0,1c-0.2,0.3-0.4,0.7-0.6,1c-0.3,0.4-0.4,0.6-0.2,1.1c0.3-0.2,0.6-0.4,0.8-0.5
				c0.2,0,0.4,0,0.5,0.1c0.1,0,0.3,0.1,0.3,0.2c0.2,0.4,0.4,0.8,0.5,1.2c0.1,0.5-0.5,1.3-1,1.4c-0.3,0-0.6,0-0.9,0
				c-0.3,0-0.6-0.1-0.8-0.2c-0.3-0.1-0.5-0.2-0.8-0.4c-0.4-0.3-0.6-0.3-1,0c-0.1,0.1-0.3,0.1-0.4,0.2c-0.2,0.1-0.5,0.1-0.7,0.2
				c-1.3,0.5-2.5,1-3.8,1.5c-0.2,0.1-0.3,0.2-0.5,0.2c-0.6,0.2-1.2,0.4-1.9,0.6c-0.3,0.1-0.5,0.1-0.8,0.2c-3.2,1.4-6.4,2.7-9.6,4.1
				c-0.9,0.4-1.5,1-2,1.8c-0.1,0.2-0.3,0.5-0.4,0.7c0,0.1-0.1,0.1-0.1,0.2c0.1,0.5-0.3,0.7-0.7,0.9c-0.6,0.2-1.1,0.4-1.7,0
				c-0.3-0.2-0.5-0.5-0.8-0.7c0,0,0-0.2,0-0.3c0.1-0.2,0.1-0.4,0.2-0.5c0.1-0.4,0.3-0.6,0.8-0.5c0.2,0,0.5-0.2,0.8-0.3
				C42.9,45.6,42.9,45.6,42.9,45.5z M61.4,36.7c-1.4,0-3.8,0.9-4.2,1.6C58.7,38,60,37.5,61.4,36.7z"/>
			<path class="st1" d="M53.9,42.3c1-0.5,1.9-0.9,2.8-1.3c0.1,0,0.2,0,0.4,0c0.5,0.1,1,0.3,1.5,0.4c0.1,0,0.2,0,0.3,0
				c-0.4-0.4-1-0.4-1.6-0.7c0.4-0.2,0.8-0.3,1.2-0.5c0.6-0.3,1.2-0.4,1.9-0.2c0.3,0.1,0.7,0.2,1.1,0.2c0,0.1,0,0.2,0,0.3
				c-0.1,0.7,0,1.4,0.5,2c0.3,0.5,0.3,0.5,1,0.2c-0.1-0.5-0.3-1-0.4-1.5c0-0.1,0-0.3,0.1-0.4c0.9-0.6,1.8-1,2.9-1.1
				c0.9-0.1,1.6,0.3,2.1,1.1c0.5,0.9,0.7,1.9,0.8,2.9c0,0.1,0,0.2,0,0.3c-0.2,0.6-0.3,0.6-0.8,0.6c-0.4,0-0.8-0.1-1.2-0.1
				c-0.1,0-0.4,0.1-0.4,0.2c-0.1,0.1,0,0.3,0.1,0.4c0.2,0.4,0.5,0.7,0.6,1.1c0.2,0.5,0.1,1-0.4,1.4c-0.7,0.4-1.5,0.8-2.4,0.4
				c-0.7-0.3-1.2-0.7-1.8-1c-0.1,0-0.2-0.2-0.2-0.3c-0.1-0.4-0.2-0.8-0.3-1.2c0-0.3-0.2-0.4-0.4-0.5c-2.3-0.9-4.5-1.8-6.8-2.7
				C54.2,42.4,54.1,42.3,53.9,42.3z M60,40.4c0,0,0,0.1,0,0.1c0.4,0.2,0.8,0.3,1.3,0.5C61,40.5,60.6,40.3,60,40.4z"/>
			<path class="st1" d="M53,38.2c-1,0.4-2,0.8-3,1.1c-0.6,0.2-1.2,0.4-1.9,0.7c-0.1,0-0.3,0.1-0.4,0c-1.8-0.6-3.5-1.2-5.3-1.8
				c0,0-0.1,0-0.1-0.1c0.3-1.1,1-1.6,2.3-1.7c-0.1-0.1-0.2-0.2-0.3-0.3c-0.6-0.7-0.7-1.6-0.2-2.4c0.2-0.3,1-0.6,1.3-0.5
				c0.3,0.1,0.6,0.3,0.8,0.5c0.4,0.3,0.7,0.7,0.4,1.3c-0.1,0.2-0.1,0.3-0.1,0.5c-0.1,0.4,0.2,0.9,0.6,1C49.1,37,51,37.6,53,38.2z"/>
			<path d="M50.2,14.4c0.1-0.2,0.2-0.3,0.2-0.5c-0.2,0-0.3-0.1-0.6-0.1c0.6-0.2,1.1-0.2,1.6,0c0.6,0.2,1.2,0.5,1.7,0.8
				c0.8,0.4,1.5,1,2.2,1.4c0.3,0.2,0.3,0.3,0.2,0.6c-0.3,1.3-1.1,2.1-2.4,2.5c-1.5,0.4-3,0.3-4.5-0.5c-0.2-0.1-0.3-0.3-0.4-0.4
				c-0.1-0.6-0.2-1.1-0.3-1.7c-0.1-0.9,0.4-1.5,0.9-2.2c0.1-0.1,0.2-0.1,0.3-0.1C49.7,14.3,49.9,14.3,50.2,14.4z M53.9,16.5
				c0.4-0.1,0.7-0.1,1.2-0.2c-1-0.5-1.9-1-2.8-1.5c-0.1,0-0.2,0-0.3,0C52.7,15.3,53.4,15.7,53.9,16.5z M55.3,16.7
				c-1.4,0.2-1.5,0.1-1.5,0.5C54.6,17.6,55.4,17.3,55.3,16.7z M50.8,14.5c0.3,0.1,0.6,0.3,0.8-0.1C51.3,14.3,51,14,50.8,14.5z
				 M54,17.8c-0.5-0.2-0.7-0.1-0.7,0.5C53.5,18.1,53.7,17.9,54,17.8z"/>
			<path d="M58.9,12.1c-0.1,0.1-0.3,0.1-0.5,0.3c0.5,0.2,1,0.5,1.5,0.7c0,0,0.1-0.1,0.2-0.2c-0.1-0.2-0.2-0.3-0.3-0.5
				c0.6,0.3,1,0.6,1.4,1.1c0.6,0.6,0.6,1.2,0.6,2c0,0.3-0.1,0.5-0.4,0.5c-0.9,0.1-1.8,0.3-2.6,0.4c-0.4,0-0.9-0.2-1.3-0.5
				c-0.5-0.3-0.7-0.7-0.5-1.3c0.2-0.6,0.4-1.2,0.7-1.8C58,12.3,58.4,12,58.9,12.1z M61.2,14.3c0,0-0.1,0-0.1,0
				c-0.2,0.1-0.3,0.2-0.5,0.3c-0.1,0-0.1,0.2-0.1,0.2c0,0,0.1,0.1,0.2,0.1c0.2-0.1,0.4-0.2,0.5-0.3C61.3,14.6,61.2,14.4,61.2,14.3z
				 M60.8,13.8c-0.1-0.1-0.1-0.2-0.2-0.5c-0.1,0.2-0.1,0.3-0.2,0.5c0,0.1,0.1,0.1,0.1,0.2C60.6,13.9,60.7,13.8,60.8,13.8z"/>
			<path d="M60.6,11c-0.1-0.1-0.3-0.1-0.4-0.2c-0.8-0.6-1.7-1-2.7-1.2c-0.5-0.1-0.8,0-1.1,0.3c-0.2,0.2-0.3,0.4-0.5,0.5
				c-0.1,0.1-0.2,0-0.3,0.1c0-0.1,0-0.3,0-0.3c0.8-0.9,1.8-1.5,3.1-1c0.7,0.3,1.2,0.8,1.8,1.2c0.1,0.1,0.1,0.3,0.1,0.5
				C60.7,11,60.7,11,60.6,11z"/>
			<path d="M53.5,12c-0.4,0.4-0.8,0.4-1.3,0.3c-0.7-0.2-1.3-0.5-2-0.7c-0.5-0.2-1.1-0.2-1.7-0.3c-0.1,0-0.2-0.1-0.3-0.2
				c0.1-0.1,0.2-0.1,0.3-0.1c1.7,0,3.2,0.4,4.8,1C53.4,12,53.5,12,53.5,12z"/>
			<path d="M58.4,21.3c0,0.7-0.2,1-0.8,0.9c-0.1,0-0.2-0.1-0.3-0.2c-0.4-0.8-0.2-1.6,0.1-2.4c0.1-0.2,0.3-0.2,0.4,0
				C58.2,20,58.4,20.6,58.4,21.3z M57.8,20.7c0,0-0.1,0-0.1,0c0,0.2,0.1,0.5,0.1,0.7c0,0,0.1,0,0.1,0C58,21.2,58,21,57.8,20.7z"/>
			<path d="M58.6,19.9c0-0.1,0-0.2,0-0.3c0.1-0.2,0.2-0.3,0.3-0.5c0.1,0.1,0.3,0.2,0.4,0.3c0.4,0.5,0.6,1,0.5,1.6
				c0,0.2-0.1,0.5-0.2,0.5c-0.2,0-0.5-0.1-0.6-0.2c-0.3-0.4-0.4-0.9-0.6-1.4C58.5,19.9,58.6,19.9,58.6,19.9z"/>
			<path d="M46.8,18.4c-1-0.9-1.5-2.9-0.9-3.9C46.1,15.8,46.5,17.1,46.8,18.4z"/>
			<path d="M47.7,11.5c-0.2,0.8-0.7,1.3-1.4,1.7C46.5,12.4,47,11.9,47.7,11.5z"/>
			<path d="M61.4,36.7c-1.4,0.8-2.7,1.3-4.2,1.6C57.6,37.7,60,36.7,61.4,36.7z"/>
			<path d="M60,40.4c0.5-0.1,0.9,0.1,1.2,0.6c-0.4-0.2-0.8-0.3-1.3-0.5C60,40.5,60,40.5,60,40.4z"/>
			<path class="st1" d="M53.9,16.5c-0.4-0.9-1.2-1.3-1.9-1.8c0.1,0,0.2,0,0.3,0c0.9,0.5,1.8,1,2.8,1.5
				C54.6,16.4,54.2,16.5,53.9,16.5z"/>
			<path class="st1" d="M55.3,16.7c0,0.6-0.7,0.9-1.5,0.5C53.9,16.8,53.9,16.9,55.3,16.7z"/>
			<path class="st1" d="M50.8,14.5c0.2-0.5,0.5-0.2,0.8-0.1C51.3,14.8,51.1,14.6,50.8,14.5z"/>
			<path class="st1" d="M54,17.8c-0.3,0.2-0.5,0.3-0.7,0.5C53.3,17.7,53.5,17.6,54,17.8z"/>
			<path class="st1" d="M61.2,14.3c0,0.1,0.1,0.3,0,0.4c-0.1,0.1-0.3,0.2-0.5,0.3c0,0-0.1-0.1-0.2-0.1c0-0.1,0-0.2,0.1-0.2
				c0.1-0.1,0.3-0.2,0.5-0.3C61.1,14.3,61.2,14.3,61.2,14.3z"/>
			<path class="st1" d="M60.8,13.8c-0.1,0.1-0.2,0.1-0.3,0.2c-0.1-0.1-0.1-0.2-0.1-0.2c0-0.1,0.1-0.2,0.2-0.5
				C60.6,13.5,60.7,13.6,60.8,13.8z"/>
			<path class="st1" d="M57.8,20.7c0.2,0.2,0.2,0.5,0.1,0.7c0,0-0.1,0-0.1,0c0-0.2-0.1-0.5-0.1-0.7C57.7,20.8,57.8,20.7,57.8,20.7z"
				/>
		</g>
	</g>
</g>
</svg>
