<?xml version="1.0" encoding="utf-8"?>
<!-- Generator: Adobe Illustrator 25.4.1, SVG Export Plug-In . SVG Version: 6.00 Build 0)  -->
<svg version="1.1" id="Layer_1" xmlns="http://www.w3.org/2000/svg" xmlns:xlink="http://www.w3.org/1999/xlink" x="0px" y="0px"
	 viewBox="0 0 77.1 14.8" style="enable-background:new 0 0 77.1 14.8;" xml:space="preserve">
<style type="text/css">
	.st0{fill:#FFFFFF;}
	.st1{fill:#ED2024;}
</style>
<g>
	<path class="st0" d="M29,4.1L29,4.1V4V4.1L29,4.1L29,4.1z M25.5,7.2l0,0.2l0.1,0.2l0,0.1c0.1,0.1,0.1,0.3,0.2,0.4
		c0,0.2,0.1,0.3,0.2,0.5c0.1,0.2,0.2,0.4,0.3,0.6c0.1,0.1,0.3,0.3,0.5,0.3c0.1,0,0.2,0.1,0.3,0.1l0.2,0h0.1l0.2,0
		c0.1,0,0.2,0,0.3-0.1L28,9.4l0.2-0.1c0.1,0,0.2,0,0.2-0.1L28.5,9l0.1-0.2c0.1-0.1,0.2-0.3,0.2-0.4l0-0.1c0-0.2,0.1-0.4,0.2-0.6
		l0-0.1l0-0.1c0-0.2,0-0.3,0-0.4l0-0.1l0.1-0.2l0.1-0.2l0-0.1l0-0.2l0-0.2l0-0.2c-0.1-0.1-0.1-0.2-0.1-0.3c0-0.1,0-0.3-0.1-0.4
		L29,5.1C29,5,28.9,4.8,28.9,4.6L29,4.6l0-0.1l0,0c-0.1-0.1-0.2-0.2-0.2-0.3c0-0.1-0.1-0.2-0.1-0.3c-0.1-0.1-0.1-0.2-0.2-0.3l0-0.1
		l-0.1-0.1c-0.1-0.1-0.2-0.2-0.3-0.2L28,3.1c-0.1,0-0.3,0-0.4-0.1l-0.2,0c-0.1,0.1-0.4,0.2-0.5,0.3l-0.1,0.1
		c-0.1,0.1-0.2,0.3-0.3,0.4L26.5,4l0,0.2c-0.1,0.1-0.1,0.2-0.2,0.3c0,0.1-0.1,0.2-0.1,0.4l0,0.1c-0.1,0.2-0.1,0.4-0.2,0.6
		c-0.1,0.3-0.2,0.5-0.2,0.8c0,0.1,0,0.2,0,0.3l0,0.1l-0.1,0c0,0.1,0,0.2,0,0.3L25.5,7.2L25.5,7.2z M27.4,2.1l0.1,0
		c0.2,0,0.4,0.1,0.5,0.1l0.1,0.1l0.1,0.1l0.2,0.1l0.2,0.1l0.2,0.2L29,2.8L29,3v0l0,0l0.1,0l0.1,0.1c0.2,0.3,0.3,0.6,0.5,0.9
		c0.1,0.1,0.1,0.3,0.1,0.5c0,0.1,0,0.2,0.1,0.3c0,0.1,0.1,0.3,0,0.4v0.2l0,0.2l0,0.1c0,0.1,0,0.2,0,0.3v0.3l0,0.2l0,0.2l0,0.2
		c-0.1,0.1,0,0.3,0,0.4v0.1c0,0.1,0,0.3,0,0.4c0,0.1-0.1,0.3-0.1,0.4l0,0.1l-0.1,0.2c-0.1,0.2-0.2,0.4-0.3,0.6
		c0,0.1-0.1,0.2-0.2,0.3c-0.1,0.1-0.2,0.2-0.4,0.3l-0.2,0.1C28.2,10,28.2,10,28,10.1c-0.2,0-0.3,0.1-0.5,0.2c-0.1,0-0.1,0-0.3,0
		l-0.2,0l-0.1,0c-0.1-0.1-0.1-0.1-0.2-0.1C26.5,10,26.4,10,26.3,10l-0.1,0c-0.1-0.1-0.2-0.1-0.3-0.2c-0.1-0.1-0.3-0.2-0.3-0.4
		c-0.1-0.2-0.1-0.3-0.2-0.5l0-0.1l-0.1-0.1l0,0l0-0.2l-0.1-0.1l0-0.2c0-0.1-0.1-0.3-0.1-0.4l-0.1-0.2V7.2l0-0.3c0-0.1,0-0.2,0-0.3
		c0-0.1,0-0.2,0-0.3V6.1l0-0.2l0-0.1c0-0.2,0-0.4,0.1-0.6l0-0.2l0.1-0.2c0.1-0.1,0.1-0.2,0.1-0.3c0-0.2,0.1-0.5,0.1-0.7l0-0.1
		l0.1-0.2C25.7,3.4,25.8,3.2,26,3c0.1-0.1,0.2-0.3,0.3-0.3l0.1-0.1l0.1-0.1l0.1-0.1c0.1-0.1,0.2-0.1,0.3-0.2
		C27.2,2.1,27.3,2.1,27.4,2.1z M23.2,10.1h-0.6c-0.1,0-0.2,0-0.4,0l-0.2,0h-1c-0.1,0-0.2,0-0.3,0l-0.1,0l-0.2,0
		c-0.1,0.1-0.3,0-0.4,0.1l-0.2,0c-0.1,0-0.2,0-0.3,0c-0.1,0-0.2,0-0.3,0c-0.1,0-0.2,0-0.3-0.1l0-0.1L19,10c0.1-0.1,0.1-0.2,0.1-0.3
		c0-0.2,0.1-0.4,0.1-0.6l0-0.3c0-0.1,0-0.3,0-0.4l0-0.1c0-0.1,0-0.2,0-0.3l0-0.2l0-0.2V7.4l0-0.1l0-0.2L19.2,7l0-0.1l0,0l0-0.1
		l0-0.1l0.1-0.2l0-0.1l-0.1-0.2c-0.1-0.1-0.1-0.2,0-0.3V5.7l0.1-0.2l0-0.1l0-0.1l0-0.1l0-0.2V4.8l0-0.1c0-0.2,0-0.3,0-0.5V4.1
		c0-0.1,0-0.3,0-0.4V3.6l0-0.2l0-0.1l0-0.2c0-0.1,0-0.3,0-0.4c0-0.1,0-0.2,0-0.3V2.2L19,1.8l0.1-0.1l0.2,0c0.1,0,0.2,0,0.3,0l0.3,0
		L20,1.8l0,0c0,0.2,0.1,0.2,0,0.4l0,0.2c0,0.2,0,0.4,0,0.6v0.1l0,0.2c0,0.1,0,0.2,0,0.3l0,0.2l0,0.2v0.2v0.2l0,0.3
		c0,0.1,0,0.2,0,0.3c0,0.1,0,0.2,0,0.3l0,0.1l0,0.2l0,0.2l0,0.2l0,0.1c0,0.1,0,0.2,0,0.3v0.3l0,0.1l0,0.1l0,0.2l0,0.2l0,0.3v0.1
		c0,0.1,0.1,0.3,0,0.4v0.7c0,0.1,0,0.2,0,0.3v0.1l0,0.2c0,0.1,0.1,0.2,0.2,0.2h0.6l0.2,0c0.1,0,0.2,0,0.3,0c0.1,0,0.2,0,0.3,0
		s0.2,0,0.3,0l0.2,0l0.1,0c0.1,0.1,0.2,0,0.3,0l0.2,0l0.3-0.1L23,9.4l0.2-0.1c0.1,0,0.1-0.1,0.1-0.2l0-0.1l0.2-0.1l0.1,0l0,0.1
		l0,0.2l0,0.1l0,0c0.1,0.1,0.2,0.3,0.2,0.4c0,0.1,0,0.2-0.1,0.2l0,0l-0.2,0.1C23.4,10.1,23.3,10.1,23.2,10.1z M17.2,10.1h-0.6
		c-0.1,0-0.2,0-0.4,0l-0.2,0h-1c-0.1,0-0.2,0-0.3,0l-0.1,0l-0.2,0c-0.1,0.1-0.3,0-0.4,0.1l-0.2,0c-0.1,0-0.2,0-0.3,0
		c-0.1,0-0.2,0-0.3,0c-0.1,0-0.2,0-0.3-0.1l0-0.1l0.1-0.2c0.1-0.1,0.1-0.2,0.1-0.3c0-0.2,0.1-0.4,0.1-0.6l0-0.3c0-0.1,0-0.3,0-0.4
		l0-0.1c0-0.1,0-0.2,0-0.3l0-0.2l0-0.2V7.4l0-0.1l0-0.2L13.2,7l0-0.1l0,0l0-0.1l0-0.1l0.1-0.2l0-0.1l-0.1-0.2
		c-0.1-0.1-0.1-0.2,0-0.3V5.7l0.1-0.2l0-0.1l0-0.1l0-0.1l0-0.2V4.8l0-0.1c0-0.2,0-0.3,0-0.5V4.1c0-0.1,0-0.3,0-0.4V3.6l0-0.2l0-0.1
		l0-0.2c0-0.1,0-0.3,0-0.4c0-0.1,0-0.2,0-0.3V2.2l-0.1-0.4l0.1-0.1l0.2,0c0.1,0,0.2,0,0.3,0l0.3,0L14,1.8l0,0c0,0.2,0.1,0.2,0,0.4
		l0,0.2c0,0.2,0,0.4,0,0.6v0.1l0,0.2c0,0.1,0,0.2,0,0.3l0,0.2L14,4v0.2v0.2l0,0.3c0,0.1,0,0.2,0,0.3c0,0.1,0,0.2,0,0.3l0,0.1l0,0.2
		l0,0.2L14,6l0,0.1c0,0.1,0,0.2,0,0.3v0.3l0,0.1l0,0.1l0,0.2l0,0.2l0,0.3v0.1c0,0.1,0.1,0.3,0,0.4v0.7c0,0.1,0,0.2,0,0.3v0.1l0,0.2
		c0,0.1,0.1,0.2,0.2,0.2h0.6l0.2,0c0.1,0,0.2,0,0.3,0c0.1,0,0.2,0,0.3,0s0.2,0,0.3,0l0.2,0l0.1,0c0.1,0.1,0.2,0,0.3,0l0.2,0l0.3-0.1
		l0.2-0.1l0.2-0.1c0.1,0,0.1-0.1,0.1-0.2l0-0.1l0.2-0.1l0.1,0l0,0.1l0,0.2l0,0.1l0,0c0.1,0.1,0.2,0.3,0.2,0.4c0,0.1,0,0.2-0.1,0.2
		l0,0l-0.2,0.1C17.5,10.1,17.4,10.1,17.2,10.1z M7.9,8.7L7.9,8.7L7.9,8.7l0-0.3l0-0.2l0-0.2c0-0.1,0-0.2,0-0.3l0,0l0,0
		c0,0.1,0,0.2,0,0.3c0,0.1,0,0.2,0,0.3v0.1L7.9,8.7L7.9,8.7z M7.9,7.4L7.9,7.4L7.8,7.3V7.1c0-0.1,0-0.3,0-0.4l0,0l0.1,0l0,0
		c0,0.1,0,0.2,0,0.3C8,7.1,7.9,7.2,7.9,7.4L7.9,7.4z M7.8,6L7.8,6L7.8,6L7.8,6L7.8,6L7.8,6z M7.9,5.6L7.9,5.6L7.8,5.5h0L7.9,5.6
		L7.9,5.6L7.9,5.6z M7.9,5.3L7.9,5.3l0-0.3l0,0L7.9,5.3L7.9,5.3z M8.2,10.4l0.2,0h1c0.2,0,0.3,0,0.5,0c0.2,0,0.3,0,0.5,0
		c0.2,0,0.3-0.1,0.5,0l0.1,0l0.3,0h0.5l0.1,0l0.1-0.1L11.8,10c-0.1-0.1-0.1-0.2,0-0.3L12,9.5l0-0.1l-0.1,0l-0.2,0.1
		c-0.1,0-0.2,0.1-0.3,0.1c-0.2,0.1-0.4,0.1-0.5,0.1l-0.2,0l-0.2,0H10c-0.1,0-0.2,0-0.3,0l-0.2,0l-0.2,0H9.1L9,9.7L8.9,9.6L8.7,9.6
		C8.7,9.5,8.6,9.5,8.5,9.4l0-0.2l0-0.1V9c0-0.2,0-0.3,0-0.5V7.1c0-0.1,0-0.3,0.1-0.4c0-0.1,0.1-0.2,0.3-0.3c0.1,0,0.2,0,0.3,0
		l0.1-0.1l0.2,0l0.1-0.1l0,0c0.2,0,0.3,0,0.5,0l0.2,0.1l0.2,0.1h0.4c0.2,0,0.3,0,0.5,0l0.1-0.1l0-0.2c0-0.1,0-0.2,0-0.3l0.1-0.1
		l0-0.1l0,0c-0.1,0-0.3,0-0.4,0c-0.1,0-0.2,0.1-0.3,0.1c-0.2,0-0.3,0.1-0.4,0.1l-0.1,0c-0.2,0-0.3,0-0.5,0l-0.1,0l-0.2,0l-0.1,0
		l-0.1,0l-0.2,0L9,5.7c-0.1,0.1-0.3,0-0.3-0.1l0-0.1l0-0.3c0-0.2,0-0.5,0-0.7l0-0.1c0-0.1,0-0.2,0-0.3c0-0.2,0-0.3,0-0.5l0-0.2
		c-0.1-0.1,0-0.2,0-0.3L8.5,3C8.7,3,8.8,2.9,9,2.9c0.4,0,0.7,0,1.1,0l0.2,0l0.2,0c0.1,0,0.2,0,0.3,0h0.4l0.1-0.1V2.7
		c0-0.1,0-0.2,0.1-0.3l0.1-0.1l0,0l-0.2,0l-0.3,0h-0.4c-0.1,0-0.2,0-0.3,0c-0.1,0-0.3,0-0.4,0l-0.1,0l-0.1,0l-0.3,0
		c-0.2,0-0.3,0-0.5,0c-0.1,0-0.2,0-0.3,0c-0.1,0-0.2,0-0.3,0c-0.1,0-0.3,0-0.4,0c-0.2,0-0.3,0-0.5,0.1H7.2L7.1,2.4L7,2.4H6.8l0,0
		v0.1L7,2.6l0.1,0l0.1,0L7.6,3l0.1,0.2l0,0.2v1.2l0,0.3l0,0.2l0,0.2l0,0.1l0,0.3c0,0.1,0,0.2,0,0.3l0,0.2v0.3c0,0.1,0,0.3,0,0.4
		c0.1,0.1,0,0.3,0,0.4c0,0.2,0,0.3,0,0.5v0.1l0,0.2v0.8l0,0.2l0,0.2v0l0.1,0c0.1,0,0.1,0,0.1,0.1v0c0,0.1,0,0.2-0.1,0.2l0,0.1
		c0,0.1-0.1,0.2-0.1,0.4C7.6,9.9,7.5,10,7.4,10l-0.4,0.1l0,0.1l0.1,0.1c0.1,0,0.2,0,0.4,0l0.3,0C7.9,10.4,8.1,10.4,8.2,10.4z
		 M5.1,9.8L5.1,9.8L5.1,9.8L5.1,9.8L5.1,9.8z M1,9.8L1,9.8L1,9.8L1,9.8L1,9.8z M1.3,8.2L1.3,8.2l0-0.1l0,0V8.2L1.3,8.2L1.3,8.2z
		 M5.1,3.6L5.1,3.6L5.1,3.6l0-0.2l0,0.1L5.1,3.6L5.1,3.6z M0.7,10.4l0.1,0l0.3,0c0.3,0,0.5-0.1,0.8-0.1L2,10.1L2,10.1
		c-0.1,0-0.2-0.1-0.3-0.3C1.6,9.7,1.6,9.6,1.6,9.5l0-0.2l0-0.1l0-0.1C1.6,9,1.7,8.9,1.6,8.8l0-0.1l0-0.1l0-0.1l0,0l0-0.2L1.7,8
		l0-0.2V7.7l0-0.2c0-0.1,0-0.3,0.1-0.4l0.1-0.1l0.2,0h0.1c0.1-0.1,0.2-0.1,0.3,0h0.2C2.8,6.9,3,6.9,3.1,6.9l0.2,0l0.2,0h0.2
		c0.1,0,0.2-0.1,0.3-0.1h0.1l0.2,0c0.1,0,0.2,0,0.3-0.1l0.1,0l0.1,0.1l0.1,0.2v0.1c0,0.1,0,0.2,0,0.3c0,0.1,0,0.2,0,0.3
		c0,0.1,0,0.2,0,0.3l0,0.2l0,0.3l0,0.2l0,0l0,0.2l0,0.1l0,0.1c0,0.2-0.1,0.4-0.2,0.6l-0.1,0.2l0,0.1c0.2,0,0.4,0,0.6,0h0.3l0.2,0
		l0.1,0l0-0.1C5.8,9.9,5.7,9.7,5.6,9.6H5.5L5.4,9.7l-0.1,0l0-0.2l0.1-0.2l0-0.2V8.9c0-0.2,0-0.4,0-0.5c0-0.1,0-0.2,0-0.3V7.9
		c0-0.2,0-0.4,0-0.5V7.2V7c0-0.1,0-0.2,0-0.3l0-0.1l0.1-0.1V6.4l0-0.1l0.1-0.1c0-0.1,0-0.2,0-0.3L5.5,5.6l0-0.2L5.4,5.2l0,0l0.1,0
		l0-0.1C5.4,5,5.4,5,5.4,4.9L5.3,4.8L5.3,4.7v0h0.1l0,0l0,0L5.3,4.5l0-0.1l0-0.2l0,0l0.1,0c0-0.1,0.1-0.2,0.1-0.3l0,0H5.4l-0.1,0
		l0-0.1l0.1,0l0.1-0.1l0-0.1l0,0L5.4,3.4l0-0.2C5.4,3.2,5.5,3,5.6,2.9l0.1-0.1v0L5.5,2.6H5.4c-0.1,0-0.2,0-0.3,0l-0.2,0
		c-0.1,0-0.2,0-0.3,0c-0.1,0-0.2,0-0.3,0l-0.1,0L4.1,2.9v0C4.2,3,4.3,3,4.4,3.1h0.1L4.5,3l0.1,0l0,0l0,0.1l0,0.1
		c0.1,0.1,0.1,0.2,0.1,0.3l0.1,0.2l0,0.1l0,0.1c0,0.1,0,0.2-0.1,0.3l0,0.1l0,0.1c0,0.1,0,0.3,0,0.4c0,0.1,0,0.3,0,0.4v0.2l0,0.1
		l0,0.2L4.8,5.9L4.7,6L4.6,6.1l0,0l-0.1,0l-0.1,0C4.3,6.1,4.2,6.1,4.1,6.1L4,6.1L3.8,6.2l-0.1,0c-0.2,0-0.4,0.1-0.5,0.1l-0.1,0
		c-0.1,0-0.2,0-0.3,0.1L2.4,6.4l-0.2,0H2c-0.1,0-0.2,0.1-0.3,0l0,0l0-0.1V5.9c0.1-0.1,0-0.3,0-0.4l0-0.2c0-0.1,0-0.2,0-0.3l0-0.1
		l0-0.2c0.1-0.2,0.1-0.4,0-0.6l0-0.1c0-0.2,0-0.5,0-0.7c0-0.1,0-0.3,0.1-0.4C1.8,3,1.9,2.8,2,2.7l0-0.1c-0.1,0-0.3,0-0.4,0
		s-0.3,0-0.4,0l-0.2,0L0.8,2.9l0.1,0.2l0,0.2c0,0.1,0,0.3,0,0.4l0,0.1c0,0.1,0,0.2,0,0.3l0,0.1l0,0.1l0,0.1l0,0.2C1,4.8,1,5,1,5.2
		c0,0.1,0,0.2,0,0.3v0.1l0,0.1C1,5.8,1,5.9,1,6c0,0.1,0,0.2,0,0.3c0,0.1,0,0.2,0,0.3c0,0.1,0,0.1-0.1,0.2l0,0v0C1,6.9,1,7,1,7.1v0.2
		l0,0.3c0,0.1,0,0.2,0,0.3l0,0.2l0,0.1c0,0.1,0,0.2,0,0.3v0.3C1,8.9,1,9,1,9.2c0,0.1,0,0.3-0.1,0.4l0,0.2c0,0.1-0.1,0.2-0.2,0.3
		l-0.2,0.1v0.1C0.6,10.4,0.6,10.4,0.7,10.4z"/>
	<path class="st0" d="M35,6.2c0.1-0.3,0.2-0.5,0.4-0.6c0.1-0.1,0.3-0.2,0.4-0.2c0.2,0,0.3,0.1,0.5,0.3c0.1,0.2,0.2,0.4,0.2,0.7
		c0,0.3-0.1,0.6-0.2,0.9c-0.1,0.3-0.3,0.5-0.4,0.6c-0.2,0.1-0.3,0.2-0.4,0.2c-0.2,0-0.3-0.1-0.4-0.3c-0.1-0.2-0.2-0.4-0.2-0.7
		C34.8,6.8,34.8,6.5,35,6.2z M36.3,8.5c0.1,0.1,0.2,0.1,0.4,0.1c0.4,0,0.8-0.2,1.1-0.7c0.4-0.5,0.6-1.1,0.6-1.8c0-0.5-0.1-1-0.3-1.4
		s-0.5-0.7-0.9-1c-0.4-0.2-0.8-0.3-1.2-0.3c-0.5,0-1,0.1-1.4,0.4c-0.4,0.3-0.7,0.7-1,1.2c-0.3,0.6-0.4,1.2-0.4,1.9
		c0,0.7,0.1,1.2,0.4,1.7c0.2,0.5,0.6,0.8,1,1.1c0.4,0.2,0.9,0.4,1.5,0.4c0.4,0,0.8-0.1,1.1-0.2c0.3-0.1,0.6-0.3,0.9-0.6
		c0.3-0.3,0.4-0.5,0.6-0.8H38c-0.2,0.3-0.4,0.6-0.8,0.8c-0.3,0.2-0.7,0.3-1.2,0.3c-0.5,0-0.9-0.1-1.3-0.3c-0.4-0.2-0.6-0.5-0.8-0.9
		C33.7,8,33.6,7.5,33.6,7c0-0.6,0.1-1.1,0.3-1.6c0.2-0.5,0.5-0.8,0.9-1C35.1,4.1,35.5,4,36,4c0.4,0,0.7,0.1,1,0.3
		c0.3,0.2,0.6,0.4,0.7,0.8C37.9,5.4,38,5.7,38,6.1c0,0.3-0.1,0.7-0.2,1c-0.1,0.3-0.3,0.5-0.5,0.7C37.1,8,37,8.1,36.9,8.1L36.8,8
		c0,0-0.1-0.1-0.1-0.2c0,0,0-0.2,0.1-0.5L37.2,5h-0.5l-0.1,0.5c-0.1-0.2-0.2-0.4-0.4-0.5c-0.1-0.1-0.3-0.2-0.5-0.2
		c-0.2,0-0.4,0.1-0.7,0.3c-0.2,0.2-0.4,0.4-0.6,0.8c-0.2,0.4-0.2,0.7-0.2,1.1c0,0.5,0.1,0.9,0.3,1.2c0.2,0.2,0.4,0.4,0.7,0.4
		c0.1,0,0.3,0,0.4-0.1c0.2-0.1,0.3-0.2,0.4-0.4C36.2,8.3,36.2,8.4,36.3,8.5z"/>
	<path class="st1" d="M75.6,4.1L75.6,4.1V4V4.1L75.6,4.1L75.6,4.1z M72.1,7.2l0,0.2l0.1,0.2l0,0.1c0.1,0.1,0.1,0.3,0.2,0.4
		c0,0.2,0.1,0.3,0.2,0.5C72.7,8.8,72.8,9,73,9.2c0.1,0.1,0.3,0.3,0.5,0.3c0.1,0,0.2,0.1,0.3,0.1l0.2,0h0.1l0.2,0
		c0.1,0,0.2,0,0.3-0.1l0.1-0.1l0.2-0.1c0.1,0,0.2,0,0.2-0.1L75.1,9l0.1-0.2c0.1-0.1,0.2-0.3,0.2-0.4l0-0.1c0-0.2,0.1-0.4,0.2-0.6
		l0-0.1l0-0.1c0-0.2,0-0.3,0-0.4l0-0.1l0.1-0.2l0.1-0.2l0-0.1l0-0.2l0-0.2l0-0.2c-0.1-0.1-0.1-0.2-0.1-0.3c0-0.1,0-0.3-0.1-0.4
		l-0.1-0.1c-0.1-0.2-0.1-0.3-0.1-0.5l0.1-0.1l0-0.1l0,0c-0.1-0.1-0.2-0.2-0.2-0.3c0-0.1-0.1-0.2-0.1-0.3c-0.1-0.1-0.1-0.2-0.2-0.3
		l0-0.1L75,3.4c-0.1-0.1-0.2-0.2-0.3-0.2l-0.2-0.1c-0.1,0-0.3,0-0.4-0.1l-0.2,0c-0.1,0.1-0.4,0.2-0.5,0.3l-0.1,0.1
		c-0.1,0.1-0.2,0.3-0.3,0.4L73.1,4l0,0.2c-0.1,0.1-0.1,0.2-0.2,0.3c0,0.1-0.1,0.2-0.1,0.4l0,0.1c-0.1,0.2-0.1,0.4-0.2,0.6
		c-0.1,0.3-0.2,0.5-0.2,0.8c0,0.1,0,0.2,0,0.3l0,0.1l-0.1,0c0,0.1,0,0.2,0,0.3L72.1,7.2L72.1,7.2z M74,2.1l0.1,0
		c0.2,0,0.4,0.1,0.5,0.1l0.1,0.1l0.1,0.1L75,2.5l0.2,0.1l0.2,0.2l0.1,0.1l0,0.2v0l0,0l0.1,0l0.1,0.1C76,3.4,76.1,3.7,76.3,4
		c0.1,0.1,0.1,0.3,0.1,0.5c0,0.1,0,0.2,0.1,0.3c0,0.1,0.1,0.3,0,0.4v0.2l0,0.2l0,0.1c0,0.1,0,0.2,0,0.3v0.3l0,0.2l0,0.2l0,0.2
		c-0.1,0.1,0,0.3,0,0.4v0.1c0,0.1,0,0.3,0,0.4c0,0.1-0.1,0.3-0.1,0.4l0,0.1l-0.1,0.2C76,8.7,76,8.9,75.8,9.1c0,0.1-0.1,0.2-0.2,0.3
		c-0.1,0.1-0.2,0.2-0.4,0.3l-0.2,0.1c-0.2,0.1-0.2,0.1-0.5,0.2c-0.2,0-0.3,0.1-0.5,0.2c-0.1,0-0.1,0-0.3,0l-0.2,0l-0.1,0
		c-0.1-0.1-0.1-0.1-0.2-0.1C73.1,10,73,10,72.9,10l-0.1,0c-0.1-0.1-0.2-0.1-0.3-0.2c-0.1-0.1-0.3-0.2-0.3-0.4C72.1,9.2,72,9,72,8.9
		l0-0.1l-0.1-0.1l0,0l0-0.2l-0.1-0.1l0-0.2c0-0.1-0.1-0.3-0.1-0.4l-0.1-0.2V7.2l0-0.3c0-0.1,0-0.2,0-0.3c0-0.1,0-0.2,0-0.3V6.1
		l0-0.2l0-0.1c0-0.2,0-0.4,0.1-0.6l0-0.2l0.1-0.2c0.1-0.1,0.1-0.2,0.1-0.3c0-0.2,0.1-0.5,0.1-0.7l0-0.1l0.1-0.2
		c0.1-0.3,0.3-0.5,0.4-0.7c0.1-0.1,0.2-0.3,0.3-0.3l0.1-0.1l0.1-0.1l0.1-0.1c0.1-0.1,0.2-0.1,0.3-0.2C73.8,2.1,73.9,2.1,74,2.1z
		 M69.4,10.3l0.1,0l0.1-0.1c0.1-0.1,0.2-0.1,0.3,0l0.2,0.1l0.2-0.1v-0.1L70.2,10l0-0.2l0,0l0-0.2c0-0.1,0-0.2,0-0.3l0-0.2l0-0.2
		c0-0.1,0-0.2,0-0.4v-1c0-0.2,0-0.3,0-0.4V7c0.1-0.2,0-0.3,0-0.5c0-0.1,0-0.2,0-0.3c0-0.1,0-0.2,0-0.3V3.7c0-0.1,0-0.2,0-0.3
		c-0.1-0.1,0-0.2,0-0.3L70.3,3l0.1-0.2l-0.1-0.2l-0.1,0l-0.2,0l-0.2,0c-0.2,0.1-0.3,0.1-0.5,0l-0.1,0l-0.1,0l0,0.2l0.1,0.2l0.1,0.2
		c0,0.1,0,0.3,0,0.4c0,0.1,0,0.2,0,0.3v1.1l0,0.2v0.2l0,0.3v0.2c0,0.1,0,0.2,0,0.3c0,0.1,0,0.3,0,0.4l0,0.3c0,0.1,0,0.3,0,0.4l0,0.1
		l0,0.2l0,0.2c0,0.1,0,0.3,0,0.4l0,0.2l0,0.1c0,0.1,0,0.2,0,0.3l0,0.2v0.2c0,0.1,0,0.2,0,0.3c0,0.2,0,0.3,0,0.5v0.3L69.4,10.3z
		 M67.3,10.2l0.2,0.1l0.1,0h0.2l0.1,0l0.1,0l0-0.1l0.1,0l0-0.2l0-0.1l0-0.1l0-0.2l-0.1,0l0-0.1l-0.1,0l0,0l-0.1,0l-0.2,0l-0.1,0
		l-0.1,0.1l0,0.1l-0.1,0.1l0,0.1v0.1l0,0.1l0,0.1L67.3,10.2L67.3,10.2L67.3,10.2z M63.9,2.3l-0.2,0l-0.2,0c-0.2,0-0.3,0.1-0.5,0.1
		l-0.1,0.1c0,0.1-0.1,0.3-0.1,0.4l0,0.1c0,0.1,0,0.3,0,0.4l0,0.1l-0.1,0.2l0,0l0,0.1l0.1,0.1l0.1,0L62.8,4l0,0.2
		c0,0.1-0.1,0.2-0.1,0.3l0,0.1l0,0.1l-0.1,0.2l0,0.1l0.2,0.2l0.1,0c0.1,0,0.2-0.1,0.3-0.1L63.6,5c0.1-0.1,0.2-0.1,0.3-0.1l0.2-0.1
		l0.1-0.2l0.2-0.2l0.1-0.1l0.2-0.1l0.1-0.1l0-0.1C65,3.8,65,3.7,65.2,3.5l0-0.1c0-0.1,0-0.2,0-0.3V3l-0.1-0.1C65,2.9,65,2.8,65,2.8
		l0.1,0l0.1,0.1h0.1l0.1-0.2l-0.2-0.1l-0.2,0.1h-0.1l0,0l0,0l0.1,0V2.4l-0.1,0l-0.1,0l-0.1,0l-0.2-0.1h-0.1l-0.1,0
		C64,2.4,63.9,2.4,63.9,2.3z M61.6,10.1c0-0.1,0-0.2,0-0.3l0.1-0.2c0-0.1,0-0.2,0-0.3l0-0.1c0-0.1,0-0.3,0-0.4V8.8l0-0.1
		c0-0.1,0-0.3,0-0.4c0-0.2,0-0.3,0-0.5l0-0.3l0-0.3l0-0.1l0-0.1l0-0.1c0.1-0.2,0.1-0.4,0.1-0.6l0-0.1V6.2c0-0.1,0-0.2,0-0.3V5.2V5
		c0-0.1,0-0.3,0-0.4V4.4l0-0.2l0-0.2c0-0.2,0-0.5,0-0.7V3l0-0.2c0-0.1-0.1-0.2-0.1-0.3l0-0.1l0-0.1c-0.1-0.1-0.3-0.2-0.4-0.3l0-0.1
		l0.1,0c0.1,0,0.2-0.1,0.3,0l0.2-0.1c0.1-0.1,0.2-0.1,0.3-0.1c0.1,0,0.2,0,0.3,0h1c0.1,0,0.2,0,0.3,0c0.1,0,0.3,0,0.4,0l0.2,0
		l0.1,0.1l0.1,0l0.1,0l0.1,0l0.1,0C65,2,65.1,2.1,65.2,2.2c0.1,0.1,0.2,0.2,0.3,0.2l0.1,0.1c0.1,0.2,0.2,0.3,0.2,0.5l0,0.2v0.3
		c0,0.2-0.1,0.3-0.1,0.5c0,0.1-0.1,0.3-0.1,0.4l-0.2,0.1l-0.2,0l0,0l-0.1,0.1v0.1l0,0.1v0.1L64.9,5l-0.2,0l-0.1,0l-0.1,0l-0.2,0.2
		l0,0.1l0,0.2v0.2L64.4,6l0,0.1l0,0.1l0,0.1c0,0.1,0,0.2,0.1,0.3l0.1,0.2l0,0.1l0,0.2l0,0.1c0,0.1,0.1,0.2,0.1,0.3l0,0.2l0.1,0.2
		v0.1l0,0.1C65,8,65,8.1,65.1,8.2l0,0.1c0,0.1,0,0.2,0.1,0.2l0,0.1c0,0.1,0.1,0.2,0.1,0.2c0.2,0.1,0.3,0.3,0.3,0.5
		c0.1,0.2,0.1,0.3,0.2,0.5c0,0.1,0.1,0.2,0.1,0.3l0.1,0.2l0,0.1c-0.1,0.1-0.2,0.1-0.3,0.2c-0.2,0-0.3,0.1-0.5,0.1
		c-0.1,0-0.2,0-0.2-0.1c0-0.1-0.1-0.2-0.1-0.3l0-0.1c0.1-0.2,0-0.4,0-0.6c0-0.1-0.1-0.3-0.1-0.4L64.8,9l0,0V8.9l-0.1-0.2
		c0-0.1,0-0.2-0.1-0.3l-0.1-0.1l-0.1-0.1c0-0.1-0.1-0.2-0.1-0.3l0,0l0-0.2l0-0.1V7.5c-0.1-0.1-0.1-0.2-0.2-0.3l-0.1-0.1L64.1,7
		l0-0.1V6.6l0-0.1c-0.1,0-0.1,0-0.1-0.1l0-0.1l-0.1-0.2l0-0.1V6l-0.1-0.3l0-0.2l0,0l-0.2,0.1c-0.1,0-0.2,0.1-0.3,0.1l-0.1,0.1l0,0.1
		L62.7,6l-0.1,0l-0.1,0.1c0,0.1-0.1,0.2-0.1,0.3l0,0.1l0,0.1c0.1,0.1,0.1,0.3,0,0.4l0,0.2l0,0.1c0,0.1,0,0.2,0,0.3l0,0.1
		c-0.1,0.1-0.1,0.2-0.1,0.3l0,0.1v0.1l0,0.3c0,0.2,0,0.3,0.1,0.4L62.6,9v0.3l0,0.2c0,0.1,0,0.2,0,0.3s0,0.2,0,0.3l-0.1,0.2l-0.1,0
		l-0.1,0c-0.1,0-0.2,0-0.3,0l-0.2,0.1l-0.2,0l-0.1-0.1L61.6,10.1z M57.7,6.8c-0.1,0-0.2,0-0.3,0h-0.6c-0.1,0-0.3,0-0.4,0
		s-0.3,0-0.4-0.1l0,0l0-0.1l0-0.1c0.1-0.1,0.2-0.3,0.2-0.4c0.1-0.2,0.2-0.4,0.3-0.6l0.1-0.2L56.7,5l0-0.1l0.1-0.2l0.1-0.2
		c0.1-0.1,0.2-0.2,0.2-0.4c0-0.1,0.1-0.2,0.1-0.4l0.1-0.1l0.1,0l0.1,0h0l0,0v0.1l0,0.2l0,0.1l0.1,0.1l0,0.1l0.1,0.2l0,0.1
		c0,0.1,0,0.2,0,0.3C58,5,58,5,58.1,5l0,0c-0.1,0.1-0.1,0.2-0.1,0.3l0,0.3l0.1,0.2l0,0.1l0,0.1l0.1,0.3l0,0.1c0,0.1,0,0.2,0.1,0.2v0
		l0,0.1c-0.1,0-0.2,0.1-0.3,0.1L57.7,6.8L57.7,6.8z M59.5,10.4l0.3-0.2c0.1-0.1,0.2-0.1,0.3-0.1l0.1,0l0.2,0l0-0.1
		c-0.1,0-0.1-0.1-0.2-0.2c-0.1-0.2-0.1-0.3-0.2-0.5l-0.1-0.2l-0.1-0.1c0-0.1-0.1-0.2-0.1-0.3l-0.1-0.1l0-0.1l0-0.2l-0.1-0.1l0-0.1
		c0-0.2-0.1-0.4-0.1-0.7l0-0.1c0-0.2-0.1-0.3-0.1-0.5c-0.1-0.2-0.1-0.3-0.2-0.5L59,6.3L58.9,6c0-0.1-0.1-0.2-0.1-0.4
		c0-0.1,0-0.2-0.1-0.3l-0.1-0.2c0-0.1-0.1-0.3-0.2-0.4l-0.1-0.2l0-0.1c-0.1-0.1-0.1-0.3-0.2-0.5l0-0.2C58.1,3.6,58,3.3,58,3.1
		c0-0.2-0.1-0.4-0.1-0.6l0-0.2V2l0-0.1l-0.1,0h-0.1c-0.1,0-0.2,0-0.2,0.1l-0.2,0.2l-0.1,0.1l0,0.3C57,2.8,57,3,56.9,3.2
		c-0.1,0.2-0.1,0.4-0.2,0.5c0,0.1-0.1,0.2-0.2,0.4l-0.1,0.1c-0.1,0.1-0.1,0.2-0.1,0.3l0,0.1c-0.1,0.1-0.1,0.2-0.2,0.3
		C56,5,56,5.1,56,5.2c0,0.1,0,0.2-0.1,0.2l0,0c0,0.1-0.1,0.2-0.2,0.3L55.6,6c-0.1,0.1-0.2,0.3-0.3,0.5c0,0.1-0.1,0.2-0.1,0.3
		C55.1,6.9,55,7,55,7.2l0,0.1l-0.1,0.2c-0.1,0.1-0.1,0.2-0.2,0.3c-0.1,0.1-0.1,0.2-0.1,0.3l0,0.1c-0.1,0.2-0.3,0.4-0.3,0.6l0,0.1
		L54,9c-0.1,0.1-0.1,0.2-0.2,0.3c-0.1,0.1-0.1,0.2-0.1,0.3l0,0.1l-0.1,0.2l0,0v0l0,0l0.1,0l0.2,0l0.2,0.1l0.2,0.1l0.1,0l0.1,0l0-0.1
		V9.9c0.1-0.2,0.1-0.4,0.2-0.5c0.1-0.1,0.1-0.2,0.2-0.3c0.1-0.2,0.2-0.4,0.3-0.5c0.1-0.1,0.2-0.3,0.2-0.4s0.2-0.3,0.2-0.5
		c0-0.1,0.1-0.2,0.2-0.3l0.1-0.1c0.1,0,0.2,0,0.3,0l0.1,0l0.2,0c0.2,0,0.4,0,0.6,0c0.1,0,0.2,0,0.3,0c0.1,0,0.2,0,0.3,0l0.1,0l0.2,0
		l0.2,0l0.1,0h0.2l0.1,0l0.2,0.1l0.1,0.1c0.1,0.2,0.1,0.3,0.1,0.5l0.1,0.2l0,0.1C58.9,8.5,59,8.7,59,8.9c0,0.2,0.1,0.4,0.1,0.6
		c0.1,0.1,0,0.3,0.1,0.4c0,0.1,0,0.2,0,0.3L59.5,10.4z M48.4,8.7L48.4,8.7L48.4,8.7l0-0.3l0-0.2l0-0.2c0-0.1,0-0.2,0-0.3l0,0l0,0
		c0,0.1,0,0.2,0,0.3c0,0.1,0,0.2,0,0.3v0.1L48.4,8.7L48.4,8.7z M48.4,7.4L48.4,7.4l-0.1-0.1V7.1c0-0.1,0-0.3,0-0.4l0,0l0.1,0l0,0
		c0,0.1,0,0.2,0,0.3C48.5,7.1,48.5,7.2,48.4,7.4L48.4,7.4z M48.3,6L48.3,6L48.3,6L48.3,6L48.3,6L48.3,6z M48.4,5.6L48.4,5.6
		l-0.1-0.1h0L48.4,5.6L48.4,5.6L48.4,5.6z M48.4,5.3L48.4,5.3l0-0.3l0,0L48.4,5.3L48.4,5.3z M48.7,10.4l0.2,0h1c0.2,0,0.3,0,0.5,0
		c0.2,0,0.3,0,0.5,0c0.2,0,0.3-0.1,0.5,0l0.1,0l0.3,0h0.5l0.1,0l0.1-0.1L52.4,10c-0.1-0.1-0.1-0.2,0-0.3l0.1-0.2l0-0.1l-0.1,0
		l-0.2,0.1c-0.1,0-0.2,0.1-0.3,0.1c-0.2,0.1-0.4,0.1-0.5,0.1l-0.2,0l-0.2,0h-0.4c-0.1,0-0.2,0-0.3,0l-0.2,0l-0.2,0h-0.2l-0.1,0
		l-0.2-0.1l-0.1-0.1c-0.1-0.1-0.2-0.1-0.2-0.2l0-0.2l0-0.1V9c0-0.2,0-0.3,0-0.5V7.1c0-0.1,0-0.3,0.1-0.4c0-0.1,0.1-0.2,0.3-0.3
		c0.1,0,0.2,0,0.3,0l0.1-0.1l0.2,0L50,6.2l0,0c0.2,0,0.3,0,0.5,0l0.2,0.1L51,6.4h0.4c0.2,0,0.3,0,0.5,0l0.1-0.1l0-0.2
		c0-0.1,0-0.2,0-0.3L52,5.8l0-0.1l0,0c-0.1,0-0.3,0-0.4,0c-0.1,0-0.2,0.1-0.3,0.1c-0.2,0-0.3,0.1-0.4,0.1l-0.1,0c-0.2,0-0.3,0-0.5,0
		l-0.1,0l-0.2,0l-0.1,0l-0.1,0l-0.2,0l-0.2,0c-0.1,0.1-0.3,0-0.3-0.1l0-0.1l0-0.3c0-0.2,0-0.5,0-0.7l0-0.1c0-0.1,0-0.2,0-0.3
		c0-0.2,0-0.3,0-0.5l0-0.2c-0.1-0.1,0-0.2,0-0.3L49.1,3c0.1,0,0.3-0.1,0.4-0.1c0.4,0,0.7,0,1.1,0l0.2,0L51,3c0.1,0,0.2,0,0.3,0h0.4
		l0.1-0.1V2.7c0-0.1,0-0.2,0.1-0.3l0.1-0.1l0,0l-0.2,0l-0.3,0H51c-0.1,0-0.2,0-0.3,0c-0.1,0-0.3,0-0.4,0l-0.1,0l-0.1,0l-0.3,0
		c-0.2,0-0.3,0-0.5,0c-0.1,0-0.2,0-0.3,0c-0.1,0-0.2,0-0.3,0c-0.1,0-0.3,0-0.4,0c-0.2,0-0.3,0-0.5,0.1h-0.1l-0.2,0.1l-0.1,0h-0.1
		l0,0v0.1l0.1,0.1l0.1,0l0.1,0L48.1,3l0.1,0.2l0,0.2v1.2l0,0.3l0,0.2l0,0.2l0,0.1l0,0.3c0,0.1,0,0.2,0,0.3l0,0.2v0.3
		c0,0.1,0,0.3,0,0.4c0.1,0.1,0,0.3,0,0.4c0,0.2,0,0.3,0,0.5v0.1l0,0.2v0.8l0,0.2l0,0.2v0l0.1,0c0.1,0,0.1,0,0.1,0.1v0
		c0,0.1,0,0.2-0.1,0.2l0,0.1c0,0.1-0.1,0.2-0.1,0.4C48.1,9.9,48,10,47.9,10l-0.4,0.1l0,0.1l0.1,0.1c0.1,0,0.2,0,0.4,0l0.3,0
		C48.4,10.4,48.6,10.4,48.7,10.4z M41.9,2.2h0.4c0.1,0,0.2,0,0.4,0h0.2c0.1,0,0.2,0,0.3,0.1l0.1,0h0.3c0.1-0.1,0.2-0.1,0.3-0.1H44
		l0.2,0l0.2,0h0.4l0,0l0,0.1L45,2.4c0.1,0,0.2,0,0.3-0.1l0.2,0l0.2,0l0.1-0.1l0.1-0.1l0.2-0.1l0.2,0.1c0,0.1,0,0.2,0,0.3
		c0,0.1,0,0.3,0,0.4c0,0.1,0,0.3,0,0.4l-0.1,0.2l-0.1,0L46,3.4l-0.1-0.2c0-0.1-0.1-0.2-0.2-0.3l-0.1,0c-0.1,0-0.2-0.1-0.3-0.2
		l-0.1,0c-0.2,0.1-0.3,0-0.5,0.1l-0.1,0h-0.1l0,0l-0.2-0.1c-0.1,0-0.2,0-0.3,0l-0.2,0.1l-0.1,0l0-0.1l-0.2,0h-0.2
		c-0.1,0-0.3,0-0.4,0l-0.2,0l-0.2,0.1l-0.1,0.1l0,0.1l0,0.1l-0.1,0.2c0,0.2,0,0.3,0,0.4l0,0.1c-0.1,0.2,0,0.3,0,0.5l0,0.1
		c0,0.1,0,0.2,0,0.3c0,0.1,0,0.3,0,0.4l0,0.1l0,0.1c0.1,0.1,0.2,0.1,0.3,0.2c0.1,0.1,0.1,0.1,0.2,0L43,5.4l0.1,0c0.1,0,0.3,0,0.4,0
		c0.1,0,0.2,0,0.3,0c0.1,0,0.2,0,0.3-0.1c0.1,0,0.2,0,0.3-0.1l0.1,0.1l0,0.3c0,0.1,0,0.3,0,0.4l-0.1,0.1l-0.1,0c-0.2,0-0.3,0-0.5,0
		l-0.2,0h-0.5c-0.1,0-0.2,0-0.3,0s-0.2,0-0.3,0c-0.1,0-0.2,0.1-0.2,0.2v0.1c0,0.1,0,0.2-0.1,0.3c-0.1,0.1-0.1,0.2-0.1,0.3v0.7
		c0,0.1,0,0.2,0,0.3V8c0,0.1,0,0.3,0,0.4v0.2c0,0.2,0.1,0.4,0.1,0.6l0,0.1c0.1,0.2,0.1,0.4,0.2,0.5l0.1,0.2l0,0.2l-0.1,0.1l-0.2,0
		l-0.1-0.1l-0.2-0.1c-0.2,0-0.3,0-0.5,0.1l-0.1,0l-0.1-0.1l0-0.2c0-0.1,0.1-0.2,0.1-0.3c0-0.1,0.1-0.2,0.1-0.3c0-0.2,0-0.3,0.1-0.4
		c0-0.1,0-0.3,0-0.4V8.4c0-0.2,0-0.3,0-0.5c0-0.1,0-0.2-0.1-0.3V7.5l0-0.2V6.8l0-0.2l0-0.2v0l0-0.2l0-0.2l0-0.3l0-0.2
		c0-0.1,0-0.2,0-0.3V4.8c0-0.1,0-0.2,0-0.3l0-0.1V4.1V4c0-0.1,0-0.2,0-0.3c0-0.1,0-0.2,0-0.3l0,0c0-0.1,0-0.2,0-0.3l0-0.1
		c0-0.1-0.1-0.2-0.2-0.3l-0.2-0.1L41,2.6L41,2.5l0-0.1l0-0.1c0.1,0,0.3-0.1,0.4-0.1C41.6,2.2,41.7,2.2,41.9,2.2z"/>
</g>
</svg>
