<?xml version="1.0" encoding="utf-8"?>
<!-- Generator: Adobe Illustrator 25.2.1, SVG Export Plug-In . SVG Version: 6.00 Build 0)  -->
<svg version="1.1" id="Layer_1" xmlns="http://www.w3.org/2000/svg" xmlns:xlink="http://www.w3.org/1999/xlink" x="0px" y="0px"
	 viewBox="0 0 283 100" style="enable-background:new 0 0 283 100;" xml:space="preserve">
<style type="text/css">
	.st0{fill:#FFFFFF;}
	.st1{fill:#979695;}
</style>
<g>
	<g transform="translate(0.000000,122.000000) scale(0.100000,-0.100000)">
		<path class="st0" d="M245.7,1036.7c-92.4-20.9-173.4-83-213.6-165C-11.3,783.4-16,695.7,19,608.4c18.3-46,31.9-57.5,65.8-55.9
			c14.6,0.5,29.8,3.7,33.9,6.8c5.2,4.7,6.8,27.7,6.8,99.2c0,86.7,0.5,94,10.4,103.9c13.1,13.1,59.5,14.6,77.3,2.1
			c11-7.8,11.5-11,11.5-98.7v-90.4l12,2.6c24.5,6.3,24.5,6.8,24.5,130c0,114.4,0,116.5,11.5,124.3c17.8,12.5,64.2,11,77.3-2.1
			c9.9-9.9,10.4-17.2,10.4-112.3V615.7l15.1,7.8c8.4,4.7,16.2,12,18.3,16.2c1.6,4.7,3.1,63.2,3.1,130c0,87.2,1.6,122.7,6.3,127.4
			c9.9,9.9,74.7,8.4,83-2.6c5.2-6.3,7.8-33.9,9.9-106.5l2.6-98.2l26.1,21.9c47.5,39.7,86.2,85.7,86.2,102.4
			c0,50.7-71.6,146.2-137.9,185.4C410.2,1036.7,314.1,1052.4,245.7,1036.7z"/>
		<path class="st0" d="M725.1,882.1c-2.6-2.1-4.2-7.8-3.1-13.1c1-7.3,6.3-9.9,18.3-10.4c32.4-1,32.9-3.1,32.9-117.5
			c0-114.9-1.6-121.7-33.4-118.6c-14.1,1.6-16.2,0-16.2-11V599h119.1c72.1,0,121.2,2.1,124.3,5.2c2.6,2.6,4.7,27.2,3.7,56.9
			c-1.6,51.2-1.6,51.7-14.6,51.7c-12.5,0-13.1-1.6-15.7-38.1c-1.6-25.6-5.2-39.7-10.4-42.8c-4.2-3.1-32.4-4.7-62.7-4.2l-54.8,1.6
			v52.2v52.2l22.5,1.6c29.8,2.1,39.7-5.7,35.5-30.3c-3.1-21.9,2.1-32.9,15.7-30.3c8.9,1.6,9.4,7.8,9.4,74.7v73.1h-12.5
			c-11,0-13.1-2.1-12-15.7c1.6-30.3-2.6-38.6-21.4-42.3c-35-6.3-39.7-1-39.7,42.3c0,47.5,2.6,49.6,62.2,49.6
			c54.8,0,63.2-6.8,63.2-51.7c0-32.9,9.4-49.1,22.5-38.1c9.9,8.4,11,110.2,1.6,113.9C948.7,884.7,731.4,885.8,725.1,882.1z"/>
		<path class="st0" d="M1177.4,880.5c-4.7-12,3.1-19.8,16.7-17.2c24.5,4.7,25.6,0,27.2-105c1-54.3-0.5-106.5-2.6-116.5
			c-4.2-15.7-6.8-17.8-23-17.8c-15.7,0-17.8-1.6-17.8-13.1V598h57.5h57.5V611c0,11.5-2.1,13.1-18.3,13.1h-18.3l-1.6,54.8
			c-2.6,81.5,8.4,106.5,48.1,113.3c22.5,3.7,44.9-4.7,55.4-20.9c9.4-15.1,13.6-115.4,5.7-136.3c-4.7-11.5-8.4-14.1-16.7-12
			c-15.1,4.2-25.6-1-25.6-12.5c0-5.2,1.6-9.9,4.2-10.4c19.3-1.6,104.5-2.1,109.7-0.5c3.1,1,6.3,6.8,6.3,12c0,9.9-2.1,11-26.1,12
			l-13.1,0.5l-2.6,73.1c-2.1,65.3-3.7,74.7-14.6,89.8c-23.5,32.9-81,41.8-115.4,17.8l-15.7-11.5l-1.6,46l-1.6,46l-35.5,1.6
			C1188.4,887.9,1179.5,886.8,1177.4,880.5z"/>
		<path class="st0" d="M1042.2,871.1c-1-3.7-3.1-18.3-3.7-32.9c-1.6-24.5-2.6-26.1-17.2-28.7c-11.5-2.1-15.7-5.7-15.7-13.1
			s4.7-11,15.7-13.1l15.7-2.6l3.1-75.7c3.7-99.2,9.4-109.7,62.2-109.7c37.1,0,54.8,17.2,60.1,59c4.7,36.6,1,46.5-14.1,44.4
			c-10.4-1.6-12-5.2-13.6-30.3c-2.1-34.5-12-48.1-34.5-46c-25.1,2.6-29.2,17.8-28.2,93l1.6,65.3l33.9,2.6
			c29.8,2.1,33.9,4.2,33.9,13.1c0,8.9-4.2,11-33.9,13.1l-33.9,2.6l-1.6,32.9c-1.6,30.8-2.1,32.4-14.6,32.4
			C1050.5,877.4,1043.2,874.3,1042.2,871.1z"/>
		<path class="st0" d="M1522.7,810c-43.9-19.8-63.2-60.1-58.5-121.7c4.2-63.2,36-95.1,95.6-95.6c26.1,0,35.5,2.6,53.3,14.1
			c23.5,16.2,39.2,40.2,36.6,58c-2.6,19.3-20.9,14.6-31.3-7.8c-28.7-60.6-111.2-44.4-122.7,24l-3.1,18.8h79.4h78.9l3.1,13.1
			c8.4,34.5-13.6,77.3-50.1,95.6C1575.9,822.6,1550.9,823.1,1522.7,810z M1584.8,786.5c20.4-8.4,34.5-26.6,34.5-43.3
			c0-12-1-12-60.1-12c-55.4,0-60.1,1-60.1,9.9c0,13.6,19.8,37.1,38.6,45.4C1558.7,795.4,1563.4,795.4,1584.8,786.5z"/>
		<path class="st0" d="M1783.8,813.7c-5.7-3.1-15.7-10.4-21.9-16.2l-12-10.4v11c0,10.4-2.6,11.5-33.9,11.5c-26.6,0-35-2.1-37.6-8.4
			c-4.2-10.4,8.4-18.8,23-15.1c19.3,4.7,23-11.5,21.4-89.8l-1.6-72.1l-18.3-1.6c-21.9-2.1-29.8-8.4-21.9-17.8
			c3.7-4.7,21.9-6.8,62.2-6.8c54.3,0,56.4,0.5,58,12c1.6,9.9-0.5,11.5-16.7,11.5c-13.1,0-19.8,3.1-24,9.9
			c-6.8,13.1-6.8,96.6,0,121.7c11,38.1,51.2,52.8,75.7,28.2c14.1-14.1,13.1-26.6-3.1-30.8c-13.1-3.7-13.1-22.5,0-29.8
			c28.7-15.1,54.8,24,40.2,59.5C1859.5,812.6,1813.1,829.9,1783.8,813.7z"/>
		<path class="st0" d="M1944.7,809c-33.4-16.7-46.5-51.7-30.3-82.5c8.9-17.2,22.5-23.5,75.2-34.5c21.4-4.7,41.8-10.4,46-13.6
			c10.4-8.9,8.4-34.5-4.2-45.4c-30.8-29.2-103.9-7.8-103.9,30.3c0,16.2-8.9,26.6-18.8,22.5c-5.2-2.1-7.3-14.6-7.3-49.1
			c0-46,0-46.5,13.1-46.5c9.4,0,13.1,2.6,13.1,10.4c0,9.9,1,10.4,15.1,3.1c38.6-20.4,90.4-14.1,116.5,13.6
			c12,13.1,14.6,20.4,14.6,41.3c0,39.2-15.7,51.2-81,62.7c-36.6,6.3-57.5,22.5-51.2,40.2c16.2,46,95.6,38.1,95.6-9.4
			c0-16.7,5.7-22.5,17.8-17.8c6.8,2.6,8.4,11.5,8.4,44.4c0,38.1-1,41.3-10.4,41.3c-5.7,0-12-3.1-13.6-7.3c-2.6-6.3-5.2-6.3-20.4,0
			C1993.8,823.1,1970.3,822,1944.7,809z"/>
		<path class="st0" d="M2167.7,808.5c-33.9-17.2-52.8-47-55.9-88.3c-3.7-46.5,5.2-75.7,31.9-101.8c17.2-17.2,27.2-23,46.5-25.6
			c54.3-8.4,110.2,35.5,101.8,79.4c-2.6,15.1-21.4,11.5-29.2-6.3c-12.5-28.7-14.6-31.3-33.4-40.7c-16.2-7.8-20.9-8.4-38.6-2.6
			c-62.2,20.9-64.8,138.4-3.7,164.5c23,9.4,55.4,2.6,64.2-14.1c7.3-13.1,6.8-14.1-5.2-17.2c-15.1-3.7-14.1-28.7,1.6-34.5
			c23-8.9,40.2,6.3,40.2,36c0,24-12,40.7-38.6,52.8C2220.4,823.1,2195.9,822.6,2167.7,808.5z"/>
		<path class="st0" d="M2378.7,810c-25.1-11.5-38.6-28.2-38.6-47.5c0-16.7,8.9-26.1,24-26.1c17.2,0,25.6,13.1,18.8,28.7
			c-7.3,16.2,1.6,24,31.9,27.2c29.2,3.7,50.7-12,50.7-37.6c0-9.4-3.1-19.3-6.8-22.5c-3.7-3.1-26.6-8.9-51.7-13.6
			c-25.1-4.2-51.2-11.5-58-16.2c-40.7-26.6-27.7-90.9,21.4-106.5c29.2-8.9,64.2-3.7,84.1,13.1l15.1,12.5l8.4-13.1
			c7.3-11,12.5-13.1,33.9-13.1c34.5,0,42.3,9.4,42.3,51.7c0,30.8-0.5,32.4-11.5,30.8c-10.4-1.6-12-5.2-13.6-26.1
			c-2.1-28.7-11.5-40.2-24-27.7c-6.8,7.3-8.4,21.4-8.4,80.4c0,66.3-1,73.6-11.5,86.7C2462.8,820,2417.9,827.8,2378.7,810z
			 M2465.4,682.6c0-20.4-9.9-42.3-23-52.2c-13.1-8.9-44.4-14.1-57.5-9.4c-17.2,6.8-29.8,26.6-25.6,41.3c3.7,15.1,23,25.1,56.4,29.2
			c14.6,2.1,29.8,5.7,33.9,8.9C2462.8,708.2,2465.4,705.6,2465.4,682.6z"/>
		<path class="st0" d="M2662.3,807.9c-20.4-10.4-25.6-11.5-28.2-5.7c-3.1,8.9-66.9,10.4-72.1,2.1c-6.3-9.9,8.4-20.9,25.6-19.3
			l16.2,1v-81v-81l-18.3-1.6c-21.9-2.1-29.8-8.4-21.9-17.8c6.8-8.4,108.6-8.4,117,0c8.9,8.9-0.5,16.7-19.3,16.7
			c-16.2,0-18.3,1.6-21.4,18.3c-5.2,27.7,0.5,107.6,8.4,124.3c20.4,41.8,86.7,38.1,98.7-5.7c7.3-25.1,7.3-113.9,0.5-126.9
			c-3.7-6.3-11-9.9-20.9-9.9c-16.7,0-24.5-7.8-16.7-17.2c3.7-4.2,21.4-6.3,54.3-5.7c64.8,1,61.6,0.5,61.6,12c0,8.4-4.2,10.4-19.3,12
			l-19.8,1.6l-3.1,73.1c-1.6,40.2-5.7,78.3-8.9,84.6c-9.9,18.3-35.5,32.9-62.2,36C2692.6,820.5,2682.1,818.4,2662.3,807.9z"/>
	</g>
	<path class="st1" d="M61.1,47.7C53,57,38.4,74.5,11.3,74.5l0,0C18,83.1,61.1,85.5,61.1,47.7L61.1,47.7z"/>
</g>
</svg>
