<?xml version="1.0" encoding="utf-8"?>
<!-- Generator: Adobe Illustrator 25.2.1, SVG Export Plug-In . SVG Version: 6.00 Build 0)  -->
<svg version="1.1" id="Layer_1" xmlns="http://www.w3.org/2000/svg" xmlns:xlink="http://www.w3.org/1999/xlink" x="0px" y="0px"
	 viewBox="0 0 91.9 117" style="enable-background:new 0 0 91.9 117;" xml:space="preserve">
<style type="text/css">
	.st0{fill:#A08787;}
	.st1{fill:#C66A6B;}
	.st2{fill:#E4CECD;}
	.st3{fill:#EC2024;}
	.st4{fill:#FFFFFF;}
	.st5{fill:#AB9E9E;}
	.st6{fill:#776565;}
	.st7{fill:#BABABA;}
</style>
<g transform="matrix( 1, 0, 0, 1, 0,0) ">
	<g>
		<g id="Layer0_0_FILL">
			<path d="M80.9,63c-0.9-0.5-1.8-1-2.7-1.5c-1.9-1.1-3.9-2.2-5.9-3.3c-1.2-0.7-2.5-1.4-3.7-2c-1.2-0.6-2.4-1.3-3.7-1.9
				c0.2-0.5,0.4-1,0.5-1.5c1.6-4.9,1.4-9.8-0.7-14.6c-0.2-0.5-0.4-1-0.7-1.6c-0.8-1.5-1.7-3-2.8-4.2c-2.1-2.7-4.9-4.7-8.3-6.1
				c-2.2-1-4.5-1.5-6.7-1.7c-2.6-0.2-5.3,0-7.9,0.8c-0.7,0.2-1.3,0.4-2.1,0.7l0,0c-3.8,1.5-6.8,3.8-9.1,6.9l-20.2-11
				C5.2,22.6,4.4,24,4.8,26l20,11c-0.1,0.2-0.2,0.5-0.3,0.7c-0.7,1.5-1.1,3.1-1.4,4.6c-0.1,0.7-0.2,1.5-0.3,2.2
				c-0.1,1.1-0.1,2.1,0,3.2c0.2,2.2,0.7,4.5,1.6,6.7c0.8,2.1,1.9,3.9,3.2,5.5c-0.1,0-0.2,0-0.3,0.1c-0.3,0.1-0.5,0.2-0.5,0.3
				c-0.1,0-0.2,0.1-0.4,0.2c0.1,0.3,0.4,1,0.8,2c0.4,1,0.6,1.6,0.7,1.8c1.4,3.5,3.2,6.2,5.2,7.9c0.8,0.7,1.5,1.2,2.2,1.4
				c0.7,0.2,1.2,0.3,1.6,0.1c0.1,0,0.9-0.5,2.5-1.5c0.3-0.2,0.6-0.4,0.9-0.5c0,0.7,0.3,1.5,0.6,2.5c0.4,0.9,0.8,1.7,1.3,2.3
				c0.3,0.3,0.5,0.5,0.7,0.7c1,0.3,1.6,0.7,1.9,1.2c-0.3,1.1-1.2,2.6-2.6,4.3c-1.5,1.8-2.2,2.7-2.2,2.8c0,1.2,0.4,3.1,1.2,5.9
				c0.7,2.3,1.3,3.9,2.1,4.7c0.1,0.1,0.2,0.2,0.3,0.3c0.7,0.6,1.5,0.7,2.4,0.2l0.3-0.3c0.1-0.1,0.1-0.4,0.1-0.7
				c0-0.6-0.2-1.4-0.7-2.4c-0.5-1-0.7-1.5-0.7-1.6c0-0.2,0.1-0.7,0.3-1.5c0.2-0.8,0.3-1.3,0.3-1.5c0-1.9,0.9-3.9,2.6-6.1
				c1.5-1.9,2.3-3.8,2.2-5.5c0-0.2-0.1-0.3-0.1-0.4c0,0,0-0.1,0-0.1c0,0,0,0,0,0c-0.1-0.1-0.3-0.4-0.7-0.9c-0.4-0.5-0.9-0.9-1.6-1.2
				c-0.7-0.3-1.2-0.6-1.6-0.8c-0.6-0.4-1.1-0.8-1.3-1.3l0.1,0c0.5-0.4,1.2-0.8,2.2-1.2c1.2-0.4,2.1-0.7,2.6-0.9
				c0.9-0.4,1.5-0.9,1.8-1.4c0.2-0.5,0.3-1,0.1-1.6c0.4-0.1,0.7-0.3,1.1-0.4c0.5-0.2,1-0.5,1.5-0.7c0.4-0.2,0.9-0.4,1.3-0.6
				c3-1.7,5.4-4,7.2-6.8l14.1,7.7c0.7,0.3,1.4,0.6,2.1,0.9l0.1,0.2l10.5,1.3C86.7,66.6,83.8,64.8,80.9,63 M6.8,25.9
				c-0.5-1.2-0.2-1.9,1.1-2l10.4,5.7l8.2,4.5c-0.4,0.7-0.8,1.3-1.1,2l-2.2-1.2L6.8,25.9 M48.6,69c-1.3,0.8-2.3,1.4-3.1,1.8
				c-0.2,0.1-0.5,0.1-0.8,0c-0.4,0-0.6,0-0.8,0.1c-0.3,0.1-0.4,0.2-0.5,0.3c0,0.1,0,0.3,0,0.5l0.9,2.2c0.3,0.5,0.9,1,2,1.4
				c0.3,0.1,0.7,0.3,1.2,0.5c0.4,0.2,0.7,0.4,0.8,0.5l0,1.7c0-0.1-0.2,0.2-0.4,1.1c-0.3,0.9-1.1,2.1-2.4,3.7
				c-1.3,1.5-1.9,3.1-1.9,4.9c0,0.2-0.1,0.8-0.3,1.7c-0.2,0.9-0.3,1.5-0.3,1.7c0,0.3,0.2,0.9,0.5,1.9c0.4,0.9,0.6,1.5,0.8,1.7
				c0,0.1-0.1,0.2-0.2,0.1c-0.5-0.6-1.1-2.2-1.8-4.7c-0.6-2.3-0.9-3.6-0.9-4c0-0.4,0.8-1.3,2.5-2.8c1.5-1.3,2.3-2.7,2.4-4.1l-0.5-2
				c-0.4-0.4-0.9-0.7-1.6-1c-0.5-0.2-0.8-0.3-1.2-0.3c-0.4-0.5-0.8-1.2-1.1-2.1c-0.4-1.1-0.4-2,0-2.7c0.4-0.5,1.1-0.9,2.1-1.2
				c0.6-0.2,1-0.3,1.2-0.4c0.5-0.2,0.8-0.3,1-0.4c0.5-0.3,0.7-0.6,0.7-1c1.1-0.1,2.3-0.3,3.5-0.7C50.1,67.9,49.4,68.4,48.6,69
				 M33.1,64.8c0.4,0.2,0.8,0.5,1.2,0.7c0,0.1-0.1,0.3-0.1,0.4l1,2.6C34.5,67.2,33.8,65.9,33.1,64.8 M35.8,66.3
				c0.1,0,0.2,0.1,0.4,0.2c0.8,0.3,1.7,0.6,2.5,0.9c-0.1,0.1-0.1,0.2-0.1,0.3c-0.4,0.6-0.5,1.1-0.4,1.4c0.1,0.2,0.2,0.4,0.4,0.4
				l0.2,0.1c0.1-0.2,0.3-0.4,0.6-0.7c0.2-0.3,0.4-0.5,0.5-0.7c0.1-0.2,0.2-0.3,0.2-0.5c1.2,0.3,2.4,0.5,3.6,0.5
				c-0.9,0.2-1.5,0.4-1.8,0.6c-0.7,0.3-1.2,0.7-1.4,1.3c0,0,0,0-0.1,0.1c-1.4,0.8-2.7,1.6-4.1,2.4c-0.2,0.1-0.6-0.1-1.3-0.6
				c-0.7-0.5-1.4-1.1-2.1-1.9c-2-1.9-3.2-3.8-3.5-5.6c0-0.1,0.1-0.1,0.2-0.2c0-0.1,0.1-0.2,0.1-0.3c0-0.3-0.3-1.2-1-2.5l0.5,0.4
				c2.1,3.8,3.6,6.3,4.6,7.4c0.5,0.5,0.9,0.8,1.2,0.9c0.3,0.1,0.6,0.1,0.9,0c0.1,0,0.3-0.1,0.3-0.1c0.2,0,0.3-0.2,0.3-0.4
				C36.6,69.1,36.4,68,35.8,66.3 M79.8,66.4l-0.5-0.1L56.6,53.4l0.4-1.2l0.5,0.1l0.5-0.3l0.5,0.3c0.2,0.1,0.4,0.2,0.6,0.4l19.6,10.6
				l6.5,3.5L79.8,66.4 M33.8,29c0.1-0.1,0.2-0.2,0.3-0.2c0.2-0.1,0.4-0.3,0.7-0.4c0.7-0.3,1.3-0.7,2.1-0.9c3.6-1.5,7.2-1.9,10.8-1.4
				c1.6,0.3,3.2,0.8,4.8,1.4c0.4,0.1,0.7,0.3,1.1,0.4c2.3,1.1,4.3,2.6,5.9,4.3c0,0.2-0.1,0.5-0.1,0.8c0,0.4,0.1,0.6,0.1,0.8
				c0,0.2-0.2,0.3-0.4,0.4c0,0-0.1,0-0.2,0.1c0.2,0.2,0.3,0.5,0.5,0.8c0.1,0,0.3-0.1,0.4-0.1c0.3-0.1,0.6-0.5,0.9-1.2
				c0,0,0,0,0.1-0.1c0.7,1,1.4,2.1,2,3.2c0.2,0.4,0.4,0.9,0.6,1.3c0.1,0.2,0.1,0.4,0.2,0.5c-0.3,0.4-0.8,1-1.3,1.6
				c-0.4,0.4-0.7,0.7-0.9,1c0.1,0.4,0.1,0.9,0.1,1.3c0.1-0.1,0.3-0.2,0.5-0.3c0.4-0.3,0.7-0.5,0.9-0.6c0.3-0.1,0.6-0.2,0.9-0.3
				c0.2,0,0.4,0,0.5,0c0.6,2.7,0.6,5.4,0,8.1c-0.5,0.1-0.9,0.1-1.2,0c-0.3-0.2-0.5-0.5-0.7-1c-0.1-0.2-0.1-0.5,0-0.9
				c0.1-0.5,0.1-0.8,0-0.9c-0.1-0.4-0.4-0.7-0.9-0.8c-0.1,0.9-0.2,1.9-0.4,2.8l0,0.1c0,0.5,0,0.8,0.1,1.1c0.2,0.4,0.8,0.9,1.9,1.4
				c0.3,0.2,0.5,0.3,0.7,0.4c-0.1,0.5-0.3,1-0.5,1.4c0,0,0,0,0,0.1c0,0-0.1,0-0.1,0c-1-0.5-2-1-3-1.4c-0.9-0.5-1.8-0.9-2.8-1.3
				c-0.1,0.1-0.3,0.2-0.4,0.3c0,0.2-0.2,0.5-0.3,0.9c-0.1,0.2-0.3,0.6-0.5,1.1c-0.2,0.4-0.3,0.6-0.3,0.7c0.2,0.4,0.4,0.7,0.5,0.7
				c0,0,0.1,0,0.2,0c0,0,0.1,0.1,0.1,0.2c0.1,0.1,0.1,0.2,0.1,0.2l0,0l0,0.1c0,0,0,0-0.1,0.1l1.1,0.5l0.4,0.3l3,1.7
				c-0.2,0.3-0.4,0.5-0.7,0.8c-0.3,0.1-0.6,0.2-0.9,0.2c-0.8,0.1-1.4-0.1-1.6-0.7c-0.1-0.2-0.2-0.7-0.3-1.4
				c-0.3,0.4-0.6,0.7-0.9,1.1c0.4,0.7,0.9,1.3,1.5,1.9c0.2,0.3,0.4,0.5,0.7,0.7c-0.9,0.9-1.9,1.7-2.9,2.4c-0.3-0.2-0.7-0.3-1.1-0.3
				c-0.4,0-1.1,0.1-2,0.3c-0.8,0.2-1.4,0.3-1.8,0.2c-0.3-0.1-0.6-0.3-0.9-0.5c-0.1,0-0.2,0.1-0.4,0.2h0c-0.3,0.1-0.6,0.2-0.8,0.4
				c0.1,0.2,0.3,0.4,0.4,0.6c0.3,0.5,0.7,0.8,1.4,0.9c0.2,0,0.7,0,1.5,0c0.1,0,0.3,0,0.4,0c0.1,0,0.2,0,0.3,0
				c-0.1,0-0.3,0.1-0.4,0.2c-0.1,0-0.3,0.1-0.5,0.2c-2.3,0.9-4.6,1.4-6.8,1.5c0,0,0-0.1,0-0.2c0.1-0.2,0-0.6-0.2-1.1
				c-0.1-0.2-0.4-0.6-0.9-1c0,0-0.1-0.1-0.1-0.1c-0.3,0-0.7,0-1,0c0.2,0.7-0.1,1.5-1,2.2v0c-1.7-0.2-3.4-0.7-5.1-1.3h-0.1v0
				c0.2-0.5,0.7-1,1.4-1.5c-0.2-0.1-0.4-0.2-0.5-0.2c-0.1,0-0.2,0.1-0.3,0.1c-0.7,0.3-1.1,0.7-1.2,1.4c-5-2.1-8.5-5.7-10.5-10.6
				c-0.3-0.6-0.5-1.3-0.7-1.9c-0.5-1.4-0.7-2.9-0.8-4.3c-0.1-1.4,0-2.9,0.2-4.3c0.2-1.2,0.5-2.3,0.9-3.4c0,0,0-0.1,0-0.1
				c0.1-0.3,0.3-0.7,0.4-1c0-0.1,0-0.2,0.1-0.3l0.1-0.1c0.1-0.2,0.1-0.4,0.2-0.5c0.7-1.4,1.5-2.7,2.4-3.8c0.1-0.1,0.2-0.2,0.2-0.3
				C29.9,31.7,31.7,30.2,33.8,29 M33.2,36.4c0,0-0.1,0-0.1,0.1c-0.2,0.1-0.5,0.2-0.8,0.3c0,0-0.1,0.1-0.1,0.1
				c-0.3,0.2-0.7,0.4-0.9,0.6c-0.3,0.3-0.6,0.5-0.8,0.8c-0.3,0.4-0.7,0.9-1,1.3c0,0.1-0.1,0.2-0.1,0.3c-0.2,0.3-0.4,0.7-0.6,1.1
				c-0.2,0.5-0.3,1.1-0.4,1.6c-0.1,0.5-0.2,1-0.1,1.5c0,0.3,0,0.6,0.1,0.9c0,0.2,0,0.4,0.1,0.6c0,0.2,0.1,0.4,0.1,0.6l0,0
				c0,0.1,0,0.2,0,0.3c0.1,0.2,0.1,0.3,0.2,0.5c0.1,0.2,0.2,0.3,0.3,0.5c0.3,0.7,0.8,1.3,1.4,1.7c0.4,0.3,0.9,0.6,1.4,0.8
				c0,0,0,0,0.1,0c0.2,0.1,0.4,0.1,0.6,0.2c0.3,0.1,0.5,0.1,0.7,0.1c0.2,0,0.5,0,0.8,0c0.3,0,0.6,0,0.9-0.1c0.1,0,0.3,0,0.4-0.1
				c0.5-0.1,0.9-0.3,1.4-0.5c0.4-0.2,0.8-0.5,1.1-0.8c0.1-0.1,0.3-0.2,0.4-0.3c0.4-0.3,0.7-0.7,1-1.2c0.1-0.2,0.3-0.5,0.4-0.7
				c0.1-0.2,0.2-0.3,0.3-0.4c-0.1,0.1-0.2,0.1-0.4,0.2c-0.1,0-0.2,0.1-0.3,0.1c-0.2,0.1-0.4,0.1-0.7,0.2c-0.4,0-0.9,0-1.3-0.1
				c-0.7-0.3-1.2-0.8-1.5-1.7c-0.1-0.2-0.1-0.4-0.1-0.7c-0.1-0.6,0-1.2,0.3-1.8c0.3-0.9,0.9-1.6,1.7-2c0.8-0.4,1.5-0.5,2.3-0.2
				c0.3,0.1,0.6,0.3,0.8,0.5c0,0,0.1,0.1,0.1,0.2c0-0.1,0-0.2,0-0.3c0-0.3-0.1-0.5-0.2-0.8c-0.1-0.2-0.1-0.4-0.2-0.5
				c-0.1-0.3-0.3-0.7-0.6-1c-0.4-0.6-0.9-1.1-1.5-1.5c-0.2-0.2-0.5-0.3-0.7-0.4c-0.1,0-0.2-0.1-0.3-0.1c-0.5-0.2-1-0.4-1.5-0.3
				c-0.3-0.1-0.6-0.1-0.8,0C34.3,36,33.8,36.2,33.2,36.4 M37.1,33.3c0.2,0,0.3,0,0.5,0c0.5,0.1,0.9,0.3,1.3,0.4
				c0.6,0.2,1.1,0.5,1.6,0.8c0.6,0.4,1.1,1,1.6,1.6c0.5,0.7,0.9,1.4,1.2,2.3c0,0.1,0.1,0.2,0.1,0.3c0,0.1,0.1,0.2,0.1,0.4
				c0.2-0.1,0.3-0.2,0.4-0.4c0.1,0,0.1-0.1,0.2-0.2c0.4-0.3,0.7-0.6,1.2-0.7c-0.9-2.8-2.7-4.6-5.2-5.6c-2.1-0.8-4.2-0.7-6.4,0.1h0
				c-0.5,0.2-0.9,0.4-1.4,0.7c-0.7,0.4-1.3,0.8-1.8,1.2c-0.1,0.1-0.2,0.2-0.3,0.3c-0.1,0-0.2,0.1-0.3,0.2c-0.7,0.6-1.2,1.3-1.8,2
				c-0.1,0.2-0.3,0.4-0.5,0.6c-0.4,0.7-0.8,1.5-1.1,2.4c0,0-0.1,0.1-0.1,0.1c-0.1,0.3-0.2,0.6-0.3,1c-0.4,1.1-0.6,2.1-0.7,3.2
				c0,0.1,0,0.1,0,0.2c0,0.1,0,0.2,0,0.3c0,0.8,0,1.6,0.1,2.5c0,0.1,0,0.2,0.1,0.3c0,0.2,0.1,0.4,0.1,0.5c0.1,0.2,0.2,0.5,0.3,0.8
				c1,2.8,2.7,4.8,5.2,5.8c2.4,0.9,4.9,0.8,7.4-0.5c0.2-0.1,0.4-0.2,0.5-0.3l0,0c0.2-0.1,0.4-0.2,0.5-0.3c1-0.7,1.9-1.4,2.7-2.3
				c0.2-0.3,0.5-0.5,0.7-0.8c0.7-1,1.4-2.2,1.9-3.4c0-0.1,0.1-0.3,0.1-0.4c-0.5-0.1-1-0.4-1.4-0.8c-0.1-0.1-0.1-0.2-0.2-0.3
				c0,0.2-0.1,0.4-0.1,0.6c-0.1,0.1-0.2,0.3-0.2,0.5c-0.1,0.2-0.2,0.5-0.3,0.8c-0.4,0.7-0.8,1.4-1.2,2.1c-0.3,0.3-0.5,0.6-0.8,0.9
				c-0.6,0.6-1.2,1.1-1.8,1.6c-0.3,0.2-0.6,0.4-0.9,0.6c-0.1,0-0.3,0.1-0.4,0.2c-0.2,0.1-0.4,0.2-0.6,0.3c-0.6,0.2-1.2,0.4-1.8,0.6
				c-0.4,0-0.9,0.1-1.3,0.1c-0.7,0-1.5-0.1-2.2-0.4c-0.2-0.1-0.3-0.1-0.4-0.2c0,0-0.1,0-0.2,0c-1.3-0.5-2.4-1.4-3.2-2.6
				c-0.2-0.2-0.3-0.5-0.5-0.7c-0.3-0.5-0.5-1.1-0.7-1.7c0-0.1-0.1-0.2-0.1-0.3c-0.1-0.3-0.2-0.5-0.2-0.8c-0.2-0.7-0.3-1.4-0.3-2
				c0,0,0-0.1,0-0.1c0-0.2,0.1-0.3,0-0.4c0-1,0.2-1.9,0.5-2.9c0.1-0.4,0.2-0.7,0.4-1.1c0-0.2,0.1-0.3,0.2-0.5
				c0.3-0.7,0.6-1.2,0.9-1.8c0.2-0.3,0.4-0.5,0.6-0.8c0.5-0.6,1-1.2,1.6-1.7c0.1-0.1,0.3-0.3,0.4-0.4c0.1,0,0.2-0.1,0.2-0.1
				c0.4-0.3,0.7-0.5,1.1-0.7c0.5-0.3,0.9-0.5,1.4-0.6c0.1-0.1,0.3-0.1,0.4-0.2C35,33.3,36.1,33.2,37.1,33.3 M-10.4,66.6
				c0,0,0.1,0.1,0.1,0.1C-10.3,66.6-10.3,66.6-10.4,66.6L-10.4,66.6z"/>
			<path class="st0" d="M60,51.7c0,0.1-0.1,0.1-0.1,0.2c1,0.4,2,0.9,3,1.4c0,0,0.1,0,0.1,0c0,0,0,0,0-0.1c0.2-0.5,0.4-0.9,0.5-1.4
				c-0.2-0.1-0.5-0.2-0.7-0.4c-1.1-0.5-1.7-1-1.9-1.4c-0.1-0.2-0.1-0.6-0.1-1.1C60.7,49.8,60.4,50.7,60,51.7L60,51.7 M41.7,65.9
				L41.7,65.9c0.9-0.8,1.2-1.5,1-2.3c-1.6,0-3.2-0.2-4.7-0.6c-0.7,0.5-1.1,1-1.4,1.5v0h0.1C38.3,65.2,40,65.7,41.7,65.9 M52.7,64.1
				c-0.1,0-0.2,0-0.3,0c-0.1,0-0.3,0-0.4,0c-0.8,0-1.3,0.1-1.5,0c-0.7-0.1-1.1-0.4-1.4-0.9c-0.1-0.2-0.3-0.4-0.4-0.6
				c-1.7,0.6-3.3,0.9-5,1c0,0,0.1,0,0.1,0.1c0.5,0.5,0.8,0.8,0.9,1c0.2,0.5,0.3,0.9,0.2,1.1c0,0.1,0,0.2,0,0.2
				c2.3-0.1,4.6-0.6,6.8-1.5c0.2-0.1,0.3-0.1,0.5-0.2C52.4,64.2,52.5,64.1,52.7,64.1 M57,60.5C57,60.5,57,60.5,57,60.5
				c0,0.1-0.1,0.1-0.2,0.2c-0.2-0.2-0.5-0.5-0.8-0.7c-0.7-0.3-1.4-0.4-2.1-0.2c-1.2,0.9-2.5,1.6-3.9,2.2c0.3,0.2,0.6,0.4,0.9,0.5
				c0.4,0,1,0,1.8-0.2c0.9-0.2,1.6-0.3,2-0.3c0.4,0,0.7,0.1,1.1,0.3c1.1-0.7,2-1.5,2.9-2.4c-0.2-0.2-0.4-0.4-0.7-0.7
				c-0.6-0.6-1.1-1.2-1.5-1.9c-0.5,0.6-1.1,1.2-1.7,1.7c0.2,0,0.5,0.1,0.7,0.1C56.3,59.3,56.8,59.8,57,60.5 M63.7,41.6
				c-0.3,0.1-0.6,0.2-0.9,0.3c-0.2,0.1-0.5,0.3-0.9,0.6c-0.2,0.1-0.3,0.2-0.5,0.3c0,0,0,0.1,0,0.1c0.2,0.1,0.4,0.2,0.6,0.4
				c0.3,0.3,0.5,0.6,0.5,0.8c0,0.3-0.2,0.6-0.7,0.8c-0.1,0-0.2,0.1-0.4,0.1c0,0.4,0,0.8-0.1,1.2c0.5,0.1,0.8,0.4,0.9,0.8
				c0.1,0.1,0.1,0.4,0,0.9c-0.1,0.4-0.1,0.7,0,0.9c0.2,0.5,0.4,0.8,0.7,1c0.3,0.1,0.7,0.1,1.2,0c0.6-2.7,0.6-5.4,0-8.1
				C64,41.6,63.8,41.6,63.7,41.6 M57.9,55.7c-0.1,0.2-0.3,0.4-0.4,0.6c0.1,0.7,0.2,1.2,0.3,1.4c0.2,0.6,0.8,0.8,1.6,0.7
				c0.3,0,0.6-0.1,0.9-0.2c0.2-0.3,0.4-0.5,0.7-0.8L57.9,55.7 M59.3,33.1c0-0.3,0-0.6,0.1-0.8c-1.6-1.8-3.6-3.2-5.9-4.3
				c2.2,1.7,4,3.9,5.4,6.4c0.1,0,0.2,0,0.2-0.1c0.2-0.1,0.3-0.2,0.4-0.4C59.4,33.7,59.3,33.5,59.3,33.1 M60.7,33.8
				C60.6,33.8,60.6,33.8,60.7,33.8c-0.4,0.7-0.7,1.1-1,1.2c-0.1,0.1-0.3,0.1-0.4,0.1c0.2,0.4,0.4,0.9,0.6,1.4
				c0.1,0.3,0.3,0.7,0.4,1.1c0.4,1.3,0.7,2.6,0.9,3.8c0.2-0.2,0.5-0.6,0.9-1c0.5-0.6,1-1.1,1.3-1.6c-0.1-0.2-0.1-0.4-0.2-0.5
				c-0.2-0.5-0.4-0.9-0.6-1.3C62,35.8,61.4,34.8,60.7,33.8 M24.8,51.7c0.2,0.6,0.4,1.3,0.7,1.9c2,4.9,5.5,8.5,10.5,10.6
				c0.1-0.6,0.5-1.1,1.2-1.4c0.1,0,0.2-0.1,0.3-0.1c-0.9-0.2-1.7-0.5-2.5-0.9C30.2,59.8,26.9,56.4,24.8,51.7z"/>
			<path class="st1" d="M43.7,59.9c-1,0.1-1.6,0.6-1.6,1.4c0,0.6,0.1,1.3,0.5,2.1c0,0.1,0,0.1,0.1,0.2c0.3,0,0.6,0,1,0
				c-0.5-0.4-0.8-0.7-0.9-1c-0.3-0.7-0.3-1.2-0.2-1.4c0-0.1,0.2-0.3,0.4-0.5C43.2,60.4,43.5,60.1,43.7,59.9L43.7,59.9 M56.3,54.9
				c0,0-0.2,0-0.4,0c0,0.6,0.1,1.1,0.2,1.4c0.1,0.3,0.3,0.7,0.5,1c0.3-0.4,0.6-0.7,0.9-1.1c0-0.3,0-0.6,0-0.9L56.3,54.9L56.3,54.9
				 M55.1,51.4c0,0.1,0.1,0.1,0.2,0.1c0.1-0.1,0.2-0.2,0.3-0.3C55.5,51.3,55.3,51.3,55.1,51.4 M57,47.3c1-0.2,1.8-0.3,2.2-0.3
				c0.8,0,1.4,0.3,1.6,0.8c0.1,0.2,0.1,0.6,0.1,1.1c0.2-0.9,0.4-1.8,0.4-2.8C61.1,46,60.7,46,60.2,46c-0.7,0-1.4,0.2-2.1,0.4
				c-0.1,0-0.5,0.3-1.1,0.7l0,0C57.1,47.2,57,47.3,57,47.3 M58.6,39.8c-0.6-0.2-1.1-0.4-1.6-0.5c-0.6,0-1.1,0.1-1.5,0.4
				c1.4,0.1,2.6,0.7,3.6,1.8c0.2,0.2,0.5,0.6,0.8,0.9c0.2,0,0.5,0,0.9,0.1c0.2,0,0.3,0.1,0.5,0.2l0,0c0-0.4-0.1-0.9-0.1-1.3
				c-0.3,0.3-0.5,0.6-0.5,0.7c-0.2,0-0.5-0.4-1.1-1.2C59.2,40.3,58.8,39.9,58.6,39.8 M59.3,35.2c-0.1-0.3-0.3-0.6-0.5-0.8
				c0,0-0.1,0-0.3-0.1c-0.4-0.1-0.7-0.1-0.8-0.1c-0.8-0.1-1.5-0.1-2,0.1l-0.7,0.3c0.3,0,1.1,0.1,2.4,0.4
				C58.2,35.2,58.8,35.2,59.3,35.2 M45.2,56.8L45,56.7c0.2,0.3,0.5,0.5,0.7,0.8c0.3,0.3,0.7,0.6,1,0.9c0.4,0.5,0.8,1,1.3,1.6
				c-0.6,0-1.3-0.2-1.9-0.6c-0.4-0.2-0.6-0.4-0.8-0.5c-0.3-0.2-0.6-0.4-0.8-0.5l0.1,0.3c0.1,0.3,0.5,0.7,1.1,1.2
				c0.6,0.6,1.1,1,1.4,1.2c0.5,0.1,0.8,0.3,1,0.6c0,0.1,0.2,0.4,0.5,0.8c0.3-0.1,0.5-0.2,0.8-0.4h0c0.2-0.1,0.3-0.1,0.4-0.2
				c-0.2-0.2-0.4-0.4-0.5-0.8c-0.5-1-1.1-1.9-1.8-2.8c-0.5-0.6-0.9-1.1-1.4-1.3C45.9,56.9,45.5,56.8,45.2,56.8z"/>
			<path class="st2" d="M61.4,42.8c0,0,0-0.1,0-0.1L61.4,42.8C61.3,42.8,61.4,42.8,61.4,42.8 M57.4,55.4c0,0.3,0,0.6,0,0.9
				c0.1-0.2,0.3-0.4,0.4-0.6L57.4,55.4 M52.3,27.5c-1.6-0.7-3.2-1.1-4.8-1.4c3.3,1.6,5.6,4.3,6.9,8.3c1.4,4.3,1.2,8.7-0.6,13.3
				c-0.1,0.1-0.1,0.3-0.1,0.4C52,52,49.6,55,46.3,57.2c0.4,0.3,0.9,0.7,1.4,1.3c0.7,0.9,1.3,1.8,1.8,2.8c0.1,0.3,0.3,0.6,0.5,0.8
				c1.5-0.6,2.8-1.3,3.9-2.2c0,0-0.1,0-0.2,0.1c-0.6,0.2-1.6-0.4-3-2c0-0.1-0.1-0.2-0.1-0.3v-0.1c0,0,0.2-0.1,0.3-0.2
				c0.2-0.1,0.4,0,0.7,0.2c0,0,0.3,0.2,0.6,0.7c0.6,0.7,1.2,0.9,1.9,0.7c0.3,0,0.5,0,0.7,0c0,0,0.1,0,0.1,0c0.6-0.5,1.1-1,1.7-1.7
				c-0.2-0.3-0.4-0.7-0.5-1c-0.1-0.3-0.2-0.8-0.2-1.4c-0.1,0-0.1,0-0.2-0.1c-0.3,0-0.5,0-0.6,0c0,0.6-0.2,1-0.6,1.2
				c-0.1,0-0.3,0.1-0.6,0.2c-0.3,0.1-0.5,0.2-0.6,0.3c0,0,0,0-0.1,0c-0.2,0.2-0.3,0.4-0.4,0.7c0.3,0.3,0.6,0.6,0.7,0.8
				c0,0,0,0.1-0.1,0.3l-0.1,0.2h-0.4c-0.1-0.2-0.3-0.4-0.4-0.6c-0.3-0.1-0.6-0.4-0.7-0.6l0,0c-0.4-0.3-0.7-0.7-0.8-1
				c0-0.1,0-0.1-0.1-0.2c-0.2-0.2-0.4-0.4-0.5-0.5c0-0.1-0.1-0.2,0-0.2c0,0,0-0.1,0-0.1l0.3-0.1c0.1,0,0.5,0.1,1.1,0.3
				c0.7,0.2,1.1,0.3,1.1,0.3l0.5-0.4c0.3-0.3,0.5-0.4,0.5-0.5c-0.2-0.5,0-1.2,0.7-2.2c0.2-0.3,0.5-0.6,0.7-1c-0.1,0-0.2-0.1-0.2-0.1
				c0.2-0.1,0.4-0.1,0.5-0.2c0.4-0.4,0.6-0.6,0.8-0.6c0.2-0.1,0.4,0,0.3,0.2c0.1-0.1,0.3-0.2,0.4-0.3c0.9,0.4,1.9,0.9,2.8,1.3
				c0-0.1,0.1-0.1,0.1-0.2h0c0.3-0.9,0.6-1.8,0.8-2.7l0-0.1c0-0.5,0-0.9-0.1-1.1c-0.2-0.5-0.7-0.7-1.6-0.8c-0.5,0-1.2,0.1-2.2,0.3
				c0,0,0.1-0.1,0.1-0.1l0,0c0.6-0.4,0.9-0.6,1.1-0.7c0.7-0.3,1.4-0.4,2.1-0.4c0.5,0,0.8,0,1.1,0.1c0.1-0.4,0.1-0.8,0.1-1.2
				c-0.5,0-1.1,0-1.8-0.1c-0.7-0.1-1.4-0.3-2-0.6c0-0.1,0-0.2,0-0.3c0-0.1,0.1-0.1,0.3-0.2c0.1,0,0.3-0.1,0.8-0.1
				c0.4,0,0.7,0,0.8,0.1h0.1c-0.2-0.5-0.2-0.8,0-0.9c0-0.1,0.2-0.2,0.3-0.3c0.1,0,0.1,0,0.2,0c-0.3-0.4-0.6-0.7-0.8-0.9
				c-1-1.1-2.2-1.7-3.6-1.8c0.4-0.3,0.9-0.5,1.5-0.4c0.4,0.1,0.9,0.2,1.6,0.5c0.2,0.1,0.6,0.5,1.1,1.2c0.5,0.7,0.9,1.1,1.1,1.2
				c0-0.1,0.2-0.4,0.5-0.7c-0.2-1.3-0.5-2.6-0.9-3.8c-0.1-0.4-0.3-0.7-0.4-1.1c-0.2-0.5-0.4-0.9-0.6-1.4c-0.5,0-1.1,0-1.8-0.1
				c-1.3-0.3-2.1-0.4-2.4-0.4l0.7-0.3c0.5-0.2,1.2-0.3,2-0.1c0.1,0,0.3,0,0.8,0.1c0.1,0,0.2,0.1,0.3,0.1c-1.4-2.6-3.2-4.7-5.4-6.4
				C53.1,27.7,52.7,27.6,52.3,27.5 M25.5,38.6c-0.1,0.3-0.3,0.7-0.4,1c0,0.1,0,0.1,0,0.1c-0.4,1.1-0.7,2.2-0.9,3.4
				c-0.2,1.4-0.3,2.8-0.2,4.3c0.1,1.5,0.3,2.9,0.8,4.3c2.1,4.7,5.5,8,10.1,10.1c0.8,0.4,1.7,0.7,2.5,0.9c0.1,0,0.3,0.1,0.5,0.2
				c1.6,0.4,3.2,0.6,4.7,0.6c0-0.1,0-0.1-0.1-0.2c-0.4-0.8-0.6-1.5-0.5-2.1c0.1-0.8,0.6-1.3,1.6-1.4l-0.1,0
				c-0.2,0.2-0.4,0.5-0.7,0.8c-0.2,0.2-0.4,0.4-0.4,0.5c-0.1,0.2,0,0.7,0.2,1.4c0.1,0.2,0.4,0.6,0.9,1c1.7-0.1,3.4-0.4,5-1
				c-0.3-0.4-0.4-0.7-0.5-0.8c-0.2-0.2-0.6-0.4-1-0.6c-0.4-0.2-0.8-0.6-1.4-1.2c-0.6-0.6-1-1-1.1-1.2l-0.1-0.3
				c0.2,0.1,0.5,0.3,0.8,0.5c0.2,0.1,0.4,0.3,0.8,0.5c0.7,0.4,1.3,0.6,1.9,0.6c-0.5-0.6-0.9-1.1-1.3-1.6c-0.3-0.3-0.7-0.6-1-0.9
				c-0.2,0.1-0.4,0.3-0.7,0.4c-0.2,0.1-0.5,0.3-0.8,0.4c-3,1.5-5.9,1.9-8.8,1.3c-0.7-0.2-1.4-0.4-2.2-0.7c-2.8-1.1-5.1-3-6.6-5.7
				c-0.5-0.9-0.9-1.8-1.2-2.9c-0.8-2.3-1.1-4.6-0.9-7c0-0.4,0-0.8,0.1-1.2C24.9,41,25.2,39.8,25.5,38.6 M39.4,60.8
				c0.6,0.3,1,0.7,1.4,1c0,0.1-0.2,0.3-0.4,0.5c-0.2,0.2-0.4,0.3-0.5,0.4c-0.4,0.2-0.8,0.1-1.2-0.2c-0.3-0.2-0.5-0.6-0.7-1
				c-0.1-0.1-0.2-0.2-0.2-0.3c-0.2-0.2-0.2-0.5-0.1-0.7l0.2-0.1C38.4,60.4,38.9,60.6,39.4,60.8z"/>
			<path class="st3" d="M50.6,57.5L50.6,57.5c0,0.1,0.1,0.2,0.1,0.4c1.4,1.5,2.4,2.2,3,2c0.1,0,0.2,0,0.2-0.1
				c0.7-0.2,1.4-0.2,2.1,0.2c0.4,0.2,0.6,0.4,0.8,0.7c0.1,0,0.2-0.1,0.2-0.1c0,0,0,0,0,0c-0.2-0.7-0.7-1.2-1.4-1.3
				c-0.2,0-0.4-0.1-0.7-0.1c-0.1,0-0.1,0-0.1,0c-0.2,0-0.4,0-0.7,0c-0.7,0.2-1.3,0-1.9-0.7c-0.4-0.5-0.6-0.7-0.6-0.7
				c-0.2-0.2-0.4-0.3-0.7-0.2C50.7,57.4,50.6,57.5,50.6,57.5 M50.7,54.9L50.4,55c0,0,0,0.1,0,0.1c0,0,0,0.1,0,0.2
				c0.1,0.2,0.2,0.4,0.5,0.5c0,0,0,0.1,0.1,0.2c0.1,0.3,0.4,0.6,0.8,1l0,0c0.1,0.3,0.3,0.5,0.7,0.6c0.2,0.2,0.3,0.4,0.4,0.6h0.4
				l0.1-0.2c0.1-0.1,0.1-0.2,0.1-0.3c-0.1-0.2-0.3-0.5-0.7-0.8c0.1-0.2,0.2-0.4,0.4-0.7c0,0,0,0,0.1,0c0.1-0.1,0.3-0.2,0.6-0.3
				c0.3-0.1,0.5-0.1,0.6-0.2c0.4-0.2,0.6-0.6,0.6-1.2c0.1,0,0.3,0,0.6,0c0.1,0,0.1,0.1,0.2,0.1c0.2,0,0.4,0,0.4,0h0
				c0.1,0,0.1,0,0.1-0.1l0-0.1l0,0c0,0,0-0.1-0.1-0.2c0-0.1-0.1-0.2-0.1-0.2c-0.1,0-0.2,0-0.2,0c-0.2,0-0.4-0.3-0.5-0.7
				c0-0.1,0.1-0.3,0.3-0.7c0.2-0.5,0.4-0.8,0.5-1.1c0.2-0.4,0.3-0.7,0.3-0.9c0-0.3-0.1-0.3-0.3-0.2c-0.1,0-0.4,0.3-0.8,0.6
				c-0.1,0.1-0.2,0.2-0.3,0.3c-0.3,0.3-0.5,0.7-0.7,1c-0.6,1-0.8,1.7-0.7,2.2c-0.1,0-0.3,0.2-0.5,0.5l-0.5,0.4c0,0-0.4-0.1-1.1-0.3
				C51.2,55,50.8,54.9,50.7,54.9 M57.6,44c0,0.1-0.1,0.2,0,0.3c0.6,0.2,1.3,0.4,2,0.6c0.7,0.1,1.3,0.2,1.8,0.1
				c0.2,0,0.3-0.1,0.4-0.1c0.5-0.2,0.7-0.4,0.7-0.8c0-0.3-0.2-0.5-0.5-0.8c-0.2-0.2-0.4-0.3-0.6-0.4c0,0-0.1,0-0.1-0.1
				c-0.1-0.1-0.3-0.2-0.5-0.2c-0.3-0.1-0.6-0.2-0.9-0.1c0,0-0.1,0-0.2,0c-0.2,0.1-0.3,0.2-0.3,0.3c-0.1,0.1-0.1,0.4,0,0.9h-0.1
				c-0.1,0-0.4-0.1-0.8-0.1c-0.4,0.1-0.7,0.1-0.8,0.1C57.7,43.8,57.6,43.9,57.6,44 M40.9,61.9c-0.4-0.4-0.9-0.7-1.4-1
				c-0.6-0.3-1-0.5-1.4-0.5l-0.2,0.1c-0.1,0.2-0.1,0.5,0.1,0.7c0,0.1,0.1,0.3,0.2,0.3c0.2,0.5,0.4,0.8,0.7,1
				c0.3,0.3,0.7,0.4,1.2,0.2c0.2-0.1,0.4-0.2,0.5-0.4C40.7,62.2,40.8,62,40.9,61.9 M81.2,65.1c-0.6,0.3-1,0.6-1.3,1.1
				c0,0-0.1,0.1-0.1,0.2l5.5,0.4l-6.5-3.5c0.3,0.3,0.6,0.6,1,0.9C80.3,64.6,80.8,64.9,81.2,65.1 M76.2,63.5l-0.5-1.3
				c-0.4-0.2-0.7-0.4-1.1-0.6c-0.3-0.3-0.6-0.4-0.8-0.5c-0.3-0.2-0.6-0.3-1-0.3c0.3,0.4,0.7,0.9,1.2,1.4c0.1,0.1,0.1,0.2,0.2,0.3
				c0.7,0.7,1.1,1.2,1.2,1.4L76.2,63.5 M36.2,66.5c-0.1-0.1-0.2-0.2-0.4-0.2c0.6,1.7,0.8,2.8,0.7,3.4c0,0.2-0.2,0.4-0.3,0.4
				c-0.1,0-0.2,0.1-0.3,0.1c-0.3,0.1-0.7,0.2-0.9,0c-0.3-0.1-0.7-0.4-1.2-0.9c-1-1.1-2.5-3.6-4.6-7.4l-0.5-0.4c0.7,1.4,1,2.2,1,2.5
				c0,0.1-0.1,0.2-0.1,0.3c-0.1,0.1-0.1,0.1-0.2,0.2c0.4,1.8,1.6,3.6,3.5,5.6c0.7,0.7,1.5,1.4,2.1,1.9c0.7,0.5,1.1,0.7,1.3,0.6
				c1.4-0.8,2.7-1.6,4.1-2.4c0,0,0.1,0,0.1-0.1c0.3-0.6,0.8-1,1.4-1.3c0.3-0.2,0.9-0.4,1.8-0.6c-1.2-0.1-2.4-0.3-3.6-0.5
				c0,0.1-0.1,0.3-0.2,0.5c-0.1,0.1-0.3,0.4-0.5,0.7c-0.3,0.3-0.5,0.6-0.6,0.7l-0.2-0.1c-0.1,0-0.3-0.2-0.4-0.4
				c-0.1-0.4,0-0.8,0.4-1.4c0-0.1,0.1-0.2,0.1-0.3C37.9,67.1,37,66.8,36.2,66.5 M45.5,70.7c0.8-0.3,1.8-0.9,3.1-1.8
				c0.8-0.6,1.5-1.1,2-1.6c-1.2,0.3-2.4,0.5-3.5,0.7c0,0.4-0.2,0.7-0.7,1c-0.2,0.1-0.6,0.2-1,0.4c-0.2,0.1-0.6,0.2-1.2,0.4
				c-1,0.3-1.7,0.7-2.1,1.2c-0.5,0.7-0.5,1.5,0,2.7c0.3,0.8,0.7,1.5,1.1,2.1c0.3,0,0.7,0.1,1.2,0.3c0.7,0.3,1.3,0.6,1.6,1l0.5,2
				c-0.1,1.4-1,2.8-2.4,4.1c-1.6,1.5-2.5,2.5-2.5,2.8c0,0.4,0.3,1.7,0.9,4c0.7,2.6,1.3,4.2,1.8,4.7c0.1,0,0.2,0,0.2-0.1
				c-0.2-0.2-0.4-0.8-0.8-1.7c-0.4-1-0.5-1.6-0.5-1.9c0-0.2,0.1-0.8,0.3-1.7c0.2-0.9,0.3-1.5,0.3-1.7c0-1.7,0.6-3.3,1.9-4.9
				c1.3-1.5,2-2.8,2.4-3.7c0.2-0.9,0.4-1.2,0.4-1.1l0-1.7c-0.1-0.1-0.4-0.3-0.8-0.5c-0.5-0.2-0.9-0.4-1.2-0.5c-1-0.4-1.7-0.9-2-1.4
				l-0.9-2.2c0-0.2,0-0.4,0-0.5c0.1-0.1,0.2-0.2,0.5-0.3c0.1-0.1,0.4-0.1,0.8-0.1C45,70.8,45.3,70.8,45.5,70.7 M18.3,29.5
				c0.1,0.2,0.2,0.4,0.3,0.7c0.1,0.3,0.5,0.7,1.2,1.2c0.5,0.4,1,0.7,1.5,1c0.2,0,0.3,0.1,0.5,0.4c0.2,0.2,0.4,0.5,0.6,0.8
				c0.4,0.7,0.7,1.1,1,1.3l0,0l2.2,1.2c0.3-0.7,0.7-1.3,1.1-2L18.3,29.5z"/>
			<path class="st4" d="M34.1,28.8c-0.1,0-0.2,0.1-0.3,0.2c-2.1,1.2-3.8,2.7-5.3,4.6c0,0.1-0.1,0.2-0.2,0.3
				c-0.9,1.2-1.7,2.5-2.4,3.8c-0.1,0.2-0.1,0.4-0.2,0.5l-0.1,0.1c0,0.1,0,0.2-0.1,0.3c-0.4,1.2-0.7,2.4-0.9,3.6
				c-0.1,0.4-0.1,0.8-0.1,1.2c-0.2,2.3,0.1,4.7,0.9,7c0.3,1.1,0.7,2.1,1.2,2.9c1.6,2.7,3.8,4.6,6.6,5.7c0.8,0.3,1.5,0.5,2.2,0.7
				c2.8,0.6,5.7,0.1,8.8-1.3c0.3-0.1,0.5-0.3,0.8-0.4c0.2-0.1,0.5-0.3,0.7-0.4c-0.2-0.3-0.5-0.5-0.7-0.8l0.1,0.1
				c0.3,0,0.7,0.1,1.1,0.4c3.3-2.1,5.8-5.2,7.4-9.1c0-0.1,0.1-0.3,0.1-0.4c1.8-4.6,2-9.1,0.6-13.3c-1.3-3.9-3.5-6.7-6.9-8.3
				c-3.5-0.5-7.1-0.1-10.8,1.4c-0.7,0.3-1.4,0.6-2.1,0.9C34.5,28.5,34.3,28.6,34.1,28.8 M33.6,32.4L33.6,32.4
				c2.2-0.8,4.3-0.9,6.4-0.1c2.5,1,4.2,2.8,5.2,5.6c-0.4,0.1-0.8,0.4-1.2,0.7c0,0.1-0.1,0.1-0.2,0.2c-0.1,0.1-0.2,0.2-0.4,0.4
				c-0.3,0.4-0.6,0.9-0.8,1.4c-0.1,0.2-0.1,0.4-0.1,0.7c-0.1,0.1-0.1,0.3-0.1,0.5c0,0,0,0.1,0,0.1c0,0.1,0,0.3,0,0.5
				c0,0.1,0,0.2,0,0.3c0,0.1,0,0.2,0,0.4c0,0.5,0.2,1,0.4,1.4c0.1,0.2,0.2,0.3,0.3,0.5c0.1,0.1,0.2,0.2,0.3,0.3
				c0.1,0.1,0.1,0.2,0.2,0.3c0.4,0.4,0.9,0.7,1.4,0.8c-0.1,0.1-0.1,0.3-0.1,0.4c-0.5,1.3-1.2,2.4-1.9,3.4c-0.2,0.2-0.4,0.5-0.7,0.8
				c-0.7,0.9-1.6,1.6-2.7,2.3c-0.2,0.1-0.4,0.2-0.5,0.3l0,0c-0.2,0.1-0.4,0.2-0.5,0.3c-2.5,1.2-4.9,1.4-7.4,0.5
				c-2.5-1-4.2-2.9-5.2-5.8c-0.1-0.3-0.2-0.6-0.3-0.8c0-0.1-0.1-0.3-0.1-0.5c0-0.1,0-0.2-0.1-0.3c-0.1-0.8-0.2-1.6-0.1-2.5
				c0-0.1,0-0.2,0-0.3c0-0.1,0-0.1,0-0.2c0.1-1.1,0.3-2.1,0.7-3.2c0.1-0.3,0.2-0.7,0.3-1c0,0,0.1-0.1,0.1-0.1
				c0.3-0.9,0.7-1.7,1.1-2.4c0.2-0.2,0.3-0.4,0.5-0.6c0.5-0.7,1.1-1.4,1.8-2c0.1-0.1,0.2-0.1,0.3-0.2c0.1-0.1,0.2-0.2,0.3-0.3
				c0.6-0.4,1.2-0.8,1.8-1.2C32.7,32.8,33.2,32.6,33.6,32.4 M41.4,42.8c0-0.3,0-0.6-0.1-0.9c-0.1-0.4-0.3-0.7-0.6-1
				c0-0.1-0.1-0.1-0.1-0.2c-0.2-0.2-0.5-0.4-0.8-0.5C39,40,38.2,40,37.4,40.4c-0.8,0.5-1.3,1.1-1.7,2c-0.3,0.6-0.4,1.2-0.3,1.8
				c0,0.3,0,0.5,0.1,0.7c0.3,0.8,0.8,1.4,1.5,1.7c0.4,0.1,0.9,0.2,1.3,0.1c0.2-0.1,0.4-0.1,0.7-0.2c0.1,0,0.2-0.1,0.3-0.1
				c0.1-0.1,0.2-0.1,0.4-0.2c0.6-0.4,1-1,1.3-1.7c0.2-0.5,0.3-0.9,0.3-1.4C41.4,43,41.4,42.9,41.4,42.8 M38.2,46.5L38.2,46.5
				c0,0-0.1,0-0.1,0L38.2,46.5z"/>
			<path class="st5" d="M38.1,49.5l0.9,2.2c0.7-0.5,1.3-1,1.8-1.6c-0.8-0.4-1.7-1-2.7-1.6c-0.1,0.1-0.3,0.2-0.4,0.3
				c0,0.1,0,0.2,0.1,0.3C37.9,49.3,38.1,49.4,38.1,49.5 M33.1,50.8c0-0.1,0-0.3,0-0.5c-0.2,0-0.4,0-0.7-0.1
				c-0.1,0.8-0.2,1.3-0.2,1.4c-0.1,0.6-0.3,1-0.5,1.4c0.7,0.2,1.5,0.3,2.2,0.4c-0.2-0.3-0.4-0.7-0.5-1.2
				C33.2,51.8,33.1,51.3,33.1,50.8 M35.2,50.2c-0.1,0.1-0.3,0.1-0.4,0.1c0,0.3,0.1,0.6,0.1,0.9c0,0.1,0,0.2,0,0.2
				c0.1,0.8,0.2,1.4,0.3,1.9c0.6-0.1,1.2-0.3,1.8-0.6c0.2-0.1,0.4-0.2,0.6-0.3c-0.1-0.1-0.3-0.2-0.4-0.3
				C36.4,51.4,35.7,50.8,35.2,50.2 M39.5,46.6c-0.1,0.2-0.3,0.4-0.4,0.7c0.3,0.2,0.8,0.6,1.3,1c0.4,0.3,0.8,0.6,1.2,0.9
				c0.4-0.7,0.8-1.4,1.2-2.1l-0.6,0.2c-0.2,0-0.4-0.1-0.8-0.2c-0.5-0.2-0.9-0.3-1.2-0.4C40,46.8,39.8,46.7,39.5,46.6 M42.5,42.8
				c0,0-0.1,0-0.1,0c-0.1,0-0.4,0.1-1,0.3c0,0.4-0.1,0.9-0.3,1.4c0.1,0,0.1,0.1,0.2,0.1c0.9,0.6,1.6,1.1,2,1.3
				c0-0.2,0.1-0.4,0.1-0.6c-0.1-0.1-0.2-0.2-0.3-0.3c-0.1-0.1-0.2-0.3-0.3-0.5c-0.2-0.4-0.4-0.9-0.4-1.4
				C42.5,43,42.4,42.9,42.5,42.8 M30.1,49.4c-0.6,0.3-1,0.6-1.3,0.7c-0.1,0.1-0.4,0.2-0.8,0.3c0.8,1.2,1.9,2,3.2,2.6
				c0.2-0.6,0.3-1.2,0.5-1.8c0-0.4,0.1-0.7,0.2-1c0,0,0,0-0.1,0c-0.5-0.2-1-0.4-1.4-0.8C30.3,49.3,30.2,49.3,30.1,49.4 M26.7,47.6
				c0,0.1,0.1,0.2,0.1,0.3c0.1,0.6,0.4,1.2,0.7,1.7c0.2-0.3,0.4-0.6,0.7-1c0.3-0.4,0.5-0.8,0.7-1.1c-0.1-0.2-0.2-0.3-0.3-0.5
				C28.2,47.2,27.6,47.3,26.7,47.6 M26.4,44.8c0,0-0.1,0-0.2,0c0,0.7,0.1,1.3,0.3,2l0,0c0.1-0.1,0.2-0.2,0.4-0.3
				c0.4-0.2,0.7-0.4,0.9-0.6c0.1-0.1,0.2-0.1,0.3-0.2c0-0.2,0-0.4-0.1-0.6c-0.4-0.1-0.8-0.2-1.4-0.3C26.6,44.8,26.5,44.8,26.4,44.8
				 M27.8,44.2c0.1,0,0.2,0,0.3,0c0-0.5,0-1,0.1-1.5c-0.1-0.1-0.3-0.3-0.4-0.4c-0.4-0.3-0.7-0.6-1-0.8c-0.3,0.9-0.5,1.9-0.5,2.9
				C26.6,44.2,27.1,44.2,27.8,44.2 M28.3,38c-0.3,0.5-0.6,1.1-0.9,1.8c0.7,0.1,1.1,0.2,1.4,0.3l0.5-0.1c0-0.1,0.1-0.2,0.1-0.3
				c-0.1-0.3-0.4-0.7-0.8-1.2C28.5,38.3,28.4,38.1,28.3,38 M43.3,38.4c-0.6,0.2-1,0.4-1.1,0.5c-0.7,0.3-1.4,0.4-1.9,0.5
				c0,0.2,0.1,0.4,0.2,0.5c0.1,0.2,0.2,0.5,0.2,0.8c0.2,0,0.4,0,0.7,0c0.6-0.1,1.1-0.1,1.4-0.1c0.2-0.5,0.4-1,0.8-1.4
				c0-0.1-0.1-0.2-0.1-0.4C43.4,38.6,43.3,38.5,43.3,38.4 M31.2,37.5c0,0-0.1-0.1-0.1-0.2c-0.2-0.6-0.4-1.2-0.6-1.7
				c-0.6,0.5-1.1,1-1.6,1.7c0.1,0.1,0.3,0.2,0.5,0.3c0.4,0.3,0.8,0.5,1.1,0.7C30.6,38,30.9,37.7,31.2,37.5 M31.1,35.1
				c0.1,0.1,0.1,0.2,0.2,0.3c0,0,0,0,0,0.1c0.2,0.4,0.5,0.9,0.8,1.4c0,0,0.1-0.1,0.1-0.1c0.3-0.1,0.5-0.2,0.8-0.3
				c0.1,0,0.1,0,0.1-0.1c0.1-0.4,0.1-0.7,0.1-1.1c0.1-0.6,0.1-1,0.2-1.4c-0.5,0.1-0.9,0.4-1.4,0.6C31.8,34.6,31.5,34.8,31.1,35.1
				 M36.1,35.1c0.4-0.7,0.7-1.3,0.9-1.8c-1-0.1-2.1,0-3.2,0.3c0,0.1,0.1,0.1,0.1,0.2c0.4,1,0.6,1.6,0.7,1.8l0.1,0.4
				c0.2,0,0.5,0,0.8,0C35.8,35.7,36,35.4,36.1,35.1 M37.6,33.3c0,0.4,0,0.9-0.1,1.4c0,0.7,0,1.2,0,1.7c0.3,0.1,0.5,0.3,0.7,0.4
				c1-1.1,1.8-1.8,2.3-2.3c-0.5-0.3-1-0.6-1.6-0.8C38.5,33.6,38,33.5,37.6,33.3z"/>
			<path class="st6" d="M32.4,50.3c-0.2,0-0.4-0.1-0.6-0.2c-0.1,0.3-0.1,0.6-0.2,1c-0.1,0.7-0.3,1.3-0.5,1.8c0.1,0,0.1,0,0.2,0
				c0.1,0,0.2,0.1,0.4,0.2c0.2-0.4,0.3-0.9,0.5-1.4C32.2,51.6,32.3,51.1,32.4,50.3 M37.3,52.2c0.1,0.1,0.3,0.2,0.4,0.3
				c0.1-0.1,0.3-0.1,0.4-0.2c0.3-0.2,0.6-0.4,0.9-0.6l-0.9-2.2c-0.1-0.1-0.2-0.3-0.4-0.5c0-0.1,0-0.2-0.1-0.3
				c-0.3,0.3-0.7,0.6-1.1,0.8c-0.5,0.2-0.9,0.4-1.4,0.5C35.7,50.8,36.4,51.4,37.3,52.2 M35.3,53.3c0-0.5-0.1-1.1-0.3-1.9
				c0,0,0-0.1,0-0.2c-0.1-0.3-0.1-0.7-0.1-0.9c-0.3,0.1-0.6,0.1-0.9,0.1c-0.3,0-0.6,0-0.8,0c0,0.2,0,0.4,0,0.5
				c0,0.5,0.1,0.9,0.3,1.4c0.2,0.5,0.4,0.9,0.5,1.2C34.4,53.4,34.9,53.4,35.3,53.3 M39.1,47.3c-0.3,0.5-0.7,0.9-1,1.2
				c1,0.7,1.9,1.2,2.7,1.6c0.3-0.3,0.5-0.6,0.8-0.9c-0.4-0.3-0.7-0.6-1.2-0.9C39.9,47.9,39.4,47.6,39.1,47.3 M41.3,44.6
				c0,0-0.1-0.1-0.2-0.1c-0.3,0.7-0.8,1.3-1.3,1.7c-0.1,0.1-0.2,0.3-0.3,0.4c0.2,0,0.4,0.1,0.7,0.2c0.3,0.1,0.7,0.2,1.2,0.4
				c0.4,0.1,0.6,0.2,0.8,0.2l0.6-0.2c0.1-0.3,0.2-0.5,0.3-0.8c0-0.2,0.1-0.3,0.2-0.5C42.9,45.7,42.3,45.2,41.3,44.6 M42.4,42.8
				c0,0,0.1,0,0.1,0c0-0.1,0-0.2,0-0.3c0-0.2,0-0.4,0-0.5c0,0,0-0.1,0-0.1c0-0.2,0.1-0.4,0.1-0.5c0-0.2,0.1-0.5,0.1-0.7
				c-0.4,0-0.9,0-1.4,0.1c-0.2,0-0.5,0-0.7,0c0,0.1,0,0.2,0,0.3c0.2,0.3,0.4,0.6,0.6,1c0.1,0.3,0.2,0.6,0.1,0.9c0,0.1,0,0.2,0,0.3
				C42,42.9,42.3,42.8,42.4,42.8 M28.9,47.5c-0.2,0.3-0.4,0.7-0.7,1.1c-0.3,0.4-0.5,0.7-0.7,1c0.1,0.3,0.3,0.5,0.5,0.7
				c0.4-0.1,0.7-0.2,0.8-0.3c0.3-0.1,0.8-0.4,1.3-0.7c0.1,0,0.1-0.1,0.2-0.1C29.7,48.8,29.2,48.2,28.9,47.5 M26.5,46.8
				c0,0.2,0.1,0.5,0.2,0.8c0.9-0.2,1.5-0.4,2-0.5c-0.1-0.2-0.1-0.3-0.2-0.5c0-0.1,0-0.2,0-0.3l0,0c-0.1-0.2-0.1-0.4-0.1-0.6
				c-0.1,0.1-0.2,0.1-0.3,0.2c-0.3,0.2-0.6,0.4-0.9,0.6C26.8,46.6,26.6,46.7,26.5,46.8L26.5,46.8 M28.1,44.1c-0.1,0-0.2,0-0.3,0
				c-0.7,0-1.2,0-1.6,0.1c0,0.1,0,0.3,0,0.4c0,0,0,0.1,0,0.1c0.1,0,0.2,0,0.2,0c0.1,0,0.2,0,0.3,0.1c0.6,0.1,1,0.2,1.4,0.3
				C28.1,44.8,28.1,44.5,28.1,44.1 M28.6,41c0.2-0.4,0.4-0.7,0.6-1.1l-0.5,0.1c-0.3-0.1-0.8-0.2-1.4-0.3c-0.1,0.2-0.2,0.3-0.2,0.5
				c-0.2,0.4-0.3,0.7-0.4,1.1c0.3,0.3,0.6,0.5,1,0.8c0.2,0.1,0.3,0.3,0.4,0.4C28.3,42.1,28.5,41.5,28.6,41 M28.3,38
				c0.1,0.1,0.3,0.2,0.3,0.4c0.4,0.5,0.6,0.9,0.8,1.2c0.3-0.5,0.7-0.9,1-1.3c-0.3-0.2-0.6-0.4-1.1-0.7c-0.2-0.1-0.3-0.3-0.5-0.3
				C28.6,37.5,28.4,37.7,28.3,38 M38.2,36.9c0.6,0.4,1.1,0.9,1.5,1.5c0.2,0.3,0.4,0.7,0.6,1c0.5,0,1.1-0.2,1.9-0.5
				c0.1-0.1,0.5-0.2,1.1-0.5c-0.3-0.9-0.7-1.6-1.2-2.3c-0.5-0.6-1-1.1-1.6-1.6C40,35,39.2,35.8,38.2,36.9 M33.9,33.6
				c-0.1,0-0.3,0.1-0.4,0.2c0,0.4-0.1,0.9-0.2,1.4c0,0.4-0.1,0.8-0.1,1.1c0.6-0.2,1.1-0.4,1.6-0.4l-0.1-0.4
				c-0.1-0.2-0.3-0.8-0.7-1.8C34,33.8,34,33.7,33.9,33.6 M31.1,35.1c0,0-0.1,0.1-0.2,0.1c-0.1,0.1-0.3,0.3-0.4,0.4
				c0.2,0.5,0.4,1.1,0.6,1.7c0,0.1,0.1,0.2,0.1,0.2c0.3-0.2,0.6-0.4,0.9-0.6c-0.3-0.5-0.6-1-0.8-1.4c0,0,0,0,0-0.1
				C31.2,35.3,31.2,35.2,31.1,35.1 M37.6,33.3c-0.2,0-0.3,0-0.5,0c-0.3,0.5-0.6,1.1-0.9,1.8c-0.2,0.3-0.3,0.6-0.5,0.9
				c0.5,0,1,0.1,1.5,0.3c0.1,0,0.2,0,0.3,0.1c0-0.4,0-1,0-1.7C37.5,34.2,37.6,33.7,37.6,33.3z"/>
			<path class="st7" d="M79.9,66.2c0.3-0.5,0.7-0.8,1.3-1.1c-0.4-0.1-0.9-0.4-1.4-0.9c-0.4-0.3-0.7-0.6-1-0.9L59.2,52.6
				c-0.2-0.1-0.4-0.2-0.6-0.4L58.1,52l-0.5,0.3l-0.5-0.1l-0.4,1.2l22.6,12.9l0.5,0.1C79.8,66.3,79.9,66.2,79.9,66.2 M75.7,62.2
				l0.5,1.3l-0.7,0.3c-0.1-0.2-0.5-0.7-1.2-1.4c-0.1,0-0.1-0.1-0.2-0.3c-0.5-0.5-0.9-1-1.2-1.4c0.4,0,0.7,0.1,1,0.3
				c0.2,0.1,0.4,0.3,0.8,0.5C75,61.8,75.3,62,75.7,62.2 M7.9,23.9c-1.3,0.2-1.6,0.8-1.1,2l16.4,9l0,0c-0.3-0.2-0.6-0.6-1-1.3
				c-0.2-0.3-0.4-0.6-0.6-0.8c-0.2-0.2-0.3-0.3-0.5-0.4c-0.5-0.3-1-0.6-1.5-1c-0.6-0.5-1-0.9-1.2-1.2c-0.1-0.3-0.2-0.5-0.3-0.7
				L7.9,23.9z"/>
		</g>
	</g>
</g>
</svg>
