<?xml version="1.0" encoding="utf-8"?>
<!-- Generator: Adobe Illustrator 23.0.3, SVG Export Plug-In . SVG Version: 6.00 Build 0)  -->
<svg version="1.1" id="Layer_1" xmlns="http://www.w3.org/2000/svg" xmlns:xlink="http://www.w3.org/1999/xlink" x="0px" y="0px"
	 viewBox="0 0 321 321" style="enable-background:new 0 0 321 321;" xml:space="preserve">
<style type="text/css">
	.st0{fill:#FFFFFF;}
	.st1{clip-path:url(#SVGID_2_);}
	.st2{clip-path:url(#SVGID_4_);}
	.st3{display:none;opacity:0.3;fill:#FFFFFF;stroke:#000000;stroke-miterlimit:10;}
</style>
<g>
	<circle class="st0" cx="161" cy="161" r="156"/>
	<path d="M317,161h-2c0,42.5-17.2,81-45.1,108.9C242,297.8,203.5,315,161,315c-42.5,0-81-17.2-108.9-45.1C24.2,242,7,203.5,7,161
		c0-42.5,17.2-81,45.1-108.9C80,24.2,118.5,7,161,7c42.5,0,81,17.2,108.9,45.1C297.8,80,315,118.5,315,161H317h2
		C319,73.7,248.3,3,161,3C73.7,3,3,73.7,3,161c0,87.3,70.7,158,158,158c87.3,0,158-70.7,158-158H317z"/>
	<g>
		<defs>
			<path id="SVGID_1_" d="M-20.5,103.8c-4.4,4.3-10.3,6.3-15.9,8.2c-6.3,2.1-12.6,4.2-18.9,6.3c-4.3,1.4-8.6,2.9-13,3.5
				c-6.7,0.9-13.5-0.1-20.3,0c-13.1,0.3-26,5.4-36.4,14.2c-7.7,6.5-14.3,17.1-11.3,27.2c3.1,10.4,15.2,14.6,24.9,12.2
				c9.7-2.4,17.8-9.5,26.1-15.6c8.3-6.1,18-11.5,27.8-9.8c2.5,5.3-3.1,11.4-2.4,17.4c0.6,4.6,4.9,7.6,9.1,8.5
				c4.2,0.9,8.5,0.4,12.7,1.3c11.3,2.5,18.2,14.7,23.8,25.7c3.5,6.9,7,13.9,10.5,20.8c4.6,9.1,9.4,18.8,8.9,29.2
				c-0.3,7.1-3,14.7,0.2,21c2.4,4.7,7.5,7,12.4,7.6c11.7,1.3,23.5-6,29.5-17s12.2-45.3,2.6-37.2C38.6,237,38.3,241.4,38.6,239
				c0.2-1.7,11.9,16.5,12.7,15c8.2-15,33.7,43,41.9,28c7.7,14.7,5.7-11.2,14.6-8c15.5,5.6,8.7-1.1,24.2-1c19,0.1,30.5-12.5,30-20
				c-0.5-7.1-29.4-12.1-33-18c-2.6-4.2-1-10.9-1-16c0-16.7-15.1-38.2-19.1-57c-0.6-2.9-0.8-6-0.1-8.9c0.8-3.2,0.7-1.1,3.1-3.1
				c8.8-7.1,23.7-8.3,33-2c2.4,1.6,5.2-0.3,8-0.6c-0.4-12.9-0.7-25.8-1.1-38.7c-0.3-9.8-0.6-19.7-3.8-28.8
				c-3.3-9.1-10.1-17.3-18.8-18.9c-9.4-1.8-18.5,4.1-27.5,7.4c-10.9,4-22.5,4.4-33.9,4.8c-16.9,0.6-34.5-2.8-50.8,1.7
				c-6.6,1.8-14.6,5.7-29.1,6.3C-20.1,81.6-13.5,97.1-20.5,103.8z"/>
		</defs>
		<clipPath id="SVGID_2_">
			<use xlink:href="#SVGID_1_"  style="overflow:visible;"/>
		</clipPath>
		<path class="st1" d="M106.8,141.3c0,0,1.6-3,3.7-7.1c6.2,6.4,3.4,13.2,6.5,14.8c0.7,0.3,12.3,1.7,12.9,2c0-0.1,0.1-0.2,0.1-0.3
			c1.2-2.1,2.9-3.7,4.8-5l0.1-0.1c1.1-1-2.3-1.1-1-1.6c-2.4-3.5-2.3-9-3-12c-1.6-6.6-2.5-16.4-6-25.3c2.3-6.1,3.4-11.9,3.4-11.9
			S135,106,136,113c0.7,4.7,4,18,0,31c2.1-0.3,14.4-1.8,16.6-1.9c1.1-9.6-3.2-27.8-3.5-29.6c-0.5-2.4-11.8-24.3-11.8-24.3
			s1.5-14.8-4.9-14.9c-6.4,0-10.3,7.2-10.3,7.2s-2.3,4.7-5.2,11c-4.2-6.4-7.9-12.7-12-11.9c-4.9,1-9.8,3.6-9.8,3.6
			s-8.8,0.5-14.7,1.7c-5.9,1.2,5.1,3.2-4.3,2.9c-9.3-0.3-13.5,1.7-16.5,0.2c-2.9-1.5-2.9-1.5-2.9-1.5L53.6,85l-2,2.9l-2.5-2.5
			c0,0,0.5,4.6-2.9,6.6c-3.4,2-3.4,7-3.4,7S47.1,106,51,114c-1.3,0.3-4.9,1.7-5.3,1.9c-3.1,1.5-9.3,5.6-9.3,5.6s-0.3-3.5-6.1,2.5
			c-3.6,3.7,29.3,43.3,50.5,83.3C98,240,139,259,139,259s-36-22-54-54c-21.1-37.6-51.2-74.9-46-76l15-8c12.7,14-0.6-4.3,0,0
			c1,7.5,20.7,46.1,38.6,80.1C107.9,230.2,128,244,128,244s-18.2-15.1-32-46c-12.8-28.7-27-60.6-34-77c-3.4-9,2-2,5.8-3.1
			c8.2-2.4-3.7-1.4,2.4-1.2c-6.5,6.2-21.8,21.3-31.3,34.6c-12.3,17.4-11.7,12.4-11.7,22.8c0,4.9,22.7,19.8,37.4,42.9
			c18.5,29,83.2,52.8,87.4,51c-1.1,2.8-67.2-24.9-85-53.7c-9.3-15.1-21.5-25-24-28.3c-3.3-4.4-8.4-15.4-8.4-15.4s2.5,1,3.9-2.5
			c1.5-3.5,9.8-16.6,13.7-19.4c3.9-2.9,10.8-6.8,10.8-6.8s6.4-11.3,10.3-12.6c2.8-0.9,9.5-7.2,13.2-10.8c12.2,2.6,15.8,7.3,15.8,7.3
			c-2,5.4-3.1,8.5-4.4,10.8c-2,3.3-2.9,6.3-2.9,6.3s4.9,11,3.9,27.9c-1,16.9,0,21.8,1.5,25.8c1.5,4,21.6,26.5,21.6,26.5
			s-15.7-25-15.2-30C107.3,188,106.4,144.6,106.8,141.3z M117.7,120.7c2.1,4.7,4.1,9.7,6.3,14.7l-8.2-11.2
			C116.4,123,117.1,121.8,117.7,120.7z M85.1,99.1c0,0,1.7,2.1-2.7,2.9s-9.7,5-9.7,5s13.4,0.6-1.3,2.4c-9.8,1.2-2,1.1-13,2.6
			c-1.7-11.9-5.6-13.9-4-16l9.7,3c0,0-8.3,0.7,7.3-0.9c10.7-1.1,9.2-2.1,14.9-2.5C85.6,97.4,85.1,99.1,85.1,99.1z M96.9,100.9
			c-1.4-1.5-2.6-3.6-3.8-5.4c4.1,0.3,7.1,1.3,10.2,3.6c2.5,2,4.7,4.4,6.7,7.2c-1,2.2-1.9,4.4-2.8,6.4
			C104.7,109.7,99.1,103.3,96.9,100.9z"/>
	</g>
	<circle cx="159" cy="228" r="30"/>
	<path class="st0" d="M176.2,220c-1,0-1,2.4-1.2,3.6c-0.2,1.3-0.2,2.6-0.3,3.8c-0.1,1.1-0.1,2.3-0.2,3.4c-0.8-1.8-1.3-3.6-1.8-5.4
		c-0.1-0.3-0.2-0.5-0.3-0.8c-0.4-1-0.7-2-1.1-3c-0.2-0.5-0.2-1.3-0.8-1.4c-1.2-0.3-1.3,1.5-1.3,2.4c0,1.2-0.1,2.1-0.1,3.5
		c-0.2,3.4-0.5,6.8-0.4,10.3c0,0.4,0,0.5,0.3,0.8c0.1,0.1,0.7,0.1,0.7-0.1c0.9-3.7,0.9-5.2,1.4-8.1c0.3,0.3,0.4,0.6,0.5,0.9
		c0.8,2,1.6,3.9,2.4,5.9c0.3,0.7,0.6,1.7,1.6,1.5c1.3-0.2,1.1-2.4,1.1-3.7c0.1-2.2,0.2-4.3,0.3-6.5c0.1-1.9,0.1-3.8,0.2-5.7
		C177.2,220.5,177.1,220,176.2,220z M163.7,219.4c-1.2-0.2-1.7,0.1-1.7,1.3c-0.1,2.4-0.2,4.7-0.3,7.1c0,0.7,0,1.3,0,2
		c0,1.2,0,2.4,0,3.7c0,0.8-0.1,1.6-0.1,2.4c0,1.1,0.1,1.5,1.2,1.5c0.9,0,0.9-3.2,0.9-4.9c0.1-2,0-4,0-6c0-0.6,0.1-1.1,0.1-1.7
		C164.2,222.9,164.1,221.1,163.7,219.4z M155.2,234.7c-0.1,0.6-0.8,0.9-1.3,0.6c-0.6-0.3-0.7-0.7-0.7-1.6c-0.1-2.7-0.2-5.4-0.4-8.1
		c-0.1-1.1-0.5-2.7-0.1-3.1c0.4-0.4,0.8-0.4,1.3-0.5c0.4,0,0.7,0.3,0.7,0.7c0.2,3.7,0.4,7.3,0.6,11
		C155.3,234,155.2,234.4,155.2,234.7z M157.2,234.1c0-1.6-0.1-3.1-0.2-4.7c-0.2-2.9,0.4-6.6-0.7-8.8c-0.5-0.9-2.1-0.6-3.2-0.7
		c-1.4-0.1-2,0.4-2.1,1.8c-0.1,1.1,0,2.2,0,3.2c0,1.6,0,3.1,0,4.7c0,1.4-0.2,2.9-0.1,4.3c0.1,1.3,0.8,2.4,2,3.1
		c1.8,1.1,3.6,0.6,4.3-1.4C157.3,235.2,157.3,234.7,157.2,234.1z M146.6,235.6c-0.3-1-0.4-2-0.4-3l0-0.2c0-0.4-0.1-0.9-0.7-1.1
		l-0.1,0l-0.1,0.1c-1.2,1.4-1,3.1-0.7,4.5c-0.5,0.1-0.9,0.1-1.1-0.1c-0.1-0.1-0.2-0.2-0.2-0.4c-0.1-0.5-0.2-1.1-0.4-1.6
		c-0.2-0.8-0.4-1.6-0.4-2.4c0-0.6,0-1.2,0-1.7c0-0.3,0-0.6,0-0.9c0-0.5,0-1,0-1.6c0-0.6,0-1.3-0.1-1.9c0-0.2,0-0.5-0.1-0.7
		c0-0.4-0.1-0.8,0-1.2c0-0.4,0.3-0.8,0.5-1.2l0.1-0.2c0.2-0.3,0.4-0.3,0.7-0.2c0.5,3,0.5,3,1.4,3.4l0.1,0.1l0-0.1l0.1-0.3
		c0.1-0.2,0.1-0.4,0.2-0.6c0-0.3,0-0.6,0-1c0-0.3,0-0.6,0-0.9c0.1-0.9,0.1-1.6-0.3-1.9c-0.4-0.4-1.1-0.5-2.2-0.4
		c-0.3,0-0.7,0.1-1,0.2l-0.3,0.1c-0.1,0-0.3,0.2-0.3,0.3c-0.7,0.8-1,1.6-1.1,2.6c0,0.7,0,1.3,0,2c0,0.2,0,0.4,0,0.6c0,1,0.1,2,0.1,3
		c0,0.7,0,1.4,0,2.1c0,0.8,0.1,1.6,0.2,2.5c0.1,0.7,0.3,1.4,0.4,2.1l0,0.1c0.3,1.1,0.9,1.9,1.9,2.2c0.4,0.1,0.7,0.2,1.1,0.2
		c0.6,0,1.2-0.2,1.7-0.3C146.5,236.9,146.9,236.3,146.6,235.6z"/>
	<path d="M172.4,159.5c0.5-1.1,0.9-2.2,1.2-3.3l0.3,0c0.1,0.8,0.2,1.7,0.2,2.6c0,0.9,0,1.7-0.1,2.6c-0.1,0.9-0.2,1.9-0.4,2.8
		c-0.2,1-0.3,1.9-0.4,2.9c-0.1,0.5-0.1,1-0.1,1.5c0,0.5-0.1,1-0.1,1.5c-0.1,0.6-0.3,1-0.8,1.2c-0.5,0.2-1.1,0.3-1.7,0.3
		c-0.6,0-1.2,0-1.6,0c0.5-1.5,1-2.9,1.6-4.3c0.6-1.4,1-2.9,1.1-4.4C171.6,161.7,171.9,160.6,172.4,159.5z M158.8,185.5
		c0,0.9,0.1,1.8,0.4,2.7c0.3-0.3,0.5-0.7,0.6-1.1c0.1-0.4,0.3-0.8,0.5-1.1c0.5-0.8,1.1-1.5,1.7-2.2c0.7-0.7,1.3-1.4,1.9-2.1l0.2,0.1
		c-0.2,0.4-0.3,0.9-0.4,1.6c0,0.5-0.1,0.9,0,1.3c0,0.4,0.1,0.9,0.1,1.4c0.5-0.3,1-0.9,1.3-1.7c0.3-0.8,0.6-1.7,0.8-2.7
		c0.2-1,0.4-2,0.6-2.9c0.2-1,0.4-1.7,0.6-2.3l0.2,0.1c0,0.6,0,1.3,0,1.9c0,0.7,0,1.3,0.1,2l0.2,0.4c0.4-0.4,0.6-0.9,0.6-1.5
		c0-0.6,0.1-1.1,0.5-1.5l0.3,0c0.1,0,0.3-0.2,0.6-0.5c0.2-0.4,0.4-0.6,0.5-0.8l0.2,0.1l0.2,1.8l0.2,0.1c0.1-0.2,0.3-0.4,0.6-0.8
		c0.3-0.4,0.5-0.6,0.7-0.5l0.3,0l-0.5,4.6l0.2,0l0.6-0.6c0,0.5,0,1.3,0,2.2c0,0.9,0.1,1.8,0.2,2.7c0.1,0.9,0.3,1.5,0.6,2l0.3-0.3
		c0.3-0.8,0.5-1.6,0.7-2.4c0.2-0.8,0.4-1.6,0.6-2.4l0.8,1.7l0.3,0c0.2-0.7,0.3-1.4,0.4-2.1c0.1-0.7,0.2-1.4,0.3-2.1
		c0-0.4,0.2-0.7,0.5-0.9c0.3-0.2,0.5-0.5,0.5-0.9c0.1-0.9,0.2-1.8,0.2-2.7c0.1-0.9,0.2-1.8,0.2-2.7c0-0.5,0-0.9,0-1.4
		c-0.1-0.4-0.1-0.9,0-1.3c0-0.2,0.1-0.3,0.1-0.5c0.1-0.2,0.1-0.3,0.1-0.5c0.2-2.3,0.4-4.7,0.4-7.1c0-2.4,0.2-4.8,0.4-7.1
		c0.1-0.7,0.3-1.3,0.8-1.7c0.4-0.4,0.9-0.8,1.5-1.1c0.5-0.3,0.9-0.8,1.2-1.4c-0.3-0.1-0.5-0.1-0.6-0.2c-0.7-0.1-1.4-0.1-2.1,0
		c-0.7,0.1-1.4,0.1-2.1,0.1c-1.5,0.1-2.9,0.1-4.4,0c-1.5-0.1-2.9-0.1-4.3-0.2c-0.5,0-1.1-0.1-1.8-0.1c-0.7-0.1-1.3,0-1.7,0.1
		c-0.2,0.1-0.4,0.2-0.6,0.4c0,0.3,0.2,0.6,0.6,0.7c0.4,0.2,0.8,0.3,1.3,0.5c0.5,0.2,0.9,0.4,1.2,0.8c0.3,0.4,0.5,0.9,0.4,1.7
		c0,0.4-0.2,0.6-0.6,0.8c-0.6,1-1.1,2.2-1.5,3.5c-0.4,1.3-0.7,2.5-0.8,3.7c0,0.2,0,0.3,0,0.5c0,0.2,0,0.3,0,0.5
		c0,0.2-0.1,0.4-0.2,0.5c-0.6,0.6-1.1,1.5-1.5,2.6c-0.5,1.1-0.8,2.3-1.1,3.4c-0.3,1.2-0.5,2.2-0.6,3c0,0.2,0,0.3,0,0.4
		c0,0.1,0,0.2,0,0.4s-0.1,0.2-0.1,0.3c-0.1,0.1-0.1,0.2-0.2,0.3c-0.5,0.9-0.8,1.6-0.9,2.3c-0.1,0.7-0.3,1.3-0.5,1.8
		c-0.2,0.5-0.5,1-1,1.5c-0.5,0.5-1.3,0.9-2.5,1.4l0,0.2l1.8,0.7C158.8,183.6,158.8,184.6,158.8,185.5z"/>
	<path d="M138.9,185.2c0.6-0.1,1.3-0.2,1.9-0.3c0.6-0.1,1.3-0.2,1.9-0.3c0.8-0.1,1.5,0.1,2,0.5c0.6,0.4,1,1,1.2,1.7
		c0.1-0.2,0.2-0.5,0.4-1c0.2-0.4,0.3-0.9,0.5-1.3c0.2-0.4,0.4-0.6,0.7-0.6c0.4,0,0.9,0.2,1.6,0.6c0.7,0.4,1.2,0.7,1.6,0.9l0.3-0.2
		c0.5,0,1,0.2,1.4,0.5c0.5,0.4,0.9,0.8,1.3,1.3c0.4,0.5,0.7,0.8,1.1,1.1c0-0.4,0.1-1.1,0.1-2c0-0.9,0-1.7,0.1-2.6
		c0-0.8,0.2-1.4,0.4-1.7l0-0.2c0-0.4-0.1-0.8-0.2-1.2c-0.1-0.4-0.2-0.8-0.2-1.2c-0.1-0.5-0.1-1.2-0.2-1.9c0-0.8-0.1-1.5-0.3-2.3
		c-0.1-0.8-0.4-1.3-0.7-1.7c-0.7,0.5-1.1,1.2-1.2,1.8c-0.1,0.7-0.2,1.4-0.3,2c-0.1,0.7-0.3,1.3-0.7,1.9c-0.3,0.4-0.7,0.7-1.2,1
		c-0.5,0.2-1,0.4-1.4,0.7c-0.1-0.3-0.3-0.7-0.7-1.1c-0.4-0.5-0.7-0.8-0.9-1.1c0-0.1,0-0.2,0-0.4c0-0.1,0-0.2,0-0.4
		c0-0.3-0.1-0.6-0.2-1c-0.1-0.3-0.2-0.6-0.2-1c0-0.3,0-0.6,0.2-1c0-0.4,0-0.8-0.1-1.2c-0.1-0.4-0.1-0.8-0.1-1.2c0-0.4,0-0.7,0-1.2
		c0.1-0.4,0.2-0.8,0.4-1.1c0.7,0,1.3,0.2,1.8,0.7c0.5,0.4,0.8,1,1.1,1.6c0.3,0.6,0.6,1.2,0.9,1.7c0.4-0.7,0.6-1.4,0.5-2.3
		c0-0.4-0.1-0.7-0.2-1.1c-0.1-0.4-0.2-0.7-0.2-1.1c-0.1-1.1-0.1-2.3-0.1-3.4s0-2.3-0.1-3.4c0-0.3,0-0.5-0.1-0.8
		c0-0.3-0.1-0.5-0.3-0.7c-0.5,0.3-0.9,0.7-1,1.2c-0.2,0.5-0.4,1-0.5,1.5c-0.2,0.5-0.4,0.9-0.8,1.3c-0.3,0.4-0.9,0.6-1.7,0.6
		c-0.1-0.5-0.1-1-0.2-1.5c-0.1-0.5-0.1-1-0.1-1.6c-0.1-1.3-0.2-2.6-0.2-4c0-1.3,0-2.6,0.2-3.9l0.3-0.1c0.4,0,0.8,0.2,1,0.6
		c0.2,0.4,0.4,0.7,0.6,1c0.2-0.3,0.3-0.6,0.4-1c0.1-0.3,0.2-0.7,0.3-1l0.3,0c0.1,0.6,0.3,1.2,0.6,1.8c0.3,0.5,0.5,1.1,0.5,1.8
		c0,0.3,0.2,0.4,0.4,0.4c0.3,0,0.5-0.3,0.6-0.8c0.1-0.5,0.2-0.9,0.2-1.1l0.3,0c0,0.1,0,0.3,0,0.4c0,0.1,0,0.2,0,0.4
		c0.1,0.7,0.2,1.4,0.6,2c0.3,0.6,0.7,1.2,1.1,1.8c0.1-0.3,0.1-0.6,0.2-0.9c0-0.3,0.1-0.6,0.1-0.9c0.3-1.7,0.6-3.3,0.8-5
		c0.3-1.7,0.6-3.3,0.9-5c-1.3,0.1-2.7,0.3-4.5,0.5c-1.7,0.2-3.5,0.4-5.3,0.6c-1.9,0.2-3.6,0.5-5.2,0.8c-1.6,0.3-3,0.7-4.1,1.1
		c0,0.4,0.2,0.7,0.6,0.9c0.4,0.2,0.8,0.4,1.2,0.7c0.4,0.3,0.8,0.7,1,1.3c0.2,0.5,0.4,1,0.4,1.6c0.1,0.6,0.1,1.1,0.2,1.6l0.7,9.3
		c0,0.5,0,0.9,0,1.4c-0.1,0.5-0.1,0.9-0.1,1.4c-0.1,1.4-0.2,2.8-0.1,4.1c0.1,1.4,0.2,2.8,0.3,4.1c0.1,1.3,0.1,2.1,0,2.6
		c-0.1,0.5-0.2,0.9-0.5,1c-0.2,0.2-0.5,0.4-0.8,0.7c-0.3,0.3-0.6,0.9-1,1.7L138.9,185.2z"/>
	<path d="M116.5,156.5c0.4,0.2,0.9,0.5,1.3,0.7c0.5,0.2,0.7,0.5,0.8,0.9c0.4,1.4,0.6,2.9,0.7,4.5c0.1,1.5,0.3,3,0.4,4.5
		c0.1,1.3,0.3,2.7,0.4,4c0.1,1.4,0.2,2.7,0.4,4.1c0,0.4,0.2,0.8,0.3,1.2c0.2,0.4,0.3,0.8,0.4,1.2c0.1,0.9,0.2,1.7,0.3,2.6
		c0.1,0.9,0.2,1.7,0.4,2.6c0.1,0.3,0.2,0.5,0.3,0.7s0.2,0.5,0.3,0.7c0.2,0.9,0.4,1.8,0.6,2.6c0.2,0.9,0.4,1.7,0.6,2.6
		c0.2,0.6,0.3,1.3,0.4,1.9c0.1,0.6,0.2,1.3,0.5,1.9c0.4-0.7,0.7-1.6,0.8-2.4c0.2-0.9,0.4-1.7,0.6-2.5c0.2-0.8,0.5-1.5,0.8-2
		c0.2-0.3,0.3-0.5,0.2-0.8c0-0.4-0.2-0.7-0.4-0.9c-0.2-0.2-0.3-0.5-0.4-0.8c0-0.4,0-0.8,0.3-1.2c0.2-0.4,0.3-0.8,0.3-1.2
		c0-0.2,0-0.3-0.1-0.3c-0.2-0.1-0.3-0.3-0.3-0.5c-0.1-0.2-0.1-0.4-0.1-0.6c0-0.3,0-0.6,0.1-0.9c0.1-0.3,0.1-0.6,0.1-0.9
		c0.1-0.9,0-1.7-0.1-2.4s-0.1-1.6,0.3-2.4c0.3,0,0.7,0,1,0c0.3,0,0.6,0.2,0.8,0.5c0.4,0.5,0.8,1,1.1,1.6c0.3,0.6,0.6,1.2,1,1.7
		l0.2-0.2c0-0.3,0.1-0.6,0.2-1c0.1-0.4,0.1-0.7,0.1-1c0-0.3-0.1-0.6-0.2-0.9c-0.1-0.3-0.1-0.6-0.2-0.9c-0.1-0.5-0.1-0.9-0.1-1.3
		c0-0.4,0-0.9,0-1.3c-0.1-1.9-0.2-3.7-0.5-5.6c0-0.1-0.1-0.2-0.3-0.4c-0.4,0.3-0.7,0.7-0.9,1.2c-0.2,0.5-0.4,1-0.6,1.5
		c-0.2,0.5-0.4,0.9-0.8,1.3c-0.3,0.4-0.9,0.6-1.6,0.7c-0.2-1-0.4-2-0.5-3.1c-0.1-1-0.2-2.1-0.2-3.1c0-1,0.1-2.1,0.3-3l1.1,0.3
		c0.1-0.3,0.3-0.7,0.6-0.9c0.3-0.3,0.7-0.4,1-0.5c0.1,0,0.3,0,0.4,0c0.1,0,0.3,0,0.4,0c0.2,0,0.4-0.1,0.6-0.2
		c0.2-0.1,0.4-0.2,0.6-0.2c0.2,0,0.3,0,0.5,0.1c0.2,0.1,0.3,0.2,0.4,0.3c0.1,0.1,0.2,0.1,0.4,0.2c0.1,0.1,0.2,0.2,0.2,0.2
		c0,0.1,0,0.3,0,0.4c0,0.1,0,0.3,0,0.5c0.1,0.5,0.2,0.9,0.4,1.1c0.2,0.2,0.5,0.4,0.8,0.6c0.3,0.2,0.5,0.5,0.6,0.8
		c-0.2-1.8-0.1-3.5,0.1-5.2c0.2-1.7,0.5-3.4,0.9-5.1l-1,0.1c-1.3,0.1-2.5,0.3-3.7,0.6c-1.2,0.3-2.4,0.5-3.7,0.7
		c-1.6,0.3-3.3,0.5-5,0.8c-1.7,0.3-3.4,0.6-5,1c-0.1,0-0.2,0-0.3,0.1c-0.2,0.1-0.2,0.1-0.2,0.2C115.8,156,116,156.3,116.5,156.5z"/>
	<path d="M190.4,160.9c0.1-0.4,0.2-0.7,0.3-1c0.2-0.3,0.4-0.4,0.7-0.4c0.3,0,0.6,0.3,0.8,0.9s0.4,1.3,0.5,1.9
		c0.1,0.7,0.2,1.2,0.2,1.4l0.3,0.1c0.2-0.4,0.4-0.7,0.4-1.2c0-0.4,0-0.8,0-1.2c0-0.3,0.1-0.7,0.2-1c0.1-0.3,0.3-0.5,0.6-0.7
		c0.2,0.3,0.4,0.6,0.8,1c0.4,0.4,0.7,0.8,1,1.2c0.3,0.4,0.4,0.7,0.4,1c0,0.3-0.1,0.7-0.2,1c-0.1,0.3-0.2,0.7-0.2,1
		c-0.2,1.1-0.5,1.9-0.8,2.4c-0.3,0.5-0.7,0.9-1.1,1.3c-0.5,0.4-1.1,0.9-1.9,1.6c-0.2-0.1-0.4-0.4-0.4-0.7c0-0.3,0-0.6,0-0.8
		c-0.4,0.2-0.7,0.5-0.8,0.9c-0.1,0.4-0.3,0.8-0.4,1.2c-0.1,0.4-0.4,0.7-0.9,0.9c0-1.7,0-3.4,0.1-5.1c0.1-1.7,0.2-3.4,0.3-5.1
		C190.3,161.5,190.3,161.2,190.4,160.9z M179.2,188.9c0.2,0,0.4,0.1,0.6,0.1c0.2,0,0.4,0.1,0.7,0.1c0.6,0,1.1,0,1.7,0
		c0.6,0,1.2,0,1.8,0c0.8,0,1.5,0.1,2.3,0.3s1.5,0.2,2.3,0.3c0.5,0,1,0,1.5-0.1c0.6-0.1,1.1-0.2,1.5-0.3c-0.1-0.3-0.3-0.5-0.7-0.8
		c-0.4-0.3-0.7-0.5-1-0.8s-0.4-0.5-0.4-0.6c0.1-0.9,0.1-1.7,0.2-2.6c0.1-0.9,0.2-1.7,0.2-2.6c0-0.2,0-0.4-0.2-0.6
		c-0.1-0.2-0.2-0.5-0.2-0.8l0.1-2c0-0.5,0.1-1,0.3-1.5c0.2-0.5,0.6-0.7,1.4-0.6c0.2,0,0.7,0.2,1.2,0.5c0.6,0.3,0.9,0.6,1.1,0.8
		c0,0.1,0.1,0.4,0.1,0.9c0.1,0.6,0.1,1.2,0.2,1.9c0,0.7,0.1,1.4,0.1,2c0,0.6,0,1,0,1.1c0,0.2-0.1,0.5-0.1,0.7
		c-0.1,0.2-0.1,0.5-0.1,0.7c0,0.1,0,0.3,0,0.5c0,0.2,0,0.3,0.1,0.5c0,0.6,0,1.1,0,1.7c0,0.6-0.1,1.2,0,1.7c0,0.8,0,1.5,0.1,2.3
		c0.1,0.7,0.1,1.5,0,2.2c0,0.4,0.1,0.8,0.3,1.1c0.2,0.3,0.3,0.7,0.4,1.1c0,0.5,0,0.9,0,1.4c0,0.5,0,0.9,0,1.4l0.5-0.3
		c0.4-1.4,0.7-2.9,1-4.3c0.3-1.4,0.5-2.9,0.8-4.3l0.6,0.5c0.4-1.3,0.7-2.6,1-4c0.3-1.3,0.6-2.7,1.1-4c0.1-0.2,0.1-0.5,0.1-0.8
		c0-0.3,0-0.6,0-0.8c0-0.3,0.1-0.6,0.2-0.9c0.1-0.3,0.2-0.6,0.2-0.9c0-0.3,0-0.5,0-0.7c0-0.2-0.1-0.4,0-0.7c0-0.3,0.1-0.6,0.3-0.9
		c0.2-0.3,0.2-0.6,0.3-0.9c0-0.2-0.2-0.5-0.7-0.9c-0.5-0.3-1-0.7-1.5-1c-0.5-0.3-0.9-0.5-1.1-0.7c0.1-0.1,0.5-0.4,1-0.7
		c0.5-0.3,1-0.7,1.4-1c0.4-0.3,0.6-0.6,0.6-0.7l0-0.2l0-0.2c0-0.4,0.1-0.7,0.3-1s0.3-0.6,0.4-1c0-0.2,0.1-0.5,0.1-0.7
		c0-0.2,0.1-0.4,0.2-0.7c0.1-0.3,0.3-0.6,0.4-1c0.1-0.3,0.2-0.7,0.2-1c0-0.2,0-0.3-0.1-0.5c0-0.2-0.1-0.3-0.1-0.5
		c0-0.1,0.1-0.4,0.3-0.8c0.2-0.4,0.4-0.9,0.6-1.5c0.2-0.6,0.3-1.2,0.4-1.8l0-0.4c-0.2-0.4-0.5-0.7-0.8-0.9c-0.3-0.3-0.6-0.6-0.9-0.9
		c-0.2-0.3-0.4-0.5-0.5-0.7c-0.1-0.2-0.4-0.4-0.8-0.4c-0.2-0.1-0.5-0.1-0.7-0.2c-0.2,0-0.3-0.2-0.3-0.4c0-0.2-0.1-0.3-0.2-0.4
		c-0.5-0.2-0.7-0.5-0.6-0.9c-0.1-0.1-0.4-0.4-0.7-0.9c-0.3-0.4-0.6-0.7-0.7-0.7c-1.1-0.1-2.2,0-3.3,0.2c-1.1,0.2-2.2,0.4-3.3,0.5
		l1.4-1.7l-0.1-0.2c-0.4,0.1-1.1,0.2-2.1,0.5c-1,0.3-2,0.6-3.2,0.9c-1.1,0.4-2.1,0.7-3,1c-0.9,0.3-1.4,0.6-1.7,0.9
		c0.1,0.1,0.3,0.2,0.4,0.3c0.6,0.2,1.1,0.4,1.6,0.4c0.4,0.1,0.7,0.2,0.9,0.4c0.2,0.2,0.3,0.7,0.2,1.4c0,0.5,0,0.9,0,1.4
		c0,0.5,0,0.9,0,1.4c-0.1,0.9-0.1,1.8-0.3,2.7c-0.1,0.9-0.2,1.8-0.3,2.7c0,0.5,0.2,0.8,0.7,1.1c-0.3,0.3-0.5,0.6-0.6,1
		c-0.1,0.4-0.2,0.8-0.2,1.2c0,0.4,0,0.7,0,1.1c0,0.4,0,0.8,0,1.1c0,0.7-0.1,1.4-0.3,2.2c-0.2,0.7-0.3,1.4-0.3,2.2c-0.1,1,0,2,0,3
		c0.1,1,0.1,2,0,3c0,0.1-0.1,0.2-0.3,0.4c-0.2,0.2-0.3,0.4-0.4,0.5c-0.3,0.9-0.5,1.6-0.6,2c-0.1,0.5-0.1,0.9-0.2,1.2
		c-0.1,0.3-0.3,0.6-0.7,1c-0.4,0.3-1.1,0.8-2.1,1.4L179.2,188.9z"/>
	<g>
		<defs>
			<path id="SVGID_3_" d="M339.5,103.8c4.4,4.3,10.3,6.3,15.9,8.2c6.3,2.1,12.6,4.2,18.9,6.3c4.3,1.4,8.6,2.9,13,3.5
				c6.7,0.9,13.5-0.1,20.3,0c13.1,0.3,26,5.4,36.4,14.2c7.7,6.5,14.3,17.1,11.3,27.2c-3.1,10.4-15.2,14.6-24.9,12.2
				c-9.7-2.4-17.8-9.5-26.1-15.6c-8.3-6.1-18-11.5-27.8-9.8c-2.5,5.3,3.1,11.4,2.4,17.4c-0.6,4.6-4.9,7.6-9.1,8.5
				c-4.2,0.9-8.5,0.4-12.7,1.3c-11.3,2.5-18.2,14.7-23.8,25.7c-3.5,6.9-7,13.9-10.5,20.8c-4.6,9.1-9.4,18.8-8.9,29.2
				c0.3,7.1,3,14.7-0.2,21c-2.4,4.7-7.5,7-12.4,7.6c-11.7,1.3-23.5-6-29.5-17s-12.2-45.3-2.6-37.2c11.5,9.7,11.8,14.1,11.5,11.7
				c-0.2-1.7-11.9,16.5-12.7,15c-8.2-15-33.7,43-41.9,28c-7.7,14.7-5.7-11.2-14.6-8c-15.5,5.6-8.7-1.1-24.2-1
				c-19,0.1-30.5-12.5-30-20c0.5-7.1,29.4-12.1,33-18c2.6-4.2,1-10.9,1-16c0-16.7,15.1-38.2,19.1-57c0.6-2.9,0.8-6,0.1-8.9
				c-0.8-3.2-0.7-1.1-3.1-3.1c-8.8-7.1-23.7-8.3-33-2c-2.4,1.6-5.2-0.3-8-0.6c0.4-12.9,0.7-25.8,1.1-38.7c0.3-9.8,0.6-19.7,3.8-28.8
				c3.3-9.1,10.1-17.3,18.8-18.9c9.4-1.8,18.5,4.1,27.5,7.4c10.9,4,22.5,4.4,33.9,4.8c16.9,0.6,34.5-2.8,50.8,1.7
				c6.6,1.8,14.6,5.7,29.1,6.3C339.1,81.6,332.5,97.1,339.5,103.8z"/>
		</defs>
		<clipPath id="SVGID_4_">
			<use xlink:href="#SVGID_3_"  style="overflow:visible;"/>
		</clipPath>
		<path class="st2" d="M212.2,193c0.5,5-15.2,30-15.2,30s20.1-22.5,21.6-26.5c1.5-4,2.5-8.9,1.5-25.8c-1-16.9,3.9-27.9,3.9-27.9
			s-1-2.9-2.9-6.3c-1.3-2.3-2.5-5.4-4.4-10.8c0,0,3.7-4.6,15.8-7.3c3.7,3.6,10.4,9.9,13.2,10.8c3.9,1.3,10.3,12.6,10.3,12.6
			s6.9,3.9,10.8,6.8c3.9,2.9,12.2,16,13.7,19.4c1.5,3.5,3.9,2.5,3.9,2.5s-5.1,11-8.4,15.4c-2.5,3.3-14.7,13.2-24,28.3
			c-17.8,28.8-83.9,56.5-85,53.7c4.1,1.8,68.8-22,87.4-51c14.7-23.1,37.4-38,37.4-42.9c0-10.4,0.6-5.4-11.7-22.8
			c-9.5-13.4-24.7-28.4-31.3-34.6c6.2-0.1-5.8-1.2,2.4,1.2c3.8,1.1,9.2-5.9,5.8,3.1c-7,16.4-21.2,48.3-34,77c-13.8,30.9-32,46-32,46
			s20.1-13.8,35.4-42.9c17.9-34,37.5-72.5,38.6-80.1c0.6-4.3-12.7,14,0,0l15,8c5.2,1.1-24.9,38.4-46,76c-18,32-54,54-54,54
			s41-19,58.3-51.7c21.2-40,54.1-79.7,50.5-83.3c-5.8-6-6.1-2.5-6.1-2.5s-6.2-4.1-9.3-5.6c-0.4-0.2-4.1-1.6-5.3-1.9
			c3.9-8,8.2-14.9,8.2-14.9s0-5-3.4-7c-3.4-2-2.9-6.6-2.9-6.6l-2.5,2.5l-2-2.9l-2.9,1.7c0,0,0,0-2.9,1.5s-7.1-0.5-16.5-0.2
			c-9.3,0.3,1.6-1.8-4.3-2.9c-5.9-1.2-14.7-1.7-14.7-1.7s-4.9-2.6-9.8-3.6c-4.1-0.8-7.8,5.5-12,11.9c-2.9-6.3-5.2-11-5.2-11
			s-3.9-7.3-10.3-7.2c-6.4,0-4.9,14.9-4.9,14.9s-11.3,22-11.8,24.3c-0.4,1.8-4.6,19.9-3.5,29.6c2.1,0,14.5,1.6,16.6,1.9
			c-4-13-0.7-26.3,0-31c1-7,7.6-18.3,7.6-18.3s1.1,5.9,3.4,11.9c-3.5,9-4.4,18.7-6,25.3c-0.7,3-0.6,8.5-3,12c1.3,0.5-2.1,0.6-1,1.6
			l0.1,0.1c1.9,1.3,3.6,2.9,4.8,5c0.1,0.1,0.1,0.2,0.1,0.3c0.7-0.3,12.2-1.7,12.9-2c3.1-1.6,0.3-8.4,6.5-14.8
			c2.2,4.1,3.7,7.1,3.7,7.1C212.6,144.6,211.7,188,212.2,193z M203.2,124.2l-8.2,11.2c2.2-5,4.2-10.1,6.3-14.7
			C201.9,121.8,202.6,123,203.2,124.2z M232.6,95.6c5.7,0.4,4.2,1.4,14.9,2.5c15.7,1.6,7.3,0.9,7.3,0.9l9.7-3c1.6,2.1-2.3,4.1-4,16
			c-11-1.5-3.1-1.4-13-2.6c-14.7-1.8-1.3-2.4-1.3-2.4s-5.3-4.2-9.7-5c-4.4-0.8-2.7-2.9-2.7-2.9S233.4,97.4,232.6,95.6z M211.7,112.8
			c-0.8-2-1.8-4.1-2.8-6.4c2-2.8,4.2-5.3,6.7-7.2c3-2.3,6-3.4,10.2-3.6c-1.1,1.8-2.3,3.9-3.8,5.4
			C219.9,103.3,214.3,109.7,211.7,112.8z"/>
	</g>
</g>
<rect x="0.5" y="0.5" class="st3" width="320" height="320"/>
</svg>
