<?xml version="1.0" encoding="utf-8"?>
<!-- Generator: Adobe Illustrator 25.4.1, SVG Export Plug-In . SVG Version: 6.00 Build 0)  -->
<svg version="1.1" id="Layer_1" xmlns="http://www.w3.org/2000/svg" xmlns:xlink="http://www.w3.org/1999/xlink" x="0px" y="0px"
	 viewBox="0 0 597 566.4" style="enable-background:new 0 0 597 566.4;" xml:space="preserve">
<style type="text/css">
	.st0{fill:#FFFFFF;}
	.st1{fill:#FFFFFF;stroke:#010101;stroke-miterlimit:10;}
	.st2{fill:#010101;}
</style>
<g>
	<g>
		<g>
			<path class="st0" d="M335.2,1c0,188.5,0,376.9,0,565.4H135.8c-12.5,0-22.6-12.3-22.6-27.5c0-2.7,0.2-6.1,1.4-9.2
				c1.5-3.9,3.9-5.8,5.5-6.8c10.3-6.7,88.6-43,88.4-50c-0.1-3.6-22-10.8-43.8-2c-17.6,7.1-24.1,20.2-46.2,24c0,0,0,0,0,0
				c-7.4,1.8-13.2,0.7-13.6,0.8c-8,0.8-26.6-60.4-28.9-67.8C56,364.4,9.4,335.6,13,330.4c2.8-4,32.1,9.6,47.5,25.9
				c2.7,2.8,11.2,12.4,21,10.8c0.7-0.1,3.5,0.8,3.9-1.2c2.9-17.3,12.6-69.7,26.4-90.3c0.5-0.7,0.9-1.4,1.3-2.1
				c11-17.8,7.4-32,4.9-38c-0.8-1.9-2-3.4-3.5-4.4l-1.4-0.9l-34.4-23.9c-0.7-0.5-1.5,0.6-0.9,1.4c17.7,26.5,18.4,49.3,16.7,61.9
				c-0.7,5.6-2.7,10.9-5.6,15.5l-23.4,36.5c-2.2,3.4-6.1,4.4-9.2,2.2C1.8,286.1-0.7,272.8,0.1,269.3c0.4-1.6,0.7-3.3,1-4.9
				c14.7-103,59.7-166.2,112.1-204.8C184.4,7.2,269.3,0,310.4,0"/>
			<path class="st1" d="M310,81.8V81c7.1,0,14.2,0,21.3,0"/>
			<path class="st0" d="M331,0c35.3,0,108,7.2,169,59.6c45,38.6,83.5,101.8,96.1,204.8c0.2,1.7,0.5,3.3,0.8,4.9
				c0.6,3.4-1.5,16.8-48.3,54.3c-2.6,2.1-6,1.2-7.9-2.2l-20.1-36.5c-2.5-4.5-4.1-9.8-4.8-15.5c-1.4-12.6-0.9-35.4,14.3-61.9
				c0.4-0.8-0.2-1.8-0.8-1.4L500,230.1l-1.2,0.9c-1.3,1-2.3,2.6-3,4.4c-2.1,6-5.3,20.2,4.2,38c0.4,0.7,0.7,1.4,1.1,2.1
				c11.9,20.6,20.2,73.1,22.7,90.3c0.3,2,2.7,1.1,3.3,1.2c8.4,1.6,15.8-8,18-10.8c13.2-16.4,38.3-30,40.7-25.9
				c3.1,5.3-36.9,34.1-53.9,97.6c-2,7.4-17.9,68.6-24.8,67.8c-0.3,0-5.3,1-11.6-0.8c0,0,0,0,0,0c-18.9-3.7-24.5-16.8-39.6-24
				c-18.7-8.8-37.5-1.7-37.6,2c-0.2,7,66.9,43.3,75.7,50c1.3,1,3.4,2.9,4.7,6.8c1,3.1,1.2,6.5,1.2,9.2c0,15.2-8.7,27.5-19.4,27.5
				H309.7c0-188.5,0-376.9,0-565.4"/>
			<path class="st2" d="M349.1,533.7c-7.7,15-36.6,6.6-39.1,5.8c-0.1-34.4-0.2-68.8-0.3-103.2c2.9,0,7.2,0.6,11.5,3.4
				c8.8,5.6,9,14.6,18.3,40.4c7.4,20.5,13.1,30.8,11.4,46.2C350.5,530.6,349.7,532.5,349.1,533.7z"/>
			<path class="st2" d="M271.6,533.7c7.8,15,37.3,6.6,39.9,5.8c0.1-34.4,0.2-68.8,0.3-103.2c-3,0-7.4,0.6-11.8,3.4
				c-8.9,5.6-9.2,14.6-18.6,40.4c-7.5,20.5-13.3,30.8-11.7,46.2C270.2,530.6,270.9,532.5,271.6,533.7z"/>
			<polygon class="st0" points="300.8,438.8 296.5,469.9 291.4,437.9 			"/>
			<polyline class="st0" points="308.9,431.3 304.6,458.9 300.8,438.8 			"/>
			<path class="st0" d="M68.7,401.4c0,0,1.2,39.6,6.1,43c4.9,3.4,3.3-37.8,3.3-37.8L68.7,401.4z"/>
			<polygon class="st0" points="528.4,459.8 512.2,520.7 505,477.7 			"/>
			<path class="st0" d="M91.6,334.2l-3.3,59.9c0,0-8.4-7.2-5.9-60.7C85,280,91.6,334.2,91.6,334.2z"/>
			<polygon class="st0" points="69.5,354.6 68.4,372.1 65.6,340.4 			"/>
			<polygon class="st0" points="518.9,262.2 519.6,292.4 523.1,258.6 			"/>
			<polygon class="st0" points="342.8,486.6 343.7,539.8 347.5,539.6 347.3,486.4 			"/>
		</g>
	</g>
</g>
<path class="st2" d="M266.9,418c-37.2,34.8-98.1,27.2-129.1-6.1c-14.5-15.5-9.4-71.5-5.1-48.4c1.8,9.9,13.4-10.7,18.6-11.3
	c14.8-0.7,30-1.1,45.7-1.1c23.1,0,45.2,0.7,66.4,2.1c2.2,0.3,12.5,1.9,20,7.8c3.2,2.5,10,0,10,0C299.2,380.2,270.4,414.7,266.9,418z
	"/>
<polygon class="st2" points="128.2,307.2 293.4,360.9 281.7,393.4 128.7,364.4 "/>
<path class="st0" d="M141.9,324.6c0,0.8,0,1.7,0,2.5c0.9,18.7,2,22.8,2.8,22.8c1.8,0.1,4.4-17,4-33
	C147.7,271.8,141.9,324.6,141.9,324.6z"/>
<path class="st0" d="M158.2,312.8c-1.5,9.1-3,18.2-4.4,27.2c-3.5-13.5-2.7-23.4-1.6-29.4C152.4,309.2,153.8,301.5,158.2,312.8z"/>
<g>
	<path class="st2" d="M348,418c37.2,34.8,98.1,27.2,129.1-6.1c14.5-15.5,9.4-71.5,5.1-48.4c-1.8,9.9-13.4-10.7-18.6-11.3
		c-14.8-0.7-30-1.1-45.7-1.1c-23.1,0-45.2,0.7-66.4,2.1c-2.2,0.3-12.5,1.9-20,7.8c-3.2,2.5-10,0-10,0
		C315.6,380.2,344.4,414.7,348,418z"/>
	<polygon class="st2" points="486.7,307.2 321.5,360.9 333.1,393.4 486.1,364.4 	"/>
	<path class="st0" d="M472.9,324.6c0,0.8,0,1.7,0,2.5c-0.9,18.7-2,22.8-2.8,22.8c-1.8,0.1-4.4-17-4-33
		C467.1,271.8,472.9,324.6,472.9,324.6z"/>
	<path class="st0" d="M456.6,312.8c1.5,9.1,3,18.2,4.4,27.2c3.5-13.5,2.7-23.4,1.6-29.4C462.4,309.2,461,301.5,456.6,312.8z"/>
</g>
</svg>
