<?xml version="1.0" encoding="utf-8"?>
<!-- Generator: Adobe Illustrator 25.4.1, SVG Export Plug-In . SVG Version: 6.00 Build 0)  -->
<svg version="1.1" id="Layer_1" xmlns="http://www.w3.org/2000/svg" xmlns:xlink="http://www.w3.org/1999/xlink" x="0px" y="0px"
	 viewBox="0 0 1696.6 996.3" style="enable-background:new 0 0 1696.6 996.3;" xml:space="preserve">
<style type="text/css">
	.st0{fill:#FFFFFF;}
	.st1{fill:#FFFFFF;stroke:#010101;stroke-miterlimit:10;}
	.st2{fill:#010101;}
	.st3{fill:#ED2224;}
</style>
<g>
	<g>
		<g>
			<path class="st0" d="M497.2,875.9H123.8c-8.9,0-14.6-10.4-10.6-19.3l17.4-38.2c2.2-4.8,6.5-7.8,11.3-7.8h337.2
				c4.8,0,9.2,3,11.3,7.8l17.4,38.2C511.8,865.5,506,875.9,497.2,875.9z"/>
			<path class="st0" d="M446.1,869c-1.4,1.1,0,28.7,0,28.7s2.7,16.2,8.5,1.5s5.7-39.3,5.7-39.3L446.1,869z"/>
			<path class="st0" d="M435.4,870.5c-0.8,4.2-0.8,7.7-0.7,10c0.3,4.2,1.2,7,1.5,8c0.8,2.2,2.3,6.6,3.9,6.5c1.3,0,2.8-2.5,3.7-8
				c2.7-15.9,3-22.7,3-22.7C443.1,866.4,439.2,868.5,435.4,870.5z"/>
			<path class="st0" d="M112.4,861.4l1.4,32.8c0,0,4.5,38.3,10.6-23.9S112.4,861.4,112.4,861.4z"/>
			<path class="st0" d="M123.4,875.1v19c0,0,4.8,18.3,8.5-24.9C135.5,826,123.4,875.1,123.4,875.1z"/>
			<path class="st0" d="M211.6,872.9c0,0,2.3,30.6,6.2,32.7c3.9,2.1,6.5-34.2,6.5-34.2L211.6,872.9z"/>
			<path class="st0" d="M226,874.2c0,0-1,5,2.7,15.1s10.8-18.9,7.9-21C233.8,866.2,226,874.2,226,874.2z"/>
			<path class="st0" d="M508.6,866l-2.4,30.2c0,0-8.7,25.5-10.8-31.6C493.2,807.6,508.6,866,508.6,866z"/>
			<path class="st0" d="M484.6,862.3c0,0-1.5,28.5,4.2,27.9c5.7-0.6,5.3-18.9,5.3-18.9l-3.1-11.8L484.6,862.3z"/>
			<polygon class="st0" points="394.1,874.9 396.9,892.7 400.3,870.3 			"/>
			<polygon class="st0" points="183.8,874.1 185,889.5 189.5,870 			"/>
			<polygon class="st0" points="290.5,868.9 294.4,904.5 299,868.5 299.7,886.4 305,867.5 			"/>
		</g>
		<g>
			<path class="st0" d="M471.6,623v10.4c0,10-6.1,18.3-14.4,20.7v134.5c0,5.5-4,10-8.9,10h-41.5c-4.9,0-8.9-4.5-8.9-10V654
				c-8.3-2.4-14.4-10.8-14.4-20.7V623c0-1.8,1.3-3.2,2.9-3.2h82.3C470.3,619.7,471.6,621.2,471.6,623z"/>
			<path class="st0" d="M354.5,623v10.4c0,10-6.1,18.3-14.4,20.7v134.5c0,5.5-4,10-8.9,10h-41.5c-4.9,0-8.9-4.5-8.9-10V654
				c-8.3-2.4-14.4-10.8-14.4-20.7V623c0-1.8,1.3-3.2,2.9-3.2h82.3C353.2,619.7,354.5,621.2,354.5,623z"/>
			<path class="st0" d="M237.5,623v10.4c0,10-6.1,18.3-14.4,20.7v134.5c0,5.5-4,10-8.9,10h-41.5c-4.9,0-8.9-4.5-8.9-10V654
				c-8.3-2.4-14.4-10.8-14.4-20.7V623c0-1.8,1.3-3.2,2.9-3.2h82.3C236.2,619.7,237.5,621.2,237.5,623z"/>
			<polygon class="st0" points="237.5,633.6 235.3,683.5 225.8,633 			"/>
			<polygon class="st0" points="390.5,648.2 391.9,663.7 394.3,647.8 			"/>
		</g>
		<g>
			<path class="st0" d="M335.2,40.6c0,188.5,0,376.9,0,565.4H135.8c-12.5,0-22.6-12.3-22.6-27.5c0-2.7,0.2-6.1,1.4-9.2
				c1.5-3.9,3.9-5.8,5.5-6.8c10.3-6.7,88.6-43,88.4-50c-0.1-3.6-22-10.8-43.8-2c-17.6,7.1-24.1,20.2-46.2,24c0,0,0,0,0,0
				c-7.4,1.8-13.2,0.7-13.6,0.8c-8,0.8-26.6-60.4-28.9-67.8C56,404,9.4,375.2,13,369.9c2.8-4,32.1,9.6,47.5,25.9
				c2.7,2.8,11.2,12.4,21,10.8c0.7-0.1,3.5,0.8,3.9-1.2c2.9-17.3,12.6-69.7,26.4-90.3c0.5-0.7,0.9-1.4,1.3-2.1
				c11-17.8,7.4-32,4.9-38c-0.8-1.9-2-3.4-3.5-4.4l-1.4-0.9l-34.4-23.9c-0.7-0.5-1.5,0.6-0.9,1.4c17.7,26.5,18.4,49.3,16.7,61.9
				c-0.7,5.6-2.7,10.9-5.6,15.5l-23.4,36.5c-2.2,3.4-6.1,4.4-9.2,2.2C1.8,325.7-0.7,312.3,0.1,308.9c0.4-1.6,0.7-3.3,1-4.9
				C15.7,201,60.8,137.8,113.2,99.2c71.2-52.4,156.1-59.6,197.2-59.6"/>
			<path class="st1" d="M310,121.4v-0.9c7.1,0,14.2,0,21.3,0"/>
			<path class="st0" d="M331,39.6c35.3,0,108,7.2,169,59.6c45,38.6,83.5,101.8,96.1,204.8c0.2,1.7,0.5,3.3,0.8,4.9
				c0.6,3.4-1.5,16.8-48.3,54.3c-2.6,2.1-6,1.2-7.9-2.2l-20.1-36.5c-2.5-4.5-4.1-9.8-4.8-15.5c-1.4-12.6-0.9-35.4,14.3-61.9
				c0.4-0.8-0.2-1.8-0.8-1.4L500,269.6l-1.2,0.9c-1.3,1-2.3,2.6-3,4.4c-2.1,6-5.3,20.2,4.2,38c0.4,0.7,0.7,1.4,1.1,2.1
				c11.9,20.6,20.2,73.1,22.7,90.3c0.3,2,2.7,1.1,3.3,1.2c8.4,1.6,15.8-8,18-10.8c13.2-16.4,38.3-30,40.7-25.9
				c3.1,5.3-36.9,34.1-53.9,97.6c-2,7.4-17.9,68.6-24.8,67.8c-0.3,0-5.3,1-11.6-0.8c0,0,0,0,0,0c-18.9-3.7-24.5-16.8-39.6-24
				c-18.7-8.8-37.5-1.7-37.6,2c-0.2,7,66.9,43.3,75.7,50c1.3,1,3.4,2.9,4.7,6.8c1,3.1,1.2,6.5,1.2,9.2c0,15.2-8.7,27.5-19.4,27.5
				H309.7c0-188.5,0-376.9,0-565.4"/>
			<path class="st2" d="M349.1,573.2c-7.7,15-36.6,6.6-39.1,5.8c-0.1-34.4-0.2-68.8-0.3-103.2c2.9,0,7.2,0.6,11.5,3.4
				c8.8,5.6,9,14.6,18.3,40.4c7.4,20.5,13.1,30.8,11.4,46.2C350.5,570.2,349.7,572,349.1,573.2z"/>
			<path class="st2" d="M271.6,573.2c7.8,15,37.3,6.6,39.9,5.8c0.1-34.4,0.2-68.8,0.3-103.2c-3,0-7.4,0.6-11.8,3.4
				c-8.9,5.6-9.2,14.6-18.6,40.4c-7.5,20.5-13.3,30.8-11.7,46.2C270.2,570.2,270.9,572,271.6,573.2z"/>
			<polygon class="st0" points="300.8,478.3 296.5,509.5 291.4,477.4 			"/>
			<polyline class="st0" points="308.9,470.8 304.6,498.5 300.8,478.3 			"/>
			<path class="st0" d="M68.7,440.9c0,0,1.2,39.6,6.1,43c4.9,3.4,3.3-37.8,3.3-37.8L68.7,440.9z"/>
			<polygon class="st0" points="528.4,499.3 512.2,560.3 505,517.2 			"/>
			<path class="st0" d="M91.6,373.8l-3.3,59.9c0,0-8.4-7.2-5.9-60.7C85,319.6,91.6,373.8,91.6,373.8z"/>
			<polygon class="st0" points="69.5,394.1 68.4,411.7 65.6,379.9 			"/>
			<polygon class="st0" points="518.9,301.7 519.6,332 523.1,298.2 			"/>
			<polygon class="st0" points="342.8,526.2 343.7,579.3 347.5,579.1 347.3,525.9 			"/>
		</g>
	</g>
	<g>
		<path class="st0" d="M1647.3,849.5c-1.7-19.4-4.7-38.6-8.5-57.7c-0.5-7.8,1.3-15.7,0.6-23.4c-0.5-6.6-2.4-13.1-3.4-19.6
			c-3-20.5-5.8-41.1-10.1-61.4c-2.1-9.8-3.4-19.8-4.6-29.7c-0.3-2.5,0.8-6.3-3.9-7.7c-0.9,6-3.5,9-6.6,13.6
			c-2.3,6.5-4.1,13.1-6.3,19.6c-14.2,35.3-25.4,71.1-37.7,107.1c-1.1-12-8.6-22-7.5-34.3c-1.3-4.8-1.9-9.9-2.9-14.8
			c-1.1-6.4-1.7-13-5.5-18.6c-0.7-1-1.1-2.2-1.4-3.4c-1.8-7.9-3.6-15.8-5.4-23.8c-0.3-4-3.9,1.6-4.5-7.2c-1.5-7.3-3.3-14.4-7.2-21
			c-1.1-1.8-2.1-4-2.1-6c0-7.3-3.9-13-6.9-19.9c-7.5,16.2-8,32.9-11.7,49.9c-2.5,11.9-6,23.5-7.6,35.6c-2,16.9-11.1,32.3-12.3,49.4
			c-0.8,13.4-6.9,25.8-10.2,38.7c-2.2,13.5-5.7,26.9-8.8,40.3c-0.8,6.7-2.4,12.7-8,17.2c-3.3,3-7.1,5.8-8.4,10.3
			c23.8-0.8,46.7-1.6,70.9-2.4c-5.8-8.1-18.1-11.5-14.8-23.2c1-3.2,1.4-6.7,1.7-10.1c0-16.7,4.6-32.8,7.8-49.1
			c1.6-11.1,3.5-22.1,5.4-33.1c0.5,0,1,0.1,1.5,0.1c6.1,24,12.3,48,19.6,71.7c2,5.5,3.3,11.1,3.4,17c0.8,6.5,4.4,12.8,5.1,19.3
			c0.9,9.8,1.6,19.9,6.4,28.8c1.4-1.2,2-2.1,2.1-3.2c0.9-11,1.1-22,3.3-32.8c0.4,0.1,0.8,0.2,1.2,0.2c0.1,1.4,0.2,2.8,0.3,5
			c8.8-4.8,3.8-17.2,7.9-24.9c2.2-5,2.9-9.9,2.6-15.1c-0.7-6.1,3.9-7.1,4.5-11c-1.4-4.4,0.3-8.2,1.8-12c4.7-11.5,9.5-23,14.3-34.7
			c3.1,27.6,9.8,54.8,12.5,82.5c1,16.7,1.6,33.6,9.4,48.8c0.3-0.1,0.6-0.2,0.9-0.3c0.1-1.6,0.3-3.3,0.5-5.9c2.7,7,3,13.1,7,18.4
			c3.1-3.4,1.8-7.8,2-12c2.3,5,3.9,10,5.3,15.2c0.6,2.3,1.7,3.4,3.5,3.1c1-15.9,1.9-31.3,2.9-46.8c0.3,0.2,0.7,0.4,1,0.6
			c0.6-1,1.8-2,1.8-3C1648,865.7,1648,857.6,1647.3,849.5z M1451.1,651.7c-7.9,3-15.9,5.9-23.7,9.3c-8.8,3.8-17.5,7.9-26.1,12.3
			c-2.9,1.5-6.2,3.2-7.4,7.9c5.2-0.7,9.9-1.2,15.6-1.9c-0.4,5.9-0.5,11.2-1.4,16.4c-0.6,4.1-0.9,7.8,1.2,11.6
			c0.9,1.6,1.7,3.5,1.7,5.3c-0.6,36.4-6.8,72.6-4.2,109c4.8,13.5-16.4,20.7-25.1,12.4c-8.5-7.6-17.9-13.6-14.3-26.7
			c0.2-0.8,0.2-1.9-0.2-2.6c-3-5.9-1.1-12.1,1-17c1.8-4.1,0.7-6.2-0.8-9.2c-3.4-6,1.7-19.6,2.2-27.1c0.7,4.8,1.4,9.6,2.1,14.4
			c0.5,0,1,0,1.5,0c1.1-2.9,1.1-5.8,0.4-8.8c0.4-6.3,1.4-12.6,1.3-18.9c-0.5-13.2-2-26.2-0.7-39.4c0.8-11.9-5.2-28.5,6.2-36.8
			c0.8-0.5,0.9-2.1,1.3-3.1c-1.1-0.1-2.3-0.6-3.3-0.2c-8.6,3.1-17,6.5-25.6,9.6c-7.2,2.6-14.4,4.8-21.7,7.3c-2.1,0.7-4.6,1-1.2,3.9
			c5.7,6.2,1,15.9,2.4,23.3c2.1,8.9-5.7,15.6-2.2,22.8c1.3,2.2,1.9,5.2,1.8,7.8c-0.7,14.8-3.2,29.5-1.4,44.2
			c0.8,9.9,2.4,20,1.3,29.9c-0.9,6.5-0.8,12.8,1,19.1c1.7,5.5-0.9,12.1,3.9,16.4c4.3,5.3,12.2,9.1,12.2,16.6
			c0.1,6.5,0.4,12.9,0.8,19.4c0,0.8,0.5,2.1,1,2.2c3.6,0.4,3.8-4,5.2-6.4c0.6-1.2,0.9-2.7,1.7-3.6c3.9-3.7,0.1-4.6,2.1-9.9
			c4.1,2.7,8.6,4.9,10.7,8.7c2.1,5.7,3.1,11.8,3.8,17.8c1.3,6.2-1.7,13.4,1.9,19c4.5-4.8,2.9-12.3,8.7-16.4c0.6-0.4,0.8-1.9,0.6-2.7
			c-1.3-6.4,4.4-9.1,9.9-8.1c0.1,1.7,0.9,6.6,2,8.8c1-1.1,2.6-2.1,2.8-3.4c1.7-8.7,16.8-4.6,20.7-17.8c0.3,0.3,0.6,0.6,1,0.9
			c0.6,8.4-1.5,17.3,1.5,25.3c0.5-0.2,1-0.3,1.4-0.5c1.3-8.9-1-21.4,6.4-27.9c3.5-7.5,6.3-16.1,8.2-24.2c0.3-2.3-0.7-5.3,0.5-6.8
			c4.3-5.7,3.4-18.7,0.8-24.8c-2-3.6-0.9-6.1,0.9-9c3.5-5.9,1.6-15.4,2.5-22.2c-3.3-6.8-1.8-7.2,0-13.9c4.2-24.1,2.9-48.6,3.1-73
			c1.1-9.7-2.9-19.9,3.7-28.6c1.7-2.2,2.6-5.1,3.6-7.8C1455.2,652,1453.8,650.7,1451.1,651.7z M1238.8,665.5
			c-13.2,0.9-26.5,1.9-39.7,3c-1.4,0.1-3.7,1-3.8,1.6c0.4,9.7,16.2,10.1,16.1,20.3c0.7,21.1,2.4,42.3,1.8,63.4
			c-0.4,12,1.5,24-1.9,36.2c-2.7,9.5-2,20-2.4,30.1c-1.2,13.7,0.8,28-2,41.4c-2.6,8.7-11.2,12.8-14.7,20.7c0.3,0.4,0.6,0.8,0.8,1.1
			c18.5,0,35.7-9.9,42.8,13.6c3.5-4.3,6.9-22,13.8-16.4c2.3,2.6,5.2,2.7,7.8,4c2.9,1.2,5.7,5.2,8.7,5.6c1.9-1.7,3.5-0.5,5.1,0.4
			c8.6,4.1,11.8,13.2,18.3,19.3c1.5-8.2,1.8-15.7,2.9-23.1c0.8-5.6-1.3-11.7,3.1-16.7c0.3-0.3,0.3-0.9,0.3-1.4
			c-1.8-15.5-2.3-31.1-2.9-46.6c0-2.8-1.1-5.2-2.7-7.3c-1,0.8-2.4,1.5-2.9,2.5c-5.8,10.8-10.1,22.2-12.8,34.1
			c-1.3,3.7-12.6,6.8-16.8,9.4c-1.3-3.7-2.4-9.6-5.2-11.4c-4.3-1-3.9-3.3-3.1-6.3c1-7-4.4-13.5-0.1-20.4c0.6-10.2-2.8-21.1,3.2-30.2
			c3.7,0.4,8,0.4,10.1,4c4.3,7.5,7.5,15.6,11.5,23.3c6.3-8.7,3.9-19,2.9-28.7c1.6-17.2,1.6-34.4,1.3-51.7c0-0.9-0.9-1.8-1.4-2.8
			c-1,0.6-2.4,1-2.9,1.9c-3.5,6-6.9,12-10.1,18.2c-2.8,5.5-7.4,7.4-13.4,7.4c-1.6-17.4-1-34.2,1.2-51.4c0.8-6.5,0.2-13.4,1.5-19.8
			c8.8-1.4,5.8,5.5,11.2,10.5c2.4-3.8,3.8-8,5.4-12.2c0.5,0.1,1,0.2,1.5,0.3c0.6,8,6.5,14.7,5.4,23.1c0.2,3,3.2,3.1,4.8,1.3
			c1.6-3.2,2.3-7.2,3.7-10.6c0.5,0,1.1,0,1.6,0c-1.8,11.3,3.2,20.6,8,30c1.9-3.5,0.7-8.7,2.9-11.6c3.5-4.2,2.9-9.3,4.2-14
			c4.2-16.7,6.3-32.3,11-49.2C1287.8,661.1,1263.8,664.2,1238.8,665.5z M1176.1,805.6c-1.4-10.8-3.3-22.3-6.4-32.7
			c-9.1-11.8-22.4-20.9-32.3-31.9c-0.2-4.9-3.6-4.3-6.8-4.2c-12.6,1.7-11.2-0.8-14.4-11.6c0-0.8-0.1-1.8,0.3-2.3
			c7.4-7.5,13.7-16.1,22.2-22.6c9.5,12.2,18.7,23.9,28.3,36.3c0.7-12.3,1.4-23.1,3.8-34.9c1.5-6.3,2.3-12.6,2.6-18.9
			c0.4-9.8,0.4-19.7,0.6-30.3c-7.3,1.8-11.3,8.8-17.1,13.1c-4.1,4.4-30.9-10.4-35.3-7.2c-11.6,10.1-22.5,21.8-32.9,33
			c-3.9,10-7.5,20.1-11,30.2c-0.7,2-1.3,4.3-0.9,6.3c1.3,5.5,3.1,10.8,4.9,16.2c2.5,7.8,5.4,15.4,7.5,23.3c1,3.8,2.5,6.3,6.3,7.2
			c1.6,0.4,3.2,0.8,4.8,0.7c6.2-1.2,1.4,13.7,7.9,20.7c7.5-6.9,4.8-25.9,13.8-21c23.6,10.5,17.2,19.9,16.8,41.5
			c0,5.3-6.1,6.3-9.2,9.5c-1.2,1-2.4,2.9-2.2,4.2c0.9,5.8-2,10.3-4.1,15.5c-1-0.8-1.7-1.1-1.9-1.5c-1.8-5.8-3.3-11.6-6.6-17
			c-1.8-3-3.1-4.7-6.7-4.8c-2-0.1-5.1-0.7-5.6-1.9c-2.8-6.7-3.5-14.2-6.8-20.7c-3.9,4.7-2,11.5-3.3,17.2
			c-2.8,20.8-4.6,41.7-6.4,62.7c-0.1,0.8,0.6,1.6,0.9,2.4c3.3-1.5,3.6-5.7,5.8-8.4c1.4-2.1,3.3-3.9,5-5.8c1.6,2.5,3.4,5,4.7,7.6
			c0.6,1.1,0,2.8,0.5,4c1,2.8,2.6,5.3,5.8,5.8c5.6,2.1,5.7,2.5,5.4,8.4c0.2,5.6-1.9,12.7,1,17.6c6-4.6,6.8-15.3,12-20.9
			c2-2.1,5.1-3.2,7.9-4.3c10-5.2,4.2-10.4,21.8-17.8c0.7,4.2,1.5,8.5,2.2,12.8c0.5,0,0.9-0.1,1.4-0.1c2.7-10.1,2.5-21.2,5.4-31.2
			c2-4.9,4.9-9.4,7.3-14.2C1177.3,827.2,1176,814.8,1176.1,805.6z M1048.5,651.7c-7.9,3-15.9,5.9-23.7,9.3
			c-8.8,3.8-17.5,7.9-26.1,12.3c-2.9,1.5-6.2,3.2-7.4,7.9c5.2-0.7,9.9-1.2,15.6-1.9c-0.4,5.9-0.5,11.2-1.4,16.4
			c-0.6,4.1-0.9,7.8,1.2,11.6c0.9,1.6,1.7,3.5,1.7,5.3c-0.6,36.4-6.8,72.6-4.2,109c4.8,13.5-16.4,20.7-25.1,12.4
			c-8.5-7.6-17.9-13.6-14.3-26.7c0.2-0.8,0.2-1.9-0.2-2.6c-3-5.9-1.1-12.1,1-17c1.8-4.1,0.7-6.2-0.8-9.2c-3.4-6,1.7-19.6,2.2-27.1
			c0.7,4.8,1.4,9.6,2.1,14.4c0.5,0,1,0,1.5,0c1.1-2.9,1.1-5.8,0.4-8.8c0.4-6.3,1.4-12.6,1.3-18.9c-0.5-13.2-2-26.2-0.7-39.4
			c0.8-11.9-5.2-28.5,6.2-36.8c0.8-0.5,0.9-2.1,1.3-3.1c-1.1-0.1-2.3-0.6-3.3-0.2c-8.6,3.1-17,6.5-25.6,9.6
			c-7.2,2.6-14.4,4.8-21.7,7.3c-2.1,0.7-4.6,1-1.2,3.9c5.7,6.2,1,15.9,2.4,23.3c2.1,8.9-5.7,15.6-2.2,22.8c1.3,2.2,1.9,5.2,1.8,7.8
			c-0.7,14.8-3.2,29.5-1.4,44.2c0.8,9.9,2.4,20,1.3,29.9c-0.9,6.5-0.8,12.8,1,19.1c1.7,5.5-0.9,12.1,3.9,16.4
			c4.3,5.3,12.2,9.1,12.2,16.6c0.1,6.5,0.4,12.9,0.8,19.4c0,0.8,0.5,2.1,1,2.2c3.6,0.4,3.8-4,5.2-6.4c0.6-1.2,0.9-2.7,1.7-3.6
			c3.9-3.7,0.1-4.6,2.1-9.9c4.1,2.7,8.6,4.9,10.7,8.7c2.1,5.7,3.1,11.8,3.8,17.8c1.3,6.2-1.7,13.4,1.9,19c4.5-4.8,2.9-12.3,8.7-16.4
			c0.6-0.4,0.8-1.9,0.6-2.7c-1.3-6.4,4.4-9.1,9.9-8.1c0.1,1.7,0.9,6.6,2,8.8c1-1.1,2.6-2.1,2.8-3.4c1.7-8.7,16.8-4.6,20.7-17.8
			c0.3,0.3,0.6,0.6,1,0.9c0.6,8.4-1.5,17.3,1.5,25.3c0.5-0.2,1-0.3,1.4-0.5c1.3-8.9-1-21.4,6.4-27.9c3.5-7.5,6.3-16.1,8.2-24.2
			c0.3-2.3-0.7-5.3,0.5-6.8c4.3-5.7,3.4-18.7,0.8-24.8c-2-3.6-0.9-6.1,0.9-9c3.5-5.9,1.6-15.4,2.5-22.2c-3.3-6.8-1.8-7.2,0-13.9
			c4.2-24.1,2.9-48.6,3.1-73c1.1-9.7-2.9-19.9,3.7-28.6c1.7-2.2,2.6-5.1,3.6-7.8C1052.6,652,1051.1,650.7,1048.5,651.7z
			 M899.5,849.5c-1.7-19.4-4.7-38.6-8.5-57.7c-0.5-7.8,1.3-15.7,0.6-23.4c-0.5-6.6-2.4-13.1-3.4-19.6c-3-20.5-5.8-41.1-10.1-61.4
			c-2.1-9.8-3.4-19.8-4.6-29.7c-0.3-2.5,0.8-6.3-3.9-7.7c-0.9,6-3.5,9-6.6,13.6c-2.3,6.5-4.1,13.1-6.3,19.6
			c-14.2,35.3-25.4,71.1-37.7,107.1c-1.1-12-8.6-22-7.5-34.3c-1.3-4.8-1.9-9.9-2.9-14.8c-1.1-6.4-1.7-13-5.5-18.6
			c-0.7-1-1.1-2.2-1.4-3.4c-1.8-7.9-3.6-15.8-5.4-23.8c-0.3-4-3.9,1.6-4.5-7.2c-1.5-7.3-3.3-14.4-7.2-21c-1.1-1.8-2.1-4-2.1-6
			c0-7.3-3.9-13-6.9-19.9c-7.5,16.2-8,32.9-11.7,49.9c-2.5,11.9-6,23.5-7.6,35.6c-2,16.9-11.1,32.3-12.3,49.4
			c-0.8,13.4-6.9,25.8-10.2,38.7c-2.2,13.5-5.7,26.9-8.8,40.3c-0.8,6.7-2.4,12.7-8,17.2c-3.3,3-7.1,5.8-8.4,10.3
			c23.8-0.8,46.7-1.6,70.9-2.4c-5.8-8.1-18.1-11.5-14.8-23.2c1-3.2,1.4-6.7,1.7-10.1c0-16.7,4.6-32.8,7.8-49.1
			c1.6-11.1,3.5-22.1,5.4-33.1c0.5,0,1,0.1,1.5,0.1c6.1,24,12.3,48,19.6,71.7c2,5.5,3.3,11.1,3.4,17c0.8,6.5,4.4,12.8,5.1,19.3
			c0.9,9.8,1.6,19.9,6.4,28.8c1.4-1.2,2-2.1,2.1-3.2c0.9-11,1.1-22,3.3-32.8c0.4,0.1,0.8,0.2,1.2,0.2c0.1,1.4,0.2,2.8,0.3,5
			c8.8-4.8,3.8-17.2,7.9-24.9c2.2-5,2.9-9.9,2.6-15.1c-0.7-6.1,3.9-7.1,4.5-11c-1.4-4.4,0.3-8.2,1.8-12c4.7-11.5,9.5-23,14.3-34.7
			c3.1,27.6,9.8,54.8,12.5,82.5c1,16.7,1.6,33.6,9.4,48.8c0.3-0.1,0.6-0.2,0.9-0.3c0.1-1.6,0.3-3.3,0.5-5.9c2.7,7,3,13.1,7,18.4
			c3.1-3.4,1.8-7.8,2-12c2.3,5,3.9,10,5.3,15.2c0.6,2.3,1.7,3.4,3.5,3.1c1-15.9,1.9-31.3,2.9-46.8c0.3,0.2,0.7,0.4,1,0.6
			c0.6-1,1.8-2,1.8-3C900.2,865.7,900.2,857.6,899.5,849.5z"/>
		<path class="st3" d="M1543.9,278.1c-5.6-3.9-3.4-11.5-5.8-19.1c-2.4,1.9-4.7,2.7-5.3,4.2c-6.2,12-3.8,26.8-16.5,34.8
			c-2.7-37.8-2-75.6-2.2-113.4c-2.4-12.4-0.1-24.5,4.5-36.1c4.3-4.6,13.4-3.2,15.3,4.3c4.2,14.8,7.9,29.8,11.7,44.8
			c1.1,0.3,2.1,0.6,3.2,0.9c9.2-15.2-4.9-38.7,11.6-50.2c6.4,9.6,27.5,28,27.2,37.5C1577.3,247.2,1586.9,232.4,1543.9,278.1z
			 M1659.7,142.9c-5.2-7.5-15.2-13.1-20.6-21.1c-4.4-5.4-7.1-13.1-15.3-13.4c-15.6-0.2-8.1-7-13.4-11.5c-7.2-1.5-8.6-6.6-8.3-10.2
			c-4.4-5.2-8-8.5-10.3-12.5c-2.1-3.8-4.4-5.4-8.5-4.7c-25.6,3.9-47.8,7.2-73.8,13.1c6-8.5,10.7-15.1,15.5-21.8
			c-0.5-0.6-1-1.1-1.5-1.7c-22.1,5-43,15-64.3,22.8c-15.1,6.3-29.7,13.8-44.5,21c-1.4,0.7-2.1,2.6-3.1,4c1.6,1,3.2,2.6,5,2.9
			c40.6,7.6,28.6-1.7,33.6,47.2c0.9,24.3-0.1,48.7-2.7,72.9c-0.9,7.9,0.4,11.8,8.5,16.4c-3.9,4.4-7.5,9.2-7.3,15.3
			c0.1,17.5,1,35.1,0.4,52.6c-0.5,12.4-4,24.7-4.4,37.1c-0.3,12.7,1.7,25.5,2.5,38.2c0.9,12.1,1,24.2,2.7,36.1
			c-0.8,4.1-7.7,7.5-8.2,12.1c-6.3,44-0.3,42.6-38,70.2c0.1,0.8,0.2,1.5,0.3,2.3c19,3.6,39.3-1.9,58.8-1.1c13.5,1.7,27,3.7,40.8,2.8
			c3.5,0.1,7.1,1.4,10.5,1c11-1.8,22.7-2.2,33-6.7c-3.8-9.5-14.2-13.1-21.4-19.6c-1.9-1.5-4.3-3.9-4.3-5.9
			c0.1-19.1,0.8-38.1,1.2-57.2c0.1-3.7,1.1-8.7-0.8-10.9c-5.8-7.5-2.7-16.3-3.5-24.8c0-9.1-0.3-18.3,0.2-27.4
			c0.3-5.9,14-13.6,19.1-11.3c7.8,3.9,20.8,6.7,25,14.4c2.4,12,3.3,24.3,4.8,36.4c1,14.1,5.3,28.9,3.5,42.9
			c-2.4,7.4-1.8,14.4,0.1,21.5c1,31.5,3.3,63.1,6.6,94.6c-0.7,15.8,7.9,17,8.6,29.2c0.4,10.6,0.9,21.3,1.5,34.2
			c2.9-2.2,5.4-3.1,5.7-4.5c1.8-9.1,3.2-18.2,4.5-27.4c2.1-26.2,7.7-53.1,10.5-79.1c2.3,1.9,4.5,3.6,7.1,5.7
			c7.4-34.2,7.6-65.9,18.4-98.6c3.4-9.5-0.7-19.3,2.7-29.1c6.7-17.5-4.4-23.7,4-43.3c2.8-8.6,0.6-13.1-7.5-17.2
			c-11.3-4.9-20.5-10.1-30.9-17.5c10-8.5,17.8-16.6,27-22.6c5.9-3.8,6.7-6.7,5.1-12.9c0-7.6,5.7-16.2,6.7-24.1
			c1-5.4,0.4-11.2,2.1-16.3c3.9-11.5,8.4-22.5,4.2-35.2c-1.2-5.4,4.3-12.6,6.6-17.7C1655.9,170.1,1661.3,155.5,1659.7,142.9z
			 M1318.3,332.3c1.6,37.5-0.4,24-45.3,34.7c6.6-33.5,12.7-67.7,21.6-100.1c-2.5-31.4,10.8-60,15-90.5c1-0.3,2-0.6,3-0.9
			C1325.6,226,1314.6,280.4,1318.3,332.3z M1400,100.4c-48.3,10-98.3,10.1-147.4,15.3c-13.1,1.2-26.2,2.6-39.2,4.5
			c-2.3,0.3-5.2,3.6-5.8,6.1c1.3,8.7,21.6,11.2,29,14.8c6.7,2.2,11.9,3.7,13,13.3c1.1,8.9,4.3,16.4-4.9,22.4
			c-9.3,21.9-10.9,46.2-14.7,69.5c-1.6,9.8-4.2,19.3-1.5,29.4c0.6,2.4,0,6.2-1.5,8c-8.8,10.3-8.4,23.3-11.1,35.4
			c-4.5,20.4-8.3,41-12.5,61.5c-1.6,8-4.7,15.6-1.6,24.2c1,2.7-1.9,6.7-2.8,10.2c-2.7,9-4.2,18.3-5.9,27.6
			c-9.5,37.7-7.1,43.6-42.5,63.3c0.1,1,0.1,2.1,0.2,3.1c7.7,2,15.3,4,21.3,5.6c3,22.5,2.2,45.3,10.4,66.2c6.3-8.5,5-21.2,11.1-29.2
			c11.3-15.4,26.8-27.9,30.9-48c0.4-3.5,3-5.6,5.5-7.6c0.7,0.3,1.4,0.5,2.2,0.8c-4.5,17.3-1.9,34.1,1.8,52c1.8-1.4,3.9-2.2,4.5-3.7
			c6.2-16.6,14.2-32.7,13.4-50.7c7.2-21.8,2.3-44.8,8.9-66.5c0.8,0.2,1.6,0.3,2.3,0.5c1.1,16,2.5,32,4.4,47.9
			c0.2,1.5,1.9,2.7,2.9,4.1c6.7-7.8,3.4-29.4,9.1-37.6c5.8,1.7,6.1-3.4,7.8-6.3c2-3.3,3.6-6.9,5.4-10.4c0.8,0.1,1.5,0.2,2.3,0.2
			c1.3,7.2,2.7,14.4,4,21.5c0.8,0.1,1.7,0.2,2.5,0.3c2.2-3.8,4.4-7.5,6.5-11.3c3.7-7,4.2-7.4,9.8-6.6c0,18.6,0,37.3,0,56
			c0.6,0.1,1.2,0.2,1.8,0.3c1.9-2.6,3.7-5.2,6-8.3c2.6,27.2,6.4,51.6,13.6,77.5c0.4,1.5,2.2,2.5,3.4,3.8c1.2-1.3,3.1-2.5,3.4-3.9
			c3.8-20.3,7.1-38.8,10.1-59.5c4,7.5,7.3,13.5,10.5,19.6c1.2-0.2,2.4-0.5,3.6-0.7c2.1-15.6,4.4-31.2,3-46.9
			c-2.4-17.5,6.1-16.1,8.8-28.2c0-9.8-1-19.7-1.1-29.5c-1.4-20,2.8-41.1-2.4-60.5c-0.9-6.6-0.7-13.3,1-19.6
			c-0.4-11.6-1-23.3-1.5-34.9c-2.4-39.5-4-79.1-4.7-118.6c0.3-20.1-5-24.5,8-42.7c6.4-11.8,21.7-18.7,25.6-31.7
			C1404.6,101.5,1402.2,100.1,1400,100.4z M1024.6,102.2c-24.8,1.8-49.6,3.5-74.5,5.5c-2.6,0.2-7,1.8-7.1,3
			c0.8,18.1,30.3,18.9,30.1,38c1.3,39.6,4.5,79.3,3.4,118.9c-0.7,22.5,2.9,44.9-3.6,67.8c-5.1,17.8-3.7,37.6-4.4,56.5
			c-2.3,25.7,1.6,52.4-3.7,77.5c-4.9,16.2-20.9,24.1-27.6,38.7c0.5,0.7,1.1,1.4,1.6,2.1c34.7-0.1,66.8-18.5,80.2,25.4
			c6.6-8,12.9-41.3,25.8-30.8c4.3,4.9,9.7,5.1,14.6,7.5c5.4,2.2,10.6,9.8,16.3,10.6c3.6-3.2,6.5-0.9,9.6,0.7
			c16.2,7.7,22.1,24.7,34.3,36.2c2.9-15.3,3.4-29.4,5.5-43.3c1.6-10.4-2.4-22,5.9-31.2c0.5-0.6,0.6-1.8,0.5-2.6
			c-3.4-29-4.2-58.2-5.4-87.4c0-5.2-2-9.7-5.1-13.7c-1.8,1.6-4.4,2.8-5.4,4.7c-10.9,20.3-18.9,41.5-24,64
			c-2.4,6.9-23.6,12.7-31.6,17.5c-2.5-6.9-4.5-18-9.7-21.4c-8-1.9-7.2-6.3-5.8-11.9c1.9-13-8.3-25.2-0.2-38.2
			c1.1-19-5.3-39.6,6.1-56.6c6.9,0.7,14.9,0.7,18.9,7.6c8,14.1,14.1,29.2,21.6,43.6c11.9-16.3,7.3-35.5,5.4-53.9
			c3-32.2,2.9-64.5,2.5-96.9c0-1.7-1.7-3.5-2.6-5.2c-1.8,1.1-4.4,1.8-5.4,3.5c-6.5,11.3-12.9,22.6-18.9,34.1
			c-5.3,10.3-13.8,13.8-25.1,13.9c-2.9-32.6-1.9-64,2.2-96.2c1.5-12.3,0.4-25.2,2.8-37.2c16.4-2.7,10.8,10.4,21,19.6
			c4.4-7.1,7.1-15.1,10.1-22.9c0.9,0.2,1.8,0.4,2.8,0.6c1.1,15,12.2,27.5,10.2,43.4c0.3,5.6,5.9,5.9,9,2.4c3-6.1,4.3-13.5,6.9-19.9
			c1,0,2,0,3,0c-3.3,21.2,5.9,38.5,15,56.2c3.6-6.6,1.4-16.2,5.4-21.8c6.6-7.8,5.5-17.5,7.9-26.2c7.8-31.3,11.8-60.6,20.6-92.3
			C1116.5,94.1,1071.5,99.8,1024.6,102.2z M823.5,99.6c-38.5,2.7-77.1,5.2-115.6,8.4c-2.5,0.2-6.3,1.5-7,3.2
			c-0.6,9.6,15.8,15.3,21.6,22.1c3.3,3,7.5,7.1,7.7,10.9c2.5,64.8,3.1,130.2,0.6,194.9c-0.3,6.5-1.1,13.1-0.2,19.5
			c1.1,8,5,15.7,5.4,23.6c1.2,21.2,1.1,42.4,1.8,63.6c0.5,6.2,3.5,12.3,4.2,18.4c0.7,7.1,0.4,14.4,1.3,21.5
			c1.7,14.3,4.3,28.4,5.9,42.7c2.2,15.5,0.9,31.5,5.3,46.6c8.1-12.8,13.4-27.3,18.4-41.4c4.3-13.8,5.5-28.3,16.2-39.9
			c6.8-7.3,3.3-15.8-1.2-24.1c-7.1-13.5,10.8-26.8,7-39.7c-7.2-12.5-2.5-24.3,0.5-36.3c0.9-19.8-1.7-39.7,7.8-58.3
			c8.3,0.2,16.6,0.7,20.7,8c7.4,13.8,13.1,28.2,19.4,42.6c1.5-1,2.5-1.3,2.6-1.7c8.8-27.3,5.5-19.3,4.2-46
			c3-33.4,3.8-66.9,4.1-100.4c0-1.7-1.7-3.5-2.6-5.2c-1.6,1.1-3.8,1.9-4.7,3.4c-6.7,11.1-13.3,22.3-19.6,33.6
			c-5.6,10.2-14.4,13.9-25.4,13.8c-2.8-37.4-2.8-75.8,8.2-111.7c4.1,1.8,8.3,3.7,12.6,5.6c3.4-9.2,16.5-16.5,24.4-13.7
			c3.2,1,7.3,1.2,10.4,0c11.1-4.2,10.9-4.5,18.4,4.1c12.8,6.7,3.2,6.2,5.1,19.8c0.1,12.6,14.4,17,16.3,28.9
			c1-42.3,12.1-82.2,24.2-123.1C888.7,91.7,856.1,97.9,823.5,99.6L823.5,99.6z"/>
	</g>
</g>
<path class="st2" d="M266.9,457.6c-37.2,34.8-98.1,27.2-129.1-6.1c-14.5-15.5-9.4-71.5-5.1-48.4c1.8,9.9,13.4-10.7,18.6-11.3
	c14.8-0.7,30-1.1,45.7-1.1c23.1,0,45.2,0.7,66.4,2.1c2.2,0.3,12.5,1.9,20,7.8c3.2,2.5,10,0,10,0
	C299.2,419.8,270.4,454.3,266.9,457.6z"/>
<polygon class="st2" points="128.2,346.8 293.4,400.5 281.7,432.9 128.7,404 "/>
<path class="st0" d="M141.9,364.1c0,0.8,0,1.7,0,2.5c0.9,18.7,2,22.8,2.8,22.8c1.8,0.1,4.4-17,4-33
	C147.7,311.3,141.9,364.1,141.9,364.1z"/>
<path class="st0" d="M158.2,352.3c-1.5,9.1-3,18.2-4.4,27.2c-3.5-13.5-2.7-23.4-1.6-29.4C152.4,348.7,153.8,341.1,158.2,352.3z"/>
<g>
	<path class="st2" d="M348,457.6c37.2,34.8,98.1,27.2,129.1-6.1c14.5-15.5,9.4-71.5,5.1-48.4c-1.8,9.9-13.4-10.7-18.6-11.3
		c-14.8-0.7-30-1.1-45.7-1.1c-23.1,0-45.2,0.7-66.4,2.1c-2.2,0.3-12.5,1.9-20,7.8c-3.2,2.5-10,0-10,0
		C315.6,419.8,344.4,454.3,348,457.6z"/>
	<polygon class="st2" points="486.7,346.8 321.5,400.5 333.1,432.9 486.1,404 	"/>
	<path class="st0" d="M472.9,364.1c0,0.8,0,1.7,0,2.5c-0.9,18.7-2,22.8-2.8,22.8c-1.8,0.1-4.4-17-4-33
		C467.1,311.3,472.9,364.1,472.9,364.1z"/>
	<path class="st0" d="M456.6,352.3c1.5,9.1,3,18.2,4.4,27.2c3.5-13.5,2.7-23.4,1.6-29.4C462.4,348.7,461,341.1,456.6,352.3z"/>
</g>
</svg>
