<?xml version="1.0" encoding="utf-8"?>
<!-- Generator: Adobe Illustrator 25.4.1, SVG Export Plug-In . SVG Version: 6.00 Build 0)  -->
<svg version="1.1" id="Layer_1" xmlns="http://www.w3.org/2000/svg" xmlns:xlink="http://www.w3.org/1999/xlink" x="0px" y="0px"
	 viewBox="0 0 3363.3 607.3" style="enable-background:new 0 0 3363.3 607.3;" xml:space="preserve">
<style type="text/css">
	.st0{fill:#FFFFFF;}
	.st1{fill:#010101;}
	.st2{fill:#ED2224;}
</style>
<g>
	<path class="st0" d="M272.6,511.8H67.9c-4.9,0-8-5.7-5.8-10.6l9.5-21c1.2-2.6,3.6-4.3,6.2-4.3h184.9c2.6,0,5,1.6,6.2,4.3l9.5,21
		C280.6,506,277.4,511.8,272.6,511.8z"/>
	<path class="st0" d="M244.6,507.9c-0.8,0.6,0,15.7,0,15.7s1.5,8.9,4.7,0.8c3.2-8,3.1-21.5,3.1-21.5L244.6,507.9z"/>
	<path class="st0" d="M238.7,508.8c-0.5,2.3-0.4,4.2-0.4,5.5c0.2,2.3,0.7,3.9,0.8,4.4c0.4,1.2,1.2,3.6,2.2,3.6
		c0.7,0,1.5-1.4,2.1-4.4c1.5-8.7,1.7-12.4,1.7-12.4C242.9,506.5,240.8,507.7,238.7,508.8z"/>
	<path class="st0" d="M61.6,503.8l0.8,18c0,0,2.4,21,5.8-13.1C71.6,474.6,61.6,503.8,61.6,503.8z"/>
	<path class="st0" d="M67.7,511.3v10.4c0,0,2.7,10,4.6-13.6C74.3,484.4,67.7,511.3,67.7,511.3z"/>
	<path class="st0" d="M116,510.1c0,0,1.3,16.8,3.4,17.9c2.1,1.2,3.6-18.7,3.6-18.7L116,510.1z"/>
	<path class="st0" d="M123.9,510.8c0,0-0.5,2.7,1.5,8.3c2,5.6,5.9-10.4,4.3-11.5C128.2,506.4,123.9,510.8,123.9,510.8z"/>
	<path class="st0" d="M278.8,506.3l-1.3,16.6c0,0-4.8,14-5.9-17.3C270.4,474.3,278.8,506.3,278.8,506.3z"/>
	<path class="st0" d="M265.7,504.3c0,0-0.8,15.6,2.3,15.3c3.1-0.4,2.9-10.4,2.9-10.4l-1.7-6.5L265.7,504.3z"/>
	<polygon class="st0" points="216.1,511.2 217.6,521 219.5,508.7 	"/>
	<polygon class="st0" points="100.8,510.8 101.5,519.2 103.9,508.5 	"/>
	<polygon class="st0" points="159.3,507.9 161.4,527.4 163.9,507.7 164.3,517.5 167.2,507.1 	"/>
	<path class="st0" d="M258.5,366.1v5.7c0,5.5-3.3,10.1-7.9,11.4v73.8c0,3-2.2,5.5-4.9,5.5H223c-2.7,0-4.9-2.4-4.9-5.5v-73.8
		c-4.5-1.3-7.9-5.9-7.9-11.4v-5.7c0-1,0.7-1.8,1.6-1.8H257C257.8,364.3,258.5,365.1,258.5,366.1z"/>
	<path class="st0" d="M194.4,366.1v5.7c0,5.5-3.3,10.1-7.9,11.4v73.8c0,3-2.2,5.5-4.9,5.5h-22.7c-2.7,0-4.9-2.4-4.9-5.5v-73.8
		c-4.5-1.3-7.9-5.9-7.9-11.4v-5.7c0-1,0.7-1.8,1.6-1.8h45.1C193.7,364.3,194.4,365.1,194.4,366.1z"/>
	<path class="st0" d="M130.2,366.1v5.7c0,5.5-3.3,10.1-7.9,11.4v73.8c0,3-2.2,5.5-4.9,5.5H94.7c-2.7,0-4.9-2.4-4.9-5.5v-73.8
		c-4.5-1.3-7.9-5.9-7.9-11.4v-5.7c0-1,0.7-1.8,1.6-1.8h45.1C129.5,364.3,130.2,365.1,130.2,366.1z"/>
	<polygon class="st0" points="130.2,363.9 129,391.2 123.8,363.6 	"/>
	<polygon class="st0" points="214.1,371.9 214.8,380.4 216.2,371.7 	"/>
	<path class="st0" d="M183.8,38.8c0,103.3,0,206.7,0,310H74.5c-6.8,0-12.4-6.7-12.4-15.1c0-1.5,0.1-3.3,0.8-5c0.8-2.1,2.1-3.2,3-3.7
		c5.7-3.7,48.6-23.6,48.4-27.4c-0.1-2-12.1-5.9-24-1.1c-9.7,3.9-13.2,11.1-25.3,13.1h0c-4.1,1-7.2,0.4-7.4,0.4
		c-4.4,0.5-14.6-33.1-15.9-37.2C30.7,238,5.1,222.2,7.1,219.3c1.5-2.2,17.6,5.2,26,14.2c1.5,1.5,6.1,6.8,11.5,5.9
		c0.4-0.1,1.9,0.5,2.1-0.7c1.6-9.5,6.9-38.2,14.5-49.5c0.3-0.4,0.5-0.8,0.7-1.1c6-9.8,4-17.6,2.7-20.8c-0.4-1-1.1-1.9-1.9-2.4
		l-0.7-0.5l-18.8-13.1c-0.4-0.3-0.8,0.3-0.5,0.7c9.7,14.5,10.1,27,9.2,33.9c-0.4,3.1-1.5,6-3.1,8.5l-12.8,20c-1.2,1.9-3.3,2.4-5,1.2
		C1,195.1-0.4,187.8,0.1,185.9c0.2-0.9,0.4-1.8,0.5-2.7c8-56.5,32.7-91.1,61.5-112.3c39-28.7,85.6-32.7,108.1-32.7"/>
	<path class="st0" d="M170,83.1v-0.5c3.9,0,7.8,0,11.7,0"/>
	<path class="st1" d="M170.3,83.1v-0.5H170v0.3c3.9,0,7.8,0,11.7,0v-0.5c-3.9,0-7.8,0-11.7,0h-0.3v0.8H170.3L170.3,83.1z"/>
	<path class="st0" d="M181.5,38.2c19.3,0,59.2,3.9,92.7,32.7c24.6,21.2,45.8,55.8,52.7,112.3c0.1,0.9,0.3,1.8,0.5,2.7
		c0.4,1.9-0.8,9.2-26.5,29.8c-1.5,1.2-3.3,0.6-4.3-1.2l-11-20c-1.4-2.5-2.3-5.4-2.6-8.5c-0.8-6.9-0.5-19.4,7.9-33.9
		c0.2-0.4-0.1-1-0.4-0.7l-16.1,13.1l-0.6,0.5c-0.7,0.6-1.3,1.4-1.6,2.4c-1.2,3.3-2.9,11.1,2.3,20.8c0.2,0.4,0.4,0.8,0.6,1.1
		c6.5,11.3,11.1,40.1,12.4,49.5c0.2,1.1,1.5,0.6,1.8,0.7c4.6,0.9,8.6-4.4,9.9-5.9c7.2-9,21-16.4,22.3-14.2
		c1.7,2.9-20.2,18.7-29.5,53.5c-1.1,4.1-9.8,37.6-13.6,37.2c-0.2,0-2.9,0.6-6.4-0.4h0c-10.4-2-13.4-9.2-21.7-13.1
		c-10.3-4.8-20.5-0.9-20.6,1.1c-0.1,3.9,36.7,23.7,41.5,27.4c0.7,0.6,1.9,1.6,2.6,3.7c0.6,1.7,0.7,3.5,0.7,5
		c0,8.3-4.8,15.1-10.6,15.1h-93.7c0-103.3,0-206.7,0-310"/>
	<path class="st1" d="M191.4,330.8c-4.2,8.2-20,3.6-21.5,3.2c-0.1-18.9-0.1-37.7-0.2-56.6c1.6,0,4,0.3,6.3,1.8
		c4.8,3.1,4.9,8,10,22.2c4,11.2,7.2,16.9,6.3,25.3C192.2,329.1,191.7,330.1,191.4,330.8z"/>
	<path class="st1" d="M148.9,330.8c4.3,8.2,20.4,3.6,21.9,3.2c0.1-18.9,0.1-37.7,0.2-56.6c-1.6,0-4,0.3-6.5,1.8
		c-4.9,3.1-5,8-10.2,22.2c-4.1,11.2-7.3,16.9-6.4,25.3C148.1,329.1,148.5,330.1,148.9,330.8z"/>
	<polygon class="st0" points="164.9,278.8 162.6,295.8 159.8,278.3 	"/>
	<polyline class="st0" points="169.3,274.6 167,289.8 164.9,278.8 	"/>
	<path class="st0" d="M37.6,258.3c0,0,0.6,21.7,3.3,23.6c2.7,1.9,1.8-20.7,1.8-20.7L37.6,258.3z"/>
	<polygon class="st0" points="289.7,290.3 280.8,323.7 276.9,300.1 	"/>
	<path class="st0" d="M50.2,221.5l-1.8,32.9c0,0-4.6-3.9-3.2-33.3C46.6,191.7,50.2,221.5,50.2,221.5z"/>
	<polygon class="st0" points="38.1,232.6 37.5,242.2 36,224.8 	"/>
	<polygon class="st0" points="284.5,181.9 284.9,198.5 286.8,180 	"/>
	<polygon class="st0" points="187.9,305 188.4,334.1 190.5,334 190.4,304.9 	"/>
	<path class="st1" d="M146.3,267.4c-20.4,19.1-53.8,14.9-70.8-3.4c-7.9-8.5-5.2-39.2-2.8-26.5c1,5.4,7.4-5.9,10.2-6.2
		c8.1-0.4,16.5-0.6,25.1-0.6c12.7,0,24.8,0.4,36.4,1.2c1.2,0.2,6.8,1,10.9,4.3c1.8,1.4,5.5,0,5.5,0
		C164,246.7,148.3,265.6,146.3,267.4z"/>
	<polygon class="st1" points="70.3,206.6 160.8,236.1 154.4,253.9 70.6,238 	"/>
	<path class="st0" d="M77.8,216.2c0,0.5,0,0.9,0,1.4c0.5,10.2,1.1,12.5,1.6,12.5c1,0,2.4-9.3,2.2-18.1
		C81,187.2,77.8,216.2,77.8,216.2z"/>
	<path class="st0" d="M86.7,209.7c-0.8,5-1.6,10-2.4,14.9c-1.9-7.4-1.5-12.8-0.9-16.1C83.6,207.7,84.3,203.5,86.7,209.7z"/>
	<path class="st1" d="M190.8,267.4c20.4,19.1,53.8,14.9,70.8-3.4c7.9-8.5,5.2-39.2,2.8-26.5c-1,5.4-7.4-5.9-10.2-6.2
		c-8.1-0.4-16.5-0.6-25.1-0.6c-12.7,0-24.8,0.4-36.4,1.2c-1.2,0.2-6.8,1-10.9,4.3c-1.8,1.4-5.5,0-5.5,0
		C173.1,246.7,188.8,265.6,190.8,267.4z"/>
	<polygon class="st1" points="266.8,206.6 176.3,236.1 182.7,253.9 266.5,238 	"/>
	<path class="st0" d="M259.3,216.2c0,0.5,0,0.9,0,1.4c-0.5,10.2-1.1,12.5-1.6,12.5c-1,0-2.4-9.3-2.2-18.1
		C256.1,187.2,259.3,216.2,259.3,216.2z"/>
	<path class="st0" d="M250.4,209.7c0.8,5,1.6,10,2.4,14.9c1.9-7.4,1.5-12.8,0.9-16.1C253.5,207.7,252.8,203.5,250.4,209.7z"/>
</g>
<g>
	<path class="st2" d="M1341.7,245c-5.6-3.9-3.4-11.5-5.8-19.1c-2.4,1.9-4.7,2.7-5.3,4.2c-6.2,12-3.8,26.8-16.5,34.8
		c-2.7-37.8-2-75.6-2.2-113.4c-2.4-12.4-0.1-24.5,4.5-36.1c4.3-4.6,13.4-3.2,15.3,4.3c4.2,14.8,7.9,29.8,11.7,44.8
		c1.1,0.3,2.1,0.6,3.2,0.9c9.2-15.2-4.9-38.7,11.6-50.2c6.4,9.6,27.5,28,27.2,37.5C1375.1,214.1,1384.8,199.4,1341.7,245z
		 M1457.5,109.8c-5.2-7.5-15.2-13.1-20.6-21.1c-4.4-5.4-7.1-13.1-15.3-13.4c-15.6-0.2-8.1-7-13.4-11.5c-7.2-1.5-8.6-6.6-8.3-10.2
		c-4.4-5.2-8-8.5-10.3-12.5c-2.1-3.8-4.4-5.4-8.5-4.7c-25.6,3.9-47.8,7.2-73.8,13.1c6-8.5,10.7-15.1,15.5-21.8
		c-0.5-0.6-1-1.1-1.5-1.7c-22.1,5-43,15-64.3,22.8c-15.1,6.3-29.7,13.8-44.5,21c-1.4,0.7-2.1,2.6-3.1,4c1.6,1,3.2,2.6,5,2.9
		c40.6,7.6,28.6-1.7,33.6,47.2c0.9,24.3-0.1,48.7-2.7,72.9c-0.9,7.9,0.4,11.8,8.5,16.4c-3.9,4.4-7.5,9.2-7.3,15.3
		c0.1,17.5,1,35.1,0.4,52.6c-0.5,12.4-4,24.7-4.4,37.1c-0.3,12.7,1.7,25.5,2.5,38.2c0.9,12.1,1,24.2,2.7,36.1
		c-0.8,4.1-7.7,7.5-8.2,12.1c-6.3,44-0.3,42.6-38,70.2c0.1,0.8,0.2,1.5,0.3,2.3c19,3.6,39.3-1.9,58.8-1.1c13.5,1.7,27,3.7,40.8,2.8
		c3.5,0.1,7.1,1.4,10.5,1c11-1.8,22.7-2.2,33-6.7c-3.8-9.5-14.2-13.1-21.4-19.6c-1.9-1.5-4.3-3.9-4.3-5.9
		c0.1-19.1,0.8-38.1,1.2-57.2c0.1-3.7,1.1-8.7-0.8-10.9c-5.8-7.5-2.7-16.3-3.5-24.8c0-9.1-0.3-18.3,0.2-27.4
		c0.3-5.9,14-13.6,19.1-11.3c7.8,3.9,20.8,6.7,25,14.4c2.4,12,3.3,24.3,4.8,36.4c1,14.1,5.3,28.9,3.5,42.9
		c-2.4,7.4-1.8,14.4,0.1,21.5c1,31.5,3.3,63.1,6.6,94.6c-0.7,15.8,7.9,17,8.6,29.2c0.4,10.6,0.9,21.3,1.5,34.2
		c2.9-2.2,5.4-3.1,5.7-4.5c1.8-9.1,3.2-18.2,4.5-27.4c2.1-26.2,7.7-53.1,10.5-79.1c2.3,1.9,4.5,3.6,7.1,5.7
		c7.4-34.2,7.6-65.9,18.4-98.6c3.4-9.5-0.7-19.3,2.7-29.1c6.7-17.5-4.4-23.7,4-43.3c2.8-8.6,0.6-13.1-7.5-17.2
		c-11.3-4.9-20.5-10.1-30.9-17.5c10-8.5,17.8-16.6,27-22.6c5.9-3.8,6.7-6.7,5.1-12.9c0-7.6,5.7-16.2,6.7-24.1
		c1-5.4,0.4-11.2,2.1-16.3c3.9-11.5,8.4-22.5,4.2-35.2c-1.2-5.4,4.3-12.6,6.6-17.7C1453.7,137,1459.1,122.4,1457.5,109.8z
		 M1116.1,299.2c1.6,37.5-0.4,24-45.3,34.7c6.6-33.5,12.7-67.7,21.6-100.1c-2.5-31.4,10.8-60,15-90.5c1-0.3,2-0.6,3-0.9
		C1123.4,193,1112.4,247.3,1116.1,299.2z M1197.9,67.4c-48.3,10-98.3,10.1-147.4,15.3c-13.1,1.2-26.2,2.6-39.2,4.5
		c-2.3,0.3-5.2,3.6-5.8,6.1c1.3,8.7,21.6,11.2,29,14.8c6.7,2.2,11.9,3.7,13,13.3c1.1,8.9,4.3,16.4-4.9,22.4
		c-9.3,21.9-10.9,46.2-14.7,69.5c-1.6,9.8-4.2,19.3-1.5,29.4c0.6,2.4,0,6.2-1.5,8c-8.8,10.3-8.4,23.3-11.1,35.4
		c-4.5,20.4-8.3,41-12.5,61.5c-1.6,8-4.7,15.6-1.6,24.2c1,2.7-1.9,6.7-2.8,10.2c-2.7,9-4.2,18.3-5.9,27.6
		c-9.5,37.7-7.1,43.6-42.5,63.3c0.1,1,0.1,2.1,0.2,3.1c7.7,2,15.3,4,21.3,5.6c3,22.5,2.2,45.3,10.4,66.2c6.3-8.5,5-21.2,11.1-29.2
		c11.3-15.4,26.8-27.9,30.9-48c0.4-3.5,3-5.6,5.5-7.6c0.7,0.3,1.4,0.5,2.2,0.8c-4.5,17.3-1.9,34.1,1.8,52c1.8-1.4,3.9-2.2,4.5-3.7
		c6.2-16.6,14.2-32.7,13.4-50.7c7.2-21.8,2.3-44.8,8.9-66.5c0.8,0.2,1.6,0.3,2.3,0.5c1.1,16,2.5,32,4.4,47.9
		c0.2,1.5,1.9,2.7,2.9,4.1c6.7-7.8,3.4-29.4,9.1-37.6c5.8,1.7,6.1-3.4,7.8-6.3c2-3.3,3.6-6.9,5.4-10.4c0.8,0.1,1.5,0.2,2.3,0.2
		c1.3,7.2,2.7,14.4,4,21.5c0.8,0.1,1.7,0.2,2.5,0.3c2.2-3.8,4.4-7.5,6.5-11.3c3.7-7,4.2-7.4,9.8-6.6c0,18.6,0,37.3,0,56
		c0.6,0.1,1.2,0.2,1.8,0.3c1.9-2.6,3.7-5.2,6-8.3c2.6,27.2,6.4,51.6,13.6,77.5c0.4,1.5,2.2,2.5,3.4,3.8c1.2-1.3,3.1-2.5,3.4-3.9
		c3.8-20.3,7.1-38.8,10.1-59.5c4,7.5,7.3,13.5,10.5,19.6c1.2-0.2,2.4-0.5,3.6-0.7c2.1-15.6,4.4-31.2,3-46.9
		c-2.4-17.5,6.1-16.1,8.8-28.2c0-9.8-1-19.7-1.1-29.5c-1.4-20,2.8-41.1-2.4-60.5c-0.9-6.6-0.7-13.3,1-19.6
		c-0.4-11.6-1-23.3-1.5-34.9c-2.4-39.5-4-79.1-4.7-118.6c0.3-20.1-5-24.5,8-42.7c6.4-11.8,21.7-18.7,25.6-31.7
		C1202.5,68.4,1200.1,67,1197.9,67.4z M822.4,69.1c-24.8,1.8-49.6,3.5-74.5,5.5c-2.6,0.2-7,1.8-7.1,3c0.8,18.1,30.3,18.9,30.1,38
		c1.3,39.6,4.5,79.3,3.4,118.9c-0.7,22.5,2.9,44.9-3.6,67.8c-5.1,17.8-3.7,37.6-4.4,56.5c-2.3,25.7,1.6,52.4-3.7,77.5
		c-4.9,16.2-20.9,24.1-27.6,38.7c0.5,0.7,1.1,1.4,1.6,2.1c34.7-0.1,66.8-18.5,80.2,25.4c6.6-8,12.9-41.3,25.8-30.8
		c4.3,4.9,9.7,5.1,14.6,7.5c5.4,2.2,10.6,9.8,16.3,10.6c3.6-3.2,6.5-0.9,9.6,0.7c16.2,7.7,22.1,24.7,34.3,36.2
		c2.9-15.3,3.4-29.4,5.5-43.3c1.6-10.4-2.4-22,5.9-31.2c0.5-0.6,0.6-1.8,0.5-2.6c-3.4-29-4.2-58.2-5.4-87.4c0-5.2-2-9.7-5.1-13.7
		c-1.8,1.6-4.4,2.8-5.4,4.7c-10.9,20.3-18.9,41.5-24,64c-2.4,6.9-23.6,12.7-31.6,17.5c-2.5-6.9-4.5-18-9.7-21.4
		c-8-1.9-7.2-6.3-5.8-11.9c1.9-13-8.3-25.2-0.2-38.2c1.1-19-5.3-39.6,6.1-56.6c6.9,0.7,14.9,0.7,18.9,7.6
		c8,14.1,14.1,29.2,21.6,43.6c11.9-16.3,7.3-35.5,5.4-53.9c3-32.2,2.9-64.5,2.5-96.9c0-1.7-1.7-3.5-2.6-5.2
		c-1.8,1.1-4.4,1.8-5.4,3.5c-6.5,11.3-12.9,22.6-18.9,34.1c-5.3,10.3-13.8,13.8-25.1,13.9c-2.9-32.6-1.9-64,2.2-96.2
		c1.5-12.3,0.4-25.2,2.8-37.2c16.4-2.7,10.8,10.4,21,19.6c4.4-7.1,7.1-15.1,10.1-22.9c0.9,0.2,1.8,0.4,2.8,0.6
		c1.1,15,12.2,27.5,10.2,43.4c0.3,5.6,5.9,5.9,9,2.4c3-6.1,4.3-13.5,6.9-19.9c1,0,2,0,3,0c-3.3,21.2,5.9,38.5,15,56.2
		c3.6-6.6,1.4-16.2,5.4-21.8c6.6-7.8,5.5-17.5,7.9-26.2c7.8-31.3,11.8-60.6,20.6-92.3C914.4,61,869.4,66.7,822.4,69.1z M621.3,66.5
		c-38.5,2.7-77.1,5.2-115.6,8.4c-2.5,0.2-6.3,1.5-7,3.2c-0.6,9.6,15.8,15.3,21.6,22.1c3.3,3,7.5,7.1,7.7,10.9
		c2.5,64.8,3.1,130.2,0.6,194.9c-0.3,6.5-1.1,13.1-0.2,19.5c1.1,8,5,15.7,5.4,23.6c1.2,21.2,1.1,42.4,1.8,63.6
		c0.5,6.2,3.5,12.3,4.2,18.4c0.7,7.1,0.4,14.4,1.3,21.5c1.7,14.3,4.3,28.4,5.9,42.7c2.2,15.5,0.9,31.5,5.3,46.6
		c8.1-12.8,13.4-27.3,18.4-41.4c4.3-13.8,5.5-28.3,16.2-39.9c6.8-7.3,3.3-15.8-1.2-24.1c-7.1-13.5,10.8-26.8,7-39.7
		c-7.2-12.5-2.5-24.3,0.5-36.3c0.9-19.8-1.7-39.7,7.8-58.3c8.3,0.2,16.6,0.7,20.7,8c7.4,13.8,13.1,28.2,19.4,42.6
		c1.5-1,2.5-1.3,2.6-1.7c8.8-27.3,5.5-19.3,4.2-46c3-33.4,3.8-66.9,4.1-100.4c0-1.7-1.7-3.5-2.6-5.2c-1.6,1.1-3.8,1.9-4.7,3.4
		c-6.7,11.1-13.3,22.3-19.6,33.6c-5.6,10.2-14.4,13.9-25.4,13.8c-2.8-37.4-2.8-75.8,8.2-111.7c4.1,1.8,8.3,3.7,12.6,5.6
		c3.4-9.2,16.5-16.5,24.4-13.7c3.2,1,7.3,1.2,10.4,0c11.1-4.2,10.9-4.5,18.4,4.1c12.8,6.7,3.2,6.2,5.1,19.8
		c0.1,12.6,14.4,17,16.3,28.9c1-42.3,12.1-82.2,24.2-123.1C686.5,58.6,653.9,64.8,621.3,66.5L621.3,66.5z"/>
	<path class="st0" d="M3319,433.4c-3.2-36.3-8.8-72.3-15.9-108.1c-0.9-14.5,2.4-29.4,1.1-43.9c-0.9-12.3-4.4-24.5-6.4-36.8
		c-5.6-38.5-10.8-77.1-19-115.1c-4-18.4-6.4-37-8.7-55.7c-0.6-4.7,1.5-11.9-7.3-14.5c-1.7,11.3-6.5,16.9-12.4,25.6
		c-4.3,12.1-7.7,24.6-11.9,36.8c-26.6,66.1-47.6,133.2-70.6,200.8c-2-22.5-16-41.2-14.1-64.3c-2.5-8.9-3.5-18.5-5.4-27.6
		c-2.1-12-3.2-24.3-10.4-34.8c-1.2-1.8-2-4.1-2.5-6.3c-3.4-14.8-6.7-29.7-10.1-44.5c-0.6-7.5-7.4,2.9-8.4-13.5
		c-2.8-13.7-6.2-27.1-13.4-39.3c-2-3.4-3.9-7.5-3.9-11.2c0-13.6-7.2-24.3-13-37.2c-14,30.4-14.9,61.6-22,93.5
		c-4.7,22.2-11.3,44-14.2,66.8c-3.7,31.6-20.9,60.6-23.1,92.5c-1.5,25.2-12.9,48.4-19.1,72.6c-4.1,25.4-10.8,50.5-16.4,75.5
		c-1.5,12.6-4.5,23.8-15,32.1c-6.2,5.6-13.4,10.8-15.8,19.3c44.6-1.5,87.5-3,132.8-4.6c-10.9-15.3-34-21.5-27.8-43.4
		c1.9-6,2.5-12.5,3.1-18.9c0.1-31.4,8.6-61.5,14.6-92c2.9-20.7,6.5-41.4,10.1-62c0.9,0.1,1.8,0.1,2.7,0.2
		c11.4,44.9,23,90,36.7,134.3c3.8,10.4,6.1,20.7,6.4,31.8c1.6,12.1,8.3,24,9.6,36.2c1.7,18.5,3.1,37.2,12,53.9c2.6-2.2,3.8-4,4-5.9
		c1.7-20.6,2.1-41.2,6.2-61.5c0.7,0.1,1.5,0.3,2.2,0.4c0.2,2.6,0.3,5.2,0.6,9.4c16.4-9.1,7.1-32.3,14.8-46.7
		c4-9.4,5.5-18.5,4.9-28.2c-1.3-11.5,7.2-13.4,8.5-20.6c-2.7-8.2,0.6-15.4,3.5-22.6c8.7-21.6,17.8-43,26.8-65
		c5.8,51.7,18.4,102.7,23.5,154.7c1.9,31.2,3,62.9,17.5,91.4c0.6-0.2,1.2-0.4,1.8-0.7c0.2-3.1,0.5-6.1,0.9-11.1
		c5.1,13,5.5,24.6,13.1,34.5c5.8-6.3,3.3-14.7,3.7-22.5c4.2,9.3,7.2,18.8,9.9,28.4c1.2,4.3,3.3,6.5,6.5,5.7
		c1.8-29.8,3.6-58.7,5.4-87.7c0.6,0.3,1.3,0.7,1.9,1c1.2-1.9,3.4-3.7,3.4-5.6C3320.3,463.8,3320.4,448.5,3319,433.4z M2951.3,62.9
		c-14.9,5.6-29.8,11.1-44.4,17.4c-16.5,7.1-32.9,14.8-48.9,23c-5.4,2.8-11.7,6.1-13.8,14.8c9.8-1.2,18.5-2.3,29.2-3.6
		c-0.8,11-1,21-2.6,30.8c-1.2,7.6-1.6,14.7,2.2,21.7c1.6,3,3.3,6.6,3.2,9.9c-1.1,68.2-12.7,136.1-7.9,204.3
		c9,25.3-30.7,38.8-47,23.2c-15.9-14.3-33.5-25.4-26.8-50c0.4-1.5,0.4-3.6-0.3-4.9c-5.6-11-2-22.6,2-31.9c3.3-7.6,1.4-11.6-1.6-17.2
		c-6.3-11.2,3.2-36.7,4.1-50.7c1.3,9,2.6,18,3.9,26.9c1,0,1.9,0,2.9,0.1c2.1-5.5,2-10.9,0.8-16.5c0.7-11.8,2.6-23.6,2.5-35.3
		c-1-24.6-3.7-49.2-1.3-73.9c1.6-22.3-9.8-53.4,11.6-68.9c1.4-1,1.6-3.9,2.4-5.9c-2.1-0.2-4.4-1.1-6.2-0.5c-16,5.9-31.9,12.2-48,18
		c-13.4,4.8-27.1,9.1-40.6,13.7c-3.9,1.3-8.6,1.8-2.2,7.3c10.7,11.6,1.8,29.8,4.6,43.7c3.9,16.7-10.7,29.2-4.1,42.8
		c2.4,4.2,3.6,9.8,3.3,14.6c-1.4,27.7-6,55.2-2.6,82.9c1.4,18.6,4.5,37.5,2.4,56.1c-1.6,12.2-1.4,23.9,1.9,35.8
		c3.2,10.3-1.7,22.7,7.3,30.8c8,9.9,22.9,17,22.9,31.1c0.3,12.1,0.8,24.2,1.4,36.3c0.1,1.5,1,4,1.8,4.1c6.8,0.8,7.2-7.5,9.7-12
		c1-2.3,1.6-5.1,3.2-6.8c7.3-6.9,0.2-8.6,3.8-18.6c7.6,5,16.2,9.2,20,16.3c3.9,10.6,5.8,22.1,7.1,33.4c2.4,11.7-3.3,25.1,3.5,35.6
		c8.5-8.9,5.3-23.1,16.4-30.7c1.1-0.8,1.6-3.5,1.2-5c-2.4-12,8.3-17.1,18.6-15.2c0.2,3.1,1.7,12.4,3.7,16.4c1.8-2.1,4.9-4,5.3-6.4
		c3.1-16.2,31.5-8.7,38.8-33.4c0.6,0.6,1.2,1.1,1.8,1.7c1.1,15.7-2.9,32.4,2.7,47.3c0.9-0.3,1.8-0.6,2.7-0.9
		c2.5-16.6-1.9-40.1,11.9-52.2c6.5-14.1,11.7-30.1,15.5-45.4c0.6-4.3-1.3-9.9,0.9-12.7c8-10.7,6.5-35.1,1.6-46.5
		c-3.7-6.7-1.8-11.5,1.8-16.8c6.5-11,3-28.8,4.6-41.6c-6.2-12.7-3.4-13.5,0-26c7.9-45.1,5.4-91.2,5.9-136.8c2-18.2-5.5-37.2,7-53.6
		c3.3-4.1,4.8-9.6,6.7-14.7C2959.1,63.3,2956.3,60.8,2951.3,62.9z M2553.4,88.5c-24.8,1.8-49.6,3.5-74.5,5.5c-2.6,0.2-7,1.8-7.1,3
		c0.8,18.1,30.3,18.9,30.1,38c1.3,39.6,4.5,79.3,3.4,118.9c-0.7,22.5,2.9,44.9-3.6,67.8c-5.1,17.8-3.7,37.6-4.4,56.5
		c-2.3,25.7,1.6,52.4-3.7,77.5c-4.9,16.2-20.9,24.1-27.6,38.7c0.5,0.7,1.1,1.4,1.6,2.1c34.7-0.1,66.8-18.5,80.2,25.4
		c6.6-8,12.9-41.3,25.8-30.8c4.3,4.9,9.7,5.1,14.6,7.5c5.4,2.2,10.6,9.8,16.3,10.6c3.6-3.2,6.5-0.9,9.6,0.7
		c16.2,7.7,22.1,24.7,34.3,36.2c2.9-15.3,3.4-29.4,5.5-43.3c1.6-10.4-2.4-22,5.9-31.2c0.5-0.6,0.6-1.8,0.5-2.6
		c-3.4-29-4.2-58.2-5.4-87.4c0-5.2-2-9.7-5.1-13.7c-1.8,1.6-4.4,2.8-5.4,4.7c-10.9,20.3-18.9,41.5-24,64
		c-2.4,6.9-23.6,12.7-31.6,17.5c-2.5-6.9-4.5-18-9.7-21.4c-8-1.9-7.2-6.3-5.8-11.9c1.9-13-8.3-25.2-0.2-38.2
		c1.1-19-5.3-39.6,6.1-56.6c6.9,0.7,14.9,0.7,18.9,7.6c8,14.1,14.1,29.2,21.6,43.6c11.9-16.3,7.3-35.5,5.4-53.9
		c3-32.2,2.9-64.5,2.5-96.9c0-1.7-1.7-3.5-2.6-5.2c-1.8,1.1-4.4,1.8-5.4,3.5c-6.5,11.3-12.9,22.6-18.9,34.1
		c-5.3,10.3-13.8,13.8-25.1,13.9c-2.9-32.6-1.9-64,2.2-96.2c1.5-12.3,0.4-25.2,2.8-37.2c16.4-2.7,10.8,10.4,21,19.6
		c4.4-7.1,7.1-15.1,10.1-22.9c0.9,0.2,1.8,0.4,2.8,0.6c1.1,15,12.2,27.5,10.2,43.4c0.3,5.6,5.9,5.9,9,2.4c3-6.1,4.3-13.5,6.9-19.9
		c1,0,2,0,3,0c-3.3,21.2,5.9,38.5,15,56.2c3.6-6.6,1.4-16.2,5.4-21.8c6.6-7.8,5.5-17.5,7.9-26.2c7.8-31.3,11.8-60.6,20.6-92.3
		C2645.4,80.4,2600.4,86.2,2553.4,88.5z M2436,351.3c-2.6-20.3-6.2-41.7-12.1-61.3c-17-22.2-41.9-39.1-60.5-59.7
		c-0.4-9.2-6.8-8-12.8-7.9c-23.5,3.3-21-1.5-27-21.8c-0.1-1.5-0.2-3.5,0.6-4.4c13.9-14.1,25.7-30.2,41.5-42.4
		c17.8,22.8,35,44.9,53.1,68.1c1.4-23.1,2.6-43.4,7.1-65.5c2.7-11.8,4.4-23.5,4.8-35.5c0.7-18.4,0.8-36.8,1.2-56.8
		c-13.6,3.3-21.2,16.5-32.1,24.5c-7.7,8.2-57.9-19.4-66.2-13.5c-21.8,19-42.1,40.8-61.6,61.9c-7.3,18.7-14,37.6-20.6,56.5
		c-1.3,3.7-2.5,8.1-1.6,11.7c2.5,10.3,5.9,20.3,9.1,30.4c4.7,14.6,10.2,28.9,14.1,43.7c1.9,7.1,4.8,11.7,11.8,13.4
		c3,0.7,6.1,1.4,9.1,1.2c11.6-2.2,2.7,25.7,14.8,38.9c14-12.9,8.9-48.6,25.9-39.4c44.3,19.7,32.2,37.4,31.5,77.7
		c-0.1,9.8-11.5,11.8-17.3,17.8c-2.2,1.8-4.6,5.4-4.2,7.8c1.6,10.8-3.7,19.2-7.6,29c-1.8-1.4-3.2-2-3.5-2.9
		c-3.3-10.9-6.2-21.8-12.4-31.9c-3.4-5.6-5.9-8.8-12.5-9.1c-3.7-0.1-9.6-1.3-10.5-3.6c-5.2-12.5-6.5-26.6-12.7-38.7
		c-7.3,8.8-3.8,21.6-6.1,32.2c-5.2,39-8.7,78.2-12,117.4c-0.1,1.4,1.1,3,1.8,4.5c6.2-2.8,6.8-10.7,10.8-15.7
		c2.6-3.9,6.2-7.2,9.3-10.8c3,4.7,6.3,9.3,8.8,14.3c1.1,2.1,0,5.3,0.9,7.6c1.9,5.2,4.8,10,10.8,10.9c10.5,3.9,10.8,4.6,10.1,15.8
		c0.4,10.6-3.6,23.8,2,33.1c11.2-8.7,12.8-28.6,22.4-39.2c3.7-3.9,9.6-5.9,14.8-8c18.7-9.8,7.9-19.4,40.9-33.4
		c1.4,7.8,2.8,15.9,4.2,24.1c0.9-0.1,1.7-0.1,2.6-0.2c5.1-19,4.8-39.6,10.2-58.4c3.7-9.2,9.2-17.7,13.7-26.6
		C2438.3,391.7,2435.9,368.4,2436,351.3L2436,351.3z M2196.8,62.9c-14.9,5.6-29.8,11.1-44.4,17.4c-16.5,7.1-32.9,14.8-48.9,23
		c-5.4,2.8-11.7,6.1-13.8,14.8c9.8-1.2,18.5-2.3,29.2-3.6c-0.8,11-1,21-2.6,30.8c-1.2,7.6-1.6,14.7,2.2,21.7c1.6,3,3.3,6.6,3.2,9.9
		c-1.1,68.2-12.7,136.1-7.9,204.3c9,25.3-30.7,38.8-47,23.2c-15.9-14.3-33.5-25.4-26.8-50c0.4-1.5,0.4-3.6-0.3-4.9
		c-5.6-11-2-22.6,2-31.9c3.3-7.6,1.4-11.6-1.6-17.2c-6.3-11.2,3.2-36.7,4.1-50.7c1.3,9,2.6,18,3.9,26.9c1,0,1.9,0,2.9,0.1
		c2.1-5.5,2-10.9,0.8-16.5c0.7-11.8,2.6-23.6,2.5-35.3c-1-24.6-3.7-49.2-1.3-73.9c1.6-22.3-9.8-53.4,11.6-68.9
		c1.4-1,1.6-3.9,2.4-5.9c-2.1-0.2-4.4-1.1-6.2-0.5c-16,5.9-31.9,12.2-48,18c-13.4,4.8-27.1,9.1-40.6,13.7c-3.9,1.3-8.6,1.8-2.2,7.3
		c10.7,11.6,1.8,29.8,4.6,43.7c3.9,16.7-10.7,29.2-4.1,42.8c2.4,4.2,3.6,9.8,3.3,14.6c-1.4,27.7-6,55.2-2.6,82.9
		c1.4,18.6,4.5,37.5,2.4,56.1c-1.6,12.2-1.4,23.9,1.9,35.8c3.2,10.3-1.7,22.7,7.3,30.8c8,9.9,22.9,17,22.9,31.1
		c0.3,12.1,0.8,24.2,1.4,36.3c0.1,1.5,1,4,1.8,4.1c6.8,0.8,7.2-7.5,9.7-12c1-2.3,1.6-5.1,3.2-6.8c7.3-6.9,0.2-8.6,3.8-18.6
		c7.6,5,16.2,9.2,20,16.3c3.9,10.6,5.8,22.1,7.1,33.4c2.4,11.7-3.3,25.1,3.5,35.6c8.5-8.9,5.3-23.1,16.4-30.7c1.1-0.8,1.6-3.5,1.2-5
		c-2.4-12,8.3-17.1,18.6-15.2c0.2,3.1,1.7,12.4,3.7,16.4c1.8-2.1,4.9-4,5.3-6.4c3.1-16.2,31.5-8.7,38.8-33.4
		c0.6,0.6,1.2,1.1,1.8,1.7c1.1,15.7-2.9,32.4,2.7,47.3c0.9-0.3,1.8-0.6,2.7-0.9c2.5-16.6-1.9-40.1,11.9-52.2
		c6.5-14.1,11.7-30.1,15.5-45.4c0.6-4.3-1.3-9.9,0.9-12.7c8-10.7,6.5-35.1,1.6-46.5c-3.7-6.7-1.8-11.5,1.8-16.8
		c6.5-11,3-28.8,4.6-41.6c-6.2-12.7-3.4-13.5,0-26c7.9-45.1,5.4-91.2,5.9-136.8c2-18.2-5.5-37.2,7-53.6c3.3-4.1,4.8-9.6,6.7-14.7
		C2204.6,63.3,2201.8,60.8,2196.8,62.9z M1917.6,433.4c-3.2-36.3-8.8-72.3-15.9-108.1c-0.9-14.5,2.4-29.4,1.1-43.9
		c-0.9-12.3-4.4-24.5-6.4-36.8c-5.6-38.5-10.8-77.1-19-115.1c-4-18.4-6.4-37-8.7-55.7c-0.6-4.7,1.5-11.9-7.3-14.5
		c-1.7,11.3-6.5,16.9-12.4,25.6c-4.3,12.1-7.7,24.6-11.9,36.8c-26.6,66.1-47.6,133.2-70.6,200.8c-2-22.5-16-41.2-14.1-64.3
		c-2.5-8.9-3.5-18.5-5.4-27.6c-2.1-12-3.2-24.3-10.4-34.8c-1.2-1.8-2-4.1-2.5-6.3c-3.4-14.8-6.7-29.7-10.1-44.5
		c-0.6-7.5-7.4,2.9-8.4-13.5c-2.8-13.7-6.2-27.1-13.4-39.3c-2-3.4-3.9-7.5-3.9-11.2c0-13.6-7.2-24.3-13-37.2
		c-14,30.4-14.9,61.6-22,93.5c-4.7,22.2-11.3,44-14.2,66.8c-3.7,31.6-20.9,60.6-23.1,92.5c-1.5,25.2-12.9,48.4-19.1,72.6
		c-4.1,25.4-10.8,50.5-16.4,75.5c-1.5,12.6-4.5,23.8-15,32.1c-6.2,5.6-13.4,10.8-15.8,19.3c44.6-1.5,87.5-3,132.8-4.6
		c-10.9-15.3-34-21.5-27.8-43.4c1.9-6,2.5-12.5,3.1-18.9c0.1-31.4,8.6-61.5,14.6-92c2.9-20.7,6.5-41.4,10.1-62
		c0.9,0.1,1.8,0.1,2.7,0.2c11.4,44.9,23,90,36.7,134.3c3.8,10.4,6.1,20.7,6.4,31.8c1.6,12.1,8.3,24,9.6,36.2
		c1.7,18.5,3.1,37.2,12,53.9c2.6-2.2,3.8-4,4-5.9c1.7-20.6,2.1-41.2,6.2-61.5c0.7,0.1,1.5,0.3,2.2,0.4c0.2,2.6,0.3,5.2,0.6,9.4
		c16.4-9.1,7.1-32.3,14.8-46.7c4-9.4,5.5-18.5,4.9-28.2c-1.3-11.5,7.2-13.4,8.5-20.6c-2.7-8.2,0.6-15.4,3.5-22.6
		c8.7-21.6,17.8-43,26.8-65c5.8,51.7,18.4,102.7,23.5,154.7c1.9,31.2,3,62.9,17.5,91.4c0.6-0.2,1.2-0.4,1.8-0.7
		c0.2-3.1,0.5-6.1,0.9-11.1c5.1,13,5.5,24.6,13.1,34.5c5.8-6.3,3.3-14.7,3.7-22.5c4.2,9.3,7.2,18.8,9.9,28.4
		c1.2,4.3,3.3,6.5,6.5,5.7c1.8-29.8,3.6-58.7,5.4-87.7c0.6,0.3,1.3,0.7,1.9,1c1.2-1.9,3.4-3.7,3.4-5.6
		C1918.9,463.8,1919,448.5,1917.6,433.4z"/>
</g>
</svg>
