<?xml version="1.0" encoding="utf-8"?>
<!-- Generator: Adobe Illustrator 23.0.3, SVG Export Plug-In . SVG Version: 6.00 Build 0)  -->
<svg version="1.1" id="Layer_1" xmlns="http://www.w3.org/2000/svg" xmlns:xlink="http://www.w3.org/1999/xlink" x="0px" y="0px"
	 viewBox="0 0 289.2 238.1" style="enable-background:new 0 0 289.2 238.1;" xml:space="preserve">
<style type="text/css">
	.st0{clip-path:url(#SVGID_2_);fill:#FFFFFF;}
	.st1{fill:#FFFFFF;}
	.st2{clip-path:url(#SVGID_4_);fill:#FFFFFF;}
	.st3{display:none;opacity:0.3;fill:#FFFFFF;stroke:#000000;stroke-miterlimit:10;enable-background:new    ;}
	.st4{display:none;}
	.st5{display:inline;opacity:0.3;enable-background:new    ;}
</style>
<g>
	<g>
		<g>
			<g>
				<g>
					<g>
						<defs>
							<path id="SVGID_1_" d="M-36.7,49.9c-4.4,4.3-10.3,6.3-15.9,8.2c-6.3,2.1-12.6,4.2-18.9,6.3c-4.3,1.4-8.6,2.9-13,3.5
								c-6.7,0.9-13.5-0.1-20.3,0c-13.1,0.3-26,5.4-36.4,14.2c-7.7,6.5-14.3,17.1-11.3,27.2c3.1,10.4,15.2,14.6,24.9,12.2
								s17.8-9.5,26.1-15.6s18-11.5,27.8-9.8c2.5,5.3-3.1,11.4-2.4,17.4c0.6,4.6,4.9,7.6,9.1,8.5s8.5,0.4,12.7,1.3
								C-43,125.8-36.1,138-30.5,149c3.5,6.9,7,13.9,10.5,20.8c4.6,9.1,9.4,18.8,8.9,29.2c-0.3,7.1-3,14.7,0.2,21
								c2.4,4.7,7.5,7,12.4,7.6c11.7,1.3,23.5-6,29.5-17s12.2-45.3,2.6-37.2c-11.2,9.7-11.5,14.1-11.2,11.7
								c0.2-1.7,11.9,16.5,12.7,15c8.2-15,33.7,43,41.9,28c7.7,14.7,5.7-11.2,14.6-8c15.5,5.6,8.7-1.1,24.2-1
								c19,0.1,30.5-12.5,30-20c-0.5-7.1-29.4-12.1-33-18c-2.6-4.2-1-10.9-1-16c0-16.7-15.1-38.2-19.1-57c-0.6-2.9-0.8-6-0.1-8.9
								c0.8-3.2,0.7-1.1,3.1-3.1c8.8-7.1,23.7-8.3,33-2c2.4,1.6,5.2-0.3,8-0.6c-0.4-12.9-0.7-25.8-1.1-38.7
								c-0.3-9.8-0.6-19.7-3.8-28.8c-3.3-9.1-10.1-17.3-18.8-18.9c-9.4-1.8-18.5,4.1-27.5,7.4c-10.9,4-22.5,4.4-33.9,4.8
								C34.7,19.9,17.1,16.5,0.8,21c-6.6,1.8-14.6,5.7-29.1,6.3C-36.3,27.7-29.7,43.2-36.7,49.9z"/>
						</defs>
						<clipPath id="SVGID_2_">
							<use xlink:href="#SVGID_1_"  style="overflow:visible;"/>
						</clipPath>
						<path class="st0" d="M90.6,87.4c0,0,1.6-3,3.7-7.1c6.2,6.4,3.4,13.2,6.5,14.8c0.7,0.3,12.3,1.7,12.9,2c0-0.1,0.1-0.2,0.1-0.3
							c1.2-2.1,2.9-3.7,4.8-5l0.1-0.1c1.1-1-2.3-1.1-1-1.6c-2.4-3.5-2.3-9-3-12c-1.6-6.6-2.5-16.4-6-25.3c2.3-6.1,3.4-11.9,3.4-11.9
							s6.7,11.2,7.7,18.2c0.7,4.7,4,18,0,31c2.1-0.3,14.5-1.8,16.6-1.9c1.1-9.6-3.2-27.8-3.5-29.6c-0.5-2.4-11.8-24.3-11.8-24.3
							s1.5-14.8-4.9-14.9c-6.4,0-10.3,7.2-10.3,7.2s-2.3,4.7-5.2,11c-4.2-6.4-7.9-12.7-12-11.9c-4.9,1-9.8,3.6-9.8,3.6
							s-8.8,0.5-14.7,1.7c-5.9,1.2,5.1,3.2-4.3,2.9s-13.5,1.7-16.5,0.2c-2.9-1.5-2.9-1.5-2.9-1.5l-3.1-1.5l-2,2.9l-2.5-2.5
							c0,0,0.5,4.6-2.9,6.6s-3.4,7-3.4,7s4.3,7,8.2,15c-1.3,0.3-4.9,1.7-5.3,1.9c-3.1,1.5-9.3,5.6-9.3,5.6s-0.3-3.5-6.1,2.5
							c-3.6,3.7,29.3,43.3,50.5,83.3c17.2,32.7,58.2,51.7,58.2,51.7s-36-22-54-54c-21.1-37.6-51.2-74.9-46-76l15-8
							c12.7,14-0.6-4.3,0,0c1,7.5,20.7,46.1,38.6,80.1c15.3,29.1,35.4,42.9,35.4,42.9s-18.2-15.1-32-46c-12.8-28.7-27-60.6-34-77
							c-3.4-9,2-2,5.8-3.1c8.2-2.4-3.7-1.4,2.4-1.2C47.5,69,32.2,84.1,22.7,97.4C10.4,114.8,11,109.8,11,120.2
							c0,4.9,22.7,19.8,37.4,42.9c18.5,29,83.2,52.8,87.4,51c-1.1,2.8-67.2-24.9-85-53.7c-9.3-15.1-21.5-25-24-28.3
							c-3.3-4.4-8.4-15.4-8.4-15.4s2.5,1,3.9-2.5c1.5-3.5,9.8-16.6,13.7-19.4c3.9-2.9,10.8-6.8,10.8-6.8s6.4-11.3,10.3-12.6
							c2.8-0.9,9.5-7.2,13.2-10.9c12.2,2.6,15.8,7.3,15.8,7.3c-2,5.4-3.1,8.5-4.4,10.8c-2,3.3-2.9,6.3-2.9,6.3s4.9,11,3.9,27.9
							s0,21.8,1.5,25.8s21.6,26.5,21.6,26.5s-15.7-25-15.2-30S90.2,90.7,90.6,87.4z M101.5,66.8c2.1,4.7,4.1,9.7,6.3,14.7l-8.2-11.2
							C100.2,69.1,100.9,67.9,101.5,66.8z M68.9,45.2c0,0,1.7,2.1-2.7,2.9c-4.4,0.8-9.7,5-9.7,5s13.4,0.6-1.3,2.4
							c-9.8,1.2-2,1.1-13,2.6c-1.7-11.9-5.6-13.9-4-16l9.7,3c0,0-8.3,0.7,7.3-0.9c10.7-1.1,9.2-2.1,14.9-2.5
							C69.4,43.5,68.9,45.2,68.9,45.2z M80.7,47c-1.4-1.5-2.6-3.6-3.8-5.4c4.1,0.3,7.1,1.3,10.2,3.6c2.5,2,4.7,4.4,6.7,7.2
							c-1,2.2-1.9,4.4-2.8,6.4C88.5,55.8,82.9,49.4,80.7,47z"/>
					</g>
				</g>
			</g>
		</g>
		<circle class="st1" cx="142.8" cy="174.1" r="30"/>
		<path d="M162.6,179c-0.1-0.6-0.2-1.2-0.3-1.7c-0.2-0.8-0.3-1.6-0.3-2.5c0.1-1.3-0.5-2.2-1.7-2.8c-0.4-0.2-0.8-0.5-1.1-0.8
			l-0.1-0.1c-0.4-0.4-0.8-0.9-1-1.3c-0.2-0.7-0.3-1.4-0.4-2.1c0-0.2,0-0.4-0.1-0.6c0-0.1,0-0.3,0.1-0.4v-0.1c1-0.2,1.6-0.1,2.3,0.1
			c0.1,0,0.2,0,0.3,0.1c0,0.2,0,0.5,0,0.8c0,0.7,0,1.7,0.7,2.1c0.2,0.1,0.4,0.1,0.5,0c0.7-0.5,0.6-1.4,0.5-2c0-0.2-0.1-0.4-0.1-0.6
			c-0.1-2-0.6-2.2-3.3-2.2c-1.1,0-2,0.4-2.5,1c-0.3,0.4-0.4,0.8-0.4,1.2v0.6c0.1,0.6,0.1,1.3,0.1,2c0,1.8,0.9,3,2.7,3.7
			c1.7,0.7,1.9,1.7,1.8,2.6c0,0.5,0,1.1,0.1,1.6c0,0.3,0.1,0.7,0.1,1c0,0.6,0,1.2,0,1.8c0,0.2,0,0.4,0,0.6c-1,0.3-1.6,0.3-1.8,0
			c-0.2-0.2-0.2-0.5-0.2-1c0-1.3,0-2.7,0-4v-0.9c0-0.1,0.1-0.3,0-0.5s-0.3-0.3-0.6-0.3l0,0c-0.6,0-0.8,0.6-0.8,0.8v0.1
			c-0.1,0.2-0.2,0.5-0.3,0.7c-0.3,0.7-0.6,1.4-0.4,2.1c0.2,0.8,0.3,1.6,0.3,2.5c0,0.3,0,0.7,0.1,1c0,0.5,0.5,1,0.8,1.2
			s0.8,0.3,1.4,0.3c0.8,0,1.8-0.2,2.4-0.5c0.5-0.2,0.7-0.5,0.8-0.9c0-0.2,0.1-0.4,0.1-0.6C162.6,180.2,162.7,179.6,162.6,179z
			 M153.2,165.4v-0.2H153c-0.1,0-0.2,0-0.4-0.1c-0.3-0.1-0.6-0.1-1-0.1c-1.4,0.2-2.7,0-4.1-0.2c-0.3-0.1-0.6-0.1-0.9-0.1
			c0,0-0.8-0.1-1.1,0.2c-0.2,0.3-0.3,0.9,0,1.1c0.3,0.3,0.8,0.7,1.3,0.9c0.3,0.1,0.7,0.2,1.1,0.3c0.1,0,0.3,0,0.4,0.1
			c0,0.1,0,0.3,0,0.4c0,0.4-0.1,0.9-0.1,1.3c0,0.4,0.1,0.8,0.2,1.2c0,0.2,0.1,0.5,0.1,0.7c0,0.1,0,0.2,0,0.3s0,0.2,0,0.3
			c0,0.8,0,1.1,0,1.4c0,0.2,0,0.5,0,0.8s0,0.5,0.1,0.8c0,0.3,0.1,0.6,0.1,0.8c0,0.4,0,0.9,0,1.3c0,0.6,0,1.3,0,1.9
			c0.1,0.9,0.2,1.8,0.4,3v0.2c0,0.4,0.1,1,0.7,1h0.1c0.2,0,0.3-0.1,0.4-0.2c0.5-0.4,0.5-1.7,0.6-3.4c0-0.3,0-0.7,0-1
			c0.2-4.3,0-5.6-0.3-9c-0.1-0.5-0.1-1.1-0.2-1.8c0.2,0,0.3,0,0.4,0c0.5,0,0.9-0.1,1.3-0.1c0.7-0.1,1.1-0.2,1.3-0.5
			C153.4,166.5,153.4,166.1,153.2,165.4z M141,165c-0.9-0.3-1.8,0-2.7,0.1c-0.3,0-0.7,0.1-0.9,0c-0.4-0.2-0.7-0.1-1.1,0.1
			c-1.4,0.7-1.4,0.8-0.3,1.8c0,1.1,0.1,2.1,0,3.2c-0.1,1-0.1,2-0.9,2.7v0.2c0.2,0.4,0.8,0.5,0.8,1.1c0,1.5,0.1,3.1,0.1,4.6
			c0,1.2,0.2,2.4,0.9,3.4c0.6-0.3,0.8-0.8,0.9-1.3c0.2-1.4,0.4-2.9,0.2-4.4c-0.1-0.9-0.1-1.8-0.2-2.8c1.2-0.2,1.8-0.4,2-1.4
			c-0.6-0.6-1.4-0.5-2-0.7c0-1.5,0-3.1,0-4.4c1.1-0.2,2.1-0.4,3-0.7c0.6-0.1,1-0.5,1.1-1.2C141.6,165.2,141.3,165.1,141,165z
			 M129.6,165.1c-1,0-1,2.4-1.2,3.6c-0.2,1.3-0.2,2.6-0.3,3.8c-0.1,1.1-0.1,2.3-0.2,3.4c-0.8-1.8-1.3-3.6-1.8-5.4
			c-0.1-0.3-0.2-0.5-0.3-0.8c-0.4-1-0.7-2-1.1-3c-0.2-0.5-0.2-1.3-0.8-1.4c-1.2-0.3-1.3,1.5-1.3,2.4c0,1.2-0.1,2.1-0.1,3.5
			c-0.2,3.4-0.5,6.8-0.4,10.3c0,0.4,0,0.5,0.3,0.8c0.1,0.1,0.7,0.1,0.7-0.1c0.9-3.7,0.9-5.2,1.4-8.1c0.3,0.3,0.4,0.6,0.5,0.9
			c0.8,2,1.6,3.9,2.4,5.9c0.3,0.7,0.6,1.7,1.6,1.5c1.3-0.2,1.1-2.4,1.1-3.7c0.1-2.2,0.2-4.3,0.3-6.5c0.1-1.9,0.1-3.8,0.2-5.7
			C130.7,165.6,130.6,165.1,129.6,165.1z"/>
		<path class="st1" d="M156.2,105.6c0.5-1.1,0.9-2.2,1.2-3.3h0.3c0.1,0.8,0.2,1.7,0.2,2.6s0,1.7-0.1,2.6s-0.2,1.9-0.4,2.8
			c-0.2,1-0.3,1.9-0.4,2.9c-0.1,0.5-0.1,1-0.1,1.5s-0.1,1-0.1,1.5c-0.1,0.6-0.3,1-0.8,1.2s-1.1,0.3-1.7,0.3c-0.6,0-1.2,0-1.6,0
			c0.5-1.5,1-2.9,1.6-4.3s1-2.9,1.1-4.4C155.4,107.8,155.7,106.7,156.2,105.6z M142.6,131.6c0,0.9,0.1,1.8,0.4,2.7
			c0.3-0.3,0.5-0.7,0.6-1.1c0.1-0.4,0.3-0.8,0.5-1.1c0.5-0.8,1.1-1.5,1.7-2.2c0.7-0.7,1.3-1.4,1.9-2.1l0.2,0.1
			c-0.2,0.4-0.3,0.9-0.4,1.6c0,0.5-0.1,0.9,0,1.3c0,0.4,0.1,0.9,0.1,1.4c0.5-0.3,1-0.9,1.3-1.7s0.6-1.7,0.8-2.7s0.4-2,0.6-2.9
			c0.2-1,0.4-1.7,0.6-2.3l0.2,0.1c0,0.6,0,1.3,0,1.9c0,0.7,0,1.3,0.1,2l0.2,0.4c0.4-0.4,0.6-0.9,0.6-1.5s0.1-1.1,0.5-1.5h0.3
			c0.1,0,0.3-0.2,0.6-0.5c0.2-0.4,0.4-0.6,0.5-0.8l0.2,0.1l0.2,1.8l0.2,0.1c0.1-0.2,0.3-0.4,0.6-0.8s0.5-0.6,0.7-0.5h0.3l-0.5,4.6
			h0.2l0.6-0.6c0,0.5,0,1.3,0,2.2s0.1,1.8,0.2,2.7c0.1,0.9,0.3,1.5,0.6,2l0.3-0.3c0.3-0.8,0.5-1.6,0.7-2.4c0.2-0.8,0.4-1.6,0.6-2.4
			l0.8,1.7h0.3c0.2-0.7,0.3-1.4,0.4-2.1c0.1-0.7,0.2-1.4,0.3-2.1c0-0.4,0.2-0.7,0.5-0.9s0.5-0.5,0.5-0.9c0.1-0.9,0.2-1.8,0.2-2.7
			c0.1-0.9,0.2-1.8,0.2-2.7c0-0.5,0-0.9,0-1.4c-0.1-0.4-0.1-0.9,0-1.3c0-0.2,0.1-0.3,0.1-0.5c0.1-0.2,0.1-0.3,0.1-0.5
			c0.2-2.3,0.4-4.7,0.4-7.1s0.2-4.8,0.4-7.1c0.1-0.7,0.3-1.3,0.8-1.7c0.4-0.4,0.9-0.8,1.5-1.1c0.5-0.3,0.9-0.8,1.2-1.4
			c-0.3-0.1-0.5-0.1-0.6-0.2c-0.7-0.1-1.4-0.1-2.1,0c-0.7,0.1-1.4,0.1-2.1,0.1c-1.5,0.1-2.9,0.1-4.4,0s-2.9-0.1-4.3-0.2
			c-0.5,0-1.1-0.1-1.8-0.1c-0.7-0.1-1.3,0-1.7,0.1c-0.2,0.1-0.4,0.2-0.6,0.4c0,0.3,0.2,0.6,0.6,0.7c0.4,0.2,0.8,0.3,1.3,0.5
			s0.9,0.4,1.2,0.8s0.5,0.9,0.4,1.7c0,0.4-0.2,0.6-0.6,0.8c-0.6,1-1.1,2.2-1.5,3.5s-0.7,2.5-0.8,3.7c0,0.2,0,0.3,0,0.5s0,0.3,0,0.5
			s-0.1,0.4-0.2,0.5c-0.6,0.6-1.1,1.5-1.5,2.6c-0.5,1.1-0.8,2.3-1.1,3.4c-0.3,1.2-0.5,2.2-0.6,3c0,0.2,0,0.3,0,0.4s0,0.2,0,0.4
			s-0.1,0.2-0.1,0.3c-0.1,0.1-0.1,0.2-0.2,0.3c-0.5,0.9-0.8,1.6-0.9,2.3c-0.1,0.7-0.3,1.3-0.5,1.8s-0.5,1-1,1.5s-1.3,0.9-2.5,1.4
			v0.2l1.8,0.7C142.6,129.7,142.6,130.7,142.6,131.6z"/>
		<path class="st1" d="M122.7,131.3c0.6-0.1,1.3-0.2,1.9-0.3s1.3-0.2,1.9-0.3c0.8-0.1,1.5,0.1,2,0.5c0.6,0.4,1,1,1.2,1.7
			c0.1-0.2,0.2-0.5,0.4-1c0.2-0.4,0.3-0.9,0.5-1.3c0.2-0.4,0.4-0.6,0.7-0.6c0.4,0,0.9,0.2,1.6,0.6c0.7,0.4,1.2,0.7,1.6,0.9l0.3-0.2
			c0.5,0,1,0.2,1.4,0.5c0.5,0.4,0.9,0.8,1.3,1.3c0.4,0.5,0.7,0.8,1.1,1.1c0-0.4,0.1-1.1,0.1-2s0-1.7,0.1-2.6c0-0.8,0.2-1.4,0.4-1.7
			v-0.2c0-0.4-0.1-0.8-0.2-1.2c-0.1-0.4-0.2-0.8-0.2-1.2c-0.1-0.5-0.1-1.2-0.2-1.9c0-0.8-0.1-1.5-0.3-2.3c-0.1-0.8-0.4-1.3-0.7-1.7
			c-0.7,0.5-1.1,1.2-1.2,1.8c-0.1,0.7-0.2,1.4-0.3,2c-0.1,0.7-0.3,1.3-0.7,1.9c-0.3,0.4-0.7,0.7-1.2,1c-0.5,0.2-1,0.4-1.4,0.7
			c-0.1-0.3-0.3-0.7-0.7-1.1c-0.4-0.5-0.7-0.8-0.9-1.1c0-0.1,0-0.3,0-0.4s0-0.2,0-0.4c0-0.3-0.1-0.7-0.2-1c-0.1-0.3-0.2-0.6-0.2-1
			c0-0.3,0-0.6,0.2-1c0-0.4,0-0.8-0.1-1.2s-0.1-0.8-0.1-1.2s0-0.7,0-1.2c0.1-0.4,0.2-0.8,0.4-1.1c0.7,0,1.3,0.2,1.8,0.7
			c0.5,0.4,0.8,1,1.1,1.6s0.6,1.2,0.9,1.7c0.4-0.7,0.6-1.4,0.5-2.3c0-0.4-0.1-0.7-0.2-1.1s-0.2-0.7-0.2-1.1
			c-0.1-1.1-0.1-2.3-0.1-3.4s0-2.3-0.1-3.4c0-0.3,0-0.5-0.1-0.8c0-0.3-0.1-0.5-0.3-0.7c-0.5,0.3-0.9,0.7-1,1.2
			c-0.2,0.5-0.4,1-0.5,1.5c-0.2,0.5-0.4,0.9-0.8,1.3c-0.3,0.4-0.9,0.6-1.7,0.6c-0.1-0.5-0.1-1-0.2-1.5s-0.1-1-0.1-1.6
			c-0.1-1.3-0.2-2.6-0.2-4c0-1.3,0-2.6,0.2-3.9l0.3-0.1c0.4,0,0.8,0.2,1,0.6s0.4,0.7,0.6,1c0.2-0.3,0.3-0.6,0.4-1
			c0.1-0.3,0.2-0.7,0.3-1h0.3c0.1,0.6,0.3,1.2,0.6,1.8c0.3,0.5,0.5,1.1,0.5,1.8c0,0.3,0.2,0.4,0.4,0.4c0.3,0,0.5-0.3,0.6-0.8
			s0.2-0.9,0.2-1.1h0.3c0,0.1,0,0.3,0,0.4s0,0.2,0,0.4c0.1,0.7,0.2,1.4,0.6,2c0.3,0.6,0.7,1.2,1.1,1.8c0.1-0.3,0.1-0.6,0.2-0.9
			c0-0.3,0.1-0.6,0.1-0.9c0.3-1.7,0.6-3.3,0.8-5c0.3-1.7,0.6-3.3,0.9-5c-1.3,0.1-2.7,0.3-4.5,0.5c-1.7,0.2-3.5,0.4-5.3,0.6
			c-1.9,0.2-3.6,0.5-5.2,0.8s-3,0.7-4.1,1.1c0,0.4,0.2,0.7,0.6,0.9c0.4,0.2,0.8,0.4,1.2,0.7s0.8,0.7,1,1.3c0.2,0.5,0.4,1,0.4,1.6
			c0.1,0.6,0.1,1.1,0.2,1.6l0.7,9.3c0,0.5,0,0.9,0,1.4s-0.1,0.9-0.1,1.4c-0.1,1.4-0.2,2.8-0.1,4.1c0.1,1.4,0.2,2.8,0.3,4.1
			s0.1,2.1,0,2.6s-0.2,0.9-0.5,1c-0.2,0.2-0.5,0.4-0.8,0.7s-0.6,0.9-1,1.7L122.7,131.3z"/>
		<path class="st1" d="M100.3,102.6c0.4,0.2,0.9,0.5,1.3,0.7c0.5,0.2,0.7,0.5,0.8,0.9c0.4,1.4,0.6,2.9,0.7,4.5
			c0.1,1.5,0.3,3,0.4,4.5c0.1,1.3,0.3,2.7,0.4,4s0.2,2.7,0.4,4.1c0,0.4,0.2,0.8,0.3,1.2c0.2,0.4,0.3,0.8,0.4,1.2
			c0.1,0.9,0.2,1.7,0.3,2.6c0.1,0.9,0.2,1.7,0.4,2.6c0.1,0.3,0.2,0.5,0.3,0.7c0.1,0.2,0.2,0.5,0.3,0.7c0.2,0.9,0.4,1.8,0.6,2.6
			c0.2,0.9,0.4,1.7,0.6,2.6c0.2,0.6,0.3,1.3,0.4,1.9c0.1,0.6,0.2,1.3,0.5,1.9c0.4-0.7,0.7-1.6,0.8-2.4c0.2-0.9,0.4-1.7,0.6-2.5
			s0.5-1.5,0.8-2c0.2-0.3,0.3-0.5,0.2-0.8c0-0.4-0.2-0.7-0.4-0.9c-0.2-0.2-0.3-0.5-0.4-0.8c0-0.4,0-0.8,0.3-1.2
			c0.2-0.4,0.3-0.8,0.3-1.2c0-0.2,0-0.3-0.1-0.3c-0.2-0.1-0.3-0.3-0.3-0.5c-0.1-0.2-0.1-0.4-0.1-0.6c0-0.3,0-0.6,0.1-0.9
			s0.1-0.6,0.1-0.9c0.1-0.9,0-1.7-0.1-2.4s-0.1-1.6,0.3-2.4c0.3,0,0.7,0,1,0s0.6,0.2,0.8,0.5c0.4,0.5,0.8,1,1.1,1.6s0.6,1.2,1,1.7
			l0.2-0.2c0-0.3,0.1-0.6,0.2-1s0.1-0.7,0.1-1s-0.1-0.6-0.2-0.9s-0.1-0.6-0.2-0.9c-0.1-0.5-0.1-0.9-0.1-1.3s0-0.9,0-1.3
			c-0.1-1.9-0.2-3.7-0.5-5.6c0-0.1-0.1-0.2-0.3-0.4c-0.4,0.3-0.7,0.7-0.9,1.2s-0.4,1-0.6,1.5s-0.4,0.9-0.8,1.3
			c-0.3,0.4-0.9,0.6-1.6,0.7c-0.2-1-0.4-2-0.5-3.1c-0.1-1-0.2-2.1-0.2-3.1s0.1-2.1,0.3-3l1.1,0.3c0.1-0.3,0.3-0.7,0.6-0.9
			c0.3-0.3,0.7-0.4,1-0.5c0.1,0,0.3,0,0.4,0s0.3,0,0.4,0c0.2,0,0.4-0.1,0.6-0.2s0.4-0.2,0.6-0.2s0.3,0,0.5,0.1s0.3,0.2,0.4,0.3
			c0.1,0.1,0.2,0.1,0.4,0.2c0.1,0.1,0.2,0.2,0.2,0.2c0,0.1,0,0.3,0,0.4s0,0.3,0,0.5c0.1,0.5,0.2,0.9,0.4,1.1
			c0.2,0.2,0.5,0.4,0.8,0.6s0.5,0.5,0.6,0.8c-0.2-1.8-0.1-3.5,0.1-5.2s0.5-3.4,0.9-5.1l-1,0.1c-1.3,0.1-2.5,0.3-3.7,0.6
			s-2.4,0.5-3.7,0.7c-1.6,0.3-3.3,0.5-5,0.8s-3.4,0.6-5,1c-0.1,0-0.2,0-0.3,0.1c-0.2,0.1-0.2,0.1-0.2,0.2
			C99.6,102.1,99.8,102.4,100.3,102.6z"/>
		<path class="st1" d="M174.2,107c0.1-0.4,0.2-0.7,0.3-1c0.2-0.3,0.4-0.4,0.7-0.4s0.6,0.3,0.8,0.9s0.4,1.3,0.5,1.9
			c0.1,0.7,0.2,1.2,0.2,1.4l0.3,0.1c0.2-0.4,0.4-0.7,0.4-1.2c0-0.4,0-0.8,0-1.2c0-0.3,0.1-0.7,0.2-1c0.1-0.3,0.3-0.5,0.6-0.7
			c0.2,0.3,0.4,0.6,0.8,1c0.4,0.4,0.7,0.8,1,1.2s0.4,0.7,0.4,1s-0.1,0.7-0.2,1c-0.1,0.3-0.2,0.7-0.2,1c-0.2,1.1-0.5,1.9-0.8,2.4
			s-0.7,0.9-1.1,1.3c-0.5,0.4-1.1,0.9-1.9,1.6c-0.2-0.1-0.4-0.4-0.4-0.7s0-0.6,0-0.8c-0.4,0.2-0.7,0.5-0.8,0.9s-0.3,0.8-0.4,1.2
			c-0.1,0.4-0.4,0.7-0.9,0.9c0-1.7,0-3.4,0.1-5.1s0.2-3.4,0.3-5.1C174.1,107.6,174.1,107.3,174.2,107z M163,135
			c0.2,0,0.4,0.1,0.6,0.1c0.2,0,0.4,0.1,0.7,0.1c0.6,0,1.1,0,1.7,0c0.6,0,1.2,0,1.8,0c0.8,0,1.5,0.1,2.3,0.3
			c0.7,0.1,1.5,0.2,2.3,0.3c0.5,0,1,0,1.5-0.1c0.6-0.1,1.1-0.2,1.5-0.3c-0.1-0.3-0.3-0.5-0.7-0.8s-0.7-0.5-1-0.8s-0.4-0.5-0.4-0.6
			c0.1-0.9,0.1-1.7,0.2-2.6c0.1-0.9,0.2-1.7,0.2-2.6c0-0.2,0-0.4-0.2-0.6c-0.1-0.2-0.2-0.5-0.2-0.8l0.1-2c0-0.5,0.1-1,0.3-1.5
			s0.6-0.7,1.4-0.6c0.2,0,0.7,0.2,1.2,0.5c0.6,0.3,0.9,0.6,1.1,0.8c0,0.1,0.1,0.4,0.1,0.9c0.1,0.6,0.1,1.2,0.2,1.9
			c0,0.7,0.1,1.4,0.1,2s0,1,0,1.1c0,0.2-0.1,0.5-0.1,0.7c-0.1,0.2-0.1,0.5-0.1,0.7c0,0.1,0,0.3,0,0.5s0,0.3,0.1,0.5
			c0,0.6,0,1.2,0,1.7c0,0.6-0.1,1.2,0,1.7c0,0.8,0,1.5,0.1,2.3c0.1,0.7,0.1,1.5,0,2.2c0,0.4,0.1,0.8,0.3,1.1s0.3,0.7,0.4,1.1
			c0,0.5,0,0.9,0,1.4s0,0.9,0,1.4l0.5-0.3c0.4-1.4,0.7-2.9,1-4.3c0.3-1.4,0.5-2.9,0.8-4.3l0.6,0.5c0.4-1.3,0.7-2.6,1-4
			c0.3-1.3,0.6-2.7,1.1-4c0.1-0.2,0.1-0.5,0.1-0.8s0-0.6,0-0.8c0-0.3,0.1-0.6,0.2-0.9s0.2-0.6,0.2-0.9s0-0.5,0-0.7s-0.1-0.4,0-0.7
			c0-0.3,0.1-0.6,0.3-0.9s0.2-0.6,0.3-0.9c0-0.2-0.2-0.5-0.7-0.9c-0.5-0.3-1-0.7-1.5-1s-0.9-0.5-1.1-0.7c0.1-0.1,0.5-0.4,1-0.7
			s1-0.7,1.4-1s0.6-0.6,0.6-0.7v-0.2v-0.2c0-0.4,0.1-0.7,0.3-1s0.3-0.6,0.4-1c0-0.2,0.1-0.5,0.1-0.7s0.1-0.4,0.2-0.7
			c0.1-0.3,0.3-0.6,0.4-1c0.1-0.3,0.2-0.7,0.2-1c0-0.2,0-0.3-0.1-0.5c0-0.2-0.1-0.3-0.1-0.5c0-0.1,0.1-0.4,0.3-0.8s0.4-0.9,0.6-1.5
			c0.2-0.6,0.3-1.2,0.4-1.8v-0.4c-0.2-0.4-0.5-0.7-0.8-0.9c-0.3-0.3-0.6-0.6-0.9-0.9c-0.2-0.3-0.4-0.5-0.5-0.7s-0.4-0.4-0.8-0.4
			c-0.2-0.1-0.5-0.1-0.7-0.2c-0.2,0-0.3-0.2-0.3-0.4s-0.1-0.3-0.2-0.4c-0.5-0.2-0.7-0.5-0.6-0.9c-0.1-0.1-0.4-0.4-0.7-0.9
			c-0.3-0.4-0.6-0.7-0.7-0.7c-1.1-0.1-2.2,0-3.3,0.2s-2.2,0.4-3.3,0.5l1.4-1.7l-0.1-0.2c-0.4,0.1-1.1,0.2-2.1,0.5s-2,0.6-3.2,0.9
			c-1.1,0.4-2.1,0.7-3,1s-1.4,0.6-1.7,0.9c0.1,0.1,0.3,0.2,0.4,0.3c0.6,0.2,1.1,0.4,1.6,0.4c0.4,0.1,0.7,0.2,0.9,0.4
			s0.3,0.7,0.2,1.4c0,0.5,0,0.9,0,1.4s0,0.9,0,1.4c-0.1,0.9-0.1,1.8-0.3,2.7c-0.1,0.9-0.2,1.8-0.3,2.7c0,0.5,0.2,0.8,0.7,1.1
			c-0.3,0.3-0.5,0.6-0.6,1s-0.2,0.8-0.2,1.2s0,0.7,0,1.1s0,0.8,0,1.1c0,0.7-0.1,1.4-0.3,2.2c-0.2,0.7-0.3,1.4-0.3,2.2
			c-0.1,1,0,2,0,3c0.1,1,0.1,2,0,3c0,0.1-0.1,0.2-0.3,0.4s-0.3,0.4-0.4,0.5c-0.3,0.9-0.5,1.6-0.6,2c-0.1,0.5-0.1,0.9-0.2,1.2
			c-0.1,0.3-0.3,0.6-0.7,1c-0.4,0.3-1.1,0.8-2.1,1.4L163,135z"/>
		<g>
			<g>
				<g>
					<g>
						<defs>
							<path id="SVGID_3_" d="M323.3,49.9c4.4,4.3,10.3,6.3,15.9,8.2c6.3,2.1,12.6,4.2,18.9,6.3c4.3,1.4,8.6,2.9,13,3.5
								c6.7,0.9,13.5-0.1,20.3,0c13.1,0.3,26,5.4,36.4,14.2c7.7,6.5,14.3,17.1,11.3,27.2c-3.1,10.4-15.2,14.6-24.9,12.2
								c-9.7-2.4-17.8-9.5-26.1-15.6c-8.3-6.1-18-11.5-27.8-9.8c-2.5,5.3,3.1,11.4,2.4,17.4c-0.6,4.6-4.9,7.6-9.1,8.5
								s-8.5,0.4-12.7,1.3c-11.3,2.5-18.2,14.7-23.8,25.7c-3.5,6.9-7,13.9-10.5,20.8c-4.6,9.1-9.4,18.8-8.9,29.2
								c0.3,7.1,3,14.7-0.2,21c-2.4,4.7-7.5,7-12.4,7.6c-11.7,1.3-23.5-6-29.5-17s-12.2-45.3-2.6-37.2c11.5,9.7,11.8,14.1,11.5,11.7
								c-0.2-1.7-11.9,16.5-12.7,15c-8.2-15-33.7,43-41.9,28c-7.7,14.7-5.7-11.2-14.6-8c-15.5,5.6-8.7-1.1-24.2-1
								c-19,0.1-30.5-12.5-30-20c0.5-7.1,29.4-12.1,33-18c2.6-4.2,1-10.9,1-16c0-16.7,15.1-38.2,19.1-57c0.6-2.9,0.8-6,0.1-8.9
								c-0.8-3.2-0.7-1.1-3.1-3.1c-8.8-7.1-23.7-8.3-33-2c-2.4,1.6-5.2-0.3-8-0.6c0.4-12.9,0.7-25.8,1.1-38.7
								c0.3-9.8,0.6-19.7,3.8-28.8c3.3-9.1,10.1-17.3,18.8-18.9c9.4-1.8,18.5,4.1,27.5,7.4c10.9,4,22.5,4.4,33.9,4.8
								c16.9,0.6,34.5-2.8,50.8,1.7c6.6,1.8,14.6,5.7,29.1,6.3C322.9,27.7,316.3,43.2,323.3,49.9z"/>
						</defs>
						<clipPath id="SVGID_4_">
							<use xlink:href="#SVGID_3_"  style="overflow:visible;"/>
						</clipPath>
						<path class="st2" d="M196,139.1c0.5,5-15.2,30-15.2,30s20.1-22.5,21.6-26.5s2.5-8.9,1.5-25.8s3.9-27.9,3.9-27.9
							s-1-2.9-2.9-6.3c-1.3-2.3-2.5-5.4-4.4-10.8c0,0,3.7-4.6,15.8-7.3c3.7,3.6,10.4,9.9,13.2,10.9c3.9,1.3,10.3,12.6,10.3,12.6
							s6.9,3.9,10.8,6.8c3.9,2.9,12.2,16,13.7,19.4c1.5,3.5,3.9,2.5,3.9,2.5s-5.1,11-8.4,15.4c-2.5,3.3-14.7,13.2-24,28.3
							c-17.8,28.8-83.9,56.5-85,53.7c4.1,1.8,68.8-22,87.4-51c14.7-23.1,37.4-38,37.4-42.9c0-10.4,0.6-5.4-11.7-22.8
							C254.4,84,239.2,69,232.6,62.8c6.2-0.1-5.8-1.2,2.4,1.2c3.8,1.1,9.2-5.9,5.8,3.1c-7,16.4-21.2,48.3-34,77
							c-13.8,30.9-32,46-32,46s20.1-13.8,35.4-42.9c17.9-34,37.5-72.5,38.6-80.1c0.6-4.3-12.7,14,0,0l15,8c5.2,1.1-24.9,38.4-46,76
							c-18,32-54,54-54,54s41-19,58.3-51.7c21.2-40,54.1-79.7,50.5-83.3c-5.8-6-6.1-2.5-6.1-2.5s-6.2-4.1-9.3-5.6
							c-0.4-0.2-4.1-1.6-5.3-1.9c3.9-8,8.2-14.9,8.2-14.9s0-5-3.4-7s-2.9-6.6-2.9-6.6l-2.5,2.5l-2-2.9l-2.9,1.7c0,0,0,0-2.9,1.5
							s-7.1-0.5-16.5-0.2s1.6-1.8-4.3-2.9c-5.9-1.2-14.7-1.7-14.7-1.7s-4.9-2.6-9.8-3.6c-4.1-0.8-7.8,5.5-12,11.9
							c-2.9-6.3-5.2-11-5.2-11s-3.9-7.3-10.3-7.2c-6.4,0-4.9,14.9-4.9,14.9s-11.3,22-11.8,24.3c-0.4,1.8-4.6,20-3.5,29.6
							c2.1,0,14.5,1.6,16.6,1.9c-4-13-0.7-26.3,0-31c1-7,7.6-18.3,7.6-18.3s1.1,5.9,3.4,11.9c-3.5,9-4.4,18.7-6,25.3
							c-0.7,3-0.6,8.5-3,12c1.3,0.5-2.1,0.6-1,1.6l0.1,0.1c1.9,1.3,3.6,2.9,4.8,5c0.1,0.1,0.1,0.2,0.1,0.3c0.7-0.3,12.2-1.7,12.9-2
							c3.1-1.6,0.3-8.4,6.5-14.8c2.2,4.1,3.7,7.1,3.7,7.1C196.4,90.7,195.5,134.1,196,139.1z M187,70.3l-8.2,11.2
							c2.2-5,4.2-10.1,6.3-14.7C185.7,67.9,186.4,69.1,187,70.3z M216.4,41.7c5.7,0.4,4.2,1.4,14.9,2.5c15.7,1.6,7.3,0.9,7.3,0.9
							l9.7-3c1.6,2.1-2.3,4.1-4,16c-11-1.5-3.1-1.4-13-2.6c-14.7-1.8-1.3-2.4-1.3-2.4s-5.3-4.2-9.7-5s-2.7-2.9-2.7-2.9
							S217.2,43.5,216.4,41.7z M195.5,58.9c-0.8-2-1.8-4.1-2.8-6.4c2-2.8,4.2-5.3,6.7-7.2c3-2.3,6-3.4,10.2-3.6
							c-1.1,1.8-2.3,3.9-3.8,5.4C203.7,49.4,198.1,55.8,195.5,58.9z"/>
					</g>
				</g>
			</g>
		</g>
	</g>
	<rect x="-15.7" y="-53.4" class="st3" width="320" height="320"/>
</g>
<g class="st4">
	<rect class="st5" width="289.2" height="238.1"/>
</g>
</svg>
