<?xml version="1.0" encoding="utf-8"?>
<!-- Generator: Adobe Illustrator 25.4.1, SVG Export Plug-In . SVG Version: 6.00 Build 0)  -->
<svg version="1.1" id="Layer_1" xmlns="http://www.w3.org/2000/svg" xmlns:xlink="http://www.w3.org/1999/xlink" x="0px" y="0px"
	 viewBox="0 0 1406.2 171.4" style="enable-background:new 0 0 1406.2 171.4;" xml:space="preserve">
<style type="text/css">
	.st0{fill:#FFFFFF;}
	.st1{fill:#D52029;}
</style>
<g id="Layer_1_1_">
	<g>
		<path class="st0" d="M1377.3,64c-0.5,4.6-1.4,9.1-2.4,14.2c-3.3,0-7.1,0-11.3,0c1.4-7.6,3.3-14.2,3.8-20.7
			c0.9-9.6,0.9-18.7,0.9-28.3c0-5.6,0-11.1,0-16.7c8,0.5,8.5,1,9,7.1c0.5,9.1,0,18.2,0,27.3c0,1,0.5,2.5,0.5,3.5
			C1377.8,54.9,1377.8,59.5,1377.3,64z M1387.7,14c-3.8-8.6-9.4-13.2-18.4-11.1c-1.9,0.5-3.8,1-5.7,1c-3.8,0-6.6,2-8.5,6.6
			c2.4,1.5,4.7,2.5,7.6,4.1c-0.5,10.1-1.4,20.7-1.4,31.4c-0.5,10.6,0,21.3,0,32.4c-3.3,1-6.6,1-6.1,5.1c0.5,3,3.3,4.6,6.1,4.6
			c1.9,0,4.2,0.5,6.1,0c11.8-2,11.8-4.1,14.2-12.1c3.8-11.6,4.7-23.8,6.6-35.9C1390.1,30.7,1391.5,22.1,1387.7,14z M1344.3,77.7h-17
			v-0.5c0-0.5-0.5-1-0.5-1.5c-0.5-7.1-0.9-13.7-0.9-20.7l-0.5-5.6c0.5-0.5,0.9-0.5,1.9-0.5c1.4-0.5,2.4-1,3.8-1.5
			c2.8-1,4.2-3,4.2-7.1v-0.5h-9.9V13.9c8-1,11.3-3.5,12.3-9.6V3.8h-0.5l0,0l-0.9-0.5c-5.2,0.5-9,0-12.8-1.5c-1.4-0.5-2.8-0.5-4.2,1
			c-1.9,1.5-3.3,4.1-3.3,6.6c0,0.5,0,1.5,0.5,2c0.5,3,0.9,6.1,0.9,9.1c0,2.5,0,4.6-0.5,7.1c0,1,0,2-0.5,3.5c0,0.5,0,1.5,0,2
			c0,1.5,0,2.5-0.5,4.1c-1.4,6.6-1.4,11.1,0,15.7c0.5,1,0.5,1.5,0.5,2.5v0.5c0,7.6,0,15.7,0.5,23.3c0,3.5,1.4,6.1,3.3,7.6
			c1.4,1,2.8,1.5,4.2,1.5s2.4-0.5,3.8-1c1.9-0.5,3.8-1,5.7-1.5h0.9c0.5,0,1.4,0,1.9,0c0.9,0,1.4,0,2.4,0c3.3-0.5,4.7-2.5,4.7-6.6
			L1344.3,77.7z M1302.3,70.1c-0.5-3-0.9-5.6-1.4-8.1c-0.9-4.1-1.4-8.1-1.4-11.6c0-6.1-2.4-10.1-7.6-13.7c-1.9-1-3.8-2-4.7-3.5
			l-0.5-0.5c-1.9-2-3.8-4.1-4.2-6.6c-0.9-3.5-1.4-7.1-1.9-10.1c0-1,0-2-0.5-3c0-0.5,0-1,0.5-2v-0.5c4.2-1,7.1-0.5,10.4,0.5
			c0.5,0,0.9,0,1.4,0.5c0,1,0,2.5,0,4.1c0,3.5,0,8.1,3.3,10.1c0.5,0.5,1.9,0.5,2.4,0c3.3-2.5,2.8-6.6,2.4-9.6c0-1-0.5-2-0.5-2.5
			c-0.5-9.6-2.8-10.6-14.6-10.6c-4.7,0-9,2-11.3,5.1c-1.4,1.5-1.9,4.1-1.9,6.1v3c0.5,3,0.5,6.6,0.5,9.6c0,8.6,4.2,14.7,11.8,18.2
			c8,3.5,8.5,8.6,8,12.1c0,2.5,0,5.1,0.5,7.6c0,1.5,0.5,3,0.5,4.6c0,3,0,5.6,0,8.6c0,1,0,2,0,2.5c-4.2,1-7.1,1-8,0
			c-0.9-0.5-0.9-2-0.9-4.6c0-6.6,0-13.2,0-19.2v-4.6c0-0.5,0.5-1.5,0-2.5s-1.4-1-2.8-1l0,0c-2.8,0-3.3,2.5-3.8,4.1v0.5
			c-0.5,1-0.9,2-0.9,3c-1.4,3-2.4,6.6-1.9,10.1c0.9,4.1,1.4,8.1,1.4,12.1c0,1.5,0,3,0.5,5.1c0,2.5,1.9,4.6,3.8,6.1
			c1.4,1,3.8,1.5,6.1,1.5c3.8,0,8-1,10.9-2.5c1.9-1,3.3-2.5,3.3-4.1c0-1,0.5-2,0.5-3C1302.3,75.7,1302.7,73.2,1302.3,70.1z
			 M1256,0.3c-5.7-1-7.6,0.5-7.6,6.1c-0.5,11.1-0.9,22.8-0.9,33.9c0,3,0,6.6,0,9.6c0,6.1,0,11.6,0,17.7c0,4.1-0.5,7.6-0.5,11.1
			c0,5.1,0.5,7.6,5.2,7.6c4.2,0,3.8-15.7,4.2-23.3c0.5-9.6,0-19.2,0-28.8c0-2.5,0.5-5.6,0.5-8.1C1257.9,17,1257.9,8.9,1256,0.3z
			 M1225.3,3.3c-4.7,0-4.7,11.6-5.2,17.2c-0.9,6.1-0.9,12.1-1.4,18.7c-0.5,5.6-0.5,11.1-0.9,16.7c-3.8-8.6-5.7-17.2-8-25.8
			c-0.5-1.5-0.9-2.5-1.4-3.5c-1.9-4.6-3.3-9.6-5.2-14.2c-0.9-2-0.9-6.1-3.8-6.6c-5.7-1.5-5.7,7.1-6.1,11.1c0,5.6-0.5,10.1-0.5,16.7
			c-0.9,16.2-1.9,32.9-1.9,49.1c0,2,0,2.5,1.4,3.5c0.5,0.5,2.8,0.5,3.3-0.5c3.8-18.2,3.8-25.3,6.6-39c1.4,1.5,1.9,3,2.4,4.6
			c3.8,9.6,7.1,18.7,10.9,28.3c1.4,3.5,2.8,8.1,7.1,7.1c6.1-1,4.7-11.1,5.2-17.7c0.5-10.6,0.9-20.7,1.4-31.4
			c0.5-9.1,0.5-18.2,0.9-27.3C1230,5.9,1229.5,3.3,1225.3,3.3z M1179,77.7h-17v-0.5c0-0.5-0.5-1-0.5-1.5c-0.5-7.1-0.9-13.7-0.9-20.7
			l-0.5-5.6c0.5-0.5,0.9-0.5,1.9-0.5c1.4-0.5,2.4-1,3.8-1.5c2.8-1,4.2-3,4.2-7.1v-0.5h-9.9V13.9c8-1,11.3-3.5,12.3-9.6V3.8h-0.5l0,0
			l-0.9-0.5c-5.2,0.5-9,0-12.8-1.5c-1.4-0.5-2.8-0.5-4.2,1c-1.9,1.5-3.3,4.1-3.3,6.6c0,0.5,0,1.5,0.5,2c0.5,3,0.9,6.1,0.9,9.1
			c0,2.5,0,4.6-0.5,7.1c0,1,0,2-0.5,3.5c0,0.5,0,1.5,0,2c0,1.5,0,2.5-0.5,4.1c-1.4,6.6-1.4,11.1,0,15.7c0.5,1,0.5,1.5,0.5,2.5v0.5
			c0,7.6,0,15.7,0.5,23.3c0,3.5,1.4,6.1,3.3,7.6c1.4,1,2.8,1.5,4.2,1.5s2.4-0.5,3.8-1c1.9-0.5,3.8-1,5.7-1.5h0.9c0.5,0,1.4,0,1.9,0
			c0.9,0,1.4,0,2.4,0c3.3-0.5,4.7-2.5,4.7-6.6L1179,77.7z M1129,66.6c-4.2-6.6-4.2-10.6-5.7-18.7c-1.4-8.1-0.9-16.2,3.3-23.8
			c1.4-2,2.4-4.1,3.3-6.6c1.4-3,2.8-6.6,4.2-9.6c0.5-1,0.9-2.5,0.5-4.1c-0.5-2.5-2.4-4.1-4.2-2c-1.9,1.5-3.3,3.5-4.7,5.1
			c-5.2,7.1-8.5,15.2-11.8,23.3c-2.8,8.1-6.6,15.7-9.9,23.8c-0.9,2-2.4,3.5-3.8,5.6c-0.5-8.6,0-16.2,0.5-24.3
			c0.5-8.6,0.5-16.7,0.5-25.3c0-2.5-0.9-5.6-3.8-7.1c-2.8,1-3.8,2.5-3.8,6.1c-0.5,12.7-0.9,25.3-1.9,37.9
			c-0.5,9.6-1.9,19.2-2.4,28.8c-0.5,6.1,4.2,14.2,7.6,8.6c6.1-9.6,11.3-18.2,17-27.8c1.9,10.1,19.8,27.8,22.2,27.8
			C1141.2,85.3,1131.8,71.1,1129,66.6z M1066.6,73.7c-0.5,3-3.8,4.6-6.1,3c-2.4-1.5-2.8-3.5-3.3-7.6c-0.5-13.2-0.9-25.8-1.4-39
			c-0.5-5.6-2.4-12.7-0.5-14.7s3.8-2,5.7-2s3.3,1.5,3.3,3.5c0.9,17.7,1.9,35.4,2.8,52.6C1067.1,70.6,1067.1,72.1,1066.6,73.7z
			 M1076.1,71.1c0-7.6-0.5-15.2-0.9-22.3c-0.9-13.7,1.9-31.4-3.3-42c-2.4-4.6-9.4-3-14.6-3c-6.1-0.5-9,2-9.4,8.6
			c-0.5,5.1,0,10.1,0,15.7c0,7.6,0,15.2,0,22.3s-0.9,13.7-0.5,20.7c0.5,6.1,3.8,11.6,9,14.7c8.5,5.6,16.1,3,19.4-6.6
			C1076.1,76.7,1076.1,73.7,1076.1,71.1z M1029.8,4.3v-1h-0.9c-0.5,0-0.9,0-1.4-0.5c-1.4-0.5-2.8-0.5-4.3-0.5c-6.1,1-11.8,0-18.4-1
			c-1.4,0-2.8-0.5-4.2-0.5c0,0-3.8-0.5-5.2,1c-0.9,1.5-1.4,4.1,0,5.6c1.4,1.5,3.8,3,6.1,4.6c1.4,0.5,2.8,1,4.7,1.5
			c0.5,0,0.9,0,1.9,0.5c0,0.5,0,1.5,0,2c0,2-0.5,4.1-0.5,6.1s0.5,4.1,0.9,5.6c0,1,0.5,2,0.5,3.5c0,0.5,0,1,0,1.5s0,1,0,1.5
			c0,3.5,0,5.6,0,7.1c0,1,0,2,0,3.5c0,1,0,2.5,0.5,3.5c0,1.5,0.5,2.5,0.5,4.1c0,2,0,4.1,0,6.1c0,3,0,6.1,0,9.1
			c0.5,4.1,0.9,8.6,1.9,14.7v1c0,2,0.5,4.6,2.8,5.1h0.5c0.5,0,1.4-0.5,1.9-1c2.4-2,2.4-8.1,2.4-16.7c0-1.5,0-3,0-4.6
			c0.5-20.7,0-26.8-1.4-43.5c-0.5-2.5-0.5-5.6-0.9-8.6c0.5,0,1.4,0,1.9,0c1.9,0,3.8-0.5,5.7-0.5c2.8-0.5,4.7-1,5.7-2.5
			C1030.7,9.9,1030.3,7.9,1029.8,4.3z M951.4,70.1c-0.5-3-0.9-5.6-1.4-8.1c-0.9-4.1-1.4-8.1-1.4-11.6c0-6.1-2.4-10.1-7.6-13.7
			c-1.9-1-3.8-2-4.7-3.5l-0.5-0.5c-1.9-2-3.8-4.1-4.2-6.6c-0.9-3.5-1.4-7.1-1.9-10.1c0-1,0-2-0.5-3c0-0.5,0-1,0.5-2v-0.5
			c4.2-1,7.1-0.5,10.4,0.5c0.5,0,0.9,0,1.4,0.5c0,1,0,2.5,0,4.1c0,3.5,0,8.1,3.3,10.1c0.5,0.5,1.9,0.5,2.4,0
			c3.3-2.5,2.8-6.6,2.4-9.6c0-1-0.5-2-0.5-2.5c-0.5-9.6-2.8-10.6-14.6-10.6c-4.7,0-9,2-11.3,5.1c-1.4,1.5-1.9,4.1-1.9,6.1v3
			c0.5,3,0.5,6.6,0.5,9.6c0,8.6,4.2,14.7,11.8,18.2c8,3.5,8.5,8.6,8,12.1c0,2.5,0,5.1,0.5,7.6c0,1.5,0.5,3,0.5,4.6c0,3,0,5.6,0,8.6
			c0,1,0,2,0,2.5c-4.2,1-7.1,1-8,0c-0.9-0.5-0.9-2-0.9-4.6c0-6.6,0-13.2,0-19.2v-4.6c0-0.5,0.5-1.5,0-2.5s-1.4-1-2.8-1l0,0
			c-2.8,0-3.3,2.5-3.8,4.1v0.5c-0.5,1-0.9,2-0.9,3c-1.4,3-2.4,6.6-1.9,10.1c0.9,4.1,1.4,8.1,1.4,12.1c0,1.5,0,3,0.5,5.1
			c0,2.5,1.9,4.6,3.8,6.1c1.4,1,3.8,1.5,6.1,1.5c3.8,0,8-1,10.9-2.5c1.9-1,3.3-2.5,3.3-4.1c0-1,0.5-2,0.5-3
			C951.4,75.7,951.9,73.2,951.4,70.1z M911.8,77.7h-17v-0.5c0-0.5-0.5-1-0.5-1.5c-0.5-7.1-0.9-13.7-0.9-20.7l-0.5-5.6
			c0.5-0.5,0.9-0.5,1.9-0.5c1.4-0.5,2.4-1,3.8-1.5c2.8-1,4.2-3,4.2-7.1v-0.5h-9.9V13.9c8-1,11.3-3.5,12.3-9.6V3.8h-0.5l0,0l-0.9-0.5
			c-5.2,0.5-9,0-12.8-1.5c-1.4-0.5-2.8-0.5-4.2,1c-1.9,1.5-3.3,4.1-3.3,6.6c0,0.5,0,1.5,0.5,2c0.5,3,0.9,6.1,0.9,9.1
			c0,2.5,0,4.6-0.5,7.1c0,1,0,2-0.5,3.5c0,0.5,0,1.5,0,2c0,1.5,0,2.5-0.5,4.1c-1.4,6.6-1.4,11.1,0,15.7c0.5,1,0.5,1.5,0.5,2.5v0.5
			c0,7.6,0,15.7,0.5,23.3c0,3.5,1.4,6.1,3.3,7.6c1.4,1,2.8,1.5,4.2,1.5s2.4-0.5,3.8-1c1.9-0.5,3.8-1,5.7-1.5h0.9c0.5,0,1.4,0,1.9,0
			c0.9,0,1.4,0,2.4,0c3.3-0.5,4.7-2.5,4.7-6.6L911.8,77.7z M857,14c-0.5,5.1-0.5,10.1-1.4,15.7c0,1-0.9,2.5-1.9,3.5l-0.5,0.5
			c-0.5,1-1.4,2-2.4,2.5l-0.5,0.5c0-1-0.5-2.5-0.5-3.5c-0.9-7.6-1.9-14.7-1.9-22.3c0.9,0,1.4,0,1.9-0.5c1.4,0,2.8-0.5,3.8-0.5
			s1.9,0,2.4,0.5s0.5,1,0.5,2L857,14z M871.1,81.8v-1c0-2-0.5-3-0.9-4.1s-0.5-2-0.9-3c-0.9-4.1-1.9-7.6-2.8-11.6
			c-1.4-7.1-3.3-14.2-4.7-21.8c-0.5-1.5-0.5-2.5,0-3.5c3.8-7.6,3.3-15.7,3.3-23.3c0-1,0-2,0-3c0-2.5-0.9-4.6-2.4-6.1
			c-1.9-1.5-4.7-2.5-8.5-1.5c-0.9,0-1.4,0.5-2.4,0.5c-1.4,0.5-2.8,0.5-4.2,0.5c-0.5,0-0.9,0-1.4-0.5c-0.9-0.5-2.4-1-3.3,0.5
			c-1.4,1.5-1.9,3-1.9,4.6c0,5.1,0,10.1,0.5,15.7c0,0.5,0,1.5,0,2c0,1.5,0.5,3.5,0,5.1c-0.5,5.1-0.5,10.1,0,14.7
			c1.4,9.1,2.4,19.2,0.9,28.8c-0.5,2,0,4.6,0,6.6c0.9,4.6,2.8,5.1,8,4.6h0.5v-0.5c2.4-14.7,1.4-29.8,0.5-42h3.3
			c0.5,1.5,0.9,3.5,1.4,5.1c0.9,4.1,2.4,8.1,3.3,12.1c0.5,2.5,0.9,5.1,1.9,7.6c0.9,4.1,1.9,7.6,2.8,12.1c0.5,2,0.5,2.5,1.4,3.5
			l0.5,0.5c0.5,1,1.9,2.5,3.3,2.5l0.9-0.5C872.1,84.8,871.6,83.3,871.1,81.8z M800.8,57c0-0.5,0-1.5,0-2c0-2.5,0-4.6,0-6.6
			c0.5-6.6,0.9-13.2,1.4-19.7l0.5-9.1c0-2,1.9-3.5,2.8-4.1c1.9-0.5,3.8-1,6.1-1l0.9,1c0.5,1.5,0.9,3.5,0.9,5.6
			c0,7.1,0.5,14.7,0.5,21.7v10.1c0,1,0,1.5,0,2.5V56C810.2,57,806,57.5,800.8,57z M823.5,72.6c0-2,0-4.6,0-6.6c0-4.1,0-8.1,0-12.7
			v-6.6c0-10.1,0-20.2-0.5-30.4c-0.5-4.1-1.9-6.1-4.2-8.1c-0.9-0.5-1.4-1-2.4-1.5l-0.5-0.5c-4.2-3-8.5-3-12.3-0.5s-8,6.1-8.5,12.7
			c0,0.5,0,1-0.5,1.5l-0.5,1c-0.5,1.5-0.5,3-0.9,4.6c-0.9,4.1-1.9,8.1-1.9,12.1c0,5.1-0.5,10.1-0.5,15.2c0,2.5,0,5.6-0.5,8.1
			c0,0.5,0,1,0,1.5V63l0.5,5.1c0,3.5,0.5,7.1,0.9,10.6c0,2,0.5,2.5,0.5,3.5c0,0.5,0.5,1,0.5,2c0.5,1.5,1.9,2.5,2.8,3l0,0
			c0.9,0,1.9-1,2.8-2c0.5-0.5,0.9-2,0.9-2.5c0-1,0-1.5,0-2c0-0.5,0-1,0-2.5V67.1c0.5,0,1.4,0,1.9,0c1.9,0,4.2,0,6.1-0.5
			s3.8-1,5.7-1.5c0.5,0,0.9-0.5,1.4-0.5V65c0,1,0.5,2,0.5,3c0,2,0,3.5,0.5,5.6c0,2,0,4.6,0.5,6.6v0.5c0,2,0.5,4.6,1.9,6.1
			c0.5,0.5,1.4,1,2.4,0.5c2.8-0.5,2.8-4.6,3.3-6.6C823.9,77.7,823.9,75.2,823.5,72.6z M774.3,9.4c0.5-4.1-0.5-7.6-5.2-8.1
			c-4.2-1-6.6,1.5-8,5.6c-0.9,2-1.4,4.1-1.9,6.1c-1.4,6.1-6.1,26.8-8,26.8c-2.8,0-2.8-5.6-3.8-8.1c-2.4-8.1-4.2-16.2-7.1-24.3
			c-2.4-7.1-4.2-7.6-11.3-5.6c-0.5,4.6-1.4,9.1-0.9,13.7c0.9,19.7,1.4,39.5-1.9,58.7c-0.9,5.6-0.5,11.6,5.7,11.1
			c1.9-0.5,2.8-3,3.3-4.6c1.9-17.7,2.8-31.9,4.7-52.1c3.3,12.1,8,21.7,11.3,32.9c6.1-9.1,6.6-15.2,12.3-22.3
			c0.5,10.1,1.4,19.7,1.4,28.8s-2.8,18.7,5.7,17.2c2.8-0.5,3.8-6.1,3.8-7.6c0.5-10.1,0-5.1,0-15.2c0-2.5-0.5-5.1-0.5-7.6
			c0-10.1,0-19.7,0.5-29.8C773.4,20,773.9,15,774.3,9.4z M709.7,4.3v-1h-0.9c-0.5,0-0.9,0-1.4-0.5c-1.4-0.5-2.8-0.5-4.2-0.5
			c-6.1,1-11.8,0-18.4-1c-1.4,0-2.8-0.5-4.2-0.5c0,0-3.8-0.5-5.2,1c-0.9,1.5-1.4,4.1,0,5.6c1.4,1.5,3.8,3,6.1,4.6
			c1.4,0.5,2.8,1,4.7,1.5c0.5,0,0.9,0,1.9,0.5c0,0.5,0,1.5,0,2c0,2-0.5,4.1-0.5,6.1s0.5,4.1,0.9,5.6c0,1,0.5,2,0.5,3.5
			c0,0.5,0,1,0,1.5s0,1,0,1.5c0,3.5,0,5.6,0,7.1c0,1,0,2,0,3.5c0,1,0,2.5,0.5,3.5c0,1.5,0.5,2.5,0.5,4.1c0,2,0,4.1,0,6.1
			c0,3,0,6.1,0,9.1c0.5,4.1,0.9,8.6,1.9,14.7v1c0,2,0.5,4.6,2.8,5.1h0.5c0.5,0,1.4-0.5,1.9-1c2.4-2,2.4-8.1,2.4-16.7
			c0-1.5,0-3,0-4.6c0.5-20.7,0-26.8-1.4-43.5c-0.5-2.5-0.5-5.6-0.9-8.6c0.5,0,1.4,0,1.9,0c1.9,0,3.8-0.5,5.7-0.5
			c2.8-0.5,4.7-1,5.7-2.5C710.6,9.9,710.6,7.9,709.7,4.3z M657.2,38.7c0.9-2.5,0.5-3.5-0.9-5.1c-0.5-0.5-0.5-2-0.5-3
			c0-2.5,0-5.1,0-7.6c0-5.6,0-11.6,0.5-17.2c0-3-0.5-5.1-3.3-5.6c-2.4-0.5-3.8,0.5-4.7,3.5c-0.5,3-0.5,6.1-0.9,9.1
			c-0.5,8.1-0.9,16.7-1.4,25.3c-3.8,1-7.1,1.5-10.9,2.5c0-3,0-5.6,0-8.1c0-7.1,0-14.2,0-21.2c0-3,0.5-8.6-3.3-8.6
			c-4.7,0-3.3,12.7-3.3,19.2c0,4.6,0.5,9.1,0.5,14.2c0,3,0,6.6-1.9,9.6c-0.5,1-0.5,2.5-0.5,3.5c1.4,8.6,2.4,20.2,0.9,28.8
			c-0.5,2.5-0.9,6.6,1.9,7.1c2.4,0.5,3.3-2.5,3.8-4.6c0.5-3,0.5-9.6,0.9-12.7c0-5.1,0.5-10.1,0.5-15.7c3.8-1,7.1-1.5,10.9-2
			c0.5,3.5,0.9,6.6,0.9,10.1c0.9,8.1,2.4,15.7,2.4,23.8c0,1.5,1.9,3,4.7,2c3.8-1,1.4-19.7,0.5-30.9c-0.5-3.5,0.5-7.6,1.4-10.6
			C657.2,41.8,656.8,40.3,657.2,38.7z M611.9,50.9c0.5-1,0-2.5-0.5-3.5c0-2-0.9-2.5-2.8-3c-3.8-0.5-9.4,2.5-11.8,6.6
			c2.4,0.5,4.7,1,6.6,2c-0.9,8.1-1.4,15.7-2.4,24.3c-1.4,0.5-2.8,1-4.7,1.5c-1.9,0.5-3.8-0.5-3.8-2.5c-0.5-2.5-0.5-5.6-0.5-8.1
			c0-1,0-2.5-0.5-3.5c-0.5-2.5-0.5-5.1,0-7.6c0.5-2,0.5-4.1,0.5-6.1c0-2-0.5-4.6,0-6.6c0.9-8.1,0-16.2,0.5-23.8c0-1.5-0.5-3,0-4.6
			c0.5-3.5,2.4-5.1,5.7-5.6c1.9,0,7.6,0.5,9.4,0c1.9-0.5,2.8-1.5,1.9-3.5c-0.5-1-1.4-2-2.4-2c-3.8-0.5-10.9-1.5-14.2-1
			c-1.4,0-3.3,1.5-4.2,3c-1.4,3.5-2.8,7.6-3.3,11.1c-0.9,7.1-0.9,14.2-1.4,20.7c0,3-0.5,5.6-0.5,8.6c-0.5,7.1-0.9,12.1-0.5,21.3
			c0.5,4.1,0,8.1,1.4,12.1c1.4,3,3.3,5.1,6.6,5.1c6.1,0.5,11.8-1.5,17-5.6c2.4-2,3.3-4.1,3.3-7.1C611.9,65.6,610.5,58.5,611.9,50.9z
			 M566.6,0.3c-5.7-1-7.6,0.5-7.6,6.1c-0.5,11.1-0.9,22.8-0.9,33.9c0,3,0,6.6,0,9.6c0,6.1,0,11.6,0,17.7c0,4.1-0.5,7.6-0.5,11.1
			c0,5.1,0.5,7.6,5.2,7.6c4.2,0,3.8-15.7,4.2-23.3c0.5-9.6,0-19.2,0-28.8c0-2.5,0.5-5.6,0.5-8.1C568.5,17,568,8.9,566.6,0.3z
			 M535.9,3.3c-4.7,0-4.7,11.6-5.2,17.2c-0.9,6.1-0.9,12.1-1.4,18.7c-0.5,5.6-0.5,11.1-0.9,16.7c-3.8-8.6-5.7-17.2-8-25.8
			c-0.5-1.5-0.9-2.5-1.4-3.5c-1.9-4.6-3.3-9.6-5.2-14.2c-0.9-2-0.9-6.1-3.8-6.6c-5.7-1.5-5.7,7.1-6.1,11.1c0,5.6-0.5,10.1-0.5,16.7
			c-0.9,16.2-1.9,32.9-1.9,49.1c0,2,0,2.5,1.4,3.5c0.5,0.5,2.8,0.5,3.3-0.5c3.8-18.2,3.8-25.3,6.6-39c1.4,1.5,1.9,3,2.4,4.6
			c3.8,9.6,7.1,18.7,10.9,28.3c1.4,3.5,2.8,8.1,7.1,7.1c6.1-1,4.7-11.1,5.2-17.7c0.5-10.6,0.9-20.7,1.4-31.4
			c0.5-9.1,0.5-18.2,0.9-27.3C540.6,5.9,540.1,3.3,535.9,3.3z M455.6,4.3v-1l-0.9,0.5c-0.5,0-0.9,0-1.4-0.5
			c-1.4-0.5-2.8-0.5-4.2-0.5c-6.1,1-11.8,0-18.4-1c-1.4,0-2.8-0.5-4.2-0.5c0,0-3.8-0.5-5.2,1c-0.9,1.5-1.4,4.1,0,5.6
			c1.4,1.5,3.8,3,6.1,4.6c1.4,0.5,2.8,1,4.7,1.5c0.5,0,0.9,0,1.9,0.5c0,0.5,0,1.5,0,2c0,2-0.5,4.1-0.5,6.1s0.5,4.1,0.9,5.6
			c0,1,0.5,2,0.5,3.5c0,0.5,0,1,0,1.5s0,1,0,1.5c0,3.5,0,5.6,0,7.1c0,1,0,2,0,3.5c0,1,0,2.5,0.5,3.5c0,1.5,0.5,2.5,0.5,4.1
			c0,2,0,4.1,0,6.1c0,3,0,6.1,0,9.1c0.5,4.1,0.9,8.6,1.9,14.7v1c0,2,0.5,4.6,2.8,5.1h0.5c0.5,0,1.4-0.5,1.9-1
			c2.4-2,2.4-8.1,2.4-16.7c0-1.5,0-3,0-4.6c0.5-20.7,0-26.8-1.4-43.5c-0.5-2.5-0.5-5.6-0.9-8.6c0.5,0,1.4,0,1.9,0
			c1.9,0,3.8-0.5,5.7-0.5c2.8-0.5,4.7-1,5.7-2.5C456.6,9.9,456.6,7.9,455.6,4.3z M406,70.1c-0.5-3-0.9-5.6-1.4-8.1
			c-0.9-4.1-1.4-8.1-1.4-11.6c0-6.1-2.4-10.1-7.6-13.7c-1.9-1-3.8-2-4.7-3.5l-0.5-0.5c-1.9-2-3.8-4.1-4.2-6.6
			c-0.9-3.5-1.4-7.1-1.9-10.1c0-1,0-2-0.5-3c0-0.5,0-1,0.5-2v-0.5c4.2-1,7.1-0.5,10.4,0.5c0.5,0,0.9,0,1.4,0.5c0,1,0,2.5,0,4.1
			c0,3.5,0,8.1,3.3,10.1c0.5,0.5,1.9,0.5,2.4,0c3.3-2.5,2.8-6.6,2.4-9.6c0-1-0.5-2-0.5-2.5c-0.5-9.6-2.8-10.6-14.6-10.6
			c-4.7,0-9,2-11.3,5.1c-1.4,1.5-1.9,4.1-1.9,6.1v3c0.5,3,0.5,6.6,0.5,9.6c0,8.6,4.2,14.7,11.8,18.2c8,3.5,8.5,8.6,8,12.1
			c0,2.5,0,5.1,0.5,7.6c0,1.5,0.5,3,0.5,4.6c0,3,0,5.6,0,8.6c0,1,0,2,0,2.5c-4.2,1-7.1,1-8,0c-0.5-2.5-0.5-4.1-0.5-6.6
			c0-6.6,0-13.2,0-19.2v-4.6c0-0.5,0.5-1.5,0-2.5s-1.4-1-2.8-1l0,0c-2.8,0-3.3,2.5-3.8,4.1v0.5c-0.5,1-0.9,2-0.9,3
			c-1.4,3-2.4,6.6-1.9,10.1c0.9,4.1,1.4,8.1,1.4,12.1c0,1.5,0,3,0.5,5.1c0,2.5,1.9,4.6,3.8,6.1c1.4,1,3.8,1.5,6.1,1.5
			c3.8,0,8-1,10.9-2.5c1.9-1,3.3-2.5,3.3-4.1c0-1,0.5-2,0.5-3C405.6,75.7,406,73.2,406,70.1z M350.8,14c-0.5,5.1-0.5,10.1-1.4,15.7
			c0,1-0.9,2.5-1.9,3.5l-0.5,0.5c-0.5,1-1.4,2-2.4,2.5l-0.5,0.5c0-1-0.5-2.5-0.5-3.5c-0.9-7.6-1.9-14.7-1.9-22.3
			c0.9,0,1.4,0,1.9-0.5c1.4,0,2.8-0.5,3.8-0.5s1.9,0,2.4,0.5c0.9,0,1.4,1,0.9,1.5V14z M364.9,81.8v-1c0-2-0.5-3-0.9-4.1
			c-0.5-1-0.5-2-0.9-3c-0.9-4.1-1.9-7.6-2.8-11.6c-1.4-7.1-3.3-14.2-4.7-21.8c-0.5-1.5-0.5-2.5,0-3.5c3.8-7.6,3.3-15.7,3.3-23.3
			c0-1,0-2,0-3c0-2.5-0.9-4.6-2.4-6.1c-1.9-1.5-4.7-2.5-8.5-1.5c-0.9,0-1.4,0.5-2.4,0.5c-1.4,0.5-2.8,0.5-4.2,0.5
			c-0.5,0-0.9,0-1.4-0.5c-0.9-0.5-2.4-1-3.3,0.5c-1.4,1.5-1.9,3-1.9,4.6c0,5.1,0,10.1,0.5,15.7c0,0.5,0,1.5,0,2c0,1.5,0.5,3.5,0,5.1
			c-0.5,5.1-0.5,10.1,0,14.7c1.4,9.1,2.4,19.2,0.9,28.8c-0.5,2,0,4.6,0,6.6c0.9,4.6,2.8,5.1,8,4.6h0.5v-0.5
			c2.4-14.7,1.4-29.8,0.5-42h3.3c0.5,1.5,0.9,3.5,1.4,5.1c0.9,4.1,2.4,8.1,3.3,12.1c0.5,2.5,0.9,5.1,1.9,7.6
			c0.9,4.1,1.9,7.6,2.8,12.1c0.5,2,0.5,2.5,1.4,3.5l0.5,0.5c0.5,1,1.9,2.5,3.3,2.5l0.9-0.5C365.9,84.8,365.4,83.3,364.9,81.8z
			 M308.3,73.7c-0.5,3-3.8,4.6-6.1,3c-2.4-1.5-2.8-3.5-3.3-7.6c-0.5-13.2-0.9-25.8-1.4-39c-0.5-5.6-2.4-12.7-0.5-14.7s3.8-2,5.7-2
			s3.3,1.5,3.3,3.5c0.9,17.7,1.9,35.4,2.8,52.6C308.8,70.6,308.3,72.1,308.3,73.7z M317.3,71.1c0-7.6-0.5-15.2-0.9-22.3
			c-0.9-13.7,1.9-31.4-3.3-42c-1.9-4.6-9.4-3-14.2-3.5c-6.1-0.5-9,2-9.4,8.6c-0.5,5.1,0,10.1,0,15.7c0,7.6,0,15.2,0,22.3
			s-0.9,13.7-0.5,20.7c0.5,6.1,3.8,11.6,9,14.7c8.5,5.6,16,3,19.4-6.6C317.7,76.7,317.7,73.7,317.3,71.1z M272.9,4.3
			c-3.8-2-7.1,1-8,5.1c-1.4,6.6-3.3,13.7-3.8,20.2c-0.5,11.6-4.7,22.3-6.6,34.9c-5.2-9.1-4.2-18.2-5.7-26.8c-4.2,0.5-5.7,3-6.6,6.1
			c-2.4,8.1-4.7,16.2-7.1,25.8c-0.5-3.5-0.5-5.1-0.9-7.1c-1.4-16.7-2.4-29.3-1.9-44c0-4.1-0.5-16.7-5.7-15.7c-1.9,1-1.9,4.1-2.4,6.1
			c-0.5,3.5,0.5,11.1,0.5,14.7c0.9,19.7,1.9,39,2.8,58.7c0,2,1.4,4.1,3.8,4.1c4.7,0,7.1-14.2,10.9-23.3c0.9,2,1.4,3,1.4,4.1
			c1.9,4.6,3.8,11.1,5.7,15.7c2.8,5.1,6.6,5.1,9.4-0.5c0.5-1,0.9-2,0.9-3c1.9-9.1,3.3-20.2,5.2-29.3c1.9-9.1,4.2-18.7,6.1-27.8
			C272.4,16,275.7,5.4,272.9,4.3z M168.5,14c-0.5,5.1-0.5,10.1-1.4,15.7c0,1-0.9,2.5-1.9,3.5l-0.5,0.5c-0.5,1-1.4,2-2.4,2.5
			l-0.5,0.5c0-1-0.5-2.5-0.5-3.5c-0.9-7.6-1.9-14.7-1.9-22.3c0.9,0,1.4,0,1.9-0.5c1.4,0,2.8-0.5,3.8-0.5s1.9,0,2.4,0.5
			c0.5,0.5,0.5,1,0.5,2L168.5,14z M183.2,81.8v-1c0-2-0.5-3-0.9-4.1c-0.9-1-1.4-2-1.4-3.5c-0.9-4.1-1.9-7.6-2.8-11.6
			c-1.4-7.1-3.3-14.2-4.7-21.8c-0.5-1.5-0.5-2.5,0-3.5c3.8-7.6,3.3-15.7,3.3-23.3c0-1,0-2,0-3c0-2.5-0.9-4.6-2.4-6.1
			c-1.9-1.5-4.7-2.5-8.5-1.5c-0.9,0-1.4,0.5-2.4,0.5c-1.4,0.5-2.8,0.5-4.2,0.5c-0.5,0-0.9,0-1.4-0.5c-0.9-0.5-2.4-1-3.3,0.5
			c-1.4,1.5-1.9,3.5-1.9,4.6c0,5.1,0,10.1,0.5,15.7c0,0.5,0,1.5,0,2c0,1.5,0.5,3.5,0,5.1c-0.5,5.1-0.5,10.1,0,14.7
			c1.4,9.1,2.4,19.2,0.9,28.8c-0.5,2,0,4.6,0,6.6c0.9,4.6,2.8,5.1,8,4.6h0.5v-0.5c2.4-14.7,1.4-29.8,0.5-42h3.3
			c0.5,1.5,0.9,3.5,1.4,5.1c0.9,4.1,2.4,8.1,3.3,12.1c0.5,2.5,0.9,5.1,1.9,7.6c0.9,4.1,1.9,7.6,2.8,12.1c0.5,2,0.5,2.5,1.4,3.5
			l0.5,0.5c0.5,1,1.9,2.5,3.3,2.5l0.9-0.5C183.6,84.8,183.2,83.3,183.2,81.8z M135,17c0-2.5-0.5-4.6,0-7.1c0-3,0-5.6-1.4-6.6
			c-0.9-1-1.9-1-3.8-1c-0.9,0-1.4,0.5-1.9,1c-2.8,3.5-1.9,15.7-1.4,19.2c0,1.5,0,4.1,0,6.1c0,1,0,2,0,2.5
			c0.5,15.7,0.5,29.3,0.9,42.5c0,1-0.5,2-0.9,3l-0.5,1c-0.5,0-0.9-0.5-1.4-0.5c-1.4-0.5-2.8-1-4.2-1.5c-0.9-0.5-1.9-2-1.9-3
			s-0.5-2-0.9-3.5c-0.9-3.5-1.9-7.6-1.9-11.1c0-18.7-1.9-35.4-5.2-51.6c-0.9-3-2.4-5.6-4.2-5.6c-0.9,0-2.8,0-4.7,2.5
			c-1.4,2-0.5,4.6,0,6.6c0,0.5,0.5,1,0.5,1.5c1.4,6.6,2.4,14.2,2.4,22.8c0,2,0,4.6,0.5,6.6c0.5,3.5,0.5,7.1,0.5,10.6
			c-0.5,6.6,0,12.7,1.9,17.7c1.9,7.1,6.6,12.7,13.2,16.2c1.9,1,3.8,1.5,5.2,1.5c0.9,0,2.4,0,3.3-0.5c1.9-1,3.8-3,4.2-5.6
			c0.5-1.5,0.5-3.5,0.5-5.1v-1.5c0-3.5,0-6.6,0-10.1c0-3,0-5.6,0-8.6c0-4.1,0-8.1,0-11.6c0-7.1,0.5-14.7,0.5-21.7
			C135.5,21,135.5,19,135,17z M76,73.7c-0.5,3-3.8,4.6-6.1,3c-2.4-1.5-2.8-3.5-3.3-7.6c-0.5-13.2-0.9-25.8-1.4-39
			c-0.5-5.6-2.4-12.7-0.5-14.7s3.8-2,5.7-2s3.3,1.5,3.3,3.5c0.9,17.7,1.9,35.4,2.8,52.6C76.4,70.6,76.4,72.1,76,73.7z M85.4,71.1
			c0-7.6-0.5-15.2-0.9-22.3c-0.9-13.7,1.9-31.4-3.3-42c-2.4-4.6-9.4-3-14.6-3c-6.1-0.5-9,2-9.4,8.6c-0.5,5.1,0,10.1,0,15.7
			c0,7.6,0,15.2,0,22.3S56.1,64,56.6,71.1c0.5,6.1,3.8,11.6,9,14.7c8.5,5.6,16.1,3,19.4-6.6C85.4,76.7,85.4,73.7,85.4,71.1z M42,4.3
			c-4.7-3.5-8.5,1-10.4,6.6c-0.5,1-0.9,2.5-1.4,3.5c-2.8,7.6-5.2,14.7-8.5,23.3c-1.4-2-4.2-6.1-4.7-7.6C15,24.6,12.2,17,10.8,11.4
			c-1.9-5.1-4.2-7.1-8-6.1C0.4,5.9-1,8.9,0.9,14c3.8,10.1,10.4,24.8,17,31.4c0.5,11.1,0.9,20.7,1.9,30.9c0.5,3.5-0.5,10.6,3.8,10.6
			s3.8-5.1,3.8-7.6C27.8,64.5,25,49.4,33,35.7c3.8-6.1,4.7-14.2,8.5-20.2C44.3,10.9,45.3,6.9,42,4.3z"/>
	</g>
	<path class="st1" d="M150.1,156.1c0,0,165.7,2.5,193.6,2s28.8,11.6,45.3,11.6s31.6,0,31.6,0s6.6,5.1,13.7-2.5s7.1-8.6,7.1-8.6
		s46.3,0,62.3-1.5c16-1.5,55.7-3,66.1-1.5c9.9,2,111.9,3.5,126.1,1c14.2-3,108.1-3,116.2-6.6c8-3.5,11.3-6.1,11.3-6.1
		s591.2,4.1,582.7,0c-8-4.1-153.5-13.7-249.3-16.2c-96.3-2.5-330.1,2.5-344.2,0c-14.2-2.5-57.6-3.5-94,5.1
		c-36.4,8.6-132.7-9.6-186-2c-40.6,6.1-51.9-2-113.8,2c-62.3,3.5-105.8,6.1-105.8,6.1s-25.5,1-38.2,0s-21.7,0-21.7,0
		s9.9,7.1-9.4,8.6s-27.4-5.6-45.8-3C179.4,146.5,150.1,156.1,150.1,156.1z"/>
</g>
</svg>
