<?xml version="1.0" encoding="utf-8"?>
<!-- Generator: Adobe Illustrator 25.2.1, SVG Export Plug-In . SVG Version: 6.00 Build 0)  -->
<svg version="1.1" xmlns="http://www.w3.org/2000/svg" xmlns:xlink="http://www.w3.org/1999/xlink" x="0px" y="0px"
	 viewBox="0 0 881.1 484.6" style="enable-background:new 0 0 881.1 484.6;" xml:space="preserve">
<style type="text/css">
	.st0{fill:#FF0000;}
	.st1{display:none;}
	.st2{display:inline;opacity:0.4;}
</style>
<g id="logo">
	<g>
		<g>
			<g>
				<g>
					<path class="st0" d="M12.9,382.4c-2.5-13.5-5.7-27-7.2-40.6c-3.3-31.1-7-62.2-5.3-93.7c1.5-26.8,7.9-52.3,19.4-76.5
						c0.5-1.1,1.6-2.1,2.5-3c18.6-17.4,37.3-34.7,55.7-52.3c4.4-4.2,8.8-8.2,10.8-15c1.5-5.2,7.9-8.3,14.2-8.4c5-0.1,10,0.1,15,0.3
						c2.7,0.1,4-0.7,5.3-3.2c5.8-11.3,11.9-22.3,17.8-33.5c4.8-9.1,13.2-14,22.1-17.8c14-6,28.4-11,42.3-16.9
						c7.6-3.2,14.8-7.6,22.2-11.3c5.7-2.9,11.5-5.7,17.4-8.4c9.1-4.2,16.9-1.4,24.7,3.9c10.3,7,21.1,13.3,31.5,20.1
						c5,3.2,9.6,7.1,14.6,10.3c4,2.5,8.5,4.1,12.5,6.5c3.7,2.2,7.4,4.6,10.6,7.4c7.4,6.5,14.5,13.3,21.7,19.9c2.3,2.1,4.8,4,7.7,6.4
						c2.7-5.4,11.2-4.9,10.6-12.8c0.2-0.2,0.5-0.6,0.9-0.8c8.6-3.7,10.4-2.7,12.4,6.5c0.7,3,1.9,5.8,3.2,9.5c0.2-0.6,0.2-0.2,0,0
						c-2.9,3.1-8.4,6.4-8.3,9.4c0.2,5.6,3.5,11.2,5.9,16.7c4.1,9.1,9.6,17.7,12.4,27.1c3.7,12.3,5.6,25.3,8.1,38
						c1.5,7.8,2.6,15.8,3.8,23.7c0.2,1.5,0.3,3,0.3,4.5c-0.1,7.4-1.3,8.5-8.6,8.2c-5-0.2-10-0.5-15-0.3c-3.8,0.2-5.9-1.2-7-4.8
						c-1.8-5.5-4.5-10.9-5.4-16.6c-0.8-4.9,0.6-10.2,0.5-15.3c-0.1-9.3-0.1-18.7-1-28c-0.4-4.3-2.4-8.6-4.4-12.6
						c-3.7-7.2-7.9-14.3-12.1-21.2c-2.4-3.9-5.2-7.4-1.3-12.7c-7.6,8.7-12.3-0.5-18.6-2.2c0.2,1.1,0.3,1.8,0.5,2.5
						c6.1,19.2,13.1,38.2,18.1,57.6c3.1,12,3.2,24.7,4.4,37.1c0.6,6.5,65.4,12.2,70.3,17.5c-6.4,3.3-66.3,2.7-84.5,5.6
						c-2.3-0.7-5.1-0.7-7.4-0.1c-6.6,1.5-53.6,12.7-59.2,10.9c-1.6-0.5,38.5-19.1,38.5-21.1c0.3-9.6-4.1-15.8-11.9-21.2
						c-12.6-8.6-24.9-17-40.5-19.3c-8.1-1.2-15.5-0.7-22.6,3.5c-7.5,4.4-15.4,6.4-24.3,5.6c-9.3-0.9-17.9,1.1-24.2,9.6
						c-3.8,5.1-9.2,9-14.2,13.1c-7.8,6.4-16,12.5-23,19.3c-0.8,2.2-1.3,4.5-2.4,6.6c-4.7,9.5-10,18.8-14.1,28.5
						c-5.3,12.4-9.6,25.2-14.5,37.8c-1.1,2.8-0.9,4.7,0.9,7.2c11.3,16,25.8,28.7,41,40.6c-18.6-8.4-31.9-23.2-45.2-39.4
						c-5,14.7-13.2,27.3-13.8,42.3c-0.6,13.2-4,25.6-9.4,37.6c-1.7,3.9-1.1,6.6,1.4,10c28.8,39,64.8,70,105.5,96
						c1.4,0.9,2.8,1.8,4.1,2.7c-0.2,0.4-0.4,0.8-0.6,1.2c-9.7-5.2-19.6-10.2-29.1-15.8c-20.4-11.9-39.2-25.8-56.6-41.7
						c-13.6-12.4-24-27.2-34.5-42c-0.7-1-1.1-3-0.6-4c8-16.8,8-35.3,10.9-53.1c2.1-12.9,8.2-24.2,13.9-35.6c1.9-3.8,1.8-6.2-0.8-9.7
						c-8.6-11.4-16.8-23.2-25-34.9c-1.1-1.6-1.6-4.3-1.2-6.4c6.6-35.7,13.2-71.4,20.1-107.1c1-5.2,0.4-11.2,5.9-14.8
						c-0.1-0.5-0.2-1-0.2-1.5c-4.5-0.4-9-0.6-13.5-1.1c-2.8-0.3-5.7-0.9-9-1.4c-0.3,6.7-6.7,8.7-12.3,11.4
						c-14.1,6.6-24.4,17.7-35,28.6c-1.7,1.8-3.4,3.8-5.4,5.1c-22.5,14.8-28.6,38.3-32.8,62.1c-9.2,52.2-6,104.5,1.8,156.7
						c0.1,0.9,0.1,1.8,0.2,2.8C13.9,382.2,13.4,382.3,12.9,382.4z M295.2,160.7c0.4-0.6,0.7-1.2,1.1-1.8c-2.5-1.9-4.8-4.4-7.6-5.6
						c-7.6-3.4-13.4-8.6-17.2-16c-1.8-3.5-4.6-4.5-8.2-4.2s-7.3,0.4-10.9,1.1c-10,1.8-19.9,0.6-29.8-1.1c-5-0.9-10.2-1.3-15.3-0.8
						c-13.9,1.2-26.7-1.2-38-10c-3.5-2.7-7.8-4.6-12-5.8c-2.4-0.7-6,0-8.1,1.4c-6.2,4.2-12.1,8.9-17.8,13.7c-1.7,1.5-3.2,3.8-3.8,6
						c-3.5,14.2-6.8,28.5-10.1,42.8c-4.8,20.3-9.6,40.5-14.3,60.8c-0.5,2-0.3,4.7,0.6,6.5c2.9,5.2,6.2,10.2,9.5,15.2
						c4.2,6.3,8.5,12.5,13.5,19.9c2.9-8.3,5.9-15,7.7-22.1c3.8-14.7,8.4-29.1,16.7-41.9c3.3-5.1,3.7-8.4-0.6-13.2
						c-4.9-5.5-4.4-7,1.3-11.9c1.2-1,3.4-0.9,5.1-1.3c1-0.3,2.2-0.4,2.9-1c8.7-8.8,17.7-16.8,29.7-21.4
						c11.2-4.3,21.8-10.4,32.8-15.3c5.1-2.3,10.6-5.1,16-5.3c11.9-0.5,23.8,0.2,35.2,4.8C280.4,157,287.9,158.5,295.2,160.7z
						 M315.3,67.7c-3.4-2.6-6.2-4.4-8.6-6.6c-7.4-6.4-14.9-12.7-21.9-19.5c-5.3-5.1-10-10.3-16.5-14.5c-10-6.5-19.1-5.2-28.3-1.5
						c-25.2,10-49.8,21.4-75.2,31.1c-17.8,6.8-25.5,22.8-37.1,35.7c8.9,0.6,17.5,0.6,26.1,0.5c1,0,2.2-0.8,3.1-1.5
						c14.5-11.6,28.9-23.4,40.6-38.1c0.6-0.8,2.2-1.9,2.7-1.7c4.4,2.1,5.9-1.6,8.1-3.8c1.5-1.6,2.8-3.5,4.3-5.5
						c0.6,2.1,1.1,3.7,1.7,5.5c2.4-1.4,4.4-2.7,6.6-4c0.9,1.6,1.6,2.7,2.1,3.9c2.7,6,7.2,9.5,13.8,11.1c10.6,2.6,21.1,5.8,31.7,8.7
						c0.4,0.1,0.9-0.2,1.3-0.3c-0.2-1.5-0.4-2.9-0.7-5.6c10,2.5,19.3,4.4,28.3,7C303.1,70.5,308.6,70.1,315.3,67.7z M179.4,95.7
						c28.6,5,55.6,9.7,82.7,14.5c-0.9-4.9-0.8-10.1-5.3-13.4c-0.1-0.1,0-0.6,0-2c5.9,3.7,11.5,6.8,16.7,10.5c3.5,2.4,5.6,1,7.2-1.9
						c1.5-2.6,2.5-5.4,4.1-8.9c-4.2-1.9-8.6-5-13.3-5.8c-14.7-2.4-29.7-3.8-44.5-5.8c-2.3-0.3-4.6-1.6-6.5-3
						c-4.2-3.1-8.2-6.5-12.5-10c-0.5,1-1.4,1.9-1.3,2.6c0.5,4.3-2.3,6.2-5.3,8.1C194.5,85.3,187.6,90.1,179.4,95.7z M297.1,97.5
						c1.6,11,3.9,21.6,12.7,29.5c4.8,4.3,10.5,7.8,13.3,14.2c1.3,2.9,3.3,5.4,5,8c6.1,9.2,12.1,18.4,18.2,27.6
						c0.4-0.2,0.9-0.5,1.3-0.7c-0.4-1.5-0.6-3.1-1.1-4.6c-2.8-7.3-5.6-14.5-8.4-21.8c-5.9-15.6-13.4-30.3-24.4-43.1
						C309.3,101.4,305,97.1,297.1,97.5z"/>
				</g>
			</g>
		</g>
		<g>
			<g>
				<g>
					<path class="st0" d="M866.7,382.1c0-0.9,0-1.9,0.2-2.8c7.7-52.1,11-104.4,1.8-156.7c-4.2-23.8-10.3-47.3-32.5-62.1
						c-2-1.4-3.7-3.3-5.4-5.1c-10.6-10.8-20.9-22-35-28.6c-5.6-2.6-12.1-4.6-12.3-11.4c-3.4,0.5-6.2,1.1-9,1.4
						c-4.5,0.5-9,0.7-13.5,1.1c-0.1,0.5-0.2,1-0.2,1.5c5.5,3.6,4.9,9.6,5.9,14.8c6.8,35.7,13.5,71.4,20.1,107.1
						c0.4,2-0.1,4.7-1.2,6.4c-8.1,11.8-16.4,23.5-25,34.9c-2.6,3.4-2.8,5.8-0.8,9.7c5.8,11.4,11.8,22.7,13.9,35.6
						c3,17.8,3,36.3,10.9,53.1c0.5,1,0.1,3-0.6,4c-10.5,14.8-21,29.6-34.5,42c-17.4,15.9-36.3,29.8-56.6,41.7
						c-9.5,5.6-19.4,10.5-29.1,15.8c-0.2-0.4-0.4-0.8-0.6-1.2c1.4-0.9,2.7-1.8,4.1-2.7c40.7-25.9,76.7-56.9,105.5-96
						c2.5-3.4,3.1-6.1,1.4-10c-5.4-11.9-8.7-24.4-9.4-37.6c-0.7-15.1-8.8-27.6-13.8-42.3c-13.4,16.2-26.6,31-45.2,39.4
						c15.2-12,29.7-24.6,41-40.6c1.8-2.5,2-4.5,0.9-7.2c-4.9-12.6-9.2-25.4-14.5-37.8c-4.1-9.8-9.5-19-14.1-28.5
						c-1-2.1-1.6-4.4-2.4-6.6c-7-6.8-15.1-12.9-23-19.3c-5-4.1-10.4-8-14.2-13.1c-6.3-8.5-14.9-10.5-24.2-9.6
						c-9,0.9-16.9-1.1-24.3-5.6c-7.1-4.3-14.5-4.7-22.6-3.5c-15.6,2.3-28,10.7-40.5,19.3c-7.9,5.4-12.2,11.6-11.9,21.2
						c0.1,2.1,40.2,20.6,38.5,21.1c-5.7,1.8-52.6-9.4-59.2-10.9c-2.4-0.5-5.2-0.6-7.4,0.1c-18.1-2.9-78.1-2.3-84.5-5.6
						c4.9-5.3,69.7-11,70.3-17.5c1.2-12.4,1.3-25.2,4.4-37.1c5-19.5,12-38.4,18.1-57.6c0.2-0.7,0.3-1.4,0.5-2.5
						c-6.3,1.7-11,10.9-18.6,2.2c3.9,5.3,1.1,8.8-1.3,12.7c-4.3,6.9-8.4,14-12.1,21.2c-2,3.9-4,8.3-4.4,12.6c-0.9,9.3-0.9,18.6-1,28
						c-0.1,5.1,1.3,10.4,0.5,15.3c-0.9,5.7-3.7,11-5.4,16.6c-1.1,3.5-3.2,4.9-7,4.8c-5-0.2-10,0.1-15,0.3c-7.2,0.3-8.5-0.9-8.6-8.2
						c0-1.5,0.1-3,0.3-4.5c1.2-7.9,2.3-15.8,3.8-23.7c2.4-12.7,4.3-25.6,8.1-38c2.8-9.4,8.4-18,12.4-27.1c2.4-5.4,5.7-11,5.9-16.7
						c0.1-3-5.4-6.2-8.3-9.4c-0.2-0.2-0.2-0.6,0,0c1.2-3.7,2.5-6.5,3.2-9.5c2-9.2,3.8-10.2,12.4-6.5c0.4,0.2,0.7,0.6,0.9,0.8
						c-0.6,8,7.9,7.4,10.6,12.8c2.9-2.4,5.4-4.3,7.7-6.4c7.3-6.6,14.4-13.4,21.7-19.9c3.2-2.8,6.9-5.2,10.6-7.4
						c4-2.4,8.6-4,12.5-6.5c5-3.2,9.6-7.1,14.6-10.3c10.4-6.8,21.2-13.2,31.5-20.1c7.8-5.2,15.6-8,24.7-3.9
						c5.8,2.7,11.6,5.5,17.4,8.4c7.4,3.7,14.6,8.1,22.2,11.3c13.5,6,27.9,11,41.8,16.9c8.9,3.8,17.3,8.7,22.1,17.8
						c5.9,11.2,12.1,22.2,17.8,33.5c1.3,2.5,2.6,3.4,5.3,3.2c5-0.3,10-0.4,15-0.3c6.3,0.1,12.7,3.2,14.2,8.4c2,6.8,6.3,10.8,10.8,15
						c18.4,17.6,37.1,34.9,55.7,52.3c0.9,0.9,2,1.8,2.5,3c11.5,24.2,17.9,49.7,19.4,76.5c1.7,31.4-2,62.6-5.3,93.7
						c-1.4,13.6-4.7,27.1-7.2,40.6C867.7,382.3,867.2,382.2,866.7,382.1z M607.7,154.2c11.4-4.6,23.3-5.3,35.2-4.8
						c5.4,0.2,10.9,3,16,5.3c11,4.9,21.5,11,32.8,15.3c12,4.6,21,12.6,29.7,21.4c0.6,0.7,1.9,0.8,2.9,1c1.7,0.5,3.9,0.3,5.1,1.3
						c5.6,4.8,6.1,6.4,1.3,11.9c-4.2,4.8-3.8,8.1-0.6,13.2c8.3,12.8,12.9,27.2,16.7,41.9c1.8,7,4.8,13.8,7.7,22.1
						c5-7.4,9.3-13.6,13.5-19.9c3.3-5,6.7-10,9.5-15.2c1-1.8,1.1-4.5,0.6-6.5c-4.6-20.3-9.5-40.5-14.3-60.8
						c-3.4-14.3-6.6-28.6-10.1-42.8c-0.5-2.2-2.1-4.5-3.8-6c-5.7-4.8-11.6-9.5-17.8-13.7c-2.1-1.4-5.7-2.1-8.1-1.4
						c-4.2,1.2-8.6,3.1-12,5.8c-11.4,8.7-24.1,11.1-38,10c-5-0.4-10.3,0-15.3,0.8c-9.9,1.7-19.7,2.9-29.8,1.1
						c-3.6-0.6-7.3-0.7-10.9-1.1c-3.6-0.3-6.4,0.7-8.2,4.2c-3.8,7.4-9.6,12.5-17.2,16c-2.8,1.3-5.1,3.7-7.6,5.6
						c0.4,0.6,0.7,1.2,1.1,1.8C593.2,158.5,600.7,157,607.7,154.2z M583.9,68.9c9-2.6,18.3-4.6,28.3-7c-0.3,2.7-0.5,4.1-0.7,5.6
						c0.4,0.1,0.9,0.4,1.3,0.3c10.6-2.9,21-6.1,31.7-8.7c6.5-1.6,11-5.1,13.8-11.1c0.5-1.2,1.3-2.3,2.1-3.9c2.2,1.3,4.2,2.5,6.6,4
						c0.6-1.8,1-3.4,1.7-5.5c1.6,2,2.8,3.9,4.3,5.5c2.2,2.2,3.8,5.9,8.1,3.8c0.5-0.3,2,0.9,2.7,1.7c11.7,14.7,26,26.5,40.6,38.1
						c0.9,0.7,2,1.5,3.1,1.5c8.6,0.1,17.2,0.1,26.1-0.5C742,79.8,734.3,63.8,716.5,57c-25.3-9.7-50-21.1-75.2-31.1
						c-9.2-3.7-18.3-4.9-28.3,1.5c-6.5,4.2-11.2,9.3-16.5,14.5c-7,6.8-14.5,13.1-21.9,19.5c-2.5,2.2-5.2,4-8.6,6.6
						C572.5,70.1,578,70.5,583.9,68.9z M679.5,80.7c-3-2-5.8-3.9-5.3-8.1c0.1-0.8-0.8-1.6-1.3-2.6c-4.3,3.5-8.3,6.9-12.5,10
						c-1.9,1.4-4.2,2.6-6.5,3c-14.8,2-29.7,3.4-44.5,5.8c-4.7,0.8-9.1,3.9-13.3,5.8c1.6,3.5,2.6,6.3,4.1,8.9
						c1.7,2.9,3.7,4.3,7.2,1.9c5.2-3.6,10.8-6.8,16.7-10.5c0,1.5,0.2,1.9,0,2c-4.6,3.3-4.5,8.5-5.3,13.4
						c27.1-4.7,54.2-9.5,82.7-14.5C693.5,90.1,686.6,85.3,679.5,80.7z M567.4,106.5c-11,12.8-18.5,27.5-24.4,43.1
						c-2.8,7.3-5.6,14.5-8.4,21.8c-0.6,1.5-0.8,3.1-1.1,4.6c0.4,0.2,0.9,0.5,1.3,0.7c6.1-9.2,12.1-18.4,18.2-27.6
						c1.7-2.6,3.8-5.2,5-8c2.8-6.4,8.5-9.8,13.3-14.2c8.8-7.9,11.1-18.5,12.7-29.5C576.1,97.1,571.8,101.4,567.4,106.5z"/>
				</g>
			</g>
		</g>
		<g>
			<path class="st0" d="M515.7,247.8c10.6-3.5,21.3-7,33.3-11c-1.1,2.9-1.6,4.3-2.4,6.5c5.5-0.7,10.5-1.6,15.6-1.9
				c2.2-0.2,5.3-0.1,6.7,1.3c6.2,5.8,12.2,11.9,17.8,18.4c1.5,1.8,1.8,5.4,1.3,7.9c-2.2,9.5-4.4,19.1-7.7,28.2
				c-1.8,4.9-5.8,9-9.3,14.3c-0.5-1.1-0.4-0.5-0.1-0.4c11.3,3.5,9.6,12.3,8,20.5c-2.1,10.9-3.3,22.4-7.8,32.3
				c-4.7,10.2-4.9,21.1-8.4,31.3c-0.2,0.5-0.7,1-1,1.4c-0.7,0-1.4-0.1-2.1-0.1c-0.5-17.4-0.9-34.8-1.5-52.1
				c-0.2-6.1,0-12.5-1.7-18.2c-0.8-2.7-5.7-4.1-8.8-6.1c-1.4,2.2-3.8,4.2-3.9,6.5c-0.6,9.6-1.1,19.2-0.5,28.7c0.2,3,3.8,5.9,7,10.5
				c-14.6-0.7-28.2-1.3-41.7-2c-0.4-0.5-0.8-0.9-1.3-1.4c11.5-3.5,9-15,14.3-22.1c0.4-0.6,0.3-1.7,0.3-2.5
				c0.6-13.1,1.2-26.1,1.8-39.2c0.6-12.7,1-25.4,2-38.1c0.4-5.5-0.6-8.9-6.7-9.4c-1-0.1-1.9-0.8-2.8-1.3
				C515.9,249.2,515.8,248.5,515.7,247.8z M552,299.4c16.7-13.5,19-27.4,5.3-34.9c-0.8,4.2-1.5,8.2-2.2,12.2c-1.9-2.9-2.3-6-3.4-8.7
				c-0.8-1.9-2.6-3.4-3.9-5.1c-1,2-2.7,3.9-2.9,6c-0.7,7.2-0.9,14.4-1.1,21.5c-0.1,4.3,0,8.7,0,13c0.5,0,1,0.1,1.5,0.1
				c1.4-2.8,2.7-5.5,4.6-9.3C550.8,296.5,551.3,297.8,552,299.4z"/>
			<path class="st0" d="M518,233.5c-1.5,1.9-2.2,3.5-3.4,4.1c-7.9,4-8.7,11.2-9.1,18.8c-1.1,22.7-2.1,45.4-4.1,68
				c-0.7,7.8-3.9,15.4-6.1,23.5c-1-0.7-2.2-1.6-3.7-2.6c-1.5,5.1-2.8,9.8-4.2,14.5c-0.8,0-1.6,0-2.4,0c-1.3-11.9-2.6-23.8-4-36
				c-1,0.8-2.4,1.9-4.1,3.3c-0.5-1.3-1.1-2.7-2.4-5.8c-3.1,5.3-5.4,9.4-8.3,14.4c-0.3-4.6-0.5-8.3-0.8-13.4
				c-4.5,10.9-2.5,22.6-11.3,32.3c-0.3-5.3-0.5-9-0.8-14.8c-5.8,7.6-10.6,14-16.1,21.2c-0.2-4.1-0.6-7.4-0.5-10.8
				c0.1-4.5,1.3-9.4-7-9.2c15.6-7.4,15.4-21.9,19.1-34.4c2.6-8.7,6-17.2,8.8-25.9c1.2-3.7,1.7-7.5,2.9-11.2c2.1-6.6,4-13.3,7-19.6
				c2.7-5.7,2.2-8.6-3.6-11.4c-2.2-1-4.2-2.2-6.4-3.3c0.2-0.6,0.3-1.3,0.5-1.9C477.7,233.5,497.3,233.5,518,233.5z M488.7,253.6
				c-0.8-0.1-1.6-0.3-2.4-0.4c-4.8,16.7-9.6,33.4-14.4,50.1c10.9,2,13.3,0.2,13.7-10.6c0.2-4.1,0.8-8.2,1.1-12.3
				C487.4,271.5,488,262.5,488.7,253.6z"/>
			<path class="st0" d="M426.1,228.2c-2.3,13.7-4.3,26.3-6.4,38.9c-0.5,0.2-0.9,0.4-1.4,0.6c-1.9-3.8-3.8-7.7-5.6-11.4
				c-0.8,1-1.8,2.4-3.1,4.1c-2-4.6-3.8-8.7-5.9-13.4c-1.1,2.1-1.8,3.5-2.7,5.3c-1.7-1.4-3.4-2.8-6.4-5.3c-2,13.7-0.2,25.8,1.1,38.2
				c10.1-0.2,7.2-11.4,14.4-15.3c1,15,2,29.1,2.9,43.1c-0.7,0.2-1.3,0.4-2,0.5c-1.6-2.6-2.9-5.5-4.9-7.8c-1.8-2.1-4.3-3.7-6.7-5.6
				c-5.4,9.9-2.7,27.2,4.8,35.7c6.8-1.5,10.3-5.6,11.1-12.7c0.4-4,2-7.9,3.4-13.3c6.1,9.3,7.7,33.1,4.8,48.8
				c-5.9-2.8-12.2-5.6-18.3-8.7c-7.4-3.8-7.4-3.8-10.7,3.8c-0.3,0.8-0.9,1.4-1.6,2.6c-6-11.1-15.4-5.1-24.9-4.8
				c1.2-2.5,1.6-4.8,2.9-5.9c4.9-3.8,4.8-8.9,4.5-14.3c-1-23.8-1.9-47.5-2.8-71.3c-0.3-8.9-3.4-16-12.3-20.4
				C381.7,231.6,403.6,231.2,426.1,228.2z"/>
			<path class="st0" d="M318.9,378.5c-1.1-4.7-2-9.5-3.3-14.2c-8.3-29.2-12.7-59.2-15.1-89.4c-0.7-9-0.9-18.1-11.3-22.1
				c-0.4-0.1-0.4-1.1-1-2.8c21.5-3.9,42.7-7.8,64.6-11.8c-1.2,11.6-2.2,22.3-3.4,34.3c-1.9-2.1-4-3.6-4.9-5.7
				c-2.8-6.6-8.2-8.3-14.8-4.8c-6.1,3.2-9.1,7.6-8.1,14.6c0.9,6.4,1.4,12.8,2.1,19.2c9.8-1.4,7.3-11.6,14.3-16.1
				c1.1,14.9,2.2,28.9,3.3,42.8c-0.6,0.1-1.3,0.3-1.9,0.4c-1.9-3-3.6-6.4-5.9-9c-1.4-1.6-3.9-2.2-5.9-3.2c-0.8,1.9-2.2,3.7-2.2,5.6
				c0.2,7.1,0.8,14.3,1.3,21.4C327.5,351.8,324.9,365.3,318.9,378.5z"/>
		</g>
	</g>
</g>
<g id="Layer_3" class="st1">
	<rect x="-38.5" y="-236.8" class="st2" width="958.1" height="958.1"/>
</g>
</svg>
