<?xml version="1.0" encoding="utf-8"?>
<!-- Generator: Adobe Illustrator 23.0.3, SVG Export Plug-In . SVG Version: 6.00 Build 0)  -->
<svg version="1.1" id="Layer_1" xmlns="http://www.w3.org/2000/svg" xmlns:xlink="http://www.w3.org/1999/xlink" x="0px" y="0px"
	 viewBox="0 0 108 47" style="enable-background:new 0 0 108 47;" xml:space="preserve">
<style type="text/css">
	.st0{display:none;fill:#EC2024;}
	.st1{fill:#FFFFFF;}
	.st2{fill:#EC1E24;}
	.st3{display:none;opacity:0.3;fill:#FFFFFF;enable-background:new    ;}
</style>
<g>
	<g>
		<path class="st0" d="M65.7,36.6C65.7,36.7,65.7,36.7,65.7,36.6C66.2,37,66.2,36.9,65.7,36.6 M59.1,31L59.1,31
			C59.6,31.3,59.5,31.3,59.1,31 M57.4,33.2C57.4,33.3,57.4,33.3,57.4,33.2C57.8,33.6,57.8,33.6,57.4,33.2 M58.4,31.1
			C58.4,31.1,58.4,31.2,58.4,31.1C58.9,31.3,58.9,31.3,58.4,31.1 M66.1,34.2C66.6,34.4,66.6,34.4,66.1,34.2
			C66.1,34.1,66.1,34.1,66.1,34.2 M66.3,33.2c0,0.2,0,0.3,0.1,0.2l0.3-0.1C67,32.6,66.9,32.6,66.3,33.2 M64.5,35v0.2
			c0.6-0.3,0.5-0.5,0-0.5C64.5,34.9,64.5,34.9,64.5,35 M64,34.7C64.4,35.2,64.4,35.1,64,34.7L64,34.7 M84.8,41.2L84.8,41.2
			L84.8,41.2C84.8,41.3,84.8,41.2,84.8,41.2L84.8,41.2 M70.2,36.4c0.1-0.5,0-0.8-0.4-0.8c0,0.2,0,0.4,0.1,0.6H70
			c0,1.1,0.1,1.2,0.1,0.4C70.1,36.5,70.1,36.5,70.2,36.4L70.2,36.4 M70.6,34.1C71,34.4,71,34.3,70.6,34.1
			C70.5,34,70.5,34.1,70.6,34.1 M69.6,34.2c0.6,0,0.6-0.1-0.2-0.5C69.4,34,69.5,34.2,69.6,34.2 M67.4,31c0,0.2,0,0.3,0.1,0.3
			C68.1,31.4,68.1,31.3,67.4,31 M81.3,36.1C81.3,36.2,81.3,36.2,81.3,36.1C81.8,36.5,81.7,36.5,81.3,36.1 M81.7,37.1
			c0.1,0.3,0.3,0.5,0.5,0.7l0.1,0.1C82.9,37.5,82.7,37.3,81.7,37.1 M82,38.7L82,38.7C82.6,39.1,82.6,39,82,38.7 M65.9,9.9
			C65.8,9.9,65.8,9.9,65.9,9.9c-0.4,0.6-0.8,1.1-1.3,1.5c0,0.1,0,0.1,0,0.1c-0.1,0-0.1,0-0.1,0c-0.1,0.1-0.2,0.2-0.3,0.4
			c0,0.1,0,0.1,0,0.1c0,0.1,0,0.1,0,0.1c-0.2,0.1-0.3,0.2-0.4,0.3c0,0.6,0.2,0.5,0.5-0.2v-0.1c0.1-0.2,0.2-0.3,0.3-0.4v-0.1
			c0.1,0,0.1,0,0.1,0C65.2,11.1,65.6,10.5,65.9,9.9 M65.9,9.7c0.2,0.2,0.5,0.1,1-0.4C67,9.2,67,9.1,66.9,9
			C66.5,8.6,66.2,8.9,65.9,9.7 M72,5c-0.1,0.3,0,0.5,0.1,0.6C72.7,5.4,72.7,5.2,72,5 M59.3,27.8C59.8,27.6,59.8,27.6,59.3,27.8
			L59.3,27.8 M58.6,26.5v0.3C59.2,25.9,59.2,25.8,58.6,26.5 M57.1,24.4C57.2,24.4,57.2,24.4,57.1,24.4c0.7-1.1,0.6-1.2-0.1-0.1
			L57.1,24.4c-0.2,0-0.2,0-0.2,0c-0.1,0.2-0.2,0.3-0.3,0.4c0.2,0.2,0.4,0.1,0.5-0.3C57.1,24.5,57.1,24.4,57.1,24.4 M58.4,23.5
			L57.9,24c0,0.2,0.2,0.4,0.4,0.4c0.1,0,0.1,0,0.1,0v0.1c0.5,0.1,0.5,0.1,0-0.2C58.5,23.9,58.5,23.7,58.4,23.5 M51,30.4L51,30.4
			c-0.4,0.1-0.7,0.2-0.9,0.4c0.4,0.3,0.7,0.2,1-0.3v-0.1l0.2-0.2c0.5-0.3,0.4-0.3-0.4,0.1C51,30.3,51,30.3,51,30.4 M47.6,26.9v0.2
			C48,27.1,48,27.1,47.6,26.9 M51.9,23.7L51.9,23.7C52.6,23.5,52.6,23.5,51.9,23.7 M50.2,25C51,24.7,51,24.7,50.2,25L50.2,25
			 M48.2,19.7c0.5,0.6,0.5,0.5,0-0.1C48.2,19.6,48.2,19.6,48.2,19.7 M52,15.4L52,15.4C52.9,15.1,52.9,15.1,52,15.4 M59,15.4L59,15.4
			C59.4,15.3,59.4,15.2,59,15.4 M53.5,5.1v0.2c0.4,0,0.4-0.2,0-0.6C53.5,4.9,53.5,5,53.5,5.1 M48.2,4C48.2,4.1,48.2,4.1,48.2,4
			C48.8,4.5,48.7,4.4,48.2,4 M74.3,37.3c0-0.3-0.2-0.6-0.8-0.7c0,0.3,0,0.5,0.1,0.7s0.2,0.3,0.4,0.4c0.1,0.1,0.1,0.1,0.2,0
			C74.2,37.6,74.3,37.5,74.3,37.3 M71.6,30.6c0.1,0,0.1,0.1,0.2,0.1c0.5,0.4,0.5,0.4,0-0.1C71.7,30.6,71.6,30.6,71.6,30.6
			C71.5,30.5,71.6,30.6,71.6,30.6 M74.9,14.7c0.2,0,0.3,0,0.4,0h0.1C75.2,14.7,75,14.6,74.9,14.7L74.9,14.7L74.9,14.7
			C74.8,14.7,74.8,14.7,74.9,14.7 M68.8,25.3C69.2,25.6,69.2,25.5,68.8,25.3C68.8,25.2,68.8,25.3,68.8,25.3 M68.2,25.1v0.1
			c0.2,0.8,0.6,1.5,1.1,2.1v-0.1C69,26.4,68.7,25.7,68.2,25.1 M75.4,11.8L75.4,11.8c-0.3,0.2-0.6,0.3-0.8,0.4c0.1,0.1,0.4,0.1,0.8,0
			h0.1c0.4,0.1,0.5-0.1,0.5-0.4c0,0,0,0-0.1,0c0.1-0.1,0.2-0.2,0.4-0.2c0.1,0,0.2,0,0.2,0c0.2,0,0.2-0.1,0.1-0.2c0,0,0,0-0.1-0.1
			l0,0c0,0,0,0-0.1,0c-0.2-0.1-0.5,0.1-1,0.4C75.4,11.8,75.4,11.8,75.4,11.8C75.5,11.8,75.5,11.8,75.4,11.8 M73.3,32.4L73.3,32.4
			C74.1,33.2,74.1,33.1,73.3,32.4 M72.8,24.9L72.8,24.9C73.7,25.3,73.7,25.3,72.8,24.9 M74,22.6c0.1-0.4,0-0.7-0.3-0.8
			c-0.5-0.3-0.8-0.1-0.9,0.3c-0.1,0.6-0.4,0.8-0.8,0.7v0.1C72.9,23.6,73.6,23.5,74,22.6 M74.9,22.2c0.7,0,0.7-0.1,0-0.2V22.2
			 M75.2,20C75.1,20,75.2,20.1,75.2,20C75.6,20.3,75.6,20.3,75.2,20 M71.6,21v0.2C72.1,21,72.1,20.9,71.6,21 M73.3,12.9L73.3,12.9
			C74.5,12.5,74.5,12.5,73.3,12.9 M72.5,11.8C72.5,11.9,72.5,11.9,72.5,11.8C73,12.2,72.9,12.2,72.5,11.8 M71.1,14.7L71.1,14.7
			l0.1,0.1c0,0,0,0.1-0.1,0.1c0,0,0,0-0.1,0c0.1,1.2,0.6,1.5,1.5,0.7c0.1-0.1,0.1-0.2,0.1-0.4c-0.1-0.4-0.3-0.6-0.8-0.7
			c0-0.1,0-0.1-0.1-0.1c0-0.1-0.1-0.1-0.1-0.1c0-0.1,0-0.1,0-0.1c0.2-0.1,0.3-0.2,0.5-0.3c0,0,0,0,0-0.1c0.3-0.1,0.6-0.3,0.7-0.5
			l0.1-0.2c-0.3-0.1-0.6,0-0.9,0.4c0,0.1,0,0.1,0,0.1c-0.1,0-0.1,0-0.1,0c-0.5,0.3-1,0.7-1.5,1.1C70.6,15.1,70.8,15.1,71.1,14.7
			 M70.3,10.6L70.3,10.6C71.3,10.7,71.4,10.6,70.3,10.6 M72.1,9.4c0-0.1,0-0.1,0-0.1c-0.2-1.7-0.9-2-2-0.9v0.1
			C70.2,9.7,70.9,10,72.1,9.4 M71.5,10.3C72.2,10.3,72.1,10.3,71.5,10.3L71.5,10.3 M56.7,26.5c0,0.2,0,0.4,0.1,0.5
			c0.1,0.4,0.3,0.5,0.6,0.2c0.2-0.2,0.3-0.4,0.3-0.5c0.1-0.3,0-0.4-0.4-0.3C57.2,26.4,57,26.4,56.7,26.5 M56.5,25.4l0.1-0.1
			c-0.2,0.1-0.5,0.3-0.9,0.7c-0.1,0.1-0.2,0.2-0.3,0.3c0,0.1,0,0.1,0,0.1c0.2,0.1,0.5,0,0.7-0.3C56.2,25.8,56.3,25.6,56.5,25.4
			 M57.9,14.9c0,0.1,0,0.2,0,0.2c0.1,0,0.2,0,0.3,0c0.5,0.1,0.5,0-0.1-0.1C58.1,14.9,58,14.9,57.9,14.9 M52.1,10.1
			c0-0.1,0-0.1,0-0.2c-0.1-0.5-0.4-0.9-0.8-1C51.4,9.5,51.6,9.9,52.1,10.1c-0.1,0.1,0,0.1,0,0.1c0.2,0.4,0.4,0.8,0.5,1.2v0.1h-0.1
			c-0.8-1.3-2.1-2.1-4-2.3c0,0.6,0.2,1.1,0.5,1.3l0.1,0.1h0.1c0.3-0.2,0.7-0.4,1.1-0.3c0.4,0,0.7,0.2,1.1,0.5v0.1
			c0.2,0.4,0.4,0.8,0.7,1.1v0.1c0.2,0.2,0.3,0.4,0.5,0.7c0,0,0,0,0.1,0c0,0.1,0,0.3,0.1,0.4c0,0,0,0,0.1,0c0,0.3,0,0.5,0.2,0.6h0.1
			c0,0,0,0,0,0.1s0,0.1,0,0.1v0.1l0,0c0,0.1-0.1,0.2-0.3,0.1v-0.1c-0.3,0-0.6-0.1-0.8-0.3c0,0,0-0.1,0-0.2c0-0.2-0.2-0.3-0.5-0.2
			c-0.1,0.4,0,0.6,0.3,0.5c0.1,0,0.1,0,0.1,0c0.2,0.1,0.3,0.2,0.3,0.4c0,0,0,0,0.1,0c0.2,0.4,0.4,0.7,0.7,0.9h0.1
			c0.1,0.1,0.2,0.3,0.4,0.4c0.1,0.1,0.3,0.1,0.4,0.2h0.1c0.3,0.6,0.8,1.1,1.5,1.4c0.1,0,0.2,0.1,0.2,0.1s0,0,0,0.1
			c-0.1,0.7,0,1.3,0.3,1.7c0,0,0,0.1,0.1,0.1c-0.5,0.9-0.4,1.7,0.2,2.3c0,0,0.1,0.1,0,0.1s-0.1,0-0.1,0c-0.3-0.4-0.6-0.3-0.8,0.3
			c0-0.1,0-0.1,0-0.1c-0.1-0.3-0.2-0.3-0.4-0.1c-0.1,0.2,0,0.4,0.1,0.4h0.1h0.1c0.5,0.3,0.3,0.6-0.5,0.9v0.1c-0.2,0-0.3,0-0.3,0
			c-0.2-1-0.7-1.3-1.6-0.7c0.2,1.5,0.9,1.8,2,0.9v-0.1c0.6-0.2,1-0.5,1.5-0.8c0,0,0.1,0,0.1-0.1h0.1c0.2,0.2,0.4,0.4,0.8,0.4
			c0.1,0,0.1,0,0.1,0h0.1c0,0.1,0,0.2-0.2,0.3c0.1,0.3,0.3,0.2,0.6-0.1c0,0,0,0,0.1,0c0.4,0.5,0.8,0.8,1.1,0.9c0.1,0,0.1,0,0.1,0
			c0,0.7,0.1,1,0.3,0.9c0.1,0,0.1,0,0.1,0v0.1c0,0.4-0.1,0.8-0.3,1.1c0,0.1,0,0.1,0,0.1c0,0.1,0,0.1,0,0.1c0,0.2,0,0.3-0.2,0.3
			c0.1,0.8,0.2,0.7,0.3-0.3V26c0.4-0.2,0.6,0.3,0.5,1.5c0,0,0,0.1,0.1,0.1c0.1,0.1,0.2,0.1,0.2,0c0.1,0,0.1,0,0.1,0
			c0.1,0,0.1,0,0.1,0c0.2,0.2,0.3,0.2,0.4-0.1v-0.1h0.1c0.3,0.7,0.3,1.3-0.2,1.7c0,0.1,0,0.1,0,0.1c-0.1,0-0.1,0-0.1,0
			c-0.3,0.2-0.8,0.1-1.5-0.3c0,0.2,0.1,0.5,0.2,0.6h0.1v0.1c0,0,0,0-0.1,0c0.1,0.5,0.2,0.5,0.4,0.1v-0.1c0.1,0.4,0.3,0.5,0.7,0.3
			c0.4-0.3,0.9-0.4,1.6-0.4c0.6-0.2,1-0.2,1.4,0.1v-0.1c0-0.3-0.2-0.5-0.6-0.5c0-0.1,0-0.1,0-0.1c0-0.1-0.1-0.1-0.2-0.2v-0.1
			c-0.1-0.2-0.2-0.4-0.4-0.6v-0.1c0-0.2,0-0.4,0-0.7c0.1,0,0.2-0.1,0.2-0.2v-0.1c0.6-0.4,1.2-0.2,1.9,0.6c0.5,0.6,1,1.2,1.6,1.7
			c0.1,0.5,0.1,0.9,0.1,1.3v0.1h-0.1c0,0.3-0.1,0.5-0.3,0.5c0.3,0.9,0.5,0.9,0.4-0.3c0-0.1,0-0.1,0-0.1c0.3-0.5,0.5-1.1,0.3-1.9h0.1
			c0.3,0.4,0.6,0.7,0.8,1v-0.1c0.2-0.2,0.3-0.2,0.4,0v0.1h-0.1c0,0.3,0,0.5,0.2,0.6c0,0,0.1,0,0.1,0.1c0.1,0.2,0.2,0.4,0.2,0.7
			c0,0.1,0,0.1,0,0.2c0.2,0.8,0.4,1.2,0.8,1.4v-0.1c0.3-0.7,0.1-1.1-0.5-1.3c-0.1,0-0.1,0-0.1,0c0-0.1,0-0.1,0-0.2
			c-0.1-0.2-0.1-0.4-0.1-0.7c0-0.1,0-0.1,0-0.1c0.2-0.2,0.2-0.4,0-0.6c0-0.1,0-0.1,0-0.1c0-0.1,0-0.1,0-0.1c0.1,0,0.1,0,0.1,0
			c0.5,0.2,0.8,0.5,0.8,0.8c0,0.2,0.1,0.4,0.3,0.6c0.9,0.7,1.7,1.5,2.2,2.4c0.1,0,0.2,0,0.3,0c0.6,0,1.2,0.2,1.8,0.6c0,0,0,0,0.1,0
			c0.3,0.8,0.7,1.6,1.2,2.3c0.1,0.2,0.3,0.4,0.4,0.6c0.1,0.1,0.2,0.2,0.3,0.3c0.3-0.1,0.4-0.4,0.4-0.9c0,0,0,0,0-0.1
			c0-0.2,0-0.4,0-0.6c-0.4-0.9-0.8-1.5-1.4-2l0,0c-0.2,0-0.5,0-0.8-0.2v-0.1c0-0.2-0.2-0.3-0.4-0.3v-0.1c0,0-0.1,0-0.1-0.1v-0.1
			c-0.3-0.4-0.6-0.8-0.9-1.2c0-0.1,0-0.1,0-0.2c-0.2-0.3-0.4-0.5-0.8-0.7v-0.1l0,0c-0.8-0.5-1.4-1.1-2-1.8c0-0.1,0-0.1,0-0.1
			c-1.1-1.6-2.1-3.2-3.3-4.7c0.7-0.2,1.2-0.6,1.6-1v-0.1c0.8-0.3,1.4-0.7,1.8-1.3v-0.1l0.1-0.1h0.1v0.1c0.2,0,0.3,0.1,0.4,0.2
			c0.4,0.2,0.7,0.5,1,0.9c0.1-0.1,0.1-0.1,0.1-0.1c-0.1-0.4-0.5-0.8-1.2-1.1c-0.1,0-0.2-0.1-0.4-0.1c0-0.1,0-0.1,0-0.1
			c0.3-0.4,0.3-0.6,0-0.7v-0.1v-0.1c0.2-0.2,0.2-0.4-0.2-0.7v-0.1c-0.2-0.5-0.5-1-0.7-1.5c0.3,0,0.6,0,0.8,0.1
			c0.4,0.1,0.7,0.2,1.1,0.3h0.1c0.5-0.6,0.3-1.2-0.5-1.6c0,0,0,0,0-0.1s0-0.1,0-0.1c0.4-0.2,0.5-0.3,0.3-0.3c-0.1,0-0.1,0-0.1,0
			c0-0.1,0-0.1,0-0.1c-0.1-0.3-0.2-0.3-0.4,0v0.1v0.1c-0.1,0-0.1,0-0.1,0c-0.2,0-0.3-0.1-0.5-0.1c-0.6-0.1-1.2-0.2-1.9-0.2
			c0.3-0.2,0.6-0.5,0.9-0.8v-0.1h0.1c0.2-0.1,0.5-0.2,0.7-0.3c0.3-0.2,0.6-0.4,0.8-0.6c-0.1,0-0.1,0-0.2,0c-0.2,0.1-0.5,0.2-0.7,0.3
			c-0.3,0.2-0.7,0.3-1,0.5v0.1c-0.1,0-0.1,0-0.1,0c-0.2,0.2-0.4,0.4-0.7,0.5v0.1c-0.4,0.4-0.6,0.3-0.7-0.1l0,0c0-0.5-0.1-0.8-0.4-1
			c1-0.7,1.5-1.8,1.4-3.1v-0.1c0.1,0,0.1,0,0.1,0c0.7-0.8,0.7-0.9-0.1-0.2c0,0.1,0,0.1,0,0.1h-0.1h-0.1c-0.3,0-0.5-0.1-0.5-0.4v-0.1
			c-0.1-0.2-0.2-0.4-0.1-0.7c0.4-0.5,0.8-1,1.1-1.6l0,0c0,0,0,0,0.1,0c0-0.6,0.1-1,0.4-1.3c0,0,0,0,0.1,0C69,7.8,69,7.7,69.1,7.5
			c0-0.1,0-0.2,0-0.3c0-0.1,0-0.1,0-0.1C69.6,6.6,70,6,70.2,5.2V5.1h0.1c0.1-0.5,0.1-0.8-0.1-1.1c-0.4,0.1-0.7,0.4-0.8,0.9
			C69.3,5.2,69.2,5.6,69,6c-0.4,0.7-0.7,1.3-0.9,2.1c-0.4,1.1-0.8,1.8-1.4,2.3h-0.1c-0.6,1.3-1.4,2.4-2.4,3.4c0,0.1,0,0.1,0,0.1
			c0,0.9-0.3,1.1-0.8,0.7h-0.1c-0.1-1-0.6-1.8-1.6-2.3c-0.1,0-0.1,0-0.1,0c-0.3,0.5-0.1,0.8,0.5,0.9c-0.4,0.3-0.7,0.7-0.8,1.3
			C61.2,14.9,61.1,15,61,15c-0.4,0-0.9,0-1.3-0.1V15h-0.1c-0.1-0.2-0.4-0.3-0.6-0.4c0.1,0.2,0.3,0.4,0.5,0.5h0.1
			c0,0.2,0.1,0.3,0.2,0.4c0.1,0.1,0.2,0.2,0.2,0.3c-0.1,0.9-0.8,1.5-2.1,1.8c0-0.1,0-0.1,0-0.1c0.1-0.4,0.1-0.8,0-1.2
			c-0.2-0.4-0.5-0.8-1.1-1.1c0-0.1,0-0.1,0-0.1c-0.2-0.5-0.4-1-0.5-1.5c0,0,0-0.1,0-0.2c-0.1-0.3-0.2-0.6-0.4-0.9v-0.1
			c0-0.4-0.2-0.7-0.8-0.8v-0.1c-0.2-0.1-0.4-0.2-0.6-0.3c0,0.4,0.2,0.6,0.5,0.6h0.1c0.2,0.2,0.4,0.5,0.6,0.7v0.1
			c0,0.5,0.2,0.9,0.3,1.3c0,0,0,0,0.1,0c0,0.5,0.2,1,0.4,1.3c0,0,0,0.1,0.1,0.1v0.1c0,0.3-0.2,0.4-0.5,0.3c-0.1,0-0.1,0-0.1,0
			c-0.2-0.2-0.4-0.3-0.5-0.5c0-0.1,0-0.1-0.1-0.1c-0.2-0.2-0.3-0.5-0.5-0.7c0-0.1,0-0.1,0-0.1c-0.2-0.1-0.3-0.3-0.3-0.6v-0.1
			c-0.2-0.4-0.5-0.8-0.8-1.1v-0.1c0-0.1-0.1-0.2-0.3-0.3V12c-0.1-0.2-0.3-0.4-0.5-0.6v-0.1C52.7,10.9,52.4,10.5,52.1,10.1
			 M55.9,33.5C56.2,33.9,56.2,33.9,55.9,33.5L55.9,33.5 M55.8,28c0.1,0.3,0.2,0.2,0.4-0.3S56.3,27.3,55.8,28 M56.8,28.3
			c0,0.1,0,0.1,0,0.1C57.2,28.6,57.2,28.6,56.8,28.3 M56.1,31.1L56.1,31.1C56.7,30.7,56.7,30.7,56.1,31.1 M57.1,30.6L57.1,30.6
			C57.5,30.9,57.5,30.9,57.1,30.6 M53.7,31.6L53.7,31.6C54.2,31.9,54.2,31.9,53.7,31.6 M53.3,29.1C53.7,29.3,53.7,29.3,53.3,29.1
			L53.3,29.1 M54.4,27L54.4,27C55.1,26.8,55.1,26.8,54.4,27 M44.8,11.5l0.1,0.2C45.5,11.6,45.5,11.6,44.8,11.5 M47.6,9.5
			c0,0.3,0.1,0.4,0.4,0.4C48.7,9.9,48.6,9.7,47.6,9.5 M47.1,10.4c0.6,0,0.5-0.1-0.3-0.4C46.9,10.3,47,10.4,47.1,10.4 M47.1,9.4
			c0.7-0.1,0.6-0.2-0.3-0.4C46.8,9.3,46.9,9.4,47.1,9.4 M57.2,13C57.2,13,57.2,13.1,57.2,13C58.3,13.8,58.3,13.7,57.2,13 M52.8,7.4
			L52.8,7.4C53.3,7.8,53.3,7.8,52.8,7.4z"/>
		<g>
			<path class="st1" d="M96.3,26.7c0-0.5-0.1-1-0.2-1.4c-0.1-0.7-0.3-1.4-0.3-2c0-1.1-0.4-1.8-1.4-2.4c-0.3-0.2-0.7-0.4-0.9-0.6
				l-0.1-0.1c-0.3-0.4-0.7-0.7-0.8-1.1c-0.2-0.6-0.2-1.2-0.3-1.8c0-0.2,0-0.3-0.1-0.5c0-0.1,0-0.2,0.1-0.3v-0.1
				c0.8-0.2,1.3,0,1.9,0.1c0.1,0,0.2,0,0.3,0.1c0,0.2,0,0.4,0,0.7c0,0.6,0,1.4,0.6,1.7c0.1,0.1,0.3,0.1,0.4,0
				c0.6-0.4,0.5-1.1,0.4-1.7c0-0.2-0.1-0.3-0.1-0.5C95.7,15.1,95.3,15,93,15c-0.9,0-1.7,0.3-2.1,0.8c-0.2,0.3-0.4,0.7-0.3,1v0.5
				c0,0.5,0.1,1.1,0.1,1.6c0,1.5,0.7,2.5,2.2,3.1c1.4,0.6,1.6,1.4,1.5,2.1c0,0.5,0,0.9,0.1,1.3c0,0.3,0.1,0.5,0.1,0.8
				c0,0.5,0,1,0,1.5c0,0.2,0,0.3,0,0.5c-0.8,0.2-1.3,0.2-1.5,0c-0.1-0.1-0.2-0.4-0.2-0.8c0-1.1,0-2.3,0-3.4v-0.8
				c0-0.1,0.1-0.3,0-0.4s-0.3-0.2-0.5-0.2l0,0c-0.5,0-0.6,0.5-0.7,0.7v0.1c-0.1,0.2-0.1,0.4-0.2,0.6c-0.2,0.6-0.5,1.2-0.3,1.7
				c0.2,0.7,0.2,1.4,0.3,2.1c0,0.3,0,0.6,0.1,0.8c0,0.4,0.4,0.8,0.7,1c0.3,0.2,0.7,0.3,1.2,0.3c0.7,0,1.5-0.2,2-0.4
				c0.4-0.2,0.6-0.4,0.6-0.7c0-0.2,0-0.3,0.1-0.5C96.3,27.7,96.4,27.2,96.3,26.7z M88.9,28h-3.1v-0.1c0-0.1,0-0.2-0.1-0.3
				c-0.1-1.2-0.1-2.4-0.2-3.6l-0.1-1c0.1,0,0.2-0.1,0.3-0.1c0.2-0.1,0.5-0.2,0.7-0.3c0.5-0.2,0.8-0.6,0.8-1.2v-0.1h-1.8V17
				c1.5-0.1,2.1-0.6,2.3-1.7v-0.1h-0.1l0,0l-0.2-0.1c-1,0.1-1.7,0-2.4-0.3c-0.2-0.1-0.5-0.1-0.8,0.2c-0.3,0.2-0.6,0.7-0.6,1.1
				c0,0.1,0,0.3,0.1,0.4c0.1,0.5,0.2,1,0.2,1.6c0,0.4,0,0.8-0.1,1.2c0,0.2,0,0.4-0.1,0.6c0,0.1,0,0.2,0,0.4c0,0.2,0,0.5-0.1,0.7
				c-0.3,1.1-0.2,1.9,0,2.7c0,0.1,0,0.3,0,0.5v0.1c0,1.3,0,2.7,0.1,4c0,0.6,0.2,1,0.6,1.3c0.2,0.2,0.5,0.2,0.8,0.2
				c0.2,0,0.5,0,0.7-0.1c0.3-0.1,0.7-0.2,1.1-0.2h0.2c0.1,0,0.3,0,0.4,0s0.3,0,0.4,0c0.7-0.1,0.9-0.4,0.9-1.2L88.9,28z M80.7,16.2
				c0.1-0.7-0.1-1.3-0.9-1.4c-0.8-0.2-1.2,0.3-1.5,0.9c-0.1,0.3-0.2,0.7-0.3,1.1c-0.3,1-1.2,4.7-1.5,4.7c-0.5,0-0.6-1-0.7-1.4
				c-0.4-1.4-0.8-2.8-1.3-4.2c-0.5-1.2-0.8-1.3-2.1-0.9c-0.1,0.8-0.3,1.6-0.2,2.4c0.2,3.4,0.2,6.8-0.4,10.2c-0.2,0.9-0.1,2,1,1.9
				c0.4,0,0.6-0.5,0.6-0.8c0.3-3.1,0.5-5.5,0.8-9c0.6,2.1,1.5,3.8,2.1,5.7c1.1-1.6,1.2-2.6,2.3-3.9c0.1,1.8,0.3,3.4,0.3,5
				s-0.5,3.2,1,2.9c0.5-0.1,0.7-1.1,0.7-1.3c0.1-1.8,0-0.9,0-2.7c0-0.4-0.1-0.9-0.1-1.3c0-1.7,0-3.4,0.1-5.1
				C80.6,18,80.6,17.1,80.7,16.2z M64.6,24.4c0-0.1,0-0.2,0-0.4c0-0.4,0-0.8,0-1.2c0.1-1.2,0.2-2.3,0.3-3.4l0.1-1.5
				c0-0.4,0.3-0.6,0.6-0.7c0.3-0.1,0.7-0.2,1.1-0.2l0.2,0.1c0.1,0.3,0.2,0.6,0.2,0.9c0,1.3,0.1,2.5,0.1,3.8v1.7c0,0.1,0,0.3,0,0.5
				v0.1C66.3,24.4,65.5,24.5,64.6,24.4z M68.8,27.1c0-0.4,0-0.8,0-1.2c0-0.7,0-1.4,0-2.2v-1.1c0-1.7,0-3.5-0.1-5.3
				c-0.1-0.7-0.4-1-0.8-1.4c-0.1-0.1-0.3-0.2-0.4-0.3l-0.1-0.1c-0.8-0.5-1.6-0.5-2.3-0.1c-0.7,0.4-1.5,1.1-1.6,2.2L63.4,18l-0.1,0.2
				c-0.1,0.3-0.1,0.5-0.2,0.8c-0.2,0.7-0.3,1.4-0.3,2.1c0,0.9,0,1.8-0.1,2.7c0,0.5,0,0.9,0,1.4v0.2v0.1l0.1,0.8
				c0,0.6,0.1,1.2,0.1,1.9c0,0.3,0.1,0.4,0.1,0.6c0,0.1,0.1,0.2,0.1,0.4c0,0.2,0.3,0.5,0.5,0.5l0,0c0.2,0,0.4-0.2,0.5-0.4
				c0.1-0.1,0.1-0.3,0.1-0.4c0-0.2,0-0.3,0-0.4s0-0.2,0-0.5v-1.9c0.1,0,0.2,0,0.3,0c0.4,0,0.8,0,1.1-0.1c0.4-0.1,0.7-0.2,1.1-0.3
				l0.3-0.1l0,0c0,0.2,0.1,0.4,0.1,0.6c0,0.3,0,0.6,0.1,1c0,0.4,0,0.8,0.1,1.1v0.1c0,0.3,0.1,0.8,0.3,1c0.1,0.1,0.2,0.1,0.5,0.1
				c0.6-0.1,0.6-0.8,0.6-1.1C68.8,28,68.8,27.6,68.8,27.1z M59.9,23.4c0-0.2,0-0.4,0-0.7c0-0.3-0.2-0.5-0.5-0.5
				c-0.7-0.1-1.8,0.4-2.2,1.2c0.4,0.1,0.8,0.2,1.2,0.3c-0.1,1.4-0.3,2.7-0.4,4.2c-0.3,0.1-0.5,0.2-0.8,0.3c-0.4,0.1-0.7-0.1-0.7-0.5
				c-0.1-0.5-0.1-0.9-0.1-1.4c0-0.2,0-0.4,0-0.6c-0.1-0.4-0.1-0.9,0-1.3c0.1-0.3,0.1-0.7,0.1-1.1s0-0.8,0-1.1c0.2-1.4,0-2.8,0.1-4.2
				c0-0.3-0.1-0.6,0-0.8c0.1-0.6,0.4-0.9,1-0.9c0.4,0,1.4,0.1,1.8,0c0.3,0,0.5-0.3,0.4-0.6c-0.1-0.2-0.3-0.4-0.5-0.4
				c-0.7-0.1-2-0.2-2.7-0.2c-0.3,0-0.6,0.3-0.8,0.6c-0.3,0.6-0.5,1.3-0.6,2c-0.1,1.2-0.2,2.4-0.2,3.6c0,0.5-0.1,1-0.1,1.5
				c-0.1,1.2-0.2,2.1-0.1,3.6c0.1,0.7,0,1.4,0.3,2.1c0.2,0.5,0.6,0.8,1.2,0.9c1.2,0.1,2.2-0.3,3.1-1c0.4-0.3,0.6-0.7,0.6-1.3
				C59.9,25.9,59.6,24.6,59.9,23.4z"/>
		</g>
		<g>
			<path class="st2" d="M30.7,26.7c2.3,0,4.6,0,6.8,0c3,0.1,5.3,1.5,6.7,4.1c1.5,2.8,1.2,6.9-2.1,9.4c-2.8,2.2-6.8,2.2-9.5-0.1
				C32.4,40,32.2,40,32,40c-0.9,0-1.8,0-2.7,0c-0.1,0-0.3,0.1-0.4,0.2c-3.6,3-9.6,2.2-11.9-2.8c-1.4-3.1-0.6-7.2,3-9.5
				c1.3-0.8,2.7-1.1,4.2-1.1C26.3,26.6,28.5,26.7,30.7,26.7L30.7,26.7z M27,35.7c0.4,0,0.8,0,1.2,0c0.4,0,0.6-0.2,0.6-0.6
				c0-0.6,0-1.1,0-1.7c0-0.4-0.2-0.6-0.6-0.6c-0.8,0-1.6,0-2.4,0c-0.3,0-0.3-0.1-0.3-0.3c0-0.8,0-1.6,0-2.4c0-0.5-0.2-0.6-0.6-0.6
				c-0.5,0-1.1,0-1.6,0c-0.4,0-0.6,0.2-0.6,0.6c0,0.8,0,1.6,0,2.5c0,0.2-0.1,0.3-0.3,0.3c-0.8,0-1.7,0-2.5,0c-0.4,0-0.6,0.2-0.6,0.6
				c0,0.6,0,1.1,0,1.7c0,0.4,0.2,0.6,0.6,0.6c0.8,0,1.7,0,2.5,0c0.2,0,0.3,0.1,0.3,0.3c0,0.8,0,1.7,0,2.5c0,0.4,0.2,0.5,0.5,0.5
				c0.6,0,1.1,0,1.7,0c0.5,0,0.6-0.1,0.6-0.6c0-0.8,0-1.6,0-2.4c0-0.2,0.1-0.3,0.3-0.3C26.1,35.7,26.5,35.7,27,35.7z M37.4,32.4
				c0,1.1,0.8,1.9,1.9,1.9c1.1,0,1.9-0.9,1.9-1.9c0-1-0.9-1.9-1.9-1.9C38.2,30.5,37.4,31.3,37.4,32.4z M35.5,34.3
				c-1.1,0-1.9,0.8-1.9,1.9c0,1.1,0.8,1.9,1.9,1.9c1,0,1.9-0.8,1.9-1.9C37.4,35.1,36.5,34.3,35.5,34.3z"/>
			<path class="st1" d="M18.1,22.1c-2.7-2.2-4.2-5.1-4-8.6c0.1-2.6,1.1-4.9,3-6.7C21,3,27,2.9,31.1,6.6c2.3,2.1,3.4,4.8,3.2,7.9
				c-0.2,3.1-1.6,5.6-4,7.6c0.3,0.1,0.5,0.2,0.8,0.3c0.6,0.3,1,0.9,0.9,1.6c-0.1,0.6-0.6,1.2-1.3,1.2c-0.3,0-0.5,0-0.8-0.1
				c-4.5-1.6-8.9-1.4-13.1,0.8c-4.2,2.1-7,5.5-8.4,10.1c-0.1,0.4-0.2,0.7-0.3,1.1c-0.2,1.1,0.5,1.9,1.5,1.9c1.5,0,3,0,4.5,0
				c0.2,0,0.5,0,0.7,0c0.9,0,1.5,0.6,1.5,1.5c0,0.8-0.6,1.5-1.5,1.5c-1.8,0-3.6,0-5.3,0c-2.9,0-5-2.7-4.4-5.5
				c0.8-3.6,2.5-6.8,5.1-9.5c2.1-2.1,4.6-3.7,7.4-4.7C17.8,22.2,17.9,22.1,18.1,22.1z M31.3,13.8c-0.1-3.9-3.4-7.1-7.4-6.9
				c-3.9,0.1-7,3.4-6.9,7.3c0.1,3.8,3.3,7.1,7.5,6.9C28.3,20.9,31.4,17.7,31.3,13.8z"/>
		</g>
	</g>
	<rect class="st3" width="108" height="47"/>
</g>
</svg>
