<?xml version="1.0" encoding="utf-8"?>
<!-- Generator: Adobe Illustrator 25.4.1, SVG Export Plug-In . SVG Version: 6.00 Build 0)  -->
<svg version="1.1" id="hellgate" xmlns="http://www.w3.org/2000/svg" xmlns:xlink="http://www.w3.org/1999/xlink" x="0px" y="0px"
	 viewBox="0 0 193 249.8" style="enable-background:new 0 0 193 249.8;" xml:space="preserve">
<style type="text/css">
	.st0{fill:none;stroke:#FF0000;stroke-width:9;stroke-miterlimit:10;}
</style>
<g>
	<path class="st0" d="M52.5,109.2h-32c-2.1,0-3.8,1.6-4,3.6l-12,128c-0.1,1.1,0.3,2.2,1,3.1c0.8,0.8,1.8,1.3,3,1.3h40
		c2.2,0,3.9-1.7,4-3.9l4-128c0-1.1-0.4-2.1-1.1-2.9C54.6,109.7,53.6,109.2,52.5,109.2z"/>
	<path class="st0" d="M176.5,112.9c-0.2-2.1-1.9-3.6-4-3.6h-32c-1.1,0-2.1,0.4-2.9,1.2c-0.8,0.8-1.2,1.8-1.1,2.9l4,128
		c0.1,2.2,1.8,3.9,4,3.9h40c1.1,0,2.2-0.5,3-1.3s1.1-1.9,1-3.1L176.5,112.9z"/>
	<path class="st0" d="M140.5,95.2h23.9c2.1,0,3.9-1.7,4-3.8c0.1-1.4,0.1-2.8,0.1-4.2c0-10.2-2.1-19.9-6.1-29.1
		c5.9-4.4,10-10.9,11.6-18.5c1.8-8.7,0.3-17.9-4.3-26c-1.7-2.9-3.7-5.6-6.1-7.9c-1.3-1.3-3.3-1.5-4.8-0.6c-1.6,0.9-2.3,2.8-1.9,4.5
		c2.9,10.8-0.8,21.8-8.9,27.3c-13.5-13.8-32.1-21.6-51.4-21.6c-18.7,0-36.8,7.4-50.2,20.3c-7-5.9-9.9-15.9-7.2-26
		c0.5-1.8-0.3-3.6-1.9-4.5c-1.6-0.9-3.6-0.6-4.8,0.6c-2.3,2.3-4.4,5-6.1,7.9c-8.5,14.8-6.2,32.5,5.1,42.7
		c-4.6,9.6-6.9,20.2-6.9,30.9c0,1.4,0,2.8,0.1,4.2c0.1,2.1,1.9,3.8,4,3.8h23.9c2.2,0,4-1.8,4-4c0-22.1,17.9-40,40-40s40,17.9,40,40
		C136.5,93.5,138.3,95.2,140.5,95.2z"/>
</g>
</svg>
