<?xml version="1.0" encoding="utf-8"?>
<!-- Generator: Adobe Illustrator 25.4.1, SVG Export Plug-In . SVG Version: 6.00 Build 0)  -->
<svg version="1.1" id="Layer_1" xmlns="http://www.w3.org/2000/svg" xmlns:xlink="http://www.w3.org/1999/xlink" x="0px" y="0px"
	 viewBox="0 0 169.4 297.1" style="enable-background:new 0 0 169.4 297.1;" xml:space="preserve">
<style type="text/css">
	.st0{clip-path:url(#SVGID_00000127024931343075613800000015790664815757210532_);}
	.st1{fill:#FFFFFF;}
	.st2{fill:#E7F6FD;}
	.st3{fill:#ACE0F4;}
	.st4{fill:none;stroke:#000000;stroke-width:6;}
	.st5{fill:#ACE0F4;stroke:#000000;stroke-width:5;}
</style>
<g>
	<defs>
		<path id="SVGID_1_" d="M11.5,35.3c-1.4,16.1-0.1,32.2,0.3,48.3C13.5,138.5,6.1,193.1,1,247.8c-1.5,16.5-2.6,34.3,6.2,48.5
			c8.2,13.2,23.9,20.6,39.4,21.7c15.5,1.1,31-3.1,45.5-8.9c12-4.7,23.7-10.5,34-18.2c33.3-25,49.4-70.1,41.4-110.9
			c-2.9-15-8.8-29.7-8.3-45.1c0.2-7.5,1.9-14.8,3.3-22.1c5.2-28.6,4.5-58,3.9-87.1c-0.1-3.2-0.2-6.4-1.4-9.3
			c-1.4-3.1-3.9-5.4-6.4-7.7c-29.6-26.4-57,17.3-94,2.9C43.5,3.5,50.8,2,33.1,6.4C12.1,11.5,13.3,14.6,11.5,35.3z"/>
	</defs>
	<clipPath id="SVGID_00000170247129477540604050000003131748728472959927_">
		<use xlink:href="#SVGID_1_"  style="overflow:visible;"/>
	</clipPath>
	<g style="clip-path:url(#SVGID_00000170247129477540604050000003131748728472959927_);">
		<path class="st1" d="M462.6,80.3c1.2-0.3,2.4-0.6,3.6-0.9c1.2-0.3,2.3-0.6,3.4-1c0.6-0.2,1.2-0.5,1.8-0.7c2.2-0.7,4.5-0.4,6.7,0.2
			c1.5,0.4,3.1,1.1,3.8,2.5c0.1,0.3,0.2,0.6,0.1,0.8c-0.1,0.2-0.3,0.4-0.4,0.5c-3.5,3-5.3,7.9-9.2,10.5c-2.9,1.9-6.4,2.2-9.9,2.5
			c-0.3,0-0.6,0-0.8,0c-0.3-0.1-0.6-0.3-0.9-0.5c-0.9-0.7-1.5-1.8-1.7-2.9c-0.1-0.8-0.1-1.7-0.4-2.5c-0.2-0.4-0.4-0.8-0.7-1.1
			c-0.9-1.4-1.7-4-1-5.6c0.4-0.8,1-0.8,1.8-0.9C460.1,81,461.4,80.7,462.6,80.3z"/>
		<g>
			<path class="st2" d="M242.8,95.2c1.9,2.4,3.1,5.5,3.9,8.6c3.6,12.1,5.6,24.7,6.2,37.3c0.3,6.6,0.2,13.6,3.6,19.4
				c3.7-15.7,7.4-31.4,11.2-47.2c0.6-2.5,1.3-5.2,3.1-7c2.8-2.8,7.7-2.9,10.3-6c3.6-4.3,1-11.9,5.1-15.7c3.1-0.1,6.3,0,9.3,0.4
				c10.8,1.5,16,7.2,23.2,14.3c1.9,1.9,3.8,3.8,5.9,5.4c1.5,2.4,2.9,4.9,4.3,7.3c1.5,2.6,3.5,5.6,6.5,5.4c5.1-0.2,5.5-8.2,9.7-11.1
				c3-2.1,7.9-0.5,9,3c3.2-4.8,10.5-5.1,15.5-2.3c5,2.9,8.2,8,11.2,12.9c3.6-6.3,7.3,1.4,12.7-3.3c8.3-7.1,19.5-9.5,30.6-9.8
				c2-0.1,4-0.1,5.9,0c4.3,0.1,12.8-12.4,17.1-12.2c8.1,0.5,27.3-7,25.1-4.1c0.5,0,6.6-3.6,7.1-3.7c-0.6-0.1-8.8,6-9.4,6
				c-6-1-3-8.1-9-9.1c-1.5-0.2-8.2,2.5-9.3,1.5c-1.2-1.1-4.9,5.2-5.7,3.8c-2.3-4.2-10.9,3.3-15.6,2.2c-4.4-1-8.9-1.8-13.4-2.6
				c-2.3-1.4-4.8-2.4-7.5-2.7c-2.1-1.5-4.4-2.7-6.8-3.5l-0.1,0c-1.5-0.5-2.9-0.8-4.4-1.1c-4.2-3.8-9.7-19.7-15.5-20.5
				c-6-0.9-12.5-0.6-18.1,0c-7-2.9-14.4-4.6-21.9-4.4c-9.3,0.3-17.6,0.6-25.7,0c-1.2-0.1-2.3-0.2-3.5-0.3l-0.1,0
				c-7-0.7-14-2.3-21.5-5.2c-9.5-5.5-20.4-8.6-31.9-9.6c-12.9-1.1-31.4-0.3-44.9,6c-7.9-3.7-15.8-5.2-25.9-3.2
				c-3.7,0.7-8.4,1.5-13.1,2.8c-2.7-1.2-5.3-2.6-7.8-4.2c-1-0.6-1.9-1.2-2.9-1.8c-4.8-3.1-9.6-6.5-14.8-9.6
				c-10.6-6.2-22.5-7.4-34.6-7.6c-12.6-0.2-31.9-1.5-43.8,5.8c-0.3,0.2-0.6,0.3-0.9,0.5c-1-0.4-1.9-0.8-2.9-1.2
				c-17.7-9-35.3-78.6-53.9-78c-1.8-0.8-3.7-1.6-5.6-2.1c-11.7-3.4-23.2-6.5-34.6-10.5c-0.8-3-2.5-5.1-4.8-7.8
				c-0.9-1.1-1.9-2.2-2.9-3.6c-0.2-0.3-0.4-0.6-0.6-0.9c-4.8-6.5-7.8-14.2-12.6-20.7c-4.3-5.8-9.7-10.3-14.9-15.2
				c-10.4-9.8-12.9-18.9-16.8-32.4c-0.1-0.4-0.3-0.8-0.5-1.1c0.3-1.7-0.5-3.4-2.1-4.3c-0.3-1.7-0.6-3.5-0.7-5.2
				c-0.1-2.4-0.1-4.7,0.1-7.1c0.2-0.3,0.3-0.6,0.4-1.1c0.1-0.9,0.2-1.7,0.2-2.6c0-0.8,0-1.7,0.1-2.5c-5.1-3.6-5.9-11.7-6.3-12.3
				c-6.6-10.1,2.1,5.6,1.2,8.7c-0.1,0.2-0.1,0.5-0.2,0.7c-0.1,0.2-0.2,0.4-0.3,0.7c0,0.3-0.1,0.6-0.2,0.9c-0.3,1.2-0.6,2.3-0.9,3.6
				c-1.1,5.1-1.7,10.7-1.3,16.1c-0.8,0.7-1.3,1.8-1.2,3.2c0.2,2.7,0.2,5.6,0.6,8.7c0,0.9,0,1.8,0.1,2.8c0.8,10.9,6.6,22.5,8.1,32.1
				c0.9,5.7,2.3,11.8,4.8,17.4c0.7,3.4,1.4,6.8,2.1,10.2c2.1,11,3.7,22.1,3.5,33.3c-0.1,5.1-0.6,10.2-0.3,15.3
				c0.7,15.2,7.5,29.6,8.3,44.7c0.2,4.9,0.1,10.5,3.8,13.8c1.3-14.5,4.1-28.9,8.3-42.8c0.7-1.5,1.4-2.9,2.1-4.4
				c2.7-4.9,5.9-9.9,8.1-15c1.3-0.3,2.8-0.3,4.4,0.2c0.8,0.2,1.5,0.3,2.1,0.3c2.1,0.8,4.1,1.8,6.1,2.9c0.9,0.5,1.9,1.1,2.8,1.7
				c0.6,1.5,1.2,3,1.9,4.4c1,2.2,1.8,4.4,2.6,6.7c-0.7,4.4-1.1,8.9-0.9,13.2c0.1,4.7,1.5,8.7,2.5,13.2c1.1,5.2,0.8,10.6,1.5,15.9
				c0.1,0.4,0.1,0.8,0.1,1.2c-1.2,10.1-1.5,20.4-1.2,30.5c0.5,22.8,3,45.6,0.4,68.2c-0.5,4.3,0.1,10.4,4.5,10.7
				c4.1-7.4,5-16.1,6-24.5c4-34.3,10.5-68.4,19.6-101.8c0.7-2.7,1.6-5.5,3.9-7.1c1,0.4,2,0.9,2.9,1.6c1.6,1.1-2.6,70.3-1.3,71.8
				c0.3,0.3,0.6,0.7,0.8,1.1c1.1,1.5,2.2,3.1,2.8,4.9c0.8,2,1.2,4.1,1.5,6.2c1.4,8,2.8,16,4.3,24c1.5,8.5,3,17.3,1.9,25.9
				c-0.5,3.8-1.5,7.5-1.5,11.3c-0.1,4.7,1.2,9.3,2.2,13.9c2,9.8,2.4,19.8,3.1,29.7c1.4,20.4,4.1,40.8,6.8,61l2.7,20.6
				c0.3,2.3,1.5,5.3,3.8,4.9c3.7-9.5,5.3-19.5,6.3-29.7c6.8-26.1,16-51.3,20.4-78.2c1-6.2,0.9-13.9,2.9-19.8
				c1.6-4.7,5.4-7.9,7.1-12.6c1.5-4.4,1.8-9.8,1.5-15.3c0.7-5,1-10.3,1.4-15.2c0.4-5.3,1.9-10.2,3.8-15.1c0.1-0.2,0.1-0.4,0.2-0.5
				c0.7,0.3,1.4,0.7,1.9,1.3c1.6,1.8,2,4.5,2.3,7c0.6,5.1,1.1,10.1,1.7,15.1c0,0.4,0,0.8,0,1.2c0,0.7,0.1,1.3,0.4,1.8
				c0.5,3.9,0.9,7.7,1.3,11.6c0.2,1.5,0.6,3.3,2,3.8c2.4,0.8,3.8-2.5,3.9-5c0.3-5.7,0.7-11.6,1.6-17.2c1-6.3,2.8-12.5,6.1-17.6
				c1,0.1,2,0.5,2.8,1.1c2,1.8,2.6,4.6,3,7.3c6.2,36.2,9.2,72.9,9,109.6c0,3.7,1.2,8.7,4.9,8.5c1.3-8.8,2.6-17.6,3.9-26.4
				c0.4-1.3,0.5-2.7,0.6-4.3l0-0.1c0.8-0.4,1.5-1.1,1.8-1.9c3-7.2,2.5-14.1,3.2-21.8c1.1-10.7,6.2-20.2,9.1-30.5
				c5.2-18.4,4.7-37.4,13-54.9c2.2,0.1,4.3,1,5.7,2.8c1.4,1.8,1.9,4.2,2.3,6.5c2.4,13.7,4.7,27.4,6.9,41.1c0.2,1.1,0.7,2.4,1.8,2.4
				c0.9,0,1.4-1,1.6-1.9c1.6-5.4,0.6-11.4,2.5-16.7c1.5-4,4.6-7.3,6.2-11.3c1.9-4.6,1.8-10.2,5-14.1c0.3-0.3,0.6-0.6,0.9-0.9
				c0.8-0.7,1.6-1.4,2.5-2.1c0.1,0.1,0.3,0.3,0.4,0.4l0.1,0l0.1,0c0.1,0.1,0.2,0.1,0.3,0.1c0,0.1,0,0.2,0,0.2
				c0.1,1.9,0.3,3.8,0.3,5.7c0.7,11,1.1,22,1.2,33c-0.6,5.5-0.7,11-0.1,16.6c-0.8,12-3.2,26.2,0.4,37.3c0.6,10.2,2.1,20.5,4.5,30.5
				c1.2-8.6,2.5-17.1,3.8-25.7c0.6-0.6,1.1-1.5,1.2-2.6c0.8-7.6,2.1-15,3.9-22.4c1.1-1.3,2.4-2.5,3.6-3.7c4.4-4.8,5.6-11.6,6.7-18
				c1.5-9.2,3-18.3,4.5-27.4c1.2-4.1,2.3-8.3,3.4-12.5c0.1-0.4,0.2-0.9,0.3-1.3c0.7-2.8,1.4-6.1,1.6-9.6c0.1-0.8,0.2-1.6,0.2-2.4
				C235.9,89.3,239.8,92.4,242.8,95.2z"/>
			<path class="st3" d="M-13.7,140.5c4.1-7.4,5-16.1,6-24.5C-3.8,81.6,2.8,47.6,11.9,14.2c0.7-2.7,1.6-5.5,3.9-7.1
				c1,0.4,2,0.9,2.9,1.6c0.5-3.3,0.7-6.4-1.8-8.2c-2.5,1.7-6.3,1.3-8.4-0.9C8.3,3.9,8,8.4,5.9,12.1c-2.1,3.8-6.6,6.6-10.7,5.3
				c-5.7-1.7-6.9-9.2-7.3-15.1c-0.6-9.5-1.8-18.9-3.7-28.2c-0.3-1.5-0.7-3.2-1.8-4.3c-1.3-1.2-3.3-1.3-5.1-1.7
				c-4.6-0.8-8.9-3.4-11.8-7.1c0,1.6-1.9,2.5-3.5,2.2c-1.5-0.4-2.7-1.6-3.7-2.8c-3.2-3.6-6.5-7.2-9.7-10.8c-0.8,2.8-4.6,3.9-7.3,2.7
				c-2.7-1.2-4.4-3.8-6-6.3c-3.7-6.2-6.8-12.8-9.2-19.6c2.1,11,3.7,22.1,3.5,33.3c-0.1,5.1-0.6,10.2-0.3,15.3
				c0.7,15.2,7.6,29.6,8.3,44.7c0.2,4.9,0.1,10.5,3.8,13.8c1.3-14.5,4-28.9,8.3-42.8c0.7-1.5,1.4-2.9,2.1-4.4c2.7-4.9,6-9.9,8.1-15
				c1.3-0.3,2.8-0.2,4.4,0.2c0.8,0.2,1.4,0.3,2.1,0.3c2.1,0.8,4.1,1.8,6.1,2.9c0.9,0.5,1.9,1.1,2.8,1.7c0.6,1.5,1.3,2.9,1.9,4.4
				c1,2.2,1.8,4.4,2.6,6.7c-0.7,4.5-1.1,8.9-0.9,13.2c0.1,4.7,1.5,8.7,2.5,13.2c1.2,5.2,0.8,10.6,1.5,15.9c0.1,0.4,0,0.8,0.1,1.2
				c-1.2,10.1-1.5,20.4-1.2,30.5c0.5,22.8,3,45.6,0.4,68.2C-18.6,134.1-18,140.2-13.7,140.5z"/>
			<path class="st3" d="M89.1,97c-9.4,5.8-19,11.1-28.9,16c-3.6,1.8-7.8,3.6-11.6,2.2c-2.5-0.9-4.4-3.1-6.1-5.2
				c-4.9-6-9.8-12-13.3-18.8c-1.3-2.4-2.4-5-4.3-7c-1.7-1.8-4.3-3.1-6.8-2.7c1.2,1.5,2.2,3.1,2.8,4.9c0.8,2,1.2,4.1,1.5,6.2
				c1.4,8,2.9,16,4.3,24c1.5,8.6,3,17.3,1.9,25.9c-0.5,3.8-1.5,7.5-1.5,11.3c-0.1,4.7,1.2,9.3,2.2,13.9c2,9.8,2.4,19.8,3.1,29.7
				c1.4,20.4,4.1,40.7,6.8,61l2.7,20.6c0.3,2.3,1.5,5.3,3.8,4.9c3.7-9.5,5.3-19.5,6.3-29.7c6.8-26.1,16-51.3,20.4-78.2
				c1-6.2,0.9-13.9,2.9-19.8c1.6-4.6,5.5-7.9,7.1-12.6c1.5-4.4,1.8-9.8,1.5-15.3c0.7-5,1-10.3,1.4-15.2c0.4-5.3,2-10.2,3.8-15.1
				C89.1,97.7,89.1,97.4,89.1,97z"/>
			<path class="st3" d="M198.2,98.4c0.2-1.6,0.4-3.2,0.6-4.8c0.4-4,0.9-7.9,1.5-11.8c-2.6,4.4-8.4,5.5-13.5,6.2
				c-2.7,0.4-5.5,0.7-8.2,0.2c-3.4-0.6-6.4-2.5-9.2-4.5c-5.6-3.9-11.1-8-16.3-12.3c-4.8,9.3-14.5,14.9-23.6,20c-2,1.1-4,2.2-6.3,2.3
				c-1.6,0-3.1-0.5-4.6-1.1c-4.2-1.7-8.1-4.2-11.4-7.4c-1,10.5-2.1,21-3.2,31.6l0,0.2c1-6.4,2.8-12.5,6.1-17.6c1,0.1,2,0.5,2.8,1.1
				c2,1.8,2.6,4.6,3,7.3c6.2,36.2,9.2,72.9,9,109.6c0,3.7,1.2,8.7,4.9,8.5c1.3-8.8,2.6-17.6,3.9-26.4c0.4-1.3,0.5-2.7,0.6-4.3l0-0.1
				c0.8-0.4,1.5-1,1.8-1.9c3-7.2,2.5-14.2,3.2-21.8c1-10.7,6.2-20.2,9.1-30.5c5.2-18.4,4.7-37.4,13-54.9c2.2,0.1,4.3,1.1,5.7,2.8
				c1.4,1.8,1.9,4.2,2.3,6.5c2.4,13.7,4.7,27.4,6.9,41.1c0.2,1.1,0.7,2.4,1.8,2.4c0.9,0,1.4-1,1.6-1.9c1.6-5.4,0.5-11.4,2.5-16.7
				c1.5-4,4.6-7.3,6.2-11.3c1.9-4.6,1.8-10.2,5-14.1c0.3-0.3,0.6-0.6,0.9-0.9c0.8-0.8,1.6-1.4,2.5-2.1c0.1,0.1,0.3,0.3,0.4,0.4
				l0.1,0.1c0.1,0.1,0.2,0.2,0.3,0.3C198,94.6,198.2,96.5,198.2,98.4z"/>
			<path class="st3" d="M329.8,93.2c-4.3-1.7-8.2-4.3-12.1-6.8c-5.2-3.4-10.4-6.9-15.5-10.3c-1.9-1.3-4-2.6-6.3-3
				c-1.8-0.3-3.7,0-5.5,0.4c-7.2,1.3-14.3,2.6-21.5,3.9c0.6,5.3-4.3,10-9.6,11.2c-5.3,1.1-10.7-0.3-15.9-1.5
				c-5.2-1.2-10.8-2.3-15.9-0.5c2.1,1.9,4,3.9,5.8,6.1c0.1-0.8,0.2-1.6,0.2-2.4c2.5-0.9,6.4,2.1,9.4,5c1.9,2.4,3.1,5.5,3.9,8.6
				c3.6,12.1,5.6,24.7,6.2,37.3c0.3,6.6,0.2,13.6,3.6,19.4c3.7-15.7,7.4-31.4,11.2-47.2c0.6-2.5,1.3-5.2,3.1-7
				c2.8-2.8,7.7-2.9,10.3-6c3.6-4.2,0.9-11.9,5.1-15.7c3.1-0.1,6.3,0,9.3,0.4c10.7,1.5,16,7.2,23.2,14.3c1.9,1.9,3.8,3.8,5.9,5.4
				c1.5,2.4,2.9,4.9,4.3,7.3c1.5,2.6,3.5,5.6,6.5,5.4c5.1-0.2,5.5-8.2,9.7-11.1c3-2.1,7.9-0.5,9,3c3.2-4.8,10.5-5.1,15.5-2.3
				c5,2.9,8.2,8,11.2,12.9c3.6-6.2,7.3,1.4,12.7-3.3c8.3-7.1,19.5-9.5,30.6-9.8c0.4-0.7,0.8-1.4,1.1-2.1c-8.1,0.1-16.2,0.3-24.3,0.4
				c-5,0.1-10.1-13.8-15.1-12.9c-3.2,0.6-6.3,1.6-9.5,1.8c-3.5,0.2-6.9-0.6-10.4-1.3c-10.8-2.4-21.5-4.8-32.3-7.2
				c4.6,4.5,10.2,7.9,16.2,10.1C343.2,96,336.2,95.7,329.8,93.2z"/>
			<path class="st3" d="M197,91.9c0.1,0.1,0.3,0.3,0.4,0.4l0.1,0.1c-0.5-0.6-1.1-1.2-1.5-1.8l-1.5,3.4
				C195.3,93.3,196.2,92.6,197,91.9z"/>
			<path class="st3" d="M199.7,185.3c0.6,10.3,2.1,20.5,4.5,30.5c1.3-8.5,2.5-17.1,3.8-25.7c0.6-0.6,1.1-1.5,1.2-2.6
				c0.7-7.6,2.1-15.1,3.9-22.4c1.1-1.3,2.4-2.5,3.6-3.7c4.4-4.8,5.6-11.6,6.7-18c1.5-9.1,3-18.3,4.5-27.4c1.2-4.1,2.4-8.3,3.4-12.5
				c0.1-0.4,0.2-0.9,0.3-1.3c-0.1-1.1-0.4-2.2-0.6-3.3c-10.5,4.8-23.7,2.5-32.2-5.3c-0.3-0.3-0.6-0.6-0.9-0.9
				c0.1,1.9,0.3,3.8,0.3,5.7c0.7,11,1.1,22,1.2,33c-0.6,5.5-0.6,11-0.1,16.6C198.5,160,196.1,174.2,199.7,185.3z"/>
			<path class="st3" d="M88.7,67.5c-2.6-0.2-5.2-0.3-7.7,0.2c-4,0.8-7.6,3.3-11.7,4.1c-7.1,1.4-14.3-2.7-19.6-7.7
				c-1.1-1.1-2.3-2.2-3.8-2.7c-2.4-0.8-5.5,0.3-7.4-1.4c-0.9-0.8-1.3-1.9-2.3-2.5c-1.2-0.8-2.8-0.3-4.2,0.1
				C23.5,60,19.4-9.9,12.6-15.7l2.2,3.4c6.4,3.7,7.3,74.7,14.1,77.6c3.5,1.5,7.6,2.9,10.8,0.9c3,3.6,4.8,8,7.2,12s5.8,7.8,10.4,9
				c3.3,0.9,6.8,0.3,10.2-0.4c4.6-0.8,9.3-1.7,13.9-2.5c3.6-0.7,7.2-1.3,10.4-3c3.2-1.7,5.9-4.7,6.4-8.3
				c10.5-0.7,20.8-4.3,29.5-10.1c-4.6-1.5-9.2,1.7-13.7,3.4C106,69.5,97.2,68.1,88.7,67.5z"/>
			<path class="st3" d="M185.1,67.8l0.4,0.6c8.1,5.7,17.1,10.8,27,11.8c14.3,1.4,27.8-5.9,40.3-13c-12.9,3.1-26,6.2-39.2,5.8
				C203.9,72.7,194.4,70.6,185.1,67.8z"/>
			<path class="st1" d="M101.7,43.1c-3.5,0.2-3.5,5.5-0.5,6.5c3.7,1.3,7.5,1.7,11,3.6c3.5,1.9,7.2-2.9,3.7-5.2
				C111.7,45.1,106.9,42.8,101.7,43.1z"/>
			<path class="st1" d="M313.4,56.4c-7-0.7-14-2.3-21.5-5.2c-9.5-5.5-20.4-8.6-31.9-9.6c-12.9-1.1-31.4-0.3-44.9,6
				c-7.9-3.7-15.8-5.2-25.9-3.2c-3.7,0.7-8.4,1.5-13.1,2.8c-2.7-1.2-5.3-2.6-7.8-4.2c-0.4,0.3-0.9,0.7-1.3,1c-0.5-1-1-1.9-1.6-2.8
				c-4.8-3.1-9.6-6.5-14.8-9.6c-10.6-6.2-22.5-7.4-34.6-7.6c-12.6-0.2-20.4-6-25.8-14.2C90.1,10,66.9-2.5,65.9-2.9
				c-17.7-9-32.6-46.6-51.2-46c-1.8-0.8-3.7-1.6-5.6-2.1c-11.7-3.4-23.2-6.5-34.6-10.5c-0.8-3-2.5-5.1-4.8-7.8
				c-0.6-0.6-1.2-1.2-1.7-1.9c-0.7-0.8-1.3-1.7-1.8-2.6c-4.8-6.5-7.8-14.2-12.6-20.7c-4.3-5.8-9.7-10.3-14.9-15.2
				c-10.4-9.8-12.9-18.9-16.8-32.4c-0.1-0.4-0.3-0.8-0.5-1.1c0.3-1.7-0.5-3.4-2.1-4.3c-0.3-1.7-0.6-3.5-0.7-5.2
				c-0.1-2.4-0.1-4.7,0.1-7.1c0.2-0.3,0.3-0.6,0.4-1.1c0.1-0.9,0.2-1.7,0.2-2.6c-1.9-1-4.4-1.1-6.5-0.3c-1.1,5.1-1.7,10.7-1.3,16.1
				c-0.8,0.7-1.3,1.8-1.2,3.2c0.2,2.7,0.2,5.6,0.6,8.7c0,0.9,0,1.8,0.1,2.8c1.2,2.7,2.7,5.4,4.2,8c8.1,13.1,19.6,24.7,29,37
				c6.8,8.8,10.2,21.6,18,29.1c8.1,7.8,20.1,13.5,31.6,15c0.1,0.2,0.2,0.4,0.4,0.6c8.5,9.7,18.4,6.6,30.2,5.6
				c16.2-1.3,24.7,68.1,39.2,75c-5.5-0.3-11-0.5-16.5-0.5c-10.4,0-16.5-68.4-25.7-63.1c-4.6,2.7-3.2,8.8,1.8,9.8
				c9.9,1.9,14.6,66.1,24.5,64.8c12.3-1.6,24.6-2.3,37-1.9c2.5,0.1,3.9-1.9,3.9-3.8c9.2-1.5,18.5-4.4,28.1-2.8
				c11.3,1.8,38,5.2,43.9,15.6c0.7,1.3,1.8,2,3.1,2.4c0.6,0.9,1.5,1.5,2.8,1.5c9.3,0,18.2-1.7,27.6-0.7c2.3,0.3,3.8-1,4.3-2.7
				c5.6,1.2,11.1,3.1,16.9,3.1c2.1,0,4-0.3,5.8-0.8c8.5,2.5,18.8-1.8,27.2-3.4c1.6-0.3,2.8-1.3,3.5-2.5c0.3,0,0.6,0,1,0
				c6.2,1.2,12.3,3.6,18.3,6c0.8,0.3,1.6,0.3,2.3,0.3c11.8,10.1,23.3,10.5,38.9,12.5c19.4,2.6,37.8,4.7,57.6,3.9
				c15.8-0.6,35.7,15.5,50.6,21.4c8.4,3.3,51.6-19.5,59-15.8c8.1,0.5-13.7,13.6-5.7,12.4c0-0.2,6.5-14,0,0c-6-1-11.2-10-17.2-11
				c-1.5-0.2,17.9-0.4,16.8-1.4c-1.2-1.1,4.3,1.4,3.6,0c-2.3-4.2-5.8,0.9-10.5-0.2c-4.4-1-31.6,2.3-36.1,1.6
				c-2.3-1.4-17.9,4.6-20.7,4.3c-2.1-1.5-4.4-2.7-6.8-3.5l-0.1,0c-1.5-0.2-3.1-0.5-4.6-0.8c-5.5-1.3-10.2-18.5-15.4-20.5
				c0-0.1,0-0.2,0-0.3c-6-0.9-12.5-0.6-18.1,0c-7-2.9-14.4-4.6-21.9-4.4c-9.3,0.3-17.6,0.6-25.7,0c0,0.2,0,0.4,0,0.6
				C315.8,57,314.7,56.8,313.4,56.4L313.4,56.4z"/>
			<path class="st1" d="M128.1,54.2c-4.4-0.8-5,6.9-0.6,6.8c0.2,0,0.3,0,0.5,0c4.4,0,4.9-6,0.6-6.8
				C128.5,54.2,128.3,54.2,128.1,54.2z"/>
		</g>
		<g>
			<path class="st4" d="M243,92.6c1.9,2.4,3.1,5.5,3.9,8.6c3.6,12.1,5.6,24.7,6.2,37.3c0.3,6.6,0.2,13.6,3.6,19.4
				c3.7-15.7,7.4-31.4,11.2-47.2c0.6-2.5,1.3-5.2,3.1-7c2.8-2.8,7.7-2.9,10.3-6c3.6-4.3,1-11.9,5.1-15.7c3.1-0.1,6.3,0,9.3,0.4
				c10.8,1.5,16,7.2,23.2,14.3c1.9,1.9,3.8,3.8,5.9,5.4c1.5,2.4,2.9,4.9,4.3,7.3c1.5,2.6,3.5,5.6,6.5,5.4c5.1-0.2,5.5-8.2,9.7-11.1
				c3-2.1,7.9-0.5,9,3c3.2-4.8,10.5-5.1,15.5-2.3c5,2.9,8.2,8,11.2,12.9c3.6-6.3,7.3,1.4,12.7-3.3c8.3-7.1,19.5-9.5,30.6-9.8
				c2-0.1,4-0.1,5.9,0c4.3,0.1,8-6.3,12.3-6.1c8.1,0.5,19.4-4,27.3-5.2c0.5,0,20.8-15.9,21.3-16c-0.6-0.1-11.4,1.3-12,1.2
				c-6-1-4.4-0.1-10.4-1.1c-1.5-0.2-10.7,4.1-11.8,3.1c-1.2-1.1-11.5,3-12.3,1.6c-2.3-4.2-14.9,1-19.6,0c-4.4-1-3.5,0.7-8,0
				c-2.3-1.4-4.8,1.9-7.5,1.6c-2.1-1.5-4.4-2.7-6.8-3.5l-0.1,0c-1.5-0.5-2.9-0.8-4.4-1.1c-4.2-3.8-9.7-19.7-15.5-20.5
				c-6-0.9-12.5-0.6-18.1,0c-7-2.9-14.4-4.6-21.9-4.4c-9.3,0.3-17.6,0.6-25.7,0c-1.2-0.1-2.3-0.2-3.5-0.3l-0.1,0
				c-7-0.7-14-2.3-21.5-5.2c-9.5-5.5-20.4-8.6-31.9-9.6c-12.9-1.1-31.4-0.3-44.9,6c-7.9-3.7-15.8-5.2-25.9-3.2
				c-3.7,0.7-8.4,1.5-13.1,2.8c-2.7-1.2-5.3-2.6-7.8-4.2c-1-0.6-1.9-1.2-2.9-1.8c-4.8-3.1-9.6-6.5-14.8-9.6
				c-10.6-6.2-22.5-7.4-34.6-7.6c-12.6-0.2-20.1-8.9-38.8-17.6c-0.3-0.1-4.4-4.9-5.4-5.2c-17.7-9-38.7-50.6-57.2-50.1
				c-1.8-0.8-3.7-1.6-5.6-2.1c-11.7-3.4-23.2-6.5-34.6-10.5c-0.8-3-2.5-5.1-4.8-7.8c-0.9-1.1-1.9-2.2-2.9-3.6
				c-0.2-0.3-0.4-0.6-0.6-0.9c-4.8-6.5-7.8-14.2-12.6-20.7c-4.3-5.8-9.7-10.3-14.9-15.2c-10.4-9.8-12.9-18.9-16.8-32.4
				c-0.1-0.4-0.3-0.8-0.5-1.1c0.3-1.7-0.5-3.4-2.1-4.3c-0.3-1.7-0.6-3.5-0.6-5.2c-0.1-2.4-0.1-4.7,0.1-7.1c0.2-0.3,0.3-0.6,0.4-1.1
				c0.1-0.9,0.2-1.7,0.2-2.6c0-0.8,0-1.7,0.1-2.5c-5.1-3.6-5.9-11.7-6.3-12.3c-6.6-10.1,2.1,5.6,1.2,8.7c-0.1,0.2-0.1,0.5-0.2,0.7
				c-0.1,0.2-0.2,0.4-0.3,0.7c0,0.3-0.1,0.6-0.2,0.9c-0.3,1.2-0.6,2.3-0.9,3.6c-1.1,5.1-1.7,10.7-1.3,16.1c-0.8,0.7-1.3,1.8-1.2,3.2
				c0.2,2.7,0.2,5.6,0.6,8.7c0,0.9,0,1.8,0.1,2.8c0.8,10.9,6.6,22.5,8.1,32.1c0.9,5.7,2.3,11.8,4.8,17.4c0.7,3.4,1.4,6.8,2.1,10.2
				c2.1,11,3.7,22.1,3.5,33.3c-0.1,5.1-0.6,10.2-0.3,15.3c0.7,15.2,7.5,29.6,8.3,44.7c0.2,4.9,0.1,10.5,3.8,13.8
				c1.3-14.5,4.1-28.9,8.3-42.8c0.7-1.5,1.4-2.9,2.1-4.4c2.7-4.9,5.9-9.9,8.1-15c1.3-0.3,2.8-0.3,4.4,0.2c0.8,0.2,1.5,0.3,2.1,0.3
				c2.1,0.8,4.1,1.8,6.1,2.9c0.9,0.5,1.9,1.1,2.8,1.7c0.6,1.5,1.2,3,1.9,4.4c1,2.2,1.8,4.4,2.6,6.7c-0.7,4.4-1.1,8.9-0.9,13.2
				c0.1,4.7,1.5,8.7,2.5,13.2c1.1,5.2,0.8,10.6,1.5,15.9c0.1,0.4,0.1,0.8,0.1,1.2c-1.2,10.1-1.5,20.4-1.2,30.5
				c0.5,22.8,3,45.6,0.4,68.2c-0.5,4.3,0.1,10.4,4.5,10.7c4.1-7.4,5-16.1,6-24.5C-3.5,79,3.1,44.9,12.1,11.5C12.9,8.8,13.8,6,16,4.4
				c1,0.4,2,0.9,2.9,1.6c1.6,1.1-2.6,70.3-1.3,71.8c0.3,0.3,0.6,0.7,0.8,1.1c1.1,1.5,2.2,3.1,2.8,4.9c0.8,2,1.2,4.1,1.5,6.2
				c1.4,8,2.8,16,4.3,24c1.5,8.5,3,17.3,1.9,25.9c-0.5,3.8-1.5,7.5-1.5,11.3c-0.1,4.7,1.2,9.3,2.2,13.9c2,9.8,2.4,19.8,3.1,29.7
				c1.4,20.4,4.1,40.8,6.8,61l2.7,20.6c0.3,2.3,1.5,5.3,3.8,4.9c3.7-9.5,5.3-19.5,6.3-29.7c6.8-26.1,16-51.3,20.4-78.2
				c1-6.2,0.9-13.9,2.9-19.8c1.6-4.7,5.4-7.9,7.1-12.6c1.5-4.4,1.8-9.8,1.5-15.3c0.7-5,1-10.3,1.4-15.2c0.4-5.3,1.9-10.2,3.8-15.1
				c0.1-0.2,0.1-0.4,0.2-0.5c0.7,0.3,1.4,0.7,1.9,1.3c1.6,1.8,2,4.5,2.3,7c0.6,5.1,1.1,10.1,1.7,15.1c0,0.4,0,0.8,0,1.2
				c0,0.7,0.1,1.3,0.4,1.8c0.5,3.9,0.9,7.7,1.3,11.6c0.2,1.5,0.6,3.3,2,3.8c2.4,0.8,3.8-2.5,3.9-5c0.3-5.7,0.7-11.6,1.6-17.2
				c1-6.3,2.8-12.5,6.1-17.6c1,0.1,2,0.5,2.8,1.1c2,1.8,2.6,4.6,3,7.3c6.2,36.2,9.2,72.9,9,109.6c0,3.7,1.2,8.7,4.9,8.5
				c1.3-8.8,2.6-17.6,3.9-26.4c0.4-1.3,0.5-2.7,0.6-4.3l0-0.1c0.8-0.4,1.5-1.1,1.8-1.9c3-7.2,2.5-14.1,3.2-21.8
				c1.1-10.7,6.2-20.2,9.1-30.5c5.2-18.4,4.7-37.4,13-54.9c2.2,0.1,4.3,1,5.7,2.8c1.4,1.8,1.9,4.2,2.3,6.5
				c2.4,13.7,4.7,27.4,6.9,41.1c0.2,1.1,0.7,2.4,1.8,2.4c0.9,0,1.4-1,1.6-1.9c1.6-5.4,0.6-11.4,2.5-16.7c1.5-4,4.6-7.3,6.2-11.3
				c1.9-4.6,1.8-10.2,5-14.1c0.3-0.3,0.6-0.6,0.9-0.9c0.8-0.7,1.6-1.4,2.5-2.1c0.1,0.1,0.3,0.3,0.4,0.4l0.1,0l0.1,0
				c0.1,0.1,0.2,0.1,0.3,0.1l0,0.2c0.1,1.9,0.3,3.8,0.3,5.7c0.7,11,1.1,22,1.2,33c-0.6,5.5-0.7,11-0.1,16.6
				c-0.8,12-3.2,26.2,0.4,37.3c0.6,10.2,2.1,20.5,4.5,30.5c1.2-8.6,2.5-17.1,3.8-25.7c0.6-0.6,1.1-1.5,1.2-2.6
				c0.8-7.6,2.1-15,3.9-22.4c1.1-1.3,2.4-2.5,3.6-3.7c4.4-4.8,5.6-11.6,6.7-18c1.5-9.2,3-18.3,4.5-27.4c1.2-4.1,2.3-8.3,3.4-12.5
				c0.1-0.4,0.2-0.9,0.3-1.3c0.7-2.8,1.4-6.1,1.6-9.6c0.1-0.8,0.2-1.6,0.2-2.4C236.1,86.6,240.1,89.7,243,92.6z"/>
			<path class="st5" d="M197.2,89.2c0.1,0.1,0.3,0.3,0.4,0.4l0.1,0.1c-0.5-0.6-1.1-1.2-1.5-1.8l-1.5,3.4
				C195.5,90.6,196.4,89.9,197.2,89.2z"/>
		</g>
	</g>
</g>
</svg>
