<?xml version="1.0" encoding="utf-8"?>
<!-- Generator: Adobe Illustrator 25.2.1, SVG Export Plug-In . SVG Version: 6.00 Build 0)  -->
<svg version="1.1" id="Layer_1" xmlns="http://www.w3.org/2000/svg" xmlns:xlink="http://www.w3.org/1999/xlink" x="0px" y="0px"
	 viewBox="0 0 184.5 31.1" style="enable-background:new 0 0 184.5 31.1;" xml:space="preserve">
<style type="text/css">
	.st0{display:none;}
	.st1{display:inline;}
	.st2{fill:#D51F26;}
	.st3{fill:#FFFFFF;}
</style>
<g id="Layer_2_1_" class="st0">
	<rect x="-72.3" y="-5.7" class="st1" width="306.4" height="46.2"/>
</g>
<g id="Layer_1_1_">
	<path class="st2" d="M0,29.7c0,0,24.3,0.2,28.4,0.2c4.1,0,4.2,1.1,6.7,1.1s4.6,0,4.6,0s1,0.5,2-0.2s1-0.8,1-0.8s6.8,0,9.2-0.1
		c2.4-0.1,8.2-0.3,9.7-0.1c1.5,0.2,16.4,0.3,18.5,0.1c2.1-0.3,15.9-0.3,17.1-0.6c1.2-0.3,1.7-0.6,1.7-0.6s86.8,0.4,85.6,0
		c-1.2-0.4-22.5-1.3-36.6-1.5c-14.1-0.2-48.5,0.2-50.6,0c-2.1-0.2-8.5-0.3-13.8,0.5S64,26.5,56.2,27.3c-6,0.6-7.6-0.2-16.7,0.2
		C30.3,27.8,23.9,28,23.9,28s-3.7,0.1-5.6,0c-1.9-0.1-3.2,0-3.2,0s1.5,0.7-1.4,0.8c-2.8,0.1-4-0.5-6.7-0.3C4.3,28.8,0,29.7,0,29.7z"
		/>
</g>
<g>
	<path class="st3" d="M181.4,17.4c-0.1-0.6-0.2-1.1-0.3-1.7c-0.2-0.8-0.3-1.6-0.3-2.4c0.1-1.2-0.5-2.1-1.6-2.7
		c-0.4-0.2-0.8-0.4-1-0.7L178,9.8c-0.4-0.4-0.8-0.8-0.9-1.3c-0.2-0.7-0.3-1.4-0.4-2.1c0-0.2,0-0.4-0.1-0.6c0-0.1,0-0.2,0.1-0.4
		l0-0.1c0.9-0.2,1.5-0.1,2.2,0.1c0.1,0,0.2,0,0.3,0.1c0,0.2,0,0.5,0,0.8c0,0.7,0,1.6,0.7,2c0.1,0.1,0.4,0.1,0.5,0
		c0.7-0.5,0.6-1.3,0.5-1.9c0-0.2-0.1-0.4-0.1-0.5c-0.1-1.9-0.6-2.1-3.2-2.1c-1,0-1.9,0.4-2.4,1c-0.3,0.4-0.4,0.8-0.4,1.2l0,0.6
		c0.1,0.6,0.1,1.3,0.1,1.9c0,1.8,0.9,2.9,2.6,3.6c1.7,0.7,1.8,1.7,1.8,2.5c0,0.5,0,1,0.1,1.5c0,0.3,0.1,0.6,0.1,0.9
		c0,0.6,0,1.1,0,1.7c0,0.2,0,0.4,0,0.5c-1,0.2-1.5,0.3-1.7,0c-0.2-0.1-0.2-0.4-0.2-0.9c0-1.3,0-2.6,0-3.9l0-0.9c0-0.1,0.1-0.3,0-0.5
		c-0.1-0.2-0.3-0.2-0.6-0.2h0c-0.6,0-0.7,0.5-0.8,0.8l0,0.1c-0.1,0.2-0.2,0.4-0.2,0.7c-0.3,0.7-0.5,1.3-0.4,2
		c0.2,0.8,0.3,1.6,0.3,2.4c0,0.3,0,0.6,0.1,1c0,0.5,0.4,0.9,0.8,1.2c0.3,0.2,0.8,0.3,1.4,0.3c0.8,0,1.7-0.2,2.3-0.5
		c0.5-0.2,0.7-0.5,0.7-0.8c0-0.2,0.1-0.4,0.1-0.6C181.3,18.6,181.4,18,181.4,17.4z M174.2,4.4l0-0.2l-0.2,0c-0.1,0-0.2,0-0.4-0.1
		C173.4,4,173,4,172.7,4c-1.3,0.2-2.6,0-3.9-0.2c-0.3,0-0.6-0.1-0.9-0.1c0,0-0.8-0.1-1.1,0.2c-0.2,0.3-0.3,0.8,0,1.1
		c0.3,0.3,0.8,0.6,1.3,0.9c0.3,0.1,0.6,0.2,1,0.3c0.1,0,0.2,0,0.4,0.1c0,0.1,0,0.3,0,0.4c0,0.4-0.1,0.8-0.1,1.2
		c0,0.4,0.1,0.8,0.2,1.1c0,0.2,0.1,0.4,0.1,0.7c0,0.1,0,0.2,0,0.3c0,0.1,0,0.2,0,0.3c0,0.7,0,1.1,0,1.4c0,0.2,0,0.4,0,0.7
		c0,0.3,0,0.5,0.1,0.8c0,0.3,0.1,0.5,0.1,0.8c0,0.4,0,0.8,0,1.2c0,0.6,0,1.2,0,1.9c0.1,0.8,0.2,1.8,0.4,2.9l0,0.2c0,0.4,0.1,1,0.6,1
		l0.1,0c0.2,0,0.3-0.1,0.4-0.2c0.5-0.4,0.5-1.6,0.5-3.3c0-0.3,0-0.6,0-0.9c0.2-4.2,0-5.4-0.3-8.6c-0.1-0.5-0.1-1.1-0.2-1.7
		c0.1,0,0.3,0,0.4,0c0.4,0,0.8-0.1,1.2-0.1c0.6-0.1,1-0.2,1.2-0.5C174.4,5.4,174.4,5,174.2,4.4z M164.3,4c-0.9-0.3-1.7,0-2.6,0.1
		c-0.3,0-0.7,0.1-0.9,0c-0.4-0.2-0.7-0.1-1,0.1c-1.3,0.7-1.3,0.8-0.3,1.7c0,1,0,2,0,3c-0.1,0.9-0.1,1.9-0.8,2.6l0,0.2
		c0.2,0.4,0.7,0.5,0.7,1.1c0,1.5,0.1,3,0.1,4.4c0,1.2,0.1,2.3,0.8,3.3c0.6-0.3,0.8-0.7,0.9-1.2c0.2-1.4,0.4-2.8,0.2-4.2
		c-0.1-0.9-0.1-1.7-0.2-2.7c1.1-0.2,1.8-0.3,2-1.3c-0.5-0.6-1.4-0.5-1.9-0.7c0-1.4,0-3,0-4.2c1.1-0.2,2-0.4,2.9-0.6
		c0.6-0.1,0.9-0.5,1-1.1C164.9,4.2,164.6,4.1,164.3,4z M155.2,4.1c-1,0-1,2.3-1.2,3.5c-0.2,1.2-0.2,2.5-0.3,3.7
		c-0.1,1.1-0.1,2.2-0.2,3.3c-0.8-1.7-1.3-3.5-1.8-5.2c-0.1-0.3-0.2-0.5-0.3-0.7c-0.4-1-0.7-1.9-1.1-2.8c-0.2-0.4-0.2-1.2-0.8-1.4
		c-1.2-0.3-1.2,1.4-1.3,2.3c0,1.1-0.1,2-0.1,3.4c-0.2,3.3-0.4,6.6-0.4,9.8c0,0.4,0,0.5,0.3,0.7c0.1,0.1,0.6,0.1,0.7-0.1
		c0.8-3.6,0.9-5,1.4-7.8c0.3,0.3,0.4,0.6,0.5,0.9c0.8,1.9,1.5,3.8,2.3,5.6c0.3,0.7,0.6,1.6,1.6,1.5c1.3-0.2,1-2.3,1.1-3.6
		c0.1-2.1,0.2-4.2,0.3-6.3c0.1-1.8,0.1-3.6,0.2-5.4C156.2,4.6,156.1,4.1,155.2,4.1z M140.5,13.6c0.1-0.2,0-0.5-0.1-0.8
		c0-0.4-0.2-0.6-0.6-0.6c-0.8-0.1-2,0.5-2.5,1.4c0.5,0.1,1,0.2,1.4,0.4c-0.2,1.6-0.3,3.2-0.5,4.9c-0.3,0.1-0.6,0.2-1,0.3
		c-0.4,0.1-0.8-0.1-0.8-0.5c-0.1-0.5-0.1-1.1-0.1-1.6c0-0.2,0-0.5-0.1-0.7c-0.1-0.5-0.1-1,0-1.5c0.1-0.4,0.1-0.8,0.1-1.2
		c0-0.4-0.1-0.9,0-1.3c0.2-1.6,0-3.2,0.1-4.8c0-0.3-0.1-0.6,0-0.9c0.1-0.7,0.5-1,1.2-1.1c0.4,0,1.6,0.1,2,0c0.4-0.1,0.6-0.3,0.4-0.7
		c-0.1-0.2-0.3-0.4-0.5-0.4c-0.8-0.1-2.3-0.3-3.1-0.2c-0.3,0-0.7,0.3-0.9,0.6c-0.3,0.7-0.6,1.5-0.7,2.3c-0.2,1.4-0.2,2.8-0.3,4.2
		c0,0.6-0.1,1.1-0.1,1.7c-0.1,1.4-0.2,2.4-0.1,4.2c0.1,0.8,0,1.7,0.3,2.4c0.3,0.6,0.7,1,1.4,1c1.3,0.1,2.5-0.3,3.6-1.1
		c0.5-0.4,0.7-0.8,0.7-1.5C140.5,16.5,140.2,15.1,140.5,13.6z M131.1,4.1c-1,0-1,2.3-1.2,3.5c-0.2,1.2-0.2,2.5-0.3,3.7
		c-0.1,1.1-0.1,2.2-0.2,3.3c-0.8-1.7-1.3-3.5-1.8-5.2c-0.1-0.3-0.2-0.5-0.3-0.7c-0.4-1-0.7-1.9-1.1-2.8c-0.2-0.4-0.2-1.2-0.8-1.4
		c-1.2-0.3-1.2,1.4-1.3,2.3c0,1.1-0.1,2-0.1,3.4c-0.2,3.3-0.4,6.6-0.4,9.8c0,0.4,0,0.5,0.3,0.7c0.1,0.1,0.6,0.1,0.7-0.1
		c0.8-3.6,0.9-5,1.4-7.8c0.3,0.3,0.4,0.6,0.5,0.9c0.8,1.9,1.5,3.8,2.3,5.6c0.3,0.7,0.6,1.6,1.6,1.5c1.3-0.2,1-2.3,1.1-3.6
		c0.1-2.1,0.2-4.2,0.3-6.3c0.1-1.8,0.1-3.6,0.2-5.4C132.1,4.6,132,4.1,131.1,4.1z M121,3.5c-1.2-0.2-1.6,0.1-1.7,1.2
		c-0.1,2.3-0.2,4.5-0.3,6.8c0,0.6,0,1.3,0,1.9c0,1.2,0,2.3,0,3.5c0,0.8-0.1,1.5-0.1,2.3c0,1,0.1,1.5,1.1,1.5c0.9,0,0.8-3.1,0.9-4.7
		c0.1-1.9,0-3.9,0-5.8c0-0.5,0.1-1.1,0.1-1.6C121.4,6.9,121.3,5.2,121,3.5z M117,5.4c0.1-0.9-0.1-1.5-1.1-1.7
		c-0.9-0.2-1.4,0.3-1.7,1.1c-0.2,0.4-0.3,0.8-0.4,1.2c-0.3,1.2-1.3,5.4-1.7,5.4c-0.6,0-0.7-1.1-0.8-1.6c-0.5-1.6-0.9-3.2-1.5-4.8
		c-0.5-1.4-0.9-1.5-2.5-1.1c-0.1,0.9-0.3,1.8-0.2,2.7c0.2,3.9,0.3,7.8-0.4,11.7c-0.2,1.1-0.1,2.3,1.2,2.2c0.4-0.1,0.7-0.6,0.7-0.9
		c0.4-3.6,0.6-6.4,1-10.4c0.7,2.4,1.8,4.3,2.4,6.5c1.3-1.8,1.4-3.1,2.6-4.5c0.1,2,0.3,3.9,0.3,5.8c0,1.8-0.6,3.7,1.2,3.4
		c0.6-0.1,0.8-1.3,0.8-1.5c0.1-2,0-1,0-3.1c0-0.5-0.1-1-0.1-1.5c0-2,0-3.9,0.1-5.9C116.9,7.5,116.9,6.4,117,5.4z M103.5,18.2
		c-0.1,0.6-0.8,0.9-1.3,0.6c-0.5-0.3-0.6-0.7-0.7-1.5c-0.1-2.6-0.2-5.2-0.3-7.8c-0.1-1.1-0.5-2.6-0.1-3c0.4-0.4,0.8-0.4,1.2-0.4
		c0.4,0,0.7,0.3,0.7,0.7c0.2,3.5,0.4,7,0.6,10.5C103.6,17.6,103.6,17.9,103.5,18.2z M105.5,17.7c0-1.5-0.1-3-0.2-4.5
		c-0.2-2.8,0.4-6.3-0.7-8.4c-0.5-0.9-2-0.6-3.1-0.7c-1.4-0.1-1.9,0.4-2,1.7c-0.1,1,0,2.1,0,3.1c0,1.5,0,3,0,4.5
		c0,1.4-0.2,2.8-0.1,4.1c0.1,1.2,0.8,2.3,1.9,3c1.8,1.1,3.4,0.6,4.1-1.3C105.6,18.7,105.5,18.2,105.5,17.7z M97.6,19.1
		c-0.3-1-0.4-1.9-0.4-2.9l0-0.2c0-0.4-0.1-0.9-0.7-1.1l-0.1,0l-0.1,0.1c-1.2,1.4-0.9,3-0.7,4.3c-0.5,0.1-0.9,0.1-1.1-0.1
		c-0.1-0.1-0.2-0.2-0.2-0.4c-0.1-0.5-0.2-1-0.4-1.5c-0.2-0.7-0.4-1.5-0.4-2.3c0-0.6,0-1.1,0-1.7c0-0.3,0-0.6,0-0.9c0-0.5,0-1,0-1.5
		c0-0.6,0-1.2-0.1-1.9c0-0.2,0-0.5-0.1-0.7c0-0.4-0.1-0.8,0-1.1c0-0.4,0.2-0.8,0.4-1.1L94,5.9c0.1-0.3,0.4-0.3,0.7-0.2
		c0.5,2.8,0.5,2.9,1.3,3.3L96.1,9l0-0.1l0.1-0.3c0.1-0.2,0.1-0.4,0.2-0.6c0-0.3,0-0.6,0-0.9c0-0.3,0-0.6,0-0.9
		c0.1-0.9,0.1-1.5-0.2-1.9C95.9,4,95.2,3.9,94,4c-0.3,0-0.6,0.1-0.9,0.2l-0.3,0.1c-0.1,0-0.2,0.2-0.3,0.3c-0.6,0.8-1,1.6-1,2.5
		c0,0.6,0,1.3,0,1.9c0,0.2,0,0.4,0,0.5c0,1,0.1,1.9,0.1,2.9c0,0.7,0,1.3,0,2c0,0.8,0.1,1.6,0.2,2.4c0.1,0.7,0.3,1.3,0.4,2l0,0.1
		c0.3,1.1,0.9,1.8,1.8,2.1c0.3,0.1,0.7,0.2,1,0.2c0.6,0,1.1-0.2,1.6-0.3C97.5,20.3,97.9,19.8,97.6,19.1z M85.5,10.1
		c-0.1-1.5-0.2-2.9-0.4-4.7c0.4-0.1,0.9-0.3,1.4-0.5C87.5,6.3,87.1,8.7,85.5,10.1z M89.1,5.1c-0.5-1.3-1.6-1.7-3.1-1.5
		c-0.8,0.1-1.6,0.3-2.6,0.5c0,1.8,0,3.7,0,5.5c0,1.7,0.1,3.4,0.1,5.1c0,1.6-0.1,3.1-0.1,4.7c0,0.5-0.1,1.2,0.3,1.6
		c0.1,0.1,0.6,0.1,1,0.1c0.8,0,1.2-0.2,1.2-1c0-0.6-0.1-1.3-0.1-1.9c0-1.8,0-3.6,0-5.4c0.3-0.2,0.8-0.2,1-0.5
		c1.3-1.3,2.3-2.8,2.5-4.7C89.3,6.7,89.3,5.8,89.1,5.1z M80.8,6.8c0-0.5-0.1-0.9,0-1.4c0-0.6,0-1.1-0.3-1.4
		c-0.2-0.2-0.4-0.2-0.8-0.2c-0.2,0-0.3,0.1-0.4,0.2c-0.6,0.8-0.4,3.1-0.3,3.8c0,0.3,0,0.8,0,1.3c0,0.2,0,0.4,0,0.5
		c0.1,3.1,0.2,5.9,0.2,8.5c0,0.2-0.1,0.4-0.2,0.7l-0.1,0.2c-0.1,0-0.2-0.1-0.3-0.1c-0.3-0.1-0.6-0.2-0.9-0.3
		c-0.2-0.1-0.4-0.4-0.4-0.6c0-0.2-0.1-0.4-0.2-0.7c-0.2-0.7-0.4-1.5-0.4-2.2c0-3.8-0.4-7.1-1.1-10.3c-0.2-0.6-0.5-1.1-0.9-1.2
		c-0.2,0-0.6,0-1,0.5c-0.3,0.4-0.1,0.9,0,1.3c0,0.1,0.1,0.2,0.1,0.3c0.3,1.4,0.5,2.8,0.5,4.5c0,0.4,0,0.9,0.1,1.3
		c0.1,0.7,0.1,1.4,0.1,2.1c-0.1,1.3,0,2.5,0.4,3.6c0.4,1.5,1.4,2.5,2.8,3.2c0.4,0.2,0.8,0.3,1.2,0.3c0.2,0,0.5,0,0.7-0.1
		c0.4-0.2,0.8-0.6,0.9-1.1c0.1-0.3,0.1-0.7,0.1-1l0-0.3c0-0.7,0-1.3,0-2c0-0.6,0-1.1,0-1.7c0-0.8,0-1.6,0-2.4c0-1.4,0.1-2.9,0.1-4.4
		C80.8,7.6,80.8,7.2,80.8,6.8z M62.7,13.1c0.1,0.1,0,0.5-0.1,0.5c-0.2,0.1-0.6,0.1-0.7,0c-0.9-0.9-1.7-1.8-1.4-3.3
		C61.7,10.9,62.1,12.1,62.7,13.1z M61,1.3c0.6,0.7,0.9,1.5,0.7,2.4c-0.2,1-0.3,2-0.4,3.1C60.2,5.5,60.1,2.9,61,1.3z M64,11.8
		c-0.8-1-1.6-1.9-2.2-2.9c-0.1-0.2-0.1-0.7,0.1-1c0.8-1.2,1.1-2.5,1.3-3.9c0.2-1,0-2-0.4-2.9c-0.6-1.3-1.9-1.6-2.9-0.6
		c-0.8,0.8-1.3,1.8-1.3,2.9c0.1,1.6,0.1,3.2,1.1,4.6c0.4,0.6,0.4,1.2,0,1.8C59,11,59,12.3,59.3,13.6c0.4,1.8,1.9,2.2,3.3,1
		c0.1-0.1,0.3-0.2,0.4-0.3c0.2,1.4-0.3,2.3-1.8,3.2c-0.4-0.3-0.8-0.7-1.1-1c-0.4-0.4-0.8-0.7-1.4-0.5c-0.2,0.5-0.5,1-0.7,1.5
		c-0.1,0.3-0.1,0.6-0.1,0.8c0.4,1.3,2.1,2.1,3.4,1.5c2.1-1,3.9-3.3,3.4-6.1c-0.2-0.9,0.2-1.6,0.6-2.3c0.4-0.8,0.7-1.7,1-2.5
		c0.1-0.2-0.2-0.4-0.3-0.8C65.1,9.3,64.5,10.5,64,11.8z M51.8,4.4l0-0.2l-0.2,0c-0.1,0-0.2,0-0.4-0.1C51,4,50.6,4,50.3,4
		c-1.3,0.2-2.6,0-3.9-0.2c-0.3,0-0.6-0.1-0.9-0.1c0,0-0.8-0.1-1.1,0.2c-0.2,0.3-0.3,0.8,0,1.1c0.3,0.3,0.8,0.6,1.3,0.9
		C46,6,46.3,6,46.7,6.1c0.1,0,0.2,0,0.4,0.1c0,0.1,0,0.3,0,0.4C47,7,47,7.4,47,7.8c0,0.4,0.1,0.8,0.2,1.1c0,0.2,0.1,0.4,0.1,0.7
		c0,0.1,0,0.2,0,0.3c0,0.1,0,0.2,0,0.3c0,0.7,0,1.1,0,1.4c0,0.2,0,0.4,0,0.7c0,0.3,0,0.5,0.1,0.8c0,0.3,0.1,0.5,0.1,0.8
		c0,0.4,0,0.8,0,1.2c0,0.6,0,1.2,0,1.9c0.1,0.8,0.2,1.8,0.4,2.9l0,0.2c0,0.4,0.1,1,0.6,1l0.1,0c0.2,0,0.3-0.1,0.4-0.2
		c0.5-0.4,0.5-1.6,0.5-3.3c0-0.3,0-0.6,0-0.9c0.1-4.2,0-5.4-0.3-8.6C49,7.6,49,7,48.9,6.4c0.1,0,0.3,0,0.4,0c0.4,0,0.8-0.1,1.2-0.1
		c0.6-0.1,1-0.2,1.2-0.5C52,5.4,51.9,5,51.8,4.4z M42.7,17.4c-0.1-0.6-0.2-1.1-0.3-1.7c-0.2-0.8-0.3-1.6-0.3-2.4
		c0.1-1.2-0.5-2.1-1.6-2.7c-0.4-0.2-0.8-0.4-1-0.7l-0.1-0.1C39,9.4,38.6,9,38.4,8.6c-0.2-0.7-0.3-1.4-0.4-2.1c0-0.2,0-0.4-0.1-0.6
		c0-0.1,0-0.2,0.1-0.4l0-0.1c0.9-0.2,1.5-0.1,2.2,0.1c0.1,0,0.2,0,0.3,0.1c0,0.2,0,0.5,0,0.8c0,0.7,0,1.6,0.7,2
		c0.1,0.1,0.4,0.1,0.5,0c0.7-0.5,0.6-1.3,0.5-1.9c0-0.2-0.1-0.4-0.1-0.5c-0.1-1.9-0.6-2.1-3.2-2.1c-1,0-1.9,0.4-2.4,1
		c-0.3,0.4-0.4,0.8-0.4,1.2l0,0.6c0.1,0.6,0.1,1.3,0.1,1.9c0,1.8,0.9,2.9,2.6,3.6c1.7,0.7,1.8,1.7,1.8,2.5c0,0.5,0,1,0.1,1.5
		c0,0.3,0.1,0.6,0.1,0.9c0,0.6,0,1.1,0,1.7c0,0.2,0,0.4,0,0.5c-1,0.2-1.5,0.3-1.7,0C39,19,39,18.7,39,18.2c0-1.3,0-2.6,0-3.9l0-0.9
		c0-0.1,0.1-0.3,0-0.5c-0.1-0.2-0.3-0.2-0.6-0.2h0c-0.6,0-0.7,0.5-0.8,0.8l0,0.1c-0.1,0.2-0.2,0.4-0.2,0.7c-0.3,0.7-0.5,1.3-0.4,2
		c0.2,0.8,0.3,1.6,0.3,2.4c0,0.3,0,0.6,0.1,1c0,0.5,0.4,0.9,0.8,1.2c0.3,0.2,0.8,0.3,1.4,0.3c0.8,0,1.7-0.2,2.3-0.5
		c0.5-0.2,0.7-0.5,0.7-0.8c0-0.2,0.1-0.4,0.1-0.6C42.7,18.6,42.8,18,42.7,17.4z M35.4,19h-3.6l0-0.1c0-0.1-0.1-0.2-0.1-0.3
		c-0.1-1.4-0.2-2.7-0.2-4.1l-0.1-1.1c0.1-0.1,0.3-0.1,0.4-0.1c0.3-0.1,0.5-0.2,0.8-0.3c0.6-0.2,0.9-0.6,0.9-1.4l0-0.1h-2.1V6.3
		c1.7-0.2,2.4-0.7,2.7-1.9l0-0.1l-0.1,0l0,0l-0.2-0.1c-1.1,0.1-2,0-2.7-0.3C30.6,3.7,30.3,3.7,30,4c-0.4,0.3-0.7,0.8-0.7,1.3
		c0,0.1,0,0.3,0.1,0.4c0.1,0.6,0.2,1.2,0.2,1.8c0,0.5,0,0.9-0.1,1.4c0,0.2,0,0.4-0.1,0.7c0,0.1,0,0.3,0,0.4c0,0.3,0,0.5-0.1,0.8
		c-0.3,1.3-0.3,2.2,0,3.2c0.1,0.2,0.1,0.3,0.1,0.5l0,0.1c0,1.6,0,3.1,0.1,4.7c0,0.7,0.3,1.2,0.7,1.5c0.3,0.2,0.6,0.3,0.9,0.3
		c0.3,0,0.5-0.1,0.8-0.2c0.4-0.1,0.8-0.2,1.2-0.3l0.2,0c0.1,0,0.3,0,0.4,0c0.2,0,0.3,0,0.5,0c0.8-0.1,1.1-0.5,1-1.3L35.4,19z
		 M27.9,4.4l0-0.2l-0.2,0c-0.1,0-0.2,0-0.4-0.1C27.1,4,26.8,4,26.4,4c-1.3,0.2-2.6,0-3.9-0.2c-0.3,0-0.6-0.1-0.9-0.1
		c0,0-0.8-0.1-1.1,0.2c-0.2,0.3-0.3,0.8,0,1.1c0.3,0.3,0.8,0.6,1.3,0.9c0.3,0.1,0.6,0.2,1,0.3c0.1,0,0.2,0,0.4,0.1
		c0,0.1,0,0.3,0,0.4c0,0.4-0.1,0.8-0.1,1.2c0,0.4,0.1,0.8,0.2,1.1c0,0.2,0.1,0.4,0.1,0.7c0,0.1,0,0.2,0,0.3c0,0.1,0,0.2,0,0.3
		c0,0.7,0,1.1,0,1.4c0,0.2,0,0.4,0,0.7c0,0.3,0,0.5,0.1,0.8c0,0.3,0.1,0.5,0.1,0.8c0,0.4,0,0.8,0,1.2c0,0.6,0,1.2,0,1.9
		c0.1,0.8,0.2,1.8,0.4,2.9l0,0.2c0,0.4,0.1,1,0.6,1l0.1,0c0.2,0,0.3-0.1,0.4-0.2c0.5-0.4,0.5-1.6,0.5-3.3c0-0.3,0-0.6,0-0.9
		c0.1-4.2,0-5.4-0.3-8.6c-0.1-0.5-0.1-1.1-0.2-1.7c0.1,0,0.3,0,0.4,0c0.4,0,0.8-0.1,1.2-0.1c0.6-0.1,1-0.2,1.2-0.5
		C28.1,5.4,28.1,5,27.9,4.4z M13.5,14.8c0-0.1,0-0.3,0-0.4c0-0.5,0-0.9,0-1.3c0.1-1.3,0.2-2.6,0.3-4l0.1-1.8c0-0.4,0.4-0.7,0.6-0.8
		c0.4-0.1,0.8-0.2,1.3-0.2L16,6.5c0.1,0.3,0.2,0.7,0.2,1.1c0,1.4,0.1,2.9,0.1,4.3l0,2c0,0.2,0,0.3,0,0.5l0,0.1
		C15.5,14.8,14.6,14.9,13.5,14.8z M18.4,18c0-0.4,0-0.9,0-1.3c0-0.8,0-1.7,0-2.5l0-1.3c0-2,0-4.1-0.1-6.1c-0.1-0.8-0.4-1.2-0.9-1.6
		c-0.2-0.1-0.3-0.2-0.5-0.3l-0.1-0.1c-0.9-0.6-1.8-0.6-2.6-0.1c-0.8,0.5-1.7,1.2-1.8,2.6c0,0.1,0,0.2-0.1,0.3l-0.1,0.2
		C12,8,12,8.3,11.9,8.6c-0.2,0.8-0.4,1.6-0.4,2.4c0,1-0.1,2-0.1,3.1c0,0.5,0,1.1-0.1,1.6c0,0.1,0,0.2,0,0.3l0,0.1l0.1,1
		c0,0.7,0.1,1.4,0.2,2.2c0,0.4,0.1,0.5,0.1,0.7c0,0.1,0.1,0.2,0.1,0.4c0.1,0.3,0.4,0.6,0.6,0.6l0,0c0.2,0,0.4-0.2,0.6-0.4
		c0.1-0.2,0.2-0.4,0.2-0.5c0-0.2,0-0.3,0-0.4c0-0.1,0-0.2,0-0.5l0-2.2c0.1,0,0.3,0,0.4,0c0.5,0,0.9,0,1.3-0.1
		c0.4-0.1,0.8-0.2,1.2-0.4c0.1,0,0.2-0.1,0.3-0.1l0,0.1c0,0.2,0.1,0.4,0.1,0.7c0,0.4,0,0.7,0.1,1.1c0,0.4,0,0.9,0.1,1.3l0,0.1
		c0,0.4,0.1,0.9,0.4,1.2c0.1,0.1,0.3,0.2,0.5,0.1c0.6-0.1,0.7-0.9,0.7-1.3C18.4,19,18.4,18.5,18.4,18z M6.5,18.2
		C6,17.7,6.2,16.8,6.1,16c-0.1-0.6-0.1-0.9,0-1.4C6.1,13.5,6,12.5,6,11.4c0-2-0.1-4.1-0.1-6.1c0-0.2-0.1-0.4-0.1-0.5
		c-0.2-0.4-0.5-0.7-1-0.6c-0.6,0.1-0.6,0.5-0.6,1c0,2.7,0.2,5.3,0.1,8c-0.1,2,0.1,3.9,0.1,5.9c0,0.6,0.2,1.2,0.8,1.5
		c1.2,0.5,2.2,0,3.3-0.4c0.8-0.3,0.6-1.1,1-1.8C8.3,18.3,7.2,19,6.5,18.2z"/>
</g>
</svg>
