<?xml version="1.0" encoding="utf-8"?>
<!-- Generator: Adobe Illustrator 25.2.1, SVG Export Plug-In . SVG Version: 6.00 Build 0)  -->
<svg version="1.1" id="Layer_1" xmlns="http://www.w3.org/2000/svg" xmlns:xlink="http://www.w3.org/1999/xlink" x="0px" y="0px"
	 viewBox="0 0 83.5 62" style="enable-background:new 0 0 83.5 62;" xml:space="preserve">
<style type="text/css">
	.st0{fill:#FF0000;}
	.st1{fill:#FFFFFF;}
	.st2{fill:none;}
</style>
<g id="plus_2_2_" transform="matrix( 1, 0, 0, 1, 237.65,200.5) ">
	<g id="boxx_FL_2_" transform="matrix( 0.397796630859375, -0.1065826416015625, 0.1065826416015625, 0.397796630859375, 0,0) ">
		<g transform="matrix( 1, 0, 0, 1, 0,0) ">
			<g>
				<g>
					<path class="st0" d="M-417.9-514.4c0-0.1,0.1-0.2,0.2-0.1c0,0,0,0,0.1,0c0.1-0.1,0.2-0.1,0.4-0.1c0.1,0.1,0.1,0,0.1-0.1
						s0-0.1-0.1-0.1c-0.1,0.1-0.2,0.1-0.4,0c0,0,0,0-0.1,0c0,0,0,0-0.1,0C-417.9-514.9-418-514.7-417.9-514.4 M-417.1-514.6
						c0.1-0.1,0.2-0.1,0.4-0.1v-0.1c0,0,0,0-0.1,0c0-0.1,0-0.1,0-0.2h-0.1C-417.1-515.1-417.2-515-417.1-514.6 M-416.1-515.4
						c0,0.1,0,0.1,0,0.2c0.2,0,0.3-0.3,0.3-0.9v0.1C-416-515.8-416.1-515.6-416.1-515.4 M-424.3-514.7
						C-424.2-514.7-424.2-514.7-424.3-514.7c0.1,0,0.2,0,0.3-0.1c-0.1-0.2-0.2-0.3-0.4-0.3c-0.3,0.1-0.6,0.1-1,0.1
						c0,0.1,0,0.1,0,0.2c0,0.1,0,0.1,0,0.2c0.2-0.1,0.4-0.1,0.6-0.1C-424.6-514.7-424.4-514.7-424.3-514.7 M-424.4-515.4
						C-424.3-515.5-424.3-515.5-424.4-515.4c0.2,0.1,0.3,0.1,0.4-0.1c0-0.1,0-0.1-0.1-0.1c-0.5-0.1-0.9-0.1-1.4-0.2c0,0,0,0-0.1,0
						s-0.2,0-0.3,0h-0.1c0,0,0,0-0.1,0c-0.2,0.2-0.1,0.2,0.1,0.2c0.2,0,0.3,0.1,0.4,0.3C-425.1-515.4-424.8-515.4-424.4-515.4
						 M-421.9-514.9c-0.2,0-0.3,0-0.4,0.3c0.1,0.1,0.3,0.2,0.4,0.1c0,0,0,0,0.1,0c0.2,0,0.4,0,0.6,0s0.3,0,0.4,0.3
						c0-0.1,0-0.1,0.1-0.1s0.2,0,0.4,0.1c0.2,0.1,0.4,0,0.5-0.2c0-0.5-0.1-0.6-0.3-0.3l0,0C-420.8-514.8-421.3-514.8-421.9-514.9
						 M-423.2-514.4c0.2-0.2,0.4-0.3,0.6-0.3l0,0c-0.2-0.1-0.5-0.1-0.7-0.1h-0.1C-423.3-514.7-423.2-514.5-423.2-514.4
						 M-421.9-515.7c-0.1,0-0.2,0-0.2-0.1c-0.2-0.1-0.4,0-0.5,0.2c0-0.1,0-0.1-0.1-0.1c-0.3-0.1-0.6-0.1-0.9-0.1
						c-0.1,0-0.1,0.1,0,0.4c0.2,0,0.3,0,0.5,0c0,0,0,0,0.1,0c0,0.1,0,0.1,0,0.2c0.2,0,0.4,0,0.5-0.1v-0.1c0,0,0,0,0.1,0v0.1
						c0.2,0,0.3,0,0.5-0.1v-0.1c0.1,0,0.2,0,0.2,0s0,0,0.1,0c0,0,0,0,0.1,0c0.2-0.2,0.3-0.2,0.4,0.2c0.2,0,0.4,0,0.5-0.1
						c0.1,0,0.2,0,0.4,0.1c0,0.1,0,0.1,0,0.2c0.2,0,0.5,0,0.7-0.1v-0.1c0,0,0,0,0.1,0c0.1-0.1,0.1,0,0.1,0.2
						c0.1-0.1,0.3-0.2,0.4-0.2s0.1,0,0.2,0.1v-0.1c0-0.1,0-0.1,0.1-0.2c0.3,0,0.7,0,1-0.1l0,0c0.1,0.2,0.1,0.2,0.2,0l0,0
						c0.1,0,0.3,0,0.4-0.1l0.1-0.1c0.2,0,0.3-0.1,0.4-0.3c0.4,0.1,0.6-0.1,0.7-0.7v0.1c-0.2,0.2-0.4,0.4-0.6,0.5
						c-0.3,0-0.6,0.1-0.9,0.2c-0.1,0-0.3,0-0.5,0c0,0,0,0-0.1,0c-0.1-0.1-0.2-0.1-0.4,0c0,0,0,0-0.1,0c-0.1-0.2-0.2-0.2-0.3,0.1
						c-0.3,0-0.5,0-0.8,0.1s-0.6,0-0.8-0.1l0,0c-0.3-0.1-0.6-0.1-0.9,0c0,0,0,0-0.1,0c-0.1-0.1-0.2-0.1-0.4,0h-0.1
						C-421.7-516.1-421.8-516-421.9-515.7 M-445.1-533.2C-445.1-533.2-445.1-533.3-445.1-533.2c0.1-0.1,0.1-0.1,0.2-0.1v-0.1
						c0.1-0.2,0-0.3-0.4-0.2C-445.1-533.5-445.1-533.4-445.1-533.2L-445.1-533.2 M-444.5-532.7c-0.1,0-0.1,0-0.2,0
						c0,0.2,0.3,0.3,0.9,0.3h-0.1C-444.1-532.5-444.3-532.6-444.5-532.7 M-445-534.2C-445-534.2-445-534.3-445-534.2
						c0-0.2-0.2-0.3-0.5-0.2c0.1,0,0.2,0.1,0.1,0.2c0,0,0,0,0,0.1c0.1,0.1,0.1,0.2,0.1,0.4c-0.1,0.1,0,0.1,0.1,0.1s0.1,0,0.1-0.1
						C-445.1-533.9-445.1-534-445-534.2L-445-534.2 M-445.3-538.9c-0.1,0.1-0.2,0.3-0.1,0.4c0,0,0,0,0,0.1c0,0.2,0,0.4,0,0.6
						c0,0.2,0,0.3-0.3,0.4c0.1,0,0.1,0,0.1,0.1s0,0.2-0.1,0.4s0,0.4,0.2,0.5c0.5,0,0.6-0.1,0.3-0.3l0,0c0.1-0.5,0.1-1.1,0.2-1.6
						C-445-538.6-445-538.8-445.3-538.9 M-444.5-539.7L-444.5-539.7c-0.1,0.1-0.1,0.1-0.2,0.1c0,0.2,0,0.4,0.1,0.5h0.1
						c0,0,0,0,0,0.1h-0.1c0,0.2,0,0.3,0.1,0.5h0.1c0,0.1,0,0.2,0,0.2s0,0,0,0.1s0,0,0,0.1c0.2,0.2,0.2,0.3-0.2,0.4
						c0,0.2,0,0.4,0.1,0.5c0,0.1,0,0.2-0.1,0.4c-0.1,0-0.1,0-0.2,0c0,0.2,0,0.5,0.1,0.7h0.1c0,0,0,0,0,0.1c0.1,0.1,0,0.1-0.2,0.1
						c0.1,0.1,0.2,0.3,0.2,0.4c0,0.1,0,0.1-0.1,0.2h0.1c0.1,0,0.1,0,0.2,0.1c0,0.3,0,0.7,0.1,1l0,0c-0.2,0.1-0.2,0.1,0,0.2l0,0
						c0,0.1,0,0.3,0.1,0.4l0.1,0.1c0,0.2,0.1,0.3,0.3,0.4c-0.1,0.4,0.1,0.6,0.7,0.7h-0.1c-0.2-0.2-0.4-0.4-0.5-0.6
						c0-0.3-0.1-0.6-0.2-0.9c0-0.1,0-0.3,0-0.5c0,0,0,0,0-0.1c0.1-0.1,0.1-0.2,0-0.4c0,0,0,0,0-0.1c0.2-0.1,0.2-0.2-0.1-0.3
						c0-0.3,0-0.5-0.1-0.8s0-0.6,0.1-0.8l0,0c0.1-0.3,0.1-0.6,0-0.9c0,0,0,0,0-0.1c0.1-0.1,0.1-0.2,0-0.4v-0.1
						c0.2-0.1,0.2-0.2-0.1-0.3c0-0.1,0-0.2,0.1-0.2c0.1-0.2,0-0.4-0.2-0.5c0.1,0,0.1,0,0.1-0.1c0.1-0.3,0.1-0.6,0.1-0.9
						c0-0.1-0.1-0.1-0.4,0C-444.5-540-444.5-539.9-444.5-539.7 M-445.1-539.8L-445.1-539.8c-0.1,0-0.2,0-0.4,0.1
						c0.2,0.2,0.3,0.4,0.3,0.6l0,0C-445.1-539.3-445.1-539.6-445.1-539.8 M-444.9-541.9c-0.1,0-0.1,0-0.2,0s-0.1,0-0.2,0
						c0.1,0.2,0.1,0.4,0.1,0.6c0,0.2,0,0.3,0,0.4c0,0,0,0,0,0.1s0,0.2,0.1,0.2c0.2-0.1,0.3-0.2,0.3-0.4
						C-444.8-541.2-444.9-541.6-444.9-541.9 M-444-541.9C-444-542-444-542-444-541.9c0-0.1,0-0.2,0-0.4v-0.1c0,0,0,0,0-0.1
						c-0.2-0.2-0.2-0.1-0.2,0.1c0,0.2-0.1,0.3-0.3,0.4c0,0.4,0,0.8,0.1,1.1v0.1c-0.1,0.1,0,0.2,0.1,0.3c0.1,0,0.1,0,0.1-0.1
						C-444.2-541-444.1-541.5-444-541.9 M-398.7-540.5C-398.7-540.5-398.7-540.6-398.7-540.5c0-0.1,0-0.2,0-0.2l-0.1-0.1v-0.1
						c0,0,0,0,0-0.1C-398.8-540.8-398.8-540.6-398.7-540.5C-398.8-540.5-398.8-540.5-398.7-540.5c-0.1,0.1-0.1,0.1-0.1,0.1
						c-0.1,0.3-0.1,0.5-0.1,0.8c0,0.2,0,0.3-0.1,0.5s-0.2,0.5-0.2,0.9c0.1,1.2,0.1,2.4,0.2,3.6c0,0.2-0.1,0.3-0.3,0.4
						c0.1,0,0.1,0.1,0.1,0.1s0,0,0,0.1c-0.1,0.1-0.1,0.2,0.1,0.2v0.1c-0.2,0.1-0.2,0.2,0,0.2c0.1,0,0.1,0,0,0.1
						c-0.2,0-0.2,0.1-0.1,0.1c0.2,0.1,0.3,0.2,0.5,0.3c0.3-0.3,0.5-0.6,0.5-1c0,0,0,0,0-0.1c-0.1-0.1-0.1-0.1,0.1-0.2
						c0.1-0.1,0.2-0.3,0.2-0.5c0,0,0,0,0-0.1c0.1-0.1,0-0.2,0-0.4c-0.1-0.1-0.1-0.2,0-0.4l0,0c0,0,0,0,0-0.1c0,0,0,0,0-0.1
						c0,0,0-0.1-0.1-0.1v-0.1v-0.1v-0.1v-0.1c0,0,0,0-0.1-0.1c0,0,0,0,0-0.1v-0.1v-0.1v-0.1c0,0,0-0.1-0.1-0.1v-0.1v-0.1v-0.1
						c0,0,0,0,0-0.1c0,0,0,0,0-0.1c0,0,0,0,0-0.1c0,0,0,0,0-0.1c0,0,0,0,0-0.1c0,0,0,0,0-0.1s0-0.1,0-0.1v-0.1v-0.1v-0.1v-0.1v-0.1
						v-0.1v-0.1c0,0,0,0,0-0.1c0,0,0,0,0-0.1c0,0,0,0,0-0.1s0-0.1,0-0.1v-0.1v-0.1v-0.1c0,0,0,0,0-0.1c0,0,0,0,0-0.1c0,0,0,0,0-0.1
						c0,0,0,0,0-0.1c0,0,0,0,0-0.1c0,0,0,0,0-0.1v-0.1v-0.1v-0.1v-0.1v-0.1v-0.1v-0.1c0,0,0,0,0-0.1c0,0,0,0,0-0.1c0,0,0,0,0-0.1
						C-398.6-540.4-398.6-540.4-398.7-540.5L-398.7-540.5 M-420.2-561.5C-420.2-561.5-420.3-561.5-420.2-561.5c-0.1,0-0.2,0-0.2,0
						s0,0-0.1,0c0,0,0,0-0.1,0c0,0,0,0-0.1,0c0,0,0,0-0.1,0c0,0,0,0-0.1,0c0,0,0,0-0.1,0h-0.1h-0.1h-0.1h-0.1h-0.1h-0.1h-0.1h-0.1
						c0,0,0,0-0.1,0c0,0,0,0-0.1,0c0,0,0,0-0.1,0h-0.1h-0.1h-0.1h-0.1c0,0,0,0-0.1,0c0,0,0,0-0.1,0c0,0,0,0-0.1,0c0,0,0,0-0.1,0
						c0,0,0,0-0.1,0c0,0,0,0-0.1,0h-0.1h-0.1h-0.1h-0.1h-0.1h-0.1h-0.1c0,0,0,0-0.1,0c0,0,0,0-0.1,0c0,0,0,0-0.1,0c0,0,0,0-0.1,0.1
						c0,0,0,0-0.1,0.1c0,0,0,0-0.1,0h-0.1l-0.1,0.1h-0.1c0,0,0,0-0.1,0c0.2,0,0.3,0,0.5,0c0,0,0,0,0.1,0s0,0,0.1,0
						c0.3,0.1,0.5,0.1,0.8,0.1c0.2,0,0.3,0,0.5,0.1s0.5,0.2,0.9,0.2c1.2-0.1,2.4-0.1,3.6-0.2c0.2,0,0.3,0.1,0.4,0.3
						c0-0.1,0.1-0.1,0.1-0.1s0,0,0.1,0c0.1,0.1,0.2,0.1,0.2-0.1h0.1c0.1,0.2,0.2,0.2,0.2,0c0-0.1,0-0.1,0.1,0c0,0.2,0.1,0.2,0.1,0.1
						c0.1-0.2,0.2-0.3,0.3-0.5c-0.3-0.3-0.6-0.5-1-0.5c0,0,0,0-0.1,0c-0.1,0.1-0.1,0.1-0.2-0.1c-0.1-0.1-0.3-0.2-0.5-0.2
						c0,0,0,0-0.1,0c-0.1-0.1-0.2,0-0.4,0c-0.1,0.1-0.2,0.1-0.4,0l0,0c0,0,0,0-0.1,0c0,0,0,0-0.1,0s-0.1,0-0.1,0.1h-0.1h-0.1h-0.1
						h-0.1c0,0,0,0-0.1,0.1c0,0,0,0-0.1,0h-0.1h-0.1h-0.1C-420.1-561.6-420.1-561.5-420.2-561.5L-420.2-561.5 M-415.4-562.1
						L-415.4-562.1C-415.4-562.2-415.4-562.2-415.4-562.1c-0.1,0-0.2,0.2-0.3,0.5c0,0.3,0,0.7,0,1.2l0,0c0,0.1,0,0.2-0.1,0.3
						c-0.1,0.4-0.2,0.4-0.3,0.1c0-0.1,0-0.1-0.1-0.1c-0.1-0.1-0.3-0.1-0.4-0.2c-0.1-0.1-0.2-0.1-0.4,0c-0.1,0.1-0.3,0.1-0.5,0h-0.1
						c-0.9,0.1-1.7,0.1-2.6,0.1c-0.3,0-0.6,0-0.9-0.1c-0.6-0.1-1.2-0.1-1.8,0c-0.2,0-0.4,0-0.6,0c-0.4-0.1-0.8-0.1-1.3,0
						c0,0,0,0-0.1,0c-0.2-0.2-0.5-0.2-0.9-0.2c-0.1,0-0.2,0-0.2,0c-0.4,0-0.6,0-0.8,0l0,0c-0.2-0.1-0.4-0.2-0.7-0.1c0,0,0,0,0,0.1
						c-0.2,0.6-0.1,0.9,0.3,0.7c0,0.1,0,0.1,0.1,0.1l0.1,0.1c0,0.2-0.1,0.3-0.3,0.2h-0.1c-0.2,0.3-0.3,0.6-0.5,0.9
						c0,0.4,0,0.8,0,1.2c0,0.1,0,0.1,0,0.2c0,0.1,0,0.1,0,0.1c-0.2,0-0.3-0.2-0.4-0.5c-0.1,0.3-0.1,0.7-0.1,1
						c-0.1,0.3-0.1,0.7-0.1,1.2c0,1,0,1.7,0,2.3c0,0.3,0,0.5,0,0.8c0,0.1,0,0.1,0,0.2c0,0.4,0,1,0,1.7c0,0.1,0,0.1,0,0.2v0.1
						c0.1,0.3,0.1,0.5,0,0.7v0.1c0.1,0.3,0.1,0.5-0.1,0.7c0,0-0.1,0-0.1-0.1s-0.1-0.3-0.1-0.5c0-0.4,0-0.7,0-0.9c0-0.1,0-0.1,0-0.2
						v-0.1c0.1-0.3,0.1-0.5-0.1-0.8c-0.1,0.2-0.1,0.5-0.1,1c0,0.1,0,0.1,0,0.2c0,0.2,0,0.6,0,1.2c0,1-0.1,2-0.1,3.1
						c0,0.1,0,0.1,0,0.1c0,0.1,0,0.1,0,0.2c-0.1,0-0.1,0-0.2,0c-0.2,0-0.5,0.1-0.7,0.1c-0.6,0-0.9,0-1.2,0c-0.1,0-0.1,0-0.2,0
						c-2.2,0-4.5,0-6.7,0c-1,0-1.9,0-2.5,0c-0.1,0-0.1,0-0.2,0c-0.4,0-0.7,0-0.9,0.1h-0.1c0.4,0,0.7,0,0.9,0.1c0.1,0,0.1,0,0.2,0
						s0.1,0,0.1,0c0,0.2-0.4,0.3-1,0.2c-0.1,0-0.2,0-0.3,0c-0.2,0.1-0.4,0.1-0.7,0.1c-0.1,0-0.1,0-0.1,0c-0.3,0.1-0.7,0.1-1.2,0.1
						c0.1,0.1,0.5,0.2,1.2,0.1c0.1,0,0.2,0,0.4,0c0.3,0.1,0.4,0.2,0.3,0.4c0,0,0,0-0.1,0.1c-0.1,0.3-0.2,0.6-0.2,0.9
						c0,0.2,0,0.3-0.1,0.4c0,0.1-0.3,0.2-0.7,0.2c-0.2,0.4-0.3,1-0.3,1.7c0,0.2,0.1,0.4,0.2,0.6c0.1,0.1,0.1,0.2,0,0.2
						c-0.1,0.1-0.1,0.2-0.1,0.2c0,0.8,0,1.6-0.1,2.3c0,0,0,0,0,0.1c0.1,0.1,0,0.2-0.1,0.4c-0.1,0.1-0.2,0.3-0.2,0.4
						c0,0.3,0,0.4,0.1,0.5s0.1,0.2,0,0.2c-0.1,0.1-0.1,0.1-0.1,0.2c0,0.2,0,0.5,0.1,0.7h0.1c0.1,0,0.2,0.1,0.1,0.3v0.1
						c0.1,0.2,0.1,0.3,0,0.4h0.1c0.2,0.1,0.2,0.1,0.1,0.3c-0.1,0.1-0.1,0.1-0.1,0.2c0,0-0.1,0-0.1,0.1c0.4,0.2,0.5,0.5,0.5,0.9
						c0,0.1,0.1,0.2,0.2,0.3s0.3,0.1,0.4,0.1c0.9,0,1.2-0.1,0.9-0.4c0,0,0,0-0.1-0.1c0-0.2,0-0.2,0.1-0.1c0,0.1,0.2,0.1,0.4,0h0.1
						c0.7,0,1.1,0,1.2,0.1s0.1,0.2-0.2,0.2c-0.1,0-0.1,0,0,0.1c0,0,0.1,0,0.1,0.1c0.3,0.1,0.5,0.2,0.6,0.3c0.1,0.2,0.2,0.1,0.4-0.1
						c0.1-0.1,0.2-0.1,0.3,0l0.1,0.1h0.1c0,0.3,0.1,0.4,0.6,0.2c0.1,0,0.3,0,0.8,0c0.1,0,0.1,0,0.2,0c0.2,0,0.2,0,0.1,0.1
						c0,0.1-0.2,0.2-0.6,0.2c-0.3,0-0.6,0-1,0c-0.5,0-0.8,0-1,0.1c0.1,0.1,0.4,0.1,0.7,0c0,0,0,0,0.1,0s0.3,0,0.6,0
						c0.2,0,0.4,0,0.6,0c0,0,0.1,0,0.2,0c0.7,0,1.3-0.1,1.9-0.1c0.3,0,0.6,0,0.7,0h0.1c0.4,0,0.5,0,0.4,0.2c0,0.1,0.1,0.1,0.3,0
						c0.1-0.1,0.2-0.1,0.4-0.2c0.1,0,0.2,0,0.4,0c0.5,0,1,0,1.3,0c0.1,0,0.1,0,0.2,0c0.7,0,1.2,0,1.3,0.1c0.2,0,0.5-0.1,0.7-0.1
						c0,0.1,0,0.1,0,0.2c0,0.1,0,0.1,0,0.2c0,0.2,0.1,0.5,0.1,0.7c0,0.6,0,0.9,0,1.2c0,0.1,0,0.1,0,0.2c0,2.2,0,4.5,0,6.7
						c0,1,0,1.9,0,2.5c0,0.1,0,0.1,0,0.2c0,0.4,0,0.7,0.1,0.9v0.1c0-0.4,0-0.7,0.1-0.9c0-0.1,0-0.1,0-0.2c0-0.1,0-0.1,0-0.1
						c0.2,0,0.3,0.4,0.2,1c0,0.1,0,0.2,0,0.3c0.1,0.2,0.1,0.4,0.1,0.7c0,0.1,0,0.1,0,0.1c0.1,0.3,0.1,0.7,0.1,1.2
						c0.1-0.1,0.2-0.5,0.1-1.2c0-0.1,0-0.2,0-0.4c0.1-0.3,0.2-0.4,0.4-0.3c0,0,0,0,0.1,0.1c0.3,0.1,0.6,0.2,0.9,0.2
						c0.2,0,0.3,0,0.4,0.1c0.1,0,0.2,0.3,0.2,0.7c0.4,0.2,1,0.3,1.7,0.3c0.2,0,0.4-0.1,0.6-0.2c0.1-0.1,0.2-0.1,0.2,0
						c0.1,0.1,0.2,0.1,0.2,0.1c0.8,0,1.6,0,2.3,0.1c0,0,0,0,0.1,0c0.1-0.1,0.2,0,0.4,0.1c0.1,0.1,0.3,0.2,0.4,0.2
						c0.3,0,0.4,0,0.5-0.1s0.2-0.1,0.2,0s0.1,0.1,0.2,0.1c0.2,0,0.5,0,0.7-0.1v-0.1c0-0.1,0.1-0.2,0.3-0.1h0.1
						c0.2-0.1,0.3-0.1,0.4,0v-0.1c0.1-0.2,0.1-0.2,0.3-0.1c0.1,0.1,0.1,0.1,0.2,0.1c0,0,0,0.1,0.1,0.1c0.2-0.4,0.5-0.5,0.9-0.5
						c0.1,0,0.2-0.1,0.3-0.2c0.1-0.1,0.1-0.3,0.1-0.4c0-0.9-0.1-1.2-0.4-0.9c0,0,0,0-0.1,0.1c-0.2,0-0.2,0-0.1-0.1
						c0.1,0,0.1-0.2,0-0.4v-0.1c0-0.7,0-1.1,0.1-1.2c0.1-0.1,0.2-0.1,0.2,0.2c0,0.1,0,0.1,0.1,0c0,0,0-0.1,0.1-0.1
						c0.1-0.3,0.2-0.5,0.3-0.6c0.2-0.1,0.1-0.2-0.1-0.4c-0.1-0.1-0.1-0.2,0-0.3l0.1-0.1v-0.1c0.3,0,0.4-0.1,0.2-0.6
						c0-0.1,0-0.3,0-0.8c0-0.1,0-0.1,0-0.2c0-0.2,0-0.2,0.1-0.1c0.1,0,0.2,0.2,0.2,0.6c0,0.3,0,0.6,0,1c0,0.5,0,0.8,0.1,1
						c0.1-0.1,0.1-0.4,0-0.7c0,0,0,0,0-0.1s0-0.3,0-0.6c0-0.2,0-0.4,0-0.6c0,0,0-0.1,0-0.2c0-0.7-0.1-1.3-0.1-1.9c0-0.3,0-0.6,0-0.7
						v-0.1c0-0.4,0-0.5,0.2-0.4c0.1,0,0.1-0.1,0-0.3c-0.1-0.1-0.1-0.2-0.2-0.4c0-0.1,0-0.2,0-0.4c0-0.5,0-1,0-1.3c0-0.1,0-0.1,0-0.2
						c0-0.7,0-1.2,0.1-1.3c-0.1-0.3-0.1-0.6-0.1-1c1.4,0,2.7,0,4,0c0.2,0,0.6,0,1,0c0.1,0,0.2,0,0.2,0c0.8-0.1,1.5-0.1,2.1-0.1
						c0.9,0,1.7,0,2.3,0.1c0.4,0,0.8,0,1.1,0c0.1,0,0.1,0,0.2,0c0.2-0.1,0-0.1-0.6-0.1c-0.1,0-0.1,0-0.1,0c-0.3,0.1-0.6,0-0.8-0.1
						l0,0c-0.5,0-1,0-1.5,0c0,0,0,0,0,0.1c-0.6-0.1-1.2-0.1-1.9-0.1h-0.1c0,0-0.2,0-0.4,0c-0.1,0-0.3,0-0.4,0h-0.1
						c-0.2,0.1-0.4,0.1-0.7,0.1c0-0.1-0.1-0.1-0.4-0.1c-0.1,0-0.3,0-0.4,0c-0.3,0-0.6,0-1,0c-0.7,0-1.2,0-1.6-0.1l0,0
						c-0.4-0.1-0.7,0-0.8,0.1c0,0-0.1,0-0.2-0.1c0-0.1,0-0.2,0-0.3c0.3,0,0.6,0,0.8,0c0.1,0,0.2,0,0.4,0c0.3,0,0.5,0,0.8,0h0.1
						c0.1-0.1,0.5-0.1,1.2-0.1c0.1,0,0.3,0,0.8,0c0.2,0,0.3,0,0.3,0.1c0,0,0,0,0.1,0.1s0.3,0,0.4-0.1c0.2-0.1,0.5-0.1,1-0.1
						c0.1,0,0.1,0,0.2,0c0.1,0.1,0.4,0.1,0.8,0c0.2,0,0.5,0,0.7,0c0.1,0,0.3,0,0.4,0c0.5,0,0.9,0,1.4,0c0,0,0.1,0,0.2,0s0.1,0,0.2,0
						l0,0c0.3,0,0.6,0,1,0.1c0.1,0,0.1,0,0.2,0c0.3,0,0.4,0,0.4-0.1c0.3,0,0.7,0.1,1.1,0.1c0.1,0,0.3,0,0.4,0c0.6,0,1.1,0,1.5,0
						c0.9,0,1.8,0,2.7,0l0,0c0.1,0,0.1,0,0.1-0.1c-0.1-0.1-0.3-0.1-0.6-0.2c-0.3,0-0.7,0-1.2,0l0,0c-0.1,0-0.2,0-0.3-0.1
						c-0.4-0.1-0.4-0.2-0.1-0.3c0.1,0,0.1,0,0.1-0.1c0.1-0.1,0.1-0.3,0.2-0.4c0.1-0.1,0.1-0.2,0-0.4c-0.1-0.1-0.1-0.3,0-0.5v-0.1
						c-0.1-0.9-0.1-1.7-0.1-2.6c0-0.3,0-0.6,0.1-0.9c0.1-0.6,0.1-1.2,0-1.8c0-0.2,0-0.4,0-0.6c0.1-0.4,0.1-0.8,0-1.3c0,0,0,0,0-0.1
						c0.2-0.2,0.2-0.5,0.2-0.9c0-0.1,0-0.2,0-0.2c0-0.4,0-0.6,0-0.8l0,0c0.1-0.2,0.2-0.4,0.1-0.7c0,0,0,0-0.1,0
						c-0.6-0.2-0.9-0.1-0.7,0.3c-0.1,0-0.1,0-0.1,0.1l-0.1,0.1c-0.2,0-0.3-0.1-0.2-0.3v-0.1c-0.3-0.2-0.6-0.3-0.9-0.5
						c-0.4,0-0.8,0-1.2,0c-0.1,0-0.1,0-0.2,0s-0.1,0-0.1,0c0-0.2,0.2-0.3,0.5-0.4c-0.3-0.1-0.7-0.1-1-0.1c-0.3-0.1-0.7-0.1-1.2-0.1
						c-1,0-1.7,0-2.3,0c-0.3,0-0.5,0-0.8,0c-0.1,0-0.1,0-0.2,0c-0.4,0-1,0-1.7,0c-0.1,0-0.1,0-0.2,0h-0.1c-0.3,0.1-0.5,0.1-0.7,0
						h-0.1c-0.3,0.1-0.5,0.1-0.7-0.1c0,0,0-0.1,0.1-0.1s0.3-0.1,0.5-0.1c0.4,0,0.7,0,0.9,0c0.1,0,0.1,0,0.2,0h0.1
						c0.3,0.1,0.5,0.1,0.8-0.1c-0.2-0.1-0.5-0.1-1-0.1c-0.1,0-0.1,0-0.2,0c-0.2,0-0.6,0-1.2,0c-1,0-2-0.1-3.1-0.1
						c-0.1,0-0.1,0-0.1,0c-0.1,0-0.3,0-0.4,0c0-1.3,0-2.5,0-3.8c0-0.2,0-0.6,0-1c0-0.1,0-0.2,0-0.2c-0.1-0.8-0.1-1.5-0.1-2.1
						c0-0.9,0-1.7,0.1-2.3c0-0.4,0-0.8,0-1.1c0-0.1,0-0.1,0-0.2c-0.1-0.2-0.1,0-0.1,0.6c0,0.1,0,0.1,0,0.1c0.1,0.3,0,0.6-0.1,0.8
						l0,0c0,0.5,0,1,0,1.5c0,0,0,0,0.1,0c-0.1,0.6-0.1,1.2-0.1,1.9v0.1c0,0,0,0.2,0,0.4c0,0.1,0,0.3,0,0.4v0.1
						c0.1,0.2,0.1,0.4,0.1,0.7c-0.1,0-0.1,0.1-0.1,0.4c0,0.1,0,0.3,0,0.4c0,0.3,0,0.6,0,1c0,0.7,0,1.2-0.1,1.6l0,0
						c-0.1,0.3,0,0.6,0,0.7c-0.1,0-0.2,0-0.3,0c0-0.2,0-0.3,0-0.5c0-0.1,0-0.2,0-0.4c0-0.3,0-0.5,0-0.8v-0.1
						c-0.1-0.1-0.1-0.5-0.1-1.2c0-0.1,0-0.3,0-0.8c0-0.2,0-0.3,0.1-0.3c0,0,0,0,0.1-0.1s0-0.3-0.1-0.4c-0.1-0.2-0.1-0.5-0.1-1
						c0-0.1,0-0.1,0-0.2c0.1-0.1,0.1-0.4,0-0.8c0-0.2,0-0.5,0-0.7c0-0.1,0-0.3,0-0.4c0-0.5,0-0.9,0-1.4c0,0,0-0.1,0-0.2
						c0-0.1,0-0.1,0-0.2l0,0c0-0.3,0-0.6,0.1-1c0-0.1,0-0.1,0-0.2c0-0.3,0-0.4-0.1-0.4c0-0.3,0.1-0.7,0.1-1.1c0-0.1,0-0.3,0-0.4
						c0-0.6,0-1.1,0-1.5C-415.3-560.4-415.3-561.3-415.4-562.1z"/>
				</g>
			</g>
		</g>
		<g transform="matrix( 1, 0, 0, 1, 0,0) ">
			<g>
				<g>
					<path d="M-405.9-541.7H-418v-12.2h-7.2v12.2h-12.2v7.2h12.2v12.2h7.2l0-12.2l12.1,0V-541.7z"/>
				</g>
			</g>
		</g>
	</g>
</g>
<g>
	<path class="st1" d="M80,36.9c-0.1-0.5-0.2-1.1-0.4-1.6c-3-7.8-6-15.6-9-23.4c-1-2.7-2-5.4-3.2-8.1c-1.2-2.8-4.5-3.3-6.4-1
		c-0.6,0.8-0.9,1.8-1.3,2.8c-2,5.2-4,10.5-6,15.7c-0.3,0.7-0.7,1.2-1.5,1.4c-1,0.2-2-0.2-2.4-1.3c-0.8-2.1-1.6-4.2-2.4-6.2
		c-0.7-1.8-2-2.8-3.8-2.8c-1.7,0-3.1,1-3.8,2.9c-1.5,3.9-3,7.9-4.5,11.8c-1,2.7-2.1,5.4-3.1,8.1c-0.8,2.1,0.1,4.2,2.2,5
		c1.8,0.7,3.9-0.2,4.7-2.2c0.9-2.2,1.7-4.4,2.7-6.6c0.2-0.5,0.6-1.1,1.1-1.4c1.1-0.6,2.2,0,2.6,1.1c0.9,2.3,1.8,4.7,2.8,7
		c0.3,0.7,0.9,1.5,1.6,1.9c2.1,1.3,4.5,0.3,5.5-2.2c2.2-5.6,4.4-11.3,6.5-16.9c0.4-0.9,0.9-1.5,1.9-1.5c1,0,1.6,0.5,2.1,1.6
		c1.3,3.3,2.6,6.7,4,10c1,2.5,1.9,5,3,7.4c0.7,1.6,2.6,2.5,4.2,2.1C78.8,40,79.9,38.6,80,36.9z M43.6,1.5c-2,0-3.7,1.7-3.8,3.7
		c0,2,1.7,3.8,3.8,3.8c2,0,3.7-1.7,3.8-3.7C47.4,3.2,45.7,1.5,43.6,1.5z M70.3,49.8c0.1-0.1,0.2-0.2,0.3-0.2c0.7-0.4,1.1-1,1-1.8
		c-0.1-0.9-0.6-1.4-1.6-1.6c-1-0.1-2-0.1-3-0.2c0,2,0,3.9,0,5.8c0.3,0,0.6,0,0.9,0c0-0.7,0-1.3,0-1.9c0.9-0.3,1.5,0,1.9,0.8
		c0.1,0.2,0.3,0.3,0.4,0.5c0.3,0.6,0.8,0.9,1.5,0.6C71.3,51.2,70.8,50.5,70.3,49.8z M53.7,49c0,0.2,0,0.4,0,0.6
		c-0.2,2.2,0.5,2.5,2.7,2.1c0.1,0,0.2,0,0.3,0c1.4-0.3,2.1-1.4,2.1-2.9c0-1.3-0.9-2.3-2.2-2.6c-0.5-0.1-1.1-0.1-1.7-0.1
		c-0.8,0-1.2,0.5-1.2,1.3C53.6,48,53.7,48.5,53.7,49z M42.8,48.9c-0.2-0.3-0.4-0.5-0.5-0.8c-0.4-0.5-0.7-1.1-1.1-1.6
		c-0.2-0.2-0.5-0.3-0.7-0.3c-0.1,0-0.4,0.3-0.4,0.5c0,0.7,0,1.5,0,2.2c0,0.2,0.2,0.3,0.4,0.4c0.2-0.1,0.4-0.3,0.5-0.4
		c0.1-0.2,0.1-0.5,0.1-1c0.7,1,1.2,1.7,1.8,2.6c0.6-0.9,1.1-1.7,1.7-2.4c0.1,1.1,0.1,2.1,0.2,3.1c0,0.3,0.3,0.5,0.5,0.8
		c0.2-0.3,0.4-0.5,0.4-0.8c0-1.3,0-2.7,0-4c0-0.3-0.3-0.6-0.4-0.9c-0.3,0.2-0.7,0.3-0.9,0.6C43.8,47.4,43.4,48.1,42.8,48.9z
		 M60.4,46.2c0.8,1.8,1.5,3.6,2.2,5.4c0.2,0.4,0.9,0.4,1.1,0c0.8-1.8,1.5-3.6,2.2-5.4c-0.7-0.3-1.1,0-1.3,0.6
		c-0.1,0.3-0.2,0.7-0.4,1c-0.3,0.8-0.7,1.7-1.1,2.8c-0.5-1.4-1-2.5-1.4-3.7C61.5,46.3,61.2,45.9,60.4,46.2z M49.6,47.3
		c0.3,0.6,0.5,1,0.6,1.4c0.4,1,0.8,1.9,1.3,2.9c0.1,0.2,0.5,0.2,0.8,0.3c0-0.2,0.1-0.5,0-0.7c-0.6-1.5-1.3-3-2-4.6
		c-0.3-0.6-0.9-0.7-1.2-0.2c-0.8,1.6-1.5,3.3-2.2,4.9c-0.1,0.1,0,0.5,0.1,0.5c0.2,0.1,0.4,0,0.6-0.1c0.2-0.2,0.3-0.4,0.4-0.7
		C48.5,49.9,49,48.7,49.6,47.3z M57.4,60.3c0.8,0,1.5,0.1,2.2,0c1.2-0.1,2.2-1.1,2.3-2.1c0.2-1.4-0.4-2.5-1.6-2.9
		c-0.9-0.3-1.9-0.2-2.9-0.3C57.4,56.8,57.4,58.6,57.4,60.3z M70.6,57.7c0-1.6-1.1-2.8-2.6-2.8s-2.7,1.2-2.7,2.8s1.2,2.8,2.7,2.8
		C69.4,60.5,70.6,59.2,70.6,57.7z M51.7,55.1c-0.1,0-0.3,0-0.4,0c0.1,1.4,0.1,2.8,0.3,4.1c0.1,0.8,1.1,1.3,2,1.3s1.9-0.5,2-1.4
		c0.2-1.3,0.1-2.7,0.1-4c0,0-0.1,0-0.2,0c0,1,0,2,0,3c0,1.3-0.7,2.1-1.9,2.1c-1.1,0-1.8-0.8-1.8-2.1C51.7,57.1,51.7,56.1,51.7,55.1z
		 M44.8,55.6c-0.6-0.7-2.1-0.8-2.8-0.3c-0.8,0.6-0.6,1.8,0.3,2.2c0.6,0.3,1.3,0.3,1.9,0.6c0.8,0.3,0.8,1.3,0.1,1.7
		c-0.4,0.2-1,0.3-1.4,0.2c-0.5-0.1-1-0.4-1.5-0.6c0.6,0.8,1.3,1.1,2.2,1c1-0.1,1.5-0.6,1.5-1.4c0-0.8-0.4-1.2-1.4-1.5
		c-0.4-0.1-0.8-0.2-1.2-0.3c-0.5-0.2-0.9-0.5-0.7-1c0.1-0.4,0.5-0.8,0.8-0.9C43.4,55.3,44.1,55.5,44.8,55.6z M50.1,55.3
		c0-0.1,0-0.1,0-0.2c-1.3,0-2.6,0-4,0c0,0.1,0,0.1,0,0.2c0.6,0,1.2,0.1,1.9,0.1c0,1.7,0,3.3,0,4.9c0.1,0,0.2,0,0.3,0
		c0-1.6,0-3.3,0-5C49,55.3,49.5,55.3,50.1,55.3z M63.5,60.3c0.1,0,0.1,0,0.2,0c0-1.7,0-3.5,0-5.2c-0.1,0-0.1,0-0.2,0
		C63.5,56.8,63.5,58.5,63.5,60.3z M40.4,50.8c-0.2,0.3-0.4,0.6-0.3,0.7c0.1,0.2,0.3,0.4,0.5,0.4c0.1,0,0.4-0.3,0.4-0.4
		C41,51.3,40.7,51.1,40.4,50.8z"/>
	<path class="st1" d="M80,36.9c-0.1,1.7-1.3,3.2-3,3.6c-1.6,0.4-3.5-0.5-4.2-2.1c-1-2.4-2-4.9-3-7.4c-1.3-3.3-2.6-6.7-4-10
		c-0.4-1.1-1.1-1.6-2.1-1.6s-1.6,0.6-1.9,1.5c-2.2,5.6-4.3,11.3-6.5,16.9c-1,2.5-3.4,3.5-5.5,2.2c-0.7-0.4-1.3-1.2-1.6-1.9
		c-1-2.3-1.8-4.6-2.8-7c-0.5-1.2-1.6-1.7-2.6-1.1c-0.5,0.3-0.9,0.8-1.1,1.4c-0.9,2.2-1.8,4.4-2.7,6.6c-0.8,2-2.8,3-4.7,2.2
		c-2.1-0.8-3-2.9-2.2-5c1-2.7,2.1-5.4,3.1-8.1c1.5-3.9,3-7.9,4.5-11.8c0.7-1.8,2.1-2.9,3.8-2.9s3.1,1,3.8,2.8
		c0.8,2.1,1.6,4.2,2.4,6.2c0.4,1.1,1.4,1.5,2.4,1.3c0.8-0.2,1.2-0.7,1.5-1.4c2-5.2,4-10.5,6-15.7c0.4-0.9,0.7-2,1.3-2.8
		c1.9-2.4,5.2-1.8,6.4,1c1.1,2.7,2.1,5.4,3.2,8.1c3,7.8,6,15.6,9,23.4C79.8,35.8,79.9,36.3,80,36.9z"/>
	<path class="st1" d="M43.6,1.5c2.1,0,3.8,1.8,3.8,3.8S45.6,9,43.6,9c-2.1,0-3.8-1.8-3.8-3.8C39.9,3.1,41.6,1.5,43.6,1.5z"/>
	<path class="st1" d="M70.3,49.8c0.5,0.7,1,1.4,1.4,2.1c-0.7,0.3-1.2,0-1.5-0.6c-0.1-0.2-0.3-0.3-0.4-0.5c-0.4-0.8-0.9-1-1.9-0.8
		c0,0.6,0,1.3,0,1.9c-0.4,0-0.6,0-0.9,0c0-1.9,0-3.8,0-5.8c1,0,2,0,3,0.2c1,0.1,1.5,0.7,1.6,1.6c0.1,0.8-0.3,1.4-1,1.8
		C70.6,49.6,70.5,49.7,70.3,49.8z M68,49c0.6,0,1.2,0,1.7,0c0.6-0.1,1-0.4,0.9-1c0-0.6-0.4-0.9-1-0.9s-1.1,0-1.7,0
		C68,47.8,68,48.3,68,49z"/>
	<path class="st2" d="M53.7,49c0-0.5,0-1.1,0-1.6c0-0.8,0.4-1.3,1.2-1.3c0.6,0,1.1,0,1.7,0.1c1.3,0.2,2.2,1.3,2.2,2.6
		c0,1.5-0.7,2.6-2.1,2.9c-0.1,0-0.2,0-0.3,0c-2.3,0.3-2.9,0.1-2.7-2.1C53.7,49.5,53.7,49.3,53.7,49z M54.6,49c0,0.4,0,0.8,0,1.2
		c0,0.3,0.2,0.6,0.4,0.7c1.1,0.5,2.4-0.2,2.7-1.3c0.2-0.8,0.1-1.5-0.5-2.1s-1.5-0.6-2.2-0.4c-0.7,0.2-0.3,1.1-0.4,1.6
		C54.6,48.9,54.6,49,54.6,49z"/>
	<path class="st1" d="M42.8,48.9c0.5-0.8,0.9-1.5,1.4-2.1c0.2-0.3,0.6-0.4,0.9-0.6c0.2,0.3,0.4,0.6,0.4,0.9c0,1.3,0,2.7,0,4
		c0,0.3-0.3,0.5-0.4,0.8c-0.2-0.3-0.5-0.5-0.5-0.8c-0.1-1,0-2-0.2-3.1c-0.5,0.8-1.1,1.6-1.7,2.4c-0.6-0.8-1.1-1.6-1.8-2.6
		c-0.1,0.5,0,0.8-0.1,1s-0.3,0.3-0.5,0.4c-0.1-0.1-0.4-0.3-0.4-0.4c0-0.7,0-1.5,0-2.2c0-0.2,0.3-0.5,0.4-0.5c0.3,0,0.6,0.1,0.7,0.3
		c0.4,0.5,0.7,1.1,1.1,1.6C42.5,48.3,42.6,48.6,42.8,48.9z"/>
	<path class="st1" d="M60.4,46.2c0.8-0.3,1.1,0.1,1.3,0.7c0.4,1.2,0.9,2.3,1.4,3.7c0.4-1.1,0.8-1.9,1.1-2.8c0.1-0.3,0.3-0.6,0.4-1
		c0.2-0.7,0.6-0.9,1.3-0.6c-0.7,1.8-1.5,3.6-2.2,5.4c-0.2,0.4-0.9,0.4-1.1,0C61.9,49.9,61.1,48.1,60.4,46.2z"/>
	<path class="st1" d="M49.6,47.3c-0.6,1.4-1.1,2.6-1.6,3.8c-0.1,0.2-0.2,0.5-0.4,0.7c-0.1,0.1-0.4,0.1-0.6,0.1
		c-0.1,0-0.2-0.3-0.1-0.5c0.7-1.6,1.4-3.3,2.2-4.9c0.3-0.6,0.9-0.4,1.2,0.2c0.7,1.5,1.3,3,2,4.6c0.1,0.2,0,0.5,0,0.7
		c-0.3-0.1-0.7-0.2-0.8-0.3c-0.5-0.9-0.8-1.9-1.3-2.9C50.1,48.3,49.9,47.9,49.6,47.3z"/>
	<path class="st1" d="M57.4,60.3c0-1.8,0-3.5,0-5.4c1,0.1,2,0.1,2.9,0.3c1.2,0.4,1.8,1.5,1.6,2.9c-0.1,1.1-1.1,2-2.3,2.1
		C58.9,60.4,58.1,60.3,57.4,60.3z M57.7,60c1.4,0.1,2.8,0.3,3.6-1.2c0.5-0.8,0.4-1.7-0.2-2.5c-0.9-1.2-2.1-1-3.4-0.9
		C57.7,56.9,57.7,58.4,57.7,60z"/>
	<path class="st1" d="M70.6,57.7c0,1.6-1.2,2.8-2.7,2.8s-2.7-1.2-2.7-2.8c0-1.5,1.2-2.8,2.7-2.8S70.6,56.1,70.6,57.7z M70.3,57.7
		c0-1.4-1.1-2.6-2.4-2.5c-1.2,0-2.3,1.1-2.3,2.4c0,1.3,1,2.5,2.3,2.5C69.2,60.2,70.2,59.1,70.3,57.7z"/>
	<path class="st1" d="M51.7,55.1c0,1,0,2,0,3c0,1.3,0.7,2.1,1.8,2.1s1.8-0.8,1.9-2.1c0-1,0-2,0-3c0.1,0,0.2,0,0.2,0
		c0,1.3,0.1,2.7-0.1,4c-0.1,0.9-1.1,1.4-2,1.4s-1.8-0.5-2-1.3c-0.2-1.4-0.2-2.8-0.3-4.1C51.4,55.1,51.6,55.1,51.7,55.1z"/>
	<path class="st1" d="M44.8,55.6c-0.7-0.1-1.4-0.3-2.1-0.2c-0.3,0-0.7,0.5-0.8,0.9c-0.2,0.5,0.2,0.9,0.7,1c0.4,0.1,0.8,0.2,1.2,0.3
		c1,0.3,1.4,0.7,1.4,1.5s-0.5,1.2-1.5,1.4c-0.9,0.1-1.7-0.2-2.2-1c0.5,0.2,1,0.5,1.5,0.6s1,0,1.4-0.2c0.7-0.4,0.7-1.4-0.1-1.7
		c-0.6-0.3-1.3-0.3-1.9-0.6c-1-0.4-1.1-1.6-0.3-2.2C42.7,54.7,44.2,54.9,44.8,55.6z"/>
	<path class="st1" d="M50.1,55.3c-0.5,0-1.1,0-1.8,0c0,1.7,0,3.4,0,5c-0.1,0-0.2,0-0.3,0c0-1.6,0-3.3,0-4.9c-0.7,0-1.3-0.1-1.9-0.1
		c0-0.1,0-0.1,0-0.2c1.3,0,2.6,0,4,0C50.1,55.2,50.1,55.2,50.1,55.3z"/>
	<path class="st1" d="M63.5,60.3c0-1.7,0-3.5,0-5.2c0.1,0,0.1,0,0.2,0c0,1.7,0,3.5,0,5.2C63.6,60.3,63.6,60.3,63.5,60.3z"/>
	<path d="M68,49c0-0.7,0-1.3,0-1.9c0.6,0,1.1,0,1.7,0s1,0.4,1,0.9c0,0.6-0.4,0.9-0.9,1C69.2,49.1,68.6,49,68,49z"/>
	<path d="M70.3,57.7c0,1.4-1.1,2.5-2.4,2.4c-1.3,0-2.3-1.2-2.3-2.5s1-2.4,2.3-2.4C69.1,55.2,70.3,56.4,70.3,57.7z"/>
	<path d="M54.6,49.1c0,0.4,0,0.8,0,1.2c0,0.3,0.2,0.6,0.4,0.7c1.1,0.5,2.4-0.2,2.7-1.3c0.2-0.8,0.1-1.5-0.5-2.1
		C56.6,47,55.7,47,55,47.2s-0.3,1.1-0.4,1.6C54.6,48.9,54.6,49,54.6,49.1z"/>
	<path d="M58.1,57.6c0,0.4-0.1,0.8,0,1.2c0,0.3,0.2,0.6,0.4,0.7c1.1,0.5,2.4-0.1,2.8-1.2c0.3-0.8,0.1-1.5-0.5-2.1s-1.5-0.6-2.2-0.4
		c-0.8,0.2-0.3,1.1-0.4,1.6C58,57.5,58.1,57.6,58.1,57.6z"/>
	<path class="st1" d="M42.8,48.9c-0.5-0.8-0.9-1.5-1.4-2.1c-0.2-0.3-0.6-0.4-0.9-0.6c-0.2,0.3-0.4,0.6-0.4,0.9c0,1.3,0,2.7,0,4
		c0,0.3,0.3,0.5,0.4,0.8c0.2-0.3,0.5-0.5,0.5-0.8c0.1-1,0-2,0.2-3.1c0.5,0.8,1.1,1.6,1.7,2.4c0.6-0.8,1.1-1.6,1.8-2.6
		c0.1,0.5,0,0.8,0.1,1s0.3,0.3,0.5,0.4c0.1-0.1,0.4-0.3,0.4-0.4c0-0.7,0-1.5,0-2.2c0-0.2-0.3-0.5-0.4-0.5c-0.3,0-0.6,0.1-0.7,0.3
		c-0.4,0.5-0.7,1.1-1.1,1.6C43.2,48.4,43,48.6,42.8,48.9z"/>
</g>
</svg>
