<?xml version="1.0" encoding="utf-8"?>
<!-- Generator: Adobe Illustrator 25.4.1, SVG Export Plug-In . SVG Version: 6.00 Build 0)  -->
<svg version="1.1" id="Layer_1" xmlns="http://www.w3.org/2000/svg" xmlns:xlink="http://www.w3.org/1999/xlink" x="0px" y="0px"
	 viewBox="0 0 172 33" style="enable-background:new 0 0 172 33;" xml:space="preserve">
<style type="text/css">
	.st0{fill:#FFFFFF;}
	.st1{fill:#E17726;stroke:#E17726;stroke-width:0.25;stroke-linecap:round;stroke-linejoin:round;}
	.st2{fill:#E27625;stroke:#E27625;stroke-width:0.25;stroke-linecap:round;stroke-linejoin:round;}
	.st3{fill:#D5BFB2;stroke:#D5BFB2;stroke-width:0.25;stroke-linecap:round;stroke-linejoin:round;}
	.st4{fill:#233447;stroke:#233447;stroke-width:0.25;stroke-linecap:round;stroke-linejoin:round;}
	.st5{fill:#CC6228;stroke:#CC6228;stroke-width:0.25;stroke-linecap:round;stroke-linejoin:round;}
	.st6{fill:#E27525;stroke:#E27525;stroke-width:0.25;stroke-linecap:round;stroke-linejoin:round;}
	.st7{fill:#F5841F;stroke:#F5841F;stroke-width:0.25;stroke-linecap:round;stroke-linejoin:round;}
	.st8{fill:#C0AC9D;stroke:#C0AC9D;stroke-width:0.25;stroke-linecap:round;stroke-linejoin:round;}
	.st9{fill:#161616;stroke:#161616;stroke-width:0.25;stroke-linecap:round;stroke-linejoin:round;}
	.st10{fill:#763E1A;stroke:#763E1A;stroke-width:0.25;stroke-linecap:round;stroke-linejoin:round;}
</style>
<path class="st0" d="M151.3,16.6c-0.9-0.6-1.9-1-2.8-1.5c-0.6-0.3-1.2-0.6-1.8-1.1c-0.9-0.7-0.7-2.2,0.2-2.8
	c1.3-0.9,3.5-0.4,3.8,1.4c0,0,0,0.1,0.1,0.1h2c0.1,0,0.1,0,0.1-0.1c-0.1-1.2-0.6-2.3-1.5-2.9c-0.8-0.6-1.8-1-2.8-1
	c-5.3,0-5.8,5.6-2.9,7.3c0.3,0.2,3.1,1.6,4.1,2.2c1,0.6,1.3,1.7,0.9,2.6c-0.4,0.8-1.4,1.4-2.4,1.3c-1.1-0.1-2-0.7-2.3-1.6
	c-0.1-0.2-0.1-0.5-0.1-0.6c0,0,0-0.1-0.1-0.1h-2.2c0,0-0.1,0-0.1,0.1c0,1.6,0.4,2.4,1.5,3.2c1,0.8,2.1,1.1,3.2,1.1
	c3,0,4.5-1.7,4.8-3.4C153.3,19.2,152.8,17.7,151.3,16.6z"/>
<path class="st0" d="M57.1,9h-1H55c0,0-0.1,0-0.1,0.1L53.2,15c0,0.1-0.1,0.1-0.2,0l-1.8-5.9c0,0,0-0.1-0.1-0.1h-1.1h-1h-1.3
	c0,0-0.1,0-0.1,0.1v15c0,0,0,0.1,0.1,0.1H50c0,0,0.1,0,0.1-0.1V12.7c0-0.1,0.1-0.1,0.2,0l1.8,5.9l0.1,0.4c0,0,0,0.1,0.1,0.1h1.7
	c0,0,0.1,0,0.1-0.1l0.1-0.4l1.8-5.9c0-0.1,0.2-0.1,0.2,0v11.4c0,0,0,0.1,0.1,0.1h2.2c0,0,0.1,0,0.1-0.1v-15c0,0,0-0.1-0.1-0.1H57.1z
	"/>
<path class="st0" d="M118,9C118,9,118,9.1,118,9l-1.9,5.9c0,0.1-0.1,0.1-0.2,0l-1.8-5.9c0,0,0-0.1-0.1-0.1h-3.3c0,0-0.1,0-0.1,0.1
	v15c0,0,0,0.1,0.1,0.1h2.2c0,0,0.1,0,0.1-0.1V12.7c0-0.1,0.1-0.1,0.2,0l1.8,5.9l0.1,0.4c0,0,0,0.1,0.1,0.1h1.7c0,0,0.1,0,0.1-0.1
	l0.1-0.4l1.8-5.9c0-0.1,0.2-0.1,0.2,0v11.4c0,0,0,0.1,0.1,0.1h2.2c0,0,0.1,0,0.1-0.1v-15c0,0,0-0.1-0.1-0.1H118z"/>
<path class="st0" d="M90.1,9h-4h-2.2h-4c0,0-0.1,0-0.1,0.1V11c0,0,0,0.1,0.1,0.1h4v13c0,0,0,0.1,0.1,0.1H86c0,0,0.1,0,0.1-0.1v-13h4
	c0,0,0.1,0,0.1-0.1L90.1,9C90.1,9.1,90.1,9,90.1,9z"/>
<path class="st0" d="M102.9,24.2h2c0.1,0,0.1-0.1,0.1-0.1l-4.1-15c0,0,0-0.1-0.1-0.1H100h-1.3h-0.8c0,0-0.1,0-0.1,0.1l-4.1,15
	c0,0.1,0,0.1,0.1,0.1h2c0,0,0.1,0,0.1-0.1l1.2-4.4c0,0,0-0.1,0.1-0.1h4.4c0,0,0.1,0,0.1,0.1L102.9,24.2
	C102.8,24.1,102.8,24.2,102.9,24.2z M97.7,17.5l1.6-5.8c0-0.1,0.1-0.1,0.2,0l1.6,5.8c0,0.1,0,0.1-0.1,0.1h-3.2
	C97.7,17.7,97.7,17.6,97.7,17.5z"/>
<path class="st0" d="M136.5,24.2h2c0.1,0,0.1-0.1,0.1-0.1l-4.1-15c0,0,0-0.1-0.1-0.1h-0.8h-1.3h-0.8c0,0-0.1,0-0.1,0.1l-4.1,15
	c0,0.1,0,0.1,0.1,0.1h2c0,0,0.1,0,0.1-0.1l1.2-4.4c0,0,0-0.1,0.1-0.1h4.4c0,0,0.1,0,0.1,0.1L136.5,24.2
	C136.5,24.1,136.5,24.2,136.5,24.2z M131.3,17.5l1.6-5.8c0-0.1,0.1-0.1,0.2,0l1.6,5.8c0,0.1,0,0.1-0.1,0.1h-3.2
	C131.4,17.7,131.3,17.6,131.3,17.5z"/>
<path class="st0" d="M67.2,21.9v-4.6c0,0,0-0.1,0.1-0.1h5.8c0,0,0.1,0,0.1-0.1v-1.9c0,0,0-0.1-0.1-0.1h-5.8c0,0-0.1,0-0.1-0.1v-4
	c0,0,0-0.1,0.1-0.1h6.6c0,0,0.1,0,0.1-0.1V9.1c0,0,0-0.1-0.1-0.1h-6.7H65c0,0-0.1,0-0.1,0.1v1.9v4.1v2V22v2c0,0,0,0.1,0.1,0.1h2.2
	h6.9c0,0,0.1,0,0.1-0.1v-2c0,0,0-0.1-0.1-0.1L67.2,21.9C67.2,22,67.2,22,67.2,21.9z"/>
<path class="st0" d="M171.1,24l-7.5-7.7c0,0,0-0.1,0-0.1l6.8-7c0.1-0.1,0-0.1-0.1-0.1h-2.8c0,0,0,0-0.1,0l-5.7,5.9
	c-0.1,0.1-0.1,0-0.1-0.1V9.1c0,0,0-0.1-0.1-0.1h-2.2c0,0-0.1,0-0.1,0.1v15c0,0,0,0.1,0.1,0.1h2.2c0,0,0.1,0,0.1-0.1v-6.6
	c0-0.1,0.1-0.1,0.1-0.1l6.5,6.7c0,0,0,0,0.1,0h2.8C171.1,24.2,171.1,24.1,171.1,24z"/>
<path class="st1" d="M33,1l-13.1,9.7L22.3,5L33,1z"/>
<path class="st2" d="M2.7,1l13,9.8L13.4,5L2.7,1z"/>
<path class="st2" d="M28.2,23.5l-3.5,5.3l7.5,2.1l2.1-7.3L28.2,23.5z"/>
<path class="st2" d="M1.3,23.7l2.1,7.3l7.5-2.1l-3.5-5.3L1.3,23.7z"/>
<path class="st2" d="M10.5,14.5l-2.1,3.1l7.4,0.3l-0.2-8L10.5,14.5z"/>
<path class="st2" d="M25.2,14.5L20,9.9L19.8,18l7.4-0.3L25.2,14.5z"/>
<path class="st2" d="M10.9,28.9l4.5-2.2l-3.9-3L10.9,28.9z"/>
<path class="st2" d="M20.3,26.7l4.5,2.2l-0.6-5.2L20.3,26.7z"/>
<path class="st3" d="M24.7,28.9l-4.5-2.2l0.4,2.9l0,1.2L24.7,28.9z"/>
<path class="st3" d="M10.9,28.9l4.2,2l0-1.2l0.4-2.9L10.9,28.9z"/>
<path class="st4" d="M15.1,21.8l-3.7-1.1l2.6-1.2L15.1,21.8z"/>
<path class="st4" d="M20.5,21.8l1.1-2.3l2.6,1.2L20.5,21.8z"/>
<path class="st5" d="M10.9,28.9l0.6-5.3l-4.1,0.1L10.9,28.9z"/>
<path class="st5" d="M24.1,23.5l0.6,5.3l3.5-5.2L24.1,23.5z"/>
<path class="st5" d="M27.2,17.7L19.8,18l0.7,3.8l1.1-2.3l2.6,1.2L27.2,17.7z"/>
<path class="st5" d="M11.4,20.7l2.6-1.2l1.1,2.3l0.7-3.8l-7.4-0.3L11.4,20.7z"/>
<path class="st6" d="M8.4,17.7l3.1,6.1l-0.1-3L8.4,17.7z"/>
<path class="st6" d="M24.2,20.7l-0.1,3l3.1-6.1L24.2,20.7z"/>
<path class="st6" d="M15.8,18l-0.7,3.8l0.9,4.5l0.2-5.9L15.8,18z"/>
<path class="st6" d="M19.8,18l-0.4,2.4l0.2,5.9l0.9-4.5L19.8,18z"/>
<path class="st7" d="M20.5,21.8l-0.9,4.5l0.6,0.4l3.9-3l0.1-3L20.5,21.8z"/>
<path class="st7" d="M11.4,20.7l0.1,3l3.9,3l0.6-0.4l-0.9-4.5L11.4,20.7z"/>
<path class="st8" d="M20.6,30.8l0-1.2l-0.3-0.3h-5L15,29.6l0,1.2l-4.2-2l1.5,1.2l2.9,2h5.1l3-2l1.4-1.2L20.6,30.8z"/>
<path class="st9" d="M20.3,26.7l-0.6-0.4H16l-0.6,0.4L15,29.6l0.3-0.3h5l0.3,0.3L20.3,26.7z"/>
<path class="st10" d="M33.5,11.4L34.6,6L33,1l-12.7,9.4l4.9,4.1l6.9,2l1.5-1.8l-0.7-0.5l1.1-1l-0.8-0.6l1.1-0.8L33.5,11.4z"/>
<path class="st10" d="M1,6l1.1,5.4l-0.7,0.5l1.1,0.8l-0.8,0.6l1.1,1l-0.7,0.5l1.5,1.8l6.9-2l4.9-4.1L2.7,1L1,6z"/>
<path class="st7" d="M32,16.5l-6.9-2l2.1,3.1l-3.1,6.1l4.1-0.1h6.1L32,16.5z"/>
<path class="st7" d="M10.5,14.5l-6.9,2l-2.3,7.1h6.1l4.1,0.1l-3.1-6.1L10.5,14.5z"/>
<path class="st7" d="M19.8,18l0.4-7.6l2-5.4h-8.9l2,5.4l0.4,7.6l0.2,2.4l0,5.9h3.7l0-5.9L19.8,18z"/>
</svg>
