<?xml version="1.0" encoding="utf-8"?>
<!-- Generator: Adobe Illustrator 23.0.3, SVG Export Plug-In . SVG Version: 6.00 Build 0)  -->
<svg version="1.1" id="Layer_1" xmlns="http://www.w3.org/2000/svg" xmlns:xlink="http://www.w3.org/1999/xlink" x="0px" y="0px"
	 viewBox="0 0 98 47" style="enable-background:new 0 0 98 47;" xml:space="preserve">
<style type="text/css">
	.st0{display:none;opacity:0.3;enable-background:new    ;}
	.st1{display:none;fill:#EC2024;}
	.st2{fill:#FFFFFF;}
</style>
<g>
	<rect class="st0" width="98" height="47"/>
	<g>
		<path class="st1" d="M65.7,36.6C65.7,36.7,65.7,36.7,65.7,36.6C66.2,37,66.2,36.9,65.7,36.6 M59.1,31L59.1,31
			C59.6,31.3,59.5,31.3,59.1,31 M57.4,33.2C57.4,33.3,57.4,33.3,57.4,33.2C57.8,33.6,57.8,33.6,57.4,33.2 M58.4,31.1
			C58.4,31.1,58.4,31.2,58.4,31.1C58.9,31.3,58.9,31.3,58.4,31.1 M66.1,34.2C66.6,34.4,66.6,34.4,66.1,34.2
			C66.1,34.1,66.1,34.1,66.1,34.2 M66.3,33.2c0,0.2,0,0.3,0.1,0.2l0.3-0.1C67,32.6,66.9,32.6,66.3,33.2 M64.5,35v0.2
			c0.6-0.3,0.5-0.5,0-0.5C64.5,34.9,64.5,34.9,64.5,35 M64,34.7C64.4,35.2,64.4,35.1,64,34.7L64,34.7 M84.8,41.2L84.8,41.2
			L84.8,41.2C84.8,41.3,84.8,41.2,84.8,41.2L84.8,41.2 M70.2,36.4c0.1-0.5,0-0.8-0.4-0.8c0,0.2,0,0.4,0.1,0.6H70
			c0,1.1,0.1,1.2,0.1,0.4C70.1,36.5,70.1,36.5,70.2,36.4L70.2,36.4 M70.6,34.1C71,34.4,71,34.3,70.6,34.1
			C70.5,34,70.5,34.1,70.6,34.1 M69.6,34.2c0.6,0,0.6-0.1-0.2-0.5C69.4,34,69.5,34.2,69.6,34.2 M67.4,31c0,0.2,0,0.3,0.1,0.3
			C68.1,31.4,68.1,31.3,67.4,31 M81.3,36.1C81.3,36.2,81.3,36.2,81.3,36.1C81.8,36.5,81.7,36.5,81.3,36.1 M81.7,37.1
			c0.1,0.3,0.3,0.5,0.5,0.7l0.1,0.1C82.9,37.5,82.7,37.3,81.7,37.1 M82,38.7L82,38.7C82.6,39.1,82.6,39,82,38.7 M65.9,9.9
			C65.8,9.9,65.8,9.9,65.9,9.9c-0.4,0.6-0.8,1.1-1.3,1.5c0,0.1,0,0.1,0,0.1c-0.1,0-0.1,0-0.1,0c-0.1,0.1-0.2,0.2-0.3,0.4
			c0,0.1,0,0.1,0,0.1c0,0.1,0,0.1,0,0.1c-0.2,0.1-0.3,0.2-0.4,0.3c0,0.6,0.2,0.5,0.5-0.2v-0.1c0.1-0.2,0.2-0.3,0.3-0.4v-0.1
			c0.1,0,0.1,0,0.1,0C65.2,11.1,65.6,10.5,65.9,9.9 M65.9,9.7c0.2,0.2,0.5,0.1,1-0.4C67,9.2,67,9.1,66.9,9
			C66.5,8.6,66.2,8.9,65.9,9.7 M72,5c-0.1,0.3,0,0.5,0.1,0.6C72.7,5.4,72.7,5.2,72,5 M59.3,27.8C59.8,27.6,59.8,27.6,59.3,27.8
			L59.3,27.8 M58.6,26.5v0.3C59.2,25.9,59.2,25.8,58.6,26.5 M57.1,24.4C57.2,24.4,57.2,24.4,57.1,24.4c0.7-1.1,0.6-1.2-0.1-0.1
			L57.1,24.4c-0.2,0-0.2,0-0.2,0c-0.1,0.2-0.2,0.3-0.3,0.4c0.2,0.2,0.4,0.1,0.5-0.3C57.1,24.5,57.1,24.4,57.1,24.4 M58.4,23.5
			L57.9,24c0,0.2,0.2,0.4,0.4,0.4c0.1,0,0.1,0,0.1,0v0.1c0.5,0.1,0.5,0.1,0-0.2C58.5,23.9,58.5,23.7,58.4,23.5 M51,30.4L51,30.4
			c-0.4,0.1-0.7,0.2-0.9,0.4c0.4,0.3,0.7,0.2,1-0.3v-0.1l0.2-0.2c0.5-0.3,0.4-0.3-0.4,0.1C51,30.3,51,30.3,51,30.4 M47.6,26.9v0.2
			C48,27.1,48,27.1,47.6,26.9 M51.9,23.7L51.9,23.7C52.6,23.5,52.6,23.5,51.9,23.7 M50.2,25C51,24.7,51,24.7,50.2,25L50.2,25
			 M48.2,19.7c0.5,0.6,0.5,0.5,0-0.1C48.2,19.6,48.2,19.6,48.2,19.7 M52,15.4L52,15.4C52.9,15.1,52.9,15.1,52,15.4 M59,15.4L59,15.4
			C59.4,15.3,59.4,15.2,59,15.4 M53.5,5.1v0.2c0.4,0,0.4-0.2,0-0.6C53.5,4.9,53.5,5,53.5,5.1 M48.2,4C48.2,4.1,48.2,4.1,48.2,4
			C48.8,4.5,48.7,4.4,48.2,4 M74.3,37.3c0-0.3-0.2-0.6-0.8-0.7c0,0.3,0,0.5,0.1,0.7s0.2,0.3,0.4,0.4c0.1,0.1,0.1,0.1,0.2,0
			C74.2,37.6,74.3,37.5,74.3,37.3 M71.6,30.6c0.1,0,0.1,0.1,0.2,0.1c0.5,0.4,0.5,0.4,0-0.1C71.7,30.6,71.6,30.6,71.6,30.6
			C71.5,30.5,71.6,30.6,71.6,30.6 M74.9,14.7c0.2,0,0.3,0,0.4,0h0.1C75.2,14.7,75,14.6,74.9,14.7L74.9,14.7L74.9,14.7
			C74.8,14.7,74.8,14.7,74.9,14.7 M68.8,25.3C69.2,25.6,69.2,25.5,68.8,25.3C68.8,25.2,68.8,25.3,68.8,25.3 M68.2,25.1v0.1
			c0.2,0.8,0.6,1.5,1.1,2.1v-0.1C69,26.4,68.7,25.7,68.2,25.1 M75.4,11.8L75.4,11.8c-0.3,0.2-0.6,0.3-0.8,0.4c0.1,0.1,0.4,0.1,0.8,0
			h0.1c0.4,0.1,0.5-0.1,0.5-0.4c0,0,0,0-0.1,0c0.1-0.1,0.2-0.2,0.4-0.2c0.1,0,0.2,0,0.2,0c0.2,0,0.2-0.1,0.1-0.2c0,0,0,0-0.1-0.1
			l0,0c0,0,0,0-0.1,0c-0.2-0.1-0.5,0.1-1,0.4C75.4,11.8,75.4,11.8,75.4,11.8C75.5,11.8,75.5,11.8,75.4,11.8 M73.3,32.4L73.3,32.4
			C74.1,33.2,74.1,33.1,73.3,32.4 M72.8,24.9L72.8,24.9C73.7,25.3,73.7,25.3,72.8,24.9 M74,22.6c0.1-0.4,0-0.7-0.3-0.8
			c-0.5-0.3-0.8-0.1-0.9,0.3c-0.1,0.6-0.4,0.8-0.8,0.7v0.1C72.9,23.6,73.6,23.5,74,22.6 M74.9,22.2c0.7,0,0.7-0.1,0-0.2V22.2
			 M75.2,20C75.1,20,75.2,20.1,75.2,20C75.6,20.3,75.6,20.3,75.2,20 M71.6,21v0.2C72.1,21,72.1,20.9,71.6,21 M73.3,12.9L73.3,12.9
			C74.5,12.5,74.5,12.5,73.3,12.9 M72.5,11.8C72.5,11.9,72.5,11.9,72.5,11.8C73,12.2,72.9,12.2,72.5,11.8 M71.1,14.7L71.1,14.7
			l0.1,0.1c0,0,0,0.1-0.1,0.1c0,0,0,0-0.1,0c0.1,1.2,0.6,1.5,1.5,0.7c0.1-0.1,0.1-0.2,0.1-0.4c-0.1-0.4-0.3-0.6-0.8-0.7
			c0-0.1,0-0.1-0.1-0.1c0-0.1-0.1-0.1-0.1-0.1c0-0.1,0-0.1,0-0.1c0.2-0.1,0.3-0.2,0.5-0.3c0,0,0,0,0-0.1c0.3-0.1,0.6-0.3,0.7-0.5
			l0.1-0.2c-0.3-0.1-0.6,0-0.9,0.4c0,0.1,0,0.1,0,0.1c-0.1,0-0.1,0-0.1,0c-0.5,0.3-1,0.7-1.5,1.1C70.6,15.1,70.8,15.1,71.1,14.7
			 M70.3,10.6L70.3,10.6C71.3,10.7,71.4,10.6,70.3,10.6 M72.1,9.4c0-0.1,0-0.1,0-0.1c-0.2-1.7-0.9-2-2-0.9v0.1
			C70.2,9.7,70.9,10,72.1,9.4 M71.5,10.3C72.2,10.3,72.1,10.3,71.5,10.3L71.5,10.3 M56.7,26.5c0,0.2,0,0.4,0.1,0.5
			c0.1,0.4,0.3,0.5,0.6,0.2c0.2-0.2,0.3-0.4,0.3-0.5c0.1-0.3,0-0.4-0.4-0.3C57.2,26.4,57,26.4,56.7,26.5 M56.5,25.4l0.1-0.1
			c-0.2,0.1-0.5,0.3-0.9,0.7c-0.1,0.1-0.2,0.2-0.3,0.3c0,0.1,0,0.1,0,0.1c0.2,0.1,0.5,0,0.7-0.3C56.2,25.8,56.3,25.6,56.5,25.4
			 M57.9,14.9c0,0.1,0,0.2,0,0.2c0.1,0,0.2,0,0.3,0c0.5,0.1,0.5,0-0.1-0.1C58.1,14.9,58,14.9,57.9,14.9 M52.1,10.1
			c0-0.1,0-0.1,0-0.2c-0.1-0.5-0.4-0.9-0.8-1C51.4,9.5,51.6,9.9,52.1,10.1c-0.1,0.1,0,0.1,0,0.1c0.2,0.4,0.4,0.8,0.5,1.2v0.1h-0.1
			c-0.8-1.3-2.1-2.1-4-2.3c0,0.6,0.2,1.1,0.5,1.3l0.1,0.1h0.1c0.3-0.2,0.7-0.4,1.1-0.3c0.4,0,0.7,0.2,1.1,0.5v0.1
			c0.2,0.4,0.4,0.8,0.7,1.1v0.1c0.2,0.2,0.3,0.4,0.5,0.7c0,0,0,0,0.1,0c0,0.1,0,0.3,0.1,0.4c0,0,0,0,0.1,0c0,0.3,0,0.5,0.2,0.6h0.1
			c0,0,0,0,0,0.1s0,0.1,0,0.1v0.1l0,0c0,0.1-0.1,0.2-0.3,0.1v-0.1c-0.3,0-0.6-0.1-0.8-0.3c0,0,0-0.1,0-0.2c0-0.2-0.2-0.3-0.5-0.2
			c-0.1,0.4,0,0.6,0.3,0.5c0.1,0,0.1,0,0.1,0c0.2,0.1,0.3,0.2,0.3,0.4c0,0,0,0,0.1,0c0.2,0.4,0.4,0.7,0.7,0.9h0.1
			c0.1,0.1,0.2,0.3,0.4,0.4c0.1,0.1,0.3,0.1,0.4,0.2h0.1c0.3,0.6,0.8,1.1,1.5,1.4c0.1,0,0.2,0.1,0.2,0.1s0,0,0,0.1
			c-0.1,0.7,0,1.3,0.3,1.7c0,0,0,0.1,0.1,0.1c-0.5,0.9-0.4,1.7,0.2,2.3c0,0,0.1,0.1,0,0.1s-0.1,0-0.1,0c-0.3-0.4-0.6-0.3-0.8,0.3
			c0-0.1,0-0.1,0-0.1c-0.1-0.3-0.2-0.3-0.4-0.1c-0.1,0.2,0,0.4,0.1,0.4h0.1h0.1c0.5,0.3,0.3,0.6-0.5,0.9v0.1c-0.2,0-0.3,0-0.3,0
			c-0.2-1-0.7-1.3-1.6-0.7c0.2,1.5,0.9,1.8,2,0.9v-0.1c0.6-0.2,1-0.5,1.5-0.8c0,0,0.1,0,0.1-0.1h0.1c0.2,0.2,0.4,0.4,0.8,0.4
			c0.1,0,0.1,0,0.1,0h0.1c0,0.1,0,0.2-0.2,0.3c0.1,0.3,0.3,0.2,0.6-0.1c0,0,0,0,0.1,0c0.4,0.5,0.8,0.8,1.1,0.9c0.1,0,0.1,0,0.1,0
			c0,0.7,0.1,1,0.3,0.9c0.1,0,0.1,0,0.1,0v0.1c0,0.4-0.1,0.8-0.3,1.1c0,0.1,0,0.1,0,0.1c0,0.1,0,0.1,0,0.1c0,0.2,0,0.3-0.2,0.3
			c0.1,0.8,0.2,0.7,0.3-0.3V26c0.4-0.2,0.6,0.3,0.5,1.5c0,0,0,0.1,0.1,0.1c0.1,0.1,0.2,0.1,0.2,0c0.1,0,0.1,0,0.1,0
			c0.1,0,0.1,0,0.1,0c0.2,0.2,0.3,0.2,0.4-0.1v-0.1h0.1c0.3,0.7,0.3,1.3-0.2,1.7c0,0.1,0,0.1,0,0.1c-0.1,0-0.1,0-0.1,0
			c-0.3,0.2-0.8,0.1-1.5-0.3c0,0.2,0.1,0.5,0.2,0.6h0.1v0.1c0,0,0,0-0.1,0c0.1,0.5,0.2,0.5,0.4,0.1v-0.1c0.1,0.4,0.3,0.5,0.7,0.3
			c0.4-0.3,0.9-0.4,1.6-0.4c0.6-0.2,1-0.2,1.4,0.1v-0.1c0-0.3-0.2-0.5-0.6-0.5c0-0.1,0-0.1,0-0.1c0-0.1-0.1-0.1-0.2-0.2v-0.1
			c-0.1-0.2-0.2-0.4-0.4-0.6v-0.1c0-0.2,0-0.4,0-0.7c0.1,0,0.2-0.1,0.2-0.2v-0.1c0.6-0.4,1.2-0.2,1.9,0.6c0.5,0.6,1,1.2,1.6,1.7
			c0.1,0.5,0.1,0.9,0.1,1.3v0.1h-0.1c0,0.3-0.1,0.5-0.3,0.5c0.3,0.9,0.5,0.9,0.4-0.3c0-0.1,0-0.1,0-0.1c0.3-0.5,0.5-1.1,0.3-1.9h0.1
			c0.3,0.4,0.6,0.7,0.8,1v-0.1c0.2-0.2,0.3-0.2,0.4,0v0.1h-0.1c0,0.3,0,0.5,0.2,0.6c0,0,0.1,0,0.1,0.1c0.1,0.2,0.2,0.4,0.2,0.7
			c0,0.1,0,0.1,0,0.2c0.2,0.8,0.4,1.2,0.8,1.4v-0.1c0.3-0.7,0.1-1.1-0.5-1.3c-0.1,0-0.1,0-0.1,0c0-0.1,0-0.1,0-0.2
			c-0.1-0.2-0.1-0.4-0.1-0.7c0-0.1,0-0.1,0-0.1c0.2-0.2,0.2-0.4,0-0.6c0-0.1,0-0.1,0-0.1c0-0.1,0-0.1,0-0.1c0.1,0,0.1,0,0.1,0
			c0.5,0.2,0.8,0.5,0.8,0.8c0,0.2,0.1,0.4,0.3,0.6c0.9,0.7,1.7,1.5,2.2,2.4c0.1,0,0.2,0,0.3,0c0.6,0,1.2,0.2,1.8,0.6c0,0,0,0,0.1,0
			c0.3,0.8,0.7,1.6,1.2,2.3c0.1,0.2,0.3,0.4,0.4,0.6c0.1,0.1,0.2,0.2,0.3,0.3c0.3-0.1,0.4-0.4,0.4-0.9c0,0,0,0,0-0.1
			c0-0.2,0-0.4,0-0.6c-0.4-0.9-0.8-1.5-1.4-2l0,0c-0.2,0-0.5,0-0.8-0.2v-0.1c0-0.2-0.2-0.3-0.4-0.3v-0.1c0,0-0.1,0-0.1-0.1v-0.1
			c-0.3-0.4-0.6-0.8-0.9-1.2c0-0.1,0-0.1,0-0.2c-0.2-0.3-0.4-0.5-0.8-0.7v-0.1l0,0c-0.8-0.5-1.4-1.1-2-1.8c0-0.1,0-0.1,0-0.1
			c-1.1-1.6-2.1-3.2-3.3-4.7c0.7-0.2,1.2-0.6,1.6-1v-0.1c0.8-0.3,1.4-0.7,1.8-1.3v-0.1l0.1-0.1h0.1v0.1c0.2,0,0.3,0.1,0.4,0.2
			c0.4,0.2,0.7,0.5,1,0.9c0.1-0.1,0.1-0.1,0.1-0.1c-0.1-0.4-0.5-0.8-1.2-1.1c-0.1,0-0.2-0.1-0.4-0.1c0-0.1,0-0.1,0-0.1
			c0.3-0.4,0.3-0.6,0-0.7v-0.1v-0.1c0.2-0.2,0.2-0.4-0.2-0.7v-0.1c-0.2-0.5-0.5-1-0.7-1.5c0.3,0,0.6,0,0.8,0.1
			c0.4,0.1,0.7,0.2,1.1,0.3h0.1c0.5-0.6,0.3-1.2-0.5-1.6c0,0,0,0,0-0.1s0-0.1,0-0.1c0.4-0.2,0.5-0.3,0.3-0.3c-0.1,0-0.1,0-0.1,0
			c0-0.1,0-0.1,0-0.1c-0.1-0.3-0.2-0.3-0.4,0v0.1v0.1c-0.1,0-0.1,0-0.1,0c-0.2,0-0.3-0.1-0.5-0.1c-0.6-0.1-1.2-0.2-1.9-0.2
			c0.3-0.2,0.6-0.5,0.9-0.8v-0.1h0.1c0.2-0.1,0.5-0.2,0.7-0.3c0.3-0.2,0.6-0.4,0.8-0.6c-0.1,0-0.1,0-0.2,0c-0.2,0.1-0.5,0.2-0.7,0.3
			c-0.3,0.2-0.7,0.3-1,0.5v0.1c-0.1,0-0.1,0-0.1,0c-0.2,0.2-0.4,0.4-0.7,0.5v0.1c-0.4,0.4-0.6,0.3-0.7-0.1l0,0c0-0.5-0.1-0.8-0.4-1
			c1-0.7,1.5-1.8,1.4-3.1v-0.1c0.1,0,0.1,0,0.1,0c0.7-0.8,0.7-0.9-0.1-0.2c0,0.1,0,0.1,0,0.1h-0.1h-0.1c-0.3,0-0.5-0.1-0.5-0.4v-0.1
			c-0.1-0.2-0.2-0.4-0.1-0.7c0.4-0.5,0.8-1,1.1-1.6l0,0c0,0,0,0,0.1,0c0-0.6,0.1-1,0.4-1.3c0,0,0,0,0.1,0C69,7.8,69,7.7,69.1,7.5
			c0-0.1,0-0.2,0-0.3c0-0.1,0-0.1,0-0.1C69.6,6.6,70,6,70.2,5.2V5.1h0.1c0.1-0.5,0.1-0.8-0.1-1.1c-0.4,0.1-0.7,0.4-0.8,0.9
			C69.3,5.2,69.2,5.6,69,6c-0.4,0.7-0.7,1.3-0.9,2.1c-0.4,1.1-0.8,1.8-1.4,2.3h-0.1c-0.6,1.3-1.4,2.4-2.4,3.4c0,0.1,0,0.1,0,0.1
			c0,0.9-0.3,1.1-0.8,0.7h-0.1c-0.1-1-0.6-1.8-1.6-2.3c-0.1,0-0.1,0-0.1,0c-0.3,0.5-0.1,0.8,0.5,0.9c-0.4,0.3-0.7,0.7-0.8,1.3
			C61.2,14.9,61.1,15,61,15c-0.4,0-0.9,0-1.3-0.1V15h-0.1c-0.1-0.2-0.4-0.3-0.6-0.4c0.1,0.2,0.3,0.4,0.5,0.5h0.1
			c0,0.2,0.1,0.3,0.2,0.4c0.1,0.1,0.2,0.2,0.2,0.3c-0.1,0.9-0.8,1.5-2.1,1.8c0-0.1,0-0.1,0-0.1c0.1-0.4,0.1-0.8,0-1.2
			c-0.2-0.4-0.5-0.8-1.1-1.1c0-0.1,0-0.1,0-0.1c-0.2-0.5-0.4-1-0.5-1.5c0,0,0-0.1,0-0.2c-0.1-0.3-0.2-0.6-0.4-0.9v-0.1
			c0-0.4-0.2-0.7-0.8-0.8v-0.1c-0.2-0.1-0.4-0.2-0.6-0.3c0,0.4,0.2,0.6,0.5,0.6h0.1c0.2,0.2,0.4,0.5,0.6,0.7v0.1
			c0,0.5,0.2,0.9,0.3,1.3c0,0,0,0,0.1,0c0,0.5,0.2,1,0.4,1.3c0,0,0,0.1,0.1,0.1v0.1c0,0.3-0.2,0.4-0.5,0.3c-0.1,0-0.1,0-0.1,0
			c-0.2-0.2-0.4-0.3-0.5-0.5c0-0.1,0-0.1-0.1-0.1c-0.2-0.2-0.3-0.5-0.5-0.7c0-0.1,0-0.1,0-0.1c-0.2-0.1-0.3-0.3-0.3-0.6v-0.1
			c-0.2-0.4-0.5-0.8-0.8-1.1v-0.1c0-0.1-0.1-0.2-0.3-0.3V12c-0.1-0.2-0.3-0.4-0.5-0.6v-0.1C52.7,10.9,52.4,10.5,52.1,10.1
			 M55.9,33.5C56.2,33.9,56.2,33.9,55.9,33.5L55.9,33.5 M55.8,28c0.1,0.3,0.2,0.2,0.4-0.3S56.3,27.3,55.8,28 M56.8,28.3
			c0,0.1,0,0.1,0,0.1C57.2,28.6,57.2,28.6,56.8,28.3 M56.1,31.1L56.1,31.1C56.7,30.7,56.7,30.7,56.1,31.1 M57.1,30.6L57.1,30.6
			C57.5,30.9,57.5,30.9,57.1,30.6 M53.7,31.6L53.7,31.6C54.2,31.9,54.2,31.9,53.7,31.6 M53.3,29.1C53.7,29.3,53.7,29.3,53.3,29.1
			L53.3,29.1 M54.4,27L54.4,27C55.1,26.8,55.1,26.8,54.4,27 M44.8,11.5l0.1,0.2C45.5,11.6,45.5,11.6,44.8,11.5 M47.6,9.5
			c0,0.3,0.1,0.4,0.4,0.4C48.7,9.9,48.6,9.7,47.6,9.5 M47.1,10.4c0.6,0,0.5-0.1-0.3-0.4C46.9,10.3,47,10.4,47.1,10.4 M47.1,9.4
			c0.7-0.1,0.6-0.2-0.3-0.4C46.8,9.3,46.9,9.4,47.1,9.4 M57.2,13C57.2,13,57.2,13.1,57.2,13C58.3,13.8,58.3,13.7,57.2,13 M52.8,7.4
			L52.8,7.4C53.3,7.8,53.3,7.8,52.8,7.4z"/>
		<g>
			<path class="st2" d="M89.7,25.7c0-0.5-0.1-1-0.2-1.4c-0.1-0.7-0.3-1.4-0.3-2c0-1.1-0.4-1.8-1.4-2.4c-0.3-0.2-0.7-0.4-0.9-0.6
				l-0.1-0.1c-0.3-0.4-0.7-0.7-0.8-1.1c-0.2-0.6-0.2-1.2-0.3-1.8c0-0.2,0-0.3-0.1-0.5c0-0.1,0-0.2,0.1-0.3v-0.1
				c0.8-0.2,1.3,0,1.9,0.1c0.1,0,0.2,0,0.3,0.1c0,0.2,0,0.4,0,0.7c0,0.6,0,1.4,0.6,1.7c0.1,0.1,0.3,0.1,0.4,0
				c0.6-0.4,0.5-1.1,0.4-1.7c0-0.2-0.1-0.3-0.1-0.5c-0.1-1.7-0.5-1.8-2.8-1.8c-0.9,0-1.7,0.3-2.1,0.8c-0.2,0.3-0.4,0.7-0.3,1v0.5
				c0,0.5,0.1,1.1,0.1,1.6c0,1.5,0.7,2.5,2.2,3.1c1.4,0.6,1.6,1.4,1.5,2.1c0,0.5,0,0.9,0.1,1.3c0,0.3,0.1,0.5,0.1,0.8
				c0,0.5,0,1,0,1.5c0,0.2,0,0.3,0,0.5c-0.8,0.2-1.3,0.2-1.5,0c-0.1-0.1-0.2-0.4-0.2-0.8c0-1.1,0-2.3,0-3.4v-0.8
				c0-0.1,0.1-0.3,0-0.4s-0.3-0.2-0.5-0.2l0,0c-0.5,0-0.6,0.5-0.7,0.7v0.1C85,22.6,85,22.8,84.9,23c-0.2,0.6-0.5,1.2-0.3,1.7
				c0.2,0.7,0.2,1.4,0.3,2.1c0,0.3,0,0.6,0.1,0.8c0,0.4,0.4,0.8,0.7,1c0.3,0.2,0.7,0.3,1.2,0.3c0.7,0,1.5-0.2,2-0.4
				c0.4-0.2,0.6-0.4,0.6-0.7c0-0.2,0-0.3,0.1-0.5C89.6,26.7,89.7,26.2,89.7,25.7z M81.6,14.2c-0.7-0.4-1.3,0.2-1.5,0.8
				c-0.3,1.2-0.6,2.4-0.7,3.5c0,2-0.8,3.9-1.2,6.1c-1-1.6-0.8-3.2-1.1-4.6c-0.8,0.1-1.1,0.5-1.2,1.1c-0.4,1.4-0.8,2.8-1.3,4.5
				c-0.1-0.6-0.1-0.9-0.1-1.2c-0.2-2.9-0.4-5.1-0.4-7.6c0-0.7-0.1-2.9-1-2.7c-0.4,0.1-0.4,0.6-0.5,0.9c-0.1,0.6,0.1,1.9,0.1,2.5
				c0.2,3.4,0.3,6.8,0.6,10.2c0,0.4,0.2,0.7,0.7,0.7c0.9,0,1.3-2.4,2-4c0.2,0.4,0.2,0.5,0.3,0.7c0.4,0.8,0.7,1.9,1.1,2.7
				c0.5,0.9,1.2,0.8,1.7-0.1c0.1-0.2,0.1-0.3,0.2-0.5c0.3-1.6,0.6-3.5,0.9-5.1s0.8-3.2,1.1-4.8C81.5,16.3,82.1,14.5,81.6,14.2z
				 M70.3,27h-3.1v-0.1c0-0.1,0-0.2-0.1-0.3C67,25.4,67,24.2,66.9,23l-0.1-1c0.1,0,0.2-0.1,0.3-0.1c0.2-0.1,0.5-0.2,0.7-0.3
				c0.5-0.2,0.8-0.6,0.8-1.2v-0.1h-1.8V16c1.5-0.1,2.1-0.6,2.3-1.7v-0.1H69l0,0l-0.2-0.1c-1,0.1-1.7,0-2.4-0.3
				c-0.2-0.1-0.5-0.1-0.8,0.2c-0.3,0.2-0.6,0.7-0.6,1.1c0,0.1,0,0.3,0.1,0.4c0.1,0.5,0.2,1,0.2,1.6c0,0.4,0,0.8-0.1,1.2
				c0,0.2,0,0.4-0.1,0.6c0,0.1,0,0.2,0,0.4c0,0.2,0,0.5-0.1,0.7c-0.3,1.1-0.2,1.9,0,2.7c0,0.1,0,0.3,0,0.5v0.1c0,1.3,0,2.7,0.1,4
				c0,0.6,0.2,1,0.6,1.3c0.2,0.2,0.5,0.2,0.8,0.2c0.2,0,0.5,0,0.7-0.1c0.3-0.1,0.7-0.2,1.1-0.2h0.2c0.1,0,0.3,0,0.4,0s0.3,0,0.4,0
				c0.7-0.1,0.9-0.4,0.9-1.2L70.3,27z M61.2,14.1c-0.9,0-0.9,2-1,3c-0.1,1.1-0.2,2.1-0.2,3.2c-0.1,1-0.1,1.9-0.2,2.9
				c-0.7-1.5-1.1-3-1.5-4.5c-0.1-0.2-0.2-0.4-0.3-0.6c-0.3-0.8-0.6-1.7-1-2.5c-0.2-0.4-0.2-1.1-0.7-1.2c-1-0.2-1.1,1.2-1.1,2
				c0,1,0,1.7-0.1,2.9c-0.1,2.8-0.4,5.7-0.3,8.5c0,0.3,0,0.5,0.3,0.6c0.1,0.1,0.6,0,0.6-0.1c0.7-3.1,0.7-4.4,1.2-6.7
				c0.2,0.3,0.3,0.5,0.4,0.8c0.7,1.6,1.3,3.3,2,4.9c0.3,0.6,0.5,1.4,1.4,1.3c1.1-0.2,0.9-2,0.9-3.1c0.1-1.8,0.2-3.6,0.2-5.4
				c0.1-1.6,0.1-3.2,0.1-4.7C62.1,14.5,62,14.1,61.2,14.1z"/>
		</g>
		<g>
			<path class="st2" d="M9.5,23.1c-0.6,0.5-1.2,1-1.7,1.4c-0.5,0.4-1,0.7-1.2,1.2c-0.5,1-0.4,2,0.3,2.8c1.2,1.4,2.4,2.8,3.7,4.2
				c1.8,1.9,3.6,3.7,5.4,5.5c1.6,1.6,3.3,3,5,4.5c0.7,0.6,1.4,1.2,2.3,1.4c0.3,0.1,0.6,0.1,0.9,0.2c0.2,0.1,0.4,0.1,0.7,0
				c0.2-0.1,0.5-0.3,0.7-0.4c3.6-2,7-4.3,10.3-6.7c2.7-2,5.2-4.2,7.6-6.4c0.5-0.5,1-1,1.5-1.5c0.8-0.8,1.1-1.7,1.2-2.8
				c0.1-1,0-1.9-0.5-2.7c-1-1.7-1.9-3.5-2.9-5.3c-0.5-0.9-1.2-1.9-1.8-2.8c-0.5-0.8-1.1-1.6-1.7-2.4c-0.5-0.7-1-1.3-1.5-1.9
				c-0.5-0.7-1.1-1.3-1.6-2c-1.1-1.2-2.2-2.5-3.3-3.7c-0.5-0.5-1.2-0.8-1.9-0.8c-0.3,0-0.6,0-0.9,0.1c-0.2,0.1-0.5,0.2-0.7,0.3
				c0.1,0.2,0.2,0.3,0.2,0.5c0,0,0,0-0.1,0c-0.1-0.1-0.2-0.2-0.3-0.4c-0.1,0-0.2,0.1-0.2,0.1c-0.5,0.3-1,0.6-1.5,1
				c-1.3,0.8-2.6,1.6-3.9,2.5c-1,0.7-2,1.3-3,2c-1.1,0.8-2.2,1.5-3.2,2.3c-0.9,0.6-1.7,1.3-2.6,1.9c-1,0.7-1.9,1.4-2.8,2.1
				c-0.7,0.5-1.3,1-2,1.5c-0.4,0.3-0.7,0.6-0.9,1C8.6,21.1,8.8,22.1,9.5,23.1z"/>
			<path d="M9.5,23.1c-0.6-1-0.8-2-0.3-3.1c0.2-0.4,0.5-0.8,0.9-1c0.7-0.5,1.3-1,2-1.5c0.9-0.7,1.9-1.4,2.8-2.1
				c0.9-0.6,1.7-1.3,2.6-1.9c1.1-0.8,2.1-1.5,3.2-2.3c1-0.7,2-1.4,3-2c1.3-0.8,2.6-1.7,3.9-2.5c0.5-0.3,1-0.6,1.5-1
				c0.1,0,0.2-0.1,0.2-0.1c0.1,0.1,0.2,0.3,0.3,0.4c0,0,0,0,0.1,0c-0.1-0.1-0.1-0.3-0.2-0.5c0.2-0.1,0.4-0.2,0.7-0.3
				c0.3-0.1,0.6-0.1,0.9-0.1c0.7,0,1.4,0.3,1.9,0.8c1.1,1.2,2.2,2.4,3.3,3.7c0.6,0.6,1.1,1.3,1.6,2c0.5,0.6,1,1.3,1.5,1.9
				c0.6,0.8,1.2,1.6,1.7,2.4c0.6,0.9,1.2,1.8,1.8,2.8c1,1.7,1.9,3.5,2.9,5.3c0.5,0.8,0.6,1.7,0.5,2.7c-0.1,1.1-0.5,2-1.2,2.8
				c-0.5,0.5-1,1-1.5,1.5c-2.4,2.3-5,4.4-7.6,6.4c-3.3,2.5-6.7,4.7-10.3,6.7c-0.2,0.1-0.5,0.3-0.7,0.4c-0.2,0.1-0.4,0.1-0.7,0
				c-0.3-0.1-0.6-0.1-0.9-0.2c-0.9-0.3-1.6-0.8-2.3-1.4c-1.7-1.5-3.4-3-5-4.5c-1.9-1.8-3.6-3.6-5.4-5.5c-1.3-1.3-2.5-2.8-3.7-4.2
				c-0.7-0.9-0.8-1.8-0.3-2.8c0.3-0.5,0.8-0.9,1.2-1.2C8.3,24.1,8.9,23.6,9.5,23.1z M24.8,43c0.1,0,0.1,0,0.2-0.1
				c0.8-0.4,1.6-0.9,2.3-1.3c1.8-1.1,3.6-2.3,5.3-3.5c1.6-1.1,3.2-2.4,4.8-3.6c1.2-1,2.4-2,3.5-3c1.1-1,2.2-2,3.2-3.1
				c1-1,1.3-2.5,0.6-3.8c-0.9-2-2-3.9-3.1-5.7c-1-1.5-1.9-3-2.9-4.4c-1.1-1.6-2.4-3.1-3.6-4.5c-0.9-1.1-1.9-2.1-2.9-3.2
				c-0.6-0.6-1.5-0.8-2.3-0.2c-0.5,0.3-1,0.6-1.5,0.9c-1.6,1-3.2,2.1-4.8,3.1c-1.8,1.2-3.6,2.5-5.3,3.7c-1.4,1-2.8,2-4.2,3
				c-1.2,0.9-2.3,1.7-3.4,2.6c-0.8,0.6-0.9,1.7-0.2,2.4c0.3,0.3,0.6,0.7,0.9,1c1.1,1.2,2.1,2.3,3.1,3.6c1.3,1.6,2.6,3.3,3.8,5
				c1.2,1.7,2.3,3.5,3.4,5.3c0.8,1.4,1.5,2.9,2.3,4.3C24.3,42.1,24.6,42.5,24.8,43z M11.8,25.5c-0.5-0.5-0.9-1-1.4-1.6
				c-0.8,0.7-1.6,1.3-2.3,2c-0.7,0.6-0.6,1.4-0.1,2c0.5,0.6,1,1.2,1.5,1.8c1.7,1.9,3.5,3.8,5.2,5.7c2.3,2.4,4.9,4.7,7.4,6.9
				c0.4,0.3,0.8,0.6,1.3,0.8c-1-2.1-2-4-3.2-6c-0.2,0.2-0.4,0.5-0.6,0.7C19.4,38,19,38.1,18.7,38c-0.3-0.2-0.4-0.6-0.2-0.8
				c0.3-0.4,0.6-0.8,1-1.2c-0.1-0.2-0.3-0.5-0.5-0.8c-0.4,0.3-0.8,0.6-1.2,0.9c-0.3,0.2-0.7,0.1-0.9-0.2c-0.1-0.2,0-0.6,0.3-0.8
				c0.2-0.1,0.4-0.3,0.5-0.4c0.2-0.2,0.4-0.4,0.7-0.6c-0.1-0.2-0.2-0.3-0.3-0.4c-0.2-0.3-0.2-0.3-0.4-0.1c-0.4,0.3-0.7,0.7-1.1,1
				c-0.2,0.2-0.5,0.2-0.8,0c-0.2-0.2-0.3-0.5-0.1-0.8c0.3-0.3,0.6-0.7,1-1c0.2-0.2,0.4-0.3,0.6-0.4c-0.2-0.2-0.3-0.5-0.5-0.7
				c-0.1,0-0.1,0.1-0.2,0.1c-0.4,0.4-0.9,0.7-1.3,1.1c-0.3,0.2-0.6,0.3-0.9,0.1c-0.2-0.2-0.2-0.5,0-0.8c0.2-0.2,0.5-0.5,0.7-0.7
				c0.3-0.3,0.6-0.5,0.9-0.8c-0.2-0.3-0.5-0.6-0.7-0.9c-0.4,0.3-0.7,0.6-1.1,0.9c-0.2,0.2-0.4,0.4-0.6,0.6c-0.3,0.2-0.6,0.2-0.8,0
				c-0.2-0.3-0.2-0.6,0.1-0.8c0.1-0.1,0.2-0.2,0.3-0.3c0.4-0.4,0.9-0.8,1.4-1.2c-0.2-0.2-0.3-0.4-0.5-0.6c-0.8,0.4-1.5,0.9-2.1,1.6
				c-0.2,0.2-0.6,0.2-0.8,0c-0.2-0.2-0.2-0.5,0-0.8c0.4-0.4,0.9-0.8,1.3-1.1c0.3-0.2,0.6-0.4,0.9-0.6c-0.3-0.3-0.5-0.6-0.8-0.9
				c-0.7,0.5-1.4,0.9-1.9,1.5c-0.2,0.3-0.7,0.2-0.9-0.1c-0.2-0.3-0.1-0.5,0.2-0.8C10.6,26.5,11.2,26,11.8,25.5z"/>
			<path class="st2" d="M24.8,43c-0.2-0.5-0.5-0.9-0.7-1.4c-0.8-1.4-1.5-2.9-2.3-4.3c-1.1-1.8-2.2-3.6-3.4-5.3
				c-1.2-1.7-2.5-3.4-3.8-5c-1-1.2-2.1-2.4-3.1-3.6c-0.3-0.3-0.6-0.7-0.9-1c-0.7-0.7-0.5-1.8,0.2-2.4c1.1-0.9,2.3-1.8,3.4-2.6
				c1.4-1,2.8-2,4.2-3c1.8-1.3,3.5-2.5,5.3-3.7c1.6-1.1,3.2-2.1,4.8-3.1c0.5-0.3,1-0.6,1.5-0.9c0.8-0.5,1.7-0.4,2.3,0.2
				c1,1.1,2,2.1,2.9,3.2c1.2,1.5,2.5,3,3.6,4.5c1,1.4,2,2.9,2.9,4.4c1.2,1.8,2.2,3.7,3.1,5.7c0.6,1.3,0.4,2.8-0.6,3.8
				c-1,1.1-2.1,2.1-3.2,3.1c-1.1,1-2.3,2-3.5,3c-1.6,1.2-3.2,2.5-4.8,3.6c-1.7,1.2-3.5,2.3-5.3,3.5c-0.7,0.5-1.5,0.9-2.3,1.3
				C24.9,43,24.9,43,24.8,43z M28.1,20.4C28.1,20.4,28.1,20.4,28.1,20.4c-0.1,0-0.2-0.1-0.2-0.2c-0.6-1-1.3-2-1.9-2.9
				c-0.7-0.9-1.4-1.7-2.1-2.5c-0.2-0.3-0.5-0.3-0.8,0c-0.2,0.2-0.2,0.6,0,0.8c0.8,1,1.7,2,2.4,3c0.6,0.8,1.1,1.7,1.6,2.5
				c0.4,0.7,0.7,1.4,1.1,2c0.2,0.4,0.6,0.5,0.9,0.3c1-0.7,2-1.3,3.1-2c1.3-0.8,2.5-1.7,3.7-2.6c0.4-0.3,0.8-0.6,1.1-0.9
				c0.2-0.1,0.3-0.4,0.1-0.6c-0.2-0.5-0.6-0.5-1-0.2c-0.7,0.5-1.4,1-2.1,1.5c-1.1,0.8-2.2,1.5-3.3,2.3c-0.4,0.3-0.9,0.6-1.4,0.9
				c-0.1-1.9-0.2-3.7-0.2-5.5c0.3,0.1,0.5,0.1,0.8,0.2c0.7,0.1,1.4,0.2,2.1,0.3c0.5,0.1,0.8-0.3,0.7-0.8c-0.1-0.4-0.2-0.9-0.2-1.3
				c-0.1-0.5-0.2-0.9-0.3-1.4c-0.1-0.5-0.2-1-0.4-1.6c0.3,0.2,0.5,0.4,0.8,0.5c0.1,0.1,0.3,0.1,0.5,0.1c0.3,0,0.4-0.3,0.5-0.5
				c0-0.2-0.1-0.4-0.3-0.6c-0.5-0.4-1-0.7-1.5-1.1c-0.2-0.2-0.5-0.3-0.8-0.3c-0.4-0.1-0.9,0.4-1,0.8c-0.1,0.4-0.3,0.8-0.4,1.1
				c-0.1,0.4-0.3,0.9-0.3,1.3c0,0.3,0.3,0.6,0.5,0.6c0.3,0,0.6-0.2,0.7-0.6c0-0.3,0.1-0.6,0.2-0.9c0,0,0.1,0,0.1,0
				c0.2,1.1,0.5,2.3,0.7,3.5c-0.2,0-0.3-0.1-0.4-0.1c-0.8-0.2-1.6-0.3-2.3-0.5C28.4,14.8,28,15,28,15.3c0,0.2,0,0.4,0,0.7
				c0,1,0.1,2.1,0.1,3.1c0,0.2,0,0.4,0,0.6C28.1,19.9,28.1,20.2,28.1,20.4z M21.7,32.2c0,0.2,0.1,0.4,0.3,0.5c0.2,0.1,0.4,0.1,0.6,0
				c1.1-0.7,2.1-1.5,3.2-2.2c0.9-0.6,1.7-1.2,2.6-1.8c0.8-0.6,1.7-1.2,2.5-1.8c0.9-0.6,1.7-1.2,2.6-1.9c0.8-0.6,1.5-1.1,2.3-1.7
				c0.9-0.7,1.9-1.4,2.8-2.1c0.3-0.2,0.3-0.6,0.2-0.8c-0.2-0.3-0.6-0.3-0.9-0.1c-0.5,0.4-1,0.7-1.5,1.1c-0.8,0.6-1.5,1.1-2.3,1.7
				c-1,0.7-2.1,1.5-3.1,2.2c-1.1,0.8-2.1,1.5-3.2,2.3c-1,0.7-2.1,1.5-3.2,2.2c-0.9,0.6-1.8,1.3-2.7,1.9
				C21.8,31.8,21.7,31.9,21.7,32.2z M26.1,22.1c0-0.5-0.5-0.8-0.9-0.5c-1.3,0.9-2.7,1.7-3.9,2.6c-1.2,0.9-2.4,1.9-3.6,2.8
				c-0.2,0.1-0.3,0.3-0.2,0.6c0.1,0.4,0.6,0.6,1,0.3c0.5-0.4,1-0.9,1.5-1.3c0.9-0.7,1.9-1.5,2.9-2.1c1-0.7,2-1.3,3-1.9
				C26,22.5,26.1,22.4,26.1,22.1z M24,19.6c-0.1,0-0.2,0-0.3,0.1c-0.3,0.2-0.6,0.4-0.9,0.6c-0.8,0.6-1.5,1.1-2.3,1.7
				c-1.4,1-2.8,2-4.1,3c-0.2,0.2-0.3,0.4-0.3,0.7c0,0.2,0.2,0.3,0.4,0.4c0.3,0.1,0.5-0.1,0.7-0.2c0.6-0.4,1.2-0.9,1.8-1.3
				c0.8-0.6,1.5-1.1,2.3-1.7c0.6-0.4,1.1-0.8,1.7-1.2c0.5-0.4,1-0.7,1.5-1.1c0.2-0.2,0.3-0.4,0.1-0.6C24.5,19.7,24.3,19.6,24,19.6z
				 M19.2,29.2c0,0.3,0.1,0.4,0.4,0.5c0.3,0.1,0.5,0.1,0.7-0.1c0.8-0.7,1.6-1.3,2.4-2c0.7-0.5,1.4-1.1,2.1-1.6
				c0.8-0.6,1.7-1.1,2.5-1.7c0.4-0.3,0.3-0.8,0-1c-0.3-0.2-0.6,0-0.8,0.1c-1.1,0.7-2.1,1.4-3.2,2.1c-0.7,0.5-1.3,1-2,1.5
				c-0.6,0.5-1.3,1.1-1.9,1.6C19.3,28.8,19.3,29,19.2,29.2z M22.4,18.6c0-0.3-0.1-0.5-0.4-0.6c-0.2-0.1-0.4-0.1-0.6,0.1
				c-0.1,0.1-0.3,0.2-0.4,0.3c-0.7,0.5-1.5,1.1-2.2,1.6c-0.6,0.4-1.2,0.9-1.7,1.4c-0.8,0.7-1.6,1.3-2.4,2c-0.1,0.1-0.2,0.2-0.2,0.3
				c0,0.3,0.1,0.5,0.4,0.6c0.3,0.1,0.4,0,0.6-0.2c0.4-0.4,0.8-0.7,1.2-1.1c0.8-0.6,1.5-1.2,2.3-1.8c0.7-0.5,1.3-1,2-1.5
				c0.4-0.3,0.8-0.6,1.2-0.9C22.3,18.8,22.4,18.7,22.4,18.6z M21.3,16.8c0-0.2-0.1-0.4-0.3-0.5c-0.2-0.1-0.4-0.1-0.6,0
				c0,0-0.1,0.1-0.2,0.1c-1.3,0.8-2.6,1.6-3.8,2.5c-1.1,0.8-2.1,1.7-3.1,2.5c-0.3,0.2-0.3,0.5-0.1,0.7c0.2,0.2,0.5,0.3,0.8,0.1
				c0.4-0.3,0.8-0.7,1.1-1c0.7-0.6,1.4-1.2,2.1-1.7c1.2-0.8,2.4-1.5,3.6-2.3C21.1,17.2,21.3,17,21.3,16.8z M30.9,33.8
				c0-0.5-0.4-0.8-0.8-0.6c-0.9,0.5-1.8,1-2.6,1.5c-0.9,0.6-1.7,1.2-2.5,1.8c-0.3,0.2-0.4,0.6-0.2,0.8c0.2,0.3,0.5,0.4,0.9,0.1
				c0.4-0.3,0.7-0.5,1.1-0.8c1.2-0.8,2.4-1.6,3.8-2.3C30.7,34.3,30.9,34.1,30.9,33.8z M26.1,39.9c0.1,0,0.2-0.1,0.3-0.1
				c0.5-0.4,1.1-0.9,1.6-1.2c1.1-0.7,2.2-1.4,3.3-2.1c0.3-0.2,0.4-0.5,0.3-0.9c-0.2-0.3-0.5-0.4-0.8-0.2c-0.4,0.2-0.9,0.5-1.3,0.7
				c-0.9,0.6-1.9,1.3-2.8,1.9c-0.3,0.2-0.7,0.5-1,0.8c-0.2,0.2-0.3,0.4-0.2,0.6C25.6,39.8,25.8,40,26.1,39.9z M24.4,35.6
				c0.2-0.1,0.3-0.2,0.5-0.3c1.2-0.8,2.4-1.6,3.6-2.4c0.3-0.2,0.7-0.4,1-0.7c0.2-0.2,0.2-0.5,0.1-0.8c-0.1-0.2-0.5-0.3-0.7-0.2
				c-0.4,0.3-0.9,0.5-1.3,0.8c-1.1,0.8-2.2,1.5-3.4,2.3c-0.3,0.2-0.4,0.5-0.3,0.7C23.9,35.5,24.1,35.6,24.4,35.6z M31.6,32
				c0.1,0.2,0.1,0.3,0.2,0.4c0.3,0.3,0.6,0.3,0.9,0c0.4-0.4,0.7-0.8,1.2-1c0.7-0.5,1.5-0.9,2.3-1.4c0.1-0.1,0.3-0.2,0.4-0.3
				c0.2-0.2,0.1-0.5-0.1-0.7c-0.2-0.2-0.5-0.2-0.8-0.1c-1.4,0.7-2.7,1.6-3.8,2.7C31.7,31.7,31.6,31.9,31.6,32z M37.6,31.1
				c-0.1-0.1-0.1-0.3-0.3-0.4c-0.2-0.1-0.5,0-0.7,0.1c-0.3,0.1-0.6,0.4-0.9,0.6c-0.6,0.4-1.2,0.9-1.7,1.4c-0.4,0.3-0.7,0.6-1.1,0.9
				c-0.2,0.2-0.2,0.6-0.1,0.8c0.2,0.3,0.5,0.3,0.8,0c0.1-0.1,0.2-0.2,0.3-0.3c0.6-0.5,1.1-1,1.7-1.4c0.5-0.4,1-0.7,1.4-1
				C37.4,31.6,37.6,31.5,37.6,31.1z M34.7,26.8c-0.1,0-0.3,0.1-0.4,0.1c-0.7,0.4-1.5,0.9-2.2,1.3c-0.5,0.4-1,0.8-1.6,1.2
				c-0.2,0.2-0.2,0.5,0,0.7c0.3,0.3,0.6,0.3,0.8,0.1c0.4-0.3,0.7-0.6,1.1-0.9c0.8-0.5,1.7-1.1,2.5-1.6c0.3-0.2,0.4-0.3,0.3-0.6
				C35.2,27,35.1,26.9,34.7,26.8z M37.4,27.7c0,0.3,0,0.5,0.3,0.6c0.3,0.1,0.5,0.1,0.7-0.1c0.2-0.2,0.4-0.4,0.6-0.5
				c0.6-0.5,1.3-1,1.9-1.4c0.2-0.2,0.5-0.3,0.7-0.5c0.2-0.2,0.2-0.5,0-0.8c-0.2-0.2-0.5-0.3-0.8-0.1c-1,0.7-2.1,1.5-3.1,2.3
				C37.7,27.2,37.4,27.4,37.4,27.7z M42.9,27.2c0-0.5-0.5-0.8-0.9-0.5c-0.4,0.3-0.9,0.6-1.3,0.9c-0.7,0.5-1.3,1.1-2,1.6
				c-0.3,0.3-0.3,0.6-0.2,0.8c0.2,0.3,0.6,0.3,0.9,0.1c0.2-0.2,0.4-0.4,0.6-0.5c0.9-0.6,1.7-1.2,2.6-1.9
				C42.8,27.6,43,27.5,42.9,27.2z M37.1,26.3C37.1,26.3,37.1,26.3,37.1,26.3c0.2-0.1,0.4-0.2,0.6-0.3c0.9-0.7,1.7-1.3,2.6-2
				c0.3-0.2,0.4-0.5,0.2-0.7c-0.1-0.2-0.4-0.4-0.7-0.3c-0.1,0-0.2,0.1-0.3,0.2c-0.4,0.3-0.8,0.6-1.2,0.9c-0.5,0.4-1.1,0.8-1.6,1.2
				c-0.2,0.2-0.2,0.4-0.2,0.6C36.6,26.1,36.8,26.3,37.1,26.3z"/>
			<path class="st2" d="M11.8,25.5c-0.6,0.5-1.2,1-1.8,1.5c-0.3,0.3-0.3,0.5-0.2,0.8c0.2,0.3,0.7,0.4,0.9,0.1
				c0.5-0.6,1.2-1.1,1.9-1.5c0.2,0.3,0.5,0.6,0.8,0.9c-0.3,0.2-0.6,0.4-0.9,0.6c-0.5,0.4-0.9,0.7-1.3,1.1c-0.3,0.2-0.2,0.5,0,0.8
				c0.2,0.2,0.6,0.2,0.8,0c0.6-0.6,1.3-1.1,2.1-1.6c0.2,0.2,0.4,0.4,0.5,0.6c-0.5,0.4-0.9,0.8-1.4,1.2c-0.1,0.1-0.2,0.2-0.3,0.3
				c-0.3,0.2-0.3,0.6-0.1,0.8c0.2,0.2,0.6,0.3,0.8,0c0.2-0.2,0.4-0.4,0.6-0.6c0.3-0.3,0.7-0.6,1.1-0.9c0.2,0.3,0.5,0.6,0.7,0.9
				c-0.3,0.3-0.6,0.5-0.9,0.8c-0.2,0.2-0.5,0.4-0.7,0.7c-0.3,0.3-0.2,0.6,0,0.8c0.2,0.2,0.6,0.2,0.9-0.1c0.4-0.4,0.8-0.7,1.3-1.1
				c0.1,0,0.1-0.1,0.2-0.1c0.2,0.2,0.3,0.4,0.5,0.7c-0.2,0.2-0.4,0.3-0.6,0.4c-0.3,0.3-0.7,0.6-1,1c-0.2,0.2-0.1,0.6,0.1,0.8
				c0.2,0.2,0.5,0.2,0.8,0c0.4-0.3,0.7-0.7,1.1-1c0.2-0.2,0.2-0.2,0.4,0.1c0.1,0.1,0.2,0.3,0.3,0.4c-0.2,0.2-0.4,0.4-0.7,0.6
				c-0.2,0.1-0.4,0.3-0.5,0.4c-0.3,0.2-0.4,0.6-0.3,0.8c0.2,0.3,0.6,0.4,0.9,0.2c0.4-0.3,0.8-0.6,1.2-0.9c0.2,0.3,0.4,0.6,0.5,0.8
				c-0.3,0.4-0.7,0.8-1,1.2c-0.2,0.3-0.1,0.7,0.2,0.8c0.3,0.2,0.6,0.1,0.9-0.2c0.2-0.2,0.4-0.4,0.6-0.7c1.2,1.9,2.2,3.9,3.2,6
				c-0.5-0.2-0.9-0.5-1.3-0.8c-2.6-2.2-5.1-4.4-7.4-6.9c-1.8-1.9-3.5-3.8-5.2-5.7c-0.5-0.6-1-1.2-1.5-1.8c-0.5-0.6-0.6-1.4,0.1-2
				c0.8-0.6,1.5-1.3,2.3-2C10.8,24.5,11.3,25,11.8,25.5z"/>
			<path d="M28.1,20.4c0-0.2,0-0.5-0.1-0.7c0-0.2,0-0.4,0-0.6c0-1-0.1-2.1-0.1-3.1c0-0.2,0-0.4,0-0.7c0-0.4,0.4-0.5,0.8-0.4
				c0.8,0.2,1.6,0.3,2.3,0.5c0.1,0,0.2,0.1,0.4,0.1c-0.2-1.2-0.5-2.4-0.7-3.5c0,0-0.1,0-0.1,0c-0.1,0.3-0.2,0.6-0.2,0.9
				c0,0.3-0.3,0.6-0.7,0.6c-0.3,0-0.6-0.3-0.5-0.6c0.1-0.4,0.2-0.9,0.3-1.3c0.1-0.4,0.3-0.8,0.4-1.1c0.1-0.4,0.6-0.8,1-0.8
				c0.3,0,0.6,0.2,0.8,0.3c0.5,0.3,1,0.7,1.5,1.1c0.2,0.1,0.3,0.4,0.3,0.6c0,0.2-0.2,0.5-0.5,0.5c-0.2,0-0.3,0-0.5-0.1
				c-0.3-0.1-0.5-0.3-0.8-0.5c0.1,0.6,0.3,1.1,0.4,1.6c0.1,0.5,0.2,0.9,0.3,1.4c0.1,0.4,0.2,0.9,0.2,1.3c0.1,0.6-0.2,0.9-0.7,0.8
				c-0.7-0.1-1.4-0.2-2.1-0.3c-0.3,0-0.5-0.1-0.8-0.2c0.1,1.9,0.2,3.7,0.2,5.5c0.5-0.3,0.9-0.6,1.4-0.9c1.1-0.7,2.2-1.5,3.3-2.3
				c0.7-0.5,1.4-1,2.1-1.5c0.4-0.2,0.8-0.2,1,0.2c0.1,0.2,0,0.4-0.1,0.6c-0.4,0.3-0.7,0.6-1.1,0.9c-1.2,0.9-2.5,1.7-3.7,2.6
				c-1,0.7-2,1.3-3.1,2c-0.4,0.2-0.7,0.1-0.9-0.3c-0.4-0.7-0.7-1.4-1.1-2c-0.5-0.9-1-1.7-1.6-2.5c-0.8-1-1.6-2-2.4-3
				c-0.2-0.2-0.2-0.6,0-0.8c0.2-0.2,0.6-0.2,0.8,0c0.7,0.8,1.5,1.7,2.1,2.5c0.7,0.9,1.3,1.9,1.9,2.9C28,20.3,28,20.4,28.1,20.4
				C28.1,20.4,28.1,20.4,28.1,20.4z"/>
			<path d="M21.7,32.2c0-0.2,0.1-0.4,0.3-0.5c0.9-0.6,1.8-1.3,2.7-1.9c1.1-0.7,2.1-1.5,3.2-2.2c1.1-0.8,2.1-1.5,3.2-2.3
				c1-0.7,2.1-1.5,3.1-2.2c0.8-0.6,1.5-1.1,2.3-1.7c0.5-0.4,1-0.7,1.5-1.1c0.3-0.2,0.7-0.1,0.9,0.1c0.2,0.2,0.1,0.6-0.2,0.8
				c-0.9,0.7-1.9,1.4-2.8,2.1c-0.8,0.6-1.5,1.1-2.3,1.7c-0.9,0.6-1.7,1.3-2.6,1.9c-0.8,0.6-1.7,1.2-2.5,1.8
				c-0.9,0.6-1.7,1.2-2.6,1.8c-1.1,0.7-2.1,1.5-3.2,2.2c-0.2,0.1-0.4,0.1-0.6,0C21.8,32.6,21.7,32.4,21.7,32.2z"/>
			<path d="M26.1,22.1c0,0.2-0.1,0.4-0.3,0.5c-1,0.6-2,1.2-3,1.9c-1,0.7-1.9,1.4-2.9,2.1c-0.5,0.4-1,0.8-1.5,1.3
				c-0.4,0.3-0.9,0.2-1-0.3c-0.1-0.2,0.1-0.4,0.2-0.6c1.2-1,2.3-1.9,3.6-2.8c1.3-0.9,2.6-1.8,3.9-2.6C25.6,21.4,26.1,21.7,26.1,22.1
				z"/>
			<path d="M24,19.6c0.3,0,0.4,0.1,0.5,0.3c0.1,0.2,0.1,0.5-0.1,0.6c-0.5,0.4-1,0.8-1.5,1.1c-0.6,0.4-1.1,0.8-1.7,1.2
				c-0.8,0.6-1.5,1.1-2.3,1.7c-0.6,0.4-1.2,0.9-1.8,1.3c-0.2,0.1-0.4,0.3-0.7,0.2c-0.2-0.1-0.4-0.2-0.4-0.4c-0.1-0.3,0-0.5,0.3-0.7
				c1.4-1,2.8-2,4.1-3c0.8-0.6,1.5-1.1,2.3-1.7c0.3-0.2,0.6-0.4,0.9-0.6C23.8,19.6,23.9,19.6,24,19.6z"/>
			<path d="M19.2,29.2c0.1-0.2,0.1-0.3,0.3-0.4c0.6-0.6,1.3-1.1,1.9-1.6c0.6-0.5,1.3-1,2-1.5c1-0.7,2.1-1.4,3.2-2.1
				c0.2-0.2,0.5-0.3,0.8-0.1c0.3,0.2,0.5,0.7,0,1c-0.9,0.5-1.7,1.1-2.5,1.7c-0.7,0.5-1.4,1-2.1,1.6c-0.8,0.6-1.6,1.3-2.4,2
				c-0.2,0.2-0.4,0.2-0.7,0.1C19.3,29.6,19.2,29.5,19.2,29.2z"/>
			<path d="M22.4,18.6c-0.1,0.1-0.1,0.2-0.2,0.3c-0.4,0.3-0.8,0.6-1.2,0.9c-0.7,0.5-1.3,1-2,1.5c-0.8,0.6-1.5,1.2-2.3,1.8
				c-0.4,0.3-0.8,0.7-1.2,1.1c-0.2,0.2-0.4,0.3-0.6,0.2c-0.3-0.1-0.4-0.3-0.4-0.6c0-0.1,0.1-0.3,0.2-0.3c0.8-0.7,1.6-1.4,2.4-2
				c0.6-0.5,1.1-0.9,1.7-1.4c0.7-0.5,1.4-1.1,2.2-1.6c0.1-0.1,0.3-0.2,0.4-0.3c0.2-0.1,0.4-0.2,0.6-0.1
				C22.3,18.2,22.4,18.3,22.4,18.6z"/>
			<path d="M21.3,16.8c0,0.3-0.2,0.4-0.4,0.5c-1.2,0.8-2.4,1.5-3.6,2.3c-0.7,0.5-1.4,1.1-2.1,1.7c-0.4,0.3-0.7,0.7-1.1,1
				c-0.2,0.2-0.6,0.1-0.8-0.1c-0.2-0.2-0.2-0.5,0.1-0.7c1-0.9,2-1.8,3.1-2.5c1.2-0.9,2.5-1.7,3.8-2.5c0.1,0,0.1-0.1,0.2-0.1
				c0.2-0.2,0.4-0.2,0.6,0C21.2,16.4,21.3,16.5,21.3,16.8z"/>
			<path d="M30.9,33.8c0,0.3-0.2,0.5-0.4,0.6c-1.3,0.7-2.6,1.5-3.8,2.3c-0.4,0.3-0.7,0.5-1.1,0.8c-0.3,0.3-0.7,0.2-0.9-0.1
				c-0.2-0.3-0.1-0.6,0.2-0.8c0.8-0.6,1.6-1.2,2.5-1.8c0.9-0.5,1.7-1,2.6-1.5C30.5,33,30.9,33.3,30.9,33.8z"/>
			<path d="M26.1,39.9c-0.3,0-0.5-0.2-0.6-0.4c-0.1-0.2,0-0.5,0.2-0.6c0.3-0.3,0.6-0.5,1-0.8c0.9-0.7,1.9-1.3,2.8-1.9
				c0.4-0.3,0.8-0.5,1.3-0.7c0.3-0.2,0.7-0.1,0.8,0.2c0.2,0.3,0.1,0.7-0.3,0.9c-1.1,0.7-2.2,1.4-3.3,2.1c-0.6,0.4-1.1,0.8-1.6,1.2
				C26.3,39.9,26.2,39.9,26.1,39.9z"/>
			<path d="M24.4,35.6c-0.3,0-0.5-0.2-0.6-0.5c-0.1-0.2,0.1-0.5,0.3-0.7c1.1-0.8,2.2-1.5,3.4-2.3c0.4-0.3,0.8-0.6,1.3-0.8
				c0.2-0.1,0.6,0,0.7,0.2c0.2,0.3,0.2,0.6-0.1,0.8c-0.3,0.2-0.6,0.5-1,0.7c-1.2,0.8-2.4,1.6-3.6,2.4C24.8,35.5,24.6,35.6,24.4,35.6
				z"/>
			<path d="M31.6,32c0.1-0.1,0.1-0.3,0.2-0.4c1.1-1.1,2.4-2,3.8-2.7c0.3-0.1,0.6-0.1,0.8,0.1c0.2,0.2,0.2,0.5,0.1,0.7
				c-0.1,0.1-0.2,0.2-0.4,0.3c-0.8,0.5-1.5,0.9-2.3,1.4c-0.4,0.3-0.8,0.7-1.2,1c-0.3,0.3-0.6,0.3-0.9,0C31.6,32.3,31.6,32.2,31.6,32
				z"/>
			<path d="M37.6,31.1c0,0.4-0.2,0.5-0.4,0.7c-0.5,0.3-1,0.7-1.4,1c-0.6,0.5-1.1,0.9-1.7,1.4c-0.1,0.1-0.2,0.2-0.3,0.3
				c-0.3,0.2-0.6,0.2-0.8,0c-0.2-0.2-0.2-0.6,0.1-0.8c0.3-0.3,0.7-0.6,1.1-0.9c0.6-0.5,1.2-0.9,1.7-1.4c0.3-0.2,0.5-0.4,0.9-0.6
				c0.2-0.1,0.5-0.1,0.7-0.1C37.5,30.8,37.6,31,37.6,31.1z"/>
			<path d="M34.7,26.8c0.3,0,0.5,0.2,0.6,0.5c0.1,0.2-0.1,0.4-0.3,0.6c-0.8,0.5-1.7,1-2.5,1.6c-0.4,0.3-0.7,0.6-1.1,0.9
				c-0.3,0.2-0.6,0.2-0.8-0.1c-0.2-0.2-0.2-0.5,0-0.7c0.5-0.4,1-0.8,1.6-1.2c0.7-0.5,1.4-0.9,2.2-1.3C34.4,26.9,34.6,26.9,34.7,26.8
				z"/>
			<path d="M37.4,27.7c-0.1-0.3,0.2-0.5,0.4-0.6c1-0.8,2-1.5,3.1-2.3c0.2-0.2,0.5-0.1,0.8,0.1c0.2,0.2,0.2,0.6,0,0.8
				c-0.2,0.2-0.5,0.3-0.7,0.5c-0.6,0.5-1.3,1-1.9,1.4c-0.2,0.2-0.4,0.4-0.6,0.5c-0.2,0.2-0.4,0.2-0.7,0.1
				C37.5,28.2,37.4,28,37.4,27.7z"/>
			<path d="M42.9,27.2c0.1,0.2-0.1,0.4-0.3,0.5c-0.9,0.6-1.7,1.2-2.6,1.9c-0.2,0.2-0.4,0.4-0.6,0.5c-0.3,0.2-0.6,0.2-0.9-0.1
				c-0.2-0.2-0.2-0.6,0.2-0.8c0.7-0.5,1.3-1.1,2-1.6c0.4-0.3,0.8-0.6,1.3-0.9C42.5,26.4,42.9,26.7,42.9,27.2z"/>
			<path d="M37.1,26.3c-0.3,0-0.5-0.1-0.6-0.4c-0.1-0.2-0.1-0.5,0.2-0.6c0.5-0.4,1.1-0.8,1.6-1.2c0.4-0.3,0.8-0.6,1.2-0.9
				c0.1-0.1,0.2-0.2,0.3-0.2c0.3-0.1,0.6,0.1,0.7,0.3c0.1,0.3,0,0.6-0.2,0.7c-0.9,0.7-1.7,1.3-2.6,2C37.5,26.1,37.3,26.2,37.1,26.3
				C37.1,26.3,37.1,26.3,37.1,26.3z"/>
		</g>
	</g>
</g>
</svg>
