<?xml version="1.0" encoding="utf-8"?>
<!-- Generator: Adobe Illustrator 23.0.3, SVG Export Plug-In . SVG Version: 6.00 Build 0)  -->
<svg version="1.1" id="Layer_1" xmlns="http://www.w3.org/2000/svg" xmlns:xlink="http://www.w3.org/1999/xlink" x="0px" y="0px"
	 viewBox="0 0 95.4 47.3" style="enable-background:new 0 0 95.4 47.3;" xml:space="preserve">
<style type="text/css">
	.st0{display:none;opacity:0.3;fill:#FFFFFF;enable-background:new    ;}
	.st1{fill:#FFFFFF;}
	.st2{display:none;opacity:0.3;fill:#0C0000;}
	.st3{clip-path:url(#SVGID_2_);}
	.st4{fill:#FFFFFF;stroke:#000000;stroke-width:3;stroke-linecap:round;stroke-linejoin:round;stroke-miterlimit:10;}
	.st5{fill:#ADADAD;}
	.st6{opacity:0.33;}
	.st7{fill:#898989;stroke:#000000;stroke-width:0.25;stroke-linejoin:round;stroke-miterlimit:10;}
	.st8{fill:#FFFFFF;stroke:#000000;stroke-width:2.7247;stroke-linecap:round;stroke-linejoin:round;stroke-miterlimit:10;}
	.st9{fill:#CCCCCC;}
	.st10{fill:#0A0A0A;}
	.st11{fill:#FFFFFF;stroke:#000000;stroke-width:0.25;stroke-miterlimit:10;}
	.st12{stroke:#000000;stroke-width:0.25;stroke-miterlimit:10;}
	.st13{fill:#DD9B9B;}
	.st14{fill:#FF0000;stroke:#000000;stroke-width:0.25;stroke-miterlimit:10;}
	.st15{stroke:#000000;stroke-width:0.15;stroke-miterlimit:10;}
	.st16{fill:#666666;stroke:#000000;stroke-width:0.15;stroke-miterlimit:10;}
	.st17{fill:#1C1C1C;}
	.st18{fill:#1C1C1C;stroke:#000000;stroke-width:0.25;stroke-miterlimit:10;}
</style>
<rect x="-0.5" y="0.4" class="st0" width="138" height="47"/>
<g>
	<path class="st1" d="M87.6,26.1c0-0.5-0.1-1-0.2-1.4c-0.1-0.7-0.3-1.4-0.3-2c0-1.1-0.4-1.8-1.4-2.4c-0.3-0.2-0.7-0.4-0.9-0.6
		l-0.1-0.1c-0.3-0.4-0.7-0.7-0.8-1.1c-0.2-0.6-0.2-1.2-0.3-1.8c0-0.2,0-0.3-0.1-0.5c0-0.1,0-0.2,0.1-0.3v-0.1c0.8-0.2,1.3,0,1.9,0.1
		c0.1,0,0.2,0,0.3,0.1c0,0.2,0,0.4,0,0.7c0,0.6,0,1.4,0.6,1.7c0.1,0.1,0.3,0.1,0.4,0c0.6-0.4,0.5-1.1,0.4-1.7c0-0.2-0.1-0.3-0.1-0.5
		c-0.1-1.7-0.5-1.8-2.8-1.8c-0.9,0-1.7,0.3-2.1,0.8c-0.2,0.3-0.4,0.7-0.3,1v0.5c0,0.5,0.1,1.1,0.1,1.6c0,1.5,0.7,2.5,2.2,3.1
		c1.4,0.6,1.6,1.4,1.5,2.1c0,0.5,0,0.9,0.1,1.3c0,0.3,0.1,0.5,0.1,0.8c0,0.5,0,1,0,1.5c0,0.2,0,0.3,0,0.5c-0.8,0.2-1.3,0.2-1.5,0
		c-0.1-0.1-0.2-0.4-0.2-0.8c0-1.1,0-2.3,0-3.4v-0.8c0-0.1,0.1-0.3,0-0.4S83.9,22,83.7,22l0,0c-0.5,0-0.6,0.5-0.7,0.7v0.1
		c-0.1,0.2-0.1,0.4-0.2,0.6c-0.2,0.6-0.5,1.2-0.3,1.7c0.2,0.7,0.2,1.4,0.3,2.1c0,0.3,0,0.6,0.1,0.8c0,0.4,0.4,0.8,0.7,1
		c0.3,0.2,0.7,0.3,1.2,0.3c0.7,0,1.5-0.2,2-0.4c0.4-0.2,0.6-0.4,0.6-0.7c0-0.2,0-0.3,0.1-0.5C87.5,27.1,87.6,26.6,87.6,26.1z
		 M79.1,14.7v-0.1H79c-0.1,0-0.2,0-0.3-0.1c-0.3-0.1-0.6-0.1-0.8-0.1c-1.1,0.2-2.2,0-3.4-0.2c-0.3,0-0.5-0.1-0.8-0.1
		c0,0-0.7-0.1-0.9,0.2c-0.2,0.2-0.2,0.7,0,0.9c0.3,0.3,0.7,0.6,1.1,0.8c0.3,0.1,0.6,0.2,0.9,0.2c0.1,0,0.2,0,0.3,0.1
		c0,0.1,0,0.2,0,0.4c0,0.4-0.1,0.7-0.1,1.1c0,0.3,0.1,0.7,0.1,1c0,0.2,0.1,0.4,0.1,0.6v0.2c0,0.1,0,0.2,0,0.3c0,0.6,0,0.9,0,1.2
		c0,0.2,0,0.4,0,0.7c0,0.2,0,0.4,0.1,0.7c0,0.2,0.1,0.5,0.1,0.7c0,0.4,0,0.7,0,1.1c0,0.5,0,1.1,0,1.6c0,0.7,0.1,1.5,0.3,2.5v0.2
		c0,0.3,0.1,0.8,0.6,0.9l0,0c0.1,0,0.3,0,0.4-0.1c0.4-0.4,0.4-1.4,0.5-2.9c0-0.3,0-0.6,0-0.8c0.1-3.6,0-4.7-0.3-7.5
		c0-0.4-0.1-0.9-0.1-1.5c0.1,0,0.3,0,0.4,0c0.4,0,0.7-0.1,1.1-0.1c0.6-0.1,0.9-0.2,1.1-0.4C79.3,15.6,79.3,15.3,79.1,14.7z
		 M69.2,14.4c-0.8-0.2-1.5,0-2.3,0.1c-0.3,0-0.6,0.1-0.8,0c-0.4-0.2-0.6-0.1-0.9,0.1c-1.1,0.6-1.2,0.7-0.2,1.5c0,0.9,0,1.8,0,2.6
		c-0.1,0.8-0.1,1.6-0.7,2.3v0.2c0.2,0.3,0.6,0.4,0.6,1c0,1.3,0.1,2.6,0.1,3.8c0,1,0.1,2,0.7,2.9c0.5-0.2,0.7-0.6,0.8-1.1
		c0.2-1.2,0.3-2.4,0.2-3.7c-0.1-0.8-0.1-1.5-0.2-2.4c1-0.2,1.5-0.3,1.7-1.2c-0.5-0.5-1.2-0.4-1.7-0.6c0-1.2,0-2.6,0-3.7
		c0.9-0.2,1.7-0.4,2.5-0.5c0.5-0.1,0.8-0.4,0.9-1C69.7,14.6,69.5,14.5,69.2,14.4z M60.7,14.5c-0.9,0-0.9,2-1,3
		c-0.1,1.1-0.2,2.1-0.2,3.2c-0.1,1-0.1,1.9-0.2,2.9c-0.7-1.5-1.1-3-1.5-4.5c-0.1-0.2-0.2-0.4-0.3-0.6c-0.3-0.8-0.6-1.7-1-2.5
		c-0.2-0.4-0.2-1.1-0.7-1.2c-1-0.2-1.1,1.2-1.1,2c0,1,0,1.7-0.1,2.9c-0.1,2.8-0.4,5.7-0.3,8.5c0,0.3,0,0.5,0.3,0.6
		c0.1,0.1,0.6,0,0.6-0.1c0.7-3.1,0.7-4.4,1.2-6.7c0.2,0.3,0.3,0.5,0.4,0.8c0.7,1.6,1.3,3.3,2,4.9c0.3,0.6,0.5,1.4,1.4,1.3
		c1.1-0.2,0.9-2,0.9-3.1c0.1-1.8,0.2-3.6,0.2-5.4c0.1-1.6,0.1-3.2,0.1-4.7C61.6,14.9,61.5,14.5,60.7,14.5z"/>
</g>
<rect class="st2" width="95.4" height="47.3"/>
<g>
	<defs>
		<circle id="SVGID_1_" cx="24.4" cy="23.8" r="20"/>
	</defs>
	<use xlink:href="#SVGID_1_"  style="overflow:visible;fill:#FFFDFD;"/>
	<clipPath id="SVGID_2_">
		<use xlink:href="#SVGID_1_"  style="overflow:visible;"/>
	</clipPath>
	<g id="demon_woman_default_2_1_" class="st3">
		<path class="st4" d="M19.6,77.8c-0.1,0,0.6,1.8,0.8,3.6c0.3,1.8,0,2.7,0,2.7l0.2,0.9l-0.8,1.8c0,0-2.5,0.7-1.9,1.6
			c0.6,0.9,0.6,0.9,0.6,0.9s2.7,0.1,3.5,0.2c0.9,0.2,2.2-0.2,2.2-0.2s0.9-1.5,0-2.2c-0.9-0.7-0.2-2.9-0.8-3.6
			c-0.6-0.7,0-2.4-0.4-5.1C22.7,75.9,19.6,77.8,19.6,77.8z"/>
		<g>
			<g>
				<path d="M24.9,87.4c-0.1-0.9-1.9-0.2-2.3-0.1c-1,0.4-1.5,1.3-1.4,2.4c0,0.6,2.8,0,2.9-0.6c0.1-0.5,0.2-1.1,0.2-1.6
					c0.1-0.7-2.7-0.2-2.9,0.5c-0.2,0.8-0.3,1.6,0.6,1.9c0.2-0.3,0.5-0.6,0.7-0.9c0,0-0.1,0-0.1,0c0.5-0.1,1-0.2,1.5-0.3
					c0,0-0.1,0-0.1,0c0.1,0,0.3,0.1,0.4,0.1c-0.1,0-0.2-0.1-0.2-0.2c-0.9,0.4-1.7,0.7-2.6,1.1c0.5,0.2,0.7,0.7,0.7,1.2
					c0,0.5,3,0,3.2-0.7c0.2-0.9,0.6-1.7,0.6-2.6C26,87.3,25,87.4,24.9,87.4c-0.7,0.1-1.5,0.3-2.1,0.6c-0.7,0.4-1.9,1.2-1.2,2.2
					c0.4,0.6,1.7,0.3,2.3,0.1c0.5-0.1,2-0.5,1.9-1.2c0-0.4,0-0.8,0-1.2c0-0.7-4.2-0.1-4.1,1.1c0,0.2,0,0.4,0,0.6
					c0,0.7,4.1,0.1,4.1-1.1c0-0.2,0-0.4,0-0.6c-1.4,0.4-2.8,0.7-4.1,1.1c0,0.4,0,0.8,0,1.2c1.4-0.4,2.8-0.8,4.2-1.1
					c-0.1-0.2-0.2-0.3-0.2-0.5c0-0.3,0.3-0.4-0.1-0.2c-1.2,0.2-2.4,0.3-3.6,0.5c0.1,0.8,0.4,1.4,0.3,2.2c1.1-0.3,2.1-0.6,3.2-0.9
					c-0.1-0.8-0.7-1.3-1.4-1.5c-0.6-0.2-1.4,0.1-1.9,0.3c-0.2,0.1-1.1,0.4-0.7,0.8c0.6,0.6,1.8,0.2,2.4-0.1c0.3-0.1,1.5-0.6,0.7-0.9
					c-0.5-0.2-0.3-1-0.2-1.3c-1,0.2-1.9,0.3-2.9,0.5c-0.1,0.5-0.2,1.1-0.2,1.6c1-0.2,1.9-0.4,2.9-0.6c0-0.4-0.2-0.8,0-1.2
					c0-0.1,0.2-0.3,0.2-0.3c-0.4,0.1-0.7,0.2-1.1,0.4c0.1,0,0.2,0.1,0.3,0.1C23.7,88,24.9,87.8,24.9,87.4L24.9,87.4z"/>
			</g>
		</g>
		<g>
			<g>
				<path d="M21.2,87c-0.3,0.3-0.7,0.6-1,1c0.2-0.1,0.5-0.3,0.7-0.4c-0.8,0.3-1.8,0.9-1.5,1.9c0.2,0.9,1.2,0.9,1.9,1
					c0.4-0.7,0.8-1.5,1.2-2.2c0.1,0,0.3,0.1,0,0c-0.1-0.1-0.3-0.1-0.4-0.2c-0.6-0.3-1.3-0.3-1.9,0c-0.5,0.2-1,0.7-0.9,1.2
					c0.2,0.8,1.1,1.2,1.9,1.2c0.8,0.1,1.8-0.2,2.1-1c0.4-0.7-0.3-1.2-1-1.3c-0.3,0-0.6,0-0.8-0.1c0.3,0.1,0.6,0.3,0.9,0.4
					c0,0,0-0.3-0.1-0.3c-0.1-0.3-0.2-0.4-0.5-0.6c0.1,0.2,0.2,0.3,0.3,0.5c0.1-0.3,0.4-0.6,0.5-0.8c0.2-0.3-0.1-0.6-0.4-0.7
					C21.9,86.6,21.4,86.7,21.2,87L21.2,87z"/>
			</g>
		</g>
		<g>
			<g>
				<path d="M20.7,86.9c-1,0.2-2.4,0.9-2.5,2.1c0,0.7,1,0.6,1.5,0.5c0.4-0.1,1.7-0.5,1.5-1.1c-0.1-0.5,0.3-0.6,0.6-0.8
					c0.2-0.2,0.4-0.5,0.1-0.6C21.6,86.7,21.1,86.8,20.7,86.9L20.7,86.9z"/>
			</g>
		</g>
		<g>
			<g>
				<path d="M18.2,89c0.2,0.4,0.4,0.9,0.8,1.1c0.7,0.3,1.6,0.3,2.2-0.2c0.5-0.3,0.9-1.1,0.2-1.5c0,0,0,0-0.1,0
					c0.1,0.2,0.2,0.3,0.4,0.5c0,0,0-0.1,0-0.1c0,0.2-0.1,0.4-0.1,0.6c0,0,0-0.1,0-0.1c-0.3,0.2-0.6,0.5-0.8,0.7c0,0,0,0,0.1,0
					c-0.5,0.1-1.1,0.1-1.6,0.2c0,0,0.1,0,0.1,0c-0.2-0.1-0.4-0.2-0.5-0.4c0.1,0,0.1,0.1,0.1,0.2c0.6-0.6,1.2-1.3,1.7-1.9
					c-0.3,0-0.7,0.1-1,0.1c-0.6,0.1-1.4,0.3-1.8,0.9c-0.3,0.5-0.3,1,0.2,1.3c0,0,0,0,0.1,0c0.8,0.5,1.8,0.2,2.6-0.2
					c0.6-0.3,1-1.1,0.6-1.7c-0.5-0.7-1.6-0.6-2.3-0.4c0.6,0.5,1.2,1.1,1.8,1.6c0.1-0.2,0.3-0.4,0.4-0.6c-1.1-0.2-2.2-0.4-3.3-0.7
					c-0.5,1,0.3-1,1.8-0.4c0.2,0.1,0.4,0.3,0.6,0.4c-0.2-0.2,0,0.2,0,0.2c0,0,0-0.4,0-0.4c0-0.4-0.2-0.6-0.5-0.8
					c0.1,0.1,0.2,0.3,0.3,0.4c0,0,0-0.1,0-0.1c0,0.2,0,0.3-0.1,0.5c0.1-0.2,0.2-0.2,0.3-0.3c-0.6-0.4-1.3-0.8-1.9-1.2
					c-0.4,0.3-0.8,0.7-0.8,1.2c0,0.5,0.4,0.8,0.9,0.8c0.6,0.1,1.2-0.2,1.6-0.6c0.1-0.1,0.5-0.5,0.2-0.2c0.4-0.4,0.8-1,0.2-1.4
					c-0.6-0.4-1.5-0.2-2.1,0.2c-0.5,0.3-0.8,0.7-1.1,1.2c0.1-0.2,0.3-0.3,0.4-0.5c0.3-0.2-0.3,0.2-0.3,0.2c-0.2,0.1-0.3,0.2-0.5,0.4
					c-0.2,0.2-0.4,0.6-0.4,0.9c-0.1,0.6,0.3,1.2,0.9,1.4c1.5,0.6,3.2-0.2,4-1.6c0.4-0.8-0.4-1.4-1.1-1.5c-0.9-0.1-1.9,0.3-2.4,1.1
					c-0.1,0.2-0.2,0.4-0.4,0.6c-0.3,0.5,0,1,0.5,1.3c0.6,0.3,1.4,0.2,2-0.1c0,0,0.1,0,0.1-0.1c-0.3,0.1-0.6,0.2-1,0.3
					c0,0,0.1,0,0.1,0c-0.3,0-0.6-0.1-0.9-0.1c0,0,0.1,0,0.1,0c-0.2-0.2-0.5-0.4-0.7-0.7c0,0,0,0.1,0,0.1c0-0.2,0.1-0.4,0.1-0.6
					c0,0,0,0.1,0,0.1c0.2-0.2,0.4-0.4,0.5-0.6c0,0,0,0-0.1,0c0.9-0.1,1.7-0.2,2.6-0.2c0,0,0,0-0.1,0c-0.4,0.7-0.7,1.4-1.1,2.1
					c0.3-0.1,0.7-0.1,1-0.2c0.7-0.2,2.2-1.4,1-2c-0.9-0.5-2.2-0.4-3,0.4c-0.5,0.6-0.4,1.5,0.4,1.7c0.5-0.7,1-1.4,1.5-2.1
					c0.2,0,0.2,0,0.3,0.1c-0.2-0.6-1.1-0.7-1.7-0.5C18.9,87.8,18,88.3,18.2,89L18.2,89z"/>
			</g>
		</g>
		<g>
			<g>
				<path d="M20.1,86.6c0.2,0.2,0.4,0.4,0.6,0.6c0-0.1,0-0.2,0-0.3c-0.2,0.3-0.4,0.6-0.4,1c0,0.3,0.2,0.5,0.3,0.8
					c0.3,0.4,0.7,0.5,1.2,0.4c0.9-0.1,1.7-0.2,2.4-0.8c0.3-0.2,0.6-0.6,0.3-0.9c-0.3-0.3-0.5-0.5-0.9-0.7c-0.5-0.2-0.9-0.2-1.4-0.2
					c0.1,0,0.2,0.1,0.3,0.1c-0.2-0.2-0.5-0.4-0.7-0.6C21.4,85.7,19.7,86.1,20.1,86.6L20.1,86.6z"/>
			</g>
		</g>
		<g>
			<g>
				<path d="M21.2,85.5c0.3-0.5,0.8-1.2,1.4-1.5c-0.4-0.1-0.9-0.2-1.3-0.2c-1.3,0.7-2.4,1.9-2.7,3.4c-0.1,0.5,1.4,0.2,1.6,0.1
					c0.1,0,0.1,0,0.2,0c-0.4,0-0.9,0.1-1.3,0.1c0.1,0.1,0.2,0.1,0.2,0.3c0.1,0.5,3-0.2,2.9-0.8c-0.1-0.6-0.9-0.6-1.4-0.5
					c0.3,0.1,0.5,0.2,0.8,0.3c0.3-0.5,0.4-1.1,0.7-1.6c0.2-0.5,0.5-1,0.9-1.2c0.3-0.2,0.4-0.4,0-0.5c-0.5-0.1-1.1,0.1-1.6,0.3
					c-1,0.4-1.8,1-1.9,2.2C19.5,86.2,21,85.7,21.2,85.5L21.2,85.5z"/>
			</g>
		</g>
		<g>
			<g>
				<path d="M19.7,87.6C19.7,87.6,19.7,87.6,19.7,87.6c0,0.2,0.3,0.2,0.4,0.3c0.7,0,1.3-0.1,1.9-0.4c0.4-0.2,0.7-0.6,0.1-0.7
					c-0.7-0.1-1.7,0.1-2.3,0.6c-0.4,0.4,0.6,0.4,0.7,0.4c0.1,0,0.2,0,0.3-0.1c0.3-0.1,0.2,0-0.2,0c0-0.2,0-0.5,0.1-0.7
					c0.5-0.1,0.6-0.2,0.3-0.1c-0.1,0-0.3,0.1-0.4,0.1C20.3,87,19.7,87.2,19.7,87.6L19.7,87.6z"/>
			</g>
		</g>
		<g>
			<g>
				<path d="M22.1,87.3c-1.2,0.1-2.6,0.9-2.6,2.3c-0.1,1.7,3.2,0.9,3.5-0.3c0-0.2,0.1-0.3,0.2-0.5c-0.2,0.2-0.4,0.4-0.5,0.6
					c-0.3,0.1-0.2,0.1,0.3-0.2c0.2-0.1,0.3-0.3,0.5-0.4c-1.1-0.3-2.2-0.6-3.3-0.9c-0.4,0.4-0.7,1-0.7,1.6c0.1,1.9,3.3,1.1,4-0.1
					c0.1-0.2,0.2-0.4,0.3-0.5c0.4-0.6-0.1-1.2-0.7-1.4c-0.8-0.2-1.9,0-2.5,0.5c-0.6,0.5-1.2,1.1-1.3,1.9c-0.1,0.8,0.7,1,1.3,1.1
					c0.8,0.1,1.4,0,1.9-0.6c-0.2,0.1-0.4,0.3-0.6,0.4c0.7-0.3,1.1-0.6,1.4-1.3c-0.1,0.1,0,0,0,0c0.1-0.1,0.1-0.2,0-0.1
					c-0.1,0.1-0.1,0.1-0.2,0.2c-1.1-0.3-2.2-0.6-3.2-0.9c-0.1,0.2-0.2,0.4-0.3,0.5c1.3-0.1,2.6-0.3,4-0.4c0,0.2,0-0.1,0-0.2
					c0.1-0.2-0.1,0.2,0.1-0.1c0.4-0.8-0.3-1.4-1.1-1.4c-0.9,0-2.1,0.3-2.6,1.2c-0.1,0.2-0.2,0.4-0.2,0.6c0,0.5,0.2-0.4,0,0
					c-0.1,0.3-0.2,0.6-0.3,0.9c1.2-0.2,2.3-0.4,3.5-0.6c0,0,0.1-0.3,0-0.1c0.1-0.1,0.2-0.2,0.3-0.4c0.1-0.3,0.1-0.4,0-0.2
					C23.7,87.6,22.7,87.3,22.1,87.3L22.1,87.3z"/>
			</g>
		</g>
		<g>
			<g>
				<path d="M20.6,87.3c-1.3,0.2-2.7,1.4-2.4,2.8c0.1,0.5,0.7,0.6,1.1,0.7c0,0,0.1,0,0.1,0c-0.3-0.2-0.6-0.4-0.9-0.6
					c0,0.1,0,0.1,0,0.2c0.3,1.1,2.8,0.5,2.9-0.5c0-0.4,0.1-0.7,0.4-1.1c-0.1,0.2-0.3,0.3-0.4,0.5c0.1-0.1,0.2-0.1,0.3-0.2
					c-0.9-0.2-1.7-0.3-2.6-0.5c0-0.1,0.1-0.1,0.1-0.2c1,0,1.9,0,2.9,0c-0.1,0.2-0.2,0.4-0.3,0.6c0.5-0.3,0.8-1,0.3-1.4
					c-0.6-0.5-1.4-0.3-2-0.1c-0.7,0.3-1.3,0.9-1.1,1.7c0.1,0.6,1,0.7,1.4,0.6c0.7-0.1,1.3-0.4,1.7-0.9c0.1-0.2,0.2-0.4,0.2-0.6
					c0.1-0.7-0.7-0.9-1.2-0.9c-0.6,0-1.6,0.3-1.9,0.9c-0.2,0.6-0.6,1.1-0.6,1.8c1-0.1,1.9-0.2,2.9-0.3c0-0.1,0-0.1,0-0.2
					c-0.3,0.3-0.6,0.6-0.9,0.9c0.7-0.3,1-0.7,1.1-1.5c0-0.3,0.2-0.7,0.2-1C21.9,87.4,21.1,87.2,20.6,87.3L20.6,87.3z"/>
			</g>
		</g>
		<g>
			<g>
				<path d="M17.2,89c-0.2,0.5-0.4,1.1,0.1,1.5c0.7,0.6,2.1,0.4,2.7-0.3c0.3-0.3,0.3-0.6,0.5-1C21.2,87.6,17.7,87.8,17.2,89L17.2,89
					z"/>
			</g>
		</g>
		<g>
			<g>
				<path d="M19.2,87.3c-0.8,0.2-1.5,0.6-1.9,1.3c-0.1,0.2-0.2,0.5-0.3,0.8c0,0.3,0.1,0.4,0.3,0.7c0.3,0.5,0.9,0.5,1.4,0.4
					c0.4-0.1,1.4-0.4,1.4-0.9c0-0.3,0.2-0.7,0.3-1c0,0,0.1-0.2,0-0.1c0.2-0.2,0.3-0.3,0.4-0.6C21,87.1,19.6,87.3,19.2,87.3
					L19.2,87.3z"/>
			</g>
		</g>
		<g>
			<g>
				<path d="M17.7,87.3c-0.8,0.3-1.6,1-1.7,1.8c0,0.3,0.1,0.5,0.4,0.7c0,0.1,0,0.1,0.1,0.1c0.6,0.6,2.2,0.2,2.6-0.5
					c0.2-0.4,0.5-0.6,0.6-1c0.1-0.3,0.1-0.6,0.1-0.8C19.6,86.8,18.2,87.1,17.7,87.3L17.7,87.3z"/>
			</g>
		</g>
		<path class="st4" d="M33.1,77.8c0.1,0-0.6,1.8-0.8,3.6c-0.3,1.8,0,2.7,0,2.7l-0.2,0.9l0.8,1.8c0,0,2.5,0.7,1.9,1.6
			c-0.6,0.9-0.6,0.9-0.6,0.9s-2.7,0.1-3.5,0.2c-0.9,0.2-2.2-0.2-2.2-0.2s-0.9-1.5,0-2.2c0.9-0.7,0.2-2.9,0.8-3.6
			c0.6-0.7,0-2.4,0.4-5.1C30.1,75.9,33.1,77.8,33.1,77.8z"/>
		<g>
			<g>
				<path d="M29,88c-0.5,0.2-0.6-0.2-0.3,0.1c0.1,0.1,0.1,0.2,0.1,0.3c0.1,0.3,0,0.7-0.1,1c1-0.2,1.9-0.4,2.9-0.5
					c-0.1-0.5-0.2-1.1-0.2-1.6c-1,0.3-1.9,0.5-2.9,0.8c0.1,0.2,0.1,0.4,0.1,0.5c0.1,0.2-0.1,0.2,0.1,0.1c0.2-0.1,0.5-0.2,0.7-0.3
					c0,0-0.1,0-0.1,0c-0.4,0.2-1,0.4-1.2,0.9c-0.1,0.4,0.1,0.7,0.6,0.8c0.9,0.3,1.9,0,2.6-0.7c0.3-0.3,0.4-0.7,0.1-1
					c-0.4-0.3-1-0.3-1.5-0.2c-1.1,0.3-2.3,1.1-2.4,2.4c1.1-0.2,2.2-0.4,3.2-0.6c-0.1-0.7,0.2-1.4,0.3-2.1c-1.2,0.4-2.5,0.9-3.7,1.3
					c-0.2-0.1-0.1-0.1,0,0.1c0,0.1,0.1-0.2,0,0c1.4,0,2.7-0.1,4.1-0.1c0-0.4,0-0.8,0-1.2c-1.4,0.1-2.8,0.3-4.2,0.4
					c0,0.2,0,0.4,0,0.6c0,0.9,1,1.2,1.8,1.1c0.7-0.1,2.3-0.6,2.3-1.5c0-0.2,0-0.4,0-0.6c0-1-1.1-1.2-1.8-1.1
					c-0.7,0.1-2.3,0.6-2.3,1.5c0,0.4,0,0.8,0,1.2c0,0.9,0.9,1.1,1.6,1.1c0.9,0,1.9-0.4,2.5-1.2c0.6-0.9,0.3-2-0.7-2.5
					c-0.7-0.3-1.5-0.3-2.2,0c-0.5,0.2-1.5,0.7-1.5,1.3c0,0.5,0,0.9,0.2,1.3c0.2,0.4,0.3,0.8,0.4,1.2c0.4,1.3,3.3,0.4,3.2-0.9
					c0-0.4,0.4-0.3-0.3-0.1c-0.5-0.4-1-0.8-1.4-1.2c0,0-0.1,0.1-0.1,0.1c0.2-0.1,0.4-0.3,0.6-0.4c0,0-0.1,0-0.1,0.1
					c0.3-0.1,0.5-0.1,0.8-0.2c0,0-0.1,0-0.1,0c0.2,0,0.5,0,0.7,0c0,0-0.1,0-0.1,0c-0.1,0.5-0.2,1.1-0.3,1.6c1.2-0.5,1.6-1.5,1.2-2.7
					c-0.3-1.1-3.1-0.4-2.9,0.8c0.1,0.5,0.2,1.1,0.2,1.6c0.1,0.6,1.1,0.6,1.5,0.5c0.5-0.1,1.4-0.4,1.4-1c0.1-1-0.3-2.1-1.3-2.4
					c-0.7-0.2-2.3-0.1-2.4,0.9C27.8,88.2,28.7,88.1,29,88L29,88z"/>
			</g>
		</g>
		<g>
			<g>
				<path d="M30,87.7c0.2,0.3,0.4,0.6,0.5,0.9c0.1-0.2,0.1-0.4,0.2-0.6c-0.2,0.2-0.3,0.4-0.4,0.7c0-0.1-0.2,0.5-0.1,0.4
					c0.6-0.3,1.1-0.7,1.7-1c-0.3,0-0.5,0-0.8,0.1c-0.7,0.1-1.7,0.5-1.8,1.3c-0.1,0.8,0.9,1.1,1.5,1.1c1.2-0.1,2.3-0.6,2.7-1.8
					c0.1-0.5-0.5-0.9-0.8-0.9c-0.6-0.1-1.2,0.1-1.7,0.4c0,0-0.4,0.2-0.2,0.1c0.1,0,0.1-0.1,0,0c-0.2,0.1-0.1,0.1,0.4-0.1
					c-0.1,0.8-0.2,1.6-0.3,2.4c0.9-0.2,2.1-0.2,2.5-1.2c0.2-0.4,0.2-0.8,0-1.1c-0.3-0.5-0.7-0.6-1.2-0.7c0.2,0.1,0.4,0.2,0.6,0.3
					c-0.3-0.3-0.7-0.6-1-0.9C31.1,86.3,29.5,86.8,30,87.7L30,87.7z"/>
			</g>
		</g>
		<g>
			<g>
				<path d="M30.8,87.9c0.2,0.3,0.8,0.5,0.7,1c-0.3,1.3,3.1,1.2,3-0.5c-0.1-1.1-1.3-1.7-2.2-1.8C31.7,86.5,30.2,87.1,30.8,87.9
					L30.8,87.9z"/>
			</g>
		</g>
		<g>
			<g>
				<path d="M31.7,88.8c0.4-0.2,0.9-0.5,1.3-0.7c-0.1,0-0.3,0.1-0.4,0.1c-0.2,0.1-0.5,0.2-0.7,0.4C31.8,88.7,31.7,88.8,31.7,88.8
					c-0.1,0.3,0.7-0.2,0.7-0.2c0.1,0.4,0.2,0.7,0.3,1.1c0.3-0.1,2.2-0.7,1.4-1.3c-0.3-0.3-1-0.1-1.3-0.1c-0.6,0.1-1.3,0.3-1.8,0.7
					c-0.3,0.2-0.6,0.6-0.1,0.8c0.3,0.1,0.6,0.1,1,0.2c0-0.3,0.1-0.5,0.1-0.8c0,0,0,0-0.1,0c1-0.2,2-0.4,3.1-0.5c0,0,0,0.1,0,0.1
					c-0.4,0.3-0.8,0.5-1.1,0.8c0,0,0.1,0,0.1,0c-0.7,0.1-1.4,0.2-2.1,0.3c0.1,0,0.2,0,0.2,0.1c0.6,0.3,1.6-0.1,2.1-0.3
					c0.2-0.1,1.4-0.6,1.2-1c-0.1-0.2-0.2-0.4-0.4-0.6c-0.6-0.9-4.1,0.3-3.7,1c0.3,0.6,0.7,0.9,1.4,1c1,0.1,2.3-0.2,3.1-0.9
					c0.4-0.3,0.7-0.9,0.3-1.3c-0.1-0.1-0.3-0.1-0.5-0.2c-0.1-0.1-0.2-0.2-0.3-0.3c-0.2-0.2-0.3-0.4-0.5-0.5
					c-0.5-0.3-1.4-0.1-1.9,0.1c-0.2,0.1-1.3,0.5-0.8,0.9c0.2,0.1,0.3,0.3,0.4,0.5c0.2,0.1,0.5,0.1,0.7,0.1c0.6,0,1.1-0.2,1.7-0.5
					c0.2-0.1,0.3-0.3,0.3-0.4c0-0.3-0.2-0.4-0.4-0.6c-0.9,0.3-1.8,0.7-2.7,1c0.2,0.2,0.6,0.4,0.6,0.7c0,0.2-0.1,0.3-0.1,0.5
					c0,0.1,0.1,0.2,0,0.3c0.2-0.1,0.4-0.3,0.6-0.4c0,0-0.1,0-0.1,0.1c0.5-0.1,0.9-0.3,1.4-0.4c0,0-0.1,0-0.1,0c0.3,0,0.6,0,0.9-0.1
					c0.2,0,0.2,0.1,0-0.1c-0.1-0.1-0.1-0.2-0.2-0.3c-1.2,0.4-2.4,0.8-3.6,1.2c0.1,0.2,0.3,0.4,0.4,0.6c1.1-0.5,2.1-0.9,3.2-1.4
					c-0.9-0.3-2,0-2.8,0.4c-0.3,0.2-1.3,0.8-0.6,1.1c0.8,0.5,2.3,0,3.1-0.5c0,0,0,0,0.1,0c0.2-0.1,0.5-0.3,0.4-0.6
					c-0.1-0.2-0.5-0.3-0.6-0.3c-0.4,0-0.7-0.1-1.1-0.1c0.2,0.2,0.3,0.4,0.5,0.6c0,0-0.1,0-0.1,0c-0.5,0.2-1,0.4-1.6,0.6
					c0,0,0.1,0,0.1,0c-0.4,0-0.8-0.1-1.2-0.1c0,0,0,0,0,0.1C31.2,89.4,31.4,89.1,31.7,88.8C31.6,88.9,31.6,88.9,31.7,88.8
					c-0.4,0.2-1.1,0.7-0.6,0.9c0.5,0.3,1.4,0,1.9-0.2c0.6-0.2,1.2-0.6,1.5-1.2c0.2-0.5-1-0.4-1.2-0.3C32.9,88.1,31.9,88.3,31.7,88.8
					L31.7,88.8z"/>
			</g>
		</g>
		<g>
			<g>
				<path d="M31.1,86.2c-0.3,0.2-0.6,0.5-0.8,0.7c0.3-0.1,0.5-0.3,0.8-0.4c-1.1,0.3-2.1,0.8-2.8,1.7c-0.6,0.7,0.5,0.9,1,0.8
					c0.5,0,1.1-0.1,1.6-0.3c0.4-0.1,0.9-0.3,1.1-0.7c0.2-0.2,0.4-0.5,0.5-0.8c0.1-0.3-0.1-0.5-0.2-0.7c0,0.1-0.1,0.1-0.1,0.2
					c0.1-0.2,0.3-0.3,0.4-0.5c0.2-0.3-0.1-0.3-0.3-0.4C31.9,85.9,31.4,86,31.1,86.2L31.1,86.2z"/>
			</g>
		</g>
		<g>
			<g>
				<path d="M33.2,85.4c-0.1-1.1-0.7-1.7-1.6-2.2c-0.5-0.2-1.3,0-1.7,0.3c-0.3,0.2-0.7,0.6-0.2,0.8c0.5,0.3,0.7,0.8,1,1.3
					c0.3,0.5,0.4,1.1,0.7,1.7c0.8-0.4,1.6-0.7,2.4-1.1c-0.9-0.1-2.7,0.2-2.9,1.3c-0.2,0.9,2.7,0.5,2.9-0.4c0,0,0,0,0,0
					c-0.3,0.2-0.7,0.3-1,0.5c0.1,0,0.1,0,0.2,0c-0.4,0-0.9,0-1.3,0c0,0,0.1,0,0.1,0c0.6,0.2,1.2,0.1,1.7-0.2c0.3-0.1,1-0.4,0.9-0.9
					c-0.1-0.7-0.6-1.4-0.9-2c-0.4-0.6-1.1-1-1.7-1.3c-0.7,0.4-1.3,0.7-2,1.1c0.8,0.3,1.5,0.9,2,1.6C31.9,86.3,33.2,85.9,33.2,85.4
					L33.2,85.4z"/>
			</g>
		</g>
		<g>
			<g>
				<path d="M33,87.1C33,87.1,33,87.1,33,87.1c-0.1-0.2-0.3-0.3-0.4-0.3c-0.1,0-0.2,0-0.4-0.1c-0.3,0.4-0.7,0.8-1,1.2
					c-0.1,0,0.3,0,0.4,0c0.4,0,0.7-0.1,1-0.3C32.8,87.5,33.1,87.2,33,87.1c-0.3-0.6-1-0.6-1.5-0.5c-0.4,0.1-0.9,0.2-1.1,0.5
					c-0.2,0.2-0.2,0.5,0.1,0.7c0.5,0.2,1,0.3,1.5,0.2C32.2,87.9,33.2,87.5,33,87.1L33,87.1z"/>
			</g>
		</g>
		<g>
			<g>
				<path d="M29.4,88.7C29.4,88.7,29.4,88.7,29.4,88.7c0,0,0,0.1,0,0.2c0,0.1,0.2,0.3,0.2,0.4c0.1,0.1,0.1,0.3,0.1,0.4
					c1.2-0.2,2.3-0.5,3.5-0.7c0-0.3-0.1-0.5-0.2-0.7c0,0-0.1-0.1-0.1-0.1c0-0.2,0-0.3-0.1-0.4c0-0.1-0.1-0.2-0.1-0.3
					c-0.2-0.3-0.8-0.4-1.1-0.4c-0.4,0-0.9,0.1-1.3,0.2c-0.5,0.2-1.7,0.8-1.4,1.5c0.1,0.2,0.2,0.5,0.2,0.7c1.4-0.3,2.7-0.5,4.1-0.8
					c-0.1-0.2-0.2-0.4-0.3-0.5c-1.3,0.5-2.6,0.9-3.9,1.4c0.2,0.2,0.3,0.3,0.3,0.5c0.1,0.2,0.1,0.3,0.2,0.5c0.2,0.2,0.6,0.2,0.8,0.4
					c0.5,0.3,1.4,0.1,1.8-0.2c0.2-0.1,0.3-0.2,0.5-0.3c0.4-0.3,0.8-0.6,0.8-1.2c0-0.5-0.3-0.9-0.7-1.2c-0.7-0.5-1.7-0.4-2.4-0.2
					c-0.4,0.1-0.8,0.3-1.1,0.6c-0.2,0.2-0.6,0.6-0.4,0.9c0.1,0.2,0.2,0.4,0.3,0.5c0.4,0.7,1.3,0.7,2,0.6c0.4-0.1,0.9-0.2,1.3-0.5
					c0.3-0.2,0.7-0.5,0.8-0.9c0-0.6,0-1.1-0.5-1.5c-1.2,0.5-2.5,1.1-3.7,1.6c0.1,0.1,0.2,0.2,0.4,0.3c0.2,0.1,0.2,0.1,0.1,0
					c0.1,0.2,0.2,0.4,0.2,0.6c0.2,0.7,1.5,0.6,2,0.4c0.7-0.2,1.5-0.6,1.5-1.4c0-0.4-0.2-0.7-0.4-1c-0.4-0.4-0.9-0.5-1.5-0.5
					c-0.5,0-1.1,0.1-1.5,0.4C29.7,88,29.3,88.3,29.4,88.7L29.4,88.7z"/>
			</g>
		</g>
		<g>
			<g>
				<path d="M30.9,88.7c0,0.3,0.1,0.5,0.1,0.7c0.1,0.3,0.1,0.5,0.1,0.8c0.1,0.5,0.7,0.7,1.1,0.7c0,0,0,0,0.1,0
					c-0.3-0.3-0.6-0.6-1-0.9c0,0.1,0,0.1,0,0.2c1-0.2,1.9-0.3,2.9-0.5c0-0.6-0.4-1-0.5-1.6c-0.5-1.3-3.4-0.5-3.1,0.8
					c0,0.2,0.1,0.4,0.3,0.6c0.3,0.5,1.3,0.5,1.7,0.3c0.6-0.2,1.2-0.5,1.3-1.1c0.2-0.7-0.3-1.1-0.9-1.3c-0.7-0.2-1.6,0-2.1,0.5
					c-0.5,0.4-0.6,1-0.1,1.4c-0.1-0.1-0.1-0.2-0.1-0.3c1-0.3,2.1-0.5,3.1-0.8C33.7,88,33.7,88,33.7,88c-0.9,0.4-1.9,0.9-2.8,1.3
					c0.4,0.2,0.4,0.7,0.4,1.1c0,0.6,1.1,0.6,1.5,0.6c0.6-0.1,1.3-0.4,1.4-1.1c0-0.1,0-0.1,0-0.2c-0.4,0.4-0.8,0.7-1.2,1.1
					c1-0.4,1.7-1,1.4-2.1c-0.2-0.8-0.8-1.3-1.6-1.4C32,87.2,30.8,87.7,30.9,88.7L30.9,88.7z"/>
			</g>
		</g>
		<g>
			<g>
				<path d="M32.2,89.6c0.1,0.3,0.2,0.7,0.4,0.9c0.7,0.7,2.1,0.5,2.7-0.3c0.4-0.5,0.5-1,0.3-1.6c-0.3-0.8-1.3-0.8-2-0.6
					C33.1,88.2,31.8,88.8,32.2,89.6L32.2,89.6z"/>
			</g>
		</g>
		<g>
			<g>
				<path d="M31.9,88.5c0,0.3,0.3,0.5,0.4,0.8c0.1,0.3,0.3,0.7,0.3,0.9c0,0.5,0.9,0.6,1.3,0.5c0.5-0.1,1.3-0.3,1.5-0.8
					c0.3-0.6,0.5-1,0.2-1.6c-0.3-0.7-0.9-1-1.6-1.1C33.2,87.1,31.8,87.5,31.9,88.5L31.9,88.5z"/>
			</g>
		</g>
		<g>
			<g>
				<path d="M33,88.1c-0.1,0.3,0,0.7,0.1,1c0,0.2,0.1,0.4,0.2,0.6c0.1,0.1,0.2,0.2,0.3,0.3c0.5,0.7,2,0.3,2.4-0.3
					c0.4-0.5,0.8-0.9,0.6-1.6c-0.2-0.6-0.8-1-1.3-1.1C34.5,86.9,33.1,87.1,33,88.1L33,88.1z"/>
			</g>
		</g>
		<g>
			<path class="st5" d="M16,77.3l-1.2-0.5c0,0,1.2-27.7,2.7-31.2c1.5-3.5,3-8.7,3-8.7s1.8-2.4,5.6-2.1c3.8,0.3,4.5,2.8,4.5,2.8
				s2.4,3.9,3.5,10.4c1.1,6.5,2.6,29.3,2.6,29.3s-0.9,0.8-1.9,1.3c-0.9,0.5-2.7,2.9-4.7,2.8c-2-0.1-2.6-1.4-4.5-1.4
				c-1.9,0-1.9-0.3-3.5-0.6C20.7,79,16.4,80.1,16,77.3z"/>
			<path d="M16,77.4l-1.1-0.5l0,0v-0.1v0c0.3-6.7,0.7-13.5,1.3-20.2c0.3-3.4,0.6-6.7,1.2-10.1c0.2-0.8,0.6-1.6,0.9-2.4
				c0.3-0.8,0.6-1.6,0.8-2.4c0.5-1.6,1-3.2,1.5-4.8l0,0l0,0l0,0c1.3-1.6,3.4-2.3,5.4-2.2c1,0.1,2,0.2,2.9,0.7c0.9,0.5,1.7,1.2,2,2.2
				l0,0l0,0c1.6,3,2.7,6.2,3.3,9.5c0.6,3.3,0.9,6.7,1.2,10c0.6,6.7,1,13.4,1.5,20.2l0,0l0,0l0,0c-0.4,0.3-0.8,0.6-1.2,0.9
				c-0.4,0.3-0.8,0.5-1.2,0.8c-0.7,0.6-1.4,1.4-2.2,1.9c-0.4,0.3-0.9,0.5-1.4,0.6c-0.5,0.1-1,0-1.5-0.1c-1-0.2-1.8-0.9-2.7-1.1
				c-0.5-0.1-0.9-0.1-1.4-0.1c-0.5,0-1,0-1.5-0.2c-0.5-0.1-0.9-0.3-1.4-0.4c-0.5-0.1-0.9-0.1-1.4-0.1c-1,0-2,0.1-2.9-0.1
				c-0.5-0.1-1-0.3-1.4-0.6C16.3,78.3,16,77.8,16,77.4z M16.1,77.3c0.1,0.5,0.3,0.9,0.7,1.2c0.3,0.3,0.8,0.5,1.3,0.6
				c0.9,0.2,1.9,0.1,2.9,0.1c0.5,0,1,0,1.5,0.1c0.5,0.1,0.9,0.3,1.4,0.4c0.5,0.1,0.9,0.2,1.4,0.2c0.5,0,1,0,1.5,0.1
				c1,0.3,1.8,0.9,2.7,1.1c0.5,0.1,0.9,0.2,1.4,0.1c0.5-0.1,0.9-0.3,1.3-0.5c0.8-0.5,1.5-1.2,2.3-1.8c0.4-0.3,0.8-0.5,1.2-0.8
				c0.4-0.3,0.8-0.5,1.2-0.8l0,0l0,0c-0.4-6.7-0.9-13.4-1.5-20.1c-0.3-3.3-0.6-6.7-1.2-10c-0.7-3.3-1.7-6.5-3.3-9.5l0,0l0,0l0,0
				c-0.3-0.9-1.1-1.6-1.9-2.1c-0.9-0.5-1.8-0.6-2.8-0.7c-1,0-2,0.1-2.9,0.4c-0.9,0.3-1.8,0.9-2.4,1.7l0,0l0,0
				c-0.5,1.6-1,3.2-1.6,4.8c-0.3,0.8-0.6,1.6-0.9,2.4c-0.3,0.8-0.7,1.6-0.9,2.4c-0.6,3.3-0.9,6.7-1.2,10.1
				c-0.5,6.7-0.9,13.5-1.2,20.2l0,0l0-0.1L16.1,77.3z"/>
		</g>
		<g>
			<g>
				<path d="M19.4,49.2c0-0.1,0.1-0.3,0.1-0.4c0,0-0.1,0-0.1,0c0,0.1-0.1,0.3-0.1,0.4C19.3,49.3,19.4,49.3,19.4,49.2L19.4,49.2z"/>
			</g>
		</g>
		<g>
			<g>
				<path d="M19.5,49c0-0.1,0-0.2,0-0.3c0,0,0,0,0,0C19.5,48.8,19.5,48.9,19.5,49C19.5,49,19.5,49,19.5,49L19.5,49z"/>
			</g>
		</g>
		<g class="st6">
			<path class="st1" d="M19.6,48.6c-0.5,3.1-0.9,6.2-1.4,9.4c-0.4,3-0.9,6-1,9c0,1.3,0,2.5,0.1,3.8c0,0.5,0.1,1,0.3,1.4
				c0.2,0.4,0.4,0.8,0.5,1.2c0.1,0.5-0.2,0.9-0.3,1.4c-0.3,1-0.1,2.1,0.7,2.8c0.8,0.6,2.2,0.5,2.5-0.5c0.1-0.3,0.1-0.6,0.1-0.9
				c0.1-7.4,1.5-14.8,2.9-22.1c0.3,3.3,0.3,6.6,0.1,9.9c0.8,0,1.1-1.1,1.2-2c0.4-6.8,0.3-13.6-0.6-20.4c-0.4,0.1-0.6,0.6-0.8,1.1
				c-0.5,1.9-1,3.7-1.5,5.6c-0.1-0.9-0.2-1.9-0.4-2.8c-0.3,1.5-1.2,2.8-2.4,3.7"/>
		</g>
		<g class="st6">
			<path class="st1" d="M27.6,49.5c0.4,6.5,0.9,12.9,1.3,19.4c0.2,2.7,0.4,5.5,0.9,8.2c0.1,0.6,0.3,1.2,0.8,1.4
				c0.5,0.3,1.2,0.1,1.7-0.3c1.7-1.4,1.6-3.9,1.3-6.1c-0.3-2.8-0.7-5.5-1-8.3c-0.2-1.5-0.4-2.9-0.2-4.4c0.1-1.4,0.5-2.9,0-4.2
				c-0.3-0.9-1-1.6-1.5-2.4c-1.2-2-1.1-4.4-2-6.5c-0.1-0.2-0.3-0.5-0.5-0.5c-0.3,0-0.4,0.4-0.4,0.7c-0.1,1-0.2,2-0.3,3"/>
		</g>
		<g class="st6">
			<path d="M20.6,39.8c0.8,0.6,1.6,1.1,2.3,1.7c0.4,0.3,0.8,0.6,1.3,0.7c0.5,0.1,1,0,1.5-0.1c0.5-0.2,1-0.4,1.4-0.7
				c0.7-0.4,1.2-1,1.8-1.6c0.4-0.4,0.9-0.9,1.1-1.5c0.2-0.6,0.1-1.3-0.5-1.7c-0.6-0.4-1.4,0-2.2,0c-0.7,0.1-1.5-0.2-2.2-0.2
				c-1.1-0.1-2.1,0.2-3.1,0.4c-0.2,0-0.4,0.1-0.5,0.2c-0.2,0.1-0.3,0.3-0.5,0.5c-0.2,0.2-0.3,0.4-0.5,0.7"/>
		</g>
		<path class="st7" d="M24.7,39c1.3,0.7,1.2-1,2.7-0.8c1.5,0.3,2.9-0.4,3.6-2.5c0.8-2.1,1.1-11.3,1.3-12.4c0.2-1.1,1.2-5.6-0.3-6.9
			c-1.5-1.3-3.8-1.8-7.4-2C21,14.2,18.4,14.8,17,16c-1.4,1.3,0.9,9.8,1.7,11.6c0.9,1.8,0.1,8.6,0.6,10.1C19.9,39.3,20,36.6,24.7,39z
			"/>
		<path class="st6" d="M25.1,26.8c2.5,0.4,6-8,5.6-10.3c-0.4-2.2-8.5-1.9-9.9-1.8C16.9,15.1,17.3,25.5,25.1,26.8z"/>
		<g class="st6">
			<path class="st1" d="M25.8,29.6c-0.5-0.1-1,0.3-1.2,0.8c-0.2,0.5-0.3,1-0.3,1.5c-0.1,1.8,0,3.5,0.3,5.3c0,0.2,0.1,0.4,0.1,0.6
				c0.2,0.3,0.5,0.5,0.9,0.4c0.3-0.1,0.6-0.4,0.7-0.7c0-0.2,0-0.4,0-0.5c0.1-0.4,0.5-0.6,0.9-0.5c0.2-2.2,0.1-4.5-0.1-6.8
				c-0.3,1.2-0.6,2.3-1,3.5c-0.4-1.1-0.7-2.3-0.7-3.5"/>
		</g>
		<path class="st8" d="M15,46.4c0,0,0.8-0.4,1.4,0.1c0.6,0.5,1.5,1.9,1.8,2.3c0.3,0.4,0.5,1.5,0.6,1.7c0,0.1-0.9,2.1-0.9,2.1
			s0.4-2.1,0.1-2.7c-0.3-0.7-1.9-2.4-1.9-2.4L15,46.4z"/>
		<path class="st4" d="M17.4,51.7c0-0.7-0.1-1.9-0.2-2.6l0,0c0,0,0.1-0.4,0-1.1c-0.1-0.7-0.5-1.2-0.5-1.2s-0.1-1-0.5-1.2
			c-0.3-0.3-0.8-1.8-2.3-1c0,0-0.2,1.8-0.5,2.5c-0.2,0.5-0.9,2.6-1.1,3.4c-0.2,0.8,0.7,4.1,0.7,4.1c0,0,0.4,0.9,0.4,0.9
			s-0.4-1.8-0.3-2.1c0.1-0.4,0-2.7,0-2.7l0.3-1.4c0.1,0.1,0.1,1.4,0.1,1.8c-0.1,0.7,0.9,5,0.9,5v-1.7c0,0,0-2.5,0-3
			c0-0.7,0.2-1.5,0.1-1.9c0.2,0,0.4,1.9,0.4,1.9l0.7,5.1c0,0,0.2-2.8,0.2-4c0-0.8-0.1-2.2-0.1-3c0.2,0,0.6,0.5,0.7,0.8
			c0.2,0.8,0.4,1.8,0.4,1.8l0.2,2.3C16.9,54.6,17.5,52.8,17.4,51.7z"/>
		<g>
			<path class="st1" d="M14.9,45.6c0.6,0.1,1-0.3,1-1.9c0-1.5,0.4-5.8-0.3-7s-2.9,0.3-2.5,1.9C13.6,40.7,13.2,45.2,14.9,45.6z"/>
			<path d="M14.9,45.6c0.2,0.1,0.5,0,0.6-0.2c0.1-0.2,0.2-0.4,0.2-0.6c0.1-0.4,0.1-0.9,0.1-1.3l0.1-2.6c0-0.9,0-1.8,0-2.6
				c0-0.4-0.1-0.9-0.3-1.3c-0.1-0.4-0.5-0.6-0.9-0.6c-0.8,0.1-1.5,0.9-1.5,1.7c0,0.4,0.2,0.8,0.2,1.3c0.1,0.4,0.1,0.9,0.1,1.3
				c0.1,0.9,0.1,1.8,0.3,2.6c0.1,0.4,0.2,0.9,0.3,1.3C14.2,45.1,14.5,45.5,14.9,45.6z M14.9,45.6c-0.4-0.1-0.8-0.5-1-0.9
				c-0.2-0.4-0.3-0.8-0.4-1.3c-0.2-0.9-0.2-1.8-0.3-2.6c0-0.4-0.1-0.9-0.1-1.3c0-0.4-0.2-0.8-0.2-1.3c0.1-0.9,0.8-1.8,1.7-2
				c0.2,0,0.5,0,0.7,0.1c0.2,0.1,0.4,0.4,0.5,0.6c0.2,0.4,0.2,0.9,0.3,1.3c0.1,0.9,0.1,1.8,0.1,2.7l-0.1,2.6c0,0.4,0,0.9-0.1,1.3
				c-0.1,0.2-0.2,0.4-0.3,0.6C15.4,45.6,15.2,45.6,14.9,45.6z"/>
		</g>
		<g id="ArmBottom_19_">
			<path class="st9" d="M12.6,28.9c0,0,0,2.7-0.3,3.1c-0.3,0.4,0,2,0,2l-0.4,1.1c0,0,0.4,2,0.3,2.8c0,0.8,0.3,3.2,0.3,3.2
				s0.4-1,1-1.8c0.6-0.7,0.6-1.5,0.6-1.5v1.8c0,0,0.4-0.7,0.6-1.1s0.3-0.7,0.3-0.7l0.5,1.5c0,0,0.1-0.7,0.6-0.3
				c0.4,0.4,0.8,1.2,0.8,1.2s-0.2-1.3-0.4-2.4c-0.3-1-0.1-1.9-0.1-1.9s0.1-1.5-0.2-2.5c-0.3-1-0.1-2.8,0-3.6
				C16.4,27.9,13.1,26.6,12.6,28.9z"/>
			<g>
				<path d="M12.6,28.9c0,0.8,0.1,1.7,0,2.6c0,0.1,0,0.2-0.1,0.3c0,0.1-0.1,0.3-0.1,0.3c-0.1,0.2-0.1,0.4,0,0.6
					c0,0.4,0.1,0.8,0.2,1.2l0,0l0,0.1l0,0.1l-0.4,1.1l0-0.1c0.1,0.5,0.2,1,0.2,1.5c0.1,0.5,0.1,1,0.1,1.5c0.1,1,0.2,2,0.3,3L12.3,41
					c0.2-0.6,0.5-1.1,0.9-1.6c0.2-0.3,0.4-0.4,0.5-0.7c0.1-0.2,0.2-0.5,0.2-0.8l0.5,0v1.8L14,39.5l0.5-0.9c0.2-0.3,0.3-0.6,0.4-0.9
					l0.3-0.6l0.2,0.6l0.5,1.5l-0.5,0c0-0.1,0.1-0.2,0.1-0.4c0.1-0.1,0.2-0.3,0.4-0.3c0.2,0,0.3,0.1,0.4,0.2c0.1,0.1,0.1,0.2,0.2,0.2
					c0.3,0.3,0.5,0.7,0.7,1l0,0l-0.5,0.1l-0.3-2.1c-0.1-0.4-0.1-0.7-0.1-1.1c0-0.4,0-0.7,0-1.1l0,0c0.1-1,0-1.9-0.2-2.9
					c-0.1-1,0-1.9,0.1-2.9c0.2-1-0.4-1.9-1.3-2.3c-0.4-0.2-1-0.2-1.4-0.1C13,28,12.7,28.4,12.6,28.9z M12.5,28.9
					c0.1-0.5,0.4-0.9,0.9-1.1c0.5-0.2,1-0.1,1.4,0.1c0.4,0.2,0.8,0.5,1.1,0.9c0.3,0.4,0.3,0.9,0.3,1.4c-0.1,1-0.1,1.9,0,2.9
					c0.2,0.9,0.3,1.9,0.3,2.9l0,0c0,0.3,0,0.7,0,1.1c0,0.4,0.1,0.7,0.2,1l0.5,2.1l0.4,1.9l-0.9-1.7l0,0c-0.2-0.3-0.4-0.7-0.6-0.9
					c-0.1-0.1-0.3-0.3-0.3-0.3c0.1-0.1-0.1,0.1-0.1,0.2l-0.1,1.4l-0.4-1.3l-0.5-1.5l0.5,0c-0.2,0.3-0.3,0.6-0.4,0.9l-0.5,0.9
					l-0.5,0.8v-0.9v-1.8l0.5,0c0,0.4-0.1,0.7-0.2,1c-0.1,0.3-0.4,0.6-0.5,0.8c-0.3,0.5-0.6,1-0.9,1.5L12.4,42l-0.1-0.9
					c-0.1-1-0.3-2-0.3-3c0-0.5,0-1-0.1-1.5c-0.1-0.5-0.1-1-0.2-1.5l0-0.1l0-0.1l0.4-1.1l0,0.1l0,0c-0.1-0.4-0.1-0.9-0.1-1.3
					c0-0.2,0-0.5,0.1-0.7c0.1-0.2,0.1-0.2,0.1-0.3c0-0.1,0.1-0.2,0.1-0.3C12.4,30.6,12.5,29.7,12.5,28.9z"/>
			</g>
		</g>
		<path class="st1" d="M13.9,43.4c0,0,0.2,2,0.6,2.3c0.4,0.3,1.1,0.3,1.3,0c0.2-0.3,0.2-2-0.2-2.3C15.1,43.1,13.9,43.4,13.9,43.4z"
			/>
		<g>
			<path class="st9" d="M14,30.7c1.3,0.3,2.1-0.4,2.8-2.6c0.7-2.1,2.2-5.5,2.3-7.3c0.1-1.8-2.4-4.2-3.3-3.8c-0.8,0.3-1.2,3-1.5,3.8
				C14,21.7,14,22.4,14,22.4s-1,2.8-0.9,3.4c0,0.4-0.3,1.6-0.5,2.5c0,0.4,0,0.8,0.1,1C13.1,30,14,30.7,14,30.7z"/>
			<g>
				<path d="M14,30.7c0.5,0.1,1,0.1,1.4-0.2c0.4-0.3,0.7-0.7,0.9-1.1c0.1-0.5,0.2-1,0.3-1.4c0.2-0.5,0.3-0.9,0.5-1.4
					c0.7-1.8,1.6-3.5,2-5.4c0.2-1-0.3-1.9-0.9-2.7c-0.3-0.4-0.7-0.7-1.1-1c-0.4-0.2-0.9-0.5-1.2-0.4c-0.3,0.2-0.5,0.7-0.7,1.1
					c-0.1,0.4-0.3,0.9-0.4,1.4c-0.1,0.5-0.2,1-0.4,1.4c-0.1,0.4-0.2,0.9-0.2,1.3l0,0v0l0,0c-0.3,0.7-0.5,1.4-0.7,2.1
					c-0.1,0.4-0.2,0.7-0.3,1.1c0,0.4-0.1,0.8-0.2,1.1c-0.2,0.7-0.4,1.5-0.4,2.2c0,0.3,0.3,0.6,0.5,0.9C13.4,30.2,13.7,30.4,14,30.7z
					 M14,30.7c-0.3-0.2-0.6-0.5-0.9-0.7c-0.2-0.3-0.6-0.6-0.6-1c-0.1-0.8,0.1-1.5,0.3-2.3c0.1-0.4,0.2-0.7,0.1-1.1
					c0-0.4,0.1-0.8,0.2-1.1c0.2-0.7,0.4-1.5,0.6-2.2l0,0.1l0,0c0-0.5,0.1-1,0.3-1.5c0.2-0.4,0.3-0.9,0.4-1.4
					c0.1-0.5,0.3-0.9,0.4-1.4c0.2-0.4,0.3-1,0.9-1.3c0.3-0.1,0.6,0,0.8,0.1c0.2,0.1,0.4,0.3,0.6,0.4c0.4,0.3,0.7,0.7,1,1.1
					c0.6,0.8,1.1,1.7,1,2.7c-0.1,1-0.4,1.9-0.7,2.8c-0.3,0.9-0.6,1.8-0.9,2.7c-0.2,0.5-0.3,0.9-0.5,1.4c-0.1,0.5-0.4,0.9-0.7,1.3
					c-0.3,0.4-0.5,0.8-0.9,1.1C15,30.8,14.4,30.8,14,30.7z"/>
			</g>
		</g>
		<path class="st9" d="M17.7,21.8c0,0,2-0.9,1.9-1.9c0-1-0.9-4-3.2-3.1c-0.6,0.2-0.8,1.1-0.8,1.1L17.7,21.8"/>
		<path class="st9" d="M13,28.4c-0.9,0.4-0.5,1.5,0.6,2.3c1.2,0.7,2.2-0.6,2.2-0.6S15.1,27.4,13,28.4z"/>
		<path class="st8" d="M34.8,46.4c0,0-0.8-0.4-1.4,0.1c-0.6,0.5-1.5,1.9-1.8,2.3c-0.3,0.4-0.5,1.5-0.6,1.7c0,0.1,0.9,2.1,0.9,2.1
			s-0.4-2.1-0.1-2.7c0.3-0.7,1.9-2.4,1.9-2.4L34.8,46.4z"/>
		<path class="st4" d="M32.4,51.7c0-0.7,0.1-1.9,0.2-2.6l0,0c0,0-0.1-0.4,0-1.1c0.1-0.7,0.5-1.2,0.5-1.2s0.1-1,0.5-1.2
			c0.3-0.3,0.8-1.8,2.3-1c0,0,0.2,1.8,0.5,2.5c0.2,0.5,0.9,2.6,1.1,3.4c0.2,0.8-0.7,4.1-0.7,4.1c0,0-0.4,0.9-0.4,0.9
			s0.4-1.8,0.3-2.1c-0.1-0.4,0-2.7,0-2.7l-0.3-1.4c-0.1,0.1-0.1,1.4-0.1,1.8c0.1,0.7-0.9,5-0.9,5v-1.7c0,0,0-2.5,0-3
			c0-0.7-0.1-1.5-0.1-1.9c-0.2,0-0.4,1.9-0.4,1.9l-0.7,5.1c0,0-0.2-2.8-0.2-4c0-0.8,0.1-2.2,0.1-3c-0.2,0-0.6,0.5-0.7,0.8
			c-0.2,0.8-0.4,1.8-0.4,1.8l-0.2,2.3C32.9,54.6,32.3,52.8,32.4,51.7z"/>
		<g>
			<path class="st1" d="M34.8,45.6c-0.6,0.1-1-0.3-1-1.9c0-1.5-0.4-5.8,0.3-7s2.9,0.3,2.5,1.9C36.2,40.7,36.6,45.2,34.8,45.6z"/>
			<path d="M34.8,45.6c-0.2,0.1-0.5,0-0.6-0.1c-0.2-0.2-0.3-0.4-0.3-0.6c-0.1-0.4-0.1-0.9-0.1-1.3l-0.1-2.6c0-0.9,0-1.8,0.1-2.7
				c0.1-0.4,0.1-0.9,0.3-1.3c0.1-0.2,0.2-0.4,0.5-0.6c0.2-0.1,0.5-0.2,0.7-0.1c0.9,0.2,1.7,1,1.7,2c0,0.5-0.2,0.9-0.2,1.3
				c-0.1,0.4-0.1,0.9-0.1,1.3c-0.1,0.9-0.1,1.8-0.3,2.6c-0.1,0.4-0.2,0.9-0.4,1.3C35.6,45.1,35.3,45.5,34.8,45.6z M34.8,45.6
				c0.4-0.1,0.7-0.5,0.9-0.9c0.1-0.4,0.2-0.8,0.3-1.3c0.2-0.9,0.2-1.7,0.3-2.6c0-0.4,0.1-0.9,0.1-1.3c0-0.4,0.2-0.9,0.2-1.3
				c0-0.8-0.7-1.6-1.5-1.7c-0.4-0.1-0.8,0.2-0.9,0.6c-0.2,0.4-0.2,0.8-0.3,1.3c-0.1,0.9-0.1,1.7,0,2.6l0.1,2.6c0,0.4,0,0.9,0.1,1.3
				c0,0.2,0.1,0.4,0.2,0.6C34.4,45.6,34.6,45.6,34.8,45.6z"/>
		</g>
		<g id="ArmBottom_17_">
			<path class="st9" d="M37.2,28.9c0,0,0,2.7,0.3,3.1c0.3,0.4,0,2,0,2l0.4,1.1c0,0-0.4,2-0.3,2.8S37.2,41,37.2,41s-0.4-1-1-1.8
				c-0.6-0.7-0.6-1.5-0.6-1.5v1.8c0,0-0.4-0.7-0.6-1.1c-0.2-0.4-0.3-0.7-0.3-0.7l-0.5,1.5c0,0-0.1-0.7-0.6-0.3
				c-0.4,0.4-0.8,1.2-0.8,1.2s0.2-1.3,0.4-2.4c0.3-1,0.1-1.9,0.1-1.9s-0.1-1.5,0.2-2.5c0.3-1,0.1-2.8,0-3.6
				C33.4,27.9,36.7,26.6,37.2,28.9z"/>
			<g>
				<path d="M37.3,28.9c0,0.9,0.1,1.7,0.2,2.5c0,0.1,0,0.2,0.1,0.3c0,0.1,0.1,0.1,0.1,0.3c0.1,0.3,0.1,0.5,0.1,0.7
					c0,0.5,0,0.9-0.1,1.3l0,0l0-0.1l0.4,1.1l0,0.1l0,0.1c-0.1,0.5-0.2,1-0.2,1.5c-0.1,0.5-0.1,1-0.1,1.5c-0.1,1-0.2,2-0.3,3L37.4,42
					L37,41.1c-0.2-0.5-0.5-1.1-0.9-1.5c-0.2-0.2-0.4-0.5-0.5-0.8c-0.1-0.3-0.2-0.6-0.2-1l0.5,0v1.8v0.9l-0.5-0.8l-0.5-0.9
					c-0.2-0.3-0.3-0.6-0.4-0.9l0.5,0l-0.5,1.5L34,40.7L34,39.3c0-0.1-0.2-0.3-0.1-0.2c0,0-0.2,0.1-0.3,0.3c-0.2,0.3-0.4,0.6-0.6,0.9
					l0,0L32.1,42l0.4-1.9L33,38c0.1-0.4,0.2-0.7,0.2-1c0-0.4,0-0.7,0-1.1l0,0c0-1,0.1-2,0.3-2.9c0.1-0.9,0.1-1.9,0-2.9
					c-0.1-0.5,0-1,0.3-1.4c0.3-0.4,0.7-0.7,1.1-0.9c0.4-0.2,0.9-0.3,1.4-0.1C36.8,27.9,37.2,28.4,37.3,28.9z M37.2,28.9
					c-0.1-0.4-0.3-0.9-0.8-1.1c-0.4-0.2-1-0.1-1.4,0.1c-0.9,0.4-1.6,1.3-1.3,2.3c0.1,1,0.2,1.9,0.1,2.9c-0.2,0.9-0.3,1.9-0.2,2.9
					l0,0c0.1,0.4,0.1,0.7,0,1.1c0,0.4-0.1,0.7-0.1,1.1L33,40.2l-0.5-0.1l0,0c0.2-0.4,0.4-0.7,0.7-1c0.1-0.1,0.1-0.2,0.2-0.2
					c0.1-0.1,0.2-0.2,0.4-0.2c0.3,0,0.4,0.2,0.4,0.3c0.1,0.1,0.1,0.2,0.1,0.4l-0.5,0l0.5-1.5l0.2-0.6l0.3,0.6
					c0.1,0.3,0.3,0.6,0.4,0.9l0.5,0.9l-0.5,0.1v-1.8l0.5,0c0,0.2,0.1,0.5,0.2,0.8c0.1,0.3,0.3,0.4,0.5,0.7c0.4,0.5,0.7,1.1,0.9,1.6
					L37,41c0.1-1,0.3-2,0.3-3c0-0.5,0-1,0.1-1.5c0.1-0.5,0.1-1,0.2-1.5l0,0.1L37.3,34l0-0.1l0-0.1l0,0c0.1-0.4,0.2-0.8,0.2-1.2
					c0-0.2,0-0.4,0-0.6c0,0-0.1-0.2-0.1-0.3c0-0.1-0.1-0.2-0.1-0.3C37.1,30.6,37.1,29.7,37.2,28.9z"/>
			</g>
		</g>
		<path class="st1" d="M35.9,43.4c0,0-0.2,2-0.6,2.3c-0.4,0.3-1.1,0.3-1.3,0c-0.2-0.3-0.2-2,0.2-2.3C34.7,43.1,35.9,43.4,35.9,43.4z
			"/>
		<g>
			<path class="st9" d="M35.8,30.7c-1.3,0.3-2.1-0.4-2.8-2.6c-0.7-2.1-2.2-5.5-2.3-7.3c-0.1-1.8,2.4-4.2,3.3-3.8
				c0.8,0.3,1.2,3,1.5,3.8c0.3,0.8,0.3,1.6,0.3,1.6s1,2.8,0.9,3.4c0,0.4,0.3,1.6,0.5,2.5c0,0.4,0,0.8-0.1,1
				C36.7,30,35.8,30.7,35.8,30.7z"/>
			<path d="M35.8,30.7c-0.5,0.1-1,0.1-1.4-0.2c-0.4-0.3-0.7-0.7-0.9-1.1c-0.3-0.4-0.6-0.8-0.7-1.3c-0.1-0.5-0.3-0.9-0.5-1.4
				c-0.3-0.9-0.7-1.8-0.9-2.7c-0.3-0.9-0.6-1.9-0.7-2.8c-0.2-1,0.4-1.9,1-2.7c0.3-0.4,0.6-0.8,1-1.1c0.2-0.2,0.4-0.3,0.6-0.4
				c0.2-0.1,0.5-0.2,0.8-0.1c0.5,0.3,0.7,0.8,0.9,1.3c0.2,0.5,0.3,0.9,0.4,1.4c0.1,0.5,0.2,0.9,0.4,1.4c0.2,0.5,0.3,1,0.3,1.5l0,0
				l0-0.1c0.2,0.7,0.4,1.4,0.6,2.2c0.1,0.4,0.2,0.7,0.2,1.1c0,0.4,0,0.7,0.1,1.1c0.1,0.7,0.3,1.5,0.3,2.3c0,0.4-0.4,0.7-0.6,1
				C36.4,30.2,36.1,30.5,35.8,30.7z M35.8,30.7c0.3-0.2,0.5-0.5,0.8-0.8c0.2-0.3,0.5-0.6,0.5-0.9c0-0.7-0.2-1.5-0.4-2.2
				c-0.1-0.3-0.2-0.8-0.2-1.1c0-0.3-0.1-0.7-0.3-1.1c-0.2-0.7-0.5-1.4-0.7-2.1l0,0v0v0c0-0.4-0.1-0.9-0.2-1.3
				c-0.2-0.5-0.3-1-0.4-1.4c-0.1-0.5-0.2-0.9-0.4-1.4c-0.1-0.4-0.3-0.9-0.7-1.1c-0.3-0.1-0.8,0.2-1.2,0.4c-0.4,0.3-0.8,0.6-1.1,1
				c-0.6,0.7-1.1,1.7-0.9,2.7c0.4,1.9,1.3,3.6,2,5.4c0.2,0.5,0.4,0.9,0.5,1.4c0.2,0.4,0.2,0.9,0.3,1.4c0.2,0.5,0.5,0.9,0.9,1.1
				C34.8,30.8,35.3,30.8,35.8,30.7z"/>
		</g>
		<path class="st9" d="M32.1,21.8c0,0-2-0.9-1.9-1.9c0-1,0.9-4,3.2-3.1c0.6,0.2,0.8,1.1,0.8,1.1L32.1,21.8"/>
		<path class="st9" d="M36.8,28.4c0.9,0.4,0.5,1.5-0.6,2.3c-1.2,0.7-2.2-0.6-2.2-0.6S34.7,27.4,36.8,28.4z"/>
		<path d="M22.9,43.7c0,0,0-0.1,0-0.2c0.1-1.1,0.3-6.1,0.3-7.6c0-1.7-0.5-14.5-0.2-15.9c0.3-1.4-0.9-8.5-1.7-7.6
			c-0.9,0.9-1,14.4-0.8,17C20.7,32,22.9,43.7,22.9,43.7z"/>
		<path d="M28.2,41.5c0,0-0.7-12.9-0.6-14.7c0.2-1.8,0.2-10.4,0.2-10.4s1-3.7,1.1,1.2c0.1,4.9,1.1,14,0.9,16.2
			C29.5,36,29.4,44,29.4,45.1c0,1.2,0,1.2,0,1.2S28.3,43.3,28.2,41.5z"/>
		<path class="st10" d="M18.2,41.1c0,0,0.1-9.3,0-11.2c-0.1-1.9-0.3,4.3-0.3,4.3s-0.5-7.8-0.3-10.2c0.2-2.4,0.2-8.6,0.7-11.2
			c0.5-2.6,1.3-4.4,2.6-5.2c1.3-0.7,2.6-0.7,3.2-0.5c0.6,0.2,1.4,0.5,1.4,0.5s1.5-0.8,2.4-0.5c1,0.3,2.4,1.9,2.9,2.3
			c0.5,0.4,0.6,3.8,0.8,4c0.2,0.2,1,6.9,1.1,9.3c0.1,2.4,0,16,0,16l0,3.5c0,0-0.4-6.7-0.7-6.2c-0.3,0.5-0.4,7.3-0.4,7.3
			s-0.1,3.5-0.4,4.6c-0.3,1.1-0.3,1.1-0.3,1.1s0.2-10.7-0.1-11.5c-0.4-0.8-0.9,2.9-0.9,2.9c0,2.3-0.4,3.7-0.4,3.7s-0.5-2.9-0.6-5
			c-0.1-2.1-0.1-13.8-0.3-14.8c-0.2-1.1,0.1-8.6-0.7-9.3c-0.8-0.7-5.8-0.5-6.3,0.4c-0.5,0.9,0.4,9.4,0.5,12.7
			c0.1,3.3,0.4,9.5,0.4,9.5s-0.9-3.7-0.9-2.6c0,1.1,0.3,7.4,0.1,9.4c-0.2,1.9-0.1,4.2-0.1,4.2s-1.1-2.5-1.3-5.5
			c-0.2-3.1-0.8-7-0.8-7s0,4.7-0.3,6c-0.3,1.3-0.3,1.3-0.3,1.3S18.9,40.2,18.2,41.1z"/>
		<g>
			<g>
				<path d="M30.5,31.6c-0.2-1.8,2.2-2.5,2.1-4.3c-0.1-0.9-0.9-1.7-1.8-1.4c-0.2,0.1-0.4,0.2-0.3,0.4c0.2,0.4,0.7,0.5,0.9,0.9
					c0.4,0.7-0.3,1.5-0.7,2.1c-0.5,0.7-0.9,1.5-0.6,2.3C30.1,31.9,30.5,31.8,30.5,31.6L30.5,31.6z"/>
			</g>
		</g>
		<g>
			<g>
				<path d="M30.6,25.8c-0.9-2,1.1-2.7,2.2-4c1-1.2-0.3-2.8-0.8-4.1c-0.1-0.2-0.6,0-0.6,0.2c0.1,1,0.8,2.9,0.3,3.7
					c-0.4,0.7-1.3,1-1.9,1.6c-0.8,0.9-1,2.2,0.3,2.7C30.1,26,30.6,25.9,30.6,25.8L30.6,25.8z"/>
			</g>
		</g>
		<g>
			<g>
				<path d="M32.5,28.5c0.9,0.9,0.8,2.1,0.4,3.3c-0.3,1-0.4,2.1-0.7,3.1c-0.3,1.1-1.3,1.7-1.8,2.6c-0.6,0.9-0.9,1.9-1.1,2.9
					c0,0.2,0.5,0.1,0.6-0.1c0.4-0.9,0.7-2,1.3-2.8c0.5-0.7,1.3-1.2,1.8-1.9c0.5-0.8,0.4-1.8,0.6-2.7c0.4-1.7,1.4-3.6-0.6-4.7
					C32.9,28.1,32.3,28.3,32.5,28.5L32.5,28.5z"/>
			</g>
		</g>
		<g>
			<g>
				<path d="M31.8,36.2c-0.7-0.4-1.7-0.6-2.5-0.3c-0.7,0.2-1.6,0.6-1.8,1.4c-0.5,1.6,2.4,1.6,2.8,0.4c0.1-0.2-0.2,0.2-0.3,0.2
					c-0.1,0-0.3,0.1-0.4,0.1c-0.1,0-0.1,0,0,0c0.3,0.1,0.8,0.1,1.1,0.1c0.5-0.1,1.1-0.3,1.4-0.7C32.2,37,32.2,36.5,31.8,36.2
					L31.8,36.2z"/>
			</g>
		</g>
		<g>
			<g>
				<path d="M30.5,36.8c-0.1,0.5,0,0.9,0.2,1.3c0.3,0.6,1.1,0.6,1.7,0.4c0.4-0.1,1.4-0.6,1.2-1.2c-0.1-0.3-0.1-0.7-0.2-1
					c-0.2-0.6-1-0.6-1.5-0.5C31.3,35.8,30.7,36.1,30.5,36.8L30.5,36.8z"/>
			</g>
		</g>
		<g>
			<g>
				<path d="M33.9,34.8c0.2-0.5-0.8-0.4-0.9-0.4c-0.6,0-1.2,0.2-1.7,0.4c-0.2,0.1-0.7,0.4-0.2,0.6c0.1,0,0.2,0,0.3,0.1
					c0.7-0.3,1.3-0.7,2-1c0,0,0,0,0,0c-0.7,0-1.4,0.2-2,0.5c-0.2,0.1-0.8,0.5-0.2,0.6c0,0,0,0,0.1,0c-0.1-0.1-0.2-0.1-0.3-0.2
					c0,0,0,0,0,0c0.2-0.1,0.4-0.3,0.6-0.4c0,0,0,0-0.1,0c0.8-0.1,1.5-0.2,2.3-0.4C34,34.6,34,34.6,33.9,34.8c-1,0.2-2,0.5-3,0.8
					c0.1,0.1,0.2,0.2,0.3,0.2c0.6,0.2,1.4,0,2-0.2c0.2-0.1,1.4-0.5,1-0.8c-0.2-0.1-0.3-0.2-0.5-0.2c-0.5-0.2-1.3,0.1-1.8,0.3
					c-0.1,0-1.2,0.5-1,0.7c0.2,0.3,0.6,0.3,1,0.2c0.6-0.1,1.3-0.2,1.9-0.6c0.1-0.1,0.4-0.2,0.4-0.4c0-0.3-0.5-0.3-0.6-0.3
					c-0.4,0.4-0.8,0.7-1.3,1.1c0,0,0,0,0,0c0.5-0.1,1.1-0.2,1.6-0.5c0.1,0,0.7-0.4,0.4-0.6c-0.7-0.2-1.3-0.1-2,0
					c-0.2,0.3-0.3,0.6-0.5,0.8c-0.1,0-0.2,0-0.2,0c0.1,0,0.2,0,0.2,0c0.2,0,0.4,0,0.6,0C32.6,35.4,33.8,35.2,33.9,34.8L33.9,34.8z"
					/>
			</g>
		</g>
		<g>
			<g>
				<path d="M33.2,33.1C33.2,33.1,33.2,33.1,33.2,33.1c-0.2,0-0.4,0.1-0.4,0.3c0,0,0,0,0,0c0,0.1,0.1,0.2,0.2,0.2
					c0.4,0,0.7-0.4,1.1-0.6c0.4-0.3-0.1-0.6-0.4-0.4c-0.3,0.1-0.5,0.3-0.7,0.6c-0.1,0.1-0.1,0.2,0,0.3c0.3,0.3,0.7-0.3,1-0.4
					c-0.1-0.1-0.3-0.3-0.4-0.4C33.5,32.8,33.3,32.9,33.2,33.1c0,0-0.1,0-0.1,0C33,33.2,33,33.2,33.2,33.1c0.1,0.1,0.2,0.2,0.3,0.3
					c0,0,0,0,0,0c-0.1,0.1-0.3,0.2-0.4,0.3c0,0,0,0,0,0C33.6,33.6,33.7,33.1,33.2,33.1L33.2,33.1z"/>
			</g>
		</g>
		<g>
			<g>
				<path d="M32.6,31.4c0,0,0.1,0,0.1,0C32.6,31.4,32.5,31.4,32.6,31.4c0.1,0.1,0.3,0.2,0.4,0.4c0.2,0.3,1.4-0.1,1.1-0.5
					c-0.3-0.5-1-0.4-1.5-0.3C32.5,31.1,32.2,31.4,32.6,31.4L32.6,31.4z"/>
			</g>
		</g>
		<g>
			<g>
				<path d="M34.2,28.8c-0.4,0.2-1,0.4-1.2,0.9c-0.1,0.2,0.3,0.2,0.4,0.2c0.2,0,0.5-0.1,0.6-0.3c0.1-0.1,0.1-0.1,0.2-0.2
					c0-0.1,0.1-0.1,0-0.2c0,0,0,0,0,0c0,0.1,0,0.1-0.1,0.2c0.1-0.1,0.3-0.2,0.4-0.4C34.8,28.7,34.3,28.8,34.2,28.8L34.2,28.8z"/>
			</g>
		</g>
		<g>
			<g>
				<path d="M33,30c0.2-0.3,0.1-0.3,0-0.6c0-0.4,0.4-0.4,0.5-0.7c0.3-0.9-2.1-0.4-2.4-0.3c-0.5,0.1-1,0.3-1.3,0.7
					c-0.1,0.1-0.2,0.2-0.2,0.4c0.1,0.2,0.2,0.2,0.4,0.3c0.1,0.1,0.1,0.4,0.2,0.6c0.1,0.3,0.3,0.3,0.6,0.4C31.4,30.9,32.6,30.6,33,30
					L33,30z"/>
			</g>
		</g>
		<g>
			<g>
				<path d="M31.1,28.1c0.4-0.1,0.9-0.3,1.2-0.5c0.6-0.4-0.3-0.6-0.7-0.3c-0.3,0.2-0.5,0.4-0.8,0.6C30.7,28.1,30.9,28.2,31.1,28.1
					L31.1,28.1z"/>
			</g>
		</g>
		<g>
			<g>
				<path d="M31.9,25.7c-0.3,0.2-0.8,0.5-0.8,0.8c0,0.2,0.4,0.1,0.5,0.1c0.4-0.2,0.6-0.5,0.9-0.9C32.7,25.5,32,25.6,31.9,25.7
					L31.9,25.7z"/>
			</g>
		</g>
		<g>
			<g>
				<path d="M28.8,30.7c-0.2,0-0.3,0.1-0.1,0.1c0.6,0.4,4.2-0.5,3.8-1.2c-0.4-0.7-1.7-0.4-2.3-0.2c-0.5,0.1-1,0.3-1.4,0.6
					c-0.1,0.1-0.3,0.2-0.3,0.4C28.5,30.5,28.8,30.9,28.8,30.7L28.8,30.7z"/>
			</g>
		</g>
		<g>
			<g>
				<path d="M31,30.7c-0.2,0,0.3-0.9,0.3-0.9c0.2-0.4,0.5-0.7,0.6-1.1c0.2-0.5,0.7-1,0.3-1.5c-0.1-0.2-0.5-0.1-0.6,0.1
					c-0.1,0.2-0.1,0.5-0.1,0.7c-0.1,0.4-0.3,0.5-0.5,0.8c-0.3,0.4-0.7,0.9-0.8,1.4c-0.2,0.7,0.3,1.1,0.9,0.9
					C31.3,31.1,31.4,30.7,31,30.7L31,30.7z"/>
			</g>
		</g>
		<g>
			<g>
				<path d="M34.2,21.2c-0.6-0.1-0.9-0.5-1.5-0.3c-0.1,0-0.3,0.1-0.3,0.2c0,0,0,0,0,0.1c0,0.2,0.2,0.2,0.3,0.3c0.4,0,0.8,0,1.2,0.1
					C34,21.5,34.5,21.3,34.2,21.2L34.2,21.2z"/>
			</g>
		</g>
		<g>
			<g>
				<path d="M29,22.2c0.1,0.2,0.2,0.2,0.2,0.4c0.1,0.1,0.2,0.2,0.4,0.2c0,0,0.1,0,0.1,0c0.4,0.1,0.9,0,1.3-0.1
					c0.6-0.1,1.3-0.3,1.8-0.6c0.2-0.1,0.7-0.3,0.7-0.6c0-0.3-0.5-0.4-0.7-0.4c-0.5,0-1,0.1-1.4,0.2c-0.4,0.1-0.4,0.1,0.1,0
					c-0.2,0-0.3,0-0.5,0C30.8,21.4,28.8,21.8,29,22.2L29,22.2z"/>
			</g>
		</g>
		<g>
			<g>
				<path d="M32.8,23.6c-0.1-0.2-0.1-0.3-0.2-0.5c-0.1,0.2-0.2,0.5-0.3,0.7c0,0,0.1-0.1,0.1-0.1c-0.2,0.2-0.4,0.3-0.7,0.5
					c0.7-0.3,1.7-1,1.4-1.8c-0.3-1-1.8-1-2.6-0.8c-0.8,0.2-2.2,0.9-1.9,2c0.1,0.4,0.4,0.6,0.7,0.7c0.2,0.1,0.5,0.2,0.7,0.2
					c0.6,0,0.8,0,0.4,0c-0.3-0.2-0.6-0.4-0.9-0.6c0,0.2,0.1,0.3,0.2,0.5c0.2,0.6,1.2,0.7,1.7,0.5C32.1,24.7,33,24.2,32.8,23.6
					L32.8,23.6z"/>
			</g>
		</g>
		<g>
			<g>
				<path d="M29.1,24c-0.2,0-1,0-0.8,0.4c0.1,0.1,0.5,0,0.6,0C28.9,24.3,29.3,24.1,29.1,24L29.1,24z"/>
			</g>
		</g>
		<g>
			<g>
				<path d="M28.6,25.3c0,0,0.1,0,0.1,0c1.1,0.3,2.8-0.1,3.2-1.4c0.4-1.4-1.4-1.7-2.4-1.5c-0.1,0-0.1,0-0.2,0
					c-0.7,0.2-1.4,0.6-1.6,1.3C27.6,24.5,27.9,25.1,28.6,25.3L28.6,25.3z"/>
			</g>
		</g>
		<g>
			<g>
				<path d="M32.8,18.9c-0.3,0.2-0.7,0.4-1,0.6c-0.2,0.2-0.1,0.4,0.2,0.4c0.3,0.1,0.6-0.1,0.8-0.3c0.2-0.2,0.3-0.4,0.5-0.5
					C33.6,18.8,33,18.7,32.8,18.9L32.8,18.9z"/>
			</g>
		</g>
		<g>
			<g>
				<path d="M21.5,35.7c0.9-2.1,0.5-3.9-0.6-5.9c-1.1-1.9-4.6-5.2-1.8-7.4c0.4-0.3-0.4-0.3-0.6-0.2c-1.7,1-2,2.8-1.2,4.5
					c1.5,3.2,4.2,5,3.7,9C21,36,21.4,35.8,21.5,35.7L21.5,35.7z"/>
			</g>
		</g>
		<g>
			<g>
				<path d="M17.8,28.6c0.3-0.2,0.6-0.4,1-0.6c0.1,0,0.1-0.1,0.1-0.2c0,0,0,0,0-0.1c0-0.1-0.4,0-0.5,0c-0.4,0.2-0.8,0.4-1,0.8
					C17.4,28.7,17.8,28.6,17.8,28.6L17.8,28.6z"/>
			</g>
		</g>
		<g>
			<g>
				<path d="M19.1,25.2C18.8,25,18.4,25,18,25c-0.3,0-0.7,0-0.9,0.3c-0.1,0.1-0.1,0.2,0,0.2c0.2,0.2,0.4,0.2,0.6,0.1
					c0.4-0.1,0.8-0.1,1.1-0.1C18.9,25.5,19.3,25.3,19.1,25.2L19.1,25.2z"/>
			</g>
		</g>
		<g>
			<g>
				<path d="M19.1,30.4c0.1,0,0.5-0.2,0.3-0.2C19.3,30.2,18.9,30.4,19.1,30.4L19.1,30.4z"/>
			</g>
		</g>
		<g>
			<g>
				<path d="M20.2,30.6c0.3-0.2,0.5-0.3,0.6-0.6c-0.6,0.3-1.3,0.5-1.9,0.8c0.6,0,1.1-0.1,1.6-0.4c-0.3,0.1-0.7,0.2-1,0.3
					c0,0,0,0,0.1,0c0.7-0.1,1.7-0.4,2.1-1.1c0.4-0.6-0.1-1-0.6-1.1c-0.8-0.1-1.6,0-2.2,0.4c-0.5,0.2-1.4,0.9-0.8,1.5
					c-0.2-0.2-0.1-0.1,0,0.1c0-0.1,0.1-0.3,0.1-0.4c-0.1,0.1-0.1,0.2-0.1,0.3C17.8,31.4,19.8,30.9,20.2,30.6L20.2,30.6z"/>
			</g>
		</g>
		<g>
			<g>
				<path d="M23.1,30.9c0-0.1-0.1-0.1-0.1-0.2c0-0.1-0.1-0.2-0.2-0.2c-0.1-0.2-0.2-0.4-0.3-0.5c-0.7-0.6-2.2-0.2-2.9,0.2
					c-0.3,0.2-0.7,0.4-0.7,0.8c-0.1,0.5,0.4,0.6,0.7,0.7c0.6,0.1,1.3,0.1,1.9-0.1c-0.4,0-0.9,0-1.3,0c0.5,0.2,1,0.3,1.5,0.3
					C21.9,31.8,23.4,31.5,23.1,30.9L23.1,30.9z"/>
			</g>
		</g>
		<g>
			<g>
				<path d="M19.1,27.8c-0.3,0.1-0.5,0.3-0.7,0.5c0.3-0.1,0.5-0.3,0.8-0.4c-0.5,0.2-1.3,0.4-1.6,0.8c-0.4,0.5,0.5,0.5,0.8,0.5
					c0.8,0,1.5-0.2,2.2-0.5c0.2-0.1,0.5-0.2,0.7-0.4c0,0,0.1-0.6,0-0.8c-0.1-0.2-0.7-0.1-0.8-0.1C20,27.4,19.5,27.6,19.1,27.8
					L19.1,27.8z"/>
			</g>
		</g>
		<g>
			<g>
				<path d="M21.2,33.7c0.4-0.2,0.8-0.4,1.2-0.7c-0.3,0.1-0.6,0.3-1,0.4c0,0,0.1,0,0.1,0c0.6-0.1,1.5-0.6,1.8-1.2
					c0.2-0.6-0.2-1-0.8-1.1c-0.7-0.1-1.5,0-2.2,0.3c-0.5,0.2-1.5,0.8-1.3,1.5c0,0.1-0.1,0.1,0,0.3c0,0.1,0.2,0.3,0.2,0.5
					C19.7,34.3,20.7,33.9,21.2,33.7L21.2,33.7z"/>
			</g>
		</g>
		<g>
			<g>
				<path d="M23.4,32.9c-0.1,0-0.1,0-0.2-0.1c0.2,0.2,0.4,0.3,0.6,0.5c0,0-0.1-0.1,0-0.2c-0.1-0.6-0.9-0.7-1.4-0.7
					c-0.7,0-1.6,0.3-2,0.9c-0.3,0.4-0.3,0.9,0.2,1.2c0.6,0.4,1.5,0.2,2.1-0.1c0,0-0.1,0-0.1,0c-0.3,0-0.5,0.1-0.8,0.1
					c0.1,0,0.1,0,0.2,0c0.6,0.1,1.4-0.2,1.8-0.7C24.1,33.5,23.9,33.1,23.4,32.9L23.4,32.9z"/>
			</g>
		</g>
		<g>
			<g>
				<path d="M18,18.8c0.4-1-1.2-1.9-1-3c0.1-0.6,0.7-0.8,1.1-1.2c0.4-0.3,0.6-0.7,0.7-1.1c0.1-0.4-0.7-0.2-0.8,0
					c-0.6,0.9-2,1.2-2.2,2.4c-0.2,1.4,1.3,1.8,1.6,3C17.5,19.1,18,18.9,18,18.8L18,18.8z"/>
			</g>
		</g>
		<g>
			<g>
				<path d="M16.7,13.9c0.3,0.1,0.6,0.2,0.8,0.5c0.3,0.4,1.3-0.2,0.9-0.5c-0.4-0.3-0.9-0.4-1.5-0.4C16.8,13.5,16.4,13.8,16.7,13.9
					L16.7,13.9z"/>
			</g>
		</g>
		<g>
			<g>
				<path d="M17.8,15.8c-0.2-0.3-0.4-0.7-0.7-0.8c-0.1-0.1-0.7,0-0.7,0.3c0.1,0.3,0.5,0.6,0.8,0.8C17.3,16.1,17.9,16,17.8,15.8
					L17.8,15.8z"/>
			</g>
		</g>
		<g>
			<g>
				<path d="M16.1,17.8c0.3-0.3,0.7-0.6,1-0.9c0.2-0.2-0.2-0.2-0.3-0.2c-0.2,0-0.6,0.1-0.7,0.3c-0.2,0.3-0.5,0.6-0.7,0.9
					C15.3,18,16,17.9,16.1,17.8L16.1,17.8z"/>
			</g>
		</g>
		<g>
			<g>
				<path d="M18.5,17.6c-0.5-0.1-0.9-0.1-1.3,0.1c-0.1,0-0.4,0.1-0.3,0.3c0,0,0,0,0,0c0,0.1,0.1,0.1,0.2,0.1c0.3,0,0.6-0.2,1-0.2
					C18.1,17.9,18.7,17.6,18.5,17.6L18.5,17.6z"/>
			</g>
		</g>
		<path class="st11" d="M25.3,23.9c1.1,0,1.5-0.4,1.8-0.9c0.3-0.5,1-2.3,1.7-3.1c0.7-0.8,0.7-1.8,0.5-2.9c-0.2-1,0.1-4.1-1.3-5.3
			c-1.4-1.1-1.8,0.2-3,0.3c-1.3,0.1-3.1-0.8-3.4,1c-0.3,1.6-0.2,3.1-0.3,4c-0.1,0.9,0.2,1.1,0.3,1.7c0.1,0.6,0.2,1.2,0.2,1.2
			s0.7,1.1,1.2,2C23.7,23.2,24.3,23.8,25.3,23.9z"/>
		<path d="M26.4,18.9c0,0,0.3-0.3,0.1-0.5c-0.1-0.2-0.3,0.1-0.5,0c-0.3-0.1-0.3-0.7-0.4-0.9c-0.1-0.3,0-0.8,0-0.8s0,0.8,0.3,0.8
			c0.2,0,0.2,0.5,0.3,0.5c0,0,0.5-0.2,0.5-0.2c0.1-0.1,0.3,0.1,0.4-0.2c0.2-0.4,0.4-0.3,0.6-0.5c0.2-0.1,0.6-0.7,0.9-0.6
			c0.2,0.1,0.3,0.1,0.4,0c0.1,0,0.1,0,0.1,0.1c0.1,0.3,0.2,1,0.2,1.2c0,0.3-0.3,0.7-0.5,0.7c-0.2,0-0.6,0.3-1.1,0.3
			c-0.5,0-0.7,0-0.8,0.1C26.8,19,26.4,18.9,26.4,18.9z"/>
		<path class="st12" d="M24.4,18.6c0,0-0.3-0.4-0.2-0.5c0.1-0.1,0.6,0.4,0.8,0.1c0.2-0.3,0.1-1.4,0.1-1.4s0,1-0.3,1.1
			c-0.4,0.1-0.4-0.2-0.4-0.2s-0.2-0.6-0.5-0.6c-0.3,0-0.8-1-0.8-1s-1,0.4-1.2,0.5s-0.2,0.3-0.2,0.7c0,0.3,0.1,1.2,0.3,1.2
			C22.1,18.4,24.3,18.9,24.4,18.6z"/>
		<path class="st13" d="M26.8,18.6c0,0,0-0.5,0.2-0.7c0.3-0.2,1.5-0.6,1.6-0.5c0.1,0.1,0.2,0.3,0.2,0.5c0,0.2-0.1,0.3-0.1,0.3
			s-0.8,0-1.1,0.1C27.3,18.4,26.8,18.6,26.8,18.6z"/>
		<path class="st14" d="M27.3,17.8c0,0-0.1,0.2,0,0.4c0.1,0.2,0.2,0.3,0.2,0.3s0.3-0.1,0.6-0.2c0.3,0,0.6,0,0.6,0s0-0.3,0-0.5
			c0-0.2-0.2-0.4-0.2-0.4S27.6,17.5,27.3,17.8z"/>
		<path class="st12" d="M28.3,17.7c0-0.2-0.1-0.3-0.3-0.3s-0.3,0.1-0.3,0.3c0,0.2,0.1,0.3,0.3,0.3S28.3,17.9,28.3,17.7z"/>
		<path class="st13" d="M24.2,18.6c0,0-0.1-0.4-0.6-0.7c-0.5-0.3-1.2-0.7-1.4-0.5c-0.2,0.2,0,0.8,0,0.8S23.8,18.1,24.2,18.6z"/>
		<path class="st14" d="M23.7,18.3c0,0,0-0.1,0-0.2c0-0.1,0-0.2,0-0.2l-1-0.5c0,0-0.2,0.2-0.3,0.5c0,0.3,0,0.5,0,0.5
			S23.3,18.3,23.7,18.3z"/>
		<path class="st12" d="M23.4,17.8c0-0.2-0.1-0.3-0.3-0.3c-0.2,0-0.3,0.1-0.3,0.3c0,0.2,0.1,0.3,0.3,0.3
			C23.2,18.1,23.4,18,23.4,17.8z"/>
		<path class="st15" d="M21.8,19.9c0,0,0.2,0,0.4,0.4c0.2,0.4,0.2-0.3,0.7,0c0.5,0.3,0.7,0.6,1.1,0.6c0.4,0,0.6,0.2,0.6,0.2
			c0.6-0.1,0.7,0.3,1.3,0c0.6-0.3,1-0.4,1-0.4s0.2-0.5,0.5-0.5c0.3,0,0.9-0.4,0.9-0.4s0.4-0.1,0.4,0c0,0.1-0.4,0.6-0.5,1
			c-0.1,0.4-0.1,0.3-0.5,0.7c-0.4,0.4-0.9,1.2-0.9,1.2s0-0.2-0.3,0c-0.3,0.2-0.7,0-0.7,0l0,0.5c0,0-0.3-0.2-0.6,0
			c-0.3,0.2-0.6-0.5-0.6-0.5l-0.3,0.3c0,0-0.2-0.8-0.4-0.5c-0.1,0.3-0.1-0.6-0.5-0.4c-0.4,0.1-0.3-0.7-0.5-0.5
			c-0.1,0.1,0-0.5-0.3-0.6C22.3,20.9,21.8,20.1,21.8,19.9z"/>
		<path class="st16" d="M23.4,20.9c0,0,0,0.7,0.1,0.9c0.1,0.1,0.2-0.1,0.3-0.3C23.9,21.3,23.9,20.8,23.4,20.9z"/>
		<path class="st16" d="M24,21.3c0,0-0.1,0.3-0.1,0.5c0,0.2,0.2,0.4,0.2,0.4s0.4-0.6,0.3-0.7C24.3,21.3,24,21.3,24,21.3z"/>
		<path class="st16" d="M25,21.4c0,0-0.4,0-0.4,0.2c0,0.2,0.3,0.8,0.3,0.8s0.1-0.6,0.2-0.7C25.1,21.5,25,21.4,25,21.4z"/>
		<path class="st16" d="M25.4,21.5c0,0,0,0.6,0.1,0.7c0.1,0,0.2-0.2,0.3-0.3s0-0.5,0-0.5L25.4,21.5z"/>
		<path class="st16" d="M26.2,21.4c0,0.1,0.1,0.7,0.2,0.7c0.1,0,0.3-0.4,0.3-0.5c0-0.1-0.1-0.4-0.1-0.4S26.3,21.1,26.2,21.4z"/>
		<path class="st16" d="M26.9,21c0,0.1,0,0.2,0.1,0.3c0.1,0.1,0.2,0.2,0.2,0.2s0.1-0.2,0.2-0.5c0-0.3,0-0.2-0.1-0.3
			C27.1,20.8,26.9,21,26.9,21z"/>
		<path class="st16" d="M24.4,22.7c0,0,0-0.2,0.1-0.4c0.1-0.2,0.1-0.3,0.1-0.3s0.2,0.5,0.1,0.7C24.6,22.9,24.4,22.7,24.4,22.7z"/>
		<path class="st16" d="M24.9,22.9c0-0.1-0.1-0.4,0.1-0.4c0.1,0,0.3-0.1,0.3-0.1l0.2,0.3v0.4C25.5,23.1,25,23.3,24.9,22.9z"/>
		<path class="st16" d="M25.7,23c0.1,0.1,0.3,0.2,0.4-0.1c0-0.3,0-0.7,0-0.7s-0.2,0.1-0.3,0.3C25.7,22.6,25.7,23,25.7,23z"/>
		<path class="st16" d="M26.6,22.6c0.1-0.1,0.2-0.6,0.2-0.6s-0.1-0.2-0.2,0.1C26.4,22.3,26.6,22.6,26.6,22.6z"/>
		<path class="st16" d="M24,22.5c0,0-0.1-0.1-0.1-0.3c0-0.2-0.3-0.3-0.3-0.3s-0.1,0.2-0.1,0.4C23.6,22.4,23.9,22.6,24,22.5z"/>
		<path class="st1" d="M25,19.8c0.6,0,1.5,0.2,1.5,0.2s-0.1,0.5-0.5,0.7c-0.4,0.1-0.5,0.4-0.5,0.4l-0.8-0.4
			C24.7,20.6,24.1,19.8,25,19.8z"/>
		<path class="st17" d="M24.5,19.8c0,0,0,0.4,0.2,0.5c0.2,0.1,0.5,0.5,0.7,0.5c0.2,0,0.4-0.3,0.7-0.4c0.2-0.1,0.4-0.5,0.4-0.5
			s0.2,0.4-0.3,0.7c-0.5,0.3-0.3,0.5-0.8,0.4C24.9,21,24.3,20.3,24.5,19.8z"/>
		<path class="st12" d="M25.8,12.7l0.5-1.5h-0.7l1-0.9c0,0-0.8,0.2-0.7-0.3c0.1-0.5,0.8-0.9,0.8-0.9l-0.7-0.4l0.2-0.6l-0.7-0.3
			l-0.7,0.1c0,0,0.9,0.4,0.4,0.7c-0.5,0.3-0.8-0.1-0.8-0.1l0.9,1.2l-0.8-0.1l0.7,0.6l-0.9,0.7l0.8,0.6l-0.5,0.1l0.3,0.8l0.6,0.3
			L25.8,12.7z"/>
		<path class="st11" d="M29.8,17c0,0,0.7-0.5,0.8-1.3c0.1-0.8-0.1-1.3-0.5-1C29.7,14.9,29.8,17,29.8,17z"/>
		<path class="st11" d="M20.5,17.1l0-1.8c0,0-0.8-0.7-0.9,0C19.5,16,19.7,17.2,20.5,17.1z"/>
		<path class="st18" d="M26,12.6c0,0,0.1-1.3,1.2-1c1.1,0.3,1.8,2.6,1.8,6.1c0,3.5-0.3,10.8,0,14c0.3,3.3,0,7.4,0,7.4
			s0.8-5.9,0.6-8.7c-0.2-2.8,0.9-16.5-0.3-17.9c-1.2-1.4-1.5-1.9-2.5-1.3c-1,0.6-1.4,0.3-1.4,0.3L25.1,12C25.1,12,24.9,13.6,26,12.6
			z"/>
		<path class="st18" d="M24.1,12.5c0,0-1.2-1.2-1.9,0c-0.7,1.2-0.6,3.9-0.7,9.9c0,6-0.8,12.7-0.9,14.6c-0.2,1.9,0,2.4,0,2.4
			s-0.7-0.1-0.1-7.7c0.6-7.6-0.6-14.8-0.2-17.1c0.4-2.4,0.8-4.2,2.6-4.4c1.8-0.2,2.2,0.5,2.2,0.5s-2-0.3-1.5,0.1
			c0.5,0.4,1.1,0,1.5,0.4c0.4,0.4,0.2,2,0.2,2L24.1,12.5z"/>
		<path class="st18" d="M25.3,13.2c0,0-1.5-1-1.7,0.3c-0.2,1.3-0.4,10.9-0.4,10.9s-0.5-10.1-0.3-11.6C23.2,11.3,25.4,12.1,25.3,13.2
			z"/>
		<path class="st18" d="M27.8,24.4c0,0-0.1-11.6-0.9-11.6s-1.7,0.4-1.7,0.4s0.3-1.3,1.4-1.2c1.1,0.1,1.5,2.9,1.5,5.9
			C28.3,20.8,27.8,24.4,27.8,24.4z"/>
	</g>
	<use xlink:href="#SVGID_1_"  style="overflow:visible;fill:none;stroke:#020000;stroke-width:0.5;stroke-miterlimit:10;"/>
</g>
</svg>
