<?xml version="1.0" encoding="utf-8"?>
<!-- Generator: Adobe Illustrator 25.2.1, SVG Export Plug-In . SVG Version: 6.00 Build 0)  -->
<svg version="1.1" id="Layer_1" xmlns="http://www.w3.org/2000/svg" xmlns:xlink="http://www.w3.org/1999/xlink" x="0px" y="0px"
	 viewBox="0 0 331.9 126.2" style="enable-background:new 0 0 331.9 126.2;" xml:space="preserve">
<style type="text/css">
	.st0{fill-rule:evenodd;clip-rule:evenodd;fill:#FF0000;}
	.st1{fill-rule:evenodd;clip-rule:evenodd;fill:#FFFFFF;}
	.st2{fill:#FFFDFD;}
	.st3{fill:#FFFFFF;}
	.st4{fill:#3F3F3F;}
	.st5{fill:#F2F2F2;}
	.st6{fill:#CACACA;}
	.st7{fill:#BFBFBF;}
	.st8{fill:#0A1C28;}
</style>
<g>
	<path class="st0" d="M73.6,90.2c1.1-3.4,4.5-4.6,7.8-6C80.1,87.1,78.7,91.9,73.6,90.2z"/>
	<path class="st0" d="M318,66.4C315.4,58.3,328,65.9,318,66.4L318,66.4z"/>
	<path class="st0" d="M87.7,56c1.1-1.5-1.2-1.1-2.1-1.9c3-1.2,5.1-0.4,7.6,0.6C91.9,55.6,90.5,56.4,87.7,56z"/>
	<path class="st0" d="M103.4,54.6c-2.3,0.9-5.4-0.6-8-0.6C98.3,53.4,100.9,53.8,103.4,54.6z"/>
	<path class="st0" d="M90.9,50.9c-1.5,0.2-2-0.5-2.9-0.8c0.2-0.3,1.2-0.5,0.4-0.7C88.8,48.8,91.5,49.4,90.9,50.9z"/>
	<path class="st0" d="M288.4,53.4c-0.3-2.9,4.5-1.3,5.1,0.1C292,53.7,289.6,54.3,288.4,53.4z"/>
	<path class="st0" d="M270.5,41.5c0.7-2.3,4.3-1.8,5.5,0.2C274.2,43.4,272.8,39.6,270.5,41.5z"/>
	<path class="st0" d="M146.3,37.4c0.4-1.3,1,0,2.5-0.3C148.8,38.2,146.8,38,146.3,37.4z"/>
	<path class="st0" d="M136.1,37.1c-1.2,1.1-3.1-0.3-4.7-0.1C132.5,36.1,134.8,37.1,136.1,37.1z"/>
	<path class="st0" d="M150.1,37.2c0.2-0.5,0.8-0.6,0.9-1.1c1.6-0.3,1.2,0.9,2.5,0.8C152.7,37.3,150.7,37.8,150.1,37.2z"/>
	<path class="st0" d="M184.7,38.2c-0.8,0-1.7,0-2.5-0.1c0.6-0.9,1.2-1.6,0.9-2.2c0.5-1,1.8,0.2,2.5,0.1
		C184.3,37.2,183.5,37.2,184.7,38.2z"/>
	<path class="st0" d="M173.3,37.1c1.1-0.2,1.5-1.2,2.6-1.4c-0.6,1.4,3.8,1.3,5.4,2C180.6,38.7,175.3,37.5,173.3,37.1z"/>
	<path class="st0" d="M161.1,37.1c1.2-0.8,0.3-1.2,0.5-2.9c1.6,0.6,0.8-1,2.1-0.7c-0.8,1.8,0.3,1.9,0.7,3.3
		C163,36.7,162.1,37,161.1,37.1z"/>
	<path class="st0" d="M175.5,35.4c-1-0.2-2.5-0.1-2.5-1.2C174.3,34.2,175.8,34,175.5,35.4z"/>
	<path class="st0" d="M203.9,35.5c-0.1-0.9-0.4-1.6-1.2-1.9c0.3-0.9,3.6-1.1,3.8,0.1c2.4-2.3,4.9-0.5,7.6,0.6
		c-0.1,0.8-1.6,0.3-1.7,1.1c0.1,0.5,1,0.3,1.7,0.4C211,36.3,207.8,35.6,203.9,35.5z"/>
	<path class="st0" d="M197.9,35.3c-0.2-1.7,2.2-0.6,2.6-0.7C200.9,36,198.8,35.1,197.9,35.3z"/>
	<path class="st0" d="M227.2,33.9c-0.4,0.8-2.6,0.3-2.1-0.8C226.1,33.1,226.4,33.7,227.2,33.9z"/>
	<path class="st0" d="M217.9,33.7c0.2-0.5,0.7-0.9,0.9-1.4c0.8,0.4,1.9,0.6,2.1,1.5C220,34.4,218.8,33.9,217.9,33.7z"/>
	<path class="st0" d="M225.5,32.4c-1.1,0.6-1.6-0.1-3.4,0.3C222.6,31.4,225.1,31.7,225.5,32.4z"/>
	<path class="st0" d="M158.4,28.2c1.2-0.6,2-1.4,3.4-1.7C163.1,28,160.5,28.6,158.4,28.2z"/>
	<path class="st0" d="M252.3,30.2c0.2-1.5,2.2-1.3,2.2-2.9c1.2-0.2,0.8,0.8,1.7,0.8C256,30,254.2,31.2,252.3,30.2z"/>
	<path class="st0" d="M224,39.7c2.5-1.1,6.2,1.4,7.7-1.6c1.8,0.6,4.2,0.6,6.3,0.9c-0.9-1.7-2.3-1-5-1.3c1-2.1,4.3,0,6-1.7
		c-0.2,1.7,1.1,0.7,2.5,1.5c-0.1,0.5-1.3,0.1-1.3,0.7c0.4,1.7,4.1,0.2,4.6,0.9c-2.7,1.7-3.8,0.6-8.1,0.9c0.9,1.3,2.5-0.1,3.8,0.8
		c0,0.4-0.5,0.3-0.9,0.3c6.7,1,17.6-0.6,17.2,5.7c0.8,0.8,2.5,0.8,4.2,0.9c-1.7-0.3-0.3-1.4-1.6-1.5c1.6-2.6,6.2,0.9,8.5-0.1
		c0.6,0.1,0,0.6-0.4,0.7c2.9,1.5,5.9-0.9,4.7-2.4c3,0,6.8,2.1,9.7,1.8c-0.1,0.9-0.1,1.8,0.4,2.2c2.3-0.7,1.9,2,5,1.6
		c-2.1,0.9-4-0.3-3.8,1c0.1,0.9,3.1,0.6-0.4,0.7c0.5,2.7,0.2,3.6-2.3,4.7c2.2,3.6,7.4,2.6,11.4,2.2c0.2,4.7,7.6,4.7,11.7,3.7
		c-0.1,1.5,0.1,4.3,2.4,4.9c-1,1.4-2.9,2.1-4.3,3.2c0.3,4.7-4.1,8.3-5.4,12.7c-8.4,7.2-27.5,6.9-41.2,4.3c-8.9,3.7-24.9,1.5-36,0
		c-3.8-0.5-7.6,1-10.5-1c-6.2,0-11-1.1-13.9-3.7c-2,0.1-3.1-0.5-4.2-1.2c-2.5,0.9-4.8-1.3-7.6-0.2c-0.9,0.3-0.7,1.6-1.3,2.2
		c-4.9,1.2-8.6,3.4-14.5,3.6c-1.8-1.8-3.4-3.7-5.3-5.3c0.9-0.8,0.7-2.7,1.4-3.6c-0.4-0.5-1.1-0.8-1.7-1.2c-4.9,1.4-9.4,3.1-13.3,5.5
		c-0.6,1.2,1.4,0.3,0.8,1.5c-1.9,0.6-3.5,1.3-4.7,2.4c-13.2,1.3-28.4-0.9-40.3,2.9c0.1,1-1.9,1.7-3.8,1c0.1,0.4,0.8,0.3,1.3,0.4
		c-2,1.2-5.8,0.7-7.7,2c-4.1-1.4-8.1,0.1-12.3,0.7c-1.4,1.4-3.1,3.8-5.6,2c1.5-3.1,6.7-2.6,9-4.9c0.2-2.4,0-4.6-2.4-4.9
		c0.4-1.8,1.8-2.6,1.8-4.7c-3.3,1.7-10.8,3.2-10.9-2.2c2.7-0.4,6.3-3.1,2.3-4.7c3.3-1.3-2-3.4-5.8-3.1c-2.4,0.2-4.7,2.4-5.5,0.2
		c0.9-0.8,2.4-1.1,3.8-1.4c0.1-2-1.6-3.6-3.2-6c1.3,0.3,1.3-0.6,2.5-0.3c0.4-1-0.6-1-0.4-1.9c2.2-3.9,8.3-4.2,10-8.5
		c2.2-1.2,5.2-0.4,7.2,0.6c-2.1,0.4,1.2,2.2-1.4,3.6c4.8,1.1,14.5,2,19.5,0.2c-2.6-1.2-7-0.9-10.1-1.8c5.2-2.5,15.7,2.5,21.2-0.1
		c-0.9-2,0.8-1.1,0.9-2.9c3.3,0.6,5.1-0.3,6.8-1.3c0.3-1.6-2.3-0.8-1.6-2.6c5.7-0.6,12.2,1.5,15.6,2.3c-4.2-6.2-17.6-3.3-25.8-1.9
		c-0.5-1.7,1.2-1.4,0.9-2.9c6.8-0.7,14.9-0.6,21.5,1c-0.7-3-5.1-1.1-6.7-3.5c2.2-1.6,2.6,1.5,4.6,1.2c-0.4-2.4-0.1-5.7,5.2-5.4
		c2.5,0.1,5.5,3.3,8,0.6c-0.1-0.4-0.8-0.3-1.3-0.4c0.6-0.9,0.9-0.7,0.5-1.8c5.9,0.3,14.7,1.4,17.8-0.2c1.3-0.7,2.8,1,1.7,0.4
		c1.6,0.8,2.1-0.2,3.4-0.3c5.6-0.5,15.1,1.2,22.4,1.4c0-1.8,3.3,0.6,5.1-0.6c-0.5-1.4-2.3-0.2-3.8-1.2c0.7-1.2,0.2-1.6,0.1-2.9
		c1.4-0.4,3.6-0.2,4.3-1.3c1.3,0.5-0.1,1.6-1.3,1.1c5.9,4.2,14.1,2.3,22.3,4c0.3,0.3,0.4,0.8,0.4,1.5c0.8-0.5,2.1-3,0.1-3.7
		C215.8,36.5,224,37.6,224,39.7z M87.7,86.6c-1.3-0.2-1.7,0.4-2.1,1C86.8,87.7,87.9,87.7,87.7,86.6z M272.1,61.8
		c1.5,0.6,3.4,0.8,4.2,2C276,62.3,273.3,60.1,272.1,61.8z M271.7,58.8c-0.6-0.2-1-0.6-1.7-0.8c-1,1.3-4.3,0.6-4.3,2.8
		C269.1,60.6,270.4,60.8,271.7,58.8z M266.4,51.3c-2-1-5.8-1-7.6,0.1C261.4,51.8,264.7,51.7,266.4,51.3z M271.1,49.6
		c1.6,0.3,3.6,2.1,5.5,0.9C275.4,49.5,272.5,48.4,271.1,49.6z M208.7,45.2c-0.8,0-0.3,1.2-0.9,1.4c5-0.8,10.5,1,12.3-1.5
		c-3.9-0.4-3.3,1.1-6.8,0.9c-0.6-0.2,0-1.4-0.8-1.5C210.1,44.7,209.4,46.4,208.7,45.2z M231.1,46.2c-1.1-2.2,3-1.5,2.2-2.1
		c-0.4,0-0.8,0-1.3,0c0.7-2.8-5.5-3.8-6.7-0.9c1.1,0.2,0.7,1.6,1.6,1.9c-0.1,0.8-1.1,0.8-2.1,0.7c0-0.5,0.6-0.5,0.5-1.1
		c-1.1,0-2.5-0.3-2.6,0.7C224.8,46.1,228.4,46.7,231.1,46.2z M209.5,43.7c3.3,0.8,6-0.3,8,0.6C216.3,42.6,212.4,42.2,209.5,43.7z
		 M224.8,43.1c-1.1,0-2.5-0.3-2.6,0.7C223.2,44.6,224.1,43.5,224.8,43.1z M205,39.5c-0.6,2.2,3.6,2.3,5,1.6
		C208.3,40.8,207.2,38.4,205,39.5z"/>
	<path class="st0" d="M157.3,37.4c0.1-0.4-0.1-0.7-0.4-0.7c0.3-1.3,2,0.9,2.1-0.3C159.9,36.6,158.4,37.8,157.3,37.4z"/>
</g>
<g>
	<defs>
		<rect id="SVGID_1_" x="98.5" y="485.1" width="362" height="201.1"/>
	</defs>
	<clipPath id="SVGID_2_">
		<use xlink:href="#SVGID_1_"  style="overflow:visible;"/>
	</clipPath>
</g>
<g>
	<path class="st0" d="M126.2,53.8C126.9,54.8,126.2,55.7,126.2,53.8L126.2,53.8z"/>
	<path class="st0" d="M125.6,60.4c0.5,1.3-0.5,3.7-1.8,4c-0.3-1.3,0.6-1.4,0.9-2c-0.4-0.4-0.2-0.6-0.2-1.3
		C125.2,61.6,124.6,60.4,125.6,60.4z"/>
	<path class="st0" d="M123.7,65.3c0,0.4,0.4-0.2,0.5-0.4c0.4,0.2-0.2,0.6,0,1.1c-1.1,0.1-2,0.6-1.5,2c-0.4,0.2-0.8,0.3-0.6,1.1
		c-0.9,0.2-1.6,0.8-2.5,0.5c1-0.5,3.8-5.2,4.4-4.9C124.1,64.8,123.9,65.4,123.7,65.3z"/>
	<path class="st0" d="M123.3,68.2c0,0.4-0.4,0.4-0.5,0.7c-0.4,0-0.1-0.8,0-0.9C122.9,68.1,123.1,68.2,123.3,68.2z"/>
	<path class="st0" d="M122.1,71.4c-0.1,0.8-0.5,1.2-1.1,1.5C120.6,72.2,121.5,71.5,122.1,71.4z"/>
	<path class="st0" d="M121.7,49.1c-0.3,0.5-1.2-0.4-0.6-0.9C121.6,48.2,121.7,48.7,121.7,49.1z"/>
	<path class="st0" d="M121.7,69.6c-0.4,0.4-0.6,1-1.2,1.1C120.8,70.1,121.1,69.7,121.7,69.6z"/>
	<path class="st0" d="M121.3,45.1c-0.1,0.4-0.4,0.6-0.9,0.9c-0.1,0.7,0.4,1,0,1.5c-0.6,0-0.3-0.9-1.1-0.7c0.5-0.1,0.7-0.6,0.8-1.3
		c0.2,0.2,0.8,0.3,0.6-0.4C120.9,45.1,121.1,45.1,121.3,45.1z"/>
	<path class="st0" d="M120.2,52.6c-0.1-1.2-0.6-2.4,0.2-2.9C120.2,50.5,120.9,51.7,120.2,52.6z"/>
	<path class="st0" d="M119.9,74.3c0,0.5-0.4,0.5-0.8,0.5C119.3,74.5,119.5,73.8,119.9,74.3z"/>
	<path class="st0" d="M119.8,39.5c-0.6-0.8-0.7-2.3-1.5-2.9C119.1,36.5,119.6,38.2,119.8,39.5z"/>
	<path class="st0" d="M117.3,31c-0.1-0.1-0.8,0-1.1-0.4c0.3-0.3,0-0.5,0-0.9c1.2,0,1.3,1.4,2.3,1.6c-0.3,1.7,1,2.1,0.9,3.6
		c-0.3-0.9-1.4-1.8-1.5-2.4c-0.2,0-0.3,0-0.5,0c0.3,0.6,0.4,1.3,1.2,1.3c-0.1,0.8,0.5,0.6,0.2,1.3c-0.4-0.3-0.8-0.6-0.9-1.3
		c-0.4,0.4-0.7,0.4-1.2,0.2c0.5-0.8-0.2-2-1.1-1.6c0.4-0.3,0.6-0.7,0-0.9c0.4-0.1,1,0,1.5,0.4C117.7,31.8,116.7,31.1,117.3,31z
		 M117.5,32.3c0.4,0,0.6-0.3,0.6-0.7C117.6,31.5,117.4,31.7,117.5,32.3z"/>
	<path class="st0" d="M119.1,22.5c-0.5,0.1-0.3-0.5-0.8-0.4c0-0.3,0.2-0.4,0.2-0.7C118.8,21.7,119.2,21.8,119.1,22.5z"/>
	<path class="st0" d="M119,58.7c0,0.5,0,0.9-0.5,0.9C118.5,59.1,118.5,58.6,119,58.7z"/>
	<path class="st0" d="M117.8,28.6c-0.2,0-0.4,0-0.5,0.2c-0.9-0.7-1.5-2.4-2.5-2.5c0-0.7,0.5-0.7,0.5-1.1c0.4,0,0.7,1,0.9,0.2
		C116.9,26.3,117.5,27.3,117.8,28.6z"/>
	<path class="st0" d="M116.7,44.6c-0.2,0.2-0.2,0.7-0.5,0.9c-0.7-0.3-0.4-1.3-0.6-1.8C116.4,43.5,116,44.7,116.7,44.6z"/>
	<path class="st0" d="M116.1,41.9c-0.2-0.4-0.3-1.1-0.5-1.6C116.1,40.4,116.1,41.1,116.1,41.9z"/>
	<path class="st0" d="M116.1,85.9c0,0.4-0.4,0.2-0.5,0.5c-0.5-0.2,0.2-0.6,0-1.1C115.9,85.4,115.7,86,116.1,85.9z"/>
	<path class="st0" d="M115.6,81.6c-0.4-0.1-0.7-0.1-0.6-0.7c0.2,0,0.1,0.4,0.3,0.4c0.2,0,0.1-0.3,0.2-0.5
		C115.7,80.8,115.9,81.3,115.6,81.6z"/>
	<path class="st0" d="M115.2,87.7c0,0.4,0,0.7,0,1.1c-0.4,0.2-0.5,0.9-0.9,1.1C114.4,89.1,114.3,87.9,115.2,87.7z"/>
	<path class="st0" d="M114.7,68.2c-1.1,1.2-2.3,2.3-3.8,2.9C112,69.9,112.8,68.4,114.7,68.2z"/>
	<path class="st0" d="M114.7,70.5c-0.3,0.5-0.9,0.6-1.7,0.5C113.6,70.6,113.8,70.2,114.7,70.5z"/>
	<path class="st0" d="M114.5,22.8c0.1,1-0.9-0.1-0.9,0.9c-0.3-0.1-0.4-0.5-0.5-0.9c0.9,0.1,0.1-0.5,0.2-0.9c0.2,0,0.3,0,0.3-0.2
		C114.1,21.9,114,22.8,114.5,22.8z"/>
	<path class="st0" d="M114.5,46c-0.4,0.1-0.5-0.3-0.5-0.7C114.5,45.3,114.6,45.6,114.5,46z"/>
	<path class="st0" d="M113,94.8c-0.3,0.5-0.7-0.7-0.8,0.4c-0.5-0.3-0.1-2,0-2.7C112.5,93.3,112.8,94,113,94.8z"/>
	<path class="st0" d="M112.9,87.5c-0.6,0.2-0.5-1-0.3-1.3C112.8,86.5,112.9,87,112.9,87.5z"/>
	<path class="st0" d="M111.8,97.5c-0.4-0.3,0.3-0.7,0.2-1.3c0.1,0.6,0.7,0.5,0.3,0C113,96,112.2,97.5,111.8,97.5z"/>
	<path class="st0" d="M111.9,80.8c0,0.4-0.7,0.1-0.6,0.7c-0.6-0.2-0.1-0.5-0.2-1.1C111.6,80.3,111.5,81,111.9,80.8z"/>
	<path class="st0" d="M111.8,98.8c0.3,0.2,0,1-0.5,0.9C111.3,99.1,111.7,99.2,111.8,98.8z"/>
	<path class="st0" d="M111.2,81.9c-0.2,1.3-1,1.8-1.4,2.9C109.8,84.1,110.1,82.1,111.2,81.9z"/>
	<path class="st0" d="M111,100.8c-1.7,2.3-3.4,4.6-5.7,6.2c0.3-2.2,3.4-2,3.1-4.4c0.8-0.4,1.7-0.7,1.8-1.8
		C110.5,100.8,110.8,100.8,111,100.8z"/>
	<path class="st0" d="M109.6,85c-0.1,0.9-0.8,1.1-1.1,1.8C108.3,86.2,109,85.2,109.6,85z"/>
	<path class="st0" d="M108.9,106.2c-0.1,0.6-0.6,0.8-0.8,1.3C107.8,107.2,108.4,106.3,108.9,106.2z"/>
	<path class="st0" d="M108.6,76.9c-0.1,0.6-0.4,0.9-0.8,1.3C107.8,77.8,107.7,76.8,108.6,76.9z"/>
	<path class="st0" d="M108.4,91c0.2,1.6-0.6,1.8-0.9,2.7c-0.3,0.1-0.3-0.1-0.3-0.4c-1,0.4-0.3,2.9-1.7,2.9c0.2-0.9,1.4-2.4,0.8-3.1
		c0.2-0.9,1.1-1.1,1.2-2.2C108.1,91,107.9,91.2,108.4,91z"/>
	<path class="st0" d="M108.3,87.9c0.1,1.2-1,1.4-0.8,2.9c-0.4,0.1-0.6,0-0.8-0.2c0.2-0.7,0.7-1.7,0.6-2.5
		C107.8,88.2,107.8,87.8,108.3,87.9z"/>
	<path class="st0" d="M106.7,110.9c0.4,0.2-0.1,1-0.6,0.7C106.2,111.2,106.6,111.3,106.7,110.9z"/>
	<path class="st0" d="M105.4,86.6c0,0.2,0,0.4,0,0.5c-0.3,0.2-0.7,0.2-1.1,0.4C104.5,87,104.8,86.3,105.4,86.6z"/>
	<path class="st0" d="M105.4,103.1c0,0.4-0.4,0.4-0.5,0.7c-0.4-0.3-0.2-0.4-0.2-0.9C105.1,102.9,105.1,103.1,105.4,103.1z"/>
	<path class="st0" d="M105,92.6c0.4,0.5-0.2,1.4-0.8,1.3C104.6,93.5,104.9,93.1,105,92.6z"/>
	<path class="st0" d="M104.4,98.1c-0.4,1.3-1.9,1.3-3.1,1.6C102.5,99.3,103.3,97.8,104.4,98.1z"/>
	<path class="st0" d="M103.7,95.9c-0.5,1-1.6,1.3-2.5,1.8C101.6,96.6,102.8,96.5,103.7,95.9z"/>
	<path class="st0" d="M103.1,14.3c-0.1,0.9-1-0.1-1.4-0.2c0.1-0.2,0.2-0.4,0.2-0.7C102.3,13.7,102.4,14.3,103.1,14.3z"/>
	<path class="st0" d="M101.4,95.7c0.4,1-0.7,1.7-1.4,2c0-0.4,0.2-0.7,0.3-1.1c0-0.5-0.4,0.4-0.3-0.4c-0.4,0.2-0.7,0.4-1.2,0.4
		c0.5-0.7,0.9-1.3,1.7-1.6c0.1,0.1,0.2,0.5,0.3,0.2C100.9,95.4,100.8,96.4,101.4,95.7z"/>
	<path class="st0" d="M101.1,9.6c-0.2-0.3-0.8-0.2-1.2-0.2C99.7,8.6,101,9,101.1,9.6z"/>
	<path class="st0" d="M100.8,112.2c-0.6,0.6-1.1,0.7-2,0.5c0.3-0.5,0.8-0.8,0.9-1.6C100.1,111.4,100.1,112.2,100.8,112.2z"/>
	<path class="st0" d="M99.7,97.2c-0.3,1-1.1,1.2-1.8,1.6c0.1-0.8,0.9-0.7,0.9-1.6C99.1,97.2,99.4,97.2,99.7,97.2z"/>
	<path class="st0" d="M98.8,8.5c0.2-0.1,0-0.9,0.5-0.7C99.5,8,99.3,8.7,98.8,8.5z"/>
	<path class="st0" d="M98.5,97.2c-0.4,0.5-1.1,0.8-1.8,0.9c0-1,1-0.7,1.2-1.5C98.2,96.7,98.3,97,98.5,97.2z"/>
	<path class="st0" d="M97.5,6C97,6.3,95.6,5.5,96,4.7C96.7,4.9,96.9,5.7,97.5,6z"/>
	<path class="st0" d="M96,101.7c-0.5,0.5-1.3,0.6-2,0.9C94.4,101.8,95.2,101.6,96,101.7z"/>
	<path class="st0" d="M94,5.4c0.1,0.4-0.7-0.1-0.5,0.5C92.9,5.7,93.5,5,94,5.4z"/>
	<path class="st0" d="M92.9,102c-0.4,0.6-1.3,0.7-1.8,0.7C91.4,102.2,92.2,101.5,92.9,102z"/>
	<path class="st0" d="M91.9,11.6c-0.1,0.5-0.4-0.2-0.8,0c0.1-0.1,0.2-0.3,0.2-0.5C91.6,11.1,91.7,11.4,91.9,11.6z"/>
	<path class="st0" d="M91.3,14.3c-0.4,0.1-0.7-0.1-0.6-0.5C91,13.7,91.3,13.8,91.3,14.3z"/>
	<path class="st0" d="M90.5,110.6c-0.3,0.2-1.2,0.7-1.4,0.5C89.1,110.4,89.9,110.6,90.5,110.6z"/>
	<path class="st0" d="M86.1,12.5c-0.1,0.2-0.3,0.4-0.5,0.5c-1.4-0.8-3.4-1.1-4.6-2.2c0.4-0.7,0.9-0.8,1.4-0.4
		c0.6-0.6-0.6-0.5-0.5-1.1C83.3,10.5,84.8,11.3,86.1,12.5z"/>
	<path class="st0" d="M85.3,116c-0.1,0.6-0.5-0.1-0.8,0.5C83.9,116.1,84.8,115.9,85.3,116z"/>
	<path class="st0" d="M84.5,4.5c-0.2,0.7-0.7-0.1-1.1-0.2C83.6,4,84.3,4.5,84.5,4.5z"/>
	<path class="st0" d="M75.9,112.7c2.6-0.3,5-0.8,7.7-1.1c-0.3,0.4-0.7,0.6-1.4,0.5c0,0.7,0.1,0.1,0.5,0.2c0,0.9-1.1,0.5-1.4,0.2
		c-1.1,0.6-2.9,0.3-3.8,0.5c-0.3,0.1-0.3-0.2-0.2-0.2C77.2,112.8,76.4,113,75.9,112.7z"/>
	<path class="st0" d="M83.1,5.8c-0.7,0.2-2-0.4-2.5-1.1c0.5,0.3,1.7,0,2.3,0.5C82.4,5.6,82.6,5.5,83.1,5.8z"/>
	<path class="st0" d="M82.4,118.5c0.1,0.5-0.2,0.5-0.2,0.9c-1.4-0.3-3.1,1.2-3.7-0.2C80,119.3,81.2,118.9,82.4,118.5z"/>
	<path class="st0" d="M75.5,116.9c0.1-0.3,0.2-0.4,0.6-0.5c-0.4-0.3-0.9-0.3-1.5-0.4c-0.4-0.3,1-0.1,1.4-0.2
		c-0.1-0.5-0.9-0.2-1.2-0.5c2-1.3,5.3-0.9,7.4-1.6c0.4,1.8-1.2,2-2,1.8c-0.5,0.2,0,0.4-0.3,0.7c-0.5-0.1-1.3,0.2-1.2-0.5
		c-0.5,0-0.9,0-1.4,0c-0.3,0.3,0.2,0.7-0.6,0.5c-0.3,0.4,0,0.2,0,0.7c-0.4-0.1-1.3,0.7-1.4-0.2C75.4,116.7,75.4,116.8,75.5,116.9z"
		/>
	<path class="st0" d="M80.4,8.3c0,0.4-0.4,0.2-0.3,0.7c-0.3-0.8-1.1-0.9-1.7-0.9c0-0.6,0.7-0.1,0.8-0.9C79.5,7.7,79.8,8.2,80.4,8.3z
		"/>
	<path class="st0" d="M78.7,111.5c-0.3,0.4-1.3,0.1-1.8,0.2c-0.3-0.3,1.1-0.2,1.4-0.4C78.3,111.5,78.5,111.4,78.7,111.5z"/>
	<path class="st0" d="M78.2,105.1c0,1.2-1.9,0.8-3.1,0.5C75.6,104.8,77.7,105.9,78.2,105.1z"/>
	<path class="st0" d="M75.9,113.8c0.3,0.2-2,0.5-2-0.2C74.7,113.6,75.1,114,75.9,113.8z"/>
	<path class="st0" d="M74.3,115.1c0,0.9-0.7-0.1-1.2,0.2C73.1,114.9,73.9,115.2,74.3,115.1z"/>
	<path class="st0" d="M70.6,109.7c-1.2,1-2.7,0.9-4,0c0.9-0.1,2.1,0.5,2.6-0.4C69.6,109.5,70.3,109.4,70.6,109.7z"/>
	<path class="st0" d="M69.4,105.7c-0.2,0.5-1.1,0.5-1.1-0.2C68.8,105.3,68.9,105.8,69.4,105.7z"/>
	<path class="st0" d="M69.2,104.8C67.7,105.5,67.4,104.3,69.2,104.8L69.2,104.8z"/>
	<path class="st0" d="M63.5,110.2c-0.8-1.3-3.5-0.3-4-2c1.6,0.4,2.8,1.2,4.6,1.3c0.4,1.3,2.6,0.6,3.7,1.1c-1.6,1.3-4.2-0.4-6.1-0.4
		C62.2,110,62.9,110,63.5,110.2z"/>
	<path class="st0" d="M63.7,123.1c0.4-0.5,1.5-0.1,2,0C65.2,123.5,64.2,123.1,63.7,123.1z"/>
	<path class="st0" d="M64.5,123.4c-0.4,0.3-0.9,0.4-1.4,0.2C63.5,123.3,64,123.2,64.5,123.4z"/>
	<path class="st0" d="M64.1,115.3c-0.5,0.5-1.1,0.2-1.7,0C63,114.9,63.7,115.2,64.1,115.3z"/>
	<path class="st0" d="M63.2,8.7c-0.1,0.1-0.2,0.3-0.2,0.5c-0.6,0-0.8-0.5-1.1-0.9C62.5,8.3,62.6,8.9,63.2,8.7z"/>
	<path class="st0" d="M62.2,4c0.2,0.3,0,1.2,0,1.5c-0.6,0,0.2-1-0.5-1.1C61.7,4.1,62.2,4.3,62.2,4z"/>
	<path class="st0" d="M61.1,126c-0.1,0.4-0.9,0.1-1.2,0.2C60.1,125.6,60.6,125.9,61.1,126z"/>
	<path class="st0" d="M59.2,109.5c0.1,0.5-0.7-0.1-0.6,0.4c-0.2-0.4-0.7-0.5-1.1-0.7C58.1,108.6,58.6,109.6,59.2,109.5z"/>
	<path class="st0" d="M57.1,104.4c-0.5,0.5-2.5,0-2.8-0.9C55.5,103.5,56.1,104.2,57.1,104.4z"/>
	<path class="st0" d="M56.8,7.4c-0.5,0.1-1.1,0.8-1.5,0.5c0.1-0.3,0.5-0.2,0.3-0.7C56,7.3,56.6,7.2,56.8,7.4z"/>
	<path class="st0" d="M55.7,125.3c0,0.2,0,0.4,0,0.5c-0.8,0.1-1.3-0.1-1.8-0.4C54.4,125.1,55.1,125.1,55.7,125.3z"/>
	<path class="st0" d="M53.9,122.5c-0.4,0.4-0.9,0.3-1.2,0C52.9,122,53.3,122.8,53.9,122.5z"/>
	<path class="st0" d="M53.3,108c-1.2,0.2-2.5-0.9-3.4-1.6C51.4,106.8,52,107.3,53.3,108z"/>
	<path class="st0" d="M53.3,123.8c-0.1,0.2-0.2,0.3,0,0.4c-0.3,0.5-1-0.2-1.4-0.4C52.2,123.3,52.8,123.9,53.3,123.8z"/>
	<path class="st0" d="M53.1,4.5c-0.4,0.8-1.9,0.9-3.1,1.3C50.6,4.8,52.1,5,53.1,4.5z"/>
	<path class="st0" d="M50.5,112.4c-0.7,0.6-2.4-0.7-3.4-1.1C48.1,111.2,49.5,112,50.5,112.4z"/>
	<path class="st0" d="M45.3,122.4c-0.7,0.4-1.7-0.4-2.3-0.7C43.7,121.2,44.5,122.2,45.3,122.4z"/>
	<path class="st0" d="M42.7,14.1c0,0.6-0.5,0-0.6,0.7C41.6,14.5,42.3,14,42.7,14.1z"/>
	<path class="st0" d="M42.5,4.9c-0.1,0.3-0.3,0.6-0.8,0.5C41.8,4.9,42.2,4.9,42.5,4.9z"/>
	<path class="st0" d="M41.3,9.6c-0.7-0.1-1.1,0.1-1.2,0.7c-0.8-1,1.2-1.2,1.4-2.2C41.9,8.5,41.5,9.1,41.3,9.6z"/>
	<path class="st0" d="M40.4,117.8c-0.7,0.4-1.1,0-1.8,0c0.6-0.3,0.6-0.1,0.3-0.9C39.6,116.9,39.8,117.6,40.4,117.8z"/>
	<path class="st0" d="M40.1,120.2c-0.2,0.3-0.7,0.2-0.9,0.4c-0.3-0.7-1-1-1.5-1.5c0-0.2,0.1-0.2,0.2-0.2c0-0.1,0-0.2,0-0.4
		c0.8-0.1,1,0.8,2,0.9C39.7,119.9,39.8,120.1,40.1,120.2z"/>
	<path class="st0" d="M39.8,115.6c-0.2,1-1.7-0.1-1.8-0.9C38.5,115.2,39,115.5,39.8,115.6z"/>
	<path class="st0" d="M38.9,110.4c-0.1,0.2-0.1,0.3-0.3,0.4c-1.2-0.5-2.1-1.8-3.2-1.8c-1.2-2.6-4.5-2.7-5.4-5.6
		C32.8,105.8,35.6,108.3,38.9,110.4z"/>
	<path class="st0" d="M37.5,113.1c-0.3,1.2-0.8-0.4-1.5-0.4C36.4,112.2,37,113.1,37.5,113.1z"/>
	<path class="st0" d="M36.9,115.6c-0.1,0.4-0.8,0.1-0.9,0c0-0.3,0.5-0.1,0.5-0.5C36.8,115,36.6,115.6,36.9,115.6z"/>
	<path class="st0" d="M36.4,113.3c-0.1,0.2-0.2,0.4-0.2,0.7c-0.9-0.1-1.3-0.6-1.7-1.3C35.2,112.9,35.7,113.2,36.4,113.3z"/>
	<path class="st0" d="M36,116.9c-0.5-0.2-0.5-0.9-1.2-0.7c0-0.2,0.3-0.1,0.3-0.4C35.5,116,35.9,116.2,36,116.9z"/>
	<path class="st0" d="M33.2,19.2c-0.1,0-0.4,0.4-0.5,0.4C31.3,19.8,32,18.8,33.2,19.2z"/>
	<path class="st0" d="M32,114.6c-0.6,0.9-1.4-0.3-1.8-0.7C30.3,113.2,31.3,114.5,32,114.6z"/>
	<path class="st0" d="M30,27.7c-0.1,0.8-0.7,0.7-1.1,0.4C28.9,27.6,29.5,27.8,30,27.7z"/>
	<path class="st0" d="M28,24.3c-0.2,0.5-0.9,0.6-1.1,1.1c-1-0.4-1.2,0.2-2,0.2C25.7,24.4,26.7,24.6,28,24.3z"/>
	<path class="st0" d="M25.4,20.1c-0.4,0.3-1.4,0.8-1.8,0.5C23.4,19.4,24.9,20.1,25.4,20.1z"/>
	<path class="st0" d="M24.2,22.3c-0.1,0.4-0.5,0.6-0.9,0.5C23.2,22.3,23.7,22.3,24.2,22.3z"/>
	<path class="st0" d="M23.2,110.8c-0.3,0.3,0.1,0.3,0,0.9c-0.9,0-1-0.8-1.7-0.9C21.9,109.9,22.7,110.8,23.2,110.8z"/>
	<path class="st0" d="M23.1,103.3c-1.1,0.2-1.8-1.3-2.3-2.4C21.4,101.9,22.8,102,23.1,103.3z"/>
	<path class="st0" d="M21.7,62.9c-0.3-0.2-0.5-0.3-0.5-0.9C21.7,61.9,21.7,62.4,21.7,62.9z"/>
	<path class="st0" d="M21.1,80.5c-0.2,0-0.6-0.1-0.6,0.2c-0.5-0.6-0.4-1.7-0.9-2.9c0.5,0.2,0.7,0.8,0.9,1.5c0.3,0.1,0.5,0,0.5-0.4
		C21.6,79.3,20.7,79.6,21.1,80.5z"/>
	<path class="st0" d="M20.8,68c-0.7-0.3-0.6-1.5-0.9-2.2C20.6,66,20.5,67.2,20.8,68z"/>
	<path class="st0" d="M19.9,25.6c0.3,0.2-0.7,0.4-1.1,0.4c0.1-0.2,0.2-0.4,0.2-0.7C19.6,25,19.3,25.8,19.9,25.6z"/>
	<path class="st0" d="M19.4,97.7c-0.4-0.3-0.8-0.6-0.8-1.4C19.1,96.5,19.3,97.1,19.4,97.7z"/>
	<path class="st0" d="M19,56c0,0.8,0,4.3-0.2,1.6C18.8,57.3,18.3,56,19,56z"/>
	<path class="st0" d="M17.6,79.9c-0.5-0.3-0.6-1.2-0.8-2C17.3,78.3,17.3,79.2,17.6,79.9z"/>
	<path class="st0" d="M17.1,18.7c0,0.5-0.5,0.5-0.9,0.5C16.3,18.8,16.6,18.7,17.1,18.7z"/>
	<path class="st0" d="M15.6,27.9c-0.3,1-1.4,1-1.8,1.8C13.3,29.5,13.8,29,14,29c0-0.4-0.7-0.1-0.6,0.2C13.2,28,14.9,28.6,15.6,27.9z
		"/>
	<path class="st0" d="M14.4,49.3c0.3,0,0.1,0.6,0.2,0.9c-0.6-0.5-0.5,0.9-0.8,1.3c-0.4-0.6-0.3-1.6,0.2-2
		C13.9,49.5,14.5,50.4,14.4,49.3z"/>
	<path class="st0" d="M13.7,73.4c-0.8-1.2-1.5-2.6-1.5-4.7c0.2,0.3,0.6,0.3,0.5-0.4C13.5,69.3,14.3,72,13.7,73.4z"/>
	<path class="st0" d="M12.7,53.8c0-0.4,0-0.8,0-1.3C12.9,52.6,13.3,53.9,12.7,53.8z"/>
	<path class="st0" d="M10.5,83.6c-0.5-0.2-0.6-1-0.8-1.6C10.3,82.1,10.4,82.8,10.5,83.6z"/>
	<path class="st0" d="M10.5,87.7c-0.4-0.1-0.3-0.6-0.6-0.7C10.1,86.6,10.7,87.2,10.5,87.7z"/>
	<path class="st0" d="M9,73.8c0,0.2-0.3,0.1-0.3,0.4c-0.1-0.7-0.5-1.1-0.5-2C8.7,72.5,8.6,73.4,9,73.8z"/>
	<path class="st0" d="M8.5,77c-0.5-0.2-0.5-1-0.8-1.5c0.2,0,0.4,0,0.6,0C8.5,75.9,8.8,76.9,8.5,77z"/>
	<path class="st0" d="M8.1,27.2C8.2,29.2,6,28.1,8.1,27.2L8.1,27.2z"/>
	<path class="st0" d="M8.1,74.9c-0.4,0-0.6-1.4-0.5-1.4C8,73.5,8.3,74.7,8.1,74.9z"/>
	<path class="st0" d="M6.4,68.9c0-1.1-0.9-2.4-0.3-3.1C6.6,66.1,7.3,68.6,6.4,68.9z"/>
	<path class="st0" d="M5.8,69.1c-0.4-0.5-0.6-1.2-0.6-2.2C5.7,67.2,5.7,68.2,5.8,69.1z"/>
	<path class="st0" d="M5,62c-1-0.1-0.8-1.5-1.4-2.2c-0.3,0.1-0.4,0.4-0.8,0.4c0-0.4-0.3-0.5-0.2-1.1c0.4,0.4,1.3,0.2,1.4-0.4
		C5,59.1,4.8,60.7,5,62z"/>
	<path class="st0" d="M2.4,45.5c-0.7,0.3,0.1-1.2-0.6-0.9c0-0.6,0.5-0.5,0.3-1.3C2.8,43.7,2.4,44.6,2.4,45.5z"/>
	<path class="st0" d="M2.6,56.2c-0.8,0-0.9,0.6-1.7,0.2c-0.2-1,0.2-1.4,0.3-2.2c0.3,0,0.5,0,0.8,0c-0.1-0.6-0.3-1.6,0-2.2
		C2.2,53.3,2.6,54.5,2.6,56.2z"/>
	<path class="st0" d="M2.3,68.5c-0.6,0.2-0.5-0.5-0.6-0.9C2.2,67.5,2.2,68,2.3,68.5z"/>
	<path class="st0" d="M0.6,47.7C1,48.2,0.5,49,0.4,49.5C0,48.8,0.3,48.3,0.6,47.7z"/>
	<path class="st1" d="M117.9,70c0-0.3-0.1-0.5-0.3-0.5c-1.8,0.6-1.4,1.7-2.1,3.3c0.2,0.4,0.8-0.3,0.8,0.5c-0.5-0.4-0.3-0.2-0.9,0
		c0-0.4,0-0.9-0.2-1.1c-1.4,1.1-3.1,1.8-4.4,2.9c0.1,0.2,0.4,0.2,0.3,0.5c-1.3,0.1-3.3,0.2-3.8,2.4c-0.4-0.9-1.2,0.3-1.7-0.5
		c-1.6,0.7-3.7,1.7-4.1,3.6c-1.8,0.2-2.9,0.5-2.9,2.2c-1.6,0.3-2.6,2.7-3.7,4.2c0.9,1-1.1,1.8-0.9,2.7c-1-0.1-0.7,0.5-0.9,1.1
		c0.7,0.4,1.2-1.1,2.1-1.1c-0.4,0.9-1.4,1.2-1.8,2.2c0.3,0.4,1.1,0,1.4-0.2c0.4,0.4-0.7,0.7-0.8,1.1c0.1,0.7,0.5,0.1,0.9,0.2
		c0,0.6-0.9,0.1-0.9,0.7c1.2,0.1,2.2-1.5,3.1-2.4c0-0.4-0.4-0.4-0.8-0.4c0-0.6,0.9-0.1,0.8-0.9c0.1,0.3,0.6,0.4,0.3,0.7
		c0.7-0.2,0.8-1.1,1.4-1.5c-0.2-0.4-0.5,0.5-0.9,0.4c0-0.3,0.1-0.3,0.2-0.5c-0.9,0.1-1.3,1.5-2.1,1.1c1.3-1.3,3.4-1.7,4-3.8
		c0.9-0.2,1.5,0.1,1.7-1.1c-0.3,0-0.3,0.2-0.6,0.2c0.5,0.4,0.1,0.2-0.2,0.5c0-0.8,0.2-3,1.8-2.4c0.2-0.4,0.5-0.6,0.6-1.1
		c-0.6-0.1-0.3-0.2,0-0.9c-0.3-1.1-1,0.4-1.2,0c0.4-1.6,2.3-1.4,3.1-2.5c0.1,0.6-0.7,1.7-1.4,2c0.3-0.2,0.8-0.1,1.2,0.5
		c0.9-1.2,1.6-3.5,2.8-3.8c0.4,0.1-0.6,1.1-0.2,1.3c-1.4,0.4-1.7,2.9-2.9,2.9c0.1,0.2,0.1,0.3,0.3,0.4c-0.1,0.1-0.6,0-0.5,0.9
		c-0.6,0.5-0.9,0.2-0.9,0.9c-1.1,0-1.5,0.6-2,1.3c1.7,0.4,2.1-1.9,3.5-2c0.1,0.5-0.3,0.4-0.3,0.7c0.3-0.2,0.4-0.5,0.9-0.4
		c-0.1,0.6,0.2,0.7,0.2,1.3c-0.4,0-0.6,0.4-0.8,0.7c-0.4-0.1,0.2-0.5,0.2-0.7c0-0.2-0.3-0.1-0.3-0.4c-0.3,0.3-0.4,1-0.8,1.3
		c-0.2-0.3,0-0.9,0.3-1.3c-0.6,0.3-1.2,0.5-1.7,0.9c0,0.5,0.4,0.5,0.8,0.5c0,1.4-0.3,4.2-1.8,4c-0.1-0.5,0.3-0.4,0.3-0.7
		c-0.5,0-0.6,0.3-1.2,0.2c-0.7,1.2-1.9,1.8-2.9,2.5c0.1,0.2,0.3,0.3,0.5,0.4c-0.5,0.7-1.3,0.1-1.7,0.9c-0.4-0.2,0.5-0.5,0.5-0.9
		c-1.2,0.6-2.2,1.4-3.1,2.4c0.6,0,0.8-0.6,1.4-0.7c0.4-0.1-0.1,0.8,0.5,0.5c-0.5,0.7-1.4,0.4-1.2,1.4c-0.6-0.4-1.5-0.3-1.5,0.9
		c1.8,0,3.6-1.6,5.8-2.2c-1.1,1.2-3.7,2.1-4.3,2.7c0,0.3-0.2,0.8-0.3,1.4c-0.8,0.1-1.6-0.2-1.7,1.1c1.4-0.9,3.4-0.9,4.9-1.6
		c-0.6,1.1-2.7,0.6-3.1,2c-0.2-0.6-1.7-0.2-1.7,0.5c-0.9-0.1-1.4,0.2-2.3,0.2c0,0.5-0.1,1.1,0.3,1.1c-0.5,1.1-1.9,0.1-2.3,1.3
		c0,0.2,0.2,0.1,0.2,0c-0.1,1.1-1.7,0.6-2.6,0.7c-1.2,0.2-2.4,1-3.1,0.9c-0.1-0.2-0.6-0.1-0.5-0.5c-0.4,0.4-1,0.1-1.2,0.4
		c0.1,0.2,0-1.3-0.5-0.5c0.5-0.9,2.7,0.2,3.7-0.7c-0.8-1.8-2.9,0-4.9,0.2c0.1-0.3,0.5-0.3,0.8-0.5c-0.3-0.5-1.1,0-1.5,0
		c-0.4,0.2,0.2,0.5-0.2,0.7c-2.4,0.1-3.6,0.6-5.2,1.8c0.1,0.4,0.5,0.4,0.2,0.7c-0.7,0.8-2.8,0.1-3.2,1.3c0.2,0.1,0.2,0.1,0.5,0.5
		c-0.3,0.7-1,0-1.8,0c0-0.7,0.2,0.1,0.5-0.4c-0.2-0.4-1.9-0.7-2,0c-3.4-0.7-6.7-0.5-10-1.1c0.3-0.4,1.2-0.1,1.7-0.2
		c-1.5-1.6-4.4-0.6-5.8-2.4c2.2,1,3.8,0.4,6.1,1.3c0.1-0.7-0.7-0.1-0.5-0.9c4.5,0.1,9.2,2.5,13.3,0.5c-1.2-0.2-1.5-1.4-2.8-0.9
		c-0.3-0.8,1.9-0.1,2-1.1c0.7,0.2,0.6,0.5,0.8,1.1c0.1-0.1,0.2-0.2,0.5-0.2c-0.1-0.2-0.1-0.3-0.3-0.4c0.4-0.1,1-0.5,1.8-0.5
		c-1-0.5-1.7,0.1-3.1-0.4c1.2-0.3,2.4-0.4,3.2-0.4c-0.1-0.4-1.2-0.9-1.4-0.2c-0.1-0.3-0.5-0.3-0.5-0.7c0.4-0.1,0.8-0.3,1.2-0.4
		c-3.1-0.3-6.6,0.4-10,0c1.1,0.4,2.4,1,3.8,1.4c-0.2,2-3.6,1.9-4.6,0.9c0.3-0.5,0.8,0.2,1.4,0c0-0.2-0.3-0.2-0.5-0.2
		c-0.1-0.3,0.1-0.3,0.3-0.4c-1.3-0.7-2.9,0.2-4.4,0.5c-1.2-0.8-3.2-0.7-4-2c-0.4,0-0.5,0.3-0.8,0c0.6-0.2,0.1-0.6,0.9-0.5
		c-1.5-1.2-3.5-1.9-5.5-2.5c0.2,0.5,0.8,0.5,1.2,0.7c-0.7,0.6-1.3-0.7-2-0.2c1.1,1.2,3.2,1.2,4.4,2.2c-3.7,0.7-6.5-2.5-9.8-3.4
		c0.1,1,1.1,0.9,1.1,2c-0.4-0.3-0.7-0.6-1.1-0.9c-0.1,0-0.1,0.2-0.2,0.4c0.3-0.1,0.8,0.5,1.2,0.7c-0.8,1,1,1,1.4,1.6
		c-0.6,0.7,0.2,0.6,0.3,1.5c3.5,1,6.3,2.7,9.7,3.8c-3.5,0.6-6.8-2.2-10.3-2.9c-0.5-0.7-1.3-1-2.1-1.3c0.5,0.5,0.9,1.1,1.7,1.3
		c-1.9,0.7-3.5-1-5.4-1.8c0.3,0.9,1.8,2,3.2,2.2c0.3,0.5,0.5,1,0.9,1.3c0.1-0.8,2.1,1,2.5,1.1c0.1,0.1,0.2,0.6-0.2,0.7
		c1.3,0.9,2.7,1.6,4.4,2c0.1-0.4,0-0.6-0.3-0.5c0.4,0,1.6-0.5,1.7,0.4c-0.2-0.3-0.8-0.2-1.2-0.2c-0.1,0.7,0.7,0.2,0.8,0.5
		c-0.3,0.5-1.1,0-1.5,0c1.3,1.1,3.5,1.6,4.4,2.5c-0.7-0.3-2.7-0.5-3.2-1.6c-1.9,0.3-2.7-1-4.1-1.3c0.1-0.6,0.3-0.1,0.8-0.2
		c-0.7-0.8-1.9-0.9-2.9-1.3c-0.2,0-0.1,0.3-0.2,0.5c-2.3-0.6-4-3-6.1-2.7c-0.5,0.1,0.1,0.4,0,0.7c-0.8-0.9-3.1-0.8-3.2-1.8
		c-0.6,0.3-0.9-0.3-1.5-0.4c0,1.4,3.1,1.5,2.8,3.4c-0.5-0.2-0.9-0.6-1.2-1.1c-0.5-0.1-0.3,0.5-0.8,0.4c-1.6-2-3.4-4-5.5-5.4
		c0.1-0.7,0.7-0.1,0.9,0.2c0.3,0,0.3-0.5,0.3-0.9c-0.6,0.3-0.2,0.1-0.2,0c0-0.9-1.2-2.6-1.1-3.4c0.5-0.2,0.3,0.3,0.5-0.5
		c0.8-0.2,0.5,0.8,1.1,0.9c0.2-0.8,0-0.7,0.6-0.2c0-1-0.9-0.8-1.4-1.3c0.1-0.3,0.3,0,0.5,0c0-0.9-0.6-1.1-1.2-1.3
		c0.8,0.1,0.4-2.4-0.8-2.9c0.6-0.8-0.5-1.2-0.8-2c0-0.3,0.5-0.1,0.5-0.4c-0.5-0.4-0.9-0.4-1.4-0.5c0.4-0.6,0.2-0.5-0.2-1.1
		c-0.7,1-1.1-1.1-1.8-1.3c-0.5,1.2,0.9,1.5,0.9,2.7c-0.9,0-0.3,0.5-0.5,0.7c-0.9-0.6-1.2-1.8-2.1-2.4c-0.1,0.1,0.4,1,0.6,1.3
		c-0.1,0.3-0.1,0-0.3,0c0.2,0.9,0.8,1.3,1.1,2.2c-1.1-0.5-0.7,2.3-1.8,2c0.1,0.9,0.8,1,1.1,1.6c0.4,0,0.5-0.3,0.9-0.2
		c0,0.7,0.8,0.5,0.8,1.3c-0.7,0.2-0.5-0.6-1.1-0.5c-0.3,0.5,0.5,0.8,0.6,1.3c-1.1-0.1-2-2-3.1-2.7c-0.2,0.1-0.2,0.4-0.5,0.4
		c0.1-0.4-0.1-0.5-0.2-0.7c-0.1,0.1-0.2,0.2-0.5,0.2c0.8,2.7,3.3,3.3,4.3,5.8c-2.7-2.3-4.6-5.5-7.2-8c-0.3,0-0.1,0.6-0.2,0.9
		c-2.7-1.5-2.8-4-3.8-7.3c0.6,0.5,0.8,1.4,1.5,1.8c0-0.6-0.4-0.7-0.3-1.4c0.3,0.2,0.5,0.6,0.6,1.1c0.5-0.2-0.2-0.6,0-1.1
		c1.3,1,1.6,3.3,2.8,4.5c-0.2-1.9-1.2-2.9-1.5-4.7c0.3,0.1,0.3-0.1,0.3-0.4c0.3,0.1,0,0.9,0.6,0.7c0.2-1.3-0.8-2.7-1.2-3.8
		c0.9-0.3,1.1-0.5,1.8,0.5c0-0.5-0.3-0.6-0.3-1.1c0.4,0.5,0.8,1.1,1.2,1.6c0.3,0.1,0.3-0.3,0.3-0.5c0.8,1.7,1.9,3.1,2.9,4.5
		c-0.2-1-1-1.3-0.9-2.5c0.2-0.1,0.3,0.2,0.5,0.2c-1.2-2.1-0.1-4.9-1.7-6.5c0.4-0.9-0.4-1.4-0.6-2.2c-0.4,0.4,0,1.5,0.2,1.8
		c-0.2,0.3-0.8-0.6-0.8-1.3c-0.6-0.2-0.3,0.6-0.9,0.4c0.1-0.9-0.6-2.2-0.8-3.4c0.2,0,0.3,0,0.5,0c0.2-1.4-1.3-1.6-0.9-2.5
		c0.2,0,0.1,0.5,0.3,0.5c-0.1-0.6-0.4-2.2,0.5-2.9c-0.1-0.2-0.3-0.3-0.5-0.4c0-0.4,0.6-0.2,0.6-0.5c0-0.2-0.5-0.2-0.5,0
		c-0.4-0.2,0.4-0.5,0.3-0.9c-0.5,0-0.4-0.4-0.8-0.9c0.3-0.5,0.3-1.3,1.2-1.1c0,1.4,0.4,2.2,0.8,3.1c2-0.6,1.2-2.2,1.8-3.6
		c-0.1,0.1-0.2,0.2-0.5,0.2c0.4-0.2,0.3-1.1,0.8-1.3c0.1-0.4-0.7,0.1-0.5-0.5c0.2,0,0.3,0,0.5,0c-0.6-0.9-0.1-1.6,0.2-2.4
		c-0.4-0.1-0.3,0.4-0.5,0.5c-0.5-2.3,0.8-3.1,0.2-5.4c0.4-0.8,0.1-1.5,0.8-2.2c-0.1-0.2-0.4-0.2-0.3-0.5c-0.3-0.1-0.3,0.1-0.3,0.4
		c-0.3,0-0.3-1.1,0-1.1c0-0.3-0.5-0.1-0.5-0.5c-0.5,0.8,0.1,1.1-0.2,2c-0.6-0.4-0.5-1.6-0.8-2.4c-0.6,0.1-0.3,1.5-0.6,2
		c-0.3-0.1-0.3-0.5-0.5-0.7c0.4-0.7,0.2-1.2,0.3-2c-0.4-0.1-0.3,0.3-0.8,0.2c0.1,1.1-0.3,1.6-0.2,2.7c-0.3-0.2-0.3-0.7-0.6-0.9
		c-0.2,0.6-0.6,1-0.5,2c-0.3-0.5-1.1-0.5-1.1-1.4c-0.5,0.2-0.5,0.3-0.9,0.4c0.1,0.6-0.2,0.7-0.2,1.1c-0.8-0.6,0.2-3.3-0.9-3.4
		c0.6,0.1,0.7-1.5,0.8-2.5c-0.6-0.1-0.3,0.9-0.6,1.3c-0.6-0.6-0.4-1.4-0.2-2.4c-0.1-0.6-0.6,1-0.6,0c-0.2,0.2-0.3,0.6-0.3,1.1
		c-0.4,0.1-0.2-0.5-0.5-0.5c0.1,1.3-0.8,2.3-0.8,4c-0.5-0.2-0.4-0.1-0.6,0.4c-0.9-0.7,0.9-2.4-0.3-2.9c-0.1-0.8,0.5-0.7,0.6-1.3
		c-1.6-0.7-0.1,3.6-1.4,4.7c0.2-1.8-0.6-1.9-0.5-3.3c-0.7,0.2-0.4,1.5-0.5,2.4c-0.7-0.5,0.1-2.6-0.2-3.4c-0.3,0.3-0.2,1.1-0.5,1.5
		c-0.5-0.6-0.8-0.6-1.4-0.5c0-0.6,0.1-1.6,0.2-2.5c-0.2,0.6-0.4,1.2-0.5,2c-0.2-0.1-0.3-0.2-0.3-0.5c-0.7,0.1,0.1,1.5,0.3,0.9
		c0.3,1.9,0,3.4,0.3,5.3C7.6,55.3,7.3,55.1,7,56c-0.6-0.5-1.5,0.7-1.4,2.2c-0.2,0-0.4,0-0.6,0c-0.3-0.2,0-1.1-0.5-1.1
		c-0.5-0.2-0.1,0.6-0.6,0.4c-1.9-2.2-0.5-8-1.2-11.6c0.3-0.1,0.4-0.4,0.8-0.4c-0.1,2.3-0.6,4.5-0.2,6.2c0.6-2.8,0.2-6.1,1.5-8.2
		c1,1.2,1.1-1.3,1.8-1.5c-0.4,1.7-0.3,2.9-0.2,5.6c1-0.6,0.7-2.7,1.2-3.8c0.3,0,0.1,0.6,0.2,0.9c1.9-2.5,1.6-7.6,3.8-9.6
		c0.4,0-0.2,0.3,0,0.7c0.2,0,0.3,0,0.3,0.2c0.9-0.9,1-2.3,2.1-2.5c-0.1,0.8-0.1,1.2-0.5,2.2c1.3-1.7,2.5-3.4,4-4.9
		c-1.2,0.5-1.8,1.6-2.8,2.4c0.9-1.7,1.9-3,4-4.2c-0.2-1.1,0.4-1.2,0.8-1.6c-1.1,0.4-3.2,1.1-4.3,2.2c-0.3-0.6,1.7-1.8,1.1-2.2
		c0-0.1,0.2-0.2,0.2-0.4c0.2,0,0.3,0,0.3-0.2c0.5,0.1-0.1,0.4,0,0.7c0.9,0.2,2.2-0.9,2.9-0.2c0.9-1.1,2.8-1.2,3.4-2.7
		c-0.6-0.1-0.9,0.6-1.2,0.2c-0.1-1.4,1.2-0.8,2-1.5c0.4,0.4-0.6,0.6-0.6,1.1c0.6,0,0.9-0.4,1.2-0.7c0.8,0.8-0.7,1-0.8,1.8
		c-1.7,0.6-3.1,1.7-4.3,2.9c0,0.1,0.2,0.2,0.2,0.4c0.5,0.1,0.3-0.5,0.8-0.4c-0.6,1-2,1.2-2.6,2.4c1.2-0.2,1.8-1.2,3.2-1.3
		c-0.1,0.3-0.4,0.5-0.5,0.9c1.3-0.3,2.2,0,2.8-0.9c0.5,0.2-0.2,0.5-0.2,0.7c0.6,0.1,0.9-0.2,1.4-0.2c0.4,0.4-0.2,0.3-0.2,0.9
		c0.6,0.2,1.3-0.7,1.8-0.5c-0.5-0.5,0.3-0.8-0.3-0.9c1.3-1,2.8-0.2,4.6-0.9c-0.1,0.3,0.1,0.3,0.3,0.4c0,0.4-0.7,0-0.6,0.5
		c1,0.1,2.8-0.3,3.1-1.6c-0.4,0.1-0.6,0.3-1.1,0.2c0.1,0.1,0.2,0.3,0.2,0.5c-0.5-0.3-0.3-0.3-1.1-0.2c0.4-0.5-0.2-0.1-0.2-0.7
		c0.2-0.2,0.4-0.2,0.8-0.2c0.2-0.6-0.5-0.1-0.3-0.7c0.7,0.1,1.3-0.6,0.9-1.8c0.3-0.1,0.4-0.4,0.8-0.4c-0.4-0.5-0.7-0.2-0.3-0.9
		c0-0.1-0.2-0.2-0.2-0.4c-0.5,0-0.6,0.3-1.2,0.2c0.1-0.6,0.6-0.7,1.1-0.7c-0.9-0.5-1.6-0.1-2.8-0.2c0.1-0.6-0.3-0.6,0-0.9
		c1,1.1,2.4-1.1,3.5,0.2c0.6-0.2,0.7-0.9,1.4-0.9c-0.2-0.5-0.1-0.8,0.5-0.9c0.1,0.5-0.3,0.4-0.3,0.7c0.8,0.1,0.2-0.9,0.5-1.1
		c0.6,0,0.8-0.6,1.4-0.7c-0.6,1.4-1.5,2.1-1.8,3.3c2.2,0.2,3.1-1.2,4.4-3.1c-0.8,0.2-1,0.6-1.8,0.4c0.4-1,1.7-1,1.7-2.5
		c0.5,0.1,0.8-0.2,1.5-0.5c0.1-0.3-0.8-0.3-0.8,0c0.9-2,3.2-0.8,4.7-2.5c0-0.5-1.1,0.3-0.9-0.5c-1.4,0.6-3.4,0.4-4,2.4
		c-1.5-0.6-1.5,0.8-2.6,1.1c0.1,0.6,0.4,0.2,0.2,0.9c-0.4-1-0.8,0-1.4,0.2c0.4-1,1.4-1.2,1.7-2.4c-0.5-0.9-0.7,0.7-1.7,0.4
		c0.9-1.2,2.4-2.6,3.2-3.3c-0.4-0.9,0.7-0.9,0.8-1.8c0.6,0.9,1.5-0.3,1.7-1.1c0.5,0.1-0.1,0.4,0,0.7c0.5-0.3,1-0.5,1.2-1.1
		c1,0.7,2.5-0.5,2.9-1.6c0.7,0.1,0.9-0.2,1.5-0.2c0,0.7-0.7,0.5-0.8,1.1c0.6,0.1,0.6-0.6,1.1-0.7c-0.4,0.4,0.3,0.6,0.8,0.5
		c-0.3,0.2-0.4,0.6-0.5,1.1c0.8-0.4,1.6-0.8,2.5-1.1C50.6,8,50.3,8,50.4,7.6c0.2-0.2,0.4-0.2,0.8-0.2C51,7.8,50.8,8,50.7,8.3
		c0.2,0.3,0.8-0.5,1.1-0.7c0.4,0.2-0.3,0.5-0.3,0.7c1.2,0.6,1.8-0.5,3.4-0.4c-0.1-0.8-1-0.1-1.4-0.2c0.2-0.9,2-0.7,1.5,0.4
		c0.1,0.4,0.2-0.2,0.5,0.2c-0.6,0.8-1.4-0.2-2.3,0.4c0.7,0.3-0.6,1-0.9,0.5c-0.4,0.1-0.4,0.7-0.6,1.1c1.1-0.2,1.8-0.8,2.9-0.4
		C54.4,9.3,54,10,53.7,9.6c0.2-0.4,0.7-0.3,0.8-0.9c0.3,0.3,0.9,0.2,1.1,0.5c1-1.1,2.8-1.4,4.6-1.5c-0.6,0.4,0,0.7,0.5,0.4
		c-0.2,1.5-3,0.5-4.3,0.5c0,0.3,0.2,0.4,0.2,0.7c0.3-0.7,0.6,0.3,0,0.4c1.2,0.4,1.8-0.3,3.1,0.2c0.1,0-0.3,0.3-0.3,0.2
		c0.1,0.8,3.2,0.4,3.8-0.4c0.6,0.7,1.1,0.3,1.5,1.1c1-0.6,1.8-0.6,3.4-0.2c-0.7,0.1,0.1,0.6,0.6,0.7c0.6-1.2-1.4-1.3-2.1-1.6
		c0.6,0.5-0.1,0.2-0.3,0.5c-0.2-0.3-0.4-0.6-0.8-0.7c0-0.2,0.2-0.1,0.3-0.2c-0.6-0.8-1.1-0.8-2.5-0.9c0.1-1.2-1.8-1-2.5-0.7
		c-0.1-0.8-1.4-0.3-1.5-1.1c0.2-0.5,0.8,0,0.8,0.4c0.4-0.1,0.4-0.5,0-0.5c0.9-0.2,1.4-0.3,2.8-0.2c-0.1,0.2-0.2,0.5-0.2,0.9
		c1-0.3,1.6,0.2,2.5-0.2c-0.1-0.6-1.5-0.9-0.8-1.4C63.6,5.7,64,6.3,63.2,6c-0.1-0.4,0.7-0.6,0.2-0.9c0.9,0.1,2.3,1.4,3.4,1.1
		c-0.6,0.6,0.4,0.3,0.6,0.7c-0.5,0.4,0.1,1-0.8,0.9c0.5,0.4,0.9,0.5,1.7,0.4c-0.1,0.4-0.6,0.4-1.1,0.4c0.9,0.6,1.7,0.1,2.9,0.5
		c-0.5-0.4-1.2-0.8-1.4-0.9c0-0.7,1.4,0,1.8,0c0-0.5-0.6-0.3-0.8-0.5c0-0.3,0.3-0.4,0.6-0.4c0-0.5-0.3-0.5-0.6-0.5
		c0.4-0.4,1.5,0.1,1.8,0.7c1.3-0.4,3-0.2,2.9,1.3c-0.4-0.2-0.8-0.4-1.4-0.4c-0.1,0.2,0,1.2-0.3,1.6c-0.3-0.7-1.6-0.7-2,0
		c-0.5,0-0.6-0.5-0.9-0.7c0,0.6-1.4,0.1-2.3,0.2c0.6,1.3,2,0.9,3.1,1.3c0.2-0.1-0.1-0.2,0-0.5c0.3-0.1,0.5,0.5,0.5-0.2
		c0.6,0.8,0.7,1.1,2,1.1c0-0.6-0.8-0.3-0.8-0.9c0.2,0.2,0.4,0.2,0.8,0.2c-0.5,0.6,0.4,0.4,0.6,0.7c-0.2-1.3,1,0.7,1.1-0.7
		c0.4,0,1.4,1.2,1.4,0c0.5,0.4,0.9,1.5,1.8,0.9c-0.1,0.2-0.2,0.3,0,0.4c0.1,0.4-0.2,0.3-0.5,0.4c0.7,0.2,0.5,0.1,1.1,0.4
		c0.3-0.2-0.4-0.6-0.2-1.3c0.6-0.1,0.3,0.9,0.9,0.9c0.3-0.2-0.4-0.2,0-0.7c0.3,0.4,1.1,1,1.4,0.4c0.9,0.9,1.9,1.2,2.8,0.9
		c0.3,1,0.7,1.9,1.7,2.2c-0.1-0.7-0.6-0.9-1.1-1.1c0.3-0.8,0.8,0.2,1.2,0.4c0.3,2.4,2.5,2.5,4,3.4c-0.2-0.6-1.1-0.4-1.1-1.3
		c0.9,0.8,1.7,0.5,2.8,1.1c0.2-0.2,0.2-0.6-0.3-0.7c0.1-0.4,0.9-0.1,1.2-0.2c-0.1-0.2-0.2-0.3,0-0.4c-0.6-0.5-1.1-1.1-1.8-1.5
		c0.1-0.2,1.8,0.8,2.3,0.4c-0.5,0.3,0,1,0.8,1.3c0.1-0.3-0.2-0.5,0.2-1.1c-0.3-0.2-0.4-0.6-0.9-0.5c0.6-0.4,1.3,0.6,1.8,0.7
		c0.1,0.4-0.2,0.3-0.5,0.4c-0.1,0.6,0.6,0.2,0.2,0.7c0.9,0.9,1.8,1,3.1,1.6c0.2-0.6-1-1-0.8-1.6C94.9,16.5,95,15,94,14.7
		c0.1-1.2,1.3,0.1,1.7-0.7c0.3,0.9,0.9,1.5,1.8,1.6c-1,0.6,0.2,1,0.9,1.1c-0.1,1.1,0.7,1.3,1.4,1.5c0.2,0.5-0.3,0.3-0.6,0.4
		c-0.1,1.3,1.4,0.8,1.8,1.5c-0.1,0.4-0.9,0.2-1.1,0c-0.4,0,0,0.7,0.2,0.7c-0.9,0.5-1.5,0.4-1.7,1.3c0.2,0.5,0.7,0.5,0.6,1.3
		c0.6-0.4,1.3,0,1.7,0.4c-0.1-0.6-0.7-0.6-0.6-1.4c0.4,0.1,0.6,0.3,1.1,0.2c0.1,0.3,0.2,0.5,0.3,0.7c-0.1,0.6-0.3,0.9-0.9,0.9
		c0.2,0.5,0.6,0.8,0.9,1.1c0.2-0.2,0.3-0.5,0.6-0.2c0-0.5-0.3-0.6-0.3-1.1c0.6-0.1,0.4,0.7,1.1,0.5c-0.3-0.9-1.9-1.1-1.4-2.4
		c0.2,0.3,0.4,0.6,0.6,0.9c0.5-0.3,1-0.2,1.1,0.5c0.1-0.3,0.4-0.5,0.5-0.9c0.6,0.1,0.9,0.8,1.2,0.7c0.2-0.1,0.1-0.5,0.2-0.7
		c-0.2-0.3-0.8-0.1-0.6-0.9c-0.3,1.5-1.7-0.4-1.8,0.9c-0.1,0-0.2-0.2-0.3-0.2c0-0.2-0.1-0.2-0.2-0.2c0.3-0.4,1.4-0.5,1.8-0.2
		c0-0.4,0-0.7-0.2-0.9c-0.2,0-0.1,0.3-0.2,0.5c-0.3-0.2-0.7-0.2-0.6-0.9c0.4,0.7,1.2-0.5,2,0.2c0.2-0.2,0.2-0.6,0.3-0.9
		c0.2,0.2,0.7,0.7,0.6-0.2c0.6,0.2,0.9,0,1.2,0.7c0.7-1.1,2.1,0.4,2.8-0.4c-0.3,0.7,0.7,1.8,1.2,1.4c0.1,0.1-0.3,1.1-0.6,1.3
		c0.1,0.9,1.3,0.5,1.2,1.6c0.1-0.1,0.3-0.2,0.3,0c0.2-0.1,0.1-0.5,0.2-0.7c0.4,0.2,0.5,0.7,1.2,0.5c0,0.3,0,0.5,0.2,0.5
		c-0.2,0.8-0.5-0.4-0.8,0.4c-0.6,0-0.7-0.6-1.4-0.5c-0.2,0.6-0.9,0.6-1.1,1.3c0,0.5,0.4,0.7,0.6,0.9c0.4,0-0.2-0.3,0-0.7
		c0.2,0.1,0.7,0.7,0.9,0.2c0.3,0.3,0.6,0.4,0.6,1.1c0.6-0.5,0.2-0.8,1.1-0.9c0-0.4,0-0.7-0.3-0.7c0.9-0.5,0.7,1.7,1.8,1.4
		c0.6,1.3,0.7,1.1,1.5,2.2c-0.5,0.5-1.1-0.9-2-1.1c-0.1,0.7,0.3,0.7,0.3,1.3c-0.5-0.3-0.5-0.1-1.1,0c-0.4-1-0.8-1.9-2-2
		c0.2,0.7,0.2,0.6,0.3,1.3c-0.4-0.6-0.7-1.1-1.1-1.6c-0.3,0.5,0.4,1.5,0,2.2c1-0.8,1.4,1.2,2.3,0.5c-0.1,0.6-1,0.2-0.5,1.1
		c-0.5,0.2-0.6-0.2-0.8-0.4c0.5,0,0.1-0.4-0.3-0.7c0.1,0.8,0.1,1.5,0.8,2c0.2,0,0.1-0.3,0.2-0.5c0.3,0.7,0.4,2.5,1.5,2
		c-0.2,0.6,0.1,1.5,0.5,2c-0.5-0.2-1.6,0.6-2.3,0c-0.1,0.5,0.2,0.5,0.2,0.9c0.8-1.2,1.5,2.5,2.1,0.7c0.5,1.2,0.5,1.7,0.8,3.1
		c-0.2-0.2-0.8-0.3-0.6,0.4c-0.3-1.3-1.9-2-2.1-3.8c-0.3,1.7,0,3.3,0.5,4.9c-0.2-0.1-0.2-0.4-0.5-0.4c-0.2,1,0.2,1.7,0.3,2.9
		c-0.2,0.1-0.3-0.2-0.5-0.2c0.1,1,0.3,1.9,0.8,2.5c-0.2,0.6-0.4-0.2-0.6-0.2c-0.3,0.8,0.8,2.7,0.5,4.3c0.9-0.8,0.7-2.7,0.5-3.8
		c1.2,0.7,0.4,2.7,0.8,4.4c0.9-0.7,0.2-3.2,0.6-4.4c0.6,0.9,0.5,2.7,1.1,3.6c-0.4,0-0.3-0.3-0.6,0c-0.1,0.9,0.5,1,0.5,1.8
		c-0.3-0.7-0.3,0.1-0.6,0.4c0.1,0.2,0.4,0.2,0.3,0.5c-0.2-0.2-0.2-0.1-0.5,0c0.3,0.6-0.2,0.8-0.3,1.4c0.2,0.5,0.7,0,0.9,0
		c-0.1,2.1-1.3,2.8-2,4.2c0-1,1.1-2.2,1.2-3.6c-0.9,1.2-1.5,2.9-2.1,4.4c0.2,0.6,0.8-0.8,0.9,0.2c0.1,0.7-0.7,0.2-0.8,0.5
		c0.5,0.3,0.9,1.1,1.4,1.1c0.2,0.4-0.1,0.5-0.2,1.1c0.1,0.4,0.8,0.2,0.8-0.2c-0.1,0.9-2,2-1.8,3.3c-0.7,0.1-0.8,0.8-1.5,0.9
		c0.3-0.2,0.5-1.1,0.9-0.7c-0.5-0.4,0.5-0.8,0-1.1c0,0,1.1-0.3,0.3-0.5c0.3-0.2,0.9,0,1.1-0.7c-0.4-0.6,0-1.9-0.9-2.2
		c-0.2,0.2-0.1,0.8-0.8,0.5c0.2-0.5,0.2-1.3,0.2-2c-1.2,0.5-0.7,1.4-1.1,2.4c-0.6-0.8-0.6-1.7-0.8-2.7c0.3-0.2,0.9-0.1,0.9-0.7
		c0.3,0.1,0.6,0.3,0.5,0.9c0.4-0.6,0.6-1.2,0.5-2.2c0.7-0.5,1.5-1.9,1.1-3.1c-0.4,0.8,0.1,1.7-1.1,2.2c0-1.2,0.8-1.6,0.6-3.1
		c-0.4,1-0.9,1.9-0.8,2.9c-0.3,0-0.3-0.2-0.6-0.2c0.1,0.2,0.1,0.3,0.3,0.4c-1,0.6-1.6,1.9-2,3.3c-0.5-0.5-1,0.3-0.9,1.1
		c-0.8-1.3-0.5,0.6-0.8,1.5c-0.2-1-1-0.2-1.4,0.2c0.2,0.6,1.1,0.3,0.6,1.1c0.3,0.1,0.3-0.3,0.3-0.5c0.3,0.7,0.8,1.5,0.8,2.5
		c-0.2,0.2-0.5-0.3-0.8,0.4c-0.4-0.2,0.1-1.4-0.3-1.6c-0.3,0.7-0.1,1.9-1.1,1.8c0.2,0.7,0.5,0,1.1,0.2c-0.5,0.5-0.2,0.4,0.5,0.4
		c0,0.3,0.2,0.4,0.2,0.7c-0.1-0.1-0.2-0.2-0.5-0.2c0.4,1-0.2,1.8-0.2,2.9c0.5,0.1,0.6-0.3,1.1-0.2c0.3,0.4-0.3,0.7-0.3,1.3
		c-0.5-0.1-0.6,0.3-0.9,0c-0.4,0.5-0.5,1.5-1.4,1.5c0.1,0.4,0.8,0.1,1.1,0.2c0,0.9-0.1,1.6-0.5,2c-0.4-0.2,0.3-0.6-0.2-0.9
		c-0.2,0.4-1.1-0.1-1.1,0.5c0.1,0.3,0.2-0.1,0.5,0c-0.7,0.3-1.3,1.5-2.1,0.9c-0.1-0.6,0.5-0.3,0.6-0.5c-1.1-0.6-1.8,0.9-2.1,2
		c0.1,0.5,0.5-0.1,0.8,0c0,0.4-0.4,0.2-0.3,0.7c0.7,0,0.7-0.7,1.4-0.7c0.1-0.4-0.7,0.1-0.5-0.5c0.4-0.7,1.8,0.8,2.8,0
		c0.1-0.6-0.5-0.5-0.2-0.9c1.2,0,1.7-1,2.6-1.4c-0.3-0.4,0-1,0.2-1.5c0.3,0.3,0.9,0.1,1.4,0.2c-0.2,0.3-0.2,0.5,0,0.7
		c0.4-0.1,0.6-0.5,1.1-0.5c0,0.4-0.1,0.6-0.5,0.5c0.8,0.5,1.6-0.6,2.5-0.7c-0.6-0.2,1.3-1.5,1.8-2.2c-0.2-0.2-0.5-0.2-0.6-0.5
		c0.2-0.7,1-0.8,1.2-1.5c-1.2,0.6-2.6,2.5-4.3,3.1c1.4-1.1,2.6-2.5,4.1-3.4c0-0.3,0-0.6,0-0.9c0.4-0.2,0.6-0.7,1.2-0.5
		c-0.2,0.5-0.3,0.6-0.8,0.4c0.3,0.3,0.3,0.4,0.2,0.9c0.6-0.3,1-0.9,1.7-1.1c-0.3-1,0.4-0.5,0.9-1.1c-0.3-1.2,0.8-2,1.1-3.1
		c-0.6-0.8-1,0.9-1.7,0.4c-0.4,0.3-0.6,0.8-0.6,1.6c-0.4-0.1-0.7,0.1-0.6,0.5c-0.5-0.3,0.1-0.8,0-1.3c-0.8,0-1.6,0.5-2.1,1.4
		c0,0.4,0.4,0.4,0.8,0.4c-0.1,0.4-0.3,0.6-0.5,0.9c0.6-0.3,1-0.9,1.5-1.3c-0.1,0.6-1.1,1.7-1.8,2.2c0.5-1-0.6-1.1-0.2-2.2
		c-0.6,0.3-1.1,0.5-1.5,1.3c0.3-2.1,2.9-4.1,3.1-6.3c-0.1,0.5-0.4,0.8-0.6,1.3c-0.6-0.2,0.1-1.1,0.2-1.6c1.3,0.4,1.9-1.9,2.1-3.8
		c-0.8-0.2-0.7,0.6-1.4,0.5c0.1-1.1,0.5-3,0.5-4.7c0.4,0.3,0.4,1,0.8,0.9c0,0.8-0.7,0.8-0.6,1.8c0.3,0,0.6,0.4,0.3,1.1
		c1.5,0,0.4-3,1.4-3.6c-0.3,2.7-0.7,4.9-1.2,7.8c0.1,0.5,1.1-0.2,0.8,0.7c0.3-0.2,0.4-1.3,0.9-0.7c0.1-0.9,0.2-1.8,0.6-2.4
		c0.3-0.1,0.2,0.3,0.5,0.4c-0.1,0.9-0.5,1.3-0.6,2.2c1.1-0.5,1.4-3.2,0.9-4.4c-0.6,0.2,0,0.7,0,1.3c-0.8-0.1-0.9-0.5-1.7,0.2
		c-0.4-0.6,0.5-1.8-0.2-1.6c0.1-0.6,0.2-3,0.3-3.6c0-2.1,0.3-0.1,0.2,0.9c0.2,0.3,0.3,0,0.8,0c0.1,0.6-0.3,0.5-0.2,1.1
		c0.3,0.1,0.4-0.3,0.2-0.4c0.1-0.6,0.3,0,0.6-0.4c-0.1-1,0.2-1.5,0.2-2.5c0.3,0,0.4,0.3,0.5,0c0.3,0,0,0.8,0.3,0.9
		c0.9-0.5,1.4-0.8,2.1-1.1c-0.2-0.2-0.2-0.8-0.2-1.3c-0.1-0.5-0.2,0.4-0.6,0.2c0-0.5,0.1-1-0.2-1.3c-0.6,0.1,0,0.6-0.2,1.3
		c-0.3-0.7-1.3-0.6-1.4-1.6c0.5-0.2,0.2,0.6,0.6,0.5c0.5-2.1-0.3-2.8-0.2-4.5c0.4-0.2,1.7,1,1.8-0.2c2.3,0.1,1,3.2,1.8,4.3
		c0,0.8-0.2,1.4-0.9,1.5c0-1.7,0.8-3.4-0.6-4c-0.1,0-0.2,0.2-0.3,0.2c0.2,0.9,0.2,2.1,0.8,2.5c-0.6,0.3,0.3,1.4-0.6,1.5
		c0.7,1.2,0.1,1.6,0,3.1c0.1,0.2,0.3,0.3,0.5,0.4c0.4-0.4,0.1-1.6,0.2-2.4c1.6,0.8-0.3,2.6-0.5,3.6c0.7-0.7,1.2,0.1,1.4-0.7
		c0.6,0.5-0.1,3.2-1.2,2.7c-0.1,0.7,0.2,0.9,0.5,1.3c-0.2,0.5-0.3,1.1-0.6,1.5c0.7,2-1.7,2.8-1.2,5.1c-0.7,0.3-0.4,0.7-0.8,1.4
		c-1,0.1-1.8-0.4-2.5,0.2c0.4,0.4,1,0.6,1.5,0.9c0.1,0,0.1-0.1,0.2-0.2C120.5,67.3,119.3,69.2,117.9,70z M119.6,68.2
		c-0.2-0.3-0.9-0.1-0.8-0.7c-0.8,0.8-1.3,0.7-2,1.5C117.8,69.4,119,68.7,119.6,68.2z M33,29c0.8,0.1,1.6-0.6,1.2-1.3
		c0,0.1-0.1,0.2-0.2,0C33.6,27.9,33.3,28.5,33,29z M43.8,12.3c0.2,0,0.6,0.1,0.6-0.2c-0.6-0.3,0.4-0.3,0.2-0.7
		c-1.3,1-3.7,1.1-4.1,2.7C41.4,13.4,42.9,14,43.8,12.3z M97.1,22.3c0.6-0.1,0.9,0.2,1.4,0.2C98.5,21.4,97.2,21.3,97.1,22.3z
		 M123.7,57.3c0.3-0.4,0.2-1.1,0.3-1.6C123.7,55.7,123.1,57.1,123.7,57.3z M123.1,58.9c-0.1,0.4-0.5,0.8,0,0.9
		C123.2,59.5,123.7,59,123.1,58.9z M122.5,44c0.2,1.2-0.3,2,0.3,2.5c0-0.1,0.1-0.2,0.3-0.2C123,45.3,123.3,44.6,122.5,44z
		 M122.5,55.5c-0.6,0.1-0.9,2.1-1.1,3.3C122,57.9,122.6,56.5,122.5,55.5z M120.8,60.7c0.2-0.3,1-1.6,0.5-1.6
		C121.3,59.7,120.4,60.2,120.8,60.7z M117.8,61.6c-0.7-0.1-0.6,0.8-0.8,1.5c0.3-0.2,0.6,0.5,0.6,0C117.6,62.8,117.7,62.3,117.8,61.6
		z M115.9,62.7c0.5-0.5,1.2-0.7,1.2-1.6C116.7,61.4,115.8,62.3,115.9,62.7z M114.1,52.2c0.5,0,0.4-0.6,0.6-0.9
		C114.3,51.4,113.8,51.8,114.1,52.2z M111.2,37.9c0.4,0.3,0.2,1.3,0.9,1.3c0.2-0.2,0.2-0.8,0.2-1.3c-0.4-0.1-0.4,0.3-0.8,0.2
		C111.4,37.9,111.2,37.6,111.2,37.9z M110.4,41c0.4-1.4-1.2-2.5-1.4-4.2c-0.7,0-0.8,1-1.4,0.2c-0.4,1.4,0.9,2.7,1.5,2.9
		c-0.1-0.1-0.5-0.7-0.2-0.7c1.2,1.2,1.6,3.6,2.9,5.1C111.6,43,111.2,41.7,110.4,41z M110.3,44.8c0.2,1.1,0.6,2,1.4,2.4
		c0.4-1.3-0.7-1.8-1.1-2.5c-0.4-0.9-0.3-1.9-0.9-2.9c-0.1,0.6,0.1,1,0.2,1.4c-0.4,0-0.2-0.7-0.6-0.7c-0.1,0.6,0.3,0.5,0.2,1.1
		c0.3,0.2,0.6-0.5,0.6,0C109.6,44.4,109.9,46,110.3,44.8z M110,45.5c0.1,0.8-0.2,1.1-0.5,1.4c-0.4-0.6,0.1-1.1-0.5-1.4
		c0,0.2,0,0.4-0.3,0.4c-0.1,1.2,1.1,1.9,0.9,2.5c-0.2,0-0.1-0.3-0.3-0.4c-0.1,0.3-0.4,0.3-0.3,0.9c0.7-0.5,1-0.2,1.2,0.7
		c0.3-0.2,0.6,0.5,0.6,0C110.4,48.7,110.9,46.5,110,45.5z M110.6,35.9c0.1,0.7,0.1,1.4,0.8,1.4C111.3,36.6,111.1,36.1,110.6,35.9z
		 M110.9,43.5c-0.1,0.6,0.2,0.7,0.5,0.9C111.3,43.9,111.3,43.5,110.9,43.5z M110.3,26.6c0,0.3,0,0.6,0,0.9c0.3,0,0.3,0.2,0.6,0.2
		C110.8,27.2,110.6,26.8,110.3,26.6z M109.6,74.3c0.6-0.1,1.1-0.2,1.2-0.7C110.3,73.6,109.9,73.9,109.6,74.3z M110.3,31
		c-0.3-0.1-0.3,0.2-0.5,0.4c-0.2,0-0.3-0.3-0.5,0c0.4,0.2,0.5,0.8,1.2,0.7C110.7,31.4,110.2,31.6,110.3,31z M110,28.6
		c0-0.2,0.2-0.2,0.5-0.2c0.1-0.6-0.8-1-0.9-0.4c0.2,0.1,0.3,0.2,0.5,0.4C109.7,28.4,109.8,29,110,28.6z M108.9,33.4
		c0.7,0,0.7,0.9,1.2,1.1c0.2-0.8-0.1-1.1,0.2-1.8c-0.4-0.7-1.4-0.7-1.5-1.8c0.3-0.3,0.7-0.5,0.6-1.3c-0.4-0.1-0.8-0.2-0.8-0.7
		c0.3,0.4,0.4-0.1,0.9,0c-0.4-1.1-0.3-1.7-1.1-2.5c0.1,0.4,0.4,1-0.2,1.1c-0.5-0.6-1.5-0.7-2-1.3c-0.2,0.7,0.4,0.3,0.3,0.9
		c-0.4-0.5-0.7,0.1-1.1,0.2c-0.2-0.1-0.3-0.2-0.5-0.4c0.2,0,0.5,0,0.5-0.4c-0.7-0.6-2-1.6-2.6-1.8c0.5,0.8,1.4,1.2,1.8,2
		c-0.2-0.3-0.6-0.4-0.9-0.5c0.1,1,0.7,1.3,0.9,2c-0.9-0.7-1.5-2.7-2.5-2.7c0.8,1.3,1.4,3,2.3,4.2c1.2-0.7,2.4,2.1,3.7,2
		c-0.6-0.2-0.5,0.5-0.6,0.9c0.2,0.5,0.8,0.7,0.9,1.3c-0.7-0.5-1.4-1-2-1.6c0-1-0.4-1.5-1.1-1.6c0,0.6,0.8,1.1,0.5,1.5
		c-0.4-0.1-0.3-0.6-0.8-0.5c0,0.8,0.3,1.2,0.5,1.8c0.3-0.3,0.2-0.9,0.8-0.9c0.1,0.8,0.6,0.9,0.8,1.6c-0.3-0.1-0.4-0.4-0.8-0.4
		c0.6,1.1,1.4,2,1.8,3.3c0.2-0.5-0.1-0.6,0-1.5c0.2,0,0.5,0.7,0.6,0.2c-0.3-0.6-1.7-0.9-1.4-1.6c0.6,0.4,0.8,0.3,1.4,0.7
		C109.3,34.3,108.5,33.5,108.9,33.4z M108.7,58.9c0.7-0.2,1-1,1.2-1.8c-0.9,0.2,0-0.7-0.5-0.9c0,1.1-0.6,1.5-1.2,1.8
		c0-0.6-0.8-0.3-1.2-0.4c0.3,0.9-0.2,1,0,1.5c0.2-0.2,0.9,0.6,1.2,0.9c0.6-0.6,0-1.6,0.9-2C109.2,58.5,108.7,58.4,108.7,58.9z
		 M107.8,24.3c0-0.4-0.2-0.4-0.3-0.5c0.5-0.5,1,0.2,1.4,0.4c0.2-0.4-0.3-0.9,0-0.9c0.1,0.3,0.2,0.6,0.6,0.5c0.1-0.8-0.4-0.8-0.5-1.4
		c0.3-0.1,0.3,0.2,0.5,0.4c0.1-0.6-0.2-0.6-0.3-0.9c-0.9,0.6-1.8,0-2.6,0c-0.3,0.1,0,0.9-0.3,0.9c-0.3-0.4-0.4-1-1.1-0.9
		c-0.1,0.3,0.2,1.5,0.6,1.8c0.1-0.9,0.1,0.2,0.5,0c0.3,0,0.1-0.6,0.5-0.5c-0.1,0.2,0.5,1.9,0.8,1.6C107,24.4,107.6,23.8,107.8,24.3z
		 M106.7,37.9c0,0.1,0,0.2,0,0.4c-0.1,0-0.2,0-0.2,0.2c1,0.2,0.8,1.8,1.7,2.5C108.2,39.9,107.8,38.3,106.7,37.9z M106.1,69.2
		c0.5,0,0.9-0.1,1.1-0.5C106.7,68.4,106.3,68.7,106.1,69.2z M105.4,34.4c0.3,0.4,0.5,1.8,1.2,1.1C106.1,35.4,105.2,34.1,105.4,34.4z
		 M104.9,37.7c-0.2,0.7,0.4,0.4,0.5,0.9c-0.3,0.2-0.5-0.5-0.6,0c0.4,0.2,0.7,0.4,1.1,0.7c0,0.1,0,0.4,0.2,0.4c0-0.3,0-0.6,0.3-0.5
		c-0.2-0.7-0.1-1.6-0.8-1.6c0.5-0.3,0.5,0.1,0.9-0.2c0.1-0.6-0.7-0.6-0.3-1.1c-0.6-0.3,0,0.9-0.5,0.9c0-0.8-1-1.3-1.4-1.1
		c0.2,0.1-0.1,0.5,0.2,0.9c-0.2,0.5-0.6-0.3-0.8,0.2c0.4,0.1,0.4,0.6,0.8,0.7c0-0.3,0.2-0.5,0.3-0.2
		C104.5,37.8,104.7,37.9,104.9,37.7z M106.3,67.2c-0.1-0.5,0.2-0.5,0.2-0.9C105.8,66.3,105.6,67.2,106.3,67.2z M103.8,24.7
		c0.2,0.2,0.4,0.5,0.6,0.7c0.4-0.5,1.4,0.9,1.8,0.4C105.5,25.3,104.3,24.5,103.8,24.7z M105.4,41.9c0.5-0.1,0.6,0.4,0.8-0.2
		c-0.3-0.5-0.5,0-0.8-0.4c0.4-0.6-0.4-0.9-0.3-1.6c-1.2,0-0.4-1.2-1.5-1.3c0,0.6,0.4,0.6,0.3,1.3c2,0.6,0.8,4,2.3,5.3
		C106.2,43.5,105.7,42.6,105.4,41.9z M105.7,58.9c0,0.2,0,0.5-0.2,0.5c-0.3,0-0.5,0.1-0.5,0.5c0.8,0.4,0.6-0.1,1.2,0.4
		C106,59.7,106.5,59,105.7,58.9z M104.9,73.6c0.5-0.1,0.7-0.7,1.1-0.9C105.4,72.8,105.1,73.1,104.9,73.6z M104.6,71.4
		c0.2-0.6,0.5-0.9,0.8-1.4c-0.2,0-0.4,0-0.6,0c-0.2,0.6-0.3,1.3-0.6,1.6c0.3-0.1,0.6,0,0.6,0.4c-0.4-0.5-0.7,0-0.9,0.4
		c0.1-1.2-0.5-1.7,0.3-2.2c-0.1-0.9-0.3-1.1-0.3-1.6c-0.3,0.4-0.4,0.9-0.8,1.1c-0.1-0.6,0.3-0.7,0-1.1c-0.5,0-0.5,0.6-0.8,0.9
		c0.2,0.1,0.3,0.2,0.5,0.4c-0.3,0.3-0.8,0.9-0.2,1.3c-0.3,0-0.3-0.2-0.6-0.2c-0.1,0.9-0.4,1.3-0.6,1.6c0.6-0.1,1-0.3,1.4-0.7
		c-0.2,1,1,0.4,1.2,0.9c-0.5-0.2-0.3,0.4-0.3,0.7c0.8-0.2,1.1-1,1.7-1.5C105.2,71.7,104.6,71.9,104.6,71.4z M104.3,68.5
		c0.1-0.4,0.3-0.7,0.3-1.3C104.2,67.2,104,68.4,104.3,68.5z M104.3,32.3c-0.5-0.2-0.2,0.6-0.3,0.9C104.5,33.1,104.4,32.7,104.3,32.3
		z M104,29.5c-0.3-1.2-1.8-1.2-1.8-2.7c-0.9-0.2-1.5-0.9-2.3-1.3c-0.3,1.4,0.8,1.5,1.4,2.2c0.3,0-0.1-0.3,0.2-0.4
		c0.2,0.2,0.4,0.2,0.8,0.2c-0.1,1,0.9,0.8,1.1,1.5c-0.5,0.2-0.4-0.3-0.6-0.4c0.3,0.5,0.6,2,1.2,1.4c-0.2-0.1-0.6-0.9-0.3-0.9
		C103.6,29.4,103.7,29.6,104,29.5z M102.3,31.4c0.5,0.4,0.4,1.3,1.4,1.1c0-0.5-0.2-0.6-0.3-0.9C102.8,31.9,102.4,31,102.3,31.4z
		 M101.2,87.5c0.5-0.3,1-0.5,1.2-1.1C101.7,86.5,101.7,87.3,101.2,87.5z M101.1,31.4c0.3,1,0.2,2,1.2,2.4
		C102.2,32.5,101.7,31.9,101.1,31.4z M101.2,70c-0.1-0.2-0.9-0.5-0.9-0.2c0.2,0.4-1.6,2.8-0.9,1.1c-0.5,0.1-0.9,0.3-0.9,0.9
		c1.1,0.1-0.4,0.7,0.2,1.1c1.4-1,2.2-2,3.5-2.7c-0.1-0.4,0.2-1.2-0.2-1.3C101.8,69.7,101.6,69.4,101.2,70z M100.5,73
		c0.4,0,0.7-0.3,0.6-0.9C100.7,72.2,100.5,72.6,100.5,73z M98.9,29.7c-0.4,0.1-0.6,0.3-0.6,0.9c0.6,0.4,1.4,1.4,2.1,1.1
		C100,31,98.3,31.1,98.9,29.7z M98,90.8c0.2,0.5-0.1,0.6,0.2,0.7c0.7-0.7,0.8-1.3,1.4-2C98.9,89.8,98.6,90.5,98,90.8z M97.8,26.8
		c-0.2-1.7-0.9-2.8-2.1-3.3c0.3,0.6-0.6,0.8-0.6,0.4c0.1,0,0.2-0.1,0-0.2C94.3,25.9,97.1,25.9,97.8,26.8z M98.5,26.1
		c0.2-1.1-0.4-2.3-1.4-2.5C97.7,24.2,97.4,25.9,98.5,26.1z M96.2,19.2c0.4,0.7,1.3,0.6,2,1.1c-0.1-0.6,0.5-0.2,0.3-0.9
		c-0.8,0-1.3-0.3-1.7-0.7c0.2,0,0.1-0.5,0-0.2C96.6,18.8,96.2,18.8,96.2,19.2z M97.2,29c0.5-0.2,0.3,0.4,0.3,0.7
		c0.4,0,0.6-0.3,0.6-0.7C98,28.9,97.3,28.6,97.2,29z M96.8,92.8c0.1,0,0.2,0,0.3,0c0,0.1,0,0.2,0.2,0.2c-0.1-0.7,0.6-0.4,0.6-1.1
		C97.5,92.2,96.8,92.1,96.8,92.8z M95.7,85.2c0.1-0.5,1-0.9,0.6-1.3C96.1,84.2,95.1,84.5,95.7,85.2z M96.2,28.5
		c-0.3-0.1-0.3,0.2-0.5,0.4c-0.2-0.5-0.9-0.5-0.5-1.3c-0.4-0.2-0.6-0.2-1.1,0c0-0.2,0.2-0.4-0.2-0.4c-0.1,1.4,0.7,1.7,0.9,2.7
		c0.5-0.2,0.6-0.4,1.2-0.2C95.6,28.9,96.4,29.1,96.2,28.5z M94.3,25.2c0.3-0.7,0-1.4-0.8-1.6c0,0.9,0.5,0.1,0.6,0.9
		c-0.9,0.8-0.2,2.2,0.8,2.4c0.2-0.4-0.4-0.7,0-0.7c0.4,0.4,0.7,1,1.2,1.3C95.6,26.6,94.9,25.3,94.3,25.2z M94.9,19
		c-0.1,0.7,0.8,1.1,0.9,0.9C95.4,19.9,95.7,18.8,94.9,19z M94.9,20.3c-0.1,0.6,0.1,0.8,0.6,0.7C95.6,20.5,95.2,20.5,94.9,20.3z
		 M94.2,17.2c-0.1,0-0.2-0.2-0.2-0.4c-1-0.2-1.2,0-1.8,0.4c0.4,1.3,1.7,0.1,2.3,1.4C94.5,18,93.5,17.6,94.2,17.2z M91.7,90.6
		c0.5-0.9,2.3-1.1,2.1-2C93.4,88.8,91.3,89.3,91.7,90.6z M93.6,87.4c-0.5,0.1-0.8,0.3-0.9,0.7C93.1,88.1,93.5,87.9,93.6,87.4z
		 M91.1,19.2c0.4-0.2,0.8,1.1,1.8,0.7c-0.5-0.9-1.1-1.5-1.7-2.2c-0.1,0.6-0.4,0-0.9,0.2c-0.1,0.8,0.8,0.4,0.9,0.9
		C91.1,18.9,90.9,19.1,91.1,19.2z M91.7,96.2c0.1,0,0.2,0.2,0.2,0.4c0.2-0.4,1-0.1,1.1-0.7C92.5,96.1,91.9,96.2,91.7,96.2z
		 M92.2,91.2c-0.9,0.3-0.2,0.1-0.5-0.4c0,0.2-0.2,0.2-0.5,0.2c-0.1,1.3-1.9,0.7-2.1,1.8C90,92.1,91.8,92.5,92.2,91.2z M92.6,91.4
		c-0.6,0.3-1.1,0.8-1.5,1.3C91.8,92.4,92.3,92,92.6,91.4z M89.4,100.8c0.2,1.1,1.9,0.7,2-0.4C90.8,100.6,90.1,100.6,89.4,100.8z
		 M88.7,95.2c0,0.7,0.8,0.6,0.9,0.2C89.4,95.1,89,95.1,88.7,95.2z M88.5,101.3c-0.7,0-1.6,0.8-2.1,0.4c0.2,0.1,0.4-0.2,0.2-0.4
		c-1,0.9-2.3,0.1-3.1,1.3C85,101.8,86.9,102.8,88.5,101.3z M84.8,103.9c0.3,0.6,0.4,0.4,0.5,0.9c1.6-0.3,2.7-1.1,3.5-2.4
		c-0.2,0-0.3-0.1-0.5-0.2c-0.2,0.1,0,0.7-0.3,0.7c-0.8-0.3-1.7-0.3-2.1-0.5c-0.1,1.1,1.5,0.6,1.5,0.9
		C86.6,103.9,85.8,103.9,84.8,103.9z M79.6,14.9c0-0.2,0.2-0.3,0.2-0.5c-0.8-0.2-1.4-0.7-1.2-1.5c-0.6,0-1.2-0.1-1.4,0.4
		c0.4,0.4,1.4,0.2,1.4,1.1c-0.2,0-0.4,0-0.5,0.2c0.2,0.3,0.1,1,0.6,1.3c0-0.2,0-0.5,0.2-0.5c0.2,0.4,0.5,0.7,1.1,0.7
		c0-0.7-0.8-0.4-0.9-0.9C79.6,15,78.8,14.5,79.6,14.9z M74.6,103.3c1.2,0,3,0,3.7-1.1C77.3,101.8,75.4,101.9,74.6,103.3z M66.4,7.8
		c-0.2,0-0.3,0.1-0.5,0.2c0,0.1,0,0.2,0,0.4c0.4,0,0.6,0.3,1.1,0.4C67.1,8,65.9,8.5,66.4,7.8z M63.1,102.8c0.2,0.2,1.3,0.4,1.5,0
		C64.2,102.8,63.4,102.3,63.1,102.8z M60.6,103c0.6,0.1,1.7,0.8,2.1,0C61.9,103.2,61.1,102.5,60.6,103z M56.5,101.5
		c1.1,0.4,2.6,1.2,3.8,0.9c0-0.2,0.2-0.3,0.2-0.5C58.9,102.1,57.7,101,56.5,101.5z M59.1,103.5c0.3,0,1.1,0.6,1.1-0.2
		C59.8,103.4,59.2,103.1,59.1,103.5z M55.4,12.5c0.5-0.3,0.5,0.8,0.8,0.2c-0.1,0-0.2,0-0.2-0.2c0.1,0,0.3,0,0.3-0.2
		C56.1,12,55.5,12.2,55.4,12.5z M55.1,10c0.3-0.2,0.5,0,1.1,0C56.4,9.3,54.4,9.6,55.1,10z M47.9,92.8c1.7,1.3,3.5,2.4,5.7,3.1
		c-0.2-0.6,0.5-0.1,0.5-0.5C51.6,95.2,50.2,92.9,47.9,92.8z M50.2,12.7c0,0.2-0.2,0.3-0.2,0.7c1.3-0.7,2.5-0.3,3.5-1.3
		c-0.9-0.2-1.3,0-2-0.2C51.4,12.7,50.7,13.3,50.2,12.7z M48.2,12.3c-0.1,0.2-0.2,0.5-0.2,0.9c0.6-0.1,1.2-0.3,1.4-0.9
		C48.9,12.4,48.7,12.6,48.2,12.3z M46.8,15.2c0.4-0.2,0.9-0.2,0.9-0.7C47.2,14.4,46.9,14.6,46.8,15.2z M43,106.4
		c1.3,0.2,3,1.7,3.7,1.5C45.5,107.4,44.5,105.8,43,106.4z M44.2,102c0.7,0.5,1.4,1,2.3,1.3C46.3,102.4,44.8,102,44.2,102z M45,17.9
		c0.5,0,0.9-0.1,1.1-0.5C45.7,17.5,45.2,17.6,45,17.9z M44.1,16.3c0.1,0.5-0.3,0.4-0.3,0.7c1.1,0.5,1-1.2,1.7-0.5
		C45.3,15.2,44.6,16.9,44.1,16.3z M35.2,27.6c-0.3-0.2-0.5-1,0.3-0.7c0.1-0.6-0.5-0.2-0.3-0.9c0.5,0.6,1.4,0.1,1.1-0.5
		c-0.5-0.1-0.2,0.7-0.8,0.5c0.1-0.9-0.8,0.5-0.9-0.2c0.7-1,1.9-0.3,2.5-1.3c-0.2-0.2-0.7-0.2-0.6-0.7c0.2,0,0.4,0,0.5-0.2
		c-0.4-0.1-0.4-0.5-0.2-0.7c-1,0.5-2.6,2.2-2.1,3.3c-0.1,0.6-1.3,0.7-0.8,1.4C34.2,27.3,34.6,27.4,35.2,27.6z M30.4,32.1
		c1.2-1.2,3.8-0.5,4.6-2.9c-1.1-0.4-3.2,0.5-3.4,1.6c0-0.1,0.5-0.5,0.5-0.2C31.9,31.4,30.3,31.5,30.4,32.1z M32.9,22.3
		c0.5-0.2,0.4,0.3,0.6,0.4c0-0.3,0.4-0.1,0.3-0.5C33.5,22.2,32.9,21.9,32.9,22.3z M30.4,31.4c0-0.2,0-0.5,0-0.7
		c-0.6,0.6-0.6-0.2-1.1,0.2c0.6-0.1,0.2,0.7-0.2,0.5c0-0.2,0-0.4,0-0.5c-0.6,0.1-0.8,0.5-0.9,1.1c0.6-0.6,1.1-0.2,1.8-0.5
		c-0.1,0-0.2-0.1,0-0.2C30.2,31.3,30.3,31.4,30.4,31.4z M29.2,29.7c0.2,0.4,1.2-0.4,0.8-0.7C30,29.6,29.2,29.2,29.2,29.7z
		 M30.1,85.4c-0.3,0-0.3-0.2-0.6-0.2c0,0.5,0.4,1.4,0.6,1.1C29.7,86.1,30.2,85.7,30.1,85.4z M28.9,32.8c0.7,0.1,0.6-0.6,0.9-0.9
		C29.5,32.2,28.8,32.1,28.9,32.8z M28,30.3c0.5,0,0.9-0.1,1.1-0.5C28.7,29.9,28,29.7,28,30.3z M27.5,82.3c0.1,1,0.9,2.2,1.4,2.2
		C28.3,83.9,28.1,82.9,27.5,82.3z M27.1,58.2c-0.1,0.2-0.3,0.3-0.6,0.4c0-0.2,0.2-0.3,0.2-0.5c-1.2,0.4-0.5,1.9-0.2,2.7
		c0.4-0.6,0.8-1.2,1.1-2C26.9,58.8,27.7,58.2,27.1,58.2z M26.5,82.7c0.4,0.3,0.6,1.8,1.1,1.5c-0.4-0.2-0.3-1.1-0.5-1.6
		C26.7,82.7,26.6,82.4,26.5,82.7z M26.8,81c-0.2,0.3-0.1,1.4,0.6,1.3C27.4,81.6,27.1,81.3,26.8,81z M25.7,80.8
		c0,0.6,0.4,1.6,0.8,1.3C26.1,81.8,26,81.2,25.7,80.8z M26,55.8c-0.6-0.2-0.4,0.5-0.9,0.4c0-0.2,0.6-0.5,0.2-0.7
		c0,0.2-0.2,0.1-0.2-0.2c-0.2,0-0.3,0.1-0.5,0.2c0.2-0.2,0.1-0.5-0.2-0.7c-0.5,1.9,0.8,2.8,0.3,4.2c0.7-0.1,0.1-1,1.1-1.1
		c-0.3-0.1,0-0.2,0-0.5c-0.4-0.2-0.7,0.4-0.8,0C25.3,56.7,25.7,56.3,26,55.8z M24.6,88.5c0.3,0.1,0.6,1.2,0.9,0.7
		C25.1,89.2,25,87.9,24.6,88.5z M24.8,52.7c-0.4,0.5-0.3,1.4-0.2,1.8c0.1-0.3,0.2-0.5,0.3-0.7C24.1,53.9,25.4,53,24.8,52.7z
		 M23.2,83.4c0.3,0.6,0.6,1.1,1.1,1.4C24.3,84.1,23.8,82.9,23.2,83.4z M23.4,53.1c-0.2,0-0.3,0.1-0.5,0.2c0.3,0.9,0.2,1.2,0,2.2
		C24,55.4,23.5,53.9,23.4,53.1z M22.6,81.6c0.1,0.5,0.3,0.8,0.6,1.1C23.2,82.1,23,81.7,22.6,81.6z M20.5,69.1c-0.3,1,0.3,1,0.9,1.3
		c0.2-0.5,0.2-1,0.6-1.3C21.7,68.7,20.9,68.9,20.5,69.1z M19.3,49.7c0.3,0,0.1,0.5,0.3,0.5c0.3-0.4,0.8-0.7,0.8-1.5
		C19.6,49.1,19.7,49.1,19.3,49.7z M10.5,49.8c0.2-0.8,0.8-2.1,0.3-3.1C10.7,47.6,10.1,48.9,10.5,49.8z M8.2,46.2
		c0.5,0.1,0.5-0.5,0.5-1.1C8.2,45.1,8.2,45.7,8.2,46.2z M6.4,49.1c0,1.5-0.3,2.9,0.3,4c0.6-0.9,0.6-1.8,0.6-3.1
		C6.8,50.1,6.7,49.7,6.4,49.1z M4.9,45.5C5,47,4.6,47.3,4.2,47.9c0.1,0.3,0.4,0.4,0.8,0.4C5.1,47.4,5.7,45.8,4.9,45.5z M4.7,51.1
		c-0.3,0.5-0.1,1.7,0.3,2C5.4,52.6,5.4,51.3,4.7,51.1z"/>
	<path class="st0" d="M123.9,33.4c-0.1,0.1-0.9-0.3-0.8-1.1C123.6,32.4,123.6,33,123.9,33.4z"/>
	<path class="st0" d="M118.5,29.7c0.3-0.1,0.2,0.3,0.5,0.4c-0.3,0.4-0.5,0.3-0.9,0.2c0-0.2,0.3-0.2,0.3,0
		C118.6,30.2,118.5,29.9,118.5,29.7z"/>
	<path class="st0" d="M118.8,39.7c-0.9-0.9-2-1.5-2.3-3.1c0.2,0,0.3,0,0.3-0.2c0.3,0.1,0.4,0.5,0.5,0.9c0.3,0.1,0.3-0.1,0.3-0.4
		c0.5-0.1,0.1,0.8,0.5,0.9c0.3,0-0.2-0.5,0.2-0.7C118.8,37.5,118.7,38.7,118.8,39.7z"/>
	<path class="st0" d="M118.2,26.3c-0.1,0.4-0.6-0.3-1.1,0C116.2,24.6,117.6,25.7,118.2,26.3z"/>
	<path class="st0" d="M117,75.8c-0.3,0.4-1.2,0.8-1.5,0.5C115.8,75.7,116.4,76.2,117,75.8z"/>
	<path class="st0" d="M114.7,21.8c0.4,0.7,0.8,1.2,1.2,1.8c-0.3-0.3-0.2,0-0.6,0c0.1,0.3,0.2,0.4,0.5,0.5c-0.1,0.5-0.2-0.4-0.6-0.2
		C115.7,23,114.4,22.4,114.7,21.8z"/>
	<path class="st0" d="M115.5,45c0.4,0.3-0.3,0-0.5,0c-0.2,0.1,0.1,1.2,0.2,1.6c-0.6-0.4-0.4-1.8-0.5-2.9c-0.5-0.2-0.1,0.6-0.6,0.4
		c-0.4-0.5-0.5-1.5-0.6-2.4c0.3-0.1,0.4,0.1,0.6,0.2c0-1.1-0.9-1.9-0.6-2.7C114.6,40.5,115.2,43.2,115.5,45z M114.2,42.2
		c-0.2,0.2-0.1,1.1,0.3,1.1C114.3,42.8,114.8,42.5,114.2,42.2z"/>
	<path class="st0" d="M113.6,85c0.4,0.2,0.4,0.3,0.6,0.4c0.5-0.8,0.2-2.2,1.1-3.1c0,1.6-0.7,3.1-0.5,4.2c-1,1.1-1.4,2.8-1.8,4.5
		c-0.6-1.1,0.4-2,0.3-3.1c-0.9,0.7-0.6,2.9-1.8,3.3C112.1,89,113.8,87.5,113.6,85z"/>
	<path class="st0" d="M114.5,77.9c-0.9,0.6-2.1,0.8-2.9,1.5c-0.2-0.1-0.2-0.4-0.5-0.4c0-1.3,1.3-1.1,2.1-1.4c0,0.3-0.1,0.3-0.2,0.5
		C113.8,78.3,114,77.8,114.5,77.9z"/>
	<path class="st0" d="M113.2,17.6c0,0.2,0.2,0.1,0.3,0.2c-0.1,0.3-0.3,0-0.5,0c0-0.4,0.4-0.4,0.5-0.7c0.3,0,0.1,0.6,0.5,0.5
		C113.8,18.1,113.4,17.5,113.2,17.6z"/>
	<path class="st0" d="M112.9,21c-0.1,0.3-0.1,0.7-0.6,0.5c0.3-0.6,0-0.7-0.5-0.9C112,20.3,112.5,21,112.9,21z"/>
	<path class="st0" d="M111.3,91.7c0.2,0.2-0.2,2.9-1.2,2.9c0.1-0.9-0.3-0.1-0.6-0.5c-0.1-1.2,0.5-2.5,1.1-3.4
		c-0.1-0.3-0.1-0.8-0.5-0.7c0.3-1.1,0.5-1.7,1.4-1.1c0.1,1.4-0.5,2.1-0.6,3.3C111.1,92.1,111.3,91.9,111.3,91.7z M110.1,93.9
		c0.3,0,0.7-0.9,0.5-1.1C110.4,93.2,110.1,93.3,110.1,93.9z"/>
	<path class="st0" d="M111.3,20.7c-1.3,0.3-1.3-1.5-1.8-2.4c-1-1.8-2.9-3.3-3.7-5.6c1.2,0.7,1.5,2.6,2.9,3.1
		c0.4-0.1-0.4-1.4-0.6-0.7c-0.5-0.1,0.1-0.4,0-0.7c0.6,0.5,1.6,1.2,2.3,1.1c-0.6,0.4-0.6,0.4-1.5,0.5
		C109.2,18.5,110.5,18.8,111.3,20.7z"/>
	<path class="st0" d="M109.3,65.1c0.4,0.3-0.1,0.9-0.3,1.1C108.7,66,109.2,65.3,109.3,65.1z"/>
	<path class="st0" d="M108.1,99.7c0.1-0.3-0.7-0.3-0.6,0c0.2-0.4,0.6-2.2,1.5-2.4c-0.2,0.8-0.8,1.3-0.5,2.4
		c-0.5,0.3-0.8,0.8-1.1,1.3C107.2,100.6,108,100.1,108.1,99.7z"/>
	<path class="st0" d="M106,91.7c0.1-0.5,0.6-0.1,0.6-0.4c0.5,0.6-0.5,0.9-0.6,1.5C105.5,92.8,106.5,91.8,106,91.7z"/>
	<path class="st0" d="M106.6,98.4c0.2,0.3-0.1,1.4-0.8,1.3C105.9,99.1,106.5,99.1,106.6,98.4z"/>
	<path class="st0" d="M105.2,90.1c0.5,0,0.4-0.7,0.9-0.5c-2,1.9-3.9,4.2-6.7,5.6c0.2-0.3,0.4-1.1,0-0.7c1.7-1.2,4.2-2.8,5.8-4.7
		c-0.3-0.6,1.1-2,1.2-3.3C106.4,87.8,106,89.1,105.2,90.1z"/>
	<path class="st0" d="M106.4,95.9c-0.1,0.6-0.9,1.8-1.7,2.2C105.1,97.1,105.8,96.5,106.4,95.9z"/>
	<path class="st0" d="M106.1,82.8c0.2,0.3-0.4,1.2-0.9,1.3C105.4,83.6,105.9,83.4,106.1,82.8z"/>
	<path class="st0" d="M102,8.5c1.2,0.5,3,2,4,3.4c0,0.6-0.7-0.5-0.6,0.4c-0.5,0-0.5-0.5-0.9-0.5c-0.2,0.1-0.1,0.5-0.2,0.7
		c-0.4-0.1-0.3-0.6,0-0.7C103.8,10.4,102.7,9.6,102,8.5z"/>
	<path class="st0" d="M104.1,100.2c-0.4-0.2-0.9-0.3-1.1,0.2c0.4-0.7,1.9-2.2,2.9-2.2c-0.3,0.3-0.3,0.8-0.8,0.9
		C105.4,98.3,104.1,99.6,104.1,100.2z"/>
	<path class="st0" d="M105.8,91.7c-1,0.8-1.7,2-2.8,2.7c0,0.4,0.5,0.1,0.8,0.2c-0.5,0.3-0.4,1.4-1.4,1.1c0.2-0.7-0.5-1.1-0.6-1.6
		C103,92.9,104.2,92.1,105.8,91.7z"/>
	<path class="st0" d="M103.5,108c0.1,0.1,0.2,0.2,0.5,0.2c0,0.6-0.5,0.6-0.6,1.1C103.1,109.2,103.5,108.4,103.5,108z"/>
	<path class="st0" d="M103.1,107.9c0.4,0.3-0.6,0.5-0.5,1.1c-0.1,0-0.1-0.1-0.2-0.2c-0.1,0-0.2,0-0.3,0
		C102.2,108.2,102.8,108.2,103.1,107.9z"/>
	<path class="st0" d="M102.3,16c0,0.4-0.7,0.1-0.9,0.2c0.5-0.1,0.7-1.2,0-1.3C101.4,14.3,102.5,15.5,102.3,16z"/>
	<path class="st0" d="M101.2,19.6c0.5,0.1,0.5-0.3,0.8,0c0,0.6-0.3,0.7-0.5,1.1C101.4,20.5,101.4,20.1,101.2,19.6z"/>
	<path class="st0" d="M101.2,98.4c0,1.1-1.2,0.6-1.7,0.9C99.3,98.8,100.6,98,101.2,98.4z"/>
	<path class="st0" d="M100.9,6.7c-0.1,0.5,0.2,0.5,0.2,0.9c-0.6,0.1-0.6-0.6-0.9-0.9C100.2,6.3,100.5,6.9,100.9,6.7z"/>
	<path class="st0" d="M95.9,8.7c0.1,0.8,0.9,0.8,1.2,1.3c0.7-1,1.7,1,2.1-0.4c0.4,0.5,1.1,0.5,1.2,1.3c-0.2,0.1-0.3-0.2-0.5-0.2
		c0.1,0.5,0.3,0.9,0.6,1.1c-1.8,0.1-4.6-1.4-5.2-3.3c-0.6-0.4-1.1-1.4-1.8-0.7c-0.6-1.6-1.8-1.5-3.1-2c2.1-0.9,4.5,2.6,5.7,0.5
		c0.6,0.1,1,0.6,1.7,0.7c-0.5,0.8,0,0.9,0.3,1.6c-0.3-0.3-0.6-0.5-0.9-0.7c-0.2,0.1,0.1,0.2,0,0.5c-0.4,0-0.5-0.4-0.9-0.4
		C95.9,8.5,96.7,9.1,95.9,8.7z"/>
	<path class="st0" d="M99.7,6.2c-0.4-0.4-1.2-0.3-1.2-1.1C96.3,4.2,99.9,4.7,99.7,6.2z"/>
	<path class="st0" d="M98.3,84.8c-0.3-0.5-0.4,0.8-0.9,0.7c0.2-1.1,1.1-1.5,1.4-2.5c0.6,0.4-0.7,1.2,0.2,1.5c0.3-0.1,0-1,0.6-0.9
		c0.1,0.7,0,0.6,0,1.4c-0.4,0.1-0.3-0.3-0.8-0.2c0.5,2.3-1.4,2.9-2.8,3.4C97.2,87.7,97.7,86.1,98.3,84.8z"/>
	<path class="st0" d="M93.1,12.5C92.9,12.9,92.4,12,92,12c0.3-0.7,0-0.9-0.2-1.4c1.1,0.6,2.2,1.3,3.2,2c-1.1,0.2-1.5-0.6-2.1-0.9
		C92.1,11.6,92.6,12.5,93.1,12.5z"/>
	<path class="st0" d="M92.5,105.7c0.2-0.3,0.5-0.7,1.1-0.5c0,0.8-1,0.7-1.4,0.5C92.2,105.4,92.5,105.5,92.5,105.7z"/>
	<path class="st0" d="M79.6,111.1c0,0.5,0.3-0.2,0.6,0c-0.2,0.5-1.3,0.3-1.5-0.2c0.4-0.9,1.5-0.5,2.1-0.5c2.5-0.3,4.6-1.2,7.2-1.6
		c-0.3,1-1.4,0-2.1,0.9c0.7,0.1,2.1,0.3,2.3-1.1c1.6,0.6,3-0.9,5.2-0.7c-0.9,1.4-7.1,2-6.9,3.8c-0.9-0.2-1.2-0.5-2.3-0.2
		c0.1-0.1,0.2-0.3,0.2-0.5c-1.7,0.7-2.6,0.3-3.8,0.5C80.7,111.2,80,110.5,79.6,111.1z"/>
	<path class="st0" d="M89.3,12c-0.1-0.5-0.3,0.2-0.6,0c0-0.2,0.2-0.1,0.3-0.2c-0.3-0.7-1-1-2-0.9c0,0.4,0.4,0.4,0.6,0.5
		c-0.7,0.9-1.4-0.3-2.3-0.4c0.2-0.8,0.7,0.2,1.2,0.2c-0.5-1.7-3.1-1.1-3.8-2.5c0.3,0.3,1,0.6,1.2,0c0.1,0.5,1.6,1.3,2.5,0.9
		c1.3,1.6,4.1,1.4,5.2,3.3c-0.8,0-1.8-0.9-2.5-0.2c-0.5-0.4-1.3-0.3-1.4-1.1C88.5,11.4,88.7,13.1,89.3,12z"/>
	<path class="st0" d="M87.1,8.2c-0.5-0.2-0.3,0.5-0.6,0.5c-0.1,0.4,0.7-0.1,0.5,0.5c-1.1,0.4-1.9-0.8-2.9-1.1
		c0.3-0.3,1.2,0.1,1.5,0.4c0.5-0.4-0.2-0.9-0.5-0.9c0.3-0.8,1.2,0.1,2-0.2c0.5-0.1,0.4-1,1.2-0.7c0.3,0.5-0.3,1,0.5,1.1
		c-0.1,0.5-0.5-0.1-0.8,0c0.3-0.4-0.1-0.4,0.2-0.7c-0.2,0-0.3,0-0.5,0c0,0.5,0.6,0.5,0,0.7c0.5,0.9,1.9,0.6,2.3,1.6
		c-0.3-0.1-0.6,0-0.6,0.4C89.5,8.9,87.5,9.1,87.1,8.2z"/>
	<path class="st0" d="M86.7,106c0.1,0.5-1.3,0.9-2.6,0.7c0.5-0.8,1.7,0.4,2-0.7C86.3,105.9,86.6,106.6,86.7,106z"/>
	<path class="st0" d="M84.7,119.1c0.6,0.1,0.9,0.5,1.1,1.1c-0.5,0.8-1.6,1-2.5,1.4c0.2,0.3,0.2,0.5,0,0.7c0.2,0.6,0.5-0.6,0.8,0
		c-0.4,1.4-0.5,1.9-0.5,3.4c-0.4,0.2-0.9,0.3-1.4,0.4c0-0.7,0.4-0.7,0.5-1.3c-1.1,0.3-2,0.4-2.9-0.2c0.4-0.7,1-0.1,1.5-0.7
		c-0.1-0.4-0.8,0-0.9-0.4c0.1-0.4,0.2-0.7,0.8-0.5c-1.1-1-3.5-0.6-5.1-0.2c-0.5-0.2,0.1-0.5-0.5-0.5c0.2-0.5,1.2,0.1,1.4-0.4
		c-0.8-0.2-1.3-0.1-2.3-0.4c3.1-1.2,6.3-0.3,9.2-1.6c-0.1-0.2-0.1-0.3-0.3-0.4C83.8,119.6,84.9,119.7,84.7,119.1z"/>
	<path class="st0" d="M84.4,6.2c-1.1,1-2.2,0.8-3.5,0.2c0.8,0,1.4-0.2,2.1,0.4C83.3,6.3,83.7,6.1,84.4,6.2z"/>
	<path class="st0" d="M75.9,108.8c1.9-1.1,4.2-0.9,6.7-1.5c0.2,0.8-0.3,0.7-0.3,1.3c-2.3,0.4-4.5,0.8-6.1,1.1
		C76.8,108.5,75.9,109.7,75.9,108.8z"/>
	<path class="st0" d="M77.6,10.5c-0.8-0.1-0.2,0.3,0,0.5c-0.2,0.5-0.7-0.2-0.6-0.7c-0.6,0.4-0.6-0.7-1.4-0.7
		C76,9.5,77.7,9.4,77.6,10.5z"/>
	<path class="st0" d="M74.4,111.8c0.6-0.3-0.1-0.6,0.2-0.7c-0.2-0.3-0.7-0.3-1.1-0.4c0.4-0.5,1.6,0.1,1.8-0.2c0-0.5-0.9,0.2-0.6-0.5
		c0.9,0.2,3.3,0.3,0.9,0.4c0,0.5,0.6,0.3,0.8,0.5c0.1,0.3-0.6,0.4-0.2,0.5c-0.4,0.3-0.9,0.6-1.2,1.1c0.1,0.5,0.4-0.2,0.8,0
		c-0.1,0.6-0.9,0.3-1.4,0.4C74.8,112.7,75.8,111.6,74.4,111.8z"/>
	<path class="st0" d="M75.2,4.5c-0.1-0.6-0.8,0.3-0.8-0.2c0-0.8,0.8-0.2,1.1-0.2c-0.1,0.7,0.1,1,0.8,0.9c-0.6,0.5-1.8-0.4-2.8,0.4
		c0-0.5-0.1-0.8-0.5-0.7C73.9,4.6,74.3,5,75.2,4.5z"/>
	<path class="st0" d="M64.8,124.9c-0.5,0.8-1.7,0.5-2.5,0.2c0.2-0.4,1.1-0.1,1.4-0.4C63.5,125.6,64.2,124.9,64.8,124.9z"/>
	<path class="st0" d="M60.6,123.8c-0.8,0.7-3,0.1-3.7-0.5c0.1-0.2,0.1-0.3,0.3-0.4c0.2-0.5,0.2,0.3-0.2,0.2
		C58.1,123.8,59.3,123.3,60.6,123.8z"/>
	<path class="st0" d="M57.9,124.7c0.4-0.6,1.2,0,2.1-0.2c0,0.5,0.2,0.6,0.5,0.7c-0.5,0.7-0.5-0.6-1.1-0.4
		C59.8,125.6,58.2,124.8,57.9,124.7z"/>
	<path class="st0" d="M60.3,5.8C59,6.2,57.4,5.7,56.6,6c0.1-0.1,0.2-0.3,0.2-0.5C56.2,6.2,54,6,53.3,6c0.2-1,2.7-0.4,3.7-0.9
		c0.1,0.2,0.4,0.2,0.3,0.5C58.2,5,59.2,6,60.3,5.8z"/>
	<path class="st0" d="M51.3,103.1c0.2,0.4-1.1-0.2-0.8-0.7c-1.6,0-2.7-0.6-3.7-1.8c2.1,0.7,4,1.5,5.7,2.7c-0.6-0.1-0.8-0.6-1.5-0.5
		C51,102.9,51.1,103.1,51.3,103.1z"/>
	<path class="st0" d="M52.3,5.8c-1.4,1.5-3.8,1-5.8,1.6C47.9,6.8,50.4,6.3,52.3,5.8z"/>
	<path class="st0" d="M47.3,3.6c-0.1-0.5-0.6-0.6,0.2-0.7c-0.2-0.3-0.7-0.5-0.9-0.2c-0.1-0.6,2-0.6,2.9-1.1c0-0.3-0.2-0.4-0.2-0.7
		c0.5-0.1,0.6-0.6,0.9-0.9c0.2,0.3-0.3,1.2,0.8,0.9c-0.7,0.8-2.5,0.9-2.3,2.2c-1.1-0.4-0.5,1-1.8,0.9c-0.1,0.8,0.4,0.9,0.3,1.6
		c-1.1,0.2-1.6,1.1-2.8,1.3c0.8,0.9-1.2,1.2-1.4,0.2c1.3,0.4,1.6-1.4,2.8-1.4c0,0,0,0.4,0,0.4c0.4-0.2,0.5-1,1.1-0.7
		c0-0.2-0.3-0.1-0.3-0.4c-0.6,0-0.6,0.7-1.2,0.5c0.1-0.3,0.5-0.1,0.2-0.5c-0.8,0.1-1,1-1.7,1.3C44.5,4.8,45.7,3.9,47.3,3.6z"/>
	<path class="st0" d="M47.9,107.5c0.6-0.2,2,0.3,2.6,0.7C50.3,108.5,48.6,107.7,47.9,107.5z"/>
	<path class="st0" d="M41,116.7c0.7-0.1,1.9,0.9,2.8,1.3C43.5,118.2,41.5,117.4,41,116.7z"/>
	<path class="st0" d="M43.2,5.1c0.5,1-1.1,1.5-0.9,2.2c-1-0.4-1.7,1.1-2.6,1.5C39.9,7.2,42.5,6.7,43.2,5.1z"/>
	<path class="st0" d="M40.6,5.8c-0.3,0.4-0.5-0.5-0.8,0.4c-0.4-0.2,0.1-0.8,0.5-0.7C40.3,5.6,40.4,5.8,40.6,5.8z"/>
	<path class="st0" d="M39.2,114.6c-0.6,0.2-0.4-0.5-0.8-0.5C38.4,113.8,39.3,114,39.2,114.6z"/>
	<path class="st0" d="M37.2,8.2c0.3,0.7-1.1,0.8-0.3,0.9c0.1,0.6-0.7,0.1-0.8,0.5C35.9,9.2,36.8,8.5,37.2,8.2z"/>
	<path class="st0" d="M36.1,9.8c-0.1,1.7-1.3,1.1-2,2C34.7,11,35,9.9,36.1,9.8z"/>
	<path class="st0" d="M35.8,110.2c-0.9-0.1-2.2-1.2-2.8-2.2C33.8,108.2,34.8,109.7,35.8,110.2z"/>
	<path class="st0" d="M34.7,112c-2-2-4.1-2.9-6-5.1c1.2,0.8,1.9,2.1,3.7,1.8C32.9,110.2,34.4,110.4,34.7,112z"/>
	<path class="st0" d="M32.9,113.3c-0.7,0.1-0.5-0.9-1.1-0.9c0.8-0.3,0.6-1.2,0-1.6c-0.3-0.4,0.7,0.5,0.9,0.7c-0.5,0.3,0,0.6-0.5,0.9
		C32.3,113,33.1,112.5,32.9,113.3z"/>
	<path class="st0" d="M26.5,21.2c-0.3-0.3,0.2-0.6-0.2-1.1c1.5-0.5,2.6-0.6,3.8-0.2c-0.2-0.8,0.4,0.2,1.1-0.2
		c-0.7,0.6-1.6,1.1-2.5,1.5c-0.3-0.9-0.6-0.6-1.5-0.7C27.7,21.1,26.6,20.8,26.5,21.2z"/>
	<path class="st0" d="M26.8,110.2c-0.5,0.2-1.1-0.9-1.7-1.1c0.2-0.9-1-1.6-1.5-2.4c-0.8-0.2-0.8,0.6-1.5,0.5c0-0.2-0.2-0.1-0.3-0.2
		c0-1.2,0-2.5-0.6-3.4c1.2-0.3,2.4,0.9,2.8,2.2c1,1.6,2.5,2.5,3.7,3.8c0.1-0.9,1.3,0.4,1.8,0.7c-0.2,0.4-0.5,0.7-0.9,0.7
		c0.4-0.5-0.2-0.6-0.6-0.7c-0.1-0.4,0.3-0.3,0.3-0.5c-0.3,0-1.4,0.3-1.8-0.4C25.9,109.7,26.7,109.9,26.8,110.2z"/>
	<path class="st0" d="M26.5,106c0-0.6-0.4-0.9-0.8-1.1c0.9-0.9,2,0.8,2.5,1.6c-1.3,0.5-3,0.2-3.5-1.5
		C24.6,104.8,25.7,106.1,26.5,106z"/>
	<path class="st0" d="M25.4,28.3c-0.5,0.5-1,0.9-1.5,1.3C23.8,29.2,24.7,28.4,25.4,28.3z"/>
	<path class="st0" d="M23.2,20.7C21.7,22.1,21.4,21.2,23.2,20.7L23.2,20.7z"/>
	<path class="st0" d="M21.6,59.1c-0.6-0.1,0-1.1-0.3-1.3C21.4,57.4,21.8,59,21.6,59.1z"/>
	<path class="st0" d="M20.6,103.9c-0.2,0.2-0.7,0.1-0.9,0c0.3-0.6-0.6-1.1-0.6-1.8C20,102.9,20.1,103,20.6,103.9z"/>
	<path class="st0" d="M17.7,101.5c-0.8,0.1-0.7-0.8-1.2-1.1C16.6,100.4,17.7,100.8,17.7,101.5z"/>
	<path class="st0" d="M12.7,73.8c-0.4-0.4-0.5-1.2-0.8-1.8c-0.4,0.4,0.2,1.1,0,1.8c-0.6-1-0.6-2.6-1.4-3.4c0.1,0,0.2,0.2,0.3,0.2
		c0.1-0.6-0.6-0.3-0.6-0.7c0.9-0.5-0.2-3.1,0-4C11.2,68.2,12.5,70.9,12.7,73.8z"/>
	<path class="st0" d="M8.4,61.4c-0.4,0-0.5-1.9-0.3-1.4C8.1,60.6,8.5,60.7,8.4,61.4z"/>
	<path class="st0" d="M5.9,41.3c0.2,0.1-0.1,1.2-0.2,1.6C5.4,42.6,5.8,41.6,5.9,41.3z"/>
	<path class="st0" d="M2.1,48.9c-0.1,0.5,0.3,2.2,0,2.9c-0.9-0.6-1.2,0.6-2,0.7c-0.5-1.2,0.6-2,0.8-3.1c0.3,0,0.2,0.5,0.6,0.4
		c0,0.5,0.1,1-0.2,1.3C2.2,51.2,1.8,49.6,2.1,48.9z"/>
	<path class="st0" d="M121.6,39.5c0,0.6,0.5,0.5,0.3,1.3c0.6-0.7,0.9,1,0.8,1.6c-0.8-0.1-0.8,0.6-1.4,0c0.4-1.3-1.3-2.8-0.5-4.2
		c-1-0.5-1.4-1.7-2-2.7c0.8-0.2,1.1,0.1,2.6,0c0.1,0.2,0.2,0.5,0.2,0.9c0.8-0.1,0.8-0.1,1.5-0.4c-0.2,1.1,0.3,2.4,0.3,3.8
		c-0.4-0.1-0.3-0.9-0.6-1.1c-0.4,0.1-0.6,0.6-0.2,0.9c0,0.4-0.4,0.2-0.5,0.5C121.8,40.2,122,39.5,121.6,39.5z M122.1,36.8
		c0,0.4,0.2,0.7,0.2,1.3C122.8,38.1,122.3,36.9,122.1,36.8z M121.3,37.5c-0.1,0.5,0.2,0.7,0,1.6c0.3,0.3,0.3-0.1,0.8,0
		C121.9,38.5,121.7,37.9,121.3,37.5z"/>
	<path class="st0" d="M107.8,95.5c-0.3-0.3-0.3,0.1-0.6-0.2c0.2-0.6-0.1-0.8,0.3-1.3C108,94.1,108.1,95.1,107.8,95.5z"/>
	<path class="st0" d="M105.2,20.3c-0.5-0.9-1-1.1-2.1-0.7c0-0.2,0-0.4,0-0.5c-0.4,0-0.3,0.6-0.8,0.5c0-0.4-0.1-0.6-0.5-0.5
		c0.2-0.3,0.3-0.7,0.8-0.7c0,0.5,0.3,0.5,0.6,0.5c0.1-0.6,0.6-0.7,1.1-0.9c-0.4-1.1-1.5-0.7-2-1.5c0.4-0.2,0.7,0.3,1.2,0.2
		c0.1-0.6-0.4-0.3-0.3-0.9c0.6,0.3,1.1,1.3,1.8,0.9c-0.1-0.6-1-0.3-0.8-1.3c0.5,0.1,0.7,0.6,1.4,0.5c-0.4-1.7-1.9-2.2-2.5-3.6
		c0.8-0.1,0.8,0.7,1.2,1.1c0.3-0.5,0.6-0.3,0.9,0.2c0,0.2-0.3,0.2-0.5,0.2c0.8,1.6,2.1,2.6,2.8,4.4c0.2-0.1,0.2-0.4,0.5-0.4
		c-0.3,0.7,0.3,0.6,0,1.3c-0.4-0.5-0.8-1.1-1.4-1.5c-0.1,0.8-1.1,0.5-1.8,0.5c0,0.6,0.6,0.5,0.6,1.1c-0.2,0-0.4,0-0.6,0
		C105,19.5,105.3,19.7,105.2,20.3z"/>
	<path class="st0" d="M69.5,115.5c-0.9,0.8-2.8,0.5-3.8,0c0-0.4,0.5-0.1,0.8-0.2c0.2-0.5-0.3-0.3-0.6-0.4c0.7-0.5,1.8,0.1,2.6,0
		C67.6,115.5,68.9,115.5,69.5,115.5z"/>
	<path class="st0" d="M62.5,121.1c-2.2,0.8-6,0.4-7.4-1.5C57.5,120.2,59.9,120.7,62.5,121.1z"/>
	<path class="st0" d="M60.6,122.4c-0.7,1.2-3.5-0.9-3.8,0.5c-0.2-0.1-0.3-0.2-0.3-0.5c-0.4,0.8-0.9,0-1.5,0c0-0.2,0.3-0.2,0.5-0.2
		c-1.1-0.7-3.1-0.9-4-1.3C54.6,120.3,57.3,122.2,60.6,122.4z"/>
	<path class="st0" d="M35.8,117.5c-0.3,0.1,0.2,0.3-0.2,0.5c-1-0.1-1.3-0.9-2-1.3c0.5-0.5,1.7,0.1,2.3,0.9
		C35.8,117.7,35.8,117.6,35.8,117.5z"/>
	<path class="st0" d="M29.8,21.6c-0.1,0.8-1,0.7-1.5,1.1c-0.1-0.2-0.2-0.4-0.5-0.4c0-0.7,1.1,0,0.9-0.9
		C29.1,21.4,29.3,21.7,29.8,21.6z"/>
	<path class="st0" d="M15.4,73.8c0.4,1.9,0.7,3.9,1.2,5.6c-1.9-4.4-3-10.1-3.5-15.2c0.4,1,1,1.7,1.4,2.7c0.3,0,0.3-0.2,0.6-0.2
		c0.6,1.1,1.5,3.6,1.8,4.3c0.1,0.8-0.4,0.9-0.9,0.9c-0.1,0.8,0.3,1.8,0.5,2.9C15.9,74.8,15.8,74.1,15.4,73.8z"/>
	<path class="st0" d="M6.5,63.3c-0.8-0.6-1.1-1.4-1.2-3.1c0.5,0.2,0.3,1.1,0.6,1.4c0.2-0.2,0.2-0.6,0.3-0.9
		C6.8,61.1,7.3,62.9,6.5,63.3z"/>
	<path class="st0" d="M1.8,62.2c-0.6-0.5-0.8-1.9-0.6-2.9C2.7,58.9,2,61.5,1.8,62.2z"/>
</g>
<g>
	<path class="st2" d="M266.9,70c-0.1-0.7-0.2-1.4-0.4-2.1c-0.2-1-0.4-2-0.4-3c0.1-1.5-0.6-2.6-2.1-3.4c-0.5-0.3-1-0.6-1.3-0.9
		l-0.2-0.2c-0.5-0.5-1-1.1-1.2-1.6c-0.3-0.8-0.4-1.7-0.4-2.6c0-0.2,0-0.5-0.1-0.7c0-0.1,0-0.3,0.1-0.5l0-0.1
		c1.1-0.2,1.9-0.1,2.8,0.1c0.1,0,0.3,0.1,0.4,0.1c0,0.3,0,0.6,0,1c0,0.9,0,2,0.9,2.5c0.2,0.1,0.5,0.1,0.6,0c0.9-0.6,0.7-1.6,0.6-2.5
		c0-0.2-0.1-0.5-0.1-0.7c-0.1-2.4-0.7-2.6-4-2.6c-1.3,0-2.4,0.5-3,1.2c-0.4,0.4-0.5,1-0.5,1.5l0.1,0.7c0.1,0.8,0.1,1.6,0.2,2.4
		c0.1,2.2,1.1,3.7,3.2,4.5c2.1,0.9,2.3,2.1,2.2,3.1c0,0.7,0,1.3,0.1,1.9c0,0.4,0.1,0.8,0.1,1.2c0,0.7,0,1.4,0,2.1c0,0.2,0,0.5,0,0.7
		c-1.2,0.3-1.9,0.3-2.2,0c-0.2-0.2-0.3-0.5-0.3-1.2c0-1.6,0-3.3,0-4.9l0-1.1c0-0.1,0.1-0.4-0.1-0.6c-0.1-0.2-0.4-0.3-0.7-0.3h0
		c-0.8,0-0.9,0.7-1,1l0,0.1c-0.1,0.3-0.2,0.5-0.3,0.8c-0.3,0.8-0.7,1.7-0.5,2.5c0.3,1,0.3,2,0.4,3c0,0.4,0.1,0.8,0.1,1.2
		c0.1,0.6,0.6,1.2,1,1.5c0.4,0.3,1,0.4,1.7,0.4c1,0,2.2-0.2,2.9-0.6c0.6-0.3,0.9-0.7,0.9-1.1c0-0.2,0.1-0.5,0.1-0.7
		C266.9,71.4,267,70.7,266.9,70z M256.2,53.5l0-0.2l-0.2,0c-0.1,0-0.3-0.1-0.4-0.1c-0.4-0.1-0.8-0.2-1.2-0.1c-1.6,0.3-3.2,0-4.9-0.3
		c-0.4-0.1-0.7-0.1-1.1-0.2c0,0-1-0.1-1.4,0.2c-0.3,0.3-0.3,1,0,1.4c0.4,0.4,1,0.8,1.6,1.1c0.4,0.2,0.8,0.2,1.3,0.3
		c0.1,0,0.3,0.1,0.5,0.1c0,0.2,0,0.4-0.1,0.5c-0.1,0.5-0.1,1-0.1,1.5c0,0.5,0.1,1,0.2,1.4c0.1,0.3,0.1,0.6,0.1,0.8
		c0,0.1,0,0.2,0,0.3c0,0.1,0,0.3,0,0.4c0.1,0.9,0,1.3,0,1.7c0,0.3-0.1,0.6,0,0.9c0,0.3,0,0.6,0.1,1c0,0.3,0.1,0.7,0.1,1
		c0,0.5,0,1,0,1.6c0,0.8,0,1.6,0.1,2.4c0.1,1.1,0.2,2.2,0.5,3.6l0,0.2c0,0.4,0.1,1.2,0.8,1.3l0.1,0c0.2,0,0.4-0.1,0.5-0.2
		c0.6-0.5,0.6-2.1,0.7-4.1c0-0.4,0-0.8,0-1.2c0.2-5.3,0-6.8-0.4-10.9c-0.1-0.6-0.1-1.3-0.2-2.1c0.2,0,0.4,0,0.5,0
		c0.6,0,1-0.1,1.5-0.1c0.8-0.1,1.3-0.3,1.5-0.6C256.4,54.9,256.4,54.3,256.2,53.5z M245,72h-4.6l0-0.2c0-0.1-0.1-0.3-0.1-0.4
		c-0.1-1.7-0.2-3.5-0.3-5.2l-0.1-1.4c0.2-0.1,0.3-0.1,0.5-0.2c0.4-0.1,0.7-0.3,1-0.4c0.8-0.3,1.1-0.8,1.1-1.8l0-0.1h-2.6v-6.4
		c2.1-0.2,3.1-0.9,3.3-2.4l0-0.1l-0.1,0l-0.1,0c-0.1,0-0.1-0.1-0.2-0.1c-1.4,0.2-2.5,0.1-3.4-0.4c-0.3-0.2-0.8-0.1-1.2,0.2
		c-0.5,0.4-0.9,1-0.8,1.6c0,0.2,0.1,0.4,0.1,0.6c0.1,0.7,0.2,1.5,0.3,2.3c0,0.6,0,1.2-0.1,1.8c0,0.3-0.1,0.6-0.1,0.8
		c0,0.2,0,0.3,0,0.5c0,0.4,0,0.7-0.1,1c-0.4,1.6-0.3,2.8,0,4c0.1,0.2,0.1,0.4,0.1,0.7l0,0.1c0,2,0.1,3.9,0.1,5.9
		c0,0.8,0.3,1.5,0.9,1.9c0.3,0.2,0.7,0.3,1.1,0.3c0.3,0,0.7-0.1,1-0.2c0.5-0.2,1-0.3,1.6-0.3l0.3,0c0.2,0,0.4,0,0.6,0
		c0.2,0,0.4,0,0.6,0c0.9-0.2,1.3-0.7,1.3-1.7L245,72z M233,69.2c-1.2-1.7-1.1-2.7-1.5-4.7c-0.4-2.1-0.2-4.1,0.9-6
		c0.3-0.5,0.6-1.1,0.9-1.6c0.4-0.8,0.8-1.6,1.2-2.5c0.1-0.3,0.2-0.7,0.2-1c-0.1-0.7-0.6-1-1.2-0.5c-0.5,0.4-0.9,0.8-1.2,1.3
		c-1.4,1.8-2.3,3.8-3.1,5.9c-0.8,2-1.7,4-2.7,6c-0.2,0.5-0.6,0.9-1,1.4c-0.1-2.1,0-4.1,0.1-6c0.1-2.1,0.1-4.3,0.1-6.4
		c0-0.7-0.2-1.4-1-1.8c-0.7,0.3-1,0.7-1,1.5c-0.1,3.2-0.3,6.4-0.5,9.6c-0.2,2.4-0.5,4.8-0.7,7.3c-0.1,1.5,1.2,3.6,2.1,2.2
		c1.6-2.4,3-4.6,4.6-7c0.5,2.6,5.3,7,5.9,7C236.3,73.8,233.7,70.2,233,69.2z M220.6,72.1c-0.4-1.2-0.4-2.4-0.5-3.7l0-0.3
		c0-0.5-0.1-1.1-0.8-1.4l-0.1,0l-0.1,0.1c-1.5,1.7-1.2,3.8-0.9,5.4c-0.7,0.1-1.1,0.1-1.3-0.1c-0.1-0.1-0.2-0.3-0.3-0.5
		c-0.1-0.7-0.3-1.3-0.4-1.9c-0.3-0.9-0.5-1.9-0.5-2.9c0-0.7,0-1.4-0.1-2.1c0-0.4,0-0.7-0.1-1.1c0-0.6,0-1.3-0.1-1.9
		c0-0.8,0-1.6-0.1-2.3c0-0.3,0-0.6-0.1-0.9c-0.1-0.5-0.1-1-0.1-1.4c0.1-0.5,0.3-0.9,0.6-1.4c0.1-0.1,0.1-0.2,0.2-0.3
		c0.2-0.4,0.5-0.4,0.8-0.3c0.6,3.6,0.6,3.6,1.6,4.2l0.2,0.1l0.1-0.2c0-0.1,0.1-0.2,0.1-0.3c0.1-0.2,0.2-0.5,0.2-0.7
		c0-0.4,0-0.8,0-1.2c0-0.4,0-0.8,0-1.1c0.1-1.1,0.1-1.9-0.3-2.3c-0.4-0.5-1.3-0.6-2.7-0.5c-0.4,0-0.8,0.1-1.2,0.2
		c-0.1,0-0.2,0.1-0.3,0.1c-0.2,0-0.3,0.2-0.4,0.3c-0.8,1-1.2,2-1.3,3.1c-0.1,0.8,0,1.6,0,2.4c0,0.2,0,0.5,0,0.7
		c0.1,1.2,0.1,2.4,0.1,3.6c0,0.8,0,1.7,0.1,2.5c0,0.9,0.1,2,0.2,3c0.1,0.8,0.3,1.7,0.5,2.5l0,0.1c0.3,1.3,1.1,2.3,2.3,2.7
		c0.4,0.2,0.9,0.2,1.3,0.2c0.7,0,1.4-0.2,2-0.4C220.4,73.6,220.8,72.9,220.6,72.1z M209.3,52.4c-1.5-0.3-2,0.1-2.1,1.5
		c-0.1,2.9-0.2,5.7-0.3,8.6c0,0.8,0,1.6,0,2.4c0,1.5,0,2.9,0,4.4c0,1-0.1,1.9-0.1,2.9c0.1,1.3,0.1,1.9,1.4,1.9
		c1.1,0,1.1-3.9,1.1-5.9c0.1-2.4,0-4.9,0-7.3c0-0.7,0.1-1.4,0.2-2.1C209.8,56.7,209.8,54.5,209.3,52.4z M203.6,53.5l0-0.2l-0.2,0
		c-0.1,0-0.3-0.1-0.4-0.1c-0.4-0.1-0.8-0.2-1.2-0.1c-1.6,0.3-3.2,0-4.9-0.3c-0.4-0.1-0.7-0.1-1.1-0.2c0,0-1-0.1-1.4,0.2
		c-0.3,0.3-0.3,1,0,1.4c0.4,0.4,1,0.8,1.6,1.1c0.4,0.2,0.8,0.2,1.3,0.3c0.1,0,0.3,0.1,0.5,0.1c0,0.2,0,0.4-0.1,0.5
		c-0.1,0.5-0.1,1-0.1,1.5c0,0.5,0.1,1,0.2,1.4c0.1,0.3,0.1,0.6,0.1,0.8c0,0.1,0,0.2,0,0.3c0,0.1,0,0.3,0,0.4c0.1,0.9,0,1.3,0,1.7
		c0,0.3-0.1,0.6,0,0.9c0,0.3,0,0.6,0.1,1c0,0.3,0.1,0.7,0.1,1c0,0.5,0,1,0,1.6c0,0.8,0,1.6,0.1,2.4c0.1,1.1,0.2,2.2,0.5,3.6l0,0.2
		c0,0.4,0.1,1.2,0.8,1.3l0.1,0c0.2,0,0.4-0.1,0.5-0.2c0.6-0.5,0.6-2.1,0.7-4.1c0-0.4,0-0.8,0-1.2c0.2-5.3,0-6.8-0.4-10.9
		c-0.1-0.6-0.1-1.3-0.2-2.1c0.2,0,0.4,0,0.5,0c0.6,0,1-0.1,1.5-0.1c0.8-0.1,1.3-0.3,1.5-0.6C203.9,54.9,203.8,54.3,203.6,53.5z
		 M183.5,54.8c0.1-1.1-0.2-1.9-1.4-2.1c-1.2-0.2-1.8,0.4-2.2,1.4c-0.2,0.5-0.3,1-0.5,1.6c-0.4,1.5-1.7,6.8-2.2,6.8
		c-0.7,0-0.8-1.4-1-2.1c-0.6-2-1.1-4.1-1.9-6c-0.7-1.8-1.2-1.9-3.1-1.4c-0.1,1.1-0.4,2.3-0.3,3.4c0.3,4.9,0.3,9.9-0.5,14.8
		c-0.2,1.3-0.2,2.9,1.5,2.7c0.6-0.1,0.8-0.8,0.9-1.1c0.5-4.5,0.7-8,1.2-13.1c0.9,3,2.2,5.5,3.1,8.2c1.6-2.3,1.8-3.8,3.3-5.6
		c0.1,2.6,0.4,4.9,0.4,7.3c0,2.3-0.8,4.7,1.5,4.3c0.7-0.1,1-1.6,1-1.8c0.1-2.6,0-1.3,0.1-3.9c0-0.6-0.1-1.2-0.1-1.9
		c0-2.5,0.1-5,0.1-7.4C183.3,57.4,183.4,56.1,183.5,54.8z M165,55.8c-0.1,1.3-0.2,2.6-0.3,3.9c0,0.3-0.3,0.6-0.5,0.9l-0.1,0.1
		c-0.2,0.2-0.4,0.4-0.6,0.7l-0.1,0.1c0-0.3-0.1-0.6-0.1-0.9c-0.3-1.9-0.5-3.7-0.5-5.6c0.2,0,0.4-0.1,0.5-0.1c0.4-0.1,0.7-0.1,1-0.1
		c0.3,0,0.5,0,0.6,0.1c0.1,0.1,0.1,0.2,0.1,0.4L165,55.8z M168.8,72.9l0-0.2c-0.1-0.5-0.2-0.8-0.3-1.1c-0.1-0.2-0.2-0.5-0.3-0.8
		c-0.2-1-0.5-2-0.7-2.9c-0.4-1.8-0.9-3.6-1.3-5.4c-0.1-0.4-0.1-0.7,0-0.9c1-1.9,0.9-3.9,0.9-5.9c0-0.3,0-0.5,0-0.8
		c0-0.6-0.2-1.2-0.6-1.5c-0.5-0.4-1.3-0.6-2.3-0.4c-0.2,0-0.4,0.1-0.6,0.1c-0.4,0.1-0.8,0.2-1.2,0.1c-0.1,0-0.2-0.1-0.3-0.1
		c-0.3-0.1-0.6-0.2-1,0.1c-0.3,0.4-0.5,0.8-0.5,1.2c0,1.2,0,2.5,0.1,3.9c0,0.2,0,0.3,0,0.5c0,0.4,0.1,0.8,0,1.3
		c-0.2,1.3-0.1,2.6,0,3.7c0.3,2.3,0.6,4.8,0.3,7.3c-0.1,0.5-0.1,1.1,0,1.6c0.2,1.2,0.8,1.3,2.1,1.1l0.1,0l0-0.1
		c0.6-3.7,0.4-7.4,0.1-10.6l0.9,0c0.1,0.4,0.3,0.9,0.4,1.3c0.3,1.1,0.6,2.1,0.9,3.1c0.2,0.7,0.3,1.3,0.5,1.9c0.2,1,0.5,1.9,0.7,3
		c0.1,0.5,0.2,0.6,0.4,0.9l0.1,0.2c0.1,0.2,0.5,0.6,0.8,0.6c0.1,0,0.2,0,0.3-0.1C169,73.7,168.9,73.3,168.8,72.9z M151.3,66.7
		c0-0.2,0-0.4,0-0.5c0-0.6,0-1.1,0-1.7c0.1-1.7,0.3-3.3,0.4-5l0.2-2.2c0-0.6,0.5-0.8,0.8-1c0.5-0.2,1-0.2,1.6-0.3l0.2,0.2
		c0.1,0.4,0.3,0.9,0.3,1.3c0.1,1.8,0.1,3.6,0.1,5.4l0,2.5c0,0.2,0,0.4,0,0.7l0,0.1C153.9,66.7,152.7,66.8,151.3,66.7z M157.5,70.6
		c0-0.6,0-1.1,0-1.7c0-1-0.1-2.1-0.1-3.1l0-1.7c0-2.5,0-5.1-0.2-7.7c-0.1-1-0.6-1.5-1.2-2c-0.2-0.2-0.4-0.3-0.6-0.4l-0.2-0.1
		c-1.1-0.7-2.3-0.8-3.3-0.1c-1,0.6-2.2,1.5-2.3,3.2c0,0.1,0,0.2-0.1,0.3c0,0.1-0.1,0.2-0.1,0.3c-0.1,0.4-0.2,0.8-0.3,1.2
		c-0.2,1-0.5,2-0.5,3.1c0,1.3-0.1,2.6-0.1,3.9c0,0.7,0,1.4-0.1,2c0,0.1,0,0.2,0,0.4l0,0.2l0.1,1.2c0.1,0.9,0.1,1.8,0.2,2.7
		c0,0.5,0.1,0.6,0.1,0.9c0,0.1,0.1,0.3,0.1,0.5c0.1,0.3,0.5,0.7,0.8,0.7l0,0c0.3,0,0.5-0.3,0.8-0.5c0.2-0.2,0.2-0.5,0.2-0.6
		c0-0.3,0-0.4,0-0.5c0-0.2,0-0.3,0-0.7l0-2.8c0.2,0,0.3,0,0.5,0c0.6,0,1.1,0,1.6-0.1c0.5-0.1,1-0.3,1.5-0.4c0.1,0,0.2-0.1,0.4-0.1
		l0,0.1c0,0.3,0.1,0.5,0.1,0.8c0,0.5,0.1,0.9,0.1,1.4c0,0.5,0.1,1.1,0.1,1.6l0,0.1c0,0.5,0.1,1.2,0.5,1.5c0.1,0.1,0.3,0.2,0.7,0.2
		c0.8-0.1,0.8-1.1,0.8-1.6C157.5,71.9,157.5,71.3,157.5,70.6z M145.2,53c-1.1-0.4-2.2,0-3.3,0.1c-0.4,0-0.8,0.1-1.1,0
		c-0.5-0.2-0.8-0.1-1.3,0.1c-1.6,0.8-1.7,1-0.3,2.1c0,1.3,0.1,2.6,0,3.8c-0.1,1.2-0.1,2.4-1,3.3c0,0,0,0.2,0,0.3
		c0.2,0.5,0.9,0.6,0.9,1.4c0,1.9,0.1,3.7,0.1,5.6c0,1.5,0.2,2.9,1,4.1c0.7-0.3,1-0.9,1.1-1.5c0.3-1.8,0.5-3.5,0.3-5.3
		c-0.1-1.1-0.2-2.2-0.3-3.4c1.4-0.2,2.2-0.4,2.5-1.7c-0.7-0.8-1.7-0.6-2.4-0.9c0-1.8,0-3.7,0-5.3c1.3-0.3,2.5-0.5,3.6-0.8
		c0.7-0.2,1.2-0.6,1.3-1.4C145.9,53.3,145.6,53.2,145.2,53z"/>
</g>
<g id="ticket">
	<path class="st3" d="M79.7,37.8c0.7,1.4,2,2.5,3.5,3.1L40.8,56.2c-1.9-1.8-4.7-2.2-7-1l-4.2-8l48.1-26.1l4.4,8.3
		C79.2,31.1,78.1,34.8,79.7,37.8z"/>
	<path class="st4" d="M88.9,55.1c1.1,3.2,4.7,4.8,7.8,3.7l3.1,8.6L48,86.2l-3.1-8.6c3.2-1.1,4.8-4.7,3.7-7.8
		c-1.1-3.2-4.7-4.8-7.8-3.7l-3.1-8.6l51.9-18.7l3.1,8.6C89.4,48.4,87.8,51.9,88.9,55.1z"/>
	<path class="st5" d="M88.9,55.1c1.1,3.2,4.7,4.8,7.8,3.7l3.1,8.6l-9.6,3.5L79.9,42.1l9.6-3.5l3.1,8.6
		C89.4,48.4,87.8,51.9,88.9,55.1z"/>
	<path d="M82,63c-14.8,5.4-30,1.1-33.8-9.5l-10.6,3.8l3.1,8.6c3.2-1.1,6.7,0.5,7.8,3.7c1.1,3.2-0.5,6.7-3.7,7.8l3.1,8.6l42.3-15.3
		L86.7,61C85.2,61.8,83.6,62.5,82,63z"/>
	<path class="st6" d="M90.3,70.9l9.6-3.5l-3.1-8.6c-1.8,0.7-3.8,0.4-5.4-0.6c-1.5,1.1-3,2-4.6,2.8L90.3,70.9z"/>
	<path class="st7" d="M80.2,38.6c-0.8,0.3-1.5,0.7-2.3,0.9c-10.6,3.8-21.5,2.3-28.4-3.1L29.6,47.2l4.2,8c2.3-1.2,5.1-0.8,7,1
		l42.4-15.3C82,40.5,81,39.7,80.2,38.6z"/>
	<path class="st8" d="M93,48.2c0.5-0.2,0.8-0.8,0.6-1.3l-3.1-8.6c-0.2-0.5-0.8-0.8-1.3-0.6l-5.9,2.1c-1.1-0.5-2.1-1.3-2.7-2.4
		c-1.4-2.5-0.4-5.6,2.1-7c0.2-0.1,0.4-0.3,0.5-0.6c0.1-0.3,0.1-0.5-0.1-0.8l-4.4-8.3c-0.3-0.5-0.9-0.7-1.4-0.4c0,0,0,0,0,0
		L29.1,46.3c-0.5,0.3-0.7,0.9-0.4,1.4c0,0,0,0,0,0l4.2,8c0.1,0.2,0.3,0.4,0.6,0.5c0.3,0.1,0.5,0.1,0.8-0.1c1.3-0.7,2.8-0.8,4.2-0.2
		l-1.3,0.5c-0.5,0.2-0.8,0.8-0.6,1.3l3.1,8.6c0.2,0.5,0.8,0.8,1.3,0.6c2.7-1,5.6,0.4,6.5,3.1c1,2.7-0.4,5.6-3.1,6.5
		c-0.5,0.2-0.8,0.8-0.6,1.3l3.1,8.6c0.2,0.5,0.8,0.8,1.3,0.6l51.9-18.7c0.5-0.2,0.8-0.8,0.6-1.3l-3.1-8.6c-0.2-0.5-0.8-0.8-1.3-0.6
		c-2.7,1-5.6-0.4-6.5-3.1C88.9,52.1,90.3,49.2,93,48.2z M34.3,53.9L31,47.6l46.3-25.1l3.5,6.5c-3.2,2.5-3.8,7.1-1.3,10.3
		c0.4,0.5,0.8,0.9,1.3,1.3L41,55C39.1,53.5,36.6,53.1,34.3,53.9z M88,55.5c1.2,3.3,4.7,5.3,8.2,4.6l2.5,6.8l-7.7,2.8L87.1,59
		c-0.2-0.5-0.8-0.8-1.3-0.6c-0.5,0.2-0.8,0.8-0.6,1.3L89,70.3L48.7,84.9l-2.5-6.8c3.5-1.9,4.8-6.2,3-9.7c-1.5-2.8-4.7-4.3-7.8-3.6
		L38.9,58l40.3-14.6l1.4,3.8c0.2,0.5,0.8,0.8,1.3,0.6c0.5-0.2,0.8-0.8,0.6-1.3l-1.4-3.8l7.7-2.8l2.5,6.8
		C88.2,48.4,86.8,52.1,88,55.5z"/>
	<path class="st8" d="M82.7,49.8c-0.5,0.2-0.8,0.8-0.6,1.3l0.3,1c0.2,0.5,0.8,0.8,1.3,0.6c0.5-0.2,0.8-0.8,0.6-1.3l-0.3-1
		C83.8,49.9,83.2,49.6,82.7,49.8z"/>
	<path class="st8" d="M84.4,54.6c-0.5,0.2-0.8,0.8-0.6,1.3l0.3,1c0.2,0.5,0.8,0.8,1.3,0.6c0.5-0.2,0.8-0.8,0.6-1.3l-0.3-1
		C85.5,54.7,84.9,54.4,84.4,54.6z"/>
</g>
</svg>
