<?xml version="1.0" encoding="utf-8"?>
<!-- Generator: Adobe Illustrator 25.2.1, SVG Export Plug-In . SVG Version: 6.00 Build 0)  -->
<svg version="1.1" id="Layer_1" xmlns="http://www.w3.org/2000/svg" xmlns:xlink="http://www.w3.org/1999/xlink" x="0px" y="0px"
	 viewBox="0 0 235.2 53.3" style="enable-background:new 0 0 235.2 53.3;" xml:space="preserve">
<style type="text/css">
	.st0{fill-rule:evenodd;clip-rule:evenodd;fill:#ED2224;}
	.st1{fill:#FFFFFF;}
</style>
<g>
	<g>
		<path class="st0" d="M99.4,22.7C99.8,23.1,99.4,23.5,99.4,22.7L99.4,22.7z"/>
		<path class="st0" d="M99.2,25.5c0.2,0.6-0.2,1.5-0.8,1.7c-0.1-0.5,0.2-0.6,0.4-0.8c-0.2-0.2-0.1-0.2-0.1-0.5
			C99,25.9,98.8,25.5,99.2,25.5z"/>
		<path class="st0" d="M98.4,27.5c0,0.2,0.2-0.1,0.2-0.2c0.2,0.1-0.1,0.2,0,0.5c-0.5,0.1-0.8,0.2-0.6,0.8c-0.2,0.1-0.3,0.1-0.2,0.5
			c-0.4,0.1-0.7,0.4-1.1,0.2c0.4-0.2,1.6-2.2,1.9-2.1C98.6,27.3,98.5,27.5,98.4,27.5z"/>
		<path class="st0" d="M98.2,28.7c0,0.2-0.2,0.2-0.2,0.3c-0.2,0-0.1-0.4,0-0.4C98.1,28.7,98.1,28.7,98.2,28.7z"/>
		<path class="st0" d="M97.7,30.1c-0.1,0.3-0.2,0.5-0.5,0.6C97.1,30.4,97.5,30.1,97.7,30.1z"/>
		<path class="st0" d="M97.5,20.7c-0.1,0.2-0.5-0.2-0.2-0.4C97.5,20.3,97.5,20.5,97.5,20.7z"/>
		<path class="st0" d="M97.5,29.4c-0.2,0.2-0.2,0.4-0.5,0.5C97.1,29.5,97.3,29.4,97.5,29.4z"/>
		<path class="st0" d="M97.4,19c-0.1,0.2-0.2,0.2-0.4,0.4c-0.1,0.3,0.2,0.4,0,0.6c-0.2,0-0.1-0.4-0.5-0.3c0.2-0.1,0.3-0.2,0.3-0.5
			c0.1,0.1,0.4,0.1,0.2-0.2C97.2,19,97.3,19,97.4,19z"/>
		<path class="st0" d="M96.9,22.2c0-0.5-0.2-1,0.1-1.2C96.9,21.3,97.2,21.7,96.9,22.2z"/>
		<path class="st0" d="M96.8,31.3c0,0.2-0.2,0.2-0.3,0.2C96.5,31.4,96.6,31.1,96.8,31.3z"/>
		<path class="st0" d="M96.7,16.7c-0.2-0.4-0.3-1-0.6-1.2C96.4,15.4,96.7,16.1,96.7,16.7z"/>
		<path class="st0" d="M95.7,13.1c-0.1-0.1-0.4,0-0.5-0.2c0.1-0.1,0-0.2,0-0.4c0.5,0,0.5,0.6,0.9,0.7c-0.1,0.7,0.4,0.9,0.4,1.5
			c-0.1-0.4-0.6-0.8-0.6-1c-0.1,0-0.1,0-0.2,0c0.1,0.2,0.2,0.6,0.5,0.5c0,0.4,0.2,0.2,0.1,0.5c-0.2-0.1-0.4-0.2-0.4-0.5
			c-0.2,0.2-0.3,0.2-0.5,0.1c0.2-0.4-0.1-0.8-0.5-0.7c0.2-0.1,0.2-0.3,0-0.4c0.2,0,0.4,0,0.6,0.2C95.8,13.4,95.5,13.1,95.7,13.1z
			 M95.8,13.6c0.2,0,0.2-0.1,0.2-0.3C95.8,13.2,95.7,13.4,95.8,13.6z"/>
		<path class="st0" d="M96.5,9.5c-0.2,0.1-0.1-0.2-0.3-0.2c0-0.1,0.1-0.2,0.1-0.3C96.3,9.1,96.5,9.2,96.5,9.5z"/>
		<path class="st0" d="M96.4,24.8c0,0.2,0,0.4-0.2,0.4C96.2,24.9,96.2,24.7,96.4,24.8z"/>
		<path class="st0" d="M95.9,12.1c-0.1,0-0.2,0-0.2,0.1c-0.4-0.3-0.6-1-1.1-1.1c0-0.3,0.2-0.3,0.2-0.5c0.2,0,0.3,0.4,0.4,0.1
			C95.5,11,95.8,11.5,95.9,12.1z"/>
		<path class="st0" d="M95.4,18.8c-0.1,0.1-0.1,0.3-0.2,0.4c-0.3-0.1-0.2-0.5-0.2-0.8C95.3,18.3,95.1,18.8,95.4,18.8z"/>
		<path class="st0" d="M95.2,17.6c-0.1-0.2-0.1-0.5-0.2-0.7C95.2,17,95.2,17.3,95.2,17.6z"/>
		<path class="st0" d="M95.2,36.2c0,0.2-0.2,0.1-0.2,0.2c-0.2-0.1,0.1-0.2,0-0.5C95.1,36,95,36.3,95.2,36.2z"/>
		<path class="st0" d="M95,34.4c-0.2,0-0.3-0.1-0.2-0.3c0.1,0,0.1,0.2,0.1,0.2s0.1-0.1,0.1-0.2C95,34.1,95.1,34.3,95,34.4z"/>
		<path class="st0" d="M94.8,37c0,0.2,0,0.3,0,0.5c-0.2,0.1-0.2,0.4-0.4,0.5C94.5,37.6,94.4,37,94.8,37z"/>
		<path class="st0" d="M94.6,28.7c-0.5,0.5-0.9,0.9-1.6,1.2C93.5,29.5,93.8,28.8,94.6,28.7z"/>
		<path class="st0" d="M94.6,29.7C94.5,30,94.2,30,93.9,30C94.1,29.8,94.2,29.6,94.6,29.7z"/>
		<path class="st0" d="M94.5,9.6c0,0.4-0.4-0.1-0.4,0.4c-0.1-0.1-0.2-0.2-0.2-0.4c0.4,0,0.1-0.2,0.1-0.4c0.1,0,0.1,0,0.1-0.1
			C94.3,9.2,94.3,9.6,94.5,9.6z"/>
		<path class="st0" d="M94.5,19.4c-0.2,0-0.2-0.1-0.2-0.3C94.5,19.1,94.5,19.2,94.5,19.4z"/>
		<path class="st0" d="M93.9,40c-0.1,0.2-0.3-0.3-0.3,0.2c-0.2-0.1,0-0.8,0-1.1C93.6,39.4,93.8,39.6,93.9,40z"/>
		<path class="st0" d="M93.8,36.9c-0.2,0.1-0.2-0.4-0.1-0.5C93.8,36.5,93.8,36.7,93.8,36.9z"/>
		<path class="st0" d="M93.3,41.1c-0.2-0.1,0.1-0.3,0.1-0.5c0,0.2,0.3,0.2,0.1,0C93.9,40.5,93.5,41.1,93.3,41.1z"/>
		<path class="st0" d="M93.4,34.1c0,0.2-0.3,0.1-0.2,0.3c-0.2-0.1-0.1-0.2-0.1-0.5C93.3,33.9,93.2,34.2,93.4,34.1z"/>
		<path class="st0" d="M93.3,41.7c0.1,0.1,0,0.4-0.2,0.4C93.1,41.8,93.3,41.8,93.3,41.7z"/>
		<path class="st0" d="M93.1,34.6c-0.1,0.5-0.4,0.8-0.6,1.2C92.5,35.5,92.6,34.6,93.1,34.6z"/>
		<path class="st0" d="M93,42.5c-0.7,0.9-1.4,1.9-2.4,2.6c0.1-0.9,1.4-0.8,1.3-1.8c0.4-0.2,0.7-0.3,0.8-0.8
			C92.8,42.5,92.9,42.5,93,42.5z"/>
		<path class="st0" d="M92.5,35.9c0,0.4-0.4,0.5-0.5,0.8C91.9,36.4,92.2,35.9,92.5,35.9z"/>
		<path class="st0" d="M92.1,44.8c-0.1,0.2-0.2,0.4-0.3,0.5C91.7,45.2,91.9,44.8,92.1,44.8z"/>
		<path class="st0" d="M92,32.4c-0.1,0.2-0.2,0.4-0.3,0.5C91.6,32.8,91.6,32.4,92,32.4z"/>
		<path class="st0" d="M91.9,38.4c0.1,0.6-0.2,0.8-0.4,1.1c-0.1,0-0.1-0.1-0.1-0.2c-0.4,0.2-0.1,1.2-0.7,1.2c0.1-0.4,0.6-1,0.3-1.3
			c0.1-0.4,0.5-0.5,0.5-0.9C91.8,38.4,91.7,38.5,91.9,38.4z"/>
		<path class="st0" d="M91.9,37.1c0.1,0.5-0.4,0.6-0.3,1.2c-0.2,0-0.2,0-0.3-0.1c0.1-0.3,0.3-0.7,0.2-1.1
			C91.7,37.2,91.7,37,91.9,37.1z"/>
		<path class="st0" d="M91.2,46.8c0.2,0.1-0.1,0.4-0.2,0.3C91,46.9,91.2,46.9,91.2,46.8z"/>
		<path class="st0" d="M90.6,36.5c0,0.1,0,0.2,0,0.2c-0.1,0.1-0.3,0.1-0.5,0.2C90.3,36.7,90.4,36.4,90.6,36.5z"/>
		<path class="st0" d="M90.6,43.5c0,0.2-0.2,0.2-0.2,0.3c-0.2-0.1-0.1-0.2-0.1-0.4C90.5,43.4,90.6,43.5,90.6,43.5z"/>
		<path class="st0" d="M90.5,39.1c0.2,0.2-0.1,0.6-0.3,0.5C90.3,39.5,90.4,39.3,90.5,39.1z"/>
		<path class="st0" d="M90.3,41.4c-0.2,0.5-0.8,0.5-1.3,0.7C89.4,41.9,89.7,41.2,90.3,41.4z"/>
		<path class="st0" d="M89.9,40.5c-0.2,0.4-0.6,0.5-1.1,0.8C89,40.8,89.6,40.7,89.9,40.5z"/>
		<path class="st0" d="M89.7,6c-0.1,0.4-0.5-0.1-0.6-0.1c0.1-0.1,0.1-0.2,0.1-0.3C89.3,5.7,89.4,6,89.7,6z"/>
		<path class="st0" d="M89,40.4c0.2,0.4-0.3,0.7-0.6,0.8c0-0.2,0.1-0.3,0.1-0.5c0-0.2-0.2,0.2-0.1-0.2c-0.2,0.1-0.3,0.2-0.5,0.2
			c0.2-0.3,0.4-0.5,0.7-0.7c0.1,0.1,0.1,0.2,0.1,0.1C88.7,40.2,88.7,40.7,89,40.4z"/>
		<path class="st0" d="M88.9,4C88.7,3.9,88.5,4,88.3,4C88.3,3.5,88.8,3.8,88.9,4z"/>
		<path class="st0" d="M88.7,47.3c-0.2,0.2-0.5,0.3-0.8,0.2c0.1-0.2,0.4-0.4,0.4-0.7C88.4,47,88.4,47.3,88.7,47.3z"/>
		<path class="st0" d="M88.3,41c-0.1,0.4-0.5,0.5-0.8,0.7c0.1-0.4,0.4-0.3,0.4-0.7C88,41,88.1,41,88.3,41z"/>
		<path class="st0" d="M87.8,3.5c0.1-0.1,0-0.4,0.2-0.3C88.1,3.4,88.1,3.6,87.8,3.5z"/>
		<path class="st0" d="M87.7,41c-0.2,0.2-0.5,0.3-0.8,0.4c0-0.4,0.4-0.3,0.5-0.6C87.6,40.8,87.6,40.9,87.7,41z"/>
		<path class="st0" d="M87.3,2.5c-0.2,0.1-0.8-0.2-0.6-0.5C87,2,87.1,2.4,87.3,2.5z"/>
		<path class="st0" d="M86.7,42.9c-0.2,0.2-0.5,0.2-0.8,0.4C86,43,86.4,42.9,86.7,42.9z"/>
		<path class="st0" d="M85.8,2.2c0,0.2-0.3-0.1-0.2,0.2C85.4,2.4,85.7,2,85.8,2.2z"/>
		<path class="st0" d="M85.4,43.1c-0.2,0.2-0.5,0.3-0.8,0.3C84.7,43.1,85.1,42.8,85.4,43.1z"/>
		<path class="st0" d="M85,4.8c-0.1,0.2-0.2-0.1-0.3,0c0.1-0.1,0.1-0.1,0.1-0.2C84.8,4.6,84.8,4.8,85,4.8z"/>
		<path class="st0" d="M84.7,6c-0.2,0-0.3,0-0.2-0.2C84.6,5.7,84.7,5.8,84.7,6z"/>
		<path class="st0" d="M84.4,46.7c-0.1,0.1-0.5,0.3-0.6,0.2C83.8,46.6,84.1,46.7,84.4,46.7z"/>
		<path class="st0" d="M82.5,5.2c-0.1,0.1-0.1,0.2-0.2,0.2c-0.6-0.4-1.4-0.5-1.9-0.9c0.2-0.3,0.4-0.4,0.6-0.2
			c0.2-0.2-0.2-0.2-0.2-0.5C81.3,4.4,81.9,4.7,82.5,5.2z"/>
		<path class="st0" d="M82.2,48.9c-0.1,0.3-0.2-0.1-0.3,0.2C81.6,49,82,48.9,82.2,48.9z"/>
		<path class="st0" d="M81.8,1.8c-0.1,0.3-0.3-0.1-0.5-0.1C81.4,1.6,81.7,1.8,81.8,1.8z"/>
		<path class="st0" d="M78.2,47.6c1.1-0.1,2.1-0.4,3.2-0.5c-0.1,0.2-0.3,0.2-0.6,0.2c0,0.3,0.1,0,0.2,0.1c0,0.4-0.5,0.2-0.6,0.1
			c-0.5,0.2-1.2,0.1-1.6,0.2c-0.1,0-0.1-0.1-0.1-0.1C78.7,47.6,78.4,47.7,78.2,47.6z"/>
		<path class="st0" d="M81.2,2.4c-0.3,0.1-0.8-0.2-1.1-0.5c0.2,0.1,0.7,0,0.9,0.2C80.9,2.3,81.1,2.3,81.2,2.4z"/>
		<path class="st0" d="M80.9,50c0.1,0.2-0.1,0.2-0.1,0.4c-0.6-0.1-1.3,0.5-1.5-0.1C79.9,50.3,80.4,50.2,80.9,50z"/>
		<path class="st0" d="M78,49.3c0-0.1,0.1-0.2,0.2-0.2c-0.2-0.1-0.4-0.1-0.6-0.2c-0.2-0.1,0.4-0.1,0.6-0.1c-0.1-0.2-0.4-0.1-0.5-0.2
			c0.8-0.5,2.2-0.4,3.1-0.7c0.2,0.8-0.5,0.8-0.8,0.8c-0.2,0.1,0,0.2-0.1,0.3c-0.2,0-0.5,0.1-0.5-0.2c-0.2,0-0.4,0-0.6,0
			c-0.1,0.1,0.1,0.3-0.2,0.2c-0.1,0.2,0,0.1,0,0.3c-0.2-0.1-0.5,0.3-0.6-0.1C78,49.2,78,49.3,78,49.3z"/>
		<path class="st0" d="M80.1,3.5c0,0.2-0.2,0.1-0.1,0.3c-0.1-0.3-0.5-0.4-0.7-0.4c0-0.2,0.3,0,0.3-0.4C79.7,3.2,79.9,3.4,80.1,3.5z"
			/>
		<path class="st0" d="M79.4,47c-0.1,0.2-0.5,0-0.8,0.1c-0.1-0.1,0.5-0.1,0.6-0.2C79.2,47,79.3,47,79.4,47z"/>
		<path class="st0" d="M79.2,44.4c0,0.5-0.8,0.4-1.3,0.2C78,44.2,78.9,44.7,79.2,44.4z"/>
		<path class="st0" d="M78.2,48c0.1,0.1-0.8,0.2-0.8-0.1C77.7,47.9,77.9,48.1,78.2,48z"/>
		<path class="st0" d="M77.5,48.6c0,0.4-0.3-0.1-0.5,0.1C77,48.5,77.3,48.6,77.5,48.6z"/>
		<path class="st0" d="M76,46.3c-0.5,0.4-1.2,0.4-1.7,0c0.4,0,0.9,0.2,1.1-0.2C75.5,46.2,75.8,46.1,76,46.3z"/>
		<path class="st0" d="M75.4,44.6c-0.1,0.2-0.5,0.2-0.5-0.1C75.2,44.4,75.2,44.6,75.4,44.6z"/>
		<path class="st0" d="M75.4,44.2C74.7,44.5,74.6,44,75.4,44.2L75.4,44.2z"/>
		<path class="st0" d="M73,46.5c-0.4-0.5-1.5-0.1-1.7-0.8c0.6,0.2,1.2,0.5,1.9,0.5c0.2,0.6,1.1,0.2,1.5,0.5
			c-0.6,0.6-1.8-0.2-2.6-0.2C72.4,46.4,72.7,46.4,73,46.5z"/>
		<path class="st0" d="M73,51.9c0.2-0.2,0.6,0,0.8,0C73.7,52.1,73.3,51.9,73,51.9z"/>
		<path class="st0" d="M73.4,52.1c-0.2,0.1-0.4,0.2-0.6,0.1C73,52.1,73.2,52,73.4,52.1z"/>
		<path class="st0" d="M73.3,48.6c-0.2,0.2-0.5,0.1-0.7,0C72.7,48.5,73.1,48.6,73.3,48.6z"/>
		<path class="st0" d="M72.8,3.6c-0.1,0.1-0.1,0.1-0.1,0.2c-0.2,0-0.4-0.2-0.5-0.4C72.5,3.5,72.5,3.7,72.8,3.6z"/>
		<path class="st0" d="M72.4,1.7c0.1,0.1,0,0.5,0,0.6c-0.2,0,0.1-0.4-0.2-0.5C72.2,1.7,72.4,1.8,72.4,1.7z"/>
		<path class="st0" d="M72,53.2c-0.1,0.2-0.4,0.1-0.5,0.1C71.5,53,71.7,53.1,72,53.2z"/>
		<path class="st0" d="M71.2,46.2c0.1,0.2-0.3-0.1-0.2,0.2c-0.1-0.2-0.3-0.2-0.5-0.3C70.7,45.8,70.9,46.3,71.2,46.2z"/>
		<path class="st0" d="M70.2,44c-0.2,0.2-1.1,0-1.2-0.4C69.6,43.7,69.8,44,70.2,44z"/>
		<path class="st0" d="M70.1,3.1c-0.2,0.1-0.5,0.4-0.6,0.2c0-0.1,0.2-0.1,0.1-0.3C69.8,3,70,3,70.1,3.1z"/>
		<path class="st0" d="M69.6,52.8c0,0.1,0,0.2,0,0.2c-0.4,0-0.6-0.1-0.8-0.2C69.1,52.8,69.4,52.8,69.6,52.8z"/>
		<path class="st0" d="M68.9,51.7c-0.2,0.2-0.4,0.1-0.5,0C68.5,51.5,68.6,51.8,68.9,51.7z"/>
		<path class="st0" d="M68.6,45.6c-0.5,0.1-1.1-0.4-1.4-0.7C67.8,45,68.1,45.3,68.6,45.6z"/>
		<path class="st0" d="M68.6,52.2c-0.1,0.1-0.1,0.1,0,0.2c-0.1,0.2-0.4-0.1-0.6-0.2C68.2,52,68.5,52.3,68.6,52.2z"/>
		<path class="st0" d="M68.6,1.8c-0.2,0.4-0.8,0.4-1.3,0.5C67.5,2,68.2,2.1,68.6,1.8z"/>
		<path class="st0" d="M67.5,47.4c-0.3,0.2-1-0.3-1.4-0.5C66.5,46.9,67,47.3,67.5,47.4z"/>
		<path class="st0" d="M65.3,51.6c-0.3,0.2-0.7-0.2-0.9-0.3C64.6,51.1,64.9,51.6,65.3,51.6z"/>
		<path class="st0" d="M64.2,5.9c0,0.2-0.2,0-0.2,0.3C63.7,6.1,64,5.8,64.2,5.9z"/>
		<path class="st0" d="M64.1,2C64,2.1,64,2.3,63.8,2.2C63.8,2,63.9,2,64.1,2z"/>
		<path class="st0" d="M63.6,4C63.3,4,63.1,4.1,63,4.3c-0.4-0.4,0.5-0.5,0.6-0.9C63.9,3.5,63.6,3.8,63.6,4z"/>
		<path class="st0" d="M63.2,49.7c-0.3,0.2-0.5,0-0.8,0c0.2-0.1,0.2-0.1,0.1-0.4C62.9,49.3,62.9,49.6,63.2,49.7z"/>
		<path class="st0" d="M63.1,50.7c-0.1,0.1-0.3,0.1-0.4,0.2c-0.1-0.3-0.4-0.4-0.6-0.6c0-0.1,0-0.1,0.1-0.1c0-0.1,0-0.1,0-0.2
			c0.3-0.1,0.4,0.4,0.8,0.4C62.9,50.6,63,50.7,63.1,50.7z"/>
		<path class="st0" d="M62.9,48.8c-0.1,0.4-0.7,0-0.8-0.4C62.4,48.6,62.6,48.7,62.9,48.8z"/>
		<path class="st0" d="M62.6,46.6c0,0.1-0.1,0.1-0.1,0.2C62,46.5,61.6,46,61.1,46c-0.5-1.1-1.9-1.1-2.2-2.4
			C60,44.7,61.2,45.7,62.6,46.6z"/>
		<path class="st0" d="M62,47.7c-0.1,0.5-0.4-0.2-0.6-0.2C61.5,47.3,61.7,47.7,62,47.7z"/>
		<path class="st0" d="M61.7,48.8c0,0.2-0.4,0.1-0.4,0c0-0.1,0.2-0.1,0.2-0.2C61.7,48.6,61.6,48.8,61.7,48.8z"/>
		<path class="st0" d="M61.5,47.8c-0.1,0.1-0.1,0.2-0.1,0.3c-0.4-0.1-0.5-0.3-0.7-0.5C61,47.6,61.2,47.8,61.5,47.8z"/>
		<path class="st0" d="M61.3,49.3c-0.2-0.1-0.2-0.4-0.5-0.3c0-0.1,0.1-0.1,0.1-0.2C61.1,48.9,61.3,49,61.3,49.3z"/>
		<path class="st0" d="M60.1,8L60,8.2C59.4,8.3,59.7,7.9,60.1,8z"/>
		<path class="st0" d="M59.7,48.3c-0.2,0.4-0.6-0.1-0.8-0.3C59,47.7,59.4,48.3,59.7,48.3z"/>
		<path class="st0" d="M58.8,11.6c0,0.4-0.3,0.3-0.5,0.2C58.4,11.6,58.6,11.6,58.8,11.6z"/>
		<path class="st0" d="M57.9,10.2c-0.1,0.2-0.4,0.2-0.5,0.5c-0.4-0.2-0.5,0.1-0.8,0.1C57,10.3,57.4,10.3,57.9,10.2z"/>
		<path class="st0" d="M56.8,8.4c-0.2,0.1-0.6,0.4-0.8,0.2C56,8.2,56.7,8.4,56.8,8.4z"/>
		<path class="st0" d="M56.4,9.3c-0.1,0.2-0.2,0.2-0.4,0.2C55.9,9.3,56.1,9.3,56.4,9.3z"/>
		<path class="st0" d="M55.9,46.7c-0.1,0.1,0.1,0.1,0,0.4c-0.4,0-0.4-0.4-0.7-0.4C55.4,46.4,55.7,46.7,55.9,46.7z"/>
		<path class="st0" d="M55.9,43.6c-0.5,0.1-0.8-0.5-0.9-1C55.2,43,55.8,43,55.9,43.6z"/>
		<path class="st0" d="M55.3,26.5c-0.1-0.1-0.2-0.1-0.2-0.4C55.3,26.1,55.3,26.3,55.3,26.5z"/>
		<path class="st0" d="M55.1,33.9c-0.1,0-0.2-0.1-0.2,0.1c-0.2-0.2-0.2-0.7-0.4-1.2c0.2,0.1,0.3,0.4,0.4,0.6c0.1,0,0.2,0,0.2-0.2
			C55.2,33.4,54.9,33.6,55.1,33.9z"/>
		<path class="st0" d="M54.9,28.7c-0.3-0.1-0.2-0.6-0.4-0.9C54.9,27.8,54.8,28.3,54.9,28.7z"/>
		<path class="st0" d="M54.5,10.8c0.1,0.1-0.3,0.2-0.5,0.2c0.1-0.1,0.1-0.2,0.1-0.3C54.4,10.5,54.3,10.8,54.5,10.8z"/>
		<path class="st0" d="M54.3,41.2c-0.2-0.1-0.4-0.2-0.3-0.6C54.2,40.7,54.3,40.9,54.3,41.2z"/>
		<path class="st0" d="M54.1,23.6c0,0.3,0,1.8-0.1,0.7C54.1,24.2,53.9,23.6,54.1,23.6z"/>
		<path class="st0" d="M53.6,33.7c-0.2-0.1-0.2-0.5-0.3-0.8C53.5,33,53.5,33.4,53.6,33.7z"/>
		<path class="st0" d="M53.3,7.8C53.3,8,53.1,8,52.9,8C53,7.9,53.2,7.8,53.3,7.8z"/>
		<path class="st0" d="M52.7,11.8c-0.1,0.4-0.6,0.4-0.8,0.8c-0.2-0.1,0.1-0.3,0.1-0.3c0-0.2-0.3-0.1-0.2,0.1
			C51.7,11.8,52.5,12,52.7,11.8z"/>
		<path class="st0" d="M52.2,20.7c0.1,0,0,0.3,0.1,0.4c-0.2-0.2-0.2,0.4-0.3,0.5c-0.2-0.3-0.1-0.6,0.1-0.8
			C52,20.9,52.3,21.2,52.2,20.7z"/>
		<path class="st0" d="M51.9,31c-0.4-0.5-0.6-1.1-0.6-2c0.1,0.1,0.2,0.1,0.2-0.2C51.9,29.2,52.2,30.4,51.9,31z"/>
		<path class="st0" d="M51.5,22.7c0-0.2,0-0.4,0-0.5C51.6,22.2,51.7,22.7,51.5,22.7z"/>
		<path class="st0" d="M50.6,35.2c-0.2-0.1-0.2-0.4-0.3-0.7C50.5,34.6,50.6,34.9,50.6,35.2z"/>
		<path class="st0" d="M50.6,37c-0.2,0-0.1-0.2-0.2-0.3C50.4,36.5,50.6,36.8,50.6,37z"/>
		<path class="st0" d="M49.9,31.1c0,0.1-0.1,0.1-0.1,0.2c-0.1-0.3-0.2-0.5-0.2-0.8C49.8,30.5,49.7,31,49.9,31.1z"/>
		<path class="st0" d="M49.7,32.5c-0.2-0.1-0.2-0.4-0.3-0.6c0.1,0,0.2,0,0.2,0C49.7,32,49.9,32.4,49.7,32.5z"/>
		<path class="st0" d="M49.6,11.4C49.6,12.3,48.7,11.8,49.6,11.4L49.6,11.4z"/>
		<path class="st0" d="M49.6,31.6c-0.2,0-0.2-0.6-0.2-0.6C49.5,31,49.6,31.5,49.6,31.6z"/>
		<path class="st0" d="M48.9,29c0-0.5-0.4-1-0.1-1.3C48.9,27.9,49.2,28.9,48.9,29z"/>
		<path class="st0" d="M48.6,29.1c-0.2-0.2-0.2-0.5-0.2-0.9C48.6,28.3,48.5,28.8,48.6,29.1z"/>
		<path class="st0" d="M48.3,26.1c-0.4,0-0.4-0.6-0.6-0.9c-0.1,0.1-0.2,0.2-0.4,0.2c0-0.2-0.1-0.2-0.1-0.5c0.2,0.2,0.5,0.1,0.6-0.2
			C48.3,24.9,48.2,25.6,48.3,26.1z"/>
		<path class="st0" d="M47.1,19.1c-0.3,0.1,0.1-0.5-0.2-0.4c0-0.2,0.2-0.2,0.1-0.5C47.3,18.4,47.1,18.8,47.1,19.1z"/>
		<path class="st0" d="M47.2,23.7c-0.4,0-0.4,0.2-0.7,0.1c-0.1-0.4,0.1-0.6,0.1-0.9c0.1,0,0.2,0,0.3,0c0-0.2-0.1-0.7,0-0.9
			C47.1,22.5,47.3,22.9,47.2,23.7z"/>
		<path class="st0" d="M47.1,28.9c-0.2,0.1-0.2-0.2-0.2-0.4C47.1,28.5,47.1,28.7,47.1,28.9z"/>
		<path class="st0" d="M46.4,20.1c0.2,0.2-0.1,0.5-0.1,0.8C46.1,20.6,46.3,20.3,46.4,20.1z"/>
		<path class="st0" d="M95.9,29.5c0-0.1-0.1-0.2-0.1-0.2c-0.8,0.2-0.6,0.7-0.9,1.4c0.1,0.2,0.3-0.1,0.3,0.2c-0.2-0.2-0.1-0.1-0.4,0
			c0-0.2,0-0.4-0.1-0.5c-0.6,0.5-1.3,0.8-1.9,1.2c0.1,0.1,0.2,0.1,0.1,0.2c-0.5,0.1-1.4,0.1-1.6,1c-0.2-0.4-0.5,0.1-0.7-0.2
			c-0.6,0.3-1.6,0.7-1.8,1.5c-0.8,0.1-1.2,0.2-1.2,0.9c-0.7,0.1-1.1,1.1-1.5,1.8c0.4,0.4-0.5,0.8-0.4,1.1c-0.4-0.1-0.3,0.2-0.4,0.5
			c0.3,0.2,0.5-0.5,0.9-0.5c-0.2,0.4-0.6,0.5-0.8,0.9c0.1,0.2,0.5,0,0.6-0.1c0.2,0.2-0.3,0.3-0.3,0.5c0.1,0.3,0.2,0.1,0.4,0.1
			c0,0.2-0.4,0.1-0.4,0.3c0.5,0.1,0.9-0.6,1.3-1c0-0.2-0.2-0.2-0.3-0.2c0-0.2,0.4-0.1,0.3-0.4c0.1,0.1,0.2,0.2,0.1,0.3
			c0.3-0.1,0.4-0.5,0.6-0.6c-0.1-0.2-0.2,0.2-0.4,0.2c0-0.1,0.1-0.1,0.1-0.2c-0.4,0.1-0.5,0.6-0.9,0.5c0.5-0.5,1.4-0.7,1.7-1.6
			c0.4-0.1,0.6,0.1,0.7-0.5c-0.1,0-0.1,0.1-0.2,0.1c0.2,0.2,0.1,0.1-0.1,0.2c0-0.4,0.1-1.3,0.8-1c0.1-0.2,0.2-0.3,0.2-0.5
			c-0.2,0-0.1-0.1,0-0.4c-0.1-0.5-0.4,0.2-0.5,0c0.2-0.6,1-0.6,1.3-1.1c0.1,0.3-0.3,0.7-0.6,0.8c0.1-0.1,0.4,0,0.5,0.2
			c0.4-0.5,0.7-1.5,1.2-1.6c0.2,0.1-0.2,0.5-0.1,0.5c-0.6,0.2-0.7,1.2-1.2,1.2c0,0.1,0.1,0.1,0.1,0.2c-0.1,0.1-0.2,0-0.2,0.4
			c-0.2,0.2-0.4,0.1-0.4,0.4c-0.5,0-0.6,0.2-0.8,0.5c0.7,0.2,0.9-0.8,1.5-0.8c0.1,0.2-0.1,0.2-0.1,0.3c0.1-0.1,0.2-0.2,0.4-0.2
			c-0.1,0.2,0.1,0.3,0.1,0.5c-0.2,0-0.2,0.2-0.3,0.3c-0.2,0,0.1-0.2,0.1-0.3c0-0.1-0.1-0.1-0.1-0.2c-0.1,0.1-0.2,0.4-0.3,0.5
			c-0.1-0.1,0-0.4,0.1-0.5c-0.2,0.1-0.5,0.2-0.7,0.4c0,0.2,0.2,0.2,0.3,0.2c0,0.6-0.1,1.8-0.8,1.7c-0.1-0.2,0.1-0.2,0.1-0.3
			c-0.2,0-0.3,0.1-0.5,0.1c-0.3,0.5-0.8,0.8-1.2,1.1c0.1,0.1,0.1,0.1,0.2,0.2c-0.2,0.3-0.5,0.1-0.7,0.4c-0.2-0.1,0.2-0.2,0.2-0.4
			c-0.5,0.2-0.9,0.6-1.3,1c0.3,0,0.4-0.2,0.6-0.3c0.2-0.1-0.1,0.4,0.2,0.2c-0.2,0.3-0.6,0.2-0.5,0.6c-0.2-0.2-0.6-0.1-0.6,0.4
			c0.8,0,1.5-0.6,2.5-0.9c-0.5,0.5-1.5,0.9-1.8,1.1c0,0.1-0.1,0.4-0.1,0.6c-0.4,0.1-0.6-0.1-0.7,0.5c0.6-0.4,1.5-0.4,2.1-0.7
			c-0.3,0.5-1.1,0.2-1.3,0.8c-0.1-0.2-0.7-0.1-0.7,0.2c-0.4-0.1-0.6,0.1-0.9,0.1c0,0.2-0.1,0.5,0.1,0.5c-0.2,0.5-0.8,0.1-0.9,0.5
			c0,0.1,0.1,0.1,0.1,0c-0.1,0.5-0.7,0.2-1.1,0.3c-0.5,0.1-1,0.4-1.3,0.4c-0.1-0.1-0.2,0-0.2-0.2c-0.2,0.2-0.4,0.1-0.5,0.2
			c0.1,0.1,0-0.5-0.2-0.2c0.2-0.4,1.1,0.1,1.5-0.3c-0.4-0.8-1.2,0-2.1,0.1c0.1-0.1,0.2-0.1,0.3-0.2c-0.1-0.2-0.5,0-0.6,0
			c-0.2,0.1,0.1,0.2-0.1,0.3c-1,0-1.5,0.2-2.2,0.8c0.1,0.2,0.2,0.2,0.1,0.3c-0.3,0.4-1.2,0-1.4,0.5c0.1,0.1,0.1,0.1,0.2,0.2
			c-0.1,0.3-0.4,0-0.8,0c0-0.3,0.1,0,0.2-0.2c-0.1-0.2-0.8-0.3-0.8,0c-1.4-0.3-2.8-0.2-4.2-0.5c0.1-0.2,0.5,0,0.7-0.1
			c-0.6-0.6-1.8-0.2-2.5-1c0.9,0.4,1.6,0.2,2.6,0.5c0.1-0.3-0.3-0.1-0.2-0.4c1.9,0,3.9,1.1,5.6,0.2c-0.5-0.1-0.6-0.6-1.2-0.4
			c-0.1-0.4,0.8-0.1,0.8-0.5c0.3,0.1,0.2,0.2,0.3,0.5c0.1-0.1,0.1-0.1,0.2-0.1c0-0.1-0.1-0.1-0.1-0.2c0.2-0.1,0.4-0.2,0.8-0.2
			c-0.4-0.2-0.7,0.1-1.3-0.2c0.5-0.1,1-0.2,1.4-0.2c-0.1-0.2-0.5-0.4-0.6-0.1c-0.1-0.1-0.2-0.1-0.2-0.3c0.2-0.1,0.4-0.1,0.5-0.2
			c-1.3-0.1-2.8,0.2-4.2,0c0.5,0.2,1,0.4,1.6,0.6c-0.1,0.8-1.5,0.8-1.9,0.4c0.1-0.2,0.4,0.1,0.6,0c0-0.1-0.1-0.1-0.2-0.1
			c0-0.1,0.1-0.1,0.1-0.2c-0.5-0.3-1.2,0.1-1.9,0.2c-0.5-0.3-1.4-0.3-1.7-0.8c-0.2,0-0.2,0.1-0.3,0c0.2-0.1,0-0.3,0.4-0.2
			c-0.6-0.5-1.5-0.8-2.3-1.1c0.1,0.2,0.4,0.2,0.5,0.3c-0.3,0.2-0.5-0.3-0.8-0.1c0.5,0.5,1.4,0.5,1.9,0.9c-1.5,0.3-2.8-1.1-4.1-1.5
			c0.1,0.4,0.5,0.4,0.5,0.8c-0.2-0.1-0.3-0.2-0.5-0.4c-0.1,0-0.1,0.1-0.1,0.2c0.1,0,0.3,0.2,0.5,0.3c-0.4,0.4,0.4,0.4,0.6,0.7
			c-0.2,0.3,0.1,0.2,0.1,0.6c1.5,0.4,2.7,1.1,4.1,1.6c-1.5,0.2-2.9-0.9-4.3-1.2c-0.2-0.3-0.5-0.4-0.9-0.5c0.2,0.2,0.4,0.5,0.7,0.5
			c-0.8,0.3-1.5-0.4-2.2-0.8c0.1,0.4,0.8,0.8,1.4,0.9c0.1,0.2,0.2,0.4,0.4,0.5c0-0.3,0.9,0.4,1.1,0.5c0.1,0.1,0.1,0.2-0.1,0.3
			c0.5,0.4,1.2,0.6,1.9,0.8c0-0.2,0-0.2-0.1-0.2c0.2,0,0.6-0.2,0.7,0.2c-0.1-0.1-0.4-0.1-0.5-0.1c-0.1,0.3,0.3,0.1,0.3,0.2
			c-0.1,0.2-0.5,0-0.6,0c0.5,0.5,1.5,0.6,1.9,1.1c-0.3-0.1-1.1-0.2-1.4-0.7c-0.8,0.1-1.1-0.4-1.8-0.5c0.1-0.2,0.1-0.1,0.3-0.1
			c-0.3-0.3-0.8-0.4-1.2-0.5c-0.1,0-0.1,0.1-0.1,0.2c-1-0.2-1.7-1.2-2.6-1.1c-0.2,0.1,0.1,0.2,0,0.3c-0.4-0.4-1.3-0.3-1.4-0.8
			c-0.2,0.1-0.4-0.1-0.6-0.2c0,0.6,1.3,0.6,1.2,1.5c-0.2-0.1-0.4-0.3-0.5-0.5c-0.2-0.1-0.1,0.2-0.3,0.2c-0.7-0.7-1.4-1.5-2.4-2.1
			c0.1-0.3,0.3,0,0.4,0.1c0.1,0,0.1-0.2,0.1-0.4c-0.2,0.1-0.1,0.1-0.1,0c0-0.4-0.5-1.1-0.5-1.5c0.2-0.1,0.1,0.1,0.2-0.2
			c0.3-0.1,0.2,0.4,0.5,0.4c0.1-0.4,0-0.3,0.2-0.1c0-0.4-0.4-0.4-0.6-0.5c0.1-0.1,0.1,0,0.2,0c0-0.4-0.3-0.5-0.5-0.5
			c0.4,0.1,0.2-1-0.3-1.2c0.3-0.3-0.2-0.5-0.3-0.8c0-0.1,0.2,0,0.2-0.2c-0.2-0.2-0.4-0.2-0.6-0.2c0.2-0.2,0.1-0.2-0.1-0.5
			c-0.3,0.4-0.5-0.5-0.8-0.5c-0.2,0.5,0.4,0.6,0.4,1.1c-0.4,0-0.1,0.2-0.2,0.3c-0.4-0.2-0.5-0.8-0.9-1c-0.1,0.1,0.2,0.4,0.2,0.5
			c0,0.1-0.1,0-0.1,0c0.1,0.4,0.4,0.6,0.5,0.9c-0.5-0.2-0.3,0.9-0.8,0.8c0.1,0.4,0.4,0.4,0.5,0.7c0.2,0,0.2-0.1,0.4-0.1
			c0,0.3,0.4,0.2,0.3,0.5c-0.3,0.1-0.2-0.2-0.5-0.2c-0.1,0.2,0.2,0.4,0.2,0.5c-0.5-0.1-0.8-0.8-1.3-1.1c-0.1,0.1-0.1,0.2-0.2,0.2
			c0-0.2-0.1-0.2-0.1-0.3c-0.1,0.1-0.1,0.1-0.2,0.1c0.3,1.1,1.4,1.4,1.8,2.4c-1.2-0.9-2-2.3-3.1-3.3c-0.1,0,0,0.3-0.1,0.4
			c-1.1-0.6-1.2-1.7-1.6-3.1c0.3,0.2,0.4,0.6,0.6,0.8c0-0.2-0.2-0.3-0.1-0.6c0.1,0.1,0.2,0.2,0.2,0.5c0.2-0.1-0.1-0.2,0-0.5
			c0.6,0.4,0.6,1.4,1.2,1.9c-0.1-0.8-0.5-1.2-0.6-2c0.1,0,0.1-0.1,0.1-0.2c0.1,0.1,0,0.4,0.2,0.3c0.1-0.5-0.3-1.1-0.5-1.6
			c0.4-0.1,0.5-0.2,0.8,0.2c0-0.2-0.1-0.2-0.1-0.5c0.2,0.2,0.4,0.5,0.5,0.7c0.1,0.1,0.1-0.1,0.1-0.2c0.4,0.7,0.8,1.3,1.2,1.9
			c-0.1-0.4-0.4-0.5-0.4-1.1c0.1,0,0.1,0.1,0.2,0.1c-0.5-0.9-0.1-2.1-0.7-2.8c0.2-0.4-0.2-0.6-0.2-0.9c-0.2,0.2,0,0.6,0.1,0.8
			c-0.1,0.1-0.4-0.3-0.3-0.5c-0.2-0.1-0.1,0.2-0.4,0.2c0.1-0.4-0.3-0.9-0.3-1.5c0.1,0,0.1,0,0.2,0c0.1-0.6-0.5-0.6-0.4-1.1
			c0.1,0,0,0.2,0.1,0.2c0-0.3-0.2-0.9,0.2-1.2c-0.1-0.1-0.1-0.1-0.2-0.2c0-0.2,0.2-0.1,0.2-0.2c0-0.1-0.2-0.1-0.2,0
			c-0.2-0.1,0.2-0.2,0.1-0.4c-0.2,0-0.2-0.2-0.3-0.4c0.1-0.2,0.1-0.5,0.5-0.5c0,0.6,0.2,0.9,0.3,1.3c0.8-0.2,0.5-0.9,0.8-1.5
			c-0.1,0.1-0.1,0.1-0.2,0.1c0.2-0.1,0.1-0.5,0.3-0.5c0-0.2-0.3,0.1-0.2-0.2c0.1,0,0.1,0,0.2,0c-0.2-0.4-0.1-0.6,0.1-1
			c-0.2-0.1-0.1,0.2-0.2,0.2c-0.2-0.9,0.4-1.3,0.1-2.3c0.2-0.4,0.1-0.6,0.3-0.9c-0.1-0.1-0.2-0.1-0.1-0.2c-0.1,0-0.1,0.1-0.1,0.2
			c-0.1,0-0.1-0.5,0-0.5c0-0.1-0.2-0.1-0.2-0.2c-0.2,0.4,0.1,0.5-0.1,0.8c-0.2-0.2-0.2-0.6-0.3-1c-0.3,0.1-0.1,0.6-0.2,0.8
			c-0.1,0-0.1-0.2-0.2-0.3c0.2-0.3,0.1-0.5,0.1-0.8c-0.2-0.1-0.1,0.1-0.3,0.1c0.1,0.5-0.1,0.7-0.1,1.1c-0.1-0.1-0.1-0.3-0.2-0.4
			c-0.1,0.2-0.2,0.4-0.2,0.8c-0.1-0.2-0.5-0.2-0.5-0.6c-0.2,0.1-0.2,0.1-0.4,0.2c0.1,0.2-0.1,0.3-0.1,0.5c-0.3-0.2,0.1-1.4-0.4-1.5
			c0.2,0.1,0.3-0.6,0.3-1.1c-0.2,0-0.1,0.4-0.2,0.5c-0.3-0.3-0.2-0.6-0.1-1c-0.1-0.3-0.3,0.4-0.2,0c-0.1,0.1-0.1,0.2-0.1,0.5
			c-0.2,0-0.1-0.2-0.2-0.2c0.1,0.5-0.3,0.9-0.3,1.7c-0.2-0.1-0.2-0.1-0.2,0.2c-0.4-0.3,0.4-1-0.1-1.2c-0.1-0.4,0.2-0.3,0.2-0.5
			c-0.6-0.3-0.1,1.5-0.6,2c0.1-0.8-0.2-0.8-0.2-1.4c-0.3,0.1-0.2,0.6-0.2,1c-0.3-0.2,0-1.1-0.1-1.5c-0.1,0.1-0.1,0.5-0.2,0.6
			c-0.2-0.3-0.4-0.3-0.6-0.2c0-0.2,0.1-0.6,0.1-1.1c-0.1,0.2-0.2,0.5-0.2,0.8c-0.1-0.1-0.1-0.1-0.1-0.2c-0.3,0.1,0.1,0.6,0.1,0.4
			c0.1,0.8,0,1.5,0.1,2.2c-0.2,0.1-0.4,0.1-0.5,0.5c-0.3-0.2-0.6,0.3-0.6,0.9c-0.1,0-0.2,0-0.2,0c-0.1-0.1,0-0.5-0.2-0.5
			c-0.2-0.1-0.1,0.2-0.2,0.2c-0.8-0.9-0.2-3.4-0.5-4.9c0.1-0.1,0.2-0.2,0.3-0.2c-0.1,0.9-0.2,1.9-0.1,2.6c0.2-1.2,0.1-2.5,0.6-3.4
			c0.4,0.5,0.5-0.5,0.8-0.6C48.9,18.3,49,18.8,49,20c0.4-0.2,0.3-1.1,0.5-1.6c0.1,0,0,0.3,0.1,0.4c0.8-1.1,0.6-3.2,1.6-4.1
			c0.2,0-0.1,0.1,0,0.3c0.1,0,0.1,0,0.1,0.1c0.4-0.4,0.4-0.9,0.9-1.1c-0.1,0.4-0.1,0.5-0.2,0.9c0.5-0.7,1.1-1.5,1.7-2.1
			c-0.5,0.2-0.8,0.7-1.2,1c0.4-0.7,0.8-1.2,1.7-1.8c-0.1-0.5,0.2-0.5,0.3-0.7c-0.5,0.2-1.4,0.5-1.8,0.9c-0.1-0.2,0.7-0.8,0.5-0.9
			c0-0.1,0.1-0.1,0.1-0.2c0.1,0,0.1,0,0.1-0.1c0.2,0.1-0.1,0.2,0,0.3c0.4,0.1,0.9-0.4,1.2-0.1c0.4-0.5,1.2-0.5,1.4-1.1
			c-0.2-0.1-0.4,0.2-0.5,0.1c0-0.6,0.5-0.4,0.8-0.6c0.2,0.2-0.2,0.2-0.2,0.5c0.3,0,0.4-0.2,0.5-0.3c0.4,0.3-0.3,0.4-0.3,0.8
			c-0.8,0.2-1.3,0.7-1.8,1.2c0,0.1,0.1,0.1,0.1,0.2c0.2,0.1,0.1-0.2,0.3-0.2c-0.3,0.4-0.8,0.5-1.1,1c0.5-0.1,0.8-0.5,1.4-0.5
			c-0.1,0.1-0.2,0.2-0.2,0.4c0.5-0.1,0.9,0,1.2-0.4c0.2,0.1-0.1,0.2-0.1,0.3c0.2,0.1,0.4-0.1,0.6-0.1c0.2,0.2-0.1,0.1-0.1,0.4
			c0.2,0.1,0.5-0.3,0.8-0.2c-0.2-0.2,0.1-0.3-0.1-0.4c0.5-0.4,1.2-0.1,1.9-0.4c0,0.1,0.1,0.1,0.1,0.2c0,0.2-0.3,0-0.2,0.2
			c0.4,0.1,1.2-0.1,1.3-0.7c-0.2,0-0.2,0.1-0.5,0.1c0.1,0.1,0.1,0.1,0.1,0.2c-0.2-0.1-0.1-0.1-0.5-0.1c0.2-0.2-0.1-0.1-0.1-0.3
			c0.1-0.1,0.2-0.1,0.3-0.1c0.1-0.2-0.2-0.1-0.1-0.3c0.3,0,0.5-0.3,0.4-0.8c0.1-0.1,0.2-0.2,0.3-0.2c-0.2-0.2-0.3-0.1-0.1-0.4
			c0-0.1-0.1-0.1-0.1-0.2c-0.2,0-0.3,0.1-0.5,0.1c0.1-0.2,0.2-0.3,0.5-0.3c-0.4-0.2-0.6-0.1-1.2-0.1c0.1-0.2-0.1-0.2,0-0.4
			c0.4,0.5,1-0.5,1.5,0.1c0.2-0.1,0.3-0.4,0.6-0.4c-0.1-0.2-0.1-0.4,0.2-0.4c0.1,0.2-0.1,0.2-0.1,0.3c0.4,0,0.1-0.4,0.2-0.5
			c0.3,0,0.4-0.3,0.6-0.3c-0.2,0.6-0.6,0.9-0.8,1.4c0.9,0.1,1.3-0.5,1.9-1.3c-0.4,0.1-0.4,0.2-0.8,0.2c0.2-0.4,0.7-0.4,0.7-1.1
			C63,7.3,63,7.1,63.4,7c0-0.1-0.4-0.1-0.3,0c0.4-0.9,1.4-0.4,2-1.1c0-0.2-0.5,0.1-0.4-0.2c-0.6,0.2-1.4,0.2-1.7,1
			c-0.6-0.2-0.6,0.4-1.1,0.5c0,0.2,0.2,0.1,0.1,0.4c-0.2-0.4-0.3,0-0.6,0.1c0.2-0.4,0.6-0.5,0.7-1c-0.2-0.4-0.3,0.3-0.7,0.2
			c0.4-0.5,1-1.1,1.4-1.4C62.6,5,63,5,63,4.6c0.2,0.4,0.6-0.1,0.7-0.5c0.2,0.1-0.1,0.2,0,0.3c0.2-0.1,0.4-0.2,0.5-0.5
			c0.4,0.3,1.1-0.2,1.2-0.7c0.3,0.1,0.4-0.1,0.6-0.1c0,0.3-0.3,0.2-0.3,0.5c0.3,0.1,0.2-0.3,0.5-0.3c-0.2,0.2,0.1,0.2,0.3,0.2
			c-0.1,0.1-0.2,0.2-0.2,0.5c0.4-0.2,0.6-0.4,1.1-0.5c0.1-0.2-0.1-0.2-0.1-0.4c0.1-0.1,0.2-0.1,0.3-0.1c-0.1,0.1-0.2,0.2-0.2,0.4
			c0.1,0.1,0.4-0.2,0.5-0.3c0.2,0.1-0.1,0.2-0.1,0.3c0.5,0.2,0.8-0.2,1.4-0.2c0-0.4-0.4-0.1-0.6-0.1C68.8,3,69.6,3,69.4,3.5
			c0.1,0.2,0.1-0.1,0.2,0.1c-0.2,0.4-0.6-0.1-0.9,0.2c0.3,0.1-0.2,0.4-0.4,0.2C68.1,4,68.1,4.3,68,4.4c0.5-0.1,0.8-0.3,1.2-0.2
			c-0.1-0.3-0.2,0.1-0.3-0.2c0.1-0.2,0.3-0.1,0.3-0.4c0.1,0.1,0.4,0.1,0.5,0.2c0.4-0.5,1.2-0.6,1.9-0.6c-0.2,0.2,0,0.3,0.2,0.2
			c-0.1,0.6-1.2,0.2-1.8,0.2c0,0.1,0.1,0.2,0.1,0.3c0.1-0.3,0.2,0.1,0,0.2c0.5,0.2,0.8-0.1,1.3,0.1c0.1,0-0.1,0.1-0.1,0.1
			c0.1,0.4,1.4,0.2,1.6-0.2c0.2,0.3,0.5,0.1,0.6,0.5c0.4-0.2,0.8-0.2,1.4-0.1c-0.3,0.1,0.1,0.2,0.2,0.3c0.2-0.5-0.6-0.5-0.9-0.7
			c0.2,0.2-0.1,0.1-0.1,0.2C74,4.3,74,4.1,73.8,4.1c0-0.1,0.1-0.1,0.1-0.1c-0.3-0.4-0.5-0.4-1.1-0.4c0.1-0.5-0.8-0.4-1.1-0.3
			c-0.1-0.4-0.6-0.1-0.6-0.5c0.1-0.2,0.4,0,0.3,0.2c0.2,0,0.2-0.2,0-0.2c0.4-0.1,0.6-0.1,1.2-0.1C72.6,3,72.6,3,72.6,3.2
			c0.4-0.1,0.6,0.1,1.1-0.1c-0.1-0.3-0.6-0.4-0.3-0.6c-0.3,0.1-0.1,0.3-0.5,0.2c-0.1-0.2,0.3-0.2,0.1-0.4c0.4,0.1,1,0.6,1.4,0.5
			c-0.2,0.2,0.2,0.1,0.2,0.3c-0.2,0.2,0.1,0.4-0.3,0.4c0.2,0.2,0.4,0.2,0.7,0.2c-0.1,0.2-0.2,0.2-0.5,0.2c0.4,0.2,0.7,0,1.2,0.2
			c-0.2-0.2-0.5-0.3-0.6-0.4c0-0.3,0.6,0,0.8,0c0-0.2-0.2-0.1-0.3-0.2c0-0.1,0.1-0.2,0.2-0.2c0-0.2-0.1-0.2-0.2-0.2
			c0.2-0.2,0.6,0,0.8,0.3c0.6-0.2,1.3-0.1,1.2,0.5c-0.2-0.1-0.4-0.2-0.6-0.2c-0.1,0.1,0,0.5-0.1,0.7c-0.1-0.3-0.7-0.3-0.8,0
			c-0.2,0-0.2-0.2-0.4-0.3c0,0.2-0.6,0.1-0.9,0.1c0.2,0.5,0.8,0.4,1.3,0.5c0.1-0.1,0-0.1,0-0.2c0.1-0.1,0.2,0.2,0.2-0.1
			c0.2,0.4,0.3,0.5,0.8,0.5c0-0.2-0.4-0.1-0.3-0.4c0.1,0.1,0.2,0.1,0.3,0.1c-0.2,0.2,0.2,0.2,0.2,0.3c-0.1-0.5,0.4,0.3,0.5-0.3
			c0.2,0,0.6,0.5,0.6,0c0.2,0.2,0.4,0.6,0.8,0.4c-0.1,0.1-0.1,0.1,0,0.2C79.2,5.3,79,5.3,79,5.3c0.3,0.1,0.2,0.1,0.5,0.2
			c0.1-0.1-0.2-0.2-0.1-0.5c0.3-0.1,0.1,0.4,0.4,0.4c0.1-0.1-0.2-0.1,0-0.3c0.1,0.2,0.5,0.4,0.6,0.2c0.4,0.4,0.8,0.5,1.2,0.4
			c0.1,0.4,0.3,0.8,0.7,0.9c-0.1-0.3-0.2-0.4-0.5-0.5c0.1-0.4,0.4,0.1,0.5,0.2c0.1,1,1.1,1.1,1.7,1.5c-0.1-0.2-0.5-0.2-0.5-0.5
			c0.4,0.4,0.7,0.2,1.2,0.5c0.1-0.1,0.1-0.2-0.1-0.3c0.1-0.2,0.4-0.1,0.5-0.1c-0.1-0.1-0.1-0.1,0-0.2c-0.2-0.2-0.5-0.5-0.8-0.6
			c0.1-0.1,0.8,0.4,0.9,0.2c-0.2,0.1,0,0.4,0.3,0.5c0.1-0.1-0.1-0.2,0.1-0.5c-0.1-0.1-0.2-0.2-0.4-0.2c0.2-0.2,0.5,0.2,0.8,0.3
			C86.1,7,85.9,6.9,85.8,7c-0.1,0.2,0.2,0.1,0.1,0.3c0.4,0.4,0.8,0.4,1.3,0.7c0.1-0.2-0.4-0.4-0.3-0.7c-0.6,0.1-0.5-0.6-0.9-0.7
			c0.1-0.5,0.5,0.1,0.7-0.3C86.8,6.7,87,6.9,87.4,7c-0.4,0.2,0.1,0.4,0.4,0.5C87.8,7.9,88.1,8,88.4,8c0.1,0.2-0.1,0.1-0.2,0.2
			c0,0.5,0.6,0.4,0.8,0.6c-0.1,0.2-0.4,0.1-0.5,0c-0.2,0,0,0.3,0.1,0.3c-0.4,0.2-0.6,0.2-0.7,0.5c0.1,0.2,0.3,0.2,0.2,0.5
			c0.2-0.2,0.5,0,0.7,0.2c0-0.3-0.3-0.2-0.2-0.6c0.2,0,0.2,0.1,0.5,0.1c0.1,0.1,0.1,0.2,0.1,0.3c-0.1,0.2-0.1,0.4-0.4,0.4
			c0.1,0.2,0.2,0.3,0.4,0.5c0.1-0.1,0.1-0.2,0.2-0.1c0-0.2-0.1-0.2-0.1-0.5c0.2,0,0.2,0.3,0.5,0.2c-0.1-0.4-0.8-0.5-0.6-1
			c0.1,0.1,0.2,0.2,0.2,0.4c0.2-0.1,0.4-0.1,0.5,0.2C89.9,10.1,90,10,90,9.9c0.3,0.1,0.4,0.3,0.5,0.3c0.1,0,0.1-0.2,0.1-0.3
			c-0.1-0.1-0.4-0.1-0.2-0.4c-0.1,0.6-0.7-0.2-0.8,0.4c-0.1,0-0.1-0.1-0.1-0.1c0-0.1,0-0.1-0.1-0.1c0.1-0.2,0.6-0.2,0.8-0.1
			c0-0.2,0-0.3-0.1-0.4c-0.1,0-0.1,0.1-0.1,0.2c-0.1-0.1-0.3-0.1-0.2-0.4C90,9.5,90.4,9,90.7,9.3c0.1-0.1,0.1-0.2,0.1-0.4
			C90.9,9,91.1,9.2,91,8.9c0.3,0.1,0.4,0,0.5,0.3c0.3-0.5,0.9,0.2,1.2-0.2c-0.1,0.3,0.3,0.8,0.5,0.6c0.1,0-0.1,0.5-0.2,0.5
			c0.1,0.4,0.5,0.2,0.5,0.7c0.1-0.1,0.1-0.1,0.1,0c0.1,0,0.1-0.2,0.1-0.3c0.2,0.1,0.2,0.3,0.5,0.2c0,0.1,0,0.2,0.1,0.2
			c-0.1,0.4-0.2-0.2-0.3,0.2c-0.2,0-0.3-0.2-0.6-0.2c-0.1,0.2-0.4,0.2-0.5,0.5c0,0.2,0.2,0.3,0.2,0.4c0.2,0-0.1-0.1,0-0.3
			c0.1,0.1,0.3,0.3,0.4,0.1c0.1,0.1,0.3,0.2,0.2,0.5c0.2-0.2,0.1-0.3,0.5-0.4c0-0.2,0-0.3-0.1-0.3c0.4-0.2,0.3,0.7,0.8,0.6
			c0.2,0.5,0.3,0.5,0.6,0.9c-0.2,0.2-0.5-0.4-0.8-0.5c-0.1,0.3,0.1,0.3,0.1,0.5c-0.2-0.1-0.2,0-0.5,0c-0.2-0.4-0.4-0.8-0.8-0.8
			c0.1,0.3,0.1,0.2,0.1,0.5c-0.2-0.2-0.3-0.5-0.5-0.7c-0.1,0.2,0.2,0.6,0,0.9c0.4-0.4,0.6,0.5,0.9,0.2c-0.1,0.3-0.4,0.1-0.2,0.5
			c-0.2,0.1-0.2-0.1-0.3-0.2c0.2,0,0.1-0.2-0.1-0.3c0.1,0.4,0.1,0.6,0.3,0.8c0.1,0,0.1-0.1,0.1-0.2c0.1,0.3,0.2,1.1,0.6,0.8
			c-0.1,0.2,0.1,0.6,0.2,0.8c-0.2-0.1-0.7,0.2-0.9,0c-0.1,0.2,0.1,0.2,0.1,0.4c0.3-0.5,0.6,1.1,0.9,0.3c0.2,0.5,0.2,0.7,0.3,1.3
			c-0.1-0.1-0.4-0.1-0.2,0.2C94.8,17,94.1,16.7,94,16c-0.1,0.7,0,1.4,0.2,2.1c-0.1-0.1-0.1-0.2-0.2-0.2c-0.1,0.4,0.1,0.7,0.1,1.2
			C94,19.1,94,19,93.9,19c0.1,0.4,0.1,0.8,0.3,1.1C94.2,20.3,94.1,20,94,20c-0.1,0.4,0.4,1.1,0.2,1.8c0.4-0.3,0.3-1.1,0.2-1.6
			c0.5,0.3,0.2,1.1,0.3,1.8c0.4-0.3,0.1-1.4,0.2-1.8c0.3,0.4,0.2,1.1,0.5,1.5c-0.2,0-0.1-0.1-0.2,0c-0.1,0.4,0.2,0.4,0.2,0.8
			c-0.1-0.3-0.1,0.1-0.2,0.2c0.1,0.1,0.2,0.1,0.1,0.2c-0.1-0.1-0.1-0.1-0.2,0c0.1,0.2-0.1,0.4-0.1,0.6c0.1,0.2,0.3,0,0.4,0
			c0,0.9-0.5,1.2-0.8,1.8c0-0.4,0.5-0.9,0.5-1.5c-0.4,0.5-0.6,1.2-0.9,1.8c0.1,0.2,0.3-0.3,0.4,0.1c0.1,0.3-0.3,0.1-0.3,0.2
			c0.2,0.1,0.4,0.5,0.6,0.5c0.1,0.2-0.1,0.2-0.1,0.5c0,0.2,0.4,0.1,0.3-0.1c-0.1,0.4-0.8,0.9-0.8,1.4c-0.3,0.1-0.4,0.4-0.6,0.4
			c0.1-0.1,0.2-0.5,0.4-0.3c-0.2-0.2,0.2-0.4,0-0.5c0,0,0.5-0.1,0.1-0.2c0.1-0.1,0.4,0,0.5-0.3c-0.2-0.2,0-0.8-0.4-0.9
			c-0.1,0.1-0.1,0.4-0.3,0.2C94,26.3,94,26,94,25.7c-0.5,0.2-0.3,0.6-0.5,1c-0.3-0.3-0.3-0.7-0.3-1.1c0.1-0.1,0.4-0.1,0.4-0.3
			c0.1,0.1,0.2,0.1,0.2,0.4c0.2-0.3,0.3-0.5,0.2-0.9c0.3-0.2,0.6-0.8,0.5-1.3c-0.2,0.3,0.1,0.7-0.5,0.9c0-0.5,0.4-0.7,0.2-1.3
			c-0.2,0.4-0.4,0.8-0.3,1.2c-0.1,0-0.1-0.1-0.2-0.1c0,0.1,0.1,0.1,0.1,0.2c-0.4,0.3-0.6,0.8-0.8,1.4c-0.2-0.2-0.4,0.1-0.4,0.5
			c-0.4-0.5-0.2,0.2-0.3,0.6c-0.1-0.4-0.4-0.1-0.6,0.1c0.1,0.2,0.5,0.1,0.2,0.5c0.1,0.1,0.1-0.1,0.1-0.2c0.1,0.3,0.4,0.6,0.3,1.1
			c-0.1,0.1-0.2-0.1-0.3,0.2c-0.2-0.1,0-0.6-0.1-0.7c-0.1,0.3-0.1,0.8-0.5,0.8c0.1,0.3,0.2,0,0.5,0.1c-0.2,0.2-0.1,0.2,0.2,0.2
			c0,0.1,0.1,0.2,0.1,0.3c-0.1-0.1-0.1-0.1-0.2-0.1c0.2,0.4-0.1,0.8-0.1,1.2c0.2,0.1,0.2-0.1,0.5-0.1c0.1,0.2-0.1,0.3-0.1,0.5
			c-0.2-0.1-0.3,0.1-0.4,0c-0.2,0.2-0.2,0.6-0.6,0.6c0,0.2,0.3,0.1,0.5,0.1c0,0.4,0,0.7-0.2,0.8c-0.2-0.1,0.1-0.3-0.1-0.4
			c-0.1,0.2-0.5,0-0.5,0.2c0,0.1,0.1-0.1,0.2,0c-0.3,0.1-0.5,0.6-0.9,0.4c-0.1-0.2,0.2-0.1,0.2-0.2c-0.5-0.2-0.8,0.4-0.9,0.8
			c0.1,0.2,0.2-0.1,0.3,0c0,0.2-0.2,0.1-0.1,0.3c0.3,0,0.3-0.3,0.6-0.3c0-0.2-0.3,0.1-0.2-0.2c0.2-0.3,0.8,0.4,1.2,0
			c0.1-0.2-0.2-0.2-0.1-0.4c0.5,0,0.7-0.4,1.1-0.6c-0.1-0.2,0-0.4,0.1-0.6c0.1,0.1,0.4,0.1,0.6,0.1c-0.1,0.1-0.1,0.2,0,0.3
			c0.2-0.1,0.3-0.2,0.5-0.2c0,0.2-0.1,0.2-0.2,0.2c0.4,0.2,0.7-0.2,1.1-0.3c-0.2-0.1,0.6-0.6,0.8-0.9c-0.1-0.1-0.2-0.1-0.2-0.2
			c0.1-0.3,0.4-0.3,0.5-0.6c-0.5,0.2-1.1,1.1-1.8,1.3c0.6-0.5,1.1-1.1,1.8-1.5c0-0.1,0-0.2,0-0.4c0.2-0.1,0.2-0.3,0.5-0.2
			c-0.1,0.2-0.1,0.2-0.3,0.2c0.1,0.1,0.1,0.2,0.1,0.4c0.2-0.1,0.4-0.4,0.7-0.5c-0.1-0.4,0.2-0.2,0.4-0.5c-0.1-0.5,0.4-0.8,0.5-1.3
			c-0.2-0.4-0.4,0.4-0.7,0.2c-0.2,0.1-0.2,0.4-0.2,0.7c-0.2,0-0.3,0-0.2,0.2c-0.2-0.1,0.1-0.4,0-0.5c-0.4,0-0.7,0.2-0.9,0.6
			c0,0.2,0.2,0.2,0.3,0.2c-0.1,0.2-0.1,0.2-0.2,0.4c0.3-0.1,0.4-0.4,0.6-0.5c-0.1,0.2-0.5,0.7-0.8,0.9c0.2-0.4-0.2-0.5-0.1-0.9
			c-0.2,0.1-0.5,0.2-0.6,0.5c0.1-0.9,1.2-1.7,1.3-2.7c-0.1,0.2-0.2,0.4-0.2,0.5c-0.2-0.1,0.1-0.5,0.1-0.7c0.5,0.2,0.8-0.8,0.9-1.6
			c-0.4-0.1-0.3,0.2-0.6,0.2c0.1-0.5,0.2-1.3,0.2-2c0.2,0.1,0.2,0.4,0.3,0.4c0,0.4-0.3,0.4-0.2,0.8c0.1,0,0.3,0.2,0.1,0.5
			c0.6,0,0.2-1.2,0.6-1.5c-0.1,1.1-0.3,2.1-0.5,3.3c0,0.2,0.5-0.1,0.3,0.3c0.1-0.1,0.2-0.5,0.4-0.3c0.1-0.4,0.1-0.8,0.2-1
			c0.1-0.1,0.1,0.1,0.2,0.2c-0.1,0.4-0.2,0.5-0.2,0.9c0.5-0.2,0.6-1.4,0.4-1.8c-0.3,0.1,0,0.3,0,0.5c-0.4-0.1-0.4-0.2-0.7,0.1
			c-0.2-0.2,0.2-0.8-0.1-0.7c0-0.2,0.1-1.2,0.1-1.5c0-0.9,0.1-0.1,0.1,0.4c0.1,0.1,0.1,0,0.3,0c0.1,0.2-0.1,0.2-0.1,0.5
			c0.1,0.1,0.2-0.1,0.1-0.2c0.1-0.2,0.1,0,0.2-0.2c-0.1-0.4,0.1-0.6,0.1-1.1c0.1,0,0.2,0.1,0.2,0c0.1,0,0,0.4,0.1,0.4
			c0.4-0.2,0.6-0.4,0.9-0.5c-0.1-0.1-0.1-0.4-0.1-0.5c-0.1-0.2-0.1,0.2-0.2,0.1c0-0.2,0-0.4-0.1-0.5c-0.2,0.1,0,0.2-0.1,0.5
			C98.4,21,98,21,98,20.6c0.2-0.1,0.1,0.2,0.2,0.2c0.2-0.9-0.1-1.2-0.1-1.9c0.2-0.1,0.7,0.4,0.8-0.1c0.9,0,0.4,1.4,0.8,1.8
			c0,0.4-0.1,0.6-0.4,0.6c0-0.7,0.4-1.4-0.2-1.7c-0.1,0-0.1,0.1-0.1,0.1c0.1,0.4,0.1,0.9,0.3,1.1c-0.3,0.1,0.1,0.6-0.2,0.6
			c0.3,0.5,0.1,0.7,0,1.3c0.1,0.1,0.1,0.1,0.2,0.2c0.2-0.2,0-0.7,0.1-1c0.6,0.4-0.1,1.1-0.2,1.5c0.3-0.3,0.5,0.1,0.6-0.3
			c0.2,0.2-0.1,1.4-0.5,1.1c-0.1,0.3,0.1,0.4,0.2,0.5c-0.1,0.2-0.1,0.5-0.2,0.6c0.3,0.8-0.7,1.2-0.5,2.1c-0.3,0.1-0.2,0.3-0.3,0.6
			c-0.4,0.1-0.8-0.2-1.1,0.1c0.2,0.2,0.4,0.2,0.6,0.4c0.1,0,0.1-0.1,0.1-0.1C97.1,28.4,96.5,29.2,95.9,29.5z M96.7,28.7
			c-0.1-0.1-0.4,0-0.3-0.3c-0.4,0.4-0.5,0.3-0.8,0.6C95.9,29.2,96.4,29,96.7,28.7z M60.1,12.2c0.3,0.1,0.7-0.2,0.5-0.5
			c0,0.1-0.1,0.1-0.1,0C60.3,11.8,60.2,11.9,60.1,12.2z M64.6,5.1c0.1,0,0.2,0,0.2-0.1C64.6,5,65,5,64.9,4.8
			c-0.5,0.4-1.5,0.5-1.8,1.1C63.6,5.6,64.3,5.8,64.6,5.1z M87.1,9.3c0.2-0.1,0.4,0.1,0.6,0.1C87.8,9,87.2,9,87.1,9.3z M98.4,24.2
			c0.1-0.2,0.1-0.5,0.1-0.7C98.4,23.5,98.1,24,98.4,24.2z M98.1,24.8c-0.1,0.2-0.2,0.4,0,0.4C98.2,25.1,98.4,24.9,98.1,24.8z
			 M97.9,18.6c0.1,0.5-0.1,0.8,0.1,1.1c0-0.1,0.1-0.1,0.1-0.1C98.1,19.1,98.2,18.8,97.9,18.6z M97.9,23.4c-0.2,0.1-0.4,0.9-0.5,1.4
			C97.7,24.4,98,23.8,97.9,23.4z M97.2,25.6c0.1-0.1,0.4-0.6,0.2-0.7C97.4,25.2,97,25.4,97.2,25.6z M95.9,26
			c-0.3-0.1-0.3,0.4-0.3,0.6c0.1-0.1,0.2,0.2,0.2,0C95.8,26.5,95.8,26.2,95.9,26z M95.1,26.4c0.2-0.2,0.5-0.3,0.5-0.7
			C95.4,25.9,95.1,26.2,95.1,26.4z M94.3,22c0.2,0,0.2-0.3,0.2-0.4C94.4,21.6,94.2,21.9,94.3,22z M93.1,16c0.2,0.1,0.1,0.5,0.4,0.5
			c0.1-0.1,0.1-0.4,0.1-0.5c-0.2-0.1-0.2,0.1-0.3,0.1C93.2,16,93.1,15.8,93.1,16z M92.8,17.3c0.2-0.6-0.5-1.1-0.6-1.8
			c-0.3,0-0.4,0.4-0.6,0.1c-0.2,0.6,0.4,1.1,0.6,1.2c-0.1,0-0.2-0.3-0.1-0.3c0.5,0.5,0.6,1.5,1.2,2.1C93.3,18.1,93.1,17.5,92.8,17.3
			z M92.7,18.8c0.1,0.5,0.2,0.8,0.6,1c0.2-0.5-0.3-0.8-0.5-1.1c-0.2-0.4-0.1-0.8-0.4-1.2c0,0.2,0,0.4,0.1,0.6
			c-0.2,0-0.1-0.3-0.2-0.3c-0.1,0.2,0.1,0.2,0.1,0.5c0.1,0.1,0.2-0.2,0.2,0C92.4,18.7,92.6,19.4,92.7,18.8z M92.6,19.1
			c0.1,0.4-0.1,0.5-0.2,0.6c-0.2-0.2,0-0.5-0.2-0.6c0,0.1,0,0.2-0.1,0.2c0,0.5,0.5,0.8,0.4,1.1c-0.1,0-0.1-0.1-0.1-0.2
			c0,0.1-0.2,0.1-0.1,0.4c0.3-0.2,0.4-0.1,0.5,0.3c0.1-0.1,0.2,0.2,0.2,0C92.8,20.5,93,19.6,92.6,19.1z M92.8,15.1
			c0.1,0.3,0.1,0.6,0.3,0.6C93.2,15.4,93,15.2,92.8,15.1z M93,18.3c-0.1,0.2,0.1,0.3,0.2,0.4C93.2,18.5,93.2,18.3,93,18.3z
			 M92.7,11.2c0,0.1,0,0.2,0,0.4c0.1,0,0.1,0.1,0.2,0.1C92.9,11.4,92.9,11.3,92.7,11.2z M92.5,31.3c0.2,0,0.5-0.1,0.5-0.3
			C92.8,31,92.6,31.1,92.5,31.3z M92.7,13.1c-0.1,0-0.1,0.1-0.2,0.2c-0.1,0-0.1-0.1-0.2,0c0.2,0.1,0.2,0.4,0.5,0.3
			C92.9,13.2,92.7,13.3,92.7,13.1z M92.6,12.1c0-0.1,0.1-0.1,0.2-0.1c0.1-0.3-0.4-0.5-0.4-0.2C92.4,11.9,92.5,11.9,92.6,12.1
			C92.5,11.9,92.5,12.2,92.6,12.1z M92.1,14c0.3,0,0.3,0.4,0.5,0.5c0.1-0.4-0.1-0.5,0.1-0.8c-0.2-0.3-0.6-0.3-0.6-0.8
			c0.1-0.1,0.3-0.2,0.2-0.5c-0.2-0.1-0.4-0.1-0.3-0.3c0.1,0.2,0.2-0.1,0.4,0c-0.2-0.5-0.1-0.7-0.5-1.1c0,0.2,0.2,0.4-0.1,0.5
			c-0.2-0.2-0.6-0.3-0.8-0.5c-0.1,0.3,0.2,0.1,0.1,0.4c-0.2-0.2-0.3,0-0.5,0.1c-0.1-0.1-0.1-0.1-0.2-0.2c0.1,0,0.2,0,0.2-0.2
			c-0.3-0.3-0.8-0.6-1.1-0.8c0.2,0.4,0.6,0.5,0.8,0.8c-0.1-0.1-0.2-0.2-0.4-0.2c0,0.4,0.3,0.5,0.4,0.8c-0.4-0.3-0.6-1.2-1.1-1.1
			c0.4,0.6,0.6,1.2,0.9,1.8c0.5-0.3,1,0.9,1.5,0.8c-0.2-0.1-0.2,0.2-0.2,0.4c0.1,0.2,0.3,0.3,0.4,0.5c-0.3-0.2-0.6-0.4-0.8-0.7
			c0-0.4-0.2-0.6-0.5-0.7c0,0.2,0.4,0.5,0.2,0.6c-0.2,0-0.1-0.3-0.3-0.2c0,0.4,0.1,0.5,0.2,0.8c0.1-0.1,0.1-0.4,0.3-0.4
			c0,0.3,0.3,0.4,0.3,0.7c-0.1-0.1-0.2-0.2-0.3-0.2c0.2,0.5,0.6,0.8,0.8,1.4c0.1-0.2-0.1-0.3,0-0.6c0.1,0,0.2,0.3,0.2,0.1
			c-0.1-0.3-0.7-0.4-0.6-0.7c0.2,0.2,0.3,0.1,0.6,0.3C92.3,14.4,92,14.1,92.1,14z M92,24.8c0.3-0.1,0.4-0.4,0.5-0.8
			c-0.4,0.1,0-0.3-0.2-0.4c0,0.5-0.2,0.6-0.5,0.8c0-0.2-0.3-0.1-0.5-0.2c0.1,0.4-0.1,0.4,0,0.6c0.1-0.1,0.4,0.3,0.5,0.4
			c0.2-0.2,0-0.7,0.4-0.8C92.3,24.6,92,24.6,92,24.8z M91.7,10.2c0-0.2-0.1-0.2-0.1-0.2c0.2-0.2,0.4,0.1,0.6,0.2
			c0.1-0.2-0.1-0.4,0-0.4c0.1,0.1,0.1,0.2,0.2,0.2c0.1-0.4-0.2-0.4-0.2-0.6c0.1,0,0.1,0.1,0.2,0.2c0.1-0.2-0.1-0.2-0.1-0.4
			c-0.4,0.2-0.8,0-1.1,0c-0.1,0.1,0,0.4-0.1,0.4c-0.1-0.2-0.2-0.4-0.5-0.4c-0.1,0.1,0.1,0.6,0.2,0.8c0-0.4,0,0.1,0.2,0
			c0.1,0,0.1-0.2,0.2-0.2c-0.1,0.1,0.2,0.8,0.3,0.7C91.3,10.3,91.6,10,91.7,10.2z M91.2,16c0,0.1,0,0.1,0,0.2c-0.1,0-0.1,0-0.1,0.1
			c0.4,0.1,0.4,0.8,0.7,1.1C91.8,16.8,91.7,16.1,91.2,16z M91,29.2c0.2,0,0.4-0.1,0.5-0.2C91.2,28.8,91,29,91,29.2z M90.6,14.5
			c0.1,0.2,0.2,0.8,0.5,0.5C90.9,14.9,90.6,14.3,90.6,14.5z M90.4,15.9c-0.1,0.3,0.2,0.2,0.2,0.4c-0.1,0.1-0.2-0.2-0.2,0
			c0.2,0.1,0.3,0.2,0.5,0.3c0,0.1,0,0.2,0.1,0.2c0-0.1,0-0.2,0.1-0.2c-0.1-0.3,0-0.7-0.3-0.7c0.2-0.1,0.2,0.1,0.4-0.1
			c0.1-0.3-0.3-0.2-0.1-0.5c-0.3-0.1,0,0.4-0.2,0.4c0-0.3-0.4-0.5-0.6-0.5c0.1,0.1-0.1,0.2,0.1,0.4c-0.1,0.2-0.2-0.1-0.3,0.1
			c0.2,0.1,0.2,0.2,0.3,0.3c0-0.1,0.1-0.2,0.1-0.1C90.3,15.9,90.4,16,90.4,15.9z M91,28.4c-0.1-0.2,0.1-0.2,0.1-0.4
			C90.9,27.9,90.7,28.3,91,28.4z M90,10.3c0.1,0.1,0.2,0.2,0.2,0.3c0.2-0.2,0.6,0.4,0.8,0.2C90.7,10.6,90.2,10.3,90,10.3z
			 M90.6,17.6c0.2-0.1,0.2,0.2,0.3-0.1c-0.1-0.2-0.2,0-0.3-0.2c0.2-0.2-0.2-0.4-0.1-0.7c-0.5,0-0.2-0.5-0.6-0.5
			c0,0.2,0.2,0.2,0.1,0.5c0.8,0.2,0.3,1.7,0.9,2.2C91,18.3,90.7,17.9,90.6,17.6z M90.7,24.8c0,0.1,0,0.2-0.1,0.2
			c-0.1,0-0.2,0.1-0.2,0.2c0.4,0.2,0.2,0,0.5,0.2C90.9,25.2,91.2,24.9,90.7,24.8z M90.4,31c0.2-0.1,0.3-0.3,0.5-0.4
			C90.7,30.7,90.6,30.8,90.4,31z M90.3,30.1c0.1-0.2,0.2-0.4,0.3-0.6c-0.1,0-0.2,0-0.2,0c-0.1,0.2-0.1,0.5-0.2,0.7
			c0.1,0,0.2,0,0.2,0.2c-0.2-0.2-0.3,0-0.4,0.2c0-0.5-0.2-0.7,0.1-0.9c0-0.4-0.1-0.5-0.1-0.7c-0.1,0.2-0.2,0.4-0.3,0.5
			c-0.1-0.2,0.1-0.3,0-0.5c-0.2,0-0.2,0.3-0.3,0.4c0.1,0.1,0.1,0.1,0.2,0.2c-0.1,0.1-0.3,0.4-0.1,0.5c-0.1,0-0.1-0.1-0.2-0.1
			c0,0.4-0.2,0.6-0.2,0.7c0.2,0,0.4-0.1,0.6-0.3c-0.1,0.4,0.4,0.2,0.5,0.4C90,30.7,90,30.9,90,31c0.4-0.1,0.5-0.4,0.7-0.6
			C90.6,30.3,90.3,30.3,90.3,30.1z M90.2,28.9c0.1-0.2,0.1-0.3,0.1-0.5C90.2,28.3,90.1,28.8,90.2,28.9z M90.2,13.6
			c-0.2-0.1-0.1,0.2-0.1,0.4C90.3,13.9,90.2,13.8,90.2,13.6z M90,12.4c-0.1-0.5-0.8-0.5-0.8-1.1c-0.4-0.1-0.6-0.4-0.9-0.5
			c-0.1,0.6,0.4,0.6,0.6,0.9c0.1,0-0.1-0.1,0.1-0.2c0.1,0.1,0.2,0.1,0.3,0.1c-0.1,0.4,0.4,0.4,0.5,0.6c-0.2,0.1-0.2-0.1-0.2-0.2
			c0.1,0.2,0.2,0.8,0.5,0.6c-0.1-0.1-0.2-0.4-0.1-0.4C89.9,12.3,89.9,12.4,90,12.4z M89.3,13.2c0.2,0.2,0.2,0.5,0.6,0.5
			c0-0.2-0.1-0.2-0.1-0.4C89.6,13.4,89.4,13.1,89.3,13.2z M88.9,36.9c0.2-0.1,0.4-0.2,0.5-0.5C89.1,36.5,89.1,36.8,88.9,36.9z
			 M88.9,13.2c0.1,0.4,0.1,0.8,0.5,1C89.3,13.6,89.1,13.4,88.9,13.2z M88.9,29.5c-0.1-0.1-0.4-0.2-0.4-0.1c0.1,0.2-0.7,1.2-0.4,0.5
			c-0.2,0.1-0.4,0.1-0.4,0.4c0.5,0.1-0.2,0.3,0.1,0.5c0.6-0.4,0.9-0.9,1.5-1.1c-0.1-0.2,0.1-0.5-0.1-0.5
			C89.1,29.4,89.1,29.2,88.9,29.5z M88.6,30.8c0.2,0,0.3-0.1,0.2-0.4C88.7,30.4,88.6,30.6,88.6,30.8z M87.9,12.5
			c-0.2,0.1-0.3,0.1-0.2,0.4c0.2,0.2,0.6,0.6,0.9,0.5C88.4,13.1,87.7,13.1,87.9,12.5z M87.6,38.3c0.1,0.2-0.1,0.2,0.1,0.3
			c0.3-0.3,0.3-0.6,0.6-0.8C87.9,37.9,87.8,38.2,87.6,38.3z M87.5,11.3c-0.1-0.7-0.4-1.2-0.9-1.4c0.1,0.2-0.2,0.3-0.2,0.2
			c0.1,0,0.1-0.1,0-0.1C86,10.9,87.1,10.9,87.5,11.3z M87.7,11c0.1-0.5-0.2-1-0.6-1.1C87.4,10.2,87.3,10.9,87.7,11z M86.8,8
			c0.2,0.3,0.6,0.3,0.8,0.5c-0.1-0.2,0.2-0.1,0.1-0.4c-0.3,0-0.5-0.1-0.7-0.3c0.1,0,0.1-0.2,0-0.1C87,7.9,86.8,7.9,86.8,8z
			 M87.2,12.2c0.2-0.1,0.1,0.2,0.1,0.3c0.2,0,0.2-0.1,0.2-0.3C87.6,12.1,87.3,12,87.2,12.2z M87,39.2c0.1,0,0.1,0,0.1,0
			c0,0.1,0,0.1,0.1,0.1c-0.1-0.3,0.3-0.2,0.2-0.5C87.3,38.9,87,38.9,87,39.2z M86.5,35.9c0.1-0.2,0.4-0.4,0.2-0.5
			C86.7,35.5,86.3,35.6,86.5,35.9z M86.8,11.9c-0.1,0-0.1,0.1-0.2,0.2c-0.1-0.2-0.4-0.2-0.2-0.5c-0.2-0.1-0.3-0.1-0.5,0
			c0-0.1,0.1-0.2-0.1-0.2c-0.1,0.6,0.3,0.7,0.4,1.1c0.2-0.1,0.2-0.2,0.5-0.1C86.5,12.2,86.8,12.2,86.8,11.9z M86,10.6
			c0.1-0.3,0-0.6-0.3-0.7c0,0.4,0.2,0.1,0.2,0.4c-0.4,0.4-0.1,0.9,0.3,1c0.1-0.2-0.2-0.3,0-0.3c0.2,0.2,0.3,0.4,0.5,0.5
			C86.5,11.2,86.3,10.6,86,10.6z M86.3,8c-0.1,0.3,0.4,0.5,0.4,0.4C86.4,8.3,86.5,7.9,86.3,8z M86.3,8.5c-0.1,0.2,0.1,0.4,0.2,0.3
			C86.5,8.6,86.3,8.6,86.3,8.5z M85.9,7.2c-0.1,0-0.1-0.1-0.1-0.2c-0.4-0.1-0.5,0-0.8,0.2c0.2,0.5,0.7,0,0.9,0.6
			C86,7.6,85.6,7.4,85.9,7.2z M84.9,38.2c0.2-0.4,0.9-0.5,0.9-0.8C85.6,37.5,84.7,37.6,84.9,38.2z M85.7,36.9
			c-0.2,0-0.3,0.1-0.4,0.3C85.5,37.2,85.6,37,85.7,36.9z M84.6,8c0.2-0.1,0.4,0.5,0.8,0.3c-0.2-0.4-0.5-0.6-0.7-0.9
			c-0.1,0.3-0.2,0-0.4,0.1c-0.1,0.4,0.4,0.2,0.4,0.4C84.6,7.9,84.5,8,84.6,8z M84.9,40.6c0.1,0,0.1,0.1,0.1,0.2
			c0.1-0.2,0.4-0.1,0.5-0.3C85.2,40.5,85,40.6,84.9,40.6z M85.1,38.5c-0.4,0.1-0.1,0-0.2-0.2c0,0.1-0.1,0.1-0.2,0.1
			c-0.1,0.5-0.8,0.3-0.9,0.8C84.2,38.9,84.9,39,85.1,38.5z M85.2,38.5c-0.2,0.1-0.5,0.4-0.6,0.5C84.9,39,85.1,38.8,85.2,38.5z
			 M83.9,42.5c0.1,0.5,0.8,0.3,0.8-0.2C84.5,42.4,84.2,42.5,83.9,42.5z M83.6,40.1c0,0.3,0.3,0.2,0.4,0.1
			C83.9,40.1,83.8,40.1,83.6,40.1z M83.5,42.7c-0.3,0-0.6,0.4-0.9,0.2c0.1,0,0.2-0.1,0.1-0.2c-0.4,0.4-1,0.1-1.3,0.5
			C82,43,82.8,43.4,83.5,42.7z M81.9,43.8c0.1,0.2,0.2,0.2,0.2,0.4c0.6-0.1,1.1-0.5,1.5-1c-0.1,0-0.1-0.1-0.2-0.1
			c-0.1,0.1,0,0.3-0.1,0.3c-0.4-0.1-0.7-0.1-0.9-0.2c-0.1,0.5,0.6,0.2,0.6,0.4C82.7,43.8,82.4,43.8,81.9,43.8z M79.8,6.2
			c0-0.1,0.1-0.1,0.1-0.2c-0.4-0.1-0.6-0.3-0.5-0.6c-0.2,0-0.5-0.1-0.6,0.2c0.2,0.2,0.6,0.1,0.6,0.5c-0.1,0-0.2,0-0.2,0.1
			c0.1,0.1,0.1,0.4,0.2,0.5c0-0.1,0-0.2,0.1-0.2c0.1,0.2,0.2,0.3,0.5,0.3c0-0.3-0.3-0.2-0.4-0.4C79.8,6.3,79.5,6.1,79.8,6.2z
			 M77.6,43.6c0.5,0,1.3,0,1.5-0.5C78.8,43,78,43,77.6,43.6z M74.2,3.2c-0.1,0-0.1,0.1-0.2,0.1c0,0.1,0,0.1,0,0.2
			c0.2,0,0.3,0.1,0.5,0.2C74.5,3.3,74,3.5,74.2,3.2z M72.8,43.4c0.1,0.1,0.5,0.2,0.6,0C73.3,43.4,72.9,43.1,72.8,43.4z M71.7,43.4
			c0.2,0.1,0.7,0.3,0.9,0C72.3,43.5,72,43.3,71.7,43.4z M70,42.8c0.5,0.2,1.1,0.5,1.6,0.4c0-0.1,0.1-0.1,0.1-0.2
			C71,43.1,70.5,42.6,70,42.8z M71.1,43.7c0.1,0,0.5,0.2,0.5-0.1C71.4,43.6,71.1,43.5,71.1,43.7z M69.5,5.2c0.2-0.1,0.2,0.4,0.3,0.1
			c-0.1,0-0.1,0-0.1-0.1c0.1,0,0.1,0,0.1-0.1C69.8,5,69.6,5.1,69.5,5.2z M69.4,4.1c0.1-0.1,0.2,0,0.5,0C69.9,3.8,69.1,4,69.4,4.1z
			 M66.3,39.2c0.7,0.5,1.5,1,2.4,1.3c-0.1-0.3,0.2-0.1,0.2-0.2C67.9,40.2,67.3,39.2,66.3,39.2z M67.3,5.3c0,0.1-0.1,0.1-0.1,0.3
			c0.5-0.3,1.1-0.1,1.5-0.5c-0.4-0.1-0.5,0-0.8-0.1C67.8,5.3,67.5,5.6,67.3,5.3z M66.5,5.1c-0.1,0.1-0.1,0.2-0.1,0.4
			C66.7,5.4,67,5.4,67,5.1C66.8,5.2,66.7,5.3,66.5,5.1z M65.9,6.4c0.2-0.1,0.4-0.1,0.4-0.3C66,6,65.9,6.1,65.9,6.4z M64.3,44.9
			c0.5,0.1,1.3,0.7,1.5,0.6C65.3,45.3,64.9,44.6,64.3,44.9z M64.8,43.1c0.3,0.2,0.6,0.4,0.9,0.5C65.7,43.2,65,43,64.8,43.1z
			 M65.2,7.5c0.2,0,0.4-0.1,0.5-0.2C65.5,7.3,65.2,7.4,65.2,7.5z M64.7,6.9c0.1,0.2-0.1,0.2-0.1,0.3c0.5,0.2,0.4-0.5,0.7-0.2
			C65.3,6.4,65,7.1,64.7,6.9z M61,11.6c-0.1-0.1-0.2-0.4,0.1-0.3c0.1-0.2-0.2-0.1-0.1-0.4c0.2,0.2,0.6,0.1,0.5-0.2
			c-0.2-0.1-0.1,0.3-0.3,0.2c0.1-0.4-0.4,0.2-0.4-0.1c0.3-0.4,0.8-0.1,1.1-0.5c-0.1-0.1-0.3-0.1-0.2-0.3c0.1,0,0.2,0,0.2-0.1
			c-0.2,0-0.2-0.2-0.1-0.3c-0.4,0.2-1.1,0.9-0.9,1.4c-0.1,0.2-0.5,0.3-0.3,0.6C60.6,11.5,60.7,11.5,61,11.6z M59,13.5
			c0.5-0.5,1.6-0.2,1.9-1.2c-0.5-0.2-1.4,0.2-1.4,0.7c0-0.1,0.2-0.2,0.2-0.1C59.6,13.2,59,13.2,59,13.5z M60,9.3
			c0.2-0.1,0.2,0.1,0.2,0.2c0-0.1,0.2-0.1,0.1-0.2C60.3,9.3,60,9.2,60,9.3z M59,13.2c0-0.1,0-0.2,0-0.3c-0.2,0.2-0.2-0.1-0.5,0.1
			c0.2-0.1,0.1,0.3-0.1,0.2c0-0.1,0-0.2,0-0.2c-0.2,0-0.3,0.2-0.4,0.5c0.2-0.2,0.5-0.1,0.8-0.2c-0.1,0-0.1-0.1,0-0.1
			C58.9,13.2,58.9,13.2,59,13.2z M58.5,12.5c0.1,0.2,0.5-0.2,0.3-0.3C58.8,12.4,58.5,12.3,58.5,12.5z M58.8,36
			c-0.1,0-0.1-0.1-0.2-0.1c0,0.2,0.2,0.6,0.2,0.5C58.7,36.3,58.9,36.2,58.8,36z M58.4,13.8c0.3,0.1,0.2-0.2,0.4-0.4
			C58.6,13.5,58.3,13.5,58.4,13.8z M57.9,12.7c0.2,0,0.4-0.1,0.5-0.2C58.2,12.6,57.9,12.5,57.9,12.7z M57.8,34.7
			c0.1,0.4,0.4,0.9,0.6,0.9C58.1,35.4,58,34.9,57.8,34.7z M57.6,24.5c-0.1,0.1-0.1,0.1-0.2,0.2c0-0.1,0.1-0.1,0.1-0.2
			c-0.5,0.2-0.2,0.8-0.1,1.1c0.2-0.2,0.4-0.5,0.5-0.8C57.5,24.8,57.8,24.5,57.6,24.5z M57.3,34.9c0.2,0.1,0.2,0.8,0.5,0.6
			c-0.2-0.1-0.1-0.5-0.2-0.7C57.4,34.9,57.4,34.7,57.3,34.9z M57.4,34.2c-0.1,0.1,0,0.6,0.2,0.5C57.7,34.4,57.6,34.3,57.4,34.2z
			 M57,34.1c0,0.2,0.2,0.7,0.3,0.5C57.2,34.5,57.1,34.2,57,34.1z M57.1,23.5c-0.2-0.1-0.2,0.2-0.4,0.2c0-0.1,0.2-0.2,0.1-0.3
			c0,0.1-0.1,0.1-0.1-0.1c-0.1,0-0.1,0.1-0.2,0.1c0.1-0.1,0.1-0.2-0.1-0.3c-0.2,0.8,0.4,1.2,0.1,1.8c0.3-0.1,0.1-0.4,0.5-0.5
			c-0.1-0.1,0-0.1,0-0.2c-0.2-0.1-0.3,0.2-0.3,0C56.8,23.9,57,23.8,57.1,23.5z M56.5,37.3c0.1,0.1,0.2,0.5,0.4,0.3
			C56.7,37.6,56.7,37,56.5,37.3z M56.6,22.2c-0.2,0.2-0.1,0.6-0.1,0.8c0.1-0.1,0.1-0.2,0.1-0.3C56.4,22.7,56.9,22.3,56.6,22.2z
			 M55.9,35.2c0.1,0.2,0.2,0.5,0.5,0.6C56.4,35.5,56.2,34.9,55.9,35.2z M56,22.4c-0.1,0-0.1,0.1-0.2,0.1c0.1,0.4,0.1,0.5,0,0.9
			C56.2,23.3,56.1,22.7,56,22.4z M55.7,34.4c0.1,0.2,0.1,0.4,0.2,0.5C55.9,34.6,55.9,34.4,55.7,34.4z M54.8,29.1
			c-0.1,0.4,0.1,0.4,0.4,0.5c0.1-0.2,0.1-0.4,0.2-0.5C55.3,29,54.9,29.1,54.8,29.1z M54.3,20.9c0.1,0,0.1,0.2,0.1,0.2
			c0.1-0.2,0.4-0.3,0.3-0.6C54.4,20.7,54.5,20.7,54.3,20.9z M50.6,21c0.1-0.4,0.4-0.9,0.1-1.3C50.7,20.1,50.4,20.6,50.6,21z
			 M49.6,19.4c0.2,0.1,0.2-0.2,0.2-0.5C49.6,19,49.6,19.3,49.6,19.4z M48.9,20.7c0,0.6-0.1,1.2,0.1,1.7c0.2-0.4,0.2-0.8,0.2-1.3
			C49,21.1,49,20.9,48.9,20.7z M48.2,19.1c0.1,0.6-0.1,0.8-0.2,1c0.1,0.1,0.2,0.2,0.3,0.2C48.3,20,48.5,19.3,48.2,19.1z M48.1,21.5
			c-0.1,0.2-0.1,0.7,0.1,0.8C48.4,22.2,48.4,21.6,48.1,21.5z"/>
		<path class="st0" d="M98.5,14c0,0.1-0.4-0.1-0.3-0.5C98.3,13.6,98.4,13.9,98.5,14z"/>
		<path class="st0" d="M96.2,12.5c0.1-0.1,0.1,0.1,0.2,0.2c-0.1,0.2-0.2,0.1-0.4,0.1c0-0.1,0.1-0.1,0.1,0
			C96.2,12.7,96.2,12.6,96.2,12.5z"/>
		<path class="st0" d="M96.4,16.7c-0.4-0.4-0.8-0.6-0.9-1.3c0.1,0,0.1,0,0.1-0.1c0.1,0.1,0.2,0.2,0.2,0.4c0.1,0,0.1-0.1,0.1-0.2
			c0.2-0.1,0.1,0.4,0.2,0.4c0.1,0-0.1-0.2,0.1-0.3C96.3,15.8,96.3,16.3,96.4,16.7z"/>
		<path class="st0" d="M96.1,11c-0.1,0.2-0.2-0.1-0.5,0C95.2,10.3,95.8,10.8,96.1,11z"/>
		<path class="st0" d="M95.5,32c-0.1,0.2-0.5,0.4-0.6,0.2C95.1,31.9,95.3,32.1,95.5,32z"/>
		<path class="st0" d="M94.6,9.2c0.2,0.3,0.4,0.5,0.5,0.8c-0.1-0.1-0.1,0-0.2,0c0.1,0.1,0.1,0.2,0.2,0.2c-0.1,0.2-0.1-0.2-0.2-0.1
			C95,9.7,94.5,9.4,94.6,9.2z"/>
		<path class="st0" d="M94.9,18.9c0.2,0.1-0.1,0-0.2,0c-0.1,0.1,0.1,0.5,0.1,0.7c-0.2-0.2-0.2-0.8-0.2-1.2c-0.2-0.1-0.1,0.2-0.2,0.2
			c-0.2-0.2-0.2-0.6-0.2-1c0.1-0.1,0.2,0.1,0.2,0.1c0-0.5-0.4-0.8-0.2-1.1C94.5,17,94.8,18.2,94.9,18.9z M94.4,17.8
			c-0.1,0.1-0.1,0.5,0.1,0.5C94.4,18,94.6,17.9,94.4,17.8z"/>
		<path class="st0" d="M94.1,35.9c0.2,0.1,0.2,0.1,0.2,0.2c0.2-0.3,0.1-0.9,0.5-1.3c0,0.6-0.3,1.3-0.2,1.8c-0.4,0.5-0.6,1.2-0.8,1.9
			c-0.2-0.5,0.2-0.8,0.1-1.3c-0.4,0.3-0.2,1.2-0.8,1.4C93.5,37.5,94.2,36.9,94.1,35.9z"/>
		<path class="st0" d="M94.5,32.9c-0.4,0.2-0.9,0.4-1.2,0.6c-0.1-0.1-0.1-0.2-0.2-0.2c0-0.5,0.5-0.5,0.9-0.6c0,0.1-0.1,0.1-0.1,0.2
			C94.2,33,94.3,32.9,94.5,32.9z"/>
		<path class="st0" d="M93.9,7.4c0,0.1,0.1,0.1,0.1,0.1C94,7.6,93.9,7.4,93.9,7.4c-0.1-0.1,0.1-0.1,0.1-0.2c0.1,0,0.1,0.2,0.2,0.2
			C94.2,7.6,94.1,7.3,93.9,7.4z"/>
		<path class="st0" d="M93.8,8.8c-0.1,0.1-0.1,0.3-0.2,0.2c0.1-0.2,0-0.3-0.2-0.4C93.5,8.5,93.6,8.8,93.8,8.8z"/>
		<path class="st0" d="M93.2,38.7c0.1,0.1-0.1,1.2-0.5,1.2c0.1-0.4-0.1-0.1-0.2-0.2c-0.1-0.5,0.2-1.1,0.5-1.5c0-0.1,0-0.4-0.2-0.3
			c0.1-0.5,0.2-0.7,0.6-0.5c0.1,0.6-0.2,0.9-0.2,1.4C93.1,38.8,93.1,38.8,93.2,38.7z M92.6,39.6c0.1,0,0.3-0.4,0.2-0.5
			C92.8,39.3,92.6,39.4,92.6,39.6z"/>
		<path class="st0" d="M93.2,8.7c-0.5,0.1-0.6-0.6-0.8-1c-0.4-0.8-1.2-1.4-1.5-2.4c0.5,0.3,0.6,1.1,1.2,1.3c0.2-0.1-0.2-0.6-0.2-0.3
			c-0.2-0.1,0.1-0.2,0-0.3c0.2,0.2,0.7,0.5,0.9,0.5c-0.2,0.2-0.3,0.2-0.6,0.2C92.3,7.7,92.8,7.9,93.2,8.7z"/>
		<path class="st0" d="M92.3,27.4c0.2,0.1-0.1,0.4-0.1,0.5C92,27.8,92.3,27.5,92.3,27.4z"/>
		<path class="st0" d="M91.8,42.1c0.1-0.1-0.3-0.1-0.2,0c0.1-0.2,0.3-0.9,0.6-1c-0.1,0.4-0.4,0.5-0.2,1c-0.2,0.1-0.4,0.4-0.5,0.5
			C91.4,42.4,91.7,42.2,91.8,42.1z"/>
		<path class="st0" d="M90.9,38.7c0.1-0.2,0.2,0,0.2-0.2c0.2,0.2-0.2,0.4-0.2,0.6C90.7,39.1,91.1,38.8,90.9,38.7z"/>
		<path class="st0" d="M91.2,41.5c0.1,0.1-0.1,0.6-0.3,0.5C90.9,41.8,91.1,41.8,91.2,41.5z"/>
		<path class="st0" d="M90.6,38c0.2,0,0.2-0.3,0.4-0.2c-0.8,0.8-1.7,1.8-2.8,2.4c0.1-0.1,0.2-0.5,0-0.3c0.7-0.5,1.8-1.2,2.5-2
			c-0.1-0.2,0.5-0.9,0.5-1.4C91.1,37,90.9,37.6,90.6,38z"/>
		<path class="st0" d="M91.1,40.5c-0.1,0.2-0.4,0.8-0.7,0.9C90.5,40.9,90.8,40.7,91.1,40.5z"/>
		<path class="st0" d="M91,34.9c0.1,0.1-0.2,0.5-0.4,0.5C90.7,35.2,90.9,35.2,91,34.9z"/>
		<path class="st0" d="M89.2,3.5c0.5,0.2,1.2,0.8,1.7,1.5c0,0.2-0.3-0.2-0.2,0.2c-0.2,0-0.2-0.2-0.4-0.2c-0.1,0-0.1,0.2-0.1,0.3
			C90,5.3,90,5,90.2,5C90,4.3,89.5,4,89.2,3.5z"/>
		<path class="st0" d="M90.1,42.3c-0.2-0.1-0.4-0.1-0.5,0.1c0.2-0.3,0.8-0.9,1.2-0.9c-0.1,0.1-0.1,0.4-0.3,0.4
			C90.7,41.5,90.1,42,90.1,42.3z"/>
		<path class="st0" d="M90.8,38.7c-0.4,0.4-0.7,0.8-1.2,1.1c0,0.2,0.2,0.1,0.3,0.1c-0.2,0.1-0.2,0.6-0.6,0.5
			c0.1-0.3-0.2-0.5-0.2-0.7C89.7,39.2,90.2,38.8,90.8,38.7z"/>
		<path class="st0" d="M89.9,45.6c0.1,0.1,0.1,0.1,0.2,0.1c0,0.3-0.2,0.2-0.2,0.5C89.7,46.1,89.9,45.7,89.9,45.6z"/>
		<path class="st0" d="M89.7,45.5c0.2,0.1-0.2,0.2-0.2,0.5c-0.1,0-0.1-0.1-0.1-0.1c-0.1,0-0.1,0-0.1,0
			C89.3,45.7,89.6,45.7,89.7,45.5z"/>
		<path class="st0" d="M89.3,6.7c0,0.2-0.3,0.1-0.4,0.1c0.2-0.1,0.3-0.5,0-0.5C89,6,89.4,6.5,89.3,6.7z"/>
		<path class="st0" d="M88.9,8.2c0.2,0.1,0.2-0.1,0.3,0c0,0.2-0.1,0.3-0.2,0.5C89,8.6,89,8.4,88.9,8.2z"/>
		<path class="st0" d="M88.9,41.5c0,0.5-0.5,0.3-0.7,0.4C88.1,41.7,88.6,41.4,88.9,41.5z"/>
		<path class="st0" d="M88.7,2.8C88.7,3,88.9,3,88.8,3.1c-0.2,0-0.2-0.2-0.4-0.4C88.4,2.6,88.6,2.9,88.7,2.8z"/>
		<path class="st0" d="M86.6,3.6C86.7,4,87,4,87.1,4.1C87.4,3.7,87.8,4.5,88,4c0.2,0.2,0.5,0.2,0.5,0.5c-0.1,0-0.1-0.1-0.2-0.1
			c0,0.2,0.1,0.4,0.2,0.5c-0.8,0-1.9-0.6-2.2-1.4C86.2,3.4,86,3,85.7,3.2c-0.2-0.6-0.8-0.6-1.3-0.8c0.9-0.4,1.9,1.1,2.4,0.2
			C87.1,2.7,87.2,3,87.5,3c-0.2,0.4,0,0.4,0.1,0.7c-0.1-0.1-0.2-0.2-0.4-0.3c-0.1,0.1,0,0.1,0,0.2c-0.2,0-0.2-0.2-0.4-0.2
			C86.6,3.5,87,3.8,86.6,3.6z"/>
		<path class="st0" d="M88.3,2.5c-0.2-0.2-0.5-0.1-0.5-0.5C86.8,1.7,88.3,1.9,88.3,2.5z"/>
		<path class="st0" d="M87.7,35.7c-0.1-0.2-0.2,0.4-0.4,0.3c0.1-0.5,0.5-0.6,0.6-1.1c0.2,0.2-0.3,0.5,0.1,0.6c0.1-0.1,0-0.4,0.2-0.4
			c0.1,0.3,0,0.2,0,0.6c-0.2,0.1-0.1-0.1-0.3-0.1c0.2,0.9-0.6,1.2-1.2,1.5C87.2,37,87.4,36.3,87.7,35.7z"/>
		<path class="st0" d="M85.5,5.2C85.4,5.4,85.2,5,85,5c0.1-0.3,0-0.4-0.1-0.6c0.5,0.2,0.9,0.5,1.4,0.8c-0.5,0.1-0.6-0.2-0.9-0.4
			C85.1,4.8,85.2,5.2,85.5,5.2z"/>
		<path class="st0" d="M85.2,44.6c0.1-0.1,0.2-0.3,0.5-0.2c0,0.4-0.4,0.3-0.6,0.2C85.1,44.5,85.2,44.5,85.2,44.6z"/>
		<path class="st0" d="M79.8,46.9c0,0.2,0.1-0.1,0.2,0c-0.1,0.2-0.5,0.1-0.6-0.1c0.2-0.4,0.6-0.2,0.9-0.2c1.1-0.1,1.9-0.5,3-0.7
			c-0.1,0.4-0.6,0-0.9,0.4c0.3,0.1,0.9,0.1,0.9-0.5c0.6,0.2,1.2-0.4,2.2-0.3c-0.4,0.6-3,0.8-2.9,1.6c-0.4-0.1-0.5-0.2-0.9-0.1
			c0.1-0.1,0.1-0.1,0.1-0.2C81,47,80.6,46.9,80.1,47C80.2,46.9,79.9,46.6,79.8,46.9z"/>
		<path class="st0" d="M83.8,5c-0.1-0.2-0.1,0.1-0.2,0C83.6,5,83.7,5,83.7,5c-0.1-0.3-0.4-0.4-0.8-0.4c0,0.2,0.2,0.2,0.2,0.2
			c-0.3,0.4-0.6-0.1-0.9-0.2c0.1-0.4,0.3,0.1,0.5,0.1c-0.2-0.7-1.3-0.5-1.6-1.1c0.1,0.1,0.4,0.2,0.5,0c0.1,0.2,0.7,0.5,1.1,0.4
			c0.5,0.6,1.7,0.6,2.2,1.4c-0.3,0-0.8-0.4-1.1-0.1c-0.2-0.2-0.5-0.1-0.6-0.5C83.5,4.8,83.6,5.4,83.8,5z"/>
		<path class="st0" d="M82.9,3.4c-0.2-0.1-0.1,0.2-0.2,0.2c0,0.2,0.3-0.1,0.2,0.2c-0.5,0.2-0.8-0.4-1.2-0.5c0.1-0.1,0.5,0.1,0.6,0.2
			c0.2-0.2-0.1-0.4-0.2-0.4c0.1-0.3,0.5,0.1,0.8-0.1c0.2-0.1,0.2-0.4,0.5-0.3c0.1,0.2-0.1,0.4,0.2,0.5c-0.1,0.2-0.2-0.1-0.3,0
			c0.1-0.2-0.1-0.2,0.1-0.3c-0.1,0-0.1,0-0.2,0c0,0.2,0.2,0.2,0,0.3c0.2,0.4,0.8,0.2,0.9,0.7c-0.1,0-0.2,0-0.2,0.2
			C83.9,3.7,83.1,3.8,82.9,3.4z"/>
		<path class="st0" d="M82.8,44.7c0.1,0.2-0.5,0.4-1.1,0.3c0.2-0.4,0.7,0.2,0.8-0.3C82.6,44.7,82.7,45,82.8,44.7z"/>
		<path class="st0" d="M81.9,50.2c0.2,0.1,0.4,0.2,0.5,0.5c-0.2,0.4-0.6,0.4-1.1,0.6c0.1,0.1,0.1,0.2,0,0.3c0.1,0.2,0.2-0.2,0.3,0
			c-0.2,0.6-0.2,0.8-0.2,1.5c-0.2,0.1-0.4,0.1-0.6,0.2c0-0.3,0.2-0.3,0.2-0.5c-0.5,0.1-0.8,0.2-1.2-0.1c0.2-0.3,0.4-0.1,0.6-0.3
			c0-0.2-0.4,0-0.4-0.2c0.1-0.2,0.1-0.3,0.3-0.2c-0.5-0.4-1.5-0.2-2.1-0.1c-0.2-0.1,0.1-0.2-0.2-0.2c0.1-0.2,0.5,0.1,0.6-0.2
			c-0.4-0.1-0.5-0.1-0.9-0.2c1.3-0.5,2.7-0.1,3.9-0.7c0-0.1-0.1-0.1-0.1-0.2C81.5,50.5,82,50.5,81.9,50.2z"/>
		<path class="st0" d="M81.8,2.5c-0.5,0.4-0.9,0.4-1.5,0.1c0.4,0,0.6-0.1,0.9,0.2C81.3,2.6,81.5,2.5,81.8,2.5z"/>
		<path class="st0" d="M78.2,45.9c0.8-0.5,1.8-0.4,2.8-0.6c0.1,0.3-0.1,0.3-0.1,0.5C80,46,79,46.2,78.3,46.3
			C78.6,45.8,78.2,46.3,78.2,45.9z"/>
		<path class="st0" d="M78.9,4.4c-0.4-0.1-0.1,0.1,0,0.2c-0.1,0.2-0.3-0.1-0.2-0.3C78.4,4.5,78.4,4,78.1,4C78.3,4,79,3.9,78.9,4.4z"
			/>
		<path class="st0" d="M77.6,47.2c0.2-0.1-0.1-0.2,0.1-0.3c-0.1-0.1-0.3-0.1-0.5-0.2c0.2-0.2,0.7,0.1,0.8-0.1c0-0.2-0.4,0.1-0.2-0.2
			c0.4,0.1,1.4,0.1,0.4,0.2c0,0.2,0.2,0.1,0.3,0.2c0.1,0.1-0.2,0.2-0.1,0.2c-0.2,0.1-0.4,0.2-0.5,0.5c0.1,0.2,0.2-0.1,0.3,0
			c0,0.2-0.4,0.1-0.6,0.2C77.7,47.5,78.2,47.1,77.6,47.2z"/>
		<path class="st0" d="M77.9,1.8c0-0.2-0.4,0.1-0.3-0.1c0-0.4,0.4-0.1,0.5-0.1C78,2,78.1,2.1,78.3,2.1c-0.2,0.2-0.8-0.2-1.2,0.2
			c0-0.2,0-0.4-0.2-0.3C77.3,1.9,77.5,2.1,77.9,1.8z"/>
		<path class="st0" d="M73.5,52.7c-0.2,0.4-0.7,0.2-1.1,0.1c0.1-0.2,0.5,0,0.6-0.2C73,53,73.3,52.7,73.5,52.7z"/>
		<path class="st0" d="M71.7,52.2c-0.4,0.3-1.3,0.1-1.5-0.2c0-0.1,0.1-0.1,0.1-0.2c0.1-0.2,0.1,0.1-0.1,0.1
			C70.7,52.2,71.2,52.1,71.7,52.2z"/>
		<path class="st0" d="M70.6,52.6c0.2-0.2,0.5,0,0.9-0.1c0,0.2,0.1,0.2,0.2,0.3c-0.2,0.3-0.2-0.2-0.5-0.2
			C71.4,53,70.7,52.6,70.6,52.6z"/>
		<path class="st0" d="M71.6,2.4c-0.5,0.2-1.2,0-1.5,0.1c0.1-0.1,0.1-0.1,0.1-0.2c-0.2,0.4-1.2,0.2-1.5,0.2c0.1-0.4,1.1-0.2,1.5-0.4
			c0.1,0.1,0.2,0.1,0.1,0.2C70.7,2.1,71.2,2.5,71.6,2.4z"/>
		<path class="st0" d="M67.8,43.5c0.1,0.2-0.5-0.1-0.3-0.3c-0.6,0-1.2-0.2-1.5-0.8c0.9,0.3,1.7,0.6,2.4,1.1
			c-0.2-0.1-0.4-0.2-0.6-0.2C67.7,43.4,67.7,43.5,67.8,43.5z"/>
		<path class="st0" d="M68.2,2.4c-0.6,0.6-1.6,0.4-2.5,0.7C66.3,2.8,67.5,2.6,68.2,2.4z"/>
		<path class="st0" d="M66.1,1.5c0-0.2-0.2-0.2,0.1-0.3c-0.1-0.1-0.3-0.2-0.4-0.1c0-0.2,0.9-0.2,1.2-0.5c0-0.1-0.1-0.2-0.1-0.3
			c0.2-0.1,0.2-0.2,0.4-0.4c0.1,0.1-0.1,0.5,0.3,0.4c-0.3,0.4-1.1,0.4-0.9,0.9c-0.5-0.2-0.2,0.4-0.8,0.4C65.9,2,66.1,2,66,2.4
			c-0.5,0.1-0.6,0.5-1.2,0.5c0.4,0.4-0.5,0.5-0.6,0.1c0.6,0.2,0.7-0.6,1.2-0.6v0.2c0.2-0.1,0.2-0.4,0.5-0.3c0-0.1-0.1-0.1-0.1-0.2
			c-0.2,0-0.2,0.3-0.5,0.2c0.1-0.1,0.2-0.1,0.1-0.2c-0.4,0.1-0.4,0.4-0.7,0.5C64.9,1.9,65.4,1.6,66.1,1.5z"/>
		<path class="st0" d="M66.3,45.3c0.2-0.1,0.8,0.1,1.1,0.3C67.4,45.8,66.7,45.4,66.3,45.3z"/>
		<path class="st0" d="M63.4,49.3c0.3,0,0.8,0.4,1.2,0.5C64.5,49.9,63.7,49.6,63.4,49.3z"/>
		<path class="st0" d="M64.4,2.1C64.6,2.5,63.9,2.7,64,3c-0.4-0.2-0.7,0.5-1.1,0.6C63,3,64.1,2.8,64.4,2.1z"/>
		<path class="st0" d="M63.3,2.4C63.1,2.5,63,2.1,63,2.5c-0.2-0.1,0.1-0.4,0.2-0.3C63.1,2.3,63.2,2.4,63.3,2.4z"/>
		<path class="st0" d="M62.7,48.3c-0.2,0.1-0.2-0.2-0.3-0.2C62.4,48,62.7,48.1,62.7,48.3z"/>
		<path class="st0" d="M61.8,3.4c0.1,0.3-0.5,0.4-0.1,0.4C61.8,4,61.4,3.8,61.4,4C61.3,3.8,61.7,3.5,61.8,3.4z"/>
		<path class="st0" d="M61.4,4.1c-0.1,0.7-0.5,0.5-0.8,0.8C60.8,4.6,60.9,4.1,61.4,4.1z"/>
		<path class="st0" d="M61.3,46.5c-0.4-0.1-0.9-0.5-1.2-0.9C60.4,45.7,60.8,46.3,61.3,46.5z"/>
		<path class="st0" d="M60.8,47.3c-0.9-0.8-1.7-1.2-2.5-2.1c0.5,0.4,0.8,0.9,1.5,0.8C60,46.5,60.7,46.6,60.8,47.3z"/>
		<path class="st0" d="M60,47.8c-0.3,0.1-0.2-0.4-0.5-0.4c0.4-0.1,0.2-0.5,0-0.7C59.4,46.6,59.8,47,60,47c-0.2,0.1,0,0.3-0.2,0.4
			C59.8,47.7,60.1,47.4,60,47.8z"/>
		<path class="st0" d="M57.3,8.9c-0.1-0.1,0.1-0.2-0.1-0.5c0.6-0.2,1.1-0.2,1.6-0.1C58.8,8,59,8.5,59.3,8.3
			c-0.3,0.3-0.6,0.5-1.1,0.6c-0.1-0.4-0.2-0.3-0.6-0.3C57.8,8.9,57.4,8.7,57.3,8.9z"/>
		<path class="st0" d="M57.4,46.5c-0.2,0.1-0.5-0.4-0.7-0.5c0.1-0.4-0.4-0.7-0.6-1c-0.4-0.1-0.4,0.2-0.6,0.2c0-0.1-0.1-0.1-0.1-0.1
			c0-0.5,0-1.1-0.2-1.5c0.5-0.1,1,0.4,1.2,0.9c0.4,0.6,1.1,1.1,1.5,1.6c0.1-0.4,0.6,0.2,0.8,0.3c-0.1,0.2-0.2,0.3-0.4,0.3
			c0.2-0.2-0.1-0.3-0.2-0.3c-0.1-0.2,0.1-0.1,0.1-0.2c-0.1,0-0.6,0.1-0.8-0.2C57.1,46.3,57.4,46.4,57.4,46.5z"/>
		<path class="st0" d="M57.3,44.7c0-0.3-0.2-0.4-0.3-0.5c0.4-0.4,0.9,0.4,1.1,0.7c-0.5,0.2-1.2,0.1-1.5-0.6
			C56.5,44.3,56.9,44.8,57.3,44.7z"/>
		<path class="st0" d="M56.8,11.9c-0.2,0.2-0.4,0.4-0.6,0.5C56.2,12.3,56.6,11.9,56.8,11.9z"/>
		<path class="st0" d="M55.9,8.7C55.3,9.3,55.2,8.9,55.9,8.7L55.9,8.7z"/>
		<path class="st0" d="M55.2,24.9c-0.3-0.1,0-0.5-0.1-0.5C55.2,24.2,55.4,24.8,55.2,24.9z"/>
		<path class="st0" d="M54.9,43.8c-0.1,0.1-0.3,0-0.4,0c0.1-0.3-0.2-0.5-0.2-0.8C54.6,43.4,54.6,43.4,54.9,43.8z"/>
		<path class="st0" d="M53.6,42.8c-0.4,0.1-0.3-0.4-0.5-0.5C53.2,42.4,53.6,42.5,53.6,42.8z"/>
		<path class="st0" d="M51.5,31.1c-0.2-0.2-0.2-0.5-0.3-0.8c-0.2,0.2,0.1,0.5,0,0.8c-0.2-0.4-0.3-1.1-0.6-1.5c0.1,0,0.1,0.1,0.1,0.1
			c0-0.2-0.2-0.1-0.2-0.3c0.4-0.2-0.1-1.3,0-1.7C50.9,28.8,51.4,29.9,51.5,31.1z"/>
		<path class="st0" d="M49.7,25.9c-0.2,0-0.2-0.8-0.1-0.6C49.6,25.5,49.7,25.6,49.7,25.9z"/>
		<path class="st0" d="M48.6,17.4c0.1,0.1-0.1,0.5-0.1,0.7C48.4,17.9,48.6,17.5,48.6,17.4z"/>
		<path class="st0" d="M47,20.6c-0.1,0.2,0.1,0.9,0,1.2c-0.4-0.2-0.5,0.2-0.8,0.3c-0.2-0.5,0.3-0.8,0.3-1.3c0.1,0,0.1,0.2,0.2,0.2
			c0,0.2,0,0.4-0.1,0.5C47.1,21.6,46.9,20.9,47,20.6z"/>
		<path class="st0" d="M97.5,16.7c0,0.2,0.2,0.2,0.1,0.5c0.2-0.3,0.4,0.4,0.3,0.7c-0.4,0-0.4,0.2-0.6,0c0.2-0.5-0.6-1.2-0.2-1.8
			c-0.4-0.2-0.6-0.7-0.8-1.1c0.4-0.1,0.5,0.1,1.1,0c0.1,0.1,0.1,0.2,0.1,0.4c0.4-0.1,0.4,0,0.6-0.2c-0.1,0.5,0.1,1,0.1,1.6
			c-0.2-0.1-0.1-0.4-0.2-0.5c-0.2,0.1-0.2,0.3-0.1,0.4c0,0.2-0.2,0.1-0.2,0.2C97.6,17,97.7,16.7,97.5,16.7z M97.7,15.5
			c0,0.2,0.1,0.3,0.1,0.5C98,16,97.8,15.5,97.7,15.5z M97.4,15.8c-0.1,0.2,0.1,0.3,0,0.7c0.1,0.1,0.1-0.1,0.3,0
			C97.6,16.2,97.5,16,97.4,15.8z"/>
		<path class="st0" d="M91.7,40.3c-0.1-0.1-0.1,0.1-0.2-0.1c0.1-0.2-0.1-0.4,0.1-0.5C91.7,39.7,91.8,40.1,91.7,40.3z"/>
		<path class="st0" d="M90.6,8.5c-0.2-0.4-0.4-0.5-0.9-0.3c0-0.1,0-0.2,0-0.2c-0.2,0-0.1,0.2-0.3,0.2C89.4,8,89.3,8,89.2,8
			c0.1-0.1,0.1-0.3,0.3-0.3c0,0.2,0.1,0.2,0.2,0.2c0.1-0.2,0.2-0.3,0.5-0.4C90,7.1,89.6,7.3,89.4,7c0.2-0.1,0.3,0.1,0.5,0.1
			c0.1-0.2-0.2-0.1-0.1-0.4C90,6.8,90.3,7.3,90.6,7c-0.1-0.2-0.4-0.1-0.3-0.5c0.2,0.1,0.3,0.2,0.6,0.2c-0.2-0.7-0.8-0.9-1.1-1.5
			c0.4-0.1,0.4,0.3,0.5,0.5c0.1-0.2,0.3-0.1,0.4,0.1c0,0.1-0.1,0.1-0.2,0.1c0.4,0.7,0.9,1.1,1.2,1.8c0.1-0.1,0.1-0.2,0.2-0.2
			c-0.1,0.3,0.1,0.2,0,0.5c-0.2-0.2-0.4-0.5-0.6-0.6c-0.1,0.4-0.5,0.2-0.8,0.2c0,0.2,0.2,0.2,0.2,0.5c-0.1,0-0.2,0-0.2,0
			C90.5,8.2,90.6,8.3,90.6,8.5z"/>
		<path class="st0" d="M75.5,48.7c-0.4,0.4-1.2,0.2-1.6,0c0-0.2,0.2-0.1,0.3-0.1c0.1-0.2-0.1-0.1-0.2-0.2c0.3-0.2,0.8,0.1,1.1,0
			C74.7,48.7,75.3,48.7,75.5,48.7z"/>
		<path class="st0" d="M72.5,51.1c-0.9,0.4-2.5,0.2-3.1-0.6C70.4,50.7,71.5,50.9,72.5,51.1z"/>
		<path class="st0" d="M71.7,51.6c-0.3,0.5-1.5-0.4-1.6,0.2c-0.1-0.1-0.1-0.1-0.1-0.2c-0.2,0.4-0.4,0-0.6,0c0-0.1,0.1-0.1,0.2-0.1
			c-0.5-0.3-1.3-0.4-1.7-0.5C69.2,50.8,70.3,51.6,71.7,51.6z"/>
		<path class="st0" d="M61.3,49.6c-0.1,0.1,0.1,0.1-0.1,0.2c-0.4,0-0.5-0.4-0.8-0.5C60.6,49,61.1,49.3,61.3,49.6
			C61.3,49.6,61.3,49.6,61.3,49.6z"/>
		<path class="st0" d="M58.7,9c-0.1,0.4-0.4,0.3-0.6,0.5c0-0.1-0.1-0.2-0.2-0.2c0-0.3,0.5,0,0.4-0.4C58.4,9,58.5,9.1,58.7,9z"/>
		<path class="st0" d="M52.6,31.1c0.2,0.8,0.3,1.7,0.5,2.4c-0.8-1.9-1.3-4.3-1.5-6.4c0.2,0.4,0.4,0.7,0.6,1.1c0.1,0,0.1-0.1,0.2-0.1
			c0.2,0.5,0.6,1.5,0.8,1.8c0.1,0.3-0.2,0.4-0.4,0.4C52.8,30.6,53,31,53,31.5C52.9,31.5,52.8,31.3,52.6,31.1z"/>
		<path class="st0" d="M48.9,26.6c-0.3-0.2-0.5-0.6-0.5-1.3c0.2,0.1,0.1,0.5,0.2,0.6c0.1-0.1,0.1-0.2,0.1-0.4
			C49,25.8,49.3,26.5,48.9,26.6z"/>
		<path class="st0" d="M46.9,26.2c-0.3-0.2-0.4-0.8-0.2-1.2C47.3,24.8,47,25.9,46.9,26.2z"/>
	</g>
	<g id="Glyph_2_">
		<path class="st1" d="M63.7,24.8l3.4,2.2v-1.9c0-0.2,0.2-0.5,0.5-0.5l0,0h3.1V22h-2.2c-0.2,0-0.5-0.2-0.5-0.5c0-0.1,0-0.2,0.1-0.2
			l2.7-4v-2.5h-9c-0.5,0-0.9,0.4-0.9,0.9v9.1h2.7C63.6,24.8,63.6,24.8,63.7,24.8z M62.6,21.2c0,0.2-0.2,0.5-0.5,0.5
			c-0.3,0-0.5-0.2-0.5-0.5v-0.9c0-0.2,0.2-0.5,0.5-0.5c0.3,0,0.5,0.2,0.5,0.5V21.2z M62.6,18.4c0,0.2-0.2,0.5-0.5,0.5
			c-0.3,0-0.5-0.2-0.5-0.5v-2.2c0-0.2,0.2-0.5,0.5-0.5l0,0h3.6c0.2,0,0.5,0.2,0.5,0.5s-0.2,0.5-0.5,0.5h-3.1
			C62.6,16.7,62.6,18.4,62.6,18.4z"/>
		<path d="M71.1,29.2c-0.2,0-0.5-0.2-0.5-0.5l0,0v-3.1h-2.7v2.2c0,0.2-0.1,0.3-0.2,0.4c-0.1,0-0.1,0.1-0.1,0.1c0,0,0,0-0.1,0h-0.1
			l0,0h-0.1c0,0,0,0-0.1,0s-0.1-0.1-0.1-0.1l-4-2.7h-2.5v9c0,0.5,0.4,0.9,0.9,0.9h9v-2.7c0-0.1,0-0.2,0.1-0.2l2.2-3.4H71.1z
			 M64.4,34.7h-2.2c-0.2,0-0.5-0.2-0.5-0.5l0,0v-3.6c0-0.2,0.2-0.5,0.5-0.5c0.3,0,0.5,0.2,0.5,0.5v3.1h1.8c0.2,0,0.5,0.2,0.5,0.5
			C64.8,34.4,64.6,34.7,64.4,34.7z M67,34.7h-0.9c-0.2,0-0.5-0.2-0.5-0.5c0-0.2,0.2-0.5,0.5-0.5H67c0.2,0,0.5,0.2,0.5,0.5
			C67.5,34.4,67.3,34.7,67,34.7z"/>
		<path class="st1" d="M78.6,25.6l-3.4-2.2v1.9c0,0.2-0.2,0.5-0.5,0.5l0,0h-3.1v2.7h2.2c0.2,0,0.5,0.2,0.5,0.5c0,0.1,0,0.2-0.1,0.2
			l-2.7,4v2.5h9c0.5,0,0.9-0.4,0.9-0.9v-9.1h-2.7C78.7,25.6,78.6,25.6,78.6,25.6z M79.7,29.2c0-0.2,0.2-0.5,0.5-0.5s0.5,0.2,0.5,0.5
			v0.9c0,0.2-0.2,0.5-0.5,0.5s-0.5-0.2-0.5-0.5V29.2z M79.7,32c0-0.2,0.2-0.5,0.5-0.5s0.5,0.2,0.5,0.5v2.2c0,0.2-0.2,0.5-0.5,0.5
			l0,0h-3.6c-0.2,0-0.5-0.2-0.5-0.5c0-0.2,0.2-0.5,0.5-0.5h3.1V32z"/>
		<path d="M83.4,12.2h-9v2.7c0,0.1,0,0.2-0.1,0.2L72,18.5h1.9c0.2,0,0.5,0.2,0.5,0.5l0,0v3.1h2.7V19c0-0.2,0.2-0.5,0.5-0.5
			c0.1,0,0.2,0.1,0.3,0.1l4,3.5h2.5v-9C84.3,12.6,83.9,12.2,83.4,12.2z M78.9,13.9H78c-0.2,0-0.5-0.2-0.5-0.5c0-0.2,0.2-0.5,0.5-0.5
			h0.9c0.2,0,0.5,0.2,0.5,0.5C79.3,13.8,79.1,13.9,78.9,13.9z M83.4,17.1c0,0.2-0.2,0.5-0.5,0.5c-0.3,0-0.5-0.2-0.5-0.5V14h-1.8
			c-0.2,0-0.5-0.2-0.5-0.5c0-0.2,0.2-0.5,0.5-0.5h2.2c0.2,0,0.5,0.2,0.5,0.5l0,0L83.4,17.1L83.4,17.1z"/>
	</g>
</g>
<g>
	<path class="st1" d="M154.7,32.8h-2.9v-0.1c0-0.1-0.1-0.1-0.1-0.2c-0.1-1.1-0.1-2.2-0.2-3.2l-0.1-0.8c0.1-0.1,0.2-0.1,0.3-0.1
		c0.2-0.1,0.4-0.1,0.6-0.2c0.5-0.1,0.7-0.5,0.7-1.1v-0.1h-1.7v-4.1c1.3-0.1,2-0.6,2.1-1.6v-0.1h-0.1l0,0l-0.1-0.1
		c-0.9,0.1-1.6,0.1-2.2-0.3c-0.2-0.1-0.5-0.1-0.8,0.1c-0.3,0.2-0.6,0.6-0.5,1c0,0.1,0.1,0.2,0.1,0.4c0.1,0.5,0.1,0.9,0.1,1.4
		c0,0.4,0,0.8-0.1,1.1c0,0.1-0.1,0.4-0.1,0.5s0,0.2,0,0.4c0,0.2,0,0.4-0.1,0.6c-0.2,1-0.2,1.8,0,2.5c0.1,0.1,0.1,0.3,0.1,0.4v0.1
		c0,1.2,0.1,2.5,0.1,3.7c0,0.5,0.2,0.9,0.6,1.2c0.2,0.1,0.4,0.2,0.7,0.2c0.2,0,0.4-0.1,0.6-0.1c0.3-0.1,0.6-0.1,1-0.2h0.1
		c0.1,0,0.2,0,0.4,0c0.1,0,0.3,0,0.4,0c0.6-0.1,0.8-0.4,0.8-1.1L154.7,32.8z M146.1,32.1c-0.4-0.4-0.3-1.1-0.4-1.8
		c-0.1-0.5-0.1-0.7,0-1.1c0.1-0.9-0.1-1.7-0.1-2.5c0-1.6-0.1-3.2-0.1-4.9c0-0.1-0.1-0.3-0.1-0.4c-0.1-0.4-0.4-0.6-0.8-0.5
		c-0.5,0.1-0.5,0.4-0.5,0.8c0,2.1,0.1,4.2,0.1,6.4c-0.1,1.6,0.1,3.1,0.1,4.7c0,0.5,0.1,0.9,0.6,1.1c0.9,0.4,1.8,0,2.6-0.4
		c0.6-0.3,0.5-0.9,0.8-1.5C147.6,32.2,146.7,32.8,146.1,32.1z M143,21.5c-0.3-0.3-0.6-0.3-1-0.1c-0.3,0.1-0.6,0.3-0.8,0.4
		c-0.8,0.2-1.7-0.2-2.5,0c-0.3,0.1-1.6-0.4-1.8,0c-0.1,0.3,0.1,0.6,0.1,0.6c0.8,0.5,2.8,0.8,3.7,0.7c-0.4,1.1-0.6,1.4-1.4,2.2
		c-0.4,0.4-0.7,0.7-1,1.1c-0.4,0.6-0.8,1.1-1.2,1.7c-0.2,0.4-0.5,0.8-0.6,1.1c-0.4,1.4-1,2.4-1.1,3.9c0,0.4,0.4,0.6,0.6,0.6
		c0.9,0,1.4-0.1,2-0.1c0.7,0.1,1.6,0.2,2.3,0.1c1-0.1,2.6,0.2,2-0.5c-0.6-0.6-3.6-1.1-5.1-0.9c0.7-2,1.2-3.5,2.3-5
		c0.9-1.3,2-2.5,2.8-4.1c0.1-0.3,0.4-0.5,0.6-0.6C143.4,22.2,143.4,21.9,143,21.5z M134.2,21.5c-0.3-0.3-0.6-0.3-1-0.1
		c-0.3,0.1-0.6,0.3-0.8,0.4c-0.8,0.2-1.7-0.2-2.5,0c-0.3,0.1-1.6-0.4-1.8,0c-0.1,0.3,0.1,0.6,0.1,0.6c0.8,0.5,2.8,0.8,3.7,0.7
		c-0.4,1.1-0.6,1.4-1.4,2.2c-0.4,0.4-0.7,0.7-1,1.1c-0.4,0.6-0.8,1.1-1.2,1.7c-0.2,0.4-0.5,0.8-0.6,1.1c-0.4,1.4-1,2.4-1.1,3.9
		c0,0.4,0.4,0.6,0.6,0.6c0.9,0,1.4-0.1,2-0.1c0.7,0.1,1.6,0.2,2.3,0.1c1-0.1,2.6,0.2,2-0.5c-0.6-0.6-3.6-1.1-5.1-0.9
		c0.7-2,1.2-3.5,2.3-5c0.9-1.3,2-2.5,2.8-4.1c0.1-0.3,0.4-0.5,0.6-0.6C134.6,22.2,134.6,21.9,134.2,21.5z M125,23.1
		c0-0.4-0.1-0.8,0-1.1c0-0.5,0-0.8-0.2-1.1c-0.1-0.1-0.4-0.2-0.6-0.1c-0.1,0-0.2,0.1-0.3,0.2c-0.5,0.6-0.3,2.5-0.2,3
		c0,0.3,0.1,0.6,0.1,1c0,0.1,0,0.3,0,0.4c0.1,2.5,0.1,4.7,0.1,6.8c0,0.1-0.1,0.4-0.1,0.5l-0.1,0.2c-0.1,0-0.1-0.1-0.2-0.1
		c-0.2-0.1-0.5-0.1-0.7-0.3c-0.1-0.1-0.3-0.3-0.4-0.5c-0.1-0.1-0.1-0.4-0.1-0.6c-0.1-0.6-0.3-1.2-0.3-1.8c0-3-0.3-5.6-0.9-8.2
		c-0.1-0.5-0.4-0.8-0.7-0.9c-0.2-0.1-0.5,0-0.8,0.4c-0.2,0.3-0.1,0.7,0,1.1c0,0.1,0.1,0.2,0.1,0.3c0.2,1.1,0.4,2.3,0.4,3.6
		c0,0.4,0.1,0.7,0.1,1.1c0.1,0.6,0.1,1.1,0.1,1.7c-0.1,1.1,0,2,0.3,2.8c0.4,1.1,1.1,2,2.3,2.5c0.4,0.1,0.6,0.2,0.9,0.2
		c0.2,0,0.4-0.1,0.5-0.1c0.4-0.1,0.6-0.5,0.8-0.9c0.1-0.3,0.1-0.6,0.1-0.8c0-0.1,0-0.1,0-0.2c0-0.6,0-1.1,0-1.6c0-0.4,0-0.9,0-1.3
		c0-0.6,0-1.3,0.1-1.9c0-1.1,0.1-2.3,0.1-3.5C125.1,23.7,125.1,23.4,125,23.1z M114.5,25.6c-0.1-1.2-0.2-2.3-0.3-3.7
		c0.3-0.1,0.7-0.3,1.1-0.4C116.1,22.7,115.7,24.6,114.5,25.6z M117.3,21.7c-0.4-1-1.3-1.3-2.5-1.2c-0.6,0.1-1.3,0.2-2.1,0.4
		c0,1.4,0,2.9,0,4.4c0,1.3,0.1,2.7,0.1,4c0,1.3-0.1,2.5-0.1,3.7c0,0.4-0.1,0.9,0.2,1.3c0.1,0.1,0.5,0.1,0.8,0.1
		c0.6,0,0.9-0.2,0.9-0.8c0-0.5-0.1-1-0.1-1.5c0-1.4,0-2.8,0-4.2c0.3-0.1,0.6-0.2,0.8-0.4c1-1.1,1.8-2.3,2-3.7
		C117.5,23,117.5,22.3,117.3,21.7z"/>
</g>
</svg>
