<?xml version="1.0" encoding="utf-8"?>
<!-- Generator: Adobe Illustrator 25.2.1, SVG Export Plug-In . SVG Version: 6.00 Build 0)  -->
<svg version="1.1" id="Layer_1" xmlns="http://www.w3.org/2000/svg" xmlns:xlink="http://www.w3.org/1999/xlink" x="0px" y="0px"
	 viewBox="0 0 235.2 53.3" style="enable-background:new 0 0 235.2 53.3;" xml:space="preserve">
<style type="text/css">
	.st0{fill-rule:evenodd;clip-rule:evenodd;fill:#ED2224;}
	.st1{fill:#FFFFFF;}
	.st2{fill:none;stroke:#FFFFFF;stroke-miterlimit:10;}
	.st3{fill:none;stroke:#FFFFFF;stroke-linecap:round;stroke-linejoin:round;}
</style>
<g>
	<g>
		<path class="st0" d="M69.4,22.7C69.8,23.1,69.4,23.5,69.4,22.7L69.4,22.7z"/>
		<path class="st0" d="M69.2,25.5c0.2,0.6-0.2,1.5-0.8,1.7c-0.1-0.5,0.2-0.6,0.4-0.8c-0.2-0.2-0.1-0.2-0.1-0.5
			C69,25.9,68.8,25.5,69.2,25.5z"/>
		<path class="st0" d="M68.4,27.5c0,0.2,0.2-0.1,0.2-0.2c0.2,0.1-0.1,0.2,0,0.5c-0.5,0.1-0.8,0.2-0.6,0.8c-0.2,0.1-0.3,0.1-0.2,0.5
			c-0.4,0.1-0.7,0.4-1.1,0.2c0.4-0.2,1.6-2.2,1.9-2.1C68.6,27.3,68.5,27.5,68.4,27.5z"/>
		<path class="st0" d="M68.2,28.7c0,0.2-0.2,0.2-0.2,0.3c-0.2,0-0.1-0.4,0-0.4C68.1,28.7,68.1,28.7,68.2,28.7z"/>
		<path class="st0" d="M67.7,30.1c-0.1,0.3-0.2,0.5-0.5,0.6C67.1,30.4,67.5,30.1,67.7,30.1z"/>
		<path class="st0" d="M67.5,20.7c-0.1,0.2-0.5-0.2-0.2-0.4C67.5,20.3,67.5,20.5,67.5,20.7z"/>
		<path class="st0" d="M67.5,29.4c-0.2,0.2-0.2,0.4-0.5,0.5C67.1,29.5,67.3,29.4,67.5,29.4z"/>
		<path class="st0" d="M67.4,19c-0.1,0.2-0.2,0.2-0.4,0.4c-0.1,0.3,0.2,0.4,0,0.6c-0.2,0-0.1-0.4-0.5-0.3c0.2-0.1,0.3-0.2,0.3-0.5
			c0.1,0.1,0.4,0.1,0.2-0.2C67.2,19,67.3,19,67.4,19z"/>
		<path class="st0" d="M66.9,22.2c0-0.5-0.2-1,0.1-1.2C66.9,21.3,67.2,21.7,66.9,22.2z"/>
		<path class="st0" d="M66.8,31.3c0,0.2-0.2,0.2-0.3,0.2C66.5,31.4,66.6,31.1,66.8,31.3z"/>
		<path class="st0" d="M66.7,16.7c-0.2-0.4-0.3-1-0.6-1.2C66.4,15.4,66.7,16.1,66.7,16.7z"/>
		<path class="st0" d="M65.7,13.1c-0.1-0.1-0.4,0-0.5-0.2c0.1-0.1,0-0.2,0-0.4c0.5,0,0.5,0.6,0.9,0.7c-0.1,0.7,0.4,0.9,0.4,1.5
			c-0.1-0.4-0.6-0.8-0.6-1c-0.1,0-0.1,0-0.2,0c0.1,0.2,0.2,0.6,0.5,0.5c0,0.4,0.2,0.2,0.1,0.5c-0.2-0.1-0.4-0.2-0.4-0.5
			c-0.2,0.2-0.3,0.2-0.5,0.1c0.2-0.4-0.1-0.8-0.5-0.7c0.2-0.1,0.2-0.3,0-0.4c0.2,0,0.4,0,0.6,0.2C65.8,13.4,65.5,13.1,65.7,13.1z
			 M65.8,13.6c0.2,0,0.2-0.1,0.2-0.3C65.8,13.2,65.7,13.4,65.8,13.6z"/>
		<path class="st0" d="M66.5,9.5c-0.2,0.1-0.1-0.2-0.3-0.2c0-0.1,0.1-0.2,0.1-0.3C66.3,9.1,66.5,9.2,66.5,9.5z"/>
		<path class="st0" d="M66.4,24.8c0,0.2,0,0.4-0.2,0.4C66.2,24.9,66.2,24.7,66.4,24.8z"/>
		<path class="st0" d="M65.9,12.1c-0.1,0-0.2,0-0.2,0.1c-0.4-0.3-0.6-1-1.1-1.1c0-0.3,0.2-0.3,0.2-0.5c0.2,0,0.3,0.4,0.4,0.1
			C65.5,11,65.8,11.5,65.9,12.1z"/>
		<path class="st0" d="M65.4,18.8c-0.1,0.1-0.1,0.3-0.2,0.4c-0.3-0.1-0.2-0.5-0.2-0.8C65.3,18.3,65.1,18.8,65.4,18.8z"/>
		<path class="st0" d="M65.2,17.6c-0.1-0.2-0.1-0.5-0.2-0.7C65.2,17,65.2,17.3,65.2,17.6z"/>
		<path class="st0" d="M65.2,36.2c0,0.2-0.2,0.1-0.2,0.2c-0.2-0.1,0.1-0.2,0-0.5C65.1,36,65,36.3,65.2,36.2z"/>
		<path class="st0" d="M65,34.4c-0.2,0-0.3-0.1-0.2-0.3C64.9,34.1,64.9,34.3,65,34.4c-0.1-0.1,0-0.2,0-0.3
			C65,34.1,65.1,34.3,65,34.4z"/>
		<path class="st0" d="M64.8,37c0,0.2,0,0.3,0,0.5c-0.2,0.1-0.2,0.4-0.4,0.5C64.5,37.6,64.4,37,64.8,37z"/>
		<path class="st0" d="M64.6,28.7c-0.5,0.5-0.9,0.9-1.6,1.2C63.5,29.5,63.8,28.8,64.6,28.7z"/>
		<path class="st0" d="M64.6,29.7C64.5,30,64.2,30,63.9,30C64.1,29.8,64.2,29.6,64.6,29.7z"/>
		<path class="st0" d="M64.5,9.6c0,0.4-0.4-0.1-0.4,0.4c-0.1-0.1-0.2-0.2-0.2-0.4c0.4,0,0.1-0.2,0.1-0.4c0.1,0,0.1,0,0.1-0.1
			C64.3,9.2,64.3,9.6,64.5,9.6z"/>
		<path class="st0" d="M64.5,19.4c-0.2,0-0.2-0.1-0.2-0.3C64.5,19.1,64.5,19.2,64.5,19.4z"/>
		<path class="st0" d="M63.9,40c-0.1,0.2-0.3-0.3-0.3,0.2c-0.2-0.1,0-0.8,0-1.1C63.6,39.4,63.8,39.6,63.9,40z"/>
		<path class="st0" d="M63.8,36.9c-0.2,0.1-0.2-0.4-0.1-0.5C63.8,36.5,63.8,36.7,63.8,36.9z"/>
		<path class="st0" d="M63.3,41.1c-0.2-0.1,0.1-0.3,0.1-0.5c0,0.2,0.3,0.2,0.1,0C63.9,40.5,63.5,41.1,63.3,41.1z"/>
		<path class="st0" d="M63.4,34.1c0,0.2-0.3,0.1-0.2,0.3c-0.2-0.1-0.1-0.2-0.1-0.5C63.3,33.9,63.2,34.2,63.4,34.1z"/>
		<path class="st0" d="M63.3,41.7c0.1,0.1,0,0.4-0.2,0.4C63.1,41.8,63.3,41.8,63.3,41.7z"/>
		<path class="st0" d="M63.1,34.6c-0.1,0.5-0.4,0.8-0.6,1.2C62.5,35.5,62.6,34.6,63.1,34.6z"/>
		<path class="st0" d="M63,42.5c-0.7,0.9-1.4,1.9-2.4,2.6c0.1-0.9,1.4-0.8,1.3-1.8c0.4-0.2,0.7-0.3,0.8-0.8
			C62.8,42.5,62.9,42.5,63,42.5z"/>
		<path class="st0" d="M62.5,35.9c0,0.4-0.4,0.5-0.5,0.8C61.9,36.4,62.2,35.9,62.5,35.9z"/>
		<path class="st0" d="M62.1,44.8c-0.1,0.2-0.2,0.4-0.3,0.5C61.7,45.2,61.9,44.8,62.1,44.8z"/>
		<path class="st0" d="M62,32.4c-0.1,0.2-0.2,0.4-0.3,0.5C61.6,32.8,61.6,32.4,62,32.4z"/>
		<path class="st0" d="M61.9,38.4c0.1,0.6-0.2,0.8-0.4,1.1c-0.1,0-0.1-0.1-0.1-0.2c-0.4,0.2-0.1,1.2-0.7,1.2c0.1-0.4,0.6-1,0.3-1.3
			c0.1-0.4,0.5-0.5,0.5-0.9C61.8,38.4,61.7,38.5,61.9,38.4z"/>
		<path class="st0" d="M61.9,37.1c0.1,0.5-0.4,0.6-0.3,1.2c-0.2,0-0.2,0-0.3-0.1c0.1-0.3,0.3-0.7,0.2-1.1
			C61.7,37.2,61.7,37,61.9,37.1z"/>
		<path class="st0" d="M61.2,46.8c0.2,0.1-0.1,0.4-0.2,0.3C61,46.9,61.2,46.9,61.2,46.8z"/>
		<path class="st0" d="M60.6,36.5c0,0.1,0,0.2,0,0.2c-0.1,0.1-0.3,0.1-0.5,0.2C60.3,36.7,60.4,36.4,60.6,36.5z"/>
		<path class="st0" d="M60.6,43.5c0,0.2-0.2,0.2-0.2,0.3c-0.2-0.1-0.1-0.2-0.1-0.4C60.5,43.4,60.6,43.5,60.6,43.5z"/>
		<path class="st0" d="M60.5,39.1c0.2,0.2-0.1,0.6-0.3,0.5C60.3,39.5,60.4,39.3,60.5,39.1z"/>
		<path class="st0" d="M60.3,41.4c-0.2,0.5-0.8,0.5-1.3,0.7C59.4,41.9,59.7,41.2,60.3,41.4z"/>
		<path class="st0" d="M59.9,40.5c-0.2,0.4-0.6,0.5-1.1,0.8C59,40.8,59.6,40.7,59.9,40.5z"/>
		<path class="st0" d="M59.7,6c-0.1,0.4-0.5-0.1-0.6-0.1c0.1-0.1,0.1-0.2,0.1-0.3C59.3,5.7,59.4,6,59.7,6z"/>
		<path class="st0" d="M59,40.4c0.2,0.4-0.3,0.7-0.6,0.8c0-0.2,0.1-0.3,0.1-0.5s-0.2,0.2-0.1-0.2c-0.2,0.1-0.3,0.2-0.5,0.2
			c0.2-0.3,0.4-0.5,0.7-0.7c0.1,0.1,0.1,0.2,0.1,0.1C58.7,40.2,58.7,40.7,59,40.4z"/>
		<path class="st0" d="M58.9,4c-0.2-0.1-0.4,0-0.6,0C58.3,3.5,58.8,3.8,58.9,4z"/>
		<path class="st0" d="M58.7,47.3c-0.2,0.2-0.5,0.3-0.8,0.2c0.1-0.2,0.4-0.4,0.4-0.7C58.4,47,58.4,47.3,58.7,47.3z"/>
		<path class="st0" d="M58.3,41c-0.1,0.4-0.5,0.5-0.8,0.7c0.1-0.4,0.4-0.3,0.4-0.7C58,41,58.1,41,58.3,41z"/>
		<path class="st0" d="M57.8,3.5c0.1-0.1,0-0.4,0.2-0.3C58.1,3.4,58.1,3.6,57.8,3.5z"/>
		<path class="st0" d="M57.7,41c-0.2,0.2-0.5,0.3-0.8,0.4c0-0.4,0.4-0.3,0.5-0.6C57.6,40.8,57.6,40.9,57.7,41z"/>
		<path class="st0" d="M57.3,2.5c-0.2,0.1-0.8-0.2-0.6-0.5C57,2,57.1,2.4,57.3,2.5z"/>
		<path class="st0" d="M56.7,42.9c-0.2,0.2-0.5,0.2-0.8,0.4C56,43,56.4,42.9,56.7,42.9z"/>
		<path class="st0" d="M55.8,2.2c0,0.2-0.3-0.1-0.2,0.2C55.4,2.4,55.7,2,55.8,2.2z"/>
		<path class="st0" d="M55.4,43.1c-0.2,0.2-0.5,0.3-0.8,0.3C54.7,43.1,55.1,42.8,55.4,43.1z"/>
		<path class="st0" d="M55,4.8c-0.1,0.2-0.2-0.1-0.3,0c0.1-0.1,0.1-0.1,0.1-0.2C54.8,4.6,54.8,4.8,55,4.8z"/>
		<path class="st0" d="M54.7,6c-0.2,0-0.3,0-0.2-0.2C54.6,5.7,54.7,5.8,54.7,6z"/>
		<path class="st0" d="M54.4,46.7c-0.1,0.1-0.5,0.3-0.6,0.2C53.8,46.6,54.1,46.7,54.4,46.7z"/>
		<path class="st0" d="M52.5,5.2c-0.1,0.1-0.1,0.2-0.2,0.2c-0.6-0.4-1.4-0.5-1.9-0.9c0.2-0.3,0.4-0.4,0.6-0.2
			c0.2-0.2-0.2-0.2-0.2-0.5C51.3,4.4,51.9,4.7,52.5,5.2z"/>
		<path class="st0" d="M52.2,48.9c-0.1,0.3-0.2-0.1-0.3,0.2C51.6,49,52,48.9,52.2,48.9z"/>
		<path class="st0" d="M51.8,1.8c-0.1,0.3-0.3-0.1-0.5-0.1C51.4,1.6,51.7,1.8,51.8,1.8z"/>
		<path class="st0" d="M48.2,47.6c1.1-0.1,2.1-0.4,3.2-0.5c-0.1,0.2-0.3,0.2-0.6,0.2c0,0.3,0.1,0,0.2,0.1c0,0.4-0.5,0.2-0.6,0.1
			c-0.5,0.2-1.2,0.1-1.6,0.2c-0.1,0-0.1-0.1-0.1-0.1C48.7,47.6,48.4,47.7,48.2,47.6z"/>
		<path class="st0" d="M51.2,2.4c-0.3,0.1-0.8-0.2-1.1-0.5c0.2,0.1,0.7,0,0.9,0.2C50.9,2.3,51.1,2.3,51.2,2.4z"/>
		<path class="st0" d="M50.9,50c0.1,0.2-0.1,0.2-0.1,0.4c-0.6-0.1-1.3,0.5-1.5-0.1C49.9,50.3,50.4,50.2,50.9,50z"/>
		<path class="st0" d="M48,49.3c0-0.1,0.1-0.2,0.2-0.2C48,49,47.8,49,47.6,48.9c-0.2-0.1,0.4-0.1,0.6-0.1c-0.1-0.2-0.4-0.1-0.5-0.2
			c0.8-0.5,2.2-0.4,3.1-0.7c0.2,0.8-0.5,0.8-0.8,0.8c-0.2,0.1,0,0.2-0.1,0.3c-0.2,0-0.5,0.1-0.5-0.2c-0.2,0-0.4,0-0.6,0
			c-0.1,0.1,0.1,0.3-0.2,0.2c-0.1,0.2,0,0.1,0,0.3c-0.2-0.1-0.5,0.3-0.6-0.1C48,49.2,48,49.3,48,49.3z"/>
		<path class="st0" d="M50.1,3.5c0,0.2-0.2,0.1-0.1,0.3c-0.1-0.3-0.5-0.4-0.7-0.4c0-0.2,0.3,0,0.3-0.4C49.7,3.2,49.9,3.4,50.1,3.5z"
			/>
		<path class="st0" d="M49.4,47c-0.1,0.2-0.5,0-0.8,0.1c-0.1-0.1,0.5-0.1,0.6-0.2C49.2,47,49.3,47,49.4,47z"/>
		<path class="st0" d="M49.2,44.4c0,0.5-0.8,0.4-1.3,0.2C48,44.2,48.9,44.7,49.2,44.4z"/>
		<path class="st0" d="M48.2,48c0.1,0.1-0.8,0.2-0.8-0.1C47.7,47.9,47.9,48.1,48.2,48z"/>
		<path class="st0" d="M47.5,48.6c0,0.4-0.3-0.1-0.5,0.1C47,48.5,47.3,48.6,47.5,48.6z"/>
		<path class="st0" d="M46,46.3c-0.5,0.4-1.2,0.4-1.7,0c0.4,0,0.9,0.2,1.1-0.2C45.5,46.2,45.8,46.1,46,46.3z"/>
		<path class="st0" d="M45.4,44.6c-0.1,0.2-0.5,0.2-0.5-0.1C45.2,44.4,45.2,44.6,45.4,44.6z"/>
		<path class="st0" d="M45.4,44.2C44.7,44.5,44.6,44,45.4,44.2L45.4,44.2z"/>
		<path class="st0" d="M43,46.5c-0.4-0.5-1.5-0.1-1.7-0.8c0.6,0.2,1.2,0.5,1.9,0.5c0.2,0.6,1.1,0.2,1.5,0.5
			c-0.6,0.6-1.8-0.2-2.6-0.2C42.4,46.4,42.7,46.4,43,46.5z"/>
		<path class="st0" d="M43,51.9c0.2-0.2,0.6,0,0.8,0C43.7,52.1,43.3,51.9,43,51.9z"/>
		<path class="st0" d="M43.4,52.1c-0.2,0.1-0.4,0.2-0.6,0.1C43,52.1,43.2,52,43.4,52.1z"/>
		<path class="st0" d="M43.3,48.6c-0.2,0.2-0.5,0.1-0.7,0C42.7,48.5,43.1,48.6,43.3,48.6z"/>
		<path class="st0" d="M42.8,3.6c-0.1,0.1-0.1,0.1-0.1,0.2c-0.2,0-0.4-0.2-0.5-0.4C42.5,3.5,42.5,3.7,42.8,3.6z"/>
		<path class="st0" d="M42.4,1.7c0.1,0.1,0,0.5,0,0.6c-0.2,0,0.1-0.4-0.2-0.5C42.2,1.7,42.4,1.8,42.4,1.7z"/>
		<path class="st0" d="M42,53.2c-0.1,0.2-0.4,0.1-0.5,0.1C41.5,53,41.7,53.1,42,53.2z"/>
		<path class="st0" d="M41.2,46.2c0.1,0.2-0.3-0.1-0.2,0.2c-0.1-0.2-0.3-0.2-0.5-0.3C40.7,45.8,40.9,46.3,41.2,46.2z"/>
		<path class="st0" d="M40.2,44c-0.2,0.2-1.1,0-1.2-0.4C39.6,43.7,39.8,44,40.2,44z"/>
		<path class="st0" d="M40.1,3.1c-0.2,0.1-0.5,0.4-0.6,0.2c0-0.1,0.2-0.1,0.1-0.3C39.8,3,40,3,40.1,3.1z"/>
		<path class="st0" d="M39.6,52.8c0,0.1,0,0.2,0,0.2c-0.4,0-0.6-0.1-0.8-0.2C39.1,52.8,39.4,52.8,39.6,52.8z"/>
		<path class="st0" d="M38.9,51.7c-0.2,0.2-0.4,0.1-0.5,0C38.5,51.5,38.6,51.8,38.9,51.7z"/>
		<path class="st0" d="M38.6,45.6c-0.5,0.1-1.1-0.4-1.4-0.7C37.8,45,38.1,45.3,38.6,45.6z"/>
		<path class="st0" d="M38.6,52.2c-0.1,0.1-0.1,0.1,0,0.2c-0.1,0.2-0.4-0.1-0.6-0.2C38.2,52,38.5,52.3,38.6,52.2z"/>
		<path class="st0" d="M38.6,1.8c-0.2,0.4-0.8,0.4-1.3,0.5C37.5,2,38.2,2.1,38.6,1.8z"/>
		<path class="st0" d="M37.5,47.4c-0.3,0.2-1-0.3-1.4-0.5C36.5,46.9,37,47.3,37.5,47.4z"/>
		<path class="st0" d="M35.3,51.6c-0.3,0.2-0.7-0.2-0.9-0.3C34.6,51.1,34.9,51.6,35.3,51.6z"/>
		<path class="st0" d="M34.2,5.9c0,0.2-0.2,0-0.2,0.3C33.7,6.1,34,5.8,34.2,5.9z"/>
		<path class="st0" d="M34.1,2C34,2.1,34,2.3,33.8,2.2C33.8,2,33.9,2,34.1,2z"/>
		<path class="st0" d="M33.6,4c-0.3,0-0.5,0.1-0.6,0.3c-0.4-0.4,0.5-0.5,0.6-0.9C33.9,3.5,33.6,3.8,33.6,4z"/>
		<path class="st0" d="M33.2,49.7c-0.3,0.2-0.5,0-0.8,0c0.2-0.1,0.2-0.1,0.1-0.4C32.9,49.3,32.9,49.6,33.2,49.7z"/>
		<path class="st0" d="M33.1,50.7c-0.1,0.1-0.3,0.1-0.4,0.2c-0.1-0.3-0.4-0.4-0.6-0.6c0-0.1,0-0.1,0.1-0.1c0-0.1,0-0.1,0-0.2
			c0.3-0.1,0.4,0.4,0.8,0.4C32.9,50.6,33,50.7,33.1,50.7z"/>
		<path class="st0" d="M32.9,48.8c-0.1,0.4-0.7,0-0.8-0.4C32.4,48.6,32.6,48.7,32.9,48.8z"/>
		<path class="st0" d="M32.6,46.6c0,0.1-0.1,0.1-0.1,0.2C32,46.5,31.6,46,31.1,46c-0.5-1.1-1.9-1.1-2.2-2.4
			C30,44.7,31.2,45.7,32.6,46.6z"/>
		<path class="st0" d="M32,47.7c-0.1,0.5-0.4-0.2-0.6-0.2C31.5,47.3,31.7,47.7,32,47.7z"/>
		<path class="st0" d="M31.7,48.8c0,0.2-0.4,0.1-0.4,0s0.2-0.1,0.2-0.2C31.7,48.6,31.6,48.8,31.7,48.8z"/>
		<path class="st0" d="M31.5,47.8c-0.1,0.1-0.1,0.2-0.1,0.3c-0.4-0.1-0.5-0.3-0.7-0.5C31,47.6,31.2,47.8,31.5,47.8z"/>
		<path class="st0" d="M31.3,49.3c-0.2-0.1-0.2-0.4-0.5-0.3c0-0.1,0.1-0.1,0.1-0.2C31.1,48.9,31.3,49,31.3,49.3z"/>
		<path class="st0" d="M30.1,8L30,8.2C29.4,8.3,29.7,7.9,30.1,8z"/>
		<path class="st0" d="M29.7,48.3c-0.2,0.4-0.6-0.1-0.8-0.3C29,47.7,29.4,48.3,29.7,48.3z"/>
		<path class="st0" d="M28.8,11.6c0,0.4-0.3,0.3-0.5,0.2C28.4,11.6,28.6,11.6,28.8,11.6z"/>
		<path class="st0" d="M27.9,10.2c-0.1,0.2-0.4,0.2-0.5,0.5c-0.4-0.2-0.5,0.1-0.8,0.1C27,10.3,27.4,10.3,27.9,10.2z"/>
		<path class="st0" d="M26.8,8.4c-0.2,0.1-0.6,0.4-0.8,0.2C26,8.2,26.7,8.4,26.8,8.4z"/>
		<path class="st0" d="M26.4,9.3c-0.1,0.2-0.2,0.2-0.4,0.2C25.9,9.3,26.1,9.3,26.4,9.3z"/>
		<path class="st0" d="M25.9,46.7c-0.1,0.1,0.1,0.1,0,0.4c-0.4,0-0.4-0.4-0.7-0.4C25.4,46.4,25.7,46.7,25.9,46.7z"/>
		<path class="st0" d="M25.9,43.6c-0.5,0.1-0.8-0.5-0.9-1C25.2,43,25.8,43,25.9,43.6z"/>
		<path class="st0" d="M25.3,26.5c-0.1-0.1-0.2-0.1-0.2-0.4C25.3,26.1,25.3,26.3,25.3,26.5z"/>
		<path class="st0" d="M25.1,33.9c-0.1,0-0.2-0.1-0.2,0.1c-0.2-0.2-0.2-0.7-0.4-1.2c0.2,0.1,0.3,0.4,0.4,0.6c0.1,0,0.2,0,0.2-0.2
			C25.2,33.4,24.9,33.6,25.1,33.9z"/>
		<path class="st0" d="M24.9,28.7c-0.3-0.1-0.2-0.6-0.4-0.9C24.9,27.8,24.8,28.3,24.9,28.7z"/>
		<path class="st0" d="M24.5,10.8c0.1,0.1-0.3,0.2-0.5,0.2c0.1-0.1,0.1-0.2,0.1-0.3C24.4,10.5,24.3,10.8,24.5,10.8z"/>
		<path class="st0" d="M24.3,41.2c-0.2-0.1-0.4-0.2-0.3-0.6C24.2,40.7,24.3,40.9,24.3,41.2z"/>
		<path class="st0" d="M24.1,23.6c0,0.3,0,1.8-0.1,0.7C24.1,24.2,23.9,23.6,24.1,23.6z"/>
		<path class="st0" d="M23.6,33.7c-0.2-0.1-0.2-0.5-0.3-0.8C23.5,33,23.5,33.4,23.6,33.7z"/>
		<path class="st0" d="M23.3,7.8C23.3,8,23.1,8,22.9,8C23,7.9,23.2,7.8,23.3,7.8z"/>
		<path class="st0" d="M22.7,11.8c-0.1,0.4-0.6,0.4-0.8,0.8c-0.2-0.1,0.1-0.3,0.1-0.3c0-0.2-0.3-0.1-0.2,0.1
			C21.7,11.8,22.5,12,22.7,11.8z"/>
		<path class="st0" d="M22.2,20.7c0.1,0,0,0.3,0.1,0.4c-0.2-0.2-0.2,0.4-0.3,0.5c-0.2-0.3-0.1-0.6,0.1-0.8
			C22,20.9,22.3,21.2,22.2,20.7z"/>
		<path class="st0" d="M21.9,31c-0.4-0.5-0.6-1.1-0.6-2c0.1,0.1,0.2,0.1,0.2-0.2C21.9,29.2,22.2,30.4,21.9,31z"/>
		<path class="st0" d="M21.5,22.7c0-0.2,0-0.4,0-0.5C21.6,22.2,21.7,22.7,21.5,22.7z"/>
		<path class="st0" d="M20.6,35.2c-0.2-0.1-0.2-0.4-0.3-0.7C20.5,34.6,20.6,34.9,20.6,35.2z"/>
		<path class="st0" d="M20.6,37c-0.2,0-0.1-0.2-0.2-0.3C20.4,36.5,20.6,36.8,20.6,37z"/>
		<path class="st0" d="M19.9,31.1c0,0.1-0.1,0.1-0.1,0.2c-0.1-0.3-0.2-0.5-0.2-0.8C19.8,30.5,19.7,31,19.9,31.1z"/>
		<path class="st0" d="M19.7,32.5c-0.2-0.1-0.2-0.4-0.3-0.6c0.1,0,0.2,0,0.2,0C19.7,32,19.9,32.4,19.7,32.5z"/>
		<path class="st0" d="M19.6,11.4C19.6,12.3,18.7,11.8,19.6,11.4L19.6,11.4z"/>
		<path class="st0" d="M19.6,31.6c-0.2,0-0.2-0.6-0.2-0.6C19.5,31,19.6,31.5,19.6,31.6z"/>
		<path class="st0" d="M18.9,29c0-0.5-0.4-1-0.1-1.3C18.9,27.9,19.2,28.9,18.9,29z"/>
		<path class="st0" d="M18.6,29.1c-0.2-0.2-0.2-0.5-0.2-0.9C18.6,28.3,18.5,28.8,18.6,29.1z"/>
		<path class="st0" d="M18.3,26.1c-0.4,0-0.4-0.6-0.6-0.9c-0.1,0.1-0.2,0.2-0.4,0.2c0-0.2-0.1-0.2-0.1-0.5c0.2,0.2,0.5,0.1,0.6-0.2
			C18.3,24.9,18.2,25.6,18.3,26.1z"/>
		<path class="st0" d="M17.1,19.1c-0.3,0.1,0.1-0.5-0.2-0.4c0-0.2,0.2-0.2,0.1-0.5C17.3,18.4,17.1,18.8,17.1,19.1z"/>
		<path class="st0" d="M17.2,23.7c-0.4,0-0.4,0.2-0.7,0.1c-0.1-0.4,0.1-0.6,0.1-0.9c0.1,0,0.2,0,0.3,0c0-0.2-0.1-0.7,0-0.9
			C17.1,22.5,17.3,22.9,17.2,23.7z"/>
		<path class="st0" d="M17.1,28.9c-0.2,0.1-0.2-0.2-0.2-0.4C17.1,28.5,17.1,28.7,17.1,28.9z"/>
		<path class="st0" d="M16.4,20.1c0.2,0.2-0.1,0.5-0.1,0.8C16.1,20.6,16.3,20.3,16.4,20.1z"/>
		<path class="st0" d="M65.9,29.5c0-0.1-0.1-0.2-0.1-0.2c-0.8,0.2-0.6,0.7-0.9,1.4c0.1,0.2,0.3-0.1,0.3,0.2c-0.2-0.2-0.1-0.1-0.4,0
			c0-0.2,0-0.4-0.1-0.5c-0.6,0.5-1.3,0.8-1.9,1.2c0.1,0.1,0.2,0.1,0.1,0.2c-0.5,0.1-1.4,0.1-1.6,1c-0.2-0.4-0.5,0.1-0.7-0.2
			c-0.6,0.3-1.6,0.7-1.8,1.5c-0.8,0.1-1.2,0.2-1.2,0.9c-0.7,0.1-1.1,1.1-1.5,1.8c0.4,0.4-0.5,0.8-0.4,1.1c-0.4-0.1-0.3,0.2-0.4,0.5
			c0.3,0.2,0.5-0.5,0.9-0.5c-0.2,0.4-0.6,0.5-0.8,0.9c0.1,0.2,0.5,0,0.6-0.1c0.2,0.2-0.3,0.3-0.3,0.5c0.1,0.3,0.2,0.1,0.4,0.1
			c0,0.2-0.4,0.1-0.4,0.3c0.5,0.1,0.9-0.6,1.3-1c0-0.2-0.2-0.2-0.3-0.2c0-0.2,0.4-0.1,0.3-0.4c0.1,0.1,0.2,0.2,0.1,0.3
			c0.3-0.1,0.4-0.5,0.6-0.6c-0.1-0.2-0.2,0.2-0.4,0.2c0-0.1,0.1-0.1,0.1-0.2c-0.4,0.1-0.5,0.6-0.9,0.5c0.5-0.5,1.4-0.7,1.7-1.6
			c0.4-0.1,0.6,0.1,0.7-0.5c-0.1,0-0.1,0.1-0.2,0.1c0.2,0.2,0.1,0.1-0.1,0.2c0-0.4,0.1-1.3,0.8-1c0.1-0.2,0.2-0.3,0.2-0.5
			c-0.2,0-0.1-0.1,0-0.4c-0.1-0.5-0.4,0.2-0.5,0c0.2-0.6,1-0.6,1.3-1.1c0.1,0.3-0.3,0.7-0.6,0.8c0.1-0.1,0.4,0,0.5,0.2
			c0.4-0.5,0.7-1.5,1.2-1.6c0.2,0.1-0.2,0.5-0.1,0.5c-0.6,0.2-0.7,1.2-1.2,1.2c0,0.1,0.1,0.1,0.1,0.2c-0.1,0.1-0.2,0-0.2,0.4
			c-0.2,0.2-0.4,0.1-0.4,0.4c-0.5,0-0.6,0.2-0.8,0.5c0.7,0.2,0.9-0.8,1.5-0.8c0.1,0.2-0.1,0.2-0.1,0.3c0.1-0.1,0.2-0.2,0.4-0.2
			c-0.1,0.2,0.1,0.3,0.1,0.5c-0.2,0-0.2,0.2-0.3,0.3c-0.2,0,0.1-0.2,0.1-0.3s-0.1-0.1-0.1-0.2c-0.1,0.1-0.2,0.4-0.3,0.5
			c-0.1-0.1,0-0.4,0.1-0.5c-0.2,0.1-0.5,0.2-0.7,0.4c0,0.2,0.2,0.2,0.3,0.2c0,0.6-0.1,1.8-0.8,1.7c-0.1-0.2,0.1-0.2,0.1-0.3
			c-0.2,0-0.3,0.1-0.5,0.1c-0.3,0.5-0.8,0.8-1.2,1.1c0.1,0.1,0.1,0.1,0.2,0.2c-0.2,0.3-0.5,0.1-0.7,0.4c-0.2-0.1,0.2-0.2,0.2-0.4
			c-0.5,0.2-0.9,0.6-1.3,1c0.3,0,0.4-0.2,0.6-0.3c0.2-0.1-0.1,0.4,0.2,0.2c-0.2,0.3-0.6,0.2-0.5,0.6c-0.2-0.2-0.6-0.1-0.6,0.4
			c0.8,0,1.5-0.6,2.5-0.9c-0.5,0.5-1.5,0.9-1.8,1.1c0,0.1-0.1,0.4-0.1,0.6c-0.4,0.1-0.6-0.1-0.7,0.5c0.6-0.4,1.5-0.4,2.1-0.7
			c-0.3,0.5-1.1,0.2-1.3,0.8c-0.1-0.2-0.7-0.1-0.7,0.2c-0.4-0.1-0.6,0.1-0.9,0.1c0,0.2-0.1,0.5,0.1,0.5c-0.2,0.5-0.8,0.1-0.9,0.5
			c0,0.1,0.1,0.1,0.1,0c-0.1,0.5-0.7,0.2-1.1,0.3c-0.5,0.1-1,0.4-1.3,0.4c-0.1-0.1-0.2,0-0.2-0.2c-0.2,0.2-0.4,0.1-0.5,0.2
			c0.1,0.1,0-0.5-0.2-0.2c0.2-0.4,1.1,0.1,1.5-0.3c-0.4-0.8-1.2,0-2.1,0.1c0.1-0.1,0.2-0.1,0.3-0.2c-0.1-0.2-0.5,0-0.6,0
			c-0.2,0.1,0.1,0.2-0.1,0.3c-1,0-1.5,0.2-2.2,0.8c0.1,0.2,0.2,0.2,0.1,0.3c-0.3,0.4-1.2,0-1.4,0.5c0.1,0.1,0.1,0.1,0.2,0.2
			c-0.1,0.3-0.4,0-0.8,0c0-0.3,0.1,0,0.2-0.2c-0.1-0.2-0.8-0.3-0.8,0c-1.4-0.3-2.8-0.2-4.2-0.5c0.1-0.2,0.5,0,0.7-0.1
			c-0.6-0.6-1.8-0.2-2.5-1c0.9,0.4,1.6,0.2,2.6,0.5c0.1-0.3-0.3-0.1-0.2-0.4c1.9,0,3.9,1.1,5.6,0.2c-0.5-0.1-0.6-0.6-1.2-0.4
			c-0.1-0.4,0.8-0.1,0.8-0.5c0.3,0.1,0.2,0.2,0.3,0.5c0.1-0.1,0.1-0.1,0.2-0.1c0-0.1-0.1-0.1-0.1-0.2c0.2-0.1,0.4-0.2,0.8-0.2
			c-0.4-0.2-0.7,0.1-1.3-0.2c0.5-0.1,1-0.2,1.4-0.2c-0.1-0.2-0.5-0.4-0.6-0.1c-0.1-0.1-0.2-0.1-0.2-0.3c0.2-0.1,0.4-0.1,0.5-0.2
			c-1.3-0.1-2.8,0.2-4.2,0c0.5,0.2,1,0.4,1.6,0.6c-0.1,0.8-1.5,0.8-1.9,0.4c0.1-0.2,0.4,0.1,0.6,0c0-0.1-0.1-0.1-0.2-0.1
			c0-0.1,0.1-0.1,0.1-0.2c-0.5-0.3-1.2,0.1-1.9,0.2C41.2,43,40.3,43,40,42.5c-0.2,0-0.2,0.1-0.3,0c0.2-0.1,0-0.3,0.4-0.2
			c-0.6-0.5-1.5-0.8-2.3-1.1c0.1,0.2,0.4,0.2,0.5,0.3c-0.3,0.2-0.5-0.3-0.8-0.1c0.5,0.5,1.4,0.5,1.9,0.9c-1.5,0.3-2.8-1.1-4.1-1.5
			c0.1,0.4,0.5,0.4,0.5,0.8c-0.2-0.1-0.3-0.2-0.5-0.4c-0.1,0-0.1,0.1-0.1,0.2c0.1,0,0.3,0.2,0.5,0.3c-0.4,0.4,0.4,0.4,0.6,0.7
			c-0.2,0.3,0.1,0.2,0.1,0.6c1.5,0.4,2.7,1.1,4.1,1.6c-1.5,0.2-2.9-0.9-4.3-1.2c-0.2-0.3-0.5-0.4-0.9-0.5c0.2,0.2,0.4,0.5,0.7,0.5
			c-0.8,0.3-1.5-0.4-2.2-0.8c0.1,0.4,0.8,0.8,1.4,0.9c0.1,0.2,0.2,0.4,0.4,0.5c0-0.3,0.9,0.4,1.1,0.5c0.1,0.1,0.1,0.2-0.1,0.3
			c0.5,0.4,1.2,0.6,1.9,0.8c0-0.2,0-0.2-0.1-0.2c0.2,0,0.6-0.2,0.7,0.2c-0.1-0.1-0.4-0.1-0.5-0.1c-0.1,0.3,0.3,0.1,0.3,0.2
			c-0.1,0.2-0.5,0-0.6,0c0.5,0.5,1.5,0.6,1.9,1.1c-0.3-0.1-1.1-0.2-1.4-0.7c-0.8,0.1-1.1-0.4-1.8-0.5c0.1-0.2,0.1-0.1,0.3-0.1
			c-0.3-0.3-0.8-0.4-1.2-0.5C36,45,36,45.1,36,45.2c-1-0.2-1.7-1.2-2.6-1.1c-0.2,0.1,0.1,0.2,0,0.3C33,44,32.1,44.1,32,43.6
			c-0.2,0.1-0.4-0.1-0.6-0.2c0,0.6,1.3,0.6,1.2,1.5c-0.2-0.1-0.4-0.3-0.5-0.5c-0.2-0.1-0.1,0.2-0.3,0.2c-0.7-0.7-1.4-1.5-2.4-2.1
			c0.1-0.3,0.3,0,0.4,0.1c0.1,0,0.1-0.2,0.1-0.4c-0.2,0.1-0.1,0.1-0.1,0c0-0.4-0.5-1.1-0.5-1.5c0.2-0.1,0.1,0.1,0.2-0.2
			c0.3-0.1,0.2,0.4,0.5,0.4c0.1-0.4,0-0.3,0.2-0.1c0-0.4-0.4-0.4-0.6-0.5c0.1-0.1,0.1,0,0.2,0c0-0.4-0.3-0.5-0.5-0.5
			c0.4,0.1,0.2-1-0.3-1.2c0.3-0.3-0.2-0.5-0.3-0.8c0-0.1,0.2,0,0.2-0.2c-0.2-0.2-0.4-0.2-0.6-0.2c0.2-0.2,0.1-0.2-0.1-0.5
			c-0.3,0.4-0.5-0.5-0.8-0.5c-0.2,0.5,0.4,0.6,0.4,1.1c-0.4,0-0.1,0.2-0.2,0.3c-0.4-0.2-0.5-0.8-0.9-1c-0.1,0.1,0.2,0.4,0.2,0.5
			s-0.1,0-0.1,0c0.1,0.4,0.4,0.6,0.5,0.9C26.8,38,27,39.1,26.5,39c0.1,0.4,0.4,0.4,0.5,0.7c0.2,0,0.2-0.1,0.4-0.1
			c0,0.3,0.4,0.2,0.3,0.5c-0.3,0.1-0.2-0.2-0.5-0.2c-0.1,0.2,0.2,0.4,0.2,0.5c-0.5-0.1-0.8-0.8-1.3-1.1c-0.1,0.1-0.1,0.2-0.2,0.2
			c0-0.2-0.1-0.2-0.1-0.3c-0.1,0.1-0.1,0.1-0.2,0.1c0.3,1.1,1.4,1.4,1.8,2.4c-1.2-0.9-2-2.3-3.1-3.3c-0.1,0,0,0.3-0.1,0.4
			c-1.1-0.6-1.2-1.7-1.6-3.1c0.3,0.2,0.4,0.6,0.6,0.8c0-0.2-0.2-0.3-0.1-0.6c0.1,0.1,0.2,0.2,0.2,0.5c0.2-0.1-0.1-0.2,0-0.5
			c0.6,0.4,0.6,1.4,1.2,1.9c-0.1-0.8-0.5-1.2-0.6-2c0.1,0,0.1-0.1,0.1-0.2c0.1,0.1,0,0.4,0.2,0.3c0.1-0.5-0.3-1.1-0.5-1.6
			c0.4-0.1,0.5-0.2,0.8,0.2c0-0.2-0.1-0.2-0.1-0.5c0.2,0.2,0.4,0.5,0.5,0.7c0.1,0.1,0.1-0.1,0.1-0.2c0.4,0.7,0.8,1.3,1.2,1.9
			c-0.1-0.4-0.4-0.5-0.4-1.1c0.1,0,0.1,0.1,0.2,0.1c-0.5-0.9-0.1-2.1-0.7-2.8c0.2-0.4-0.2-0.6-0.2-0.9c-0.2,0.2,0,0.6,0.1,0.8
			c-0.1,0.1-0.4-0.3-0.3-0.5c-0.2-0.1-0.1,0.2-0.4,0.2c0.1-0.4-0.3-0.9-0.3-1.5c0.1,0,0.1,0,0.2,0c0.1-0.6-0.5-0.6-0.4-1.1
			c0.1,0,0,0.2,0.1,0.2c0-0.3-0.2-0.9,0.2-1.2c-0.1-0.1-0.1-0.1-0.2-0.2c0-0.2,0.2-0.1,0.2-0.2s-0.2-0.1-0.2,0
			c-0.2-0.1,0.2-0.2,0.1-0.4c-0.2,0-0.2-0.2-0.3-0.4c0.1-0.2,0.1-0.5,0.5-0.5c0,0.6,0.2,0.9,0.3,1.3c0.8-0.2,0.5-0.9,0.8-1.5
			c-0.1,0.1-0.1,0.1-0.2,0.1c0.2-0.1,0.1-0.5,0.3-0.5c0-0.2-0.3,0.1-0.2-0.2c0.1,0,0.1,0,0.2,0c-0.2-0.4-0.1-0.6,0.1-1
			c-0.2-0.1-0.1,0.2-0.2,0.2c-0.2-0.9,0.4-1.3,0.1-2.3c0.2-0.4,0.1-0.6,0.3-0.9c-0.1-0.1-0.2-0.1-0.1-0.2c-0.1,0-0.1,0.1-0.1,0.2
			c-0.1,0-0.1-0.5,0-0.5c0-0.1-0.2-0.1-0.2-0.2c-0.2,0.4,0.1,0.5-0.1,0.8c-0.2-0.2-0.2-0.6-0.3-1c-0.3,0.1-0.1,0.6-0.2,0.8
			c-0.1,0-0.1-0.2-0.2-0.3c0.2-0.3,0.1-0.5,0.1-0.8c-0.2-0.1-0.1,0.1-0.3,0.1c0.1,0.5-0.1,0.7-0.1,1.1c-0.1-0.1-0.1-0.3-0.2-0.4
			c-0.1,0.2-0.2,0.4-0.2,0.8c-0.1-0.2-0.5-0.2-0.5-0.6c-0.2,0.1-0.2,0.1-0.4,0.2c0.1,0.2-0.1,0.3-0.1,0.5c-0.3-0.2,0.1-1.4-0.4-1.5
			c0.2,0.1,0.3-0.6,0.3-1.1c-0.2,0-0.1,0.4-0.2,0.5c-0.3-0.3-0.2-0.6-0.1-1c-0.1-0.3-0.3,0.4-0.2,0c-0.1,0.1-0.1,0.2-0.1,0.5
			c-0.2,0-0.1-0.2-0.2-0.2c0.1,0.5-0.3,0.9-0.3,1.7c-0.2-0.1-0.2-0.1-0.2,0.2c-0.4-0.3,0.4-1-0.1-1.2c-0.1-0.4,0.2-0.3,0.2-0.5
			c-0.6-0.3-0.1,1.5-0.6,2c0.1-0.8-0.2-0.8-0.2-1.4c-0.3,0.1-0.2,0.6-0.2,1c-0.3-0.2,0-1.1-0.1-1.5c-0.1,0.1-0.1,0.5-0.2,0.6
			c-0.2-0.3-0.4-0.3-0.6-0.2c0-0.2,0.1-0.6,0.1-1.1c-0.1,0.2-0.2,0.5-0.2,0.8c-0.1-0.1-0.1-0.1-0.1-0.2c-0.3,0.1,0.1,0.6,0.1,0.4
			c0.1,0.8,0,1.5,0.1,2.2c-0.2,0.1-0.4,0.1-0.5,0.5c-0.3-0.2-0.6,0.3-0.6,0.9c-0.1,0-0.2,0-0.2,0c-0.1-0.1,0-0.5-0.2-0.5
			c-0.2-0.1-0.1,0.2-0.2,0.2c-0.8-0.9-0.2-3.4-0.5-4.9c0.1-0.1,0.2-0.2,0.3-0.2c-0.1,0.9-0.2,1.9-0.1,2.6c0.2-1.2,0.1-2.5,0.6-3.4
			c0.4,0.5,0.5-0.5,0.8-0.6C18.9,18.3,19,18.8,19,20c0.4-0.2,0.3-1.1,0.5-1.6c0.1,0,0,0.3,0.1,0.4c0.8-1.1,0.6-3.2,1.6-4.1
			c0.2,0-0.1,0.1,0,0.3c0.1,0,0.1,0,0.1,0.1c0.4-0.4,0.4-0.9,0.9-1.1c-0.1,0.4-0.1,0.5-0.2,0.9c0.5-0.7,1.1-1.5,1.7-2.1
			c-0.5,0.2-0.8,0.7-1.2,1c0.4-0.7,0.8-1.2,1.7-1.8c-0.1-0.5,0.2-0.5,0.3-0.7c-0.5,0.2-1.4,0.5-1.8,0.9c-0.1-0.2,0.7-0.8,0.5-0.9
			c0-0.1,0.1-0.1,0.1-0.2c0.1,0,0.1,0,0.1-0.1c0.2,0.1-0.1,0.2,0,0.3c0.4,0.1,0.9-0.4,1.2-0.1c0.4-0.5,1.2-0.5,1.4-1.1
			c-0.2-0.1-0.4,0.2-0.5,0.1c0-0.6,0.5-0.4,0.8-0.6c0.2,0.2-0.2,0.2-0.2,0.5c0.3,0,0.4-0.2,0.5-0.3c0.4,0.3-0.3,0.4-0.3,0.8
			c-0.8,0.2-1.3,0.7-1.8,1.2c0,0.1,0.1,0.1,0.1,0.2c0.2,0.1,0.1-0.2,0.3-0.2c-0.3,0.4-0.8,0.5-1.1,1c0.5-0.1,0.8-0.5,1.4-0.5
			c-0.1,0.1-0.2,0.2-0.2,0.4c0.5-0.1,0.9,0,1.2-0.4c0.2,0.1-0.1,0.2-0.1,0.3c0.2,0.1,0.4-0.1,0.6-0.1c0.2,0.2-0.1,0.1-0.1,0.4
			c0.2,0.1,0.5-0.3,0.8-0.2c-0.2-0.2,0.1-0.3-0.1-0.4c0.5-0.4,1.2-0.1,1.9-0.4c0,0.1,0.1,0.1,0.1,0.2c0,0.2-0.3,0-0.2,0.2
			c0.4,0.1,1.2-0.1,1.3-0.7c-0.2,0-0.2,0.1-0.5,0.1c0.1,0.1,0.1,0.1,0.1,0.2c-0.2-0.1-0.1-0.1-0.5-0.1c0.2-0.2-0.1-0.1-0.1-0.3
			c0.1-0.1,0.2-0.1,0.3-0.1c0.1-0.2-0.2-0.1-0.1-0.3c0.3,0,0.5-0.3,0.4-0.8c0.1-0.1,0.2-0.2,0.3-0.2C30.1,9.9,30,10,30.2,9.7
			c0-0.1-0.1-0.1-0.1-0.2c-0.2,0-0.3,0.1-0.5,0.1c0.1-0.2,0.2-0.3,0.5-0.3c-0.4-0.2-0.6-0.1-1.2-0.1C29,9,28.8,9,28.9,8.8
			c0.4,0.5,1-0.5,1.5,0.1c0.2-0.1,0.3-0.4,0.6-0.4c-0.1-0.2-0.1-0.4,0.2-0.4c0.1,0.2-0.1,0.2-0.1,0.3c0.4,0,0.1-0.4,0.2-0.5
			c0.3,0,0.4-0.3,0.6-0.3c-0.2,0.6-0.6,0.9-0.8,1.4C32,9.1,32.4,8.5,33,7.7c-0.4,0.1-0.4,0.2-0.8,0.2c0.2-0.4,0.7-0.4,0.7-1.1
			C33,7.3,33,7.1,33.4,7c0-0.1-0.4-0.1-0.3,0c0.4-0.9,1.4-0.4,2-1.1c0-0.2-0.5,0.1-0.4-0.2c-0.6,0.2-1.4,0.2-1.7,1
			c-0.6-0.2-0.6,0.4-1.1,0.5c0,0.2,0.2,0.1,0.1,0.4c-0.2-0.4-0.3,0-0.6,0.1c0.2-0.4,0.6-0.5,0.7-1c-0.2-0.4-0.3,0.3-0.7,0.2
			c0.4-0.5,1-1.1,1.4-1.4C32.6,5,33,5,33,4.6c0.2,0.4,0.6-0.1,0.7-0.5c0.2,0.1-0.1,0.2,0,0.3c0.2-0.1,0.4-0.2,0.5-0.5
			c0.4,0.3,1.1-0.2,1.2-0.7c0.3,0.1,0.4-0.1,0.6-0.1c0,0.3-0.3,0.2-0.3,0.5c0.3,0.1,0.2-0.3,0.5-0.3c-0.2,0.2,0.1,0.2,0.3,0.2
			c-0.1,0.1-0.2,0.2-0.2,0.5c0.4-0.2,0.6-0.4,1.1-0.5c0.1-0.2-0.1-0.2-0.1-0.4C37.4,3,37.5,3,37.6,3c-0.1,0.1-0.2,0.2-0.2,0.4
			c0.1,0.1,0.4-0.2,0.5-0.3c0.2,0.1-0.1,0.2-0.1,0.3c0.5,0.2,0.8-0.2,1.4-0.2c0-0.4-0.4-0.1-0.6-0.1c0.2-0.1,1-0.1,0.8,0.4
			c0.1,0.2,0.1-0.1,0.2,0.1C39.4,4,39,3.5,38.7,3.8C39,3.9,38.5,4.2,38.3,4c-0.2,0-0.2,0.3-0.3,0.4c0.5-0.1,0.8-0.3,1.2-0.2
			C39.1,3.9,39,4.3,38.9,4c0.1-0.2,0.3-0.1,0.3-0.4c0.1,0.1,0.4,0.1,0.5,0.2c0.4-0.5,1.2-0.6,1.9-0.6c-0.2,0.2,0,0.3,0.2,0.2
			C41.7,4,40.6,3.6,40,3.6c0,0.1,0.1,0.2,0.1,0.3c0.1-0.3,0.2,0.1,0,0.2c0.5,0.2,0.8-0.1,1.3,0.1c0.1,0-0.1,0.1-0.1,0.1
			c0.1,0.4,1.4,0.2,1.6-0.2c0.2,0.3,0.5,0.1,0.6,0.5c0.4-0.2,0.8-0.2,1.4-0.1c-0.3,0.1,0.1,0.2,0.2,0.3c0.2-0.5-0.6-0.5-0.9-0.7
			c0.2,0.2-0.1,0.1-0.1,0.2c-0.1,0-0.1-0.2-0.3-0.2C43.8,4,43.9,4,43.9,4c-0.3-0.4-0.5-0.4-1.1-0.4c0.1-0.5-0.8-0.4-1.1-0.3
			c-0.1-0.4-0.6-0.1-0.6-0.5c0.1-0.2,0.4,0,0.3,0.2c0.2,0,0.2-0.2,0-0.2c0.4-0.1,0.6-0.1,1.2-0.1c0,0.3,0,0.3,0,0.5
			c0.4-0.1,0.6,0.1,1.1-0.1c-0.1-0.3-0.6-0.4-0.3-0.6c-0.3,0.1-0.1,0.3-0.5,0.2c-0.1-0.2,0.3-0.2,0.1-0.4c0.4,0.1,1,0.6,1.4,0.5
			c-0.2,0.2,0.2,0.1,0.2,0.3c-0.2,0.2,0.1,0.4-0.3,0.4c0.2,0.2,0.4,0.2,0.7,0.2c-0.1,0.2-0.2,0.2-0.5,0.2c0.4,0.2,0.7,0,1.2,0.2
			c-0.2-0.2-0.5-0.3-0.6-0.4c0-0.3,0.6,0,0.8,0c0-0.2-0.2-0.1-0.3-0.2c0-0.1,0.1-0.2,0.2-0.2c0-0.2-0.1-0.2-0.2-0.2
			c0.2-0.2,0.6,0,0.8,0.3c0.6-0.2,1.3-0.1,1.2,0.5c-0.2-0.1-0.4-0.2-0.6-0.2c-0.1,0.1,0,0.5-0.1,0.7c-0.1-0.3-0.7-0.3-0.8,0
			c-0.2,0-0.2-0.2-0.4-0.3c0,0.2-0.6,0.1-0.9,0.1c0.2,0.5,0.8,0.4,1.3,0.5c0.1-0.1,0-0.1,0-0.2c0.1-0.1,0.2,0.2,0.2-0.1
			c0.2,0.4,0.3,0.5,0.8,0.5c0-0.2-0.4-0.1-0.3-0.4c0.1,0.1,0.2,0.1,0.3,0.1c-0.2,0.2,0.2,0.2,0.2,0.3c-0.1-0.5,0.4,0.3,0.5-0.3
			c0.2,0,0.6,0.5,0.6,0c0.2,0.2,0.4,0.6,0.8,0.4c-0.1,0.1-0.1,0.1,0,0.2c0,0.1-0.2,0.1-0.2,0.1c0.3,0.1,0.2,0.1,0.5,0.2
			c0.1-0.1-0.2-0.2-0.1-0.5c0.3-0.1,0.1,0.4,0.4,0.4c0.1-0.1-0.2-0.1,0-0.3c0.1,0.2,0.5,0.4,0.6,0.2c0.4,0.4,0.8,0.5,1.2,0.4
			c0.1,0.4,0.3,0.8,0.7,0.9c-0.1-0.3-0.2-0.4-0.5-0.5c0.1-0.4,0.4,0.1,0.5,0.2c0.1,1,1.1,1.1,1.7,1.5c-0.1-0.2-0.5-0.2-0.5-0.5
			c0.4,0.4,0.7,0.2,1.2,0.5c0.1-0.1,0.1-0.2-0.1-0.3c0.1-0.2,0.4-0.1,0.5-0.1c-0.1-0.1-0.1-0.1,0-0.2c-0.2-0.2-0.5-0.5-0.8-0.6
			c0.1-0.1,0.8,0.4,0.9,0.2c-0.2,0.1,0,0.4,0.3,0.5c0.1-0.1-0.1-0.2,0.1-0.5c-0.1-0.1-0.2-0.2-0.4-0.2c0.2-0.2,0.5,0.2,0.8,0.3
			c0.1,0.1-0.1,0-0.2,0.1c-0.1,0.2,0.2,0.1,0.1,0.3c0.4,0.4,0.8,0.4,1.3,0.7c0.1-0.2-0.4-0.4-0.3-0.7c-0.6,0.1-0.5-0.6-0.9-0.7
			c0.1-0.5,0.5,0.1,0.7-0.3C56.8,6.7,57,6.9,57.4,7c-0.4,0.2,0.1,0.4,0.4,0.5c0,0.4,0.3,0.5,0.6,0.5c0.1,0.2-0.1,0.1-0.2,0.2
			c0,0.5,0.6,0.4,0.8,0.6c-0.1,0.2-0.4,0.1-0.5,0c-0.2,0,0,0.3,0.1,0.3c-0.4,0.2-0.6,0.2-0.7,0.5c0.1,0.2,0.3,0.2,0.2,0.5
			c0.2-0.2,0.5,0,0.7,0.2c0-0.3-0.3-0.2-0.2-0.6c0.2,0,0.2,0.1,0.5,0.1c0.1,0.1,0.1,0.2,0.1,0.3c-0.1,0.2-0.1,0.4-0.4,0.4
			c0.1,0.2,0.2,0.3,0.4,0.5c0.1-0.1,0.1-0.2,0.2-0.1c0-0.2-0.1-0.2-0.1-0.5c0.2,0,0.2,0.3,0.5,0.2c-0.1-0.4-0.8-0.5-0.6-1
			c0.1,0.1,0.2,0.2,0.2,0.4c0.2-0.1,0.4-0.1,0.5,0.2c0-0.1,0.1-0.2,0.1-0.3c0.3,0.1,0.4,0.3,0.5,0.3s0.1-0.2,0.1-0.3
			c-0.1-0.1-0.4-0.1-0.2-0.4c-0.1,0.6-0.7-0.2-0.8,0.4c-0.1,0-0.1-0.1-0.1-0.1c0-0.1,0-0.1-0.1-0.1c0.1-0.2,0.6-0.2,0.8-0.1
			c0-0.2,0-0.3-0.1-0.4C60,9.2,60,9.3,60,9.4c-0.1-0.1-0.3-0.1-0.2-0.4c0.2,0.5,0.6,0,0.9,0.3c0.1-0.1,0.1-0.2,0.1-0.4
			c0.1,0.1,0.3,0.3,0.2,0c0.3,0.1,0.4,0,0.5,0.3c0.3-0.5,0.9,0.2,1.2-0.2c-0.1,0.3,0.3,0.8,0.5,0.6c0.1,0-0.1,0.5-0.2,0.5
			c0.1,0.4,0.5,0.2,0.5,0.7c0.1-0.1,0.1-0.1,0.1,0c0.1,0,0.1-0.2,0.1-0.3c0.2,0.1,0.2,0.3,0.5,0.2c0,0.1,0,0.2,0.1,0.2
			c-0.1,0.4-0.2-0.2-0.3,0.2c-0.2,0-0.3-0.2-0.6-0.2c-0.1,0.2-0.4,0.2-0.5,0.5c0,0.2,0.2,0.3,0.2,0.4c0.2,0-0.1-0.1,0-0.3
			c0.1,0.1,0.3,0.3,0.4,0.1c0.1,0.1,0.3,0.2,0.2,0.5c0.2-0.2,0.1-0.3,0.5-0.4c0-0.2,0-0.3-0.1-0.3c0.4-0.2,0.3,0.7,0.8,0.6
			c0.2,0.5,0.3,0.5,0.6,0.9c-0.2,0.2-0.5-0.4-0.8-0.5c-0.1,0.3,0.1,0.3,0.1,0.5c-0.2-0.1-0.2,0-0.5,0c-0.2-0.4-0.4-0.8-0.8-0.8
			c0.1,0.3,0.1,0.2,0.1,0.5c-0.2-0.2-0.3-0.5-0.5-0.7c-0.1,0.2,0.2,0.6,0,0.9c0.4-0.4,0.6,0.5,0.9,0.2c-0.1,0.3-0.4,0.1-0.2,0.5
			c-0.2,0.1-0.2-0.1-0.3-0.2c0.2,0,0.1-0.2-0.1-0.3c0.1,0.4,0.1,0.6,0.3,0.8c0.1,0,0.1-0.1,0.1-0.2c0.1,0.3,0.2,1.1,0.6,0.8
			c-0.1,0.2,0.1,0.6,0.2,0.8c-0.2-0.1-0.7,0.2-0.9,0c-0.1,0.2,0.1,0.2,0.1,0.4c0.3-0.5,0.6,1.1,0.9,0.3c0.2,0.5,0.2,0.7,0.3,1.3
			c-0.1-0.1-0.4-0.1-0.2,0.2c0-0.4-0.7-0.7-0.8-1.4c-0.1,0.7,0,1.4,0.2,2.1c-0.1-0.1-0.1-0.2-0.2-0.2c-0.1,0.4,0.1,0.7,0.1,1.2
			C64,19.1,64,19,63.9,19c0.1,0.4,0.1,0.8,0.3,1.1c0,0.2-0.1-0.1-0.2-0.1c-0.1,0.4,0.4,1.1,0.2,1.8c0.4-0.3,0.3-1.1,0.2-1.6
			c0.5,0.3,0.2,1.1,0.3,1.8c0.4-0.3,0.1-1.4,0.2-1.8c0.3,0.4,0.2,1.1,0.5,1.5c-0.2,0-0.1-0.1-0.2,0c-0.1,0.4,0.2,0.4,0.2,0.8
			c-0.1-0.3-0.1,0.1-0.2,0.2c0.1,0.1,0.2,0.1,0.1,0.2c-0.1-0.1-0.1-0.1-0.2,0c0.1,0.2-0.1,0.4-0.1,0.6c0.1,0.2,0.3,0,0.4,0
			c0,0.9-0.5,1.2-0.8,1.8c0-0.4,0.5-0.9,0.5-1.5c-0.4,0.5-0.6,1.2-0.9,1.8c0.1,0.2,0.3-0.3,0.4,0.1c0.1,0.3-0.3,0.1-0.3,0.2
			c0.2,0.1,0.4,0.5,0.6,0.5c0.1,0.2-0.1,0.2-0.1,0.5c0,0.2,0.4,0.1,0.3-0.1c-0.1,0.4-0.8,0.9-0.8,1.4c-0.3,0.1-0.4,0.4-0.6,0.4
			c0.1-0.1,0.2-0.5,0.4-0.3c-0.2-0.2,0.2-0.4,0-0.5c0,0,0.5-0.1,0.1-0.2c0.1-0.1,0.4,0,0.5-0.3c-0.2-0.2,0-0.8-0.4-0.9
			c-0.1,0.1-0.1,0.4-0.3,0.2c0-0.3,0-0.6,0-0.9c-0.5,0.2-0.3,0.6-0.5,1c-0.3-0.3-0.3-0.7-0.3-1.1c0.1-0.1,0.4-0.1,0.4-0.3
			c0.1,0.1,0.2,0.1,0.2,0.4c0.2-0.3,0.3-0.5,0.2-0.9c0.3-0.2,0.6-0.8,0.5-1.3c-0.2,0.3,0.1,0.7-0.5,0.9c0-0.5,0.4-0.7,0.2-1.3
			c-0.2,0.4-0.4,0.8-0.3,1.2c-0.1,0-0.1-0.1-0.2-0.1c0,0.1,0.1,0.1,0.1,0.2c-0.4,0.3-0.6,0.8-0.8,1.4c-0.2-0.2-0.4,0.1-0.4,0.5
			c-0.4-0.5-0.2,0.2-0.3,0.6c-0.1-0.4-0.4-0.1-0.6,0.1c0.1,0.2,0.5,0.1,0.2,0.5c0.1,0.1,0.1-0.1,0.1-0.2c0.1,0.3,0.4,0.6,0.3,1.1
			c-0.1,0.1-0.2-0.1-0.3,0.2c-0.2-0.1,0-0.6-0.1-0.7c-0.1,0.3-0.1,0.8-0.5,0.8c0.1,0.3,0.2,0,0.5,0.1C61.7,29,61.8,29,62.1,29
			c0,0.1,0.1,0.2,0.1,0.3c-0.1-0.1-0.1-0.1-0.2-0.1c0.2,0.4-0.1,0.8-0.1,1.2c0.2,0.1,0.2-0.1,0.5-0.1c0.1,0.2-0.1,0.3-0.1,0.5
			c-0.2-0.1-0.3,0.1-0.4,0c-0.2,0.2-0.2,0.6-0.6,0.6c0,0.2,0.3,0.1,0.5,0.1c0,0.4,0,0.7-0.2,0.8c-0.2-0.1,0.1-0.3-0.1-0.4
			c-0.1,0.2-0.5,0-0.5,0.2c0,0.1,0.1-0.1,0.2,0c-0.3,0.1-0.5,0.6-0.9,0.4c-0.1-0.2,0.2-0.1,0.2-0.2c-0.5-0.2-0.8,0.4-0.9,0.8
			c0.1,0.2,0.2-0.1,0.3,0c0,0.2-0.2,0.1-0.1,0.3c0.3,0,0.3-0.3,0.6-0.3c0-0.2-0.3,0.1-0.2-0.2c0.2-0.3,0.8,0.4,1.2,0
			c0.1-0.2-0.2-0.2-0.1-0.4c0.5,0,0.7-0.4,1.1-0.6c-0.1-0.2,0-0.4,0.1-0.6c0.1,0.1,0.4,0.1,0.6,0.1c-0.1,0.1-0.1,0.2,0,0.3
			c0.2-0.1,0.3-0.2,0.5-0.2c0,0.2-0.1,0.2-0.2,0.2c0.4,0.2,0.7-0.2,1.1-0.3c-0.2-0.1,0.6-0.6,0.8-0.9c-0.1-0.1-0.2-0.1-0.2-0.2
			c0.1-0.3,0.4-0.3,0.5-0.6c-0.5,0.2-1.1,1.1-1.8,1.3c0.6-0.5,1.1-1.1,1.8-1.5c0-0.1,0-0.2,0-0.4c0.2-0.1,0.2-0.3,0.5-0.2
			c-0.1,0.2-0.1,0.2-0.3,0.2C65.9,29.2,65.9,29.3,65.9,29.5c0.2-0.1,0.4-0.4,0.7-0.5c-0.1-0.4,0.2-0.2,0.4-0.5
			c-0.1-0.5,0.4-0.8,0.5-1.3c-0.2-0.4-0.4,0.4-0.7,0.2c-0.2,0.1-0.2,0.4-0.2,0.7c-0.2,0-0.3,0-0.2,0.2c-0.2-0.1,0.1-0.4,0-0.5
			c-0.4,0-0.7,0.2-0.9,0.6c0,0.2,0.2,0.2,0.3,0.2c-0.1,0.2-0.1,0.2-0.2,0.4c0.3-0.1,0.4-0.4,0.6-0.5c-0.1,0.2-0.5,0.7-0.8,0.9
			c0.2-0.4-0.2-0.5-0.1-0.9c-0.2,0.1-0.5,0.2-0.6,0.5c0.1-0.9,1.2-1.7,1.3-2.7c-0.1,0.2-0.2,0.4-0.2,0.5c-0.2-0.1,0.1-0.5,0.1-0.7
			c0.5,0.2,0.8-0.8,0.9-1.6c-0.4-0.1-0.3,0.2-0.6,0.2c0.1-0.5,0.2-1.3,0.2-2c0.2,0.1,0.2,0.4,0.3,0.4c0,0.4-0.3,0.4-0.2,0.8
			c0.1,0,0.3,0.2,0.1,0.5c0.6,0,0.2-1.2,0.6-1.5c-0.1,1.1-0.3,2.1-0.5,3.3c0,0.2,0.5-0.1,0.3,0.3c0.1-0.1,0.2-0.5,0.4-0.3
			c0.1-0.4,0.1-0.8,0.2-1c0.1-0.1,0.1,0.1,0.2,0.2c-0.1,0.4-0.2,0.5-0.2,0.9c0.5-0.2,0.6-1.4,0.4-1.8c-0.3,0.1,0,0.3,0,0.5
			c-0.4-0.1-0.4-0.2-0.7,0.1c-0.2-0.2,0.2-0.8-0.1-0.7c0-0.2,0.1-1.2,0.1-1.5c0-0.9,0.1-0.1,0.1,0.4c0.1,0.1,0.1,0,0.3,0
			c0.1,0.2-0.1,0.2-0.1,0.5c0.1,0.1,0.2-0.1,0.1-0.2c0.1-0.2,0.1,0,0.2-0.2C67.8,23,68,22.8,68,22.3c0.1,0,0.2,0.1,0.2,0
			c0.1,0,0,0.4,0.1,0.4c0.4-0.2,0.6-0.4,0.9-0.5c-0.1-0.1-0.1-0.4-0.1-0.5c-0.1-0.2-0.1,0.2-0.2,0.1c0-0.2,0-0.4-0.1-0.5
			c-0.2,0.1,0,0.2-0.1,0.5C68.4,21,68,21,68,20.6c0.2-0.1,0.1,0.2,0.2,0.2c0.2-0.9-0.1-1.2-0.1-1.9c0.2-0.1,0.7,0.4,0.8-0.1
			c0.9,0,0.4,1.4,0.8,1.8c0,0.4-0.1,0.6-0.4,0.6c0-0.7,0.4-1.4-0.2-1.7c-0.1,0-0.1,0.1-0.1,0.1c0.1,0.4,0.1,0.9,0.3,1.1
			c-0.3,0.1,0.1,0.6-0.2,0.6c0.3,0.5,0.1,0.7,0,1.3c0.1,0.1,0.1,0.1,0.2,0.2c0.2-0.2,0-0.7,0.1-1c0.6,0.4-0.1,1.1-0.2,1.5
			c0.3-0.3,0.5,0.1,0.6-0.3c0.2,0.2-0.1,1.4-0.5,1.1c-0.1,0.3,0.1,0.4,0.2,0.5c-0.1,0.2-0.1,0.5-0.2,0.6c0.3,0.8-0.7,1.2-0.5,2.1
			c-0.3,0.1-0.2,0.3-0.3,0.6c-0.4,0.1-0.8-0.2-1.1,0.1c0.2,0.2,0.4,0.2,0.6,0.4c0.1,0,0.1-0.1,0.1-0.1
			C67.1,28.4,66.5,29.2,65.9,29.5z M66.7,28.7c-0.1-0.1-0.4,0-0.3-0.3c-0.4,0.4-0.5,0.3-0.8,0.6C65.9,29.2,66.4,29,66.7,28.7z
			 M30.1,12.2c0.3,0.1,0.7-0.2,0.5-0.5c0,0.1-0.1,0.1-0.1,0C30.3,11.8,30.2,11.9,30.1,12.2z M34.6,5.1c0.1,0,0.2,0,0.2-0.1
			c-0.2,0,0.2,0,0.1-0.2c-0.5,0.4-1.5,0.5-1.8,1.1C33.6,5.6,34.3,5.8,34.6,5.1z M57.1,9.3c0.2-0.1,0.4,0.1,0.6,0.1
			C57.8,9,57.2,9,57.1,9.3z M68.4,24.2c0.1-0.2,0.1-0.5,0.1-0.7C68.4,23.5,68.1,24,68.4,24.2z M68.1,24.8c-0.1,0.2-0.2,0.4,0,0.4
			C68.2,25.1,68.4,24.9,68.1,24.8z M67.9,18.6c0.1,0.5-0.1,0.8,0.1,1.1c0-0.1,0.1-0.1,0.1-0.1C68.1,19.1,68.2,18.8,67.9,18.6z
			 M67.9,23.4c-0.2,0.1-0.4,0.9-0.5,1.4C67.7,24.4,68,23.8,67.9,23.4z M67.2,25.6c0.1-0.1,0.4-0.6,0.2-0.7
			C67.4,25.2,67,25.4,67.2,25.6z M65.9,26c-0.3-0.1-0.3,0.4-0.3,0.6c0.1-0.1,0.2,0.2,0.2,0C65.8,26.5,65.8,26.2,65.9,26z M65.1,26.4
			c0.2-0.2,0.5-0.3,0.5-0.7C65.4,25.9,65.1,26.2,65.1,26.4z M64.3,22c0.2,0,0.2-0.3,0.2-0.4C64.4,21.6,64.2,21.9,64.3,22z M63.1,16
			c0.2,0.1,0.1,0.5,0.4,0.5c0.1-0.1,0.1-0.4,0.1-0.5c-0.2-0.1-0.2,0.1-0.3,0.1C63.2,16,63.1,15.8,63.1,16z M62.8,17.3
			c0.2-0.6-0.5-1.1-0.6-1.8c-0.3,0-0.4,0.4-0.6,0.1c-0.2,0.6,0.4,1.1,0.6,1.2c-0.1,0-0.2-0.3-0.1-0.3c0.5,0.5,0.6,1.5,1.2,2.1
			C63.3,18.1,63.1,17.5,62.8,17.3z M62.7,18.8c0.1,0.5,0.2,0.8,0.6,1c0.2-0.5-0.3-0.8-0.5-1.1c-0.2-0.4-0.1-0.8-0.4-1.2
			c0,0.2,0,0.4,0.1,0.6c-0.2,0-0.1-0.3-0.2-0.3c-0.1,0.2,0.1,0.2,0.1,0.5c0.1,0.1,0.2-0.2,0.2,0C62.4,18.7,62.6,19.4,62.7,18.8z
			 M62.6,19.1c0.1,0.4-0.1,0.5-0.2,0.6c-0.2-0.2,0-0.5-0.2-0.6c0,0.1,0,0.2-0.1,0.2c0,0.5,0.5,0.8,0.4,1.1c-0.1,0-0.1-0.1-0.1-0.2
			c0,0.1-0.2,0.1-0.1,0.4c0.3-0.2,0.4-0.1,0.5,0.3c0.1-0.1,0.2,0.2,0.2,0C62.8,20.5,63,19.6,62.6,19.1z M62.8,15.1
			c0.1,0.3,0.1,0.6,0.3,0.6C63.2,15.4,63,15.2,62.8,15.1z M63,18.3c-0.1,0.2,0.1,0.3,0.2,0.4C63.2,18.5,63.2,18.3,63,18.3z
			 M62.7,11.2c0,0.1,0,0.2,0,0.4c0.1,0,0.1,0.1,0.2,0.1C62.9,11.4,62.9,11.3,62.7,11.2z M62.5,31.3c0.2,0,0.5-0.1,0.5-0.3
			C62.8,31,62.6,31.1,62.5,31.3z M62.7,13.1c-0.1,0-0.1,0.1-0.2,0.2c-0.1,0-0.1-0.1-0.2,0c0.2,0.1,0.2,0.4,0.5,0.3
			C62.9,13.2,62.7,13.3,62.7,13.1z M62.6,12.1c0-0.1,0.1-0.1,0.2-0.1c0.1-0.3-0.4-0.5-0.4-0.2C62.4,11.9,62.5,11.9,62.6,12.1
			C62.5,11.9,62.5,12.2,62.6,12.1z M62.1,14c0.3,0,0.3,0.4,0.5,0.5c0.1-0.4-0.1-0.5,0.1-0.8c-0.2-0.3-0.6-0.3-0.6-0.8
			c0.1-0.1,0.3-0.2,0.2-0.5c-0.2-0.1-0.4-0.1-0.3-0.3c0.1,0.2,0.2-0.1,0.4,0c-0.2-0.5-0.1-0.7-0.5-1.1c0,0.2,0.2,0.4-0.1,0.5
			c-0.2-0.2-0.6-0.3-0.8-0.5c-0.1,0.3,0.2,0.1,0.1,0.4c-0.2-0.2-0.3,0-0.5,0.1c-0.1-0.1-0.1-0.1-0.2-0.2c0.1,0,0.2,0,0.2-0.2
			c-0.3-0.3-0.8-0.6-1.1-0.8c0.2,0.4,0.6,0.5,0.8,0.8c-0.1-0.1-0.2-0.2-0.4-0.2c0,0.4,0.3,0.5,0.4,0.8c-0.4-0.3-0.6-1.2-1.1-1.1
			c0.4,0.6,0.6,1.2,0.9,1.8c0.5-0.3,1,0.9,1.5,0.8c-0.2-0.1-0.2,0.2-0.2,0.4c0.1,0.2,0.3,0.3,0.4,0.5c-0.3-0.2-0.6-0.4-0.8-0.7
			c0-0.4-0.2-0.6-0.5-0.7c0,0.2,0.4,0.5,0.2,0.6c-0.2,0-0.1-0.3-0.3-0.2c0,0.4,0.1,0.5,0.2,0.8c0.1-0.1,0.1-0.4,0.3-0.4
			c0,0.3,0.3,0.4,0.3,0.7C61.1,14.1,61,14,60.9,14c0.2,0.5,0.6,0.8,0.8,1.4c0.1-0.2-0.1-0.3,0-0.6c0.1,0,0.2,0.3,0.2,0.1
			c-0.1-0.3-0.7-0.4-0.6-0.7c0.2,0.2,0.3,0.1,0.6,0.3C62.3,14.4,62,14.1,62.1,14z M62,24.8c0.3-0.1,0.4-0.4,0.5-0.8
			c-0.4,0.1,0-0.3-0.2-0.4c0,0.5-0.2,0.6-0.5,0.8c0-0.2-0.3-0.1-0.5-0.2c0.1,0.4-0.1,0.4,0,0.6c0.1-0.1,0.4,0.3,0.5,0.4
			c0.2-0.2,0-0.7,0.4-0.8C62.3,24.6,62,24.6,62,24.8z M61.7,10.2c0-0.2-0.1-0.2-0.1-0.2c0.2-0.2,0.4,0.1,0.6,0.2
			c0.1-0.2-0.1-0.4,0-0.4c0.1,0.1,0.1,0.2,0.2,0.2c0.1-0.4-0.2-0.4-0.2-0.6c0.1,0,0.1,0.1,0.2,0.2c0.1-0.2-0.1-0.2-0.1-0.4
			c-0.4,0.2-0.8,0-1.1,0c-0.1,0.1,0,0.4-0.1,0.4c-0.1-0.2-0.2-0.4-0.5-0.4c-0.1,0.1,0.1,0.6,0.2,0.8c0-0.4,0,0.1,0.2,0
			c0.1,0,0.1-0.2,0.2-0.2c-0.1,0.1,0.2,0.8,0.3,0.7C61.3,10.3,61.6,10,61.7,10.2z M61.2,16c0,0.1,0,0.1,0,0.2c-0.1,0-0.1,0-0.1,0.1
			c0.4,0.1,0.4,0.8,0.7,1.1C61.8,16.8,61.7,16.1,61.2,16z M61,29.2c0.2,0,0.4-0.1,0.5-0.2C61.2,28.8,61,29,61,29.2z M60.6,14.5
			c0.1,0.2,0.2,0.8,0.5,0.5C60.9,14.9,60.6,14.3,60.6,14.5z M60.4,15.9c-0.1,0.3,0.2,0.2,0.2,0.4c-0.1,0.1-0.2-0.2-0.2,0
			c0.2,0.1,0.3,0.2,0.5,0.3c0,0.1,0,0.2,0.1,0.2c0-0.1,0-0.2,0.1-0.2c-0.1-0.3,0-0.7-0.3-0.7c0.2-0.1,0.2,0.1,0.4-0.1
			c0.1-0.3-0.3-0.2-0.1-0.5c-0.3-0.1,0,0.4-0.2,0.4c0-0.3-0.4-0.5-0.6-0.5c0.1,0.1-0.1,0.2,0.1,0.4c-0.1,0.2-0.2-0.1-0.3,0.1
			C60.3,15.8,60.3,15.9,60.4,15.9C60.4,15.9,60.5,15.8,60.4,15.9C60.3,15.9,60.4,16,60.4,15.9z M61,28.4c-0.1-0.2,0.1-0.2,0.1-0.4
			C60.9,27.9,60.7,28.3,61,28.4z M60,10.3c0.1,0.1,0.2,0.2,0.2,0.3c0.2-0.2,0.6,0.4,0.8,0.2C60.7,10.6,60.2,10.3,60,10.3z
			 M60.6,17.6c0.2-0.1,0.2,0.2,0.3-0.1c-0.1-0.2-0.2,0-0.3-0.2c0.2-0.2-0.2-0.4-0.1-0.7c-0.5,0-0.2-0.5-0.6-0.5
			c0,0.2,0.2,0.2,0.1,0.5c0.8,0.2,0.3,1.7,0.9,2.2C61,18.3,60.7,17.9,60.6,17.6z M60.7,24.8c0,0.1,0,0.2-0.1,0.2s-0.2,0.1-0.2,0.2
			c0.4,0.2,0.2,0,0.5,0.2C60.9,25.2,61.2,24.9,60.7,24.8z M60.4,31c0.2-0.1,0.3-0.3,0.5-0.4C60.7,30.7,60.6,30.8,60.4,31z
			 M60.3,30.1c0.1-0.2,0.2-0.4,0.3-0.6c-0.1,0-0.2,0-0.2,0c-0.1,0.2-0.1,0.5-0.2,0.7c0.1,0,0.2,0,0.2,0.2c-0.2-0.2-0.3,0-0.4,0.2
			c0-0.5-0.2-0.7,0.1-0.9c0-0.4-0.1-0.5-0.1-0.7c-0.1,0.2-0.2,0.4-0.3,0.5c-0.1-0.2,0.1-0.3,0-0.5c-0.2,0-0.2,0.3-0.3,0.4
			c0.1,0.1,0.1,0.1,0.2,0.2c-0.1,0.1-0.3,0.4-0.1,0.5c-0.1,0-0.1-0.1-0.2-0.1c0,0.4-0.2,0.6-0.2,0.7c0.2,0,0.4-0.1,0.6-0.3
			c-0.1,0.4,0.4,0.2,0.5,0.4C60,30.7,60,30.9,60,31c0.4-0.1,0.5-0.4,0.7-0.6C60.6,30.3,60.3,30.3,60.3,30.1z M60.2,28.9
			c0.1-0.2,0.1-0.3,0.1-0.5C60.2,28.3,60.1,28.8,60.2,28.9z M60.2,13.6c-0.2-0.1-0.1,0.2-0.1,0.4C60.3,13.9,60.2,13.8,60.2,13.6z
			 M60,12.4c-0.1-0.5-0.8-0.5-0.8-1.1c-0.4-0.1-0.6-0.4-0.9-0.5c-0.1,0.6,0.4,0.6,0.6,0.9c0.1,0-0.1-0.1,0.1-0.2
			c0.1,0.1,0.2,0.1,0.3,0.1c-0.1,0.4,0.4,0.4,0.5,0.6c-0.2,0.1-0.2-0.1-0.2-0.2c0.1,0.2,0.2,0.8,0.5,0.6c-0.1-0.1-0.2-0.4-0.1-0.4
			C59.9,12.3,59.9,12.4,60,12.4z M59.3,13.2c0.2,0.2,0.2,0.5,0.6,0.5c0-0.2-0.1-0.2-0.1-0.4C59.6,13.4,59.4,13.1,59.3,13.2z
			 M58.9,36.9c0.2-0.1,0.4-0.2,0.5-0.5C59.1,36.5,59.1,36.8,58.9,36.9z M58.9,13.2c0.1,0.4,0.1,0.8,0.5,1
			C59.3,13.6,59.1,13.4,58.9,13.2z M58.9,29.5c-0.1-0.1-0.4-0.2-0.4-0.1c0.1,0.2-0.7,1.2-0.4,0.5c-0.2,0.1-0.4,0.1-0.4,0.4
			c0.5,0.1-0.2,0.3,0.1,0.5c0.6-0.4,0.9-0.9,1.5-1.1c-0.1-0.2,0.1-0.5-0.1-0.5C59.1,29.4,59.1,29.2,58.9,29.5z M58.6,30.8
			c0.2,0,0.3-0.1,0.2-0.4C58.7,30.4,58.6,30.6,58.6,30.8z M57.9,12.5c-0.2,0.1-0.3,0.1-0.2,0.4c0.2,0.2,0.6,0.6,0.9,0.5
			C58.4,13.1,57.7,13.1,57.9,12.5z M57.6,38.3c0.1,0.2-0.1,0.2,0.1,0.3c0.3-0.3,0.3-0.6,0.6-0.8C57.9,37.9,57.8,38.2,57.6,38.3z
			 M57.5,11.3c-0.1-0.7-0.4-1.2-0.9-1.4c0.1,0.2-0.2,0.3-0.2,0.2c0.1,0,0.1-0.1,0-0.1C56,10.9,57.1,10.9,57.5,11.3z M57.7,11
			c0.1-0.5-0.2-1-0.6-1.1C57.4,10.2,57.3,10.9,57.7,11z M56.8,8c0.2,0.3,0.6,0.3,0.8,0.5c-0.1-0.2,0.2-0.1,0.1-0.4
			c-0.3,0-0.5-0.1-0.7-0.3c0.1,0,0.1-0.2,0-0.1C57,7.9,56.8,7.9,56.8,8z M57.2,12.2c0.2-0.1,0.1,0.2,0.1,0.3c0.2,0,0.2-0.1,0.2-0.3
			C57.6,12.1,57.3,12,57.2,12.2z M57,39.2C57.1,39.2,57.1,39.2,57,39.2c0.1,0.1,0.1,0.1,0.2,0.1c-0.1-0.3,0.3-0.2,0.2-0.5
			C57.3,38.9,57,38.9,57,39.2z M56.5,35.9c0.1-0.2,0.4-0.4,0.2-0.5C56.7,35.5,56.3,35.6,56.5,35.9z M56.8,11.9
			c-0.1,0-0.1,0.1-0.2,0.2c-0.1-0.2-0.4-0.2-0.2-0.5c-0.2-0.1-0.3-0.1-0.5,0c0-0.1,0.1-0.2-0.1-0.2c-0.1,0.6,0.3,0.7,0.4,1.1
			c0.2-0.1,0.2-0.2,0.5-0.1C56.5,12.2,56.8,12.2,56.8,11.9z M56,10.6c0.1-0.3,0-0.6-0.3-0.7c0,0.4,0.2,0.1,0.2,0.4
			c-0.4,0.4-0.1,0.9,0.3,1c0.1-0.2-0.2-0.3,0-0.3c0.2,0.2,0.3,0.4,0.5,0.5C56.5,11.2,56.3,10.6,56,10.6z M56.3,8
			c-0.1,0.3,0.4,0.5,0.4,0.4C56.4,8.3,56.5,7.9,56.3,8z M56.3,8.5c-0.1,0.2,0.1,0.4,0.2,0.3C56.5,8.6,56.3,8.6,56.3,8.5z M55.9,7.2
			c-0.1,0-0.1-0.1-0.1-0.2c-0.4-0.1-0.5,0-0.8,0.2c0.2,0.5,0.7,0,0.9,0.6C56,7.6,55.6,7.4,55.9,7.2z M54.9,38.2
			c0.2-0.4,0.9-0.5,0.9-0.8C55.6,37.5,54.7,37.6,54.9,38.2z M55.7,36.9c-0.2,0-0.3,0.1-0.4,0.3C55.5,37.2,55.6,37,55.7,36.9z
			 M54.6,8c0.2-0.1,0.4,0.5,0.8,0.3c-0.2-0.4-0.5-0.6-0.7-0.9c-0.1,0.3-0.2,0-0.4,0.1C54.2,7.9,54.7,7.7,54.6,8
			C54.6,7.9,54.5,8,54.6,8z M54.9,40.6c0.1,0,0.1,0.1,0.1,0.2c0.1-0.2,0.4-0.1,0.5-0.3C55.2,40.5,55,40.6,54.9,40.6z M55.1,38.5
			c-0.4,0.1-0.1,0-0.2-0.2c0,0.1-0.1,0.1-0.2,0.1c-0.1,0.5-0.8,0.3-0.9,0.8C54.2,38.9,54.9,39,55.1,38.5z M55.2,38.5
			c-0.2,0.1-0.5,0.4-0.6,0.5C54.9,39,55.1,38.8,55.2,38.5z M53.9,42.5c0.1,0.5,0.8,0.3,0.8-0.2C54.5,42.4,54.2,42.5,53.9,42.5z
			 M53.6,40.1c0,0.3,0.3,0.2,0.4,0.1C53.9,40.1,53.8,40.1,53.6,40.1z M53.5,42.7c-0.3,0-0.6,0.4-0.9,0.2c0.1,0,0.2-0.1,0.1-0.2
			c-0.4,0.4-1,0.1-1.3,0.5C52,43,52.8,43.4,53.5,42.7z M51.9,43.8c0.1,0.2,0.2,0.2,0.2,0.4c0.6-0.1,1.1-0.5,1.5-1
			c-0.1,0-0.1-0.1-0.2-0.1c-0.1,0.1,0,0.3-0.1,0.3c-0.4-0.1-0.7-0.1-0.9-0.2c-0.1,0.5,0.6,0.2,0.6,0.4
			C52.7,43.8,52.4,43.8,51.9,43.8z M49.8,6.2c0-0.1,0.1-0.1,0.1-0.2c-0.4-0.1-0.6-0.3-0.5-0.6c-0.2,0-0.5-0.1-0.6,0.2
			c0.2,0.2,0.6,0.1,0.6,0.5c-0.1,0-0.2,0-0.2,0.1c0.1,0.1,0.1,0.4,0.2,0.5c0-0.1,0-0.2,0.1-0.2c0.1,0.2,0.2,0.3,0.5,0.3
			c0-0.3-0.3-0.2-0.4-0.4C49.8,6.3,49.5,6.1,49.8,6.2z M47.6,43.6c0.5,0,1.3,0,1.5-0.5C48.8,43,48,43,47.6,43.6z M44.2,3.2
			c-0.1,0-0.1,0.1-0.2,0.1c0,0.1,0,0.1,0,0.2c0.2,0,0.3,0.1,0.5,0.2C44.5,3.3,44,3.5,44.2,3.2z M42.8,43.4c0.1,0.1,0.5,0.2,0.6,0
			C43.3,43.4,42.9,43.1,42.8,43.4z M41.7,43.4c0.2,0.1,0.7,0.3,0.9,0C42.3,43.5,42,43.3,41.7,43.4z M40,42.8
			c0.5,0.2,1.1,0.5,1.6,0.4c0-0.1,0.1-0.1,0.1-0.2C41,43.1,40.5,42.6,40,42.8z M41.1,43.7c0.1,0,0.5,0.2,0.5-0.1
			C41.4,43.6,41.1,43.5,41.1,43.7z M39.5,5.2c0.2-0.1,0.2,0.4,0.3,0.1c-0.1,0-0.1,0-0.1-0.1c0.1,0,0.1,0,0.1-0.1S39.6,5.1,39.5,5.2z
			 M39.4,4.1c0.1-0.1,0.2,0,0.5,0C39.9,3.8,39.1,4,39.4,4.1z M36.3,39.2c0.7,0.5,1.5,1,2.4,1.3c-0.1-0.3,0.2-0.1,0.2-0.2
			C37.9,40.2,37.3,39.2,36.3,39.2z M37.3,5.3c0,0.1-0.1,0.1-0.1,0.3c0.5-0.3,1.1-0.1,1.5-0.5c-0.4-0.1-0.5,0-0.8-0.1
			C37.8,5.3,37.5,5.6,37.3,5.3z M36.5,5.1c-0.1,0.1-0.1,0.2-0.1,0.4C36.7,5.4,37,5.4,37,5.1C36.8,5.2,36.7,5.3,36.5,5.1z M35.9,6.4
			c0.2-0.1,0.4-0.1,0.4-0.3C36,6,35.9,6.1,35.9,6.4z M34.3,44.9c0.5,0.1,1.3,0.7,1.5,0.6C35.3,45.3,34.9,44.6,34.3,44.9z M34.8,43.1
			c0.3,0.2,0.6,0.4,0.9,0.5C35.7,43.2,35,43,34.8,43.1z M35.2,7.5c0.2,0,0.4-0.1,0.5-0.2C35.5,7.3,35.2,7.4,35.2,7.5z M34.7,6.9
			c0.1,0.2-0.1,0.2-0.1,0.3C35.1,7.4,35,6.7,35.3,7C35.3,6.4,35,7.1,34.7,6.9z M31,11.6c-0.1-0.1-0.2-0.4,0.1-0.3
			c0.1-0.2-0.2-0.1-0.1-0.4c0.2,0.2,0.6,0.1,0.5-0.2c-0.2-0.1-0.1,0.3-0.3,0.2c0.1-0.4-0.4,0.2-0.4-0.1c0.3-0.4,0.8-0.1,1.1-0.5
			c-0.1-0.1-0.3-0.1-0.2-0.3c0.1,0,0.2,0,0.2-0.1c-0.2,0-0.2-0.2-0.1-0.3c-0.4,0.2-1.1,0.9-0.9,1.4c-0.1,0.2-0.5,0.3-0.3,0.6
			C30.6,11.5,30.7,11.5,31,11.6z M29,13.5c0.5-0.5,1.6-0.2,1.9-1.2c-0.5-0.2-1.4,0.2-1.4,0.7c0-0.1,0.2-0.2,0.2-0.1
			C29.6,13.2,29,13.2,29,13.5z M30,9.3c0.2-0.1,0.2,0.1,0.2,0.2c0-0.1,0.2-0.1,0.1-0.2C30.3,9.3,30,9.2,30,9.3z M29,13.2
			c0-0.1,0-0.2,0-0.3c-0.2,0.2-0.2-0.1-0.5,0.1c0.2-0.1,0.1,0.3-0.1,0.2c0-0.1,0-0.2,0-0.2c-0.2,0-0.3,0.2-0.4,0.5
			c0.2-0.2,0.5-0.1,0.8-0.2c-0.1,0-0.1-0.1,0-0.1S28.9,13.2,29,13.2z M28.5,12.5c0.1,0.2,0.5-0.2,0.3-0.3
			C28.8,12.4,28.5,12.3,28.5,12.5z M28.8,36c-0.1,0-0.1-0.1-0.2-0.1c0,0.2,0.2,0.6,0.2,0.5C28.7,36.3,28.9,36.2,28.8,36z M28.4,13.8
			c0.3,0.1,0.2-0.2,0.4-0.4C28.6,13.5,28.3,13.5,28.4,13.8z M27.9,12.7c0.2,0,0.4-0.1,0.5-0.2C28.2,12.6,27.9,12.5,27.9,12.7z
			 M27.8,34.7c0.1,0.4,0.4,0.9,0.6,0.9C28.1,35.4,28,34.9,27.8,34.7z M27.6,24.5c-0.1,0.1-0.1,0.1-0.2,0.2c0-0.1,0.1-0.1,0.1-0.2
			c-0.5,0.2-0.2,0.8-0.1,1.1c0.2-0.2,0.4-0.5,0.5-0.8C27.5,24.8,27.8,24.5,27.6,24.5z M27.3,34.9c0.2,0.1,0.2,0.8,0.5,0.6
			c-0.2-0.1-0.1-0.5-0.2-0.7C27.4,34.9,27.4,34.7,27.3,34.9z M27.4,34.2c-0.1,0.1,0,0.6,0.2,0.5C27.7,34.4,27.6,34.3,27.4,34.2z
			 M27,34.1c0,0.2,0.2,0.7,0.3,0.5C27.2,34.5,27.1,34.2,27,34.1z M27.1,23.5c-0.2-0.1-0.2,0.2-0.4,0.2c0-0.1,0.2-0.2,0.1-0.3
			c0,0.1-0.1,0.1-0.1-0.1c-0.1,0-0.1,0.1-0.2,0.1c0.1-0.1,0.1-0.2-0.1-0.3c-0.2,0.8,0.4,1.2,0.1,1.8c0.3-0.1,0.1-0.4,0.5-0.5
			c-0.1-0.1,0-0.1,0-0.2c-0.2-0.1-0.3,0.2-0.3,0C26.8,23.9,27,23.8,27.1,23.5z M26.5,37.3c0.1,0.1,0.2,0.5,0.4,0.3
			C26.7,37.6,26.7,37,26.5,37.3z M26.6,22.2c-0.2,0.2-0.1,0.6-0.1,0.8c0.1-0.1,0.1-0.2,0.1-0.3C26.4,22.7,26.9,22.3,26.6,22.2z
			 M25.9,35.2c0.1,0.2,0.2,0.5,0.5,0.6C26.4,35.5,26.2,34.9,25.9,35.2z M26,22.4c-0.1,0-0.1,0.1-0.2,0.1c0.1,0.4,0.1,0.5,0,0.9
			C26.2,23.3,26.1,22.7,26,22.4z M25.7,34.4c0.1,0.2,0.1,0.4,0.2,0.5C25.9,34.6,25.9,34.4,25.7,34.4z M24.8,29.1
			c-0.1,0.4,0.1,0.4,0.4,0.5c0.1-0.2,0.1-0.4,0.2-0.5C25.3,29,24.9,29.1,24.8,29.1z M24.3,20.9c0.1,0,0.1,0.2,0.1,0.2
			c0.1-0.2,0.4-0.3,0.3-0.6C24.4,20.7,24.5,20.7,24.3,20.9z M20.6,21c0.1-0.4,0.4-0.9,0.1-1.3C20.7,20.1,20.4,20.6,20.6,21z
			 M19.6,19.4c0.2,0.1,0.2-0.2,0.2-0.5C19.6,19,19.6,19.3,19.6,19.4z M18.9,20.7c0,0.6-0.1,1.2,0.1,1.7c0.2-0.4,0.2-0.8,0.2-1.3
			C19,21.1,19,20.9,18.9,20.7z M18.2,19.1c0.1,0.6-0.1,0.8-0.2,1c0.1,0.1,0.2,0.2,0.3,0.2C18.3,20,18.5,19.3,18.2,19.1z M18.1,21.5
			c-0.1,0.2-0.1,0.7,0.1,0.8C18.4,22.2,18.4,21.6,18.1,21.5z"/>
		<path class="st0" d="M68.5,14c0,0.1-0.4-0.1-0.3-0.5C68.3,13.6,68.4,13.9,68.5,14z"/>
		<path class="st0" d="M66.2,12.5c0.1-0.1,0.1,0.1,0.2,0.2c-0.1,0.2-0.2,0.1-0.4,0.1c0-0.1,0.1-0.1,0.1,0
			C66.2,12.7,66.2,12.6,66.2,12.5z"/>
		<path class="st0" d="M66.4,16.7c-0.4-0.4-0.8-0.6-0.9-1.3c0.1,0,0.1,0,0.1-0.1c0.1,0.1,0.2,0.2,0.2,0.4c0.1,0,0.1-0.1,0.1-0.2
			c0.2-0.1,0.1,0.4,0.2,0.4s-0.1-0.2,0.1-0.3C66.3,15.8,66.3,16.3,66.4,16.7z"/>
		<path class="st0" d="M66.1,11c-0.1,0.2-0.2-0.1-0.5,0C65.2,10.3,65.8,10.8,66.1,11z"/>
		<path class="st0" d="M65.5,32c-0.1,0.2-0.5,0.4-0.6,0.2C65.1,31.9,65.3,32.1,65.5,32z"/>
		<path class="st0" d="M64.6,9.2c0.2,0.3,0.4,0.5,0.5,0.8c-0.1-0.1-0.1,0-0.2,0c0.1,0.1,0.1,0.2,0.2,0.2C65,10.4,65,10,64.9,10.1
			C65,9.7,64.5,9.4,64.6,9.2z"/>
		<path class="st0" d="M64.9,18.9c0.2,0.1-0.1,0-0.2,0c-0.1,0.1,0.1,0.5,0.1,0.7c-0.2-0.2-0.2-0.8-0.2-1.2c-0.2-0.1-0.1,0.2-0.2,0.2
			c-0.2-0.2-0.2-0.6-0.2-1c0.1-0.1,0.2,0.1,0.2,0.1c0-0.5-0.4-0.8-0.2-1.1C64.5,17,64.8,18.2,64.9,18.9z M64.4,17.8
			c-0.1,0.1-0.1,0.5,0.1,0.5C64.4,18,64.6,17.9,64.4,17.8z"/>
		<path class="st0" d="M64.1,35.9c0.2,0.1,0.2,0.1,0.2,0.2c0.2-0.3,0.1-0.9,0.5-1.3c0,0.6-0.3,1.3-0.2,1.8c-0.4,0.5-0.6,1.2-0.8,1.9
			c-0.2-0.5,0.2-0.8,0.1-1.3c-0.4,0.3-0.2,1.2-0.8,1.4C63.5,37.5,64.2,36.9,64.1,35.9z"/>
		<path class="st0" d="M64.5,32.9c-0.4,0.2-0.9,0.4-1.2,0.6c-0.1-0.1-0.1-0.2-0.2-0.2c0-0.5,0.5-0.5,0.9-0.6c0,0.1-0.1,0.1-0.1,0.2
			C64.2,33,64.3,32.9,64.5,32.9z"/>
		<path class="st0" d="M63.9,7.4C63.9,7.5,64,7.5,63.9,7.4C64,7.6,63.9,7.4,63.9,7.4C63.8,7.3,64,7.3,64,7.2c0.1,0,0.1,0.2,0.2,0.2
			C64.2,7.6,64.1,7.3,63.9,7.4z"/>
		<path class="st0" d="M63.8,8.8c-0.1,0.1-0.1,0.3-0.2,0.2c0.1-0.2,0-0.3-0.2-0.4C63.5,8.5,63.6,8.8,63.8,8.8z"/>
		<path class="st0" d="M63.2,38.7c0.1,0.1-0.1,1.2-0.5,1.2c0.1-0.4-0.1-0.1-0.2-0.2c-0.1-0.5,0.2-1.1,0.5-1.5c0-0.1,0-0.4-0.2-0.3
			c0.1-0.5,0.2-0.7,0.6-0.5c0.1,0.6-0.2,0.9-0.2,1.4C63.1,38.8,63.1,38.8,63.2,38.7z M62.6,39.6c0.1,0,0.3-0.4,0.2-0.5
			C62.8,39.3,62.6,39.4,62.6,39.6z"/>
		<path class="st0" d="M63.2,8.7c-0.5,0.1-0.6-0.6-0.8-1c-0.4-0.8-1.2-1.4-1.5-2.4c0.5,0.3,0.6,1.1,1.2,1.3c0.2-0.1-0.2-0.6-0.2-0.3
			c-0.2-0.1,0.1-0.2,0-0.3c0.2,0.2,0.7,0.5,0.9,0.5c-0.2,0.2-0.3,0.2-0.6,0.2C62.3,7.7,62.8,7.9,63.2,8.7z"/>
		<path class="st0" d="M62.3,27.4c0.2,0.1-0.1,0.4-0.1,0.5C62,27.8,62.3,27.5,62.3,27.4z"/>
		<path class="st0" d="M61.8,42.1c0.1-0.1-0.3-0.1-0.2,0c0.1-0.2,0.3-0.9,0.6-1c-0.1,0.4-0.4,0.5-0.2,1c-0.2,0.1-0.4,0.4-0.5,0.5
			C61.4,42.4,61.7,42.2,61.8,42.1z"/>
		<path class="st0" d="M60.9,38.7c0.1-0.2,0.2,0,0.2-0.2c0.2,0.2-0.2,0.4-0.2,0.6C60.7,39.1,61.1,38.8,60.9,38.7z"/>
		<path class="st0" d="M61.2,41.5c0.1,0.1-0.1,0.6-0.3,0.5C60.9,41.8,61.1,41.8,61.2,41.5z"/>
		<path class="st0" d="M60.6,38c0.2,0,0.2-0.3,0.4-0.2c-0.8,0.8-1.7,1.8-2.8,2.4c0.1-0.1,0.2-0.5,0-0.3c0.7-0.5,1.8-1.2,2.5-2
			c-0.1-0.2,0.5-0.9,0.5-1.4C61.1,37,60.9,37.6,60.6,38z"/>
		<path class="st0" d="M61.1,40.5c-0.1,0.2-0.4,0.8-0.7,0.9C60.5,40.9,60.8,40.7,61.1,40.5z"/>
		<path class="st0" d="M61,34.9c0.1,0.1-0.2,0.5-0.4,0.5C60.7,35.2,60.9,35.2,61,34.9z"/>
		<path class="st0" d="M59.2,3.5c0.5,0.2,1.2,0.8,1.7,1.5c0,0.2-0.3-0.2-0.2,0.2c-0.2,0-0.2-0.2-0.4-0.2c-0.1,0-0.1,0.2-0.1,0.3
			C60,5.3,60,5,60.2,5C60,4.3,59.5,4,59.2,3.5z"/>
		<path class="st0" d="M60.1,42.3c-0.2-0.1-0.4-0.1-0.5,0.1c0.2-0.3,0.8-0.9,1.2-0.9c-0.1,0.1-0.1,0.4-0.3,0.4
			C60.7,41.5,60.1,42,60.1,42.3z"/>
		<path class="st0" d="M60.8,38.7c-0.4,0.4-0.7,0.8-1.2,1.1c0,0.2,0.2,0.1,0.3,0.1c-0.2,0.1-0.2,0.6-0.6,0.5
			c0.1-0.3-0.2-0.5-0.2-0.7C59.7,39.2,60.2,38.8,60.8,38.7z"/>
		<path class="st0" d="M59.9,45.6c0.1,0.1,0.1,0.1,0.2,0.1c0,0.3-0.2,0.2-0.2,0.5C59.7,46.1,59.9,45.7,59.9,45.6z"/>
		<path class="st0" d="M59.7,45.5c0.2,0.1-0.2,0.2-0.2,0.5c-0.1,0-0.1-0.1-0.1-0.1c-0.1,0-0.1,0-0.1,0
			C59.3,45.7,59.6,45.7,59.7,45.5z"/>
		<path class="st0" d="M59.3,6.7c0,0.2-0.3,0.1-0.4,0.1c0.2-0.1,0.3-0.5,0-0.5C59,6,59.4,6.5,59.3,6.7z"/>
		<path class="st0" d="M58.9,8.2c0.2,0.1,0.2-0.1,0.3,0c0,0.2-0.1,0.3-0.2,0.5C59,8.6,59,8.4,58.9,8.2z"/>
		<path class="st0" d="M58.9,41.5c0,0.5-0.5,0.3-0.7,0.4C58.1,41.7,58.6,41.4,58.9,41.5z"/>
		<path class="st0" d="M58.7,2.8c0,0.2,0.2,0.2,0.1,0.3c-0.2,0-0.2-0.2-0.4-0.4C58.4,2.6,58.6,2.9,58.7,2.8z"/>
		<path class="st0" d="M56.6,3.6C56.7,4,57,4,57.1,4.1C57.4,3.7,57.8,4.5,58,4c0.2,0.2,0.5,0.2,0.5,0.5c-0.1,0-0.1-0.1-0.2-0.1
			c0,0.2,0.1,0.4,0.2,0.5c-0.8,0-1.9-0.6-2.2-1.4C56.2,3.4,56,3,55.7,3.2c-0.2-0.6-0.8-0.6-1.3-0.8c0.9-0.4,1.9,1.1,2.4,0.2
			C57.1,2.7,57.2,3,57.5,3c-0.2,0.4,0,0.4,0.1,0.7c-0.1-0.1-0.2-0.2-0.4-0.3c-0.1,0.1,0,0.1,0,0.2c-0.2,0-0.2-0.2-0.4-0.2
			C56.6,3.5,57,3.8,56.6,3.6z"/>
		<path class="st0" d="M58.3,2.5c-0.2-0.2-0.5-0.1-0.5-0.5C56.8,1.7,58.3,1.9,58.3,2.5z"/>
		<path class="st0" d="M57.7,35.7c-0.1-0.2-0.2,0.4-0.4,0.3c0.1-0.5,0.5-0.6,0.6-1.1c0.2,0.2-0.3,0.5,0.1,0.6c0.1-0.1,0-0.4,0.2-0.4
			c0.1,0.3,0,0.2,0,0.6c-0.2,0.1-0.1-0.1-0.3-0.1c0.2,0.9-0.6,1.2-1.2,1.5C57.2,37,57.4,36.3,57.7,35.7z"/>
		<path class="st0" d="M55.5,5.2C55.4,5.4,55.2,5,55,5c0.1-0.3,0-0.4-0.1-0.6c0.5,0.2,0.9,0.5,1.4,0.8c-0.5,0.1-0.6-0.2-0.9-0.4
			C55.1,4.8,55.2,5.2,55.5,5.2z"/>
		<path class="st0" d="M55.2,44.6c0.1-0.1,0.2-0.3,0.5-0.2C55.7,44.8,55.3,44.7,55.2,44.6C55.1,44.5,55.2,44.5,55.2,44.6z"/>
		<path class="st0" d="M49.8,46.9c0,0.2,0.1-0.1,0.2,0c-0.1,0.2-0.5,0.1-0.6-0.1c0.2-0.4,0.6-0.2,0.9-0.2c1.1-0.1,1.9-0.5,3-0.7
			c-0.1,0.4-0.6,0-0.9,0.4c0.3,0.1,0.9,0.1,0.9-0.5c0.6,0.2,1.2-0.4,2.2-0.3c-0.4,0.6-3,0.8-2.9,1.6c-0.4-0.1-0.5-0.2-0.9-0.1
			c0.1-0.1,0.1-0.1,0.1-0.2C51,47,50.6,46.9,50.1,47C50.2,46.9,49.9,46.6,49.8,46.9z"/>
		<path class="st0" d="M53.8,5c-0.1-0.2-0.1,0.1-0.2,0H53.8c-0.2-0.3-0.5-0.4-0.9-0.4c0,0.2,0.2,0.2,0.2,0.2
			c-0.3,0.4-0.6-0.1-0.9-0.2c0.1-0.4,0.3,0.1,0.5,0.1c-0.2-0.7-1.3-0.5-1.6-1.1c0.1,0.1,0.4,0.2,0.5,0c0.1,0.2,0.7,0.5,1.1,0.4
			c0.5,0.6,1.7,0.6,2.2,1.4c-0.3,0-0.8-0.4-1.1-0.1c-0.2-0.2-0.5-0.1-0.6-0.5C53.5,4.8,53.6,5.4,53.8,5z"/>
		<path class="st0" d="M52.9,3.4c-0.2-0.1-0.1,0.2-0.2,0.2c0,0.2,0.3-0.1,0.2,0.2c-0.5,0.2-0.8-0.4-1.2-0.5c0.1-0.1,0.5,0.1,0.6,0.2
			c0.2-0.2-0.1-0.4-0.2-0.4c0.1-0.3,0.5,0.1,0.8-0.1c0.2-0.1,0.2-0.4,0.5-0.3c0.1,0.2-0.1,0.4,0.2,0.5c-0.1,0.2-0.2-0.1-0.3,0
			C53.4,3,53.2,3,53.4,2.9c-0.1,0-0.1,0-0.2,0c0,0.2,0.2,0.2,0,0.3c0.2,0.4,0.8,0.2,0.9,0.7c-0.1,0-0.2,0-0.2,0.2
			C53.9,3.7,53.1,3.8,52.9,3.4z"/>
		<path class="st0" d="M52.8,44.7c0.1,0.2-0.5,0.4-1.1,0.3c0.2-0.4,0.7,0.2,0.8-0.3C52.6,44.7,52.7,45,52.8,44.7z"/>
		<path class="st0" d="M51.9,50.2c0.2,0.1,0.4,0.2,0.5,0.5c-0.2,0.4-0.6,0.4-1.1,0.6c0.1,0.1,0.1,0.2,0,0.3c0.1,0.2,0.2-0.2,0.3,0
			c-0.2,0.6-0.2,0.8-0.2,1.5c-0.2,0.1-0.4,0.1-0.6,0.2c0-0.3,0.2-0.3,0.2-0.5c-0.5,0.1-0.8,0.2-1.2-0.1c0.2-0.3,0.4-0.1,0.6-0.3
			c0-0.2-0.4,0-0.4-0.2c0.1-0.2,0.1-0.3,0.3-0.2c-0.5-0.4-1.5-0.2-2.1-0.1c-0.2-0.1,0.1-0.2-0.2-0.2c0.1-0.2,0.5,0.1,0.6-0.2
			c-0.4-0.1-0.5-0.1-0.9-0.2c1.3-0.5,2.7-0.1,3.9-0.7c0-0.1-0.1-0.1-0.1-0.2C51.5,50.5,52,50.5,51.9,50.2z"/>
		<path class="st0" d="M51.8,2.5c-0.5,0.4-0.9,0.4-1.5,0.1c0.4,0,0.6-0.1,0.9,0.2C51.3,2.6,51.5,2.5,51.8,2.5z"/>
		<path class="st0" d="M48.2,45.9c0.8-0.5,1.8-0.4,2.8-0.6c0.1,0.3-0.1,0.3-0.1,0.5C50,46,49,46.2,48.3,46.3
			C48.6,45.8,48.2,46.3,48.2,45.9z"/>
		<path class="st0" d="M48.9,4.4c-0.4-0.1-0.1,0.1,0,0.2c-0.1,0.2-0.3-0.1-0.2-0.3C48.4,4.5,48.4,4,48.1,4C48.3,4,49,3.9,48.9,4.4z"
			/>
		<path class="st0" d="M47.6,47.2c0.2-0.1-0.1-0.2,0.1-0.3c-0.1-0.1-0.3-0.1-0.5-0.2c0.2-0.2,0.7,0.1,0.8-0.1c0-0.2-0.4,0.1-0.2-0.2
			c0.4,0.1,1.4,0.1,0.4,0.2c0,0.2,0.2,0.1,0.3,0.2c0.1,0.1-0.2,0.2-0.1,0.2c-0.2,0.1-0.4,0.2-0.5,0.5c0.1,0.2,0.2-0.1,0.3,0
			c0,0.2-0.4,0.1-0.6,0.2C47.7,47.5,48.2,47.1,47.6,47.2z"/>
		<path class="st0" d="M47.9,1.8c0-0.2-0.4,0.1-0.3-0.1c0-0.4,0.4-0.1,0.5-0.1c-0.1,0.4,0,0.5,0.2,0.5c-0.2,0.2-0.8-0.2-1.2,0.2
			c0-0.2,0-0.4-0.2-0.3C47.3,1.9,47.5,2.1,47.9,1.8z"/>
		<path class="st0" d="M43.5,52.7c-0.2,0.4-0.7,0.2-1.1,0.1c0.1-0.2,0.5,0,0.6-0.2C43,53,43.3,52.7,43.5,52.7z"/>
		<path class="st0" d="M41.7,52.2c-0.4,0.3-1.3,0.1-1.5-0.2c0-0.1,0.1-0.1,0.1-0.2c0.1-0.2,0.1,0.1-0.1,0.1
			C40.7,52.2,41.2,52.1,41.7,52.2z"/>
		<path class="st0" d="M40.6,52.6c0.2-0.2,0.5,0,0.9-0.1c0,0.2,0.1,0.2,0.2,0.3c-0.2,0.3-0.2-0.2-0.5-0.2
			C41.4,53,40.7,52.6,40.6,52.6z"/>
		<path class="st0" d="M41.6,2.4c-0.5,0.2-1.2,0-1.5,0.1c0.1-0.1,0.1-0.1,0.1-0.2C40,2.7,39,2.5,38.7,2.5c0.1-0.4,1.1-0.2,1.5-0.4
			c0.1,0.1,0.2,0.1,0.1,0.2C40.7,2.1,41.2,2.5,41.6,2.4z"/>
		<path class="st0" d="M37.8,43.5c0.1,0.2-0.5-0.1-0.3-0.3c-0.6,0-1.2-0.2-1.5-0.8c0.9,0.3,1.7,0.6,2.4,1.1
			c-0.2-0.1-0.4-0.2-0.6-0.2C37.7,43.4,37.7,43.5,37.8,43.5z"/>
		<path class="st0" d="M38.2,2.4c-0.6,0.6-1.6,0.4-2.5,0.7C36.3,2.8,37.5,2.6,38.2,2.4z"/>
		<path class="st0" d="M36.1,1.5c0-0.2-0.2-0.2,0.1-0.3c-0.1-0.1-0.3-0.2-0.4-0.1c0-0.2,0.9-0.2,1.2-0.5c0-0.1-0.1-0.2-0.1-0.3
			c0.2-0.1,0.2-0.2,0.4-0.4c0.1,0.1-0.1,0.5,0.3,0.4c-0.3,0.4-1.1,0.4-0.9,0.9c-0.5-0.2-0.2,0.4-0.8,0.4C35.9,2,36.1,2,36,2.4
			c-0.5,0.1-0.6,0.5-1.2,0.5c0.4,0.4-0.5,0.5-0.6,0.1c0.6,0.2,0.7-0.6,1.2-0.6v0.2c0.2-0.1,0.2-0.4,0.5-0.3c0-0.1-0.1-0.1-0.1-0.2
			c-0.2,0-0.2,0.3-0.5,0.2c0.1-0.1,0.2-0.1,0.1-0.2C35,2.2,35,2.5,34.7,2.6C34.9,1.9,35.4,1.6,36.1,1.5z"/>
		<path class="st0" d="M36.3,45.3c0.2-0.1,0.8,0.1,1.1,0.3C37.4,45.8,36.7,45.4,36.3,45.3z"/>
		<path class="st0" d="M33.4,49.3c0.3,0,0.8,0.4,1.2,0.5C34.5,49.9,33.7,49.6,33.4,49.3z"/>
		<path class="st0" d="M34.4,2.1C34.6,2.5,33.9,2.7,34,3c-0.4-0.2-0.7,0.5-1.1,0.6C33,3,34.1,2.8,34.4,2.1z"/>
		<path class="st0" d="M33.3,2.4C33.1,2.5,33,2.1,33,2.5c-0.2-0.1,0.1-0.4,0.2-0.3C33.1,2.3,33.2,2.4,33.3,2.4z"/>
		<path class="st0" d="M32.7,48.3c-0.2,0.1-0.2-0.2-0.3-0.2C32.4,48,32.7,48.1,32.7,48.3z"/>
		<path class="st0" d="M31.8,3.4c0.1,0.3-0.5,0.4-0.1,0.4c0.1,0.2-0.3,0-0.3,0.2C31.3,3.8,31.7,3.5,31.8,3.4z"/>
		<path class="st0" d="M31.4,4.1c-0.1,0.7-0.5,0.5-0.8,0.8C30.8,4.6,30.9,4.1,31.4,4.1z"/>
		<path class="st0" d="M31.3,46.5c-0.4-0.1-0.9-0.5-1.2-0.9C30.4,45.7,30.8,46.3,31.3,46.5z"/>
		<path class="st0" d="M30.8,47.3c-0.9-0.8-1.7-1.2-2.5-2.1c0.5,0.4,0.8,0.9,1.5,0.8C30,46.5,30.7,46.6,30.8,47.3z"/>
		<path class="st0" d="M30,47.8c-0.3,0.1-0.2-0.4-0.5-0.4c0.4-0.1,0.2-0.5,0-0.7C29.4,46.6,29.8,47,30,47c-0.2,0.1,0,0.3-0.2,0.4
			C29.8,47.7,30.1,47.4,30,47.8z"/>
		<path class="st0" d="M27.3,8.9c-0.1-0.1,0.1-0.2-0.1-0.5c0.6-0.2,1.1-0.2,1.6-0.1c0-0.3,0.2,0.2,0.5,0c-0.3,0.3-0.6,0.5-1.1,0.6
			c-0.1-0.4-0.2-0.3-0.6-0.3C27.8,8.9,27.4,8.7,27.3,8.9z"/>
		<path class="st0" d="M27.4,46.5c-0.2,0.1-0.5-0.4-0.7-0.5c0.1-0.4-0.4-0.7-0.6-1c-0.4-0.1-0.4,0.2-0.6,0.2c0-0.1-0.1-0.1-0.1-0.1
			c0-0.5,0-1.1-0.2-1.5c0.5-0.1,1,0.4,1.2,0.9c0.4,0.6,1.1,1.1,1.5,1.6c0.1-0.4,0.6,0.2,0.8,0.3c-0.1,0.2-0.2,0.3-0.4,0.3
			c0.2-0.2-0.1-0.3-0.2-0.3c-0.1-0.2,0.1-0.1,0.1-0.2c-0.1,0-0.6,0.1-0.8-0.2C27.1,46.3,27.4,46.4,27.4,46.5z"/>
		<path class="st0" d="M27.3,44.7c0-0.3-0.2-0.4-0.3-0.5c0.4-0.4,0.9,0.4,1.1,0.7c-0.5,0.2-1.2,0.1-1.5-0.6
			C26.5,44.3,26.9,44.8,27.3,44.7z"/>
		<path class="st0" d="M26.8,11.9c-0.2,0.2-0.4,0.4-0.6,0.5C26.2,12.3,26.6,11.9,26.8,11.9z"/>
		<path class="st0" d="M25.9,8.7C25.3,9.3,25.2,8.9,25.9,8.7L25.9,8.7z"/>
		<path class="st0" d="M25.2,24.9c-0.3-0.1,0-0.5-0.1-0.5C25.2,24.2,25.4,24.8,25.2,24.9z"/>
		<path class="st0" d="M24.9,43.8c-0.1,0.1-0.3,0-0.4,0c0.1-0.3-0.2-0.5-0.2-0.8C24.6,43.4,24.6,43.4,24.9,43.8z"/>
		<path class="st0" d="M23.6,42.8c-0.4,0.1-0.3-0.4-0.5-0.5C23.2,42.4,23.6,42.5,23.6,42.8z"/>
		<path class="st0" d="M21.5,31.1c-0.2-0.2-0.2-0.5-0.3-0.8c-0.2,0.2,0.1,0.5,0,0.8c-0.2-0.4-0.3-1.1-0.6-1.5c0.1,0,0.1,0.1,0.1,0.1
			c0-0.2-0.2-0.1-0.2-0.3c0.4-0.2-0.1-1.3,0-1.7C20.9,28.8,21.4,29.9,21.5,31.1z"/>
		<path class="st0" d="M19.7,25.9c-0.2,0-0.2-0.8-0.1-0.6C19.6,25.5,19.7,25.6,19.7,25.9z"/>
		<path class="st0" d="M18.6,17.4c0.1,0.1-0.1,0.5-0.1,0.7C18.4,17.9,18.6,17.5,18.6,17.4z"/>
		<path class="st0" d="M17,20.6c-0.1,0.2,0.1,0.9,0,1.2c-0.4-0.2-0.5,0.2-0.8,0.3c-0.2-0.5,0.3-0.8,0.3-1.3c0.1,0,0.1,0.2,0.2,0.2
			c0,0.2,0,0.4-0.1,0.5C17.1,21.6,16.9,20.9,17,20.6z"/>
		<path class="st0" d="M67.5,16.7c0,0.2,0.2,0.2,0.1,0.5c0.2-0.3,0.4,0.4,0.3,0.7c-0.4,0-0.4,0.2-0.6,0c0.2-0.5-0.6-1.2-0.2-1.8
			c-0.4-0.2-0.6-0.7-0.8-1.1c0.4-0.1,0.5,0.1,1.1,0c0.1,0.1,0.1,0.2,0.1,0.4c0.4-0.1,0.4,0,0.6-0.2c-0.1,0.5,0.1,1,0.1,1.6
			c-0.2-0.1-0.1-0.4-0.2-0.5c-0.2,0.1-0.2,0.3-0.1,0.4c0,0.2-0.2,0.1-0.2,0.2C67.6,17,67.7,16.7,67.5,16.7z M67.7,15.5
			c0,0.2,0.1,0.3,0.1,0.5C68,16,67.8,15.5,67.7,15.5z M67.4,15.8c-0.1,0.2,0.1,0.3,0,0.7c0.1,0.1,0.1-0.1,0.3,0
			C67.6,16.2,67.5,16,67.4,15.8z"/>
		<path class="st0" d="M61.7,40.3c-0.1-0.1-0.1,0.1-0.2-0.1c0.1-0.2-0.1-0.4,0.1-0.5C61.7,39.7,61.8,40.1,61.7,40.3z"/>
		<path class="st0" d="M60.6,8.5c-0.2-0.4-0.4-0.5-0.9-0.3c0-0.1,0-0.2,0-0.2c-0.2,0-0.1,0.2-0.3,0.2C59.4,8,59.3,8,59.2,8
			c0.1-0.1,0.1-0.3,0.3-0.3c0,0.2,0.1,0.2,0.2,0.2c0.1-0.2,0.2-0.3,0.5-0.4C60,7.1,59.6,7.3,59.4,7c0.2-0.1,0.3,0.1,0.5,0.1
			C60,6.9,59.7,7,59.8,6.7C60,6.8,60.3,7.3,60.6,7c-0.1-0.2-0.4-0.1-0.3-0.5c0.2,0.1,0.3,0.2,0.6,0.2c-0.2-0.7-0.8-0.9-1.1-1.5
			c0.4-0.1,0.4,0.3,0.5,0.5c0.1-0.2,0.3-0.1,0.4,0.1c0,0.1-0.1,0.1-0.2,0.1c0.4,0.7,0.9,1.1,1.2,1.8c0.1-0.1,0.1-0.2,0.2-0.2
			c-0.1,0.3,0.1,0.2,0,0.5c-0.2-0.2-0.4-0.5-0.6-0.6c-0.1,0.4-0.5,0.2-0.8,0.2c0,0.2,0.2,0.2,0.2,0.5c-0.1,0-0.2,0-0.2,0
			C60.5,8.2,60.6,8.3,60.6,8.5z"/>
		<path class="st0" d="M45.5,48.7c-0.4,0.4-1.2,0.2-1.6,0c0-0.2,0.2-0.1,0.3-0.1c0.1-0.2-0.1-0.1-0.2-0.2c0.3-0.2,0.8,0.1,1.1,0
			C44.7,48.7,45.3,48.7,45.5,48.7z"/>
		<path class="st0" d="M42.5,51.1c-0.9,0.4-2.5,0.2-3.1-0.6C40.4,50.7,41.5,50.9,42.5,51.1z"/>
		<path class="st0" d="M41.7,51.6c-0.3,0.5-1.5-0.4-1.6,0.2C40,51.7,40,51.7,40,51.6c-0.2,0.4-0.4,0-0.6,0c0-0.1,0.1-0.1,0.2-0.1
			c-0.5-0.3-1.3-0.4-1.7-0.5C39.2,50.8,40.3,51.6,41.7,51.6z"/>
		<path class="st0" d="M31.3,49.6c-0.1,0.1,0.1,0.1-0.1,0.2c-0.4,0-0.5-0.4-0.8-0.5C30.6,49,31.1,49.3,31.3,49.6L31.3,49.6z"/>
		<path class="st0" d="M28.7,9c-0.1,0.4-0.4,0.3-0.6,0.5c0-0.1-0.1-0.2-0.2-0.2c0-0.3,0.5,0,0.4-0.4C28.4,9,28.5,9.1,28.7,9z"/>
		<path class="st0" d="M22.6,31.1c0.2,0.8,0.3,1.7,0.5,2.4c-0.8-1.9-1.3-4.3-1.5-6.4c0.2,0.4,0.4,0.7,0.6,1.1c0.1,0,0.1-0.1,0.2-0.1
			c0.2,0.5,0.6,1.5,0.8,1.8c0.1,0.3-0.2,0.4-0.4,0.4c0,0.3,0.2,0.7,0.2,1.2C22.9,31.5,22.8,31.3,22.6,31.1z"/>
		<path class="st0" d="M18.9,26.6c-0.3-0.2-0.5-0.6-0.5-1.3c0.2,0.1,0.1,0.5,0.2,0.6c0.1-0.1,0.1-0.2,0.1-0.4
			C19,25.8,19.3,26.5,18.9,26.6z"/>
		<path class="st0" d="M16.9,26.2c-0.3-0.2-0.4-0.8-0.2-1.2C17.3,24.8,17,25.9,16.9,26.2z"/>
	</g>
	<g id="Glyph_2_">
		<path class="st1" d="M33.7,24.8l3.4,2.2v-1.9c0-0.2,0.2-0.5,0.5-0.5l0,0h3.1V22h-2.2c-0.2,0-0.5-0.2-0.5-0.5c0-0.1,0-0.2,0.1-0.2
			l2.7-4v-2.5h-9c-0.5,0-0.9,0.4-0.9,0.9v9.1h2.7C33.6,24.8,33.6,24.8,33.7,24.8z M32.6,21.2c0,0.2-0.2,0.5-0.5,0.5
			s-0.5-0.2-0.5-0.5v-0.9c0-0.2,0.2-0.5,0.5-0.5s0.5,0.2,0.5,0.5V21.2z M32.6,18.4c0,0.2-0.2,0.5-0.5,0.5s-0.5-0.2-0.5-0.5v-2.2
			c0-0.2,0.2-0.5,0.5-0.5l0,0h3.6c0.2,0,0.5,0.2,0.5,0.5c0,0.3-0.2,0.5-0.5,0.5h-3.1C32.6,16.7,32.6,18.4,32.6,18.4z"/>
		<path d="M41.1,29.2c-0.2,0-0.5-0.2-0.5-0.5l0,0v-3.1h-2.7v2.2c0,0.2-0.1,0.3-0.2,0.4c-0.1,0-0.1,0.1-0.1,0.1s0,0-0.1,0h-0.1l0,0
			h-0.1c0,0,0,0-0.1,0s-0.1-0.1-0.1-0.1l-4-2.7h-2.5v9c0,0.5,0.4,0.9,0.9,0.9h9v-2.7c0-0.1,0-0.2,0.1-0.2l2.2-3.4h-1.7V29.2z
			 M34.4,34.7h-2.2c-0.2,0-0.5-0.2-0.5-0.5l0,0v-3.6c0-0.2,0.2-0.5,0.5-0.5s0.5,0.2,0.5,0.5v3.1h1.8c0.2,0,0.5,0.2,0.5,0.5
			C34.8,34.4,34.6,34.7,34.4,34.7z M37,34.7h-0.9c-0.2,0-0.5-0.2-0.5-0.5c0-0.2,0.2-0.5,0.5-0.5H37c0.2,0,0.5,0.2,0.5,0.5
			C37.5,34.4,37.3,34.7,37,34.7z"/>
		<path class="st1" d="M48.6,25.6l-3.4-2.2v1.9c0,0.2-0.2,0.5-0.5,0.5l0,0h-3.1v2.7h2.2c0.2,0,0.5,0.2,0.5,0.5c0,0.1,0,0.2-0.1,0.2
			l-2.7,4v2.5h9c0.5,0,0.9-0.4,0.9-0.9v-9.1h-2.7C48.7,25.6,48.6,25.6,48.6,25.6z M49.7,29.2c0-0.2,0.2-0.5,0.5-0.5s0.5,0.2,0.5,0.5
			v0.9c0,0.2-0.2,0.5-0.5,0.5s-0.5-0.2-0.5-0.5V29.2z M49.7,32c0-0.2,0.2-0.5,0.5-0.5s0.5,0.2,0.5,0.5v2.2c0,0.2-0.2,0.5-0.5,0.5
			l0,0h-3.6c-0.2,0-0.5-0.2-0.5-0.5c0-0.2,0.2-0.5,0.5-0.5h3.1V32z"/>
		<path d="M53.4,12.2h-9v2.7c0,0.1,0,0.2-0.1,0.2L42,18.5h1.9c0.2,0,0.5,0.2,0.5,0.5l0,0v3.1h2.7V19c0-0.2,0.2-0.5,0.5-0.5
			c0.1,0,0.2,0.1,0.3,0.1l4,3.5h2.5v-9C54.3,12.6,53.9,12.2,53.4,12.2z M48.9,13.9H48c-0.2,0-0.5-0.2-0.5-0.5c0-0.2,0.2-0.5,0.5-0.5
			h0.9c0.2,0,0.5,0.2,0.5,0.5C49.3,13.8,49.1,13.9,48.9,13.9z M53.4,17.1c0,0.2-0.2,0.5-0.5,0.5s-0.5-0.2-0.5-0.5V14h-1.8
			c-0.2,0-0.5-0.2-0.5-0.5c0-0.2,0.2-0.5,0.5-0.5h2.2c0.2,0,0.5,0.2,0.5,0.5l0,0L53.4,17.1L53.4,17.1z"/>
	</g>
</g>
<g>
	<path class="st1" d="M125.7,32.8h-2.9v-0.1c0-0.1-0.1-0.1-0.1-0.2c-0.1-1.1-0.1-2.2-0.2-3.2l-0.1-0.8c0.1-0.1,0.2-0.1,0.3-0.1
		c0.2-0.1,0.4-0.1,0.6-0.2c0.5-0.1,0.7-0.5,0.7-1.1V27h-1.7v-4.1c1.3-0.1,2-0.6,2.1-1.6v-0.1h-0.1l0,0l-0.1-0.1
		c-0.9,0.1-1.6,0.1-2.2-0.3c-0.2-0.1-0.5-0.1-0.8,0.1s-0.6,0.6-0.5,1c0,0.1,0.1,0.2,0.1,0.4c0.1,0.5,0.1,0.9,0.1,1.4
		c0,0.4,0,0.8-0.1,1.1c0,0.1-0.1,0.4-0.1,0.5s0,0.2,0,0.4c0,0.2,0,0.4-0.1,0.6c-0.2,1-0.2,1.8,0,2.5c0.1,0.1,0.1,0.3,0.1,0.4v0.1
		c0,1.2,0.1,2.5,0.1,3.7c0,0.5,0.2,0.9,0.6,1.2c0.2,0.1,0.4,0.2,0.7,0.2c0.2,0,0.4-0.1,0.6-0.1c0.3-0.1,0.6-0.1,1-0.2h0.1
		c0.1,0,0.2,0,0.4,0s0.3,0,0.4,0c0.6-0.1,0.8-0.4,0.8-1.1L125.7,32.8z M117.1,32.1c-0.4-0.4-0.3-1.1-0.4-1.8c-0.1-0.5-0.1-0.7,0-1.1
		c0.1-0.9-0.1-1.7-0.1-2.5c0-1.6-0.1-3.2-0.1-4.9c0-0.1-0.1-0.3-0.1-0.4c-0.1-0.4-0.4-0.6-0.8-0.5c-0.5,0.1-0.5,0.4-0.5,0.8
		c0,2.1,0.1,4.2,0.1,6.4c-0.1,1.6,0.1,3.1,0.1,4.7c0,0.5,0.1,0.9,0.6,1.1c0.9,0.4,1.8,0,2.6-0.4c0.6-0.3,0.5-0.9,0.8-1.5
		C118.6,32.2,117.7,32.8,117.1,32.1z M114,21.5c-0.3-0.3-0.6-0.3-1-0.1c-0.3,0.1-0.6,0.3-0.8,0.4c-0.8,0.2-1.7-0.2-2.5,0
		c-0.3,0.1-1.6-0.4-1.8,0c-0.1,0.3,0.1,0.6,0.1,0.6c0.8,0.5,2.8,0.8,3.7,0.7c-0.4,1.1-0.6,1.4-1.4,2.2c-0.4,0.4-0.7,0.7-1,1.1
		c-0.4,0.6-0.8,1.1-1.2,1.7c-0.2,0.4-0.5,0.8-0.6,1.1c-0.4,1.4-1,2.4-1.1,3.9c0,0.4,0.4,0.6,0.6,0.6c0.9,0,1.4-0.1,2-0.1
		c0.7,0.1,1.6,0.2,2.3,0.1c1-0.1,2.6,0.2,2-0.5c-0.6-0.6-3.6-1.1-5.1-0.9c0.7-2,1.2-3.5,2.3-5c0.9-1.3,2-2.5,2.8-4.1
		c0.1-0.3,0.4-0.5,0.6-0.6C114.4,22.2,114.4,21.9,114,21.5z M105.2,21.5c-0.3-0.3-0.6-0.3-1-0.1c-0.3,0.1-0.6,0.3-0.8,0.4
		c-0.8,0.2-1.7-0.2-2.5,0c-0.3,0.1-1.6-0.4-1.8,0c-0.1,0.3,0.1,0.6,0.1,0.6c0.8,0.5,2.8,0.8,3.7,0.7c-0.4,1.1-0.6,1.4-1.4,2.2
		c-0.4,0.4-0.7,0.7-1,1.1c-0.4,0.6-0.8,1.1-1.2,1.7c-0.2,0.4-0.5,0.8-0.6,1.1c-0.4,1.4-1,2.4-1.1,3.9c0,0.4,0.4,0.6,0.6,0.6
		c0.9,0,1.4-0.1,2-0.1c0.7,0.1,1.6,0.2,2.3,0.1c1-0.1,2.6,0.2,2-0.5c-0.6-0.6-3.6-1.1-5.1-0.9c0.7-2,1.2-3.5,2.3-5
		c0.9-1.3,2-2.5,2.8-4.1c0.1-0.3,0.4-0.5,0.6-0.6C105.6,22.2,105.6,21.9,105.2,21.5z M96,23.1c0-0.4-0.1-0.8,0-1.1
		c0-0.5,0-0.8-0.2-1.1c-0.1-0.1-0.4-0.2-0.6-0.1c-0.1,0-0.2,0.1-0.3,0.2c-0.5,0.6-0.3,2.5-0.2,3c0,0.3,0.1,0.6,0.1,1
		c0,0.1,0,0.3,0,0.4c0.1,2.5,0.1,4.7,0.1,6.8c0,0.1-0.1,0.4-0.1,0.5l-0.1,0.2c-0.1,0-0.1-0.1-0.2-0.1c-0.2-0.1-0.5-0.1-0.7-0.3
		c-0.1-0.1-0.3-0.3-0.4-0.5c-0.1-0.1-0.1-0.4-0.1-0.6c-0.1-0.6-0.3-1.2-0.3-1.8c0-3-0.3-5.6-0.9-8.2c-0.1-0.5-0.4-0.8-0.7-0.9
		c-0.2-0.1-0.5,0-0.8,0.4c-0.2,0.3-0.1,0.7,0,1.1c0,0.1,0.1,0.2,0.1,0.3c0.2,1.1,0.4,2.3,0.4,3.6c0,0.4,0.1,0.7,0.1,1.1
		c0.1,0.6,0.1,1.1,0.1,1.7c-0.1,1.1,0,2,0.3,2.8c0.4,1.1,1.1,2,2.3,2.5c0.4,0.1,0.6,0.2,0.9,0.2c0.2,0,0.4-0.1,0.5-0.1
		c0.4-0.1,0.6-0.5,0.8-0.9C96,33,96,32.8,96,32.5c0-0.1,0-0.1,0-0.2c0-0.6,0-1.1,0-1.6c0-0.4,0-0.9,0-1.3c0-0.6,0-1.3,0.1-1.9
		c0-1.1,0.1-2.3,0.1-3.5C96.1,23.7,96.1,23.4,96,23.1z M85.5,25.6c-0.1-1.2-0.2-2.3-0.3-3.7c0.3-0.1,0.7-0.3,1.1-0.4
		C87.1,22.7,86.7,24.6,85.5,25.6z M88.3,21.7c-0.4-1-1.3-1.3-2.5-1.2c-0.6,0.1-1.3,0.2-2.1,0.4c0,1.4,0,2.9,0,4.4
		c0,1.3,0.1,2.7,0.1,4s-0.1,2.5-0.1,3.7c0,0.4-0.1,0.9,0.2,1.3c0.1,0.1,0.5,0.1,0.8,0.1c0.6,0,0.9-0.2,0.9-0.8c0-0.5-0.1-1-0.1-1.5
		c0-1.4,0-2.8,0-4.2c0.3-0.1,0.6-0.2,0.8-0.4c1-1.1,1.8-2.3,2-3.7C88.5,23,88.5,22.3,88.3,21.7z"/>
</g>
<g>
	<g>
		<path class="st0" d="M237.9,31.2c-0.1,1-0.9,1.2-0.6-0.1C237.5,30.8,237.8,30.9,237.9,31.2z"/>
		<path class="st0" d="M134.3,19c0.2,0.1-0.1,0.7,0.1,0.8c-0.3,0.3-0.5,0.9-0.9,0.8c0-0.4,0.3-1.2,0.1-1.2
			C133.8,18.6,134.2,19.3,134.3,19z"/>
		<path class="st0" d="M229.2,37.5c0.5,0.2,1.3-0.1,1.2,0.9C229.8,38.2,229,38.5,229.2,37.5z"/>
		<path class="st0" d="M246.3,42.4c0.1,0,0.1,0.1,0.1,0.3c0.1,0.7,1.1,0.1,1.2,0.7C247.2,43.7,245.7,43.5,246.3,42.4z"/>
		<path class="st0" d="M160.5,30.2c-0.6,0.8-0.9,0.2-1.6,0.5C159.2,30,159.9,30.3,160.5,30.2z"/>
		<path class="st0" d="M237.3,43.7c-0.1,0.9-1.1,0.3-1.2,0.1C236.3,42.9,236.7,43.9,237.3,43.7z"/>
		<path class="st0" d="M222,41.6c-0.3,0.3-0.7,0.4-1.1,0.3C221,40.9,221.7,41.7,222,41.6z"/>
		<path class="st0" d="M214.7,41.9c-0.1,1-0.7,0.2-1.1,0.3C213.8,41.7,214.7,41.7,214.7,41.9z"/>
		<path class="st0" d="M212.5,41.8c-0.4,0.6-0.7,1.1-1.3,1c0.1-0.3,0.1-0.6,0.2-1C212,42,212,41.9,212.5,41.8z"/>
		<path class="st0" d="M145.7,34.1c-0.3,0-0.6-0.1-0.7-0.4C145,33.4,146,33.4,145.7,34.1z"/>
		<path class="st0" d="M200.2,44.1c-0.6,1.3-1.9,0.7-2.7,0.6C198.5,43.3,199.1,44.3,200.2,44.1z"/>
		<path class="st0" d="M198,46.2c0.3-0.5,0.9,0,1.3,0C199.1,46.7,198.4,46.1,198,46.2z"/>
		<path class="st0" d="M173.3,43.6c0.1-0.3,1.1-0.4,0.9,0.4C173.9,43.9,173.5,44,173.3,43.6z"/>
		<path class="st0" d="M181.8,48.6c-1.3,2.2-2.9,0.7-4.8,0.5c0.7-2.2,1.8-0.6,2.7-0.6C180.5,48.6,181.4,47.7,181.8,48.6z"/>
		<path class="st0" d="M182.1,48.9c0.5,0.1,0.9,0.1,1.4,0.2C183.4,49.7,182,49.9,182.1,48.9z"/>
		<path class="st0" d="M176.8,48.9c-0.4,0.9-1.3,0.1-2,0.2C175.3,47.6,176.2,48.3,176.8,48.9z"/>
		<path class="st0" d="M174.4,48.5c-1.3,1.5-2.5,0.3-4.3,0.3C171.3,47.7,173.1,48.3,174.4,48.5z"/>
		<path class="st0" d="M167.2,48.6c-0.3,1.3-1.4,0.3-2.1,0.4C165.6,47.9,167.1,47.8,167.2,48.6z"/>
		<path class="st0" d="M162.7,47.6c-0.1,0.7,0.9,0.4,1.3,0.9c-0.5,1.2-1.5,0.5-2.1,0.4C162,48.2,162.5,48.4,162.7,47.6z"/>
		<path class="st0" d="M161.5,48.7c-1.1,1.2-4.2,1.9-4.2-0.7C158.7,48.2,160.6,47,161.5,48.7z"/>
		<path class="st0" d="M156.6,48.2c0,0.7-0.3,0.6-0.3,1.2c-0.2-0.5-0.9-0.3-1.2-0.7C155.6,47.9,155.9,48.4,156.6,48.2z"/>
		<path class="st0" d="M121.6,45.4c0.3,0.6,0.7-0.1,1,0.4c-0.2,1-0.8,0.8-1.3,0.8C121.3,45.9,121.6,46,121.6,45.4z"/>
		<path class="st0" d="M144.8,59.7c0.2,0.6,1.2,0,1,1.1C145.6,61,144.7,60.7,144.8,59.7z"/>
		<path class="st0" d="M191.8,41.3c0.3,3.3,2.5-0.8,3.5,1c0.6-0.6,1.5-0.1,2.1,0.1c-2.8,1.6-5,0.7-8.1,1.7c-0.2,0.2,0.2,0.8-0.2,1.4
			c-2.4,0-4.8,1.1-7.3,0.8c-0.5,0.1-0.1,0.7-0.4,1.2c-1-0.1-1.5-1.4-2.4-0.4c-5.5-1.2-11.2,0.6-16.8,0.3c-5.3-0.2-9.6-0.5-14.8-1.1
			c0.1-0.2,0.7-0.7,0.1-0.7c0.5-0.4,0.4-0.4,0.6-1.6c-0.9-0.7-0.7,1.7-1.1,2.3c-7,0.7-14.9-0.8-20.5-1.2c0.4-1.3,1.8,0.5,2-1.4
			c0.6,0.3,0.6,0.2,1.1,0.7c-0.2-0.7,1.7-2.6,2.4-1.9c0.3-0.3,0.4-0.9,0.7-1.1c-1.9-0.8-3-0.2-4.4-0.2c1.7-1.4,4.3,0.5,5.2-2.6
			c1.8-1,3.7,0.5,4.8-0.2c0.3-0.2,0.6-0.9,0.9-1.1c0.6-0.4,1.2,0.1,1.9-0.2c1.5-0.6,2.9-2.8,4.5-2.8c2.9-2.7,7,0,9.6-1.5
			c0.7,0.2,0.7,0.2,1.4,0.2c-0.1,0.5-0.4,0.3-0.4,0.9c1.3,0.5,2-0.9,3.1,0c3.7-2.1,8.9-1.5,13-1.9c0.3,0.1,0.2-0.8,0.3-1.2
			c2-0.3,3.4,0.5,4.9,0.5c0.2-0.1,0.3-0.5,0.4-0.9c1,0.1,1.9,0.1,2,1.1c0.3-1.9,2-0.1,1.6,1.2c0.7-0.1,0.6,0,1.2-0.3
			c0-0.7-0.5,0.4-0.6-0.3c0.5-1,1.6-1.4,1.9-0.4c1.9-1.2,6.2-0.9,8,0.5c0.8-0.4,1.4-0.4,1.7,0.5c-0.1,0.3-0.3,0.2-0.4,0.2
			c0.6,1.3,1.5,0,2.2,0.6c0.3-1.1-0.9-0.1-0.8-0.9c0.9-0.6,3-0.1,3.7,0.6c-0.6-0.3-2-0.2-2.6-0.2c2.7,1.2,7.2,0.9,11.1,1.2
			c1.2,0.1,2.6,0.5,3.4,0c0.3,0.1,0.3,0.6,0.5,0.8c0.3,0.1,0.4-0.1,0.5-0.7c1.3,1.5,4.5,0.5,6.4,1.5c-0.6,1.1-1.3-0.4-2,0.2
			c0.2,0.3,0.3,0.7,0.5,1.1c2.1-1,4.6,1.1,6.2,0.5c-0.4,0.9-1.9,0.1-2.7,0.1c-0.6,0-1.9-0.3-2.7,0.3c-0.4-1.2-1.6-0.1-2.2-0.8
			c0-0.4,0.2-0.4,0.2-0.7c-0.2-0.2-0.5-0.2-0.6-0.6c-4.1,1.5-9.6,0.7-13.6,0.6c-0.1,0.3-0.1,0.7-0.5,0.9c-0.5-0.1,0.2-0.8-0.2-1
			c-2.3,0.7-4.7,0.6-7.3,0.8c4.7,0.8,8.6,0.6,12.7,1c0.5,0,0,0.2,0,0.7c0.3,0.1,0.7,0.2,0.9-0.1c0-0.3-0.2-0.2-0.3-0.3
			c0.2-0.3,0.7-0.8,0.8-0.4c0,0.4-0.2,0.4-0.3,0.4c0.5,0.8,1,0.3,1.9,0.5c0,0.5-0.3,0.3-0.4,0.7c0.1,0.4,0.5,0.2,0.8,0.1
			c0.4,0-0.2-1.2,0.4-0.9c0.5,0.2-0.3,0.5-0.1,1.2c-1.4,0.7-3.8,0.1-4.5,1C200.9,41.2,196,40.7,191.8,41.3z M187.3,32.7
			c1.5,1.4,2.9-0.3,4.6,0.5C190.9,31.7,188.5,32.5,187.3,32.7z M164.6,35.8c0.4,0,0.8,0.3,1-0.3C165.2,35.6,164.6,34.9,164.6,35.8z
			 M160.5,35.9c0.4-0.2,0.9-0.1,1.3-0.5C161.2,35.7,160.9,34.9,160.5,35.9z M139.2,40.8c0.5-0.4,1.4,0.4,1.8-0.5
			C140.4,39.9,139.7,40.1,139.2,40.8z M135.9,41.5c1-0.3,2.2,0.1,2.9-1c-0.7-0.1-2.3-0.8-3.2,0c0,0.8,0.6,0.3,0.6,0.6
			C135.9,41.1,135.3,41.4,135.9,41.5z M154.1,44.3c1.4,0.6,2.4-0.3,4,0.1C157.1,43.3,155.5,44.2,154.1,44.3z"/>
		<path class="st0" d="M200,41.8c0.1,0.9-1.2,1-1.8,1C198.6,42,199.7,42,200,41.8z"/>
		<path class="st0" d="M186.8,49.2c-0.1,0.3-1.2,0.6-1.6,0.2C185.7,48.4,186.1,49.6,186.8,49.2z"/>
	</g>
	<g>
		<path class="st1" d="M186.8,41.7L186.8,41.7L186.8,41.7L186.8,41.7L186.8,41.7L186.8,41.7z M185,40.7L185,40.7L185,40.7L185,40.7
			L185,40.7z M186,37.8c0-0.1,0.1-0.2,0.2-0.2c0.3,0,0.5,0.1,0.7,0.4c0,0,0.1,0.2,0.2,0.4c0.1,0.2,0.2,0.5,0.2,0.6l0,0v0.2v0.1v0.1
			v0.1l0,0c0,0.1,0,0.2,0,0.3l0,0c0,0,0,0,0,0.1l0,0c0,0.4-0.1,0.7-0.1,0.8v0.1l0,0c0,0.1-0.1,0.3-0.2,0.6c0,0,0,0.1-0.1,0.2l0,0
			l0,0l0,0l-0.1,0.1l0,0h-0.1l-0.1,0.1h-0.2l0,0l0,0l0,0h-0.1l-0.1,0.1v-0.1c0-0.1,0-0.2,0-0.4c0-0.5,0.1-0.9,0.1-1.3
			c0,0,0-0.2-0.1-0.6l0,0v-0.1v-0.1l0,0v-0.1l0,0c0-0.2,0-0.3,0-0.4v-0.1l0,0v-0.1v-0.1l0,0c0-0.2,0-0.4,0-0.5l0,0
			C186,37.8,186,37.8,186,37.8z M185.4,36.1L185.4,36.1c-0.3,0-0.5,0.1-0.6,0.4c-0.1,0-0.1,0.3-0.2,0.8l0,0v0.1l0,0
			c0,0.1,0,0.2,0,0.3v0.1c0,0.1,0,0.2,0,0.3l0,0v0.1v0.1l0,0v0.1v0.1v0.2c0,0.1,0,0.2,0,0.2v0.6v0.1c0,0,0,0.1,0,0.2l0,0l0,0
			c0,0.2,0,0.3,0,0.5l0,0v0.1l0,0v0.1l0,0c0,0.1,0,0.2,0,0.2l0,0v0.1l0,0l0,0l0,0v0.1l0,0l0,0V41v0.1v0.1v0.1v0.1l0,0
			c0,0.2,0,0.4,0,0.6c0,0,0,0.1,0,0.2c0,0.2,0,0.3,0,0.3v0.1l0,0c0,0.2,0.1,0.3,0.2,0.3l0,0c0.1,0.1,0.1,0.1,0.2,0.1h0.1l0.2,0.1
			l0,0h0.3l0,0h0.1l0,0l0,0l0,0h0.1h0.1l0,0c0.2,0,0.3,0,0.3,0c0.4-0.1,0.6-0.1,0.6-0.2h0.1l0,0c0.2,0,0.4-0.2,0.6-0.5
			c0.2-0.2,0.3-0.3,0.3-0.4c0.1-0.2,0.1-0.2,0.1-0.3c0.2-0.5,0.3-0.8,0.3-1l0,0l0,0v-0.2v-0.1l0,0l0,0c0-0.2,0-0.3,0-0.3v-0.2
			c0,0,0-0.1,0.1-0.2c0,0-0.1-0.1-0.1-0.2l0,0v-0.1v-0.1c0-0.2,0-0.3,0-0.3l0,0v-0.1v-0.1v-0.2c-0.1-0.3-0.1-0.6-0.2-0.7
			c0-0.1-0.1-0.2-0.1-0.2v-0.1l0,0c-0.1-0.4-0.2-0.6-0.2-0.6c0-0.1-0.1-0.2-0.3-0.5c-0.4-0.4-0.9-0.6-1.6-0.6h-0.2l0,0l0,0h-0.3
			L185.4,36.1L185.4,36.1z M180.2,42.9L180.2,42.9L180.2,42.9L180.2,42.9L180.2,42.9z M181.2,42.5L181.2,42.5L181.2,42.5L181.2,42.5
			L181.2,42.5z M181.3,42.1L181.3,42.1L181.3,42.1L181.3,42.1L181.3,42.1L181.3,42.1z M181.9,39.7L181.9,39.7L181.9,39.7L181.9,39.7
			L181.9,39.7L181.9,39.7z M181.3,39.6L181.3,39.6L181.3,39.6L181.3,39.6L181.3,39.6z M181.6,37L181.6,37L181.6,37L181.6,37
			L181.6,37z M181.7,36.4L181.7,36.4L181.7,36.4L181.7,36.4L181.7,36.4L181.7,36.4z M180.9,36.3L180.9,36.3L180.9,36.3L180.9,36.3
			L180.9,36.3L180.9,36.3z M180,36.1l-0.1,0.1c-0.1,0-0.1,0.3-0.1,0.8l0,0l0,0c0,0,0,0.3,0,0.8l0,0l0,0c0,0.2,0,0.4,0,0.5l0,0
			c0,0.2,0,0.4,0,0.6V39v0.1v0.2v0.1l0,0v0.1l0,0c0,0.1,0,0.2,0,0.2l0,0v0.5c0,0.1,0,0.2,0,0.2l0,0l0,0v0.1l0,0l0,0l0,0
			c0,0.1,0,0.2,0,0.4c0,0.4,0,0.6,0.1,0.7l0,0l0,0c0,0.1,0,0.1,0,0.1v0.1l0,0l0,0c0,0,0,0.2,0,0.5s0.1,0.5,0.3,0.5s0.3,0,0.3,0h0.1
			h0.1l0,0l0,0l0,0h0.1h0.1l0,0l0,0l0,0h0.2h0.1l0,0l0,0l0,0l0,0h0.1l0,0h0.1l0,0l0,0h0.1c0.2,0,0.3,0,0.4,0h0.1c0,0,0,0,0.1,0h0.1
			l0,0h0.1l0,0h0.1c0,0,0.1,0,0.2,0h0.1h0.1l0,0c0.2,0,0.3-0.1,0.3-0.2c0.1-0.3,0-0.6-0.1-0.8c0-0.1,0-0.2-0.1-0.2
			c0-0.1-0.1-0.1-0.3-0.1h-0.1h-0.1l0,0c0,0-0.2,0-0.6,0h-0.1h-0.5c-0.1,0-0.2,0-0.4,0s-0.3,0-0.2-0.1v-0.7v-0.1c0-0.1,0-0.2,0-0.3
			l0,0v-0.1l0,0l0,0v-0.1l0,0l0,0c0-0.3,0.1-0.5,0.4-0.6h0.2c0,0,0.1,0,0.2,0h0.1h0.2l0,0h0.1c0.1,0,0.2,0,0.2,0
			c0.1,0,0.3-0.1,0.4-0.2c0-0.2,0.1-0.3,0.1-0.3v-0.1v-0.1c0-0.2,0-0.3-0.1-0.4c-0.1-0.1-0.4-0.2-1-0.2h-0.1l0,0h-0.1l0,0l0,0h-0.1
			l0,0l0,0H181c-0.2,0-0.3,0-0.3-0.1l0,0l0,0V38c0-0.1,0-0.1-0.1-0.2c0,0,0-0.1,0-0.2v-0.1v-0.1c0-0.2,0.1-0.3,0.3-0.4l0,0
			c0.2,0,0.3-0.1,0.3-0.1l0,0h0.2h0.6l0,0V37l0,0l0,0l0,0l0,0l0,0c0.1,0,0.2,0,0.2,0l0.1-0.1h0.1l0.1-0.1l0,0l0,0
			c0.1,0,0.2-0.1,0.3-0.2v-0.1c0-0.1,0.1-0.3,0.1-0.4c-0.1-0.1-0.1-0.2-0.1-0.3c-0.1,0-0.1-0.1-0.1-0.1l0,0l0,0l0,0
			c0,0,0-0.1-0.1-0.1c-0.2,0-0.3,0-0.3-0.1l0,0h-0.1h-0.1l0,0l0,0H182l0,0c0,0-0.1,0-0.2,0l0,0h-0.1h-0.1c0,0-0.1,0-0.2,0l0,0l0,0
			l0,0l0,0l0,0c-0.1,0-0.2,0-0.3,0l0,0H181l0,0l0,0h-0.1l0,0h-0.1l0,0c-0.1,0-0.2,0-0.3,0C180.3,36.1,180,36.1,180,36.1z
			 M175.8,36.2L175.8,36.2c0,0,0,0-0.2,0.1h-0.1h-0.1c0,0.1-0.1,0.1-0.1,0.1c-0.1,0.2-0.2,0.3-0.3,0.4c-0.1,0.3-0.1,0.6-0.1,1v0.1
			l0,0V38c0,0,0,0.2,0.1,0.5c0,0.1,0.1,0.3,0.1,0.5c0.1,0.2,0.2,0.4,0.5,0.7c0.3,0.2,0.4,0.3,0.4,0.4c0.2,0.2,0.3,0.3,0.3,0.3
			c0.5,0.5,0.8,0.8,0.9,1.1v0.2l0,0c0,0.1-0.1,0.2-0.3,0.5c-0.1,0.1-0.3,0.1-0.5,0.1c-0.1,0-0.2-0.1-0.3-0.1s-0.2-0.1-0.2-0.2
			l-0.1-0.2l-0.1-0.3v-0.1c0-0.1-0.1-0.2-0.1-0.2c0-0.1-0.1-0.1-0.2-0.2h-0.3h-0.2h-0.1c-0.1,0.1-0.2,0.2-0.2,0.2
			c-0.1,0.1-0.1,0.2-0.1,0.2v0.3v0.1l0,0l0,0v0.1l0,0l0,0l0,0l0,0c0,0.2,0.1,0.4,0.2,0.6c0.1,0.3,0.3,0.5,0.3,0.5l0.1,0.1
			c0,0,0.2,0.1,0.4,0.2c0.3,0.1,0.5,0.1,0.8,0.1l0,0l0,0h0.1c0.1,0,0.2,0,0.3,0h0.1c0.4-0.2,0.6-0.3,0.6-0.3
			c0.1-0.1,0.3-0.2,0.4-0.3c0.2-0.2,0.2-0.3,0.2-0.3c0.1-0.2,0.2-0.5,0.3-0.8l0,0c0-0.3,0-0.4-0.1-0.6l0,0l-0.1-0.2
			c0-0.2-0.1-0.4-0.4-0.6c-0.1-0.1-0.2-0.2-0.2-0.2V40c-0.1-0.1-0.1-0.1-0.1-0.1c-0.1-0.2-0.2-0.3-0.2-0.3c-0.4-0.4-0.7-0.6-0.9-0.8
			c-0.3-0.4-0.5-0.7-0.5-1.1c0-0.2,0.1-0.3,0.3-0.5c0.2-0.1,0.4-0.1,0.6,0c0.1,0.1,0.2,0.3,0.1,0.5c0,0.3,0.1,0.5,0.1,0.5l0.1,0.1
			c0.1,0.1,0.2,0.1,0.3,0.1s0.2,0,0.3-0.1c0.2-0.1,0.2-0.2,0.2-0.3v-0.1c0,0,0-0.2,0-0.4c0-0.3,0-0.4-0.1-0.5c0-0.2-0.1-0.3-0.3-0.5
			l-0.1-0.1c-0.1-0.1-0.2-0.2-0.3-0.2c-0.1-0.1-0.4-0.1-0.7-0.2h-0.1h-0.1l0,0l0,0h-0.2h-0.1l0,0l0,0h-0.1l0,0h-0.1
			C175.9,36.2,175.8,36.2,175.8,36.2z M171.4,38.9c0.1-0.3,0.1-0.5,0.1-0.5s0.1,0.1,0.1,0.4l0,0c0,0.3,0.1,0.4,0.1,0.5v0.1l0,0l0,0
			v0.2v0.1v0.1l0,0l0,0l0,0c-0.1,0-0.2,0-0.5,0.1h-0.1v-0.1c0-0.1,0-0.1,0-0.2l0,0l0,0C171.3,39.3,171.3,39.1,171.4,38.9z
			 M170.7,36.6c-0.1,0.2-0.1,0.3-0.2,0.4l-0.1,0.4l0,0l0,0c-0.1,0.2-0.2,0.5-0.3,0.9l0,0l0,0c0,0,0,0.2-0.1,0.5s-0.1,0.5-0.1,0.5
			l0,0l0,0l0,0c0,0.1,0,0.2-0.1,0.2c-0.1,0.4-0.1,0.6-0.2,0.7v0.1c0,0.3-0.1,0.5-0.1,0.6l0,0c0,0.1,0,0.2-0.1,0.2l0,0
			c0,0.3-0.1,0.5-0.1,0.6l0,0v0.1l0,0l0,0c0,0.3-0.1,0.4-0.1,0.5l0,0v0.1l0,0c0,0.1,0,0.2-0.1,0.5c0,0.1,0,0.2,0,0.2
			c0.1,0.2,0.3,0.3,0.6,0.3c0.4,0,0.6,0,0.6-0.1s0.1-0.1,0.2-0.3c0.1-0.1,0.1-0.4,0.1-0.8l0,0c0-0.1,0-0.2,0-0.2l0,0v-0.1l0,0
			c0-0.1,0.1-0.2,0.1-0.4l0,0l0,0c0-0.1,0.2-0.2,0.6-0.3h0.1c0.2,0,0.3,0,0.3,0c0.1,0,0.1,0.4,0.2,1.1l0,0c0,0,0,0.1,0.1,0.2
			c0,0.4,0.1,0.5,0.2,0.6c0,0.1,0.2,0.1,0.7,0.1c0.2,0,0.4-0.1,0.5-0.4v-0.1c-0.1-0.7-0.2-1.1-0.2-1.3l0,0l0,0l-0.1-0.5l0,0v-0.1
			l0,0v-0.1v-0.1c0-0.1,0-0.2,0-0.2c0-0.3-0.1-0.5-0.2-0.7c-0.1-0.5-0.1-0.9-0.2-1.2l0,0c0-0.1-0.1-0.2-0.1-0.2
			c-0.1-0.4-0.1-0.7-0.2-0.8l0,0l-0.1-0.3l0,0c0-0.2-0.1-0.4-0.2-0.6c-0.1-0.2-0.3-0.4-0.5-0.5c0-0.1-0.2-0.1-0.6-0.1h-0.1l0,0
			C170.9,36.4,170.7,36.5,170.7,36.6z M164.6,43.2L164.6,43.2L164.6,43.2L164.6,43.2L164.6,43.2z M165.6,42.8L165.6,42.8L165.6,42.8
			L165.6,42.8L165.6,42.8z M165.7,42.4L165.7,42.4L165.7,42.4L165.7,42.4L165.7,42.4L165.7,42.4z M166.2,40L166.2,40L166.2,40
			L166.2,40L166.2,40L166.2,40z M165.7,39.9L165.7,39.9L165.7,39.9L165.7,39.9L165.7,39.9z M165.9,37.3L165.9,37.3L165.9,37.3
			L165.9,37.3L165.9,37.3z M166,36.7L166,36.7L166,36.7L166,36.7L166,36.7L166,36.7z M165.3,36.6L165.3,36.6L165.3,36.6L165.3,36.6
			L165.3,36.6L165.3,36.6z M164.3,36.4l-0.1,0.1c-0.1,0-0.1,0.3-0.1,0.8l0,0l0,0c0,0,0,0.3,0,0.8l0,0l0,0c0,0.2,0,0.4,0,0.5l0,0
			c0,0.2,0,0.4,0,0.6v0.1v0.1v0.2v0.1l0,0v0.1l0,0c0,0.1,0,0.2,0,0.2l0,0v0.5c0,0.1,0,0.2,0,0.2l0,0l0,0v0.1l0,0l0,0l0,0
			c0,0.1,0,0.2,0,0.4c0,0.4,0,0.6,0.1,0.7l0,0l0,0c0,0.1,0,0.1,0,0.1v0.1l0,0l0,0c0,0,0,0.2,0,0.5s0.1,0.5,0.3,0.5s0.3,0,0.3,0h0.1
			h0.1l0,0l0,0l0,0h0.1h0.1l0,0l0,0l0,0h0.2h0.1l0,0l0,0l0,0l0,0h0.1l0,0h0.1l0,0l0,0h0.1c0.2,0,0.3,0,0.4,0h0.1c0,0,0,0,0.1,0h0.1
			l0,0h0.1l0,0h0.1c0,0,0.1,0,0.2,0h0.1h0.1l0,0c0.2,0,0.3-0.1,0.3-0.2c0.1-0.3,0-0.6-0.1-0.8c0-0.1,0-0.2-0.1-0.2
			c0-0.1-0.1-0.1-0.3-0.1h-0.1h-0.1l0,0c0,0-0.2,0-0.6,0H166h-0.5c-0.1,0-0.2,0-0.4,0s-0.3,0-0.2-0.1V41v-0.1c0-0.1,0-0.2,0-0.3l0,0
			v-0.1l0,0l0,0v-0.1l0,0l0,0c0-0.3,0.1-0.5,0.4-0.6h0.2c0,0,0.1,0,0.2,0h0.1h0.2l0,0h0.1c0.1,0,0.2,0,0.2,0c0.1,0,0.3-0.1,0.4-0.2
			c0-0.2,0.1-0.3,0.1-0.3v-0.1v-0.1c0-0.2,0-0.3-0.1-0.4c-0.1-0.1-0.4-0.2-1-0.2h-0.1l0,0h-0.1l0,0l0,0h-0.1l0,0l0,0h-0.1
			c-0.2,0-0.3,0-0.3-0.1l0,0l0,0v-0.1c0-0.1,0-0.1-0.1-0.2c0,0,0-0.1,0-0.2v-0.1v-0.1c0-0.2,0.1-0.3,0.3-0.4l0,0
			c0.2,0,0.3-0.1,0.3-0.1l0,0h0.2h0.6l0,0v0.1l0,0l0,0l0,0l0,0l0,0c0.1,0,0.2,0,0.2,0l0.1-0.1h0.1l0.1-0.1l0,0l0,0
			c0.1,0,0.2-0.1,0.3-0.2v-0.1c0-0.1,0.1-0.3,0.1-0.4c-0.1-0.1-0.1-0.2-0.1-0.3c-0.1,0-0.1-0.1-0.1-0.1l0,0l0,0l0,0
			c0,0,0-0.1-0.1-0.1c-0.2,0-0.3,0-0.3-0.1l0,0h-0.1h-0.1l0,0l0,0h-0.1l0,0c0,0-0.1,0-0.2,0l0,0H166h-0.1c0,0-0.1,0-0.2,0l0,0l0,0
			l0,0l0,0l0,0c-0.1,0-0.2,0-0.3,0l0,0h-0.1l0,0l0,0h-0.1l0,0h-0.1l0,0c-0.1,0-0.2,0-0.3,0C164.6,36.4,164.4,36.4,164.3,36.4z
			 M160.3,42.9L160.3,42.9L160.3,42.9L160.3,42.9L160.3,42.9z M160,42.7L160,42.7L160,42.7L160,42.7L160,42.7z M160.5,42.1
			L160.5,42.1L160.5,42.1L160.5,42.1L160.5,42.1z M159.2,41.7L159.2,41.7L159.2,41.7L159.2,41.7L159.2,41.7z M159.3,36.8l-0.1,0.1
			c0,0,0,0.1-0.1,0.2l0,0v0.2v0.1l0,0l0,0l-0.1,0.1v0.1v0.1l0,0l0,0l0,0c0,0,0,0.1,0,0.2V38v0.1v0.1v0.1l0,0l0,0l0,0v0.1v0.1
			c0,0.1,0,0.2,0,0.2l0,0l0,0v0.1c0,0,0,0,0,0.1l0,0l0,0V39c0,0,0,0.1,0,0.2l0,0v0.1l0,0l0,0v0.1l0,0l0,0c0,0,0,0,0,0.1v0.1l0,0
			c0,0.2,0,0.3,0.1,0.4l0,0l0,0l0,0l0,0l0,0v0.1l0,0c0,0,0,0.1,0,0.2l0,0v0.1l0,0l0,0l0,0v0.1c0,0,0,0,0,0.1l0,0l0,0l0,0l0,0l0,0
			v0.1v0.1v0.1l0,0V41l0,0l0,0v0.1l0,0v0.1l0,0l0,0l0,0l0,0v0.1c0,0.1,0,0.2,0,0.3l0,0l0,0v0.1v0.1l0,0c0,0,0,0.1,0,0.2l0,0l0,0l0,0
			v0.1l0,0l0,0v0.2v0.1l0,0v0.1l0,0l0,0c0,0.3,0,0.4,0.1,0.5c0,0.1,0.4,0.1,1.1,0l0,0l0,0h0.1c0,0,0.3,0,0.8,0l0,0
			c0.2,0,0.5,0,0.9,0l0,0c0.1,0,0.3-0.1,0.4-0.2c0.1-0.1,0.2-0.3,0.2-0.5s-0.1-0.3-0.2-0.5c0-0.1-0.2-0.1-0.7-0.2l0,0h-0.1l0,0
			c-0.2,0-0.4,0-0.6,0h-0.2h-0.2c-0.1,0-0.1-0.1-0.2-0.1l0,0v-0.1c0-0.5-0.1-0.8-0.1-0.8l0,0l0,0l0,0v-0.1l0,0v-0.1v-0.2V40v-0.1
			v-0.1l0,0l0,0v-0.1l0,0l0,0c0-0.1,0-0.2,0-0.3l0,0c0-0.1,0-0.2,0-0.2v-0.1v-0.2v-0.1v-0.1v-0.1c0-0.1,0-0.2,0-0.3l0,0l0,0l0,0
			c0-0.2,0-0.3,0-0.4v-0.1l0,0l0,0v-0.1l0,0v-0.1l0,0l0,0v-0.1v-0.1l0,0c0,0,0-0.1,0-0.2l0,0v-0.1V37l0,0v-0.1c0,0,0-0.1,0-0.2
			c0-0.2,0-0.2,0-0.2c0-0.3-0.2-0.5-0.4-0.5h-0.1h-0.1h-0.1C159.5,36.5,159.3,36.6,159.3,36.8z M154.5,43.4L154.5,43.4L154.5,43.4
			L154.5,43.4L154.5,43.4z M155.5,43L155.5,43L155.5,43L155.5,43L155.5,43z M155.6,42.6L155.6,42.6L155.6,42.6L155.6,42.6
			L155.6,42.6L155.6,42.6z M156.1,40.2L156.1,40.2L156.1,40.2L156.1,40.2L156.1,40.2L156.1,40.2z M155.6,40.1L155.6,40.1L155.6,40.1
			L155.6,40.1L155.6,40.1z M155.8,37.5L155.8,37.5L155.8,37.5L155.8,37.5L155.8,37.5z M155.9,36.9L155.9,36.9L155.9,36.9L155.9,36.9
			L155.9,36.9L155.9,36.9z M155.2,36.8L155.2,36.8L155.2,36.8L155.2,36.8L155.2,36.8L155.2,36.8z M154.2,36.6l-0.1,0.1
			c-0.1,0-0.1,0.3-0.1,0.8l0,0l0,0c0,0,0,0.3,0,0.8l0,0l0,0c0,0.2,0,0.4,0,0.5l0,0c0,0.2,0,0.4,0,0.6v0.1v0.1v0.2v0.1l0,0V40l0,0
			c0,0.1,0,0.2,0,0.2l0,0v0.5c0,0.1,0,0.2,0,0.2l0,0l0,0V41l0,0l0,0l0,0c0,0.1,0,0.2,0,0.4c0,0.4,0,0.6,0.1,0.7l0,0l0,0
			c0,0.1,0,0.1,0,0.1v0.1l0,0l0,0c0,0,0,0.2,0,0.5s0.1,0.5,0.3,0.5s0.3,0,0.3,0h0.1h0.1l0,0l0,0l0,0h0.1h0.1l0,0l0,0l0,0h0.2h0.1
			l0,0l0,0l0,0l0,0h0.1l0,0h0.1l0,0l0,0h0.1c0.2,0,0.3,0,0.4,0h0.1c0,0,0,0,0.1,0h0.1l0,0h0.1l0,0h0.1c0,0,0.1,0,0.2,0h0.1h0.1l0,0
			c0.2,0,0.3-0.1,0.3-0.2c0.1-0.3,0-0.6-0.1-0.8c0-0.1,0-0.2-0.1-0.2c0-0.1-0.1-0.1-0.3-0.1h-0.1h-0.1l0,0c0,0-0.2,0-0.6,0h-0.1
			h-0.5c-0.1,0-0.2,0-0.4,0s-0.3,0-0.2-0.1v-0.7v-0.1c0-0.1,0-0.2,0-0.3l0,0v-0.1l0,0l0,0v-0.1l0,0l0,0c0-0.3,0.1-0.5,0.4-0.6h0.2
			c0,0,0.1,0,0.2,0h0.1h0.2l0,0h0.1c0.1,0,0.2,0,0.2,0c0.1,0,0.3-0.1,0.4-0.2c0-0.2,0.1-0.3,0.1-0.3v-0.1v-0.1c0-0.2,0-0.3-0.1-0.4
			c-0.1-0.1-0.4-0.2-1-0.2h-0.1l0,0h-0.1l0,0l0,0h-0.1l0,0l0,0h-0.1c-0.2,0-0.3,0-0.3-0.1l0,0l0,0v-0.1c0-0.1,0-0.1-0.1-0.2
			c0,0,0-0.1,0-0.2V38v-0.1c0-0.2,0.1-0.3,0.3-0.4l0,0c0.2,0,0.3-0.1,0.3-0.1l0,0h0.2h0.6l0,0v0.1l0,0l0,0l0,0l0,0l0,0
			c0.1,0,0.2,0,0.2,0l0.1-0.1h0.1l0.1-0.1l0,0l0,0c0.1,0,0.2-0.1,0.3-0.2V37c0-0.1,0.1-0.3,0.1-0.4c-0.1-0.1-0.1-0.2-0.1-0.3
			c-0.1,0-0.1-0.1-0.1-0.1l0,0l0,0l0,0c0,0,0-0.1-0.1-0.1c-0.2,0-0.3,0-0.3-0.1l0,0h-0.1h-0.1l0,0l0,0h-0.1l0,0c0,0-0.1,0-0.2,0l0,0
			h-0.1h-0.1c0,0-0.1,0-0.2,0l0,0l0,0l0,0l0,0l0,0c-0.1,0-0.2,0-0.3,0l0,0h-0.1l0,0l0,0h-0.1l0,0H155l0,0c-0.1,0-0.2,0-0.3,0
			C154.6,36.6,154.3,36.6,154.2,36.6z M150.5,38.1L150.5,38.1h0.1l0,0l0,0h0.1h0.1c0.2,0,0.4,0.1,0.5,0.2c0,0.1,0,0.2,0.1,0.2v0.1
			v0.2l0,0v0.1l-0.1,0.1l0,0l0,0v0.1l0,0c-0.2,0.3-0.2,0.4-0.3,0.4c0,0.1-0.2,0.2-0.7,0.2c-0.1,0-0.2-0.2-0.2-0.6l0,0v-0.2l0,0
			c0-0.2,0-0.3,0-0.5l0,0c0,0-0.1-0.2-0.1-0.3l0,0l0,0C150.3,38.1,150.4,38.1,150.5,38.1z M150.3,40.9L150.3,40.9L150.3,40.9
			L150.3,40.9l0.1,0.1v0.1l0.1,0.2l0,0l0.1,0.2l0,0l0,0l0.1,0.1l0,0l0,0v0.1v0.1l0.1,0.2l0,0c0,0,0.1,0.3,0.3,0.7l0,0l0,0v0.1l0,0
			l0,0c0.1,0.3,0.3,0.5,0.4,0.8l0.2,0.2c0,0,0.1,0.1,0.3,0.1s0.4,0,0.6,0l0,0c0.1,0,0.2,0,0.2-0.2s-0.1-0.4-0.3-0.6l-0.1-0.2
			c0-0.1-0.1-0.1-0.1-0.3l0,0l0,0l0,0l0,0c-0.1-0.1-0.1-0.2-0.2-0.4l0,0c0,0,0-0.1-0.1-0.3l-0.1-0.1c0,0,0-0.1-0.1-0.4l0,0v-0.1l0,0
			l-0.1-0.1l0,0l0,0v-0.1V41l0,0v-0.1l0,0l-0.1-0.1c0.2,0,0.3-0.1,0.4-0.2h0.1c0.1-0.1,0.2-0.2,0.4-0.4l0,0c0.2-0.2,0.3-0.5,0.4-0.7
			l0,0v-0.2v-0.2l-0.1-0.3l0,0v-0.1c0-0.3-0.1-0.5-0.2-0.7c-0.1-0.2-0.2-0.3-0.2-0.4c-0.1-0.2-0.3-0.4-0.7-0.6
			c-0.4-0.1-0.6-0.1-0.7-0.2h-0.3l0,0c-0.1,0-0.2-0.1-0.6-0.1H150c-0.1,0-0.2,0-0.3,0s-0.3,0.1-0.6,0.2l-0.2,0.3l0,0l0,0l0,0l0,0
			c0,0,0,0.1-0.1,0.2c0,0,0,0,0,0.1v0.2l0,0l0,0l0.1,0.2l-0.1,0.1c0,0.1,0.1,0.1,0.1,0.3l0,0l-0.1,0.1c0,0,0,0.1,0,0.2h-0.1l0,0v0.1
			l0,0v0.1l0,0l0,0v0.1V39v0.1v0.1v0.1l0,0v0.1l0.1,0.2l0,0v0.1v0.1c0,0.2,0.1,0.3,0.1,0.3l0,0v0.1v0.1v0.1l0.1,1l0,0v0.1v0.1l0,0
			l0,0c0,0,0,0.1,0,0.2l0,0c0,0,0,0.1,0.1,0.4l0,0v0.1l0,0v0.2v0.1v0.1l0,0l0,0l0,0l0,0l0,0v0.1v0.1l0,0l0,0l0,0l0,0l0,0l0,0
			c0,0.3,0,0.5,0,0.7c0,0.1,0.2,0.1,0.6,0.1c0.3,0,0.6,0,0.6-0.1s0.1-0.3,0-0.6l0,0v-0.4c0-0.1,0-0.3,0-0.5l0,0V42v-0.2
			c0-0.1,0-0.2,0-0.4v-0.1v-0.1v-0.1L150.3,40.9L150.3,40.9l0-0.1l0,0l0,0v-0.1l0,0v-0.1L150.3,40.9L150.3,40.9L150.3,40.9z
			 M149.9,43.6L149.9,43.6L149.9,43.6l-0.1,0.1l0,0L149.9,43.6L149.9,43.6z M149.8,43.6L149.8,43.6L149.8,43.6L149.8,43.6
			L149.8,43.6z M149.9,42.3L149.9,42.3L149.9,42.3L149.9,42.3L149.9,42.3z"/>
	</g>
</g>
<g>
	<path class="st2" d="M171.6,14.2c0,0,0-6.1-3.9-10.1c-0.5-0.5-1.2-0.5-1.7,0l0,0c-3.9,4-3.9,10.1-3.9,10.1v4.7
		c0,0.7,0.5,1.2,1.2,1.2h7.2c0.7,0,1.2-0.5,1.2-1.2l0,0v-4.7H171.6z"/>
	<path class="st3" d="M162,13.5c-1.7,0.6-3,1.9-3.6,3.6v1.8h1.7"/>
	<path class="st3" d="M171.6,13.5c1.7,0.6,3,1.9,3.6,3.6v1.8h-1.7"/>
	<path class="st3" d="M165.4,21.9c0,0,0.4,4.6-6,4.6"/>
	<path class="st3" d="M168.2,21.9c0,0-0.4,4.6,6,4.6"/>
	<path class="st3" d="M165,11.2c0-0.5,0.8-0.9,1.8-0.9s1.8,0.4,1.8,0.9"/>
</g>
</svg>
