<?xml version="1.0" encoding="utf-8"?>
<!-- Generator: Adobe Illustrator 25.2.1, SVG Export Plug-In . SVG Version: 6.00 Build 0)  -->
<svg version="1.1" id="Layer_1" xmlns="http://www.w3.org/2000/svg" xmlns:xlink="http://www.w3.org/1999/xlink" x="0px" y="0px"
	 viewBox="0 0 209.3 211.1" style="enable-background:new 0 0 209.3 211.1;" xml:space="preserve">
<style type="text/css">
	.st0{fill:#FFFFFF;}
	.st1{fill:#4F4F4F;}
	.st2{fill:#060606;}
</style>
<g>
	<circle class="st0" cx="104.6" cy="105.5" r="98.6"/>
	<g>
		<path class="st0" d="M49.7,75.7c0.3-0.3,0.6-0.6,0.8-0.8c0.4-0.4,0.9-0.8,1.3-1.2c1.5-0.5,2.9-1,4.8-1.7c-0.5,1.2-1,1.9-1,2.6
			c0,1.6-0.2,3.8,0.7,4.7c0.9,0.9,3.4,1.2,4.6,0.6c3.2-1.5,6.2-3.6,9-5.7c1.6-1.2,2.8-2.7,5-1c0.5,0.4,1.5,0.2,2.7,0.2
			c-5.7-3.8-6.5-9.2-1.9-13.5c2.1-2,5-3.2,7.6-4.5c5.1-2.6,10.4-4.7,15.2-7.7c3.5-2.2,6.2-5.6,9.6-8.7c1,2.9,2.2,6,3.3,9.2
			c7-4.6,13.3-9.8,18.4-16.4c-0.2-0.2-0.3-0.3-0.5-0.4c-0.3-0.2-0.6-0.3-0.9-0.4c-14.4-4.7-29.2-5.7-44-2.3
			c-22,5.1-39.2,17-51.4,36.1C21.6,82.9,17.7,102.8,21.6,124c3.5,19.3,13.1,35.4,28.4,47.8c22.1,17.9,47.2,22.7,74.6,16.1
			c10-2.4,18.9-7.3,25.8-15.2c10.1-11.4,13.1-25,10.9-39.8c-2-13.8-8.3-25.3-18.5-34.7c-12.6-11.7-28-16.4-45-16.4
			c-0.8,0-1.7,0.2-3,0.4c5.7,3.2,10.5,6.3,13.9,12.2c-11.9-3-23.2-4.5-34.7-2.5c-11.6,1.9-22,6.4-30.9,15.1
			c-2.5-9.2-2.8-17.4,2.5-25.2c1.2-1.5,2.4-3,3.5-4.5C49.4,76.8,49.5,76.2,49.7,75.7z M181.5,128.1c0.2-0.4,0.3-0.6,0.3-0.8
			c0.1-0.4,0.3-0.8,0.4-1.2c2.5-11.2,2.7-22.4,0.4-33.6c-5.3-24.8-19.1-43.7-41.4-56c-2.6-1.5-3.1-2.7-2.4-5.5
			c1.1-4.4,1.5-9,2.2-13.5c-0.3-0.1-0.5-0.1-0.8-0.2c-2.5,8.3-6.6,15.8-12.5,22.8c2.1-0.5,3.6-0.9,5.6-1.4
			c-5.8,8.3-12.7,14.2-21.4,18.1c-0.7,0.3-1.6,0.7-2,1.4c-1.9,3.3-3.6,6.7-5.6,10.5c4.8-2.6,9.7-4.7,13.9-7.8c3-2.2,5.8-2.5,9-1.9
			c19,3.5,35.2,12.2,48.4,26.2c0.8,0.8,1.4,1.7,2.1,2.6c-6.9-4.8-13.7-9.5-21.9-13.2c1,1.8,1.7,3,2.6,4.7c-9-4.5-17.9-7-27.3-7.4
			C161.6,78.3,179.6,101.4,181.5,128.1z M101.5,56.4c-2,1.1-3.8,2.1-5.7,3.1c-3.4,1.6-7,3.1-10.4,4.8c-2.2,1.1-3.8,2.8-3.1,5.7
			C91.6,70.4,99.2,66.3,101.5,56.4z M56,88.2c0.3-0.1,0.5-0.2,0.8-0.3c-0.3-1.4-0.2-3.3-1.1-3.9c-1.6-1.1-3.3,0.1-4.4,1.5
			c-0.9,1.2-1.6,2.6-2.4,3.9C51.4,88.3,53.2,86.4,56,88.2z"/>
		<path class="st1" d="M96.9,34.9"/>
		<path class="st1" d="M45.6,81.7c-5.3,7.8-5,16-2.5,25.2C52,98.2,62.4,93.7,74,91.8c11.6-1.9,22.9-0.4,34.7,2.5
			c-3.4-5.9-8.3-9-13.9-12.2c1.4-0.2,2.2-0.4,3-0.4c17,0,32.4,4.7,45,16.4c10.1,9.4,16.5,21,18.5,34.7c2.1,14.8-0.8,28.4-10.9,39.8
			c-6.9,7.8-15.8,12.8-25.8,15.2c-27.4,6.6-52.5,1.8-74.6-16.1c-15.3-12.4-24.9-28.5-28.4-47.8c-3.8-21.1,0.1-41,11.6-59.2
			c12.1-19.1,29.4-31.1,51.4-36.1c14.8-3.4,29.5-2.4,44,2.3c0.3,0.1,0.6,0.3,0.9,0.4c0.1,0.1,0.2,0.2,0.5,0.4
			c-5.2,6.5-11.5,11.8-18.4,16.4c-1.2-3.2-2.3-6.3-3.3-9.2c-3.4,3.2-6.1,6.5-9.6,8.7c-4.8,3-10.2,5.1-15.2,7.7
			c-2.6,1.4-5.5,2.6-7.6,4.5c-4.6,4.3-3.8,9.7,1.9,13.5c-1.2-0.1-2.2,0.2-2.7-0.2c-2.2-1.8-3.3-0.3-5,1c-2.8,2.1-5.8,4.2-9,5.7
			c-1.2,0.6-3.2,0.7-4.2-0.2c-0.9-0.9-4.4-2.7-4.8-8.3"/>
		<path d="M181.5,128.1c-1.9-26.8-19.9-49.8-50.4-56.2c9.4,0.4,18.3,3,27.3,7.4c-0.9-1.7-1.6-2.9-2.6-4.7c8.2,3.7,15,8.4,21.9,13.2
			c-0.7-0.9-1.3-1.8-2.1-2.6c-13.3-14-29.4-22.8-48.4-26.2c-3.2-0.6-6-0.2-9,1.9c-4.2,3.1-9.1,5.2-13.9,7.8c2-3.8,3.7-7.2,5.6-10.5
			c0.4-0.6,1.2-1,2-1.4c8.7-3.9,15.7-9.9,21.4-18.1c-2,0.5-3.6,0.9-5.6,1.4c5.9-7,10-14.5,12.5-22.8c0.3,0.1,0.5,0.1,0.8,0.2
			c-0.7,4.5-1.1,9.1-2.2,13.5c-0.7,2.8-0.2,4,2.4,5.5c22.3,12.3,36.1,31.2,41.4,56c2.4,11.1,2.1,22.4-0.4,33.6
			c-0.1,0.4-0.2,0.8-0.4,1.2C181.8,127.6,181.7,127.8,181.5,128.1z"/>
		<path d="M101.5,56.4c-2.3,9.9-9.9,14.1-19.3,13.5c-0.7-2.8,1-4.5,3.1-5.7c3.4-1.8,6.9-3.2,10.4-4.8
			C97.7,58.5,99.5,57.4,101.5,56.4z"/>
		<path d="M56,88.2c-2.7-1.8-4.6,0.1-7,1.2c0.8-1.3,1.5-2.7,2.4-3.9c1.1-1.4,2.8-2.6,4.4-1.5c0.8,0.6,0.7,2.6,1.1,3.9
			C56.5,87.9,56.2,88.1,56,88.2z"/>
		<path d="M49.7,75.7c0.3-0.3,0.6-0.6,0.8-0.8C50.3,75.2,50,75.5,49.7,75.7z"/>
	</g>
	<path class="st2" d="M20.1,107.5c45,93.2,140.7,3.8,63.7-7l0,0c-7.7,0-24.4,1.4-17.3,13.1l0,0c-9.9-1-14-3.1-19.2-10.4l0,0
		c4.2-5.5,33.2-19.8,60.2-9.4l0,0c-3.5-4.4-7.2-8.8-13.3-12.1l0,0C192.3,82.7,182,207,84,188.3l0,0C57,184,19.2,154.5,20.1,107.5
		L20.1,107.5z"/>
</g>
</svg>
