<?xml version="1.0" encoding="utf-8"?>
<!-- Generator: Adobe Illustrator 25.2.1, SVG Export Plug-In . SVG Version: 6.00 Build 0)  -->
<svg version="1.1" id="Layer_1" xmlns="http://www.w3.org/2000/svg" xmlns:xlink="http://www.w3.org/1999/xlink" x="0px" y="0px"
	 viewBox="0 0 119.7 59.8" style="enable-background:new 0 0 119.7 59.8;" xml:space="preserve">
<style type="text/css">
	.st0{fill-rule:evenodd;clip-rule:evenodd;fill:#FF000D;}
	.st1{fill:#FFFFFF;}
	.st2{fill-rule:evenodd;clip-rule:evenodd;fill:#ED2224;}
	.st3{fill:none;stroke:#FFFFFF;stroke-miterlimit:10;}
	.st4{fill:none;stroke:#FFFFFF;stroke-linecap:round;stroke-linejoin:round;}
</style>
<g>
	<g>
		<path class="st0" d="M14,17.9c0.4,0.1-0.2,0.7,0.2,0.8c-0.6,0.3-0.9,0.9-1.7,0.8c0-0.4,0.6-1.2,0.2-1.2C13,17.5,13.8,18.2,14,17.9
			z"/>
		<path class="st0" d="M61.2,29.1c-1.1,0.8-1.7,0.2-3,0.5C58.9,28.9,60.2,29.2,61.2,29.1z"/>
		<path class="st0" d="M34.4,33c-0.6,0-1.1-0.1-1.3-0.4C33.2,32.3,35.1,32.3,34.4,33z"/>
		<path class="st0" d="M102.9,44c-1.1,1.3-3.4,0.7-4.9,0.6C99.9,43.2,100.9,44.2,102.9,44z"/>
		<path class="st0" d="M99,46.1c0.6-0.5,1.7,0,2.3,0C100.9,46.6,99.7,46,99,46.1z"/>
		<path class="st0" d="M84.4,42.5c0.2-0.3,1.9-0.4,1.7,0.4C85.5,42.8,84.6,42.9,84.4,42.5z"/>
		<path class="st0" d="M69.7,48.5C67.4,50.7,94.4,48.2,91,48c1.3-2.2,3.2-0.6,4.9-0.6C97.4,47.5,69.1,47.6,69.7,48.5z"/>
		<path class="st0" d="M70.3,48.8c0.9,0.1,1.7,0.1,2.6,0.2C72.7,49.6,70.1,49.8,70.3,48.8z"/>
		<path class="st0" d="M90.6,47.8C90,48.7,88.3,47.9,87,48C88,46.5,89.5,47.2,90.6,47.8z"/>
		<path class="st0" d="M86.3,47.4c-2.3,1.5-4.5,0.3-7.9,0.3C80.8,46.6,84,47.2,86.3,47.4z"/>
		<path class="st0" d="M73.3,47.5c-0.6,1.3-2.6,0.3-3.8,0.4C70.4,46.8,73.1,46.7,73.3,47.5z"/>
		<path class="st0" d="M65.3,46.5c-0.2,0.7,1.7,0.4,2.3,0.9c-0.9,1.2-2.8,0.5-3.8,0.4C64,47.1,64.8,47.3,65.3,46.5z"/>
		<path class="st0" d="M63.1,47.6c-1.9,1.2-7.7,1.9-7.7-0.7C58,47.1,61.4,45.9,63.1,47.6z"/>
		<path class="st0" d="M54.2,47.1c0,0.7-0.6,0.6-0.6,1.2c-0.4-0.5-1.7-0.3-2.1-0.7C52.3,46.8,52.9,47.3,54.2,47.1z"/>
		<path class="st0" d="M32.9,58.6c0.4,0.6,2.1,0,1.7,1.1C34.4,59.9,32.7,59.6,32.9,58.6z"/>
		<path class="st0" d="M69.5,32.6c1.3-0.1,1.1,0,2.1-0.3c0-0.7-0.9,0.4-1.1-0.3c0.9-1,3-1.4,3.4-0.4c3.4-1.2,11.3-0.9,14.5,0.5
			c1.5-0.4,2.6-0.4,3,0.5c-0.2,0.3-0.6,0.2-0.6,0.2c1.1,1.3,2.8,0,4,0.6c0.6-1.1-1.7-0.1-1.5-0.9c1.7-0.6,5.3-0.1,6.6,0.6
			c-1.1-0.3-3.6-0.2-4.7-0.2c4.9,1.2,13,0.9,20,1.2 M104.1,36.4c-0.2,0.3-0.2,0.7-0.9,0.9c-0.9-0.1,0.4-0.8-0.4-1
			c-4.3,0.7-8.5,0.6-13.2,0.8c8.5,0.8,15.5,0.6,23,1c0.9,0,0,0.2,0,0.7c0.6,0.1,1.3,0.2,1.7-0.1c0-0.3-0.4-0.2-0.6-0.3
			c0.4-0.3,1.3-0.8,1.5-0.4c0,0.4-0.4,0.4-0.6,0.4c0.9,0.8,1.7,0.3,3.4,0.5c0,0.5-0.6,0.3-0.6,0.7c0.2,0.4,0.9,0.2,1.5,0.1
			c0.6,0-0.4-1.2,0.6-0.9c0.9,0.2-0.6,0.5-0.2,1.2c-2.6,0.7-6.8,0.1-8.1,1c-7,0.1-15.7-0.4-23.4,0.2c0.6,3.3,4.5-0.8,6.4,1
			c1.1-0.6,2.8-0.1,3.8,0.1c-5.1,1.6-9,0.7-14.7,1.7c-0.4,0.2,0.4,0.8-0.4,1.4c-4.3,0-8.7,1.1-13.2,0.8c-0.9,0.1-0.2,0.7-0.6,1.2
			C67.4,47.3,96.3,45,94.8,46c-10-1.2-20.2,0.6-30.4,0.3c-9.6-0.2-17.4-0.5-26.8-1.1c0.2-0.2,1.3-0.7,0.2-0.7
			c0.9-0.4,0.6-0.4,1.1-1.6c-1.7-0.7-1.3,1.7-1.9,2.3C24.4,45.9,10,44.4,0,44c0.6-1.3,3.2,0.5,3.6-1.4c1.1,0.3,1.1,0.2,1.9,0.7
			c-0.4-0.7,3-2.6,4.3-1.9c0.6-0.3,0.6-0.9,1.3-1.1c-3.4-0.8-5.3-0.2-7.9-0.2c3-1.4,7.9,0.5,9.4-2.6c3.2-1,6.6,0.5,8.7-0.2
			c0.6-0.2,1.1-0.9,1.7-1.1c1.1-0.4,2.1,0.1,3.4-0.2c2.8-0.6,5.3-2.8,8.1-2.8c5.3-2.7,12.5,0,17.4-1.5c1.3,0.2,1.3,0.2,2.6,0.2
			c-0.2,0.5-0.6,0.3-0.6,0.9c2.3,0.5,3.6-0.9,5.5,0c6.6-2.1,16.2-1.5,23.4-1.9c0.6,0.1,0.4-0.8,0.6-1.2 M79.7,32.6
			c2.8,1.4,5.3-0.3,8.3,0.5C86.1,31.6,81.8,32.4,79.7,32.6z M68.7,34.7c0.6,0,1.5,0.3,1.7-0.3C69.7,34.5,68.7,33.8,68.7,34.7z
			 M61.2,34.8c0.6-0.2,1.7-0.1,2.3-0.5C62.5,34.6,61.9,33.8,61.2,34.8z M22.7,39.7c0.9-0.4,2.6,0.4,3.2-0.5
			C24.9,38.8,23.6,39,22.7,39.7z M16.8,40.4c1.7-0.3,4,0.1,5.3-1c-1.3-0.1-4.3-0.8-5.7,0c0,0.8,1.1,0.3,1.1,0.6
			C16.8,40,15.7,40.3,16.8,40.4z M49.7,43.2c2.6,0.6,4.3-0.3,7.2,0.1C55.1,42.2,52.3,43.1,49.7,43.2z"/>
		<path class="st0" d="M102.6,41.7c0.2,0.9-2.1,1-3.2,1C100.1,41.9,102,41.9,102.6,41.7z"/>
		<path class="st0" d="M78.6,49.1c-0.2,0.3-2.1,0.6-3,0.2C76.7,48.3,77.3,49.5,78.6,49.1z"/>
	</g>
</g>
<g>
	<path class="st1" d="M78.4,41.4L78.4,41.4L78.4,41.4L78.4,41.4L78.4,41.4L78.4,41.4z M76.4,40.3v0.1h0L76.4,40.3L76.4,40.3z
		 M77.5,37.1c0-0.1,0.1-0.2,0.2-0.2c0.3,0,0.6,0.1,0.8,0.4c0,0.1,0.1,0.2,0.2,0.4c0.1,0.3,0.2,0.5,0.2,0.7l0,0.1l0,0.2v0.1l0,0.1
		l0,0.1v0c0,0.1,0,0.2,0,0.3l0,0l0,0.1l0,0c-0.1,0.4-0.1,0.7-0.1,0.9l0,0.1l0,0c0,0.2-0.1,0.4-0.2,0.6c0,0-0.1,0.1-0.2,0.2l0,0h-0.1
		v0l-0.1,0.1h0l-0.1,0L78,41.5h-0.2h0l0,0l0,0l-0.1,0l-0.1,0.1l0-0.2c0-0.1,0-0.2,0-0.5c0.1-0.5,0.1-1,0.1-1.4c0,0,0-0.2-0.1-0.7
		l0,0l0-0.1l0-0.1v0l0-0.1l0,0c0-0.2,0-0.3,0-0.4l0-0.1l0,0v-0.1l0-0.1l0,0c0-0.2,0-0.4,0-0.5l0,0C77.5,37.1,77.5,37.1,77.5,37.1z
		 M77,35.2l-0.1,0c-0.2,0-0.4,0.1-0.6,0.4c-0.1,0-0.1,0.3-0.2,0.9l0,0l0,0.1v0c0,0.1,0,0.2,0,0.3l0,0.1c0,0.1,0,0.2,0,0.4l0,0l0,0.2
		v0.1l0,0L76,37.7l0,0.1l0,0.2c0,0.1,0,0.2,0,0.2v0.6l0,0.1c0,0,0,0.1,0,0.2l0,0h0c0,0.2,0,0.3,0,0.5l0,0l0,0.1v0l0,0.1l0,0
		c0,0.1,0,0.2,0,0.2v0l0,0.1l0,0v0l0,0l0,0.1l0,0l0,0l0,0.1l0,0.1l0,0.1l0,0.1l0,0.1l0,0c0,0.2,0,0.5,0,0.7c0,0,0,0.1,0,0.2
		c0,0.2,0,0.3,0,0.4l0,0.1l0,0c0,0.2,0.1,0.3,0.2,0.4l0,0c0.1,0.1,0.1,0.1,0.3,0.1l0.1,0l0.2,0.1l0.1,0l0.3,0.1l0,0l0.1,0l0,0l0,0h0
		l0.1,0l0.1,0h0c0.2,0,0.3,0,0.4,0c0.4-0.1,0.6-0.1,0.6-0.2l0.1,0h0c0.2,0,0.4-0.2,0.7-0.5c0.2-0.2,0.3-0.3,0.3-0.4
		c0.1-0.2,0.2-0.3,0.2-0.3c0.3-0.5,0.4-0.9,0.4-1.1l0,0l0,0v-0.2l0-0.1l0,0v0c0-0.2,0.1-0.3,0.1-0.4v-0.3c0,0,0-0.1,0.1-0.2
		l-0.1-0.2l0,0l0-0.1V39c0-0.2,0-0.3,0-0.3h0l0-0.1l0-0.1l0-0.2c-0.1-0.4-0.1-0.6-0.2-0.7c0-0.1-0.1-0.2-0.1-0.2l0-0.1l0,0
		c-0.1-0.4-0.2-0.6-0.2-0.7c0-0.1-0.1-0.3-0.3-0.6c-0.4-0.5-1-0.7-1.7-0.7h-0.2l0,0l0,0h-0.3L77,35.2L77,35.2z M71.1,42.6L71.1,42.6
		L71.1,42.6L71.1,42.6L71.1,42.6z M72.2,42.2L72.2,42.2L72.2,42.2L72.2,42.2L72.2,42.2z M72.3,41.8L72.3,41.8L72.3,41.8L72.3,41.8
		L72.3,41.8L72.3,41.8z M73,39.1L73,39.1L73,39.1L73,39.1L73,39.1L73,39.1z M72.4,39L72.4,39L72.4,39L72.4,39L72.4,39z M72.7,36.1
		L72.7,36.1L72.7,36.1L72.7,36.1L72.7,36.1z M72.8,35.5L72.8,35.5h-0.1v0L72.8,35.5L72.8,35.5z M72,35.4L72,35.4L72,35.4L72,35.4
		L72,35.4L72,35.4z M70.9,35.1l-0.1,0.1c-0.1,0-0.2,0.3-0.1,0.9l0,0h0c0,0,0,0.3,0,0.9l0,0l0,0c0,0.2,0,0.4,0,0.5l0,0
		c0,0.2,0,0.4,0,0.6l0,0.1l0,0.1v0.3l0,0.1l0,0l0,0.2l0,0.1c0,0.1,0,0.2,0,0.3l0,0l0,0.5c0,0.1,0,0.2,0,0.2l0,0l0,0l0,0.1v0l0,0h0
		c0,0.1,0,0.3,0,0.4c0,0.4,0,0.7,0.1,0.8l0,0v0.1l0,0.1v0.2l0,0h0c0,0,0,0.2,0,0.6s0.1,0.6,0.3,0.6c0.2,0,0.3,0,0.4,0h0.1l0.1,0l0,0
		h0v0l0.2,0l0.1,0l0,0v0l0,0l0.2,0l0.1,0l0,0l0,0l0,0h0l0.1,0l0.1,0l0.2,0l0,0l0,0l0.1,0c0.2,0,0.3,0,0.4,0l0.1,0c0,0,0,0,0.1,0
		l0.1,0h0l0.1,0l0,0l0.1,0c0,0,0.1,0,0.2,0l0.1,0l0.1,0l0,0c0.2,0,0.3-0.1,0.3-0.2c0.1-0.4,0-0.6-0.1-0.9c0-0.1,0-0.2-0.1-0.2
		c0-0.1-0.1-0.2-0.3-0.2H74l-0.1,0l0,0c0,0-0.2,0-0.6,0l-0.1,0l-0.5,0c-0.1,0-0.2,0-0.4,0c-0.2,0-0.3,0-0.2-0.2l0-0.8l0-0.1
		c0-0.2,0-0.3,0-0.3h0L72,40.2l0,0v0l0-0.1v0h0c0-0.4,0.1-0.6,0.4-0.6h0.2c0,0,0.1,0,0.2,0H73l0.2,0l0,0l0.1,0c0.1,0,0.2,0,0.2,0
		c0.2,0,0.3-0.1,0.4-0.2c0-0.2,0.1-0.3,0.1-0.3l0-0.1v-0.1c0-0.2,0-0.3-0.1-0.5c-0.1-0.2-0.5-0.3-1.1-0.3l-0.2,0l0,0l-0.1,0l0,0v0
		l-0.1,0h0v0h-0.1c-0.2,0-0.3,0-0.3-0.1v0h0v-0.1c0-0.1,0-0.1-0.1-0.3c0-0.1,0-0.1,0-0.3v-0.2l0-0.1c0-0.2,0.1-0.4,0.3-0.5l0,0
		c0.2,0,0.4-0.1,0.4-0.1l0,0l0.2,0l0.6,0l0,0l0,0.1h0l0-0.1l0,0.1h0l0-0.1c0.1,0,0.2,0,0.2,0.1l0.1-0.1l0.1,0l0.1-0.1l0,0h0
		c0.1,0,0.2-0.1,0.4-0.2l0-0.1c0-0.1,0.1-0.3,0.1-0.5c-0.1-0.2-0.1-0.3-0.1-0.3l-0.1-0.1h0v0h0l-0.1-0.1c-0.2,0-0.3-0.1-0.3-0.1h0
		l-0.1,0l-0.1,0l0,0l0,0h-0.2l0,0c0,0-0.1,0-0.2,0l0,0l-0.1,0l-0.1,0c0,0-0.1,0-0.2,0l0,0l0,0l0,0v0l0,0c-0.1,0-0.2,0-0.3-0.1l0,0
		l-0.1,0l0,0l0,0l-0.1,0l0,0l-0.1,0h0c-0.1,0-0.2,0-0.3,0C71.3,35.1,71,35.1,70.9,35.1z M66.3,35.2L66.3,35.2c0,0,0,0-0.2,0.1
		l-0.1,0l-0.1,0l-0.1,0.1c-0.1,0.2-0.2,0.3-0.3,0.4c-0.1,0.3-0.2,0.7-0.2,1.1l0,0.1l0,0l0,0.1c0,0,0,0.2,0.1,0.5
		c0,0.1,0.1,0.3,0.1,0.5c0.1,0.2,0.2,0.5,0.5,0.8c0.3,0.3,0.4,0.4,0.4,0.4c0.2,0.2,0.4,0.3,0.4,0.3c0.6,0.5,0.9,0.9,0.9,1.2l0,0.2
		l0,0c0,0.1-0.1,0.3-0.4,0.5c-0.1,0.1-0.3,0.1-0.5,0.1c-0.2,0-0.3-0.1-0.3-0.1c-0.1,0-0.2-0.1-0.3-0.2l-0.1-0.3l-0.1-0.4l0-0.1
		c0-0.1-0.1-0.2-0.1-0.2c0-0.1-0.1-0.2-0.2-0.2l-0.3,0l-0.2,0l-0.1,0c-0.1,0.1-0.2,0.2-0.2,0.2c-0.1,0.1-0.2,0.2-0.2,0.3l0,0.3
		l0,0.1l0,0h0l0,0.1l0,0l0,0l0,0h0c0,0.2,0.1,0.4,0.2,0.6c0.1,0.4,0.3,0.6,0.4,0.6c0,0.1,0.1,0.1,0.1,0.1c0,0,0.2,0.1,0.4,0.2
		c0.3,0.1,0.6,0.1,0.9,0.2l0,0l0,0l0.1,0c0.1,0,0.2,0,0.3,0l0.2,0c0.4-0.2,0.7-0.3,0.6-0.3c0.2-0.1,0.3-0.2,0.4-0.3
		c0.2-0.2,0.3-0.4,0.3-0.4c0.2-0.2,0.3-0.5,0.3-0.8l0,0c0-0.3,0-0.5-0.1-0.6l0,0l-0.1-0.2c0-0.2-0.1-0.4-0.4-0.7
		c-0.1-0.2-0.2-0.3-0.2-0.3l0-0.1l-0.1-0.2c-0.1-0.2-0.2-0.3-0.2-0.3c-0.5-0.4-0.8-0.7-1-0.9c-0.4-0.4-0.5-0.8-0.5-1.2
		c0-0.2,0.1-0.4,0.3-0.5c0.2-0.1,0.5-0.1,0.7,0c0.1,0.2,0.2,0.4,0.2,0.6c0,0.4,0.1,0.6,0.1,0.6l0.1,0.1c0.1,0.1,0.2,0.1,0.3,0.1
		c0.1,0,0.2,0,0.4-0.1c0.2-0.1,0.3-0.2,0.2-0.3l0-0.1c0,0,0-0.2,0-0.5c0-0.3,0-0.5-0.1-0.6c0-0.2-0.1-0.4-0.3-0.6l-0.1-0.1
		c-0.1-0.1-0.3-0.2-0.4-0.2c-0.2-0.1-0.4-0.2-0.7-0.2l-0.1,0l-0.1,0l0,0l0,0l-0.2,0l-0.1,0l0,0l0,0l-0.1,0l0,0l-0.1,0
		C66.4,35.1,66.3,35.2,66.3,35.2z M61.4,38c0.1-0.3,0.1-0.5,0.1-0.5c0,0,0.1,0.1,0.2,0.4h0c0,0.3,0.1,0.5,0.1,0.5l0,0.1v0l0,0
		l0.1,0.2v0.1l0,0.1l0,0v0l0,0c-0.1,0-0.2,0-0.5,0l-0.1,0v-0.1l0.1-0.2v0l0,0C61.3,38.4,61.3,38.2,61.4,38z M60.7,35.4
		c-0.1,0.2-0.2,0.4-0.2,0.4l-0.1,0.4l0,0l0,0c-0.1,0.2-0.2,0.5-0.3,1l0,0l0,0c0,0-0.1,0.2-0.2,0.6c-0.1,0.4-0.1,0.6-0.1,0.6v0l0,0h0
		c0,0.1,0,0.2-0.1,0.2c-0.1,0.5-0.2,0.7-0.2,0.7l0,0.1c-0.1,0.4-0.1,0.6-0.2,0.7l0,0c0,0.1-0.1,0.2-0.1,0.3l0,0.1
		c-0.1,0.3-0.1,0.5-0.1,0.6l0,0l0,0.1l0,0h0c0,0.3-0.1,0.5-0.1,0.5l0,0l0,0.1l0,0.1c0,0.1,0,0.2-0.1,0.5c0,0.1,0,0.2,0,0.2
		c0.1,0.2,0.3,0.3,0.7,0.3c0.4,0,0.6,0,0.6-0.1c0-0.1,0.1-0.2,0.2-0.3c0.1-0.1,0.1-0.4,0.1-0.9l0,0c0-0.1,0.1-0.2,0.1-0.2l0,0l0-0.1
		l0,0c0-0.1,0.1-0.2,0.1-0.5l0,0l0,0c0-0.2,0.2-0.3,0.7-0.3h0.1c0.2,0,0.3,0,0.4,0.1c0.1,0,0.1,0.4,0.2,1.3l0,0c0,0,0,0.1,0.1,0.3
		c0,0.4,0.1,0.6,0.3,0.7c0,0.1,0.2,0.1,0.7,0.1c0.2,0,0.4-0.1,0.6-0.4l0-0.2c-0.1-0.8-0.2-1.2-0.2-1.4l0-0.1h0l-0.1-0.5l0,0l0-0.1
		l0,0l0-0.1v-0.1c0-0.1,0-0.2,0-0.3c0-0.3-0.1-0.5-0.2-0.7c-0.1-0.6-0.1-1-0.2-1.3l0-0.1c0-0.1-0.1-0.2-0.1-0.2
		c-0.1-0.5-0.1-0.8-0.2-0.9h0l-0.1-0.3l0,0c0-0.2-0.1-0.4-0.2-0.6c-0.1-0.3-0.3-0.4-0.5-0.5c0-0.1-0.2-0.1-0.6-0.1l-0.1,0l-0.1,0
		C60.9,35.2,60.7,35.3,60.7,35.4z M53.8,42.6L53.8,42.6L53.8,42.6L53.8,42.6L53.8,42.6z M54.9,42.2L54.9,42.2L54.9,42.2L54.9,42.2
		L54.9,42.2z M55,41.8L55,41.8L55,41.8L55,41.8L55,41.8L55,41.8z M55.7,39.1L55.7,39.1L55.7,39.1L55.7,39.1L55.7,39.1L55.7,39.1z
		 M55.1,39L55.1,39L55.1,39L55.1,39L55.1,39z M55.4,36.1L55.4,36.1L55.4,36.1L55.4,36.1L55.4,36.1z M55.5,35.5L55.5,35.5h-0.1v0
		L55.5,35.5L55.5,35.5z M54.7,35.4L54.7,35.4L54.7,35.4L54.7,35.4L54.7,35.4L54.7,35.4z M53.6,35.1l-0.1,0.1c-0.1,0-0.2,0.3-0.1,0.9
		l0,0h0c0,0,0,0.3,0,0.9l0,0l0,0c0,0.2,0,0.4,0,0.5l0,0c0,0.2,0,0.4,0,0.6l0,0.1l0,0.1v0.3l0,0.1l0,0l0,0.2l0,0.1c0,0.1,0,0.2,0,0.3
		l0,0l0,0.5c0,0.1,0,0.2,0,0.2l0,0l0,0l0,0.1v0l0,0h0c0,0.1,0,0.3,0,0.4c0,0.4,0,0.7,0.1,0.8l0,0v0.1l0,0.1v0.2l0,0h0
		c0,0,0,0.2,0,0.6c0,0.4,0.1,0.6,0.3,0.6c0.2,0,0.3,0,0.4,0h0.1l0.1,0l0.1,0h0v0l0.2,0l0.1,0l0,0v0l0,0l0.2,0l0.1,0l0,0l0,0l0,0h0
		l0.1,0l0.1,0l0.2,0l0,0l0,0l0.1,0c0.2,0,0.3,0,0.4,0l0.1,0c0,0,0,0,0.1,0l0.1,0h0l0.1,0l0.1,0l0.1,0c0,0,0.1,0,0.2,0l0.1,0l0.1,0
		l0,0c0.2,0,0.3-0.1,0.3-0.2c0.1-0.4,0-0.6-0.1-0.9c0-0.1,0-0.2-0.1-0.2c0-0.1-0.1-0.2-0.3-0.2h-0.1l-0.1,0l0,0c0,0-0.2,0-0.6,0
		l-0.1,0l-0.5,0c-0.1,0-0.2,0-0.4,0c-0.2,0-0.3,0-0.2-0.2l0-0.8l0-0.1c0-0.2,0-0.3,0-0.3h0l-0.1-0.1l0,0v0l-0.1-0.1v0h0
		c0-0.4,0.1-0.6,0.4-0.6h0.2c0,0,0.1,0,0.2,0h0.2l0.2,0l0,0l0.1,0c0.1,0,0.2,0,0.2,0c0.2,0,0.3-0.1,0.4-0.2c0-0.2,0.1-0.3,0.1-0.3
		l0-0.1v-0.1c0-0.2,0-0.3-0.1-0.5c-0.1-0.2-0.5-0.3-1.1-0.3l-0.2,0l0,0l-0.1,0l0,0v0l-0.1,0h0v0H55c-0.2,0-0.3,0-0.3-0.1v0h0v-0.1
		c0-0.1,0-0.1-0.1-0.3c0-0.1,0-0.1,0-0.3v-0.2l0-0.1c0-0.2,0.1-0.4,0.3-0.5l0,0c0.2,0,0.4-0.1,0.4-0.1l0,0l0.2,0l0.6,0l0,0l0.1,0.1
		h0l0-0.1l0,0.1h0l0-0.1c0.1,0,0.2,0,0.2,0.1l0.1-0.1l0.1,0l0.1-0.1l0,0h0c0.1,0,0.2-0.1,0.4-0.2l0-0.1c0-0.1,0.1-0.3,0.1-0.5
		c-0.1-0.2-0.1-0.3-0.1-0.3l-0.1-0.1h0v0h0l-0.1-0.1c-0.2,0-0.3-0.1-0.3-0.1h0l-0.1,0l-0.1,0l0,0l0,0h-0.2l0,0c0,0-0.1,0-0.2,0
		l-0.1,0l-0.1,0l-0.1,0c0,0-0.1,0-0.2,0l0,0l0,0l0,0v0l-0.1,0c-0.1,0-0.2,0-0.3-0.1l0,0l-0.1,0l0,0l0,0l-0.1,0l0,0l-0.1,0h0
		c-0.1,0-0.2,0-0.3,0C54,35.1,53.7,35.1,53.6,35.1z M49.1,42.2L49.1,42.2L49.1,42.2L49.1,42.2L49.1,42.2z M48.7,42L48.7,42L48.7,42
		L48.7,42L48.7,42z M49.3,41.4L49.3,41.4L49.3,41.4L49.3,41.4L49.3,41.4z M47.9,40.8L47.9,40.8L47.9,40.8L47.9,40.8L47.9,40.8z
		 M48.1,35.4L48,35.5c0,0,0,0.1-0.1,0.3l0,0.1L47.9,36l0,0.1l0,0l0,0l-0.1,0.1l0,0.1l0,0.1l0,0l0,0v0c0,0,0,0.1-0.1,0.2l0,0.1l0,0.1
		l0,0.1l0,0.1l0.1,0l0,0l0,0l0,0.1l0,0.1c0,0.1,0,0.2,0,0.2l0,0h0l0,0.2c0,0,0,0.1,0,0.2l0,0h0l0,0.1c0,0,0,0.1-0.1,0.2l0,0l0,0.1v0
		l0,0l0,0.1v0l0,0c0,0,0,0.1,0,0.2l0,0.1h0c0,0.2,0,0.4,0.1,0.4l0,0l0,0l0,0l0,0l0,0v0.1l0,0c0,0,0,0.1,0,0.2l0,0l0,0.1v0l0,0l0,0
		l0,0.1c0,0,0,0,0,0.1l0,0.1h0v0l0,0h0l0,0.1l0,0.1l0,0.1l0,0l0,0.1l0,0l0,0l0,0.1l0,0l0,0.1l0,0l0,0l0.1,0v0l0,0.1
		c0,0.1,0,0.2,0,0.4l0,0h0l0,0.1l0,0.1l0,0.1l0,0.2l0,0l0,0l0,0l0,0.1l0,0l0,0l0,0.2l0,0.1l0,0l0,0.2v0l0,0c0,0.3,0,0.5,0.1,0.5
		c0,0.1,0.4,0.1,1.2,0.1l0,0l0,0h0.2c0,0,0.3,0,0.9,0l0,0c0.2,0,0.5,0,1,0h0c0.1,0,0.3-0.1,0.4-0.2c0.1-0.1,0.2-0.3,0.2-0.5
		c0-0.2-0.1-0.4-0.2-0.5c0-0.1-0.3-0.1-0.8-0.2l0,0l-0.1,0l0,0c-0.2,0-0.4,0-0.7,0l-0.2,0h-0.3l-0.2-0.1l0,0l0-0.1
		c0-0.5,0-0.9-0.1-0.9l0,0l0,0l0,0l0-0.1l0,0l0-0.1l0-0.2l0-0.2l0-0.1v-0.1l0,0l0,0v-0.1l0,0h0c0-0.1,0-0.2,0-0.4l0,0
		c0-0.1,0-0.2,0-0.2v-0.1l0.1-0.2l0-0.1l0-0.1l0-0.1c0-0.1,0-0.2,0-0.4l0,0l0,0v0c0-0.2,0-0.3,0-0.4l0-0.1l0,0l0,0l0-0.1l0,0l0-0.1
		l0,0l0,0v-0.1l0-0.1l0,0c0,0,0-0.1,0-0.3l0,0l0-0.1v-0.1l0,0l0-0.1c0,0,0-0.1,0-0.2c0-0.2,0-0.3,0-0.3c0-0.4-0.2-0.6-0.4-0.6
		l-0.1,0l-0.1,0l-0.1,0C48.3,35.1,48.1,35.2,48.1,35.4z M42.7,42.6L42.7,42.6L42.7,42.6L42.7,42.6L42.7,42.6z M43.7,42.2L43.7,42.2
		L43.7,42.2L43.7,42.2L43.7,42.2z M43.9,41.8L43.9,41.8L43.9,41.8L43.9,41.8L43.9,41.8L43.9,41.8z M44.5,39.1L44.5,39.1L44.5,39.1
		L44.5,39.1L44.5,39.1L44.5,39.1z M44,39L44,39L44,39L44,39L44,39z M44.3,36.1L44.3,36.1L44.3,36.1L44.3,36.1L44.3,36.1z M44.4,35.5
		L44.4,35.5h-0.1v0L44.4,35.5L44.4,35.5z M43.5,35.4L43.5,35.4L43.5,35.4L43.5,35.4L43.5,35.4L43.5,35.4z M42.5,35.1l-0.1,0.1
		c-0.1,0-0.2,0.3-0.1,0.9l0,0h0c0,0,0,0.3,0,0.9l0,0l0,0c0,0.2,0,0.4,0,0.5l0,0c0,0.2,0,0.4,0,0.6l0,0.1l0,0.1v0.3l0,0.1l0,0l0,0.2
		l0,0.1c0,0.1,0,0.2,0,0.3l0,0l0,0.5c0,0.1,0,0.2,0,0.2l0,0l0,0l0,0.1v0l0,0h0c0,0.1,0,0.3,0,0.4c0,0.4,0,0.7,0.1,0.8l0,0v0.1l0,0.1
		v0.2l0,0h0c0,0,0,0.2,0,0.6c0,0.4,0.1,0.6,0.3,0.6c0.2,0,0.3,0,0.4,0h0.1l0.1,0l0.1,0h0v0l0.2,0l0.1,0l0,0v0l0,0l0.2,0l0.1,0l0,0
		l0,0l0,0h0l0.1,0l0.1,0l0.2,0l0,0l0,0l0.1,0c0.2,0,0.3,0,0.4,0l0.1,0c0,0,0,0,0.1,0l0.1,0h0l0.1,0l0.1,0l0.1,0c0,0,0.1,0,0.2,0
		l0.1,0l0.1,0l0,0c0.2,0,0.3-0.1,0.3-0.2c0.1-0.4,0-0.6-0.1-0.9c0-0.1,0-0.2-0.1-0.2c0-0.1-0.1-0.2-0.3-0.2h-0.1l-0.1,0l0,0
		c0,0-0.2,0-0.6,0l-0.1,0l-0.5,0c-0.1,0-0.2,0-0.4,0c-0.2,0-0.3,0-0.2-0.2l0-0.8l0-0.1c0-0.2,0-0.3,0-0.3h0l-0.1-0.1l0,0v0l-0.1-0.1
		v0h0c0-0.4,0.1-0.6,0.4-0.6h0.2c0,0,0.1,0,0.2,0h0.2l0.2,0l0,0l0.1,0c0.1,0,0.2,0,0.2,0c0.2,0,0.3-0.1,0.4-0.2
		c0-0.2,0.1-0.3,0.1-0.3l0-0.1v-0.1c0-0.2,0-0.3-0.1-0.5C45.4,38.1,45,38,44.4,38l-0.2,0l0,0l-0.1,0l0,0v0l-0.1,0h0v0h-0.1
		c-0.2,0-0.3,0-0.3-0.1v0h0v-0.1c0-0.1,0-0.1-0.1-0.3c0-0.1,0-0.1,0-0.3v-0.2l0-0.1c0-0.2,0.1-0.4,0.3-0.5l0,0
		c0.2,0,0.4-0.1,0.4-0.1l0,0l0.2,0l0.6,0l0,0l0.1,0.1h0l0-0.1l0,0.1h0l0-0.1c0.1,0,0.2,0,0.2,0.1l0.1-0.1l0.1,0l0.1-0.1l0,0h0
		c0.1,0,0.2-0.1,0.4-0.2l0-0.1c0-0.1,0.1-0.3,0.1-0.5c-0.1-0.2-0.1-0.3-0.1-0.3l-0.1-0.1h0v0h0L46,35.3c-0.2,0-0.3-0.1-0.3-0.1h0
		l-0.1,0l-0.1,0l0,0l0,0h-0.2l0,0c0,0-0.1,0-0.2,0l-0.1,0l-0.1,0l-0.1,0c0,0-0.1,0-0.2,0l0,0l0,0l0,0v0l-0.1,0c-0.1,0-0.2,0-0.3-0.1
		l0,0l-0.1,0l0,0l0,0l-0.1,0l0,0l-0.1,0h0c-0.1,0-0.2,0-0.3,0C42.9,35.1,42.6,35.1,42.5,35.1z M38.3,36.7L38.3,36.7l0.1,0l0,0v0
		l0.1,0h0.1c0.2,0,0.4,0.1,0.5,0.3c0,0.1,0,0.2,0.1,0.2v0.1l0,0.2l0,0l0,0.1l-0.1,0.1v0l0,0l0,0.1l0,0c-0.2,0.3-0.3,0.4-0.3,0.4
		c0,0.1-0.3,0.2-0.8,0.2c-0.2,0-0.2-0.2-0.2-0.6l0,0l0-0.2h0c0-0.2,0-0.4,0-0.5v0c0,0-0.1-0.2-0.1-0.4l0,0l0,0
		C38.1,36.6,38.2,36.7,38.3,36.7z M38,39.8L38,39.8L38,39.8L38,39.8l0.1,0.1l0,0.1l0.1,0.2l0,0l0.1,0.2l0,0l0,0l0.1,0.1l0,0l0,0
		l0.1,0.1l0,0.1l0.1,0.2l0.1,0c-0.1,0,0.1,0.3,0.4,0.8l0,0l0,0l0,0.1l0,0l0,0c0.1,0.3,0.3,0.6,0.4,0.9l0.2,0.3c0,0,0.1,0.1,0.3,0.1
		s0.4,0,0.7,0l0,0c0.2,0,0.3,0,0.3-0.2c0-0.2-0.1-0.5-0.3-0.7l-0.1-0.2c0-0.1-0.1-0.2-0.1-0.3l0,0l0,0l0,0l0,0
		c-0.1-0.1-0.1-0.3-0.2-0.5l0,0c0,0,0-0.1-0.1-0.3l-0.1-0.1c0,0,0-0.2-0.2-0.4l0,0l0-0.1l0,0l-0.1-0.1l0,0l0-0.1l0-0.1l-0.1-0.1l0,0
		l0-0.1l0,0l-0.1-0.1c0.2,0,0.3-0.1,0.5-0.2l0.1,0c0.1-0.1,0.3-0.2,0.4-0.4l0,0c0.2-0.2,0.4-0.5,0.4-0.8l0,0l0-0.2v-0.2l-0.1-0.3
		l0,0l0-0.1c0-0.3-0.1-0.6-0.2-0.8c-0.2-0.2-0.2-0.4-0.2-0.4c-0.1-0.3-0.4-0.5-0.7-0.7c-0.4-0.1-0.7-0.2-0.8-0.2h-0.3l0,0
		c-0.1,0-0.3-0.1-0.6-0.1l-0.1,0c-0.1,0-0.2,0-0.4,0c-0.1,0-0.4,0.1-0.7,0.2l-0.2,0.3l0,0v0l0,0l0,0c0,0,0,0.1-0.1,0.3
		c0,0,0,0,0,0.1v0.2l0,0h0l0.1,0.2l-0.1,0.1c0,0.1,0.1,0.2,0.1,0.3v0L36.3,37c0,0,0,0.1,0,0.2l-0.1,0l0,0l0,0.1v0l0,0.1l0,0l0,0
		l0,0.1l0,0.1l0,0.1l0,0.1l0,0.1l0,0l0,0.1l0.1,0.2l0,0l0,0.2l0,0.1c0,0.2,0.1,0.3,0.1,0.3l0,0l0,0.1l0,0.1l0,0.1l0,1.1h0l0,0.1
		l0,0.1l0,0h0c0,0,0,0.1,0,0.2l0,0c0,0,0,0.2,0.1,0.4l0,0l0,0.1l0,0l0,0.2v0.1l0,0.1l0,0l0,0v0l0,0l0,0l0,0.1l0,0.1l0,0l0,0v0l0,0
		l0,0l0,0c0,0.3,0,0.6,0,0.8c0,0.1,0.3,0.1,0.7,0.1c0.4,0,0.6,0,0.7,0c0-0.1,0.1-0.3,0.1-0.6l0,0l0-0.4c0-0.2,0-0.3,0-0.5l0,0l0-0.1
		v-0.2c0-0.1,0-0.2,0-0.4l0-0.1l0-0.1l0-0.1l0-0.1l0-0.1v-0.1l0,0h0l0-0.1l0,0l0-0.1L38,39.8L38,39.8L38,39.8z M37.6,42.7L37.6,42.7
		l0,0.1l-0.1,0v0L37.6,42.7L37.6,42.7z M37.4,42.8L37.4,42.8L37.4,42.8L37.4,42.8L37.4,42.8z M37.6,41.3L37.6,41.3L37.6,41.3
		L37.6,41.3L37.6,41.3z"/>
</g>
<g>
	<g>
		<path class="st2" d="M125.3,31.8c-0.1,1-0.9,1.2-0.6-0.1C124.9,31.4,125.2,31.5,125.3,31.8z"/>
		<path class="st2" d="M21.7,19.6c0.2,0.1-0.1,0.7,0.1,0.8c-0.3,0.3-0.5,0.9-0.9,0.8c0-0.4,0.3-1.2,0.1-1.2
			C21.2,19.2,21.6,19.9,21.7,19.6z"/>
		<path class="st2" d="M116.6,38.1c0.5,0.2,1.3-0.1,1.2,0.9C117.2,38.8,116.4,39.1,116.6,38.1z"/>
		<path class="st2" d="M133.7,43c0.1,0,0.1,0.1,0.1,0.3c0.1,0.7,1.1,0.1,1.2,0.7C134.6,44.3,133.1,44.1,133.7,43z"/>
		<path class="st2" d="M47.9,30.8c-0.6,0.8-0.9,0.2-1.6,0.5C46.6,30.6,47.3,30.9,47.9,30.8z"/>
		<path class="st2" d="M124.7,44.3c-0.1,0.9-1.1,0.3-1.2,0.1C123.7,43.5,124.1,44.5,124.7,44.3z"/>
		<path class="st2" d="M109.4,42.2c-0.3,0.3-0.7,0.4-1.1,0.3C108.4,41.5,109.1,42.3,109.4,42.2z"/>
		<path class="st2" d="M102.1,42.5c-0.1,1-0.7,0.2-1.1,0.3C101.2,42.3,102.1,42.3,102.1,42.5z"/>
		<path class="st2" d="M99.9,42.4c-0.4,0.6-0.7,1.1-1.3,1c0.1-0.3,0.1-0.6,0.2-1C99.4,42.6,99.4,42.5,99.9,42.4z"/>
		<path class="st2" d="M33.1,34.7c-0.3,0-0.6-0.1-0.7-0.4C32.4,34,33.4,34,33.1,34.7z"/>
		<path class="st2" d="M87.6,44.7c-0.6,1.3-1.9,0.7-2.7,0.6C85.9,43.9,86.5,44.9,87.6,44.7z"/>
		<path class="st2" d="M85.4,46.8c0.3-0.5,0.9,0,1.3,0C86.5,47.3,85.8,46.7,85.4,46.8z"/>
		<path class="st2" d="M60.7,44.2c0.1-0.3,1.1-0.4,0.9,0.4C61.3,44.5,60.9,44.6,60.7,44.2z"/>
		<path class="st2" d="M69.2,49.2c-1.3,2.2-2.9,0.7-4.8,0.5c0.7-2.2,1.8-0.6,2.7-0.6C67.9,49.2,68.8,48.3,69.2,49.2z"/>
		<path class="st2" d="M69.5,49.5c0.5,0.1,0.9,0.1,1.4,0.2C70.8,50.3,69.4,50.5,69.5,49.5z"/>
		<path class="st2" d="M64.2,49.5c-0.4,0.9-1.3,0.1-2,0.2C62.7,48.2,63.6,48.9,64.2,49.5z"/>
		<path class="st2" d="M61.8,49.1c-1.3,1.5-2.5,0.3-4.3,0.3C58.7,48.3,60.5,48.9,61.8,49.1z"/>
		<path class="st2" d="M54.6,49.2c-0.3,1.3-1.4,0.3-2.1,0.4C53,48.5,54.5,48.4,54.6,49.2z"/>
		<path class="st2" d="M50.1,48.2c-0.1,0.7,0.9,0.4,1.3,0.9c-0.5,1.2-1.5,0.5-2.1,0.4C49.4,48.8,49.9,49,50.1,48.2z"/>
		<path class="st2" d="M48.9,49.3c-1.1,1.2-4.2,1.9-4.2-0.7C46.1,48.8,48,47.6,48.9,49.3z"/>
		<path class="st2" d="M44,48.8c0,0.7-0.3,0.6-0.3,1.2c-0.2-0.5-0.9-0.3-1.2-0.7C43,48.5,43.3,49,44,48.8z"/>
		<path class="st2" d="M9,46c0.3,0.6,0.7-0.1,1,0.4c-0.2,1-0.8,0.8-1.3,0.8C8.7,46.5,9,46.6,9,46z"/>
		<path class="st2" d="M32.2,60.3c0.2,0.6,1.2,0,1,1.1C33,61.6,32.1,61.3,32.2,60.3z"/>
		<path class="st2" d="M79.2,41.9c0.3,3.3,2.5-0.8,3.5,1c0.6-0.6,1.5-0.1,2.1,0.1c-2.8,1.6-5,0.7-8.1,1.7c-0.2,0.2,0.2,0.8-0.2,1.4
			c-2.4,0-4.8,1.1-7.3,0.8c-0.5,0.1-0.1,0.7-0.4,1.2c-1-0.1-1.5-1.4-2.4-0.4c-5.5-1.2-11.2,0.6-16.8,0.3c-5.3-0.2-9.6-0.5-14.8-1.1
			c0.1-0.2,0.7-0.7,0.1-0.7c0.5-0.4,0.4-0.4,0.6-1.6c-0.9-0.7-0.7,1.7-1.1,2.3c-7,0.7-14.9-0.8-20.5-1.2c0.4-1.3,1.8,0.5,2-1.4
			c0.6,0.3,0.6,0.2,1.1,0.7c-0.2-0.7,1.7-2.6,2.4-1.9c0.3-0.3,0.4-0.9,0.7-1.1c-1.9-0.8-3-0.2-4.4-0.2c1.7-1.4,4.3,0.5,5.2-2.6
			c1.8-1,3.7,0.5,4.8-0.2c0.3-0.2,0.6-0.9,0.9-1.1c0.6-0.4,1.2,0.1,1.9-0.2c1.5-0.6,2.9-2.8,4.5-2.8c2.9-2.7,7,0,9.6-1.5
			c0.7,0.2,0.7,0.2,1.4,0.2c-0.1,0.5-0.4,0.3-0.4,0.9c1.3,0.5,2-0.9,3.1,0c3.7-2.1,8.9-1.5,13-1.9c0.3,0.1,0.2-0.8,0.3-1.2
			c2-0.3,3.4,0.5,4.9,0.5c0.2-0.1,0.3-0.5,0.4-0.9c1,0.1,1.9,0.1,2,1.1c0.3-1.9,2-0.1,1.6,1.2c0.7-0.1,0.6,0,1.2-0.3
			c0-0.7-0.5,0.4-0.6-0.3c0.5-1,1.6-1.4,1.9-0.4c1.9-1.2,6.2-0.9,8,0.5c0.8-0.4,1.4-0.4,1.7,0.5c-0.1,0.3-0.3,0.2-0.4,0.2
			c0.6,1.3,1.5,0,2.2,0.6c0.3-1.1-0.9-0.1-0.8-0.9c0.9-0.6,3-0.1,3.7,0.6c-0.6-0.3-2-0.2-2.6-0.2c2.7,1.2,7.2,0.9,11.1,1.2
			c1.2,0.1,2.6,0.5,3.4,0c0.3,0.1,0.3,0.6,0.5,0.8c0.3,0.1,0.4-0.1,0.5-0.7c1.3,1.5,4.5,0.5,6.4,1.5c-0.6,1.1-1.3-0.4-2,0.2
			c0.2,0.3,0.3,0.7,0.5,1.1c2.1-1,4.6,1.1,6.2,0.5c-0.4,0.9-1.9,0.1-2.7,0.1c-0.6,0-1.9-0.3-2.7,0.3c-0.4-1.2-1.6-0.1-2.2-0.8
			c0-0.4,0.2-0.4,0.2-0.7c-0.2-0.2-0.5-0.2-0.6-0.6c-4.1,1.5-9.6,0.7-13.6,0.6c-0.1,0.3-0.1,0.7-0.5,0.9c-0.5-0.1,0.2-0.8-0.2-1
			c-2.3,0.7-4.7,0.6-7.3,0.8c4.7,0.8,8.6,0.6,12.7,1c0.5,0,0,0.2,0,0.7c0.3,0.1,0.7,0.2,0.9-0.1c0-0.3-0.2-0.2-0.3-0.3
			c0.2-0.3,0.7-0.8,0.8-0.4c0,0.4-0.2,0.4-0.3,0.4c0.5,0.8,1,0.3,1.9,0.5c0,0.5-0.3,0.3-0.4,0.7c0.1,0.4,0.5,0.2,0.8,0.1
			c0.4,0-0.2-1.2,0.4-0.9c0.5,0.2-0.3,0.5-0.1,1.2c-1.4,0.7-3.8,0.1-4.5,1C88.3,41.8,83.4,41.3,79.2,41.9z M74.7,33.3
			c1.5,1.4,2.9-0.3,4.6,0.5C78.3,32.3,75.9,33.1,74.7,33.3z M52,36.4c0.4,0,0.8,0.3,1-0.3C52.6,36.2,52,35.5,52,36.4z M47.9,36.5
			c0.4-0.2,0.9-0.1,1.3-0.5C48.6,36.3,48.3,35.5,47.9,36.5z M26.6,41.4c0.5-0.4,1.4,0.4,1.8-0.5C27.8,40.5,27.1,40.7,26.6,41.4z
			 M23.3,42.1c1-0.3,2.2,0.1,2.9-1c-0.7-0.1-2.3-0.8-3.2,0c0,0.8,0.6,0.3,0.6,0.6C23.3,41.7,22.7,42,23.3,42.1z M41.5,44.9
			c1.4,0.6,2.4-0.3,4,0.1C44.5,43.9,42.9,44.8,41.5,44.9z"/>
		<path class="st2" d="M87.4,42.4c0.1,0.9-1.2,1-1.8,1C86,42.6,87.1,42.6,87.4,42.4z"/>
		<path class="st2" d="M74.2,49.8c-0.1,0.3-1.2,0.6-1.6,0.2C73.1,49,73.5,50.2,74.2,49.8z"/>
	</g>
	<g>
		<path class="st1" d="M74.2,42.3L74.2,42.3L74.2,42.3L74.2,42.3L74.2,42.3L74.2,42.3z M72.4,41.3L72.4,41.3L72.4,41.3L72.4,41.3
			L72.4,41.3z M73.4,38.4c0-0.1,0.1-0.2,0.2-0.2c0.3,0,0.5,0.1,0.7,0.4c0,0,0.1,0.2,0.2,0.4c0.1,0.2,0.2,0.5,0.2,0.6l0,0v0.2v0.1V40
			v0.1l0,0c0,0.1,0,0.2,0,0.3l0,0c0,0,0,0,0,0.1l0,0c0,0.4-0.1,0.7-0.1,0.8v0.1l0,0c0,0.1-0.1,0.3-0.2,0.6c0,0,0,0.1-0.1,0.2l0,0
			l0,0l0,0l-0.1,0.1l0,0h-0.1L74,42.4h-0.2l0,0l0,0l0,0h-0.1l-0.1,0.1v-0.1c0-0.1,0-0.2,0-0.4c0-0.5,0.1-0.9,0.1-1.3
			c0,0,0-0.2-0.1-0.6l0,0V40v-0.1l0,0v-0.1l0,0c0-0.2,0-0.3,0-0.4v-0.1l0,0v-0.1v-0.1l0,0c0-0.2,0-0.4,0-0.5l0,0
			C73.4,38.4,73.4,38.4,73.4,38.4z M72.8,36.7L72.8,36.7c-0.3,0-0.5,0.1-0.6,0.4c-0.1,0-0.1,0.3-0.2,0.8l0,0V38l0,0
			c0,0.1,0,0.2,0,0.3v0.1c0,0.1,0,0.2,0,0.3l0,0v0.1v0.1l0,0V39v0.1v0.2c0,0.1,0,0.2,0,0.2v0.6v0.1c0,0,0,0.1,0,0.2l0,0l0,0
			c0,0.2,0,0.3,0,0.5l0,0V41l0,0v0.1l0,0c0,0.1,0,0.2,0,0.2l0,0v0.1l0,0l0,0l0,0v0.1l0,0l0,0v0.1v0.1v0.1v0.1V42l0,0
			c0,0.2,0,0.4,0,0.6c0,0,0,0.1,0,0.2c0,0.2,0,0.3,0,0.3v0.1l0,0c0,0.2,0.1,0.3,0.2,0.3l0,0c0.1,0.1,0.1,0.1,0.2,0.1h0.1l0.2,0.1
			l0,0H73l0,0h0.1l0,0l0,0l0,0h0.1h0.1l0,0c0.2,0,0.3,0,0.3,0c0.4-0.1,0.6-0.1,0.6-0.2h0.1l0,0c0.2,0,0.4-0.2,0.6-0.5
			c0.2-0.2,0.3-0.3,0.3-0.4c0.1-0.2,0.1-0.2,0.1-0.3c0.2-0.5,0.3-0.8,0.3-1l0,0l0,0v-0.2V41l0,0l0,0c0-0.2,0-0.3,0-0.3v-0.2
			c0,0,0-0.1,0.1-0.2c0,0-0.1-0.1-0.1-0.2l0,0V40v-0.1c0-0.2,0-0.3,0-0.3l0,0v-0.1v-0.1v-0.2c-0.1-0.3-0.1-0.6-0.2-0.7
			c0-0.1-0.1-0.2-0.1-0.2v-0.1l0,0c-0.1-0.4-0.2-0.6-0.2-0.6c0-0.1-0.1-0.2-0.3-0.5c-0.4-0.4-0.9-0.6-1.6-0.6H73l0,0l0,0h-0.3
			L72.8,36.7L72.8,36.7z M67.6,43.5L67.6,43.5L67.6,43.5L67.6,43.5L67.6,43.5z M68.6,43.1L68.6,43.1L68.6,43.1L68.6,43.1L68.6,43.1z
			 M68.7,42.7L68.7,42.7L68.7,42.7L68.7,42.7L68.7,42.7L68.7,42.7z M69.3,40.3L69.3,40.3L69.3,40.3L69.3,40.3L69.3,40.3L69.3,40.3z
			 M68.7,40.2L68.7,40.2L68.7,40.2L68.7,40.2L68.7,40.2z M69,37.6L69,37.6L69,37.6L69,37.6L69,37.6z M69.1,37L69.1,37L69.1,37
			L69.1,37L69.1,37L69.1,37z M68.3,36.9L68.3,36.9L68.3,36.9L68.3,36.9L68.3,36.9L68.3,36.9z M67.4,36.7l-0.1,0.1
			c-0.1,0-0.1,0.3-0.1,0.8l0,0l0,0c0,0,0,0.3,0,0.8l0,0l0,0c0,0.2,0,0.4,0,0.5l0,0c0,0.2,0,0.4,0,0.6v0.1v0.1v0.2V40l0,0v0.1l0,0
			c0,0.1,0,0.2,0,0.2l0,0v0.5c0,0.1,0,0.2,0,0.2l0,0l0,0v0.1l0,0l0,0l0,0c0,0.1,0,0.2,0,0.4c0,0.4,0,0.6,0.1,0.7l0,0l0,0
			c0,0.1,0,0.1,0,0.1v0.1l0,0l0,0c0,0,0,0.2,0,0.5s0.1,0.5,0.3,0.5s0.3,0,0.3,0H68h0.1l0,0l0,0l0,0h0.1h0.1l0,0l0,0l0,0h0.2h0.1l0,0
			l0,0l0,0l0,0h0.1l0,0h0.1l0,0l0,0h0.1c0.2,0,0.3,0,0.4,0h0.1c0,0,0,0,0.1,0h0.1l0,0h0.1l0,0h0.1c0,0,0.1,0,0.2,0h0.1h0.1l0,0
			c0.2,0,0.3-0.1,0.3-0.2c0.1-0.3,0-0.6-0.1-0.8c0-0.1,0-0.2-0.1-0.2c0-0.1-0.1-0.1-0.3-0.1h-0.1h-0.1l0,0c0,0-0.2,0-0.6,0h-0.1
			h-0.5c-0.1,0-0.2,0-0.4,0s-0.3,0-0.2-0.1v-0.7v-0.1c0-0.1,0-0.2,0-0.3l0,0v-0.1l0,0l0,0v-0.1l0,0l0,0c0-0.3,0.1-0.5,0.4-0.6h0.2
			c0,0,0.1,0,0.2,0h0.1h0.2l0,0h0.1c0.1,0,0.2,0,0.2,0c0.1,0,0.3-0.1,0.4-0.2c0-0.2,0.1-0.3,0.1-0.3v-0.1v-0.1c0-0.2,0-0.3-0.1-0.4
			c-0.1-0.1-0.4-0.2-1-0.2h-0.1l0,0h-0.1l0,0l0,0h-0.1l0,0l0,0h-0.1c-0.2,0-0.3,0-0.3-0.1l0,0l0,0v-0.1c0-0.1,0-0.1-0.1-0.2
			c0,0,0-0.1,0-0.2v-0.1V38c0-0.2,0.1-0.3,0.3-0.4l0,0c0.2,0,0.3-0.1,0.3-0.1l0,0h0.2h0.6l0,0v0.1l0,0l0,0l0,0l0,0l0,0
			c0.1,0,0.2,0,0.2,0l0.1-0.1h0.1l0.1-0.1l0,0l0,0c0.1,0,0.2-0.1,0.3-0.2v-0.1c0-0.1,0.1-0.3,0.1-0.4c-0.1-0.1-0.1-0.2-0.1-0.3
			c-0.1,0-0.1-0.1-0.1-0.1l0,0l0,0l0,0c0,0,0-0.1-0.1-0.1c-0.2,0-0.3,0-0.3-0.1l0,0h-0.1h-0.1l0,0l0,0h-0.1l0,0c0,0-0.1,0-0.2,0l0,0
			h-0.1H69c0,0-0.1,0-0.2,0l0,0l0,0l0,0l0,0l0,0c-0.1,0-0.2,0-0.3,0l0,0h-0.1l0,0l0,0h-0.1l0,0h-0.1l0,0c-0.1,0-0.2,0-0.3,0
			C67.7,36.7,67.4,36.7,67.4,36.7z M63.2,36.8L63.2,36.8c0,0,0,0-0.2,0.1h-0.1h-0.1c0,0.1-0.1,0.1-0.1,0.1c-0.1,0.2-0.2,0.3-0.3,0.4
			c-0.1,0.3-0.1,0.6-0.1,1v0.1l0,0v0.1c0,0,0,0.2,0.1,0.5c0,0.1,0.1,0.3,0.1,0.5c0.1,0.2,0.2,0.4,0.5,0.7c0.3,0.2,0.4,0.3,0.4,0.4
			c0.2,0.2,0.3,0.3,0.3,0.3c0.5,0.5,0.8,0.8,0.9,1.1v0.2l0,0c0,0.1-0.1,0.2-0.3,0.5c-0.1,0.1-0.3,0.1-0.5,0.1
			c-0.1,0-0.2-0.1-0.3-0.1s-0.2-0.1-0.2-0.2l-0.1-0.2l-0.1-0.3V42c0-0.1-0.1-0.2-0.1-0.2c0-0.1-0.1-0.1-0.2-0.2h-0.3h-0.2h-0.1
			c-0.1,0.1-0.2,0.2-0.2,0.2c-0.1,0.1-0.1,0.2-0.1,0.2v0.3v0.1l0,0l0,0v0.1l0,0l0,0l0,0l0,0c0,0.2,0.1,0.4,0.2,0.6
			c0.1,0.3,0.3,0.5,0.3,0.5l0.1,0.1c0,0,0.2,0.1,0.4,0.2c0.3,0.1,0.5,0.1,0.8,0.1l0,0l0,0h0.1c0.1,0,0.2,0,0.3,0h0.1
			c0.4-0.2,0.6-0.3,0.6-0.3c0.1-0.1,0.3-0.2,0.4-0.3c0.2-0.2,0.2-0.3,0.2-0.3c0.1-0.2,0.2-0.5,0.3-0.8l0,0c0-0.3,0-0.4-0.1-0.6l0,0
			l-0.1-0.2c0-0.2-0.1-0.4-0.4-0.6c-0.1-0.1-0.2-0.2-0.2-0.2v-0.1c-0.1-0.1-0.1-0.1-0.1-0.1c-0.1-0.2-0.2-0.3-0.2-0.3
			c-0.4-0.4-0.7-0.6-0.9-0.8c-0.3-0.4-0.5-0.7-0.5-1.1c0-0.2,0.1-0.3,0.3-0.5c0.2-0.1,0.4-0.1,0.6,0c0.1,0.1,0.2,0.3,0.1,0.5
			c0,0.3,0.1,0.5,0.1,0.5l0.1,0.1c0.1,0.1,0.2,0.1,0.3,0.1s0.2,0,0.3-0.1c0.2-0.1,0.2-0.2,0.2-0.3v-0.1c0,0,0-0.2,0-0.4
			c0-0.3,0-0.4-0.1-0.5c0-0.2-0.1-0.3-0.3-0.5L64.7,37c-0.1-0.1-0.2-0.2-0.3-0.2c-0.1-0.1-0.4-0.1-0.7-0.2h-0.1h-0.1l0,0l0,0h-0.2
			h-0.1l0,0l0,0h-0.1l0,0H63C63.3,36.8,63.2,36.8,63.2,36.8z M58.8,39.5c0.1-0.3,0.1-0.5,0.1-0.5s0.1,0.1,0.1,0.4l0,0
			c0,0.3,0.1,0.4,0.1,0.5V40l0,0l0,0v0.2v0.1v0.1l0,0l0,0l0,0c-0.1,0-0.2,0-0.5,0.1h-0.1v-0.1c0-0.1,0-0.1,0-0.2l0,0l0,0
			C58.7,39.9,58.7,39.7,58.8,39.5z M58.1,37.2c-0.1,0.2-0.1,0.3-0.2,0.4L57.8,38l0,0l0,0c-0.1,0.2-0.2,0.5-0.3,0.9l0,0l0,0
			c0,0,0,0.2-0.1,0.5s-0.1,0.5-0.1,0.5l0,0l0,0l0,0c0,0.1,0,0.2-0.1,0.2c-0.1,0.4-0.1,0.6-0.2,0.7v0.1c0,0.3-0.1,0.5-0.1,0.6l0,0
			c0,0.1,0,0.2-0.1,0.2l0,0c0,0.3-0.1,0.5-0.1,0.6l0,0v0.1l0,0l0,0c0,0.3-0.1,0.4-0.1,0.5l0,0V43l0,0c0,0.1,0,0.2-0.1,0.5
			c0,0.1,0,0.2,0,0.2c0.1,0.2,0.3,0.3,0.6,0.3c0.4,0,0.6,0,0.6-0.1s0.1-0.1,0.2-0.3c0.1-0.1,0.1-0.4,0.1-0.8l0,0c0-0.1,0-0.2,0-0.2
			l0,0v-0.1l0,0c0-0.1,0.1-0.2,0.1-0.4l0,0l0,0c0-0.1,0.2-0.2,0.6-0.3h0.1c0.2,0,0.3,0,0.3,0c0.1,0,0.1,0.4,0.2,1.1l0,0
			c0,0,0,0.1,0.1,0.2c0,0.4,0.1,0.5,0.2,0.6c0,0.1,0.2,0.1,0.7,0.1c0.2,0,0.4-0.1,0.5-0.4v-0.1c-0.1-0.7-0.2-1.1-0.2-1.3l0,0l0,0
			l-0.1-0.5l0,0v-0.1l0,0v-0.1v-0.1c0-0.1,0-0.2,0-0.2c0-0.3-0.1-0.5-0.2-0.7c-0.1-0.5-0.1-0.9-0.2-1.2l0,0c0-0.1-0.1-0.2-0.1-0.2
			c-0.1-0.4-0.1-0.7-0.2-0.8l0,0l-0.1-0.3l0,0c0-0.2-0.1-0.4-0.2-0.6c-0.1-0.2-0.3-0.4-0.5-0.5c0-0.1-0.2-0.1-0.6-0.1h-0.1l0,0
			C58.3,37,58.1,37.1,58.1,37.2z M52,43.8L52,43.8L52,43.8L52,43.8L52,43.8z M53,43.4L53,43.4L53,43.4L53,43.4L53,43.4z M53.1,43
			L53.1,43L53.1,43L53.1,43L53.1,43L53.1,43z M53.6,40.6L53.6,40.6L53.6,40.6L53.6,40.6L53.6,40.6L53.6,40.6z M53.1,40.5L53.1,40.5
			L53.1,40.5L53.1,40.5L53.1,40.5z M53.3,37.9L53.3,37.9L53.3,37.9L53.3,37.9L53.3,37.9z M53.4,37.3L53.4,37.3L53.4,37.3L53.4,37.3
			L53.4,37.3L53.4,37.3z M52.7,37.2L52.7,37.2L52.7,37.2L52.7,37.2L52.7,37.2L52.7,37.2z M51.7,37l-0.1,0.1c-0.1,0-0.1,0.3-0.1,0.8
			l0,0l0,0c0,0,0,0.3,0,0.8l0,0l0,0c0,0.2,0,0.4,0,0.5l0,0c0,0.2,0,0.4,0,0.6v0.1V40v0.2v0.1l0,0v0.1l0,0c0,0.1,0,0.2,0,0.2l0,0v0.5
			c0,0.1,0,0.2,0,0.2l0,0l0,0v0.1l0,0l0,0l0,0c0,0.1,0,0.2,0,0.4c0,0.4,0,0.6,0.1,0.7l0,0l0,0c0,0.1,0,0.1,0,0.1v0.1l0,0l0,0
			c0,0,0,0.2,0,0.5s0.1,0.5,0.3,0.5s0.3,0,0.3,0h0.1h0.1l0,0l0,0l0,0h0.1h0.1l0,0l0,0l0,0h0.2h0.1l0,0l0,0l0,0l0,0H53l0,0h0.1l0,0
			l0,0h0.1c0.2,0,0.3,0,0.4,0h0.1c0,0,0,0,0.1,0h0.1l0,0H54l0,0h0.1c0,0,0.1,0,0.2,0h0.1h0.1l0,0c0.2,0,0.3-0.1,0.3-0.2
			c0.1-0.3,0-0.6-0.1-0.8c0-0.1,0-0.2-0.1-0.2c0-0.1-0.1-0.1-0.3-0.1h-0.1h-0.1l0,0c0,0-0.2,0-0.6,0h-0.1h-0.5c-0.1,0-0.2,0-0.4,0
			s-0.3,0-0.2-0.1v-0.7v-0.1c0-0.1,0-0.2,0-0.3l0,0v-0.1l0,0l0,0V41l0,0l0,0c0-0.3,0.1-0.5,0.4-0.6h0.2c0,0,0.1,0,0.2,0h0.1h0.2l0,0
			h0.1c0.1,0,0.2,0,0.2,0c0.1,0,0.3-0.1,0.4-0.2c0-0.2,0.1-0.3,0.1-0.3v-0.1v-0.1c0-0.2,0-0.3-0.1-0.4c-0.1-0.1-0.4-0.2-1-0.2H53
			l0,0h-0.1l0,0l0,0h-0.1l0,0l0,0h-0.1c-0.2,0-0.3,0-0.3-0.1l0,0l0,0v-0.1c0-0.1,0-0.1-0.1-0.2c0,0,0-0.1,0-0.2v-0.1v-0.1
			c0-0.2,0.1-0.3,0.3-0.4l0,0c0.2,0,0.3-0.1,0.3-0.1l0,0h0.2h0.6l0,0v0.1l0,0l0,0l0,0l0,0l0,0c0.1,0,0.2,0,0.2,0l0.1-0.1h0.1
			l0.1-0.1l0,0l0,0c0.1,0,0.2-0.1,0.3-0.2v-0.1c0-0.1,0.1-0.3,0.1-0.4c-0.1-0.1-0.1-0.2-0.1-0.3c-0.1,0-0.1-0.1-0.1-0.1l0,0l0,0l0,0
			c0,0,0-0.1-0.1-0.1c-0.2,0-0.3,0-0.3-0.1l0,0h-0.1h-0.1l0,0l0,0h-0.1l0,0c0,0-0.1,0-0.2,0l0,0h-0.1h-0.1c0,0-0.1,0-0.2,0l0,0l0,0
			l0,0l0,0l0,0c-0.1,0-0.2,0-0.3,0l0,0h-0.1l0,0l0,0h-0.1l0,0h-0.1l0,0c-0.1,0-0.2,0-0.3,0C52,37,51.8,37,51.7,37z M47.7,43.5
			L47.7,43.5L47.7,43.5L47.7,43.5L47.7,43.5z M47.4,43.3L47.4,43.3L47.4,43.3L47.4,43.3L47.4,43.3z M47.9,42.7L47.9,42.7L47.9,42.7
			L47.9,42.7L47.9,42.7z M46.6,42.3L46.6,42.3L46.6,42.3L46.6,42.3L46.6,42.3z M46.7,37.4l-0.1,0.1c0,0,0,0.1-0.1,0.2l0,0v0.2V38
			l0,0l0,0l-0.1,0.1v0.1v0.1l0,0l0,0l0,0c0,0,0,0.1,0,0.2v0.1v0.1v0.1v0.1l0,0l0,0l0,0V39v0.1c0,0.1,0,0.2,0,0.2l0,0l0,0v0.1
			c0,0,0,0,0,0.1l0,0l0,0v0.1c0,0,0,0.1,0,0.2l0,0v0.1l0,0l0,0V40l0,0l0,0c0,0,0,0,0,0.1v0.1l0,0c0,0.2,0,0.3,0.1,0.4l0,0l0,0l0,0
			l0,0l0,0v0.1l0,0c0,0,0,0.1,0,0.2l0,0V41l0,0l0,0l0,0v0.1c0,0,0,0,0,0.1l0,0l0,0l0,0l0,0l0,0v0.1v0.1v0.1l0,0v0.1l0,0l0,0v0.1l0,0
			v0.1l0,0l0,0l0,0l0,0v0.1c0,0.1,0,0.2,0,0.3l0,0l0,0v0.1v0.1l0,0c0,0,0,0.1,0,0.2l0,0l0,0l0,0v0.1l0,0l0,0v0.2V43l0,0v0.1l0,0l0,0
			c0,0.3,0,0.4,0.1,0.5c0,0.1,0.4,0.1,1.1,0l0,0l0,0h0.1c0,0,0.3,0,0.8,0l0,0c0.2,0,0.5,0,0.9,0l0,0c0.1,0,0.3-0.1,0.4-0.2
			c0.1-0.1,0.2-0.3,0.2-0.5s-0.1-0.3-0.2-0.5c0-0.1-0.2-0.1-0.7-0.2l0,0h-0.1l0,0c-0.2,0-0.4,0-0.6,0h-0.2h-0.2
			c-0.1,0-0.1-0.1-0.2-0.1l0,0V42c0-0.5-0.1-0.8-0.1-0.8l0,0l0,0l0,0v-0.1l0,0V41v-0.2v-0.2v-0.1v-0.1l0,0l0,0v-0.1l0,0l0,0
			c0-0.1,0-0.2,0-0.3l0,0c0-0.1,0-0.2,0-0.2v-0.1v-0.2v-0.1v-0.1v-0.1c0-0.1,0-0.2,0-0.3l0,0l0,0l0,0c0-0.2,0-0.3,0-0.4v-0.1l0,0
			l0,0v-0.1l0,0v-0.1l0,0l0,0v-0.1V38l0,0c0,0,0-0.1,0-0.2l0,0v-0.1v-0.1l0,0v-0.1c0,0,0-0.1,0-0.2c0-0.2,0-0.2,0-0.2
			c0-0.3-0.2-0.5-0.4-0.5h-0.1h-0.1h-0.1C46.9,37.1,46.7,37.2,46.7,37.4z M41.9,44L41.9,44L41.9,44L41.9,44L41.9,44z M42.9,43.6
			L42.9,43.6L42.9,43.6L42.9,43.6L42.9,43.6z M43,43.2L43,43.2L43,43.2L43,43.2L43,43.2L43,43.2z M43.5,40.8L43.5,40.8L43.5,40.8
			L43.5,40.8L43.5,40.8L43.5,40.8z M43,40.7L43,40.7L43,40.7L43,40.7L43,40.7z M43.2,38.1L43.2,38.1L43.2,38.1L43.2,38.1L43.2,38.1z
			 M43.3,37.5L43.3,37.5L43.3,37.5L43.3,37.5L43.3,37.5L43.3,37.5z M42.6,37.4L42.6,37.4L42.6,37.4L42.6,37.4L42.6,37.4L42.6,37.4z
			 M41.6,37.2l-0.1,0.1c-0.1,0-0.1,0.3-0.1,0.8l0,0l0,0c0,0,0,0.3,0,0.8l0,0l0,0c0,0.2,0,0.4,0,0.5l0,0c0,0.2,0,0.4,0,0.6v0.1v0.1
			v0.2v0.1l0,0v0.1l0,0c0,0.1,0,0.2,0,0.2l0,0v0.5c0,0.1,0,0.2,0,0.2l0,0l0,0v0.1l0,0l0,0l0,0c0,0.1,0,0.2,0,0.4
			c0,0.4,0,0.6,0.1,0.7l0,0l0,0c0,0.1,0,0.1,0,0.1v0.1l0,0l0,0c0,0,0,0.2,0,0.5s0.1,0.5,0.3,0.5s0.3,0,0.3,0h0.1h0.1l0,0l0,0l0,0
			h0.1h0.1l0,0l0,0l0,0h0.2h0.1l0,0l0,0l0,0l0,0h0.1l0,0H43l0,0l0,0h0.1c0.2,0,0.3,0,0.4,0h0.1c0,0,0,0,0.1,0h0.1l0,0h0.1l0,0H44
			c0,0,0.1,0,0.2,0h0.1h0.1l0,0c0.2,0,0.3-0.1,0.3-0.2c0.1-0.3,0-0.6-0.1-0.8c0-0.1,0-0.2-0.1-0.2c0-0.1-0.1-0.1-0.3-0.1h-0.1H44
			l0,0c0,0-0.2,0-0.6,0h-0.1h-0.5c-0.1,0-0.2,0-0.4,0s-0.3,0-0.2-0.1v-0.7v-0.1c0-0.1,0-0.2,0-0.3l0,0v-0.1l0,0l0,0v-0.1l0,0l0,0
			c0-0.3,0.1-0.5,0.4-0.6h0.2c0,0,0.1,0,0.2,0h0.1h0.2l0,0h0.1c0.1,0,0.2,0,0.2,0c0.1,0,0.3-0.1,0.4-0.2c0-0.2,0.1-0.3,0.1-0.3V40
			v-0.1c0-0.2,0-0.3-0.1-0.4c-0.1-0.1-0.4-0.2-1-0.2h-0.1l0,0h-0.1l0,0l0,0h-0.1l0,0l0,0h-0.1c-0.2,0-0.3,0-0.3-0.1l0,0l0,0v-0.1
			c0-0.1,0-0.1-0.1-0.2c0,0,0-0.1,0-0.2v-0.1v-0.1c0-0.2,0.1-0.3,0.3-0.4l0,0c0.2,0,0.3-0.1,0.3-0.1l0,0H43h0.6l0,0v0.1l0,0l0,0l0,0
			l0,0l0,0c0.1,0,0.2,0,0.2,0l0.1-0.1H44l0.1-0.1l0,0l0,0c0.1,0,0.2-0.1,0.3-0.2v-0.1c0-0.1,0.1-0.3,0.1-0.4
			c-0.1-0.1-0.1-0.2-0.1-0.3c-0.1,0-0.1-0.1-0.1-0.1l0,0l0,0l0,0c0,0,0-0.1-0.1-0.1c-0.2,0-0.3,0-0.3-0.1l0,0h-0.1h-0.1l0,0l0,0
			h-0.1l0,0c0,0-0.1,0-0.2,0l0,0h-0.1h-0.1c0,0-0.1,0-0.2,0l0,0l0,0l0,0l0,0l0,0c-0.1,0-0.2,0-0.3,0l0,0h-0.1l0,0l0,0h-0.1l0,0h-0.1
			l0,0c-0.1,0-0.2,0-0.3,0C42,37.2,41.7,37.2,41.6,37.2z M37.9,38.7L37.9,38.7H38l0,0l0,0h0.1h0.1c0.2,0,0.4,0.1,0.5,0.2
			c0,0.1,0,0.2,0.1,0.2v0.1v0.2l0,0v0.1l-0.1,0.1l0,0l0,0v0.1l0,0c-0.2,0.3-0.2,0.4-0.3,0.4c0,0.1-0.2,0.2-0.7,0.2
			c-0.1,0-0.2-0.2-0.2-0.6l0,0v-0.2l0,0c0-0.2,0-0.3,0-0.5l0,0c0,0-0.1-0.2-0.1-0.3l0,0l0,0C37.7,38.7,37.8,38.7,37.9,38.7z
			 M37.7,41.5L37.7,41.5L37.7,41.5L37.7,41.5l0.1,0.1v0.1l0.1,0.2l0,0l0.1,0.2l0,0l0,0l0.1,0.1l0,0l0,0v0.1v0.1l0.1,0.2l0,0
			c0,0,0.1,0.3,0.3,0.7l0,0l0,0v0.1l0,0l0,0c0.1,0.3,0.3,0.5,0.4,0.8l0.2,0.2c0,0,0.1,0.1,0.3,0.1s0.4,0,0.6,0l0,0
			c0.1,0,0.2,0,0.2-0.2s-0.1-0.4-0.3-0.6l-0.1-0.2c0-0.1-0.1-0.1-0.1-0.3l0,0l0,0l0,0l0,0c-0.1-0.1-0.1-0.2-0.2-0.4l0,0
			c0,0,0-0.1-0.1-0.3l-0.1-0.1c0,0,0-0.1-0.1-0.4l0,0v-0.1l0,0l-0.1-0.1l0,0l0,0v-0.1v-0.1l0,0v-0.1l0,0L39,41.4
			c0.2,0,0.3-0.1,0.4-0.2h0.1c0.1-0.1,0.2-0.2,0.4-0.4l0,0c0.2-0.2,0.3-0.5,0.4-0.7l0,0v-0.2v-0.2l-0.1-0.3l0,0v-0.1
			c0-0.3-0.1-0.5-0.2-0.7c-0.1-0.2-0.2-0.3-0.2-0.4c-0.1-0.2-0.3-0.4-0.7-0.6c-0.4-0.1-0.6-0.1-0.7-0.2h-0.3l0,0
			c-0.1,0-0.2-0.1-0.6-0.1h-0.1c-0.1,0-0.2,0-0.3,0s-0.3,0.1-0.6,0.2l-0.2,0.3l0,0l0,0l0,0l0,0c0,0,0,0.1-0.1,0.2c0,0,0,0,0,0.1v0.2
			l0,0l0,0l0.1,0.2l-0.1,0.1c0,0.1,0.1,0.1,0.1,0.3l0,0L36.2,39c0,0,0,0.1,0,0.2h-0.1l0,0v0.1l0,0v0.1l0,0l0,0v0.1v0.1v0.1v0.1v0.1
			l0,0V40l0.1,0.2l0,0v0.1v0.1c0,0.2,0.1,0.3,0.1,0.3l0,0v0.1v0.1V41l0.1,1l0,0v0.1v0.1l0,0l0,0c0,0,0,0.1,0,0.2l0,0
			c0,0,0,0.1,0.1,0.4l0,0v0.1l0,0v0.2v0.1v0.1l0,0l0,0l0,0l0,0l0,0v0.1v0.1l0,0l0,0l0,0l0,0l0,0l0,0c0,0.3,0,0.5,0,0.7
			c0,0.1,0.2,0.1,0.6,0.1c0.3,0,0.6,0,0.6-0.1s0.1-0.3,0-0.6l0,0v-0.4c0-0.1,0-0.3,0-0.5l0,0v-0.1v-0.2c0-0.1,0-0.2,0-0.4v-0.1v-0.1
			v-0.1L37.7,41.5L37.7,41.5L37.7,41.5L37.7,41.5L37.7,41.5v-0.2l0,0v-0.1V41.5L37.7,41.5L37.7,41.5z M37.3,44.2L37.3,44.2
			L37.3,44.2l-0.1,0.1l0,0L37.3,44.2L37.3,44.2z M37.2,44.2L37.2,44.2L37.2,44.2L37.2,44.2L37.2,44.2z M37.3,42.9L37.3,42.9
			L37.3,42.9L37.3,42.9L37.3,42.9z"/>
	</g>
</g>
<g>
	<path class="st3" d="M61.9,14.8c0,0,0-6.1-3.9-10.1c-0.5-0.5-1.2-0.5-1.7,0l0,0c-3.9,4-3.9,10.1-3.9,10.1v4.7
		c0,0.7,0.5,1.2,1.2,1.2h7.2c0.7,0,1.2-0.5,1.2-1.2l0,0v-4.7H61.9z"/>
	<path class="st4" d="M52.3,14.1c-1.7,0.6-3,1.9-3.6,3.6v1.8h1.7"/>
	<path class="st4" d="M61.9,14.1c1.7,0.6,3,1.9,3.6,3.6v1.8h-1.7"/>
	<path class="st4" d="M55.7,22.5c0,0,0.4,4.6-6,4.6"/>
	<path class="st4" d="M58.5,22.5c0,0-0.4,4.6,6,4.6"/>
	<path class="st4" d="M55.3,11.8c0-0.5,0.8-0.9,1.8-0.9s1.8,0.4,1.8,0.9"/>
</g>
</svg>
