<?xml version="1.0" encoding="utf-8"?>
<!-- Generator: Adobe Illustrator 25.4.1, SVG Export Plug-In . SVG Version: 6.00 Build 0)  -->
<svg version="1.1" id="Layer_1" xmlns="http://www.w3.org/2000/svg" xmlns:xlink="http://www.w3.org/1999/xlink" x="0px" y="0px"
	 viewBox="0 0 100 100" style="enable-background:new 0 0 100 100;" xml:space="preserve">
<style type="text/css">
	.st0{fill:none;}
	.st1{fill-rule:evenodd;clip-rule:evenodd;fill:#FF0000;}
</style>
<g id="_x32_0">
	<rect y="0" class="st0" width="100" height="100"/>
	<path class="st1" d="M50,2c26.5,0,48,21.5,48,48S76.5,98,50,98S2,76.5,2,50S23.5,2,50,2L50,2z M88.2,62.4L52.9,36.8
		c-0.7-0.5-0.8-1.4-0.3-2.1c0.5-0.7,1.4-0.8,2.1-0.3l38.6,28C94.4,58.5,95,54.3,95,50c0-14.4-6.8-27.2-17.3-35.5l-8.1,24.6
		c-0.3,0.8-1.1,1.2-1.9,1c-0.8-0.3-1.2-1.1-1-1.9l6.8-20.7l-34,24.7c-0.7,0.5-1.6,0.3-2.1-0.3s-0.3-1.6,0.3-2.1l37.3-27.2
		C68,7.8,59.3,5,50,5s-18,2.8-25.2,7.7L45.8,28c0.7,0.5,0.8,1.4,0.3,2.1c-0.5,0.7-1.4,0.8-2.1,0.3L26.4,17.5l13,39.9
		c0.3,0.8-0.2,1.6-1,1.9c-0.8,0.3-1.6-0.2-1.9-1L22.3,14.5C11.8,22.8,5,35.6,5,50c0,4.3,0.6,8.5,1.7,12.4l21-15.2
		c0.7-0.5,1.6-0.3,2.1,0.3c0.5,0.7,0.3,1.6-0.3,2.1L11.8,62.4l42-0.1c0.8,0,1.5,0.7,1.5,1.5c0,0.8-0.7,1.5-1.5,1.5L7.7,65.4
		c6.1,16.8,22,28.9,40.7,29.6l-8-24.7c-0.3-0.8,0.2-1.6,1-1.9c0.8-0.3,1.6,0.2,1.9,1L50,90.1l12.9-40c0.3-0.8,1.1-1.2,1.9-1
		c0.8,0.3,1.2,1.1,1,1.9L51.6,95c18.8-0.7,34.6-12.8,40.7-29.6l-25.9-0.1c-0.8,0-1.5-0.7-1.5-1.5c0-0.8,0.7-1.5,1.5-1.5L88.2,62.4z"
		/>
</g>
<g id="Layer_1_00000103256279089522277400000002867296990083049613_">
</g>
</svg>
