<?xml version="1.0" encoding="utf-8"?>
<!-- Generator: Adobe Illustrator 25.2.1, SVG Export Plug-In . SVG Version: 6.00 Build 0)  -->
<svg version="1.1" id="Layer_1" xmlns="http://www.w3.org/2000/svg" xmlns:xlink="http://www.w3.org/1999/xlink" x="0px" y="0px"
	 viewBox="0 0 280.1 64.6" style="enable-background:new 0 0 280.1 64.6;" xml:space="preserve">
<style type="text/css">
	.st0{fill:#FFFFFF;}
	.st1{fill:#ED1F24;}
	.st2{fill:#070404;}
	.st3{fill:#9F6F49;}
</style>
<g id="play-button-hover_2_">
	<g id="casee_60_" transform="matrix( 1, 0, 0, 1, 0,0) ">
		<g>
			<g transform="matrix( 1, 0, 0, 1, 0,0) ">
				<g>
					<g id="CaseMc_1_0_Layer0_0_FILL_6_">
						<path class="st0" d="M34.9,60.8L34.9,60.8c0.8,0,1.2,0.1,1.2,0.3c0.4,0,0.6-0.1,0.4-0.2c-0.1-0.1,0.1-0.1,0.7-0.1l0.2,0
							c-0.1,0-0.3,0-0.4-0.1c-0.1-0.1-0.2-0.1-0.3-0.1c-0.3,0-0.6,0-0.9,0.1l-0.2,0.1C35.2,60.7,35,60.7,34.9,60.8 M33.5,61l0.2,0
							c-1.2-0.1-1.8,0-1.8,0.2C32.7,61.2,33.2,61.1,33.5,61 M30.6,57.6c0.1,0.1,0.2,0.3,0.2,0.5c0.5-0.1,0.8-0.1,0.9-0.2
							c-0.7-0.1-0.9-0.2-0.6-0.3c0,0,0.1-0.1,0.2-0.1c0.4-0.1,0.4-0.2,0.1-0.2c-0.7,0-1,0.1-0.9,0.2C30.4,57.5,30.5,57.5,30.6,57.6
							 M32.8,55.2c0.3,0,0.5-0.1,0.6-0.1c0.1-0.1,0-0.1-0.1-0.1C32.8,54.8,32.6,54.9,32.8,55.2 M34,51.7l-0.2,0
							c0.8-0.2,0.6-0.2-0.6-0.2l-0.1,0.1c0.3,0.1,0.2,0.2-0.2,0.3c-0.7,0-0.8,0.1-0.4,0.3c0.5,0,0.9,0,1.2-0.1
							C34.2,51.8,34.4,51.7,34,51.7 M36.9,55.3c0.1,0,0.3,0,0.4,0c1.6-0.1,1.9-0.1,0.8-0.1c-0.5-0.1-0.8-0.1-1.2-0.2l-0.2,0
							c-1.4,0-2,0.2-1.9,0.5C35.6,55.4,36.3,55.4,36.9,55.3 M36.2,54.2C36.2,54.1,36.2,54.1,36.2,54.2c-1.6-0.1-2.1,0.1-1.5,0.3
							C35.6,54.5,36.1,54.4,36.2,54.2 M37.2,52.9c0.1,0,0.3,0,0.4,0l0.4,0c-0.1-0.1-0.6-0.1-1.4-0.2l-0.4,0
							C36.5,52.8,36.8,52.8,37.2,52.9 M35.8,51.1c0.3,0,0.5,0,0.8-0.1l0.2,0c0.3-0.2,0.2-0.3-0.2-0.3c-0.2,0-0.3-0.1-0.4-0.1
							c-0.4-0.1-0.8-0.1-1.4-0.1c-0.1,0-0.3,0-0.4,0c-0.7,0-1.1,0.1-1,0.2c0.1,0.2,0.5,0.4,1.2,0.5C35,51.2,35.5,51.1,35.8,51.1
							 M38.7,52.4c0.6,0,0.7,0,0.5,0c-0.2-0.1-0.8-0.1-1.8-0.1c-1.2,0-2.3,0-3.3,0c-0.7-0.1-1.3-0.1-1.6,0.1
							c0.1-0.2-0.1-0.2-0.5-0.2c-0.4,0-0.6,0-0.6-0.1l0,0c0.1,0.1-0.3,0.2-1,0.2c-0.4,0.1-0.1,0.2,0.8,0.3c0.3,0,0.5,0,0.6,0.1
							c0.4,0.1,0.8,0.3,1.1,0.4c0.2,0,0.2,0.1,0.2,0.1c0,0.2,0.3,0.3,0.7,0.2c0.9-0.1,1.5,0,1.7,0.1c0.1,0,0.2-0.1,0.3-0.1
							c0.5-0.1,0.5-0.2,0-0.3C35.3,53,34.6,53,33.9,53c0-0.2,0.3-0.3,0.7-0.3l0.2-0.1c-0.1,0-0.3,0-0.5,0c-0.6-0.1-0.6-0.1-0.2-0.1
							C35.5,52.5,37,52.5,38.7,52.4 M38.7,50.9c0.1,0,0.2,0,0.3,0c0.2,0,0.4,0,0.5,0c1.2,0,1.5-0.1,0.7-0.2l-0.2,0
							C39.5,50.7,39.1,50.8,38.7,50.9 M23,62.9c0.2,0,0.3,0,0.4,0c1.5-0.2,2.5-0.6,3-1l0,0C25.2,62.2,24,62.5,23,62.9 M23.7,53.9
							c-0.1-0.2,0.2-0.3,0.9-0.4c1-0.2,1.8-0.4,2.3-0.6c-1.7,0.2-3.4,0.5-5,0.8c-0.2,0-0.3,0-0.4,0c-0.3,0-0.5,0-0.7,0l0,0.3
							c0.1,0.1,0.2,0,0.3,0c0,0,0,0,0.1-0.1c0.8-0.1,1.4,0,1.7,0.2C23,54.1,23.4,54,23.7,53.9L23.7,53.9 M27.1,51.9
							c0.1,0,0.1-0.1,0.2-0.2c-0.1-0.1,0.1-0.1,0.5-0.1l0.4,0c0-0.1-0.1-0.1-0.4-0.2l-0.2,0C26.7,51.6,26.6,51.7,27.1,51.9
							 M28.4,52.6l0.1-0.1c-1.5,0.1-1.9,0.2-1.1,0.4C27.8,52.9,28.2,52.8,28.4,52.6 M28.5,52.3c0.1,0,0.2,0,0.3,0l0.2-0.1
							c-0.3-0.1-0.5-0.3-0.8-0.3l-0.1-0.1C27.6,52,27.7,52.2,28.5,52.3 M23.3,49.8c1.2,0,1.5-0.1,0.9-0.3L24,49.5
							c-0.4,0-0.8,0.1-1.2,0.1C22.4,49.6,22.6,49.7,23.3,49.8 M23.1,48.9c0.3,0,0.5,0,0.8,0l0.1,0c-0.5-0.2-1-0.2-1.4,0.1
							C22.8,49,23,48.9,23.1,48.9 M20.5,50.2c0.8,0,1,0,0.7-0.1c-0.3-0.2-0.1-0.3,0.6-0.4l0.1-0.1c0.3-0.1,0.2-0.2-0.2-0.2
							c-0.2,0-0.3,0-0.3,0c-0.2,0-0.3,0.1-0.3,0.1C21,49.9,20.9,50.1,20.5,50.2 M21.5,48l-0.3,0c0.1,0.1,0.4,0.2,0.9,0.3
							c0.1,0,0.2,0,0.2,0c0.6-0.1,1.2,0,1.8,0.1c0.9-0.1,0.7-0.1-0.5-0.2C23,48.1,22.3,48,21.5,48 M21.9,46c0.3,0,0.4,0,0.5-0.1
							c0.4-0.3,0.2-0.4-0.5-0.3C21.1,45.8,21.1,45.9,21.9,46 M24.3,45.6c0.4-0.1,0.8-0.1,1.1-0.2l0.2-0.1
							C24.7,45.2,24.3,45.3,24.3,45.6 M25.4,45.5l-0.1,0c0.3,0.1,0.6,0.2,1.1,0.2c0.8,0,1.4-0.1,1.6-0.2c0.1,0,0.1,0,0.1-0.1
							c-0.3-0.1-0.6-0.1-1,0C26.9,45.5,26.4,45.5,25.4,45.5 M24.6,46.3c0,0-0.1-0.1-0.2-0.1c-0.8,0.1-1.3,0.1-1.5,0
							c-0.1-0.1-0.1-0.1,0-0.1c0.2,0,0.3-0.1,0.4-0.1c0.5-0.2,0.4-0.2-0.2-0.1c-0.2,0-0.4,0.1-0.5,0.1c-0.3,0.1-0.4,0.2-0.3,0.3
							c0.1,0.1,0.5,0.2,1,0.3c0.2,0,0.3,0,0.4,0C24.6,46.5,24.9,46.5,24.6,46.3 M29.4,42.4c0.6,0.1,0.8,0,0.8-0.2
							c0-0.1,0-0.1-0.1-0.1C28.8,42,28.6,42.1,29.4,42.4 M26.4,44.1c0.3,0,0.5,0,0.6-0.1l0-0.1c-0.1-0.6-0.6-0.7-1.5-0.3l-0.2,0.1
							C26.1,43.6,26.4,43.7,26.4,44.1 M36.8,48L36.8,48c-0.3-0.1-0.9-0.1-1.7,0.1c-0.5,0.1-0.3,0.1,0.3,0.2
							C36.4,48.2,36.9,48.2,36.8,48 M33.3,49.8c-0.1-0.1-0.2-0.1-0.3-0.1c-0.9,0-1.2,0.1-0.7,0.3C33.3,50,33.6,50,33.3,49.8
							 M30.7,48.6l0.1-0.1c-0.4-0.1-0.7-0.2-1.1-0.3c0.1,0.2-0.4,0.2-1.6,0.2c-1,0-1.7,0-2.2-0.1l-0.2,0c0.4,0.1,1.1,0.3,2.1,0.3
							c0.2,0,0.3,0,0.3,0.1l0,0c-0.8-0.1-1.2,0-1.3,0.3c0.9-0.1,1.7-0.1,2.4-0.2l0.2,0c0-0.1,0.5-0.1,1.4,0
							C30.4,48.8,30.4,48.7,30.7,48.6 M32.8,48.6l-0.4,0c0.4,0.1,0.7,0.2,1,0.4l0.1,0c-0.3,0.1,0.2,0.2,1.5,0.1c1.1,0,2,0,2.5,0.2
							c0.2,0,0.3,0,0.4,0c0.1,0,0.3,0,0.4,0c0.5-0.1,0.6-0.1,0.5-0.2C38.7,49,38.2,49,37.3,49c-0.3,0-0.5,0-0.8,0
							c-0.8,0.1-1.2,0-1.1-0.3c0,0,0,0,0.1-0.1c0.2-0.1-0.3-0.2-1.5-0.2l-0.4,0C33.5,48.6,33.2,48.6,32.8,48.6 M17.6,49.8l-0.1,0
							c0.3,0,0.6,0.1,1,0.1c0.3,0,0.5,0,0.6-0.1C18.6,49.8,18.1,49.8,17.6,49.8 M16.6,46c0.1,0,0.3,0,0.4,0c0.3,0,0.4,0,0.5-0.1
							c0.4-0.2,0.3-0.2-0.2-0.2c-0.2,0-0.4,0-0.5-0.1C17,45.8,16.9,45.9,16.6,46 M19.8,47.7c-0.8,0.1-0.8,0.2,0.1,0.4
							c0.7,0,0.9-0.1,0.9-0.2c-0.1-0.1-0.2-0.1-0.3-0.1c-0.2,0-0.3,0-0.5-0.1L19.8,47.7 M14.5,50.3L14.5,50.3l0.1,0.2
							c0.4-0.1,0.7-0.1,1-0.1c0,0,0.1,0,0.1,0C16.2,50.3,15.8,50.2,14.5,50.3 M12.8,46.7l-0.4,0.1c0.1,0,0.4,0,0.8,0.1
							C14.8,46.7,14.7,46.7,12.8,46.7 M14.3,46.9c-0.3,0.2-0.1,0.2,0.6,0.3c0.2,0,0.3-0.1,0.4-0.1c0.1,0,0.2,0,0.4,0
							c1-0.1,1-0.1,0-0.1l-0.2,0C14.8,46.8,14.4,46.8,14.3,46.9 M13.5,48.1c0.2,0,0.6-0.1,1-0.2c0.4-0.1,1-0.1,1.7-0.1
							c1,0.1,1.5,0,1.6-0.2c-1.7,0.1-2.8,0.1-3.1-0.1l-0.6,0c-0.1-0.2-0.4-0.3-0.7-0.3c-0.1,0-0.2,0-0.3-0.1c-1,0-1.3,0-0.6,0
							c0,0,0,0,0,0c0.1,0,0.1,0.1,0.2,0.1c0.1,0.1,0.1,0.1,0,0.1c-0.8,0.1-1.2,0-1.3-0.1l-0.2,0c-0.6,0.1-0.6,0.2,0,0.3
							c0.4,0.1,0.8,0.2,1.3,0.3l0.2,0C13.2,47.8,13.5,47.9,13.5,48.1 M20.2,44.3C20.2,44.3,20.3,44.3,20.2,44.3
							c0.2,0.1,0.4,0.3,0.6,0.4c0.2,0,0.2-0.1,0.3-0.2c0-0.1,0.1-0.2,0.1-0.2c0.1,0,0.1,0,0.2,0c0.3,0,0.6,0,0.8-0.1
							c0.5,0,0.9,0.1,1.2,0.2c-0.1,0-0.1,0-0.1,0.1c-0.2-0.1-0.5-0.1-0.8-0.1l-0.2-0.1c0.2,0.3,0.3,0.7,0.3,1.2c0.2,0,0.2,0,0.2-0.1
							c0.1-0.1,0.2-0.2,0.4-0.3c0.1-0.1,0.1-0.1,0.2-0.2c0,0,0.1,0,0.1,0c0.3,0,0.5-0.1,0.6-0.1c0,0,0.1,0,0.1,0
							c0.5,0,0.7,0,0.6-0.1l0,0c0.4-0.1,0.3-0.2-0.2-0.2l-0.2,0c0,0-0.1,0.1-0.1,0.1c0-0.1-0.1-0.1-0.2-0.2l0,0
							c0.2-0.2,0-0.3-0.5-0.4c-0.5,0-0.9-0.1-1.4-0.1c-0.6-0.2-0.9-0.1-1.1,0.1c-0.1-0.1-0.3-0.1-0.6-0.1c-0.1,0-0.1,0-0.2,0.1
							c0,0,0,0.1,0,0.1C19.8,44.2,19.8,44.3,20.2,44.3 M16.7,44.8c0,0.1,0.1,0.2,0.2,0.2l0.2,0c1.5-0.1,1.9,0,1.2,0.1
							c-0.5-0.1-0.7-0.1-0.7,0c0,0.3-0.2,0.3-0.6,0.2c-0.2,0-0.3,0-0.3-0.1c-0.4-0.2-0.7-0.1-1,0.2c-0.1,0-0.1,0.1,0,0
							c0.5,0,1,0,1.5,0c0.1,0,0.2,0,0.3,0c0.5-0.1,0.8,0,1,0.2c1.4-0.1,1.5-0.2,0.4-0.4c-0.6-0.1-0.7-0.2-0.1-0.2
							c0.2,0,0.3-0.1,0.4,0c0.1,0.1,0.3,0.2,0.7,0.2c1.1,0.1,1.1,0.1,0.2,0.2c0.4,0.1,0.8,0,1.1-0.1c0.1,0,0.2-0.1,0.3-0.1
							c0.1-0.1,0.1-0.1,0.2-0.1c0.2-0.1,0.1-0.2-0.5-0.2c-0.3,0-0.6,0-0.8,0c-0.4,0-0.3-0.1,0.3-0.2c-0.1-0.2-0.4-0.3-0.8-0.3
							l-0.2,0c-0.1,0-0.3,0.1-0.4,0.1C18.3,44.8,17.5,44.8,16.7,44.8 M18.6,40.1c0,0.1,0,0.2,0,0.2c0.3,0,0.5-0.1,0.8-0.1l0.1-0.1
							c-0.1-0.1-0.2-0.2-0.3-0.3C19,40,18.8,40.1,18.6,40.1 M32.2,36.2c0.3,0,0.5,0,0.5-0.1c0.2-0.4,0.4-0.5,0.8-0.2l0.2,0.1
							c0.1-0.1,0.2-0.2,0.4-0.3l0.2-0.1C33.4,35.2,32.8,35.3,32.2,36.2 M34.3,33.9c0.3,0.1,0.6,0.3,1.1,0.4c0.5-0.1,0.6-0.3,0.5-0.6
							c0-0.1,0-0.1,0.1-0.1c0.6,0.2,0.8,0,0.7-0.5c0,0,0,0,0,0c-0.8,0.2-1.5,0.5-2.1,0.7C34.3,33.8,34.3,33.9,34.3,33.9 M35.7,31.9
							c-0.4-0.1-0.9-0.1-1.4-0.1l0.4,0.4c0.2-0.1,0.5-0.1,0.8-0.2L35.7,31.9 M39,27.7c1.1,0,1.4-0.1,1-0.3c-0.1,0-0.2,0-0.3-0.1
							C38.4,27.2,38.2,27.3,39,27.7 M29.4,36.2c0.9-0.2,1.1-0.5,0.9-0.7c-0.1-0.1-0.1-0.1-0.1-0.1c1.3-0.2,1.8-0.5,1.4-0.9
							c-0.7,0.4-1.4,0.8-2.1,1.1C29.6,35.8,29.5,36,29.4,36.2 M29.3,25.7c-0.5,0.1-0.9,0.4-1.1,0.7l0.2,0.1c0.9,0,1.2-0.2,1-0.6
							L29.3,25.7 M38.4,26c0.5,0,1-0.1,1.6-0.1l0.4,0c-0.2-0.3-0.1-0.6,0.3-0.8c-0.3-0.1-0.6-0.2-1.2-0.3c-0.3,0-0.4,0-0.5,0.1
							s-0.1,0.2,0,0.3l0.1,0.1C38.4,25.3,38.1,25.5,38.4,26 M34,24.8c-0.9-0.3-1.2-0.1-1,0.7C33.6,25.4,33.9,25.2,34,24.8L34,24.8
							 M32.6,16.5c0.5-0.4,0.2-0.5-0.7-0.2c-0.2,0.1-0.4,0.2-0.6,0.2c-1,0.2-1.7,0.4-2.2,0.7l-0.2,0.1c-0.3-0.2-0.9-0.2-1.9-0.1
							c-1.1,0.1-1.7,0.3-2,0.6c0.4-0.1,1.1-0.1,2-0.1l0.2,0c0.4-0.1,1-0.1,1.8-0.1c0.3,0,0.5-0.1,0.7-0.1c0.3-0.1,0.8-0.1,1.3-0.1
							c1.1,0,1.8-0.1,2.1-0.3l0.1-0.1C33,16.8,32.8,16.7,32.6,16.5 M17.3,12.5c-1.4,0.2-1.6,0.3-0.7,0.5c1.5,0,2.6-0.2,3.2-0.4
							c0.1,0,0.2,0,0.4,0c1.2-0.3,0.9-0.4-0.9-0.3C18.7,12.4,18,12.4,17.3,12.5 M1.5,7.6c-0.2,0-0.2,0-0.2,0.1c0.3,0,0.7,0.1,1,0.2
							c0.3,0,0.4,0,0.4,0C3,7.5,2.6,7.5,1.5,7.6 M0.4,3.8c0.5-0.1,0.5-0.3,0.2-0.5c0,0-0.1,0-0.1,0C-0.1,3.4-0.2,3.6,0.4,3.8
							 M85.9,61c1.7,0,2.9-0.1,3.5-0.3l0.4,0C87.8,60.7,86.5,60.8,85.9,61 M102.2,60.8c2.5-0.1,3.7-0.3,3.9-0.6l0,0
							C103.1,60.3,101.8,60.5,102.2,60.8 M46.4,64.6c1.1-0.1,1.9-0.3,2.2-0.5c0.1-0.1,0.1-0.2,0.2-0.2c1-0.1,1-0.3,0.2-0.4l0,0
							C47.9,63.9,47.1,64.2,46.4,64.6 M74.8,61.8c0.7,0,1.1,0,1.1,0c0.7-0.2-0.3-0.3-3-0.1l-0.5,0C73,61.7,73.8,61.8,74.8,61.8
							 M71.7,56.7c-0.9,0.2-0.3,0.3,1.9,0.4c1.1,0,1.9-0.1,2.3-0.2c0.1,0,0.1-0.1,0.1-0.1c-0.3,0-0.7-0.1-1.1-0.1
							C73.3,56.6,72.3,56.6,71.7,56.7 M72.7,57.7c-3.4,0.1-3.7,0.1-0.9,0.1c3.5-0.1,5.6,0,6.2,0.3c2.3-0.1,3.9-0.2,5-0.4
							c-2.1,0-4.1,0-6,0C76.3,57.7,74.9,57.7,72.7,57.7 M71,51.3c2.2-0.1,3.4-0.1,3.5-0.2c0.1-0.1-0.6-0.2-2.3-0.1
							C71.6,51,71.2,51.1,71,51.3 M76.7,51.6l-0.6,0c-2.4,0.2-2.4,0.3,0.2,0.3C77.4,51.8,77.6,51.7,76.7,51.6 M62.3,60.6
							c-0.4,0-0.8,0.1-1.1,0.1c-1.2,0-2.3,0.1-3.2,0.2l0,0.2c0.4-0.1,0.8-0.1,1.1-0.1s0.6,0,0.9,0l0.1-0.1c0.2,0,0.4,0,0.6,0
							c0.5-0.1,0.9-0.1,1.4,0c1.5,0,2.9,0,4.2-0.2C65.4,60.5,64.1,60.5,62.3,60.6 M62.1,51.5c-0.5-0.1-1.1,0-1.9,0.2
							c-0.2,0-0.5,0.1-0.7,0.1c-0.9,0.2-0.3,0.3,1.6,0.4l0.3,0c-0.9-0.2-0.5-0.3,1.4-0.4l0.5,0C63.1,51.6,62.7,51.5,62.1,51.5
							 M69.9,53.7c-3.2,0-4,0.1-2.3,0.4c2.5-0.1,3.4-0.2,2.6-0.4L69.9,53.7 M66.2,52.4c0.3,0,0.5,0,0.4,0c-0.1-0.2-0.9-0.3-2.5-0.1
							l-0.4,0.1C64.4,52.3,65.2,52.4,66.2,52.4 M58,57.8l0.4,0c-0.5-0.2-1.2-0.2-2.1-0.2l-0.4,0c0.5,0,0.8,0.1,1,0.4l0.4,0
							c-0.2-0.1-0.2-0.1-0.1-0.1c0.1,0,0.2,0,0.3,0l0,0C57.6,57.8,57.8,57.8,58,57.8 M58.5,57.8L58.5,57.8c-0.2,0-0.4,0-0.5,0
							c0.9,0,1.8,0,2.6,0.1c1,0,2-0.1,2.9-0.1l0.6,0C62.7,57.8,60.8,57.7,58.5,57.8 M52.7,57.6c1.1,0,1.4-0.1,0.7-0.2
							c-0.1,0-0.3,0-0.4,0C51.8,57.4,51.7,57.4,52.7,57.6 M50.2,56.1l0.3,0c0-0.1-0.1-0.1-0.3-0.2c-0.1,0-0.2-0.1-0.2-0.1
							c-1.2,0-1.3,0-0.2,0.3C50,56,50.1,56,50.2,56.1 M50.9,52.2c0.9,0,1.2-0.1,0.9-0.3c0,0-0.1,0-0.2,0
							C50.5,51.9,50.2,52,50.9,52.2 M51.2,50.3c1,0.1,1.5,0,1.3-0.3c0-0.1-0.3-0.2-0.7-0.1C50.7,50,50.5,50.1,51.2,50.3 M54,50.4
							l0.2-0.1c-1.2,0-2.2,0.1-3,0.2C52.3,50.5,53.3,50.5,54,50.4 M60,53.8l-0.5,0c0.3,0.2-0.3,0.4-1.9,0.6c2.2,0,3.5-0.1,4.2-0.2
							l0.3,0c-0.8,0-1.3-0.1-1.5-0.2C60.5,53.9,60.3,53.8,60,53.8 M48.7,61.3c0.3,0,0.5-0.1,0.7-0.1c0.1,0,0.2,0,0.3-0.1
							c0.3,0,0.6-0.1,1-0.2l0.3,0c-0.2-0.2-0.5-0.3-1-0.3c-0.1,0-0.2,0-0.3,0c-1.2,0-1.4,0-0.8,0.1c1.3,0.1,1.4,0.2,0.4,0.3
							c-0.2,0.1-0.4,0.1-0.5,0.1C48.4,61,48.4,61.1,48.7,61.3 M40.2,61.7c0.8,0,1.2,0,1.3-0.1c-0.6-0.1-1.2-0.1-1.8-0.1
							c-0.2,0-0.4,0-0.5,0c-0.3,0.1-0.3,0.2,0.1,0.2C40.1,61.5,40.4,61.5,40.2,61.7 M40.4,56.7C40.6,56.7,40.6,56.7,40.4,56.7
							c-0.5,0-0.8,0-1.1,0l-0.2,0.1c-0.5-0.1-1.1-0.2-1.9-0.1c0.3,0.1,0.4,0.2,0.4,0.3C39.2,57,40.1,56.9,40.4,56.7 M40.4,55.9
							c1,0,1.6-0.1,1.9-0.2c0.1-0.1,0.2-0.1,0.1-0.1C41.2,55.6,40.6,55.7,40.4,55.9 M40.4,51.5c1.4-0.1,1.5-0.1,0.4-0.1l-0.2,0
							c0.4-0.3-0.1-0.3-1.5-0.2l-0.4,0C39.1,51.3,39.7,51.4,40.4,51.5 M43.1,52c-0.5,0.2-0.3,0.3,0.5,0.5c0.1,0,0.3-0.1,0.4-0.1
							c0.1,0,0.2,0,0.2,0c0.8-0.1,0.6-0.3-0.3-0.3c-0.2,0-0.4,0-0.6,0L43.1,52 M47.8,53c1-0.1,1.2-0.1,0.5-0.2l-0.2,0
							C47.3,52.8,47.1,52.9,47.8,53 M49.9,52.8l-0.2,0c0.4,0.1,1,0.1,1.8,0c0.7-0.1,1.4-0.2,2.4-0.2c0.3,0,0.4-0.1,0.4-0.1
							c0-0.1,0.3-0.2,0.7-0.2c0.3,0,0.5,0,0.7,0l0,0.1c2,0.1,2.5,0.3,1.5,0.6c0.4,0,0.7-0.1,1-0.1c4.2-0.1,4.8-0.3,1.8-0.6
							c-0.8,0-1.6-0.1-2.4-0.1l0-0.1c-0.5-0.1-0.8,0-1,0.1c0,0-0.1,0-0.1,0c-0.2,0-0.4,0-0.6-0.1c-0.1,0-0.1,0-0.2,0
							c-0.1,0-0.2,0-0.3,0c-0.4-0.1-1.1-0.1-2.2,0c-1,0.1-2.1,0.1-3.1,0.2c-0.6,0.1-0.5,0.1,0.4,0.1c1.3-0.1,1.7-0.1,1.2,0.1
							c-0.4,0-0.8,0.1-1.2,0.2C50.3,52.7,50.1,52.8,49.9,52.8 M50,54.5c-0.7-0.1-1,0-0.9,0.4c1,0,1.4,0,1.2-0.2
							C50.2,54.6,50.1,54.5,50,54.5 M46.8,52.9L46.8,52.9c-0.6-0.1-1.5-0.2-2.7-0.2c-0.6,0-1,0.1-1.2,0.2L42.7,53
							c-0.7-0.2-1.5-0.2-2.4,0c-0.5,0.1-0.4,0.1,0.2,0.1c2.3-0.1,3.7,0.1,4.2,0.5C45.9,53.5,46.6,53.2,46.8,52.9 M45.2,55.4
							L45.2,55.4c-0.8,0-1.1,0.2-1.2,0.5C45.1,55.8,45.5,55.7,45.2,55.4 M42.3,48.6c-0.4-0.2-0.9-0.2-1.4-0.1l-0.2,0.1
							c0.4,0,0.8,0,1,0.1c0.6,0.2,0.8,0.3,0.6,0.4c0.6,0,0.9-0.1,0.9-0.2c0.1-0.3,0.3-0.3,0.7-0.2l0.1,0l0.2-0.1c0.7,0,1-0.1,1-0.1
							c0-0.2-0.1-0.2-0.3-0.1c-0.2-0.1-0.3-0.1-0.4,0c-0.1,0-0.2,0-0.3,0c-0.8,0-1.2,0-1.3,0.1C42.7,48.8,42.5,48.8,42.3,48.6
							 M42,49.5c0.1,0,0.2,0,0.2,0c0.1,0,0.1-0.1,0.1-0.1c0.6,0,0.8-0.1,0.6-0.2c-0.1,0-0.2,0-0.3,0C41.4,49.2,41.2,49.3,42,49.5
							 M51.6,49.4L51.6,49.4c0.3-0.1,0.2-0.2-0.2-0.2c-0.2,0-0.3,0-0.5,0l-0.4,0.1c0.4,0.1,0.5,0.2,0.1,0.4
							C51.7,49.6,52.1,49.5,51.6,49.4 M43.3,17.4c-0.2-0.1-0.5-0.1-1,0c-0.8,0.2-1.2,0.4-1.2,0.8c0,0.3,0.3,0.5,1,0.6
							c0.8-0.1,1.4-0.3,2-0.5c0.1,0,0.2-0.1,0.2-0.1c0.6,0.1,0.6,0,0.1-0.3c0-0.2-0.2-0.4-0.6-0.4C43.5,17.5,43.4,17.4,43.3,17.4
							 M50.2,16.5c0.1,0,0.2,0,0.3,0L50.4,16C49.6,16,49.5,16.2,50.2,16.5 M58.2,17.7c0.3,0,0.5,0,0.6,0c0.2-0.1,0.5-0.1,0.7-0.2
							c0.4,0,0.9,0,1.5,0c0.9-0.1,0.6-0.2-1-0.3l-0.5-0.1c-1.1,0.2-2,0.3-2.7,0.2C57.5,17.4,58,17.5,58.2,17.7 M76.2,16.1
							c1.4-0.1,2.2-0.2,2.4-0.4c0-0.1-0.2-0.1-0.6-0.1C75.3,15.6,74.7,15.7,76.2,16.1 M93.6,58c0.1,0,0.2,0,0.3,0
							c1.9-0.2,3.1-0.1,3.5,0.2c0.7,0,1.3-0.1,1.9-0.1c0.4,0,0.8,0,1.2-0.1c1.2-0.1,1.1-0.2-0.5-0.3c-0.8,0-1.6,0-2.6,0
							C94.5,57.8,93.2,57.8,93.6,58 M85.9,53.5c0.7,0,1.1,0,1.2,0c0.8-0.2,2.3-0.4,4.7-0.5c1.3,0,1,0-1.1-0.1
							c-0.3,0-0.6,0.1-0.9,0.1l-0.5,0C88.1,53.1,87,53.3,85.9,53.5 M83.7,52.8c-1.5,0.1-2.5,0.1-3,0.2C79,53,78.7,53.1,80,53.2
							c1.6,0.1,1.2,0.1-1.2,0.1l-0.5,0c0-0.2-0.5-0.2-1.5-0.1c-0.4,0-0.6,0-0.6,0.1c-0.3,0.3-1.4,0.4-3.5,0.5c2.5,0,4.3-0.1,5.2-0.2
							c0.3-0.1,0.7-0.1,1.1-0.1c0.6-0.1,1-0.1,1.3-0.1c1.8-0.2,3.6-0.3,5.5-0.3c0.4,0,0.6,0,0.8-0.1C89.3,52.8,88.4,52.7,83.7,52.8
							 M88.7,51.9l-0.6,0c-0.4,0.1,0.1,0.2,1.5,0.1c2.9-0.1,5-0.1,6.3,0c2-0.1,3.2-0.2,3.6-0.4l0.2-0.1c-1,0-2,0.1-3.1,0.2l-0.4,0
							c-0.3,0-0.5,0-0.7,0C92.9,52,90.6,52,88.7,51.9 M85.5,52c0-0.1-0.2-0.1-0.5-0.1c-0.4,0-0.8-0.1-1.2-0.1
							c-1.6-0.1-2.9,0-3.9,0.1L79.4,52c0.1,0.2,0.5,0.4,1.2,0.5c0.4-0.1,0.7-0.1,0.9-0.1c0.4,0,0.6,0,0.7,0
							C84.5,52.5,85.6,52.3,85.5,52 M105.8,11.7c-0.2,0-0.2,0-0.2-0.1c0-0.2-0.5-0.2-1.5-0.1l-0.5,0c0.4,0.2,0.9,0.4,1.6,0.6
							C106.3,12,106.5,11.9,105.8,11.7 M200,54.2c0.7,0,1.4,0,2,0c2.9-0.1,3.4-0.1,1.7-0.2C201.8,53.9,200.6,54,200,54.2
							 M122.5,59.7c0.3,0,0.5,0,0.7,0l0.6,0c-0.5,0-0.9-0.1-1.3-0.1c-1.1,0-2.2,0.1-3.2,0.2C120.3,59.7,121.4,59.7,122.5,59.7
							 M158,58.4c-0.3,0-0.7-0.1-1,0c-0.7,0-31.4,0-32.1,0.1c-0.9,0.1-1.7,0.1-2.4,0.2c-0.5,0-1,0.1-1.5,0.1c-0.4,0-0.7,0.1-1.1,0.1
							c-0.6,0-1.1,0-1.6,0c-0.8,0-1.7,0.1-2.8,0.3c-0.9,0.2-1.7,0.3-2.4,0.5c-1.3,0-2.6,0-3.9,0.1c-2.6,0-5.7,0-9.4,0.1
							c0-0.1-0.1-0.1-0.2-0.1c-2.2-0.2-5.5-0.2-9.9,0c-0.7,0.1-0.8,0.2-0.5,0.3l0.2,0c1.9,0,4.4,0,7.4-0.1c1.7,0,3.3-0.1,4.9-0.1
							c1.7,0,3.4,0,5.3-0.1c2.4-0.1,3.8,0,4.1,0.1c4-0.1,5.3-0.2,3.9-0.3l-0.3-0.1c2.6-0.2,5-0.3,7.2-0.5c0.2,0,0.4-0.1,0.6-0.1
							C124.6,58.8,156.4,58.6,158,58.4 M174.2,57.2c1.3-0.1,2.6-0.3,4-0.6c1.5-0.2,1.2-0.3-1.2-0.2c-1.8,0.1-2.6,0.2-2.3,0.3
							C174.9,56.9,174.7,57,174.2,57.2 M186.5,57.5c-3.2,0-3.9,0.1-2,0.3c1.8-0.1,2.7-0.1,2.6-0.3C187,57.4,186.8,57.4,186.5,57.5
							 M182.2,54.8c-1.2,0.1-1,0.2,0.6,0.3c1.4-0.1,1.3-0.2-0.2-0.3L182.2,54.8 M168.7,54c-0.4,0.1-0.2,0.2,0.6,0.2
							c2.6-0.1,2.6-0.2,0.1-0.2L168.7,54 M162.1,55.1c0.7,0,1.1-0.1,1.1-0.1c0.1-0.1,0.3-0.2,0.6-0.3c1.3-0.3,1-0.5-0.8-0.4
							c-0.3,0-0.6,0-0.9,0c-3.5,0.1-4.4,0.3-2.8,0.4l0.3,0c-1.1,0.2-0.8,0.4,0.7,0.5C161.1,55.2,161.7,55.2,162.1,55.1 M155.4,53.6
							c-1.4,0.2-1.3,0.3,0.4,0.4c1.1,0,1.5-0.1,1.2-0.2c-0.1-0.1-0.3-0.1-0.6-0.2C156,53.7,155.7,53.7,155.4,53.6 M157,52.2l0.4-0.2
							c-2.5,0.1-3.2,0.2-1.9,0.4C157.5,52.3,158,52.2,157,52.2 M122.1,56.7c-0.1-0.2-0.1-0.4-0.2-0.5c0-0.1-0.1-0.3-0.2-0.4
							c-0.2-0.1-0.9-0.3-2-0.4c-0.2,0-0.3,0-0.4,0c-0.1-0.2,0-0.3,0.2-0.5c0.1,0,0.1-0.1,0,0c-1-0.1-2.1-0.1-3.4,0.1
							c-1.1,0.2-1,0.3,0.2,0.3l0.9,0c-0.6,0-0.8,0.1-0.6,0.2c0.1,0.1,0.4,0.1,0.8,0.2c0.3,0.1,0.5,0.1,0.6,0.2
							c0.2,0.1,0.5,0.2,1,0.3c0.8,0.2,1.6,0.4,2.6,0.6C121.9,56.7,122.1,56.7,122.1,56.7 M156.3,10l0.4,0c-4,0-36.8,0.1-38.6,0.4
							C122,10.4,154.8,10.3,156.3,10 M156.7,8.6l0.2-0.1C155.1,8.6,123.8,8.7,123,9C125.1,8.9,156.4,8.8,156.7,8.6 M184.6,15.4
							c-0.3,0-0.5,0-0.4,0.1c0.2,0.1,0.4,0.3,0.5,0.6c0.4,0,0.7,0,0.9-0.1l0.4-0.1c-0.7-0.1-0.6-0.2,0.3-0.3c0.6,0,0.9-0.1,0.8-0.1
							C186.9,15.2,186.1,15.1,184.6,15.4 M227.2,48.4l-0.6,0c0.7,0.1,0.6,0.3-0.4,0.4l-0.5,0c0.9,0.1,1.4,0.2,1.7,0.3
							c2-0.1,2.5-0.2,1.6-0.3c-0.2,0-0.2,0-0.2-0.1C228.7,48.5,228.3,48.4,227.2,48.4 M216.8,50.1l-0.6,0c0.7,0.1,1.8,0.1,3.1,0.2
							c1.1,0,1.6-0.1,1.5-0.2c0,0-0.1,0-0.1,0C219.7,49.9,218.5,49.9,216.8,50.1 M217.1,49.5c-2.1,0.1-2.5,0.1-1.1,0.2
							c1,0.1,2.1,0.1,3.3,0.2c1.5,0,2.4,0,2.7-0.1C223.1,49.4,221.5,49.3,217.1,49.5 M212.9,48.9l-1,0c1.5,0.1,1.2,0.3-0.9,0.6
							l-0.4,0c0.5,0,0.3,0.2-0.5,0.4c1.8-0.2,3.4-0.4,4.8-0.6c0.4,0,0.9-0.1,1.5-0.1c2.4-0.2,4-0.4,4.6-0.7c-0.3,0.1-0.6,0.1-0.9,0
							l-0.6,0c0.1,0.1-0.3,0.1-1.4,0.1c-0.4,0-0.8,0-1.3,0l-0.9,0C216.7,48.8,215.7,48.9,212.9,48.9 M200.4,51.8c0.3,0,0.7,0,1,0
							c0.7,0,1.2-0.1,1.6-0.1c1.6-0.2,2.8-0.2,3.5-0.2c1.1,0.1,1.9,0,2.4-0.1c1-0.2-0.2-0.2-3.5-0.1c-0.7,0-1.4,0-2.1,0
							C201.5,51.6,200.6,51.7,200.4,51.8 M190.4,50.6c-0.4,0-0.7,0-1.1,0.1c-1.3,0.1-0.8,0.2,1.6,0.2c0.3,0,0.5,0,0.5-0.1
							c0,0-0.1-0.1-0.2-0.1C190.9,50.7,190.7,50.6,190.4,50.6 M192.1,51.6c0.4,0,0.7,0,0.8-0.1c1.3,0.1,2.2,0,2.6-0.1
							c0.1,0,0.2,0,0.4,0c1.2,0,2.2-0.1,2.7-0.2c0.9-0.2,2.4-0.3,4.5-0.3c3.2-0.1,3.8-0.3,1.9-0.4c-0.3,0-0.7,0.1-1.1,0.1
							c-0.5,0.1-1.4,0.1-2.5,0.1c-2.3,0-4.1,0-5.5,0.1c-1.6,0.1-3,0.2-4.2,0.3c-2.8,0.2-3.6,0.5-2.6,0.7
							C189.7,51.8,190.7,51.7,192.1,51.6 M192.6,50.4l-0.3,0c1.4,0.1,3.2,0.1,5.5,0.1c0.4,0,0.7,0,0.8,0c1.2-0.1,2,0,2.4,0.2
							c0.7,0,1.2-0.1,1.6-0.2l0,0c1.1-0.3,0.5-0.5-1.7-0.6c-0.8,0.2-2.1,0.3-4,0.1C195.4,50,193.9,50.1,192.6,50.4 M205.3,16.8
							c1.5,0,2.3-0.2,2.4-0.4l0,0C206.1,16.1,205.3,16.3,205.3,16.8 M201.4,12.6l-0.9,0c0.4,0.1,1.1,0.1,2.1,0.2
							c1.3,0,2.6,0,3.8-0.2C204.6,12.6,203,12.6,201.4,12.6 M221.8,21.5c0.8-0.2,0.7-0.2-0.4-0.1c-1.7,0.1-3.1,0.1-4,0.1
							c0.9,0.1,1.9,0.1,2.9,0.1C221.1,21.6,221.5,21.5,221.8,21.5 M210.9,20.1c1.8,0,2.4-0.1,1.7-0.3
							C211.5,19.5,210.9,19.6,210.9,20.1 M216.8,9.2c0.3-0.1,0.3-0.2,0-0.1c-4-0.1-7.3,0.1-9.8,0.5l-0.4,0c1.3,0.1,2.5,0.3,3.6,0.4
							c1.9,0,3-0.1,3.3-0.2c0.2,0,0.4-0.1,0.7-0.1C215.2,9.5,216.1,9.4,216.8,9.2 M220.5,15.7c1.8-0.1,2.9-0.2,3.5-0.3
							c1-0.4-0.6-0.6-4.7-0.5c-1.8,0.1-2.6,0-2.5-0.1l-0.6,0c-2.2,0.1-2.6,0.3-1.4,0.4c0.4,0,0.4,0.1,0,0.1c-0.3,0-0.5,0-0.5,0.1
							c-0.1,0.2-0.1,0.3,0,0.5c0.1,0.1-0.1,0.1-0.3,0.2c-1.8,0.2-2.6,0.4-2.5,0.7c1.3-0.2,2.7-0.3,4-0.5c0.4,0,0.5,0,0.4-0.1
							c-0.6-0.5,0-0.7,1.6-0.5c0.7,0,1.3,0,2,0C219.7,15.7,220.1,15.7,220.5,15.7 M223.4,10.2c-0.3,0-0.4,0-0.3,0.1
							c0.7,0.1,1.5,0.1,2.5,0.2c3.3-0.1,4.2-0.1,2.9-0.1C226.9,10.2,225.2,10.2,223.4,10.2 M220.4,54.1c-0.3-0.1-0.6-0.1-0.8,0
							c-0.3,0.2-0.9,0.3-1.8,0.4C220.2,54.6,221,54.4,220.4,54.1 M240.9,56.1c0.2,0,0.4,0,0.6,0c0.4,0,0.6,0,0.6,0
							c0.5-0.2,0.9-0.3,1.2-0.5C242.4,55.7,241.6,55.9,240.9,56.1 M216.8,49.4c-0.1-0.1-0.2-0.1-0.2-0.1c-1.7,0-2.1,0.2-1,0.5
							c0.2,0,0.4,0,0.6,0C216.4,49.6,216.6,49.5,216.8,49.4 M196.6,51.6c-0.2,0,48.7-3.2,48.6-3.2c-2.2,0-2.7,0.1-1.5,0.3
							C245.6,48.6,197.2,51.7,196.6,51.6 M245,50.3l-1,0.1c-0.3,0.1-48.6,3.5-47,3.5C199.8,53.7,248.5,50.3,245,50.3 M240.8,48.8
							c-0.2-0.1-0.5-0.1-1.1-0.1c-1.2,0.1-1.2,0.2,0,0.3C240.7,49,241.1,48.9,240.8,48.8 M232.2,48.6c3.7-0.1,4.7-0.2,3.1-0.4
							c-0.8,0-1.7-0.1-2.9-0.1c-1.8,0-2.4,0-1.9,0.2C231,48.4,231.5,48.5,232.2,48.6 M237.7,49.9c-0.7,0-1.2,0.1-1.6,0.2
							c-1.6,0.1-1.5,0.2,0.1,0.3c1.1,0,2.3,0.1,3.7,0.1c1.4,0,2,0,1.8-0.1c-0.4-0.2,0-0.3,1.2-0.3c-46.7,2.4-45.8-2.4,0.9-0.3
							c-0.4,0-0.7,0-0.9,0l-0.3-0.1C242,49.7,240.4,49.8,237.7,49.9 M197.3,22c0.1,0,0.2,0,0.3,0l0-0.4l-0.1,0
							c0.4-0.1,0.5-0.2,0.5-0.3c0,0-0.1,0-0.3,0c-1.2,0,47.6-3.1,48.4-2.8c-1.4,0.1-2.1,0.1-2.2,0.2l0,0.1
							C245.4,18.4,197.1,21.7,197.3,22 M238.3,18.7c-4.3,0-4.6,0.1-1.1,0.3c3.3-0.1,4.5-0.1,3.6-0.2c-0.4,0-0.7-0.1-1-0.1
							C239.4,18.7,238.9,18.7,238.3,18.7 M232.6,17.5c2.2-0.1,2.4-0.2,0.6-0.3c-0.1,0-0.3,0-0.4,0c-0.1-0.1-0.2-0.1-0.4-0.1l-0.5,0
							c-3.4,0.2-3.7,0.3-0.9,0.5c0.6,0,1.1-0.1,1.5-0.1C232.4,17.5,232.5,17.5,232.6,17.5 M235.3,19.7c0.4-0.1,0.6-0.1,0.6-0.1
							c0.2-0.2,0.1-0.3-0.5-0.3c0.7,0,1.3-0.1,1.9-0.2l0.5-0.1c-2.1,0-3.6,0-4.5,0.2l-0.1,0c0.7-0.1,0.4-0.2-0.9-0.1
							c-0.2,0-0.4,0-0.6,0c-0.2,0-0.3,0-0.5-0.1l0.1,0.4c0.2,0,0.3,0,0.4,0c0.2-0.1,0.4-0.1,0.6-0.1c0.1,0,0.1,0,0.2,0
							c-0.1,0-0.1,0-0.2,0c0.8,0,1.6-0.1,2.4-0.1C235.1,19.4,235.4,19.5,235.3,19.7 M233.3,11.5c0.8,0,1.3-0.1,1.5-0.2
							c0.5-0.2-0.4-0.3-2.7-0.2c-0.8,0.1-1.6,0.1-2.2,0l0,0.3c1,0,1.8,0.1,2.2,0.2C232.5,11.6,232.9,11.6,233.3,11.5 M243,11.5
							l-0.9,0c0.2,0.2,0.9,0.3,2.1,0.3c-1.1,0.1-2.8,0.2-5.1,0.3c-0.7,0-1.2,0-1.7-0.1c-0.6,0-1.2-0.1-1.7-0.1
							c-2-0.1-3.5-0.1-4.8,0.1l-0.5,0c3.6-0.1,6.2,0,7.6,0.2c2.6-0.1,5.1-0.2,7.4-0.3l0-0.3C244.7,11.6,243.9,11.6,243,11.5
							 M241.2,9.5c0.2,0,0.4,0,0.6,0c1.2-0.1,2.8-0.2,4.7-0.2c0.2,0.1-48.6,3.4-48.3,3.2c0-0.1,0-0.1,0-0.1
							c-0.3-0.1,48.1-3.4,47.1-3.3C243.4,9.1,242.1,9.2,241.2,9.5 M240.8,10.7c0.4,0,0.8,0,1.1,0c1.3,0,2.4,0,3.3,0l0-0.3
							c-1.8,0.1-3.3,0.1-4.5,0c-1.5-0.1-3.5-0.1-6,0.1c0,0.1,0.2,0.1,0.6,0.2l0.2,0C237.2,10.7,238.9,10.7,240.8,10.7 M200.5,10
							c-1.4,0.1-1.3,0.2,0.1,0.4c1.1-0.1,1.2-0.2,0.5-0.4C200.8,10,200.6,10,200.5,10 M211.5,23.1c1.1-0.3,0.9-0.4-0.6-0.4
							c-0.8,0-1.2,0-1,0.1C210.3,22.9,210.8,23.1,211.5,23.1 M214.8,24.7c-0.6,0-0.3,0.1,0.6,0.2c0.2,0,0.4-0.1,0.6-0.1
							c0.3,0,0.6,0,0.8-0.1c0.2,0,0.2,0,0.1-0.1C216.3,24.6,215.6,24.6,214.8,24.7 M219,21c0.3-0.1,0.5-0.1,0.7-0.2l0.2-0.1
							c-2.4,0-4-0.1-4.8-0.3l-0.2-0.1c-0.2,0.1-0.2,0.1,0,0.1c0.9,0.1,1.5,0.4,1.6,0.7C217.5,21.2,218.3,21.1,219,21 M208.3,24.7
							c0.4,0,0.8-0.1,1.1-0.1l0.3,0c-0.3-0.1-0.2-0.2,0.1-0.4l0.1-0.1c-1.1,0-2,0.1-2.8,0.2l-0.3,0.1
							C207.7,24.4,208.2,24.5,208.3,24.7 M205.3,23.2c0-0.1,0-0.1,0.1-0.2c0.3-0.2-0.1-0.2-1.3-0.1c0.1,0.3,0.4,0.6,1,0.7
							c1.7,0,2.2-0.1,1.5-0.2c-0.2,0-0.4,0-0.4,0C205.5,23.4,205.2,23.3,205.3,23.2 M209.3,21.8c0-0.1-0.1-0.1-0.2,0
							c-1.7,0.1-2.3,0.3-1.8,0.5C208.7,22.2,209.4,22,209.3,21.8 M208.7,22.8c0.2-0.3,0.2-0.4-0.2-0.5c-1.5,0.4-1.7,0.8-0.4,1l0.3,0
							c-1.2,0.3-0.7,0.4,1.6,0.5c0.4,0,0.7,0,0.8,0.1c0.2,0,0.3,0,0.5,0.1c0.3,0.2,0.7,0.4,1.1,0.6c0.4,0,0.8,0,1.1,0l0.2-0.1
							c-0.4-0.1-0.8-0.2-1.2-0.3c-1.1-0.2-1.2-0.5-0.4-0.7c0.6-0.2,0.4-0.2-0.5-0.2C209.5,23.4,208.5,23.2,208.7,22.8 M209.7,22.5
							c0.4-0.1,0.6-0.1,0.7-0.1c0.5-0.2,1.4-0.3,2.7-0.3c0.8,0,1.1-0.1,0.9-0.2c-0.3-0.1-0.7-0.1-1.4-0.1
							C211.3,22,210.3,22.2,209.7,22.5 M206.4,18.4l0.3,0.1c1.4-0.2,2-0.1,1.8,0.2c-0.2,0.4-1,0.7-2.2,1c1.8-0.1,3.5-0.2,5.3-0.3
							c0.2-0.1,0.4-0.1,0.5-0.1c0.9,0,1.4-0.1,1.4-0.2c0.1-0.2,0.8-0.3,2-0.4c0.3,0,0.4,0,0.3,0c-0.4-0.1,0.1-0.2,1.5-0.4
							c-0.5-0.3-1.1-0.3-1.9,0c-0.1,0.1-0.3,0.1-0.5,0.1c-1.7,0-3.2,0-4.7-0.1c-1.1-0.1-1.9-0.3-2.2-0.6c-0.6-0.5-1.2-0.6-1.9-0.1
							c1.2,0.2,1,0.4-0.5,0.5l-0.3,0C205.7,18.2,206.1,18.3,206.4,18.4 M203.5,14.1c0.4,0,0.7,0,0.9-0.1c0.2,0,0.4,0,0.6-0.1
							l0.2-0.1c-0.4-0.1-1.2-0.2-2.4-0.3c-0.8,0-1.1,0-0.9,0.1l0.1,0.1c-1,0.2-0.9,0.3,0.4,0.4C202.7,14.2,203.1,14.2,203.5,14.1
							 M203.4,6.9c-0.6,0-1.1-0.1-1.6-0.1c-0.8-0.1-2.1-0.1-3.7,0c-2.5,0.1,46.3-3,48.3-2.8c1.2,0.1-47,3.5-46.3,3.8
							c0.6,0,0.9-0.1,0.7-0.2c0,0,0.1-0.1,0.1-0.1c0.9,0,1.8,0,2.5-0.2c0.2,0,0.4-0.1,0.4-0.1C204.3,7,204.1,6.9,203.4,6.9
							 M204.4,5.6c-0.7,0.1-0.5,0.3,0.7,0.5c0.9-0.1,0.9-0.2,0-0.3c-0.2,0-0.4-0.1-0.4-0.1L204.4,5.6 M207.6,10.6l0.2-0.1
							c-0.4-0.3-1-0.5-1.9-0.7l-0.3-0.1c-0.9,0.1-0.8,0.2,0,0.5C206.3,10.3,206.9,10.4,207.6,10.6 M214.2,14.4l0.6-0.1
							c-0.5-0.1-0.1-0.2,1.1-0.3c0.4,0,0.8,0,1.2,0c0.8,0,1.6,0,2.4,0l0.3,0c-0.7-0.1-1.6-0.2-2.6-0.2c-0.7,0-1.3,0-2,0
							c-0.1,0-0.3,0-0.6,0C213,14.1,212.8,14.3,214.2,14.4 M215.1,9.4c0.7-0.2,0.6-0.4-0.2-0.6c-0.6-0.1-1.2-0.3-1.9-0.4l-0.2-0.2
							c-0.2,0.1-0.2,0.2,0,0.2C213.4,8.8,214.2,9.1,215.1,9.4 M216,9.4c-0.1,0.4,0.4,0.6,1.5,0.8c0.4-0.1,0.8-0.1,1.2-0.1
							c0.7,0,0.7-0.1,0.3-0.3c-0.6-0.2-1.5-0.3-2.7-0.4L216,9.4 M257.3,40.1C257.3,40.1,257.4,40,257.3,40.1
							c0.4-0.2,0.5-0.3,0.3-0.3c-0.2-0.1-0.9-0.1-2.1,0c-0.9,0-1.3-0.2-1.4-0.5c-0.8-0.2-1.3,0-1.5,0.5c0,0.1-0.1,0.1-0.3,0.2
							c-1.4,0.3-1.2,0.4,0.8,0.2C254.9,39.9,256.3,40,257.3,40.1 M242.3,45.5c-0.3-0.1-0.5-0.2-0.5-0.4c-2.1,0.1-3,0.3-2.7,0.5
							C240.2,45.6,241.2,45.6,242.3,45.5 M249.6,39.9c-0.2,0-0.4,0-0.4,0c-0.9,0.2-0.7,0.4,0.5,0.6C251.2,40.2,251.1,40,249.6,39.9
							 M240.1,38.1l0-0.1c-1.2,0.1-1.8,0.4-1.9,0.8C239.7,38.8,240.4,38.5,240.1,38.1 M247.1,32.4L247.1,32.4
							c-0.1,0.2-0.3,0.6-0.6,1c-0.3,0.4-0.1,0.7,0.6,1c1-0.1,1.3-0.4,0.8-0.8C247.6,33.2,247.3,32.8,247.1,32.4 M255.1,33.3
							c0.2-0.1,0.4-0.1,0.6-0.1c1.6,0,2.2-0.3,1.8-0.8c-0.1-0.1-0.2-0.1-0.3-0.1c-0.7-0.1-1.3,0-1.8,0.1c-1.5,0.4-2,0.8-1.5,1.2
							C254.4,33.4,254.8,33.3,255.1,33.3 M234.7,51.1l0.9-0.5l-0.5,0l-0.3-0.1c0.1,0,0.1,0.1,0.2,0.1c0.3,0.1,0.1,0.2-0.4,0.3
							l-0.3,0.1C234.6,51.1,234.7,51.1,234.7,51.1 M232.4,50.7c-0.1,0-0.1,0-0.2,0L217.7,51c-0.7,0.3-1.5,0.6-2.4,0.8
							c-0.7,0.3-0.8,0.5-0.2,0.6c0.3,0.1,0.5,0.1,0.8,0.2c0.8,0.2,1.9,0.3,3.3,0.4c1.2,0,1.9-0.1,2-0.2l0,0c0.2,0,0.3-0.1,0.5,0
							c0.4,0.1,0.9,0.1,1.6,0c1.8,0,2.9-0.2,3.2-0.4c0.1-0.1,0.2-0.1,0.4-0.1c0.7-0.2,1.8-0.3,3.1-0.3c2.1-0.3,2.5-0.6,1.3-0.8
							l0.7,0c0.2,0,0.5-0.1,0.8-0.2c-0.2-0.1-0.4-0.2-0.5-0.3l-0.1,0C232.6,50.8,232.7,50.8,232.4,50.7 M230.9,51.1
							c0-0.1,0.2-0.1,0.6-0.2c0.2,0,0.3,0,0.5,0C231.7,50.9,231.3,51,230.9,51.1 M224.1,35c-0.3,0.1-0.3,0.4,0.1,0.8
							c0.7-0.2,1.6-0.3,2.9-0.3c0.7,0,0.7-0.1,0.2-0.3C226.4,34.7,225.3,34.6,224.1,35 M223.6,33.5c-0.2,0.1-0.2,0.2,0,0.2
							c1.2,0.2,2.3,0.4,3.3,0.7c0.8-0.1,1.6-0.2,2.3-0.2l0.3,0c0.2-0.1,0.2-0.2,0-0.2c-0.2,0-0.4-0.1-0.6-0.2
							c-0.2-0.1-0.3-0.1-0.4-0.1c-1.5,0-2.6-0.2-3.2-0.5C225.1,33.1,224.5,33.2,223.6,33.5 M236.6,27.6l0.6,0
							c-0.4-0.1-0.2-0.2,0.7-0.3l-2.5,0.1C235.7,27.5,236.1,27.6,236.6,27.6 M236.4,21.5L236.4,21.5c-0.3-0.3-0.5-0.3-0.6-0.2
							c-0.2,0.2-0.3,0.3-0.5,0.4c-0.4,0.3,0,0.4,1,0.5C237.8,21.9,237.8,21.7,236.4,21.5 M235.3,24c0.2,0,0.4-0.1,0.6,0
							c0.4-0.1,0.6-0.1,0.6-0.1c0.1-0.2,0.4-0.3,1-0.4c1-0.1,1.2-0.1,0.7-0.1c-0.3,0-0.5-0.1-0.6-0.1c-0.8,0.1-1.5,0.2-2,0.3
							c-0.9,0.3-1.2,0.4-0.8,0.6C234.9,24.1,235.1,24,235.3,24 M230.4,26.6c0.3,0,0.3,0.1,0,0.2l-0.2,0.1c1.5,0,2.6,0.1,3.3,0.3
							c0.5-0.2,0-0.4-1.3-0.5C231.6,26.6,231,26.5,230.4,26.6 M230.9,20.8c0.2-0.1,0.4-0.1,0.6-0.1l0.2-0.1c-1.6,0-2.8,0.1-3.4,0.3
							C229.6,20.9,230.4,20.9,230.9,20.8 M231.9,19.7c0-0.1-0.1-0.1-0.3,0c-1.4,0.1-1.8,0.2-1.2,0.4C231.5,20,232,19.9,231.9,19.7
							 M236.2,16.5l0.2-0.2c-1.2,0-2,0.2-2.4,0.4C235.1,16.8,235.8,16.7,236.2,16.5 M239,15.3c-0.4,0-0.7,0-0.9-0.1
							c-0.7-0.1-0.9,0.1-0.7,0.4c0.9,0,1.7,0,2.5-0.1c0.1,0,0.3-0.1,0.4-0.2C240.1,15.4,239.6,15.3,239,15.3 M228.7,26.5
							c1.2,0,1.7-0.2,1.4-0.4c-0.1-0.1-0.2-0.1-0.3-0.1C228.2,25.9,227.9,26.1,228.7,26.5 M221.9,26.5L221.9,26.5
							c-0.4-0.1-1.3-0.1-2.7,0l-0.5,0c0.1-0.1-0.3-0.3-1.3-0.3c-0.7-0.1-0.7,0,0,0.2c-0.1,0.1-0.4,0.1-0.9,0
							c-0.2-0.1-0.4-0.2-0.6-0.2c-0.2,0-0.3,0-0.3,0c-0.8-0.3-1.2-0.6-1.1-0.8l-0.2,0c-1.1,0-1.7,0.1-1.7,0.4
							c-2.1,0.2-3.4,0.1-4-0.2c-0.1-0.1-0.2-0.1-0.2-0.1c-1.3,0-2-0.1-2.1-0.3c-0.2-0.3-0.6-0.5-1.3-0.6c-0.9-0.2-0.7-0.3,0.8-0.5
							c-0.1-0.2-0.7-0.2-1.7-0.1c-0.3,0-0.5,0-0.6,0c-0.8,0-1.7,0-3,0.1l-0.3,0c-0.4-0.1-0.7-0.1-1-0.2c-0.7-0.1-0.6-0.2,0.1-0.3
							c0.3-0.1,0.4-0.1,0.4-0.1c0.1-0.2,0.4-0.2,1-0.2l0.4,0c0.2-0.1,0.3-0.1,0.5-0.1c0.9-0.1,1.6-0.2,2.2-0.3
							c1.1-0.2,1.2-0.4,0.3-0.5c-0.8,0-1.5,0.1-2.3,0.1l-0.3,0c-0.2,0-0.4,0.1-0.6,0.1c-1.5,0.3,46.2-2.6,44.8-2.4
							c-0.4,0-0.7-0.1-1-0.2c-0.2-0.1-0.4-0.1-0.6-0.1c-0.2-0.1-0.4-0.1-0.5-0.2c-0.8-0.1-1.6-0.3-2.5-0.4c-0.2,0-0.4,0-0.4-0.1
							c-1.3,0-1.3,0.1,0.1,0.3c-0.2,0.1-0.5,0.1-0.7,0.2c-0.3,0-0.5,0.1-0.7,0.2c-0.1,0-0.1,0.1,0,0.1c0.6,0.1,1.3,0.1,2.1,0.1
							c2.2,0.1,3.1,0.3,2.5,0.6c-1,0-1.5,0.1-1.4,0.3c0,0-0.1,0-0.3,0c-0.4,0.1-0.7,0.1-1,0.1c-0.3,0-0.5,0-0.8,0
							c-0.2,0-0.4,0-0.6-0.1c-0.1,0-0.1,0-0.2,0c-0.2,0-0.4,0-0.6-0.1c-0.2,0-0.4-0.1-0.6-0.2c-0.9-0.1-1.6-0.1-2,0l0,0
							c-0.3,0-0.6,0-1-0.1c-1.3,0-2.2-0.2-2.6-0.4l-0.6,0c-0.6,0.1-1.1,0.1-1.4,0.1c-0.4,0.1-0.3,0.1,0,0.1c0.3,0,0.7,0,1.2,0.1
							c1.6,0.1,2.8,0.2,3.5,0.4c0.4,0,0.8,0,1,0c0,0,0.1,0,0.1,0c0.4,0,0.7,0.1,0.9,0.1c-0.9,0.1-0.9,0.1-0.1,0.1l0,0l-0.1,0.1
							c0.2,0,0.3,0,0.3,0.1c0.3,0.2,1,0.3,2.3,0.1c0.7,0,1.3-0.1,1.9-0.1c0.4,0,0.7,0.1,0.7,0.2c1.7,0,2.3-0.1,1.8-0.2
							c0.9,0.1-47.3,3.4-46.6,3.4c0.2,0,0.4,0.1,0.6,0.1c0.2,0,0.3,0,0.4,0.1c0.6,0.2,1.3,0.3,2.3,0.3c0.4,0,0.7,0.1,0.9,0
							c1.1,0.3,1,0.4-0.3,0.5c0.1,0.1-0.2,0.1-1,0.1l-0.3,0c-0.2,0-0.3,0.1-0.4,0c-1,0.1-1.6,0.2-1.9,0.1l0-0.1c0.1,0,0.1,0,0.2,0
							c1-0.3,1.1-0.4,0.5-0.5c-0.2,0-0.4,0-0.6-0.1c-0.1,0-0.1,0-0.2,0l-0.1-0.4c-0.3,0-0.7,0-1,0c1.1,0.1,49.7-3,47.8-3
							c-2,0.1-3.5,0.1-4.6,0c-2.1-0.2-4.4-0.2-6.7,0c0-0.1,0-0.1,0-0.2c0-0.1-0.2-0.1-0.6-0.2c-0.4,0-0.6,0-0.7,0
							c-0.7,0.3-2.7,0.4-5.9,0.3c-0.7,0-1.2,0.1-1.5,0.1c-0.5,0.1-1.7,0.1-3.4,0c-0.5,0-0.8,0-1.1,0.1c-1.3,0-3.1,0-5.2-0.1
							c0-0.1,0.1-0.1,0.3-0.2l0.2-0.1c-1.9-0.1-1.8-0.3,0.3-0.5c0.4,0,0.6,0,0.5,0c-0.6-0.2-1.8-0.2-3.5,0c-2-0.1-2.5-0.3-1.6-0.5
							l0.4-0.1c-1.1,0.1-1.9,0.1-2.4,0c-1.4-0.3-1.7-0.6-0.8-1c0.6,0,1.2,0,1.9-0.1c0.4,0,0.8,0,1-0.1c2.6,0.1,4.8,0.1,6.6,0.2
							c0.5,0.1,0.8,0.1,1.1,0.1c0.7,0.2,1.9,0.3,3.7,0.3c0.4,0,0.7,0,0.9,0c1.2,0.3,3.7,0.4,7.5,0.3c-1.8-0.1-3.4-0.2-4.6-0.4
							c-0.4-0.1-0.8-0.1-1.1-0.2c-2.2-0.4-0.7-0.6,4.5-0.7c0.4,0.1,0.7,0.1,0.9,0c1.7-0.1,1.7-0.1,0-0.1c-0.6,0-1.1,0-1.4-0.1
							c-0.4,0-0.7,0-0.9-0.1c-3.1,0-5.7-0.1-8-0.2c-2.8-0.1-6.5-0.1-11.1,0c0.4-0.1,0.7-0.2,1.1-0.2l0.4-0.1c-5.3,0-5.8-0.2-1.6-0.6
							c1.2-0.4,0.7-0.4-1.5-0.1c-0.4,0.1-0.7,0.1-1,0.2c-2.4,0.3-2.9,0.2-1.5-0.2c-1-0.2-1.8-0.2-2.3,0c-0.6,0.2-1.6,0.3-2.8,0.4
							c-0.3,0.1-0.5,0.1-0.5,0.1c-2.2-0.2-4.1-0.4-5.7-0.6c-2.1-0.2-2.2-0.4-0.2-0.5c0.4-0.1,0.8-0.1,1.1-0.1c1.8,0,2.3-0.1,1.6-0.3
							c-0.7-0.2-1.3-0.2-1.6-0.1c-1.7,0.3-4,0.4-6.9,0.4c-2.9-0.1-5.7-0.2-8.6-0.3c-2.3,0-3-0.2-2-0.4c-2.2,0.1-4.3,0.2-6.4,0.1
							c-2.1-0.1-4.4-0.2-6.8-0.3c-0.4,0-0.8,0-1.1,0c-1.8,0-3,0-3.6-0.1c-0.4-0.1-0.7-0.1-0.9-0.1c-1.1-0.1-32.2-0.1-33.4-0.1
							c-1.8,0-2.9-0.2-3.3-0.4c-0.6-0.3-0.5-0.6,0.4-0.8l0.5-0.1c0.8,0,32.2,0,34-0.1l1,0c-0.1-0.1,0.2-0.2,0.9-0.4
							c0.9-0.2,2.6-0.3,5.1-0.3c0.3,0,0.6,0,0.8,0c2.1,0,4.5,0,7.2,0.1c1.4,0,2.8,0,4.2,0c0,0.1,0.1,0.2,0.3,0.3l0.2,0
							c-0.8,0.1-1.4,0.3-1.6,0.5c-0.4,0.3-0.6,0.5-0.8,0.8c0.4,0,0.6,0,0.8,0c3.6-0.5,7.1-1,10.2-1.6c0,0,0-0.1,0.2-0.1
							c0.6,0,0.9,0,1.1,0c0.8,0.1,1.5,0.1,2.2,0l0.6,0.1c1.8,0.1,4.5,0,8.1-0.1c1.2-0.1,0.2-0.2-3.1-0.1c-5.4,0.1-6.8,0-4.2-0.5
							c0.4-0.1,0.8-0.2,1.2-0.2c0.6-0.1,1.3-0.2,2.1-0.2l0.8-0.1c0.3,0.2,1.3,0.3,3,0.2c0.4,0,0.7,0,1.1,0c1.8-0.1,3.2,0,4.2,0.1
							c2.3,0.1,5.4,0.1,9,0c0.3,0,0.5,0,0.5,0l0.4,0c1.1,0,1.9-0.1,2.3-0.2c0.2-0.1,0.2-0.1,0.1-0.1c-1-0.2-1.9-0.4-2.5-0.6l-0.5,0
							c1.2-0.1,1-0.1-0.5-0.1c-0.4,0-0.8,0-1.2,0.1l-0.9,0c-0.2,0.2-0.8,0.3-1.9,0.3c-4.5,0.2-8.2,0.2-11.2,0.1
							c-0.4,0-0.6,0-0.7-0.1c-0.2-0.1-0.2-0.1,0.2-0.1c0.3-0.1,0.7-0.1,1-0.2c1.2-0.2,2.4-0.4,3.7-0.4c1.1-0.1,1.7-0.3,2-0.4
							c0.3-0.2,0.8-0.4,1.4-0.5c0.2-0.1,0.5-0.2,0.8-0.2c1.3-0.2,0.8-0.3-1.5-0.3c-0.3,0-0.5,0.1-0.6,0.1c-0.6,0.4-2,0.5-4.3,0.3
							c-2.2-0.1-5.3-0.2-9.4-0.1c-1.5,0.1-1.6,0.1-0.2,0.1c1.5,0.1,2.9,0.2,4.3,0.2c0.4,0.1,0.7,0.1,0.9,0c1.9-0.1,3.2-0.1,3.7-0.1
							l0.5,0c0,0.2-0.3,0.3-1,0.5c-0.6,0.2-1.4,0.3-2.4,0.5c-0.4,0-0.7,0-0.9,0c-0.7-0.1-1.5-0.1-2.6-0.1c-3.1,0-6.5,0-10.2,0
							c-0.4,0-0.6,0-0.6-0.1c-0.3-0.3-1.1-0.4-2.6-0.2c0.1,0.1,0.2,0.2,0.4,0.3c0.1,0.1,0.4,0.1,0.8,0c1.8,0,3.5,0,5,0
							c2.9,0,5.3,0.1,7.1,0.3c1.4-0.1,2-0.1,1.8,0c-0.6,0.4-2.8,0.6-6.6,0.7c0.5,0,1,0.1,1.5,0.1c1.8,0.1,1.5,0.2-0.7,0.3
							c-0.6,0.1-1.1,0.1-1.4,0c-0.3,0-0.6-0.1-0.9-0.1c-2.9-0.1-4.5,0-4.7,0.3c-0.4,0.1-0.5,0.1-0.4,0.2c0.3,0.3-0.9,0.4-3.5,0.4
							c-3.5,0-6.6,0-9.4-0.1c-0.6,0-1.1-0.1-1.5-0.1c-1.8-0.1-3.7-0.1-5.7,0c-0.6,0.1-1,0.1-1.4,0c-0.3,0-0.3-0.1,0.1-0.1
							c0.5-0.1,0.3-0.2-0.6-0.3c-1.8-0.4-32.8-0.3-33,0.1c0,0.1-0.2,0.1-0.5,0.2c-0.4,0-0.6,0.1-0.7,0.1c-0.7,0.2-2.3,0.4-4.9,0.4
							c-0.7,0-1.3,0-1.9,0.1l-0.3,0c1.8-0.1,2.7,0,2.8,0.2l0.1,0c2.3,0.1,2.5,0.3,0.5,0.6c0.2,0.4-0.6,0.5-2.4,0.3
							c-1.4-0.1-2.7-0.1-4-0.2c-0.5-0.1-0.8-0.1-1-0.1c-1.5-0.2-3.8-0.3-6.9-0.2c0.4-0.2,1.4-0.3,3-0.3c4-0.1,5.4-0.2,4-0.4
							c-1.8,0.1-2.9,0.1-3.3-0.1l-0.2,0c-0.3,0-0.6,0-0.7,0c-2.6,0.1-4.6,0.3-6,0.4c-0.5,0.1-0.9,0.2-1.2,0.2
							c-1.1,0.3-1.9,0.4-2.6,0.3c-0.7,0-1.3,0-1.7,0.1C96.1,14.1,95.5,14,95,14c-3.1-0.1-7.1,0-12,0.1c-0.3,0-0.5,0-0.6,0
							c-1.4,0.1-2.9,0.2-4.4,0.3c-0.7,0-1.3,0.1-1.9,0.2c-0.4,0-0.7,0-0.7,0c-2-0.2-3.9-0.2-5.6-0.1c1.7,0,2.1,0.2,1.1,0.5
							c-0.3,0.1-0.4,0.2-0.3,0.2c0.4,0.2,1.5,0.3,3.3,0.4l0.6,0c-0.1-0.2,0.7-0.3,2.5-0.2l1-0.1c-0.3-0.1,0-0.2,1-0.4
							c0.4-0.1,0.6-0.1,0.8,0c2.6,0,5.1,0,7.6-0.2c0.5-0.1,1-0.2,1.5-0.2c1.9-0.2,3.3-0.2,4.4,0c-1,0-1.9,0.1-2.6,0.1
							c-1.4,0.2-1.5,0.2-0.4,0.2c3.7-0.1,7.4-0.1,11.2-0.2c0.4,0.1,0.7,0.2,1,0.3c0.4,0,1.8,0,4.2-0.1c0.7,0,1.1,0,1.5,0l0.6,0
							c0.8-0.1,1.8-0.1,3.2-0.1c1.6,0,2.6,0.2,3,0.4c-0.7,0.2-2.3,0.3-5,0.2c-0.4,0-0.8,0-1.2,0c-3.9,0-6.6,0-8.1,0
							c-2.9,0.1-5,0.2-6.4,0.4c-0.5,0-0.9,0-1.2,0c-0.3-0.1-0.7-0.1-1-0.1c-0.4,0-0.5,0-0.5,0c-0.2,0.1-0.9,0.2-1.9,0.2
							c-0.4,0-0.7,0-0.8,0c-2.5,0.2-5,0.2-7.3,0c-2.8,0-4.3,0.2-4.6,0.4c-0.1,0.2-1.3,0.3-3.5,0.3l-0.5,0.1c0.5,0.2,0.3,0.3-0.5,0.4
							c-0.3,0-0.6,0-0.9,0c-2.8,0.2-5.2,0.5-7.1,0.8c-0.3,0-0.7,0-1,0.1c-0.3,0-0.6,0-0.8,0c-0.9,0.1-1.9,0.1-3.1,0.2
							c-2.4,0.2-4.4,0.2-6.3,0.1c-0.9,0-1.7-0.1-2.4-0.2l0-0.3c-0.6-0.2-1-0.4-1.2-0.6l-0.2,0c0-0.1,0-0.1,0-0.1
							c0.3-0.3,0.2-0.6-0.3-0.8c0.5-0.1,0.5-0.2,0.2-0.3l-0.5,0c-0.1,0-0.2,0-0.2,0l0.1,0.3c-0.3,0-0.5-0.1-0.8,0
							c-0.1,0.1-0.1,0.3-0.1,0.4c0,0.3,0.2,0.5,0.6,0.6c0.3,0.2,0.5,0.3,0.7,0.3c0.2,0,0.4,0.1,0.5,0.3c0.1,0.1,0.1,0.2,0.2,0.2
							c-0.3-0.1-0.6-0.1-0.8-0.1l0.1,0.7c0.1,0,0.2,0,0.3,0c0.1,0.1,0,0.2-0.3,0.3l0,0.2c-0.4,0.1-0.6,0-0.8-0.2
							c-0.3,0.1-0.6,0.2-0.8,0.2l-0.1,0c-0.1-0.1-0.5-0.1-1,0c-0.2,0-0.3,0-0.3,0c-0.9-0.1-1.7-0.2-2.6-0.3c-0.2,0-0.3,0-0.3,0
							c-1-0.1-1.7,0-2.1,0.3l0.2,0c0.4-0.1,0.8-0.1,1.1,0.1c0.1,0,0.2,0,0.4,0.1c0.7,0.1,1.7,0.1,2.8,0.1c0.2,0,0.3,0,0.3,0
							c0.2,0,0.3,0,0.4,0c0,0.2-0.2,0.4-0.4,0.6l0,0.1c-0.1,0-0.3,0-0.5,0c0,0-0.1,0-0.1,0c-0.1,0-0.3,0-0.4,0c-0.1,0-0.3,0-0.4,0
							c-0.8,0.1-0.9,0.2-0.4,0.5c0.3,0,0.5,0,0.7,0c0.2,0,0.3-0.1,0.3,0c0.1,0,0.2,0,0.3,0c0.1,0.1,0.1,0.2,0,0.4
							c-0.2,0.4-0.4,0.8-0.5,1.2c-0.1,0.4-0.2,0.7-0.4,0.8c-0.1,0-0.2,0-0.2,0L44,22.8c-0.9,0.1-0.9,0.2-0.3,0.4
							c0.6,0.2,0.8,0.5,0.5,1.1c-0.4,0.3-0.7,0.5-0.9,0.8c0,0.1-0.1,0.1-0.2,0.1c-0.3,0-0.8,0-1.3,0.1c-0.1,0-0.1,0.1-0.2,0.1
							c0.5,0.4,1,0.7,1.5,0.9c0,0.2-0.1,0.2-0.2,0.3c-0.1,0.1-0.2,0.1-0.2,0.1c-0.5-0.6-0.7-0.6-0.7,0.1c0,0.1,0.1,0.2,0.2,0.2
							c0.8,0.2,0.8,0.5-0.1,0.9c-0.4,0.2-1.1,0.2-2,0.2c-0.1-0.1-0.2-0.1-0.3-0.1c-0.7,0.3-1.5,0.5-2.5,0.7c-0.2,0-0.3,0.1-0.4,0.1
							c-1.4,0.1-1.8,0.3-1.1,0.7c0.1,0,0.2,0.1,0.2,0.1c0.1,0.1,0.2,0.1,0.3,0.2c1,0.2,1.3,0.4,0.8,0.7c-0.9,0.5-0.8,0.9,0.1,1.1
							c-1.4,0-1.8,0.1-1.1,0.4l0.1,0.1c-0.7,0.1-0.8,0.2-0.2,0.3c0.2,0,0.3,0,0.4,0c0.1-0.1,0.3-0.1,0.4-0.1l0.3-0.1
							c0.1-0.4,0.3-0.7,0.7-0.8c0.1,0,0.3-0.1,0.4-0.2c0.4-0.2,0.8-0.3,1.2-0.4l0.2-0.1c-0.5,0.2-0.5,0.4,0.2,0.5
							c0.1-0.1,0.2-0.1,0.3-0.1c0.7,0,0.7,0.1,0.2,0.3l-0.2,0.1c0.6,0.1,1,0,1.1-0.2c0.1-0.1,0.2-0.1,0.3-0.1
							c1.2-0.2,1.4-0.5,0.7-0.9c0,0.1,0,0.2-0.1,0.3c-0.4,0.4-0.8,0.4-1,0.1c-0.1-0.1-0.2-0.2-0.3-0.2c-0.1-0.1-0.3-0.1-0.5-0.1
							c-0.3-0.1-0.5-0.2-0.7-0.3c-0.2-0.3-0.6-0.5-1.2-0.6c-0.2,0-0.4-0.1-0.6-0.1c-0.1-0.1-0.1-0.1,0-0.1c0.9-0.3,1.4-0.2,1.5,0.1
							c0.3,0.3,0.6,0.3,0.9-0.1c0.1-0.1,0.1-0.2,0.1-0.2c-0.1-0.3,0.1-0.4,0.5-0.3c0.2,0,0.2,0,0.2,0c-0.5,0.3-0.6,0.6-0.2,0.8
							c0.6,0.3,1,0.4,1.3,0.1l0.2-0.2c0,0.3,0.2,0.5,0.7,0.5c0.3,0,0.4,0,0.4,0c0.2,0.3,0.6,0.5,1.1,0.6c0.2,0.1,0.5,0.1,0.7,0.1
							c0.9,0.1,1,0.4,0,0.7c-0.3,0.1-0.6,0.2-0.8,0.4L44.6,32c-0.1-0.3-0.1-0.5-0.1-0.6l0-0.1c-0.6,0.4-1,0.4-1.4,0
							c-0.3,0-0.5,0.1-0.7,0.2l-0.2,0.1l0.2,0.1c-0.2,0.2-0.8,0.3-1.9,0.2c-0.2,0-0.3,0-0.5,0L39.7,32c-0.5-0.2-0.6-0.1-0.5,0.3
							c-0.1,0-0.2,0.1-0.2,0.1c-0.1,0.1-0.1,0.2,0,0.2c0.2,0,0.3,0.1,0.4,0.1c0.1,0.1,0.1,0.1,0,0.2c-0.1,0-0.3,0.1-0.4,0.2
							c-0.3,0.2-0.6,0.4-0.9,0.6c-0.1,0-0.2,0-0.2,0.1c0.1,0.3-0.1,0.4-0.6,0.5c-0.8,0-1.4,0.1-1.6,0.4c0.5,0,0.8,0.1,1,0.3
							c0.1,0.1,0.1,0.2,0.1,0.2c-0.1,0.1-0.2,0.3-0.4,0.4c-0.1,0.1-0.2,0.2-0.3,0.3L35.9,36c0.1-0.4,0.1-0.6-0.2-0.7l0,0
							c-0.6-0.3-0.8-0.2-0.6,0.5c0.1,0.1,0,0.2-0.1,0.2c-0.3,0.2-0.5,0.5-0.5,0.8c0,0.4-0.5,0.6-1.5,0.6l0-0.2
							c-0.6,0.1-1.3,0.3-2,0.4c-1.1,0.3-1.8,0.7-2.3,1.2c-0.3,0.3-0.6,0.4-0.8,0.2c-0.9,0.3-1,0.6-0.3,0.8l0.2,0.1
							c-0.5,0.3-0.4,0.5,0.3,0.7c0.2,0.2,0.1,0.3-0.4,0.3c-0.2,0-0.3,0-0.3,0c-0.8,0.2-1.3,0.1-1.6-0.4c-0.1-0.1-0.1-0.1-0.2,0
							c-0.9,0.3-0.9,0.4-0.1,0.4c0.3,0.6,0.7,0.8,1.3,0.6c0.3-0.1,0.5-0.1,0.8-0.2c0.2,0,0.3-0.1,0.4,0c0.1,0,0.2,0,0.2-0.1
							c-0.1-0.3,0.1-0.4,0.5-0.4c0.2,0,0.3,0,0.4,0c1-0.1,1.7-0.1,2.1,0c0.5,0.2,0.7,0.2,0.6,0c0-0.1,0-0.1,0-0.1
							c0.5-0.4,1-0.3,1.4,0.2c-0.1,0-0.2,0.1-0.4,0.2c-0.1,0.1-0.1,0.1-0.1,0.2c0.4,0.3,0.3,0.5-0.6,0.6l-0.2,0l0.2,0.1
							c-0.5,0.2-1.1,0.4-1.9,0.7c-0.8,0.3-1.5,0.2-2.1-0.1c0,0.1,0,0.1-0.1,0.2c-0.1,0-0.1,0.1,0,0.1c0.3,0.2,0.7,0.4,1.4,0.4
							c0.2,0,0.2,0.1,0.2,0.1c-0.1,0.2-0.3,0.4-0.5,0.6c-0.1,0-0.3,0-0.6,0l-0.2,0c-0.6-0.1-1-0.1-1.1,0l-0.1,0.1c0.5,0,1,0,1.5,0.1
							c0.1,0,0.1-0.1,0.2-0.1c-0.1,0-0.2,0.1-0.3,0.2c-0.1,0-0.2,0-0.4,0l-0.4,0c0,0.1,0,0.1-0.1,0.1c0-0.1-0.1-0.1-0.2-0.1
							c-0.3,0-0.5,0-0.7,0c-0.5,0-0.9,0-1.4-0.1l-0.3,0c0,0.4-0.1,0.7-0.2,0.9c1,0,1.7-0.1,2-0.3c0.6,0,1.3,0,1.9,0l0.2,0
							c-0.5,0.3-0.3,0.4,0.5,0.4c0.1,0,0.1,0.1,0.2,0.1c0.2,0,0.3-0.1,0.4-0.2l0.2,0.1c0.1-0.1,0.4-0.1,1-0.1c0.2,0,0.3,0,0.5,0
							c0.3,0,0.4,0,0.5,0.1c-0.2,0-0.3,0.1-0.5,0.1c-0.2,0-0.3,0-0.4,0c-0.6,0-1.1,0-1.6,0c-0.3,0-0.5,0-0.6,0
							c-0.1,0.1-0.1,0.1,0,0.1c0.4,0.1,0.7,0.1,1.1,0.2c-0.1,0-0.2,0.1-0.4,0.1c-0.1,0-0.2,0.1-0.2,0.1c0,0.1-0.1,0.2-0.4,0.3
							l0.1-0.1l-0.2,0c0.3-0.2,0.3-0.2-0.1-0.2c-0.3,0-0.6-0.1-0.9,0c0.5-0.1,0.4-0.2-0.3-0.2c-0.1,0-0.3,0-0.4,0
							c-1.1,0.1-1.6,0.2-1.4,0.3c0,0.2,0.3,0.3,0.7,0.4c0.1,0,0.1-0.1,0.2-0.1c0.1,0,0.2,0.1,0.2,0.2c-0.2,0-0.5,0.1-0.8,0.1
							c-0.2,0-0.4,0.1-0.5,0c-0.6-0.1-0.9-0.1-1,0c0,0.1-0.1,0.1-0.2,0.2c-0.1,0-0.3,0-0.5,0.1c-0.4,0-0.9,0.1-1.3,0.2
							c-0.2,0-0.4,0-0.4,0c-0.3,0.3-0.2,0.4,0.4,0.2l-0.2,0l0.2-0.1c0.6-0.2,1.1-0.2,1.3,0c0.1,0.1,0.1,0.1,0.1,0.1
							c-0.2,0.1,0,0.2,0.7,0.3c0.5,0,0.9,0,1.3-0.1c0.2,0,0.3,0,0.3,0c0-0.2,0.3-0.2,0.7-0.2l0.2,0c0.3-0.1,0.8-0.1,1.4-0.1l0.2,0
							c-0.5,0.1-0.6,0.2-0.1,0.3c-0.2,0.1-0.7,0.1-1.4,0.1l0.2,0.2c0.5-0.1,1.1-0.1,2.1-0.1c1.7,0,2,0.1,0.9,0.2
							c-0.1,0.1-0.3,0.1-0.4,0.2L30.4,48c0.7,0,1.2-0.1,1.8-0.2c0.7-0.1,1.4-0.2,2-0.1c0.4,0.1,1,0,1.7-0.2
							c-0.8-0.2-0.7-0.2,0.5-0.2l-0.1,0.1c-0.1,0.1,0.1,0.1,0.5,0.1l0,0c0.2,0.2,0.8,0.3,1.9,0.2c0,0.1,0,0.1-0.1,0.1
							c-0.1,0-0.1,0.1-0.2,0.2c-0.1,0-0.2,0.1-0.3,0.1c-0.1,0-0.3,0-0.4,0l-0.1,0c-0.5,0.1-0.3,0.3,0.5,0.4c0.1,0,0.2,0,0.2-0.1
							c0.2-0.2,0.5-0.2,0.8-0.1c0,0.1,0,0.1,0.1,0c0.4,0,1-0.1,1.7-0.1c0.3,0,0.5,0,0.6,0c0.6,0.1,1.1,0.1,1.5,0l0.4,0
							c-0.8,0-0.9-0.1-0.3-0.2c0.1,0,0.3-0.1,0.4-0.1c0.6,0.2,1.1,0.1,1.4,0c0.2,0,0.2,0,0.2,0.1c0,0.1,0.3,0.2,0.7,0.1l0.4,0
							c0.2,0.1,0.3,0.3,0.3,0.3l-0.1,0.1c0.6-0.1,0.9-0.1,1-0.1l0.1,0l0.3,0c-0.2-0.1-0.1-0.2,0.3-0.2l0.2,0c0,0.1,0.3,0.2,0.9,0.1
							l-0.1,0.1c-0.4,0.2-0.8,0.2-1.3,0.1c-0.3,0-0.4,0.1-0.5,0.1c-0.3,0.1-0.2,0.1,0.1,0.1l0.2-0.1c0.2,0,0.2,0.1,0,0.1
							c-0.5,0.2-0.7,0.4-0.6,0.6c0,0,0,0.1,0.1,0.1c0.6,0.1,0.6,0.3,0.2,0.4c-0.6,0.1-1.3,0.2-2.4,0.2c-0.5,0-1.1,0-2.1,0.1
							c-0.3,0-0.5,0-0.8,0c-0.3,0-0.4,0-0.4,0.1c-0.1,0.2-0.3,0.4-0.7,0.5c-1,0.1-1,0.1,0,0.1c0.1,0.1,0.3,0.1,0.5,0.1l0.3,0
							c0,0.3,0.2,0.5,0.4,0.6c0.6,0.1,1.2,0.1,1.8,0c0.5,0,0.6-0.1,0.2-0.3l-0.1,0c0.3-0.1,0.7-0.2,1.2-0.3c0.7-0.1,1.5-0.2,2.5-0.3
							c0.7,0,1.3-0.1,2.1-0.2c1.4-0.1,1.4-0.1,0-0.1c-0.1,0-0.2,0-0.2,0c-0.1,0-0.3,0-0.4-0.1c-0.2-0.1-0.4-0.1-0.6,0
							c-0.8,0-0.9,0-0.4-0.2c0.1-0.1,0.1-0.1,0.1-0.1c-0.3-0.1,0-0.2,0.9-0.3c0.2,0,0.3,0,0.4,0c0.1,0,0.3,0,0.4,0
							c0.1,0,0.2,0,0.3,0c1.1-0.1,1-0.2-0.3-0.3c-0.2,0-0.2,0-0.1,0c0.2-0.2,0.1-0.3-0.4-0.2c-0.1,0-0.1,0-0.2,0
							c-0.9,0.1-1.1,0.1-0.5-0.1l0.2-0.1l0-0.1c0-0.1,0.5-0.2,1.3-0.2c0.3,0,0.6,0,0.9,0c1.5-0.1,1.9-0.1,1.2,0.2
							c0.1,0.1,0.5,0.1,1.2,0c0.2,0,0.3,0,0.3,0c0.3,0,0.6,0.1,0.9,0.1l0.1,0.4c-0.3,0-0.4,0-0.5,0c-0.6-0.2-0.9-0.2-1,0
							c0,0,0,0,0.2,0c0.5,0.1,0.7,0.2,0.7,0.4l0,0.1c0.6,0,0.8,0,0.6,0.1c-0.4,0.2,0,0.3,1.1,0.2c0.8-0.1,1.1-0.1,0.9-0.1
							c0.1,0,0.1,0,0.2,0c2.8-0.2,3.8-0.1,3,0.2l-0.2,0.1c-1.7-0.1-2.5-0.1-2.5,0.1c-0.3,0-0.6,0-0.9,0l-0.6,0
							c1.5-0.1,2.2,0,2.1,0.1l0,0.1c0.3,0,0.7-0.1,1-0.1c0.3,0,0.5,0,0.7,0c1.6,0.2,4.3,0.2,7.9,0c-0.3,0-0.7,0-1,0.1
							c-0.3,0-0.5,0.1-0.5,0.1c0,0,0.1,0,0.3,0.1c0.8,0.1,1,0.3,0.4,0.4c-0.4,0-0.5,0.1-0.5,0.1c0.2,0.2,1.3,0.2,3.6,0.2
							c3.1,0,3.7-0.1,1.8-0.3c-1.4,0-2.6-0.1-3.5-0.3c-1-0.1-0.8-0.2,0.5-0.1c1.1,0,1.6-0.1,1.4-0.2l0-0.1c-0.9,0-0.4-0.1,1.5-0.2
							l0.4,0c-0.9,0.1-0.4,0.1,1.7,0.1l0.4,0c0.3,0,0.7,0.1,1,0.1c0.7,0,1.6,0.1,2.6,0.2c0.3-0.1,0.7-0.1,1.1-0.1
							c0.6-0.1,1-0.1,1.3-0.1c1-0.2,1.8-0.2,2.1,0c0,0,0.1,0.1,0.1,0.1c1.3,0.2,0.8,0.5-1.5,0.7c0,0-0.1-0.1-0.2-0.1
							c-0.6,0-0.9,0-1,0c-0.2,0,0,0.1,0.5,0.1c2.2,0.1,3.6,0,4.3-0.1l0.5-0.1c1.4,0,2.7,0,4.1-0.1l0.4,0c0,0,0.1,0,0.1,0
							c0.6,0.1,1.5,0.1,2.5-0.1l0.4,0c-3.5-0.1-3.5-0.2,0-0.3l-0.1,0c-0.5-0.2-0.3-0.3,0.6-0.2c0.4,0,0.7,0,0.9,0
							c0.4-0.1,0.7-0.1,0.7,0c1.8,0,1.9,0.1,0.5,0.3L95,51c1.7,0.1,1.9,0.2,0.5,0.3c-1.2,0.2-0.1,0.2,3.2,0.1c1,0.1,2.1,0.1,3.3,0
							l0.8-0.1c0.4,0.3,1.1,0.5,2.1,0.6c0.4,0,0.6,0.1,0.4,0.2c-0.3,0.1-0.1,0.2,0.8,0.3c-1.9,0-3,0-3.3,0.1l-0.3,0.1l-0.5,0
							c-1.4,0.1-2.4,0.1-3,0c-1.3-0.2-2.7-0.2-4.1,0.1c1.4-0.1,2,0,1.6,0.2c-0.5,0.1,0.1,0.1,1.6,0c3.3-0.3,5-0.2,5.1,0.2
							c0.7,0.1,1.3,0.1,1.8-0.1c0.2,0,0.4-0.1,0.8-0.1c2-0.2,2.5-0.2,1.5-0.1l-0.4,0.1c1.1,0.2,0.6,0.3-1.6,0.4
							c-0.3,0-0.5,0.1-0.6,0.1c-0.2,0.1-0.2,0.1-0.2,0.1c1.7,0,2.2,0,1.4,0.2c-0.3,0.1-0.7,0.1-1.3,0.1c-4.1,0-6.5,0.2-6.9,0.6
							c1.2,0,2.9,0,4.8,0c0.4,0,0.6,0,0.6,0c2.1-0.3,3.9-0.3,5.5-0.1c-0.3,0-0.5,0-0.5,0c-0.3,0-0.2,0.1,0.1,0.1
							c1.5,0.1,2.6,0.2,3.3,0.3c0.2,0,0.2,0.1-0.2,0.2c-0.3,0.1-0.5,0.1-0.6,0.1c-0.2,0-0.2,0.1-0.2,0.1c-0.1,0.2-0.7,0.5-1.9,0.7
							c-0.2,0-0.3,0-0.5,0.1c1.1,0,2-0.1,2.6-0.2c0.7,0,1.2-0.1,1.5-0.2c0.2-0.1,0.3-0.1,0.2-0.2c-0.7-0.2,0.4-0.5,3.3-0.7
							c0.5-0.1,1.1-0.1,1.6-0.2c0.5,0,0.8-0.1,0.8-0.1c1.1-0.3,0.7-0.5-1.2-0.6c-2.7,0-2.7,0-0.1-0.1c1.2-0.1,1.8-0.2,1.5-0.2
							l-0.6,0c-0.6,0-1.2,0.1-1.7,0.1c-2.1-0.1-2.8,0.1-2.2,0.4c-1.3,0-2.4,0-3.3,0.1c-0.5,0-0.9,0-1.3-0.1c-0.4,0-0.4,0-0.1,0
							c0.4-0.1,0.7-0.1,1-0.1c0.3-0.1,0.3-0.1,0.1-0.1c-2,0-2.6-0.2-2-0.5c0.1-0.1,0.2-0.2,0.3-0.2c1.3,0,1.9-0.1,1.8-0.2
							c-0.2-0.2,0.5-0.2,2-0.1c2.6-0.2,3-0.4,1.3-0.6l-0.6,0c-2.8,0.1-3.4,0.1-2-0.1c1-0.1,2-0.2,3.1-0.2c1.9,0.1,2.6,0.1,2.3-0.1
							c-0.2-0.1-0.6-0.2-1.4-0.3c-2.7,0.4-4.6,0.4-5.5,0l0.2,0c2.7,0,4.5,0,5.3-0.3c0.3,0,0.5,0,0.5,0c0.3-0.1,0.5-0.1,0.6-0.1
							c1.3-0.1,1.8-0.1,1.5-0.2l-0.2,0c1.3-0.1,2.8-0.2,4.6-0.1l0.5,0c-0.1-0.1,0.1-0.2,0.6-0.2c0.2,0,0.5-0.1,0.8-0.1
							c0.3,0,0.4,0,0.4-0.1c0,0,0-0.1-0.1-0.1c-0.2,0-0.2,0,0.1-0.1c0.4-0.1,31-0.1,31.6-0.1c0.4,0,0.7,0,0.9,0c1.9,0,3.1,0,3.4-0.1
							c0.2,0,0.3,0,0.4-0.1c1.3,0,2.4,0.1,3.4,0.2c0.8,0.1,2,0.2,3.4,0.3c2.6,0.2,4,0.1,4.3-0.2l0-0.1c0.4,0.1,0.6,0.1,0.8,0.1
							l1.8,0c-1.6-0.1-2.1-0.2-1.5-0.3c1.3-0.2,2.5-0.2,3.5-0.2l0.5,0.1l-0.6,0c0.6,0.1,1.6,0.2,3.1,0.2c2.1,0,2,0-0.2,0.2
							c-0.5,0.1-0.9,0.1-1.4,0.1c-1.1,0.1-2.5,0.2-4.3,0.2c-0.7,0-1.1,0-1.5,0.1c-1.4,0.2-2.6,0.2-3.6,0.1c0.9-0.1,0.5-0.2-1.4-0.2
							c-0.5,0-0.9,0-1.3,0l-0.5,0c-1.1,0-1.1,0.2,0.1,0.3c-3.1,0-4.7,0-4.9-0.1c-0.2-0.1-0.5-0.2-0.8-0.3l-0.1,0
							c1.7,0.1,2.5,0.1,2.5-0.1c-0.9-0.1-2.6,0-5,0.1c-0.4,0-0.6,0-0.5,0c0.3,0.1,0.6,0.1,1.1,0.2l0.2,0c-1.3,0.1-1.8,0.1-1.3,0.2
							c0.7,0.1,0.9,0.3,0.7,0.6c1,0,2-0.1,2.9-0.1c0.4,0,0.8,0,1,0c2.3,0,2.7,0,1.2,0.2l-0.5,0.1c0.3,0,0.7,0,1.1,0.1l0.5,0
							c-2.2,0-2.5,0.1-0.9,0.2c0.7,0.1,1.4,0.1,2.2,0.1c2.1,0,3.2,0,3.6-0.2c0.2,0,0.4,0,0.7-0.1c0.3,0,0.7,0,1.1,0
							c0.7,0.1,1.5,0,2.5-0.2c-0.1,0.2,0.9,0.2,3.1,0.2c1.8-0.1,2.6-0.2,2.5-0.3l0-0.1c2.8-0.1,4-0.2,3.5-0.5
							c0.2-0.1,0.8-0.1,1.7-0.1c1.1,0.2,2.2,0.2,3.5,0.1c0.3-0.1,0.5-0.1,0.5-0.1c0.1-0.2,0.9-0.3,2.4-0.3l0.6,0
							c1.6-0.2,3.8-0.3,6.5-0.2c0.4,0,0.6,0.1,0.8,0c2.1-0.1,3.5-0.2,4.4-0.1c0.4,0,0.7,0,0.9,0c1.4-0.1,2,0,1.8,0.1
							c-0.1,0-0.2,0-0.2,0.1c0.5,0.2,1.3,0.2,2.5,0c0.3,0,0.4,0,0.4,0c-0.2-0.3,0.2-0.5,1.4-0.6l0.5,0c-1.9,0-2.3-0.1-1.1-0.2l0.1,0
							c0.7-0.1,0.5-0.2-0.6-0.2c-2.2,0-2.6,0.1-1,0.1c-0.7,0.1-1.7,0.1-3.1,0.2l-0.9,0c0-0.2,0.8-0.3,2.4-0.4l0.1,0
							c0.8-0.2,0.2-0.3-1.8-0.3c-0.4-0.1-0.1-0.2,0.9-0.2c0.7,0,1.1,0,1.1-0.1c0.8-0.2,1.9-0.3,3.5-0.2l0.6,0c0.6,0,0.9-0.1,0.9-0.1
							c0.8-0.3,0-0.4-2.2-0.1c-1.5-0.1-1.1-0.2,1-0.2c0.4,0,0.8,0,1.1,0c2.8-0.2,4.3-0.1,4.6,0c0,0.1,0,0.1-0.1,0.1
							c-0.1,0.2,0.1,0.3,0.7,0.4c-0.3,0-0.4,0-0.3,0.1c0.7,0.1,1.1,0.1,1.1,0c0-0.2,1.1-0.2,3.3-0.1l0.6,0c0.9-0.1,2-0.1,3.5-0.2
							l1-0.1c0.5,0,1.4,0,2.6,0c0-0.2-0.5-0.3-1.7-0.2c-0.7,0-1,0-1.1,0c0,0-0.1,0-0.1,0l18.3,0.2c-0.7,0.1-1.2,0.2-1.7,0.2
							c0.5,0,0.9,0,1.2,0c-0.1,0-0.1,0.1-0.1,0.2c0.4-0.1,0.8-0.1,1.2-0.1c0.6,0,0.9-0.1,1-0.2c0.6,0,0.8-0.1,0.4-0.2l-43.2,3.3
							c-0.1,0-0.1,0.1-0.2,0.1c0.9,0.2,2.3,0.4,4.2,0.4c1,0,2,0,3,0.1c0.1,0,0.3,0,0.5-0.1c1-0.1,1.8-0.2,2.7-0.3
							c0.3,0,0.5-0.1,0.5-0.1l0.4,0c0.1,0,0.2-0.1,0.2-0.1c0.1-0.2-0.1-0.3-0.5-0.4c0,0-0.1-0.1-0.1-0.1c-0.4-0.1-0.9-0.2-1.6-0.2
							c0.6-0.2,1.5-0.2,2.9-0.2c0,0.1,0.1,0.2,0.3,0.2c0.5,0.1,0.6,0,0.3-0.2c-0.8-0.4-0.7-0.8,0.4-1.2c0.6-0.2,0.6-0.2-0.1-0.2
							c-0.8,0-1.4-0.1-2-0.1c-0.1,0-0.1,0-0.2,0c-0.5,0-0.9,0-1.3,0c0.4-0.1,0.8-0.1,1.3-0.2l-2.6-0.1c-0.5,0-0.9-0.1-1.2-0.2
							c-0.2,0-0.3,0-0.2-0.1c0.1-0.1,0.4-0.2,0.7-0.1c0.8,0,1.4,0.1,2,0.3c1.5,0.2,2.8,0.2,4-0.2c0.4,0.2,1,0.3,1.7,0.3
							c0.3,0,0.4,0,0.4,0c0,0.1,0.1,0.1,0.1,0.2c0,0.1,0,0.1,0,0.2c0.1,0.1,0.1,0.2,0.2,0.2c0.1,0,0.2-0.1,0.3-0.1
							c0,0,0.1-0.1,0.1-0.2c0.1,0,0.1,0,0.2,0c0.1-0.1,0.5-0.2,1.1-0.2c0.8-0.1,1.5-0.2,2.1-0.1c0.4-0.1,0.7-0.2,1-0.4
							c-1.1,0-0.9-0.1,0.6-0.4c0.2,0,0.4,0,0.6,0l0.8-0.5l5.8-0.1c0.8,0.8,1.9,1,3.2,0.8c0.2-0.1,0.4-0.2,0.6-0.4c0-0.1,0-0.2,0-0.3
							c0-0.2-0.1-0.4-0.1-0.6c-0.3,0-0.8,0-1.4,0.1c0-0.2-0.3-0.2-1-0.1c-1.3,0.3-2,0.2-2.1-0.2l0-0.1c-1,0.1-1.9,0.1-2.8,0
							c-0.7-0.1-0.8-0.2-0.2-0.3c0.2-0.1,0.4-0.1,0.4,0c0.3,0,0.7,0,1,0c0.5,0,1,0.1,1.6,0.1c2.7,0,4.6-0.2,5.5-0.4l0.3,0
							c1.4,0.2,2.4,0.1,2.9-0.3c0.6-0.2,1.5-0.2,2.8-0.2c2.2,0.1,4.1-0.1,5.9-0.4c0.3,0,0.6,0,1,0l0,0l-3.2-0.4
							c-0.2-0.6-0.5-1.1-0.9-1.5c0,0-0.1-0.1-0.1-0.1c-0.3,0-0.6,0.1-0.8,0.2l-0.6-0.6c0.6,0,1.1,0.1,1.5,0.4c2.1-0.4,4.3-0.7,6.6-1
							c-0.8-0.1-1.6-0.2-2.3-0.2c-1,0.2-2.3,0.3-4.1,0.3c-2,0-3.5,0.2-4.8,0.4l-0.4,0c0.3-0.2-0.2-0.3-1.3-0.3
							c-1.1,0.2-2.1,0.4-3.1,0.6l-0.3,0.1c0.1-0.1,0.1-0.2,0-0.3c0.7,0,1.4-0.1,2-0.2c0-0.1-0.1-0.1-0.1-0.1
							c-0.3-0.1-0.6-0.2-0.8-0.1l-0.2-0.1c2.5-0.3,4.9-0.5,7.5-0.7c1.3-0.1,2.3,0,3.1,0c1.5,0.2,2.4,0.1,2.8-0.3
							c-1.8-0.1-4,0-6.5,0.1c-2.2,0.1-4.2,0.1-5.8-0.1l-0.4,0c-0.5,0.3-1.3,0.4-2.6,0.3c-0.4,0.1-0.8,0.1-1.2,0.1
							c-2.8,0.2-4.6,0.1-5.3-0.4c-0.4,0.1-0.7,0.1-0.8,0.2c-0.7,0.4-1.3,0.4-1.9,0.1c-0.2-0.1-0.1-0.2,0.1-0.2
							c0.3-0.1,0.8-0.3,1.4-0.5c-0.2,0-0.4-0.1-0.6,0c-0.2,0-0.4,0-0.6,0c-0.7,0-0.8-0.1-0.3-0.3l0.2-0.1c2.4-0.3,4.3-0.8,5.8-1.5
							c2-0.2,3.3-0.2,3.9,0.1c1,0.5,1.7,0.4,2.1-0.3c-0.8,0.1-1.2,0-1.2-0.1l0-0.2c-1.1,0.1-2.3,0.1-3.5,0l-0.3,0
							c0,0.3-0.6,0.4-2,0.3c-0.9-0.1-1.9,0-2.9,0.2c-1.3,0.3-2.4,0.7-3.5,1.1c-1.1,0.3-2.2,0.4-3.4,0.3c-0.2,0-0.3,0-0.4,0
							c-0.2-0.1-0.4-0.1-0.5-0.2c-1-0.2-1.5-0.5-1.4-1c0-0.1,0.1-0.1,0.2-0.1c1.4,0.1,2,0,1.9-0.4c0-0.1,0-0.1,0.1-0.1
							c0.3-0.1,0.5-0.1,0.5-0.2c0.1-0.1,0.1-0.2-0.2-0.2c-1.5-0.1-1.3-0.2,0.6-0.2c0.2,0,0.3,0,0.3,0c0,0.5,0.7,0.6,2.1,0.3
							c-0.1-0.3-0.2-0.6-0.4-0.9l-0.1-0.1c1.1-0.1,1.2-0.2,0.4-0.3c-0.2,0-0.4-0.1-0.5-0.1c-0.2-0.2-0.3-0.2-0.5-0.3
							c-0.8-0.2-0.9-0.4-0.4-0.5c0.2,0,0.3-0.1,0.3-0.2c-0.1-0.5,0.4-0.8,1.3-1.1c-0.7-0.2-0.6-0.5,0.1-0.9c0.5-0.3,1.6-0.5,3.3-0.6
							l0.3-0.1c-0.8-0.1-0.9-0.3-0.4-0.4c1.7,0,2.4,0.1,2,0.3c-0.2,0.1-0.2,0.2-0.2,0.2c0.7,0,1.2,0,1.6,0.1c-0.8-0.3-0.8-0.6,0-0.9
							c1.6-0.2,1.4-0.3-0.5-0.3l-0.3,0c-0.2,0.1-0.4,0.3-0.6,0.4l-0.3,0c-2.4,0-2.8-0.1-1.2-0.4c0.2-0.1,0.4-0.3,0.7-0.4
							c0.3-0.1,0.6-0.1,0.9-0.2c1.3-0.2,2.3-0.3,3-0.1c0.2,0.1,0.4,0.1,0.6,0.1c0.2,0,0.3-0.1,0.3-0.1c0.7,0.1,1.8,0.2,3.2,0
							c0.2,0,0.4,0,0.7,0c1.1,0.1,2.3,0.1,3.4,0c0.9,0,1.9-0.1,2.8-0.2c2.7-0.3,4.5-0.2,5.4,0.2c-0.9,0.2-0.7,0.2,0.6,0.1
							c0.2,0,0.4,0,0.6-0.1c0.5-0.2,1.3-0.2,2.4-0.2c0.4,0,0.6,0,0.8-0.1l0.3-0.1c1.8-0.1,2.8-0.3,2.9-0.8l0,0
							c-0.6,0.1-1.2,0.1-1.7,0.1l-0.3,0c-0.7,0.3-1.3,0.3-1.8,0.1l-0.2-0.1c-1.6,0.1-2.5,0-2.7-0.5c-0.1-0.1-0.2-0.1-0.4-0.1
							c-1.6,0-2,0.1-1.1,0.2c1.3,0.1,1.3,0.3,0,0.5c-0.6,0.1-1.1,0.2-1.7,0.3c-2.1,0.2-3.8,0.3-5.3,0.2c-1.5-0.1-3-0.2-4.6-0.2
							c-0.4,0-0.8,0-1.2,0.1c-1.3,0.1-1.8,0-1.5-0.4c0.3-0.2-0.3-0.2-1.6,0c-0.2,0.1-0.3,0.2-0.5,0.2c-0.2,0-0.4,0-0.7-0.1
							c-1.5-0.1-2.6-0.3-3.4-0.7c-0.1-0.1-0.2-0.1-0.4-0.3c-0.2-0.1-0.4-0.3-0.6-0.4l0.2,0c1,0,2.1,0,3.3-0.1
							c0.3,0.2,0.5,0.2,0.8-0.1l0.1,0c-0.6-0.1-1.2-0.1-1.8-0.2c-0.3,0-0.5-0.1-0.8-0.1c-1.9-0.2-1.3-0.2,1.6-0.2c0.1,0,0.1,0,0.2,0
							c0.2,0,0.4,0.1,0.5,0.1c-0.1,0-0.1,0.1-0.1,0.1l-0.1,0.1c0.8,0.1,1,0.3,0.4,0.6c0.9-0.1,1.4-0.3,1.6-0.5
							c0.1-0.1,0-0.2-0.2-0.3c-0.8-0.3-1.3-0.3-1.6-0.1c0,0-0.1,0-0.2,0c-1.5-0.1-1.3-0.1,0.6-0.2c0.2,0,0.5,0,0.7,0.1
							c1.8-0.1,2.2,0,1.2,0.2c-1-0.1-1.2-0.1-0.5,0c0.1,0.1,0.2,0.1,0.3,0.2l0.2,0.1c2.1-0.1,4.2-0.2,6.5-0.1c1.3,0,1.7,0.1,1.2,0.3
							c1.5-0.1,2.2,0,2.4,0.3c0.2,0,0.3-0.1,0.3-0.1c0.1-0.2,0.5-0.2,1.2-0.1c0.7,0.1,1.5,0.1,2.4,0.1c0.5,0,1,0,1.5,0
							c0.3,0,0.5,0,0.7,0l-0.5-0.5c-0.3,0-0.4,0-0.5-0.1l-0.2,0c-0.4,0-0.9,0-1.6-0.1c-0.1-0.1-0.2-0.1-0.3-0.2l-0.2-0.1
							c-1.1,0.1-2.1,0.1-2.9,0c-0.2,0-0.3,0-0.5,0l-0.4,0c-0.1,0.3-0.6,0.4-1.6,0.2c-0.3,0-0.6,0-1,0c-0.2,0-0.3,0-0.4,0
							c-1.2-0.1-2.6-0.2-4.3-0.2c-0.2,0-0.5,0-0.7,0c-1.2,0-1.7,0-1.7-0.1c0-0.1,0.2-0.1,0.5-0.2c2-0.1,2.2-0.1,0.6-0.2l-0.3,0
							c-0.6,0.1-1.1,0.1-1.6,0c-0.1,0-0.3,0-0.6,0c-2.3,0-4.2-0.1-5.8-0.3c-0.2,0-0.4-0.1-0.6-0.1l-0.3-0.1c0.7,0,1.5,0,2.4-0.1
							L221.9,26.5 M228.9,42.6c-1.6-0.2-1.6-0.4,0.2-0.6c0.4,0.2,1,0.2,1.8-0.1l0.3-0.1c0,0.1,0,0.1,0.1,0.2l-0.2-0.1
							C231.4,42.2,230.7,42.4,228.9,42.6 M227.2,41.7c0.2,0,0.3,0,0.5,0c-0.2,0-0.5,0-0.7,0C227,41.7,227.1,41.7,227.2,41.7
							 M232,42.1c-0.2-0.1-0.4-0.1-0.6-0.1l0,0c0.1,0,0.3,0,0.6,0c0.1,0,0.1,0,0.2,0l0,0L232,42.1 M203.5,50.6L203.5,50.6
							c-0.1,0-0.2,0-0.3,0l-0.1-0.7c0.1,0,0.2,0,0.3,0c0.2,0,0.3,0,0.5,0c1,0.1,1.8,0.2,2.5,0.4c-0.5,0-1,0-1.5,0.1
							C204,50.4,203.6,50.5,203.5,50.6 M27.3,46.2c0.1,0,0.2,0,0.3-0.1l0.2,0c0.1,0.1,0.3,0.1,0.4,0.1
							C27.9,46.2,27.6,46.2,27.3,46.2 M223.4,24.7c0.2,0,0.1-0.1,0-0.1c-0.2,0-0.4-0.1-0.7-0.1c-1.1-0.2-1.4,0-0.7,0.4
							C222.7,24.9,223.2,24.8,223.4,24.7 M221.1,16.9c1.6,0,2-0.2,1.1-0.4C221.4,16.4,221.1,16.6,221.1,16.9 M226.4,18.9
							c0.2,0,0.4,0,0.6,0.1c0.2,0.1,0.3,0.1,0.5,0.1c0.2,0,0.5,0,0.9,0c1.1,0,1.8,0,2.1,0c0.4-0.2,1-0.2,1.6,0
							c-0.3-0.2-0.1-0.3,0.6-0.3l0.6,0.1c-0.2,0-0.6-0.1-1.2-0.2c-0.3-0.3-1.1-0.4-2.4-0.4c-1.1-0.1-1.7,0-1.9,0
							c-0.1,0.1-0.3,0.1-0.5,0.1c-0.9,0-1.9,0.1-2.8,0.1c-0.9,0.1-1.9,0.1-2.9,0c0.3-0.2,0.4-0.4,0.4-0.6c0.1-0.1,0-0.1-0.2-0.1
							c-1-0.1-1.9-0.2-2.5-0.5c-1.1-0.4-2.8-0.6-5.1-0.7c-2.3-0.1-4.3-0.3-6-0.6c-0.2-0.1-0.4-0.1-0.5-0.1c-1.1,0.1-1.7,0.1-1.9,0.1
							c-0.2-0.1-0.5-0.1-0.7-0.1c-0.4,0-0.7,0-0.9,0.1c-0.5,0.1-1.2,0.1-2,0.1c-0.8,0-1.6,0-2.4,0.1c-1.4,0,46.7-3.3,46.1-3.5
							c-0.5-0.1-1.1-0.1-1.8-0.1c-0.2,0-0.3,0-0.3,0c0.1,0.2-0.1,0.3-0.8,0.3c-1.6,0-3.2,0-4.7,0c-1,0-1.5,0.1-1.6,0.2
							c-0.9,0-1.8-0.1-2.6-0.1c-0.8,0-1.7,0-2.4,0l-0.6-0.1l-0.1,0c-0.3,0-0.5,0-0.8,0l0,0.1c-1.5,0-2.9,0-4,0.2c1,0,1.9,0,2.7,0
							c0.6,0,1.1,0,1.7,0c1.8,0,3.5,0.1,5,0.2c0.5,0,1,0,1.6,0c1.9,0.1,3.9,0.1,6.1,0.1c-0.1,0.1-0.4,0.2-0.7,0.3
							c-0.6,0.1-1.2,0.1-1.8,0.1c-1.8,0.2-3.2,0.2-4.1,0.1c-0.8-0.1-2-0.1-3.4-0.1c-1,0-1.9,0-2.8,0l0.1,0.6c0.4,0,0.7,0,1,0
							c1.3,0.1,2.9,0.1,4.7,0.1c0.8-0.1,1.5-0.1,2.3-0.2c0.4,0,0.7-0.1,1-0.1c1.6-0.3,3.5-0.6,5.8-0.8c0.2,0.1,0.4,0.1,0.6,0.1
							l0-0.1c0.2,0-48.6,3.2-48.3,3.2c0.8-0.2,1.2-0.1,1.2,0.1c0,0,0.1,0.1,0.3,0.1c1.1,0.2,2,0.2,2.6-0.2c3-0.2,5.1-0.2,6.1,0.1
							c0.2,0.1,0.3,0.1,0.5,0.1c2.4,0,4,0.3,4.7,0.7c0.2,0,0.3,0,0.5-0.1c0.5-0.1,1.3-0.1,2.4,0.1c0.5,0.1,0.9,0.1,1.5,0.2
							c0.3,0,0.5,0.1,0.7,0.1c0.2,0.1,0.4,0.1,0.6,0.1c1.1,0.1,1.5,0.4,1.1,0.9c-0.4,0-0.8,0-1.2,0c-1.6,0-2,0.1-1.1,0.1
							c0.4,0,0.7,0.1,1,0.1c0.2,0.1,0.3,0.1,0.5,0.2c0.5,0.2,1,0.4,1.4,0.6c0.2,0.1,0.5,0.2,0.9,0.2c2.9,0.5,5.5,1,7.9,1.7
							c-1.3,0.1-1.7,0.2-1.2,0.3c0.8,0.1,1.4,0.1,1.9-0.2c0.1,0,0.2-0.1,0.3-0.1c0.6,0.1,0.9,0.2,1.1,0.3l0.1,0
							c1.4-0.2,2.1-0.1,2,0.3c0.2-0.1,0.4-0.1,0.6-0.1c1-0.2,1.2-0.3,0.6-0.3c-1.6-0.1-3-0.2-4.2-0.5c-1.8-0.3-3.6-0.6-5.6-0.8
							c-0.1-0.2-0.3-0.3-0.6-0.3l-0.2-0.1c0.6-0.1,0.5-0.2-0.3-0.2c-0.4,0-0.7,0-0.9-0.1c0,0,0,0,0-0.1c0.1-0.2-0.3-0.3-1-0.3
							c-0.8-0.2-0.6-0.3,0.5-0.4c0.6-0.1,1.2-0.2,1.8-0.3C225.1,18.8,225.9,18.8,226.4,18.9 M227.1,14.5c-0.2,0.3-0.3,0.6-0.4,0.9
							c1.5-0.2,2.2-0.4,1.9-0.6c-0.2-0.2-0.4-0.3-0.6-0.4c-0.4-0.2-0.8-0.3-1.1-0.2c-1,0.3-1.1,0.4-0.3,0.3L227.1,14.5 M226.4,15.7
							l-0.3,0c-1.3,0.2-1.3,0.4,0.1,0.5C226.9,16.1,227,15.9,226.4,15.7 M223.9,10.8c-1.1-0.2-1.8-0.1-2,0.2c0.7,0,1.3-0.1,1.7-0.1
							L223.9,10.8 M221.5,12.4c0.2,0,0.4,0,0.4,0l0.2-0.1c0.9,0.1,1.5,0,1.9-0.1c0.1,0,0.2,0,0.2,0c0.9,0.1,1.8,0,2.6-0.2
							c-0.2,0-0.4,0-0.5,0c-2.8,0-4.9-0.3-6.1-0.7c0.7,0.3,0.6,0.5-0.5,0.6c-1.1,0-2.1,0.1-3,0.2l-0.5,0.1c0.1,0.1,0.7,0.2,1.8,0.1
							C220,12.1,221.2,12.2,221.5,12.4 M231.9,13.5C232,13.5,232,13.5,231.9,13.5c-0.5-0.2-1.3-0.3-2.2-0.1
							c-0.3,0.1-0.5,0.1-0.6,0.1c-1.2-0.3-2.3-0.3-3.3,0c-0.6,0.1-0.4,0.3,0.7,0.5c0.5-0.2,1.3-0.3,2.2-0.1c0.5,0,1.1-0.1,1.9-0.3
							C231.4,13.7,231.9,13.7,231.9,13.5 M244,24.5l0.4-0.2l0-0.1C243.8,24.3,243.6,24.4,244,24.5 M240.4,26.2
							c0.4-0.2,0.4-0.3-0.1-0.3c-1.2,0-2,0-2.4,0.1c-2.2,0.2-2.5,0.4-1,0.7c0.7,0,1-0.1,0.9-0.3c0-0.1,0.1-0.1,0.3-0.1
							c0.3-0.1,0.5-0.1,0.6-0.1C239.5,26.3,240,26.3,240.4,26.2 M240.8,26.6C241,26.6,241,26.5,240.8,26.6c-0.3-0.1-0.6-0.1-0.9-0.1
							c-1,0.1-1.2,0.3-0.6,0.4C240.1,26.9,240.6,26.8,240.8,26.6 M244.6,23.6l0.1-0.3c-1.1-0.1-1.7,0.1-1.7,0.5
							C243.6,23.8,244.2,23.7,244.6,23.6 M244.9,22.9L244.9,22.9l0.4-0.3C245,22.7,244.9,22.8,244.9,22.9 M241.1,20.3l0.3,0
							c0.5,0.1,0.8,0.1,0.9-0.1c0.2-0.2-0.2-0.3-1.3-0.2c-0.2,0-0.4,0-0.6-0.1c-0.6,0-1.1,0-1.6,0c-0.5,0-1.1,0-1.9,0
							c-2.1,0.2-3.2,0.1-3.5-0.2c-1.3,0.1-1.5,0.2-0.7,0.4c0.3,0,1.1,0,2.5-0.1c1-0.1,1.7,0,2.2,0.1c0.1,0,0.4,0,0.8,0
							c1,0,1.5,0,1.2,0.2C239.8,20.4,240.4,20.3,241.1,20.3 M240.5,15.6l0.4,0c-0.1-0.1-0.2-0.1-0.4-0.2
							C240.5,15.5,240.5,15.6,240.5,15.6 M242.3,16.2c0.1-0.1,0.2-0.1,0.3-0.2c-0.3,0.1-0.5,0.1-0.6,0.1c-0.1,0.1-0.1,0.1-0.1,0.1
							C242.1,16.3,242.2,16.3,242.3,16.2 M244,15.5c-0.2,0-0.5,0-0.8,0.1c-0.1,0-0.3,0-0.5,0c-1.5,0.1-1.6,0.2-0.4,0.2
							c0.1,0,0.3,0,0.4,0c0.2,0,0.3,0,0.4,0C243.5,15.7,243.7,15.6,244,15.5 M241,12.2l-0.3,0c-0.6,0.2-1.7,0.3-3.2,0.3
							c-2.4,0-2.6,0.1-0.8,0.4c1,0.2,1.6,0.4,1.6,0.8l0.3,0C239.1,13.2,239.9,12.7,241,12.2 M262.9,50l-3.1,0.1l2.6,0.3
							C262.6,50.2,262.7,50.1,262.9,50 M278.8,54.9c-0.2,0-0.4,0-0.5,0c-0.9,0.1-1,0.2-0.1,0.3C280.5,55.1,280.7,55,278.8,54.9
							 M261.1,33.3l0.6,0c-1.1-0.6-1.9-0.6-2.4,0.2C260,33.4,260.6,33.3,261.1,33.3 M272.2,32.8l0.3-0.2c-2-0.1-3.3,0.1-3.8,0.5
							C270.3,33.1,271.5,33,272.2,32.8 M271,30.8c0.1,0.1,0.2,0.2,0.4,0.3c0.2-0.1,0.4-0.2,0.6-0.2c0.4-0.1,0.6-0.1,0.7-0.2
							c0,0,0.1,0,0.1-0.1C272.2,30.7,271.6,30.7,271,30.8 M273.7,0.4c0.8-0.1,1.4-0.2,1.8-0.3l0.2-0.1C274.1-0.1,273.5,0,273.7,0.4
							 M229.9,3.4c2.9-0.1,4.7-0.3,5.4-0.7l0.1-0.1C232.6,2.7,230.7,2.9,229.9,3.4 M200.5,3.5c-0.8,0-1.2,0-1.2,0.2
							c0.1,0.1,0.2,0.2,0.5,0.3c0.4,0.1,0.8,0.3,1.2,0.5c0.6,0.3,1.4,0.6,2.2,0.9l0.3,0c-0.3-0.3-0.8-0.5-1.6-0.7
							c0-0.3,0-0.5,0.1-0.7c0,0,0-0.1,0-0.1C201.6,3.5,201.1,3.4,200.5,3.5 M183.6,3.4c0.7-0.1,1.2-0.1,1.6-0.2
							c1.2-0.2,2.2-0.4,3-0.7c0.6-0.2,1.1-0.4,1.4-0.6c0.6-0.3,0.5-0.5-0.1-0.5c1.2-0.2,1.2-0.3-0.1-0.2c-0.3,0-0.5,0-0.7-0.1
							c-2.7-0.1-4.1,0-4.3,0.3c0.4,0.1,0.7,0.1,1,0c0.3,0,0.7,0,1.1,0c1.7-0.1,2.3-0.1,1.7,0.1C186.3,2.2,184.8,2.8,183.6,3.4
							 M177.7,5c-2.1,0.1-3.1,0.3-3,0.7c1.7-0.2,2.6-0.4,2.9-0.6L177.7,5 M158,8.3c0,0.1,0,0.1,0.1,0.1c1.7,0.3,2.7,0.6,3.1,1.1
							c1.5,0.1,2.9,0.2,4,0.3c0.5,0.1,0.9,0.2,1.2,0.3c0.3,0,0.6,0,0.8-0.1c0.8,0,1.6,0,2.4,0c0.6,0.1,1.1,0.1,1.7,0
							c1.1,0.1,2.2,0.1,3.3,0.1c1.1,0.1,1.8,0.2,2,0.3c1.9-0.1,2.2-0.2,0.9-0.4l-0.5-0.1c1.7-0.1,2.6-0.3,2.9-0.7c0-0.1,0-0.1,0-0.1
							c0-0.1-0.3-0.1-0.8-0.1c-2.4-0.1-3-0.2-1.7-0.3c-1.4-0.1-1.5-0.3-0.4-0.4c1.5-0.2,1.7-0.3,0.7-0.3c-0.3-0.1-0.6-0.1-0.9-0.2
							c-0.4,0-0.6,0-0.6,0c-0.3-0.3-1.1-0.6-2.2-0.7c-0.3,0-0.5-0.1-0.6-0.1c-0.3,0-0.6-0.1-0.9-0.1c-1.1,0-1.9,0-2.5-0.1
							c-1.5-0.2-2.9-0.2-4.2,0c-1.1-0.1-2.1,0-2.9,0.1c-0.7,0.1-1.2,0.2-1.5,0.4c-0.1,0-0.1,0-0.2,0.1c-0.3,0.1-0.7,0.3-1.3,0.4
							C159.2,7.9,158.6,8.1,158,8.3 M118.7,2.3c-1.1,0.3-0.7,0.5,1,0.7c0.5,0.1,0.8,0.2,0.9,0.3c0.5,0.4,0.4,0.8-0.4,1.2
							c2.6-0.1,3.7-0.3,3.4-0.6c0,0,0-0.1,0.1-0.1c-0.2-0.4,0.2-0.7,1.3-1c-0.3,0-0.6-0.1-0.7-0.1c-1.6,0.1-2.5,0.1-2.6-0.1
							C121.2,2.3,120.3,2.2,118.7,2.3 M114.8,8.4l-0.6,0c0.3,0.3-0.3,0.5-1.9,0.7l0.3,0c1,0.2,1.7,0.4,2.3,0.6c0.7,0,1.2,0,1.5-0.1
							c0.4-0.1,0.7-0.1,0.9-0.2c0.4-0.1,0.7-0.3,0.8-0.4C118.7,8.7,117.6,8.5,114.8,8.4 M85.9,10.2l-0.5-0.2
							c-1.5,0.2-1.5,0.4-0.2,0.6c1.1,0.2,0.9,0.4-0.6,0.7c0.3,0,0.6,0,0.9,0c0.4-0.1,0.8-0.1,1.1-0.1c1.4,0,2-0.1,1.8-0.2
							C87.8,10.7,86.9,10.4,85.9,10.2 M72.6,6.9c1.6-0.2,1.5-0.3-0.1-0.4c-0.4,0-0.6-0.1-0.6-0.1C70.6,6.5,70.8,6.7,72.6,6.9
							 M56.3,12.7c1.9,0,3.4-0.1,4.7-0.3c1.7-0.2,2-0.3,1.1-0.3c-0.6,0-1,0-1.3,0C59.7,12.4,58.2,12.6,56.3,12.7z"/>
					</g>
				</g>
			</g>
		</g>
	</g>
	<g>
		<path class="st1" d="M174.7,25.2c-0.1,1.1-0.1,2.2-0.3,3.3c0,0.3-0.2,0.5-0.4,0.8l-0.1,0.1c-0.2,0.2-0.3,0.4-0.5,0.6l-0.1,0.1
			c0-0.2-0.1-0.5-0.1-0.7c-0.2-1.7-0.5-3.2-0.4-4.8c0.2,0,0.3,0,0.5-0.1c0.3-0.1,0.6-0.1,0.9-0.1c0.2,0,0.4,0,0.5,0.1
			c0.1,0.1,0.1,0.2,0.1,0.4L174.7,25.2z M178,39.9l0-0.2c-0.1-0.4-0.2-0.7-0.3-0.9c-0.1-0.2-0.2-0.4-0.2-0.7
			c-0.2-0.8-0.4-1.7-0.6-2.5c-0.4-1.6-0.8-3.1-1.1-4.7c-0.1-0.3-0.1-0.6,0-0.8c0.9-1.6,0.8-3.4,0.8-5.1c0-0.2,0-0.5,0-0.7
			c0-0.6-0.2-1-0.6-1.3c-0.4-0.4-1.1-0.5-2-0.4c-0.2,0-0.3,0.1-0.5,0.1c-0.4,0.1-0.7,0.2-1,0.1c-0.1,0-0.2,0-0.3-0.1
			c-0.2-0.1-0.6-0.2-0.8,0.1c-0.3,0.3-0.5,0.7-0.5,1c0,1.1,0,2.2,0.1,3.4c0,0.1,0,0.3,0,0.4c0,0.4,0.1,0.7,0,1.1
			c-0.1,1.1-0.1,2.2,0,3.2c0.3,2,0.5,4.1,0.3,6.3c-0.1,0.5,0,1,0,1.4c0.2,1,0.7,1.1,1.9,1l0.1,0l0-0.1c0.5-3.2,0.3-6.4,0.1-9.1
			l0.8,0c0.1,0.4,0.2,0.8,0.3,1.1c0.3,0.9,0.5,1.8,0.7,2.7c0.1,0.6,0.3,1.1,0.4,1.6c0.2,0.8,0.4,1.6,0.6,2.6
			c0.1,0.4,0.1,0.5,0.3,0.8l0.1,0.1c0.1,0.2,0.4,0.5,0.7,0.5l0.2-0.1C178.2,40.6,178.1,40.2,178,39.9z M162.9,34.6
			c0-0.2,0-0.3,0-0.5c0-0.5,0-1,0-1.5c0.1-1.4,0.2-2.9,0.3-4.3l0.2-1.9c0-0.5,0.4-0.7,0.7-0.8c0.4-0.2,0.9-0.2,1.4-0.2l0.2,0.2
			c0.1,0.4,0.2,0.8,0.3,1.2c0,1.6,0.1,3.1,0.1,4.7l0,2.2c0,0.2,0,0.4,0,0.6l0,0.1C165.1,34.6,164.1,34.6,162.9,34.6z M168.2,38
			c0-0.5,0-1,0-1.4c0-0.9,0-1.8,0-2.7l0-1.4c0-2.2,0-4.4-0.2-6.6c-0.1-0.9-0.5-1.3-1-1.7c-0.2-0.1-0.3-0.3-0.5-0.4l-0.1-0.1
			c-1-0.6-1.9-0.7-2.8-0.1c-0.9,0.5-1.9,1.3-1.9,2.8c0,0.1,0,0.2-0.1,0.3l-0.1,0.3c-0.1,0.3-0.1,0.7-0.2,1c-0.2,0.8-0.4,1.7-0.4,2.6
			c0,1.1-0.1,2.2-0.1,3.3c0,0.6,0,1.2-0.1,1.8c0,0.1,0,0.2,0,0.3l0,0.1l0.1,1.1c0.1,0.8,0.1,1.6,0.2,2.3c0,0.4,0.1,0.6,0.1,0.8
			c0,0.1,0.1,0.2,0.1,0.5c0.1,0.3,0.4,0.6,0.7,0.6l0,0c0.2,0,0.5-0.2,0.7-0.5c0.1-0.2,0.2-0.4,0.2-0.6c0-0.2,0-0.4,0-0.5
			c0-0.1,0-0.3,0-0.6l0-2.4c0.1,0,0.3,0,0.4,0c0.5,0,0.9,0,1.4-0.1c0.5-0.1,0.9-0.2,1.3-0.4c0.1,0,0.2-0.1,0.3-0.1l0,0.1
			c0,0.2,0.1,0.5,0.1,0.7c0,0.4,0.1,0.8,0.1,1.2c0,0.5,0.1,0.9,0.1,1.4l0,0.1c0,0.4,0.1,1,0.4,1.3c0.1,0.1,0.3,0.2,0.6,0.1
			c0.7-0.1,0.7-0.9,0.7-1.4C168.3,39,168.3,38.5,168.2,38z M159.2,39.1h-3.9l0-0.1c0-0.1-0.1-0.2-0.1-0.3c-0.1-1.5-0.2-3-0.3-4.5
			l-0.1-1.2c0.1-0.1,0.3-0.1,0.4-0.2c0.3-0.1,0.6-0.2,0.9-0.3c0.7-0.2,1-0.7,1-1.5l0-0.1h-2.3v-5.5c1.8-0.2,2.7-0.8,2.9-2.1l0-0.1
			l-0.1,0l0,0l-0.2-0.1c-1.2,0.2-2.1,0-2.9-0.3c-0.3-0.1-0.7-0.1-1,0.2c-0.4,0.3-0.8,0.9-0.7,1.4c0,0.2,0.1,0.3,0.1,0.5
			c0.1,0.6,0.2,1.3,0.2,1.9c0,0.5,0,1-0.1,1.5c0,0.2-0.1,0.5-0.1,0.7c0,0.1,0,0.3,0,0.4c0,0.3,0,0.6-0.1,0.9c-0.3,1.4-0.3,2.4,0,3.4
			c0.1,0.2,0.1,0.4,0.1,0.6l0,0.1c0,1.7,0.1,3.4,0.1,5c0,0.7,0.3,1.3,0.8,1.6c0.3,0.2,0.6,0.3,1,0.3c0.3,0,0.6-0.1,0.9-0.2
			c0.4-0.2,0.9-0.2,1.3-0.3l0.2,0c0.2,0,0.3,0,0.5,0c0.2,0,0.4,0,0.5,0c0.8-0.1,1.1-0.6,1.1-1.4L159.2,39.1z M149.8,22.8
			c-1-0.3-1.9,0-2.8,0.1c-0.3,0-0.7,0.1-1,0c-0.4-0.2-0.7-0.1-1.1,0.1c-1.4,0.7-1.4,0.8-0.3,1.8c0,1.1,0.1,2.2,0,3.3
			c-0.1,1-0.1,2-0.9,2.8c0,0,0,0.1,0,0.2c0.2,0.4,0.8,0.6,0.8,1.2c0,1.6,0.1,3.2,0.1,4.8c0,1.3,0.2,2.5,0.9,3.6
			c0.6-0.3,0.9-0.8,0.9-1.3c0.3-1.5,0.4-3,0.2-4.6c-0.1-0.9-0.1-1.9-0.2-2.9c1.2-0.2,1.9-0.4,2.1-1.5c-0.6-0.7-1.5-0.5-2.1-0.8
			c0-1.5,0-3.2,0-4.6c1.1-0.2,2.1-0.5,3.1-0.7c0.6-0.1,1-0.5,1.1-1.2C150.4,23.1,150.1,22.9,149.8,22.8z M136.2,24.3
			c0.1-0.9-0.1-1.6-1.2-1.8c-1-0.2-1.5,0.3-1.9,1.2c-0.2,0.4-0.3,0.9-0.4,1.4c-0.4,1.3-1.4,5.9-1.9,5.9c-0.6,0-0.7-1.2-0.9-1.8
			c-0.5-1.7-1-3.5-1.6-5.2c-0.6-1.6-1-1.7-2.7-1.2c-0.1,0.9-0.3,2-0.3,2.9c0.2,4.3,0.3,8.5-0.5,12.7c-0.2,1.2-0.1,2.5,1.3,2.4
			c0.5-0.1,0.7-0.7,0.7-1c0.4-3.9,0.6-6.9,1-11.3c0.8,2.6,1.9,4.7,2.6,7.1c1.4-1.9,1.5-3.3,2.9-4.9c0.1,2.2,0.3,4.3,0.4,6.3
			c0,2-0.7,4,1.3,3.7c0.6-0.1,0.8-1.4,0.8-1.6c0.1-2.2,0-1.1,0-3.3c0-0.5-0.1-1.1-0.1-1.6c0-2.1,0.1-4.3,0.1-6.4
			C136.1,26.6,136.1,25.4,136.2,24.3z M120.3,25.2c-0.1,1.1-0.1,2.2-0.3,3.3c0,0.3-0.2,0.5-0.4,0.8l-0.1,0.1
			c-0.2,0.2-0.3,0.4-0.5,0.6l-0.1,0.1c0-0.2-0.1-0.5-0.1-0.7c-0.2-1.7-0.5-3.2-0.4-4.8c0.2,0,0.3,0,0.5-0.1c0.3-0.1,0.6-0.1,0.9-0.1
			c0.2,0,0.4,0,0.5,0.1c0.1,0.1,0.1,0.2,0.1,0.4L120.3,25.2z M123.6,39.9l0-0.2c-0.1-0.4-0.2-0.7-0.3-0.9c-0.1-0.2-0.2-0.4-0.2-0.7
			c-0.2-0.8-0.4-1.7-0.6-2.5c-0.4-1.6-0.8-3.1-1.1-4.7c-0.1-0.3-0.1-0.6,0-0.8c0.9-1.6,0.8-3.4,0.8-5.1c0-0.2,0-0.5,0-0.7
			c0-0.6-0.2-1-0.6-1.3c-0.4-0.4-1.1-0.5-2-0.4c-0.2,0-0.3,0.1-0.5,0.1c-0.4,0.1-0.7,0.2-1,0.1c-0.1,0-0.2,0-0.3-0.1
			c-0.2-0.1-0.6-0.2-0.8,0.1c-0.3,0.3-0.5,0.7-0.5,1c0,1.1,0,2.2,0.1,3.4c0,0.1,0,0.3,0,0.4c0,0.4,0.1,0.7,0,1.1
			c-0.1,1.1-0.1,2.2,0,3.2c0.3,2,0.5,4.1,0.3,6.3c-0.1,0.5,0,1,0,1.4c0.2,1,0.7,1.1,1.9,1l0.1,0l0-0.1c0.5-3.2,0.3-6.4,0.1-9.1
			l0.8,0c0.1,0.4,0.2,0.8,0.3,1.1c0.3,0.9,0.5,1.8,0.7,2.7c0.1,0.6,0.3,1.1,0.4,1.6c0.2,0.8,0.4,1.6,0.6,2.6
			c0.1,0.4,0.1,0.5,0.3,0.8l0.1,0.1c0.1,0.2,0.4,0.5,0.7,0.5l0.2-0.1C123.7,40.6,123.7,40.2,123.6,39.9z M108.5,34.6
			c0-0.2,0-0.3,0-0.5c0-0.5,0-1,0-1.5c0.1-1.4,0.2-2.9,0.3-4.3l0.2-1.9c0-0.5,0.4-0.7,0.7-0.8c0.4-0.2,0.9-0.2,1.4-0.2l0.2,0.2
			c0.1,0.4,0.2,0.8,0.3,1.2c0,1.6,0.1,3.1,0.1,4.7l0,2.2c0,0.2,0,0.4,0,0.6l0,0.1C110.7,34.6,109.7,34.6,108.5,34.6z M113.8,38
			c0-0.5,0-1,0-1.4c0-0.9,0-1.8,0-2.7l0-1.4c0-2.2,0-4.4-0.2-6.6c-0.1-0.9-0.5-1.3-1-1.7c-0.2-0.1-0.3-0.3-0.5-0.4l-0.1-0.1
			c-1-0.6-1.9-0.7-2.8-0.1c-0.9,0.5-1.9,1.3-1.9,2.8c0,0.1,0,0.2-0.1,0.3l-0.1,0.3c-0.1,0.3-0.1,0.7-0.2,1c-0.2,0.8-0.4,1.7-0.4,2.6
			c0,1.1-0.1,2.2-0.1,3.3c0,0.6,0,1.2-0.1,1.8c0,0.1,0,0.2,0,0.3l0,0.1l0.1,1.1c0.1,0.8,0.1,1.6,0.2,2.3c0,0.4,0.1,0.6,0.1,0.8
			c0,0.1,0.1,0.2,0.1,0.5c0.1,0.3,0.4,0.6,0.7,0.6l0,0c0.2,0,0.5-0.2,0.7-0.5c0.1-0.2,0.2-0.4,0.2-0.6c0-0.2,0-0.4,0-0.5
			c0-0.1,0-0.3,0-0.6l0-2.4c0.1,0,0.3,0,0.4,0c0.5,0,0.9,0,1.4-0.1c0.5-0.1,0.9-0.2,1.3-0.4c0.1,0,0.2-0.1,0.3-0.1l0,0.1
			c0,0.2,0.1,0.5,0.1,0.7c0,0.4,0.1,0.8,0.1,1.2c0,0.5,0.1,0.9,0.1,1.4l0,0.1c0,0.4,0.1,1,0.4,1.3c0.1,0.1,0.3,0.2,0.6,0.1
			c0.7-0.1,0.7-0.9,0.7-1.4C113.8,39,113.8,38.5,113.8,38z M103.3,22.8c-1-0.3-1.9,0-2.8,0.1c-0.3,0-0.7,0.1-1,0
			c-0.4-0.2-0.7-0.1-1.1,0.1c-1.4,0.7-1.4,0.8-0.3,1.8c0,1.1,0.1,2.2,0,3.3c-0.1,1-0.1,2-0.9,2.8c0,0,0,0.1,0,0.2
			c0.2,0.4,0.8,0.6,0.8,1.2c0,1.6,0.1,3.2,0.1,4.8c0,1.3,0.2,2.5,0.9,3.6c0.6-0.3,0.9-0.8,0.9-1.3c0.3-1.5,0.4-3,0.2-4.6
			c-0.1-0.9-0.1-1.9-0.2-2.9c1.2-0.2,1.9-0.4,2.1-1.5c-0.6-0.7-1.5-0.5-2.1-0.8c0-1.5,0-3.2,0-4.6c1.1-0.2,2.1-0.5,3.1-0.7
			c0.6-0.1,1-0.5,1.1-1.2C103.9,23.1,103.6,22.9,103.3,22.8z"/>
	</g>
</g>
<g id="fruit">
	<g>
		<path class="st2" d="M81.9,20.3c0,0-1.8,1.6-2.9,2.4c-22,15.4-41.1,23.2-41.1,23.2s12.1-17.3,29-33.1c3.9-3.6,4.5-3.6,4.5-3.6
			S71.9,8.7,74,9c1.6,0.2,4.5,0.9,5.9,2.1c1.5,1.3,1.6,4.1,1.9,6.1C82.1,18.8,81.9,20.3,81.9,20.3z"/>
		<path class="st1" d="M56.8,35.5c-0.8-1.1-1.7-2.7-4.2-1.8c-1.7,0.6-3.7,1.7-4.2-1.3c-3.7,4.4-7.2,8.8-10.5,13.4
			c0.6-0.3,1.2-0.6,1.9-0.8c0.3-0.1,0.7-0.3,1-0.4c0.4-0.1,0.6,0,1,0.2c0.8,0.3,1.4-0.4,1.9-1c0.7-1,2-1.6,3.1-2.1
			c3-1.5,6.6-3.4,10.7-5.6C57.3,35.9,57,35.7,56.8,35.5z"/>
		<path class="st3" d="M39.4,45.2c0,0,0.1-0.1,0.3-0.1C39.6,45.1,39.5,45.2,39.4,45.2z"/>
		<path class="st0" d="M54.8,29.3c0,0,0.8-0.9,2.1-2.3c0.7-0.7,1.4-1.5,2.2-2.3c0.8-0.8,1.7-1.7,2.6-2.6c0.9-0.9,1.8-1.7,2.7-2.5
			c0.9-0.8,1.7-1.5,2.4-2.1c1.4-1.2,2.4-2,2.4-2s-0.8,0.9-2.1,2.3c-0.7,0.7-1.4,1.5-2.3,2.3c-0.8,0.8-1.7,1.7-2.6,2.5
			c-0.9,0.8-1.8,1.7-2.7,2.5c-0.8,0.8-1.7,1.5-2.3,2.2C55.7,28.5,54.8,29.3,54.8,29.3z"/>
		<path class="st0" d="M62.6,29.6c0,0,0.8-0.6,2-1.5c0.6-0.4,1.3-1,2-1.5c0.8-0.5,1.6-1.1,2.4-1.6c0.8-0.5,1.6-1.1,2.4-1.6
			c0.8-0.5,1.5-0.9,2.1-1.3c1.3-0.8,2.1-1.2,2.1-1.2s-0.8,0.6-2,1.5c-0.6,0.4-1.3,1-2,1.5c-0.8,0.5-1.6,1.1-2.4,1.6
			c-0.8,0.5-1.6,1.1-2.4,1.6c-0.8,0.5-1.5,0.9-2.1,1.3C63.4,29.1,62.6,29.6,62.6,29.6z"/>
		<path class="st0" d="M65.7,22.6c0,0,0.4-0.4,0.9-1.1c0.6-0.6,1.4-1.4,2.2-2.2c0.8-0.7,1.7-1.5,2.4-2c0.7-0.5,1.2-0.8,1.2-0.8
			S72,17,71.5,17.6c-0.6,0.6-1.4,1.4-2.2,2.2c-0.8,0.7-1.7,1.5-2.4,2C66.2,22.3,65.7,22.6,65.7,22.6z"/>
		<path class="st0" d="M74,15c0,0,0.1-0.2,0.3-0.5c0.2-0.3,0.5-0.6,0.8-0.9c0.3-0.3,0.7-0.6,1-0.7c0.3-0.2,0.5-0.2,0.5-0.2
			s-0.1,0.2-0.3,0.5c-0.2,0.3-0.5,0.6-0.8,0.9c-0.3,0.3-0.7,0.6-1,0.7C74.3,14.9,74,15,74,15z"/>
		<path class="st1" d="M38.9,51.3c0,0.6-0.4,1.1-0.9,1.1c-0.5,0-0.9-0.5-0.9-1.1c0-1.1,0.9-2.7,0.9-2.7S38.9,50.5,38.9,51.3z"/>
	</g>
</g>
</svg>
