<?xml version="1.0" encoding="utf-8"?>
<!-- Generator: Adobe Illustrator 25.2.1, SVG Export Plug-In . SVG Version: 6.00 Build 0)  -->
<svg version="1.1" id="Layer_1" xmlns="http://www.w3.org/2000/svg" xmlns:xlink="http://www.w3.org/1999/xlink" x="0px" y="0px"
	 viewBox="0 0 50 53.3" style="enable-background:new 0 0 50 53.3;" xml:space="preserve">
<style type="text/css">
	.st0{fill:#FF0013;}
	.st1{opacity:0.33;}
	.st2{opacity:0.31;}
	.st3{opacity:0.67;fill:#FF0013;enable-background:new    ;}
	.st4{fill:#FF0013;stroke:#010101;stroke-width:2;stroke-linejoin:round;stroke-miterlimit:10;}
</style>
<g>
	<g>
		<g id="arm-back_2_">
			<g>
				<path class="st0" d="M11.1,16.4c0.1,0.1,0.4,0.8-0.2,1.2c-0.6,0.3-2.8,0.9-3.4,1.3c-0.7,0.4-1.6,0.5-1.3,0
					c0.2-0.6,0.9-1.1,1.7-1.5s2.3-1.8,2.5-1.5C10.5,16.1,11.1,16.4,11.1,16.4z"/>
				<path class="st0" d="M7.1,18.8c0,0-0.3-0.7-1.2-1.1c-0.8-0.4-2.1-1-2.1-1S3.6,17,4.3,17.8C5,18.6,7.3,19.9,7.1,18.8z"/>
			</g>
			<path class="st0" d="M25.1,14.5c-0.4-0.5-0.3-1,0.7-1.6s3.5-2.7,4.6-2.5c1.2,0.2,1.3,2.7,0.1,3C28.9,13.7,26.2,15.8,25.1,14.5z"
				/>
			<path class="st0" d="M34.6,6.4C35.8,5.9,38,6.9,38,7.6c0,0.6-1.7,1.6-2.1,2.1c-0.5,0.4-0.9,0.6-0.9,0.6s-1.6,1.4-2,1.5
				c-0.1,0-0.2,0.1-0.4,0.2c0,0,0,0,0,0.1c-0.1,0.4-1.2,0.8-1.2,0.8l-0.6,0.7c0,0-1.3,0.5-1.8,0.8s-2.1,1-2.1,1s0.5-0.6,0.7-1.3
				c0.2-0.5,0.5-0.8,0.6-0.9l-1,0.6c0,0,0.3-0.5,0.4-0.8c0.2-0.3,0.3-0.5,0.3-0.5l-1.1,0.3c0,0,0.4-0.4,0-0.5s-1.1-0.1-1.1-0.1
				s0.9-0.4,1.6-0.6c0.7-0.2,1.2-0.6,1.2-0.6s0.8-0.6,1.6-0.8c0.1-0.1,0.2-0.2,0.3-0.3C31.7,8.9,33.5,6.9,34.6,6.4z"/>
			<path class="st0" d="M11.9,16.6c-0.3-0.4,0.4-0.9,2.9-1.4c2.6-0.5,10.8-2.5,11.4-2c0.8,0.7,0.2,2.2-2.5,2.4
				C20.3,15.9,12.8,17.8,11.9,16.6z"/>
			<path class="st0" d="M25.1,15.1c0,0,1.4,0,1.5-1.1c0-0.5-0.3-1.3-1.1-0.9C23.6,14.1,25.1,15.1,25.1,15.1z"/>
			<g>
				<path class="st0" d="M8.7,11.8c-0.1,0.4-1.1,0-1.1,0s-0.8-1-1.3-1.6C5.8,9.6,5.4,9.3,5.8,9s1.1,0.6,1.6,1.1S8.8,11.2,8.7,11.8z"
					/>
				<path class="st0" d="M6.1,9.3c0,0-0.3,0-0.7-0.2c-0.5-0.3-2-1.2-2.3-1.5C2.8,7.3,2.9,6.8,3.4,6.9s1.5,0.9,2,1.2
					C5.8,8.3,6.4,9.2,6.1,9.3z"/>
				<path class="st0" d="M2.4,7.7c0,0-0.2-0.4-1.1,0.7C0.4,9.6,0,12.1,0,12.1s0.7-1.7,1.4-2.4C2,8.9,2.5,7.9,2.4,7.7z"/>
				<path class="st0" d="M3.4,7c0,0-0.1,0.5-0.6,0.9s-1.2,1-1.2,1S1.4,8.7,1.7,8.1C2.1,7.5,3.4,6.3,3.4,7z"/>
			</g>
			<g>
				<path class="st0" d="M10.9,12.6c-0.3,0.3-1-0.6-1-0.6s-0.2-1.2-0.3-2C9.5,9.3,9.2,8.9,9.7,8.8c0.5-0.1,0.7,1.1,0.9,1.8
					S11.3,12.1,10.9,12.6z"/>
				<path class="st0" d="M9.8,9.2c0,0-0.3-0.1-0.5-0.6C9,8.2,8.2,6.6,8.1,6.2C7.9,5.8,8.3,5.4,8.6,5.7C9,6,9.5,7.3,9.7,7.7
					C10,8.1,10.2,9.3,9.8,9.2z"/>
				<path class="st0" d="M7.5,5.4c0,0,0.3-0.4-1.1-0.6C4.9,4.6,2.5,5.5,2.5,5.5s1.8-0.2,2.8,0S7.4,5.7,7.5,5.4z"/>
				<path class="st0" d="M8.6,6c0,0-0.5,0.1-1-0.1C7,5.6,6.1,5.3,6.1,5.3s0-0.3,0.7-0.2C7.5,5.1,9.3,5.6,8.6,6z"/>
			</g>
			<g>
				<path class="st0" d="M11.7,12.9c-0.3,0.2-0.8-0.8-0.8-0.8s0.1-1.2,0.1-2s-0.1-1.2,0.4-1.2s0.4,1.2,0.4,1.9
					C11.9,11.5,12.2,12.5,11.7,12.9z"/>
				<path class="st0" d="M11.4,9.3c0,0-0.3-0.2-0.4-0.7c-0.1-0.5-0.5-2.2-0.6-2.6c0-0.4,0.4-0.8,0.6-0.3c0.3,0.4,0.5,1.7,0.6,2.2
					C11.9,8.4,11.8,9.5,11.4,9.3z"/>
				<path class="st0" d="M9.3,4.6c0,0,0.3-0.4-1.2-0.5C6.7,4,4.3,5,4.3,5s1.8-0.3,2.8-0.2C8.2,4.9,9.2,4.9,9.3,4.6z"/>
				<path class="st0" d="M10.7,6c0,0-0.5-0.1-0.9-0.5C9.3,5,8.7,4.4,8.7,4.4s0.1-0.2,0.7,0.1C10,4.8,11.4,5.9,10.7,6z"/>
			</g>
			<g>
				<path class="st0" d="M11.9,14.4c0.1,0.1,0.9,0.3,1.1-0.3c0.3-0.6,0.7-2.8,1-3.5s0.4-1.6-0.1-1.3s-1,1-1.3,1.8s-1.6,2.4-1.3,2.6
					C11.5,13.8,11.9,14.4,11.9,14.4z"/>
			</g>
			<path class="st0" d="M13.1,16.8c0,0-1.3,0.8-1.8,0.8c-0.5-0.1-1.3-0.5-1.7-0.7c-0.5-0.2-0.2-1.2-0.4-1.9c-0.2-0.8-1.5-2.3-1-2.9
				c0.5-0.6,3.1,0.1,3.6,0.6s1,1.5,0.9,2.1C12.6,15.5,13.3,15.9,13.1,16.8z"/>
		</g>
		<path class="st0" d="M46.1,50.1c0,0,0.2,0.7,0.1,1.1c-0.2,0.5-1.1,0.5-1.6,0.8c-0.6,0.5-1,0.6-1.2,0.6c-0.1,0-0.7,0.3-0.7,0.3
			s-0.5-0.3-1.1-0.4c-0.6-0.1-0.5-0.4-0.5-0.4l0.2-0.2C41.1,52,40.7,52,40.4,52c-0.1,0-0.4-0.7,0.6-0.7c0.9,0,0.9-0.2,1.2-0.4
			c0.1-0.1,1.4-0.8,1.7-1s0.7,0,1.1-0.2C45.4,49.6,45.8,49.7,46.1,50.1z"/>
		<path class="st0" d="M42.9,52.6l-0.6,0.7c0,0,0.1-0.7,0.2-0.8C42.6,52.4,42.9,52.4,42.9,52.6z"/>
		<path class="st0" d="M42.4,52.4l-0.6,1c0,0-0.1-0.5,0.1-0.8C42.1,52.2,42.2,52.1,42.4,52.4z"/>
		<path class="st0" d="M42,52.3l-0.7,0.8c0,0,0-0.6,0.2-0.8S41.9,52,42,52.3z"/>
		<path class="st0" d="M41.7,52l-1.1,0.5c0,0,0.2-0.5,0.6-0.7C41.4,51.7,41.6,51.7,41.7,52z"/>
		<path class="st0" d="M41.1,51.5c0,0-0.1-0.3-0.4-0.3c-0.3,0-0.9,0.6-0.9,0.6s0.6-0.1,0.9-0.1C40.8,51.6,41.1,51.7,41.1,51.5z"/>
		<g>
			<path class="st0" d="M43.7,51.9"/>
			<g>
				<path class="st0" d="M43.6,52c0.2,0,0.4-0.2,0.1-0.2C43.6,51.8,43.4,52,43.6,52L43.6,52z"/>
			</g>
		</g>
		<path class="st0" d="M42,48.9c0,0,0.6,1.2-0.1,1.5c-0.5,0.2-1.9,0-2.3,0.2c-0.4,0.1-0.8,0.9-1.4,0.9c-0.6,0-1.6-0.1-1.6-0.4
			s-0.5-0.6,0.4-0.9c0.9-0.3,1.1-0.3,1.8-0.7s1.5-1.1,2.1-1S41.9,48.6,42,48.9z"/>
		<path class="st0" d="M37.2,51c0,0-0.4-0.1-0.8,0.1c-0.4,0.2-0.6,0.5-0.6,0.5s-0.1-0.6,0.4-0.8C36.6,50.7,37.3,50.3,37.2,51z"/>
		<path class="st0" d="M37.3,50.1c0,0,0.1,0.1-0.1,0.2c-0.1,0.1,0,0-0.1,0.2s0,0.3,0,0.3s-0.6-0.1-0.9,0c-0.3,0.1-0.3,0.5-0.3,0.5
			s-0.2-0.6,0.1-0.7c0.2-0.1,0.5-0.2,0.5-0.2l-0.4,0.2c0,0-0.1-0.2,0.3-0.4C36.7,50.2,37.3,50.1,37.3,50.1z"/>
		<path class="st0" d="M45.1,50.4c-0.4,0-0.9-0.3-1-0.6s0.2-0.8,0.1-1.4c0-0.6-0.5-5.2-0.7-6.6c-0.1-1.4,2-3.1,2.8-2.1
			s-0.5,6.3-0.5,7.5s0.1,2.7-0.1,2.9C45.5,50.4,45.1,50.4,45.1,50.4z"/>
		<path class="st0" d="M41.2,49.5c-0.4,0-0.9-0.3-1-0.6s0.2-0.8,0.1-1.4c0-0.6-0.5-5.2-0.7-6.6c-0.1-1.4,2-3.1,2.8-2.1
			s-0.5,6.3-0.5,7.5s0.1,2.7-0.1,2.9S41.2,49.5,41.2,49.5z"/>
		<path class="st0" d="M36.3,44.5l-0.8-0.3c0,0,0.8-18.4,1.8-20.7s2-5.8,2-5.8s1.2-1.6,3.7-1.4s3,1.9,3,1.9s1.6,2.6,2.3,6.9
			c0.8,4.3,1.7,19.5,1.7,19.5s-0.6,0.5-1.2,0.9c-0.6,0.3-1.8,2-3.1,1.9s-1.7-0.9-3-0.9s-1.3-0.2-2.3-0.4
			C39.3,45.6,36.5,46.4,36.3,44.5z"/>
		<g>
			<path class="st0" d="M38.4,25.9"/>
			<g>
				<path class="st0" d="M38.4,25.9C38.4,25.9,38.6,25.9,38.4,25.9C38.5,25.9,38.3,25.9,38.4,25.9L38.4,25.9z"/>
			</g>
		</g>
		<g class="st1">
			<path class="st0" d="M39.3,18.8c0.5,0.4,1,0.7,1.6,1.1c0.3,0.2,0.5,0.4,0.9,0.4c0.3,0.1,0.7,0,1-0.1s0.6-0.3,0.9-0.4
				c0.4-0.3,0.8-0.7,1.2-1.1c0.3-0.3,0.6-0.6,0.7-1c0.1-0.4,0-0.9-0.3-1.1c-0.4-0.3-1,0-1.4,0c-0.5,0.1-1-0.1-1.5-0.1
				c-0.7-0.1-1.4,0.1-2.1,0.3c-0.1,0-0.2,0.1-0.3,0.1c-0.1,0.1-0.2,0.2-0.3,0.3c-0.1,0.1-0.2,0.3-0.3,0.4"/>
		</g>
		<path class="st0" d="M41.9,19.5c0.8-0.2,1.5-2,2.2-2.4c0.8-0.4,1.2-1.2,0.8-2.4s-2-5.7-2.5-6.2c-1.6-1.8-2.7-2.8-3.8-2.9
			s-2.5,0.2-4.2,1.3c-1.7,1.2-2.8,2.3-3,3.4s3.9,4.3,4.9,4.8s2.4,4.1,3.3,4.2C40.5,19.5,40.9,19.8,41.9,19.5z"/>
		<g class="st2">
			<path class="st0" d="M37.2,5.5c0.1-0.1,0.3,0,0.4,0.1c0.1,0.1,0,0.3-0.1,0.4s-0.2,0.3-0.2,0.4c-0.2,0.4,0,0.9-0.2,1.2
				C37,7.8,36.9,7.9,36.8,8c-0.1,0.1-0.1,0.3-0.1,0.4c-0.1,0.3-0.4,0.4-0.6,0.6c-0.4,0.3-0.6,0.9-1,1.1c-0.2,0.1-0.5,0.2-0.8,0.2
				c-0.2,0-0.4,0.1-0.6,0.1c-0.1,0-0.3,0-0.4,0c-0.3,0-0.6-0.2-0.9-0.4c-0.1-0.1-0.3-0.2-0.4-0.3c-0.1-0.3,0-0.5,0.2-0.8
				c0.9-1.3,2.1-2.3,3.5-3C36.2,5.6,36.7,5.4,37.2,5.5"/>
		</g>
		<g>
			<path class="st0" d="M37.2,6.1c0.1,0.6-0.6,0.4-0.3,1.6c0,0.2-0.1,0.4-0.2,0.5c-0.1,0.1-0.3,0.1-0.4,0.2
				c-0.4,0.1-0.6,0.6-0.7,0.9c-0.2,0.4-0.4,0.9-0.8,0.9c-0.3,0-0.6-0.2-1-0.1c-0.1,0-0.3,0.1-0.4,0.1c-0.3,0.1-0.6-0.1-0.8-0.2
				C32.3,9.7,32,9.6,32,9.3c0-0.1,0.1-0.2,0.2-0.4c0.4-0.5,0.7-1,1.2-1.5c0.4-0.4,0.5-0.6,0.9-0.9c0.5-0.3,0.8-0.5,1.3-0.9
				C36,5.5,36.8,5,37,5.2L37.2,6.1z"/>
		</g>
		<g>
			<path class="st0" d="M34.3,9.1c0,0.2,0,0.3-0.1,0.5c0,0.1,0,0.2-0.1,0.3c0,0,0,0-0.1,0c0,0,0,0-0.1,0c-0.1-0.1-0.3-0.1-0.4-0.2
				V9.6c0-0.1,0-0.1,0-0.2C33.7,9.1,33.8,9,34,9C34.1,8.9,34.3,8.9,34.3,9.1"/>
		</g>
		<g>
			<path class="st0" d="M33.1,8.6c0,0.2-0.1,0.3-0.2,0.4c-0.1,0.1-0.3,0.2-0.4,0.3h-0.1c0,0-0.1-0.1,0-0.1c0,0,0-0.1,0.1-0.1
				c0.1-0.1,0.2-0.2,0.2-0.4c0-0.1,0.1-0.2,0.2-0.3C32.8,8.5,33,8.4,33.1,8.6"/>
		</g>
		<g class="st2">
			<path class="st0" d="M36.8,7.2c-0.1,0.1-0.4,0.1-0.5,0.1c-0.3,0-0.5-0.1-0.8-0.1c0.3,0.2,0.5,0.4,0.6,0.7V8c0,0,0,0.1-0.1,0.1
				c-0.2,0.3-0.5,0.6-0.7,0.8L35.2,9c-0.1,0-0.1-0.1-0.2-0.1c-0.1-0.1-0.1-0.2-0.2-0.3c0,0,0-0.1-0.1-0.1s-0.1,0.1-0.1,0.1
				c-0.1,0.4,0,1-0.3,1.3C34.5,10,34.8,10,35,9.8c0.3-0.2,0.4-0.6,0.5-0.9C35.7,8.5,36,8.2,36.3,8c0.1-0.1,0.3-0.1,0.4-0.2
				C36.9,7.8,36.8,7.5,36.8,7.2"/>
		</g>
		<g class="st2">
			<path class="st0" d="M33.6,10c-0.1,0-0.2-0.1-0.2-0.2c0-0.1,0-0.2,0-0.3c0-0.2,0-0.4,0.1-0.6c0,0,0-0.1-0.1-0.1h-0.1
				C33.1,9,33,9.1,33,9.3c-0.1,0.1-0.1,0.3-0.3,0.3h-0.1l-0.1,0.1c0,0,0,0.1,0.1,0.1C32.9,10,33.2,10,33.6,10"/>
		</g>
		<g class="st1">
			<path class="st0" d="M25.4,1.3"/>
		</g>
		<g>
			<path class="st0" d="M25.9,15.2c-0.1-0.1-0.3-0.1-0.4,0.1"/>
		</g>
		<g>
			<path class="st0" d="M26.6,11.2L26.6,11.2"/>
			<g>
				<path class="st0" d="M27,11C27,11,26.9,11,27,11c-0.1,0-0.1-0.1-0.2-0.1s-0.1,0-0.2,0s-0.1,0-0.2,0S26.3,11,26.2,11l0,0
					c0,0,0,0.1-0.1,0.1v0.1v0.1c0,0,0,0,0,0.1c0,0,0,0,0.1,0.1h0.1h0.1c0.1,0,0.1,0,0.2,0h0.1c0,0,0.1,0,0.1-0.1c0,0,0.1,0,0.1-0.1
					c0,0,0.1,0,0.1-0.1c0,0,0,0,0-0.1V11C27.1,11.1,27.1,11.1,27,11L27,11L27,11z"/>
			</g>
		</g>
		<g>
			<path class="st0" d="M26.6,11.2c-0.2-0.1-0.5-0.2-0.8-0.1"/>
		</g>
		<g>
			<path class="st0" d="M34,13.8c-0.2-0.1-0.4-0.3-0.6-0.4"/>
		</g>
		<g>
			<path class="st0" d="M33.2,11.7c0.3,0,0.6,0,1,0"/>
		</g>
		<g>
			<path class="st0" d="M33,15"/>
			<g>
				<path class="st0" d="M33,15.2c0.2,0,0.3-0.3,0-0.3C32.8,14.8,32.7,15.2,33,15.2L33,15.2z"/>
			</g>
		</g>
		<g>
			<path class="st0" d="M33,15c0,0-0.3-0.4-0.4-0.4"/>
		</g>
		<g>
			<path class="st0" d="M31.2,15.7c0.3-0.1,0.6-0.3,0.8-0.4"/>
		</g>
		<g>
			<path class="st0" d="M32.4,13.4c0.2,0.2,0.3,0.3,0.5,0.5"/>
		</g>
		<g>
			<path class="st0" d="M32.3,17.1c-0.2-0.2-0.3-0.4-0.5-0.6c0,0,0-0.1-0.1-0.1c0,0-0.1,0.1,0,0.1"/>
		</g>
		<g>
			<path class="st0" d="M33.7,7.4c-0.1-0.2,0.1-0.5,0.2-0.6c0.2-0.2,0.4-0.5,0.5-0.8s0.1-0.6-0.1-0.9c-0.2-0.3-0.6-0.4-0.9-0.6
				C33.2,4.4,33.1,4.2,33,4l0,0"/>
		</g>
		<g>
			<path class="st0" d="M33.8,5.4c0.2-0.2,0.3-0.3,0.5-0.5"/>
		</g>
		<g id="head_2_">
			<path class="st0" d="M31,24v-0.1c-0.1-0.7-0.4-4-0.4-5c-0.1-1.1-0.1-9.6-0.4-10.5c-0.2-0.9,0.3-5.7,0.9-5.1s1.1,9.5,1,11.3
				C32.1,16.2,31,24,31,24z"/>
			<path class="st0" d="M26.9,6.1c0,0-0.8-2.4-0.7,0.8c0.1,3.2-0.4,9.3-0.1,10.8c0.3,1.4,0.5,6.7,0.6,7.5c0,0.8,0,0.8,0,0.8
				s0.7-2,0.7-3.2"/>
			<path class="st0" d="M35.5,23.2c0,0-0.5-4.9-0.5-6.2s0.8,5.1,0.8,5.1s-0.1-8.5-0.3-10.1c-0.3-2.4-0.8-6.5-1.2-8.2s-1.6-3-2.4-3.4
				C31-0.1,30.1,0,29.7,0.1s-1.4,0.3-1.4,0.3s-0.9,0-1.6,0.1c-1.1,0.2-1.4,1.4-1.5,1.8c-0.2,1-0.1,2-0.3,2.2
				c-0.2,0.2-0.5,4.6-0.4,6.2c0,1.6,0.5,10.6,0.5,10.6l0.1,2.3c0,0,0.1-4.4,0.3-4.1s0.5,4.9,0.5,4.9s0.2,2.3,0.4,3
				c0.2,0.7,0.2,0.7,0.2,0.7S26,21,26.2,20.5s0.7,1.9,0.7,1.9c0,1.6,0.4,2.5,0.4,2.5s0.2-1.9,0.3-3.3c0-1.4-0.3-9.1-0.3-9.9
				C27.4,11,27,6,27.5,5.5s3.8-0.5,4.2,0.1c0.3,0.6,0,6.2,0,8.4s0,6.3,0,6.3s0.5-2.5,0.6-1.7c0,0.8,0,4.9,0.2,6.2
				c0.2,1.3,0.2,2.8,0.2,2.8s0.6-1.7,0.7-3.7c0-2,0.3-4.7,0.3-4.7s0.1,3.1,0.4,4c0.3,0.9,0.7,1.9,0.7,1.9S35,22.5,35.5,23.2z"/>
			<path class="st0" d="M28.7,11c0,0-1.2,0-1.3-0.2c-0.2-0.2-0.4-1.6-0.5-1.9s-0.5-1.2-0.5-1.7S26.7,6,26.7,6s-0.2-0.4-0.3-1
				c-0.1-0.6-0.1-2.9,0.4-2.4c1.2,1.1,1.4-1,2-0.6c0.5,0.4,1.8-1.7,1.9,3.2c0,1.4,0.1,1.9,0.2,2.5s0.1,1.4-0.6,2.2
				C29.7,10.3,29,10.9,28.7,11z"/>
			<path class="st0" d="M27.6,6.8c0,0-0.1-0.2-0.1-0.3c0.1-0.1,0.1,0,0.2,0s0.1-0.4,0.1-0.6s0-0.5,0-0.5s0,0.5-0.1,0.5
				s-0.1,0.3-0.1,0.3l-0.2-0.1c0-0.1-0.1,0.1-0.2-0.1S27.1,5.8,27,5.7c-0.1-0.1-0.2-0.4-0.4-0.4c-0.1,0-0.1,0.1-0.2,0h-0.1
				c0,0.2-0.1,0.6-0.1,0.8c0,0.2,0.1,0.4,0.2,0.5c0.1,0,0.2,0.2,0.4,0.2c0.2,0,0.3,0,0.3,0.1C27.4,6.9,27.6,6.8,27.6,6.8z"/>
			<path class="st3" d="M27.7,6.3c0,0-0.2,0.8-0.4,0.8c-0.3,0-0.8-0.2-0.8-0.7S26.4,5,26.8,5C27.2,5,27.8,5.7,27.7,6.3"/>
			<path class="st0" d="M30.7,7.1c0,0-1.6,1.4-1.9,1.4s-1.8,0.1-2,0.1c-0.1,0-0.5-0.4-0.5-0.4s0.5,1,0.6,1.3s0,0.8,1,0.8
				c1-0.1,1.1,0,1.4-0.5c0.3-0.6,1-1.2,1.1-1.4C30.6,8,30.7,7.1,30.7,7.1z"/>
			<path class="st4" d="M27.8,9.5"/>
			<path class="st0" d="M27.7,2.6c0,0-0.1-0.8-0.8-0.7c-0.7,0.2-1.1,1.7-1.1,4.1s0.4,7.1,0.2,9.3s0.1,4.9,0.1,4.9s-0.6-3.9-0.5-5.8
				c0.1-1.8-0.9-11-0.1-11.9s1-1.3,1.6-0.9s1,0.2,1,0.2l0.2,0.4C28.3,2.2,28.4,3.3,27.7,2.6z"/>
			<path class="st0" d="M28.2,2.4c0,0,0.8-0.8,1.3,0S30,5,30.1,8.9s0.7,8.4,0.9,9.7c0.1,1.3,0,1.6,0,1.6s0.4-0.1-0.1-5.1
				S31,5.3,30.8,3.7c-0.3-1.6-0.6-2.8-1.8-2.9c-1.2-0.1-1.4,0.4-1.4,0.4s1.3-0.2,1,0.1s-0.7,0-1,0.3c-0.2,0.3-0.1,1.3-0.1,1.3
				L28.2,2.4z"/>
			<path class="st0" d="M26.2,9.4c0,0-0.1-6.5,0.3-6.5s0.9,0.3,0.9,0.3s-0.2-0.9-0.7-0.8c-0.6,0.1-0.7,2-0.7,3.9
				C26,8.2,26.2,9.4,26.2,9.4z"/>
		</g>
		<path class="st0" d="M35.6,9.6c0,0,0.1-1.6,0.8-1.8c0.7-0.3,2.9-0.5,2.9,1.3c0,0.4-0.5,0.8-0.5,0.8L35.6,9.6"/>
		<path class="st0" d="M13.9,9.5c0,0-0.8-0.1-1.4-0.8C11.9,8,11,7,11,7s0.2-0.4,1.2,0.1C13.1,7.6,15.1,9.4,13.9,9.5z"/>
		<path class="st0" d="M11.7,7.1c0,0,0.3-0.5-1.2-0.5s-4,1.3-4,1.3s1.8-0.5,2.9-0.4C10.5,7.6,11.6,7.4,11.7,7.1z"/>
		<path class="st0" d="M4.5,17.6c0,0-0.3,0.5-1-0.9C2.8,15.4,3,12.6,3,12.6s0.3,1.9,0.8,2.8C4.3,16.3,4.7,17.4,4.5,17.6z"/>
		<g id="arm-front_2_">
			<path class="st0" d="M34.1,20.4c-0.7-0.1-0.9-0.5-0.5-1.6s0.9-4.3,1.9-4.9c1-0.6,2.8,1.2,2,2.2C36.5,17.3,35.8,20.7,34.1,20.4z"
				/>
			<path class="st0" d="M36.1,8c0.5-1.2,2.9-1.8,3.4-1.3c0.4,0.5-0.2,2.3-0.3,3c-0.1,0.6-0.3,1.1-0.3,1.1s-0.3,2.1-0.5,2.5
				c-0.1,0.1-0.1,0.2-0.2,0.4v0.1c0.1,0.3-0.4,1.4-0.4,1.4v0.9c0,0-0.7,1.3-0.8,1.8c-0.2,0.5-0.9,2.1-0.9,2.1s-0.1-0.8-0.3-1.4
				c-0.2-0.5-0.1-0.9-0.1-1.1l-0.4,1.2c0,0-0.1-0.6-0.2-0.9c0-0.3-0.1-0.6-0.1-0.6L34.3,18c0,0,0.1-0.5-0.3-0.3
				c-0.4,0.2-0.8,0.6-0.8,0.6s0.4-0.9,0.8-1.5c0.4-0.6,0.5-1.3,0.5-1.3s0.3-1,0.7-1.6c0-0.1,0-0.3,0.1-0.4
				C35.4,11.8,35.5,9.2,36.1,8z"/>
			<path class="st0" d="M22.4,27.9c-0.5-0.3,0-1,2.1-2.4c2.1-1.5,9-6.5,9.7-6.3c1,0.3,1.1,1.9-1.4,3.2C29.9,24,23.7,28.7,22.4,27.9z
				"/>
			<g>
				<path class="st0" d="M20.6,27.9c0.1,0.1,0.7,0.6,0.4,1.1c-0.4,0.5-2.1,2-2.5,2.7c-0.4,0.6-1.2,1.2-1.2,0.6
					c0-0.6,0.3-1.4,0.9-2.1c0.5-0.7,1.2-2.6,1.5-2.5C19.9,27.9,20.6,27.9,20.6,27.9z"/>
				<path class="st0" d="M17.6,31.9c0,0-0.8,0-1.5,0.6c-0.7,0.6-1.8,1.4-1.8,1.4s0.1,0.4,1.2,0.1C16.4,33.6,18.7,32.2,17.6,31.9z"/>
				<path class="st0" d="M15.6,33.4c0,0,0.4,0.4-0.9,0.9c-1.4,0.5-4.2,0.1-4.2,0.1s1.9-0.2,2.9-0.6C14.3,33.4,15.4,33.2,15.6,33.4z"
					/>
			</g>
			<g>
				<path class="st0" d="M21.5,25.8c0.1,0,0.9,0,0.9-0.7c0-0.6-0.5-2.9-0.4-3.6c0-0.8-0.3-1.6-0.6-1.2c-0.4,0.5-0.6,1.3-0.5,2.2
					c0,0.9-0.5,2.8-0.2,2.9C21,25.5,21.5,25.8,21.5,25.8z"/>
				<path class="st0" d="M21.4,20.8c0,0-0.6-0.4-0.9-1.3c-0.2-0.9-0.6-2.2-0.6-2.2s0.3-0.2,1,0.6C21.5,18.8,22.5,21.3,21.4,20.8z"/>
				<path class="st0" d="M20.7,18.5c0,0,0.6,0-0.2-1.3c-0.8-1.3-3.3-2.6-3.3-2.6s1.4,1.3,1.9,2.2C19.7,17.7,20.4,18.5,20.7,18.5z"/>
			</g>
			<g>
				<path class="st0" d="M18.6,24.7c0,0.4-1.1,0.2-1.1,0.2s-0.9-0.8-1.5-1.3s-1.1-0.7-0.8-1c0.3-0.4,1.2,0.4,1.8,0.8
					C17.5,23.7,18.5,24.1,18.6,24.7z"/>
				<path class="st0" d="M15.5,22.9c0,0-0.3,0.1-0.8-0.1s-2.1-0.8-2.5-1c-0.4-0.2-0.4-0.7,0.1-0.7s1.7,0.6,2.2,0.7
					S15.8,22.7,15.5,22.9z"/>
				<path class="st0" d="M11.2,21.1c0,0,0.2-0.4-1.2-0.5c-1.4,0-3.7,1.1-3.7,1.1s1.8-0.4,2.8-0.3C10.1,21.5,11.1,21.4,11.2,21.1z"/>
				<path class="st0" d="M12.4,21.5c0,0-0.5,0.2-1.1,0s-1.5-0.4-1.5-0.4s0-0.3,0.7-0.3C11.2,20.8,13,21.1,12.4,21.5z"/>
			</g>
			<g>
				<path class="st0" d="M19.9,24.6c-0.1,0.4-1.1-0.2-1.1-0.2s-0.6-1-1.1-1.7c-0.4-0.6-0.8-1-0.4-1.2c0.4-0.3,1.1,0.8,1.5,1.3
					C19.2,23.3,20.1,24,19.9,24.6z"/>
				<path class="st0" d="M17.6,21.9c0,0-0.3,0-0.7-0.3c-0.4-0.3-1.8-1.4-2-1.8c-0.3-0.3-0.2-0.8,0.3-0.7c0.5,0.2,1.4,1.1,1.8,1.4
					S18,21.8,17.6,21.9z"/>
				<path class="st0" d="M14.1,18.9c0,0,0.3-0.3-1-0.8C11.7,17.6,9.2,18,9.2,18s1.8,0.2,2.8,0.5S14,19.1,14.1,18.9z"/>
				<path class="st0" d="M15.1,19.6c0,0-0.5,0-1-0.3c-0.5-0.4-1.3-0.8-1.3-0.8s0.1-0.3,0.7-0.1C14.2,18.6,15.8,19.4,15.1,19.6z"/>
			</g>
			<g>
				<path class="st0" d="M20.8,24.6c-0.2,0.4-1-0.4-1-0.4s-0.4-1.2-0.6-1.9c-0.3-0.7-0.6-1.1-0.1-1.3c0.4-0.2,0.8,1,1.1,1.6
					C20.4,23.2,21.1,24,20.8,24.6z"/>
				<path class="st0" d="M19.1,21.4c0,0-0.3-0.1-0.6-0.5c-0.3-0.4-1.4-1.8-1.6-2.2c-0.2-0.4,0-0.8,0.5-0.6c0.4,0.3,1.1,1.4,1.4,1.8
					S19.5,21.4,19.1,21.4z"/>
				<path class="st0" d="M16.5,17.6c0,0,0.4-0.2-0.8-1c-1.2-0.8-3.8-1-3.8-1s1.7,0.6,2.5,1.2C15.3,17.3,16.3,17.8,16.5,17.6z"/>
				<path class="st0" d="M17.3,18.6c0,0-0.5-0.1-0.9-0.6s-1.1-1.1-1.1-1.1s0.1-0.2,0.7,0.1C16.7,17.3,18,18.5,17.3,18.6z"/>
			</g>
			<path class="st0" d="M23.6,27.6c0,0-0.9,1.3-1.4,1.4s-1.4,0-1.9,0s-0.6-1-1.1-1.6c-0.5-0.7-2.2-1.5-2-2.3
				c0.2-0.7,2.9-1.1,3.6-0.8c0.6,0.3,1.5,0.9,1.7,1.6C22.6,26.5,23.4,26.7,23.6,27.6z"/>
		</g>
	</g>
</g>
</svg>
