<?xml version="1.0" encoding="utf-8"?>
<!-- Generator: Adobe Illustrator 25.4.1, SVG Export Plug-In . SVG Version: 6.00 Build 0)  -->
<svg version="1.1" id="Layer_1" xmlns="http://www.w3.org/2000/svg" xmlns:xlink="http://www.w3.org/1999/xlink" x="0px" y="0px"
	 viewBox="0 0 218.5 218.4" style="enable-background:new 0 0 218.5 218.4;" xml:space="preserve">
<style type="text/css">
	.st0{fill:#94C1DA;}
	.st1{fill:#37AEE2;}
	.st2{fill:#C8DAEA;}
	.st3{fill:#A9C6D8;}
	.st4{fill:#FFFFFF;}
</style>
<line class="st0" x1="-153.2" y1="-190.3" x2="-131.7" y2="-205.8"/>
<g>
	<g>
		<path class="st1" d="M109.3,218.4C51.2,219-0.2,171.8,0,109.1C0.2,47.7,48.9-0.3,110,0c62,0.3,109.6,51.5,108.5,111.6
			C217.4,170,168.6,219,109.3,218.4z M90.7,126.9c2.3,1.6,4.2,2.9,6.1,4.3c11.9,8.4,23.9,16.8,35.8,25.3c5.8,4.2,9.5,3.1,11.2-3.9
			c4.4-17.8,8.8-35.7,12.8-53.6c2.4-10.5,4.4-21.1,6-31.7c0.7-4.8-1.1-5.9-5.8-4.8c-1.3,0.3-2.5,0.8-3.8,1.3
			c-15.3,5.5-30.6,10.9-45.7,16.6C88.1,87.6,69,95.1,49.9,102.6c-1.8,0.7-3,2.7-4.5,4.2c1.6,1.3,2.9,3.1,4.7,3.8
			c7,2.6,14,5,21.2,6.9c2.2,0.6,5.3,0.2,7.2-0.9c10.6-6.3,20.9-13,31.3-19.5c9.8-6.1,19.6-12.1,29.5-18.1c0.4,0.5,0.8,0.9,1.2,1.4
			C124.1,95.7,107.7,111,90.7,126.9z"/>
	</g>
	<polygon class="st2" points="138.8,77.3 77.3,117.5 88.9,156.4 91.5,127.5 143.7,79.3 	"/>
	<polyline class="st3" points="110.5,140.9 91.1,126.7 89,156.4 	"/>
	<path class="st4" d="M90.7,126.9c17-15.9,33.4-31.3,49.8-46.6c-0.4-0.5-0.8-0.9-1.2-1.4c-9.8,6-19.7,12.1-29.5,18.1
		c-10.4,6.5-20.8,13.2-31.3,19.5c-2,1.2-5,1.5-7.2,0.9c-7.2-1.9-14.2-4.4-21.2-6.9c-1.8-0.7-3.2-2.5-4.7-3.8
		c1.5-1.4,2.7-3.5,4.5-4.2c19.1-7.5,38.3-14.9,57.5-22.2c15.2-5.7,30.5-11.1,45.7-16.6c1.2-0.5,2.5-1,3.8-1.3c4.7-1.1,6.5,0,5.8,4.8
		c-1.6,10.6-3.7,21.2-6,31.7c-4.1,17.9-8.4,35.8-12.8,53.6c-1.7,7-5.5,8-11.2,3.9c-11.9-8.5-23.9-16.9-35.8-25.3
		C94.9,129.9,93,128.5,90.7,126.9z"/>
</g>
</svg>
