<?xml version="1.0" encoding="utf-8"?>
<!-- Generator: Adobe Illustrator 25.2.1, SVG Export Plug-In . SVG Version: 6.00 Build 0)  -->
<svg version="1.1" id="Layer_1" xmlns="http://www.w3.org/2000/svg" xmlns:xlink="http://www.w3.org/1999/xlink" x="0px" y="0px"
	 viewBox="0 0 283 100" style="enable-background:new 0 0 283 100;" xml:space="preserve">
<style type="text/css">
	.st0{fill:#FFFFFF;}
	.st1{fill:#B4B4B4;}
</style>
<g>
	<path class="st0" d="M149.9,83.4c-0.6-0.5-1.3-0.8-1.8-1.3c-2.1-1.9-3.1-5.8-2-8.5c1.2-3.1,4-5.1,7-5.2c1.7,0,3.4,0.1,4.9,0.9
		c0.3,0.1,0.8,0,1-0.2c0.5-0.5,0.9-1.1,1.5-1.7c0.7,0.8,1.4,1.6,2.1,2.5c-0.5,0.4-1.2,1-1.9,1.5c1.6,2.6,1.9,5.3,0.8,8
		c-1.3,3.3-4,4.6-7.4,4.9c-1.3,0.1-2.5,0.3-3.7,0.6c-0.4,0.1-0.7,0.6-1,1c0.4,0.3,0.8,0.8,1.2,0.8c1.4,0,2.9-0.2,4.3-0.3
		c1.8-0.2,3.5-0.2,5.2,0.4c1.8,0.7,2.9,2.1,3.2,4c0.3,2.3-0.4,4.2-2.3,5.5c-3.1,2.2-6.6,2.4-10.2,1.5c-1.6-0.4-3.1-1.1-4.7-1.8
		c0.8-1.2,1.5-2.2,2.1-3.2c1.8,1.2,3.6,2.1,5.7,2.2c2,0,4.1,0,5.5-1.8c1.1-1.4,0.4-3.4-1.3-3.6c-1.5-0.2-3-0.1-4.5,0.1
		c-1.6,0.2-3.2,0.4-4.8-0.1c-1.1-0.4-1.8-1.1-2.1-2.3c-0.2-1.2,0.2-2.1,1.3-2.8C148.5,84.1,149.2,83.8,149.9,83.4z M158.4,76.3
		C158.3,76.3,158.3,76.3,158.4,76.3c-0.1-0.3-0.1-0.7-0.1-1c-0.3-3.4-4-5.1-6.8-3.1c-2.3,1.6-2.6,5.6-0.6,7.7c2.2,2.4,5.8,1.8,7-1.2
		C158.1,77.9,158.2,77.1,158.4,76.3z"/>
	<path class="st0" d="M107.3,89.9c-1.2,0-2.3,0-3.5,0c-0.1-0.4-0.1-0.8-0.1-1.1c-1.5,0.5-3,1.1-4.5,1.4c-3.9,0.8-8-1.6-9.3-5.4
		c-1.6-4.7-1.2-9.2,2-13.2c2.8-3.5,8.2-4.3,11.7-1.8c0-0.4,0.1-0.7,0.1-1c0-2.5,0.1-5.1,0-7.6c0-1,0.3-1.3,1.3-1.2
		c0.8,0.1,1.5,0,2.4,0C107.3,70,107.3,79.9,107.3,89.9z M103.7,79.5c0-1.6-0.1-3.3,0-4.9c0-1-0.4-1.6-1-2.2c-2.2-1.8-6.1-1.2-8,1.4
		c-2,2.7-2,5.7-1.4,8.8c0.8,4.2,6.3,5.8,9.6,3.6c0.4-0.3,0.8-1,0.8-1.5C103.8,83,103.7,81.3,103.7,79.5z"/>
	<path class="st0" d="M230.5,82.6c1.1-2.6,2.1-5,3-7.4c0.8-2,1.6-4,2.4-6c0.1-0.3,0.5-0.7,0.7-0.6c0.3,0,0.6,0.3,0.8,0.6
		c1.8,4.3,3.6,8.6,5.4,12.8c0.1,0.1,0.2,0.2,0.3,0.5c1.1-3.2,2.2-6.2,3.3-9.3c0.5-1.3,0.9-2.6,1.3-3.9c0.2-0.6,0.5-0.8,1.2-0.8
		c0.8,0,1.7,0,2.7,0c-0.2,0.8-0.4,1.4-0.6,2.1c-2.2,6.3-4.4,12.5-6.6,18.8c-0.1,0.3-0.5,0.6-0.7,0.9c-0.3-0.3-0.7-0.5-0.8-0.9
		c-1.9-4.2-3.7-8.4-5.5-12.7c-0.1-0.2-0.2-0.4-0.5-0.9c-0.4,0.9-0.8,1.7-1.1,2.5c-1.6,3.7-3.1,7.4-4.7,11c-0.2,0.4-0.6,0.6-0.9,0.9
		c-0.3-0.3-0.6-0.5-0.7-0.8c-2.4-6.9-4.8-13.8-7.3-20.8c1.3,0,2.4,0,3.6,0c0.2,0,0.4,0.4,0.5,0.7c1.3,4.1,2.7,8.1,4,12.2
		C230.2,81.8,230.3,82.1,230.5,82.6z"/>
	<path class="st0" d="M164.9,61c1.2,0,2.3,0.1,3.3,0c0.8-0.1,1.1,0.3,1.3,1c2.2,6.5,4.5,12.9,6.7,19.4c0.1,0.3,0.2,0.5,0.5,1
		c2.4-7.2,4.8-14.3,7.2-21.3c1.4,0,2.7,0,4.2,0c-1,2.9-2,5.6-3,8.4c-2.1,6-4.3,11.9-6.4,17.9c-0.2,0.7-0.5,1.3-0.7,2
		c-0.2,0.7-0.4,1.1-1.3,1.1c-0.9,0-1.2-0.4-1.4-1.1c-3.3-9.1-6.7-18.3-10.1-27.4C165.1,61.6,165,61.4,164.9,61z"/>
	<path class="st0" d="M204.6,79.7c0,2.6,0.6,4.9,2.8,6.4c3.2,2,6.3,1.3,9.4-0.6c0.5,0.8,1,1.6,1.6,2.7c-1,0.5-2,1-3,1.4
		c-2.4,0.8-4.8,1.1-7.3,0.5c-3.4-0.9-5.7-3-6.7-6.3c-1.3-3.9-0.9-7.7,1.4-11.2c3.5-5.3,11.6-5.7,15.7-0.9c1.8,2.1,2,4.7,1.7,7.4
		c-0.1,0.7-0.6,0.7-1.1,0.7c-4.4,0-8.7,0-13.1,0C205.5,79.7,205.1,79.7,204.6,79.7z M204.8,77c0.4,0,0.7,0.1,1.1,0.1
		c2.8,0,5.7,0,8.5,0c2.5,0,2.8-0.5,1.6-2.8c0-0.1-0.1-0.2-0.2-0.3c-1.3-2.1-3.8-3.1-6.4-2.5C206.8,72.1,205.1,74.1,204.8,77z"/>
	<path class="st0" d="M85.8,90.2c-2.2,0.4-3.6-0.3-5.1-2.6c-1.8,2-4.1,2.7-6.7,2.7c-2.7,0-4.7-1.2-5.8-3.6c-1.1-2.5-0.8-5.1,1.2-7.2
		c3-3.2,6.8-3.7,10.9-2.8c0.5-2.6-1.3-4.9-3.9-5.1c-2.5-0.2-4.3,0.3-6.1,1.8c-0.5-1-1-2-1.5-3c1.4-1,2.9-1.6,4.6-1.9
		c2.1-0.4,4.2-0.3,6.2,0.4c3,1.1,4.3,3.2,4.5,6.6c0.2,3.1,0.1,6.3,0.2,9.4c0,1.3,0.3,2.4,1.3,3.4C85.8,88.8,85.7,89.6,85.8,90.2z
		 M80.5,82.2c0-0.4-0.1-0.9,0-1.3c0.2-1.2-0.4-1.6-1.4-1.7c-2.9-0.5-5.8,0.7-7.1,2.9c-1.1,1.8-0.7,4.2,0.9,4.9
		c1.8,0.9,3.6,0.7,5.3-0.3c1.5-0.9,2.7-2.1,2.3-4.1C80.5,82.5,80.5,82.3,80.5,82.2z"/>
	<path class="st0" d="M40.7,64.5c-3.2,0-6.2,0-9.2,0c0-1.2,0-2.3,0-3.4c7.6,0,15.1,0,22.8,0c0,1,0.1,1.9,0,2.9
		c0,0.2-0.6,0.5-0.9,0.5c-2.5,0-4.9,0-7.4,0c-0.4,0-0.8,0-1.3,0c0,8.5,0,16.9,0,25.4c-1.3,0-2.6,0-3.9,0
		C40.7,81.5,40.7,73.1,40.7,64.5z"/>
	<path class="st0" d="M128.2,89.9c-1.3,0-2.4,0-3.6,0c0-7,0-14,0-20.9c2.4-1,3,0.6,3.6,2.5c1.6-2.4,3.8-3.2,6.4-3.2
		c3.6,0.1,6.3,2.2,6.5,5.9c0.3,5.1,0.1,10.3,0.2,15.5c0,0.1-0.1,0.1-0.1,0.2c-1.1,0-2.3,0-3.5,0c0-0.4,0-0.8,0-1.2
		c0-3.9,0-7.7,0-11.6c0-1.1-0.2-2.2-0.5-3.3c-0.4-1.5-1.6-2.2-3-2.4c-1.9-0.3-3.6,0.4-4.9,1.6c-0.5,0.4-0.9,1.3-0.9,1.9
		C128.2,80,128.2,84.9,128.2,89.9z"/>
	<path class="st0" d="M64.5,72.2c-3.9-1.5-7.1,0.4-7.4,4.5c-0.2,3.2-0.1,6.4-0.2,9.6c0,1.2,0,2.3,0,3.6c-1.2,0-2.4,0-3.7,0
		c0-7,0-14,0-21c1.2,0,2.3,0,3.6,0c0,1,0,1.9,0,2.9c0.1,0.1,0.1,0.2,0.2,0.2c2.1-3.5,5.2-4.2,8.9-3.3C65.4,69.9,65,71,64.5,72.2z"/>
	<path class="st0" d="M118.3,89.9c-1.2,0-2.3,0-3.6,0c0-6,0-11.9,0-18.1c-0.8,0-1.5,0-2.2,0c-0.6,0-0.8-0.2-0.8-0.8
		c0-0.7,0-1.4,0-2.2c2.2,0,4.4,0,6.6,0C118.3,75.9,118.3,82.9,118.3,89.9z"/>
	<path class="st0" d="M195.9,89.9c-1.2,0-2.3,0-3.6,0c0-6,0-11.9,0-18c-1,0-1.8,0-2.8,0c0-1.1,0-2,0-3c2.1,0,4.2,0,6.4,0
		C195.9,75.9,195.9,82.9,195.9,89.9z"/>
	<path class="st0" d="M116.7,60.7c1.3,0,2.3,1,2.3,2.3c0,1.1-1.1,2.2-2.2,2.2c-1.2,0-2.3-1.1-2.3-2.3
		C114.5,61.6,115.4,60.7,116.7,60.7z"/>
	<path class="st0" d="M194.4,60.7c1.3,0,2.2,1,2.2,2.3c0,1.2-1.1,2.3-2.4,2.2c-1.2,0-2.2-1.2-2.2-2.4
		C192.1,61.6,193.1,60.7,194.4,60.7z"/>
</g>
<g>
	<path class="st0" d="M167.4,17.2c-0.2,0.1-0.3,0.2-0.4,0.2c-4.2,4.2-8.4,8.4-12.6,12.6c-0.2,0.2-0.2,0.6-0.2,0.9c0,1,0.1,2.1-0.1,3
		c-0.7,2.7-3.5,4.2-6.3,3.6c-2.7-0.6-4.5-3.2-4.1-6c0.1-0.6,0-1-0.5-1.5c-2.9-2.4-5.7-4.9-8.5-7.4c-0.4-0.4-0.7-0.4-1.3-0.3
		c-1.1,0.1-2.2,0.1-3.3,0c-0.7-0.1-1.1-0.1-1.6,0.3c-6,4.8-12,9.5-18,14.3c-0.5,0.4-1.1,0.9-1.7,1.4c2.4,2.2,5.1,3.6,8.2,3.6
		c16.5,0.1,33,0,49.5,0c0.8,0,1.7-0.1,2.5-0.3c3.8-1,6.6-4.5,6.9-8.3c0.3-4.2-1.8-8-5.5-9.7c-0.7-0.3-1-0.7-1-1.4
		C169.1,20.4,168.5,18.7,167.4,17.2z M106,34.7c0.4-0.2,0.6-0.3,0.7-0.4c6.4-5.1,12.8-10.1,19.2-15.2c0.3-0.2,0.5-0.8,0.5-1.2
		c0-1.3,0.1-2.4,0.8-3.5c1.4-2.2,4-3.1,6.4-2.2c2.4,0.9,3.7,3.1,3.5,5.7c-0.1,0.5-0.2,1,0.4,1.5c2.9,2.5,5.8,5.1,8.7,7.6
		c0.3,0.2,0.7,0.2,1.1,0.2c1,0,2-0.2,2.9-0.1c0.6,0.1,0.9-0.1,1.3-0.5c4-4,8-8,12-12c0.2-0.2,0.4-0.4,0.6-0.7
		c-4.2-2.7-8.4-2.6-12.7-0.4c-0.1-0.3-0.2-0.5-0.3-0.7C148.7,5.4,141-0.1,132.1,1.4c-7,1.1-12.8,6.8-14,13.8c-0.1,0.7-0.3,1-1.1,1.1
		c-7.4,0.5-12.8,6.8-12,14.3C105.1,31.9,105.6,33.3,106,34.7z"/>
	<path class="st1" d="M167.4,17.2c1.1,1.6,1.7,3.2,1.9,5.1c0.1,0.7,0.4,1.1,1,1.4c3.7,1.7,5.8,5.5,5.5,9.7c-0.3,3.8-3.2,7.3-6.9,8.3
		c-0.8,0.2-1.6,0.3-2.5,0.3c-16.5,0-33,0-49.5,0c-3.1,0-5.8-1.4-8.2-3.6c0.6-0.5,1.1-0.9,1.7-1.4c6-4.8,12-9.5,18-14.3
		c0.5-0.4,1-0.4,1.6-0.3c1.1,0.2,2.2,0.2,3.3,0c0.5-0.1,0.9,0,1.3,0.3c2.8,2.5,5.6,5,8.5,7.4c0.5,0.4,0.6,0.9,0.5,1.5
		c-0.4,2.8,1.4,5.4,4.1,6c2.8,0.6,5.6-0.9,6.3-3.6c0.3-1,0.1-2,0.1-3c0-0.3,0-0.7,0.2-0.9c4.2-4.2,8.4-8.4,12.6-12.6
		C167.1,17.3,167.2,17.3,167.4,17.2z"/>
	<path class="st1" d="M106,34.7c-0.4-1.5-0.9-2.8-1-4.2c-0.8-7.5,4.6-13.8,12-14.3c0.8-0.1,1-0.4,1.1-1.1c1.2-7,7-12.7,14-13.8
		c9-1.4,16.7,4,19.2,11.4c0.1,0.2,0.1,0.4,0.3,0.7c4.3-2.2,8.5-2.2,12.7,0.4c-0.3,0.3-0.4,0.5-0.6,0.7c-4,4-8,8-12,12
		c-0.4,0.4-0.7,0.5-1.3,0.5c-1-0.1-2,0.1-2.9,0.1c-0.4,0-0.8,0-1.1-0.2c-2.9-2.5-5.8-5.1-8.7-7.6c-0.5-0.5-0.4-0.9-0.4-1.5
		c0.3-2.6-1.1-4.9-3.5-5.7c-2.4-0.9-5,0-6.4,2.2c-0.7,1.1-0.9,2.2-0.8,3.5c0,0.4-0.2,1-0.5,1.2c-6.4,5.1-12.8,10.2-19.2,15.2
		C106.5,34.4,106.4,34.5,106,34.7z"/>
</g>
</svg>
