<?xml version="1.0" encoding="utf-8"?>
<!-- Generator: Adobe Illustrator 25.4.1, SVG Export Plug-In . SVG Version: 6.00 Build 0)  -->
<svg version="1.1" id="Layer_1" xmlns="http://www.w3.org/2000/svg" xmlns:xlink="http://www.w3.org/1999/xlink" x="0px" y="0px"
	 viewBox="0 0 499.7 499.7" style="enable-background:new 0 0 499.7 499.7;" xml:space="preserve">
<style type="text/css">
	.st0{fill:#FFFFFF;}
	.st1{fill:#5FA8DD;}
</style>
<g>
	<path class="st0" d="M250,0C112.4-0.1,0.2,111.5,0,248.7c-0.2,138.5,111.3,250.8,249.2,251c138,0.2,250.3-111.6,250.5-249.3
		C499.9,112.1,388.2,0.1,250,0z"/>
	<path class="st1" d="M250,0c138.2,0.1,249.9,112.1,249.7,250.4c-0.2,137.7-112.5,249.5-250.5,249.3C111.3,499.5-0.2,387.2,0,248.7
		C0.2,111.5,112.4-0.1,250,0z M112,361.3c2.4,1.7,3.5,2.6,4.8,3.3c49.3,28,100.7,31.6,153,10.8c65.6-26,104.5-93.8,103.9-160.7
		c0-2.2,1.3-5,2.9-6.7c5.9-6.1,12.3-11.7,18.2-17.7c2.9-2.9,5.1-6.5,7.9-10.1c-10.7,3-20.6,5.7-30.4,8.4c-0.2-0.4-0.4-0.9-0.7-1.3
		c10.8-8,18.9-17.9,22.8-30c-11,3.9-22.1,7.7-33.1,11.8c-3.2,1.2-5.1,0.3-7.5-1.9c-17.1-15.4-37.1-19.9-58.8-13
		c-21.6,6.9-35.3,22.2-40.1,44.4c-1.8,8.2-1,17-1.5,25.8c-48.7-3.5-89.1-24.4-121.5-62.2c-8,13.7-10.1,27.8-7,42.6
		c3.1,14.9,11.3,26.9,23.4,36.3c-0.3,0.4-0.6,0.9-0.9,1.3c-8-2.3-16-4.7-24.4-7.2c1.6,30,17.3,49.1,45,59.7c-7.7,0-15.4,0-24,0
		c9.7,25.5,27.9,38.9,55.1,42C173,356.5,144.6,363.9,112,361.3z"/>
	<path class="st0" d="M112,361.3c32.6,2.6,60.9-4.8,87.1-24.2c-27.2-3.1-45.3-16.5-55.1-42c8.6,0,16.3,0,24,0
		c-27.7-10.7-43.3-29.7-45-59.7c8.4,2.5,16.4,4.8,24.4,7.2c0.3-0.4,0.6-0.9,0.9-1.3c-12.1-9.4-20.3-21.4-23.4-36.3
		c-3.1-14.8-1-28.9,7-42.6c32.4,37.9,72.9,58.7,121.5,62.2c0.4-8.8-0.3-17.6,1.5-25.8c4.7-22.2,18.5-37.5,40.1-44.4
		c21.7-7,41.7-2.5,58.8,13c2.4,2.1,4.4,3,7.5,1.9c11-4.1,22.1-7.9,33.1-11.8c-3.9,12.2-11.9,22.1-22.8,30c0.2,0.4,0.4,0.9,0.7,1.3
		c9.8-2.7,19.6-5.4,30.4-8.4c-2.8,3.7-5,7.2-7.9,10.1c-5.9,6.1-12.3,11.6-18.2,17.7c-1.6,1.7-3,4.4-2.9,6.7
		c0.6,66.9-38.4,134.7-103.9,160.7c-52.4,20.8-103.7,17.1-153-10.8C115.6,364,114.5,363,112,361.3z"/>
</g>
</svg>
