<?xml version="1.0" encoding="utf-8"?>
<!-- Generator: Adobe Illustrator 25.2.1, SVG Export Plug-In . SVG Version: 6.00 Build 0)  -->
<svg version="1.1" id="Layer_1" xmlns="http://www.w3.org/2000/svg" xmlns:xlink="http://www.w3.org/1999/xlink" x="0px" y="0px"
	 viewBox="0 0 209.3 211.1" style="enable-background:new 0 0 209.3 211.1;" xml:space="preserve">
<style type="text/css">
	.st0{fill:#010101;}
	.st1{fill:#FFFFFF;stroke:#231F20;stroke-width:2;stroke-miterlimit:10;}
	.st2{fill:#FFFFFF;}
	.st3{fill:none;stroke:#131313;stroke-width:6;stroke-miterlimit:10;}
	.st4{fill:none;stroke:#000000;stroke-width:3;stroke-miterlimit:10;}
</style>
<g>
	<ellipse class="st0" cx="110" cy="108.6" rx="98.3" ry="93.5"/>
	<g>
		<g>
			<path class="st1" d="M18.1,1.3c-0.1,0.1-0.2,0.1-0.3,0.2c0.1,0.3,0.3,0.6,0.4,0.8c5.7,9.3,11.3,18.5,17,27.7c0.8,1.3,0.6,2-0.4,3
				c-2.2,2.2-4.4,4.5-6.6,6.8c-6.9,7.7-12.3,16.4-16.5,25.8c-3.5,7.7-5.9,15.8-7.2,24c-1.3,8.1-2.1,16.4-1.3,24.6
				c1,9.3,2.6,18.4,5.9,27.3c3.3,8.8,7.5,17,12.9,24.7c7.3,10.3,16.2,18.9,26.7,25.9c7.5,5,15.4,9,23.9,11.8c3.6,1.2,7.3,2,11,2.8
				c3.6,0.8,7.2,1.5,10.8,1.9c7,0.8,14.1,1.2,21.1,0c5.6-0.9,11.2-1.7,16.7-3c7.2-1.8,14-4.7,20.6-8.1c7.9-4.1,15-9.2,21.5-15.1
				c7.2-6.5,13.1-14,18.2-22.2c3.7-6.1,6.9-12.5,9.1-19.2c1.3-3.9,2.5-7.8,3.2-11.8c1.1-6.6,2.3-13.4,2.6-20.1
				c0.4-8.6-0.9-17.1-2.7-25.5c-2.1-9.6-5.7-18.6-10.7-27.1c-3.1-5.3-6.8-10.3-10.6-15.1c-6.6-8.3-14.7-15.1-23.6-20.8
				c-8.3-5.3-17.1-9.1-26.6-11.8C126,6.7,118.6,5.6,111.1,5c-10.3-0.7-20.4,0.5-30.4,2.9c-11.2,2.7-21.6,7.3-31.3,13.6
				c-2.6,1.7-5,3.5-7.6,5.4c0.8,0.9,1.4,1.6,1.9,2.2c4.1,4.5,8.3,9,12.4,13.6c5.9,6.5,11.7,13.1,17.7,19.6c1.3,1.4,3.4,2.2,5.1,3.2
				c0.1-0.1,0.2-0.3,0.3-0.4c-0.4-0.5-0.8-1-1.1-1.5c-2.2-3.3-3.9-6.8-4.5-10.7c-0.6-3.7-1.8-7.6,0.9-11.1c0.5-0.6,1.3-1.4,1.9-1.3
				c3.5,0.3,7,0.5,10.3,1.4c5.8,1.7,10.7,5.1,14.5,9.7c2.6,3.2,5.3,3.7,9.2,3.2c6.5-0.8,13-0.4,19.4,1.6c9.4,3,17.1,8.5,23,16.4
				c3.3,4.4,5.8,9.2,6.7,14.6c0.1,0.5,0,1,0,1.6c-0.1,0-0.3,0.1-0.4,0.1c-0.4-0.5-0.8-1.1-1.2-1.6c-1.9-2.8-4.3-5-7.7-5.6
				c-3.3-0.6-6.7-1.1-10-1.3c-6.7-0.4-13.3-0.9-19.5-3.6c-2.1-0.9-4-2.1-5.8-3c0.2,3.7,2.3,6.2,5.9,7.4c3.5,1.2,7.1,2.2,10.8,2.8
				c7.5,1.3,15.1,2,22.2,5.3c6.3,3,11,7.5,13.6,14.1c2.8,6.9,2.2,13.8-0.2,20.7c-0.4,1.1-1.5,2-2.3,3.1c-0.3-0.5-0.4-0.6-0.4-0.7
				c0-0.2-0.1-0.5-0.1-0.7c0.1-4-1.9-7.1-4.7-9.7c-2.1-2-4.7-3.3-7.2-4.9c-2.8-1.8-6-2.6-8.9-4.1c-3.7-1.8-7.7-3.2-11.8-4.9
				c1.4,2.4,2.3,4.8,4.9,6.1c4.9,2.5,9.7,5.4,14.4,8.2c3.5,2.1,6.6,4.9,8.8,8.4c3.5,5.7,4.6,11.9,3.3,18.6
				c-1.2,6.2-3.9,11.6-8.7,15.7c-3,2.6-6.6,4.5-9.6,7.2c-3.5,3.2-7.9,5.1-11.8,7.7c-4.1,2.7-8.6,3-13.1,0.4
				c-3.1-1.8-5.1-4.6-6.6-7.7c-1.5-3.1-2.8-6.3-4.3-9.3c-2.2-4.3-5.7-7.2-10.5-7.8c-2.5-0.3-5,0.1-6.9,2.1c-1.8,2-2.3,4.3-1.3,6.8
				c1.1,2.6,3,4.4,5.8,4.8c2.2,0.3,4.1-0.4,5.4-2.3c1.3-1.8,1.5-3.7,0.5-5.8c-0.2-0.4-0.3-0.8-0.5-1.3c1.8,0.8,2.8,2.3,2.7,4
				c-0.2,6.7-5.7,10.3-12.1,8.2c-2.9-1-4.8-3-6.7-5.2c-4.6-5.5-10.4-8.4-17.6-8.8c-0.7,0-1.5-0.1-2,0.3c-5.8,3.8-12.1,3.2-18.4,1.8
				c-0.4-0.1-0.9-0.5-1.1-0.9c-1.1-2.2-2-4.6-3.3-6.7c-2.4-3.8-4.4-7.8-5.2-12.3c-1-5.6-0.2-10.8,3.2-15.5c2.8-3.8,5.9-7.5,8.6-11.5
				c2.7-3.9,4.8-8.1,5.3-13c0.5-5.5,1.5-10.7,5.5-14.9c0.6-0.6,0.8-2.1,0.5-2.8c-2.1-4.3-4.4-8.5-6.7-12.6
				c-4.5-8.1-9-16.2-13.5-24.3c-0.1-0.3-0.1-0.6-0.2-1.2c0.5,0.3,0.9,0.5,1.1,0.7c2.3,2.9,4.8,5.7,6.8,8.8c2.2,3.4,4,7.1,6,10.7
				c2.9,5.4,5.9,10.7,8.8,16.1c1.3,2.4,1.1,4.7-0.7,6.5c-3.6,3.4-4.3,7.9-4.6,12.3c-0.3,3.9-1.7,7.4-3.3,10.9
				c-2.6,5.6-6.8,10.1-10.5,15c-4.3,5.6-5,11.7-2.5,18c1.7,4.3,4.3,8.3,6.5,12.3c0.3,0.5,1.3,0.9,1.8,0.8c5-1.1,9.8-2.8,13.8-6
				c1.2-1,2.3-2.2,3.1-3.5c1.7-2.9,1.3-6-1.1-8.3c-1.9-1.7-4.1-3.1-6.1-4.6c-4.8-3.8-7.6-8.5-6-14.8c0.6-2.6,1.9-5.1,3-7.6
				c1.7-3.7,3.1-7.4,3.3-11.5c0.1-2.2,0.2-4.5,0.8-6.6c0.8-3,4.4-5.3,7.6-5.6c3.4-0.4,6.6-1,9.3-3.5c2.6-2.5,3-5.1,0.5-7.9
				C74,66.8,70,62.5,66.1,58.1c-3.9-4.3-7.6-8.8-11.5-13.1c-3.8-4.3-7.9-8.3-11.5-12.7c-7.4-9-14.6-18.2-21.9-27.2
				C20.1,3.8,19.1,2.6,18.1,1.3z M164.8,116.4c0.2-0.6,0.3-0.7,0.3-0.9c0.1-0.4,0.1-0.8,0.1-1.2c0.1-9.1-3.7-16-11.6-20.5
				c-5.3-3-11.2-3.9-17-4.9c-4.1-0.7-8.3-1.4-12.4-2.2c-1.6-0.3-3.1-0.9-4.9-1.5c0.1,0.6,0,0.9,0.1,1.2c1.3,3.2,3.5,5.9,6.3,7.9
				c5.4,4.1,11.8,6.3,17.9,8.9c3.8,1.6,7.6,3.3,11.3,5.2C158.6,110.4,162.1,112.7,164.8,116.4z M106.7,59c0.9,1.3,1.6,2.2,2.3,3.1
				c2.6,2.9,5.1,6,8,8.5c4.2,3.7,9.6,4.8,15.1,5.4c6.5,0.7,12.9,1.1,19.4,1.7c-4.9-7.6-11.5-13.4-20.2-16.7
				C123.5,58,115.4,57.5,106.7,59z M136.1,112.7c0,0.9-0.1,1.5,0,1.9c1,3,1.6,6.3,3.1,9c2.7,4.9,6,9.4,9,14.1
				c2.8,4.4,5,9.1,5.5,14.4c0.1,0.8,0.2,1.5,0.3,2.4c2.3-2.6,4.4-6.4,5.2-10.3c1.5-7.3,0.6-14.2-4.9-19.8
				C149.2,119.2,142.6,116.4,136.1,112.7z M115.8,166.2c0.1,0,0.2-0.1,0.3-0.1c-0.8-3.9-1.6-7.8-2.3-11.8c-0.6-3-2-5.5-4.1-7.6
				c-3.7-3.7-8.4-4.8-13.4-5.1c-6.1-0.3-11.6,1.6-17,4.3c-2.3,1.1-4.4,2.7-6.6,4c0,0.2,0,0.4,0,0.6c5.9,1.3,10.7,4.4,14.5,9.1
				c-0.1-1.3-0.4-2.5-0.3-3.6c0.7-7.1,7.3-9.8,12.9-8.6c5.6,1.2,9.2,4.8,11.7,9.6C113.1,160.1,114.4,163.2,115.8,166.2z M97.3,73.7
				c-0.9-1.1-1.6-2-2.2-2.8c-3-3.8-4.2-8.4-5.2-13c-1.5-7-5.7-11.3-12.6-12.9c-2.4-0.5-2.9-0.2-2.7,2.1c0.1,2.1,0.6,4.3,0.9,6.4
				c0.3,2,1.2,3.7,2,5.4c2.8,5.8,6.9,10.4,12.8,13.1C92.3,72.9,94.5,73.9,97.3,73.7z M92.8,131.9c0.1,0.3,0.1,0.5,0.2,0.8
				c0.5,0,1-0.1,1.5-0.1c3.4-0.5,6.8-1,10.2-1.4c3.9-0.5,7.9-0.5,11.8-1.4c7-1.7,11.8-6,12.9-13.4c0.6-3.9-0.3-7.6-2.6-10.8
				c0,0.6,0.1,1.3,0.2,1.9c1.7,9-2.1,16-10.8,18.8c-4.2,1.4-8.7,1.7-12.9,2.7C99.7,129.8,96.3,130.9,92.8,131.9z M84.7,97.6
				c0,0.1,0.1,0.3,0.1,0.4c2.4-0.7,4.8-1.3,7.1-2.2c2.1-0.9,2.7-2.9,1.9-5c-0.9-2.7-3.5-4.5-6.6-4.6c-2.6-0.1-5.3,1.5-6.3,4
				C79.4,93.9,79.8,97.6,84.7,97.6z"/>
			<path class="st2" d="M164.8,116.4c-2.7-3.7-6.2-6-9.9-7.9c-3.7-1.9-7.5-3.5-11.3-5.2c-6.1-2.6-12.5-4.8-17.9-8.9
				c-2.8-2.1-4.9-4.7-6.3-7.9c-0.1-0.2-0.1-0.6-0.1-1.2c1.7,0.5,3.3,1.2,4.9,1.5c4.1,0.8,8.2,1.5,12.4,2.2c5.9,1,11.8,1.9,17,4.9
				c7.9,4.5,11.7,11.4,11.6,20.5c0,0.4-0.1,0.8-0.1,1.2C165,115.7,165,115.9,164.8,116.4z"/>
			<path class="st2" d="M106.7,59c8.6-1.5,16.7-1,24.6,2c8.7,3.3,15.3,9.1,20.2,16.7c-6.5-0.6-13-1-19.4-1.7
				c-5.4-0.6-10.8-1.7-15.1-5.4c-2.9-2.5-5.4-5.6-8-8.5C108.3,61.2,107.7,60.2,106.7,59z"/>
			<path class="st2" d="M136.1,112.7c6.6,3.7,13.2,6.5,18.2,11.7c5.4,5.6,6.4,12.5,4.9,19.8c-0.8,3.8-2.8,7.7-5.2,10.3
				c-0.1-0.9-0.2-1.7-0.3-2.4c-0.5-5.3-2.7-10-5.5-14.4c-3-4.7-6.3-9.2-9-14.1c-1.5-2.7-2.1-6-3.1-9
				C135.9,114.2,136.1,113.6,136.1,112.7z"/>
			<path class="st2" d="M115.8,166.2c-1.4-3.1-2.7-6.2-4.2-9.1c-2.5-4.9-6.2-8.4-11.7-9.6c-5.6-1.2-12.2,1.5-12.9,8.6
				c-0.1,1.1,0.2,2.3,0.3,3.6c-3.8-4.6-8.5-7.8-14.5-9.1c0-0.2,0-0.4,0-0.6c2.2-1.4,4.3-2.9,6.6-4c5.3-2.7,10.9-4.6,17-4.3
				c5,0.3,9.8,1.4,13.4,5.1c2.1,2.1,3.5,4.6,4.1,7.6c0.7,3.9,1.5,7.8,2.3,11.8C116,166.1,115.9,166.2,115.8,166.2z"/>
			<path class="st2" d="M97.3,73.7c-2.8,0.2-5-0.7-7.1-1.7c-5.9-2.7-10-7.4-12.8-13.1c-0.8-1.7-1.7-3.5-2-5.4
				c-0.3-2.1-0.7-4.2-0.9-6.4c-0.1-2.3,0.4-2.6,2.7-2.1c7,1.6,11.1,5.9,12.6,12.9c1,4.6,2.2,9.2,5.2,13
				C95.8,71.7,96.4,72.5,97.3,73.7z"/>
			<path class="st2" d="M92.8,131.9c3.5-1,7-2.1,10.5-3c4.3-1,8.8-1.4,12.9-2.7c8.7-2.8,12.5-9.8,10.8-18.8
				c-0.1-0.6-0.2-1.2-0.2-1.9c2.3,3.3,3.2,6.9,2.6,10.8c-1.2,7.4-5.9,11.8-12.9,13.4c-3.8,0.9-7.8,0.9-11.8,1.4
				c-3.4,0.4-6.8,0.9-10.2,1.4c-0.5,0.1-1,0.1-1.5,0.1C92.9,132.4,92.8,132.2,92.8,131.9z"/>
			<path class="st2" d="M84.7,97.6c-4.9,0-5.3-3.7-3.8-7.4c1-2.5,3.7-4.1,6.3-4c3.1,0.1,5.7,1.9,6.6,4.6c0.7,2.1,0.2,4.1-1.9,5
				c-2.3,1-4.7,1.5-7.1,2.2C84.8,97.8,84.8,97.7,84.7,97.6z M86,92.9c2.6-0.1,4.1-1.1,4-2.6c-0.1-1.4-1.4-2.5-2.8-2.5
				c-1.6,0-3,1.4-3,3C84.3,92.4,85.2,92.9,86,92.9z"/>
			<path class="st2" d="M86,92.9c-0.9,0-1.8-0.5-1.8-2c0-1.6,1.4-3,3-3c1.5,0,2.8,1.1,2.8,2.5C90.1,91.8,88.7,92.9,86,92.9z"/>
		</g>
		<ellipse class="st3" cx="104.7" cy="108.1" rx="101.7" ry="100"/>
		<polyline class="st2" points="41.5,39.9 33.4,26.6 36.2,24 47.6,37.5 		"/>
	</g>
</g>
<polyline class="st4" points="75.6,68.9 17.9,2.5 63.2,76.5 "/>
</svg>
