<?xml version="1.0" encoding="utf-8"?>
<!-- Generator: Adobe Illustrator 25.2.1, SVG Export Plug-In . SVG Version: 6.00 Build 0)  -->
<svg version="1.1" id="Layer_1" xmlns="http://www.w3.org/2000/svg" xmlns:xlink="http://www.w3.org/1999/xlink" x="0px" y="0px"
	 viewBox="0 0 328.2 105.4" style="enable-background:new 0 0 328.2 105.4;" xml:space="preserve">
<style type="text/css">
	.st0{fill:#FFFFFF;}
</style>
<g>
	<path class="st0" d="M216.3,0c5.7,1,11.3,2,17,3.2c1.8,0.4,3.4,1.1,5.6,1.8c-1.4,6.6-2.8,13.1-4.2,19.7c-5.6-1.3-10.8-3.2-16.1-3.4
		c-5.5-0.2-11.3,0.3-16.4,2.1c-6.6,2.4-7.1,8.7-1.6,13.2c2.4,2,5.2,3.5,7.9,5.1c4,2.3,8.1,4.4,12.1,6.8c21.4,13.1,15,38.6-0.3,48.5
		c-10.6,6.9-22.4,9-34.6,8.2c-7.5-0.5-15-2.3-22.5-3.6c-3-0.5-3.9-2.1-3-5.3c1.5-5.5,2.5-11.2,3.6-16.4c6.7,1.7,13.2,4.1,19.8,4.8
		c5.8,0.5,12,0,17.5-1.8c7.7-2.5,8.6-10.4,2.2-15.5c-2.8-2.2-6.2-3.8-9.3-5.7c-4-2.4-8.1-4.5-11.9-7.1
		c-18.6-12.5-12.7-35.1,0.2-44.4c7.7-5.6,16.3-8.5,25.8-9.2c1.4-0.1,2.8-0.6,4.2-1C213.6,0,215,0,216.3,0z"/>
	<path class="st0" d="M306.9,2.4c7.1,33.9,14.1,67.4,21.3,101.5c-7.3,0-13.9,0.2-20.5-0.1c-1.2-0.1-2.9-1.7-3.4-3
		c-1.4-3.9-1.2-9.7-3.8-11.6c-2.8-2.1-8.3-0.7-12.6-0.8c-5.8-0.1-11.6,0.1-17.4-0.1c-3-0.1-4.5,1-5.4,3.8c-1.2,3.9-2.8,7.7-4.2,11.6
		c-8.8,0-17.4,0-26.6,0c4.1-9.8,8.1-19.3,12.1-28.8c8.9-21.2,17.9-42.4,26.8-63.7c2.4-5.9,6.5-8.9,13-8.8
		C292.9,2.4,299.7,2.4,306.9,2.4z M289.2,29.9c-0.4,0-0.8-0.1-1.2-0.1c-4.6,12.7-9.2,25.3-14,38.3c8,0,15.5,0,23.3,0
		C294.5,55.1,291.8,42.5,289.2,29.9z"/>
	<path class="st0" d="M69.2,71.3c3.9-9.7,7.8-19.4,11.6-29.1C85.7,30.1,90.6,18,95.2,5.9c1.1-2.8,2.5-3.7,5.4-3.6
		c7.3,0.2,14.6,0.1,22.6,0.1c-2.4,5.9-4.6,11.4-6.9,17C105,46,93.7,72.7,82.6,99.4c-1.4,3.4-3.1,4.8-6.9,4.6
		c-7.3-0.4-14.6-0.1-22.3-0.1C49.9,90.6,46.4,77.5,43,64.3c-3.7-14.2-7.4-28.3-11-42.5c-1.1-4.5-3.5-7.8-7.9-9.4
		c-7-2.5-14-4.9-21.1-7.3c-1-0.3-2-0.7-3.1-2c0.9-0.3,1.8-0.7,2.7-0.7c13.8-0.1,27.6-0.1,41.4,0C51.2,2.4,55.3,6,56.7,13.2
		c3.7,18.7,7.2,37.5,10.9,56.2c0.1,0.6,0.3,1.2,0.5,1.8C68.5,71.2,68.8,71.3,69.2,71.3z"/>
	<path class="st0" d="M161.6,2.3c-3.2,14.6-6.2,28.6-9.2,42.5c-4,18.5-8.1,36.9-11.8,55.4c-0.6,3-1.6,3.8-4.5,3.7
		c-7.1-0.1-14.2,0-21.8,0c2.5-11.7,4.9-22.7,7.3-33.8c4.6-21.3,9.3-42.7,13.7-64.1c0.6-2.9,1.7-3.8,4.5-3.7
		C146.9,2.4,153.8,2.3,161.6,2.3z"/>
	<path class="st0" d="M289.2,29.9c2.7,12.6,5.3,25.1,8.1,38.2c-7.8,0-15.3,0-23.3,0c4.7-13,9.3-25.6,14-38.3
		C288.3,29.8,288.8,29.9,289.2,29.9z"/>
</g>
</svg>
