<?xml version="1.0" encoding="utf-8"?>
<!-- Generator: Adobe Illustrator 25.2.1, SVG Export Plug-In . SVG Version: 6.00 Build 0)  -->
<svg version="1.1" id="Layer_1" xmlns="http://www.w3.org/2000/svg" xmlns:xlink="http://www.w3.org/1999/xlink" x="0px" y="0px"
	 viewBox="0 0 1133.7 384.5" style="enable-background:new 0 0 1133.7 384.5;" xml:space="preserve">
<style type="text/css">
	.st0{fill:#D70000;}
	.st1{fill:#A68778;}
	.st2{clip-path:url(#SVGID_2_);fill:url(#SVGID_3_);}
	.st3{fill:#B4643D;}
	.st4{fill:#954D29;}
	.st5{fill:#CB7043;}
	.st6{clip-path:url(#SVGID_5_);fill:url(#SVGID_6_);}
	.st7{fill:#D4CFC1;}
	.st8{fill:#EEEBE1;}
	.st9{fill:#FFFFFF;}
	.st10{fill:#BBB7AB;}
	.st11{clip-path:url(#SVGID_8_);}
</style>
<g id="circle">
</g>
<g id="blood">
	<g>
		<path class="st0" d="M1125.5,171.2c2.3,2.4,5,2.4,8.2-0.3v-3c-3.2-1.5-6.1-1.1-8.8,1C1124.8,169.9,1125,170.6,1125.5,171.2"/>
		<path class="st0" d="M1054,70c-31.9-31.9-70.5-47.9-115.7-47.9c-25,0-48,4.9-68.9,14.7c-1.5-3.6-2.8-7.2-4.1-10.8l-0.4-0.9
			c-0.6-1.1-1.4-1.9-2.6-2.4c-1.6-0.8-3.2-0.8-4.8-0.1c2.5,5.5,5.2,10.9,7.9,16.3c-15.3,7.8-29.5,18.1-42.6,31.2
			c-1.5,1.5-2.9,2.9-4.2,4.4c-1.1-2.4-2.8-4.5-5-6.3c-0.4-0.2-0.8-0.4-1.3-0.6c-3.6-1.7-7.1-1.5-10.5,0.6V74l0.6,0.1
			c2,5.2,4.5,8.5,7.6,10.2c-23.4,28.9-35.1,62.7-35.1,101.3c0,28.5,6.4,54.4,19,77.6c-4.3,2.8-8.6,5.5-13.1,8.1l-8.8,1l0.1,1.9
			c9.3,1.7,17.5-0.4,24.5-6.3c5.7,9.7,12.6,19,20.7,27.7l0.1,0.1c1.7,1.9,3.5,3.8,5.3,5.5c32,32,70.5,48,115.7,48
			c29.1,0,55.5-6.6,79.1-19.9l7.2,9.8c0.1,2.7,0.3,5.4,0.4,8c0.3,5.6,2.8,9.2,7.4,10.7c1.9-10,0.6-19.5-3.9-28.6l-2.4-1.3l-2.5,3.2
			c-1-0.7-1.8-1.5-2.6-2.2c-0.3-0.4-0.7-0.8-1-1.2c12.1-7.1,23.4-16,34-26.6c14.5-14.5,25.7-30.3,33.6-47.4
			c4.7,1.8,9.7,2.9,14.9,3.2c0.9-0.2,1.8-0.4,2.7-0.6c-0.8-1.7-2-3.1-3.4-4.3c-1.3-1.1-2.9-1.9-4.5-2.4c-0.3-0.1-0.6-0.1-0.9-0.1
			l-0.2-0.6c-1.9-0.6-3.9-1.1-5.8-1.7c7.7-19,11.6-39.6,11.6-61.8C1101.9,140.5,1086,102,1054,70 M910.5,65.8
			c-0.1-0.1-0.2-0.2-0.3-0.2c-0.4-0.8-1-1.3-1.7-1.8c-1.5-1.2-2.9-0.9-4,1c0.3,3.2,1.8,6,4.3,8.2c1.1,1,1.3,2.2,0.6,3.6
			c-0.4-0.1-0.8-0.1-1.1,0c-1.7,0-3.1,0.8-4,2.3l0.2,1.9l8.9,2.7c2.4,4.3,2.7,8.8,0.8,13.4l-9.7,7.3c-11.2-16.9-20.9-34.7-29.1-53
			c19-9,39.9-13.4,62.7-13.4c38.4,0,71.5,12.8,99.3,38.4c-0.3,0.1-0.6,0.3-0.8,0.6c-0.8,0.6-1.3,1.5-1.3,2.4c0,1,0.4,1.8,1.3,2.4
			c0.8,0.7,1.8,1,2.9,1c1.1,0,2-0.3,2.9-1c0.1-0.1,0.3-0.3,0.4-0.4c28.6,28.7,42.9,63.4,42.9,104c0,20.8-3.8,40.1-11.3,57.8
			c-0.3-0.1-0.5-0.2-0.8-0.2l0.3,1.3c-7.2,16.5-17.7,31.7-31.5,45.4c-9.4,9.4-19.5,17.3-30.1,23.7c-4.7-5-9-10.2-13-15.6
			c-2.6-3.6-5.5-6.9-8.6-9.9c-10.9-10.3-16.6-22.5-17.3-36.4c3.4-4.7,7.6-8.5,12.7-11.3c0.8,0.1,1.7,0.3,2.4,0.6
			c2.3,0.9,4.1,2.4,5.4,4.4l-7.4-2.8l-1.4,1.8c2,4.3,5.2,7.3,9.5,9.2c0.3,2,0.4,4.1,0.4,6.2c0,3.5-1.1,6.6-3.4,9.3l0.3,3.5l3.1-0.1
			c0.1-0.1,0.2-0.3,0.2-0.4c0.8-9.3,2.4-18.1,4.8-26.4c7.8,5.4,16.3,7.5,25.5,6.4c-1.5-0.8-2.9-1.3-4.5-1.5
			c-7.4-0.6-13.9-3-19.6-7.2l-0.5-6l29.5-10.7c1.7,1.2,3,2.7,3.9,4.4c2.5,4.6,5.8,8.4,9.9,11.4l-9.8-18.7c2.1-7.4,1.1-14.6-3-21.6
			l1.8-2l2.2,1c-0.2,0.6-0.1,1.2,0.2,1.8c1.5,2.4,3.8,4.1,6.7,5c-0.2,1.7-0.1,3.3,0.1,5c0.4,2.4,1.7,3.9,3.8,4.9
			c0.8-0.1,1.3-0.3,1.8-0.9c0.3-0.4,0.6-0.8,0.8-1.3c1-1.8,1.4-3.7,1.3-5.7c-0.5-0.2-0.8-0.5-1-0.9c-1.8-3.9-4.1-7.6-6.8-10.9
			c-2.9,0.9-5.8,0.8-8.6-0.3c-0.3-0.6-0.6-1.3-0.9-2c-0.7-1.7-0.3-3,1.2-3.8c9.1-5,19.7-5.7,31.7-2c7.6,2.3,12,0.7,13-4.8
			c-3.3-1-6.3-0.3-8.9,2l-27.9-2.4c-1.9-0.8-3.1-2-3.7-3.8c-3.1-9.6-0.4-15.5,8-17.4c0.4-0.8,0.8-1.7,1.3-2.4c1.1-2,1.7-4.1,1.7-6.4
			c6.7-6.4,14.8-9.7,24.5-9.9l4-4.9c-0.1-0.7-0.1-1.4-0.2-2.1c-0.3-2.2-1.2-4.2-2.7-5.9l-8.9-1l-0.1,0.6l-10.7,9.2
			c-1.7,0.3-3.2,0.7-4.8,1.1c-6.9,1.8-12.5,0.6-16.7-3.5l9.3-0.6l1.5-2.5c-1.7-2.5-4-2.9-6.9-1.3c-4.1,2.4-8.5,3.6-13.3,3.8
			l-5.9-5.9c0.1-0.7,0.3-1.4,0.4-2.2c0.3-0.9,0.9-1.5,1.8-2c0.3,0.1,0.7,0.3,1,0.4c3.2,1.6,6.6,1.8,9.9,0.8
			c-0.1-0.7-0.3-1.4-0.4-2.1c-0.1-0.8-0.4-1.4-1-1.8c-1.7-1.2-3.5-1.3-5.5-0.1l4.9-6.8l-1.9-5.9l-0.8-0.2c-3.1-4.3-7.4-5.9-13-4.6
			l-0.2,0.6c-0.3,0.1-0.7,0.3-1,0.4c-2.2,1-4.5,1.3-7,0.9c-0.1-0.3-0.1-0.6-0.1-0.9c-0.1-3,1.4-4.9,4.3-5.9c2.4-0.8,2.4-2.2,0.1-4.1
			l-10.8,6.9l-2.5-1.9c0.5-1.8,1.5-3.2,2.9-4.2c2-1.5,4.2-1.7,6.6-0.8c0.1-0.2,0.3-0.4,0.5-0.5c0.7-0.8,1.5-1.3,2.4-1.8
			c2.1-1,3.8-2.5,4.9-4.6c0.8-0.2,1.6-0.4,2.4-0.6c6.3-1.4,11.8-4.1,16.5-8l-0.1-2.2c-8.3,6-17.4,8.3-27,7l-3.4,2.4
			c0.1,0.6,0,1.1-0.4,1.5c-2.9,3.9-6.4,7.1-10.5,9.9c-6.5,0.9-12.8,0.6-19-1l-5.5-9.8c-12.7,0.8-25.4,1.7-38.3,3l-5-3
			C916.2,83.4,912,75.2,910.5,65.8 M879.6,65.4c4.3,7.4,8.6,14.6,13,21.7c7.1,11.3,6.2,20.9-2.7,28.7c-1.7-1.7-3.2-3.6-4.6-5.4
			c-1.7-2.4-2.5-5-2.7-7.9l-2,0.2c-0.3,1.2-0.4,2.4-0.3,3.6c0.6,5.2,3.1,9,7.6,11.4l1,4.9c-8.1-0.4-14.8-4-20-10.9
			c-7.8-10.4-16.5-18.9-26.1-25.5c8.1,12.6,18.2,24,30.5,34.4c0.1,0.1,0.1,0.3,0.1,0.5c0.1,0.4,0.3,0.8,0.6,1.2
			c0.4,0.4,0.7,0.8,0.9,1.3c0.5,1.5,0.3,2.7-0.6,3.9c-17-7.9-33.7-16.5-50.2-25.6c12.1,10.7,26.5,19.3,43.3,25.6l0.1,0.6l4.8,5.3
			c-0.4,3.2-2.1,5.5-5,6.9c-6.3,3-13.3,3.4-20.9,1.3c-1.2-0.3-2.4-0.7-3.5-1c5.7,2.4,11.3,5,16.6,7.8c-3.3,5.2-6.6,10.4-9.9,15.5
			c-3.1,0.1-6.1-0.3-9-1.3c-1.7-0.6-2.9-0.2-3.5,1.3c-2.9,6.7,0.3,12.4,9.5,16.9c0.1,0.8,0.4,1.6,0.9,2.2c0.8,1.1,0.8,1.7-0.1,1.8
			c-14.9,0.6-27.5,6.4-38.1,17.6c-4.6,1.5-8.5,4.1-11.8,7.9c4.3-2,8.3-4.5,11.7-7.6c12.5-11.2,26.3-14.9,41.4-11.1
			c2,10.2,0,19.3-5.9,27.5c-2.9,1.7-5.9,3.3-8.8,5l-1,3.9c-8.7,9.5-17.9,18.1-27.8,25.7c-10.9-20.5-16.4-43.4-16.4-68.5
			c0-22.2,4.3-42.6,12.8-61.3c7.4,4.3,15.8,8.1,25,11.4c-8.6-3.9-16.4-8.9-23.3-14.8c7-14.2,16.5-27.5,28.7-39.6
			c11.9-11.9,24.8-21.4,38.7-28.3C874.8,56.9,877.1,61.2,879.6,65.4 M834.1,241.2c0.6,0.3,1,0.3,1.3,0c6.7-8.3,14.3-15.9,22.9-23
			c0.5,0.1,1,0.3,1.4,0.4c5.3,1.6,9.7,4.4,13.4,8.5c1.5,0.1,3,0.4,4.4,1c2.9,1.1,5.2,2.9,7,5.4l-1.5,5.4v3.7c0,3.2-1,5.9-3,8.1
			c-0.6-0.1-1.1-0.4-1.7-0.6c-1.8-1-3.2-2.4-4.2-4.2l-12.8-3l-11.8,6.9c-2.8,5.3-2.5,10.6,1,15.7l0.6,0.3c0.2,0.3,0.4,0.6,0.6,1
			c5.3,6.8,12.4,10,21.2,9.6l0.2-0.6l3.8-1.3l4.9-5.9l0.4-10.9c3.9-3.6,5.1-8.8,3.5-15.6l0.1-0.1c0.5-0.2,0.8-0.4,1-0.8
			c1-2.1,2.5-3.4,4.8-4c1.7,0.6,3.1,1.5,4.5,2.5c2.4,1.8,3.6,4,3.8,6.7l-2.4-0.4c-2.9,1.7-3.3,3.7-1.1,6.2c2.7,3.1,6.5,4.3,11.3,3.7
			l0.6,7.9l5,6.9c-0.3,8.6-2.7,16.3-7.3,23c-0.1,0.3-0.1,0.6-0.1,1c0.1,0.4,0.1,0.8,0.2,1.2c0.3,1.1,1.1,1.8,2.2,2.3
			c3.8-8.5,6.7-18.3,8.9-29.5l5.9-1.9l3-7l2.3-0.9l1.7,2.9c6-1.3,12-2.7,18-3.9c4.1-0.9,7.8-0.1,11.2,2.4
			c20.5,14.9,37.1,33.3,49.6,55.3c-21.1,11.8-44.7,17.6-70.7,17.6c-40.8,0-75.6-14.4-104.4-43.3c-10.4-10.4-19-21.6-25.6-33.6
			c10.2-10.2,21.1-19.1,32.4-27c2.3-3.4,5.2-6,8.9-7.9C843.6,228,838.4,234.7,834.1,241.2 M938,265.4c0,0.4,0,0.8,0,1.3
			c0,4.2,2.1,6.4,6.4,6.6C945.7,268.5,943.6,265.9,938,265.4 M826.9,282.1c3.9,1.5,7.9,1.5,11.8,0l0.2-0.6c3.2-2.4,3.8-5.2,1.7-8.6
			c-3-4.8-7.3-5.7-12.7-2.5l-3,3.9L826.9,282.1 M1027.9,267.2c-1.8-3.9-4.6-4.8-8.2-2.7c0,0.4,0.1,0.8,0.1,1.2
			c1.1,4.9,4,6.5,8.6,4.8C1028.5,269.2,1028.4,268.2,1027.9,267.2 M1041.3,247.7c0.2,0.4,0.4,0.9,0.5,1.3c1.3,3.1,3.5,4.8,6.7,4.9
			l2.2-2.3c-0.1-0.3-0.2-0.7-0.3-1.1c-1-3.6-3.2-5.2-6.7-4.5L1041.3,247.7 M1057.1,233c-1.9,0-3.6,0.6-5,1.8
			c-1.4,1.1-2.1,2.5-2.1,4.2c0,1.7,0.7,3.1,2.1,4.2c1.4,1.1,3.1,1.8,5,1.8c2,0,3.6-0.6,5-1.8c1.4-1.2,2.1-2.6,2.1-4.2
			c0-1.7-0.7-3.1-2.1-4.2C1060.7,233.6,1059.1,233,1057.1,233 M993.7,59.6c-1.3-3.6-3.7-4.4-7-2.5c0.1,0.4,0.2,0.9,0.3,1.3
			c0.8,3.4,3.1,5,6.6,4.6C994.1,61.9,994.1,60.7,993.7,59.6 M1018.5,70c-0.8-0.8-1.8-1.1-3-1.1c-1.2,0-2.2,0.4-3,1.1
			c-0.8,0.8-1.3,1.7-1.3,2.7s0.4,2,1.3,2.7c0.8,0.7,1.8,1,3,1c1.1,0,2.1-0.3,3-1c0.8-0.8,1.2-1.7,1.2-2.7
			C1019.7,71.7,1019.3,70.8,1018.5,70 M953.8,69.7c-3.2-2.2-6.6-1.8-9.9,1l-2,4.9c-3.1-1.7-6.4-2.4-9.9-2l-10.8,7.9v1
			c5.3-3.5,11.1-5.2,17.1-4.9c1.2,2,1.1,4-0.4,5.9c3.9-1,6.9-3.3,8.8-6.9c0.3,0,0.7,0,1-0.1C951.7,75.7,953.7,73.4,953.8,69.7"/>
		<path d="M835.5,241.2c-0.3,0.3-0.8,0.3-1.3,0c4.3-6.5,9.5-13.2,15.4-20c-3.7,1.9-6.6,4.5-8.9,7.9c-11.4,7.8-22.3,16.8-32.4,27
			c6.6,12,15.1,23.2,25.6,33.6c28.8,28.9,63.6,43.3,104.4,43.3c26,0,49.5-5.9,70.7-17.6c-12.5-22.1-29.1-40.5-49.5-55.3
			c-3.4-2.5-7.1-3.2-11.2-2.4c-6,1.3-12,2.6-18,3.9l-1.7-2.9l-2.3,0.9l-3,7l-5.9,1.9c-2.2,11.2-5.2,21-8.9,29.5
			c-1.1-0.4-1.9-1.2-2.2-2.3c-0.1-0.4-0.2-0.8-0.2-1.2c0-0.3,0-0.6,0.1-1c4.6-6.7,7.1-14.4,7.3-23l-5-6.9l-0.6-7.9
			c-4.8,0.6-8.6-0.6-11.3-3.7c-2.2-2.5-1.8-4.5,1.1-6.2l2.4,0.4c-0.2-2.7-1.5-4.9-3.8-6.7c-1.4-1-2.9-1.9-4.5-2.5
			c-2.2,0.6-3.8,1.9-4.8,4c-0.2,0.3-0.6,0.6-1,0.8l-0.1,0.1c1.6,6.7,0.4,11.9-3.5,15.6l-0.4,10.9l-4.9,5.9l-3.8,1.3l-0.2,0.6
			c-8.8,0.4-16-2.8-21.2-9.6c-0.3-0.3-0.4-0.6-0.6-1l-0.6-0.3c-3.4-5.2-3.8-10.4-1-15.7l11.8-6.9l12.8,3c1,1.8,2.4,3.2,4.2,4.2
			c0.6,0.3,1.1,0.5,1.7,0.6c2-2.2,3-4.9,3-8.1v-3.7l1.5-5.4c-1.8-2.5-4.1-4.3-7-5.4c-1.4-0.6-2.9-0.9-4.4-1
			c-3.6-4.1-8.1-6.9-13.4-8.5c-0.4-0.1-0.9-0.3-1.4-0.4C849.8,225.3,842.1,232.9,835.5,241.2 M838.7,282.1c-3.9,1.5-7.8,1.5-11.8,0
			l-2-7.9l3-3.9c5.5-3.2,9.7-2.4,12.7,2.5c2.1,3.4,1.5,6.2-1.7,8.6L838.7,282.1 M938,266.7c0-0.4,0-0.9,0-1.3
			c5.5,0.5,7.6,3.1,6.4,7.9C940.1,273,938,270.9,938,266.7 M892.6,87.2c-4.3-7.1-8.6-14.3-13-21.7c-2.5-4.3-4.9-8.6-7.2-12.9
			c-13.9,7-26.8,16.4-38.7,28.3c-12.1,12.1-21.7,25.4-28.7,39.6c6.9,5.9,14.6,10.9,23.3,14.8c-9.2-3.2-17.5-7.1-25-11.4
			c-8.5,18.7-12.8,39.1-12.8,61.3c0,25.1,5.5,48,16.5,68.6c9.9-7.6,19.1-16.2,27.8-25.7l1-3.9c3-1.7,5.9-3.3,8.8-5
			c5.9-8.1,7.9-17.3,5.9-27.5c-15.1-3.9-28.9-0.2-41.4,11.1c-3.4,3.1-7.4,5.7-11.7,7.6c3.3-3.7,7.3-6.3,11.8-7.9
			c10.5-11.1,23.2-17,38.1-17.6c0.9-0.1,1-0.8,0.1-1.8c-0.5-0.6-0.8-1.4-0.9-2.2c-9.2-4.5-12.4-10-9.5-16.9c0.6-1.5,1.8-1.8,3.5-1.3
			c2.9,1,5.9,1.5,9,1.3c3.2-5.2,6.6-10.3,9.9-15.5c-5.3-2.8-10.9-5.4-16.6-7.8c1.1,0.3,2.3,0.7,3.5,1c7.6,2.1,14.6,1.7,20.9-1.3
			c2.9-1.5,4.5-3.8,5-6.9l-4.8-5.3l-0.1-0.6c-16.7-6.3-31.2-14.8-43.3-25.6c16.5,9.1,33.2,17.6,50.2,25.6c0.9-1.1,1.1-2.4,0.6-3.9
			c-0.2-0.5-0.5-1-0.9-1.3c-0.3-0.3-0.6-0.8-0.6-1.2c0-0.2,0-0.4-0.1-0.5c-12.3-10.3-22.4-21.8-30.5-34.4
			c9.6,6.6,18.4,15.1,26.1,25.5c5.2,6.9,11.8,10.5,20,10.9l-1-4.9c-4.5-2.4-7.1-6.2-7.6-11.4c-0.1-1.2-0.1-2.4,0.3-3.6l2-0.2
			c0.1,2.9,1,5.5,2.7,7.9c1.5,1.9,3,3.7,4.6,5.4C898.7,108.1,899.6,98.5,892.6,87.2 M910.3,65.6c0.1,0.1,0.2,0.1,0.3,0.2
			c1.5,9.4,5.7,17.6,12.7,24.5l5,3c12.8-1.2,25.6-2.2,38.3-3l5.5,9.8c6.2,1.6,12.6,1.9,19,1c4.1-2.7,7.6-6,10.5-9.9
			c0.3-0.4,0.4-0.9,0.4-1.5l3.4-2.4c9.6,1.4,18.6-1,27-7l0.1,2.2c-4.6,3.9-10.1,6.6-16.5,8c-0.8,0.2-1.6,0.4-2.4,0.6
			c-1.1,2.1-2.8,3.6-4.9,4.6c-1,0.4-1.8,1-2.4,1.8c-0.2,0.1-0.4,0.3-0.5,0.5c-2.4-1-4.5-0.8-6.6,0.8c-1.5,1-2.4,2.4-2.9,4.2l2.5,1.9
			l10.8-6.9c2.2,1.9,2.2,3.3-0.1,4.1c-2.9,1-4.3,2.9-4.3,5.9c0,0.3,0.1,0.6,0.1,0.9c2.5,0.4,4.8,0.1,7-0.9c0.3-0.1,0.7-0.3,1-0.4
			l0.2-0.6c5.6-1.2,9.9,0.3,13,4.6l0.8,0.2l1.9,5.9l-4.9,6.8c2-1.2,3.8-1.1,5.5,0.1c0.6,0.4,1,1.1,1,1.8c0.1,0.7,0.3,1.4,0.4,2.1
			c-3.4,1-6.7,0.8-9.9-0.8c-0.3-0.1-0.7-0.3-1-0.4c-1,0.4-1.5,1.1-1.8,2c-0.2,0.8-0.3,1.5-0.4,2.2l5.9,5.9c4.8-0.1,9.2-1.4,13.3-3.8
			c2.9-1.7,5.2-1.3,6.9,1.3l-1.5,2.5l-9.3,0.6c4.3,4.1,9.9,5.3,16.7,3.5c1.6-0.4,3.2-0.8,4.8-1.1l10.7-9.3l0.1-0.6l8.9,1
			c1.5,1.7,2.4,3.6,2.7,5.9c0.1,0.7,0.2,1.4,0.2,2.1l-4,4.9c-9.7,0.1-17.9,3.4-24.5,9.9c0,2.3-0.6,4.4-1.7,6.4
			c-0.4,0.8-0.9,1.6-1.3,2.4c-8.4,2-11.1,7.8-8,17.4c0.6,1.8,1.8,3.1,3.7,3.8l27.9,2.4c2.6-2.4,5.6-3,8.9-2c-1,5.4-5.4,7-13,4.8
			c-12.1-3.6-22.6-3-31.7,2c-1.5,0.8-1.9,2-1.2,3.8c0.3,0.7,0.6,1.3,0.9,2c2.9,1.1,5.7,1.2,8.6,0.3c2.8,3.3,5,6.9,6.8,10.9
			c0.2,0.4,0.6,0.7,1,0.9c0.1,2-0.4,3.9-1.3,5.7c-0.2,0.4-0.4,0.9-0.8,1.3c-0.4,0.6-1,0.8-1.8,0.9c-2.1-1-3.3-2.5-3.8-4.9
			c-0.3-1.7-0.3-3.3-0.1-5c-2.9-1-5.2-2.6-6.7-5c-0.3-0.6-0.4-1.1-0.2-1.8l-2.2-1l-1.8,2c4.1,7.1,5.1,14.2,3,21.6l9.8,18.7
			c-4.1-3-7.4-6.8-9.9-11.4c-0.9-1.7-2.2-3.2-3.9-4.4l-29.5,10.7l0.5,6c5.7,4.2,12.2,6.6,19.6,7.2c1.5,0.3,3,0.8,4.5,1.5
			c-9.2,1.1-17.7-1.1-25.5-6.4c-2.4,8.3-4,17.1-4.8,26.4c-0.1,0.1-0.1,0.3-0.2,0.4l-3.1,0.1l-0.3-3.5c2.3-2.7,3.4-5.7,3.4-9.3
			c0.1-2.2-0.1-4.3-0.4-6.2c-4.3-1.9-7.5-5-9.5-9.2l1.4-1.8l7.4,2.8c-1.3-2-3.1-3.5-5.4-4.4c-0.8-0.3-1.6-0.5-2.4-0.6
			c-5,2.9-9.3,6.6-12.7,11.3c0.6,14.1,6.4,26.2,17.3,36.4c3.2,3,6,6.3,8.6,9.9c3.9,5.5,8.3,10.7,13,15.6
			c10.6-6.4,20.7-14.2,30.1-23.7c13.8-13.8,24.3-28.9,31.5-45.4l-0.3-1.3c0.3,0.1,0.5,0.1,0.8,0.2c7.5-17.7,11.3-37,11.3-57.8
			c0-40.6-14.3-75.3-42.9-104c-0.1,0.1-0.2,0.3-0.4,0.4c-0.8,0.7-1.8,1-2.9,1c-1.1,0-2.1-0.3-2.9-1c-0.8-0.7-1.3-1.5-1.3-2.4
			c0-1,0.4-1.8,1.3-2.4c0.3-0.3,0.5-0.4,0.8-0.6c-27.8-25.6-60.9-38.4-99.3-38.4c-22.8,0-43.7,4.5-62.7,13.4
			c8.3,18.4,17.9,36.1,29.1,53l9.7-7.3c1.9-4.6,1.6-9.1-0.8-13.4l-8.9-2.7l-0.2-1.9c1-1.5,2.3-2.3,4-2.3c0.3-0.1,0.7-0.1,1.1,0
			c0.8-1.3,0.6-2.5-0.6-3.6c-2.5-2.3-3.9-5-4.3-8.2c1.1-1.8,2.5-2.2,4-1C909.2,64.2,909.8,64.9,910.3,65.6 M944,70.7
			c3.3-2.9,6.6-3.2,9.9-1c-0.1,3.7-2.1,6-5.9,6.8c-0.3,0.1-0.7,0.1-1,0.1c-1.9,3.6-4.9,5.9-8.8,6.9c1.5-1.9,1.7-3.8,0.4-5.9
			c-6.1-0.3-11.8,1.4-17.1,4.9v-1l10.7-8c3.5-0.3,6.8,0.3,9.9,2L944,70.7 M1015.5,68.9c1.1,0,2.1,0.4,3,1.1c0.8,0.8,1.2,1.7,1.2,2.7
			s-0.4,2-1.2,2.7c-0.8,0.7-1.8,1-3,1c-1.2,0-2.2-0.3-3-1c-0.8-0.8-1.3-1.7-1.3-2.7c0-1,0.4-1.9,1.3-2.7
			C1013.3,69.3,1014.4,68.9,1015.5,68.9 M986.7,57c3.3-1.9,5.7-1,7,2.5c0.5,1.1,0.4,2.3-0.1,3.4c-3.6,0.3-5.7-1.2-6.6-4.6
			C986.9,57.9,986.8,57.5,986.7,57 M1052.1,234.8c1.4-1.2,3.1-1.8,5-1.8c2,0,3.6,0.6,5,1.8c1.4,1.1,2.1,2.5,2.1,4.2
			c0,1.7-0.7,3.1-2.1,4.2c-1.3,1.2-3,1.8-5,1.8c-1.9,0-3.6-0.6-5-1.8c-1.4-1.2-2.1-2.6-2.1-4.2C1050,237.4,1050.7,236,1052.1,234.8
			 M1041.8,249.1c-0.1-0.4-0.3-0.9-0.5-1.3l2.4-1.7c3.5-0.7,5.7,0.8,6.7,4.5c0.1,0.4,0.2,0.8,0.3,1.1l-2.2,2.3
			C1045.3,253.8,1043,252.1,1041.8,249.1 M1019.7,264.4c3.6-2.1,6.4-1.1,8.2,2.7c0.4,1,0.6,2,0.6,3.2c-4.7,1.7-7.6,0.1-8.6-4.8
			C1019.7,265.2,1019.7,264.8,1019.7,264.4"/>
		<path class="st0" d="M815,53.6c0-0.9-0.4-1.7-1.2-2.3c-0.8-0.6-1.7-1-2.7-1s-2,0.3-2.8,1c-0.8,0.6-1.1,1.4-1.1,2.3
			c0,0.9,0.4,1.7,1.1,2.3c0.8,0.6,1.7,1,2.8,1c1.1,0,2-0.3,2.7-1C814.7,55.2,815,54.4,815,53.6"/>
		<path class="st0" d="M761,32.3c0.1,0.3,0.1,0.5,0.1,0.8c0.4,3.4,2.2,5,5.5,5l2.3-0.8C769.3,31.2,766.6,29.5,761,32.3"/>
		<path class="st0" d="M762,65.8c0.1-0.7,0.1-1.4-0.1-2.1c-1.5-4.8-4.7-6.4-9.7-4.9v3c2.4,0.3,4.1,1.7,4.9,4
			c0.2,0.1,0.4,0.2,0.6,0.3C759.2,66.8,760.6,66.8,762,65.8"/>
		<path class="st0" d="M780.8,75.9c-0.1-5.1-2.4-6.8-7.1-5.2c0.6,3.9,2.9,5.9,6.9,5.9C780.8,76.4,780.8,76.1,780.8,75.9"/>
		<path class="st0" d="M788.4,84.7c1.9,2.4,4.2,3.9,7.1,4.8c-0.3-1-0.7-2-1.1-3c-1.5-4.1-4.5-6.7-8.8-7.9
			C786,80.8,787,82.9,788.4,84.7"/>
		<path class="st0" d="M892.8,368.7c0.3-0.1,0.5-0.3,0.8-0.4c4.1-2.1,4.9-5.1,2.6-9c-3.2-2.3-6.3-2.1-9.3,0.4
			C886.8,364.1,888.9,367.1,892.8,368.7"/>
		<path class="st0" d="M838.8,335.2c0.7-0.6,1-1.3,1-2.1c0-0.8-0.3-1.5-1-2.1c-0.7-0.6-1.5-0.8-2.5-0.8c-1,0-1.8,0.3-2.4,0.8
			c-0.7,0.6-1,1.3-1,2.1c0,0.8,0.3,1.5,1,2.1c0.7,0.6,1.5,0.9,2.4,0.9C837.3,336.1,838.1,335.7,838.8,335.2"/>
		<path d="M882,125.8c-0.3-0.3-0.7-0.3-1.1-0.2c-3.6,0.7-6.6,2.6-9,5.8c-1.7,2.1-2.9,4.5-3.7,7.3c-0.2,0.6-0.1,1.1,0.3,1.5
			c-3.1,10.7-7.5,20.8-13.2,30.3c-0.9,1.5-1.5,3.1-1.9,4.6c-1.3,5.6-0.4,10.7,2.4,15.3c0.6,0.8,1.2,1.4,2.1,1.8c1.9,1,3.9,1.3,5.9,1
			c1.5,5,2.7,10,3.7,15.1c0.1,0.9,0.4,1.7,1,2.5c4.9,7.8,11.6,11.8,20.1,12.1c1.6,0.1,3.1,0,4.6-0.3l2.9,1c1.2,1.8,2.7,3.4,4.6,4.6
			c1.9,1.2,3.9,1.8,6.1,1.7c6.8-0.1,13.7-0.2,20.5-0.4c0.7-0.1,1.4,0.1,2.1,0.4c4.4,2.2,8.8,4.5,13,6.9c1.7,1,3.6,1.6,5.5,2
			c1.2,0.3,2.4,0.4,3.6,0.4c3.6-0.1,7.2-0.3,10.8-0.6c3.1,7.8,8.3,12.5,15.6,14.2c4.3,1,8,0,11.1-3c0.6-0.6,1.1-1.3,1.7-2
			c2-3.1,4.8-4.7,8.4-5c3.8-0.2,7.6-0.4,11.4-0.8c8-0.8,16-2,23.8-3.7c1.1-0.2,1.8-0.8,2.2-1.9c0.3-1.1,0.5-2.3,0.5-3.5
			c-0.1-1.9-0.1-3.8,0.1-5.5c0.6-5.9,0.7-11.7,0.4-17.6c0.2-9-2.3-16.7-7.4-23.3c-1.2-1.5-2.5-2.9-3.9-4.2
			c-3.9-3.4-8.3-5.9-12.9-7.3c-0.3-0.1-0.6,0-1,0.1c-0.1-3.6-0.4-7.4-0.6-11.6c-0.7-10.2-2.6-20.1-5.8-29.6c-1.7-5-3.8-9.7-6.4-14.1
			c-0.3-0.6-0.8-1.2-1.3-1.8c-2.5-3.4-5.9-4.6-9.9-3.8c-3.9,1-7.6,2.5-11.1,4.8c-1.9,1.3-3.8,1-5.5-0.9c-0.6-0.5-1.2-0.9-1.8-1.2
			c-1-0.4-1.7-1-2.1-1.8l-1.3-0.1c-2.9-5.1-7.1-7.5-12.6-7.3c-3.8,0.1-7.2,1.2-10.4,3.2c-0.8,0.6-1.5,1.2-2.2,2
			c-4.1,5.1-9.2,7.6-15.1,7.4c-0.7,0-1.3-0.3-1.7-1c-0.1-0.1-0.1-0.2-0.1-0.2c-0.8-0.5-1.5-1.5-1.8-2.8c-0.1-0.6-0.4-1-1-1.3
			c-2.6-1-5.3-1-8-0.3c-3.6,1-7,2.4-10.2,4.3c-6,3.4-12.3,5.7-19,6.9C883.9,126.4,883.1,126.4,882,125.8 M901.6,123.7
			c0.1-0.1,0.3-0.2,0.4-0.3c0.6-0.4,1.1-0.9,1.7-1.3c4.3-2.6,9-3.9,13.8-3.9c0.7,0,1.3,0.3,1.8,0.9c1.5,2,2.5,4.3,3.2,6.8
			c0.3,1,0.6,2,0.9,3.1l1.5,5.3c0.3,0.8,0.5,1.5,0.8,2.3l-1.2-12.8c4.1,0.7,7.8,0.1,11.1-1.8c1.8-1.1,3.5-2.5,5-4.5
			c2.9-3.4,6.6-5.4,10.8-5.8c3.1-0.3,6.2,0,9.1,1.1c1,0.3,1.8,0.9,2.5,1.7c0.2,0.3,0.4,0.6,0.5,0.9l0.9,2.8c0.1,2.4,0.1,4.7-0.1,7.1
			c-0.2,3.8-0.7,7.4-1.5,11.1l2.4-8.5l2.2-7.9c3,2.5,6.2,3.6,9.5,2.9c0.6-0.1,1.2-0.4,1.7-0.8c2.4-1.9,4.8-3.1,7.3-3.8
			c2.2-0.6,4.4-0.6,6.7-0.4c3.2,0.4,4.9,2.5,4.9,6.4c0,6.1,0.2,12.3,0.6,18.4l1.9-9.8l-0.1-2.9c5.5,12.6,8.2,25.8,8.1,39.6
			c0.1,3-0.3,6-0.9,9c-0.5,2.5-1,5-1.5,7.5c-0.3,1.7-0.6,3.2-0.9,4.9c-0.3,1.1-0.6,2.2-1.2,3.2c-0.1,0.3-0.2,0.5-0.4,0.8
			c-0.4,0.6-0.8,1.1-1.3,1.7c-6.4-0.1-12.6,1.2-18.6,4.1c-1.8,0.8-3.6,1.7-5.4,2.4c-0.3,0.1-0.5,0.1-0.8,0.1h-0.1
			c-0.8-1.1-1.1-2.4-1-4.1c0.1-1.9,0.1-3.8-0.1-5.7c-0.4-7.7-1.1-15.4-2-23c-0.3-0.1-0.7-2.5-1-7.1c-0.1-0.8-0.1-1.5-0.1-2.2
			c-0.1-0.5-0.2-1-0.2-1.4c-0.5-3.5-2.1-5.9-4.9-7c-0.3-0.1-0.4-0.1-0.6-0.1c-0.2,0.1-0.4,0.2-0.5,0.3c-0.6,2.2,0,4.4,1.5,6.6
			c0.6,1,1.1,1.9,1.5,3c0.5,1.4,0.9,2.7,1.1,4.1c1.3,9.2,1.7,18.4,1.2,27.7c-0.2,3.2,0.1,6.2,1,9.1c0.3,0.8,0.6,1.5,0.9,2.3l0.1,1.3
			l-1.7,5.5l-2.4,8.9c-3.9,1.6-8.1,2.5-12.5,2.8c-2-0.1-4.1,0-6.2,0.3c-4.8,0.7-9.3,0.1-13.6-1.9c-1.6-0.8-2.7-2-3.4-3.7
			c-2.1-4.8-3.4-9.9-3.8-15.2c-0.8-9.5-1.3-19.1-1.8-28.6c0-0.2,0-0.4-0.1-0.6c-0.2-5.1-1.3-9.8-3.5-14.1c-0.6-1.2-1.2-2.5-2-3.7
			c-0.2-0.3-0.4-0.4-0.8-0.4c-0.2,0.7-0.3,1.3-0.4,2c-0.1,1.6,0.1,3.2,0.8,5c2.4,6.3,3.6,12.7,3.8,19.3c0.1,2.7,0.2,5.3,0.4,8
			c0.3,6.9,0.7,12.7,1,17.4c0.3,4.1,1.1,7.9,2.7,11.7l-1.7,0.3l-2.2,5.1c-6.4,0.8-12.8,1.4-19.2,1.9c-0.4,0-0.9-0.1-1.3-0.1
			c-5-1.3-7.8-4.6-8.5-9.8c-0.1-0.6-0.2-1.1-0.2-1.7c0-0.7,0-1.3-0.1-2c-0.1-2.8-0.2-5.5-0.3-8.3c-0.2-4.4-0.8-8.8-1.7-13.1
			c-0.5-2.4-0.8-4.6-1-7c-0.1-1.8-0.1-3.6,0-5.3c0.1-1.7,0.3-3.3,0.6-5c0.1-0.7,0.1-1.4-0.1-2.1H895c-0.9,0.3-1.6,0.8-2.2,1.4
			c-0.8,0.9-1.3,2.1-1.4,3.7c-0.1,0.5-0.1,1.1-0.1,1.5v0.1c0.1,0.2,0.1,0.4,0,0.6c0,0.6,0.1,1.3,0.1,2c0.1,0.6,0.2,1.2,0.3,1.8
			c1.4,7.4,2.2,15,2.6,22.6c0.1,2.5,0.2,5.1,0.1,7.6c0,2,0.2,3.9,0.6,5.8l-2.4-0.5l-0.6,0.6c-4.1-0.3-7.9-1.3-11.4-3.1
			c-2-1-4-2.1-5.9-3.5c-0.6-0.5-1.2-1-1.8-1.7c-0.6-0.8-1.1-1.7-1.5-2.6c-1.4-2.9-2.4-6-2.9-9.3c-0.2-1-0.3-2.1-0.4-3.1
			c-0.2-2.2-0.6-4.3-1.1-6.4c-0.8-3.4-2.5-6-5-7.6l0.4,5.7c-2.7-1-4.8-2.7-6.2-5.1c-0.3-0.4-0.4-0.9-0.4-1.4c-0.1-1.7,0-3.3,0.2-5
			c0.5-2.9,1.5-5.7,2.8-8.4c3.2-5.9,6.4-11.8,9.6-17.6c1.7-3.1,2.6-6.5,2.8-10.2c0-0.5-0.1-1-0.2-1.4c0.2-1,0.6-2,1.4-3.3
			c2.2-3.9,5.5-6.2,9.8-7.1c2.7,2.2,5,5,6.8,8.5c0.9,1.6,1.7,3.1,2.2,4.6c0.1,0.1,0.2,0.3,0.4,0.4v-0.1c-0.1-5-1.3-9.6-3.7-13.9
			c-0.1-0.1-0.1-0.1-0.2-0.1v0.1C893,128.7,897.6,127.1,901.6,123.7 M1029.9,191.9c3.4,7.4,5.2,15.3,5.5,23.5c0.1,1.8,0,3.6-0.2,5.3
			c-0.3,2.4-0.6,4.6-1,6.9c-0.3,1.7-0.6,3.2-1,4.9c-0.3,1.3-0.6,2.5-0.8,3.9c-4.8,0.4-9.5,0.8-14.3,1.2c-6.8,0.6-13.5,1.5-20.2,2.9
			c0-0.3,0-0.8-0.1-1.7c-0.3-3-1.3-5.7-3.1-8.1c-1.2-1.7-2.7-3-4.2-3.8c-0.3-0.1-0.7-0.3-1-0.4c-2-0.7-3.7-0.4-4.9,0.6
			c-1.4,1.3-1.9,3.5-1.7,6.6l0.3,2c0.3,1.7,0.6,3.3,0.9,4.8c1,4,1.9,6.2,2.8,6.7c-0.1,0.1-0.2,0.2-0.3,0.3c-0.3,0.6-0.7,1.1-1.1,1.5
			c-5.2,1.2-9.8-0.1-14-3.9c-0.8-0.8-1.6-1.6-2.4-2.4c-1-1-1.8-2-2.7-3.1c-2.7-3.4-3.1-6.9-1.3-10.5c0.4-0.8,0.6-1.7,0.4-2.6
			c0.8-0.7,1.9-1.2,3.3-1.7c1.1-0.3,2.1-0.7,3.1-1.3c0.1-0.1,0.1-0.1,0.1-0.2h0.1c0.4-0.3,0.6-0.7,0.8-1.2c0.1-0.2,0.1-0.4,0.1-0.6
			c-0.1-0.1-0.1-0.2,0-0.3c1.7-2.8,3.1-5.7,4.2-8.8c0.6-1.8,0.9-3.6,0.8-5.5l1.5-1.9c1.9-0.4,4.1-0.6,6.4-0.6c1.9,0,3.7-0.2,5.5-0.6
			c1.8-0.3,3.6-0.9,5.4-1.7c1.2-0.4,2.4-1,3.5-1.7c2.9,1.4,5.9,2.5,8.9,3.3c2.2,0.6,4.4,1.1,6.6,1.5c0.8,0.1,1.6,0.1,2.3-0.3
			c0.2-0.1,0.4-0.1,0.6-0.2l0.6-1.2l-16.2-5.3c1.7-1.5,3.2-3.2,4.4-5.1c1.5-2.4,2.5-5,3.2-7.9c0.5-1.9,0.8-3.9,1-5.9l2,0.4
			c0.4,0.3,0.8,0.6,1.3,0.9c1.9,1.2,4,2.4,6.2,3.2C1025,185.6,1027.8,188.3,1029.9,191.9 M931.2,225.9c-0.8-0.3-0.8-1.1,0.1-2.4
			c0.3-0.4,0.6-0.6,0.9-0.6c3.8,3.7,8.2,5.5,13.4,5.4c5.7,0,11.3-0.4,16.9-1.4c-1.5,2.5-1.9,5.2-1.2,8.2c-1.3,0.4-3,0.6-5,0.6
			c-4.8,0-9.4-0.8-13.9-2.3c-0.7-0.1-1.3-0.4-1.8-1C937.6,230.2,934.5,228,931.2,225.9 M985.8,234.1c-0.1-1-0.1-1.8-0.1-2.2
			c-0.1-0.8,0-1.5,0.1-2.2c3.5,0.6,6,2.6,7.6,5.9c0.2,0.3,0.7,1.6,1.5,3.9c0.2,0.6,0.4,1,0.6,1.5c-0.8,0.1-1.5,0.3-2.3,0.6
			c-1.8,0.8-3.4,2-4.8,3.5c-0.2-1.4-0.6-3.1-1.3-5.3C986.4,237.1,985.9,235.2,985.8,234.1"/>
		<path class="st1" d="M985.7,231.9c0,0.4,0.1,1.2,0.1,2.2c0.1,1,0.6,3,1.4,5.8c0.6,2.1,1.1,3.9,1.3,5.3c1.4-1.5,3-2.7,4.8-3.5
			c0.8-0.3,1.5-0.6,2.3-0.6c-0.2-0.4-0.4-1-0.6-1.5c-0.8-2.3-1.3-3.6-1.5-3.9c-1.5-3.3-4.1-5.3-7.6-5.9
			C985.7,230.4,985.6,231.2,985.7,231.9"/>
		<g>
			<g>
				<g>
					<defs>
						<path id="SVGID_1_" d="M931.4,223.4c-0.9,1.3-0.9,2.1-0.1,2.4c3.2,2.1,6.3,4.3,9.3,6.6c0.6,0.5,1.1,0.8,1.8,1
							c4.5,1.5,9.2,2.3,13.9,2.3c2,0.1,3.6-0.1,5-0.6c-0.8-3-0.3-5.7,1.2-8.2c-5.6,1-11.2,1.4-16.9,1.4c-5.2,0.1-9.7-1.7-13.4-5.4
							C931.9,222.9,931.6,223,931.4,223.4 M1014.1,184.1c-1.9,9,0.9,15.5,8.3,19.8l-2.5,2l-1.7-0.6c-0.7,0.3-1.5,0.4-2.3,0.3
							c-2.2-0.3-4.5-0.8-6.6-1.5l-12.4-1.7c-1.8,0.8-3.6,1.3-5.4,1.7c-0.4,0.3-0.9,0.5-1.3,0.8c-7,4.4-12.8,10.3-17.4,17.6
							c-0.1,0.5-0.4,0.9-0.8,1.2H972c-0.1,0.4-0.3,0.8-0.4,1.2c-2.4,5.7-3.3,11.8-2.7,18.1c0.8,0.8,1.7,1.7,2.4,2.4
							c4.2,3.8,8.8,5.1,14,3.9c0.4-0.5,0.8-1,1.1-1.5c0.1-0.1,0.2-0.2,0.3-0.3c-1-0.4-1.9-2.7-2.8-6.7c-0.3-1.5-0.6-3-0.9-4.8
							l-0.3-2c-0.3-3.1,0.3-5.3,1.7-6.6c1.2-1.1,2.9-1.3,4.9-0.6c0.3,0.1,0.7,0.3,1,0.4c12.3-6,24.3-4.5,36.1,4.5
							c1.1,0.8,2.2,1.7,3.2,2.5c1.1-1,2-2.1,2.8-3.2c0.6-1,1.1-2.1,1.5-3.1c0.4-2.3,0.8-4.6,1-6.9c0.2-1.7,0.3-3.5,0.2-5.3
							c-0.3-8.3-2.2-16.1-5.5-23.5c-2.1-3.7-5-6.4-8.6-7.9c-2.2-1-4.3-2-6.2-3.2C1014.7,181.8,1014.4,182.9,1014.1,184.1
							 M903.8,122.2c-0.6,0.4-1.1,0.8-1.7,1.3c-0.1,0.1-0.2,0.3-0.2,0.4c-0.6,1.2-0.8,2.2-0.8,2.9c0.1,1.3-0.2,3.1-0.9,5.3
							c-0.2,0.4-0.6,1.3-1,2.8c-0.1,0.4-0.3,0.8-0.5,1.2c-0.3,0.8-0.6,1.8-1,2.7c-1.2,3-2,5.5-2.4,7.5c-0.3,1.2-0.5,2.4-0.6,3.5
							c-0.4-1.8-1.3-4.2-2.7-7.2v0.1c-0.2-0.2-0.3-0.3-0.4-0.4c-0.6-1.5-1.3-3-2.2-4.6c-1.9-3.4-4.1-6.2-6.8-8.5
							c-4.3,0.9-7.6,3.2-9.8,7.1c-0.8,1.3-1.2,2.4-1.4,3.3c0.1,0.4,0.2,0.9,0.2,1.4c-0.2,3.6-1.1,7.1-2.8,10.2
							c-3.2,5.9-6.4,11.7-9.6,17.6c-1.4,2.7-2.4,5.5-2.8,8.4c1.2,2.1,2.8,3.7,4.8,4.8c0.1,0.1,0.3,0.3,0.4,0.4
							c-0.3-3.8,0.6-7.1,2.5-9.9c0.8,2.8,2.4,4.8,4.8,6.2c1.2,0.7,2.4,1.3,3.6,1.8l-3.6,19.6c0.6,3.2,1.5,6.4,2.9,9.3
							c0.4,1,1,1.8,1.5,2.6l16.9,1.2l-9.2,3.9c3.6,1.7,7.4,2.7,11.4,3.1l0.6-0.6l2.4,0.5c-0.4-1.9-0.6-3.8-0.6-5.8
							c0.1-2.5,0-5.1-0.1-7.6c-0.3-7.6-1.2-15.1-2.6-22.6c-0.1-0.6-0.2-1.3-0.3-1.8c-0.1-0.1-0.1-0.2-0.1-0.4c0-0.3-0.1-0.6-0.3-1
							c-0.1-0.6-0.3-1-0.3-1.2c0-0.2-0.1-0.4-0.1-0.8c-0.1-0.3,0.1,0.1,0.4,1c0.1,0.4,0.3,0.5,0.3,0.4c0.1-0.3,0.1-0.4,0-0.6v-0.1
							c0-0.2,0-0.4-0.1-0.8c-0.2-1.7-0.3-2.6-0.4-3c0-0.2,0.1-0.7,0.4-1.5c0.2-0.9,0.3-1.4,0.3-1.5c-0.1-0.3,0-0.6,0.2-1
							c0.1-0.5,0.1-0.8,0.1-1c0-0.3,0-0.6,0.1-1.1c0.1-0.5,0.1-0.8,0.1-1c-0.1-0.3,0-0.6,0.1-1c0.1-0.5,0.1-0.8,0.1-1
							c0-0.3,0.1-0.5,0.1-0.8c0.1-0.3,0.1-0.4,0.1-0.6c-0.1-0.6-0.3-1.4-0.6-2.4c-0.3-0.8-0.5-1.3-0.5-1.3c-0.1-0.2-0.1-0.5-0.2-0.9
							c-0.2-0.3-0.3-0.6-0.3-0.8c-0.1-0.3,0.1-0.7,0.6-1.1c0.4-0.4,0.6-0.6,0.8-0.6c0.1-0.1,0.6,0.6,1.7,1.8s1.7,2,1.7,2.4
							c0.1,0.2,0.1,0.4,0.3,0.6c0.1,0.1,0.3,0.3,0.3,0.6c0,0.2,0.1,0.6,0.3,1.3c0.2,0.6,0.3,1.1,0.3,1.3c0.3,6.7,0.4,10.1,0.4,10.2
							c0,0.2,0,0.6-0.1,1.1s-0.1,0.8-0.1,1c0.1,0.2-0.1,0.8-0.6,1.8c-0.5,1-0.7,1.7-0.6,1.8c0.1,0.6-0.2,1.3-0.8,2.2
							c-0.2,0.4-0.3,0.7-0.4,1c0.1,2.4,0.4,4.6,1,7c1,4.3,1.5,8.7,1.7,13.1c0.1,2.7,0.2,5.5,0.3,8.3c10.2,2.5,20.5,3.8,31,3.8
							c-0.6,0.1-1.2,0.2-1.8,0.2c-9.6,1.5-19.2,1.5-28.8-0.3c0.7,5.2,3.5,8.5,8.5,9.8c0.4,0.1,0.8,0.1,1.3,0.1
							c6.4-0.6,12.8-1.2,19.2-1.9l2.2-5.1l1.7-0.3c-1.5-3.8-2.4-7.6-2.7-11.7c-0.3-4.7-0.7-10.5-1-17.4c-0.1-2.7-0.3-5.3-0.4-8
							c-0.2-6.6-1.5-13-3.8-19.3c-0.7-1.8-1-3.4-0.8-5c-0.1-0.2-0.2-0.4-0.4-0.8c0.5,0.4,0.6,0.4,0.1-0.1c-0.3-0.6-0.6-1.2-0.6-1.7
							c-0.1-0.4-0.1-1,0.1-1.8c0.3-0.6,0.3-1.2,0.3-1.7c-0.1-0.5,0-1,0.1-1.7c0.1-0.8,0.4-1.1,0.8-1.2c0.9-0.1,1.7,0.4,2.4,1.5
							c0.1,0.1,0.2,0.3,0.4,0.6l-0.2-17.3l-1.5-5.3c-0.3-1-0.6-2-0.9-3.1c-0.6-2.5-1.7-4.8-3.2-6.8c-0.5-0.6-1.1-0.9-1.8-0.9
							C912.7,118.2,908.2,119.5,903.8,122.2 M951.4,111.7c-4.3,0.4-7.9,2.4-10.8,5.8c-1.5,1.9-3.2,3.4-5,4.5
							c-1.1,4.1-2,8.2-2.6,12.4c-0.1,0.3-0.1,0.6-0.1,0.8c-0.1,1-0.3,2.1-0.4,3.2c-1.9,12.1-3.1,24.4-3.6,36.8
							c0.4,9.5,1,19.1,1.8,28.6c0.4,5.3,1.7,10.4,3.8,15.2c0.7,1.7,1.8,3,3.4,3.7c4.3,2,8.8,2.6,13.6,1.9c2.1-0.2,4.1-0.3,6.2-0.3
							c4.4-0.3,8.6-1.2,12.5-2.8l2.4-8.9c-10.6,1.2-20.9-0.4-31-4.8c-0.6-0.3-1.2-0.6-1.8-0.8c10,3.6,19.7,3.4,29.2-0.9
							c1.5-0.7,3-1.5,4.3-2.5c-0.9-2.9-1.2-6-1-9.1c0.6-9.2,0.1-18.4-1.2-27.7c-0.3-1.4-0.6-2.8-1.1-4.1c-0.4-1-0.9-2-1.5-3
							c-1.6-2.1-2.1-4.3-1.5-6.6c0.1-0.1,0.3-0.2,0.5-0.3c-0.1-7.4-0.6-14.8-1.7-22.1c-0.1-1-0.2-2-0.4-2.9l-2.4,8.5
							c0.8-3.7,1.3-7.4,1.5-11.1c0.1-2.4,0.2-4.6,0.1-7.1l-0.9-2.8c-0.1-0.3-0.3-0.6-0.5-0.9c-0.7-0.8-1.5-1.4-2.5-1.7
							c-2.2-0.8-4.5-1.2-6.9-1.2C952.9,111.6,952.2,111.6,951.4,111.7"/>
					</defs>
					<clipPath id="SVGID_2_">
						<use xlink:href="#SVGID_1_"  style="overflow:visible;"/>
					</clipPath>
					
						<linearGradient id="SVGID_3_" gradientUnits="userSpaceOnUse" x1="-446.8841" y1="999.2979" x2="-446.2481" y2="999.2979" gradientTransform="matrix(-22.8375 -158.4064 -158.4064 22.8375 149040.3281 -93395.3906)">
						<stop  offset="0" style="stop-color:#CD6F42"/>
						<stop  offset="0.149" style="stop-color:#D29A64"/>
						<stop  offset="0.8549" style="stop-color:#D29A64"/>
						<stop  offset="1" style="stop-color:#FFE5D2"/>
					</linearGradient>
					<polygon class="st2" points="1055.1,247.5 1031.9,86.2 836.7,114.4 859.9,275.6 					"/>
				</g>
			</g>
		</g>
		<path class="st3" d="M978.2,207c0.1,1.9-0.2,3.8-0.8,5.5c-1.1,3.1-2.5,6-4.2,8.8c-0.1,0.1-0.1,0.2,0,0.3c-0.1,0.2-0.1,0.4-0.1,0.6
			c4.5-7.4,10.3-13.2,17.4-17.6c0.4-0.3,0.8-0.5,1.3-0.8c-1.8,0.4-3.6,0.6-5.5,0.6c-2.4-0.1-4.5,0.1-6.4,0.6L978.2,207
			 M1009.4,203.9c-3-0.8-6-2-8.9-3.3c-1.1,0.6-2.3,1.2-3.5,1.7L1009.4,203.9 M965.6,226.7c0.1,1,0,1.8-0.4,2.6
			c-1.8,3.7-1.4,7.2,1.3,10.5c0.8,1.1,1.7,2.1,2.7,3.1c-0.6-6.4,0.3-12.4,2.7-18.1c0.1-0.4,0.2-0.8,0.4-1.2c0,0.1-0.1,0.2-0.1,0.2
			c-1,0.6-2,1.1-3.1,1.3C967.5,225.4,966.3,226,965.6,226.7 M1013.9,179.9l-2-0.4c-0.2,2-0.6,4-1,5.9c-0.7,3-1.8,5.6-3.2,7.9
			c-1.2,1.9-2.7,3.6-4.4,5.1l16.2,5.3l-0.6,1.2c-0.2,0.1-0.4,0.2-0.6,0.2l1.7,0.6l2.5-2c-7.4-4.3-10.2-10.9-8.3-19.8
			c0.3-1.1,0.6-2.2,1-3.2C1014.6,180.5,1014.2,180.2,1013.9,179.9 M1033.2,232.6c0.4-1.7,0.8-3.2,1-4.9c-0.4,1-1,2.1-1.5,3.1
			c-0.8,1.2-1.7,2.3-2.8,3.2c-1.1-0.8-2.2-1.7-3.2-2.5c-11.8-9-23.8-10.5-36.1-4.5c1.6,0.8,3,2,4.2,3.8c1.7,2.4,2.7,5.1,3.1,8.1
			c0.1,0.8,0.1,1.4,0.1,1.7c6.7-1.3,13.4-2.3,20.2-2.9c4.8-0.4,9.5-0.8,14.3-1.2C1032.6,235.1,1032.9,233.9,1033.2,232.6"/>
		<path class="st4" d="M1005.9,186.1c-0.6,0.5-1.1,1-1.8,1.3c-1.8,1.1-3.7,1.9-5.7,2.5c-0.6,0.2-1.2,0.4-1.8,0.6
			c-6.8,1.4-13.6,1.1-20.4-0.8c0.6,0.3,1.1,0.5,1.7,0.8c8.3,3.8,16.9,5,25.9,3.7c0.6-1,1-2.1,1.2-3.2
			C1005.3,189.3,1005.6,187.7,1005.9,186.1 M939.7,207c0.6,0.3,1.2,0.5,1.8,0.8c10.1,4.4,20.5,6,31,4.8l1.7-5.5l-0.1-1.3
			c-0.3-0.8-0.6-1.5-0.9-2.3c-1.3,1-2.8,1.8-4.3,2.5C959.4,210.4,949.7,210.6,939.7,207 M897.7,215.5c0.1,0.6,0.1,1.1,0.2,1.7
			c9.6,1.7,19.3,1.8,28.8,0.3c0.6,0,1.3-0.1,1.8-0.2c-10.5,0.1-20.8-1.2-31-3.8C897.7,214.1,897.7,214.8,897.7,215.5 M880.9,217.1
			l9.2-3.9l-16.9-1.2c0.6,0.6,1.1,1.1,1.8,1.7C876.9,215,878.8,216.2,880.9,217.1"/>
		<path class="st5" d="M935.6,121.9c-3.2,1.9-6.9,2.5-11.1,1.8l1.2,12.8c-0.3-0.8-0.5-1.5-0.8-2.3l0.2,17.3
			c-0.1-0.3-0.3-0.4-0.4-0.6c-0.7-1-1.5-1.5-2.4-1.5c-0.3,0.1-0.6,0.4-0.8,1.2c-0.1,0.6-0.1,1.1-0.1,1.7s-0.1,1.1-0.3,1.7
			c-0.3,0.8-0.3,1.3-0.1,1.8c0.1,0.5,0.3,1.1,0.6,1.7c0.4,0.6,0.3,0.6-0.1,0.1c0.2,0.3,0.3,0.5,0.4,0.8c0.1-0.6,0.2-1.3,0.4-2
			c0.3,0,0.6,0.1,0.8,0.4c0.8,1.2,1.5,2.5,2,3.7c2.1,4.3,3.3,9,3.5,14.1c0.1,0.3,0.1,0.4,0.1,0.6c0.5-12.4,1.7-24.7,3.6-36.8
			c0.1-1.1,0.3-2.2,0.4-3.2c0.1-0.3,0.1-0.5,0.1-0.8C933.6,130.1,934.5,126.1,935.6,121.9 M983.3,123.5c-0.1-0.7,0.6-2.1,2.2-4.3
			c0.3-0.3,0.4-0.6,0.6-0.9c-2.5,0.6-5,1.9-7.3,3.8c-0.5,0.4-1.1,0.7-1.7,0.8c-3.4,0.6-6.6-0.3-9.5-2.9l-2.2,7.9
			c0.1,1,0.3,1.9,0.4,2.9c1,7.4,1.5,14.8,1.7,22.1c0.2-0.1,0.4,0,0.6,0.1c2.8,1.1,4.4,3.4,4.9,7c0.1,0.4,0.1,0.9,0.2,1.4
			c-0.4-6-0.7-9.3-0.8-9.8c-0.1-1.1-0.1-2,0.1-2.6c0.2-0.8,0.3-1.5,0.2-2.2c-0.1-1.2,1.7-5.4,5.2-12.7
			C979.6,130.4,981.5,126.9,983.3,123.5 M890.7,178.8c0.1,0.3,0.1,0.6,0.1,0.8c0.1,0.3,0.1,0.6,0.3,1.2c0.1,0.4,0.3,0.8,0.3,1
			c0,0.1,0.1,0.3,0.1,0.4c-0.1-0.7-0.1-1.3-0.1-2c-0.1,0.1-0.1,0-0.3-0.4C890.8,178.9,890.7,178.6,890.7,178.8 M896.1,162.8
			c-0.1-0.3-0.3-0.4-0.3-0.6c-0.1-0.3-0.6-1.1-1.7-2.4c-1-1.2-1.6-1.8-1.7-1.8c-0.1,0-0.4,0.2-0.8,0.6c-0.4,0.4-0.6,0.8-0.6,1.1
			c0,0.1,0.1,0.4,0.3,0.8c0.1,0.4,0.2,0.7,0.2,0.9c0,0.1,0.2,0.5,0.5,1.3c0.4,1,0.6,1.8,0.6,2.4c0.1,0.2,0,0.4-0.1,0.6
			c-0.1,0.3-0.1,0.5-0.1,0.8c0,0.2-0.1,0.6-0.1,1c-0.1,0.4-0.2,0.8-0.1,1c0,0.2,0,0.6-0.1,1c-0.1,0.5-0.1,0.9-0.1,1.1
			c0.1,0.2,0,0.6-0.1,1c-0.2,0.4-0.3,0.8-0.2,1c0,0.1-0.1,0.6-0.3,1.5c-0.3,0.8-0.4,1.3-0.4,1.5c0.1,0.3,0.2,1.3,0.4,3
			c0.1,0.3,0.1,0.6,0.1,0.8c0-0.5,0-1,0.1-1.5c0.1-1.6,0.6-2.8,1.4-3.7c0.6-0.6,1.3-1.1,2.2-1.4h0.1c0.3,0.7,0.3,1.4,0.1,2.1
			c-0.3,1.7-0.5,3.3-0.6,5c-0.1,1.8-0.1,3.6,0,5.3c0.1-0.3,0.3-0.6,0.4-1c0.6-0.9,0.8-1.6,0.8-2.2c-0.1-0.2,0.2-0.8,0.6-1.8
			c0.4-1,0.6-1.7,0.6-1.8c0-0.2,0-0.6,0.1-1c0.1-0.6,0.1-0.9,0.1-1.1c0-0.1-0.1-3.4-0.4-10.2c0-0.3-0.1-0.7-0.3-1.3
			c-0.1-0.7-0.3-1.1-0.3-1.3C896.3,163.1,896.2,162.9,896.1,162.8 M872.3,180.6c-1.2-0.5-2.4-1.1-3.6-1.8c-2.4-1.4-3.9-3.4-4.8-6.2
			c-1.9,2.8-2.8,6-2.5,9.9c-0.2-0.1-0.3-0.3-0.4-0.4c-2-1.1-3.6-2.7-4.8-4.8c-0.2,1.7-0.3,3.3-0.2,5c0,0.5,0.1,1,0.4,1.4
			c1.5,2.4,3.6,4.1,6.2,5.1l-0.4-5.7c2.5,1.7,4.1,4.2,5,7.6c0.6,2.1,0.9,4.2,1.1,6.4c0.1,1,0.2,2.1,0.4,3.1L872.3,180.6 M902,123.4
			c-0.1,0.1-0.3,0.2-0.4,0.3c-4.1,3.4-8.6,5-13.6,4.8v0.1c0.1,0.1,0.2,0.1,0.2,0.1c2.4,4.3,3.6,8.8,3.7,13.9c1.4,3,2.3,5.4,2.7,7.2
			c0.1-1.1,0.4-2.3,0.6-3.5c0.4-2,1.3-4.5,2.4-7.5c0.4-1,0.7-1.9,1-2.7c0.2-0.4,0.4-0.8,0.5-1.2c0.5-1.5,0.8-2.4,1-2.8
			c0.7-2.3,1-4.1,0.9-5.3c-0.1-0.8,0.2-1.7,0.8-2.9C901.9,123.7,902,123.6,902,123.4"/>
		<g>
			<g>
				<g>
					<defs>
						<path id="SVGID_4_" d="M986.1,118.3c-0.2,0.3-0.4,0.6-0.6,0.9c-1.5,2.2-2.2,3.6-2.2,4.3c-1.8,3.4-3.6,6.9-5.4,10.6
							c-3.6,7.3-5.3,11.5-5.2,12.7c0.1,0.8,0,1.5-0.2,2.2c-0.2,0.6-0.3,1.5-0.1,2.6c0.1,0.5,0.3,3.8,0.8,9.8
							c0.1,0.7,0.1,1.4,0.1,2.2c0.3,4.5,0.7,6.9,1,7.1c1,7.6,1.6,15.3,2,23c0.1,1.9,0.2,3.8,0.1,5.7c-0.1,1.7,0.3,3,1,4.1h0.1
							c0.3,0,0.5-0.1,0.8-0.1c1.8-0.8,3.6-1.5,5.4-2.4c6-2.9,12.2-4.2,18.6-4.1c0.4-0.6,0.9-1.1,1.3-1.7c0.1-0.3,0.3-0.5,0.4-0.8
							c-9,1.3-17.7,0.1-25.9-3.7c-0.6-0.3-1.1-0.5-1.7-0.8c6.7,1.9,13.5,2.1,20.4,0.8c0.6-0.2,1.3-0.4,1.8-0.6
							c2-0.6,3.9-1.4,5.7-2.5c0.6-0.4,1.2-0.8,1.8-1.3c0.6-2.5,1.1-5,1.5-7.5c0.6-3,1-6,0.9-9c0.1-13.9-2.7-27-8.1-39.6l0.1,2.9
							l-1.9,9.8c-0.4-6.1-0.6-12.3-0.6-18.4c0-3.8-1.7-5.9-4.9-6.4c-0.8-0.1-1.6-0.1-2.4-0.1C988.9,117.8,987.5,117.9,986.1,118.3"
							/>
					</defs>
					<clipPath id="SVGID_5_">
						<use xlink:href="#SVGID_4_"  style="overflow:visible;"/>
					</clipPath>
					
						<linearGradient id="SVGID_6_" gradientUnits="userSpaceOnUse" x1="-443.6935" y1="1000.3415" x2="-443.0575" y2="1000.3415" gradientTransform="matrix(18.4702 -128.6507 -128.6507 -18.4702 137874.2656 -38404.1016)">
						<stop  offset="0" style="stop-color:#8C3D21"/>
						<stop  offset="0.2745" style="stop-color:#D29A64"/>
						<stop  offset="0.8549" style="stop-color:#D29A64"/>
						<stop  offset="1" style="stop-color:#FFE5D2"/>
					</linearGradient>
					<polygon class="st6" points="1007.7,208.4 1020.4,119.5 973,112.7 960.2,201.5 					"/>
				</g>
			</g>
		</g>
		<path d="M1002,271.6L1002,271.6c0.3,0.9,0.6,1.7,1,2.4l0.1,0.1c0.8,1.5,1.9,2.8,3.2,3.9c0.6,0.6,1.3,1,2.1,1.4l0.1,0.1
			c0.8,0.4,1.6,0.8,2.4,1v0.6c0,0.2,0,0.3,0.1,0.4l0.1,0.1c0.1,0.1,0.1,0.3,0.3,0.4l0.1,0.1c3.9,2.7,8.3,4.1,13.2,4.3
			c2.7,0.1,5.3,0.6,7.9,1.3v1.3c-2.2,1.2-4.6,2-7.3,2.2c-7.2,0.7-14.4,0.8-21.7,0.3c-0.3,0-0.4,0.1-0.6,0.2c-1,0.6-1.5,1.2-1.7,1.9
			c-0.3,0.8-0.1,1.7,0.5,2.5h0.1c0.7,1,1.5,1.9,2.6,2.6c2,1.2,4,2.3,6,3.1c-1.1,0.5-2.2,1-3.2,1.7c-2.4,1.2-3.9,2.6-4.8,4.3
			c-1.1,1.9-0.3,3.9,2.5,6.2c2.4,1.9,7.9,4.1,16.6,6.6c8.8,2.4,18.1,3.6,27.9,3.5h0.8c3.1-0.2,5.7-1.5,7.9-3.9
			c1.3-1.5,3.1-2.4,5.4-2.7c3-0.4,5.4-3.2,7.1-8.3c1.7-4.8,2.5-11,2.8-18.8c0.1-2.1,0.1-4,0-5.9c-0.2-5-1-8.8-2.3-11.6
			c-1.8-4-5.5-6.4-10.9-7.1c-5.2-0.8-11.8-1.1-20-1.2c-9.3,0-18.6,0.6-27.9,1.7h-0.1c-0.3,0.1-0.4,0.1-0.6,0.1
			c-1.1,0.3-2.2,0.6-3.2,1h-0.1c-0.6,0.3-1.2,0.5-1.8,0.8h-0.1c-1.5,0.7-2.8,1.5-4,2.4c-0.2,0.1-0.3,0.3-0.4,0.5
			C1002,271.3,1002,271.4,1002,271.6 M1005.1,272.6c-0.2-0.3-0.4-0.5-0.5-0.8c0.7-0.4,1.4-0.8,2.2-1c9.2-3.1,18.7-4.3,28.6-3.6
			c3.8-0.1,7.6-0.3,11.3-0.6c7.1-0.4,13.6,1,19.4,4.1c2.2,1.2,3.2,3,2.9,5.3c-0.3,4.5-0.3,9.3,0.2,14.4v0.5c0.2,1.7-0.1,3.3-1,4.8
			l-0.3-5.2l-1-0.1l-0.3,7.8l0.4,0.6l0.8-0.2c0.6,3.6,0.4,7.3-0.4,10.9c-0.3,1-0.8,1.8-1.8,2.4c-4.8,2.7-9.2,6-13.3,9.7
			c-0.4,0.4-1,0.7-1.5,0.8c-0.3,0.1-0.4,0.1-0.6,0c-14.7-1.7-29-5-42.9-9.9c-0.4-0.4-0.8-0.9-1.2-1.4c-0.4-0.5-0.6-0.8-0.4-1
			c2.6-4.4,7.3-6.9,14-7.6c6.4-0.6,12.4-2,18.1-4.4c4.6-1.9,6.7-5.1,6.2-9.7l1.4,0.6l0.8-0.3c-2.4-2.7-5.7-4.9-9.8-6.6
			c-7.4-3-15.1-4.3-23.2-4l-0.1-0.3l-0.2,0.2c-0.8-0.1-1.5-0.3-2.2-0.6c-1.2-0.4-2.4-1.1-3.2-2
			C1006.5,274.6,1005.7,273.7,1005.1,272.6 M1015.3,300.9c-0.1-0.1-0.2-0.1-0.3-0.1c-4.8-0.9-8.3-3.1-10.6-6.7
			c4.5,0,9.1,0.2,13.5,0.6c6.6,0.6,12.3-0.9,17.4-4.6c0.1,0.3,0.1,0.5,0.1,0.8c0.3,1.6,1.1,2.4,2.5,2.6c0.1-0.2,0.2-0.4,0.2-0.8
			c0.2-1.8-0.1-3.6-1-5.4c-0.6-1.1-1.5-1.5-2.7-1.3c-0.1-0.1-0.1-0.1-0.2-0.1c-1.7-1-3.5-1.5-5.5-1.4c-6.2,0.1-11.2-1.4-14.9-4.6
			c10.3-0.4,19.8,2.2,28.6,8c1,3.5-0.4,6.2-4.1,8c-7.1,3.4-14.7,5.3-23,5.7L1015.3,300.9z"/>
		<path class="st7" d="M1014.9,300.8c0.1,0,0.2,0,0.3,0.1l0.1,0.4c8.3-0.4,15.9-2.4,23-5.7c3.7-1.8,5.1-4.5,4.1-8
			c-8.7-5.8-18.2-8.5-28.6-8c3.8,3.2,8.8,4.8,14.9,4.6c2-0.1,3.8,0.4,5.5,1.4c0.1,0.1,0.2,0.1,0.2,0.1c1.2-0.2,2.1,0.3,2.7,1.3
			c0.8,1.8,1.1,3.6,1,5.4c-0.1,0.3-0.1,0.6-0.2,0.8c-1.4-0.1-2.2-1-2.5-2.6c0-0.3-0.1-0.5-0.1-0.8c-5.1,3.7-10.9,5.2-17.4,4.6
			c-4.5-0.4-9-0.6-13.5-0.6C1006.6,297.7,1010.2,299.9,1014.9,300.8"/>
		<path class="st8" d="M1004.6,271.8c0.1,0.3,0.3,0.5,0.5,0.8c0.6,1.1,1.4,2,2.3,2.9c1,0.9,2,1.5,3.2,2c0.7,0.3,1.4,0.4,2.2,0.6
			l0.2-0.2l0.1,0.3c8-0.3,15.7,1,23.2,4c4.1,1.7,7.4,3.9,9.8,6.6l-0.8,0.3l-1.4-0.6c0.5,4.6-1.6,7.8-6.2,9.7
			c-5.7,2.4-11.8,3.8-18.1,4.4c-6.7,0.6-11.4,3.2-14,7.6c-0.1,0.2,0,0.6,0.4,1c0.4,0.5,0.8,1,1.2,1.4c13.9,5,28.2,8.3,42.9,9.9
			c0.2,0.1,0.4,0.1,0.6,0c0.6-0.1,1.1-0.3,1.5-0.8c4.1-3.7,8.5-6.9,13.3-9.7c1-0.6,1.5-1.3,1.8-2.4c0.9-3.6,1-7.3,0.4-10.9l-0.8,0.2
			l-0.4-0.6l0.3-7.8l1,0.1l0.3,5.2c0.9-1.5,1.2-3.1,1-4.8v-0.5c-0.4-5.1-0.5-9.9-0.2-14.4c0.3-2.4-0.6-4.1-2.9-5.3
			c-5.9-3.1-12.3-4.5-19.4-4.1c-3.7,0.3-7.4,0.4-11.3,0.6c-9.9-0.7-19.5,0.5-28.6,3.6C1006,271.1,1005.3,271.4,1004.6,271.8
			 M1015.4,269.7c2.5-0.4,5.1-0.8,7.6-0.9c3.9-0.6,7.8-0.9,11.7-0.6c8,0.4,15.8,2,23.3,4.8c2.2,0.8,3.8,2,4.9,3.8
			c1.2,1.9,1.2,3.8,0.1,5.7c-3.6,6.3-3.9,12.8-1,19.3c0.1,0.1,0.1,0.3,0.2,0.4c2.7,6.7,0.6,11.3-6.6,13.5c-0.6,0.1-1.1,0.3-1.5,0.4
			c-4.8,1.3-9.6,1.8-14.5,1.3c-4.5-0.4-9-1.3-13.3-2.4c-1.4-0.3-2.7-0.8-4.1-1.2c-3.5-1.1-6.9-2.5-10.3-4.2
			c-0.1-0.1-0.3-0.2-0.4-0.2c0.8-0.6,1.7-1.1,2.6-1.7c5.2-2.9,10.9-4.1,17-3.6c6,0.5,11.8,0,17.5-1.5c6.6-1.8,7.5-5.1,2.7-9.9
			c-2.2-2.2-2.9-4.6-1.8-7.4c-5-3.5-10.5-6.3-16.6-8.4c-1.8-0.6-3.7-1.1-5.7-1.4c-1.3-0.2-2.7-0.4-3.9-0.8c-4.5-1-8.8-2.2-12.9-3.9
			c0.3-0.1,0.5-0.2,0.8-0.3c1.1-0.3,2.3-0.6,3.4-0.8C1014.9,269.8,1015.2,269.7,1015.4,269.7"/>
		<path class="st9" d="M1023.1,268.8c-2.5,0.1-5.1,0.4-7.6,0.9c-0.3,0.1-0.5,0.1-0.8,0.1c-1.1,0.2-2.3,0.4-3.4,0.8
			c-0.3,0.1-0.6,0.1-0.8,0.3c4.1,1.7,8.4,2.9,12.9,3.9c1.3,0.3,2.6,0.6,3.9,0.8c1.9,0.3,3.8,0.8,5.7,1.4c6.1,2.1,11.6,4.9,16.6,8.4
			c-1,2.8-0.4,5.2,1.8,7.4c4.8,4.8,3.9,8.1-2.7,9.9c-5.7,1.5-11.5,2-17.5,1.5c-6.2-0.5-11.8,0.7-17,3.6c-0.9,0.6-1.8,1.1-2.6,1.7
			c0.1,0.1,0.3,0.1,0.4,0.2c3.4,1.7,6.8,3.1,10.3,4.2c1.3,0.4,2.7,0.8,4.1,1.2c4.3,1.2,8.7,2,13.3,2.4c4.9,0.4,9.7,0,14.5-1.3
			c0.5-0.1,1-0.3,1.5-0.4c7.1-2.2,9.2-6.7,6.6-13.5c-0.1-0.1-0.2-0.3-0.2-0.4c-2.9-6.6-2.5-13,1-19.3c1.1-1.9,1-3.8-0.1-5.7
			c-1.1-1.7-2.7-3-4.9-3.8c-7.5-2.8-15.3-4.5-23.3-4.8C1030.9,267.9,1027,268.2,1023.1,268.8"/>
		<path d="M778.6,288.4c-10,9.5-11.8,18.9-5.2,28.2v0.1c2.9,4.1,6.9,6.6,12.1,7.3c4.1,0.6,6.9,2.1,8.3,4.5c1.3,2.4,1.3,5.6,0,9.7
			v0.1c-1.8,5.7-0.8,10.3,3,14.1c3.9,4.3,8.8,6.4,14.7,6.6h0.1c1.9,0,3.8,0.2,5.4,0.6c2.7,4,6.3,6.8,10.8,8.5c1,0.4,2.9,0.6,5.7,0.8
			l0.1,0.1l0.1-0.1c3.8-0.2,9.1-2.7,15.8-7.6c6.6-4.8,13.9-11.8,22-21.4c8.1-9.5,14.5-19.3,19.3-29.1c5-10.3,6.1-17.6,3.1-22.1
			c-0.1-0.3-0.4-0.4-0.6-0.5c-0.3-0.1-0.6,0-0.9,0.1l-22.8,13.1c3-6.6,4.9-13,5.7-19.2c0.1,0,0.1-0.1,0.1-0.1c0.1-0.8,0-1.5-0.5-2.2
			c3.7-5,6-8.6,7-11.1c0.6-1.7,0.7-2.9,0.3-3.6c-0.3-1.1-1.3-1.5-3.1-1.3c-4.1,0.6-9.8,2.5-17.3,5.8c-5.7,2.5-12.9,5.8-21.6,9.9
			c5.3-4.2,10.2-7.6,14.8-10.2c7.4-3.9,10.3-7.8,8.8-11.3c-1.2-3.7-9.1-3.9-23.6-0.4c-13.9,3.2-25.1,6.9-33.9,11.1
			C797.6,272.7,788.3,279.4,778.6,288.4 M778.9,292.6c2.7-2.4,5-4.6,7-6.7c6.6-6.7,17.8-12.8,33.6-18.3c15.8-5.6,27.3-8.5,34.2-8.6
			c7,0,8.8,1.2,5.5,3.6l-1.5,1.3c-9.3,5.9-18.1,12.1-26.5,18.8c-0.7,0.6-1.5,1.3-2.5,2.2c-3.2,0.4-6.6,0-10.2-1.4
			c-2.5-1-4.8-2.3-7.1-3.8l-1.1-0.8l-0.6,0.6c9.6,10.5,21.9,10.9,37.1,1.3c9.6-6.1,19.7-10.6,30.1-13.5c-2.2,6.6-5,12-8.6,16
			c-3.6,4.1-7.3,8.8-11.1,14.2c-3.7,5.4-4.3,12-1.8,19.9c2.2,7.1,1.7,14.5-1.5,22.3c2.5-2.3,4.1-5,4.6-8c0.3-1,0.3-2,0.3-3
			c-0.4-5.9-1.3-11.6-2.5-17.4c-0.1-0.4-0.1-0.9-0.1-1.4c8.5-0.6,16.7-4.3,24.5-11.1c1.5-1.4,3.2-2.5,5.1-3.3l6-3.6
			c-1.5,11.8-6.4,22.9-14.6,33.3c-2.4,3-4.6,6-6.9,9.1c-8.1,11.1-18,20.4-29.6,28c-5.9,2.9-10.6,3.2-14.3,1c-3.7-2.2-6-3.9-7.1-5.1
			c-0.1-0.1-0.2-0.2-0.2-0.3c-0.1-0.1-0.3-0.3-0.5-0.4c-1.2-0.9-2.8-1.3-4.6-1.4c-14.5-0.4-19.6-7.7-15.4-21.9
			c1.2-7.1-1.5-11.3-8-12.5c-0.5-0.1-1-0.2-1.5-0.3c-11.8-2-17.2-6.7-16.1-14.1C774.3,299.9,776.2,295,778.9,292.6 M869.7,284.1
			c0.5-0.6,1-1.3,1.5-2l1-0.3c-0.1,4.3-1.5,8.6-3.9,13c-1.8,3.2-2.9,6.6-3.2,10.2l-8.1,2.7C859.9,299.4,864.1,291.5,869.7,284.1
			 M795.3,309.7c0.1,1,0.6,1.9,1.5,2.7c0.6,0.6,1.2,1,1.8,1.4c1.3,1,2.3,2.2,2.9,3.7l-0.2,0.6c5.5,7.9,9.9,14.6,13.2,20.2
			c0.4,0.5,0.6,1.5,0.4,2.9l1-1c3.6-3.6,3.2-7.3-0.9-11.2c-2.3-2.1-4.4-4.4-6.4-6.7c-2-2.4-4.1-4.8-6.2-7l7.6,2.4
			c4.8,2.9,4.8,2.5,0.3-1.3c-4.8-2.8-9.7-5-14.8-6.8C795.6,309.7,795.5,309.7,795.3,309.7"/>
		<path class="st10" d="M871.1,282.1c-0.5,0.7-1,1.3-1.5,2c-5.5,7.4-9.8,15.3-12.8,23.7l8.1-2.7c0.3-3.6,1.5-6.9,3.2-10.2
			c2.4-4.4,3.7-8.7,3.9-13L871.1,282.1z"/>
		<path class="st7" d="M864.8,320.6c2.5-3.2,5-6.4,7.5-9.5c2.4-2.9,4.8-5.7,7.3-8.5c0.8-0.9,1.6-1.8,2.4-2.6c0.8-1,1.7-1.9,2.6-2.8
			c0.5-0.5,1-1,1.4-1.7c-1.9,0.8-3.6,2-5.1,3.3c-7.8,6.7-15.9,10.4-24.5,11.1c0,0.5,0.1,1,0.1,1.4c1.2,5.7,2.1,11.5,2.5,17.4
			C861,325.9,862.9,323.3,864.8,320.6 M857.8,263.9c-1.8,0.9-3.7,1.5-5.7,1.9c-0.6,0.1-1.3,0.3-2.1,0.4c-4.6,0.5-9.2,1.3-13.6,2.5
			c-8.6,2.4-16.9,6-24.9,10.9c2.2,1.5,4.6,2.7,7.1,3.8c3.6,1.4,6.9,1.8,10.2,1.4c1-0.9,1.8-1.7,2.5-2.2
			C839.7,276,848.6,269.8,857.8,263.9 M799.1,308.6c-3.1-1.3-6.4-1.6-10-0.9c7.8,12.7,16.4,24.6,25.9,35.9c1,1.1,1.3,2.4,1,4.1
			l5.2,5.5c-2.9-5.7-1.7-11.9,3.6-18.6c0.5-0.6,0.6-1.3,0.3-2.2c-3.9-7.9-9.5-14.2-16.5-18.9c-1.7-1-3.3-2-5.1-3
			C802.1,309.9,800.7,309.2,799.1,308.6 M796.9,312.5c-1-0.8-1.5-1.8-1.5-2.7c0.1-0.1,0.2-0.1,0.4,0c5.2,1.8,10,4.1,14.8,6.8
			c4.5,3.8,4.5,4.2-0.3,1.3l-7.6-2.4c2.1,2.2,4.2,4.5,6.2,7c2,2.4,4.1,4.6,6.4,6.7c4.1,3.9,4.5,7.6,0.9,11.2l-1,1
			c0.1-1.5-0.1-2.4-0.4-2.9c-3.3-5.6-7.7-12.3-13.2-20.2l0.2-0.6c-0.6-1.5-1.5-2.7-2.9-3.7C798.1,313.5,797.5,313,796.9,312.5"/>
		<path class="st8" d="M859.3,262.6c3.2-2.4,1.4-3.6-5.5-3.6c-7,0.1-18.4,3-34.2,8.6c-15.9,5.5-27.1,11.6-33.7,18.3
			c1.3-0.5,2.7-0.7,4.1-0.6c0.1,0.1,0.2,0.1,0.3,0.1c-2.3,6.7-0.8,10.9,4.5,12.6c14.1,4.5,28.2,1.6,42.5-8.6
			c9.9-7.2,20.5-12.5,31.7-16c-6.2,14.2-13.5,28.1-22,41.7c-7.3,11.4-9.2,22.4-5.7,32.8c0.6,1.8,1,3.8,0.9,5.7c0,3-0.4,5.9-1.3,8.8
			c11.6-7.6,21.4-16.9,29.6-28c2.2-3.1,4.5-6.2,6.9-9.1c8.2-10.4,13-21.5,14.6-33.3l-6,3.6c-0.4,0.6-0.9,1.1-1.4,1.7
			c-0.9,1-1.8,1.9-2.6,2.8c-0.8,0.8-1.6,1.7-2.4,2.6c-2.5,2.8-4.9,5.7-7.3,8.5c-2.5,3.1-5,6.3-7.5,9.5c-2,2.7-3.9,5.3-5.8,8.1
			c0.1,1-0.1,2-0.3,3c-0.6,3.1-2.2,5.7-4.6,8c3.2-7.7,3.8-15.1,1.5-22.3c-2.5-7.9-1.9-14.6,1.8-19.9c3.8-5.4,7.4-10.1,11.1-14.2
			c3.6-4.1,6.4-9.4,8.6-16c-10.5,3-20.6,7.5-30.1,13.5c-15.1,9.6-27.5,9.2-37.1-1.3l0.6-0.6l1.1,0.8c8-5,16.3-8.6,24.9-10.9
			c4.5-1.2,9-2,13.6-2.5c0.8-0.1,1.5-0.3,2.1-0.4c1.9-0.4,3.8-1,5.7-1.9L859.3,262.6 M782.9,308c0.3,1.5,0.8,2.9,1.3,4.3
			c1.2,3.4,2.9,6.4,5.1,9.2c0.6,0.1,1.1,0.2,1.5,0.3c6.5,1.3,9.1,5.5,8,12.5c6.4,9.3,14.8,16.3,25,21.1c0.8,0.4,1.6,0.8,2.4,1.2
			c1.8-7.6,2-14.9,0.6-21.9c-1.3-6-3.9-11.4-7.6-16.2c-3.3-4.3-7.4-7.4-12.5-9.2c-0.9-0.3-1.8-0.6-2.8-0.9c-1-0.3-2-0.4-3.2-0.6
			C795,306.8,789.1,306.9,782.9,308 M789.1,307.7c3.6-0.7,6.9-0.4,10,0.9c1.5,0.6,3,1.3,4.3,2c1.8,1,3.5,1.9,5.1,3
			c7.1,4.8,12.6,11.1,16.5,18.9c0.3,0.8,0.3,1.5-0.3,2.2c-5.3,6.7-6.6,12.9-3.6,18.6l-5.2-5.5c0.3-1.7-0.1-3-1-4.1
			C805.5,332.4,796.9,320.4,789.1,307.7"/>
		<path class="st9" d="M784.3,312.3c-0.6-1.4-1-2.8-1.3-4.3c6.2-1.1,12.1-1.2,17.9-0.3c1.1,0.2,2.2,0.4,3.2,0.6
			c1,0.3,1.9,0.6,2.8,0.9c5,1.8,9.2,4.9,12.5,9.2c3.8,4.8,6.3,10.2,7.6,16.2c1.5,7,1.2,14.3-0.6,21.9c-0.8-0.4-1.7-0.8-2.4-1.2
			c-10.2-4.8-18.6-11.8-25-21.1c-4.2,14.2,1,21.6,15.4,21.9c1.8,0.1,3.4,0.5,4.6,1.4c0.2,0.1,0.4,0.3,0.5,0.4
			c0.1,0.1,0.1,0.1,0.2,0.3c1,1.2,3.3,2.9,7.1,5.1c3.7,2.2,8.5,1.9,14.3-1c0.8-2.9,1.3-5.9,1.3-8.8c0.1-2-0.3-3.9-0.9-5.7
			c-3.5-10.5-1.7-21.4,5.7-32.8c8.5-13.6,15.8-27.5,22-41.7c-11.2,3.5-21.7,8.8-31.7,16c-14.3,10.3-28.4,13.2-42.5,8.6
			c-5.3-1.7-6.8-5.9-4.5-12.6c-0.1,0-0.2,0-0.3-0.1c-1.5-0.1-2.9,0.1-4.1,0.6c-1.9,2-4.3,4.3-7,6.7c-2.7,2.5-4.5,7.4-5.7,14.9
			c-1.1,7.4,4.2,12.1,16.1,14.1C787.2,318.8,785.5,315.6,784.3,312.3"/>
		<path class="st9" d="M788.6,77.5c5.8-6.8,11.4-13.6,17.2-20.2c0.6-0.6,2.4-0.7,3.2-0.3c8.9,4.9,17.7,9.9,26.6,14.9
			c0.9,0.5,1.7,1,3.3,2c-2.2-6.5-3.9-12.1-5.9-17.7c-1.7-4.9-3.5-9.8-5.1-14.8c-0.3-0.9-0.1-2.6,0.5-3.1c6.2-4.6,12.5-9,19.5-13.9
			c0,1.8,0,2.6,0,3.4c-0.6,15.7,2.1,30.8,6.6,45.7c0.6,2.2,0.4,3.2-1.3,4.8c-5.2,4.8-10,9.9-14.7,14.6c-9.2-4.7-18.3-9.4-27.4-14.1
			c-0.3,0.3-0.6,0.6-0.8,1c2.4,4.4,4.6,8.8,7.1,13.1s5.2,8.3,7.8,12.2c-3.8,7.3-7.6,14.6-11.6,21.8c-0.4,0.7-2,1.2-2.7,1
			c-11-3.5-22.3-4-33.6-2.9c-5.2,0.5-10.2,1.8-15.5,2.7c0.1-0.6,0.1-1.3,0.4-2c3.2-7.5,6.6-14.9,9.9-22.5c0.7-1.7,1.7-2.2,3.4-2
			c11.1,1.1,21.9,3.4,32.8,7.5C801.7,98.3,795.3,88.1,788.6,77.5z"/>
		<path class="st9" d="M1067.6,88.6c-6.2,5.7-12,10.9-17,15.6c-4.8-4.7-9.5-9.2-14.2-13.7c9.5-13.6,22.3-24.1,29.9-39.2
			c6.6,6.6,13.3,13.3,20.2,20.2c-6.2,5.6-11.6,10.5-17.1,15.5c8,0.9,15.6,1.8,23.3,2.4c4.6,0.3,7.8,2.2,9.9,6.7
			c3.3,6.9,7.1,13.5,10.7,20.4c-10.2-3.4-19.8-6.6-30.1-10c-3.3,13.4-6.4,25.8-9.6,38.5c-0.4-0.8-0.9-1.5-1.2-2.2
			c-3.2-6.5-6.6-12.9-9.7-19.5c-0.8-1.6-1.1-3.8-0.8-5.5c1.6-8.3,3.4-16.5,5.2-24.8C1067.2,91.8,1067.3,90.6,1067.6,88.6z"/>
		<path class="st9" d="M896.5,6c8.3-1.3,16.9-2.7,25.6-4.1c1.4,17,2.7,33.5,4.1,50.1c-6.1,1-12,1.8-18.1,2.8
			c-1.5-6.9-2.9-13.4-4.3-20.4c-6.7,2-13.2,3.9-20,5.9c2.3,6.9,4.4,13.3,6.5,19.7c-5.8,2.5-11.3,5-16.8,7.4
			c-8.2-14.2-12.7-30.5-23.4-43.9c7.9-3.6,16-7.3,24.5-11.1c2.2,6.5,4.1,12.5,6.1,18.6c7.1-2.1,14-4.1,21.6-6.4
			C900.3,18.6,898.5,12.6,896.5,6z"/>
		<path class="st9" d="M982.5,6c3.9,19.1,7.5,37.4,11.3,56.2c-4.6-1.6-8.7-3.4-13-4.3c-4.8-0.9-6.6-3.5-7.2-8.5
			c-0.8-7.1-1.1-7-7.7-8.1c-3.6-0.6-7.3-1-11-1.5c-1.7-0.3-2.8,0.2-3.4,2c-0.5,1.5-1.5,2.7-1.8,4.2c-1.1,4.8-3.7,6.5-8.4,5.7
			c-3.6-0.6-7.4-0.1-11.4-0.1c0.4-1,0.8-2,1.2-2.9c5.4-9.9,10.8-19.8,16.2-29.8c2.2-4.1,4.3-8.5,6.6-12.5c0.6-1,2-2,3-2
			C965.5,4.8,974.2,5.5,982.5,6z M957.3,30.1c4.8,0.7,9.1,1.3,13.7,2c-1.3-6.2-2.6-12-3.9-18.1C963.7,19.5,960.6,24.6,957.3,30.1z"
			/>
		<path class="st9" d="M1053.9,55c-3.8-3.1-7.3-6-10.9-8.7c-4.1-3.1-8.5-5.5-13.7-5.7c-7.8-0.3-12.8,6.4-10.7,14.4
			c1.4,5.6,4.8,9.9,8.9,13.5c3.4,2.9,6.8,5.6,10.6,8.6c-2.1,2.7-4.1,5.4-6.2,8.1c-12-8.3-24-16-30.5-30.1c-2.6-5.7-3.9-11.6-2-17.7
			c2.9-9.5,11.3-14.1,22.2-12.6c8.3,1.2,16,4.3,22.9,9.2c5.5,3.8,10.6,8.1,16,12.3C1058.1,49.4,1056.1,52,1053.9,55z"/>
		<path d="M788.6,77.5l1.2,1c5.8-6.8,11.4-13.6,17.2-20.2l-0.4-0.3l0.3,0.4c0,0,0.1,0,0.1-0.1l-0.4-0.3l0.3,0.4c0,0,0.1-0.1,0.3-0.1
			c0.1,0,0.3-0.1,0.5-0.1s0.3,0,0.4,0.1c0.1,0,0.1,0,0.1,0.1h0.1l0,0c8.9,4.9,17.7,9.9,26.5,14.9c0.8,0.4,1.7,1,3.3,2l3.7,2.2
			l-1.3-4.1c-2.2-6.5-3.9-12.1-5.9-17.7c-1.7-5-3.5-9.8-5.1-14.8c0,0-0.1-0.3-0.1-0.4c0-0.3,0.1-0.6,0.1-0.8c0-0.1,0.1-0.2,0.1-0.2
			l-0.1-0.1l0.1,0.1l0,0l-0.1-0.1l0.1,0.1l-0.6-0.4l0.4,0.6c0.1-0.1,0.2-0.1,0.2-0.2l-0.6-0.4l0.4,0.6c6.2-4.6,12.5-9,19.5-13.9
			l-0.9-1.3h-1.6c0,1.1,0,1.9,0,2.5c0,0.3,0,0.6,0,0.9c-0.1,1.4-0.1,2.9-0.1,4.3c0,14.4,2.6,28.3,6.8,42c0.2,0.6,0.3,1.1,0.3,1.3
			c0,0.3-0.1,0.4-0.2,0.8c-0.1,0.3-0.4,0.6-0.9,1c-5.2,4.8-10,9.9-14.8,14.6l1.1,1.1l0.7-1.4c-9.2-4.7-18.3-9.4-27.4-14.1l-1.1-0.6
			l-0.8,1c-0.3,0.3-0.6,0.6-0.8,1l-0.7,0.8l0.5,1c2.4,4.3,4.6,8.8,7.1,13.2c2.5,4.3,5.3,8.4,7.8,12.3l1.3-0.8l-1.4-0.8
			c-3.8,7.3-7.6,14.6-11.6,21.8l0.4,0.3l-0.4-0.4c0,0-0.1,0.1-0.1,0.1l0.4,0.3l-0.4-0.4l0.1,0.1l-0.1-0.1l0,0l0.1,0.1l-0.1-0.1l0,0
			c-0.1,0.1-0.3,0.1-0.4,0.2c-0.2,0.1-0.4,0.1-0.5,0.1l0,0l0,0l-0.1,0.4l0.1-0.3h-0.1l-0.1,0.4l0.1-0.3c-7.8-2.5-15.8-3.5-23.8-3.5
			c-3.5,0-7,0.2-10.5,0.5c-5.3,0.5-10.4,1.8-15.6,2.7l0.3,1.6l1.6,0.3c0.1-0.4,0.1-0.8,0.1-1c0.1-0.3,0.1-0.5,0.1-0.6
			c3.2-7.5,6.6-14.9,9.9-22.5c0.1-0.3,0.3-0.5,0.3-0.6c0.1-0.2,0.3-0.3,0.3-0.3c0.1-0.1,0.3-0.1,0.6-0.1c0.1,0,0.3,0,0.5,0
			c10.9,1.1,21.6,3.4,32.4,7.4l4.4,1.7l-2.5-4c-6.6-10.8-13-20.9-19.7-31.5L788.6,77.5l1.2,1L788.6,77.5l-1.3,0.8
			c6.7,10.6,13,20.8,19.7,31.4l1.3-0.8l0.6-1.5c-11.1-4.1-22.1-6.4-33.3-7.6c-0.3,0-0.6-0.1-0.8-0.1c-0.4,0-0.9,0.1-1.3,0.2
			c-0.6,0.2-1.3,0.6-1.8,1.1c-0.5,0.5-0.8,1.1-1.1,1.7c-3.2,7.5-6.6,14.9-9.9,22.5c-0.2,0.5-0.3,1-0.4,1.4c-0.1,0.4-0.1,0.7-0.1,0.9
			l-0.4,2.3l2.3-0.4c5.4-1,10.4-2.2,15.4-2.7c3.4-0.3,6.8-0.5,10.2-0.5c7.7,0,15.3,1,22.8,3.4c0.3,0.1,0.6,0.1,0.9,0.1
			c0.7,0,1.3-0.2,2-0.4c0.3-0.1,0.6-0.3,0.9-0.5c0.3-0.2,0.6-0.5,0.8-0.9c4-7.3,7.8-14.6,11.6-21.8l0.4-0.8l-0.5-0.8
			c-2.5-3.9-5.3-8-7.7-12.2c-2.5-4.2-4.6-8.6-7-13l-1.4,0.8l1.2,1c0.3-0.3,0.6-0.6,0.8-1l-1.2-1l-0.7,1.4
			c9.2,4.7,18.3,9.4,27.4,14.1l1,0.5l0.8-0.8c4.7-4.7,9.6-9.7,14.7-14.5c0.6-0.6,1.1-1.1,1.5-1.8s0.6-1.5,0.6-2.3
			c0-0.8-0.1-1.5-0.4-2.3c-4.1-13.4-6.7-27-6.7-41c0-1.4,0-2.8,0.1-4.1c0-0.3,0-0.6,0-1c0-0.6,0-1.3,0-2.5v-3.1l-2.5,1.8
			c-7,4.9-13.3,9.3-19.5,13.9c-0.4,0.3-0.6,0.6-0.7,0.8c-0.3,0.4-0.3,0.8-0.4,1.3c-0.1,0.4-0.1,0.8-0.1,1.3c0,0.4,0.1,1,0.2,1.5
			c1.6,5,3.4,9.9,5.1,14.8c1.9,5.6,3.8,11.3,5.9,17.7L839,74l0.8-1.3c-1.6-1-2.4-1.5-3.4-2c-8.8-5-17.7-10-26.6-14.9
			c-0.4-0.2-0.7-0.3-1.1-0.4c-0.4-0.1-0.7-0.1-1.1-0.1c-0.5,0-1,0.1-1.5,0.2c-0.3,0.1-0.5,0.2-0.8,0.3s-0.5,0.3-0.8,0.6
			c-5.9,6.6-11.5,13.4-17.3,20.2l-0.8,0.9l0.6,1L788.6,77.5z"/>
		<path d="M1067.6,88.6l-1.1-1.1c-6.2,5.7-12,10.9-17,15.6l1.1,1.1l1.1-1.1c-4.8-4.7-9.5-9.2-14.2-13.7l-1.1,1.1l1.3,0.9
			c4.7-6.7,10.2-12.7,15.6-19c5.3-6.2,10.6-12.8,14.4-20.5l-1.4-0.7l-1.1,1.1c6.6,6.6,13.3,13.3,20.2,20.2l1.1-1.1l-1.1-1.2
			c-6.2,5.6-11.6,10.5-17.1,15.5l-2.6,2.4l3.5,0.4c7.9,0.8,15.6,1.8,23.3,2.4c2.2,0.2,3.8,0.6,5.1,1.5s2.5,2.2,3.4,4.3
			c3.3,6.9,7.1,13.6,10.8,20.4l1.4-0.8l0.5-1.5c-10.2-3.4-19.8-6.6-30.1-10l-1.7-0.5l-0.4,1.7c-3.3,13.4-6.4,25.8-9.6,38.5l1.5,0.4
			l1.4-0.8c-0.4-0.8-0.9-1.5-1.2-2.1l-0.1-0.1l0.1,0.1c-3.2-6.5-6.6-12.9-9.7-19.5c-0.4-1-0.8-2.4-0.8-3.5c0-0.4,0-0.8,0.1-1
			c1.6-8.3,3.4-16.5,5.2-24.7c0.3-1.3,0.4-2.5,0.6-4.5l0.6-4.3l-3.2,3L1067.6,88.6l-1.6-0.2c-0.3,2-0.4,3.2-0.6,4.2
			c-1.7,8.3-3.6,16.5-5.2,24.8c-0.1,0.5-0.1,1.1-0.1,1.7c0,1.7,0.4,3.4,1.1,4.9c3.1,6.6,6.4,13.1,9.7,19.6l0.1,0.1l-0.1-0.1
			c0.4,0.8,0.8,1.5,1.3,2.3l2,3.5l1-3.9c3.2-12.7,6.2-25.1,9.6-38.5l-1.5-0.4l-0.5,1.5c10.3,3.4,20,6.6,30.1,10l3.8,1.3l-1.8-3.5
			c-3.7-6.9-7.4-13.5-10.7-20.3c-1.1-2.4-2.7-4.3-4.6-5.6c-1.9-1.3-4.1-1.9-6.6-2.1c-7.6-0.6-15.2-1.6-23.2-2.4l-0.2,1.6l1.1,1.2
			c5.5-5,10.9-9.9,17.1-15.5l1.2-1.1l-1.2-1.2c-6.9-6.9-13.6-13.6-20.2-20.2l-1.5-1.5l-1,2c-3.7,7.4-8.7,13.7-14,19.9
			c-5.3,6.2-10.9,12.3-15.8,19.1l-0.8,1.1l1,1c4.7,4.6,9.3,9,14.2,13.7l1.1,1l1.1-1c5.1-4.6,10.8-9.9,17-15.6L1067.6,88.6l-1.6-0.2
			L1067.6,88.6z"/>
		<path d="M896.5,6l0.3,1.6c8.3-1.3,16.9-2.7,25.6-4.1l-0.3-1.6L920.5,2c1.4,17,2.7,33.5,4.1,50.1l1.6-0.1l-0.3-1.6
			c-6.1,1-12,1.8-18.1,2.8l0.3,1.6l1.5-0.3c-1.5-6.9-2.9-13.4-4.3-20.4l-0.4-1.7l-1.7,0.5c-6.7,2-13.2,3.9-20,5.9l-1.6,0.4l0.5,1.5
			c2.3,6.9,4.4,13.3,6.5,19.7l1.5-0.5l-0.6-1.5c-5.8,2.5-11.3,5-16.8,7.4l0.6,1.5l1.4-0.8c-4.1-7-7.2-14.6-10.7-22.1
			c-3.5-7.6-7.4-15.1-12.8-22l-1.3,1l0.6,1.5c8-3.6,16-7.3,24.5-11.1l-0.6-1.5l-1.5,0.5c2.2,6.5,4.1,12.5,6.1,18.6l0.5,1.5l1.5-0.4
			c7.1-2.1,14-4.1,21.6-6.4l1.5-0.4l-0.4-1.5c-1.8-6-3.6-12-5.7-18.7L896.5,6l0.3,1.6L896.5,6L895,6.4c2,6.7,3.8,12.7,5.7,18.7
			l1.5-0.4l-0.4-1.5c-7.6,2.2-14.4,4.3-21.6,6.4l0.4,1.5l1.5-0.5c-2-6-3.9-12.1-6.1-18.6l-0.6-1.7l-1.6,0.8
			c-8.5,3.9-16.5,7.5-24.5,11.1l-1.8,0.8l1.3,1.6c5.2,6.6,9,13.9,12.5,21.4c3.5,7.5,6.7,15.1,10.8,22.4l0.7,1.2l1.3-0.6
			c5.5-2.5,11.1-4.9,16.8-7.4l1.3-0.6l-0.4-1.3c-2.1-6.5-4.2-12.8-6.5-19.7l-1.5,0.5l0.4,1.5c6.7-2,13.2-3.9,20-5.9l-0.4-1.5
			l-1.5,0.3c1.5,6.9,2.9,13.5,4.3,20.4l0.3,1.5l1.5-0.3c6.1-1,12-1.8,18.1-2.8l1.5-0.3l-0.1-1.5c-1.3-16.6-2.7-33.1-4.1-50.1
			L923.5,0l-1.7,0.3c-8.7,1.4-17.2,2.8-25.6,4.1l-1.8,0.3l0.5,1.7L896.5,6z"/>
		<path d="M982.5,6l-1.6,0.3c3.9,19.1,7.5,37.4,11.3,56.2l1.6-0.3l0.5-1.5c-4.6-1.5-8.6-3.4-13.2-4.3c-1.1-0.2-2-0.5-2.7-0.9
			c-0.5-0.3-1-0.6-1.3-1c-0.5-0.5-1-1.1-1.3-2c-0.3-0.9-0.6-2-0.7-3.3c-0.2-1.8-0.4-3.1-0.6-4.3c-0.2-0.9-0.5-1.7-1-2.3
			c-0.4-0.5-0.8-1-1.3-1.3c-0.8-0.5-1.7-0.8-2.6-1c-1-0.3-2.1-0.4-3.5-0.6c-3.7-0.6-7.4-1-11-1.5c-0.4-0.1-0.7-0.1-1.1-0.1
			c-0.4,0-0.9,0.1-1.3,0.2c-0.6,0.2-1.3,0.6-1.8,1.1c-0.5,0.5-0.8,1.1-1.1,1.8c-0.2,0.6-0.5,1.1-0.9,1.9c-0.4,0.7-0.8,1.5-1,2.5
			c-0.2,0.9-0.5,1.7-0.8,2.3c-0.4,0.9-1,1.5-1.5,1.8c-0.6,0.4-1.3,0.6-2.4,0.6c-0.5,0-1.1-0.1-1.8-0.2c-1.5-0.3-3-0.3-4.5-0.3
			c-2.4,0-4.8,0.2-7.3,0.2v1.6l1.5,0.6c0.4-1.1,0.8-2,1.1-2.7c5.4-9.9,10.8-19.8,16.2-29.8c2.3-4.2,4.3-8.5,6.6-12.5
			c0.1-0.1,0.1-0.3,0.3-0.4c0.2-0.3,0.5-0.4,0.8-0.6c0.1-0.1,0.3-0.1,0.3-0.1h0.1l0,0V5.9V6l0,0V5.9V6V5.7V6l0,0V5.7V6l0,0
			c8.7,0.4,17.4,1.1,25.7,1.6L982.5,6l-1.6,0.3L982.5,6l0.1-1.6c-8.3-0.6-17-1.2-25.8-1.6l0,0h-0.1c-0.5,0-1,0.1-1.4,0.3
			c-0.6,0.3-1.1,0.6-1.7,1s-0.9,0.9-1.3,1.5c-2.4,4.2-4.4,8.5-6.6,12.6c-5.4,10-10.8,19.9-16.2,29.8c-0.6,1.1-0.9,2.1-1.3,3l-1,2.2
			h2.4c2.6,0,5-0.2,7.3-0.2c1.4,0,2.7,0.1,3.9,0.3c0.8,0.1,1.6,0.2,2.4,0.2c1,0,2-0.1,2.8-0.4c1.3-0.4,2.5-1.3,3.3-2.5
			c0.8-1.1,1.4-2.5,1.8-4.2c0.1-0.5,0.4-1.1,0.8-1.7c0.3-0.6,0.8-1.4,1.1-2.3c0.1-0.3,0.2-0.4,0.3-0.6c0.1-0.2,0.2-0.3,0.3-0.3
			c0.1-0.1,0.3-0.1,0.5-0.1c0.2,0,0.4,0,0.6,0.1c3.7,0.6,7.4,1,11,1.5c1.7,0.3,2.9,0.4,3.8,0.7c0.6,0.2,1,0.3,1.3,0.5
			c0.2,0.1,0.3,0.3,0.4,0.4c0.2,0.3,0.4,0.8,0.5,1.7c0.2,0.8,0.3,2,0.4,3.4c0.1,1.3,0.4,2.5,0.8,3.7c0.3,0.8,0.6,1.6,1.1,2.3
			c0.7,1.1,1.6,1.9,2.7,2.6c1.1,0.6,2.4,1.1,3.9,1.4c4,0.8,8,2.6,12.8,4.2l2.6,0.9l-0.6-2.7c-3.8-18.8-7.4-37-11.3-56.2l-0.3-1.2
			l-1.2-0.2L982.5,6z M957.3,30.1l-0.3,1.6c4.8,0.7,9.1,1.3,13.7,2l2.3,0.3l-0.5-2.2c-1.3-6.2-2.6-12-3.9-18.1l-0.8-3.9l-2,3.4
			c-3.2,5.3-6.4,10.5-9.7,16l-1.2,2l2.4,0.4L957.3,30.1l1.3,0.8c3.4-5.5,6.5-10.7,9.7-16l-1.3-0.8l-1.5,0.3c1.3,6,2.6,11.9,3.9,18.1
			l1.5-0.3l0.3-1.6c-4.6-0.7-9-1.3-13.7-2L957.3,30.1l1.3,0.8L957.3,30.1z"/>
		<path d="M1053.9,55l1-1.2c-3.8-3.1-7.3-6-10.9-8.8c-2.1-1.5-4.3-3-6.7-4.1c-2.4-1.1-5-1.8-7.8-1.9c-0.2,0-0.4,0-0.5,0
			c-3.6,0-6.7,1.3-8.9,3.6c-2.2,2.2-3.4,5.4-3.4,8.8c0,1.3,0.2,2.6,0.5,3.9c0.8,3,2,5.7,3.7,8c1.7,2.4,3.6,4.4,5.8,6.3
			c3.4,2.9,6.9,5.7,10.6,8.6l1-1.2l-1.3-1c-2.1,2.7-4.1,5.4-6.2,8.1l1.3,1l0.9-1.3c-6-4.1-11.9-8.1-17.1-12.8s-9.7-9.9-12.8-16.7
			c-1.7-3.7-2.7-7.3-2.7-11c0-1.8,0.3-3.7,0.8-5.7c1.1-3.8,3.2-6.7,6-8.7s6.4-3.1,10.6-3.1c1.2,0,2.5,0.1,3.8,0.3
			c8.1,1.1,15.5,4.2,22.3,8.9c5.3,3.7,10.4,8,16,12.2l1-1.3l-1.3-1c-2.4,3.2-4.5,5.9-6.6,8.8L1053.9,55l1-1.2L1053.9,55l1.3,1
			c2.2-2.9,4.2-5.5,6.6-8.8l1-1.3l-1.3-1c-5.4-4.2-10.6-8.5-16.1-12.3c-7.1-4.9-15-8.2-23.6-9.4c-1.5-0.2-2.9-0.3-4.3-0.3
			c-4.7,0-9,1.2-12.4,3.6s-5.9,6-7.3,10.4c-0.7,2.2-1,4.4-1,6.6c0,4.3,1.2,8.4,3.1,12.3c3.4,7.3,8.1,12.9,13.5,17.7
			c5.4,4.8,11.4,8.9,17.4,13l1.3,0.9l0.9-1.2c2.1-2.7,4.1-5.4,6.2-8.1l1-1.2l-1.2-1c-3.8-3.1-7.2-5.8-10.5-8.6
			c-2-1.7-3.8-3.6-5.2-5.7c-1.5-2.1-2.5-4.4-3.2-7c-0.3-1.1-0.4-2.2-0.4-3.2c0-2.7,1-5,2.5-6.6c1.6-1.6,3.8-2.6,6.6-2.6
			c0.1,0,0.3,0,0.4,0c2.4,0.1,4.5,0.7,6.6,1.7c2.1,1,4.1,2.2,6.1,3.8c3.6,2.6,6.9,5.6,10.8,8.7l1.3,1l1-1.3L1053.9,55z"/>
		<path class="st9" d="M951.3,290.1c6.8-2.6,13.4-5.2,20.5-8c0.8,5.6,1.6,11.1,2.4,16.8c3.9-0.6,7.7-1.2,11.8-1.8
			c0.5,3.9,1,7.7,1.5,11.7c-4,0.7-7.7,1.3-12,2.1c1.3,7.8,2.5,15.5,3.9,23.2c0.5,2.7,2.8,4.2,5.7,4.2c2.7,0,5.5-0.3,8.7-0.4
			c0.4,4.3,0.8,8.7,1.1,13.5c-10.7,2.4-21.2,5.2-31.9,0.5c-6.6-2.9-9.9-8.1-9.9-15.3c-0.1-7.8,0-15.6,0-24.5c-5.2,1-9.5,1.8-14,2.7
			c0.4-4.5,0.8-9.2,1.1-14.1c3.9,0,7.6,0,11.8,0C951.8,297.1,951.5,293.7,951.3,290.1z"/>
		<path class="st9" d="M907.7,298.8c7.4,0.6,14.6,1.1,22.2,1.7c-1.3,18.4-2.6,36.6-3.9,55.4c-9.4-1.1-18.4-2.3-27.7-3.4
			C901.5,334.3,904.5,316.7,907.7,298.8z"/>
		<path class="st9" d="M931.9,271.5c0.1,0.6,0.1,1,0.1,1.4c-0.4,5.8-0.9,11.6-1.3,18.1c-7.1-0.5-14.1-1-21.4-1.6
			c1.2-6.6,2.3-12.6,3.4-18.8C919.2,270.9,925.5,271.2,931.9,271.5z"/>
		<path d="M951.3,290.1l0.6,1.5c6.8-2.6,13.4-5.2,20.5-8l-0.6-1.5l-1.6,0.2c0.8,5.6,1.6,11.1,2.4,16.8l0.3,1.6l1.6-0.3
			c3.9-0.6,7.7-1.2,11.8-1.8l-0.3-1.6l-1.6,0.2c0.5,3.9,1,7.7,1.5,11.7l1.6-0.2l-0.3-1.6c-4,0.7-7.7,1.3-12,2.1l-1.5,0.3l0.3,1.5
			c1.3,7.8,2.5,15.5,3.9,23.2c0.2,0.9,0.4,1.7,0.9,2.4c0.6,1,1.6,1.8,2.7,2.4c1.1,0.5,2.3,0.8,3.6,0.8h0.1l0,0
			c2.8,0,5.6-0.3,8.8-0.4l-0.1-1.6l-1.6,0.1c0.4,4.3,0.8,8.7,1.1,13.5l1.6-0.1l-0.3-1.5c-6.5,1.5-12.8,3-19,3c-4,0-8-0.6-12-2.4
			c-3.1-1.3-5.2-3.2-6.7-5.4c-1.5-2.3-2.2-5-2.3-8.4c0-3.1-0.1-6.1-0.1-9.2c0-4.8,0-9.9,0-15.3v-1.9l-1.9,0.4c-5.2,1-9.5,1.8-14,2.7
			l0.3,1.6l1.6,0.1c0.4-4.5,0.8-9.2,1.1-14.1l-1.6-0.1v1.6c3.9,0,7.6,0,11.8,0h1.7l-0.1-1.7c-0.3-3.7-0.4-7.1-0.7-10.7L951.3,290.1
			l0.6,1.5L951.3,290.1l-1.6,0.1c0.3,3.6,0.4,7,0.7,10.7l1.6-0.1v-1.6c-4.2,0-7.9,0-11.8,0h-1.5l-0.1,1.5c-0.4,4.9-0.8,9.5-1.1,14.1
			l-0.2,2.1l2-0.4c4.6-0.9,8.8-1.7,14-2.7l-0.3-1.6h-1.6c0,5.4,0,10.4,0,15.3c0,3.1,0,6.2,0.1,9.3c0.1,3.8,1,7.3,2.8,10.1
			c1.8,2.9,4.6,5.1,8.1,6.6c4.5,2,8.8,2.7,13.2,2.7c6.7,0,13.2-1.7,19.7-3.1l1.3-0.3l-0.1-1.4c-0.4-4.8-0.8-9.2-1.1-13.5l-0.1-1.5
			l-1.5,0.1c-3.2,0.2-6,0.4-8.6,0.4l0,0H985c-1.1,0-2.1-0.3-2.7-0.8c-0.3-0.3-0.6-0.5-0.8-0.9c-0.2-0.3-0.4-0.8-0.5-1.3
			c-1.5-7.6-2.6-15.3-3.9-23.2l-1.6,0.3l0.3,1.6c4.3-0.8,8-1.4,12-2.1l1.5-0.3l-0.2-1.5c-0.5-4.1-1-7.9-1.5-11.7l-0.2-1.6l-1.6,0.3
			c-4.1,0.6-7.8,1.2-11.8,1.8l0.3,1.6l1.6-0.2c-0.8-5.7-1.6-11.2-2.4-16.8l-0.3-2l-1.8,0.7c-7.1,2.7-13.7,5.3-20.5,7.9l-1.1,0.4
			l0.1,1.1L951.3,290.1z"/>
		<path d="M907.7,298.8l-0.1,1.6c7.4,0.6,14.6,1.1,22.2,1.7l0.1-1.6l-1.6-0.1c-1.3,18.4-2.6,36.6-3.9,55.4l1.6,0.1l0.2-1.6
			c-9.4-1.1-18.4-2.3-27.7-3.4l-0.2,1.6l1.6,0.3c3.2-18.1,6.2-35.7,9.4-53.6L907.7,298.8l-0.1,1.6L907.7,298.8l-1.6-0.3
			c-3.2,17.9-6.2,35.5-9.4,53.6l-0.3,1.7l1.7,0.2c9.3,1.1,18.3,2.3,27.7,3.4l1.7,0.2l0.1-1.7c1.3-18.8,2.7-37.1,3.9-55.4l0.1-1.6
			l-1.6-0.1c-7.6-0.6-14.8-1.1-22.2-1.7l-1.5-0.1l-0.3,1.4L907.7,298.8z"/>
		<path d="M931.9,271.5l-1.6,0.1c0.1,0.6,0.1,1,0.1,1.1v0.1l0,0c-0.4,5.8-0.9,11.6-1.3,18.1l1.6,0.1l0.1-1.6
			c-7.1-0.5-14.1-1-21.4-1.6l-0.1,1.6l1.6,0.3c1.2-6.6,2.3-12.6,3.4-18.8l-1.6-0.3l-0.1,1.6c6.6,0.3,12.8,0.6,19.2,1L931.9,271.5
			l-1.6,0.1L931.9,271.5l0.1-1.6c-6.4-0.3-12.7-0.6-19.2-1l-1.4-0.1l-0.3,1.4c-1.1,6.2-2.2,12.3-3.4,18.8l-0.3,1.7l1.8,0.1
			c7.3,0.6,14.3,1.1,21.4,1.6l1.6,0.1l0.1-1.6c0.5-6.5,1-12.3,1.3-18.1l0,0c0-0.1,0-0.2,0-0.3c0-0.5-0.1-0.9-0.1-1.3l-0.1-1.4
			l-1.4-0.1L931.9,271.5z"/>
	</g>
</g>
<g>
	<g>
		<g>
			<defs>
				<rect id="SVGID_7_" y="4.3" width="667.5" height="380.2"/>
			</defs>
			<clipPath id="SVGID_8_">
				<use xlink:href="#SVGID_7_"  style="overflow:visible;"/>
			</clipPath>
			<g id="white-logo" class="st11">
				<g>
					<g>
						<g>
							<g>
								<g>
									<g>
										<g>
											<path d="M35,293.4c-1.9-9.6-4-19-5.1-28.6c-2.4-21.6-4.8-43.5-3.7-65.7c1.1-19,5.6-36.8,13.6-53.7
												c0.3-0.8,1.1-1.6,1.9-2.1c13.1-12.3,26.2-24.3,39.2-36.8c3.2-2.9,6.1-5.9,7.5-10.4c1.1-3.7,5.6-5.9,9.9-5.9
												c3.5,0,6.9,0,10.4,0.3c1.9,0,2.9-0.5,3.7-2.1c4-8,8.3-15.8,12.5-23.5c3.5-6.4,9.3-9.9,15.5-12.5
												c9.9-4.3,19.8-7.7,29.6-11.7c5.3-2.1,10.4-5.3,15.5-8c4-2.1,8-4,12.3-5.9c6.4-2.9,11.7-1.1,17.4,2.7
												c7.2,4.8,15,9.3,22.2,14.2c3.5,2.1,6.7,5.1,10.1,7.2c2.9,1.9,5.9,2.9,8.8,4.5c2.7,1.6,5.1,3.2,7.5,5.1
												c5.1,4.5,10.1,9.3,15.2,13.9c1.6,1.6,3.5,2.9,5.3,4.5c1.9-3.7,7.7-3.5,7.5-9.1c0.3-0.3,0.3-0.5,0.5-0.5
												c6.1-2.7,7.2-1.9,8.8,4.5c0.5,2.1,1.3,4,2.1,6.7c0.3-0.5,0.3-0.3,0,0c-2.1,2.1-5.9,4.5-5.9,6.7c0.3,4,2.4,7.7,4.3,11.7
												c2.9,6.4,6.7,12.5,8.8,19c2.7,8.5,4,17.9,5.6,26.7c1.1,5.6,1.9,11.2,2.7,16.6c0.3,1.1,0.3,2.1,0.3,3.2
												c0,5.1-0.8,5.9-6.1,5.9c-3.5-0.3-6.9-0.3-10.4-0.3c-2.7,0.3-4.3-0.8-4.8-3.5c-1.3-3.7-3.2-7.7-3.7-11.7
												c-0.5-3.5,0.5-7.2,0.3-10.7c0-6.4,0-13.1-0.8-19.8c-0.3-2.9-1.6-6.1-3.2-8.8c-2.7-5.1-5.6-10.1-8.5-15
												c-1.6-2.7-3.7-5.1-0.8-8.8c-5.3,6.1-8.5-0.3-13.1-1.6c0.3,0.8,0.3,1.3,0.3,1.9c4.3,13.6,9.1,27,12.8,40.6
												c2.1,8.5,2.1,17.4,3.2,26.2c0.5,4.5,45.9,8.5,49.4,12.3c-4.5,2.4-46.5,1.9-59.3,4c-1.6-0.5-3.5-0.5-5.1,0
												c-4.5,1.1-37.6,8.8-41.6,7.7c-1.1-0.3,27-13.3,27-15c0.3-6.7-2.9-11.2-8.3-15c-8.8-6.1-17.6-12-28.6-13.6
												c-5.6-0.8-10.9-0.5-15.8,2.4c-5.3,3.2-10.9,4.5-17.1,4c-6.4-0.5-12.5,0.8-17.1,6.7c-2.7,3.5-6.4,6.4-9.9,9.1
												c-5.6,4.5-11.2,8.8-16.3,13.6c-0.5,1.6-0.8,3.2-1.6,4.5c-3.2,6.7-6.9,13.1-9.9,20c-3.7,8.8-6.7,17.6-10.1,26.4
												c-0.8,1.9-0.5,3.2,0.5,5.1c8,11.2,18.2,20.3,28.8,28.6c-13.1-5.6-22.4-16-31.8-27.5c-3.5,10.4-9.3,19.2-9.6,29.6
												c-0.5,9.3-2.9,17.9-6.7,26.4c-1.1,2.7-0.8,4.5,1.1,6.9c20.3,27.5,45.7,49.1,74.2,67.5c1.1,0.5,1.9,1.3,2.9,1.9
												c-0.3,0.3-0.3,0.5-0.5,0.8c-6.9-3.7-13.9-7.2-20.6-11.2c-14.4-8.3-27.5-18.2-39.8-29.4c-9.6-8.8-16.8-19.2-24.3-29.6
												c-0.5-0.8-0.8-2.1-0.5-2.9c5.6-11.7,5.6-24.8,7.7-37.4c1.6-9.1,5.9-17.1,9.9-25.1c1.3-2.7,1.3-4.3-0.5-6.9
												c-6.1-8-11.7-16.3-17.6-24.6c-0.8-1.1-1.1-2.9-0.8-4.5c4.5-25.1,9.3-50.2,14.2-75.3c0.8-3.7,0.3-7.7,4.3-10.4
												c0-0.3-0.3-0.8-0.3-1.1c-3.2-0.3-6.4-0.5-9.6-0.8c-1.9-0.3-4-0.5-6.4-1.1c-0.3,4.8-4.8,6.1-8.5,8
												c-9.9,4.5-17.1,12.5-24.6,20c-1.1,1.3-2.4,2.7-3.7,3.5c-15.5,10.4-19.8,27-23,43.5c-6.4,36.6-4.3,73.4,1.3,110
												c0,0.5,0,1.3,0.3,1.9C35.8,293.4,35.2,293.4,35,293.4z M233.3,137.8c0.3-0.5,0.5-0.8,0.8-1.3c-1.9-1.3-3.5-3.2-5.3-4
												c-5.3-2.4-9.3-6.1-12-11.2c-1.3-2.4-3.2-3.2-5.9-2.9c-2.4,0.3-5.1,0.3-7.7,0.8c-6.9,1.3-13.9,0.5-20.8-0.8
												c-3.5-0.5-7.2-0.8-10.7-0.5c-9.9,0.8-18.7-0.8-26.7-6.9c-2.4-1.9-5.6-3.2-8.5-4c-1.6-0.5-4.3,0-5.6,1.1
												c-4.3,2.9-8.5,6.1-12.5,9.6c-1.1,1.1-2.1,2.7-2.7,4.3c-2.4,9.9-4.8,20-7.2,30.2c-3.5,14.2-6.7,28.6-10.1,42.7
												c-0.3,1.3-0.3,3.2,0.5,4.5c2.1,3.7,4.3,7.2,6.7,10.7c2.9,4.5,5.9,8.8,9.6,13.9c2.1-5.9,4.3-10.4,5.3-15.5
												c2.7-10.4,5.9-20.6,11.7-29.4c2.4-3.5,2.7-5.9-0.5-9.3c-3.5-3.7-3.2-4.8,0.8-8.3c0.8-0.8,2.4-0.5,3.5-0.8
												c0.8-0.3,1.6-0.3,2.1-0.8c6.1-6.1,12.5-11.7,20.8-15c7.7-2.9,15.2-7.2,23-10.7c3.5-1.6,7.5-3.5,11.2-3.7
												c8.3-0.3,16.8,0.3,24.8,3.5C222.9,135.1,228.3,136.2,233.3,137.8z M247.5,72.4c-2.4-1.9-4.3-3.2-6.1-4.5
												c-5.1-4.5-10.4-8.8-15.5-13.6c-3.7-3.5-6.9-7.2-11.5-10.1c-6.9-4.5-13.3-3.7-19.8-1.1c-17.6,6.9-35,15-52.9,21.9
												c-12.5,4.8-17.9,16-26.2,25.1c6.1,0.5,12.3,0.5,18.4,0.3c0.8,0,1.6-0.5,2.1-1.1c10.1-8.3,20.3-16.6,28.6-26.7
												c0.5-0.5,1.6-1.3,1.9-1.1c3.2,1.6,4.3-1.1,5.6-2.7c1.1-1.1,1.9-2.4,2.9-3.7c0.5,1.6,0.8,2.7,1.1,3.7
												c1.6-1.1,3.2-1.9,4.5-2.9c0.5,1.1,1.1,1.9,1.6,2.7c1.9,4.3,5.1,6.7,9.6,7.7c7.5,1.9,15,4,22.2,6.1c0.3,0,0.5-0.3,0.8-0.3
												c-0.3-1.1-0.3-2.1-0.5-4c6.9,1.9,13.6,3.2,19.8,4.8C238.9,74.5,242.7,74.3,247.5,72.4z M151.9,92.1
												c20,3.5,39,6.9,58.2,10.1c-0.5-3.5-0.5-7.2-3.7-9.3c0,0,0-0.5,0-1.3c4.3,2.7,8,4.8,11.7,7.5c2.4,1.6,4,0.8,5.1-1.3
												c1.1-1.9,1.9-3.7,2.9-6.1c-2.9-1.3-6.1-3.5-9.3-4c-10.4-1.6-20.8-2.7-31.2-4c-1.6-0.3-3.2-1.1-4.5-2.1
												c-2.9-2.1-5.9-4.5-8.8-6.9c-0.3,0.8-1.1,1.3-0.8,1.9c0.3,2.9-1.6,4.3-3.7,5.6C162.6,84.9,157.8,88.1,151.9,92.1z
												 M234.7,93.5c1.1,7.7,2.7,15.2,8.8,20.8c3.5,2.9,7.5,5.6,9.3,9.9c0.8,2.1,2.4,3.7,3.5,5.6c4.3,6.4,8.5,12.8,12.8,19.5
												c0.3-0.3,0.5-0.3,0.8-0.5c-0.3-1.1-0.5-2.1-0.8-3.2c-1.9-5.1-4-10.1-5.9-15.2c-4.3-10.9-9.3-21.4-17.1-30.2
												C243.2,96.1,240,93.2,234.7,93.5z"/>
										</g>
									</g>
								</g>
							</g>
						</g>
					</g>
				</g>
				<g>
					<path d="M388.2,198.9c7.5-2.4,15-4.8,23.5-7.7c-0.8,2.1-1.1,2.9-1.6,4.5c3.7-0.5,7.5-1.1,10.9-1.3c1.6-0.3,3.7,0,4.8,0.8
						c4.3,4,8.5,8.3,12.5,12.8c1.1,1.3,1.3,3.7,0.8,5.6c-1.6,6.7-3.2,13.3-5.3,19.8c-1.3,3.5-4,6.4-6.4,10.1c-0.3-0.8-0.3-0.3,0-0.3
						c8,2.4,6.7,8.5,5.6,14.4c-1.6,7.7-2.4,15.8-5.6,22.7c-3.2,7.2-3.5,15-5.9,21.9c-0.3,0.3-0.5,0.8-0.8,1.1c-0.5,0-1.1,0-1.6,0
						c-0.3-12.3-0.5-24.6-1.1-36.6c-0.3-4.3,0-8.8-1.1-12.8c-0.5-1.9-4-2.9-6.1-4.3c-1.1,1.6-2.7,2.9-2.7,4.5
						c-0.5,6.7-0.8,13.6-0.3,20.3c0.3,2.1,2.7,4.3,4.8,7.5c-10.1-0.5-19.8-0.8-29.4-1.3c-0.3-0.3-0.5-0.5-0.8-1.1
						c8-2.4,6.4-10.4,10.1-15.5c0.3-0.5,0.3-1.1,0.3-1.9c0.5-9.1,0.8-18.4,1.3-27.5c0.5-8.8,0.8-17.9,1.3-26.7
						c0.3-3.7-0.5-6.1-4.8-6.7c-0.8,0-1.3-0.5-1.9-0.8C388.2,200,388.2,199.5,388.2,198.9z M413.6,235.2
						c11.7-9.6,13.3-19.2,3.7-24.6c-0.5,2.9-1.1,5.9-1.6,8.5c-1.3-2.1-1.6-4.3-2.4-6.1c-0.5-1.3-1.9-2.4-2.7-3.5
						c-0.8,1.3-1.9,2.7-2.1,4.3c-0.5,5.1-0.5,10.1-0.8,15.2c0,2.9,0,6.1,0,9.1c0.3,0,0.8,0,1.1,0c1.1-1.9,1.9-3.7,3.2-6.4
						C412.8,233.1,413.3,234.2,413.6,235.2z"/>
					<path d="M389.8,189.1c-1.1,1.3-1.6,2.4-2.4,2.9c-5.6,2.9-6.1,7.7-6.4,13.1c-0.8,16-1.6,31.8-2.9,47.8
						c-0.5,5.6-2.7,10.9-4.3,16.6c-0.8-0.5-1.6-1.1-2.7-1.9c-1.1,3.5-1.9,6.9-2.9,10.1c-0.5,0-1.1,0-1.6,0
						c-0.8-8.3-1.9-16.8-2.9-25.4c-0.8,0.5-1.6,1.3-2.9,2.4c-0.3-0.8-0.8-1.9-1.6-4c-2.1,3.7-3.7,6.7-5.9,10.1
						c-0.3-3.2-0.3-5.9-0.5-9.3c-3.2,7.7-1.9,15.8-8,22.7c-0.3-3.7-0.3-6.4-0.5-10.4c-4,5.3-7.5,9.9-11.2,15
						c-0.3-2.9-0.5-5.1-0.3-7.5c0-3.2,0.8-6.7-4.8-6.4c10.9-5.1,10.9-15.5,13.3-24.3c1.9-6.1,4.3-12,6.1-18.2
						c0.8-2.7,1.1-5.3,2.1-7.7c1.6-4.5,2.9-9.3,4.8-13.9c1.9-4,1.6-6.1-2.4-8c-1.6-0.8-2.9-1.6-4.5-2.4c0.3-0.5,0.3-0.8,0.3-1.3
						C361.5,189.1,375.4,189.1,389.8,189.1z M369.2,202.9c-0.5,0-1.1-0.3-1.6-0.3c-3.5,11.7-6.7,23.5-10.1,35.2
						c7.7,1.3,9.3,0.3,9.6-7.5c0.3-2.9,0.5-5.9,0.8-8.5C368.2,215.8,368.7,209.3,369.2,202.9z"/>
					<path d="M325.2,185.3c-1.6,9.6-2.9,18.4-4.5,27.2c-0.3,0.3-0.5,0.3-1.1,0.5c-1.3-2.7-2.7-5.3-4-8c-0.5,0.8-1.3,1.6-2.1,2.9
						c-1.3-3.2-2.7-6.1-4.3-9.3c-0.8,1.6-1.3,2.4-1.9,3.7c-1.1-1.1-2.4-1.9-4.5-3.7c-1.3,9.6-0.3,18.2,0.8,27
						c7.2-0.3,5.1-8,10.1-10.7c0.8,10.4,1.3,20.6,2.1,30.2c-0.5,0.3-0.8,0.3-1.3,0.3c-1.1-1.9-2.1-3.7-3.5-5.6
						c-1.3-1.6-2.9-2.7-4.8-4c-3.7,6.9-1.9,19.2,3.5,25.1c4.8-1.1,7.2-4,7.7-8.8c0.3-2.9,1.3-5.6,2.4-9.3c4.3,6.4,5.3,23.2,3.5,34.2
						c-4.3-1.9-8.5-4-12.8-6.1c-5.1-2.7-5.1-2.7-7.5,2.7c-0.3,0.5-0.5,1.1-1.1,1.9c-4.3-7.7-10.9-3.5-17.6-3.5
						c0.8-1.9,1.1-3.5,2.1-4.3c3.5-2.7,3.5-6.1,3.2-10.1c-0.8-16.8-1.3-33.4-1.9-50.2c-0.3-6.1-2.4-11.2-8.5-14.4
						C293.9,187.7,309.4,187.5,325.2,185.3z"/>
					<path d="M249.9,290.8c-0.8-3.2-1.3-6.7-2.4-9.9c-5.9-20.6-8.8-41.6-10.7-62.7c-0.5-6.4-0.5-12.8-8-15.5c-0.3,0-0.3-0.8-0.8-1.9
						c15.2-2.7,29.9-5.6,45.4-8.3c-0.8,8.3-1.6,15.8-2.4,24c-1.3-1.6-2.9-2.4-3.5-4c-1.9-4.5-5.9-5.9-10.4-3.5
						c-4.3,2.1-6.4,5.3-5.6,10.1c0.5,4.5,1.1,9.1,1.6,13.6c6.9-1.1,5.1-8.3,10.1-11.2c0.8,10.4,1.6,20.3,2.4,30.2
						c-0.5,0-0.8,0.3-1.3,0.3c-1.3-2.1-2.4-4.5-4.3-6.4c-1.1-1.1-2.7-1.6-4.3-2.1c-0.5,1.3-1.6,2.7-1.6,4c0.3,5.1,0.5,10.1,0.8,15
						C256,272.1,254.2,281.4,249.9,290.8z"/>
				</g>
				<g>
					<g>
						<g>
							<g>
								<g>
									<g>
										<g>
											<path d="M634.9,293.4c0-0.5,0-1.3,0.3-1.9c5.3-36.6,7.7-73.4,1.3-110c-2.9-16.8-7.2-33.1-23-43.5
												c-1.3-1.1-2.7-2.4-3.7-3.5c-7.5-7.5-14.7-15.5-24.6-20c-4-1.9-8.5-3.2-8.5-8c-2.4,0.3-4.3,0.8-6.4,1.1
												c-3.2,0.3-6.4,0.5-9.6,0.8c0,0.3-0.3,0.8-0.3,1.1c3.7,2.4,3.5,6.7,4.3,10.4c4.8,25.1,9.6,50.2,14.2,75.3
												c0.3,1.3,0,3.2-0.8,4.5c-5.6,8.3-11.5,16.6-17.6,24.6c-1.9,2.4-1.9,4-0.5,6.9c4,8,8.3,16,9.9,25.1
												c2.1,12.5,2.1,25.6,7.7,37.4c0.3,0.8,0,2.1-0.5,2.9c-7.5,10.4-14.7,20.8-24.3,29.6c-12.3,11.2-25.6,20.8-39.8,29.4
												c-6.7,4-13.6,7.5-20.6,11.2c-0.3-0.3-0.3-0.5-0.5-0.8c1.1-0.5,1.9-1.3,2.9-1.9c28.6-18.2,53.9-40,74.2-67.5
												c1.9-2.4,2.1-4.3,1.1-6.9c-3.7-8.3-6.1-17.1-6.7-26.4c-0.5-10.7-6.1-19.5-9.6-29.6c-9.3,11.5-18.7,21.9-31.8,27.8
												c10.7-8.5,20.8-17.4,28.8-28.6c1.3-1.9,1.3-3.2,0.5-5.1c-3.5-8.8-6.4-17.9-10.1-26.4c-2.9-6.9-6.7-13.3-9.9-20
												c-0.8-1.6-1.1-3.2-1.6-4.5c-4.8-4.8-10.7-9.1-16.3-13.6c-3.5-2.9-7.2-5.6-9.9-9.1c-4.5-5.9-10.4-7.5-17.1-6.7
												c-6.4,0.5-11.7-0.8-17.1-4c-5.1-2.9-10.1-3.2-15.8-2.4c-10.9,1.6-19.8,7.5-28.6,13.6c-5.6,3.7-8.5,8.3-8.3,15
												c0,1.6,28.3,14.4,27,15c-4,1.3-36.8-6.7-41.6-7.7c-1.6-0.3-3.7-0.5-5.1,0c-12.8-2.1-55-1.6-59.3-4
												c3.5-3.7,48.9-7.7,49.4-12.3c0.8-8.8,0.8-17.6,3.2-26.2c3.5-13.6,8.5-27,12.8-40.6c0.3-0.5,0.3-1.1,0.3-1.9
												c-4.5,1.1-7.7,7.7-13.1,1.6c2.7,3.7,0.8,6.1-0.8,8.8c-2.9,4.8-5.9,9.9-8.5,15c-1.3,2.7-2.9,5.9-3.2,8.8
												c-0.5,6.4-0.5,13.1-0.8,19.8c0,3.5,0.8,7.2,0.3,10.7c-0.5,4-2.7,7.7-3.7,11.7c-0.8,2.4-2.1,3.5-4.8,3.5
												c-3.5-0.3-6.9,0-10.4,0.3c-5.1,0.3-5.9-0.5-6.1-5.9c0-1.1,0-2.1,0.3-3.2c0.8-5.6,1.6-11.2,2.7-16.6
												c1.6-8.8,2.9-17.9,5.6-26.7c1.9-6.7,5.9-12.5,8.8-19c1.6-3.7,4-7.7,4.3-11.7c0-2.1-3.7-4.3-5.9-6.7c-0.3-0.3-0.3-0.5,0,0
												c0.8-2.7,1.9-4.5,2.1-6.7c1.3-6.4,2.7-7.2,8.8-4.5c0.3,0.3,0.5,0.5,0.5,0.5c-0.5,5.6,5.6,5.1,7.5,9.1
												c2.1-1.6,3.7-2.9,5.3-4.5c5.1-4.5,10.1-9.3,15.2-13.9c2.1-1.9,4.8-3.7,7.5-5.1c2.9-1.6,6.1-2.9,8.8-4.5
												c3.5-2.1,6.7-5.1,10.1-7.2c7.2-4.8,15-9.3,22.2-14.2c5.6-3.7,10.9-5.6,17.4-2.7c4,1.9,8.3,3.7,12.3,5.9
												c5.1,2.7,10.1,5.6,15.5,8c9.9,4.3,19.8,7.5,29.6,11.7c6.1,2.7,12.3,6.1,15.5,12.5c4.3,7.7,8.5,15.5,12.5,23.5
												c0.8,1.9,1.9,2.4,3.7,2.1c3.5-0.3,6.9-0.3,10.4-0.3c4.5,0,8.8,2.1,9.9,5.9c1.3,4.8,4.5,7.5,7.5,10.4
												c12.8,12.3,26.2,24.6,39.2,36.8c0.5,0.5,1.3,1.3,1.9,2.1c8,17.1,12.5,35,13.6,53.7c1.1,22.2-1.3,44.1-3.7,65.9
												c-1.1,9.6-3.2,19-5.1,28.6C635.4,293.4,635.1,293.4,634.9,293.4z M452.8,133.3c8-3.2,16.3-3.7,24.8-3.5
												c3.7,0.3,7.7,2.1,11.2,3.7c7.7,3.5,15.2,7.7,23,10.7c8.5,3.2,14.7,8.8,20.8,15c0.5,0.5,1.3,0.5,2.1,0.8
												c1.1,0.3,2.7,0.3,3.5,0.8c4,3.5,4.3,4.5,0.8,8.3c-2.9,3.5-2.7,5.6-0.5,9.3c5.9,9.1,9.1,19.2,11.7,29.4
												c1.3,4.8,3.5,9.6,5.3,15.5c3.5-5.1,6.4-9.6,9.6-13.9c2.4-3.5,4.8-6.9,6.7-10.7c0.8-1.3,0.8-3.2,0.5-4.5
												c-3.2-14.2-6.7-28.6-10.1-42.7c-2.4-10.1-4.5-20-7.2-30.2c-0.3-1.6-1.6-3.2-2.7-4.3c-4-3.5-8.3-6.7-12.5-9.6
												c-1.6-1.1-4-1.6-5.6-1.1c-2.9,0.8-6.1,2.1-8.5,4c-8,6.1-16.8,7.7-26.7,6.9c-3.5-0.3-7.2,0-10.7,0.5
												c-6.9,1.1-13.9,2.1-20.8,0.8c-2.4-0.5-5.1-0.5-7.7-0.8c-2.4-0.3-4.5,0.5-5.9,2.9c-2.7,5.1-6.7,8.8-12,11.2
												c-1.9,0.8-3.5,2.7-5.3,4c0.3,0.5,0.5,0.8,0.8,1.3C442.7,136.2,448,135.1,452.8,133.3z M436,73.2
												c6.4-1.9,12.8-3.2,19.8-4.8c-0.3,1.9-0.3,2.9-0.5,4c0.3,0,0.5,0.3,0.8,0.3c7.5-2.1,14.7-4.3,22.2-6.1
												c4.5-1.1,7.7-3.5,9.6-7.7c0.3-0.8,0.8-1.6,1.6-2.7c1.6,0.8,2.9,1.9,4.5,2.9c0.5-1.3,0.8-2.4,1.1-3.7
												c1.1,1.3,1.9,2.7,2.9,3.7c1.6,1.6,2.7,4.3,5.6,2.7c0.3-0.3,1.3,0.5,1.9,1.1c8.3,10.4,18.2,18.7,28.6,26.7
												c0.5,0.5,1.3,1.1,2.1,1.1c6.1,0,12,0,18.4-0.3c-8.3-9.1-13.6-20.3-26.2-25.1c-17.9-6.9-35.2-15-52.9-21.9
												c-6.4-2.7-12.8-3.5-19.8,1.1c-4.5,2.9-7.7,6.4-11.5,10.1c-4.8,4.8-10.1,9.1-15.5,13.6c-1.9,1.6-3.7,2.9-6.1,4.5
												C428,74.3,432,74.5,436,73.2z M503.3,81.5c-2.1-1.3-4-2.7-3.7-5.6c0-0.5-0.5-1.1-0.8-1.9c-2.9,2.4-5.9,4.8-8.8,6.9
												c-1.3,1.1-2.9,1.9-4.5,2.1c-10.4,1.3-20.8,2.4-31.2,4c-3.2,0.5-6.4,2.7-9.3,4c1.1,2.4,1.9,4.5,2.9,6.1
												c1.1,2.1,2.7,2.9,5.1,1.3c3.7-2.4,7.5-4.8,11.7-7.5c0,1.1,0.3,1.3,0,1.3c-3.2,2.4-3.2,5.9-3.7,9.3
												c19-3.2,38.2-6.7,58.2-10.1C513.1,88.1,508.3,84.9,503.3,81.5z M424.5,99.6c-7.7,9.1-13.1,19.2-17.1,30.2
												c-1.9,5.1-4,10.1-5.9,15.2c-0.5,1.1-0.5,2.1-0.8,3.2c0.3,0.3,0.5,0.3,0.8,0.5c4.3-6.4,8.5-12.8,12.8-19.5
												c1.1-1.9,2.7-3.7,3.5-5.6c1.9-4.5,5.9-6.9,9.3-9.9c6.1-5.6,7.7-13.1,8.8-20.8C430.6,93.2,427.7,96.1,424.5,99.6z"/>
										</g>
									</g>
								</g>
							</g>
						</g>
					</g>
				</g>
			</g>
		</g>
	</g>
</g>
</svg>
