<?xml version="1.0" encoding="utf-8"?>
<!-- Generator: Adobe Illustrator 25.2.1, SVG Export Plug-In . SVG Version: 6.00 Build 0)  -->
<svg version="1.1" id="Layer_1" xmlns="http://www.w3.org/2000/svg" xmlns:xlink="http://www.w3.org/1999/xlink" x="0px" y="0px"
	 viewBox="0 0 150 33.4" style="enable-background:new 0 0 150 33.4;" xml:space="preserve">
<style type="text/css">
	.st0{fill:#E92628;}
	.st1{fill:#FFFFFF;}
</style>
<g>
	<path class="st0" d="M23.9,33.4c-5.9-0.3-11.7-0.6-17.5-1c-2.8-0.2-4.8-1.8-5.4-4.6c-1.2-5.3-1.1-10.6-0.8-16
		C0.3,9.7,0.5,7.5,1,5.4c0.6-2.8,2.6-4.6,5.5-4.7C13.3,0.4,20.1,0,26.9,0c4.8,0,9.5,0.4,14.3,0.7c3,0.2,5,2,5.6,4.9
		c1.1,5.5,1.1,11,0.7,16.6c-0.1,1.8-0.4,3.6-0.7,5.3c-0.5,2.8-2.5,4.6-5.3,4.8C35.6,32.8,29.7,33,23.9,33.4z M31.6,16.5
		c-4.3-2.5-8.4-4.8-12.5-7.2c0,4.9,0,9.5,0,14.4C23.3,21.3,27.3,19,31.6,16.5z"/>
	<path class="st1" d="M122.3,30.6c0-9.7,0-19.4,0-29.3c1.4,0,2.8,0,4.3,0c0,3.5,0,6.9,0,10.1c1.3-0.7,2.5-1.6,3.9-1.9
		c1.9-0.4,3.3,0.6,4,2.4c0.3,0.7,0.5,1.4,0.5,2.2c0,4,0.1,8-0.1,12c-0.1,2-0.7,3.9-2.9,4.7c-2.2,0.8-3.9-0.2-5.3-1.8
		C125.8,31,125.6,31.1,122.3,30.6z M126.6,20.6c0,1.9-0.1,3.7,0.1,5.6c0,0.6,0.8,1.4,1.3,1.5c0.6,0.1,1.5-0.3,2-0.8
		c0.4-0.4,0.5-1.3,0.5-1.9c0-3.1,0-6.2,0-9.4c0-0.6-0.1-1.2-0.3-1.7c-0.5-1.2-1.5-1.5-2.4-0.6c-0.5,0.5-1,1.4-1,2.2
		C126.5,17.1,126.6,18.8,126.6,20.6z"/>
	<path class="st1" d="M111.2,10.1c0,0.7,0,1.4,0,2.1c0,4.7,0,9.4,0.1,14.1c0,0.6,0.8,1.5,1.3,1.5c0.9,0.1,1.9-0.5,1.9-1.7
		c0-0.4,0-0.7,0-1.1c0-4.4,0-8.8,0-13.2c0-0.6,0-1.1,0-1.8c1.6,0,3.1,0,4.6,0c0,6.9,0,13.7,0,20.7c-1.1,0-2.3,0-3.5,0
		c-0.2-0.7-0.3-1.5-0.4-2c-1.2,0.8-2.2,1.8-3.5,2.2c-2.4,0.9-4.3-0.4-4.9-2.8c-0.1-0.4-0.2-0.8-0.2-1.2c0-5.6,0-11.1,0-16.8
		C108.1,10.1,109.6,10.1,111.2,10.1z"/>
	<path class="st1" d="M94.9,30.7c-1.2,0-2.3,0-3.4,0c-0.2-0.8-0.4-1.5-0.5-2c-1.1,0.7-2.2,1.8-3.4,2.2c-2.4,0.9-4.3-0.3-4.9-2.8
		c-0.1-0.4-0.2-0.8-0.2-1.2c0-5.5,0-10.9,0-16.4c0-0.1,0.1-0.3,0.2-0.5c1.4,0,2.7,0,4.3,0c0,0.6,0.1,1.1,0.1,1.7c0,4.2,0,8.5,0,12.7
		c0,0.5,0,1,0,1.4c0.2,0.9,0.1,2.1,1.5,2c1.2-0.1,2-0.8,1.9-2.2c0-4.6,0-9.1,0-13.7c0-0.6,0-1.2,0-1.9c1.5,0,3,0,4.5,0
		C94.9,17,94.9,23.8,94.9,30.7z"/>
	<path class="st1" d="M80,20.5c-0.2,2-0.3,4.2-0.8,6.3c-0.7,3.1-2.9,4.5-6.4,4.3c-3.2-0.2-5.3-1.7-5.5-4.8c-0.3-3.9-0.3-7.8,0-11.7
		c0.2-3.3,2.5-4.9,5.9-5.1c3.4-0.1,5.5,1.3,6.2,4.6C79.7,16.2,79.8,18.3,80,20.5z M71.6,20.3L71.6,20.3c0,1.2,0,2.3,0,3.5
		c0,0.4,0,0.7,0,1.1c0.1,2.1,0.7,3.2,1.8,3c1.8-0.3,1.7-1.8,1.7-3.1c0.1-3,0-5.9,0-8.9c0-0.7-0.1-1.4-0.4-2
		c-0.3-0.5-0.9-1.1-1.5-1.1c-0.4,0-1,0.6-1.3,1.1c-0.3,0.5-0.4,1.2-0.4,1.8C71.5,17.3,71.6,18.8,71.6,20.3z"/>
	<path class="st1" d="M52.7,2.3c1.5,0,2.9,0,4.4,0c0.5,2.4,1,4.7,1.5,7c0.5,2.2,1,4.5,1.7,6.7c1-4.6,2-9.1,3-13.7c1.5,0,2.9,0,4.5,0
		c-0.4,1.5-0.8,3-1.2,4.4c-0.9,3.2-1.7,6.3-2.7,9.4c-1.2,3.7-1.7,7.5-1.5,11.4c0.1,1,0,2,0,3.1c-1.6,0-3,0-4.6,0
		c0-1.7-0.1-3.3,0-4.9c0.4-4.1-1.1-7.8-2.1-11.6c-0.9-3.5-2-7-3-10.5C52.8,3.2,52.8,2.8,52.7,2.3z"/>
	<path class="st1" d="M141.8,21.8c0.1,1.7,0.2,3.1,0.4,4.6c0.1,0.9,0.5,1.6,1.6,1.6c1,0,1.5-0.6,1.7-1.5c0.1-0.6,0.2-1.2,0.4-2
		c1.2,0.1,2.5,0.2,3.7,0.3c0.4,3.3-0.9,5.4-3.8,6.1c-3.6,0.9-6.6-0.2-7.5-3.2c-1.4-4.9-1.4-9.8,0-14.7c0.8-2.6,3.2-3.7,6.4-3.4
		c2.8,0.3,4.4,1.7,4.8,4.5c0.3,2.5,0.3,5.1,0.5,7.8C147.2,21.8,144.7,21.8,141.8,21.8z M145.3,19c0-1.8,0.1-3.4-0.1-4.9
		c-0.1-0.5-0.9-1.3-1.4-1.3c-0.5,0-1.5,0.6-1.6,1.1c-0.3,1.7-0.3,3.4-0.5,5.2C143.2,19,144.2,19,145.3,19z"/>
	<path class="st1" d="M98.7,5.9c-1.7,0-3.2,0-4.7,0c0-1.3,0-2.3,0-3.6c4.5,0,9.1,0,13.7,0c0,1.1,0,2.2,0,3.5c-1.4,0-2.9,0-4.5,0
		c0,8.4,0,16.5,0,24.8c-1.5,0-2.9,0-4.4,0C98.7,22.6,98.7,14.4,98.7,5.9z"/>
</g>
</svg>
