<?xml version="1.0" encoding="utf-8"?>
<!-- Generator: Adobe Illustrator 25.4.1, SVG Export Plug-In . SVG Version: 6.00 Build 0)  -->
<svg version="1.1" id="Logo" xmlns="http://www.w3.org/2000/svg" xmlns:xlink="http://www.w3.org/1999/xlink" x="0px" y="0px"
	 viewBox="0 0 436.5 436.5" style="enable-background:new 0 0 436.5 436.5;" xml:space="preserve">
<style type="text/css">
	.st0{display:none;}
	.st1{display:inline;}
	.st2{fill:#FF0000;stroke:#FF0000;stroke-width:2;stroke-miterlimit:10;}
	.st3{fill:#FF0000;}
	.st4{fill:none;}
	.st5{fill:#FFFFFF;}
</style>
<g class="st0">
	<rect x="-10.5" y="106.3" class="st1" width="452.5" height="212.7"/>
</g>
<g>
	<g>
		<path class="st2" d="M63.1,232.8l3.4-0.1l0.2,1.2l-0.1,1.3H65l-0.4-0.1l-1.1-0.1h-1.1l-0.2,1.2l0.1,0.6l-0.1,2c0,0.6,0,1,0,1.1
			c0,0.1,0,0.2,0,0.3c0,0.2,0,0.3,0,0.3v0.5v2.1l-0.3,1.7l0,0l0.4,0.5v5.2l0.3,2l-1.1,0.4l-1,0.1l-1.9-0.2v-2.1l0.5-1.7l-0.3-0.3
			l0.2-3.9l0.2-5.6l-0.2-1.3l0.1-1.8l-0.2-1.1l-0.8-0.1l-0.2,0.1c-0.2,0.1-0.4,0.1-0.6,0.1l-2.2,0.1l-0.4-0.3l0.1-2.3l3.5,0.1
			l0.7,0.2c0.1,0,0.2,0,0.4-0.1s0.3-0.1,0.4-0.1c0.4,0,0.9,0,1.5,0L63.1,232.8z"/>
		<path class="st2" d="M69.5,248.5l0.3-3.8l-0.3-3.1l0.1-2.7l-0.3-1.7l-0.1-1.8l0.1-0.6l-0.3-1.7l0.9-0.4L73,233l-0.1,2l-0.2,1.7
			l-0.4,0.5l0.4,0.2l-0.1,1.8l0.3,2.7H73l1.5-0.4l0.6,0.2l0.4-0.4l1.5-0.5l0.7-0.2l0.4-0.1l0.1-0.7l-0.1-2.5l-0.1-2.5l-0.2-1.1
			l0.5-0.8h1.3l2.1,0.1l-0.1,1.4l-0.2,1.6l0,0v1.1l-0.4,0.4l0.3,0.8l-0.2,2.6l0.1,1.2l0.1,0.6l0.1,5l0.1,3.5l0.3,0.7l0.1,1.5
			l-1.3,0.1h-2.1l-0.5-1l0.3-3.1l0.4-0.2l-0.5-0.4l0.1-4.3l-0.1-0.4v-0.5l-2.1,0.4l0,0l-2.8,0.9l-0.2,4.8v0.1l0.2,1.5l0.1,1.2v1
			l-1.5,0.1l-2.3-0.2l0.1-1.9l0.6-0.5l-0.5-0.4L69.5,248.5z"/>
		<path class="st2" d="M95.7,235.4H94l-0.9-0.2H93l-0.5,0.1l-2-0.1h-0.3v0.3l-0.1,0.7v2.7l-0.2,0.8l-0.4,0.6l0.4,0.2l0.1,1.1
			l1.3,0.1l1.4-0.1l1.9-0.1l0.5,0.7l-0.2,0.8l-0.1,1.1L93,244l-2.3-0.1h-0.6l-0.1,2.9l0.2,0.8l-0.1,0.2v0.1l0.1,2.7l0.3,0.1l0.3,0.1
			h2.9l0.9-0.2h1.8l-0.1,1.4l-0.1,1l-0.8,0.3H93l-2.1-0.2h-1.3l-0.3,0.1h-2.7l-0.2-1.1l0.2-1.9v-0.3v-1.3l0.4-0.7l-0.3-0.3V247v-1.5
			l0.1-0.2l-0.3-2.7l0.1-1v-2v-2.2V236l0.4-0.5l-0.4-0.4l-0.2-2l1.7-0.2h2.1l0.5,0.2l1.4-0.2h3.6v1.1L95.7,235.4z"/>
	</g>
</g>
<path class="st3" d="M0,287.5c0,0,35.4,0.5,41.3,0.4s6.2,2.4,9.7,2.4s6.8,0,6.8,0s1.4,1,3-0.5c1.5-1.5,1.5-1.8,1.5-1.8
	s9.8,0,13.3-0.3s11.9-0.6,14.1-0.3c2.1,0.4,23.9,0.7,26.9,0.2c3-0.6,23.1-0.6,24.8-1.3c1.7-0.8,2.4-1.2,2.4-1.2s126.1,0.8,124.3,0
	s-32.7-2.8-53.2-3.3s-70.5,0.5-73.5,0s-12.3-0.8-20,1c-7.7,1.8-28.3-1.9-39.7-0.4c-8.7,1.2-11.1-0.4-24.3,0.4S34.8,284,34.8,284
	s-5.4,0.2-8.2,0c-2.7-0.2-4.6,0-4.6,0s2.2,1.4-2,1.7c-4.1,0.4-5.9-1.1-9.8-0.6C6.3,285.5,0,287.5,0,287.5z"/>
<path class="st3" d="M209.4,226.4c0,0.1,0,0.2,0,0.2C210.3,227.1,210.3,227,209.4,226.4 M196.8,215.7c0,0.1,0.1,0.1,0.1,0.1
	C197.8,216.4,197.7,216.3,196.8,215.7 M193.6,220c0,0.1,0,0.2,0.1,0.2C194.5,220.7,194.5,220.7,193.6,220 M195.5,216
	c0,0.1,0,0.1,0.1,0.1C196.5,216.3,196.5,216.3,195.5,216 M210.2,221.7c0.9,0.5,0.9,0.4-0.1-0.2C210.1,221.7,210.1,221.7,210.2,221.7
	 M210.6,220c-0.1,0.4,0,0.5,0.2,0.5l0.6-0.1C211.9,218.8,211.6,218.7,210.6,220 M207.1,223.4v0.4c1-0.6,1-0.9,0-0.9
	C207.1,223.1,207.1,223.2,207.1,223.4 M206.2,222.8c0.8,0.8,0.8,0.8-0.1-0.2C206.1,222.7,206.1,222.8,206.2,222.8 M245.6,235
	c-0.1,0-0.2,0-0.3,0v0.2C245.4,235.2,245.5,235.2,245.6,235L245.6,235 M217.9,226c0.2-0.9,0-1.4-0.7-1.5c0,0.3,0,0.7,0.1,1h0.1
	c0,2,0.1,2.3,0.3,0.8c0-0.1,0-0.2,0-0.3C217.9,226,217.9,226,217.9,226 M218.6,221.6c0.8,0.5,0.8,0.5-0.1-0.2
	C218.5,221.5,218.5,221.6,218.6,221.6 M216.7,221.9c1.1,0.1,1-0.2-0.3-0.9C216.4,221.5,216.5,221.8,216.7,221.9 M212.5,215.7
	c0,0.3,0.1,0.5,0.1,0.5C213.9,216.5,213.9,216.3,212.5,215.7 M238.8,225.5c0,0.1,0,0.2,0.1,0.1C239.7,226.2,239.7,226.2,238.8,225.5
	 M239.6,227.3c0.3,0.5,0.6,1,1,1.3l0.3,0.3C242,228.2,241.6,227.6,239.6,227.3 M240.1,230.3c0,0.1,0,0.1,0.1,0.2
	C241.3,231.1,241.3,231,240.1,230.3 M209.7,175.9c-0.1,0-0.1,0-0.1,0.1c-0.6,1.1-1.4,2-2.3,2.7c0,0.1,0,0.2,0,0.3
	c-0.1,0-0.2,0-0.2,0.1c-0.2,0.2-0.4,0.4-0.6,0.7c0,0.1,0,0.2,0,0.3c0,0.1,0,0.1-0.1,0.1c-0.3,0.1-0.5,0.4-0.7,0.7c0,1,0.4,0.9,1-0.3
	c0,0,0-0.1,0.1-0.2c0.2-0.3,0.4-0.6,0.6-0.8c0,0,0-0.1,0.1-0.2c0.1,0,0.2,0,0.2,0C208.5,178.2,209.2,177.1,209.7,175.9 M209.7,175.4
	c0.4,0.4,1,0.1,1.8-0.8c0.2-0.2,0.1-0.4-0.1-0.6C211,173.4,210.4,173.9,209.7,175.4 M221.3,166.6c-0.2,0.6-0.1,1,0.2,1.2
	C222.6,167.3,222.6,166.9,221.3,166.6 M197.2,209.7c0.9-0.3,0.9-0.4,0-0.2V209.7 M195.9,207.3v0.5C197,206.1,197,205.9,195.9,207.3
	 M193.1,203.3c0.1,0,0.1,0,0.1,0c1.1-2.1,1-2.1-0.4-0.2c0,0.1,0,0.2,0,0.3c-0.1,0-0.1,0-0.1,0.1c-0.2,0.3-0.4,0.5-0.6,0.7
	c0.4,0.3,0.7,0.1,1-0.6C193.1,203.4,193.1,203.4,193.1,203.3 M195.5,201.6l-0.9,1c0.1,0.4,0.3,0.7,0.8,0.7c0.1,0,0.2,0.1,0.3,0
	c0,0.1,0,0.1,0,0.1c1,0.2,1,0.1,0-0.4C195.8,202.4,195.7,202,195.5,201.6 M181.6,214.6c-0.1,0-0.1,0-0.2,0c-0.5,0.2-1.1,0.5-1.6,0.7
	c0.7,0.6,1.4,0.4,2-0.6c0.1-0.1,0.1-0.2,0.1-0.2l0.5-0.5c0.9-0.6,0.7-0.5-0.7,0.2C181.6,214.4,181.6,214.5,181.6,214.6 M175.1,208.1
	v0.4C175.9,208.5,175.9,208.4,175.1,208.1 M183.2,201.9L183.2,201.9C184.5,201.6,184.5,201.6,183.2,201.9 M180.1,204.4
	C181.6,203.9,181.6,203.8,180.1,204.4L180.1,204.4 M176.3,194.3c1,1.1,1,1-0.1-0.2C176.2,194.2,176.3,194.3,176.3,194.3
	 M183.5,186.2L183.5,186.2C185.1,185.6,185.1,185.6,183.5,186.2 M196.7,186.2L196.7,186.2C197.5,186,197.5,186,196.7,186.2
	 M186.3,166.8v0.4c0.7,0,0.7-0.4,0-1.2C186.3,166.3,186.3,166.6,186.3,166.8 M176.4,164.6c0,0.1,0,0.2,0.1,0.2
	C177.3,165.6,177.3,165.5,176.4,164.6 M225.6,227.7c0.1-0.6-0.4-1.1-1.4-1.3c0,0.5,0.1,1,0.2,1.3c0.2,0.3,0.4,0.5,0.7,0.7
	c0.2,0.1,0.3,0.1,0.3,0C225.5,228.3,225.6,228,225.6,227.7 M220.5,215c0.1,0.1,0.2,0.1,0.3,0.2c1,0.7,1,0.7,0-0.1
	C220.7,215,220.6,215,220.5,215C220.4,214.9,220.5,215,220.5,215 M226.7,184.9c0.3,0,0.5,0,0.7,0h0.1
	C227.3,184.9,227,184.8,226.7,184.9h-0.1H226.7C226.6,184.9,226.7,184.9,226.7,184.9 M215.2,205C216,205.5,216,205.5,215.2,205
	C215.2,204.9,215.2,204.9,215.2,205 M214.2,204.6c0,0.1,0,0.1,0,0.2c0.5,1.5,1.1,2.9,2.1,4c0-0.1,0-0.1-0.1-0.2
	C215.7,207.1,215,205.8,214.2,204.6 M227.8,179.5c-0.1,0-0.1,0-0.2,0.1c-0.4,0.3-0.9,0.5-1.3,0.7c0.3,0.2,0.8,0.2,1.5,0
	c0.1-0.1,0.2-0.1,0.2-0.1c0.7,0.1,1-0.1,0.9-0.7c0,0,0,0-0.1,0c0.2-0.2,0.4-0.4,0.7-0.4c0.2,0,0.3,0,0.4-0.1c0.3,0,0.4-0.2,0.2-0.4
	l-0.1-0.1l0,0h-0.1c-0.3-0.1-0.9,0.1-1.9,0.7c0,0.1,0,0.2,0,0.3C228,179.4,227.9,179.4,227.8,179.5 M223.8,218.3
	c0,0.1,0,0.1,0.1,0.2C225.2,219.9,225.2,219.8,223.8,218.3 M222.8,204.2C222.8,204.3,222.8,204.3,222.8,204.2
	C224.6,205,224.6,205,222.8,204.2 M225,199.8c0.1-0.7-0.1-1.2-0.5-1.5c-1-0.5-1.5-0.3-1.7,0.6c-0.2,1.1-0.7,1.5-1.6,1.2
	c0,0.1,0,0.1,0.1,0.1C223.1,201.7,224.3,201.6,225,199.8 M226.8,199.1c1.4,0,1.4-0.1,0-0.4V199.1 M227.3,194.9
	C227.3,195,227.3,195.1,227.3,194.9C228.2,195.6,228.2,195.5,227.3,194.9 M220.4,196.8v0.4C221.4,196.8,221.4,196.7,220.4,196.8
	 M223.7,181.5L223.7,181.5C226,180.8,226,180.8,223.7,181.5 M222.2,179.5c0,0.1,0,0.2,0.1,0.2C223.1,180.2,223.1,180.2,222.2,179.5
	 M219.6,185c0.1,0,0.1-0.1,0.2-0.1c0,0.1,0,0.2,0,0.3c0,0.1-0.1,0.1-0.1,0.2h-0.1c0.1,2.3,1.1,2.8,2.8,1.4c0.1-0.1,0.2-0.3,0.2-0.7
	c-0.1-0.8-0.6-1.2-1.4-1.2c0-0.1-0.1-0.2-0.1-0.2c-0.1-0.1-0.1-0.2-0.2-0.3c0-0.1,0-0.2,0-0.3c0.3-0.2,0.7-0.4,0.9-0.6
	c0,0,0-0.1,0-0.2c0.6-0.2,1.1-0.5,1.4-1l0.2-0.3c-0.5-0.3-1.1,0-1.8,0.8c0,0.1,0,0.2,0,0.3c-0.1,0-0.2,0-0.2,0.1
	c-1,0.6-1.9,1.3-2.7,2C218.7,185.7,219.1,185.7,219.6,185 M218.2,177.3v0.2C220.1,177.3,220.1,177.3,218.2,177.3 M221.4,175
	c0-0.1,0-0.2-0.1-0.2c-0.4-3.3-1.7-3.8-3.8-1.8c0,0.1,0,0.2,0,0.3C217.9,175.5,219.2,176.1,221.4,175 M220.4,176.7
	C221.6,176.6,221.6,176.6,220.4,176.7L220.4,176.7 M192.4,207.3c0,0.3,0.1,0.7,0.2,1c0.2,0.8,0.6,0.9,1.1,0.3c0.3-0.4,0.5-0.7,0.6-1
	c0.2-0.5,0-0.7-0.7-0.6C193.2,207.1,192.9,207.2,192.4,207.3 M191.9,205.1l0.1-0.3c-0.5,0.2-1,0.6-1.7,1.2c-0.2,0.2-0.4,0.3-0.7,0.5
	c0,0.1,0,0.1,0.1,0.1c0.4,0.1,0.9-0.1,1.4-0.6C191.3,205.9,191.6,205.5,191.9,205.1 M194.6,185.2c0,0.2,0,0.4,0.1,0.4
	c0.2,0,0.4,0.1,0.6,0.1c1,0.2,0.9,0.1-0.1-0.3C195,185.4,194.9,185.3,194.6,185.2 M183.6,176.3c0-0.1,0-0.2,0-0.3
	c-0.2-1-0.7-1.6-1.5-2c0.3,1,0.7,1.8,1.4,2.4c0,0.1,0.1,0.1,0.2,0.1c0.4,0.7,0.7,1.4,1,2.2c0,0.1,0,0.1,0,0.2c-0.1,0-0.1,0-0.2,0
	c-1.5-2.5-4-4-7.5-4.4c0,1.2,0.3,2,0.9,2.5c0.1,0.1,0.1,0.1,0.2,0.2c0,0.1,0.1,0.1,0.2,0.1c0.6-0.5,1.3-0.7,2.1-0.6
	c0.7,0.1,1.4,0.4,2.2,0.9c0,0.1,0.1,0.1,0.1,0.2c0.4,0.7,0.8,1.4,1.2,2c0,0.1,0,0.1,0,0.2c0.3,0.4,0.6,0.8,0.9,1.2c0,0,0.1,0,0.2,0
	c0,0.3,0.1,0.5,0.1,0.7c0,0,0.1,0,0.2,0c-0.1,0.6,0,0.9,0.3,1.1c0.1,0,0.1,0.1,0.2,0.1v0.1c0,0.1,0,0.2,0,0.3c0,0.1,0,0.2,0,0.2l0,0
	c0.1,0.3-0.1,0.3-0.5,0.3v-0.1c-0.5-0.1-1-0.3-1.6-0.6c0-0.1,0-0.2,0-0.3c-0.1-0.4-0.4-0.6-1-0.5c-0.2,0.7,0,1.1,0.5,1
	c0.1,0,0.2,0,0.3,0c0.3,0.1,0.5,0.3,0.7,0.7c0,0,0,0,0.1,0c0.3,0.7,0.8,1.2,1.4,1.7c0.1,0.1,0.2,0.1,0.2,0.1
	c0.2,0.3,0.4,0.5,0.7,0.7c0.3,0.1,0.5,0.2,0.8,0.3c0.1,0.1,0.2,0.1,0.3,0c0.6,1.2,1.6,2.1,2.9,2.7c0.2,0.1,0.3,0.1,0.4,0.2
	c0,0,0.1,0.1,0,0.2c-0.1,1.4,0,2.5,0.5,3.3c0.1,0.1,0.1,0.2,0.1,0.2c-1,1.7-0.9,3.2,0.4,4.4c0.1,0.1,0.1,0.1,0.1,0.2
	c-0.1,0-0.2,0-0.2,0c-0.6-0.8-1.1-0.6-1.6,0.6c0-0.1,0-0.2-0.1-0.2c-0.1-0.5-0.4-0.6-0.7-0.3c-0.1,0.4,0,0.7,0.3,0.8
	c0.1,0,0.2,0,0.3,0s0.1,0,0.2,0.1c0.9,0.6,0.6,1.1-0.9,1.7c0,0.1,0,0.2,0,0.3c-0.3,0-0.5,0-0.5-0.1c-0.4-2-1.4-2.4-3.1-1.4
	c0.5,2.9,1.7,3.4,3.8,1.7c0,0,0-0.1,0.1-0.2c1-0.4,2-0.9,2.8-1.5c0.1,0,0.1-0.1,0.2-0.1c0.1,0,0.2,0,0.3,0c0.3,0.4,0.8,0.7,1.5,0.8
	c0.1,0,0.2,0,0.3,0h0.2c0.1,0.3-0.1,0.4-0.4,0.5c0.1,0.5,0.5,0.4,1.1-0.2h0.1c0.7,1,1.4,1.5,2.1,1.7c0.1,0,0.2,0,0.3,0
	c-0.1,1.3,0.1,1.9,0.5,1.8c0.1,0,0.2,0,0.3,0c0,0.1,0,0.2,0,0.3c0,0.8-0.2,1.4-0.5,2c0,0.1,0,0.2,0,0.3s0,0.2,0.1,0.2
	c0.1,0.4,0,0.5-0.3,0.5c0.2,1.5,0.3,1.3,0.5-0.5c0-0.1,0-0.2,0-0.3c0.8-0.3,1.2,0.6,1,2.8c0,0,0.1,0.1,0.3,0.3
	c0.3,0.3,0.4,0.2,0.3-0.1c0.1,0,0.2,0,0.3,0s0.2,0,0.3,0c0.3,0.4,0.5,0.3,0.7-0.3c0-0.1,0-0.2,0-0.3c0.1,0,0.1,0,0.1,0.1
	c0.7,1.3,0.5,2.4-0.3,3.2c0,0.1,0,0.2,0,0.3c-0.1,0-0.2,0-0.2,0.1c-0.6,0.3-1.5,0.1-2.8-0.5c0,0.5,0.1,0.9,0.4,1.2
	c0,0,0.1,0,0.2,0.1c0,0.1,0,0.1-0.1,0.2c0,0-0.1,0.1-0.2,0.1c0.2,1,0.4,1,0.7,0.2c0.1-0.1,0.1-0.2,0.1-0.2c0.2,0.8,0.7,1,1.3,0.6
	c0.7-0.5,1.7-0.7,3-0.7c1-0.4,1.9-0.3,2.6,0.3V214c0.1-0.6-0.3-0.9-1.1-0.9c0-0.1,0-0.2-0.1-0.2c-0.1-0.1-0.2-0.2-0.4-0.3
	c0-0.1,0-0.1,0-0.2c-0.2-0.4-0.4-0.8-0.7-1.1c0-0.1,0-0.2,0-0.3c0-0.4,0-0.8,0-1.3c0.2-0.1,0.3-0.2,0.4-0.3c0,0,0-0.1,0.1-0.2
	c1.2-0.7,2.4-0.3,3.6,1.2c1,1.1,1.9,2.2,3,3.3c0.1,0.9,0.2,1.7,0.3,2.5c0,0.1,0,0.1,0.1,0.2h-0.1c0,0.6-0.2,0.9-0.7,1
	c0.6,1.8,0.9,1.6,0.8-0.5c0-0.1,0-0.2,0-0.3c0.7-0.9,0.9-2.1,0.6-3.5h0.1c0.5,0.8,1.1,1.4,1.6,1.9v-0.1c0.3-0.3,0.6-0.3,0.7,0
	c0,0.1,0.1,0.1,0.1,0.2c-0.1,0-0.2,0-0.3,0c-0.1,0.6,0.1,0.9,0.3,1.2c0.1,0.1,0.2,0.1,0.2,0.1c0.2,0.4,0.3,0.8,0.5,1.2
	c0,0.1,0,0.2,0.1,0.3c0.3,1.5,0.8,2.4,1.6,2.6v-0.1c0.6-1.3,0.3-2.1-1-2.5c-0.1,0-0.2,0-0.2,0.1c0-0.1,0-0.2-0.1-0.3
	c-0.1-0.4-0.2-0.8-0.2-1.2c0-0.1,0-0.2,0-0.2c0.4-0.4,0.3-0.7-0.1-1.1c0-0.1,0-0.2,0-0.3s0-0.2,0-0.3c0.1,0,0.2,0,0.3,0
	c1,0.4,1.5,0.9,1.4,1.5c0,0.4,0.2,0.8,0.5,1.1c1.7,1.2,3.1,2.8,4.2,4.6c0.2,0,0.4,0,0.6,0c1.2,0.1,2.3,0.5,3.3,1.2c0,0,0.1,0,0.2,0
	c0.7,1.6,1.4,3.1,2.2,4.4c0.2,0.4,0.5,0.7,0.7,1.1c0.1,0.2,0.3,0.4,0.5,0.6c0.5-0.2,0.8-0.8,0.8-1.8v-0.1c0-0.3,0-0.7,0-1.2
	c-0.7-1.7-1.6-2.9-2.6-3.7l0,0c-0.5,0.1-1,0-1.5-0.3c0-0.1,0-0.2,0-0.3c0-0.4-0.3-0.5-0.8-0.5c0-0.1,0-0.1,0-0.1
	c0-0.1-0.1-0.1-0.2-0.1c0-0.1,0-0.1,0-0.2c-0.5-0.8-1.1-1.6-1.7-2.2c0-0.1,0-0.2-0.1-0.3c-0.4-0.5-0.8-1-1.4-1.2
	c0-0.1,0-0.1-0.1-0.1c0,0,0,0-0.1,0c-1.4-0.9-2.7-2-3.8-3.4c0-0.1,0-0.2,0-0.2c-2-3-4.1-6-6.2-8.8c1.3-0.4,2.3-1,3-1.9
	c0,0,0-0.1,0.1-0.2c1.5-0.5,2.6-1.3,3.5-2.4c0-0.1,0-0.1,0-0.2c0.1-0.1,0.2-0.2,0.3-0.2s0.1,0,0.2-0.1c0,0.1,0,0.1,0.1,0.1
	c0.3,0.1,0.6,0.2,0.8,0.3c0.7,0.4,1.4,1,2,1.8c0.1-0.1,0.2-0.2,0.2-0.2c-0.3-0.8-1-1.5-2.3-2.1c-0.2-0.1-0.5-0.2-0.7-0.3
	c0-0.1,0-0.2,0.1-0.2c0.6-0.7,0.6-1.2-0.1-1.3c0-0.1,0-0.2,0-0.3c0-0.1,0-0.1,0.1-0.2c0.4-0.3,0.3-0.8-0.3-1.4c0-0.1,0-0.1,0-0.2
	c-0.5-0.9-0.9-1.8-1.3-2.9c0.5,0,1.1,0.1,1.6,0.1c0.7,0.1,1.4,0.3,2,0.6c0.1,0,0.2,0,0.3,0c1-1.2,0.6-2.2-1-3.1l-0.1-0.1
	c0-0.1,0-0.2,0-0.3c0.7-0.4,0.9-0.5,0.5-0.5c-0.1,0-0.2,0-0.3,0c0-0.1,0-0.2-0.1-0.2c-0.1-0.7-0.3-0.7-0.7,0c0,0.1,0,0.2,0,0.3
	c0,0.1,0,0.2,0,0.3c-0.1,0-0.2,0-0.3,0c-0.3-0.1-0.6-0.1-1-0.2c-1.1-0.2-2.3-0.4-3.6-0.4c0.6-0.4,1.2-0.9,1.7-1.4c0,0,0-0.1,0.1-0.2
	c0.1,0,0.2,0,0.2-0.1c0.4-0.2,0.9-0.4,1.3-0.6c0.6-0.3,1.1-0.7,1.5-1.1c-0.1,0-0.2,0-0.3,0.1c-0.4,0.2-0.9,0.4-1.3,0.6
	c-0.6,0.3-1.3,0.6-1.9,0.9c0,0.1,0,0.2,0,0.3c-0.1,0-0.2,0-0.1,0c-0.3,0.4-0.8,0.8-1.4,1c0,0.1,0,0.2,0,0.3
	c-0.8,0.7-1.2,0.6-1.3-0.2l0,0c0-0.9-0.2-1.5-0.8-2c1.9-1.4,2.8-3.4,2.7-5.9c0-0.1,0-0.2,0-0.3c0.1,0,0.2-0.1,0.2-0.1
	c1.4-1.5,1.3-1.6-0.2-0.4c0,0.1,0,0.2,0,0.3c-0.1,0-0.2,0-0.3,0s-0.2,0-0.3,0c-0.6,0-0.9-0.3-1-0.8c0-0.1,0-0.1,0-0.1
	c-0.3-0.3-0.3-0.7-0.2-1.4c0.8-0.9,1.5-1.9,2.1-3l0,0h0.1c0-1.1,0.3-2,0.8-2.5c0,0,0.1-0.1,0.2-0.1c0.1-0.3,0.2-0.6,0.2-1
	c0-0.2,0-0.4,0-0.6c0-0.1,0-0.2,0-0.3c0.9-1,1.6-2.2,2.2-3.6c0.1-0.1,0.1-0.2,0-0.3h0.1c0.2-0.9,0.1-1.6-0.1-2.1
	c-0.8,0.2-1.3,0.8-1.6,1.8c-0.1,0.7-0.4,1.4-0.8,2.2c-0.7,1.2-1.3,2.5-1.8,3.9c-0.7,2-1.6,3.4-2.6,4.3c-0.1,0-0.1,0-0.2,0
	c-1.2,2.5-2.7,4.6-4.5,6.4c0,0.1,0,0.2,0,0.3c0,1.7-0.5,2.1-1.5,1.3h-0.1c-0.2-1.9-1.2-3.4-3-4.3c-0.1,0-0.1,0-0.1,0.1
	c-0.5,0.9-0.2,1.5,0.9,1.7c-0.8,0.5-1.3,1.3-1.4,2.4c-0.1,0.7-0.3,1-0.6,1c-0.8,0.1-1.6,0-2.5-0.3c0,0.1,0,0.2,0,0.3
	c-0.1,0-0.1,0-0.2-0.1c-0.3-0.4-0.7-0.6-1.2-0.7c0.2,0.4,0.5,0.7,0.9,0.9c0.1,0,0.1,0,0.2,0.1c0,0.3,0.1,0.6,0.3,0.7
	c0.2,0.2,0.3,0.4,0.3,0.5c-0.2,1.6-1.5,2.8-3.9,3.4c0-0.1,0-0.2,0-0.3c0.2-0.8,0.2-1.6-0.1-2.2c-0.3-0.8-1-1.5-2-2.1
	c0-0.1,0-0.2-0.1-0.2c-0.3-0.9-0.7-1.8-1-2.7c0-0.1,0-0.2-0.1-0.3c-0.2-0.6-0.4-1.2-0.7-1.7c0-0.1,0-0.2,0-0.3
	c0.1-0.7-0.4-1.2-1.5-1.5c0-0.1,0-0.1-0.1-0.1c-0.4-0.3-0.8-0.5-1.2-0.6c0,0.8,0.3,1.1,1,1.1c0.1,0,0.1-0.1,0.2-0.1
	c0.4,0.5,0.8,0.9,1.2,1.3c0,0.1,0.1,0.1,0.1,0.2c0.1,0.9,0.3,1.8,0.6,2.5c0,0,0.1,0.1,0.2,0.1c0.1,1,0.3,1.8,0.7,2.5
	c0,0.1,0.1,0.1,0.1,0.2c0,0.1,0,0.2,0,0.3c0,0.5-0.3,0.7-1,0.6c-0.1,0-0.2,0-0.3,0c-0.4-0.3-0.8-0.6-1-1c0-0.1-0.1-0.2-0.1-0.2
	c-0.3-0.4-0.6-0.9-0.9-1.3c0-0.1,0-0.2,0-0.1c-0.4-0.2-0.6-0.5-0.5-1.1c0-0.1,0-0.1,0-0.2c-0.4-0.8-0.9-1.5-1.5-2.1
	c0-0.1,0-0.2,0-0.3c-0.1-0.3-0.2-0.4-0.5-0.5c0-0.1,0-0.1,0-0.2c-0.3-0.4-0.6-0.8-1-1.1c0-0.1,0-0.1,0-0.2
	C184.7,177.7,184.2,176.9,183.6,176.3 M190.9,220.6c0.5,0.8,0.5,0.7-0.1-0.2C190.8,220.4,190.9,220.5,190.9,220.6 M190.7,210.2
	c0.2,0.5,0.5,0.3,0.8-0.6C191.8,208.6,191.5,208.7,190.7,210.2 M192.5,210.6c0,0.1,0,0.2,0,0.2C193.3,211.3,193.3,211.2,192.5,210.6
	 M191.3,216L191.3,216C192.4,215.3,192.4,215.2,191.3,216 M193,215c0,0.1,0,0.1,0.1,0.2C193.9,215.6,193.9,215.5,193,215
	 M186.7,216.8C186.7,216.9,186.7,216.9,186.7,216.8C187.6,217.5,187.6,217.5,186.7,216.8 M185.9,212.1
	C186.7,212.6,186.7,212.5,185.9,212.1C185.9,212.1,185.9,212.2,185.9,212.1 M188.1,208.2L188.1,208.2
	C189.4,207.9,189.4,207.9,188.1,208.2 M169.9,179l0.3,0.3C171.2,179.2,171.1,179.1,169.9,179 M175.2,175.1c0,0.5,0.3,0.8,0.7,0.7
	C177.3,175.8,177,175.6,175.2,175.1 M174.3,176.9c1.2,0,1-0.3-0.6-0.7C173.7,176.6,173.9,176.9,174.3,176.9 M174.2,174.9
	c1.3-0.1,1.1-0.4-0.5-0.8C173.6,174.7,173.8,175,174.2,174.9 M193.3,181.7c0,0.1,0.1,0.2,0.1,0.2
	C195.3,183.2,195.3,183.1,193.3,181.7 M185.1,171.2c0,0.1,0,0.1,0,0.2C185.9,171.9,185.9,171.9,185.1,171.2z"/>
<g>
	<path class="st4" d="M173.7,176.2c0,0.5,0.2,0.7,0.6,0.7C175.4,176.8,175.2,176.6,173.7,176.2z"/>
	<path class="st4" d="M175.9,175.9c1.4,0,1.1-0.3-0.7-0.7C175.3,175.7,175.5,175.9,175.9,175.9z"/>
	<path class="st4" d="M71.4,175.9l-0.1-0.2h-0.1c-0.2,0-0.3,0.2-0.4,0.6h0.1C71.2,176.1,71.4,176,71.4,175.9z"/>
	<path class="st4" d="M174.2,174.9c1.3-0.1,1.1-0.4-0.5-0.8C173.6,174.7,173.8,175,174.2,174.9z"/>
	<path class="st4" d="M193.3,181.7c0,0.1,0.1,0.2,0.1,0.2C195.3,183.2,195.3,183.1,193.3,181.7z"/>
	<path class="st4" d="M185.9,212C185.9,212.1,185.9,212.2,185.9,212C186.7,212.6,186.7,212.6,185.9,212z"/>
	<path class="st4" d="M169.9,179l0.3,0.3C171.2,179.2,171.1,179.1,169.9,179z"/>
	<path class="st4" d="M143.4,197.3l-0.2-1.1l-0.8-1.4c0.2,0,0.2-0.1,0.2-0.2v-0.1c-0.2-0.2-0.3-0.3-0.3-0.4
		c-0.1-0.5-0.6-1.7-1.4-3.5h0.1c-0.9-1.9-1.6-2.8-1.9-2.7c-0.1,0.1-0.1,1.3,0,3.9c0,1.4,0,3.1-0.2,5.1l0.1,0.2v0.1
		c-0.1,0.3-0.1,0.8,0,1.4l0.2,0.5c0.1-0.1,0.4,0,0.7,0.1c1.9-0.8,3.1-1.2,3.5-1.3c0,0.1,0.1,0.1,0.2,0.1l-0.1-0.2
		C143.5,197.4,143.5,197.3,143.4,197.3z"/>
	<polygon class="st4" points="180.8,218.8 181,218.9 181,218.8 180.8,218.7 	"/>
	<path class="st4" d="M221.4,175c0-0.1,0-0.2-0.1-0.2c-0.4-3.3-1.7-3.8-3.8-1.8c0,0.1,0,0.2,0,0.3
		C217.9,175.5,219.2,176.1,221.4,175z"/>
	<path class="st4" d="M114.3,213.5c-0.5,0.1-1,0.3-1.5,0.4c-0.1,0-0.2,0-0.2,0.1h-0.1c0,0.1,0,0.2,0,0.4c0.4-0.1,0.8-0.2,1.1-0.3
		c0.1,0,0.1,0,0.2-0.1c0.3-0.1,0.6-0.2,0.8-0.4c0,0,0-0.1,0-0.2C114.5,213.5,114.4,213.5,114.3,213.5z"/>
	<path class="st4" d="M101.4,211.3C101.4,211.2,101.4,211.2,101.4,211.3l-0.1-0.9c0-0.1,0.1-0.1,0.2-0.1l-0.1-0.2l-0.1-1.4
		c0-0.1,0-0.1,0.1-0.1c0-0.8-0.9-1.5-2.7-1.9c-0.1,0-0.2,0-0.2,0.1l-0.8-0.1h-2.4c-0.1,0-0.1,0-0.1,0.1l-0.6-0.1h-0.3
		c-0.8,0-1.4,0.5-1.8,1.5c0.2,1.3,0.2,2.2,0.2,2.9l0.3,5c0,0.6,0,1.1-0.1,1.5c0,0.1,0,0.1,0.1,0.1v0.7c0.1,0,0.1,0,0.1,0
		c0.4-0.1,0.9-0.2,1.3-0.3c0.1,0,0.1-0.1,0.2-0.1c-0.1-0.1-0.1-0.2-0.1-0.3c0-0.1,0-0.2-0.1-0.3c0.2,0,0.3-0.1,0.4-0.1
		s0.2,0,0.2-0.1c0.1-0.1,0.3-0.1,0.4-0.1s0.1,0,0.2,0c0.6-0.5,1.2-0.9,2-1.3c0.1,0,0.1,0,0.2,0v-0.2c-0.5,0.2-0.9,0.1-1.2-0.3
		c-0.1,0-0.1,0-0.2,0.1c-0.1,0-0.1,0-0.2,0.1c0,0.1,0,0.2,0,0.3c-0.6,0.7-1.3,0.7-2-0.1c0.4-0.3,1-0.6,1.6-0.8c0.1,0,0.2,0,0.2-0.1
		c0.4-0.1,0.7-0.2,1.1-0.3c0.1,0,0.1,0,0.2-0.1c0-0.1,0-0.2-0.1-0.3c0.5-0.1,1-0.3,1.5-0.4c0.1,0,0.1,0,0.2,0c0.6-0.4,1.4-0.8,2.2-1
		c0.1,0,0.1,0,0.2,0c0-0.1-0.1-0.2-0.1-0.3h0.1v-0.1c0.1,0,0.1,0,0.1-0.1c-0.1,0-0.1-0.1-0.1-0.2l0.2-0.1L101.4,211.3z"/>
	<path class="st4" d="M113,215.7c-0.1,0-0.1,0-0.2,0s-0.1,0-0.2,0.1l0,0c0,0.3-0.1,0.6-0.1,0.8c0.1,0,0.1,0,0.1,0
		c0.1,0,0.1,0,0.2-0.1c0-0.1-0.1-0.2-0.1-0.3c0.2,0,0.3-0.1,0.4-0.1s0.1,0,0.2-0.1c-0.1-0.1-0.1-0.2-0.1-0.3
		C113.2,215.7,113.1,215.7,113,215.7z"/>
	
		<rect x="226.8" y="193.5" transform="matrix(0.9788 -0.205 0.205 0.9788 -34.8572 50.6352)" class="st4" width="0.3" height="0.1"/>
	<path class="st4" d="M218.2,177.3v0.2C220.1,177.3,220.1,177.3,218.2,177.3z"/>
	<path class="st4" d="M220.4,196.8v0.4C221.4,196.8,221.4,196.7,220.4,196.8z"/>
	<path class="st4" d="M226.8,199.1c1.4,0,1.4-0.1,0-0.4V199.1z"/>
	<path class="st4" d="M229.4,205.2c0.2,0,0.2-0.1,0.2-0.3v-0.1l-0.6,0.1l-0.1,0.2l0.3,0.1L229.4,205.2z"/>
	<path class="st4" d="M227.3,194.9C227.3,195,227.3,195.1,227.3,194.9C228.2,195.6,228.2,195.5,227.3,194.9z"/>
	<path class="st4" d="M222.3,179.7c0.8,0.5,0.8,0.4-0.1-0.2C222.2,179.7,222.2,179.7,222.3,179.7z"/>
	<path class="st4" d="M222.8,198.9c-0.2,1.1-0.7,1.5-1.6,1.2c0,0.1,0,0.1,0.1,0.1c1.7,1.5,3,1.3,3.7-0.5c0.1-0.7-0.1-1.2-0.5-1.5
		C223.5,197.8,223,198,222.8,198.9z"/>
	<path class="st4" d="M220.4,176.6L220.4,176.6C221.6,176.6,221.6,176.6,220.4,176.6z"/>
	<path class="st4" d="M221.3,183.2c-1,0.6-1.9,1.3-2.7,2c0.2,0.6,0.5,0.5,1-0.2c0.1,0,0.1-0.1,0.2-0.1c0,0.1,0,0.2,0,0.3
		c0,0.1-0.1,0.1-0.1,0.2h-0.1c0.1,2.3,1.1,2.8,2.8,1.4c0.1-0.1,0.2-0.3,0.2-0.7c-0.1-0.8-0.6-1.2-1.4-1.2c0-0.1-0.1-0.2-0.1-0.2
		c-0.1-0.1-0.1-0.2-0.2-0.3c0-0.1,0-0.2,0-0.3c0.3-0.2,0.7-0.4,0.9-0.6c0,0,0-0.1,0-0.2c0.6-0.2,1.1-0.5,1.4-1l0.2-0.3
		c-0.5-0.3-1.1,0-1.8,0.8c0,0.1,0,0.2,0,0.3C221.4,183.1,221.3,183.1,221.3,183.2z"/>
	<path class="st4" d="M223.7,181.5L223.7,181.5C226,180.8,226,180.8,223.7,181.5z"/>
	<path class="st4" d="M222.8,204.2C222.8,204.3,222.8,204.3,222.8,204.2C224.6,205,224.6,205,222.8,204.2z"/>
	<path class="st4" d="M223.8,218.5c1.4,1.3,1.3,1.3-0.1-0.2C223.7,218.4,223.8,218.5,223.8,218.5z"/>
	<path class="st4" d="M185.1,171.2c0,0.1,0,0.1,0,0.2C185.9,171.9,185.9,171.9,185.1,171.2z"/>
	<path class="st4" d="M193.1,215.1c0.8,0.5,0.7,0.4-0.1-0.2C193,215,193.1,215.1,193.1,215.1z"/>
	<path class="st4" d="M186.7,216.8C186.7,216.9,186.7,216.9,186.7,216.8C187.6,217.5,187.6,217.5,186.7,216.8z"/>
	<path class="st4" d="M264.8,216.6l5.5-7.5c-0.4-0.8-0.9-1.6-1.3-2.3C267.6,209.8,266.3,213.2,264.8,216.6z"/>
	<path class="st4" d="M274.2,197.1c0.7,1.5,1.3,3,1.9,4.3c1.8-2.1,5.5-6.3,7-7.9c1-1,1.8-2.4,2.6-3.6c-2.8,0.2-4.8,0.9-6.9,2.4
		C277,193.6,275.6,195.2,274.2,197.1z"/>
	<path class="st4" d="M338.6,192.3c0,0-21.5,0.4-32.1-0.7c-7.2-0.7-12.3-1.4-16.2-1.7c0.5,1.2,0.9,2.4,0.9,2.4s1.7,0.7,4.7,1.2
		s8.7,3.8,8.7,3.8s7.3,0.7,17.3,1.9c6.7,0.8,18,2,25.5,3c-3-3.7-5.4-6.7-6.5-8.1L338.6,192.3z"/>
	<path class="st4" d="M190.9,220.6c0.5,0.8,0.5,0.7-0.1-0.2C190.8,220.4,190.9,220.5,190.9,220.6z"/>
	<path class="st4" d="M191.3,216.1C192.4,215.3,192.4,215.2,191.3,216.1L191.3,216.1z"/>
	<path class="st4" d="M191.4,209.6c0.3-1.1,0.1-0.9-0.8,0.6C190.9,210.7,191.2,210.5,191.4,209.6z"/>
	<path class="st4" d="M192.5,210.6c0,0.1,0,0.2,0,0.2C193.3,211.3,193.3,211.2,192.5,210.6z"/>
	<path class="st4" d="M188.1,208.2L188.1,208.2C189.4,207.9,189.4,207.9,188.1,208.2z"/>
	<path class="st5" d="M356.4,208.8c6.5,1.4,72,21.5,72,21.5s-52.7-20.2-58.7-21.8s-9-1.9-9-1.9s-4.2-2.1-6.3-3.1
		c-0.3-0.1-0.9-0.3-1.8-0.5c-3.8-5.9-6.9-10.8-6.9-10.8s0-3.3-2.3-4.7c-2.3-1.3-2-4.5-2-4.5l-1.7,1.7l-1.3-2l-2,1.1c0,0,0,0-2,1
		s-24.7-0.3-31-0.1s-5-1.2-9-2s-10-1.1-10-1.1s-3.3-1.8-6.7-2.4c-2.7-0.5-5.3,3.7-8.1,8c-2-4.2-3.5-7.4-3.5-7.4l-1.3-3.1l-2.6-0.2
		l-1.9-2l-1.9,2.1l0,0c-2.5,1.5-2.3,6.6-3.3,9.7c-1.3,3.7-6.9,13.3-7.3,14.9c-0.3,1.6,0,3.7,0,7.3s5.7,11,5.7,11s2-10.2,2.7-14.9
		c0.7-4.7,5.7-15.3,5.7-15.3s0.7,3.9,2.3,8c-2.4,6-4.5,13.5-5.6,18c-1.7,6.7-12.8,17.3-12.8,17.3s6.6-1.2,16.5-6.2
		c2.1-1.1,7.6-6.4,11.8-10.6c1.5,2.8,2.5,4.8,2.5,4.8c0.3,2.1,0.9,32.5,1.3,38.1v1.3c-0.3,5-7,27.7-7,27.7s10.3-23.3,11.3-26
		c0-0.1,0.1-0.3,0.1-0.4h0.4l-0.1-1.9c0.2-2.9-0.4-4.6-0.4-13.5c0-15.4,2.3-24.1,2.3-24.1s-0.7-2-2-4.2c-0.9-1.5-1.7-3.6-3-7.3
		c0,0,2.5-3.1,10.7-4.9c2.5,2.4,7.1,6.7,8.9,7.3c2.7,0.9,7,8.5,7,8.5s4.7,2.6,7.3,4.6c2.7,1.9,11,14.7,12,17.1s2.7,1.7,2.7,1.7
		s0.7,4,2.3,7.3c1.7,3.3,4,51.3,4,51.3c1.3-5-1.3-49.3-1.3-56.3s-2.3-7.7-10.7-19.3c-6.4-9-16.8-19.1-21.2-23.2
		c4.2-0.1,9.1,0.1,14.9,0.8c12.2,1.5,27.5,2.3,36,3.3c10.9,13.4,25.3,30.8,25.3,30.8s-7.3-10.7-11.5-16
		C364.2,220.6,360.3,214.8,356.4,208.8z M264.8,216.6c1.5-3.4,2.9-6.7,4.3-9.9c0.4,0.8,0.8,1.6,1.3,2.3L264.8,216.6z M283.1,193.5
		c-1.5,1.6-5.2,5.9-7,7.9c-0.6-1.3-1.2-2.8-1.9-4.3c1.3-1.9,2.8-3.5,4.6-4.9c2.1-1.6,4.1-2.3,6.9-2.4
		C284.9,191,284.1,192.4,283.1,193.5z M321.8,199.1c-10-1.2-17.3-1.9-17.3-1.9s-5.7-3.2-8.7-3.8c-3-0.5-4.7-1.2-4.7-1.2
		s-0.3-1.2-0.9-2.4c3.9,0.3,9,1,16.2,1.7c10.6,1,32.1,0.7,32.1,0.7l2.2,1.8c1.1,1.4,3.5,4.4,6.5,8.1
		C339.8,201.1,328.4,199.9,321.8,199.1z"/>
	<path d="M35.3,149.2c1,0.7,1,0.4,0.1-0.7C35.1,148.8,35.1,149,35.3,149.2z"/>
	<path d="M30,151.1C30,151,30,151,30,151.1c0.3-0.3,0.5-0.2,0.9,0.2c0.6,1.8,1.3,3.6,2.1,5.3c0,0.1,0,0.1,0.1,0.2
		c0,0.5,0.2,1.1,0.6,1.5c0.1,0.1,0.1,0.1,0.1,0.2v0.1c1.1,2.1,1.2,2,0.2-0.3c0-0.1,0-0.1,0.1-0.2c-0.2-0.5-0.4-0.9-0.6-1.3
		c-0.1-0.1-0.1-0.1-0.1-0.2c-0.2-1.7-0.7-3.4-1.5-5c0.6-0.1,0.6-0.4,0.2-0.8l0,0c-0.3-0.8-1-1.3-2-1.3
		C29.1,151.3,29.1,151.9,30,151.1z"/>
	<path d="M31.1,155.5L31.1,155.5C31.8,156.5,31.8,156.4,31.1,155.5z"/>
	<path d="M36.2,157c-0.1,0-0.1,0.1-0.1,0.2C36,158.3,36,158.3,36.2,157z"/>
	<path d="M33.5,161.3c-0.3,0.2-0.3,0.3-0.1,0.3C34.4,161.4,34.5,161.3,33.5,161.3z"/>
	<path d="M33.6,165.9L33.6,165.9c0.5-0.7,0.6-1.3,0.5-1.9c-0.2,0.3-0.4,0.6-0.4,0.9c0,0.1,0,0.1-0.1,0.2c-0.1-0.1-0.1-0.1-0.2-0.2
		c-0.1-0.1-0.2-0.2-0.4-0.3c0,0-0.1,0-0.1,0.1c0,0.1,0,0.1-0.1,0.2c-0.1-0.1-0.1-0.1-0.2-0.1c-0.2,0.1-0.4,0.1-0.6,0
		c-0.2,0.4,0,0.6,0.6,0.6c0,0,0.1,0.1,0.2,0.1c0.1,0,0.1,0.1,0.1,0.2c0,0.4-0.1,0.9-0.3,1.5c-0.1,0-0.1,0.1-0.1,0.2
		c-0.7,1.9-0.6,2,0.2,0.3l-0.1-0.1c0.1-0.1,0.1-0.1,0.1-0.2C33.3,167,33.5,166.4,33.6,165.9z"/>
	<path class="st5" d="M214.5,175.4c0,0.1,0.1,0.2,0.2,0.3c-0.1,0-0.1,0.1-0.1,0.2v0.1c0,0.2,0.1,0.3,0.2,0.5c0,0.5-0.1,0.7-0.3,0.7
		c0.1,0.5,0.2,0.7,0.5,0.7l-0.1,0.3l0.1,0.2h0.3l0.2,0.7l-0.1,0.2l0.2,0.2c0,0.2,0.1,0.5,0.1,1.1l0.2,0.2l-0.2,0.4l0.3,0.1
		c0.1,1,0.1,1.6,0.1,1.6c0,0.1,0.2,0.4,0.6,1c0,0.6-0.1,1,0,1.1l0.2,1.4c0.5-0.2,0.9-0.4,1.3-0.6c0.1,0,0.2,0,0.3-0.1
		c-0.5,0.4-1,0.8-1.5,1.1l0.1,0.4l0.2,0.2c-0.1,0-0.1,0.5-0.1,1.4c0.1,0,0.2,0,0.2,0.1l-0.1,0.3c0,0.1,0,0.2,0.1,0.3
		c0.3,0.1,0.7,0.1,1,0.2c0.1,0.1,0.2,0.1,0.3,0c0-0.1,0-0.2,0-0.3c0-0.1,0-0.2,0-0.3c0.4-0.7,0.6-0.7,0.7,0c0,0.1,0.1,0.1,0.1,0.2
		c0.1,0,0.2,0,0.3,0c0.4,0,0.2,0.2-0.5,0.5c0,0.1,0,0.2,0,0.3s0,0.1,0.1,0.1c1.7,0.9,2,2,1,3.1c-0.1,0-0.2,0-0.3,0
		c-0.6-0.2-1.3-0.4-2-0.6l0.1,0.1c0,0.1,0,0.3,0,0.5l0.1,0.2l0.2,0.7c-0.1,0-0.1,0-0.1,0.1l0.1,0.3c-0.1,0.6-0.1,0.9-0.1,0.9
		l0.1,0.2c0,0.2,0.1,0.3,0.3,0.3c0,0.2,0,0.5-0.1,0.8l0.3,0.1l-0.2,0.3l0.1,0.4l0.2,0.3l-0.2,0.1c0,0.2,0.1,0.2,0.3,0.2
		c0,0.1,0,0.2-0.1,0.2c0,0.1,0.1,0.2,0.2,0.3c0,0.1-0.1,0.2-0.3,0.3c1.3,0.5,2.1,1.2,2.3,2.1c0,0,0,0.1-0.2,0.2
		c-0.6-0.8-1.2-1.4-2-1.8l0.3,0.8v0.3l0.3,0.4c0,0.7,0,1.2-0.1,1.5l0.2,0.2l-0.1,0.3l0.2,0.5c0,0.2,0,0.4-0.2,0.4
		c0,0.2,0.2,0.4,0.4,0.7c-0.1,1-0.2,1.5-0.3,1.5c0.2,0.2,0.4,0.5,0.4,0.7v0.1c-0.1,0.2-0.1,0.8,0,1.9c0.2,0.4,0.2,0.8,0.3,1.1v0.7
		c0.1,0,0.1,0,0.1,0.1c-0.1,0.3-0.1,0.6-0.1,0.8l0.3,0.3c-0.2,0-0.3,0.2-0.3,0.3c0,0.2,0.1,0.2,0.3,0.2c0,0.2,0,0.3-0.2,0.3
		c0,0.1,0.1,0.1,0.1,0.1c0.1,0.9,0.2,1.6,0.3,2.1c1,0.8,1,0.8,0,0.1c0,0.6,0,0.9-0.1,0.9l0.2,0.2c0,0.1,0,0.3,0,0.4l0.1,0.1
		c0.6,0.3,1.1,0.7,1.4,1.2c0,0.1,0,0.2,0.1,0.3c0.7,0.7,1.2,1.4,1.7,2.2c0,0.1,0.1,0.1,0,0.2c0.1,0,0.2,0,0.2,0.1v0.1
		c0.5,0,0.7,0.1,0.8,0.5c0,0.1,0,0.2,0,0.3c0.5,0.3,1,0.4,1.5,0.3l0,0c1.1,0.8,1.9,2.1,2.6,3.7c0,0.5,0,0.8,0,1.2
		c0.6-0.2,1.1-0.8,1.4-1.7l-0.2-0.3c0.1,0,0.2-0.3,0.3-0.8c0.1-1,0.3-1.7,0.4-2c-0.3-2-0.3-3.5-0.2-4.4c-0.1-0.2-0.3-0.7-0.5-1.4
		c0.2,0,0.2-0.2,0.1-0.6l-0.1-0.2c0.1,0,0.1-0.1,0.1-0.1l-0.1-0.9l-0.3-0.7l-0.5-4.6c-0.1-0.1-0.2-0.2-0.2-0.4l0.4-0.3h0.1
		c0.2,0,0.5,0,0.8,0.1l0.2-0.1c0.2,0.8,0.5,1.2,1.1,1.1l-0.1,0.3c0,0.2,0.2,0.3,0.4,0.3c0.4,0.8,0.9,1.7,1.6,2.6
		c-0.1,0-0.1,0.1-0.1,0.2c0,0.2,0.2,0.2,0.4,0.2v0.3c0.5,0.9,1.1,1.7,1.8,2.3l-0.1,0.3c1.5,1.8,2.2,2.9,2.3,3.2
		c1.7,2,3.1,3.5,4.1,4.8c0.5,0.6,1.7,0.6,3.6,0l1.1-0.2c0.5-0.1,1.1-0.3,2-0.4h0.1c0.5-0.2,0.9-0.5,1.3-0.8c0.3-0.5,0.4-1.1,0.1-1.8
		l-0.6-1c-0.6-0.9-1.3-1.8-2.1-2.7h0.1c-0.8-1.3-1.3-2-1.6-2.1c-0.5-1.1-1.4-2.5-2.8-4.2c-1.4-1.8-2.9-3.8-4.5-5.9
		c-0.1-0.4-0.6-1.2-1.5-2.2c-1.5-1.8-2.5-3.1-3.1-4l-0.1-0.2c-0.1-0.5,0.1-1.3,0.6-2.4c0-0.9,0.2-1.6,0.5-2.2l-0.1-0.2
		c0.2-0.3,0.7-1.8,1.5-4.7c0.5-1.9,0.8-2.8,0.9-2.9c0.1-1.6,0.2-2.7,0.4-3.1c0.5-0.8,0.9-1.7,1.2-2.7l1-4.1c0-0.1-0.1-0.2-0.2-0.3
		c0.1,0,0.1-0.2,0-0.4h0.3c0.2,0,0.3-0.4,0.3-0.9c0.3-0.6,0.6-1.6,0.9-2.9c0.6-2.3,0.6-3.7,0.2-4.2c-0.2-0.5-0.7-0.7-1.3-0.7
		c-0.7,0.1-1.8,0.3-3.3,0.5c-0.7,0.1-1.6,0.3-2.6,0.6l-0.9,0.2l-0.5,0.6l-0.6,1.1c-0.4,1-0.6,1.7-0.6,2c-0.7,1.9-1.3,3.1-1.6,3.5
		l0.1,0.2c-0.1,0-0.1,0.1-0.2,0.4c0,0.1,0.1,0.2,0.2,0.3l-0.3,0.3c-0.2,1.1-0.4,1.8-0.7,2v0.1h0.1c0.1,0,0.1,0.1,0.1,0.1
		c0.1,0.2,0.1,0.3-0.2,0.4c-0.5,2.5-0.8,3.9-0.9,4.1l-1.2,1.6l-0.4,0.2h-0.1l-0.3,0.2l-0.4-0.2h-0.1l0,0c-0.1-0.3-0.4-1.8-0.9-4.6
		c0.1,0,0-0.6-0.3-1.7l-0.7-3.4c-0.1-0.4-0.1-0.9-0.2-1.4c0-0.6-0.2-1.5-0.6-2.7l-0.4-0.6c0,0-0.1-0.1-0.4-0.3
		c-0.9-0.3-3-0.2-6.3,0.4h-0.1c-0.3,0.2-0.6,0.4-0.9,0.6c0,0.4-0.1,0.7-0.2,1c-0.1,0-0.2,0.1-0.2,0.1c-0.5,0.6-0.8,1.4-0.8,2.5
		c-0.1,0-0.1,0-0.1,0c0,0.1,0.1,0.2,0.1,0.2L214.5,175.4z M229,204.9l0.6-0.1v0.1c0,0.2,0,0.3-0.2,0.3h-0.3l-0.3-0.1L229,204.9z
		 M227.3,194.9C228.2,195.5,228.2,195.5,227.3,194.9C227.3,195.1,227.2,195,227.3,194.9z M226.8,199.1v-0.4
		C228.2,199,228.2,199.1,226.8,199.1z M227,193.5L227,193.5l-0.2,0.1v-0.1H227z M218.1,177.4v-0.2
		C220.1,177.3,220.1,177.3,218.1,177.4z M220.5,197.2v-0.4C221.4,196.7,221.4,196.8,220.5,197.2z M222.8,204.2
		C224.6,205,224.6,205,222.8,204.2C222.8,204.3,222.8,204.3,222.8,204.2z M223.8,218.5c-0.1-0.1-0.1-0.1-0.1-0.2
		C225.2,219.8,225.2,219.9,223.8,218.5z M223.8,181.7L223.8,181.7C226,180.8,226,180.8,223.8,181.7z M224.5,198.3
		c0.5,0.3,0.6,0.8,0.5,1.5c-0.7,1.8-1.9,1.9-3.7,0.5l-0.1-0.1c0.9,0.3,1.4-0.2,1.6-1.2C223,198,223.5,197.8,224.5,198.3z
		 M222.3,179.7c-0.1,0-0.1-0.1-0.1-0.2C223.1,180.2,223.1,180.2,222.3,179.7z M223.3,182.1l-0.2,0.3c-0.3,0.5-0.7,0.8-1.4,1
		c0,0.1,0,0.2,0,0.2c-0.3,0.2-0.6,0.4-0.9,0.6c0,0.1,0,0.2,0,0.3c0.1,0.1,0.1,0.1,0.2,0.3c0,0.1,0.1,0.1,0.1,0.2
		c0.9,0,1.3,0.4,1.4,1.2c0,0.4,0,0.6-0.2,0.7c-1.7,1.3-2.7,0.9-2.8-1.4c0.1,0,0.1,0,0.1,0c0.1-0.1,0.1-0.2,0.1-0.2
		c0-0.1,0-0.2,0-0.3c-0.1,0-0.2,0-0.2,0.1c-0.5,0.7-0.8,0.8-1,0.2c0.9-0.7,1.8-1.4,2.7-2c0.1,0,0.1-0.1,0.2-0.1c0-0.1,0-0.2,0-0.3
		C222.2,182.1,222.8,181.8,223.3,182.1z M220.4,176.6C221.6,176.6,221.6,176.6,220.4,176.6L220.4,176.6z M221.4,174.8
		c0,0.1,0.1,0.1,0.1,0.2c-2.2,1.1-3.5,0.5-3.8-1.8c0-0.1,0-0.2,0-0.3C219.7,170.9,221,171.5,221.4,174.8z"/>
	<path d="M40.5,168C40.4,168,40.4,168,40.5,168C40.6,169,40.7,169,40.5,168z"/>
	<path d="M35.7,170.7c1-0.1,1.1-0.2,0.2-0.2L35.7,170.7z"/>
	<path d="M41.2,171.9c0,0.1,0,0.1-0.1,0.2l0.2,0.6C41.4,172.5,41.3,172.3,41.2,171.9z"/>
	<path d="M36.4,164.8c-0.2,0.3-0.2,0.4,0.2,0.4C37.6,165.1,37.5,165,36.4,164.8z"/>
	<path d="M27.7,155.6l0.2,0.3c1.4-0.8,1.4-1.1,0-0.9C27.6,155.2,27.6,155.4,27.7,155.6z"/>
	<path d="M17.3,139.5c1.3,0.6,1.2,0.2-0.2-1c-0.3,0.3-0.3,0.5-0.1,0.7L17.3,139.5z"/>
	<path class="st5" d="M195.3,214.3l-0.2-0.3l0.2-0.5c0-0.4-0.2-1.5-0.5-3.2l0.1-0.2c-0.1-0.2-0.2-0.6-0.4-1.2
		c0.1-0.1,0.1-0.3,0.1-0.6l-0.1-0.3c-0.1-0.1-0.2-0.2-0.3-0.3c-0.1,0.3-0.3,0.6-0.6,1c-0.5,0.6-0.9,0.5-1.1-0.3
		c-0.1-0.4-0.2-0.7-0.2-1c0.5-0.1,0.8-0.2,1.1-0.3c-0.7-0.4-1.5-0.7-2.4-0.9c-0.5,0.5-1,0.7-1.4,0.6c0,0-0.1,0-0.1-0.1
		c0.2-0.2,0.4-0.4,0.7-0.5c-0.4,0-0.8,0-1.2,0c-0.6,0-1.3,0.1-2.1,0.4c-0.3,0.1-0.5,0.2-0.7,0.3c-0.4,0.2-0.6,0.6-0.7,1.1
		c-0.2,0.5-0.2,1.2-0.2,2.2c-0.2,1-0.4,1.5-0.6,1.5l0.2,0.6c0,0.1-0.1,0.1-0.2,0.1c-0.1,0.6-0.4,1.1-0.9,1.6l0.1,0.2
		c-0.6,1.5-1.1,2.4-1.3,2.6v-0.4h-0.5c0,0.4-0.1,0.7-0.2,0.9c0,0.1,0,0.2,0.1,0.4c-0.4,0.4-0.6,0.6-0.6,0.7c-0.1,0-0.3,0-0.5-0.1
		l-1.1,1.1h-0.1l0.1-0.2V219h-0.2l-0.3,0.3h-0.6c-0.8,0.3-1.4,0.3-1.7,0.1c-1.9-0.4-2.8-0.9-2.8-1.6H174l-0.3,0.2
		c-1.3-2.3-2.1-3.4-2.3-3.2c-0.1-0.4-0.2-0.6-0.3-0.6c0.2-1.7-0.1-2.6-0.7-2.6c0-0.3-0.1-0.8-0.1-1.5c0-0.1-0.1-0.6-0.3-1.4
		c0.2,0,0.3-0.1,0.3-0.3c0-0.2-0.1-0.3-0.3-0.3l0.2-0.6l-0.1-0.2c-0.3-2-0.6-3.1-0.8-3.5c0.1,0,0.2,0,0.2-0.1l-0.1-1.6l-0.1-0.2
		c0.1,0,0.2-0.4,0.2-1h-0.3l0.1-1.6l-0.1-0.4c0-0.2-0.1-0.6-0.5-1.3c0.2-0.6,0.3-2,0.5-4.1c-0.1,0-0.1-0.1-0.1-0.1
		c0.2-2.4,0.4-4,0.8-4.7c0.2-1,0.5-1.5,1-1.5c0.6-2.4,1.1-4.1,1.4-4.8l0.3,0.1l-0.1,0.3c0,0.2,0.1,0.2,0.3,0.2h0.1l0.1-0.6l-0.1-0.2
		c0.5-0.5,0.7-1,0.7-1.4c0.1,0,0.2,0.1,0.2,0.2c0.2,0,0.4-0.1,0.7-0.4l-0.2-0.3c0.6-0.9,1.3-1.6,2.1-2.1l0.4-0.5
		c0.1,0,0.5-0.1,1.1-0.2c-0.6-0.5-0.9-1.3-0.9-2.5c3.5,0.4,6,1.9,7.5,4.4c0,0,0.1,0,0.2,0c0-0.1,0-0.1,0-0.2c-0.3-0.8-0.6-1.5-1-2.2
		c-0.1,0-0.1-0.1-0.2-0.1c-0.7-0.6-1.1-1.4-1.4-2.4c0.8,0.3,1.3,1,1.5,2c0,0.1,0,0.2,0,0.3c0.6,0.6,1.2,1.4,1.5,2.2
		c0,0.1,0,0.1,0,0.2c0.4,0.3,0.7,0.6,1,1.1c0,0.1,0,0.1,0,0.2c0.3,0.1,0.5,0.2,0.5,0.5c0,0.1,0,0.2,0,0.3c0.6,0.6,1.1,1.3,1.5,2.1
		c0,0.1,0.1,0.1,0,0.2c-0.1,0.6,0.1,1,0.5,1.1c0,0,0,0,0,0.1c0.3,0.4,0.6,0.9,0.9,1.3c0.1,0,0.1,0.1,0.1,0.2c0.2,0.4,0.6,0.7,1,1
		c0.1,0,0.2,0,0.3,0c0.7,0.2,1,0,1-0.6c0-0.1,0-0.2,0-0.3c0-0.1-0.1-0.2-0.1-0.2c-0.4-0.7-0.7-1.5-0.7-2.5c-0.1,0-0.2,0-0.2-0.1
		c-0.3-0.7-0.5-1.5-0.6-2.5c0-0.1,0-0.1-0.1-0.2c-0.4-0.4-0.8-0.9-1.2-1.3c-0.1,0-0.2,0-0.2,0.1c-0.7,0-1.1-0.3-1-1.1
		c0.4,0.2,0.8,0.4,1.2,0.6l0.1,0.1c1.1,0.3,1.6,0.8,1.5,1.5c0,0.1,0,0.2,0,0.3c0.3,0.5,0.6,1.1,0.7,1.7c0.1,0.1,0.1,0.2,0.1,0.3
		c0.4,0.9,0.7,1.8,1,2.7c0,0.1,0,0.1,0.1,0.2c1,0.6,1.7,1.3,2,2.1c0.5-0.6,0.8-1.2,0.7-1.8l-0.1-0.3c-0.2,0-0.4,0-0.6-0.1
		c-0.1,0-0.1-0.1-0.1-0.4c0.2,0.1,0.4,0.1,0.6,0.2l0.2-1.6c-0.2-0.6-0.3-1-0.3-1.2c0.5-0.4,0.7-1.3,0.6-2.5l-0.6-1.5l0.1-0.3
		c0-0.1-0.1-0.4-0.3-0.8l0.2-0.9c-0.2-0.6-0.3-1.1-0.5-1.3l0.1-1.3l0.2-0.2c-0.2-0.1-0.3-0.1-0.4-0.1c0-0.1,0-0.1,0.1-0.1
		c0-0.2-0.2-0.6-0.6-1.1l0.1-0.2c-0.5-1-0.8-1.5-0.9-1.5c-0.1-0.7-1.2-1.6-3.5-2.5c-3.3-1.1-5.5-1.5-6.7-1.5c-0.1,0-0.3,0-0.4,0.1
		l-1.2-0.2c-3.2,0.3-5.2,0.6-6.2,0.9v-0.3h-0.3c0,0.3-0.6,0.6-1.8,0.7l-0.1-0.2c-1.1,0.2-2.3,0.9-3.5,2c-3.2,2.2-5.4,4.4-6.6,6.7
		l-2.2,5.9l-1.6,6.8l0.1,0.2l-0.6,4.2l0.2,0.3c-0.5,1.4-0.7,2.4-0.7,2.9l0.1,1.3l0.2,0.7c-0.1,0-0.1,0.1-0.1,0.4v0.9l0.2,0.9
		c-0.1,0-0.1,0.1-0.1,0.2l0.2,0.2l-0.1,0.5l0.1,0.2c-0.1,0-0.1,0.1-0.1,0.1v0.3l0.2,0.3h-0.2c0.3,1.9,0.6,3.4,0.8,4.4l-0.9-2.1v-0.3
		c-0.1-0.1-0.2-0.3-0.4-0.5l0.1-0.2l-0.5-0.7l-0.2-0.7c-0.2-0.9-0.5-1.4-0.8-1.7c-0.5-1.9-1.3-3.5-2.5-4.7c-1.6-4-3-6.9-4.1-8.8
		c0-0.1,0-0.2,0-0.4c-0.5-0.9-0.8-1.3-0.8-1.3c-1.4-3.1-2.3-5-2.7-5.6h0.1l-1-2.1c0.1,0,0.1-0.1,0.1-0.2c-0.6-1.3-1.4-2.6-2.4-4
		c-1.2-1.7-2.7-2.5-4.5-2.7c-0.3-0.4-1.8-0.2-4.6,0.6c-0.2,0-0.4,0.1-0.8,0.3c-0.1,0-0.3,0-0.4,0c-2,1.1-3.1,2.2-3.4,3.2
		c-0.2,1.9-0.4,2.9-0.8,3.1l0.1,3.1l0.2,0.2c-0.1,0-0.1,0.1-0.1,0.3c-0.3,1.7-0.4,4.1-0.4,7.1l0.2,0.2c-0.1,0-0.2,0.1-0.1,0.3
		c0.1,0.3,0.1,1.8-0.1,4.4c0.3,2.7,0.3,4.1,0.1,4.4v0.1l0.2,0.2h-0.1c0.2,1,0.2,1.5,0,1.5c0,0.4,0.1,0.8,0.1,1.2h-0.1
		c0-0.1,0-0.1-0.1-0.1c-0.8,0.1-1.6,0.2-2.4,0.4c0,0.1,0.1,0.2,0.1,0.3c-0.1,0-0.2,0-0.2,0.1c-0.1,0-0.1,0-0.2,0.1v-0.1
		c-0.7,0-1.3,0.1-2,0.3c-0.1,0-0.1,0-0.2,0.1c-0.5,0.1-1,0.3-1.5,0.4c0,0.1,0.1,0.2,0.1,0.3c-0.1,0-0.1,0-0.2,0s-0.1,0.1-0.2,0.1
		s-0.1,0-0.2,0c-0.6,0.2-1.3,0.3-1.9,0.5c0.1,0.1,0.1,0.3,0.1,0.4c-0.1,0-0.1,0.1-0.2,0.1c-0.3,0.1-0.5,0.1-0.8,0.2
		c-0.1,0-0.2,0-0.2,0.1c-0.8,0.2-1.6,0.4-2.4,0.6c-0.1,0-0.1,0-0.2,0c-0.7,0.4-1.3,0.6-1.7,0.5c0.6,0.8,1.2,0.7,1.8-0.1
		c0.1,0,0.1-0.1,0.2-0.1c0.8-0.2,1.6-0.4,2.4-0.6c0.1,0,0.1,0,0.2-0.1c0.1,0.1,0.1,0.1,0,0.1c-0.7,0.4-1.3,0.8-2,1.1
		c-0.1,0-0.1,0-0.2,0c-0.5,0.1-1,0.3-1.5,0.4c0,0.1,0.1,0.2,0.1,0.3c-0.1,0-0.2,0-0.2,0.1c-0.5,0.1-1,0.3-1.5,0.4
		c0,0.1,0.1,0.2,0.1,0.3c-0.1,0-0.1,0-0.2,0c-0.2,0-0.3,0.1-0.4,0.1s-0.1,0-0.2,0.1c-0.2,0.1-0.4,0.1-0.6,0.2c0-0.2,0-0.4,0-0.7
		l-0.1-0.2h0.1l-0.1-0.6c0.1-0.6,0.1-1.1,0.1-1.6c0-0.2,0-0.3-0.1-0.4c0-0.1,0.1-0.3,0.1-0.5l-0.1-1.1c0-0.6-0.1-1.1-0.3-1.5
		l0.2-0.1l-0.1-0.3l0.3-3.7c-0.1,0-0.1-0.1-0.1-0.3l0.2-1.6c0-0.5-0.2-1.1-0.3-1.6c0.1-0.2,0.1-0.3,0.1-0.4c0-0.2-0.1-0.4-0.3-0.7
		l0.2-0.2l-0.1-0.2h0.1l-0.2-1.1l0.2-2l-0.2-0.8c0.1,0,0.1-0.1,0.1-0.1l-0.2-0.8l0.1-0.5c-0.1,0-0.1,0-0.1,0c0.1-0.2,0.1-0.4,0-0.5
		v-0.1l-0.1-0.7c0.1-0.1,0.1-0.3,0-0.6V185c0-0.2,0-0.3-0.1-0.4c0.1-0.2,0.1-0.3,0.1-0.5l0.1-2.1l0.1-0.7c-0.1,0-0.2-1.2-0.2-3.5
		c0.1-0.2,0.1-0.3,0.1-0.4l-0.2-0.5l0.2-0.5c0-0.1-0.1-0.2-0.3-0.3c0-0.1,0.1-0.7,0.2-1.8c-0.2,0-0.3-0.3-0.5-1c0,0-0.5-0.3-1.4-0.8
		c-3.9-0.1-6.3,0.1-7.2,0.7l0.2,0.4c-0.2,0-0.3,0-0.4,0.1c0,0.1,0,0.1,0.1,0.1l0.1,0.3h-0.1l-0.1-0.2c-0.1,0-0.2,0.1-0.2,0.2
		l0.1-0.4c-0.1,0.6-0.2,0.9-0.3,0.9l0.1,0.4l-0.1,0.6c0.1,0,0.1,0,0.1,0.1H102v2.6l-0.1,0.2l0.2,0.2c-0.2,0.3-0.3,0.7-0.2,1.3
		l0.1,0.6c-0.1,0-0.1,0-0.1,0.1l0.1,0.3l-0.2,0.7l0.1,0.2c-0.1,0.8-0.2,1.2-0.2,1.3l0.1,0.2c-0.1,0.2-0.1,0.3-0.1,0.5v0.1l0.1,0.2
		c-0.1,0-0.1,0.1-0.1,0.1v0.3l0.1,0.2c-0.1,0-0.2,0.4-0.1,1l0.1,0.7c0,0.2-0.1,0.3-0.2,0.2l0.1,1.2v0.6l-0.2,0.3v0.2
		c0,0.2,0.1,0.3,0.3,0.3c0,0.1-0.1,0.2-0.3,0.3l0.2,0.6v0.4h-0.1v1l0.1,0.2c-0.2,0-0.3,0.2-0.3,0.6l0.1,0.2l-0.6,2.8l0.1,0.2
		c-0.1,0-0.1,0.1-0.1,0.1v0.1l0.2,0.3c-0.1,0.3-0.4,0.5-0.9,0.5l-0.5,0.1c-1.1,0-2.3,0-3.5-0.1c-1,0-1.9-0.5-2.5-1.6
		c0-0.1,0.1-0.1,0.2-0.1c-0.2-1.3-0.3-2-0.3-2.1c0.1,0,0.1,0,0.1-0.1v-0.3l-0.2-0.5c0.1,0,0.2-0.1,0.2-0.1c-0.1-0.6-0.2-1-0.3-1.2
		c0.1-0.1,0.2-0.3,0.2-0.4c-0.1-0.3-0.1-0.6-0.2-1.1l0.2-0.2c0-0.1-0.1-0.3-0.2-0.7c0-0.2,0-0.5,0.1-0.8l-0.1-0.5
		c0-0.1,0-0.4,0.2-0.9v-0.4l-0.2-0.3h0.2c0-0.3-0.1-0.7-0.2-1.3l0.1-0.2l-0.1-0.2c0.1-0.9,0.2-1.8,0.1-2.5c-0.1-0.6-0.2-1.7-0.3-3.2
		l-0.1-0.1h0.1c-0.3-2.4-0.5-3.6-0.6-3.6c0-1.1-1-1.8-2.9-2.3h-0.2c-0.2,0-0.3,0-0.4,0.1c-0.5-0.1-1-0.2-1.6-0.2
		c-0.1,0-0.2,0.1-0.3,0.2c0-0.1-0.1-0.2-0.1-0.2l-1,0.1c-0.3,0-0.8,0.1-1.5,0.5l-2.1,2l0.3,0.4h-0.1c-0.1,0-0.4,0.5-0.9,1.3l0.3,0.4
		v0.2c0,0.1,0,0.2-0.2,0.2c0,0.2,0.2,0.4,0.4,0.8l-0.4,0.8l0.1,0.2l0.2-0.1v0.1l-0.3,0.4l0.1,0.2l0.2,0.3v0.4h-0.1v-0.3l-0.3,0.1
		l0.2,0.4l-0.1,0.6c0.1,0,0.1,0,0.1,0.1c0,0.1-0.1,0.2-0.2,0.3l0.3,0.7l-0.1,0.4l0.2,0.6c-0.1,0-0.2,0.1-0.3,0.4
		c0,0.2,0.1,0.3,0.3,0.3l-0.1,0.2v0.4l0.1,0.2H82c0,0.1,0.1,0.2,0.2,0.4c-0.1,0.2-0.1,0.6-0.2,1.3l0.3,1.4c-0.1,0-0.1,0.1-0.1,0.1
		l0.1,0.4l0.1,0.2c-0.1,0-0.1,0.1-0.1,0.2l0.1,0.2c-0.1,0-0.1,0.1-0.1,0.2v0.2l0.1,0.2c-0.1,0-0.1,0-0.1,0.1v0.1l0.1,0.3
		c-0.1,0-0.1,0-0.1,0.1v0.1l0.1,0.2c-0.1,0-0.2,0.4-0.2,1.2c0,0.2,0.1,0.5,0.2,0.9c-0.1,0.9-0.2,1.3-0.4,1.3
		c0.2,0.3,0.4,0.6,0.4,0.7c0,0.3-0.1,0.7-0.2,1.2c0,0.1,0.1,0.3,0.2,0.4l-0.1,0.3c0,0.1,0.1,0.3,0.3,0.6c-0.2,0.3-0.3,0.5-0.2,0.7
		l0.1,0.5l-0.4,0.3c0.1,0.7,0.2,1.1,0.3,1.2h-0.2c0,0.2,0.1,0.4,0.2,0.5c0,0.8-0.2,1.3-0.3,1.7l0.1,0.2l-0.1,0.7l0.1,0.6
		c-0.1,0-0.1,0,0,0.1c0,0.1,0,0.2,0.1,0.3l-0.1,0.2l0.1,0.5c0,0.2,0,0.3-0.2,0.4c0,0.1,0.1,0.2,0.2,0.3c-0.1,0.2-0.1,0.9-0.1,1.9
		l0.2,0.8c-0.1,0.3-0.2,0.6-0.2,0.7l0.2,0.5l-0.2,1.3c0.1,0,0.1,0,0.1,0.1c0,0-0.1,0-0.1,0.1l0.1,0.2c0,0.2,0.1,0.3,0.2,0.3
		c-0.2,0.6-0.3,1-0.3,1.1l0.3,0.7l-0.1,0.2c0,0.1,0,0.2,0.1,0.3c-0.1,0-0.1,0.1-0.1,0.2v0.2l0.2,0.6c-0.1,0-0.1,0-0.1,0.1
		s0.1,0.2,0.1,0.4c-0.1,0.3-0.2,0.8-0.3,1.5c0.1,0,0.1,0.1,0.2,0.4c-0.1,0-0.1,0.1-0.1,0.1v0.1l0.2,0.4v0.1l-0.1,0.6
		c0.1,0,0.1,0,0.1,0.1c-0.1,0.6-0.2,0.9-0.3,0.9c0.2,0.4,0.3,0.7,0.3,0.9c-0.1,0-0.2,0.1-0.2,0.2v1.1l0.2,0.5c-0.1,0-0.1,0-0.1,0.1
		c0.2,0.3,0.3,0.6,0.3,0.8l-0.1,0.6c0.1,0,0.1,0,0.1,0.1h-0.1c0.2,1.2,0.4,1.9,0.5,2l-0.1,0.3l0.2,0.7c0,1.8,0.7,2.8,2.2,3l0.4-0.2
		c0.2,0.1,0.3,0.1,0.4,0.1c1.2,0.1,1.8,0,1.8-0.2c1.5,0,2.9-0.2,4.4-0.6c0.3-1.9,0.5-2.9,0.7-2.9v-0.1l-0.2,0.1l-0.1-5.3
		c1.2-0.3,2.4-0.7,3.5-1c0.1,0,0.1,0,0.2,0c0.6-0.2,1.3-0.3,1.9-0.5c0.1,0,0.1,0,0.2-0.1c0.5-0.1,1-0.2,1.6-0.4
		c0.1,0,0.1-0.1,0.2-0.1c0.3-0.1,0.5-0.1,0.8-0.2v0.1c0,0.1-0.1,0.1-0.4,0.1v0.3c0.1,0.1,0.2,0.2,0.3,0.2c-1.3,0.4-2.5,0.9-3.7,1.3
		c-0.1,0-0.1,0-0.2,0.1c-0.3,0.1-0.6,0.1-0.9,0.2c0.4,0.7,0.9,0.8,1.6,0.2c0,0,0-0.1,0-0.2c0.9-0.2,1.7-0.5,2.6-0.7
		c0.1,0,0.1-0.1,0.2-0.1c0.3-0.1,0.5-0.1,0.8-0.2c0,0.1,0,0.2,0.1,0.3l-0.1,0.5c0.2,0.6,0.3,0.9,0.3,1l-0.1,0.4
		c0.2,0.1,0.3,0.1,0.4,0.1c0,0.1-0.1,0.1-0.1,0.1c0.1,1,0.2,1.5,0.4,1.5l-0.3,1l0.1,0.3c0,0.2,0.1,0.3,0.2,0.3
		c0,0.1-0.1,0.2-0.2,0.2c0,0.2,0.1,0.5,0.4,1l-0.1,0.3c0.2,0.2,0.3,0.4,0.3,0.7c0,0.3,0.2,0.9,0.7,1.7h0.1l0.3-0.2
		c0.4,0.1,1.1,0.1,1.9,0.1l0.4-0.1c0,0.1,0.2,0.2,0.5,0.3l0.2-0.2c0.1,0,0.2,0,0.4,0.1c2.9,0.2,4.4,0,4.7-0.6
		c0.6-0.1,0.8-1.9,0.6-5.3v-4.6c0.6,0.1,1.3-0.1,2-0.4c0.1,0,0.1-0.1,0.2-0.1c0.9-0.2,1.7-0.4,2.6-0.7c0.1,0,0.1,0,0.2,0
		c1-0.3,2-0.6,3-0.8c0.1,0,0.2,0,0.2-0.1c2-0.1,4.1-0.6,6.3-1.3c0.1,0,0.1,0,0.2,0c0.6-0.2,1.2-0.3,1.7-0.5c0.1,0,0.1-0.1,0.2-0.1
		h0.1c0.2,2,0.3,3.3,0.1,3.8l0.2,0.2c0,0,0,0.4,0,1l0.1,0.2h-0.1c0.3,2.1,0.4,3.4,0.2,3.7c0,0.1,0.1,0.2,0.2,0.3
		c0.1,0.6,0.1,0.9-0.1,0.9c0,0.1,0.1,0.2,0.2,0.3c0.1,0.4,0.3,1.7,0.5,3.9c0.3,0.9,0.5,1.3,0.6,1.3c0.8,1.4,2.5,1.8,5.1,1
		c3-0.9,4.4-1.5,4.3-1.9c0.2-0.5,0.4-1.3,0.7-2.4c0.2-0.9,0-3-0.7-6.2c-0.1,0-0.2,0-0.2,0c0.1-0.8,0.1-1.3,0-1.5
		c0-0.1-0.1-0.2-0.3-0.3l0.2-0.6l-0.2-0.2c0.1-0.7,0.2-1.9,0.1-3.5c-0.1,0-0.1,0-0.1-0.1c0.2,0,0.2-0.2,0.2-0.4
		c-0.2-0.7,0.3-1.4,1.5-2.1c2.2-0.6,4.3-1,6.3-1.2c0.6,0.9,1.9,3.6,3.6,7.9c-0.1,0-0.1,0.1-0.1,0.1c0.1,0.1,0.4,0.7,0.8,1.8
		c0.7,2.7,1.7,4,3,4c0.2,0.6,1.9,0.4,5.3-0.4c1.2-0.3,2-1,2.6-2.1l0.8,0.7c0.1,0.9,1.8,2.6,5.3,5.2h0.3l-0.4-0.6v-0.1
		c1.3,0.6,2.1,1,2.4,0.9c2.5,1.3,5.8,1.8,9.7,1.5l2.5-0.6c1-0.7,1.8-1.1,2.3-1.1c0.2,0,0.3,0,0.3,0.2c1.5-0.3,3.8-2.6,6.8-7
		C194.7,217.8,195.4,215.8,195.3,214.3z M193.4,181.9c0,0-0.1-0.1-0.1-0.2C195.3,183.1,195.3,183.2,193.4,181.9z M185.1,171.3
		c0-0.1-0.1-0.1,0-0.2C185.9,171.9,185.9,171.9,185.1,171.3z M174.3,176.9c-0.3,0-0.5-0.2-0.6-0.7
		C175.2,176.6,175.4,176.8,174.3,176.9z M175.9,175.9c-0.4,0.1-0.7-0.2-0.7-0.7C177,175.6,177.3,175.8,175.9,175.9z M173.7,174.1
		c1.6,0.4,1.8,0.7,0.5,0.8C173.8,175,173.6,174.7,173.7,174.1z M170.2,179.3l-0.3-0.3C171.1,179.1,171.2,179.2,170.2,179.3z
		 M101.4,211.8C101.4,211.8,101.4,211.9,101.4,211.8L101.4,211.8l-0.2,0.1c0,0.1,0,0.2,0.1,0.3c-0.1,0-0.1,0-0.2,0
		c-0.9,0.2-1.6,0.5-2.2,1c-0.1,0-0.1,0-0.2,0c-0.5,0.1-1,0.3-1.5,0.4c0,0.1,0.1,0.2,0.1,0.3c-0.1,0-0.2,0-0.2,0.1
		c-0.4,0.1-0.7,0.2-1.1,0.3c-0.1,0-0.1,0-0.2,0.1c-0.6,0.2-1.1,0.5-1.6,0.8c0.7,0.8,1.4,0.8,2,0.1c0,0,0-0.1,0-0.3
		c0.1,0,0.1-0.1,0.2-0.1s0.2,0,0.2-0.1c0.3,0.4,0.7,0.5,1.2,0.3v0.2c-0.1,0-0.1,0-0.2,0c-0.7,0.4-1.4,0.8-2,1.3c-0.1,0-0.1,0-0.2,0
		c-0.2,0-0.3,0.1-0.4,0.1s-0.1,0-0.2,0.1c-0.1,0-0.3,0.1-0.4,0.1c0,0.1,0.1,0.2,0.1,0.3c0,0.1,0.1,0.2,0.1,0.3c-0.1,0-0.1,0-0.2,0.1
		c-0.4,0.1-0.9,0.2-1.3,0.3H93v-0.7c-0.1,0-0.1,0-0.1-0.1c0.1-0.4,0.2-0.9,0.1-1.5l-0.3-5c0-0.6-0.1-1.6-0.2-2.9
		c0.4-0.9,1.1-1.4,1.8-1.5h0.3l0.6,0.1c0-0.1,0-0.1,0.1-0.1h2.4l0.8,0.1c0-0.1,0-0.1,0.2-0.1c1.7,0.5,2.6,1.1,2.7,1.9
		c-0.1,0-0.2,0-0.1,0.1l0.1,1.4l0.1,0.2c-0.1,0-0.2,0.1-0.2,0.1l0.2,0.8c-0.1,0-0.1,0.1-0.1,0.1l0.1,0.2l-0.2,0.1
		C101.3,211.7,101.3,211.8,101.4,211.8z M113.2,216.1c-0.1,0-0.3,0.1-0.4,0.1c0,0.1,0,0.2,0.1,0.3c-0.1,0-0.1,0.1-0.2,0.1h-0.1
		c0-0.2,0.1-0.5,0.1-0.8l0,0c0.1,0,0.2,0,0.2-0.1c0.1,0,0.1,0,0.2,0s0.1,0,0.2-0.1c0,0.1,0.1,0.2,0.1,0.3
		C113.3,216,113.2,216.1,113.2,216.1z M113.7,214c-0.1,0-0.1,0.1-0.2,0.1c-0.4,0.1-0.7,0.2-1.1,0.3c0-0.1,0-0.2,0-0.4
		c0.1,0,0.1,0,0.1,0c0.1,0,0.1,0,0.2-0.1c0.5-0.1,1-0.3,1.5-0.4c0.1,0,0.1,0,0.2-0.1c0,0.1,0,0.2,0,0.2
		C114.3,213.8,114,214,113.7,214z M143.5,197.7c-0.4,0.1-1.6,0.6-3.5,1.3c-0.4-0.1-0.6-0.1-0.7-0.1l-0.2-0.5c-0.2-0.6-0.2-1.1,0-1.4
		v-0.1l-0.1-0.2c0.2-2,0.3-3.7,0.2-5.1c-0.1-2.5-0.1-3.8,0-3.9c0.3-0.1,1,0.8,1.9,2.7H141c0.8,1.8,1.3,3,1.4,3.5
		c0,0.1,0.1,0.2,0.3,0.4v0.1c0.1,0.1,0,0.2-0.2,0.2l0.8,1.4l0.2,1.1c0.1,0,0.1,0.1,0.2,0.3l0.1,0.2
		C143.6,197.8,143.6,197.8,143.5,197.7z M181,218.9h-0.3v-0.1L181,218.9L181,218.9z M185.9,212.1L185.9,212.1
		C186.7,212.6,186.7,212.6,185.9,212.1z M186.7,217L186.7,217C187.6,217.5,187.6,217.5,186.7,217z M188.1,208.3L188.1,208.3
		C189.4,207.9,189.4,207.9,188.1,208.3z M191.4,209.6c-0.3,0.9-0.5,1.1-0.8,0.6C191.5,208.7,191.8,208.6,191.4,209.6z M190.9,220.6
		c0-0.1,0-0.1-0.1-0.2C191.4,221.3,191.4,221.4,190.9,220.6z M191.3,216.1L191.3,216.1C192.4,215.2,192.4,215.3,191.3,216.1z
		 M192.5,210.6c0.8,0.6,0.8,0.7,0,0.2C192.5,210.8,192.5,210.7,192.5,210.6z M193.1,215.1c0-0.1-0.1-0.1-0.1-0.2
		C193.9,215.5,193.9,215.6,193.1,215.1z"/>
	<path d="M14.5,166.1c0.8,1.9,0.9,1.9,0.1-0.1C14.5,166,14.5,166.1,14.5,166.1z"/>
	<path d="M11.1,155.8C11.8,156.7,11.8,156.7,11.1,155.8L11.1,155.8z"/>
	<path d="M12.1,160.3C12.9,161.5,12.9,161.5,12.1,160.3C12.1,160.2,12.1,160.2,12.1,160.3z"/>
	<path d="M13.8,154.6c1.3-1,1.1-1.6-0.5-1.6c-0.4,0.6-0.3,1.2,0.2,1.6C13.6,154.6,13.7,154.7,13.8,154.6z"/>
	<path d="M185.7,183.2c0,0-0.1,0-0.2-0.1c0.1,0.2,0.1,0.5,0.2,0.7c0-0.1,0-0.1,0-0.2S185.7,183.4,185.7,183.2L185.7,183.2z"/>
	<path d="M187.6,187.1c-0.1,0-0.2,0-0.3,0c-0.3-0.1-0.6-0.2-0.8-0.3l-0.1,0.6c0,0.2,0.1,0.3,0.3,0.2c0.7,1,1.3,1.4,1.5,1.4l0.3-0.1
		l1.5,0.9h0.5v-0.1C189.1,189.2,188.2,188.3,187.6,187.1z"/>
	<path d="M182.6,177.8c0-0.1,0-0.1-0.1-0.2c-0.8-0.5-1.5-0.8-2.2-0.9l0.6,0.2C181.6,177.1,182.2,177.4,182.6,177.8z"/>
	<path d="M27.5,119.1c0,0.1-0.1,0.2-0.1,0.2C27.8,120.6,27.8,120.5,27.5,119.1z"/>
	<path class="st5" d="M173.1,193.7c0.6-1.1,1.1-2.1,1.5-2.9c0.9,0.9,1.5,1.4,1.8,1.4c0.4,0,0.6-0.1,0.5-0.3l0.1-0.5
		c-0.6-0.8-1.2-1.4-1.7-2.1c0.7-1.5,1.1-2.5,1-2.9h-1.4c-0.3,0.3-0.6,0.8-0.9,1.4c-0.2-0.2-0.4-0.5-0.5-0.7
		c-0.3-0.3-0.5-0.6-0.8-0.7h-1.1c0,0.2,0,0.4-0.1,0.7l1.7,2.2c-0.6,1.7-1,2.8-1,3.5C172.4,193.3,172.6,193.6,173.1,193.7z"/>
	<path class="st5" d="M174.7,207.3c0-0.8,0-1.6,0.3-2.2c0.5-1.2,1.9-1.8,4.1-1.9c1.4,0,2.4,0.2,3.1,0.7c0.6,0.4,1,0.6,1.2,0.6
		s0.4,0,0.5,0c0.1-0.1,0.1-0.1,0.2-0.2l0.1-0.4c-3.9-1.9-6.8-2.3-8.6-1.2c-1.3,0.8-1.9,2-1.8,3.7c0,0.4,0.2,0.8,0.7,1.2L174.7,207.3
		z"/>
	<path class="st5" d="M185.3,191.7c-0.5-0.9-1.2-1.9-2.1-2.9c0.7-1.2,1.1-2,1.1-2.4l0,0h-1.1c-0.4,0.2-0.7,0.6-1.1,1.1
		c-0.4-0.4-0.7-0.8-1.1-1.1h-1.8c0.4,0.6,1.1,1.3,2,2.3c-0.6,0.9-0.9,1.6-0.9,2c0,0.2,0,0.4,0,0.4s0.1,0.1,0.2,0.2l0.4,0.1
		c0.4,0,0.9-0.5,1.5-1.3c0.7,0.7,1.5,1.4,2.4,2.2C184.9,192.2,185.1,192,185.3,191.7z"/>
	<path d="M22.7,159.9c0.6,0.4,0.5,0.1-0.2-0.7C22.4,159.6,22.5,159.8,22.7,159.9z"/>
	<path d="M23.2,154.4c0.3,2,0.4,2,0.3,0.3c0,0,0-0.1-0.1-0.1c0-0.1,0-0.2,0.1-0.2c0.1-0.5,0-1-0.5-1.4c-0.3,0.5-0.3,0.9,0,1.3
		C23.1,154.3,23.1,154.4,23.2,154.4z"/>
	<path d="M22.1,155.3l-0.2,0.2C22.8,156,22.8,155.9,22.1,155.3z"/>
	<path d="M26.7,127.7c1,0.6,1.1,0.2,0.2-1.4c-0.4,0.3-0.5,0.6-0.4,1L26.7,127.7z"/>
	<path d="M20,152.3l-0.1,0.1C20.7,153.2,20.7,153.1,20,152.3z"/>
	<path d="M23.9,148.7L23.9,148.7C24.8,149.5,24.8,149.5,23.9,148.7z"/>
	<path d="M17.8,155.4c0.7,0.1,0.6-0.2-0.3-1c-0.1,0-0.1,0.1-0.1,0.2c-0.3,0.3-0.4,0.7-0.3,0.9c0,0.1,0.1,0.1,0.1,0.2
		c0,0.4,0,0.7,0.2,1c0,0.1,0.1,0.2,0.1,0.2c0.4,1.2,0.8,2.4,1.4,3.6c0.1,0,0.1,0.1,0.1,0.2c0.3,1.4,0.7,2.8,1.1,4.2
		c0.1,0,0.1,0.1,0.2,0.1c-0.2-1.4-0.5-2.7-1-4c0-0.1-0.1-0.2-0.1-0.2c0-0.1,0-0.1,0-0.2c-0.3-1.2-0.7-2.3-1-3.5V157
		c-0.2-0.6-0.4-1.2-0.6-1.7C17.7,155.5,17.8,155.4,17.8,155.4z"/>
	<path d="M16.8,172l-0.1,0.1c1,0.8,1.1,0.6,0.3-0.4c0-0.1,0-0.2,0.1-0.2c-0.4-0.8-0.8-1.6-1.4-2.3c0.3,0.9,0.6,1.8,0.9,2.7
		C16.7,171.9,16.8,171.9,16.8,172z"/>
	<path d="M4.2,161.8C4,162.1,4,162.3,4,162.6c0,0.2,0.2,0.5,0.4,0.7c0.1,0.2,0.2,0.3,0.3,0.2C5.9,162.4,5.8,161.8,4.2,161.8z"/>
	<path d="M5.3,123.7c-0.1,0-0.1,0.1-0.1,0.2c0.1,0.1,0.1,0.1,0.2,0.1c1.5-0.8,2.2-2.2,2-4.4C6.7,121,6,122.3,5.3,123.7z"/>
	<path d="M9.9,152.1c0.3,1,0.4,1,0.1-0.1C9.9,152,9.9,152,9.9,152.1z"/>
	<path class="st5" d="M21.4,171.3c-0.1,0-0.2,0-0.2,0.1c0.5,0.5,0.5,1,0.1,1.4c-0.1,0.1-0.1,0.2-0.1,0.2c-0.7,0.2-1.4,0.6-2,1
		c0,0.1-0.1,0.1-0.1,0.1c-0.1,0.2-0.2,0.3-0.4,0.3c-0.3,0-0.7-0.5-1.1-1.6c0.1,0.7,0.2,1.4,0.4,2.1c0,0.1,0.1,0.1,0.1,0.2
		c0,0.3,0.1,0.6,0.4,0.9l-0.1,0.3c-0.1,0.1-0.1,0.2-0.2,0.3c1.5,2.6,2.8,5.6,4,9c0.5,1.7,1.1,4.1,1.8,7.1c0.5,0.2,0.9,0.4,1.4,0.6
		v1.3c0,0.2,0.1,0.5,0.3,0.7c-0.1,0.2-0.1,0.3-0.1,0.4l2,10.8c0.6,2.7,1.2,5.2,1.6,7.5l3.9,13.4c-0.1,1.5,1.3,2.2,4.2,1.8
		c0-0.1,0-0.1,0.1-0.1c0,0.1,0.1,0.1,0.2,0.1h1.8l0.1,0.1v0.1c0,0,0.2,0,0.4-0.1c1.8,0.3,2.8,0.2,3-0.1c0.8,0.2,1.4-0.5,1.7-2
		s0.5-2.3,0.5-2.5c0.4-0.2,0.7-1.2,0.9-3c0.7-1.3,1.5-4.6,2.5-9.8l-0.2-0.2c0.6-1.1,1.2-3.5,2-7.1c0.2-1.1,0.4-2.3,0.7-3.6
		c0.4,1.3,0.7,2.6,1,3.8c0.9,3.6,1.6,6,2.2,7.1l-0.1,0.2c1.2,5.2,2,8.4,2.5,9.6c0.4,1.1,0.8,2,1.1,2.5s0.5,1.1,0.8,1.9
		c0.3,0.7,0.8,1.6,1.4,2.6c0.1,0.6,1.2,0.9,3.3,0.7c0.3,0,0.4,0.1,0.5,0.1v-0.1l0.2,0.1h1.9c0.1,0,0.1,0,0.1-0.1
		c0.1,0,0.1,0,0.1,0.1c2.8,0.2,4.4-0.3,4.8-1.4l2.9-12.3v-1.7c0.3-2.3,0.7-4.9,1.3-7.6l1.7-11.2c0-0.1,0-0.2-0.1-0.4
		c0.2-0.2,0.2-0.5,0.2-0.7v-1.4c0.4-0.6,0.5-1,0.5-1.4c0-0.1-0.1-0.1-0.2-0.1l0.7-4.3l-0.1-0.3c0.2-0.3,0.4-1.3,0.6-3l1.5-8.3
		c0.1-0.8,0.1-1.4,0-1.9v-0.4c-0.3-0.5-0.6-0.8-1-1.1c-0.2-0.4-1.5-0.4-3.9-0.1h-0.1c-1,0.1-1.9,0.1-2.6-0.1
		c-0.1-0.1-0.7,0.1-1.8,0.4c-0.4,0.2-0.8,0.9-1.2,2.2c-0.2,2.1-0.7,4.7-1.5,7.6c-0.2,0.9-0.3,1.7-0.4,2.5l-0.2,1
		c-0.1,0.2-0.5,3.1-1.5,8.7l0.2,0.3c-0.4,1.2-0.6,2.5-0.7,3.8c-0.1,0-0.2,0.1-0.2,0.2h0.2c-0.1,0.2-0.2,0.4-0.3,0.4l0.2,0.5
		c-0.6,1.5-1.2,5-1.7,10.8H63c-0.6-1.8-1.3-5-2.1-9.6c-0.2-0.7-0.4-1.9-0.7-3.4l-0.2-1.1c-0.3-2.4-0.6-4-0.9-5c0-0.1,0-0.1,0.1-0.1
		l-1-6v-0.9c-0.1-0.2-0.3-1-0.6-2.5c-0.1,0-0.2-0.2-0.3-0.5c0-0.1,0-0.1,0.1-0.1c-0.3-1.5-0.7-2.8-1.1-3.9c0.1-0.2,0.1-0.4,0.2-0.5
		c0-0.2-0.1-0.5-0.3-0.9l0.1-0.5c-0.8-0.9-1.2-1.3-1.3-1.3c-0.3,0.1-0.6,0.1-0.9,0.1c-0.3-0.2-1.2-0.4-2.7-0.4c0,0-0.1,0.1-0.2,0.1
		c-0.7-0.1-1-0.2-1-0.3c-1.9,0.1-2.8,0.3-2.8,0.6c-0.1,0.1-0.3,0.1-0.4,0.2c-0.1,0-0.2-0.1-0.4-0.1s-0.6,0.5-1.3,1.4l0.2,0.5
		c-0.2,0.3-0.3,0.6-0.3,0.9c0,0.1,0,0.2,0.1,0.3c-0.4,1-0.7,2.2-0.9,3.7c0.1,0,0.1,0,0.1,0.1c-0.1,0.4-0.2,0.5-0.2,0.6
		c-0.3,1.5-0.5,2.3-0.7,2.4v0.9l-0.8,6.1c0.1,0,0.1,0,0.1,0.1c-0.2,0.9-0.5,2.6-0.8,5l0,0l-0.3,1.2c-0.2,1.6-0.3,2.7-0.5,3.5
		c-0.7,4.6-1.3,7.8-1.9,9.6h-0.3c-1.1-5.4-1.8-8.6-2-9.8l-0.2-1.5c-0.1,0-0.1-0.1-0.2-0.4h0.1c0-0.1,0-0.2-0.1-0.2
		c-0.6-2.3-1.3-5.5-2-9.8c-0.8-4.2-1.4-8.4-1.8-12.6c0.1,0,0.3,0,0.4-0.1c0.1,0,0.1-0.1,0.1-0.2v-0.1c-0.1-0.4-0.4-0.8-0.7-1.1
		c-0.1,0-0.1,0.1-0.1,0.1c-0.4-0.8-0.9-1.4-1.5-1.7c0.1-0.3,0.1-0.6,0.2-1c0.1-0.1,0.1-0.2,0.1-0.2c0.1-0.3,0.2-0.6,0.2-1
		c0.1-0.1,0.1-0.1,0.1-0.1c0.5,0,0.6-0.5,0.3-1.2c-0.4,0.3-0.6,0.7-0.6,1c0,0.1,0,0.2,0,0.2c0,0.3-0.1,0.5-0.3,0.8
		c-0.1,0.1-0.1,0.1-0.2,0.2c-0.1,0-0.1-0.1-0.1-0.2c0,0,0-0.1,0.1-0.1c0-0.1,0-0.1,0.1-0.2c-0.1-0.5-0.2-0.9-0.3-1.4
		c0.1-0.1,0.1-0.1,0.1-0.2c0-0.6,0-1.2,0-1.8c0-0.1,0-0.1,0.1-0.2c0.1-0.6,0.1-1.1,0.2-1.7c-0.1,0.1-0.2,0.2-0.3,0.4
		c0,0.1,0,0.1-0.1,0.2c-0.1,0-0.1-0.1-0.2-0.1c0-0.1,0-0.1,0-0.1c0.1-0.5,0.1-1,0-1.4c0-0.1,0.1-0.2,0.2-0.2
		c0.3-0.4,0.5-0.8,0.4-1.1c-0.1,0-0.1-0.1-0.2-0.2l-0.1-0.1h-0.1c-0.6,0.4-1-0.1-1.1-1.3c0.1-0.1,0.1-0.1,0.1-0.1
		c0-0.5-0.1-1-0.1-1.4c0.1-0.1,0.1-0.2,0.2-0.2c0.1-0.3,0.1-0.5-0.1-0.7c0-0.1,0-0.1,0.1-0.2c0-0.1,0-0.2,0-0.4c0,0,0.1-0.1,0.1-0.2
		c0.2-0.5,0.4-1.1,0.6-1.6c-0.3-0.2-0.4-0.5-0.4-0.8c-0.3,0.6-0.7,0.8-1.2,0.6c-0.3,0.4-0.4,0.8-0.2,1.3c0,0.1,0,0.1,0.1,0.1
		c0,0.2,0.1,0.5,0.2,0.7c0,0.1,0,0.2,0,0.2c0,0.4,0,0.8,0.1,1.2c0,0.1,0.1,0.1,0.1,0.2c0,0.5,0,1,0,1.5c0,0.1-0.1,0.2-0.1,0.2
		C29,163,29,163.5,29,164c0,0.1,0,0.1,0.1,0.2c-0.5,1-0.5,1.4,0,1.2c0,0,0.1,0,0.1,0.1c0,0.1,0,0.1,0,0.2c0,0.1,0,0.1,0.1,0.2
		c0.4,0.6,0.6,1.2,0.6,1.9c0,0.1,0,0.1,0.1,0.1c0,0.1-0.1,0.1-0.1,0.2c-0.1,0-0.1,0-0.1,0.1c0,0-0.1,0-0.2-0.1
		c-0.3-0.3-0.7-0.4-1-0.5c-0.5-0.1-1-0.7-1.7-1.7l0.1-0.1c0.2-0.3,0.3-0.5,0.5-0.8c0.1,0,0.1-0.1,0.1-0.2c0-0.4-0.4-0.4-1,0
		c-0.1-0.1-0.1-0.1-0.1-0.1c-0.4-1.4-0.2-2.9,0.4-4.4c0.1,0,0.1-0.1,0.1-0.2c0.4-1.1,0.2-1.4-0.4-1c0-0.1-0.1-0.1,0-0.2
		c-0.1-3,0.2-5.8,0.8-8.3v0.1c-0.4-3.2,0-6.5,1.3-9.9c-0.1-0.1-0.1-0.1-0.1-0.2c0.1-1.7,0-3.3-0.3-5c0,0,0.1-0.1,0.1-0.2
		c0.4-1.5,0.1-2-0.8-1.6c0.1,0.5,0.3,1.1,0.5,1.8c0,0.1,0.1,0.2,0.1,0.2c-1.6,5.1-2.2,10-1.8,14.7c0,0.1-0.1,0.1-0.1,0.2
		c-0.8,1-1.1,2-0.9,3.2l0.2-0.3c0.6-0.7,0.8-0.2,0.7,1.5c-0.2,2.1-0.5,4-0.9,5.6c0-0.5-0.2-0.9-0.4-1.4c0-0.1-0.1-0.1-0.1-0.1
		c0.1-0.7-0.1-1.4-0.7-2.1c0,0.8,0.2,1.6,0.5,2.3c0,0.1,0.1,0.1,0.2,0.2c0.1,0.5,0.2,0.9,0.2,1.4c0,0.1,0.1,0.1,0.1,0.2
		c0.1,0.3,0.1,0.6,0.2,0.8c0.2,0.9,0,1.4-0.5,1.6c-0.5,0.1-1.2-0.5-2.1-1.8c0,0.4,0,0.7-0.1,1c-0.1,0.1-0.1,0.1-0.1,0.2
		c-0.1,0.3-0.2,0.7-0.3,1c0,0.1,0.1,0.1,0.1,0.1c0.1,0.3,0.2,0.5,0.3,0.8c0,0.1,0,0.1,0.1,0.2c-0.2,1.4-0.2,1.7,0,0.8l0.1-0.1
		c0.2,0.6,0.4,1,0.6,1.1l0.1,0.1c0,0.7-0.1,1.3-0.4,2c-0.1,0.3-0.2,0.3-0.3,0.2c-0.5-1.5-1.3-2.7-2.3-3.7c0.1,2.1,0.5,4.1,1.1,6.1
		L21.4,171.3z M71.2,175.6L71.2,175.6l0.2,0.2c0,0.1-0.2,0.2-0.4,0.3h-0.1C70.9,175.8,71.1,175.6,71.2,175.6z"/>
	<path class="st5" d="M94.4,260.4c0,0-2.4-0.6-7.4-0.9s-7.2,0.1-7.2,0.1l0.8,3.1l-65.9-6.5c0,0-1-0.1-1.4,3.7s0.6,3.9,0.6,3.9
		l65.6,6.4c-0.4,0.8-1.7,2.8-3.5,4.1c-2.3,1.7-7.3,2.2-7.3,2.2c1.9,4.1,5.1,6.7,8.4,7.7h15.2l0.1-0.2c0,0-0.4-0.3-0.8-0.8l0.8,0.6
		c0,0-0.7-1.8-1.3-3.9c-0.6-2.1-0.7-4.9-0.7-4.9c-0.9,0.9-0.8,4.1-0.7,5.8c-0.5-0.8-0.8-1.6-0.9-2.5c-0.3-2.5-0.3-4.6,0.3-7.1
		l9.2,0.9c0,0-2-0.2-1.6-4c0.4-3.8,2.4-3.6,2.4-3.6l-6.2-0.6L94.4,260.4z"/>
</g>
<g>
	<path class="st3" d="M229.9,274.1h0.2v0.2h-0.5C229.7,274.2,229.8,274.2,229.9,274.1z M227.2,232.9c-1,0-1.5,1.6-1.6,4.7
		c0.1,0.1,0.1,0.2,0.1,0.3l-0.1,0.2c0,0.2,0,0.3,0.1,0.5l-0.1,3.1l0.3,3.3c-0.1,0-0.2,0.2-0.2,0.6c0,0.2,0,0.3,0.1,0.5
		c-0.1,2.4-0.1,4.3,0,5.6l0.1,0.2l-0.1,0.1v0.7l0.1,0.2c-0.1,0-0.2,0.3-0.3,1l0.1,0.2c0,0.2,0,0.4-0.1,0.6c0.1,0.4,0.1,0.7,0.2,1
		v0.9l-0.1,0.6l0.1,0.1c-0.1,0.1-0.1,0.3-0.1,0.5v1.5c0,1.5,0,2.6-0.1,3.3l0.1,0.1h-0.1l0.1,0.8v0.1l-0.1,0.6l0.1,0.1l-0.1,0.5
		l0.1,0.2c-0.1,0.4-0.2,0.7-0.2,0.8l0.3,2.6c0,0.7-0.1,1-0.1,1.1c0.3,3.4,0.8,5.3,1.4,5.6c0,0.5,0.8,0.8,2.2,1
		c0.2,0,0.3-0.1,0.5-0.1c0.1,0.1,0.3,0.1,0.5,0.1c2-0.4,3.2-0.9,3.7-1.5c0-0.1,0-0.2-0.1-0.3c0.3-0.5,0.5-0.7,0.6-0.7v0.2h0.2
		l0.2-1.7l-0.1-0.2c0,0,0-0.3,0.1-0.7c-0.1-1.7-0.3-2.7-0.4-3.2h0.1c-0.1-1.1-0.2-1.9-0.2-2.2l0.1-0.6c-0.1,0-0.2-0.2-0.3-0.7
		l0.2-0.5l-0.1-0.7v-0.9c0-0.5-0.1-1-0.2-1.4c0.1-0.4,0.1-0.9,0.1-1.4v-0.4c0-0.3-0.1-0.7-0.2-1.2c0.1-0.7,0.2-1,0.3-1h0.1
		c0.7,1.7,1.5,3.2,2.2,4.6c1.8,2.7,3.6,5.9,5.3,9.5c1.9,2,3.3,3.2,4.3,3.7c1.3,0.2,2.1,0.4,2.3,0.5h0.2l0.2-0.1v0.1
		c0.2,0,0.3-0.1,0.5-0.1l1.2,0.2l0.5-0.1l0.1,0.1c0.2,0,0.3-0.2,0.3-0.5c0.7-0.4,1.2-1,1.5-1.9v-0.6c0-0.2,0-0.3-0.1-0.5l0.1-0.2
		c-0.1-0.8-0.1-1.4-0.1-1.8l-0.1-2.3c0-0.1-0.1-0.2-0.3-0.2c0-0.1,0.1-0.3,0.2-0.6l-0.1-0.2l0.2-1.8l-0.1-0.5l0.1-0.4
		c-0.2-0.6-0.2-1-0.2-1.1l-0.1-1.8l-0.1-0.2c0.2,0,0.3-0.5,0.3-1.5l-0.1-1.1l0.2-0.5c0-0.1,0-0.2-0.1-0.3l0.1-0.2
		c0-0.1-0.1-1-0.2-2.7l-0.1-0.2h0.1l-0.1-0.6v-1.1c0-0.4,0-0.9,0.2-1.4c0-0.2-0.1-0.5-0.2-0.8c0-0.1,0-0.3,0.1-0.7
		c0-0.1,0-0.2-0.1-0.4c0.1-0.1,0.1-0.3,0.1-0.5v-1.6l-0.1-0.2h0.1l-0.3-2.5l0.1-0.1l-0.1-0.7v-0.5l0.1-1.2c-0.1,0-0.3-0.3-0.4-0.9
		l0.2-2.4c-0.1,0-0.2-0.2-0.3-0.5c0.1-0.4,0.1-0.8,0.1-1v-0.8l-0.1-0.8l0.1-0.1l-0.1-0.2l0.1-0.6c-0.2-0.5-0.2-0.8-0.2-0.9
		c0-0.7-0.8-1.1-2.2-1.2h-0.2c-0.3,0-0.8,0.1-1.3,0.4c-0.3-0.1-0.7-0.2-1.3-0.2h-0.1l-0.2,0.1v-0.1c-0.9,0.1-1.4,0.3-1.3,0.6
		c-0.7,0-1.2,1.5-1.3,4.5c0.3,2.7,0.4,4.1,0.5,4.1c0.5,6.2,0.7,9.3,0.9,9.3h-0.1l0.1,0.6c0,0.3,0,0.6-0.1,0.9
		c0.2,0.6,0.3,1.2,0.3,1.9l0.1,3l-0.1,0.6c0.1,0,0.2,0.1,0.2,0.3v0.5l-0.1,1.4h-0.1c-0.1,0-0.3-0.4-0.6-1.2c-1.2-4.4-2.3-7.4-3.3-9
		c-1.6-4.6-3.2-8-4.6-10.4c-0.1-0.5-1.1-2.5-3.2-6.1c-1.4-0.8-2.7-1.3-3.9-1.2C228.2,232.6,227.4,232.7,227.2,232.9z M206.3,242.8
		c0.5-0.7,1.5-1,2.9-1.1h0.7l0.5,0.1l0.1-0.1l0.1,0.1c1,0,1.9,0.5,2.8,1.6l-0.1,0.1c0.4,1.5,0.6,2.4,0.6,2.8l-0.1,0.1
		c0,0.1,0.1,0.4,0.2,0.8l-0.1,0.1v0.1l0.1,0.2h-0.1c0.1,1,0.2,1.6,0.3,1.6l-0.1,0.1v0.1c0,0.2,0.1,0.3,0.1,0.4
		c-0.1,0.1-0.1,0.3-0.1,0.5v0.3l0.1,0.5l-0.1,0.1c0,0.1,0.1,0.2,0.2,0.2l-0.1,1.3v0.5l0.1,0.2l-0.1,0.1c0,0.1,0.1,0.2,0.2,0.2
		c-0.1,0.1-0.1,0.5-0.2,1.1l0.1,0.1h-0.1l0.3,2.1l-0.1,0.1l0.1,0.2c0,0.1,0,0.2-0.1,0.3l0.1,0.2l-0.1,3l0.1,0.1l-0.1,0.2l0.1,0.2
		h-0.1c-0.1,2.6-0.3,4.1-0.6,4.4c-0.3,1.8-1.7,2.8-4,2.9c-1.4-0.6-2.5-1.4-3.1-2.5c-0.7-2.2-1.3-4.3-1.6-6.3l0.1-0.2
		c0-0.1,0-0.2-0.1-0.3h0.1c-0.2-0.7-0.3-1.5-0.4-2.3l0.1-0.2c-0.2-1.4-0.3-2.3-0.3-2.9c0-0.1,0-0.2,0.1-0.3
		c-0.1-0.1-0.1-0.3-0.1-0.4v-0.8l0.1-0.6l-0.1-0.1l0.1-0.1v-0.1c0-0.2,0-0.3-0.1-0.4c0.1-0.1,0.1-0.7,0.2-2l-0.1-0.5
		c0.2-2,0.3-3,0.3-3.1l-0.1-0.1C205.3,244.2,205.8,243.3,206.3,242.8z M204.5,234.2l-0.1-0.1h-0.1c-0.6,0-1.5,0.5-2.8,1.4
		c-1.1,0.7-1.7,1.3-1.9,1.9c-0.8,2-1.3,3.7-1.5,5.4v0.3l0.1,0.5l-0.1,0.1l0.1,0.2c-0.1,0-0.1,0.1-0.2,0.3c0,0.1,0,0.2,0.1,0.3
		c-0.2,0.8-0.3,2-0.3,3.6c0.1,0.1,0.1,0.3,0.1,0.3l-0.1,0.2l0.1,0.2h-0.1c0.1,0.7,0.2,1.3,0.2,1.6l0.1,2.9c0,0.8,0.1,1.9,0.2,3.2
		c-0.1,0.1-0.1,0.3-0.1,0.5l0.1,0.1l-0.1,0.2c0,0.1,0,0.2,0.1,0.3c0,0.9,0,1.5,0,1.9c0,0.4,0.1,1.1,0.2,2l-0.1,0.2
		c0.2,1.1,0.4,2.2,0.4,3.3v0.7c0.3,0.8,0.5,1.6,0.5,2.2c0.5,3.4,1.1,5.1,1.6,5.1c0.4,0.7,0.8,1.2,1.2,1.6c2.7,1.5,5.5,2.2,8.4,2.1
		l0.1-0.2c1,0,1.7,0,2.2,0h0.1c1.6-0.3,2.6-0.6,3-0.9c1.3,0,2.8-1.2,4.6-3.4c0.5-0.6,1-2.1,1.4-4.8l-0.1-0.2l0.1-0.2
		c0-0.3,0-1.6,0-3.7l-0.1-0.5c0.1,0,0.1-0.4,0.2-1.1c-0.1-0.5-0.2-0.8-0.2-1c0.1-0.7,0.2-1.8,0.1-3.4c0-1-0.2-3.1-0.5-6.3
		c0.1-0.6,0.1-1.1,0.1-1.7c0-0.2-0.1-0.6-0.2-1.2l0.1-0.1c-0.1-0.1-0.1-0.3-0.1-0.5v-0.1c-0.1-1.8-0.2-2.8-0.4-3.1h0.1
		c0-0.3-0.2-1-0.6-2.2c-0.1-1.9-0.8-3.8-2.4-5.6c-0.9-0.7-2.2-1.6-3.9-2.5l-4.7-0.8C207,233.6,205.4,233.9,204.5,234.2z M193,273.5
		l0.1,0.6v0.2h0.2v-0.8H193z M192.9,270.3L192.9,270.3l0.1,0.3l-0.1,0.2h0.1c0,0.4,0,0.9,0,1.7l0.1,0.2c-0.1,0-0.1,0.2-0.1,0.5h0.2
		c0-0.2-0.1-0.4-0.1-0.5l0.1-0.2c0-0.1-0.1-0.4-0.2-0.8l0.3-0.8l-0.1-0.5C193.1,270.4,193.1,270.3,192.9,270.3z M159.1,236
		c-0.7,0.5-1.1,2.1-1,4.6c0.1,0.1,0.1,0.2,0.1,0.3l-0.1,0.2l0.1,0.2l-0.1,0.8l0.2,1.1c-0.2,0.3-0.2,0.6-0.2,0.9l0.1,1.7l0.1,0.5
		c-0.1,0-0.1,0.1-0.1,0.4s0.1,0.7,0.2,1.1c-0.1,0.3-0.1,0.6-0.1,0.8c0,0.3,0.1,0.5,0.1,0.7l-0.1,0.7l0.1,2l-0.1,0.6l0.1,0.1
		c0,1,0.1,2,0.2,3.2c0,1.8-0.1,3.2-0.2,4.2c0.1,0.2,0.1,0.3,0.1,0.3c-0.1,0.5-0.1,1-0.1,1.5v0.2l0.1,0.2h-0.1l0.4,6.1
		c0,0.5-0.1,1-0.1,1.3l0.1,0.2c-0.1,0.1-0.1,0.3-0.1,0.5v0.5l0.1,0.7c-0.1,0.1-0.1,0.3-0.1,0.6v0.2c0,0.2,0,0.3,0.1,0.5
		c-0.1,0.1-0.1,0.3-0.1,0.5l0.1,2.8c0.2,1.3,1.1,2,2.5,2c0.6-0.1,1-0.2,1.1-0.3l0.1,0.1h0.2c0.1,0,0.2-0.1,0.2-0.2l0.1,0.1
		c0.4,0,1.6-0.3,3.3-0.8c0.6-1.8,0.7-3.6,0.6-5.2v-0.1l0.1-0.6l-0.1-0.1l0.1-0.7v-0.3l-0.1-0.6c0.1,0,0.1-0.1,0.1-0.2
		c0-0.2,0-0.5-0.1-0.9l0.1-0.2c-0.1-0.1-0.1-0.3-0.1-0.5v-0.5c0-0.3,0-0.6,0.1-1c-0.1-0.1-0.1-0.9-0.1-2.5c0,0,0-0.3,0.1-0.7
		l-0.3-0.4c0-0.2,0-0.3,0.1-0.4l-0.1-0.5c0-0.1,0-0.4,0.1-0.9c0,0-0.1-0.3-0.2-0.8c0-0.1,0-0.2,0.1-0.3c0.1,0.1,0.4,0.8,0.9,2.2
		l-0.1,0.2l1.4,3.5h-0.1c0.8,2.6,1.6,4.7,2.4,6.2c1.1,2.7,1.9,4.1,2.2,4.1c0,0.7,1,0.9,2.9,0.7c1.1,0,1.7-0.1,1.8-0.2
		c1.1,0.1,2-1,2.7-3.2c0.3-1,0.8-2.1,1.4-3.3c0.2-1.1,0.6-2.5,1.4-4.2l-0.1-0.4h0.1l0.5-0.9c0-0.8,0.2-1.8,0.7-3l0.2,0.1l-0.1,0.1
		c0,0.3,0.2,0.6,0.6,1c0,0.8,0,1.6,0,2.2l0.1,2.4l-0.1,0.6l0.1,0.1c-0.1,0.5-0.1,0.9-0.1,1.2v0.2c0,0.2,0.1,0.4,0.2,0.7
		c0,0.2,0,0.4-0.1,0.6c0.3,2.2,0.4,3.9,0.3,5.1c0.9,1.4,2,2.1,3.4,2h0.7c1.1-0.2,2.1-0.3,2.9-0.3c1.4-0.6,2-1.4,2-2.6l-0.1-0.2
		c0.1-0.5,0.1-0.9,0.1-1.2v-1.2c0-0.6-0.1-1.3-0.2-2.2c0.1-0.1,0.1-0.3,0.1-0.6c-0.1-1.1-0.3-1.9-0.4-2.2h0.1l-0.1-0.8v-0.9
		l-0.1-0.2h0.1c0-0.3-0.1-0.7-0.2-1h0.1c-0.2-1.1-0.3-1.7-0.3-1.9l0.1-0.2L194,262l0.1-1l0.1-0.8l0.1-0.1c0-0.3-0.1-0.6-0.2-0.9
		c0.1-0.7,0.2-1.2,0.2-1.3s-0.1-0.5-0.2-1.1c0-0.2,0-0.7,0.2-1.7l-0.3-2l0.1-0.1l-0.3-1.8l0.3-0.6c0-0.1-0.1-0.4-0.3-0.7l0.1-0.2
		c0-0.4-0.1-0.8-0.3-1.2h0.1l-0.3-1.4c0.1-0.1,0.1-0.3,0.1-0.3c0-0.3-0.1-0.7-0.3-1.3l0.1-0.2l-0.3-2.5c0.2,0,0.3-0.9,0.3-2.6
		c-0.1-2.3-0.2-3.5-0.4-3.5c0.4-1.4-0.5-2.2-2.7-2.3c-0.3,0.1-0.4,0.1-0.4,0.1l-0.2-0.1l-1.5,0.1l-0.2-0.1c-0.3,0.1-0.4,0.1-0.5,0.1
		c-0.8,0.7-1.5,1.8-2.1,3.3c-1.5,5.1-2.6,8.1-3.3,9c-0.6,2.2-0.9,3.3-1.1,3.3c0,0-0.7,2-2.2,5.9c-1.4,3.7-2.1,6.2-2.3,7.5h-0.6
		l-1.6-6.2c-0.7-2.2-1.1-3.3-1.2-3.3c0-0.2,0-0.3,0.1-0.5c-0.3-0.8-0.5-1.2-0.6-1.2c0-0.1,0.1-0.2,0.2-0.2c-0.8-2.7-1.4-4.7-2-5.9
		v-0.1l0.1-0.6c-0.2,0-0.4-0.5-0.7-1.6h0.1c-1.1-3.2-2.1-5.3-3-6.1c-0.1-0.6-0.7-1.4-1.7-2.4h-4c-0.1,0-0.2,0-0.4,0.1l-0.1-0.1h-0.3
		C159.9,235,159.4,235.3,159.1,236z M134.3,276.4v0.3h-0.1c0-0.1,0-0.2-0.1-0.3H134.3z M140,273.9L140,273.9l-0.2,0.1v-0.1H140z
		 M140.6,271.7c0.1,0,0.2,0.1,0.2,0.2v0.1h-0.3L140.6,271.7L140.6,271.7z M143.8,257L143.8,257l-0.2,0.1V257l0.1-0.2
		C143.7,256.8,143.8,256.8,143.8,257z M140.6,256.5v0.2h-0.1L140.6,256.5L140.6,256.5z M141.8,240.9v0.2h-0.1L141.8,240.9
		L141.8,240.9z M142.3,237.6L142.3,237.6h-0.6v-0.1l0.1-0.2C142.1,237.4,142.3,237.5,142.3,237.6z M137.7,237.1l0.2,0.1l-0.1,0.2
		c-0.1,0-0.2-0.1-0.3-0.1c0.1-0.1,0.1-0.2,0.1-0.3L137.7,237.1z M132.1,235.9c-0.5,0.1-0.7,0.4-0.7,0.7c-0.7,0-0.8,1.7-0.4,4.9
		l0.1,0.2H131c0,0.2,0.1,1.7,0.1,4.7l0.1,0.1l-0.1,0.1c0.1,1.3,0,2.3,0,2.9l0.1,0.2c-0.1,1-0.2,2.1-0.1,3.3c0,0.1,0,0.2,0.1,0.4
		c-0.1,0.1-0.1,0.2-0.1,0.4v1.4v0.7l0.1,0.1c-0.1,0.1-0.1,0.4-0.2,0.9c0.1,0.1,0.1,0.2,0.1,0.3c0,0.4,0,0.9-0.1,1.5l0.1,0.1l0.2,2.8
		c0.1,0.7,0.1,1.2-0.1,1.3c0,0-0.1,0.1-0.1,0.2l0.1,0.2l-0.1,0.6v0.2l0.1,0.2h-0.1c0,0.7,0.1,1.4,0,2.2c0.1,2.2,0.3,3.6,0.4,4.4
		c0,0-0.1,0.1-0.1,0.2v0.3c0,0.5,0,0.8,0,0.8v0.8l0.1,0.2h-0.1c0,0.2,0,1.3,0.1,3.3s0.6,3,1.6,3s1.6,0,2,0h0.3
		c0.1,0.1,0.3,0.1,0.5,0.1l0.3-0.2h0.2v0.2c0.2,0,0.4-0.1,0.8-0.3c0.2,0.1,0.4,0.2,0.7,0.2l0.2-0.1v0.1l0.2-0.1
		c0.4,0.1,0.7,0.1,0.9,0.1s0.4,0,0.7-0.1c0.1,0,0.2,0.1,0.2,0.1l0.1-0.1l0.1,0.1h0.2c0.2,0,0.4-0.1,0.5-0.2c0,0.1,0.1,0.1,0.3,0.2
		c0.1-0.1,0.4-0.1,0.9-0.2l0.2,0.1l0.2-0.1l0.5,0.1c0.9-0.1,1.7-0.1,2.3-0.2l0.5,0.1c0-0.1,0.3-0.1,0.8-0.1c0.2,0.1,0.5,0.1,0.7,0.1
		h0.2l0.4-0.1c0,0.1,0.1,0.1,0.3,0.1s0.3-0.1,0.5-0.2c0,0.1,0.4,0.2,1.1,0.2c0.1,0,0.3-0.1,0.4-0.2h0.5l0.1-0.1
		c1.1-0.1,1.7-0.5,1.8-1.2c0.3-2,0.1-3.5-0.5-4.7c-0.1-0.7-0.2-1-0.4-1c0-0.5-0.6-0.8-1.9-0.9h-0.5l-0.4,0.1l-0.1-0.1
		c0,0.1-1.1,0.1-3.3,0.1c0,0-0.3,0-0.7,0l-2.7,0.2c-0.5,0-1.3,0.1-2.4,0.1c-1.1,0.1-1.6-0.2-1.3-0.8l-0.2-4.2l0.1-0.5
		c0.1-0.9,0.1-1.4,0-1.7h0.1c-0.1-0.4-0.2-0.6-0.3-0.6l0.2-0.3v-0.1c0-0.3-0.1-0.4-0.3-0.4v-0.2h0.1c0-2.1,0.7-3.2,2.1-3.3h1.3
		c0,0,0.5,0,1.3-0.1h0.9c0.3,0,0.6,0,0.9,0.2c0.1,0,0.2-0.1,0.2-0.2l0.8,0.1c0.7-0.1,1.1-0.2,1.3-0.2c0.8-0.2,1.5-0.5,2.1-1
		c0.2-1,0.3-1.5,0.4-1.7c-0.1-0.1-0.1-0.2-0.1-0.3v-0.6c0-0.9-0.3-1.8-0.7-2.6c-0.7-0.9-2.7-1.3-6.2-1.2l-0.8,0.1l-0.1,0.1
		c0-0.1-0.1-0.1-0.4-0.2L141,252v-0.1c-0.3,0-0.4,0.1-0.4,0.3h-0.2v-0.1h-0.5c-1.1,0-1.6-0.1-1.7-0.3v-0.1h0.2v-0.3
		c0-0.3-0.1-0.8-0.3-1.5c0.1-0.3,0.1-0.8,0.1-1.5v-0.9l-0.1-0.6c-0.2-1.1,0.4-2,1.6-2.6c0.1,0,0.1,0,0.2,0.1c1.3-0.3,1.9-0.5,2-0.5
		l0.1,0.1l1.2-0.2l3.5,0.1l0.1-0.1c0.2,0,0.3,0.1,0.3,0.3h0.2c0-0.2,0-0.3,0.1-0.3c0,0.2,0.1,0.3,0.2,0.3h0.1c0-0.1,0-0.2,0.1-0.3
		c0.6,0,0.9,0.1,0.9,0.2l0.8-0.3l0.5,0.1c0.4-0.3,0.5-0.4,0.5-0.5l0.2,0.1h0.2c0.5-0.1,1.1-0.5,1.9-1.2c0-0.1-0.1-0.2-0.2-0.4
		c0.2-0.7,0.3-1.5,0.3-2.6c-0.3-0.9-0.5-1.4-0.5-1.5c-0.4-0.3-0.7-0.5-0.7-0.6h-0.2v0.2h-0.1c0-0.3-0.2-0.5-0.7-0.7
		c-1.1-0.1-1.6-0.2-1.7-0.3h-0.1l-0.4,0.1c0-0.1-0.2-0.2-0.5-0.2l-0.1,0.1l-0.1-0.1H147l-0.1,0.1c0-0.1-0.4-0.1-1.1-0.1
		c-0.1,0.1-0.2,0.1-0.3,0.1l-0.3-0.1l-0.4,0.2c0-0.1-0.4-0.1-1.2-0.1l-0.2,0.1c0-0.1-0.1-0.2-0.2-0.2l-0.2,0.1v-0.1
		c-0.1,0-0.2,0-0.3,0.1c-0.5-0.1-1.1-0.2-1.9-0.2l-0.1,0.1c0-0.1-0.2-0.1-0.7-0.2l-0.2,0.1l-0.2-0.1l-0.8,0.1c-0.1,0-0.1,0-0.2-0.1
		c-0.1,0.1-0.2,0.1-0.4,0.1h-0.1c-0.4-0.1-1-0.1-1.7-0.2C134,235.6,132.6,235.8,132.1,235.9z M116.8,270.4c-0.1,0.1-0.1,0.2-0.1,0.2
		h-0.3l-0.1-0.2l0.1-0.1L116.8,270.4z M105.8,264.8v0.6h-0.2L105.8,264.8L105.8,264.8z M111.3,246.9c0-0.6,0.4-1,1.2-1
		c1.7-0.1,3.2,0.6,4.5,2.1c0.2,0.3,0.6,1,1.3,2.2c0.7,1.5,1.1,2.7,1.1,3.7c0,0.1,0,0.2-0.1,0.3c0.1,0.4,0.1,0.7,0.1,1v0.8
		c0,0.1,0,0.2,0.1,0.3c-0.1,0.1-0.1,0.3-0.1,0.4v0.2c0,0.5,0,1,0,1.7c0.1,0.1,0.1,0.2,0.1,0.3c0,0-0.1,0.2-0.3,0.7l0.1,0.2
		c-0.2,2.3-0.4,3.9-0.6,4.9l0.1,0.4l-0.2,0.2c-0.2,0.9-0.5,2-1,3.5c0,0.2-0.3,0.7-0.9,1.3l-0.2-0.1h-0.3v0.1
		c-0.5,0.3-0.7,0.5-0.7,0.7h-0.1l-0.3-0.2c-0.4,0.3-0.6,0.5-0.6,0.6h-1.2h-0.1l-0.1,0.1l-0.1-0.2c-0.1,0.1-0.3,0.2-0.5,0.2
		c0,0.2-0.2,0.4-0.6,0.4c0-0.1-0.1-0.4-0.2-0.8c0-0.4,0-1.2,0-2.5c0.3-2.7,0.4-5.3,0.3-7.7c0-0.1-0.2-1.3-0.4-3.6l0.1-0.2l-0.2-0.7
		c0.1-0.1,0.1-0.2,0.1-0.3v-0.2l-0.1-0.5l0.1-0.2c-0.1-0.9-0.2-1.6-0.2-2.2l0.1-0.4c-0.1,0-0.1-0.1-0.1-0.3v-0.5l0.1-0.4l-0.1-0.1
		c0-1.3,0.1-2.2,0.2-2.8l-0.1-0.1C111.2,247.4,111.3,247,111.3,246.9z M107.8,236.9c-0.1,0-0.2,0-0.5-0.1c-1.4,0-2.3,0.8-2.9,2.3
		c-0.3,0-0.6,1.6-0.9,4.9l0.1,0.1c-0.1,0.1-0.1,0.2-0.1,0.3v0.2c0,0.5,0,1,0,1.6l0.1,0.4c0,0.6-0.1,1.2-0.2,1.9l0.1,0.1
		c-0.1,0.3-0.1,0.6-0.1,0.8v0.7l0.1,0.1l-0.3,0.3c0,0.1,0.1,0.2,0.2,0.4c0,0.4,0,0.8-0.1,1c0.1,0.5,0.1,0.9,0.1,1.3l0.1,3.4l0.1,0.6
		c-0.1,0-0.1,0.4-0.1,1.3l0.1,0.1h-0.1c0,0.9,0.1,1.8,0.3,2.7l-0.1,0.1c0.1,0.1,0.1,0.2,0.1,0.4v0.2c0,0.2,0,0.5-0.1,0.8l0.1,0.2
		c0,0.5-0.1,0.9-0.1,1.2v0.1l0.1,0.4c-0.1,0-0.1,0.1-0.1,0.3v0.2l0.1,0.2c-0.1,0-0.1,0.1-0.2,0.3l0.1,0.2c0,0.1,0,0.1-0.1,0.2
		l0.1,0.6c0,0.4-0.1,0.7-0.1,0.7c0.1,0.3,0.1,0.5,0.1,0.5c-0.1,0.2-0.2,0.4-0.2,0.5c0,0.1,0,0.2,0.1,0.3c-0.1,0.1-0.1,0.2-0.1,0.2
		c0,1.3,0.1,2.5,0.3,3.6c0,0,0,0.4-0.1,1.2c0.1,1,0.1,1.7,0.2,1.9c0,0.4-0.1,0.7-0.1,0.7l0.1,0.1c0,1,0.3,1.7,0.9,2.1l-0.1,0.2
		c0.3,0.5,0.8,0.7,1.4,0.7l0.5-0.1c0.4,0.1,0.8,0.1,1.2,0.3c0.1,0,0.2,0,0.3-0.1l1.6,0.2l0.1-0.1l0.5,0.1l0.2-0.1l0.1,0.1h0.2
		c0.1,0,0.3,0,0.4-0.1c0.1,0.1,0.2,0.1,0.3,0.1h0.3c0.9,0,1.6-0.1,2-0.2c2.3-0.5,3.5-0.8,3.5-1h0.6h0.1c1-0.3,2.2-1.2,3.7-2.9
		c1.2-1.2,1.8-1.9,1.8-2.3c0.5-0.9,0.8-1.5,0.8-1.8c1.3-2.9,2-5,1.9-6.2l-0.1-0.1l0.1-0.2v-1l0.1-0.5c-0.1,0-0.1-0.1-0.1-0.2v-0.2
		c0.1-1.1,0.2-1.7,0.2-2v-1.5c0.1-0.2,0.2-0.5,0.3-1c-0.2-0.2-0.4-0.5-0.4-1l0.1-0.2c-0.1-0.1-0.1-0.2-0.1-0.3v-0.3
		c0-0.9-0.1-1.5-0.2-1.8h0.1l-0.1-0.4c0-0.2,0-0.3,0.1-0.4l-0.3-1.3c-0.4-2-0.8-3.3-1.2-3.9c-0.2-0.8-0.4-1.1-0.5-1.1
		c0-0.1,0-0.4,0.1-0.7c0-0.1-0.1-0.1-0.2-0.1c-0.6-2.2-1-3.4-1.1-3.7c0-0.4-0.6-1.5-1.8-3.1c-2.4-2.6-5.6-3.8-9.4-3.7h-1.2l-0.1,0.1
		l-0.1-0.1l-1.9,0.1l-0.5-0.1C108.2,236.8,108.1,236.8,107.8,236.9z"/>
</g>
</svg>
