<?xml version="1.0" encoding="utf-8"?>
<!-- Generator: Adobe Illustrator 25.4.1, SVG Export Plug-In . SVG Version: 6.00 Build 0)  -->
<svg version="1.1" id="Layer_1" xmlns="http://www.w3.org/2000/svg" xmlns:xlink="http://www.w3.org/1999/xlink" x="0px" y="0px"
	 viewBox="0 0 1635 1635" style="enable-background:new 0 0 1635 1635;" xml:space="preserve">
<style type="text/css">
	.st0{fill:#A22024;}
	.st1{fill:#FF0000;}
	.st2{fill:#FFFFFF;}
	.st3{fill:#010101;}
	.st4{fill:#F5FBF9;}
	.st5{fill:url(#SVGID_1_);}
	.st6{clip-path:url(#SVGID_00000181806480385404748480000014499216371078390164_);}
	.st7{clip-path:url(#SVGID_00000092432562313426189510000015534887276088042150_);}
	.st8{fill:#575858;}
	.st9{fill:#353635;}
	.st10{fill:#5F6161;}
	.st11{fill:#991E20;}
	.st12{fill:url(#SVGID_00000132777867488849513230000008045927002811605392_);}
	.st13{fill:url(#SVGID_00000102511268825489374950000012324714926178890117_);}
	.st14{fill:url(#SVGID_00000021827713835920473340000005949861326670570124_);}
</style>
<g>
	<path class="st0" d="M287,1045.9c-9.1,1.4-19,1-28.5,0.1c-25.7-2.3-51.4-5.2-77-8.2c-11.5-1.4-14.9,0.3-16.2,10.2
		c-0.3,2.5-0.6,5.1-0.9,7.5c6.4,8.3,21.7,0.5,27.8,13.9c-11.8-4.8-21.3-1.4-30.9-1.1c-14.5,0.5-11.8,12.2-20.5,14.5
		c5.1,2.7,9.2,4.9,13.4,7.1c-0.3,0.7-0.6,1.3-1,2c1.4-0.1,3.2,0.1,4.2-0.5c20.8-12.4,43.2-6,64.3,0.5c26.5,8.2,53.8,6.5,80.5,11.3
		c10.8,1.9,21.6,4.2,32.5,5.1c4.6,0.4,11.4-1.2,13.7-4c12.2-15,30.5-17.2,49.9-15.7c7.8,0.6,15.5,5,23.1,7.9
		c7.2,2.7,14.1,5.8,24.3,10.1c-1.9-7.8-3.1-12.5-4.6-18.6c21,2.8,40.9,5.5,60.8,8.2c0.1-0.6,0.2-1.2,0.3-1.8
		c-5.6-1.2-11.3-2.5-16.9-3.7c-0.1-0.6-0.2-1.3-0.3-1.9c8.5-2.4,17-4.9,25.5-7.3c-0.2-0.8-0.4-1.7-0.5-2.5c5,1.6,10,3.2,15.1,4.8
		c14.3,4.3,27.9,9.3,44.1,7.1c8.4-1.1,18.6,5,28,7.9c2.8,0.9,5.6,2.3,8.5,2.6c10.3,1.1,20.6,1.9,31,2.8c0.8,0.1,1.7,0.5,2.2,0.2
		c28.6-11.9,53.6,7.5,80.6,10.2c2.2,0.2,4,3.4,6.3,3.9c4.3,0.9,10.4,2.5,13.1,0.9c8.4-5.2,18.3-3.2,22.9,1.4c8,8,17.8,7.3,27.9,8.4
		c-8.3-3.7-16.6-7.4-28.4-12.8c12.4-0.8,22-1.1,31.6-2.1c5.8-0.6,11.7-1.5,16.9-3.5c14.3-5.5,28.1-11.7,45.2-8.3
		c2.5,0.5,5.5-1.2,8.4-1.8c5.4-1.1,11-3.4,16.3-2.8c31.9,3.5,62.3-2.3,93.3-5.1c4.8-0.4,10.1,2.3,15.3,3.3c3.3,0.6,7.5,1.6,10.1,0.5
		c12.3-4.9,24.9-3.3,37.6-0.7c8.1,1.7,15.7,4.6,23.5-0.7c2.6-1.8,8-1.1,12.1-1c47.7,1.1,95.4,2.4,143.1,3.5
		c5.2,0.1,10.3-0.4,15.5-0.6c8.4,1.4,16.8,2.9,25.2,3.9c2.9,0.4,6-1,9-0.7c26.3,3,52.6,6.5,78.9,9.2c13.4,1.4,26.9,1.3,40.3,2.3
		c3.7,0.3,8.4,0.9,11,2.9c19.8,14.7,41.4,22.2,67.4,18.9c7.8-1,16.7,1,24.8,2.7c9,1.9,14.6-0.5,19-9.1
		c-16.8-6.2-33.6-12.4-50.5-18.4c-1.6-0.6-4.1-0.7-5.6-0.1c-18.8,7.2-36.8,1.4-55.1-4c-13.2-3.9-26.6-5.2-40.2-1.4
		c-5.6,1.5-12.7-0.3-19.1-0.6c-35-1.8-70-3.5-105.1-5.3c-26.5-1.1-52.9-1.5-79.2-3.1c-32.5-1.9-65.1-6.6-97.5-6.4
		c-37.5,0.3-75.7-3.8-112.5,5.4c-13.1,3.3-28,1.9-42.1,2.6c-0.3-0.9-0.6-1.8-0.8-2.7c1.1-1,2.1-2.4,3.5-2.9
		c24.1-7.4,48.6-13.7,75.1-11.9c7.8,0.5,15.8,2.2,23.4,4.4c13.2,3.8,24.8-0.1,36.6-3c3.7-0.9,6.8-3.5,10.2-5.1
		c2.2-1,4.5-2.3,6.9-2.5c7.1-0.8,14.4-2.3,21.3-1.4c16.1,2.3,30.6,3,42.5-8.6c3.3-3.2,12.5-2,19.8-2.9c0.1-0.8,0.4-2.7,0.7-5.1
		c-4.8-0.1-9.5,0.7-13.6-0.4c-13-3.6-23.3-3.8-30.2,8.3c-1.9,3.4-11.1,3.9-17.2,5c-12,2.2-24.4,3.5-36.3,6.1
		c-16.2,3.6-32.1,7.1-47.5-3.6c-0.6-0.4-1.4-0.9-2-0.8c-15.5,1-31.3,1-46.5,3.4c-14.8,2.3-28.9,6.5-43.3-2.6
		c-2.5-1.6-6.2-1.8-12.2-3.4c2.3,3.9,3.4,5.9,4.6,7.8c3.2,4.9-0.4,11.3-6.5,11.1c-7.9-0.3-15.8-1.2-24.8-1.9c1.1,2.4,2,4.5,3.3,7.5
		c-17.9,0.9-34.3,11.2-51.1,3.4c-16.1,4.9-27.6,0.6-36.3-10.9c-1.8,2.5-2.6,3-2.5,3.4c1.1,3.2,2.3,6.5,3.5,9.7
		c-4.6,0.3-9.3,1-14,0.9c-2.9-0.1-6.9-0.8-8.6-2.5c-10.4-10.6-21.9-6.3-34.4-5.4c-11.5,0.8-23.7-3.9-35.6-5.2
		c-5.4-0.6-11,1.1-16.4,2.1c-7.8,1.4-15.3,4-22.8-2.4c-9.4-8.1-18.7-16.5-29.5-22.9c-8.3-5-18.8-7.1-28.4-10.5
		c-2.5-0.9-4.9-1.7-8.9-3.1c9-11.3,15.7-23.3,34.7-24.9c-13.2-5.4-16.8-4.5-22.8,5.1c-6,9.7-12.1,18.8-27.8,18.8
		c-3.4,0-6.5,4.2-9.2,7.7c13.2,0.1,25.2,10.1,38.9,2.1c5.9-3.4,17.5,3.8,22.2,11.9c-13.6,3.4-26.4,3.7-40.3-3
		c-7.3-3.5-17.6-3.1-26.5-3c-11.4,0.2-21.8-0.9-31.3-8.7c11.3-12.7,33.6-3.8,47.1-16.5c-19.3,3.5-36.4,6.2-53.1,10
		c-4.8,1.1-9,4.9-12.4,8.3c-4.2,4.3-8.1,6.2-14.4,1.7c1-3,1.9-6,3.3-10.2c-8.2,4.9-14.9,2.7-23.2,0.2c-6.1-1.9-15,1.4-21.8,4
		c-9.6,3.7-17.8,10.2-27.6,13.3c-18.5,5.7-36.9,9.1-58.3,2.3c-13.7-4.4-30.2-2.1-45.4-2.1c-10.8,0-21.6,2.2-32.3,1.4
		c-17.9-1.3-35.8-4.1-54.2-8c8.7-1,17.4-2.7,26.2-2.9c16.2-0.4,32.6,1,48.6-0.2c11.2-0.9,22-5,32.9-7.6c8.2,1.1,16.3,2.2,24.8,3.4
		c2.4-1.2,6.1-3,10.5-5.1c-0.7-5.6-8.9-8.5-18.7-4.9c-5.6,2-11,4.6-16.4,7C318,1039.9,302.7,1043.5,287,1045.9z M710.7,1134.7
		c15.8,3.5,31.3,8.4,47.1,12c8.8,2,18,2.6,27.4,2.6c-8-5.4-13.2-14.2-25.1-12.8c-2.2,0.3-4.8-1.7-7.3-2c-7.9-1.1-15.7-1.9-23.6-2.8
		c-17.1-1.9-34.2-3.7-51.2-5.5c-1.9-0.2-3.8,0-5.7,0.1c0,0.6-0.1,1.2-0.1,1.8C685,1130.3,698,1131.9,710.7,1134.7z M786.9,1081.3
		c-14.5-9.8-25.9-10.4-32.9-1.2C765.7,1080.5,775.7,1080.9,786.9,1081.3z M661.8,1068.5c11.5,4,19.1,4.7,24-3.3c-0.5-1-1-2-1.5-3
		C677.6,1064.1,671,1066,661.8,1068.5z M874.6,1152.7c-1.6-0.6-3.5-0.5-5.3-0.7c-0.3,0.8-0.5,1.5-0.8,2.3c11.7,4,23.5,8,35.2,12
		c0.3-0.9,0.7-1.8,1-2.6C894.7,1160,884.6,1156.3,874.6,1152.7z M802.8,1134.4c-0.2,0.8-0.3,1.6-0.5,2.5c10.9,2,21.9,4,32.8,6
		c0.3-1,0.5-1.9,0.8-2.9C824.8,1138.1,813.8,1136.3,802.8,1134.4z M130.6,1084.8c-0.5-0.8-1-1.6-1.5-2.4c-7.1,2.9-14.1,5.9-21.2,8.8
		c1.1,1.6,2.1,3.2,3.2,4.8C117.5,1092.3,124.1,1088.5,130.6,1084.8z M666.9,1028.8c-8.6,1.8-16.6,3.5-24.7,5.1
		C652.5,1038.6,660.6,1037,666.9,1028.8z"/>
	<path class="st1" d="M1229.8,1097.1c-26.4-0.9-52.8-1.4-79.1-2.9c-32.5-1.9-65.1-6.6-97.5-6.4c-37.5,0.3-75.7-3.8-112.5,5.4
		c-13.1,3.3-28,1.9-42.1,2.6c-0.3-0.9-0.6-1.8-0.8-2.7c1.1-1,2.1-2.4,3.5-2.9c24.1-7.4,48.6-13.7,75.1-11.9
		c7.8,0.5,15.8,2.2,23.4,4.4c13.2,3.8,24.8-0.1,36.6-3c3.7-0.9,6.8-3.5,10.2-5.1c2.2-1,4.5-2.3,6.9-2.5c7.1-0.8,14.4-2.3,21.3-1.4
		c16.1,2.3,30.6,3,42.5-8.6c3.3-3.2,12.5-2,19.8-2.9c0.1-0.8,0.4-2.7,0.7-5.1c-4.8-0.1-9.5,0.7-13.6-0.4c-13-3.6-23.3-3.8-30.2,8.3
		c-1.9,3.4-11.1,3.9-17.2,5c-12,2.2-24.4,3.5-36.3,6.1c-16.2,3.6-32.1,7.1-47.5-3.6c-0.6-0.4-1.4-0.9-2-0.8c-15.5,1-31.3,1-46.5,3.4
		c-14.8,2.3-28.9,6.5-43.3-2.6c-2.5-1.6-6.2-1.8-12.2-3.4c2.3,3.9,3.4,5.9,4.6,7.8c3.2,4.9-0.4,11.3-6.5,11.1
		c-7.9-0.3-15.8-1.2-24.8-1.9c1.1,2.4,2,4.5,3.3,7.5c-17.9,0.9-34.3,11.2-51.1,3.4c-16.1,4.9-27.6,0.6-36.3-10.9
		c-1.8,2.5-2.6,3-2.5,3.4c1.1,3.2,2.3,6.5,3.5,9.7c-4.6,0.3-9.3,1-14,0.9c-2.9-0.1-6.9-0.8-8.6-2.5c-10.4-10.6-21.9-6.3-34.4-5.4
		c-11.5,0.8-23.7-3.9-35.6-5.2c-5.4-0.6-11,1.1-16.4,2.1c-7.8,1.4-15.3,4-22.8-2.4c-9.4-8.1-18.7-16.5-29.5-22.9
		c-8.3-5-18.8-7.1-28.4-10.5c-2.5-0.9-4.9-1.7-8.9-3.1c9-11.3,15.7-23.3,34.7-24.9c-13.2-5.4-16.8-4.5-22.8,5.1
		c-6,9.7-12.1,18.8-27.8,18.8c-3.4,0-6.5,4.2-9.2,7.7c13.2,0.1,25.2,10.1,38.9,2.1c5.9-3.4,17.5,3.8,22.2,11.9
		c-13.6,3.4-26.4,3.7-40.3-3c-7.3-3.5-17.6-3.1-26.5-3c-11.4,0.2-21.8-0.9-31.3-8.7c11.3-12.7,33.6-3.8,47.1-16.5
		c-19.3,3.5-36.4,6.2-53.1,10c-4.8,1.1-9,4.9-12.4,8.3c-4.2,4.3-8.1,6.2-14.4,1.7c1-3,1.9-6,3.3-10.2c-8.2,4.9-14.9,2.7-23.2,0.2
		c-6.1-1.9-15,1.4-21.8,4c-9.6,3.7-17.8,10.2-27.6,13.3c-18.5,5.7-36.9,9.1-58.3,2.3c-13.7-4.4-30.2-2.1-45.4-2.1
		c-10.8,0-21.6,2.2-32.3,1.4c-17.9-1.3-35.8-4.1-54.2-8c8.7-1,17.4-2.7,26.2-2.9c16.2-0.4,32.6,1,48.6-0.2c11.2-0.9,22-5,32.9-7.6
		l0.1,0.2c-15.8-7-31.1-3.4-46.8-1c-9.1,1.4-19,1-28.5,0.1c-25.7-2.3-51.4-5.2-77-8.2c-11.5-1.4-14.9,0.3-16.2,10.2
		c-0.3,2.5-0.6,5.1-0.9,7.5c6.4,8.3,21.7,0.5,27.8,13.9c-11.8-4.8-21.3-1.4-30.9-1.1c-14.5,0.5-11.8,12.2-20.5,14.5
		c5.1,2.7,9.2,4.9,13.4,7.1c-0.3,0.7-0.6,1.3-1,2c1.4-0.1,3.2,0.1,4.2-0.5c20.8-12.4,43.2-6,64.3,0.5c26.5,8.2,53.8,6.5,80.5,11.3
		c10.8,1.9,21.6,4.2,32.5,5.1c4.6,0.4,11.4-1.2,13.7-4c12.2-15,30.5-17.2,49.9-15.7c7.8,0.6,15.5,5,23.1,7.9
		c7.2,2.7,14.1,5.8,24.3,10.1c-1.9-7.8-3.1-12.5-4.6-18.6c21,2.8,40.9,5.5,60.8,8.2c0.1-0.6,0.2-1.2,0.3-1.8
		c-5.6-1.2-11.3-2.5-16.9-3.7c-0.1-0.6-0.2-1.3-0.3-1.9c8.5-2.4,17-4.9,25.5-7.3c-0.2-0.8-0.4-1.7-0.5-2.5c5,1.6,10,3.2,15.1,4.8
		c14.3,4.3,27.9,9.3,44.1,7.1c8.4-1.1,18.6,5,28,7.9c2.8,0.9,5.6,2.3,8.5,2.6c10.3,1.1,20.6,1.9,31,2.8c0.8,0.1,1.7,0.5,2.2,0.2
		c28.6-11.9,53.6,7.5,80.6,10.2c2.2,0.2,4,3.4,6.3,3.9c4.3,0.9,10.4,2.5,13.1,0.9c8.4-5.2,18.3-3.2,22.9,1.4c8,8,17.8,7.3,27.9,8.4
		c-8.3-3.7-16.6-7.4-28.4-12.8c12.4-0.8,22-1.1,31.6-2.1c5.8-0.6,11.7-1.5,16.9-3.5c14.3-5.5,28.1-11.7,45.2-8.3
		c2.5,0.5,5.5-1.2,8.4-1.8c5.4-1.1,11-3.4,16.3-2.8c31.9,3.5,62.3-2.3,93.3-5.1c4.8-0.4,10.1,2.3,15.3,3.3c3.3,0.6,7.5,1.6,10.1,0.5
		c12.3-4.9,24.9-3.3,37.6-0.7c8.1,1.7,15.7,4.6,23.5-0.7c2.6-1.8,8-1.1,12.1-1c47.7,1.1,95.4,2.4,143.1,3.5
		c5.2,0.1,10.3-0.4,15.5-0.6L1229.8,1097.1z"/>
	<path class="st1" d="M1229.7,1097c8.4,1.4,16.8,2.9,25.2,3.9c2.9,0.4,6-1,9-0.7c26.3,3,52.6,6.5,78.9,9.2
		c13.4,1.4,26.9,1.3,40.3,2.3c3.7,0.3,8.4,0.9,11,2.9c19.8,14.7,41.4,22.2,67.4,18.9c7.8-1,16.7,1,24.8,2.7c9,1.9,14.6-0.5,19-9.1
		c-16.8-6.2-33.6-12.4-50.5-18.4c-1.6-0.6-4.1-0.7-5.6-0.1c-18.8,7.2-36.8,1.4-55.1-4c-13.2-3.9-26.6-5.2-40.2-1.4
		c-5.6,1.5-12.7-0.3-19.1-0.6c-35-1.8-70-3.5-105.1-5.3L1229.7,1097z"/>
	<path class="st1" d="M672.1,1128.2c12.9,2.1,25.9,3.7,38.6,6.5c15.8,3.5,31.3,8.4,47.1,12c8.8,2,18,2.6,27.4,2.6
		c-8-5.4-13.2-14.2-25.1-12.8c-2.2,0.3-4.8-1.7-7.3-2c-7.9-1.1-15.7-1.9-23.6-2.8c-17.1-1.9-34.2-3.7-51.2-5.5
		c-1.9-0.2-3.8,0-5.7,0.1C672.2,1127,672.1,1127.6,672.1,1128.2z"/>
	<path class="st0" d="M333.7,1046.6c8.2,1.1,16.3,2.2,24.8,3.4c2.4-1.2,6.1-3,10.5-5.1c-0.7-5.6-8.9-8.5-18.7-4.9
		c-5.6,2-11,4.6-16.4,7L333.7,1046.6z"/>
	<path class="st0" d="M754,1080.1c11.7,0.4,21.7,0.8,32.9,1.2C772.4,1071.5,761,1070.8,754,1080.1z"/>
	<path class="st0" d="M684.3,1062.3c-6.7,1.9-13.3,3.7-22.5,6.2c11.5,4,19.1,4.7,24-3.3C685.3,1064.3,684.8,1063.3,684.3,1062.3z"/>
	<path class="st1" d="M904.7,1163.6c-10-3.7-20.1-7.3-30.1-10.9c-1.6-0.6-3.5-0.5-5.3-0.7c-0.3,0.8-0.5,1.5-0.8,2.3
		c11.7,4,23.5,8,35.2,12C904,1165.4,904.4,1164.5,904.7,1163.6z"/>
	<path class="st1" d="M835.8,1140c-11-1.9-22-3.7-33.1-5.6c-0.2,0.8-0.3,1.6-0.5,2.5c10.9,2,21.9,4,32.8,6
		C835.3,1141.9,835.6,1140.9,835.8,1140z"/>
	<path class="st0" d="M111,1096c6.5-3.7,13.1-7.4,19.6-11.1c-0.5-0.8-1-1.6-1.5-2.4c-7.1,2.9-14.1,5.9-21.2,8.8
		C108.9,1092.8,110,1094.4,111,1096z"/>
	<path class="st0" d="M642.2,1033.9c10.3,4.6,18.4,3.1,24.7-5.1C658.3,1030.6,650.3,1032.3,642.2,1033.9z"/>
	<path class="st2" d="M663.2,805.6c-0.7-0.8-2.1-1.5-2.1-2.4c-0.5-4.7-5.1-6.2-7.3-10.3c-0.7,3.6-1.2,6.4-1.7,9.2
		c0.1-9.6-8.1-14-12.4-20.7c-0.1-0.1-0.2-0.3-0.4-0.3c-3-0.9-6-2-9.1-2.4c-0.7-0.1-2.7,2.7-2.4,3.6c1,3.1,2.7,6.1,4.4,8.9
		c0.4,0.7,1.8,0.9,3,1.5c-8.5,0.8-16.4,1.6-24.3,2.4c-0.4-2.2-0.7-3.9-0.9-5c3.4-0.4,7.3,0.1,9.7-1.5c1.9-1.3,1.8-5.3,2.8-8.6
		c-3.3,0.2-5.3,0.2-7.1,0.3c-2.1-3.6,2-9.1-4.3-10.4c2-7.2-0.7-15.7-7.5-18.2c-3.4-1.3-6.2-4.1-9.6-4.2c-2.7-0.1-5.4,1.8-9.7,3.4
		c5.7-4.5,0.8-5.4-1-7.4c2.2-1.1,4.1-2,5-2.4c0.6-4.5,1.3-8.1,1.4-11.8c0.1-2.9-1-5.8-0.7-8.7c0.4-3.6-1.6-5.1-4-7.1
		c-6.2-5.3-12.1-11.1-18-16.6c0.3-0.5,0.7-0.9,1-1.4c1.6,0.2,3.2,0.5,5.3,0.8c-1.1-8.4-5.6-14.9-10-21.1c-1.5-2.2-6.5-3.2-9.5-2.6
		c-3.9,0.8-6,0.1-7.7-4.8c-3.5,3.5-6.5,6.3-9.4,9.3c-0.5,0.5-6.5,7.1-7.3,7.7c-0.3,0.3-0.5,0.8-0.6,1.3c-3.1,12.1-11,22.5-11,36
		c0,13,0.2,26,1.7,38.9c0.5,4.6,0.4,9.2,1.1,13.7c0.8,4.7,1.4,9.8,3.7,13.7c3.5,5.9,6.7,12.6,14.4,14.9c7.8,2.4,13.6-0.5,18.9-6.7
		c4.7-5.6,7.2-11.8,9.5-18.3c0.7-2.1,0.8-4.5,1.1-6.8c0.8-5.4,3-7.6,8.3-8.1c2.8-0.2,5.7-0.3,8.5,0c8.8,0.8,12,3.9,13.5,12.3
		c4.4,24.1-4.9,37.8-24.5,54.4c-11.6,3.3-22.9,8.4-35.5,5.2c-12.9-3.3-26.1-5.9-35.4-16.8c-2.4-2.9-4.5-6-7.5-10
		c-3.7,8.5-11.2,8.6-18.3,10.2c-7.5,1.6-14.1-2.4-16.5-9.8c-3.3-9.9-7.2-19.6-10.6-29.5c-1.2-3.4-2.8-4.2-6.2-3.5
		c-7.5,1.4-15,2.4-23.7,3.7c0.7,9.6,1.2,19.1,2,28.7c0.6,6.8,1.6,13.6-1.4,20.1c-0.7,1.5-1.8,3.5-3.2,4c-5.6,1.9-11.4,3.9-17.2,4.7
		c-7.6,1-12.1-3.5-12.6-11.3c-0.9-13-1.8-26-2.7-39.5c-17.4,3.4-35,6.8-53.4,10.4c-0.3,6.4-0.7,13.1-1,19.9c-0.4,7.8-2.2,9.8-10,9.5
		c-5.6-0.2-11.2-0.9-16.9-1.2c-3.8-0.2-4.5-3.2-4.9-5.9c-0.8-5.4-1.2-10.8-1.8-16.2c-0.2-1.4-0.4-2.9-0.7-4.7
		c-2.7,0.7-5.3,1.1-7.8,1.9c-2.1,0.6-4.1,1.6-6.2,2.4c-0.2-0.6-0.5-1.1-0.7-1.7c4.8-1.8,9.7-3.5,14.5-5.3c-0.1-0.5-0.3-1.1-0.4-1.6
		c-4.5,0.9-9,1.8-13.5,2.8c-3.7,0.8-7.5,1.5-11.1,2.8c-1.4,0.5-2.9,2.4-3.1,3.8c-0.8,5.2-0.8,10.5-1.6,15.7
		c-0.2,1.4-2.2,3.3-3.6,3.5c-6.2,0.8-12.5,1-18.8,1.4c-4.8,0.3-7.1-2.7-7.3-7c-0.6-10-1.1-20-1.1-30c0-14.5,0.3-28.9,0.6-43.4
		c0.4-17.8,1.1-35.7,1.6-53.5c0.3-11.7,0.5-23.4,0.8-35.1c0.3-8.2,6.7-14.4,14.8-14.4c2.7,0,5.3,0.1,7.9,0.4
		c6.7,0.9,10,4.1,10.2,10.7c0.5,16.4,0.6,32.8,0.9,49.2c0.1,4.6,0,9.4,1,13.9c0.6,2.4,3.1,5.7,5.2,6.1c5.3,1.1,10.8,0.9,16.2,1.2
		c4.1-13.3,4.2-26.5,4.8-39.7c0.4-9.8,1.2-19.6,2-29.3c0.4-4.1,2.4-7.1,7.1-7.2c5.5-0.1,11-0.5,16.5-0.2c5.3,0.3,7.5,3.8,7.4,9.2
		c-0.4,18.4-0.7,36.9-1.1,55.3c-0.2,9.1-0.7,18.2-0.8,27.3c-0.1,8.9,0,17.8,0,28c5-2,8.5-3.4,12.6-5c-1.3-1.1-2.2-1.8-3.4-2.8
		c15.1-4.6,29.6-9,44.8-13.7c0-3.5-0.2-7.8,0-12.1c0.9-17.1,1.8-34.2,2.9-51.2c0.4-6.2,1.6-12.4,2-18.6c0.6-8,6.1-11.5,12.4-14.1
		c3.6-1.5,7.7-2.2,11.6-2.6c9.2-1.1,17.2,1.6,21.5,10.3c5.5,10.9,10.2,22.2,15,33.4c5.4,12.5,10.3,25.1,15.7,37.6
		c5.4,12.7,11.1,25.2,16.6,37.6c-0.4-6.4-0.2-13.2-1.2-19.7c-1.6-10.1,0.8-19.7,2.3-29.5c2.3-15.3,6.4-30.1,12.6-44.4
		c3.1-7.1,7.2-13.1,13.2-17.8c5-3.9,10-7.8,15.4-11.1c2.7-1.6,6.4-1.8,9.6-2.5c4-0.9,8-1.9,12-2.4c14.7-1.8,28.7,0.1,42.4,6.3
		c8.4,3.8,11,11.2,13.1,18.8c1.6,5.9,1.9,12.1,2.6,18.2c0.2,1.5,0.2,3,0,4.5c-0.5,4-1.5,7.9-1.5,11.9c0,3.4-0.2,6.2-2,9.6
		c-1.4,2.6,0.6,7.1,1.2,10.8c10.6-1.1,14-7.8,8.1-16c1.9,0.5,3.7,0.8,5.6,1.4c4.4,1.3,7.3,0.5,8-4.8c0.2-1.8,1.9-3.4,2.7-4.8
		c-0.7-1.9-1.5-3.7-2.6-6.7c6.6,2.6,9.2,6.7,10.8,11.8c0.4,1.4,2,2.5,3.1,3.8c0.8-1.3,1.6-2.6,2.3-3.9c0.4-0.7,0.2-1.7,0.7-2.3
		c5.2-6.7,10.6-13.2,15.7-20c3.1-4.1,6-8.3,8.3-12.9c3.7-7,6.7-14.3,10.3-21.4c0.6-1.3,2.2-2.1,3.8-3.6c2.9,6.2-2.3,9.8-3,14.5
		c4.2,0,8.3,0.3,12.4-0.1c5.5-0.5,8.1,2.1,8.8,7.2c1.5,10.7,3.1,21.4,4.6,32c0.4,2.9,0.9,5.9,1.3,8.8c5.1,0.1,7.9-3,9.3-10.5
		c-2-0.1-3.9-0.3-5.9-0.4c0-0.3,0-0.7,0-0.7c6.7-2.1,8.5-7.8,10.4-13.7c2.6-8,5.9-15.8,8.9-23.6c0.4-1.1,1.1-2.1,1.8-3
		c2.1-2.8,23.6-6.6,26.2-4.3c1.4,1.2,2.4,4,2,5.7c-1.6,7.2-3.8,14.3-5.8,21.5c-0.6,2.1-1.4,4.2-2,6.4c-5.8,18.3-11.6,36.6-17.4,54.9
		c-0.9,2.8-2.1,5.7-2.4,8.6c-0.2,2.3,0.1,5.1,1.3,6.9c7.9,11.9,16.3,23.5,24.2,35.4c7.5,11.2,14.7,22.5,21.7,34
		c3.1,5,1.4,8.8-4.3,10.1c-5.2,1.2-10.4,2.4-15.7,2.7c-2.4,0.1-5.5-1.4-7.1-3.2c-11.3-12.7-20-27.2-28.4-41.9
		c-1.9-3.4-3.7-7.3-9.5-7.5c2.4,23.2,7.3,46.4-4.5,68.7c-1.7-2.7-3.5-5.4-5.4-8.4c-1.6,0.3-3.4,0.5-5.1,0.8c0,1.9,0,3.8,0,5.7
		c-0.4,0.1-0.9,0.3-1.3,0.4c-2.3-6.8-11.9-9.3-9.7-18.8c0.3-1.4-1-3.5-2.1-4.9c-2.7-3.8-5.8-7.3-8.5-11c-2-2.7-3.6-5.6-5.6-8.3
		c-1.1-1.5-2.6-2.7-4.7-4.7C663.5,800.4,663.4,803,663.2,805.6L663.2,805.6z M275,787.2c-0.1-0.7-0.3-1.3-0.4-2
		c3.8-1.6,7.6-3.3,11.5-4.8c12.3-4.8,10.4-1.5,10.8-15.1c0-0.7,0-1.3,0-2c0-5.7-2.4-8.5-8.1-9c-4.6-0.4-9.3-0.6-13.9-0.5
		c-3.4,0.1-6.2,1.4-6.2,5.6c0,11.6,0,23.2,0,36.2c5.9-3.2,10.9-5.9,16-8.6c-0.1-0.4-0.2-0.8-0.3-1.2
		C281.2,786.2,278.1,786.7,275,787.2z M652.3,765.7c10.1,11.7,14.7,28,28.4,38.9c-1-17.8-1.9-34.3-3-50.9c-0.1-1.1-0.9-2.5-1.9-3.2
		c-0.6-0.4-2.1,0.1-3,0.7C666.2,755.9,659.5,760.6,652.3,765.7z M422.4,700c-0.8,0.2-1.6,0.4-2.4,0.6c0,3.8,0.1,7.5,0,11.3
		c-0.3,6.5-0.9,12.9-1.2,19.4c-0.2,3.5,1.2,4.8,4.9,3.6c9.4-3,9.5-2.9,6.9-12.3c0-0.2,0-0.3,0-0.5
		C427.9,714.7,425.2,707.3,422.4,700z M656,707.2c0.8,2,1.4,3.2,1.7,4.5c1.1,5.4,0.9,5.1,5.5,2.4c6.4-3.8,10.7-8,7.8-16.2
		c-1.3-3.7-1.8-7.7-2.7-11.6c-0.5-0.1-1.1-0.1-1.6-0.2C663.7,693.4,664.3,702.8,656,707.2z M664.7,673.8c-1.8,2.2-4.1,3.9-4.5,5.8
		c-0.4,2.2,0.9,4.8,1.4,7.2c1.8-0.6,4.3-0.7,5.3-1.9C670.5,680.6,666.4,677.6,664.7,673.8z M673.4,717.4c-0.6-2.9-1-5-1.6-8.2
		c-3.1,2.5-5.3,4.3-8.2,6.6C667.2,716.4,669.8,716.8,673.4,717.4z M674.8,738.2c0.1-9.5,0.1-9.5-4.1-9.3
		C672.2,732.2,673.5,735.2,674.8,738.2z"/>
	<path class="st2" d="M136.2,730.8c-4.6,17-8.7,33-13.3,48.9c-3.4,11.8-7.4,23.4-10.9,35.1c-1.4,4.6-4.6,5.8-8.7,5.7
		c-6.8-0.1-13.6-0.3-20.5-0.5c-4.6-0.2-7.5-1.8-8.7-7c-2.7-12.5-6.7-24.7-9.1-37.3c-3.5-18.4-6.2-37-9.1-55.6
		c-0.6-4.1-0.4-8.4-1.4-12.3c-0.9-3.5-3.7-6.5-4.4-10c-2.9-15.1-7.3-29.6-13.6-43.6c-1.5-3.2-2-6.9-3-10.6c6.4,2,13.2-5.1,12.1-11.8
		c-0.8-5-1.5-10-2.3-15c0.5-0.2,0.9-0.3,1.4-0.5c2.1,3.4,4.2,6.8,6.3,10.1c0.5-0.1,1-0.2,1.6-0.3c-0.4-2.6-0.6-5.2-1.3-7.7
		c-1.4-4.5-3.3-9-0.4-13.6c0.4,0.1,0.7,0.2,1,0.3c2.1,1.3,4.2,2.6,6.2,3.8c0-2.4,0.4-4.8,0.1-7.1c-0.6-3.7-1.6-7.4-1.4-11.3
		c0.6,2.5,1.3,5,1.9,7.6c0.4,0,0.9,0,1.3,0c1-5.9,2-11.8,2.9-17.8c0.1-0.5,0-1.2-0.3-1.4c-5.3-3.3-1-6.4-0.2-9.9
		c1.1-4.9,0.6-10.2,1.4-15.3c1.4-8.7,3.3-17.3,4.9-25.9c0.8-4.2,1.2-8.5,2-13.6c0.5,0.9,1.6,1.9,1.6,2.9c0.2,3.5,0.3,7-0.2,10.4
		c-1.3,8.8-3.4,17.5-4.5,26.3c-1.6,12.7-3.6,25.4-3.5,38.1c0,5.4-1.1,10.2-1.9,15.3c-0.5,2.9-1.5,6.5,3.4,7c-2,6.1-0.8,7.8,7.6,10.8
		c-0.2-1.8,0.1-3.9-0.8-4.9c-3.3-3.7-1.4-7.6-1.3-11.5c0.1-4.4,0.6-9-0.2-13.3c-0.7-4.2,0.3-6,5.2-6c-0.4,1.8-1,3.4-1.1,5
		c-0.4,4.8-2.7,10.9-0.6,13.9c2.7,3.8,2.2,6.4,1.9,10.2c-0.4,5.8,0.6,11.7,1,18.1c0.9-1.9,1.7-3.6,2.6-5.3c0.6,0,1.2,0,1.8,0
		c-6.4,7.7-1.4,13.3,1.7,18.1c-0.7,3.2-1.7,5.5-1.5,7.6c2.7,20.9,5.5,41.9,8.5,62.7c1.6,11,3.6,22,5.5,32.9c0.3,1.9,0.8,3.9,2.2,6
		c1.9-8.3,4.1-16.6,5.7-25c4.5-23.3,8.8-46.6,13.3-69.9c1-5.2,1.7-10.6,4-15.3c1.3-2.7,5.4-5.5,8.3-5.6c7.7-0.3,15.5,0.7,23.3,1.8
		c1.5,0.2,3.6,2.8,3.8,4.6c2.6,15.7,4.8,31.4,7.2,47.2c3,20.2,6,40.4,9.1,60.6c0.2,1.2,0.7,2.4,1.2,4.1c5-24.7,9.8-48.9,14.9-72.9
		c2.9-13.8,6.2-27.5,9.3-41.3c1.1-5,4.4-7.2,9.3-7.2c5.8,0,11.7-0.1,17.5,0c4.8,0.1,7.5,2.7,7,7.6c-0.6,6.1-2,12.1-3.2,18.1
		c-2.4,12.7-4.7,25.4-7.2,38.1c-4.4,22.1-8.7,44.2-13.4,66.2c-3.4,15.7-7.5,31.3-11,46.9c-1.1,4.8-4.2,6.7-8.5,6.7
		c-8,0-16-0.3-23.9-1c-1.6-0.1-3.4-2.3-4.3-4c-8.4-15.9-12.1-33.3-15.6-50.7C142.4,755.5,139.3,743.8,136.2,730.8z"/>
	<path class="st1" d="M91.6,896.1c0-0.1,0.1-0.9,0.1-1.7c0.4-7.1,5-10.2,11.7-7.4c1.2,0.5,2.4,2.7,2.4,4.2
		c0.1,10.1-0.2,20.3-0.2,30.4c0,6.1-0.1,12.3,0.6,18.4c0.2,2,2.5,4.8,4.3,5.2c1.7,0.4,5.3-1.4,5.8-3c1.7-5.5,2.9-11.2,3.3-16.9
		c0.7-9.9,0.7-19.9,0.8-29.9c0.1-8.1,0.9-8.9,9-8c1,0.1,1.9,0.3,2.8,0.5c0,15.2,0.4,30.1-0.2,45c-0.3,6.1-2.5,12.3-4.2,18.3
		c-2.4,8.2-11.9,10.4-17.9,9.8c-10.5-1-15.4-5.2-16.3-14.2c-1.3-13.3-1.9-26.7-2.6-37.7c-2.7,9.8-6.1,22-9.3,34.3
		c-4.4,16.9-16.6,17.6-29.5,12c-8.7-3.8-11.1-8.5-9-17.6c3.2-14.2,6.9-28.4,11-42.3c3-10.2,14.5-14.3,24.4-9
		C83.4,888.9,87.3,892.8,91.6,896.1z M55.3,933.1c0.4,0.1,0.9,0.3,1.3,0.4c0,1-0.3,2.2,0.1,3c1.4,2.7,2.5,6.5,4.8,7.7
		c3.7,2,6.4-1.3,8.1-4.5c0.7-1.3,1.3-2.7,1.7-4.1c2.5-9.1,5-18.2,7.3-27.4c1-4-0.1-7.1-4.5-8.6c-4.8-1.6-8.2-0.8-9.8,3.8
		C60.9,913.1,58.2,923.1,55.3,933.1z"/>
	<path class="st1" d="M162.6,932.4c4.3,10.1,8.8,20.5,13.3,31c-6.5,3.3-11.7,1.6-14.4-4.5c-3.2-7.3-6.5-14.6-9.8-21.8
		c-0.5-1.1-1.3-2.1-2.9-4.4c-0.4,9.6-1.1,17.6-1,25.7c0.1,4.6-1.7,5.9-5.9,5.4c-1-0.1-2-0.1-3,0c-3.1,0.2-4.4-0.9-4.4-4.3
		c0.2-17.8,0.3-35.5,0.4-53.3c0-3.3-0.1-6.7-0.2-10c0-3.5,1.7-6.2,5.3-5.8c8.3,0.9,16.8,1.7,24.8,3.9c3,0.8,5.9,5,7.1,8.4
		c3.1,8.3,5.3,17.1-1.9,24.7C168.3,929.4,165.4,930.6,162.6,932.4z M148.8,904.2c0.3,4.1,0.4,7.9,0.9,11.6c0.3,1.9,1.4,5.3,1.9,5.3
		c2.8-0.2,6.7-0.5,7.9-2.3c1.8-2.7,2.3-6.7,2.2-10.1c0-1.5-2.5-3.8-4.2-4.3C154.9,903.7,152,904.2,148.8,904.2z"/>
	<path class="st1" d="M4.9,885.7c8.8-3.7,11.3-2.9,15.5,4.7c2.2,4,4.2,8.1,7.1,13.6c1.8-5.3,3.1-9.2,4.3-13.1
		c3.1-10.2,3.3-10.4,15.1-9.1c-2.7,8.4-5.5,16.7-7.8,25.1c-1.1,4-1.6,8.4-1.4,12.6c0.5,10.3,1.4,20.5,2.3,30.8
		c0.3,3.9-1.5,5.4-5.1,5.8c-10.1,1.3-10.6,1-11.6-9.1c-0.6-5.9-1.5-11.9-1.5-17.9c0-14.8-8.4-26.2-14.5-38.7
		C6.4,888.9,5.7,887.3,4.9,885.7z"/>
	<path class="st2" d="M542.8,721.8c-2-1.4-4-2.8-6.4-4.4c-1.8,2.6-3.7,5.4-5.5,8.1c-0.5-0.1-1.1-0.2-1.6-0.4
		c0.2-1.8-0.1-3.9,0.6-5.5c2.3-5.1,2.7-9.7-1.9-13.8c-0.5-0.5-0.6-1.4-1-2.4c4.3-3,5.8,1.3,7.5,2.3c2.8-1.4,5.1-2.6,7.4-3.8
		c0.6,0.4,1.2,0.8,1.8,1.1c-6.3,6.2-2.4,12,1,17.8C544,721.2,543.4,721.5,542.8,721.8z"/>
	<path class="st2" d="M552.8,702.4c2.6,1,5.1,2,8.1,3.2c1.6-0.7,3.9-1.8,6.9-3.1c-0.8,4.2-2.3,7.5-1.8,10.4c0.6,3,3.1,5.6,4.8,8.4
		c-0.5,0.4-1.1,0.8-1.6,1.3c-2.5-2.1-4.9-4.3-7.6-6.6c-1.1,0.9-2.1,2-3.4,2.6c-0.9,0.4-2.5,0.6-3.1,0c-0.6-0.4-0.8-2.4-0.4-3
		c3.2-4.2,1.3-7.2-1.8-10.2c-0.4-0.4-0.7-1.1-1-1.6C552.2,703.4,552.5,702.9,552.8,702.4z"/>
	<path class="st2" d="M564.6,761.6c-1.5-0.4-3.3-0.3-4.5-1.2c-6.2-4.5-12.8-3.9-19.5-2c-5.7,1.6-5.5,6.8-6.1,11.6
		c-3.8-0.7-3.8-3.3-3.4-5.9c1.3-8.3,8.8-12.9,18.7-10.6c5.2,1.2,10.2,3.6,15.3,5.5C564.9,759.9,564.7,760.8,564.6,761.6z"/>
	<path class="st2" d="M73.1,570.1c1.6-1.3,3.4-3.8,4.8-3.6c3.2,0.4,4.5,2.7,4.7,6.5c0.4,5.8,2.3,11.4,3.8,17.1
		c0.6,2.3,1.5,4.6,2.3,6.9c-0.4,0.2-0.8,0.3-1.2,0.5c-2.7-7.5-5.5-15-8.1-22.6c-1-2.9-1.7-5.4-6.1-2.8
		C73.3,571.4,73.2,570.8,73.1,570.1z"/>
	<path class="st2" d="M582.2,752.4c-2.6,2-5.7,4.6-8.6,0.7c-1.3-1.7-1.9-6.4-1-6.9C578.7,742.4,580,748.3,582.2,752.4z"/>
	<path class="st2" d="M40.4,601.1c-3.1-6.4-6.2-12.8-6.3-20c0.6-0.2,1.2-0.3,1.8-0.5C37.4,587.5,38.9,594.3,40.4,601.1z"/>
	<path class="st2" d="M663.2,805.7c0.8,1.1,1.5,2.4,2.5,3.2c3.4,2.4,3.6,2.9,1.5,7.8C663.7,813.5,662.7,809.9,663.2,805.7
		L663.2,805.7z"/>
	<path class="st2" d="M80.7,616.2c2.6-0.6,4.7-1.1,7.2-1.8c-1.4,3.4-2.7,6.5-4,9.6c-0.2-0.1-0.4-0.1-0.6-0.2
		c0.2-1.4,0.9-2.9,0.5-4.2C83.4,618.6,82,617.7,80.7,616.2z"/>
	<path class="st2" d="M7.9,469.7c-2,3.7-3.9,7.4-5.9,11.1c-0.7-0.4-1.3-0.7-2-1.1c2-3.6,4-7.3,6-11C6.7,469,7.3,469.4,7.9,469.7z"/>
	<path class="st2" d="M1097.9,925.8c-1.4,3.2-2.1,6.2-3.9,8.3c-4.1,4.8-12,5.6-16.6,1.4c-1.6-1.4-2.2-4.8-2.1-7.1
		c0.4-6.6,0.5-12.9-3.4-18.7c-3.3-4.9-7.3-5.7-12.3-2.7c-5.7,3.4-9.1,8.1-10.8,14.7c-4.3,17-5.2,34.3-5.2,51.7
		c0,5.4,0.4,10.9,0.9,16.3c0.7,8.9,14.4,13.9,22.3,10.3c1.5-0.7,3.2-2.4,3.6-3.9c1.4-6.6,2.3-13.3,3.4-20.4
		c-5.6-0.8-10.1-1.4-14.6-2.2c-5.5-1-7.9-5.5-6.8-12.3c0.8-5.5,2.9-7,8.9-6.6c8.6,0.6,17.2,1.1,25.8,1.9c2.4,0.2,5,0.8,7.1,1.9
		c1.2,0.6,2.4,2.6,2.3,3.8c-1.2,13-2.2,26-4.2,38.9c-2.2,14.3-11.4,23.3-25.7,25c-6.8,0.8-14.2,0.8-20.8-0.7
		c-14.6-3.3-27.3-13.6-26.3-32.8c0.6-11.5-1.3-23.2-0.4-34.8c1.3-17.3,2.2-34.9,9.4-51c4.1-9.1,9.7-17.2,20.3-20.6
		c8.2-2.6,16.2-5.1,24.8-3.6c9.8,1.6,15.8,6.1,21.5,16.5c-0.3-4-0.5-6.8-0.6-9.7c0-1.4,0-2.9,0.5-4.1c3.5-8.8,9.2-12,18.5-9.6
		c2.4,0.6,5.6,3.3,6.1,5.5c2.1,10,3.4,20.2,5,30.4c1.1,7.1,1.7,14.2,3.5,21.1c0.5,2,4.1,4.1,6.5,4.4c3.5,0.5,7.2-0.5,10.8-0.8
		c0-11.4,0.2-22.5-0.1-33.7c-0.1-7-1.1-13.9-1.1-20.9c0-3.8,1.5-7.1,6.3-7.3c4.1-0.2,8.3-0.8,12.4-1c3.7-0.1,5.8,1.7,6.2,5.6
		c1.2,13.4,2.2,26.8,3.8,40.2c2.2,18.4,5.3,36.7,7.5,55c1.4,12,1.9,24.2,2.7,36.3c0.2,3.7-2.2,5.5-5.6,5.7
		c-5.3,0.3-10.6,0.6-15.9,0.3c-1.2-0.1-2.9-2.1-3.3-3.5c-1.6-5.7-3.3-11.5-4.2-17.4c-1.4-8.8-2.6-17.7-3-26.5
		c-0.3-5.3-3.3-6.3-7.3-6.8c-1-0.1-2,0-3,0.2c-12.8,2-12.6,2-11.2,15c1.3,12,2.1,24.2,3.2,36.2c0.3,3.6-1.2,5.6-4.8,6.1
		c-4.4,0.6-8.8,2-13.3,2c-1.9,0-5-2-5.6-3.7c-1.9-5.8-3.5-11.8-4.2-17.9c-1.7-15.2-3-30.5-4.3-45.8c-0.7-8.5-1.2-17-1.9-25.5
		C1098.7,928,1098.3,927.1,1097.9,925.8z"/>
	<path class="st2" d="M869.8,978.4c0-6.2,0.1-12.5,0-18.7c-0.3-13.5-1-26.9-1.2-40.4c-0.2-8.1-0.3-16.3,0.4-24.4
		c0.6-6.7,4.4-9,11.1-8.4c3.6,0.3,7.2,0.2,10.8,0.6c2.8,0.3,4.5,1.8,4.5,4.9c-0.1,7.1-0.2,14.1-0.2,21.2c0,4.4,0.5,8.9,0.4,13.3
		c-0.2,17.1-0.5,34.2-0.9,51.2c-0.3,14-0.7,28.1-1,42.1c-0.2,7.6-4.7,11.2-12.3,10.8c-13.7-0.8-21.6-8.9-27.1-20.4
		c-7-14.5-14-28.9-22.1-43.5c0,4.9,0,9.7,0,14.6c0.1,12.2,0.9,24.4,0.1,36.5c-0.5,7.7-6.5,11.8-16.3,11.7c-9.6-0.1-13.1-3.2-13-13
		c0.1-18.2,1-36.4,1.7-54.6c0.4-11.4,1.2-22.9,1.7-34.3c0.5-11.4,0.6-22.8,1.5-34.2c0.7-9.2,3.4-11.2,12.5-11.1
		c7.6,0.2,13.8,2.3,16.9,10.4c6.1,16.1,13,32,18.9,48.2c4.1,11.2,7.1,22.8,10.7,34.2c0.3,1.1,0.9,2,1.4,3.1
		C868.8,978.4,869.3,978.4,869.8,978.4z"/>
	<path class="st2" d="M1253.1,950.5c7.4,6.1,10.3,13.8,11.6,22.2c0.8,5.2,1.1,10.6,1.4,15.9c0.8,13.8-6.8,24.5-20,28.5
		c-16.4,5-33.4,3.8-50,2.7c-9.4-0.6-9.2-1.7-9.2-10.8c0.1-15.6-0.1-31.2,0.3-46.8c0.3-11.9,1.3-23.7,2-35.6
		c0.9-14.5,1.8-29,2.6-43.5c0.3-5.1,3.4-8.5,8.5-8c12,1.3,24.2,1.9,35.9,4.6c5.7,1.3,11.7,5.6,15.3,10.3
		c11.1,14.6,15.5,30.7,6.4,48.4C1256,942.3,1254.7,946.4,1253.1,950.5z M1214.4,996.2c9.2,1.5,16.4-1.4,22.7-6.4
		c5.7-4.5,7.1-11.8,5.2-18.5c-2-6.9-11-11.9-17.6-12.7c-4.1-0.5-8.2-3.2-9.5,5.6C1213.6,975.1,1214.5,985.5,1214.4,996.2z
		 M1215.9,927c-0.2,0-0.5,0-0.7,0c-0.1,2.5-0.2,5-0.4,7.5c-0.2,2.6,0.9,3.9,3.5,3.5c7-1.1,13.9-2.7,17.3-10
		c4.5-9.7,6.5-19.6-4.1-24.6c-3.5-1.6-7.6-2-11.4-2.8c-2.7-0.5-4.2,0.6-4.2,3.4C1215.9,911.7,1215.9,919.3,1215.9,927z"/>
	<path class="st2" d="M1607.2,980.1c6.4,18.4,12.8,37,19.2,55.5c0.3,0.8,0.5,1.6,0.7,2.4c2.1,7.1,0.6,8.9-6.7,8.1
		c-0.7-0.1-1.3-0.4-2-0.3c-11.5,0.5-15.9-6.3-18.9-16.3c-4.8-15.9-11-31.3-16.6-46.9c-0.3-0.7-0.7-1.4-2.2-2.1
		c-0.4,2.4-0.8,4.8-1.1,7.3c-2,15.3-4,30.6-5.8,46c-0.5,4.3-2,6.3-6.6,5.6c-5.1-0.7-10.2-1.1-15.4-1.7c-3.4-0.4-4.8-2.4-4.3-5.9
		c1.5-10.3,3.1-20.6,4.2-30.9c1-9.6,1.4-19.2,2.1-28.8c1.1-15.1,2.2-30.2,3.3-45.3c0.6-8.2,1.3-16.4,2.2-24.6
		c0.5-4.5,3.3-6.9,7.8-7.7c8-1.4,15.9-0.4,23.6,1.7c7.6,2.1,15.2,4.4,22.8,6.7c7.5,2.3,11.9,7.8,15.5,14.5
		c6.7,12.5,7.2,25.8,4.2,38.8c-2.5,10.8-9.5,19.5-21.6,22c-1.1,0.2-2.3,0.5-3.4,0.7C1608.2,978.9,1608.1,979.1,1607.2,980.1z
		 M1585.7,922.6c0,3.4,0.1,6.8,0,10.1c-0.2,6.3-0.9,12.5-0.8,18.8c0,1.9,1.3,5,2.8,5.6c5.8,2.5,14.3-0.2,18-5.5
		c2-2.9,3.6-6.2,4.6-9.6c2.4-8.5-1.4-16.3-8.3-17.5C1596.8,923.6,1591.5,923.2,1585.7,922.6z"/>
	<path class="st2" d="M1515.7,979.8c-2.4-21.5-4.8-42.9-7.3-64.4c-0.7-5.9-1.8-11.8-2.4-17.7c-0.5-4.5,1.2-8,6.2-8.6
		c5.1-0.6,10.2-1.2,15.3-1.2c1.1,0,2.9,2.4,3.1,4c1.6,11.1,3,22.3,4.4,33.4c1.9,14.6,4.2,29.2,5.5,43.9c1.4,15.5,1.9,31-3.6,46.2
		c-3.4,9.4-9.9,14.6-19,18c-6.3,2.3-12.4,3.6-19.2,3.3c-10-0.4-18.3-4.1-24.5-11.5c-2.9-3.5-4.5-8.4-5.8-13
		c-2.3-8.1-4.5-16.3-5.8-24.6c-4.2-27.5-8.1-55.1-12-82.7c-0.6-3.9,1.1-7.4,4.8-8.2c6.1-1.4,12.4-2.3,18.6-2.1
		c1.7,0,4.3,4.3,4.6,6.9c3,23,5.3,46.1,8.3,69.1c1.2,9.2,3.3,18.3,5.2,27.4c0.9,4.2,6.9,8.4,11.1,8.6c5.5,0.2,8.2-4.1,10.6-11.4
		c0.8-2.5,1-5.2,1.2-7.9c0.2-2.5,0-5,0-7.5C1515.2,979.9,1515.5,979.8,1515.7,979.8z"/>
	<path class="st2" d="M924.6,936.3c8.6,0,16.5-0.3,24.5,0.1c10.5,0.4,16.5,10.3,11.7,19.8c-1.2,2.5-5.4,4.3-8.5,4.8
		c-6,0.9-12.2,1.2-18.3,0.9c-6.9-0.4-9.8,3.2-9.8,11.3c0,8.2,1.1,16.4,1,24.7c0,4.1,1.5,4.6,4.9,4.5c10.6-0.5,21.3-0.6,31.9-1.2
		c5.3-0.3,9.2,0.6,9.8,6.9c0.1,1.6,1,3.2,1.4,4.8c2.3,10.6-0.7,14.7-11.3,15.1c-17.7,0.7-35.5,1-53.2,1.7c-4.7,0.2-7-1.8-7.3-6.1
		c-0.4-5-0.4-10-0.7-14.9c-0.6-9.3-1.6-18.6-1.8-27.8c-0.3-24.4-0.1-48.8-0.2-73.2c0-5.1-0.8-10.3-0.9-15.4
		c-0.1-6.1,2.3-8.7,8.4-8.8c17.3-0.2,34.5-0.5,51.8,0.1c14.2,0.5,16,6.4,14.1,19c-0.2,1.1-1.7,2.7-2.9,3c-5.2,1.4-10.4,3-15.7,3.6
		c-8,0.9-16.2,0.7-24.2,1.5c-4.3,0.4-6.1,3.8-6,7.8C923.5,924.1,924.2,929.9,924.6,936.3z"/>
	<path class="st2" d="M983.4,1031c-0.5-5.6-1.1-10.1-1.2-14.7c-0.5-12.4-1-24.8-1-37.2c0-5.2,1.3-10.4,1.6-15.6
		c0.5-12.4,0.8-24.8,1-37.3c0.2-10.6,0-21.1,0.1-31.7c0.1-8.1,4.3-11.3,14.2-11.2c7.1,0.1,11.6,4.4,11.7,11.4
		c0.1,17.7,0.3,35.4,0.3,53.2c0,19.1-0.2,38.1-0.4,57.2c-0.1,6.6-0.6,13.3-0.8,19.9c-0.2,4.1-2.2,6-6.3,6
		C996.6,1030.9,990.7,1031,983.4,1031z"/>
	<path class="st2" d="M448.8,995.1c-0.2,0.4-0.3,0.6-0.3,0.9h-1.2c0-0.2-0.1-0.5-0.3-0.9c0.2,0,0.3-0.1,0.3-0.3L448.8,995.1z
		 M410.7,974.2v2.3h-0.5l0.2-2.3H410.7z M431.9,911.7c0-2.3,1.4-3.4,4.3-3.4c5.9-0.2,11.1,2.4,15.6,7.7c0.7,1,2.1,3.7,4.3,7.9
		c2.3,5.3,3.4,9.7,3.4,13.3c0,0.2-0.1,0.5-0.3,1c0.2,1.4,0.3,2.5,0.3,3.4v2.8c0,0.4,0.1,0.8,0.3,1.2c-0.2,0.4-0.3,0.9-0.3,1.4v0.9
		c0,1.6-0.1,3.6-0.3,5.9c0.2,0.4,0.3,0.8,0.3,1c-0.1,0-0.5,0.8-1,2.5l0.3,0.8c-1,8.1-1.9,13.8-2.8,17.1l0.3,1.3l-0.6,0.5
		c-0.6,3.1-2,7.2-4,12.2c0,0.9-1.1,2.4-3.2,4.6l-0.5-0.2h-1v0.2c-1.7,1-2.6,1.8-2.6,2.5h-0.3l-1.2-0.9c-1.4,1-2.1,1.6-2.1,1.9h-4.3
		h-0.3l-0.5,0.3l-0.3-0.8c-0.5,0.5-1.1,0.8-1.9,0.8c0,0.8-0.7,1.3-2.1,1.5c0-0.3-0.2-1.3-0.6-2.9c0-1.4,0.1-4.4,0.3-8.9
		c1.2-9.7,1.8-18.7,1.8-27.2c0-0.2-0.4-4.5-1.2-12.8l0.3-0.6l-0.6-2.6c0.2-0.4,0.3-0.8,0.3-1.2v-0.6l-0.3-1.8l0.3-0.8
		c-0.4-3.2-0.6-5.8-0.6-7.7l0.3-1.5c-0.2,0-0.3-0.3-0.3-1v-1.6l0.3-1.5c-0.2,0-0.3-0.1-0.3-0.3c0.3-4.7,0.6-7.9,1-9.8l-0.3-0.5
		C431.8,913.2,431.9,911.8,431.9,911.7z M420.8,875.9c-0.2,0-0.9-0.1-1.9-0.3c-4.8,0-8.3,2.6-10.6,7.7c-1.2,0-2.5,5.7-3.8,17.2
		c0.2,0,0.3,0.1,0.3,0.4c-0.2,0.4-0.3,0.8-0.3,1.2v0.6c0,1.7-0.1,3.6-0.3,5.6l0.3,1.3c-0.2,2.1-0.5,4.4-0.9,6.8
		c0.2,0,0.3,0.1,0.3,0.3c-0.2,1.2-0.3,2.2-0.3,2.9v2.5l0.3,0.5l-1,1.1c0,0.4,0.2,0.9,0.6,1.5c0,1.5-0.1,2.7-0.3,3.4
		c0.2,1.8,0.3,3.3,0.3,4.6v11.9l0.3,2.3c-0.2,0-0.4,1.5-0.6,4.6c0.2,0,0.3,0.1,0.3,0.3h-0.3c0,3.3,0.2,6.5,0.6,9.7
		c-0.2,0-0.3,0.1-0.3,0.2c0.2,0.4,0.3,0.8,0.3,1.4v0.9c0,0.8-0.1,1.7-0.3,2.8l0.3,0.6c-0.2,1.8-0.3,3.3-0.3,4.4v0.3l0.3,1.5
		c-0.2,0-0.3,0.3-0.3,1v0.6l0.3,0.6c-0.3,0-0.5,0.4-0.6,1.2l0.3,0.6c0,0.2-0.1,0.5-0.3,0.9l0.3,2.3c-0.2,1.5-0.3,2.3-0.3,2.5
		c0.2,1.1,0.3,1.7,0.3,1.9c-0.4,0.7-0.6,1.3-0.6,1.6c0,0.4,0.1,0.8,0.3,1.2c-0.2,0.4-0.3,0.6-0.3,0.9c0,4.6,0.2,8.8,0.6,12.8
		c0,0.1-0.1,1.5-0.3,4.1c0.2,3.7,0.3,5.9,0.3,6.9c-0.2,1.5-0.3,2.4-0.3,2.6s0.1,0.3,0.3,0.3c0,3.4,1,5.9,3.1,7.4l-0.3,0.6
		c1.1,1.7,2.8,2.6,4.9,2.6l1.9-0.3c1.3,0.2,2.6,0.6,4.1,1.2c0.2,0,0.5-0.1,1-0.3l5.6,1c0-0.2,0.1-0.3,0.3-0.3l1.8,0.3l0.6-0.3
		c0,0.2,0.1,0.3,0.3,0.3h0.5c0.5,0,1-0.1,1.4-0.3c0.4,0.2,0.8,0.3,1.2,0.3h1c3.3,0,5.7-0.1,7.1-0.3c8.3-1.4,12.5-2.5,12.5-3.1
		l2.3,0.2h0.3c3.4-0.9,7.9-4.2,13.4-9.9c4.3-4,6.4-6.6,6.4-7.8c1.9-3.2,2.9-5.2,2.9-6.2c5-10.1,7.5-17.3,7.5-21.6
		c-0.2,0-0.3-0.1-0.3-0.3l0.5-0.9V975l0.3-1.6c-0.2,0-0.3-0.3-0.3-0.9v-0.8c0.6-3.9,1-6.2,1-6.9v-5.3c0.5-0.6,0.9-1.8,1.3-3.5
		c-0.8-0.7-1.2-1.9-1.3-3.7l0.3-0.8c-0.2-0.3-0.3-0.7-0.3-1.2v-1.2c0-3.3-0.2-5.5-0.6-6.6h0.3l-0.3-1.5c0-0.6,0.1-1,0.3-1.4
		l-0.9-4.6c-1.1-7.1-2.3-11.8-3.8-14.1c-0.6-2.7-1.2-4.1-1.6-4.1c0-0.5,0.1-1.3,0.3-2.5c0-0.4-0.2-0.5-0.6-0.5
		c-1.8-7.8-3-12.2-3.7-13.1c0-1.6-2-5.3-5.9-11.3c-8.3-9.4-19.2-14.1-32.8-14.1H431l-0.5,0.3c0-0.2-0.1-0.3-0.3-0.3h-6.6L422,875
		C422.3,875.4,421.8,875.7,420.8,875.9z M311.6,1020.6h0.8v0.8h-1.6C310.8,1020.9,311.1,1020.6,311.6,1020.6z M306.4,874.6
		c-3.5,0-5.6,5.5-6.1,16.5c0.3,0.5,0.4,0.9,0.4,1.2l-0.4,0.9c0,0.6,0.1,1.1,0.4,1.6l-0.9,11l0.9,11.7c-0.3,0-0.6,0.7-0.9,2
		c0,0.6,0.1,1.1,0.4,1.6c-0.5,8.6-0.8,15.2-0.8,19.8l0.3,0.8c-0.2,0-0.3,0.1-0.3,0.4v2.5l0.3,0.9c-0.3,0-0.7,1.2-1.2,3.5l0.4,0.9
		c0,0.9-0.1,1.5-0.4,2c0.3,1.4,0.4,2.6,0.4,3.5v3.3l-0.4,2c0.3,0,0.4,0.1,0.4,0.4c-0.3,0.4-0.4,1-0.4,1.6v5.2
		c0,5.2-0.3,9.1-0.8,11.7c0.2,0,0.3,0.1,0.3,0.4h-0.3l0.3,2.8v0.4l-0.3,2c0.2,0,0.3,0.1,0.3,0.4l-0.3,1.9l0.3,0.9
		c-0.5,1.4-0.8,2.4-0.8,2.9l0.8,9.2c-0.2,2.4-0.3,3.7-0.3,4c0.6,12.2,2.1,18.8,4.4,19.9c0,1.8,2.6,3,7.7,3.7c0.6,0,1.1-0.1,1.6-0.4
		c0.4,0.3,1,0.4,1.6,0.4c7-1.1,11.5-2.8,13.3-4.8c0-0.3-0.1-0.7-0.4-1.2c1-1.6,1.7-2.5,2-2.5v0.9h0.9l0.8-6.1l-0.4-0.9
		c0-0.1,0.1-0.9,0.4-2.4c-0.3-5.9-0.7-9.7-1.2-11.4h0.4c-0.3-3.9-0.4-6.6-0.4-7.9l0.4-2c-0.4,0-0.6-0.8-0.9-2.5l0.9-1.6l-0.4-2.5
		V980c0-1.8-0.1-3.4-0.4-4.8c0.3-1.4,0.4-3,0.4-4.8v-1.3c0-1.1-0.1-2.5-0.4-4.4c0.4-2.4,0.8-3.5,1.2-3.5h0.4
		c2.4,6,4.9,11.5,7.3,16.5c6.2,9.8,12.2,21.2,17.8,34.3c6.5,7.4,11.5,11.9,14.9,13.4c4.7,0.9,7.3,1.5,8.1,2h0.8l0.9-0.4v0.4
		c0.6,0,1.1-0.1,1.6-0.4l4.1,0.8l1.6-0.3c0,0.2,0.1,0.3,0.4,0.3c0.8,0,1.2-0.5,1.2-1.6c2.6-1.4,4.4-3.5,5.6-6.4v-2
		c0-0.6-0.1-1.2-0.3-1.6l0.3-0.9c-0.2-2.7-0.3-4.8-0.3-6.3v-8.3c0-0.4-0.3-0.7-0.9-0.9c0-0.4,0.3-1.1,0.9-1.9l-0.4-0.9l0.8-6.4
		l-0.3-1.7l0.3-1.5c-0.5-2.2-0.8-3.6-0.8-4.1v-6.4l-0.4-0.8c0.8,0,1.2-1.8,1.2-5.4l-0.3-4l0.8-1.6c0-0.3-0.1-0.7-0.4-1.2l0.4-0.9
		c0-0.5-0.1-3.7-0.4-9.7l-0.3-0.9h0.3l-0.3-2v-4c0-1.4,0.2-3,0.8-4.9c0-0.8-0.3-1.7-0.8-2.8c0-0.2,0.1-1,0.3-2.4
		c0-0.3-0.1-0.7-0.3-1.3c0.2-0.4,0.3-1,0.3-1.6v-5.6l-0.3-0.9h0.3l-0.8-8.9c0.3,0,0.4-0.1,0.4-0.3l-0.4-2.5v-1.9l0.4-4.2
		c-0.5,0-0.9-1.1-1.3-3.2l0.9-8.4c-0.4,0-0.6-0.6-0.9-1.7c0.3-1.4,0.4-2.6,0.4-3.7v-2.8l-0.4-2.8c0.3,0,0.4-0.1,0.4-0.4l-0.4-0.8
		l0.4-2c-0.5-1.8-0.8-2.9-0.8-3.3c0-2.5-2.5-4-7.6-4.4h-0.9c-1.2,0-2.7,0.4-4.5,1.2c-1.1-0.5-2.5-0.8-4.4-0.8h-0.4l-0.8,0.3V876
		c-3.2,0.4-4.8,1.1-4.8,1.9c-2.7,0-4.3,5.3-4.9,15.8c0.6,9.7,1,14.6,1.2,14.6c0.9,22.1,1.6,33.1,2,33.1h-0.4l0.4,2.1
		c0,1.1-0.1,2.1-0.4,3.2c0.6,2.1,1,4.4,1,6.8V964l-0.5,2c0.4,0,0.5,0.4,0.5,1.2v1.6l-0.5,4.8h-0.4c-0.3,0-1-1.5-2-4.4
		c-3.7-15.6-7.2-26.4-10.7-32.3c-5.3-16.3-10.3-28.7-15-37.2c-0.2-1.6-3.7-9-10.5-21.9c-4.8-3.2-9.4-4.7-13.8-4.7
		C309.8,873.4,307.2,873.8,306.4,874.6z M263.3,875.1c-2.3,0-3.7,2.5-4.2,7.4l0.3,0.6l-0.3,0.6l0.3,2.1v3.8c0,0.5,0.1,0.9,0.3,1.3
		c-0.2,0.4-0.3,0.9-0.3,1.4v5.2c0,6.4,0.3,15.5,0.9,27.3c-0.2,0.4-0.3,0.8-0.3,1.3c0.2,0,0.3,0.1,0.3,0.4l-0.3,1.7
		c0,0.5,0.1,0.9,0.3,1.3l-0.6,6.9c0.2,0.4,0.3,0.9,0.3,1.4c-0.2,0.4-0.3,0.8-0.3,1c0.2,0,0.3,0.1,0.3,0.3c-0.2,0-0.3,0.1-0.3,0.4v3
		c0,1-0.2,8-0.5,20.9v1.7l-0.6,6.4c0.4,2.9-0.3,6.1-2,9.6c0.2,0,0.3,0.1,0.3,0.3c-1.2,4.3-2.2,6.9-3,7.8c0,0.3-0.1,0.1-0.4-0.4
		c0,0.2-0.1,0.3-0.3,0.3c-1.7,4.6-4.6,6.8-8.7,6.7c-3.4,0.4-6.6-1.4-9.5-5.2c-1.4-2.9-2.2-4.3-2.6-4.3c0-0.3,0.1-0.6,0.3-1.1
		c0-0.8-0.1-1.4-0.3-1.7c0.2-1.6,0.3-2.8,0.3-3.8v-1c0-0.4-0.3-1.7-1-3.9l0.3-0.6c-0.2-3.9-0.6-6-1.1-6.4h0.3l-1.1-10.4v-8.3
		l0.3-1.7c-0.2,0-0.3-0.1-0.3-0.3c0.2-0.4,0.3-0.8,0.3-1.4v-0.6l-0.3-0.6h0.3c0-0.2-0.1-0.9-0.3-2.1c-0.2-13.2-0.6-19.9-1.1-19.9
		c0.2,0,0.3-0.1,0.3-0.4v-3l-0.3-3.4c0.2,0,0.3-0.1,0.3-0.3l-0.3-2.1V910l-0.3-0.8c0.6-1.9,0.9-4.7,0.6-8.5v-6.1l-0.3-2.5
		c0.2,0,0.4-2.3,0.6-6.9c0.5-3.1,0.4-4.6-0.4-4.6c0-2.1-0.4-3.6-1.3-4.6c-2.3-1-5.3-1.8-8.9-2.3c-0.3,0-0.6,0.1-1.1,0.4
		c-0.2,0-0.5-0.1-1-0.4l-2.1,0.4h-4.4c-4.2,1.1-6.7,2-7.4,2.8c-0.9,1.2-1.8,2.5-2.7,4l-0.4,14.8c-0.2,0.4-0.3,0.8-0.3,1.3v1.4
		c0,0.5,0.1,1,0.3,1.4l0.3,8.6l0.3,0.6l-0.3,0.6c0,2.6,0.2,5.4,0.6,8.6l-0.6,5.5l0.6,4.8l-0.6,1.7c0.4,1.8,0.8,5.1,1,9.9
		c-0.2,1.2-0.3,1.9-0.3,2l0.6,3.4c-0.2,0-0.3,0.1-0.3,0.3v0.3l0.6,1.1v2.4c0.5,10.5,1,19.2,1.4,26.3c1.8,6.7,2.7,12.6,2.7,17.5
		c-0.2,0.4-0.3,0.8-0.3,1.1l1.7,8.8c0,5.6,4.4,11.6,13.1,18.2c3.2,2.5,8.3,4.2,15.4,5.2h2.7c0.7,0.6,3.1,1.1,7.2,1.4
		c1.4-0.4,2.1-0.8,2.1-1.1c4.1-0.6,6.1-1.3,6.1-2l1.7,0.4c3.9-0.8,5.8-1.6,5.8-2.5h1.1c4.2-1.2,7.8-3.9,10.8-7.9
		c0.9,0,2.7-3.4,5.5-10.3c2.9-6.7,5-13.9,6.2-21.6c-0.2,0-0.3-0.1-0.3-0.3l1-8.1l-0.3-2v-0.8c0-0.2,0.4-1.8,1.1-4.7v-7.5l-0.4-0.8
		c0.3,0,0.4-0.1,0.4-0.3v-5.2l-0.4-2c0.2-0.8,0.6-4.2,1.1-10.2c-0.2,0-0.4-1.5-0.6-4.5c0.2-0.4,0.3-0.9,0.3-1.7v-0.6l-0.3-1.7
		c0.2,0,0.3-0.1,0.3-0.3l-0.8-11.3c0.3,0,0.4-0.1,0.4-0.4l-0.8-1.7c0.2-1.5,0.3-2.8,0.3-3.8v-1.7l-0.3-0.6c0.2,0,0.3-0.1,0.3-0.3
		v-0.9c0-1.8,0.1-3.3,0.4-4.4c-0.2-5-0.7-7.5-1.4-7.5c0-1,0.2-1.9,0.6-2.8c-0.2-0.4-0.3-0.8-0.3-1.3v-4.5l0.3-1.7
		c-0.2,0-0.3-0.1-0.3-0.3c0-0.8,0.1-2.3,0.4-4.5c-0.1-1.7-0.3-2.9-0.5-3.4h0.3l-0.4-1.6c0-0.2,0.1-0.5,0.3-1c-0.1-2.3-0.8-3.6-1.8-4
		h-1.4l-0.6,0.3c0-0.2-0.1-0.3-0.3-0.3h-1.1c-0.4-0.6-0.9-0.8-1.6-0.3c-0.2,0-0.3-0.1-0.3-0.3c-2.9,0.3-5.8,0.3-8.6-0.1l-0.8,0.3
		c0-0.2-0.1-0.3-0.3-0.3l-4.7,0.5C263.6,874.5,263.3,874.7,263.3,875.1z"/>
	<path class="st2" d="M508.3,1018.3v1.2H508c0-0.4-0.1-0.8-0.3-1.2H508.3z M528.7,1009.9v0.4H528v-0.4H528.7z M531,1002.3
		c0.5,0,0.8,0.3,0.8,0.8v0.3h-1.1v-1.1H531z M543.8,950.6v0.3H543v-0.3l0.3-0.6C543.6,950,543.8,950.2,543.8,950.6z M532.7,948.6
		v0.6h-0.2l-0.1-0.6H532.7z M538.4,893.5v0.6h-0.3v-0.6H538.4z M540.6,882.1v0.3l-2-0.3v-0.3l0.4-0.6
		C540.1,881.3,540.6,881.6,540.6,882.1z M524.5,879.8c0.4,0,0.5,0.2,0.5,0.5l-0.2,0.6c-0.5-0.1-0.9-0.2-1.1-0.2
		c0.2-0.4,0.3-0.8,0.3-1h0.5V879.8z M504.9,874.9c-1.7,0.4-2.5,1.3-2.4,2.5c-2.4,0.1-3.1,5.9-1.9,17.4c0,0.2,0.1,0.5,0.3,0.9h-0.3
		c0.1,0.6,0,6.1-0.1,16.7c0.2,0,0.3,0.1,0.3,0.3c-0.2,0-0.3,0.1-0.3,0.2c0.1,4.7-0.1,8.1-0.4,10.2l0.3,0.6
		c-0.6,3.6-0.8,7.5-0.8,11.7c0,0.4,0.1,0.9,0.3,1.3c-0.2,0.4-0.3,0.8-0.2,1.3v4.9l-0.2,2.4c0.2-0.1,0.3,0,0.3,0.2
		c-0.2,0.5-0.4,1.5-0.6,3.1c0.2,0.4,0.3,0.8,0.3,1c0.1,1.5-0.1,3.2-0.5,5.2l0.3,0.5l0.3,9.8c0.3,2.7,0.1,4.2-0.5,4.7
		c-0.1,0-0.3,0.3-0.5,0.9l0.3,0.6l-0.3,1.9v0.6l0.3,0.6h-0.3c0.1,2.4,0,5-0.1,7.6c0.3,7.7,0.6,12.9,1.1,15.5c-0.1,0-0.2,0.3-0.2,0.9
		v1c-0.1,1.7-0.2,2.7-0.2,2.8v2.9l0.3,0.6h-0.2c0,0.7,0,4.6,0.1,11.6s1.8,10.6,5.3,10.7c3.5,0.1,5.8,0.2,7.2,0.2h1.2
		c0.4,0.2,1,0.3,1.8,0.3l1-0.6h0.6v0.5c0.6,0,1.5-0.3,2.9-1c0.7,0.4,1.5,0.6,2.5,0.6l0.6-0.3v0.3c0.2-0.1,0.5-0.2,0.9-0.3
		c1.3,0.4,2.4,0.5,3.2,0.5c0.6,0,1.4-0.1,2.6-0.3c0.4,0.1,0.6,0.2,0.9,0.2c0-0.2,0.1-0.3,0.3-0.3c0,0.2,0.1,0.3,0.3,0.3h0.6
		c0.6,0,1.3-0.2,1.9-0.6c0,0.2,0.3,0.4,1,0.6c0.4-0.2,1.4-0.5,3.1-0.8l0.6,0.3l0.6-0.3l1.9,0.3c3.4-0.2,6.1-0.3,8.1-0.3l1.6,0.3
		c0-0.2,0.9-0.2,2.7-0.1c0.9,0.2,1.7,0.3,2.6,0.3h0.6l1.5-0.3c0,0.2,0.3,0.3,1,0.2c0.6,0,1.2-0.2,1.8-0.6c0,0.4,1.3,0.6,4,0.8
		c0.4,0,0.9-0.2,1.6-0.6l1.8,0.2c0.2,0,0.3-0.1,0.3-0.3c3.9-0.1,6.1-1.4,6.7-4.1c1.2-6.9,0.8-12.4-1.2-16.5
		c-0.3-2.4-0.7-3.7-1.2-3.7c0-1.9-2.2-2.9-6.6-3.2h-1.6l-1.5,0.3c0-0.2-0.1-0.3-0.3-0.3c0,0.2-3.9,0.2-11.8,0c-0.1,0-1-0.1-2.5-0.2
		l-9.7,0.3c-1.6,0-4.5,0.1-8.4,0.2c-4,0.1-5.5-0.8-4.7-2.9l-0.1-14.8l0.3-1.6c0.6-3.1,0.6-5,0.2-5.9h0.3c-0.1-1.5-0.5-2.3-1-2.3
		l0.6-1v-0.3c-0.1-1-0.4-1.5-1-1.5v-0.6h0.3c0.2-7.4,2.8-11.2,7.8-11.6h4.5c0.1,0,1.7-0.1,4.7-0.3h3.1c1.1-0.1,2.1,0.2,3.2,0.9
		c0.4,0,0.6-0.2,0.6-0.6l2.8,0.5c2.4-0.4,3.9-0.6,4.5-0.6c2.9-0.6,5.4-1.7,7.5-3.2c0.8-3.4,1.4-5.4,1.7-6.1
		c-0.2-0.4-0.3-0.8-0.3-1.2v-2.3c-0.1-3.3-0.9-6.4-2.4-9.2c-2.2-3.2-9.5-4.8-21.7-4.8l-3,0.1l-0.5,0.3c0-0.3-0.4-0.5-1.3-0.6
		l-0.6,0.3v-0.3c-1,0-1.5,0.3-1.5,1h-0.6v-0.3h-1.8c-3.9-0.2-5.8-0.7-5.8-1.4v-0.3h0.6v-1.1c0-1.1-0.4-2.8-1.1-5.3
		c0.4-1,0.6-2.7,0.5-5.2v-3.1l-0.3-2.3c-0.4-4,1.6-7.1,6-9.1c0.2,0,0.5,0.1,0.9,0.3c4.5-0.9,6.8-1.4,7-1.4c0,0.2,0.1,0.3,0.3,0.3
		l4.3-0.6l12.2,0.6c0-0.2,0.1-0.3,0.3-0.3c0.6,0,1,0.4,1,1.2h0.6c0-0.6,0.2-0.9,0.5-1c0.1,0.6,0.3,1,0.6,1h0.3c0-0.2,0.1-0.5,0.3-1
		c2.1,0.1,3.2,0.4,3.2,1l2.8-1.1l1.6,0.3c1.3-0.9,1.9-1.4,1.9-1.6l0.6,0.3h0.5c1.7-0.3,4-1.6,7-4c0-0.4-0.2-0.9-0.6-1.5
		c0.9-2.4,1.3-5.4,1.3-9c-1.1-3.1-1.7-4.9-1.7-5.4c-1.5-1.1-2.3-1.8-2.3-2.1l0,0v0.6h-0.3c0-1-0.8-1.9-2.5-2.6
		c-3.7-0.5-5.8-1-6.1-1.4h-0.3l-1.5,0.3c0-0.4-0.5-0.6-1.6-0.6l-0.5,0.3c-0.1-0.2-0.3-0.3-0.4-0.2h-2.9l-0.5,0.3
		c0-0.2-1.3-0.4-3.9-0.5c-0.4,0.2-0.8,0.3-1,0.3l-1.2-0.3l-1.6,0.6c0-0.3-1.4-0.5-4.2-0.5c-0.2,0-0.5,0.1-0.9,0.3
		c0-0.4-0.2-0.6-0.6-0.6l-0.6,0.3v-0.3c-0.2,0-0.5,0.1-1,0.3c-1.7-0.6-3.9-0.9-6.7-1.1c0,0.2-0.1,0.3-0.3,0.3c0-0.3-0.8-0.5-2.5-0.6
		l-0.6,0.3l-0.8-0.3l-2.8,0.4c-0.2,0-0.5-0.1-0.9-0.3c-0.4,0.2-0.8,0.3-1.3,0.3h-0.3c-1.6-0.4-3.6-0.6-6-0.8
		C511.7,874.1,506.6,874.5,504.9,874.9z"/>
	<path class="st2" d="M632.6,930.2c1.4-6.7,2.3-10.1,2.7-10.2c0.9,0,1.9,2.8,3,8.4H638c0.8,5.4,1.2,8.8,1.2,10.2
		c0,0.3,0.2,0.7,0.6,1.2v0.3c0,0.4-0.2,0.5-0.6,0.5l1,4.2v1.5l-0.3,1.5c0.2,0,0.3,0.3,0.3,0.9v0.6c-0.2,0-0.3-0.1-0.3-0.3
		c-1.1,0-4.5,0.3-10.2,1c-0.9-0.4-1.5-0.6-1.8-0.6v-1.5c0-1.7,0.3-2.9,1-3.5v-0.3l-0.3-0.6C630.4,938.1,631.8,933.7,632.6,930.2z
		 M619,880.4c-1.7,4.7-3.2,7.3-4.3,7.6l-2,8.3l0.3,0.5c-0.2,0-0.3,0.3-0.3,0.8c-1.9,4.2-4,10.3-6.2,18.3l0.3,0.5
		c-0.4,0-0.5,0.3-0.5,0.8c0,0.9-1.1,4.6-3.3,11.3c-1.3,7.2-2.2,11-2.8,11.5v0.3l0.3,0.6H600c-0.3,2.7-0.7,4-1.2,4
		c-1.6,9.2-2.9,13.8-3.8,13.8c0,0.4,0.1,0.8,0.3,1.2c-1,6.9-2,11.2-3,12.9l0.3,0.6c-0.6,2.1-1.1,3.7-1.6,4.8c0,0.2,0.1,0.5,0.3,1
		c-1,6.5-1.9,10.5-2.7,11.8l0.3,0.6c0,0.1-0.2,0.9-0.6,2.5l0.3,0.6h-0.3c-0.7,5.7-1.4,8.9-2.1,9.8c0,0.2,0.1,0.5,0.2,0.9
		c-0.1,1.6-0.4,2.5-0.9,2.5c0,0.2,0.1,0.5,0.3,1c0,1.1-0.5,4.5-1.5,10.3c0.1,2.5,0.4,3.8,0.6,3.8c1.1,4.2,5.3,6.3,12.6,6.3
		c8.3-0.1,12.5-0.8,12.5-1.8c0.9-1.1,2.1-3.1,3.7-5.9c1.1-2.2,2-7.8,2.7-16.8c-0.2,0-0.3-0.1-0.3-0.2c0.7-2.1,1.1-3.3,1.1-3.8
		c0-0.2-0.1-0.5-0.4-0.9l0.8-1.5l-0.3-0.6c0.8-1.7,1.7-4.8,2.7-9.1c-0.2,0-0.3-0.1-0.3-0.3c0.4,0,0.6-0.3,0.6-0.9
		c0-3.1,4.2-4.9,12.6-5.5h2.7c3.7,0.4,5.9,0.8,6.8,1.2c1.1,0,2.6,8.1,4.6,24.4c-0.3,0-0.4,0.1-0.4,0.3c0.3,0.4,0.6,2.2,1,5.3
		c0,7.4,1.6,11.7,4.9,12.7c0,1.6,4.8,2.6,14.3,2.8c4.7,0,8.5-2.6,11.3-7.9c-0.4-0.5-0.5-1.5-0.5-3c-2.3-14.8-3.4-24-3.4-27.5
		c0-0.2-0.1-0.5-0.2-1h0.2l-1.7-10.3l0.2-0.6c0-0.4-0.2-0.9-0.5-1.6l0.3-0.5l-0.8-2.1v-2.5c0-2.4-0.2-4-0.6-4.9
		c0-5.4-1.1-10.1-3.2-14.2c-1.3-11.5-2.7-20.1-4.3-25.8c0-0.2,0.1-0.5,0.3-1c-0.6-2.6-1-4-1.2-4c-1.5-9.1-2.5-14.6-3.1-16.4h0.3
		l-1-6.3c0.2,0,0.3-0.1,0.3-0.3c-0.6-3.7-1.7-7.8-3.4-12.2c-2-5.2-5.3-8.6-9.8-10.2c-0.5-1.2-4.7-1.8-12.5-1.7
		c-0.6,0-1.3,0.1-2.1,0.3c-0.4-0.2-0.8-0.3-1-0.3C624.2,876,620.5,877.9,619,880.4z"/>
	<path class="st2" d="M735.5,995.1c-0.2,0.4-0.3,0.6-0.3,0.9H734c0-0.2-0.1-0.5-0.3-0.9c0.2,0,0.3-0.1,0.3-0.3L735.5,995.1z
		 M697.3,974.2v2.3h-0.5l0.2-2.3H697.3z M718.5,911.7c0-2.3,1.4-3.4,4.3-3.4c5.9-0.2,11.1,2.4,15.6,7.7c0.7,1,2.1,3.7,4.3,7.9
		c2.3,5.3,3.4,9.7,3.4,13.3c0,0.2-0.1,0.5-0.3,1c0.2,1.4,0.3,2.5,0.3,3.4v2.8c0,0.4,0.1,0.8,0.3,1.2c-0.2,0.4-0.3,0.9-0.3,1.4v0.9
		c0,1.6-0.1,3.6-0.3,5.9c0.2,0.4,0.3,0.8,0.3,1c-0.1,0-0.5,0.8-1,2.5l0.3,0.8c-1,8.1-1.9,13.8-2.8,17.1l0.3,1.3l-0.6,0.5
		c-0.6,3.1-2,7.2-4,12.2c0,0.9-1.1,2.4-3.2,4.6l-0.5-0.2h-1v0.2c-1.7,1-2.6,1.8-2.6,2.5h-0.3l-1.2-0.9c-1.4,1-2.1,1.6-2.1,1.9h-4.3
		h-0.3l-0.5,0.3l-0.3-0.8c-0.5,0.5-1.1,0.8-1.9,0.8c0,0.8-0.7,1.3-2.1,1.5c0-0.3-0.2-1.3-0.6-2.9c0-1.4,0.1-4.4,0.3-8.9
		c1.2-9.7,1.8-18.7,1.8-27.2c0-0.2-0.4-4.5-1.2-12.8l0.3-0.6l-0.6-2.6c0.2-0.4,0.3-0.8,0.3-1.2v-0.6l-0.3-1.8l0.3-0.8
		c-0.4-3.2-0.6-5.8-0.6-7.7l0.3-1.5c-0.2,0-0.3-0.3-0.3-1v-1.6l0.3-1.5c-0.2,0-0.3-0.1-0.3-0.3c0.3-4.7,0.6-7.9,1-9.8l-0.3-0.5
		C718.4,913.2,718.5,911.8,718.5,911.7z M707.4,875.9c-0.2,0-0.9-0.1-1.9-0.3c-4.8,0-8.3,2.6-10.6,7.7c-1.2,0-2.5,5.7-3.8,17.2
		c0.2,0,0.3,0.1,0.3,0.4c-0.2,0.4-0.3,0.8-0.3,1.2v0.6c0,1.7-0.1,3.6-0.3,5.6l0.3,1.3c-0.2,2.1-0.5,4.4-0.9,6.8
		c0.2,0,0.3,0.1,0.3,0.3c-0.2,1.2-0.3,2.2-0.3,2.9v2.5l0.3,0.5l-1,1.1c0,0.4,0.2,0.9,0.6,1.5c0,1.5-0.1,2.7-0.3,3.4
		c0.2,1.8,0.3,3.3,0.3,4.6v11.9l0.3,2.3c-0.2,0-0.4,1.5-0.6,4.6c0.2,0,0.3,0.1,0.3,0.3h-0.3c0,3.3,0.2,6.5,0.6,9.7
		c-0.2,0-0.3,0.1-0.3,0.2c0.2,0.4,0.3,0.8,0.3,1.4v0.9c0,0.8-0.1,1.7-0.3,2.8l0.3,0.6c-0.2,1.8-0.3,3.3-0.3,4.4v0.3l0.3,1.5
		c-0.2,0-0.3,0.3-0.3,1v0.6l0.3,0.6c-0.3,0-0.5,0.4-0.6,1.2l0.3,0.6c0,0.2-0.1,0.5-0.3,0.9l0.3,2.3c-0.2,1.5-0.3,2.3-0.3,2.5
		c0.2,1.1,0.3,1.7,0.3,1.9c-0.4,0.7-0.6,1.3-0.6,1.6c0,0.4,0.1,0.8,0.3,1.2c-0.2,0.4-0.3,0.6-0.3,0.9c0,4.6,0.2,8.8,0.6,12.8
		c0,0.1-0.1,1.5-0.3,4.1c0.2,3.7,0.3,5.9,0.3,6.9c-0.2,1.5-0.3,2.4-0.3,2.6s0.1,0.3,0.3,0.3c0,3.4,1,5.9,3.1,7.4l-0.3,0.6
		c1.1,1.7,2.8,2.6,4.9,2.6l1.9-0.3c1.3,0.2,2.6,0.6,4.1,1.2c0.2,0,0.5-0.1,1-0.3l5.6,1c0-0.2,0.1-0.3,0.3-0.3l1.8,0.3l0.6-0.3
		c0,0.2,0.1,0.3,0.3,0.3h0.5c0.5,0,1-0.1,1.4-0.3c0.4,0.2,0.8,0.3,1.2,0.3h1c3.3,0,5.7-0.1,7.1-0.3c8.3-1.4,12.5-2.5,12.5-3.1
		l2.3,0.2h0.3c3.4-0.9,7.9-4.2,13.4-9.9c4.3-4,6.4-6.6,6.4-7.8c1.9-3.2,2.9-5.2,2.9-6.2c5-10.1,7.5-17.3,7.5-21.6
		c-0.2,0-0.3-0.1-0.3-0.3l0.5-0.9V975l0.3-1.6c-0.2,0-0.3-0.3-0.3-0.9v-0.8c0.6-3.9,1-6.2,1-6.9v-5.3c0.5-0.6,0.9-1.8,1.3-3.5
		c-0.8-0.7-1.2-1.9-1.3-3.7l0.3-0.8c-0.2-0.3-0.3-0.7-0.3-1.2v-1.2c0-3.3-0.2-5.5-0.6-6.6h0.3l-0.3-1.5c0-0.6,0.1-1,0.3-1.4
		l-0.9-4.6c-1.1-7.1-2.3-11.8-3.8-14.1c-0.6-2.7-1.2-4.1-1.6-4.1c0-0.5,0.1-1.3,0.3-2.5c0-0.4-0.2-0.5-0.6-0.5
		c-1.8-7.8-3-12.2-3.7-13.1c0-1.6-2-5.3-5.9-11.3c-8.3-9.4-19.2-14.1-32.8-14.1H718l-0.5,0.3c0-0.2-0.1-0.3-0.3-0.3h-6.6L709,875
		C708.9,875.4,708.4,875.7,707.4,875.9z"/>
	<path class="st1" d="M642.1,833.4c-0.1,0.3,0,0.5,0.1,0.6C644.9,835.7,644.9,835.5,642.1,833.4 M603.7,797.2c0,0.2,0.2,0.4,0.4,0.4
		C606.6,799.5,606.5,799.3,603.7,797.2 M592.7,810.3c-0.1,0.3,0,0.6,0.1,0.8C595.4,812.9,595.3,812.6,592.7,810.3 M599.6,797.8
		c0,0.2,0.1,0.4,0.2,0.4C602.6,799.1,602.5,799,599.6,797.8 M645.3,818.7c2.7,1.7,2.7,1.5-0.3-0.6
		C645.1,818.4,645.2,818.6,645.3,818.7 M646.9,813.3c-0.4,1.2-0.1,1.7,0.7,1.5l1.9-0.3C651.4,809.7,650.5,809.3,646.9,813.3
		 M635.2,823.5v1.3c3.4-1.6,3.4-2.6,0-2.9C635.3,822.4,635.2,822.9,635.2,823.5 M632.3,821.5c2.5,2.7,2.4,2.5-0.3-0.6
		C632.1,821.2,632.2,821.4,632.3,821.5 M756.1,867c-0.2-0.1-0.5-0.1-0.8,0l-0.1,0.5c0.4-0.1,0.7-0.1,0.9-0.1L756.1,867 M669.4,833.5
		c1-2.9,0.3-4.6-1.9-4.9c-0.1,1.1,0,2.2,0.2,3.4l0.5-0.1c-0.3,6.4-0.1,7.2,0.7,2.5c0-0.2,0-0.5,0-0.8
		C669.2,833.7,669.3,833.6,669.4,833.5 M672.2,819.7c2.6,1.9,2.5,1.7-0.3-0.6C672,819.4,672.1,819.6,672.2,819.7 M666.3,820.2
		c3.6,0.4,3.4-0.6-0.8-2.9C665.2,819.1,665.5,820.1,666.3,820.2 M653.9,800c0.1,1.1,0.1,1.6,0.2,1.6
		C658.1,802.7,658.1,802.1,653.9,800 M736.3,835.5c-0.1,0.3,0,0.5,0.2,0.4C739.1,837.8,739,837.7,736.3,835.5 M738.4,841.2
		c0.8,1.7,1.8,3.2,2.9,4.4l0.8,0.8C745.8,844.4,744.6,842.7,738.4,841.2 M739.6,851c0,0.2,0.1,0.4,0.3,0.6
		C743.2,853.5,743.1,853.3,739.6,851 M651.8,672.9c-0.2,0-0.4,0.1-0.5,0.2c-2.2,3.2-4.8,6-7.8,8.3c-0.1,0.3-0.1,0.6,0,0.8
		c-0.3-0.1-0.5,0-0.6,0.3c-0.8,0.7-1.4,1.3-1.9,2.1c-0.1,0.3-0.1,0.6,0,0.8c-0.1,0.3-0.1,0.5-0.3,0.4c-1,0.4-1.8,1-2.3,2
		c0,3.3,1,3.1,3.1-0.8c0.1-0.1,0.2-0.3,0.2-0.7c0.7-1,1.4-1.8,2.2-2.6c0.1-0.1,0.2-0.3,0.2-0.7c0.3,0.1,0.5,0,0.6-0.1
		C647.5,679.8,649.9,676.5,651.8,672.9 M651.9,671.3c1.3,1.3,3.3,0.5,6-2.4c0.6-0.6,0.5-1.3-0.2-2.1
		C656.3,665.2,654.3,666.7,651.9,671.3 M690.5,645.2c-0.6,1.8-0.4,3.1,0.6,3.8C694.6,647.6,694.4,646.3,690.5,645.2 M606.1,778.3
		c3-0.9,3-1.1,0.1-0.5L606.1,778.3 M602.3,770.3l-0.1,1.6C606,766.7,606,766.1,602.3,770.3 M594.1,757.1c0.2,0.1,0.4,0,0.5-0.1
		c4-6.4,3.6-6.7-1.3-0.8c-0.1,0.2-0.1,0.5,0,0.8c-0.3,0-0.5,0.1-0.5,0.2c-0.6,1-1.3,1.7-2.1,2.1c1.1,1,2.2,0.5,3.2-1.6
		C594,757.6,594.1,757.3,594.1,757.1 M602.1,752l-3.1,2.9c0.1,1.4,0.9,2.2,2.3,2.4c0.3,0.2,0.6,0.2,0.8,0.2c-0.1,0.2-0.1,0.3,0,0.3
		c3.1,0.9,3.1,0.6,0-1.1C602.6,754.9,602.6,753.3,602.1,752 M555.2,791.2c-0.2-0.1-0.4,0-0.6,0.1c-1.7,0.6-3.5,1.3-5.2,2.1
		c2.1,1.9,4.3,1.4,6.4-1.5c0.2-0.2,0.3-0.5,0.2-0.7l1.6-1.4c3.1-1.7,2.3-1.5-2.3,0.5C555.2,790.6,555.2,790.9,555.2,791.2
		 M535.8,769.4v1.3C538.1,770.8,538.1,770.3,535.8,769.4 M562.6,751.1l-0.1,0.3C566.9,750.3,566.9,750.2,562.6,751.1 M552.4,758.3
		c4.8-1.5,4.9-1.6,0.1-0.3L552.4,758.3 M541.9,725.8c3.1,3.7,3,3.5-0.1-0.8C541.7,725.3,541.8,725.6,541.9,725.8 M566.3,701.1
		l-0.1,0.3C571.5,699.7,571.6,699.6,566.3,701.1 M608.4,703.5l-0.1,0.3C611.1,702.9,611.1,702.8,608.4,703.5 M578.5,640v1.3
		c2.2,0.1,2.2-1.1,0.1-3.7C578.6,638.4,578.6,639.2,578.5,640 M547.2,631.4c-0.1,0.3,0,0.6,0.1,0.8
		C550.2,634.5,550.1,634.3,547.2,631.4 M693.5,840.3c0.3-2-1.1-3.5-4.4-4.3c-0.1,1.6,0.1,3.1,0.5,4.3c0.5,1,1.1,1.8,2,2.4
		c0.5,0.4,0.8,0.4,1,0.2C693.1,842,693.4,841.1,693.5,840.3 M679.5,799c0.3,0.2,0.6,0.5,0.9,0.7c3.1,2.4,3.1,2.3,0-0.3
		c-0.3-0.2-0.7-0.5-1.1-0.8C679.3,798.7,679.4,798.9,679.5,799 M704.5,704.3c1,0.1,1.7,0.2,2.1,0.2h0.3c-0.4-0.1-1.3-0.2-2.7-0.4
		l-0.1,0.2v0.2C704.3,704.3,704.4,704.3,704.5,704.3 M664.5,766.1c2.6,1.9,2.5,1.7-0.1-0.5C664.4,765.9,664.5,766,664.5,766.1
		 M661.2,764.7c0,0.2,0.1,0.4,0.1,0.6c1.2,5,3.2,9.3,5.9,13.1c0-0.2-0.1-0.4-0.3-0.6C665.5,773,663.6,768.6,661.2,764.7 M709,687.2
		c-0.2-0.1-0.4,0-0.6,0.3c-1.4,0.8-2.9,1.4-4.4,2c0.9,0.6,2.5,0.7,4.9,0.4c0.3-0.2,0.6-0.2,0.8-0.1c2.2,0.5,3.2-0.2,2.9-2.2
		c0-0.1-0.1-0.1-0.3-0.1c0.5-0.7,1.3-1.1,2.4-1c0.6,0,1-0.1,1.3-0.2c0.9-0.1,1.2-0.5,0.8-1.1c-0.1-0.1-0.2-0.3-0.4-0.4
		c-0.1,0-0.2-0.1-0.3-0.1c-1-0.4-3.1,0.3-6.2,1.9c-0.1,0.3-0.1,0.6,0,0.8C709.6,687.1,709.4,687.1,709,687.2 M689.3,810.2
		c-0.1,0.2,0,0.4,0.3,0.6C693.7,815.2,693.6,815,689.3,810.2 M688.7,765c0,0.2,0.1,0.4,0.1,0.5C694.3,768,694.2,767.8,688.7,765
		 M696.5,751.4c0.5-2.3,0-4-1.4-4.9c-3-1.7-4.8-1.2-5.4,1.6c-0.8,3.4-2.5,4.7-5.3,3.7c0,0.2,0.1,0.4,0.2,0.4
		C690,757.3,693.9,757,696.5,751.4 M702.4,749.6c4.3,0.2,4.3-0.2,0-1.1V749.6 M704.6,736.3c-0.1,0.3,0,0.5,0.1,0.5
		C707.4,738.5,707.4,738.4,704.6,736.3 M682.5,741.2v1.3C685.6,741.3,685.6,740.9,682.5,741.2 M695.7,693.1l0.1,0.5
		C703,691.3,703,691.1,695.7,693.1 M691.1,686.5c-0.1,0.3,0,0.5,0.3,0.6C693.9,688.9,693.8,688.7,691.1,686.5 M681.7,703.3
		c0.2-0.1,0.5-0.2,0.8-0.1c-0.1,0.2-0.1,0.5,0,0.8c-0.1,0.2-0.2,0.5-0.4,0.7c-0.1,0-0.3,0-0.5,0.1c0,7.3,2.9,8.9,8.7,5
		c0.5-0.3,0.7-1,0.6-2.2c-0.2-2.6-1.6-3.9-4.4-4.2c0-0.3-0.1-0.6-0.3-0.8c-0.2-0.4-0.4-0.7-0.6-0.9c0.1-0.3,0.1-0.6,0-0.8
		c1.1-0.5,2.2-1.1,3.1-1.8c0.1,0,0.1-0.2,0.1-0.5c2.1-0.4,3.6-1.4,4.6-3l0.7-0.9c-1.7-0.9-3.6-0.2-5.8,2.2c0,0.3,0,0.6,0,0.8
		c-0.3-0.1-0.6,0-0.8,0.1c-3.2,1.8-6.2,3.7-9.1,5.9C678.9,705.6,680,705.5,681.7,703.3 M678.6,678.6l-0.1,0.5
		C684.7,679.1,684.7,679,678.6,678.6 M689.4,672c0.1-0.3,0-0.6-0.1-0.8c-0.7-10.4-4.7-12.5-11.8-6.2c0,0.2,0,0.5,0,0.8
		C678.2,673,682.2,675.1,689.4,672 M686,677c3.7,0.1,3.7,0,0-0.3V677 M591.1,769.8c-0.1,1.1,0.1,2.2,0.3,3.3c0.5,2.6,1.6,3,3.4,1.1
		c1.1-1.2,1.8-2.3,2.1-3.1c0.8-1.6,0-2.3-2.3-2.1C593.7,769.2,592.5,769.4,591.1,769.8 M589.8,762.8l0.4-0.9
		c-1.5,0.6-3.4,1.9-5.8,3.6c-0.7,0.5-1.4,1-2.2,1.6c0,0.3,0.1,0.5,0.2,0.4c1.3,0.5,2.8,0,4.6-1.7
		C587.9,765.1,588.8,764.1,589.8,762.8 M602.1,700c-0.1,0.8,0,1.2,0.2,1.3c0.7,0.2,1.3,0.3,1.8,0.4c3.1,0.7,3,0.4-0.3-0.9
		C603.3,700.5,602.7,700.2,602.1,700 M568.3,669.7c0.1-0.3,0.1-0.7,0-1c-0.5-3.1-2-5.3-4.6-6.5c0.6,3.3,1.9,6,4,7.9
		c0.1,0.2,0.3,0.3,0.5,0.4c1.1,2.3,2.1,4.7,2.9,7.3c0,0.2,0.1,0.4,0.1,0.6c-0.2,0-0.4,0-0.5-0.1c-4.4-8.2-12.1-13.3-23.2-15.3
		c-0.2,3.8,0.6,6.6,2.4,8.2c0.2,0.2,0.4,0.4,0.6,0.6c0.1,0.2,0.4,0.3,0.7,0.2c2.1-1.4,4.3-1.9,6.7-1.5c2.1,0.3,4.4,1.4,6.8,3.1
		c0.1,0.2,0.2,0.4,0.3,0.6c1,2.4,2.2,4.7,3.6,6.7c0,0.2,0.1,0.4,0.1,0.6c1,1.4,1.8,2.7,2.6,4.1c0.1,0.1,0.3,0.1,0.5,0.1
		c0,0.9,0.1,1.6,0.2,2.4c0.1,0.1,0.3,0.1,0.5,0.1c-0.3,1.7,0,2.9,0.8,3.4c0.2,0.1,0.4,0.2,0.5,0.2c0.1,0.1,0.1,0.2,0.1,0.5
		c0,0.3,0,0.6,0,0.8c0,0.3,0,0.5-0.1,0.7v0.2c0.1,0.8-0.4,1.1-1.7,0.7l0.1-0.3c-1.7-0.3-3.3-1-4.9-2.2c0.1-0.2,0.1-0.5,0-1
		c-0.1-1.4-1.2-1.9-3.2-1.6c-0.6,2.2-0.1,3.3,1.5,3.3c0.3,0,0.6,0,0.8,0c1,0.4,1.7,1.1,2,2.3c0,0.1,0.1,0.1,0.3,0.1
		c1,2.2,2.4,4.1,4.1,5.7c0.2,0.2,0.5,0.2,0.7,0.2c0.6,0.9,1.3,1.7,2.1,2.3c0.8,0.5,1.6,0.8,2.6,1.1c0.2,0.2,0.5,0.2,0.8,0.2
		c1.8,3.9,4.7,6.9,8.7,9c0.5,0.2,0.9,0.4,1.4,0.6c0.1,0.1,0.2,0.3,0.1,0.6c-0.6,4.4-0.3,7.9,1,10.5c0.2,0.3,0.2,0.6,0.3,0.8
		c-3.5,5.4-3.3,10,0.7,13.9c0.2,0.2,0.3,0.4,0.3,0.6c-0.3,0-0.5,0-0.7-0.1c-1.8-2.7-3.5-2.2-5.1,1.6c0.1-0.3,0-0.6-0.1-0.8
		c-0.3-1.6-1.1-1.9-2.2-0.9c-0.4,1.4-0.2,2.2,0.7,2.5c0.2,0,0.5,0,0.8,0c0.2,0,0.4,0,0.7,0.2c2.8,1.9,1.7,3.7-3.2,5.3
		c-0.1,0.2-0.1,0.5,0,0.8c-1.1,0-1.6-0.2-1.7-0.4c-0.9-6.3-4.1-8-9.7-5c1,9.2,4.9,11.2,11.9,5.9c0.1-0.1,0.2-0.3,0.2-0.5
		c3.4-1.1,6.4-2.5,9.1-4.3c0.2-0.1,0.5-0.2,0.8-0.3c0.2,0.1,0.5,0.1,0.8,0c1,1.5,2.5,2.4,4.6,2.7c0.3,0.1,0.6,0.1,0.8,0l0.5,0.1
		c0.1,0.8-0.3,1.3-1.2,1.5c0.3,1.6,1.5,1.4,3.5-0.5c0.1,0,0.3,0,0.5-0.1c2.2,3.2,4.3,5.1,6.4,5.8c0.3,0.1,0.6,0.1,0.8,0.2
		c-0.4,4.1,0,6.1,1.4,5.8c0.3,0,0.6,0,0.8,0c-0.1,0.2-0.1,0.5,0,0.8c-0.3,2.4-0.9,4.5-2,6.3c0,0.3,0,0.6,0,0.8
		c0,0.3,0.1,0.6,0.1,0.8c0.2,1.2-0.2,1.7-1,1.6c0.3,4.7,0.9,4.2,1.7-1.5c0.1-0.2,0.1-0.5,0-0.8c2.7-0.8,3.6,2.2,2.7,9.1
		c0,0.1,0.3,0.4,0.8,0.8c0.8,0.8,1.1,0.8,1.1-0.2c0.3,0.1,0.6,0.1,0.8,0c0.3,0.1,0.6,0.1,0.8,0c0.8,1.3,1.6,1,2.3-0.7
		c0.1-0.2,0.1-0.5,0.2-0.8c0.2,0.1,0.3,0.2,0.4,0.3c1.9,4.3,1.3,7.7-1.7,10.2c0,0.3,0,0.6,0,0.8c-0.3,0-0.6,0.1-0.8,0.1
		c-1.9,0.8-4.9,0.2-8.9-2c0,1.5,0.3,2.8,0.9,3.9c0.1,0.1,0.3,0.2,0.5,0.2c0,0.2,0,0.4-0.2,0.5c-0.1,0.1-0.3,0.2-0.6,0.3
		c0.4,3.1,1.1,3.3,2.2,0.8c0.2-0.2,0.3-0.5,0.2-0.7c0.5,2.6,1.9,3.3,4.2,2.1c2.4-1.4,5.6-2,9.6-1.6c3.4-1.1,6.2-0.6,8.3,1.3l0.1-0.3
		c0.3-2-0.8-3-3.4-3.2c0.1-0.3,0-0.5-0.3-0.6c-0.3-0.4-0.7-0.8-1.3-1.1c0-0.2-0.1-0.4-0.1-0.6c-0.5-1.3-1.2-2.5-2.2-3.5
		c0-0.2,0-0.5,0-0.8c0-1.3,0.1-2.6,0.2-4.1c0.5-0.2,1-0.5,1.5-0.9c0.1-0.1,0.2-0.3,0.2-0.7c3.8-2,7.6-0.5,11.4,4.4
		c2.8,3.8,5.8,7.4,9,11c0.2,2.8,0.4,5.5,0.4,8.1c0,0.2,0.1,0.5,0.1,0.8h-0.3c-0.1,1.8-0.9,2.9-2.3,3.1c1.6,5.8,2.5,5.3,2.5-1.5
		c0-0.3,0-0.6,0-0.8c2.3-2.8,3.1-6.5,2.5-11.2h0.3c1.6,2.6,3.1,4.6,4.7,6.2v-0.3c1.1-1,1.9-1,2.3,0.1c0.1,0.2,0.2,0.5,0.1,0.8
		c-0.2-0.1-0.5-0.1-0.8,0c-0.3,1.8,0,3,0.9,3.7c0.2,0.2,0.5,0.3,0.7,0.4c0.4,1.3,0.8,2.7,1.3,4c0,0.3,0.1,0.6,0.1,0.9
		c0.7,4.8,2.3,7.7,4.5,8.5l-0.1-0.5c2.2-4,1.2-6.7-2.9-8.1c-0.3,0-0.6,0.1-0.8,0.1c0-0.3-0.1-0.6-0.1-0.9c-0.3-1.1-0.4-2.5-0.4-4
		c0-0.3,0-0.5,0.1-0.7c1.2-1.2,1.2-2.3,0-3.4c0.1-0.3,0.1-0.6,0-0.8c0.1-0.3,0.1-0.6,0-0.8c0.3,0,0.6,0,0.8,0
		c3.2,1.4,4.7,3.1,4.3,5.1c-0.1,1.3,0.4,2.5,1.5,3.5c5.3,4.2,9.5,9.4,12.7,15.4c0.6,0,1.2,0,1.8,0c3.8,0.4,7.3,1.9,10.4,4.4
		c0.1,0.1,0.3,0.1,0.5,0.1c1.8,5.2,3.9,10,6.3,14.5c0.7,1.2,1.5,2.4,2.2,3.5c0.4,0.7,0.9,1.3,1.4,1.9c1.7-0.7,2.6-2.6,2.7-5.6
		c0-0.1,0-0.2,0-0.3c0-1.1,0.1-2.3,0.2-3.7c-1.9-5.4-4.5-9.5-7.7-12.3h-0.2c-1.5,0.1-3.1-0.3-4.7-1.2c0.1-0.2,0.1-0.5,0-0.8
		c-0.1-1.2-0.9-1.7-2.4-1.7c0.1-0.2,0-0.4-0.1-0.5c-0.1-0.2-0.4-0.3-0.7-0.4c0.1-0.2,0-0.4-0.1-0.6c-1.5-2.7-3.2-5.1-5.2-7.4
		c0-0.3-0.1-0.6-0.1-0.9c-1-1.8-2.5-3.2-4.4-4.2c0-0.2-0.1-0.3-0.2-0.4c0-0.1-0.1-0.1-0.2-0.1c-4.4-3.2-8.2-7-11.4-11.3
		c0.1-0.3,0-0.5-0.1-0.6c-5.8-10-11.9-19.7-18.2-29.1c4.3-1.1,7.5-2.9,9.8-5.5c0.1-0.1,0.2-0.3,0.2-0.5c4.8-1.4,8.6-3.7,11.5-7.1
		c0.1-0.2,0.1-0.4,0.1-0.7c0.3-0.3,0.6-0.5,0.9-0.6c0.2,0,0.5-0.1,0.8-0.1c0,0.2,0.1,0.4,0.2,0.4c0.9,0.3,1.8,0.7,2.6,1.2
		c2.2,1.4,4.2,3.4,5.9,6c0.5-0.3,0.7-0.5,0.6-0.6c-0.7-2.7-3-5.1-7.1-7c-0.7-0.3-1.5-0.6-2.2-0.9c0.1-0.3,0.1-0.6,0.2-0.7
		c2-2.2,2-3.6,0-4.2c0.1-0.2,0.1-0.5,0-0.8c0.1-0.2,0.2-0.4,0.2-0.5c1.5-1,1.2-2.4-0.8-4.4c0-0.2-0.1-0.4-0.1-0.6
		c-1.3-2.9-2.5-6-3.5-9.3c1.7,0.1,3.4,0.4,5,0.7c2.2,0.5,4.3,1.2,6.3,2.1c0.2,0.1,0.5,0.1,0.8,0.2c3.3-3.5,2.5-6.9-2.7-10.1
		c-0.1-0.1-0.2-0.2-0.2-0.4c0.1-0.3,0.1-0.6,0-0.8c2.4-1,3-1.5,1.7-1.5c-0.3-0.1-0.6-0.1-0.8,0c0.1-0.3,0-0.6-0.1-0.8
		c-0.2-2.1-1-2.2-2.3-0.1c0,0.2,0,0.5,0,0.8c0,0.2,0,0.5,0,0.8c-0.3,0-0.6,0-0.8-0.2c-1-0.3-2-0.6-3-0.8c-3.5-0.9-7.4-1.6-11.5-2
		c2.1-1.2,4-2.6,5.7-4.2c0.1-0.1,0.2-0.3,0.2-0.5c0.2,0.1,0.5,0,0.8-0.1c1.4-0.5,2.8-1.1,4.1-1.8c1.8-0.9,3.5-2.1,5.2-3.4
		c-0.3,0-0.6,0.1-0.9,0.1c-1.4,0.6-2.9,1.2-4.4,1.8c-2,0.9-4.1,1.7-6.2,2.6c-0.1,0.2-0.1,0.5,0,0.8c-0.3-0.1-0.5,0-0.5,0.1
		c-1.2,1.4-2.7,2.3-4.6,3c-0.1,0.2-0.1,0.5,0,0.8c-2.6,2-4,1.7-4-1v-0.2c0.2-2.7-0.5-4.9-2.1-6.4c6.3-4.2,9.5-10.3,9.7-18.2
		c0-0.2,0-0.5,0-0.8c0.3,0,0.5-0.1,0.6-0.3c4.6-4.6,4.4-5-0.5-1.4c-0.1,0.3-0.1,0.6,0,0.8c-0.2-0.1-0.5-0.1-0.8,0
		c-0.2-0.1-0.5-0.1-0.8,0c-1.9-0.1-2.9-1-3.1-2.6c0-0.2-0.1-0.4-0.1-0.5c-0.8-1-1-2.4-0.5-4.4c2.7-2.8,5.1-5.8,7.2-9.2
		c0.1-0.1,0.3-0.1,0.5-0.1c0.2-3.6,1.2-6.2,3-7.9c0.1-0.1,0.3-0.2,0.6-0.3c0.4-0.9,0.6-1.9,0.8-3c0.1-0.6,0.2-1.2,0.2-1.8
		c0-0.3,0-0.6,0-0.8c3.1-2.9,5.6-6.6,7.5-11c0.2-0.2,0.2-0.5,0.2-0.8l0.3,0.1c0.8-2.8,0.7-5,0-6.6c-2.6,0.5-4.4,2.3-5.3,5.3
		c-0.5,2.2-1.5,4.5-2.9,6.7c-2.4,3.8-4.6,7.8-6.4,12.1c-2.7,6.3-5.7,10.7-9,13.1c-0.2,0-0.4,0-0.5-0.1c-4.2,7.6-9.4,14.2-15.6,19.6
		c0,0.3,0,0.6,0,0.8c-0.3,5.3-2,6.6-5.1,3.8l-0.3-0.1c-0.4-6.2-3.3-10.9-8.8-14.1c-0.3,0-0.5,0.1-0.5,0.2c-1.8,2.9-1,4.7,2.6,5.6
		c-2.8,1.5-4.5,4-5,7.4c-0.4,2.1-1.1,3.1-2.1,3.1c-2.6,0.1-5.2-0.3-7.8-1.2c-0.1,0.2-0.1,0.5,0,0.8c-0.2-0.1-0.4-0.2-0.5-0.2
		c-0.8-1.2-2-1.9-3.6-2.3c0.5,1.3,1.4,2.4,2.6,3.1c0.2,0.1,0.5,0.1,0.7,0.2c-0.1,1.1,0.2,1.8,0.8,2.3c0.7,0.6,1,1.2,0.9,1.6
		c-0.9,5.2-5.3,8.6-13,10.2c0.1-0.3,0.1-0.6,0.2-0.8c0.8-2.5,0.9-4.9,0.2-7.1c-0.9-2.6-2.9-4.9-6.1-7c0-0.3-0.1-0.6-0.1-0.8
		c-0.9-3-1.8-5.9-2.8-8.9c0.1-0.2,0-0.5-0.1-0.9c-0.4-2.1-1.1-4-2-5.7c0-0.2,0-0.5,0-0.8c0.4-2.3-1.2-4-4.7-5.1
		c0-0.2-0.1-0.4-0.2-0.4c-1.2-0.9-2.5-1.6-3.7-2.2c-0.2,2.4,0.9,3.6,3.1,3.5c0.2-0.1,0.5-0.2,0.8-0.1c1.1,1.5,2.3,3,3.6,4.4
		c0.1,0.2,0.2,0.4,0.3,0.6c0.1,3,0.6,5.6,1.5,8c0,0.1,0.2,0.2,0.5,0.2c0.1,3.2,0.7,5.9,1.9,8.1c0.1,0.2,0.2,0.4,0.3,0.8
		c-0.1,0.2-0.1,0.5,0,0.8c-0.1,1.7-1.2,2.3-3.3,1.6c-0.3-0.1-0.6-0.1-0.8-0.2c-1.3-1-2.4-2.1-3.1-3.2c0-0.3-0.2-0.5-0.4-0.6
		c-0.9-1.5-1.8-2.9-2.8-4.4c0.1-0.3,0-0.5-0.1-0.5c-1.3-0.6-1.7-1.8-1.4-3.7c0.1-0.2,0-0.4-0.1-0.6c-1.3-2.6-2.7-4.9-4.5-6.9
		c0-0.2,0-0.5,0-0.8c-0.1-0.8-0.6-1.4-1.6-1.7c0-0.2-0.1-0.4-0.1-0.6c-0.8-1.4-1.7-2.6-3-3.6c0-0.2-0.1-0.4-0.1-0.6
		C571.7,674.2,570.2,671.8,568.3,669.7 M583.9,811.7c1.5,2.7,1.4,2.4-0.1-0.8C583.8,811.2,583.8,811.5,583.9,811.7 M585.1,778.6
		c0.6,1.6,1.4,1.1,2.5-1.7C588.8,773.6,588,774.2,585.1,778.6 M590.7,780.3c-0.1,0.3,0,0.5,0.1,0.6
		C593.2,782.6,593.2,782.4,590.7,780.3 M585.9,797.3v0.3C589.8,795.1,589.7,795,585.9,797.3 M591.7,794.2c0,0.2,0.1,0.4,0.3,0.6
		C594.4,796.4,594.3,796.2,591.7,794.2 M571.3,799.1c-0.1,0.2,0,0.4,0.1,0.5C574,801.4,574,801.3,571.3,799.1 M569.4,784.1
		c2.5,1.7,2.5,1.5-0.1-0.5C569.3,783.9,569.3,784.1,569.4,784.1 M577.1,771.8l0.1,0.5C581.4,771.2,581.4,771,577.1,771.8
		 M524.2,675.8l0.8,1C528.1,676.7,527.9,676.3,524.2,675.8 M541.8,664.6c0,1.7,0.8,2.5,2.1,2.4C548.3,667.1,547.5,666.3,541.8,664.6
		 M538.4,670c3.7,0.1,3.1-0.7-1.7-2.3C536.7,669.1,537.3,669.9,538.4,670 M538.6,663.8c4.1-0.2,3.6-1.1-1.5-2.7
		C536.7,662.9,537.2,663.8,538.6,663.8 M598.4,688.5c0,0.3,0.1,0.5,0.3,0.6C604.7,693.5,604.6,693.3,598.4,688.5 M573.9,653.6
		c-0.1,0.2,0,0.4,0.1,0.6C576.6,656.2,576.5,656,573.9,653.6z"/>
	<path class="st3" d="M1438.3,907.7c-0.4-0.5-0.7-1-1.1-1.4c-16.4-21.2-38-33.7-64.7-37.6c-27.3-3.9-52,2.3-74.1,18.8
		c-22.1,16.6-35.1,38.5-39,65.8s2.4,52,18.9,74.1c16.5,22.1,38.5,35.1,65.8,39c27.3,3.9,52-2.4,74.1-18.9
		c12.6-9.4,22.3-20.6,29-33.5c5-9.7,8.4-20.5,10.1-32.2C1461.1,954.5,1454.8,929.8,1438.3,907.7 M1430.2,905.2
		c1.5,1.7,2.9,3.5,4.3,5.4c15.7,21,21.7,44.5,18,70.5c-1.7,11.8-5.2,22.5-10.4,32.1c-6.3,11.7-15.2,21.8-26.8,30.4
		c-21,15.8-44.5,21.8-70.5,18c-26-3.7-46.8-16.1-62.6-37.2c-15.7-21-21.7-44.5-17.9-70.5c3.7-26,16.1-46.8,37.1-62.6
		c21-15.7,44.6-21.7,70.5-18C1395.6,876.9,1415,887.5,1430.2,905.2z"/>
	<path class="st4" d="M1434.4,910.6c-1.4-1.8-2.8-3.6-4.3-5.4c-15.2-17.8-34.6-28.4-58.3-31.8c-26-3.7-49.5,2.2-70.5,18
		c-21,15.7-33.4,36.6-37.1,62.6s2.2,49.5,17.9,70.5c15.8,21.1,36.6,33.5,62.6,37.2s49.5-2.3,70.5-18c11.5-8.6,20.4-18.7,26.8-30.4
		c5.2-9.6,8.7-20.4,10.4-32.1C1456.2,955.1,1450.2,931.6,1434.4,910.6"/>
	
		<radialGradient id="SVGID_1_" cx="2231.0703" cy="717.9427" r="1" gradientTransform="matrix(103.2641 14.877 -14.877 103.2641 -218345.8125 -106362.9219)" gradientUnits="userSpaceOnUse">
		<stop  offset="0" style="stop-color:#FFFFFF"/>
		<stop  offset="0.8235" style="stop-color:#FFFFFF"/>
		<stop  offset="1" style="stop-color:#393939"/>
	</radialGradient>
	<path class="st5" d="M1380.5,1008.4c-2.8,0-5.6-0.2-8.5-0.6c-15-2.2-27-9.3-36.1-21.4c-9.1-12.1-12.5-25.6-10.3-40.6
		s9.3-27,21.4-36.1c9.8-7.3,20.5-11,32.2-11c2.8,0,5.6,0.2,8.5,0.6c15,2.2,27,9.3,36.1,21.4s12.5,25.7,10.4,40.7
		c-2.2,15-9.3,27-21.4,36C1402.8,1004.7,1392.1,1008.4,1380.5,1008.4 M1357.2,872.4c-20.2,0-38.8,6.4-55.8,19.1
		c-21,15.7-33.4,36.6-37.1,62.6c-0.7,5-1.1,10-1.1,14.8c0,20.2,6.4,38.8,19,55.7c15.8,21.1,36.6,33.5,62.6,37.2
		c5,0.7,9.9,1.1,14.7,1.1c20.2,0,38.8-6.4,55.8-19.1c11.5-8.6,20.4-18.7,26.8-30.4c5.2-9.6,8.7-20.4,10.4-32.1
		c0.7-5,1.1-9.9,1.1-14.6c0-20.2-6.3-38.9-19.1-55.9c-1.4-1.8-2.8-3.6-4.3-5.4c-15.2-17.8-34.6-28.4-58.3-31.8
		C1366.9,872.7,1362,872.4,1357.2,872.4"/>
	<g>
		<g>
			<g>
				<defs>
					<path id="SVGID_00000157276530395738961280000002758065095816345526_" d="M1379.1,898.6c-11.7,0-22.4,3.7-32.2,11
						c-12.1,9.1-19.2,21.1-21.4,36.1c-2.2,15,1.3,28.5,10.3,40.6c9.1,12.1,21.1,19.3,36.1,21.4c2.9,0.4,5.7,0.6,8.5,0.6
						c11.7,0,22.4-3.7,32.2-11c12.1-9.1,19.3-21.1,21.4-36c2.2-15-1.3-28.5-10.4-40.7c-9.1-12.1-21.1-19.2-36.1-21.4
						C1384.7,898.8,1381.9,898.6,1379.1,898.6"/>
				</defs>
				<clipPath id="SVGID_00000084519974035077621680000014900731089993057446_">
					<use xlink:href="#SVGID_00000157276530395738961280000002758065095816345526_"  style="overflow:visible;"/>
				</clipPath>
				<g style="clip-path:url(#SVGID_00000084519974035077621680000014900731089993057446_);">
					<g>
						<g>
							<defs>
								<rect id="SVGID_00000085954087802202341260000008187040911414302129_" x="1323.4" y="898.6" width="112.8" height="109.7"/>
							</defs>
							<clipPath id="SVGID_00000011750407909164209000000004838788078172127629_">
								<use xlink:href="#SVGID_00000085954087802202341260000008187040911414302129_"  style="overflow:visible;"/>
							</clipPath>
							<g style="clip-path:url(#SVGID_00000011750407909164209000000004838788078172127629_);">
							</g>
						</g>
					</g>
				</g>
			</g>
		</g>
	</g>
	<path class="st3" d="M1417.9,926.7c-4.5-6-9.9-10.5-16.2-13.4c-3.9-1.9-8.2-3.1-12.9-3.8c-8.1-1.2-15.7-0.3-22.7,2.6
		c-3.5,1.4-6.8,3.3-10,5.7c-1.5,1.1-2.8,2.2-4.1,3.4c-7.3,6.8-11.7,15.4-13.2,25.6c-1.7,12,1,23,8.3,32.7c0.6,0.8,1.2,1.6,1.9,2.4
		c7.1,8.3,16.1,13.2,27.2,14.8c12.1,1.7,23-1,32.7-8.3c7.7-5.8,12.9-13,15.6-21.8c0.7-2.3,1.2-4.7,1.6-7.3
		C1428,947.3,1425.2,936.4,1417.9,926.7 M1414.9,928.9c1,1.3,1.9,2.7,2.7,4c3,5.1,4.7,10.5,5.3,16.2c0.3,3.2,0.2,6.4-0.3,9.8
		c-0.3,2-0.7,4-1.3,5.9c-1.6,5.6-4.3,10.5-8.1,14.8c-1.8,2.1-4,4-6.4,5.8c-5.3,4-10.9,6.5-16.9,7.6c-4.2,0.7-8.5,0.8-13,0.1
		c-1.3-0.2-2.6-0.4-3.8-0.7c-7.9-1.9-14.5-5.8-20-11.7c-1-1.1-1.9-2.2-2.8-3.4c-1.3-1.8-2.5-3.6-3.5-5.4c-2.3-4.2-3.7-8.7-4.3-13.3
		c-0.3-2.8-0.4-5.6-0.2-8.5c0.1-0.9,0.2-1.8,0.3-2.7c1.3-9.3,5.3-17,11.8-23.2c1.2-1.2,2.6-2.3,4-3.4c3.2-2.4,6.6-4.2,10-5.6
		c5.2-2,10.7-2.8,16.5-2.4c1.1,0.1,2.3,0.2,3.5,0.3c4.7,0.7,8.9,2,12.8,4C1406.5,919.9,1411,923.8,1414.9,928.9 M1386.2,933.7
		c-3.5,0-6.7,1-9.7,2.9c-0.5,0.3-1.1,0.7-1.6,1.1c-0.6,0.4-1.1,0.9-1.6,1.3c-3.5,3.1-5.6,7.1-6.2,11.9c-0.2,1.1-0.2,2.2-0.2,3.3
		c0,3.7,1,7.1,3.1,10.3c0.3,0.4,0.6,0.9,0.9,1.3c2.5,3.4,5.7,5.7,9.5,7c1.2,0.4,2.4,0.6,3.7,0.8c1.3,0.2,2.7,0.3,4,0.2
		c3.9-0.2,7.5-1.5,10.9-4c0.8-0.6,1.6-1.2,2.3-1.9c2.2-2.2,3.8-4.7,4.7-7.5c0.4-1.2,0.7-2.5,0.9-3.8c0.2-1.7,0.3-3.4,0.2-5
		c-0.2-1.3-0.4-2.7-0.9-3.9c-0.3,0.4-0.7,0.7-1.1,1c-0.7,0.5-1.5,0.9-2.3,1.1c-0.9,0.2-1.8,0.3-2.8,0.2c-1.9-0.3-3.3-1.2-4.4-2.7
		s-1.6-3.2-1.3-5c0.3-1.9,1.2-3.4,2.7-4.5c0.4-0.3,0.9-0.6,1.3-0.8c-1.3-0.9-2.6-1.6-4.1-2.1c-1.4-0.5-2.8-0.9-4.3-1.1
		C1388.6,933.8,1387.4,933.7,1386.2,933.7 M1375.7,963c1.5,2,3.3,3.7,5.2,4.9c1.8,1.1,3.7,1.9,5.8,2.3c0.5,0.1,0.9,0.2,1.3,0.3
		c-0.2,0-0.3,0-0.5,0c-1.1,0.1-2.3,0-3.5-0.1c-2-0.3-3.9-0.9-5.5-1.8c-1.8-1-3.4-2.4-4.7-4.2c-2.6-3.4-3.5-7.2-2.9-11.5
		c0.2-1.5,0.6-2.9,1.2-4.2c-0.1,0.6-0.2,1.1-0.3,1.8C1371.5,954.9,1372.8,959.1,1375.7,963z"/>
	<path class="st8" d="M1389.8,993c0.7-5.6,0.6-10.6-0.3-14.8c-0.4-1.8-0.9-3.2-1.5-4.4c-1.3,0-2.6,0-4-0.2c-1.3-0.2-2.5-0.5-3.7-0.8
		c-0.9,0.9-1.8,2.1-2.6,3.7c-2.2,4.1-3.8,9.3-4.7,15.4c0,0.2,0,0.3-0.1,0.5c1.3,0.3,2.5,0.5,3.8,0.7
		C1381.3,993.8,1385.7,993.7,1389.8,993 M1409.2,960.6c-1.2-0.2-2.3-0.2-3.3-0.2c-1,2.9-2.5,5.4-4.7,7.5c0.5,0.9,1.1,2,2,3.1
		c2.4,3.1,5.7,6,10,8.7c3.8-4.3,6.5-9.3,8.1-14.8C1417,962.5,1412.9,961.1,1409.2,960.6 M1406.5,939.6c0.9,1.4,1.3,3,1,4.7
		c-0.2,1.3-0.7,2.5-1.5,3.4c0.4,1.3,0.7,2.6,0.9,3.9c0.9,0.1,1.9,0.2,3,0.2c3.9,0,8.2-0.9,12.9-2.7c-0.5-5.7-2.3-11.1-5.3-16.2
		C1413.1,934.9,1409.4,937.1,1406.5,939.6 M1366.9,954.2c-1.7-1.8-4.1-3.2-7.2-4.2c-5.3-1.7-11.1-1.7-17.4,0.1
		c-0.2,2.9-0.2,5.7,0.2,8.5c5.1-1.5,9.7-2.1,13.7-1.8c4,0.3,6.3,1.3,6.8,3.2s-0.8,4-4.1,6.3c-3.1,2.3-7.2,4.2-12.1,5.6
		c1,1.8,2.1,3.6,3.5,5.4c0.9,1.2,1.8,2.3,2.8,3.4c5.4-1.9,9.7-4.8,13-8.6c2.2-2.5,3.5-5.1,4-7.6
		C1367.9,961.3,1366.9,957.9,1366.9,954.2 M1375.4,928.5c-1.5-4.2-3.8-8.6-7-13.3c-3.5,1.3-6.8,3.2-10,5.6c-1.4,1.1-2.8,2.2-4,3.4
		c3.8,4.8,7.7,8.6,11.5,11.4c3.1,2.3,5.6,3.4,7.5,3.4c0.5-0.5,1-0.9,1.6-1.3c0.5-0.4,1.1-0.8,1.6-1.1
		C1377,934.8,1376.6,932.1,1375.4,928.5 M1398.6,926.6c1-2.8,1.9-6,2.5-9.5c-3.9-2-8.2-3.3-12.8-4c-1.2-0.2-2.3-0.3-3.5-0.3
		c-0.9,6.3-0.8,11.8,0.1,16.5c0.3,1.7,0.8,3.2,1.3,4.4c1.2,0,2.3,0,3.5,0.2c1.5,0.2,2.9,0.6,4.3,1.1c0.9-1,1.7-2.3,2.6-4
		c0.3-0.5,0.5-1,0.8-1.5c-0.1-0.3-0.2-0.7-0.1-1.1C1397.5,927.7,1397.9,927.1,1398.6,926.6z"/>
	<path class="st9" d="M1401.2,967.9c-0.7,0.7-1.4,1.3-2.3,1.9c-3.3,2.5-6.9,3.8-10.9,4c0.6,1.1,1.1,2.6,1.5,4.4
		c0.9,4.2,1,9.2,0.3,14.8c6-1.1,11.7-3.6,16.9-7.6c2.4-1.8,4.5-3.7,6.4-5.8c-4.2-2.7-7.6-5.6-10-8.7
		C1402.3,969.9,1401.6,968.8,1401.2,967.9 M1409.9,951.8c-1.1,0-2.1,0-3-0.2c0.1,1.6,0.1,3.3-0.2,5c-0.2,1.3-0.5,2.6-0.9,3.8
		c1,0,2.1,0,3.3,0.2c3.8,0.5,7.8,1.9,12.1,4.2c0.5-1.9,1-3.9,1.3-5.9c0.5-3.4,0.6-6.6,0.3-9.8
		C1418.1,950.9,1413.8,951.8,1409.9,951.8 M1370.9,965.8c-0.3-0.4-0.6-0.8-0.9-1.3c-0.5,2.5-1.8,5.1-4,7.6c-3.2,3.8-7.6,6.7-13,8.6
		c5.5,6,12.1,9.9,20,11.7c0-0.2,0-0.3,0.1-0.5c0.9-6.2,2.5-11.3,4.7-15.4c0.9-1.6,1.8-2.8,2.6-3.7
		C1376.6,971.5,1373.4,969.2,1370.9,965.8 M1359.7,950c3.1,1,5.5,2.4,7.2,4.2c0-1.1,0.1-2.2,0.2-3.3c0.7-4.8,2.8-8.8,6.2-11.9
		c-1.9,0-4.3-1.1-7.5-3.4c-3.8-2.8-7.7-6.6-11.5-11.4c-6.5,6.2-10.4,13.9-11.8,23.2c-0.1,0.9-0.2,1.8-0.3,2.7
		C1348.5,948.4,1354.3,948.3,1359.7,950 M1384.8,912.8c-5.8-0.4-11.3,0.4-16.5,2.4c3.2,4.7,5.5,9.1,7,13.3c1.3,3.6,1.7,6.3,1.2,8.1
		c3-1.9,6.2-2.9,9.7-2.9c-0.5-1.2-1-2.6-1.3-4.4C1384,924.6,1384,919.1,1384.8,912.8 M1401.1,917.2c-0.6,3.5-1.5,6.7-2.5,9.5
		l0.2-0.2c0.9-0.5,1.9-0.6,3-0.5c1.1,0.2,2,0.6,2.7,1.3s1,1.5,0.9,2.3s-0.6,1.5-1.5,1.9c-0.9,0.5-1.9,0.6-3,0.5
		c-1.1-0.2-2.1-0.6-2.8-1.3c-0.4-0.4-0.7-0.8-0.8-1.2c-0.2,0.5-0.5,1-0.8,1.5c-0.9,1.7-1.8,3-2.6,4c1.4,0.5,2.8,1.2,4.1,2.1
		c1.1-0.5,2.3-0.7,3.7-0.5c1.9,0.3,3.4,1.1,4.5,2.6c0.1,0.1,0.2,0.2,0.3,0.3c2.9-2.5,6.5-4.7,11-6.6c-0.8-1.4-1.7-2.7-2.7-4
		C1411,923.8,1406.5,919.9,1401.1,917.2z"/>
	<path class="st4" d="M1407.6,944.3c0.2-1.7-0.1-3.3-1-4.7c-0.1-0.1-0.2-0.2-0.3-0.3c-1.1-1.5-2.6-2.4-4.5-2.6
		c-1.3-0.2-2.5,0-3.7,0.5c-0.5,0.2-0.9,0.5-1.3,0.8c-1.5,1.1-2.4,2.6-2.7,4.5c-0.3,1.9,0.2,3.5,1.3,5c1.1,1.5,2.6,2.4,4.4,2.7
		c1,0.1,1.9,0.1,2.8-0.2c0.8-0.2,1.5-0.6,2.3-1.1c0.4-0.3,0.8-0.7,1.1-1C1406.9,946.7,1407.4,945.6,1407.6,944.3 M1380.9,967.9
		c-2-1.2-3.7-2.9-5.2-4.9c-2.9-3.9-4.2-8.1-3.8-12.6c0.1-0.6,0.1-1.2,0.3-1.8c-0.6,1.3-1,2.7-1.2,4.2c-0.6,4.2,0.3,8,2.9,11.5
		c1.3,1.8,2.9,3.2,4.7,4.2c1.6,0.9,3.4,1.5,5.5,1.8c1.2,0.1,2.4,0.2,3.5,0.1c0.2,0,0.3,0,0.5,0c-0.4-0.1-0.8-0.2-1.3-0.3
		C1384.6,969.8,1382.7,969,1380.9,967.9 M1397.5,929.5c0.1,0.4,0.4,0.8,0.8,1.2c0.7,0.7,1.6,1.1,2.8,1.3c1.1,0.2,2.1,0,3-0.5
		c0.9-0.4,1.4-1.1,1.5-1.9c0.1-0.8-0.2-1.6-0.9-2.3c-0.7-0.7-1.6-1.1-2.7-1.3c-1.1-0.2-2.2,0-3,0.5l-0.2,0.2c-0.7,0.4-1.2,1-1.3,1.8
		C1397.3,928.8,1397.4,929.2,1397.5,929.5z"/>
	<path class="st10" d="M1362.9,960c-0.6-1.9-2.8-2.9-6.8-3.2c-4-0.2-8.5,0.4-13.7,1.8c0.6,4.7,2,9.1,4.3,13.3
		c4.9-1.4,8.9-3.3,12.1-5.6C1362.1,964,1363.4,961.9,1362.9,960z"/>
	<path class="st11" d="M1407,1004.6c1.8-0.8,3.4-1.7,4.9-2.6c-1.1,0.6-2.3,1.1-3.5,1.6c-11.5,4.8-24.8,6.1-39.8,3.9
		c-15-2.2-27.4-7.2-37.1-15c-1-0.8-2-1.7-2.9-2.5c1.2,1.3,2.5,2.6,4,3.9c9.3,8.1,21.2,13.2,35.7,15.3
		C1383,1011.3,1395.8,1009.8,1407,1004.6z"/>
	<path class="st11" d="M1404.1,909.4c3.2,1.9,5,3,5.5,3.5c-0.7-0.7-2.6-2.4-5.7-5.1c-3.1-2.7-8.8-4.7-17.2-5.9
		c-8.3-1.2-14.4-0.9-18.1,0.8s-6,2.8-6.9,3.3c0.6-0.3,2.7-0.9,6.3-1.8c3.6-1,9.7-0.8,18.3,0.5S1401,907.5,1404.1,909.4z"/>
	
		<radialGradient id="SVGID_00000143615817212076671230000006213347705495534777_" cx="2230.241" cy="717.7262" r="1.0001" gradientTransform="matrix(97.9855 14.1166 -14.1166 97.9855 -207041.4844 -100842.75)" gradientUnits="userSpaceOnUse">
		<stop  offset="0" style="stop-color:#8D191C"/>
		<stop  offset="0.6902" style="stop-color:#8D191C"/>
		<stop  offset="1" style="stop-color:#010101"/>
	</radialGradient>
	<path style="fill:url(#SVGID_00000143615817212076671230000006213347705495534777_);" d="M1386.8,873.8c-4.7-1.4-9.6-2.4-14.6-3.2
		c-2.2-0.3-4.5-0.6-6.7-0.7c-16.7-1.4-32.3,1.3-46.9,8c-10.1,4.4-19.3,10.6-27.6,18.5c-8,7.4-14.4,15.6-19.2,24.8
		c-9.1,16.4-12.8,34.6-11.2,54.4c2.3,26.9,13.7,49.1,34.3,66.4c19.8,16.7,42.5,24.4,68,23c5-0.2,9.9-0.8,14.7-1.8
		c3.7-0.7,7.3-1.7,10.8-2.8c5-1.6,9.8-3.7,14.5-6.1c7.2-3.6,13.8-8.3,20-13.9c17.8-15.5,28.4-35.2,31.9-59.2
		c1.9-13.1,1.4-25.7-1.6-37.6c-0.2-0.6-0.3-1.3-0.5-1.9c0-0.2-0.1-0.4-0.2-0.5c-0.1-0.4-0.2-0.8-0.3-1.2c-1.8-6-4.2-11.9-7.2-17.5
		c-2.5-4.7-5.4-9.2-8.7-13.7C1423.4,891.3,1406.8,879.6,1386.8,873.8 M1374.3,882c5.8-2,11.8-3.4,18.1-4.2c4.3,1.7,8.6,3.8,12.7,6.2
		c5,2.9,9.9,6.4,14.6,10.4c4.6,3.8,8.7,7.9,12.4,12.3c0.5,0.9,1,1.8,1.4,2.7c3.3,6.7,5.1,13.6,5.3,20.7c2.5,3.1,4.8,6.6,6.9,10.5
		l2.3,4.5c0.2,0.4,0.4,0.8,0.5,1.2c1.6,3.5,3.2,7.3,4.6,11.4c0.1,0.6,0.1,1.2,0.2,1.7c1.8,21.3-2.8,40.7-13.6,57.9
		c2.4-5.5,4.2-11.3,5.3-17.3c-6.7,3.5-13.9,6.2-21.7,7.9l-11.1-20.1l3.4,7.9c0.1,0.2,0.2,0.4,0.3,0.7c0.1,0.1,0.1,0.2,0.2,0.4
		l5,11.6c-5.4,12.2-13.6,23.3-24.6,33.1c2.6,3.1,5.8,6.1,9.5,9.1c-11.8,6.9-25.2,11-39.9,12.2c-26.4,2.2-49.6-5.2-69.8-22.2
		s-31.4-38.7-33.6-65.1c-1.2-13.9,0.3-27,4.5-39.2c-1.6,6.9-2.7,13.5-3.2,20.1c4.5,3.9,11.1,7.4,19.7,10.6
		c4.3-7.8,8.9-15.1,13.9-21.9l4.7-6.2c0.4-0.6,0.9-1.1,1.3-1.6c1.5-1.8,3-3.6,4.5-5.3c-3.4-11.2-5.7-21.3-6.7-30.5
		c-8.2,3.4-15.6,7.4-22.4,11.7c1.8-2.5,3.7-5,5.8-7.4c13-15.4,28.8-25.6,47.3-30.5l-1.6,3.6l-24.2,17l27.3-17.1
		c7.1-0.1,13.9,0.3,20.5,1.2l3.2,0.5c4.5,0.7,9,1.7,13.3,3c4.2,6.9,6.8,13.9,7.7,21.1C1377.8,897.3,1376.5,889.8,1374.3,882
		 M1316.3,1009.1l-6.1-1.2c-2.6-0.6-5.2-1.2-7.7-1.8c-5.6-7.3-9.9-14.6-13.1-22l9.1,22.9c-3.5,8.3-5.1,16.7-4.6,25.3
		c10.8,9.4,22.2,17.2,34.3,23.3c12.2-2.7,22.1-6.6,29.8-11.9c-4.4-6-8.2-12.1-11.6-18.4c-2.4-4.4-4.5-8.8-6.4-13.2l12.6-18.2
		c-4.7,6.4-10.3,12.4-16.7,17.9C1329.1,1011.2,1322.6,1010.3,1316.3,1009.1z"/>
	
		<radialGradient id="SVGID_00000114051211475856756700000008869026659938637997_" cx="2142.2085" cy="694.756" r="0.9992" gradientTransform="matrix(15.2314 2.1943 -2.1943 15.2314 -29727.0723 -14238.8496)" gradientUnits="userSpaceOnUse">
		<stop  offset="0" style="stop-color:#8D191C"/>
		<stop  offset="0.5647" style="stop-color:#8D191C"/>
		<stop  offset="1" style="stop-color:#010101"/>
	</radialGradient>
	<path style="fill:url(#SVGID_00000114051211475856756700000008869026659938637997_);" d="M1392.1,1042.7
		c-9.9,1.7-19.8,2.6-29.7,2.5C1372.7,1046.7,1382.6,1045.9,1392.1,1042.7z"/>
	
		<radialGradient id="SVGID_00000156559360483887642330000001054294301751541164_" cx="2224.4797" cy="716.2228" r="1.0004" gradientTransform="matrix(72.2831 10.4137 -10.4137 72.2831 -151989.9688 -73981.3359)" gradientUnits="userSpaceOnUse">
		<stop  offset="0" style="stop-color:#8D191C"/>
		<stop  offset="0.6902" style="stop-color:#8D191C"/>
		<stop  offset="1" style="stop-color:#010101"/>
	</radialGradient>
	<path style="fill:url(#SVGID_00000156559360483887642330000001054294301751541164_);" d="M1268.5,988.9c-2.9-6.3-4.7-13.6-5.4-22
		c-1.1,17,2.7,32.3,11.4,46l-5.5-18.5l16.3-15l43.3-4.2l-44.8,1.1L1268.5,988.9 M1327.4,908l-13.8-7.9l13.9,10.8l6.1,10.3l-4.5-11.4
		l3.5-7.1L1327.4,908 M1424.9,925.9l3.9-13.8l-1.9-10.5l-3.9-4l3.9,14.4L1424.9,925.9z"/>
	<path class="st11" d="M1400.2,1006.2c1.8-0.8,3.4-1.7,4.9-2.6c-1.1,0.6-2.3,1.1-3.5,1.6c-11.5,4.8-24.8,6.1-39.8,3.9
		c-15-2.2-27.4-7.2-37.1-15c-1-0.8-2-1.7-2.9-2.5c1.2,1.3,2.5,2.6,4,3.9c9.3,8.1,21.2,13.2,35.7,15.3
		C1376.2,1012.9,1389,1011.4,1400.2,1006.2z"/>
</g>
</svg>
