<?xml version="1.0" encoding="utf-8"?>
<!-- Generator: Adobe Illustrator 25.4.1, SVG Export Plug-In . SVG Version: 6.00 Build 0)  -->
<svg version="1.1" id="Layer_1" xmlns="http://www.w3.org/2000/svg" xmlns:xlink="http://www.w3.org/1999/xlink" x="0px" y="0px"
	 viewBox="0 0 44.4 186.3" style="enable-background:new 0 0 44.4 186.3;" xml:space="preserve">
<style type="text/css">
	.st0{fill:#FF0000;}
</style>
<g>
	<g>
		<g>
			<path class="st0" d="M40.1,104c4,0.5,4.6-1.7,4.2-4.8c-1.3-11-2.7-22-3.8-33.1c-0.3-2.9-0.8-6.4,0.4-8.8
				c3.2-6.5,1.6-12.5-0.3-18.7c-1.3-4.4-3.1-8.8-4.3-13.2c-1.8-6.6-3.1-13.3-4.9-19.9c-1.5-5.4-6.6-4.9-10.7-5.4
				c-3.7-0.4-6.5,1.2-7.6,5c-1.6,5.6-3,11.2-4.7,16.7C7.1,25.6,5.6,29.3,4.2,33c-1.4,3.9-3.6,7.7-3.9,11.7c-0.6,7.7,2.5,15.2,1,23.4
				c-1.7,9.8-1.1,20-1.3,30.1c0,1.5,0.6,3,1.2,4.5c0.5,1.4,1.8,2.6,1.7,4c-0.1,6.5-0.1,13-1,19.4c-0.7,5.1,1.8,6.9,6,6.8
				c4.3-0.1,4.7,2.1,5.1,5.4c1.1,9.5,2.7,18.9,3.6,28.4c0.6,6.1,3.5,12.9-4.4,17.7c2.1,0.9,3.4,1.9,4.8,1.9
				c4.8,0.1,9.7-0.1,14.5-0.4c1-0.1,2-1.2,3-1.9c-0.8-1.1-1.5-2.2-2.3-3.2c-1.2-1.5-3.4-2.9-3.6-4.5c-0.4-3.2-0.5-6.8,0.5-9.9
				c2.9-9.5,5.2-18.9,4.3-28.9c-0.2-2.9,0.5-4.8,3.9-4.9c4-0.2,4.7-2.7,4.4-6.2C40.9,119,40.6,111.7,40.1,104z"/>
			<path class="st0" d="M40.1,104c0.5,7.7,0.8,15,1.5,22.3c0.3,3.5-0.4,6-4.4,6.2c-3.4,0.2-4.2,2.1-3.9,4.9
				c0.9,10-1.4,19.5-4.3,28.9c-0.9,3.1-0.9,6.7-0.5,9.9c0.2,1.6,2.4,3,3.6,4.5c0.8,1,1.6,2.2,2.3,3.2c-1,0.7-2,1.8-3,1.9
				c-4.8,0.3-9.7,0.5-14.5,0.4c-1.3,0-2.6-1-4.8-1.9c7.9-4.8,5-11.6,4.4-17.7c-0.9-9.5-2.6-18.9-3.6-28.4c-0.4-3.4-0.8-5.6-5.1-5.4
				c-4.1,0.1-6.6-1.7-6-6.8c0.8-6.4,0.8-12.9,1-19.4c0-1.3-1.2-2.6-1.7-4s-1.2-3-1.2-4.5c0.3-10-0.3-20.2,1.4-30.1
				c1.4-8.2-1.7-15.7-1-23.4c0.3-4,2.5-7.8,3.9-11.7c1.3-3.7,2.9-7.4,4.1-11.2c1.7-5.4,3.1-11,4.7-16.6c1.1-3.8,4-5.5,7.6-5
				c4.1,0.5,9.2,0,10.7,5.4c1.8,6.6,3.1,13.3,4.9,19.9c1.2,4.5,2.9,8.8,4.3,13.2c1.9,6.2,3.5,12.2,0.3,18.7
				c-1.2,2.4-0.7,5.9-0.4,8.8c1.1,11,2.5,22.1,3.8,33.1C44.7,102.3,44.1,104.5,40.1,104z"/>
		</g>
	</g>
</g>
</svg>
