<?xml version="1.0" encoding="utf-8"?>
<!-- Generator: Adobe Illustrator 25.4.1, SVG Export Plug-In . SVG Version: 6.00 Build 0)  -->
<svg version="1.1" id="Layer_1" xmlns="http://www.w3.org/2000/svg" xmlns:xlink="http://www.w3.org/1999/xlink" x="0px" y="0px"
	 viewBox="0 0 927.3 573.8" style="enable-background:new 0 0 927.3 573.8;" xml:space="preserve">
<style type="text/css">
	.st0{fill:#FFFFFF;}
	.st1{fill:none;stroke:#FFFFFF;stroke-miterlimit:10;}
	.st2{fill:#ED2224;}
</style>
<g>
	<g>
		<g>
			<path class="st0" d="M249.7,523.4h-215c-5.1,0-8.4-6-6.1-11.1l10-22c1.2-2.7,3.8-4.5,6.5-4.5h194.2c2.8,0,5.3,1.7,6.5,4.5l10,22
				C258.1,517.4,254.8,523.4,249.7,523.4z"/>
			<path class="st0" d="M220.3,519.4c-0.8,0.6,0,16.5,0,16.5s1.6,9.3,4.9,0.9s3.3-22.6,3.3-22.6L220.3,519.4z"/>
			<path class="st0" d="M214.1,520.3c-0.5,2.4-0.5,4.4-0.4,5.8c0.2,2.4,0.7,4.1,0.9,4.6c0.4,1.3,1.3,3.8,2.3,3.8
				c0.7,0,1.6-1.4,2.2-4.6c1.6-9.2,1.7-13.1,1.7-13.1C218.5,517.9,216.3,519.1,214.1,520.3z"/>
			<path class="st0" d="M28.1,515l0.8,18.9c0,0,2.6,22.1,6.1-13.8C38.6,484.3,28.1,515,28.1,515z"/>
			<path class="st0" d="M34.4,522.9v10.9c0,0,2.8,10.6,4.9-14.3C41.4,494.6,34.4,522.9,34.4,522.9z"/>
			<path class="st0" d="M85.2,521.7c0,0,1.3,17.6,3.5,18.8c2.2,1.2,3.7-19.7,3.7-19.7L85.2,521.7z"/>
			<path class="st0" d="M93.5,522.4c0,0-0.6,2.9,1.6,8.7c2.1,5.9,6.2-10.9,4.6-12.1C98,517.8,93.5,522.4,93.5,522.4z"/>
			<path class="st0" d="M256.3,517.7l-1.4,17.4c0,0-5,14.7-6.2-18.2C247.4,484,256.3,517.7,256.3,517.7z"/>
			<path class="st0" d="M242.4,515.6c0,0-0.9,16.4,2.4,16.1c3.3-0.4,3-10.9,3-10.9l-1.8-6.8L242.4,515.6z"/>
			<polygon class="st0" points="190.3,522.8 191.9,533.1 193.9,520.1 			"/>
			<polygon class="st0" points="69.2,522.3 69.9,531.2 72.5,520 			"/>
			<polygon class="st0" points="130.7,519.4 132.9,539.9 135.6,519.1 136,529.4 139,518.6 			"/>
		</g>
		<g>
			<path class="st0" d="M234.9,377.7v6c0,5.7-3.5,10.6-8.3,11.9v77.5c0,3.2-2.3,5.7-5.1,5.7h-23.9c-2.8,0-5.1-2.6-5.1-5.7v-77.5
				c-4.8-1.4-8.3-6.2-8.3-11.9v-6c0-1,0.7-1.9,1.7-1.9h47.4C234.2,375.8,234.9,376.7,234.9,377.7z"/>
			<path class="st0" d="M167.5,377.7v6c0,5.7-3.5,10.6-8.3,11.9v77.5c0,3.2-2.3,5.7-5.1,5.7h-23.9c-2.8,0-5.1-2.6-5.1-5.7v-77.5
				c-4.8-1.4-8.3-6.2-8.3-11.9v-6c0-1,0.7-1.9,1.7-1.9h47.4C166.8,375.8,167.5,376.7,167.5,377.7z"/>
			<path class="st0" d="M100.1,377.7v6c0,5.7-3.5,10.6-8.3,11.9v77.5c0,3.2-2.3,5.7-5.1,5.7H62.8c-2.8,0-5.2-2.6-5.2-5.7v-77.5
				c-4.8-1.4-8.3-6.2-8.3-11.9v-6c0-1,0.7-1.9,1.7-1.9h47.4C99.4,375.8,100.1,376.7,100.1,377.7z"/>
			<polygon class="st0" points="100.1,383.9 98.9,412.6 93.4,383.5 			"/>
			<polygon class="st0" points="188.3,392.2 189,401.2 190.4,392 			"/>
		</g>
		<g>
			<g>
				<path class="st0" d="M142.8,361.8c8,0,15,0.4,21.9-0.2c4.1-0.3,8.1-2.2,12.8-3.6c0,0.1,0.5,1.9,1.1,4
					c11.5-1.4,23.4,2.3,31.7-6.1c3,2.4,6,6.9,9,6.8c7.1-0.2,14.1-2.6,21.2-4.1c0.3-0.1,0.4-0.8,0.6-1.3c3-10-5.2-30.1-14.6-35.4
					c-7-3.9-14.2-7.3-21.3-10.9c3-5.7,7.8-6.8,12.6-5.5c6.4,1.8,13,4.1,18.7,7.6c6.4,3.9,11.8,3.5,17.3-0.8
					c5.3-4.1,10.5-8.5,15.7-12.8c7.3-6,13.1-12.5,10.9-23.1c-1.7-7.7-3.8-15.5-4.2-23.4c-1.4-26.6,0.5-52.9,7.9-78.8
					c2.7-9.3,1.8-20.1,0.6-29.9c-1.3-10.6-4.9-21-7.2-31.5c-3.6-16-12.3-29.7-24.2-39.7c-21.1-17.6-45.6-29.1-74-29.2
					c-24.8-0.1-49.6-0.4-74.4,0.2c-8.8,0.2-17.9,1.7-26.4,4.2c-20.7,6.2-39.9,15.4-54,32.7c-8.5,10.5-16.4,21.4-18.5,35.1
					c-1.8,11.4-2.6,23-4.5,34.4c-2.4,14.1-0.8,27.7,2.6,41.5c2.3,9.3,3.9,18.9,4.7,28.5c1.6,19.3-1.4,38.3-5.1,57.3
					c-1,5.1,2.2,12.2,5.7,16.6c5,6.2,12.1,10.6,18.1,15.9c7,6.2,12,6.4,20.8,2.5c7.2-3.2,15-5.2,22.6-7.3c1.3-0.4,3.4,0.8,4.5,2
					c0.5,0.6-0.5,2.7-1.1,4C70.1,320,61,322.5,54,325.5c-4.6,1.9-7.3,3.8-8.1,7.6c-1.5,6.9-2.3,14.1-2.3,21.2c0,2.4,3,6.7,5,6.9
					c8,0.8,16.5,2.1,23.2-5.3c1.1,9.4,7.8,5.4,12.7,5.5c4.8,0.2,9.7,0.4,14.5,0.1c2-0.1,4-4.5,7.1-5.9c9.6,7.9,21.8,5.3,32.1,6
					c1.9-4,3.2-6.8,5.4-11.2C143.2,355.3,143,358.1,142.8,361.8z"/>
				<path class="st1" d="M143.2,361.8c0.2-3.7,0.4-6.5,0.7-11.4c-2.1,4.4-3.4,7.1-5.4,11.2c-10.3-0.7-22.6,0.5-32.1-7.4
					c-3.1,1.4-5.1,7.2-7.1,7.3c-4.8,0.3-9.7,0.1-14.5-0.1c-4.9-0.2-11.6,1-12.7-8.4c-6.7,7.4-15.2,9-23.2,8.2c-2-0.2-5-4.5-5-6.9
					c0-7.1,0.9-14.3,2.3-21.2c0.8-3.8,3.5-5.6,8.1-7.6c7-3,16-5.5,19.9-13.9c0.6-1.3,1.6-3.4,1.1-4c-1-1.1-3.2-2.3-4.5-2
					c-7.6,2.2-15.4,4.1-22.6,7.3c-8.7,3.9-13.8,3.6-20.8-2.5c-6-5.3-13.2-9.7-18.1-15.9C6,290.1,2.9,283,3.8,277.9
					c3.7-19,6.7-38,5.1-57.3c-0.8-9.6-2.4-19.2-4.7-28.5c-3.4-13.7-5-27.4-2.6-41.5c1.9-11.4,2.7-23,4.5-34.4
					c2.2-13.7,10-24.7,18.5-35.1c14.1-17.3,33.3-26.5,54-32.7c8.5-2.5,17.6-4,26.4-4.2c24.8-0.6,49.6-0.3,74.4-0.2
					c28.4,0.1,52.9,11.6,74,29.2C265.3,83.3,274,97,277.6,113c2.4,10.5,6,20.8,7.2,31.5c1.2,9.9,2.1,20.6-0.6,29.9
					c-7.4,26-9.4,52.2-7.9,78.8c0.4,7.8,2.6,15.6,4.2,23.4c2.3,10.6-3.6,17.1-10.9,23.1c-5.2,4.3-10.4,8.7-15.7,12.8
					c-5.5,4.3-10.9,4.7-17.3,0.8c-5.7-3.5-12.2-5.7-18.7-7.6c-4.8-1.4-9.6-0.2-12.6,5.5c7.1,3.6,14.3,7,21.3,10.9
					c9.4,5.2,17.6,25.4,14.6,35.4c-0.1,0.5-0.3,1.2-0.6,1.3c-7,1.6-14.1,3.9-21.2,4.1c-2.9,0.1-6-4.4-9-6.8
					c-8.3,8.4-20.2,4.7-31.7,6.1c-0.6-2.1-1-3.9-1.1-4c-4.7,1.4-8.7,3.2-12.8,3.6C158.2,362.2,151.2,361.8,143.2,361.8z
					 M116.2,220.5c-15.6-6.9-31.9-15-49-21.3c-12.9-4.7-19.2,1-19.2,14.7c0,2.6-0.1,5.3,0,7.9c0.7,14.5,5.9,21.8,19.1,22.1
					c13.2,0.3,26.5-1.9,38.6-8.4C111.3,232.6,116.9,230,116.2,220.5z M161.3,287.4c-6.4-12-11.8-22.1-17.5-31.9
					c-0.2-0.3-5.3,0.9-6.1,2.5c-4.2,7.9-7.8,16.1-11.3,24.4c-0.7,1.6,0,4.2,0.8,5.9c0.4,0.8,3.3,1.2,4.3,0.6
					c7.2-4.4,14-3.9,21.3,0.1C154.3,289.9,157.3,288.3,161.3,287.4z"/>
				<path d="M120.1,220.5c0.7,9.6-4.9,12.2-10.5,15.2c-12.1,6.5-25.4,8.7-38.6,8.4c-13.2-0.3-18.4-7.6-19.1-22.1
					c-0.1-2.6,0-5.3,0-7.9c0-13.7,6.4-19.4,19.2-14.7C88.2,205.4,104.5,213.6,120.1,220.5z"/>
				<path d="M163.7,283.1c-4,0.9-7,2.5-8.5,1.6c-7.2-4.1-14-4.6-21.3-0.1c-1,0.6-3.9,0.2-4.3-0.6c-0.9-1.7-1.5-4.3-0.8-5.9
					c3.4-8.3,7.1-16.5,11.3-24.4c0.8-1.6,5.9-2.8,6.1-2.5C151.9,261,157.3,271.1,163.7,283.1z"/>
				<path d="M172.5,220.5c-0.7,9.6,4.9,12.2,10.5,15.2c12.1,6.5,25.4,8.7,38.6,8.4c13.2-0.3,18.4-7.6,19.1-22.1c0.1-2.6,0-5.3,0-7.9
					c0-13.7-6.4-19.4-19.2-14.7C204.4,205.4,188.1,213.6,172.5,220.5z"/>
			</g>
			<path class="st1" d="M174.3,218.8c-2.5,1.4-6.4,4.7-6,6.1c0.9,3.3,3.5,7,6.5,8.6"/>
		</g>
	</g>
</g>
<g>
	<path class="st0" d="M899,489.2c-1-11.2-2.7-22.2-4.9-33.2c-0.3-4.5,0.7-9,0.3-13.5c-0.3-3.8-1.4-7.5-2-11.3
		c-1.7-11.8-3.3-23.7-5.8-35.4c-1.2-5.7-2-11.4-2.7-17.1c-0.2-1.4,0.5-3.7-2.2-4.5c-0.5,3.5-2,5.2-3.8,7.9
		c-1.3,3.7-2.4,7.6-3.6,11.3c-8.2,20.3-14.6,40.9-21.7,61.7c-0.6-6.9-4.9-12.7-4.3-19.8c-0.8-2.7-1.1-5.7-1.7-8.5
		c-0.7-3.7-1-7.5-3.2-10.7c-0.4-0.6-0.6-1.3-0.8-1.9c-1.1-4.6-2.1-9.1-3.1-13.7c-0.2-2.3-2.3,0.9-2.6-4.1c-0.9-4.2-1.9-8.3-4.1-12.1
		c-0.6-1-1.2-2.3-1.2-3.4c0-4.2-2.2-7.5-4-11.4c-4.3,9.3-4.6,18.9-6.8,28.7c-1.5,6.8-3.5,13.5-4.4,20.5c-1.1,9.7-6.4,18.6-7.1,28.4
		c-0.4,7.7-4,14.9-5.9,22.3c-1.3,7.8-3.3,15.5-5,23.2c-0.4,3.9-1.4,7.3-4.6,9.9c-1.9,1.7-4.1,3.3-4.9,5.9
		c13.7-0.5,26.9-0.9,40.8-1.4c-3.4-4.7-10.4-6.6-8.5-13.3c0.6-1.9,0.8-3.9,1-5.8c0-9.6,2.6-18.9,4.5-28.3c0.9-6.4,2-12.7,3.1-19.1
		c0.3,0,0.6,0,0.8,0c3.5,13.8,7.1,27.7,11.3,41.3c1.2,3.2,1.9,6.4,2,9.8c0.5,3.7,2.5,7.4,3,11.1c0.5,5.7,0.9,11.4,3.7,16.6
		c0.8-0.7,1.2-1.2,1.2-1.8c0.5-6.3,0.6-12.7,1.9-18.9c0.2,0,0.5,0.1,0.7,0.1c0.1,0.8,0.1,1.6,0.2,2.9c5-2.8,2.2-9.9,4.6-14.3
		c1.2-2.9,1.7-5.7,1.5-8.7c-0.4-3.5,2.2-4.1,2.6-6.3c-0.8-2.5,0.2-4.7,1.1-6.9c2.7-6.6,5.5-13.2,8.2-20c1.8,15.9,5.7,31.6,7.2,47.5
		c0.6,9.6,0.9,19.3,5.4,28.1c0.2-0.1,0.4-0.1,0.5-0.2c0.1-0.9,0.1-1.9,0.3-3.4c1.6,4,1.7,7.5,4,10.6c1.8-1.9,1-4.5,1.1-6.9
		c1.3,2.9,2.2,5.8,3,8.7c0.4,1.3,1,2,2,1.8c0.6-9.2,1.1-18.1,1.6-27c0.2,0.1,0.4,0.2,0.6,0.3c0.4-0.6,1.1-1.2,1-1.7
		C899.4,498.6,899.4,493.9,899,489.2z M785.9,375.4c-4.6,1.7-9.2,3.4-13.7,5.3c-5.1,2.2-10.1,4.5-15,7.1c-1.7,0.9-3.6,1.9-4.2,4.6
		c3-0.4,5.7-0.7,9-1.1c-0.3,3.4-0.3,6.5-0.8,9.5c-0.4,2.3-0.5,4.5,0.7,6.7c0.5,0.9,1,2,1,3.1c-0.3,21-3.9,41.8-2.4,62.8
		c2.8,7.8-9.4,11.9-14.5,7.1c-4.9-4.4-10.3-7.8-8.2-15.4c0.1-0.5,0.1-1.1-0.1-1.5c-1.7-3.4-0.6-6.9,0.6-9.8c1-2.3,0.4-3.6-0.5-5.3
		c-1.9-3.4,1-11.3,1.2-15.6c0.4,2.8,0.8,5.5,1.2,8.3c0.3,0,0.6,0,0.9,0c0.6-1.7,0.6-3.3,0.2-5.1c0.2-3.6,0.8-7.2,0.8-10.9
		c-0.3-7.6-1.1-15.1-0.4-22.7c0.5-6.8-3-16.4,3.6-21.2c0.4-0.3,0.5-1.2,0.7-1.8c-0.6-0.1-1.4-0.3-1.9-0.1c-4.9,1.8-9.8,3.7-14.7,5.5
		c-4.1,1.5-8.3,2.8-12.5,4.2c-1.2,0.4-2.6,0.6-0.7,2.2c3.3,3.6,0.6,9.1,1.4,13.4c1.2,5.1-3.3,9-1.2,13.1c0.7,1.3,1.1,3,1,4.5
		c-0.4,8.5-1.9,17-0.8,25.5c0.4,5.7,1.4,11.5,0.7,17.2c-0.5,3.7-0.4,7.4,0.6,11c1,3.2-0.5,7,2.3,9.5c2.5,3.1,7.1,5.2,7,9.6
		c0.1,3.7,0.3,7.4,0.4,11.2c0,0.5,0.3,1.2,0.5,1.3c2.1,0.2,2.2-2.3,3-3.7c0.3-0.7,0.5-1.6,1-2.1c2.2-2.1,0.1-2.6,1.2-5.7
		c2.3,1.5,5,2.8,6.1,5c1.2,3.3,1.8,6.8,2.2,10.3c0.7,3.6-1,7.7,1.1,11c2.6-2.7,1.6-7.1,5-9.4c0.3-0.2,0.5-1.1,0.4-1.5
		c-0.7-3.7,2.6-5.3,5.7-4.7c0.1,1,0.5,3.8,1.1,5c0.6-0.7,1.5-1.2,1.6-2c1-5,9.7-2.7,11.9-10.3c0.2,0.2,0.4,0.3,0.6,0.5
		c0.3,4.8-0.9,9.9,0.8,14.5c0.3-0.1,0.6-0.2,0.8-0.3c0.8-5.1-0.6-12.3,3.7-16.1c2-4.3,3.6-9.3,4.8-14c0.2-1.3-0.4-3,0.3-3.9
		c2.5-3.3,2-10.8,0.5-14.3c-1.1-2-0.5-3.5,0.5-5.2c2-3.4,0.9-8.8,1.4-12.8c-1.9-3.9-1.1-4.2,0-8c2.4-13.9,1.7-28,1.8-42
		c0.6-5.6-1.7-11.4,2.1-16.5c1-1.2,1.5-3,2.1-4.5C788.3,375.5,787.5,374.7,785.9,375.4z M663.7,383.3c-7.6,0.5-15.3,1.1-22.9,1.7
		c-0.8,0.1-2.2,0.6-2.2,0.9c0.2,5.6,9.3,5.8,9.3,11.7c0.4,12.2,1.4,24.4,1.1,36.5c-0.2,6.9,0.9,13.8-1.1,20.8
		c-1.6,5.5-1.1,11.5-1.4,17.4c-0.7,7.9,0.5,16.1-1.1,23.8c-1.5,5-6.4,7.4-8.5,11.9c0.2,0.2,0.3,0.4,0.5,0.6
		c10.7,0,20.5-5.7,24.6,7.8c2-2.5,4-12.7,7.9-9.5c1.3,1.5,3,1.6,4.5,2.3c1.7,0.7,3.3,3,5,3.3c1.1-1,2-0.3,2.9,0.2
		c5,2.4,6.8,7.6,10.6,11.1c0.9-4.7,1.1-9,1.7-13.3c0.5-3.2-0.7-6.8,1.8-9.6c0.2-0.2,0.2-0.5,0.2-0.8c-1.1-8.9-1.3-17.9-1.7-26.9
		c0-1.6-0.6-3-1.6-4.2c-0.6,0.5-1.4,0.8-1.7,1.5c-3.4,6.2-5.8,12.8-7.4,19.7c-0.7,2.1-7.2,3.9-9.7,5.4c-0.8-2.1-1.4-5.5-3-6.6
		c-2.5-0.6-2.2-1.9-1.8-3.6c0.6-4-2.6-7.8-0.1-11.7c0.4-5.8-1.6-12.2,1.9-17.4c2.1,0.2,4.6,0.2,5.8,2.3c2.5,4.3,4.3,9,6.7,13.4
		c3.6-5,2.2-10.9,1.7-16.6c0.9-9.9,0.9-19.8,0.8-29.8c0-0.5-0.5-1.1-0.8-1.6c-0.6,0.4-1.4,0.6-1.6,1.1c-2,3.5-4,6.9-5.8,10.5
		c-1.6,3.2-4.2,4.2-7.7,4.3c-0.9-10-0.6-19.7,0.7-29.6c0.5-3.8,0.1-7.7,0.9-11.4c5-0.8,3.3,3.2,6.5,6c1.4-2.2,2.2-4.6,3.1-7
		c0.3,0.1,0.6,0.1,0.8,0.2c0.3,4.6,3.7,8.4,3.1,13.3c0.1,1.7,1.8,1.8,2.8,0.7c0.9-1.9,1.3-4.1,2.1-6.1c0.3,0,0.6,0,0.9,0
		c-1,6.5,1.8,11.8,4.6,17.3c1.1-2,0.4-5,1.6-6.7c2-2.4,1.7-5.4,2.4-8c2.4-9.6,3.6-18.6,6.3-28.4
		C691.9,380.8,678.1,382.5,663.7,383.3z M627.6,464c-0.8-6.2-1.9-12.8-3.7-18.8c-5.2-6.8-12.9-12-18.6-18.4
		c-0.1-2.8-2.1-2.5-3.9-2.4c-7.2,1-6.5-0.4-8.3-6.7c0-0.5-0.1-1.1,0.2-1.3c4.3-4.3,7.9-9.3,12.8-13c5.5,7,10.7,13.8,16.3,20.9
		c0.4-7.1,0.8-13.3,2.2-20.1c0.8-3.6,1.3-7.2,1.5-10.9c0.2-5.7,0.3-11.3,0.4-17.5c-4.2,1-6.5,5.1-9.9,7.5c-2.4,2.5-17.8-6-20.3-4.1
		c-6.7,5.8-12.9,12.5-18.9,19c-2.2,5.7-4.3,11.5-6.3,17.4c-0.4,1.1-0.8,2.5-0.5,3.6c0.8,3.2,1.8,6.2,2.8,9.3
		c1.4,4.5,3.1,8.9,4.3,13.4c0.6,2.2,1.5,3.6,3.6,4.1c0.9,0.2,1.9,0.4,2.8,0.4c3.6-0.7,0.8,7.9,4.6,11.9c4.3-4,2.8-14.9,8-12.1
		c13.6,6.1,9.9,11.5,9.7,23.9c0,3-3.5,3.6-5.3,5.5c-0.7,0.6-1.4,1.7-1.3,2.4c0.5,3.3-1.1,5.9-2.3,8.9c-0.6-0.4-1-0.6-1.1-0.9
		c-1-3.4-1.9-6.7-3.8-9.8c-1.1-1.7-1.8-2.7-3.8-2.8c-1.1,0-3-0.4-3.2-1.1c-1.6-3.8-2-8.2-3.9-11.9c-2.2,2.7-1.2,6.6-1.9,9.9
		c-1.6,12-2.7,24-3.7,36.1c0,0.4,0.4,0.9,0.5,1.4c1.9-0.9,2.1-3.3,3.3-4.8c0.8-1.2,1.9-2.2,2.9-3.3c0.9,1.5,1.9,2.9,2.7,4.4
		c0.3,0.7,0,1.6,0.3,2.3c0.6,1.6,1.5,3.1,3.3,3.4c3.2,1.2,3.3,1.4,3.1,4.8c0.1,3.2-1.1,7.3,0.6,10.2c3.4-2.7,3.9-8.8,6.9-12
		c1.1-1.2,3-1.8,4.6-2.5c5.7-3,2.4-6,12.6-10.3c0.4,2.4,0.9,4.9,1.3,7.4c0.3,0,0.5,0,0.8-0.1c1.6-5.8,1.5-12.2,3.1-18
		c1.1-2.8,2.8-5.4,4.2-8.2C628.3,476.4,627.5,469.3,627.6,464z M554.1,375.4c-4.6,1.7-9.2,3.4-13.7,5.3c-5.1,2.2-10.1,4.5-15,7.1
		c-1.7,0.9-3.6,1.9-4.2,4.6c3-0.4,5.7-0.7,9-1.1c-0.3,3.4-0.3,6.5-0.8,9.5c-0.4,2.3-0.5,4.5,0.7,6.7c0.5,0.9,1,2,1,3.1
		c-0.3,21-3.9,41.8-2.4,62.8c2.8,7.8-9.4,11.9-14.5,7.1c-4.9-4.4-10.3-7.8-8.2-15.4c0.1-0.5,0.1-1.1-0.1-1.5
		c-1.7-3.4-0.6-6.9,0.6-9.8c1-2.3,0.4-3.6-0.5-5.3c-1.9-3.4,1-11.3,1.2-15.6c0.4,2.8,0.8,5.5,1.2,8.3c0.3,0,0.6,0,0.9,0
		c0.6-1.7,0.6-3.3,0.2-5.1c0.2-3.6,0.8-7.2,0.8-10.9c-0.3-7.6-1.1-15.1-0.4-22.7c0.5-6.8-3-16.4,3.6-21.2c0.4-0.3,0.5-1.2,0.7-1.8
		c-0.6-0.1-1.4-0.3-1.9-0.1c-4.9,1.8-9.8,3.7-14.7,5.5c-4.1,1.5-8.3,2.8-12.5,4.2c-1.2,0.4-2.6,0.6-0.7,2.2
		c3.3,3.6,0.6,9.1,1.4,13.4c1.2,5.1-3.3,9-1.2,13.1c0.7,1.3,1.1,3,1,4.5c-0.4,8.5-1.9,17-0.8,25.5c0.4,5.7,1.4,11.5,0.7,17.2
		c-0.5,3.7-0.4,7.4,0.6,11c1,3.2-0.5,7,2.3,9.5c2.5,3.1,7.1,5.2,7,9.6c0.1,3.7,0.3,7.4,0.4,11.2c0,0.5,0.3,1.2,0.5,1.3
		c2.1,0.2,2.2-2.3,3-3.7c0.3-0.7,0.5-1.6,1-2.1c2.2-2.1,0.1-2.6,1.2-5.7c2.3,1.5,5,2.8,6.1,5c1.2,3.3,1.8,6.8,2.2,10.3
		c0.7,3.6-1,7.7,1.1,11c2.6-2.7,1.6-7.1,5-9.4c0.3-0.2,0.5-1.1,0.4-1.5c-0.7-3.7,2.6-5.3,5.7-4.7c0.1,1,0.5,3.8,1.1,5
		c0.6-0.7,1.5-1.2,1.6-2c1-5,9.7-2.7,11.9-10.3c0.2,0.2,0.4,0.3,0.6,0.5c0.3,4.8-0.9,9.9,0.8,14.5c0.3-0.1,0.6-0.2,0.8-0.3
		c0.8-5.1-0.6-12.3,3.7-16.1c2-4.3,3.6-9.3,4.8-14c0.2-1.3-0.4-3,0.3-3.9c2.5-3.3,2-10.8,0.5-14.3c-1.1-2-0.5-3.5,0.5-5.2
		c2-3.4,0.9-8.8,1.4-12.8c-1.9-3.9-1.1-4.2,0-8c2.4-13.9,1.7-28,1.8-42c0.6-5.6-1.7-11.4,2.1-16.5c1-1.2,1.5-3,2.1-4.5
		C556.4,375.5,555.6,374.7,554.1,375.4z M468.3,489.2c-1-11.2-2.7-22.2-4.9-33.2c-0.3-4.5,0.7-9,0.3-13.5c-0.3-3.8-1.4-7.5-2-11.3
		c-1.7-11.8-3.3-23.7-5.8-35.4c-1.2-5.7-2-11.4-2.7-17.1c-0.2-1.4,0.5-3.7-2.2-4.5c-0.5,3.5-2,5.2-3.8,7.9
		c-1.3,3.7-2.4,7.6-3.6,11.3c-8.2,20.3-14.6,40.9-21.7,61.7c-0.6-6.9-4.9-12.7-4.3-19.8c-0.8-2.7-1.1-5.7-1.7-8.5
		c-0.7-3.7-1-7.5-3.2-10.7c-0.4-0.6-0.6-1.3-0.8-1.9c-1.1-4.6-2.1-9.1-3.1-13.7c-0.2-2.3-2.3,0.9-2.6-4.1c-0.9-4.2-1.9-8.3-4.1-12.1
		c-0.6-1-1.2-2.3-1.2-3.4c0-4.2-2.2-7.5-4-11.4c-4.3,9.3-4.6,18.9-6.8,28.7c-1.5,6.8-3.5,13.5-4.4,20.5c-1.1,9.7-6.4,18.6-7.1,28.4
		c-0.4,7.7-4,14.9-5.9,22.3c-1.3,7.8-3.3,15.5-5,23.2c-0.4,3.9-1.4,7.3-4.6,9.9c-1.9,1.7-4.1,3.3-4.9,5.9
		c13.7-0.5,26.9-0.9,40.8-1.4c-3.4-4.7-10.4-6.6-8.5-13.3c0.6-1.9,0.8-3.9,1-5.8c0-9.6,2.6-18.9,4.5-28.3c0.9-6.4,2-12.7,3.1-19.1
		c0.3,0,0.6,0,0.8,0c3.5,13.8,7.1,27.7,11.3,41.3c1.2,3.2,1.9,6.4,2,9.8c0.5,3.7,2.5,7.4,3,11.1c0.5,5.7,0.9,11.4,3.7,16.6
		c0.8-0.7,1.2-1.2,1.2-1.8c0.5-6.3,0.6-12.7,1.9-18.9c0.2,0,0.5,0.1,0.7,0.1c0.1,0.8,0.1,1.6,0.2,2.9c5-2.8,2.2-9.9,4.6-14.3
		c1.2-2.9,1.7-5.7,1.5-8.7c-0.4-3.5,2.2-4.1,2.6-6.3c-0.8-2.5,0.2-4.7,1.1-6.9c2.7-6.6,5.5-13.2,8.2-20c1.8,15.9,5.7,31.6,7.2,47.5
		c0.6,9.6,0.9,19.3,5.4,28.1c0.2-0.1,0.4-0.1,0.5-0.2c0.1-0.9,0.1-1.9,0.3-3.4c1.6,4,1.7,7.5,4,10.6c1.8-1.9,1-4.5,1.1-6.9
		c1.3,2.9,2.2,5.8,3,8.7c0.4,1.3,1,2,2,1.8c0.6-9.2,1.1-18.1,1.6-27c0.2,0.1,0.4,0.2,0.6,0.3c0.4-0.6,1.1-1.2,1-1.7
		C468.7,498.6,468.7,493.9,468.3,489.2z"/>
	<path class="st2" d="M839.4,160.2c-3.2-2.2-1.9-6.6-3.3-11c-1.4,1.1-2.7,1.6-3.1,2.4c-3.6,6.9-2.2,15.4-9.5,20.1
		c-1.6-21.8-1.1-43.5-1.3-65.3c-1.4-7.1-0.1-14.1,2.6-20.8c2.5-2.7,7.7-1.8,8.8,2.5c2.4,8.5,4.5,17.2,6.8,25.8
		c0.6,0.2,1.2,0.4,1.8,0.5c5.3-8.8-2.8-22.3,6.7-28.9c3.7,5.5,15.9,16.1,15.7,21.6C858.6,142.4,864.2,133.9,839.4,160.2z
		 M906.1,82.3c-3-4.3-8.7-7.5-11.9-12.1c-2.5-3.1-4.1-7.6-8.8-7.7c-9-0.1-4.6-4-7.7-6.6c-4.1-0.9-4.9-3.8-4.8-5.9
		c-2.5-3-4.6-4.9-5.9-7.2c-1.2-2.2-2.6-3.1-4.9-2.7c-14.7,2.2-27.5,4.1-42.5,7.5c3.5-4.9,6.2-8.7,8.9-12.5c-0.3-0.3-0.6-0.7-0.9-1
		c-12.7,2.9-24.8,8.6-37,13.1c-8.7,3.6-17.1,8-25.6,12.1c-0.8,0.4-1.2,1.5-1.8,2.3c1,0.6,1.8,1.5,2.9,1.7c23.4,4.4,16.5-1,19.4,27.2
		c0.5,14-0.1,28.1-1.5,42c-0.5,4.5,0.2,6.8,4.9,9.5c-2.3,2.5-4.3,5.3-4.2,8.8c0,10.1,0.6,20.2,0.2,30.3c-0.3,7.2-2.3,14.2-2.5,21.4
		c-0.2,7.3,1,14.7,1.5,22c0.5,6.9,0.6,13.9,1.5,20.8c-0.5,2.4-4.5,4.3-4.7,7c-3.7,25.3-0.2,24.6-21.9,40.4c0.1,0.4,0.1,0.9,0.2,1.3
		c11,2.1,22.7-1.1,33.9-0.6c7.8,1,15.6,2.1,23.5,1.6c2,0.1,4.1,0.8,6,0.6c6.4-1,13.1-1.3,19-3.8c-2.2-5.5-8.2-7.5-12.3-11.3
		c-1.1-0.9-2.5-2.3-2.5-3.4c0.1-11,0.4-21.9,0.7-32.9c0-2.1,0.6-5-0.5-6.3c-3.4-4.3-1.6-9.4-2-14.3c0-5.3-0.2-10.5,0.1-15.8
		c0.2-3.4,8.1-7.8,11-6.5c4.5,2.2,12,3.9,14.4,8.3c1.4,6.9,1.9,14,2.8,21c0.6,8.1,3.1,16.6,2,24.7c-1.4,4.3-1,8.3,0,12.4
		c0.6,18.2,1.9,36.3,3.8,54.5c-0.4,9.1,4.6,9.8,5,16.8c0.2,6.1,0.5,12.3,0.9,19.7c1.7-1.3,3.1-1.8,3.3-2.6c1-5.2,1.8-10.5,2.6-15.8
		c1.2-15.1,4.5-30.6,6.1-45.5c1.3,1.1,2.6,2.1,4.1,3.3c4.3-19.7,4.4-38,10.6-56.8c2-5.4-0.4-11.1,1.5-16.7
		c3.8-10.1-2.6-13.7,2.3-24.9c1.6-5,0.4-7.5-4.3-9.9c-6.5-2.8-11.8-5.8-17.8-10.1c5.8-4.9,10.3-9.6,15.6-13c3.4-2.2,3.9-3.8,2.9-7.4
		c0-4.4,3.3-9.3,3.8-13.9c0.6-3.1,0.2-6.4,1.2-9.4c2.2-6.6,4.8-13,2.4-20.3c-0.7-3.1,2.5-7.3,3.8-10.2C903.9,98,907,89.6,906.1,82.3
		z M709.5,191.4c0.9,21.6-0.2,13.8-26.1,20c3.8-19.3,7.3-39,12.4-57.7c-1.4-18.1,6.2-34.6,8.6-52.1c0.6-0.2,1.1-0.3,1.7-0.5
		C713.7,130.2,707.3,161.5,709.5,191.4z M756.5,57.8c-27.8,5.8-56.6,5.8-84.9,8.8c-7.5,0.7-15.1,1.5-22.6,2.6
		c-1.3,0.2-3,2.1-3.3,3.5c0.7,5,12.4,6.5,16.7,8.5c3.8,1.3,6.8,2.1,7.5,7.7c0.6,5.1,2.5,9.5-2.8,12.9c-5.3,12.6-6.3,26.6-8.4,40
		c-0.9,5.6-2.4,11.1-0.9,16.9c0.4,1.4,0,3.5-0.9,4.6c-5.1,5.9-4.9,13.4-6.4,20.4c-2.6,11.8-4.8,23.6-7.2,35.4
		c-0.9,4.6-2.7,9-0.9,13.9c0.6,1.6-1.1,3.9-1.6,5.9c-1.5,5.2-2.4,10.6-3.4,15.9c-5.5,21.7-4.1,25.1-24.5,36.5c0,0.6,0.1,1.2,0.1,1.8
		c4.4,1.2,8.8,2.3,12.3,3.2c1.7,12.9,1.3,26.1,6,38.1c3.6-4.9,2.9-12.2,6.4-16.8c6.5-8.9,15.4-16.1,17.8-27.6c0.2-2,1.7-3.2,3.2-4.4
		c0.4,0.1,0.8,0.3,1.2,0.4c-2.6,9.9-1.1,19.6,1.1,30c1-0.8,2.3-1.3,2.6-2.1c3.6-9.5,8.2-18.8,7.7-29.2c4.1-12.6,1.4-25.8,5.1-38.3
		c0.4,0.1,0.9,0.2,1.3,0.3c0.6,9.2,1.4,18.4,2.5,27.6c0.1,0.8,1.1,1.6,1.7,2.4c3.8-4.5,2-17,5.3-21.7c3.3,1,3.5-1.9,4.5-3.6
		c1.2-1.9,2.1-4,3.1-6c0.4,0,0.9,0.1,1.3,0.1c0.8,4.1,1.5,8.3,2.3,12.4c0.5,0.1,1,0.1,1.5,0.2c1.2-2.2,2.5-4.3,3.7-6.5
		c2.1-4,2.4-4.3,5.7-3.8c0,10.7,0,21.5,0,32.2c0.3,0,0.7,0.1,1,0.1c1.1-1.5,2.1-3,3.4-4.8c1.5,15.7,3.7,29.7,7.9,44.6
		c0.2,0.8,1.3,1.5,1.9,2.2c0.7-0.7,1.8-1.4,2-2.3c2.2-11.7,4.1-22.3,5.8-34.3c2.3,4.3,4.2,7.8,6,11.3c0.7-0.1,1.4-0.3,2-0.4
		c1.2-9,2.5-18,1.7-27c-1.4-10.1,3.5-9.3,5.1-16.2c0-5.7-0.6-11.3-0.7-17c-0.8-11.5,1.6-23.7-1.4-34.8c-0.5-3.8-0.4-7.6,0.6-11.3
		c-0.2-6.7-0.5-13.4-0.9-20.1c-1.4-22.8-2.3-45.5-2.7-68.3c0.2-11.6-2.9-14.1,4.6-24.6c3.7-6.8,12.5-10.8,14.7-18.3
		C759.2,58.5,757.8,57.7,756.5,57.8L756.5,57.8z M540.3,58.9c-14.3,1-28.6,2-42.9,3.2c-1.5,0.1-4,1.1-4.1,1.7
		c0.4,10.4,17.5,10.9,17.3,21.9c0.7,22.8,2.6,45.6,2,68.5c-0.4,13,1.7,25.9-2.1,39c-2.9,10.3-2.1,21.6-2.5,32.5
		c-1.3,14.8,0.9,30.2-2.1,44.7c-2.8,9.4-12.1,13.9-15.9,22.3c0.3,0.4,0.6,0.8,0.9,1.2c20,0,38.5-10.7,46.2,14.6
		c3.8-4.6,7.4-23.8,14.8-17.8c2.5,2.8,5.6,3,8.4,4.3c3.1,1.2,6.1,5.7,9.4,6.1c2.1-1.8,3.8-0.5,5.5,0.4c9.3,4.5,12.7,14.2,19.8,20.9
		c1.7-8.8,2-16.9,3.2-25c0.9-6-1.4-12.7,3.4-18c0.3-0.3,0.3-1,0.3-1.5c-2-16.7-2.4-33.5-3.1-50.3c0-3-1.1-5.6-2.9-7.9
		c-1.1,0.9-2.5,1.6-3.1,2.7c-6.3,11.7-10.9,23.9-13.8,36.8c-1.4,4-13.6,7.3-18.2,10.1c-1.4-4-2.6-10.4-5.6-12.3
		c-4.6-1.1-4.2-3.6-3.4-6.8c1.1-7.5-4.8-14.5-0.1-22c0.7-11-3-22.8,3.5-32.6c4,0.4,8.6,0.4,10.9,4.4c4.6,8.1,8.1,16.8,12.5,25.1
		c6.8-9.4,4.2-20.5,3.1-31c1.8-18.5,1.7-37.2,1.4-55.8c0-1-1-2-1.5-3c-1.1,0.7-2.5,1.1-3.1,2c-3.8,6.5-7.4,13-10.9,19.7
		c-3,5.9-7.9,8-14.4,8c-1.7-18.8-1.1-36.9,1.2-55.4c0.9-7.1,0.2-14.5,1.6-21.4c9.5-1.5,6.2,6,12.1,11.3c2.5-4.1,4.1-8.7,5.8-13.2
		c0.5,0.1,1.1,0.2,1.6,0.3c0.6,8.6,7,15.8,5.9,25c0.2,3.2,3.4,3.4,5.2,1.4c1.7-3.5,2.5-7.8,4-11.4c0.6,0,1.2,0,1.8,0
		c-1.9,12.2,3.4,22.2,8.6,32.4c2.1-3.8,0.8-9.3,3.1-12.6c3.8-4.5,3.2-10.1,4.5-15.1c4.5-18,6.8-34.9,11.9-53.2
		C593.2,54.2,567.3,57.5,540.3,58.9z M424.5,57.4c-22.2,1.6-44.4,3-66.6,4.8c-1.4,0.1-3.6,0.8-4,1.8c-0.3,5.5,9.1,8.8,12.4,12.7
		c1.9,1.7,4.3,4.1,4.5,6.3c1.4,37.3,1.8,75,0.4,112.2c-0.2,3.7-0.6,7.6-0.1,11.2c0.6,4.6,2.9,9,3.1,13.6c0.7,12.2,0.7,24.4,1,36.6
		c0.3,3.6,2,7.1,2.4,10.6c0.4,4.1,0.2,8.3,0.7,12.4c1,8.2,2.5,16.4,3.4,24.6c1.3,8.9,0.5,18.1,3,26.8c4.6-7.4,7.7-15.7,10.6-23.9
		c2.5-7.9,3.2-16.3,9.3-23c3.9-4.2,1.9-9.1-0.7-13.9c-4.1-7.8,6.2-15.4,4-22.8c-4.1-7.2-1.4-14,0.3-20.9c0.5-11.4-1-22.8,4.5-33.6
		c4.8,0.1,9.6,0.4,11.9,4.6c4.3,7.9,7.6,16.2,11.2,24.6c0.9-0.6,1.4-0.7,1.5-1c5.1-15.7,3.2-11.1,2.4-26.5
		c1.7-19.2,2.2-38.5,2.3-57.8c0-1-1-2-1.5-3c-0.9,0.6-2.2,1.1-2.7,2c-3.9,6.4-7.7,12.8-11.3,19.4c-3.3,5.9-8.3,8-14.6,8
		c-1.6-21.6-1.6-43.6,4.7-64.3c2.4,1.1,4.8,2.1,7.3,3.2c2-5.3,9.5-9.5,14-7.9c1.8,0.6,4.2,0.7,6,0c6.4-2.4,6.3-2.6,10.6,2.4
		c7.3,3.9,1.8,3.6,2.9,11.4c0,7.2,8.3,9.8,9.4,16.7c0.6-24.4,7-47.3,13.9-70.9C462,52.8,443.2,56.4,424.5,57.4z"/>
</g>
</svg>
