<?xml version="1.0" encoding="utf-8"?>
<!-- Generator: Adobe Illustrator 25.4.1, SVG Export Plug-In . SVG Version: 6.00 Build 0)  -->
<svg version="1.1" id="Layer_1" xmlns="http://www.w3.org/2000/svg" xmlns:xlink="http://www.w3.org/1999/xlink" x="0px" y="0px"
	 viewBox="0 0 464.6 424.3" style="enable-background:new 0 0 464.6 424.3;" xml:space="preserve">
<style type="text/css">
	.st0{fill:#FFFFFF;}
</style>
<g>
	<path class="st0" d="M90.1,208.8c-10.6,3.6-12,8.5-5.3,17.3c0.9,1.2,2.4,2.7,2.2,3.7c-1.2,5.7,5.1,7.2,6.3,11.6
		c0.2,0.8,2.2,1.7,3.3,1.8c4.9,0.2,7,3.3,8.7,7.4c1.4,3.2,3.5,6,4.9,9.2c0.5,1.1,0.6,3,0,3.8c-4.1,5.4-5.6,11.6-6,18.2
		c-0.4,6.8-0.6,13.6-1.1,20.5c-0.2,2-0.5,5.3-1.7,5.8c-5.5,2.2-6.8,7.4-9.3,11.7c-0.4,0.6-0.7,1.9-0.5,2.1c3.4,3.2,1.1,6.9,1.2,10.3
		c0.3,7.1,0.6,14.1,1.3,21.1c0.1,1.4,2.1,3.5,3.4,3.6c1.2,0.1,3.3-1.6,3.9-3c3.1-6.9,5.9-14.1,8.8-21.1c0.4-1,0.7-2.3,1.5-2.9
		c3.8-2.7,6.1-8.2,4.7-12.5c-0.8-2.5-3.2-5.5-2.5-7.4c4.6-12.2,9.9-24.1,14.8-35.9c9.5,1.6,13-1.6,12.3-10.1
		c-0.1-0.8-0.2-1.7-0.4-2.5c-1.5-5.9-4.4-11.9-4.1-17.8c0.3-6.1,4.1-11.8,5.5-18c4.2-18.6,3.1-36.6-8.2-53c-0.6-0.9-0.9-2.1-0.9-3.2
		c-0.1-7.3,0-14.6,0-20.7c4.7-3.7,8.5-6.6,13.1-10.2c0.1,9.8,2.9,18.3-5.5,24.9c0.5,0.1,1,0.3,1.5,0.4c2.6-2.1,5.2-4.1,7.8-6.2
		c6.2,8,7.9,10.7,8.6,18.7c2.5,31.4,4.8,62.7,6.9,94.1c0.3,5.1,0.2,9.8,7.3,10c-0.7,8.3-1.9,16-2,23.8c-0.6,28.7-4.2,57.4,1.6,86
		c1.2,5.7,1.2,11.9-3.3,17c-1.2,1.4-1.4,3.7-2.1,5.6c-1.2,3.3,0,5,3.1,6.6c10.2,5.3,20.7,5.7,31.6,3.3c5.8-1.3,7.9-4.4,6-10.2
		c-1.3-4-4.5-7.4-5.9-11.3c-1.4-3.6-2-7.7-2.1-11.6c-0.1-2,2.3-4,2.7-6.2c3.2-21.1,5.8-42.2,9.2-63.2c1.6-9.6,4.5-19,6.8-28.6
		c1.8,2.4,2.5,4.5,3.1,6.8c7.4,27.8,11.1,56.1,14.1,84.6c0.2,2.3,2.4,4.6,2.4,6.8c-0.1,3.8-0.9,7.7-2.1,11.4
		c-1.3,3.9-3.8,7.3-5.2,11.1c-1.4,3.8,0.6,6.2,4.3,7.5c11.1,3.7,21.9,3.4,32.4-1.8c2.9-1.4,3.7-3.5,2.5-6.5c-1-2.5-1.7-5-2.6-7.5
		c-2.3-6.2,0-12.4-0.1-18.5c-0.5-29.5-5.4-58.6-10.7-87.6c-0.3-1.7-0.3-5,0.3-5.1c2-0.6,4.4-0.2,6.6-0.1c2.6,0,5.3,0.2,7.9,0.1
		c1.5,0,2.9-0.6,4.3-0.4c5.7,0.6,8-1,7.7-6.7c-0.3-7.4-0.5-14.9-2.1-22c-5.1-21.9-6.3-44.1-7.8-66.3c-0.6-8.6-1.7-17.1-2.6-25.5
		c6.6-1.9,12.9-3.7,19.3-5.5c0.2,0.3,0.4,0.6,0.5,0.9c6.1,23.2,14.6,45.3,28.7,64.9c0.7,1,0.5,3.5-0.2,4.7
		c-4,6.1-8.6,11.9-12.4,18.1c-7.3,12.3-15.3,24.3-17.6,38.8c-0.6,3.6-1.7,8.3-0.1,10.9c6.8,11.3,10.7,23.5,13.6,36.2
		c0.7,3.3,2.1,6.5,3.5,10.6c-1.2,0.2-3.1,0.7-5.1,0.9c-5.5,0.3-11-0.1-16.4,0.7c-8.3,1.2-13.4,11.2-10,18.9c0.4,0.9,1.6,1.7,2.6,2
		c8,2.3,15.9,4.6,24,6.4c1.5,0.3,3.9-0.8,5.2-2.1c2.7-2.8,6.9-3.5,8.4-1.2c4,5.8,8.1,1.9,12.2,1.5c2.9-0.3,3.9-2,3.8-4.8
		c-0.2-5.5-0.4-11-0.6-16.4c0-1-0.4-2.5,0-2.8c4.2-2.4,3-6.4,2.9-9.8c-0.3-10.9-2.6-21.3-6.5-31.6c-5.5-14.1-7.6-12.2,7.7-23.4
		c8.3-6.1,16.6-12.3,24.7-18.6c3.1-2.4,6-2.5,8,0.6c10,15.3,16.6,31.7,13.8,50.4c-1.6,11-4.4,21.9-6.6,32.9c0.9,0,2.5,0,4.4,0
		c-0.3,4.4-0.7,8.7-0.8,13c-0.1,2.9,9.1,8,11.6,6.7c5-2.8,7.7-2.2,11.2,2.2c0.8,1,2.3,2.2,3.5,2.3c10,0.2,20.1,0.1,30,0.1
		c1.8-17.7-5.8-26.3-22-26.2c-1.3,0-2.8,0.3-4-0.1c-2.6-0.9-5-2.3-8.3-3.8c3-2,5-2.9,6.5-4.4c1-1,1.9-2.7,1.8-4
		c-0.3-16.8-1.4-33.6-1.1-50.4c0.4-24.3-0.1-48.3-11.9-70.5c-0.8-1.5-1.1-3.5-1.1-5.3c0.1-4,0.5-8,0.9-12
		c2.4-23.2,2.6-46.3-2.7-69.1c-2.1-9-6-17.6-8.6-26.5c-2.6-9.1-7.5-16.2-15.8-20.9c-2.2-1.3-3.1-2.6-3.4-5.3
		c-0.4-2.5-2.9-4.7-4.1-7.2c-1-2.1-1.9-4.5-2-6.8c0-0.9,2.4-2.3,3.9-2.6c31.2-5.9,62.4-11.8,93.7-17.2c5.8-1,7.9-4,8.3-9.1
		c0.2-3.5,0.4-7,0-10.5c-1.1-9.7-8.3-14.6-17.7-12.5c-8.6,2-17.2,3.8-25.8,5.8c-20.9,4.8-41.8,9.6-62.8,14.2
		c-1.6,0.4-4.7-0.3-5.2-1.4C345,18,333,10,315.1,11c-14.3,0.7-27.3,11.5-29.6,25.7c-0.8,4.9-1.1,9.9-1.7,15
		c-4.9,1.1-9.7,4.6-14.7-0.3c-0.8-0.8-3.3-0.3-4.7,0.2c-9.3,3.3-10.3,3.5-20.2,2.6c-0.9-0.1-1.9,0.5-2.9,0.5c-2,0.1-4.1,0-5.7,0
		c0-10,0-19.4,0-28.5c-0.5,0.9-1.1,2.2-1.8,3.5c-0.2-0.1-0.4-0.1-0.6-0.2c0.6-4.8,1.3-9.7,1.9-14.5c-0.2-0.1-0.4-0.1-0.6-0.2
		c-0.6,1-1.2,2.1-2.4,4.2c0.5-3.1,0.8-5,1.1-6.8c-0.2-0.1-0.4-0.1-0.7-0.2c-1.2,3.4-2.4,6.9-4,11.3c0-3,0-4.9,0-6.8
		c-0.1,0-0.3,0-0.4,0c-0.7,2.8-1.4,5.5-2.1,8.3c-0.3,0-0.6-0.1-0.8-0.1c0-2.3,0-4.5,0-7.6c-0.7,1.7-1.1,2.5-1.8,4.3
		c-0.3-2.8-0.4-4.4-0.6-5.6c-0.5,0.6-1.2,1.5-3,3.5c0-5.7,0-9.9,0-14.1c-0.4,0-0.8-0.1-1.2-0.1c-1.3,4.3-2.6,8.7-4.2,14.3
		c-0.7-4.8-1.1-8.2-1.6-11.5c-0.3-0.1-0.6-0.1-0.9-0.2c-1.5,3.1-3,6.2-4.5,9.4c-0.4,0-0.7-0.1-1.1-0.1c0-5.7,0-11.4,0-17.1
		c-0.3,0-0.6,0-0.9,0c-0.8,4.9-1.7,9.7-2.6,14.9c-0.5-2.4-0.9-4.5-1.3-6.5c-0.3,0.1-0.6,0.1-0.9,0.2c-0.5,2.5-1,5.1-1.6,7.6
		c-0.2,0-0.4,0-0.7-0.1c-0.3-2.4-0.6-4.8-0.8-7.2c-0.3,0-0.5,0-0.8,0.1c-0.3,1-0.7,2-1.2,3.5c-0.6-2.4-1.1-4.2-1.6-6
		c-0.4,0-0.9,0-1.3,0c-0.3,3.3-0.6,6.7-0.8,10c-0.3,0-0.6,0-0.9,0c-0.4-3.7-0.8-7.3-1.4-12.1c-0.9,5-1.6,8.9-2.4,12.8
		c-0.4,0-0.7,0-1.1,0c-1.2-4.9-2.4-9.7-3.7-15c-0.2,3.6-0.4,6.8-0.5,10.1c-0.2,0-0.4,0-0.6,0c-0.4-2.6-0.8-5.3-1.4-9
		c-1.6,5.3,0.8,10.2-2.8,14.5c-1.8-4.5-3.2-8.1-4.9-12.5c-0.5,9.1-0.9,17.5-1.4,25.9c-0.2,0-0.4,0.1-0.6,0.1
		c-0.5-1.8-0.9-3.6-1.4-5.4c-0.3,0-0.6,0.1-0.9,0.1c0,3.5,0,6.9,0,10.4c-0.2,0-0.4,0-0.6,0c-1.1-3.9-2.2-7.8-3.3-11.8
		c-0.2,0.1-0.5,0.1-0.7,0.2c2.7,17.5,5.4,35.1,8.1,52.8c-2.5,0.5-4.5,0.9-6.6,1.3c-4.7-10.2-7.8-10.7-16.7-3.8
		c-5,3.9-10.7,7.1-16.2,10.7c2.7-17.8,11.8-30.4,29.7-37.5c-5.4-4.3-10.1-7.9-15.1-11.9c-3.8,4.3-7.7,7.6-10.3,11.8
		c-2.4,3.8-3.8,8.2-5,12.6c-2,7.2-2.9,14.7-5.2,21.7c-1.5,4.6-4.6,8.7-7,13c-0.5-0.2-1.1-0.5-1.6-0.7c-1.3-5.4-2.7-10.9-4-16.3
		c6.3-3.4,5.8-9.3,5.5-15.1c-0.6,1.8-0.7,3.8-1.5,5.6c-1,2.4-2.4,4.6-3.6,6.8c-2-1.3-4.3-2.2-5.9-3.8c-7.4-7.6-18.5-9.4-26.1-5.1
		c-5.1,2.9-10,5.7-15.5,7.7c-5.2,1.9-5.8,7.7-7.1,12.5c-2.4,9.1-4.5,18.2-7.3,27.2c-0.7,2.1-3.6,4.4-5.8,4.8
		c-15.6,3-21.9,18.4-21.7,32.1c1.8-3.5,3.1-6.1,4.5-8.6c2.4-4.3,5-4.7,8.1-0.9c3.7,4.6,7.1,9.5,10.7,14.5
		c-6.9,5.1-13.7,10.1-20.8,15.2c-3.5-3.2-6.8-6.1-10.2-9.1c-9.7-8.7-13.6-18.7-10-32.1c2.1-7.9,1.4-16.8,1.2-25.2
		c-0.1-3.1-1-7.2-6.6-8.2c5,10.9,1.9,21.1-0.4,31.3C-2.5,145.2,2,159,16,169.6c2.2,1.6,4.1,3.7,6.3,5.6c-3,2.3-5.5,4.2-8.1,6.2
		c2,1.8,3.7,3.3,5.1,4.6c-6.2,4.9-12.2,9.8-18.2,14.6c0.4,0.5,0.7,0.9,1.1,1.4c7.3-3.6,15.6-5.8,20.7-14.1c2.4,3.2,4.4,6.2,5.3,9.4
		c2.1,7,5.9,12.1,13.3,14.1c9.1,2.4,16.2-0.7,21.1-7.2c9.6,0,18.4,0,27.5,0C90.1,205.5,90.1,207,90.1,208.8z M123.8,41.9
		c-7,0.4-9.7,4.8-7.6,12.3C115.7,48.2,119.1,44.7,123.8,41.9z"/>
	<path class="st0" d="M90.1,208.8c0-1.8,0-3.3,0-4.6c-9.1,0-17.9,0-27.5,0c-4.9,6.5-11.9,9.6-21.1,7.2c-7.4-1.9-11.2-7-13.3-14.1
		c-1-3.3-2.9-6.2-5.3-9.4c-5.1,8.4-13.4,10.5-20.7,14.1c-0.4-0.5-0.7-0.9-1.1-1.4c6-4.8,12-9.7,18.2-14.6c-1.4-1.3-3.1-2.8-5.1-4.6
		c2.6-2,5.1-3.9,8.1-6.2c-2.2-2-4.1-4-6.3-5.6C2,159-2.5,145.2,1.3,128.2c2.3-10.1,5.4-20.4,0.4-31.3c5.6,1,6.5,5.1,6.6,8.2
		c0.2,8.4,0.9,17.2-1.2,25.2c-3.6,13.4,0.3,23.4,10,32.1c3.3,3,6.7,6,10.2,9.1c7-5.2,13.8-10.1,20.8-15.2c-3.7-5-7-9.9-10.7-14.5
		c-3.1-3.8-5.7-3.4-8.1,0.9c-1.4,2.5-2.7,5.2-4.5,8.6c-0.2-13.7,6.1-29.1,21.7-32.1c2.2-0.4,5.1-2.7,5.8-4.8
		c2.8-8.9,5-18.1,7.3-27.2c1.3-4.8,1.9-10.6,7.1-12.5c5.5-2.1,10.4-4.8,15.5-7.7c7.6-4.3,18.7-2.4,26.1,5.1c1.6,1.6,3.9,2.6,5.9,3.8
		c1.2-2.3,2.6-4.5,3.6-6.8c0.7-1.8,0.8-3.7,1.5-5.6c0.3,5.8,0.8,11.6-5.5,15.1c1.3,5.4,2.7,10.8,4,16.3c0.5,0.2,1.1,0.5,1.6,0.7
		c2.4-4.3,5.5-8.4,7-13c2.3-7.1,3.2-14.5,5.2-21.7c1.2-4.4,2.6-8.8,5-12.6c2.6-4.1,6.5-7.5,10.3-11.8c5,3.9,9.7,7.6,15.1,11.9
		c-17.9,7.2-26.9,19.8-29.7,37.5c5.5-3.6,11.1-6.8,16.2-10.7c8.8-6.9,12-6.4,16.7,3.8c2-0.4,4.1-0.8,6.6-1.3
		c-2.7-17.7-5.4-35.3-8.1-52.8c0.2-0.1,0.5-0.1,0.7-0.2c1.1,3.9,2.2,7.8,3.3,11.8c0.2,0,0.4,0,0.6,0c0-3.5,0-6.9,0-10.4
		c0.3,0,0.6-0.1,0.9-0.1c0.5,1.8,0.9,3.6,1.4,5.4c0.2,0,0.4-0.1,0.6-0.1c0.4-8.4,0.9-16.7,1.4-25.9c1.7,4.4,3.1,8,4.9,12.5
		c3.6-4.3,1.2-9.2,2.8-14.5c0.6,3.7,1,6.3,1.4,9c0.2,0,0.4,0,0.6,0c0.2-3.2,0.3-6.4,0.5-10.1c1.3,5.3,2.5,10.2,3.7,15
		c0.4,0,0.7,0,1.1,0c0.7-3.9,1.4-7.8,2.4-12.8c0.5,4.8,1,8.4,1.4,12.1c0.3,0,0.6,0,0.9,0c0.3-3.3,0.6-6.7,0.8-10c0.4,0,0.9,0,1.3,0
		c0.5,1.8,1,3.6,1.6,6c0.5-1.5,0.9-2.5,1.2-3.5c0.3,0,0.5,0,0.8-0.1c0.3,2.4,0.6,4.8,0.8,7.2c0.2,0,0.4,0,0.7,0.1
		c0.5-2.5,1-5.1,1.6-7.6c0.3-0.1,0.6-0.1,0.9-0.2c0.4,2,0.8,4.1,1.3,6.5c0.9-5.2,1.8-10.1,2.6-14.9c0.3,0,0.6,0,0.9,0
		c0,5.7,0,11.4,0,17.1c0.4,0,0.7,0.1,1.1,0.1c1.5-3.1,3-6.2,4.5-9.4c0.3,0.1,0.6,0.1,0.9,0.2c0.5,3.4,0.9,6.7,1.6,11.5
		c1.7-5.6,2.9-9.9,4.2-14.3c0.4,0,0.8,0.1,1.2,0.1c0,4.2,0,8.4,0,14.1c1.7-2.1,2.5-2.9,3-3.5c0.1,1.2,0.3,2.8,0.6,5.6
		c0.8-1.8,1.1-2.6,1.8-4.3c0,3.1,0,5.3,0,7.6c0.3,0,0.6,0.1,0.8,0.1c0.7-2.8,1.4-5.5,2.1-8.3c0.1,0,0.3,0,0.4,0c0,1.9,0,3.8,0,6.8
		c1.6-4.4,2.8-7.9,4-11.3c0.2,0.1,0.4,0.1,0.7,0.2c-0.3,1.9-0.6,3.7-1.1,6.8c1.2-2.1,1.8-3.2,2.4-4.2c0.2,0.1,0.4,0.1,0.6,0.2
		c-0.6,4.8-1.3,9.7-1.9,14.5c0.2,0.1,0.4,0.1,0.6,0.2c0.7-1.3,1.4-2.7,1.8-3.5c0,9,0,18.5,0,28.5c1.6,0,3.6,0.1,5.7,0
		c1,0,1.9-0.6,2.9-0.5c9.9,0.9,10.8,0.8,20.2-2.6c1.5-0.5,3.9-1,4.7-0.2c5,4.8,9.8,1.3,14.7,0.3c0.6-5.2,0.9-10.1,1.7-15
		c2.3-14.3,15.2-25,29.6-25.7C333,10,345,18,352.8,33.5c0.6,1.1,3.6,1.8,5.2,1.4c21-4.6,41.9-9.4,62.8-14.2c8.6-2,17.2-3.8,25.8-5.8
		c9.4-2.1,16.6,2.8,17.7,12.5c0.4,3.5,0.3,7,0,10.5C464,43,461.9,46,456,47c-31.3,5.4-62.5,11.4-93.7,17.2c-1.5,0.3-3.9,1.7-3.9,2.6
		c0.1,2.3,1,4.7,2,6.8c1.2,2.5,3.8,4.7,4.1,7.2c0.4,2.7,1.2,4.1,3.4,5.3c8.3,4.6,13.2,11.8,15.8,20.9c2.5,8.9,6.5,17.5,8.6,26.5
		c5.3,22.8,5.1,45.9,2.7,69.1c-0.4,4-0.8,8-0.9,12c0,1.8,0.2,3.8,1.1,5.3c11.8,22.2,12.3,46.2,11.9,70.5
		c-0.3,16.8,0.8,33.6,1.1,50.4c0,1.4-0.8,3.1-1.8,4c-1.5,1.5-3.5,2.4-6.5,4.4c3.3,1.5,5.7,2.9,8.3,3.8c1.2,0.4,2.6,0.1,4,0.1
		c16.2-0.1,23.8,8.6,22,26.2c-9.9,0-20,0.1-30-0.1c-1.2,0-2.7-1.2-3.5-2.3c-3.6-4.4-6.2-5-11.2-2.2c-2.5,1.4-11.6-3.8-11.6-6.7
		c0.1-4.3,0.5-8.6,0.8-13c-1.9,0-3.5,0-4.4,0c2.2-11,5-21.8,6.6-32.9c2.8-18.7-3.8-35.1-13.8-50.4c-2.1-3.2-5-3-8-0.6
		c-8.2,6.3-16.4,12.5-24.7,18.6c-15.2,11.2-13.1,9.3-7.7,23.4c4,10.3,6.2,20.7,6.5,31.6c0.1,3.4,1.3,7.4-2.9,9.8
		c-0.4,0.2,0,1.8,0,2.8c0.2,5.5,0.3,11,0.6,16.4c0.1,2.7-0.9,4.5-3.8,4.8c-4.1,0.4-8.2,4.4-12.2-1.5c-1.5-2.2-5.7-1.5-8.4,1.2
		c-1.2,1.2-3.6,2.4-5.2,2.1c-8.1-1.9-16-4.2-24-6.4c-1-0.3-2.2-1.1-2.6-2c-3.4-7.7,1.6-17.6,10-18.9c5.4-0.8,10.9-0.4,16.4-0.7
		c1.9-0.1,3.8-0.6,5.1-0.9c-1.4-4.1-2.7-7.3-3.5-10.6c-2.9-12.7-6.8-24.9-13.6-36.2c-1.6-2.7-0.4-7.3,0.1-10.9
		c2.3-14.5,10.3-26.5,17.6-38.8c3.7-6.3,8.4-12,12.4-18.1c0.8-1.2,1-3.6,0.2-4.7c-14.1-19.6-22.6-41.7-28.7-64.9
		c-0.1-0.3-0.3-0.6-0.5-0.9c-6.3,1.8-12.7,3.6-19.3,5.5c0.9,8.4,2,16.9,2.6,25.5c1.5,22.2,2.7,44.5,7.8,66.3
		c1.7,7.1,1.8,14.7,2.1,22c0.3,5.6-2,7.2-7.7,6.7c-1.4-0.1-2.9,0.4-4.3,0.4c-2.6,0-5.3-0.1-7.9-0.1c-2.2,0-4.5-0.4-6.6,0.1
		c-0.6,0.2-0.6,3.4-0.3,5.1c5.3,29,10.2,58.1,10.7,87.6c0.1,6.1-2.2,12.3,0.1,18.5c0.9,2.5,1.6,5,2.6,7.5c1.2,3,0.4,5.1-2.5,6.5
		c-10.6,5.2-21.4,5.6-32.4,1.8c-3.7-1.2-5.7-3.7-4.3-7.5c1.4-3.8,3.9-7.3,5.2-11.1c1.2-3.6,2-7.5,2.1-11.4c0.1-2.2-2.1-4.5-2.4-6.8
		c-3-28.5-6.8-56.8-14.1-84.6c-0.6-2.2-1.4-4.4-3.1-6.8c-2.3,9.5-5.3,18.9-6.8,28.6c-3.4,21-6.1,42.2-9.2,63.2
		c-0.3,2.2-2.7,4.1-2.7,6.2c0.1,3.9,0.8,7.9,2.1,11.6c1.5,4,4.6,7.3,5.9,11.3c1.9,5.7-0.3,8.9-6,10.2c-10.9,2.4-21.4,2-31.6-3.3
		c-3.1-1.6-4.3-3.4-3.1-6.6c0.7-1.9,0.9-4.2,2.1-5.6c4.5-5.1,4.4-11.3,3.3-17c-5.8-28.6-2.2-57.4-1.6-86c0.2-7.8,1.3-15.5,2-23.8
		c-7-0.2-6.9-4.9-7.3-10c-2.1-31.4-4.4-62.8-6.9-94.1c-0.6-8-2.4-10.8-8.6-18.7c-2.6,2.1-5.2,4.1-7.8,6.2c-0.5-0.1-1-0.3-1.5-0.4
		c8.4-6.5,5.6-15,5.5-24.9c-4.6,3.6-8.4,6.5-13.1,10.2c0,6,0,13.4,0,20.7c0,1.1,0.3,2.4,0.9,3.2c11.3,16.3,12.4,34.3,8.2,53
		c-1.4,6.1-5.2,11.9-5.5,18c-0.3,5.9,2.6,11.9,4.1,17.8c0.2,0.8,0.4,1.6,0.4,2.5c0.8,8.5-2.7,11.8-12.3,10.1
		c-5,11.8-10.2,23.7-14.8,35.9c-0.7,1.9,1.7,4.9,2.5,7.4c1.4,4.3-0.9,9.8-4.7,12.5c-0.8,0.5-1.1,1.9-1.5,2.9
		c-2.9,7-5.7,14.1-8.8,21.1c-0.6,1.4-2.7,3.1-3.9,3c-1.3-0.2-3.3-2.2-3.4-3.6c-0.7-7-1-14.1-1.3-21.1c-0.1-3.5,2.2-7.2-1.2-10.3
		c-0.3-0.3,0.1-1.5,0.5-2.1c2.5-4.3,3.8-9.4,9.3-11.7c1.2-0.5,1.5-3.8,1.7-5.8c0.5-6.8,0.7-13.6,1.1-20.5c0.4-6.6,1.8-12.8,6-18.2
		c0.6-0.8,0.5-2.7,0-3.8c-1.5-3.1-3.6-6-4.9-9.2c-1.7-4-3.8-7.2-8.7-7.4c-1.2-0.1-3.1-0.9-3.3-1.8c-1.1-4.4-7.4-5.9-6.3-11.6
		c0.2-1.1-1.3-2.6-2.2-3.7C78.1,217.3,79.5,212.4,90.1,208.8z M63.4,188.3c1.2,3.2,1.5,7.6,3.4,8.3c7.7,3.2,15.8,2.2,23.1-1.7
		c2.9-1.6,5-5.4,6.8-8.5c4.3-7.7,2.1-13.3-6.3-16.3c-4.1-1.5-6.8-4.1-8.9-8.1c-0.9-1.7-4.1-2.4-6.4-2.8c-1.2-0.2-3.6,0.9-3.9,1.9
		C68.3,170.1,66,179.1,63.4,188.3z M268.2,97.8c5.4,3.6,10.9,9.8,19.9,5.5c1.1-0.5,2.6-0.2,3.9,0c2.9,0.5,6.1,2.7,7.8-2
		c1.1-3,3.3-5.9,3.7-8.9c0.2-1.6-2.3-3.6-3.6-5.5c-1.2-1.7-3.1-3.3-3.5-5.2c-0.8-3.8-3.4-4-6-3.5c-3.9,0.8-7.7,2.1-11.3,3.2
		C275.9,86.4,272.3,91.7,268.2,97.8z"/>
	<path d="M123.8,41.9c-4.7,2.8-8.1,6.3-7.6,12.3C114.1,46.7,116.8,42.3,123.8,41.9z"/>
	<path class="st0" d="M63.4,188.3c2.5-9.1,4.9-18.2,7.6-27.2c0.3-1,2.7-2.1,3.9-1.9c2.3,0.4,5.6,1.1,6.4,2.8c2.1,4,4.8,6.6,8.9,8.1
		c8.4,3,10.6,8.6,6.3,16.3c-1.8,3.2-3.8,7-6.8,8.5c-7.2,3.9-15.3,4.8-23.1,1.7C65,195.9,64.7,191.5,63.4,188.3z"/>
	<path class="st0" d="M268.2,97.8c4.1-6,7.7-11.4,11-16.4c3.6-1,7.4-2.4,11.3-3.2c2.6-0.5,5.2-0.3,6,3.5c0.4,1.9,2.3,3.5,3.5,5.2
		c1.3,1.8,3.8,3.9,3.6,5.5c-0.4,3.1-2.6,5.9-3.7,8.9c-1.7,4.7-4.9,2.5-7.8,2c-1.3-0.2-2.9-0.5-3.9,0
		C279.2,107.6,273.6,101.3,268.2,97.8z"/>
</g>
</svg>
