<?xml version="1.0" encoding="utf-8"?>
<!-- Generator: Adobe Illustrator 25.4.1, SVG Export Plug-In . SVG Version: 6.00 Build 0)  -->
<svg version="1.1" id="Layer_1" xmlns="http://www.w3.org/2000/svg" xmlns:xlink="http://www.w3.org/1999/xlink" x="0px" y="0px"
	 viewBox="0 0 919 979" style="enable-background:new 0 0 919 979;" xml:space="preserve">
<style type="text/css">
	.st0{fill:#FFFFFF;}
</style>
<g>
	<path class="st0" d="M0,968c0.9-0.8,2.3-1.4,2.7-2.4c3.3-7.4,9.1-11.9,16.9-10.2c11.2,2.4,18.7-12.9,26.1-19.6
		c9.8-8.8,19.8-17.3,29.1-26.6c2.6-2.6,3.3-7.4,4-11.4c7.5-43.2,11.9-86.7,12.4-130.5c0.7-59.2,0.9-118.4,0.4-177.6
		c-0.2-24.6-2.9-49.1-4.4-73.6c-0.2-3.7-1.8-5.5-5-7.5c-12.5-7.6-24.4-16.1-36.8-23.8c-5.7-3.5-8.4-8.5-10.5-14.4
		c-1.9-5.5-4.2-10.8-6.8-16c-4.4-8.8-4.4-17.8-2.3-27.1c10.1-45.3,25.6-89,40.8-132.8c3.4-9.7,6.5-19.5,9.5-29.3
		c4.1-13.9,7.9-28,12-41.9c0.7-2.4,2-4.5,2.9-6.9c2.5-6.8,7-10.4,14.6-10.3c7.1,0,11.8-3.3,15-10.5c9.2-21.5,18.8-42.9,23-66.1
		c0.6-3.2-0.2-7.3-1.8-10.2c-4.3-8.2-9.2-15.8-10-25.6c-0.4-4.6-4-9.6-7.4-13.2c-10.5-11.3-21.9-21.7-32.3-33
		C84,38.4,76.8,28.8,69.2,19.5c-0.6-0.7-0.9-1.7-1.7-3.2c2.7-0.4,4.9-1,7.1-1.1c8.3-0.4,16.6-0.7,25-1c4.2-0.2,8.3,0.3,12-3.2
		c1.6-1.5,5.8-1.1,8.6-0.6c34.2,6.4,68.5,5.8,103,3.7c9.4-0.6,19-1.1,28.2-2.9c7.4-1.5,14.4-5,21.6-7.4c2.2-0.7,4.5-1.4,6.8-1.5
		C301,1.4,322.3,0.7,343.5,0c1.7-0.1,3.4,0.4,5.6,0.7c-2.9,5.8-6,10-10.6,13.8c-9,7.6-16.8,16.6-25.1,25c-3.4,3.4-6.5,7.2-10.2,10.3
		c-7.7,6.3-15.7,12.1-23.6,18.1c-3.9,2.9-5.2,6.9-5,11.7c1,22.5,8.1,43.2,17.2,63.5c3.7,8.3,6.1,17.2,8.7,25.9
		c4.2,14.3,10.5,27.3,20.2,38.9c12.5,15,16.9,33.6,20.1,52.4c1.8,10.7,3.1,21.4,5.3,32c1.1,5.4,3.9,10.5,5.9,15.8
		c8.9,22.7,14.8,46.2,18.7,70.2c1.7,10.5,3.7,21,5.4,31.5c0.4,2.5,0,5.1,0,7.7c0,0.7,0.1,1.5,0.4,2c5.7,9,9.1,18.1,5.2,29
		c-3.6,10-6.5,20.3-9.2,30.5c-1.4,5.3-5.5,7.7-9.6,10c-7.5,4.3-15.3,8-22.8,12.3c-1.5,0.9-3.1,3.1-3.1,4.8
		c-0.7,29.7-1.7,59.4-1.6,89.2c0.1,25.7,1.1,51.5,2.3,77.2c0.9,20.1,2.3,40.2,4.3,60.2c2.4,23.1,4.9,46.3,9,69.2
		c7.1,39.7,15.5,79.2,23.4,118.7c1.6,7.8,3.1,15.6,9.5,21.3c1.8,1.6,3.4,3.6,5.5,4.9c5.4,3.2,10.8,7,16.7,8.9
		c7.6,2.5,15.7,3.6,23.6,5.2c1,0.2,2.4-0.1,2.8,0.4c4.2,5.8,8.2,11.7,12.3,17.6c-1.3,0-2.7,0-4,0c-0.7-0.3-1.3-0.9-2-1
		c-8.9-0.4-17.9-0.7-26.8-1.1c-17.4-0.7-34.7-1.3-52.1-2c-18.3-0.7-36.6-1.4-55-2c-13.4-0.4-26.9,3.4-40.3,3
		c-18.4-0.6-36.8-1.2-55.2-2c-14.7-0.6-29.4,2.6-44.2,2c-26.8-1.1-53.6-2.4-80.4-2.9c-26.4-0.5-52.9,1.9-79.4,1.9
		c-1.9,0-3.8,0.6-5.7,1C0,973.3,0,970.6,0,968z"/>
	<path class="st0" d="M843,979c-0.9-0.3-1.8-0.9-2.7-1c-10.6-0.4-21.2-0.8-31.9-1c-28.7-0.7-57.4-1.4-86.2-2.1
		c-11.6-0.3-23.2-0.7-34.7-0.9c-22.6-0.4-45.2-0.9-67.8-0.9c-15.9,0-31.9,0.5-47.8,1c-24,0.6-48.1,1.3-72.1,2
		c-7.7,0.2-15.4,0.9-23.8,1.4c0-6.2-0.2-11.6,0.1-17c0.1-1.2,1.6-2.7,2.9-3.3c13.9-7.6,24.2-19.2,34.5-30.7c2.2-2.5,2.9-6.3,4.6-9.3
		c4.9-8.9,9.3-18,15-26.3c7.1-10.3,8.3-21.6,7.7-33.2c-1.5-30.4,0.4-60.6,2.7-90.8c1.4-17.9,2.4-35.9,4.3-53.8
		c2.1-20.2,5.3-40.2,7.5-60.4c0.9-7.7,0.7-15.6,0.7-23.4c0.1-15.5,0.4-31-0.2-46.4c-0.4-10.3-2.1-20.5-3-30.8
		c-0.4-4.1-0.6-8.3-0.4-12.4c0.3-5.4-3-8.1-6.5-11.4c-8.9-8.7-17.9-17.4-25.7-27c-9.9-12.1-10.7-26.7-7.7-41.3
		c3-15.1,7.8-29.9,10.8-45c3.1-15.4,6.1-31,7.2-46.7c1.1-14.6-0.5-29.3-0.7-43.9c-0.1-7.7,0.2-15.3,0-23c-0.1-2.7,0.7-4.3,3.2-5.4
		c7.8-3.3,15.6-6.6,23.2-10.3c1.6-0.8,2.6-2.7,3.8-4.3c4-5.5,7.2-11.7,12-16.4c7.6-7.4,16.2-13.7,24.4-20.5c0.8-0.6,1.6-1.2,2.4-1.8
		c4-2.8,5.6-5.6,3.4-11.1c-4.6-11.4-9.4-22.3-17.9-31.5c-5.3-5.8-10-12.3-14.8-19.3c3.7,1.7,7.3,4,11.3,5c4.1,1,8.5,0.7,13.7,1
		c-0.3-5.4-0.5-10.3-0.8-15.2c-0.6-7.9-1-15.7-1.9-23.5c-3-25.7-3.4-51.5-3-77.3c0.1-6.2,1.6-11.6,5.3-16.7
		c10.1-13.9,20-28.1,30.7-43.3c4.9,15.7,11.7,29.5,7,45.2c-2.2,7.5-1.2,8.5,7.6,10.5c0.9-2.1,1.9-4.3,3-7c0.9,2.1,1.6,4,2.5,5.7
		c0.7,1.2,1.9,2,2.9,3c0.7-1.3,1.8-2.6,1.9-3.9c0.2-5.2,0.4-10.4-0.1-15.5c-0.6-6.4,2.3-11.6,4.7-17.1c3-6.6,6.1-13.2,9.6-20.6
		c4.2,5.2,8.3,10,12.1,15.1c7.5,10,14.9,20,22.1,30.2c1.3,1.8,2,4.6,1.8,6.8c-1.3,26.1-3,52.2-4.2,78.3c-0.3,7.2,0.7,14.5,0.8,21.8
		c0.1,3.2,0.4,6.6-3.5,8.6c-1.1,0.6-1.5,3.6-1.4,5.4c0.2,3.1,1,6.2,1.6,9.9c8-2.4,16.1-4.9,23-7c-3.6,7.7-6.7,16.7-11.8,24.2
		c-3.5,5.2-9.3,9.9-15.2,12.2c-8.3,3.3-9.9,9.1-10.6,17.9c10.4,1.9,20.7,3.7,31.1,5.6c4.1,0.8,8.2,1.6,12.2,2.7
		c3.9,1.1,7.6,2.4,7.8,7.6c0.1,1.6,2.7,3.2,2.8,4.8c0.3,4.2-0.2,8.5-0.4,13.6c6.5,1.3,14.6,2.7,22.6,4.5c8.8,1.9,17.5,3.9,26.2,6.1
		c6.4,1.6,8.8,6,6.5,12.7c-2.7,8-2.4,15.8-0.5,23.9c7.1,30.2,14.3,60.4,21,90.8c2.3,10.3,3.3,20.8,1.9,31.7
		c-1.2,9,0.1,18.3-0.3,27.4c-0.8,15.2-5.1,29.6-9.9,44c-3.1,9.4-9.3,12.7-17.5,14.8c-6.1,1.6-12.3,2.8-18.4,4.6
		c-1.2,0.4-2.8,2.3-2.8,3.5c-0.3,17.5-0.2,35-0.4,52.5c-0.4,35,6,68.8,17.7,101.6c7.7,21.7,16.2,43.2,22.8,65.2
		c8,26.3,14.5,53.1,21.5,79.7c2.7,10.1,4.1,20.6,7.7,30.3c1.9,5.1,6.7,9.4,10.8,13.4c6.3,6.2,12.9,12.1,19.8,17.5
		c5.5,4.3,9.1,9.7,11.6,15.9c4.1,9.9,8.4,18.4,19.5,23.4c9.5,4.3,16.9,13.2,25.2,20.2c0.9,0.7,1.4,2.3,1.4,3.5
		c0.1,6.5,0.1,13,0.1,20.4c-7.4,0.6-14.7,1.3-22,2c-2,0.2-4,0.7-6,1C875,979,859,979,843,979z M648.9,201.7c7.5,4.6,10.8,4,14.9-2.4
		C658.8,200.1,654.5,200.8,648.9,201.7z M605.8,196.1c4.5,7.1,7.2,8,11.5,4C613.6,198.8,610.2,197.6,605.8,196.1z"/>
</g>
</svg>
