<?xml version="1.0" encoding="utf-8"?>
<!-- Generator: Adobe Illustrator 25.4.1, SVG Export Plug-In . SVG Version: 6.00 Build 0)  -->
<svg version="1.1" id="_x33_0" xmlns="http://www.w3.org/2000/svg" xmlns:xlink="http://www.w3.org/1999/xlink" x="0px" y="0px"
	 viewBox="0 0 77.9 77.9" style="enable-background:new 0 0 77.9 77.9;" xml:space="preserve">
<style type="text/css">
	.st0{fill:#FF0000;}
</style>
<g>
	<g>
		<path d="M70.1,31.4c1,4.5,1.5,9.2,1.5,13.8c0,5.4-0.6,10.7-1.9,15.8c-0.5-1-1.1-1.9-1.8-2.7c-1.5-1.8-3.4-3.3-5.5-4.2v0
			c1.1-5.5,1.6-11.1,1.7-16.7l0,0C66.4,35.6,68.5,33.5,70.1,31.4z"/>
		<path d="M61.7,53.7l-10.8-4.5c0.4-0.7,0.6-1.4,0.6-2.2c0-0.2,0-0.4,0-0.6l2.5-0.9l0.1,0c1.5-0.5,2.7-1.4,3.5-2.6
			c0.7-0.9,1.1-1.9,1.3-3c1.8-0.6,3.5-1.5,5.1-2.7l0,0C64,42.9,63.4,48.5,62.3,54v0C62.1,53.9,61.9,53.8,61.7,53.7z"/>
		<path d="M15.5,54L15.5,54c-2.1,1-4,2.4-5.5,4.3c-0.7,0.9-1.3,1.8-1.8,2.7c-1.3-5.2-1.9-10.5-1.9-15.8c0-4.6,0.5-9.3,1.5-13.8
			c1.6,2.1,3.7,4.2,6.1,5.9l0,0C13.9,42.9,14.4,48.5,15.5,54z"/>
		<path d="M15.5,54c-1.1-5.5-1.6-11.1-1.7-16.7l0,0c1.6,1.1,3.3,2.1,5.1,2.7c0.2,1.1,0.6,2.1,1.3,3c0.9,1.2,2.1,2.1,3.5,2.6l0.1,0
			l2.5,0.9c0,0.2,0,0.4,0,0.6c0,0.8,0.2,1.6,0.6,2.2l-10.8,4.5C16,53.8,15.8,53.9,15.5,54C15.5,54.1,15.5,54,15.5,54z"/>
		<path class="st0" d="M75.5,57.6c-0.7,4.1-1.8,8.1-3.2,12l-0.7,2v-2.9c0-1.9-0.3-3.8-1-5.5c-0.3-0.7-0.6-1.4-0.9-2.1
			c1.3-5.2,1.9-10.5,1.9-15.8c0-4.6-0.5-9.3-1.5-13.8c-1.6,2.1-3.7,4.2-6.1,5.9c-1.6,1.1-3.3,2.1-5.1,2.7c0.1-0.4,0.1-0.8,0.1-1.1
			c0-1.3-0.4-2.6-1-3.7c6.1-2.2,10.5-10,11.9-12.8c0.3-0.6,0.9-1,1.6-1c0.8,0,1.5,0.6,1.7,1.4l1.3,5.2c1.4,5.7,2.1,11.5,2.1,17.3
			C76.6,49.4,76.3,53.5,75.5,57.6z"/>
		<path class="st0" d="M19.9,35.1c-0.7,1.1-1,2.4-1,3.7c0,0.4,0,0.8,0.1,1.1c-1.8-0.6-3.5-1.5-5.1-2.7c-2.4-1.7-4.5-3.8-6.1-5.9
			c-1,4.5-1.5,9.2-1.5,13.8c0,5.4,0.6,10.7,1.9,15.8c-0.4,0.7-0.7,1.4-0.9,2.1c-0.6,1.7-1,3.6-1,5.5v2.9l-0.7-2
			c-1.4-3.9-2.5-7.9-3.2-12c-0.7-4.1-1.1-8.2-1.1-12.4c0-5.8,0.7-11.6,2.1-17.3l1.3-5.2c0.2-0.8,0.9-1.4,1.7-1.4
			c0.7,0,1.3,0.4,1.6,1C9.4,25.1,13.8,32.9,19.9,35.1z"/>
		<path d="M31.9,76.6h-8.6c-2,0-3.9-1-5-2.5h-12v-2.5v-2.9c0-1.9,0.3-3.8,1-5.5c0.3-0.7,0.6-1.4,0.9-2.1c0.5-1,1.1-1.9,1.8-2.7
			c1.5-1.8,3.4-3.3,5.5-4.2c0.2-0.1,0.5-0.2,0.7-0.3L27,49.3c0.1,0.1,0.2,0.3,0.2,0.4c0.5,0.7,1.3,1.3,2.2,1.6
			c0.7,0.2,1.3,0.5,2,0.8c1.8,0.7,3.4,1.6,5,2.7c0.4,0.3,0.9,0.6,1.3,0.9l1.2,0.9l1.2-0.9c0.4-0.3,0.9-0.6,1.3-0.9
			c1.6-1.1,3.3-2,5-2.7c0.7-0.3,1.3-0.5,2-0.8c0.9-0.3,1.7-0.9,2.2-1.6c0.1-0.1,0.2-0.3,0.2-0.4l10.8,4.5c0.2,0.1,0.5,0.2,0.7,0.3
			c2.1,1,4,2.4,5.5,4.2c0.7,0.9,1.3,1.8,1.8,2.7c0.4,0.7,0.7,1.4,0.9,2.1c0.6,1.7,1,3.6,1,5.5v2.9v2.5h-12c-1.1,1.5-3,2.5-5,2.5H46
			c-2.8,0-5.5-1.4-7-3.8c-0.8,1.2-1.8,2.1-3.1,2.8C34.7,76.3,33.3,76.6,31.9,76.6z"/>
		<path d="M54.5,20.3c0.8-1.7,1.4-3.5,1.7-5.3h0c1.4,1.9,2.3,4.1,2.6,6.5l0,0.3v0c-1.7,0.4-3.4,1.1-4.9,2.1c0-0.5,0-0.9,0-1.4
			c0-0.4,0-0.7,0.1-1.1C54.2,21,54.3,20.7,54.5,20.3L54.5,20.3z"/>
		<path d="M49.9,9.9c-0.6,1.3-1.4,2.5-2.3,3.6l-2.4,2.9l-6.3,5l-6.3-5l-2.4-2.9c-0.9-1.1-1.7-2.3-2.3-3.6c1.8-0.7,3.7-1.1,5.6-1.1
			h10.6C46.2,8.8,48.1,9.2,49.9,9.9z"/>
		<path d="M23.8,23.8c-1.5-1-3.1-1.7-4.9-2.1v0l0-0.3c0.3-2.4,1.2-4.6,2.6-6.5h0c0.3,1.8,0.9,3.6,1.7,5.3l0,0.1
			c0.2,0.4,0.3,0.7,0.4,1.1c0.1,0.4,0.1,0.7,0.1,1.1C23.9,22.9,23.9,23.4,23.8,23.8z"/>
		<path d="M54.5,20.3c-0.2,0.4-0.3,0.7-0.4,1.1h0l-8.9-5.1l2.4-2.9c0.9-1.1,1.7-2.3,2.3-3.6c1.1-2.2,1.6-4.7,1.6-7.2
			c0-0.8,0.6-1.4,1.4-1.4c0.6,0,1.2,0.4,1.4,1l1.7,6c0.3,1.2,0.5,2.4,0.5,3.6c0,1-0.1,2.1-0.3,3.1C56,16.8,55.4,18.6,54.5,20.3
			L54.5,20.3z"/>
		<path d="M32.7,16.3l-8.9,5.1h0c-0.1-0.4-0.2-0.7-0.4-1.1l0-0.1c-0.8-1.7-1.4-3.5-1.7-5.3c-0.2-1-0.3-2-0.3-3.1
			c0-1.2,0.2-2.5,0.5-3.6l1.7-6c0.2-0.6,0.7-1,1.4-1c0.8,0,1.4,0.6,1.4,1.4c0,2,0.4,3.9,1,5.7c0.2,0.5,0.4,1,0.6,1.5
			c0.6,1.3,1.4,2.5,2.3,3.6L32.7,16.3z"/>
		<path d="M54.9,30.2c-0.5-2.1-0.8-4.2-0.9-6.3c1.5-1,3.1-1.7,4.9-2.1c1.1-0.3,2.2-0.4,3.4-0.4h1.7c-0.4,2.3-1.4,4.4-2.9,6.1
			c-1.5,1.7-3.4,2.9-5.7,3.6l-0.3,0.1c0-0.2-0.1-0.4-0.1-0.6L54.9,30.2z"/>
		<path d="M23.8,21.4l8.9-5.1l6.3,5l6.3-5l8.9,5.1h0C54,21.8,54,22.1,54,22.5c0,0.5,0,0.9,0,1.4c0.1,2.1,0.4,4.2,0.9,6.3l0.1,0.3
			c0.1,0.2,0.1,0.4,0.1,0.6c0,0.1,0,0.2,0,0.3c0.1,0.3,0.1,0.7,0.1,1c0,1-0.2,2-0.6,3L54.4,36c-0.1,0.3-0.3,0.7-0.4,1
			c-1.1,2.4-2.8,4.4-4.8,6c-0.9,0.7-1.8,1.3-2.8,1.7c-1.6,0.8-3.3,1.4-5,1.6c-0.8,0.1-1.7,0.2-2.5,0.2c-0.9,0-1.7-0.1-2.5-0.2
			c-1.8-0.3-3.5-0.8-5-1.6c-0.6-0.3-1.2-0.7-1.8-1.1c-0.3-0.2-0.6-0.4-0.9-0.7c-2-1.6-3.7-3.6-4.8-6c-0.2-0.3-0.3-0.7-0.4-1
			l-0.3-0.6c-0.4-0.9-0.6-1.9-0.6-3c0-0.4,0-0.7,0.1-1c0-0.1,0-0.2,0-0.3c0-0.2,0.1-0.4,0.1-0.6l0.1-0.3c0.5-2.1,0.8-4.2,0.9-6.3
			c0-0.5,0-0.9,0-1.4C23.9,22.1,23.8,21.8,23.8,21.4L23.8,21.4z M36.4,28.9v-1.3c0-2.1-1.7-3.8-3.8-3.8h-3.8v1.3
			c0,2.1,1.7,3.8,3.8,3.8H36.4z M49,25.1v-1.3h-3.8c-2.1,0-3.8,1.7-3.8,3.8v1.3h3.8C47.3,28.9,49,27.2,49,25.1z"/>
		<path d="M22.4,31c-2.2-0.6-4.2-1.9-5.7-3.6c-1.5-1.7-2.5-3.8-2.9-6.1h1.7c1.2,0,2.3,0.1,3.4,0.4c1.7,0.4,3.4,1.1,4.9,2.1
			c-0.1,2.1-0.4,4.2-0.9,6.3l-0.1,0.3c-0.1,0.2-0.1,0.4-0.1,0.6L22.4,31z"/>
		<path d="M51.5,46.5c0,0.2,0,0.4,0,0.6c0,0.8-0.2,1.6-0.6,2.2c-0.1,0.1-0.2,0.3-0.2,0.4c-0.5,0.7-1.3,1.3-2.2,1.6
			c-0.7,0.2-1.3,0.5-2,0.8v-7.3l0,0c1-0.5,1.9-1.1,2.8-1.7l1,1C50.9,44.6,51.3,45.5,51.5,46.5z"/>
		<path d="M27.7,43.9c-0.6,0.6-1,1.3-1.3,2.6l-2.5-0.9V37h0c1.1,2.4,2.8,4.4,4.8,6L27.7,43.9z"/>
		<path d="M41.4,46.3v8.4c-0.4,0.3-0.9,0.6-1.3,0.9l-1.2,0.9l-1.2-0.9c-0.4-0.3-0.9-0.6-1.3-0.9v-8.4c0.8,0.1,1.7,0.2,2.5,0.2
			C39.8,46.5,40.6,46.4,41.4,46.3z"/>
		<path d="M54,45.6l-2.5,0.9c-0.1-1-0.6-1.9-1.3-2.6l-1-1c2-1.6,3.7-3.6,4.8-6h0V45.6z"/>
		<path d="M55.2,31.3l2.4,3.2c0.1,0.2,0.3,0.4,0.4,0.6c0.7,1.1,1,2.4,1,3.7c0,0.4,0,0.8-0.1,1.1c-0.2,1.1-0.6,2.1-1.3,3
			c-0.9,1.2-2.1,2.1-3.5,2.6l-0.1,0V37h0c0.2-0.3,0.3-0.7,0.4-1l0.3-0.6c0.4-0.9,0.6-1.9,0.6-3C55.3,32,55.2,31.7,55.2,31.3
			C55.2,31.3,55.2,31.3,55.2,31.3z"/>
		<path d="M46.5,44.7V52c-1.8,0.7-3.4,1.6-5,2.7v-8.4C43.2,46,44.9,45.5,46.5,44.7L46.5,44.7z"/>
		<path d="M31.4,44.7L31.4,44.7l0,7.3c-0.7-0.3-1.3-0.5-2-0.8c-0.9-0.3-1.7-0.9-2.2-1.6c-0.1-0.1-0.2-0.3-0.2-0.4
			c-0.4-0.7-0.6-1.4-0.6-2.2c0-0.2,0-0.4,0-0.6c0.3-1.3,0.7-2,1.3-2.6l1-1c0.3,0.2,0.6,0.5,0.9,0.7C30.2,44,30.8,44.3,31.4,44.7z"/>
		<path d="M20.3,34.5l2.4-3.2h0c-0.1,0.3-0.1,0.7-0.1,1c0,1,0.2,2,0.6,3l0.3,0.6c0.1,0.3,0.3,0.7,0.4,1h0v8.7l-0.1,0
			c-1.5-0.5-2.7-1.4-3.5-2.6c-0.7-0.9-1.1-1.9-1.3-3c-0.1-0.4-0.1-0.8-0.1-1.1c0-1.3,0.4-2.6,1-3.7C20,34.9,20.1,34.7,20.3,34.5z"/>
		<path d="M36.4,46.3v8.4c-1.6-1.1-3.3-2-5-2.7v-7.3l0,0C33,45.5,34.7,46,36.4,46.3z"/>
		<path d="M49,23.9v1.3c0,2.1-1.7,3.8-3.8,3.8h-3.8v-1.3c0-2.1,1.7-3.8,3.8-3.8H49z"/>
		<path d="M36.4,27.6v1.3h-3.8c-2.1,0-3.8-1.7-3.8-3.8v-1.3h3.8C34.7,23.9,36.4,25.5,36.4,27.6z"/>
	</g>
	<g>
		<path class="st0" d="M32.7,30.1h2.5v2.5h2.5v-5c0-2.8-2.3-5-5-5h-5v2.5C27.6,27.9,29.9,30.1,32.7,30.1z M32.7,25.1
			c1.4,0,2.5,1.1,2.5,2.5h-2.5c-1.4,0-2.5-1.1-2.5-2.5H32.7z"/>
		<path class="st0" d="M50.2,25.1v-2.5h-5c-2.8,0-5,2.3-5,5v2.5h5C48,30.1,50.2,27.9,50.2,25.1z M45.2,25.1h2.5
			c0,1.4-1.1,2.5-2.5,2.5h-2.5C42.7,26.2,43.8,25.1,45.2,25.1z"/>
		<path class="st0" d="M32.7,37.2c0,1.5,0.6,2.9,1.6,3.9l1.8-1.8c-0.4-0.4-0.7-1-0.8-1.6h7.4c-0.1,0.6-0.4,1.2-0.8,1.6l1.8,1.8
			c1-1,1.6-2.4,1.6-3.9v-2H32.7V37.2z"/>
		<path class="st0" d="M77.9,45.2c0-5.9-0.7-11.9-2.2-17.6l-1.3-5.2c-0.3-1.4-1.5-2.3-2.9-2.3c-1.2,0-2.2,0.6-2.7,1.7
			c-1.1,2.2-5,9.3-10.3,11.8l-1.4-1.8c4.3-1.7,7.5-5.6,8.2-10.2l0.2-1.5h-3.2c-0.8,0-1.6,0.1-2.4,0.2c-0.4-2-1.2-3.9-2.3-5.6
			c0.1-0.9,0.2-1.8,0.2-2.8c0-1.4-0.2-2.7-0.6-4l-1.7-6C55.2,0.8,54.1,0,52.9,0c-1.5,0-2.7,1.2-2.7,2.7c0,1.9-0.4,3.9-1.1,5.6
			c-1.6-0.5-3.2-0.8-4.9-0.8H33.6c-1.7,0-3.3,0.3-4.9,0.8c-0.7-1.8-1.1-3.7-1.1-5.6c0-1.5-1.2-2.7-2.7-2.7c-1.2,0-2.3,0.8-2.6,1.9
			l-1.7,6c-0.4,1.3-0.6,2.6-0.6,4c0,0.9,0.1,1.9,0.2,2.8c-1.1,1.7-1.9,3.6-2.3,5.6c-0.8-0.1-1.6-0.2-2.4-0.2h-3.2l0.2,1.5
			c0.8,4.6,3.9,8.5,8.2,10.2l-1.4,1.8c-5.3-2.5-9.2-9.6-10.3-11.8c-0.5-1-1.6-1.7-2.7-1.7c-1.4,0-2.6,0.9-2.9,2.3l-1.3,5.2
			C0.7,33.4,0,39.3,0,45.2C0,53.7,1.5,62,4.4,70L5,71.8v3.5h12.7c1.4,1.5,3.4,2.5,5.6,2.5h8.6c2.7,0,5.2-1.1,7-3c1.8,1.9,4.4,3,7,3
			h8.6c2.2,0,4.2-1,5.6-2.5h12.7v-3.5l0.7-1.8C76.4,62,77.9,53.7,77.9,45.2z M71,22.9c0.2-0.4,0.9-0.3,1,0.1l1.3,5.2
			c1.4,5.6,2.1,11.3,2.1,17c0,6.8-1,13.4-2.9,19.9c-0.3-1.5-0.8-2.9-1.5-4.2c1.2-5.1,1.9-10.4,1.9-15.7c0-4.7-0.5-9.5-1.5-14.1
			l-0.6-2.7l-1.7,2.2c-2.5,3.3-5.7,6-8.9,7.5c-0.1-0.8-0.3-1.6-0.6-2.3C65.4,32.9,69.5,25.9,71,22.9z M9.1,57.5
			c-0.1,0.1-0.2,0.2-0.3,0.3C8,53.7,7.5,49.5,7.5,45.2c0-3.7,0.3-7.4,0.9-11c1.1,1.2,2.4,2.5,4.1,3.7c0.1,5.2,0.6,10.3,1.6,15.4
			C12.2,54.4,10.5,55.8,9.1,57.5z M16.5,52.3c-0.7-4.2-1.2-8.4-1.3-12.6c0.9,0.5,1.8,0.9,2.7,1.3c0.7,2.7,2.7,5,5.5,5.9l1.8,0.6
			c0,0.4,0.1,0.8,0.2,1.2L16.5,52.3z M21.7,34.8c0.1,0.4,0.2,0.7,0.3,1.1l0.3,0.6c0.1,0.3,0.2,0.5,0.3,0.8v6.4
			c-1.5-1.1-2.5-2.9-2.5-4.8c0-1.3,0.4-2.5,1.2-3.5L21.7,34.8z M30.3,15.2l8.6,7.8l6.4-5.1l7.4,4.3c0,0.1,0,0.3,0,0.4
			c0,2.7,0.3,5.4,1,8l0.1,0.3c0.1,0.5,0.2,1.1,0.2,1.6c0,0.9-0.2,1.7-0.5,2.5l-0.3,0.6c-2.4,5.9-8,9.7-14.3,9.7s-12-3.8-14.3-9.7
			l-0.3-0.6c-0.3-0.8-0.5-1.6-0.5-2.5c0-0.5,0.1-1.1,0.2-1.6l0.1-0.3c0.7-2.6-0.1-8.9-0.1-11.6c0-0.1,0.5-0.3,0.5-0.4L30.3,15.2z
			 M56.6,35.3c0.8,1,1.2,2.3,1.2,3.5c0,2-1,3.7-2.5,4.8v-6.4c0.1-0.3,0.2-0.5,0.3-0.8l0.3-0.6c0.1-0.3,0.2-0.7,0.3-1.1L56.6,35.3z
			 M26.8,43c-0.5,0.5-1,1.2-1.2,1.8l-0.4-0.1v-3.5C25.6,41.9,26.2,42.5,26.8,43L26.8,43z M52.7,47.4l1.8-0.6
			c2.8-0.9,4.8-3.2,5.5-5.9c1-0.4,1.9-0.8,2.7-1.3c-0.2,4.2-0.6,8.5-1.3,12.6l-8.8-3.7C52.6,48.2,52.7,47.8,52.7,47.4z M65.3,38
			c1.7-1.2,3.1-2.6,4.1-3.7c0.6,3.6,0.9,7.3,0.9,11c0,4.3-0.4,8.5-1.3,12.6c-0.1-0.1-0.2-0.2-0.3-0.3c-1.4-1.7-3.1-3.1-5.1-4.1
			C64.7,48.3,65.2,43.1,65.3,38z M62.5,22.6c-1,3.1-3.3,5.6-6.4,6.8c-0.4-1.6-0.6-3.3-0.7-4.9c2.1-1.2,4.5-1.9,7-1.9H62.5z
			 M57.5,20.8c-0.7,0.2-1.4,0.5-2.1,0.8c0.1-0.3,0.2-0.5,0.3-0.8c0.4-0.8,0.7-1.7,1-2.5C57,19.1,57.3,20,57.5,20.8z M52.8,2.7
			c0-0.2,0.3-0.2,0.3,0l1.7,6c0.3,1.1,0.5,2.2,0.5,3.3c0,2.6-0.6,5.3-1.8,7.7L47.1,16l1.4-1.7C51.3,11,52.8,6.9,52.8,2.7z
			 M24.1,18.8c-1.2-2.4-1.5-4.3-1.5-6.9c0-1.1,0.2-2.2,0.5-3.3l1.7-6c0-0.1,0.1-0.1,0.2-0.1c0.1,0,0.2,0.1,0.2,0.2
			c0,4.2,1.5,8.3,4.2,11.6l1,1 M21.2,18.3c0.3,0.9,0.6,1.7,1,2.6c0.1,0.2,0.2,0.5,0.3,0.8c-0.7-0.3-1.4-0.6-2.1-0.8
			C20.6,20,20.8,19.1,21.2,18.3z M15.4,22.6h0.2c2.5,0,4.9,0.7,7,1.9c-0.1,1.7-0.4,3.3-0.7,4.9C18.7,28.2,16.4,25.7,15.4,22.6z
			 M2.5,45.2c0-5.7,0.7-11.4,2.1-17L5.9,23c0.1-0.4,0.8-0.5,1-0.1c1.5,3,5.6,10.1,11.3,12.9c-0.3,0.7-0.5,1.5-0.5,2.3
			c-3.2-1.5-6.4-4.2-8.9-7.5l-1.7-2.2l-0.6,2.7C5.5,35.7,5,40.5,5,45.2c0,5.3,0.6,10.5,1.9,15.7c-0.7,1.3-1.2,2.8-1.5,4.2
			C3.5,58.6,2.5,52,2.5,45.2z M70.3,72.8h-8.7c0.2-0.6,0.4-1.2,0.4-1.8l0.7-8.1l-2.5-0.2l-0.7,8.1c-0.2,2.6-2.4,4.6-5,4.6H46
			c-2.4,0-4.7-1.2-6-3.2l-1-1.6l-1,1.6c-1.3,2-3.6,3.2-6,3.2h-8.6c-2.6,0-4.8-2-5-4.6l-0.7-8.1l-2.5,0.2l0.7,8.1
			c0.1,0.6,0.2,1.2,0.4,1.8H7.5v-4.2c0-3.5,1.2-6.9,3.5-9.5c1.5-1.8,3.5-3.3,5.7-4.2l9.8-4.1c0.6,0.7,1.5,1.3,2.5,1.6
			c2.9,1,5.5,2.4,8,4.2l2,1.5l2-1.5c2.4-1.8,5.1-3.2,8-4.2c1-0.3,1.8-0.9,2.5-1.6l9.8,4.1c2.2,0.9,4.2,2.4,5.7,4.2
			c2.2,2.7,3.5,6.1,3.5,9.5V72.8z"/>
	</g>
</g>
<path d="M27.3,18.3c-1,0.4-1.9,0.7-3,0.9c-0.1,0-0.2,0-0.3,0c-0.1-0.1-0.3-0.9-0.3-1c-0.1-0.7,0.6-0.5,1.2-1c1.2-1,2.7-1.8,4.3-2.1
	c0.5-0.1,0.7-0.3,1.6,0.7c0.5,0.6-0.5,1.1-1,1.4C29,17.6,28.2,18,27.3,18.3z"/>
<path d="M45.3,17.9c0,0.1-0.1,0.1-0.1,0.2c0,0.2,0.1,0.3,0.3,0.3c2.5,1.4,4.9,2.7,7.4,4.1c0.2-0.5,0.1-1.1,0.3-1.7
	c0.2-0.7,0.8-1.3,0.6-2c-0.1-0.4-0.4-0.6-0.6-0.9c-0.4-0.4-0.7-0.7-1.1-1.1c-0.3-0.3-0.6-0.6-1-0.8c-0.4-0.2-0.9-0.2-1.4-0.2
	c-0.7,0-1.9-0.2-2.4,0.1c-0.3,0.2-0.7,0.7-0.9,1C46.1,17.1,45.3,17.7,45.3,17.9z"/>
</svg>
