<?xml version="1.0" ?><svg id="_x33_0" style="enable-background:new 0 0 64 64;" version="1.1" viewBox="0 0 64 64" xml:space="preserve" xmlns="http://www.w3.org/2000/svg" xmlns:xlink="http://www.w3.org/1999/xlink"><g><g><path d="M56.84,25.98C57.61,29.6,58,33.29,58,36.99c0,4.27-0.51,8.48-1.52,12.6    c-0.41-0.77-0.9-1.49-1.46-2.17c-1.2-1.44-2.7-2.59-4.38-3.38v-0.01c0.86-4.39,1.31-8.86,1.36-13.33l-0.01-0.01    C53.9,29.35,55.57,27.65,56.84,25.98z" style="fill:#AAB2BD;"/><path d="M50.09,43.79l-8.56-3.57c0.3-0.52,0.47-1.13,0.47-1.76c0-0.15-0.01-0.3-0.03-0.45L44,37.33    l0.11-0.03c1.16-0.39,2.13-1.13,2.81-2.07c0.52-0.71,0.86-1.54,1.01-2.42c1.43-0.47,2.8-1.22,4.06-2.12L52,30.7    c-0.05,4.47-0.5,8.94-1.36,13.33v0.01C50.46,43.95,50.27,43.87,50.09,43.79z" style="fill:#AAB2BD;"/><path d="M13.36,44.03v0.01c-1.68,0.79-3.18,1.94-4.38,3.38c-0.56,0.68-1.05,1.4-1.46,2.17    C6.51,45.47,6,41.26,6,36.99c0-3.7,0.39-7.39,1.16-11.01c1.27,1.67,2.94,3.37,4.85,4.71L12,30.7    C12.05,35.17,12.5,39.64,13.36,44.03z" style="fill:#AAB2BD;"/><path d="M13.36,44.03C12.5,39.64,12.05,35.17,12,30.7l0.01-0.01c1.26,0.9,2.63,1.65,4.06,2.12    c0.15,0.88,0.49,1.71,1.01,2.42c0.68,0.94,1.65,1.68,2.81,2.07L20,37.33l2.03,0.68c-0.02,0.15-0.03,0.3-0.03,0.45    c0,0.63,0.17,1.24,0.47,1.76l-8.56,3.57c-0.18,0.08-0.37,0.16-0.55,0.25V44.03z" style="fill:#AAB2BD;"/><path d="M61.14,46.84c-0.58,3.25-1.43,6.45-2.56,9.56L58,58v-2.34c0-1.5-0.26-2.99-0.77-4.38    c-0.21-0.58-0.46-1.15-0.75-1.69c1.01-4.12,1.52-8.33,1.52-12.6c0-3.7-0.39-7.39-1.16-11.01c-1.27,1.67-2.94,3.37-4.85,4.71    c-1.26,0.9-2.63,1.65-4.06,2.12c0.05-0.3,0.07-0.6,0.07-0.91c0-1.05-0.29-2.07-0.83-2.96c4.84-1.73,8.35-7.97,9.46-10.17    C56.87,18.3,57.36,18,57.89,18c0.65,0,1.22,0.44,1.38,1.08l1.03,4.14c1.13,4.5,1.7,9.13,1.7,13.77C62,40.3,61.71,43.6,61.14,46.84    z" style="fill:#656D78;"/><path d="M16.83,28.94C16.29,29.83,16,30.85,16,31.9c0,0.31,0.02,0.61,0.07,0.91    c-1.43-0.47-2.8-1.22-4.06-2.12c-1.91-1.34-3.58-3.04-4.85-4.71C6.39,29.6,6,33.29,6,36.99c0,4.27,0.51,8.48,1.52,12.6    c-0.29,0.54-0.54,1.11-0.75,1.69C6.26,52.67,6,54.16,6,55.66V58l-0.58-1.6c-1.13-3.11-1.98-6.31-2.56-9.56    C2.29,43.6,2,40.3,2,36.99c0-4.64,0.57-9.27,1.7-13.77l1.03-4.14C4.89,18.44,5.46,18,6.11,18c0.53,0,1.02,0.3,1.26,0.77    C8.48,20.97,11.99,27.21,16.83,28.94z" style="fill:#656D78;"/><path d="M26.39,62h-6.82c-1.63,0-3.09-0.78-4-2H6v-2v-2.34c0-1.5,0.26-2.99,0.77-4.38    c0.21-0.58,0.46-1.15,0.75-1.69c0.41-0.77,0.9-1.49,1.46-2.17c1.2-1.44,2.7-2.59,4.38-3.38c0.18-0.09,0.37-0.17,0.55-0.25    l8.56-3.57c0.05,0.1,0.12,0.2,0.19,0.3c0.43,0.58,1.03,1.04,1.75,1.28c0.54,0.18,1.07,0.38,1.59,0.6c1.4,0.58,2.74,1.3,4,2.14    c0.35,0.24,0.69,0.48,1.03,0.73L32,46l0.97-0.73c0.34-0.25,0.68-0.49,1.03-0.73c1.26-0.84,2.6-1.56,4-2.14    c0.52-0.22,1.05-0.42,1.59-0.6c0.72-0.24,1.32-0.7,1.75-1.28c0.07-0.1,0.14-0.2,0.19-0.3l8.56,3.57c0.18,0.08,0.37,0.16,0.55,0.25    c1.68,0.79,3.18,1.94,4.38,3.38c0.56,0.68,1.05,1.4,1.46,2.17c0.29,0.54,0.54,1.11,0.75,1.69c0.51,1.39,0.77,2.88,0.77,4.38V58v2    h-9.57c-0.91,1.22-2.37,2-4,2h-6.82c-2.26,0-4.36-1.13-5.61-3c-0.62,0.94-1.46,1.68-2.43,2.2C28.61,61.72,27.52,62,26.39,62z" style="fill:#967ADC;"/><path d="M44.43,17.15c0.66-1.33,1.12-2.76,1.36-4.22h0.01c1.08,1.51,1.8,3.28,2.07,5.17l0.03,0.21v0.01    c-1.38,0.31-2.69,0.87-3.87,1.66C44.01,19.62,44,19.26,44,18.9c0-0.29,0.03-0.57,0.1-0.85c0.07-0.3,0.17-0.58,0.31-0.86    L44.43,17.15z" style="fill:#CCD1D9;"/><path d="M40.71,8.89c-0.48,1.01-1.09,1.96-1.82,2.84L37,14l-5,4l-5-4l-1.89-2.27    c-0.73-0.88-1.34-1.83-1.82-2.84C24.71,8.3,26.24,8,27.78,8h8.44C37.76,8,39.29,8.3,40.71,8.89z" style="fill:#CCD1D9;"/><path d="M19.97,19.98c-1.18-0.79-2.49-1.35-3.87-1.66v-0.01l0.03-0.21c0.27-1.89,0.99-3.66,2.07-5.17h0.01    c0.24,1.46,0.7,2.89,1.36,4.22l0.02,0.04c0.14,0.28,0.24,0.56,0.31,0.86c0.07,0.28,0.1,0.56,0.1,0.85    C20,19.26,19.99,19.62,19.97,19.98z" style="fill:#CCD1D9;"/><path d="M44.41,17.19c-0.14,0.28-0.24,0.56-0.31,0.86h-0.01L37,14l1.89-2.27c0.73-0.88,1.34-1.83,1.82-2.84    C41.55,7.11,42,5.14,42,3.14C42,2.51,42.51,2,43.14,2c0.51,0,0.96,0.34,1.1,0.83l1.35,4.75C45.86,8.52,46,9.5,46,10.48    c0,0.82-0.07,1.64-0.21,2.45c-0.24,1.46-0.7,2.89-1.36,4.22L44.41,17.19z" style="fill:#656D78;"/><path d="M27,14l-7.09,4.05H19.9c-0.07-0.3-0.17-0.58-0.31-0.86l-0.02-0.04c-0.66-1.33-1.12-2.76-1.36-4.22    C18.07,12.12,18,11.3,18,10.48c0-0.98,0.14-1.96,0.41-2.9l1.35-4.75C19.9,2.34,20.35,2,20.86,2C21.49,2,22,2.51,22,3.14    c0,1.57,0.28,3.12,0.8,4.57c0.15,0.4,0.31,0.79,0.49,1.18c0.48,1.01,1.09,1.96,1.82,2.84L27,14z" style="fill:#656D78;"/><path d="M44.75,25.01c-0.41-1.65-0.65-3.33-0.72-5.03c1.18-0.79,2.49-1.35,3.87-1.66    c0.88-0.21,1.79-0.32,2.71-0.32H52c-0.3,1.83-1.12,3.49-2.32,4.82c-1.18,1.34-2.74,2.34-4.53,2.85l-0.24,0.07    c-0.02-0.17-0.06-0.33-0.1-0.5L44.75,25.01z" style="fill:#967ADC;"/><path d="M19.91,18.05L27,14l5,4l5-4l7.09,4.05h0.01c-0.07,0.28-0.1,0.56-0.1,0.85    c0,0.36,0.01,0.72,0.03,1.08c0.07,1.7,0.31,3.38,0.72,5.03l0.06,0.23c0.04,0.17,0.08,0.33,0.1,0.5c0.02,0.07,0.03,0.14,0.03,0.22    C44.98,26.23,45,26.5,45,26.78c0,0.81-0.15,1.6-0.45,2.35l-0.21,0.51c-0.11,0.27-0.22,0.53-0.35,0.79    c-0.9,1.89-2.22,3.51-3.81,4.75c-0.68,0.54-1.41,1-2.19,1.38c-1.24,0.64-2.59,1.08-3.99,1.29c-0.66,0.1-1.32,0.15-2,0.15    s-1.34-0.05-2-0.15c-1.4-0.21-2.75-0.65-3.99-1.29c-0.5-0.25-0.99-0.53-1.46-0.85c-0.25-0.17-0.49-0.34-0.73-0.53    c-1.59-1.24-2.91-2.86-3.81-4.75c-0.13-0.26-0.24-0.52-0.35-0.79l-0.21-0.51c-0.3-0.75-0.45-1.54-0.45-2.35    c0-0.28,0.02-0.55,0.06-0.82c0-0.08,0.01-0.15,0.03-0.22c0.02-0.17,0.06-0.33,0.1-0.5l0.06-0.23c0.41-1.65,0.65-3.33,0.72-5.03    C19.99,19.62,20,19.26,20,18.9c0-0.29-0.03-0.57-0.1-0.85H19.91z M30,24v-1c0-1.66-1.34-3-3-3h-3v1c0,1.66,1.34,3,3,3H30z M40,21    v-1h-3c-1.66,0-3,1.34-3,3v1h3C38.66,24,40,22.66,40,21z" style="fill:#967ADC;"/><path d="M18.85,25.67c-1.79-0.51-3.35-1.51-4.53-2.85C13.12,21.49,12.3,19.83,12,18h1.39    c0.92,0,1.83,0.11,2.71,0.32c1.38,0.31,2.69,0.87,3.87,1.66c-0.07,1.7-0.31,3.38-0.72,5.03l-0.06,0.23    c-0.04,0.17-0.08,0.33-0.1,0.5L18.85,25.67z" style="fill:#967ADC;"/><path d="M41.97,38.01c0.02,0.15,0.03,0.3,0.03,0.45c0,0.63-0.17,1.24-0.47,1.76    c-0.05,0.1-0.12,0.2-0.19,0.3c-0.43,0.58-1.03,1.04-1.75,1.28c-0.54,0.18-1.07,0.38-1.59,0.6v-5.83l-0.01-0.01    c0.78-0.38,1.51-0.84,2.19-1.38l0.79,0.79C41.52,36.52,41.87,37.25,41.97,38.01z" style="fill:#BEADF2;"/><path d="M23.03,35.97c-0.45,0.45-0.76,1-1,2.04L20,37.33v-6.9h0.01c0.9,1.89,2.22,3.51,3.81,4.75    L23.03,35.97z" style="fill:#BEADF2;"/><path d="M34,37.85v6.69c-0.35,0.24-0.69,0.48-1.03,0.73L32,46l-0.97-0.73c-0.34-0.25-0.68-0.49-1.03-0.73    v-6.69c0.66,0.1,1.32,0.15,2,0.15S33.34,37.95,34,37.85z" style="fill:#BEADF2;"/><path d="M44,37.33l-2.03,0.68c-0.1-0.76-0.45-1.49-1-2.04l-0.79-0.79c1.59-1.24,2.91-2.86,3.81-4.75H44    V37.33z" style="fill:#BEADF2;"/><path d="M44.95,25.96l1.91,2.52c0.11,0.15,0.21,0.3,0.31,0.46C47.71,29.83,48,30.85,48,31.9    c0,0.31-0.02,0.61-0.07,0.91c-0.15,0.88-0.49,1.71-1.01,2.42c-0.68,0.94-1.65,1.68-2.81,2.07L44,37.33v-6.9h-0.01    c0.13-0.26,0.24-0.52,0.35-0.79l0.21-0.51c0.3-0.75,0.45-1.54,0.45-2.35c0-0.28-0.02-0.55-0.06-0.82H44.95z" style="fill:#BEADF2;"/><path d="M38,36.57v5.83c-1.4,0.58-2.74,1.3-4,2.14v-6.69c1.4-0.21,2.75-0.65,3.99-1.29L38,36.57z" style="fill:#BEADF2;"/><path d="M26.01,36.56L26,36.57v5.83c-0.52-0.22-1.05-0.42-1.59-0.6c-0.72-0.24-1.32-0.7-1.75-1.28    c-0.07-0.1-0.14-0.2-0.19-0.3C22.17,39.7,22,39.09,22,38.46c0-0.15,0.01-0.3,0.03-0.45c0.24-1.04,0.55-1.59,1-2.04l0.79-0.79    c0.24,0.19,0.48,0.36,0.73,0.53C25.02,36.03,25.51,36.31,26.01,36.56z" style="fill:#BEADF2;"/><path d="M17.14,28.48l1.91-2.52h0.01C19.02,26.23,19,26.5,19,26.78c0,0.81,0.15,1.6,0.45,2.35l0.21,0.51    c0.11,0.27,0.22,0.53,0.35,0.79H20v6.9l-0.11-0.03c-1.16-0.39-2.13-1.13-2.81-2.07c-0.52-0.71-0.86-1.54-1.01-2.42    c-0.05-0.3-0.07-0.6-0.07-0.91c0-1.05,0.29-2.07,0.83-2.96C16.93,28.78,17.03,28.63,17.14,28.48z" style="fill:#BEADF2;"/><path d="M30,37.85v6.69c-1.26-0.84-2.6-1.56-4-2.14v-5.83l0.01-0.01C27.25,37.2,28.6,37.64,30,37.85z" style="fill:#BEADF2;"/><path d="M40,20v1c0,1.66-1.34,3-3,3h-3v-1c0-1.66,1.34-3,3-3H40z" style="fill:#FCD770;"/><path d="M30,23v1h-3c-1.66,0-3-1.34-3-3v-1h3C28.66,20,30,21.34,30,23z" style="fill:#FCD770;"/></g><g><path d="M27,25h2v2h2v-4c0-2.206-1.794-4-4-4h-4v2C23,23.206,24.794,25,27,25z M27,21c1.103,0,2,0.897,2,2h-2    c-1.103,0-2-0.897-2-2H27z"/><path d="M41,21v-2h-4c-2.206,0-4,1.794-4,4v2h4C39.206,25,41,23.206,41,21z M37,21h2c0,1.103-0.897,2-2,2h-2    C35,21.897,35.897,21,37,21z"/><path d="M27,30.586c0,1.18,0.459,2.288,1.293,3.122l1.414-1.415c-0.356-0.356-0.588-0.805-0.672-1.292h5.93    c-0.084,0.487-0.315,0.936-0.672,1.292l1.414,1.415C36.541,32.874,37,31.766,37,30.586V29H27V30.586z"/><rect height="6" width="2" x="31" y="49"/><circle cx="22" cy="58" r="1"/><path d="M63,36.993c0-4.723-0.581-9.44-1.727-14.02l-1.034-4.139C59.971,17.754,59.005,17,57.892,17    c-0.919,0-1.745,0.506-2.157,1.322c-0.89,1.763-4.01,7.417-8.208,9.383l-1.095-1.441c3.413-1.366,5.944-4.432,6.554-8.1L53.181,17    h-2.575c-0.644,0-1.282,0.048-1.911,0.142c-0.335-1.587-0.967-3.103-1.867-4.453C46.93,11.956,47,11.219,47,10.479    c0-1.075-0.149-2.143-0.444-3.176l-1.357-4.751C44.938,1.638,44.091,1,43.14,1C41.96,1,41,1.96,41,3.14    c0,1.545-0.298,3.066-0.85,4.489C38.881,7.218,37.566,7,36.222,7h-8.443c-1.345,0-2.66,0.218-3.928,0.629    C23.298,6.206,23,4.685,23,3.14C23,1.96,22.04,1,20.86,1c-0.951,0-1.798,0.638-2.059,1.552l-1.357,4.751    C17.149,8.336,17,9.405,17,10.479c0,0.739,0.07,1.476,0.174,2.209c-0.9,1.35-1.532,2.866-1.867,4.453    C14.677,17.048,14.038,17,13.395,17h-2.575l0.194,1.164c0.611,3.669,3.142,6.735,6.554,8.101l-1.095,1.441    c-4.198-1.966-7.317-7.62-8.208-9.383C7.854,17.506,7.027,17,6.108,17c-1.113,0-2.079,0.754-2.347,1.833l-1.035,4.14    C1.581,27.553,1,32.27,1,36.993c0,6.757,1.171,13.404,3.48,19.754L5,58.175V61h10.113c1.099,1.225,2.677,2,4.453,2h6.828    c2.143,0,4.159-0.88,5.605-2.403C33.446,62.12,35.463,63,37.605,63h6.828c1.776,0,3.354-0.775,4.453-2H59v-2.825l0.52-1.429    C61.829,50.396,63,43.75,63,36.993z M57.52,19.223c0.152-0.302,0.694-0.245,0.779,0.095l1.035,4.14    C60.439,27.879,61,32.433,61,36.993c0,5.385-0.783,10.694-2.305,15.833c-0.244-1.166-0.636-2.295-1.168-3.36    C58.498,45.392,59,41.199,59,36.993c0-3.761-0.398-7.536-1.183-11.221l-0.456-2.136l-1.319,1.741    c-1.984,2.617-4.557,4.751-7.09,5.938c-0.057-0.639-0.203-1.264-0.438-1.861C53.081,27.233,56.297,21.646,57.52,19.223z     M40.261,36.675C40.737,37.152,41,37.786,41,38.46c0,1.088-0.693,2.051-1.727,2.395c-0.093,0.031-0.181,0.072-0.273,0.104v-3.779    c0.373-0.209,0.737-0.433,1.09-0.675L40.261,36.675z M8.212,46.784c-0.074,0.089-0.138,0.184-0.209,0.275    C7.348,43.751,7,40.378,7,36.993c0-2.927,0.25-5.862,0.745-8.753c0.842,0.923,1.947,1.994,3.275,2.985    c0.068,4.104,0.486,8.221,1.235,12.263C10.717,44.323,9.333,45.438,8.212,46.784z M14.133,42.611    c-0.592-3.321-0.949-6.69-1.069-10.059c0.681,0.383,1.405,0.719,2.164,1.006c0.555,2.166,2.153,3.958,4.348,4.689l1.445,0.482    c0.019,0.325,0.07,0.643,0.156,0.948L14.133,42.611z M18.253,28.668c0.075,0.283,0.162,0.562,0.271,0.836l0.204,0.511    c0.083,0.208,0.179,0.409,0.271,0.611v5.105c-1.23-0.862-2-2.276-2-3.834c0-1.009,0.333-2.009,0.935-2.811L18.253,28.668z     M26.922,15.196L32,19.281l5.094-4.075l5.924,3.385C43.011,18.693,43,18.794,43,18.898c0,2.139,0.263,4.276,0.782,6.354    l0.059,0.234C43.946,25.909,44,26.344,44,26.78c0,0.683-0.128,1.349-0.382,1.982l-0.204,0.51C41.537,33.967,37.057,37,32,37    s-9.537-3.033-11.414-7.728l-0.204-0.511C20.128,28.129,20,27.462,20,26.78c0-0.436,0.054-0.871,0.159-1.293l0.059-0.235    C20.737,23.174,21,21.037,21,18.898c0-0.103-0.011-0.205-0.018-0.307L26.922,15.196z M46.062,29.082    C46.667,29.889,47,30.889,47,31.897c0,1.559-0.77,2.972-2,3.834v-5.106c0.092-0.203,0.188-0.403,0.271-0.611l0.204-0.51    c0.11-0.274,0.196-0.554,0.271-0.836L46.062,29.082z M22.325,35.261c-0.427,0.427-0.758,0.924-0.982,1.466L21,36.612V33.84    c0.415,0.502,0.858,0.976,1.333,1.412L22.325,35.261z M23.739,36.675l0.171-0.171c0.352,0.242,0.717,0.466,1.09,0.675v3.779    c-0.092-0.032-0.181-0.073-0.273-0.104C23.693,40.511,23,39.548,23,38.46C23,37.786,23.263,37.152,23.739,36.675z M27,38.1    c0.648,0.24,1.315,0.435,2,0.58v4.094c-0.651-0.369-1.317-0.71-2-1.017V38.1z M31,38.963C31.331,38.985,31.664,39,32,39    s0.669-0.015,1-0.037v5.076c-0.208,0.146-0.423,0.279-0.627,0.432L32,44.75l-0.373-0.279c-0.204-0.153-0.419-0.286-0.627-0.432    V38.963z M35,38.68c0.685-0.145,1.352-0.34,2-0.58v3.657c-0.683,0.307-1.349,0.648-2,1.017V38.68z M43,33.84v2.772l-0.343,0.114    c-0.224-0.542-0.556-1.039-0.983-1.466l-0.008-0.008C42.142,34.816,42.585,34.342,43,33.84z M42.979,38.728l1.445-0.482    c2.195-0.731,3.793-2.523,4.348-4.689c0.759-0.287,1.484-0.623,2.164-1.005c-0.12,3.369-0.478,6.738-1.069,10.059l-7.044-2.935    C42.908,39.37,42.959,39.053,42.979,38.728z M52.98,31.224c1.328-0.99,2.433-2.062,3.275-2.985C56.75,31.13,57,34.066,57,36.993    c0,3.385-0.348,6.758-1.003,10.066c-0.072-0.09-0.135-0.186-0.209-0.275c-1.121-1.346-2.505-2.461-4.043-3.297    C52.495,39.446,52.912,35.328,52.98,31.224z M50.734,19c-0.78,2.472-2.661,4.481-5.084,5.434    c-0.302-1.287-0.503-2.595-0.591-3.912C46.739,19.528,48.643,19,50.605,19H50.734z M46.748,17.592    c-0.57,0.178-1.128,0.394-1.669,0.651c0.053-0.215,0.132-0.429,0.241-0.647c0.322-0.645,0.586-1.317,0.817-2.001    C46.409,16.239,46.607,16.909,46.748,17.592z M43,3.14c0-0.14,0.237-0.173,0.274-0.039l1.357,4.751    C44.876,8.707,45,9.591,45,10.479c0,2.098-0.492,4.198-1.43,6.123l-5.048-2.885l1.135-1.345C41.812,9.788,43,6.508,43,3.14z     M27.778,9h8.443c1.041,0,2.064,0.151,3.053,0.444c-0.34,0.577-0.722,1.131-1.155,1.649l-1.823,2.189L32,16.719l-4.297-3.437    l-1.823-2.189c-0.432-0.519-0.815-1.073-1.155-1.649C25.715,9.151,26.737,9,27.778,9z M19.368,7.853l1.357-4.752    C20.742,3.042,20.798,3,20.86,3C20.938,3,21,3.063,21,3.14c0,3.368,1.188,6.647,3.343,9.233l1.125,1.35l-5.041,2.881    C19.497,14.707,19,12.593,19,10.479C19,9.591,19.124,8.707,19.368,7.853z M17.864,15.591c0.236,0.695,0.504,1.381,0.835,2.043    c0.099,0.198,0.172,0.402,0.223,0.61c-0.542-0.257-1.1-0.473-1.67-0.652C17.394,16.907,17.593,16.236,17.864,15.591z M13.266,19    h0.129c1.962,0,3.866,0.528,5.547,1.523c-0.089,1.317-0.289,2.626-0.591,3.912C15.927,23.481,14.046,21.473,13.266,19z M3,36.993    c0-4.56,0.561-9.113,1.666-13.534l1.036-4.142c0.083-0.338,0.626-0.396,0.778-0.094c1.222,2.423,4.438,8.01,9.004,10.231    c-0.234,0.597-0.38,1.222-0.437,1.861c-2.533-1.188-5.105-3.321-7.09-5.938l-1.319-1.741l-0.456,2.136    C5.398,29.457,5,33.231,5,36.993c0,4.206,0.502,8.399,1.474,12.473c-0.532,1.065-0.924,2.194-1.168,3.36    C3.783,47.687,3,42.378,3,36.993z M57,59h-6.928c0.163-0.464,0.291-0.944,0.338-1.457l0.587-6.453l-1.992-0.182l-0.587,6.453    C48.229,59.436,46.517,61,44.434,61h-6.828c-1.923,0-3.707-0.955-4.773-2.555L32,57.197l-0.832,1.249    C30.102,60.045,28.317,61,26.395,61h-6.828c-2.083,0-3.796-1.564-3.983-3.638l-0.587-6.453l-1.992,0.182l0.587,6.452    c0.047,0.512,0.175,0.993,0.338,1.457H7v-3.345c0-2.769,0.977-5.464,2.749-7.591c1.218-1.462,2.79-2.622,4.548-3.354l7.84-3.267    c0.516,0.586,1.178,1.05,1.956,1.309c2.28,0.76,4.411,1.876,6.334,3.318L32,47.25l1.572-1.18c1.923-1.442,4.054-2.559,6.334-3.318    c0.779-0.26,1.44-0.723,1.956-1.309l7.84,3.267c1.758,0.732,3.33,1.892,4.548,3.354C56.023,50.191,57,52.887,57,55.655V59z"/><circle cx="42" cy="58" r="1"/></g></g></svg>