<?xml version="1.0" encoding="utf-8"?>
<!-- Generator: Adobe Illustrator 25.4.1, SVG Export Plug-In . SVG Version: 6.00 Build 0)  -->
<svg version="1.1" id="Layer_1" xmlns="http://www.w3.org/2000/svg" xmlns:xlink="http://www.w3.org/1999/xlink" x="0px" y="0px"
	 viewBox="0 0 512 512" style="enable-background:new 0 0 512 512;" xml:space="preserve">
<style type="text/css">
	.st0{fill:#020200;}
	.st1{fill:#FFFFFF;}
</style>
<g id="filled_outline">
	<path d="M344,128h36.1c17.9,0,35,7.1,47.7,19.7l0.5,0.5c12.6,12.6,19.7,29.8,19.7,47.7l0,0c0,22.5-11.3,43.6-30,56.1l-42,28
		l18.8-50.1c3.3-8.8,2.8-18.7-1.4-27.1l0,0c-5.7-11.5-17.5-18.8-30.4-18.8h-19V128z"/>
	<path d="M168,128h-36.1c-17.9,0-35,7.1-47.7,19.7l-0.5,0.5C71.1,160.9,64,178,64,195.9l0,0c0,22.5,11.3,43.6,30,56.1l42,28
		l-18.8-50.1c-3.3-8.8-2.8-18.7,1.4-27.1l0,0c5.7-11.5,17.5-18.8,30.4-18.8h19V128z"/>
	<path class="st0" d="M182.1,89.9L216,72l-9-13.5c-4.6-6.9-8-14.6-10-22.7L192,16l-5.1,8.5C175,44.3,173.2,68.6,182.1,89.9z"/>
	<path class="st0" d="M329.9,89.9L296,72l9-13.5c4.6-6.9,8-14.6,10-22.7L320,16l5.1,8.5C337,44.3,338.8,68.6,329.9,89.9L329.9,89.9z
		"/>
	<path d="M302.3,328H288v-48h-64v48h-14.3C151.3,328,104,375.3,104,433.7V488h304v-54.3C408,375.3,360.7,328,302.3,328z"/>
	<path d="M314.9,267.2l-41.1,25.7c-10.8,6.8-24.6,6.8-35.4,0l-41.1-25.7c-3.3-2.1-6-5.1-7.6-8.8l-13.9-31.3
		C165.3,204,160,178.9,160,153.5v-10.2c0-20,8-39.3,22.1-53.4l0,0c16.6-16.6,39-25.9,62.4-25.9h22.8c23.4,0,45.9,9.3,62.4,25.9l0,0
		C344,104,352,123.3,352,143.3v10.2c0,25.4-5.3,50.4-15.6,73.6l-13.9,31.3C320.9,262.1,318.2,265.1,314.9,267.2z"/>
	<path class="st1" d="M226.7,136L226.7,136c6,0,10.9,4.9,10.9,10.9c0,0.7-0.1,1.4-0.2,2.1l-2.7,13.6c-1.6,7.8-8.4,13.4-16.4,13.4
		l0,0c-6.3,0-12.1-3.6-14.9-9.2L184,128l21.6,5.4C212.5,135.1,219.6,136,226.7,136z"/>
	<path class="st1" d="M285.3,136L285.3,136c-6,0-10.9,4.9-10.9,10.9c0,0.7,0.1,1.4,0.2,2.1l2.7,13.6c1.6,7.8,8.4,13.4,16.4,13.4l0,0
		c6.3,0,12.1-3.6,14.9-9.2L328,128l-21.6,5.4C299.5,135.1,292.4,136,285.3,136z"/>
	<path class="st1" d="M89.6,258.7l42,28c3.7,2.5,8.6,1.5,11.1-2.2c1.4-2.1,1.7-4.8,0.8-7.2L124.7,227c-5-13.4,1.8-28.4,15.2-33.4
		c2.9-1.1,6-1.7,9.1-1.7h7c2.7,13.2,6.9,26.1,12.4,38.4l13.9,31.3c2.2,5.1,6,9.4,10.7,12.3l23.1,14.4V320h-6.3
		C147,320.1,96.1,371,96,433.7V488c0,4.4,3.6,8,8,8h304c4.4,0,8-3.6,8-8v-54.3C415.9,371,365,320.1,302.3,320H296v-31.6l23.1-14.4
		c4.7-2.9,8.4-7.2,10.7-12.3l13.9-31.3c5.5-12.3,9.6-25.2,12.4-38.4h7c14.3,0,25.9,11.6,25.9,25.9c0,3.1-0.6,6.2-1.7,9.1l-18.8,50.1
		c-1.6,4.1,0.5,8.7,4.7,10.3c2.4,0.9,5.1,0.6,7.2-0.8l42-28c34.7-23.1,44-69.9,20.9-104.6c-2.8-4.1-5.9-8-9.4-11.5l-0.5-0.5
		c-14.1-14.2-33.3-22.1-53.3-22.1h-23.4c-3.4-11.8-9.4-22.7-17.6-32c7.8-22.5,5.2-47.3-7.1-67.6l-5.1-8.5c-2.3-3.8-7.2-5-11-2.7
		c-1.8,1.1-3.1,2.9-3.6,4.9l-4.9,19.8c-1.8,7.2-12.6,25.7-12.6,25.7c-0.1,0.1-0.1,0.2-0.2,0.3c-8.8-2.6-17.9-3.9-27.1-3.9h-22.8
		c-9.2,0-18.3,1.3-27.1,3.8c-0.1-0.1-0.1-0.2-0.2-0.3c0,0-10.8-18.5-12.6-25.7l-4.9-19.8c-1.1-4.3-5.4-6.9-9.7-5.8
		c-2.1,0.5-3.8,1.8-4.9,3.6l-5.1,8.5c-12.2,20.4-14.8,45.1-7.1,67.6c-8.2,9.2-14.2,20.1-17.6,32h-23.4c-20-0.1-39.2,7.9-53.3,22.1
		l-0.5,0.5c-29.4,29.4-29.4,77.2,0,106.6C81.6,252.8,85.4,255.9,89.6,258.7z M288,336h14.3c54,0.1,97.7,43.8,97.7,97.7V480H112
		v-46.3c0.1-54,43.8-97.7,97.7-97.7H224c4.4,0,8-3.6,8-8v-29.6c0,0,16.4,7.5,24,7.5c7.6,0,24-7.5,24-7.5V328
		C280,332.4,283.6,336,288,336z M380.1,136c15.8,0,30.9,6.2,42,17.4l0.5,0.5c23.2,23.2,23.2,60.8,0,84c-2.8,2.8-5.8,5.3-9.1,7.4
		l-21.3,14.2l10.1-26.9c3.7-10,3.5-21.1-0.6-31l12-12c3.1-3.1,3.1-8.2,0-11.3s-8.2-3.1-11.3,0l-9.8,9.8c-2.1-2.1-4.4-3.9-6.9-5.5
		l5.5-11c2-3.9,0.4-8.8-3.5-10.8c-3.9-2-8.8-0.4-10.8,3.5c0,0,0,0.1-0.1,0.1l-6.1,12.3c-2.5-0.5-12-0.7-12-0.7
		c0.9-7.4,1.2-37.6,1-40L380.1,136z M322.8,37.8c4.9,12.1,6,25.3,3.1,38.1c-5-3.9-10.5-7.2-16.2-10.1
		C309.8,65.8,320.6,46.7,322.8,37.8z M267.4,72c21.3-0.1,41.8,8.4,56.8,23.5c12.7,12.6,19.8,29.8,19.8,47.8v10.2
		c0,24.2-5.1,48.2-14.9,70.4l-13.9,31.3c-1,2.2-2.5,4-4.5,5.2l0,0l-41.1,25.7c-8.3,5.1-18.7,5.1-27,0l-41.1-25.7
		c-2-1.2-3.6-3.1-4.5-5.2l-13.9-31.3c-9.9-22.1-15-46.1-14.9-70.4v-10.2c0-17.9,7.1-35.1,19.8-47.8c15-15.1,35.5-23.6,56.8-23.5
		H267.4z M189.2,37.8c2.2,9,13,28,13,28c-5.7,2.8-11.1,6.2-16.2,10C183.3,63.1,184.4,49.9,189.2,37.8z M89.4,153.9l0.5-0.5
		c11.1-11.2,26.2-17.4,42-17.4h20.4c-0.2,2.4,0.1,32.6,1,40c0,0-9.5,0.3-12,0.7l-6.1-12.3c-2-3.9-6.8-5.5-10.8-3.5
		c-3.9,2-5.5,6.7-3.5,10.6l5.5,11c-2.5,1.6-4.8,3.5-6.9,5.5l-9.8-9.8c-3.1-3.1-8.2-3.1-11.3,0c-3.1,3.1-3.1,8.2,0,11.3l0,0l12,12
		c-4.2,9.9-4.4,21-0.6,31l10.1,26.9l-21.3-14.2C71.2,227.2,63.8,190.3,82,163C84.1,159.7,86.6,156.7,89.4,153.9z"/>
	<path d="M177.8,123c-2,2.4-2.3,5.8-0.9,8.6l19.4,38.8c6.1,12.2,20.9,17.1,33.1,11c6.8-3.4,11.7-9.8,13.2-17.2l2.7-13.6
		c2-10.2-4.6-20.2-14.8-22.2c-1.2-0.2-2.5-0.4-3.7-0.4c-6.5,0-12.9-0.8-19.2-2.4l-21.6-5.4C182.9,119.5,179.7,120.6,177.8,123z
		 M203.7,141.2c7.5,1.9,15.3,2.8,23.1,2.8c1.6,0,2.9,1.3,2.9,2.9c0,0.2,0,0.4-0.1,0.6l-2.7,13.6c-0.9,4.7-5.5,7.8-10.2,6.8
		c-2.6-0.5-4.9-2.2-6.1-4.6L198.9,140L203.7,141.2z"/>
	<path d="M269.5,164.2c2.7,13.4,15.7,22,29.1,19.4c7.5-1.5,13.8-6.4,17.2-13.2l19.4-38.8c2-4,0.4-8.8-3.6-10.7
		c-1.7-0.9-3.7-1.1-5.5-0.6l-21.6,5.4c-6.3,1.6-12.7,2.4-19.2,2.4c-10.4,0-18.9,8.5-18.9,18.9c0,1.2,0.1,2.5,0.4,3.7L269.5,164.2z
		 M283,145.1c0.5-0.7,1.4-1.1,2.2-1.1c7.8,0,15.5-1,23.1-2.8l4.7-1.2l-11.6,23.2c-2.1,4.3-7.4,6-11.7,3.9c-2.4-1.2-4.1-3.4-4.6-6.1
		l-2.7-13.6C282.3,146.6,282.5,145.7,283,145.1z"/>
	<path class="st1" d="M240,195.1V192c0-4.4-3.6-8-8-8s-8,3.6-8,8v12.6c0,5.6,4.5,10.1,10.1,10.1c1.6,0,3.1-0.4,4.5-1.1l4-2l3.5,14.1
		c1.4,5.4,6.8,8.7,12.3,7.4c3.6-0.9,6.5-3.7,7.4-7.4l3.5-14.1l4,2c5,2.5,11.1,0.5,13.6-4.5c0.7-1.4,1.1-3,1.1-4.5V192
		c0-4.4-3.6-8-8-8s-8,3.6-8,8v3.1l-4.4-2.2c-4-2-8.8-0.4-10.7,3.6c-0.3,0.5-0.5,1.1-0.6,1.6l-0.2,1l-0.2-1c-1.1-4.3-5.4-6.9-9.7-5.8
		c-0.6,0.1-1.1,0.3-1.6,0.6L240,195.1z"/>
	<path class="st1" d="M310.7,228.4c2.5-3.7,1.5-8.6-2.1-11.1c-3.7-2.5-8.6-1.5-11.1,2.1c0,0-0.1,0.1-0.1,0.1l-5,7.4
		c-5.4,8.1-14.5,13-24.3,13h-24.2c-9.8,0-18.9-4.9-24.3-13l-5-7.4c-2.4-3.7-7.4-4.7-11.1-2.3c-3.7,2.4-4.7,7.4-2.3,11.1
		c0,0,0.1,0.1,0.1,0.1c0,0,5.6,8.4,6,8.9l-5,5c-3.1,3.1-3.1,8.2,0,11.3c3.1,3.1,8.2,3.1,11.3,0l5.2-5.2c7.4,4.9,16.1,7.6,25,7.6
		h24.2c8.9,0,17.6-2.6,25-7.6l5.2,5.2c3.1,3.1,8.2,3.1,11.3,0c3.1-3.1,3.1-8.2,0-11.3l-5-5C305,236.9,310.7,228.4,310.7,228.4z"/>
	<path class="st1" d="M168,360c-4.4,0-8,3.6-8,8s3.6,8,8,8c35.3,0,64,28.7,64,64v24c0,4.4,3.6,8,8,8s8-3.6,8-8v-24
		C247.9,395.8,212.2,360.1,168,360z"/>
	<path class="st1" d="M264,464c0,4.4,3.6,8,8,8s8-3.6,8-8v-24c0-35.3,28.7-64,64-64c4.4,0,8-3.6,8-8s-3.6-8-8-8
		c-44.2,0.1-79.9,35.8-80,80V464z"/>
</g>
</svg>
