<?xml version="1.0" ?><svg viewBox="0 0 512 512" xmlns="http://www.w3.org/2000/svg"><g id="solid"><path d="M421.657,29.657a8,8,0,0,0-7.226-13.5L360.21,27A40.173,40.173,0,0,0,328,66.289a23.953,23.953,0,0,1-15.129,22.347L294.4,96.024a95.9,95.9,0,0,0-76.8,0l-18.471-7.388A23.953,23.953,0,0,1,184,66.289,40.173,40.173,0,0,0,151.79,27L97.569,16.155a8,8,0,0,0-7.226,13.5l32.793,32.792A16.5,16.5,0,0,1,128,74.191a16.684,16.684,0,0,1-1.753,7.426,38.012,38.012,0,0,0,16.98,50.941l25.029,12.514a95.007,95.007,0,0,0-3.791,9.977A43.479,43.479,0,0,0,148.447,152H104a8,8,0,0,0-3.578,15.155l21.068,10.534A11.714,11.714,0,0,1,128,188.223,27.808,27.808,0,0,0,155.777,216s22.315-.214,23.249-.6A31.556,31.556,0,0,1,184,232.478v30.18a48.734,48.734,0,0,0,27.088,43.83l5.425,2.713c-.326.872-.513,34.8-.513,34.8h-7.362A104.756,104.756,0,0,0,104,448.639V480a8,8,0,0,0,8,8H400a8,8,0,0,0,8-8V448.639A104.756,104.756,0,0,0,303.362,344H296s-.187-33.927-.513-34.8l5.425-2.713A48.734,48.734,0,0,0,328,262.658v-30.18a31.556,31.556,0,0,1,4.974-17.075c.934.383,23.249.6,23.249.6A27.808,27.808,0,0,0,384,188.223a11.714,11.714,0,0,1,6.51-10.534l21.068-10.534A8,8,0,0,0,408,152H363.553a43.483,43.483,0,0,0-16.018,3.049,95.007,95.007,0,0,0-3.791-9.977l25.029-12.514a38.012,38.012,0,0,0,16.98-50.941A16.684,16.684,0,0,1,384,74.191a16.5,16.5,0,0,1,4.863-11.741ZM144,188.223A27.612,27.612,0,0,0,135.289,168h13.158a27.443,27.443,0,0,1,12.439,2.98A96.435,96.435,0,0,0,160,184a27.112,27.112,0,0,0,5.176,16h-9.4A11.79,11.79,0,0,1,144,188.223ZM392,448.639V472H120V448.639A88.739,88.739,0,0,1,208.638,360h94.724A88.739,88.739,0,0,1,392,448.639ZM280,344H232V316.944s18.337,7.628,24,7.628,24-7.628,24-7.628Zm45.994-145.309A47.472,47.472,0,0,0,312,232.478v30.18a32.825,32.825,0,0,1-18.244,29.52L265.333,306.39a20.972,20.972,0,0,1-18.666,0l-28.423-14.212A32.825,32.825,0,0,1,200,262.658v-30.18a47.469,47.469,0,0,0-14-33.787L179.313,192A11.243,11.243,0,0,1,176,184a80,80,0,0,1,160,0,11.243,11.243,0,0,1-3.313,8ZM363.553,168h13.158A27.614,27.614,0,0,0,368,188.223,11.79,11.79,0,0,1,356.223,200h-9.4A27.112,27.112,0,0,0,352,184a96.435,96.435,0,0,0-.886-13.02A27.443,27.443,0,0,1,363.553,168Z"/><path d="M240,200a8,8,0,0,0,8-8V175.574A23.6,23.6,0,0,0,224.425,152H208a8,8,0,0,0-8,8v12.894A27.137,27.137,0,0,0,227.106,200Z"/><path d="M304,152H287.575A23.6,23.6,0,0,0,264,175.574V192a8,8,0,0,0,8,8h12.894A27.137,27.137,0,0,0,312,172.894V160A8,8,0,0,0,304,152Z"/><path d="M250.343,237.657a8,8,0,1,0,11.314-11.314,7.686,7.686,0,0,1-1.442-8.884l2.94-5.881a8,8,0,1,0-14.31-7.156L245.9,210.3A23.666,23.666,0,0,0,250.343,237.657Z"/><path d="M292.206,241.194a8,8,0,0,0-7.785-.349l-1.687.844a59.775,59.775,0,0,1-53.466,0l-1.689-.844A8,8,0,0,0,216,248v16a8,8,0,0,0,16,0v-3.909a75.631,75.631,0,0,0,48,0V264a8,8,0,0,0,16,0V248A8,8,0,0,0,292.206,241.194Z"/><path d="M246.283,442.168A66.76,66.76,0,0,0,184,400a8,8,0,0,0,0,16,50.838,50.838,0,0,1,47.428,32.109l1.144,2.862a8,8,0,0,0,14.856-5.942Z"/><path d="M265.717,442.168l-1.145,2.861a8,8,0,1,0,14.856,5.942l1.144-2.862A50.838,50.838,0,0,1,328,416a8,8,0,0,0,0-16A66.76,66.76,0,0,0,265.717,442.168Z"/></g></svg>