<?xml version="1.0" encoding="utf-8"?>
<!-- Generator: Adobe Illustrator 25.4.1, SVG Export Plug-In . SVG Version: 6.00 Build 0)  -->
<svg version="1.1" id="Layer_1" xmlns="http://www.w3.org/2000/svg" xmlns:xlink="http://www.w3.org/1999/xlink" x="0px" y="0px"
	 viewBox="0 0 64 64" style="enable-background:new 0 0 64 64;" xml:space="preserve">
<style type="text/css">
	.st0{fill:#FFFFFF;}
	.st1{fill:#FF0000;}
</style>
<path class="st0" d="M51,62c0-10.5-8.5-19-19-19s-19,8.5-19,19c0,0.6,0.4,1,1,1h36C50.6,63,51,62.6,51,62z M21.4,61H15
	c0.2-3,1.2-5.9,2.8-8.4c1.5,0.5,3,0.9,4.6,1.2C21.8,56.2,21.5,58.6,21.4,61z M19.1,50.9c1.9-2.2,4.3-3.9,7.1-4.9
	c-1.4,1.7-2.5,3.7-3.2,5.9C21.7,51.7,20.4,51.3,19.1,50.9z M31,61h-7.6c0.1-2.3,0.4-4.6,1-6.8c2.2,0.3,4.4,0.5,6.6,0.5V61z M31,52.7
	c-2,0-4-0.2-6-0.4c1.4-3.8,3.5-6.5,6-7.1V52.7z M33,45.1c2.4,0.6,4.6,3.3,6,7.1c-2,0.3-4,0.4-6,0.4V45.1z M33,61v-6.3
	c2.2,0,4.4-0.2,6.6-0.5c0.6,2.2,0.9,4.5,1,6.8H33z M37.8,46c2.7,1,5.2,2.7,7.1,4.9c-1.3,0.4-2.6,0.7-3.9,1
	C40.3,49.8,39.2,47.8,37.8,46z M42.6,61c-0.1-2.4-0.4-4.8-1-7.2c1.5-0.3,3.1-0.7,4.5-1.2c1.7,2.5,2.7,5.4,2.8,8.4H42.6z"/>
<rect x="1" y="61" class="st0" width="2" height="2"/>
<rect x="4" y="54" class="st0" width="2" height="2"/>
<rect x="8" y="59" class="st0" width="2" height="2"/>
<rect x="54" y="59" class="st0" width="2" height="2"/>
<rect x="61" y="61" class="st0" width="2" height="2"/>
<rect x="58" y="54" class="st0" width="2" height="2"/>
<path class="st0" d="M24,33v8h2v-8c0-1.7,1.3-3,3-3h6c1.7,0,3,1.3,3,3v8h2v-8c0-2.8-2.2-5-5-5h-0.2c1.9-1.5,2.3-4.4,0.7-6.3
	s-4.4-2.3-6.3-0.7s-2.3,4.4-0.7,6.3c0.2,0.3,0.5,0.5,0.7,0.7H29C26.2,28,24,30.2,24,33z M32,22c1.4,0,2.5,1.1,2.5,2.5S33.4,27,32,27
	c-1.4,0-2.5-1.1-2.5-2.5S30.6,22,32,22z"/>
<path class="st1" d="M59.7,11.3c-0.2-0.3-0.6-0.4-0.9-0.3l-15.4,2.9L32.8,1.4c-0.4-0.4-1-0.5-1.5-0.1c0,0,0,0-0.1,0.1L20.6,13.9
	L5.2,11c-0.5-0.1-1.1,0.3-1.2,0.8c0,0.1,0,0.3,0,0.5L8.7,29H2c-0.6,0-1,0.4-1,1c0,0.1,0,0.2,0.1,0.3l8.1,23l1.9-0.7L3.4,31H10
	c0.6,0,1-0.4,1-1c0-0.1,0-0.2,0-0.3L6.4,13.3L20.8,16c0.4,0.1,0.7-0.1,0.9-0.3L32,3.5l10.2,12.1c0.2,0.3,0.6,0.4,0.9,0.3l14.4-2.7
	L53,29.7c-0.1,0.5,0.2,1.1,0.7,1.2c0.1,0,0.2,0,0.3,0h6.6L53,52.7l1.9,0.7l8-23c0.2-0.5-0.1-1.1-0.6-1.3C62.2,29,62.1,29,62,29h-6.7
	L60,12.3C60.1,11.9,60,11.6,59.7,11.3z"/>
<path class="st1" d="M56,34.3c0.2-0.5-0.1-1.1-0.7-1.2c-0.1,0-0.2,0-0.3,0h-5.7L53,18.2c0.1-0.3,0-0.7-0.2-0.9
	c-0.2-0.3-0.6-0.4-0.9-0.3l-10.4,1.9L32.8,8.4c-0.4-0.4-1-0.5-1.5-0.1c0,0-0.1,0.1-0.1,0.1l-8.6,10.5L12.2,17
	c-0.3-0.1-0.7,0.1-0.9,0.3c-0.2,0.2-0.3,0.6-0.2,0.9L14.7,33H9c-0.6,0-1,0.4-1,1c0,0.1,0,0.2,0,0.3l4.6,15l1.9-0.6L10.4,35H16
	c0.6,0,1-0.4,1-1c0-0.1,0-0.2,0-0.2l-3.6-14.5l9.5,1.7c0.4,0.1,0.7-0.1,1-0.4L32,10.6l8.2,10.1c0.2,0.3,0.6,0.4,1,0.4l9.5-1.7
	L47,33.8c-0.1,0.5,0.2,1.1,0.7,1.2c0.1,0,0.2,0,0.2,0h5.6l-4.2,13.7l1.9,0.6L56,34.3z"/>
</svg>
