<?xml version="1.0" encoding="utf-8"?>
<!-- Generator: Adobe Illustrator 25.4.1, SVG Export Plug-In . SVG Version: 6.00 Build 0)  -->
<svg version="1.1" id="Layer_1" xmlns="http://www.w3.org/2000/svg" xmlns:xlink="http://www.w3.org/1999/xlink" x="0px" y="0px"
	 viewBox="0 0 64 64" style="enable-background:new 0 0 64 64;" xml:space="preserve">
<style type="text/css">
	.st0{fill:#FFFFFF;}
</style>
<path class="st0" d="M61,41h-4c-0.5,0-1,0.4-1,0.9c-2.1-4.5-6.6-9.4-16-9.9c-12.9-0.8-17.8,3.5-19.3,5.6c-0.7-0.4-1.4-0.6-2.1-0.6
	H15c-0.9-1.3-2.4-2-4-2c-0.6,0-1,0.4-1,1v5.4c0,0.7,0.2,1.4,0.6,2c-0.9,0.2-1.8,0.5-2.6,0.9V27c0-0.6-0.4-1-1-1H3c-0.6,0-1,0.4-1,1
	v34c0,0.6,0.4,1,1,1h4c0.6,0,1-0.4,1-1v-6h48v6c0,0.6,0.4,1,1,1h4c0.6,0,1-0.4,1-1V42C62,41.4,61.6,41,61,41z M39.9,34
	c13.5,0.8,15.7,11.7,16,15H33c-0.2-8-2.4-12.2-3.9-14.2C32.6,34,36.3,33.7,39.9,34z M27,35.5c1,1.1,3.7,4.9,3.9,13.5h-5v-2
	c-0.1-3.1-1.4-6.1-3.7-8.2C23.6,37.3,25.2,36.2,27,35.5z M18.6,39c0.6,0,1.3,0.3,1.7,0.7c0,0,0,0,0.1,0c0,0,0,0,0.1,0.1
	c1.3,1.1,2.4,2.5,3,4.2c-1.8-0.6-3.7-0.9-5.6-1H16v-3c0-0.3,0-0.7-0.1-1H18.6z M12,37.2c1.2,0.4,2,1.6,2,2.8v3h-0.4
	c-0.9,0-1.6-0.7-1.6-1.6V37.2z M13.3,45h4.5c2.1,0,4.2,0.5,6.1,1.3c0,0.2,0,0.5,0,0.7v1H8v-1.4C9.6,45.5,11.5,45,13.3,45z M6,60H4
	V28h2V60z M8,53v-3h16.3c0.4,0.6,1,1,1.7,1h29.9c0,0,0,0,0.1,0v2H8z M60,60h-2V43h2V60z"/>
<path class="st0" d="M28.3,25.1c2.2,0,4-1.8,4-4s-1.8-4-4-4s-4,1.8-4,4S26.1,25.1,28.3,25.1z M28.3,19.1c1.1,0,2,0.9,2,2s-0.9,2-2,2
	s-2-0.9-2-2S27.2,19.1,28.3,19.1z"/>
<path class="st0" d="M16.7,28.8c0,1.7,1.3,3,3,3s3-1.3,3-3s-1.3-3-3-3S16.7,27.2,16.7,28.8z M20.7,28.8c0,0.6-0.4,1-1,1s-1-0.4-1-1
	s0.4-1,1-1S20.7,28.3,20.7,28.8z"/>
<g>
	<g>
		<g>
			<defs>
				<rect id="SVGID_1_" x="28.3" y="9.1" width="24.8" height="14"/>
			</defs>
			<clipPath id="SVGID_00000086678209173351761470000007766825389867529886_">
				<use xlink:href="#SVGID_1_"  style="overflow:visible;"/>
			</clipPath>
		</g>
	</g>
</g>
<g>
	<circle class="st0" cx="47" cy="12.2" r="11"/>
	<g>
		<g>
			<g>
				<path d="M48.7,12.4c0.2-0.1,0.5-0.2,0.7-0.2c0,0.1,0,0.1-0.1,0.1c0.1,0,0.2,0,0.3,0c0,0,0.1,0,0.1,0c0.1,0.1,0.3,0.3,0.4,0.4
					c0,0,0,0.1,0,0.2c0,0.2-0.1,0.4-0.2,0.6c0,0.1-0.1,0.2-0.2,0.3c0,0,0,0,0,0c0.2,0.1,0.2,0.3,0.2,0.5c0,0.2-0.1,0.5-0.2,0.7
					c-0.1,0.2-0.1,0.5-0.2,0.7c0,0,0,0,0,0c0,0,0,0,0,0c0-0.4,0-0.8,0-1.2c0-0.1,0-0.3,0-0.4c0-0.1-0.1-0.1-0.2-0.1
					c0,0-0.1,0.1-0.1,0.1c0,0.2,0,0.4,0,0.6c0,0.1,0.1,0.1,0.2,0.2c-0.3,0-0.6,0-0.9,0c0,0,0,0,0,0c0.3-0.1,0.2-0.3,0.3-0.5
					c0,0,0,0,0-0.1c0-0.3,0-0.6,0-0.9c0-0.3,0-0.6,0-0.8C48.9,12.5,48.9,12.5,48.7,12.4C48.7,12.4,48.7,12.4,48.7,12.4
					C48.7,12.4,48.7,12.4,48.7,12.4z M49.5,13.5c0.4-0.3,0.4-0.6,0.1-0.8c0,0.1,0,0.2,0,0.3c0-0.1-0.1-0.1-0.1-0.2
					c0,0-0.1-0.1-0.1-0.1c0,0-0.1,0.1-0.1,0.1c0,0.2,0,0.3,0,0.5c0,0.1,0,0.2,0,0.3c0,0,0,0,0,0c0-0.1,0.1-0.1,0.1-0.2
					C49.5,13.5,49.5,13.5,49.5,13.5z"/>
				<path d="M48.7,12.1C48.7,12.1,48.7,12.1,48.7,12.1c-0.2,0.2-0.3,0.3-0.3,0.5c0,0.5,0,1-0.1,1.5c0,0.2-0.1,0.3-0.1,0.5
					c0,0,0,0-0.1-0.1c0,0.1-0.1,0.2-0.1,0.3c0,0,0,0-0.1,0c0-0.3-0.1-0.5-0.1-0.8c0,0-0.1,0-0.1,0.1c0,0,0-0.1-0.1-0.1
					c-0.1,0.1-0.1,0.2-0.2,0.3c0-0.1,0-0.2,0-0.3c-0.1,0.2-0.1,0.5-0.2,0.7c0-0.1,0-0.2,0-0.3c-0.1,0.2-0.2,0.3-0.4,0.5
					c0-0.1,0-0.2,0-0.2c0-0.1,0-0.2-0.2-0.2c0.3-0.2,0.3-0.5,0.4-0.8c0.1-0.2,0.1-0.4,0.2-0.6c0-0.1,0-0.2,0.1-0.2
					c0-0.1,0.1-0.3,0.2-0.4c0.1-0.1,0-0.2-0.1-0.3c0,0-0.1,0-0.1-0.1c0,0,0,0,0,0C47.8,12.1,48.3,12.1,48.7,12.1z M48.1,12.5
					C48.1,12.5,48,12.5,48.1,12.5c-0.2,0.4-0.3,0.7-0.4,1.1c0.2,0,0.3,0,0.3-0.2c0-0.1,0-0.2,0-0.3C48.1,12.9,48.1,12.7,48.1,12.5z"
					/>
				<path d="M46.7,11.9c-0.1,0.3-0.1,0.6-0.1,0.9c0,0,0,0,0,0c0-0.1-0.1-0.2-0.1-0.3c0,0,0,0.1-0.1,0.1c0-0.1-0.1-0.2-0.1-0.3
					c0,0,0,0.1-0.1,0.1c0,0-0.1-0.1-0.1-0.1c0,0.3,0,0.6,0,0.8c0.2,0,0.2-0.3,0.3-0.3c0,0.3,0,0.6,0.1,1c0,0,0,0,0,0
					c0-0.1-0.1-0.1-0.1-0.2c0,0-0.1-0.1-0.1-0.1c-0.1,0.2-0.1,0.6,0.1,0.8c0.1,0,0.2-0.1,0.2-0.3c0-0.1,0-0.2,0.1-0.3
					c0.1,0.2,0.2,0.7,0.1,1.1c-0.1-0.1-0.3-0.1-0.4-0.2c-0.2-0.1-0.2-0.1-0.2,0.1c0,0,0,0,0,0.1c-0.1-0.2-0.3-0.1-0.6-0.1
					c0-0.1,0-0.1,0.1-0.1c0.1-0.1,0.1-0.2,0.1-0.3c0-0.5,0-1.1-0.1-1.6c0-0.2-0.1-0.4-0.3-0.5C45.7,12,46.2,12,46.7,11.9z"/>
				<path d="M44.3,15.3c0-0.1,0-0.2-0.1-0.3c-0.2-0.6-0.3-1.3-0.3-2c0-0.2,0-0.4-0.2-0.5c0,0,0,0,0-0.1c0.5-0.1,0.9-0.2,1.4-0.3
					c0,0.3,0,0.5-0.1,0.8c0,0-0.1-0.1-0.1-0.1c-0.1-0.1-0.2-0.2-0.3-0.1c-0.1,0.1-0.2,0.2-0.2,0.3c0,0.1,0,0.3,0,0.4
					c0.2,0,0.2-0.3,0.3-0.4c0,0.3,0,0.6,0.1,0.9c0,0,0,0,0,0c0-0.1-0.1-0.1-0.1-0.2c0,0-0.1,0-0.1-0.1c0,0,0,0.1,0,0.1
					c0,0.2,0,0.3,0,0.5C44.5,14.7,44.5,15,44.3,15.3z"/>
			</g>
		</g>
		<g>
			<g>
				<g>
					<path d="M56.4,15.3C56.4,15.3,56.4,15.3,56.4,15.3c0.2-1.2,0.2-2.4,0-3.5c-0.1-0.5-0.2-1-0.7-1.4c0,0-0.1-0.1-0.1-0.1
						c-0.2-0.2-0.5-0.5-0.8-0.6c-0.1-0.1-0.3-0.1-0.3-0.3c-0.1,0-0.1,0-0.2,0c-0.1,0-0.2,0-0.3,0c0,0,0,0,0,0
						c0.1,0.1,0.1,0.2,0.1,0.3c0.1,0.8,0.3,1.6,0.4,2.4c0,0,0,0.1,0,0.1c-0.2,0.3-0.4,0.5-0.6,0.8c-0.1,0.1-0.1,0.1,0,0.2
						c0.1,0.3,0.3,0.5,0.3,0.8c0.1,0.4,0.1,0.8,0.2,1.2c0,0,0,0.1,0,0.1c-0.2,0.3-0.5,0.7-0.8,0.9c-0.4,0.4-0.8,0.7-1.3,0.9
						c-0.2,0.1-0.4,0.2-0.6,0.3c0,0,0,0,0,0c0,0,0.1,0,0.1-0.1c0.9-0.6,1.7-1.3,2.3-2.1c0.1-0.1,0.1-0.1,0-0.2
						c-0.1-0.3-0.2-0.5-0.2-0.8c0-0.3-0.2-0.6-0.3-0.9c-0.3,0.4-0.6,0.7-1,0.9c0.3-0.3,0.7-0.5,0.9-0.9c0-0.1,0-0.1,0-0.2
						c-0.1-0.3-0.2-0.6-0.3-0.8c-0.1-0.2-0.2-0.4-0.3-0.6c0,0,0-0.1-0.1-0.1c-0.2-0.1-0.3-0.3-0.5-0.4c-0.1-0.1-0.2-0.2-0.3-0.3
						c-0.1-0.2-0.3-0.2-0.5-0.2c-0.2,0-0.4,0-0.5-0.1c-0.2-0.1-0.3-0.1-0.5-0.1c-0.3,0.1-0.6,0.2-0.9,0.4c-0.2,0.1-0.3,0.3-0.3,0.5
						c0,0,0.9,0.5,0.9,0.5c-0.1,0-1.2-0.2-1.3-0.2c-0.1,0-0.1,0-0.2,0c-0.4-0.1-1.7-0.1-1.9-0.1c0.1-0.1,1.5-0.2,1.6-0.4
						c0-0.3,0-0.6,0.1-0.8C48.8,9.8,49,9.4,49.1,9c0,0,0,0,0-0.1c-0.1,0-0.2,0.2-0.4,0c0.1,0.1,0,0.2,0,0.3
						c-0.1,0.2-0.2,0.3-0.3,0.5c0,0.1-0.1,0.2-0.1,0.3c0,0.2,0,0.4,0,0.6c0,0.1,0,0.2,0,0.3c0,0.1-0.1,0.2-0.1,0.4
						c0,0.1-0.1,0.1-0.2,0.1c-0.1,0-0.2,0-0.3,0c-0.2,0-0.2,0-0.2-0.2c0,0,0-0.1,0-0.1c0-0.2,0.1-0.3,0.1-0.5
						c0.1-0.3,0.1-0.6,0.2-0.8c0.1-0.2,0.2-0.4,0.3-0.6c0.1-0.1,0.1-0.2,0.1-0.4c0-0.1-0.1-0.1-0.2-0.2c0,0,0,0,0,0
						c0-0.1,0.1-0.1,0.1-0.2c0-0.2,0.1-0.2,0.3-0.1c0,0,0,0,0,0c0,0.2,0.2,0.2,0.2,0.3c0.1-0.1,0.1-0.1,0.2-0.1
						c0.2-0.1,0.3-0.3,0.5-0.4c0.1-0.1,0.2-0.1,0.2-0.2c0.1-0.1,0.2-0.1,0.3-0.1c0.1-0.1,0.2-0.2,0.3-0.2c0.2-0.1,0.5-0.3,0.7-0.4
						c0.2-0.1,0.3-0.2,0.5-0.1c0.1,0.1,0.3,0.1,0.4,0.2c0.2,0.1,0.3,0.2,0.5,0.2c0.3,0.1,0.6,0.2,0.9,0.4c0.2,0.1,0.4,0.2,0.5,0.4
						c0.1,0.2,0.3,0.5,0.4,0.7c0,0.1,0.1,0.1,0.1,0.1c0.1,0,0.2,0,0.3,0c0.1,0,0.3,0.1,0.3,0.2c0,0.1,0.1,0.2,0.2,0.3
						c0.4,0.4,0.8,0.8,1.2,1.2c0,0,0,0,0.1,0.1c0.3,0.5,0.4,1.1,0.4,1.7c0,0.7,0,1.4-0.1,2.1C56.6,14.8,56.5,15,56.4,15.3
						C56.5,15.3,56.5,15.3,56.4,15.3z M50.7,10.3c0.3-0.1,0.5-0.1,0.8-0.1c0.1,0,0.2,0.1,0.4,0.1c0.2,0.1,0.5,0.2,0.7,0.3
						c0.3,0.1,0.5,0.3,0.7,0.5c0,0,0,0,0.1,0c0,0,0.1,0,0.1,0c0.1,0.1,0.1,0.1,0,0.3c-0.1,0.1-0.1,0.2,0,0.3
						c0.2,0.3,0.3,0.6,0.4,0.9c0,0.2,0.1,0.3,0.2,0.5c0.1-0.2,0.2-0.3,0.3-0.4c0.1-0.1,0.1-0.2,0.2-0.3c0,0,0-0.1,0-0.1
						c-0.1-0.4-0.2-0.9-0.3-1.3c-0.1-0.3-0.1-0.6-0.2-0.9c0,0,0-0.1-0.1-0.1c-0.1-0.1-0.3-0.2-0.4-0.3c0,0-0.1,0-0.2,0
						c-0.1,0-0.2,0.1-0.3,0.1c-0.3,0.2-0.5,0.2-0.8,0.2c-0.1,0-0.2,0-0.3,0c-0.2,0-0.4,0.1-0.7,0c-0.1,0-0.2,0-0.2,0
						c-0.1,0-0.1,0-0.2,0.1c-0.1,0.2-0.2,0.3-0.4,0.4c-0.1,0-0.1,0.1-0.2,0.1c0,0,0,0,0,0C50.4,10.4,50.6,10.4,50.7,10.3z M50.2,8.4
						c0.2-0.1,0.4-0.1,0.6-0.2c0,0.1,0,0.1,0,0.1c0,0,0,0,0,0c0.2-0.1,0.5-0.1,0.7-0.2c0.1,0,0.2-0.1,0.3-0.2c0,0,0-0.1,0-0.1
						c0,0,0.1,0.1,0.1,0.1c0,0,0-0.1,0-0.1c0,0,0.1,0.1,0.1,0.1c0,0,0.1,0.1,0.2,0.1c0,0,0,0,0.1,0c0.3,0.3,0.6,0.6,0.9,0.8
						c0,0,0,0,0.1,0c0.2,0,0.4,0,0.6,0c-0.3-0.3-0.4-0.6-0.8-0.8c-0.6-0.2-1.1-0.5-1.7-0.7c-0.2-0.1-0.4-0.1-0.6,0
						c-0.1,0.1-0.2,0.2-0.4,0.3C50.3,8,50.1,8.1,50,8.3c-0.1,0-0.1,0.1-0.2,0.1C49.9,8.4,50.1,8.5,50.2,8.4z M52.3,8.7
						c-0.1,0-0.1-0.1-0.1-0.2c0,0,0,0,0-0.1c-0.1,0.1-0.2,0.2-0.3,0.2c0,0-0.1,0.1-0.1,0.1c-0.3,0-0.7,0.1-1,0.1
						c-0.1,0-0.2,0.1-0.3,0.1c0,0.1,0.1,0.1,0.1,0.2c0,0.1,0.1,0.1,0.2,0c0.1-0.1,0.2-0.1,0.4-0.2c0,0,0,0,0,0C51,9.1,51,9.2,51,9.3
						c0.6-0.1,1.2-0.2,1.8-0.3C52.6,8.9,52.5,8.8,52.3,8.7z M49.8,9.2c-0.2,0.3-0.4,0.6-0.5,1c-0.1,0.2-0.1,0.3-0.2,0.5
						c0,0,0,0.1,0,0.1c0,0,0,0,0,0c0.1-0.2,0.3-0.4,0.4-0.6c0-0.1,0.1-0.1,0.1-0.2c0.1-0.1,0.2-0.2,0.3-0.3c0.2-0.2,0.2-0.4,0.3-0.7
						C50,9,49.9,9.1,49.8,9.2z"/>
				</g>
			</g>
		</g>
		<g>
			<g>
				<g>
					<path d="M37.6,15.4c-0.1-0.3-0.1-0.6-0.2-0.9c-0.1-0.7-0.2-1.4-0.1-2.1c0-0.6,0.2-1.2,0.4-1.7c0,0,0,0,0.1-0.1
						c0.4-0.4,0.8-0.8,1.2-1.2c0.1-0.1,0.2-0.2,0.2-0.3c0-0.1,0.2-0.2,0.3-0.2c0.1,0,0.2,0,0.3,0c0.1,0,0.1,0,0.1-0.1
						c0.1-0.2,0.3-0.5,0.4-0.7c0.1-0.2,0.3-0.3,0.5-0.4c0.3-0.1,0.6-0.2,0.9-0.4c0.2-0.1,0.3-0.2,0.5-0.2c0.1-0.1,0.3-0.1,0.4-0.2
						c0.2-0.1,0.4,0,0.5,0.1c0.2,0.2,0.5,0.3,0.7,0.4c0.1,0.1,0.2,0.2,0.3,0.2c0.1,0.1,0.2,0.1,0.3,0.1c0.1,0,0.2,0.1,0.2,0.2
						c0.2,0.1,0.3,0.3,0.5,0.4c0.1,0,0.1,0.1,0.2,0.1c0.1-0.1,0.2-0.1,0.2-0.3c0,0,0,0,0,0c0.2-0.1,0.2-0.1,0.3,0.1
						c0,0.1,0,0.1,0.1,0.2c0,0,0,0,0,0c-0.1,0.1-0.2,0.1-0.2,0.2c0,0.1,0.1,0.2,0.1,0.4c0.1,0.2,0.2,0.4,0.3,0.6
						c0.1,0.3,0.1,0.6,0.2,0.8c0,0.2,0.1,0.3,0.1,0.5c0,0,0,0.1,0,0.1c0,0.2,0,0.2-0.2,0.2c-0.1,0-0.2,0-0.3,0c-0.1,0-0.1,0-0.2-0.1
						c0-0.1-0.1-0.2-0.1-0.4c0-0.1,0-0.2,0-0.3c0-0.2,0-0.4,0-0.6c0-0.1-0.1-0.2-0.1-0.3c-0.1-0.2-0.2-0.3-0.3-0.5
						c-0.1-0.1-0.1-0.2,0-0.3c-0.2,0.2-0.3,0-0.4,0c0,0,0,0,0,0.1c0.1,0.4,0.3,0.8,0.4,1.3c0.1,0.3,0.1,0.5,0.1,0.8
						c0,0.1,1.4,0.3,1.6,0.4c-0.1,0.1-1.5,0.1-1.9,0.1c-0.1,0-0.1,0-0.2,0c-0.1,0-1.2,0.3-1.3,0.2c0,0,0.9-0.4,0.9-0.5
						c0-0.2-0.1-0.3-0.3-0.5c-0.3-0.2-0.6-0.4-0.9-0.4c-0.2,0-0.3,0-0.5,0.1c-0.2,0.1-0.3,0.1-0.5,0.1c-0.2,0-0.4,0-0.5,0.2
						c-0.1,0.1-0.2,0.2-0.3,0.3c-0.2,0.1-0.4,0.3-0.5,0.4c0,0,0,0.1-0.1,0.1c-0.1,0.2-0.2,0.4-0.3,0.6c-0.1,0.3-0.2,0.6-0.3,0.8
						c0,0.1,0,0.1,0,0.2c0.2,0.4,0.6,0.6,0.9,0.9c-0.4-0.2-0.7-0.5-1-0.9c-0.1,0.3-0.3,0.6-0.3,0.9c0,0.3-0.1,0.6-0.2,0.8
						c0,0.1,0,0.1,0,0.2c0.6,0.9,1.4,1.5,2.3,2.1c0,0,0.1,0,0.1,0.1c0,0,0,0,0,0c-0.2-0.1-0.4-0.2-0.6-0.3c-0.5-0.3-0.9-0.6-1.3-0.9
						c-0.3-0.3-0.5-0.6-0.8-0.9c0,0,0-0.1,0-0.1c0.2-0.4,0.2-0.8,0.2-1.2c0-0.3,0.2-0.5,0.3-0.8c0-0.1,0-0.1,0-0.2
						c-0.2-0.3-0.4-0.5-0.6-0.8c0,0,0-0.1,0-0.1c0.1-0.8,0.3-1.6,0.4-2.4c0-0.1,0-0.2,0.1-0.3c0,0,0,0,0,0c-0.1,0-0.2,0-0.3,0
						c-0.1,0-0.1,0-0.2,0c0,0.1-0.1,0.2-0.3,0.3c-0.3,0.1-0.5,0.4-0.8,0.6c0,0-0.1,0.1-0.1,0.1c-0.5,0.3-0.6,0.8-0.7,1.4
						C37.3,13,37.4,14.1,37.6,15.4C37.6,15.3,37.6,15.3,37.6,15.4C37.6,15.3,37.6,15.3,37.6,15.4z M43.8,10.4
						C43.8,10.4,43.8,10.4,43.8,10.4c0-0.1-0.1-0.1-0.1-0.2c-0.2-0.1-0.3-0.2-0.4-0.4c0-0.1-0.1-0.1-0.2-0.1c-0.1,0-0.2,0-0.2,0
						c-0.2,0-0.4,0-0.7,0c-0.1,0-0.2,0-0.3,0c-0.3,0-0.6,0-0.8-0.2c-0.1-0.1-0.2-0.1-0.3-0.1c-0.1,0-0.1,0-0.2,0
						c-0.1,0.1-0.3,0.2-0.4,0.3c0,0-0.1,0.1-0.1,0.1c-0.1,0.3-0.1,0.6-0.2,0.9c-0.1,0.4-0.2,0.9-0.3,1.3c0,0,0,0.1,0,0.1
						c0.1,0.1,0.1,0.2,0.2,0.3c0.1,0.1,0.2,0.3,0.3,0.4c0.1-0.2,0.1-0.3,0.2-0.5c0.1-0.3,0.2-0.6,0.4-0.9c0.1-0.1,0.1-0.2,0-0.3
						c-0.1-0.1-0.1-0.2,0-0.3c0,0,0.1,0,0.1,0c0,0,0,0,0.1,0c0.2-0.2,0.4-0.4,0.7-0.5c0.2-0.1,0.5-0.2,0.7-0.3
						c0.1-0.1,0.2-0.1,0.4-0.1c0.3,0,0.5,0,0.8,0.1C43.5,10.4,43.6,10.4,43.8,10.4z M44.2,8.4c-0.1-0.1-0.1-0.1-0.2-0.1
						c-0.2-0.1-0.3-0.3-0.5-0.4c-0.1-0.1-0.2-0.2-0.4-0.3c-0.2-0.1-0.4-0.1-0.6,0c-0.6,0.2-1.1,0.5-1.7,0.7
						c-0.4,0.1-0.6,0.5-0.8,0.8c0.2,0,0.4,0,0.6,0c0,0,0,0,0.1,0c0.3-0.3,0.6-0.5,0.9-0.8c0,0,0,0,0.1,0c0.1,0,0.1,0,0.2-0.1
						c0,0,0.1-0.1,0.1-0.1c0,0,0,0.1,0,0.1c0.1,0,0.1-0.1,0.1-0.1c0,0,0,0.1,0,0.1c0.1,0.1,0.2,0.2,0.3,0.2c0.2,0.1,0.5,0.1,0.7,0.2
						c0,0,0,0,0,0c0,0,0-0.1,0-0.1c0.2,0.1,0.4,0.1,0.6,0.2C44,8.5,44.1,8.4,44.2,8.4z M41.2,9c0.6,0.1,1.2,0.2,1.8,0.3
						c0-0.1,0-0.2-0.1-0.3c0,0,0,0,0,0c0.1,0.1,0.3,0.1,0.4,0.2c0.1,0.1,0.1,0,0.2,0c0-0.1,0.1-0.1,0.1-0.2c-0.1,0-0.2-0.1-0.3-0.1
						c-0.3-0.1-0.7-0.1-1-0.1c-0.1,0-0.1,0-0.1-0.1c-0.1-0.1-0.2-0.1-0.3-0.2c0,0,0,0,0,0.1c0,0.1-0.1,0.1-0.1,0.2
						C41.6,8.8,41.4,8.9,41.2,9z M43.8,9c0,0.2,0.1,0.5,0.3,0.7c0.1,0.1,0.2,0.2,0.3,0.3c0,0.1,0.1,0.1,0.1,0.2
						c0.1,0.2,0.3,0.4,0.4,0.6c0,0,0,0,0,0c0,0,0-0.1,0-0.1c-0.1-0.2-0.1-0.3-0.2-0.5c-0.1-0.3-0.3-0.7-0.5-1C44.1,9.1,44,9,43.8,9z
						"/>
				</g>
			</g>
		</g>
	</g>
</g>
</svg>
