<?xml version="1.0" ?><svg data-name="Layer 1" id="Layer_1" viewBox="0 0 64 64" xmlns="http://www.w3.org/2000/svg"><path d="M61,41H57a.994.994,0,0,0-.988.94c-2.149-4.5-6.623-9.359-15.95-9.938-12.939-.8-17.784,3.513-19.341,5.57A4.363,4.363,0,0,0,18.586,37H14.974A4.977,4.977,0,0,0,11,35a1,1,0,0,0-1,1v5.367a3.6,3.6,0,0,0,.582,1.957A11.988,11.988,0,0,0,8,44.257V27a1,1,0,0,0-1-1H3a1,1,0,0,0-1,1V61a1,1,0,0,0,1,1H7a1,1,0,0,0,1-1V55H56v6a1,1,0,0,0,1,1h4a1,1,0,0,0,1-1V42A1,1,0,0,0,61,41ZM39.938,34c13.537.84,15.668,11.7,16,15H32.976c-.181-7.988-2.444-12.243-3.9-14.15A33.36,33.36,0,0,1,39.938,34ZM27.047,35.521c1.024,1.11,3.728,4.874,3.93,13.479H26V47a11.531,11.531,0,0,0-3.7-8.191A10.913,10.913,0,0,1,27.047,35.521ZM18.586,39a2.432,2.432,0,0,1,1.707.707c.015.015.035.02.051.034a.727.727,0,0,0,.054.057,10.569,10.569,0,0,1,3.017,4.153A18.294,18.294,0,0,0,17.838,43H16V40a5,5,0,0,0-.1-1ZM12,37.171A3.006,3.006,0,0,1,14,40v3h-.367A1.635,1.635,0,0,1,12,41.367ZM13.348,45h4.49a17.1,17.1,0,0,1,6.127,1.284c.02.234.035.471.035.716v1H8V46.558A10.013,10.013,0,0,1,13.348,45ZM6,60H4V28H6Zm2-7V50H24.278A1.993,1.993,0,0,0,26,51H55.935c.022,0,.043-.006.065-.007V53Zm52,7H58V43h2Z"/><path d="M47.455,5.967A8.993,8.993,0,0,0,31.824,7.242,7,7,0,0,0,28.1,20.736a8,8,0,0,0,14.422,5.887,7.99,7.99,0,0,0,12.2-8.7A7,7,0,0,0,47.455,5.967ZM56,12a5.016,5.016,0,0,1-2.908,4.536,1,1,0,0,0-.511,1.274,5.991,5.991,0,0,1-9.649,6.59,1,1,0,0,0-1.573.285,6,6,0,0,1-11.1-4.437,1,1,0,0,0-.842-1.285A5,5,0,1,1,32,9.42a1,1,0,0,0,1.352-.6,6.992,6.992,0,0,1,12.895-.958,1,1,0,0,0,1.537.315A5,5,0,0,1,56,12Z"/><path d="M22,28a4,4,0,1,0-4-4A4,4,0,0,0,22,28Zm0-6a2,2,0,1,1-2,2A2,2,0,0,1,22,22Z"/><path d="M13,30a3,3,0,1,0,3-3A3,3,0,0,0,13,30Zm4,0a1,1,0,1,1-1-1A1,1,0,0,1,17,30Z"/><path d="M41,16H39.414l2.293-2.293A1,1,0,0,0,41,12H37a1,1,0,0,0,0,2h1.586l-2.293,2.293A1,1,0,0,0,37,18h4a1,1,0,0,0,0-2Z"/><path d="M45,10a1,1,0,0,0,0,2h3.586l-4.293,4.293A1,1,0,0,0,45,18h6a1,1,0,0,0,0-2H47.414l4.293-4.293A1,1,0,0,0,51,10Z"/><path d="M33,16H31.414l2.293-2.293A1,1,0,0,0,33,12H29a1,1,0,0,0,0,2h1.586l-2.293,2.293A1,1,0,0,0,29,18h4a1,1,0,0,0,0-2Z"/></svg>