<?xml version="1.0" encoding="utf-8"?>
<!-- Generator: Adobe Illustrator 25.4.1, SVG Export Plug-In . SVG Version: 6.00 Build 0)  -->
<svg version="1.1" id="_x33_0" xmlns="http://www.w3.org/2000/svg" xmlns:xlink="http://www.w3.org/1999/xlink" x="0px" y="0px"
	 viewBox="0 0 64 64" style="enable-background:new 0 0 64 64;" xml:space="preserve">
<style type="text/css">
	.st0{fill:#FF0000;}
	.st1{clip-path:url(#SVGID_00000057826695841441490630000008229107490484706495_);}
	.st2{fill:#FFFFFF;}
</style>
<g>
	<path class="st0" d="M30,36.7c0-1.5-1.2-2.7-2.7-2.7c-1.2,0-2.2,0.8-2.6,1.9c-0.3,1-0.9,2-1.7,2.8c-0.6,0.6-0.9,1.4-0.9,2.2
		c0,1.7,1.4,3.1,3.1,3.1c2.7,0,4.9-2.2,4.9-4.9V36.7z M28,39.1c0,1.6-1.3,2.9-2.9,2.9c-0.6,0-1.1-0.5-1.1-1.1c0-0.3,0.1-0.6,0.4-0.8
		c1-1,1.7-2.2,2.2-3.5c0.1-0.3,0.4-0.5,0.7-0.5c0.4,0,0.7,0.3,0.7,0.7V39.1z"/>
	<path class="st0" d="M41.1,38.6c-0.8-0.8-1.4-1.7-1.7-2.8C39,34.8,37.9,34,36.7,34c-1.5,0-2.7,1.2-2.7,2.7v2.4
		c0,2.7,2.2,4.9,4.9,4.9c1.7,0,3.1-1.4,3.1-3.1C42,40.1,41.7,39.3,41.1,38.6z M38.9,42c-1.6,0-2.9-1.3-2.9-2.9v-2.4
		c0-0.4,0.3-0.7,0.7-0.7c0.3,0,0.6,0.2,0.7,0.5c0.4,1.3,1.2,2.6,2.2,3.6c0.2,0.2,0.3,0.5,0.3,0.8C40,41.5,39.5,42,38.9,42z"/>
	<path class="st0" d="M34.3,43.4C33.9,42.6,33,42,32,42s-1.9,0.6-2.3,1.4l-0.4,0.8C29.1,44.6,29,45,29,45.4c0,1.4,1.2,2.6,2.6,2.6
		h0.8c1.4,0,2.6-1.2,2.6-2.6c0-0.4-0.1-0.8-0.3-1.2L34.3,43.4z M32.4,46h-0.8c-0.3,0-0.6-0.3-0.6-0.6c0-0.1,0-0.2,0.1-0.3l0.4-0.8
		c0.1-0.2,0.3-0.3,0.6-0.3s0.4,0.1,0.6,0.3l0.4,0.8c0,0.1,0.1,0.2,0.1,0.3C33,45.7,32.7,46,32.4,46z"/>
	<path class="st0" d="M52,51c0.6,0,1,0.4,1,1s-0.4,1-1,1v2c1.7,0,3-1.3,3-3s-1.3-3-3-3s-3,1.3-3,3h2C51,51.4,51.4,51,52,51z"/>
	<path class="st0" d="M52,45v2c2.8,0,5,2.2,5,5s-2.2,5-5,5s-5-2.2-5-5h-2c0,3.9,3.1,7,7,7s7-3.1,7-7S55.9,45,52,45z"/>
	<path class="st0" d="M57.5,42.3c-0.7-0.4-1-1.3-0.6-2l0-0.1c0.7-1.3,1-2.8,1-4.2c0-1.6-0.6-3.1-1.7-4.2l1.6-2.7
		c0.7-1.2,1.1-2.6,1.1-3.9c0-2.9-1.6-5.6-4.3-6.9l-0.2-0.1c-0.7-0.3-0.9-1.2-0.6-1.8l1.7-3.3H54c-2,0-3.9,0.8-5.3,2
		c-1-1.9-2.6-2.9-2.7-3l-0.9-0.5l-0.5,0.9c0,0-0.8,1.2-2.2,2.1c0-0.1,0-0.3,0.1-0.4l0.9-3h-1.7c-0.2,0-0.4,0-0.6,0
		c-0.2-3-1.9-5.6-4.6-6.9l-1.4-0.7L35,5c0,0.1-0.1,1.7-2.3,2.7C32.5,7.4,32.3,7.2,32,7c-1.1-0.9-1.6-2.3-1.3-3.7L31.3,1H30
		c-1.5,0-2.9,0.3-4.3,1C24,2.9,23,4.5,23,6.4c0,1.3,0.5,2.5,1.4,3.4l0.5,0.5C25.6,11,26,12,26,13s-0.4,2-1.1,2.7l-0.6,0.6
		C23.5,15.4,23,14.2,23,13v-1.6l-3.1,1.6c-1.2,0.6-2.1,1.7-2.6,2.9c-0.3-0.5-0.5-0.9-0.6-1.1l-0.3-0.8l-0.8,0.2
		c-0.1,0-1.3,0.3-2.4,1.6c-1-1.6-2.8-2.7-4.8-2.7l-2,0l0.7,1.4c1,1.9,0.5,4.2-1.2,5.6c-1.9,1.6-3,3.9-3,6.3c0,2.6,1.2,5,3.3,6.6
		l0.4,0.3C6.2,34.1,6,35,6,36c0,1.5,0.3,2.9,1,4.2l0,0.1c0.4,0.7,0.1,1.6-0.6,2C3.1,44.2,1,47.8,1,51.7C1,57.9,6.1,63,12.3,63
		c4.7,0,9.1-1.9,12.4-5.2c0.3,0.1,0.7,0.2,1.1,0.2H27c0,1.1,0.9,2,2,2h2c0.4,0,0.7-0.1,1-0.3c0.3,0.2,0.6,0.3,1,0.3h2
		c1.1,0,2-0.9,2-2h1.2c0.4,0,0.8-0.1,1.1-0.2C42.5,61.1,47,63,51.7,63C57.9,63,63,57.9,63,51.7C63,47.8,60.9,44.2,57.5,42.3z M36,50
		h-8c-4.4,0-8-3.6-8-8c0-6.6,5.4-12,12-12s12,5.4,12,12C44,46.4,40.4,50,36,50z M29,52h2v2h-2V52z M33,52h2v2h-2V52z M25.8,56
		c-0.5,0-0.8-0.4-0.8-0.8c0-0.1,0-0.1,0-0.2l0.7-3.3c0.4,0.1,0.9,0.2,1.3,0.2v4H25.8z M29,58v-2h2v2H29z M33,58v-2h2v2H33z M37,56
		v-4.1c0.5,0,0.9-0.1,1.3-0.2L39,55c0,0.1,0,0.1,0,0.2c0,0.5-0.4,0.8-0.8,0.8H37z M51.7,61c-4.1,0-8.1-1.7-10.9-4.6
		c0.2-0.4,0.3-0.8,0.3-1.2c0-0.2,0-0.4-0.1-0.6L40.2,51c3.4-1.6,5.8-5,5.8-9c0-7.7-6.3-14-14-14s-14,6.3-14,14c0,4,2.4,7.5,5.8,9
		l-0.7,3.6c0,0.2-0.1,0.4-0.1,0.6c0,0.4,0.1,0.8,0.3,1.2c-2.9,2.9-6.8,4.6-10.9,4.6C7.2,61,3,56.8,3,51.7c0-3.1,1.7-6.1,4.4-7.6
		c1.6-0.9,2.2-2.9,1.4-4.6l0-0.1C8.3,38.3,8,37.2,8,36c0-1.6,0.9-2.9,2.2-3.6c-0.3,1.5,0.3,3.2,1.6,4.2c0.8,0.6,1.2,1.5,1.2,2.4h2
		c0-1.6-0.7-3.1-2-4c-0.9-0.7-1.1-2-0.5-2.9l1.4-2.1H12c-1.6,0-3.1,0.6-4.1,1.7l-0.4-0.3c-1.6-1.2-2.5-3-2.5-5
		c0-1.9,0.8-3.6,2.2-4.8c1.9-1.6,2.7-4.1,2.2-6.4c1.5,0.5,2.5,1.8,2.5,3.4c0,0.7-0.2,1.4-0.6,2l-1.2,1.8l1.7,1.1l1.2-1.8
		c0.6-0.9,0.9-2,0.9-3.1c0-0.1,0-0.3,0-0.4c0.4-0.9,0.9-1.5,1.4-1.8c0.4,0.7,1,1.7,1.8,2.4c0.2,0.7,0.5,1.4,0.9,2
		c0.4,0.5,0.5,1.1,0.4,1.7s-0.5,1.1-1,1.4c-1.5,0.9-2.5,2.6-2.5,4.4c0,1.4,0.5,2.6,1.5,3.6l0.8,0.8l1.4-1.4l-0.8-0.8
		c-0.6-0.6-0.9-1.4-0.9-2.2c0-1.1,0.6-2.1,1.5-2.6c1-0.6,1.7-1.6,2-2.8c0.2-1.2,0-2.4-0.8-3.4C19.2,19,19,18.3,19,17.6
		c0-1.2,0.7-2.3,1.8-2.9l0.4-0.2c0.4,1.6,1.3,3.1,2.6,4.1l1.6,1.2l1.2-1.6l-0.8-0.6l0.5-0.5C27.4,16,28,14.5,28,13s-0.6-3-1.7-4.1
		l-0.5-0.5c-0.5-0.5-0.8-1.3-0.8-2c0-1.1,0.6-2.1,1.7-2.6c0.6-0.3,1.3-0.5,2-0.7c-0.4,2.1,0.4,4.2,2.1,5.5C31.6,9.2,32,10.1,32,11h2
		c0-0.5-0.1-1.1-0.3-1.6c1.7-0.8,2.5-1.9,2.9-2.8c1.5,1.2,2.4,3,2.4,4.9c-1.6,0.5-2.9,1.6-3.9,3l1.7,1.1c0.9-1.3,2.3-2.2,3.8-2.5
		l-0.1,0.4c-1,3.5,0.3,7.4,3.3,9.5c1.3,1,2.1,2.5,2.1,4.2c0,1-0.3,2-0.9,2.8l-1,1.5l1.7,1.1l1-1.5c0.8-1.2,1.2-2.5,1.2-3.9
		c0-2.3-1.1-4.5-3-5.8c-1.5-1.1-2.5-2.8-2.7-4.6c1.6-0.7,2.7-1.7,3.4-2.4c0.5,0.5,1.2,1.3,1.6,2.4c0,0.1-0.1,0.1-0.1,0.2l-0.9,1.6
		l1.7,1l0.9-1.6c0.8-1.3,2-2.3,3.5-2.7l-0.1,0.2c-0.4,0.8-0.5,1.7-0.2,2.6c0.3,0.9,0.9,1.5,1.7,1.9l0.2,0.1c2,1,3.2,2.9,3.2,5.1
		c0,1-0.3,2-0.8,2.9l-1.5,2.6C53.9,30.2,53,30,52,30h-1.9l1.4,2.1c0.6,1,0.4,2.2-0.5,2.9c-1.3,0.9-2,2.4-2,4h2
		c0-0.9,0.4-1.8,1.2-2.4c1.3-1,1.9-2.6,1.6-4.2c1.3,0.7,2.2,2,2.2,3.6c0,1.2-0.3,2.3-0.8,3.3l0,0.1c-0.8,1.7-0.2,3.7,1.4,4.6
		c2.7,1.6,4.4,4.5,4.4,7.6C61,56.8,56.8,61,51.7,61z"/>
	<path class="st0" d="M9,52c0,1.7,1.3,3,3,3v-2c-0.6,0-1-0.4-1-1s0.4-1,1-1s1,0.4,1,1h2c0-1.7-1.3-3-3-3S9,50.3,9,52z"/>
	<path class="st0" d="M12,57c-2.8,0-5-2.2-5-5s2.2-5,5-5v-2c-3.9,0-7,3.1-7,7s3.1,7,7,7s7-3.1,7-7h-2C17,54.8,14.8,57,12,57z"/>
	<path class="st0" d="M33.8,16.5c-1.1-0.7-1.8-1.9-1.8-3.3V13h-2v0.3c0,2,1.1,3.9,2.8,5c1.3,0.8,2.2,2.3,2.2,3.9
		c0,0.5-0.1,1-0.2,1.4l-0.7,2.2l1.9,0.6l0.7-2.2c0.2-0.7,0.3-1.4,0.3-2.1C37,19.8,35.8,17.7,33.8,16.5z"/>
	<path class="st0" d="M46.1,10.4l1.8-0.9l-0.7-1.5C47.1,7.9,47,7.6,47,7.4c0-0.5,0.3-1,0.7-1.3L48,5.9c1.3-0.9,1.9-2.5,1.4-4
		l-0.4-1.2l-1.9,0.6l0.4,1.2c0.2,0.6,0,1.4-0.6,1.7l-0.3,0.2c-1,0.7-1.6,1.8-1.6,3c0,0.6,0.1,1.1,0.4,1.6L46.1,10.4z"/>
	<path class="st0" d="M28.4,19.1l-1-0.5l-0.9,2.8c-0.2,0.6-0.6,1-1.1,1.2C22.7,23.6,21,26.2,21,29h2c0-2,1.2-3.8,3.1-4.6
		c1.1-0.4,1.9-1.3,2.3-2.4l0.2-0.5c0.6,0.5,1.2,1.2,1.6,1.9l1.8-0.9C31.2,21.1,29.9,19.8,28.4,19.1z"/>
	<path class="st0" d="M18.4,8l0.3-1.6c0.2-1.1,0.9-2,1.8-2.5l-0.9-1.8C18,2.9,16.9,4.3,16.6,6l-0.3,1.6c-0.2,1.1-0.9,2-1.8,2.5
		l0.9,1.8C17,11.1,18.1,9.7,18.4,8z"/>
</g>
<g>
	<defs>
		<path id="SVGID_1_" d="M16.8,42.6c0.1,0.8,0.2,1.6,0.6,2.2c0.3,0.5,0.8,1,1.1,1.5c0.6,1,0.6,2.4,1.1,3.4c0.4,0.8,1.2,1.4,1.7,2.1
			c0.3,0.5,0.6,1,0.7,1.6c0.6,3.2,2.2,3.9,2.8,4.6c0.4,0.5,2.3,3.8,2.8,4.2c1.1,0.8,2.6,0.9,4,0.9c2.1,0,4.3-0.2,5.7-1.7
			c0.8-0.9,0.8-3.2,2-3.5c1.1-0.4,1.3-1.3,1.8-1.9c0.9-1.2,0.8-1.9,1.3-3.2c1.2-3.2,5.1-5.3,5.4-8.7c0.1-1.1-0.2-2.1-0.5-3.1
			c-0.8-2.7-1.6-5.5-3.2-7.8c-3.1-4.7-9-7-14.6-7c-2.1,0-4.5,0.5-5.8,2.2c-1.4,1.9-3.6,3.1-4.8,5.2C17.4,36.3,16.5,39.4,16.8,42.6z"
			/>
	</defs>
	<clipPath id="SVGID_00000148624813776888976190000016421270052347025819_">
		<use xlink:href="#SVGID_1_"  style="overflow:visible;"/>
	</clipPath>
	<g style="clip-path:url(#SVGID_00000148624813776888976190000016421270052347025819_);">
		<path class="st2" d="M30.1,36.9c0-1.5-1.2-2.7-2.7-2.7c-1.2,0-2.2,0.8-2.6,1.9c-0.3,1-0.9,2-1.7,2.8c-0.6,0.6-0.9,1.4-0.9,2.2
			c0,1.7,1.4,3.1,3.1,3.1c2.7,0,4.9-2.2,4.9-4.9V36.9z M28.1,39.3c0,1.6-1.3,2.9-2.9,2.9c-0.6,0-1.1-0.5-1.1-1.1
			c0-0.3,0.1-0.6,0.4-0.8c1-1,1.7-2.2,2.2-3.5c0.1-0.3,0.4-0.5,0.7-0.5c0.4,0,0.7,0.3,0.7,0.7V39.3z"/>
		<path class="st2" d="M41.1,38.8c-0.8-0.8-1.4-1.7-1.7-2.8c-0.4-1.1-1.4-1.9-2.6-1.9c-1.5,0-2.7,1.2-2.7,2.7v2.4
			c0,2.7,2.2,4.9,4.9,4.9c1.7,0,3.1-1.4,3.1-3.1C42.1,40.2,41.7,39.4,41.1,38.8z M38.9,42.2c-1.6,0-2.9-1.3-2.9-2.9v-2.4
			c0-0.4,0.3-0.7,0.7-0.7c0.3,0,0.6,0.2,0.7,0.5c0.4,1.3,1.2,2.6,2.2,3.6c0.2,0.2,0.3,0.5,0.3,0.8C40.1,41.6,39.6,42.2,38.9,42.2z"
			/>
		<path class="st2" d="M34.4,43.6c-0.4-0.9-1.3-1.4-2.3-1.4c-1,0-1.9,0.6-2.3,1.4l-0.4,0.8c-0.2,0.4-0.3,0.8-0.3,1.2
			c0,1.4,1.2,2.6,2.6,2.6h0.8c1.4,0,2.6-1.2,2.6-2.6c0-0.4-0.1-0.8-0.3-1.2L34.4,43.6z M32.4,46.2h-0.8c-0.3,0-0.6-0.3-0.6-0.6
			c0-0.1,0-0.2,0.1-0.3l0.4-0.8c0.1-0.2,0.3-0.3,0.6-0.3c0.2,0,0.4,0.1,0.6,0.3l0.4,0.8c0,0.1,0.1,0.2,0.1,0.3
			C33.1,45.9,32.8,46.2,32.4,46.2z"/>
		<path class="st2" d="M52.1,51.2c0.6,0,1,0.4,1,1s-0.4,1-1,1v2c1.7,0,3-1.3,3-3s-1.3-3-3-3s-3,1.3-3,3h2
			C51.1,51.6,51.5,51.2,52.1,51.2z"/>
		<path class="st2" d="M52.1,45.2v2c2.8,0,5,2.2,5,5s-2.2,5-5,5s-5-2.2-5-5h-2c0,3.9,3.1,7,7,7s7-3.1,7-7S55.9,45.2,52.1,45.2z"/>
		<path class="st2" d="M57.6,42.5c-0.7-0.4-1-1.3-0.6-2l0-0.1c0.7-1.3,1-2.8,1-4.2c0-1.6-0.6-3.1-1.7-4.2l1.6-2.7
			c0.7-1.2,1.1-2.6,1.1-3.9c0-2.9-1.6-5.6-4.3-6.9l-0.2-0.1C54,18,53.7,17.2,54,16.5l1.7-3.3h-1.6c-2,0-3.9,0.8-5.3,2
			c-1-1.9-2.6-2.9-2.7-3l-0.9-0.5l-0.5,0.9c0,0-0.8,1.2-2.2,2.1c0-0.1,0-0.3,0.1-0.4l0.9-3h-1.7c-0.2,0-0.4,0-0.6,0
			c-0.2-3-1.9-5.6-4.6-6.9l-1.4-0.7l-0.1,1.5c0,0.1-0.1,1.7-2.3,2.7c-0.2-0.2-0.5-0.5-0.7-0.7c-1.1-0.9-1.6-2.3-1.3-3.7l0.6-2.3
			h-1.3c-1.5,0-2.9,0.3-4.3,1c-1.7,0.8-2.7,2.5-2.7,4.4c0,1.3,0.5,2.5,1.4,3.4l0.5,0.5c0.7,0.7,1.1,1.7,1.1,2.7s-0.4,2-1.1,2.7
			l-0.6,0.6c-0.8-0.9-1.3-2.1-1.3-3.3v-1.6l-3.1,1.6c-1.2,0.6-2.1,1.7-2.6,2.9c-0.3-0.5-0.5-0.9-0.6-1.1L16.5,14l-0.8,0.2
			c-0.1,0-1.3,0.3-2.4,1.6c-1-1.6-2.8-2.7-4.8-2.7l-2,0l0.7,1.4c1,1.9,0.5,4.2-1.2,5.6c-1.9,1.6-3,3.9-3,6.3c0,2.6,1.2,5,3.3,6.6
			l0.4,0.3c-0.4,0.8-0.7,1.8-0.7,2.7c0,1.5,0.3,2.9,1,4.2l0,0.1c0.4,0.7,0.1,1.6-0.6,2c-3.4,1.9-5.4,5.5-5.4,9.4
			c0,6.2,5.1,11.3,11.3,11.3c4.7,0,9.1-1.9,12.4-5.2c0.3,0.1,0.7,0.2,1.1,0.2h1.2c0,1.1,0.9,2,2,2h2c0.4,0,0.7-0.1,1-0.3
			c0.3,0.2,0.6,0.3,1,0.3h2c1.1,0,2-0.9,2-2h1.2c0.4,0,0.8-0.1,1.1-0.2c3.3,3.3,7.7,5.2,12.4,5.2C58,63.2,63,58.1,63,51.8
			C63,48,61,44.4,57.6,42.5z M36.1,50.2h-8c-4.4,0-8-3.6-8-8c0-6.6,5.4-12,12-12s12,5.4,12,12C44.1,46.6,40.5,50.2,36.1,50.2z
			 M29.1,52.2h2v2h-2V52.2z M33.1,52.2h2v2h-2V52.2z M25.9,56.2c-0.5,0-0.8-0.4-0.8-0.8c0-0.1,0-0.1,0-0.2l0.7-3.3
			c0.4,0.1,0.9,0.2,1.3,0.2v4H25.9z M29.1,58.2v-2h2v2H29.1z M33.1,58.2v-2h2v2H33.1z M37.1,56.2v-4.1c0.5,0,0.9-0.1,1.3-0.2
			l0.7,3.3c0,0.1,0,0.1,0,0.2c0,0.5-0.4,0.8-0.8,0.8H37.1z M51.7,61.2c-4.1,0-8.1-1.7-10.9-4.6c0.2-0.4,0.3-0.8,0.3-1.2
			c0-0.2,0-0.4-0.1-0.6l-0.7-3.6c3.4-1.6,5.8-5,5.8-9c0-7.7-6.3-14-14-14s-14,6.3-14,14c0,4,2.4,7.5,5.8,9l-0.7,3.6
			c0,0.2-0.1,0.4-0.1,0.6c0,0.4,0.1,0.8,0.3,1.2c-2.9,2.9-6.8,4.6-10.9,4.6c-5.1,0-9.3-4.2-9.3-9.3c0-3.1,1.7-6.1,4.4-7.6
			c1.6-0.9,2.2-2.9,1.4-4.6l0-0.1c-0.5-1-0.8-2.2-0.8-3.3c0-1.6,0.9-2.9,2.2-3.6c-0.3,1.5,0.3,3.2,1.6,4.2c0.8,0.6,1.2,1.5,1.2,2.4
			h2c0-1.6-0.7-3.1-2-4c-0.9-0.7-1.1-2-0.5-2.9l1.4-2.1h-1.9c-1.6,0-3.1,0.6-4.1,1.7l-0.4-0.3c-1.6-1.2-2.5-3-2.5-5
			c0-1.9,0.8-3.6,2.2-4.8c1.9-1.6,2.7-4.1,2.2-6.4c1.5,0.5,2.5,1.8,2.5,3.4c0,0.7-0.2,1.4-0.6,2l-1.2,1.8l1.7,1.1l1.2-1.8
			c0.6-0.9,0.9-2,0.9-3.1c0-0.1,0-0.3,0-0.4c0.4-0.9,0.9-1.5,1.4-1.8c0.4,0.7,1,1.7,1.8,2.4c0.2,0.7,0.5,1.4,0.9,2
			c0.4,0.5,0.5,1.1,0.4,1.7s-0.5,1.1-1,1.4c-1.5,0.9-2.5,2.6-2.5,4.4c0,1.4,0.5,2.6,1.5,3.6l0.8,0.8l1.4-1.4L18,30.6
			c-0.6-0.6-0.9-1.4-0.9-2.2c0-1.1,0.6-2.1,1.5-2.6c1-0.6,1.7-1.6,2-2.8c0.2-1.2,0-2.4-0.8-3.4c-0.4-0.5-0.6-1.2-0.6-1.9
			c0-1.2,0.7-2.3,1.8-2.9l0.4-0.2c0.4,1.6,1.3,3.1,2.6,4.1l1.6,1.2l1.2-1.6l-0.8-0.6l0.5-0.5c1.1-1.1,1.7-2.6,1.7-4.1
			s-0.6-3-1.7-4.1l-0.5-0.5c-0.5-0.5-0.8-1.3-0.8-2c0-1.1,0.6-2.1,1.7-2.6c0.6-0.3,1.3-0.5,2-0.7c-0.4,2.1,0.4,4.2,2.1,5.5
			c0.8,0.6,1.2,1.5,1.2,2.4h2c0-0.5-0.1-1.1-0.3-1.6c1.7-0.8,2.5-1.9,2.9-2.8c1.5,1.2,2.4,3,2.4,4.9c-1.6,0.5-2.9,1.6-3.9,3l1.7,1.1
			c0.9-1.3,2.3-2.2,3.8-2.5l-0.1,0.4c-1,3.5,0.3,7.4,3.3,9.5c1.3,1,2.1,2.5,2.1,4.2c0,1-0.3,2-0.9,2.8l-1,1.5l1.7,1.1l1-1.5
			c0.8-1.2,1.2-2.5,1.2-3.9c0-2.3-1.1-4.5-3-5.8c-1.5-1.1-2.5-2.8-2.7-4.6c1.6-0.7,2.7-1.7,3.4-2.4c0.5,0.5,1.2,1.3,1.6,2.4
			c0,0.1-0.1,0.1-0.1,0.2l-0.9,1.6l1.7,1l0.9-1.6c0.8-1.3,2-2.3,3.5-2.7l-0.1,0.2c-0.4,0.8-0.5,1.7-0.2,2.6c0.3,0.9,0.9,1.5,1.7,1.9
			l0.2,0.1c2,1,3.2,2.9,3.2,5.1c0,1-0.3,2-0.8,2.9l-1.5,2.6c-0.8-0.4-1.7-0.6-2.7-0.6h-1.9l1.4,2.1c0.6,1,0.4,2.2-0.5,2.9
			c-1.3,0.9-2,2.4-2,4h2c0-0.9,0.4-1.8,1.2-2.4c1.3-1,1.9-2.6,1.6-4.2c1.3,0.7,2.2,2,2.2,3.6c0,1.2-0.3,2.3-0.8,3.3l0,0.1
			c-0.8,1.7-0.2,3.7,1.4,4.6c2.7,1.6,4.4,4.5,4.4,7.6C61,57,56.9,61.2,51.7,61.2z"/>
		<path class="st2" d="M9.1,52.2c0,1.7,1.3,3,3,3v-2c-0.6,0-1-0.4-1-1s0.4-1,1-1s1,0.4,1,1h2c0-1.7-1.3-3-3-3S9.1,50.5,9.1,52.2z"/>
		<path class="st2" d="M12.1,57.2c-2.8,0-5-2.2-5-5s2.2-5,5-5v-2c-3.9,0-7,3.1-7,7s3.1,7,7,7s7-3.1,7-7h-2
			C17.1,54.9,14.8,57.2,12.1,57.2z"/>
		<path class="st2" d="M33.9,16.7c-1.1-0.7-1.8-1.9-1.8-3.3v-0.3h-2v0.3c0,2,1.1,3.9,2.8,5c1.3,0.8,2.2,2.3,2.2,3.9
			c0,0.5-0.1,1-0.2,1.4l-0.7,2.2l1.9,0.6l0.7-2.2c0.2-0.7,0.3-1.4,0.3-2.1C37.1,20,35.9,17.9,33.9,16.7z"/>
		<path class="st2" d="M46.2,10.6L48,9.7l-0.7-1.5c-0.1-0.2-0.2-0.5-0.2-0.7c0-0.5,0.3-1,0.7-1.3L48,6c1.3-0.9,1.9-2.5,1.4-4L49,0.8
			l-1.9,0.6l0.4,1.2c0.2,0.6,0,1.4-0.6,1.7l-0.3,0.2c-1,0.7-1.6,1.8-1.6,3c0,0.6,0.1,1.1,0.4,1.6L46.2,10.6z"/>
		<path class="st2" d="M28.5,19.3l-1-0.5l-0.9,2.8c-0.2,0.6-0.6,1-1.1,1.2c-2.6,1.1-4.3,3.6-4.3,6.4h2c0-2,1.2-3.8,3.1-4.6
			c1.1-0.4,1.9-1.3,2.3-2.4l0.2-0.5c0.6,0.5,1.2,1.2,1.6,1.9l1.8-0.9C31.2,21.2,30,20,28.5,19.3z"/>
		<path class="st2" d="M18.4,8.1l0.3-1.6c0.2-1.1,0.9-2,1.8-2.5l-0.9-1.8C18.1,3,17,4.5,16.7,6.2l-0.3,1.6c-0.2,1.1-0.9,2-1.8,2.5
			l0.9,1.8C17,11.3,18.1,9.8,18.4,8.1z"/>
	</g>
</g>
</svg>
