<?xml version="1.0" encoding="utf-8"?>
<!-- Generator: Adobe Illustrator 25.4.1, SVG Export Plug-In . SVG Version: 6.00 Build 0)  -->
<svg version="1.1" id="Layer_1" xmlns="http://www.w3.org/2000/svg" xmlns:xlink="http://www.w3.org/1999/xlink" x="0px" y="0px"
	 viewBox="0 0 349.2 442.5" style="enable-background:new 0 0 349.2 442.5;" xml:space="preserve">
<style type="text/css">
	.st0{fill:#FF0000;}
	.st1{fill:#FFFFFF;}
</style>
<g>
	<path class="st0" d="M129.5,435.8c1.4-1.3,1.4-3.5,0-4.9c-1.3-1.4-3.5-1.4-4.9,0s-1.4,3.5,0,4.9
		C125.9,437.1,128.1,437.1,129.5,435.8z"/>
	<path class="st0" d="M9.1,413.5c0.4-0.4,0.5-1,0.1-1.4s-1-0.5-1.4-0.1c-1.8,1.6-2.7,3.3-2.8,5.2c-0.1,2.9,1.9,5.1,2,5.2
		c0.4,0.4,1,0.4,1.4,0l0.1-0.1c0.3-0.4,0.3-1,0-1.3c0,0-1.5-1.7-1.4-3.7C7.1,416,7.8,414.7,9.1,413.5z"/>
	<path class="st0" d="M4.5,409c-2.7,2.2-4.3,4.8-4.5,7.6c-0.4,4.3,2.4,7.5,2.5,7.6c0.4,0.4,1,0.5,1.4,0.1l0.1-0.1
		c0.3-0.4,0.3-0.9,0-1.3c0,0-2.3-2.8-2-6.2c0.2-2.2,1.5-4.3,3.8-6.2c0.4-0.4,0.5-1,0.1-1.4C5.6,408.7,5,408.6,4.5,409z"/>
	<path class="st0" d="M153.9,386.8c-0.5-1.4-0.6-2.8-0.3-4.2c-0.2-0.8-0.2-1.7-0.1-2.5c-4.1-0.1-8-0.7-11.8-1.8
		c-3.9-1.2-7.5-3.1-10.7-5.6c-0.2,0-0.5,0-0.7,0c-2.1,0-3.4,0-3.6,0c-3.4-0.1-6.6-1.6-8.8-4.1c-2.2-2.5-3.3-5.9-2.9-9.3
		c0.4-3.5,0.6-6.7,0.7-9.5c-0.2-0.4-0.3-0.9-0.5-1.3l0.5-2.3l2.7-12.2c1.3,5.2,2,13.3,0.6,25.7c-0.3,2.2,0.4,4.5,1.9,6.2
		s3.6,2.7,5.9,2.7c0.1,0,1.4,0,3.5,0c3.9,0,10.4-0.1,17.4-0.5c1.4-0.1,2.7-0.2,3.9-0.3v0.1c0.2,0.8,0.6,1.4,1.3,1.8
		c0.5,0.3,1,0.5,1.6,0.5c0.2,0,0.4,0,0.7-0.1l1.2-0.3c0,0.2,0.1,0.4,0.2,0.5l1.7,4.5c0,0,0,0.1,0.1,0.1c0,0.1-0.1,0.2-0.1,0.3
		l-1.6,4.5c-0.3,0.9-0.3,1.9,0.1,2.9l0,0c-0.4,1-0.5,2.1-0.1,3l1.7,4.5c0,0,0,0.1,0.1,0.1c0,0.1-0.1,0.2-0.1,0.3l-1.6,4.5
		c-0.4,1-0.3,2.1,0.1,3c0.2,0.5,0.5,0.9,0.9,1.3l1.3-1.6c-0.2-0.2-0.3-0.3-0.4-0.5c-0.2-0.5-0.2-1-0.1-1.5l1.4-3.7
		c0.6,0.4,1.4,0.7,2.2,0.7c0.5,0,1-0.1,1.4-0.3c0.2-0.1,0.3-0.2,0.5-0.2c0,0.1,0,0.3-0.1,0.4l-1.5,4.2l1.6,1.3v0.1
		c0.1-0.1,0.1-0.2,0.2-0.4l1.6-4.5c0.3-1,0.3-2-0.1-2.9c0,0,0,0,0-0.1c0.4-1,0.5-2.1,0.1-3l-1.7-4.5v-0.1c0-0.1,0.1-0.2,0.1-0.3
		l1.6-4.5c0.3-1,0.3-2-0.1-2.9c0,0,0,0,0-0.1c0.4-1,0.5-2.1,0.1-3l-1.5-3.9c0.7-0.2,1.4-0.6,1.8-1.3c0.2-0.4,0.4-0.8,0.4-1.2
		c6.8-1.7,9.5-4,11.3-6.3c2.1-2.8,2.8-6.3,1.8-9.6c-1.3-4.2-5.7-6.7-9.9-5.4c-2.7,0.8-4.6,2.9-5.4,5.4c-0.3,0.1-0.7,0.2-1.2,0.4
		c-0.2-0.6-0.6-1.2-1.2-1.6c-0.7-0.4-1.5-0.6-2.2-0.4l-8.9,2c-1.1,0.2-1.8,1-2.1,2c-4,0.3-8.3,0.5-12.8,0.6
		c0.8-16.5-1.9-28.8-8.2-36.5c-4.1-5-8.5-6.7-11-7.3c-0.2,0-0.3-0.1-0.5-0.1l-9-2l-19.8-4.3l-9-2c-0.2,0-0.3-0.1-0.5-0.1
		c-0.1,0-0.2,0-0.4-0.1l6.6,19.3L74,300.7l-0.5-0.6c-2.4,0.1-5.4,0.7-8.7,2.4c-9.1,4.5-16.8,14.8-23,30.8c-3.6-1.4-7-2.8-10.1-4.3
		c0.4-1.3-0.2-2.7-1.4-3.4l-8-4.4c-1-0.5-2.1-0.5-3,0.1c-0.1-0.1-0.2-0.3-0.3-0.4c-0.9-4.1-4.8-6.9-9-6.3c-4.4,0.7-7.4,4.7-6.7,9.1
		c0.6,4.1,3.1,7.9,7.9,11.7c-0.3,0.7-0.4,1.4-0.2,2.1c0.2,0.8,0.7,1.4,1.4,1.8l0.7,0.4c-0.3,0.5-0.5,1-0.6,1.6c-0.1,1,0.1,2,0.7,2.8
		l2.7,3.9l0.1,0.1c0,0.1-0.1,0.2-0.1,0.3l-0.5,4.8c-0.1,1.3,0.3,2.5,1.2,3.3l1.5-1.3c-0.5-0.4-0.8-1.1-0.7-1.8l0.4-4
		c0.2,0.1,0.4,0.1,0.6,0.2c0.2,0,0.5,0.1,0.7,0.1c0.8,0,1.6-0.2,2.2-0.7c0.1-0.1,0.3-0.2,0.4-0.3c0,0.1,0,0.3,0,0.4l-0.5,4.8
		c0,0.2-0.1,0.3-0.1,0.5l2.1-0.3l0.5-4.7c0.1-0.7-0.1-1.5-0.4-2.1c-0.1-0.2-0.2-0.5-0.4-0.7c0.2-0.8,0.1-1.7-0.3-2.6l0,0
		c0.5-0.2,1-0.5,1.4-0.9c0.7,0.3,1.4,0.7,2.2,1c9,4.1,17.7,6.9,18.1,7c0.8,0.3,1.6,0.4,2.4,0.4c3.4,0,6.5-2.1,7.6-5.5
		c3.7-11.5,7.7-18.8,11.1-23.3l-3,13.2l-8.2,35.9L15.4,412c-3.4,3.5-4.4,8.8-2.5,13.3s6.4,7.5,11.3,7.5h33.6
		c-1.4-4-1.2-8.4,0.7-12.2l6.3-12.3H53.1L75,385.5l1.4,0.3l3,0.7l-18.2,35.4c-2,3.8-1.8,8.3,0.4,12c2.2,3.6,6.2,5.9,10.5,5.9h44.4
		c0.1,1.5,1.4,2.8,2.9,2.8l15.8,0.1l0,0c0.8,0,1.5-0.3,2.1-0.9c0.5-0.5,0.8-1.2,0.9-2h0.2c3.5,0,6.7-1.5,8.9-3.9l1.7,2.6l0.5,0.7
		c0.6,0.9,1.5,1.5,2.5,1.7c0.3,0.1,0.5,0.1,0.8,0.1c0.4,0,0.9-0.1,1.3-0.2c0,0,0,0,0.1,0.1c0.7,0.4,1.4,0.7,2.2,0.7
		c0.3,0,0.5,0,0.8-0.1l4.7-0.9c0.1,0,0.2-0.1,0.3-0.1c0.7,0.6,1.6,0.9,2.5,0.9c0,0,0,0,0.1,0l4.8-0.1c0.7,0,1.4-0.2,1.9-0.6
		c0.1,0,0.2,0.1,0.3,0.1l4.5,1.6c0.4,0.1,0.9,0.2,1.3,0.2c0.4,0,0.8-0.1,1.1-0.2l-0.9-0.8l-0.3-1c-0.2,0-0.4,0-0.6-0.1l-4-1.4
		c0.3-0.6,0.5-1.2,0.5-1.9c0-0.8-0.3-1.5-0.6-2.1c0.1,0,0.2,0,0.3,0c0.2,0,0.4,0,0.6,0.1l4.5,1.6c0.5,0.2,0.9,0.5,1.1,1
		c0,0,0,0.1,0.1,0.1l2.1,0.4c0-0.5-0.2-0.9-0.4-1.4c-0.5-1-1.3-1.7-2.3-2l-4.5-1.6c-1.1-0.4-2.3-0.2-3.3,0.3
		c-0.5-0.2-1.1-0.4-1.7-0.4l-4.8,0.1c-0.4,0-0.7,0.1-1,0.2c-0.9-0.7-2-1.1-3.2-0.8l-4.7,0.9c-0.1,0-0.2,0-0.2,0.1l-1.9-2.9
		c0-0.1-0.1-0.1-0.2-0.2c-0.7-0.9-1.7-1.4-2.8-1.6c0.1-0.5,0.1-1,0.1-1.5c0-6.8-5.5-12.2-12.2-12.2h-0.1c-0.1-0.7-0.3-1.3-0.8-1.8
		c-0.6-0.6-1.3-0.9-2.1-0.9l-15.8-0.1c-0.8,0-1.5,0.3-2.1,0.9c-0.5,0.5-0.8,1.2-0.9,1.9H92.2l14-27.3c0.2-0.4,0.4-0.8,0.6-1.2
		c0.3-0.6,0.6-1.3,0.7-2l1.8-8.4l2.8-12.7c1.9,4.2,4.2,8.2,7.1,11.9c2.4,3,5.2,5.7,8.3,8.1s6.6,4.3,10.2,5.8
		c5.3,2.2,11,3.4,16.5,3.9l1.1-3L153.9,386.8z M151.2,352.2l8.9-2h0.1c0.1,0,0.2,0,0.4,0.1c0.1,0.1,0.3,0.2,0.3,0.4l3.3,14.3
		c0,0.2,0,0.3-0.1,0.5s-0.2,0.3-0.4,0.3l-8.9,2c-0.2,0-0.3,0-0.5-0.1s-0.3-0.2-0.3-0.4l-0.9-3.7l1.3-0.9l1.3-0.9h1.9l1.5-1.4
		l-2.2-0.2l-4.7-0.5l-1.5-6.7C150.6,352.7,150.8,352.3,151.2,352.2z M162.8,390.5c-0.6,0.3-1.3,0.1-1.9-0.2c0.1-0.1,0.2-0.1,0.3-0.2
		c0.3-0.1,0.6-0.2,0.8-0.2s0.5,0,0.7,0.1s0.3,0.2,0.5,0.3C163.1,390.4,163,390.5,162.8,390.5z M164.1,388.5
		c-0.2-0.1-0.4-0.2-0.7-0.3c-1-0.4-2.1-0.3-3,0.1c-0.2,0.1-0.3,0.2-0.4,0.3l-1.4-3.6c-0.1-0.1-0.1-0.3-0.1-0.4
		c0.2,0.1,0.4,0.2,0.6,0.3c0.4,0.2,0.9,0.2,1.4,0.2c0.6,0,1.1-0.1,1.7-0.4c0.2-0.1,0.3-0.2,0.5-0.3l1.4,3.6
		C164,388.1,164.1,388.3,164.1,388.5z M159.2,382.6c0.1-0.1,0.3-0.2,0.4-0.3c0.2-0.1,0.5-0.1,0.7-0.1c0.4,0,0.9,0.2,1.2,0.4
		c-0.1,0.1-0.2,0.1-0.3,0.2c-0.5,0.2-1,0.2-1.5,0.1C159.6,382.9,159.4,382.8,159.2,382.6z M162.6,380.9c-1-0.7-2.4-0.9-3.6-0.4
		c-0.2,0.1-0.3,0.1-0.4,0.2c0-0.1,0-0.2,0.1-0.3l1.4-3.7c0.6,0.4,1.4,0.7,2.2,0.7c0.5,0,1-0.1,1.4-0.3c0.2-0.1,0.3-0.2,0.5-0.2
		c0,0.1,0,0.3-0.1,0.4L162.6,380.9z M161,375c0.1-0.1,0.2-0.1,0.3-0.2c0.3-0.1,0.6-0.2,0.8-0.2s0.5,0,0.7,0.1s0.3,0.2,0.5,0.3
		c-0.1,0.1-0.2,0.1-0.4,0.2C162.2,375.4,161.5,375.3,161,375z M164,372.6c0.1,0.2,0.1,0.3,0.1,0.5c-0.2-0.1-0.4-0.2-0.7-0.3
		c-1-0.4-2.1-0.3-3,0.1c-0.2,0.1-0.3,0.2-0.4,0.3l-1.4-3.6c0-0.1-0.1-0.2-0.1-0.3l3.9-0.9L164,372.6z M13.2,336.7
		c0-0.2,0-0.3,0.1-0.5l7.1-12.9c0.1-0.2,0.3-0.3,0.6-0.3c0.1,0,0.2,0,0.3,0.1l8,4.4c0.3,0.2,0.4,0.6,0.3,0.9l-3.8,7l-0.9,0.4
		l-1.7,1.4l-1.2,1.6l-3,0.2l-0.8,0.7l-4.6-2.5C13.4,337,13.3,336.9,13.2,336.7z M14.8,342.8c-0.1-0.1-0.1-0.2-0.2-0.4
		c-0.3-0.6-0.2-1.4,0.2-1.9l5.1,2.8l0.8,1.2c0.1,0.2,0.2,0.3,0.2,0.5c-0.2-0.1-0.5-0.1-0.7-0.2c-0.4,0-0.9,0-1.3,0.1
		c-0.8,0.2-1.4,0.6-2,1.1L14.8,342.8z M20.3,347.2c-0.4,0.3-1,0.4-1.5,0.3c-0.1,0-0.3-0.1-0.4-0.1c0.4-0.4,0.9-0.6,1.4-0.6
		c0.1,0,0.1,0,0.2,0c0.2,0,0.4,0.1,0.5,0.1C20.5,347,20.4,347.1,20.3,347.2z M105,361.9L94.9,343l-8.4-11l11.2,8.6L105,361.9z
		 M91.3,350.4l7.3,21.4l-10.1-18.9l-8.4-11L91.3,350.4z M118.7,439.5v-9.4l1.6-1.1l0.1-1.8l1.3-1.6l0.6-2l-1.6-1.8v-1.7l-1.9-1v-3.8
		c0-0.2,0.1-0.3,0.2-0.5c0.1-0.1,0.3-0.2,0.5-0.2l0,0l15.8,0.1c0.2,0,0.3,0.1,0.5,0.2c0.1,0.1,0.2,0.3,0.2,0.5v7.9l-0.8,1.1L134,426
		l-0.9,1.9l1.2,1.2l0.3,2.8l1.4,2v5.7c0,0.2-0.1,0.3-0.2,0.5c-0.1,0.1-0.3,0.2-0.5,0.2l0,0l-15.8-0.1
		C119,440.1,118.7,439.8,118.7,439.5z M154.7,437.3c0,0.2-0.1,0.4-0.3,0.6v-0.1c-0.1-0.5,0-1,0.3-1.4
		C154.7,436.7,154.7,437,154.7,437.3z M162.7,437.5c0-0.1,0-0.2,0-0.3c0-0.4,0.1-0.8,0.3-1.1C163,436.6,162.9,437.1,162.7,437.5z
		 M171.4,437.1c0,0.3,0,0.5-0.1,0.7c-0.2-0.5-0.3-1-0.1-1.5l0,0C171.3,436.5,171.4,436.8,171.4,437.1z M169.3,435.1
		C169.4,435.1,169.4,435.1,169.3,435.1C169.4,435.1,169.4,435.1,169.3,435.1c0,0.2-0.1,0.3-0.1,0.5c-0.4,1.2-0.2,2.4,0.4,3.4
		c-0.1,0-0.2,0-0.2,0l-4.8,0.1c-0.2,0-0.4,0-0.6-0.1c0.8-0.9,1.1-2.1,0.9-3.4l0,0c0-0.2-0.1-0.3-0.2-0.5H169.3z M160.6,434.5
		c0.1,0,0.3,0,0.4,0c0.2,0,0.4,0,0.6,0.1c-0.6,0.7-1,1.6-1,2.7c0,0.4,0.1,0.9,0.2,1.3l-4.2,0.8c-0.3,0.1-0.6,0-0.8,0
		c0.4-0.5,0.6-1,0.8-1.6c0.2-0.8,0.1-1.6-0.2-2.3L160.6,434.5z M151.7,431.8l0.8,1.2l1,1.6c-0.2,0.2-0.4,0.4-0.5,0.6
		c-0.6,0.9-0.8,1.9-0.6,3c0,0.2,0.1,0.5,0.2,0.7c-0.1,0-0.2,0-0.3,0c-0.5-0.1-1-0.4-1.3-0.8l-0.8-1.2l-1-1.6
		c0.3-0.1,0.5-0.3,0.8-0.5c0.8-0.7,1.3-1.7,1.3-2.7c0-0.2,0-0.4,0-0.6C151.5,431.5,151.6,431.6,151.7,431.8z"/>
	<path class="st1" d="M289.9,270.9c2.4-1.5,4.9-2.8,7.5-4.1c2.6-1.2,5.2-2.2,8-3.1c5.5-1.7,11.2-2.9,17.1-3.5c0.3,0,0.7-0.1,1.1-0.2
		c8.2-1.5,13.6-9.3,12.1-17.4s-9.3-13.6-17.4-12.1l0,0c-7.6,1.4-15.3,3.4-22.7,6.4c-3.7,1.5-7.3,3.2-10.8,5.1
		c-3.5,2-6.9,4.1-10.1,6.5s-6.3,4.9-9.2,7.6c-2.9,2.7-5.5,5.6-8,8.5c-5,5.9-9.2,12.2-13,18.5c-7.5,12.7-13,25.6-18.6,37.9
		s-11.4,24-19,33.8c-3.8,4.9-8,9.2-12.8,12.7s-10.2,6.3-16,8.3c-0.7,0.2-1.4,0.5-2.2,0.7l-2.2,0.6c-1.5,0.4-3.1,0.8-4.6,1.1H169
		c0,0.2-0.1,0.4-0.2,0.5l-1.4,3.7l1.3,3.5c0.5,1.4,0.6,2.9,0.3,4.3c0.2,0.9,0.2,1.8,0.1,2.6c0.8-0.1,1.6-0.2,2.4-0.3
		c0.9-0.1,1.8-0.2,2.7-0.4c0.9-0.2,1.8-0.2,2.7-0.5l2.8-0.6c0.9-0.2,1.8-0.5,2.8-0.7c7.3-1.9,14.5-5,21.1-9.1
		c6.5-4.1,12.3-9.3,17.4-14.9c5-5.6,9.4-11.6,13.2-17.7c3.9-6.1,7.4-12.3,10.7-18.4c6.7-12.2,12.8-24.1,20.1-34.5
		C272,285.7,280.2,276.9,289.9,270.9z M320.5,240c0.5-1.9,2.5-3,4.4-2.4s3,2.5,2.4,4.4C326.7,243.8,320,241.8,320.5,240z
		 M319.4,246.8c0,0,5.9-0.6,6.3,0.8c0.4,1.4,0.8,5.3,0.1,5.4c-0.6,0.1-0.7-0.7-1.2-0.7c-0.4,0.1-2.4,0-4.6,0.2
		c-2.2,0.3-4.1,0.8-4.5,0.9c-0.4,0.1-0.3,0.9-1,0.9c-0.6,0.1-1.2-3.8-1.1-5.3S319.4,246.8,319.4,246.8z M311.8,240.1
		c1.5-1.2,3.7-0.9,4.9,0.6c1.2,1.5-4.4,5.9-5.6,4.3C310,243.5,310.3,241.3,311.8,240.1z"/>
	<path class="st1" d="M71.3,243.1c4.5-3,9.5-5.3,14.8-7c5.3-1.8,10.8-3.1,16.3-4.1l2.1-0.4l2.3-0.5c1.5-0.3,3-0.7,4.6-1.1
		c3-0.9,6-1.8,8.9-3.2c2.9-1.3,5.8-2.8,8.5-4.5c2.7-1.8,5.3-3.7,7.7-5.9s4.6-4.6,6.6-7.1s3.8-5.1,5.4-7.8
		c6.5-10.8,10.5-22.4,14.4-33.4c3.8-11,7.6-21.7,12.9-31c2.6-4.6,5.6-8.9,9.1-12.6c0.8-0.9,1.8-1.8,2.7-2.7c0.9-0.8,1.9-1.7,2.8-2.4
		c1-0.8,2-1.5,3-2.3c1.1-0.7,2.1-1.4,3.2-2c4.3-2.6,9-4.5,13.9-6s10.1-2.5,15.4-3.1c0.2,0,0.4,0,0.5-0.1c5.4-0.9,9.1-6.1,8.2-11.5
		c-0.9-5.4-6.1-9.1-11.5-8.2l0,0c-6.2,1.1-12.5,2.6-18.6,4.8c-6.1,2.2-12.1,5.1-17.7,8.8c-1.4,0.9-2.7,1.9-4.1,2.9
		c-1.3,1.1-2.6,2.1-3.8,3.2c-1.3,1.1-2.4,2.3-3.6,3.5c-1.1,1.2-2.3,2.4-3.3,3.7c-4.3,5.1-7.7,10.6-10.6,16.3
		c-5.7,11.4-9,23.1-12.3,34.2c-3.3,11.2-6.4,22-11.5,31.5c-1.3,2.4-2.7,4.6-4.2,6.8c-1.5,2.1-3.2,4.1-5,6s-3.8,3.5-5.9,5.1
		c-2.1,1.5-4.4,2.9-6.7,4.1c-2.4,1.2-4.9,2.2-7.4,3.1c-1.3,0.4-2.6,0.8-3.9,1.2l-4.2,1.1c-5.8,1.5-11.6,3.4-17.2,5.8
		c-5.6,2.4-11.1,5.3-16,9.2c-2.5,2-4.8,4.2-6.8,6.7s-3.6,5.4-4.8,8.4c-1.1,3.1-1.7,6.3-1.7,9.5s0.5,6.3,1.4,9.3s2.1,5.8,3.5,8.5
		c1.5,2.7,3.1,5.2,5.1,7.6c0.5,0.6,1.5,0.8,2.1,0.3c0.7-0.5,0.9-1.5,0.4-2.2l-0.1-0.1c-1.6-2.2-3-4.7-4.1-7.3
		c-1.1-2.6-2-5.2-2.6-7.9c-1.1-5.3-0.8-10.8,1.3-15.5C63.1,249.9,66.9,246.1,71.3,243.1z M226.6,90.4c1.3,0.3,2.1,1.6,1.8,2.9
		s-5,0.2-4.7-1.1S225.3,90.1,226.6,90.4z M223.3,96.9c0,0,4-0.6,4.4,0.3s0.7,3.6,0.3,3.7s-0.5-0.5-0.8-0.4s-1.7,0.1-3.1,0.3
		c-1.5,0.3-2.8,0.7-3.1,0.8c-0.3,0.1-0.2,0.6-0.6,0.7s-1-2.6-1-3.6C219.3,97.7,223.3,96.9,223.3,96.9z M217.8,92.6
		c1-0.9,2.5-0.8,3.4,0.2s-2.8,4.2-3.6,3.2S216.8,93.5,217.8,92.6z"/>
	<path class="st1" d="M237.9,207.1c-3.7,5.3-7,10.6-10.3,15.9c-3.3,5.3-6.4,10.6-9.7,15.4c-3.3,4.8-6.9,9.4-11,12.3
		c-2,1.4-4.1,2.3-6.3,2.6c-0.6,0.1-1.1,0.1-1.7,0.2c-0.3,0-0.6,0-0.9,0h-1.2c-1.6-0.1-3.2-0.1-4.9,0c-3.3,0-6.6,0.3-10,0.8
		c-3.4,0.6-6.9,1.5-10.3,3.5c-1.7,1-3.3,2.3-4.7,3.9c-1.3,1.6-2.4,3.5-2.9,5.5c-1.2,3.9-0.9,7.6-0.4,11c0.6,3.4,1.5,6.5,2.5,9.5
		s2.1,5.9,3.2,8.8c1.1,2.9,2.1,5.8,2.9,8.6c0.8,2.8,1.5,5.7,1.7,8.4c0.2,2.7-0.3,5.3-1.7,7.2c-1.4,1.9-3.8,3.3-6.5,4.1
		c-2.7,0.8-5.7,1.2-8.7,1.4c-3,0.2-6,0.1-9.1,0l0,0c-0.8,0-1.6,0.6-1.7,1.4c-0.1,0.9,0.5,1.7,1.4,1.8c3.1,0.4,6.3,0.6,9.5,0.6
		s6.4-0.2,9.7-1c1.6-0.4,3.3-1,4.8-1.8c1.6-0.8,3.1-2,4.3-3.5s2.1-3.2,2.6-5s0.7-3.6,0.7-5.3c0-3.5-0.6-6.7-1.3-9.8
		c-0.7-3.1-1.6-6.2-2.5-9.1c-1.8-5.9-3.7-11.8-4.3-17.4c-0.3-2.8-0.2-5.4,0.6-7.4s2.1-3.4,4.1-4.4s4.7-1.6,7.4-1.9s5.6-0.3,8.5-0.2
		c1.5,0.1,2.9,0.2,4.4,0.3l1.1,0.1c0.5,0,1,0.1,1.5,0.1c1,0,2,0,2.9-0.1c4-0.3,7.8-1.8,10.9-3.8c3.2-2,5.8-4.3,8.2-6.8
		s4.5-5,6.4-7.6c3.9-5.1,7.4-10.3,10.9-15.4c3.5-5.1,7-10,10.7-14.7c7.3-9.4,15.5-17.9,24.8-24.5s19.7-11.3,30.7-13.9
		c11-2.7,22.5-3.4,34.1-2.7c0.2,0,0.4,0,0.6,0c5.5,0,10-4.5,10-10s-4.5-10-10-10l0,0c-13.1,0-26.5,1.5-39.4,5.4
		c-12.9,3.8-25.1,10.2-35.5,18.6C253.8,186.5,245.2,196.6,237.9,207.1z M338.2,159.4c0.7-1.4,2.4-1.9,3.8-1.2s1.9,2.4,1.2,3.8
		S337.5,160.8,338.2,159.4z M341.1,166.3c0.1,1.2-0.2,4.3-0.7,4.3s-0.5-0.7-0.8-0.7s-1.9-0.4-3.7-0.5s-3.3,0-3.7,0
		c-0.3,0-0.4,0.6-0.9,0.6s-0.3-3.2-0.1-4.3s5-0.9,5-0.9S341,165.1,341.1,166.3z M331.3,158.2c1.4-0.7,3.1-0.2,3.8,1.2s-4.3,4-5,2.6
		S330,158.9,331.3,158.2z"/>
	<path class="st0" d="M98.5,299c12.1,2.7,24.1-5,26.8-17.2c0.5-2.3,0.6-4.5,0.4-6.7l1.1,0.8l1.2,1c0.4,0.3,0.8,0.7,1.2,1.1l2.3,2.2
		c0.8,0.8,1.4,1.6,2.1,2.4c0.7,0.8,1.4,1.6,2.1,2.5c1.3,1.8,2.6,3.5,3.8,5.3l3.4,5.6v0.1c0.2,0.4,0.8,0.6,1.2,0.3
		c0.5-0.2,0.6-0.8,0.4-1.2l-2.9-6.1c-1-2-2.2-3.9-3.4-5.9c-0.6-1-1.3-1.9-1.9-2.8c-0.7-0.9-1.3-1.9-2-2.8l-2.2-2.6
		c-0.4-0.4-0.7-0.9-1.1-1.3l-1.3-1.2l-1.3-1.2c-0.4-0.4-0.8-0.8-1.3-1.2l-2.8-2.2l-0.5-0.3c0-0.1-0.1-0.2-0.1-0.3
		c1.2,0.2,2.3,0.6,3.4,0.9c4.2,1.3,8.2,3.6,11.9,6.2s7.2,5.8,10.4,9.1l0,0c0.3,0.3,0.9,0.4,1.2,0.1c0.4-0.3,0.5-0.9,0.1-1.3
		c-3-3.7-6.2-7.2-9.8-10.3c-3.7-3.1-7.7-5.9-12.3-7.8c-2.2-1-4.5-1.7-6.8-2.2c3.3-0.1,6.5-0.1,9.8,0.2c4.2,0.3,8.4,1.3,12.5,2.5l3,1
		l2.9,1.3l1.5,0.7l1.4,0.8l2.8,1.6h0.1c0.4,0.2,0.9,0.1,1.2-0.3s0.2-1-0.2-1.3l-2.7-1.9l-1.4-1l-1.5-0.8l-2.9-1.7l-3.1-1.4
		c-4.2-1.8-8.5-3.2-13-4c-4.5-0.9-9-1.3-13.5-1.4c-0.6,0-1.2,0-1.7,0c3.3-1.2,6.6-2.2,10.1-2.8c4-0.7,8-1.3,12.1-1.3
		c2-0.1,4.1,0,6.1,0.1c1,0,2,0.2,3.1,0.3l3.1,0.3h0.1c0.5,0,0.9-0.3,1-0.7c0.1-0.5-0.2-1-0.7-1.1l-3.1-0.7c-1-0.2-2.1-0.5-3.1-0.6
		c-2.1-0.3-4.2-0.7-6.3-0.8c-4.3-0.4-8.6-0.3-12.8,0.1c-4.3,0.4-8.6,1.2-12.8,2.4c-2.1,0.6-4.2,1.3-6.2,2.1
		c-0.3,0.1-0.5,0.2-0.8,0.3c0.5-0.4,1.1-0.9,1.7-1.3c0.8-0.6,1.6-1.2,2.5-1.8l2.6-1.6c1.8-1,3.7-2,5.6-2.9c1.9-1,3.9-1.7,5.8-2.5
		c2-0.8,4-1.4,6-2.1c2.1-0.6,4.1-1.2,6.2-1.8l6.3-1.5l0,0c0.5-0.1,0.8-0.5,0.7-1s-0.5-0.9-1-0.8l-6.5,0.9c-2.2,0.4-4.3,0.8-6.5,1.2
		c-2.1,0.5-4.3,1-6.4,1.6s-4.3,1.2-6.3,2c-2.1,0.7-4.2,1.6-6.2,2.5l-3,1.5c-1,0.5-2,1.1-3,1.7c-1,0.6-1.9,1.2-2.9,1.9
		c-0.9,0.7-1.9,1.4-2.8,2.1l-1.3,1.2l-1.3,1.3c-0.4,0.4-0.8,0.9-1.2,1.3c-7,2.5-12.6,8.5-14.3,16.4C78.7,284.3,86.4,296.3,98.5,299z
		 M108.1,268c1.2-1.5,3.7-1.5,5.5,0s2.3,3.9,1.1,5.4C113.4,275,106.8,269.5,108.1,268z M96.5,262.6c2.4-0.2,4.4,1.2,4.6,3.1
		s-8.4,2.7-8.5,0.8S94.1,262.8,96.5,262.6z M89.9,274.3c1.2-2.2,11.1,1,11.1,1s9.7,3.7,9.3,6.2c-0.5,2.5-2.9,9-3.9,8.6
		c-0.8-0.3-0.7-1.1-1-1.6v7.7c0,0.4-0.3,0.7-0.7,0.7h-0.3c-0.4,0-0.7-0.3-0.7-0.7v-8.7c-0.5-0.2-1.1-0.5-1.8-0.9v6
		c0,0.4-0.3,0.7-0.7,0.7h-0.3c-0.4,0-0.7-0.3-0.7-0.7v-6.8c-0.8-0.3-1.7-0.7-2.5-1c-3.6-1.3-7.1-1.9-7.8-2.1
		c-0.7-0.2-1.2,1.1-2.2,0.7C86.6,283.1,88.8,276.6,89.9,274.3z"/>
	<path class="st0" d="M24.6,330.2c0.8-0.9,0.7-2.4-0.2-3.2c-0.9-0.8-2.4-0.7-3.2,0.2c-0.8,0.9-0.7,2.4,0.2,3.2
		S23.8,331.1,24.6,330.2z"/>
	<path class="st1" d="M23.6,242.2c0.8-2.3,2-4.3,3.4-6.2c2.9-3.7,7.1-6.5,11.8-8.7c2.4-1.1,4.9-2,7.4-2.7c2.6-0.8,5.2-1.4,7.9-1.9
		l2-0.4l2.3-0.4c1.6-0.3,3.2-0.7,4.8-1.1c1.6-0.4,3.2-0.9,4.7-1.4c1.6-0.5,3.1-1,4.7-1.7c6.2-2.4,12.1-5.8,17.5-10
		c2.7-2.1,5.2-4.5,7.5-7s4.5-5.2,6.4-8c3.9-5.6,6.9-11.8,9.1-18.2c4.4-12.8,5.7-26.3,4.7-39.6c-1.1-13.3-4.5-26.4-11-38.9
		c-3.1-6-7.2-12-12.6-17.4S82,68.4,73.8,65.6l-0.7-0.3c-0.5-0.2-1-0.3-1.6-0.4c-8.1-1.8-16.1,3.3-17.9,11.4s3.3,16.2,11.4,18
		c3.1,0.7,6.5,2.4,9.8,5.1c3.2,2.7,6.3,6.3,8.9,10.3c5.3,8.1,8.9,18,10.6,28.2s1.6,20.8-0.9,30.7c-2.5,9.8-7.4,18.9-14.7,25.8
		c-3.6,3.4-7.8,6.4-12.5,8.7c-1.1,0.6-2.4,1.1-3.5,1.6c-1.2,0.5-2.4,1-3.7,1.4s-2.5,0.9-3.8,1.2l-4.3,1.2c-3,0.9-6.1,1.9-9.1,3.1
		c-3,1.2-6,2.6-8.9,4.2c-2.9,1.7-5.7,3.6-8.3,5.8c-2.6,2.3-5,4.9-6.9,7.9s-3.4,6.3-4.2,9.7c-0.9,3.4-1.1,6.9-1,10.2
		c0.3,6.7,2.2,13,4.6,18.7c2.5,5.8,5.6,11.1,9,16.1c3.5,5,7.2,9.7,11.4,14.2c0.8,0.9,2.2,1,3.2,0.3c1-0.8,1.2-2.3,0.4-3.3l-0.1-0.1
		c-3.5-4.5-6.7-9.4-9.5-14.4s-5.2-10.2-6.9-15.6c-1.7-5.3-2.7-10.7-2.4-15.9C22.3,246.9,22.8,244.5,23.6,242.2z M59.6,76.4
		c-0.9-1.7-0.2-3.9,1.5-4.7s3.9-0.2,4.7,1.5S60.5,78.1,59.6,76.4z M72.4,87.1c-0.6,0-0.6-0.9-1-0.9s-2.4-0.5-4.6-0.7s-4.2,0-4.6,0
		c-0.4,0-0.5,0.8-1.1,0.7c-0.6,0-0.4-4-0.1-5.4c0.3-1.4,6.3-1.1,6.3-1.1s5.9,0.6,6,2S73.1,87.1,72.4,87.1z M75.9,76.4
		c-0.9,1.7-7.2-1.5-6.3-3.2c0.9-1.7,3-2.4,4.7-1.5S76.8,74.7,75.9,76.4z"/>
	<path class="st1" d="M206.2,2.8c-0.4,0.1-0.8,0.3-1.2,0.4c-7.7,3.2-11.3,11.9-8.2,19.6s11.9,11.3,19.6,8.2
		c4.3-1.8,8.7-2.5,13.3-2.1s9.4,2,14,4.6s9.1,6.2,13,10.5c4,4.2,7.5,9.1,10.5,14.3c5.9,10.4,9.8,22.4,9.9,34
		c0.1,5.8-0.8,11.4-2.9,16.4s-5.3,9.3-9.7,12.7c-4.3,3.4-9.7,5.9-15.6,7.4c-3.6,0.9-7.1,1.9-10.6,3.2s-6.9,2.7-10.2,4.2
		c-13.3,6.3-25,15.5-34.4,26.4c-9.5,10.8-16.9,23.1-22.5,36c-2.8,6.4-5.2,13-7.2,19.7c-1,3.4-1.9,6.7-2.7,10.1
		c-0.8,3.4-1.5,6.8-2,10.4c-0.2,1.2,0.6,2.4,1.9,2.7c1.3,0.3,2.6-0.5,2.8-1.8v-0.1c0.7-3.2,1.6-6.5,2.6-9.7s2.1-6.4,3.3-9.6
		c2.4-6.3,5.2-12.5,8.3-18.4c6.3-11.9,14-22.9,23.3-32.1s20.3-16.5,32.2-21.2c3-1.2,6-2.2,9.1-3s6.2-1.5,9.3-2.1
		c7.5-1.3,15.2-3.9,22.1-8.4c3.4-2.3,6.7-5,9.5-8.1s5.2-6.6,7.1-10.3c3.9-7.4,5.8-15.6,6.4-23.5c0.6-8-0.1-15.8-1.7-23.4
		s-4.1-14.9-7.4-21.9s-7.3-13.7-12.3-19.9c-4.9-6.2-10.8-11.9-17.7-16.7C251.2,6.5,243,2.8,234,1.1c-4.5-0.8-9.2-1.1-13.8-0.8
		s-9.2,1.2-13.5,2.6L206.2,2.8z M218.8,22.9c-0.6,0.2-0.9-0.6-1.3-0.4c-0.4,0.1-2.4,0.4-4.5,1.1s-3.8,1.6-4.3,1.7s-0.2,0.9-0.8,1.1
		s-1.9-3.5-2.1-4.9c-0.2-1.4,5.4-3.4,5.4-3.4s5.7-1.7,6.3-0.4C218.2,18.9,219.4,22.7,218.8,22.9z M214.7,7.9
		c1.9,0.2,3.4,1.8,3.2,3.8c-0.2,1.9-7.2,1.4-7-0.6C211.1,9.2,212.8,7.8,214.7,7.9z M202.8,18c-1.5-1.3-1.6-3.5-0.4-5s3.5-1.6,5-0.4
		S204.3,19.2,202.8,18z"/>
	<path class="st0" d="M156.2,357.5c1.2,0,2.3-1,2.3-2.3c0-1.2-1-2.3-2.3-2.3s-2.3,1-2.3,2.3S154.9,357.5,156.2,357.5z"/>
</g>
</svg>
