<?xml version="1.0" encoding="utf-8"?>
<!-- Generator: Adobe Illustrator 25.4.1, SVG Export Plug-In . SVG Version: 6.00 Build 0)  -->
<svg version="1.1" id="Layer_1" xmlns="http://www.w3.org/2000/svg" xmlns:xlink="http://www.w3.org/1999/xlink" x="0px" y="0px"
	 viewBox="0 0 706.5 722.2" style="enable-background:new 0 0 706.5 722.2;" xml:space="preserve">
<style type="text/css">
	.st0{fill:#EB2627;}
	.st1{clip-path:url(#SVGID_00000146487549187625068070000003898704244492604578_);}
	.st2{clip-path:url(#SVGID_00000062900285111099819710000005252490135884603526_);fill:#F16062;}
	.st3{fill:#010101;stroke:#ED2224;stroke-width:3;stroke-miterlimit:10;}
</style>
<g>
	<circle class="st0" cx="377.4" cy="326.8" r="326.8"/>
	<g>
		<defs>
			<circle id="SVGID_1_" cx="377.4" cy="326.8" r="326.8"/>
		</defs>
		<clipPath id="SVGID_00000005232267021102769020000011723785769682641589_">
			<use xlink:href="#SVGID_1_"  style="overflow:visible;"/>
		</clipPath>
		<g style="clip-path:url(#SVGID_00000005232267021102769020000011723785769682641589_);">
			<defs>
				<circle id="SVGID_00000110430744013674406370000012017870212204102800_" cx="376.3" cy="324" r="326.8"/>
			</defs>
			<clipPath id="SVGID_00000057833366485135864630000011491995428590219159_">
				<use xlink:href="#SVGID_00000110430744013674406370000012017870212204102800_"  style="overflow:visible;"/>
			</clipPath>
			<path style="clip-path:url(#SVGID_00000057833366485135864630000011491995428590219159_);fill:#F16062;" d="M770,653.6
				c-293.5,0-724.1-145.8-646.4-599.3L-191,201.4L-64.4,949L770,653.6z"/>
		</g>
	</g>
</g>
<g>
	<path class="st3" d="M1.5,702.6c20.6-5.8,41.2-11.7,61.9-17.2c9-2.4,18.2-6,27.3-5.8c20.5,0.4,23.3-13.8,24.8-28.2
		c2.8-27.1,5.9-54.4,5.8-81.5c-0.1-21.4-5-42.8-7.5-62.7c-13.1-3.8-26.3-7.6-37.6-10.9c2.6-9.7,4.4-15.9,6-22.2c0.3-1-0.1-2.2,0.3-3
		c6.8-12.2,15.2-23.7,20.1-36.5c4.2-11,4.7-23.6,6.4-35.5c1-7,1-14.2,1.6-21.2c0.7-8-0.9-17.3,2.7-23.7c8.8-15.8,3-32.3,5.8-47.9
		c1.2-6.7,12.9-11.4,19.4-17.4c3.8-3.5,6.9-7.8,10.6-11.5c3-3.1,5.8-7.3,9.6-8.8c15.8-6.2,24.3-19.9,32.4-32.9
		c5.4-8.7,7-20.1,9-30.6c3.3-16.9,7-19.9,24.1-17.6c2.1,0.3,5.6-0.5,6.6-2.1c5.2-8.1,10.2-11.1,18.1-2.5c1.4,1.5,7.4-1.8,11.4-2.2
		c7.6-0.8,15.3-1,23-1.7c6.7-0.6,13.7-0.3,19.9-2.4c10-3.4,19.1-9.2,29.1-12.8c12.4-4.4,25.1-8.1,38-11c9.7-2.2,19.9-3.9,26.1,7.9
		c1.5,2.9,5.9,4.3,9.1,6.2c3,1.8,8.3,2.7,8.8,5c4.6,18.8,26.5,17.9,35.2,31.6c0.3,0.4,0.7,0.7,1,1.1c18.7,18.3,28.2,17.4,42.5-6.3
		c2.6,8.2,4.7,14.8,7.2,22.8c16.3-1.5,12-22.1,26.4-28.1c3.7,10,8.5,19.4,10.5,29.5c2.6,13,8.4,22.4,19.9,29.3
		c9.1,5.5,13.7,13.6,14.7,25.7c0.6,8.1,9.3,16.2,15.8,23c5.3,5.6,13.4,8.7,18.9,14.1c5,5,13,14.3,11.4,17.3
		c-3.5,6.6-12.2,10.5-22.4,18.2c-3.4,14-6.9,15.9-27.2,9.3c-3.3-1.1-6.6-2.1-9.8-3.3c-16.9-6.7-31-8.2-47.5,5.8
		c-19.2,16.3-43.2,27-65.2,39.9c-10.6,6.3-14.7,15.9-16.8,27.6c-1.7,9.8-5.4,19.2-9.1,31.7c-9.4-14.7-14.1-7-19,0.3
		c-5.9,8.8-10.5,19.6-24.9,17.9c-0.5-6.7-1-13.1-1.5-20c-11-0.7-15.4,5.2-14.2,14.4c2.3,17.9,0.4,34.9-5.5,51.9
		c-1.5,4.4,2.1,10.5,2.4,15.8c1.2,18.9,1.9,37.9,2.9,58.9c4.5,4.1,11.9,10.9,20.5,18.7c8.3-2,20.5-1.9,29.1-7.5
		c18.2-11.9,38.6-7.1,57.5-11.5c0.4-0.1,1,0.2,1.5,0.3l-0.2-0.5c-21.7,5.9-43.4,11.9-65.1,17.8c0.2,0.7,0.3,1.4,0.5,2.2
		c32.8-1.7,65.7-3.4,96.7-5.1c-0.6,6.7-1,10.7-1.3,15.1c-4.9,0.7-9.8,1.4-14.8,2.1c12.7,1,25.3-2.8,37.2-1.1
		c14.5,2.2,28.5,10.5,40-8.4c-16.5,1.5-32.9,3-47.8,4.4c1.6-2.9,3.4-6.3,6-10.9c3-0.2,9.1-0.6,15.2-1c0.1-1,0.2-2.1,0.2-3.1
		c-3.9-2-7.9-3.9-11.8-5.9c9.4,0,20.4-12.5,27.4,3.2c0.6,1.3,6.6,1.1,9.6,0.2c15.7-4.8,31.3-10,46.9-15.1l-0.4-0.2
		c6.6,2.2,13.2,4.4,19.8,6.6c0,1.3-0.1,2.6-0.1,3.9c-6.7,2-13.4,4.1-20,6.1c0.2,1.3,0.4,2.7,0.6,4c15.3-1.9,30.6-5.9,45.8-5.1
		c17.2,0.9,34.1,6.1,52.3,9.6c0,32.8,0,66.1,0,101.5c-234.5,0-469,0-703.5,0C1.5,714.6,1.5,708.6,1.5,702.6z M140,666.3
		c29.3-9.9,60.7-8.7,84.7-29.5c3.3-2.8,4.6-11.5,2.9-16c-13.6-36.3-28.1-72.2-42.6-109C161.2,507.7,133.8,611.4,140,666.3z
		 M312.2,558c-47.4,4-47.2,23.5-42.5,71.8c10.2-1.5,20.3-3.1,30.8-4.6c-3.3-5.6-8.1-10.8-7-12.5c3-5,7.7-10,12.9-12.2
		c5.6-2.3,12.5-1.3,22.9-2.1C322.6,582.9,317.3,570.1,312.2,558z M557.8,647.8c-0.2-1.7-0.4-3.5-0.5-5.2
		c-20.2,2.3-40.5,3.9-60.5,7.4c-4.4,0.8-7.6,8.3-9.9,11.1c10.9,0,22.5,0.1,34-0.1c2.3-0.1,6.5-1.6,6.5-2.7c1-11.6,11-5.5,16.2-8.3
		C547.6,647.9,553.1,648.5,557.8,647.8z"/>
	<path d="M468.5,600.5c2.8-1.7,5.5-4.7,8.4-4.9c38-3.2,76-6.1,114-8.7c5.8-0.4,11.7,1.7,17.5,2.6c-0.6,1.5-1.1,3.1-1.7,4.6
		c0,0,0.4,0.2,0.4,0.2c-30.4,1.7-60.8,3.6-91.1,5c-15.9,0.7-31.8,0.5-47.7,0.8L468.5,600.5z"/>
</g>
</svg>
