<?xml version="1.0" encoding="utf-8"?>
<!-- Generator: Adobe Illustrator 25.4.1, SVG Export Plug-In . SVG Version: 6.00 Build 0)  -->
<svg version="1.1" id="Layer_1" xmlns="http://www.w3.org/2000/svg" xmlns:xlink="http://www.w3.org/1999/xlink" x="0px" y="0px"
	 viewBox="0 0 1216.6 653.6" style="enable-background:new 0 0 1216.6 653.6;" xml:space="preserve">
<style type="text/css">
	.st0{fill:#FFFFFF;}
	.st1{clip-path:url(#SVGID_00000085240460106534697780000004180211853737180584_);}
	.st2{clip-path:url(#SVGID_00000067223900270900648380000007679413900948066713_);fill:#DDD7D7;}
	.st3{fill:#010101;stroke:#ED2224;stroke-width:3;stroke-miterlimit:10;}
</style>
<g>
	<circle class="st0" cx="648.9" cy="326.8" r="326.8"/>
	<g>
		<defs>
			<circle id="SVGID_1_" cx="648.9" cy="326.8" r="326.8"/>
		</defs>
		<clipPath id="SVGID_00000054242482727588922250000005851739208617439641_">
			<use xlink:href="#SVGID_1_"  style="overflow:visible;"/>
		</clipPath>
		<g style="clip-path:url(#SVGID_00000054242482727588922250000005851739208617439641_);">
			<defs>
				<circle id="SVGID_00000181077555474862009590000005681732841544710547_" cx="647.8" cy="324" r="326.8"/>
			</defs>
			<clipPath id="SVGID_00000121268760767410617270000012877258019428673194_">
				<use xlink:href="#SVGID_00000181077555474862009590000005681732841544710547_"  style="overflow:visible;"/>
			</clipPath>
			<path style="clip-path:url(#SVGID_00000121268760767410617270000012877258019428673194_);fill:#DDD7D7;" d="M1041.5,653.6
				c-293.5,0-724.1-145.8-646.4-599.3L80.5,201.4L207.2,949L1041.5,653.6z"/>
		</g>
	</g>
</g>
<g>
	<path class="st3" d="M309.4,576.8c-8.4-0.9-16.8-1.5-25.2-2.8c-1.7-0.3-3.5-2.8-4.3-4.7c-12.2-27.4-23.6-55.2-36.9-82.1
		c-4-8.2-12.6-14.4-19.7-20.7c-5.2-4.5-11.6-7.7-17.4-11.5c0.4-0.8,0.8-1.5,1.2-2.3c16.1,6.8,32.2,13.6,50.6,21.3
		c9.6-9.6,20.8-20.7,33.2-33.1c-7.2-4.4-12.4-7.3-17.2-10.7c-10-6.8-19.7-13.9-29.7-20.7c-3.6-2.4-7.7-4.2-11.6-6.3
		c-1.7-0.9-3.9-1.6-4.7-3.1c-4.4-7.2-7.2-15.7-12.7-21.8c-9.6-10.6-8.1-22.1-5.9-34.3c0.1-0.8-0.8-1.7-1.9-3.8
		c-7.9,3.5-15.7,7.3-23.7,10.6c-38.4,15.4-75,6.3-111.2-8.4c-3.4-1.4-6.9-2.8-10.1-4.5c-6.4-3.4-10.8-1.6-15.9,3.4
		C36,351.2,23.7,356,6.6,355.2c9.2-3.9,17.8-7.3,26.1-11.4c3.1-1.6,6.5-4.5,7.7-7.6c1-2.8,0.5-8.5-1.5-9.9
		c-14.7-10.6-23-24.5-23.5-42.3c12.2,2.4,24.8,4.5,37.2,7.5c6.4,1.5,7.6-1.5,8.5-6.5c1.8-10.8,0.1-20.8-6.3-29.8
		c-1.9-2.6-3.8-5.2-6.4-8.7C62,253,68,265.1,73.4,295.1c14.9,1,29.8,1.8,44.8,3c14,1.2,28,3,42,4.1c4.1,0.3,8.3-1.5,12.5-1.8
		c2.5-0.2,5,0.5,7.5,1.1c8.4,2.3,16.7,5,25.1,7.2c5.8,1.5,11.2,2.5,16.8-2.8c2.6-2.5,9.7,0.4,13.7-1.4c5.6-2.6,10.1-7.4,14.4-10.7
		c-5.4-7-10.5-13.7-17-22.1c12.3,7.2,22.4,13.2,32.6,19.1c0.3-0.4,0.6-0.9,1-1.3c-6.8-10.1-13.6-20.1-20.4-30.2
		c0.6-0.3,1.1-0.6,1.7-0.8c10.1,9.2,19.8,18.9,30.5,27.2c3.1,2.4,9.3,1.3,14,0.9c3-0.3,5.9-2.1,9.6-3.6c-2.6-3.8-5.4-8-9.5-14
		c10.6,5.8,19.5,10.7,30.6,16.7c-8.9-11.3-15.9-20.3-23-29.3c0.6-0.5,1.2-0.9,1.8-1.4c13.2,10.5,26.2,21.2,39.6,31.5
		c6.2,4.8,21.7,2.6,26.9-2.7c-8-7.8-16.1-15.7-24.2-23.6c0.5-0.2,1-0.4,1.4-0.5c13.4,6.4,26.7,12.8,40.1,19.2c0.6-1,1.1-2.1,1.7-3.1
		c-7.3-10.4-15.5-19.6-30.5-18.2c10.8-9.4-4.9-14-2.3-21.3c0.2,0,1.2-0.3,1.3-0.1c10.8,16,27.3,15.8,44.1,17.6
		c14.3,1.5,28,7.6,41,11.4c-6.7-15.6-29.1-32.7-78.5-33.7c27.2-10,65.5-7,104.6,29.3c7-5.3,13.9-10.7,21.1-15.8
		c4.2-3,8.9-5.2,13.2-8.1c17.2-12,37.8-13,56.6-11.9c13.4,0.8,20.6-12.8,33.5-8.8c0.8,0.2,4.1-8,5.9-11.4
		c14.4,11.8,34.1,21.8,44.2,37.9c10.5,16.7,25.9,23.1,39.6,33.5c3.1,2.4,5.3,5.9,7.9,8.9c-4.1,3.5-7.8,8.5-12.5,10.2
		c-6.4,2.2-13.6,1.8-22.8,2.7c4.4,5.3,7.8,9.4,12.2,14.7c0,0-1.4,2.7-1.9,5.6c-1.3,7.8-6.1,9-12.5,6.7c-6.6-2.4-13.1-5-19.4-8
		c-11.4-5.5-18-3.7-27.4,4.7c-11.6,10.4-24.8,19.2-36.7,29.3c-6.9,5.9-13.7,12.4-19,19.8c-13.4,18.9-33.1,29.8-51.1,43
		c-1.1,0.8-2,1.7-4.1,3.4c4.8,7.2,9.4,14.5,14.6,21.3c1.5,2,5.1,3.1,7.7,3c1,0,2.5-4.2,2.8-6.6c1.4-9.7,2.4-19.5,5.9-29
		c0.9,12,2,23.9,2.5,35.9c0.2,3.9-1.4,7.8-2.1,11.7c-0.6,3.2-2,6.8-1.2,9.7c4.5,15.2,3.3,18.4-8.2,29.1
		c-15,13.9-32.3,20.3-52.4,17.4c-10.4-1.5-19.5,1.3-26.9,7.5c-12.4,10.4-23.8,21.9-35.4,33.2c-1.1,1-1.3,4.9-0.7,5.2
		c3.3,1.8,6.9,3.7,10.6,4.2c7.5,1.1,15.1,1.3,22.4,4.3c-8,3.8-16.1,7.7-26.4,12.6c-20.6-5.6-35.2-25.5-54.1-39.2
		c-12.1-8.8-23.5-18.4-35.9-26.7c-4.1-2.7-10.2-2.1-15.4-3.2c-9.6-2.1-19.2-4.3-30-6.7c2.9,9.5,5,18.5,8.3,27.1
		c3,7.8,7.6,14.8,4.4,23.9c-0.6,1.8,2.6,5.9,5,7.6c6.7,4.7,14,8.8,21,13.1C310,574,309.7,575.4,309.4,576.8z M350.1,425
		c0,12.1-0.6,26.3,0.2,40.4c1,17.1,2.3,34.3,11.7,49.5c6.6,10.6,12.1,22.6,27.8,23.2c4.7-11.3,11.4-20.5,24.5-22.5
		c1.2-0.2,2.6-1.1,3.4-2c6.5-7.1,17.2-11.7,16-23.7c-1.5-15-3.6-29.9-6.1-44.7c-0.4-2.6-3.7-6.2-6.1-6.7
		C398.1,433.7,374.7,429.5,350.1,425z M504.2,476.1c-12.5-12.9-24-25-35.7-36.9c-1.6-1.7-4-2.9-6.3-3.4c-0.6-0.1-2.8,2.9-2.9,4.6
		c-1.2,18.3-2.1,36.6-3.2,56.7c9.5-2.2,16.9-5.4,24.2-5.3C493.1,492.1,500.4,486.6,504.2,476.1z M272.7,495.5
		c18.1,8.8,34.5,4.9,52.5,3.2c-2.5-7.6-5-14.4-6.9-21.3c-1.7-6.2-5.8-6.3-10-3.8C296.9,480.3,285.8,487.5,272.7,495.5z M393.8,263.1
		c7.6,8.5,13.4,15.1,18.9,21.2c5.3-1.4,10.1-2.6,16-4.2C420.5,269,409.2,265.1,393.8,263.1z"/>
</g>
<g>
	<path class="st3" d="M950,277.1c4.2,6.1,9.2,11,16.8,12.1c-0.6-0.9-1.5-2-1.8-2.5c7.8-3,15.6-6,24.6-9.5
		c-4.7,6.2-8.6,11.5-12.6,16.8c0.2,0.4,0.5,0.8,0.7,1.2c1.7-0.9,3.7-1.6,5.1-2.9c5.7-5.6,10.7-12.1,18.5-15.1
		c2.9-1.1,6.1-1.5,9.4-2.3c-5.1,9.4-9.7,18-14.3,26.5c6.2,0.1,12.7-4.7,18.4-13.9c4.1,1.6-2.8,8.1,3.9,8.6
		c-1.3,6.3-4.6,10.6-13,17.2c7.9,7,15.8,14,23.1,20.4c0.9-1.3,2.1-3.5,3.7-5.3c6.4-7.1,13.1-13.8,19.2-21.1c2-2.4,2.4-6,4.2-9.1
		c0,4.5,0.2,9.1-0.1,13.6c-0.1,2-0.7,4.2-1.8,5.9c-4.3,7-4.4,7-6,17.7c7.1-3.5,13.4-6.6,19.8-9.8c0.3,0.2,0.7,0.3,1,0.5
		c-3.4,6.4-6.8,12.8-10.2,19.2c9.6,4.9,18.8,10.2,28.5,14.3c5,2.1,10.8,2.4,16.3,3.5c-0.1,0.3-0.7,1.6-1.7,3.5
		c2.5,0.4,4.9,1.3,7.1,1c3.3-0.5,5.5,1,7.5,2.9c2.7,2.7,5.2,5.5,7.8,8.3c0.2,0.2,0.4,0.6,0.6,0.7c5.3,1,10.5,2.1,15.8,2.7
		c2.2,0.3,4.8-1.7,6.3,1.5c0.2,0.3,0.8,0.7,1.1,0.6c3.9-0.3,7.9-0.6,11.8-0.9c0.9-0.1,2.1-1.1,2.5-0.8c4,3.6,7.3,0.4,10.9-0.7
		c2.7-0.8,5.7-0.4,8.5-0.9c8.5-1.3,17-2.9,25.6-4.1c1.7-0.2,3.7,1.2,4.9,1.7c-2.5,3.9-4.3,6.9-6.1,9.9c-2.9,4.6-5.4,9.4-10.2,12.7
		c-1.8,1.2-2.5,4.2-3.8,6.6c-7-3.2-5.2,4.3-7.8,7.3c-7.1-4.4-4.5,4.3-7.5,5.7c-4.7-2.5-4.7-2.5-6.3,5.1c-1.2-0.7-2.4-1.4-3.5-2
		c-1.2-0.7-2.3-1.4-4.2-1.7c0.6,1.2,0.9,2.7,1.9,3.5c8,7.1,11.4,16.8,14.6,26.4c4.9,14.9,10.6,29.4,19.3,42.5
		c2.4,3.7,4.9,7.3,7.8,10.6c5.1,5.9,7,13.2,8.6,20.4c1.1,4.8-1.4,7.4-6.5,8.6c-1.8,0.4-3.5,1-5.2,1.8c-10.2,4.5-18.8,0.2-20-10.7
		c-2.1-18.2-9.5-34.3-18.4-50c-0.6-1.1-1.9-2.5-2.9-2.5c-8.3-0.7-16.6-1.3-24.8-1.6c-1.7-0.1-3.5,1.4-5.3,2.1
		c-1.5,0.5-3.5,1.5-4.7,1c-6.4-2.6-14-0.9-19.7-6.1c-0.9-0.8-2.7-0.5-5.3-0.8c3.9,6.4,7.4,11.5,10.2,16.9c1.3,2.6,2,5.8,2,8.8
		c0,9.5-0.6,19-0.6,28.5c0.1,8.3,0.3,16.7,1.3,24.9c1.1,9.7,2.3,19.4-0.8,28.8c-1.5,4.7-1.6,9.4-2.1,14.1c-0.2,1.7-2.1,4.2-3.7,4.5
		c-6.5,1.6-13.2,2.5-19.5,3.6c-0.5-1.3-0.7-1.6-0.6-1.6c7.2-10.8,5.9-22.6,4.7-34.5c-0.7-6.6-0.2-13.3-0.3-19.9
		c-0.1-8.1-0.3-16.3-0.5-24.4c-0.1-2.8-1.6-4.2-4.3-5.1c-3.3-1.1-6.2-3-9.5-4.3c-9.4-3.8-18.6-8.9-28.4-10.7
		c-7.9-1.4-14.3-4-19.8-9.4c-1.2-1.1-2-2.6-3-3.9c-0.6-0.8-1.7-2.1-2.1-1.9c-4.2,1.6-4.8-2-6.2-4.3c-1.7-2.8-3.3-5.8-4.8-8.7
		c-1.3-2.5-2.3-4.9-6-4.2c-0.9,0.2-2.7-1.7-3.1-3c-0.8-2.4-1.1-5.1-1.4-7.6c-0.3-2.6-0.4-5-3.6-6.1c-1-0.3-1.8-2.9-1.7-4.4
		c0.4-6.8-3.8-11.6-6.7-17c-1.4-2.6-2.1-5.6-3.6-9.4c-2.2,0.8-5.4,1.7-8.3,3.2c-8.3,4.3-16.7,8.4-26.1,9.7
		c-4.8,0.7-9.8,0.1-14.6,0.1c-2.8,2.5-6,5.4-8.7,7.7c-4.5-2-8-3.6-11.7-5c-0.3-0.1-1.3,1.7-2.1,2.8c-0.1,0-0.6,0.2-0.7,0.1
		c-6.2-5-11.9-1.3-17.7,0.8c-14.3,5.1-28.6,10.2-42.9,15.5c-5.5,2.1-10.7,4.8-17,7.7c-0.5,4.1-1.2,9.3-1.6,14.5
		c-0.1,0.9,1.1,2.1,2,2.9c5.7,5.4,11.9,10.4,17,16.3c4.6,5.3,4.3,12.1,2.9,18.8c-0.5,2.3-0.1,4.8-0.1,7.7
		c-8.7,3.6-21.1-0.5-27.4-9.2c-2.5-3.5-6.1-6.5-9.7-8.9c-6-3.9-9.9-9.5-11.2-15.8c-1.9-9.9-2.5-20.2-3-30.3
		c-0.2-4.2,1.3-8.5,1.6-12.8c0.1-1-1.6-2.9-2.5-2.9c-11.8-0.1-23.7-0.7-35.1,3.3c-1.9,0.7-4.2,0.3-6.3,0.5
		c-9.4,0.9-9.4,0.9-16.6,5.7c0.4,8.3,1.3,16,1,23.6c-0.1,2.9-2.9,5.7-4.5,8.5c-1.1,1.9-2.1,3.8-3.5,5.5c-0.8,1-2.5,1.4-3.3,2.4
		c-3,3.6-5.1,8.3-10.5,9.4c-1,0.2-1.6,2-2.3,3c-0.8-0.4-1.5-0.8-2.6-1.5c-0.4,1.7-0.7,3-1,4.8c-2.9-5.4-6.6-10-8-15.2
		c-1.5-5.8-2.1-12.4-1.1-18.4c1.4-8.4,3.7-16.9,7.3-24.5c2.6-5.6,8-9.8,12-14.8c3.1-3.9,6-8,8.8-12.1c4-5.9,9-10.6,15.6-13.4
		c1.8-0.8,3.7-1.7,5.6-1.7c8.3-0.2,16.7-0.2,25,0c2.4,0,4.8,0.8,6.8,0.3c2.8-0.9,5.6-2.2,8.5-2.7c4-0.7,8-0.7,12-1.2
		c3.7-0.5,7.4-1.4,11.3-2.7c-9-0.8-18.1-1.1-22-11.2c5.2-0.5,10.4-0.1,14.8-1.7c5.8-2.2,11.1-5.8,16.3-9.3c2.1-1.5,3.1-3.7,2.6-7.3
		c-0.5-3.5,2.1-7.5,3.6-11c1.4-3.2,1.6-5.7-2-7.6c-0.7-0.4-1.5-1.2-1.7-2c-2-6-6.6-7.6-12.2-8.3c-5.1-0.7-10.1-2.3-15.1-3.2
		c-1.3-0.2-2.8,0.5-5,0.9c-11.5-9.5-25.8-9.5-40.6-7.8c-5.5,0.6-11.2,0.4-16.7,1c-6.6,0.8-13.1,2.4-19.7,3.1c-2.3,0.2-5-1-7.2-2.2
		c-1.1-0.6-2.5-2.8-2.1-3.7c0.6-1.5,2.3-3.3,3.8-3.6c7.8-1.5,14.8-7.6,17.9-16.5c-4.8,0.9-9.4,1.5-13.7,2.8
		c-1.2,0.3-1.8,2.5-2.8,3.9c-1.7-2.7-4.4-3.5-8.4-4.1c-7.6-1-12.7-6.7-15.7-13.5c-1.7-3.8,2.1-5.6,4.5-7.4c8-6,16.2-11.7,24.3-17.6
		c1.1-0.8,2.3-2.4,2.3-3.6c0-5,2.6-7.9,6.8-9.7c4.6-1.9,9.2-4.3,14-4.9c6.8-0.9,11.9-4.6,17.4-8c4.3-2.6,9-5,13.9-6.3
		c11.6-3.1,21.1-9.8,30.5-16.7c0.8-0.6,0.9-2.2,1.2-3c12.1-6,24.8-11.4,36.5-18.5c11.9-7.3,22.7-16.3,33.9-24.6
		c0.3,0.3,0.6,0.7,0.9,1c-11.1,10.2-22.2,20.5-33.5,30.9c1.5,0.2,3.1,0.5,4.7,0.7c-10,3.8-19.1,8.5-25.2,17.8
		c0.4-0.3,0.9-0.5,1.3-0.8c0.4-0.2,0.8-0.4,1.6-0.8c0.1,2.2,0.2,4.2,0.3,6.7c7.5-2.8,14.7-5.3,21.8-8.2c3-1.2,4.6-1,4.8,2.8
		c3-1,5.6-1.8,8.9-2.9c-0.7,2-1.2,3.3-2.2,5.9c9-2.2,17.1-4.2,25.9-6.3c-0.8,2.3-1.4,3.9-2.1,5.9c1.8,0.6,3.8,1,5.4,1.9
		c10,5.1,21.3,1.4,31.5,5.2c0.4,0.1,0.8,0.3,1.9,0.8c-3.8,1.6-7,3-11.2,4.8c5.5,2.6,10.1,4.8,15,7c-2.3,0.3-4.2,0.5-6.2,0.8
		c-0.1,0.5-0.1,1-0.2,1.5c4.2,0.9,8.4,2.2,12.6,2.5c4.1,0.3,8.3-0.5,11.9-0.8c-2.5,2.8-5.3,6-8.5,9.6c2,0.7,3,1.1,4.5,1.6
		c-1.3,2.2-2.5,4.1-3.6,6c-0.5-0.6-1.1-1.2-1.6-1.8c2.3,2.7,4.5,5.3,6.8,8L950,277.1z M1077.9,456.2c-4.5,4.6-5.1,7.5-2,13.4
		c1.6,2.9,3.2,6.1,5.5,8.3c2.4,2.3,5.6,4.2,8.7,5c2.9,0.7,6.7-0.4,5.9-4.7c-1.1-6-3.1-11.9-4.7-17.9c-0.6,0.5-1.2,0.9-1.7,1.4
		C1085.9,460,1082.2,458.2,1077.9,456.2z M1134,423.3c0.2,9.1,5.9,14.6,12.6,19.3c1.5,1,4.8,1.9,5.3,1.2c2.1-2.5,6.6-4.3,4.7-8.8
		c-1.7-4.1-3.8-8-6-12.4c-1.9,1.5-3.2,2.5-4.8,3.8C1142.3,424,1138.9,420.7,1134,423.3z"/>
</g>
</svg>
